<svg xmlns="http://www.w3.org/2000/svg" xmlns:xlink="http://www.w3.org/1999/xlink" width="270" height="270"><defs><clipPath id="clip-mask-1"><rect x="5" y="86" width="240" height="82"><animate attributeName="x" from="-235" to="5" dur="0.889" begin="0; animate4.end + 1" id="animate1" fill="freeze"/></rect></clipPath><clipPath id="clip-mask-2"><rect x="5" y="39" width="129" height="168"><set attributeName="y" to="-129" begin="0; animate4.end + 1" /><animate attributeName="y" from="-129" to="39" dur="0.622" begin="animate1.end + 0.5" id="animate2" fill="freeze"/></rect></clipPath><clipPath id="clip-mask-3"><rect x="5" y="190" width="243" height="40"><set attributeName="x" to="-238" begin="0; animate4.end + 1" /><animate attributeName="x" from="-238" to="5" dur="0.900" begin="animate2.end" id="animate3" fill="freeze"/></rect></clipPath><clipPath id="clip-mask-4"><rect x="5" y="153" width="239" height="54"><set attributeName="y" to="207" begin="0; animate4.end + 1" /><animate attributeName="y" from="207" to="153" dur="0.200" begin="animate3.end" id="animate4" fill="freeze"/></rect></clipPath></defs><path d="M 0 0 L 270 270 M 270 0 L 0 270 M 135 0 L 135 270 M 0 135 L 270 135" stroke="#CCCCCC" /><path d="M 152 114 Q 199 97 210.5 91.5 Q 222 86 233.5 93.5 Q 245 101 235 104.5 Q 225 108 196.5 115.5 Q 168 123 124 139 L 111 143 Q 66 162 57 165 Q 48 168 34.5 162.5 Q 21 157 36 154 Q 51 151 67 145 Q 83 139 111 129 L 124 125" fill="#CCCCCC"/><path d="M 124 139 Q 123 180 127 190 L 116 207 Q 111 194 111 177 L 111 143 L 111 129 Q 111 107 110 83 Q 109 59 102 49 Q 95 39 104.5 40.5 Q 114 42 124 47.5 Q 134 53 130.5 59.5 Q 127 66 125.5 92 Q 124 118 124 125" fill="#CCCCCC"/><path d="M 127 190 Q 130 201 139.5 206.5 Q 149 212 169.5 211 Q 190 210 203 207 L 244 204 Q 248 212 235 217.5 Q 222 223 209 225.5 Q 196 228 177 229 Q 158 230 140 225.5 Q 122 221 116 207" fill="#CCCCCC"/><path d="M 203 207 Q 217 203 224 197.5 Q 231 192 236 172.5 Q 241 153 240.5 174.5 Q 240 196 244 204" fill="#CCCCCC"/><path d="M 152 114 Q 199 97 210.5 91.5 Q 222 86 233.5 93.5 Q 245 101 235 104.5 Q 225 108 196.5 115.5 Q 168 123 124 139 L 111 143 Q 66 162 57 165 Q 48 168 34.5 162.5 Q 21 157 36 154 Q 51 151 67 145 Q 83 139 111 129 L 124 125" fill="#0000ff" clip-path="url(#clip-mask-1)" /><path d="M 124 139 Q 123 180 127 190 L 116 207 Q 111 194 111 177 L 111 143 L 111 129 Q 111 107 110 83 Q 109 59 102 49 Q 95 39 104.5 40.5 Q 114 42 124 47.5 Q 134 53 130.5 59.5 Q 127 66 125.5 92 Q 124 118 124 125" fill="#000080" clip-path="url(#clip-mask-2)" /><path d="M 127 190 Q 130 201 139.5 206.5 Q 149 212 169.5 211 Q 190 210 203 207 L 244 204 Q 248 212 235 217.5 Q 222 223 209 225.5 Q 196 228 177 229 Q 158 230 140 225.5 Q 122 221 116 207" fill="#000080" clip-path="url(#clip-mask-3)" /><path d="M 203 207 Q 217 203 224 197.5 Q 231 192 236 172.5 Q 241 153 240.5 174.5 Q 240 196 244 204" fill="#000080" clip-path="url(#clip-mask-4)" /></svg>