<svg xmlns="http://www.w3.org/2000/svg" xmlns:xlink="http://www.w3.org/1999/xlink" width="270" height="270"><defs><clipPath id="clip-mask-1"><rect x="75" y="48" width="128" height="35"><animate attributeName="x" from="-53" to="75" dur="0.474" begin="0; animate3.end + 1" id="animate1" fill="freeze"/></rect></clipPath><clipPath id="clip-mask-2"><rect x="81" y="116" width="109" height="26"><set attributeName="x" to="-28" begin="0; animate3.end + 1" /><animate attributeName="x" from="-28" to="81" dur="0.404" begin="animate1.end + 0.5" id="animate2" fill="freeze"/></rect></clipPath><clipPath id="clip-mask-3"><rect x="18" y="178" width="233" height="43"><set attributeName="x" to="-215" begin="0; animate3.end + 1" /><animate attributeName="x" from="-215" to="18" dur="0.863" begin="animate2.end + 0.5" id="animate3" fill="freeze"/></rect></clipPath></defs><path d="M 0 0 L 270 270 M 270 0 L 0 270 M 135 0 L 135 270 M 0 135 L 270 135" stroke="#CCCCCC" /><path d="M 113 65 L 146 58 Q 178 48 188 51 Q 198 54 201 58 Q 203 61 199 64 Q 197 66 182 69 Q 149 74 118 79 Q 99 83 84 74 Q 75 68 88 66" fill="#CCCCCC"/><path d="M 115 126 L 146 119 Q 163 116 173 118 Q 183 120 187 126 Q 190 132 180 133 Q 147 136 103 141 Q 93 142 89 139 Q 81 132 88 131" fill="#CCCCCC"/><path d="M 161 190 L 214 181 Q 228 178 246 193 Q 251 198 249 202 Q 248 205 241 205 Q 240 204 240 205 Q 122 199 47 218 Q 34 221 23 210 Q 18 203 25 203" fill="#CCCCCC"/><path d="M 113 65 L 146 58 Q 178 48 188 51 Q 198 54 201 58 Q 203 61 199 64 Q 197 66 182 69 Q 149 74 118 79 Q 99 83 84 74 Q 75 68 88 66" fill="#000080" clip-path="url(#clip-mask-1)" /><path d="M 115 126 L 146 119 Q 163 116 173 118 Q 183 120 187 126 Q 190 132 180 133 Q 147 136 103 141 Q 93 142 89 139 Q 81 132 88 131" fill="#000080" clip-path="url(#clip-mask-2)" /><path d="M 161 190 L 214 181 Q 228 178 246 193 Q 251 198 249 202 Q 248 205 241 205 Q 240 204 240 205 Q 122 199 47 218 Q 34 221 23 210 Q 18 203 25 203" fill="#0000ff" clip-path="url(#clip-mask-3)" /></svg>