<svg xmlns="http://www.w3.org/2000/svg" xmlns:xlink="http://www.w3.org/1999/xlink" width="270" height="270"><defs><clipPath id="clip-mask-1"><rect x="39" y="17" width="191" height="41"><animate attributeName="x" from="-152" to="39" dur="0.707" begin="0; animate7.end + 1" id="animate1" fill="freeze"/></rect></clipPath><clipPath id="clip-mask-2"><rect x="120" y="44" width="24" height="84"><set attributeName="y" to="-40" begin="0; animate7.end + 1" /><animate attributeName="y" from="-40" to="44" dur="0.311" begin="animate1.end + 0.5" id="animate2" fill="freeze"/></rect></clipPath><clipPath id="clip-mask-3"><rect x="140" y="71" width="58" height="20"><set attributeName="x" to="82" begin="0; animate7.end + 1" /><animate attributeName="x" from="82" to="140" dur="0.215" begin="animate2.end + 0.5" id="animate3" fill="freeze"/></rect></clipPath><clipPath id="clip-mask-4"><rect x="55" y="79" width="36" height="78"><set attributeName="y" to="1" begin="0; animate7.end + 1" /><animate attributeName="y" from="1" to="79" dur="0.289" begin="animate3.end + 0.5" id="animate4" fill="freeze"/></rect></clipPath><clipPath id="clip-mask-5"><rect x="75" y="115" width="135" height="38"><set attributeName="x" to="-60" begin="0; animate7.end + 1" /><animate attributeName="x" from="-60" to="75" dur="0.500" begin="animate4.end" id="animate5" fill="freeze"/></rect></clipPath><clipPath id="clip-mask-6"><rect x="160" y="131" width="52" height="115"><set attributeName="y" to="16" begin="0; animate7.end + 1" /><animate attributeName="y" from="16" to="131" dur="0.426" begin="animate5.end" id="animate6" fill="freeze"/></rect></clipPath><clipPath id="clip-mask-7"><rect x="130" y="210" width="32" height="42"><set attributeName="x" to="162" begin="0; animate7.end + 1" /><animate attributeName="x" from="162" to="130" dur="0.119" begin="animate6.end" id="animate7" fill="freeze"/></rect></clipPath></defs><path d="M 0 0 L 270 270 M 270 0 L 0 270 M 135 0 L 135 270 M 0 135 L 270 135" stroke="#CCCCCC" /><path d="M 120 45 Q 90 49 64 56 Q 59 58 53 56 Q 48 55 44 51 Q 39 46 46 45 Q 136 33 192 23 Q 208 17 225 30 Q 230 34 228 37 Q 226 40 207 40 Q 163 40 134 44" fill="#CCCCCC"/><path d="M 124 95 L 124 78 Q 123 50 120 45 L 134 44 Q 136 44 137 45 Q 144 52 142 58 Q 141 64 140 80 L 140 88 Q 138 105 138 125 L 124 128" fill="#CCCCCC"/><path d="M 140 80 Q 149 79 157 78 Q 164 75 171 74 Q 179 71 187 72 Q 195 73 197 76 Q 198 79 196 81 Q 195 81 166 88 Q 151 91 140 88" fill="#CCCCCC"/><path d="M 75 153 Q 70 157 66 154 Q 60 149 57 146 Q 55 142 58 138 Q 67 128 68 123 Q 74 95 69 86 Q 67 82 70 80 Q 73 79 79 82 Q 84 84 89 88 Q 91 92 89 96 Q 85 107 80 132" fill="#CCCCCC"/><path d="M 138 125 Q 145 123 162 121 Q 183 115 192 119 Q 206 127 210 131 L 180 133 Q 177 130 169 131 Q 102 137 75 153 L 80 132 Q 78 137 85 136 Q 104 131 124 128" fill="#CCCCCC"/><path d="M 210 131 Q 212 134 207 139 Q 201 144 199 157 Q 186 218 181 229 Q 177 237 162 246 L 160 217 Q 166 213 168 207 Q 179 174 183 150 Q 185 139 180 133" fill="#CCCCCC"/><path d="M 162 246 Q 154 252 149 242 Q 145 233 135 221 Q 130 216 130 213 Q 131 210 136 213 Q 158 218 160 217" fill="#CCCCCC"/><path d="M 120 45 Q 90 49 64 56 Q 59 58 53 56 Q 48 55 44 51 Q 39 46 46 45 Q 136 33 192 23 Q 208 17 225 30 Q 230 34 228 37 Q 226 40 207 40 Q 163 40 134 44" fill="#0000ff" clip-path="url(#clip-mask-1)" /><path d="M 124 95 L 124 78 Q 123 50 120 45 L 134 44 Q 136 44 137 45 Q 144 52 142 58 Q 141 64 140 80 L 140 88 Q 138 105 138 125 L 124 128" fill="#000080" clip-path="url(#clip-mask-2)" /><path d="M 140 80 Q 149 79 157 78 Q 164 75 171 74 Q 179 71 187 72 Q 195 73 197 76 Q 198 79 196 81 Q 195 81 166 88 Q 151 91 140 88" fill="#000080" clip-path="url(#clip-mask-3)" /><path d="M 75 153 Q 70 157 66 154 Q 60 149 57 146 Q 55 142 58 138 Q 67 128 68 123 Q 74 95 69 86 Q 67 82 70 80 Q 73 79 79 82 Q 84 84 89 88 Q 91 92 89 96 Q 85 107 80 132" fill="#000080" clip-path="url(#clip-mask-4)" /><path d="M 138 125 Q 145 123 162 121 Q 183 115 192 119 Q 206 127 210 131 L 180 133 Q 177 130 169 131 Q 102 137 75 153 L 80 132 Q 78 137 85 136 Q 104 131 124 128" fill="#000080" clip-path="url(#clip-mask-5)" /><path d="M 210 131 Q 212 134 207 139 Q 201 144 199 157 Q 186 218 181 229 Q 177 237 162 246 L 160 217 Q 166 213 168 207 Q 179 174 183 150 Q 185 139 180 133" fill="#000080" clip-path="url(#clip-mask-6)" /><path d="M 162 246 Q 154 252 149 242 Q 145 233 135 221 Q 130 216 130 213 Q 131 210 136 213 Q 158 218 160 217" fill="#000080" clip-path="url(#clip-mask-7)" /></svg>