<svg xmlns="http://www.w3.org/2000/svg" xmlns:xlink="http://www.w3.org/1999/xlink" width="270" height="270"><defs><clipPath id="clip-mask-1"><rect x="76" y="47" width="27" height="162"><animate attributeName="y" from="-115" to="47" dur="0.600" begin="0; animate6.end + 1" id="animate1" fill="freeze"/></rect></clipPath><clipPath id="clip-mask-2"><rect x="95" y="36" width="96" height="27"><set attributeName="x" to="-1" begin="0; animate6.end + 1" /><animate attributeName="x" from="-1" to="95" dur="0.356" begin="animate1.end + 0.5" id="animate2" fill="freeze"/></rect></clipPath><clipPath id="clip-mask-3"><rect x="161" y="53" width="34" height="150"><set attributeName="y" to="-97" begin="0; animate6.end + 1" /><animate attributeName="y" from="-97" to="53" dur="0.556" begin="animate2.end" id="animate3" fill="freeze"/></rect></clipPath><clipPath id="clip-mask-4"><rect x="102" y="97" width="50" height="17"><set attributeName="x" to="52" begin="0; animate6.end + 1" /><animate attributeName="x" from="52" to="102" dur="0.185" begin="animate3.end + 0.5" id="animate4" fill="freeze"/></rect></clipPath><clipPath id="clip-mask-5"><rect x="101" y="140" width="55" height="19"><set attributeName="x" to="46" begin="0; animate6.end + 1" /><animate attributeName="x" from="46" to="101" dur="0.204" begin="animate4.end + 0.5" id="animate5" fill="freeze"/></rect></clipPath><clipPath id="clip-mask-6"><rect x="17" y="191" width="235" height="42"><set attributeName="x" to="-218" begin="0; animate6.end + 1" /><animate attributeName="x" from="-218" to="17" dur="0.870" begin="animate5.end + 0.5" id="animate6" fill="freeze"/></rect></clipPath></defs><path d="M 0 0 L 270 270 M 270 0 L 0 270 M 135 0 L 135 270 M 0 135 L 270 135" stroke="#CCCCCC" /><path d="M 86 96 L 85 82 Q 85 70 83 63 Q 80 58 77 53 Q 76 50 79 48 Q 82 47 86 48 Q 91 50 95 53 L 103 63 Q 103 84 102 104 L 102 111 Q 102 128 101 148 L 101 156 Q 101 180 101 208 L 86 209" fill="#CCCCCC"/><path d="M 163 54 Q 161 51 155 52 Q 140 54 105 62 Q 104 63 103 63 L 95 53 Q 116 51 147 43 Q 167 36 171 39 Q 188 49 191 53" fill="#CCCCCC"/><path d="M 161 203 Q 164 145 165 67 Q 165 57 163 54 L 191 53 Q 195 58 191 63 Q 185 71 184 83 Q 181 130 180 201" fill="#CCCCCC"/><path d="M 102 104 Q 102 104 103 104 Q 110 103 116 102 Q 136 97 141 97 Q 149 99 151 102 Q 152 104 150 106 Q 149 107 130 111 Q 114 114 102 111" fill="#CCCCCC"/><path d="M 101 148 Q 109 147 116 146 Q 122 145 127 143 Q 136 140 144 142 Q 153 144 154 147 Q 156 149 153 152 Q 152 152 129 156 Q 110 159 101 156" fill="#CCCCCC"/><path d="M 101 208 Q 128 205 161 203 L 180 201 Q 204 198 211 197 Q 229 191 248 210 Q 252 214 249 218 Q 247 220 241 219 Q 201 214 172 215 Q 79 219 45 230 Q 35 233 23 224 Q 17 219 18 216 Q 18 212 22 213 Q 42 213 69 210 Q 77 209 86 209" fill="#CCCCCC"/><path d="M 86 96 L 85 82 Q 85 70 83 63 Q 80 58 77 53 Q 76 50 79 48 Q 82 47 86 48 Q 91 50 95 53 L 103 63 Q 103 84 102 104 L 102 111 Q 102 128 101 148 L 101 156 Q 101 180 101 208 L 86 209" fill="#000080" clip-path="url(#clip-mask-1)" /><path d="M 163 54 Q 161 51 155 52 Q 140 54 105 62 Q 104 63 103 63 L 95 53 Q 116 51 147 43 Q 167 36 171 39 Q 188 49 191 53" fill="#000080" clip-path="url(#clip-mask-2)" /><path d="M 161 203 Q 164 145 165 67 Q 165 57 163 54 L 191 53 Q 195 58 191 63 Q 185 71 184 83 Q 181 130 180 201" fill="#000080" clip-path="url(#clip-mask-3)" /><path d="M 102 104 Q 102 104 103 104 Q 110 103 116 102 Q 136 97 141 97 Q 149 99 151 102 Q 152 104 150 106 Q 149 107 130 111 Q 114 114 102 111" fill="#000080" clip-path="url(#clip-mask-4)" /><path d="M 101 148 Q 109 147 116 146 Q 122 145 127 143 Q 136 140 144 142 Q 153 144 154 147 Q 156 149 153 152 Q 152 152 129 156 Q 110 159 101 156" fill="#000080" clip-path="url(#clip-mask-5)" /><path d="M 101 208 Q 128 205 161 203 L 180 201 Q 204 198 211 197 Q 229 191 248 210 Q 252 214 249 218 Q 247 220 241 219 Q 201 214 172 215 Q 79 219 45 230 Q 35 233 23 224 Q 17 219 18 216 Q 18 212 22 213 Q 42 213 69 210 Q 77 209 86 209" fill="#0000ff" clip-path="url(#clip-mask-6)" /></svg>