<svg xmlns="http://www.w3.org/2000/svg" xmlns:xlink="http://www.w3.org/1999/xlink" width="270" height="270"><defs><clipPath id="clip-mask-1"><rect x="90" y="38" width="86" height="64"><animate attributeName="x" from="176" to="90" dur="0.319" begin="0; animate5.end + 1" id="animate1" fill="freeze"/></rect></clipPath><clipPath id="clip-mask-2"><rect x="69" y="91" width="33" height="121"><set attributeName="y" to="-30" begin="0; animate5.end + 1" /><animate attributeName="y" from="-30" to="91" dur="0.448" begin="animate1.end + 0.5" id="animate2" fill="freeze"/></rect></clipPath><clipPath id="clip-mask-3"><rect x="97" y="107" width="115" height="34"><set attributeName="x" to="-18" begin="0; animate5.end + 1" /><animate attributeName="x" from="-18" to="97" dur="0.426" begin="animate2.end + 0.5" id="animate3" fill="freeze"/></rect></clipPath><clipPath id="clip-mask-4"><rect x="146" y="130" width="27" height="77"><set attributeName="y" to="53" begin="0; animate5.end + 1" /><animate attributeName="y" from="53" to="130" dur="0.285" begin="animate3.end + 0.5" id="animate4" fill="freeze"/></rect></clipPath><clipPath id="clip-mask-5"><rect x="21" y="196" width="227" height="35"><set attributeName="x" to="-206" begin="0; animate5.end + 1" /><animate attributeName="x" from="-206" to="21" dur="0.841" begin="animate4.end + 0.5" id="animate5" fill="freeze"/></rect></clipPath></defs><path d="M 0 0 L 270 270 M 270 0 L 0 270 M 135 0 L 135 270 M 0 135 L 270 135" stroke="#CCCCCC" /><path d="M 90 98 Q 138 57 136 45 Q 135 41 137 39 Q 141 38 147 39 Q 163 40 171 44 Q 176 46 175 50 Q 175 53 169 55 Q 157 61 144 70 Q 126 85 95 102" fill="#CCCCCC"/><path d="M 85 147 L 82 130 Q 79 114 71 99 Q 69 94 71 92 Q 74 91 78 92 Q 84 94 90 98 L 95 102 Q 97 105 97 110 Q 96 114 97 127 L 97 136 Q 97 154 102 211 L 90 212" fill="#CCCCCC"/><path d="M 146 133 Q 133 135 121 137 Q 108 141 97 136 L 97 127 Q 134 123 170 114 Q 192 107 200 108 Q 209 111 211 114 Q 212 117 209 119 Q 207 121 191 125 Q 175 127 160 130" fill="#CCCCCC"/><path d="M 146 207 Q 151 165 151 154 Q 150 143 146 133 L 160 130 Q 165 134 169 139 Q 173 144 170 150 Q 166 164 159 206" fill="#CCCCCC"/><path d="M 102 211 Q 117 209 131 208 Q 139 207 146 207 L 159 206 Q 194 201 217 198 Q 228 196 244 208 Q 248 213 247 216 Q 245 219 239 219 Q 119 213 46 229 Q 34 231 25 222 Q 21 217 27 216 Q 60 214 90 212" fill="#CCCCCC"/><path d="M 90 98 Q 138 57 136 45 Q 135 41 137 39 Q 141 38 147 39 Q 163 40 171 44 Q 176 46 175 50 Q 175 53 169 55 Q 157 61 144 70 Q 126 85 95 102" fill="#000080" clip-path="url(#clip-mask-1)" /><path d="M 85 147 L 82 130 Q 79 114 71 99 Q 69 94 71 92 Q 74 91 78 92 Q 84 94 90 98 L 95 102 Q 97 105 97 110 Q 96 114 97 127 L 97 136 Q 97 154 102 211 L 90 212" fill="#000080" clip-path="url(#clip-mask-2)" /><path d="M 146 133 Q 133 135 121 137 Q 108 141 97 136 L 97 127 Q 134 123 170 114 Q 192 107 200 108 Q 209 111 211 114 Q 212 117 209 119 Q 207 121 191 125 Q 175 127 160 130" fill="#000080" clip-path="url(#clip-mask-3)" /><path d="M 146 207 Q 151 165 151 154 Q 150 143 146 133 L 160 130 Q 165 134 169 139 Q 173 144 170 150 Q 166 164 159 206" fill="#000080" clip-path="url(#clip-mask-4)" /><path d="M 102 211 Q 117 209 131 208 Q 139 207 146 207 L 159 206 Q 194 201 217 198 Q 228 196 244 208 Q 248 213 247 216 Q 245 219 239 219 Q 119 213 46 229 Q 34 231 25 222 Q 21 217 27 216 Q 60 214 90 212" fill="#0000ff" clip-path="url(#clip-mask-5)" /></svg>