<svg xmlns="http://www.w3.org/2000/svg" xmlns:xlink="http://www.w3.org/1999/xlink" width="270" height="270"><defs><clipPath id="clip-mask-1"><rect x="66" y="33" width="137" height="30"><animate attributeName="x" from="-71" to="66" dur="0.507" begin="0; animate7.end + 1" id="animate1" fill="freeze"/></rect></clipPath><clipPath id="clip-mask-2"><rect x="76" y="81" width="122" height="27"><set attributeName="x" to="-46" begin="0; animate7.end + 1" /><animate attributeName="x" from="-46" to="76" dur="0.452" begin="animate1.end + 0.5" id="animate2" fill="freeze"/></rect></clipPath><clipPath id="clip-mask-3"><rect x="120" y="50" width="27" height="92"><set attributeName="y" to="-42" begin="0; animate7.end + 1" /><animate attributeName="y" from="-42" to="50" dur="0.341" begin="animate2.end + 0.5" id="animate3" fill="freeze"/></rect></clipPath><clipPath id="clip-mask-4"><rect x="15" y="127" width="239" height="35"><set attributeName="x" to="-224" begin="0; animate7.end + 1" /><animate attributeName="x" from="-224" to="15" dur="0.885" begin="animate3.end + 0.5" id="animate4" fill="freeze"/></rect></clipPath><clipPath id="clip-mask-5"><rect x="65" y="144" width="81" height="92"><set attributeName="y" to="52" begin="0; animate7.end + 1" /><animate attributeName="y" from="52" to="144" dur="0.341" begin="animate4.end + 0.5" id="animate5" fill="freeze"/></rect></clipPath><clipPath id="clip-mask-6"><rect x="82" y="202" width="112" height="34"><set attributeName="x" to="-30" begin="0; animate7.end + 1" /><animate attributeName="x" from="-30" to="82" dur="0.415" begin="animate5.end" id="animate6" fill="freeze"/></rect></clipPath><clipPath id="clip-mask-7"><rect x="159" y="177" width="54" height="59"><set attributeName="y" to="118" begin="0; animate7.end + 1" /><animate attributeName="y" from="118" to="177" dur="0.219" begin="animate6.end + 0.5" id="animate7" fill="freeze"/></rect></clipPath></defs><path d="M 0 0 L 270 270 M 270 0 L 0 270 M 135 0 L 135 270 M 0 135 L 270 135" stroke="#CCCCCC" /><path d="M 184 33 L 192 37 Q 203 43 203 46 Q 202 50 193 50 Q 169 51 139 54 Q 122 56 94 62 Q 88 63 87 63 Q 80 63 74 60 Q 66 57 66 54 Q 66 53 72 51 Q 129 43 166 36 Q 179 33 182 33" fill="#CCCCCC"/><path d="M 181 81 L 189 84 Q 198 90 198 93 Q 198 97 189 97 Q 168 97 141 101 Q 126 102 101 107 Q 96 108 95 108 Q 89 108 83 105 Q 76 102 76 100 Q 76 99 81 97 Q 132 90 165 84 Q 176 81 179 81" fill="#CCCCCC"/><path d="M 132 50 L 141 54 Q 147 57 147 61 Q 147 63 146 66 Q 145 71 145 75 L 142 142 L 127 142 L 125 69 Q 125 64 122 59 Q 120 57 120 56 Q 120 50 126 50" fill="#CCCCCC"/><path d="M 235 127 L 245 132 Q 254 137 254 142 Q 254 146 247 146 Q 240 146 231 145 Q 221 145 209 145 Q 177 145 131 149 Q 79 153 52 159 Q 38 162 36 162 Q 31 162 23 156 Q 15 151 15 149 Q 15 146 22 145 Q 40 145 71 141 Q 132 135 153 134 Q 170 133 201 130 Q 230 127 231 127" fill="#CCCCCC"/><path d="M 129 144 Q 132 144 139 151 Q 146 158 146 163 Q 146 165 143 166 Q 139 169 136 172 Q 95 210 95 211 L 82 236 Q 78 236 72 228 Q 65 220 65 217 Q 65 215 68 214 Q 77 210 88 198 Q 104 183 117 165 Q 125 154 126 147 Q 126 144 129 144" fill="#CCCCCC"/><path d="M 95 211 Q 95 213 98 213 Q 107 213 176 203 Q 186 202 191 202 Q 194 202 194 204 Q 194 206 188 208 Q 111 226 111 226 Q 93 230 88 233 Q 84 236 82 236" fill="#CCCCCC"/><path d="M 162 177 L 168 178 Q 180 183 190 190 Q 204 200 209 208 Q 213 216 213 225 Q 213 228 211 232 Q 209 236 206 236 Q 204 236 200 232 Q 193 227 184 212 Q 171 192 164 186 Q 159 181 159 178 Q 159 177 160 177" fill="#CCCCCC"/><path d="M 184 33 L 192 37 Q 203 43 203 46 Q 202 50 193 50 Q 169 51 139 54 Q 122 56 94 62 Q 88 63 87 63 Q 80 63 74 60 Q 66 57 66 54 Q 66 53 72 51 Q 129 43 166 36 Q 179 33 182 33" fill="#000080" clip-path="url(#clip-mask-1)" /><path d="M 181 81 L 189 84 Q 198 90 198 93 Q 198 97 189 97 Q 168 97 141 101 Q 126 102 101 107 Q 96 108 95 108 Q 89 108 83 105 Q 76 102 76 100 Q 76 99 81 97 Q 132 90 165 84 Q 176 81 179 81" fill="#000080" clip-path="url(#clip-mask-2)" /><path d="M 132 50 L 141 54 Q 147 57 147 61 Q 147 63 146 66 Q 145 71 145 75 L 142 142 L 127 142 L 125 69 Q 125 64 122 59 Q 120 57 120 56 Q 120 50 126 50" fill="#000080" clip-path="url(#clip-mask-3)" /><path d="M 235 127 L 245 132 Q 254 137 254 142 Q 254 146 247 146 Q 240 146 231 145 Q 221 145 209 145 Q 177 145 131 149 Q 79 153 52 159 Q 38 162 36 162 Q 31 162 23 156 Q 15 151 15 149 Q 15 146 22 145 Q 40 145 71 141 Q 132 135 153 134 Q 170 133 201 130 Q 230 127 231 127" fill="#0000ff" clip-path="url(#clip-mask-4)" /><path d="M 129 144 Q 132 144 139 151 Q 146 158 146 163 Q 146 165 143 166 Q 139 169 136 172 Q 95 210 95 211 L 82 236 Q 78 236 72 228 Q 65 220 65 217 Q 65 215 68 214 Q 77 210 88 198 Q 104 183 117 165 Q 125 154 126 147 Q 126 144 129 144" fill="#000080" clip-path="url(#clip-mask-5)" /><path d="M 95 211 Q 95 213 98 213 Q 107 213 176 203 Q 186 202 191 202 Q 194 202 194 204 Q 194 206 188 208 Q 111 226 111 226 Q 93 230 88 233 Q 84 236 82 236" fill="#000080" clip-path="url(#clip-mask-6)" /><path d="M 162 177 L 168 178 Q 180 183 190 190 Q 204 200 209 208 Q 213 216 213 225 Q 213 228 211 232 Q 209 236 206 236 Q 204 236 200 232 Q 193 227 184 212 Q 171 192 164 186 Q 159 181 159 178 Q 159 177 160 177" fill="#000080" clip-path="url(#clip-mask-7)" /></svg>