<svg xmlns="http://www.w3.org/2000/svg" xmlns:xlink="http://www.w3.org/1999/xlink" width="270" height="270"><defs><clipPath id="clip-mask-1"><rect x="101" y="23" width="89" height="51"><animate attributeName="x" from="190" to="101" dur="0.330" begin="0; animate6.end + 1" id="animate1" fill="freeze"/></rect></clipPath><clipPath id="clip-mask-2"><rect x="76" y="58" width="33" height="106"><set attributeName="y" to="-48" begin="0; animate6.end + 1" /><animate attributeName="y" from="-48" to="58" dur="0.393" begin="animate1.end + 0.5" id="animate2" fill="freeze"/></rect></clipPath><clipPath id="clip-mask-3"><rect x="104" y="84" width="101" height="35"><set attributeName="x" to="3" begin="0; animate6.end + 1" /><animate attributeName="x" from="3" to="104" dur="0.374" begin="animate2.end + 0.5" id="animate3" fill="freeze"/></rect></clipPath><clipPath id="clip-mask-4"><rect x="151" y="106" width="23" height="48"><set attributeName="y" to="58" begin="0; animate6.end + 1" /><animate attributeName="y" from="58" to="106" dur="0.178" begin="animate3.end + 0.5" id="animate4" fill="freeze"/></rect></clipPath><clipPath id="clip-mask-5"><rect x="23" y="138" width="223" height="51"><set attributeName="x" to="-200" begin="0; animate6.end + 1" /><animate attributeName="x" from="-200" to="23" dur="0.826" begin="animate4.end + 0.5" id="animate5" fill="freeze"/></rect></clipPath><clipPath id="clip-mask-6"><rect x="149" y="181" width="66" height="65"><set attributeName="x" to="83" begin="0; animate6.end + 1" /><animate attributeName="x" from="83" to="149" dur="0.244" begin="animate5.end + 0.5" id="animate6" fill="freeze"/></rect></clipPath></defs><path d="M 0 0 L 270 270 M 270 0 L 0 270 M 135 0 L 135 270 M 0 135 L 270 135" stroke="#CCCCCC" /><path d="M 101 68 Q 156 39 156 29 Q 156 25 159 24 Q 169 23 187 35 Q 190 38 189 42 Q 188 44 183 44 Q 172 47 158 53 Q 136 65 104 74" fill="#CCCCCC"/><path d="M 92 107 L 89 92 Q 86 79 79 66 Q 76 62 79 60 Q 81 58 86 60 Q 99 64 101 68 L 104 74 Q 104 97 104 105 Q 104 106 104 108 L 105 116 Q 106 135 109 162 L 97 164" fill="#CCCCCC"/><path d="M 104 108 Q 133 103 161 94 Q 188 84 194 85 Q 202 87 204 90 Q 205 92 203 94 Q 202 95 165 106 L 153 109 Q 139 112 126 116 Q 115 119 105 116" fill="#CCCCCC"/><path d="M 151 154 Q 156 116 153 109 L 165 106 Q 167 108 170 109 Q 174 113 173 115 Q 169 123 162 152" fill="#CCCCCC"/><path d="M 109 162 Q 120 160 130 158 Q 141 156 151 154 L 162 152 Q 192 146 213 141 Q 223 138 241 149 Q 246 154 244 157 Q 243 160 237 160 Q 229 160 220 160 Q 117 165 49 186 Q 38 189 28 180 Q 23 175 29 174 Q 65 169 97 164" fill="#CCCCCC"/><path d="M 149 189 L 149 185 Q 150 181 152 183 Q 153 184 154 184 Q 207 210 211 226 Q 215 239 211 243 Q 209 246 206 245 Q 202 244 197 238 Q 173 211 152 192" fill="#CCCCCC"/><path d="M 101 68 Q 156 39 156 29 Q 156 25 159 24 Q 169 23 187 35 Q 190 38 189 42 Q 188 44 183 44 Q 172 47 158 53 Q 136 65 104 74" fill="#0000ff" clip-path="url(#clip-mask-1)" /><path d="M 92 107 L 89 92 Q 86 79 79 66 Q 76 62 79 60 Q 81 58 86 60 Q 99 64 101 68 L 104 74 Q 104 97 104 105 Q 104 106 104 108 L 105 116 Q 106 135 109 162 L 97 164" fill="#000080" clip-path="url(#clip-mask-2)" /><path d="M 104 108 Q 133 103 161 94 Q 188 84 194 85 Q 202 87 204 90 Q 205 92 203 94 Q 202 95 165 106 L 153 109 Q 139 112 126 116 Q 115 119 105 116" fill="#000080" clip-path="url(#clip-mask-3)" /><path d="M 151 154 Q 156 116 153 109 L 165 106 Q 167 108 170 109 Q 174 113 173 115 Q 169 123 162 152" fill="#000080" clip-path="url(#clip-mask-4)" /><path d="M 109 162 Q 120 160 130 158 Q 141 156 151 154 L 162 152 Q 192 146 213 141 Q 223 138 241 149 Q 246 154 244 157 Q 243 160 237 160 Q 229 160 220 160 Q 117 165 49 186 Q 38 189 28 180 Q 23 175 29 174 Q 65 169 97 164" fill="#000080" clip-path="url(#clip-mask-5)" /><path d="M 149 189 L 149 185 Q 150 181 152 183 Q 153 184 154 184 Q 207 210 211 226 Q 215 239 211 243 Q 209 246 206 245 Q 202 244 197 238 Q 173 211 152 192" fill="#000080" clip-path="url(#clip-mask-6)" /></svg>