<svg xmlns="http://www.w3.org/2000/svg" xmlns:xlink="http://www.w3.org/1999/xlink" width="270" height="270"><defs><clipPath id="clip-mask-1"><rect x="31" y="17" width="91" height="99"><animate attributeName="y" from="-82" to="17" dur="0.367" begin="0; animate6.end + 1" id="animate1" fill="freeze"/></rect></clipPath><clipPath id="clip-mask-2"><rect x="86" y="54" width="103" height="34"><set attributeName="x" to="-17" begin="0; animate6.end + 1" /><animate attributeName="x" from="-17" to="86" dur="0.381" begin="animate1.end + 0.5" id="animate2" fill="freeze"/></rect></clipPath><clipPath id="clip-mask-3"><rect x="44" y="105" width="118" height="39"><set attributeName="x" to="-74" begin="0; animate6.end + 1" /><animate attributeName="x" from="-74" to="44" dur="0.437" begin="animate2.end + 0.5" id="animate3" fill="freeze"/></rect></clipPath><clipPath id="clip-mask-4"><rect x="67" y="126" width="93" height="102"><set attributeName="y" to="24" begin="0; animate6.end + 1" /><animate attributeName="y" from="24" to="126" dur="0.378" begin="animate3.end" id="animate4" fill="freeze"/></rect></clipPath><clipPath id="clip-mask-5"><rect x="80" y="208" width="158" height="44"><set attributeName="x" to="-78" begin="0; animate6.end + 1" /><animate attributeName="x" from="-78" to="80" dur="0.585" begin="animate4.end" id="animate5" fill="freeze"/></rect></clipPath><clipPath id="clip-mask-6"><rect x="202" y="163" width="34" height="57"><set attributeName="y" to="220" begin="0; animate6.end + 1" /><animate attributeName="y" from="220" to="163" dur="0.211" begin="animate5.end" id="animate6" fill="freeze"/></rect></clipPath></defs><path d="M 0 0 L 270 270 M 270 0 L 0 270 M 135 0 L 135 270 M 0 135 L 270 135" stroke="#CCCCCC" /><path d="M 71 95 L 51 109 Q 42 115 35 115 Q 31 116 34 112 Q 49 97 54 95 Q 96 56 96 23 Q 95 18 99 18 Q 105 17 118 29 Q 122 34 119 37 Q 109 49 98 64 Q 94 69 91 73 L 86 79" fill="#CCCCCC"/><path d="M 91 73 Q 111 71 129 67 Q 144 63 159 58 Q 168 54 177 56 Q 185 58 188 62 Q 189 64 186 66 Q 185 68 171 71 Q 143 77 116 83 Q 95 88 86 79" fill="#CCCCCC"/><path d="M 64 128 L 76 126 Q 101 122 126 111 Q 136 105 157 120 Q 162 124 160 128 L 122 126 Q 120 122 77 139 Q 65 144 57 142 Q 52 141 48 137 Q 44 133 45 131 Q 45 129 49 129" fill="#CCCCCC"/><path d="M 160 128 Q 159 131 155 132 Q 147 135 140 140 Q 115 158 105 169 Q 81 194 84 208 L 80 228 Q 73 223 71 215 Q 71 213 71 212 Q 67 187 121 129 Q 123 127 122 126" fill="#CCCCCC"/><path d="M 84 208 Q 85 216 94 220 Q 99 224 108 226 Q 169 234 202 220 L 236 217 Q 238 228 230 232 Q 204 243 183 245 Q 181 245 180 245 Q 104 252 80 228" fill="#CCCCCC"/><path d="M 202 220 Q 210 216 213 209 Q 218 194 222 170 Q 224 163 226 166 Q 228 168 228 174 Q 230 200 236 217" fill="#CCCCCC"/><path d="M 71 95 L 51 109 Q 42 115 35 115 Q 31 116 34 112 Q 49 97 54 95 Q 96 56 96 23 Q 95 18 99 18 Q 105 17 118 29 Q 122 34 119 37 Q 109 49 98 64 Q 94 69 91 73 L 86 79" fill="#000080" clip-path="url(#clip-mask-1)" /><path d="M 91 73 Q 111 71 129 67 Q 144 63 159 58 Q 168 54 177 56 Q 185 58 188 62 Q 189 64 186 66 Q 185 68 171 71 Q 143 77 116 83 Q 95 88 86 79" fill="#000080" clip-path="url(#clip-mask-2)" /><path d="M 64 128 L 76 126 Q 101 122 126 111 Q 136 105 157 120 Q 162 124 160 128 L 122 126 Q 120 122 77 139 Q 65 144 57 142 Q 52 141 48 137 Q 44 133 45 131 Q 45 129 49 129" fill="#0000ff" clip-path="url(#clip-mask-3)" /><path d="M 160 128 Q 159 131 155 132 Q 147 135 140 140 Q 115 158 105 169 Q 81 194 84 208 L 80 228 Q 73 223 71 215 Q 71 213 71 212 Q 67 187 121 129 Q 123 127 122 126" fill="#0000ff" clip-path="url(#clip-mask-4)" /><path d="M 84 208 Q 85 216 94 220 Q 99 224 108 226 Q 169 234 202 220 L 236 217 Q 238 228 230 232 Q 204 243 183 245 Q 181 245 180 245 Q 104 252 80 228" fill="#0000ff" clip-path="url(#clip-mask-5)" /><path d="M 202 220 Q 210 216 213 209 Q 218 194 222 170 Q 224 163 226 166 Q 228 168 228 174 Q 230 200 236 217" fill="#0000ff" clip-path="url(#clip-mask-6)" /></svg>