<svg xmlns="http://www.w3.org/2000/svg" xmlns:xlink="http://www.w3.org/1999/xlink" width="270" height="270"><defs><clipPath id="clip-mask-1"><rect x="42" y="49" width="90" height="27"><animate attributeName="x" from="-48" to="42" dur="0.333" begin="0; animate15.end + 1" id="animate1" fill="freeze"/></rect></clipPath><clipPath id="clip-mask-2"><rect x="75" y="19" width="30" height="81"><set attributeName="y" to="-62" begin="0; animate15.end + 1" /><animate attributeName="y" from="-62" to="19" dur="0.300" begin="animate1.end + 0.5" id="animate2" fill="freeze"/></rect></clipPath><clipPath id="clip-mask-3"><rect x="39" y="102" width="26" height="67"><set attributeName="y" to="35" begin="0; animate15.end + 1" /><animate attributeName="y" from="35" to="102" dur="0.248" begin="animate2.end + 0.5" id="animate3" fill="freeze"/></rect></clipPath><clipPath id="clip-mask-4"><rect x="53" y="90" width="79" height="22"><set attributeName="x" to="-26" begin="0; animate15.end + 1" /><animate attributeName="x" from="-26" to="53" dur="0.293" begin="animate3.end + 0.5" id="animate4" fill="freeze"/></rect></clipPath><clipPath id="clip-mask-5"><rect x="102" y="102" width="33" height="59"><set attributeName="y" to="43" begin="0; animate15.end + 1" /><animate attributeName="y" from="43" to="102" dur="0.219" begin="animate4.end" id="animate5" fill="freeze"/></rect></clipPath><clipPath id="clip-mask-6"><rect x="61" y="120" width="42" height="15"><set attributeName="x" to="19" begin="0; animate15.end + 1" /><animate attributeName="x" from="19" to="61" dur="0.156" begin="animate5.end + 0.5" id="animate6" fill="freeze"/></rect></clipPath><clipPath id="clip-mask-7"><rect x="65" y="144" width="37" height="16"><set attributeName="x" to="28" begin="0; animate15.end + 1" /><animate attributeName="x" from="28" to="65" dur="0.137" begin="animate6.end + 0.5" id="animate7" fill="freeze"/></rect></clipPath><clipPath id="clip-mask-8"><rect x="15" y="169" width="120" height="38"><set attributeName="x" to="-105" begin="0; animate15.end + 1" /><animate attributeName="x" from="-105" to="15" dur="0.444" begin="animate7.end + 0.5" id="animate8" fill="freeze"/></rect></clipPath><clipPath id="clip-mask-9"><rect x="70" y="157" width="22" height="93"><set attributeName="y" to="64" begin="0; animate15.end + 1" /><animate attributeName="y" from="64" to="157" dur="0.344" begin="animate8.end + 0.5" id="animate9" fill="freeze"/></rect></clipPath><clipPath id="clip-mask-10"><rect x="134" y="20" width="56" height="100"><set attributeName="y" to="-80" begin="0; animate15.end + 1" /><animate attributeName="y" from="-80" to="20" dur="0.370" begin="animate9.end + 0.5" id="animate10" fill="freeze"/></rect></clipPath><clipPath id="clip-mask-11"><rect x="162" y="70" width="69" height="25"><set attributeName="x" to="93" begin="0; animate15.end + 1" /><animate attributeName="x" from="93" to="162" dur="0.256" begin="animate10.end + 0.5" id="animate11" fill="freeze"/></rect></clipPath><clipPath id="clip-mask-12"><rect x="135" y="119" width="69" height="25"><set attributeName="x" to="66" begin="0; animate15.end + 1" /><animate attributeName="x" from="66" to="135" dur="0.256" begin="animate11.end + 0.5" id="animate12" fill="freeze"/></rect></clipPath><clipPath id="clip-mask-13"><rect x="140" y="137" width="58" height="91"><set attributeName="y" to="46" begin="0; animate15.end + 1" /><animate attributeName="y" from="46" to="137" dur="0.337" begin="animate12.end" id="animate13" fill="freeze"/></rect></clipPath><clipPath id="clip-mask-14"><rect x="150" y="210" width="104" height="31"><set attributeName="x" to="46" begin="0; animate15.end + 1" /><animate attributeName="x" from="46" to="150" dur="0.385" begin="animate13.end" id="animate14" fill="freeze"/></rect></clipPath><clipPath id="clip-mask-15"><rect x="221" y="175" width="31" height="45"><set attributeName="y" to="220" begin="0; animate15.end + 1" /><animate attributeName="y" from="220" to="175" dur="0.167" begin="animate14.end" id="animate15" fill="freeze"/></rect></clipPath></defs><path d="M 0 0 L 270 270 M 270 0 L 0 270 M 135 0 L 135 270 M 0 135 L 270 135" stroke="#CCCCCC" /><path d="M 81 71 Q 77 71 75 72 Q 59 76 49 70 Q 42 66 51 65 Q 68 63 83 60 L 97 56 Q 115 49 122 50 Q 129 52 131 55 Q 132 57 130 59 Q 129 59 93 68" fill="#CCCCCC"/><path d="M 75 100 Q 78 84 81 71 L 83 60 Q 85 48 86 37 Q 86 33 83 26 Q 82 22 84 21 Q 86 19 89 21 Q 95 22 102 28 Q 105 32 104 35 Q 97 49 97 56 L 93 68 Q 90 82 85 97" fill="#CCCCCC"/><path d="M 65 160 Q 65 163 64 165 Q 63 169 59 163 Q 54 158 53 150 Q 49 125 41 109 Q 39 105 41 103 Q 42 102 44 103 Q 50 104 53 105 L 58 112 Q 58 117 61 129 L 62 135 Q 63 141 64 148 Q 65 150 65 153" fill="#CCCCCC"/><path d="M 111 103 Q 109 101 103 102 Q 64 109 58 112 L 53 105 Q 61 103 73 100 Q 74 100 75 100 L 85 97 Q 96 95 98 95 Q 116 90 119 92 Q 129 98 132 102" fill="#CCCCCC"/><path d="M 102 145 Q 106 143 113 110 Q 114 105 111 103 L 132 102 Q 135 105 132 108 Q 126 113 125 121 Q 117 151 113 157 Q 110 161 108 159 Q 104 158 102 154" fill="#CCCCCC"/><path d="M 61 129 Q 83 120 91 121 Q 98 122 100 125 Q 103 129 97 130 Q 84 132 66 135 Q 63 135 62 135" fill="#CCCCCC"/><path d="M 77 158 Q 71 159 65 160 L 65 153 Q 96 144 101 145 Q 102 145 102 145 L 102 154 Q 93 155 85 157" fill="#CCCCCC"/><path d="M 62 196 L 41 204 Q 30 207 19 200 Q 15 197 16 195 Q 17 192 20 192 Q 34 190 78 181 L 91 177 Q 103 174 117 171 Q 123 169 130 172 Q 135 174 135 178 Q 135 179 130 180 Q 108 184 90 189 L 77 192" fill="#CCCCCC"/><path d="M 78 181 Q 78 162 77 158 L 85 157 Q 87 158 90 160 Q 92 163 91 177 L 90 189 Q 89 208 89 232 Q 90 240 86 247 Q 85 250 82 250 Q 81 249 81 249 Q 70 234 73 223 Q 76 214 77 192" fill="#CCCCCC"/><path d="M 145 116 L 137 119 Q 134 120 134 117 Q 135 115 137 112 Q 161 68 166 38 Q 168 33 164 27 Q 161 22 166 21 Q 171 20 178 23 Q 187 28 189 31 Q 190 35 188 38 Q 184 43 180 53 Q 172 71 165 84 L 162 88" fill="#CCCCCC"/><path d="M 165 84 Q 165 83 166 83 Q 178 82 187 79 Q 196 77 204 74 Q 212 70 220 71 Q 228 73 230 76 Q 231 78 229 80 Q 228 82 221 83 Q 205 88 190 91 Q 176 95 162 88" fill="#CCCCCC"/><path d="M 156 133 L 175 122 Q 182 119 187 121 Q 200 127 202 131 Q 204 134 198 138 L 173 137 Q 173 135 167 137 Q 160 139 153 142 Q 145 144 137 143 Q 135 142 135 140 Q 136 138 139 137" fill="#CCCCCC"/><path d="M 198 138 Q 189 143 180 154 Q 151 191 156 210 L 150 228 Q 144 223 143 215 Q 140 194 172 144 Q 175 139 173 137" fill="#CCCCCC"/><path d="M 156 210 Q 158 217 165 220 Q 173 224 193 224 Q 213 223 221 218 L 252 220 Q 254 226 246 229 Q 223 239 203 240 Q 165 241 150 228" fill="#CCCCCC"/><path d="M 221 218 Q 232 213 235 198 Q 236 188 238 179 Q 239 175 241 175 Q 243 175 244 179 Q 246 204 252 220" fill="#CCCCCC"/><path d="M 81 71 Q 77 71 75 72 Q 59 76 49 70 Q 42 66 51 65 Q 68 63 83 60 L 97 56 Q 115 49 122 50 Q 129 52 131 55 Q 132 57 130 59 Q 129 59 93 68" fill="#000080" clip-path="url(#clip-mask-1)" /><path d="M 75 100 Q 78 84 81 71 L 83 60 Q 85 48 86 37 Q 86 33 83 26 Q 82 22 84 21 Q 86 19 89 21 Q 95 22 102 28 Q 105 32 104 35 Q 97 49 97 56 L 93 68 Q 90 82 85 97" fill="#000080" clip-path="url(#clip-mask-2)" /><path d="M 65 160 Q 65 163 64 165 Q 63 169 59 163 Q 54 158 53 150 Q 49 125 41 109 Q 39 105 41 103 Q 42 102 44 103 Q 50 104 53 105 L 58 112 Q 58 117 61 129 L 62 135 Q 63 141 64 148 Q 65 150 65 153" fill="#000080" clip-path="url(#clip-mask-3)" /><path d="M 111 103 Q 109 101 103 102 Q 64 109 58 112 L 53 105 Q 61 103 73 100 Q 74 100 75 100 L 85 97 Q 96 95 98 95 Q 116 90 119 92 Q 129 98 132 102" fill="#000080" clip-path="url(#clip-mask-4)" /><path d="M 102 145 Q 106 143 113 110 Q 114 105 111 103 L 132 102 Q 135 105 132 108 Q 126 113 125 121 Q 117 151 113 157 Q 110 161 108 159 Q 104 158 102 154" fill="#000080" clip-path="url(#clip-mask-5)" /><path d="M 61 129 Q 83 120 91 121 Q 98 122 100 125 Q 103 129 97 130 Q 84 132 66 135 Q 63 135 62 135" fill="#000080" clip-path="url(#clip-mask-6)" /><path d="M 77 158 Q 71 159 65 160 L 65 153 Q 96 144 101 145 Q 102 145 102 145 L 102 154 Q 93 155 85 157" fill="#000080" clip-path="url(#clip-mask-7)" /><path d="M 62 196 L 41 204 Q 30 207 19 200 Q 15 197 16 195 Q 17 192 20 192 Q 34 190 78 181 L 91 177 Q 103 174 117 171 Q 123 169 130 172 Q 135 174 135 178 Q 135 179 130 180 Q 108 184 90 189 L 77 192" fill="#000080" clip-path="url(#clip-mask-8)" /><path d="M 78 181 Q 78 162 77 158 L 85 157 Q 87 158 90 160 Q 92 163 91 177 L 90 189 Q 89 208 89 232 Q 90 240 86 247 Q 85 250 82 250 Q 81 249 81 249 Q 70 234 73 223 Q 76 214 77 192" fill="#000080" clip-path="url(#clip-mask-9)" /><path d="M 145 116 L 137 119 Q 134 120 134 117 Q 135 115 137 112 Q 161 68 166 38 Q 168 33 164 27 Q 161 22 166 21 Q 171 20 178 23 Q 187 28 189 31 Q 190 35 188 38 Q 184 43 180 53 Q 172 71 165 84 L 162 88" fill="#000080" clip-path="url(#clip-mask-10)" /><path d="M 165 84 Q 165 83 166 83 Q 178 82 187 79 Q 196 77 204 74 Q 212 70 220 71 Q 228 73 230 76 Q 231 78 229 80 Q 228 82 221 83 Q 205 88 190 91 Q 176 95 162 88" fill="#000080" clip-path="url(#clip-mask-11)" /><path d="M 156 133 L 175 122 Q 182 119 187 121 Q 200 127 202 131 Q 204 134 198 138 L 173 137 Q 173 135 167 137 Q 160 139 153 142 Q 145 144 137 143 Q 135 142 135 140 Q 136 138 139 137" fill="#0000ff" clip-path="url(#clip-mask-12)" /><path d="M 198 138 Q 189 143 180 154 Q 151 191 156 210 L 150 228 Q 144 223 143 215 Q 140 194 172 144 Q 175 139 173 137" fill="#0000ff" clip-path="url(#clip-mask-13)" /><path d="M 156 210 Q 158 217 165 220 Q 173 224 193 224 Q 213 223 221 218 L 252 220 Q 254 226 246 229 Q 223 239 203 240 Q 165 241 150 228" fill="#0000ff" clip-path="url(#clip-mask-14)" /><path d="M 221 218 Q 232 213 235 198 Q 236 188 238 179 Q 239 175 241 175 Q 243 175 244 179 Q 246 204 252 220" fill="#0000ff" clip-path="url(#clip-mask-15)" /></svg>