<svg xmlns="http://www.w3.org/2000/svg" xmlns:xlink="http://www.w3.org/1999/xlink" width="270" height="270"><defs><clipPath id="clip-mask-1"><rect x="45" y="21" width="66" height="38"><animate attributeName="x" from="111" to="45" dur="0.244" begin="0; animate20.end + 1" id="animate1" fill="freeze"/></rect></clipPath><clipPath id="clip-mask-2"><rect x="30" y="69" width="24" height="23"><set attributeName="y" to="46" begin="0; animate20.end + 1" /><animate attributeName="y" from="46" to="69" dur="0.085" begin="animate1.end + 0.5" id="animate2" fill="freeze"/></rect></clipPath><clipPath id="clip-mask-3"><rect x="65" y="60" width="21" height="21"><set attributeName="y" to="39" begin="0; animate20.end + 1" /><animate attributeName="y" from="39" to="60" dur="0.078" begin="animate2.end + 0.5" id="animate3" fill="freeze"/></rect></clipPath><clipPath id="clip-mask-4"><rect x="95" y="45" width="32" height="31"><set attributeName="y" to="14" begin="0; animate20.end + 1" /><animate attributeName="y" from="14" to="45" dur="0.115" begin="animate3.end + 0.5" id="animate4" fill="freeze"/></rect></clipPath><clipPath id="clip-mask-5"><rect x="42" y="81" width="73" height="27"><set attributeName="x" to="-31" begin="0; animate20.end + 1" /><animate attributeName="x" from="-31" to="42" dur="0.270" begin="animate4.end + 0.5" id="animate5" fill="freeze"/></rect></clipPath><clipPath id="clip-mask-6"><rect x="82" y="96" width="32" height="20"><set attributeName="y" to="76" begin="0; animate20.end + 1" /><animate attributeName="y" from="76" to="96" dur="0.074" begin="animate5.end" id="animate6" fill="freeze"/></rect></clipPath><clipPath id="clip-mask-7"><rect x="66" y="108" width="21" height="16"><set attributeName="y" to="92" begin="0; animate20.end + 1" /><animate attributeName="y" from="92" to="108" dur="0.059" begin="animate6.end + 0.5" id="animate7" fill="freeze"/></rect></clipPath><clipPath id="clip-mask-8"><rect x="23" y="125" width="24" height="115"><set attributeName="y" to="10" begin="0; animate20.end + 1" /><animate attributeName="y" from="10" to="125" dur="0.426" begin="animate7.end + 0.5" id="animate8" fill="freeze"/></rect></clipPath><clipPath id="clip-mask-9"><rect x="43" y="113" width="87" height="25"><set attributeName="x" to="-44" begin="0; animate20.end + 1" /><animate attributeName="x" from="-44" to="43" dur="0.322" begin="animate8.end + 0.5" id="animate9" fill="freeze"/></rect></clipPath><clipPath id="clip-mask-10"><rect x="105" y="128" width="24" height="120"><set attributeName="y" to="8" begin="0; animate20.end + 1" /><animate attributeName="y" from="8" to="128" dur="0.444" begin="animate9.end" id="animate10" fill="freeze"/></rect></clipPath><clipPath id="clip-mask-11"><rect x="87" y="223" width="18" height="21"><set attributeName="x" to="105" begin="0; animate20.end + 1" /><animate attributeName="x" from="105" to="87" dur="0.067" begin="animate10.end" id="animate11" fill="freeze"/></rect></clipPath><clipPath id="clip-mask-12"><rect x="49" y="133" width="30" height="38"><set attributeName="y" to="95" begin="0; animate20.end + 1" /><animate attributeName="y" from="95" to="133" dur="0.141" begin="animate11.end + 0.5" id="animate12" fill="freeze"/></rect></clipPath><clipPath id="clip-mask-13"><rect x="59" y="152" width="30" height="17"><set attributeName="x" to="29" begin="0; animate20.end + 1" /><animate attributeName="x" from="29" to="59" dur="0.111" begin="animate12.end" id="animate13" fill="freeze"/></rect></clipPath><clipPath id="clip-mask-14"><rect x="83" y="142" width="19" height="22"><set attributeName="y" to="120" begin="0; animate20.end + 1" /><animate attributeName="y" from="120" to="142" dur="0.081" begin="animate13.end + 0.5" id="animate14" fill="freeze"/></rect></clipPath><clipPath id="clip-mask-15"><rect x="48" y="167" width="51" height="18"><set attributeName="x" to="-3" begin="0; animate20.end + 1" /><animate attributeName="x" from="-3" to="48" dur="0.189" begin="animate14.end + 0.5" id="animate15" fill="freeze"/></rect></clipPath><clipPath id="clip-mask-16"><rect x="48" y="173" width="54" height="48"><set attributeName="y" to="125" begin="0; animate20.end + 1" /><animate attributeName="y" from="125" to="173" dur="0.178" begin="animate15.end" id="animate16" fill="freeze"/></rect></clipPath><clipPath id="clip-mask-17"><rect x="55" y="189" width="44" height="29"><set attributeName="x" to="11" begin="0; animate20.end + 1" /><animate attributeName="x" from="11" to="55" dur="0.163" begin="animate16.end + 0.5" id="animate17" fill="freeze"/></rect></clipPath><clipPath id="clip-mask-18"><rect x="139" y="37" width="36" height="193"><set attributeName="y" to="-156" begin="0; animate20.end + 1" /><animate attributeName="y" from="-156" to="37" dur="0.715" begin="animate17.end + 0.5" id="animate18" fill="freeze"/></rect></clipPath><clipPath id="clip-mask-19"><rect x="170" y="212" width="76" height="21"><set attributeName="x" to="94" begin="0; animate20.end + 1" /><animate attributeName="x" from="94" to="170" dur="0.281" begin="animate18.end" id="animate19" fill="freeze"/></rect></clipPath><clipPath id="clip-mask-20"><rect x="210" y="174" width="32" height="42"><set attributeName="y" to="216" begin="0; animate20.end + 1" /><animate attributeName="y" from="216" to="174" dur="0.156" begin="animate19.end" id="animate20" fill="freeze"/></rect></clipPath></defs><path d="M 0 0 L 270 270 M 270 0 L 0 270 M 135 0 L 135 270 M 0 135 L 270 135" stroke="#CCCCCC" /><path d="M 86 29 L 86 26 Q 85 23 87 22 Q 95 21 108 30 Q 111 32 110 34 Q 109 36 106 36 Q 92 41 85 45 Q 54 59 47 59 Q 45 58 46 56 Q 72 42 83 31" fill="#CCCCCC"/><path d="M 31 75 L 30 73 Q 30 70 31 70 Q 32 69 35 70 Q 51 75 53 81 Q 54 87 53 90 Q 52 92 49 92 Q 46 92 44 89 Q 40 84 35 80" fill="#CCCCCC"/><path d="M 65 64 L 65 62 Q 66 60 68 60 Q 80 63 84 71 Q 86 75 85 78 Q 83 81 81 81 Q 77 80 66 65" fill="#CCCCCC"/><path d="M 110 52 L 110 49 Q 110 45 112 45 Q 117 46 121 49 Q 125 52 126 56 Q 127 58 123 59 Q 115 63 99 75 Q 98 76 96 76 Q 95 74 96 73 Q 105 62 109 55" fill="#CCCCCC"/><path d="M 93 97 Q 92 95 89 95 Q 80 93 58 105 Q 50 108 46 104 Q 42 101 47 100 Q 74 92 89 85 Q 95 81 109 90 Q 115 93 114 96" fill="#CCCCCC"/><path d="M 82 113 Q 93 98 93 97 L 114 96 Q 114 98 112 98 Q 103 102 85 116" fill="#CCCCCC"/><path d="M 79 124 Q 74 122 68 114 Q 66 112 67 111 Q 67 108 68 109 Q 74 109 82 113 L 85 116 Q 87 120 87 122" fill="#CCCCCC"/><path d="M 47 138 Q 43 159 43 202 Q 42 228 35 236 Q 33 240 30 236 Q 23 227 27 215 Q 28 211 29 207 Q 39 160 30 131 Q 28 128 29 127 Q 31 125 32 126 Q 38 128 43 132" fill="#CCCCCC"/><path d="M 65 135 Q 61 136 57 137 Q 51 138 47 138 L 43 132 Q 53 131 79 124 L 87 122 Q 87 122 87 122 Q 98 119 103 116 Q 107 113 113 116 Q 122 119 127 123 Q 130 126 127 130 L 107 128 Q 101 126 72 133" fill="#CCCCCC"/><path d="M 127 130 Q 123 139 123 150 Q 126 178 128 209 Q 129 222 122 234 Q 117 247 113 248 Q 109 248 105 244 L 105 226 Q 110 225 110 217 Q 113 181 110 135 Q 109 129 107 128" fill="#CCCCCC"/><path d="M 105 244 Q 99 236 91 229 Q 88 226 87 225 Q 88 223 90 224 Q 103 227 105 226" fill="#CCCCCC"/><path d="M 59 169 Q 57 171 55 170 Q 51 167 50 164 Q 49 163 51 161 Q 61 153 64 145 Q 66 139 65 135 L 72 133 Q 77 135 78 136 Q 79 138 78 140 Q 75 142 65 157 Q 64 157 65 158" fill="#CCCCCC"/><path d="M 64 165 L 59 169 L 65 158 Q 65 158 66 158 Q 77 154 87 152 L 89 156" fill="#CCCCCC"/><path d="M 87 152 Q 83 145 84 144 Q 84 142 86 143 Q 98 148 101 155 Q 102 159 101 161 Q 99 164 97 163 Q 94 163 89 156" fill="#CCCCCC"/><path d="M 81 177 Q 80 177 67 181 Q 56 185 52 182 Q 48 179 48 177 Q 49 177 52 177 Q 61 176 70 174 Q 78 171 82 170 Q 86 167 90 169 Q 95 171 99 173" fill="#CCCCCC"/><path d="M 75 211 L 71 213 Q 54 221 49 220 Q 48 219 51 218 Q 63 212 69 206 Q 70 204 72 203 L 76 196 Q 80 190 83 179 Q 83 177 81 177 L 99 173 Q 102 176 98 178 Q 93 183 91 190 Q 88 196 86 200 L 79 208" fill="#CCCCCC"/><path d="M 72 203 Q 64 198 57 194 Q 55 193 55 191 Q 55 189 57 190 Q 74 194 76 196 L 86 200 Q 94 202 95 208 Q 99 214 97 216 Q 96 218 95 218 Q 93 217 79 208" fill="#CCCCCC"/><path d="M 145 48 L 141 44 Q 139 42 142 39 Q 144 37 149 38 Q 150 38 150 38 Q 175 45 170 57 Q 163 68 160 126 Q 156 187 162 204 Q 162 212 170 216 L 175 230 Q 165 228 157 222 Q 140 208 147 101 Q 150 60 147 54" fill="#CCCCCC"/><path d="M 170 216 Q 175 218 184 218 Q 200 219 210 216 L 242 212 Q 246 220 242 223 Q 237 227 226 231 Q 216 233 196 233 Q 184 233 175 230" fill="#CCCCCC"/><path d="M 210 216 Q 219 214 224 198 Q 227 187 230 181 Q 231 174 234 176 Q 236 179 236 181 Q 237 199 242 212" fill="#CCCCCC"/><path d="M 86 29 L 86 26 Q 85 23 87 22 Q 95 21 108 30 Q 111 32 110 34 Q 109 36 106 36 Q 92 41 85 45 Q 54 59 47 59 Q 45 58 46 56 Q 72 42 83 31" fill="#000080" clip-path="url(#clip-mask-1)" /><path d="M 31 75 L 30 73 Q 30 70 31 70 Q 32 69 35 70 Q 51 75 53 81 Q 54 87 53 90 Q 52 92 49 92 Q 46 92 44 89 Q 40 84 35 80" fill="#000080" clip-path="url(#clip-mask-2)" /><path d="M 65 64 L 65 62 Q 66 60 68 60 Q 80 63 84 71 Q 86 75 85 78 Q 83 81 81 81 Q 77 80 66 65" fill="#000080" clip-path="url(#clip-mask-3)" /><path d="M 110 52 L 110 49 Q 110 45 112 45 Q 117 46 121 49 Q 125 52 126 56 Q 127 58 123 59 Q 115 63 99 75 Q 98 76 96 76 Q 95 74 96 73 Q 105 62 109 55" fill="#000080" clip-path="url(#clip-mask-4)" /><path d="M 93 97 Q 92 95 89 95 Q 80 93 58 105 Q 50 108 46 104 Q 42 101 47 100 Q 74 92 89 85 Q 95 81 109 90 Q 115 93 114 96" fill="#000080" clip-path="url(#clip-mask-5)" /><path d="M 82 113 Q 93 98 93 97 L 114 96 Q 114 98 112 98 Q 103 102 85 116" fill="#000080" clip-path="url(#clip-mask-6)" /><path d="M 79 124 Q 74 122 68 114 Q 66 112 67 111 Q 67 108 68 109 Q 74 109 82 113 L 85 116 Q 87 120 87 122" fill="#000080" clip-path="url(#clip-mask-7)" /><path d="M 47 138 Q 43 159 43 202 Q 42 228 35 236 Q 33 240 30 236 Q 23 227 27 215 Q 28 211 29 207 Q 39 160 30 131 Q 28 128 29 127 Q 31 125 32 126 Q 38 128 43 132" fill="#000080" clip-path="url(#clip-mask-8)" /><path d="M 65 135 Q 61 136 57 137 Q 51 138 47 138 L 43 132 Q 53 131 79 124 L 87 122 Q 87 122 87 122 Q 98 119 103 116 Q 107 113 113 116 Q 122 119 127 123 Q 130 126 127 130 L 107 128 Q 101 126 72 133" fill="#000080" clip-path="url(#clip-mask-9)" /><path d="M 127 130 Q 123 139 123 150 Q 126 178 128 209 Q 129 222 122 234 Q 117 247 113 248 Q 109 248 105 244 L 105 226 Q 110 225 110 217 Q 113 181 110 135 Q 109 129 107 128" fill="#000080" clip-path="url(#clip-mask-10)" /><path d="M 105 244 Q 99 236 91 229 Q 88 226 87 225 Q 88 223 90 224 Q 103 227 105 226" fill="#000080" clip-path="url(#clip-mask-11)" /><path d="M 59 169 Q 57 171 55 170 Q 51 167 50 164 Q 49 163 51 161 Q 61 153 64 145 Q 66 139 65 135 L 72 133 Q 77 135 78 136 Q 79 138 78 140 Q 75 142 65 157 Q 64 157 65 158" fill="#000080" clip-path="url(#clip-mask-12)" /><path d="M 64 165 L 59 169 L 65 158 Q 65 158 66 158 Q 77 154 87 152 L 89 156" fill="#000080" clip-path="url(#clip-mask-13)" /><path d="M 87 152 Q 83 145 84 144 Q 84 142 86 143 Q 98 148 101 155 Q 102 159 101 161 Q 99 164 97 163 Q 94 163 89 156" fill="#000080" clip-path="url(#clip-mask-14)" /><path d="M 81 177 Q 80 177 67 181 Q 56 185 52 182 Q 48 179 48 177 Q 49 177 52 177 Q 61 176 70 174 Q 78 171 82 170 Q 86 167 90 169 Q 95 171 99 173" fill="#000080" clip-path="url(#clip-mask-15)" /><path d="M 75 211 L 71 213 Q 54 221 49 220 Q 48 219 51 218 Q 63 212 69 206 Q 70 204 72 203 L 76 196 Q 80 190 83 179 Q 83 177 81 177 L 99 173 Q 102 176 98 178 Q 93 183 91 190 Q 88 196 86 200 L 79 208" fill="#000080" clip-path="url(#clip-mask-16)" /><path d="M 72 203 Q 64 198 57 194 Q 55 193 55 191 Q 55 189 57 190 Q 74 194 76 196 L 86 200 Q 94 202 95 208 Q 99 214 97 216 Q 96 218 95 218 Q 93 217 79 208" fill="#000080" clip-path="url(#clip-mask-17)" /><path d="M 145 48 L 141 44 Q 139 42 142 39 Q 144 37 149 38 Q 150 38 150 38 Q 175 45 170 57 Q 163 68 160 126 Q 156 187 162 204 Q 162 212 170 216 L 175 230 Q 165 228 157 222 Q 140 208 147 101 Q 150 60 147 54" fill="#0000ff" clip-path="url(#clip-mask-18)" /><path d="M 170 216 Q 175 218 184 218 Q 200 219 210 216 L 242 212 Q 246 220 242 223 Q 237 227 226 231 Q 216 233 196 233 Q 184 233 175 230" fill="#0000ff" clip-path="url(#clip-mask-19)" /><path d="M 210 216 Q 219 214 224 198 Q 227 187 230 181 Q 231 174 234 176 Q 236 179 236 181 Q 237 199 242 212" fill="#0000ff" clip-path="url(#clip-mask-20)" /></svg>