<svg xmlns="http://www.w3.org/2000/svg" xmlns:xlink="http://www.w3.org/1999/xlink" width="270" height="270"><defs><clipPath id="clip-mask-1"><rect x="67" y="16" width="132" height="38"><animate attributeName="x" from="-65" to="67" dur="0.489" begin="0; animate7.end + 1" id="animate1" fill="freeze"/></rect></clipPath><clipPath id="clip-mask-2"><rect x="137" y="37" width="56" height="38"><set attributeName="y" to="-1" begin="0; animate7.end + 1" /><animate attributeName="y" from="-1" to="37" dur="0.141" begin="animate1.end" id="animate2" fill="freeze"/></rect></clipPath><clipPath id="clip-mask-3"><rect x="113" y="64" width="34" height="29"><set attributeName="y" to="35" begin="0; animate7.end + 1" /><animate attributeName="y" from="35" to="64" dur="0.107" begin="animate2.end + 0.5" id="animate3" fill="freeze"/></rect></clipPath><clipPath id="clip-mask-4"><rect x="20" y="87" width="229" height="45"><set attributeName="x" to="-209" begin="0; animate7.end + 1" /><animate attributeName="x" from="-209" to="20" dur="0.848" begin="animate3.end + 0.5" id="animate4" fill="freeze"/></rect></clipPath><clipPath id="clip-mask-5"><rect x="200" y="105" width="49" height="28"><set attributeName="y" to="77" begin="0; animate7.end + 1" /><animate attributeName="y" from="77" to="105" dur="0.104" begin="animate4.end" id="animate5" fill="freeze"/></rect></clipPath><clipPath id="clip-mask-6"><rect x="124" y="109" width="25" height="144"><set attributeName="y" to="-35" begin="0; animate7.end + 1" /><animate attributeName="y" from="-35" to="109" dur="0.533" begin="animate5.end + 0.5" id="animate6" fill="freeze"/></rect></clipPath><clipPath id="clip-mask-7"><rect x="96" y="215" width="32" height="36"><set attributeName="x" to="128" begin="0; animate7.end + 1" /><animate attributeName="x" from="128" to="96" dur="0.119" begin="animate6.end" id="animate7" fill="freeze"/></rect></clipPath></defs><path d="M 0 0 L 270 270 M 270 0 L 0 270 M 135 0 L 135 270 M 0 135 L 270 135" stroke="#CCCCCC" /><path d="M 166 37 Q 167 34 164 32 Q 161 30 157 32 Q 107 46 97 49 Q 86 54 78 49 Q 72 46 70 42 Q 67 36 74 36 Q 96 38 106 35 Q 141 26 165 18 Q 172 16 177 19 Q 197 31 197 35 Q 199 40 193 42" fill="#CCCCCC"/><path d="M 153 53 L 166 37 L 193 42 Q 180 45 142 75 L 137 71" fill="#CCCCCC"/><path d="M 142 75 Q 145 77 145 79 Q 147 86 146 89 Q 145 92 143 92 Q 139 93 136 90 L 113 69 Q 113 66 114 65 Q 116 64 119 65 Q 136 69 137 71" fill="#CCCCCC"/><path d="M 85 117 L 47 129 Q 37 132 26 124 Q 20 118 30 118 Q 51 115 71 111 Q 139 99 215 87 Q 223 87 228 92 Q 248 107 249 110 L 214 105 Q 214 101 208 101 Q 193 98 135 109 L 124 111" fill="#CCCCCC"/><path d="M 249 110 Q 249 113 238 116 Q 225 119 209 130 Q 204 133 202 132 Q 200 131 203 127 Q 214 106 214 105" fill="#CCCCCC"/><path d="M 135 109 Q 144 114 147 118 Q 149 121 147 129 Q 144 159 146 200 Q 148 234 136 249 Q 131 253 128 251 L 125 222 Q 129 218 129 210 Q 129 158 129 135 Q 129 123 126 116 Q 124 113 124 111" fill="#CCCCCC"/><path d="M 128 251 Q 117 238 98 222 Q 96 219 96 217 Q 96 215 99 216 Q 108 219 115 221 Q 122 224 125 222" fill="#CCCCCC"/><path d="M 166 37 Q 167 34 164 32 Q 161 30 157 32 Q 107 46 97 49 Q 86 54 78 49 Q 72 46 70 42 Q 67 36 74 36 Q 96 38 106 35 Q 141 26 165 18 Q 172 16 177 19 Q 197 31 197 35 Q 199 40 193 42" fill="#000080" clip-path="url(#clip-mask-1)" /><path d="M 153 53 L 166 37 L 193 42 Q 180 45 142 75 L 137 71" fill="#000080" clip-path="url(#clip-mask-2)" /><path d="M 142 75 Q 145 77 145 79 Q 147 86 146 89 Q 145 92 143 92 Q 139 93 136 90 L 113 69 Q 113 66 114 65 Q 116 64 119 65 Q 136 69 137 71" fill="#000080" clip-path="url(#clip-mask-3)" /><path d="M 85 117 L 47 129 Q 37 132 26 124 Q 20 118 30 118 Q 51 115 71 111 Q 139 99 215 87 Q 223 87 228 92 Q 248 107 249 110 L 214 105 Q 214 101 208 101 Q 193 98 135 109 L 124 111" fill="#000080" clip-path="url(#clip-mask-4)" /><path d="M 249 110 Q 249 113 238 116 Q 225 119 209 130 Q 204 133 202 132 Q 200 131 203 127 Q 214 106 214 105" fill="#000080" clip-path="url(#clip-mask-5)" /><path d="M 135 109 Q 144 114 147 118 Q 149 121 147 129 Q 144 159 146 200 Q 148 234 136 249 Q 131 253 128 251 L 125 222 Q 129 218 129 210 Q 129 158 129 135 Q 129 123 126 116 Q 124 113 124 111" fill="#0000ff" clip-path="url(#clip-mask-6)" /><path d="M 128 251 Q 117 238 98 222 Q 96 219 96 217 Q 96 215 99 216 Q 108 219 115 221 Q 122 224 125 222" fill="#0000ff" clip-path="url(#clip-mask-7)" /></svg>