<svg xmlns="http://www.w3.org/2000/svg" xmlns:xlink="http://www.w3.org/1999/xlink" width="270" height="270"><defs><clipPath id="clip-mask-1"><rect x="29" y="27" width="211" height="35"><animate attributeName="x" from="-182" to="29" dur="0.781" begin="0; animate11.end + 1" id="animate1" fill="freeze"/></rect></clipPath><clipPath id="clip-mask-2"><rect x="68" y="69" width="23" height="47"><set attributeName="y" to="22" begin="0; animate11.end + 1" /><animate attributeName="y" from="22" to="69" dur="0.174" begin="animate1.end + 0.5" id="animate2" fill="freeze"/></rect></clipPath><clipPath id="clip-mask-3"><rect x="81" y="51" width="115" height="28"><set attributeName="x" to="-34" begin="0; animate11.end + 1" /><animate attributeName="x" from="-34" to="81" dur="0.426" begin="animate2.end + 0.5" id="animate3" fill="freeze"/></rect></clipPath><clipPath id="clip-mask-4"><rect x="169" y="66" width="30" height="23"><set attributeName="y" to="43" begin="0; animate11.end + 1" /><animate attributeName="y" from="43" to="66" dur="0.085" begin="animate3.end" id="animate4" fill="freeze"/></rect></clipPath><clipPath id="clip-mask-5"><rect x="90" y="88" width="98" height="21"><set attributeName="x" to="-8" begin="0; animate11.end + 1" /><animate attributeName="x" from="-8" to="90" dur="0.363" begin="animate4.end + 0.5" id="animate5" fill="freeze"/></rect></clipPath><clipPath id="clip-mask-6"><rect x="66" y="110" width="131" height="27"><set attributeName="x" to="-65" begin="0; animate11.end + 1" /><animate attributeName="x" from="-65" to="66" dur="0.485" begin="animate5.end + 0.5" id="animate6" fill="freeze"/></rect></clipPath><clipPath id="clip-mask-7"><rect x="169" y="122" width="35" height="48"><set attributeName="y" to="74" begin="0; animate11.end + 1" /><animate attributeName="y" from="74" to="122" dur="0.178" begin="animate6.end" id="animate7" fill="freeze"/></rect></clipPath><clipPath id="clip-mask-8"><rect x="30" y="134" width="210" height="38"><set attributeName="x" to="-180" begin="0; animate11.end + 1" /><animate attributeName="x" from="-180" to="30" dur="0.778" begin="animate7.end + 0.5" id="animate8" fill="freeze"/></rect></clipPath><clipPath id="clip-mask-9"><rect x="70" y="167" width="118" height="25"><set attributeName="x" to="-48" begin="0; animate11.end + 1" /><animate attributeName="x" from="-48" to="70" dur="0.437" begin="animate8.end + 0.5" id="animate9" fill="freeze"/></rect></clipPath><clipPath id="clip-mask-10"><rect x="112" y="10" width="34" height="249"><set attributeName="y" to="-239" begin="0; animate11.end + 1" /><animate attributeName="y" from="-239" to="10" dur="0.922" begin="animate9.end + 0.5" id="animate10" fill="freeze"/></rect></clipPath><clipPath id="clip-mask-11"><rect x="88" y="226" width="31" height="25"><set attributeName="x" to="119" begin="0; animate11.end + 1" /><animate attributeName="x" from="119" to="88" dur="0.115" begin="animate10.end" id="animate11" fill="freeze"/></rect></clipPath></defs><path d="M 0 0 L 270 270 M 270 0 L 0 270 M 135 0 L 135 270 M 0 135 L 270 135" stroke="#CCCCCC" /><path d="M 123 50 Q 98 50 51 61 Q 47 62 41 61 Q 36 59 32 55 Q 29 50 34 50 Q 82 46 123 42 L 139 40 Q 181 35 208 30 Q 221 27 236 39 Q 240 43 239 46 Q 238 48 231 48 Q 179 45 138 49" fill="#CCCCCC"/><path d="M 91 108 Q 91 111 90 113 Q 89 116 85 111 Q 82 109 69 74 Q 68 71 69 70 Q 69 69 72 70 Q 77 70 81 71 L 86 79 Q 87 84 90 100" fill="#CCCCCC"/><path d="M 123 73 Q 87 79 86 79 L 81 71 Q 103 69 123 67 L 137 64 Q 150 61 165 57 Q 178 51 196 66 L 171 69 Q 167 65 159 67 Q 147 69 137 71" fill="#CCCCCC"/><path d="M 169 88 Q 171 81 172 74 Q 173 70 171 69 L 196 66 Q 199 71 194 75 Q 189 78 183 89" fill="#CCCCCC"/><path d="M 123 104 Q 108 105 97 108 Q 94 109 91 108 L 90 100 Q 105 99 123 96 L 136 94 Q 152 91 169 88 L 183 89 Q 188 93 188 95 Q 188 97 185 97 Q 157 99 136 102" fill="#CCCCCC"/><path d="M 105 131 L 87 135 Q 77 137 72 134 Q 66 131 67 129 Q 68 127 71 128 Q 84 127 103 124 Q 113 122 123 121 L 135 119 Q 152 116 162 115 Q 180 110 184 113 Q 191 117 197 122 L 176 126 Q 174 124 170 124 Q 150 126 135 128 L 123 129" fill="#CCCCCC"/><path d="M 175 144 Q 177 129 176 126 L 197 122 Q 204 126 199 132 Q 194 136 191 142 L 186 155 Q 183 162 181 170 L 169 167 Q 171 161 172 155" fill="#CCCCCC"/><path d="M 123 158 Q 120 159 118 159 Q 83 163 52 171 Q 48 172 43 170 Q 38 169 35 165 Q 30 160 36 160 Q 83 155 123 151 L 135 150 Q 157 146 175 144 L 191 142 Q 198 140 205 139 Q 221 134 236 146 Q 240 149 239 152 Q 237 155 217 154 Q 200 154 186 155 L 172 155 Q 152 155 136 157" fill="#CCCCCC"/><path d="M 136 174 Q 150 171 166 168 Q 167 167 169 167 L 181 170 Q 188 175 188 177 Q 188 180 185 180 Q 157 182 136 184 L 123 185 Q 100 188 85 191 Q 81 192 78 191 Q 75 189 73 187 Q 70 182 76 181 Q 97 179 123 176" fill="#CCCCCC"/><path d="M 136 165 L 136 174 L 136 184 Q 137 200 138 218 Q 140 237 136 249 Q 133 258 129 258 Q 124 259 119 251 L 119 226 Q 123 224 123 217 Q 123 200 123 185 L 123 176 Q 123 166 123 158 L 123 151 Q 123 139 123 129 L 123 121 Q 123 112 123 104 L 123 96 Q 123 83 123 73 L 123 67 Q 123 56 123 50 L 123 42 Q 121 26 117 20 Q 112 14 117 12 Q 123 10 131 15 Q 146 21 142 29 Q 140 34 139 40 L 138 49 Q 137 56 137 64 L 137 71 Q 136 82 136 94 L 136 102 Q 135 110 135 119 L 135 128 Q 135 138 135 150 L 136 157" fill="#CCCCCC"/><path d="M 119 251 Q 113 244 95 234 Q 90 231 89 229 Q 88 226 97 228 Q 117 228 119 226" fill="#CCCCCC"/><path d="M 123 50 Q 98 50 51 61 Q 47 62 41 61 Q 36 59 32 55 Q 29 50 34 50 Q 82 46 123 42 L 139 40 Q 181 35 208 30 Q 221 27 236 39 Q 240 43 239 46 Q 238 48 231 48 Q 179 45 138 49" fill="#000080" clip-path="url(#clip-mask-1)" /><path d="M 91 108 Q 91 111 90 113 Q 89 116 85 111 Q 82 109 69 74 Q 68 71 69 70 Q 69 69 72 70 Q 77 70 81 71 L 86 79 Q 87 84 90 100" fill="#000080" clip-path="url(#clip-mask-2)" /><path d="M 123 73 Q 87 79 86 79 L 81 71 Q 103 69 123 67 L 137 64 Q 150 61 165 57 Q 178 51 196 66 L 171 69 Q 167 65 159 67 Q 147 69 137 71" fill="#000080" clip-path="url(#clip-mask-3)" /><path d="M 169 88 Q 171 81 172 74 Q 173 70 171 69 L 196 66 Q 199 71 194 75 Q 189 78 183 89" fill="#000080" clip-path="url(#clip-mask-4)" /><path d="M 123 104 Q 108 105 97 108 Q 94 109 91 108 L 90 100 Q 105 99 123 96 L 136 94 Q 152 91 169 88 L 183 89 Q 188 93 188 95 Q 188 97 185 97 Q 157 99 136 102" fill="#000080" clip-path="url(#clip-mask-5)" /><path d="M 105 131 L 87 135 Q 77 137 72 134 Q 66 131 67 129 Q 68 127 71 128 Q 84 127 103 124 Q 113 122 123 121 L 135 119 Q 152 116 162 115 Q 180 110 184 113 Q 191 117 197 122 L 176 126 Q 174 124 170 124 Q 150 126 135 128 L 123 129" fill="#000080" clip-path="url(#clip-mask-6)" /><path d="M 175 144 Q 177 129 176 126 L 197 122 Q 204 126 199 132 Q 194 136 191 142 L 186 155 Q 183 162 181 170 L 169 167 Q 171 161 172 155" fill="#000080" clip-path="url(#clip-mask-7)" /><path d="M 123 158 Q 120 159 118 159 Q 83 163 52 171 Q 48 172 43 170 Q 38 169 35 165 Q 30 160 36 160 Q 83 155 123 151 L 135 150 Q 157 146 175 144 L 191 142 Q 198 140 205 139 Q 221 134 236 146 Q 240 149 239 152 Q 237 155 217 154 Q 200 154 186 155 L 172 155 Q 152 155 136 157" fill="#000080" clip-path="url(#clip-mask-8)" /><path d="M 136 174 Q 150 171 166 168 Q 167 167 169 167 L 181 170 Q 188 175 188 177 Q 188 180 185 180 Q 157 182 136 184 L 123 185 Q 100 188 85 191 Q 81 192 78 191 Q 75 189 73 187 Q 70 182 76 181 Q 97 179 123 176" fill="#000080" clip-path="url(#clip-mask-9)" /><path d="M 136 165 L 136 174 L 136 184 Q 137 200 138 218 Q 140 237 136 249 Q 133 258 129 258 Q 124 259 119 251 L 119 226 Q 123 224 123 217 Q 123 200 123 185 L 123 176 Q 123 166 123 158 L 123 151 Q 123 139 123 129 L 123 121 Q 123 112 123 104 L 123 96 Q 123 83 123 73 L 123 67 Q 123 56 123 50 L 123 42 Q 121 26 117 20 Q 112 14 117 12 Q 123 10 131 15 Q 146 21 142 29 Q 140 34 139 40 L 138 49 Q 137 56 137 64 L 137 71 Q 136 82 136 94 L 136 102 Q 135 110 135 119 L 135 128 Q 135 138 135 150 L 136 157" fill="#0000ff" clip-path="url(#clip-mask-10)" /><path d="M 119 251 Q 113 244 95 234 Q 90 231 89 229 Q 88 226 97 228 Q 117 228 119 226" fill="#0000ff" clip-path="url(#clip-mask-11)" /></svg>