<svg xmlns="http://www.w3.org/2000/svg" xmlns:xlink="http://www.w3.org/1999/xlink" width="270" height="270"><defs><clipPath id="clip-mask-1"><rect x="63" y="35" width="144" height="35"><animate attributeName="x" from="-81" to="63" dur="0.533" begin="0; animate6.end + 1" id="animate1" fill="freeze"/></rect></clipPath><clipPath id="clip-mask-2"><rect x="74" y="64" width="62" height="116"><set attributeName="y" to="-52" begin="0; animate6.end + 1" /><animate attributeName="y" from="-52" to="64" dur="0.430" begin="animate1.end + 0.5" id="animate2" fill="freeze"/></rect></clipPath><clipPath id="clip-mask-3"><rect x="91" y="144" width="63" height="33"><set attributeName="x" to="28" begin="0; animate6.end + 1" /><animate attributeName="x" from="28" to="91" dur="0.233" begin="animate2.end" id="animate3" fill="freeze"/></rect></clipPath><clipPath id="clip-mask-4"><rect x="114" y="96" width="72" height="22"><set attributeName="x" to="42" begin="0; animate6.end + 1" /><animate attributeName="x" from="42" to="114" dur="0.267" begin="animate3.end + 0.5" id="animate4" fill="freeze"/></rect></clipPath><clipPath id="clip-mask-5"><rect x="136" y="112" width="53" height="95"><set attributeName="y" to="17" begin="0; animate6.end + 1" /><animate attributeName="y" from="17" to="112" dur="0.352" begin="animate4.end" id="animate5" fill="freeze"/></rect></clipPath><clipPath id="clip-mask-6"><rect x="22" y="194" width="225" height="40"><set attributeName="x" to="-203" begin="0; animate6.end + 1" /><animate attributeName="x" from="-203" to="22" dur="0.833" begin="animate5.end + 0.5" id="animate6" fill="freeze"/></rect></clipPath></defs><path d="M 0 0 L 270 270 M 270 0 L 0 270 M 135 0 L 135 270 M 0 135 L 270 135" stroke="#CCCCCC" /><path d="M 110 66 Q 107 67 105 67 Q 81 70 70 63 Q 63 57 74 56 Q 118 54 161 43 Q 186 35 195 37 Q 204 40 206 44 Q 207 47 204 49 Q 201 52 182 55 Q 153 59 125 64" fill="#CCCCCC"/><path d="M 91 177 Q 88 180 84 178 Q 77 174 75 170 Q 74 167 77 163 Q 88 153 93 143 Q 106 113 112 85 Q 115 75 111 69 Q 110 67 110 66 L 125 64 Q 132 66 134 68 Q 136 71 133 74 Q 129 81 117 108 L 114 116 Q 107 130 99 151 Q 98 155 99 156" fill="#CCCCCC"/><path d="M 152 152 Q 98 170 91 177 L 99 156 Q 100 157 103 156 Q 129 149 153 145 Q 154 144 154 145" fill="#CCCCCC"/><path d="M 159 113 Q 154 109 133 116 Q 119 118 115 116 Q 114 116 114 116 L 117 108 Q 136 106 159 99 Q 167 96 172 100 Q 183 106 186 112" fill="#CCCCCC"/><path d="M 145 177 L 152 152 L 154 145 Q 157 133 159 122 Q 161 115 159 113 L 186 112 Q 189 116 184 120 Q 178 125 174 134 Q 159 171 150 206 L 136 207" fill="#CCCCCC"/><path d="M 150 206 Q 204 200 206 200 Q 224 194 244 213 Q 247 216 245 220 Q 242 223 236 222 Q 199 216 170 217 Q 82 221 52 231 Q 39 234 27 225 Q 22 221 22 217 Q 23 214 27 214 Q 46 215 71 212 Q 98 209 136 207" fill="#CCCCCC"/><path d="M 110 66 Q 107 67 105 67 Q 81 70 70 63 Q 63 57 74 56 Q 118 54 161 43 Q 186 35 195 37 Q 204 40 206 44 Q 207 47 204 49 Q 201 52 182 55 Q 153 59 125 64" fill="#0000ff" clip-path="url(#clip-mask-1)" /><path d="M 91 177 Q 88 180 84 178 Q 77 174 75 170 Q 74 167 77 163 Q 88 153 93 143 Q 106 113 112 85 Q 115 75 111 69 Q 110 67 110 66 L 125 64 Q 132 66 134 68 Q 136 71 133 74 Q 129 81 117 108 L 114 116 Q 107 130 99 151 Q 98 155 99 156" fill="#000080" clip-path="url(#clip-mask-2)" /><path d="M 152 152 Q 98 170 91 177 L 99 156 Q 100 157 103 156 Q 129 149 153 145 Q 154 144 154 145" fill="#000080" clip-path="url(#clip-mask-3)" /><path d="M 159 113 Q 154 109 133 116 Q 119 118 115 116 Q 114 116 114 116 L 117 108 Q 136 106 159 99 Q 167 96 172 100 Q 183 106 186 112" fill="#000080" clip-path="url(#clip-mask-4)" /><path d="M 145 177 L 152 152 L 154 145 Q 157 133 159 122 Q 161 115 159 113 L 186 112 Q 189 116 184 120 Q 178 125 174 134 Q 159 171 150 206 L 136 207" fill="#000080" clip-path="url(#clip-mask-5)" /><path d="M 150 206 Q 204 200 206 200 Q 224 194 244 213 Q 247 216 245 220 Q 242 223 236 222 Q 199 216 170 217 Q 82 221 52 231 Q 39 234 27 225 Q 22 221 22 217 Q 23 214 27 214 Q 46 215 71 212 Q 98 209 136 207" fill="#0000ff" clip-path="url(#clip-mask-6)" /></svg>