<svg xmlns="http://www.w3.org/2000/svg" xmlns:xlink="http://www.w3.org/1999/xlink" width="270" height="270"><defs><clipPath id="clip-mask-1"><rect x="72" y="40" width="129" height="31"><animate attributeName="x" from="-57" to="72" dur="0.478" begin="0; animate5.end + 1" id="animate1" fill="freeze"/></rect></clipPath><clipPath id="clip-mask-2"><rect x="87" y="65" width="55" height="137"><set attributeName="y" to="-72" begin="0; animate5.end + 1" /><animate attributeName="y" from="-72" to="65" dur="0.507" begin="animate1.end + 0.5" id="animate2" fill="freeze"/></rect></clipPath><clipPath id="clip-mask-3"><rect x="69" y="105" width="129" height="33"><set attributeName="x" to="-60" begin="0; animate5.end + 1" /><animate attributeName="x" from="-60" to="69" dur="0.478" begin="animate2.end + 0.5" id="animate3" fill="freeze"/></rect></clipPath><clipPath id="clip-mask-4"><rect x="151" y="125" width="42" height="73"><set attributeName="y" to="52" begin="0; animate5.end + 1" /><animate attributeName="y" from="52" to="125" dur="0.270" begin="animate3.end" id="animate4" fill="freeze"/></rect></clipPath><clipPath id="clip-mask-5"><rect x="12" y="191" width="245" height="38"><set attributeName="x" to="-233" begin="0; animate5.end + 1" /><animate attributeName="x" from="-233" to="12" dur="0.907" begin="animate4.end + 0.5" id="animate5" fill="freeze"/></rect></clipPath></defs><path d="M 0 0 L 270 270 M 270 0 L 0 270 M 135 0 L 135 270 M 0 135 L 270 135" stroke="#CCCCCC" /><path d="M 119 67 Q 115 67 111 68 Q 90 71 79 64 Q 72 58 83 57 Q 119 55 156 47 Q 181 40 190 42 Q 198 45 200 49 Q 201 51 199 53 Q 195 56 133 65" fill="#CCCCCC"/><path d="M 87 202 Q 99 159 107 132 L 110 122 Q 111 116 113 112 Q 121 81 119 67 L 133 65 Q 137 69 140 74 Q 142 78 138 83 Q 131 105 127 118 L 124 129 Q 114 162 103 200" fill="#CCCCCC"/><path d="M 107 132 Q 100 133 94 134 Q 83 138 75 134 Q 70 132 69 130 Q 69 127 73 126 Q 92 125 110 122 L 127 118 Q 143 115 159 108 Q 166 105 172 108 Q 188 116 193 120 Q 198 125 193 131 L 163 125 Q 159 122 152 123 Q 137 126 124 129" fill="#CCCCCC"/><path d="M 151 198 Q 159 172 166 139 Q 167 130 163 125 L 193 131 Q 177 146 166 197" fill="#CCCCCC"/><path d="M 215 194 L 217 193 Q 229 191 251 209 Q 257 214 255 217 Q 253 220 247 219 Q 177 205 138 208 Q 89 210 43 227 Q 37 229 33 227 Q 18 220 15 214 Q 12 211 15 210 Q 17 208 20 208 Q 39 209 79 203 Q 83 203 87 202 L 103 200 Q 134 197 151 198 L 166 197" fill="#CCCCCC"/><path d="M 119 67 Q 115 67 111 68 Q 90 71 79 64 Q 72 58 83 57 Q 119 55 156 47 Q 181 40 190 42 Q 198 45 200 49 Q 201 51 199 53 Q 195 56 133 65" fill="#0000ff" clip-path="url(#clip-mask-1)" /><path d="M 87 202 Q 99 159 107 132 L 110 122 Q 111 116 113 112 Q 121 81 119 67 L 133 65 Q 137 69 140 74 Q 142 78 138 83 Q 131 105 127 118 L 124 129 Q 114 162 103 200" fill="#000080" clip-path="url(#clip-mask-2)" /><path d="M 107 132 Q 100 133 94 134 Q 83 138 75 134 Q 70 132 69 130 Q 69 127 73 126 Q 92 125 110 122 L 127 118 Q 143 115 159 108 Q 166 105 172 108 Q 188 116 193 120 Q 198 125 193 131 L 163 125 Q 159 122 152 123 Q 137 126 124 129" fill="#000080" clip-path="url(#clip-mask-3)" /><path d="M 151 198 Q 159 172 166 139 Q 167 130 163 125 L 193 131 Q 177 146 166 197" fill="#000080" clip-path="url(#clip-mask-4)" /><path d="M 215 194 L 217 193 Q 229 191 251 209 Q 257 214 255 217 Q 253 220 247 219 Q 177 205 138 208 Q 89 210 43 227 Q 37 229 33 227 Q 18 220 15 214 Q 12 211 15 210 Q 17 208 20 208 Q 39 209 79 203 Q 83 203 87 202 L 103 200 Q 134 197 151 198 L 166 197" fill="#0000ff" clip-path="url(#clip-mask-5)" /></svg>