<svg xmlns="http://www.w3.org/2000/svg" xmlns:xlink="http://www.w3.org/1999/xlink" width="270" height="270"><defs><clipPath id="clip-mask-1"><rect x="110" y="20" width="43" height="37"><animate attributeName="x" from="67" to="110" dur="0.159" begin="0; animate7.end + 1" id="animate1" fill="freeze"/></rect></clipPath><clipPath id="clip-mask-2"><rect x="35" y="64" width="197" height="37"><set attributeName="x" to="-162" begin="0; animate7.end + 1" /><animate attributeName="x" from="-162" to="35" dur="0.730" begin="animate1.end + 0.5" id="animate2" fill="freeze"/></rect></clipPath><clipPath id="clip-mask-3"><rect x="47" y="91" width="73" height="144"><set attributeName="y" to="-53" begin="0; animate7.end + 1" /><animate attributeName="y" from="-53" to="91" dur="0.533" begin="animate2.end + 0.5" id="animate3" fill="freeze"/></rect></clipPath><clipPath id="clip-mask-4"><rect x="145" y="86" width="24" height="163"><set attributeName="y" to="-77" begin="0; animate7.end + 1" /><animate attributeName="y" from="-77" to="86" dur="0.604" begin="animate3.end + 0.5" id="animate4" fill="freeze"/></rect></clipPath><clipPath id="clip-mask-5"><rect x="120" y="210" width="28" height="36"><set attributeName="x" to="148" begin="0; animate7.end + 1" /><animate attributeName="x" from="148" to="120" dur="0.104" begin="animate4.end" id="animate5" fill="freeze"/></rect></clipPath><clipPath id="clip-mask-6"><rect x="34" y="128" width="36" height="58"><set attributeName="y" to="70" begin="0; animate7.end + 1" /><animate attributeName="y" from="70" to="128" dur="0.215" begin="animate5.end + 0.5" id="animate6" fill="freeze"/></rect></clipPath><clipPath id="clip-mask-7"><rect x="181" y="122" width="54" height="60"><set attributeName="x" to="127" begin="0; animate7.end + 1" /><animate attributeName="x" from="127" to="181" dur="0.200" begin="animate6.end + 0.5" id="animate7" fill="freeze"/></rect></clipPath></defs><path d="M 0 0 L 270 270 M 270 0 L 0 270 M 135 0 L 135 270 M 0 135 L 270 135" stroke="#CCCCCC" /><path d="M 112 29 L 111 26 Q 110 22 112 21 Q 114 20 119 21 Q 147 29 150 39 Q 153 48 151 53 Q 150 57 146 57 Q 142 57 137 53 Q 129 44 120 36" fill="#CCCCCC"/><path d="M 119 88 L 106 91 L 94 93 Q 76 95 59 100 Q 55 101 48 99 Q 43 98 39 94 Q 35 88 41 88 Q 130 78 194 68 Q 212 64 227 76 Q 232 80 230 83 Q 228 86 223 85 Q 216 86 208 85 Q 179 85 157 86 L 145 87" fill="#CCCCCC"/><path d="M 106 91 Q 110 93 115 95 Q 120 99 119 105 Q 118 108 116 113 Q 113 144 108 165 Q 104 182 98 195 Q 91 207 80 217 Q 60 235 51 234 Q 47 234 48 232 Q 49 230 54 227 Q 77 206 83 191 Q 99 159 99 109 Q 98 108 94 93" fill="#CCCCCC"/><path d="M 157 86 Q 165 90 168 94 Q 169 97 167 105 Q 164 147 167 200 Q 167 229 156 245 Q 152 249 148 246 L 146 217 Q 149 213 150 205 Q 150 140 150 111 Q 150 99 147 92 Q 145 89 145 87" fill="#CCCCCC"/><path d="M 148 246 Q 139 234 123 218 Q 120 215 120 213 Q 121 210 125 212 Q 144 218 146 217" fill="#CCCCCC"/><path d="M 63 128 L 66 128 Q 68 129 69 131 Q 70 139 68 148 Q 64 173 46 183 Q 40 186 38 181 Q 34 171 41 161 Q 53 147 62 130" fill="#CCCCCC"/><path d="M 181 130 L 181 126 Q 182 122 185 124 Q 230 145 232 163 Q 235 176 231 180 Q 228 182 226 182 Q 221 180 217 174 Q 199 150 184 133" fill="#CCCCCC"/><path d="M 112 29 L 111 26 Q 110 22 112 21 Q 114 20 119 21 Q 147 29 150 39 Q 153 48 151 53 Q 150 57 146 57 Q 142 57 137 53 Q 129 44 120 36" fill="#0000ff" clip-path="url(#clip-mask-1)" /><path d="M 119 88 L 106 91 L 94 93 Q 76 95 59 100 Q 55 101 48 99 Q 43 98 39 94 Q 35 88 41 88 Q 130 78 194 68 Q 212 64 227 76 Q 232 80 230 83 Q 228 86 223 85 Q 216 86 208 85 Q 179 85 157 86 L 145 87" fill="#0000ff" clip-path="url(#clip-mask-2)" /><path d="M 106 91 Q 110 93 115 95 Q 120 99 119 105 Q 118 108 116 113 Q 113 144 108 165 Q 104 182 98 195 Q 91 207 80 217 Q 60 235 51 234 Q 47 234 48 232 Q 49 230 54 227 Q 77 206 83 191 Q 99 159 99 109 Q 98 108 94 93" fill="#000080" clip-path="url(#clip-mask-3)" /><path d="M 157 86 Q 165 90 168 94 Q 169 97 167 105 Q 164 147 167 200 Q 167 229 156 245 Q 152 249 148 246 L 146 217 Q 149 213 150 205 Q 150 140 150 111 Q 150 99 147 92 Q 145 89 145 87" fill="#000080" clip-path="url(#clip-mask-4)" /><path d="M 148 246 Q 139 234 123 218 Q 120 215 120 213 Q 121 210 125 212 Q 144 218 146 217" fill="#000080" clip-path="url(#clip-mask-5)" /><path d="M 63 128 L 66 128 Q 68 129 69 131 Q 70 139 68 148 Q 64 173 46 183 Q 40 186 38 181 Q 34 171 41 161 Q 53 147 62 130" fill="#000080" clip-path="url(#clip-mask-6)" /><path d="M 181 130 L 181 126 Q 182 122 185 124 Q 230 145 232 163 Q 235 176 231 180 Q 228 182 226 182 Q 221 180 217 174 Q 199 150 184 133" fill="#000080" clip-path="url(#clip-mask-7)" /></svg>