<svg xmlns="http://www.w3.org/2000/svg" xmlns:xlink="http://www.w3.org/1999/xlink" width="270" height="270"><defs><clipPath id="clip-mask-1"><rect x="12" y="44" width="133" height="176"><animate attributeName="y" from="-132" to="44" dur="0.652" begin="0; animate2.end + 1" id="animate1" fill="freeze"/></rect></clipPath><clipPath id="clip-mask-2"><rect x="118" y="112" width="139" height="113"><set attributeName="x" to="-21" begin="0; animate2.end + 1" /><animate attributeName="x" from="-21" to="118" dur="0.515" begin="animate1.end + 0.5" id="animate2" fill="freeze"/></rect></clipPath></defs><path d="M 0 0 L 270 270 M 270 0 L 0 270 M 135 0 L 135 270 M 0 135 L 270 135" stroke="#CCCCCC" /><path d="M 96 165 L 68 187 Q 46 206 20 218 Q 16 220 14 219 Q 12 218 14 216 Q 52 185 66 168 Q 69 165 72 162 Q 122 102 117 51 Q 117 46 121 45 Q 124 44 131 48 Q 142 54 143 57 Q 145 61 143 64 Q 138 72 122 112 L 118 120" fill="#CCCCCC"/><path d="M 122 112 Q 122 112 122 112 Q 124 116 128 120 Q 157 158 189 185 Q 199 194 248 212 Q 257 217 257 219 Q 257 221 248 221 Q 228 223 205 225 Q 197 225 190 216 Q 172 197 148 164 Q 122 127 118 120" fill="#CCCCCC"/><path d="M 96 165 L 68 187 Q 46 206 20 218 Q 16 220 14 219 Q 12 218 14 216 Q 52 185 66 168 Q 69 165 72 162 Q 122 102 117 51 Q 117 46 121 45 Q 124 44 131 48 Q 142 54 143 57 Q 145 61 143 64 Q 138 72 122 112 L 118 120" fill="#0000ff" clip-path="url(#clip-mask-1)" /><path d="M 122 112 Q 122 112 122 112 Q 124 116 128 120 Q 157 158 189 185 Q 199 194 248 212 Q 257 217 257 219 Q 257 221 248 221 Q 228 223 205 225 Q 197 225 190 216 Q 172 197 148 164 Q 122 127 118 120" fill="#0000ff" clip-path="url(#clip-mask-2)" /></svg>