<svg xmlns="http://www.w3.org/2000/svg" xmlns:xlink="http://www.w3.org/1999/xlink" width="270" height="270"><defs><clipPath id="clip-mask-1"><rect x="12" y="15" width="90" height="126"><animate attributeName="y" from="-111" to="15" dur="0.467" begin="0; animate5.end + 1" id="animate1" fill="freeze"/></rect></clipPath><clipPath id="clip-mask-2"><rect x="54" y="86" width="30" height="139"><set attributeName="y" to="-53" begin="0; animate5.end + 1" /><animate attributeName="y" from="-53" to="86" dur="0.515" begin="animate1.end + 0.5" id="animate2" fill="freeze"/></rect></clipPath><clipPath id="clip-mask-3"><rect x="116" y="23" width="99" height="51"><set attributeName="x" to="215" begin="0; animate5.end + 1" /><animate attributeName="x" from="215" to="116" dur="0.367" begin="animate2.end + 0.5" id="animate3" fill="freeze"/></rect></clipPath><clipPath id="clip-mask-4"><rect x="86" y="95" width="171" height="39"><set attributeName="x" to="-85" begin="0; animate5.end + 1" /><animate attributeName="x" from="-85" to="86" dur="0.633" begin="animate3.end + 0.5" id="animate4" fill="freeze"/></rect></clipPath><clipPath id="clip-mask-5"><rect x="153" y="61" width="29" height="193"><set attributeName="y" to="-132" begin="0; animate5.end + 1" /><animate attributeName="y" from="-132" to="61" dur="0.715" begin="animate4.end + 0.5" id="animate5" fill="freeze"/></rect></clipPath></defs><path d="M 0 0 L 270 270 M 270 0 L 0 270 M 135 0 L 135 270 M 0 135 L 270 135" stroke="#CCCCCC" /><path d="M 60 96 L 60 96 Q 25 139 17 140 Q 12 141 13 137 Q 14 136 17 132 Q 58 82 75 38 Q 78 31 74 22 Q 71 16 77 15 Q 83 15 91 21 Q 100 27 101 31 Q 102 35 100 38 Q 93 45 86 58 Q 76 74 68 86 L 61 96" fill="#CCCCCC"/><path d="M 68 86 Q 70 88 81 100 Q 84 103 81 110 Q 79 125 77 193 Q 77 206 73 217 Q 70 225 65 220 Q 63 219 63 218 Q 54 205 57 193 Q 65 164 66 136 Q 66 130 66 125 Q 66 110 61 96" fill="#CCCCCC"/><path d="M 153 65 Q 151 65 150 66 Q 125 74 118 74 Q 116 73 118 71 Q 179 41 179 29 Q 179 25 181 24 Q 185 23 190 26 Q 205 31 211 36 Q 215 39 214 43 Q 213 45 207 45 Q 196 48 166 61" fill="#CCCCCC"/><path d="M 161 122 L 161 122 Q 134 125 111 132 Q 106 134 100 133 Q 95 131 91 128 Q 86 123 92 122 Q 129 116 162 111 L 178 108 Q 207 102 226 97 Q 236 95 252 105 Q 257 109 255 113 Q 254 116 236 116 Q 201 116 178 119 L 162 122" fill="#CCCCCC"/><path d="M 162 111 Q 162 101 162 93 Q 159 76 154 66 Q 153 65 153 65 L 166 61 Q 171 62 177 66 Q 182 69 181 75 Q 178 95 178 108 L 178 119 Q 177 173 178 189 Q 180 234 174 248 Q 173 252 171 253 Q 169 254 167 252 Q 166 250 165 248 Q 162 240 162 122" fill="#CCCCCC"/><path d="M 60 96 L 60 96 Q 25 139 17 140 Q 12 141 13 137 Q 14 136 17 132 Q 58 82 75 38 Q 78 31 74 22 Q 71 16 77 15 Q 83 15 91 21 Q 100 27 101 31 Q 102 35 100 38 Q 93 45 86 58 Q 76 74 68 86 L 61 96" fill="#0000ff" clip-path="url(#clip-mask-1)" /><path d="M 68 86 Q 70 88 81 100 Q 84 103 81 110 Q 79 125 77 193 Q 77 206 73 217 Q 70 225 65 220 Q 63 219 63 218 Q 54 205 57 193 Q 65 164 66 136 Q 66 130 66 125 Q 66 110 61 96" fill="#0000ff" clip-path="url(#clip-mask-2)" /><path d="M 153 65 Q 151 65 150 66 Q 125 74 118 74 Q 116 73 118 71 Q 179 41 179 29 Q 179 25 181 24 Q 185 23 190 26 Q 205 31 211 36 Q 215 39 214 43 Q 213 45 207 45 Q 196 48 166 61" fill="#000080" clip-path="url(#clip-mask-3)" /><path d="M 161 122 L 161 122 Q 134 125 111 132 Q 106 134 100 133 Q 95 131 91 128 Q 86 123 92 122 Q 129 116 162 111 L 178 108 Q 207 102 226 97 Q 236 95 252 105 Q 257 109 255 113 Q 254 116 236 116 Q 201 116 178 119 L 162 122" fill="#000080" clip-path="url(#clip-mask-4)" /><path d="M 162 111 Q 162 101 162 93 Q 159 76 154 66 Q 153 65 153 65 L 166 61 Q 171 62 177 66 Q 182 69 181 75 Q 178 95 178 108 L 178 119 Q 177 173 178 189 Q 180 234 174 248 Q 173 252 171 253 Q 169 254 167 252 Q 166 250 165 248 Q 162 240 162 122" fill="#000080" clip-path="url(#clip-mask-5)" /></svg>