<svg xmlns="http://www.w3.org/2000/svg" xmlns:xlink="http://www.w3.org/1999/xlink" width="270" height="270"><defs><clipPath id="clip-mask-1"><rect x="11" y="28" width="92" height="126"><animate attributeName="y" from="-98" to="28" dur="0.467" begin="0; animate8.end + 1" id="animate1" fill="freeze"/></rect></clipPath><clipPath id="clip-mask-2"><rect x="53" y="101" width="26" height="140"><set attributeName="y" to="-39" begin="0; animate8.end + 1" /><animate attributeName="y" from="-39" to="101" dur="0.519" begin="animate1.end + 0.5" id="animate2" fill="freeze"/></rect></clipPath><clipPath id="clip-mask-3"><rect x="110" y="72" width="27" height="93"><set attributeName="y" to="-21" begin="0; animate8.end + 1" /><animate attributeName="y" from="-21" to="72" dur="0.344" begin="animate2.end + 0.5" id="animate3" fill="freeze"/></rect></clipPath><clipPath id="clip-mask-4"><rect x="128" y="61" width="98" height="27"><set attributeName="x" to="30" begin="0; animate8.end + 1" /><animate attributeName="x" from="30" to="128" dur="0.363" begin="animate3.end + 0.5" id="animate4" fill="freeze"/></rect></clipPath><clipPath id="clip-mask-5"><rect x="186" y="75" width="45" height="82"><set attributeName="y" to="-7" begin="0; animate8.end + 1" /><animate attributeName="y" from="-7" to="75" dur="0.304" begin="animate4.end" id="animate5" fill="freeze"/></rect></clipPath><clipPath id="clip-mask-6"><rect x="133" y="101" width="51" height="18"><set attributeName="x" to="82" begin="0; animate8.end + 1" /><animate attributeName="x" from="82" to="133" dur="0.189" begin="animate5.end + 0.5" id="animate6" fill="freeze"/></rect></clipPath><clipPath id="clip-mask-7"><rect x="138" y="138" width="48" height="17"><set attributeName="x" to="90" begin="0; animate8.end + 1" /><animate attributeName="x" from="90" to="138" dur="0.178" begin="animate6.end + 0.5" id="animate7" fill="freeze"/></rect></clipPath><clipPath id="clip-mask-8"><rect x="86" y="178" width="172" height="34"><set attributeName="x" to="-86" begin="0; animate8.end + 1" /><animate attributeName="x" from="-86" to="86" dur="0.637" begin="animate7.end + 0.5" id="animate8" fill="freeze"/></rect></clipPath></defs><path d="M 0 0 L 270 270 M 270 0 L 0 270 M 135 0 L 135 270 M 0 135 L 270 135" stroke="#CCCCCC" /><path d="M 27 151 L 15 153 Q 11 154 12 151 Q 13 149 16 146 Q 36 121 51 99 Q 67 76 77 51 Q 81 44 77 35 Q 74 28 80 28 Q 85 28 93 33 Q 101 40 102 44 Q 103 48 101 51 Q 94 57 87 70 Q 76 87 66 101 L 59 110" fill="#CCCCCC"/><path d="M 66 101 Q 71 106 73 107 Q 79 115 78 122 Q 75 138 75 210 Q 75 223 72 234 Q 68 241 63 237 Q 62 236 62 235 Q 53 223 56 210 Q 64 180 64 151 Q 64 148 64 145 Q 64 121 59 110" fill="#CCCCCC"/><path d="M 137 158 L 136 161 Q 134 165 130 159 Q 124 151 124 140 Q 121 103 112 79 Q 110 75 112 74 Q 112 72 116 73 Q 126 76 128 78 L 130 88 Q 130 96 133 112 L 134 119 Q 137 144 137 145 L 137 154" fill="#CCCCCC"/><path d="M 195 76 Q 192 75 186 76 Q 149 82 133 87 Q 131 88 130 88 L 128 78 Q 176 65 183 65 Q 200 61 204 63 Q 220 71 226 75" fill="#CCCCCC"/><path d="M 186 143 Q 190 136 197 90 Q 199 78 195 76 L 226 75 Q 231 80 225 85 Q 214 94 210 110 Q 204 144 199 151 Q 197 156 193 157 Q 189 157 187 152 Q 186 151 186 150" fill="#CCCCCC"/><path d="M 133 112 Q 163 101 171 102 Q 178 103 181 107 Q 184 111 177 112 Q 134 119 134 119" fill="#CCCCCC"/><path d="M 138 145 Q 152 143 170 139 Q 178 138 183 140 Q 185 142 186 143 L 186 150 Q 156 152 141 154 Q 139 155 138 154" fill="#CCCCCC"/><path d="M 189 187 L 227 180 Q 238 178 253 190 Q 258 195 256 198 Q 255 200 249 200 Q 243 200 237 200 Q 160 198 111 209 Q 99 212 90 203 Q 86 197 92 197" fill="#CCCCCC"/><path d="M 27 151 L 15 153 Q 11 154 12 151 Q 13 149 16 146 Q 36 121 51 99 Q 67 76 77 51 Q 81 44 77 35 Q 74 28 80 28 Q 85 28 93 33 Q 101 40 102 44 Q 103 48 101 51 Q 94 57 87 70 Q 76 87 66 101 L 59 110" fill="#0000ff" clip-path="url(#clip-mask-1)" /><path d="M 66 101 Q 71 106 73 107 Q 79 115 78 122 Q 75 138 75 210 Q 75 223 72 234 Q 68 241 63 237 Q 62 236 62 235 Q 53 223 56 210 Q 64 180 64 151 Q 64 148 64 145 Q 64 121 59 110" fill="#0000ff" clip-path="url(#clip-mask-2)" /><path d="M 137 158 L 136 161 Q 134 165 130 159 Q 124 151 124 140 Q 121 103 112 79 Q 110 75 112 74 Q 112 72 116 73 Q 126 76 128 78 L 130 88 Q 130 96 133 112 L 134 119 Q 137 144 137 145 L 137 154" fill="#000080" clip-path="url(#clip-mask-3)" /><path d="M 195 76 Q 192 75 186 76 Q 149 82 133 87 Q 131 88 130 88 L 128 78 Q 176 65 183 65 Q 200 61 204 63 Q 220 71 226 75" fill="#000080" clip-path="url(#clip-mask-4)" /><path d="M 186 143 Q 190 136 197 90 Q 199 78 195 76 L 226 75 Q 231 80 225 85 Q 214 94 210 110 Q 204 144 199 151 Q 197 156 193 157 Q 189 157 187 152 Q 186 151 186 150" fill="#000080" clip-path="url(#clip-mask-5)" /><path d="M 133 112 Q 163 101 171 102 Q 178 103 181 107 Q 184 111 177 112 Q 134 119 134 119" fill="#000080" clip-path="url(#clip-mask-6)" /><path d="M 138 145 Q 152 143 170 139 Q 178 138 183 140 Q 185 142 186 143 L 186 150 Q 156 152 141 154 Q 139 155 138 154" fill="#000080" clip-path="url(#clip-mask-7)" /><path d="M 189 187 L 227 180 Q 238 178 253 190 Q 258 195 256 198 Q 255 200 249 200 Q 243 200 237 200 Q 160 198 111 209 Q 99 212 90 203 Q 86 197 92 197" fill="#000080" clip-path="url(#clip-mask-8)" /></svg>