<svg xmlns="http://www.w3.org/2000/svg" xmlns:xlink="http://www.w3.org/1999/xlink" width="270" height="270"><defs><clipPath id="clip-mask-1"><rect x="16" y="34" width="88" height="127"><animate attributeName="y" from="-93" to="34" dur="0.470" begin="0; animate7.end + 1" id="animate1" fill="freeze"/></rect></clipPath><clipPath id="clip-mask-2"><rect x="57" y="109" width="25" height="128"><set attributeName="y" to="-19" begin="0; animate7.end + 1" /><animate attributeName="y" from="-19" to="109" dur="0.474" begin="animate1.end + 0.5" id="animate2" fill="freeze"/></rect></clipPath><clipPath id="clip-mask-3"><rect x="140" y="32" width="41" height="34"><set attributeName="x" to="99" begin="0; animate7.end + 1" /><animate attributeName="x" from="99" to="140" dur="0.152" begin="animate2.end + 0.5" id="animate3" fill="freeze"/></rect></clipPath><clipPath id="clip-mask-4"><rect x="106" y="80" width="117" height="35"><set attributeName="x" to="-11" begin="0; animate7.end + 1" /><animate attributeName="x" from="-11" to="106" dur="0.433" begin="animate3.end + 0.5" id="animate4" fill="freeze"/></rect></clipPath><clipPath id="clip-mask-5"><rect x="117" y="135" width="30" height="42"><set attributeName="y" to="93" begin="0; animate7.end + 1" /><animate attributeName="y" from="93" to="135" dur="0.156" begin="animate4.end + 0.5" id="animate5" fill="freeze"/></rect></clipPath><clipPath id="clip-mask-6"><rect x="161" y="115" width="45" height="83"><set attributeName="y" to="32" begin="0; animate7.end + 1" /><animate attributeName="y" from="32" to="115" dur="0.307" begin="animate5.end + 0.5" id="animate6" fill="freeze"/></rect></clipPath><clipPath id="clip-mask-7"><rect x="85" y="186" width="168" height="33"><set attributeName="x" to="-83" begin="0; animate7.end + 1" /><animate attributeName="x" from="-83" to="85" dur="0.622" begin="animate6.end + 0.5" id="animate7" fill="freeze"/></rect></clipPath></defs><path d="M 0 0 L 270 270 M 270 0 L 0 270 M 135 0 L 135 270 M 0 135 L 270 135" stroke="#CCCCCC" /><path d="M 59 120 L 57 123 Q 31 157 20 160 Q 16 161 17 157 Q 18 156 21 152 Q 40 128 54 105 Q 68 82 78 57 Q 80 50 76 41 Q 74 35 79 34 Q 85 34 93 39 Q 101 45 103 49 Q 104 53 101 57 Q 95 63 88 76 Q 78 95 67 109 L 61 118" fill="#CCCCCC"/><path d="M 67 109 Q 70 111 72 113 Q 75 116 80 122 Q 82 125 81 132 Q 79 146 80 207 Q 80 219 76 230 Q 73 237 68 233 Q 67 232 66 232 Q 57 219 61 206 Q 67 181 67 150 Q 66 126 61 118" fill="#CCCCCC"/><path d="M 142 42 L 141 39 Q 140 35 141 34 Q 146 32 167 39 Q 176 43 178 49 Q 181 57 180 62 Q 179 66 175 66 Q 171 66 167 63 Q 158 55 150 48" fill="#CCCCCC"/><path d="M 144 98 L 173 90 Q 204 80 210 82 Q 219 84 221 87 Q 223 90 220 92 Q 218 94 203 97 Q 172 104 142 111 Q 125 115 113 108 Q 106 103 116 101" fill="#CCCCCC"/><path d="M 117 141 L 118 138 Q 119 135 121 135 Q 123 135 127 138 L 127 138 Q 147 155 146 167 Q 145 172 142 174 Q 139 177 135 174 Q 127 165 120 146" fill="#CCCCCC"/><path d="M 174 164 L 181 134 Q 183 130 180 122 Q 180 117 182 116 Q 185 115 189 117 Q 195 120 202 128 Q 206 133 204 136 Q 196 147 174 196 L 161 198" fill="#CCCCCC"/><path d="M 174 196 Q 204 191 223 188 Q 234 186 248 197 Q 253 200 251 204 Q 250 206 244 206 Q 240 206 235 206 Q 154 206 109 217 Q 104 219 98 217 Q 93 216 89 212 Q 85 207 91 206 Q 129 201 161 198" fill="#CCCCCC"/><path d="M 59 120 L 57 123 Q 31 157 20 160 Q 16 161 17 157 Q 18 156 21 152 Q 40 128 54 105 Q 68 82 78 57 Q 80 50 76 41 Q 74 35 79 34 Q 85 34 93 39 Q 101 45 103 49 Q 104 53 101 57 Q 95 63 88 76 Q 78 95 67 109 L 61 118" fill="#0000ff" clip-path="url(#clip-mask-1)" /><path d="M 67 109 Q 70 111 72 113 Q 75 116 80 122 Q 82 125 81 132 Q 79 146 80 207 Q 80 219 76 230 Q 73 237 68 233 Q 67 232 66 232 Q 57 219 61 206 Q 67 181 67 150 Q 66 126 61 118" fill="#0000ff" clip-path="url(#clip-mask-2)" /><path d="M 142 42 L 141 39 Q 140 35 141 34 Q 146 32 167 39 Q 176 43 178 49 Q 181 57 180 62 Q 179 66 175 66 Q 171 66 167 63 Q 158 55 150 48" fill="#000080" clip-path="url(#clip-mask-3)" /><path d="M 144 98 L 173 90 Q 204 80 210 82 Q 219 84 221 87 Q 223 90 220 92 Q 218 94 203 97 Q 172 104 142 111 Q 125 115 113 108 Q 106 103 116 101" fill="#000080" clip-path="url(#clip-mask-4)" /><path d="M 117 141 L 118 138 Q 119 135 121 135 Q 123 135 127 138 L 127 138 Q 147 155 146 167 Q 145 172 142 174 Q 139 177 135 174 Q 127 165 120 146" fill="#000080" clip-path="url(#clip-mask-5)" /><path d="M 174 164 L 181 134 Q 183 130 180 122 Q 180 117 182 116 Q 185 115 189 117 Q 195 120 202 128 Q 206 133 204 136 Q 196 147 174 196 L 161 198" fill="#000080" clip-path="url(#clip-mask-6)" /><path d="M 174 196 Q 204 191 223 188 Q 234 186 248 197 Q 253 200 251 204 Q 250 206 244 206 Q 240 206 235 206 Q 154 206 109 217 Q 104 219 98 217 Q 93 216 89 212 Q 85 207 91 206 Q 129 201 161 198" fill="#000080" clip-path="url(#clip-mask-7)" /></svg>