<svg xmlns="http://www.w3.org/2000/svg" xmlns:xlink="http://www.w3.org/1999/xlink" width="270" height="270"><defs><clipPath id="clip-mask-1"><rect x="17" y="23" width="93" height="130"><animate attributeName="y" from="-107" to="23" dur="0.481" begin="0; animate7.end + 1" id="animate1" fill="freeze"/></rect></clipPath><clipPath id="clip-mask-2"><rect x="59" y="99" width="28" height="147"><set attributeName="y" to="-48" begin="0; animate7.end + 1" /><animate attributeName="y" from="-48" to="99" dur="0.544" begin="animate1.end + 0.5" id="animate2" fill="freeze"/></rect></clipPath><clipPath id="clip-mask-3"><rect x="106" y="75" width="123" height="33"><set attributeName="x" to="-17" begin="0; animate7.end + 1" /><animate attributeName="x" from="-17" to="106" dur="0.456" begin="animate2.end + 0.5" id="animate3" fill="freeze"/></rect></clipPath><clipPath id="clip-mask-4"><rect x="82" y="25" width="105" height="180"><set attributeName="y" to="-155" begin="0; animate7.end + 1" /><animate attributeName="y" from="-155" to="25" dur="0.667" begin="animate3.end + 0.5" id="animate4" fill="freeze"/></rect></clipPath><clipPath id="clip-mask-5"><rect x="138" y="136" width="84" height="26"><set attributeName="x" to="54" begin="0; animate7.end + 1" /><animate attributeName="x" from="54" to="138" dur="0.311" begin="animate4.end + 0.5" id="animate5" fill="freeze"/></rect></clipPath><clipPath id="clip-mask-6"><rect x="165" y="156" width="20" height="49"><set attributeName="y" to="107" begin="0; animate7.end + 1" /><animate attributeName="y" from="107" to="156" dur="0.181" begin="animate5.end + 0.5" id="animate6" fill="freeze"/></rect></clipPath><clipPath id="clip-mask-7"><rect x="101" y="194" width="151" height="28"><set attributeName="x" to="-50" begin="0; animate7.end + 1" /><animate attributeName="x" from="-50" to="101" dur="0.559" begin="animate6.end + 0.5" id="animate7" fill="freeze"/></rect></clipPath></defs><path d="M 0 0 L 270 270 M 270 0 L 0 270 M 135 0 L 135 270 M 0 135 L 270 135" stroke="#CCCCCC" /><path d="M 61 112 L 59 115 Q 32 150 21 152 Q 17 153 18 150 Q 19 148 21 145 Q 66 91 83 47 Q 87 39 83 30 Q 80 24 85 23 Q 91 24 99 29 Q 107 35 108 39 Q 110 42 107 45 Q 100 52 93 66 Q 81 84 71 99 L 64 109" fill="#CCCCCC"/><path d="M 71 99 Q 74 101 84 113 Q 87 116 85 124 Q 82 140 80 214 Q 81 227 76 238 Q 73 246 68 241 Q 65 238 62 228 Q 59 219 61 213 Q 69 183 70 152 Q 70 142 70 131 Q 70 122 66 113 Q 65 111 64 109" fill="#CCCCCC"/><path d="M 148 103 Q 140 104 133 106 Q 122 108 112 101 Q 106 96 114 95 Q 121 94 152 90 L 169 87 Q 171 86 175 86 Q 183 84 191 82 Q 211 75 222 82 Q 229 84 228 88 Q 226 91 223 91 Q 169 99 165 99" fill="#CCCCCC"/><path d="M 138 153 Q 127 172 115 183 Q 92 205 87 204 Q 82 204 83 202 Q 84 201 88 199 Q 122 164 145 110 Q 146 107 148 103 L 152 90 Q 158 73 163 51 Q 164 42 159 32 Q 155 26 161 25 Q 166 25 172 29 Q 181 36 185 41 Q 187 44 185 47 Q 179 55 177 63 Q 169 81 169 87 L 165 99 Q 158 117 141 149" fill="#CCCCCC"/><path d="M 167 158 Q 166 158 165 158 Q 147 162 138 154 L 141 150 Q 141 149 142 149 Q 159 148 172 145 Q 185 142 196 139 Q 204 136 212 138 Q 219 140 221 143 Q 222 145 219 147 Q 217 148 178 156" fill="#CCCCCC"/><path d="M 167 162 L 167 158 Q 166 158 167 158 L 178 156 Q 182 159 184 162 Q 185 163 183 174 Q 181 187 178 204 L 165 205" fill="#CCCCCC"/><path d="M 178 204 Q 207 199 225 196 Q 234 194 248 205 Q 252 208 250 211 Q 249 213 244 213 Q 240 213 235 213 Q 158 213 123 221 Q 119 222 114 221 Q 109 220 105 216 Q 101 211 107 211 Q 138 208 165 205" fill="#CCCCCC"/><path d="M 61 112 L 59 115 Q 32 150 21 152 Q 17 153 18 150 Q 19 148 21 145 Q 66 91 83 47 Q 87 39 83 30 Q 80 24 85 23 Q 91 24 99 29 Q 107 35 108 39 Q 110 42 107 45 Q 100 52 93 66 Q 81 84 71 99 L 64 109" fill="#0000ff" clip-path="url(#clip-mask-1)" /><path d="M 71 99 Q 74 101 84 113 Q 87 116 85 124 Q 82 140 80 214 Q 81 227 76 238 Q 73 246 68 241 Q 65 238 62 228 Q 59 219 61 213 Q 69 183 70 152 Q 70 142 70 131 Q 70 122 66 113 Q 65 111 64 109" fill="#0000ff" clip-path="url(#clip-mask-2)" /><path d="M 148 103 Q 140 104 133 106 Q 122 108 112 101 Q 106 96 114 95 Q 121 94 152 90 L 169 87 Q 171 86 175 86 Q 183 84 191 82 Q 211 75 222 82 Q 229 84 228 88 Q 226 91 223 91 Q 169 99 165 99" fill="#000080" clip-path="url(#clip-mask-3)" /><path d="M 138 153 Q 127 172 115 183 Q 92 205 87 204 Q 82 204 83 202 Q 84 201 88 199 Q 122 164 145 110 Q 146 107 148 103 L 152 90 Q 158 73 163 51 Q 164 42 159 32 Q 155 26 161 25 Q 166 25 172 29 Q 181 36 185 41 Q 187 44 185 47 Q 179 55 177 63 Q 169 81 169 87 L 165 99 Q 158 117 141 149" fill="#000080" clip-path="url(#clip-mask-4)" /><path d="M 167 158 Q 166 158 165 158 Q 147 162 138 154 L 141 150 Q 141 149 142 149 Q 159 148 172 145 Q 185 142 196 139 Q 204 136 212 138 Q 219 140 221 143 Q 222 145 219 147 Q 217 148 178 156" fill="#000080" clip-path="url(#clip-mask-5)" /><path d="M 167 162 L 167 158 Q 166 158 167 158 L 178 156 Q 182 159 184 162 Q 185 163 183 174 Q 181 187 178 204 L 165 205" fill="#000080" clip-path="url(#clip-mask-6)" /><path d="M 178 204 Q 207 199 225 196 Q 234 194 248 205 Q 252 208 250 211 Q 249 213 244 213 Q 240 213 235 213 Q 158 213 123 221 Q 119 222 114 221 Q 109 220 105 216 Q 101 211 107 211 Q 138 208 165 205" fill="#000080" clip-path="url(#clip-mask-7)" /></svg>