<svg xmlns="http://www.w3.org/2000/svg" xmlns:xlink="http://www.w3.org/1999/xlink" width="270" height="270"><defs><clipPath id="clip-mask-1"><rect x="17" y="23" width="84" height="123"><animate attributeName="y" from="-100" to="23" dur="0.456" begin="0; animate9.end + 1" id="animate1" fill="freeze"/></rect></clipPath><clipPath id="clip-mask-2"><rect x="53" y="94" width="26" height="143"><set attributeName="y" to="-49" begin="0; animate9.end + 1" /><animate attributeName="y" from="-49" to="94" dur="0.530" begin="animate1.end + 0.5" id="animate2" fill="freeze"/></rect></clipPath><clipPath id="clip-mask-3"><rect x="122" y="54" width="86" height="30"><set attributeName="x" to="36" begin="0; animate9.end + 1" /><animate attributeName="x" from="36" to="122" dur="0.319" begin="animate2.end + 0.5" id="animate3" fill="freeze"/></rect></clipPath><clipPath id="clip-mask-4"><rect x="147" y="14" width="31" height="91"><set attributeName="y" to="-77" begin="0; animate9.end + 1" /><animate attributeName="y" from="-77" to="14" dur="0.337" begin="animate3.end + 0.5" id="animate4" fill="freeze"/></rect></clipPath><clipPath id="clip-mask-5"><rect x="88" y="87" width="164" height="40"><set attributeName="x" to="-76" begin="0; animate9.end + 1" /><animate attributeName="x" from="-76" to="88" dur="0.607" begin="animate4.end + 0.5" id="animate5" fill="freeze"/></rect></clipPath><clipPath id="clip-mask-6"><rect x="100" y="127" width="134" height="36"><set attributeName="x" to="-34" begin="0; animate9.end + 1" /><animate attributeName="x" from="-34" to="100" dur="0.496" begin="animate5.end + 0.5" id="animate6" fill="freeze"/></rect></clipPath><clipPath id="clip-mask-7"><rect x="173" y="110" width="24" height="145"><set attributeName="y" to="-35" begin="0; animate9.end + 1" /><animate attributeName="y" from="-35" to="110" dur="0.537" begin="animate6.end + 0.5" id="animate7" fill="freeze"/></rect></clipPath><clipPath id="clip-mask-8"><rect x="150" y="222" width="30" height="31"><set attributeName="x" to="180" begin="0; animate9.end + 1" /><animate attributeName="x" from="180" to="150" dur="0.111" begin="animate7.end" id="animate8" fill="freeze"/></rect></clipPath><clipPath id="clip-mask-9"><rect x="120" y="169" width="30" height="29"><set attributeName="y" to="140" begin="0; animate9.end + 1" /><animate attributeName="y" from="140" to="169" dur="0.107" begin="animate8.end + 0.5" id="animate9" fill="freeze"/></rect></clipPath></defs><path d="M 0 0 L 270 270 M 270 0 L 0 270 M 135 0 L 135 270 M 0 135 L 270 135" stroke="#CCCCCC" /><path d="M 58 105 L 58 106 Q 30 143 21 145 Q 17 146 18 143 Q 19 141 21 138 Q 40 114 53 92 Q 67 69 76 45 Q 79 37 75 29 Q 72 24 77 23 Q 82 23 90 27 Q 98 33 99 37 Q 101 40 98 43 Q 92 49 86 63 Q 76 80 66 94 L 59 105" fill="#CCCCCC"/><path d="M 66 94 Q 71 99 73 101 Q 79 108 78 116 Q 75 133 75 206 Q 75 219 72 230 Q 68 237 63 233 Q 62 232 62 231 Q 53 219 56 206 Q 64 175 64 141 Q 64 116 59 105" fill="#CCCCCC"/><path d="M 157 78 Q 154 79 152 79 Q 139 84 128 79 Q 122 75 130 73 Q 145 71 157 67 L 172 62 Q 192 54 198 55 Q 205 56 207 59 Q 208 61 206 63 Q 205 64 171 74" fill="#CCCCCC"/><path d="M 157 105 Q 157 91 157 78 L 157 67 Q 156 50 155 34 Q 154 30 149 23 Q 147 18 149 16 Q 151 14 156 15 Q 163 16 173 21 Q 178 25 177 28 Q 172 45 172 62 L 171 74 Q 170 88 169 103" fill="#CCCCCC"/><path d="M 173 111 Q 146 114 110 126 Q 106 127 101 126 Q 96 125 92 122 Q 88 118 93 117 Q 127 111 157 105 L 169 103 Q 204 96 225 90 Q 234 87 248 96 Q 252 99 251 102 Q 250 105 245 105 Q 193 109 182 110" fill="#CCCCCC"/><path d="M 151 152 L 126 159 Q 110 163 103 157 Q 100 153 105 152 Q 115 150 178 138 L 194 134 Q 197 133 201 132 Q 216 127 230 137 Q 234 139 233 143 Q 232 144 218 145 Q 205 146 194 147 L 178 149" fill="#CCCCCC"/><path d="M 178 138 Q 177 123 175 117 Q 173 113 173 111 L 182 110 Q 192 115 195 119 Q 196 121 194 134 L 194 147 Q 193 169 196 215 Q 197 235 187 251 Q 183 255 180 253 L 176 226 Q 179 222 179 213 Q 179 172 178 149" fill="#CCCCCC"/><path d="M 180 253 Q 169 242 153 229 Q 150 227 150 224 Q 150 222 153 223 Q 160 225 165 226 Q 173 228 176 226" fill="#CCCCCC"/><path d="M 121 177 L 120 174 Q 120 171 122 170 Q 123 169 128 170 Q 147 176 149 182 Q 150 190 149 194 Q 147 198 144 198 Q 140 197 136 194 Q 132 188 128 183" fill="#CCCCCC"/><path d="M 58 105 L 58 106 Q 30 143 21 145 Q 17 146 18 143 Q 19 141 21 138 Q 40 114 53 92 Q 67 69 76 45 Q 79 37 75 29 Q 72 24 77 23 Q 82 23 90 27 Q 98 33 99 37 Q 101 40 98 43 Q 92 49 86 63 Q 76 80 66 94 L 59 105" fill="#0000ff" clip-path="url(#clip-mask-1)" /><path d="M 66 94 Q 71 99 73 101 Q 79 108 78 116 Q 75 133 75 206 Q 75 219 72 230 Q 68 237 63 233 Q 62 232 62 231 Q 53 219 56 206 Q 64 175 64 141 Q 64 116 59 105" fill="#0000ff" clip-path="url(#clip-mask-2)" /><path d="M 157 78 Q 154 79 152 79 Q 139 84 128 79 Q 122 75 130 73 Q 145 71 157 67 L 172 62 Q 192 54 198 55 Q 205 56 207 59 Q 208 61 206 63 Q 205 64 171 74" fill="#000080" clip-path="url(#clip-mask-3)" /><path d="M 157 105 Q 157 91 157 78 L 157 67 Q 156 50 155 34 Q 154 30 149 23 Q 147 18 149 16 Q 151 14 156 15 Q 163 16 173 21 Q 178 25 177 28 Q 172 45 172 62 L 171 74 Q 170 88 169 103" fill="#000080" clip-path="url(#clip-mask-4)" /><path d="M 173 111 Q 146 114 110 126 Q 106 127 101 126 Q 96 125 92 122 Q 88 118 93 117 Q 127 111 157 105 L 169 103 Q 204 96 225 90 Q 234 87 248 96 Q 252 99 251 102 Q 250 105 245 105 Q 193 109 182 110" fill="#000080" clip-path="url(#clip-mask-5)" /><path d="M 151 152 L 126 159 Q 110 163 103 157 Q 100 153 105 152 Q 115 150 178 138 L 194 134 Q 197 133 201 132 Q 216 127 230 137 Q 234 139 233 143 Q 232 144 218 145 Q 205 146 194 147 L 178 149" fill="#000080" clip-path="url(#clip-mask-6)" /><path d="M 178 138 Q 177 123 175 117 Q 173 113 173 111 L 182 110 Q 192 115 195 119 Q 196 121 194 134 L 194 147 Q 193 169 196 215 Q 197 235 187 251 Q 183 255 180 253 L 176 226 Q 179 222 179 213 Q 179 172 178 149" fill="#000080" clip-path="url(#clip-mask-7)" /><path d="M 180 253 Q 169 242 153 229 Q 150 227 150 224 Q 150 222 153 223 Q 160 225 165 226 Q 173 228 176 226" fill="#000080" clip-path="url(#clip-mask-8)" /><path d="M 121 177 L 120 174 Q 120 171 122 170 Q 123 169 128 170 Q 147 176 149 182 Q 150 190 149 194 Q 147 198 144 198 Q 140 197 136 194 Q 132 188 128 183" fill="#000080" clip-path="url(#clip-mask-9)" /></svg>