<svg xmlns="http://www.w3.org/2000/svg" xmlns:xlink="http://www.w3.org/1999/xlink" width="270" height="270"><defs><clipPath id="clip-mask-1"><rect x="11" y="29" width="87" height="121"><animate attributeName="y" from="-92" to="29" dur="0.448" begin="0; animate10.end + 1" id="animate1" fill="freeze"/></rect></clipPath><clipPath id="clip-mask-2"><rect x="50" y="96" width="28" height="144"><set attributeName="y" to="-48" begin="0; animate10.end + 1" /><animate attributeName="y" from="-48" to="96" dur="0.533" begin="animate1.end + 0.5" id="animate2" fill="freeze"/></rect></clipPath><clipPath id="clip-mask-3"><rect x="110" y="54" width="30" height="60"><set attributeName="y" to="-6" begin="0; animate10.end + 1" /><animate attributeName="y" from="-6" to="54" dur="0.222" begin="animate2.end + 0.5" id="animate3" fill="freeze"/></rect></clipPath><clipPath id="clip-mask-4"><rect x="128" y="40" width="86" height="24"><set attributeName="x" to="42" begin="0; animate10.end + 1" /><animate attributeName="x" from="42" to="128" dur="0.319" begin="animate3.end + 0.5" id="animate4" fill="freeze"/></rect></clipPath><clipPath id="clip-mask-5"><rect x="181" y="53" width="37" height="37"><set attributeName="y" to="16" begin="0; animate10.end + 1" /><animate attributeName="y" from="16" to="53" dur="0.137" begin="animate4.end" id="animate5" fill="freeze"/></rect></clipPath><clipPath id="clip-mask-6"><rect x="139" y="90" width="64" height="17"><set attributeName="x" to="75" begin="0; animate10.end + 1" /><animate attributeName="x" from="75" to="139" dur="0.237" begin="animate5.end + 0.5" id="animate6" fill="freeze"/></rect></clipPath><clipPath id="clip-mask-7"><rect x="151" y="104" width="19" height="92"><set attributeName="y" to="12" begin="0; animate10.end + 1" /><animate attributeName="y" from="12" to="104" dur="0.341" begin="animate6.end + 0.5" id="animate7" fill="freeze"/></rect></clipPath><clipPath id="clip-mask-8"><rect x="168" y="134" width="51" height="19"><set attributeName="x" to="117" begin="0; animate10.end + 1" /><animate attributeName="x" from="117" to="168" dur="0.189" begin="animate7.end + 0.5" id="animate8" fill="freeze"/></rect></clipPath><clipPath id="clip-mask-9"><rect x="78" y="129" width="57" height="85"><set attributeName="y" to="44" begin="0; animate10.end + 1" /><animate attributeName="y" from="44" to="129" dur="0.315" begin="animate8.end + 0.5" id="animate9" fill="freeze"/></rect></clipPath><clipPath id="clip-mask-10"><rect x="118" y="165" width="140" height="72"><set attributeName="x" to="-22" begin="0; animate10.end + 1" /><animate attributeName="x" from="-22" to="118" dur="0.519" begin="animate9.end + 0.5" id="animate10" fill="freeze"/></rect></clipPath></defs><path d="M 0 0 L 270 270 M 270 0 L 0 270 M 135 0 L 135 270 M 0 135 L 270 135" stroke="#CCCCCC" /><path d="M 54 110 L 51 114 Q 26 146 15 149 Q 11 150 12 146 Q 13 145 16 142 Q 57 90 72 51 Q 75 44 71 36 Q 68 30 74 29 Q 79 30 87 34 Q 95 41 96 45 Q 98 48 95 51 Q 89 57 82 70 Q 73 84 65 96 L 57 106" fill="#CCCCCC"/><path d="M 65 96 Q 66 96 67 98 Q 70 101 75 107 Q 78 110 76 117 Q 73 134 73 209 Q 73 222 69 233 Q 66 240 61 236 Q 60 235 59 234 Q 50 222 54 209 Q 58 193 60 178 Q 66 125 58 107 Q 57 107 57 106" fill="#CCCCCC"/><path d="M 140 107 Q 140 109 140 111 Q 139 114 134 109 Q 129 105 128 98 Q 121 74 113 61 Q 110 57 112 55 Q 112 54 115 54 Q 125 55 128 57 L 131 64 Q 133 72 139 95 Q 139 96 139 98" fill="#CCCCCC"/><path d="M 187 55 Q 185 53 179 54 Q 155 60 131 64 L 128 57 Q 167 49 184 42 Q 190 40 195 42 Q 209 49 214 53" fill="#CCCCCC"/><path d="M 181 90 Q 185 78 188 63 Q 189 58 187 55 L 214 53 Q 218 58 213 63 Q 204 69 196 90" fill="#CCCCCC"/><path d="M 151 105 Q 147 106 143 107 Q 141 107 140 107 L 139 98 Q 158 95 181 90 L 196 90 Q 203 94 203 97 Q 202 99 200 99 Q 179 101 163 104" fill="#CCCCCC"/><path d="M 155 188 Q 155 152 155 135 Q 154 112 151 105 L 163 104 Q 167 106 170 109 L 170 109 Q 170 109 169 142 L 168 150 Q 168 172 167 196 L 167 196" fill="#CCCCCC"/><path d="M 169 142 Q 175 141 181 140 Q 202 134 208 134 Q 216 136 217 139 Q 219 141 216 143 Q 216 144 211 145 Q 205 146 200 148 Q 177 153 168 150" fill="#CCCCCC"/><path d="M 109 190 L 92 205 Q 86 211 81 212 Q 78 214 79 210 Q 82 205 89 197 Q 117 162 111 135 Q 110 132 113 131 Q 119 129 131 137 Q 135 141 133 144 Q 128 153 122 165 L 118 173" fill="#CCCCCC"/><path d="M 122 165 Q 139 177 155 188 L 167 196 L 167 196 Q 181 205 197 211 Q 206 215 222 216 Q 234 217 252 220 Q 258 220 256 224 Q 254 227 243 230 Q 210 237 202 235 Q 146 201 118 173" fill="#CCCCCC"/><path d="M 54 110 L 51 114 Q 26 146 15 149 Q 11 150 12 146 Q 13 145 16 142 Q 57 90 72 51 Q 75 44 71 36 Q 68 30 74 29 Q 79 30 87 34 Q 95 41 96 45 Q 98 48 95 51 Q 89 57 82 70 Q 73 84 65 96 L 57 106" fill="#0000ff" clip-path="url(#clip-mask-1)" /><path d="M 65 96 Q 66 96 67 98 Q 70 101 75 107 Q 78 110 76 117 Q 73 134 73 209 Q 73 222 69 233 Q 66 240 61 236 Q 60 235 59 234 Q 50 222 54 209 Q 58 193 60 178 Q 66 125 58 107 Q 57 107 57 106" fill="#0000ff" clip-path="url(#clip-mask-2)" /><path d="M 140 107 Q 140 109 140 111 Q 139 114 134 109 Q 129 105 128 98 Q 121 74 113 61 Q 110 57 112 55 Q 112 54 115 54 Q 125 55 128 57 L 131 64 Q 133 72 139 95 Q 139 96 139 98" fill="#000080" clip-path="url(#clip-mask-3)" /><path d="M 187 55 Q 185 53 179 54 Q 155 60 131 64 L 128 57 Q 167 49 184 42 Q 190 40 195 42 Q 209 49 214 53" fill="#000080" clip-path="url(#clip-mask-4)" /><path d="M 181 90 Q 185 78 188 63 Q 189 58 187 55 L 214 53 Q 218 58 213 63 Q 204 69 196 90" fill="#000080" clip-path="url(#clip-mask-5)" /><path d="M 151 105 Q 147 106 143 107 Q 141 107 140 107 L 139 98 Q 158 95 181 90 L 196 90 Q 203 94 203 97 Q 202 99 200 99 Q 179 101 163 104" fill="#000080" clip-path="url(#clip-mask-6)" /><path d="M 155 188 Q 155 152 155 135 Q 154 112 151 105 L 163 104 Q 167 106 170 109 L 170 109 Q 170 109 169 142 L 168 150 Q 168 172 167 196 L 167 196" fill="#000080" clip-path="url(#clip-mask-7)" /><path d="M 169 142 Q 175 141 181 140 Q 202 134 208 134 Q 216 136 217 139 Q 219 141 216 143 Q 216 144 211 145 Q 205 146 200 148 Q 177 153 168 150" fill="#000080" clip-path="url(#clip-mask-8)" /><path d="M 109 190 L 92 205 Q 86 211 81 212 Q 78 214 79 210 Q 82 205 89 197 Q 117 162 111 135 Q 110 132 113 131 Q 119 129 131 137 Q 135 141 133 144 Q 128 153 122 165 L 118 173" fill="#000080" clip-path="url(#clip-mask-9)" /><path d="M 122 165 Q 139 177 155 188 L 167 196 L 167 196 Q 181 205 197 211 Q 206 215 222 216 Q 234 217 252 220 Q 258 220 256 224 Q 254 227 243 230 Q 210 237 202 235 Q 146 201 118 173" fill="#000080" clip-path="url(#clip-mask-10)" /></svg>