<svg xmlns="http://www.w3.org/2000/svg" xmlns:xlink="http://www.w3.org/1999/xlink" width="270" height="270"><defs><clipPath id="clip-mask-1"><rect x="17" y="33" width="85" height="116"><animate attributeName="y" from="-83" to="33" dur="0.430" begin="0; animate11.end + 1" id="animate1" fill="freeze"/></rect></clipPath><clipPath id="clip-mask-2"><rect x="54" y="99" width="27" height="142"><set attributeName="y" to="-43" begin="0; animate11.end + 1" /><animate attributeName="y" from="-43" to="99" dur="0.526" begin="animate1.end + 0.5" id="animate2" fill="freeze"/></rect></clipPath><clipPath id="clip-mask-3"><rect x="95" y="57" width="59" height="47"><set attributeName="x" to="154" begin="0; animate11.end + 1" /><animate attributeName="x" from="154" to="95" dur="0.219" begin="animate2.end + 0.5" id="animate3" fill="freeze"/></rect></clipPath><clipPath id="clip-mask-4"><rect x="89" y="91" width="129" height="44"><set attributeName="x" to="-40" begin="0; animate11.end + 1" /><animate attributeName="x" from="-40" to="89" dur="0.478" begin="animate3.end + 0.5" id="animate4" fill="freeze"/></rect></clipPath><clipPath id="clip-mask-5"><rect x="120" y="88" width="19" height="147"><set attributeName="y" to="-59" begin="0; animate11.end + 1" /><animate attributeName="y" from="-59" to="88" dur="0.544" begin="animate4.end + 0.5" id="animate5" fill="freeze"/></rect></clipPath><clipPath id="clip-mask-6"><rect x="105" y="206" width="20" height="27"><set attributeName="x" to="125" begin="0; animate11.end + 1" /><animate attributeName="x" from="125" to="105" dur="0.074" begin="animate5.end" id="animate6" fill="freeze"/></rect></clipPath><clipPath id="clip-mask-7"><rect x="82" y="145" width="77" height="44"><set attributeName="x" to="5" begin="0; animate11.end + 1" /><animate attributeName="x" from="5" to="82" dur="0.285" begin="animate6.end + 0.5" id="animate7" fill="freeze"/></rect></clipPath><clipPath id="clip-mask-8"><rect x="152" y="15" width="98" height="239"><set attributeName="y" to="-224" begin="0; animate11.end + 1" /><animate attributeName="y" from="-224" to="15" dur="0.885" begin="animate7.end + 0.5" id="animate8" fill="freeze"/></rect></clipPath><clipPath id="clip-mask-9"><rect x="230" y="192" width="22" height="45"><set attributeName="y" to="237" begin="0; animate11.end + 1" /><animate attributeName="y" from="237" to="192" dur="0.167" begin="animate8.end" id="animate9" fill="freeze"/></rect></clipPath><clipPath id="clip-mask-10"><rect x="149" y="121" width="79" height="71"><set attributeName="x" to="228" begin="0; animate11.end + 1" /><animate attributeName="x" from="228" to="149" dur="0.293" begin="animate9.end + 0.5" id="animate10" fill="freeze"/></rect></clipPath><clipPath id="clip-mask-11"><rect x="194" y="50" width="32" height="30"><set attributeName="y" to="20" begin="0; animate11.end + 1" /><animate attributeName="y" from="20" to="50" dur="0.111" begin="animate10.end + 0.5" id="animate11" fill="freeze"/></rect></clipPath></defs><path d="M 0 0 L 270 270 M 270 0 L 0 270 M 135 0 L 135 270 M 0 135 L 270 135" stroke="#CCCCCC" /><path d="M 60 109 L 60 110 Q 30 146 21 148 Q 17 149 18 146 Q 19 144 21 141 Q 40 119 53 98 Q 68 77 76 54 Q 79 48 76 39 Q 74 33 79 33 Q 84 33 91 38 Q 99 44 100 48 Q 102 51 99 55 Q 93 60 87 72 Q 77 87 69 99 L 61 109" fill="#CCCCCC"/><path d="M 69 99 Q 69 100 70 101 Q 73 104 78 110 Q 81 113 79 120 Q 76 137 75 212 Q 75 224 71 234 Q 68 241 63 237 Q 63 236 63 236 Q 54 223 56 211 Q 65 178 65 147 Q 66 120 61 109" fill="#CCCCCC"/><path d="M 120 92 Q 110 97 100 103 Q 98 104 96 103 Q 95 102 97 100 Q 120 82 132 69 Q 135 65 135 62 Q 135 57 139 57 Q 145 59 149 64 Q 153 70 154 74 Q 154 77 150 77 Q 141 81 127 88" fill="#CCCCCC"/><path d="M 171 115 Q 153 120 136 126 L 124 129 Q 121 130 119 131 Q 107 135 96 130 Q 89 126 98 124 Q 111 121 124 119 L 136 116 Q 144 113 151 111 Q 160 108 170 104 L 181 99 Q 201 91 208 92 Q 215 93 217 96 Q 218 98 216 99 Q 214 102 183 112" fill="#CCCCCC"/><path d="M 136 126 Q 136 139 136 153 L 136 162 Q 136 166 139 199 Q 138 221 130 232 Q 127 235 125 233 L 123 210 Q 125 208 125 169 L 125 159 Q 124 142 124 129 L 124 119 Q 122 98 120 92 L 127 88 Q 135 92 137 95 Q 137 95 136 116" fill="#CCCCCC"/><path d="M 125 233 Q 118 224 107 212 Q 105 210 105 208 Q 105 206 107 207 Q 123 211 123 210" fill="#CCCCCC"/><path d="M 136 153 Q 143 150 149 148 Q 154 145 157 145 Q 159 145 158 147 Q 155 150 151 152 Q 143 157 136 162 L 125 169 Q 114 176 101 187 Q 95 189 93 189 Q 89 187 84 183 Q 82 179 82 178 Q 82 177 125 159" fill="#CCCCCC"/><path d="M 179 151 L 171 115 L 170 104 Q 165 78 164 53 Q 160 26 157 23 Q 152 17 158 15 Q 158 15 161 15 Q 165 15 171 20 Q 172 20 173 21 Q 181 26 177 36 Q 174 54 181 99 L 183 112 Q 189 139 193 152 L 197 164 Q 201 176 206 186 Q 220 213 230 219 L 248 237 Q 250 248 247 251 Q 244 254 241 253 Q 237 253 230 246 Q 201 219 186 173 L 183 163" fill="#CCCCCC"/><path d="M 230 219 Q 234 222 245 199 Q 247 192 250 193 Q 252 193 251 201 Q 247 221 248 237" fill="#CCCCCC"/><path d="M 193 152 Q 206 134 208 125 Q 208 122 210 122 Q 213 121 220 123 Q 226 125 227 128 Q 228 130 225 133 Q 221 138 212 148 Q 205 156 197 164 L 186 173 Q 167 190 155 191 Q 149 192 153 188 Q 173 172 183 163" fill="#CCCCCC"/><path d="M 196 57 L 195 55 Q 194 51 196 50 Q 198 50 202 51 Q 223 57 224 65 Q 226 74 224 77 Q 223 80 220 80 Q 216 80 212 76 Q 207 69 202 64" fill="#CCCCCC"/><path d="M 60 109 L 60 110 Q 30 146 21 148 Q 17 149 18 146 Q 19 144 21 141 Q 40 119 53 98 Q 68 77 76 54 Q 79 48 76 39 Q 74 33 79 33 Q 84 33 91 38 Q 99 44 100 48 Q 102 51 99 55 Q 93 60 87 72 Q 77 87 69 99 L 61 109" fill="#0000ff" clip-path="url(#clip-mask-1)" /><path d="M 69 99 Q 69 100 70 101 Q 73 104 78 110 Q 81 113 79 120 Q 76 137 75 212 Q 75 224 71 234 Q 68 241 63 237 Q 63 236 63 236 Q 54 223 56 211 Q 65 178 65 147 Q 66 120 61 109" fill="#0000ff" clip-path="url(#clip-mask-2)" /><path d="M 120 92 Q 110 97 100 103 Q 98 104 96 103 Q 95 102 97 100 Q 120 82 132 69 Q 135 65 135 62 Q 135 57 139 57 Q 145 59 149 64 Q 153 70 154 74 Q 154 77 150 77 Q 141 81 127 88" fill="#000080" clip-path="url(#clip-mask-3)" /><path d="M 171 115 Q 153 120 136 126 L 124 129 Q 121 130 119 131 Q 107 135 96 130 Q 89 126 98 124 Q 111 121 124 119 L 136 116 Q 144 113 151 111 Q 160 108 170 104 L 181 99 Q 201 91 208 92 Q 215 93 217 96 Q 218 98 216 99 Q 214 102 183 112" fill="#000080" clip-path="url(#clip-mask-4)" /><path d="M 136 126 Q 136 139 136 153 L 136 162 Q 136 166 139 199 Q 138 221 130 232 Q 127 235 125 233 L 123 210 Q 125 208 125 169 L 125 159 Q 124 142 124 129 L 124 119 Q 122 98 120 92 L 127 88 Q 135 92 137 95 Q 137 95 136 116" fill="#000080" clip-path="url(#clip-mask-5)" /><path d="M 125 233 Q 118 224 107 212 Q 105 210 105 208 Q 105 206 107 207 Q 123 211 123 210" fill="#000080" clip-path="url(#clip-mask-6)" /><path d="M 136 153 Q 143 150 149 148 Q 154 145 157 145 Q 159 145 158 147 Q 155 150 151 152 Q 143 157 136 162 L 125 169 Q 114 176 101 187 Q 95 189 93 189 Q 89 187 84 183 Q 82 179 82 178 Q 82 177 125 159" fill="#000080" clip-path="url(#clip-mask-7)" /><path d="M 179 151 L 171 115 L 170 104 Q 165 78 164 53 Q 160 26 157 23 Q 152 17 158 15 Q 158 15 161 15 Q 165 15 171 20 Q 172 20 173 21 Q 181 26 177 36 Q 174 54 181 99 L 183 112 Q 189 139 193 152 L 197 164 Q 201 176 206 186 Q 220 213 230 219 L 248 237 Q 250 248 247 251 Q 244 254 241 253 Q 237 253 230 246 Q 201 219 186 173 L 183 163" fill="#000080" clip-path="url(#clip-mask-8)" /><path d="M 230 219 Q 234 222 245 199 Q 247 192 250 193 Q 252 193 251 201 Q 247 221 248 237" fill="#000080" clip-path="url(#clip-mask-9)" /><path d="M 193 152 Q 206 134 208 125 Q 208 122 210 122 Q 213 121 220 123 Q 226 125 227 128 Q 228 130 225 133 Q 221 138 212 148 Q 205 156 197 164 L 186 173 Q 167 190 155 191 Q 149 192 153 188 Q 173 172 183 163" fill="#000080" clip-path="url(#clip-mask-10)" /><path d="M 196 57 L 195 55 Q 194 51 196 50 Q 198 50 202 51 Q 223 57 224 65 Q 226 74 224 77 Q 223 80 220 80 Q 216 80 212 76 Q 207 69 202 64" fill="#000080" clip-path="url(#clip-mask-11)" /></svg>