<svg xmlns="http://www.w3.org/2000/svg" xmlns:xlink="http://www.w3.org/1999/xlink" width="270" height="270"><defs><clipPath id="clip-mask-1"><rect x="21" y="23" width="88" height="124"><animate attributeName="y" from="-101" to="23" dur="0.459" begin="0; animate13.end + 1" id="animate1" fill="freeze"/></rect></clipPath><clipPath id="clip-mask-2"><rect x="57" y="99" width="27" height="147"><set attributeName="y" to="-48" begin="0; animate13.end + 1" /><animate attributeName="y" from="-48" to="99" dur="0.544" begin="animate1.end + 0.5" id="animate2" fill="freeze"/></rect></clipPath><clipPath id="clip-mask-3"><rect x="149" y="29" width="29" height="102"><set attributeName="y" to="-73" begin="0; animate13.end + 1" /><animate attributeName="y" from="-73" to="29" dur="0.378" begin="animate2.end + 0.5" id="animate3" fill="freeze"/></rect></clipPath><clipPath id="clip-mask-4"><rect x="106" y="77" width="34" height="33"><set attributeName="y" to="44" begin="0; animate13.end + 1" /><animate attributeName="y" from="44" to="77" dur="0.122" begin="animate3.end + 0.5" id="animate4" fill="freeze"/></rect></clipPath><clipPath id="clip-mask-5"><rect x="186" y="50" width="47" height="43"><set attributeName="x" to="233" begin="0; animate13.end + 1" /><animate attributeName="x" from="233" to="186" dur="0.174" begin="animate4.end + 0.5" id="animate5" fill="freeze"/></rect></clipPath><clipPath id="clip-mask-6"><rect x="93" y="135" width="23" height="89"><set attributeName="y" to="46" begin="0; animate13.end + 1" /><animate attributeName="y" from="46" to="135" dur="0.330" begin="animate5.end + 0.5" id="animate6" fill="freeze"/></rect></clipPath><clipPath id="clip-mask-7"><rect x="108" y="118" width="138" height="30"><set attributeName="x" to="-30" begin="0; animate13.end + 1" /><animate attributeName="x" from="-30" to="108" dur="0.511" begin="animate6.end + 0.5" id="animate7" fill="freeze"/></rect></clipPath><clipPath id="clip-mask-8"><rect x="221" y="128" width="27" height="109"><set attributeName="y" to="19" begin="0; animate13.end + 1" /><animate attributeName="y" from="19" to="128" dur="0.404" begin="animate7.end" id="animate8" fill="freeze"/></rect></clipPath><clipPath id="clip-mask-9"><rect x="201" y="202" width="24" height="32"><set attributeName="x" to="225" begin="0; animate13.end + 1" /><animate attributeName="x" from="225" to="201" dur="0.089" begin="animate8.end" id="animate9" fill="freeze"/></rect></clipPath><clipPath id="clip-mask-10"><rect x="131" y="160" width="21" height="49"><set attributeName="y" to="111" begin="0; animate13.end + 1" /><animate attributeName="y" from="111" to="160" dur="0.181" begin="animate9.end + 0.5" id="animate10" fill="freeze"/></rect></clipPath><clipPath id="clip-mask-11"><rect x="145" y="152" width="54" height="18"><set attributeName="x" to="91" begin="0; animate13.end + 1" /><animate attributeName="x" from="91" to="145" dur="0.200" begin="animate10.end + 0.5" id="animate11" fill="freeze"/></rect></clipPath><clipPath id="clip-mask-12"><rect x="176" y="162" width="28" height="29"><set attributeName="y" to="133" begin="0; animate13.end + 1" /><animate attributeName="y" from="133" to="162" dur="0.107" begin="animate11.end" id="animate12" fill="freeze"/></rect></clipPath><clipPath id="clip-mask-13"><rect x="151" y="188" width="42" height="14"><set attributeName="x" to="109" begin="0; animate13.end + 1" /><animate attributeName="x" from="109" to="151" dur="0.156" begin="animate12.end + 0.5" id="animate13" fill="freeze"/></rect></clipPath></defs><path d="M 0 0 L 270 270 M 270 0 L 0 270 M 135 0 L 135 270 M 0 135 L 270 135" stroke="#CCCCCC" /><path d="M 62 109 L 61 110 Q 36 144 25 146 Q 21 147 22 144 Q 23 142 25 139 Q 68 84 83 45 Q 86 38 82 29 Q 79 23 85 23 Q 90 23 98 28 Q 106 34 107 37 Q 109 41 106 44 Q 100 51 93 63 Q 80 84 69 99 L 63 108" fill="#CCCCCC"/><path d="M 69 99 Q 71 101 82 112 Q 84 115 82 122 Q 79 139 78 217 Q 78 229 74 239 Q 71 246 66 242 Q 66 241 66 241 Q 57 228 59 217 Q 69 183 69 152 Q 70 123 65 113 Q 63 110 63 108" fill="#CCCCCC"/><path d="M 156 131 Q 158 88 156 51 Q 156 46 150 38 Q 149 34 150 32 Q 153 29 157 30 Q 163 32 173 37 Q 178 41 177 44 Q 173 56 168 129" fill="#CCCCCC"/><path d="M 107 85 L 106 82 Q 106 78 108 77 Q 110 77 114 78 Q 136 86 138 94 Q 140 102 138 106 Q 136 110 133 109 Q 129 109 126 105 Q 119 98 114 91" fill="#CCCCCC"/><path d="M 209 60 L 208 56 Q 208 50 213 50 Q 219 51 225 57 Q 230 62 231 67 Q 233 71 227 72 Q 215 77 192 91 Q 189 93 187 92 Q 186 90 188 88 Q 200 74 206 65" fill="#CCCCCC"/><path d="M 96 141 L 96 140 Q 94 137 97 136 Q 102 135 108 138 L 114 148 Q 114 157 115 193 Q 116 216 108 222 Q 105 224 103 220 Q 102 219 101 218 Q 93 207 99 197 Q 106 163 97 143 Q 97 142 97 142" fill="#CCCCCC"/><path d="M 108 138 Q 123 136 144 133 Q 150 131 156 131 L 168 129 Q 179 127 194 125 Q 214 123 221 120 Q 225 118 231 120 Q 242 125 246 128 L 221 135 Q 218 132 212 132 Q 124 141 114 148" fill="#CCCCCC"/><path d="M 246 128 Q 248 131 245 135 Q 240 142 244 188 Q 244 212 239 224 Q 235 233 232 235 Q 229 237 225 234 L 225 202 Q 229 166 228 145 Q 227 137 221 135" fill="#CCCCCC"/><path d="M 225 234 Q 220 225 210 217 Q 202 211 202 209 Q 201 206 205 207 Q 211 208 219 209 Q 225 209 225 202" fill="#CCCCCC"/><path d="M 151 204 L 151 206 Q 150 209 146 204 Q 143 201 142 196 Q 138 178 133 166 Q 131 163 132 162 Q 133 160 136 161 Q 142 163 145 164 L 148 170 Q 148 176 151 193 L 152 202" fill="#CCCCCC"/><path d="M 180 167 Q 178 165 172 166 Q 156 169 148 170 L 145 164 Q 168 160 178 154 Q 183 152 188 154 Q 194 159 199 162" fill="#CCCCCC"/><path d="M 176 188 Q 180 168 180 167 L 199 162 Q 204 165 198 172 Q 193 176 188 191" fill="#CCCCCC"/><path d="M 151 193 Q 161 192 174 188 Q 175 188 176 188 L 188 191 Q 193 193 193 195 Q 193 197 190 198 Q 166 199 154 202 Q 153 202 152 202" fill="#CCCCCC"/><path d="M 62 109 L 61 110 Q 36 144 25 146 Q 21 147 22 144 Q 23 142 25 139 Q 68 84 83 45 Q 86 38 82 29 Q 79 23 85 23 Q 90 23 98 28 Q 106 34 107 37 Q 109 41 106 44 Q 100 51 93 63 Q 80 84 69 99 L 63 108" fill="#0000ff" clip-path="url(#clip-mask-1)" /><path d="M 69 99 Q 71 101 82 112 Q 84 115 82 122 Q 79 139 78 217 Q 78 229 74 239 Q 71 246 66 242 Q 66 241 66 241 Q 57 228 59 217 Q 69 183 69 152 Q 70 123 65 113 Q 63 110 63 108" fill="#0000ff" clip-path="url(#clip-mask-2)" /><path d="M 156 131 Q 158 88 156 51 Q 156 46 150 38 Q 149 34 150 32 Q 153 29 157 30 Q 163 32 173 37 Q 178 41 177 44 Q 173 56 168 129" fill="#000080" clip-path="url(#clip-mask-3)" /><path d="M 107 85 L 106 82 Q 106 78 108 77 Q 110 77 114 78 Q 136 86 138 94 Q 140 102 138 106 Q 136 110 133 109 Q 129 109 126 105 Q 119 98 114 91" fill="#000080" clip-path="url(#clip-mask-4)" /><path d="M 209 60 L 208 56 Q 208 50 213 50 Q 219 51 225 57 Q 230 62 231 67 Q 233 71 227 72 Q 215 77 192 91 Q 189 93 187 92 Q 186 90 188 88 Q 200 74 206 65" fill="#000080" clip-path="url(#clip-mask-5)" /><path d="M 96 141 L 96 140 Q 94 137 97 136 Q 102 135 108 138 L 114 148 Q 114 157 115 193 Q 116 216 108 222 Q 105 224 103 220 Q 102 219 101 218 Q 93 207 99 197 Q 106 163 97 143 Q 97 142 97 142" fill="#000080" clip-path="url(#clip-mask-6)" /><path d="M 108 138 Q 123 136 144 133 Q 150 131 156 131 L 168 129 Q 179 127 194 125 Q 214 123 221 120 Q 225 118 231 120 Q 242 125 246 128 L 221 135 Q 218 132 212 132 Q 124 141 114 148" fill="#000080" clip-path="url(#clip-mask-7)" /><path d="M 246 128 Q 248 131 245 135 Q 240 142 244 188 Q 244 212 239 224 Q 235 233 232 235 Q 229 237 225 234 L 225 202 Q 229 166 228 145 Q 227 137 221 135" fill="#000080" clip-path="url(#clip-mask-8)" /><path d="M 225 234 Q 220 225 210 217 Q 202 211 202 209 Q 201 206 205 207 Q 211 208 219 209 Q 225 209 225 202" fill="#000080" clip-path="url(#clip-mask-9)" /><path d="M 151 204 L 151 206 Q 150 209 146 204 Q 143 201 142 196 Q 138 178 133 166 Q 131 163 132 162 Q 133 160 136 161 Q 142 163 145 164 L 148 170 Q 148 176 151 193 L 152 202" fill="#000080" clip-path="url(#clip-mask-10)" /><path d="M 180 167 Q 178 165 172 166 Q 156 169 148 170 L 145 164 Q 168 160 178 154 Q 183 152 188 154 Q 194 159 199 162" fill="#000080" clip-path="url(#clip-mask-11)" /><path d="M 176 188 Q 180 168 180 167 L 199 162 Q 204 165 198 172 Q 193 176 188 191" fill="#000080" clip-path="url(#clip-mask-12)" /><path d="M 151 193 Q 161 192 174 188 Q 175 188 176 188 L 188 191 Q 193 193 193 195 Q 193 197 190 198 Q 166 199 154 202 Q 153 202 152 202" fill="#000080" clip-path="url(#clip-mask-13)" /></svg>