<svg xmlns="http://www.w3.org/2000/svg" xmlns:xlink="http://www.w3.org/1999/xlink" width="270" height="270"><defs><clipPath id="clip-mask-1"><rect x="19" y="36" width="91" height="120"><animate attributeName="y" from="-84" to="36" dur="0.444" begin="0; animate11.end + 1" id="animate1" fill="freeze"/></rect></clipPath><clipPath id="clip-mask-2"><rect x="56" y="113" width="26" height="131"><set attributeName="y" to="-18" begin="0; animate11.end + 1" /><animate attributeName="y" from="-18" to="113" dur="0.485" begin="animate1.end + 0.5" id="animate2" fill="freeze"/></rect></clipPath><clipPath id="clip-mask-3"><rect x="105" y="56" width="118" height="32"><set attributeName="x" to="-13" begin="0; animate11.end + 1" /><animate attributeName="x" from="-13" to="105" dur="0.437" begin="animate2.end + 0.5" id="animate3" fill="freeze"/></rect></clipPath><clipPath id="clip-mask-4"><rect x="149" y="25" width="27" height="86"><set attributeName="y" to="-61" begin="0; animate11.end + 1" /><animate attributeName="y" from="-61" to="25" dur="0.319" begin="animate3.end + 0.5" id="animate4" fill="freeze"/></rect></clipPath><clipPath id="clip-mask-5"><rect x="118" y="107" width="20" height="116"><set attributeName="y" to="-9" begin="0; animate11.end + 1" /><animate attributeName="y" from="-9" to="107" dur="0.430" begin="animate4.end + 0.5" id="animate5" fill="freeze"/></rect></clipPath><clipPath id="clip-mask-6"><rect x="134" y="99" width="75" height="23"><set attributeName="x" to="59" begin="0; animate11.end + 1" /><animate attributeName="x" from="59" to="134" dur="0.278" begin="animate5.end + 0.5" id="animate6" fill="freeze"/></rect></clipPath><clipPath id="clip-mask-7"><rect x="186" y="112" width="26" height="104"><set attributeName="y" to="8" begin="0; animate11.end + 1" /><animate attributeName="y" from="8" to="112" dur="0.385" begin="animate6.end" id="animate7" fill="freeze"/></rect></clipPath><clipPath id="clip-mask-8"><rect x="137" y="136" width="44" height="16"><set attributeName="x" to="93" begin="0; animate11.end + 1" /><animate attributeName="x" from="93" to="137" dur="0.163" begin="animate7.end + 0.5" id="animate8" fill="freeze"/></rect></clipPath><clipPath id="clip-mask-9"><rect x="136" y="162" width="44" height="15"><set attributeName="x" to="92" begin="0; animate11.end + 1" /><animate attributeName="x" from="92" to="136" dur="0.163" begin="animate8.end + 0.5" id="animate9" fill="freeze"/></rect></clipPath><clipPath id="clip-mask-10"><rect x="136" y="187" width="45" height="15"><set attributeName="x" to="91" begin="0; animate11.end + 1" /><animate attributeName="x" from="91" to="136" dur="0.167" begin="animate9.end + 0.5" id="animate10" fill="freeze"/></rect></clipPath><clipPath id="clip-mask-11"><rect x="84" y="207" width="166" height="32"><set attributeName="x" to="-82" begin="0; animate11.end + 1" /><animate attributeName="x" from="-82" to="84" dur="0.615" begin="animate10.end + 0.5" id="animate11" fill="freeze"/></rect></clipPath></defs><path d="M 0 0 L 270 270 M 270 0 L 0 270 M 135 0 L 135 270 M 0 135 L 270 135" stroke="#CCCCCC" /><path d="M 33 154 L 23 155 Q 19 156 20 153 Q 21 150 23 148 Q 66 99 84 58 Q 87 51 84 43 Q 82 37 87 36 Q 92 37 100 42 Q 108 48 109 52 Q 110 56 107 59 Q 101 64 94 77 Q 80 98 67 113 L 60 121" fill="#CCCCCC"/><path d="M 67 113 Q 68 114 79 125 Q 82 128 80 135 Q 78 150 78 214 Q 78 226 74 237 Q 71 244 66 240 Q 65 239 65 239 Q 56 226 59 214 Q 62 199 64 187 Q 69 141 62 125 Q 60 123 60 121" fill="#CCCCCC"/><path d="M 152 82 Q 140 83 131 86 Q 119 88 112 82 Q 105 77 113 76 Q 115 75 153 70 L 167 67 Q 178 65 191 62 Q 208 56 217 62 Q 223 64 223 68 Q 221 71 218 71 Q 181 75 165 79" fill="#CCCCCC"/><path d="M 149 111 Q 151 96 152 82 L 153 70 Q 155 57 155 44 Q 156 39 152 32 Q 150 28 152 27 Q 155 25 158 26 Q 164 28 171 33 Q 176 37 175 40 Q 167 56 167 67 L 165 79 Q 162 94 159 109" fill="#CCCCCC"/><path d="M 125 143 L 125 133 Q 124 122 119 112 Q 118 109 120 108 Q 123 107 125 108 Q 129 110 134 113 L 138 122 Q 137 123 137 145 L 137 151 Q 136 161 136 170 L 136 177 Q 136 185 136 195 L 136 201 Q 136 212 136 222 L 125 223" fill="#CCCCCC"/><path d="M 134 113 Q 141 112 149 111 L 159 109 Q 173 105 183 102 Q 189 99 193 102 Q 206 109 209 112 L 186 114 Q 185 112 180 113 Q 156 116 138 122" fill="#CCCCCC"/><path d="M 187 216 Q 188 117 186 114 L 209 112 Q 212 117 209 121 Q 202 130 201 214" fill="#CCCCCC"/><path d="M 137 145 Q 161 136 170 137 Q 176 138 179 141 Q 181 145 175 146 Q 160 148 140 151 Q 138 152 137 151" fill="#CCCCCC"/><path d="M 136 170 Q 161 162 169 162 Q 175 163 177 167 Q 180 170 174 171 Q 160 173 141 177 Q 138 177 136 177" fill="#CCCCCC"/><path d="M 136 195 Q 163 187 171 188 Q 177 190 180 193 Q 181 196 176 197 Q 161 199 140 201 Q 137 202 136 201" fill="#CCCCCC"/><path d="M 136 222 Q 149 220 162 219 Q 176 217 187 216 L 201 214 Q 208 213 213 212 Q 232 207 246 219 Q 250 223 249 226 Q 247 228 242 228 Q 166 223 106 237 Q 102 239 96 237 Q 91 236 88 232 Q 84 227 89 227 Q 107 225 125 223" fill="#CCCCCC"/><path d="M 33 154 L 23 155 Q 19 156 20 153 Q 21 150 23 148 Q 66 99 84 58 Q 87 51 84 43 Q 82 37 87 36 Q 92 37 100 42 Q 108 48 109 52 Q 110 56 107 59 Q 101 64 94 77 Q 80 98 67 113 L 60 121" fill="#0000ff" clip-path="url(#clip-mask-1)" /><path d="M 67 113 Q 68 114 79 125 Q 82 128 80 135 Q 78 150 78 214 Q 78 226 74 237 Q 71 244 66 240 Q 65 239 65 239 Q 56 226 59 214 Q 62 199 64 187 Q 69 141 62 125 Q 60 123 60 121" fill="#0000ff" clip-path="url(#clip-mask-2)" /><path d="M 152 82 Q 140 83 131 86 Q 119 88 112 82 Q 105 77 113 76 Q 115 75 153 70 L 167 67 Q 178 65 191 62 Q 208 56 217 62 Q 223 64 223 68 Q 221 71 218 71 Q 181 75 165 79" fill="#000080" clip-path="url(#clip-mask-3)" /><path d="M 149 111 Q 151 96 152 82 L 153 70 Q 155 57 155 44 Q 156 39 152 32 Q 150 28 152 27 Q 155 25 158 26 Q 164 28 171 33 Q 176 37 175 40 Q 167 56 167 67 L 165 79 Q 162 94 159 109" fill="#000080" clip-path="url(#clip-mask-4)" /><path d="M 125 143 L 125 133 Q 124 122 119 112 Q 118 109 120 108 Q 123 107 125 108 Q 129 110 134 113 L 138 122 Q 137 123 137 145 L 137 151 Q 136 161 136 170 L 136 177 Q 136 185 136 195 L 136 201 Q 136 212 136 222 L 125 223" fill="#000080" clip-path="url(#clip-mask-5)" /><path d="M 134 113 Q 141 112 149 111 L 159 109 Q 173 105 183 102 Q 189 99 193 102 Q 206 109 209 112 L 186 114 Q 185 112 180 113 Q 156 116 138 122" fill="#000080" clip-path="url(#clip-mask-6)" /><path d="M 187 216 Q 188 117 186 114 L 209 112 Q 212 117 209 121 Q 202 130 201 214" fill="#000080" clip-path="url(#clip-mask-7)" /><path d="M 137 145 Q 161 136 170 137 Q 176 138 179 141 Q 181 145 175 146 Q 160 148 140 151 Q 138 152 137 151" fill="#000080" clip-path="url(#clip-mask-8)" /><path d="M 136 170 Q 161 162 169 162 Q 175 163 177 167 Q 180 170 174 171 Q 160 173 141 177 Q 138 177 136 177" fill="#000080" clip-path="url(#clip-mask-9)" /><path d="M 136 195 Q 163 187 171 188 Q 177 190 180 193 Q 181 196 176 197 Q 161 199 140 201 Q 137 202 136 201" fill="#000080" clip-path="url(#clip-mask-10)" /><path d="M 136 222 Q 149 220 162 219 Q 176 217 187 216 L 201 214 Q 208 213 213 212 Q 232 207 246 219 Q 250 223 249 226 Q 247 228 242 228 Q 166 223 106 237 Q 102 239 96 237 Q 91 236 88 232 Q 84 227 89 227 Q 107 225 125 223" fill="#000080" clip-path="url(#clip-mask-11)" /></svg>