<svg xmlns="http://www.w3.org/2000/svg" xmlns:xlink="http://www.w3.org/1999/xlink" width="270" height="270"><defs><clipPath id="clip-mask-1"><rect x="19" y="27" width="92" height="122"><animate attributeName="y" from="-95" to="27" dur="0.452" begin="0; animate14.end + 1" id="animate1" fill="freeze"/></rect></clipPath><clipPath id="clip-mask-2"><rect x="59" y="100" width="26" height="137"><set attributeName="y" to="-37" begin="0; animate14.end + 1" /><animate attributeName="y" from="-37" to="100" dur="0.507" begin="animate1.end + 0.5" id="animate2" fill="freeze"/></rect></clipPath><clipPath id="clip-mask-3"><rect x="145" y="24" width="38" height="26"><set attributeName="x" to="107" begin="0; animate14.end + 1" /><animate attributeName="x" from="107" to="145" dur="0.141" begin="animate2.end + 0.5" id="animate3" fill="freeze"/></rect></clipPath><clipPath id="clip-mask-4"><rect x="136" y="57" width="81" height="25"><set attributeName="x" to="55" begin="0; animate14.end + 1" /><animate attributeName="x" from="55" to="136" dur="0.300" begin="animate3.end + 0.5" id="animate4" fill="freeze"/></rect></clipPath><clipPath id="clip-mask-5"><rect x="190" y="68" width="31" height="30"><set attributeName="y" to="38" begin="0; animate14.end + 1" /><animate attributeName="y" from="38" to="68" dur="0.111" begin="animate4.end" id="animate5" fill="freeze"/></rect></clipPath><clipPath id="clip-mask-6"><rect x="133" y="96" width="76" height="21"><set attributeName="x" to="57" begin="0; animate14.end + 1" /><animate attributeName="x" from="57" to="133" dur="0.281" begin="animate5.end + 0.5" id="animate6" fill="freeze"/></rect></clipPath><clipPath id="clip-mask-7"><rect x="81" y="66" width="58" height="144"><set attributeName="y" to="-78" begin="0; animate14.end + 1" /><animate attributeName="y" from="-78" to="66" dur="0.533" begin="animate6.end + 0.5" id="animate7" fill="freeze"/></rect></clipPath><clipPath id="clip-mask-8"><rect x="115" y="148" width="17" height="77"><set attributeName="y" to="71" begin="0; animate14.end + 1" /><animate attributeName="y" from="71" to="148" dur="0.285" begin="animate7.end + 0.5" id="animate8" fill="freeze"/></rect></clipPath><clipPath id="clip-mask-9"><rect x="124" y="128" width="123" height="27"><set attributeName="x" to="1" begin="0; animate14.end + 1" /><animate attributeName="x" from="1" to="124" dur="0.456" begin="animate8.end + 0.5" id="animate9" fill="freeze"/></rect></clipPath><clipPath id="clip-mask-10"><rect x="223" y="139" width="27" height="106"><set attributeName="y" to="33" begin="0; animate14.end + 1" /><animate attributeName="y" from="33" to="139" dur="0.393" begin="animate9.end" id="animate10" fill="freeze"/></rect></clipPath><clipPath id="clip-mask-11"><rect x="197" y="208" width="27" height="37"><set attributeName="x" to="224" begin="0; animate14.end + 1" /><animate attributeName="x" from="224" to="197" dur="0.100" begin="animate10.end" id="animate11" fill="freeze"/></rect></clipPath><clipPath id="clip-mask-12"><rect x="134" y="170" width="78" height="20"><set attributeName="x" to="56" begin="0; animate14.end + 1" /><animate attributeName="x" from="56" to="134" dur="0.289" begin="animate11.end + 0.5" id="animate12" fill="freeze"/></rect></clipPath><clipPath id="clip-mask-13"><rect x="148" y="150" width="14" height="65"><set attributeName="y" to="85" begin="0; animate14.end + 1" /><animate attributeName="y" from="85" to="150" dur="0.241" begin="animate12.end + 0.5" id="animate13" fill="freeze"/></rect></clipPath><clipPath id="clip-mask-14"><rect x="176" y="145" width="19" height="80"><set attributeName="y" to="65" begin="0; animate14.end + 1" /><animate attributeName="y" from="65" to="145" dur="0.296" begin="animate13.end + 0.5" id="animate14" fill="freeze"/></rect></clipPath></defs><path d="M 0 0 L 270 270 M 270 0 L 0 270 M 135 0 L 135 270 M 0 135 L 270 135" stroke="#CCCCCC" /><path d="M 32 147 L 23 148 Q 19 149 20 146 Q 21 144 24 142 Q 69 90 86 50 Q 89 43 86 34 Q 84 28 89 27 Q 94 28 101 33 Q 109 39 110 42 Q 111 46 108 49 Q 102 55 94 68 Q 82 86 72 100 L 65 108" fill="#CCCCCC"/><path d="M 72 100 Q 74 101 82 111 Q 85 113 83 120 Q 81 136 80 208 Q 80 220 76 230 Q 73 237 69 233 Q 68 233 68 232 Q 59 222 62 208 Q 71 177 71 128 Q 70 127 71 127 Q 70 125 65 108" fill="#CCCCCC"/><path d="M 147 32 L 146 29 Q 145 26 146 25 Q 148 24 152 24 Q 176 26 180 33 Q 183 41 183 45 Q 182 49 179 49 Q 175 50 171 47 Q 163 41 155 37" fill="#CCCCCC"/><path d="M 193 72 Q 191 70 186 71 Q 140 82 139 82 L 136 74 Q 167 69 189 59 Q 195 57 200 58 Q 213 65 217 68" fill="#CCCCCC"/><path d="M 190 96 Q 192 88 194 77 Q 195 74 193 72 L 217 68 Q 221 72 217 77 Q 210 81 203 98" fill="#CCCCCC"/><path d="M 134 109 Q 159 105 190 96 L 203 98 Q 209 101 209 103 Q 208 105 206 106 Q 160 111 139 116 Q 136 117 133 116 Q 133 116 133 116" fill="#CCCCCC"/><path d="M 121 159 Q 118 166 115 173 Q 114 174 114 175 Q 94 208 84 210 Q 81 210 82 208 Q 83 206 84 205 Q 101 180 109 159 Q 111 152 114 146 Q 127 89 119 72 Q 118 69 121 67 Q 124 66 128 69 Q 133 71 136 74 L 139 82 Q 138 82 138 83 Q 136 89 134 109 L 133 116 Q 129 134 124 148" fill="#CCCCCC"/><path d="M 132 155 Q 132 156 132 156 Q 132 164 132 198 Q 132 219 126 224 Q 124 225 122 222 Q 121 220 120 218 Q 115 208 119 204 Q 127 182 121 159 L 124 148" fill="#CCCCCC"/><path d="M 177 146 Q 167 148 155 150 L 148 151 Q 137 153 132 155 L 124 148 Q 192 135 214 132 Q 229 128 234 132 Q 243 135 247 139 L 223 143 Q 222 142 219 142 Q 186 145 185 145" fill="#CCCCCC"/><path d="M 247 139 Q 250 141 246 146 Q 243 150 243 159 Q 240 207 237 220 Q 235 230 230 239 Q 227 245 224 245 L 224 208 Q 228 188 225 153 Q 225 145 223 143" fill="#CCCCCC"/><path d="M 224 245 Q 222 245 220 242 Q 216 234 200 219 Q 197 216 198 214 Q 198 213 201 214 Q 208 215 215 216 Q 222 217 224 208" fill="#CCCCCC"/><path d="M 170 185 L 162 187 L 152 189 Q 150 189 149 189 Q 142 190 139 188 Q 134 184 138 183 Q 144 181 152 180 L 161 178 Q 170 175 179 174 L 191 171 Q 197 170 201 171 Q 207 172 210 176 Q 212 179 206 180 Q 198 181 190 182 L 179 184" fill="#CCCCCC"/><path d="M 162 187 Q 162 209 159 213 Q 157 215 155 210 Q 152 205 152 189 L 152 180 Q 151 164 148 153 Q 148 152 148 151 L 155 150 Q 160 152 161 153 Q 162 154 162 157 Q 161 161 161 178" fill="#CCCCCC"/><path d="M 179 174 Q 179 172 179 171 Q 180 155 178 149 Q 177 147 177 146 L 185 145 Q 188 147 193 150 Q 195 152 194 155 Q 191 169 191 171 L 190 182 Q 190 183 190 184 Q 187 217 185 222 Q 184 225 182 225 Q 181 225 180 224 Q 176 218 179 184" fill="#CCCCCC"/><path d="M 32 147 L 23 148 Q 19 149 20 146 Q 21 144 24 142 Q 69 90 86 50 Q 89 43 86 34 Q 84 28 89 27 Q 94 28 101 33 Q 109 39 110 42 Q 111 46 108 49 Q 102 55 94 68 Q 82 86 72 100 L 65 108" fill="#0000ff" clip-path="url(#clip-mask-1)" /><path d="M 72 100 Q 74 101 82 111 Q 85 113 83 120 Q 81 136 80 208 Q 80 220 76 230 Q 73 237 69 233 Q 68 233 68 232 Q 59 222 62 208 Q 71 177 71 128 Q 70 127 71 127 Q 70 125 65 108" fill="#0000ff" clip-path="url(#clip-mask-2)" /><path d="M 147 32 L 146 29 Q 145 26 146 25 Q 148 24 152 24 Q 176 26 180 33 Q 183 41 183 45 Q 182 49 179 49 Q 175 50 171 47 Q 163 41 155 37" fill="#000080" clip-path="url(#clip-mask-3)" /><path d="M 193 72 Q 191 70 186 71 Q 140 82 139 82 L 136 74 Q 167 69 189 59 Q 195 57 200 58 Q 213 65 217 68" fill="#000080" clip-path="url(#clip-mask-4)" /><path d="M 190 96 Q 192 88 194 77 Q 195 74 193 72 L 217 68 Q 221 72 217 77 Q 210 81 203 98" fill="#000080" clip-path="url(#clip-mask-5)" /><path d="M 134 109 Q 159 105 190 96 L 203 98 Q 209 101 209 103 Q 208 105 206 106 Q 160 111 139 116 Q 136 117 133 116 Q 133 116 133 116" fill="#000080" clip-path="url(#clip-mask-6)" /><path d="M 121 159 Q 118 166 115 173 Q 114 174 114 175 Q 94 208 84 210 Q 81 210 82 208 Q 83 206 84 205 Q 101 180 109 159 Q 111 152 114 146 Q 127 89 119 72 Q 118 69 121 67 Q 124 66 128 69 Q 133 71 136 74 L 139 82 Q 138 82 138 83 Q 136 89 134 109 L 133 116 Q 129 134 124 148" fill="#000080" clip-path="url(#clip-mask-7)" /><path d="M 132 155 Q 132 156 132 156 Q 132 164 132 198 Q 132 219 126 224 Q 124 225 122 222 Q 121 220 120 218 Q 115 208 119 204 Q 127 182 121 159 L 124 148" fill="#000080" clip-path="url(#clip-mask-8)" /><path d="M 177 146 Q 167 148 155 150 L 148 151 Q 137 153 132 155 L 124 148 Q 192 135 214 132 Q 229 128 234 132 Q 243 135 247 139 L 223 143 Q 222 142 219 142 Q 186 145 185 145" fill="#000080" clip-path="url(#clip-mask-9)" /><path d="M 247 139 Q 250 141 246 146 Q 243 150 243 159 Q 240 207 237 220 Q 235 230 230 239 Q 227 245 224 245 L 224 208 Q 228 188 225 153 Q 225 145 223 143" fill="#000080" clip-path="url(#clip-mask-10)" /><path d="M 224 245 Q 222 245 220 242 Q 216 234 200 219 Q 197 216 198 214 Q 198 213 201 214 Q 208 215 215 216 Q 222 217 224 208" fill="#000080" clip-path="url(#clip-mask-11)" /><path d="M 170 185 L 162 187 L 152 189 Q 150 189 149 189 Q 142 190 139 188 Q 134 184 138 183 Q 144 181 152 180 L 161 178 Q 170 175 179 174 L 191 171 Q 197 170 201 171 Q 207 172 210 176 Q 212 179 206 180 Q 198 181 190 182 L 179 184" fill="#000080" clip-path="url(#clip-mask-12)" /><path d="M 162 187 Q 162 209 159 213 Q 157 215 155 210 Q 152 205 152 189 L 152 180 Q 151 164 148 153 Q 148 152 148 151 L 155 150 Q 160 152 161 153 Q 162 154 162 157 Q 161 161 161 178" fill="#000080" clip-path="url(#clip-mask-13)" /><path d="M 179 174 Q 179 172 179 171 Q 180 155 178 149 Q 177 147 177 146 L 185 145 Q 188 147 193 150 Q 195 152 194 155 Q 191 169 191 171 L 190 182 Q 190 183 190 184 Q 187 217 185 222 Q 184 225 182 225 Q 181 225 180 224 Q 176 218 179 184" fill="#000080" clip-path="url(#clip-mask-14)" /></svg>