<svg xmlns="http://www.w3.org/2000/svg" xmlns:xlink="http://www.w3.org/1999/xlink" width="270" height="270"><defs><clipPath id="clip-mask-1"><rect x="12" y="24" width="86" height="125"><animate attributeName="y" from="-101" to="24" dur="0.463" begin="0; animate14.end + 1" id="animate1" fill="freeze"/></rect></clipPath><clipPath id="clip-mask-2"><rect x="45" y="102" width="26" height="142"><set attributeName="y" to="-40" begin="0; animate14.end + 1" /><animate attributeName="y" from="-40" to="102" dur="0.526" begin="animate1.end + 0.5" id="animate2" fill="freeze"/></rect></clipPath><clipPath id="clip-mask-3"><rect x="78" y="12" width="84" height="119"><set attributeName="y" to="-107" begin="0; animate14.end + 1" /><animate attributeName="y" from="-107" to="12" dur="0.441" begin="animate2.end + 0.5" id="animate3" fill="freeze"/></rect></clipPath><clipPath id="clip-mask-4"><rect x="151" y="39" width="106" height="74"><set attributeName="x" to="45" begin="0; animate14.end + 1" /><animate attributeName="x" from="45" to="151" dur="0.393" begin="animate3.end + 0.5" id="animate4" fill="freeze"/></rect></clipPath><clipPath id="clip-mask-5"><rect x="117" y="98" width="66" height="20"><set attributeName="x" to="51" begin="0; animate14.end + 1" /><animate attributeName="x" from="51" to="117" dur="0.244" begin="animate4.end + 0.5" id="animate5" fill="freeze"/></rect></clipPath><clipPath id="clip-mask-6"><rect x="84" y="137" width="25" height="94"><set attributeName="y" to="43" begin="0; animate14.end + 1" /><animate attributeName="y" from="43" to="137" dur="0.348" begin="animate5.end + 0.5" id="animate6" fill="freeze"/></rect></clipPath><clipPath id="clip-mask-7"><rect x="107" y="133" width="39" height="15"><set attributeName="x" to="68" begin="0; animate14.end + 1" /><animate attributeName="x" from="68" to="107" dur="0.144" begin="animate6.end + 0.5" id="animate7" fill="freeze"/></rect></clipPath><clipPath id="clip-mask-8"><rect x="129" y="141" width="19" height="100"><set attributeName="y" to="41" begin="0; animate14.end + 1" /><animate attributeName="y" from="41" to="141" dur="0.370" begin="animate7.end" id="animate8" fill="freeze"/></rect></clipPath><clipPath id="clip-mask-9"><rect x="112" y="219" width="19" height="17"><set attributeName="x" to="131" begin="0; animate14.end + 1" /><animate attributeName="x" from="131" to="112" dur="0.070" begin="animate8.end" id="animate9" fill="freeze"/></rect></clipPath><clipPath id="clip-mask-10"><rect x="106" y="164" width="24" height="9"><set attributeName="x" to="82" begin="0; animate14.end + 1" /><animate attributeName="x" from="82" to="106" dur="0.089" begin="animate9.end + 0.5" id="animate10" fill="freeze"/></rect></clipPath><clipPath id="clip-mask-11"><rect x="104" y="188" width="26" height="11"><set attributeName="x" to="78" begin="0; animate14.end + 1" /><animate attributeName="x" from="78" to="104" dur="0.096" begin="animate10.end + 0.5" id="animate11" fill="freeze"/></rect></clipPath><clipPath id="clip-mask-12"><rect x="160" y="146" width="17" height="60"><set attributeName="y" to="86" begin="0; animate14.end + 1" /><animate attributeName="y" from="86" to="146" dur="0.222" begin="animate11.end + 0.5" id="animate12" fill="freeze"/></rect></clipPath><clipPath id="clip-mask-13"><rect x="181" y="118" width="29" height="139"><set attributeName="y" to="-21" begin="0; animate14.end + 1" /><animate attributeName="y" from="-21" to="118" dur="0.515" begin="animate12.end + 0.5" id="animate13" fill="freeze"/></rect></clipPath><clipPath id="clip-mask-14"><rect x="167" y="226" width="23" height="24"><set attributeName="x" to="190" begin="0; animate14.end + 1" /><animate attributeName="x" from="190" to="167" dur="0.085" begin="animate13.end" id="animate14" fill="freeze"/></rect></clipPath></defs><path d="M 0 0 L 270 270 M 270 0 L 0 270 M 135 0 L 135 270 M 0 135 L 270 135" stroke="#CCCCCC" /><path d="M 25 146 L 16 148 Q 12 149 13 146 Q 14 144 16 141 Q 58 88 73 47 Q 76 39 72 31 Q 69 25 74 25 Q 80 24 87 29 Q 95 35 96 39 Q 98 43 95 45 Q 89 52 82 65 Q 70 86 58 102 L 51 112" fill="#CCCCCC"/><path d="M 58 102 Q 59 102 69 113 Q 71 116 69 123 Q 66 139 66 214 Q 66 227 62 237 Q 59 244 55 240 Q 54 239 54 239 Q 45 226 48 214 Q 56 183 56 153 Q 56 150 56 147 Q 56 122 51 112" fill="#CCCCCC"/><path d="M 140 68 L 126 90 Q 98 126 81 131 Q 78 131 80 129 Q 104 103 113 89 Q 113 88 114 88 Q 145 39 138 18 Q 137 15 140 14 Q 148 12 157 18 Q 161 21 162 23 Q 162 26 160 27 Q 157 30 154 39 L 151 45" fill="#CCCCCC"/><path d="M 154 39 Q 159 43 168 53 Q 182 67 197 78 Q 209 87 226 94 Q 240 101 253 106 Q 257 108 256 110 Q 255 111 251 111 Q 230 113 210 110 Q 197 106 151 45" fill="#CCCCCC"/><path d="M 136 106 L 147 103 Q 168 98 173 99 Q 180 101 182 104 Q 183 106 181 108 Q 180 109 173 110 Q 160 112 147 115 Q 132 118 124 112 Q 117 108 126 106" fill="#CCCCCC"/><path d="M 104 200 L 104 200 Q 103 225 95 229 Q 92 231 91 227 Q 84 218 91 205 Q 105 167 95 141 Q 93 138 96 138 Q 100 137 106 141 Q 107 141 107 142 L 109 148 Q 109 148 109 149 Q 108 153 107 166 L 106 173 Q 105 181 105 192 L 104 199" fill="#CCCCCC"/><path d="M 107 142 Q 119 139 128 134 Q 131 133 135 134 Q 142 137 146 141 L 131 144 Q 130 142 126 143 Q 109 147 109 148" fill="#CCCCCC"/><path d="M 146 141 Q 148 143 146 146 Q 140 156 146 219 Q 146 230 138 239 Q 137 241 135 241 Q 132 240 129 236 L 131 221 Q 132 219 133 213 Q 134 190 133 150 Q 133 145 131 144" fill="#CCCCCC"/><path d="M 129 236 Q 124 230 113 221 Q 112 219 116 220 Q 130 222 131 221" fill="#CCCCCC"/><path d="M 107 166 Q 116 164 120 164 Q 126 165 128 168 Q 130 171 125 172 Q 118 172 108 173 Q 107 173 106 173" fill="#CCCCCC"/><path d="M 105 192 Q 109 188 120 189 Q 126 190 128 193 Q 130 196 125 196 Q 116 197 104 199" fill="#CCCCCC"/><path d="M 160 149 L 162 147 Q 163 146 166 147 Q 169 149 173 151 Q 177 154 176 158 Q 174 167 174 185 Q 174 199 170 204 Q 168 206 166 204 Q 161 197 162 191 Q 165 162 160 152" fill="#CCCCCC"/><path d="M 190 133 L 185 126 Q 181 122 185 120 Q 190 118 198 122 Q 210 127 207 134 Q 200 160 207 222 Q 208 239 204 249 Q 201 257 197 257 Q 194 257 190 250 L 190 229 Q 192 228 192 224 Q 191 145 191 140" fill="#CCCCCC"/><path d="M 190 250 Q 187 244 173 233 Q 169 230 168 228 Q 167 226 175 228 Q 189 230 190 229" fill="#CCCCCC"/><path d="M 25 146 L 16 148 Q 12 149 13 146 Q 14 144 16 141 Q 58 88 73 47 Q 76 39 72 31 Q 69 25 74 25 Q 80 24 87 29 Q 95 35 96 39 Q 98 43 95 45 Q 89 52 82 65 Q 70 86 58 102 L 51 112" fill="#0000ff" clip-path="url(#clip-mask-1)" /><path d="M 58 102 Q 59 102 69 113 Q 71 116 69 123 Q 66 139 66 214 Q 66 227 62 237 Q 59 244 55 240 Q 54 239 54 239 Q 45 226 48 214 Q 56 183 56 153 Q 56 150 56 147 Q 56 122 51 112" fill="#0000ff" clip-path="url(#clip-mask-2)" /><path d="M 140 68 L 126 90 Q 98 126 81 131 Q 78 131 80 129 Q 104 103 113 89 Q 113 88 114 88 Q 145 39 138 18 Q 137 15 140 14 Q 148 12 157 18 Q 161 21 162 23 Q 162 26 160 27 Q 157 30 154 39 L 151 45" fill="#000080" clip-path="url(#clip-mask-3)" /><path d="M 154 39 Q 159 43 168 53 Q 182 67 197 78 Q 209 87 226 94 Q 240 101 253 106 Q 257 108 256 110 Q 255 111 251 111 Q 230 113 210 110 Q 197 106 151 45" fill="#000080" clip-path="url(#clip-mask-4)" /><path d="M 136 106 L 147 103 Q 168 98 173 99 Q 180 101 182 104 Q 183 106 181 108 Q 180 109 173 110 Q 160 112 147 115 Q 132 118 124 112 Q 117 108 126 106" fill="#000080" clip-path="url(#clip-mask-5)" /><path d="M 104 200 L 104 200 Q 103 225 95 229 Q 92 231 91 227 Q 84 218 91 205 Q 105 167 95 141 Q 93 138 96 138 Q 100 137 106 141 Q 107 141 107 142 L 109 148 Q 109 148 109 149 Q 108 153 107 166 L 106 173 Q 105 181 105 192 L 104 199" fill="#000080" clip-path="url(#clip-mask-6)" /><path d="M 107 142 Q 119 139 128 134 Q 131 133 135 134 Q 142 137 146 141 L 131 144 Q 130 142 126 143 Q 109 147 109 148" fill="#000080" clip-path="url(#clip-mask-7)" /><path d="M 146 141 Q 148 143 146 146 Q 140 156 146 219 Q 146 230 138 239 Q 137 241 135 241 Q 132 240 129 236 L 131 221 Q 132 219 133 213 Q 134 190 133 150 Q 133 145 131 144" fill="#000080" clip-path="url(#clip-mask-8)" /><path d="M 129 236 Q 124 230 113 221 Q 112 219 116 220 Q 130 222 131 221" fill="#000080" clip-path="url(#clip-mask-9)" /><path d="M 107 166 Q 116 164 120 164 Q 126 165 128 168 Q 130 171 125 172 Q 118 172 108 173 Q 107 173 106 173" fill="#000080" clip-path="url(#clip-mask-10)" /><path d="M 105 192 Q 109 188 120 189 Q 126 190 128 193 Q 130 196 125 196 Q 116 197 104 199" fill="#000080" clip-path="url(#clip-mask-11)" /><path d="M 160 149 L 162 147 Q 163 146 166 147 Q 169 149 173 151 Q 177 154 176 158 Q 174 167 174 185 Q 174 199 170 204 Q 168 206 166 204 Q 161 197 162 191 Q 165 162 160 152" fill="#000080" clip-path="url(#clip-mask-12)" /><path d="M 190 133 L 185 126 Q 181 122 185 120 Q 190 118 198 122 Q 210 127 207 134 Q 200 160 207 222 Q 208 239 204 249 Q 201 257 197 257 Q 194 257 190 250 L 190 229 Q 192 228 192 224 Q 191 145 191 140" fill="#000080" clip-path="url(#clip-mask-13)" /><path d="M 190 250 Q 187 244 173 233 Q 169 230 168 228 Q 167 226 175 228 Q 189 230 190 229" fill="#000080" clip-path="url(#clip-mask-14)" /></svg>