<svg xmlns="http://www.w3.org/2000/svg" xmlns:xlink="http://www.w3.org/1999/xlink" width="270" height="270"><defs><clipPath id="clip-mask-1"><rect x="17" y="28" width="86" height="118"><animate attributeName="y" from="-90" to="28" dur="0.437" begin="0; animate18.end + 1" id="animate1" fill="freeze"/></rect></clipPath><clipPath id="clip-mask-2"><rect x="53" y="98" width="26" height="138"><set attributeName="y" to="-40" begin="0; animate18.end + 1" /><animate attributeName="y" from="-40" to="98" dur="0.511" begin="animate1.end + 0.5" id="animate2" fill="freeze"/></rect></clipPath><clipPath id="clip-mask-3"><rect x="122" y="15" width="74" height="39"><set attributeName="x" to="196" begin="0; animate18.end + 1" /><animate attributeName="x" from="196" to="122" dur="0.274" begin="animate2.end + 0.5" id="animate3" fill="freeze"/></rect></clipPath><clipPath id="clip-mask-4"><rect x="108" y="61" width="22" height="24"><set attributeName="y" to="37" begin="0; animate18.end + 1" /><animate attributeName="y" from="37" to="61" dur="0.089" begin="animate3.end + 0.5" id="animate4" fill="freeze"/></rect></clipPath><clipPath id="clip-mask-5"><rect x="139" y="53" width="21" height="25"><set attributeName="y" to="28" begin="0; animate18.end + 1" /><animate attributeName="y" from="28" to="53" dur="0.093" begin="animate4.end + 0.5" id="animate5" fill="freeze"/></rect></clipPath><clipPath id="clip-mask-6"><rect x="172" y="44" width="44" height="34"><set attributeName="y" to="10" begin="0; animate18.end + 1" /><animate attributeName="y" from="10" to="44" dur="0.126" begin="animate5.end + 0.5" id="animate6" fill="freeze"/></rect></clipPath><clipPath id="clip-mask-7"><rect x="78" y="88" width="52" height="117"><set attributeName="y" to="-29" begin="0; animate18.end + 1" /><animate attributeName="y" from="-29" to="88" dur="0.433" begin="animate6.end + 0.5" id="animate7" fill="freeze"/></rect></clipPath><clipPath id="clip-mask-8"><rect x="129" y="84" width="65" height="21"><set attributeName="x" to="64" begin="0; animate18.end + 1" /><animate attributeName="x" from="64" to="129" dur="0.241" begin="animate7.end + 0.5" id="animate8" fill="freeze"/></rect></clipPath><clipPath id="clip-mask-9"><rect x="165" y="96" width="32" height="26"><set attributeName="y" to="70" begin="0; animate18.end + 1" /><animate attributeName="y" from="70" to="96" dur="0.096" begin="animate8.end" id="animate9" fill="freeze"/></rect></clipPath><clipPath id="clip-mask-10"><rect x="123" y="115" width="83" height="22"><set attributeName="x" to="40" begin="0; animate18.end + 1" /><animate attributeName="x" from="40" to="123" dur="0.307" begin="animate9.end + 0.5" id="animate10" fill="freeze"/></rect></clipPath><clipPath id="clip-mask-11"><rect x="176" y="126" width="31" height="27"><set attributeName="y" to="99" begin="0; animate18.end + 1" /><animate attributeName="y" from="99" to="126" dur="0.100" begin="animate10.end" id="animate11" fill="freeze"/></rect></clipPath><clipPath id="clip-mask-12"><rect x="113" y="138" width="139" height="32"><set attributeName="x" to="-26" begin="0; animate18.end + 1" /><animate attributeName="x" from="-26" to="113" dur="0.515" begin="animate11.end + 0.5" id="animate12" fill="freeze"/></rect></clipPath><clipPath id="clip-mask-13"><rect x="217" y="156" width="32" height="93"><set attributeName="y" to="63" begin="0; animate18.end + 1" /><animate attributeName="y" from="63" to="156" dur="0.344" begin="animate12.end" id="animate13" fill="freeze"/></rect></clipPath><clipPath id="clip-mask-14"><rect x="189" y="217" width="29" height="37"><set attributeName="x" to="218" begin="0; animate18.end + 1" /><animate attributeName="x" from="218" to="189" dur="0.107" begin="animate13.end" id="animate14" fill="freeze"/></rect></clipPath><clipPath id="clip-mask-15"><rect x="103" y="187" width="20" height="35"><set attributeName="y" to="152" begin="0; animate18.end + 1" /><animate attributeName="y" from="152" to="187" dur="0.130" begin="animate14.end + 0.5" id="animate15" fill="freeze"/></rect></clipPath><clipPath id="clip-mask-16"><rect x="129" y="179" width="19" height="29"><set attributeName="y" to="150" begin="0; animate18.end + 1" /><animate attributeName="y" from="150" to="179" dur="0.107" begin="animate15.end + 0.5" id="animate16" fill="freeze"/></rect></clipPath><clipPath id="clip-mask-17"><rect x="153" y="174" width="19" height="26"><set attributeName="y" to="148" begin="0; animate18.end + 1" /><animate attributeName="y" from="148" to="174" dur="0.096" begin="animate16.end + 0.5" id="animate17" fill="freeze"/></rect></clipPath><clipPath id="clip-mask-18"><rect x="179" y="168" width="29" height="31"><set attributeName="x" to="150" begin="0; animate18.end + 1" /><animate attributeName="x" from="150" to="179" dur="0.107" begin="animate17.end + 0.5" id="animate18" fill="freeze"/></rect></clipPath></defs><path d="M 0 0 L 270 270 M 270 0 L 0 270 M 135 0 L 135 270 M 0 135 L 270 135" stroke="#CCCCCC" /><path d="M 57 110 L 56 111 Q 32 143 21 145 Q 17 146 18 143 Q 19 141 21 138 Q 61 90 77 50 Q 80 43 77 35 Q 75 29 80 28 Q 85 28 92 33 Q 100 39 102 43 Q 103 47 100 50 Q 94 55 88 68 Q 77 85 67 98 L 59 108" fill="#CCCCCC"/><path d="M 67 98 Q 67 98 76 108 Q 79 111 77 118 Q 74 134 74 207 Q 74 219 70 229 Q 67 236 62 232 Q 62 231 62 231 Q 53 218 55 206 Q 59 191 62 177 Q 68 125 59 108" fill="#CCCCCC"/><path d="M 169 23 L 169 19 Q 169 17 171 16 Q 174 15 178 17 Q 188 21 193 25 Q 196 28 195 30 Q 194 32 190 32 Q 173 36 168 40 Q 134 54 123 54 Q 122 53 123 51 Q 152 37 166 25" fill="#CCCCCC"/><path d="M 108 68 L 108 65 Q 108 62 109 62 Q 116 61 126 68 Q 129 71 130 76 Q 130 80 129 82 Q 126 85 123 84 Q 117 81 111 71" fill="#CCCCCC"/><path d="M 139 58 L 140 56 Q 141 53 143 54 Q 154 57 159 65 Q 160 71 159 74 Q 157 78 154 77 Q 148 76 141 61" fill="#CCCCCC"/><path d="M 198 52 L 198 48 Q 199 44 202 44 Q 208 46 211 51 Q 215 56 215 60 Q 216 63 212 63 Q 200 67 177 78 Q 175 78 173 78 Q 172 76 174 74 Q 188 63 195 55" fill="#CCCCCC"/><path d="M 110 170 L 107 176 Q 107 177 106 178 Q 89 203 80 205 Q 78 205 79 203 Q 79 202 80 201 Q 95 180 103 163 Q 104 160 105 156 Q 121 104 113 93 Q 111 90 114 89 Q 117 88 121 91 Q 127 94 130 98 L 130 98 L 129 105 Q 128 108 128 110 Q 127 115 126 121 Q 125 124 124 128 L 123 136 Q 119 149 115 159 L 113 164" fill="#CCCCCC"/><path d="M 173 97 Q 171 96 167 97 Q 132 105 129 105 L 130 98 Q 147 94 159 90 Q 174 84 179 86 Q 190 92 194 96" fill="#CCCCCC"/><path d="M 165 122 Q 175 101 173 97 L 194 96 Q 197 100 193 104 Q 186 106 180 118" fill="#CCCCCC"/><path d="M 124 128 Q 145 125 165 122 L 180 118 Q 188 115 193 118 Q 205 125 206 129 L 186 126 Q 181 123 133 136 Q 129 137 123 136" fill="#CCCCCC"/><path d="M 176 153 Q 183 139 187 130 Q 187 128 186 126 L 206 129 Q 207 131 205 133 Q 199 138 191 150" fill="#CCCCCC"/><path d="M 115 159 Q 116 158 116 158 Q 143 158 176 153 L 191 150 Q 216 146 224 142 Q 229 138 234 141 Q 248 147 251 150 Q 252 153 249 156 L 224 157 Q 220 149 127 168 Q 122 170 116 166 Q 114 164 113 164" fill="#CCCCCC"/><path d="M 249 156 Q 244 163 242 178 Q 239 218 232 231 Q 227 242 218 249 L 217 218 Q 224 204 226 173 Q 227 161 224 157" fill="#CCCCCC"/><path d="M 218 249 Q 213 254 207 248 Q 203 238 192 224 Q 189 217 195 220 Q 200 223 206 225 Q 212 226 217 218" fill="#CCCCCC"/><path d="M 103 191 L 103 190 Q 105 187 106 187 Q 107 187 110 190 Q 123 205 122 212 Q 120 218 118 220 Q 115 222 113 221 Q 111 219 105 198" fill="#CCCCCC"/><path d="M 129 183 L 130 182 Q 131 179 132 180 Q 136 182 142 190 Q 146 194 147 198 Q 148 203 146 205 Q 144 208 141 207 Q 136 205 129 185" fill="#CCCCCC"/><path d="M 153 178 L 154 177 Q 156 174 157 175 Q 170 182 172 189 Q 172 194 171 197 Q 168 200 166 199 Q 160 197 154 180" fill="#CCCCCC"/><path d="M 179 175 L 179 173 Q 179 170 180 169 Q 184 168 200 177 Q 207 182 207 186 Q 208 193 207 197 Q 205 199 203 199 Q 199 199 197 196 Q 191 187 185 181" fill="#CCCCCC"/><path d="M 57 110 L 56 111 Q 32 143 21 145 Q 17 146 18 143 Q 19 141 21 138 Q 61 90 77 50 Q 80 43 77 35 Q 75 29 80 28 Q 85 28 92 33 Q 100 39 102 43 Q 103 47 100 50 Q 94 55 88 68 Q 77 85 67 98 L 59 108" fill="#0000ff" clip-path="url(#clip-mask-1)" /><path d="M 67 98 Q 67 98 76 108 Q 79 111 77 118 Q 74 134 74 207 Q 74 219 70 229 Q 67 236 62 232 Q 62 231 62 231 Q 53 218 55 206 Q 59 191 62 177 Q 68 125 59 108" fill="#0000ff" clip-path="url(#clip-mask-2)" /><path d="M 169 23 L 169 19 Q 169 17 171 16 Q 174 15 178 17 Q 188 21 193 25 Q 196 28 195 30 Q 194 32 190 32 Q 173 36 168 40 Q 134 54 123 54 Q 122 53 123 51 Q 152 37 166 25" fill="#000080" clip-path="url(#clip-mask-3)" /><path d="M 108 68 L 108 65 Q 108 62 109 62 Q 116 61 126 68 Q 129 71 130 76 Q 130 80 129 82 Q 126 85 123 84 Q 117 81 111 71" fill="#000080" clip-path="url(#clip-mask-4)" /><path d="M 139 58 L 140 56 Q 141 53 143 54 Q 154 57 159 65 Q 160 71 159 74 Q 157 78 154 77 Q 148 76 141 61" fill="#000080" clip-path="url(#clip-mask-5)" /><path d="M 198 52 L 198 48 Q 199 44 202 44 Q 208 46 211 51 Q 215 56 215 60 Q 216 63 212 63 Q 200 67 177 78 Q 175 78 173 78 Q 172 76 174 74 Q 188 63 195 55" fill="#000080" clip-path="url(#clip-mask-6)" /><path d="M 110 170 L 107 176 Q 107 177 106 178 Q 89 203 80 205 Q 78 205 79 203 Q 79 202 80 201 Q 95 180 103 163 Q 104 160 105 156 Q 121 104 113 93 Q 111 90 114 89 Q 117 88 121 91 Q 127 94 130 98 L 130 98 L 129 105 Q 128 108 128 110 Q 127 115 126 121 Q 125 124 124 128 L 123 136 Q 119 149 115 159 L 113 164" fill="#000080" clip-path="url(#clip-mask-7)" /><path d="M 173 97 Q 171 96 167 97 Q 132 105 129 105 L 130 98 Q 147 94 159 90 Q 174 84 179 86 Q 190 92 194 96" fill="#000080" clip-path="url(#clip-mask-8)" /><path d="M 165 122 Q 175 101 173 97 L 194 96 Q 197 100 193 104 Q 186 106 180 118" fill="#000080" clip-path="url(#clip-mask-9)" /><path d="M 124 128 Q 145 125 165 122 L 180 118 Q 188 115 193 118 Q 205 125 206 129 L 186 126 Q 181 123 133 136 Q 129 137 123 136" fill="#000080" clip-path="url(#clip-mask-10)" /><path d="M 176 153 Q 183 139 187 130 Q 187 128 186 126 L 206 129 Q 207 131 205 133 Q 199 138 191 150" fill="#000080" clip-path="url(#clip-mask-11)" /><path d="M 115 159 Q 116 158 116 158 Q 143 158 176 153 L 191 150 Q 216 146 224 142 Q 229 138 234 141 Q 248 147 251 150 Q 252 153 249 156 L 224 157 Q 220 149 127 168 Q 122 170 116 166 Q 114 164 113 164" fill="#000080" clip-path="url(#clip-mask-12)" /><path d="M 249 156 Q 244 163 242 178 Q 239 218 232 231 Q 227 242 218 249 L 217 218 Q 224 204 226 173 Q 227 161 224 157" fill="#000080" clip-path="url(#clip-mask-13)" /><path d="M 218 249 Q 213 254 207 248 Q 203 238 192 224 Q 189 217 195 220 Q 200 223 206 225 Q 212 226 217 218" fill="#000080" clip-path="url(#clip-mask-14)" /><path d="M 103 191 L 103 190 Q 105 187 106 187 Q 107 187 110 190 Q 123 205 122 212 Q 120 218 118 220 Q 115 222 113 221 Q 111 219 105 198" fill="#000080" clip-path="url(#clip-mask-15)" /><path d="M 129 183 L 130 182 Q 131 179 132 180 Q 136 182 142 190 Q 146 194 147 198 Q 148 203 146 205 Q 144 208 141 207 Q 136 205 129 185" fill="#000080" clip-path="url(#clip-mask-16)" /><path d="M 153 178 L 154 177 Q 156 174 157 175 Q 170 182 172 189 Q 172 194 171 197 Q 168 200 166 199 Q 160 197 154 180" fill="#000080" clip-path="url(#clip-mask-17)" /><path d="M 179 175 L 179 173 Q 179 170 180 169 Q 184 168 200 177 Q 207 182 207 186 Q 208 193 207 197 Q 205 199 203 199 Q 199 199 197 196 Q 191 187 185 181" fill="#000080" clip-path="url(#clip-mask-18)" /></svg>