<svg xmlns="http://www.w3.org/2000/svg" xmlns:xlink="http://www.w3.org/1999/xlink" width="270" height="270"><defs><clipPath id="clip-mask-1"><rect x="12" y="22" width="87" height="123"><animate attributeName="y" from="-101" to="22" dur="0.456" begin="0; animate14.end + 1" id="animate1" fill="freeze"/></rect></clipPath><clipPath id="clip-mask-2"><rect x="52" y="90" width="28" height="149"><set attributeName="y" to="-59" begin="0; animate14.end + 1" /><animate attributeName="y" from="-59" to="90" dur="0.552" begin="animate1.end + 0.5" id="animate2" fill="freeze"/></rect></clipPath><clipPath id="clip-mask-3"><rect x="115" y="30" width="84" height="27"><set attributeName="x" to="31" begin="0; animate14.end + 1" /><animate attributeName="x" from="31" to="115" dur="0.311" begin="animate2.end + 0.5" id="animate3" fill="freeze"/></rect></clipPath><clipPath id="clip-mask-4"><rect x="101" y="74" width="25" height="71"><set attributeName="y" to="3" begin="0; animate14.end + 1" /><animate attributeName="y" from="3" to="74" dur="0.263" begin="animate3.end + 0.5" id="animate4" fill="freeze"/></rect></clipPath><clipPath id="clip-mask-5"><rect x="116" y="56" width="106" height="30"><set attributeName="x" to="10" begin="0; animate14.end + 1" /><animate attributeName="x" from="10" to="116" dur="0.393" begin="animate4.end + 0.5" id="animate5" fill="freeze"/></rect></clipPath><clipPath id="clip-mask-6"><rect x="190" y="68" width="36" height="64"><set attributeName="y" to="4" begin="0; animate14.end + 1" /><animate attributeName="y" from="4" to="68" dur="0.237" begin="animate5.end" id="animate6" fill="freeze"/></rect></clipPath><clipPath id="clip-mask-7"><rect x="127" y="86" width="61" height="19"><set attributeName="x" to="66" begin="0; animate14.end + 1" /><animate attributeName="x" from="66" to="127" dur="0.226" begin="animate6.end + 0.5" id="animate7" fill="freeze"/></rect></clipPath><clipPath id="clip-mask-8"><rect x="129" y="109" width="57" height="16"><set attributeName="x" to="72" begin="0; animate14.end + 1" /><animate attributeName="x" from="72" to="129" dur="0.211" begin="animate7.end + 0.5" id="animate8" fill="freeze"/></rect></clipPath><clipPath id="clip-mask-9"><rect x="142" y="11" width="26" height="140"><set attributeName="y" to="-129" begin="0; animate14.end + 1" /><animate attributeName="y" from="-129" to="11" dur="0.519" begin="animate8.end + 0.5" id="animate9" fill="freeze"/></rect></clipPath><clipPath id="clip-mask-10"><rect x="191" y="13" width="33" height="26"><set attributeName="x" to="158" begin="0; animate14.end + 1" /><animate attributeName="x" from="158" to="191" dur="0.122" begin="animate9.end + 0.5" id="animate10" fill="freeze"/></rect></clipPath><clipPath id="clip-mask-11"><rect x="81" y="141" width="176" height="36"><set attributeName="x" to="-95" begin="0; animate14.end + 1" /><animate attributeName="x" from="-95" to="81" dur="0.652" begin="animate10.end + 0.5" id="animate11" fill="freeze"/></rect></clipPath><clipPath id="clip-mask-12"><rect x="175" y="130" width="28" height="128"><set attributeName="y" to="2" begin="0; animate14.end + 1" /><animate attributeName="y" from="2" to="130" dur="0.474" begin="animate11.end + 0.5" id="animate12" fill="freeze"/></rect></clipPath><clipPath id="clip-mask-13"><rect x="154" y="221" width="28" height="32"><set attributeName="x" to="182" begin="0; animate14.end + 1" /><animate attributeName="x" from="182" to="154" dur="0.104" begin="animate12.end" id="animate13" fill="freeze"/></rect></clipPath><clipPath id="clip-mask-14"><rect x="123" y="177" width="27" height="34"><set attributeName="y" to="143" begin="0; animate14.end + 1" /><animate attributeName="y" from="143" to="177" dur="0.126" begin="animate13.end + 0.5" id="animate14" fill="freeze"/></rect></clipPath></defs><path d="M 0 0 L 270 270 M 270 0 L 0 270 M 135 0 L 135 270 M 0 135 L 270 135" stroke="#CCCCCC" /><path d="M 55 105 L 52 109 Q 27 142 16 145 Q 12 145 13 142 Q 14 140 17 137 Q 59 84 74 44 Q 77 37 73 29 Q 71 23 76 22 Q 81 22 89 27 Q 97 33 98 37 Q 99 41 97 43 Q 91 49 84 63 Q 74 78 66 90 L 58 101" fill="#CCCCCC"/><path d="M 66 90 Q 68 92 77 102 Q 80 105 78 113 Q 75 130 74 207 Q 75 220 71 231 Q 67 239 62 234 Q 61 233 61 232 Q 52 218 55 207 Q 63 175 64 143 Q 64 140 64 137 Q 64 112 58 101" fill="#CCCCCC"/><path d="M 149 52 Q 149 52 148 52 Q 132 57 121 51 Q 115 48 123 46 Q 137 44 149 41 L 163 37 Q 182 30 189 31 Q 196 32 198 35 Q 199 37 197 39 Q 196 39 162 49" fill="#CCCCCC"/><path d="M 120 86 Q 121 92 122 112 Q 126 136 120 143 Q 117 145 115 142 Q 106 133 110 122 Q 112 93 103 79 Q 101 77 104 75 Q 110 74 116 78" fill="#CCCCCC"/><path d="M 149 77 Q 127 82 120 86 L 116 78 Q 125 75 139 72 Q 144 70 149 69 L 161 66 Q 176 62 179 62 Q 198 56 203 59 Q 217 64 222 68 L 195 70 Q 188 67 161 75" fill="#CCCCCC"/><path d="M 222 68 Q 226 72 222 77 Q 213 85 209 99 Q 206 121 202 126 Q 201 130 197 131 Q 194 132 192 128 Q 190 124 192 119 Q 194 112 197 80 Q 197 71 195 70" fill="#CCCCCC"/><path d="M 149 101 Q 145 102 140 103 Q 135 105 132 103 Q 127 99 131 98 Q 140 95 149 93 L 160 89 Q 171 86 176 86 Q 183 87 185 91 Q 188 94 182 95 Q 172 96 160 99" fill="#CCCCCC"/><path d="M 135 125 L 134 125 Q 129 121 133 120 Q 140 118 149 115 L 160 111 Q 169 109 174 109 Q 181 110 183 114 Q 186 117 180 118 Q 170 119 160 122 L 149 124" fill="#CCCCCC"/><path d="M 149 115 Q 149 109 149 101 L 149 93 Q 149 85 149 77 L 149 69 Q 149 60 149 52 L 149 41 Q 149 33 149 27 Q 149 22 144 18 Q 142 16 143 14 Q 146 11 150 12 Q 159 14 163 19 Q 168 22 166 25 Q 163 30 163 37 L 162 49 Q 161 56 161 66 L 161 75 Q 161 81 161 88 Q 160 89 160 89 L 160 99 Q 160 106 160 111 L 160 122 Q 159 142 157 146 Q 155 151 152 148 Q 149 143 149 124" fill="#CCCCCC"/><path d="M 193 20 L 192 18 Q 191 14 193 14 Q 195 13 204 15 Q 220 19 223 29 Q 224 33 223 36 Q 221 39 218 39 Q 207 34 196 24" fill="#CCCCCC"/><path d="M 143 165 L 102 176 Q 98 177 93 176 Q 88 175 85 171 Q 81 167 86 167 Q 126 161 183 153 L 200 150 Q 213 147 223 146 Q 238 141 252 152 Q 257 155 255 158 Q 254 160 249 160 Q 217 160 198 162 L 183 163" fill="#CCCCCC"/><path d="M 183 153 Q 182 145 177 138 Q 175 134 176 132 Q 179 130 183 132 Q 191 135 198 140 Q 203 144 201 149 Q 200 149 200 150 L 198 162 Q 197 166 197 170 Q 199 218 200 225 Q 200 244 190 254 Q 186 258 182 253 L 180 224 Q 183 222 183 216 Q 184 198 183 163" fill="#CCCCCC"/><path d="M 182 253 Q 176 244 158 227 Q 155 225 155 223 Q 154 221 158 222 Q 178 225 180 224" fill="#CCCCCC"/><path d="M 123 185 L 123 182 Q 123 178 125 177 Q 127 177 130 179 Q 149 189 150 196 Q 150 205 148 208 Q 145 211 143 210 Q 139 209 136 205 Q 132 198 128 192" fill="#CCCCCC"/><path d="M 55 105 L 52 109 Q 27 142 16 145 Q 12 145 13 142 Q 14 140 17 137 Q 59 84 74 44 Q 77 37 73 29 Q 71 23 76 22 Q 81 22 89 27 Q 97 33 98 37 Q 99 41 97 43 Q 91 49 84 63 Q 74 78 66 90 L 58 101" fill="#0000ff" clip-path="url(#clip-mask-1)" /><path d="M 66 90 Q 68 92 77 102 Q 80 105 78 113 Q 75 130 74 207 Q 75 220 71 231 Q 67 239 62 234 Q 61 233 61 232 Q 52 218 55 207 Q 63 175 64 143 Q 64 140 64 137 Q 64 112 58 101" fill="#0000ff" clip-path="url(#clip-mask-2)" /><path d="M 149 52 Q 149 52 148 52 Q 132 57 121 51 Q 115 48 123 46 Q 137 44 149 41 L 163 37 Q 182 30 189 31 Q 196 32 198 35 Q 199 37 197 39 Q 196 39 162 49" fill="#000080" clip-path="url(#clip-mask-3)" /><path d="M 120 86 Q 121 92 122 112 Q 126 136 120 143 Q 117 145 115 142 Q 106 133 110 122 Q 112 93 103 79 Q 101 77 104 75 Q 110 74 116 78" fill="#000080" clip-path="url(#clip-mask-4)" /><path d="M 149 77 Q 127 82 120 86 L 116 78 Q 125 75 139 72 Q 144 70 149 69 L 161 66 Q 176 62 179 62 Q 198 56 203 59 Q 217 64 222 68 L 195 70 Q 188 67 161 75" fill="#000080" clip-path="url(#clip-mask-5)" /><path d="M 222 68 Q 226 72 222 77 Q 213 85 209 99 Q 206 121 202 126 Q 201 130 197 131 Q 194 132 192 128 Q 190 124 192 119 Q 194 112 197 80 Q 197 71 195 70" fill="#000080" clip-path="url(#clip-mask-6)" /><path d="M 149 101 Q 145 102 140 103 Q 135 105 132 103 Q 127 99 131 98 Q 140 95 149 93 L 160 89 Q 171 86 176 86 Q 183 87 185 91 Q 188 94 182 95 Q 172 96 160 99" fill="#000080" clip-path="url(#clip-mask-7)" /><path d="M 135 125 L 134 125 Q 129 121 133 120 Q 140 118 149 115 L 160 111 Q 169 109 174 109 Q 181 110 183 114 Q 186 117 180 118 Q 170 119 160 122 L 149 124" fill="#000080" clip-path="url(#clip-mask-8)" /><path d="M 149 115 Q 149 109 149 101 L 149 93 Q 149 85 149 77 L 149 69 Q 149 60 149 52 L 149 41 Q 149 33 149 27 Q 149 22 144 18 Q 142 16 143 14 Q 146 11 150 12 Q 159 14 163 19 Q 168 22 166 25 Q 163 30 163 37 L 162 49 Q 161 56 161 66 L 161 75 Q 161 81 161 88 Q 160 89 160 89 L 160 99 Q 160 106 160 111 L 160 122 Q 159 142 157 146 Q 155 151 152 148 Q 149 143 149 124" fill="#000080" clip-path="url(#clip-mask-9)" /><path d="M 193 20 L 192 18 Q 191 14 193 14 Q 195 13 204 15 Q 220 19 223 29 Q 224 33 223 36 Q 221 39 218 39 Q 207 34 196 24" fill="#000080" clip-path="url(#clip-mask-10)" /><path d="M 143 165 L 102 176 Q 98 177 93 176 Q 88 175 85 171 Q 81 167 86 167 Q 126 161 183 153 L 200 150 Q 213 147 223 146 Q 238 141 252 152 Q 257 155 255 158 Q 254 160 249 160 Q 217 160 198 162 L 183 163" fill="#000080" clip-path="url(#clip-mask-11)" /><path d="M 183 153 Q 182 145 177 138 Q 175 134 176 132 Q 179 130 183 132 Q 191 135 198 140 Q 203 144 201 149 Q 200 149 200 150 L 198 162 Q 197 166 197 170 Q 199 218 200 225 Q 200 244 190 254 Q 186 258 182 253 L 180 224 Q 183 222 183 216 Q 184 198 183 163" fill="#000080" clip-path="url(#clip-mask-12)" /><path d="M 182 253 Q 176 244 158 227 Q 155 225 155 223 Q 154 221 158 222 Q 178 225 180 224" fill="#000080" clip-path="url(#clip-mask-13)" /><path d="M 123 185 L 123 182 Q 123 178 125 177 Q 127 177 130 179 Q 149 189 150 196 Q 150 205 148 208 Q 145 211 143 210 Q 139 209 136 205 Q 132 198 128 192" fill="#000080" clip-path="url(#clip-mask-14)" /></svg>