<svg xmlns="http://www.w3.org/2000/svg" xmlns:xlink="http://www.w3.org/1999/xlink" width="270" height="270"><defs><clipPath id="clip-mask-1"><rect x="16" y="20" width="90" height="121"><animate attributeName="y" from="-101" to="20" dur="0.448" begin="0; animate15.end + 1" id="animate1" fill="freeze"/></rect></clipPath><clipPath id="clip-mask-2"><rect x="55" y="91" width="26" height="142"><set attributeName="y" to="-51" begin="0; animate15.end + 1" /><animate attributeName="y" from="-51" to="91" dur="0.526" begin="animate1.end + 0.5" id="animate2" fill="freeze"/></rect></clipPath><clipPath id="clip-mask-3"><rect x="147" y="14" width="31" height="26"><set attributeName="x" to="116" begin="0; animate15.end + 1" /><animate attributeName="x" from="116" to="147" dur="0.115" begin="animate2.end + 0.5" id="animate3" fill="freeze"/></rect></clipPath><clipPath id="clip-mask-4"><rect x="114" y="42" width="105" height="30"><set attributeName="x" to="9" begin="0; animate15.end + 1" /><animate attributeName="x" from="9" to="114" dur="0.389" begin="animate3.end + 0.5" id="animate4" fill="freeze"/></rect></clipPath><clipPath id="clip-mask-5"><rect x="131" y="77" width="22" height="24"><set attributeName="x" to="109" begin="0; animate15.end + 1" /><animate attributeName="x" from="109" to="131" dur="0.081" begin="animate4.end + 0.5" id="animate5" fill="freeze"/></rect></clipPath><clipPath id="clip-mask-6"><rect x="169" y="60" width="31" height="43"><set attributeName="y" to="17" begin="0; animate15.end + 1" /><animate attributeName="y" from="17" to="60" dur="0.159" begin="animate5.end + 0.5" id="animate6" fill="freeze"/></rect></clipPath><clipPath id="clip-mask-7"><rect x="90" y="104" width="21" height="48"><set attributeName="y" to="56" begin="0; animate15.end + 1" /><animate attributeName="y" from="56" to="104" dur="0.178" begin="animate6.end + 0.5" id="animate7" fill="freeze"/></rect></clipPath><clipPath id="clip-mask-8"><rect x="111" y="90" width="123" height="35"><set attributeName="x" to="-12" begin="0; animate15.end + 1" /><animate attributeName="x" from="-12" to="111" dur="0.456" begin="animate7.end + 0.5" id="animate8" fill="freeze"/></rect></clipPath><clipPath id="clip-mask-9"><rect x="210" y="95" width="43" height="32"><set attributeName="y" to="63" begin="0; animate15.end + 1" /><animate attributeName="y" from="63" to="95" dur="0.119" begin="animate8.end" id="animate9" fill="freeze"/></rect></clipPath><clipPath id="clip-mask-10"><rect x="147" y="121" width="25" height="23"><set attributeName="x" to="122" begin="0; animate15.end + 1" /><animate attributeName="x" from="122" to="147" dur="0.093" begin="animate9.end + 0.5" id="animate10" fill="freeze"/></rect></clipPath><clipPath id="clip-mask-11"><rect x="108" y="138" width="118" height="32"><set attributeName="x" to="-10" begin="0; animate15.end + 1" /><animate attributeName="x" from="-10" to="108" dur="0.437" begin="animate10.end + 0.5" id="animate11" fill="freeze"/></rect></clipPath><clipPath id="clip-mask-12"><rect x="82" y="160" width="88" height="79"><set attributeName="y" to="81" begin="0; animate15.end + 1" /><animate attributeName="y" from="81" to="160" dur="0.293" begin="animate11.end + 0.5" id="animate12" fill="freeze"/></rect></clipPath><clipPath id="clip-mask-13"><rect x="161" y="172" width="50" height="18"><set attributeName="x" to="111" begin="0; animate15.end + 1" /><animate attributeName="x" from="111" to="161" dur="0.185" begin="animate12.end + 0.5" id="animate13" fill="freeze"/></rect></clipPath><clipPath id="clip-mask-14"><rect x="163" y="187" width="48" height="68"><set attributeName="y" to="119" begin="0; animate15.end + 1" /><animate attributeName="y" from="119" to="187" dur="0.252" begin="animate13.end" id="animate14" fill="freeze"/></rect></clipPath><clipPath id="clip-mask-15"><rect x="144" y="222" width="24" height="31"><set attributeName="x" to="168" begin="0; animate15.end + 1" /><animate attributeName="x" from="168" to="144" dur="0.089" begin="animate14.end" id="animate15" fill="freeze"/></rect></clipPath></defs><path d="M 0 0 L 270 270 M 270 0 L 0 270 M 135 0 L 135 270 M 0 135 L 270 135" stroke="#CCCCCC" /><path d="M 29 139 L 20 140 Q 16 141 17 138 Q 18 136 21 133 Q 62 85 81 42 Q 84 35 81 27 Q 79 21 84 20 Q 89 20 96 25 Q 104 32 105 35 Q 106 39 103 42 Q 97 48 90 61 Q 79 78 68 91 L 61 101" fill="#CCCCCC"/><path d="M 68 91 Q 69 92 79 103 Q 81 105 79 112 Q 76 129 76 203 Q 76 215 72 226 Q 69 233 65 229 Q 64 228 64 228 Q 55 215 58 203 Q 66 170 66 121 Q 66 120 66 119 Q 66 117 61 101" fill="#CCCCCC"/><path d="M 148 22 L 148 18 Q 147 15 149 15 Q 150 14 152 14 Q 163 15 170 19 Q 175 22 177 29 Q 178 33 176 36 Q 174 40 170 39 Q 162 36 153 25" fill="#CCCCCC"/><path d="M 179 62 Q 161 65 143 69 Q 130 72 120 66 Q 114 63 123 61 Q 145 59 163 55 Q 179 50 195 45 Q 202 42 209 43 Q 216 45 218 48 Q 219 50 217 52 Q 215 54 187 60" fill="#CCCCCC"/><path d="M 131 84 L 131 81 Q 131 79 132 78 Q 139 77 148 83 Q 152 86 153 91 Q 153 95 152 98 Q 150 101 146 99 Q 140 96 135 87" fill="#CCCCCC"/><path d="M 169 103 Q 170 100 172 97 Q 182 70 180 63 Q 179 62 179 62 L 187 60 Q 194 64 198 70 Q 200 73 196 76 Q 195 76 181 97 Q 180 99 179 101" fill="#CCCCCC"/><path d="M 111 122 L 110 123 Q 108 127 104 138 Q 99 150 96 150 Q 95 152 93 149 Q 91 146 90 141 Q 90 136 93 132 Q 100 117 100 109 Q 100 106 102 105 Q 103 104 104 105 Q 108 108 111 115 L 111 121" fill="#CCCCCC"/><path d="M 111 115 Q 124 112 136 110 Q 154 105 169 103 L 179 101 Q 185 98 208 95 Q 227 90 234 95 L 216 103 Q 212 102 196 105 Q 144 116 127 122 Q 118 125 111 121" fill="#CCCCCC"/><path d="M 234 95 Q 252 110 253 112 Q 253 115 244 116 Q 233 117 219 124 Q 214 127 212 126 Q 210 125 213 121 Q 218 106 218 106 Q 219 104 216 103" fill="#CCCCCC"/><path d="M 148 127 L 147 125 Q 147 122 149 121 Q 150 121 153 122 Q 169 126 171 132 Q 172 138 171 141 Q 169 144 167 144 Q 163 144 153 132" fill="#CCCCCC"/><path d="M 151 162 Q 139 164 130 168 Q 117 170 111 166 Q 108 162 112 162 Q 134 157 194 143 Q 208 138 222 146 Q 226 148 225 151 Q 224 153 219 153 Q 170 158 163 160" fill="#CCCCCC"/><path d="M 145 199 L 135 210 Q 133 210 133 211 Q 100 239 84 239 Q 82 239 84 238 Q 147 192 151 162 L 163 160 Q 170 164 170 168 Q 170 171 168 172 Q 168 172 167 172 L 161 180" fill="#CCCCCC"/><path d="M 167 172 Q 169 173 181 174 Q 196 172 205 181 Q 211 188 211 190 L 187 187 Q 184 184 178 183 Q 165 182 161 180" fill="#CCCCCC"/><path d="M 211 190 Q 211 193 208 194 Q 203 197 199 211 Q 189 239 175 250 Q 166 255 163 253 L 168 227 Q 173 226 178 217 Q 190 193 187 187" fill="#CCCCCC"/><path d="M 163 253 Q 159 251 158 247 Q 157 238 149 230 Q 144 227 146 224 Q 147 222 157 227 Q 166 229 168 227" fill="#CCCCCC"/><path d="M 29 139 L 20 140 Q 16 141 17 138 Q 18 136 21 133 Q 62 85 81 42 Q 84 35 81 27 Q 79 21 84 20 Q 89 20 96 25 Q 104 32 105 35 Q 106 39 103 42 Q 97 48 90 61 Q 79 78 68 91 L 61 101" fill="#0000ff" clip-path="url(#clip-mask-1)" /><path d="M 68 91 Q 69 92 79 103 Q 81 105 79 112 Q 76 129 76 203 Q 76 215 72 226 Q 69 233 65 229 Q 64 228 64 228 Q 55 215 58 203 Q 66 170 66 121 Q 66 120 66 119 Q 66 117 61 101" fill="#0000ff" clip-path="url(#clip-mask-2)" /><path d="M 148 22 L 148 18 Q 147 15 149 15 Q 150 14 152 14 Q 163 15 170 19 Q 175 22 177 29 Q 178 33 176 36 Q 174 40 170 39 Q 162 36 153 25" fill="#000080" clip-path="url(#clip-mask-3)" /><path d="M 179 62 Q 161 65 143 69 Q 130 72 120 66 Q 114 63 123 61 Q 145 59 163 55 Q 179 50 195 45 Q 202 42 209 43 Q 216 45 218 48 Q 219 50 217 52 Q 215 54 187 60" fill="#000080" clip-path="url(#clip-mask-4)" /><path d="M 131 84 L 131 81 Q 131 79 132 78 Q 139 77 148 83 Q 152 86 153 91 Q 153 95 152 98 Q 150 101 146 99 Q 140 96 135 87" fill="#000080" clip-path="url(#clip-mask-5)" /><path d="M 169 103 Q 170 100 172 97 Q 182 70 180 63 Q 179 62 179 62 L 187 60 Q 194 64 198 70 Q 200 73 196 76 Q 195 76 181 97 Q 180 99 179 101" fill="#000080" clip-path="url(#clip-mask-6)" /><path d="M 111 122 L 110 123 Q 108 127 104 138 Q 99 150 96 150 Q 95 152 93 149 Q 91 146 90 141 Q 90 136 93 132 Q 100 117 100 109 Q 100 106 102 105 Q 103 104 104 105 Q 108 108 111 115 L 111 121" fill="#000080" clip-path="url(#clip-mask-7)" /><path d="M 111 115 Q 124 112 136 110 Q 154 105 169 103 L 179 101 Q 185 98 208 95 Q 227 90 234 95 L 216 103 Q 212 102 196 105 Q 144 116 127 122 Q 118 125 111 121" fill="#000080" clip-path="url(#clip-mask-8)" /><path d="M 234 95 Q 252 110 253 112 Q 253 115 244 116 Q 233 117 219 124 Q 214 127 212 126 Q 210 125 213 121 Q 218 106 218 106 Q 219 104 216 103" fill="#000080" clip-path="url(#clip-mask-9)" /><path d="M 148 127 L 147 125 Q 147 122 149 121 Q 150 121 153 122 Q 169 126 171 132 Q 172 138 171 141 Q 169 144 167 144 Q 163 144 153 132" fill="#000080" clip-path="url(#clip-mask-10)" /><path d="M 151 162 Q 139 164 130 168 Q 117 170 111 166 Q 108 162 112 162 Q 134 157 194 143 Q 208 138 222 146 Q 226 148 225 151 Q 224 153 219 153 Q 170 158 163 160" fill="#000080" clip-path="url(#clip-mask-11)" /><path d="M 145 199 L 135 210 Q 133 210 133 211 Q 100 239 84 239 Q 82 239 84 238 Q 147 192 151 162 L 163 160 Q 170 164 170 168 Q 170 171 168 172 Q 168 172 167 172 L 161 180" fill="#000080" clip-path="url(#clip-mask-12)" /><path d="M 167 172 Q 169 173 181 174 Q 196 172 205 181 Q 211 188 211 190 L 187 187 Q 184 184 178 183 Q 165 182 161 180" fill="#000080" clip-path="url(#clip-mask-13)" /><path d="M 211 190 Q 211 193 208 194 Q 203 197 199 211 Q 189 239 175 250 Q 166 255 163 253 L 168 227 Q 173 226 178 217 Q 190 193 187 187" fill="#000080" clip-path="url(#clip-mask-14)" /><path d="M 163 253 Q 159 251 158 247 Q 157 238 149 230 Q 144 227 146 224 Q 147 222 157 227 Q 166 229 168 227" fill="#000080" clip-path="url(#clip-mask-15)" /></svg>