<svg xmlns="http://www.w3.org/2000/svg" xmlns:xlink="http://www.w3.org/1999/xlink" width="270" height="270"><defs><clipPath id="clip-mask-1"><rect x="11" y="29" width="85" height="121"><animate attributeName="y" from="-92" to="29" dur="0.448" begin="0; animate18.end + 1" id="animate1" fill="freeze"/></rect></clipPath><clipPath id="clip-mask-2"><rect x="45" y="104" width="26" height="135"><set attributeName="y" to="-31" begin="0; animate18.end + 1" /><animate attributeName="y" from="-31" to="104" dur="0.500" begin="animate1.end + 0.5" id="animate2" fill="freeze"/></rect></clipPath><clipPath id="clip-mask-3"><rect x="109" y="18" width="80" height="41"><set attributeName="x" to="189" begin="0; animate18.end + 1" /><animate attributeName="x" from="189" to="109" dur="0.296" begin="animate2.end + 0.5" id="animate3" fill="freeze"/></rect></clipPath><clipPath id="clip-mask-4"><rect x="91" y="58" width="126" height="35"><set attributeName="x" to="-35" begin="0; animate18.end + 1" /><animate attributeName="x" from="-35" to="91" dur="0.467" begin="animate3.end + 0.5" id="animate4" fill="freeze"/></rect></clipPath><clipPath id="clip-mask-5"><rect x="78" y="50" width="74" height="96"><set attributeName="y" to="-46" begin="0; animate18.end + 1" /><animate attributeName="y" from="-46" to="50" dur="0.356" begin="animate4.end + 0.5" id="animate5" fill="freeze"/></rect></clipPath><clipPath id="clip-mask-6"><rect x="156" y="79" width="102" height="56"><set attributeName="x" to="54" begin="0; animate18.end + 1" /><animate attributeName="x" from="54" to="156" dur="0.378" begin="animate5.end + 0.5" id="animate6" fill="freeze"/></rect></clipPath><clipPath id="clip-mask-7"><rect x="117" y="113" width="17" height="40"><set attributeName="y" to="73" begin="0; animate18.end + 1" /><animate attributeName="y" from="73" to="113" dur="0.148" begin="animate6.end + 0.5" id="animate7" fill="freeze"/></rect></clipPath><clipPath id="clip-mask-8"><rect x="128" y="103" width="51" height="18"><set attributeName="x" to="77" begin="0; animate18.end + 1" /><animate attributeName="x" from="77" to="128" dur="0.189" begin="animate7.end + 0.5" id="animate8" fill="freeze"/></rect></clipPath><clipPath id="clip-mask-9"><rect x="160" y="112" width="24" height="23"><set attributeName="y" to="89" begin="0; animate18.end + 1" /><animate attributeName="y" from="89" to="112" dur="0.085" begin="animate8.end" id="animate9" fill="freeze"/></rect></clipPath><clipPath id="clip-mask-10"><rect x="133" y="132" width="41" height="13"><set attributeName="x" to="92" begin="0; animate18.end + 1" /><animate attributeName="x" from="92" to="133" dur="0.152" begin="animate9.end + 0.5" id="animate10" fill="freeze"/></rect></clipPath><clipPath id="clip-mask-11"><rect x="83" y="163" width="21" height="74"><set attributeName="y" to="89" begin="0; animate18.end + 1" /><animate attributeName="y" from="89" to="163" dur="0.274" begin="animate10.end + 0.5" id="animate11" fill="freeze"/></rect></clipPath><clipPath id="clip-mask-12"><rect x="100" y="150" width="121" height="24"><set attributeName="x" to="-21" begin="0; animate18.end + 1" /><animate attributeName="x" from="-21" to="100" dur="0.448" begin="animate11.end + 0.5" id="animate12" fill="freeze"/></rect></clipPath><clipPath id="clip-mask-13"><rect x="198" y="159" width="25" height="92"><set attributeName="y" to="67" begin="0; animate18.end + 1" /><animate attributeName="y" from="67" to="159" dur="0.341" begin="animate12.end" id="animate13" fill="freeze"/></rect></clipPath><clipPath id="clip-mask-14"><rect x="175" y="216" width="25" height="32"><set attributeName="x" to="200" begin="0; animate18.end + 1" /><animate attributeName="x" from="200" to="175" dur="0.093" begin="animate13.end" id="animate14" fill="freeze"/></rect></clipPath><clipPath id="clip-mask-15"><rect x="115" y="182" width="18" height="43"><set attributeName="y" to="139" begin="0; animate18.end + 1" /><animate attributeName="y" from="139" to="182" dur="0.159" begin="animate14.end + 0.5" id="animate15" fill="freeze"/></rect></clipPath><clipPath id="clip-mask-16"><rect x="129" y="174" width="53" height="17"><set attributeName="x" to="76" begin="0; animate18.end + 1" /><animate attributeName="x" from="76" to="129" dur="0.196" begin="animate15.end + 0.5" id="animate16" fill="freeze"/></rect></clipPath><clipPath id="clip-mask-17"><rect x="160" y="183" width="27" height="24"><set attributeName="y" to="159" begin="0; animate18.end + 1" /><animate attributeName="y" from="159" to="183" dur="0.089" begin="animate16.end" id="animate17" fill="freeze"/></rect></clipPath><clipPath id="clip-mask-18"><rect x="133" y="205" width="43" height="13"><set attributeName="x" to="90" begin="0; animate18.end + 1" /><animate attributeName="x" from="90" to="133" dur="0.159" begin="animate17.end + 0.5" id="animate18" fill="freeze"/></rect></clipPath></defs><path d="M 0 0 L 270 270 M 270 0 L 0 270 M 135 0 L 135 270 M 0 135 L 270 135" stroke="#CCCCCC" /><path d="M 50 114 L 50 114 Q 26 146 15 149 Q 11 150 12 146 Q 12 145 15 142 Q 34 118 48 97 Q 62 75 71 51 Q 74 44 70 36 Q 68 30 73 30 Q 78 29 86 34 Q 93 40 95 44 Q 96 47 93 50 Q 87 56 81 69 Q 69 89 58 104 L 51 113" fill="#CCCCCC"/><path d="M 58 104 Q 58 104 68 115 Q 71 117 69 124 Q 66 140 66 209 Q 66 221 62 232 Q 59 239 54 234 Q 54 234 54 234 Q 45 220 47 209 Q 51 194 53 180 Q 59 132 51 113" fill="#CCCCCC"/><path d="M 132 54 Q 114 59 110 59 Q 109 58 110 56 Q 161 33 161 22 Q 161 20 163 19 Q 166 18 170 20 Q 181 24 186 28 Q 189 31 188 34 Q 187 36 183 36 Q 173 38 162 43 Q 153 47 143 50" fill="#CCCCCC"/><path d="M 123 87 Q 118 88 115 89 Q 102 93 95 87 Q 91 84 96 83 Q 112 79 128 77 L 144 73 Q 146 72 150 72 Q 171 67 186 63 Q 201 58 213 66 Q 217 69 216 72 Q 215 73 213 74 Q 188 76 163 79 L 156 80 Q 149 81 138 83" fill="#CCCCCC"/><path d="M 117 118 Q 109 127 102 133 Q 85 146 80 144 Q 78 144 81 140 Q 110 115 123 87 L 128 77 Q 135 58 132 54 L 143 50 Q 151 55 152 59 Q 152 61 151 63 Q 148 66 144 73 L 138 83 Q 129 103 121 113" fill="#CCCCCC"/><path d="M 163 79 Q 183 96 206 109 Q 206 109 255 127 Q 258 128 258 130 Q 257 131 253 131 Q 237 135 221 135 Q 212 135 206 130 Q 181 107 158 82 Q 157 81 156 80" fill="#CCCCCC"/><path d="M 133 149 L 133 150 Q 132 153 129 149 Q 126 146 125 142 Q 121 127 117 118 L 121 113 Q 126 113 128 115 L 130 121 Q 130 126 133 138 L 134 145" fill="#CCCCCC"/><path d="M 162 117 Q 161 114 153 116 Q 143 118 130 121 L 128 115 Q 150 112 161 105 Q 165 103 169 106 Q 175 110 179 112" fill="#CCCCCC"/><path d="M 160 132 Q 161 128 162 123 Q 163 118 162 117 L 179 112 Q 184 116 179 121 Q 175 124 171 135" fill="#CCCCCC"/><path d="M 133 138 Q 144 136 157 133 Q 159 132 160 132 L 171 135 Q 174 138 174 139 Q 174 141 172 142 Q 149 143 138 145 Q 136 145 134 145" fill="#CCCCCC"/><path d="M 88 167 L 88 166 Q 86 164 89 163 Q 93 163 100 166 L 104 174 Q 103 181 103 211 Q 103 230 96 235 Q 93 237 92 234 Q 83 224 89 212 Q 96 188 89 170 Q 89 169 89 168" fill="#CCCCCC"/><path d="M 100 166 Q 112 164 130 162 Q 149 159 174 156 Q 192 154 198 152 Q 202 150 207 152 Q 218 157 221 159 L 198 165 Q 195 162 190 163 Q 112 168 104 174" fill="#CCCCCC"/><path d="M 221 159 Q 223 162 220 165 Q 217 170 218 205 Q 218 228 212 240 Q 208 248 206 249 Q 203 251 200 248 L 200 216 Q 204 189 203 173 Q 202 167 198 165" fill="#CCCCCC"/><path d="M 200 248 Q 194 240 185 232 Q 177 226 176 224 Q 175 221 179 222 Q 186 222 194 223 Q 200 223 200 216" fill="#CCCCCC"/><path d="M 132 220 L 132 222 Q 131 225 127 221 Q 125 218 124 213 Q 122 197 117 187 Q 115 184 116 183 Q 117 182 120 183 Q 126 184 129 185 L 131 191 Q 131 197 133 211 L 133 218" fill="#CCCCCC"/><path d="M 165 187 Q 163 184 156 186 Q 131 191 131 191 L 129 185 Q 154 180 164 175 Q 165 174 167 174 Q 168 174 182 183" fill="#CCCCCC"/><path d="M 160 205 Q 162 200 164 195 Q 166 189 165 187 L 182 183 Q 187 186 182 192 Q 177 195 172 207" fill="#CCCCCC"/><path d="M 133 211 Q 145 209 159 205 Q 160 205 160 205 L 172 207 Q 176 211 176 212 Q 176 214 174 214 Q 149 216 137 218 Q 135 218 133 218" fill="#CCCCCC"/><path d="M 50 114 L 50 114 Q 26 146 15 149 Q 11 150 12 146 Q 12 145 15 142 Q 34 118 48 97 Q 62 75 71 51 Q 74 44 70 36 Q 68 30 73 30 Q 78 29 86 34 Q 93 40 95 44 Q 96 47 93 50 Q 87 56 81 69 Q 69 89 58 104 L 51 113" fill="#0000ff" clip-path="url(#clip-mask-1)" /><path d="M 58 104 Q 58 104 68 115 Q 71 117 69 124 Q 66 140 66 209 Q 66 221 62 232 Q 59 239 54 234 Q 54 234 54 234 Q 45 220 47 209 Q 51 194 53 180 Q 59 132 51 113" fill="#0000ff" clip-path="url(#clip-mask-2)" /><path d="M 132 54 Q 114 59 110 59 Q 109 58 110 56 Q 161 33 161 22 Q 161 20 163 19 Q 166 18 170 20 Q 181 24 186 28 Q 189 31 188 34 Q 187 36 183 36 Q 173 38 162 43 Q 153 47 143 50" fill="#000080" clip-path="url(#clip-mask-3)" /><path d="M 123 87 Q 118 88 115 89 Q 102 93 95 87 Q 91 84 96 83 Q 112 79 128 77 L 144 73 Q 146 72 150 72 Q 171 67 186 63 Q 201 58 213 66 Q 217 69 216 72 Q 215 73 213 74 Q 188 76 163 79 L 156 80 Q 149 81 138 83" fill="#000080" clip-path="url(#clip-mask-4)" /><path d="M 117 118 Q 109 127 102 133 Q 85 146 80 144 Q 78 144 81 140 Q 110 115 123 87 L 128 77 Q 135 58 132 54 L 143 50 Q 151 55 152 59 Q 152 61 151 63 Q 148 66 144 73 L 138 83 Q 129 103 121 113" fill="#000080" clip-path="url(#clip-mask-5)" /><path d="M 163 79 Q 183 96 206 109 Q 206 109 255 127 Q 258 128 258 130 Q 257 131 253 131 Q 237 135 221 135 Q 212 135 206 130 Q 181 107 158 82 Q 157 81 156 80" fill="#000080" clip-path="url(#clip-mask-6)" /><path d="M 133 149 L 133 150 Q 132 153 129 149 Q 126 146 125 142 Q 121 127 117 118 L 121 113 Q 126 113 128 115 L 130 121 Q 130 126 133 138 L 134 145" fill="#000080" clip-path="url(#clip-mask-7)" /><path d="M 162 117 Q 161 114 153 116 Q 143 118 130 121 L 128 115 Q 150 112 161 105 Q 165 103 169 106 Q 175 110 179 112" fill="#000080" clip-path="url(#clip-mask-8)" /><path d="M 160 132 Q 161 128 162 123 Q 163 118 162 117 L 179 112 Q 184 116 179 121 Q 175 124 171 135" fill="#000080" clip-path="url(#clip-mask-9)" /><path d="M 133 138 Q 144 136 157 133 Q 159 132 160 132 L 171 135 Q 174 138 174 139 Q 174 141 172 142 Q 149 143 138 145 Q 136 145 134 145" fill="#000080" clip-path="url(#clip-mask-10)" /><path d="M 88 167 L 88 166 Q 86 164 89 163 Q 93 163 100 166 L 104 174 Q 103 181 103 211 Q 103 230 96 235 Q 93 237 92 234 Q 83 224 89 212 Q 96 188 89 170 Q 89 169 89 168" fill="#000080" clip-path="url(#clip-mask-11)" /><path d="M 100 166 Q 112 164 130 162 Q 149 159 174 156 Q 192 154 198 152 Q 202 150 207 152 Q 218 157 221 159 L 198 165 Q 195 162 190 163 Q 112 168 104 174" fill="#000080" clip-path="url(#clip-mask-12)" /><path d="M 221 159 Q 223 162 220 165 Q 217 170 218 205 Q 218 228 212 240 Q 208 248 206 249 Q 203 251 200 248 L 200 216 Q 204 189 203 173 Q 202 167 198 165" fill="#000080" clip-path="url(#clip-mask-13)" /><path d="M 200 248 Q 194 240 185 232 Q 177 226 176 224 Q 175 221 179 222 Q 186 222 194 223 Q 200 223 200 216" fill="#000080" clip-path="url(#clip-mask-14)" /><path d="M 132 220 L 132 222 Q 131 225 127 221 Q 125 218 124 213 Q 122 197 117 187 Q 115 184 116 183 Q 117 182 120 183 Q 126 184 129 185 L 131 191 Q 131 197 133 211 L 133 218" fill="#000080" clip-path="url(#clip-mask-15)" /><path d="M 165 187 Q 163 184 156 186 Q 131 191 131 191 L 129 185 Q 154 180 164 175 Q 165 174 167 174 Q 168 174 182 183" fill="#000080" clip-path="url(#clip-mask-16)" /><path d="M 160 205 Q 162 200 164 195 Q 166 189 165 187 L 182 183 Q 187 186 182 192 Q 177 195 172 207" fill="#000080" clip-path="url(#clip-mask-17)" /><path d="M 133 211 Q 145 209 159 205 Q 160 205 160 205 L 172 207 Q 176 211 176 212 Q 176 214 174 214 Q 149 216 137 218 Q 135 218 133 218" fill="#000080" clip-path="url(#clip-mask-18)" /></svg>