<svg xmlns="http://www.w3.org/2000/svg" xmlns:xlink="http://www.w3.org/1999/xlink" width="270" height="270"><defs><clipPath id="clip-mask-1"><rect x="7" y="34" width="84" height="137"><animate attributeName="y" from="-103" to="34" dur="0.507" begin="0; animate17.end + 1" id="animate1" fill="freeze"/></rect></clipPath><clipPath id="clip-mask-2"><rect x="47" y="113" width="25" height="132"><set attributeName="y" to="-19" begin="0; animate17.end + 1" /><animate attributeName="y" from="-19" to="113" dur="0.489" begin="animate1.end + 0.5" id="animate2" fill="freeze"/></rect></clipPath><clipPath id="clip-mask-3"><rect x="77" y="24" width="79" height="114"><set attributeName="y" to="-90" begin="0; animate17.end + 1" /><animate attributeName="y" from="-90" to="24" dur="0.422" begin="animate2.end + 0.5" id="animate3" fill="freeze"/></rect></clipPath><clipPath id="clip-mask-4"><rect x="145" y="50" width="117" height="73"><set attributeName="x" to="28" begin="0; animate17.end + 1" /><animate attributeName="x" from="28" to="145" dur="0.433" begin="animate3.end + 0.5" id="animate4" fill="freeze"/></rect></clipPath><clipPath id="clip-mask-5"><rect x="112" y="100" width="61" height="21"><set attributeName="x" to="51" begin="0; animate17.end + 1" /><animate attributeName="x" from="51" to="112" dur="0.226" begin="animate4.end + 0.5" id="animate5" fill="freeze"/></rect></clipPath><clipPath id="clip-mask-6"><rect x="82" y="146" width="23" height="43"><set attributeName="y" to="103" begin="0; animate17.end + 1" /><animate attributeName="y" from="103" to="146" dur="0.159" begin="animate5.end + 0.5" id="animate6" fill="freeze"/></rect></clipPath><clipPath id="clip-mask-7"><rect x="93" y="132" width="50" height="20"><set attributeName="x" to="43" begin="0; animate17.end + 1" /><animate attributeName="x" from="43" to="93" dur="0.185" begin="animate6.end + 0.5" id="animate7" fill="freeze"/></rect></clipPath><clipPath id="clip-mask-8"><rect x="121" y="143" width="25" height="27"><set attributeName="y" to="116" begin="0; animate17.end + 1" /><animate attributeName="y" from="116" to="143" dur="0.100" begin="animate7.end" id="animate8" fill="freeze"/></rect></clipPath><clipPath id="clip-mask-9"><rect x="104" y="170" width="34" height="13"><set attributeName="x" to="70" begin="0; animate17.end + 1" /><animate attributeName="x" from="70" to="104" dur="0.126" begin="animate8.end + 0.5" id="animate9" fill="freeze"/></rect></clipPath><clipPath id="clip-mask-10"><rect x="143" y="131" width="21" height="46"><set attributeName="y" to="85" begin="0; animate17.end + 1" /><animate attributeName="y" from="85" to="131" dur="0.170" begin="animate9.end + 0.5" id="animate10" fill="freeze"/></rect></clipPath><clipPath id="clip-mask-11"><rect x="155" y="120" width="52" height="20"><set attributeName="x" to="103" begin="0; animate17.end + 1" /><animate attributeName="x" from="103" to="155" dur="0.193" begin="animate10.end + 0.5" id="animate11" fill="freeze"/></rect></clipPath><clipPath id="clip-mask-12"><rect x="184" y="129" width="27" height="28"><set attributeName="y" to="101" begin="0; animate17.end + 1" /><animate attributeName="y" from="101" to="129" dur="0.104" begin="animate11.end" id="animate12" fill="freeze"/></rect></clipPath><clipPath id="clip-mask-13"><rect x="164" y="156" width="36" height="14"><set attributeName="x" to="128" begin="0; animate17.end + 1" /><animate attributeName="x" from="128" to="164" dur="0.133" begin="animate12.end + 0.5" id="animate13" fill="freeze"/></rect></clipPath><clipPath id="clip-mask-14"><rect x="73" y="185" width="52" height="57"><set attributeName="y" to="128" begin="0; animate17.end + 1" /><animate attributeName="y" from="128" to="185" dur="0.211" begin="animate13.end + 0.5" id="animate14" fill="freeze"/></rect></clipPath><clipPath id="clip-mask-15"><rect x="112" y="208" width="23" height="26"><set attributeName="x" to="89" begin="0; animate17.end + 1" /><animate attributeName="x" from="89" to="112" dur="0.085" begin="animate14.end + 0.5" id="animate15" fill="freeze"/></rect></clipPath><clipPath id="clip-mask-16"><rect x="142" y="173" width="42" height="50"><set attributeName="y" to="123" begin="0; animate17.end + 1" /><animate attributeName="y" from="123" to="173" dur="0.185" begin="animate15.end + 0.5" id="animate16" fill="freeze"/></rect></clipPath><clipPath id="clip-mask-17"><rect x="171" y="197" width="46" height="45"><set attributeName="x" to="125" begin="0; animate17.end + 1" /><animate attributeName="x" from="125" to="171" dur="0.170" begin="animate16.end + 0.5" id="animate17" fill="freeze"/></rect></clipPath></defs><path d="M 0 0 L 270 270 M 270 0 L 0 270 M 135 0 L 135 270 M 0 135 L 270 135" stroke="#CCCCCC" /><path d="M 24 166 L 9 170 Q 7 171 7 169 Q 7 167 9 165 Q 56 107 67 58 Q 67 57 67 57 Q 68 50 66 41 Q 63 35 68 35 Q 78 34 88 48 Q 91 52 89 55 Q 74 85 59 113 L 53 124" fill="#CCCCCC"/><path d="M 59 113 Q 60 114 70 124 Q 72 127 70 134 Q 68 149 68 215 Q 68 228 64 238 Q 61 245 57 241 Q 56 240 56 240 Q 47 227 50 215 Q 53 201 55 187 Q 60 141 53 124" fill="#CCCCCC"/><path d="M 143 59 L 130 80 Q 92 136 80 137 Q 77 138 78 135 Q 78 134 81 131 Q 99 109 111 88 Q 125 67 133 45 Q 136 38 132 30 Q 130 24 135 24 Q 140 24 146 28 Q 154 33 155 37 Q 156 40 154 43 Q 151 46 148 50 L 145 55" fill="#CCCCCC"/><path d="M 148 50 Q 151 52 156 57 Q 194 90 228 103 Q 244 108 258 113 Q 262 115 261 117 Q 261 118 256 119 Q 229 123 213 121 Q 199 117 145 55" fill="#CCCCCC"/><path d="M 129 109 L 136 107 Q 143 105 149 103 Q 155 100 163 101 Q 170 102 172 105 Q 173 107 171 108 Q 170 109 165 111 Q 152 114 141 117 Q 129 121 118 116 Q 112 112 120 110" fill="#CCCCCC"/><path d="M 105 184 L 104 186 Q 104 189 99 185 Q 96 182 95 177 Q 90 161 84 151 Q 82 148 83 146 Q 84 146 86 146 Q 90 146 93 147 L 98 152 Q 100 157 104 175 L 105 183" fill="#CCCCCC"/><path d="M 123 147 Q 121 146 102 151 Q 100 152 98 152 L 93 147 Q 100 145 107 142 Q 110 141 113 140 Q 126 132 143 143" fill="#CCCCCC"/><path d="M 121 170 Q 126 150 123 147 L 143 143 Q 146 147 143 151 Q 137 155 132 170" fill="#CCCCCC"/><path d="M 104 175 Q 111 173 120 170 Q 120 170 121 170 L 132 170 Q 138 173 138 175 Q 138 177 135 177 Q 116 180 108 182 Q 106 183 105 183" fill="#CCCCCC"/><path d="M 164 171 L 164 173 Q 163 177 159 172 Q 156 169 154 164 Q 151 147 145 137 Q 143 134 144 133 Q 145 131 147 132 Q 152 133 155 133 L 160 140 Q 160 145 164 162 L 164 170" fill="#CCCCCC"/><path d="M 187 133 Q 186 132 183 133 Q 160 139 160 140 L 155 133 Q 162 131 169 129 Q 176 126 183 122 Q 188 120 192 122 Q 204 127 207 129" fill="#CCCCCC"/><path d="M 184 156 Q 189 135 187 133 L 207 129 Q 211 133 207 137 Q 200 142 196 157" fill="#CCCCCC"/><path d="M 164 162 Q 172 160 182 156 Q 183 156 184 156 L 196 157 Q 200 160 200 161 Q 200 163 197 164 Q 177 167 168 169 Q 166 170 164 170" fill="#CCCCCC"/><path d="M 109 216 L 109 217 Q 89 240 77 242 Q 73 242 75 240 Q 78 236 84 231 Q 108 209 107 189 Q 106 186 109 186 Q 114 185 122 193 Q 125 196 123 199 Q 118 203 115 208 L 112 213" fill="#CCCCCC"/><path d="M 115 208 Q 118 208 129 215 Q 134 218 134 222 Q 135 229 133 231 Q 132 234 130 234 Q 127 233 116 218 Q 113 215 112 213" fill="#CCCCCC"/><path d="M 157 221 L 145 223 Q 142 223 144 221 Q 146 217 150 214 Q 169 195 166 177 Q 166 174 168 174 Q 173 173 181 180 Q 184 183 182 186 Q 178 191 174 197 L 171 201" fill="#CCCCCC"/><path d="M 174 197 L 174 197 Q 211 213 214 224 Q 217 236 213 239 Q 212 242 209 241 Q 205 240 201 235 Q 186 217 174 205 Q 172 203 171 201" fill="#CCCCCC"/><path d="M 24 166 L 9 170 Q 7 171 7 169 Q 7 167 9 165 Q 56 107 67 58 Q 67 57 67 57 Q 68 50 66 41 Q 63 35 68 35 Q 78 34 88 48 Q 91 52 89 55 Q 74 85 59 113 L 53 124" fill="#0000ff" clip-path="url(#clip-mask-1)" /><path d="M 59 113 Q 60 114 70 124 Q 72 127 70 134 Q 68 149 68 215 Q 68 228 64 238 Q 61 245 57 241 Q 56 240 56 240 Q 47 227 50 215 Q 53 201 55 187 Q 60 141 53 124" fill="#0000ff" clip-path="url(#clip-mask-2)" /><path d="M 143 59 L 130 80 Q 92 136 80 137 Q 77 138 78 135 Q 78 134 81 131 Q 99 109 111 88 Q 125 67 133 45 Q 136 38 132 30 Q 130 24 135 24 Q 140 24 146 28 Q 154 33 155 37 Q 156 40 154 43 Q 151 46 148 50 L 145 55" fill="#000080" clip-path="url(#clip-mask-3)" /><path d="M 148 50 Q 151 52 156 57 Q 194 90 228 103 Q 244 108 258 113 Q 262 115 261 117 Q 261 118 256 119 Q 229 123 213 121 Q 199 117 145 55" fill="#000080" clip-path="url(#clip-mask-4)" /><path d="M 129 109 L 136 107 Q 143 105 149 103 Q 155 100 163 101 Q 170 102 172 105 Q 173 107 171 108 Q 170 109 165 111 Q 152 114 141 117 Q 129 121 118 116 Q 112 112 120 110" fill="#000080" clip-path="url(#clip-mask-5)" /><path d="M 105 184 L 104 186 Q 104 189 99 185 Q 96 182 95 177 Q 90 161 84 151 Q 82 148 83 146 Q 84 146 86 146 Q 90 146 93 147 L 98 152 Q 100 157 104 175 L 105 183" fill="#000080" clip-path="url(#clip-mask-6)" /><path d="M 123 147 Q 121 146 102 151 Q 100 152 98 152 L 93 147 Q 100 145 107 142 Q 110 141 113 140 Q 126 132 143 143" fill="#000080" clip-path="url(#clip-mask-7)" /><path d="M 121 170 Q 126 150 123 147 L 143 143 Q 146 147 143 151 Q 137 155 132 170" fill="#000080" clip-path="url(#clip-mask-8)" /><path d="M 104 175 Q 111 173 120 170 Q 120 170 121 170 L 132 170 Q 138 173 138 175 Q 138 177 135 177 Q 116 180 108 182 Q 106 183 105 183" fill="#000080" clip-path="url(#clip-mask-9)" /><path d="M 164 171 L 164 173 Q 163 177 159 172 Q 156 169 154 164 Q 151 147 145 137 Q 143 134 144 133 Q 145 131 147 132 Q 152 133 155 133 L 160 140 Q 160 145 164 162 L 164 170" fill="#000080" clip-path="url(#clip-mask-10)" /><path d="M 187 133 Q 186 132 183 133 Q 160 139 160 140 L 155 133 Q 162 131 169 129 Q 176 126 183 122 Q 188 120 192 122 Q 204 127 207 129" fill="#000080" clip-path="url(#clip-mask-11)" /><path d="M 184 156 Q 189 135 187 133 L 207 129 Q 211 133 207 137 Q 200 142 196 157" fill="#000080" clip-path="url(#clip-mask-12)" /><path d="M 164 162 Q 172 160 182 156 Q 183 156 184 156 L 196 157 Q 200 160 200 161 Q 200 163 197 164 Q 177 167 168 169 Q 166 170 164 170" fill="#000080" clip-path="url(#clip-mask-13)" /><path d="M 109 216 L 109 217 Q 89 240 77 242 Q 73 242 75 240 Q 78 236 84 231 Q 108 209 107 189 Q 106 186 109 186 Q 114 185 122 193 Q 125 196 123 199 Q 118 203 115 208 L 112 213" fill="#000080" clip-path="url(#clip-mask-14)" /><path d="M 115 208 Q 118 208 129 215 Q 134 218 134 222 Q 135 229 133 231 Q 132 234 130 234 Q 127 233 116 218 Q 113 215 112 213" fill="#000080" clip-path="url(#clip-mask-15)" /><path d="M 157 221 L 145 223 Q 142 223 144 221 Q 146 217 150 214 Q 169 195 166 177 Q 166 174 168 174 Q 173 173 181 180 Q 184 183 182 186 Q 178 191 174 197 L 171 201" fill="#000080" clip-path="url(#clip-mask-16)" /><path d="M 174 197 L 174 197 Q 211 213 214 224 Q 217 236 213 239 Q 212 242 209 241 Q 205 240 201 235 Q 186 217 174 205 Q 172 203 171 201" fill="#000080" clip-path="url(#clip-mask-17)" /></svg>