<svg xmlns="http://www.w3.org/2000/svg" xmlns:xlink="http://www.w3.org/1999/xlink" width="270" height="270"><defs><clipPath id="clip-mask-1"><rect x="44" y="29" width="64" height="58"><animate attributeName="y" from="-29" to="29" dur="0.215" begin="0; animate10.end + 1" id="animate1" fill="freeze"/></rect></clipPath><clipPath id="clip-mask-2"><rect x="146" y="22" width="64" height="48"><set attributeName="x" to="82" begin="0; animate10.end + 1" /><animate attributeName="x" from="82" to="146" dur="0.237" begin="animate1.end + 0.5" id="animate2" fill="freeze"/></rect></clipPath><clipPath id="clip-mask-3"><rect x="63" y="86" width="29" height="70"><set attributeName="y" to="16" begin="0; animate10.end + 1" /><animate attributeName="y" from="16" to="86" dur="0.259" begin="animate2.end + 0.5" id="animate3" fill="freeze"/></rect></clipPath><clipPath id="clip-mask-4"><rect x="81" y="72" width="106" height="27"><set attributeName="x" to="-25" begin="0; animate10.end + 1" /><animate attributeName="x" from="-25" to="81" dur="0.393" begin="animate3.end + 0.5" id="animate4" fill="freeze"/></rect></clipPath><clipPath id="clip-mask-5"><rect x="160" y="78" width="37" height="54"><set attributeName="y" to="24" begin="0; animate10.end + 1" /><animate attributeName="y" from="24" to="78" dur="0.200" begin="animate4.end" id="animate5" fill="freeze"/></rect></clipPath><clipPath id="clip-mask-6"><rect x="92" y="129" width="89" height="20"><set attributeName="x" to="3" begin="0; animate10.end + 1" /><animate attributeName="x" from="3" to="92" dur="0.330" begin="animate5.end + 0.5" id="animate6" fill="freeze"/></rect></clipPath><clipPath id="clip-mask-7"><rect x="19" y="147" width="102" height="93"><set attributeName="y" to="54" begin="0; animate10.end + 1" /><animate attributeName="y" from="54" to="147" dur="0.344" begin="animate6.end + 0.5" id="animate7" fill="freeze"/></rect></clipPath><clipPath id="clip-mask-8"><rect x="131" y="144" width="26" height="93"><set attributeName="y" to="51" begin="0; animate10.end + 1" /><animate attributeName="y" from="51" to="144" dur="0.344" begin="animate7.end + 0.5" id="animate8" fill="freeze"/></rect></clipPath><clipPath id="clip-mask-9"><rect x="149" y="202" width="101" height="45"><set attributeName="x" to="48" begin="0; animate10.end + 1" /><animate attributeName="x" from="48" to="149" dur="0.374" begin="animate8.end" id="animate9" fill="freeze"/></rect></clipPath><clipPath id="clip-mask-10"><rect x="218" y="179" width="32" height="44"><set attributeName="y" to="223" begin="0; animate10.end + 1" /><animate attributeName="y" from="223" to="179" dur="0.163" begin="animate9.end" id="animate10" fill="freeze"/></rect></clipPath></defs><path d="M 0 0 L 270 270 M 270 0 L 0 270 M 135 0 L 135 270 M 0 135 L 270 135" stroke="#CCCCCC" /><path d="M 91 29 Q 97 29 102 33 Q 108 37 108 41 Q 108 43 105 44 Q 103 47 102 49 Q 97 55 91 61 Q 82 70 73 76 Q 64 81 57 84 Q 49 87 48 87 Q 44 87 44 86 Q 54 78 59 72 Q 70 62 78 51 Q 85 42 87 37 Q 89 34 89 31 Q 89 29 91 29" fill="#CCCCCC"/><path d="M 147 22 Q 150 22 157 24 Q 170 28 183 33 Q 200 41 206 48 Q 210 54 210 60 Q 210 63 208 67 Q 207 70 204 70 Q 201 70 196 67 Q 189 63 176 51 Q 160 35 152 29 Q 146 25 146 23 Q 146 22 147 22" fill="#CCCCCC"/><path d="M 68 86 Q 73 86 78 87 Q 80 88 81 88 L 88 99 Q 88 102 88 105 Q 91 127 92 139 L 92 148 Q 91 151 90 153 Q 89 156 88 156 Q 85 156 83 153 Q 79 148 79 143 L 76 123 Q 74 109 72 103 Q 71 97 65 92 Q 63 90 63 90 Q 63 86 68 86" fill="#CCCCCC"/><path d="M 160 86 Q 152 86 134 88 Q 113 91 94 97 Q 90 99 88 99 L 81 88 Q 89 88 96 86 Q 117 82 157 76 Q 163 75 169 73 Q 173 72 174 72 Q 177 72 187 78" fill="#CCCCCC"/><path d="M 161 129 Q 162 129 162 128 Q 164 121 166 106 Q 169 93 169 90 Q 169 86 160 86 L 187 78 Q 197 85 197 89 Q 197 92 195 95 Q 186 104 183 115 Q 177 128 177 128 Q 176 130 175 132" fill="#CCCCCC"/><path d="M 92 139 Q 121 137 146 132 Q 156 130 161 129 L 175 132 Q 176 132 176 132 Q 181 136 181 138 Q 181 141 178 141 Q 163 141 151 143 Q 149 143 147 144 L 131 145 Q 113 147 102 149 L 102 149 Q 99 149 97 149 Q 94 149 92 148" fill="#CCCCCC"/><path d="M 113 147 L 113 147 Q 115 149 116 150 Q 121 155 121 159 Q 121 162 120 165 Q 117 167 113 173 Q 103 191 88 206 Q 73 221 53 231 Q 34 240 21 240 Q 19 240 19 238 Q 19 238 23 236 Q 40 228 63 209 Q 85 190 95 173 Q 102 160 102 149" fill="#CCCCCC"/><path d="M 147 144 Q 149 144 150 145 Q 157 149 157 154 Q 157 155 155 159 Q 153 163 151 176 Q 149 189 149 202 L 149 237 Q 135 225 135 201 Q 135 191 136 177 Q 136 170 136 164 Q 136 155 134 150 Q 132 147 131 145" fill="#CCCCCC"/><path d="M 149 202 Q 149 217 158 223 Q 167 229 188 229 Q 210 229 218 223 L 250 223 Q 250 230 237 237 Q 220 247 190 247 Q 162 247 149 237" fill="#CCCCCC"/><path d="M 218 223 Q 229 218 233 183 Q 233 179 234 179 Q 236 179 237 185 Q 241 203 247 214 Q 250 219 250 223" fill="#CCCCCC"/><path d="M 91 29 Q 97 29 102 33 Q 108 37 108 41 Q 108 43 105 44 Q 103 47 102 49 Q 97 55 91 61 Q 82 70 73 76 Q 64 81 57 84 Q 49 87 48 87 Q 44 87 44 86 Q 54 78 59 72 Q 70 62 78 51 Q 85 42 87 37 Q 89 34 89 31 Q 89 29 91 29" fill="#000080" clip-path="url(#clip-mask-1)" /><path d="M 147 22 Q 150 22 157 24 Q 170 28 183 33 Q 200 41 206 48 Q 210 54 210 60 Q 210 63 208 67 Q 207 70 204 70 Q 201 70 196 67 Q 189 63 176 51 Q 160 35 152 29 Q 146 25 146 23 Q 146 22 147 22" fill="#000080" clip-path="url(#clip-mask-2)" /><path d="M 68 86 Q 73 86 78 87 Q 80 88 81 88 L 88 99 Q 88 102 88 105 Q 91 127 92 139 L 92 148 Q 91 151 90 153 Q 89 156 88 156 Q 85 156 83 153 Q 79 148 79 143 L 76 123 Q 74 109 72 103 Q 71 97 65 92 Q 63 90 63 90 Q 63 86 68 86" fill="#000080" clip-path="url(#clip-mask-3)" /><path d="M 160 86 Q 152 86 134 88 Q 113 91 94 97 Q 90 99 88 99 L 81 88 Q 89 88 96 86 Q 117 82 157 76 Q 163 75 169 73 Q 173 72 174 72 Q 177 72 187 78" fill="#000080" clip-path="url(#clip-mask-4)" /><path d="M 161 129 Q 162 129 162 128 Q 164 121 166 106 Q 169 93 169 90 Q 169 86 160 86 L 187 78 Q 197 85 197 89 Q 197 92 195 95 Q 186 104 183 115 Q 177 128 177 128 Q 176 130 175 132" fill="#000080" clip-path="url(#clip-mask-5)" /><path d="M 92 139 Q 121 137 146 132 Q 156 130 161 129 L 175 132 Q 176 132 176 132 Q 181 136 181 138 Q 181 141 178 141 Q 163 141 151 143 Q 149 143 147 144 L 131 145 Q 113 147 102 149 L 102 149 Q 99 149 97 149 Q 94 149 92 148" fill="#000080" clip-path="url(#clip-mask-6)" /><path d="M 113 147 L 113 147 Q 115 149 116 150 Q 121 155 121 159 Q 121 162 120 165 Q 117 167 113 173 Q 103 191 88 206 Q 73 221 53 231 Q 34 240 21 240 Q 19 240 19 238 Q 19 238 23 236 Q 40 228 63 209 Q 85 190 95 173 Q 102 160 102 149" fill="#0000ff" clip-path="url(#clip-mask-7)" /><path d="M 147 144 Q 149 144 150 145 Q 157 149 157 154 Q 157 155 155 159 Q 153 163 151 176 Q 149 189 149 202 L 149 237 Q 135 225 135 201 Q 135 191 136 177 Q 136 170 136 164 Q 136 155 134 150 Q 132 147 131 145" fill="#0000ff" clip-path="url(#clip-mask-8)" /><path d="M 149 202 Q 149 217 158 223 Q 167 229 188 229 Q 210 229 218 223 L 250 223 Q 250 230 237 237 Q 220 247 190 247 Q 162 247 149 237" fill="#0000ff" clip-path="url(#clip-mask-9)" /><path d="M 218 223 Q 229 218 233 183 Q 233 179 234 179 Q 236 179 237 185 Q 241 203 247 214 Q 250 219 250 223" fill="#0000ff" clip-path="url(#clip-mask-10)" /></svg>