<svg xmlns="http://www.w3.org/2000/svg" xmlns:xlink="http://www.w3.org/1999/xlink" width="270" height="270"><defs><clipPath id="clip-mask-1"><rect x="73" y="31" width="112" height="28"><animate attributeName="x" from="-39" to="73" dur="0.415" begin="0; animate10.end + 1" id="animate1" fill="freeze"/></rect></clipPath><clipPath id="clip-mask-2"><rect x="32" y="102" width="25" height="113"><set attributeName="y" to="-11" begin="0; animate10.end + 1" /><animate attributeName="y" from="-11" to="102" dur="0.419" begin="animate1.end + 0.5" id="animate2" fill="freeze"/></rect></clipPath><clipPath id="clip-mask-3"><rect x="51" y="85" width="182" height="37"><set attributeName="x" to="-131" begin="0; animate10.end + 1" /><animate attributeName="x" from="-131" to="51" dur="0.674" begin="animate2.end + 0.5" id="animate3" fill="freeze"/></rect></clipPath><clipPath id="clip-mask-4"><rect x="203" y="98" width="34" height="140"><set attributeName="y" to="-42" begin="0; animate10.end + 1" /><animate attributeName="y" from="-42" to="98" dur="0.519" begin="animate3.end" id="animate4" fill="freeze"/></rect></clipPath><clipPath id="clip-mask-5"><rect x="170" y="197" width="33" height="41"><set attributeName="x" to="203" begin="0; animate10.end + 1" /><animate attributeName="x" from="203" to="170" dur="0.122" begin="animate4.end" id="animate5" fill="freeze"/></rect></clipPath><clipPath id="clip-mask-6"><rect x="112" y="53" width="25" height="153"><set attributeName="y" to="-100" begin="0; animate10.end + 1" /><animate attributeName="y" from="-100" to="53" dur="0.567" begin="animate5.end + 0.5" id="animate6" fill="freeze"/></rect></clipPath><clipPath id="clip-mask-7"><rect x="60" y="149" width="32" height="33"><set attributeName="y" to="116" begin="0; animate10.end + 1" /><animate attributeName="y" from="116" to="149" dur="0.122" begin="animate6.end + 0.5" id="animate7" fill="freeze"/></rect></clipPath><clipPath id="clip-mask-8"><rect x="67" y="131" width="45" height="37"><set attributeName="x" to="22" begin="0; animate10.end + 1" /><animate attributeName="x" from="22" to="67" dur="0.167" begin="animate7.end + 0.5" id="animate8" fill="freeze"/></rect></clipPath><clipPath id="clip-mask-9"><rect x="136" y="140" width="34" height="32"><set attributeName="y" to="108" begin="0; animate10.end + 1" /><animate attributeName="y" from="108" to="140" dur="0.119" begin="animate8.end + 0.5" id="animate9" fill="freeze"/></rect></clipPath><clipPath id="clip-mask-10"><rect x="143" y="119" width="56" height="51"><set attributeName="x" to="87" begin="0; animate10.end + 1" /><animate attributeName="x" from="87" to="143" dur="0.207" begin="animate9.end + 0.5" id="animate10" fill="freeze"/></rect></clipPath></defs><path d="M 0 0 L 270 270 M 270 0 L 0 270 M 135 0 L 135 270 M 0 135 L 270 135" stroke="#CCCCCC" /><path d="M 113 56 Q 93 59 81 52 Q 73 46 84 45 Q 110 44 142 37 Q 167 31 174 32 Q 183 35 184 39 Q 185 41 183 43 Q 180 45 128 53" fill="#CCCCCC"/><path d="M 54 122 Q 53 136 55 176 Q 57 198 56 205 Q 55 211 53 212 Q 52 215 49 212 Q 44 209 41 203 Q 38 198 39 191 Q 42 161 41 135 Q 41 123 33 109 Q 32 106 33 104 Q 35 102 36 103 Q 42 104 51 111" fill="#CCCCCC"/><path d="M 71 116 L 58 121 Q 56 122 54 122 L 51 111 Q 72 108 95 103 Q 105 101 119 99 L 133 97 Q 150 94 170 93 Q 194 90 204 87 Q 211 85 218 89 Q 229 93 233 98 L 207 103 Q 205 101 200 101 Q 143 105 133 107 L 119 109" fill="#CCCCCC"/><path d="M 233 98 Q 237 100 232 106 Q 228 112 228 123 Q 225 187 220 205 Q 218 219 211 230 Q 207 238 203 238 L 203 197 Q 210 168 209 117 Q 210 105 207 103" fill="#CCCCCC"/><path d="M 203 238 Q 200 238 197 234 Q 192 225 173 206 Q 170 202 171 201 Q 171 199 175 201 Q 183 203 192 205 Q 200 207 203 197" fill="#CCCCCC"/><path d="M 119 99 Q 118 88 118 79 Q 117 64 113 56 Q 112 56 113 56 L 128 53 Q 131 55 133 56 Q 137 59 136 63 Q 133 79 133 97 L 133 107 Q 132 142 133 153 Q 133 170 132 188 Q 131 203 126 206 Q 124 206 123 204 Q 117 197 119 109" fill="#CCCCCC"/><path d="M 86 163 L 86 164 Q 71 181 62 181 Q 60 182 61 179 Q 63 177 68 174 Q 81 161 83 149 L 92 156" fill="#CCCCCC"/><path d="M 83 149 Q 75 142 69 137 Q 67 135 67 133 Q 67 131 69 132 Q 106 146 109 156 Q 112 164 110 166 Q 109 168 107 168 Q 106 168 92 156" fill="#CCCCCC"/><path d="M 165 153 L 165 156 Q 148 172 138 172 Q 136 172 137 170 Q 140 167 144 164 Q 158 152 160 140 L 170 150" fill="#CCCCCC"/><path d="M 160 140 Q 152 133 145 127 Q 143 125 143 122 Q 143 119 145 120 Q 193 143 196 156 Q 199 165 196 168 Q 194 170 193 170 Q 189 169 186 165 Q 178 157 170 150" fill="#CCCCCC"/><path d="M 113 56 Q 93 59 81 52 Q 73 46 84 45 Q 110 44 142 37 Q 167 31 174 32 Q 183 35 184 39 Q 185 41 183 43 Q 180 45 128 53" fill="#000080" clip-path="url(#clip-mask-1)" /><path d="M 54 122 Q 53 136 55 176 Q 57 198 56 205 Q 55 211 53 212 Q 52 215 49 212 Q 44 209 41 203 Q 38 198 39 191 Q 42 161 41 135 Q 41 123 33 109 Q 32 106 33 104 Q 35 102 36 103 Q 42 104 51 111" fill="#000080" clip-path="url(#clip-mask-2)" /><path d="M 71 116 L 58 121 Q 56 122 54 122 L 51 111 Q 72 108 95 103 Q 105 101 119 99 L 133 97 Q 150 94 170 93 Q 194 90 204 87 Q 211 85 218 89 Q 229 93 233 98 L 207 103 Q 205 101 200 101 Q 143 105 133 107 L 119 109" fill="#000080" clip-path="url(#clip-mask-3)" /><path d="M 233 98 Q 237 100 232 106 Q 228 112 228 123 Q 225 187 220 205 Q 218 219 211 230 Q 207 238 203 238 L 203 197 Q 210 168 209 117 Q 210 105 207 103" fill="#000080" clip-path="url(#clip-mask-4)" /><path d="M 203 238 Q 200 238 197 234 Q 192 225 173 206 Q 170 202 171 201 Q 171 199 175 201 Q 183 203 192 205 Q 200 207 203 197" fill="#000080" clip-path="url(#clip-mask-5)" /><path d="M 119 99 Q 118 88 118 79 Q 117 64 113 56 Q 112 56 113 56 L 128 53 Q 131 55 133 56 Q 137 59 136 63 Q 133 79 133 97 L 133 107 Q 132 142 133 153 Q 133 170 132 188 Q 131 203 126 206 Q 124 206 123 204 Q 117 197 119 109" fill="#000080" clip-path="url(#clip-mask-6)" /><path d="M 86 163 L 86 164 Q 71 181 62 181 Q 60 182 61 179 Q 63 177 68 174 Q 81 161 83 149 L 92 156" fill="#0000ff" clip-path="url(#clip-mask-7)" /><path d="M 83 149 Q 75 142 69 137 Q 67 135 67 133 Q 67 131 69 132 Q 106 146 109 156 Q 112 164 110 166 Q 109 168 107 168 Q 106 168 92 156" fill="#0000ff" clip-path="url(#clip-mask-8)" /><path d="M 165 153 L 165 156 Q 148 172 138 172 Q 136 172 137 170 Q 140 167 144 164 Q 158 152 160 140 L 170 150" fill="#000080" clip-path="url(#clip-mask-9)" /><path d="M 160 140 Q 152 133 145 127 Q 143 125 143 122 Q 143 119 145 120 Q 193 143 196 156 Q 199 165 196 168 Q 194 170 193 170 Q 189 169 186 165 Q 178 157 170 150" fill="#000080" clip-path="url(#clip-mask-10)" /></svg>