<svg xmlns="http://www.w3.org/2000/svg" xmlns:xlink="http://www.w3.org/1999/xlink" width="270" height="270"><defs><clipPath id="clip-mask-1"><rect x="39" y="59" width="39" height="30"><animate attributeName="x" from="0" to="39" dur="0.144" begin="0; animate12.end + 1" id="animate1" fill="freeze"/></rect></clipPath><clipPath id="clip-mask-2"><rect x="21" y="118" width="58" height="95"><set attributeName="y" to="213" begin="0; animate12.end + 1" /><animate attributeName="y" from="213" to="118" dur="0.352" begin="animate1.end + 0.5" id="animate2" fill="freeze"/></rect></clipPath><clipPath id="clip-mask-3"><rect x="94" y="12" width="107" height="45"><set attributeName="x" to="201" begin="0; animate12.end + 1" /><animate attributeName="x" from="201" to="94" dur="0.396" begin="animate2.end + 0.5" id="animate3" fill="freeze"/></rect></clipPath><clipPath id="clip-mask-4"><rect x="98" y="63" width="23" height="27"><set attributeName="x" to="75" begin="0; animate12.end + 1" /><animate attributeName="x" from="75" to="98" dur="0.085" begin="animate3.end + 0.5" id="animate4" fill="freeze"/></rect></clipPath><clipPath id="clip-mask-5"><rect x="133" y="54" width="22" height="26"><set attributeName="x" to="111" begin="0; animate12.end + 1" /><animate attributeName="x" from="111" to="133" dur="0.081" begin="animate4.end + 0.5" id="animate5" fill="freeze"/></rect></clipPath><clipPath id="clip-mask-6"><rect x="159" y="42" width="51" height="51"><set attributeName="y" to="-9" begin="0; animate12.end + 1" /><animate attributeName="y" from="-9" to="42" dur="0.189" begin="animate5.end + 0.5" id="animate6" fill="freeze"/></rect></clipPath><clipPath id="clip-mask-7"><rect x="93" y="81" width="122" height="35"><set attributeName="x" to="-29" begin="0; animate12.end + 1" /><animate attributeName="x" from="-29" to="93" dur="0.452" begin="animate6.end + 0.5" id="animate7" fill="freeze"/></rect></clipPath><clipPath id="clip-mask-8"><rect x="183" y="93" width="36" height="56"><set attributeName="y" to="37" begin="0; animate12.end + 1" /><animate attributeName="y" from="37" to="93" dur="0.207" begin="animate7.end" id="animate8" fill="freeze"/></rect></clipPath><clipPath id="clip-mask-9"><rect x="81" y="107" width="167" height="41"><set attributeName="x" to="-86" begin="0; animate12.end + 1" /><animate attributeName="x" from="-86" to="81" dur="0.619" begin="animate8.end + 0.5" id="animate9" fill="freeze"/></rect></clipPath><clipPath id="clip-mask-10"><rect x="96" y="148" width="107" height="26"><set attributeName="x" to="-11" begin="0; animate12.end + 1" /><animate attributeName="x" from="-11" to="96" dur="0.396" begin="animate9.end + 0.5" id="animate10" fill="freeze"/></rect></clipPath><clipPath id="clip-mask-11"><rect x="140" y="105" width="22" height="152"><set attributeName="y" to="-47" begin="0; animate12.end + 1" /><animate attributeName="y" from="-47" to="105" dur="0.563" begin="animate10.end + 0.5" id="animate11" fill="freeze"/></rect></clipPath><clipPath id="clip-mask-12"><rect x="113" y="221" width="30" height="34"><set attributeName="x" to="143" begin="0; animate12.end + 1" /><animate attributeName="x" from="143" to="113" dur="0.111" begin="animate11.end" id="animate12" fill="freeze"/></rect></clipPath></defs><path d="M 0 0 L 270 270 M 270 0 L 0 270 M 135 0 L 135 270 M 0 135 L 270 135" stroke="#CCCCCC" /><path d="M 41 67 L 39 64 Q 39 61 40 60 Q 42 59 46 59 Q 72 64 75 72 Q 78 80 77 84 Q 75 88 73 88 Q 69 89 64 85 Q 56 78 48 72" fill="#CCCCCC"/><path d="M 78 118 L 79 123 Q 79 125 76 130 Q 64 157 50 186 Q 46 196 43 209 Q 42 211 39 212 Q 36 213 33 211 Q 29 208 25 201 Q 21 196 22 189 Q 23 184 27 185 Q 31 185 34 181 Q 50 161 75 123" fill="#CCCCCC"/><path d="M 170 20 L 171 16 Q 171 13 173 12 Q 177 12 181 15 Q 193 21 198 25 Q 201 29 200 32 Q 198 34 193 34 Q 180 35 158 42 Q 105 57 96 54 Q 94 54 96 51 Q 148 35 166 22" fill="#CCCCCC"/><path d="M 98 70 L 98 68 Q 98 65 99 64 Q 102 63 115 70 Q 120 74 120 77 Q 121 84 119 87 Q 118 90 115 90 Q 112 89 103 76" fill="#CCCCCC"/><path d="M 133 60 L 133 57 Q 133 55 134 55 Q 136 54 139 56 L 152 63 Q 155 67 155 72 Q 155 75 153 78 Q 151 80 148 79 Q 142 76 136 64" fill="#CCCCCC"/><path d="M 159 93 Q 176 71 185 56 Q 187 51 186 48 Q 185 42 189 42 Q 195 42 201 46 Q 206 51 208 55 Q 210 58 205 60 Q 193 69 171 89" fill="#CCCCCC"/><path d="M 188 100 Q 185 97 177 99 Q 164 102 150 105 L 140 107 Q 129 110 118 112 Q 107 116 100 112 Q 95 111 94 109 Q 93 105 98 105 Q 101 104 159 93 L 171 89 Q 190 81 196 83 Q 210 90 215 93" fill="#CCCCCC"/><path d="M 189 118 Q 192 104 188 100 L 215 93 Q 219 98 215 104 Q 210 108 206 115 L 201 128 Q 198 137 195 149 L 183 148 Q 185 139 187 130" fill="#CCCCCC"/><path d="M 144 136 Q 122 140 102 147 Q 98 148 93 147 Q 88 146 85 143 Q 81 139 86 138 Q 117 132 144 127 L 160 125 Q 160 124 160 124 Q 176 121 189 118 L 206 115 Q 210 113 213 113 Q 229 107 244 117 Q 248 120 247 123 Q 246 126 229 126 Q 213 127 201 128 L 187 130 Q 171 131 159 134" fill="#CCCCCC"/><path d="M 203 155 L 203 157 Q 203 160 200 160 Q 176 162 158 165 L 144 167 Q 124 170 111 173 Q 107 174 104 173 Q 101 172 99 170 Q 96 165 102 164 Q 122 161 144 157 L 158 154 Q 182 148 183 148 L 195 149" fill="#CCCCCC"/><path d="M 158 165 Q 158 169 159 206 Q 161 238 150 253 Q 146 257 143 255 L 141 228 Q 144 225 144 218 Q 144 188 144 167 L 144 157 Q 144 145 144 136 L 144 127 Q 144 117 142 111 Q 140 109 140 107 L 150 105 Q 158 109 160 112 Q 162 115 160 122 Q 160 123 160 125 L 159 134 Q 159 143 158 154" fill="#CCCCCC"/><path d="M 143 255 Q 133 243 116 227 Q 113 224 113 223 Q 113 221 116 222 Q 125 225 132 228 Q 138 230 141 228" fill="#CCCCCC"/><path d="M 41 67 L 39 64 Q 39 61 40 60 Q 42 59 46 59 Q 72 64 75 72 Q 78 80 77 84 Q 75 88 73 88 Q 69 89 64 85 Q 56 78 48 72" fill="#0000ff" clip-path="url(#clip-mask-1)" /><path d="M 78 118 L 79 123 Q 79 125 76 130 Q 64 157 50 186 Q 46 196 43 209 Q 42 211 39 212 Q 36 213 33 211 Q 29 208 25 201 Q 21 196 22 189 Q 23 184 27 185 Q 31 185 34 181 Q 50 161 75 123" fill="#0000ff" clip-path="url(#clip-mask-2)" /><path d="M 170 20 L 171 16 Q 171 13 173 12 Q 177 12 181 15 Q 193 21 198 25 Q 201 29 200 32 Q 198 34 193 34 Q 180 35 158 42 Q 105 57 96 54 Q 94 54 96 51 Q 148 35 166 22" fill="#000080" clip-path="url(#clip-mask-3)" /><path d="M 98 70 L 98 68 Q 98 65 99 64 Q 102 63 115 70 Q 120 74 120 77 Q 121 84 119 87 Q 118 90 115 90 Q 112 89 103 76" fill="#000080" clip-path="url(#clip-mask-4)" /><path d="M 133 60 L 133 57 Q 133 55 134 55 Q 136 54 139 56 L 152 63 Q 155 67 155 72 Q 155 75 153 78 Q 151 80 148 79 Q 142 76 136 64" fill="#000080" clip-path="url(#clip-mask-5)" /><path d="M 159 93 Q 176 71 185 56 Q 187 51 186 48 Q 185 42 189 42 Q 195 42 201 46 Q 206 51 208 55 Q 210 58 205 60 Q 193 69 171 89" fill="#000080" clip-path="url(#clip-mask-6)" /><path d="M 188 100 Q 185 97 177 99 Q 164 102 150 105 L 140 107 Q 129 110 118 112 Q 107 116 100 112 Q 95 111 94 109 Q 93 105 98 105 Q 101 104 159 93 L 171 89 Q 190 81 196 83 Q 210 90 215 93" fill="#000080" clip-path="url(#clip-mask-7)" /><path d="M 189 118 Q 192 104 188 100 L 215 93 Q 219 98 215 104 Q 210 108 206 115 L 201 128 Q 198 137 195 149 L 183 148 Q 185 139 187 130" fill="#000080" clip-path="url(#clip-mask-8)" /><path d="M 144 136 Q 122 140 102 147 Q 98 148 93 147 Q 88 146 85 143 Q 81 139 86 138 Q 117 132 144 127 L 160 125 Q 160 124 160 124 Q 176 121 189 118 L 206 115 Q 210 113 213 113 Q 229 107 244 117 Q 248 120 247 123 Q 246 126 229 126 Q 213 127 201 128 L 187 130 Q 171 131 159 134" fill="#000080" clip-path="url(#clip-mask-9)" /><path d="M 203 155 L 203 157 Q 203 160 200 160 Q 176 162 158 165 L 144 167 Q 124 170 111 173 Q 107 174 104 173 Q 101 172 99 170 Q 96 165 102 164 Q 122 161 144 157 L 158 154 Q 182 148 183 148 L 195 149" fill="#000080" clip-path="url(#clip-mask-10)" /><path d="M 158 165 Q 158 169 159 206 Q 161 238 150 253 Q 146 257 143 255 L 141 228 Q 144 225 144 218 Q 144 188 144 167 L 144 157 Q 144 145 144 136 L 144 127 Q 144 117 142 111 Q 140 109 140 107 L 150 105 Q 158 109 160 112 Q 162 115 160 122 Q 160 123 160 125 L 159 134 Q 159 143 158 154" fill="#000080" clip-path="url(#clip-mask-11)" /><path d="M 143 255 Q 133 243 116 227 Q 113 224 113 223 Q 113 221 116 222 Q 125 225 132 228 Q 138 230 141 228" fill="#000080" clip-path="url(#clip-mask-12)" /></svg>