<svg xmlns="http://www.w3.org/2000/svg" xmlns:xlink="http://www.w3.org/1999/xlink" width="270" height="270"><defs><clipPath id="clip-mask-1"><rect x="21" y="52" width="75" height="178"><animate attributeName="y" from="-126" to="52" dur="0.659" begin="0; animate5.end + 1" id="animate1" fill="freeze"/></rect></clipPath><clipPath id="clip-mask-2"><rect x="92" y="38" width="84" height="31"><set attributeName="x" to="8" begin="0; animate5.end + 1" /><animate attributeName="x" from="8" to="92" dur="0.311" begin="animate1.end + 0.5" id="animate2" fill="freeze"/></rect></clipPath><clipPath id="clip-mask-3"><rect x="130" y="58" width="42" height="164"><set attributeName="y" to="-106" begin="0; animate5.end + 1" /><animate attributeName="y" from="-106" to="58" dur="0.607" begin="animate2.end" id="animate3" fill="freeze"/></rect></clipPath><clipPath id="clip-mask-4"><rect x="152" y="201" width="96" height="30"><set attributeName="x" to="56" begin="0; animate5.end + 1" /><animate attributeName="x" from="56" to="152" dur="0.356" begin="animate3.end" id="animate4" fill="freeze"/></rect></clipPath><clipPath id="clip-mask-5"><rect x="214" y="164" width="32" height="46"><set attributeName="y" to="210" begin="0; animate5.end + 1" /><animate attributeName="y" from="210" to="164" dur="0.170" begin="animate4.end" id="animate5" fill="freeze"/></rect></clipPath></defs><path d="M 0 0 L 270 270 M 270 0 L 0 270 M 135 0 L 135 270 M 0 135 L 270 135" stroke="#CCCCCC" /><path d="M 96 73 L 95 78 Q 93 116 88 142 Q 81 183 58 208 Q 37 230 25 230 Q 21 230 22 228 Q 23 226 27 223 Q 52 201 62 178 Q 74 152 75 130 Q 81 76 72 61 Q 68 54 74 53 Q 78 52 92 60 L 96 69" fill="#CCCCCC"/><path d="M 92 60 Q 119 55 139 41 Q 145 38 150 40 Q 165 45 171 50 Q 176 55 172 60 L 139 58 Q 137 57 134 59 Q 103 69 96 69" fill="#CCCCCC"/><path d="M 172 60 Q 162 68 159 79 Q 152 103 148 141 Q 142 189 152 201 L 152 222 Q 137 213 133 194 Q 130 181 141 63 Q 141 58 139 58" fill="#CCCCCC"/><path d="M 152 201 Q 156 206 166 210 Q 176 213 195 212 Q 209 211 214 207 L 246 210 Q 248 216 242 219 Q 225 227 208 229 Q 204 229 201 229 Q 171 231 152 222" fill="#CCCCCC"/><path d="M 214 207 Q 226 198 234 168 Q 235 164 238 165 Q 240 167 241 178 Q 242 196 246 210" fill="#CCCCCC"/><path d="M 96 73 L 95 78 Q 93 116 88 142 Q 81 183 58 208 Q 37 230 25 230 Q 21 230 22 228 Q 23 226 27 223 Q 52 201 62 178 Q 74 152 75 130 Q 81 76 72 61 Q 68 54 74 53 Q 78 52 92 60 L 96 69" fill="#0000ff" clip-path="url(#clip-mask-1)" /><path d="M 92 60 Q 119 55 139 41 Q 145 38 150 40 Q 165 45 171 50 Q 176 55 172 60 L 139 58 Q 137 57 134 59 Q 103 69 96 69" fill="#0000ff" clip-path="url(#clip-mask-2)" /><path d="M 172 60 Q 162 68 159 79 Q 152 103 148 141 Q 142 189 152 201 L 152 222 Q 137 213 133 194 Q 130 181 141 63 Q 141 58 139 58" fill="#0000ff" clip-path="url(#clip-mask-3)" /><path d="M 152 201 Q 156 206 166 210 Q 176 213 195 212 Q 209 211 214 207 L 246 210 Q 248 216 242 219 Q 225 227 208 229 Q 204 229 201 229 Q 171 231 152 222" fill="#0000ff" clip-path="url(#clip-mask-4)" /><path d="M 214 207 Q 226 198 234 168 Q 235 164 238 165 Q 240 167 241 178 Q 242 196 246 210" fill="#0000ff" clip-path="url(#clip-mask-5)" /></svg>