<svg xmlns="http://www.w3.org/2000/svg" xmlns:xlink="http://www.w3.org/1999/xlink" width="270" height="270"><defs><clipPath id="clip-mask-1"><rect x="69" y="29" width="119" height="38"><animate attributeName="x" from="-50" to="69" dur="0.441" begin="0; animate11.end + 1" id="animate1" fill="freeze"/></rect></clipPath><clipPath id="clip-mask-2"><rect x="128" y="45" width="61" height="40"><set attributeName="y" to="5" begin="0; animate11.end + 1" /><animate attributeName="y" from="5" to="45" dur="0.148" begin="animate1.end" id="animate2" fill="freeze"/></rect></clipPath><clipPath id="clip-mask-3"><rect x="113" y="78" width="39" height="108"><set attributeName="y" to="-30" begin="0; animate11.end + 1" /><animate attributeName="y" from="-30" to="78" dur="0.400" begin="animate2.end + 0.5" id="animate3" fill="freeze"/></rect></clipPath><clipPath id="clip-mask-4"><rect x="109" y="160" width="22" height="27"><set attributeName="x" to="131" begin="0; animate11.end + 1" /><animate attributeName="x" from="131" to="109" dur="0.081" begin="animate3.end" id="animate4" fill="freeze"/></rect></clipPath><clipPath id="clip-mask-5"><rect x="70" y="100" width="38" height="29"><set attributeName="x" to="32" begin="0; animate11.end + 1" /><animate attributeName="x" from="32" to="70" dur="0.141" begin="animate4.end + 0.5" id="animate5" fill="freeze"/></rect></clipPath><clipPath id="clip-mask-6"><rect x="64" y="133" width="56" height="39"><set attributeName="x" to="8" begin="0; animate11.end + 1" /><animate attributeName="x" from="8" to="64" dur="0.207" begin="animate5.end + 0.5" id="animate6" fill="freeze"/></rect></clipPath><clipPath id="clip-mask-7"><rect x="150" y="77" width="54" height="47"><set attributeName="x" to="204" begin="0; animate11.end + 1" /><animate attributeName="x" from="204" to="150" dur="0.200" begin="animate6.end + 0.5" id="animate7" fill="freeze"/></rect></clipPath><clipPath id="clip-mask-8"><rect x="156" y="137" width="45" height="35"><set attributeName="x" to="111" begin="0; animate11.end + 1" /><animate attributeName="x" from="111" to="156" dur="0.167" begin="animate7.end + 0.5" id="animate8" fill="freeze"/></rect></clipPath><clipPath id="clip-mask-9"><rect x="31" y="125" width="28" height="108"><set attributeName="y" to="17" begin="0; animate11.end + 1" /><animate attributeName="y" from="17" to="125" dur="0.400" begin="animate8.end + 0.5" id="animate9" fill="freeze"/></rect></clipPath><clipPath id="clip-mask-10"><rect x="50" y="186" width="160" height="44"><set attributeName="x" to="-110" begin="0; animate11.end + 1" /><animate attributeName="x" from="-110" to="50" dur="0.593" begin="animate9.end" id="animate10" fill="freeze"/></rect></clipPath><clipPath id="clip-mask-11"><rect x="201" y="118" width="37" height="122"><set attributeName="y" to="-4" begin="0; animate11.end + 1" /><animate attributeName="y" from="-4" to="118" dur="0.452" begin="animate10.end + 0.5" id="animate11" fill="freeze"/></rect></clipPath></defs><path d="M 0 0 L 270 270 M 270 0 L 0 270 M 135 0 L 135 270 M 0 135 L 270 135" stroke="#CCCCCC" /><path d="M 154 45 Q 151 43 148 45 Q 107 59 99 61 Q 89 67 80 62 Q 74 59 72 55 Q 69 49 76 49 Q 96 50 104 48 Q 135 39 155 32 Q 162 29 168 32 Q 187 44 188 49" fill="#CCCCCC"/><path d="M 143 64 L 157 50 Q 158 47 154 45 L 188 49 Q 189 54 183 56 Q 171 58 133 85 L 128 81" fill="#CCCCCC"/><path d="M 133 85 Q 142 92 147 126 Q 152 167 138 180 Q 132 186 128 186 L 131 162 Q 135 151 134 135 Q 134 118 128 101 Q 125 90 116 84 Q 113 81 116 80 Q 118 78 123 79 Q 126 80 128 81" fill="#CCCCCC"/><path d="M 128 186 Q 125 187 122 183 Q 121 177 114 168 Q 110 165 110 163 Q 109 160 112 161 Q 117 163 122 165 Q 128 166 131 162" fill="#CCCCCC"/><path d="M 72 109 L 71 107 Q 70 104 71 103 Q 75 100 94 107 Q 103 110 105 115 Q 108 122 107 125 Q 106 128 104 129 Q 100 129 97 127 Q 87 119 78 113" fill="#CCCCCC"/><path d="M 68 158 L 84 152 Q 118 133 120 134 Q 120 137 118 139 Q 116 142 113 145 Q 92 162 87 169 Q 85 172 82 172 Q 73 169 67 167 Q 64 166 64 162 Q 64 160 67 159" fill="#CCCCCC"/><path d="M 181 86 L 180 81 Q 179 78 182 78 Q 186 77 191 80 Q 198 85 201 89 Q 204 93 198 96 Q 191 98 176 110 Q 168 116 155 123 Q 150 124 153 120 Q 171 99 177 91" fill="#CCCCCC"/><path d="M 156 143 L 156 140 Q 156 137 158 139 Q 193 145 197 157 Q 201 166 199 169 Q 198 172 196 172 Q 193 171 188 167 Q 172 154 159 145" fill="#CCCCCC"/><path d="M 50 230 Q 47 233 43 231 Q 37 227 34 223 Q 31 218 37 213 Q 45 202 46 180 Q 48 156 36 134 Q 33 128 36 126 Q 39 125 43 127 Q 51 130 56 135 Q 59 140 59 147 Q 58 174 58 199" fill="#CCCCCC"/><path d="M 198 195 L 155 201 Q 62 216 50 230 L 58 199 Q 56 209 65 207 Q 127 191 210 186 L 208 199" fill="#CCCCCC"/><path d="M 210 186 Q 216 138 208 125 Q 208 121 210 120 Q 214 118 218 120 Q 229 126 234 131 Q 238 136 235 140 Q 234 141 234 143 Q 231 149 224 201 Q 223 228 215 236 Q 211 240 208 234 Q 201 216 204 209 Q 207 204 208 199" fill="#CCCCCC"/><path d="M 154 45 Q 151 43 148 45 Q 107 59 99 61 Q 89 67 80 62 Q 74 59 72 55 Q 69 49 76 49 Q 96 50 104 48 Q 135 39 155 32 Q 162 29 168 32 Q 187 44 188 49" fill="#000080" clip-path="url(#clip-mask-1)" /><path d="M 143 64 L 157 50 Q 158 47 154 45 L 188 49 Q 189 54 183 56 Q 171 58 133 85 L 128 81" fill="#000080" clip-path="url(#clip-mask-2)" /><path d="M 133 85 Q 142 92 147 126 Q 152 167 138 180 Q 132 186 128 186 L 131 162 Q 135 151 134 135 Q 134 118 128 101 Q 125 90 116 84 Q 113 81 116 80 Q 118 78 123 79 Q 126 80 128 81" fill="#000080" clip-path="url(#clip-mask-3)" /><path d="M 128 186 Q 125 187 122 183 Q 121 177 114 168 Q 110 165 110 163 Q 109 160 112 161 Q 117 163 122 165 Q 128 166 131 162" fill="#000080" clip-path="url(#clip-mask-4)" /><path d="M 72 109 L 71 107 Q 70 104 71 103 Q 75 100 94 107 Q 103 110 105 115 Q 108 122 107 125 Q 106 128 104 129 Q 100 129 97 127 Q 87 119 78 113" fill="#000080" clip-path="url(#clip-mask-5)" /><path d="M 68 158 L 84 152 Q 118 133 120 134 Q 120 137 118 139 Q 116 142 113 145 Q 92 162 87 169 Q 85 172 82 172 Q 73 169 67 167 Q 64 166 64 162 Q 64 160 67 159" fill="#000080" clip-path="url(#clip-mask-6)" /><path d="M 181 86 L 180 81 Q 179 78 182 78 Q 186 77 191 80 Q 198 85 201 89 Q 204 93 198 96 Q 191 98 176 110 Q 168 116 155 123 Q 150 124 153 120 Q 171 99 177 91" fill="#000080" clip-path="url(#clip-mask-7)" /><path d="M 156 143 L 156 140 Q 156 137 158 139 Q 193 145 197 157 Q 201 166 199 169 Q 198 172 196 172 Q 193 171 188 167 Q 172 154 159 145" fill="#000080" clip-path="url(#clip-mask-8)" /><path d="M 50 230 Q 47 233 43 231 Q 37 227 34 223 Q 31 218 37 213 Q 45 202 46 180 Q 48 156 36 134 Q 33 128 36 126 Q 39 125 43 127 Q 51 130 56 135 Q 59 140 59 147 Q 58 174 58 199" fill="#0000ff" clip-path="url(#clip-mask-9)" /><path d="M 198 195 L 155 201 Q 62 216 50 230 L 58 199 Q 56 209 65 207 Q 127 191 210 186 L 208 199" fill="#0000ff" clip-path="url(#clip-mask-10)" /><path d="M 210 186 Q 216 138 208 125 Q 208 121 210 120 Q 214 118 218 120 Q 229 126 234 131 Q 238 136 235 140 Q 234 141 234 143 Q 231 149 224 201 Q 223 228 215 236 Q 211 240 208 234 Q 201 216 204 209 Q 207 204 208 199" fill="#0000ff" clip-path="url(#clip-mask-11)" /></svg>