<svg xmlns="http://www.w3.org/2000/svg" xmlns:xlink="http://www.w3.org/1999/xlink" width="270" height="270"><defs><clipPath id="clip-mask-1"><rect x="68" y="47" width="31" height="26"><animate attributeName="x" from="37" to="68" dur="0.115" begin="0; animate10.end + 1" id="animate1" fill="freeze"/></rect></clipPath><clipPath id="clip-mask-2"><rect x="137" y="22" width="51" height="41"><set attributeName="y" to="-19" begin="0; animate10.end + 1" /><animate attributeName="y" from="-19" to="22" dur="0.152" begin="animate1.end + 0.5" id="animate2" fill="freeze"/></rect></clipPath><clipPath id="clip-mask-3"><rect x="72" y="70" width="105" height="28"><set attributeName="x" to="-33" begin="0; animate10.end + 1" /><animate attributeName="x" from="-33" to="72" dur="0.389" begin="animate2.end + 0.5" id="animate3" fill="freeze"/></rect></clipPath><clipPath id="clip-mask-4"><rect x="42" y="97" width="166" height="36"><set attributeName="x" to="-124" begin="0; animate10.end + 1" /><animate attributeName="x" from="-124" to="42" dur="0.615" begin="animate3.end + 0.5" id="animate4" fill="freeze"/></rect></clipPath><clipPath id="clip-mask-5"><rect x="17" y="12" width="119" height="188"><set attributeName="y" to="-176" begin="0; animate10.end + 1" /><animate attributeName="y" from="-176" to="12" dur="0.696" begin="animate4.end + 0.5" id="animate5" fill="freeze"/></rect></clipPath><clipPath id="clip-mask-6"><rect x="139" y="118" width="113" height="60"><set attributeName="x" to="26" begin="0; animate10.end + 1" /><animate attributeName="x" from="26" to="139" dur="0.419" begin="animate5.end + 0.5" id="animate6" fill="freeze"/></rect></clipPath><clipPath id="clip-mask-7"><rect x="70" y="152" width="103" height="29"><set attributeName="x" to="-33" begin="0; animate10.end + 1" /><animate attributeName="x" from="-33" to="70" dur="0.381" begin="animate6.end + 0.5" id="animate7" fill="freeze"/></rect></clipPath><clipPath id="clip-mask-8"><rect x="126" y="164" width="48" height="93"><set attributeName="y" to="71" begin="0; animate10.end + 1" /><animate attributeName="y" from="71" to="164" dur="0.344" begin="animate7.end" id="animate8" fill="freeze"/></rect></clipPath><clipPath id="clip-mask-9"><rect x="109" y="224" width="19" height="27"><set attributeName="x" to="128" begin="0; animate10.end + 1" /><animate attributeName="x" from="128" to="109" dur="0.070" begin="animate8.end" id="animate9" fill="freeze"/></rect></clipPath><clipPath id="clip-mask-10"><rect x="45" y="175" width="72" height="73"><set attributeName="y" to="102" begin="0; animate10.end + 1" /><animate attributeName="y" from="102" to="175" dur="0.270" begin="animate9.end + 0.5" id="animate10" fill="freeze"/></rect></clipPath></defs><path d="M 0 0 L 270 270 M 270 0 L 0 270 M 135 0 L 135 270 M 0 135 L 270 135" stroke="#CCCCCC" /><path d="M 69 55 L 69 52 Q 68 48 70 48 Q 71 47 73 47 Q 84 48 91 52 Q 96 55 98 62 Q 99 66 97 69 Q 95 73 91 73 Q 83 69 74 58" fill="#CCCCCC"/><path d="M 164 32 L 164 27 Q 164 23 167 23 Q 170 22 176 27 Q 183 31 186 36 Q 188 41 182 43 Q 179 44 160 54 Q 153 58 142 62 Q 137 63 140 59 Q 156 42 160 36" fill="#CCCCCC"/><path d="M 103 96 Q 89 98 79 92 Q 72 87 82 86 Q 94 85 106 84 L 120 81 Q 135 77 150 73 Q 158 70 166 72 Q 173 74 175 77 Q 177 80 174 81 Q 172 83 118 93" fill="#CCCCCC"/><path d="M 91 125 Q 77 128 64 132 Q 60 133 55 132 Q 50 130 46 127 Q 42 123 48 122 Q 72 119 96 115 L 112 113 Q 146 106 181 99 Q 190 97 204 107 Q 208 110 207 113 Q 205 115 188 115 Q 165 116 147 118 L 139 118 Q 115 120 108 122" fill="#CCCCCC"/><path d="M 70 173 Q 55 186 35 196 Q 25 200 21 199 Q 17 198 21 196 Q 25 192 30 189 Q 69 166 91 125 L 96 115 Q 97 112 103 96 L 106 84 Q 117 40 108 21 Q 106 17 110 15 Q 118 12 132 23 Q 136 26 133 31 Q 129 39 120 81 Q 120 81 120 81 L 118 93 Q 115 103 112 113 L 108 122 Q 104 129 101 134 Q 88 157 75 169" fill="#CCCCCC"/><path d="M 147 118 Q 171 135 198 152 Q 199 152 249 169 Q 252 170 252 172 Q 252 173 247 174 Q 228 178 211 178 Q 201 178 195 173 Q 167 148 141 121 Q 140 119 139 118" fill="#CCCCCC"/><path d="M 92 178 L 88 179 Q 82 181 76 177 Q 71 174 70 173 L 75 169 Q 75 169 76 169 Q 95 168 118 163 Q 140 159 146 156 Q 151 152 157 155 Q 171 161 173 164 L 142 169 Q 125 170 106 175 L 97 177" fill="#CCCCCC"/><path d="M 173 164 Q 174 167 171 171 Q 166 177 164 190 Q 159 225 152 237 Q 146 247 138 252 Q 133 257 128 251 L 126 230 Q 134 231 139 223 Q 145 211 149 184 Q 150 174 148 170 Q 147 169 142 169" fill="#CCCCCC"/><path d="M 128 251 Q 124 242 113 231 Q 109 224 115 226 Q 120 228 126 230" fill="#CCCCCC"/><path d="M 106 175 Q 113 179 116 184 Q 117 187 115 189 Q 111 193 108 197 Q 92 225 74 236 Q 54 248 46 245 Q 45 245 47 243 Q 48 242 49 241 Q 97 209 97 177" fill="#CCCCCC"/><path d="M 69 55 L 69 52 Q 68 48 70 48 Q 71 47 73 47 Q 84 48 91 52 Q 96 55 98 62 Q 99 66 97 69 Q 95 73 91 73 Q 83 69 74 58" fill="#000080" clip-path="url(#clip-mask-1)" /><path d="M 164 32 L 164 27 Q 164 23 167 23 Q 170 22 176 27 Q 183 31 186 36 Q 188 41 182 43 Q 179 44 160 54 Q 153 58 142 62 Q 137 63 140 59 Q 156 42 160 36" fill="#000080" clip-path="url(#clip-mask-2)" /><path d="M 103 96 Q 89 98 79 92 Q 72 87 82 86 Q 94 85 106 84 L 120 81 Q 135 77 150 73 Q 158 70 166 72 Q 173 74 175 77 Q 177 80 174 81 Q 172 83 118 93" fill="#000080" clip-path="url(#clip-mask-3)" /><path d="M 91 125 Q 77 128 64 132 Q 60 133 55 132 Q 50 130 46 127 Q 42 123 48 122 Q 72 119 96 115 L 112 113 Q 146 106 181 99 Q 190 97 204 107 Q 208 110 207 113 Q 205 115 188 115 Q 165 116 147 118 L 139 118 Q 115 120 108 122" fill="#000080" clip-path="url(#clip-mask-4)" /><path d="M 70 173 Q 55 186 35 196 Q 25 200 21 199 Q 17 198 21 196 Q 25 192 30 189 Q 69 166 91 125 L 96 115 Q 97 112 103 96 L 106 84 Q 117 40 108 21 Q 106 17 110 15 Q 118 12 132 23 Q 136 26 133 31 Q 129 39 120 81 Q 120 81 120 81 L 118 93 Q 115 103 112 113 L 108 122 Q 104 129 101 134 Q 88 157 75 169" fill="#000080" clip-path="url(#clip-mask-5)" /><path d="M 147 118 Q 171 135 198 152 Q 199 152 249 169 Q 252 170 252 172 Q 252 173 247 174 Q 228 178 211 178 Q 201 178 195 173 Q 167 148 141 121 Q 140 119 139 118" fill="#000080" clip-path="url(#clip-mask-6)" /><path d="M 92 178 L 88 179 Q 82 181 76 177 Q 71 174 70 173 L 75 169 Q 75 169 76 169 Q 95 168 118 163 Q 140 159 146 156 Q 151 152 157 155 Q 171 161 173 164 L 142 169 Q 125 170 106 175 L 97 177" fill="#0000ff" clip-path="url(#clip-mask-7)" /><path d="M 173 164 Q 174 167 171 171 Q 166 177 164 190 Q 159 225 152 237 Q 146 247 138 252 Q 133 257 128 251 L 126 230 Q 134 231 139 223 Q 145 211 149 184 Q 150 174 148 170 Q 147 169 142 169" fill="#0000ff" clip-path="url(#clip-mask-8)" /><path d="M 128 251 Q 124 242 113 231 Q 109 224 115 226 Q 120 228 126 230" fill="#0000ff" clip-path="url(#clip-mask-9)" /><path d="M 106 175 Q 113 179 116 184 Q 117 187 115 189 Q 111 193 108 197 Q 92 225 74 236 Q 54 248 46 245 Q 45 245 47 243 Q 48 242 49 241 Q 97 209 97 177" fill="#0000ff" clip-path="url(#clip-mask-10)" /></svg>