<svg xmlns="http://www.w3.org/2000/svg" xmlns:xlink="http://www.w3.org/1999/xlink" width="270" height="270"><defs><clipPath id="clip-mask-1"><rect x="68" y="20" width="44" height="73"><animate attributeName="y" from="-53" to="20" dur="0.270" begin="0; animate14.end + 1" id="animate1" fill="freeze"/></rect></clipPath><clipPath id="clip-mask-2"><rect x="76" y="72" width="49" height="19"><set attributeName="x" to="27" begin="0; animate14.end + 1" /><animate attributeName="x" from="27" to="76" dur="0.181" begin="animate1.end" id="animate2" fill="freeze"/></rect></clipPath><clipPath id="clip-mask-3"><rect x="102" y="36" width="60" height="18"><set attributeName="x" to="42" begin="0; animate14.end + 1" /><animate attributeName="x" from="42" to="102" dur="0.222" begin="animate2.end + 0.5" id="animate3" fill="freeze"/></rect></clipPath><clipPath id="clip-mask-4"><rect x="112" y="52" width="46" height="53"><set attributeName="y" to="-1" begin="0; animate14.end + 1" /><animate attributeName="y" from="-1" to="52" dur="0.196" begin="animate3.end" id="animate4" fill="freeze"/></rect></clipPath><clipPath id="clip-mask-5"><rect x="31" y="95" width="133" height="30"><set attributeName="x" to="-102" begin="0; animate14.end + 1" /><animate attributeName="x" from="-102" to="31" dur="0.493" begin="animate4.end + 0.5" id="animate5" fill="freeze"/></rect></clipPath><clipPath id="clip-mask-6"><rect x="96" y="115" width="23" height="130"><set attributeName="y" to="-15" begin="0; animate14.end + 1" /><animate attributeName="y" from="-15" to="115" dur="0.481" begin="animate5.end + 0.5" id="animate6" fill="freeze"/></rect></clipPath><clipPath id="clip-mask-7"><rect x="75" y="211" width="24" height="30"><set attributeName="x" to="99" begin="0; animate14.end + 1" /><animate attributeName="x" from="99" to="75" dur="0.089" begin="animate6.end" id="animate7" fill="freeze"/></rect></clipPath><clipPath id="clip-mask-8"><rect x="59" y="132" width="29" height="28"><set attributeName="x" to="30" begin="0; animate14.end + 1" /><animate attributeName="x" from="30" to="59" dur="0.107" begin="animate7.end + 0.5" id="animate8" fill="freeze"/></rect></clipPath><clipPath id="clip-mask-9"><rect x="35" y="165" width="56" height="44"><set attributeName="x" to="-21" begin="0; animate14.end + 1" /><animate attributeName="x" from="-21" to="35" dur="0.207" begin="animate8.end + 0.5" id="animate9" fill="freeze"/></rect></clipPath><clipPath id="clip-mask-10"><rect x="123" y="126" width="37" height="38"><set attributeName="x" to="160" begin="0; animate14.end + 1" /><animate attributeName="x" from="160" to="123" dur="0.137" begin="animate9.end + 0.5" id="animate10" fill="freeze"/></rect></clipPath><clipPath id="clip-mask-11"><rect x="114" y="159" width="44" height="39"><set attributeName="x" to="70" begin="0; animate14.end + 1" /><animate attributeName="x" from="70" to="114" dur="0.163" begin="animate10.end + 0.5" id="animate11" fill="freeze"/></rect></clipPath><clipPath id="clip-mask-12"><rect x="171" y="81" width="21" height="99"><set attributeName="y" to="-18" begin="0; animate14.end + 1" /><animate attributeName="y" from="-18" to="81" dur="0.367" begin="animate11.end + 0.5" id="animate12" fill="freeze"/></rect></clipPath><clipPath id="clip-mask-13"><rect x="202" y="29" width="36" height="220"><set attributeName="y" to="-191" begin="0; animate14.end + 1" /><animate attributeName="y" from="-191" to="29" dur="0.815" begin="animate12.end + 0.5" id="animate13" fill="freeze"/></rect></clipPath><clipPath id="clip-mask-14"><rect x="189" y="206" width="23" height="33"><set attributeName="x" to="212" begin="0; animate14.end + 1" /><animate attributeName="x" from="212" to="189" dur="0.085" begin="animate13.end" id="animate14" fill="freeze"/></rect></clipPath></defs><path d="M 0 0 L 270 270 M 270 0 L 0 270 M 135 0 L 135 270 M 0 135 L 270 135" stroke="#CCCCCC" /><path d="M 76 91 Q 72 93 71 91 Q 68 88 68 83 Q 68 78 72 75 Q 78 72 83 65 Q 97 36 94 27 Q 92 23 95 22 Q 98 20 103 24 Q 107 27 110 33 Q 112 37 108 40 Q 106 42 104 46 L 102 51 Q 97 60 90 72" fill="#CCCCCC"/><path d="M 123 79 Q 122 78 122 79 Q 85 87 76 91 L 90 72 Q 88 77 94 76 Q 110 75 125 74" fill="#CCCCCC"/><path d="M 132 52 Q 131 51 129 51 Q 112 54 109 54 Q 104 53 102 51 L 104 46 Q 111 46 116 45 Q 136 40 138 39 Q 142 36 146 38 Q 156 43 159 46 Q 162 50 158 52" fill="#CCCCCC"/><path d="M 112 105 Q 112 103 113 101 Q 117 92 123 79 L 125 74 Q 128 66 132 57 Q 133 53 132 52 L 158 52 Q 146 63 135 80 Q 125 96 119 104" fill="#CCCCCC"/><path d="M 96 116 Q 70 120 50 124 Q 43 125 36 119 Q 31 115 38 114 Q 93 108 112 105 L 119 104 Q 124 102 128 102 Q 153 95 159 101 Q 164 104 164 106 Q 162 109 159 109 Q 123 112 108 115" fill="#CCCCCC"/><path d="M 114 166 Q 114 210 115 218 Q 114 234 106 242 Q 102 245 99 241 L 98 216 Q 100 214 101 210 Q 103 185 102 137 Q 102 123 96 116 L 108 115 Q 112 117 115 120 Q 119 123 117 128 Q 114 135 114 159" fill="#CCCCCC"/><path d="M 99 241 Q 94 232 78 216 Q 75 214 75 213 Q 75 211 78 212 Q 86 214 93 216 Q 96 217 98 216" fill="#CCCCCC"/><path d="M 60 138 L 59 136 Q 59 133 61 133 Q 63 132 67 133 Q 80 139 82 141 Q 86 144 87 150 Q 88 154 86 157 Q 83 160 80 159 Q 73 156 63 142" fill="#CCCCCC"/><path d="M 43 196 L 46 194 Q 69 179 87 166 Q 89 165 91 165 Q 91 169 84 177 Q 61 200 58 206 Q 56 209 54 209 Q 45 207 39 205 Q 36 204 35 201 Q 35 199 38 197" fill="#CCCCCC"/><path d="M 142 136 L 141 131 Q 140 126 144 126 Q 148 126 153 130 Q 157 134 159 137 Q 160 140 156 141 Q 147 148 128 164 L 128 164 L 123 162" fill="#CCCCCC"/><path d="M 128 164 Q 152 172 155 183 Q 158 192 156 195 Q 154 198 153 197 Q 149 197 145 193 Q 128 177 114 166 L 114 166 L 114 159 Q 118 160 123 162" fill="#CCCCCC"/><path d="M 171 84 L 173 82 Q 175 81 178 82 Q 183 84 187 86 Q 192 89 190 95 Q 187 119 189 149 Q 189 171 184 178 Q 182 180 180 178 Q 172 170 174 159 Q 181 108 172 88" fill="#CCCCCC"/><path d="M 213 47 L 207 40 Q 202 33 207 31 Q 213 29 222 34 Q 238 40 233 49 Q 223 85 234 206 Q 234 227 228 239 Q 223 249 219 249 Q 215 248 212 239 L 212 213 Q 215 211 215 205 Q 215 66 214 57" fill="#CCCCCC"/><path d="M 212 239 Q 209 231 195 216 Q 190 211 189 209 Q 189 206 198 211 Q 211 214 212 213" fill="#CCCCCC"/><path d="M 76 91 Q 72 93 71 91 Q 68 88 68 83 Q 68 78 72 75 Q 78 72 83 65 Q 97 36 94 27 Q 92 23 95 22 Q 98 20 103 24 Q 107 27 110 33 Q 112 37 108 40 Q 106 42 104 46 L 102 51 Q 97 60 90 72" fill="#000080" clip-path="url(#clip-mask-1)" /><path d="M 123 79 Q 122 78 122 79 Q 85 87 76 91 L 90 72 Q 88 77 94 76 Q 110 75 125 74" fill="#000080" clip-path="url(#clip-mask-2)" /><path d="M 132 52 Q 131 51 129 51 Q 112 54 109 54 Q 104 53 102 51 L 104 46 Q 111 46 116 45 Q 136 40 138 39 Q 142 36 146 38 Q 156 43 159 46 Q 162 50 158 52" fill="#000080" clip-path="url(#clip-mask-3)" /><path d="M 112 105 Q 112 103 113 101 Q 117 92 123 79 L 125 74 Q 128 66 132 57 Q 133 53 132 52 L 158 52 Q 146 63 135 80 Q 125 96 119 104" fill="#000080" clip-path="url(#clip-mask-4)" /><path d="M 96 116 Q 70 120 50 124 Q 43 125 36 119 Q 31 115 38 114 Q 93 108 112 105 L 119 104 Q 124 102 128 102 Q 153 95 159 101 Q 164 104 164 106 Q 162 109 159 109 Q 123 112 108 115" fill="#000080" clip-path="url(#clip-mask-5)" /><path d="M 114 166 Q 114 210 115 218 Q 114 234 106 242 Q 102 245 99 241 L 98 216 Q 100 214 101 210 Q 103 185 102 137 Q 102 123 96 116 L 108 115 Q 112 117 115 120 Q 119 123 117 128 Q 114 135 114 159" fill="#000080" clip-path="url(#clip-mask-6)" /><path d="M 99 241 Q 94 232 78 216 Q 75 214 75 213 Q 75 211 78 212 Q 86 214 93 216 Q 96 217 98 216" fill="#000080" clip-path="url(#clip-mask-7)" /><path d="M 60 138 L 59 136 Q 59 133 61 133 Q 63 132 67 133 Q 80 139 82 141 Q 86 144 87 150 Q 88 154 86 157 Q 83 160 80 159 Q 73 156 63 142" fill="#000080" clip-path="url(#clip-mask-8)" /><path d="M 43 196 L 46 194 Q 69 179 87 166 Q 89 165 91 165 Q 91 169 84 177 Q 61 200 58 206 Q 56 209 54 209 Q 45 207 39 205 Q 36 204 35 201 Q 35 199 38 197" fill="#000080" clip-path="url(#clip-mask-9)" /><path d="M 142 136 L 141 131 Q 140 126 144 126 Q 148 126 153 130 Q 157 134 159 137 Q 160 140 156 141 Q 147 148 128 164 L 128 164 L 123 162" fill="#000080" clip-path="url(#clip-mask-10)" /><path d="M 128 164 Q 152 172 155 183 Q 158 192 156 195 Q 154 198 153 197 Q 149 197 145 193 Q 128 177 114 166 L 114 166 L 114 159 Q 118 160 123 162" fill="#000080" clip-path="url(#clip-mask-11)" /><path d="M 171 84 L 173 82 Q 175 81 178 82 Q 183 84 187 86 Q 192 89 190 95 Q 187 119 189 149 Q 189 171 184 178 Q 182 180 180 178 Q 172 170 174 159 Q 181 108 172 88" fill="#0000ff" clip-path="url(#clip-mask-12)" /><path d="M 213 47 L 207 40 Q 202 33 207 31 Q 213 29 222 34 Q 238 40 233 49 Q 223 85 234 206 Q 234 227 228 239 Q 223 249 219 249 Q 215 248 212 239 L 212 213 Q 215 211 215 205 Q 215 66 214 57" fill="#0000ff" clip-path="url(#clip-mask-13)" /><path d="M 212 239 Q 209 231 195 216 Q 190 211 189 209 Q 189 206 198 211 Q 211 214 212 213" fill="#0000ff" clip-path="url(#clip-mask-14)" /></svg>