<svg xmlns="http://www.w3.org/2000/svg" xmlns:xlink="http://www.w3.org/1999/xlink" width="270" height="270"><defs><clipPath id="clip-mask-1"><rect x="33" y="93" width="119" height="35"><animate attributeName="x" from="-86" to="33" dur="0.441" begin="0; animate8.end + 1" id="animate1" fill="freeze"/></rect></clipPath><clipPath id="clip-mask-2"><rect x="5" y="105" width="149" height="130"><set attributeName="y" to="-25" begin="0; animate8.end + 1" /><animate attributeName="y" from="-25" to="105" dur="0.481" begin="animate1.end" id="animate2" fill="freeze"/></rect></clipPath><clipPath id="clip-mask-3"><rect x="76" y="200" width="29" height="36"><set attributeName="x" to="105" begin="0; animate8.end + 1" /><animate attributeName="x" from="105" to="76" dur="0.107" begin="animate2.end" id="animate3" fill="freeze"/></rect></clipPath><clipPath id="clip-mask-4"><rect x="15" y="33" width="102" height="197"><set attributeName="y" to="-164" begin="0; animate8.end + 1" /><animate attributeName="y" from="-164" to="33" dur="0.730" begin="animate3.end + 0.5" id="animate4" fill="freeze"/></rect></clipPath><clipPath id="clip-mask-5"><rect x="153" y="115" width="26" height="100"><set attributeName="y" to="15" begin="0; animate8.end + 1" /><animate attributeName="y" from="15" to="115" dur="0.370" begin="animate4.end + 0.5" id="animate5" fill="freeze"/></rect></clipPath><clipPath id="clip-mask-6"><rect x="170" y="104" width="79" height="25"><set attributeName="x" to="91" begin="0; animate8.end + 1" /><animate attributeName="x" from="91" to="170" dur="0.293" begin="animate5.end + 0.5" id="animate6" fill="freeze"/></rect></clipPath><clipPath id="clip-mask-7"><rect x="213" y="117" width="41" height="67"><set attributeName="y" to="50" begin="0; animate8.end + 1" /><animate attributeName="y" from="50" to="117" dur="0.248" begin="animate6.end" id="animate7" fill="freeze"/></rect></clipPath><clipPath id="clip-mask-8"><rect x="179" y="182" width="57" height="16"><set attributeName="x" to="122" begin="0; animate8.end + 1" /><animate attributeName="x" from="122" to="179" dur="0.211" begin="animate7.end + 0.5" id="animate8" fill="freeze"/></rect></clipPath></defs><path d="M 0 0 L 270 270 M 270 0 L 0 270 M 135 0 L 135 270 M 0 135 L 270 135" stroke="#CCCCCC" /><path d="M 68 121 L 53 126 Q 46 128 39 123 Q 33 120 33 117 Q 33 114 38 115 Q 53 114 85 108 L 102 104 Q 114 100 124 96 Q 131 93 138 96 Q 147 100 152 105 L 121 110 Q 110 111 100 114 L 82 117" fill="#CCCCCC"/><path d="M 152 105 Q 154 108 152 111 L 150 114 Q 143 123 142 139 Q 132 210 114 228 Q 108 235 103 235 L 105 208 Q 110 204 115 190 Q 123 169 127 127 Q 129 116 127.5 112.5 Q 126 109 121 110" fill="#CCCCCC"/><path d="M 103 235 Q 97 236 95 230 Q 89 220 79 206 Q 76 200 81 203 Q 88 206 95 208.5 Q 102 211 105 208" fill="#CCCCCC"/><path d="M 85 108 Q 89 87 92 60 Q 93 51 85 41 Q 81 35 88 34 Q 93 33 99 36 Q 109 42 114 48 Q 117 50 115 54 Q 109 64 102 104 L 100 114 Q 90 155 72 184 Q 68 189 65 194 Q 35 230 20 230 Q 15 230 16 229 Q 17 228 33 213 Q 65 179 82 117" fill="#CCCCCC"/><path d="M 179 206 L 177 210 Q 175 215 171 208 Q 165 200 165 188 Q 163 148 155 123 Q 153 118 155 117 Q 156 115 159 116 Q 166 118 170 120 L 173 129 Q 173 141 178 184 Q 178 186 179 188 L 179 198" fill="#CCCCCC"/><path d="M 219 122 Q 217 120 180 127 Q 176 129 173 129 L 170 120 Q 181 117 193 115 Q 204 112 215 107 Q 222 104 227 106 Q 244 113 249 117" fill="#CCCCCC"/><path d="M 213 182 Q 219 161 223 134 Q 223 126 219 122 L 249 117 Q 254 122 249 128 Q 236 140 229 184" fill="#CCCCCC"/><path d="M 179 188 Q 194 186 213 182 L 229 184 Q 236 189 236 191 Q 235 193 232 194 Q 199 195 183 198 Q 181 198 179 198" fill="#CCCCCC"/><path d="M 68 121 L 53 126 Q 46 128 39 123 Q 33 120 33 117 Q 33 114 38 115 Q 53 114 85 108 L 102 104 Q 114 100 124 96 Q 131 93 138 96 Q 147 100 152 105 L 121 110 Q 110 111 100 114 L 82 117" fill="#0000ff" clip-path="url(#clip-mask-1)" /><path d="M 152 105 Q 154 108 152 111 L 150 114 Q 143 123 142 139 Q 132 210 114 228 Q 108 235 103 235 L 105 208 Q 110 204 115 190 Q 123 169 127 127 Q 129 116 127.5 112.5 Q 126 109 121 110" fill="#0000ff" clip-path="url(#clip-mask-2)" /><path d="M 103 235 Q 97 236 95 230 Q 89 220 79 206 Q 76 200 81 203 Q 88 206 95 208.5 Q 102 211 105 208" fill="#0000ff" clip-path="url(#clip-mask-3)" /><path d="M 85 108 Q 89 87 92 60 Q 93 51 85 41 Q 81 35 88 34 Q 93 33 99 36 Q 109 42 114 48 Q 117 50 115 54 Q 109 64 102 104 L 100 114 Q 90 155 72 184 Q 68 189 65 194 Q 35 230 20 230 Q 15 230 16 229 Q 17 228 33 213 Q 65 179 82 117" fill="#0000ff" clip-path="url(#clip-mask-4)" /><path d="M 179 206 L 177 210 Q 175 215 171 208 Q 165 200 165 188 Q 163 148 155 123 Q 153 118 155 117 Q 156 115 159 116 Q 166 118 170 120 L 173 129 Q 173 141 178 184 Q 178 186 179 188 L 179 198" fill="#000080" clip-path="url(#clip-mask-5)" /><path d="M 219 122 Q 217 120 180 127 Q 176 129 173 129 L 170 120 Q 181 117 193 115 Q 204 112 215 107 Q 222 104 227 106 Q 244 113 249 117" fill="#000080" clip-path="url(#clip-mask-6)" /><path d="M 213 182 Q 219 161 223 134 Q 223 126 219 122 L 249 117 Q 254 122 249 128 Q 236 140 229 184" fill="#000080" clip-path="url(#clip-mask-7)" /><path d="M 179 188 Q 194 186 213 182 L 229 184 Q 236 189 236 191 Q 235 193 232 194 Q 199 195 183 198 Q 181 198 179 198" fill="#000080" clip-path="url(#clip-mask-8)" /></svg>