<svg xmlns="http://www.w3.org/2000/svg" xmlns:xlink="http://www.w3.org/1999/xlink" width="270" height="270"><defs><clipPath id="clip-mask-1"><rect x="48" y="14" width="77" height="100"><animate attributeName="y" from="-86" to="14" dur="0.370" begin="0; animate7.end + 1" id="animate1" fill="freeze"/></rect></clipPath><clipPath id="clip-mask-2"><rect x="83" y="60" width="133" height="33"><set attributeName="x" to="-50" begin="0; animate7.end + 1" /><animate attributeName="x" from="-50" to="83" dur="0.493" begin="animate1.end + 0.5" id="animate2" fill="freeze"/></rect></clipPath><clipPath id="clip-mask-3"><rect x="172" y="74" width="51" height="180"><set attributeName="y" to="-106" begin="0; animate7.end + 1" /><animate attributeName="y" from="-106" to="74" dur="0.667" begin="animate2.end" id="animate3" fill="freeze"/></rect></clipPath><clipPath id="clip-mask-4"><rect x="141" y="218" width="32" height="37"><set attributeName="x" to="173" begin="0; animate7.end + 1" /><animate attributeName="x" from="173" to="141" dur="0.119" begin="animate3.end" id="animate4" fill="freeze"/></rect></clipPath><clipPath id="clip-mask-5"><rect x="46" y="99" width="70" height="99"><set attributeName="y" to="0" begin="0; animate7.end + 1" /><animate attributeName="y" from="0" to="99" dur="0.367" begin="animate4.end + 0.5" id="animate5" fill="freeze"/></rect></clipPath><clipPath id="clip-mask-6"><rect x="62" y="165" width="73" height="30"><set attributeName="x" to="-11" begin="0; animate7.end + 1" /><animate attributeName="x" from="-11" to="62" dur="0.270" begin="animate5.end" id="animate6" fill="freeze"/></rect></clipPath><clipPath id="clip-mask-7"><rect x="119" y="137" width="36" height="53"><set attributeName="y" to="84" begin="0; animate7.end + 1" /><animate attributeName="y" from="84" to="137" dur="0.196" begin="animate6.end + 0.5" id="animate7" fill="freeze"/></rect></clipPath></defs><path d="M 0 0 L 270 270 M 270 0 L 0 270 M 135 0 L 135 270 M 0 135 L 270 135" stroke="#CCCCCC" /><path d="M 61 112 L 52 113 Q 48 114 49 111 Q 50 109 53 106 Q 68 87 79 70 Q 91 52 98 33 Q 101 27 98 21 Q 95 14 101 14 Q 106 14 114 19 Q 123 26 124 30 Q 125 34 122 37 Q 117 42 111 51 Q 99 69 88 82 L 83 87" fill="#CCCCCC"/><path d="M 88 82 Q 134 76 185 63 Q 195 60 216 74 L 190 79 Q 186 75 176 76 Q 118 86 105 91 Q 96 93 83 87 Q 83 87 83 87" fill="#CCCCCC"/><path d="M 216 74 Q 223 79 218 85 Q 212 92 211 112 Q 206 191 199 214 Q 193 234 184 245 Q 177 252 173 254 L 172 224 Q 175 223 179 215 Q 183 202 191 166 Q 200 92 190 79" fill="#CCCCCC"/><path d="M 173 254 Q 168 255 163 247 Q 157 236 145 225 Q 141 221 142 220 Q 142 218 149 220 Q 170 225 172 224" fill="#CCCCCC"/><path d="M 62 195 Q 59 198 55 195 Q 48 190 47 185 Q 46 182 50 179 Q 59 172 64 166 Q 96 125 90 107 Q 88 102 92 100 Q 94 99 99 101 Q 113 107 114 110 Q 116 114 113 116 Q 106 124 75 170 Q 73 174 74 175" fill="#CCCCCC"/><path d="M 71 187 L 62 195 L 74 175 Q 75 176 78 175 Q 106 168 132 165 L 135 171" fill="#CCCCCC"/><path d="M 132 165 Q 126 154 121 146 Q 119 143 120 140 Q 121 137 123 139 Q 129 143 139 151 Q 155 164 155 174 Q 155 186 151 188 Q 148 190 146 189 Q 143 187 135 171" fill="#CCCCCC"/><path d="M 61 112 L 52 113 Q 48 114 49 111 Q 50 109 53 106 Q 68 87 79 70 Q 91 52 98 33 Q 101 27 98 21 Q 95 14 101 14 Q 106 14 114 19 Q 123 26 124 30 Q 125 34 122 37 Q 117 42 111 51 Q 99 69 88 82 L 83 87" fill="#0000ff" clip-path="url(#clip-mask-1)" /><path d="M 88 82 Q 134 76 185 63 Q 195 60 216 74 L 190 79 Q 186 75 176 76 Q 118 86 105 91 Q 96 93 83 87 Q 83 87 83 87" fill="#0000ff" clip-path="url(#clip-mask-2)" /><path d="M 216 74 Q 223 79 218 85 Q 212 92 211 112 Q 206 191 199 214 Q 193 234 184 245 Q 177 252 173 254 L 172 224 Q 175 223 179 215 Q 183 202 191 166 Q 200 92 190 79" fill="#0000ff" clip-path="url(#clip-mask-3)" /><path d="M 173 254 Q 168 255 163 247 Q 157 236 145 225 Q 141 221 142 220 Q 142 218 149 220 Q 170 225 172 224" fill="#0000ff" clip-path="url(#clip-mask-4)" /><path d="M 62 195 Q 59 198 55 195 Q 48 190 47 185 Q 46 182 50 179 Q 59 172 64 166 Q 96 125 90 107 Q 88 102 92 100 Q 94 99 99 101 Q 113 107 114 110 Q 116 114 113 116 Q 106 124 75 170 Q 73 174 74 175" fill="#000080" clip-path="url(#clip-mask-5)" /><path d="M 71 187 L 62 195 L 74 175 Q 75 176 78 175 Q 106 168 132 165 L 135 171" fill="#000080" clip-path="url(#clip-mask-6)" /><path d="M 132 165 Q 126 154 121 146 Q 119 143 120 140 Q 121 137 123 139 Q 129 143 139 151 Q 155 164 155 174 Q 155 186 151 188 Q 148 190 146 189 Q 143 187 135 171" fill="#000080" clip-path="url(#clip-mask-7)" /></svg>