<svg xmlns="http://www.w3.org/2000/svg" xmlns:xlink="http://www.w3.org/1999/xlink" width="270" height="270"><defs><clipPath id="clip-mask-1"><rect x="98" y="16" width="116" height="29"><animate attributeName="x" from="-18" to="98" dur="0.430" begin="0; animate12.end + 1" id="animate1" fill="freeze"/></rect></clipPath><clipPath id="clip-mask-2"><rect x="15" y="23" width="87" height="209"><set attributeName="y" to="-186" begin="0; animate12.end + 1" /><animate attributeName="y" from="-186" to="23" dur="0.774" begin="animate1.end + 0.5" id="animate2" fill="freeze"/></rect></clipPath><clipPath id="clip-mask-3"><rect x="107" y="57" width="26" height="60"><set attributeName="y" to="-3" begin="0; animate12.end + 1" /><animate attributeName="y" from="-3" to="57" dur="0.222" begin="animate2.end + 0.5" id="animate3" fill="freeze"/></rect></clipPath><clipPath id="clip-mask-4"><rect x="121" y="47" width="94" height="21"><set attributeName="x" to="27" begin="0; animate12.end + 1" /><animate attributeName="x" from="27" to="121" dur="0.348" begin="animate3.end + 0.5" id="animate4" fill="freeze"/></rect></clipPath><clipPath id="clip-mask-5"><rect x="183" y="60" width="36" height="52"><set attributeName="y" to="8" begin="0; animate12.end + 1" /><animate attributeName="y" from="8" to="60" dur="0.193" begin="animate4.end" id="animate5" fill="freeze"/></rect></clipPath><clipPath id="clip-mask-6"><rect x="128" y="75" width="50" height="15"><set attributeName="x" to="78" begin="0; animate12.end + 1" /><animate attributeName="x" from="78" to="128" dur="0.185" begin="animate5.end + 0.5" id="animate6" fill="freeze"/></rect></clipPath><clipPath id="clip-mask-7"><rect x="133" y="95" width="51" height="16"><set attributeName="x" to="82" begin="0; animate12.end + 1" /><animate attributeName="x" from="82" to="133" dur="0.189" begin="animate6.end + 0.5" id="animate7" fill="freeze"/></rect></clipPath><clipPath id="clip-mask-8"><rect x="108" y="118" width="103" height="29"><set attributeName="x" to="5" begin="0; animate12.end + 1" /><animate attributeName="x" from="5" to="108" dur="0.381" begin="animate7.end + 0.5" id="animate8" fill="freeze"/></rect></clipPath><clipPath id="clip-mask-9"><rect x="161" y="129" width="51" height="30"><set attributeName="y" to="99" begin="0; animate12.end + 1" /><animate attributeName="y" from="99" to="129" dur="0.111" begin="animate8.end" id="animate9" fill="freeze"/></rect></clipPath><clipPath id="clip-mask-10"><rect x="145" y="152" width="39" height="100"><set attributeName="y" to="52" begin="0; animate12.end + 1" /><animate attributeName="y" from="52" to="152" dur="0.370" begin="animate9.end + 0.5" id="animate10" fill="freeze"/></rect></clipPath><clipPath id="clip-mask-11"><rect x="133" y="226" width="26" height="27"><set attributeName="x" to="159" begin="0; animate12.end + 1" /><animate attributeName="x" from="159" to="133" dur="0.096" begin="animate10.end" id="animate11" fill="freeze"/></rect></clipPath><clipPath id="clip-mask-12"><rect x="78" y="159" width="176" height="35"><set attributeName="x" to="-98" begin="0; animate12.end + 1" /><animate attributeName="x" from="-98" to="78" dur="0.652" begin="animate11.end + 0.5" id="animate12" fill="freeze"/></rect></clipPath></defs><path d="M 0 0 L 270 270 M 270 0 L 0 270 M 135 0 L 135 270 M 0 135 L 270 135" stroke="#CCCCCC" /><path d="M 145 31 L 188 18 Q 196 16 204 18 Q 211 20 213 24 Q 214 26 212 28 Q 208 31 124 43 Q 110 45 102 42 L 98 33" fill="#CCCCCC"/><path d="M 102 42 Q 99 49 95 70 Q 87 131 64 177 Q 57 190 49 200 Q 26 230 19 231 Q 15 232 16 228 Q 17 227 19 225 Q 45 189 59 157 Q 63 146 67 134 Q 73 114 81 57 Q 82 39 77 31 Q 76 27 79 25 Q 85 23 98 33" fill="#CCCCCC"/><path d="M 132 113 L 132 114 Q 131 117 126 112 Q 122 108 121 101 Q 116 78 109 64 Q 107 60 108 59 Q 109 57 112 58 Q 118 59 121 60 L 126 68 Q 127 73 129 84 L 130 88 Q 131 93 132 98 Q 132 101 133 103 L 133 111" fill="#CCCCCC"/><path d="M 192 60 Q 189 59 182 59 Q 144 63 126 68 L 121 60 Q 130 58 142 56 Q 174 51 178 51 Q 196 47 200 50 Q 211 56 215 60" fill="#CCCCCC"/><path d="M 184 101 Q 187 95 193 69 Q 194 61 192 60 L 215 60 Q 219 64 215 68 Q 205 75 201 87 Q 196 105 193 108 Q 191 111 187 112 Q 184 112 183 108 Q 183 107 183 106" fill="#CCCCCC"/><path d="M 129 84 Q 128 84 129 84 Q 140 81 153 78 Q 163 75 168 76 Q 174 77 176 81 Q 178 83 173 84 Q 157 86 136 89 Q 132 90 130 88 L 130 88" fill="#CCCCCC"/><path d="M 133 103 Q 149 101 169 97 Q 176 95 180 98 Q 182 99 184 101 L 183 106 Q 150 108 135 111 Q 133 111 133 111" fill="#CCCCCC"/><path d="M 184 129 Q 181 128 132 143 Q 123 147 116 143 Q 112 140 110 137 Q 108 132 114 133 Q 132 134 139 132 Q 167 125 186 119 Q 191 118 196 121 Q 210 131 211 135" fill="#CCCCCC"/><path d="M 161 156 Q 174 144 186 133 Q 187 130 184 129 L 211 135 Q 212 139 207 140 Q 195 141 166 159" fill="#CCCCCC"/><path d="M 184 227 L 166 246 Q 159 252 156 252 L 159 226 Q 167 208 161 180 L 158 171 Q 155 163 148 158 Q 145 155 148 153 Q 151 152 156 153 Q 159 154 161 156 L 166 159 Q 170 163 172 169 L 174 179" fill="#CCCCCC"/><path d="M 156 252 Q 152 253 149 248 Q 141 238 134 229 Q 133 226 136 227 Q 141 228 148 230 Q 155 231 159 226" fill="#CCCCCC"/><path d="M 161 180 Q 120 185 102 191 Q 92 194 82 187 Q 78 184 78 182 Q 78 179 81 179 Q 85 178 158 171 L 172 169 Q 219 163 225 161 Q 231 159 234 160 Q 244 165 251 171 Q 254 174 252 177 Q 250 178 245 178 Q 207 174 174 179" fill="#CCCCCC"/><path d="M 145 31 L 188 18 Q 196 16 204 18 Q 211 20 213 24 Q 214 26 212 28 Q 208 31 124 43 Q 110 45 102 42 L 98 33" fill="#0000ff" clip-path="url(#clip-mask-1)" /><path d="M 102 42 Q 99 49 95 70 Q 87 131 64 177 Q 57 190 49 200 Q 26 230 19 231 Q 15 232 16 228 Q 17 227 19 225 Q 45 189 59 157 Q 63 146 67 134 Q 73 114 81 57 Q 82 39 77 31 Q 76 27 79 25 Q 85 23 98 33" fill="#0000ff" clip-path="url(#clip-mask-2)" /><path d="M 132 113 L 132 114 Q 131 117 126 112 Q 122 108 121 101 Q 116 78 109 64 Q 107 60 108 59 Q 109 57 112 58 Q 118 59 121 60 L 126 68 Q 127 73 129 84 L 130 88 Q 131 93 132 98 Q 132 101 133 103 L 133 111" fill="#000080" clip-path="url(#clip-mask-3)" /><path d="M 192 60 Q 189 59 182 59 Q 144 63 126 68 L 121 60 Q 130 58 142 56 Q 174 51 178 51 Q 196 47 200 50 Q 211 56 215 60" fill="#000080" clip-path="url(#clip-mask-4)" /><path d="M 184 101 Q 187 95 193 69 Q 194 61 192 60 L 215 60 Q 219 64 215 68 Q 205 75 201 87 Q 196 105 193 108 Q 191 111 187 112 Q 184 112 183 108 Q 183 107 183 106" fill="#000080" clip-path="url(#clip-mask-5)" /><path d="M 129 84 Q 128 84 129 84 Q 140 81 153 78 Q 163 75 168 76 Q 174 77 176 81 Q 178 83 173 84 Q 157 86 136 89 Q 132 90 130 88 L 130 88" fill="#000080" clip-path="url(#clip-mask-6)" /><path d="M 133 103 Q 149 101 169 97 Q 176 95 180 98 Q 182 99 184 101 L 183 106 Q 150 108 135 111 Q 133 111 133 111" fill="#000080" clip-path="url(#clip-mask-7)" /><path d="M 184 129 Q 181 128 132 143 Q 123 147 116 143 Q 112 140 110 137 Q 108 132 114 133 Q 132 134 139 132 Q 167 125 186 119 Q 191 118 196 121 Q 210 131 211 135" fill="#000080" clip-path="url(#clip-mask-8)" /><path d="M 161 156 Q 174 144 186 133 Q 187 130 184 129 L 211 135 Q 212 139 207 140 Q 195 141 166 159" fill="#000080" clip-path="url(#clip-mask-9)" /><path d="M 184 227 L 166 246 Q 159 252 156 252 L 159 226 Q 167 208 161 180 L 158 171 Q 155 163 148 158 Q 145 155 148 153 Q 151 152 156 153 Q 159 154 161 156 L 166 159 Q 170 163 172 169 L 174 179" fill="#000080" clip-path="url(#clip-mask-10)" /><path d="M 156 252 Q 152 253 149 248 Q 141 238 134 229 Q 133 226 136 227 Q 141 228 148 230 Q 155 231 159 226" fill="#000080" clip-path="url(#clip-mask-11)" /><path d="M 161 180 Q 120 185 102 191 Q 92 194 82 187 Q 78 184 78 182 Q 78 179 81 179 Q 85 178 158 171 L 172 169 Q 219 163 225 161 Q 231 159 234 160 Q 244 165 251 171 Q 254 174 252 177 Q 250 178 245 178 Q 207 174 174 179" fill="#000080" clip-path="url(#clip-mask-12)" /></svg>