<svg xmlns="http://www.w3.org/2000/svg" xmlns:xlink="http://www.w3.org/1999/xlink" width="270" height="270"><defs><clipPath id="clip-mask-1"><rect x="18" y="59" width="101" height="156"><animate attributeName="y" from="-97" to="59" dur="0.578" begin="0; animate6.end + 1" id="animate1" fill="freeze"/></rect></clipPath><clipPath id="clip-mask-2"><rect x="59" y="33" width="119" height="34"><set attributeName="x" to="-60" begin="0; animate6.end + 1" /><animate attributeName="x" from="-60" to="59" dur="0.441" begin="animate1.end + 0.5" id="animate2" fill="freeze"/></rect></clipPath><clipPath id="clip-mask-3"><rect x="130" y="41" width="60" height="83"><set attributeName="y" to="-42" begin="0; animate6.end + 1" /><animate attributeName="y" from="-42" to="41" dur="0.307" begin="animate2.end" id="animate3" fill="freeze"/></rect></clipPath><clipPath id="clip-mask-4"><rect x="142" y="100" width="55" height="24"><set attributeName="x" to="87" begin="0; animate6.end + 1" /><animate attributeName="x" from="87" to="142" dur="0.204" begin="animate3.end" id="animate4" fill="freeze"/></rect></clipPath><clipPath id="clip-mask-5"><rect x="66" y="119" width="131" height="113"><set attributeName="y" to="6" begin="0; animate6.end + 1" /><animate attributeName="y" from="6" to="119" dur="0.419" begin="animate4.end" id="animate5" fill="freeze"/></rect></clipPath><clipPath id="clip-mask-6"><rect x="91" y="132" width="160" height="104"><set attributeName="x" to="-69" begin="0; animate6.end + 1" /><animate attributeName="x" from="-69" to="91" dur="0.593" begin="animate5.end + 0.5" id="animate6" fill="freeze"/></rect></clipPath></defs><path d="M 0 0 L 270 270 M 270 0 L 0 270 M 135 0 L 135 270 M 0 135 L 270 135" stroke="#CCCCCC" /><path d="M 80 160 L 66 178 Q 62 182 59 186 Q 30 215 20 214 Q 18 214 19 211 Q 49 180 63 160 Q 72 146 79 128 Q 80 127 80 126 Q 100 75 96 62 L 107 59 Q 115 65 118 71 Q 119 75 116 78 Q 114 83 112 87 Q 100 119 94 132 L 91 138" fill="#CCCCCC"/><path d="M 151 51 Q 124 56 107 59 L 96 62 Q 76 67 68 64 Q 59 60 59 58 Q 59 55 65 55 Q 108 53 153 39 Q 164 33 178 41" fill="#CCCCCC"/><path d="M 142 124 Q 140 124 137 123 Q 134 120 132 116 Q 130 111 134 107 Q 139 101 144 94 Q 159 59 157 53 Q 156 50 151 51 L 178 41 Q 190 48 189 52 Q 187 55 182 58 Q 177 60 173 67 Q 161 90 155 100" fill="#CCCCCC"/><path d="M 157 119 Q 150 121 148 122 Q 144 124 142 124 L 155 100 Q 148 115 157 112 Q 165 110 168 108 Q 175 104 181 107 Q 196 115 197 121" fill="#CCCCCC"/><path d="M 148 178 Q 161 164 168 138 Q 172 127 169 123 Q 166 120 157 119 L 197 121 Q 197 124 196 125 Q 189 130 185 142 Q 178 169 160 189 L 148 199 Q 121 219 86 227 Q 67 232 66 228 Q 66 227 73 225 Q 110 213 138 188" fill="#CCCCCC"/><path d="M 94 132 Q 104 132 113 143 Q 131 163 148 178 L 160 189 Q 167 195 177 201 Q 191 209 239 224 Q 250 228 251 229 Q 251 232 240 233 Q 218 236 191 235 Q 182 235 177 229 Q 161 214 148 199 L 138 188 Q 108 149 91 138" fill="#CCCCCC"/><path d="M 80 160 L 66 178 Q 62 182 59 186 Q 30 215 20 214 Q 18 214 19 211 Q 49 180 63 160 Q 72 146 79 128 Q 80 127 80 126 Q 100 75 96 62 L 107 59 Q 115 65 118 71 Q 119 75 116 78 Q 114 83 112 87 Q 100 119 94 132 L 91 138" fill="#000080" clip-path="url(#clip-mask-1)" /><path d="M 151 51 Q 124 56 107 59 L 96 62 Q 76 67 68 64 Q 59 60 59 58 Q 59 55 65 55 Q 108 53 153 39 Q 164 33 178 41" fill="#000080" clip-path="url(#clip-mask-2)" /><path d="M 142 124 Q 140 124 137 123 Q 134 120 132 116 Q 130 111 134 107 Q 139 101 144 94 Q 159 59 157 53 Q 156 50 151 51 L 178 41 Q 190 48 189 52 Q 187 55 182 58 Q 177 60 173 67 Q 161 90 155 100" fill="#000080" clip-path="url(#clip-mask-3)" /><path d="M 157 119 Q 150 121 148 122 Q 144 124 142 124 L 155 100 Q 148 115 157 112 Q 165 110 168 108 Q 175 104 181 107 Q 196 115 197 121" fill="#0000ff" clip-path="url(#clip-mask-4)" /><path d="M 148 178 Q 161 164 168 138 Q 172 127 169 123 Q 166 120 157 119 L 197 121 Q 197 124 196 125 Q 189 130 185 142 Q 178 169 160 189 L 148 199 Q 121 219 86 227 Q 67 232 66 228 Q 66 227 73 225 Q 110 213 138 188" fill="#0000ff" clip-path="url(#clip-mask-5)" /><path d="M 94 132 Q 104 132 113 143 Q 131 163 148 178 L 160 189 Q 167 195 177 201 Q 191 209 239 224 Q 250 228 251 229 Q 251 232 240 233 Q 218 236 191 235 Q 182 235 177 229 Q 161 214 148 199 L 138 188 Q 108 149 91 138" fill="#0000ff" clip-path="url(#clip-mask-6)" /></svg>