<svg xmlns="http://www.w3.org/2000/svg" xmlns:xlink="http://www.w3.org/1999/xlink" width="270" height="270"><defs><clipPath id="clip-mask-1"><rect x="77" y="27" width="30" height="96"><animate attributeName="y" from="-69" to="27" dur="0.356" begin="0; animate10.end + 1" id="animate1" fill="freeze"/></rect></clipPath><clipPath id="clip-mask-2"><rect x="102" y="63" width="50" height="20"><set attributeName="x" to="52" begin="0; animate10.end + 1" /><animate attributeName="x" from="52" to="102" dur="0.185" begin="animate1.end + 0.5" id="animate2" fill="freeze"/></rect></clipPath><clipPath id="clip-mask-3"><rect x="11" y="114" width="126" height="39"><set attributeName="x" to="-115" begin="0; animate10.end + 1" /><animate attributeName="x" from="-115" to="11" dur="0.467" begin="animate2.end + 0.5" id="animate3" fill="freeze"/></rect></clipPath><clipPath id="clip-mask-4"><rect x="83" y="133" width="21" height="109"><set attributeName="y" to="24" begin="0; animate10.end + 1" /><animate attributeName="y" from="24" to="133" dur="0.404" begin="animate3.end + 0.5" id="animate4" fill="freeze"/></rect></clipPath><clipPath id="clip-mask-5"><rect x="61" y="209" width="24" height="29"><set attributeName="x" to="85" begin="0; animate10.end + 1" /><animate attributeName="x" from="85" to="61" dur="0.089" begin="animate4.end" id="animate5" fill="freeze"/></rect></clipPath><clipPath id="clip-mask-6"><rect x="28" y="164" width="28" height="50"><set attributeName="y" to="114" begin="0; animate10.end + 1" /><animate attributeName="y" from="114" to="164" dur="0.185" begin="animate5.end + 0.5" id="animate6" fill="freeze"/></rect></clipPath><clipPath id="clip-mask-7"><rect x="110" y="155" width="31" height="30"><set attributeName="x" to="79" begin="0; animate10.end + 1" /><animate attributeName="x" from="79" to="110" dur="0.115" begin="animate6.end + 0.5" id="animate7" fill="freeze"/></rect></clipPath><clipPath id="clip-mask-8"><rect x="142" y="88" width="76" height="31"><set attributeName="x" to="66" begin="0; animate10.end + 1" /><animate attributeName="x" from="66" to="142" dur="0.281" begin="animate7.end + 0.5" id="animate8" fill="freeze"/></rect></clipPath><clipPath id="clip-mask-9"><rect x="5" y="94" width="218" height="122"><set attributeName="y" to="-28" begin="0; animate10.end + 1" /><animate attributeName="y" from="-28" to="94" dur="0.452" begin="animate8.end" id="animate9" fill="freeze"/></rect></clipPath><clipPath id="clip-mask-10"><rect x="141" y="127" width="117" height="96"><set attributeName="x" to="24" begin="0; animate10.end + 1" /><animate attributeName="x" from="24" to="141" dur="0.433" begin="animate9.end + 0.5" id="animate10" fill="freeze"/></rect></clipPath></defs><path d="M 0 0 L 270 270 M 270 0 L 0 270 M 135 0 L 135 270 M 0 135 L 270 135" stroke="#CCCCCC" /><path d="M 88 123 Q 88 83 85 48 Q 85 43 79 35 Q 77 32 79 29 Q 81 27 85 28 Q 92 29 102 34 Q 107 38 106 41 Q 102 58 102 74 L 102 79 Q 100 99 99 120" fill="#CCCCCC"/><path d="M 102 74 Q 103 73 104 73 Q 111 72 116 70 Q 134 63 140 63 Q 149 64 151 67 Q 152 69 150 71 Q 150 72 146 73 Q 138 76 130 78 Q 113 83 102 79" fill="#CCCCCC"/><path d="M 71 138 L 40 149 Q 28 153 16 145 Q 11 141 12 138 Q 13 136 17 135 Q 42 133 88 123 L 99 120 Q 108 118 117 115 Q 124 114 132 117 Q 137 120 137 123 Q 137 126 132 126 Q 111 129 95 133 L 85 135" fill="#CCCCCC"/><path d="M 95 133 Q 97 134 99 137 Q 104 142 102 153 Q 101 167 101 207 Q 101 223 96 232 Q 93 241 90 242 Q 87 242 83 238 L 85 212 Q 88 204 88 174 Q 88 145 85 135" fill="#CCCCCC"/><path d="M 83 238 Q 79 229 64 214 Q 61 212 62 210 Q 63 209 66 209 Q 72 211 79 213 Q 84 214 85 212" fill="#CCCCCC"/><path d="M 48 164 L 51 164 Q 52 164 54 167 Q 56 174 54 182 Q 54 201 40 210 Q 34 214 32 209 Q 28 199 33 191 Q 42 180 47 167" fill="#CCCCCC"/><path d="M 110 162 L 111 159 Q 111 155 114 156 Q 119 157 129 162 Q 136 164 138 169 Q 141 176 141 180 Q 138 185 134 185 Q 127 184 112 164" fill="#CCCCCC"/><path d="M 190 104 Q 188 104 173 112 Q 156 119 148 115 Q 142 111 143 108 Q 144 106 149 106 Q 153 105 181 97 Q 199 88 204 90 Q 212 91 218 94" fill="#CCCCCC"/><path d="M 175 191 L 171 195 Q 158 205 137 213 Q 132 216 130 215 Q 128 214 131 212 Q 155 195 172 173 L 179 161 Q 190 141 193.5 122.5 Q 197 104 190 104 L 218 94 Q 223 98 218 102 Q 211 111 209 122 Q 204 145 188 173 L 180 185" fill="#CCCCCC"/><path d="M 172 173 Q 153 139 147 135 Q 145 134 143 132 Q 141 130 143 128 Q 145 127 149 128 Q 157 130 161 137 Q 170 151 179 161 L 188 173 Q 207 193 221 200 Q 252 214 255 217 Q 258 219 256 221 Q 252 222 249 222 Q 219 223 214 222 Q 204 219 180 185" fill="#CCCCCC"/><path d="M 88 123 Q 88 83 85 48 Q 85 43 79 35 Q 77 32 79 29 Q 81 27 85 28 Q 92 29 102 34 Q 107 38 106 41 Q 102 58 102 74 L 102 79 Q 100 99 99 120" fill="#000080" clip-path="url(#clip-mask-1)" /><path d="M 102 74 Q 103 73 104 73 Q 111 72 116 70 Q 134 63 140 63 Q 149 64 151 67 Q 152 69 150 71 Q 150 72 146 73 Q 138 76 130 78 Q 113 83 102 79" fill="#000080" clip-path="url(#clip-mask-2)" /><path d="M 71 138 L 40 149 Q 28 153 16 145 Q 11 141 12 138 Q 13 136 17 135 Q 42 133 88 123 L 99 120 Q 108 118 117 115 Q 124 114 132 117 Q 137 120 137 123 Q 137 126 132 126 Q 111 129 95 133 L 85 135" fill="#000080" clip-path="url(#clip-mask-3)" /><path d="M 95 133 Q 97 134 99 137 Q 104 142 102 153 Q 101 167 101 207 Q 101 223 96 232 Q 93 241 90 242 Q 87 242 83 238 L 85 212 Q 88 204 88 174 Q 88 145 85 135" fill="#000080" clip-path="url(#clip-mask-4)" /><path d="M 83 238 Q 79 229 64 214 Q 61 212 62 210 Q 63 209 66 209 Q 72 211 79 213 Q 84 214 85 212" fill="#000080" clip-path="url(#clip-mask-5)" /><path d="M 48 164 L 51 164 Q 52 164 54 167 Q 56 174 54 182 Q 54 201 40 210 Q 34 214 32 209 Q 28 199 33 191 Q 42 180 47 167" fill="#000080" clip-path="url(#clip-mask-6)" /><path d="M 110 162 L 111 159 Q 111 155 114 156 Q 119 157 129 162 Q 136 164 138 169 Q 141 176 141 180 Q 138 185 134 185 Q 127 184 112 164" fill="#000080" clip-path="url(#clip-mask-7)" /><path d="M 190 104 Q 188 104 173 112 Q 156 119 148 115 Q 142 111 143 108 Q 144 106 149 106 Q 153 105 181 97 Q 199 88 204 90 Q 212 91 218 94" fill="#0000ff" clip-path="url(#clip-mask-8)" /><path d="M 175 191 L 171 195 Q 158 205 137 213 Q 132 216 130 215 Q 128 214 131 212 Q 155 195 172 173 L 179 161 Q 190 141 193.5 122.5 Q 197 104 190 104 L 218 94 Q 223 98 218 102 Q 211 111 209 122 Q 204 145 188 173 L 180 185" fill="#0000ff" clip-path="url(#clip-mask-9)" /><path d="M 172 173 Q 153 139 147 135 Q 145 134 143 132 Q 141 130 143 128 Q 145 127 149 128 Q 157 130 161 137 Q 170 151 179 161 L 188 173 Q 207 193 221 200 Q 252 214 255 217 Q 258 219 256 221 Q 252 222 249 222 Q 219 223 214 222 Q 204 219 180 185" fill="#0000ff" clip-path="url(#clip-mask-10)" /></svg>