<svg xmlns="http://www.w3.org/2000/svg" xmlns:xlink="http://www.w3.org/1999/xlink" width="270" height="270"><defs><clipPath id="clip-mask-1"><rect x="102" y="27" width="99" height="52"><animate attributeName="x" from="201" to="102" dur="0.367" begin="0; animate7.end + 1" id="animate1" fill="freeze"/></rect></clipPath><clipPath id="clip-mask-2"><rect x="26" y="64" width="78" height="161"><set attributeName="y" to="-97" begin="0; animate7.end + 1" /><animate attributeName="y" from="-97" to="64" dur="0.596" begin="animate1.end + 0.5" id="animate2" fill="freeze"/></rect></clipPath><clipPath id="clip-mask-3"><rect x="97" y="93" width="146" height="39"><set attributeName="x" to="-49" begin="0; animate7.end + 1" /><animate attributeName="x" from="-49" to="97" dur="0.541" begin="animate2.end + 0.5" id="animate3" fill="freeze"/></rect></clipPath><clipPath id="clip-mask-4"><rect x="96" y="159" width="29" height="83"><set attributeName="y" to="76" begin="0; animate7.end + 1" /><animate attributeName="y" from="76" to="159" dur="0.307" begin="animate3.end + 0.5" id="animate4" fill="freeze"/></rect></clipPath><clipPath id="clip-mask-5"><rect x="112" y="145" width="113" height="28"><set attributeName="x" to="-1" begin="0; animate7.end + 1" /><animate attributeName="x" from="-1" to="112" dur="0.419" begin="animate4.end + 0.5" id="animate5" fill="freeze"/></rect></clipPath><clipPath id="clip-mask-6"><rect x="187" y="160" width="42" height="48"><set attributeName="y" to="112" begin="0; animate7.end + 1" /><animate attributeName="y" from="112" to="160" dur="0.178" begin="animate5.end" id="animate6" fill="freeze"/></rect></clipPath><clipPath id="clip-mask-7"><rect x="124" y="207" width="89" height="21"><set attributeName="x" to="35" begin="0; animate7.end + 1" /><animate attributeName="x" from="35" to="124" dur="0.330" begin="animate6.end + 0.5" id="animate7" fill="freeze"/></rect></clipPath></defs><path d="M 0 0 L 270 270 M 270 0 L 0 270 M 135 0 L 135 270 M 0 135 L 270 135" stroke="#CCCCCC" /><path d="M 102 73 Q 165 44 165 32 Q 166 28 168 27 Q 172 27 177 30 Q 191 35 198 40 Q 201 44 200 47 Q 199 50 193 50 Q 181 52 167 58 Q 141 69 104 79" fill="#CCCCCC"/><path d="M 88 180 L 62 206 Q 40 225 30 225 Q 26 224 27 223 Q 28 221 32 218 Q 57 196 66 179 Q 75 161 79 146 Q 90 89 81 71 Q 77 65 83 64 Q 87 64 100 72 Q 101 72 102 73 L 104 79 Q 104 80 101 89 Q 99 105 98 119 L 97 124" fill="#CCCCCC"/><path d="M 98 119 Q 97 118 98 118 Q 180 104 214 95 Q 224 93 238 102 Q 243 106 242 109 Q 241 112 235 112 Q 235 112 234 112 Q 168 112 116 128 Q 106 132 97 124" fill="#CCCCCC"/><path d="M 124 234 L 123 237 Q 122 242 117 235 Q 111 229 111 219 Q 106 187 98 167 Q 96 163 97 161 Q 99 159 102 160 Q 109 162 112 163 L 117 173 Q 119 184 124 217 L 125 228" fill="#CCCCCC"/><path d="M 194 163 Q 191 160 183 162 Q 120 173 117 173 L 112 163 Q 159 159 191 147 Q 197 145 203 147 Q 220 156 225 160" fill="#CCCCCC"/><path d="M 187 207 Q 192 191 196 173 Q 197 167 194 163 L 225 160 Q 229 166 224 171 Q 213 179 203 208" fill="#CCCCCC"/><path d="M 124 217 Q 152 214 187 207 L 203 208 L 204 208 Q 213 215 213 217 Q 212 220 209 221 Q 154 223 129 228 Q 127 228 125 228" fill="#CCCCCC"/><path d="M 102 73 Q 165 44 165 32 Q 166 28 168 27 Q 172 27 177 30 Q 191 35 198 40 Q 201 44 200 47 Q 199 50 193 50 Q 181 52 167 58 Q 141 69 104 79" fill="#000080" clip-path="url(#clip-mask-1)" /><path d="M 88 180 L 62 206 Q 40 225 30 225 Q 26 224 27 223 Q 28 221 32 218 Q 57 196 66 179 Q 75 161 79 146 Q 90 89 81 71 Q 77 65 83 64 Q 87 64 100 72 Q 101 72 102 73 L 104 79 Q 104 80 101 89 Q 99 105 98 119 L 97 124" fill="#000080" clip-path="url(#clip-mask-2)" /><path d="M 98 119 Q 97 118 98 118 Q 180 104 214 95 Q 224 93 238 102 Q 243 106 242 109 Q 241 112 235 112 Q 235 112 234 112 Q 168 112 116 128 Q 106 132 97 124" fill="#000080" clip-path="url(#clip-mask-3)" /><path d="M 124 234 L 123 237 Q 122 242 117 235 Q 111 229 111 219 Q 106 187 98 167 Q 96 163 97 161 Q 99 159 102 160 Q 109 162 112 163 L 117 173 Q 119 184 124 217 L 125 228" fill="#0000ff" clip-path="url(#clip-mask-4)" /><path d="M 194 163 Q 191 160 183 162 Q 120 173 117 173 L 112 163 Q 159 159 191 147 Q 197 145 203 147 Q 220 156 225 160" fill="#0000ff" clip-path="url(#clip-mask-5)" /><path d="M 187 207 Q 192 191 196 173 Q 197 167 194 163 L 225 160 Q 229 166 224 171 Q 213 179 203 208" fill="#0000ff" clip-path="url(#clip-mask-6)" /><path d="M 124 217 Q 152 214 187 207 L 203 208 L 204 208 Q 213 215 213 217 Q 212 220 209 221 Q 154 223 129 228 Q 127 228 125 228" fill="#0000ff" clip-path="url(#clip-mask-7)" /></svg>