<svg xmlns="http://www.w3.org/2000/svg" xmlns:xlink="http://www.w3.org/1999/xlink" width="270" height="270"><defs><clipPath id="clip-mask-1"><rect x="11" y="79" width="29" height="86"><animate attributeName="y" from="-7" to="79" dur="0.319" begin="0; animate11.end + 1" id="animate1" fill="freeze"/></rect></clipPath><clipPath id="clip-mask-2"><rect x="31" y="66" width="65" height="26"><set attributeName="x" to="-34" begin="0; animate11.end + 1" /><animate attributeName="x" from="-34" to="31" dur="0.241" begin="animate1.end + 0.5" id="animate2" fill="freeze"/></rect></clipPath><clipPath id="clip-mask-3"><rect x="61" y="85" width="28" height="39"><set attributeName="y" to="46" begin="0; animate11.end + 1" /><animate attributeName="y" from="46" to="85" dur="0.144" begin="animate2.end" id="animate3" fill="freeze"/></rect></clipPath><clipPath id="clip-mask-4"><rect x="38" y="124" width="45" height="20"><set attributeName="x" to="-7" begin="0; animate11.end + 1" /><animate attributeName="x" from="-7" to="38" dur="0.167" begin="animate3.end + 0.5" id="animate4" fill="freeze"/></rect></clipPath><clipPath id="clip-mask-5"><rect x="112" y="45" width="105" height="32"><set attributeName="x" to="7" begin="0; animate11.end + 1" /><animate attributeName="x" from="7" to="112" dur="0.389" begin="animate4.end + 0.5" id="animate5" fill="freeze"/></rect></clipPath><clipPath id="clip-mask-6"><rect x="180" y="58" width="41" height="50"><set attributeName="y" to="8" begin="0; animate11.end + 1" /><animate attributeName="y" from="8" to="58" dur="0.185" begin="animate5.end" id="animate6" fill="freeze"/></rect></clipPath><clipPath id="clip-mask-7"><rect x="142" y="69" width="20" height="47"><set attributeName="y" to="22" begin="0; animate11.end + 1" /><animate attributeName="y" from="22" to="69" dur="0.174" begin="animate6.end + 0.5" id="animate7" fill="freeze"/></rect></clipPath><clipPath id="clip-mask-8"><rect x="111" y="106" width="90" height="26"><set attributeName="x" to="21" begin="0; animate11.end + 1" /><animate attributeName="x" from="21" to="111" dur="0.333" begin="animate7.end + 0.5" id="animate8" fill="freeze"/></rect></clipPath><clipPath id="clip-mask-9"><rect x="94" y="61" width="23" height="140"><set attributeName="y" to="-79" begin="0; animate11.end + 1" /><animate attributeName="y" from="-79" to="61" dur="0.519" begin="animate8.end + 0.5" id="animate9" fill="freeze"/></rect></clipPath><clipPath id="clip-mask-10"><rect x="114" y="177" width="144" height="47"><set attributeName="x" to="-30" begin="0; animate11.end + 1" /><animate attributeName="x" from="-30" to="114" dur="0.533" begin="animate9.end" id="animate10" fill="freeze"/></rect></clipPath><clipPath id="clip-mask-11"><rect x="227" y="145" width="26" height="39"><set attributeName="y" to="184" begin="0; animate11.end + 1" /><animate attributeName="y" from="184" to="145" dur="0.144" begin="animate10.end" id="animate11" fill="freeze"/></rect></clipPath></defs><path d="M 0 0 L 270 270 M 270 0 L 0 270 M 135 0 L 135 270 M 0 135 L 270 135" stroke="#CCCCCC" /><path d="M 40 155 L 38 160 Q 36 165 31 158 Q 26 151 26 141 Q 22 108 14 87 Q 11 82 13 80 Q 15 79 18 80 Q 27 82 31 84 L 33 92 Q 34 102 38 134 L 39 144" fill="#CCCCCC"/><path d="M 66 85 Q 65 83 58 85 Q 50 87 33 92 L 31 84 Q 48 79 57 74 Q 69 66 75 69 Q 83 74 89 77 Q 96 81 89 89" fill="#CCCCCC"/><path d="M 61 124 Q 64 111 67 99 Q 70 88 66 85 L 89 89 Q 82 97 76 124" fill="#CCCCCC"/><path d="M 38 134 Q 49 130 61 124 L 61 124 L 76 124 Q 83 127 83 129 Q 83 131 81 132 Q 62 136 39 144" fill="#CCCCCC"/><path d="M 156 60 L 184 47 Q 190 45 196 47 Q 212 54 217 58 L 188 63 Q 185 61 179 62 Q 165 66 152 69 L 142 72 Q 135 73 129 75 Q 122 77 116 77 L 112 68" fill="#CCCCCC"/><path d="M 217 58 Q 221 63 216 69 Q 204 78 195 108 L 180 106 Q 186 91 190 72 Q 191 66 188 63" fill="#CCCCCC"/><path d="M 142 116 Q 143 75 142 73 Q 142 72 142 72 L 152 69 Q 162 77 159 84 Q 157 88 154 113" fill="#CCCCCC"/><path d="M 195 108 Q 201 112 201 113 Q 201 116 198 117 Q 146 124 123 131 Q 119 132 116 131 Q 113 130 111 129 L 111 123 Q 111 122 112 122 Q 126 120 142 116 L 154 113 Q 165 110 178 106 Q 179 106 180 106" fill="#CCCCCC"/><path d="M 111 129 Q 110 162 117 177 L 114 201 Q 105 192 103 183 Q 97 163 99 92 Q 100 81 96 69 Q 94 63 96 62 Q 98 61 102 62 Q 109 64 112 68 L 116 77 Q 112 102 111 123" fill="#CCCCCC"/><path d="M 117 177 Q 122 185 134 191 Q 149 198 167 199 Q 188 200 205 196 Q 222 191 227 184 L 253 182 Q 258 190 252 195 Q 237 206 221 211 Q 213 213 206 215 Q 145 224 114 201" fill="#CCCCCC"/><path d="M 227 184 Q 231 176 237 151 Q 238 145 240 146 Q 242 148 242 152 Q 249 175 253 182" fill="#CCCCCC"/><path d="M 40 155 L 38 160 Q 36 165 31 158 Q 26 151 26 141 Q 22 108 14 87 Q 11 82 13 80 Q 15 79 18 80 Q 27 82 31 84 L 33 92 Q 34 102 38 134 L 39 144" fill="#0000ff" clip-path="url(#clip-mask-1)" /><path d="M 66 85 Q 65 83 58 85 Q 50 87 33 92 L 31 84 Q 48 79 57 74 Q 69 66 75 69 Q 83 74 89 77 Q 96 81 89 89" fill="#0000ff" clip-path="url(#clip-mask-2)" /><path d="M 61 124 Q 64 111 67 99 Q 70 88 66 85 L 89 89 Q 82 97 76 124" fill="#0000ff" clip-path="url(#clip-mask-3)" /><path d="M 38 134 Q 49 130 61 124 L 61 124 L 76 124 Q 83 127 83 129 Q 83 131 81 132 Q 62 136 39 144" fill="#0000ff" clip-path="url(#clip-mask-4)" /><path d="M 156 60 L 184 47 Q 190 45 196 47 Q 212 54 217 58 L 188 63 Q 185 61 179 62 Q 165 66 152 69 L 142 72 Q 135 73 129 75 Q 122 77 116 77 L 112 68" fill="#000080" clip-path="url(#clip-mask-5)" /><path d="M 217 58 Q 221 63 216 69 Q 204 78 195 108 L 180 106 Q 186 91 190 72 Q 191 66 188 63" fill="#000080" clip-path="url(#clip-mask-6)" /><path d="M 142 116 Q 143 75 142 73 Q 142 72 142 72 L 152 69 Q 162 77 159 84 Q 157 88 154 113" fill="#000080" clip-path="url(#clip-mask-7)" /><path d="M 195 108 Q 201 112 201 113 Q 201 116 198 117 Q 146 124 123 131 Q 119 132 116 131 Q 113 130 111 129 L 111 123 Q 111 122 112 122 Q 126 120 142 116 L 154 113 Q 165 110 178 106 Q 179 106 180 106" fill="#000080" clip-path="url(#clip-mask-8)" /><path d="M 111 129 Q 110 162 117 177 L 114 201 Q 105 192 103 183 Q 97 163 99 92 Q 100 81 96 69 Q 94 63 96 62 Q 98 61 102 62 Q 109 64 112 68 L 116 77 Q 112 102 111 123" fill="#000080" clip-path="url(#clip-mask-9)" /><path d="M 117 177 Q 122 185 134 191 Q 149 198 167 199 Q 188 200 205 196 Q 222 191 227 184 L 253 182 Q 258 190 252 195 Q 237 206 221 211 Q 213 213 206 215 Q 145 224 114 201" fill="#000080" clip-path="url(#clip-mask-10)" /><path d="M 227 184 Q 231 176 237 151 Q 238 145 240 146 Q 242 148 242 152 Q 249 175 253 182" fill="#000080" clip-path="url(#clip-mask-11)" /></svg>