<svg xmlns="http://www.w3.org/2000/svg" xmlns:xlink="http://www.w3.org/1999/xlink" width="270" height="270"><defs><clipPath id="clip-mask-1"><rect x="71" y="45" width="32" height="71"><animate attributeName="y" from="-26" to="45" dur="0.263" begin="0; animate9.end + 1" id="animate1" fill="freeze"/></rect></clipPath><clipPath id="clip-mask-2"><rect x="90" y="33" width="101" height="25"><set attributeName="x" to="-11" begin="0; animate9.end + 1" /><animate attributeName="x" from="-11" to="90" dur="0.374" begin="animate1.end + 0.5" id="animate2" fill="freeze"/></rect></clipPath><clipPath id="clip-mask-3"><rect x="153" y="48" width="42" height="43"><set attributeName="y" to="5" begin="0; animate9.end + 1" /><animate attributeName="y" from="5" to="48" dur="0.159" begin="animate2.end" id="animate3" fill="freeze"/></rect></clipPath><clipPath id="clip-mask-4"><rect x="103" y="87" width="70" height="20"><set attributeName="x" to="33" begin="0; animate9.end + 1" /><animate attributeName="x" from="33" to="103" dur="0.259" begin="animate3.end + 0.5" id="animate4" fill="freeze"/></rect></clipPath><clipPath id="clip-mask-5"><rect x="101" y="104" width="33" height="47"><set attributeName="y" to="57" begin="0; animate9.end + 1" /><animate attributeName="y" from="57" to="104" dur="0.174" begin="animate4.end + 0.5" id="animate5" fill="freeze"/></rect></clipPath><clipPath id="clip-mask-6"><rect x="54" y="148" width="36" height="88"><set attributeName="y" to="60" begin="0; animate9.end + 1" /><animate attributeName="y" from="60" to="148" dur="0.326" begin="animate5.end + 0.5" id="animate6" fill="freeze"/></rect></clipPath><clipPath id="clip-mask-7"><rect x="75" y="132" width="136" height="31"><set attributeName="x" to="-61" begin="0; animate9.end + 1" /><animate attributeName="x" from="-61" to="75" dur="0.504" begin="animate6.end + 0.5" id="animate7" fill="freeze"/></rect></clipPath><clipPath id="clip-mask-8"><rect x="171" y="151" width="44" height="53"><set attributeName="y" to="98" begin="0; animate9.end + 1" /><animate attributeName="y" from="98" to="151" dur="0.196" begin="animate7.end" id="animate8" fill="freeze"/></rect></clipPath><clipPath id="clip-mask-9"><rect x="88" y="201" width="107" height="23"><set attributeName="x" to="-19" begin="0; animate9.end + 1" /><animate attributeName="x" from="-19" to="88" dur="0.396" begin="animate8.end + 0.5" id="animate9" fill="freeze"/></rect></clipPath></defs><path d="M 0 0 L 270 270 M 270 0 L 0 270 M 135 0 L 135 270 M 0 135 L 270 135" stroke="#CCCCCC" /><path d="M 103 107 Q 103 109 103 111 Q 102 116 96 110 Q 91 105 90 96 Q 83 69 73 53 Q 71 48 72 46 Q 73 45 77 45 Q 87 46 90 48 L 94 58 Q 95 67 102 93 Q 102 95 103 97" fill="#CCCCCC"/><path d="M 163 50 Q 160 47 153 48 Q 98 56 94 58 L 90 48 Q 136 43 160 34 Q 167 33 172 35 Q 187 44 191 48" fill="#CCCCCC"/><path d="M 153 87 Q 159 74 164 59 Q 166 53 163 50 L 191 48 Q 195 54 190 59 Q 179 65 168 91" fill="#CCCCCC"/><path d="M 111 106 Q 107 107 103 107 L 103 97 Q 123 94 150 87 Q 152 87 153 87 L 168 91 Q 173 94 173 96 Q 172 99 169 99 Q 140 101 123 104" fill="#CCCCCC"/><path d="M 101 151 Q 102 148 103 147 Q 115 115 111 106 L 123 104 Q 129 109 132 113 Q 134 115 130 119 Q 126 124 123 129 Q 118 139 113 147 Q 112 148 112 150" fill="#CCCCCC"/><path d="M 90 224 Q 89 228 89 231 Q 87 236 81 230 Q 75 223 74 213 Q 67 178 57 157 Q 54 152 56 150 Q 57 148 61 149 Q 71 150 75 152 L 79 163 Q 83 191 88 211" fill="#CCCCCC"/><path d="M 178 154 Q 175 150 164 152 Q 125 157 83 162 Q 81 163 79 163 L 75 152 Q 88 152 101 151 L 112 150 Q 155 143 176 137 Q 189 132 211 151" fill="#CCCCCC"/><path d="M 171 201 Q 176 185 181 165 Q 182 158 178 154 L 211 151 Q 215 157 209 163 Q 197 173 187 204" fill="#CCCCCC"/><path d="M 195 211 L 195 214 Q 194 217 190 217 Q 123 219 92 224 Q 91 224 90 224 L 88 211 Q 124 209 168 201 Q 169 201 171 201 L 187 204" fill="#CCCCCC"/><path d="M 103 107 Q 103 109 103 111 Q 102 116 96 110 Q 91 105 90 96 Q 83 69 73 53 Q 71 48 72 46 Q 73 45 77 45 Q 87 46 90 48 L 94 58 Q 95 67 102 93 Q 102 95 103 97" fill="#0000ff" clip-path="url(#clip-mask-1)" /><path d="M 163 50 Q 160 47 153 48 Q 98 56 94 58 L 90 48 Q 136 43 160 34 Q 167 33 172 35 Q 187 44 191 48" fill="#0000ff" clip-path="url(#clip-mask-2)" /><path d="M 153 87 Q 159 74 164 59 Q 166 53 163 50 L 191 48 Q 195 54 190 59 Q 179 65 168 91" fill="#0000ff" clip-path="url(#clip-mask-3)" /><path d="M 111 106 Q 107 107 103 107 L 103 97 Q 123 94 150 87 Q 152 87 153 87 L 168 91 Q 173 94 173 96 Q 172 99 169 99 Q 140 101 123 104" fill="#0000ff" clip-path="url(#clip-mask-4)" /><path d="M 101 151 Q 102 148 103 147 Q 115 115 111 106 L 123 104 Q 129 109 132 113 Q 134 115 130 119 Q 126 124 123 129 Q 118 139 113 147 Q 112 148 112 150" fill="#000080" clip-path="url(#clip-mask-5)" /><path d="M 90 224 Q 89 228 89 231 Q 87 236 81 230 Q 75 223 74 213 Q 67 178 57 157 Q 54 152 56 150 Q 57 148 61 149 Q 71 150 75 152 L 79 163 Q 83 191 88 211" fill="#000080" clip-path="url(#clip-mask-6)" /><path d="M 178 154 Q 175 150 164 152 Q 125 157 83 162 Q 81 163 79 163 L 75 152 Q 88 152 101 151 L 112 150 Q 155 143 176 137 Q 189 132 211 151" fill="#000080" clip-path="url(#clip-mask-7)" /><path d="M 171 201 Q 176 185 181 165 Q 182 158 178 154 L 211 151 Q 215 157 209 163 Q 197 173 187 204" fill="#000080" clip-path="url(#clip-mask-8)" /><path d="M 195 211 L 195 214 Q 194 217 190 217 Q 123 219 92 224 Q 91 224 90 224 L 88 211 Q 124 209 168 201 Q 169 201 171 201 L 187 204" fill="#000080" clip-path="url(#clip-mask-9)" /></svg>