<svg xmlns="http://www.w3.org/2000/svg" xmlns:xlink="http://www.w3.org/1999/xlink" width="270" height="270"><defs><clipPath id="clip-mask-1"><rect x="79" y="26" width="30" height="55"><animate attributeName="y" from="-29" to="26" dur="0.204" begin="0; animate12.end + 1" id="animate1" fill="freeze"/></rect></clipPath><clipPath id="clip-mask-2"><rect x="84" y="13" width="116" height="23"><set attributeName="x" to="-32" begin="0; animate12.end + 1" /><animate attributeName="x" from="-32" to="84" dur="0.430" begin="animate1.end + 0.5" id="animate2" fill="freeze"/></rect></clipPath><clipPath id="clip-mask-3"><rect x="168" y="28" width="36" height="29"><set attributeName="y" to="-1" begin="0; animate12.end + 1" /><animate attributeName="y" from="-1" to="28" dur="0.107" begin="animate2.end" id="animate3" fill="freeze"/></rect></clipPath><clipPath id="clip-mask-4"><rect x="108" y="53" width="79" height="20"><set attributeName="x" to="29" begin="0; animate12.end + 1" /><animate attributeName="x" from="29" to="108" dur="0.293" begin="animate3.end + 0.5" id="animate4" fill="freeze"/></rect></clipPath><clipPath id="clip-mask-5"><rect x="82" y="88" width="22" height="112"><set attributeName="y" to="-24" begin="0; animate12.end + 1" /><animate attributeName="y" from="-24" to="88" dur="0.415" begin="animate4.end + 0.5" id="animate5" fill="freeze"/></rect></clipPath><clipPath id="clip-mask-6"><rect x="96" y="76" width="110" height="25"><set attributeName="x" to="-14" begin="0; animate12.end + 1" /><animate attributeName="x" from="-14" to="96" dur="0.407" begin="animate5.end + 0.5" id="animate6" fill="freeze"/></rect></clipPath><clipPath id="clip-mask-7"><rect x="178" y="90" width="30" height="110"><set attributeName="y" to="-20" begin="0; animate12.end + 1" /><animate attributeName="y" from="-20" to="90" dur="0.407" begin="animate6.end" id="animate7" fill="freeze"/></rect></clipPath><clipPath id="clip-mask-8"><rect x="103" y="111" width="65" height="19"><set attributeName="x" to="38" begin="0; animate12.end + 1" /><animate attributeName="x" from="38" to="103" dur="0.241" begin="animate7.end + 0.5" id="animate8" fill="freeze"/></rect></clipPath><clipPath id="clip-mask-9"><rect x="103" y="140" width="67" height="17"><set attributeName="x" to="36" begin="0; animate12.end + 1" /><animate attributeName="x" from="36" to="103" dur="0.248" begin="animate8.end + 0.5" id="animate9" fill="freeze"/></rect></clipPath><clipPath id="clip-mask-10"><rect x="101" y="170" width="81" height="18"><set attributeName="x" to="20" begin="0; animate12.end + 1" /><animate attributeName="x" from="20" to="101" dur="0.300" begin="animate9.end + 0.5" id="animate10" fill="freeze"/></rect></clipPath><clipPath id="clip-mask-11"><rect x="56" y="196" width="77" height="57"><set attributeName="y" to="139" begin="0; animate12.end + 1" /><animate attributeName="y" from="139" to="196" dur="0.211" begin="animate10.end + 0.5" id="animate11" fill="freeze"/></rect></clipPath><clipPath id="clip-mask-12"><rect x="157" y="196" width="56" height="60"><set attributeName="x" to="101" begin="0; animate12.end + 1" /><animate attributeName="x" from="101" to="157" dur="0.207" begin="animate11.end + 0.5" id="animate12" fill="freeze"/></rect></clipPath></defs><path d="M 0 0 L 270 270 M 270 0 L 0 270 M 135 0 L 135 270 M 0 135 L 270 135" stroke="#CCCCCC" /><path d="M 109 75 L 109 76 Q 108 81 103 76 Q 98 72 97 66 Q 90 45 82 33 Q 79 29 80 28 Q 81 26 84 27 L 100 36 Q 107 64 108 64 L 109 72" fill="#CCCCCC"/><path d="M 174 29 Q 171 26 163 27 Q 135 32 105 35 Q 103 36 100 36 L 84 27 Q 133 26 171 14 Q 178 13 183 15 Q 196 24 200 28" fill="#CCCCCC"/><path d="M 168 53 Q 176 32 174 29 L 200 28 Q 204 33 199 38 Q 191 41 183 57" fill="#CCCCCC"/><path d="M 108 64 Q 134 61 167 53 Q 168 53 168 53 L 183 57 Q 187 60 187 61 Q 186 64 184 64 Q 135 67 113 72 Q 111 73 109 72" fill="#CCCCCC"/><path d="M 99 194 L 97 196 Q 95 200 92 196 Q 89 193 86 184 Q 85 180 89 163 Q 94 113 84 95 Q 82 92 83 90 Q 85 88 87 89 Q 92 90 96 92 L 104 101 Q 103 112 103 123 L 103 128 Q 103 139 103 150 L 103 157 Q 103 173 102 180 L 101 188" fill="#CCCCCC"/><path d="M 178 93 Q 175 88 166 89 Q 140 93 105 101 Q 104 101 104 101 L 96 92 Q 144 90 173 78 Q 180 76 184 78 Q 198 83 206 90" fill="#CCCCCC"/><path d="M 182 173 Q 184 159 182 116 Q 182 98 178 93 L 206 90 Q 208 93 205 98 Q 200 107 200 117 Q 200 152 204 174 Q 204 181 200 189 Q 195 199 191 199 Q 188 200 184 191 Q 181 186 181 182" fill="#CCCCCC"/><path d="M 103 123 Q 148 111 156 112 Q 163 113 166 118 Q 168 121 161 122 Q 140 125 112 129 Q 106 130 103 128" fill="#CCCCCC"/><path d="M 103 150 Q 120 146 140 142 Q 152 140 158 141 Q 165 142 168 147 Q 170 150 163 151 Q 140 153 109 157 Q 106 157 103 157" fill="#CCCCCC"/><path d="M 102 180 Q 129 176 160 172 Q 172 170 178 171 Q 180 172 182 173 L 181 182 Q 148 184 105 188 Q 103 188 101 188" fill="#CCCCCC"/><path d="M 110 197 L 112 197 Q 116 196 124 200 Q 131 203 132 207 Q 133 209 129 213 Q 120 219 113 227 Q 79 253 64 252 Q 56 253 62 249 Q 104 220 109 201" fill="#CCCCCC"/><path d="M 157 203 L 157 200 Q 158 196 160 198 Q 207 220 210 238 Q 213 250 209 254 Q 207 256 205 256 Q 200 254 196 249 Q 176 224 159 206" fill="#CCCCCC"/><path d="M 109 75 L 109 76 Q 108 81 103 76 Q 98 72 97 66 Q 90 45 82 33 Q 79 29 80 28 Q 81 26 84 27 L 100 36 Q 107 64 108 64 L 109 72" fill="#0000ff" clip-path="url(#clip-mask-1)" /><path d="M 174 29 Q 171 26 163 27 Q 135 32 105 35 Q 103 36 100 36 L 84 27 Q 133 26 171 14 Q 178 13 183 15 Q 196 24 200 28" fill="#0000ff" clip-path="url(#clip-mask-2)" /><path d="M 168 53 Q 176 32 174 29 L 200 28 Q 204 33 199 38 Q 191 41 183 57" fill="#0000ff" clip-path="url(#clip-mask-3)" /><path d="M 108 64 Q 134 61 167 53 Q 168 53 168 53 L 183 57 Q 187 60 187 61 Q 186 64 184 64 Q 135 67 113 72 Q 111 73 109 72" fill="#0000ff" clip-path="url(#clip-mask-4)" /><path d="M 99 194 L 97 196 Q 95 200 92 196 Q 89 193 86 184 Q 85 180 89 163 Q 94 113 84 95 Q 82 92 83 90 Q 85 88 87 89 Q 92 90 96 92 L 104 101 Q 103 112 103 123 L 103 128 Q 103 139 103 150 L 103 157 Q 103 173 102 180 L 101 188" fill="#000080" clip-path="url(#clip-mask-5)" /><path d="M 178 93 Q 175 88 166 89 Q 140 93 105 101 Q 104 101 104 101 L 96 92 Q 144 90 173 78 Q 180 76 184 78 Q 198 83 206 90" fill="#000080" clip-path="url(#clip-mask-6)" /><path d="M 182 173 Q 184 159 182 116 Q 182 98 178 93 L 206 90 Q 208 93 205 98 Q 200 107 200 117 Q 200 152 204 174 Q 204 181 200 189 Q 195 199 191 199 Q 188 200 184 191 Q 181 186 181 182" fill="#000080" clip-path="url(#clip-mask-7)" /><path d="M 103 123 Q 148 111 156 112 Q 163 113 166 118 Q 168 121 161 122 Q 140 125 112 129 Q 106 130 103 128" fill="#000080" clip-path="url(#clip-mask-8)" /><path d="M 103 150 Q 120 146 140 142 Q 152 140 158 141 Q 165 142 168 147 Q 170 150 163 151 Q 140 153 109 157 Q 106 157 103 157" fill="#000080" clip-path="url(#clip-mask-9)" /><path d="M 102 180 Q 129 176 160 172 Q 172 170 178 171 Q 180 172 182 173 L 181 182 Q 148 184 105 188 Q 103 188 101 188" fill="#000080" clip-path="url(#clip-mask-10)" /><path d="M 110 197 L 112 197 Q 116 196 124 200 Q 131 203 132 207 Q 133 209 129 213 Q 120 219 113 227 Q 79 253 64 252 Q 56 253 62 249 Q 104 220 109 201" fill="#000080" clip-path="url(#clip-mask-11)" /><path d="M 157 203 L 157 200 Q 158 196 160 198 Q 207 220 210 238 Q 213 250 209 254 Q 207 256 205 256 Q 200 254 196 249 Q 176 224 159 206" fill="#000080" clip-path="url(#clip-mask-12)" /></svg>