<svg xmlns="http://www.w3.org/2000/svg" xmlns:xlink="http://www.w3.org/1999/xlink" width="270" height="270"><defs><clipPath id="clip-mask-1"><rect x="16" y="81" width="29" height="84"><animate attributeName="y" from="-3" to="81" dur="0.311" begin="0; animate12.end + 1" id="animate1" fill="freeze"/></rect></clipPath><clipPath id="clip-mask-2"><rect x="34" y="70" width="64" height="23"><set attributeName="x" to="-30" begin="0; animate12.end + 1" /><animate attributeName="x" from="-30" to="34" dur="0.237" begin="animate1.end + 0.5" id="animate2" fill="freeze"/></rect></clipPath><clipPath id="clip-mask-3"><rect x="67" y="88" width="25" height="42"><set attributeName="y" to="46" begin="0; animate12.end + 1" /><animate attributeName="y" from="46" to="88" dur="0.156" begin="animate2.end" id="animate3" fill="freeze"/></rect></clipPath><clipPath id="clip-mask-4"><rect x="43" y="129" width="43" height="16"><set attributeName="x" to="0" begin="0; animate12.end + 1" /><animate attributeName="x" from="0" to="43" dur="0.159" begin="animate3.end + 0.5" id="animate4" fill="freeze"/></rect></clipPath><clipPath id="clip-mask-5"><rect x="97" y="58" width="34" height="88"><set attributeName="y" to="-30" begin="0; animate12.end + 1" /><animate attributeName="y" from="-30" to="58" dur="0.326" begin="animate4.end + 0.5" id="animate5" fill="freeze"/></rect></clipPath><clipPath id="clip-mask-6"><rect x="113" y="43" width="121" height="28"><set attributeName="x" to="-8" begin="0; animate12.end + 1" /><animate attributeName="x" from="-8" to="113" dur="0.448" begin="animate5.end + 0.5" id="animate6" fill="freeze"/></rect></clipPath><clipPath id="clip-mask-7"><rect x="187" y="59" width="51" height="87"><set attributeName="y" to="-28" begin="0; animate12.end + 1" /><animate attributeName="y" from="-28" to="59" dur="0.322" begin="animate6.end" id="animate7" fill="freeze"/></rect></clipPath><clipPath id="clip-mask-8"><rect x="134" y="83" width="60" height="20"><set attributeName="x" to="74" begin="0; animate12.end + 1" /><animate attributeName="x" from="74" to="134" dur="0.222" begin="animate7.end + 0.5" id="animate8" fill="freeze"/></rect></clipPath><clipPath id="clip-mask-9"><rect x="131" y="120" width="59" height="21"><set attributeName="x" to="72" begin="0; animate12.end + 1" /><animate attributeName="x" from="72" to="131" dur="0.219" begin="animate8.end + 0.5" id="animate9" fill="freeze"/></rect></clipPath><clipPath id="clip-mask-10"><rect x="117" y="157" width="90" height="26"><set attributeName="x" to="27" begin="0; animate12.end + 1" /><animate attributeName="x" from="27" to="117" dur="0.333" begin="animate9.end + 0.5" id="animate10" fill="freeze"/></rect></clipPath><clipPath id="clip-mask-11"><rect x="148" y="62" width="22" height="145"><set attributeName="y" to="-83" begin="0; animate12.end + 1" /><animate attributeName="y" from="-83" to="62" dur="0.537" begin="animate10.end + 0.5" id="animate11" fill="freeze"/></rect></clipPath><clipPath id="clip-mask-12"><rect x="82" y="195" width="171" height="31"><set attributeName="x" to="-89" begin="0; animate12.end + 1" /><animate attributeName="x" from="-89" to="82" dur="0.633" begin="animate11.end + 0.5" id="animate12" fill="freeze"/></rect></clipPath></defs><path d="M 0 0 L 270 270 M 270 0 L 0 270 M 135 0 L 135 270 M 0 135 L 270 135" stroke="#CCCCCC" /><path d="M 45 155 L 43 161 Q 41 165 36 159 Q 31 152 31 142 Q 27 109 18 88 Q 16 84 18 82 Q 19 81 22 82 Q 31 83 34 85 L 37 93 Q 38 102 43 136 L 44 145" fill="#CCCCCC"/><path d="M 71 88 Q 69 85 62 87 Q 49 90 37 93 L 34 85 Q 59 79 68 73 Q 74 70 79 73 Q 86 77 92 80 Q 98 83 92 91" fill="#CCCCCC"/><path d="M 67 129 Q 69 114 71 102 Q 73 89 71 88 L 92 91 Q 84 100 80 130" fill="#CCCCCC"/><path d="M 43 136 Q 53 133 65 129 Q 66 129 67 129 L 80 130 Q 86 133 86 135 Q 86 138 83 138 Q 53 142 44 145" fill="#CCCCCC"/><path d="M 131 141 Q 130 146 127 145 Q 126 145 126 145 Q 116 138 115 122 Q 111 79 100 63 Q 97 60 99 59 Q 100 58 102 58 Q 108 59 113 62 L 121 71 Q 121 71 121 71 Q 122 84 125 100 Q 127 112 128 120 Q 130 127 131 133" fill="#CCCCCC"/><path d="M 207 59 Q 201 54 161 62 L 148 65 Q 133 67 121 71 L 113 62 Q 128 60 146 56 Q 193 48 195 48 Q 213 43 218 46 Q 230 54 234 59" fill="#CCCCCC"/><path d="M 190 125 Q 193 124 194 121 Q 198 115 210 70 Q 212 63 207 59 L 234 59 Q 238 64 234 67 Q 227 74 223 83 Q 210 131 204 140 Q 199 146 196 143 Q 192 141 187 133" fill="#CCCCCC"/><path d="M 154 100 Q 150 101 147 102 Q 142 103 140 101 Q 134 98 138 96 Q 146 93 154 90 L 168 86 Q 176 83 181 84 Q 188 85 191 88 Q 194 92 187 93 Q 178 95 168 97" fill="#CCCCCC"/><path d="M 154 138 Q 145 139 135 141 Q 133 141 131 141 L 131 133 Q 142 130 154 127 L 167 124 Q 183 120 190 125 L 187 133 Q 178 134 167 136" fill="#CCCCCC"/><path d="M 154 179 L 153 179 Q 134 183 124 177 Q 117 173 126 171 Q 141 170 154 168 L 166 164 Q 190 157 196 158 Q 204 160 206 163 Q 207 165 204 167 Q 203 169 166 176" fill="#CCCCCC"/><path d="M 154 192 L 154 179 L 154 168 Q 154 151 154 138 L 154 127 Q 154 110 154 100 L 154 90 Q 154 78 152 72 Q 150 68 148 65 L 161 62 Q 164 65 168 68 Q 170 71 169 76 Q 168 80 168 86 L 168 97 Q 167 110 167 124 L 167 136 Q 166 149 166 164 L 166 176 Q 166 191 166 206 L 154 207" fill="#CCCCCC"/><path d="M 166 206 Q 202 201 224 197 Q 234 195 248 207 Q 253 210 251 214 Q 250 216 244 216 Q 243 216 243 216 Q 164 211 105 225 Q 100 226 94 224 Q 90 223 86 218 Q 82 214 87 213 Q 123 210 154 207" fill="#CCCCCC"/><path d="M 45 155 L 43 161 Q 41 165 36 159 Q 31 152 31 142 Q 27 109 18 88 Q 16 84 18 82 Q 19 81 22 82 Q 31 83 34 85 L 37 93 Q 38 102 43 136 L 44 145" fill="#0000ff" clip-path="url(#clip-mask-1)" /><path d="M 71 88 Q 69 85 62 87 Q 49 90 37 93 L 34 85 Q 59 79 68 73 Q 74 70 79 73 Q 86 77 92 80 Q 98 83 92 91" fill="#0000ff" clip-path="url(#clip-mask-2)" /><path d="M 67 129 Q 69 114 71 102 Q 73 89 71 88 L 92 91 Q 84 100 80 130" fill="#0000ff" clip-path="url(#clip-mask-3)" /><path d="M 43 136 Q 53 133 65 129 Q 66 129 67 129 L 80 130 Q 86 133 86 135 Q 86 138 83 138 Q 53 142 44 145" fill="#0000ff" clip-path="url(#clip-mask-4)" /><path d="M 131 141 Q 130 146 127 145 Q 126 145 126 145 Q 116 138 115 122 Q 111 79 100 63 Q 97 60 99 59 Q 100 58 102 58 Q 108 59 113 62 L 121 71 Q 121 71 121 71 Q 122 84 125 100 Q 127 112 128 120 Q 130 127 131 133" fill="#000080" clip-path="url(#clip-mask-5)" /><path d="M 207 59 Q 201 54 161 62 L 148 65 Q 133 67 121 71 L 113 62 Q 128 60 146 56 Q 193 48 195 48 Q 213 43 218 46 Q 230 54 234 59" fill="#000080" clip-path="url(#clip-mask-6)" /><path d="M 190 125 Q 193 124 194 121 Q 198 115 210 70 Q 212 63 207 59 L 234 59 Q 238 64 234 67 Q 227 74 223 83 Q 210 131 204 140 Q 199 146 196 143 Q 192 141 187 133" fill="#000080" clip-path="url(#clip-mask-7)" /><path d="M 154 100 Q 150 101 147 102 Q 142 103 140 101 Q 134 98 138 96 Q 146 93 154 90 L 168 86 Q 176 83 181 84 Q 188 85 191 88 Q 194 92 187 93 Q 178 95 168 97" fill="#000080" clip-path="url(#clip-mask-8)" /><path d="M 154 138 Q 145 139 135 141 Q 133 141 131 141 L 131 133 Q 142 130 154 127 L 167 124 Q 183 120 190 125 L 187 133 Q 178 134 167 136" fill="#000080" clip-path="url(#clip-mask-9)" /><path d="M 154 179 L 153 179 Q 134 183 124 177 Q 117 173 126 171 Q 141 170 154 168 L 166 164 Q 190 157 196 158 Q 204 160 206 163 Q 207 165 204 167 Q 203 169 166 176" fill="#000080" clip-path="url(#clip-mask-10)" /><path d="M 154 192 L 154 179 L 154 168 Q 154 151 154 138 L 154 127 Q 154 110 154 100 L 154 90 Q 154 78 152 72 Q 150 68 148 65 L 161 62 Q 164 65 168 68 Q 170 71 169 76 Q 168 80 168 86 L 168 97 Q 167 110 167 124 L 167 136 Q 166 149 166 164 L 166 176 Q 166 191 166 206 L 154 207" fill="#000080" clip-path="url(#clip-mask-11)" /><path d="M 166 206 Q 202 201 224 197 Q 234 195 248 207 Q 253 210 251 214 Q 250 216 244 216 Q 243 216 243 216 Q 164 211 105 225 Q 100 226 94 224 Q 90 223 86 218 Q 82 214 87 213 Q 123 210 154 207" fill="#000080" clip-path="url(#clip-mask-12)" /></svg>