<svg xmlns="http://www.w3.org/2000/svg" xmlns:xlink="http://www.w3.org/1999/xlink" width="270" height="270"><defs><clipPath id="clip-mask-1"><rect x="108" y="10" width="35" height="31"><animate attributeName="x" from="73" to="108" dur="0.130" begin="0; animate15.end + 1" id="animate1" fill="freeze"/></rect></clipPath><clipPath id="clip-mask-2"><rect x="29" y="36" width="211" height="42"><set attributeName="x" to="-182" begin="0; animate15.end + 1" /><animate attributeName="x" from="-182" to="29" dur="0.781" begin="animate1.end + 0.5" id="animate2" fill="freeze"/></rect></clipPath><clipPath id="clip-mask-3"><rect x="89" y="72" width="25" height="29"><set attributeName="x" to="64" begin="0; animate15.end + 1" /><animate attributeName="x" from="64" to="89" dur="0.093" begin="animate2.end + 0.5" id="animate3" fill="freeze"/></rect></clipPath><clipPath id="clip-mask-4"><rect x="133" y="58" width="36" height="45"><set attributeName="y" to="13" begin="0; animate15.end + 1" /><animate attributeName="y" from="13" to="58" dur="0.167" begin="animate3.end + 0.5" id="animate4" fill="freeze"/></rect></clipPath><clipPath id="clip-mask-5"><rect x="48" y="106" width="31" height="130"><set attributeName="y" to="-24" begin="0; animate15.end + 1" /><animate attributeName="y" from="-24" to="106" dur="0.481" begin="animate4.end + 0.5" id="animate5" fill="freeze"/></rect></clipPath><clipPath id="clip-mask-6"><rect x="74" y="91" width="133" height="30"><set attributeName="x" to="-59" begin="0; animate15.end + 1" /><animate attributeName="x" from="-59" to="74" dur="0.493" begin="animate5.end + 0.5" id="animate6" fill="freeze"/></rect></clipPath><clipPath id="clip-mask-7"><rect x="181" y="105" width="29" height="154"><set attributeName="y" to="-49" begin="0; animate15.end + 1" /><animate attributeName="y" from="-49" to="105" dur="0.570" begin="animate6.end" id="animate7" fill="freeze"/></rect></clipPath><clipPath id="clip-mask-8"><rect x="161" y="224" width="24" height="29"><set attributeName="x" to="185" begin="0; animate15.end + 1" /><animate attributeName="x" from="185" to="161" dur="0.089" begin="animate7.end" id="animate8" fill="freeze"/></rect></clipPath><clipPath id="clip-mask-9"><rect x="83" y="123" width="36" height="36"><set attributeName="y" to="87" begin="0; animate15.end + 1" /><animate attributeName="y" from="87" to="123" dur="0.133" begin="animate8.end + 0.5" id="animate9" fill="freeze"/></rect></clipPath><clipPath id="clip-mask-10"><rect x="130" y="112" width="19" height="35"><set attributeName="y" to="77" begin="0; animate15.end + 1" /><animate attributeName="y" from="77" to="112" dur="0.130" begin="animate9.end + 0.5" id="animate10" fill="freeze"/></rect></clipPath><clipPath id="clip-mask-11"><rect x="137" y="137" width="45" height="18"><set attributeName="x" to="92" begin="0; animate15.end + 1" /><animate attributeName="x" from="92" to="137" dur="0.167" begin="animate10.end" id="animate11" fill="freeze"/></rect></clipPath><clipPath id="clip-mask-12"><rect x="91" y="166" width="21" height="51"><set attributeName="y" to="115" begin="0; animate15.end + 1" /><animate attributeName="y" from="115" to="166" dur="0.189" begin="animate11.end + 0.5" id="animate12" fill="freeze"/></rect></clipPath><clipPath id="clip-mask-13"><rect x="107" y="157" width="54" height="20"><set attributeName="x" to="53" begin="0; animate15.end + 1" /><animate attributeName="x" from="53" to="107" dur="0.200" begin="animate12.end + 0.5" id="animate13" fill="freeze"/></rect></clipPath><clipPath id="clip-mask-14"><rect x="139" y="168" width="28" height="28"><set attributeName="y" to="140" begin="0; animate15.end + 1" /><animate attributeName="y" from="140" to="168" dur="0.104" begin="animate13.end" id="animate14" fill="freeze"/></rect></clipPath><clipPath id="clip-mask-15"><rect x="111" y="194" width="45" height="14"><set attributeName="x" to="66" begin="0; animate15.end + 1" /><animate attributeName="x" from="66" to="111" dur="0.167" begin="animate14.end + 0.5" id="animate15" fill="freeze"/></rect></clipPath></defs><path d="M 0 0 L 270 270 M 270 0 L 0 270 M 135 0 L 135 270 M 0 135 L 270 135" stroke="#CCCCCC" /><path d="M 110 19 L 109 16 Q 108 12 110 12 Q 110 12 111 12 Q 122 10 136 19 Q 141 22 143 29 Q 143 34 142 37 Q 139 41 135 40 Q 126 36 114 23" fill="#CCCCCC"/><path d="M 148 59 Q 80 66 53 77 Q 48 78 46 78 Q 38 75 33 72 Q 29 69 29 66 Q 29 63 32 63 Q 51 63 75 59 Q 116 52 183 44 Q 198 42 209 39 Q 215 36 219 38 Q 230 43 237 49 Q 240 52 238 55 Q 237 57 231 57 Q 195 54 168 56 Q 162 57 158 58" fill="#CCCCCC"/><path d="M 89 77 L 89 75 Q 90 72 91 72 Q 93 72 96 73 Q 113 82 114 92 Q 114 96 112 98 Q 109 101 106 99 Q 99 94 92 81" fill="#CCCCCC"/><path d="M 133 103 Q 134 100 136 96 Q 144 80 148 69 Q 149 61 148 59 L 158 58 L 158 58 Q 166 64 167 69 Q 169 72 165 75 Q 161 79 158 83 Q 152 91 147 98 Q 145 99 144 101" fill="#CCCCCC"/><path d="M 77 134 L 74 193 Q 72 227 62 234 Q 59 236 57 232 Q 56 231 56 230 Q 48 218 53 208 Q 56 203 58 197 Q 72 140 59 111 Q 57 107 61 106 Q 66 106 74 110 Q 74 111 74 111 L 79 121" fill="#CCCCCC"/><path d="M 74 111 Q 105 108 133 103 L 144 101 Q 168 96 180 92 Q 185 91 191 93 Q 204 100 207 105 L 181 107 Q 178 104 173 104 Q 122 111 80 121 Q 79 121 79 121" fill="#CCCCCC"/><path d="M 207 105 Q 210 108 206 114 Q 203 120 203 132 Q 203 155 207 216 Q 207 236 202 249 Q 199 257 195 258 Q 191 259 185 253 L 183 225 Q 186 223 186 216 Q 188 166 184 121 Q 183 108 181 107" fill="#CCCCCC"/><path d="M 185 253 Q 179 244 165 231 Q 162 229 161 227 Q 161 224 166 225 Q 181 228 183 225" fill="#CCCCCC"/><path d="M 101 124 L 103 124 Q 105 123 111 124 Q 117 125 118 127 Q 119 129 117 132 Q 98 156 88 157 Q 83 159 87 155 Q 102 134 101 127" fill="#CCCCCC"/><path d="M 144 129 L 144 137 L 137 147 Q 134 144 134 138 Q 134 121 132 117 Q 130 114 131 113 Q 132 112 135 113 Q 141 113 146 117 Q 149 120 147 124" fill="#CCCCCC"/><path d="M 144 137 Q 144 142 147 144 Q 155 148 164 142 Q 167 140 171 141 Q 178 145 180 147 Q 182 149 179 152 Q 176 153 169 154 Q 157 155 149 154 Q 141 152 137 147" fill="#CCCCCC"/><path d="M 111 211 L 110 214 Q 109 217 105 212 Q 102 208 101 203 Q 98 184 93 173 Q 91 168 93 167 Q 94 166 96 167 Q 105 169 107 170 L 109 177 Q 109 183 111 200 L 112 208" fill="#CCCCCC"/><path d="M 107 170 Q 126 166 134 164 Q 146 157 150 160 Q 157 165 161 168 L 142 173 Q 141 170 134 172 Q 110 176 109 177" fill="#CCCCCC"/><path d="M 139 194 Q 143 174 142 173 L 161 168 Q 167 171 161 177 Q 156 182 152 196" fill="#CCCCCC"/><path d="M 111 200 Q 123 197 138 194 Q 139 194 139 194 L 152 196 Q 156 199 156 201 Q 156 203 154 203 Q 127 205 114 208 Q 113 208 112 208" fill="#CCCCCC"/><path d="M 110 19 L 109 16 Q 108 12 110 12 Q 110 12 111 12 Q 122 10 136 19 Q 141 22 143 29 Q 143 34 142 37 Q 139 41 135 40 Q 126 36 114 23" fill="#000080" clip-path="url(#clip-mask-1)" /><path d="M 148 59 Q 80 66 53 77 Q 48 78 46 78 Q 38 75 33 72 Q 29 69 29 66 Q 29 63 32 63 Q 51 63 75 59 Q 116 52 183 44 Q 198 42 209 39 Q 215 36 219 38 Q 230 43 237 49 Q 240 52 238 55 Q 237 57 231 57 Q 195 54 168 56 Q 162 57 158 58" fill="#000080" clip-path="url(#clip-mask-2)" /><path d="M 89 77 L 89 75 Q 90 72 91 72 Q 93 72 96 73 Q 113 82 114 92 Q 114 96 112 98 Q 109 101 106 99 Q 99 94 92 81" fill="#000080" clip-path="url(#clip-mask-3)" /><path d="M 133 103 Q 134 100 136 96 Q 144 80 148 69 Q 149 61 148 59 L 158 58 L 158 58 Q 166 64 167 69 Q 169 72 165 75 Q 161 79 158 83 Q 152 91 147 98 Q 145 99 144 101" fill="#000080" clip-path="url(#clip-mask-4)" /><path d="M 77 134 L 74 193 Q 72 227 62 234 Q 59 236 57 232 Q 56 231 56 230 Q 48 218 53 208 Q 56 203 58 197 Q 72 140 59 111 Q 57 107 61 106 Q 66 106 74 110 Q 74 111 74 111 L 79 121" fill="#000080" clip-path="url(#clip-mask-5)" /><path d="M 74 111 Q 105 108 133 103 L 144 101 Q 168 96 180 92 Q 185 91 191 93 Q 204 100 207 105 L 181 107 Q 178 104 173 104 Q 122 111 80 121 Q 79 121 79 121" fill="#000080" clip-path="url(#clip-mask-6)" /><path d="M 207 105 Q 210 108 206 114 Q 203 120 203 132 Q 203 155 207 216 Q 207 236 202 249 Q 199 257 195 258 Q 191 259 185 253 L 183 225 Q 186 223 186 216 Q 188 166 184 121 Q 183 108 181 107" fill="#000080" clip-path="url(#clip-mask-7)" /><path d="M 185 253 Q 179 244 165 231 Q 162 229 161 227 Q 161 224 166 225 Q 181 228 183 225" fill="#000080" clip-path="url(#clip-mask-8)" /><path d="M 101 124 L 103 124 Q 105 123 111 124 Q 117 125 118 127 Q 119 129 117 132 Q 98 156 88 157 Q 83 159 87 155 Q 102 134 101 127" fill="#000080" clip-path="url(#clip-mask-9)" /><path d="M 144 129 L 144 137 L 137 147 Q 134 144 134 138 Q 134 121 132 117 Q 130 114 131 113 Q 132 112 135 113 Q 141 113 146 117 Q 149 120 147 124" fill="#000080" clip-path="url(#clip-mask-10)" /><path d="M 144 137 Q 144 142 147 144 Q 155 148 164 142 Q 167 140 171 141 Q 178 145 180 147 Q 182 149 179 152 Q 176 153 169 154 Q 157 155 149 154 Q 141 152 137 147" fill="#000080" clip-path="url(#clip-mask-11)" /><path d="M 111 211 L 110 214 Q 109 217 105 212 Q 102 208 101 203 Q 98 184 93 173 Q 91 168 93 167 Q 94 166 96 167 Q 105 169 107 170 L 109 177 Q 109 183 111 200 L 112 208" fill="#0000ff" clip-path="url(#clip-mask-12)" /><path d="M 107 170 Q 126 166 134 164 Q 146 157 150 160 Q 157 165 161 168 L 142 173 Q 141 170 134 172 Q 110 176 109 177" fill="#0000ff" clip-path="url(#clip-mask-13)" /><path d="M 139 194 Q 143 174 142 173 L 161 168 Q 167 171 161 177 Q 156 182 152 196" fill="#0000ff" clip-path="url(#clip-mask-14)" /><path d="M 111 200 Q 123 197 138 194 Q 139 194 139 194 L 152 196 Q 156 199 156 201 Q 156 203 154 203 Q 127 205 114 208 Q 113 208 112 208" fill="#0000ff" clip-path="url(#clip-mask-15)" /></svg>