<svg xmlns="http://www.w3.org/2000/svg" xmlns:xlink="http://www.w3.org/1999/xlink" width="270" height="270"><defs><clipPath id="clip-mask-1"><rect x="16" y="78" width="22" height="67"><animate attributeName="y" from="11" to="78" dur="0.248" begin="0; animate16.end + 1" id="animate1" fill="freeze"/></rect></clipPath><clipPath id="clip-mask-2"><rect x="31" y="69" width="46" height="20"><set attributeName="x" to="-15" begin="0; animate16.end + 1" /><animate attributeName="x" from="-15" to="31" dur="0.170" begin="animate1.end + 0.5" id="animate2" fill="freeze"/></rect></clipPath><clipPath id="clip-mask-3"><rect x="55" y="77" width="28" height="40"><set attributeName="y" to="37" begin="0; animate16.end + 1" /><animate attributeName="y" from="37" to="77" dur="0.148" begin="animate2.end" id="animate3" fill="freeze"/></rect></clipPath><clipPath id="clip-mask-4"><rect x="37" y="116" width="38" height="15"><set attributeName="x" to="-1" begin="0; animate16.end + 1" /><animate attributeName="x" from="-1" to="37" dur="0.141" begin="animate3.end + 0.5" id="animate4" fill="freeze"/></rect></clipPath><clipPath id="clip-mask-5"><rect x="93" y="36" width="46" height="24"><set attributeName="x" to="47" begin="0; animate16.end + 1" /><animate attributeName="x" from="47" to="93" dur="0.170" begin="animate4.end + 0.5" id="animate5" fill="freeze"/></rect></clipPath><clipPath id="clip-mask-6"><rect x="109" y="47" width="33" height="39"><set attributeName="y" to="8" begin="0; animate16.end + 1" /><animate attributeName="y" from="8" to="47" dur="0.144" begin="animate5.end" id="animate6" fill="freeze"/></rect></clipPath><clipPath id="clip-mask-7"><rect x="111" y="86" width="27" height="48"><set attributeName="y" to="38" begin="0; animate16.end + 1" /><animate attributeName="y" from="38" to="86" dur="0.178" begin="animate6.end" id="animate7" fill="freeze"/></rect></clipPath><clipPath id="clip-mask-8"><rect x="95" y="111" width="26" height="20"><set attributeName="x" to="121" begin="0; animate16.end + 1" /><animate attributeName="x" from="121" to="95" dur="0.096" begin="animate7.end" id="animate8" fill="freeze"/></rect></clipPath><clipPath id="clip-mask-9"><rect x="74" y="45" width="23" height="184"><set attributeName="y" to="-139" begin="0; animate16.end + 1" /><animate attributeName="y" from="-139" to="45" dur="0.681" begin="animate8.end + 0.5" id="animate9" fill="freeze"/></rect></clipPath><clipPath id="clip-mask-10"><rect x="136" y="43" width="117" height="32"><set attributeName="x" to="19" begin="0; animate16.end + 1" /><animate attributeName="x" from="19" to="136" dur="0.433" begin="animate9.end + 0.5" id="animate10" fill="freeze"/></rect></clipPath><clipPath id="clip-mask-11"><rect x="136" y="100" width="21" height="55"><set attributeName="y" to="45" begin="0; animate16.end + 1" /><animate attributeName="y" from="45" to="100" dur="0.204" begin="animate10.end + 0.5" id="animate11" fill="freeze"/></rect></clipPath><clipPath id="clip-mask-12"><rect x="151" y="94" width="43" height="17"><set attributeName="x" to="108" begin="0; animate16.end + 1" /><animate attributeName="x" from="108" to="151" dur="0.159" begin="animate11.end + 0.5" id="animate12" fill="freeze"/></rect></clipPath><clipPath id="clip-mask-13"><rect x="173" y="103" width="26" height="30"><set attributeName="y" to="73" begin="0; animate16.end + 1" /><animate attributeName="y" from="73" to="103" dur="0.111" begin="animate12.end" id="animate13" fill="freeze"/></rect></clipPath><clipPath id="clip-mask-14"><rect x="155" y="130" width="33" height="14"><set attributeName="x" to="122" begin="0; animate16.end + 1" /><animate attributeName="x" from="122" to="155" dur="0.122" begin="animate13.end + 0.5" id="animate14" fill="freeze"/></rect></clipPath><clipPath id="clip-mask-15"><rect x="198" y="64" width="26" height="169"><set attributeName="y" to="-105" begin="0; animate16.end + 1" /><animate attributeName="y" from="-105" to="64" dur="0.626" begin="animate14.end + 0.5" id="animate15" fill="freeze"/></rect></clipPath><clipPath id="clip-mask-16"><rect x="173" y="190" width="32" height="40"><set attributeName="x" to="205" begin="0; animate16.end + 1" /><animate attributeName="x" from="205" to="173" dur="0.119" begin="animate15.end" id="animate16" fill="freeze"/></rect></clipPath></defs><path d="M 0 0 L 270 270 M 270 0 L 0 270 M 135 0 L 135 270 M 0 135 L 270 135" stroke="#CCCCCC" /><path d="M 38 137 L 36 141 Q 35 145 31 140 Q 27 134 27 126 Q 24 100 17 84 Q 16 80 17 79 Q 18 78 21 79 Q 29 80 31 82 L 33 89 Q 34 96 37 123 L 38 131" fill="#CCCCCC"/><path d="M 31 82 Q 45 78 50 75 Q 63 69 66 71 Q 72 74 77 77 L 60 84 Q 58 82 53 83 L 33 89" fill="#CCCCCC"/><path d="M 77 77 Q 83 80 78 86 Q 71 93 68 116 L 55 117 Q 58 105 60 94 Q 61 85 60 84" fill="#CCCCCC"/><path d="M 37 123 Q 45 120 55 117 L 68 116 Q 75 120 75 122 Q 75 124 73 125 Q 51 128 41 131 Q 39 131 38 131" fill="#CCCCCC"/><path d="M 107 48 L 117 39 Q 120 36 125 38 Q 135 42 139 47 L 117 54 Q 115 52 112 54 Q 104 58 97 60 L 93 52" fill="#CCCCCC"/><path d="M 139 47 Q 142 50 137 54 Q 135 54 133 57 Q 114 76 121 86 L 111 86 Q 109 83 117 60 Q 118 55 117 54" fill="#CCCCCC"/><path d="M 121 86 Q 138 110 133 124 Q 131 130 127 132 Q 124 134 121 131 L 118 111 Q 122 108 112 87 Q 111 86 111 86" fill="#CCCCCC"/><path d="M 121 131 Q 109 123 95 117 L 95 113 Q 103 113 110 114 Q 117 114 118 111" fill="#CCCCCC"/><path d="M 97 60 Q 95 72 95 113 L 95 117 Q 96 148 96 179 Q 95 218 88 225 Q 85 229 82 226 Q 79 222 76 213 Q 75 208 77 200 Q 88 162 85 88 Q 84 68 76 52 Q 74 49 75 47 Q 77 45 80 45 Q 87 47 93 52" fill="#CCCCCC"/><path d="M 198 65 Q 177 67 157 73 Q 148 75 140 69 Q 136 65 141 64 Q 185 56 223 48 Q 235 43 249 53 Q 253 56 252 59 Q 251 61 246 62 Q 224 62 210 64" fill="#CCCCCC"/><path d="M 157 149 L 156 152 Q 154 155 151 150 Q 147 146 146 140 Q 143 119 137 107 Q 136 103 137 102 Q 138 100 140 101 Q 148 103 151 105 L 152 111 Q 153 118 155 136 L 156 144" fill="#CCCCCC"/><path d="M 177 108 Q 176 106 171 107 Q 153 111 152 111 L 151 105 Q 158 103 163 102 Q 170 100 175 96 Q 179 94 184 96 Q 189 100 194 103" fill="#CCCCCC"/><path d="M 173 130 Q 177 109 177 108 L 194 103 Q 199 106 194 111 Q 188 116 184 133" fill="#CCCCCC"/><path d="M 155 136 Q 161 134 169 131 Q 171 130 173 130 L 184 133 Q 188 135 188 137 Q 188 139 185 140 Q 168 142 160 143 Q 158 144 156 144" fill="#CCCCCC"/><path d="M 205 190 Q 204 119 203 88 Q 203 76 200 70 Q 198 67 198 65 L 210 64 Q 217 68 220 71 Q 222 74 220 81 Q 217 124 222 192 Q 224 214 212 228 Q 208 233 205 230" fill="#CCCCCC"/><path d="M 198 204 L 201 202 Q 204 199 205 190 L 205 230 Q 194 219 176 204 Q 173 202 173 199 Q 173 197 176 198 Q 184 200 191 202" fill="#CCCCCC"/><path d="M 38 137 L 36 141 Q 35 145 31 140 Q 27 134 27 126 Q 24 100 17 84 Q 16 80 17 79 Q 18 78 21 79 Q 29 80 31 82 L 33 89 Q 34 96 37 123 L 38 131" fill="#0000ff" clip-path="url(#clip-mask-1)" /><path d="M 31 82 Q 45 78 50 75 Q 63 69 66 71 Q 72 74 77 77 L 60 84 Q 58 82 53 83 L 33 89" fill="#0000ff" clip-path="url(#clip-mask-2)" /><path d="M 77 77 Q 83 80 78 86 Q 71 93 68 116 L 55 117 Q 58 105 60 94 Q 61 85 60 84" fill="#0000ff" clip-path="url(#clip-mask-3)" /><path d="M 37 123 Q 45 120 55 117 L 68 116 Q 75 120 75 122 Q 75 124 73 125 Q 51 128 41 131 Q 39 131 38 131" fill="#0000ff" clip-path="url(#clip-mask-4)" /><path d="M 107 48 L 117 39 Q 120 36 125 38 Q 135 42 139 47 L 117 54 Q 115 52 112 54 Q 104 58 97 60 L 93 52" fill="#000080" clip-path="url(#clip-mask-5)" /><path d="M 139 47 Q 142 50 137 54 Q 135 54 133 57 Q 114 76 121 86 L 111 86 Q 109 83 117 60 Q 118 55 117 54" fill="#000080" clip-path="url(#clip-mask-6)" /><path d="M 121 86 Q 138 110 133 124 Q 131 130 127 132 Q 124 134 121 131 L 118 111 Q 122 108 112 87 Q 111 86 111 86" fill="#000080" clip-path="url(#clip-mask-7)" /><path d="M 121 131 Q 109 123 95 117 L 95 113 Q 103 113 110 114 Q 117 114 118 111" fill="#000080" clip-path="url(#clip-mask-8)" /><path d="M 97 60 Q 95 72 95 113 L 95 117 Q 96 148 96 179 Q 95 218 88 225 Q 85 229 82 226 Q 79 222 76 213 Q 75 208 77 200 Q 88 162 85 88 Q 84 68 76 52 Q 74 49 75 47 Q 77 45 80 45 Q 87 47 93 52" fill="#000080" clip-path="url(#clip-mask-9)" /><path d="M 198 65 Q 177 67 157 73 Q 148 75 140 69 Q 136 65 141 64 Q 185 56 223 48 Q 235 43 249 53 Q 253 56 252 59 Q 251 61 246 62 Q 224 62 210 64" fill="#000080" clip-path="url(#clip-mask-10)" /><path d="M 157 149 L 156 152 Q 154 155 151 150 Q 147 146 146 140 Q 143 119 137 107 Q 136 103 137 102 Q 138 100 140 101 Q 148 103 151 105 L 152 111 Q 153 118 155 136 L 156 144" fill="#000080" clip-path="url(#clip-mask-11)" /><path d="M 177 108 Q 176 106 171 107 Q 153 111 152 111 L 151 105 Q 158 103 163 102 Q 170 100 175 96 Q 179 94 184 96 Q 189 100 194 103" fill="#000080" clip-path="url(#clip-mask-12)" /><path d="M 173 130 Q 177 109 177 108 L 194 103 Q 199 106 194 111 Q 188 116 184 133" fill="#000080" clip-path="url(#clip-mask-13)" /><path d="M 155 136 Q 161 134 169 131 Q 171 130 173 130 L 184 133 Q 188 135 188 137 Q 188 139 185 140 Q 168 142 160 143 Q 158 144 156 144" fill="#000080" clip-path="url(#clip-mask-14)" /><path d="M 205 190 Q 204 119 203 88 Q 203 76 200 70 Q 198 67 198 65 L 210 64 Q 217 68 220 71 Q 222 74 220 81 Q 217 124 222 192 Q 224 214 212 228 Q 208 233 205 230" fill="#000080" clip-path="url(#clip-mask-15)" /><path d="M 198 204 L 201 202 Q 204 199 205 190 L 205 230 Q 194 219 176 204 Q 173 202 173 199 Q 173 197 176 198 Q 184 200 191 202" fill="#000080" clip-path="url(#clip-mask-16)" /></svg>