<svg xmlns="http://www.w3.org/2000/svg" xmlns:xlink="http://www.w3.org/1999/xlink" width="270" height="270"><defs><clipPath id="clip-mask-1"><rect x="75" y="45" width="94" height="27"><animate attributeName="x" from="-19" to="75" dur="0.348" begin="0; animate15.end + 1" id="animate1" fill="freeze"/></rect></clipPath><clipPath id="clip-mask-2"><rect x="107" y="10" width="30" height="123"><set attributeName="y" to="-113" begin="0; animate15.end + 1" /><animate attributeName="y" from="-113" to="10" dur="0.456" begin="animate1.end + 0.5" id="animate2" fill="freeze"/></rect></clipPath><clipPath id="clip-mask-3"><rect x="54" y="89" width="22" height="40"><set attributeName="y" to="49" begin="0; animate15.end + 1" /><animate attributeName="y" from="49" to="89" dur="0.148" begin="animate2.end + 0.5" id="animate3" fill="freeze"/></rect></clipPath><clipPath id="clip-mask-4"><rect x="66" y="80" width="48" height="16"><set attributeName="x" to="18" begin="0; animate15.end + 1" /><animate attributeName="x" from="18" to="66" dur="0.178" begin="animate3.end + 0.5" id="animate4" fill="freeze"/></rect></clipPath><clipPath id="clip-mask-5"><rect x="91" y="93" width="18" height="19"><set attributeName="y" to="74" begin="0; animate15.end + 1" /><animate attributeName="y" from="74" to="93" dur="0.070" begin="animate4.end" id="animate5" fill="freeze"/></rect></clipPath><clipPath id="clip-mask-6"><rect x="75" y="111" width="30" height="11"><set attributeName="x" to="45" begin="0; animate15.end + 1" /><animate attributeName="x" from="45" to="75" dur="0.111" begin="animate5.end + 0.5" id="animate6" fill="freeze"/></rect></clipPath><clipPath id="clip-mask-7"><rect x="139" y="73" width="19" height="44"><set attributeName="y" to="29" begin="0; animate15.end + 1" /><animate attributeName="y" from="29" to="73" dur="0.163" begin="animate6.end + 0.5" id="animate7" fill="freeze"/></rect></clipPath><clipPath id="clip-mask-8"><rect x="150" y="63" width="47" height="18"><set attributeName="x" to="103" begin="0; animate15.end + 1" /><animate attributeName="x" from="103" to="150" dur="0.174" begin="animate7.end + 0.5" id="animate8" fill="freeze"/></rect></clipPath><clipPath id="clip-mask-9"><rect x="177" y="72" width="25" height="28"><set attributeName="y" to="44" begin="0; animate15.end + 1" /><animate attributeName="y" from="44" to="72" dur="0.104" begin="animate8.end" id="animate9" fill="freeze"/></rect></clipPath><clipPath id="clip-mask-10"><rect x="157" y="97" width="35" height="14"><set attributeName="x" to="122" begin="0; animate15.end + 1" /><animate attributeName="x" from="122" to="157" dur="0.130" begin="animate9.end + 0.5" id="animate10" fill="freeze"/></rect></clipPath><clipPath id="clip-mask-11"><rect x="26" y="118" width="185" height="40"><set attributeName="x" to="-159" begin="0; animate15.end + 1" /><animate attributeName="x" from="-159" to="26" dur="0.685" begin="animate10.end + 0.5" id="animate11" fill="freeze"/></rect></clipPath><clipPath id="clip-mask-12"><rect x="55" y="149" width="28" height="110"><set attributeName="y" to="39" begin="0; animate15.end + 1" /><animate attributeName="y" from="39" to="149" dur="0.407" begin="animate11.end + 0.5" id="animate12" fill="freeze"/></rect></clipPath><clipPath id="clip-mask-13"><rect x="72" y="200" width="50" height="54"><set attributeName="x" to="22" begin="0; animate15.end + 1" /><animate attributeName="x" from="22" to="72" dur="0.185" begin="animate12.end" id="animate13" fill="freeze"/></rect></clipPath><clipPath id="clip-mask-14"><rect x="139" y="144" width="40" height="37"><set attributeName="x" to="179" begin="0; animate15.end + 1" /><animate attributeName="x" from="179" to="139" dur="0.148" begin="animate13.end + 0.5" id="animate14" fill="freeze"/></rect></clipPath><clipPath id="clip-mask-15"><rect x="85" y="145" width="158" height="89"><set attributeName="x" to="-73" begin="0; animate15.end + 1" /><animate attributeName="x" from="-73" to="85" dur="0.585" begin="animate14.end + 0.5" id="animate15" fill="freeze"/></rect></clipPath></defs><path d="M 0 0 L 270 270 M 270 0 L 0 270 M 135 0 L 135 270 M 0 135 L 270 135" stroke="#CCCCCC" /><path d="M 118 66 Q 111 67 106 68 Q 91 72 81 66 Q 75 61 83 60 Q 102 58 117 55 L 131 51 Q 153 45 159 46 Q 166 48 168 50 Q 169 53 167 54 Q 166 55 131 63" fill="#CCCCCC"/><path d="M 117 133 Q 118 98 118 66 L 117 55 Q 117 44 116 35 Q 116 28 109 18 Q 107 14 109 12 Q 111 10 116 10 Q 122 11 132 16 Q 137 20 136 23 Q 133 33 132 50 Q 131 50 131 51 L 131 63 Q 130 96 128 131" fill="#CCCCCC"/><path d="M 75 125 L 75 126 Q 74 129 70 125 Q 67 122 66 118 Q 61 103 56 95 Q 54 92 55 90 Q 55 89 58 89 Q 63 90 66 90 L 71 96 Q 71 100 75 116 L 76 122" fill="#CCCCCC"/><path d="M 66 90 Q 85 85 92 81 Q 94 80 96 80 Q 96 80 109 87 Q 114 90 109 95 L 93 93 Q 92 90 87 92 Q 79 93 71 96" fill="#CCCCCC"/><path d="M 91 111 Q 94 93 93 93 L 109 95 Q 105 99 101 112" fill="#CCCCCC"/><path d="M 75 116 Q 82 114 90 111 Q 90 111 91 111 L 101 112 Q 105 115 105 116 Q 105 117 103 118 Q 83 120 76 122" fill="#CCCCCC"/><path d="M 157 112 L 157 114 Q 156 117 152 113 Q 149 109 149 105 Q 146 88 141 78 Q 139 75 140 74 Q 141 73 144 73 Q 148 74 150 75 L 154 81 Q 155 85 157 102 L 158 110" fill="#CCCCCC"/><path d="M 180 77 Q 179 75 174 76 Q 162 79 154 81 L 150 75 Q 160 73 166 71 Q 173 69 179 65 Q 183 63 187 65 Q 193 69 197 72" fill="#CCCCCC"/><path d="M 177 97 Q 179 91 180 85 Q 182 78 180 77 L 197 72 Q 202 75 197 81 Q 193 85 189 100" fill="#CCCCCC"/><path d="M 157 102 Q 164 101 173 98 Q 175 98 177 97 L 189 100 Q 192 103 192 104 Q 192 107 190 107 Q 171 108 162 110 Q 160 111 158 110" fill="#CCCCCC"/><path d="M 85 147 Q 78 148 73 149 L 61 152 Q 57 153 53 154 Q 38 158 30 150 Q 26 146 31 146 Q 117 133 117 133 L 128 131 Q 162 125 183 120 Q 193 118 207 128 Q 211 132 210 135 Q 208 137 190 137 Q 163 138 142 139 Q 106 142 100 145" fill="#CCCCCC"/><path d="M 73 149 Q 83 157 81 163 Q 79 173 77 216 Q 77 222 79 223 L 72 254 Q 69 259 65 257 Q 61 254 57 244 Q 55 238 59 232 Q 63 228 64 219 Q 66 207 66 171 Q 66 162 61 152" fill="#CCCCCC"/><path d="M 79 223 Q 82 224 116 203 Q 122 200 121 204 Q 121 206 116 210 Q 82 241 72 254" fill="#CCCCCC"/><path d="M 157 154 L 157 149 Q 156 144 160 144 Q 166 144 171 149 Q 176 153 177 157 Q 179 160 174 162 Q 164 167 144 181 L 139 178" fill="#CCCCCC"/><path d="M 144 181 Q 161 194 174 202 Q 176 202 177 203 Q 193 212 240 220 Q 243 220 242 222 Q 240 225 235 226 Q 206 234 190 234 Q 177 232 106 161 Q 97 152 85 147 L 100 145 Q 101 145 102 146 Q 122 164 139 178" fill="#CCCCCC"/><path d="M 118 66 Q 111 67 106 68 Q 91 72 81 66 Q 75 61 83 60 Q 102 58 117 55 L 131 51 Q 153 45 159 46 Q 166 48 168 50 Q 169 53 167 54 Q 166 55 131 63" fill="#000080" clip-path="url(#clip-mask-1)" /><path d="M 117 133 Q 118 98 118 66 L 117 55 Q 117 44 116 35 Q 116 28 109 18 Q 107 14 109 12 Q 111 10 116 10 Q 122 11 132 16 Q 137 20 136 23 Q 133 33 132 50 Q 131 50 131 51 L 131 63 Q 130 96 128 131" fill="#000080" clip-path="url(#clip-mask-2)" /><path d="M 75 125 L 75 126 Q 74 129 70 125 Q 67 122 66 118 Q 61 103 56 95 Q 54 92 55 90 Q 55 89 58 89 Q 63 90 66 90 L 71 96 Q 71 100 75 116 L 76 122" fill="#0000ff" clip-path="url(#clip-mask-3)" /><path d="M 66 90 Q 85 85 92 81 Q 94 80 96 80 Q 96 80 109 87 Q 114 90 109 95 L 93 93 Q 92 90 87 92 Q 79 93 71 96" fill="#0000ff" clip-path="url(#clip-mask-4)" /><path d="M 91 111 Q 94 93 93 93 L 109 95 Q 105 99 101 112" fill="#0000ff" clip-path="url(#clip-mask-5)" /><path d="M 75 116 Q 82 114 90 111 Q 90 111 91 111 L 101 112 Q 105 115 105 116 Q 105 117 103 118 Q 83 120 76 122" fill="#0000ff" clip-path="url(#clip-mask-6)" /><path d="M 157 112 L 157 114 Q 156 117 152 113 Q 149 109 149 105 Q 146 88 141 78 Q 139 75 140 74 Q 141 73 144 73 Q 148 74 150 75 L 154 81 Q 155 85 157 102 L 158 110" fill="#000080" clip-path="url(#clip-mask-7)" /><path d="M 180 77 Q 179 75 174 76 Q 162 79 154 81 L 150 75 Q 160 73 166 71 Q 173 69 179 65 Q 183 63 187 65 Q 193 69 197 72" fill="#000080" clip-path="url(#clip-mask-8)" /><path d="M 177 97 Q 179 91 180 85 Q 182 78 180 77 L 197 72 Q 202 75 197 81 Q 193 85 189 100" fill="#000080" clip-path="url(#clip-mask-9)" /><path d="M 157 102 Q 164 101 173 98 Q 175 98 177 97 L 189 100 Q 192 103 192 104 Q 192 107 190 107 Q 171 108 162 110 Q 160 111 158 110" fill="#000080" clip-path="url(#clip-mask-10)" /><path d="M 85 147 Q 78 148 73 149 L 61 152 Q 57 153 53 154 Q 38 158 30 150 Q 26 146 31 146 Q 117 133 117 133 L 128 131 Q 162 125 183 120 Q 193 118 207 128 Q 211 132 210 135 Q 208 137 190 137 Q 163 138 142 139 Q 106 142 100 145" fill="#000080" clip-path="url(#clip-mask-11)" /><path d="M 73 149 Q 83 157 81 163 Q 79 173 77 216 Q 77 222 79 223 L 72 254 Q 69 259 65 257 Q 61 254 57 244 Q 55 238 59 232 Q 63 228 64 219 Q 66 207 66 171 Q 66 162 61 152" fill="#000080" clip-path="url(#clip-mask-12)" /><path d="M 79 223 Q 82 224 116 203 Q 122 200 121 204 Q 121 206 116 210 Q 82 241 72 254" fill="#000080" clip-path="url(#clip-mask-13)" /><path d="M 157 154 L 157 149 Q 156 144 160 144 Q 166 144 171 149 Q 176 153 177 157 Q 179 160 174 162 Q 164 167 144 181 L 139 178" fill="#000080" clip-path="url(#clip-mask-14)" /><path d="M 144 181 Q 161 194 174 202 Q 176 202 177 203 Q 193 212 240 220 Q 243 220 242 222 Q 240 225 235 226 Q 206 234 190 234 Q 177 232 106 161 Q 97 152 85 147 L 100 145 Q 101 145 102 146 Q 122 164 139 178" fill="#000080" clip-path="url(#clip-mask-15)" /></svg>