<svg xmlns="http://www.w3.org/2000/svg" xmlns:xlink="http://www.w3.org/1999/xlink" width="270" height="270"><defs><clipPath id="clip-mask-1"><rect x="69" y="13" width="94" height="37"><animate attributeName="x" from="163" to="69" dur="0.348" begin="0; animate16.end + 1" id="animate1" fill="freeze"/></rect></clipPath><clipPath id="clip-mask-2"><rect x="40" y="50" width="157" height="34"><set attributeName="x" to="-117" begin="0; animate16.end + 1" /><animate attributeName="x" from="-117" to="40" dur="0.581" begin="animate1.end + 0.5" id="animate2" fill="freeze"/></rect></clipPath><clipPath id="clip-mask-3"><rect x="19" y="43" width="106" height="115"><set attributeName="y" to="-72" begin="0; animate16.end + 1" /><animate attributeName="y" from="-72" to="43" dur="0.426" begin="animate2.end + 0.5" id="animate3" fill="freeze"/></rect></clipPath><clipPath id="clip-mask-4"><rect x="126" y="69" width="124" height="75"><set attributeName="x" to="2" begin="0; animate16.end + 1" /><animate attributeName="x" from="2" to="126" dur="0.459" begin="animate3.end + 0.5" id="animate4" fill="freeze"/></rect></clipPath><clipPath id="clip-mask-5"><rect x="82" y="106" width="18" height="40"><set attributeName="y" to="66" begin="0; animate16.end + 1" /><animate attributeName="y" from="66" to="106" dur="0.148" begin="animate4.end + 0.5" id="animate5" fill="freeze"/></rect></clipPath><clipPath id="clip-mask-6"><rect x="96" y="97" width="57" height="19"><set attributeName="x" to="39" begin="0; animate16.end + 1" /><animate attributeName="x" from="39" to="96" dur="0.211" begin="animate5.end + 0.5" id="animate6" fill="freeze"/></rect></clipPath><clipPath id="clip-mask-7"><rect x="130" y="107" width="25" height="21"><set attributeName="y" to="86" begin="0; animate16.end + 1" /><animate attributeName="y" from="86" to="107" dur="0.078" begin="animate6.end" id="animate7" fill="freeze"/></rect></clipPath><clipPath id="clip-mask-8"><rect x="100" y="128" width="48" height="13"><set attributeName="x" to="52" begin="0; animate16.end + 1" /><animate attributeName="x" from="52" to="100" dur="0.178" begin="animate7.end + 0.5" id="animate8" fill="freeze"/></rect></clipPath><clipPath id="clip-mask-9"><rect x="45" y="158" width="26" height="82"><set attributeName="y" to="76" begin="0; animate16.end + 1" /><animate attributeName="y" from="76" to="158" dur="0.304" begin="animate8.end + 0.5" id="animate9" fill="freeze"/></rect></clipPath><clipPath id="clip-mask-10"><rect x="61" y="147" width="144" height="23"><set attributeName="x" to="-83" begin="0; animate16.end + 1" /><animate attributeName="x" from="-83" to="61" dur="0.533" begin="animate9.end + 0.5" id="animate10" fill="freeze"/></rect></clipPath><clipPath id="clip-mask-11"><rect x="177" y="163" width="25" height="93"><set attributeName="y" to="70" begin="0; animate16.end + 1" /><animate attributeName="y" from="70" to="163" dur="0.344" begin="animate10.end" id="animate11" fill="freeze"/></rect></clipPath><clipPath id="clip-mask-12"><rect x="149" y="219" width="29" height="34"><set attributeName="x" to="178" begin="0; animate16.end + 1" /><animate attributeName="x" from="178" to="149" dur="0.107" begin="animate11.end" id="animate12" fill="freeze"/></rect></clipPath><clipPath id="clip-mask-13"><rect x="83" y="177" width="20" height="48"><set attributeName="y" to="129" begin="0; animate16.end + 1" /><animate attributeName="y" from="129" to="177" dur="0.178" begin="animate12.end + 0.5" id="animate13" fill="freeze"/></rect></clipPath><clipPath id="clip-mask-14"><rect x="95" y="169" width="63" height="20"><set attributeName="x" to="32" begin="0; animate16.end + 1" /><animate attributeName="x" from="32" to="95" dur="0.233" begin="animate13.end + 0.5" id="animate14" fill="freeze"/></rect></clipPath><clipPath id="clip-mask-15"><rect x="132" y="185" width="21" height="19"><set attributeName="y" to="166" begin="0; animate16.end + 1" /><animate attributeName="y" from="166" to="185" dur="0.070" begin="animate14.end" id="animate15" fill="freeze"/></rect></clipPath><clipPath id="clip-mask-16"><rect x="103" y="203" width="47" height="13"><set attributeName="x" to="56" begin="0; animate16.end + 1" /><animate attributeName="x" from="56" to="103" dur="0.174" begin="animate15.end + 0.5" id="animate16" fill="freeze"/></rect></clipPath></defs><path d="M 0 0 L 270 270 M 270 0 L 0 270 M 135 0 L 135 270 M 0 135 L 270 135" stroke="#CCCCCC" /><path d="M 103 45 Q 102 45 102 45 Q 74 50 71 49 Q 69 49 71 46 Q 134 28 135 17 Q 136 14 138 13 Q 141 13 145 16 Q 155 22 160 27 Q 163 30 162 32 Q 161 34 156 34 Q 149 35 116 43" fill="#CCCCCC"/><path d="M 94 75 Q 76 78 60 83 Q 56 84 51 83 Q 47 82 44 79 Q 40 75 45 74 Q 73 70 98 66 L 116 64 Q 152 57 172 52 Q 181 50 193 59 Q 197 62 196 65 Q 195 67 190 67 Q 157 67 134 69 L 126 70 Q 118 71 111 72" fill="#CCCCCC"/><path d="M 82 112 Q 77 118 73 123 Q 39 156 21 158 Q 19 158 21 157 Q 27 151 32 147 Q 76 109 94 75 L 98 66 Q 103 53 103 45 L 116 43 Q 123 46 124 51 Q 125 54 123 55 Q 120 57 116 64 L 111 72 Q 97 93 87 106" fill="#CCCCCC"/><path d="M 134 69 Q 136 71 140 74 Q 180 109 215 122 Q 232 128 246 133 Q 250 135 249 137 Q 249 138 244 139 Q 215 144 200 141 Q 184 138 127 72 Q 126 71 126 70" fill="#CCCCCC"/><path d="M 100 142 L 100 143 Q 99 146 94 141 Q 92 138 91 134 Q 86 120 82 112 L 87 106 Q 95 107 96 109 L 98 116 Q 98 121 100 133 L 100 141" fill="#CCCCCC"/><path d="M 133 110 Q 131 108 128 109 Q 99 115 98 116 L 96 109 Q 115 104 119 103 Q 135 97 138 99 Q 149 104 153 107" fill="#CCCCCC"/><path d="M 130 128 Q 132 122 134 114 Q 134 111 133 110 L 153 107 Q 155 111 152 115 Q 147 117 142 128" fill="#CCCCCC"/><path d="M 100 133 Q 114 131 130 128 L 142 128 Q 148 132 148 134 Q 148 136 145 136 Q 117 138 104 141 Q 102 141 100 141" fill="#CCCCCC"/><path d="M 66 178 L 68 202 Q 71 231 64 238 Q 62 240 59 237 Q 58 235 57 234 Q 49 224 54 213 Q 59 180 47 163 Q 45 160 48 158 Q 53 158 60 160 Q 61 160 61 160 L 66 170" fill="#CCCCCC"/><path d="M 61 160 Q 62 160 149 152 Q 170 151 177 149 Q 182 147 187 149 Q 199 154 202 157 Q 205 160 202 163 L 177 163 Q 174 160 168 160 Q 99 163 71 168 Q 69 170 66 170" fill="#CCCCCC"/><path d="M 202 163 Q 197 171 198 218 Q 197 231 190 244 Q 186 253 184 254 Q 180 256 177 253 L 178 219 Q 183 189 182 172 Q 182 165 177 163" fill="#CCCCCC"/><path d="M 177 253 Q 171 244 160 236 Q 152 231 151 228 Q 149 225 154 226 Q 162 226 170 227 Q 178 227 178 219" fill="#CCCCCC"/><path d="M 103 219 L 103 221 Q 102 225 98 220 Q 95 217 94 212 Q 91 194 85 184 Q 83 180 84 179 Q 85 177 88 178 Q 93 179 95 180 L 100 186 Q 100 191 103 208 L 103 216" fill="#CCCCCC"/><path d="M 134 185 Q 133 182 126 183 Q 102 185 100 186 L 95 180 Q 114 178 125 175 Q 139 169 143 172 Q 149 177 153 180 Q 158 184 153 189" fill="#CCCCCC"/><path d="M 132 203 Q 135 185 134 185 L 153 189 Q 148 193 144 204" fill="#CCCCCC"/><path d="M 103 208 Q 116 206 132 203 L 144 204 Q 150 208 150 210 Q 150 212 147 212 Q 121 213 109 216 Q 106 216 103 216" fill="#CCCCCC"/><path d="M 103 45 Q 102 45 102 45 Q 74 50 71 49 Q 69 49 71 46 Q 134 28 135 17 Q 136 14 138 13 Q 141 13 145 16 Q 155 22 160 27 Q 163 30 162 32 Q 161 34 156 34 Q 149 35 116 43" fill="#000080" clip-path="url(#clip-mask-1)" /><path d="M 94 75 Q 76 78 60 83 Q 56 84 51 83 Q 47 82 44 79 Q 40 75 45 74 Q 73 70 98 66 L 116 64 Q 152 57 172 52 Q 181 50 193 59 Q 197 62 196 65 Q 195 67 190 67 Q 157 67 134 69 L 126 70 Q 118 71 111 72" fill="#000080" clip-path="url(#clip-mask-2)" /><path d="M 82 112 Q 77 118 73 123 Q 39 156 21 158 Q 19 158 21 157 Q 27 151 32 147 Q 76 109 94 75 L 98 66 Q 103 53 103 45 L 116 43 Q 123 46 124 51 Q 125 54 123 55 Q 120 57 116 64 L 111 72 Q 97 93 87 106" fill="#000080" clip-path="url(#clip-mask-3)" /><path d="M 134 69 Q 136 71 140 74 Q 180 109 215 122 Q 232 128 246 133 Q 250 135 249 137 Q 249 138 244 139 Q 215 144 200 141 Q 184 138 127 72 Q 126 71 126 70" fill="#000080" clip-path="url(#clip-mask-4)" /><path d="M 100 142 L 100 143 Q 99 146 94 141 Q 92 138 91 134 Q 86 120 82 112 L 87 106 Q 95 107 96 109 L 98 116 Q 98 121 100 133 L 100 141" fill="#000080" clip-path="url(#clip-mask-5)" /><path d="M 133 110 Q 131 108 128 109 Q 99 115 98 116 L 96 109 Q 115 104 119 103 Q 135 97 138 99 Q 149 104 153 107" fill="#000080" clip-path="url(#clip-mask-6)" /><path d="M 130 128 Q 132 122 134 114 Q 134 111 133 110 L 153 107 Q 155 111 152 115 Q 147 117 142 128" fill="#000080" clip-path="url(#clip-mask-7)" /><path d="M 100 133 Q 114 131 130 128 L 142 128 Q 148 132 148 134 Q 148 136 145 136 Q 117 138 104 141 Q 102 141 100 141" fill="#000080" clip-path="url(#clip-mask-8)" /><path d="M 66 178 L 68 202 Q 71 231 64 238 Q 62 240 59 237 Q 58 235 57 234 Q 49 224 54 213 Q 59 180 47 163 Q 45 160 48 158 Q 53 158 60 160 Q 61 160 61 160 L 66 170" fill="#000080" clip-path="url(#clip-mask-9)" /><path d="M 61 160 Q 62 160 149 152 Q 170 151 177 149 Q 182 147 187 149 Q 199 154 202 157 Q 205 160 202 163 L 177 163 Q 174 160 168 160 Q 99 163 71 168 Q 69 170 66 170" fill="#000080" clip-path="url(#clip-mask-10)" /><path d="M 202 163 Q 197 171 198 218 Q 197 231 190 244 Q 186 253 184 254 Q 180 256 177 253 L 178 219 Q 183 189 182 172 Q 182 165 177 163" fill="#000080" clip-path="url(#clip-mask-11)" /><path d="M 177 253 Q 171 244 160 236 Q 152 231 151 228 Q 149 225 154 226 Q 162 226 170 227 Q 178 227 178 219" fill="#000080" clip-path="url(#clip-mask-12)" /><path d="M 103 219 L 103 221 Q 102 225 98 220 Q 95 217 94 212 Q 91 194 85 184 Q 83 180 84 179 Q 85 177 88 178 Q 93 179 95 180 L 100 186 Q 100 191 103 208 L 103 216" fill="#0000ff" clip-path="url(#clip-mask-13)" /><path d="M 134 185 Q 133 182 126 183 Q 102 185 100 186 L 95 180 Q 114 178 125 175 Q 139 169 143 172 Q 149 177 153 180 Q 158 184 153 189" fill="#0000ff" clip-path="url(#clip-mask-14)" /><path d="M 132 203 Q 135 185 134 185 L 153 189 Q 148 193 144 204" fill="#0000ff" clip-path="url(#clip-mask-15)" /><path d="M 103 208 Q 116 206 132 203 L 144 204 Q 150 208 150 210 Q 150 212 147 212 Q 121 213 109 216 Q 106 216 103 216" fill="#0000ff" clip-path="url(#clip-mask-16)" /></svg>