<svg xmlns="http://www.w3.org/2000/svg" xmlns:xlink="http://www.w3.org/1999/xlink" width="270" height="270"><defs><clipPath id="clip-mask-1"><rect x="12" y="91" width="23" height="65"><animate attributeName="y" from="26" to="91" dur="0.241" begin="0; animate20.end + 1" id="animate1" fill="freeze"/></rect></clipPath><clipPath id="clip-mask-2"><rect x="27" y="82" width="50" height="19"><set attributeName="x" to="-23" begin="0; animate20.end + 1" /><animate attributeName="x" from="-23" to="27" dur="0.185" begin="animate1.end + 0.5" id="animate2" fill="freeze"/></rect></clipPath><clipPath id="clip-mask-3"><rect x="50" y="97" width="22" height="31"><set attributeName="y" to="66" begin="0; animate20.end + 1" /><animate attributeName="y" from="66" to="97" dur="0.115" begin="animate2.end" id="animate3" fill="freeze"/></rect></clipPath><clipPath id="clip-mask-4"><rect x="33" y="127" width="34" height="14"><set attributeName="x" to="-1" begin="0; animate20.end + 1" /><animate attributeName="x" from="-1" to="33" dur="0.126" begin="animate3.end + 0.5" id="animate4" fill="freeze"/></rect></clipPath><clipPath id="clip-mask-5"><rect x="80" y="64" width="67" height="24"><set attributeName="x" to="13" begin="0; animate20.end + 1" /><animate attributeName="x" from="13" to="80" dur="0.248" begin="animate4.end + 0.5" id="animate5" fill="freeze"/></rect></clipPath><clipPath id="clip-mask-6"><rect x="103" y="23" width="27" height="81"><set attributeName="y" to="-58" begin="0; animate20.end + 1" /><animate attributeName="y" from="-58" to="23" dur="0.300" begin="animate5.end + 0.5" id="animate6" fill="freeze"/></rect></clipPath><clipPath id="clip-mask-7"><rect x="66" y="94" width="85" height="30"><set attributeName="x" to="-19" begin="0; animate20.end + 1" /><animate attributeName="x" from="-19" to="66" dur="0.315" begin="animate6.end + 0.5" id="animate7" fill="freeze"/></rect></clipPath><clipPath id="clip-mask-8"><rect x="51" y="119" width="55" height="96"><set attributeName="y" to="23" begin="0; animate20.end + 1" /><animate attributeName="y" from="23" to="119" dur="0.356" begin="animate7.end + 0.5" id="animate8" fill="freeze"/></rect></clipPath><clipPath id="clip-mask-9"><rect x="113" y="111" width="17" height="122"><set attributeName="y" to="-11" begin="0; animate20.end + 1" /><animate attributeName="y" from="-11" to="111" dur="0.452" begin="animate8.end + 0.5" id="animate9" fill="freeze"/></rect></clipPath><clipPath id="clip-mask-10"><rect x="97" y="210" width="18" height="22"><set attributeName="x" to="115" begin="0; animate20.end + 1" /><animate attributeName="x" from="115" to="97" dur="0.067" begin="animate9.end" id="animate10" fill="freeze"/></rect></clipPath><clipPath id="clip-mask-11"><rect x="48" y="145" width="26" height="42"><set attributeName="y" to="103" begin="0; animate20.end + 1" /><animate attributeName="y" from="103" to="145" dur="0.156" begin="animate10.end + 0.5" id="animate11" fill="freeze"/></rect></clipPath><clipPath id="clip-mask-12"><rect x="129" y="135" width="19" height="18"><set attributeName="x" to="110" begin="0; animate20.end + 1" /><animate attributeName="x" from="110" to="129" dur="0.070" begin="animate11.end + 0.5" id="animate12" fill="freeze"/></rect></clipPath><clipPath id="clip-mask-13"><rect x="159" y="58" width="74" height="26"><set attributeName="x" to="85" begin="0; animate20.end + 1" /><animate attributeName="x" from="85" to="159" dur="0.274" begin="animate12.end + 0.5" id="animate13" fill="freeze"/></rect></clipPath><clipPath id="clip-mask-14"><rect x="179" y="14" width="29" height="92"><set attributeName="y" to="-78" begin="0; animate20.end + 1" /><animate attributeName="y" from="-78" to="14" dur="0.341" begin="animate13.end + 0.5" id="animate14" fill="freeze"/></rect></clipPath><clipPath id="clip-mask-15"><rect x="147" y="93" width="107" height="27"><set attributeName="x" to="40" begin="0; animate20.end + 1" /><animate attributeName="x" from="40" to="147" dur="0.396" begin="animate14.end + 0.5" id="animate15" fill="freeze"/></rect></clipPath><clipPath id="clip-mask-16"><rect x="138" y="117" width="49" height="107"><set attributeName="y" to="10" begin="0; animate20.end + 1" /><animate attributeName="y" from="10" to="117" dur="0.396" begin="animate15.end + 0.5" id="animate16" fill="freeze"/></rect></clipPath><clipPath id="clip-mask-17"><rect x="199" y="111" width="20" height="144"><set attributeName="y" to="-33" begin="0; animate20.end + 1" /><animate attributeName="y" from="-33" to="111" dur="0.533" begin="animate16.end + 0.5" id="animate17" fill="freeze"/></rect></clipPath><clipPath id="clip-mask-18"><rect x="176" y="224" width="27" height="29"><set attributeName="x" to="203" begin="0; animate20.end + 1" /><animate attributeName="x" from="203" to="176" dur="0.100" begin="animate17.end" id="animate18" fill="freeze"/></rect></clipPath><clipPath id="clip-mask-19"><rect x="140" y="148" width="20" height="39"><set attributeName="y" to="109" begin="0; animate20.end + 1" /><animate attributeName="y" from="109" to="148" dur="0.144" begin="animate18.end + 0.5" id="animate19" fill="freeze"/></rect></clipPath><clipPath id="clip-mask-20"><rect x="223" y="150" width="34" height="37"><set attributeName="x" to="189" begin="0; animate20.end + 1" /><animate attributeName="x" from="189" to="223" dur="0.126" begin="animate19.end + 0.5" id="animate20" fill="freeze"/></rect></clipPath></defs><path d="M 0 0 L 270 270 M 270 0 L 0 270 M 135 0 L 135 270 M 0 135 L 270 135" stroke="#CCCCCC" /><path d="M 35 148 L 33 152 Q 32 156 28 150 Q 24 145 23 137 Q 20 112 14 97 Q 12 93 13 92 Q 14 91 17 91 Q 24 93 27 95 L 29 101 Q 30 109 33 133 L 34 141" fill="#CCCCCC"/><path d="M 54 97 Q 53 95 48 96 Q 31 100 29 101 L 27 95 Q 34 92 40 91 Q 47 88 52 85 Q 56 82 60 84 Q 66 88 71 91 Q 77 94 72 100" fill="#CCCCCC"/><path d="M 50 127 Q 52 116 54 107 Q 56 99 54 97 L 72 100 Q 66 106 62 128" fill="#CCCCCC"/><path d="M 33 133 Q 40 131 50 127 Q 50 127 50 127 L 62 128 Q 67 131 67 133 Q 67 135 65 135 Q 45 138 36 140 Q 35 141 34 141" fill="#CCCCCC"/><path d="M 112 83 Q 97 88 87 83 Q 80 80 89 77 Q 99 76 108 73 Q 110 72 112 72 L 125 66 Q 131 64 137 65 Q 144 66 146 68 Q 147 70 145 72 Q 144 73 125 79" fill="#CCCCCC"/><path d="M 113 104 Q 113 93 112 83 L 112 72 Q 111 55 110 41 Q 110 37 105 30 Q 103 27 105 25 Q 107 23 111 23 Q 117 25 125 29 Q 130 32 130 35 Q 125 63 125 66 L 125 79 Q 124 89 123 101" fill="#CCCCCC"/><path d="M 113 114 Q 104 116 96 119 L 87 122 Q 86 122 85 122 Q 79 124 71 119 Q 66 116 72 114 Q 101 107 113 104 L 123 101 Q 137 94 146 98 Q 151 100 151 103 Q 149 106 147 106 L 123 111" fill="#CCCCCC"/><path d="M 96 119 Q 98 120 102 122 Q 106 125 104 129 Q 103 132 102 136 Q 95 184 75 204 Q 61 215 53 214 Q 51 214 52 212 Q 52 211 56 209 Q 59 206 62 204 Q 82 187 86 160 Q 91 131 87 122" fill="#CCCCCC"/><path d="M 128 172 L 129 189 Q 130 218 121 230 Q 118 233 115 232 L 113 210 Q 115 207 116 200 Q 116 170 116 151 Q 116 116 113 114 L 123 111 Q 128 114 130 117 Q 130 118 129 135 L 129 140" fill="#CCCCCC"/><path d="M 115 232 Q 110 224 100 215 Q 98 213 97 211 Q 97 210 100 210 Q 102 210 104 210 Q 110 212 113 210" fill="#CCCCCC"/><path d="M 69 145 L 71 145 Q 72 146 73 148 Q 74 153 72 161 Q 70 176 58 185 Q 52 187 51 183 Q 48 174 53 168 Q 61 158 68 147" fill="#CCCCCC"/><path d="M 129 135 Q 130 135 141 138 Q 146 140 147 143 Q 148 148 147 151 Q 147 153 145 153 Q 143 153 129 140" fill="#CCCCCC"/><path d="M 187 81 Q 175 84 166 80 Q 159 76 168 74 Q 178 72 187 69 L 201 64 Q 205 63 208 62 Q 215 58 223 58 Q 230 60 232 62 Q 233 65 232 66 Q 230 68 200 77" fill="#CCCCCC"/><path d="M 187 106 Q 187 93 187 81 L 187 69 Q 187 51 186 34 Q 186 29 181 22 Q 179 18 181 16 Q 183 14 187 15 Q 193 16 203 21 Q 208 25 207 28 Q 202 44 201 64 L 200 77 Q 199 90 198 104" fill="#CCCCCC"/><path d="M 190 112 L 174 117 L 167 119 Q 165 119 165 119 Q 161 120 157 119 Q 153 118 150 116 Q 147 113 151 112 Q 171 108 187 106 L 198 104 Q 213 100 224 97 Q 239 93 250 101 Q 254 103 253 106 Q 252 108 248 108 Q 226 108 209 111 L 199 112" fill="#CCCCCC"/><path d="M 174 117 Q 177 118 183 121 Q 187 124 186 128 Q 186 130 185 134 Q 181 190 162 210 Q 149 223 141 223 Q 138 224 139 222 Q 139 220 143 218 Q 158 201 163 191 Q 172 171 172 133 Q 171 132 167 119" fill="#CCCCCC"/><path d="M 209 111 Q 216 115 218 117 Q 219 119 218 126 Q 215 170 217 217 Q 217 240 209 251 Q 205 255 203 253 L 201 229 Q 204 223 203 131 Q 204 122 201 116 Q 199 113 199 112" fill="#CCCCCC"/><path d="M 203 253 Q 194 242 179 230 Q 176 227 176 226 Q 177 224 179 225 Q 186 227 192 229 Q 198 231 201 229" fill="#CCCCCC"/><path d="M 154 148 L 156 148 Q 157 148 158 150 Q 160 155 159 162 Q 160 176 150 184 Q 146 187 144 184 Q 140 177 144 170 Q 150 160 153 150" fill="#CCCCCC"/><path d="M 223 156 L 224 153 Q 224 150 226 151 Q 242 155 251 162 Q 254 165 255 171 Q 257 181 254 185 Q 252 187 250 186 Q 247 185 243 180 Q 233 167 225 158" fill="#CCCCCC"/><path d="M 35 148 L 33 152 Q 32 156 28 150 Q 24 145 23 137 Q 20 112 14 97 Q 12 93 13 92 Q 14 91 17 91 Q 24 93 27 95 L 29 101 Q 30 109 33 133 L 34 141" fill="#0000ff" clip-path="url(#clip-mask-1)" /><path d="M 54 97 Q 53 95 48 96 Q 31 100 29 101 L 27 95 Q 34 92 40 91 Q 47 88 52 85 Q 56 82 60 84 Q 66 88 71 91 Q 77 94 72 100" fill="#0000ff" clip-path="url(#clip-mask-2)" /><path d="M 50 127 Q 52 116 54 107 Q 56 99 54 97 L 72 100 Q 66 106 62 128" fill="#0000ff" clip-path="url(#clip-mask-3)" /><path d="M 33 133 Q 40 131 50 127 Q 50 127 50 127 L 62 128 Q 67 131 67 133 Q 67 135 65 135 Q 45 138 36 140 Q 35 141 34 141" fill="#0000ff" clip-path="url(#clip-mask-4)" /><path d="M 112 83 Q 97 88 87 83 Q 80 80 89 77 Q 99 76 108 73 Q 110 72 112 72 L 125 66 Q 131 64 137 65 Q 144 66 146 68 Q 147 70 145 72 Q 144 73 125 79" fill="#000080" clip-path="url(#clip-mask-5)" /><path d="M 113 104 Q 113 93 112 83 L 112 72 Q 111 55 110 41 Q 110 37 105 30 Q 103 27 105 25 Q 107 23 111 23 Q 117 25 125 29 Q 130 32 130 35 Q 125 63 125 66 L 125 79 Q 124 89 123 101" fill="#000080" clip-path="url(#clip-mask-6)" /><path d="M 113 114 Q 104 116 96 119 L 87 122 Q 86 122 85 122 Q 79 124 71 119 Q 66 116 72 114 Q 101 107 113 104 L 123 101 Q 137 94 146 98 Q 151 100 151 103 Q 149 106 147 106 L 123 111" fill="#000080" clip-path="url(#clip-mask-7)" /><path d="M 96 119 Q 98 120 102 122 Q 106 125 104 129 Q 103 132 102 136 Q 95 184 75 204 Q 61 215 53 214 Q 51 214 52 212 Q 52 211 56 209 Q 59 206 62 204 Q 82 187 86 160 Q 91 131 87 122" fill="#000080" clip-path="url(#clip-mask-8)" /><path d="M 128 172 L 129 189 Q 130 218 121 230 Q 118 233 115 232 L 113 210 Q 115 207 116 200 Q 116 170 116 151 Q 116 116 113 114 L 123 111 Q 128 114 130 117 Q 130 118 129 135 L 129 140" fill="#000080" clip-path="url(#clip-mask-9)" /><path d="M 115 232 Q 110 224 100 215 Q 98 213 97 211 Q 97 210 100 210 Q 102 210 104 210 Q 110 212 113 210" fill="#000080" clip-path="url(#clip-mask-10)" /><path d="M 69 145 L 71 145 Q 72 146 73 148 Q 74 153 72 161 Q 70 176 58 185 Q 52 187 51 183 Q 48 174 53 168 Q 61 158 68 147" fill="#000080" clip-path="url(#clip-mask-11)" /><path d="M 129 135 Q 130 135 141 138 Q 146 140 147 143 Q 148 148 147 151 Q 147 153 145 153 Q 143 153 129 140" fill="#000080" clip-path="url(#clip-mask-12)" /><path d="M 187 81 Q 175 84 166 80 Q 159 76 168 74 Q 178 72 187 69 L 201 64 Q 205 63 208 62 Q 215 58 223 58 Q 230 60 232 62 Q 233 65 232 66 Q 230 68 200 77" fill="#000080" clip-path="url(#clip-mask-13)" /><path d="M 187 106 Q 187 93 187 81 L 187 69 Q 187 51 186 34 Q 186 29 181 22 Q 179 18 181 16 Q 183 14 187 15 Q 193 16 203 21 Q 208 25 207 28 Q 202 44 201 64 L 200 77 Q 199 90 198 104" fill="#000080" clip-path="url(#clip-mask-14)" /><path d="M 190 112 L 174 117 L 167 119 Q 165 119 165 119 Q 161 120 157 119 Q 153 118 150 116 Q 147 113 151 112 Q 171 108 187 106 L 198 104 Q 213 100 224 97 Q 239 93 250 101 Q 254 103 253 106 Q 252 108 248 108 Q 226 108 209 111 L 199 112" fill="#000080" clip-path="url(#clip-mask-15)" /><path d="M 174 117 Q 177 118 183 121 Q 187 124 186 128 Q 186 130 185 134 Q 181 190 162 210 Q 149 223 141 223 Q 138 224 139 222 Q 139 220 143 218 Q 158 201 163 191 Q 172 171 172 133 Q 171 132 167 119" fill="#000080" clip-path="url(#clip-mask-16)" /><path d="M 209 111 Q 216 115 218 117 Q 219 119 218 126 Q 215 170 217 217 Q 217 240 209 251 Q 205 255 203 253 L 201 229 Q 204 223 203 131 Q 204 122 201 116 Q 199 113 199 112" fill="#000080" clip-path="url(#clip-mask-17)" /><path d="M 203 253 Q 194 242 179 230 Q 176 227 176 226 Q 177 224 179 225 Q 186 227 192 229 Q 198 231 201 229" fill="#000080" clip-path="url(#clip-mask-18)" /><path d="M 154 148 L 156 148 Q 157 148 158 150 Q 160 155 159 162 Q 160 176 150 184 Q 146 187 144 184 Q 140 177 144 170 Q 150 160 153 150" fill="#000080" clip-path="url(#clip-mask-19)" /><path d="M 223 156 L 224 153 Q 224 150 226 151 Q 242 155 251 162 Q 254 165 255 171 Q 257 181 254 185 Q 252 187 250 186 Q 247 185 243 180 Q 233 167 225 158" fill="#000080" clip-path="url(#clip-mask-20)" /></svg>