<svg xmlns="http://www.w3.org/2000/svg" xmlns:xlink="http://www.w3.org/1999/xlink" width="270" height="270"><defs><clipPath id="clip-mask-1"><rect x="24" y="104" width="78" height="28"><animate attributeName="x" from="-54" to="24" dur="0.289" begin="0; animate11.end + 1" id="animate1" fill="freeze"/></rect></clipPath><clipPath id="clip-mask-2"><rect x="50" y="38" width="31" height="138"><set attributeName="y" to="-100" begin="0; animate11.end + 1" /><animate attributeName="y" from="-100" to="38" dur="0.511" begin="animate1.end + 0.5" id="animate2" fill="freeze"/></rect></clipPath><clipPath id="clip-mask-3"><rect x="14" y="156" width="91" height="55"><set attributeName="x" to="-77" begin="0; animate11.end + 1" /><animate attributeName="x" from="-77" to="14" dur="0.337" begin="animate2.end + 0.5" id="animate3" fill="freeze"/></rect></clipPath><clipPath id="clip-mask-4"><rect x="100" y="59" width="31" height="90"><set attributeName="y" to="-31" begin="0; animate11.end + 1" /><animate attributeName="y" from="-31" to="59" dur="0.333" begin="animate3.end + 0.5" id="animate4" fill="freeze"/></rect></clipPath><clipPath id="clip-mask-5"><rect x="118" y="47" width="116" height="26"><set attributeName="x" to="2" begin="0; animate11.end + 1" /><animate attributeName="x" from="2" to="118" dur="0.430" begin="animate4.end + 0.5" id="animate5" fill="freeze"/></rect></clipPath><clipPath id="clip-mask-6"><rect x="191" y="63" width="46" height="81"><set attributeName="y" to="-18" begin="0; animate11.end + 1" /><animate attributeName="y" from="-18" to="63" dur="0.300" begin="animate5.end" id="animate6" fill="freeze"/></rect></clipPath><clipPath id="clip-mask-7"><rect x="135" y="89" width="56" height="17"><set attributeName="x" to="79" begin="0; animate11.end + 1" /><animate attributeName="x" from="79" to="135" dur="0.207" begin="animate6.end + 0.5" id="animate7" fill="freeze"/></rect></clipPath><clipPath id="clip-mask-8"><rect x="131" y="120" width="61" height="20"><set attributeName="x" to="70" begin="0; animate11.end + 1" /><animate attributeName="x" from="70" to="131" dur="0.226" begin="animate7.end + 0.5" id="animate8" fill="freeze"/></rect></clipPath><clipPath id="clip-mask-9"><rect x="117" y="161" width="91" height="25"><set attributeName="x" to="26" begin="0; animate11.end + 1" /><animate attributeName="x" from="26" to="117" dur="0.337" begin="animate8.end + 0.5" id="animate9" fill="freeze"/></rect></clipPath><clipPath id="clip-mask-10"><rect x="149" y="65" width="23" height="147"><set attributeName="y" to="-82" begin="0; animate11.end + 1" /><animate attributeName="y" from="-82" to="65" dur="0.544" begin="animate9.end + 0.5" id="animate10" fill="freeze"/></rect></clipPath><clipPath id="clip-mask-11"><rect x="79" y="201" width="176" height="30"><set attributeName="x" to="-97" begin="0; animate11.end + 1" /><animate attributeName="x" from="-97" to="79" dur="0.652" begin="animate10.end + 0.5" id="animate11" fill="freeze"/></rect></clipPath></defs><path d="M 0 0 L 270 270 M 270 0 L 0 270 M 135 0 L 135 270 M 0 135 L 270 135" stroke="#CCCCCC" /><path d="M 62 126 Q 60 126 59 127 Q 42 132 31 127 Q 24 123 33 121 Q 41 119 61 114 L 74 108 Q 74 108 75 108 Q 82 104 90 105 Q 98 106 100 109 Q 102 111 100 114 Q 99 114 74 122" fill="#CCCCCC"/><path d="M 61 150 L 62 126 L 61 114 Q 61 88 60 66 Q 60 58 52 47 Q 50 43 52 40 Q 54 38 59 39 Q 66 40 75 45 Q 81 49 80 52 Q 75 72 74 108 L 74 122 Q 73 146 72 171 L 60 176" fill="#CCCCCC"/><path d="M 72 171 Q 86 164 99 157 Q 103 156 105 157 Q 105 160 102 163 Q 98 167 91 171 Q 47 201 41 208 Q 38 211 35 210 Q 24 206 17 203 Q 14 201 14 197 Q 14 194 18 193 Q 26 192 31 190 Q 46 183 60 176" fill="#CCCCCC"/><path d="M 131 140 Q 131 143 130 145 Q 129 149 124 143 Q 118 136 117 125 Q 112 89 103 67 Q 100 62 102 61 Q 103 59 106 60 Q 115 62 118 63 L 122 73 Q 123 85 130 121 Q 131 127 131 132" fill="#CCCCCC"/><path d="M 206 63 Q 200 59 163 65 L 149 67 Q 133 70 122 73 L 118 63 Q 130 62 145 59 Q 189 52 196 51 Q 212 47 218 50 Q 230 58 234 63" fill="#CCCCCC"/><path d="M 192 123 Q 198 120 209 73 Q 211 67 206 63 L 234 63 Q 237 67 233 71 Q 226 78 223 87 Q 211 130 206 138 Q 202 144 199 141 Q 195 139 191 133" fill="#CCCCCC"/><path d="M 156 103 Q 151 104 147 105 Q 143 106 140 104 Q 135 101 139 100 Q 147 97 155 94 L 170 90 Q 175 89 179 89 Q 186 90 189 94 Q 191 97 185 98 Q 177 99 169 101" fill="#CCCCCC"/><path d="M 155 137 Q 135 140 131 140 L 131 132 Q 143 129 155 127 L 169 124 Q 169 123 170 123 Q 186 120 192 123 L 191 133 Q 180 134 168 135" fill="#CCCCCC"/><path d="M 155 182 Q 152 182 150 183 Q 133 186 124 179 Q 117 174 127 173 Q 142 172 155 170 L 167 167 Q 190 161 197 162 Q 205 164 207 167 Q 208 170 205 172 Q 204 173 194 175 Q 180 177 167 180" fill="#CCCCCC"/><path d="M 155 195 L 155 182 L 155 170 Q 155 151 155 137 L 155 127 Q 156 112 156 103 L 155 94 Q 155 81 153 74 Q 151 71 149 67 L 163 65 Q 166 67 169 70 Q 172 73 170 79 Q 170 83 170 90 L 169 101 Q 169 112 169 124 L 168 135 Q 168 150 167 167 L 167 180 Q 167 195 167 211 L 155 212" fill="#CCCCCC"/><path d="M 167 211 Q 205 207 227 203 Q 237 201 251 211 Q 255 215 253 218 Q 252 221 247 221 Q 246 220 246 221 Q 164 215 101 230 Q 97 231 91 229 Q 86 228 83 224 Q 79 219 84 219 Q 122 215 155 212" fill="#CCCCCC"/><path d="M 62 126 Q 60 126 59 127 Q 42 132 31 127 Q 24 123 33 121 Q 41 119 61 114 L 74 108 Q 74 108 75 108 Q 82 104 90 105 Q 98 106 100 109 Q 102 111 100 114 Q 99 114 74 122" fill="#0000ff" clip-path="url(#clip-mask-1)" /><path d="M 61 150 L 62 126 L 61 114 Q 61 88 60 66 Q 60 58 52 47 Q 50 43 52 40 Q 54 38 59 39 Q 66 40 75 45 Q 81 49 80 52 Q 75 72 74 108 L 74 122 Q 73 146 72 171 L 60 176" fill="#0000ff" clip-path="url(#clip-mask-2)" /><path d="M 72 171 Q 86 164 99 157 Q 103 156 105 157 Q 105 160 102 163 Q 98 167 91 171 Q 47 201 41 208 Q 38 211 35 210 Q 24 206 17 203 Q 14 201 14 197 Q 14 194 18 193 Q 26 192 31 190 Q 46 183 60 176" fill="#0000ff" clip-path="url(#clip-mask-3)" /><path d="M 131 140 Q 131 143 130 145 Q 129 149 124 143 Q 118 136 117 125 Q 112 89 103 67 Q 100 62 102 61 Q 103 59 106 60 Q 115 62 118 63 L 122 73 Q 123 85 130 121 Q 131 127 131 132" fill="#000080" clip-path="url(#clip-mask-4)" /><path d="M 206 63 Q 200 59 163 65 L 149 67 Q 133 70 122 73 L 118 63 Q 130 62 145 59 Q 189 52 196 51 Q 212 47 218 50 Q 230 58 234 63" fill="#000080" clip-path="url(#clip-mask-5)" /><path d="M 192 123 Q 198 120 209 73 Q 211 67 206 63 L 234 63 Q 237 67 233 71 Q 226 78 223 87 Q 211 130 206 138 Q 202 144 199 141 Q 195 139 191 133" fill="#000080" clip-path="url(#clip-mask-6)" /><path d="M 156 103 Q 151 104 147 105 Q 143 106 140 104 Q 135 101 139 100 Q 147 97 155 94 L 170 90 Q 175 89 179 89 Q 186 90 189 94 Q 191 97 185 98 Q 177 99 169 101" fill="#000080" clip-path="url(#clip-mask-7)" /><path d="M 155 137 Q 135 140 131 140 L 131 132 Q 143 129 155 127 L 169 124 Q 169 123 170 123 Q 186 120 192 123 L 191 133 Q 180 134 168 135" fill="#000080" clip-path="url(#clip-mask-8)" /><path d="M 155 182 Q 152 182 150 183 Q 133 186 124 179 Q 117 174 127 173 Q 142 172 155 170 L 167 167 Q 190 161 197 162 Q 205 164 207 167 Q 208 170 205 172 Q 204 173 194 175 Q 180 177 167 180" fill="#000080" clip-path="url(#clip-mask-9)" /><path d="M 155 195 L 155 182 L 155 170 Q 155 151 155 137 L 155 127 Q 156 112 156 103 L 155 94 Q 155 81 153 74 Q 151 71 149 67 L 163 65 Q 166 67 169 70 Q 172 73 170 79 Q 170 83 170 90 L 169 101 Q 169 112 169 124 L 168 135 Q 168 150 167 167 L 167 180 Q 167 195 167 211 L 155 212" fill="#000080" clip-path="url(#clip-mask-10)" /><path d="M 167 211 Q 205 207 227 203 Q 237 201 251 211 Q 255 215 253 218 Q 252 221 247 221 Q 246 220 246 221 Q 164 215 101 230 Q 97 231 91 229 Q 86 228 83 224 Q 79 219 84 219 Q 122 215 155 212" fill="#000080" clip-path="url(#clip-mask-11)" /></svg>