<svg xmlns="http://www.w3.org/2000/svg" xmlns:xlink="http://www.w3.org/1999/xlink" width="270" height="270"><defs><clipPath id="clip-mask-1"><rect x="54" y="47" width="140" height="34"><animate attributeName="x" from="-86" to="54" dur="0.519" begin="0; animate11.end + 1" id="animate1" fill="freeze"/></rect></clipPath><clipPath id="clip-mask-2"><rect x="77" y="34" width="26" height="111"><set attributeName="y" to="-77" begin="0; animate11.end + 1" /><animate attributeName="y" from="-77" to="34" dur="0.411" begin="animate1.end + 0.5" id="animate2" fill="freeze"/></rect></clipPath><clipPath id="clip-mask-3"><rect x="136" y="16" width="29" height="123"><set attributeName="y" to="-107" begin="0; animate11.end + 1" /><animate attributeName="y" from="-107" to="16" dur="0.456" begin="animate2.end + 0.5" id="animate3" fill="freeze"/></rect></clipPath><clipPath id="clip-mask-4"><rect x="99" y="88" width="40" height="15"><set attributeName="x" to="59" begin="0; animate11.end + 1" /><animate attributeName="x" from="59" to="99" dur="0.148" begin="animate3.end + 0.5" id="animate4" fill="freeze"/></rect></clipPath><clipPath id="clip-mask-5"><rect x="99" y="112" width="39" height="14"><set attributeName="x" to="60" begin="0; animate11.end + 1" /><animate attributeName="x" from="60" to="99" dur="0.144" begin="animate4.end + 0.5" id="animate5" fill="freeze"/></rect></clipPath><clipPath id="clip-mask-6"><rect x="39" y="129" width="172" height="32"><set attributeName="x" to="-133" begin="0; animate11.end + 1" /><animate attributeName="x" from="-133" to="39" dur="0.637" begin="animate5.end + 0.5" id="animate6" fill="freeze"/></rect></clipPath><clipPath id="clip-mask-7"><rect x="12" y="155" width="87" height="77"><set attributeName="y" to="78" begin="0; animate11.end + 1" /><animate attributeName="y" from="78" to="155" dur="0.285" begin="animate6.end + 0.5" id="animate7" fill="freeze"/></rect></clipPath><clipPath id="clip-mask-8"><rect x="140" y="149" width="117" height="65"><set attributeName="x" to="23" begin="0; animate11.end + 1" /><animate attributeName="x" from="23" to="140" dur="0.433" begin="animate7.end + 0.5" id="animate8" fill="freeze"/></rect></clipPath><clipPath id="clip-mask-9"><rect x="83" y="191" width="76" height="22"><set attributeName="x" to="7" begin="0; animate11.end + 1" /><animate attributeName="x" from="7" to="83" dur="0.281" begin="animate8.end + 0.5" id="animate9" fill="freeze"/></rect></clipPath><clipPath id="clip-mask-10"><rect x="108" y="167" width="24" height="70"><set attributeName="y" to="97" begin="0; animate11.end + 1" /><animate attributeName="y" from="97" to="167" dur="0.259" begin="animate9.end + 0.5" id="animate10" fill="freeze"/></rect></clipPath><clipPath id="clip-mask-11"><rect x="49" y="227" width="147" height="26"><set attributeName="x" to="-98" begin="0; animate11.end + 1" /><animate attributeName="x" from="-98" to="49" dur="0.544" begin="animate10.end + 0.5" id="animate11" fill="freeze"/></rect></clipPath></defs><path d="M 0 0 L 270 270 M 270 0 L 0 270 M 135 0 L 135 270 M 0 135 L 270 135" stroke="#CCCCCC" /><path d="M 145 69 Q 122 72 100 76 L 88 78 Q 87 78 86 78 Q 72 81 61 74 Q 54 69 64 68 Q 75 67 86 66 L 101 65 Q 119 62 145 56 L 160 52 Q 176 47 184 49 Q 191 51 193 55 Q 194 57 192 59 Q 191 59 158 67" fill="#CCCCCC"/><path d="M 100 76 Q 99 81 99 96 L 99 103 Q 99 110 99 119 L 99 126 Q 100 135 100 144 L 89 145 Q 88 97 88 78 L 86 66 Q 84 54 78 41 Q 77 37 79 35 Q 81 34 85 35 Q 93 38 99 43 Q 103 47 102 53 Q 101 57 101 65" fill="#CCCCCC"/><path d="M 143 139 Q 145 102 145 69 L 145 56 Q 145 49 144 42 Q 144 35 138 25 Q 136 21 138 18 Q 140 16 144 17 Q 151 19 160 24 Q 165 28 165 31 Q 161 43 160 52 L 158 67 Q 157 100 154 137" fill="#CCCCCC"/><path d="M 99 96 Q 120 88 128 89 Q 134 90 137 94 Q 139 97 133 98 Q 119 99 101 103 Q 100 103 99 103" fill="#CCCCCC"/><path d="M 99 119 Q 116 112 126 113 Q 133 114 136 118 Q 138 121 132 122 Q 118 124 99 126" fill="#CCCCCC"/><path d="M 114 150 L 90 155 L 79 156 Q 70 158 61 160 Q 57 161 51 160 Q 46 158 43 155 Q 39 150 44 150 Q 68 147 89 145 L 100 144 Q 111 142 121 141 Q 132 140 143 139 L 154 137 Q 165 135 175 133 Q 193 129 207 140 Q 211 144 210 147 Q 208 150 191 149 Q 168 148 150 149 L 140 149" fill="#CCCCCC"/><path d="M 90 155 Q 94 156 96 159 Q 99 163 99 165 Q 99 167 97 169 Q 96 170 93 172 Q 82 185 59 209 Q 29 232 14 232 Q 12 231 14 230 Q 37 214 46 206 Q 47 205 48 205 Q 79 174 79 156" fill="#CCCCCC"/><path d="M 150 149 Q 150 149 150 150 Q 193 185 224 195 Q 240 200 253 205 Q 257 206 257 208 Q 256 210 251 210 Q 231 214 211 213 Q 201 213 194 207 Q 167 181 143 152 Q 141 150 140 149" fill="#CCCCCC"/><path d="M 113 212 Q 101 213 90 208 Q 83 203 92 201 Q 103 200 112 199 L 128 196 Q 140 191 149 193 Q 156 195 158 198 Q 159 200 157 202 Q 156 203 127 209" fill="#CCCCCC"/><path d="M 113 224 L 113 212 L 112 199 Q 111 180 111 178 Q 108 170 108 169 Q 111 167 115 167 Q 121 169 129 175 Q 132 179 130 183 Q 128 186 128 196 L 127 209 Q 126 221 125 235 L 114 237" fill="#CCCCCC"/><path d="M 125 235 Q 147 232 162 230 Q 178 227 192 238 Q 196 241 194 244 Q 193 246 188 246 Q 120 241 70 252 Q 66 253 61 251 Q 57 250 53 246 Q 49 241 55 241 Q 86 238 114 237" fill="#CCCCCC"/><path d="M 145 69 Q 122 72 100 76 L 88 78 Q 87 78 86 78 Q 72 81 61 74 Q 54 69 64 68 Q 75 67 86 66 L 101 65 Q 119 62 145 56 L 160 52 Q 176 47 184 49 Q 191 51 193 55 Q 194 57 192 59 Q 191 59 158 67" fill="#000080" clip-path="url(#clip-mask-1)" /><path d="M 100 76 Q 99 81 99 96 L 99 103 Q 99 110 99 119 L 99 126 Q 100 135 100 144 L 89 145 Q 88 97 88 78 L 86 66 Q 84 54 78 41 Q 77 37 79 35 Q 81 34 85 35 Q 93 38 99 43 Q 103 47 102 53 Q 101 57 101 65" fill="#000080" clip-path="url(#clip-mask-2)" /><path d="M 143 139 Q 145 102 145 69 L 145 56 Q 145 49 144 42 Q 144 35 138 25 Q 136 21 138 18 Q 140 16 144 17 Q 151 19 160 24 Q 165 28 165 31 Q 161 43 160 52 L 158 67 Q 157 100 154 137" fill="#000080" clip-path="url(#clip-mask-3)" /><path d="M 99 96 Q 120 88 128 89 Q 134 90 137 94 Q 139 97 133 98 Q 119 99 101 103 Q 100 103 99 103" fill="#000080" clip-path="url(#clip-mask-4)" /><path d="M 99 119 Q 116 112 126 113 Q 133 114 136 118 Q 138 121 132 122 Q 118 124 99 126" fill="#000080" clip-path="url(#clip-mask-5)" /><path d="M 114 150 L 90 155 L 79 156 Q 70 158 61 160 Q 57 161 51 160 Q 46 158 43 155 Q 39 150 44 150 Q 68 147 89 145 L 100 144 Q 111 142 121 141 Q 132 140 143 139 L 154 137 Q 165 135 175 133 Q 193 129 207 140 Q 211 144 210 147 Q 208 150 191 149 Q 168 148 150 149 L 140 149" fill="#000080" clip-path="url(#clip-mask-6)" /><path d="M 90 155 Q 94 156 96 159 Q 99 163 99 165 Q 99 167 97 169 Q 96 170 93 172 Q 82 185 59 209 Q 29 232 14 232 Q 12 231 14 230 Q 37 214 46 206 Q 47 205 48 205 Q 79 174 79 156" fill="#000080" clip-path="url(#clip-mask-7)" /><path d="M 150 149 Q 150 149 150 150 Q 193 185 224 195 Q 240 200 253 205 Q 257 206 257 208 Q 256 210 251 210 Q 231 214 211 213 Q 201 213 194 207 Q 167 181 143 152 Q 141 150 140 149" fill="#000080" clip-path="url(#clip-mask-8)" /><path d="M 113 212 Q 101 213 90 208 Q 83 203 92 201 Q 103 200 112 199 L 128 196 Q 140 191 149 193 Q 156 195 158 198 Q 159 200 157 202 Q 156 203 127 209" fill="#0000ff" clip-path="url(#clip-mask-9)" /><path d="M 113 224 L 113 212 L 112 199 Q 111 180 111 178 Q 108 170 108 169 Q 111 167 115 167 Q 121 169 129 175 Q 132 179 130 183 Q 128 186 128 196 L 127 209 Q 126 221 125 235 L 114 237" fill="#0000ff" clip-path="url(#clip-mask-10)" /><path d="M 125 235 Q 147 232 162 230 Q 178 227 192 238 Q 196 241 194 244 Q 193 246 188 246 Q 120 241 70 252 Q 66 253 61 251 Q 57 250 53 246 Q 49 241 55 241 Q 86 238 114 237" fill="#0000ff" clip-path="url(#clip-mask-11)" /></svg>