<svg xmlns="http://www.w3.org/2000/svg" xmlns:xlink="http://www.w3.org/1999/xlink" width="270" height="270"><defs><clipPath id="clip-mask-1"><rect x="23" y="99" width="75" height="26"><animate attributeName="x" from="-52" to="23" dur="0.278" begin="0; animate13.end + 1" id="animate1" fill="freeze"/></rect></clipPath><clipPath id="clip-mask-2"><rect x="51" y="40" width="30" height="125"><set attributeName="y" to="-85" begin="0; animate13.end + 1" /><animate attributeName="y" from="-85" to="40" dur="0.463" begin="animate1.end + 0.5" id="animate2" fill="freeze"/></rect></clipPath><clipPath id="clip-mask-3"><rect x="13" y="151" width="85" height="45"><set attributeName="x" to="-72" begin="0; animate13.end + 1" /><animate attributeName="x" from="-72" to="13" dur="0.315" begin="animate2.end + 0.5" id="animate3" fill="freeze"/></rect></clipPath><clipPath id="clip-mask-4"><rect x="118" y="38" width="22" height="78"><set attributeName="y" to="-40" begin="0; animate13.end + 1" /><animate attributeName="y" from="-40" to="38" dur="0.289" begin="animate3.end + 0.5" id="animate4" fill="freeze"/></rect></clipPath><clipPath id="clip-mask-5"><rect x="131" y="29" width="71" height="22"><set attributeName="x" to="60" begin="0; animate13.end + 1" /><animate attributeName="x" from="60" to="131" dur="0.263" begin="animate4.end + 0.5" id="animate5" fill="freeze"/></rect></clipPath><clipPath id="clip-mask-6"><rect x="169" y="40" width="36" height="73"><set attributeName="y" to="-33" begin="0; animate13.end + 1" /><animate attributeName="y" from="-33" to="40" dur="0.270" begin="animate5.end" id="animate6" fill="freeze"/></rect></clipPath><clipPath id="clip-mask-7"><rect x="137" y="65" width="35" height="14"><set attributeName="x" to="102" begin="0; animate13.end + 1" /><animate attributeName="x" from="102" to="137" dur="0.130" begin="animate6.end + 0.5" id="animate7" fill="freeze"/></rect></clipPath><clipPath id="clip-mask-8"><rect x="139" y="93" width="33" height="15"><set attributeName="x" to="106" begin="0; animate13.end + 1" /><animate attributeName="x" from="106" to="139" dur="0.122" begin="animate7.end + 0.5" id="animate8" fill="freeze"/></rect></clipPath><clipPath id="clip-mask-9"><rect x="90" y="113" width="137" height="32"><set attributeName="x" to="-47" begin="0; animate13.end + 1" /><animate attributeName="x" from="-47" to="90" dur="0.507" begin="animate8.end + 0.5" id="animate9" fill="freeze"/></rect></clipPath><clipPath id="clip-mask-10"><rect x="148" y="133" width="20" height="69"><set attributeName="y" to="64" begin="0; animate13.end + 1" /><animate attributeName="y" from="64" to="133" dur="0.256" begin="animate9.end + 0.5" id="animate10" fill="freeze"/></rect></clipPath><clipPath id="clip-mask-11"><rect x="165" y="155" width="40" height="15"><set attributeName="x" to="125" begin="0; animate13.end + 1" /><animate attributeName="x" from="125" to="165" dur="0.148" begin="animate10.end + 0.5" id="animate11" fill="freeze"/></rect></clipPath><clipPath id="clip-mask-12"><rect x="59" y="150" width="71" height="79"><set attributeName="y" to="71" begin="0; animate13.end + 1" /><animate attributeName="y" from="71" to="150" dur="0.293" begin="animate11.end + 0.5" id="animate12" fill="freeze"/></rect></clipPath><clipPath id="clip-mask-13"><rect x="115" y="176" width="141" height="64"><set attributeName="x" to="-26" begin="0; animate13.end + 1" /><animate attributeName="x" from="-26" to="115" dur="0.522" begin="animate12.end + 0.5" id="animate13" fill="freeze"/></rect></clipPath></defs><path d="M 0 0 L 270 270 M 270 0 L 0 270 M 135 0 L 135 270 M 0 135 L 270 135" stroke="#CCCCCC" /><path d="M 61 119 Q 58 119 56 120 Q 39 125 29 120 Q 23 117 31 115 Q 48 112 61 107 L 74 102 Q 81 99 88 100 Q 95 101 97 104 Q 98 106 96 108 Q 95 109 87 111 Q 79 113 74 115" fill="#CCCCCC"/><path d="M 61 141 L 61 119 L 61 107 Q 61 85 60 66 Q 60 59 53 48 Q 51 44 52 42 Q 55 40 59 41 Q 65 42 75 47 Q 81 51 80 54 Q 75 71 74 102 L 74 115 Q 73 137 72 161 L 60 165" fill="#CCCCCC"/><path d="M 72 161 Q 95 151 98 153 Q 98 155 94 157 Q 90 161 85 164 Q 44 187 37 194 Q 34 196 31 196 Q 22 191 15 188 Q 13 185 13 182 Q 13 179 17 179 Q 24 178 29 176 Q 45 170 60 165" fill="#CCCCCC"/><path d="M 139 110 L 138 112 Q 137 116 133 110 Q 129 104 128 95 Q 126 64 119 45 Q 118 41 119 39 Q 120 38 123 39 Q 129 41 131 42 L 135 51 Q 135 57 137 72 L 138 79 Q 138 84 140 100 L 139 108" fill="#CCCCCC"/><path d="M 131 42 Q 145 38 167 33 Q 167 33 169 33 Q 185 29 188 30 Q 199 36 202 40 L 179 42 Q 172 38 135 51" fill="#CCCCCC"/><path d="M 172 96 Q 176 91 183 51 Q 184 45 179 42 L 202 40 Q 205 44 202 47 Q 197 53 195 60 Q 188 100 184 107 Q 180 113 177 111 Q 173 109 169 103" fill="#CCCCCC"/><path d="M 137 72 Q 153 65 160 65 Q 166 66 169 69 Q 172 72 166 74 Q 154 76 138 79" fill="#CCCCCC"/><path d="M 140 100 Q 149 98 160 94 Q 166 93 170 94 Q 172 95 172 96 L 169 103 Q 151 105 142 107 Q 140 108 139 108" fill="#CCCCCC"/><path d="M 148 135 Q 127 138 109 143 Q 105 145 101 144 Q 97 143 93 140 Q 90 136 95 135 Q 177 121 203 115 Q 211 113 223 121 Q 227 124 226 126 Q 224 129 211 129 Q 180 129 160 133" fill="#CCCCCC"/><path d="M 151 196 Q 151 174 151 162 Q 151 138 148 135 L 160 133 Q 163 135 166 139 Q 168 141 166 146 Q 166 148 165 161 L 165 169 Q 163 184 162 202" fill="#CCCCCC"/><path d="M 165 161 Q 192 155 195 155 Q 202 157 204 160 Q 205 162 203 164 Q 202 164 198 165 Q 196 166 194 166 Q 169 170 165 169" fill="#CCCCCC"/><path d="M 112 185 L 111 187 Q 98 208 75 223 Q 68 228 63 228 Q 59 229 61 226 Q 72 215 76 213 Q 109 182 109 154 Q 109 150 112 150 Q 117 150 127 159 Q 130 163 128 165 Q 124 170 119 176 L 115 183" fill="#CCCCCC"/><path d="M 119 176 Q 135 187 151 196 L 162 202 Q 163 203 164 203 Q 192 219 221 220 Q 233 219 251 221 Q 256 221 255 224 Q 253 227 244 230 Q 229 235 215 238 Q 206 240 200 237 Q 192 233 183 228 Q 175 224 169 220 Q 129 198 115 183" fill="#CCCCCC"/><path d="M 61 119 Q 58 119 56 120 Q 39 125 29 120 Q 23 117 31 115 Q 48 112 61 107 L 74 102 Q 81 99 88 100 Q 95 101 97 104 Q 98 106 96 108 Q 95 109 87 111 Q 79 113 74 115" fill="#0000ff" clip-path="url(#clip-mask-1)" /><path d="M 61 141 L 61 119 L 61 107 Q 61 85 60 66 Q 60 59 53 48 Q 51 44 52 42 Q 55 40 59 41 Q 65 42 75 47 Q 81 51 80 54 Q 75 71 74 102 L 74 115 Q 73 137 72 161 L 60 165" fill="#0000ff" clip-path="url(#clip-mask-2)" /><path d="M 72 161 Q 95 151 98 153 Q 98 155 94 157 Q 90 161 85 164 Q 44 187 37 194 Q 34 196 31 196 Q 22 191 15 188 Q 13 185 13 182 Q 13 179 17 179 Q 24 178 29 176 Q 45 170 60 165" fill="#0000ff" clip-path="url(#clip-mask-3)" /><path d="M 139 110 L 138 112 Q 137 116 133 110 Q 129 104 128 95 Q 126 64 119 45 Q 118 41 119 39 Q 120 38 123 39 Q 129 41 131 42 L 135 51 Q 135 57 137 72 L 138 79 Q 138 84 140 100 L 139 108" fill="#000080" clip-path="url(#clip-mask-4)" /><path d="M 131 42 Q 145 38 167 33 Q 167 33 169 33 Q 185 29 188 30 Q 199 36 202 40 L 179 42 Q 172 38 135 51" fill="#000080" clip-path="url(#clip-mask-5)" /><path d="M 172 96 Q 176 91 183 51 Q 184 45 179 42 L 202 40 Q 205 44 202 47 Q 197 53 195 60 Q 188 100 184 107 Q 180 113 177 111 Q 173 109 169 103" fill="#000080" clip-path="url(#clip-mask-6)" /><path d="M 137 72 Q 153 65 160 65 Q 166 66 169 69 Q 172 72 166 74 Q 154 76 138 79" fill="#000080" clip-path="url(#clip-mask-7)" /><path d="M 140 100 Q 149 98 160 94 Q 166 93 170 94 Q 172 95 172 96 L 169 103 Q 151 105 142 107 Q 140 108 139 108" fill="#000080" clip-path="url(#clip-mask-8)" /><path d="M 148 135 Q 127 138 109 143 Q 105 145 101 144 Q 97 143 93 140 Q 90 136 95 135 Q 177 121 203 115 Q 211 113 223 121 Q 227 124 226 126 Q 224 129 211 129 Q 180 129 160 133" fill="#000080" clip-path="url(#clip-mask-9)" /><path d="M 151 196 Q 151 174 151 162 Q 151 138 148 135 L 160 133 Q 163 135 166 139 Q 168 141 166 146 Q 166 148 165 161 L 165 169 Q 163 184 162 202" fill="#000080" clip-path="url(#clip-mask-10)" /><path d="M 165 161 Q 192 155 195 155 Q 202 157 204 160 Q 205 162 203 164 Q 202 164 198 165 Q 196 166 194 166 Q 169 170 165 169" fill="#000080" clip-path="url(#clip-mask-11)" /><path d="M 112 185 L 111 187 Q 98 208 75 223 Q 68 228 63 228 Q 59 229 61 226 Q 72 215 76 213 Q 109 182 109 154 Q 109 150 112 150 Q 117 150 127 159 Q 130 163 128 165 Q 124 170 119 176 L 115 183" fill="#000080" clip-path="url(#clip-mask-12)" /><path d="M 119 176 Q 135 187 151 196 L 162 202 Q 163 203 164 203 Q 192 219 221 220 Q 233 219 251 221 Q 256 221 255 224 Q 253 227 244 230 Q 229 235 215 238 Q 206 240 200 237 Q 192 233 183 228 Q 175 224 169 220 Q 129 198 115 183" fill="#000080" clip-path="url(#clip-mask-13)" /></svg>