<svg xmlns="http://www.w3.org/2000/svg" xmlns:xlink="http://www.w3.org/1999/xlink" width="270" height="270"><defs><clipPath id="clip-mask-1"><rect x="35" y="79" width="78" height="30"><animate attributeName="x" from="-43" to="35" dur="0.289" begin="0; animate18.end + 1" id="animate1" fill="freeze"/></rect></clipPath><clipPath id="clip-mask-2"><rect x="64" y="25" width="30" height="118"><set attributeName="y" to="-93" begin="0; animate18.end + 1" /><animate attributeName="y" from="-93" to="25" dur="0.437" begin="animate1.end + 0.5" id="animate2" fill="freeze"/></rect></clipPath><clipPath id="clip-mask-3"><rect x="24" y="125" width="85" height="57"><set attributeName="x" to="-61" begin="0; animate18.end + 1" /><animate attributeName="x" from="-61" to="24" dur="0.315" begin="animate2.end + 0.5" id="animate3" fill="freeze"/></rect></clipPath><clipPath id="clip-mask-4"><rect x="122" y="31" width="29" height="67"><set attributeName="y" to="-36" begin="0; animate18.end + 1" /><animate attributeName="y" from="-36" to="31" dur="0.248" begin="animate3.end + 0.5" id="animate4" fill="freeze"/></rect></clipPath><clipPath id="clip-mask-5"><rect x="140" y="20" width="91" height="24"><set attributeName="x" to="49" begin="0; animate18.end + 1" /><animate attributeName="x" from="49" to="140" dur="0.337" begin="animate4.end + 0.5" id="animate5" fill="freeze"/></rect></clipPath><clipPath id="clip-mask-6"><rect x="196" y="33" width="39" height="58"><set attributeName="y" to="-25" begin="0; animate18.end + 1" /><animate attributeName="y" from="-25" to="33" dur="0.215" begin="animate5.end" id="animate6" fill="freeze"/></rect></clipPath><clipPath id="clip-mask-7"><rect x="146" y="52" width="48" height="17"><set attributeName="x" to="98" begin="0; animate18.end + 1" /><animate attributeName="x" from="98" to="146" dur="0.178" begin="animate6.end + 0.5" id="animate7" fill="freeze"/></rect></clipPath><clipPath id="clip-mask-8"><rect x="151" y="76" width="46" height="15"><set attributeName="x" to="105" begin="0; animate18.end + 1" /><animate attributeName="x" from="105" to="151" dur="0.170" begin="animate7.end + 0.5" id="animate8" fill="freeze"/></rect></clipPath><clipPath id="clip-mask-9"><rect x="113" y="110" width="53" height="18"><set attributeName="x" to="60" begin="0; animate18.end + 1" /><animate attributeName="x" from="60" to="113" dur="0.196" begin="animate8.end + 0.5" id="animate9" fill="freeze"/></rect></clipPath><clipPath id="clip-mask-10"><rect x="145" y="119" width="24" height="120"><set attributeName="y" to="-1" begin="0; animate18.end + 1" /><animate attributeName="y" from="-1" to="119" dur="0.444" begin="animate9.end" id="animate10" fill="freeze"/></rect></clipPath><clipPath id="clip-mask-11"><rect x="126" y="213" width="21" height="20"><set attributeName="x" to="147" begin="0; animate18.end + 1" /><animate attributeName="x" from="147" to="126" dur="0.078" begin="animate10.end" id="animate11" fill="freeze"/></rect></clipPath><clipPath id="clip-mask-12"><rect x="115" y="142" width="24" height="21"><set attributeName="x" to="91" begin="0; animate18.end + 1" /><animate attributeName="x" from="91" to="115" dur="0.089" begin="animate11.end + 0.5" id="animate12" fill="freeze"/></rect></clipPath><clipPath id="clip-mask-13"><rect x="89" y="167" width="55" height="40"><set attributeName="x" to="34" begin="0; animate18.end + 1" /><animate attributeName="x" from="34" to="89" dur="0.204" begin="animate12.end + 0.5" id="animate13" fill="freeze"/></rect></clipPath><clipPath id="clip-mask-14"><rect x="177" y="100" width="65" height="22"><set attributeName="x" to="112" begin="0; animate18.end + 1" /><animate attributeName="x" from="112" to="177" dur="0.241" begin="animate13.end + 0.5" id="animate14" fill="freeze"/></rect></clipPath><clipPath id="clip-mask-15"><rect x="217" y="111" width="28" height="139"><set attributeName="y" to="-28" begin="0; animate18.end + 1" /><animate attributeName="y" from="-28" to="111" dur="0.515" begin="animate14.end" id="animate15" fill="freeze"/></rect></clipPath><clipPath id="clip-mask-16"><rect x="194" y="214" width="27" height="27"><set attributeName="x" to="221" begin="0; animate18.end + 1" /><animate attributeName="x" from="221" to="194" dur="0.100" begin="animate15.end" id="animate16" fill="freeze"/></rect></clipPath><clipPath id="clip-mask-17"><rect x="173" y="136" width="25" height="21"><set attributeName="x" to="148" begin="0; animate18.end + 1" /><animate attributeName="x" from="148" to="173" dur="0.093" begin="animate16.end + 0.5" id="animate17" fill="freeze"/></rect></clipPath><clipPath id="clip-mask-18"><rect x="167" y="158" width="51" height="39"><set attributeName="x" to="116" begin="0; animate18.end + 1" /><animate attributeName="x" from="116" to="167" dur="0.189" begin="animate17.end + 0.5" id="animate18" fill="freeze"/></rect></clipPath></defs><path d="M 0 0 L 270 270 M 270 0 L 0 270 M 135 0 L 135 270 M 0 135 L 270 135" stroke="#CCCCCC" /><path d="M 75 101 Q 72 102 70 103 Q 53 109 42 105 Q 35 101 44 99 Q 50 97 75 89 L 88 83 Q 94 79 102 79 Q 110 81 112 83 Q 113 85 111 87 Q 110 89 102 92 Q 95 94 87 97" fill="#CCCCCC"/><path d="M 75 121 L 75 101 L 75 89 Q 74 68 73 49 Q 73 43 66 33 Q 64 29 66 27 Q 68 25 72 25 Q 79 27 89 32 Q 94 35 93 38 Q 89 54 88 83 L 87 97 Q 86 116 85 137 L 74 143" fill="#CCCCCC"/><path d="M 85 137 Q 95 132 104 127 Q 107 125 109 126 Q 109 129 106 132 Q 102 136 97 140 Q 57 171 51 178 Q 48 182 45 181 Q 34 178 27 175 Q 24 173 24 169 Q 24 166 27 165 Q 35 164 40 161 Q 57 152 74 143" fill="#CCCCCC"/><path d="M 151 93 L 151 95 Q 150 98 145 93 Q 140 88 139 80 Q 130 43 125 39 Q 125 38 125 38 Q 122 34 124 32 Q 124 31 127 32 Q 137 33 140 34 Q 140 35 140 35 L 142 44 Q 143 50 146 62 L 147 69 Q 150 77 151 85 L 151 91" fill="#CCCCCC"/><path d="M 140 35 Q 184 24 191 24 Q 209 20 213 22 Q 226 29 231 33 L 204 33 Q 202 31 196 32 Q 158 38 142 44" fill="#CCCCCC"/><path d="M 197 78 Q 197 77 197 77 Q 200 71 205 42 Q 207 35 204 33 L 231 33 Q 235 37 230 42 Q 220 49 216 63 Q 210 82 207 86 Q 204 90 201 90 Q 197 91 196 86 Q 196 86 196 86" fill="#CCCCCC"/><path d="M 146 62 Q 176 52 184 53 Q 189 54 192 57 Q 194 60 189 61 Q 171 64 147 69" fill="#CCCCCC"/><path d="M 151 85 Q 191 76 196 77 Q 196 77 197 78 L 196 86 Q 177 88 153 91 Q 152 91 151 91" fill="#CCCCCC"/><path d="M 136 118 L 147 112 Q 150 110 154 112 Q 162 115 166 119 L 150 123 Q 148 121 145 122 Q 124 128 120 127 Q 117 126 115 124 Q 113 122 116 122" fill="#CCCCCC"/><path d="M 166 119 Q 169 122 166 126 Q 162 134 164 210 Q 164 227 156 237 Q 153 239 152 238 Q 148 237 145 233 L 147 216 Q 149 213 150 207 Q 152 178 151 130 Q 152 124 150 123" fill="#CCCCCC"/><path d="M 145 233 Q 138 226 126 215 Q 126 213 131 214 Q 136 215 141 216 Q 146 218 147 216" fill="#CCCCCC"/><path d="M 115 147 L 115 145 Q 115 142 118 143 Q 121 143 129 146 Q 134 148 137 152 Q 139 156 139 159 Q 137 163 134 163 Q 130 163 117 149" fill="#CCCCCC"/><path d="M 101 192 L 140 169 Q 142 167 144 169 Q 144 170 142 173 Q 140 176 137 179 Q 113 199 110 204 Q 108 207 106 206 Q 97 204 92 202 Q 89 201 89 198 Q 89 196 91 194" fill="#CCCCCC"/><path d="M 198 111 L 210 106 Q 220 100 226 102 Q 236 106 242 111 L 221 116 Q 219 113 215 115 Q 190 122 185 121 Q 181 120 179 117 Q 177 115 181 114" fill="#CCCCCC"/><path d="M 242 111 Q 245 114 242 119 Q 236 130 241 219 Q 242 233 230 247 Q 227 250 225 248 Q 221 247 217 241 L 221 220 Q 223 218 223 211 Q 225 178 224 124 Q 223 117 221 116" fill="#CCCCCC"/><path d="M 217 241 Q 210 231 195 217 Q 194 214 200 216 Q 207 219 215 220 Q 220 221 221 220" fill="#CCCCCC"/><path d="M 173 140 L 173 139 Q 173 136 176 136 Q 190 138 196 145 Q 198 150 198 153 Q 197 157 193 157 Q 188 157 175 143" fill="#CCCCCC"/><path d="M 174 186 L 177 184 Q 198 171 213 160 Q 216 158 217 159 Q 218 161 216 164 Q 214 166 211 169 Q 191 191 188 195 Q 186 197 184 197 Q 176 196 170 194 Q 168 193 167 190 Q 167 188 170 187" fill="#CCCCCC"/><path d="M 75 101 Q 72 102 70 103 Q 53 109 42 105 Q 35 101 44 99 Q 50 97 75 89 L 88 83 Q 94 79 102 79 Q 110 81 112 83 Q 113 85 111 87 Q 110 89 102 92 Q 95 94 87 97" fill="#0000ff" clip-path="url(#clip-mask-1)" /><path d="M 75 121 L 75 101 L 75 89 Q 74 68 73 49 Q 73 43 66 33 Q 64 29 66 27 Q 68 25 72 25 Q 79 27 89 32 Q 94 35 93 38 Q 89 54 88 83 L 87 97 Q 86 116 85 137 L 74 143" fill="#0000ff" clip-path="url(#clip-mask-2)" /><path d="M 85 137 Q 95 132 104 127 Q 107 125 109 126 Q 109 129 106 132 Q 102 136 97 140 Q 57 171 51 178 Q 48 182 45 181 Q 34 178 27 175 Q 24 173 24 169 Q 24 166 27 165 Q 35 164 40 161 Q 57 152 74 143" fill="#0000ff" clip-path="url(#clip-mask-3)" /><path d="M 151 93 L 151 95 Q 150 98 145 93 Q 140 88 139 80 Q 130 43 125 39 Q 125 38 125 38 Q 122 34 124 32 Q 124 31 127 32 Q 137 33 140 34 Q 140 35 140 35 L 142 44 Q 143 50 146 62 L 147 69 Q 150 77 151 85 L 151 91" fill="#000080" clip-path="url(#clip-mask-4)" /><path d="M 140 35 Q 184 24 191 24 Q 209 20 213 22 Q 226 29 231 33 L 204 33 Q 202 31 196 32 Q 158 38 142 44" fill="#000080" clip-path="url(#clip-mask-5)" /><path d="M 197 78 Q 197 77 197 77 Q 200 71 205 42 Q 207 35 204 33 L 231 33 Q 235 37 230 42 Q 220 49 216 63 Q 210 82 207 86 Q 204 90 201 90 Q 197 91 196 86 Q 196 86 196 86" fill="#000080" clip-path="url(#clip-mask-6)" /><path d="M 146 62 Q 176 52 184 53 Q 189 54 192 57 Q 194 60 189 61 Q 171 64 147 69" fill="#000080" clip-path="url(#clip-mask-7)" /><path d="M 151 85 Q 191 76 196 77 Q 196 77 197 78 L 196 86 Q 177 88 153 91 Q 152 91 151 91" fill="#000080" clip-path="url(#clip-mask-8)" /><path d="M 136 118 L 147 112 Q 150 110 154 112 Q 162 115 166 119 L 150 123 Q 148 121 145 122 Q 124 128 120 127 Q 117 126 115 124 Q 113 122 116 122" fill="#000080" clip-path="url(#clip-mask-9)" /><path d="M 166 119 Q 169 122 166 126 Q 162 134 164 210 Q 164 227 156 237 Q 153 239 152 238 Q 148 237 145 233 L 147 216 Q 149 213 150 207 Q 152 178 151 130 Q 152 124 150 123" fill="#000080" clip-path="url(#clip-mask-10)" /><path d="M 145 233 Q 138 226 126 215 Q 126 213 131 214 Q 136 215 141 216 Q 146 218 147 216" fill="#000080" clip-path="url(#clip-mask-11)" /><path d="M 115 147 L 115 145 Q 115 142 118 143 Q 121 143 129 146 Q 134 148 137 152 Q 139 156 139 159 Q 137 163 134 163 Q 130 163 117 149" fill="#000080" clip-path="url(#clip-mask-12)" /><path d="M 101 192 L 140 169 Q 142 167 144 169 Q 144 170 142 173 Q 140 176 137 179 Q 113 199 110 204 Q 108 207 106 206 Q 97 204 92 202 Q 89 201 89 198 Q 89 196 91 194" fill="#000080" clip-path="url(#clip-mask-13)" /><path d="M 198 111 L 210 106 Q 220 100 226 102 Q 236 106 242 111 L 221 116 Q 219 113 215 115 Q 190 122 185 121 Q 181 120 179 117 Q 177 115 181 114" fill="#000080" clip-path="url(#clip-mask-14)" /><path d="M 242 111 Q 245 114 242 119 Q 236 130 241 219 Q 242 233 230 247 Q 227 250 225 248 Q 221 247 217 241 L 221 220 Q 223 218 223 211 Q 225 178 224 124 Q 223 117 221 116" fill="#000080" clip-path="url(#clip-mask-15)" /><path d="M 217 241 Q 210 231 195 217 Q 194 214 200 216 Q 207 219 215 220 Q 220 221 221 220" fill="#000080" clip-path="url(#clip-mask-16)" /><path d="M 173 140 L 173 139 Q 173 136 176 136 Q 190 138 196 145 Q 198 150 198 153 Q 197 157 193 157 Q 188 157 175 143" fill="#000080" clip-path="url(#clip-mask-17)" /><path d="M 174 186 L 177 184 Q 198 171 213 160 Q 216 158 217 159 Q 218 161 216 164 Q 214 166 211 169 Q 191 191 188 195 Q 186 197 184 197 Q 176 196 170 194 Q 168 193 167 190 Q 167 188 170 187" fill="#000080" clip-path="url(#clip-mask-18)" /></svg>