<svg xmlns="http://www.w3.org/2000/svg" xmlns:xlink="http://www.w3.org/1999/xlink" width="270" height="270"><defs><clipPath id="clip-mask-1"><rect x="79" y="17" width="124" height="31"><animate attributeName="x" from="-45" to="79" dur="0.459" begin="0; animate20.end + 1" id="animate1" fill="freeze"/></rect></clipPath><clipPath id="clip-mask-2"><rect x="15" y="28" width="67" height="199"><set attributeName="y" to="-171" begin="0; animate20.end + 1" /><animate attributeName="y" from="-171" to="28" dur="0.737" begin="animate1.end + 0.5" id="animate2" fill="freeze"/></rect></clipPath><clipPath id="clip-mask-3"><rect x="85" y="61" width="18" height="51"><set attributeName="y" to="10" begin="0; animate20.end + 1" /><animate attributeName="y" from="10" to="61" dur="0.189" begin="animate2.end + 0.5" id="animate3" fill="freeze"/></rect></clipPath><clipPath id="clip-mask-4"><rect x="98" y="54" width="50" height="18"><set attributeName="x" to="48" begin="0; animate20.end + 1" /><animate attributeName="x" from="48" to="98" dur="0.185" begin="animate3.end + 0.5" id="animate4" fill="freeze"/></rect></clipPath><clipPath id="clip-mask-5"><rect x="124" y="63" width="26" height="48"><set attributeName="y" to="15" begin="0; animate20.end + 1" /><animate attributeName="y" from="15" to="63" dur="0.178" begin="animate4.end" id="animate5" fill="freeze"/></rect></clipPath><clipPath id="clip-mask-6"><rect x="101" y="78" width="23" height="10"><set attributeName="x" to="78" begin="0; animate20.end + 1" /><animate attributeName="x" from="78" to="101" dur="0.085" begin="animate5.end + 0.5" id="animate6" fill="freeze"/></rect></clipPath><clipPath id="clip-mask-7"><rect x="103" y="96" width="22" height="11"><set attributeName="x" to="81" begin="0; animate20.end + 1" /><animate attributeName="x" from="81" to="103" dur="0.081" begin="animate6.end + 0.5" id="animate7" fill="freeze"/></rect></clipPath><clipPath id="clip-mask-8"><rect x="74" y="122" width="20" height="67"><set attributeName="y" to="55" begin="0; animate20.end + 1" /><animate attributeName="y" from="55" to="122" dur="0.248" begin="animate7.end + 0.5" id="animate8" fill="freeze"/></rect></clipPath><clipPath id="clip-mask-9"><rect x="92" y="115" width="47" height="16"><set attributeName="x" to="45" begin="0; animate20.end + 1" /><animate attributeName="x" from="45" to="92" dur="0.174" begin="animate8.end + 0.5" id="animate9" fill="freeze"/></rect></clipPath><clipPath id="clip-mask-10"><rect x="123" y="127" width="15" height="61"><set attributeName="y" to="66" begin="0; animate20.end + 1" /><animate attributeName="y" from="66" to="127" dur="0.226" begin="animate9.end" id="animate10" fill="freeze"/></rect></clipPath><clipPath id="clip-mask-11"><rect x="111" y="171" width="13" height="15"><set attributeName="x" to="124" begin="0; animate20.end + 1" /><animate attributeName="x" from="124" to="111" dur="0.048" begin="animate10.end" id="animate11" fill="freeze"/></rect></clipPath><clipPath id="clip-mask-12"><rect x="92" y="137" width="27" height="11"><set attributeName="x" to="65" begin="0; animate20.end + 1" /><animate attributeName="x" from="65" to="92" dur="0.100" begin="animate11.end + 0.5" id="animate12" fill="freeze"/></rect></clipPath><clipPath id="clip-mask-13"><rect x="91" y="154" width="28" height="11"><set attributeName="x" to="63" begin="0; animate20.end + 1" /><animate attributeName="x" from="63" to="91" dur="0.104" begin="animate12.end + 0.5" id="animate13" fill="freeze"/></rect></clipPath><clipPath id="clip-mask-14"><rect x="141" y="93" width="77" height="23"><set attributeName="x" to="64" begin="0; animate20.end + 1" /><animate attributeName="x" from="64" to="141" dur="0.285" begin="animate13.end + 0.5" id="animate14" fill="freeze"/></rect></clipPath><clipPath id="clip-mask-15"><rect x="144" y="45" width="46" height="125"><set attributeName="y" to="-80" begin="0; animate20.end + 1" /><animate attributeName="y" from="-80" to="45" dur="0.463" begin="animate14.end + 0.5" id="animate15" fill="freeze"/></rect></clipPath><clipPath id="clip-mask-16"><rect x="178" y="120" width="76" height="56"><set attributeName="x" to="102" begin="0; animate20.end + 1" /><animate attributeName="x" from="102" to="178" dur="0.281" begin="animate15.end + 0.5" id="animate16" fill="freeze"/></rect></clipPath><clipPath id="clip-mask-17"><rect x="200" y="57" width="28" height="26"><set attributeName="x" to="172" begin="0; animate20.end + 1" /><animate attributeName="x" from="172" to="200" dur="0.104" begin="animate16.end + 0.5" id="animate17" fill="freeze"/></rect></clipPath><clipPath id="clip-mask-18"><rect x="100" y="191" width="98" height="27"><set attributeName="x" to="2" begin="0; animate20.end + 1" /><animate attributeName="x" from="2" to="100" dur="0.363" begin="animate17.end + 0.5" id="animate18" fill="freeze"/></rect></clipPath><clipPath id="clip-mask-19"><rect x="134" y="174" width="23" height="60"><set attributeName="y" to="114" begin="0; animate20.end + 1" /><animate attributeName="y" from="114" to="174" dur="0.222" begin="animate18.end + 0.5" id="animate19" fill="freeze"/></rect></clipPath><clipPath id="clip-mask-20"><rect x="56" y="222" width="187" height="30"><set attributeName="x" to="-131" begin="0; animate20.end + 1" /><animate attributeName="x" from="-131" to="56" dur="0.693" begin="animate19.end + 0.5" id="animate20" fill="freeze"/></rect></clipPath></defs><path d="M 0 0 L 270 270 M 270 0 L 0 270 M 135 0 L 135 270 M 0 135 L 270 135" stroke="#CCCCCC" /><path d="M 80 36 L 81 36 Q 110 35 135 30 Q 157 26 177 19 Q 185 17 192 18 Q 200 21 201 24 Q 203 26 200 28 Q 197 30 179 34 Q 140 40 102 46 Q 91 48 82 44 L 79 37" fill="#CCCCCC"/><path d="M 82 44 Q 79 46 78 65 Q 73 132 56 173 Q 51 184 46 193 Q 25 226 18 227 Q 15 227 16 225 Q 16 223 17 221 Q 40 186 50 155 Q 53 146 55 137 Q 60 117 64 58 Q 64 42 59 35 Q 57 31 60 29 Q 64 28 69 30 Q 76 33 79 37" fill="#CCCCCC"/><path d="M 103 108 L 102 109 Q 101 112 98 108 Q 96 106 96 105 Q 94 101 94 98 Q 92 79 86 67 Q 85 64 86 62 Q 87 61 89 62 Q 96 64 98 65 L 99 72 Q 100 76 101 82 L 102 88 Q 102 92 103 96 Q 103 99 103 101 L 103 107" fill="#CCCCCC"/><path d="M 129 65 Q 124 62 99 72 L 98 65 Q 99 64 100 64 Q 113 58 121 58 Q 132 54 136 55 Q 144 60 148 63" fill="#CCCCCC"/><path d="M 124 98 Q 128 95 131 70 Q 131 67 129 65 L 148 63 Q 150 66 148 69 Q 144 74 142 80 Q 138 102 136 106 Q 132 111 131 109 Q 128 108 125 104" fill="#CCCCCC"/><path d="M 101 82 Q 108 78 117 79 Q 121 80 123 82 Q 124 84 120 85 Q 112 86 102 88" fill="#CCCCCC"/><path d="M 103 101 Q 117 96 124 98 L 124 98 L 125 104 Q 115 105 103 107" fill="#CCCCCC"/><path d="M 94 131 Q 93 134 93 142 L 92 148 Q 91 153 91 159 L 91 165 Q 91 183 84 188 Q 82 189 81 186 Q 74 179 79 170 Q 89 143 81 125 Q 80 123 83 122 Q 89 122 92 126" fill="#CCCCCC"/><path d="M 123 127 Q 122 127 94 131 L 92 126 Q 98 123 112 120 Q 124 115 127 117 Q 135 119 138 122 Q 139 122 139 123 Q 139 124 138 130" fill="#CCCCCC"/><path d="M 134 181 Q 131 188 129 188 Q 127 188 124 186 L 124 171 Q 125 170 126 167 Q 126 152 125 132 Q 125 128 123 127 L 138 130 Q 137 131 137 174" fill="#CCCCCC"/><path d="M 124 186 Q 120 181 115 177 Q 111 175 111 174 Q 111 173 113 173 Q 122 172 124 171" fill="#CCCCCC"/><path d="M 93 142 Q 99 137 110 138 Q 115 139 117 142 Q 119 144 114 145 Q 105 146 93 148 Q 92 148 92 148" fill="#CCCCCC"/><path d="M 91 159 Q 103 154 111 155 Q 116 156 118 159 Q 119 162 115 163 Q 105 163 91 165" fill="#CCCCCC"/><path d="M 170 114 Q 157 116 147 112 Q 141 108 150 106 Q 161 105 170 103 L 182 100 Q 204 93 208 94 Q 215 96 217 98 Q 218 100 216 102 Q 216 102 181 112" fill="#CCCCCC"/><path d="M 171 160 L 153 167 Q 149 170 147 169 Q 144 170 144 169 Q 144 167 150 162 Q 166 146 170 114 L 170 103 Q 171 88 170 72 Q 169 61 164 52 Q 162 49 164 47 Q 166 45 172 47 Q 181 50 187 54 Q 190 56 188 60 Q 184 70 182 100 L 181 112 Q 180 116 179 120 L 178 127" fill="#CCCCCC"/><path d="M 179 120 Q 180 120 181 121 Q 194 133 205 143 Q 219 156 251 169 Q 254 171 254 172 Q 253 173 252 174 Q 235 176 221 176 Q 211 174 178 127" fill="#CCCCCC"/><path d="M 200 65 L 200 62 Q 200 59 201 58 Q 204 57 219 64 Q 225 67 226 71 Q 228 78 227 81 Q 226 83 224 83 Q 220 83 217 81 Q 212 74 206 69" fill="#CCCCCC"/><path d="M 138 214 Q 133 214 130 215 Q 116 218 106 211 Q 100 207 109 206 Q 124 205 137 203 L 152 200 Q 163 197 174 194 Q 181 191 189 193 Q 196 195 197 198 Q 198 200 196 202 Q 194 203 182 206 Q 166 208 151 211" fill="#CCCCCC"/><path d="M 138 223 L 138 214 L 137 203 Q 136 184 134 181 L 134 181 L 137 174 Q 138 174 140 174 Q 146 176 153 182 Q 157 185 154 189 Q 152 196 152 200 L 151 211 Q 150 221 149 233 L 139 234" fill="#CCCCCC"/><path d="M 149 233 Q 191 228 215 224 Q 225 222 239 233 Q 243 237 242 240 Q 240 242 235 242 Q 234 242 234 242 Q 142 236 79 251 Q 75 252 69 251 Q 64 249 60 245 Q 56 241 62 240 Q 103 236 139 234" fill="#CCCCCC"/><path d="M 80 36 L 81 36 Q 110 35 135 30 Q 157 26 177 19 Q 185 17 192 18 Q 200 21 201 24 Q 203 26 200 28 Q 197 30 179 34 Q 140 40 102 46 Q 91 48 82 44 L 79 37" fill="#000080" clip-path="url(#clip-mask-1)" /><path d="M 82 44 Q 79 46 78 65 Q 73 132 56 173 Q 51 184 46 193 Q 25 226 18 227 Q 15 227 16 225 Q 16 223 17 221 Q 40 186 50 155 Q 53 146 55 137 Q 60 117 64 58 Q 64 42 59 35 Q 57 31 60 29 Q 64 28 69 30 Q 76 33 79 37" fill="#000080" clip-path="url(#clip-mask-2)" /><path d="M 103 108 L 102 109 Q 101 112 98 108 Q 96 106 96 105 Q 94 101 94 98 Q 92 79 86 67 Q 85 64 86 62 Q 87 61 89 62 Q 96 64 98 65 L 99 72 Q 100 76 101 82 L 102 88 Q 102 92 103 96 Q 103 99 103 101 L 103 107" fill="#000080" clip-path="url(#clip-mask-3)" /><path d="M 129 65 Q 124 62 99 72 L 98 65 Q 99 64 100 64 Q 113 58 121 58 Q 132 54 136 55 Q 144 60 148 63" fill="#000080" clip-path="url(#clip-mask-4)" /><path d="M 124 98 Q 128 95 131 70 Q 131 67 129 65 L 148 63 Q 150 66 148 69 Q 144 74 142 80 Q 138 102 136 106 Q 132 111 131 109 Q 128 108 125 104" fill="#000080" clip-path="url(#clip-mask-5)" /><path d="M 101 82 Q 108 78 117 79 Q 121 80 123 82 Q 124 84 120 85 Q 112 86 102 88" fill="#000080" clip-path="url(#clip-mask-6)" /><path d="M 103 101 Q 117 96 124 98 L 124 98 L 125 104 Q 115 105 103 107" fill="#000080" clip-path="url(#clip-mask-7)" /><path d="M 94 131 Q 93 134 93 142 L 92 148 Q 91 153 91 159 L 91 165 Q 91 183 84 188 Q 82 189 81 186 Q 74 179 79 170 Q 89 143 81 125 Q 80 123 83 122 Q 89 122 92 126" fill="#000080" clip-path="url(#clip-mask-8)" /><path d="M 123 127 Q 122 127 94 131 L 92 126 Q 98 123 112 120 Q 124 115 127 117 Q 135 119 138 122 Q 139 122 139 123 Q 139 124 138 130" fill="#000080" clip-path="url(#clip-mask-9)" /><path d="M 134 181 Q 131 188 129 188 Q 127 188 124 186 L 124 171 Q 125 170 126 167 Q 126 152 125 132 Q 125 128 123 127 L 138 130 Q 137 131 137 174" fill="#000080" clip-path="url(#clip-mask-10)" /><path d="M 124 186 Q 120 181 115 177 Q 111 175 111 174 Q 111 173 113 173 Q 122 172 124 171" fill="#000080" clip-path="url(#clip-mask-11)" /><path d="M 93 142 Q 99 137 110 138 Q 115 139 117 142 Q 119 144 114 145 Q 105 146 93 148 Q 92 148 92 148" fill="#000080" clip-path="url(#clip-mask-12)" /><path d="M 91 159 Q 103 154 111 155 Q 116 156 118 159 Q 119 162 115 163 Q 105 163 91 165" fill="#000080" clip-path="url(#clip-mask-13)" /><path d="M 170 114 Q 157 116 147 112 Q 141 108 150 106 Q 161 105 170 103 L 182 100 Q 204 93 208 94 Q 215 96 217 98 Q 218 100 216 102 Q 216 102 181 112" fill="#000080" clip-path="url(#clip-mask-14)" /><path d="M 171 160 L 153 167 Q 149 170 147 169 Q 144 170 144 169 Q 144 167 150 162 Q 166 146 170 114 L 170 103 Q 171 88 170 72 Q 169 61 164 52 Q 162 49 164 47 Q 166 45 172 47 Q 181 50 187 54 Q 190 56 188 60 Q 184 70 182 100 L 181 112 Q 180 116 179 120 L 178 127" fill="#000080" clip-path="url(#clip-mask-15)" /><path d="M 179 120 Q 180 120 181 121 Q 194 133 205 143 Q 219 156 251 169 Q 254 171 254 172 Q 253 173 252 174 Q 235 176 221 176 Q 211 174 178 127" fill="#000080" clip-path="url(#clip-mask-16)" /><path d="M 200 65 L 200 62 Q 200 59 201 58 Q 204 57 219 64 Q 225 67 226 71 Q 228 78 227 81 Q 226 83 224 83 Q 220 83 217 81 Q 212 74 206 69" fill="#000080" clip-path="url(#clip-mask-17)" /><path d="M 138 214 Q 133 214 130 215 Q 116 218 106 211 Q 100 207 109 206 Q 124 205 137 203 L 152 200 Q 163 197 174 194 Q 181 191 189 193 Q 196 195 197 198 Q 198 200 196 202 Q 194 203 182 206 Q 166 208 151 211" fill="#0000ff" clip-path="url(#clip-mask-18)" /><path d="M 138 223 L 138 214 L 137 203 Q 136 184 134 181 L 134 181 L 137 174 Q 138 174 140 174 Q 146 176 153 182 Q 157 185 154 189 Q 152 196 152 200 L 151 211 Q 150 221 149 233 L 139 234" fill="#0000ff" clip-path="url(#clip-mask-19)" /><path d="M 149 233 Q 191 228 215 224 Q 225 222 239 233 Q 243 237 242 240 Q 240 242 235 242 Q 234 242 234 242 Q 142 236 79 251 Q 75 252 69 251 Q 64 249 60 245 Q 56 241 62 240 Q 103 236 139 234" fill="#0000ff" clip-path="url(#clip-mask-20)" /></svg>