<svg xmlns="http://www.w3.org/2000/svg" xmlns:xlink="http://www.w3.org/1999/xlink" width="270" height="270"><defs><clipPath id="clip-mask-1"><rect x="20" y="112" width="229" height="45"><animate attributeName="x" from="-209" to="20" dur="0.848" begin="0; animate3.end + 1" id="animate1" fill="freeze"/></rect></clipPath><clipPath id="clip-mask-2"><rect x="111" y="32" width="35" height="183"><set attributeName="y" to="-151" begin="0; animate3.end + 1" /><animate attributeName="y" from="-151" to="32" dur="0.678" begin="animate1.end + 0.5" id="animate2" fill="freeze"/></rect></clipPath><clipPath id="clip-mask-3"><rect x="55" y="202" width="154" height="35"><set attributeName="x" to="-99" begin="0; animate3.end + 1" /><animate attributeName="x" from="-99" to="55" dur="0.570" begin="animate2.end + 0.5" id="animate3" fill="freeze"/></rect></clipPath></defs><path d="M 0 0 L 270 270 M 270 0 L 0 270 M 135 0 L 135 270 M 0 135 L 270 135" stroke="#CCCCCC" /><path d="M 122 140 Q 75 145 50 154 Q 37 157 25 149 Q 20 145 20 142 Q 20 138 24 138 Q 44 138 70 134 Q 92 131 122 127 L 138 125 Q 203 117 213 114 Q 220 112 224 113 Q 237 119 246 127 Q 249 130 247 134 Q 246 137 239 136 Q 193 131 138 138" fill="#CCCCCC"/><path d="M 122 176 L 122 140 L 122 127 Q 122 98 122 72 Q 122 56 113 42 Q 111 38 113 36 Q 118 32 122 33 Q 131 36 142 44 Q 146 48 143 54 Q 138 71 138 125 L 138 138 Q 137 173 136 213 L 122 215" fill="#CCCCCC"/><path d="M 136 213 Q 155 209 170 206 Q 187 202 204 215 Q 209 219 207 222 Q 206 225 199 225 Q 195 225 191 225 Q 119 225 84 234 Q 69 237 60 228 Q 55 223 62 222 Q 93 218 122 215" fill="#CCCCCC"/><path d="M 122 140 Q 75 145 50 154 Q 37 157 25 149 Q 20 145 20 142 Q 20 138 24 138 Q 44 138 70 134 Q 92 131 122 127 L 138 125 Q 203 117 213 114 Q 220 112 224 113 Q 237 119 246 127 Q 249 130 247 134 Q 246 137 239 136 Q 193 131 138 138" fill="#0000ff" clip-path="url(#clip-mask-1)" /><path d="M 122 176 L 122 140 L 122 127 Q 122 98 122 72 Q 122 56 113 42 Q 111 38 113 36 Q 118 32 122 33 Q 131 36 142 44 Q 146 48 143 54 Q 138 71 138 125 L 138 138 Q 137 173 136 213 L 122 215" fill="#0000ff" clip-path="url(#clip-mask-2)" /><path d="M 136 213 Q 155 209 170 206 Q 187 202 204 215 Q 209 219 207 222 Q 206 225 199 225 Q 195 225 191 225 Q 119 225 84 234 Q 69 237 60 228 Q 55 223 62 222 Q 93 218 122 215" fill="#0000ff" clip-path="url(#clip-mask-3)" /></svg>