<svg xmlns="http://www.w3.org/2000/svg" xmlns:xlink="http://www.w3.org/1999/xlink" width="270" height="270"><defs><clipPath id="clip-mask-1"><rect x="38" y="59" width="54" height="72"><animate attributeName="y" from="-13" to="59" dur="0.267" begin="0; animate5.end + 1" id="animate1" fill="freeze"/></rect></clipPath><clipPath id="clip-mask-2"><rect x="72" y="75" width="108" height="35"><set attributeName="x" to="-36" begin="0; animate5.end + 1" /><animate attributeName="x" from="-36" to="72" dur="0.400" begin="animate1.end + 0.5" id="animate2" fill="freeze"/></rect></clipPath><clipPath id="clip-mask-3"><rect x="38" y="120" width="170" height="46"><set attributeName="x" to="-132" begin="0; animate5.end + 1" /><animate attributeName="x" from="-132" to="38" dur="0.630" begin="animate2.end + 0.5" id="animate3" fill="freeze"/></rect></clipPath><clipPath id="clip-mask-4"><rect x="25" y="23" width="115" height="223"><set attributeName="y" to="-200" begin="0; animate5.end + 1" /><animate attributeName="y" from="-200" to="23" dur="0.826" begin="animate3.end + 0.5" id="animate4" fill="freeze"/></rect></clipPath><clipPath id="clip-mask-5"><rect x="121" y="148" width="123" height="98"><set attributeName="x" to="-2" begin="0; animate5.end + 1" /><animate attributeName="x" from="-2" to="121" dur="0.456" begin="animate4.end + 0.5" id="animate5" fill="freeze"/></rect></clipPath></defs><path d="M 0 0 L 270 270 M 270 0 L 0 270 M 135 0 L 135 270 M 0 135 L 270 135" stroke="#CCCCCC" /><path d="M 72 104 Q 55 127 42 130 Q 38 131 40 127 Q 46 118 49 116 Q 71 86 66 66 Q 65 62 68 61 Q 76 59 88 69 Q 92 73 89 76 Q 78 94 77 96" fill="#CCCCCC"/><path d="M 115 103 Q 110 104 106 105 Q 84 110 72 104 L 77 96 Q 98 93 116 89 L 130 85 Q 159 75 168 76 Q 177 78 179 82 Q 180 84 178 87 Q 175 90 129 100" fill="#CCCCCC"/><path d="M 109 151 Q 84 155 62 163 Q 52 166 43 158 Q 38 154 44 153 Q 80 146 111 140 L 126 137 Q 158 129 177 124 Q 188 120 203 130 Q 208 134 207 137 Q 206 140 200 140 Q 146 143 123 148" fill="#CCCCCC"/><path d="M 103 225 L 50 240 Q 35 246 29 244 Q 26 244 25 242 Q 25 241 29 239 Q 47 230 61 220 Q 100 192 109 151 L 111 140 Q 114 127 115 103 L 116 89 Q 116 73 115 56 Q 114 42 107 31 Q 105 27 108 25 Q 110 23 118 25 Q 130 28 136 34 Q 140 37 138 41 Q 133 51 130 85 L 129 100 Q 129 104 129 108 Q 127 123 126 137 L 123 148 L 121 158" fill="#CCCCCC"/><path d="M 123 148 Q 154 183 180 206 Q 193 218 239 238 Q 244 240 244 242 Q 243 244 240 244 Q 229 246 195 246 Q 184 246 179 239 Q 146 197 121 158" fill="#CCCCCC"/><path d="M 72 104 Q 55 127 42 130 Q 38 131 40 127 Q 46 118 49 116 Q 71 86 66 66 Q 65 62 68 61 Q 76 59 88 69 Q 92 73 89 76 Q 78 94 77 96" fill="#000080" clip-path="url(#clip-mask-1)" /><path d="M 115 103 Q 110 104 106 105 Q 84 110 72 104 L 77 96 Q 98 93 116 89 L 130 85 Q 159 75 168 76 Q 177 78 179 82 Q 180 84 178 87 Q 175 90 129 100" fill="#000080" clip-path="url(#clip-mask-2)" /><path d="M 109 151 Q 84 155 62 163 Q 52 166 43 158 Q 38 154 44 153 Q 80 146 111 140 L 126 137 Q 158 129 177 124 Q 188 120 203 130 Q 208 134 207 137 Q 206 140 200 140 Q 146 143 123 148" fill="#0000ff" clip-path="url(#clip-mask-3)" /><path d="M 103 225 L 50 240 Q 35 246 29 244 Q 26 244 25 242 Q 25 241 29 239 Q 47 230 61 220 Q 100 192 109 151 L 111 140 Q 114 127 115 103 L 116 89 Q 116 73 115 56 Q 114 42 107 31 Q 105 27 108 25 Q 110 23 118 25 Q 130 28 136 34 Q 140 37 138 41 Q 133 51 130 85 L 129 100 Q 129 104 129 108 Q 127 123 126 137 L 123 148 L 121 158" fill="#0000ff" clip-path="url(#clip-mask-4)" /><path d="M 123 148 Q 154 183 180 206 Q 193 218 239 238 Q 244 240 244 242 Q 243 244 240 244 Q 229 246 195 246 Q 184 246 179 239 Q 146 197 121 158" fill="#0000ff" clip-path="url(#clip-mask-5)" /></svg>