<svg xmlns="http://www.w3.org/2000/svg" xmlns:xlink="http://www.w3.org/1999/xlink" width="270" height="270"><defs><clipPath id="clip-mask-1"><rect x="51" y="28" width="49" height="132"><animate attributeName="y" from="-104" to="28" dur="0.489" begin="0; animate9.end + 1" id="animate1" fill="freeze"/></rect></clipPath><clipPath id="clip-mask-2"><rect x="56" y="150" width="64" height="57"><set attributeName="x" to="-8" begin="0; animate9.end + 1" /><animate attributeName="x" from="-8" to="56" dur="0.237" begin="animate1.end" id="animate2" fill="freeze"/></rect></clipPath><clipPath id="clip-mask-3"><rect x="33" y="88" width="92" height="128"><set attributeName="y" to="-40" begin="0; animate9.end + 1" /><animate attributeName="y" from="-40" to="88" dur="0.474" begin="animate2.end + 0.5" id="animate3" fill="freeze"/></rect></clipPath><clipPath id="clip-mask-4"><rect x="12" y="106" width="90" height="29"><set attributeName="x" to="-78" begin="0; animate9.end + 1" /><animate attributeName="x" from="-78" to="12" dur="0.333" begin="animate3.end + 0.5" id="animate4" fill="freeze"/></rect></clipPath><clipPath id="clip-mask-5"><rect x="124" y="45" width="103" height="36"><set attributeName="x" to="21" begin="0; animate9.end + 1" /><animate attributeName="x" from="21" to="124" dur="0.381" begin="animate4.end + 0.5" id="animate5" fill="freeze"/></rect></clipPath><clipPath id="clip-mask-6"><rect x="173" y="66" width="48" height="32"><set attributeName="y" to="34" begin="0; animate9.end + 1" /><animate attributeName="y" from="34" to="66" dur="0.119" begin="animate5.end" id="animate6" fill="freeze"/></rect></clipPath><clipPath id="clip-mask-7"><rect x="158" y="92" width="45" height="149"><set attributeName="y" to="-57" begin="0; animate9.end + 1" /><animate attributeName="y" from="-57" to="92" dur="0.552" begin="animate6.end + 0.5" id="animate7" fill="freeze"/></rect></clipPath><clipPath id="clip-mask-8"><rect x="141" y="211" width="32" height="30"><set attributeName="x" to="173" begin="0; animate9.end + 1" /><animate attributeName="x" from="173" to="141" dur="0.119" begin="animate7.end" id="animate8" fill="freeze"/></rect></clipPath><clipPath id="clip-mask-9"><rect x="114" y="114" width="143" height="32"><set attributeName="x" to="-29" begin="0; animate9.end + 1" /><animate attributeName="x" from="-29" to="114" dur="0.530" begin="animate8.end + 0.5" id="animate9" fill="freeze"/></rect></clipPath></defs><path d="M 0 0 L 270 270 M 270 0 L 0 270 M 135 0 L 135 270 M 0 135 L 270 135" stroke="#CCCCCC" /><path d="M 56 160 Q 51 155 54 150 Q 58 142 64 123 L 66 112 Q 81 48 73 36 Q 70 32 73 30 Q 78 28 83 31 Q 95 38 99 43 Q 100 46 97 52 Q 92 59 89 71 Q 84 91 78 110 L 75 120 Q 70 135 65 150" fill="#CCCCCC"/><path d="M 68 167 L 56 160 L 65 150 Q 65 155 70 158 Q 78 163 85 167 L 96 173 Q 117 184 119 194 Q 120 202 118 204 Q 116 207 114 207 Q 113 207 89 184 L 79 176" fill="#CCCCCC"/><path d="M 85 167 Q 99 141 101 120 Q 102 116 102 113 L 102 106 Q 102 100 100 95 Q 99 91 102 90 Q 110 88 121 98 Q 125 101 122 105 Q 116 115 115 126 Q 104 159 96 173 L 89 184 Q 88 185 88 185 Q 57 216 36 214 Q 33 213 36 211 Q 68 191 79 176" fill="#CCCCCC"/><path d="M 64 123 Q 46 126 32 133 Q 29 135 27 134 Q 19 128 15 123 Q 12 121 14 118 Q 14 116 18 116 Q 26 117 32 116 Q 50 113 66 112 L 78 110 Q 91 108 102 106 L 102 113 Q 88 117 75 120" fill="#CCCCCC"/><path d="M 195 66 Q 196 62 193 61 Q 187 57 154 74 Q 143 81 135 76 Q 129 73 127 69 Q 124 64 131 64 Q 146 64 153 62 Q 177 54 193 47 Q 200 45 205 48 Q 224 58 225 63 Q 227 68 221 69" fill="#CCCCCC"/><path d="M 173 95 Q 185 79 195 66 L 221 69 Q 210 72 177 98" fill="#CCCCCC"/><path d="M 203 212 L 180 234 Q 173 241 169 241 L 173 211 Q 185 183 177 137 L 175 127 Q 174 123 173 119 Q 171 106 162 99 Q 158 95 162 93 Q 165 92 170 94 Q 171 95 173 95 L 177 98 Q 186 104 190 125 L 192 136" fill="#CCCCCC"/><path d="M 169 241 Q 165 241 162 237 Q 159 230 148 221 Q 144 218 143 216 Q 141 213 144 213 Q 151 215 159 216 Q 169 218 173 211" fill="#CCCCCC"/><path d="M 177 137 Q 177 137 177 137 Q 155 140 135 145 Q 131 146 126 145 Q 121 144 118 140 Q 114 136 119 136 Q 149 131 175 127 L 190 125 Q 210 122 223 119 Q 237 114 252 125 Q 257 129 255 131 Q 254 134 249 134 Q 213 133 192 136" fill="#CCCCCC"/><path d="M 56 160 Q 51 155 54 150 Q 58 142 64 123 L 66 112 Q 81 48 73 36 Q 70 32 73 30 Q 78 28 83 31 Q 95 38 99 43 Q 100 46 97 52 Q 92 59 89 71 Q 84 91 78 110 L 75 120 Q 70 135 65 150" fill="#0000ff" clip-path="url(#clip-mask-1)" /><path d="M 68 167 L 56 160 L 65 150 Q 65 155 70 158 Q 78 163 85 167 L 96 173 Q 117 184 119 194 Q 120 202 118 204 Q 116 207 114 207 Q 113 207 89 184 L 79 176" fill="#0000ff" clip-path="url(#clip-mask-2)" /><path d="M 85 167 Q 99 141 101 120 Q 102 116 102 113 L 102 106 Q 102 100 100 95 Q 99 91 102 90 Q 110 88 121 98 Q 125 101 122 105 Q 116 115 115 126 Q 104 159 96 173 L 89 184 Q 88 185 88 185 Q 57 216 36 214 Q 33 213 36 211 Q 68 191 79 176" fill="#0000ff" clip-path="url(#clip-mask-3)" /><path d="M 64 123 Q 46 126 32 133 Q 29 135 27 134 Q 19 128 15 123 Q 12 121 14 118 Q 14 116 18 116 Q 26 117 32 116 Q 50 113 66 112 L 78 110 Q 91 108 102 106 L 102 113 Q 88 117 75 120" fill="#0000ff" clip-path="url(#clip-mask-4)" /><path d="M 195 66 Q 196 62 193 61 Q 187 57 154 74 Q 143 81 135 76 Q 129 73 127 69 Q 124 64 131 64 Q 146 64 153 62 Q 177 54 193 47 Q 200 45 205 48 Q 224 58 225 63 Q 227 68 221 69" fill="#000080" clip-path="url(#clip-mask-5)" /><path d="M 173 95 Q 185 79 195 66 L 221 69 Q 210 72 177 98" fill="#000080" clip-path="url(#clip-mask-6)" /><path d="M 203 212 L 180 234 Q 173 241 169 241 L 173 211 Q 185 183 177 137 L 175 127 Q 174 123 173 119 Q 171 106 162 99 Q 158 95 162 93 Q 165 92 170 94 Q 171 95 173 95 L 177 98 Q 186 104 190 125 L 192 136" fill="#000080" clip-path="url(#clip-mask-7)" /><path d="M 169 241 Q 165 241 162 237 Q 159 230 148 221 Q 144 218 143 216 Q 141 213 144 213 Q 151 215 159 216 Q 169 218 173 211" fill="#000080" clip-path="url(#clip-mask-8)" /><path d="M 177 137 Q 177 137 177 137 Q 155 140 135 145 Q 131 146 126 145 Q 121 144 118 140 Q 114 136 119 136 Q 149 131 175 127 L 190 125 Q 210 122 223 119 Q 237 114 252 125 Q 257 129 255 131 Q 254 134 249 134 Q 213 133 192 136" fill="#000080" clip-path="url(#clip-mask-9)" /></svg>