<svg xmlns="http://www.w3.org/2000/svg" xmlns:xlink="http://www.w3.org/1999/xlink" width="270" height="270"><defs><clipPath id="clip-mask-1"><rect x="66" y="36" width="53" height="146"><animate attributeName="y" from="-110" to="36" dur="0.541" begin="0; animate8.end + 1" id="animate1" fill="freeze"/></rect></clipPath><clipPath id="clip-mask-2"><rect x="72" y="170" width="74" height="59"><set attributeName="x" to="-2" begin="0; animate8.end + 1" /><animate attributeName="x" from="-2" to="72" dur="0.274" begin="animate1.end" id="animate2" fill="freeze"/></rect></clipPath><clipPath id="clip-mask-3"><rect x="49" y="105" width="98" height="128"><set attributeName="y" to="-23" begin="0; animate8.end + 1" /><animate attributeName="y" from="-23" to="105" dur="0.474" begin="animate2.end + 0.5" id="animate3" fill="freeze"/></rect></clipPath><clipPath id="clip-mask-4"><rect x="19" y="119" width="104" height="36"><set attributeName="x" to="-85" begin="0; animate8.end + 1" /><animate attributeName="x" from="-85" to="19" dur="0.385" begin="animate3.end + 0.5" id="animate4" fill="freeze"/></rect></clipPath><clipPath id="clip-mask-5"><rect x="146" y="125" width="29" height="85"><set attributeName="y" to="40" begin="0; animate8.end + 1" /><animate attributeName="y" from="40" to="125" dur="0.315" begin="animate4.end + 0.5" id="animate5" fill="freeze"/></rect></clipPath><clipPath id="clip-mask-6"><rect x="164" y="113" width="81" height="26"><set attributeName="x" to="83" begin="0; animate8.end + 1" /><animate attributeName="x" from="83" to="164" dur="0.300" begin="animate5.end + 0.5" id="animate6" fill="freeze"/></rect></clipPath><clipPath id="clip-mask-7"><rect x="211" y="127" width="39" height="53"><set attributeName="y" to="74" begin="0; animate8.end + 1" /><animate attributeName="y" from="74" to="127" dur="0.196" begin="animate6.end" id="animate7" fill="freeze"/></rect></clipPath><clipPath id="clip-mask-8"><rect x="175" y="178" width="58" height="19"><set attributeName="x" to="117" begin="0; animate8.end + 1" /><animate attributeName="x" from="117" to="175" dur="0.215" begin="animate7.end + 0.5" id="animate8" fill="freeze"/></rect></clipPath></defs><path d="M 0 0 L 270 270 M 270 0 L 0 270 M 135 0 L 135 270 M 0 135 L 270 135" stroke="#CCCCCC" /><path d="M 72 182 Q 66 177 68 170 Q 73 161 79 139 L 82 127 Q 97 59 88 45 Q 85 41 89 39 Q 94 36 100 40 Q 113 48 117 54 Q 119 57 116 64 Q 110 71 107 85 Q 102 105 96 124 L 93 135 Q 88 153 81 170" fill="#CCCCCC"/><path d="M 116 191 Q 129 197 135 201 Q 142 205 144 213 Q 146 222 144 225 Q 143 228 140 229 Q 137 228 132 224 Q 118 211 107 204 L 96 196 Q 85 188 72 182 L 81 170 Q 81 176 87 178 Q 96 182 104 186" fill="#CCCCCC"/><path d="M 122 116 L 121 112 Q 119 108 123 107 Q 131 105 142 116 Q 147 119 144 124 Q 139 131 137 140 Q 124 178 119 187 Q 117 189 116 191 L 107 204 Q 101 210 92 217 Q 80 225 66 230 Q 56 233 52 233 Q 49 231 53 230 Q 57 227 62 224 Q 68 221 76 216 Q 80 212 96 196 L 104 186 Q 121 156 123 127 L 123 119" fill="#CCCCCC"/><path d="M 79 139 Q 55 145 41 153 Q 38 155 35 154 Q 27 148 21 143 Q 19 140 20 137 Q 21 134 25 134 Q 35 135 42 134 Q 63 130 82 127 L 96 124 Q 110 122 123 119 L 123 127 Q 120 127 119 128 Q 106 131 93 135" fill="#CCCCCC"/><path d="M 175 202 L 174 205 Q 172 210 167 203 Q 162 197 161 186 Q 157 153 149 133 Q 146 129 148 127 Q 150 125 153 126 Q 160 127 164 129 L 168 139 Q 170 164 175 187 L 175 197" fill="#CCCCCC"/><path d="M 216 131 Q 214 129 210 130 Q 171 138 168 139 L 164 129 Q 193 124 213 116 Q 219 113 225 116 Q 240 123 245 127" fill="#CCCCCC"/><path d="M 211 178 Q 215 162 219 142 Q 219 134 216 131 L 245 127 Q 250 132 245 138 Q 233 148 226 180" fill="#CCCCCC"/><path d="M 175 187 Q 191 184 210 179 Q 210 178 211 178 L 226 180 Q 233 185 233 187 Q 233 190 230 190 Q 196 193 180 197 Q 177 197 175 197" fill="#CCCCCC"/><path d="M 72 182 Q 66 177 68 170 Q 73 161 79 139 L 82 127 Q 97 59 88 45 Q 85 41 89 39 Q 94 36 100 40 Q 113 48 117 54 Q 119 57 116 64 Q 110 71 107 85 Q 102 105 96 124 L 93 135 Q 88 153 81 170" fill="#0000ff" clip-path="url(#clip-mask-1)" /><path d="M 116 191 Q 129 197 135 201 Q 142 205 144 213 Q 146 222 144 225 Q 143 228 140 229 Q 137 228 132 224 Q 118 211 107 204 L 96 196 Q 85 188 72 182 L 81 170 Q 81 176 87 178 Q 96 182 104 186" fill="#0000ff" clip-path="url(#clip-mask-2)" /><path d="M 122 116 L 121 112 Q 119 108 123 107 Q 131 105 142 116 Q 147 119 144 124 Q 139 131 137 140 Q 124 178 119 187 Q 117 189 116 191 L 107 204 Q 101 210 92 217 Q 80 225 66 230 Q 56 233 52 233 Q 49 231 53 230 Q 57 227 62 224 Q 68 221 76 216 Q 80 212 96 196 L 104 186 Q 121 156 123 127 L 123 119" fill="#0000ff" clip-path="url(#clip-mask-3)" /><path d="M 79 139 Q 55 145 41 153 Q 38 155 35 154 Q 27 148 21 143 Q 19 140 20 137 Q 21 134 25 134 Q 35 135 42 134 Q 63 130 82 127 L 96 124 Q 110 122 123 119 L 123 127 Q 120 127 119 128 Q 106 131 93 135" fill="#0000ff" clip-path="url(#clip-mask-4)" /><path d="M 175 202 L 174 205 Q 172 210 167 203 Q 162 197 161 186 Q 157 153 149 133 Q 146 129 148 127 Q 150 125 153 126 Q 160 127 164 129 L 168 139 Q 170 164 175 187 L 175 197" fill="#000080" clip-path="url(#clip-mask-5)" /><path d="M 216 131 Q 214 129 210 130 Q 171 138 168 139 L 164 129 Q 193 124 213 116 Q 219 113 225 116 Q 240 123 245 127" fill="#000080" clip-path="url(#clip-mask-6)" /><path d="M 211 178 Q 215 162 219 142 Q 219 134 216 131 L 245 127 Q 250 132 245 138 Q 233 148 226 180" fill="#000080" clip-path="url(#clip-mask-7)" /><path d="M 175 187 Q 191 184 210 179 Q 210 178 211 178 L 226 180 Q 233 185 233 187 Q 233 190 230 190 Q 196 193 180 197 Q 177 197 175 197" fill="#000080" clip-path="url(#clip-mask-8)" /></svg>