<svg xmlns="http://www.w3.org/2000/svg" xmlns:xlink="http://www.w3.org/1999/xlink" width="270" height="270"><defs><clipPath id="clip-mask-1"><rect x="65" y="47" width="32" height="26"><animate attributeName="x" from="33" to="65" dur="0.119" begin="0; animate11.end + 1" id="animate1" fill="freeze"/></rect></clipPath><clipPath id="clip-mask-2"><rect x="59" y="78" width="46" height="68"><set attributeName="y" to="146" begin="0; animate11.end + 1" /><animate attributeName="y" from="146" to="78" dur="0.252" begin="animate1.end + 0.5" id="animate2" fill="freeze"/></rect></clipPath><clipPath id="clip-mask-3"><rect x="110" y="13" width="48" height="71"><set attributeName="y" to="-58" begin="0; animate11.end + 1" /><animate attributeName="y" from="-58" to="13" dur="0.263" begin="animate2.end + 0.5" id="animate3" fill="freeze"/></rect></clipPath><clipPath id="clip-mask-4"><rect x="137" y="42" width="82" height="26"><set attributeName="x" to="55" begin="0; animate11.end + 1" /><animate attributeName="x" from="55" to="137" dur="0.304" begin="animate3.end + 0.5" id="animate4" fill="freeze"/></rect></clipPath><clipPath id="clip-mask-5"><rect x="173" y="60" width="45" height="25"><set attributeName="y" to="35" begin="0; animate11.end + 1" /><animate attributeName="y" from="35" to="60" dur="0.093" begin="animate4.end" id="animate5" fill="freeze"/></rect></clipPath><clipPath id="clip-mask-6"><rect x="93" y="73" width="61" height="66"><set attributeName="y" to="7" begin="0; animate11.end + 1" /><animate attributeName="y" from="7" to="73" dur="0.244" begin="animate5.end + 0.5" id="animate6" fill="freeze"/></rect></clipPath><clipPath id="clip-mask-7"><rect x="144" y="99" width="81" height="42"><set attributeName="x" to="63" begin="0; animate11.end + 1" /><animate attributeName="x" from="63" to="144" dur="0.300" begin="animate6.end + 0.5" id="animate7" fill="freeze"/></rect></clipPath><clipPath id="clip-mask-8"><rect x="91" y="136" width="36" height="62"><set attributeName="y" to="74" begin="0; animate11.end + 1" /><animate attributeName="y" from="74" to="136" dur="0.230" begin="animate7.end + 0.5" id="animate8" fill="freeze"/></rect></clipPath><clipPath id="clip-mask-9"><rect x="98" y="185" width="112" height="71"><set attributeName="x" to="-14" begin="0; animate11.end + 1" /><animate attributeName="x" from="-14" to="98" dur="0.415" begin="animate8.end" id="animate9" fill="freeze"/></rect></clipPath><clipPath id="clip-mask-10"><rect x="56" y="152" width="109" height="97"><set attributeName="y" to="55" begin="0; animate11.end + 1" /><animate attributeName="y" from="55" to="152" dur="0.359" begin="animate9.end + 0.5" id="animate10" fill="freeze"/></rect></clipPath><clipPath id="clip-mask-11"><rect x="14" y="149" width="241" height="38"><set attributeName="x" to="-227" begin="0; animate11.end + 1" /><animate attributeName="x" from="-227" to="14" dur="0.893" begin="animate10.end + 0.5" id="animate11" fill="freeze"/></rect></clipPath></defs><path d="M 0 0 L 270 270 M 270 0 L 0 270 M 135 0 L 135 270 M 0 135 L 270 135" stroke="#CCCCCC" /><path d="M 66 54 L 66 51 Q 65 48 67 48 Q 68 47 70 47 Q 81 47 89 52 Q 94 55 96 61 Q 97 66 95 69 Q 93 73 89 72 Q 81 69 71 58" fill="#CCCCCC"/><path d="M 68 116 L 71 112 Q 102 79 103 79 Q 105 78 105 80 Q 105 81 103 84 Q 74 133 72 141 Q 70 146 69 146 Q 66 146 65 145 Q 59 139 59 123 Q 59 119 62 119" fill="#CCCCCC"/><path d="M 122 80 L 114 82 Q 110 84 112 80 Q 119 68 120 68 Q 139 40 134 19 Q 133 16 136 15 Q 141 13 154 21 Q 158 24 156 27 Q 151 36 146 46 Q 143 52 140 58 L 137 63 Q 136 62 136 62" fill="#CCCCCC"/><path d="M 140 58 Q 171 51 190 43 Q 194 42 201 46 Q 206 50 212 53 Q 219 57 218 61 L 188 60 Q 189 58 186 56 Q 184 56 176 57 Q 161 61 148 66 Q 142 68 137 63" fill="#CCCCCC"/><path d="M 218 61 Q 218 63 215 63 Q 204 67 178 83 Q 174 85 174 84 Q 173 82 175 80 Q 188 62 188 60" fill="#CCCCCC"/><path d="M 106 138 Q 98 139 96 139 Q 93 138 96 137 Q 97 136 99 135 Q 120 125 129 108 Q 136 89 134 77 Q 133 74 136 73 Q 142 73 151 82 Q 154 85 151 88 Q 147 94 146 99 L 144 104 Q 140 113 136 119 Q 135 119 135 120 Q 122 132 114 136" fill="#CCCCCC"/><path d="M 146 99 Q 146 99 147 99 Q 181 122 222 132 Q 225 133 225 134 Q 225 135 221 136 Q 205 140 190 140 Q 181 141 177 136 Q 160 121 144 104 L 144 104" fill="#CCCCCC"/><path d="M 98 198 Q 93 197 92 195 Q 91 191 94 186 Q 97 181 100 175 L 103 166 Q 109 147 106 140 Q 106 139 106 138 L 114 136 Q 125 143 126 147 Q 127 150 125 152 Q 123 154 118 164 L 113 174 Q 111 179 108 185" fill="#CCCCCC"/><path d="M 148 205 Q 197 223 201 232 Q 210 244 210 250 Q 210 256 204 256 Q 199 256 192 251 Q 160 227 140 215 L 128 210 Q 112 202 98 198 L 108 185 Q 104 191 110 192 Q 121 195 135 200" fill="#CCCCCC"/><path d="M 163 174 L 160 182 Q 155 194 148 205 L 140 215 Q 133 225 123 232 Q 94 249 61 242 Q 56 241 61 240 Q 108 230 128 210 L 135 200 Q 147 183 148 171 L 149 161 Q 148 159 147 158 Q 146 154 150 153 Q 158 152 165 159 L 165 170" fill="#CCCCCC"/><path d="M 148 171 Q 130 172 115 173 Q 114 173 113 174 L 100 175 Q 68 178 39 185 Q 28 187 19 179 Q 14 173 21 173 Q 64 169 103 166 L 118 164 Q 132 162 149 161 L 165 159 Q 200 155 224 151 Q 235 149 250 161 Q 255 165 253 169 Q 251 171 245 171 Q 198 169 165 170" fill="#CCCCCC"/><path d="M 66 54 L 66 51 Q 65 48 67 48 Q 68 47 70 47 Q 81 47 89 52 Q 94 55 96 61 Q 97 66 95 69 Q 93 73 89 72 Q 81 69 71 58" fill="#000080" clip-path="url(#clip-mask-1)" /><path d="M 68 116 L 71 112 Q 102 79 103 79 Q 105 78 105 80 Q 105 81 103 84 Q 74 133 72 141 Q 70 146 69 146 Q 66 146 65 145 Q 59 139 59 123 Q 59 119 62 119" fill="#000080" clip-path="url(#clip-mask-2)" /><path d="M 122 80 L 114 82 Q 110 84 112 80 Q 119 68 120 68 Q 139 40 134 19 Q 133 16 136 15 Q 141 13 154 21 Q 158 24 156 27 Q 151 36 146 46 Q 143 52 140 58 L 137 63 Q 136 62 136 62" fill="#000080" clip-path="url(#clip-mask-3)" /><path d="M 140 58 Q 171 51 190 43 Q 194 42 201 46 Q 206 50 212 53 Q 219 57 218 61 L 188 60 Q 189 58 186 56 Q 184 56 176 57 Q 161 61 148 66 Q 142 68 137 63" fill="#000080" clip-path="url(#clip-mask-4)" /><path d="M 218 61 Q 218 63 215 63 Q 204 67 178 83 Q 174 85 174 84 Q 173 82 175 80 Q 188 62 188 60" fill="#000080" clip-path="url(#clip-mask-5)" /><path d="M 106 138 Q 98 139 96 139 Q 93 138 96 137 Q 97 136 99 135 Q 120 125 129 108 Q 136 89 134 77 Q 133 74 136 73 Q 142 73 151 82 Q 154 85 151 88 Q 147 94 146 99 L 144 104 Q 140 113 136 119 Q 135 119 135 120 Q 122 132 114 136" fill="#000080" clip-path="url(#clip-mask-6)" /><path d="M 146 99 Q 146 99 147 99 Q 181 122 222 132 Q 225 133 225 134 Q 225 135 221 136 Q 205 140 190 140 Q 181 141 177 136 Q 160 121 144 104 L 144 104" fill="#000080" clip-path="url(#clip-mask-7)" /><path d="M 98 198 Q 93 197 92 195 Q 91 191 94 186 Q 97 181 100 175 L 103 166 Q 109 147 106 140 Q 106 139 106 138 L 114 136 Q 125 143 126 147 Q 127 150 125 152 Q 123 154 118 164 L 113 174 Q 111 179 108 185" fill="#0000ff" clip-path="url(#clip-mask-8)" /><path d="M 148 205 Q 197 223 201 232 Q 210 244 210 250 Q 210 256 204 256 Q 199 256 192 251 Q 160 227 140 215 L 128 210 Q 112 202 98 198 L 108 185 Q 104 191 110 192 Q 121 195 135 200" fill="#0000ff" clip-path="url(#clip-mask-9)" /><path d="M 163 174 L 160 182 Q 155 194 148 205 L 140 215 Q 133 225 123 232 Q 94 249 61 242 Q 56 241 61 240 Q 108 230 128 210 L 135 200 Q 147 183 148 171 L 149 161 Q 148 159 147 158 Q 146 154 150 153 Q 158 152 165 159 L 165 170" fill="#0000ff" clip-path="url(#clip-mask-10)" /><path d="M 148 171 Q 130 172 115 173 Q 114 173 113 174 L 100 175 Q 68 178 39 185 Q 28 187 19 179 Q 14 173 21 173 Q 64 169 103 166 L 118 164 Q 132 162 149 161 L 165 159 Q 200 155 224 151 Q 235 149 250 161 Q 255 165 253 169 Q 251 171 245 171 Q 198 169 165 170" fill="#0000ff" clip-path="url(#clip-mask-11)" /></svg>