<svg xmlns="http://www.w3.org/2000/svg" xmlns:xlink="http://www.w3.org/1999/xlink" width="270" height="270"><defs><clipPath id="clip-mask-1"><rect x="51" y="22" width="41" height="140"><animate attributeName="y" from="-118" to="22" dur="0.519" begin="0; animate16.end + 1" id="animate1" fill="freeze"/></rect></clipPath><clipPath id="clip-mask-2"><rect x="57" y="152" width="49" height="42"><set attributeName="x" to="8" begin="0; animate16.end + 1" /><animate attributeName="x" from="8" to="57" dur="0.181" begin="animate1.end" id="animate2" fill="freeze"/></rect></clipPath><clipPath id="clip-mask-3"><rect x="29" y="93" width="86" height="124"><set attributeName="y" to="-31" begin="0; animate16.end + 1" /><animate attributeName="y" from="-31" to="93" dur="0.459" begin="animate2.end + 0.5" id="animate3" fill="freeze"/></rect></clipPath><clipPath id="clip-mask-4"><rect x="15" y="106" width="79" height="33"><set attributeName="x" to="-64" begin="0; animate16.end + 1" /><animate attributeName="x" from="-64" to="15" dur="0.293" begin="animate3.end + 0.5" id="animate4" fill="freeze"/></rect></clipPath><clipPath id="clip-mask-5"><rect x="144" y="29" width="76" height="25"><set attributeName="x" to="68" begin="0; animate16.end + 1" /><animate attributeName="x" from="68" to="144" dur="0.281" begin="animate4.end + 0.5" id="animate5" fill="freeze"/></rect></clipPath><clipPath id="clip-mask-6"><rect x="124" y="37" width="23" height="114"><set attributeName="y" to="-77" begin="0; animate16.end + 1" /><animate attributeName="y" from="-77" to="37" dur="0.422" begin="animate5.end + 0.5" id="animate6" fill="freeze"/></rect></clipPath><clipPath id="clip-mask-7"><rect x="152" y="64" width="62" height="21"><set attributeName="x" to="90" begin="0; animate16.end + 1" /><animate attributeName="x" from="90" to="152" dur="0.230" begin="animate6.end + 0.5" id="animate7" fill="freeze"/></rect></clipPath><clipPath id="clip-mask-8"><rect x="152" y="93" width="63" height="20"><set attributeName="x" to="89" begin="0; animate16.end + 1" /><animate attributeName="x" from="89" to="152" dur="0.233" begin="animate7.end + 0.5" id="animate8" fill="freeze"/></rect></clipPath><clipPath id="clip-mask-9"><rect x="172" y="48" width="17" height="83"><set attributeName="y" to="-35" begin="0; animate16.end + 1" /><animate attributeName="y" from="-35" to="48" dur="0.307" begin="animate8.end + 0.5" id="animate9" fill="freeze"/></rect></clipPath><clipPath id="clip-mask-10"><rect x="137" y="122" width="117" height="29"><set attributeName="x" to="20" begin="0; animate16.end + 1" /><animate attributeName="x" from="20" to="137" dur="0.433" begin="animate9.end + 0.5" id="animate10" fill="freeze"/></rect></clipPath><clipPath id="clip-mask-11"><rect x="210" y="136" width="44" height="111"><set attributeName="y" to="25" begin="0; animate16.end + 1" /><animate attributeName="y" from="25" to="136" dur="0.411" begin="animate10.end" id="animate11" fill="freeze"/></rect></clipPath><clipPath id="clip-mask-12"><rect x="187" y="212" width="28" height="34"><set attributeName="x" to="215" begin="0; animate16.end + 1" /><animate attributeName="x" from="215" to="187" dur="0.104" begin="animate11.end" id="animate12" fill="freeze"/></rect></clipPath><clipPath id="clip-mask-13"><rect x="106" y="164" width="24" height="56"><set attributeName="y" to="108" begin="0; animate16.end + 1" /><animate attributeName="y" from="108" to="164" dur="0.207" begin="animate12.end + 0.5" id="animate13" fill="freeze"/></rect></clipPath><clipPath id="clip-mask-14"><rect x="142" y="166" width="19" height="31"><set attributeName="x" to="123" begin="0; animate16.end + 1" /><animate attributeName="x" from="123" to="142" dur="0.070" begin="animate13.end + 0.5" id="animate14" fill="freeze"/></rect></clipPath><clipPath id="clip-mask-15"><rect x="165" y="161" width="21" height="29"><set attributeName="x" to="144" begin="0; animate16.end + 1" /><animate attributeName="x" from="144" to="165" dur="0.078" begin="animate14.end + 0.5" id="animate15" fill="freeze"/></rect></clipPath><clipPath id="clip-mask-16"><rect x="189" y="153" width="23" height="28"><set attributeName="x" to="166" begin="0; animate16.end + 1" /><animate attributeName="x" from="166" to="189" dur="0.085" begin="animate15.end + 0.5" id="animate16" fill="freeze"/></rect></clipPath></defs><path d="M 0 0 L 270 270 M 270 0 L 0 270 M 135 0 L 135 270 M 0 135 L 270 135" stroke="#CCCCCC" /><path d="M 57 162 Q 51 158 53 152 Q 56 147 61 125 L 63 114 Q 74 44 64 31 Q 61 27 65 25 Q 69 22 74 25 Q 87 32 91 36 Q 92 39 90 45 Q 85 52 84 64 Q 79 88 75 111 L 72 121 Q 69 137 64 152" fill="#CCCCCC"/><path d="M 68 168 L 57 162 L 64 152 Q 64 157 70 159 Q 77 162 83 164 L 93 168 Q 102 172 104 180 Q 106 188 105 191 Q 103 194 101 194 Q 99 194 85 182 L 76 175" fill="#CCCCCC"/><path d="M 83 164 Q 92 139 93 124 Q 94 118 94 114 L 94 106 Q 93 103 92 100 Q 90 96 94 95 Q 100 93 111 102 Q 115 105 112 109 Q 109 116 107 124 Q 99 157 93 168 L 85 182 Q 83 186 81 189 Q 55 217 32 217 Q 29 216 33 215 Q 33 214 34 214 Q 63 194 76 175" fill="#CCCCCC"/><path d="M 61 125 Q 47 130 36 137 Q 33 139 30 138 Q 22 133 17 129 Q 15 127 16 123 Q 16 121 19 121 Q 28 121 33 120 Q 48 117 63 114 L 75 111 Q 84 108 94 106 L 94 114 Q 83 117 72 121" fill="#CCCCCC"/><path d="M 144 45 L 145 45 Q 155 44 180 38 Q 204 29 211 30 Q 218 32 219 34 Q 220 36 219 38 Q 217 40 207 42 Q 195 45 184 48 L 172 51 Q 157 54 147 53 L 144 46" fill="#CCCCCC"/><path d="M 137 151 Q 135 150 131 147 Q 128 145 128 143 Q 127 141 130 133 Q 136 59 126 44 Q 124 42 124 40 Q 125 37 128 37 Q 133 37 141 43 Q 143 44 144 46 L 147 53 Q 145 55 144 68 Q 140 112 144 131" fill="#CCCCCC"/><path d="M 188 67 Q 196 64 202 64 Q 209 65 212 69 Q 214 72 208 73 Q 199 75 187 78 L 175 81 Q 170 82 165 84 Q 160 85 157 83 Q 152 80 156 79 Q 165 75 175 72" fill="#CCCCCC"/><path d="M 187 96 Q 197 93 203 93 Q 210 94 213 98 Q 215 101 209 102 Q 198 104 186 107 L 175 110 Q 159 113 157 112 Q 152 108 156 107 Q 165 104 175 100" fill="#CCCCCC"/><path d="M 184 48 Q 186 50 188 52 Q 189 53 188 66 Q 188 66 188 67 L 187 78 Q 187 87 187 96 L 186 107 Q 186 118 186 129 L 175 131 Q 175 119 175 110 L 175 100 Q 175 89 175 81 L 175 72 Q 174 56 172 51" fill="#CCCCCC"/><path d="M 186 129 Q 192 127 230 123 Q 236 122 246 128 Q 254 134 254 136 L 227 136 Q 223 134 220 134 Q 166 137 137 151 L 144 131 Q 144 137 153 136 Q 161 133 175 131" fill="#CCCCCC"/><path d="M 254 136 Q 254 138 252 140 Q 246 145 233 221 Q 231 231 223 239 Q 214 247 210 246 L 215 215 Q 220 207 225 184 Q 230 147 230 143 Q 230 138 227 136" fill="#CCCCCC"/><path d="M 210 246 Q 207 246 206 243 Q 205 237 190 217 Q 187 214 187 213 Q 189 212 193 214 Q 200 216 207 219 Q 213 220 215 215" fill="#CCCCCC"/><path d="M 123 165 L 125 164 Q 127 165 128 167 Q 130 172 130 180 Q 130 191 125 204 Q 123 211 118 216 Q 113 220 111 215 Q 106 208 110 200 Q 118 184 123 167" fill="#CCCCCC"/><path d="M 142 169 L 143 168 Q 144 166 146 167 Q 159 176 161 186 Q 161 191 160 194 Q 157 197 154 195 Q 149 192 142 172" fill="#CCCCCC"/><path d="M 165 165 L 166 163 Q 167 161 168 162 Q 172 164 179 170 Q 184 174 185 179 Q 186 184 185 186 Q 183 190 180 189 Q 175 187 166 167" fill="#CCCCCC"/><path d="M 189 159 L 189 156 Q 190 154 191 153 Q 192 153 207 161 Q 212 166 212 170 Q 212 176 211 179 Q 209 181 207 180 Q 204 180 202 177 Q 198 170 193 164" fill="#CCCCCC"/><path d="M 57 162 Q 51 158 53 152 Q 56 147 61 125 L 63 114 Q 74 44 64 31 Q 61 27 65 25 Q 69 22 74 25 Q 87 32 91 36 Q 92 39 90 45 Q 85 52 84 64 Q 79 88 75 111 L 72 121 Q 69 137 64 152" fill="#0000ff" clip-path="url(#clip-mask-1)" /><path d="M 68 168 L 57 162 L 64 152 Q 64 157 70 159 Q 77 162 83 164 L 93 168 Q 102 172 104 180 Q 106 188 105 191 Q 103 194 101 194 Q 99 194 85 182 L 76 175" fill="#0000ff" clip-path="url(#clip-mask-2)" /><path d="M 83 164 Q 92 139 93 124 Q 94 118 94 114 L 94 106 Q 93 103 92 100 Q 90 96 94 95 Q 100 93 111 102 Q 115 105 112 109 Q 109 116 107 124 Q 99 157 93 168 L 85 182 Q 83 186 81 189 Q 55 217 32 217 Q 29 216 33 215 Q 33 214 34 214 Q 63 194 76 175" fill="#0000ff" clip-path="url(#clip-mask-3)" /><path d="M 61 125 Q 47 130 36 137 Q 33 139 30 138 Q 22 133 17 129 Q 15 127 16 123 Q 16 121 19 121 Q 28 121 33 120 Q 48 117 63 114 L 75 111 Q 84 108 94 106 L 94 114 Q 83 117 72 121" fill="#0000ff" clip-path="url(#clip-mask-4)" /><path d="M 144 45 L 145 45 Q 155 44 180 38 Q 204 29 211 30 Q 218 32 219 34 Q 220 36 219 38 Q 217 40 207 42 Q 195 45 184 48 L 172 51 Q 157 54 147 53 L 144 46" fill="#000080" clip-path="url(#clip-mask-5)" /><path d="M 137 151 Q 135 150 131 147 Q 128 145 128 143 Q 127 141 130 133 Q 136 59 126 44 Q 124 42 124 40 Q 125 37 128 37 Q 133 37 141 43 Q 143 44 144 46 L 147 53 Q 145 55 144 68 Q 140 112 144 131" fill="#000080" clip-path="url(#clip-mask-6)" /><path d="M 188 67 Q 196 64 202 64 Q 209 65 212 69 Q 214 72 208 73 Q 199 75 187 78 L 175 81 Q 170 82 165 84 Q 160 85 157 83 Q 152 80 156 79 Q 165 75 175 72" fill="#000080" clip-path="url(#clip-mask-7)" /><path d="M 187 96 Q 197 93 203 93 Q 210 94 213 98 Q 215 101 209 102 Q 198 104 186 107 L 175 110 Q 159 113 157 112 Q 152 108 156 107 Q 165 104 175 100" fill="#000080" clip-path="url(#clip-mask-8)" /><path d="M 184 48 Q 186 50 188 52 Q 189 53 188 66 Q 188 66 188 67 L 187 78 Q 187 87 187 96 L 186 107 Q 186 118 186 129 L 175 131 Q 175 119 175 110 L 175 100 Q 175 89 175 81 L 175 72 Q 174 56 172 51" fill="#000080" clip-path="url(#clip-mask-9)" /><path d="M 186 129 Q 192 127 230 123 Q 236 122 246 128 Q 254 134 254 136 L 227 136 Q 223 134 220 134 Q 166 137 137 151 L 144 131 Q 144 137 153 136 Q 161 133 175 131" fill="#000080" clip-path="url(#clip-mask-10)" /><path d="M 254 136 Q 254 138 252 140 Q 246 145 233 221 Q 231 231 223 239 Q 214 247 210 246 L 215 215 Q 220 207 225 184 Q 230 147 230 143 Q 230 138 227 136" fill="#000080" clip-path="url(#clip-mask-11)" /><path d="M 210 246 Q 207 246 206 243 Q 205 237 190 217 Q 187 214 187 213 Q 189 212 193 214 Q 200 216 207 219 Q 213 220 215 215" fill="#000080" clip-path="url(#clip-mask-12)" /><path d="M 123 165 L 125 164 Q 127 165 128 167 Q 130 172 130 180 Q 130 191 125 204 Q 123 211 118 216 Q 113 220 111 215 Q 106 208 110 200 Q 118 184 123 167" fill="#000080" clip-path="url(#clip-mask-13)" /><path d="M 142 169 L 143 168 Q 144 166 146 167 Q 159 176 161 186 Q 161 191 160 194 Q 157 197 154 195 Q 149 192 142 172" fill="#000080" clip-path="url(#clip-mask-14)" /><path d="M 165 165 L 166 163 Q 167 161 168 162 Q 172 164 179 170 Q 184 174 185 179 Q 186 184 185 186 Q 183 190 180 189 Q 175 187 166 167" fill="#000080" clip-path="url(#clip-mask-15)" /><path d="M 189 159 L 189 156 Q 190 154 191 153 Q 192 153 207 161 Q 212 166 212 170 Q 212 176 211 179 Q 209 181 207 180 Q 204 180 202 177 Q 198 170 193 164" fill="#000080" clip-path="url(#clip-mask-16)" /></svg>