<svg xmlns="http://www.w3.org/2000/svg" xmlns:xlink="http://www.w3.org/1999/xlink" width="270" height="270"><defs><clipPath id="clip-mask-1"><rect x="80" y="28" width="115" height="33"><animate attributeName="x" from="-35" to="80" dur="0.426" begin="0; animate11.end + 1" id="animate1" fill="freeze"/></rect></clipPath><clipPath id="clip-mask-2"><rect x="137" y="47" width="59" height="31"><set attributeName="y" to="16" begin="0; animate11.end + 1" /><animate attributeName="y" from="16" to="47" dur="0.115" begin="animate1.end" id="animate2" fill="freeze"/></rect></clipPath><clipPath id="clip-mask-3"><rect x="127" y="70" width="27" height="88"><set attributeName="y" to="-18" begin="0; animate11.end + 1" /><animate attributeName="y" from="-18" to="70" dur="0.326" begin="animate2.end + 0.5" id="animate3" fill="freeze"/></rect></clipPath><clipPath id="clip-mask-4"><rect x="110" y="130" width="25" height="23"><set attributeName="x" to="135" begin="0; animate11.end + 1" /><animate attributeName="x" from="135" to="110" dur="0.093" begin="animate3.end" id="animate4" fill="freeze"/></rect></clipPath><clipPath id="clip-mask-5"><rect x="53" y="85" width="181" height="32"><set attributeName="x" to="-128" begin="0; animate11.end + 1" /><animate attributeName="x" from="-128" to="53" dur="0.670" begin="animate4.end + 0.5" id="animate5" fill="freeze"/></rect></clipPath><clipPath id="clip-mask-6"><rect x="59" y="164" width="27" height="61"><set attributeName="y" to="103" begin="0; animate11.end + 1" /><animate attributeName="y" from="103" to="164" dur="0.226" begin="animate5.end + 0.5" id="animate6" fill="freeze"/></rect></clipPath><clipPath id="clip-mask-7"><rect x="79" y="153" width="131" height="26"><set attributeName="x" to="-52" begin="0; animate11.end + 1" /><animate attributeName="x" from="-52" to="79" dur="0.485" begin="animate6.end + 0.5" id="animate7" fill="freeze"/></rect></clipPath><clipPath id="clip-mask-8"><rect x="179" y="166" width="39" height="52"><set attributeName="y" to="114" begin="0; animate11.end + 1" /><animate attributeName="y" from="114" to="166" dur="0.193" begin="animate7.end" id="animate8" fill="freeze"/></rect></clipPath><clipPath id="clip-mask-9"><rect x="106" y="173" width="15" height="50"><set attributeName="y" to="123" begin="0; animate11.end + 1" /><animate attributeName="y" from="123" to="173" dur="0.185" begin="animate8.end + 0.5" id="animate9" fill="freeze"/></rect></clipPath><clipPath id="clip-mask-10"><rect x="140" y="169" width="25" height="52"><set attributeName="y" to="117" begin="0; animate11.end + 1" /><animate attributeName="y" from="117" to="169" dur="0.193" begin="animate9.end + 0.5" id="animate10" fill="freeze"/></rect></clipPath><clipPath id="clip-mask-11"><rect x="21" y="210" width="227" height="31"><set attributeName="x" to="-206" begin="0; animate11.end + 1" /><animate attributeName="x" from="-206" to="21" dur="0.841" begin="animate10.end + 0.5" id="animate11" fill="freeze"/></rect></clipPath></defs><path d="M 0 0 L 270 270 M 270 0 L 0 270 M 135 0 L 135 270 M 0 135 L 270 135" stroke="#CCCCCC" /><path d="M 166 47 Q 167 44 164 42 Q 160 41 107 56 Q 98 61 89 56 Q 84 52 82 48 Q 80 43 86 43 Q 106 45 114 43 Q 145 36 166 29 Q 172 28 177 31 Q 195 43 195 48" fill="#CCCCCC"/><path d="M 137 75 Q 152 60 166 47 L 195 48 Q 196 53 191 54 Q 181 55 141 78" fill="#CCCCCC"/><path d="M 154 125 L 151 138 Q 148 152 142 155 Q 138 158 134 153 L 135 131 Q 139 126 137 106 L 136 97 Q 134 85 129 76 Q 127 73 128 72 Q 129 70 132 71 Q 135 73 137 75 L 141 78 Q 147 84 149 96 L 150 105" fill="#CCCCCC"/><path d="M 134 153 Q 127 144 114 134 Q 110 131 111 131 Q 113 130 115 130 Q 133 131 135 131" fill="#CCCCCC"/><path d="M 137 106 Q 113 106 75 116 Q 71 117 65 116 Q 60 114 57 110 Q 53 106 59 105 Q 100 101 136 97 L 149 96 Q 184 91 206 87 Q 216 85 230 95 Q 234 99 232 102 Q 231 104 226 104 Q 161 104 150 105" fill="#CCCCCC"/><path d="M 73 220 L 73 214 Q 68 187 61 172 Q 59 167 61 165 Q 62 164 65 165 Q 76 167 79 169 Q 79 169 79 169 L 81 179 Q 82 188 85 212 Q 86 220 85 225 L 76 225" fill="#CCCCCC"/><path d="M 142 170 Q 119 171 113 173 L 106 174 Q 85 176 81 179 L 79 169 Q 90 168 106 166 Q 135 162 161 160 Q 176 158 185 156 Q 191 153 196 156 Q 203 160 210 166 L 186 170 Q 185 167 180 167 Q 166 168 154 169" fill="#CCCCCC"/><path d="M 179 218 Q 185 196 188 181 Q 189 174 186 170 L 210 166 Q 218 171 212 177 Q 203 186 195 216" fill="#CCCCCC"/><path d="M 112 223 Q 111 221 111 220 Q 109 217 106 174 L 113 173 Q 115 175 115 178 Q 121 213 121 223" fill="#CCCCCC"/><path d="M 140 221 Q 140 218 141 214 Q 147 180 143 172 Q 142 171 142 170 L 154 169 Q 160 172 162 175 Q 165 177 162 181 Q 154 201 147 221" fill="#CCCCCC"/><path d="M 85 225 Q 99 223 112 223 L 121 223 Q 126 222 132 222 Q 136 221 140 221 L 147 221 Q 164 219 179 218 L 195 216 Q 203 215 210 214 Q 228 210 244 224 Q 248 229 246 232 Q 244 234 239 234 Q 238 234 238 234 Q 130 223 45 240 Q 40 241 34 239 Q 29 238 25 233 Q 21 228 27 227 Q 53 226 76 225" fill="#CCCCCC"/><path d="M 166 47 Q 167 44 164 42 Q 160 41 107 56 Q 98 61 89 56 Q 84 52 82 48 Q 80 43 86 43 Q 106 45 114 43 Q 145 36 166 29 Q 172 28 177 31 Q 195 43 195 48" fill="#0000ff" clip-path="url(#clip-mask-1)" /><path d="M 137 75 Q 152 60 166 47 L 195 48 Q 196 53 191 54 Q 181 55 141 78" fill="#0000ff" clip-path="url(#clip-mask-2)" /><path d="M 154 125 L 151 138 Q 148 152 142 155 Q 138 158 134 153 L 135 131 Q 139 126 137 106 L 136 97 Q 134 85 129 76 Q 127 73 128 72 Q 129 70 132 71 Q 135 73 137 75 L 141 78 Q 147 84 149 96 L 150 105" fill="#0000ff" clip-path="url(#clip-mask-3)" /><path d="M 134 153 Q 127 144 114 134 Q 110 131 111 131 Q 113 130 115 130 Q 133 131 135 131" fill="#0000ff" clip-path="url(#clip-mask-4)" /><path d="M 137 106 Q 113 106 75 116 Q 71 117 65 116 Q 60 114 57 110 Q 53 106 59 105 Q 100 101 136 97 L 149 96 Q 184 91 206 87 Q 216 85 230 95 Q 234 99 232 102 Q 231 104 226 104 Q 161 104 150 105" fill="#0000ff" clip-path="url(#clip-mask-5)" /><path d="M 73 220 L 73 214 Q 68 187 61 172 Q 59 167 61 165 Q 62 164 65 165 Q 76 167 79 169 Q 79 169 79 169 L 81 179 Q 82 188 85 212 Q 86 220 85 225 L 76 225" fill="#000080" clip-path="url(#clip-mask-6)" /><path d="M 142 170 Q 119 171 113 173 L 106 174 Q 85 176 81 179 L 79 169 Q 90 168 106 166 Q 135 162 161 160 Q 176 158 185 156 Q 191 153 196 156 Q 203 160 210 166 L 186 170 Q 185 167 180 167 Q 166 168 154 169" fill="#000080" clip-path="url(#clip-mask-7)" /><path d="M 179 218 Q 185 196 188 181 Q 189 174 186 170 L 210 166 Q 218 171 212 177 Q 203 186 195 216" fill="#000080" clip-path="url(#clip-mask-8)" /><path d="M 112 223 Q 111 221 111 220 Q 109 217 106 174 L 113 173 Q 115 175 115 178 Q 121 213 121 223" fill="#000080" clip-path="url(#clip-mask-9)" /><path d="M 140 221 Q 140 218 141 214 Q 147 180 143 172 Q 142 171 142 170 L 154 169 Q 160 172 162 175 Q 165 177 162 181 Q 154 201 147 221" fill="#000080" clip-path="url(#clip-mask-10)" /><path d="M 85 225 Q 99 223 112 223 L 121 223 Q 126 222 132 222 Q 136 221 140 221 L 147 221 Q 164 219 179 218 L 195 216 Q 203 215 210 214 Q 228 210 244 224 Q 248 229 246 232 Q 244 234 239 234 Q 238 234 238 234 Q 130 223 45 240 Q 40 241 34 239 Q 29 238 25 233 Q 21 228 27 227 Q 53 226 76 225" fill="#000080" clip-path="url(#clip-mask-11)" /></svg>