<svg xmlns="http://www.w3.org/2000/svg" xmlns:xlink="http://www.w3.org/1999/xlink" width="270" height="270"><defs><clipPath id="clip-mask-1"><rect x="115" y="18" width="36" height="32"><animate attributeName="x" from="79" to="115" dur="0.133" begin="0; animate8.end + 1" id="animate1" fill="freeze"/></rect></clipPath><clipPath id="clip-mask-2"><rect x="50" y="63" width="28" height="61"><set attributeName="y" to="2" begin="0; animate8.end + 1" /><animate attributeName="y" from="2" to="63" dur="0.226" begin="animate1.end + 0.5" id="animate2" fill="freeze"/></rect></clipPath><clipPath id="clip-mask-3"><rect x="78" y="54" width="127" height="31"><set attributeName="x" to="-49" begin="0; animate8.end + 1" /><animate attributeName="x" from="-49" to="78" dur="0.470" begin="animate2.end + 0.5" id="animate3" fill="freeze"/></rect></clipPath><clipPath id="clip-mask-4"><rect x="173" y="59" width="52" height="43"><set attributeName="y" to="16" begin="0; animate8.end + 1" /><animate attributeName="y" from="16" to="59" dur="0.159" begin="animate3.end" id="animate4" fill="freeze"/></rect></clipPath><clipPath id="clip-mask-5"><rect x="85" y="97" width="46" height="87"><set attributeName="y" to="10" begin="0; animate8.end + 1" /><animate attributeName="y" from="10" to="97" dur="0.322" begin="animate4.end + 0.5" id="animate5" fill="freeze"/></rect></clipPath><clipPath id="clip-mask-6"><rect x="92" y="170" width="111" height="81"><set attributeName="x" to="-19" begin="0; animate8.end + 1" /><animate attributeName="x" from="-19" to="92" dur="0.411" begin="animate5.end" id="animate6" fill="freeze"/></rect></clipPath><clipPath id="clip-mask-7"><rect x="58" y="127" width="111" height="109"><set attributeName="y" to="18" begin="0; animate8.end + 1" /><animate attributeName="y" from="18" to="127" dur="0.404" begin="animate6.end + 0.5" id="animate7" fill="freeze"/></rect></clipPath><clipPath id="clip-mask-8"><rect x="17" y="124" width="235" height="46"><set attributeName="x" to="-218" begin="0; animate8.end + 1" /><animate attributeName="x" from="-218" to="17" dur="0.870" begin="animate7.end + 0.5" id="animate8" fill="freeze"/></rect></clipPath></defs><path d="M 0 0 L 270 270 M 270 0 L 0 270 M 135 0 L 135 270 M 0 135 L 270 135" stroke="#CCCCCC" /><path d="M 117 28 L 116 24 Q 115 21 117 20 Q 118 19 119 20 Q 127 18 143 27 Q 149 31 150 38 Q 151 43 149 46 Q 147 50 143 49 Q 133 46 121 32" fill="#CCCCCC"/><path d="M 76 91 L 73 101 Q 71 110 67 117 Q 63 124 58 118 L 57 117 Q 50 103 55 96 Q 68 81 66 70 Q 66 63 72 66 Q 75 69 78 75 L 78 85" fill="#CCCCCC"/><path d="M 78 75 Q 151 61 173 59 Q 198 54 205 59 L 186 66 Q 183 66 171 68 Q 115 74 87 84 Q 83 85 78 85" fill="#CCCCCC"/><path d="M 205 59 Q 224 73 225 76 Q 225 79 213 83 Q 199 86 182 98 Q 177 102 174 100 Q 173 99 175 95 Q 188 71 188 71 Q 189 69 186 66" fill="#CCCCCC"/><path d="M 92 184 Q 87 183 86 180 Q 85 176 89 171 Q 93 164 97 154 L 101 144 Q 105 133 109 118 Q 112 110 109 103 Q 106 99 110 98 Q 113 97 117 99 Q 129 108 130 112 Q 131 115 129 117 Q 124 123 116 142 L 111 152 Q 108 160 103 170" fill="#CCCCCC"/><path d="M 110 189 L 92 184 L 103 170 Q 99 177 106 179 Q 117 183 132 189 L 146 195 Q 162 203 183 213 Q 191 217 195 224 Q 203 239 203 245 Q 202 251 196 251 Q 190 251 183 244 Q 156 220 137 207 L 124 199" fill="#CCCCCC"/><path d="M 132 189 Q 143 173 146 161 Q 149 153 149 148 L 149 138 Q 148 135 147 133 Q 145 129 149 128 Q 154 127 159 130 Q 166 132 169 136 L 167 146 Q 165 150 163 158 Q 158 173 146 195 L 137 207 Q 107 236 64 233 Q 58 232 63 230 Q 104 217 124 199" fill="#CCCCCC"/><path d="M 149 148 Q 127 150 111 152 L 97 154 Q 63 160 42 168 Q 38 170 35 170 Q 27 167 22 163 Q 17 160 17 157 Q 18 153 21 153 Q 42 153 69 149 Q 83 146 101 144 L 116 142 Q 131 140 149 138 L 169 136 Q 210 129 219 126 Q 225 124 229 126 Q 241 131 248 138 Q 252 141 250 144 Q 248 146 242 146 Q 190 141 167 146" fill="#CCCCCC"/><path d="M 117 28 L 116 24 Q 115 21 117 20 Q 118 19 119 20 Q 127 18 143 27 Q 149 31 150 38 Q 151 43 149 46 Q 147 50 143 49 Q 133 46 121 32" fill="#0000ff" clip-path="url(#clip-mask-1)" /><path d="M 76 91 L 73 101 Q 71 110 67 117 Q 63 124 58 118 L 57 117 Q 50 103 55 96 Q 68 81 66 70 Q 66 63 72 66 Q 75 69 78 75 L 78 85" fill="#0000ff" clip-path="url(#clip-mask-2)" /><path d="M 78 75 Q 151 61 173 59 Q 198 54 205 59 L 186 66 Q 183 66 171 68 Q 115 74 87 84 Q 83 85 78 85" fill="#0000ff" clip-path="url(#clip-mask-3)" /><path d="M 205 59 Q 224 73 225 76 Q 225 79 213 83 Q 199 86 182 98 Q 177 102 174 100 Q 173 99 175 95 Q 188 71 188 71 Q 189 69 186 66" fill="#0000ff" clip-path="url(#clip-mask-4)" /><path d="M 92 184 Q 87 183 86 180 Q 85 176 89 171 Q 93 164 97 154 L 101 144 Q 105 133 109 118 Q 112 110 109 103 Q 106 99 110 98 Q 113 97 117 99 Q 129 108 130 112 Q 131 115 129 117 Q 124 123 116 142 L 111 152 Q 108 160 103 170" fill="#000080" clip-path="url(#clip-mask-5)" /><path d="M 110 189 L 92 184 L 103 170 Q 99 177 106 179 Q 117 183 132 189 L 146 195 Q 162 203 183 213 Q 191 217 195 224 Q 203 239 203 245 Q 202 251 196 251 Q 190 251 183 244 Q 156 220 137 207 L 124 199" fill="#000080" clip-path="url(#clip-mask-6)" /><path d="M 132 189 Q 143 173 146 161 Q 149 153 149 148 L 149 138 Q 148 135 147 133 Q 145 129 149 128 Q 154 127 159 130 Q 166 132 169 136 L 167 146 Q 165 150 163 158 Q 158 173 146 195 L 137 207 Q 107 236 64 233 Q 58 232 63 230 Q 104 217 124 199" fill="#000080" clip-path="url(#clip-mask-7)" /><path d="M 149 148 Q 127 150 111 152 L 97 154 Q 63 160 42 168 Q 38 170 35 170 Q 27 167 22 163 Q 17 160 17 157 Q 18 153 21 153 Q 42 153 69 149 Q 83 146 101 144 L 116 142 Q 131 140 149 138 L 169 136 Q 210 129 219 126 Q 225 124 229 126 Q 241 131 248 138 Q 252 141 250 144 Q 248 146 242 146 Q 190 141 167 146" fill="#000080" clip-path="url(#clip-mask-8)" /></svg>