<svg xmlns="http://www.w3.org/2000/svg" xmlns:xlink="http://www.w3.org/1999/xlink" width="270" height="270"><defs><clipPath id="clip-mask-1"><rect x="124" y="18" width="38" height="32"><animate attributeName="x" from="86" to="124" dur="0.141" begin="0; animate14.end + 1" id="animate1" fill="freeze"/></rect></clipPath><clipPath id="clip-mask-2"><rect x="51" y="57" width="29" height="61"><set attributeName="y" to="-4" begin="0; animate14.end + 1" /><animate attributeName="y" from="-4" to="57" dur="0.226" begin="animate1.end + 0.5" id="animate2" fill="freeze"/></rect></clipPath><clipPath id="clip-mask-3"><rect x="79" y="48" width="142" height="34"><set attributeName="x" to="-63" begin="0; animate14.end + 1" /><animate attributeName="x" from="-63" to="79" dur="0.526" begin="animate2.end + 0.5" id="animate3" fill="freeze"/></rect></clipPath><clipPath id="clip-mask-4"><rect x="193" y="55" width="49" height="36"><set attributeName="y" to="19" begin="0; animate14.end + 1" /><animate attributeName="y" from="19" to="55" dur="0.133" begin="animate3.end" id="animate4" fill="freeze"/></rect></clipPath><clipPath id="clip-mask-5"><rect x="27" y="94" width="88" height="96"><set attributeName="y" to="-2" begin="0; animate14.end + 1" /><animate attributeName="y" from="-2" to="94" dur="0.356" begin="animate4.end + 0.5" id="animate5" fill="freeze"/></rect></clipPath><clipPath id="clip-mask-6"><rect x="76" y="147" width="23" height="104"><set attributeName="y" to="43" begin="0; animate14.end + 1" /><animate attributeName="y" from="43" to="147" dur="0.385" begin="animate5.end + 0.5" id="animate6" fill="freeze"/></rect></clipPath><clipPath id="clip-mask-7"><rect x="117" y="98" width="118" height="31"><set attributeName="x" to="-1" begin="0; animate14.end + 1" /><animate attributeName="x" from="-1" to="117" dur="0.437" begin="animate6.end + 0.5" id="animate7" fill="freeze"/></rect></clipPath><clipPath id="clip-mask-8"><rect x="151" y="122" width="23" height="30"><set attributeName="y" to="92" begin="0; animate14.end + 1" /><animate attributeName="y" from="92" to="122" dur="0.111" begin="animate7.end + 0.5" id="animate8" fill="freeze"/></rect></clipPath><clipPath id="clip-mask-9"><rect x="126" y="149" width="20" height="90"><set attributeName="y" to="59" begin="0; animate14.end + 1" /><animate attributeName="y" from="59" to="149" dur="0.333" begin="animate8.end + 0.5" id="animate9" fill="freeze"/></rect></clipPath><clipPath id="clip-mask-10"><rect x="140" y="138" width="82" height="24"><set attributeName="x" to="58" begin="0; animate14.end + 1" /><animate attributeName="x" from="58" to="140" dur="0.304" begin="animate9.end + 0.5" id="animate10" fill="freeze"/></rect></clipPath><clipPath id="clip-mask-11"><rect x="200" y="152" width="24" height="95"><set attributeName="y" to="57" begin="0; animate14.end + 1" /><animate attributeName="y" from="57" to="152" dur="0.352" begin="animate10.end" id="animate11" fill="freeze"/></rect></clipPath><clipPath id="clip-mask-12"><rect x="193" y="214" width="9" height="28"><set attributeName="x" to="202" begin="0; animate14.end + 1" /><animate attributeName="x" from="202" to="193" dur="0.033" begin="animate11.end" id="animate12" fill="freeze"/></rect></clipPath><clipPath id="clip-mask-13"><rect x="145" y="177" width="48" height="16"><set attributeName="x" to="97" begin="0; animate14.end + 1" /><animate attributeName="x" from="97" to="145" dur="0.178" begin="animate12.end + 0.5" id="animate13" fill="freeze"/></rect></clipPath><clipPath id="clip-mask-14"><rect x="144" y="211" width="55" height="21"><set attributeName="x" to="89" begin="0; animate14.end + 1" /><animate attributeName="x" from="89" to="144" dur="0.204" begin="animate13.end + 0.5" id="animate14" fill="freeze"/></rect></clipPath></defs><path d="M 0 0 L 270 270 M 270 0 L 0 270 M 135 0 L 135 270 M 0 135 L 270 135" stroke="#CCCCCC" /><path d="M 126 27 L 125 23 Q 124 20 126 19 Q 128 18 132 19 Q 156 24 159 33 Q 162 41 160 45 Q 159 49 156 49 Q 151 50 147 46 Q 140 39 133 32" fill="#CCCCCC"/><path d="M 77 85 L 73 96 Q 69 105 65 111 Q 61 118 56 111 Q 53 106 52 98 Q 51 93 54 89 Q 60 84 64 78 Q 69 71 68 64 Q 69 57 74 61 Q 77 64 80 71 L 79 79" fill="#CCCCCC"/><path d="M 80 71 Q 93 69 106 66 Q 164 56 190 53 Q 214 48 221 55 L 202 62 Q 198 61 185 63 Q 129 69 94 80 Q 85 82 79 79" fill="#CCCCCC"/><path d="M 221 55 Q 241 70 242 73 Q 242 76 232 77 Q 219 79 203 88 Q 198 91 195 90 Q 193 89 196 85 Q 204 67 204 66 Q 205 65 202 62" fill="#CCCCCC"/><path d="M 50 186 L 29 190 Q 27 189 29 188 Q 52 168 62 157 Q 62 156 63 156 Q 97 117 92 99 Q 92 95 94 95 Q 103 94 111 102 Q 114 104 115 107 Q 115 108 109 116 Q 96 135 86 147 L 80 155" fill="#CCCCCC"/><path d="M 86 147 Q 89 149 97 158 Q 99 161 98 167 Q 96 178 96 223 Q 96 234 92 245 Q 89 251 85 247 L 85 247 Q 76 236 79 223 Q 84 202 84 181 Q 84 163 80 155" fill="#CCCCCC"/><path d="M 156 123 Q 146 125 138 127 Q 134 129 129 128 Q 125 127 121 124 Q 117 120 122 119 Q 188 107 206 103 Q 218 98 231 108 Q 235 111 234 114 Q 233 116 228 116 Q 177 116 166 122" fill="#CCCCCC"/><path d="M 151 152 Q 158 129 156 123 L 166 122 Q 170 125 172 127 Q 174 130 171 132 Q 168 136 166 139 Q 163 145 160 150" fill="#CCCCCC"/><path d="M 142 233 L 140 235 Q 138 239 136 236 Q 127 227 132 209 Q 136 170 127 155 Q 126 153 126 151 Q 127 149 130 150 Q 135 151 140 154 L 145 162 Q 144 167 145 185 L 145 192 Q 146 210 145 219 L 144 228" fill="#CCCCCC"/><path d="M 200 155 Q 197 153 191 154 Q 153 161 145 162 L 140 154 Q 144 153 151 152 L 160 150 Q 159 151 159 151 Q 181 147 196 141 Q 199 138 204 141 Q 217 147 222 152" fill="#CCCCCC"/><path d="M 201 215 Q 203 212 203 200 Q 204 158 200 155 L 222 152 Q 224 155 222 158 Q 217 164 218 172 Q 219 201 220 217 Q 220 229 215 238 Q 211 247 207 247 Q 204 247 202 242" fill="#CCCCCC"/><path d="M 193 214 Q 198 217 199 219 Q 200 218 201 215 L 202 242" fill="#CCCCCC"/><path d="M 145 185 Q 171 177 181 178 Q 188 179 191 184 Q 193 187 186 188 Q 170 190 149 192 Q 147 193 145 192" fill="#CCCCCC"/><path d="M 145 219 Q 162 217 182 213 Q 190 211 193 214 L 199 232 Q 196 228 192 224 Q 161 225 148 227 Q 145 228 144 228" fill="#CCCCCC"/><path d="M 126 27 L 125 23 Q 124 20 126 19 Q 128 18 132 19 Q 156 24 159 33 Q 162 41 160 45 Q 159 49 156 49 Q 151 50 147 46 Q 140 39 133 32" fill="#0000ff" clip-path="url(#clip-mask-1)" /><path d="M 77 85 L 73 96 Q 69 105 65 111 Q 61 118 56 111 Q 53 106 52 98 Q 51 93 54 89 Q 60 84 64 78 Q 69 71 68 64 Q 69 57 74 61 Q 77 64 80 71 L 79 79" fill="#0000ff" clip-path="url(#clip-mask-2)" /><path d="M 80 71 Q 93 69 106 66 Q 164 56 190 53 Q 214 48 221 55 L 202 62 Q 198 61 185 63 Q 129 69 94 80 Q 85 82 79 79" fill="#0000ff" clip-path="url(#clip-mask-3)" /><path d="M 221 55 Q 241 70 242 73 Q 242 76 232 77 Q 219 79 203 88 Q 198 91 195 90 Q 193 89 196 85 Q 204 67 204 66 Q 205 65 202 62" fill="#0000ff" clip-path="url(#clip-mask-4)" /><path d="M 50 186 L 29 190 Q 27 189 29 188 Q 52 168 62 157 Q 62 156 63 156 Q 97 117 92 99 Q 92 95 94 95 Q 103 94 111 102 Q 114 104 115 107 Q 115 108 109 116 Q 96 135 86 147 L 80 155" fill="#000080" clip-path="url(#clip-mask-5)" /><path d="M 86 147 Q 89 149 97 158 Q 99 161 98 167 Q 96 178 96 223 Q 96 234 92 245 Q 89 251 85 247 L 85 247 Q 76 236 79 223 Q 84 202 84 181 Q 84 163 80 155" fill="#000080" clip-path="url(#clip-mask-6)" /><path d="M 156 123 Q 146 125 138 127 Q 134 129 129 128 Q 125 127 121 124 Q 117 120 122 119 Q 188 107 206 103 Q 218 98 231 108 Q 235 111 234 114 Q 233 116 228 116 Q 177 116 166 122" fill="#000080" clip-path="url(#clip-mask-7)" /><path d="M 151 152 Q 158 129 156 123 L 166 122 Q 170 125 172 127 Q 174 130 171 132 Q 168 136 166 139 Q 163 145 160 150" fill="#000080" clip-path="url(#clip-mask-8)" /><path d="M 142 233 L 140 235 Q 138 239 136 236 Q 127 227 132 209 Q 136 170 127 155 Q 126 153 126 151 Q 127 149 130 150 Q 135 151 140 154 L 145 162 Q 144 167 145 185 L 145 192 Q 146 210 145 219 L 144 228" fill="#000080" clip-path="url(#clip-mask-9)" /><path d="M 200 155 Q 197 153 191 154 Q 153 161 145 162 L 140 154 Q 144 153 151 152 L 160 150 Q 159 151 159 151 Q 181 147 196 141 Q 199 138 204 141 Q 217 147 222 152" fill="#000080" clip-path="url(#clip-mask-10)" /><path d="M 201 215 Q 203 212 203 200 Q 204 158 200 155 L 222 152 Q 224 155 222 158 Q 217 164 218 172 Q 219 201 220 217 Q 220 229 215 238 Q 211 247 207 247 Q 204 247 202 242" fill="#000080" clip-path="url(#clip-mask-11)" /><path d="M 193 214 Q 198 217 199 219 Q 200 218 201 215 L 202 242" fill="#000080" clip-path="url(#clip-mask-12)" /><path d="M 145 185 Q 171 177 181 178 Q 188 179 191 184 Q 193 187 186 188 Q 170 190 149 192 Q 147 193 145 192" fill="#000080" clip-path="url(#clip-mask-13)" /><path d="M 145 219 Q 162 217 182 213 Q 190 211 193 214 L 199 232 Q 196 228 192 224 Q 161 225 148 227 Q 145 228 144 228" fill="#000080" clip-path="url(#clip-mask-14)" /></svg>