<svg xmlns="http://www.w3.org/2000/svg" xmlns:xlink="http://www.w3.org/1999/xlink" width="270" height="270"><defs><clipPath id="clip-mask-1"><rect x="108" y="10" width="38" height="26"><animate attributeName="x" from="70" to="108" dur="0.141" begin="0; animate18.end + 1" id="animate1" fill="freeze"/></rect></clipPath><clipPath id="clip-mask-2"><rect x="38" y="38" width="33" height="59"><set attributeName="y" to="-21" begin="0; animate18.end + 1" /><animate attributeName="y" from="-21" to="38" dur="0.219" begin="animate1.end + 0.5" id="animate2" fill="freeze"/></rect></clipPath><clipPath id="clip-mask-3"><rect x="70" y="32" width="146" height="30"><set attributeName="x" to="-76" begin="0; animate18.end + 1" /><animate attributeName="x" from="-76" to="70" dur="0.541" begin="animate2.end + 0.5" id="animate3" fill="freeze"/></rect></clipPath><clipPath id="clip-mask-4"><rect x="188" y="39" width="44" height="29"><set attributeName="y" to="10" begin="0; animate18.end + 1" /><animate attributeName="y" from="10" to="39" dur="0.107" begin="animate3.end" id="animate4" fill="freeze"/></rect></clipPath><clipPath id="clip-mask-5"><rect x="68" y="70" width="21" height="37"><set attributeName="y" to="33" begin="0; animate18.end + 1" /><animate attributeName="y" from="33" to="70" dur="0.137" begin="animate4.end + 0.5" id="animate5" fill="freeze"/></rect></clipPath><clipPath id="clip-mask-6"><rect x="98" y="74" width="79" height="36"><set attributeName="x" to="19" begin="0; animate18.end + 1" /><animate attributeName="x" from="19" to="98" dur="0.293" begin="animate5.end + 0.5" id="animate6" fill="freeze"/></rect></clipPath><clipPath id="clip-mask-7"><rect x="148" y="70" width="23" height="23"><set attributeName="y" to="93" begin="0; animate18.end + 1" /><animate attributeName="y" from="93" to="70" dur="0.085" begin="animate6.end" id="animate7" fill="freeze"/></rect></clipPath><clipPath id="clip-mask-8"><rect x="116" y="58" width="20" height="22"><set attributeName="x" to="96" begin="0; animate18.end + 1" /><animate attributeName="x" from="96" to="116" dur="0.074" begin="animate7.end + 0.5" id="animate8" fill="freeze"/></rect></clipPath><clipPath id="clip-mask-9"><rect x="159" y="61" width="30" height="23"><set attributeName="x" to="129" begin="0; animate18.end + 1" /><animate attributeName="x" from="129" to="159" dur="0.111" begin="animate8.end + 0.5" id="animate9" fill="freeze"/></rect></clipPath><clipPath id="clip-mask-10"><rect x="69" y="120" width="22" height="38"><set attributeName="y" to="82" begin="0; animate18.end + 1" /><animate attributeName="y" from="82" to="120" dur="0.141" begin="animate9.end + 0.5" id="animate10" fill="freeze"/></rect></clipPath><clipPath id="clip-mask-11"><rect x="86" y="111" width="110" height="23"><set attributeName="x" to="-24" begin="0; animate18.end + 1" /><animate attributeName="x" from="-24" to="86" dur="0.407" begin="animate10.end + 0.5" id="animate11" fill="freeze"/></rect></clipPath><clipPath id="clip-mask-12"><rect x="168" y="123" width="29" height="27"><set attributeName="y" to="96" begin="0; animate18.end + 1" /><animate attributeName="y" from="96" to="123" dur="0.100" begin="animate11.end" id="animate12" fill="freeze"/></rect></clipPath><clipPath id="clip-mask-13"><rect x="107" y="129" width="12" height="27"><set attributeName="y" to="102" begin="0; animate18.end + 1" /><animate attributeName="y" from="102" to="129" dur="0.100" begin="animate12.end + 0.5" id="animate13" fill="freeze"/></rect></clipPath><clipPath id="clip-mask-14"><rect x="136" y="123" width="22" height="30"><set attributeName="y" to="93" begin="0; animate18.end + 1" /><animate attributeName="y" from="93" to="123" dur="0.111" begin="animate13.end + 0.5" id="animate14" fill="freeze"/></rect></clipPath><clipPath id="clip-mask-15"><rect x="27" y="140" width="215" height="35"><set attributeName="x" to="-188" begin="0; animate18.end + 1" /><animate attributeName="x" from="-188" to="27" dur="0.796" begin="animate14.end + 0.5" id="animate15" fill="freeze"/></rect></clipPath><clipPath id="clip-mask-16"><rect x="74" y="165" width="116" height="25"><set attributeName="x" to="-42" begin="0; animate18.end + 1" /><animate attributeName="x" from="-42" to="74" dur="0.430" begin="animate15.end + 0.5" id="animate16" fill="freeze"/></rect></clipPath><clipPath id="clip-mask-17"><rect x="126" y="183" width="18" height="76"><set attributeName="y" to="107" begin="0; animate18.end + 1" /><animate attributeName="y" from="107" to="183" dur="0.281" begin="animate16.end + 0.5" id="animate17" fill="freeze"/></rect></clipPath><clipPath id="clip-mask-18"><rect x="101" y="229" width="26" height="27"><set attributeName="x" to="127" begin="0; animate18.end + 1" /><animate attributeName="x" from="127" to="101" dur="0.096" begin="animate17.end" id="animate18" fill="freeze"/></rect></clipPath></defs><path d="M 0 0 L 270 270 M 270 0 L 0 270 M 135 0 L 135 270 M 0 135 L 270 135" stroke="#CCCCCC" /><path d="M 110 18 L 109 16 Q 108 12 109 11 Q 111 10 115 10 Q 139 12 143 20 Q 146 27 146 31 Q 145 35 142 36 Q 138 36 133 34 Q 125 28 118 23" fill="#CCCCCC"/><path d="M 66 65 L 62 76 Q 57 85 52 91 Q 48 97 44 90 L 44 90 Q 38 76 44 70 Q 61 56 61 45 Q 62 38 66 42 Q 69 45 71 51 L 70 59" fill="#CCCCCC"/><path d="M 71 51 Q 84 49 98 47 Q 161 39 191 36 Q 210 32 216 39 L 199 45 Q 196 44 189 44 Q 123 48 80 61 Q 75 62 70 59" fill="#CCCCCC"/><path d="M 216 39 Q 232 54 232 57 Q 232 59 223 60 Q 211 60 197 66 Q 192 68 190 67 Q 188 65 191 62 Q 202 48 202 47 Q 202 45 199 45" fill="#CCCCCC"/><path d="M 84 70 L 86 70 Q 87 70 88 72 Q 89 77 88 84 Q 87 98 77 105 Q 73 107 71 104 Q 68 96 72 90 Q 78 81 83 72" fill="#CCCCCC"/><path d="M 98 75 L 99 75 Q 100 74 103 75 Q 105 76 107 80 Q 109 86 113 90 Q 122 97 143 95 Q 149 94 151 93 L 171 89 Q 177 93 177 95 Q 177 97 173 99 Q 170 101 167 102 Q 137 110 116 101 Q 103 93 99 78" fill="#CCCCCC"/><path d="M 151 93 Q 153 91 149 76 Q 148 73 149 72 Q 150 70 152 74 Q 160 82 171 89" fill="#CCCCCC"/><path d="M 116 64 L 116 61 Q 116 59 117 59 Q 123 58 132 66 Q 135 69 135 73 Q 136 76 134 78 Q 132 80 130 79 Q 124 76 118 66" fill="#CCCCCC"/><path d="M 160 67 L 159 65 Q 159 63 160 62 Q 162 61 179 65 Q 185 68 187 72 Q 189 78 188 81 Q 187 84 185 84 Q 183 84 166 71" fill="#CCCCCC"/><path d="M 75 132 L 70 126 Q 69 123 70 121 Q 71 120 75 120 Q 81 122 86 125 L 89 134 Q 88 142 91 158 L 83 158" fill="#CCCCCC"/><path d="M 173 123 Q 168 118 152 123 L 142 125 Q 127 127 113 129 L 107 130 Q 99 131 93 133 Q 91 134 89 134 L 86 125 Q 134 120 174 112 Q 178 111 181 113 Q 195 121 196 125" fill="#CCCCCC"/><path d="M 168 150 Q 172 136 174 126 Q 174 124 173 123 L 196 125 Q 197 127 194 130 Q 189 135 183 148" fill="#CCCCCC"/><path d="M 114 156 Q 109 152 108 138 Q 107 131 107 130 L 113 129 Q 113 130 114 130 Q 119 142 119 154 Q 119 154 119 155" fill="#CCCCCC"/><path d="M 136 153 L 136 153 Q 143 127 142 125 L 152 123 Q 154 125 156 127 Q 158 129 155 132 Q 147 141 143 152" fill="#CCCCCC"/><path d="M 91 158 Q 103 156 114 156 L 119 155 Q 126 154 132 153 Q 135 153 136 153 L 143 152 Q 156 151 168 150 L 183 148 Q 196 145 208 144 Q 223 140 238 151 Q 242 155 240 158 Q 239 161 234 160 Q 233 160 233 160 Q 128 155 49 174 Q 45 175 39 173 Q 35 172 31 168 Q 27 163 33 163 Q 58 160 83 158" fill="#CCCCCC"/><path d="M 108 186 L 93 189 Q 89 190 84 189 Q 80 188 77 185 Q 74 180 79 180 Q 134 173 160 169 Q 174 165 186 175 Q 190 178 189 180 Q 187 182 183 182 Q 143 183 137 183 L 126 184" fill="#CCCCCC"/><path d="M 137 183 Q 144 190 142 201 Q 142 207 143 225 Q 143 241 139 249 Q 136 258 133 259 Q 130 259 126 256 L 127 230 Q 128 228 128 220 Q 129 193 126 184" fill="#CCCCCC"/><path d="M 126 256 Q 120 248 104 234 Q 101 232 102 231 Q 102 229 105 229 Q 112 231 119 232 Q 126 233 127 230" fill="#CCCCCC"/><path d="M 110 18 L 109 16 Q 108 12 109 11 Q 111 10 115 10 Q 139 12 143 20 Q 146 27 146 31 Q 145 35 142 36 Q 138 36 133 34 Q 125 28 118 23" fill="#0000ff" clip-path="url(#clip-mask-1)" /><path d="M 66 65 L 62 76 Q 57 85 52 91 Q 48 97 44 90 L 44 90 Q 38 76 44 70 Q 61 56 61 45 Q 62 38 66 42 Q 69 45 71 51 L 70 59" fill="#0000ff" clip-path="url(#clip-mask-2)" /><path d="M 71 51 Q 84 49 98 47 Q 161 39 191 36 Q 210 32 216 39 L 199 45 Q 196 44 189 44 Q 123 48 80 61 Q 75 62 70 59" fill="#0000ff" clip-path="url(#clip-mask-3)" /><path d="M 216 39 Q 232 54 232 57 Q 232 59 223 60 Q 211 60 197 66 Q 192 68 190 67 Q 188 65 191 62 Q 202 48 202 47 Q 202 45 199 45" fill="#0000ff" clip-path="url(#clip-mask-4)" /><path d="M 84 70 L 86 70 Q 87 70 88 72 Q 89 77 88 84 Q 87 98 77 105 Q 73 107 71 104 Q 68 96 72 90 Q 78 81 83 72" fill="#000080" clip-path="url(#clip-mask-5)" /><path d="M 98 75 L 99 75 Q 100 74 103 75 Q 105 76 107 80 Q 109 86 113 90 Q 122 97 143 95 Q 149 94 151 93 L 171 89 Q 177 93 177 95 Q 177 97 173 99 Q 170 101 167 102 Q 137 110 116 101 Q 103 93 99 78" fill="#000080" clip-path="url(#clip-mask-6)" /><path d="M 151 93 Q 153 91 149 76 Q 148 73 149 72 Q 150 70 152 74 Q 160 82 171 89" fill="#000080" clip-path="url(#clip-mask-7)" /><path d="M 116 64 L 116 61 Q 116 59 117 59 Q 123 58 132 66 Q 135 69 135 73 Q 136 76 134 78 Q 132 80 130 79 Q 124 76 118 66" fill="#000080" clip-path="url(#clip-mask-8)" /><path d="M 160 67 L 159 65 Q 159 63 160 62 Q 162 61 179 65 Q 185 68 187 72 Q 189 78 188 81 Q 187 84 185 84 Q 183 84 166 71" fill="#000080" clip-path="url(#clip-mask-9)" /><path d="M 75 132 L 70 126 Q 69 123 70 121 Q 71 120 75 120 Q 81 122 86 125 L 89 134 Q 88 142 91 158 L 83 158" fill="#000080" clip-path="url(#clip-mask-10)" /><path d="M 173 123 Q 168 118 152 123 L 142 125 Q 127 127 113 129 L 107 130 Q 99 131 93 133 Q 91 134 89 134 L 86 125 Q 134 120 174 112 Q 178 111 181 113 Q 195 121 196 125" fill="#000080" clip-path="url(#clip-mask-11)" /><path d="M 168 150 Q 172 136 174 126 Q 174 124 173 123 L 196 125 Q 197 127 194 130 Q 189 135 183 148" fill="#000080" clip-path="url(#clip-mask-12)" /><path d="M 114 156 Q 109 152 108 138 Q 107 131 107 130 L 113 129 Q 113 130 114 130 Q 119 142 119 154 Q 119 154 119 155" fill="#000080" clip-path="url(#clip-mask-13)" /><path d="M 136 153 L 136 153 Q 143 127 142 125 L 152 123 Q 154 125 156 127 Q 158 129 155 132 Q 147 141 143 152" fill="#000080" clip-path="url(#clip-mask-14)" /><path d="M 91 158 Q 103 156 114 156 L 119 155 Q 126 154 132 153 Q 135 153 136 153 L 143 152 Q 156 151 168 150 L 183 148 Q 196 145 208 144 Q 223 140 238 151 Q 242 155 240 158 Q 239 161 234 160 Q 233 160 233 160 Q 128 155 49 174 Q 45 175 39 173 Q 35 172 31 168 Q 27 163 33 163 Q 58 160 83 158" fill="#000080" clip-path="url(#clip-mask-15)" /><path d="M 108 186 L 93 189 Q 89 190 84 189 Q 80 188 77 185 Q 74 180 79 180 Q 134 173 160 169 Q 174 165 186 175 Q 190 178 189 180 Q 187 182 183 182 Q 143 183 137 183 L 126 184" fill="#000080" clip-path="url(#clip-mask-16)" /><path d="M 137 183 Q 144 190 142 201 Q 142 207 143 225 Q 143 241 139 249 Q 136 258 133 259 Q 130 259 126 256 L 127 230 Q 128 228 128 220 Q 129 193 126 184" fill="#000080" clip-path="url(#clip-mask-17)" /><path d="M 126 256 Q 120 248 104 234 Q 101 232 102 231 Q 102 229 105 229 Q 112 231 119 232 Q 126 233 127 230" fill="#000080" clip-path="url(#clip-mask-18)" /></svg>