<svg xmlns="http://www.w3.org/2000/svg" xmlns:xlink="http://www.w3.org/1999/xlink" width="270" height="270"><defs><clipPath id="clip-mask-1"><rect x="112" y="6" width="36" height="28"><animate attributeName="x" from="76" to="112" dur="0.133" begin="0; animate19.end + 1" id="animate1" fill="freeze"/></rect></clipPath><clipPath id="clip-mask-2"><rect x="41" y="37" width="28" height="58"><set attributeName="y" to="-21" begin="0; animate19.end + 1" /><animate attributeName="y" from="-21" to="37" dur="0.215" begin="animate1.end + 0.5" id="animate2" fill="freeze"/></rect></clipPath><clipPath id="clip-mask-3"><rect x="67" y="32" width="144" height="29"><set attributeName="x" to="-77" begin="0; animate19.end + 1" /><animate attributeName="x" from="-77" to="67" dur="0.533" begin="animate2.end + 0.5" id="animate3" fill="freeze"/></rect></clipPath><clipPath id="clip-mask-4"><rect x="182" y="38" width="46" height="33"><set attributeName="y" to="5" begin="0; animate19.end + 1" /><animate attributeName="y" from="5" to="38" dur="0.122" begin="animate3.end" id="animate4" fill="freeze"/></rect></clipPath><clipPath id="clip-mask-5"><rect x="79" y="65" width="35" height="28"><set attributeName="x" to="114" begin="0; animate19.end + 1" /><animate attributeName="x" from="114" to="79" dur="0.130" begin="animate4.end + 0.5" id="animate5" fill="freeze"/></rect></clipPath><clipPath id="clip-mask-6"><rect x="64" y="89" width="32" height="54"><set attributeName="y" to="35" begin="0; animate19.end + 1" /><animate attributeName="y" from="35" to="89" dur="0.200" begin="animate5.end + 0.5" id="animate6" fill="freeze"/></rect></clipPath><clipPath id="clip-mask-7"><rect x="87" y="103" width="30" height="13"><set attributeName="x" to="57" begin="0; animate19.end + 1" /><animate attributeName="x" from="57" to="87" dur="0.111" begin="animate6.end + 0.5" id="animate7" fill="freeze"/></rect></clipPath><clipPath id="clip-mask-8"><rect x="131" y="68" width="53" height="15"><set attributeName="x" to="78" begin="0; animate19.end + 1" /><animate attributeName="x" from="78" to="131" dur="0.196" begin="animate7.end + 0.5" id="animate8" fill="freeze"/></rect></clipPath><clipPath id="clip-mask-9"><rect x="153" y="81" width="34" height="61"><set attributeName="y" to="20" begin="0; animate19.end + 1" /><animate attributeName="y" from="20" to="81" dur="0.226" begin="animate8.end" id="animate9" fill="freeze"/></rect></clipPath><clipPath id="clip-mask-10"><rect x="127" y="93" width="33" height="14"><set attributeName="x" to="94" begin="0; animate19.end + 1" /><animate attributeName="x" from="94" to="127" dur="0.122" begin="animate9.end + 0.5" id="animate10" fill="freeze"/></rect></clipPath><clipPath id="clip-mask-11"><rect x="94" y="120" width="60" height="20"><set attributeName="x" to="34" begin="0; animate19.end + 1" /><animate attributeName="x" from="34" to="94" dur="0.222" begin="animate10.end + 0.5" id="animate11" fill="freeze"/></rect></clipPath><clipPath id="clip-mask-12"><rect x="55" y="142" width="50" height="40"><set attributeName="y" to="102" begin="0; animate19.end + 1" /><animate attributeName="y" from="102" to="142" dur="0.148" begin="animate11.end + 0.5" id="animate12" fill="freeze"/></rect></clipPath><clipPath id="clip-mask-13"><rect x="90" y="145" width="129" height="30"><set attributeName="x" to="-39" begin="0; animate19.end + 1" /><animate attributeName="x" from="-39" to="90" dur="0.478" begin="animate12.end + 0.5" id="animate13" fill="freeze"/></rect></clipPath><clipPath id="clip-mask-14"><rect x="169" y="158" width="52" height="105"><set attributeName="y" to="53" begin="0; animate19.end + 1" /><animate attributeName="y" from="53" to="158" dur="0.389" begin="animate13.end" id="animate14" fill="freeze"/></rect></clipPath><clipPath id="clip-mask-15"><rect x="150" y="225" width="30" height="31"><set attributeName="x" to="180" begin="0; animate19.end + 1" /><animate attributeName="x" from="180" to="150" dur="0.111" begin="animate14.end" id="animate15" fill="freeze"/></rect></clipPath><clipPath id="clip-mask-16"><rect x="41" y="190" width="22" height="51"><set attributeName="y" to="139" begin="0; animate19.end + 1" /><animate attributeName="y" from="139" to="190" dur="0.189" begin="animate15.end + 0.5" id="animate16" fill="freeze"/></rect></clipPath><clipPath id="clip-mask-17"><rect x="78" y="187" width="19" height="30"><set attributeName="y" to="157" begin="0; animate19.end + 1" /><animate attributeName="y" from="157" to="187" dur="0.111" begin="animate16.end + 0.5" id="animate17" fill="freeze"/></rect></clipPath><clipPath id="clip-mask-18"><rect x="106" y="180" width="20" height="29"><set attributeName="y" to="151" begin="0; animate19.end + 1" /><animate attributeName="y" from="151" to="180" dur="0.107" begin="animate17.end + 0.5" id="animate18" fill="freeze"/></rect></clipPath><clipPath id="clip-mask-19"><rect x="138" y="175" width="25" height="28"><set attributeName="x" to="113" begin="0; animate19.end + 1" /><animate attributeName="x" from="113" to="138" dur="0.093" begin="animate18.end + 0.5" id="animate19" fill="freeze"/></rect></clipPath></defs><path d="M 0 0 L 270 270 M 270 0 L 0 270 M 135 0 L 135 270 M 0 135 L 270 135" stroke="#CCCCCC" /><path d="M 115 17 L 113 13 Q 112 10 114 9 Q 117 6 135 10 Q 143 13 145 17 Q 148 25 147 29 Q 146 33 143 34 Q 139 34 135 31 Q 129 26 123 22" fill="#CCCCCC"/><path d="M 65 65 L 63 73 Q 60 82 56 88 Q 53 95 48 89 Q 41 75 45 69 Q 59 53 57 43 Q 57 37 62 40 Q 67 43 69 50 L 67 60" fill="#CCCCCC"/><path d="M 69 50 Q 184 34 188 34 Q 205 32 211 38 L 192 45 Q 189 44 183 44 Q 119 48 77 60 Q 72 61 67 60" fill="#CCCCCC"/><path d="M 211 38 Q 228 54 228 57 Q 228 59 218 60 Q 206 61 190 69 Q 185 71 183 70 Q 182 68 185 65 Q 196 48 196 47 Q 196 45 192 45" fill="#CCCCCC"/><path d="M 79 90 Q 94 74 94 68 Q 94 65 96 65 Q 99 65 104 68 Q 109 72 112 76 Q 114 80 109 82 Q 102 84 92 90 Q 88 91 83 93" fill="#CCCCCC"/><path d="M 87 142 Q 84 139 83 134 Q 76 109 67 95 Q 64 92 66 90 Q 66 89 70 89 Q 75 89 79 90 L 83 93 Q 84 94 84 95 Q 84 98 87 107 L 90 116 Q 91 122 94 130 Q 94 130 94 131 L 96 140 Q 96 142 96 143" fill="#CCCCCC"/><path d="M 87 107 Q 88 107 88 107 Q 99 103 105 104 Q 111 104 115 108 Q 117 112 111 113 Q 102 114 90 116" fill="#CCCCCC"/><path d="M 161 82 Q 160 81 155 82 Q 139 83 138 83 Q 133 81 132 78 Q 131 75 137 75 Q 151 74 163 70 Q 167 68 172 71 Q 179 76 184 81" fill="#CCCCCC"/><path d="M 154 124 Q 156 123 159 105 L 160 98 Q 161 94 162 89 Q 163 83 161 82 L 184 81 Q 187 86 183 90 Q 176 99 174 112 Q 171 130 165 135 Q 158 142 153 133" fill="#CCCCCC"/><path d="M 159 105 Q 150 105 136 106 Q 133 107 132 106 Q 127 102 131 101 Q 135 99 138 98 Q 154 93 160 98" fill="#CCCCCC"/><path d="M 94 131 Q 109 129 127 125 Q 150 120 154 124 L 153 133 L 153 133 Q 114 135 96 139 Q 96 139 96 140" fill="#CCCCCC"/><path d="M 80 176 L 66 181 Q 61 182 59 182 Q 55 182 58 179 Q 60 177 64 174 Q 86 160 87 143 Q 87 143 87 142 L 96 143 Q 99 147 103 151 Q 105 155 102 157 Q 99 159 96 162 L 90 167" fill="#CCCCCC"/><path d="M 96 162 Q 121 162 151 157 Q 181 152 190 148 Q 196 145 201 147 Q 216 155 219 158 L 191 165 Q 187 157 108 174 Q 102 175 95 170 Q 92 168 90 167" fill="#CCCCCC"/><path d="M 219 158 Q 221 161 217 165 Q 212 172 209 187 Q 203 227 196 240 Q 189 252 180 257 Q 174 263 169 256 L 180 225 Q 188 212 192 180 Q 194 169 191 165" fill="#CCCCCC"/><path d="M 169 256 Q 164 247 155 236 Q 150 229 157 231 Q 161 233 166 233 Q 175 235 180 225" fill="#CCCCCC"/><path d="M 44 191 L 46 190 Q 48 190 50 192 Q 54 197 56 205 Q 63 221 55 235 Q 51 241 48 237 Q 41 231 42 221 Q 44 207 44 194" fill="#CCCCCC"/><path d="M 78 191 L 79 189 Q 79 187 81 187 Q 83 187 85 190 Q 93 197 95 201 Q 97 205 96 210 Q 95 214 92 216 Q 89 217 87 215 Q 82 210 79 196" fill="#CCCCCC"/><path d="M 106 185 L 107 183 Q 107 180 109 180 Q 115 181 124 193 Q 126 196 125 202 Q 125 206 122 207 Q 119 209 117 207 Q 112 203 108 189" fill="#CCCCCC"/><path d="M 138 182 L 138 180 Q 138 177 139 176 Q 142 175 156 183 Q 161 186 162 190 Q 163 197 161 200 Q 159 203 157 203 Q 153 202 151 199 Q 147 193 143 188" fill="#CCCCCC"/><path d="M 115 17 L 113 13 Q 112 10 114 9 Q 117 6 135 10 Q 143 13 145 17 Q 148 25 147 29 Q 146 33 143 34 Q 139 34 135 31 Q 129 26 123 22" fill="#0000ff" clip-path="url(#clip-mask-1)" /><path d="M 65 65 L 63 73 Q 60 82 56 88 Q 53 95 48 89 Q 41 75 45 69 Q 59 53 57 43 Q 57 37 62 40 Q 67 43 69 50 L 67 60" fill="#0000ff" clip-path="url(#clip-mask-2)" /><path d="M 69 50 Q 184 34 188 34 Q 205 32 211 38 L 192 45 Q 189 44 183 44 Q 119 48 77 60 Q 72 61 67 60" fill="#0000ff" clip-path="url(#clip-mask-3)" /><path d="M 211 38 Q 228 54 228 57 Q 228 59 218 60 Q 206 61 190 69 Q 185 71 183 70 Q 182 68 185 65 Q 196 48 196 47 Q 196 45 192 45" fill="#0000ff" clip-path="url(#clip-mask-4)" /><path d="M 79 90 Q 94 74 94 68 Q 94 65 96 65 Q 99 65 104 68 Q 109 72 112 76 Q 114 80 109 82 Q 102 84 92 90 Q 88 91 83 93" fill="#000080" clip-path="url(#clip-mask-5)" /><path d="M 87 142 Q 84 139 83 134 Q 76 109 67 95 Q 64 92 66 90 Q 66 89 70 89 Q 75 89 79 90 L 83 93 Q 84 94 84 95 Q 84 98 87 107 L 90 116 Q 91 122 94 130 Q 94 130 94 131 L 96 140 Q 96 142 96 143" fill="#000080" clip-path="url(#clip-mask-6)" /><path d="M 87 107 Q 88 107 88 107 Q 99 103 105 104 Q 111 104 115 108 Q 117 112 111 113 Q 102 114 90 116" fill="#000080" clip-path="url(#clip-mask-7)" /><path d="M 161 82 Q 160 81 155 82 Q 139 83 138 83 Q 133 81 132 78 Q 131 75 137 75 Q 151 74 163 70 Q 167 68 172 71 Q 179 76 184 81" fill="#000080" clip-path="url(#clip-mask-8)" /><path d="M 154 124 Q 156 123 159 105 L 160 98 Q 161 94 162 89 Q 163 83 161 82 L 184 81 Q 187 86 183 90 Q 176 99 174 112 Q 171 130 165 135 Q 158 142 153 133" fill="#000080" clip-path="url(#clip-mask-9)" /><path d="M 159 105 Q 150 105 136 106 Q 133 107 132 106 Q 127 102 131 101 Q 135 99 138 98 Q 154 93 160 98" fill="#000080" clip-path="url(#clip-mask-10)" /><path d="M 94 131 Q 109 129 127 125 Q 150 120 154 124 L 153 133 L 153 133 Q 114 135 96 139 Q 96 139 96 140" fill="#000080" clip-path="url(#clip-mask-11)" /><path d="M 80 176 L 66 181 Q 61 182 59 182 Q 55 182 58 179 Q 60 177 64 174 Q 86 160 87 143 Q 87 143 87 142 L 96 143 Q 99 147 103 151 Q 105 155 102 157 Q 99 159 96 162 L 90 167" fill="#000080" clip-path="url(#clip-mask-12)" /><path d="M 96 162 Q 121 162 151 157 Q 181 152 190 148 Q 196 145 201 147 Q 216 155 219 158 L 191 165 Q 187 157 108 174 Q 102 175 95 170 Q 92 168 90 167" fill="#000080" clip-path="url(#clip-mask-13)" /><path d="M 219 158 Q 221 161 217 165 Q 212 172 209 187 Q 203 227 196 240 Q 189 252 180 257 Q 174 263 169 256 L 180 225 Q 188 212 192 180 Q 194 169 191 165" fill="#000080" clip-path="url(#clip-mask-14)" /><path d="M 169 256 Q 164 247 155 236 Q 150 229 157 231 Q 161 233 166 233 Q 175 235 180 225" fill="#000080" clip-path="url(#clip-mask-15)" /><path d="M 44 191 L 46 190 Q 48 190 50 192 Q 54 197 56 205 Q 63 221 55 235 Q 51 241 48 237 Q 41 231 42 221 Q 44 207 44 194" fill="#000080" clip-path="url(#clip-mask-16)" /><path d="M 78 191 L 79 189 Q 79 187 81 187 Q 83 187 85 190 Q 93 197 95 201 Q 97 205 96 210 Q 95 214 92 216 Q 89 217 87 215 Q 82 210 79 196" fill="#000080" clip-path="url(#clip-mask-17)" /><path d="M 106 185 L 107 183 Q 107 180 109 180 Q 115 181 124 193 Q 126 196 125 202 Q 125 206 122 207 Q 119 209 117 207 Q 112 203 108 189" fill="#000080" clip-path="url(#clip-mask-18)" /><path d="M 138 182 L 138 180 Q 138 177 139 176 Q 142 175 156 183 Q 161 186 162 190 Q 163 197 161 200 Q 159 203 157 203 Q 153 202 151 199 Q 147 193 143 188" fill="#000080" clip-path="url(#clip-mask-19)" /></svg>