<svg xmlns="http://www.w3.org/2000/svg" xmlns:xlink="http://www.w3.org/1999/xlink" width="270" height="270"><defs><clipPath id="clip-mask-1"><rect x="112" y="22" width="35" height="138"><animate attributeName="y" from="-116" to="22" dur="0.511" begin="0; animate5.end + 1" id="animate1" fill="freeze"/></rect></clipPath><clipPath id="clip-mask-2"><rect x="94" y="125" width="27" height="32"><set attributeName="x" to="121" begin="0; animate5.end + 1" /><animate attributeName="x" from="121" to="94" dur="0.100" begin="animate1.end" id="animate2" fill="freeze"/></rect></clipPath><clipPath id="clip-mask-3"><rect x="38" y="74" width="35" height="66"><set attributeName="y" to="8" begin="0; animate5.end + 1" /><animate attributeName="y" from="8" to="74" dur="0.244" begin="animate2.end + 0.5" id="animate3" fill="freeze"/></rect></clipPath><clipPath id="clip-mask-4"><rect x="177" y="62" width="59" height="40"><set attributeName="x" to="118" begin="0; animate5.end + 1" /><animate attributeName="x" from="118" to="177" dur="0.219" begin="animate3.end + 0.5" id="animate4" fill="freeze"/></rect></clipPath><clipPath id="clip-mask-5"><rect x="33" y="102" width="159" height="145"><set attributeName="y" to="-43" begin="0; animate5.end + 1" /><animate attributeName="y" from="-43" to="102" dur="0.537" begin="animate4.end + 0.5" id="animate5" fill="freeze"/></rect></clipPath></defs><path d="M 0 0 L 270 270 M 270 0 L 0 270 M 135 0 L 135 270 M 0 135 L 270 135" stroke="#CCCCCC" /><path d="M 122 39 L 115 30 Q 112 27 114 25 Q 116 22 121 22 Q 131 24 141 31 Q 147 34 145 40 Q 136 62 140 126 Q 141 141 136 149 Q 132 157 128 159 Q 125 160 121 157 L 120 130 Q 123 128 123 123 Q 125 75 123 52" fill="#CCCCCC"/><path d="M 121 157 Q 115 148 101 136 Q 95 130 95 128 Q 94 125 98 126 Q 105 128 112 129 Q 117 131 120 130" fill="#CCCCCC"/><path d="M 65 74 L 67 74 Q 69 74 71 77 Q 73 85 71 94 Q 68 124 51 136 Q 45 140 43 135 Q 38 125 44 114 Q 55 96 64 77" fill="#CCCCCC"/><path d="M 179 74 L 178 71 Q 177 67 178 66 Q 183 62 214 70 Q 228 75 232 83 Q 236 91 235 96 Q 235 100 231 101 Q 227 102 222 99 Q 204 88 188 79" fill="#CCCCCC"/><path d="M 165 102 L 170 102 Q 174 102 180 108 Q 189 115 191 119 Q 192 123 189 126 Q 181 135 174 145 Q 137 205 94 227 Q 70 241 43 247 Q 39 247 37 246 Q 33 243 43 240 Q 65 227 100 204 Q 160 159 165 108" fill="#CCCCCC"/><path d="M 122 39 L 115 30 Q 112 27 114 25 Q 116 22 121 22 Q 131 24 141 31 Q 147 34 145 40 Q 136 62 140 126 Q 141 141 136 149 Q 132 157 128 159 Q 125 160 121 157 L 120 130 Q 123 128 123 123 Q 125 75 123 52" fill="#0000ff" clip-path="url(#clip-mask-1)" /><path d="M 121 157 Q 115 148 101 136 Q 95 130 95 128 Q 94 125 98 126 Q 105 128 112 129 Q 117 131 120 130" fill="#0000ff" clip-path="url(#clip-mask-2)" /><path d="M 65 74 L 67 74 Q 69 74 71 77 Q 73 85 71 94 Q 68 124 51 136 Q 45 140 43 135 Q 38 125 44 114 Q 55 96 64 77" fill="#0000ff" clip-path="url(#clip-mask-3)" /><path d="M 179 74 L 178 71 Q 177 67 178 66 Q 183 62 214 70 Q 228 75 232 83 Q 236 91 235 96 Q 235 100 231 101 Q 227 102 222 99 Q 204 88 188 79" fill="#0000ff" clip-path="url(#clip-mask-4)" /><path d="M 165 102 L 170 102 Q 174 102 180 108 Q 189 115 191 119 Q 192 123 189 126 Q 181 135 174 145 Q 137 205 94 227 Q 70 241 43 247 Q 39 247 37 246 Q 33 243 43 240 Q 65 227 100 204 Q 160 159 165 108" fill="#000080" clip-path="url(#clip-mask-5)" /></svg>