<svg xmlns="http://www.w3.org/2000/svg" xmlns:xlink="http://www.w3.org/1999/xlink" width="270" height="270"><defs><clipPath id="clip-mask-1"><rect x="70" y="28" width="133" height="30"><animate attributeName="x" from="-63" to="70" dur="0.493" begin="0; animate5.end + 1" id="animate1" fill="freeze"/></rect></clipPath><clipPath id="clip-mask-2"><rect x="161" y="43" width="47" height="77"><set attributeName="y" to="-34" begin="0; animate5.end + 1" /><animate attributeName="y" from="-34" to="43" dur="0.285" begin="animate1.end" id="animate2" fill="freeze"/></rect></clipPath><clipPath id="clip-mask-3"><rect x="19" y="68" width="231" height="42"><set attributeName="x" to="-212" begin="0; animate5.end + 1" /><animate attributeName="x" from="-212" to="19" dur="0.856" begin="animate2.end + 0.5" id="animate3" fill="freeze"/></rect></clipPath><clipPath id="clip-mask-4"><rect x="50" y="119" width="140" height="27"><set attributeName="x" to="-90" begin="0; animate5.end + 1" /><animate attributeName="x" from="-90" to="50" dur="0.519" begin="animate3.end + 0.5" id="animate4" fill="freeze"/></rect></clipPath><clipPath id="clip-mask-5"><rect x="31" y="52" width="102" height="189"><set attributeName="y" to="-137" begin="0; animate5.end + 1" /><animate attributeName="y" from="-137" to="52" dur="0.700" begin="animate4.end + 0.5" id="animate5" fill="freeze"/></rect></clipPath></defs><path d="M 0 0 L 270 270 M 270 0 L 0 270 M 135 0 L 135 270 M 0 135 L 270 135" stroke="#CCCCCC" /><path d="M 102 55 Q 98 55 94 56 Q 84 58 77 55 Q 72 53 71 51 Q 70 48 75 48 Q 129 44 168 31 Q 175 28 181 30 Q 197 39 203 43 L 170 47 Q 167 43 159 45 Q 139 48 120 52" fill="#CCCCCC"/><path d="M 171 78 Q 173 70 174 62 Q 175 52 170 47 L 203 43 Q 208 49 202 55 Q 193 63 189 76 L 185 88 Q 181 100 178 119 L 161 120 Q 165 105 169 89" fill="#CCCCCC"/><path d="M 69 99 L 43 109 Q 39 110 36 110 Q 28 107 24 103 Q 19 100 19 96 Q 19 93 23 93 Q 43 94 70 90 Q 88 87 110 85 L 127 83 Q 147 81 171 78 L 189 76 Q 189 76 190 76 Q 206 74 218 70 Q 225 68 228 70 Q 240 75 248 82 Q 250 85 249 89 Q 247 91 241 90 Q 210 87 185 88 L 169 89 Q 145 90 126 93 L 110 95" fill="#CCCCCC"/><path d="M 122 127 Q 127 126 161 120 L 178 119 Q 183 122 184 122 Q 190 126 190 129 Q 188 132 184 132 Q 147 135 119 139 L 104 141 Q 89 142 77 145 Q 65 146 56 139 Q 50 134 58 133 Q 104 130 106 130" fill="#CCCCCC"/><path d="M 110 85 Q 110 82 110 79 Q 110 63 102 55 L 120 52 Q 126 55 130 59 Q 133 61 131 64 Q 128 74 127 83 L 126 93 Q 125 96 125 100 Q 124 114 122 127 L 119 139 Q 114 168 100 191 Q 92 205 80 215 Q 64 229 54 234 Q 39 241 35 241 Q 31 241 32 239 Q 33 238 36 236 Q 51 226 61 217 Q 95 187 104 141 L 106 130 Q 109 114 110 95" fill="#CCCCCC"/><path d="M 102 55 Q 98 55 94 56 Q 84 58 77 55 Q 72 53 71 51 Q 70 48 75 48 Q 129 44 168 31 Q 175 28 181 30 Q 197 39 203 43 L 170 47 Q 167 43 159 45 Q 139 48 120 52" fill="#0000ff" clip-path="url(#clip-mask-1)" /><path d="M 171 78 Q 173 70 174 62 Q 175 52 170 47 L 203 43 Q 208 49 202 55 Q 193 63 189 76 L 185 88 Q 181 100 178 119 L 161 120 Q 165 105 169 89" fill="#0000ff" clip-path="url(#clip-mask-2)" /><path d="M 69 99 L 43 109 Q 39 110 36 110 Q 28 107 24 103 Q 19 100 19 96 Q 19 93 23 93 Q 43 94 70 90 Q 88 87 110 85 L 127 83 Q 147 81 171 78 L 189 76 Q 189 76 190 76 Q 206 74 218 70 Q 225 68 228 70 Q 240 75 248 82 Q 250 85 249 89 Q 247 91 241 90 Q 210 87 185 88 L 169 89 Q 145 90 126 93 L 110 95" fill="#000080" clip-path="url(#clip-mask-3)" /><path d="M 122 127 Q 127 126 161 120 L 178 119 Q 183 122 184 122 Q 190 126 190 129 Q 188 132 184 132 Q 147 135 119 139 L 104 141 Q 89 142 77 145 Q 65 146 56 139 Q 50 134 58 133 Q 104 130 106 130" fill="#0000ff" clip-path="url(#clip-mask-4)" /><path d="M 110 85 Q 110 82 110 79 Q 110 63 102 55 L 120 52 Q 126 55 130 59 Q 133 61 131 64 Q 128 74 127 83 L 126 93 Q 125 96 125 100 Q 124 114 122 127 L 119 139 Q 114 168 100 191 Q 92 205 80 215 Q 64 229 54 234 Q 39 241 35 241 Q 31 241 32 239 Q 33 238 36 236 Q 51 226 61 217 Q 95 187 104 141 L 106 130 Q 109 114 110 95" fill="#0000ff" clip-path="url(#clip-mask-5)" /></svg>