<svg xmlns="http://www.w3.org/2000/svg" xmlns:xlink="http://www.w3.org/1999/xlink" width="270" height="270"><defs><clipPath id="clip-mask-1"><rect x="93" y="29" width="100" height="28"><animate attributeName="x" from="-7" to="93" dur="0.370" begin="0; animate11.end + 1" id="animate1" fill="freeze"/></rect></clipPath><clipPath id="clip-mask-2"><rect x="160" y="43" width="37" height="35"><set attributeName="y" to="8" begin="0; animate11.end + 1" /><animate attributeName="y" from="8" to="43" dur="0.130" begin="animate1.end" id="animate2" fill="freeze"/></rect></clipPath><clipPath id="clip-mask-3"><rect x="90" y="75" width="90" height="23"><set attributeName="x" to="0" begin="0; animate11.end + 1" /><animate attributeName="x" from="0" to="90" dur="0.333" begin="animate2.end + 0.5" id="animate3" fill="freeze"/></rect></clipPath><clipPath id="clip-mask-4"><rect x="15" y="38" width="83" height="202"><set attributeName="y" to="-164" begin="0; animate11.end + 1" /><animate attributeName="y" from="-164" to="38" dur="0.748" begin="animate3.end + 0.5" id="animate4" fill="freeze"/></rect></clipPath><clipPath id="clip-mask-5"><rect x="108" y="141" width="37" height="17"><set attributeName="x" to="71" begin="0; animate11.end + 1" /><animate attributeName="x" from="71" to="108" dur="0.137" begin="animate4.end + 0.5" id="animate5" fill="freeze"/></rect></clipPath><clipPath id="clip-mask-6"><rect x="79" y="124" width="32" height="106"><set attributeName="y" to="18" begin="0; animate11.end + 1" /><animate attributeName="y" from="18" to="124" dur="0.393" begin="animate5.end + 0.5" id="animate6" fill="freeze"/></rect></clipPath><clipPath id="clip-mask-7"><rect x="92" y="185" width="45" height="41"><set attributeName="x" to="47" begin="0; animate11.end + 1" /><animate attributeName="x" from="47" to="92" dur="0.167" begin="animate6.end" id="animate7" fill="freeze"/></rect></clipPath><clipPath id="clip-mask-8"><rect x="162" y="116" width="63" height="41"><set attributeName="x" to="225" begin="0; animate11.end + 1" /><animate attributeName="x" from="225" to="162" dur="0.233" begin="animate7.end + 0.5" id="animate8" fill="freeze"/></rect></clipPath><clipPath id="clip-mask-9"><rect x="145" y="99" width="26" height="112"><set attributeName="y" to="-13" begin="0; animate11.end + 1" /><animate attributeName="y" from="-13" to="99" dur="0.415" begin="animate8.end + 0.5" id="animate9" fill="freeze"/></rect></clipPath><clipPath id="clip-mask-10"><rect x="157" y="203" width="97" height="32"><set attributeName="x" to="60" begin="0; animate11.end + 1" /><animate attributeName="x" from="60" to="157" dur="0.359" begin="animate9.end" id="animate10" fill="freeze"/></rect></clipPath><clipPath id="clip-mask-11"><rect x="221" y="172" width="30" height="44"><set attributeName="y" to="216" begin="0; animate11.end + 1" /><animate attributeName="y" from="216" to="172" dur="0.163" begin="animate10.end" id="animate11" fill="freeze"/></rect></clipPath></defs><path d="M 0 0 L 270 270 M 270 0 L 0 270 M 135 0 L 135 270 M 0 135 L 270 135" stroke="#CCCCCC" /><path d="M 165 47 Q 162 44 156 45 Q 129 51 102 56 Q 100 57 98 57 L 93 48 Q 134 42 162 31 Q 168 29 173 31 Q 188 39 193 43" fill="#CCCCCC"/><path d="M 160 75 Q 168 51 165 47 L 193 43 Q 197 49 192 54 Q 183 59 175 78" fill="#CCCCCC"/><path d="M 180 82 L 180 83 Q 180 86 177 86 Q 123 91 98 98 Q 94 98 91 98 Q 90 97 90 97 L 91 89 Q 121 85 159 75 Q 160 75 160 75 L 175 78" fill="#CCCCCC"/><path d="M 90 97 Q 82 149 62 187 Q 57 197 52 205 Q 27 238 18 239 Q 15 240 16 237 Q 17 235 18 233 Q 44 196 57 168 Q 70 137 78 75 Q 80 55 74 46 Q 73 42 76 40 Q 82 38 93 48 L 98 57 Q 94 71 91 89" fill="#CCCCCC"/><path d="M 110 148 L 112 148 Q 116 146 121 145 Q 127 141 135 141 Q 142 142 144 145 Q 145 146 143 149 Q 143 150 139 151 Q 112 158 108 158 L 108 149" fill="#CCCCCC"/><path d="M 108 158 Q 106 175 104 196 L 92 226 Q 89 230 86 228 Q 82 225 81 219 Q 79 213 82 209 Q 92 198 93 186 Q 98 152 90 130 Q 88 126 91 125 Q 94 124 98 126 Q 103 129 109 134 Q 111 137 109 140 Q 108 144 108 149" fill="#CCCCCC"/><path d="M 104 196 Q 104 198 107 197 Q 131 185 135 185 Q 137 185 136 187 Q 135 189 130 192 Q 96 220 92 226" fill="#CCCCCC"/><path d="M 194 129 L 194 122 Q 194 118 196 117 Q 204 116 222 125 Q 225 128 224 131 Q 224 133 219 134 Q 209 137 197 143 Q 188 148 162 157 L 162 151" fill="#CCCCCC"/><path d="M 162 157 Q 162 161 162 165 Q 162 192 167 203 L 157 211 Q 150 197 151 130 Q 152 115 147 106 Q 145 101 149 100 Q 153 99 166 108 Q 171 113 168 120 Q 164 131 162 151" fill="#CCCCCC"/><path d="M 167 203 Q 168 207 175 211 Q 182 215 198 217 Q 212 218 221 216 L 251 215 Q 254 223 245 227 Q 239 232 220 234 Q 198 235 185 231 Q 165 225 157 211" fill="#CCCCCC"/><path d="M 221 216 Q 229 215 230 210 Q 235 205 239 177 Q 240 172 242 173 Q 244 174 244 178 Q 246 201 251 215" fill="#CCCCCC"/><path d="M 165 47 Q 162 44 156 45 Q 129 51 102 56 Q 100 57 98 57 L 93 48 Q 134 42 162 31 Q 168 29 173 31 Q 188 39 193 43" fill="#0000ff" clip-path="url(#clip-mask-1)" /><path d="M 160 75 Q 168 51 165 47 L 193 43 Q 197 49 192 54 Q 183 59 175 78" fill="#0000ff" clip-path="url(#clip-mask-2)" /><path d="M 180 82 L 180 83 Q 180 86 177 86 Q 123 91 98 98 Q 94 98 91 98 Q 90 97 90 97 L 91 89 Q 121 85 159 75 Q 160 75 160 75 L 175 78" fill="#0000ff" clip-path="url(#clip-mask-3)" /><path d="M 90 97 Q 82 149 62 187 Q 57 197 52 205 Q 27 238 18 239 Q 15 240 16 237 Q 17 235 18 233 Q 44 196 57 168 Q 70 137 78 75 Q 80 55 74 46 Q 73 42 76 40 Q 82 38 93 48 L 98 57 Q 94 71 91 89" fill="#0000ff" clip-path="url(#clip-mask-4)" /><path d="M 110 148 L 112 148 Q 116 146 121 145 Q 127 141 135 141 Q 142 142 144 145 Q 145 146 143 149 Q 143 150 139 151 Q 112 158 108 158 L 108 149" fill="#000080" clip-path="url(#clip-mask-5)" /><path d="M 108 158 Q 106 175 104 196 L 92 226 Q 89 230 86 228 Q 82 225 81 219 Q 79 213 82 209 Q 92 198 93 186 Q 98 152 90 130 Q 88 126 91 125 Q 94 124 98 126 Q 103 129 109 134 Q 111 137 109 140 Q 108 144 108 149" fill="#000080" clip-path="url(#clip-mask-6)" /><path d="M 104 196 Q 104 198 107 197 Q 131 185 135 185 Q 137 185 136 187 Q 135 189 130 192 Q 96 220 92 226" fill="#000080" clip-path="url(#clip-mask-7)" /><path d="M 194 129 L 194 122 Q 194 118 196 117 Q 204 116 222 125 Q 225 128 224 131 Q 224 133 219 134 Q 209 137 197 143 Q 188 148 162 157 L 162 151" fill="#000080" clip-path="url(#clip-mask-8)" /><path d="M 162 157 Q 162 161 162 165 Q 162 192 167 203 L 157 211 Q 150 197 151 130 Q 152 115 147 106 Q 145 101 149 100 Q 153 99 166 108 Q 171 113 168 120 Q 164 131 162 151" fill="#000080" clip-path="url(#clip-mask-9)" /><path d="M 167 203 Q 168 207 175 211 Q 182 215 198 217 Q 212 218 221 216 L 251 215 Q 254 223 245 227 Q 239 232 220 234 Q 198 235 185 231 Q 165 225 157 211" fill="#000080" clip-path="url(#clip-mask-10)" /><path d="M 221 216 Q 229 215 230 210 Q 235 205 239 177 Q 240 172 242 173 Q 244 174 244 178 Q 246 201 251 215" fill="#000080" clip-path="url(#clip-mask-11)" /></svg>