<svg xmlns="http://www.w3.org/2000/svg" xmlns:xlink="http://www.w3.org/1999/xlink" width="270" height="270"><defs><clipPath id="clip-mask-1"><rect x="136" y="10" width="24" height="48"><animate attributeName="y" from="-38" to="10" dur="0.178" begin="0; animate9.end + 1" id="animate1" fill="freeze"/></rect></clipPath><clipPath id="clip-mask-2"><rect x="82" y="30" width="26" height="55"><set attributeName="y" to="-25" begin="0; animate9.end + 1" /><animate attributeName="y" from="-25" to="30" dur="0.204" begin="animate1.end + 0.5" id="animate2" fill="freeze"/></rect></clipPath><clipPath id="clip-mask-3"><rect x="96" y="52" width="96" height="31"><set attributeName="x" to="0" begin="0; animate9.end + 1" /><animate attributeName="x" from="0" to="96" dur="0.356" begin="animate2.end" id="animate3" fill="freeze"/></rect></clipPath><clipPath id="clip-mask-4"><rect x="190" y="16" width="27" height="61"><set attributeName="y" to="-45" begin="0; animate9.end + 1" /><animate attributeName="y" from="-45" to="16" dur="0.226" begin="animate3.end + 0.5" id="animate4" fill="freeze"/></rect></clipPath><clipPath id="clip-mask-5"><rect x="102" y="83" width="107" height="30"><set attributeName="x" to="-5" begin="0; animate9.end + 1" /><animate attributeName="x" from="-5" to="102" dur="0.396" begin="animate4.end + 0.5" id="animate5" fill="freeze"/></rect></clipPath><clipPath id="clip-mask-6"><rect x="29" y="89" width="74" height="141"><set attributeName="y" to="-52" begin="0; animate9.end + 1" /><animate attributeName="y" from="-52" to="89" dur="0.522" begin="animate5.end + 0.5" id="animate6" fill="freeze"/></rect></clipPath><clipPath id="clip-mask-7"><rect x="108" y="114" width="93" height="26"><set attributeName="x" to="15" begin="0; animate9.end + 1" /><animate attributeName="x" from="15" to="108" dur="0.344" begin="animate6.end + 0.5" id="animate7" fill="freeze"/></rect></clipPath><clipPath id="clip-mask-8"><rect x="84" y="147" width="156" height="36"><set attributeName="x" to="-72" begin="0; animate9.end + 1" /><animate attributeName="x" from="-72" to="84" dur="0.578" begin="animate7.end + 0.5" id="animate8" fill="freeze"/></rect></clipPath><clipPath id="clip-mask-9"><rect x="142" y="133" width="20" height="126"><set attributeName="y" to="7" begin="0; animate9.end + 1" /><animate attributeName="y" from="7" to="133" dur="0.467" begin="animate8.end + 0.5" id="animate9" fill="freeze"/></rect></clipPath></defs><path d="M 0 0 L 270 270 M 270 0 L 0 270 M 135 0 L 135 270 M 0 135 L 270 135" stroke="#CCCCCC" /><path d="M 141 58 Q 142 23 137 17 Q 136 14 137 12 Q 139 10 143 11 Q 148 12 155 17 Q 160 20 159 22 Q 154 39 151 57" fill="#CCCCCC"/><path d="M 96 83 Q 93 85 90 83 Q 86 80 83 76 Q 82 73 86 69 Q 90 64 92 56 Q 94 46 91 36 Q 89 31 92 30 Q 95 30 97 32 Q 103 35 106 40 Q 108 43 105 61" fill="#CCCCCC"/><path d="M 184 60 L 160 64 Q 104 74 96 83 L 105 61 Q 103 66 108 65 Q 123 61 141 58 L 151 57 Q 170 54 192 52 L 190 62" fill="#CCCCCC"/><path d="M 192 52 Q 196 46 197 38 Q 197 24 195 22 Q 195 18 197 18 Q 200 16 203 19 Q 211 25 215 29 Q 217 33 215 36 Q 214 37 208 48 Q 205 69 198 75 Q 194 77 193 73 Q 191 68 190 62" fill="#CCCCCC"/><path d="M 103 102 Q 136 99 162 92 Q 192 83 199 85 Q 206 87 208 90 Q 209 92 206 94 Q 204 96 189 99 Q 156 105 124 111 Q 114 113 102 109" fill="#CCCCCC"/><path d="M 99 115 L 96 130 Q 85 169 68 197 Q 64 201 61 206 Q 39 230 31 230 Q 29 230 30 228 Q 30 226 32 225 Q 51 203 63 181 Q 66 175 69 169 Q 90 109 83 95 Q 81 92 85 90 Q 88 89 93 93 Q 99 97 103 102 L 102 109" fill="#CCCCCC"/><path d="M 143 136 L 139 137 Q 124 140 114 133 Q 108 129 117 128 Q 138 126 164 121 Q 184 114 191 116 Q 199 118 200 121 Q 201 123 199 125 Q 198 127 186 129 Q 174 131 162 133 L 146 136" fill="#CCCCCC"/><path d="M 162 159 Q 193 153 212 149 Q 222 147 236 157 Q 240 161 239 164 Q 237 167 221 166 Q 185 166 161 170 L 145 172 Q 126 174 109 179 Q 97 183 88 174 Q 84 170 90 169 Q 119 165 145 162" fill="#CCCCCC"/><path d="M 162 133 Q 162 146 162 159 L 161 170 Q 160 188 160 206 Q 160 241 155 252 Q 152 259 149 256 Q 142 249 145 172 L 145 162 Q 146 149 146 136" fill="#CCCCCC"/><path d="M 141 58 Q 142 23 137 17 Q 136 14 137 12 Q 139 10 143 11 Q 148 12 155 17 Q 160 20 159 22 Q 154 39 151 57" fill="#0000ff" clip-path="url(#clip-mask-1)" /><path d="M 96 83 Q 93 85 90 83 Q 86 80 83 76 Q 82 73 86 69 Q 90 64 92 56 Q 94 46 91 36 Q 89 31 92 30 Q 95 30 97 32 Q 103 35 106 40 Q 108 43 105 61" fill="#0000ff" clip-path="url(#clip-mask-2)" /><path d="M 184 60 L 160 64 Q 104 74 96 83 L 105 61 Q 103 66 108 65 Q 123 61 141 58 L 151 57 Q 170 54 192 52 L 190 62" fill="#0000ff" clip-path="url(#clip-mask-3)" /><path d="M 192 52 Q 196 46 197 38 Q 197 24 195 22 Q 195 18 197 18 Q 200 16 203 19 Q 211 25 215 29 Q 217 33 215 36 Q 214 37 208 48 Q 205 69 198 75 Q 194 77 193 73 Q 191 68 190 62" fill="#0000ff" clip-path="url(#clip-mask-4)" /><path d="M 103 102 Q 136 99 162 92 Q 192 83 199 85 Q 206 87 208 90 Q 209 92 206 94 Q 204 96 189 99 Q 156 105 124 111 Q 114 113 102 109" fill="#000080" clip-path="url(#clip-mask-5)" /><path d="M 99 115 L 96 130 Q 85 169 68 197 Q 64 201 61 206 Q 39 230 31 230 Q 29 230 30 228 Q 30 226 32 225 Q 51 203 63 181 Q 66 175 69 169 Q 90 109 83 95 Q 81 92 85 90 Q 88 89 93 93 Q 99 97 103 102 L 102 109" fill="#000080" clip-path="url(#clip-mask-6)" /><path d="M 143 136 L 139 137 Q 124 140 114 133 Q 108 129 117 128 Q 138 126 164 121 Q 184 114 191 116 Q 199 118 200 121 Q 201 123 199 125 Q 198 127 186 129 Q 174 131 162 133 L 146 136" fill="#000080" clip-path="url(#clip-mask-7)" /><path d="M 162 159 Q 193 153 212 149 Q 222 147 236 157 Q 240 161 239 164 Q 237 167 221 166 Q 185 166 161 170 L 145 172 Q 126 174 109 179 Q 97 183 88 174 Q 84 170 90 169 Q 119 165 145 162" fill="#000080" clip-path="url(#clip-mask-8)" /><path d="M 162 133 Q 162 146 162 159 L 161 170 Q 160 188 160 206 Q 160 241 155 252 Q 152 259 149 256 Q 142 249 145 172 L 145 162 Q 146 149 146 136" fill="#000080" clip-path="url(#clip-mask-9)" /></svg>