<svg xmlns="http://www.w3.org/2000/svg" xmlns:xlink="http://www.w3.org/1999/xlink" width="270" height="270"><defs><clipPath id="clip-mask-1"><rect x="42" y="44" width="29" height="112"><animate attributeName="y" from="-68" to="44" dur="0.415" begin="0; animate11.end + 1" id="animate1" fill="freeze"/></rect></clipPath><clipPath id="clip-mask-2"><rect x="9" y="116" width="23" height="67"><set attributeName="y" to="49" begin="0; animate11.end + 1" /><animate attributeName="y" from="49" to="116" dur="0.248" begin="animate1.end + 0.5" id="animate2" fill="freeze"/></rect></clipPath><clipPath id="clip-mask-3"><rect x="24" y="147" width="57" height="34"><set attributeName="x" to="-33" begin="0; animate11.end + 1" /><animate attributeName="x" from="-33" to="24" dur="0.211" begin="animate2.end" id="animate3" fill="freeze"/></rect></clipPath><clipPath id="clip-mask-4"><rect x="79" y="107" width="22" height="62"><set attributeName="y" to="45" begin="0; animate11.end + 1" /><animate attributeName="y" from="45" to="107" dur="0.230" begin="animate3.end + 0.5" id="animate4" fill="freeze"/></rect></clipPath><clipPath id="clip-mask-5"><rect x="109" y="68" width="104" height="27"><set attributeName="x" to="5" begin="0; animate11.end + 1" /><animate attributeName="x" from="5" to="109" dur="0.385" begin="animate4.end + 0.5" id="animate5" fill="freeze"/></rect></clipPath><clipPath id="clip-mask-6"><rect x="97" y="108" width="39" height="62"><set attributeName="y" to="46" begin="0; animate11.end + 1" /><animate attributeName="y" from="46" to="108" dur="0.230" begin="animate5.end + 0.5" id="animate6" fill="freeze"/></rect></clipPath><clipPath id="clip-mask-7"><rect x="120" y="142" width="22" height="20"><set attributeName="x" to="98" begin="0; animate11.end + 1" /><animate attributeName="x" from="98" to="120" dur="0.081" begin="animate6.end + 0.5" id="animate7" fill="freeze"/></rect></clipPath><clipPath id="clip-mask-8"><rect x="166" y="97" width="44" height="62"><set attributeName="y" to="35" begin="0; animate11.end + 1" /><animate attributeName="y" from="35" to="97" dur="0.230" begin="animate7.end + 0.5" id="animate8" fill="freeze"/></rect></clipPath><clipPath id="clip-mask-9"><rect x="190" y="135" width="34" height="26"><set attributeName="x" to="156" begin="0; animate11.end + 1" /><animate attributeName="x" from="156" to="190" dur="0.126" begin="animate8.end + 0.5" id="animate9" fill="freeze"/></rect></clipPath><clipPath id="clip-mask-10"><rect x="71" y="23" width="104" height="223"><set attributeName="y" to="-200" begin="0; animate11.end + 1" /><animate attributeName="y" from="-200" to="23" dur="0.826" begin="animate9.end + 0.5" id="animate10" fill="freeze"/></rect></clipPath><clipPath id="clip-mask-11"><rect x="161" y="167" width="99" height="78"><set attributeName="x" to="62" begin="0; animate11.end + 1" /><animate attributeName="x" from="62" to="161" dur="0.367" begin="animate10.end + 0.5" id="animate11" fill="freeze"/></rect></clipPath></defs><path d="M 0 0 L 270 270 M 270 0 L 0 270 M 135 0 L 135 270 M 0 135 L 270 135" stroke="#CCCCCC" /><path d="M 50 156 Q 52 108 50 67 Q 50 61 44 52 Q 42 48 44 46 Q 46 44 50 45 Q 56 46 65 51 Q 71 55 70 57 Q 65 76 61 152" fill="#CCCCCC"/><path d="M 24 181 Q 21 183 18 181 Q 14 179 11 176 Q 9 173 13 168 Q 18 163 19 149 Q 21 136 15 122 Q 13 118 15 117 Q 21 116 30 124 Q 32 128 29 159" fill="#CCCCCC"/><path d="M 76 157 L 73 158 Q 32 170 24 181 L 29 159 Q 29 163 33 162 Q 40 158 50 156 L 61 152 Q 70 149 81 147 L 79 157" fill="#CCCCCC"/><path d="M 81 147 Q 86 121 83 113 Q 83 109 85 108 Q 87 107 90 108 Q 93 111 97 113 Q 101 117 99 122 Q 94 135 93 149 Q 91 162 87 166 Q 85 169 83 166 Q 79 160 79 157" fill="#CCCCCC"/><path d="M 154 91 Q 148 91 144 92 Q 123 95 115 90 Q 109 85 118 84 Q 137 82 153 80 L 167 77 Q 177 74 188 70 Q 196 68 203 69 Q 210 71 212 75 Q 213 77 211 78 Q 209 80 196 83 Q 180 85 166 88" fill="#CCCCCC"/><path d="M 108 166 L 100 169 Q 97 170 98 166 Q 100 163 104 157 Q 121 132 116 113 Q 115 110 117 109 Q 122 108 133 113 Q 136 116 134 119 Q 128 130 123 142 L 120 148" fill="#CCCCCC"/><path d="M 123 142 Q 136 146 140 151 Q 142 155 142 158 Q 141 162 137 162 Q 132 162 120 148" fill="#CCCCCC"/><path d="M 175 157 L 169 158 Q 166 159 168 156 Q 170 152 174 147 Q 193 122 189 103 Q 188 100 190 99 Q 196 97 207 104 Q 210 108 208 111 Q 203 118 199 127 Q 197 131 194 135 L 190 140" fill="#CCCCCC"/><path d="M 194 135 Q 203 136 211 139 Q 220 143 222 149 Q 224 154 223 158 Q 222 160 220 160 Q 217 161 214 158 Q 204 150 194 144 Q 191 141 190 140" fill="#CCCCCC"/><path d="M 155 203 L 136 220 Q 119 235 95 241 Q 80 246 75 245 Q 72 244 71 243 Q 72 242 75 240 Q 111 226 127 211 Q 134 204 139 196 Q 154 170 154 91 L 153 80 Q 153 67 153 54 Q 152 41 145 31 Q 143 27 145 25 Q 148 23 155 25 Q 166 28 172 33 Q 175 36 173 41 Q 167 56 167 77 L 166 88 Q 164 155 162 167 L 161 176" fill="#CCCCCC"/><path d="M 162 167 Q 180 186 196 201 Q 216 221 256 238 Q 260 240 260 241 Q 260 243 257 243 Q 248 245 219 245 Q 211 245 206 239 Q 180 207 161 176" fill="#CCCCCC"/><path d="M 50 156 Q 52 108 50 67 Q 50 61 44 52 Q 42 48 44 46 Q 46 44 50 45 Q 56 46 65 51 Q 71 55 70 57 Q 65 76 61 152" fill="#0000ff" clip-path="url(#clip-mask-1)" /><path d="M 24 181 Q 21 183 18 181 Q 14 179 11 176 Q 9 173 13 168 Q 18 163 19 149 Q 21 136 15 122 Q 13 118 15 117 Q 21 116 30 124 Q 32 128 29 159" fill="#0000ff" clip-path="url(#clip-mask-2)" /><path d="M 76 157 L 73 158 Q 32 170 24 181 L 29 159 Q 29 163 33 162 Q 40 158 50 156 L 61 152 Q 70 149 81 147 L 79 157" fill="#0000ff" clip-path="url(#clip-mask-3)" /><path d="M 81 147 Q 86 121 83 113 Q 83 109 85 108 Q 87 107 90 108 Q 93 111 97 113 Q 101 117 99 122 Q 94 135 93 149 Q 91 162 87 166 Q 85 169 83 166 Q 79 160 79 157" fill="#0000ff" clip-path="url(#clip-mask-4)" /><path d="M 154 91 Q 148 91 144 92 Q 123 95 115 90 Q 109 85 118 84 Q 137 82 153 80 L 167 77 Q 177 74 188 70 Q 196 68 203 69 Q 210 71 212 75 Q 213 77 211 78 Q 209 80 196 83 Q 180 85 166 88" fill="#000080" clip-path="url(#clip-mask-5)" /><path d="M 108 166 L 100 169 Q 97 170 98 166 Q 100 163 104 157 Q 121 132 116 113 Q 115 110 117 109 Q 122 108 133 113 Q 136 116 134 119 Q 128 130 123 142 L 120 148" fill="#000080" clip-path="url(#clip-mask-6)" /><path d="M 123 142 Q 136 146 140 151 Q 142 155 142 158 Q 141 162 137 162 Q 132 162 120 148" fill="#000080" clip-path="url(#clip-mask-7)" /><path d="M 175 157 L 169 158 Q 166 159 168 156 Q 170 152 174 147 Q 193 122 189 103 Q 188 100 190 99 Q 196 97 207 104 Q 210 108 208 111 Q 203 118 199 127 Q 197 131 194 135 L 190 140" fill="#000080" clip-path="url(#clip-mask-8)" /><path d="M 194 135 Q 203 136 211 139 Q 220 143 222 149 Q 224 154 223 158 Q 222 160 220 160 Q 217 161 214 158 Q 204 150 194 144 Q 191 141 190 140" fill="#000080" clip-path="url(#clip-mask-9)" /><path d="M 155 203 L 136 220 Q 119 235 95 241 Q 80 246 75 245 Q 72 244 71 243 Q 72 242 75 240 Q 111 226 127 211 Q 134 204 139 196 Q 154 170 154 91 L 153 80 Q 153 67 153 54 Q 152 41 145 31 Q 143 27 145 25 Q 148 23 155 25 Q 166 28 172 33 Q 175 36 173 41 Q 167 56 167 77 L 166 88 Q 164 155 162 167 L 161 176" fill="#000080" clip-path="url(#clip-mask-10)" /><path d="M 162 167 Q 180 186 196 201 Q 216 221 256 238 Q 260 240 260 241 Q 260 243 257 243 Q 248 245 219 245 Q 211 245 206 239 Q 180 207 161 176" fill="#000080" clip-path="url(#clip-mask-11)" /></svg>