<svg xmlns="http://www.w3.org/2000/svg" xmlns:xlink="http://www.w3.org/1999/xlink" width="270" height="270"><defs><clipPath id="clip-mask-1"><rect x="131" y="22" width="25" height="51"><animate attributeName="y" from="-29" to="22" dur="0.189" begin="0; animate14.end + 1" id="animate1" fill="freeze"/></rect></clipPath><clipPath id="clip-mask-2"><rect x="77" y="45" width="25" height="55"><set attributeName="y" to="-10" begin="0; animate14.end + 1" /><animate attributeName="y" from="-10" to="45" dur="0.204" begin="animate1.end + 0.5" id="animate2" fill="freeze"/></rect></clipPath><clipPath id="clip-mask-3"><rect x="91" y="65" width="99" height="33"><set attributeName="x" to="-8" begin="0; animate14.end + 1" /><animate attributeName="x" from="-8" to="91" dur="0.367" begin="animate2.end" id="animate3" fill="freeze"/></rect></clipPath><clipPath id="clip-mask-4"><rect x="188" y="29" width="28" height="60"><set attributeName="y" to="-31" begin="0; animate14.end + 1" /><animate attributeName="y" from="-31" to="29" dur="0.222" begin="animate3.end + 0.5" id="animate4" fill="freeze"/></rect></clipPath><clipPath id="clip-mask-5"><rect x="20" y="140" width="114" height="34"><set attributeName="x" to="-94" begin="0; animate14.end + 1" /><animate attributeName="x" from="-94" to="20" dur="0.422" begin="animate4.end + 0.5" id="animate5" fill="freeze"/></rect></clipPath><clipPath id="clip-mask-6"><rect x="49" y="107" width="24" height="130"><set attributeName="y" to="-23" begin="0; animate14.end + 1" /><animate attributeName="y" from="-23" to="107" dur="0.481" begin="animate5.end + 0.5" id="animate6" fill="freeze"/></rect></clipPath><clipPath id="clip-mask-7"><rect x="101" y="99" width="25" height="145"><set attributeName="y" to="-46" begin="0; animate14.end + 1" /><animate attributeName="y" from="-46" to="99" dur="0.537" begin="animate6.end + 0.5" id="animate7" fill="freeze"/></rect></clipPath><clipPath id="clip-mask-8"><rect x="71" y="179" width="32" height="13"><set attributeName="x" to="39" begin="0; animate14.end + 1" /><animate attributeName="x" from="39" to="71" dur="0.119" begin="animate7.end + 0.5" id="animate8" fill="freeze"/></rect></clipPath><clipPath id="clip-mask-9"><rect x="73" y="214" width="31" height="22"><set attributeName="x" to="42" begin="0; animate14.end + 1" /><animate attributeName="x" from="42" to="73" dur="0.115" begin="animate8.end + 0.5" id="animate9" fill="freeze"/></rect></clipPath><clipPath id="clip-mask-10"><rect x="133" y="92" width="43" height="74"><set attributeName="y" to="18" begin="0; animate14.end + 1" /><animate attributeName="y" from="18" to="92" dur="0.274" begin="animate9.end + 0.5" id="animate10" fill="freeze"/></rect></clipPath><clipPath id="clip-mask-11"><rect x="158" y="115" width="72" height="27"><set attributeName="x" to="86" begin="0; animate14.end + 1" /><animate attributeName="x" from="86" to="158" dur="0.267" begin="animate10.end + 0.5" id="animate11" fill="freeze"/></rect></clipPath><clipPath id="clip-mask-12"><rect x="198" y="125" width="39" height="32"><set attributeName="y" to="93" begin="0; animate14.end + 1" /><animate attributeName="y" from="93" to="125" dur="0.119" begin="animate11.end" id="animate12" fill="freeze"/></rect></clipPath><clipPath id="clip-mask-13"><rect x="120" y="154" width="63" height="88"><set attributeName="y" to="66" begin="0; animate14.end + 1" /><animate attributeName="y" from="66" to="154" dur="0.326" begin="animate12.end + 0.5" id="animate13" fill="freeze"/></rect></clipPath><clipPath id="clip-mask-14"><rect x="171" y="189" width="78" height="58"><set attributeName="x" to="93" begin="0; animate14.end + 1" /><animate attributeName="x" from="93" to="171" dur="0.289" begin="animate13.end + 0.5" id="animate14" fill="freeze"/></rect></clipPath></defs><path d="M 0 0 L 270 270 M 270 0 L 0 270 M 135 0 L 135 270 M 0 135 L 270 135" stroke="#CCCCCC" /><path d="M 137 73 Q 137 36 133 29 Q 131 26 133 24 Q 134 22 138 23 Q 144 24 152 29 Q 154 30 155 31 Q 156 34 153 45 Q 150 58 148 71" fill="#CCCCCC"/><path d="M 91 98 Q 89 100 86 98 Q 82 95 79 92 Q 77 88 82 84 Q 86 80 87 71 Q 89 61 85 51 Q 83 46 85 45 Q 88 45 90 46 Q 96 49 100 54 Q 102 58 99 76" fill="#CCCCCC"/><path d="M 182 73 L 158 78 Q 100 88 91 98 L 99 76 Q 98 82 102 81 Q 118 76 137 73 L 148 71 Q 168 67 190 65 L 188 74" fill="#CCCCCC"/><path d="M 190 65 Q 191 65 191 65 Q 201 46 195 34 Q 195 31 197 30 Q 200 29 203 32 Q 210 37 214 42 Q 216 46 213 49 Q 211 51 206 62 Q 202 81 195 87 Q 192 89 190 85 Q 189 81 188 74" fill="#CCCCCC"/><path d="M 86 149 L 108 144 L 118 141 Q 123 140 130 143 Q 134 145 134 148 Q 134 150 130 151 Q 123 152 118 153 L 108 154 Q 85 157 71 162 L 60 165 Q 52 167 44 170 Q 33 174 24 167 Q 20 164 21 161 Q 21 159 25 159 Q 37 158 60 154 L 71 152" fill="#CCCCCC"/><path d="M 71 162 Q 71 174 71 185 L 72 192 Q 72 202 72 210 Q 73 215 73 220 L 73 228 Q 73 229 73 229 Q 71 237 67 235 Q 64 234 62 228 Q 58 219 59 210 Q 61 187 60 165 L 60 154 Q 60 132 52 113 Q 49 109 52 108 Q 53 107 55 108 Q 63 111 69 116 Q 73 120 72 124 Q 71 137 71 152" fill="#CCCCCC"/><path d="M 108 144 Q 108 121 108 118 Q 108 112 104 106 Q 101 102 105 101 Q 108 99 115 103 Q 126 108 122 113 Q 118 126 118 141 L 118 153 Q 117 183 119 214 Q 119 228 115 237 Q 112 244 109 244 Q 106 243 104 237 L 104 220 Q 104 219 104 219 Q 106 218 106 214 Q 108 177 108 154" fill="#CCCCCC"/><path d="M 71 185 Q 86 179 92 179 Q 98 180 101 183 Q 103 186 98 187 Q 86 189 72 192" fill="#CCCCCC"/><path d="M 73 220 Q 94 214 98 215 Q 102 218 104 220 L 104 236 Q 103 228 97 224 Q 78 227 73 228" fill="#CCCCCC"/><path d="M 142 162 L 135 165 Q 133 166 133 164 Q 133 162 135 160 Q 163 110 155 97 Q 153 93 157 92 Q 161 92 167 94 Q 173 98 175 101 Q 176 103 175 106 Q 172 109 169 117 Q 165 124 162 131 L 158 136" fill="#CCCCCC"/><path d="M 162 131 Q 191 125 209 117 Q 213 115 220 119 Q 225 122 230 125 L 205 129 Q 198 127 171 139 Q 164 142 158 136" fill="#CCCCCC"/><path d="M 230 125 Q 237 129 237 132 Q 237 134 235 135 Q 225 139 203 154 Q 200 157 199 156 Q 198 155 200 152 Q 208 135 208 135 Q 209 132 205 129" fill="#CCCCCC"/><path d="M 165 218 L 151 229 Q 134 242 123 242 Q 120 241 123 239 Q 150 221 159 199 Q 167 170 161 160 Q 160 156 163 156 Q 169 154 180 162 Q 183 164 181 169 Q 180 170 174 189 L 171 199" fill="#CCCCCC"/><path d="M 174 189 Q 186 201 196 211 Q 213 225 246 240 Q 249 242 249 243 Q 248 244 247 245 Q 239 246 216 247 Q 209 247 205 243 Q 187 220 171 199" fill="#CCCCCC"/><path d="M 137 73 Q 137 36 133 29 Q 131 26 133 24 Q 134 22 138 23 Q 144 24 152 29 Q 154 30 155 31 Q 156 34 153 45 Q 150 58 148 71" fill="#0000ff" clip-path="url(#clip-mask-1)" /><path d="M 91 98 Q 89 100 86 98 Q 82 95 79 92 Q 77 88 82 84 Q 86 80 87 71 Q 89 61 85 51 Q 83 46 85 45 Q 88 45 90 46 Q 96 49 100 54 Q 102 58 99 76" fill="#0000ff" clip-path="url(#clip-mask-2)" /><path d="M 182 73 L 158 78 Q 100 88 91 98 L 99 76 Q 98 82 102 81 Q 118 76 137 73 L 148 71 Q 168 67 190 65 L 188 74" fill="#0000ff" clip-path="url(#clip-mask-3)" /><path d="M 190 65 Q 191 65 191 65 Q 201 46 195 34 Q 195 31 197 30 Q 200 29 203 32 Q 210 37 214 42 Q 216 46 213 49 Q 211 51 206 62 Q 202 81 195 87 Q 192 89 190 85 Q 189 81 188 74" fill="#0000ff" clip-path="url(#clip-mask-4)" /><path d="M 86 149 L 108 144 L 118 141 Q 123 140 130 143 Q 134 145 134 148 Q 134 150 130 151 Q 123 152 118 153 L 108 154 Q 85 157 71 162 L 60 165 Q 52 167 44 170 Q 33 174 24 167 Q 20 164 21 161 Q 21 159 25 159 Q 37 158 60 154 L 71 152" fill="#000080" clip-path="url(#clip-mask-5)" /><path d="M 71 162 Q 71 174 71 185 L 72 192 Q 72 202 72 210 Q 73 215 73 220 L 73 228 Q 73 229 73 229 Q 71 237 67 235 Q 64 234 62 228 Q 58 219 59 210 Q 61 187 60 165 L 60 154 Q 60 132 52 113 Q 49 109 52 108 Q 53 107 55 108 Q 63 111 69 116 Q 73 120 72 124 Q 71 137 71 152" fill="#000080" clip-path="url(#clip-mask-6)" /><path d="M 108 144 Q 108 121 108 118 Q 108 112 104 106 Q 101 102 105 101 Q 108 99 115 103 Q 126 108 122 113 Q 118 126 118 141 L 118 153 Q 117 183 119 214 Q 119 228 115 237 Q 112 244 109 244 Q 106 243 104 237 L 104 220 Q 104 219 104 219 Q 106 218 106 214 Q 108 177 108 154" fill="#000080" clip-path="url(#clip-mask-7)" /><path d="M 71 185 Q 86 179 92 179 Q 98 180 101 183 Q 103 186 98 187 Q 86 189 72 192" fill="#000080" clip-path="url(#clip-mask-8)" /><path d="M 73 220 Q 94 214 98 215 Q 102 218 104 220 L 104 236 Q 103 228 97 224 Q 78 227 73 228" fill="#000080" clip-path="url(#clip-mask-9)" /><path d="M 142 162 L 135 165 Q 133 166 133 164 Q 133 162 135 160 Q 163 110 155 97 Q 153 93 157 92 Q 161 92 167 94 Q 173 98 175 101 Q 176 103 175 106 Q 172 109 169 117 Q 165 124 162 131 L 158 136" fill="#000080" clip-path="url(#clip-mask-10)" /><path d="M 162 131 Q 191 125 209 117 Q 213 115 220 119 Q 225 122 230 125 L 205 129 Q 198 127 171 139 Q 164 142 158 136" fill="#000080" clip-path="url(#clip-mask-11)" /><path d="M 230 125 Q 237 129 237 132 Q 237 134 235 135 Q 225 139 203 154 Q 200 157 199 156 Q 198 155 200 152 Q 208 135 208 135 Q 209 132 205 129" fill="#000080" clip-path="url(#clip-mask-12)" /><path d="M 165 218 L 151 229 Q 134 242 123 242 Q 120 241 123 239 Q 150 221 159 199 Q 167 170 161 160 Q 160 156 163 156 Q 169 154 180 162 Q 183 164 181 169 Q 180 170 174 189 L 171 199" fill="#000080" clip-path="url(#clip-mask-13)" /><path d="M 174 189 Q 186 201 196 211 Q 213 225 246 240 Q 249 242 249 243 Q 248 244 247 245 Q 239 246 216 247 Q 209 247 205 243 Q 187 220 171 199" fill="#000080" clip-path="url(#clip-mask-14)" /></svg>