<svg xmlns="http://www.w3.org/2000/svg" xmlns:xlink="http://www.w3.org/1999/xlink" width="270" height="270"><defs><clipPath id="clip-mask-1"><rect x="42" y="96" width="28" height="53"><animate attributeName="y" from="43" to="96" dur="0.196" begin="0; animate6.end + 1" id="animate1" fill="freeze"/></rect></clipPath><clipPath id="clip-mask-2"><rect x="40" y="44" width="64" height="184"><set attributeName="y" to="-140" begin="0; animate6.end + 1" /><animate attributeName="y" from="-140" to="44" dur="0.681" begin="animate1.end + 0.5" id="animate2" fill="freeze"/></rect></clipPath><clipPath id="clip-mask-3"><rect x="111" y="99" width="20" height="34"><set attributeName="y" to="65" begin="0; animate6.end + 1" /><animate attributeName="y" from="65" to="99" dur="0.126" begin="animate2.end + 0.5" id="animate3" fill="freeze"/></rect></clipPath><clipPath id="clip-mask-4"><rect x="133" y="45" width="25" height="152"><set attributeName="y" to="-107" begin="0; animate6.end + 1" /><animate attributeName="y" from="-107" to="45" dur="0.563" begin="animate3.end + 0.5" id="animate4" fill="freeze"/></rect></clipPath><clipPath id="clip-mask-5"><rect x="167" y="92" width="28" height="40"><set attributeName="y" to="52" begin="0; animate6.end + 1" /><animate attributeName="y" from="52" to="92" dur="0.148" begin="animate4.end + 0.5" id="animate5" fill="freeze"/></rect></clipPath><clipPath id="clip-mask-6"><rect x="195" y="20" width="34" height="229"><set attributeName="y" to="-209" begin="0; animate6.end + 1" /><animate attributeName="y" from="-209" to="20" dur="0.848" begin="animate5.end + 0.5" id="animate6" fill="freeze"/></rect></clipPath></defs><path d="M 0 0 L 270 270 M 270 0 L 0 270 M 135 0 L 135 270 M 0 135 L 270 135" stroke="#CCCCCC" /><path d="M 63 96 L 65 96 Q 67 96 68 98 Q 70 105 69 114 Q 69 134 56 145 Q 50 149 48 144 Q 42 135 48 125 Q 56 113 62 98" fill="#CCCCCC"/><path d="M 74 46 L 80 44 Q 84 44 98 49 Q 104 52 103 58 Q 103 61 102 66 Q 103 106 100 132 Q 99 155 93 172 Q 87 189 75 203 Q 55 227 44 228 Q 40 228 41 227 Q 42 225 46 220 Q 71 193 78 173 Q 88 145 88 122 Q 89 88 86 72 Q 85 60 79 52" fill="#CCCCCC"/><path d="M 111 104 L 112 102 Q 113 99 114 100 Q 115 100 115 100 Q 123 102 129 116 Q 131 121 130 126 Q 128 129 126 131 Q 122 133 120 130 Q 115 125 112 109" fill="#CCCCCC"/><path d="M 133 48 L 136 46 Q 139 45 142 46 Q 147 49 152 52 Q 158 55 156 62 Q 156 64 156 67 Q 151 111 155 162 Q 157 180 149 194 Q 145 197 143 194 Q 133 183 136 167 Q 148 86 135 53" fill="#CCCCCC"/><path d="M 167 98 L 167 95 Q 168 92 170 92 Q 171 92 174 94 Q 195 110 194 120 Q 194 127 191 130 Q 189 132 187 131 Q 184 130 182 126 Q 177 115 171 105" fill="#CCCCCC"/><path d="M 195 26 L 197 25 Q 203 20 210 25 Q 226 35 228 38 Q 229 41 226 46 Q 221 63 221 88 Q 221 210 221 223 Q 221 241 214 247 Q 212 249 210 247 Q 207 246 205 240 Q 197 222 202 207 Q 205 193 207 157 Q 207 94 206 61 Q 206 43 197 31" fill="#CCCCCC"/><path d="M 63 96 L 65 96 Q 67 96 68 98 Q 70 105 69 114 Q 69 134 56 145 Q 50 149 48 144 Q 42 135 48 125 Q 56 113 62 98" fill="#000080" clip-path="url(#clip-mask-1)" /><path d="M 74 46 L 80 44 Q 84 44 98 49 Q 104 52 103 58 Q 103 61 102 66 Q 103 106 100 132 Q 99 155 93 172 Q 87 189 75 203 Q 55 227 44 228 Q 40 228 41 227 Q 42 225 46 220 Q 71 193 78 173 Q 88 145 88 122 Q 89 88 86 72 Q 85 60 79 52" fill="#0000ff" clip-path="url(#clip-mask-2)" /><path d="M 111 104 L 112 102 Q 113 99 114 100 Q 115 100 115 100 Q 123 102 129 116 Q 131 121 130 126 Q 128 129 126 131 Q 122 133 120 130 Q 115 125 112 109" fill="#000080" clip-path="url(#clip-mask-3)" /><path d="M 133 48 L 136 46 Q 139 45 142 46 Q 147 49 152 52 Q 158 55 156 62 Q 156 64 156 67 Q 151 111 155 162 Q 157 180 149 194 Q 145 197 143 194 Q 133 183 136 167 Q 148 86 135 53" fill="#0000ff" clip-path="url(#clip-mask-4)" /><path d="M 167 98 L 167 95 Q 168 92 170 92 Q 171 92 174 94 Q 195 110 194 120 Q 194 127 191 130 Q 189 132 187 131 Q 184 130 182 126 Q 177 115 171 105" fill="#000080" clip-path="url(#clip-mask-5)" /><path d="M 195 26 L 197 25 Q 203 20 210 25 Q 226 35 228 38 Q 229 41 226 46 Q 221 63 221 88 Q 221 210 221 223 Q 221 241 214 247 Q 212 249 210 247 Q 207 246 205 240 Q 197 222 202 207 Q 205 193 207 157 Q 207 94 206 61 Q 206 43 197 31" fill="#0000ff" clip-path="url(#clip-mask-6)" /></svg>