<svg xmlns="http://www.w3.org/2000/svg" xmlns:xlink="http://www.w3.org/1999/xlink" width="270" height="270"><defs><clipPath id="clip-mask-1"><rect x="24" y="91" width="20" height="75"><animate attributeName="y" from="16" to="91" dur="0.278" begin="0; animate17.end + 1" id="animate1" fill="freeze"/></rect></clipPath><clipPath id="clip-mask-2"><rect x="42" y="83" width="74" height="22"><set attributeName="x" to="-32" begin="0; animate17.end + 1" /><animate attributeName="x" from="-32" to="42" dur="0.274" begin="animate1.end + 0.5" id="animate2" fill="freeze"/></rect></clipPath><clipPath id="clip-mask-3"><rect x="94" y="96" width="19" height="64"><set attributeName="y" to="32" begin="0; animate17.end + 1" /><animate attributeName="y" from="32" to="96" dur="0.237" begin="animate2.end" id="animate3" fill="freeze"/></rect></clipPath><clipPath id="clip-mask-4"><rect x="76" y="133" width="20" height="25"><set attributeName="x" to="96" begin="0; animate17.end + 1" /><animate attributeName="x" from="96" to="76" dur="0.074" begin="animate3.end" id="animate4" fill="freeze"/></rect></clipPath><clipPath id="clip-mask-5"><rect x="54" y="27" width="28" height="215"><set attributeName="y" to="-188" begin="0; animate17.end + 1" /><animate attributeName="y" from="-188" to="27" dur="0.796" begin="animate4.end + 0.5" id="animate5" fill="freeze"/></rect></clipPath><clipPath id="clip-mask-6"><rect x="130" y="38" width="80" height="25"><set attributeName="x" to="50" begin="0; animate17.end + 1" /><animate attributeName="x" from="50" to="130" dur="0.296" begin="animate5.end + 0.5" id="animate6" fill="freeze"/></rect></clipPath><clipPath id="clip-mask-7"><rect x="127" y="85" width="23" height="50"><set attributeName="y" to="35" begin="0; animate17.end + 1" /><animate attributeName="y" from="35" to="85" dur="0.185" begin="animate6.end + 0.5" id="animate7" fill="freeze"/></rect></clipPath><clipPath id="clip-mask-8"><rect x="140" y="72" width="75" height="23"><set attributeName="x" to="65" begin="0; animate17.end + 1" /><animate attributeName="x" from="65" to="140" dur="0.278" begin="animate7.end + 0.5" id="animate8" fill="freeze"/></rect></clipPath><clipPath id="clip-mask-9"><rect x="188" y="84" width="30" height="31"><set attributeName="y" to="53" begin="0; animate17.end + 1" /><animate attributeName="y" from="53" to="84" dur="0.115" begin="animate8.end" id="animate9" fill="freeze"/></rect></clipPath><clipPath id="clip-mask-10"><rect x="150" y="112" width="54" height="16"><set attributeName="x" to="96" begin="0; animate17.end + 1" /><animate attributeName="x" from="96" to="150" dur="0.200" begin="animate9.end + 0.5" id="animate10" fill="freeze"/></rect></clipPath><clipPath id="clip-mask-11"><rect x="109" y="149" width="26" height="85"><set attributeName="y" to="64" begin="0; animate17.end + 1" /><animate attributeName="y" from="64" to="149" dur="0.315" begin="animate10.end + 0.5" id="animate11" fill="freeze"/></rect></clipPath><clipPath id="clip-mask-12"><rect x="125" y="134" width="117" height="29"><set attributeName="x" to="8" begin="0; animate17.end + 1" /><animate attributeName="x" from="8" to="125" dur="0.433" begin="animate11.end + 0.5" id="animate12" fill="freeze"/></rect></clipPath><clipPath id="clip-mask-13"><rect x="209" y="148" width="36" height="92"><set attributeName="y" to="56" begin="0; animate17.end + 1" /><animate attributeName="y" from="56" to="148" dur="0.341" begin="animate12.end" id="animate13" fill="freeze"/></rect></clipPath><clipPath id="clip-mask-14"><rect x="201" y="209" width="10" height="26"><set attributeName="x" to="211" begin="0; animate17.end + 1" /><animate attributeName="x" from="211" to="201" dur="0.037" begin="animate13.end" id="animate14" fill="freeze"/></rect></clipPath><clipPath id="clip-mask-15"><rect x="136" y="172" width="68" height="20"><set attributeName="x" to="68" begin="0; animate17.end + 1" /><animate attributeName="x" from="68" to="136" dur="0.252" begin="animate14.end + 0.5" id="animate15" fill="freeze"/></rect></clipPath><clipPath id="clip-mask-16"><rect x="161" y="155" width="16" height="56"><set attributeName="y" to="99" begin="0; animate17.end + 1" /><animate attributeName="y" from="99" to="155" dur="0.207" begin="animate15.end + 0.5" id="animate16" fill="freeze"/></rect></clipPath><clipPath id="clip-mask-17"><rect x="135" y="204" width="70" height="20"><set attributeName="x" to="65" begin="0; animate17.end + 1" /><animate attributeName="x" from="65" to="135" dur="0.259" begin="animate16.end + 0.5" id="animate17" fill="freeze"/></rect></clipPath></defs><path d="M 0 0 L 270 270 M 270 0 L 0 270 M 135 0 L 135 270 M 0 135 L 270 135" stroke="#CCCCCC" /><path d="M 44 105 Q 43 112 43 133 Q 43 160 36 165 Q 34 166 32 163 L 32 163 Q 24 153 29 142 Q 37 114 28 95 Q 27 92 30 91 Q 37 91 42 95" fill="#CCCCCC"/><path d="M 54 102 L 48 104 Q 46 105 44 105 L 42 95 Q 48 94 58 92 Q 60 91 65 91 L 75 89 Q 81 87 83 87 Q 100 83 103 84 Q 112 89 114 92 Q 116 94 113 97 L 94 96 Q 92 95 75 98 L 65 100" fill="#CCCCCC"/><path d="M 113 97 Q 110 101 109 134 Q 109 137 109 139 Q 106 155 99 159 Q 97 160 95 158 L 96 133 Q 98 113 98 102 Q 98 97 94 96" fill="#CCCCCC"/><path d="M 95 158 Q 91 151 84 145 Q 78 141 77 139 Q 76 137 80 137 Q 85 138 90 138 Q 96 138 96 133" fill="#CCCCCC"/><path d="M 65 91 Q 64 74 64 60 Q 63 48 55 36 Q 54 32 55 31 Q 60 27 66 31 Q 80 39 81 42 Q 82 45 80 49 Q 75 64 75 89 L 75 98 Q 74 208 75 220 Q 75 228 73 234 Q 70 239 68 240 Q 66 242 65 241 Q 63 240 61 235 Q 61 235 61 234 Q 54 220 60 199 Q 64 181 65 100" fill="#CCCCCC"/><path d="M 152 49 L 170 45 Q 192 38 198 39 Q 206 41 208 44 Q 210 46 207 48 Q 206 49 198 51 Q 180 55 163 59 Q 149 63 137 56 Q 130 52 140 50" fill="#CCCCCC"/><path d="M 150 130 L 150 132 Q 148 135 144 130 Q 141 127 140 121 Q 135 102 129 91 Q 127 88 128 86 Q 129 85 132 85 Q 137 86 140 87 L 145 95 Q 147 101 150 120 L 150 128" fill="#CCCCCC"/><path d="M 140 87 Q 156 84 176 79 Q 194 72 199 75 Q 211 81 215 84 L 192 88 Q 190 85 185 86 Q 145 94 145 95" fill="#CCCCCC"/><path d="M 188 112 Q 190 103 193 93 Q 194 89 192 88 L 215 84 Q 218 89 214 93 Q 207 99 200 115" fill="#CCCCCC"/><path d="M 150 120 Q 166 117 186 112 Q 187 112 188 112 L 200 115 Q 204 117 204 119 Q 204 121 201 122 Q 169 124 154 128 Q 152 128 150 128" fill="#CCCCCC"/><path d="M 134 228 L 133 230 Q 132 234 128 228 Q 122 221 122 211 Q 119 178 111 156 Q 109 152 111 150 Q 112 149 115 150 Q 122 152 125 153 L 129 163 Q 130 174 134 208 Q 135 212 135 216 L 135 224" fill="#CCCCCC"/><path d="M 161 157 Q 145 160 132 163 Q 130 163 129 163 L 125 153 Q 180 148 211 137 Q 220 134 225 137 Q 237 142 242 148 L 216 152 Q 213 148 205 149 Q 187 152 172 155" fill="#CCCCCC"/><path d="M 211 211 Q 213 210 213 206 Q 218 182 218 158 Q 218 153 216 152 L 242 148 Q 245 152 241 157 Q 234 166 232 185 Q 227 222 221 233 Q 218 239 214 240 Q 212 240 209 235" fill="#CCCCCC"/><path d="M 205 209 Q 210 211 211 211 L 209 235 Q 204 223 201 217" fill="#CCCCCC"/><path d="M 163 189 Q 162 189 162 189 Q 151 192 141 187 Q 136 183 144 182 Q 154 181 163 180 L 175 177 Q 190 172 195 173 Q 201 174 203 177 Q 204 179 202 180 Q 201 181 193 183 Q 183 185 175 187" fill="#CCCCCC"/><path d="M 163 211 Q 163 198 163 189 L 163 180 Q 163 159 161 157 L 172 155 Q 173 156 174 157 Q 177 160 175 177 L 175 187 Q 174 198 173 210" fill="#CCCCCC"/><path d="M 135 216 Q 148 213 163 211 L 173 210 Q 199 204 203 207 Q 203 208 205 209 L 201 217 Q 146 220 135 224" fill="#CCCCCC"/><path d="M 44 105 Q 43 112 43 133 Q 43 160 36 165 Q 34 166 32 163 L 32 163 Q 24 153 29 142 Q 37 114 28 95 Q 27 92 30 91 Q 37 91 42 95" fill="#0000ff" clip-path="url(#clip-mask-1)" /><path d="M 54 102 L 48 104 Q 46 105 44 105 L 42 95 Q 48 94 58 92 Q 60 91 65 91 L 75 89 Q 81 87 83 87 Q 100 83 103 84 Q 112 89 114 92 Q 116 94 113 97 L 94 96 Q 92 95 75 98 L 65 100" fill="#0000ff" clip-path="url(#clip-mask-2)" /><path d="M 113 97 Q 110 101 109 134 Q 109 137 109 139 Q 106 155 99 159 Q 97 160 95 158 L 96 133 Q 98 113 98 102 Q 98 97 94 96" fill="#0000ff" clip-path="url(#clip-mask-3)" /><path d="M 95 158 Q 91 151 84 145 Q 78 141 77 139 Q 76 137 80 137 Q 85 138 90 138 Q 96 138 96 133" fill="#0000ff" clip-path="url(#clip-mask-4)" /><path d="M 65 91 Q 64 74 64 60 Q 63 48 55 36 Q 54 32 55 31 Q 60 27 66 31 Q 80 39 81 42 Q 82 45 80 49 Q 75 64 75 89 L 75 98 Q 74 208 75 220 Q 75 228 73 234 Q 70 239 68 240 Q 66 242 65 241 Q 63 240 61 235 Q 61 235 61 234 Q 54 220 60 199 Q 64 181 65 100" fill="#0000ff" clip-path="url(#clip-mask-5)" /><path d="M 152 49 L 170 45 Q 192 38 198 39 Q 206 41 208 44 Q 210 46 207 48 Q 206 49 198 51 Q 180 55 163 59 Q 149 63 137 56 Q 130 52 140 50" fill="#000080" clip-path="url(#clip-mask-6)" /><path d="M 150 130 L 150 132 Q 148 135 144 130 Q 141 127 140 121 Q 135 102 129 91 Q 127 88 128 86 Q 129 85 132 85 Q 137 86 140 87 L 145 95 Q 147 101 150 120 L 150 128" fill="#000080" clip-path="url(#clip-mask-7)" /><path d="M 140 87 Q 156 84 176 79 Q 194 72 199 75 Q 211 81 215 84 L 192 88 Q 190 85 185 86 Q 145 94 145 95" fill="#000080" clip-path="url(#clip-mask-8)" /><path d="M 188 112 Q 190 103 193 93 Q 194 89 192 88 L 215 84 Q 218 89 214 93 Q 207 99 200 115" fill="#000080" clip-path="url(#clip-mask-9)" /><path d="M 150 120 Q 166 117 186 112 Q 187 112 188 112 L 200 115 Q 204 117 204 119 Q 204 121 201 122 Q 169 124 154 128 Q 152 128 150 128" fill="#000080" clip-path="url(#clip-mask-10)" /><path d="M 134 228 L 133 230 Q 132 234 128 228 Q 122 221 122 211 Q 119 178 111 156 Q 109 152 111 150 Q 112 149 115 150 Q 122 152 125 153 L 129 163 Q 130 174 134 208 Q 135 212 135 216 L 135 224" fill="#000080" clip-path="url(#clip-mask-11)" /><path d="M 161 157 Q 145 160 132 163 Q 130 163 129 163 L 125 153 Q 180 148 211 137 Q 220 134 225 137 Q 237 142 242 148 L 216 152 Q 213 148 205 149 Q 187 152 172 155" fill="#000080" clip-path="url(#clip-mask-12)" /><path d="M 211 211 Q 213 210 213 206 Q 218 182 218 158 Q 218 153 216 152 L 242 148 Q 245 152 241 157 Q 234 166 232 185 Q 227 222 221 233 Q 218 239 214 240 Q 212 240 209 235" fill="#000080" clip-path="url(#clip-mask-13)" /><path d="M 205 209 Q 210 211 211 211 L 209 235 Q 204 223 201 217" fill="#000080" clip-path="url(#clip-mask-14)" /><path d="M 163 189 Q 162 189 162 189 Q 151 192 141 187 Q 136 183 144 182 Q 154 181 163 180 L 175 177 Q 190 172 195 173 Q 201 174 203 177 Q 204 179 202 180 Q 201 181 193 183 Q 183 185 175 187" fill="#000080" clip-path="url(#clip-mask-15)" /><path d="M 163 211 Q 163 198 163 189 L 163 180 Q 163 159 161 157 L 172 155 Q 173 156 174 157 Q 177 160 175 177 L 175 187 Q 174 198 173 210" fill="#000080" clip-path="url(#clip-mask-16)" /><path d="M 135 216 Q 148 213 163 211 L 173 210 Q 199 204 203 207 Q 203 208 205 209 L 201 217 Q 146 220 135 224" fill="#000080" clip-path="url(#clip-mask-17)" /></svg>