<svg xmlns="http://www.w3.org/2000/svg" xmlns:xlink="http://www.w3.org/1999/xlink" width="270" height="270"><defs><clipPath id="clip-mask-1"><rect x="77" y="19" width="105" height="30"><animate attributeName="x" from="-28" to="77" dur="0.389" begin="0; animate5.end + 1" id="animate1" fill="freeze"/></rect></clipPath><clipPath id="clip-mask-2"><rect x="66" y="69" width="31" height="37"><set attributeName="y" to="32" begin="0; animate5.end + 1" /><animate attributeName="y" from="32" to="69" dur="0.137" begin="animate1.end + 0.5" id="animate2" fill="freeze"/></rect></clipPath><clipPath id="clip-mask-3"><rect x="150" y="51" width="53" height="54"><set attributeName="y" to="-3" begin="0; animate5.end + 1" /><animate attributeName="y" from="-3" to="51" dur="0.200" begin="animate2.end + 0.5" id="animate3" fill="freeze"/></rect></clipPath><clipPath id="clip-mask-4"><rect x="24" y="106" width="221" height="42"><set attributeName="x" to="-197" begin="0; animate5.end + 1" /><animate attributeName="x" from="-197" to="24" dur="0.819" begin="animate3.end + 0.5" id="animate4" fill="freeze"/></rect></clipPath><clipPath id="clip-mask-5"><rect x="114" y="42" width="29" height="208"><set attributeName="y" to="-166" begin="0; animate5.end + 1" /><animate attributeName="y" from="-166" to="42" dur="0.770" begin="animate4.end + 0.5" id="animate5" fill="freeze"/></rect></clipPath></defs><path d="M 0 0 L 270 270 M 270 0 L 0 270 M 135 0 L 135 270 M 0 135 L 270 135" stroke="#CCCCCC" /><path d="M 114 46 Q 98 49 85 42 Q 77 37 88 36 Q 100 35 132 28 Q 163 19 170 21 Q 178 23 181 26 Q 182 29 179 31 Q 177 33 130 42" fill="#CCCCCC"/><path d="M 66 76 L 66 73 Q 66 69 68 69 Q 69 69 73 70 Q 96 82 97 91 Q 97 100 95 103 Q 92 106 90 106 Q 85 105 83 101 Q 77 91 71 83" fill="#CCCCCC"/><path d="M 176 62 L 174 57 Q 173 53 176 52 Q 180 51 187 54 Q 195 57 199 62 Q 203 66 197 70 Q 190 73 186 78 Q 164 96 154 104 Q 150 105 152 100 Q 166 80 172 67" fill="#CCCCCC"/><path d="M 119 134 L 118 135 Q 82 138 50 146 Q 45 148 39 146 Q 33 144 29 140 Q 24 135 31 134 Q 80 129 122 124 L 138 122 Q 178 116 204 111 Q 222 106 239 119 Q 245 124 243 127 Q 241 130 235 130 Q 162 130 138 132 L 122 134" fill="#CCCCCC"/><path d="M 122 124 Q 123 93 122 70 Q 122 61 115 47 Q 115 46 114 46 L 130 42 Q 134 44 138 47 Q 143 50 142 55 Q 138 71 138 122 L 138 132 Q 137 168 138 181 Q 139 231 133 244 Q 132 248 130 249 Q 127 250 126 248 Q 125 247 124 245 Q 120 235 122 134" fill="#CCCCCC"/><path d="M 114 46 Q 98 49 85 42 Q 77 37 88 36 Q 100 35 132 28 Q 163 19 170 21 Q 178 23 181 26 Q 182 29 179 31 Q 177 33 130 42" fill="#0000ff" clip-path="url(#clip-mask-1)" /><path d="M 66 76 L 66 73 Q 66 69 68 69 Q 69 69 73 70 Q 96 82 97 91 Q 97 100 95 103 Q 92 106 90 106 Q 85 105 83 101 Q 77 91 71 83" fill="#000080" clip-path="url(#clip-mask-2)" /><path d="M 176 62 L 174 57 Q 173 53 176 52 Q 180 51 187 54 Q 195 57 199 62 Q 203 66 197 70 Q 190 73 186 78 Q 164 96 154 104 Q 150 105 152 100 Q 166 80 172 67" fill="#000080" clip-path="url(#clip-mask-3)" /><path d="M 119 134 L 118 135 Q 82 138 50 146 Q 45 148 39 146 Q 33 144 29 140 Q 24 135 31 134 Q 80 129 122 124 L 138 122 Q 178 116 204 111 Q 222 106 239 119 Q 245 124 243 127 Q 241 130 235 130 Q 162 130 138 132 L 122 134" fill="#0000ff" clip-path="url(#clip-mask-4)" /><path d="M 122 124 Q 123 93 122 70 Q 122 61 115 47 Q 115 46 114 46 L 130 42 Q 134 44 138 47 Q 143 50 142 55 Q 138 71 138 122 L 138 132 Q 137 168 138 181 Q 139 231 133 244 Q 132 248 130 249 Q 127 250 126 248 Q 125 247 124 245 Q 120 235 122 134" fill="#0000ff" clip-path="url(#clip-mask-5)" /></svg>