<svg xmlns="http://www.w3.org/2000/svg" xmlns:xlink="http://www.w3.org/1999/xlink" width="270" height="270"><defs><clipPath id="clip-mask-1"><rect x="119" y="13" width="37" height="26"><animate attributeName="x" from="82" to="119" dur="0.137" begin="0; animate13.end + 1" id="animate1" fill="freeze"/></rect></clipPath><clipPath id="clip-mask-2"><rect x="83" y="39" width="123" height="29"><set attributeName="x" to="-40" begin="0; animate13.end + 1" /><animate attributeName="x" from="-40" to="83" dur="0.456" begin="animate1.end + 0.5" id="animate2" fill="freeze"/></rect></clipPath><clipPath id="clip-mask-3"><rect x="18" y="47" width="67" height="196"><set attributeName="y" to="-149" begin="0; animate13.end + 1" /><animate attributeName="y" from="-149" to="47" dur="0.726" begin="animate2.end + 0.5" id="animate3" fill="freeze"/></rect></clipPath><clipPath id="clip-mask-4"><rect x="98" y="78" width="102" height="28"><set attributeName="x" to="-4" begin="0; animate13.end + 1" /><animate attributeName="x" from="-4" to="98" dur="0.378" begin="animate3.end + 0.5" id="animate4" fill="freeze"/></rect></clipPath><clipPath id="clip-mask-5"><rect x="170" y="89" width="34" height="51"><set attributeName="y" to="38" begin="0; animate13.end + 1" /><animate attributeName="y" from="38" to="89" dur="0.189" begin="animate4.end" id="animate5" fill="freeze"/></rect></clipPath><clipPath id="clip-mask-6"><rect x="77" y="104" width="158" height="32"><set attributeName="x" to="-81" begin="0; animate13.end + 1" /><animate attributeName="x" from="-81" to="77" dur="0.585" begin="animate5.end + 0.5" id="animate6" fill="freeze"/></rect></clipPath><clipPath id="clip-mask-7"><rect x="95" y="139" width="96" height="23"><set attributeName="x" to="-1" begin="0; animate13.end + 1" /><animate attributeName="x" from="-1" to="95" dur="0.356" begin="animate6.end + 0.5" id="animate7" fill="freeze"/></rect></clipPath><clipPath id="clip-mask-8"><rect x="125" y="63" width="29" height="194"><set attributeName="y" to="-131" begin="0; animate13.end + 1" /><animate attributeName="y" from="-131" to="63" dur="0.719" begin="animate7.end + 0.5" id="animate8" fill="freeze"/></rect></clipPath><clipPath id="clip-mask-9"><rect x="107" y="222" width="28" height="28"><set attributeName="x" to="135" begin="0; animate13.end + 1" /><animate attributeName="x" from="135" to="107" dur="0.104" begin="animate8.end" id="animate9" fill="freeze"/></rect></clipPath><clipPath id="clip-mask-10"><rect x="84" y="170" width="28" height="21"><set attributeName="x" to="56" begin="0; animate13.end + 1" /><animate attributeName="x" from="56" to="84" dur="0.104" begin="animate9.end + 0.5" id="animate10" fill="freeze"/></rect></clipPath><clipPath id="clip-mask-11"><rect x="61" y="190" width="71" height="44"><set attributeName="x" to="-10" begin="0; animate13.end + 1" /><animate attributeName="x" from="-10" to="61" dur="0.263" begin="animate10.end + 0.5" id="animate11" fill="freeze"/></rect></clipPath><clipPath id="clip-mask-12"><rect x="172" y="157" width="39" height="37"><set attributeName="x" to="211" begin="0; animate13.end + 1" /><animate attributeName="x" from="211" to="172" dur="0.144" begin="animate11.end + 0.5" id="animate12" fill="freeze"/></rect></clipPath><clipPath id="clip-mask-13"><rect x="148" y="167" width="103" height="72"><set attributeName="x" to="45" begin="0; animate13.end + 1" /><animate attributeName="x" from="45" to="148" dur="0.381" begin="animate12.end + 0.5" id="animate13" fill="freeze"/></rect></clipPath></defs><path d="M 0 0 L 270 270 M 270 0 L 0 270 M 135 0 L 135 270 M 0 135 L 270 135" stroke="#CCCCCC" /><path d="M 121 21 L 120 18 Q 119 14 120 13 Q 122 13 126 13 Q 150 16 152 23 Q 156 31 155 35 Q 154 39 151 39 Q 147 39 129 26" fill="#CCCCCC"/><path d="M 84 57 L 84 57 Q 116 55 161 46 Q 189 39 196 41 Q 204 43 205 46 Q 206 48 204 50 Q 203 50 203 50 Q 196 54 115 65 Q 97 68 85 65 L 83 57" fill="#CCCCCC"/><path d="M 85 65 Q 83 66 81 95 Q 77 149 59 190 Q 54 200 49 209 Q 29 241 21 242 Q 18 243 18 240 Q 19 238 21 236 Q 43 197 52 171 Q 64 137 66 88 Q 66 83 66 80 Q 66 62 61 54 Q 59 50 62 48 Q 66 47 71 50 Q 79 53 83 57" fill="#CCCCCC"/><path d="M 135 100 Q 126 101 118 103 Q 110 106 103 104 Q 99 102 98 100 Q 98 98 102 97 Q 118 95 134 92 L 149 89 Q 160 85 172 80 Q 178 78 182 80 Q 196 86 200 89 L 175 93 Q 172 91 148 97" fill="#CCCCCC"/><path d="M 176 114 Q 179 97 175 93 L 200 89 Q 204 93 200 98 Q 195 103 191 111 L 187 123 Q 184 129 182 139 L 170 140 Q 172 132 174 123" fill="#CCCCCC"/><path d="M 135 128 Q 115 130 97 135 Q 93 136 88 135 Q 84 134 80 131 Q 77 126 82 126 Q 109 122 135 120 L 148 118 Q 159 115 176 114 L 191 111 Q 191 111 191 111 Q 198 110 204 109 Q 219 104 232 114 Q 235 117 234 120 Q 232 123 217 122 Q 200 122 187 123 L 174 123 Q 159 124 148 126" fill="#CCCCCC"/><path d="M 136 156 Q 119 158 109 161 Q 105 162 103 161 Q 100 160 98 157 Q 95 153 100 152 Q 116 150 135 147 L 148 145 Q 158 143 170 140 L 182 139 Q 183 139 183 140 Q 191 145 191 147 Q 190 149 188 150 Q 164 152 148 154" fill="#CCCCCC"/><path d="M 148 176 Q 148 215 149 219 Q 151 245 142 255 Q 142 257 139 256 Q 136 255 133 250 L 135 222 Q 136 216 136 156 L 135 147 Q 135 136 135 128 L 135 120 Q 135 108 135 100 L 134 92 Q 132 75 129 71 Q 125 66 130 64 Q 134 63 144 68 Q 151 71 152 75 Q 154 78 151 81 Q 149 83 149 89 L 148 97 Q 148 104 148 118 L 148 126 Q 148 135 148 145 L 148 154 Q 148 161 148 167" fill="#CCCCCC"/><path d="M 133 250 Q 129 243 111 232 Q 107 230 107 228 Q 108 226 112 227 Q 123 228 128 229 Q 133 231 135 222" fill="#CCCCCC"/><path d="M 86 177 L 85 174 Q 84 171 85 170 Q 87 170 90 170 Q 106 171 109 176 Q 112 183 111 186 Q 111 190 108 190 Q 104 191 101 188 Q 97 184 93 181" fill="#CCCCCC"/><path d="M 76 217 L 127 191 Q 130 190 132 191 Q 132 194 129 196 Q 126 200 122 203 Q 89 226 84 232 Q 82 234 79 234 Q 70 231 63 228 Q 61 226 61 223 Q 61 220 64 219" fill="#CCCCCC"/><path d="M 182 178 L 188 170 Q 190 166 190 162 Q 190 157 194 157 Q 199 158 204 163 Q 209 168 210 172 Q 211 175 206 176 Q 196 181 176 194 L 172 190" fill="#CCCCCC"/><path d="M 176 194 Q 196 212 217 219 Q 245 226 248 228 Q 251 230 249 232 Q 246 233 217 238 Q 201 239 170 202 Q 150 177 148 176 L 148 167 Q 151 169 172 190" fill="#CCCCCC"/><path d="M 121 21 L 120 18 Q 119 14 120 13 Q 122 13 126 13 Q 150 16 152 23 Q 156 31 155 35 Q 154 39 151 39 Q 147 39 129 26" fill="#0000ff" clip-path="url(#clip-mask-1)" /><path d="M 84 57 L 84 57 Q 116 55 161 46 Q 189 39 196 41 Q 204 43 205 46 Q 206 48 204 50 Q 203 50 203 50 Q 196 54 115 65 Q 97 68 85 65 L 83 57" fill="#0000ff" clip-path="url(#clip-mask-2)" /><path d="M 85 65 Q 83 66 81 95 Q 77 149 59 190 Q 54 200 49 209 Q 29 241 21 242 Q 18 243 18 240 Q 19 238 21 236 Q 43 197 52 171 Q 64 137 66 88 Q 66 83 66 80 Q 66 62 61 54 Q 59 50 62 48 Q 66 47 71 50 Q 79 53 83 57" fill="#0000ff" clip-path="url(#clip-mask-3)" /><path d="M 135 100 Q 126 101 118 103 Q 110 106 103 104 Q 99 102 98 100 Q 98 98 102 97 Q 118 95 134 92 L 149 89 Q 160 85 172 80 Q 178 78 182 80 Q 196 86 200 89 L 175 93 Q 172 91 148 97" fill="#000080" clip-path="url(#clip-mask-4)" /><path d="M 176 114 Q 179 97 175 93 L 200 89 Q 204 93 200 98 Q 195 103 191 111 L 187 123 Q 184 129 182 139 L 170 140 Q 172 132 174 123" fill="#000080" clip-path="url(#clip-mask-5)" /><path d="M 135 128 Q 115 130 97 135 Q 93 136 88 135 Q 84 134 80 131 Q 77 126 82 126 Q 109 122 135 120 L 148 118 Q 159 115 176 114 L 191 111 Q 191 111 191 111 Q 198 110 204 109 Q 219 104 232 114 Q 235 117 234 120 Q 232 123 217 122 Q 200 122 187 123 L 174 123 Q 159 124 148 126" fill="#000080" clip-path="url(#clip-mask-6)" /><path d="M 136 156 Q 119 158 109 161 Q 105 162 103 161 Q 100 160 98 157 Q 95 153 100 152 Q 116 150 135 147 L 148 145 Q 158 143 170 140 L 182 139 Q 183 139 183 140 Q 191 145 191 147 Q 190 149 188 150 Q 164 152 148 154" fill="#000080" clip-path="url(#clip-mask-7)" /><path d="M 148 176 Q 148 215 149 219 Q 151 245 142 255 Q 142 257 139 256 Q 136 255 133 250 L 135 222 Q 136 216 136 156 L 135 147 Q 135 136 135 128 L 135 120 Q 135 108 135 100 L 134 92 Q 132 75 129 71 Q 125 66 130 64 Q 134 63 144 68 Q 151 71 152 75 Q 154 78 151 81 Q 149 83 149 89 L 148 97 Q 148 104 148 118 L 148 126 Q 148 135 148 145 L 148 154 Q 148 161 148 167" fill="#000080" clip-path="url(#clip-mask-8)" /><path d="M 133 250 Q 129 243 111 232 Q 107 230 107 228 Q 108 226 112 227 Q 123 228 128 229 Q 133 231 135 222" fill="#000080" clip-path="url(#clip-mask-9)" /><path d="M 86 177 L 85 174 Q 84 171 85 170 Q 87 170 90 170 Q 106 171 109 176 Q 112 183 111 186 Q 111 190 108 190 Q 104 191 101 188 Q 97 184 93 181" fill="#000080" clip-path="url(#clip-mask-10)" /><path d="M 76 217 L 127 191 Q 130 190 132 191 Q 132 194 129 196 Q 126 200 122 203 Q 89 226 84 232 Q 82 234 79 234 Q 70 231 63 228 Q 61 226 61 223 Q 61 220 64 219" fill="#000080" clip-path="url(#clip-mask-11)" /><path d="M 182 178 L 188 170 Q 190 166 190 162 Q 190 157 194 157 Q 199 158 204 163 Q 209 168 210 172 Q 211 175 206 176 Q 196 181 176 194 L 172 190" fill="#000080" clip-path="url(#clip-mask-12)" /><path d="M 176 194 Q 196 212 217 219 Q 245 226 248 228 Q 251 230 249 232 Q 246 233 217 238 Q 201 239 170 202 Q 150 177 148 176 L 148 167 Q 151 169 172 190" fill="#000080" clip-path="url(#clip-mask-13)" /></svg>