<svg xmlns="http://www.w3.org/2000/svg" xmlns:xlink="http://www.w3.org/1999/xlink" width="270" height="270"><defs><clipPath id="clip-mask-1"><rect x="136" y="11" width="36" height="26"><animate attributeName="x" from="100" to="136" dur="0.133" begin="0; animate16.end + 1" id="animate1" fill="freeze"/></rect></clipPath><clipPath id="clip-mask-2"><rect x="94" y="34" width="121" height="29"><set attributeName="x" to="-27" begin="0; animate16.end + 1" /><animate attributeName="x" from="-27" to="94" dur="0.448" begin="animate1.end + 0.5" id="animate2" fill="freeze"/></rect></clipPath><clipPath id="clip-mask-3"><rect x="20" y="42" width="77" height="195"><set attributeName="y" to="-153" begin="0; animate16.end + 1" /><animate attributeName="y" from="-153" to="42" dur="0.722" begin="animate2.end + 0.5" id="animate3" fill="freeze"/></rect></clipPath><clipPath id="clip-mask-4"><rect x="99" y="69" width="111" height="28"><set attributeName="x" to="-12" begin="0; animate16.end + 1" /><animate attributeName="x" from="-12" to="99" dur="0.411" begin="animate3.end + 0.5" id="animate4" fill="freeze"/></rect></clipPath><clipPath id="clip-mask-5"><rect x="118" y="62" width="22" height="62"><set attributeName="y" to="0" begin="0; animate16.end + 1" /><animate attributeName="y" from="0" to="62" dur="0.230" begin="animate4.end + 0.5" id="animate5" fill="freeze"/></rect></clipPath><clipPath id="clip-mask-6"><rect x="167" y="52" width="22" height="51"><set attributeName="y" to="1" begin="0; animate16.end + 1" /><animate attributeName="y" from="1" to="52" dur="0.189" begin="animate5.end + 0.5" id="animate6" fill="freeze"/></rect></clipPath><clipPath id="clip-mask-7"><rect x="140" y="103" width="44" height="14"><set attributeName="x" to="96" begin="0; animate16.end + 1" /><animate attributeName="x" from="96" to="140" dur="0.163" begin="animate6.end + 0.5" id="animate7" fill="freeze"/></rect></clipPath><clipPath id="clip-mask-8"><rect x="86" y="111" width="163" height="33"><set attributeName="x" to="-77" begin="0; animate16.end + 1" /><animate attributeName="x" from="-77" to="86" dur="0.604" begin="animate7.end + 0.5" id="animate8" fill="freeze"/></rect></clipPath><clipPath id="clip-mask-9"><rect x="95" y="154" width="30" height="55"><set attributeName="y" to="99" begin="0; animate16.end + 1" /><animate attributeName="y" from="99" to="154" dur="0.204" begin="animate8.end + 0.5" id="animate9" fill="freeze"/></rect></clipPath><clipPath id="clip-mask-10"><rect x="107" y="140" width="112" height="24"><set attributeName="x" to="-5" begin="0; animate16.end + 1" /><animate attributeName="x" from="-5" to="107" dur="0.415" begin="animate9.end + 0.5" id="animate10" fill="freeze"/></rect></clipPath><clipPath id="clip-mask-11"><rect x="182" y="160" width="34" height="51"><set attributeName="y" to="109" begin="0; animate16.end + 1" /><animate attributeName="y" from="109" to="160" dur="0.189" begin="animate10.end" id="animate11" fill="freeze"/></rect></clipPath><clipPath id="clip-mask-12"><rect x="126" y="167" width="53" height="15"><set attributeName="x" to="73" begin="0; animate16.end + 1" /><animate attributeName="x" from="73" to="126" dur="0.196" begin="animate11.end + 0.5" id="animate12" fill="freeze"/></rect></clipPath><clipPath id="clip-mask-13"><rect x="145" y="134" width="18" height="62"><set attributeName="y" to="72" begin="0; animate16.end + 1" /><animate attributeName="y" from="72" to="134" dur="0.230" begin="animate12.end + 0.5" id="animate13" fill="freeze"/></rect></clipPath><clipPath id="clip-mask-14"><rect x="125" y="190" width="59" height="16"><set attributeName="x" to="66" begin="0; animate16.end + 1" /><animate attributeName="x" from="66" to="125" dur="0.219" begin="animate13.end + 0.5" id="animate14" fill="freeze"/></rect></clipPath><clipPath id="clip-mask-15"><rect x="75" y="211" width="64" height="47"><set attributeName="y" to="164" begin="0; animate16.end + 1" /><animate attributeName="y" from="164" to="211" dur="0.174" begin="animate14.end + 0.5" id="animate15" fill="freeze"/></rect></clipPath><clipPath id="clip-mask-16"><rect x="178" y="210" width="46" height="47"><set attributeName="x" to="132" begin="0; animate16.end + 1" /><animate attributeName="x" from="132" to="178" dur="0.170" begin="animate15.end + 0.5" id="animate16" fill="freeze"/></rect></clipPath></defs><path d="M 0 0 L 270 270 M 270 0 L 0 270 M 135 0 L 135 270 M 0 135 L 270 135" stroke="#CCCCCC" /><path d="M 137 19 L 136 16 Q 136 13 137 12 Q 138 11 142 11 Q 166 15 169 22 Q 172 29 171 32 Q 170 36 168 36 Q 164 37 160 34 Q 152 28 145 23" fill="#CCCCCC"/><path d="M 169 54 Q 143 57 117 61 Q 107 63 97 59 L 94 52 Q 95 51 96 51 Q 127 50 171 41 Q 198 34 205 35 Q 213 37 214 41 Q 215 43 213 45 Q 212 45 178 52" fill="#CCCCCC"/><path d="M 97 59 Q 93 70 91 91 Q 84 144 64 186 Q 59 195 54 203 Q 31 235 23 237 Q 20 237 21 234 Q 21 233 23 231 Q 47 196 58 167 Q 72 130 76 83 Q 77 81 77 78 Q 79 57 73 49 Q 71 45 75 43 Q 78 42 83 45 Q 90 48 94 52" fill="#CCCCCC"/><path d="M 130 94 Q 125 95 122 96 Q 111 97 104 92 Q 99 88 106 87 Q 117 86 127 85 L 138 83 Q 150 81 163 79 Q 167 77 171 77 L 184 74 Q 184 74 184 74 Q 198 69 205 74 Q 210 76 210 79 Q 208 82 205 81 Q 194 83 181 85 L 170 86 Q 153 89 139 92" fill="#CCCCCC"/><path d="M 140 120 L 139 122 Q 137 124 136 122 Q 133 118 130 94 L 127 85 Q 125 73 121 69 Q 118 66 120 65 Q 124 62 128 63 Q 133 65 137 67 Q 139 69 138 73 Q 138 76 138 83 L 139 92 Q 139 98 140 104 Q 140 106 140 109 L 140 117" fill="#CCCCCC"/><path d="M 171 77 Q 172 60 169 54 L 178 52 Q 182 54 186 57 Q 189 61 188 63 Q 187 65 184 74 L 181 85 Q 178 94 176 103 L 167 103 Q 169 94 170 86" fill="#CCCCCC"/><path d="M 176 103 Q 184 108 184 110 Q 183 112 181 112 Q 157 115 146 116 Q 143 117 140 117 L 140 109 Q 151 106 165 103 Q 166 103 167 103" fill="#CCCCCC"/><path d="M 145 135 Q 125 138 107 144 Q 103 144 98 143 Q 93 142 90 139 Q 86 135 91 134 Q 185 121 222 113 Q 232 111 245 120 Q 249 124 248 126 Q 247 126 247 127 Q 246 129 212 129 Q 160 131 154 134" fill="#CCCCCC"/><path d="M 124 209 L 121 209 Q 120 208 120 208 Q 110 201 109 188 Q 104 167 97 159 Q 95 157 96 155 Q 97 154 99 154 Q 103 155 107 156 L 117 164 Q 117 164 117 165 Q 118 174 121 186 Q 124 193 125 199 L 125 206" fill="#CCCCCC"/><path d="M 148 157 Q 129 160 117 164 L 107 156 Q 120 154 136 151 Q 142 150 147 150 L 160 147 Q 172 145 180 144 Q 197 140 202 142 Q 213 149 217 153 Q 219 157 216 160 L 194 160 Q 195 156 192 154 Q 187 150 160 155" fill="#CCCCCC"/><path d="M 184 193 Q 189 190 194 160 L 216 160 Q 210 166 208 174 Q 200 201 197 205 Q 192 211 190 209 Q 186 206 182 200" fill="#CCCCCC"/><path d="M 148 180 Q 132 182 131 181 Q 126 178 130 177 Q 138 174 148 171 L 159 168 Q 164 167 168 167 Q 174 168 177 171 Q 179 174 173 175 Q 166 176 159 178" fill="#CCCCCC"/><path d="M 148 196 Q 148 187 148 180 L 148 171 Q 148 163 148 157 L 147 150 Q 147 142 145 135 L 154 134 Q 157 136 160 139 Q 163 142 161 146 Q 161 146 160 147 L 160 155 Q 159 161 159 168 L 159 178 Q 158 186 158 194" fill="#CCCCCC"/><path d="M 125 199 Q 136 197 148 196 L 158 194 Q 176 190 180 191 Q 183 192 184 193 L 182 200 Q 159 202 129 206 Q 126 206 125 206" fill="#CCCCCC"/><path d="M 119 212 L 121 212 Q 125 211 132 215 Q 139 218 139 221 Q 139 224 136 226 Q 133 229 126 235 Q 97 258 82 257 Q 75 257 80 254 Q 113 230 118 215" fill="#CCCCCC"/><path d="M 178 217 L 178 213 Q 179 210 181 211 Q 188 213 200 219 Q 210 224 215 227 Q 220 232 221 238 Q 224 251 220 254 Q 218 257 216 256 Q 211 255 207 249 Q 193 232 181 220" fill="#CCCCCC"/><path d="M 137 19 L 136 16 Q 136 13 137 12 Q 138 11 142 11 Q 166 15 169 22 Q 172 29 171 32 Q 170 36 168 36 Q 164 37 160 34 Q 152 28 145 23" fill="#0000ff" clip-path="url(#clip-mask-1)" /><path d="M 169 54 Q 143 57 117 61 Q 107 63 97 59 L 94 52 Q 95 51 96 51 Q 127 50 171 41 Q 198 34 205 35 Q 213 37 214 41 Q 215 43 213 45 Q 212 45 178 52" fill="#0000ff" clip-path="url(#clip-mask-2)" /><path d="M 97 59 Q 93 70 91 91 Q 84 144 64 186 Q 59 195 54 203 Q 31 235 23 237 Q 20 237 21 234 Q 21 233 23 231 Q 47 196 58 167 Q 72 130 76 83 Q 77 81 77 78 Q 79 57 73 49 Q 71 45 75 43 Q 78 42 83 45 Q 90 48 94 52" fill="#0000ff" clip-path="url(#clip-mask-3)" /><path d="M 130 94 Q 125 95 122 96 Q 111 97 104 92 Q 99 88 106 87 Q 117 86 127 85 L 138 83 Q 150 81 163 79 Q 167 77 171 77 L 184 74 Q 184 74 184 74 Q 198 69 205 74 Q 210 76 210 79 Q 208 82 205 81 Q 194 83 181 85 L 170 86 Q 153 89 139 92" fill="#000080" clip-path="url(#clip-mask-4)" /><path d="M 140 120 L 139 122 Q 137 124 136 122 Q 133 118 130 94 L 127 85 Q 125 73 121 69 Q 118 66 120 65 Q 124 62 128 63 Q 133 65 137 67 Q 139 69 138 73 Q 138 76 138 83 L 139 92 Q 139 98 140 104 Q 140 106 140 109 L 140 117" fill="#000080" clip-path="url(#clip-mask-5)" /><path d="M 171 77 Q 172 60 169 54 L 178 52 Q 182 54 186 57 Q 189 61 188 63 Q 187 65 184 74 L 181 85 Q 178 94 176 103 L 167 103 Q 169 94 170 86" fill="#000080" clip-path="url(#clip-mask-6)" /><path d="M 176 103 Q 184 108 184 110 Q 183 112 181 112 Q 157 115 146 116 Q 143 117 140 117 L 140 109 Q 151 106 165 103 Q 166 103 167 103" fill="#000080" clip-path="url(#clip-mask-7)" /><path d="M 145 135 Q 125 138 107 144 Q 103 144 98 143 Q 93 142 90 139 Q 86 135 91 134 Q 185 121 222 113 Q 232 111 245 120 Q 249 124 248 126 Q 247 126 247 127 Q 246 129 212 129 Q 160 131 154 134" fill="#000080" clip-path="url(#clip-mask-8)" /><path d="M 124 209 L 121 209 Q 120 208 120 208 Q 110 201 109 188 Q 104 167 97 159 Q 95 157 96 155 Q 97 154 99 154 Q 103 155 107 156 L 117 164 Q 117 164 117 165 Q 118 174 121 186 Q 124 193 125 199 L 125 206" fill="#000080" clip-path="url(#clip-mask-9)" /><path d="M 148 157 Q 129 160 117 164 L 107 156 Q 120 154 136 151 Q 142 150 147 150 L 160 147 Q 172 145 180 144 Q 197 140 202 142 Q 213 149 217 153 Q 219 157 216 160 L 194 160 Q 195 156 192 154 Q 187 150 160 155" fill="#000080" clip-path="url(#clip-mask-10)" /><path d="M 184 193 Q 189 190 194 160 L 216 160 Q 210 166 208 174 Q 200 201 197 205 Q 192 211 190 209 Q 186 206 182 200" fill="#000080" clip-path="url(#clip-mask-11)" /><path d="M 148 180 Q 132 182 131 181 Q 126 178 130 177 Q 138 174 148 171 L 159 168 Q 164 167 168 167 Q 174 168 177 171 Q 179 174 173 175 Q 166 176 159 178" fill="#000080" clip-path="url(#clip-mask-12)" /><path d="M 148 196 Q 148 187 148 180 L 148 171 Q 148 163 148 157 L 147 150 Q 147 142 145 135 L 154 134 Q 157 136 160 139 Q 163 142 161 146 Q 161 146 160 147 L 160 155 Q 159 161 159 168 L 159 178 Q 158 186 158 194" fill="#000080" clip-path="url(#clip-mask-13)" /><path d="M 125 199 Q 136 197 148 196 L 158 194 Q 176 190 180 191 Q 183 192 184 193 L 182 200 Q 159 202 129 206 Q 126 206 125 206" fill="#000080" clip-path="url(#clip-mask-14)" /><path d="M 119 212 L 121 212 Q 125 211 132 215 Q 139 218 139 221 Q 139 224 136 226 Q 133 229 126 235 Q 97 258 82 257 Q 75 257 80 254 Q 113 230 118 215" fill="#000080" clip-path="url(#clip-mask-15)" /><path d="M 178 217 L 178 213 Q 179 210 181 211 Q 188 213 200 219 Q 210 224 215 227 Q 220 232 221 238 Q 224 251 220 254 Q 218 257 216 256 Q 211 255 207 249 Q 193 232 181 220" fill="#000080" clip-path="url(#clip-mask-16)" /></svg>