<svg xmlns="http://www.w3.org/2000/svg" xmlns:xlink="http://www.w3.org/1999/xlink" width="270" height="270"><defs><clipPath id="clip-mask-1"><rect x="125" y="13" width="33" height="24"><animate attributeName="x" from="92" to="125" dur="0.122" begin="0; animate27.end + 1" id="animate1" fill="freeze"/></rect></clipPath><clipPath id="clip-mask-2"><rect x="80" y="35" width="122" height="28"><set attributeName="x" to="-42" begin="0; animate27.end + 1" /><animate attributeName="x" from="-42" to="80" dur="0.452" begin="animate1.end + 0.5" id="animate2" fill="freeze"/></rect></clipPath><clipPath id="clip-mask-3"><rect x="18" y="44" width="64" height="190"><set attributeName="y" to="-146" begin="0; animate27.end + 1" /><animate attributeName="y" from="-146" to="44" dur="0.704" begin="animate2.end + 0.5" id="animate3" fill="freeze"/></rect></clipPath><clipPath id="clip-mask-4"><rect x="78" y="74" width="69" height="20"><set attributeName="x" to="9" begin="0; animate27.end + 1" /><animate attributeName="x" from="9" to="78" dur="0.256" begin="animate3.end + 0.5" id="animate4" fill="freeze"/></rect></clipPath><clipPath id="clip-mask-5"><rect x="87" y="93" width="15" height="60"><set attributeName="y" to="33" begin="0; animate27.end + 1" /><animate attributeName="y" from="33" to="93" dur="0.222" begin="animate4.end + 0.5" id="animate5" fill="freeze"/></rect></clipPath><clipPath id="clip-mask-6"><rect x="117" y="86" width="21" height="170"><set attributeName="y" to="-84" begin="0; animate27.end + 1" /><animate attributeName="y" from="-84" to="86" dur="0.630" begin="animate5.end + 0.5" id="animate6" fill="freeze"/></rect></clipPath><clipPath id="clip-mask-7"><rect x="99" y="108" width="23" height="10"><set attributeName="x" to="76" begin="0; animate27.end + 1" /><animate attributeName="x" from="76" to="99" dur="0.085" begin="animate6.end + 0.5" id="animate7" fill="freeze"/></rect></clipPath><clipPath id="clip-mask-8"><rect x="98" y="125" width="25" height="11"><set attributeName="x" to="73" begin="0; animate27.end + 1" /><animate attributeName="x" from="73" to="98" dur="0.093" begin="animate7.end + 0.5" id="animate8" fill="freeze"/></rect></clipPath><clipPath id="clip-mask-9"><rect x="70" y="145" width="54" height="23"><set attributeName="x" to="16" begin="0; animate27.end + 1" /><animate attributeName="x" from="16" to="70" dur="0.200" begin="animate8.end + 0.5" id="animate9" fill="freeze"/></rect></clipPath><clipPath id="clip-mask-10"><rect x="68" y="167" width="50" height="16"><set attributeName="x" to="18" begin="0; animate27.end + 1" /><animate attributeName="x" from="18" to="68" dur="0.185" begin="animate9.end + 0.5" id="animate10" fill="freeze"/></rect></clipPath><clipPath id="clip-mask-11"><rect x="57" y="187" width="63" height="20"><set attributeName="x" to="-6" begin="0; animate27.end + 1" /><animate attributeName="x" from="-6" to="57" dur="0.233" begin="animate10.end + 0.5" id="animate11" fill="freeze"/></rect></clipPath><clipPath id="clip-mask-12"><rect x="88" y="180" width="14" height="40"><set attributeName="y" to="140" begin="0; animate27.end + 1" /><animate attributeName="y" from="140" to="180" dur="0.148" begin="animate11.end + 0.5" id="animate12" fill="freeze"/></rect></clipPath><clipPath id="clip-mask-13"><rect x="57" y="212" width="61" height="28"><set attributeName="x" to="-4" begin="0; animate27.end + 1" /><animate attributeName="x" from="-4" to="57" dur="0.226" begin="animate12.end + 0.5" id="animate13" fill="freeze"/></rect></clipPath><clipPath id="clip-mask-14"><rect x="142" y="79" width="76" height="23"><set attributeName="x" to="66" begin="0; animate27.end + 1" /><animate attributeName="x" from="66" to="142" dur="0.281" begin="animate13.end + 0.5" id="animate14" fill="freeze"/></rect></clipPath><clipPath id="clip-mask-15"><rect x="163" y="59" width="28" height="60"><set attributeName="y" to="-1" begin="0; animate27.end + 1" /><animate attributeName="y" from="-1" to="59" dur="0.222" begin="animate14.end + 0.5" id="animate15" fill="freeze"/></rect></clipPath><clipPath id="clip-mask-16"><rect x="138" y="120" width="20" height="46"><set attributeName="y" to="74" begin="0; animate27.end + 1" /><animate attributeName="y" from="74" to="120" dur="0.170" begin="animate15.end + 0.5" id="animate16" fill="freeze"/></rect></clipPath><clipPath id="clip-mask-17"><rect x="150" y="108" width="85" height="21"><set attributeName="x" to="65" begin="0; animate27.end + 1" /><animate attributeName="x" from="65" to="150" dur="0.315" begin="animate16.end + 0.5" id="animate17" fill="freeze"/></rect></clipPath><clipPath id="clip-mask-18"><rect x="210" y="118" width="29" height="40"><set attributeName="y" to="78" begin="0; animate27.end + 1" /><animate attributeName="y" from="78" to="118" dur="0.148" begin="animate17.end" id="animate18" fill="freeze"/></rect></clipPath><clipPath id="clip-mask-19"><rect x="168" y="125" width="11" height="27"><set attributeName="y" to="98" begin="0; animate27.end + 1" /><animate attributeName="y" from="98" to="125" dur="0.100" begin="animate18.end + 0.5" id="animate19" fill="freeze"/></rect></clipPath><clipPath id="clip-mask-20"><rect x="189" y="120" width="14" height="29"><set attributeName="y" to="91" begin="0; animate27.end + 1" /><animate attributeName="y" from="91" to="120" dur="0.107" begin="animate19.end + 0.5" id="animate20" fill="freeze"/></rect></clipPath><clipPath id="clip-mask-21"><rect x="158" y="144" width="52" height="16"><set attributeName="x" to="106" begin="0; animate27.end + 1" /><animate attributeName="x" from="106" to="158" dur="0.193" begin="animate20.end + 0.5" id="animate21" fill="freeze"/></rect></clipPath><clipPath id="clip-mask-22"><rect x="147" y="165" width="66" height="20"><set attributeName="x" to="81" begin="0; animate27.end + 1" /><animate attributeName="x" from="81" to="147" dur="0.244" begin="animate21.end + 0.5" id="animate22" fill="freeze"/></rect></clipPath><clipPath id="clip-mask-23"><rect x="135" y="196" width="21" height="42"><set attributeName="y" to="154" begin="0; animate27.end + 1" /><animate attributeName="y" from="154" to="196" dur="0.156" begin="animate22.end + 0.5" id="animate23" fill="freeze"/></rect></clipPath><clipPath id="clip-mask-24"><rect x="163" y="208" width="83" height="42"><set attributeName="x" to="80" begin="0; animate27.end + 1" /><animate attributeName="x" from="80" to="163" dur="0.307" begin="animate23.end + 0.5" id="animate24" fill="freeze"/></rect></clipPath><clipPath id="clip-mask-25"><rect x="209" y="202" width="30" height="29"><set attributeName="y" to="231" begin="0; animate27.end + 1" /><animate attributeName="y" from="231" to="202" dur="0.107" begin="animate24.end" id="animate25" fill="freeze"/></rect></clipPath><clipPath id="clip-mask-26"><rect x="174" y="190" width="24" height="21"><set attributeName="x" to="150" begin="0; animate27.end + 1" /><animate attributeName="x" from="150" to="174" dur="0.089" begin="animate25.end + 0.5" id="animate26" fill="freeze"/></rect></clipPath><clipPath id="clip-mask-27"><rect x="214" y="182" width="37" height="26"><set attributeName="x" to="177" begin="0; animate27.end + 1" /><animate attributeName="x" from="177" to="214" dur="0.137" begin="animate26.end + 0.5" id="animate27" fill="freeze"/></rect></clipPath></defs><path d="M 0 0 L 270 270 M 270 0 L 0 270 M 135 0 L 135 270 M 0 135 L 270 135" stroke="#CCCCCC" /><path d="M 126 20 L 125 18 Q 125 15 126 14 Q 127 13 131 13 Q 152 16 155 22 Q 158 29 157 33 Q 156 37 154 37 Q 150 37 146 35 Q 139 29 134 25" fill="#CCCCCC"/><path d="M 80 54 L 81 54 Q 119 52 162 42 Q 187 35 193 37 Q 200 39 201 42 Q 202 44 200 46 Q 199 47 195 48 Q 189 50 111 61 Q 95 63 82 61 L 80 54" fill="#CCCCCC"/><path d="M 82 61 Q 80 63 78 91 Q 75 142 58 183 Q 54 192 49 200 Q 29 233 21 234 Q 18 234 19 232 Q 19 230 21 229 Q 42 194 52 166 Q 63 133 65 85 Q 65 79 65 75 Q 65 59 60 52 Q 58 48 62 47 Q 68 44 80 54" fill="#CCCCCC"/><path d="M 87 94 L 82 91 Q 78 88 83 87 Q 111 82 116 81 Q 116 80 117 81 Q 118 80 120 80 Q 119 80 120 80 Q 119 79 120 80 Q 137 74 143 78 Q 147 79 147 82 Q 146 83 132 86 L 118 88 Q 105 91 96 93" fill="#CCCCCC"/><path d="M 90 110 L 90 105 Q 90 95 87 94 L 96 93 Q 102 97 100 102 Q 99 107 99 112 L 99 118 Q 99 124 98 130 L 98 136 Q 98 144 98 152 L 90 153" fill="#CCCCCC"/><path d="M 124 145 Q 124 130 124 116 Q 122 95 118 88 L 132 86 Q 136 89 137 90 Q 138 93 136 95 Q 132 109 132 130 Q 131 228 131 239 Q 131 251 126 255 Q 125 256 124 255 Q 122 254 121 251 Q 118 246 117 241 Q 117 239 121 215 Q 122 211 124 150" fill="#CCCCCC"/><path d="M 99 112 Q 107 108 112 109 Q 117 109 120 111 Q 122 113 117 115 Q 108 117 99 118" fill="#CCCCCC"/><path d="M 98 130 Q 104 125 113 126 Q 118 126 121 129 Q 123 132 118 133 Q 109 134 98 136" fill="#CCCCCC"/><path d="M 98 152 Q 112 148 124 145 L 124 150 Q 122 151 121 151 Q 88 164 84 167 Q 82 168 80 167 Q 74 164 71 161 Q 70 159 70 157 Q 70 155 72 155 Q 76 156 90 153" fill="#CCCCCC"/><path d="M 88 182 Q 80 183 73 181 Q 68 178 75 177 Q 82 175 89 173 Q 108 167 110 167 Q 116 168 117 170 Q 118 171 117 173 Q 116 174 96 180" fill="#CCCCCC"/><path d="M 89 203 Q 86 204 84 204 Q 69 207 62 204 Q 57 200 64 199 Q 75 198 84 195 Q 87 194 89 194 L 101 190 Q 106 187 112 189 Q 118 190 119 192 Q 120 194 119 195 Q 117 197 100 201" fill="#CCCCCC"/><path d="M 89 210 L 89 203 L 89 194 Q 88 184 88 182 L 96 180 Q 98 182 101 184 Q 102 186 101 190 L 100 201 Q 99 209 98 217 L 89 220" fill="#CCCCCC"/><path d="M 98 217 Q 106 215 114 213 Q 117 212 118 213 Q 118 215 115 216 Q 112 219 108 220 Q 75 236 73 238 Q 71 240 69 239 Q 62 235 58 232 Q 57 231 57 228 Q 57 226 60 226 Q 63 225 89 220" fill="#CCCCCC"/><path d="M 168 100 Q 155 102 147 97 Q 142 94 150 92 Q 161 91 170 89 L 182 86 Q 202 79 209 80 Q 215 82 217 84 Q 218 86 216 88 Q 215 89 179 97" fill="#CCCCCC"/><path d="M 164 119 Q 163 117 168 100 L 170 89 Q 174 71 171 64 Q 169 62 171 61 Q 175 59 179 61 Q 186 64 189 67 Q 191 69 188 73 Q 184 80 182 86 L 179 97 Q 171 115 170 118" fill="#CCCCCC"/><path d="M 158 162 L 157 163 Q 157 166 153 162 Q 150 158 149 153 Q 145 136 140 125 Q 138 122 139 121 Q 140 120 143 120 Q 148 121 150 122 L 154 129 Q 157 150 158 154 L 158 160" fill="#CCCCCC"/><path d="M 214 119 Q 209 116 198 120 L 189 122 Q 179 123 172 125 L 168 126 Q 162 127 157 129 Q 156 129 154 129 L 150 122 Q 156 120 164 119 L 170 118 Q 170 118 170 118 Q 196 111 203 111 Q 218 108 221 110 Q 231 115 235 118" fill="#CCCCCC"/><path d="M 210 147 Q 212 142 215 125 Q 216 120 214 119 L 235 118 Q 239 122 234 125 Q 227 131 224 142 Q 220 152 218 154 Q 217 157 214 157 Q 211 158 210 155 Q 210 154 210 153" fill="#CCCCCC"/><path d="M 174 152 Q 170 148 169 130 Q 168 128 168 126 L 168 126 L 172 125 Q 173 125 173 126 Q 179 138 178 150 Q 178 150 177 151" fill="#CCCCCC"/><path d="M 189 149 Q 189 148 189 147 Q 191 125 189 122 L 198 120 Q 200 121 201 122 Q 203 124 201 126 Q 200 130 199 133 Q 197 140 195 146 Q 195 146 195 147" fill="#CCCCCC"/><path d="M 158 154 Q 165 153 174 152 L 177 151 Q 183 150 189 149 L 195 147 Q 206 144 210 146 Q 210 146 210 147 L 210 153 Q 178 156 163 160 Q 160 160 158 160" fill="#CCCCCC"/><path d="M 166 174 L 175 173 Q 184 170 192 168 Q 198 165 204 166 Q 210 168 212 170 Q 213 172 211 174 Q 210 175 203 177 Q 192 179 181 181 Q 160 185 152 181 Q 147 177 154 176" fill="#CCCCCC"/><path d="M 151 197 L 153 196 Q 154 196 155 198 Q 156 203 155 209 Q 154 227 144 236 Q 140 238 138 235 Q 135 228 138 222 Q 145 211 150 198" fill="#CCCCCC"/><path d="M 163 210 L 164 209 Q 166 208 169 212 Q 186 230 205 231 Q 215 231 217 230 L 239 231 Q 246 235 242 239 Q 230 250 205 243 Q 176 238 165 213" fill="#CCCCCC"/><path d="M 217 230 Q 219 226 210 206 Q 209 203 210 202 Q 211 202 212 203 Q 227 220 239 231" fill="#CCCCCC"/><path d="M 174 194 L 174 192 Q 174 190 177 190 Q 180 190 188 194 Q 193 196 196 199 Q 198 203 198 206 Q 196 211 193 210 Q 189 210 176 196" fill="#CCCCCC"/><path d="M 216 189 L 215 186 Q 214 184 215 183 Q 216 182 220 183 Q 245 187 248 195 Q 251 201 250 204 Q 249 207 247 207 Q 244 208 240 206 Q 231 198 222 193" fill="#CCCCCC"/><path d="M 126 20 L 125 18 Q 125 15 126 14 Q 127 13 131 13 Q 152 16 155 22 Q 158 29 157 33 Q 156 37 154 37 Q 150 37 146 35 Q 139 29 134 25" fill="#0000ff" clip-path="url(#clip-mask-1)" /><path d="M 80 54 L 81 54 Q 119 52 162 42 Q 187 35 193 37 Q 200 39 201 42 Q 202 44 200 46 Q 199 47 195 48 Q 189 50 111 61 Q 95 63 82 61 L 80 54" fill="#0000ff" clip-path="url(#clip-mask-2)" /><path d="M 82 61 Q 80 63 78 91 Q 75 142 58 183 Q 54 192 49 200 Q 29 233 21 234 Q 18 234 19 232 Q 19 230 21 229 Q 42 194 52 166 Q 63 133 65 85 Q 65 79 65 75 Q 65 59 60 52 Q 58 48 62 47 Q 68 44 80 54" fill="#0000ff" clip-path="url(#clip-mask-3)" /><path d="M 87 94 L 82 91 Q 78 88 83 87 Q 111 82 116 81 Q 116 80 117 81 Q 118 80 120 80 Q 119 80 120 80 Q 119 79 120 80 Q 137 74 143 78 Q 147 79 147 82 Q 146 83 132 86 L 118 88 Q 105 91 96 93" fill="#000080" clip-path="url(#clip-mask-4)" /><path d="M 90 110 L 90 105 Q 90 95 87 94 L 96 93 Q 102 97 100 102 Q 99 107 99 112 L 99 118 Q 99 124 98 130 L 98 136 Q 98 144 98 152 L 90 153" fill="#000080" clip-path="url(#clip-mask-5)" /><path d="M 124 145 Q 124 130 124 116 Q 122 95 118 88 L 132 86 Q 136 89 137 90 Q 138 93 136 95 Q 132 109 132 130 Q 131 228 131 239 Q 131 251 126 255 Q 125 256 124 255 Q 122 254 121 251 Q 118 246 117 241 Q 117 239 121 215 Q 122 211 124 150" fill="#000080" clip-path="url(#clip-mask-6)" /><path d="M 99 112 Q 107 108 112 109 Q 117 109 120 111 Q 122 113 117 115 Q 108 117 99 118" fill="#000080" clip-path="url(#clip-mask-7)" /><path d="M 98 130 Q 104 125 113 126 Q 118 126 121 129 Q 123 132 118 133 Q 109 134 98 136" fill="#000080" clip-path="url(#clip-mask-8)" /><path d="M 98 152 Q 112 148 124 145 L 124 150 Q 122 151 121 151 Q 88 164 84 167 Q 82 168 80 167 Q 74 164 71 161 Q 70 159 70 157 Q 70 155 72 155 Q 76 156 90 153" fill="#000080" clip-path="url(#clip-mask-9)" /><path d="M 88 182 Q 80 183 73 181 Q 68 178 75 177 Q 82 175 89 173 Q 108 167 110 167 Q 116 168 117 170 Q 118 171 117 173 Q 116 174 96 180" fill="#000080" clip-path="url(#clip-mask-10)" /><path d="M 89 203 Q 86 204 84 204 Q 69 207 62 204 Q 57 200 64 199 Q 75 198 84 195 Q 87 194 89 194 L 101 190 Q 106 187 112 189 Q 118 190 119 192 Q 120 194 119 195 Q 117 197 100 201" fill="#000080" clip-path="url(#clip-mask-11)" /><path d="M 89 210 L 89 203 L 89 194 Q 88 184 88 182 L 96 180 Q 98 182 101 184 Q 102 186 101 190 L 100 201 Q 99 209 98 217 L 89 220" fill="#000080" clip-path="url(#clip-mask-12)" /><path d="M 98 217 Q 106 215 114 213 Q 117 212 118 213 Q 118 215 115 216 Q 112 219 108 220 Q 75 236 73 238 Q 71 240 69 239 Q 62 235 58 232 Q 57 231 57 228 Q 57 226 60 226 Q 63 225 89 220" fill="#000080" clip-path="url(#clip-mask-13)" /><path d="M 168 100 Q 155 102 147 97 Q 142 94 150 92 Q 161 91 170 89 L 182 86 Q 202 79 209 80 Q 215 82 217 84 Q 218 86 216 88 Q 215 89 179 97" fill="#000080" clip-path="url(#clip-mask-14)" /><path d="M 164 119 Q 163 117 168 100 L 170 89 Q 174 71 171 64 Q 169 62 171 61 Q 175 59 179 61 Q 186 64 189 67 Q 191 69 188 73 Q 184 80 182 86 L 179 97 Q 171 115 170 118" fill="#000080" clip-path="url(#clip-mask-15)" /><path d="M 158 162 L 157 163 Q 157 166 153 162 Q 150 158 149 153 Q 145 136 140 125 Q 138 122 139 121 Q 140 120 143 120 Q 148 121 150 122 L 154 129 Q 157 150 158 154 L 158 160" fill="#000080" clip-path="url(#clip-mask-16)" /><path d="M 214 119 Q 209 116 198 120 L 189 122 Q 179 123 172 125 L 168 126 Q 162 127 157 129 Q 156 129 154 129 L 150 122 Q 156 120 164 119 L 170 118 Q 170 118 170 118 Q 196 111 203 111 Q 218 108 221 110 Q 231 115 235 118" fill="#000080" clip-path="url(#clip-mask-17)" /><path d="M 210 147 Q 212 142 215 125 Q 216 120 214 119 L 235 118 Q 239 122 234 125 Q 227 131 224 142 Q 220 152 218 154 Q 217 157 214 157 Q 211 158 210 155 Q 210 154 210 153" fill="#000080" clip-path="url(#clip-mask-18)" /><path d="M 174 152 Q 170 148 169 130 Q 168 128 168 126 L 168 126 L 172 125 Q 173 125 173 126 Q 179 138 178 150 Q 178 150 177 151" fill="#000080" clip-path="url(#clip-mask-19)" /><path d="M 189 149 Q 189 148 189 147 Q 191 125 189 122 L 198 120 Q 200 121 201 122 Q 203 124 201 126 Q 200 130 199 133 Q 197 140 195 146 Q 195 146 195 147" fill="#000080" clip-path="url(#clip-mask-20)" /><path d="M 158 154 Q 165 153 174 152 L 177 151 Q 183 150 189 149 L 195 147 Q 206 144 210 146 Q 210 146 210 147 L 210 153 Q 178 156 163 160 Q 160 160 158 160" fill="#000080" clip-path="url(#clip-mask-21)" /><path d="M 166 174 L 175 173 Q 184 170 192 168 Q 198 165 204 166 Q 210 168 212 170 Q 213 172 211 174 Q 210 175 203 177 Q 192 179 181 181 Q 160 185 152 181 Q 147 177 154 176" fill="#000080" clip-path="url(#clip-mask-22)" /><path d="M 151 197 L 153 196 Q 154 196 155 198 Q 156 203 155 209 Q 154 227 144 236 Q 140 238 138 235 Q 135 228 138 222 Q 145 211 150 198" fill="#000080" clip-path="url(#clip-mask-23)" /><path d="M 163 210 L 164 209 Q 166 208 169 212 Q 186 230 205 231 Q 215 231 217 230 L 239 231 Q 246 235 242 239 Q 230 250 205 243 Q 176 238 165 213" fill="#000080" clip-path="url(#clip-mask-24)" /><path d="M 217 230 Q 219 226 210 206 Q 209 203 210 202 Q 211 202 212 203 Q 227 220 239 231" fill="#000080" clip-path="url(#clip-mask-25)" /><path d="M 174 194 L 174 192 Q 174 190 177 190 Q 180 190 188 194 Q 193 196 196 199 Q 198 203 198 206 Q 196 211 193 210 Q 189 210 176 196" fill="#000080" clip-path="url(#clip-mask-26)" /><path d="M 216 189 L 215 186 Q 214 184 215 183 Q 216 182 220 183 Q 245 187 248 195 Q 251 201 250 204 Q 249 207 247 207 Q 244 208 240 206 Q 231 198 222 193" fill="#000080" clip-path="url(#clip-mask-27)" /></svg>