<svg xmlns="http://www.w3.org/2000/svg" xmlns:xlink="http://www.w3.org/1999/xlink" width="270" height="270"><defs><clipPath id="clip-mask-1"><rect x="112" y="46" width="99" height="27"><animate attributeName="x" from="13" to="112" dur="0.367" begin="0; animate12.end + 1" id="animate1" fill="freeze"/></rect></clipPath><clipPath id="clip-mask-2"><rect x="181" y="57" width="34" height="50"><set attributeName="y" to="7" begin="0; animate12.end + 1" /><animate attributeName="y" from="7" to="57" dur="0.185" begin="animate1.end" id="animate2" fill="freeze"/></rect></clipPath><clipPath id="clip-mask-3"><rect x="89" y="70" width="156" height="35"><set attributeName="x" to="-67" begin="0; animate12.end + 1" /><animate attributeName="x" from="-67" to="89" dur="0.578" begin="animate2.end + 0.5" id="animate3" fill="freeze"/></rect></clipPath><clipPath id="clip-mask-4"><rect x="111" y="105" width="90" height="23"><set attributeName="x" to="21" begin="0; animate12.end + 1" /><animate attributeName="x" from="21" to="111" dur="0.333" begin="animate3.end + 0.5" id="animate4" fill="freeze"/></rect></clipPath><clipPath id="clip-mask-5"><rect x="109" y="129" width="90" height="25"><set attributeName="x" to="19" begin="0; animate12.end + 1" /><animate attributeName="x" from="19" to="109" dur="0.333" begin="animate4.end + 0.5" id="animate5" fill="freeze"/></rect></clipPath><clipPath id="clip-mask-6"><rect x="94" y="153" width="126" height="29"><set attributeName="x" to="-32" begin="0; animate12.end + 1" /><animate attributeName="x" from="-32" to="94" dur="0.467" begin="animate5.end + 0.5" id="animate6" fill="freeze"/></rect></clipPath><clipPath id="clip-mask-7"><rect x="137" y="15" width="33" height="200"><set attributeName="y" to="-185" begin="0; animate12.end + 1" /><animate attributeName="y" from="-185" to="15" dur="0.741" begin="animate6.end + 0.5" id="animate7" fill="freeze"/></rect></clipPath><clipPath id="clip-mask-8"><rect x="26" y="55" width="75" height="29"><set attributeName="x" to="-49" begin="0; animate12.end + 1" /><animate attributeName="x" from="-49" to="26" dur="0.278" begin="animate7.end + 0.5" id="animate8" fill="freeze"/></rect></clipPath><clipPath id="clip-mask-9"><rect x="45" y="73" width="50" height="65"><set attributeName="y" to="8" begin="0; animate12.end + 1" /><animate attributeName="y" from="8" to="73" dur="0.241" begin="animate8.end" id="animate9" fill="freeze"/></rect></clipPath><clipPath id="clip-mask-10"><rect x="57" y="117" width="43" height="20"><set attributeName="x" to="14" begin="0; animate12.end + 1" /><animate attributeName="x" from="14" to="57" dur="0.159" begin="animate9.end" id="animate10" fill="freeze"/></rect></clipPath><clipPath id="clip-mask-11"><rect x="18" y="133" width="79" height="96"><set attributeName="y" to="37" begin="0; animate12.end + 1" /><animate attributeName="y" from="37" to="133" dur="0.356" begin="animate10.end" id="animate11" fill="freeze"/></rect></clipPath><clipPath id="clip-mask-12"><rect x="21" y="158" width="230" height="96"><set attributeName="x" to="-209" begin="0; animate12.end + 1" /><animate attributeName="x" from="-209" to="21" dur="0.852" begin="animate11.end + 0.5" id="animate12" fill="freeze"/></rect></clipPath></defs><path d="M 0 0 L 270 270 M 270 0 L 0 270 M 135 0 L 135 270 M 0 135 L 270 135" stroke="#CCCCCC" /><path d="M 147 67 Q 140 68 134 70 Q 124 73 118 70 Q 113 69 112 66 Q 112 64 116 63 Q 132 62 147 59 L 163 55 Q 172 52 183 48 Q 188 46 193 47 Q 207 54 211 57 L 186 62 Q 182 59 163 64" fill="#CCCCCC"/><path d="M 187 80 Q 189 65 186 62 L 211 57 Q 215 61 211 66 Q 207 70 203 77 L 198 89 Q 196 96 193 107 L 181 106 Q 183 98 185 90" fill="#CCCCCC"/><path d="M 147 95 Q 127 98 109 104 Q 105 105 100 104 Q 96 103 92 100 Q 89 95 94 95 Q 122 90 147 87 L 162 85 Q 162 84 187 80 L 203 77 Q 208 75 212 75 Q 227 70 241 80 Q 245 83 244 85 Q 243 88 238 88 Q 216 88 198 89 L 185 90 Q 172 91 161 93" fill="#CCCCCC"/><path d="M 147 123 Q 133 124 124 127 Q 121 128 118 127 Q 116 126 114 124 Q 111 119 116 119 Q 130 116 147 114 L 160 111 Q 170 108 180 106 Q 181 105 181 106 L 193 107 Q 201 111 201 113 Q 200 116 197 116 Q 177 118 160 121" fill="#CCCCCC"/><path d="M 160 137 Q 162 136 164 136 Q 187 129 194 134 Q 199 136 199 139 Q 197 142 194 142 Q 171 144 160 147 L 146 149 Q 137 150 131 152 Q 121 154 114 148 Q 109 145 115 143 Q 127 142 146 140" fill="#CCCCCC"/><path d="M 160 163 Q 176 160 187 158 Q 204 153 217 163 Q 220 166 219 169 Q 217 172 205 171 Q 178 171 159 173 L 145 175 Q 129 177 114 181 Q 110 182 105 181 Q 101 180 98 177 Q 94 172 99 172 Q 124 169 145 166" fill="#CCCCCC"/><path d="M 160 129 L 160 137 L 160 147 Q 160 156 160 163 L 159 173 Q 158 203 155 210 Q 153 215 149 211 Q 145 206 145 175 L 145 166 Q 145 164 146 164 Q 146 157 146 149 L 146 140 Q 146 132 147 123 L 147 114 Q 147 113 147 113 Q 147 103 147 95 L 147 87 Q 147 76 147 67 L 147 59 Q 147 46 147 37 Q 147 29 140 24 Q 137 20 140 18 Q 143 15 148 16 Q 159 19 165 24 Q 170 28 168 32 Q 164 38 163 55 L 163 64 Q 162 74 162 85 L 161 93 Q 161 101 160 111 L 160 121" fill="#CCCCCC"/><path d="M 72 74 Q 71 73 68 74 Q 56 80 47 82 Q 39 84 29 78 Q 26 76 27 74 Q 28 72 32 73 Q 38 74 52 69 Q 66 64 71 60 Q 77 55 81 56 Q 88 58 97 65 Q 101 69 95 73" fill="#CCCCCC"/><path d="M 57 135 Q 52 138 48 134 Q 47 133 46 129 Q 45 126 48 123 Q 53 118 55 113 Q 73 77 72 74 L 95 73 Q 86 78 68 109 Q 63 120 64 122" fill="#CCCCCC"/><path d="M 77 137 Q 78 123 57 135 L 64 122 Q 66 123 68 122 Q 72 121 76 121 Q 83 117 86 120 Q 96 125 98 128 Q 100 132 97 133" fill="#CCCCCC"/><path d="M 66 197 L 57 207 Q 32 229 20 229 Q 18 227 21 224 Q 50 203 63 181 L 66 173 Q 72 162 76 141 Q 76 138 77 137 L 97 133 Q 92 138 89 146 Q 82 165 76 179 L 73 186" fill="#CCCCCC"/><path d="M 63 181 Q 62 180 62 180 Q 43 170 28 169 Q 24 169 23 166 Q 21 164 24 162 Q 24 162 25 162 Q 46 158 66 173 L 76 179 Q 148 224 199 227 Q 223 228 245 231 Q 251 230 250 233 Q 250 235 246 237 Q 192 254 181 247 Q 126 223 83 192 Q 78 189 73 186" fill="#CCCCCC"/><path d="M 147 67 Q 140 68 134 70 Q 124 73 118 70 Q 113 69 112 66 Q 112 64 116 63 Q 132 62 147 59 L 163 55 Q 172 52 183 48 Q 188 46 193 47 Q 207 54 211 57 L 186 62 Q 182 59 163 64" fill="#000080" clip-path="url(#clip-mask-1)" /><path d="M 187 80 Q 189 65 186 62 L 211 57 Q 215 61 211 66 Q 207 70 203 77 L 198 89 Q 196 96 193 107 L 181 106 Q 183 98 185 90" fill="#000080" clip-path="url(#clip-mask-2)" /><path d="M 147 95 Q 127 98 109 104 Q 105 105 100 104 Q 96 103 92 100 Q 89 95 94 95 Q 122 90 147 87 L 162 85 Q 162 84 187 80 L 203 77 Q 208 75 212 75 Q 227 70 241 80 Q 245 83 244 85 Q 243 88 238 88 Q 216 88 198 89 L 185 90 Q 172 91 161 93" fill="#000080" clip-path="url(#clip-mask-3)" /><path d="M 147 123 Q 133 124 124 127 Q 121 128 118 127 Q 116 126 114 124 Q 111 119 116 119 Q 130 116 147 114 L 160 111 Q 170 108 180 106 Q 181 105 181 106 L 193 107 Q 201 111 201 113 Q 200 116 197 116 Q 177 118 160 121" fill="#000080" clip-path="url(#clip-mask-4)" /><path d="M 160 137 Q 162 136 164 136 Q 187 129 194 134 Q 199 136 199 139 Q 197 142 194 142 Q 171 144 160 147 L 146 149 Q 137 150 131 152 Q 121 154 114 148 Q 109 145 115 143 Q 127 142 146 140" fill="#000080" clip-path="url(#clip-mask-5)" /><path d="M 160 163 Q 176 160 187 158 Q 204 153 217 163 Q 220 166 219 169 Q 217 172 205 171 Q 178 171 159 173 L 145 175 Q 129 177 114 181 Q 110 182 105 181 Q 101 180 98 177 Q 94 172 99 172 Q 124 169 145 166" fill="#000080" clip-path="url(#clip-mask-6)" /><path d="M 160 129 L 160 137 L 160 147 Q 160 156 160 163 L 159 173 Q 158 203 155 210 Q 153 215 149 211 Q 145 206 145 175 L 145 166 Q 145 164 146 164 Q 146 157 146 149 L 146 140 Q 146 132 147 123 L 147 114 Q 147 113 147 113 Q 147 103 147 95 L 147 87 Q 147 76 147 67 L 147 59 Q 147 46 147 37 Q 147 29 140 24 Q 137 20 140 18 Q 143 15 148 16 Q 159 19 165 24 Q 170 28 168 32 Q 164 38 163 55 L 163 64 Q 162 74 162 85 L 161 93 Q 161 101 160 111 L 160 121" fill="#000080" clip-path="url(#clip-mask-7)" /><path d="M 72 74 Q 71 73 68 74 Q 56 80 47 82 Q 39 84 29 78 Q 26 76 27 74 Q 28 72 32 73 Q 38 74 52 69 Q 66 64 71 60 Q 77 55 81 56 Q 88 58 97 65 Q 101 69 95 73" fill="#0000ff" clip-path="url(#clip-mask-8)" /><path d="M 57 135 Q 52 138 48 134 Q 47 133 46 129 Q 45 126 48 123 Q 53 118 55 113 Q 73 77 72 74 L 95 73 Q 86 78 68 109 Q 63 120 64 122" fill="#0000ff" clip-path="url(#clip-mask-9)" /><path d="M 77 137 Q 78 123 57 135 L 64 122 Q 66 123 68 122 Q 72 121 76 121 Q 83 117 86 120 Q 96 125 98 128 Q 100 132 97 133" fill="#0000ff" clip-path="url(#clip-mask-10)" /><path d="M 66 197 L 57 207 Q 32 229 20 229 Q 18 227 21 224 Q 50 203 63 181 L 66 173 Q 72 162 76 141 Q 76 138 77 137 L 97 133 Q 92 138 89 146 Q 82 165 76 179 L 73 186" fill="#0000ff" clip-path="url(#clip-mask-11)" /><path d="M 63 181 Q 62 180 62 180 Q 43 170 28 169 Q 24 169 23 166 Q 21 164 24 162 Q 24 162 25 162 Q 46 158 66 173 L 76 179 Q 148 224 199 227 Q 223 228 245 231 Q 251 230 250 233 Q 250 235 246 237 Q 192 254 181 247 Q 126 223 83 192 Q 78 189 73 186" fill="#0000ff" clip-path="url(#clip-mask-12)" /></svg>