<svg xmlns="http://www.w3.org/2000/svg" xmlns:xlink="http://www.w3.org/1999/xlink" width="270" height="270"><defs><clipPath id="clip-mask-1"><rect x="41" y="39" width="66" height="27"><animate attributeName="x" from="-25" to="41" dur="0.244" begin="0; animate14.end + 1" id="animate1" fill="freeze"/></rect></clipPath><clipPath id="clip-mask-2"><rect x="78" y="51" width="36" height="43"><set attributeName="y" to="8" begin="0; animate14.end + 1" /><animate attributeName="y" from="8" to="51" dur="0.159" begin="animate1.end" id="animate2" fill="freeze"/></rect></clipPath><clipPath id="clip-mask-3"><rect x="52" y="92" width="45" height="15"><set attributeName="x" to="7" begin="0; animate14.end + 1" /><animate attributeName="x" from="7" to="52" dur="0.167" begin="animate2.end + 0.5" id="animate3" fill="freeze"/></rect></clipPath><clipPath id="clip-mask-4"><rect x="27" y="92" width="29" height="72"><set attributeName="y" to="20" begin="0; animate14.end + 1" /><animate attributeName="y" from="20" to="92" dur="0.267" begin="animate3.end + 0.5" id="animate4" fill="freeze"/></rect></clipPath><clipPath id="clip-mask-5"><rect x="41" y="131" width="57" height="28"><set attributeName="x" to="-16" begin="0; animate14.end + 1" /><animate attributeName="x" from="-16" to="41" dur="0.211" begin="animate4.end" id="animate5" fill="freeze"/></rect></clipPath><clipPath id="clip-mask-6"><rect x="54" y="142" width="47" height="101"><set attributeName="y" to="41" begin="0; animate14.end + 1" /><animate attributeName="y" from="41" to="142" dur="0.374" begin="animate5.end" id="animate6" fill="freeze"/></rect></clipPath><clipPath id="clip-mask-7"><rect x="40" y="209" width="24" height="27"><set attributeName="x" to="64" begin="0; animate14.end + 1" /><animate attributeName="x" from="64" to="40" dur="0.089" begin="animate6.end" id="animate7" fill="freeze"/></rect></clipPath><clipPath id="clip-mask-8"><rect x="149" y="26" width="40" height="35"><set attributeName="x" to="109" begin="0; animate14.end + 1" /><animate attributeName="x" from="109" to="149" dur="0.148" begin="animate7.end + 0.5" id="animate8" fill="freeze"/></rect></clipPath><clipPath id="clip-mask-9"><rect x="106" y="67" width="137" height="33"><set attributeName="x" to="-31" begin="0; animate14.end + 1" /><animate attributeName="x" from="-31" to="106" dur="0.507" begin="animate8.end + 0.5" id="animate9" fill="freeze"/></rect></clipPath><clipPath id="clip-mask-10"><rect x="115" y="91" width="58" height="73"><set attributeName="y" to="18" begin="0; animate14.end + 1" /><animate attributeName="y" from="18" to="91" dur="0.270" begin="animate9.end + 0.5" id="animate10" fill="freeze"/></rect></clipPath><clipPath id="clip-mask-11"><rect x="126" y="144" width="46" height="18"><set attributeName="x" to="80" begin="0; animate14.end + 1" /><animate attributeName="x" from="80" to="126" dur="0.170" begin="animate10.end" id="animate11" fill="freeze"/></rect></clipPath><clipPath id="clip-mask-12"><rect x="114" y="110" width="95" height="111"><set attributeName="y" to="-1" begin="0; animate14.end + 1" /><animate attributeName="y" from="-1" to="110" dur="0.411" begin="animate11.end + 0.5" id="animate12" fill="freeze"/></rect></clipPath><clipPath id="clip-mask-13"><rect x="129" y="187" width="73" height="31"><set attributeName="x" to="56" begin="0; animate14.end + 1" /><animate attributeName="x" from="56" to="129" dur="0.270" begin="animate12.end" id="animate13" fill="freeze"/></rect></clipPath><clipPath id="clip-mask-14"><rect x="190" y="165" width="38" height="51"><set attributeName="y" to="114" begin="0; animate14.end + 1" /><animate attributeName="y" from="114" to="165" dur="0.189" begin="animate13.end + 0.5" id="animate14" fill="freeze"/></rect></clipPath></defs><path d="M 0 0 L 270 270 M 270 0 L 0 270 M 135 0 L 135 270 M 0 135 L 270 135" stroke="#CCCCCC" /><path d="M 86 59 Q 84 57 72 59 Q 51 66 46 63 Q 42 61 42 60 Q 41 58 45 58 Q 66 52 78 46 Q 88 39 93 42 Q 101 47 107 51" fill="#CCCCCC"/><path d="M 78 92 Q 88 61 86 59 L 107 51 Q 114 55 107 62 Q 99 69 93 94" fill="#CCCCCC"/><path d="M 64 97 L 78 92 L 93 94 Q 97 96 97 98 Q 97 100 95 101 Q 72 104 61 107 Q 58 107 56 107 L 52 100" fill="#CCCCCC"/><path d="M 56 107 Q 55 109 55 111 Q 51 126 48 139 Q 47 142 49 143 L 41 159 Q 36 164 33 162 Q 30 160 28 157 Q 27 154 30 150 Q 38 142 41 123 Q 44 108 39 99 Q 36 95 38 94 Q 41 92 44 94 Q 50 97 52 100" fill="#CCCCCC"/><path d="M 49 143 Q 49 144 64 139 Q 81 131 87 134 Q 95 137 98 142 L 78 146 Q 75 143 68 145 Q 51 147 41 159" fill="#CCCCCC"/><path d="M 98 142 Q 101 144 98 149 Q 95 155 95 162 Q 90 189 87 207 Q 84 224 65 239 Q 58 243 54 236 L 64 215 Q 67 211 71 202 Q 77 185 80 159 Q 81 150 78 146" fill="#CCCCCC"/><path d="M 54 236 Q 51 228 44 218 Q 41 215 40 211 Q 40 209 44 211 Q 49 213 56 215 Q 62 217 64 215" fill="#CCCCCC"/><path d="M 151 37 L 150 33 Q 149 29 151 28 Q 155 26 176 33 Q 185 37 186 42 Q 189 52 187 57 Q 186 61 182 61 Q 177 61 173 57 Q 166 50 160 44" fill="#CCCCCC"/><path d="M 154 93 Q 140 95 128 99 Q 124 100 118 99 Q 114 98 110 94 Q 106 90 111 89 Q 151 83 208 72 Q 224 67 239 77 Q 243 80 241 83 Q 240 86 226 86 Q 170 87 164 91" fill="#CCCCCC"/><path d="M 126 162 Q 123 164 120 161 Q 117 156 116 151 Q 115 148 120 145 Q 129 139 134 132 Q 156 103 154 93 L 164 91 Q 172 100 173 103 Q 173 105 169 109 Q 153 124 137 144" fill="#CCCCCC"/><path d="M 167 151 Q 136 156 126 162 L 137 144 Q 134 147 139 147 Q 154 145 172 144" fill="#CCCCCC"/><path d="M 129 218 Q 124 221 121 218 Q 115 212 114 208 Q 114 203 120 200 Q 123 198 167 151 L 172 144 Q 186 125 186 116 Q 185 112 189 111 Q 192 110 196 113 Q 205 120 207 126 Q 209 128 205 131 Q 197 136 188 147 Q 155 179 141 196" fill="#CCCCCC"/><path d="M 160 201 L 129 218 L 141 196 Q 138 200 143 199 Q 173 191 199 187 L 202 192" fill="#CCCCCC"/><path d="M 199 187 Q 190 170 190 169 Q 190 166 192 165 Q 194 165 197 167 Q 228 188 228 201 Q 228 210 225 213 Q 223 216 220 215 Q 216 214 213 210 Q 207 200 202 192" fill="#CCCCCC"/><path d="M 86 59 Q 84 57 72 59 Q 51 66 46 63 Q 42 61 42 60 Q 41 58 45 58 Q 66 52 78 46 Q 88 39 93 42 Q 101 47 107 51" fill="#0000ff" clip-path="url(#clip-mask-1)" /><path d="M 78 92 Q 88 61 86 59 L 107 51 Q 114 55 107 62 Q 99 69 93 94" fill="#0000ff" clip-path="url(#clip-mask-2)" /><path d="M 64 97 L 78 92 L 93 94 Q 97 96 97 98 Q 97 100 95 101 Q 72 104 61 107 Q 58 107 56 107 L 52 100" fill="#0000ff" clip-path="url(#clip-mask-3)" /><path d="M 56 107 Q 55 109 55 111 Q 51 126 48 139 Q 47 142 49 143 L 41 159 Q 36 164 33 162 Q 30 160 28 157 Q 27 154 30 150 Q 38 142 41 123 Q 44 108 39 99 Q 36 95 38 94 Q 41 92 44 94 Q 50 97 52 100" fill="#0000ff" clip-path="url(#clip-mask-4)" /><path d="M 49 143 Q 49 144 64 139 Q 81 131 87 134 Q 95 137 98 142 L 78 146 Q 75 143 68 145 Q 51 147 41 159" fill="#0000ff" clip-path="url(#clip-mask-5)" /><path d="M 98 142 Q 101 144 98 149 Q 95 155 95 162 Q 90 189 87 207 Q 84 224 65 239 Q 58 243 54 236 L 64 215 Q 67 211 71 202 Q 77 185 80 159 Q 81 150 78 146" fill="#0000ff" clip-path="url(#clip-mask-6)" /><path d="M 54 236 Q 51 228 44 218 Q 41 215 40 211 Q 40 209 44 211 Q 49 213 56 215 Q 62 217 64 215" fill="#0000ff" clip-path="url(#clip-mask-7)" /><path d="M 151 37 L 150 33 Q 149 29 151 28 Q 155 26 176 33 Q 185 37 186 42 Q 189 52 187 57 Q 186 61 182 61 Q 177 61 173 57 Q 166 50 160 44" fill="#000080" clip-path="url(#clip-mask-8)" /><path d="M 154 93 Q 140 95 128 99 Q 124 100 118 99 Q 114 98 110 94 Q 106 90 111 89 Q 151 83 208 72 Q 224 67 239 77 Q 243 80 241 83 Q 240 86 226 86 Q 170 87 164 91" fill="#000080" clip-path="url(#clip-mask-9)" /><path d="M 126 162 Q 123 164 120 161 Q 117 156 116 151 Q 115 148 120 145 Q 129 139 134 132 Q 156 103 154 93 L 164 91 Q 172 100 173 103 Q 173 105 169 109 Q 153 124 137 144" fill="#000080" clip-path="url(#clip-mask-10)" /><path d="M 167 151 Q 136 156 126 162 L 137 144 Q 134 147 139 147 Q 154 145 172 144" fill="#000080" clip-path="url(#clip-mask-11)" /><path d="M 129 218 Q 124 221 121 218 Q 115 212 114 208 Q 114 203 120 200 Q 123 198 167 151 L 172 144 Q 186 125 186 116 Q 185 112 189 111 Q 192 110 196 113 Q 205 120 207 126 Q 209 128 205 131 Q 197 136 188 147 Q 155 179 141 196" fill="#000080" clip-path="url(#clip-mask-12)" /><path d="M 160 201 L 129 218 L 141 196 Q 138 200 143 199 Q 173 191 199 187 L 202 192" fill="#000080" clip-path="url(#clip-mask-13)" /><path d="M 199 187 Q 190 170 190 169 Q 190 166 192 165 Q 194 165 197 167 Q 228 188 228 201 Q 228 210 225 213 Q 223 216 220 215 Q 216 214 213 210 Q 207 200 202 192" fill="#000080" clip-path="url(#clip-mask-14)" /></svg>