<svg xmlns="http://www.w3.org/2000/svg" xmlns:xlink="http://www.w3.org/1999/xlink" width="270" height="270"><defs><clipPath id="clip-mask-1"><rect x="27" y="89" width="76" height="26"><animate attributeName="x" from="-49" to="27" dur="0.281" begin="0; animate11.end + 1" id="animate1" fill="freeze"/></rect></clipPath><clipPath id="clip-mask-2"><rect x="62" y="27" width="31" height="198"><set attributeName="y" to="-171" begin="0; animate11.end + 1" /><animate attributeName="y" from="-171" to="27" dur="0.733" begin="animate1.end + 0.5" id="animate2" fill="freeze"/></rect></clipPath><clipPath id="clip-mask-3"><rect x="22" y="93" width="52" height="92"><set attributeName="y" to="1" begin="0; animate11.end + 1" /><animate attributeName="y" from="1" to="93" dur="0.341" begin="animate2.end + 0.5" id="animate3" fill="freeze"/></rect></clipPath><clipPath id="clip-mask-4"><rect x="83" y="127" width="24" height="18"><set attributeName="x" to="59" begin="0; animate11.end + 1" /><animate attributeName="x" from="59" to="83" dur="0.089" begin="animate3.end + 0.5" id="animate4" fill="freeze"/></rect></clipPath><clipPath id="clip-mask-5"><rect x="106" y="80" width="70" height="24"><set attributeName="x" to="36" begin="0; animate11.end + 1" /><animate attributeName="x" from="36" to="106" dur="0.259" begin="animate4.end + 0.5" id="animate5" fill="freeze"/></rect></clipPath><clipPath id="clip-mask-6"><rect x="126" y="18" width="30" height="203"><set attributeName="y" to="-185" begin="0; animate11.end + 1" /><animate attributeName="y" from="-185" to="18" dur="0.752" begin="animate5.end + 0.5" id="animate6" fill="freeze"/></rect></clipPath><clipPath id="clip-mask-7"><rect x="93" y="89" width="44" height="86"><set attributeName="y" to="3" begin="0; animate11.end + 1" /><animate attributeName="y" from="3" to="89" dur="0.319" begin="animate6.end + 0.5" id="animate7" fill="freeze"/></rect></clipPath><clipPath id="clip-mask-8"><rect x="147" y="128" width="26" height="20"><set attributeName="x" to="121" begin="0; animate11.end + 1" /><animate attributeName="x" from="121" to="147" dur="0.096" begin="animate7.end + 0.5" id="animate8" fill="freeze"/></rect></clipPath><clipPath id="clip-mask-9"><rect x="174" y="29" width="64" height="79"><set attributeName="y" to="-50" begin="0; animate11.end + 1" /><animate attributeName="y" from="-50" to="29" dur="0.293" begin="animate8.end + 0.5" id="animate9" fill="freeze"/></rect></clipPath><clipPath id="clip-mask-10"><rect x="172" y="90" width="64" height="73"><set attributeName="y" to="17" begin="0; animate11.end + 1" /><animate attributeName="y" from="17" to="90" dur="0.270" begin="animate9.end + 0.5" id="animate10" fill="freeze"/></rect></clipPath><clipPath id="clip-mask-11"><rect x="137" y="144" width="110" height="107"><set attributeName="y" to="37" begin="0; animate11.end + 1" /><animate attributeName="y" from="37" to="144" dur="0.396" begin="animate10.end + 0.5" id="animate11" fill="freeze"/></rect></clipPath></defs><path d="M 0 0 L 270 270 M 270 0 L 0 270 M 135 0 L 135 270 M 0 135 L 270 135" stroke="#CCCCCC" /><path d="M 69 107 Q 62 109 58 110 Q 44 115 33 109 Q 27 106 35 104 Q 45 102 74 94 Q 74 93 74 93 L 85 90 Q 88 89 93 90 Q 100 91 102 94 Q 103 96 101 98 Q 100 99 92 101 Q 88 102 84 103" fill="#CCCCCC"/><path d="M 82 195 L 82 204 Q 82 220 75 223 Q 73 225 72 224 Q 70 223 69 219 Q 69 218 69 218 Q 62 202 67 188 Q 71 173 72 131 L 74 93 Q 74 74 74 58 Q 74 47 66 36 Q 65 32 66 31 Q 71 27 76 31 Q 82 35 86 38 Q 93 42 90 49 Q 85 67 85 90 L 84 103 Q 84 116 83 127 L 83 133" fill="#CCCCCC"/><path d="M 72 131 Q 56 161 30 183 Q 27 185 26 185 Q 22 184 24 182 Q 57 139 69 107 L 74 93" fill="#CCCCCC"/><path d="M 83 127 Q 87 127 95 129 Q 101 130 104 133 Q 107 137 107 140 Q 107 144 103 145 Q 97 145 83 133" fill="#CCCCCC"/><path d="M 135 101 Q 122 104 112 99 Q 106 95 114 94 Q 126 92 135 89 Q 136 89 137 89 L 148 85 Q 157 80 166 81 Q 173 83 175 86 Q 176 88 174 89 Q 173 91 166 93 Q 157 95 148 97" fill="#CCCCCC"/><path d="M 146 191 L 147 199 Q 147 207 144 213 Q 142 218 140 219 Q 138 221 136 220 Q 135 218 133 214 Q 126 196 131 185 Q 135 168 136 127 L 137 89 Q 137 73 137 56 Q 137 38 129 27 Q 128 23 129 22 Q 134 18 140 22 Q 153 31 155 33 Q 156 36 153 40 Q 148 57 148 85 L 148 97 Q 148 114 147 128 L 147 135" fill="#CCCCCC"/><path d="M 136 127 Q 122 152 99 173 Q 97 175 95 175 Q 93 175 94 172 Q 125 129 135 101 L 137 89" fill="#CCCCCC"/><path d="M 147 128 Q 151 128 160 131 Q 166 132 170 136 Q 173 140 173 143 Q 172 147 169 147 Q 164 148 147 135" fill="#CCCCCC"/><path d="M 213 30 L 218 29 Q 223 30 230 35 Q 237 41 237 45 Q 238 48 236 51 Q 234 52 224 65 Q 191 106 177 107 Q 174 108 175 105 Q 176 103 178 101 Q 191 87 200 73 Q 219 44 215 35" fill="#CCCCCC"/><path d="M 212 90 L 217 90 Q 222 91 228 96 Q 234 102 235 106 Q 236 109 233 111 Q 227 115 222 123 Q 189 160 175 162 Q 172 163 173 160 Q 174 159 176 156 Q 189 143 198 131 Q 217 105 214 96" fill="#CCCCCC"/><path d="M 223 145 L 226 145 Q 229 144 235 147 Q 240 148 243 153 Q 246 156 247 159 Q 247 162 245 163 Q 243 164 240 168 Q 212 204 189 225 Q 155 251 140 251 Q 137 250 139 249 Q 154 238 186 211 Q 225 172 224 148" fill="#CCCCCC"/><path d="M 69 107 Q 62 109 58 110 Q 44 115 33 109 Q 27 106 35 104 Q 45 102 74 94 Q 74 93 74 93 L 85 90 Q 88 89 93 90 Q 100 91 102 94 Q 103 96 101 98 Q 100 99 92 101 Q 88 102 84 103" fill="#000080" clip-path="url(#clip-mask-1)" /><path d="M 82 195 L 82 204 Q 82 220 75 223 Q 73 225 72 224 Q 70 223 69 219 Q 69 218 69 218 Q 62 202 67 188 Q 71 173 72 131 L 74 93 Q 74 74 74 58 Q 74 47 66 36 Q 65 32 66 31 Q 71 27 76 31 Q 82 35 86 38 Q 93 42 90 49 Q 85 67 85 90 L 84 103 Q 84 116 83 127 L 83 133" fill="#000080" clip-path="url(#clip-mask-2)" /><path d="M 72 131 Q 56 161 30 183 Q 27 185 26 185 Q 22 184 24 182 Q 57 139 69 107 L 74 93" fill="#000080" clip-path="url(#clip-mask-3)" /><path d="M 83 127 Q 87 127 95 129 Q 101 130 104 133 Q 107 137 107 140 Q 107 144 103 145 Q 97 145 83 133" fill="#000080" clip-path="url(#clip-mask-4)" /><path d="M 135 101 Q 122 104 112 99 Q 106 95 114 94 Q 126 92 135 89 Q 136 89 137 89 L 148 85 Q 157 80 166 81 Q 173 83 175 86 Q 176 88 174 89 Q 173 91 166 93 Q 157 95 148 97" fill="#000080" clip-path="url(#clip-mask-5)" /><path d="M 146 191 L 147 199 Q 147 207 144 213 Q 142 218 140 219 Q 138 221 136 220 Q 135 218 133 214 Q 126 196 131 185 Q 135 168 136 127 L 137 89 Q 137 73 137 56 Q 137 38 129 27 Q 128 23 129 22 Q 134 18 140 22 Q 153 31 155 33 Q 156 36 153 40 Q 148 57 148 85 L 148 97 Q 148 114 147 128 L 147 135" fill="#000080" clip-path="url(#clip-mask-6)" /><path d="M 136 127 Q 122 152 99 173 Q 97 175 95 175 Q 93 175 94 172 Q 125 129 135 101 L 137 89" fill="#000080" clip-path="url(#clip-mask-7)" /><path d="M 147 128 Q 151 128 160 131 Q 166 132 170 136 Q 173 140 173 143 Q 172 147 169 147 Q 164 148 147 135" fill="#000080" clip-path="url(#clip-mask-8)" /><path d="M 213 30 L 218 29 Q 223 30 230 35 Q 237 41 237 45 Q 238 48 236 51 Q 234 52 224 65 Q 191 106 177 107 Q 174 108 175 105 Q 176 103 178 101 Q 191 87 200 73 Q 219 44 215 35" fill="#0000ff" clip-path="url(#clip-mask-9)" /><path d="M 212 90 L 217 90 Q 222 91 228 96 Q 234 102 235 106 Q 236 109 233 111 Q 227 115 222 123 Q 189 160 175 162 Q 172 163 173 160 Q 174 159 176 156 Q 189 143 198 131 Q 217 105 214 96" fill="#0000ff" clip-path="url(#clip-mask-10)" /><path d="M 223 145 L 226 145 Q 229 144 235 147 Q 240 148 243 153 Q 246 156 247 159 Q 247 162 245 163 Q 243 164 240 168 Q 212 204 189 225 Q 155 251 140 251 Q 137 250 139 249 Q 154 238 186 211 Q 225 172 224 148" fill="#0000ff" clip-path="url(#clip-mask-11)" /></svg>