<svg xmlns="http://www.w3.org/2000/svg" xmlns:xlink="http://www.w3.org/1999/xlink" width="270" height="270"><defs><clipPath id="clip-mask-1"><rect x="44" y="14" width="65" height="75"><animate attributeName="y" from="-61" to="14" dur="0.278" begin="0; animate10.end + 1" id="animate1" fill="freeze"/></rect></clipPath><clipPath id="clip-mask-2"><rect x="14" y="71" width="92" height="106"><set attributeName="y" to="-35" begin="0; animate10.end + 1" /><animate attributeName="y" from="-35" to="71" dur="0.393" begin="animate1.end + 0.5" id="animate2" fill="freeze"/></rect></clipPath><clipPath id="clip-mask-3"><rect x="60" y="126" width="27" height="107"><set attributeName="y" to="19" begin="0; animate10.end + 1" /><animate attributeName="y" from="19" to="126" dur="0.396" begin="animate2.end + 0.5" id="animate3" fill="freeze"/></rect></clipPath><clipPath id="clip-mask-4"><rect x="126" y="50" width="88" height="28"><set attributeName="x" to="38" begin="0; animate10.end + 1" /><animate attributeName="x" from="38" to="126" dur="0.326" begin="animate3.end + 0.5" id="animate4" fill="freeze"/></rect></clipPath><clipPath id="clip-mask-5"><rect x="153" y="11" width="30" height="93"><set attributeName="y" to="-82" begin="0; animate10.end + 1" /><animate attributeName="y" from="-82" to="11" dur="0.344" begin="animate4.end + 0.5" id="animate5" fill="freeze"/></rect></clipPath><clipPath id="clip-mask-6"><rect x="101" y="87" width="154" height="38"><set attributeName="x" to="-53" begin="0; animate10.end + 1" /><animate attributeName="x" from="-53" to="101" dur="0.570" begin="animate5.end + 0.5" id="animate6" fill="freeze"/></rect></clipPath><clipPath id="clip-mask-7"><rect x="104" y="124" width="134" height="36"><set attributeName="x" to="-30" begin="0; animate10.end + 1" /><animate attributeName="x" from="-30" to="104" dur="0.496" begin="animate6.end + 0.5" id="animate7" fill="freeze"/></rect></clipPath><clipPath id="clip-mask-8"><rect x="175" y="110" width="28" height="148"><set attributeName="y" to="-38" begin="0; animate10.end + 1" /><animate attributeName="y" from="-38" to="110" dur="0.548" begin="animate7.end + 0.5" id="animate8" fill="freeze"/></rect></clipPath><clipPath id="clip-mask-9"><rect x="156" y="217" width="29" height="36"><set attributeName="x" to="185" begin="0; animate10.end + 1" /><animate attributeName="x" from="185" to="156" dur="0.107" begin="animate8.end" id="animate9" fill="freeze"/></rect></clipPath><clipPath id="clip-mask-10"><rect x="125" y="165" width="30" height="36"><set attributeName="y" to="129" begin="0; animate10.end + 1" /><animate attributeName="y" from="129" to="165" dur="0.133" begin="animate9.end + 0.5" id="animate10" fill="freeze"/></rect></clipPath></defs><path d="M 0 0 L 270 270 M 270 0 L 0 270 M 135 0 L 135 270 M 0 135 L 270 135" stroke="#CCCCCC" /><path d="M 85 14 L 90 14 Q 94 14 101 19 Q 107 25 108 29 Q 109 32 106 35 Q 102 38 97 45 Q 62 86 47 89 Q 44 89 45 86 Q 46 85 48 83 Q 61 69 70 56 Q 90 30 87 19" fill="#CCCCCC"/><path d="M 29 176 L 18 177 Q 14 177 15 174 Q 16 173 19 171 Q 60 131 81 95 Q 86 84 83 77 Q 82 71 87 71 Q 92 72 99 77 Q 105 84 106 88 Q 106 89 106 90 Q 106 91 77 126 L 69 135" fill="#CCCCCC"/><path d="M 77 126 Q 80 130 85 135 Q 87 137 86 144 Q 83 155 82 205 Q 83 216 79 227 Q 76 233 72 229 Q 60 218 68 193 Q 75 151 69 135" fill="#CCCCCC"/><path d="M 163 74 Q 144 78 133 73 Q 126 68 136 66 Q 150 64 162 62 L 177 57 Q 192 50 202 52 Q 210 54 212 57 Q 214 59 211 62 Q 210 63 201 65 Q 188 68 177 71" fill="#CCCCCC"/><path d="M 163 89 L 163 74 L 162 62 Q 162 46 161 32 Q 161 27 155 20 Q 153 16 155 14 Q 157 11 162 12 Q 168 14 178 19 Q 183 23 182 25 Q 178 42 177 57 L 177 71 Q 176 86 175 102 L 163 104" fill="#CCCCCC"/><path d="M 175 102 Q 209 94 229 89 Q 238 87 251 95 Q 255 98 254 101 Q 253 103 248 103 Q 248 103 248 103 Q 164 109 122 123 Q 118 125 113 124 Q 108 123 105 119 Q 101 116 106 115 Q 136 109 163 104" fill="#CCCCCC"/><path d="M 154 149 L 126 159 Q 121 160 116 159 Q 112 158 108 155 Q 104 151 109 150 Q 140 144 166 139 Q 175 137 184 135 L 200 131 Q 201 131 202 131 Q 220 124 234 134 Q 238 137 237 140 Q 236 143 222 143 Q 209 144 198 145 L 184 146" fill="#CCCCCC"/><path d="M 184 135 Q 183 126 178 118 Q 175 113 176 112 Q 179 110 184 111 Q 192 114 199 119 Q 203 123 201 128 Q 200 129 200 131 L 198 145 Q 198 189 201 224 Q 201 245 193 254 Q 189 258 185 253 L 185 217 Q 186 192 184 146" fill="#CCCCCC"/><path d="M 185 253 Q 178 244 159 228 Q 156 226 156 225 Q 156 223 159 223 Q 180 226 182 225 Q 185 222 185 217" fill="#CCCCCC"/><path d="M 126 173 L 125 169 Q 126 166 127 165 Q 129 165 133 167 Q 141 171 148 175 Q 155 181 155 186 Q 155 194 153 198 Q 151 201 148 200 Q 144 199 141 195 Q 136 187 131 180" fill="#CCCCCC"/><path d="M 85 14 L 90 14 Q 94 14 101 19 Q 107 25 108 29 Q 109 32 106 35 Q 102 38 97 45 Q 62 86 47 89 Q 44 89 45 86 Q 46 85 48 83 Q 61 69 70 56 Q 90 30 87 19" fill="#0000ff" clip-path="url(#clip-mask-1)" /><path d="M 29 176 L 18 177 Q 14 177 15 174 Q 16 173 19 171 Q 60 131 81 95 Q 86 84 83 77 Q 82 71 87 71 Q 92 72 99 77 Q 105 84 106 88 Q 106 89 106 90 Q 106 91 77 126 L 69 135" fill="#0000ff" clip-path="url(#clip-mask-2)" /><path d="M 77 126 Q 80 130 85 135 Q 87 137 86 144 Q 83 155 82 205 Q 83 216 79 227 Q 76 233 72 229 Q 60 218 68 193 Q 75 151 69 135" fill="#0000ff" clip-path="url(#clip-mask-3)" /><path d="M 163 74 Q 144 78 133 73 Q 126 68 136 66 Q 150 64 162 62 L 177 57 Q 192 50 202 52 Q 210 54 212 57 Q 214 59 211 62 Q 210 63 201 65 Q 188 68 177 71" fill="#000080" clip-path="url(#clip-mask-4)" /><path d="M 163 89 L 163 74 L 162 62 Q 162 46 161 32 Q 161 27 155 20 Q 153 16 155 14 Q 157 11 162 12 Q 168 14 178 19 Q 183 23 182 25 Q 178 42 177 57 L 177 71 Q 176 86 175 102 L 163 104" fill="#000080" clip-path="url(#clip-mask-5)" /><path d="M 175 102 Q 209 94 229 89 Q 238 87 251 95 Q 255 98 254 101 Q 253 103 248 103 Q 248 103 248 103 Q 164 109 122 123 Q 118 125 113 124 Q 108 123 105 119 Q 101 116 106 115 Q 136 109 163 104" fill="#000080" clip-path="url(#clip-mask-6)" /><path d="M 154 149 L 126 159 Q 121 160 116 159 Q 112 158 108 155 Q 104 151 109 150 Q 140 144 166 139 Q 175 137 184 135 L 200 131 Q 201 131 202 131 Q 220 124 234 134 Q 238 137 237 140 Q 236 143 222 143 Q 209 144 198 145 L 184 146" fill="#000080" clip-path="url(#clip-mask-7)" /><path d="M 184 135 Q 183 126 178 118 Q 175 113 176 112 Q 179 110 184 111 Q 192 114 199 119 Q 203 123 201 128 Q 200 129 200 131 L 198 145 Q 198 189 201 224 Q 201 245 193 254 Q 189 258 185 253 L 185 217 Q 186 192 184 146" fill="#000080" clip-path="url(#clip-mask-8)" /><path d="M 185 253 Q 178 244 159 228 Q 156 226 156 225 Q 156 223 159 223 Q 180 226 182 225 Q 185 222 185 217" fill="#000080" clip-path="url(#clip-mask-9)" /><path d="M 126 173 L 125 169 Q 126 166 127 165 Q 129 165 133 167 Q 141 171 148 175 Q 155 181 155 186 Q 155 194 153 198 Q 151 201 148 200 Q 144 199 141 195 Q 136 187 131 180" fill="#000080" clip-path="url(#clip-mask-10)" /></svg>