<svg xmlns="http://www.w3.org/2000/svg" xmlns:xlink="http://www.w3.org/1999/xlink" width="270" height="270"><defs><clipPath id="clip-mask-1"><rect x="36" y="11" width="65" height="72"><animate attributeName="y" from="-61" to="11" dur="0.267" begin="0; animate13.end + 1" id="animate1" fill="freeze"/></rect></clipPath><clipPath id="clip-mask-2"><rect x="11" y="66" width="93" height="108"><set attributeName="y" to="-42" begin="0; animate13.end + 1" /><animate attributeName="y" from="-42" to="66" dur="0.400" begin="animate1.end + 0.5" id="animate2" fill="freeze"/></rect></clipPath><clipPath id="clip-mask-3"><rect x="56" y="126" width="26" height="109"><set attributeName="y" to="17" begin="0; animate13.end + 1" /><animate attributeName="y" from="17" to="126" dur="0.404" begin="animate2.end + 0.5" id="animate3" fill="freeze"/></rect></clipPath><clipPath id="clip-mask-4"><rect x="115" y="32" width="28" height="68"><set attributeName="y" to="-36" begin="0; animate13.end + 1" /><animate attributeName="y" from="-36" to="32" dur="0.252" begin="animate3.end + 0.5" id="animate4" fill="freeze"/></rect></clipPath><clipPath id="clip-mask-5"><rect x="131" y="20" width="87" height="24"><set attributeName="x" to="44" begin="0; animate13.end + 1" /><animate attributeName="x" from="44" to="131" dur="0.322" begin="animate4.end + 0.5" id="animate5" fill="freeze"/></rect></clipPath><clipPath id="clip-mask-6"><rect x="180" y="34" width="40" height="62"><set attributeName="y" to="-28" begin="0; animate13.end + 1" /><animate attributeName="y" from="-28" to="34" dur="0.230" begin="animate5.end" id="animate6" fill="freeze"/></rect></clipPath><clipPath id="clip-mask-7"><rect x="136" y="51" width="44" height="15"><set attributeName="x" to="92" begin="0; animate13.end + 1" /><animate attributeName="x" from="92" to="136" dur="0.163" begin="animate6.end + 0.5" id="animate7" fill="freeze"/></rect></clipPath><clipPath id="clip-mask-8"><rect x="141" y="74" width="43" height="15"><set attributeName="x" to="98" begin="0; animate13.end + 1" /><animate attributeName="x" from="98" to="141" dur="0.159" begin="animate7.end + 0.5" id="animate8" fill="freeze"/></rect></clipPath><clipPath id="clip-mask-9"><rect x="124" y="100" width="83" height="24"><set attributeName="x" to="41" begin="0; animate13.end + 1" /><animate attributeName="x" from="41" to="124" dur="0.307" begin="animate8.end + 0.5" id="animate9" fill="freeze"/></rect></clipPath><clipPath id="clip-mask-10"><rect x="94" y="126" width="164" height="35"><set attributeName="x" to="-70" begin="0; animate13.end + 1" /><animate attributeName="x" from="-70" to="94" dur="0.607" begin="animate9.end + 0.5" id="animate10" fill="freeze"/></rect></clipPath><clipPath id="clip-mask-11"><rect x="172" y="114" width="27" height="144"><set attributeName="y" to="-30" begin="0; animate13.end + 1" /><animate attributeName="y" from="-30" to="114" dur="0.533" begin="animate10.end + 0.5" id="animate11" fill="freeze"/></rect></clipPath><clipPath id="clip-mask-12"><rect x="148" y="219" width="30" height="34"><set attributeName="x" to="178" begin="0; animate13.end + 1" /><animate attributeName="x" from="178" to="148" dur="0.111" begin="animate11.end" id="animate12" fill="freeze"/></rect></clipPath><clipPath id="clip-mask-13"><rect x="122" y="161" width="27" height="40"><set attributeName="y" to="121" begin="0; animate13.end + 1" /><animate attributeName="y" from="121" to="161" dur="0.148" begin="animate12.end + 0.5" id="animate13" fill="freeze"/></rect></clipPath></defs><path d="M 0 0 L 270 270 M 270 0 L 0 270 M 135 0 L 135 270 M 0 135 L 270 135" stroke="#CCCCCC" /><path d="M 79 11 L 83 11 Q 88 12 94 17 Q 100 23 100 27 Q 101 30 98 32 Q 97 32 97 33 Q 89 38 87 44 Q 51 83 39 83 Q 36 83 37 80 Q 38 79 40 77 Q 53 64 62 52 Q 83 26 80 17" fill="#CCCCCC"/><path d="M 58 140 L 53 145 Q 26 172 14 174 Q 11 174 12 171 Q 12 170 15 167 Q 58 126 78 90 Q 83 79 81 72 Q 80 66 85 66 Q 90 66 96 72 Q 103 79 104 83 Q 104 84 104 85 Q 104 86 70 126 L 63 135 Q 63 134 63 134" fill="#CCCCCC"/><path d="M 70 126 Q 77 133 80 136 Q 82 138 80 145 Q 79 157 78 207 Q 79 218 75 229 Q 72 235 67 231 Q 66 230 66 230 Q 56 215 62 201 Q 72 153 63 135" fill="#CCCCCC"/><path d="M 142 93 L 141 96 Q 140 100 136 95 Q 131 89 130 81 Q 124 54 116 38 Q 115 34 116 33 Q 117 32 119 32 Q 128 34 131 35 L 133 44 Q 134 49 136 61 L 137 66 Q 141 80 141 82 L 143 89 Q 142 89 142 89" fill="#CCCCCC"/><path d="M 131 35 Q 179 25 181 25 Q 199 20 204 23 Q 214 30 218 34 L 194 34 Q 187 29 137 43 Q 135 44 133 44" fill="#CCCCCC"/><path d="M 218 34 Q 220 38 217 41 Q 211 47 208 55 Q 198 85 194 91 Q 190 96 187 94 Q 184 91 180 85 L 184 77 Q 187 73 196 41 Q 197 36 194 34" fill="#CCCCCC"/><path d="M 136 61 Q 162 51 170 52 Q 176 53 178 57 Q 180 59 175 61 Q 160 63 140 66 Q 139 66 137 66" fill="#CCCCCC"/><path d="M 141 82 Q 175 74 181 76 Q 183 76 184 77 L 180 85 Q 163 86 143 89" fill="#CCCCCC"/><path d="M 172 117 Q 162 119 151 121 Q 140 124 130 118 Q 124 114 132 113 Q 150 111 167 107 Q 191 100 197 101 Q 204 103 206 105 Q 207 107 205 109 Q 203 110 194 112 Q 190 113 187 114" fill="#CCCCCC"/><path d="M 144 151 L 115 160 Q 111 161 106 159 Q 101 158 98 155 Q 94 150 99 150 Q 139 145 172 140 Q 175 139 178 139 L 194 136 Q 211 133 225 130 Q 240 126 254 136 Q 258 140 257 143 Q 256 145 251 145 Q 211 145 193 147 L 179 148" fill="#CCCCCC"/><path d="M 178 139 Q 178 127 172 117 L 187 114 Q 190 116 194 119 Q 199 122 196 128 Q 194 131 194 136 L 193 147 Q 193 187 196 220 Q 195 245 186 254 Q 182 258 178 253 L 175 223 Q 182 218 179 148" fill="#CCCCCC"/><path d="M 178 253 Q 171 243 152 226 Q 149 223 149 221 Q 148 219 152 220 Q 173 224 175 223" fill="#CCCCCC"/><path d="M 122 167 L 123 164 Q 124 161 125 161 Q 127 161 130 164 Q 149 179 149 189 Q 148 196 145 199 Q 143 201 140 200 Q 137 199 135 195 Q 130 184 126 174" fill="#CCCCCC"/><path d="M 79 11 L 83 11 Q 88 12 94 17 Q 100 23 100 27 Q 101 30 98 32 Q 97 32 97 33 Q 89 38 87 44 Q 51 83 39 83 Q 36 83 37 80 Q 38 79 40 77 Q 53 64 62 52 Q 83 26 80 17" fill="#0000ff" clip-path="url(#clip-mask-1)" /><path d="M 58 140 L 53 145 Q 26 172 14 174 Q 11 174 12 171 Q 12 170 15 167 Q 58 126 78 90 Q 83 79 81 72 Q 80 66 85 66 Q 90 66 96 72 Q 103 79 104 83 Q 104 84 104 85 Q 104 86 70 126 L 63 135 Q 63 134 63 134" fill="#0000ff" clip-path="url(#clip-mask-2)" /><path d="M 70 126 Q 77 133 80 136 Q 82 138 80 145 Q 79 157 78 207 Q 79 218 75 229 Q 72 235 67 231 Q 66 230 66 230 Q 56 215 62 201 Q 72 153 63 135" fill="#0000ff" clip-path="url(#clip-mask-3)" /><path d="M 142 93 L 141 96 Q 140 100 136 95 Q 131 89 130 81 Q 124 54 116 38 Q 115 34 116 33 Q 117 32 119 32 Q 128 34 131 35 L 133 44 Q 134 49 136 61 L 137 66 Q 141 80 141 82 L 143 89 Q 142 89 142 89" fill="#000080" clip-path="url(#clip-mask-4)" /><path d="M 131 35 Q 179 25 181 25 Q 199 20 204 23 Q 214 30 218 34 L 194 34 Q 187 29 137 43 Q 135 44 133 44" fill="#000080" clip-path="url(#clip-mask-5)" /><path d="M 218 34 Q 220 38 217 41 Q 211 47 208 55 Q 198 85 194 91 Q 190 96 187 94 Q 184 91 180 85 L 184 77 Q 187 73 196 41 Q 197 36 194 34" fill="#000080" clip-path="url(#clip-mask-6)" /><path d="M 136 61 Q 162 51 170 52 Q 176 53 178 57 Q 180 59 175 61 Q 160 63 140 66 Q 139 66 137 66" fill="#000080" clip-path="url(#clip-mask-7)" /><path d="M 141 82 Q 175 74 181 76 Q 183 76 184 77 L 180 85 Q 163 86 143 89" fill="#000080" clip-path="url(#clip-mask-8)" /><path d="M 172 117 Q 162 119 151 121 Q 140 124 130 118 Q 124 114 132 113 Q 150 111 167 107 Q 191 100 197 101 Q 204 103 206 105 Q 207 107 205 109 Q 203 110 194 112 Q 190 113 187 114" fill="#000080" clip-path="url(#clip-mask-9)" /><path d="M 144 151 L 115 160 Q 111 161 106 159 Q 101 158 98 155 Q 94 150 99 150 Q 139 145 172 140 Q 175 139 178 139 L 194 136 Q 211 133 225 130 Q 240 126 254 136 Q 258 140 257 143 Q 256 145 251 145 Q 211 145 193 147 L 179 148" fill="#000080" clip-path="url(#clip-mask-10)" /><path d="M 178 139 Q 178 127 172 117 L 187 114 Q 190 116 194 119 Q 199 122 196 128 Q 194 131 194 136 L 193 147 Q 193 187 196 220 Q 195 245 186 254 Q 182 258 178 253 L 175 223 Q 182 218 179 148" fill="#000080" clip-path="url(#clip-mask-11)" /><path d="M 178 253 Q 171 243 152 226 Q 149 223 149 221 Q 148 219 152 220 Q 173 224 175 223" fill="#000080" clip-path="url(#clip-mask-12)" /><path d="M 122 167 L 123 164 Q 124 161 125 161 Q 127 161 130 164 Q 149 179 149 189 Q 148 196 145 199 Q 143 201 140 200 Q 137 199 135 195 Q 130 184 126 174" fill="#000080" clip-path="url(#clip-mask-13)" /></svg>