<svg xmlns="http://www.w3.org/2000/svg" xmlns:xlink="http://www.w3.org/1999/xlink" width="270" height="270"><defs><clipPath id="clip-mask-1"><rect x="24" y="104" width="31" height="73"><animate attributeName="y" from="31" to="104" dur="0.270" begin="0; animate5.end + 1" id="animate1" fill="freeze"/></rect></clipPath><clipPath id="clip-mask-2"><rect x="77" y="109" width="151" height="100"><set attributeName="x" to="-74" begin="0; animate5.end + 1" /><animate attributeName="x" from="-74" to="77" dur="0.559" begin="animate1.end + 0.5" id="animate2" fill="freeze"/></rect></clipPath><clipPath id="clip-mask-3"><rect x="176" y="131" width="43" height="42"><set attributeName="y" to="173" begin="0; animate5.end + 1" /><animate attributeName="y" from="173" to="131" dur="0.156" begin="animate2.end" id="animate3" fill="freeze"/></rect></clipPath><clipPath id="clip-mask-4"><rect x="105" y="60" width="40" height="43"><set attributeName="x" to="65" begin="0; animate5.end + 1" /><animate attributeName="x" from="65" to="105" dur="0.148" begin="animate3.end + 0.5" id="animate4" fill="freeze"/></rect></clipPath><clipPath id="clip-mask-5"><rect x="192" y="67" width="53" height="51"><set attributeName="x" to="139" begin="0; animate5.end + 1" /><animate attributeName="x" from="139" to="192" dur="0.196" begin="animate4.end + 0.5" id="animate5" fill="freeze"/></rect></clipPath></defs><path d="M 0 0 L 270 270 M 270 0 L 0 270 M 135 0 L 135 270 M 0 135 L 270 135" stroke="#CCCCCC" /><path d="M 46 105 L 48 104 Q 50 104 52 107 Q 55 114 55 125 Q 55 139 49 157 Q 45 167 39 173 Q 33 177 30 172 Q 24 163 28 151 Q 38 130 45 107" fill="#CCCCCC"/><path d="M 77 112 L 78 111 Q 80 109 85 111 Q 90 114 92 122 Q 96 137 103 152 Q 113 172 141 176 Q 174 181 184 173 L 219 168 Q 226 173 227 177 Q 228 180 223 182 Q 185 209 134 193 Q 127 191 121 188 Q 96 176 87 141 Q 81 123 79 117" fill="#CCCCCC"/><path d="M 184 173 Q 188 169 187 163 Q 182 148 177 134 Q 176 132 177 132 Q 180 131 181 134 Q 209 160 219 168" fill="#CCCCCC"/><path d="M 105 68 L 105 65 Q 105 61 106 61 Q 108 60 113 62 Q 143 75 144 87 Q 145 95 143 100 Q 141 103 138 103 Q 133 102 130 98 Q 121 86 112 76" fill="#CCCCCC"/><path d="M 192 75 L 193 71 Q 193 67 196 68 Q 238 82 241 97 Q 245 110 242 115 Q 239 118 237 117 Q 232 116 227 110 Q 210 91 196 78" fill="#CCCCCC"/><path d="M 46 105 L 48 104 Q 50 104 52 107 Q 55 114 55 125 Q 55 139 49 157 Q 45 167 39 173 Q 33 177 30 172 Q 24 163 28 151 Q 38 130 45 107" fill="#0000ff" clip-path="url(#clip-mask-1)" /><path d="M 77 112 L 78 111 Q 80 109 85 111 Q 90 114 92 122 Q 96 137 103 152 Q 113 172 141 176 Q 174 181 184 173 L 219 168 Q 226 173 227 177 Q 228 180 223 182 Q 185 209 134 193 Q 127 191 121 188 Q 96 176 87 141 Q 81 123 79 117" fill="#0000ff" clip-path="url(#clip-mask-2)" /><path d="M 184 173 Q 188 169 187 163 Q 182 148 177 134 Q 176 132 177 132 Q 180 131 181 134 Q 209 160 219 168" fill="#0000ff" clip-path="url(#clip-mask-3)" /><path d="M 105 68 L 105 65 Q 105 61 106 61 Q 108 60 113 62 Q 143 75 144 87 Q 145 95 143 100 Q 141 103 138 103 Q 133 102 130 98 Q 121 86 112 76" fill="#0000ff" clip-path="url(#clip-mask-4)" /><path d="M 192 75 L 193 71 Q 193 67 196 68 Q 238 82 241 97 Q 245 110 242 115 Q 239 118 237 117 Q 232 116 227 110 Q 210 91 196 78" fill="#0000ff" clip-path="url(#clip-mask-5)" /></svg>