<svg xmlns="http://www.w3.org/2000/svg" xmlns:xlink="http://www.w3.org/1999/xlink" width="270" height="270"><defs><clipPath id="clip-mask-1"><rect x="70" y="27" width="132" height="34"><animate attributeName="x" from="-62" to="70" dur="0.489" begin="0; animate10.end + 1" id="animate1" fill="freeze"/></rect></clipPath><clipPath id="clip-mask-2"><rect x="159" y="47" width="39" height="98"><set attributeName="y" to="-51" begin="0; animate10.end + 1" /><animate attributeName="y" from="-51" to="47" dur="0.363" begin="animate1.end" id="animate2" fill="freeze"/></rect></clipPath><clipPath id="clip-mask-3"><rect x="127" y="113" width="32" height="37"><set attributeName="x" to="159" begin="0; animate10.end + 1" /><animate attributeName="x" from="159" to="127" dur="0.119" begin="animate2.end" id="animate3" fill="freeze"/></rect></clipPath><clipPath id="clip-mask-4"><rect x="59" y="51" width="79" height="100"><set attributeName="y" to="-49" begin="0; animate10.end + 1" /><animate attributeName="y" from="-49" to="51" dur="0.370" begin="animate3.end + 0.5" id="animate4" fill="freeze"/></rect></clipPath><clipPath id="clip-mask-5"><rect x="66" y="74" width="27" height="38"><set attributeName="y" to="36" begin="0; animate10.end + 1" /><animate attributeName="y" from="36" to="74" dur="0.141" begin="animate4.end + 0.5" id="animate5" fill="freeze"/></rect></clipPath><clipPath id="clip-mask-6"><rect x="24" y="166" width="30" height="59"><set attributeName="y" to="107" begin="0; animate10.end + 1" /><animate attributeName="y" from="107" to="166" dur="0.219" begin="animate5.end + 0.5" id="animate6" fill="freeze"/></rect></clipPath><clipPath id="clip-mask-7"><rect x="77" y="168" width="144" height="74"><set attributeName="x" to="-67" begin="0; animate10.end + 1" /><animate attributeName="x" from="-67" to="77" dur="0.533" begin="animate6.end + 0.5" id="animate7" fill="freeze"/></rect></clipPath><clipPath id="clip-mask-8"><rect x="178" y="180" width="33" height="37"><set attributeName="y" to="217" begin="0; animate10.end + 1" /><animate attributeName="y" from="217" to="180" dur="0.137" begin="animate7.end" id="animate8" fill="freeze"/></rect></clipPath><clipPath id="clip-mask-9"><rect x="116" y="147" width="32" height="32"><set attributeName="x" to="84" begin="0; animate10.end + 1" /><animate attributeName="x" from="84" to="116" dur="0.119" begin="animate8.end + 0.5" id="animate9" fill="freeze"/></rect></clipPath><clipPath id="clip-mask-10"><rect x="190" y="136" width="55" height="45"><set attributeName="x" to="135" begin="0; animate10.end + 1" /><animate attributeName="x" from="135" to="190" dur="0.204" begin="animate9.end + 0.5" id="animate10" fill="freeze"/></rect></clipPath></defs><path d="M 0 0 L 270 270 M 270 0 L 0 270 M 135 0 L 135 270 M 0 135 L 270 135" stroke="#CCCCCC" /><path d="M 103 56 L 92 60 Q 85 61 78 56 Q 70 53 71 50 Q 72 47 78 47 Q 103 47 133 40 Q 162 35 170 31 Q 176 27 182 30 Q 197 37 200 41 Q 202 44 198 47 L 174 47 Q 173 45 166 45 Q 148 47 127 51 L 115 54" fill="#CCCCCC"/><path d="M 198 47 Q 192 55 190 70 Q 184 113 176 127 Q 169 138 159 145 L 159 115 Q 169 100 174 65 Q 177 52 174 47" fill="#CCCCCC"/><path d="M 159 145 Q 153 150 148 143 Q 143 133 131 120 Q 127 113 134 116 Q 140 119 147 122 Q 154 123 159 115" fill="#CCCCCC"/><path d="M 127 51 Q 135 55 136 58 Q 138 60 136 63 Q 132 69 129 76 Q 115 115 93 133 Q 80 143 65 150 Q 62 151 60 151 Q 59 150 61 148 Q 120 97 115 54" fill="#CCCCCC"/><path d="M 88 74 L 90 74 Q 91 75 92 76 Q 93 83 90 90 Q 86 105 75 110 Q 69 112 68 108 Q 66 98 72 92 Q 80 84 86 75" fill="#CCCCCC"/><path d="M 46 166 L 49 166 Q 51 166 52 169 Q 54 176 53 185 Q 52 210 37 222 Q 31 225 29 220 Q 24 211 29 201 Q 39 186 45 169" fill="#CCCCCC"/><path d="M 77 170 L 79 170 Q 81 168 85 171 Q 88 172 90 179 Q 93 193 102 201 Q 122 221 169 221 Q 181 221 183 217 L 211 215 Q 221 224 220 226 Q 219 231 212 234 Q 203 237 194 238 Q 135 242 105 221 Q 83 205 78 174" fill="#CCCCCC"/><path d="M 183 217 Q 185 215 184 208 Q 181 198 179 188 Q 178 184 179 182 Q 181 180 184 185 Q 195 200 211 215" fill="#CCCCCC"/><path d="M 116 153 L 116 151 Q 116 147 117 147 Q 120 147 123 148 Q 146 160 148 169 Q 148 174 146 176 Q 143 179 140 178 Q 133 175 119 157" fill="#CCCCCC"/><path d="M 190 143 L 190 140 Q 190 136 192 137 Q 236 148 241 163 Q 245 174 243 178 Q 241 181 238 181 Q 234 180 229 175 Q 209 157 193 146" fill="#CCCCCC"/><path d="M 103 56 L 92 60 Q 85 61 78 56 Q 70 53 71 50 Q 72 47 78 47 Q 103 47 133 40 Q 162 35 170 31 Q 176 27 182 30 Q 197 37 200 41 Q 202 44 198 47 L 174 47 Q 173 45 166 45 Q 148 47 127 51 L 115 54" fill="#000080" clip-path="url(#clip-mask-1)" /><path d="M 198 47 Q 192 55 190 70 Q 184 113 176 127 Q 169 138 159 145 L 159 115 Q 169 100 174 65 Q 177 52 174 47" fill="#000080" clip-path="url(#clip-mask-2)" /><path d="M 159 145 Q 153 150 148 143 Q 143 133 131 120 Q 127 113 134 116 Q 140 119 147 122 Q 154 123 159 115" fill="#000080" clip-path="url(#clip-mask-3)" /><path d="M 127 51 Q 135 55 136 58 Q 138 60 136 63 Q 132 69 129 76 Q 115 115 93 133 Q 80 143 65 150 Q 62 151 60 151 Q 59 150 61 148 Q 120 97 115 54" fill="#000080" clip-path="url(#clip-mask-4)" /><path d="M 88 74 L 90 74 Q 91 75 92 76 Q 93 83 90 90 Q 86 105 75 110 Q 69 112 68 108 Q 66 98 72 92 Q 80 84 86 75" fill="#000080" clip-path="url(#clip-mask-5)" /><path d="M 46 166 L 49 166 Q 51 166 52 169 Q 54 176 53 185 Q 52 210 37 222 Q 31 225 29 220 Q 24 211 29 201 Q 39 186 45 169" fill="#0000ff" clip-path="url(#clip-mask-6)" /><path d="M 77 170 L 79 170 Q 81 168 85 171 Q 88 172 90 179 Q 93 193 102 201 Q 122 221 169 221 Q 181 221 183 217 L 211 215 Q 221 224 220 226 Q 219 231 212 234 Q 203 237 194 238 Q 135 242 105 221 Q 83 205 78 174" fill="#0000ff" clip-path="url(#clip-mask-7)" /><path d="M 183 217 Q 185 215 184 208 Q 181 198 179 188 Q 178 184 179 182 Q 181 180 184 185 Q 195 200 211 215" fill="#0000ff" clip-path="url(#clip-mask-8)" /><path d="M 116 153 L 116 151 Q 116 147 117 147 Q 120 147 123 148 Q 146 160 148 169 Q 148 174 146 176 Q 143 179 140 178 Q 133 175 119 157" fill="#0000ff" clip-path="url(#clip-mask-9)" /><path d="M 190 143 L 190 140 Q 190 136 192 137 Q 236 148 241 163 Q 245 174 243 178 Q 241 181 238 181 Q 234 180 229 175 Q 209 157 193 146" fill="#0000ff" clip-path="url(#clip-mask-10)" /></svg>