<svg xmlns="http://www.w3.org/2000/svg" xmlns:xlink="http://www.w3.org/1999/xlink" width="270" height="270"><defs><clipPath id="clip-mask-1"><rect x="22" y="100" width="25" height="59"><animate attributeName="y" from="41" to="100" dur="0.219" begin="0; animate7.end + 1" id="animate1" fill="freeze"/></rect></clipPath><clipPath id="clip-mask-2"><rect x="80" y="76" width="34" height="25"><set attributeName="x" to="46" begin="0; animate7.end + 1" /><animate attributeName="x" from="46" to="80" dur="0.126" begin="animate1.end + 0.5" id="animate2" fill="freeze"/></rect></clipPath><clipPath id="clip-mask-3"><rect x="55" y="25" width="33" height="219"><set attributeName="y" to="-194" begin="0; animate7.end + 1" /><animate attributeName="y" from="-194" to="25" dur="0.811" begin="animate2.end + 0.5" id="animate3" fill="freeze"/></rect></clipPath><clipPath id="clip-mask-4"><rect x="148" y="40" width="42" height="38"><set attributeName="x" to="106" begin="0; animate7.end + 1" /><animate attributeName="x" from="106" to="148" dur="0.156" begin="animate3.end + 0.5" id="animate4" fill="freeze"/></rect></clipPath><clipPath id="clip-mask-5"><rect x="99" y="94" width="148" height="37"><set attributeName="x" to="-49" begin="0; animate7.end + 1" /><animate attributeName="x" from="-49" to="99" dur="0.548" begin="animate4.end + 0.5" id="animate5" fill="freeze"/></rect></clipPath><clipPath id="clip-mask-6"><rect x="116" y="126" width="32" height="84"><set attributeName="y" to="42" begin="0; animate7.end + 1" /><animate attributeName="y" from="42" to="126" dur="0.311" begin="animate5.end + 0.5" id="animate6" fill="freeze"/></rect></clipPath><clipPath id="clip-mask-7"><rect x="133" y="173" width="107" height="33"><set attributeName="x" to="26" begin="0; animate7.end + 1" /><animate attributeName="x" from="26" to="133" dur="0.396" begin="animate6.end" id="animate7" fill="freeze"/></rect></clipPath></defs><path d="M 0 0 L 270 270 M 270 0 L 0 270 M 135 0 L 135 270 M 0 135 L 270 135" stroke="#CCCCCC" /><path d="M 38 101 L 40 100 Q 42 100 43 102 Q 46 109 46 118 Q 47 128 43 140 Q 41 149 36 154 Q 30 159 28 154 Q 22 146 26 136 Q 33 120 37 103" fill="#CCCCCC"/><path d="M 81 76 Q 91 77 99 79 Q 109 82 111 87 Q 114 93 113 97 Q 113 100 111 100 Q 107 101 104 99 Q 93 92 83 86 Q 81 85 80 84" fill="#CCCCCC"/><path d="M 78 153 L 77 220 Q 77 228 74 235 Q 71 240 70 241 Q 68 244 66 242 Q 64 241 62 236 Q 55 221 59 210 Q 59 207 60 205 Q 68 176 68 67 Q 68 47 60 35 Q 58 31 59 29 Q 65 25 71 30 Q 85 39 87 42 Q 88 45 86 49 Q 82 60 81 76 L 80 84" fill="#CCCCCC"/><path d="M 149 49 L 148 46 Q 148 42 150 41 Q 152 40 156 41 Q 185 50 187 60 Q 190 69 188 74 Q 186 78 183 78 Q 178 78 174 74 Q 165 64 157 56" fill="#CCCCCC"/><path d="M 112 131 L 104 124 Q 99 120 105 119 Q 194 103 219 96 Q 230 94 243 104 Q 247 107 246 110 Q 245 113 239 113 Q 176 113 134 126 L 122 129" fill="#CCCCCC"/><path d="M 134 126 Q 143 128 146 131 Q 148 134 145 137 Q 141 150 141 182 L 133 206 Q 130 210 126 208 Q 116 201 121 194 Q 126 188 127 184 Q 134 149 124 133 Q 122 130 122 129" fill="#CCCCCC"/><path d="M 141 182 Q 138 193 150 189 Q 178 181 199 179 Q 217 173 234 186 Q 240 190 239 192 Q 236 196 229 195 Q 161 191 133 206" fill="#CCCCCC"/><path d="M 38 101 L 40 100 Q 42 100 43 102 Q 46 109 46 118 Q 47 128 43 140 Q 41 149 36 154 Q 30 159 28 154 Q 22 146 26 136 Q 33 120 37 103" fill="#0000ff" clip-path="url(#clip-mask-1)" /><path d="M 81 76 Q 91 77 99 79 Q 109 82 111 87 Q 114 93 113 97 Q 113 100 111 100 Q 107 101 104 99 Q 93 92 83 86 Q 81 85 80 84" fill="#0000ff" clip-path="url(#clip-mask-2)" /><path d="M 78 153 L 77 220 Q 77 228 74 235 Q 71 240 70 241 Q 68 244 66 242 Q 64 241 62 236 Q 55 221 59 210 Q 59 207 60 205 Q 68 176 68 67 Q 68 47 60 35 Q 58 31 59 29 Q 65 25 71 30 Q 85 39 87 42 Q 88 45 86 49 Q 82 60 81 76 L 80 84" fill="#0000ff" clip-path="url(#clip-mask-3)" /><path d="M 149 49 L 148 46 Q 148 42 150 41 Q 152 40 156 41 Q 185 50 187 60 Q 190 69 188 74 Q 186 78 183 78 Q 178 78 174 74 Q 165 64 157 56" fill="#000080" clip-path="url(#clip-mask-4)" /><path d="M 112 131 L 104 124 Q 99 120 105 119 Q 194 103 219 96 Q 230 94 243 104 Q 247 107 246 110 Q 245 113 239 113 Q 176 113 134 126 L 122 129" fill="#000080" clip-path="url(#clip-mask-5)" /><path d="M 134 126 Q 143 128 146 131 Q 148 134 145 137 Q 141 150 141 182 L 133 206 Q 130 210 126 208 Q 116 201 121 194 Q 126 188 127 184 Q 134 149 124 133 Q 122 130 122 129" fill="#000080" clip-path="url(#clip-mask-6)" /><path d="M 141 182 Q 138 193 150 189 Q 178 181 199 179 Q 217 173 234 186 Q 240 190 239 192 Q 236 196 229 195 Q 161 191 133 206" fill="#000080" clip-path="url(#clip-mask-7)" /></svg>