<svg xmlns="http://www.w3.org/2000/svg" xmlns:xlink="http://www.w3.org/1999/xlink" width="270" height="270"><defs><clipPath id="clip-mask-1"><rect x="71" y="19" width="35" height="106"><animate attributeName="y" from="-87" to="19" dur="0.393" begin="0; animate12.end + 1" id="animate1" fill="freeze"/></rect></clipPath><clipPath id="clip-mask-2"><rect x="82" y="112" width="45" height="47"><set attributeName="x" to="37" begin="0; animate12.end + 1" /><animate attributeName="x" from="37" to="82" dur="0.167" begin="animate1.end" id="animate2" fill="freeze"/></rect></clipPath><clipPath id="clip-mask-3"><rect x="55" y="64" width="84" height="97"><set attributeName="y" to="-33" begin="0; animate12.end + 1" /><animate attributeName="y" from="-33" to="64" dur="0.359" begin="animate2.end + 0.5" id="animate3" fill="freeze"/></rect></clipPath><clipPath id="clip-mask-4"><rect x="17" y="78" width="100" height="35"><set attributeName="x" to="-83" begin="0; animate12.end + 1" /><animate attributeName="x" from="-83" to="17" dur="0.370" begin="animate3.end + 0.5" id="animate4" fill="freeze"/></rect></clipPath><clipPath id="clip-mask-5"><rect x="147" y="54" width="68" height="26"><set attributeName="x" to="79" begin="0; animate12.end + 1" /><animate attributeName="x" from="79" to="147" dur="0.252" begin="animate4.end + 0.5" id="animate5" fill="freeze"/></rect></clipPath><clipPath id="clip-mask-6"><rect x="127" y="69" width="84" height="77"><set attributeName="y" to="-8" begin="0; animate12.end + 1" /><animate attributeName="y" from="-8" to="69" dur="0.285" begin="animate5.end" id="animate6" fill="freeze"/></rect></clipPath><clipPath id="clip-mask-7"><rect x="140" y="86" width="112" height="64"><set attributeName="x" to="28" begin="0; animate12.end + 1" /><animate attributeName="x" from="28" to="140" dur="0.415" begin="animate6.end + 0.5" id="animate7" fill="freeze"/></rect></clipPath><clipPath id="clip-mask-8"><rect x="33" y="178" width="31" height="55"><set attributeName="y" to="123" begin="0; animate12.end + 1" /><animate attributeName="y" from="123" to="178" dur="0.204" begin="animate7.end + 0.5" id="animate8" fill="freeze"/></rect></clipPath><clipPath id="clip-mask-9"><rect x="85" y="175" width="138" height="75"><set attributeName="x" to="-53" begin="0; animate12.end + 1" /><animate attributeName="x" from="-53" to="85" dur="0.511" begin="animate8.end + 0.5" id="animate9" fill="freeze"/></rect></clipPath><clipPath id="clip-mask-10"><rect x="178" y="193" width="34" height="37"><set attributeName="y" to="230" begin="0; animate12.end + 1" /><animate attributeName="y" from="230" to="193" dur="0.137" begin="animate9.end" id="animate10" fill="freeze"/></rect></clipPath><clipPath id="clip-mask-11"><rect x="121" y="168" width="36" height="30"><set attributeName="x" to="85" begin="0; animate12.end + 1" /><animate attributeName="x" from="85" to="121" dur="0.133" begin="animate10.end + 0.5" id="animate11" fill="freeze"/></rect></clipPath><clipPath id="clip-mask-12"><rect x="192" y="169" width="55" height="39"><set attributeName="x" to="137" begin="0; animate12.end + 1" /><animate attributeName="x" from="137" to="192" dur="0.204" begin="animate11.end + 0.5" id="animate12" fill="freeze"/></rect></clipPath></defs><path d="M 0 0 L 270 270 M 270 0 L 0 270 M 135 0 L 135 270 M 0 135 L 270 135" stroke="#CCCCCC" /><path d="M 82 125 Q 71 118 73 112 Q 77 106 78 96 L 80 85 Q 87 36 80 27 Q 78 23 80 21 Q 84 19 89 21 Q 100 27 104 32 Q 106 34 103 40 Q 101 42 92 83 L 89 93 Q 86 102 84 112" fill="#CCCCCC"/><path d="M 110 131 Q 125 139 126 147 Q 127 154 126 156 Q 124 159 122 159 Q 122 159 101 141 L 93 133 Q 88 129 82 125 L 84 112 Q 83 117 88 119 Q 95 123 99 125" fill="#CCCCCC"/><path d="M 118 73 L 116 69 Q 115 65 119 65 Q 126 64 135 74 Q 139 76 136 80 Q 131 86 130 93 Q 117 122 110 131 L 101 141 Q 77 161 57 160 Q 55 159 58 157 Q 77 148 93 133 L 99 125 Q 112 107 115 88 Q 116 87 116 86 L 117 78" fill="#CCCCCC"/><path d="M 78 96 Q 53 103 38 112 Q 35 113 32 112 Q 24 107 19 102 Q 17 99 18 96 Q 18 94 22 94 Q 32 94 38 93 Q 60 89 80 85 L 92 83 Q 105 80 117 78 L 116 86 Q 113 86 112 87 Q 100 90 89 93" fill="#CCCCCC"/><path d="M 190 72 Q 189 67 185 69 Q 176 72 168 75 Q 159 80 151 77 Q 147 75 149 73 Q 151 71 158 69 Q 174 65 185 57 Q 190 54 196 55 Q 204 58 210 62 Q 215 66 211 69" fill="#CCCCCC"/><path d="M 168 140 L 139 145 Q 132 146 130 144 Q 127 142 131 141 Q 159 132 172 119 L 178 110 Q 190 90 190 72 L 211 69 Q 206 74 205 83 Q 200 102 189 119 L 181 128" fill="#CCCCCC"/><path d="M 172 119 Q 153 97 143 92 Q 140 89 140 88 Q 141 87 145 87 Q 152 86 161 95 Q 170 103 178 110 L 189 119 Q 212 130 214 131 Q 251 142 251 143 Q 252 146 244 147 Q 229 150 210 150 Q 202 149 181 128" fill="#CCCCCC"/><path d="M 56 178 L 59 178 Q 61 178 62 181 Q 64 188 63 197 Q 61 219 47 230 Q 41 233 38 228 Q 33 218 39 209 Q 49 195 55 180" fill="#CCCCCC"/><path d="M 85 176 L 87 176 Q 89 175 92 177 Q 95 179 96 185 Q 100 200 109 208 Q 128 229 178 231 Q 183 231 186 230 L 212 226 Q 223 234 222 237 Q 221 241 214 244 Q 206 246 198 247 Q 143 250 111 227 Q 89 210 86 180" fill="#CCCCCC"/><path d="M 186 230 Q 188 229 188 221 Q 178 196 179 195 Q 180 193 184 197 Q 195 212 212 226" fill="#CCCCCC"/><path d="M 122 177 L 121 174 Q 121 171 122 170 Q 126 168 145 174 Q 153 177 154 182 Q 157 189 156 194 Q 155 197 152 197 Q 148 198 145 195 Q 137 188 130 182" fill="#CCCCCC"/><path d="M 193 176 L 192 173 Q 192 169 195 170 Q 236 176 242 190 Q 247 201 245 205 Q 243 208 240 208 Q 236 208 231 203 Q 212 188 196 178" fill="#CCCCCC"/><path d="M 82 125 Q 71 118 73 112 Q 77 106 78 96 L 80 85 Q 87 36 80 27 Q 78 23 80 21 Q 84 19 89 21 Q 100 27 104 32 Q 106 34 103 40 Q 101 42 92 83 L 89 93 Q 86 102 84 112" fill="#000080" clip-path="url(#clip-mask-1)" /><path d="M 110 131 Q 125 139 126 147 Q 127 154 126 156 Q 124 159 122 159 Q 122 159 101 141 L 93 133 Q 88 129 82 125 L 84 112 Q 83 117 88 119 Q 95 123 99 125" fill="#000080" clip-path="url(#clip-mask-2)" /><path d="M 118 73 L 116 69 Q 115 65 119 65 Q 126 64 135 74 Q 139 76 136 80 Q 131 86 130 93 Q 117 122 110 131 L 101 141 Q 77 161 57 160 Q 55 159 58 157 Q 77 148 93 133 L 99 125 Q 112 107 115 88 Q 116 87 116 86 L 117 78" fill="#000080" clip-path="url(#clip-mask-3)" /><path d="M 78 96 Q 53 103 38 112 Q 35 113 32 112 Q 24 107 19 102 Q 17 99 18 96 Q 18 94 22 94 Q 32 94 38 93 Q 60 89 80 85 L 92 83 Q 105 80 117 78 L 116 86 Q 113 86 112 87 Q 100 90 89 93" fill="#000080" clip-path="url(#clip-mask-4)" /><path d="M 190 72 Q 189 67 185 69 Q 176 72 168 75 Q 159 80 151 77 Q 147 75 149 73 Q 151 71 158 69 Q 174 65 185 57 Q 190 54 196 55 Q 204 58 210 62 Q 215 66 211 69" fill="#000080" clip-path="url(#clip-mask-5)" /><path d="M 168 140 L 139 145 Q 132 146 130 144 Q 127 142 131 141 Q 159 132 172 119 L 178 110 Q 190 90 190 72 L 211 69 Q 206 74 205 83 Q 200 102 189 119 L 181 128" fill="#000080" clip-path="url(#clip-mask-6)" /><path d="M 172 119 Q 153 97 143 92 Q 140 89 140 88 Q 141 87 145 87 Q 152 86 161 95 Q 170 103 178 110 L 189 119 Q 212 130 214 131 Q 251 142 251 143 Q 252 146 244 147 Q 229 150 210 150 Q 202 149 181 128" fill="#000080" clip-path="url(#clip-mask-7)" /><path d="M 56 178 L 59 178 Q 61 178 62 181 Q 64 188 63 197 Q 61 219 47 230 Q 41 233 38 228 Q 33 218 39 209 Q 49 195 55 180" fill="#0000ff" clip-path="url(#clip-mask-8)" /><path d="M 85 176 L 87 176 Q 89 175 92 177 Q 95 179 96 185 Q 100 200 109 208 Q 128 229 178 231 Q 183 231 186 230 L 212 226 Q 223 234 222 237 Q 221 241 214 244 Q 206 246 198 247 Q 143 250 111 227 Q 89 210 86 180" fill="#0000ff" clip-path="url(#clip-mask-9)" /><path d="M 186 230 Q 188 229 188 221 Q 178 196 179 195 Q 180 193 184 197 Q 195 212 212 226" fill="#0000ff" clip-path="url(#clip-mask-10)" /><path d="M 122 177 L 121 174 Q 121 171 122 170 Q 126 168 145 174 Q 153 177 154 182 Q 157 189 156 194 Q 155 197 152 197 Q 148 198 145 195 Q 137 188 130 182" fill="#0000ff" clip-path="url(#clip-mask-11)" /><path d="M 193 176 L 192 173 Q 192 169 195 170 Q 236 176 242 190 Q 247 201 245 205 Q 243 208 240 208 Q 236 208 231 203 Q 212 188 196 178" fill="#0000ff" clip-path="url(#clip-mask-12)" /></svg>