<svg xmlns="http://www.w3.org/2000/svg" xmlns:xlink="http://www.w3.org/1999/xlink" width="270" height="270"><defs><clipPath id="clip-mask-1"><rect x="86" y="18" width="81" height="33"><animate attributeName="x" from="167" to="86" dur="0.300" begin="0; animate12.end + 1" id="animate1" fill="freeze"/></rect></clipPath><clipPath id="clip-mask-2"><rect x="69" y="57" width="30" height="29"><set attributeName="x" to="39" begin="0; animate12.end + 1" /><animate attributeName="x" from="39" to="69" dur="0.111" begin="animate1.end + 0.5" id="animate2" fill="freeze"/></rect></clipPath><clipPath id="clip-mask-3"><rect x="146" y="42" width="45" height="40"><set attributeName="y" to="2" begin="0; animate12.end + 1" /><animate attributeName="y" from="2" to="42" dur="0.148" begin="animate2.end + 0.5" id="animate3" fill="freeze"/></rect></clipPath><clipPath id="clip-mask-4"><rect x="44" y="81" width="168" height="33"><set attributeName="x" to="-124" begin="0; animate12.end + 1" /><animate attributeName="x" from="-124" to="44" dur="0.622" begin="animate3.end + 0.5" id="animate4" fill="freeze"/></rect></clipPath><clipPath id="clip-mask-5"><rect x="113" y="45" width="27" height="117"><set attributeName="y" to="-72" begin="0; animate12.end + 1" /><animate attributeName="y" from="-72" to="45" dur="0.433" begin="animate4.end + 0.5" id="animate5" fill="freeze"/></rect></clipPath><clipPath id="clip-mask-6"><rect x="45" y="101" width="75" height="59"><set attributeName="x" to="120" begin="0; animate12.end + 1" /><animate attributeName="x" from="120" to="45" dur="0.278" begin="animate5.end + 0.5" id="animate6" fill="freeze"/></rect></clipPath><clipPath id="clip-mask-7"><rect x="131" y="92" width="94" height="58"><set attributeName="x" to="37" begin="0; animate12.end + 1" /><animate attributeName="x" from="37" to="131" dur="0.348" begin="animate6.end + 0.5" id="animate7" fill="freeze"/></rect></clipPath><clipPath id="clip-mask-8"><rect x="30" y="172" width="27" height="62"><set attributeName="y" to="110" begin="0; animate12.end + 1" /><animate attributeName="y" from="110" to="172" dur="0.230" begin="animate7.end + 0.5" id="animate8" fill="freeze"/></rect></clipPath><clipPath id="clip-mask-9"><rect x="76" y="181" width="149" height="70"><set attributeName="x" to="-73" begin="0; animate12.end + 1" /><animate attributeName="x" from="-73" to="76" dur="0.552" begin="animate8.end + 0.5" id="animate9" fill="freeze"/></rect></clipPath><clipPath id="clip-mask-10"><rect x="176" y="194" width="38" height="38"><set attributeName="y" to="232" begin="0; animate12.end + 1" /><animate attributeName="y" from="232" to="194" dur="0.141" begin="animate9.end" id="animate10" fill="freeze"/></rect></clipPath><clipPath id="clip-mask-11"><rect x="113" y="167" width="33" height="36"><set attributeName="x" to="80" begin="0; animate12.end + 1" /><animate attributeName="x" from="80" to="113" dur="0.122" begin="animate10.end + 0.5" id="animate11" fill="freeze"/></rect></clipPath><clipPath id="clip-mask-12"><rect x="186" y="160" width="53" height="41"><set attributeName="x" to="133" begin="0; animate12.end + 1" /><animate attributeName="x" from="133" to="186" dur="0.196" begin="animate11.end + 0.5" id="animate12" fill="freeze"/></rect></clipPath></defs><path d="M 0 0 L 270 270 M 270 0 L 0 270 M 135 0 L 135 270 M 0 135 L 270 135" stroke="#CCCCCC" /><path d="M 113 48 Q 91 51 87 50 Q 86 49 88 48 Q 139 31 140 21 Q 141 19 143 18 Q 152 18 165 30 Q 167 34 166 36 Q 165 38 161 38 Q 149 38 126 45" fill="#CCCCCC"/><path d="M 70 65 L 69 62 Q 69 59 71 58 Q 72 57 76 58 Q 96 65 98 71 Q 99 79 98 82 Q 96 86 94 85 Q 90 85 87 82 Q 81 76 76 71" fill="#CCCCCC"/><path d="M 170 51 L 169 48 Q 170 42 174 42 Q 180 43 184 49 Q 189 55 190 59 Q 191 62 186 63 Q 175 67 151 80 Q 149 82 147 81 Q 146 79 147 77 Q 161 64 167 55" fill="#CCCCCC"/><path d="M 108 105 Q 86 108 66 113 Q 61 114 56 113 Q 52 112 48 108 Q 44 104 50 104 Q 88 99 120 95 L 132 93 Q 164 88 185 83 Q 195 81 208 91 Q 212 95 210 97 Q 209 99 204 99 Q 159 99 136 102" fill="#CCCCCC"/><path d="M 130 122 L 132 143 Q 132 157 129 159 Q 125 162 122 158 Q 121 155 120 152 Q 118 148 118 144 Q 120 134 120 111 L 120 94 Q 120 87 120 80 Q 120 58 113 48 L 126 45 Q 132 48 137 51 Q 140 55 139 58 Q 134 66 132 92 L 131 105" fill="#CCCCCC"/><path d="M 120 111 Q 109 125 104 130 Q 93 140 84 147 Q 73 153 62 157 Q 52 160 49 159 Q 45 158 49 156 Q 100 126 108 104 L 120 101" fill="#CCCCCC"/><path d="M 132 92 L 136 101 Q 136 102 137 102 Q 171 126 198 133 Q 211 136 222 139 Q 225 140 225 142 Q 225 143 221 144 Q 194 150 184 149 Q 173 147 131 105" fill="#CCCCCC"/><path d="M 49 172 L 52 172 Q 53 172 55 174 Q 57 181 57 190 Q 57 201 52 216 Q 49 225 44 230 Q 39 234 36 229 Q 30 220 35 211 Q 43 194 48 175" fill="#CCCCCC"/><path d="M 76 182 L 78 181 Q 80 181 83 183 Q 87 184 88 190 Q 93 206 103 215 Q 125 235 178 234 Q 187 234 189 232 L 214 227 Q 225 235 224 238 Q 224 243 216 246 Q 206 250 193 251 Q 132 251 106 234 Q 83 217 77 185" fill="#CCCCCC"/><path d="M 189 232 Q 190 229 186 219 Q 176 197 176 196 Q 177 194 181 198 Q 195 213 214 227" fill="#CCCCCC"/><path d="M 113 174 L 113 171 Q 113 168 115 168 Q 117 167 121 169 Q 144 180 146 192 Q 146 196 144 200 Q 141 203 137 201 Q 128 194 117 179" fill="#CCCCCC"/><path d="M 188 169 L 187 166 Q 186 163 188 162 Q 192 160 221 170 Q 234 177 236 185 Q 239 193 238 197 Q 236 200 234 201 Q 229 201 225 198 Q 210 185 196 175" fill="#CCCCCC"/><path d="M 113 48 Q 91 51 87 50 Q 86 49 88 48 Q 139 31 140 21 Q 141 19 143 18 Q 152 18 165 30 Q 167 34 166 36 Q 165 38 161 38 Q 149 38 126 45" fill="#000080" clip-path="url(#clip-mask-1)" /><path d="M 70 65 L 69 62 Q 69 59 71 58 Q 72 57 76 58 Q 96 65 98 71 Q 99 79 98 82 Q 96 86 94 85 Q 90 85 87 82 Q 81 76 76 71" fill="#000080" clip-path="url(#clip-mask-2)" /><path d="M 170 51 L 169 48 Q 170 42 174 42 Q 180 43 184 49 Q 189 55 190 59 Q 191 62 186 63 Q 175 67 151 80 Q 149 82 147 81 Q 146 79 147 77 Q 161 64 167 55" fill="#000080" clip-path="url(#clip-mask-3)" /><path d="M 108 105 Q 86 108 66 113 Q 61 114 56 113 Q 52 112 48 108 Q 44 104 50 104 Q 88 99 120 95 L 132 93 Q 164 88 185 83 Q 195 81 208 91 Q 212 95 210 97 Q 209 99 204 99 Q 159 99 136 102" fill="#000080" clip-path="url(#clip-mask-4)" /><path d="M 130 122 L 132 143 Q 132 157 129 159 Q 125 162 122 158 Q 121 155 120 152 Q 118 148 118 144 Q 120 134 120 111 L 120 94 Q 120 87 120 80 Q 120 58 113 48 L 126 45 Q 132 48 137 51 Q 140 55 139 58 Q 134 66 132 92 L 131 105" fill="#000080" clip-path="url(#clip-mask-5)" /><path d="M 120 111 Q 109 125 104 130 Q 93 140 84 147 Q 73 153 62 157 Q 52 160 49 159 Q 45 158 49 156 Q 100 126 108 104 L 120 101" fill="#000080" clip-path="url(#clip-mask-6)" /><path d="M 132 92 L 136 101 Q 136 102 137 102 Q 171 126 198 133 Q 211 136 222 139 Q 225 140 225 142 Q 225 143 221 144 Q 194 150 184 149 Q 173 147 131 105" fill="#000080" clip-path="url(#clip-mask-7)" /><path d="M 49 172 L 52 172 Q 53 172 55 174 Q 57 181 57 190 Q 57 201 52 216 Q 49 225 44 230 Q 39 234 36 229 Q 30 220 35 211 Q 43 194 48 175" fill="#0000ff" clip-path="url(#clip-mask-8)" /><path d="M 76 182 L 78 181 Q 80 181 83 183 Q 87 184 88 190 Q 93 206 103 215 Q 125 235 178 234 Q 187 234 189 232 L 214 227 Q 225 235 224 238 Q 224 243 216 246 Q 206 250 193 251 Q 132 251 106 234 Q 83 217 77 185" fill="#0000ff" clip-path="url(#clip-mask-9)" /><path d="M 189 232 Q 190 229 186 219 Q 176 197 176 196 Q 177 194 181 198 Q 195 213 214 227" fill="#0000ff" clip-path="url(#clip-mask-10)" /><path d="M 113 174 L 113 171 Q 113 168 115 168 Q 117 167 121 169 Q 144 180 146 192 Q 146 196 144 200 Q 141 203 137 201 Q 128 194 117 179" fill="#0000ff" clip-path="url(#clip-mask-11)" /><path d="M 188 169 L 187 166 Q 186 163 188 162 Q 192 160 221 170 Q 234 177 236 185 Q 239 193 238 197 Q 236 200 234 201 Q 229 201 225 198 Q 210 185 196 175" fill="#0000ff" clip-path="url(#clip-mask-12)" /></svg>