<svg xmlns="http://www.w3.org/2000/svg" xmlns:xlink="http://www.w3.org/1999/xlink" width="270" height="270"><defs><clipPath id="clip-mask-1"><rect x="26" y="23" width="80" height="102"><animate attributeName="y" from="-79" to="23" dur="0.378" begin="0; animate14.end + 1" id="animate1" fill="freeze"/></rect></clipPath><clipPath id="clip-mask-2"><rect x="61" y="83" width="25" height="81"><set attributeName="y" to="2" begin="0; animate14.end + 1" /><animate attributeName="y" from="2" to="83" dur="0.300" begin="animate1.end + 0.5" id="animate2" fill="freeze"/></rect></clipPath><clipPath id="clip-mask-3"><rect x="98" y="18" width="58" height="76"><set attributeName="y" to="-58" begin="0; animate14.end + 1" /><animate attributeName="y" from="-58" to="18" dur="0.281" begin="animate2.end + 0.5" id="animate3" fill="freeze"/></rect></clipPath><clipPath id="clip-mask-4"><rect x="132" y="44" width="88" height="28"><set attributeName="x" to="44" begin="0; animate14.end + 1" /><animate attributeName="x" from="44" to="132" dur="0.326" begin="animate3.end + 0.5" id="animate4" fill="freeze"/></rect></clipPath><clipPath id="clip-mask-5"><rect x="186" y="56" width="41" height="30"><set attributeName="y" to="26" begin="0; animate14.end + 1" /><animate attributeName="y" from="26" to="56" dur="0.111" begin="animate4.end" id="animate5" fill="freeze"/></rect></clipPath><clipPath id="clip-mask-6"><rect x="148" y="65" width="24" height="107"><set attributeName="y" to="-42" begin="0; animate14.end + 1" /><animate attributeName="y" from="-42" to="65" dur="0.396" begin="animate5.end + 0.5" id="animate6" fill="freeze"/></rect></clipPath><clipPath id="clip-mask-7"><rect x="131" y="139" width="20" height="29"><set attributeName="x" to="151" begin="0; animate14.end + 1" /><animate attributeName="x" from="151" to="131" dur="0.074" begin="animate6.end" id="animate7" fill="freeze"/></rect></clipPath><clipPath id="clip-mask-8"><rect x="102" y="103" width="24" height="41"><set attributeName="y" to="62" begin="0; animate14.end + 1" /><animate attributeName="y" from="62" to="103" dur="0.152" begin="animate7.end + 0.5" id="animate8" fill="freeze"/></rect></clipPath><clipPath id="clip-mask-9"><rect x="179" y="101" width="41" height="35"><set attributeName="x" to="138" begin="0; animate14.end + 1" /><animate attributeName="x" from="138" to="179" dur="0.152" begin="animate8.end + 0.5" id="animate9" fill="freeze"/></rect></clipPath><clipPath id="clip-mask-10"><rect x="37" y="178" width="30" height="59"><set attributeName="y" to="119" begin="0; animate14.end + 1" /><animate attributeName="y" from="119" to="178" dur="0.219" begin="animate9.end + 0.5" id="animate10" fill="freeze"/></rect></clipPath><clipPath id="clip-mask-11"><rect x="82" y="183" width="145" height="68"><set attributeName="x" to="-63" begin="0; animate14.end + 1" /><animate attributeName="x" from="-63" to="82" dur="0.537" begin="animate10.end + 0.5" id="animate11" fill="freeze"/></rect></clipPath><clipPath id="clip-mask-12"><rect x="176" y="193" width="39" height="34"><set attributeName="y" to="227" begin="0; animate14.end + 1" /><animate attributeName="y" from="227" to="193" dur="0.126" begin="animate11.end" id="animate12" fill="freeze"/></rect></clipPath><clipPath id="clip-mask-13"><rect x="118" y="169" width="32" height="31"><set attributeName="y" to="138" begin="0; animate14.end + 1" /><animate attributeName="y" from="138" to="169" dur="0.115" begin="animate12.end + 0.5" id="animate13" fill="freeze"/></rect></clipPath><clipPath id="clip-mask-14"><rect x="191" y="162" width="52" height="34"><set attributeName="x" to="139" begin="0; animate14.end + 1" /><animate attributeName="x" from="139" to="191" dur="0.193" begin="animate13.end + 0.5" id="animate14" fill="freeze"/></rect></clipPath></defs><path d="M 0 0 L 270 270 M 270 0 L 0 270 M 135 0 L 135 270 M 0 135 L 270 135" stroke="#CCCCCC" /><path d="M 65 93 L 63 96 Q 39 123 30 124 Q 26 125 27 122 Q 28 121 31 118 Q 48 99 60 81 Q 74 63 82 42 Q 85 37 82 29 Q 80 23 85 23 Q 90 23 97 28 Q 104 34 105 38 Q 106 41 103 44 Q 98 49 92 59 Q 82 72 74 83 L 68 91 Q 68 90 68 90" fill="#CCCCCC"/><path d="M 74 83 Q 75 84 76 85 Q 79 89 83 93 Q 86 96 84 102 Q 83 108 81 139 Q 81 149 78 158 Q 75 164 71 161 Q 70 159 69 158 Q 61 144 66 137 Q 73 105 68 91" fill="#CCCCCC"/><path d="M 132 67 Q 109 93 102 93 Q 98 94 99 91 Q 100 90 102 87 Q 113 73 121 61 Q 138 33 134 24 Q 133 19 137 19 Q 141 18 148 23 Q 155 29 155 32 Q 156 33 156 34 Q 155 35 137 61" fill="#CCCCCC"/><path d="M 146 69 L 143 70 Q 136 72 132 67 L 137 61 Q 175 55 198 46 Q 202 44 209 49 Q 214 52 220 56 L 193 59 Q 187 57 158 65 L 148 68" fill="#CCCCCC"/><path d="M 220 56 Q 227 60 227 64 Q 227 66 224 66 Q 214 69 191 83 Q 188 86 187 84 Q 186 83 188 80 Q 195 65 195 64 Q 196 62 193 59" fill="#CCCCCC"/><path d="M 158 65 Q 163 68 168 72 Q 172 76 170 80 Q 164 95 168 140 Q 168 162 159 169 Q 154 172 151 168 L 150 141 Q 153 140 153 135 Q 153 133 154 133 Q 157 78 148 68" fill="#CCCCCC"/><path d="M 151 168 Q 147 160 134 145 Q 131 143 131 141 Q 131 139 134 140 Q 149 142 150 141" fill="#CCCCCC"/><path d="M 121 103 L 122 103 Q 124 103 125 105 Q 126 111 125 119 Q 123 134 113 141 Q 108 144 106 139 Q 102 131 107 124 Q 114 115 119 105" fill="#CCCCCC"/><path d="M 179 107 L 179 104 Q 179 101 182 102 Q 187 103 197 106 Q 213 111 216 120 Q 220 130 217 134 Q 215 136 213 136 Q 209 135 205 131 Q 192 118 182 109" fill="#CCCCCC"/><path d="M 59 178 L 62 178 Q 63 178 65 180 Q 67 187 66 196 Q 64 221 50 233 Q 45 237 42 232 Q 37 222 42 213 Q 52 198 58 180" fill="#CCCCCC"/><path d="M 82 184 L 84 184 Q 86 183 89 184 Q 93 186 95 192 Q 99 206 109 214 Q 130 232 177 230 Q 186 230 188 227 L 215 223 Q 227 229 226 232 Q 225 236 218 240 Q 209 244 199 245 Q 141 251 113 233 Q 89 218 83 187" fill="#CCCCCC"/><path d="M 188 227 Q 189 225 187 218 Q 176 196 176 196 Q 177 193 181 197 Q 196 211 215 223" fill="#CCCCCC"/><path d="M 119 176 L 118 173 Q 118 170 120 170 Q 122 169 126 170 Q 148 179 149 190 Q 150 194 148 197 Q 145 200 141 199 Q 133 196 122 180" fill="#CCCCCC"/><path d="M 193 170 L 191 167 Q 191 164 192 163 Q 193 162 197 162 Q 234 167 239 179 Q 243 187 242 191 Q 241 195 238 196 Q 234 196 230 193 Q 215 183 201 175" fill="#CCCCCC"/><path d="M 65 93 L 63 96 Q 39 123 30 124 Q 26 125 27 122 Q 28 121 31 118 Q 48 99 60 81 Q 74 63 82 42 Q 85 37 82 29 Q 80 23 85 23 Q 90 23 97 28 Q 104 34 105 38 Q 106 41 103 44 Q 98 49 92 59 Q 82 72 74 83 L 68 91 Q 68 90 68 90" fill="#000080" clip-path="url(#clip-mask-1)" /><path d="M 74 83 Q 75 84 76 85 Q 79 89 83 93 Q 86 96 84 102 Q 83 108 81 139 Q 81 149 78 158 Q 75 164 71 161 Q 70 159 69 158 Q 61 144 66 137 Q 73 105 68 91" fill="#000080" clip-path="url(#clip-mask-2)" /><path d="M 132 67 Q 109 93 102 93 Q 98 94 99 91 Q 100 90 102 87 Q 113 73 121 61 Q 138 33 134 24 Q 133 19 137 19 Q 141 18 148 23 Q 155 29 155 32 Q 156 33 156 34 Q 155 35 137 61" fill="#000080" clip-path="url(#clip-mask-3)" /><path d="M 146 69 L 143 70 Q 136 72 132 67 L 137 61 Q 175 55 198 46 Q 202 44 209 49 Q 214 52 220 56 L 193 59 Q 187 57 158 65 L 148 68" fill="#000080" clip-path="url(#clip-mask-4)" /><path d="M 220 56 Q 227 60 227 64 Q 227 66 224 66 Q 214 69 191 83 Q 188 86 187 84 Q 186 83 188 80 Q 195 65 195 64 Q 196 62 193 59" fill="#000080" clip-path="url(#clip-mask-5)" /><path d="M 158 65 Q 163 68 168 72 Q 172 76 170 80 Q 164 95 168 140 Q 168 162 159 169 Q 154 172 151 168 L 150 141 Q 153 140 153 135 Q 153 133 154 133 Q 157 78 148 68" fill="#000080" clip-path="url(#clip-mask-6)" /><path d="M 151 168 Q 147 160 134 145 Q 131 143 131 141 Q 131 139 134 140 Q 149 142 150 141" fill="#000080" clip-path="url(#clip-mask-7)" /><path d="M 121 103 L 122 103 Q 124 103 125 105 Q 126 111 125 119 Q 123 134 113 141 Q 108 144 106 139 Q 102 131 107 124 Q 114 115 119 105" fill="#000080" clip-path="url(#clip-mask-8)" /><path d="M 179 107 L 179 104 Q 179 101 182 102 Q 187 103 197 106 Q 213 111 216 120 Q 220 130 217 134 Q 215 136 213 136 Q 209 135 205 131 Q 192 118 182 109" fill="#000080" clip-path="url(#clip-mask-9)" /><path d="M 59 178 L 62 178 Q 63 178 65 180 Q 67 187 66 196 Q 64 221 50 233 Q 45 237 42 232 Q 37 222 42 213 Q 52 198 58 180" fill="#0000ff" clip-path="url(#clip-mask-10)" /><path d="M 82 184 L 84 184 Q 86 183 89 184 Q 93 186 95 192 Q 99 206 109 214 Q 130 232 177 230 Q 186 230 188 227 L 215 223 Q 227 229 226 232 Q 225 236 218 240 Q 209 244 199 245 Q 141 251 113 233 Q 89 218 83 187" fill="#0000ff" clip-path="url(#clip-mask-11)" /><path d="M 188 227 Q 189 225 187 218 Q 176 196 176 196 Q 177 193 181 197 Q 196 211 215 223" fill="#0000ff" clip-path="url(#clip-mask-12)" /><path d="M 119 176 L 118 173 Q 118 170 120 170 Q 122 169 126 170 Q 148 179 149 190 Q 150 194 148 197 Q 145 200 141 199 Q 133 196 122 180" fill="#0000ff" clip-path="url(#clip-mask-13)" /><path d="M 193 170 L 191 167 Q 191 164 192 163 Q 193 162 197 162 Q 234 167 239 179 Q 243 187 242 191 Q 241 195 238 196 Q 234 196 230 193 Q 215 183 201 175" fill="#0000ff" clip-path="url(#clip-mask-14)" /></svg>