<svg xmlns="http://www.w3.org/2000/svg" xmlns:xlink="http://www.w3.org/1999/xlink" width="270" height="270"><defs><clipPath id="clip-mask-1"><rect x="41" y="31" width="175" height="33"><animate attributeName="x" from="-134" to="41" dur="0.648" begin="0; animate16.end + 1" id="animate1" fill="freeze"/></rect></clipPath><clipPath id="clip-mask-2"><rect x="85" y="27" width="26" height="48"><set attributeName="y" to="-21" begin="0; animate16.end + 1" /><animate attributeName="y" from="-21" to="27" dur="0.178" begin="animate1.end + 0.5" id="animate2" fill="freeze"/></rect></clipPath><clipPath id="clip-mask-3"><rect x="146" y="12" width="30" height="59"><set attributeName="y" to="-47" begin="0; animate16.end + 1" /><animate attributeName="y" from="-47" to="12" dur="0.219" begin="animate2.end + 0.5" id="animate3" fill="freeze"/></rect></clipPath><clipPath id="clip-mask-4"><rect x="76" y="80" width="25" height="54"><set attributeName="y" to="26" begin="0; animate16.end + 1" /><animate attributeName="y" from="26" to="80" dur="0.200" begin="animate3.end + 0.5" id="animate4" fill="freeze"/></rect></clipPath><clipPath id="clip-mask-5"><rect x="90" y="68" width="96" height="23"><set attributeName="x" to="-6" begin="0; animate16.end + 1" /><animate attributeName="x" from="-6" to="90" dur="0.356" begin="animate4.end + 0.5" id="animate5" fill="freeze"/></rect></clipPath><clipPath id="clip-mask-6"><rect x="154" y="81" width="36" height="49"><set attributeName="y" to="32" begin="0; animate16.end + 1" /><animate attributeName="y" from="32" to="81" dur="0.181" begin="animate5.end" id="animate6" fill="freeze"/></rect></clipPath><clipPath id="clip-mask-7"><rect x="97" y="96" width="51" height="16"><set attributeName="x" to="46" begin="0; animate16.end + 1" /><animate attributeName="x" from="46" to="97" dur="0.189" begin="animate6.end + 0.5" id="animate7" fill="freeze"/></rect></clipPath><clipPath id="clip-mask-8"><rect x="101" y="117" width="54" height="16"><set attributeName="x" to="47" begin="0; animate16.end + 1" /><animate attributeName="x" from="47" to="101" dur="0.200" begin="animate7.end + 0.5" id="animate8" fill="freeze"/></rect></clipPath><clipPath id="clip-mask-9"><rect x="40" y="136" width="176" height="33"><set attributeName="x" to="-136" begin="0; animate16.end + 1" /><animate attributeName="x" from="-136" to="40" dur="0.652" begin="animate8.end + 0.5" id="animate9" fill="freeze"/></rect></clipPath><clipPath id="clip-mask-10"><rect x="13" y="132" width="100" height="90"><set attributeName="y" to="42" begin="0; animate16.end + 1" /><animate attributeName="y" from="42" to="132" dur="0.333" begin="animate9.end + 0.5" id="animate10" fill="freeze"/></rect></clipPath><clipPath id="clip-mask-11"><rect x="146" y="155" width="110" height="61"><set attributeName="x" to="36" begin="0; animate16.end + 1" /><animate attributeName="x" from="36" to="146" dur="0.407" begin="animate10.end + 0.5" id="animate11" fill="freeze"/></rect></clipPath><clipPath id="clip-mask-12"><rect x="114" y="167" width="21" height="90"><set attributeName="y" to="77" begin="0; animate16.end + 1" /><animate attributeName="y" from="77" to="167" dur="0.333" begin="animate11.end + 0.5" id="animate12" fill="freeze"/></rect></clipPath><clipPath id="clip-mask-13"><rect x="90" y="226" width="29" height="28"><set attributeName="x" to="119" begin="0; animate16.end + 1" /><animate attributeName="x" from="119" to="90" dur="0.107" begin="animate12.end" id="animate13" fill="freeze"/></rect></clipPath><clipPath id="clip-mask-14"><rect x="62" y="197" width="29" height="44"><set attributeName="y" to="153" begin="0; animate16.end + 1" /><animate attributeName="y" from="153" to="197" dur="0.163" begin="animate13.end + 0.5" id="animate14" fill="freeze"/></rect></clipPath><clipPath id="clip-mask-15"><rect x="136" y="204" width="24" height="32"><set attributeName="x" to="112" begin="0; animate16.end + 1" /><animate attributeName="x" from="112" to="136" dur="0.089" begin="animate14.end + 0.5" id="animate15" fill="freeze"/></rect></clipPath><clipPath id="clip-mask-16"><rect x="163" y="198" width="29" height="35"><set attributeName="x" to="134" begin="0; animate16.end + 1" /><animate attributeName="x" from="134" to="163" dur="0.107" begin="animate15.end + 0.5" id="animate16" fill="freeze"/></rect></clipPath></defs><path d="M 0 0 L 270 270 M 270 0 L 0 270 M 135 0 L 135 270 M 0 135 L 270 135" stroke="#CCCCCC" /><path d="M 150 51 Q 128 51 109 54 L 98 56 Q 89 57 80 59 Q 58 64 47 57 Q 41 53 49 52 Q 73 49 96 48 L 109 46 Q 132 43 152 40 L 167 38 Q 172 37 176 37 Q 200 31 213 41 Q 216 45 215 48 Q 213 50 209 49 Q 179 48 162 50" fill="#CCCCCC"/><path d="M 109 54 Q 111 68 109 72 Q 109 75 105 73 Q 102 69 98 56 L 96 48 Q 93 41 88 35 Q 85 31 89 29 Q 94 27 104 32 Q 109 33 108 38 Q 108 41 109 46" fill="#CCCCCC"/><path d="M 153 66 L 150 68 Q 146 71 146 67 Q 146 63 150 51 L 152 40 Q 155 23 153 18 Q 151 15 154 14 Q 158 12 162 14 Q 171 19 174 23 Q 176 26 172 29 Q 169 34 167 38 L 162 50" fill="#CCCCCC"/><path d="M 95 134 Q 90 129 90 123 Q 85 101 78 87 Q 76 83 77 82 Q 78 80 80 81 Q 87 82 90 83 L 94 91 Q 94 95 97 106 L 98 112 Q 100 121 101 127 L 101 132" fill="#CCCCCC"/><path d="M 162 81 Q 160 80 152 80 Q 112 85 94 91 L 90 83 Q 137 74 151 72 Q 167 68 170 71 Q 182 77 186 82" fill="#CCCCCC"/><path d="M 155 119 Q 155 119 155 119 Q 157 114 163 89 Q 164 82 162 81 L 186 82 Q 190 86 185 89 Q 176 96 172 108 Q 167 123 164 126 Q 162 130 159 130 Q 156 130 155 127 Q 154 126 154 126" fill="#CCCCCC"/><path d="M 97 106 Q 131 96 139 97 Q 144 98 147 101 Q 148 104 143 105 Q 99 111 98 112" fill="#CCCCCC"/><path d="M 101 127 Q 149 117 153 118 Q 154 119 155 119 L 154 126 Q 134 128 107 132 Q 103 133 101 132" fill="#CCCCCC"/><path d="M 119 156 L 103 159 L 85 162 Q 73 164 61 167 Q 56 169 51 167 Q 47 166 44 162 Q 40 158 45 158 Q 69 154 91 153 L 110 150 Q 117 149 125 148 Q 166 143 190 138 Q 199 136 212 145 Q 216 149 214 152 Q 213 154 208 154 Q 166 154 155 155 L 146 155" fill="#CCCCCC"/><path d="M 103 159 Q 102 159 102 160 Q 98 166 94 172 Q 63 212 19 222 Q 16 222 15 221 Q 13 221 15 219 Q 68 192 85 162 L 91 153 Q 95 142 95 134 L 101 132 Q 110 136 113 144 Q 113 145 110 150" fill="#CCCCCC"/><path d="M 155 155 Q 155 155 156 155 Q 196 187 225 196 Q 240 199 252 204 Q 256 205 256 207 Q 256 208 251 209 Q 218 216 205 211 Q 200 210 146 155" fill="#CCCCCC"/><path d="M 119 226 Q 122 186 116 173 Q 114 170 115 168 Q 117 167 121 168 Q 127 171 132 176 Q 135 178 133 182 Q 129 192 131 227 Q 131 247 124 254 Q 121 257 118 254" fill="#CCCCCC"/><path d="M 114 233 L 116 232 Q 118 230 119 226 L 118 254 Q 111 246 93 233 Q 90 231 90 230 Q 90 228 93 229 Q 101 230 110 232" fill="#CCCCCC"/><path d="M 86 197 L 88 197 Q 89 197 90 199 Q 91 206 89 213 Q 86 230 73 239 Q 67 241 66 237 Q 62 228 69 221 Q 77 210 84 198" fill="#CCCCCC"/><path d="M 136 210 L 136 208 Q 137 205 138 205 Q 141 204 155 215 Q 160 220 160 225 Q 160 231 158 234 Q 156 236 155 235 Q 151 234 140 216" fill="#CCCCCC"/><path d="M 163 205 L 163 202 Q 163 199 164 198 Q 166 198 169 200 Q 191 212 191 220 Q 192 227 190 230 Q 188 233 186 232 Q 182 232 180 228 Q 174 219 168 211" fill="#CCCCCC"/><path d="M 150 51 Q 128 51 109 54 L 98 56 Q 89 57 80 59 Q 58 64 47 57 Q 41 53 49 52 Q 73 49 96 48 L 109 46 Q 132 43 152 40 L 167 38 Q 172 37 176 37 Q 200 31 213 41 Q 216 45 215 48 Q 213 50 209 49 Q 179 48 162 50" fill="#000080" clip-path="url(#clip-mask-1)" /><path d="M 109 54 Q 111 68 109 72 Q 109 75 105 73 Q 102 69 98 56 L 96 48 Q 93 41 88 35 Q 85 31 89 29 Q 94 27 104 32 Q 109 33 108 38 Q 108 41 109 46" fill="#000080" clip-path="url(#clip-mask-2)" /><path d="M 153 66 L 150 68 Q 146 71 146 67 Q 146 63 150 51 L 152 40 Q 155 23 153 18 Q 151 15 154 14 Q 158 12 162 14 Q 171 19 174 23 Q 176 26 172 29 Q 169 34 167 38 L 162 50" fill="#000080" clip-path="url(#clip-mask-3)" /><path d="M 95 134 Q 90 129 90 123 Q 85 101 78 87 Q 76 83 77 82 Q 78 80 80 81 Q 87 82 90 83 L 94 91 Q 94 95 97 106 L 98 112 Q 100 121 101 127 L 101 132" fill="#000080" clip-path="url(#clip-mask-4)" /><path d="M 162 81 Q 160 80 152 80 Q 112 85 94 91 L 90 83 Q 137 74 151 72 Q 167 68 170 71 Q 182 77 186 82" fill="#000080" clip-path="url(#clip-mask-5)" /><path d="M 155 119 Q 155 119 155 119 Q 157 114 163 89 Q 164 82 162 81 L 186 82 Q 190 86 185 89 Q 176 96 172 108 Q 167 123 164 126 Q 162 130 159 130 Q 156 130 155 127 Q 154 126 154 126" fill="#000080" clip-path="url(#clip-mask-6)" /><path d="M 97 106 Q 131 96 139 97 Q 144 98 147 101 Q 148 104 143 105 Q 99 111 98 112" fill="#000080" clip-path="url(#clip-mask-7)" /><path d="M 101 127 Q 149 117 153 118 Q 154 119 155 119 L 154 126 Q 134 128 107 132 Q 103 133 101 132" fill="#000080" clip-path="url(#clip-mask-8)" /><path d="M 119 156 L 103 159 L 85 162 Q 73 164 61 167 Q 56 169 51 167 Q 47 166 44 162 Q 40 158 45 158 Q 69 154 91 153 L 110 150 Q 117 149 125 148 Q 166 143 190 138 Q 199 136 212 145 Q 216 149 214 152 Q 213 154 208 154 Q 166 154 155 155 L 146 155" fill="#000080" clip-path="url(#clip-mask-9)" /><path d="M 103 159 Q 102 159 102 160 Q 98 166 94 172 Q 63 212 19 222 Q 16 222 15 221 Q 13 221 15 219 Q 68 192 85 162 L 91 153 Q 95 142 95 134 L 101 132 Q 110 136 113 144 Q 113 145 110 150" fill="#000080" clip-path="url(#clip-mask-10)" /><path d="M 155 155 Q 155 155 156 155 Q 196 187 225 196 Q 240 199 252 204 Q 256 205 256 207 Q 256 208 251 209 Q 218 216 205 211 Q 200 210 146 155" fill="#000080" clip-path="url(#clip-mask-11)" /><path d="M 119 226 Q 122 186 116 173 Q 114 170 115 168 Q 117 167 121 168 Q 127 171 132 176 Q 135 178 133 182 Q 129 192 131 227 Q 131 247 124 254 Q 121 257 118 254" fill="#0000ff" clip-path="url(#clip-mask-12)" /><path d="M 114 233 L 116 232 Q 118 230 119 226 L 118 254 Q 111 246 93 233 Q 90 231 90 230 Q 90 228 93 229 Q 101 230 110 232" fill="#0000ff" clip-path="url(#clip-mask-13)" /><path d="M 86 197 L 88 197 Q 89 197 90 199 Q 91 206 89 213 Q 86 230 73 239 Q 67 241 66 237 Q 62 228 69 221 Q 77 210 84 198" fill="#0000ff" clip-path="url(#clip-mask-14)" /><path d="M 136 210 L 136 208 Q 137 205 138 205 Q 141 204 155 215 Q 160 220 160 225 Q 160 231 158 234 Q 156 236 155 235 Q 151 234 140 216" fill="#0000ff" clip-path="url(#clip-mask-15)" /><path d="M 163 205 L 163 202 Q 163 199 164 198 Q 166 198 169 200 Q 191 212 191 220 Q 192 227 190 230 Q 188 233 186 232 Q 182 232 180 228 Q 174 219 168 211" fill="#0000ff" clip-path="url(#clip-mask-16)" /></svg>