<svg xmlns="http://www.w3.org/2000/svg" xmlns:xlink="http://www.w3.org/1999/xlink" width="270" height="270"><defs><clipPath id="clip-mask-1"><rect x="126" y="15" width="33" height="25"><animate attributeName="x" from="93" to="126" dur="0.122" begin="0; animate18.end + 1" id="animate1" fill="freeze"/></rect></clipPath><clipPath id="clip-mask-2"><rect x="88" y="37" width="127" height="31"><set attributeName="x" to="-39" begin="0; animate18.end + 1" /><animate attributeName="x" from="-39" to="88" dur="0.470" begin="animate1.end + 0.5" id="animate2" fill="freeze"/></rect></clipPath><clipPath id="clip-mask-3"><rect x="19" y="48" width="72" height="195"><set attributeName="y" to="-147" begin="0; animate18.end + 1" /><animate attributeName="y" from="-147" to="48" dur="0.722" begin="animate2.end + 0.5" id="animate3" fill="freeze"/></rect></clipPath><clipPath id="clip-mask-4"><rect x="85" y="71" width="43" height="61"><set attributeName="y" to="10" begin="0; animate18.end + 1" /><animate attributeName="y" from="10" to="71" dur="0.226" begin="animate3.end + 0.5" id="animate4" fill="freeze"/></rect></clipPath><clipPath id="clip-mask-5"><rect x="97" y="112" width="20" height="77"><set attributeName="y" to="35" begin="0; animate18.end + 1" /><animate attributeName="y" from="35" to="112" dur="0.285" begin="animate4.end + 0.5" id="animate5" fill="freeze"/></rect></clipPath><clipPath id="clip-mask-6"><rect x="122" y="67" width="39" height="50"><set attributeName="y" to="17" begin="0; animate18.end + 1" /><animate attributeName="y" from="17" to="67" dur="0.185" begin="animate5.end + 0.5" id="animate6" fill="freeze"/></rect></clipPath><clipPath id="clip-mask-7"><rect x="132" y="102" width="19" height="79"><set attributeName="y" to="23" begin="0; animate18.end + 1" /><animate attributeName="y" from="23" to="102" dur="0.293" begin="animate6.end + 0.5" id="animate7" fill="freeze"/></rect></clipPath><clipPath id="clip-mask-8"><rect x="177" y="59" width="23" height="19"><set attributeName="x" to="154" begin="0; animate18.end + 1" /><animate attributeName="x" from="154" to="177" dur="0.085" begin="animate7.end + 0.5" id="animate8" fill="freeze"/></rect></clipPath><clipPath id="clip-mask-9"><rect x="153" y="80" width="66" height="22"><set attributeName="x" to="87" begin="0; animate18.end + 1" /><animate attributeName="x" from="87" to="153" dur="0.244" begin="animate8.end + 0.5" id="animate9" fill="freeze"/></rect></clipPath><clipPath id="clip-mask-10"><rect x="157" y="104" width="57" height="19"><set attributeName="x" to="100" begin="0; animate18.end + 1" /><animate attributeName="x" from="100" to="157" dur="0.211" begin="animate9.end + 0.5" id="animate10" fill="freeze"/></rect></clipPath><clipPath id="clip-mask-11"><rect x="157" y="125" width="60" height="19"><set attributeName="x" to="97" begin="0; animate18.end + 1" /><animate attributeName="x" from="97" to="157" dur="0.222" begin="animate10.end + 0.5" id="animate11" fill="freeze"/></rect></clipPath><clipPath id="clip-mask-12"><rect x="177" y="96" width="17" height="60"><set attributeName="y" to="36" begin="0; animate18.end + 1" /><animate attributeName="y" from="36" to="96" dur="0.222" begin="animate11.end + 0.5" id="animate12" fill="freeze"/></rect></clipPath><clipPath id="clip-mask-13"><rect x="149" y="146" width="87" height="22"><set attributeName="x" to="62" begin="0; animate18.end + 1" /><animate attributeName="x" from="62" to="149" dur="0.322" begin="animate12.end + 0.5" id="animate13" fill="freeze"/></rect></clipPath><clipPath id="clip-mask-14"><rect x="69" y="192" width="24" height="51"><set attributeName="y" to="141" begin="0; animate18.end + 1" /><animate attributeName="y" from="141" to="192" dur="0.189" begin="animate13.end + 0.5" id="animate14" fill="freeze"/></rect></clipPath><clipPath id="clip-mask-15"><rect x="113" y="194" width="132" height="60"><set attributeName="x" to="-19" begin="0; animate18.end + 1" /><animate attributeName="x" from="-19" to="113" dur="0.489" begin="animate14.end + 0.5" id="animate15" fill="freeze"/></rect></clipPath><clipPath id="clip-mask-16"><rect x="203" y="203" width="33" height="27"><set attributeName="y" to="230" begin="0; animate18.end + 1" /><animate attributeName="y" from="230" to="203" dur="0.100" begin="animate15.end" id="animate16" fill="freeze"/></rect></clipPath><clipPath id="clip-mask-17"><rect x="150" y="186" width="31" height="23"><set attributeName="x" to="119" begin="0; animate18.end + 1" /><animate attributeName="x" from="119" to="150" dur="0.115" begin="animate16.end + 0.5" id="animate17" fill="freeze"/></rect></clipPath><clipPath id="clip-mask-18"><rect x="209" y="174" width="41" height="29"><set attributeName="x" to="168" begin="0; animate18.end + 1" /><animate attributeName="x" from="168" to="209" dur="0.152" begin="animate17.end + 0.5" id="animate18" fill="freeze"/></rect></clipPath></defs><path d="M 0 0 L 270 270 M 270 0 L 0 270 M 135 0 L 135 270 M 0 135 L 270 135" stroke="#CCCCCC" /><path d="M 127 23 L 126 20 Q 126 17 127 16 Q 128 15 133 15 Q 153 17 155 23 Q 159 31 158 35 Q 157 39 154 39 Q 150 40 146 37 Q 140 32 135 28" fill="#CCCCCC"/><path d="M 118 55 L 143 51 Q 167 46 188 39 Q 196 37 204 39 Q 212 41 213 44 Q 215 47 212 49 Q 209 51 111 67 Q 104 68 91 65 L 88 57" fill="#CCCCCC"/><path d="M 91 65 Q 91 66 90 66 Q 88 75 86 96 Q 80 150 62 191 Q 57 200 52 208 Q 31 240 22 242 Q 19 243 20 240 Q 20 239 21 237 Q 45 200 56 173 Q 68 140 73 79 Q 74 63 69 55 Q 67 51 70 49 Q 74 48 79 51 Q 84 53 88 57" fill="#CCCCCC"/><path d="M 90 131 L 87 132 Q 85 132 85 130 Q 85 129 87 127 Q 96 116 102 105 Q 115 83 112 76 Q 110 72 114 72 Q 117 71 122 75 Q 127 78 128 81 Q 128 83 127 85 Q 124 88 121 94 Q 113 104 108 112 L 102 118" fill="#CCCCCC"/><path d="M 108 112 Q 109 112 115 120 Q 117 122 115 127 Q 114 134 114 167 Q 114 176 111 183 Q 109 189 106 185 Q 104 184 104 183 Q 97 171 101 165 Q 108 131 102 118" fill="#CCCCCC"/><path d="M 137 108 Q 128 116 125 117 Q 122 117 123 116 Q 124 114 126 112 Q 132 103 137 95 Q 147 77 144 71 Q 143 67 146 67 Q 150 67 155 70 Q 160 75 161 77 Q 161 79 160 81 Q 157 84 154 88 Q 148 97 143 102" fill="#CCCCCC"/><path d="M 149 162 Q 148 170 146 176 Q 144 181 141 178 Q 139 177 139 176 Q 132 164 136 158 Q 142 120 137 108 L 143 102 Q 143 103 143 103 Q 151 111 149 116 Q 148 124 149 158" fill="#CCCCCC"/><path d="M 177 65 L 177 63 Q 177 61 179 61 Q 191 59 197 65 Q 200 69 200 72 Q 199 77 196 77 Q 190 78 179 67" fill="#CCCCCC"/><path d="M 177 99 Q 176 99 176 99 Q 166 102 158 98 Q 153 95 160 94 Q 173 92 183 89 Q 192 86 201 82 Q 206 80 212 81 Q 217 82 218 84 Q 219 85 218 87 Q 217 88 209 90 Q 197 93 186 96" fill="#CCCCCC"/><path d="M 180 120 Q 170 123 162 119 Q 157 116 164 115 Q 173 113 180 112 L 192 107 Q 192 108 192 108 Q 200 104 207 105 Q 212 106 213 108 Q 214 109 213 111 Q 212 112 205 113 Q 198 115 191 117" fill="#CCCCCC"/><path d="M 181 141 Q 179 141 179 141 Q 169 144 161 139 Q 157 136 163 135 Q 172 134 180 133 L 191 130 Q 205 125 210 126 Q 215 128 216 130 Q 217 131 215 133 Q 214 133 208 135 Q 199 137 191 139" fill="#CCCCCC"/><path d="M 181 147 L 181 141 L 180 133 Q 180 125 180 120 L 180 112 Q 179 102 177 99 L 186 96 Q 188 98 191 101 Q 194 103 192 107 L 191 117 Q 191 123 191 130 L 191 139 Q 191 146 191 154 L 181 156" fill="#CCCCCC"/><path d="M 191 154 Q 196 152 204 151 Q 224 146 231 151 Q 236 153 236 156 Q 234 158 231 158 Q 179 164 161 167 Q 156 168 149 162 L 149 158 Q 149 158 149 158 Q 175 156 181 156" fill="#CCCCCC"/><path d="M 84 193 L 86 192 Q 87 192 89 194 Q 92 200 92 208 Q 93 227 82 239 Q 77 243 75 239 Q 69 231 73 223 Q 79 209 83 195" fill="#CCCCCC"/><path d="M 113 196 L 114 196 Q 116 194 120 196 Q 123 197 126 204 Q 130 215 138 222 Q 155 237 196 233 Q 206 233 208 230 L 236 227 Q 245 231 245 234 Q 244 238 238 241 Q 230 246 219 247 Q 169 254 142 239 Q 121 227 114 200" fill="#CCCCCC"/><path d="M 208 230 Q 209 225 204 211 Q 203 207 203 205 Q 204 203 209 207 Q 221 218 236 227" fill="#CCCCCC"/><path d="M 152 194 L 151 191 Q 150 188 152 187 Q 153 186 157 187 Q 175 189 178 195 Q 181 202 180 205 Q 179 209 176 209 Q 172 209 159 198" fill="#CCCCCC"/><path d="M 210 181 L 209 179 Q 209 176 210 174 Q 211 174 215 174 Q 243 179 247 188 Q 250 195 249 199 Q 248 203 246 203 Q 242 203 238 201 Q 228 192 217 186" fill="#CCCCCC"/><path d="M 127 23 L 126 20 Q 126 17 127 16 Q 128 15 133 15 Q 153 17 155 23 Q 159 31 158 35 Q 157 39 154 39 Q 150 40 146 37 Q 140 32 135 28" fill="#000080" clip-path="url(#clip-mask-1)" /><path d="M 118 55 L 143 51 Q 167 46 188 39 Q 196 37 204 39 Q 212 41 213 44 Q 215 47 212 49 Q 209 51 111 67 Q 104 68 91 65 L 88 57" fill="#000080" clip-path="url(#clip-mask-2)" /><path d="M 91 65 Q 91 66 90 66 Q 88 75 86 96 Q 80 150 62 191 Q 57 200 52 208 Q 31 240 22 242 Q 19 243 20 240 Q 20 239 21 237 Q 45 200 56 173 Q 68 140 73 79 Q 74 63 69 55 Q 67 51 70 49 Q 74 48 79 51 Q 84 53 88 57" fill="#000080" clip-path="url(#clip-mask-3)" /><path d="M 90 131 L 87 132 Q 85 132 85 130 Q 85 129 87 127 Q 96 116 102 105 Q 115 83 112 76 Q 110 72 114 72 Q 117 71 122 75 Q 127 78 128 81 Q 128 83 127 85 Q 124 88 121 94 Q 113 104 108 112 L 102 118" fill="#000080" clip-path="url(#clip-mask-4)" /><path d="M 108 112 Q 109 112 115 120 Q 117 122 115 127 Q 114 134 114 167 Q 114 176 111 183 Q 109 189 106 185 Q 104 184 104 183 Q 97 171 101 165 Q 108 131 102 118" fill="#000080" clip-path="url(#clip-mask-5)" /><path d="M 137 108 Q 128 116 125 117 Q 122 117 123 116 Q 124 114 126 112 Q 132 103 137 95 Q 147 77 144 71 Q 143 67 146 67 Q 150 67 155 70 Q 160 75 161 77 Q 161 79 160 81 Q 157 84 154 88 Q 148 97 143 102" fill="#000080" clip-path="url(#clip-mask-6)" /><path d="M 149 162 Q 148 170 146 176 Q 144 181 141 178 Q 139 177 139 176 Q 132 164 136 158 Q 142 120 137 108 L 143 102 Q 143 103 143 103 Q 151 111 149 116 Q 148 124 149 158" fill="#000080" clip-path="url(#clip-mask-7)" /><path d="M 177 65 L 177 63 Q 177 61 179 61 Q 191 59 197 65 Q 200 69 200 72 Q 199 77 196 77 Q 190 78 179 67" fill="#000080" clip-path="url(#clip-mask-8)" /><path d="M 177 99 Q 176 99 176 99 Q 166 102 158 98 Q 153 95 160 94 Q 173 92 183 89 Q 192 86 201 82 Q 206 80 212 81 Q 217 82 218 84 Q 219 85 218 87 Q 217 88 209 90 Q 197 93 186 96" fill="#000080" clip-path="url(#clip-mask-9)" /><path d="M 180 120 Q 170 123 162 119 Q 157 116 164 115 Q 173 113 180 112 L 192 107 Q 192 108 192 108 Q 200 104 207 105 Q 212 106 213 108 Q 214 109 213 111 Q 212 112 205 113 Q 198 115 191 117" fill="#000080" clip-path="url(#clip-mask-10)" /><path d="M 181 141 Q 179 141 179 141 Q 169 144 161 139 Q 157 136 163 135 Q 172 134 180 133 L 191 130 Q 205 125 210 126 Q 215 128 216 130 Q 217 131 215 133 Q 214 133 208 135 Q 199 137 191 139" fill="#000080" clip-path="url(#clip-mask-11)" /><path d="M 181 147 L 181 141 L 180 133 Q 180 125 180 120 L 180 112 Q 179 102 177 99 L 186 96 Q 188 98 191 101 Q 194 103 192 107 L 191 117 Q 191 123 191 130 L 191 139 Q 191 146 191 154 L 181 156" fill="#000080" clip-path="url(#clip-mask-12)" /><path d="M 191 154 Q 196 152 204 151 Q 224 146 231 151 Q 236 153 236 156 Q 234 158 231 158 Q 179 164 161 167 Q 156 168 149 162 L 149 158 Q 149 158 149 158 Q 175 156 181 156" fill="#000080" clip-path="url(#clip-mask-13)" /><path d="M 84 193 L 86 192 Q 87 192 89 194 Q 92 200 92 208 Q 93 227 82 239 Q 77 243 75 239 Q 69 231 73 223 Q 79 209 83 195" fill="#0000ff" clip-path="url(#clip-mask-14)" /><path d="M 113 196 L 114 196 Q 116 194 120 196 Q 123 197 126 204 Q 130 215 138 222 Q 155 237 196 233 Q 206 233 208 230 L 236 227 Q 245 231 245 234 Q 244 238 238 241 Q 230 246 219 247 Q 169 254 142 239 Q 121 227 114 200" fill="#0000ff" clip-path="url(#clip-mask-15)" /><path d="M 208 230 Q 209 225 204 211 Q 203 207 203 205 Q 204 203 209 207 Q 221 218 236 227" fill="#0000ff" clip-path="url(#clip-mask-16)" /><path d="M 152 194 L 151 191 Q 150 188 152 187 Q 153 186 157 187 Q 175 189 178 195 Q 181 202 180 205 Q 179 209 176 209 Q 172 209 159 198" fill="#0000ff" clip-path="url(#clip-mask-17)" /><path d="M 210 181 L 209 179 Q 209 176 210 174 Q 211 174 215 174 Q 243 179 247 188 Q 250 195 249 199 Q 248 203 246 203 Q 242 203 238 201 Q 228 192 217 186" fill="#0000ff" clip-path="url(#clip-mask-18)" /></svg>