<svg xmlns="http://www.w3.org/2000/svg" xmlns:xlink="http://www.w3.org/1999/xlink" width="270" height="270"><defs><clipPath id="clip-mask-1"><rect x="53" y="76" width="132" height="44"><animate attributeName="x" from="-79" to="53" dur="0.489" begin="0; animate8.end + 1" id="animate1" fill="freeze"/></rect></clipPath><clipPath id="clip-mask-2"><rect x="18" y="148" width="119" height="43"><set attributeName="x" to="-101" begin="0; animate8.end + 1" /><animate attributeName="x" from="-101" to="18" dur="0.441" begin="animate1.end + 0.5" id="animate2" fill="freeze"/></rect></clipPath><clipPath id="clip-mask-3"><rect x="34" y="135" width="44" height="104"><set attributeName="y" to="31" begin="0; animate8.end + 1" /><animate attributeName="y" from="31" to="135" dur="0.385" begin="animate2.end + 0.5" id="animate3" fill="freeze"/></rect></clipPath><clipPath id="clip-mask-4"><rect x="91" y="122" width="23" height="111"><set attributeName="y" to="11" begin="0; animate8.end + 1" /><animate attributeName="y" from="11" to="122" dur="0.411" begin="animate3.end + 0.5" id="animate4" fill="freeze"/></rect></clipPath><clipPath id="clip-mask-5"><rect x="105" y="14" width="146" height="241"><set attributeName="y" to="-227" begin="0; animate8.end + 1" /><animate attributeName="y" from="-227" to="14" dur="0.893" begin="animate4.end + 0.5" id="animate5" fill="freeze"/></rect></clipPath><clipPath id="clip-mask-6"><rect x="227" y="193" width="21" height="52"><set attributeName="y" to="245" begin="0; animate8.end + 1" /><animate attributeName="y" from="245" to="193" dur="0.193" begin="animate5.end" id="animate6" fill="freeze"/></rect></clipPath><clipPath id="clip-mask-7"><rect x="128" y="114" width="81" height="107"><set attributeName="y" to="7" begin="0; animate8.end + 1" /><animate attributeName="y" from="7" to="114" dur="0.396" begin="animate6.end + 0.5" id="animate7" fill="freeze"/></rect></clipPath><clipPath id="clip-mask-8"><rect x="168" y="35" width="40" height="34"><set attributeName="x" to="128" begin="0; animate8.end + 1" /><animate attributeName="x" from="128" to="168" dur="0.148" begin="animate7.end + 0.5" id="animate8" fill="freeze"/></rect></clipPath></defs><path d="M 0 0 L 270 270 M 270 0 L 0 270 M 135 0 L 135 270 M 0 135 L 270 135" stroke="#CCCCCC" /><path d="M 138 101 Q 111 108 86 115 Q 71 120 60 113 Q 53 109 62 107 Q 91 103 116 95 Q 125 92 135 89 L 147 85 Q 166 76 174 77 Q 182 79 184 82 Q 185 84 183 86 Q 181 88 150 98" fill="#CCCCCC"/><path d="M 86 171 L 75 174 L 63 178 Q 51 182 39 189 Q 36 191 34 190 Q 26 184 21 180 Q 18 178 19 175 Q 20 173 23 172 Q 34 173 40 171 Q 51 169 63 167 L 75 164 Q 87 161 98 158 L 110 155 Q 122 151 133 149 Q 136 148 137 150 Q 136 154 118 161 Q 113 162 109 163 L 98 167" fill="#CCCCCC"/><path d="M 75 174 Q 75 201 61 219 Q 48 237 37 239 Q 34 239 36 236 Q 40 233 46 225 Q 47 223 49 221 Q 60 205 63 178 L 63 167 Q 61 148 56 143 Q 54 140 56 138 Q 62 135 74 141 Q 78 142 76 146 Q 75 151 75 164" fill="#CCCCCC"/><path d="M 98 158 Q 96 134 93 129 Q 91 126 92 125 Q 96 122 101 125 Q 112 132 113 134 Q 114 136 112 139 Q 110 145 110 155 L 109 163 Q 109 211 109 216 Q 109 228 104 232 Q 102 233 101 232 Q 100 232 98 228 Q 93 216 95 209 Q 98 200 98 167" fill="#CCCCCC"/><path d="M 149 143 L 138 101 L 135 89 Q 129 69 124 45 Q 123 35 108 25 Q 105 19 110 17 Q 116 14 127 17 Q 144 22 141 34 Q 140 54 147 85 L 150 98 Q 161 137 173 164 L 180 176 Q 193 200 214 217 Q 223 224 227 222 L 248 245 Q 251 252 245 254 Q 237 255 220 243 Q 191 223 171 187 L 166 176" fill="#CCCCCC"/><path d="M 227 222 Q 236 207 244 193 Q 246 194 246 200 Q 246 233 248 245" fill="#CCCCCC"/><path d="M 173 164 Q 186 139 184 120 Q 184 116 187 115 Q 194 114 206 123 Q 209 127 207 131 Q 198 144 189 161 Q 184 168 180 176 L 171 187 Q 146 217 132 220 Q 128 221 130 217 Q 135 210 146 201 Q 157 190 166 176" fill="#CCCCCC"/><path d="M 169 45 L 168 41 Q 168 38 169 36 Q 172 35 194 41 Q 203 45 205 51 Q 208 60 207 64 Q 205 68 202 68 Q 197 69 193 65 Q 185 57 177 51" fill="#CCCCCC"/><path d="M 138 101 Q 111 108 86 115 Q 71 120 60 113 Q 53 109 62 107 Q 91 103 116 95 Q 125 92 135 89 L 147 85 Q 166 76 174 77 Q 182 79 184 82 Q 185 84 183 86 Q 181 88 150 98" fill="#0000ff" clip-path="url(#clip-mask-1)" /><path d="M 86 171 L 75 174 L 63 178 Q 51 182 39 189 Q 36 191 34 190 Q 26 184 21 180 Q 18 178 19 175 Q 20 173 23 172 Q 34 173 40 171 Q 51 169 63 167 L 75 164 Q 87 161 98 158 L 110 155 Q 122 151 133 149 Q 136 148 137 150 Q 136 154 118 161 Q 113 162 109 163 L 98 167" fill="#000080" clip-path="url(#clip-mask-2)" /><path d="M 75 174 Q 75 201 61 219 Q 48 237 37 239 Q 34 239 36 236 Q 40 233 46 225 Q 47 223 49 221 Q 60 205 63 178 L 63 167 Q 61 148 56 143 Q 54 140 56 138 Q 62 135 74 141 Q 78 142 76 146 Q 75 151 75 164" fill="#000080" clip-path="url(#clip-mask-3)" /><path d="M 98 158 Q 96 134 93 129 Q 91 126 92 125 Q 96 122 101 125 Q 112 132 113 134 Q 114 136 112 139 Q 110 145 110 155 L 109 163 Q 109 211 109 216 Q 109 228 104 232 Q 102 233 101 232 Q 100 232 98 228 Q 93 216 95 209 Q 98 200 98 167" fill="#000080" clip-path="url(#clip-mask-4)" /><path d="M 149 143 L 138 101 L 135 89 Q 129 69 124 45 Q 123 35 108 25 Q 105 19 110 17 Q 116 14 127 17 Q 144 22 141 34 Q 140 54 147 85 L 150 98 Q 161 137 173 164 L 180 176 Q 193 200 214 217 Q 223 224 227 222 L 248 245 Q 251 252 245 254 Q 237 255 220 243 Q 191 223 171 187 L 166 176" fill="#0000ff" clip-path="url(#clip-mask-5)" /><path d="M 227 222 Q 236 207 244 193 Q 246 194 246 200 Q 246 233 248 245" fill="#0000ff" clip-path="url(#clip-mask-6)" /><path d="M 173 164 Q 186 139 184 120 Q 184 116 187 115 Q 194 114 206 123 Q 209 127 207 131 Q 198 144 189 161 Q 184 168 180 176 L 171 187 Q 146 217 132 220 Q 128 221 130 217 Q 135 210 146 201 Q 157 190 166 176" fill="#0000ff" clip-path="url(#clip-mask-7)" /><path d="M 169 45 L 168 41 Q 168 38 169 36 Q 172 35 194 41 Q 203 45 205 51 Q 208 60 207 64 Q 205 68 202 68 Q 197 69 193 65 Q 185 57 177 51" fill="#0000ff" clip-path="url(#clip-mask-8)" /></svg>