<svg xmlns="http://www.w3.org/2000/svg" xmlns:xlink="http://www.w3.org/1999/xlink" width="270" height="270"><defs><clipPath id="clip-mask-1"><rect x="25" y="85" width="78" height="29"><animate attributeName="x" from="-53" to="25" dur="0.289" begin="0; animate11.end + 1" id="animate1" fill="freeze"/></rect></clipPath><clipPath id="clip-mask-2"><rect x="55" y="27" width="33" height="219"><set attributeName="y" to="-192" begin="0; animate11.end + 1" /><animate attributeName="y" from="-192" to="27" dur="0.811" begin="animate1.end + 0.5" id="animate2" fill="freeze"/></rect></clipPath><clipPath id="clip-mask-3"><rect x="39" y="206" width="21" height="31"><set attributeName="x" to="60" begin="0; animate11.end + 1" /><animate attributeName="x" from="60" to="39" dur="0.078" begin="animate2.end" id="animate3" fill="freeze"/></rect></clipPath><clipPath id="clip-mask-4"><rect x="10" y="121" width="89" height="70"><set attributeName="x" to="-79" begin="0; animate11.end + 1" /><animate attributeName="x" from="-79" to="10" dur="0.330" begin="animate3.end + 0.5" id="animate4" fill="freeze"/></rect></clipPath><clipPath id="clip-mask-5"><rect x="126" y="69" width="105" height="33"><set attributeName="x" to="21" begin="0; animate11.end + 1" /><animate attributeName="x" from="21" to="126" dur="0.389" begin="animate4.end + 0.5" id="animate5" fill="freeze"/></rect></clipPath><clipPath id="clip-mask-6"><rect x="192" y="83" width="39" height="27"><set attributeName="y" to="56" begin="0; animate11.end + 1" /><animate attributeName="y" from="56" to="83" dur="0.100" begin="animate5.end" id="animate6" fill="freeze"/></rect></clipPath><clipPath id="clip-mask-7"><rect x="86" y="85" width="45" height="142"><set attributeName="y" to="-57" begin="0; animate11.end + 1" /><animate attributeName="y" from="-57" to="85" dur="0.526" begin="animate6.end + 0.5" id="animate7" fill="freeze"/></rect></clipPath><clipPath id="clip-mask-8"><rect x="147" y="23" width="30" height="113"><set attributeName="y" to="-90" begin="0; animate11.end + 1" /><animate attributeName="y" from="-90" to="23" dur="0.419" begin="animate7.end + 0.5" id="animate8" fill="freeze"/></rect></clipPath><clipPath id="clip-mask-9"><rect x="127" y="123" width="74" height="27"><set attributeName="x" to="53" begin="0; animate11.end + 1" /><animate attributeName="x" from="53" to="127" dur="0.274" begin="animate8.end + 0.5" id="animate9" fill="freeze"/></rect></clipPath><clipPath id="clip-mask-10"><rect x="109" y="131" width="98" height="99"><set attributeName="y" to="32" begin="0; animate11.end + 1" /><animate attributeName="y" from="32" to="131" dur="0.367" begin="animate9.end" id="animate10" fill="freeze"/></rect></clipPath><clipPath id="clip-mask-11"><rect x="133" y="156" width="126" height="88"><set attributeName="x" to="7" begin="0; animate11.end + 1" /><animate attributeName="x" from="7" to="133" dur="0.467" begin="animate10.end + 0.5" id="animate11" fill="freeze"/></rect></clipPath></defs><path d="M 0 0 L 270 270 M 270 0 L 0 270 M 135 0 L 135 270 M 0 135 L 270 135" stroke="#CCCCCC" /><path d="M 65 107 Q 61 108 59 109 Q 45 114 33 109 Q 25 105 35 103 Q 46 100 65 94 L 79 88 Q 85 85 92 86 Q 100 87 102 90 Q 103 92 101 94 Q 101 95 78 103" fill="#CCCCCC"/><path d="M 64 142 Q 65 122 65 107 L 65 94 Q 66 56 66 52 Q 65 43 60 36 Q 55 30 60 28 Q 65 27 74 31 Q 88 37 84 45 Q 82 51 79 88 L 78 103 Q 78 118 78 133 L 78 142 Q 78 174 80 207 Q 79 226 74 238 Q 69 246 65 246 Q 62 245 59 237 L 60 213 Q 63 211 63 205 Q 64 177 64 155" fill="#CCCCCC"/><path d="M 59 237 Q 56 230 44 216 Q 39 211 39 209 Q 39 206 47 211 Q 51 212 55 213 Q 59 214 60 213" fill="#CCCCCC"/><path d="M 52 164 L 33 187 Q 30 191 26 190 Q 20 189 14 185 Q 10 181 10 179 Q 11 177 15 175 Q 17 174 64 142 L 78 133 Q 93 122 96 121 Q 99 121 97 124 Q 95 128 90 132 Q 83 137 78 142 L 64 155" fill="#CCCCCC"/><path d="M 156 94 Q 147 96 138 100 Q 134 101 131 102 Q 131 102 131 102 L 126 92 Q 143 88 156 84 L 170 81 Q 183 76 198 71 Q 205 69 211 71 Q 231 80 231 83 L 200 86 Q 200 82 191 84 Q 180 87 169 90" fill="#CCCCCC"/><path d="M 231 83 Q 231 87 225 89 Q 218 92 199 107 Q 196 110 194 109 Q 192 109 194 104 Q 201 89 200 86" fill="#CCCCCC"/><path d="M 131 102 Q 130 105 130 109 Q 126 162 115 189 Q 113 193 112 197 Q 95 225 88 226 Q 86 227 86 225 Q 87 223 88 221 Q 101 198 108 175 Q 109 171 110 166 Q 120 105 109 92 Q 108 89 110 87 Q 114 85 126 92" fill="#CCCCCC"/><path d="M 155 136 Q 156 113 156 94 L 156 84 Q 156 65 155 46 Q 155 40 149 31 Q 147 27 149 25 Q 151 23 155 24 Q 162 25 171 30 Q 177 34 176 37 Q 170 59 170 81 L 169 90 Q 168 110 167 131" fill="#CCCCCC"/><path d="M 174 138 Q 162 142 150 146 Q 140 150 133 148 Q 127 145 130 144 Q 130 143 155 136 L 167 131 Q 180 123 187 124 Q 196 127 201 131" fill="#CCCCCC"/><path d="M 170 183 Q 180 161 180 142 Q 179 137 174 138 L 201 131 Q 207 135 203 139 Q 198 144 196 154 Q 190 178 181 193 L 173 204 Q 157 224 122 228 Q 114 230 112 228 Q 109 226 113 225 Q 152 212 164 192" fill="#CCCCCC"/><path d="M 163 191 L 162 190 Q 148 172 136 162 Q 133 159 135 158 Q 137 156 140 157 Q 149 158 154 164 Q 162 174 170 183 L 181 193 Q 200 211 221 220 Q 252 230 256 233 Q 259 235 257 237 Q 254 238 250 239 Q 239 240 224 242 Q 213 244 206 238 Q 185 219 173 204 L 164 192" fill="#CCCCCC"/><path d="M 65 107 Q 61 108 59 109 Q 45 114 33 109 Q 25 105 35 103 Q 46 100 65 94 L 79 88 Q 85 85 92 86 Q 100 87 102 90 Q 103 92 101 94 Q 101 95 78 103" fill="#0000ff" clip-path="url(#clip-mask-1)" /><path d="M 64 142 Q 65 122 65 107 L 65 94 Q 66 56 66 52 Q 65 43 60 36 Q 55 30 60 28 Q 65 27 74 31 Q 88 37 84 45 Q 82 51 79 88 L 78 103 Q 78 118 78 133 L 78 142 Q 78 174 80 207 Q 79 226 74 238 Q 69 246 65 246 Q 62 245 59 237 L 60 213 Q 63 211 63 205 Q 64 177 64 155" fill="#0000ff" clip-path="url(#clip-mask-2)" /><path d="M 59 237 Q 56 230 44 216 Q 39 211 39 209 Q 39 206 47 211 Q 51 212 55 213 Q 59 214 60 213" fill="#0000ff" clip-path="url(#clip-mask-3)" /><path d="M 52 164 L 33 187 Q 30 191 26 190 Q 20 189 14 185 Q 10 181 10 179 Q 11 177 15 175 Q 17 174 64 142 L 78 133 Q 93 122 96 121 Q 99 121 97 124 Q 95 128 90 132 Q 83 137 78 142 L 64 155" fill="#0000ff" clip-path="url(#clip-mask-4)" /><path d="M 156 94 Q 147 96 138 100 Q 134 101 131 102 Q 131 102 131 102 L 126 92 Q 143 88 156 84 L 170 81 Q 183 76 198 71 Q 205 69 211 71 Q 231 80 231 83 L 200 86 Q 200 82 191 84 Q 180 87 169 90" fill="#000080" clip-path="url(#clip-mask-5)" /><path d="M 231 83 Q 231 87 225 89 Q 218 92 199 107 Q 196 110 194 109 Q 192 109 194 104 Q 201 89 200 86" fill="#000080" clip-path="url(#clip-mask-6)" /><path d="M 131 102 Q 130 105 130 109 Q 126 162 115 189 Q 113 193 112 197 Q 95 225 88 226 Q 86 227 86 225 Q 87 223 88 221 Q 101 198 108 175 Q 109 171 110 166 Q 120 105 109 92 Q 108 89 110 87 Q 114 85 126 92" fill="#000080" clip-path="url(#clip-mask-7)" /><path d="M 155 136 Q 156 113 156 94 L 156 84 Q 156 65 155 46 Q 155 40 149 31 Q 147 27 149 25 Q 151 23 155 24 Q 162 25 171 30 Q 177 34 176 37 Q 170 59 170 81 L 169 90 Q 168 110 167 131" fill="#000080" clip-path="url(#clip-mask-8)" /><path d="M 174 138 Q 162 142 150 146 Q 140 150 133 148 Q 127 145 130 144 Q 130 143 155 136 L 167 131 Q 180 123 187 124 Q 196 127 201 131" fill="#000080" clip-path="url(#clip-mask-9)" /><path d="M 170 183 Q 180 161 180 142 Q 179 137 174 138 L 201 131 Q 207 135 203 139 Q 198 144 196 154 Q 190 178 181 193 L 173 204 Q 157 224 122 228 Q 114 230 112 228 Q 109 226 113 225 Q 152 212 164 192" fill="#000080" clip-path="url(#clip-mask-10)" /><path d="M 163 191 L 162 190 Q 148 172 136 162 Q 133 159 135 158 Q 137 156 140 157 Q 149 158 154 164 Q 162 174 170 183 L 181 193 Q 200 211 221 220 Q 252 230 256 233 Q 259 235 257 237 Q 254 238 250 239 Q 239 240 224 242 Q 213 244 206 238 Q 185 219 173 204 L 164 192" fill="#000080" clip-path="url(#clip-mask-11)" /></svg>