<svg xmlns="http://www.w3.org/2000/svg" xmlns:xlink="http://www.w3.org/1999/xlink" width="270" height="270"><defs><clipPath id="clip-mask-1"><rect x="38" y="83" width="93" height="33"><animate attributeName="x" from="-55" to="38" dur="0.344" begin="0; animate11.end + 1" id="animate1" fill="freeze"/></rect></clipPath><clipPath id="clip-mask-2"><rect x="83" y="23" width="34" height="223"><set attributeName="y" to="-200" begin="0; animate11.end + 1" /><animate attributeName="y" from="-200" to="23" dur="0.826" begin="animate1.end + 0.5" id="animate2" fill="freeze"/></rect></clipPath><clipPath id="clip-mask-3"><rect x="60" y="209" width="26" height="28"><set attributeName="x" to="86" begin="0; animate11.end + 1" /><animate attributeName="x" from="86" to="60" dur="0.096" begin="animate2.end" id="animate3" fill="freeze"/></rect></clipPath><clipPath id="clip-mask-4"><rect x="24" y="125" width="98" height="69"><set attributeName="x" to="-74" begin="0; animate11.end + 1" /><animate attributeName="x" from="-74" to="24" dur="0.363" begin="animate3.end + 0.5" id="animate4" fill="freeze"/></rect></clipPath><clipPath id="clip-mask-5"><rect x="157" y="39" width="51" height="73"><set attributeName="y" to="-34" begin="0; animate11.end + 1" /><animate attributeName="y" from="-34" to="39" dur="0.270" begin="animate4.end + 0.5" id="animate5" fill="freeze"/></rect></clipPath><clipPath id="clip-mask-6"><rect x="133" y="109" width="21" height="110"><set attributeName="y" to="-1" begin="0; animate11.end + 1" /><animate attributeName="y" from="-1" to="109" dur="0.407" begin="animate5.end + 0.5" id="animate6" fill="freeze"/></rect></clipPath><clipPath id="clip-mask-7"><rect x="148" y="95" width="97" height="28"><set attributeName="x" to="51" begin="0; animate11.end + 1" /><animate attributeName="x" from="51" to="148" dur="0.359" begin="animate6.end + 0.5" id="animate7" fill="freeze"/></rect></clipPath><clipPath id="clip-mask-8"><rect x="214" y="114" width="27" height="114"><set attributeName="y" to="0" begin="0; animate11.end + 1" /><animate attributeName="y" from="0" to="114" dur="0.422" begin="animate7.end" id="animate8" fill="freeze"/></rect></clipPath><clipPath id="clip-mask-9"><rect x="205" y="191" width="12" height="33"><set attributeName="x" to="217" begin="0; animate11.end + 1" /><animate attributeName="x" from="217" to="205" dur="0.044" begin="animate8.end" id="animate9" fill="freeze"/></rect></clipPath><clipPath id="clip-mask-10"><rect x="153" y="146" width="54" height="18"><set attributeName="x" to="99" begin="0; animate11.end + 1" /><animate attributeName="x" from="99" to="153" dur="0.200" begin="animate9.end + 0.5" id="animate10" fill="freeze"/></rect></clipPath><clipPath id="clip-mask-11"><rect x="154" y="191" width="59" height="17"><set attributeName="x" to="95" begin="0; animate11.end + 1" /><animate attributeName="x" from="95" to="154" dur="0.219" begin="animate10.end + 0.5" id="animate11" fill="freeze"/></rect></clipPath></defs><path d="M 0 0 L 270 270 M 270 0 L 0 270 M 135 0 L 135 270 M 0 135 L 270 135" stroke="#CCCCCC" /><path d="M 93 105 Q 82 108 72 111 Q 58 116 46 111 Q 38 107 48 104 Q 73 99 93 91 L 107 85 Q 113 83 120 83 Q 128 84 129 88 Q 131 90 129 92 Q 127 94 117 97 Q 111 99 106 101" fill="#CCCCCC"/><path d="M 92 141 Q 92 120 93 105 L 93 91 Q 94 54 93 49 Q 93 40 88 32 Q 83 26 88 25 Q 94 23 102 28 Q 117 34 113 42 Q 110 48 107 85 L 106 101 Q 105 117 105 133 L 105 141 Q 105 173 106 205 Q 107 225 102 237 Q 98 246 94 246 Q 90 245 86 237 L 86 212 Q 89 210 90 204 Q 91 175 91 151" fill="#CCCCCC"/><path d="M 86 237 Q 82 230 67 218 Q 61 214 61 212 Q 60 209 69 212 Q 85 213 86 212" fill="#CCCCCC"/><path d="M 69 168 L 46 191 Q 43 194 39 193 Q 32 191 27 187 Q 24 184 24 181 Q 24 179 28 178 Q 34 176 43 170 Q 66 156 92 141 L 105 133 Q 114 125 119 125 Q 122 125 120 128 Q 118 130 105 141 L 91 151" fill="#CCCCCC"/><path d="M 157 112 Q 161 103 165 95 Q 181 54 176 46 Q 174 43 177 41 Q 181 39 189 40 Q 198 42 204 45 Q 208 49 203 54 Q 198 59 182 85 Q 176 96 165 111" fill="#CCCCCC"/><path d="M 154 212 L 152 216 Q 149 219 147 216 Q 140 208 140 204 Q 137 193 140 191 Q 145 148 134 114 Q 133 111 134 110 Q 137 109 140 110 Q 146 112 148 114 L 152 123 Q 152 137 153 156 L 153 164 Q 154 176 154 191 Q 154 196 154 199 L 154 208" fill="#CCCCCC"/><path d="M 148 114 Q 152 113 157 112 L 165 111 Q 194 105 210 99 Q 219 95 224 98 Q 236 103 242 108 Q 245 112 241 117 L 214 114 Q 210 110 154 123 Q 153 123 152 123" fill="#CCCCCC"/><path d="M 241 117 Q 236 126 235 138 Q 235 157 235 173 Q 236 199 228 219 Q 226 226 222 227 Q 219 228 216 224 L 217 191 Q 220 157 218 122 Q 217 115 214 114" fill="#CCCCCC"/><path d="M 216 224 Q 208 210 205 204 L 213 198 Q 214 198 214 198 Q 217 197 217 191" fill="#CCCCCC"/><path d="M 153 156 Q 186 146 194 147 Q 201 149 204 153 Q 207 157 200 158 Q 182 160 158 164 Q 155 164 153 164" fill="#CCCCCC"/><path d="M 205 204 Q 173 205 157 208 Q 155 208 154 208 L 154 199 Q 173 197 196 192 Q 204 191 208 193 Q 211 196 213 198" fill="#CCCCCC"/><path d="M 93 105 Q 82 108 72 111 Q 58 116 46 111 Q 38 107 48 104 Q 73 99 93 91 L 107 85 Q 113 83 120 83 Q 128 84 129 88 Q 131 90 129 92 Q 127 94 117 97 Q 111 99 106 101" fill="#0000ff" clip-path="url(#clip-mask-1)" /><path d="M 92 141 Q 92 120 93 105 L 93 91 Q 94 54 93 49 Q 93 40 88 32 Q 83 26 88 25 Q 94 23 102 28 Q 117 34 113 42 Q 110 48 107 85 L 106 101 Q 105 117 105 133 L 105 141 Q 105 173 106 205 Q 107 225 102 237 Q 98 246 94 246 Q 90 245 86 237 L 86 212 Q 89 210 90 204 Q 91 175 91 151" fill="#0000ff" clip-path="url(#clip-mask-2)" /><path d="M 86 237 Q 82 230 67 218 Q 61 214 61 212 Q 60 209 69 212 Q 85 213 86 212" fill="#0000ff" clip-path="url(#clip-mask-3)" /><path d="M 69 168 L 46 191 Q 43 194 39 193 Q 32 191 27 187 Q 24 184 24 181 Q 24 179 28 178 Q 34 176 43 170 Q 66 156 92 141 L 105 133 Q 114 125 119 125 Q 122 125 120 128 Q 118 130 105 141 L 91 151" fill="#0000ff" clip-path="url(#clip-mask-4)" /><path d="M 157 112 Q 161 103 165 95 Q 181 54 176 46 Q 174 43 177 41 Q 181 39 189 40 Q 198 42 204 45 Q 208 49 203 54 Q 198 59 182 85 Q 176 96 165 111" fill="#000080" clip-path="url(#clip-mask-5)" /><path d="M 154 212 L 152 216 Q 149 219 147 216 Q 140 208 140 204 Q 137 193 140 191 Q 145 148 134 114 Q 133 111 134 110 Q 137 109 140 110 Q 146 112 148 114 L 152 123 Q 152 137 153 156 L 153 164 Q 154 176 154 191 Q 154 196 154 199 L 154 208" fill="#000080" clip-path="url(#clip-mask-6)" /><path d="M 148 114 Q 152 113 157 112 L 165 111 Q 194 105 210 99 Q 219 95 224 98 Q 236 103 242 108 Q 245 112 241 117 L 214 114 Q 210 110 154 123 Q 153 123 152 123" fill="#000080" clip-path="url(#clip-mask-7)" /><path d="M 241 117 Q 236 126 235 138 Q 235 157 235 173 Q 236 199 228 219 Q 226 226 222 227 Q 219 228 216 224 L 217 191 Q 220 157 218 122 Q 217 115 214 114" fill="#000080" clip-path="url(#clip-mask-8)" /><path d="M 216 224 Q 208 210 205 204 L 213 198 Q 214 198 214 198 Q 217 197 217 191" fill="#000080" clip-path="url(#clip-mask-9)" /><path d="M 153 156 Q 186 146 194 147 Q 201 149 204 153 Q 207 157 200 158 Q 182 160 158 164 Q 155 164 153 164" fill="#000080" clip-path="url(#clip-mask-10)" /><path d="M 205 204 Q 173 205 157 208 Q 155 208 154 208 L 154 199 Q 173 197 196 192 Q 204 191 208 193 Q 211 196 213 198" fill="#000080" clip-path="url(#clip-mask-11)" /></svg>