<svg xmlns="http://www.w3.org/2000/svg" xmlns:xlink="http://www.w3.org/1999/xlink" width="270" height="270"><defs><clipPath id="clip-mask-1"><rect x="28" y="91" width="76" height="26"><animate attributeName="x" from="-48" to="28" dur="0.281" begin="0; animate13.end + 1" id="animate1" fill="freeze"/></rect></clipPath><clipPath id="clip-mask-2"><rect x="59" y="30" width="33" height="217"><set attributeName="y" to="-187" begin="0; animate13.end + 1" /><animate attributeName="y" from="-187" to="30" dur="0.804" begin="animate1.end + 0.5" id="animate2" fill="freeze"/></rect></clipPath><clipPath id="clip-mask-3"><rect x="40" y="209" width="23" height="29"><set attributeName="x" to="63" begin="0; animate13.end + 1" /><animate attributeName="x" from="63" to="40" dur="0.085" begin="animate2.end" id="animate3" fill="freeze"/></rect></clipPath><clipPath id="clip-mask-4"><rect x="12" y="130" width="86" height="62"><set attributeName="x" to="-74" begin="0; animate13.end + 1" /><animate attributeName="x" from="-74" to="12" dur="0.319" begin="animate3.end + 0.5" id="animate4" fill="freeze"/></rect></clipPath><clipPath id="clip-mask-5"><rect x="114" y="22" width="55" height="92"><set attributeName="y" to="-70" begin="0; animate13.end + 1" /><animate attributeName="y" from="-70" to="22" dur="0.341" begin="animate4.end + 0.5" id="animate5" fill="freeze"/></rect></clipPath><clipPath id="clip-mask-6"><rect x="139" y="66" width="78" height="29"><set attributeName="x" to="61" begin="0; animate13.end + 1" /><animate attributeName="x" from="61" to="139" dur="0.289" begin="animate5.end + 0.5" id="animate6" fill="freeze"/></rect></clipPath><clipPath id="clip-mask-7"><rect x="86" y="115" width="135" height="65"><set attributeName="x" to="-49" begin="0; animate13.end + 1" /><animate attributeName="x" from="-49" to="86" dur="0.500" begin="animate6.end + 0.5" id="animate7" fill="freeze"/></rect></clipPath><clipPath id="clip-mask-8"><rect x="190" y="128" width="28" height="58"><set attributeName="y" to="70" begin="0; animate13.end + 1" /><animate attributeName="y" from="70" to="128" dur="0.215" begin="animate7.end" id="animate8" fill="freeze"/></rect></clipPath><clipPath id="clip-mask-9"><rect x="171" y="163" width="22" height="28"><set attributeName="x" to="193" begin="0; animate13.end + 1" /><animate attributeName="x" from="193" to="171" dur="0.081" begin="animate8.end" id="animate9" fill="freeze"/></rect></clipPath><clipPath id="clip-mask-10"><rect x="145" y="100" width="25" height="93"><set attributeName="y" to="7" begin="0; animate13.end + 1" /><animate attributeName="y" from="7" to="100" dur="0.344" begin="animate9.end + 0.5" id="animate10" fill="freeze"/></rect></clipPath><clipPath id="clip-mask-11"><rect x="114" y="123" width="19" height="99"><set attributeName="y" to="24" begin="0; animate13.end + 1" /><animate attributeName="y" from="24" to="123" dur="0.367" begin="animate10.end + 0.5" id="animate11" fill="freeze"/></rect></clipPath><clipPath id="clip-mask-12"><rect x="132" y="201" width="125" height="41"><set attributeName="x" to="7" begin="0; animate13.end + 1" /><animate attributeName="x" from="7" to="132" dur="0.463" begin="animate11.end" id="animate12" fill="freeze"/></rect></clipPath><clipPath id="clip-mask-13"><rect x="229" y="166" width="25" height="40"><set attributeName="y" to="206" begin="0; animate13.end + 1" /><animate attributeName="y" from="206" to="166" dur="0.148" begin="animate12.end" id="animate13" fill="freeze"/></rect></clipPath></defs><path d="M 0 0 L 270 270 M 270 0 L 0 270 M 135 0 L 135 270 M 0 135 L 270 135" stroke="#CCCCCC" /><path d="M 68 111 Q 65 111 63 112 Q 44 117 35 112 Q 28 108 37 105 Q 44 104 68 98 L 82 93 Q 87 91 93 92 Q 101 94 103 97 Q 104 99 102 101 Q 101 102 93 105 Q 87 106 81 108" fill="#CCCCCC"/><path d="M 68 126 L 68 111 L 68 98 Q 69 60 69 56 Q 68 47 63 40 Q 59 34 63 32 Q 68 30 77 35 Q 92 41 87 49 Q 84 57 82 93 L 81 108 Q 81 123 81 138 L 81 146 Q 81 177 83 207 Q 82 227 78 239 Q 73 247 70 247 Q 66 246 62 238 L 63 214 Q 66 212 67 206 Q 67 179 67 157 L 68 146" fill="#CCCCCC"/><path d="M 62 238 Q 59 231 45 217 Q 40 213 40 211 Q 40 209 48 212 Q 62 215 63 214" fill="#CCCCCC"/><path d="M 81 138 Q 91 130 95 130 Q 98 130 96 133 Q 94 137 89 140 Q 85 143 81 146 L 67 157 Q 52 170 35 186 Q 29 192 26 191 Q 21 189 16 185 Q 12 182 12 180 Q 13 178 16 176 Q 21 174 30 169 Q 47 158 68 146" fill="#CCCCCC"/><path d="M 125 110 L 118 113 Q 114 114 114 111 Q 115 109 117 106 Q 127 88 134 72 Q 149 39 142 29 Q 140 23 145 22 Q 149 22 157 26 Q 166 31 168 34 Q 169 37 167 41 Q 163 45 160 54 Q 151 71 143 83 L 139 89" fill="#CCCCCC"/><path d="M 143 83 Q 157 81 169 77 Q 180 74 190 70 Q 198 66 206 67 Q 214 69 216 72 Q 217 74 215 76 Q 214 78 205 80 Q 184 85 165 90 Q 150 95 139 89" fill="#CCCCCC"/><path d="M 110 175 L 107 177 Q 102 180 96 178 Q 86 176 86 174 Q 86 171 89 171 Q 100 167 118 160 L 129 155 Q 141 149 152 144 L 164 138 Q 168 135 171 133 Q 186 126 193 119 Q 196 115 201 116 Q 213 119 217 121 Q 221 124 218 128 L 196 133 Q 194 130 190 132 Q 175 139 163 146 L 152 152 Q 137 159 128 165 L 118 170" fill="#CCCCCC"/><path d="M 218 128 Q 209 137 208 150 Q 202 176 193 186 L 190 163 Q 197 135 196 133" fill="#CCCCCC"/><path d="M 193 186 Q 188 191 183 184 Q 172 168 172 165 Q 171 164 175 165 Q 179 167 183 169 Q 188 171 190 163" fill="#CCCCCC"/><path d="M 152 144 Q 153 117 148 107 Q 145 104 148 102 Q 153 100 158 102 Q 164 106 168 109 Q 170 112 168 116 Q 167 122 165 134 Q 164 136 164 138 L 163 146 Q 162 154 161 163 Q 158 189 155 192 Q 152 193 151 191 Q 150 186 150 179 Q 152 164 152 152" fill="#CCCCCC"/><path d="M 118 160 Q 118 136 115 129 Q 114 125 115 124 Q 117 123 120 123 Q 126 125 129 128 Q 132 131 131 135 Q 129 145 129 155 L 128 165 Q 127 191 133 201 L 132 222 Q 124 215 122 206 Q 118 197 118 170" fill="#CCCCCC"/><path d="M 133 201 Q 136 209 148 213 Q 176 224 210 215 Q 224 211 229 204 L 254 206 Q 257 213 252 216 Q 239 226 225 231 Q 219 233 212 234 Q 159 242 132 222" fill="#CCCCCC"/><path d="M 229 204 Q 235 197 243 171 Q 245 166 247 167 Q 248 169 248 173 Q 251 198 254 206" fill="#CCCCCC"/><path d="M 68 111 Q 65 111 63 112 Q 44 117 35 112 Q 28 108 37 105 Q 44 104 68 98 L 82 93 Q 87 91 93 92 Q 101 94 103 97 Q 104 99 102 101 Q 101 102 93 105 Q 87 106 81 108" fill="#0000ff" clip-path="url(#clip-mask-1)" /><path d="M 68 126 L 68 111 L 68 98 Q 69 60 69 56 Q 68 47 63 40 Q 59 34 63 32 Q 68 30 77 35 Q 92 41 87 49 Q 84 57 82 93 L 81 108 Q 81 123 81 138 L 81 146 Q 81 177 83 207 Q 82 227 78 239 Q 73 247 70 247 Q 66 246 62 238 L 63 214 Q 66 212 67 206 Q 67 179 67 157 L 68 146" fill="#0000ff" clip-path="url(#clip-mask-2)" /><path d="M 62 238 Q 59 231 45 217 Q 40 213 40 211 Q 40 209 48 212 Q 62 215 63 214" fill="#0000ff" clip-path="url(#clip-mask-3)" /><path d="M 81 138 Q 91 130 95 130 Q 98 130 96 133 Q 94 137 89 140 Q 85 143 81 146 L 67 157 Q 52 170 35 186 Q 29 192 26 191 Q 21 189 16 185 Q 12 182 12 180 Q 13 178 16 176 Q 21 174 30 169 Q 47 158 68 146" fill="#0000ff" clip-path="url(#clip-mask-4)" /><path d="M 125 110 L 118 113 Q 114 114 114 111 Q 115 109 117 106 Q 127 88 134 72 Q 149 39 142 29 Q 140 23 145 22 Q 149 22 157 26 Q 166 31 168 34 Q 169 37 167 41 Q 163 45 160 54 Q 151 71 143 83 L 139 89" fill="#000080" clip-path="url(#clip-mask-5)" /><path d="M 143 83 Q 157 81 169 77 Q 180 74 190 70 Q 198 66 206 67 Q 214 69 216 72 Q 217 74 215 76 Q 214 78 205 80 Q 184 85 165 90 Q 150 95 139 89" fill="#000080" clip-path="url(#clip-mask-6)" /><path d="M 110 175 L 107 177 Q 102 180 96 178 Q 86 176 86 174 Q 86 171 89 171 Q 100 167 118 160 L 129 155 Q 141 149 152 144 L 164 138 Q 168 135 171 133 Q 186 126 193 119 Q 196 115 201 116 Q 213 119 217 121 Q 221 124 218 128 L 196 133 Q 194 130 190 132 Q 175 139 163 146 L 152 152 Q 137 159 128 165 L 118 170" fill="#000080" clip-path="url(#clip-mask-7)" /><path d="M 218 128 Q 209 137 208 150 Q 202 176 193 186 L 190 163 Q 197 135 196 133" fill="#000080" clip-path="url(#clip-mask-8)" /><path d="M 193 186 Q 188 191 183 184 Q 172 168 172 165 Q 171 164 175 165 Q 179 167 183 169 Q 188 171 190 163" fill="#000080" clip-path="url(#clip-mask-9)" /><path d="M 152 144 Q 153 117 148 107 Q 145 104 148 102 Q 153 100 158 102 Q 164 106 168 109 Q 170 112 168 116 Q 167 122 165 134 Q 164 136 164 138 L 163 146 Q 162 154 161 163 Q 158 189 155 192 Q 152 193 151 191 Q 150 186 150 179 Q 152 164 152 152" fill="#000080" clip-path="url(#clip-mask-10)" /><path d="M 118 160 Q 118 136 115 129 Q 114 125 115 124 Q 117 123 120 123 Q 126 125 129 128 Q 132 131 131 135 Q 129 145 129 155 L 128 165 Q 127 191 133 201 L 132 222 Q 124 215 122 206 Q 118 197 118 170" fill="#000080" clip-path="url(#clip-mask-11)" /><path d="M 133 201 Q 136 209 148 213 Q 176 224 210 215 Q 224 211 229 204 L 254 206 Q 257 213 252 216 Q 239 226 225 231 Q 219 233 212 234 Q 159 242 132 222" fill="#000080" clip-path="url(#clip-mask-12)" /><path d="M 229 204 Q 235 197 243 171 Q 245 166 247 167 Q 248 169 248 173 Q 251 198 254 206" fill="#000080" clip-path="url(#clip-mask-13)" /></svg>