<svg xmlns="http://www.w3.org/2000/svg" xmlns:xlink="http://www.w3.org/1999/xlink" width="270" height="270"><defs><clipPath id="clip-mask-1"><rect x="28" y="92" width="88" height="31"><animate attributeName="x" from="-60" to="28" dur="0.326" begin="0; animate11.end + 1" id="animate1" fill="freeze"/></rect></clipPath><clipPath id="clip-mask-2"><rect x="67" y="21" width="33" height="227"><set attributeName="y" to="-206" begin="0; animate11.end + 1" /><animate attributeName="y" from="-206" to="21" dur="0.841" begin="animate1.end + 0.5" id="animate2" fill="freeze"/></rect></clipPath><clipPath id="clip-mask-3"><rect x="47" y="209" width="24" height="30"><set attributeName="x" to="71" begin="0; animate11.end + 1" /><animate attributeName="x" from="71" to="47" dur="0.089" begin="animate2.end" id="animate3" fill="freeze"/></rect></clipPath><clipPath id="clip-mask-4"><rect x="12" y="129" width="92" height="69"><set attributeName="x" to="-80" begin="0; animate11.end + 1" /><animate attributeName="x" from="-80" to="12" dur="0.341" begin="animate3.end + 0.5" id="animate4" fill="freeze"/></rect></clipPath><clipPath id="clip-mask-5"><rect x="125" y="49" width="87" height="47"><set attributeName="x" to="212" begin="0; animate11.end + 1" /><animate attributeName="x" from="212" to="125" dur="0.322" begin="animate4.end + 0.5" id="animate5" fill="freeze"/></rect></clipPath><clipPath id="clip-mask-6"><rect x="106" y="106" width="151" height="36"><set attributeName="x" to="-45" begin="0; animate11.end + 1" /><animate attributeName="x" from="-45" to="106" dur="0.559" begin="animate5.end + 0.5" id="animate6" fill="freeze"/></rect></clipPath><clipPath id="clip-mask-7"><rect x="156" y="87" width="25" height="86"><set attributeName="y" to="1" begin="0; animate11.end + 1" /><animate attributeName="y" from="1" to="87" dur="0.319" begin="animate6.end + 0.5" id="animate7" fill="freeze"/></rect></clipPath><clipPath id="clip-mask-8"><rect x="117" y="170" width="28" height="71"><set attributeName="y" to="99" begin="0; animate11.end + 1" /><animate attributeName="y" from="99" to="170" dur="0.263" begin="animate7.end + 0.5" id="animate8" fill="freeze"/></rect></clipPath><clipPath id="clip-mask-9"><rect x="137" y="156" width="90" height="28"><set attributeName="x" to="47" begin="0; animate11.end + 1" /><animate attributeName="x" from="47" to="137" dur="0.333" begin="animate8.end + 0.5" id="animate9" fill="freeze"/></rect></clipPath><clipPath id="clip-mask-10"><rect x="193" y="173" width="38" height="41"><set attributeName="y" to="132" begin="0; animate11.end + 1" /><animate attributeName="y" from="132" to="173" dur="0.152" begin="animate9.end" id="animate10" fill="freeze"/></rect></clipPath><clipPath id="clip-mask-11"><rect x="144" y="212" width="72" height="18"><set attributeName="x" to="72" begin="0; animate11.end + 1" /><animate attributeName="x" from="72" to="144" dur="0.267" begin="animate10.end + 0.5" id="animate11" fill="freeze"/></rect></clipPath></defs><path d="M 0 0 L 270 270 M 270 0 L 0 270 M 135 0 L 135 270 M 0 135 L 270 135" stroke="#CCCCCC" /><path d="M 77 114 Q 68 116 62 118 Q 48 123 36 118 Q 28 114 38 111 Q 56 108 77 101 L 90 95 Q 97 92 104 92 Q 112 93 114 97 Q 116 99 114 101 Q 113 101 89 110" fill="#CCCCCC"/><path d="M 76 127 L 77 114 L 77 101 Q 77 51 77 46 Q 77 37 71 30 Q 67 24 71 23 Q 76 21 85 26 Q 100 31 95 39 Q 91 53 90 95 L 89 110 Q 89 123 89 136 L 89 144 Q 89 176 91 208 Q 91 227 86 239 Q 82 248 78 248 Q 74 247 70 239 L 71 215 Q 75 213 75 206 Q 75 178 76 156 L 76 144" fill="#CCCCCC"/><path d="M 70 239 Q 67 231 52 218 Q 48 213 48 212 Q 47 209 55 213 Q 70 216 71 215" fill="#CCCCCC"/><path d="M 89 136 Q 95 130 101 129 Q 104 129 102 132 Q 101 134 89 144 L 76 156 Q 52 176 38 191 Q 31 198 28 198 Q 21 196 16 192 Q 12 189 12 186 Q 13 184 16 183 Q 22 180 31 175 Q 52 160 76 144" fill="#CCCCCC"/><path d="M 156 91 Q 132 96 129 96 Q 125 95 128 93 Q 180 68 183 53 Q 183 49 186 49 Q 193 49 205 56 Q 210 59 211 62 Q 212 64 208 66 Q 202 68 198 71 Q 184 79 171 85 Q 168 86 166 87" fill="#CCCCCC"/><path d="M 159 133 Q 143 137 129 141 Q 125 142 119 141 Q 115 140 111 136 Q 106 132 112 131 Q 137 127 160 123 L 174 121 Q 175 120 177 120 Q 210 114 229 109 Q 238 106 253 116 Q 257 119 256 123 Q 254 125 248 125 Q 206 125 173 131" fill="#CCCCCC"/><path d="M 156 173 Q 158 152 159 133 L 160 123 Q 160 113 160 104 Q 160 99 156 92 Q 156 91 156 91 L 166 87 Q 171 89 176 92 Q 181 96 180 99 Q 176 108 174 121 L 173 131 Q 170 150 167 170" fill="#CCCCCC"/><path d="M 145 234 L 144 237 Q 143 241 138 236 Q 133 230 132 222 Q 128 194 120 178 Q 117 173 119 172 Q 120 170 123 171 Q 133 173 137 175 Q 137 175 137 175 L 139 184 Q 140 194 144 220 L 145 230" fill="#CCCCCC"/><path d="M 137 175 Q 146 174 156 173 L 167 170 Q 178 168 190 164 Q 204 156 227 173 L 199 176 Q 196 174 190 175 Q 151 183 139 184" fill="#CCCCCC"/><path d="M 193 212 Q 194 212 194 212 Q 198 200 200 184 Q 201 179 199 176 L 227 173 Q 231 178 226 183 Q 217 190 208 214" fill="#CCCCCC"/><path d="M 144 220 Q 166 218 193 212 L 208 214 Q 216 220 215 222 Q 215 225 212 225 Q 170 226 150 230 Q 147 230 145 230" fill="#CCCCCC"/><path d="M 77 114 Q 68 116 62 118 Q 48 123 36 118 Q 28 114 38 111 Q 56 108 77 101 L 90 95 Q 97 92 104 92 Q 112 93 114 97 Q 116 99 114 101 Q 113 101 89 110" fill="#0000ff" clip-path="url(#clip-mask-1)" /><path d="M 76 127 L 77 114 L 77 101 Q 77 51 77 46 Q 77 37 71 30 Q 67 24 71 23 Q 76 21 85 26 Q 100 31 95 39 Q 91 53 90 95 L 89 110 Q 89 123 89 136 L 89 144 Q 89 176 91 208 Q 91 227 86 239 Q 82 248 78 248 Q 74 247 70 239 L 71 215 Q 75 213 75 206 Q 75 178 76 156 L 76 144" fill="#0000ff" clip-path="url(#clip-mask-2)" /><path d="M 70 239 Q 67 231 52 218 Q 48 213 48 212 Q 47 209 55 213 Q 70 216 71 215" fill="#0000ff" clip-path="url(#clip-mask-3)" /><path d="M 89 136 Q 95 130 101 129 Q 104 129 102 132 Q 101 134 89 144 L 76 156 Q 52 176 38 191 Q 31 198 28 198 Q 21 196 16 192 Q 12 189 12 186 Q 13 184 16 183 Q 22 180 31 175 Q 52 160 76 144" fill="#0000ff" clip-path="url(#clip-mask-4)" /><path d="M 156 91 Q 132 96 129 96 Q 125 95 128 93 Q 180 68 183 53 Q 183 49 186 49 Q 193 49 205 56 Q 210 59 211 62 Q 212 64 208 66 Q 202 68 198 71 Q 184 79 171 85 Q 168 86 166 87" fill="#000080" clip-path="url(#clip-mask-5)" /><path d="M 159 133 Q 143 137 129 141 Q 125 142 119 141 Q 115 140 111 136 Q 106 132 112 131 Q 137 127 160 123 L 174 121 Q 175 120 177 120 Q 210 114 229 109 Q 238 106 253 116 Q 257 119 256 123 Q 254 125 248 125 Q 206 125 173 131" fill="#000080" clip-path="url(#clip-mask-6)" /><path d="M 156 173 Q 158 152 159 133 L 160 123 Q 160 113 160 104 Q 160 99 156 92 Q 156 91 156 91 L 166 87 Q 171 89 176 92 Q 181 96 180 99 Q 176 108 174 121 L 173 131 Q 170 150 167 170" fill="#000080" clip-path="url(#clip-mask-7)" /><path d="M 145 234 L 144 237 Q 143 241 138 236 Q 133 230 132 222 Q 128 194 120 178 Q 117 173 119 172 Q 120 170 123 171 Q 133 173 137 175 Q 137 175 137 175 L 139 184 Q 140 194 144 220 L 145 230" fill="#000080" clip-path="url(#clip-mask-8)" /><path d="M 137 175 Q 146 174 156 173 L 167 170 Q 178 168 190 164 Q 204 156 227 173 L 199 176 Q 196 174 190 175 Q 151 183 139 184" fill="#000080" clip-path="url(#clip-mask-9)" /><path d="M 193 212 Q 194 212 194 212 Q 198 200 200 184 Q 201 179 199 176 L 227 173 Q 231 178 226 183 Q 217 190 208 214" fill="#000080" clip-path="url(#clip-mask-10)" /><path d="M 144 220 Q 166 218 193 212 L 208 214 Q 216 220 215 222 Q 215 225 212 225 Q 170 226 150 230 Q 147 230 145 230" fill="#000080" clip-path="url(#clip-mask-11)" /></svg>