<svg xmlns="http://www.w3.org/2000/svg" xmlns:xlink="http://www.w3.org/1999/xlink" width="270" height="270"><defs><clipPath id="clip-mask-1"><rect x="28" y="80" width="81" height="27"><animate attributeName="x" from="-53" to="28" dur="0.300" begin="0; animate14.end + 1" id="animate1" fill="freeze"/></rect></clipPath><clipPath id="clip-mask-2"><rect x="65" y="21" width="33" height="227"><set attributeName="y" to="-206" begin="0; animate14.end + 1" /><animate attributeName="y" from="-206" to="21" dur="0.841" begin="animate1.end + 0.5" id="animate2" fill="freeze"/></rect></clipPath><clipPath id="clip-mask-3"><rect x="41" y="210" width="30" height="28"><set attributeName="x" to="71" begin="0; animate14.end + 1" /><animate attributeName="x" from="71" to="41" dur="0.111" begin="animate2.end" id="animate3" fill="freeze"/></rect></clipPath><clipPath id="clip-mask-4"><rect x="17" y="122" width="88" height="63"><set attributeName="x" to="-71" begin="0; animate14.end + 1" /><animate attributeName="x" from="-71" to="17" dur="0.326" begin="animate3.end + 0.5" id="animate4" fill="freeze"/></rect></clipPath><clipPath id="clip-mask-5"><rect x="125" y="38" width="81" height="39"><set attributeName="x" to="206" begin="0; animate14.end + 1" /><animate attributeName="x" from="206" to="125" dur="0.300" begin="animate4.end + 0.5" id="animate5" fill="freeze"/></rect></clipPath><clipPath id="clip-mask-6"><rect x="108" y="89" width="141" height="36"><set attributeName="x" to="-33" begin="0; animate14.end + 1" /><animate attributeName="x" from="-33" to="108" dur="0.522" begin="animate5.end + 0.5" id="animate6" fill="freeze"/></rect></clipPath><clipPath id="clip-mask-7"><rect x="158" y="67" width="23" height="150"><set attributeName="y" to="-83" begin="0; animate14.end + 1" /><animate attributeName="y" from="-83" to="67" dur="0.556" begin="animate6.end + 0.5" id="animate7" fill="freeze"/></rect></clipPath><clipPath id="clip-mask-8"><rect x="122" y="129" width="35" height="31"><set attributeName="x" to="157" begin="0; animate14.end + 1" /><animate attributeName="x" from="157" to="122" dur="0.130" begin="animate7.end + 0.5" id="animate8" fill="freeze"/></rect></clipPath><clipPath id="clip-mask-9"><rect x="105" y="151" width="30" height="87"><set attributeName="y" to="64" begin="0; animate14.end + 1" /><animate attributeName="y" from="64" to="151" dur="0.322" begin="animate8.end + 0.5" id="animate9" fill="freeze"/></rect></clipPath><clipPath id="clip-mask-10"><rect x="128" y="174" width="32" height="14"><set attributeName="x" to="96" begin="0; animate14.end + 1" /><animate attributeName="x" from="96" to="128" dur="0.119" begin="animate9.end + 0.5" id="animate10" fill="freeze"/></rect></clipPath><clipPath id="clip-mask-11"><rect x="189" y="133" width="58" height="16"><set attributeName="x" to="131" begin="0; animate14.end + 1" /><animate attributeName="x" from="131" to="189" dur="0.215" begin="animate10.end + 0.5" id="animate11" fill="freeze"/></rect></clipPath><clipPath id="clip-mask-12"><rect x="210" y="145" width="42" height="85"><set attributeName="y" to="60" begin="0; animate14.end + 1" /><animate attributeName="y" from="60" to="145" dur="0.315" begin="animate11.end" id="animate12" fill="freeze"/></rect></clipPath><clipPath id="clip-mask-13"><rect x="185" y="168" width="36" height="14"><set attributeName="x" to="149" begin="0; animate14.end + 1" /><animate attributeName="x" from="149" to="185" dur="0.133" begin="animate12.end + 0.5" id="animate13" fill="freeze"/></rect></clipPath><clipPath id="clip-mask-14"><rect x="135" y="209" width="77" height="21"><set attributeName="x" to="58" begin="0; animate14.end + 1" /><animate attributeName="x" from="58" to="135" dur="0.285" begin="animate13.end + 0.5" id="animate14" fill="freeze"/></rect></clipPath></defs><path d="M 0 0 L 270 270 M 270 0 L 0 270 M 135 0 L 135 270 M 0 135 L 270 135" stroke="#CCCCCC" /><path d="M 75 99 Q 70 100 66 102 Q 46 107 35 103 Q 28 99 37 96 Q 52 93 76 86 L 89 81 Q 93 80 97 80 Q 105 82 107 85 Q 109 87 106 89 Q 105 90 97 93 Q 92 94 88 96" fill="#CCCCCC"/><path d="M 75 116 L 75 99 L 76 86 Q 75 51 75 47 Q 75 38 69 31 Q 65 25 70 23 Q 75 21 83 26 Q 98 32 93 40 Q 89 57 89 81 L 88 96 Q 88 113 88 130 L 88 138 Q 88 173 90 208 Q 91 227 86 239 Q 82 248 79 247 Q 75 247 69 238 L 71 215 Q 74 213 75 206 Q 75 174 75 149 L 75 138" fill="#CCCCCC"/><path d="M 69 238 Q 65 231 47 218 Q 42 214 42 212 Q 41 210 49 212 Q 56 214 63 215 Q 69 217 71 215" fill="#CCCCCC"/><path d="M 88 130 Q 100 122 102 122 Q 105 122 103 125 Q 103 125 88 138 L 75 149 Q 60 160 38 182 Q 36 185 32 184 Q 26 182 21 178 Q 17 175 17 173 Q 18 171 21 169 Q 27 167 35 162 Q 54 150 75 138" fill="#CCCCCC"/><path d="M 158 70 Q 131 77 127 77 Q 125 77 127 74 Q 176 52 176 42 Q 177 39 178 38 Q 182 38 186 39 Q 197 44 203 48 Q 206 51 205 54 Q 204 56 199 56 Q 186 58 167 67" fill="#CCCCCC"/><path d="M 166 114 Q 147 117 131 122 Q 118 125 111 119 Q 108 115 113 115 Q 141 110 166 105 L 179 102 Q 201 97 216 94 Q 231 89 245 98 Q 249 102 248 105 Q 246 107 232 107 Q 200 109 179 112" fill="#CCCCCC"/><path d="M 166 217 Q 166 143 166 114 L 166 105 Q 164 82 163 80 Q 158 71 158 70 L 167 67 Q 172 70 179 75 Q 181 78 180 83 Q 179 93 179 102 L 179 112 Q 179 157 179 215" fill="#CCCCCC"/><path d="M 122 155 Q 141 137 140 133 Q 141 129 144 129 Q 149 130 152 134 Q 156 138 156 142 Q 157 144 153 145 Q 144 149 125 160" fill="#CCCCCC"/><path d="M 135 230 Q 134 232 133 234 Q 132 238 127 232 Q 122 225 121 214 Q 117 180 107 158 Q 105 154 107 152 Q 108 151 111 152 Q 119 153 122 155 L 125 160 Q 125 160 125 160 Q 125 165 128 181 L 129 188 Q 131 198 133 211 Q 135 217 135 222" fill="#CCCCCC"/><path d="M 128 181 Q 141 174 149 175 Q 155 176 158 179 Q 160 182 155 183 Q 144 185 129 188" fill="#CCCCCC"/><path d="M 220 145 Q 219 144 210 147 Q 198 149 192 146 Q 189 144 190 143 Q 190 141 194 141 Q 197 140 203 139 Q 209 137 215 136 Q 226 133 230 135 Q 242 142 247 146" fill="#CCCCCC"/><path d="M 212 213 Q 215 203 219 179 L 221 171 Q 221 166 223 160 Q 225 148 220 145 L 247 146 Q 252 150 247 154 Q 237 162 233 175 Q 227 217 221 225 Q 219 230 216 230 Q 212 230 211 226 Q 210 224 210 222" fill="#CCCCCC"/><path d="M 219 179 Q 208 180 195 181 Q 192 182 190 181 Q 185 177 190 176 L 190 176 Q 211 168 221 171" fill="#CCCCCC"/><path d="M 208 209 L 212 213 L 210 222 Q 180 224 140 230 Q 137 230 135 230 L 135 222 Q 150 219 166 217 L 179 215" fill="#CCCCCC"/><path d="M 75 99 Q 70 100 66 102 Q 46 107 35 103 Q 28 99 37 96 Q 52 93 76 86 L 89 81 Q 93 80 97 80 Q 105 82 107 85 Q 109 87 106 89 Q 105 90 97 93 Q 92 94 88 96" fill="#0000ff" clip-path="url(#clip-mask-1)" /><path d="M 75 116 L 75 99 L 76 86 Q 75 51 75 47 Q 75 38 69 31 Q 65 25 70 23 Q 75 21 83 26 Q 98 32 93 40 Q 89 57 89 81 L 88 96 Q 88 113 88 130 L 88 138 Q 88 173 90 208 Q 91 227 86 239 Q 82 248 79 247 Q 75 247 69 238 L 71 215 Q 74 213 75 206 Q 75 174 75 149 L 75 138" fill="#0000ff" clip-path="url(#clip-mask-2)" /><path d="M 69 238 Q 65 231 47 218 Q 42 214 42 212 Q 41 210 49 212 Q 56 214 63 215 Q 69 217 71 215" fill="#0000ff" clip-path="url(#clip-mask-3)" /><path d="M 88 130 Q 100 122 102 122 Q 105 122 103 125 Q 103 125 88 138 L 75 149 Q 60 160 38 182 Q 36 185 32 184 Q 26 182 21 178 Q 17 175 17 173 Q 18 171 21 169 Q 27 167 35 162 Q 54 150 75 138" fill="#0000ff" clip-path="url(#clip-mask-4)" /><path d="M 158 70 Q 131 77 127 77 Q 125 77 127 74 Q 176 52 176 42 Q 177 39 178 38 Q 182 38 186 39 Q 197 44 203 48 Q 206 51 205 54 Q 204 56 199 56 Q 186 58 167 67" fill="#000080" clip-path="url(#clip-mask-5)" /><path d="M 166 114 Q 147 117 131 122 Q 118 125 111 119 Q 108 115 113 115 Q 141 110 166 105 L 179 102 Q 201 97 216 94 Q 231 89 245 98 Q 249 102 248 105 Q 246 107 232 107 Q 200 109 179 112" fill="#000080" clip-path="url(#clip-mask-6)" /><path d="M 166 217 Q 166 143 166 114 L 166 105 Q 164 82 163 80 Q 158 71 158 70 L 167 67 Q 172 70 179 75 Q 181 78 180 83 Q 179 93 179 102 L 179 112 Q 179 157 179 215" fill="#000080" clip-path="url(#clip-mask-7)" /><path d="M 122 155 Q 141 137 140 133 Q 141 129 144 129 Q 149 130 152 134 Q 156 138 156 142 Q 157 144 153 145 Q 144 149 125 160" fill="#000080" clip-path="url(#clip-mask-8)" /><path d="M 135 230 Q 134 232 133 234 Q 132 238 127 232 Q 122 225 121 214 Q 117 180 107 158 Q 105 154 107 152 Q 108 151 111 152 Q 119 153 122 155 L 125 160 Q 125 160 125 160 Q 125 165 128 181 L 129 188 Q 131 198 133 211 Q 135 217 135 222" fill="#000080" clip-path="url(#clip-mask-9)" /><path d="M 128 181 Q 141 174 149 175 Q 155 176 158 179 Q 160 182 155 183 Q 144 185 129 188" fill="#000080" clip-path="url(#clip-mask-10)" /><path d="M 220 145 Q 219 144 210 147 Q 198 149 192 146 Q 189 144 190 143 Q 190 141 194 141 Q 197 140 203 139 Q 209 137 215 136 Q 226 133 230 135 Q 242 142 247 146" fill="#000080" clip-path="url(#clip-mask-11)" /><path d="M 212 213 Q 215 203 219 179 L 221 171 Q 221 166 223 160 Q 225 148 220 145 L 247 146 Q 252 150 247 154 Q 237 162 233 175 Q 227 217 221 225 Q 219 230 216 230 Q 212 230 211 226 Q 210 224 210 222" fill="#000080" clip-path="url(#clip-mask-12)" /><path d="M 219 179 Q 208 180 195 181 Q 192 182 190 181 Q 185 177 190 176 L 190 176 Q 211 168 221 171" fill="#000080" clip-path="url(#clip-mask-13)" /><path d="M 208 209 L 212 213 L 210 222 Q 180 224 140 230 Q 137 230 135 230 L 135 222 Q 150 219 166 217 L 179 215" fill="#000080" clip-path="url(#clip-mask-14)" /></svg>