<svg xmlns="http://www.w3.org/2000/svg" xmlns:xlink="http://www.w3.org/1999/xlink" width="270" height="270"><defs><clipPath id="clip-mask-1"><rect x="25" y="90" width="83" height="28"><animate attributeName="x" from="-58" to="25" dur="0.307" begin="0; animate16.end + 1" id="animate1" fill="freeze"/></rect></clipPath><clipPath id="clip-mask-2"><rect x="62" y="30" width="32" height="217"><set attributeName="y" to="-187" begin="0; animate16.end + 1" /><animate attributeName="y" from="-187" to="30" dur="0.804" begin="animate1.end + 0.5" id="animate2" fill="freeze"/></rect></clipPath><clipPath id="clip-mask-3"><rect x="40" y="209" width="26" height="29"><set attributeName="x" to="66" begin="0; animate16.end + 1" /><animate attributeName="x" from="66" to="40" dur="0.096" begin="animate2.end" id="animate3" fill="freeze"/></rect></clipPath><clipPath id="clip-mask-4"><rect x="13" y="128" width="91" height="67"><set attributeName="x" to="-78" begin="0; animate16.end + 1" /><animate attributeName="x" from="-78" to="13" dur="0.337" begin="animate3.end + 0.5" id="animate4" fill="freeze"/></rect></clipPath><clipPath id="clip-mask-5"><rect x="118" y="22" width="54" height="70"><set attributeName="y" to="-48" begin="0; animate16.end + 1" /><animate attributeName="y" from="-48" to="22" dur="0.259" begin="animate4.end + 0.5" id="animate5" fill="freeze"/></rect></clipPath><clipPath id="clip-mask-6"><rect x="153" y="49" width="53" height="15"><set attributeName="x" to="100" begin="0; animate16.end + 1" /><animate attributeName="x" from="100" to="153" dur="0.196" begin="animate5.end + 0.5" id="animate6" fill="freeze"/></rect></clipPath><clipPath id="clip-mask-7"><rect x="161" y="60" width="48" height="41"><set attributeName="y" to="19" begin="0; animate16.end + 1" /><animate attributeName="y" from="19" to="60" dur="0.152" begin="animate6.end" id="animate7" fill="freeze"/></rect></clipPath><clipPath id="clip-mask-8"><rect x="108" y="104" width="26" height="62"><set attributeName="y" to="42" begin="0; animate16.end + 1" /><animate attributeName="y" from="42" to="104" dur="0.230" begin="animate7.end + 0.5" id="animate8" fill="freeze"/></rect></clipPath><clipPath id="clip-mask-9"><rect x="124" y="89" width="106" height="27"><set attributeName="x" to="18" begin="0; animate16.end + 1" /><animate attributeName="x" from="18" to="124" dur="0.393" begin="animate8.end + 0.5" id="animate9" fill="freeze"/></rect></clipPath><clipPath id="clip-mask-10"><rect x="200" y="101" width="31" height="55"><set attributeName="y" to="46" begin="0; animate16.end + 1" /><animate attributeName="y" from="46" to="101" dur="0.204" begin="animate9.end" id="animate10" fill="freeze"/></rect></clipPath><clipPath id="clip-mask-11"><rect x="132" y="116" width="27" height="32"><set attributeName="y" to="84" begin="0; animate16.end + 1" /><animate attributeName="y" from="84" to="116" dur="0.119" begin="animate10.end + 0.5" id="animate11" fill="freeze"/></rect></clipPath><clipPath id="clip-mask-12"><rect x="168" y="104" width="16" height="37"><set attributeName="y" to="67" begin="0; animate16.end + 1" /><animate attributeName="y" from="67" to="104" dur="0.137" begin="animate11.end + 0.5" id="animate12" fill="freeze"/></rect></clipPath><clipPath id="clip-mask-13"><rect x="180" y="130" width="24" height="14"><set attributeName="x" to="156" begin="0; animate16.end + 1" /><animate attributeName="x" from="156" to="180" dur="0.089" begin="animate12.end" id="animate13" fill="freeze"/></rect></clipPath><clipPath id="clip-mask-14"><rect x="93" y="147" width="163" height="33"><set attributeName="x" to="-70" begin="0; animate16.end + 1" /><animate attributeName="x" from="-70" to="93" dur="0.604" begin="animate13.end + 0.5" id="animate14" fill="freeze"/></rect></clipPath><clipPath id="clip-mask-15"><rect x="92" y="148" width="80" height="87"><set attributeName="y" to="61" begin="0; animate16.end + 1" /><animate attributeName="y" from="61" to="148" dur="0.322" begin="animate14.end + 0.5" id="animate15" fill="freeze"/></rect></clipPath><clipPath id="clip-mask-16"><rect x="164" y="171" width="92" height="66"><set attributeName="x" to="72" begin="0; animate16.end + 1" /><animate attributeName="x" from="72" to="164" dur="0.341" begin="animate15.end + 0.5" id="animate16" fill="freeze"/></rect></clipPath></defs><path d="M 0 0 L 270 270 M 270 0 L 0 270 M 135 0 L 135 270 M 0 135 L 270 135" stroke="#CCCCCC" /><path d="M 72 110 Q 63 112 56 114 Q 44 118 31 113 Q 25 109 33 107 Q 51 104 72 98 L 85 93 Q 90 90 97 91 Q 105 93 106 95 Q 108 98 105 100 Q 104 101 95 104 Q 89 105 84 107" fill="#CCCCCC"/><path d="M 71 126 L 72 110 L 72 98 Q 72 60 72 55 Q 72 47 66 40 Q 62 34 67 32 Q 72 30 80 35 Q 94 41 90 49 Q 85 67 85 93 L 84 107 Q 83 123 83 139 L 83 147 Q 83 177 85 207 Q 86 227 81 238 Q 77 247 73 247 Q 69 247 65 238 L 66 215 Q 69 212 69 206 Q 70 179 70 158 L 71 147" fill="#CCCCCC"/><path d="M 65 238 Q 61 231 46 218 Q 41 214 41 212 Q 40 209 48 213 Q 64 216 66 215" fill="#CCCCCC"/><path d="M 83 139 Q 97 128 101 128 Q 104 128 102 131 Q 100 135 95 138 Q 89 142 83 147 L 70 158 Q 51 174 34 192 Q 32 195 28 194 Q 22 192 17 188 Q 13 185 13 183 Q 14 179 19 179 Q 22 176 71 147" fill="#CCCCCC"/><path d="M 153 62 Q 128 90 121 91 Q 118 92 119 89 Q 119 88 121 85 Q 131 72 139 61 Q 153 35 150 27 Q 148 22 153 22 Q 157 22 163 26 Q 170 32 171 35 Q 172 38 169 40 Q 166 43 157 57" fill="#CCCCCC"/><path d="M 181 62 Q 181 62 179 62 Q 158 64 153 62 L 157 57 Q 162 57 166 56 Q 185 52 187 51 Q 191 49 195 51 Q 203 56 206 60" fill="#CCCCCC"/><path d="M 161 101 Q 162 99 164 96 Q 170 87 181 66 Q 182 64 181 62 L 206 60 Q 209 63 204 65 Q 194 71 184 83 Q 173 94 168 99" fill="#CCCCCC"/><path d="M 130 116 Q 130 116 130 116 Q 130 135 132 146 L 132 148 Q 132 156 134 165 L 125 166 Q 119 133 117 125 Q 115 118 110 110 Q 108 107 110 105 Q 112 104 115 105 Q 120 106 124 108" fill="#CCCCCC"/><path d="M 205 101 Q 201 99 176 104 L 168 106 Q 149 111 130 116 L 124 108 Q 143 104 161 101 L 168 99 Q 187 95 205 90 Q 209 89 213 90 Q 228 97 230 101" fill="#CCCCCC"/><path d="M 204 131 Q 206 118 207 108 Q 208 102 205 101 L 230 101 Q 231 104 229 106 Q 221 120 215 153 L 200 156 Q 201 149 202 142" fill="#CCCCCC"/><path d="M 132 146 Q 147 128 146 119 Q 145 117 147 117 Q 148 116 152 117 Q 158 120 159 123 Q 159 125 158 126 Q 158 126 157 127 Q 140 148 132 148" fill="#CCCCCC"/><path d="M 180 141 Q 169 138 170 126 Q 171 111 168 106 L 176 104 Q 184 109 181 113 Q 178 118 178 126 Q 179 131 181 133" fill="#CCCCCC"/><path d="M 204 131 L 204 131 L 202 142 Q 189 144 180 141 L 181 133 Q 188 136 197 132 Q 201 130 204 131" fill="#CCCCCC"/><path d="M 151 171 Q 130 174 113 179 Q 109 180 104 178 Q 100 177 96 174 Q 93 170 98 169 Q 111 167 125 166 L 134 165 Q 143 164 153 163 L 172 160 Q 187 158 200 156 L 215 153 Q 219 152 224 152 Q 238 147 252 157 Q 256 160 255 163 Q 254 165 249 165 Q 194 165 169 168" fill="#CCCCCC"/><path d="M 162 182 L 160 187 Q 149 213 127 224 Q 108 235 95 232 Q 92 231 96 229 Q 100 227 105 225 Q 142 209 151 171 L 153 163 Q 154 158 153 153 Q 152 149 155 149 Q 162 148 171 159 Q 171 159 172 160 L 169 168 Q 168 170 167 171 L 164 177" fill="#CCCCCC"/><path d="M 167 171 Q 183 187 197 200 Q 218 217 252 229 Q 256 231 256 233 Q 256 234 253 234 Q 245 236 220 237 Q 212 237 208 233 Q 183 204 164 177" fill="#CCCCCC"/><path d="M 72 110 Q 63 112 56 114 Q 44 118 31 113 Q 25 109 33 107 Q 51 104 72 98 L 85 93 Q 90 90 97 91 Q 105 93 106 95 Q 108 98 105 100 Q 104 101 95 104 Q 89 105 84 107" fill="#0000ff" clip-path="url(#clip-mask-1)" /><path d="M 71 126 L 72 110 L 72 98 Q 72 60 72 55 Q 72 47 66 40 Q 62 34 67 32 Q 72 30 80 35 Q 94 41 90 49 Q 85 67 85 93 L 84 107 Q 83 123 83 139 L 83 147 Q 83 177 85 207 Q 86 227 81 238 Q 77 247 73 247 Q 69 247 65 238 L 66 215 Q 69 212 69 206 Q 70 179 70 158 L 71 147" fill="#0000ff" clip-path="url(#clip-mask-2)" /><path d="M 65 238 Q 61 231 46 218 Q 41 214 41 212 Q 40 209 48 213 Q 64 216 66 215" fill="#0000ff" clip-path="url(#clip-mask-3)" /><path d="M 83 139 Q 97 128 101 128 Q 104 128 102 131 Q 100 135 95 138 Q 89 142 83 147 L 70 158 Q 51 174 34 192 Q 32 195 28 194 Q 22 192 17 188 Q 13 185 13 183 Q 14 179 19 179 Q 22 176 71 147" fill="#0000ff" clip-path="url(#clip-mask-4)" /><path d="M 153 62 Q 128 90 121 91 Q 118 92 119 89 Q 119 88 121 85 Q 131 72 139 61 Q 153 35 150 27 Q 148 22 153 22 Q 157 22 163 26 Q 170 32 171 35 Q 172 38 169 40 Q 166 43 157 57" fill="#000080" clip-path="url(#clip-mask-5)" /><path d="M 181 62 Q 181 62 179 62 Q 158 64 153 62 L 157 57 Q 162 57 166 56 Q 185 52 187 51 Q 191 49 195 51 Q 203 56 206 60" fill="#000080" clip-path="url(#clip-mask-6)" /><path d="M 161 101 Q 162 99 164 96 Q 170 87 181 66 Q 182 64 181 62 L 206 60 Q 209 63 204 65 Q 194 71 184 83 Q 173 94 168 99" fill="#000080" clip-path="url(#clip-mask-7)" /><path d="M 130 116 Q 130 116 130 116 Q 130 135 132 146 L 132 148 Q 132 156 134 165 L 125 166 Q 119 133 117 125 Q 115 118 110 110 Q 108 107 110 105 Q 112 104 115 105 Q 120 106 124 108" fill="#000080" clip-path="url(#clip-mask-8)" /><path d="M 205 101 Q 201 99 176 104 L 168 106 Q 149 111 130 116 L 124 108 Q 143 104 161 101 L 168 99 Q 187 95 205 90 Q 209 89 213 90 Q 228 97 230 101" fill="#000080" clip-path="url(#clip-mask-9)" /><path d="M 204 131 Q 206 118 207 108 Q 208 102 205 101 L 230 101 Q 231 104 229 106 Q 221 120 215 153 L 200 156 Q 201 149 202 142" fill="#000080" clip-path="url(#clip-mask-10)" /><path d="M 132 146 Q 147 128 146 119 Q 145 117 147 117 Q 148 116 152 117 Q 158 120 159 123 Q 159 125 158 126 Q 158 126 157 127 Q 140 148 132 148" fill="#000080" clip-path="url(#clip-mask-11)" /><path d="M 180 141 Q 169 138 170 126 Q 171 111 168 106 L 176 104 Q 184 109 181 113 Q 178 118 178 126 Q 179 131 181 133" fill="#000080" clip-path="url(#clip-mask-12)" /><path d="M 204 131 L 204 131 L 202 142 Q 189 144 180 141 L 181 133 Q 188 136 197 132 Q 201 130 204 131" fill="#000080" clip-path="url(#clip-mask-13)" /><path d="M 151 171 Q 130 174 113 179 Q 109 180 104 178 Q 100 177 96 174 Q 93 170 98 169 Q 111 167 125 166 L 134 165 Q 143 164 153 163 L 172 160 Q 187 158 200 156 L 215 153 Q 219 152 224 152 Q 238 147 252 157 Q 256 160 255 163 Q 254 165 249 165 Q 194 165 169 168" fill="#000080" clip-path="url(#clip-mask-14)" /><path d="M 162 182 L 160 187 Q 149 213 127 224 Q 108 235 95 232 Q 92 231 96 229 Q 100 227 105 225 Q 142 209 151 171 L 153 163 Q 154 158 153 153 Q 152 149 155 149 Q 162 148 171 159 Q 171 159 172 160 L 169 168 Q 168 170 167 171 L 164 177" fill="#000080" clip-path="url(#clip-mask-15)" /><path d="M 167 171 Q 183 187 197 200 Q 218 217 252 229 Q 256 231 256 233 Q 256 234 253 234 Q 245 236 220 237 Q 212 237 208 233 Q 183 204 164 177" fill="#000080" clip-path="url(#clip-mask-16)" /></svg>