<svg xmlns="http://www.w3.org/2000/svg" xmlns:xlink="http://www.w3.org/1999/xlink" width="270" height="270"><defs><clipPath id="clip-mask-1"><rect x="29" y="83" width="81" height="26"><animate attributeName="x" from="-52" to="29" dur="0.300" begin="0; animate15.end + 1" id="animate1" fill="freeze"/></rect></clipPath><clipPath id="clip-mask-2"><rect x="64" y="26" width="32" height="225"><set attributeName="y" to="-199" begin="0; animate15.end + 1" /><animate attributeName="y" from="-199" to="26" dur="0.833" begin="animate1.end + 0.5" id="animate2" fill="freeze"/></rect></clipPath><clipPath id="clip-mask-3"><rect x="41" y="213" width="28" height="29"><set attributeName="x" to="69" begin="0; animate15.end + 1" /><animate attributeName="x" from="69" to="41" dur="0.104" begin="animate2.end" id="animate3" fill="freeze"/></rect></clipPath><clipPath id="clip-mask-4"><rect x="14" y="124" width="92" height="65"><set attributeName="x" to="-78" begin="0; animate15.end + 1" /><animate attributeName="x" from="-78" to="14" dur="0.341" begin="animate3.end + 0.5" id="animate4" fill="freeze"/></rect></clipPath><clipPath id="clip-mask-5"><rect x="109" y="47" width="123" height="29"><set attributeName="x" to="-14" begin="0; animate15.end + 1" /><animate attributeName="x" from="-14" to="109" dur="0.456" begin="animate4.end + 0.5" id="animate5" fill="freeze"/></rect></clipPath><clipPath id="clip-mask-6"><rect x="128" y="34" width="26" height="55"><set attributeName="y" to="-21" begin="0; animate15.end + 1" /><animate attributeName="y" from="-21" to="34" dur="0.204" begin="animate5.end + 0.5" id="animate6" fill="freeze"/></rect></clipPath><clipPath id="clip-mask-7"><rect x="177" y="18" width="33" height="72"><set attributeName="y" to="-54" begin="0; animate15.end + 1" /><animate attributeName="y" from="-54" to="18" dur="0.267" begin="animate6.end + 0.5" id="animate7" fill="freeze"/></rect></clipPath><clipPath id="clip-mask-8"><rect x="116" y="98" width="25" height="67"><set attributeName="y" to="31" begin="0; animate15.end + 1" /><animate attributeName="y" from="31" to="98" dur="0.248" begin="animate7.end + 0.5" id="animate8" fill="freeze"/></rect></clipPath><clipPath id="clip-mask-9"><rect x="131" y="86" width="92" height="23"><set attributeName="x" to="39" begin="0; animate15.end + 1" /><animate attributeName="x" from="39" to="131" dur="0.341" begin="animate8.end + 0.5" id="animate9" fill="freeze"/></rect></clipPath><clipPath id="clip-mask-10"><rect x="187" y="99" width="39" height="58"><set attributeName="y" to="41" begin="0; animate15.end + 1" /><animate attributeName="y" from="41" to="99" dur="0.215" begin="animate9.end" id="animate10" fill="freeze"/></rect></clipPath><clipPath id="clip-mask-11"><rect x="137" y="116" width="50" height="15"><set attributeName="x" to="87" begin="0; animate15.end + 1" /><animate attributeName="x" from="87" to="137" dur="0.185" begin="animate10.end + 0.5" id="animate11" fill="freeze"/></rect></clipPath><clipPath id="clip-mask-12"><rect x="140" y="138" width="48" height="15"><set attributeName="x" to="92" begin="0; animate15.end + 1" /><animate attributeName="x" from="92" to="140" dur="0.178" begin="animate11.end + 0.5" id="animate12" fill="freeze"/></rect></clipPath><clipPath id="clip-mask-13"><rect x="97" y="162" width="156" height="31"><set attributeName="x" to="-59" begin="0; animate15.end + 1" /><animate attributeName="x" from="-59" to="97" dur="0.578" begin="animate12.end + 0.5" id="animate13" fill="freeze"/></rect></clipPath><clipPath id="clip-mask-14"><rect x="90" y="151" width="85" height="89"><set attributeName="y" to="62" begin="0; animate15.end + 1" /><animate attributeName="y" from="62" to="151" dur="0.330" begin="animate13.end + 0.5" id="animate14" fill="freeze"/></rect></clipPath><clipPath id="clip-mask-15"><rect x="164" y="184" width="91" height="66"><set attributeName="x" to="73" begin="0; animate15.end + 1" /><animate attributeName="x" from="73" to="164" dur="0.337" begin="animate14.end + 0.5" id="animate15" fill="freeze"/></rect></clipPath></defs><path d="M 0 0 L 270 270 M 270 0 L 0 270 M 135 0 L 135 270 M 0 135 L 270 135" stroke="#CCCCCC" /><path d="M 74 102 Q 69 103 65 104 Q 45 109 35 105 Q 29 101 37 99 Q 38 98 74 90 L 87 86 Q 93 83 100 84 Q 107 85 109 88 Q 110 90 108 92 Q 107 93 86 99" fill="#CCCCCC"/><path d="M 74 119 L 74 102 L 74 90 Q 74 55 74 51 Q 73 42 68 35 Q 64 30 69 28 Q 74 26 82 31 Q 96 37 92 44 Q 90 49 87 86 L 86 99 Q 85 116 85 134 L 85 142 Q 86 177 88 212 Q 88 231 83 242 Q 79 251 76 251 Q 72 250 67 242 L 69 219 Q 72 217 72 210 Q 73 178 73 152 L 73 141" fill="#CCCCCC"/><path d="M 67 242 Q 63 234 47 221 Q 42 217 42 215 Q 41 213 49 216 Q 68 220 69 219" fill="#CCCCCC"/><path d="M 85 134 Q 101 124 103 124 Q 106 124 104 127 Q 104 128 85 142 L 73 152 Q 56 164 35 186 Q 32 189 29 188 Q 23 186 18 182 Q 14 179 14 176 Q 15 174 18 173 Q 23 171 32 166 Q 51 153 73 141" fill="#CCCCCC"/><path d="M 182 65 Q 162 67 153 69 L 143 71 Q 141 72 141 72 Q 123 76 114 71 Q 109 68 116 66 Q 129 65 141 63 L 152 61 Q 169 58 184 55 L 199 52 Q 218 47 229 55 Q 232 59 231 61 Q 230 63 226 63 Q 206 62 195 64" fill="#CCCCCC"/><path d="M 153 69 Q 154 82 153 86 Q 152 89 148 86 Q 144 81 143 71 L 141 63 Q 135 47 131 42 Q 128 38 132 36 Q 137 34 147 39 Q 152 40 151 45 Q 152 52 152 61" fill="#CCCCCC"/><path d="M 185 84 L 182 87 Q 178 90 177 86 Q 177 81 182 65 L 184 55 Q 187 46 188 38 Q 189 31 186 25 Q 184 22 186 21 Q 191 18 195 21 Q 205 25 208 30 Q 210 32 207 36 Q 202 45 199 52 L 195 64" fill="#CCCCCC"/><path d="M 141 153 Q 141 157 140 161 Q 138 165 134 159 Q 130 153 129 146 Q 125 120 118 104 Q 116 100 118 99 Q 118 98 122 98 Q 128 100 131 101 L 135 109 Q 135 113 137 125 L 138 131 Q 139 136 140 144 Q 140 146 140 147" fill="#CCCCCC"/><path d="M 131 101 Q 182 90 187 90 Q 204 86 209 89 Q 219 96 223 100 L 199 99 Q 196 97 189 98 Q 154 103 135 109" fill="#CCCCCC"/><path d="M 223 100 Q 226 104 222 107 Q 216 113 214 121 Q 205 147 202 152 Q 198 157 195 155 Q 191 153 187 147 L 188 140 Q 191 139 193 136 Q 195 132 201 106 Q 201 103 199 99" fill="#CCCCCC"/><path d="M 137 125 Q 170 116 176 117 Q 182 118 185 122 Q 187 125 181 126 Q 165 127 143 131 Q 140 131 138 131" fill="#CCCCCC"/><path d="M 150 152 Q 148 153 146 153 Q 143 153 141 153 L 140 147 Q 183 138 187 139 Q 187 139 188 140 L 187 147 Q 175 148 162 151" fill="#CCCCCC"/><path d="M 152 186 Q 134 188 118 193 Q 113 193 108 192 Q 104 191 100 187 Q 97 184 102 183 Q 129 179 153 177 L 169 175 Q 170 174 171 174 Q 206 169 227 164 Q 236 162 249 172 Q 253 175 252 178 Q 251 180 246 180 Q 190 180 166 184" fill="#CCCCCC"/><path d="M 158 208 L 148 218 Q 147 219 146 221 Q 121 240 98 239 Q 90 238 97 235 Q 102 234 105 232 Q 146 213 152 186 L 153 177 Q 155 164 150 152 L 162 151 Q 163 151 164 151 Q 171 154 173 156 Q 175 159 173 161 Q 171 163 169 175 L 166 184 L 164 191" fill="#CCCCCC"/><path d="M 166 184 Q 177 193 186 200 Q 213 222 252 236 Q 255 238 255 239 Q 254 240 253 241 Q 215 250 207 243 Q 183 216 164 191" fill="#CCCCCC"/><path d="M 74 102 Q 69 103 65 104 Q 45 109 35 105 Q 29 101 37 99 Q 38 98 74 90 L 87 86 Q 93 83 100 84 Q 107 85 109 88 Q 110 90 108 92 Q 107 93 86 99" fill="#0000ff" clip-path="url(#clip-mask-1)" /><path d="M 74 119 L 74 102 L 74 90 Q 74 55 74 51 Q 73 42 68 35 Q 64 30 69 28 Q 74 26 82 31 Q 96 37 92 44 Q 90 49 87 86 L 86 99 Q 85 116 85 134 L 85 142 Q 86 177 88 212 Q 88 231 83 242 Q 79 251 76 251 Q 72 250 67 242 L 69 219 Q 72 217 72 210 Q 73 178 73 152 L 73 141" fill="#0000ff" clip-path="url(#clip-mask-2)" /><path d="M 67 242 Q 63 234 47 221 Q 42 217 42 215 Q 41 213 49 216 Q 68 220 69 219" fill="#0000ff" clip-path="url(#clip-mask-3)" /><path d="M 85 134 Q 101 124 103 124 Q 106 124 104 127 Q 104 128 85 142 L 73 152 Q 56 164 35 186 Q 32 189 29 188 Q 23 186 18 182 Q 14 179 14 176 Q 15 174 18 173 Q 23 171 32 166 Q 51 153 73 141" fill="#0000ff" clip-path="url(#clip-mask-4)" /><path d="M 182 65 Q 162 67 153 69 L 143 71 Q 141 72 141 72 Q 123 76 114 71 Q 109 68 116 66 Q 129 65 141 63 L 152 61 Q 169 58 184 55 L 199 52 Q 218 47 229 55 Q 232 59 231 61 Q 230 63 226 63 Q 206 62 195 64" fill="#000080" clip-path="url(#clip-mask-5)" /><path d="M 153 69 Q 154 82 153 86 Q 152 89 148 86 Q 144 81 143 71 L 141 63 Q 135 47 131 42 Q 128 38 132 36 Q 137 34 147 39 Q 152 40 151 45 Q 152 52 152 61" fill="#000080" clip-path="url(#clip-mask-6)" /><path d="M 185 84 L 182 87 Q 178 90 177 86 Q 177 81 182 65 L 184 55 Q 187 46 188 38 Q 189 31 186 25 Q 184 22 186 21 Q 191 18 195 21 Q 205 25 208 30 Q 210 32 207 36 Q 202 45 199 52 L 195 64" fill="#000080" clip-path="url(#clip-mask-7)" /><path d="M 141 153 Q 141 157 140 161 Q 138 165 134 159 Q 130 153 129 146 Q 125 120 118 104 Q 116 100 118 99 Q 118 98 122 98 Q 128 100 131 101 L 135 109 Q 135 113 137 125 L 138 131 Q 139 136 140 144 Q 140 146 140 147" fill="#000080" clip-path="url(#clip-mask-8)" /><path d="M 131 101 Q 182 90 187 90 Q 204 86 209 89 Q 219 96 223 100 L 199 99 Q 196 97 189 98 Q 154 103 135 109" fill="#000080" clip-path="url(#clip-mask-9)" /><path d="M 223 100 Q 226 104 222 107 Q 216 113 214 121 Q 205 147 202 152 Q 198 157 195 155 Q 191 153 187 147 L 188 140 Q 191 139 193 136 Q 195 132 201 106 Q 201 103 199 99" fill="#000080" clip-path="url(#clip-mask-10)" /><path d="M 137 125 Q 170 116 176 117 Q 182 118 185 122 Q 187 125 181 126 Q 165 127 143 131 Q 140 131 138 131" fill="#000080" clip-path="url(#clip-mask-11)" /><path d="M 150 152 Q 148 153 146 153 Q 143 153 141 153 L 140 147 Q 183 138 187 139 Q 187 139 188 140 L 187 147 Q 175 148 162 151" fill="#000080" clip-path="url(#clip-mask-12)" /><path d="M 152 186 Q 134 188 118 193 Q 113 193 108 192 Q 104 191 100 187 Q 97 184 102 183 Q 129 179 153 177 L 169 175 Q 170 174 171 174 Q 206 169 227 164 Q 236 162 249 172 Q 253 175 252 178 Q 251 180 246 180 Q 190 180 166 184" fill="#000080" clip-path="url(#clip-mask-13)" /><path d="M 158 208 L 148 218 Q 147 219 146 221 Q 121 240 98 239 Q 90 238 97 235 Q 102 234 105 232 Q 146 213 152 186 L 153 177 Q 155 164 150 152 L 162 151 Q 163 151 164 151 Q 171 154 173 156 Q 175 159 173 161 Q 171 163 169 175 L 166 184 L 164 191" fill="#000080" clip-path="url(#clip-mask-14)" /><path d="M 166 184 Q 177 193 186 200 Q 213 222 252 236 Q 255 238 255 239 Q 254 240 253 241 Q 215 250 207 243 Q 183 216 164 191" fill="#000080" clip-path="url(#clip-mask-15)" /></svg>