<svg xmlns="http://www.w3.org/2000/svg" xmlns:xlink="http://www.w3.org/1999/xlink" width="270" height="270"><defs><clipPath id="clip-mask-1"><rect x="16" y="96" width="69" height="23"><animate attributeName="x" from="-53" to="16" dur="0.256" begin="0; animate22.end + 1" id="animate1" fill="freeze"/></rect></clipPath><clipPath id="clip-mask-2"><rect x="49" y="27" width="30" height="215"><set attributeName="y" to="-188" begin="0; animate22.end + 1" /><animate attributeName="y" from="-188" to="27" dur="0.796" begin="animate1.end + 0.5" id="animate2" fill="freeze"/></rect></clipPath><clipPath id="clip-mask-3"><rect x="33" y="207" width="20" height="26"><set attributeName="x" to="53" begin="0; animate22.end + 1" /><animate attributeName="x" from="53" to="33" dur="0.074" begin="animate2.end" id="animate3" fill="freeze"/></rect></clipPath><clipPath id="clip-mask-4"><rect x="7" y="133" width="74" height="53"><set attributeName="x" to="-67" begin="0; animate22.end + 1" /><animate attributeName="x" from="-67" to="7" dur="0.274" begin="animate3.end + 0.5" id="animate4" fill="freeze"/></rect></clipPath><clipPath id="clip-mask-5"><rect x="104" y="50" width="43" height="23"><set attributeName="x" to="147" begin="0; animate22.end + 1" /><animate attributeName="x" from="147" to="104" dur="0.159" begin="animate4.end + 0.5" id="animate5" fill="freeze"/></rect></clipPath><clipPath id="clip-mask-6"><rect x="92" y="38" width="16" height="61"><set attributeName="y" to="-23" begin="0; animate22.end + 1" /><animate attributeName="y" from="-23" to="38" dur="0.226" begin="animate5.end + 0.5" id="animate6" fill="freeze"/></rect></clipPath><clipPath id="clip-mask-7"><rect x="104" y="86" width="48" height="23"><set attributeName="x" to="56" begin="0; animate22.end + 1" /><animate attributeName="x" from="56" to="104" dur="0.178" begin="animate6.end" id="animate7" fill="freeze"/></rect></clipPath><clipPath id="clip-mask-8"><rect x="127" y="72" width="23" height="19"><set attributeName="y" to="91" begin="0; animate22.end + 1" /><animate attributeName="y" from="91" to="72" dur="0.070" begin="animate7.end" id="animate8" fill="freeze"/></rect></clipPath><clipPath id="clip-mask-9"><rect x="81" y="105" width="33" height="44"><set attributeName="y" to="61" begin="0; animate22.end + 1" /><animate attributeName="y" from="61" to="105" dur="0.163" begin="animate8.end + 0.5" id="animate9" fill="freeze"/></rect></clipPath><clipPath id="clip-mask-10"><rect x="100" y="119" width="42" height="17"><set attributeName="x" to="58" begin="0; animate22.end + 1" /><animate attributeName="x" from="58" to="100" dur="0.156" begin="animate9.end + 0.5" id="animate10" fill="freeze"/></rect></clipPath><clipPath id="clip-mask-11"><rect x="75" y="147" width="68" height="25"><set attributeName="x" to="7" begin="0; animate22.end + 1" /><animate attributeName="x" from="7" to="75" dur="0.252" begin="animate10.end + 0.5" id="animate11" fill="freeze"/></rect></clipPath><clipPath id="clip-mask-12"><rect x="78" y="134" width="46" height="74"><set attributeName="y" to="60" begin="0; animate22.end + 1" /><animate attributeName="y" from="60" to="134" dur="0.274" begin="animate11.end + 0.5" id="animate12" fill="freeze"/></rect></clipPath><clipPath id="clip-mask-13"><rect x="116" y="166" width="19" height="17"><set attributeName="x" to="97" begin="0; animate22.end + 1" /><animate attributeName="x" from="97" to="116" dur="0.070" begin="animate12.end + 0.5" id="animate13" fill="freeze"/></rect></clipPath><clipPath id="clip-mask-14"><rect x="149" y="44" width="69" height="25"><set attributeName="x" to="80" begin="0; animate22.end + 1" /><animate attributeName="x" from="80" to="149" dur="0.256" begin="animate13.end + 0.5" id="animate14" fill="freeze"/></rect></clipPath><clipPath id="clip-mask-15"><rect x="183" y="57" width="37" height="28"><set attributeName="y" to="29" begin="0; animate22.end + 1" /><animate attributeName="y" from="29" to="57" dur="0.104" begin="animate14.end" id="animate15" fill="freeze"/></rect></clipPath><clipPath id="clip-mask-16"><rect x="162" y="76" width="31" height="25"><set attributeName="x" to="131" begin="0; animate22.end + 1" /><animate attributeName="x" from="131" to="162" dur="0.115" begin="animate15.end + 0.5" id="animate16" fill="freeze"/></rect></clipPath><clipPath id="clip-mask-17"><rect x="141" y="98" width="96" height="28"><set attributeName="x" to="45" begin="0; animate22.end + 1" /><animate attributeName="x" from="45" to="141" dur="0.356" begin="animate16.end + 0.5" id="animate17" fill="freeze"/></rect></clipPath><clipPath id="clip-mask-18"><rect x="204" y="112" width="33" height="18"><set attributeName="y" to="94" begin="0; animate22.end + 1" /><animate attributeName="y" from="94" to="112" dur="0.067" begin="animate17.end" id="animate18" fill="freeze"/></rect></clipPath><clipPath id="clip-mask-19"><rect x="174" y="116" width="16" height="73"><set attributeName="y" to="43" begin="0; animate22.end + 1" /><animate attributeName="y" from="43" to="116" dur="0.270" begin="animate18.end + 0.5" id="animate19" fill="freeze"/></rect></clipPath><clipPath id="clip-mask-20"><rect x="189" y="147" width="34" height="13"><set attributeName="x" to="155" begin="0; animate22.end + 1" /><animate attributeName="x" from="155" to="189" dur="0.126" begin="animate19.end + 0.5" id="animate20" fill="freeze"/></rect></clipPath><clipPath id="clip-mask-21"><rect x="116" y="145" width="52" height="74"><set attributeName="y" to="71" begin="0; animate22.end + 1" /><animate attributeName="y" from="71" to="145" dur="0.274" begin="animate20.end + 0.5" id="animate21" fill="freeze"/></rect></clipPath><clipPath id="clip-mask-22"><rect x="159" y="172" width="103" height="53"><set attributeName="x" to="56" begin="0; animate22.end + 1" /><animate attributeName="x" from="56" to="159" dur="0.381" begin="animate21.end + 0.5" id="animate22" fill="freeze"/></rect></clipPath></defs><path d="M 0 0 L 270 270 M 270 0 L 0 270 M 135 0 L 135 270 M 0 135 L 270 135" stroke="#CCCCCC" /><path d="M 58 112 Q 54 113 50 114 Q 32 119 22 114 Q 16 111 25 109 Q 38 107 58 100 L 70 96 Q 73 96 75 96 Q 82 97 84 100 Q 85 102 83 104 Q 82 105 75 107 Q 72 108 69 109" fill="#CCCCCC"/><path d="M 58 127 L 58 112 L 58 100 Q 58 55 58 50 Q 58 42 53 35 Q 49 30 53 28 Q 58 27 66 31 Q 79 37 75 44 Q 71 56 70 96 L 69 109 Q 69 123 69 139 L 69 145 Q 70 175 72 205 Q 71 223 67 234 Q 63 242 59 242 Q 56 241 53 233 L 53 211 Q 56 209 57 203 Q 57 176 57 155 L 57 145" fill="#CCCCCC"/><path d="M 53 233 Q 50 227 38 215 Q 33 211 33 209 Q 33 207 40 210 Q 52 212 53 211" fill="#CCCCCC"/><path d="M 69 139 Q 74 134 78 133 Q 81 134 79 136 Q 79 137 69 145 L 57 155 Q 44 164 30 179 Q 22 186 19 186 Q 14 184 10 180 Q 7 177 7 175 Q 8 173 11 172 Q 12 171 57 145" fill="#CCCCCC"/><path d="M 129 58 L 129 52 Q 129 50 131 50 Q 136 50 143 55 Q 146 57 146 59 Q 147 60 144 61 Q 141 62 139 63 Q 122 72 104 73 L 104 69" fill="#CCCCCC"/><path d="M 104 73 Q 104 82 106 86 L 104 99 Q 94 93 96 58 Q 96 51 94 43 Q 92 40 94 39 Q 95 38 98 39 Q 103 40 105 43 Q 108 45 107 48 Q 105 60 104 69" fill="#CCCCCC"/><path d="M 106 86 Q 107 88 110 90 Q 119 93 127 91 L 150 89 Q 152 94 149 97 Q 132 109 110 102 Q 106 100 104 99" fill="#CCCCCC"/><path d="M 127 91 Q 133 89 141 75 Q 143 72 144 73 Q 145 74 145 77 Q 148 86 150 89" fill="#CCCCCC"/><path d="M 100 135 Q 89 148 83 148 Q 81 149 82 147 Q 83 146 84 145 Q 101 123 98 108 Q 98 106 100 105 Q 103 105 112 109 Q 114 112 112 114 Q 109 119 106 126 Q 104 128 103 130" fill="#CCCCCC"/><path d="M 107 136 Q 103 136 100 135 L 103 130 Q 108 128 115 126 Q 130 119 134 120 Q 140 120 141 122 Q 142 123 141 125 Q 140 125 118 134" fill="#CCCCCC"/><path d="M 108 163 Q 101 165 92 169 Q 86 172 78 167 Q 75 165 75 163 Q 76 162 109 155 L 120 152 Q 135 147 140 149 Q 143 150 143 152 Q 143 153 140 154 Q 128 157 119 159" fill="#CCCCCC"/><path d="M 110 188 L 102 195 Q 89 208 80 208 Q 78 207 80 206 Q 83 203 85 201 Q 86 200 87 200 Q 106 181 108 163 L 109 155 Q 110 141 107 136 L 118 134 Q 120 135 121 136 Q 124 137 123 141 Q 121 145 120 150 Q 120 151 120 152 L 119 159 Q 118 163 117 166 L 116 171" fill="#CCCCCC"/><path d="M 117 166 Q 118 166 119 166 Q 124 167 128 169 Q 133 172 134 174 Q 135 179 135 181 Q 134 183 132 183 Q 130 183 120 174 Q 117 172 116 171" fill="#CCCCCC"/><path d="M 195 57 Q 193 55 189 56 Q 173 64 170 65 Q 162 69 156 66 Q 152 63 150 60 Q 149 56 154 56 Q 164 57 182 51 Q 200 44 204 47 Q 218 54 218 58" fill="#CCCCCC"/><path d="M 190 71 L 196 61 Q 198 59 195 57 L 218 58 Q 220 61 216 63 Q 205 66 187 85 L 183 82 Q 183 82 183 82" fill="#CCCCCC"/><path d="M 187 85 Q 190 87 191 89 Q 193 95 193 98 Q 192 100 190 101 Q 187 101 184 99 Q 163 81 163 81 Q 162 79 163 78 Q 166 76 183 82" fill="#CCCCCC"/><path d="M 174 119 Q 167 121 161 123 Q 150 126 146 122 Q 141 117 147 116 Q 167 112 181 108 Q 194 105 208 100 Q 215 98 220 101 Q 237 109 237 112 L 210 112 Q 209 109 202 111 Q 192 113 184 116" fill="#CCCCCC"/><path d="M 237 112 Q 237 115 232 115 Q 226 118 210 127 Q 207 130 206 129 Q 204 128 206 125 Q 210 115 210 112" fill="#CCCCCC"/><path d="M 178 183 Q 177 127 176 121 Q 175 120 174 119 L 184 116 Q 187 118 190 121 L 190 121 Q 190 122 190 153 L 189 160 Q 189 174 188 189" fill="#CCCCCC"/><path d="M 190 153 Q 197 147 211 147 Q 217 148 221 152 Q 223 156 217 157 Q 207 158 192 160 Q 190 160 189 160" fill="#CCCCCC"/><path d="M 150 196 L 140 205 Q 124 219 118 218 Q 116 217 118 216 Q 130 203 135 195 Q 135 195 136 195 Q 153 169 149 150 Q 148 146 151 145 Q 153 145 158 147 Q 166 150 167 152 Q 167 153 168 153 Q 167 154 161 172 L 159 178" fill="#CCCCCC"/><path d="M 161 172 Q 166 175 174 181 Q 176 182 178 183 L 188 189 Q 214 203 233 207 Q 247 209 259 212 Q 262 213 262 215 Q 262 216 257 217 Q 240 223 222 224 Q 212 225 206 219 Q 181 200 159 178" fill="#CCCCCC"/><path d="M 58 112 Q 54 113 50 114 Q 32 119 22 114 Q 16 111 25 109 Q 38 107 58 100 L 70 96 Q 73 96 75 96 Q 82 97 84 100 Q 85 102 83 104 Q 82 105 75 107 Q 72 108 69 109" fill="#0000ff" clip-path="url(#clip-mask-1)" /><path d="M 58 127 L 58 112 L 58 100 Q 58 55 58 50 Q 58 42 53 35 Q 49 30 53 28 Q 58 27 66 31 Q 79 37 75 44 Q 71 56 70 96 L 69 109 Q 69 123 69 139 L 69 145 Q 70 175 72 205 Q 71 223 67 234 Q 63 242 59 242 Q 56 241 53 233 L 53 211 Q 56 209 57 203 Q 57 176 57 155 L 57 145" fill="#0000ff" clip-path="url(#clip-mask-2)" /><path d="M 53 233 Q 50 227 38 215 Q 33 211 33 209 Q 33 207 40 210 Q 52 212 53 211" fill="#0000ff" clip-path="url(#clip-mask-3)" /><path d="M 69 139 Q 74 134 78 133 Q 81 134 79 136 Q 79 137 69 145 L 57 155 Q 44 164 30 179 Q 22 186 19 186 Q 14 184 10 180 Q 7 177 7 175 Q 8 173 11 172 Q 12 171 57 145" fill="#0000ff" clip-path="url(#clip-mask-4)" /><path d="M 129 58 L 129 52 Q 129 50 131 50 Q 136 50 143 55 Q 146 57 146 59 Q 147 60 144 61 Q 141 62 139 63 Q 122 72 104 73 L 104 69" fill="#000080" clip-path="url(#clip-mask-5)" /><path d="M 104 73 Q 104 82 106 86 L 104 99 Q 94 93 96 58 Q 96 51 94 43 Q 92 40 94 39 Q 95 38 98 39 Q 103 40 105 43 Q 108 45 107 48 Q 105 60 104 69" fill="#000080" clip-path="url(#clip-mask-6)" /><path d="M 106 86 Q 107 88 110 90 Q 119 93 127 91 L 150 89 Q 152 94 149 97 Q 132 109 110 102 Q 106 100 104 99" fill="#000080" clip-path="url(#clip-mask-7)" /><path d="M 127 91 Q 133 89 141 75 Q 143 72 144 73 Q 145 74 145 77 Q 148 86 150 89" fill="#000080" clip-path="url(#clip-mask-8)" /><path d="M 100 135 Q 89 148 83 148 Q 81 149 82 147 Q 83 146 84 145 Q 101 123 98 108 Q 98 106 100 105 Q 103 105 112 109 Q 114 112 112 114 Q 109 119 106 126 Q 104 128 103 130" fill="#000080" clip-path="url(#clip-mask-9)" /><path d="M 107 136 Q 103 136 100 135 L 103 130 Q 108 128 115 126 Q 130 119 134 120 Q 140 120 141 122 Q 142 123 141 125 Q 140 125 118 134" fill="#000080" clip-path="url(#clip-mask-10)" /><path d="M 108 163 Q 101 165 92 169 Q 86 172 78 167 Q 75 165 75 163 Q 76 162 109 155 L 120 152 Q 135 147 140 149 Q 143 150 143 152 Q 143 153 140 154 Q 128 157 119 159" fill="#000080" clip-path="url(#clip-mask-11)" /><path d="M 110 188 L 102 195 Q 89 208 80 208 Q 78 207 80 206 Q 83 203 85 201 Q 86 200 87 200 Q 106 181 108 163 L 109 155 Q 110 141 107 136 L 118 134 Q 120 135 121 136 Q 124 137 123 141 Q 121 145 120 150 Q 120 151 120 152 L 119 159 Q 118 163 117 166 L 116 171" fill="#000080" clip-path="url(#clip-mask-12)" /><path d="M 117 166 Q 118 166 119 166 Q 124 167 128 169 Q 133 172 134 174 Q 135 179 135 181 Q 134 183 132 183 Q 130 183 120 174 Q 117 172 116 171" fill="#000080" clip-path="url(#clip-mask-13)" /><path d="M 195 57 Q 193 55 189 56 Q 173 64 170 65 Q 162 69 156 66 Q 152 63 150 60 Q 149 56 154 56 Q 164 57 182 51 Q 200 44 204 47 Q 218 54 218 58" fill="#000080" clip-path="url(#clip-mask-14)" /><path d="M 190 71 L 196 61 Q 198 59 195 57 L 218 58 Q 220 61 216 63 Q 205 66 187 85 L 183 82 Q 183 82 183 82" fill="#000080" clip-path="url(#clip-mask-15)" /><path d="M 187 85 Q 190 87 191 89 Q 193 95 193 98 Q 192 100 190 101 Q 187 101 184 99 Q 163 81 163 81 Q 162 79 163 78 Q 166 76 183 82" fill="#000080" clip-path="url(#clip-mask-16)" /><path d="M 174 119 Q 167 121 161 123 Q 150 126 146 122 Q 141 117 147 116 Q 167 112 181 108 Q 194 105 208 100 Q 215 98 220 101 Q 237 109 237 112 L 210 112 Q 209 109 202 111 Q 192 113 184 116" fill="#000080" clip-path="url(#clip-mask-17)" /><path d="M 237 112 Q 237 115 232 115 Q 226 118 210 127 Q 207 130 206 129 Q 204 128 206 125 Q 210 115 210 112" fill="#000080" clip-path="url(#clip-mask-18)" /><path d="M 178 183 Q 177 127 176 121 Q 175 120 174 119 L 184 116 Q 187 118 190 121 L 190 121 Q 190 122 190 153 L 189 160 Q 189 174 188 189" fill="#000080" clip-path="url(#clip-mask-19)" /><path d="M 190 153 Q 197 147 211 147 Q 217 148 221 152 Q 223 156 217 157 Q 207 158 192 160 Q 190 160 189 160" fill="#000080" clip-path="url(#clip-mask-20)" /><path d="M 150 196 L 140 205 Q 124 219 118 218 Q 116 217 118 216 Q 130 203 135 195 Q 135 195 136 195 Q 153 169 149 150 Q 148 146 151 145 Q 153 145 158 147 Q 166 150 167 152 Q 167 153 168 153 Q 167 154 161 172 L 159 178" fill="#000080" clip-path="url(#clip-mask-21)" /><path d="M 161 172 Q 166 175 174 181 Q 176 182 178 183 L 188 189 Q 214 203 233 207 Q 247 209 259 212 Q 262 213 262 215 Q 262 216 257 217 Q 240 223 222 224 Q 212 225 206 219 Q 181 200 159 178" fill="#000080" clip-path="url(#clip-mask-22)" /></svg>