<svg xmlns="http://www.w3.org/2000/svg" xmlns:xlink="http://www.w3.org/1999/xlink" width="270" height="270"><defs><clipPath id="clip-mask-1"><rect x="16" y="83" width="76" height="27"><animate attributeName="x" from="-60" to="16" dur="0.281" begin="0; animate29.end + 1" id="animate1" fill="freeze"/></rect></clipPath><clipPath id="clip-mask-2"><rect x="51" y="18" width="31" height="224"><set attributeName="y" to="-206" begin="0; animate29.end + 1" /><animate attributeName="y" from="-206" to="18" dur="0.830" begin="animate1.end + 0.5" id="animate2" fill="freeze"/></rect></clipPath><clipPath id="clip-mask-3"><rect x="33" y="207" width="25" height="27"><set attributeName="x" to="58" begin="0; animate29.end + 1" /><animate attributeName="x" from="58" to="33" dur="0.093" begin="animate2.end" id="animate3" fill="freeze"/></rect></clipPath><clipPath id="clip-mask-4"><rect x="12" y="125" width="72" height="55"><set attributeName="x" to="-60" begin="0; animate29.end + 1" /><animate attributeName="x" from="-60" to="12" dur="0.267" begin="animate3.end + 0.5" id="animate4" fill="freeze"/></rect></clipPath><clipPath id="clip-mask-5"><rect x="110" y="26" width="26" height="25"><set attributeName="y" to="1" begin="0; animate29.end + 1" /><animate attributeName="y" from="1" to="26" dur="0.093" begin="animate4.end + 0.5" id="animate5" fill="freeze"/></rect></clipPath><clipPath id="clip-mask-6"><rect x="96" y="46" width="28" height="58"><set attributeName="y" to="-12" begin="0; animate29.end + 1" /><animate attributeName="y" from="-12" to="46" dur="0.215" begin="animate5.end + 0.5" id="animate6" fill="freeze"/></rect></clipPath><clipPath id="clip-mask-7"><rect x="117" y="58" width="22" height="10"><set attributeName="x" to="95" begin="0; animate29.end + 1" /><animate attributeName="x" from="95" to="117" dur="0.081" begin="animate6.end + 0.5" id="animate7" fill="freeze"/></rect></clipPath><clipPath id="clip-mask-8"><rect x="120" y="76" width="22" height="10"><set attributeName="x" to="98" begin="0; animate29.end + 1" /><animate attributeName="x" from="98" to="120" dur="0.081" begin="animate7.end + 0.5" id="animate8" fill="freeze"/></rect></clipPath><clipPath id="clip-mask-9"><rect x="140" y="12" width="41" height="44"><set attributeName="y" to="-32" begin="0; animate29.end + 1" /><animate attributeName="y" from="-32" to="12" dur="0.163" begin="animate8.end + 0.5" id="animate9" fill="freeze"/></rect></clipPath><clipPath id="clip-mask-10"><rect x="140" y="29" width="36" height="25"><set attributeName="x" to="104" begin="0; animate29.end + 1" /><animate attributeName="x" from="104" to="140" dur="0.133" begin="animate9.end + 0.5" id="animate10" fill="freeze"/></rect></clipPath><clipPath id="clip-mask-11"><rect x="142" y="55" width="37" height="38"><set attributeName="y" to="17" begin="0; animate29.end + 1" /><animate attributeName="y" from="17" to="55" dur="0.141" begin="animate10.end + 0.5" id="animate11" fill="freeze"/></rect></clipPath><clipPath id="clip-mask-12"><rect x="145" y="67" width="33" height="22"><set attributeName="x" to="112" begin="0; animate29.end + 1" /><animate attributeName="x" from="112" to="145" dur="0.122" begin="animate11.end + 0.5" id="animate12" fill="freeze"/></rect></clipPath><clipPath id="clip-mask-13"><rect x="185" y="23" width="45" height="15"><set attributeName="x" to="140" begin="0; animate29.end + 1" /><animate attributeName="x" from="140" to="185" dur="0.167" begin="animate12.end + 0.5" id="animate13" fill="freeze"/></rect></clipPath><clipPath id="clip-mask-14"><rect x="200" y="34" width="31" height="54"><set attributeName="y" to="-20" begin="0; animate29.end + 1" /><animate attributeName="y" from="-20" to="34" dur="0.200" begin="animate13.end" id="animate14" fill="freeze"/></rect></clipPath><clipPath id="clip-mask-15"><rect x="182" y="42" width="28" height="11"><set attributeName="x" to="154" begin="0; animate29.end + 1" /><animate attributeName="x" from="154" to="182" dur="0.104" begin="animate14.end + 0.5" id="animate15" fill="freeze"/></rect></clipPath><clipPath id="clip-mask-16"><rect x="180" y="63" width="26" height="10"><set attributeName="x" to="154" begin="0; animate29.end + 1" /><animate attributeName="x" from="154" to="180" dur="0.096" begin="animate15.end + 0.5" id="animate16" fill="freeze"/></rect></clipPath><clipPath id="clip-mask-17"><rect x="88" y="96" width="17" height="45"><set attributeName="y" to="51" begin="0; animate29.end + 1" /><animate attributeName="y" from="51" to="96" dur="0.167" begin="animate16.end + 0.5" id="animate17" fill="freeze"/></rect></clipPath><clipPath id="clip-mask-18"><rect x="104" y="82" width="148" height="33"><set attributeName="x" to="-44" begin="0; animate29.end + 1" /><animate attributeName="x" from="-44" to="104" dur="0.548" begin="animate17.end + 0.5" id="animate18" fill="freeze"/></rect></clipPath><clipPath id="clip-mask-19"><rect x="214" y="98" width="39" height="22"><set attributeName="y" to="76" begin="0; animate29.end + 1" /><animate attributeName="y" from="76" to="98" dur="0.081" begin="animate18.end" id="animate19" fill="freeze"/></rect></clipPath><clipPath id="clip-mask-20"><rect x="117" y="119" width="17" height="73"><set attributeName="y" to="46" begin="0; animate29.end + 1" /><animate attributeName="y" from="46" to="119" dur="0.270" begin="animate19.end + 0.5" id="animate20" fill="freeze"/></rect></clipPath><clipPath id="clip-mask-21"><rect x="127" y="108" width="73" height="20"><set attributeName="x" to="54" begin="0; animate29.end + 1" /><animate attributeName="x" from="54" to="127" dur="0.270" begin="animate20.end + 0.5" id="animate21" fill="freeze"/></rect></clipPath><clipPath id="clip-mask-22"><rect x="180" y="118" width="22" height="70"><set attributeName="y" to="48" begin="0; animate29.end + 1" /><animate attributeName="y" from="48" to="118" dur="0.259" begin="animate21.end" id="animate22" fill="freeze"/></rect></clipPath><clipPath id="clip-mask-23"><rect x="132" y="133" width="40" height="14"><set attributeName="x" to="92" begin="0; animate29.end + 1" /><animate attributeName="x" from="92" to="132" dur="0.148" begin="animate22.end + 0.5" id="animate23" fill="freeze"/></rect></clipPath><clipPath id="clip-mask-24"><rect x="133" y="150" width="39" height="15"><set attributeName="x" to="94" begin="0; animate29.end + 1" /><animate attributeName="x" from="94" to="133" dur="0.144" begin="animate23.end + 0.5" id="animate24" fill="freeze"/></rect></clipPath><clipPath id="clip-mask-25"><rect x="132" y="168" width="50" height="17"><set attributeName="x" to="82" begin="0; animate29.end + 1" /><animate attributeName="x" from="82" to="132" dur="0.185" begin="animate24.end + 0.5" id="animate25" fill="freeze"/></rect></clipPath><clipPath id="clip-mask-26"><rect x="87" y="187" width="65" height="63"><set attributeName="y" to="124" begin="0; animate29.end + 1" /><animate attributeName="y" from="124" to="187" dur="0.233" begin="animate25.end + 0.5" id="animate26" fill="freeze"/></rect></clipPath><clipPath id="clip-mask-27"><rect x="161" y="180" width="18" height="61"><set attributeName="y" to="119" begin="0; animate29.end + 1" /><animate attributeName="y" from="119" to="180" dur="0.226" begin="animate26.end + 0.5" id="animate27" fill="freeze"/></rect></clipPath><clipPath id="clip-mask-28"><rect x="170" y="226" width="87" height="31"><set attributeName="x" to="83" begin="0; animate29.end + 1" /><animate attributeName="x" from="83" to="170" dur="0.322" begin="animate27.end" id="animate28" fill="freeze"/></rect></clipPath><clipPath id="clip-mask-29"><rect x="230" y="198" width="23" height="32"><set attributeName="y" to="230" begin="0; animate29.end + 1" /><animate attributeName="y" from="230" to="198" dur="0.119" begin="animate28.end" id="animate29" fill="freeze"/></rect></clipPath></defs><path d="M 0 0 L 270 270 M 270 0 L 0 270 M 135 0 L 135 270 M 0 135 L 270 135" stroke="#CCCCCC" /><path d="M 62 101 Q 54 103 48 105 Q 35 110 23 105 Q 16 102 25 99 Q 43 96 62 88 L 73 83 Q 77 83 82 83 Q 89 84 91 87 Q 92 89 91 91 Q 90 92 82 95 Q 77 96 73 98" fill="#CCCCCC"/><path d="M 62 117 L 62 101 L 62 88 Q 61 47 61 42 Q 60 33 55 27 Q 51 21 55 20 Q 60 18 68 22 Q 82 28 78 35 Q 73 51 73 83 L 73 98 Q 73 114 73 130 L 73 137 Q 74 171 77 204 Q 77 222 73 233 Q 69 242 66 242 Q 62 242 58 234 L 58 211 Q 61 209 62 202 Q 62 171 62 148 L 62 137" fill="#CCCCCC"/><path d="M 58 234 Q 54 227 39 215 Q 34 211 34 209 Q 33 207 41 210 Q 58 211 58 211" fill="#CCCCCC"/><path d="M 73 130 Q 78 126 81 126 Q 84 125 82 129 Q 80 132 77 134 Q 75 136 73 137 L 62 148 Q 42 166 33 176 Q 31 180 27 179 Q 21 177 16 174 Q 12 170 12 168 Q 13 166 16 164 Q 22 162 30 157 Q 45 147 62 137" fill="#CCCCCC"/><path d="M 110 49 Q 120 31 120 29 Q 119 27 121 26 Q 123 26 127 28 Q 132 30 135 32 Q 136 35 133 37 Q 129 40 126 42 Q 123 45 120 47 Q 118 49 114 51" fill="#CCCCCC"/><path d="M 116 104 Q 109 73 106 66 Q 103 58 98 52 Q 96 49 98 47 Q 100 46 102 47 Q 107 47 110 49 L 114 51 Q 116 53 117 62 L 118 68 Q 119 74 120 80 L 121 86 Q 122 93 124 102" fill="#CCCCCC"/><path d="M 117 62 Q 125 58 130 58 Q 135 58 137 60 Q 139 63 135 64 Q 127 66 118 68" fill="#CCCCCC"/><path d="M 120 80 Q 125 76 133 76 Q 138 77 140 79 Q 142 81 138 82 Q 130 84 121 86" fill="#CCCCCC"/><path d="M 151 48 L 143 55 Q 140 56 141 53 Q 146 45 151 39 L 155 33 Q 164 19 163 15 Q 162 13 164 12 Q 166 12 171 13 Q 176 15 178 18 Q 181 21 177 23 Q 172 26 163 36 L 157 43" fill="#CCCCCC"/><path d="M 151 39 Q 140 31 140 30 Q 140 29 142 29 Q 146 30 155 33 L 163 36 Q 172 40 174 45 Q 176 51 175 52 Q 174 54 173 54 Q 171 53 169 52 Q 163 47 157 43" fill="#CCCCCC"/><path d="M 154 85 L 145 92 Q 142 93 143 90 Q 149 82 154 76 L 158 71 Q 164 61 163 58 Q 162 56 164 56 Q 166 55 170 57 Q 174 59 177 61 Q 179 64 176 66 Q 171 69 166 73 L 160 79" fill="#CCCCCC"/><path d="M 154 76 Q 145 69 145 69 Q 145 67 146 67 Q 150 68 158 71 L 166 73 Q 174 76 176 80 Q 178 86 177 88 Q 177 89 176 89 Q 174 89 160 79" fill="#CCCCCC"/><path d="M 210 35 Q 208 34 205 34 Q 193 38 189 36 Q 185 34 185 33 Q 185 31 188 31 Q 198 29 210 25 Q 216 23 219 25 Q 227 30 230 34" fill="#CCCCCC"/><path d="M 200 88 Q 202 79 204 71 L 206 65 Q 207 58 209 52 L 210 45 Q 211 36 210 35 L 230 34 Q 231 36 228 39 Q 221 44 210 87" fill="#CCCCCC"/><path d="M 209 52 Q 200 52 190 53 Q 187 53 186 52 Q 182 49 185 49 Q 190 47 196 45 Q 207 42 210 45" fill="#CCCCCC"/><path d="M 204 71 Q 184 73 184 73 Q 180 70 183 69 Q 187 68 192 66 Q 204 63 206 65" fill="#CCCCCC"/><path d="M 103 113 L 100 127 Q 98 134 98 135 Q 96 139 95 139 Q 93 141 91 139 Q 89 135 88 131 Q 88 127 89 123 Q 95 109 93 101 Q 93 99 95 98 Q 96 96 97 98 Q 101 100 104 105 L 105 112" fill="#CCCCCC"/><path d="M 104 105 Q 110 104 116 104 L 124 102 Q 131 99 200 88 L 210 87 Q 228 82 235 87 Q 252 98 252 101 L 223 98 Q 223 96 219 94 Q 216 94 205 95 Q 155 100 119 113 Q 111 115 105 112" fill="#CCCCCC"/><path d="M 252 101 Q 253 103 244 106 Q 234 108 221 117 Q 217 120 215 119 Q 214 118 216 115 Q 223 98 223 98" fill="#CCCCCC"/><path d="M 132 184 Q 131 188 130 189 Q 129 192 127 190 Q 125 187 122 182 Q 120 175 123 173 Q 127 140 119 123 Q 117 122 118 121 Q 119 119 120 119 Q 124 120 127 122 L 132 128 Q 132 132 132 142 L 132 147 Q 132 150 133 153 Q 133 156 133 159 L 133 165 Q 133 167 134 169 Q 134 173 133 177" fill="#CCCCCC"/><path d="M 127 122 Q 159 117 175 110 Q 180 108 183 109 Q 194 113 200 118 L 180 120 Q 177 116 134 128 Q 133 128 132 128" fill="#CCCCCC"/><path d="M 181 173 Q 182 172 182 172 Q 184 166 183 135 Q 183 123 180 120 L 200 118 Q 202 121 199 124 Q 192 134 197 170 Q 198 175 194 180 Q 191 187 188 187 Q 186 188 183 181 Q 182 180 182 178" fill="#CCCCCC"/><path d="M 132 142 Q 155 133 163 134 Q 168 134 170 137 Q 172 140 167 141 Q 154 144 136 147 Q 133 147 132 147" fill="#CCCCCC"/><path d="M 133 159 Q 156 150 163 151 Q 168 152 170 155 Q 172 158 167 159 Q 136 164 133 165" fill="#CCCCCC"/><path d="M 146 182 L 137 184 Q 134 185 132 184 L 133 177 Q 148 174 166 169 Q 173 168 177 170 Q 180 172 181 173 L 182 178 Q 181 178 181 178 Q 173 179 166 180 L 162 180" fill="#CCCCCC"/><path d="M 134 189 L 136 188 Q 143 187 149 195 Q 152 197 152 199 Q 152 201 150 202 Q 149 203 147 206 Q 110 250 89 250 Q 87 250 89 249 Q 136 211 135 191" fill="#CCCCCC"/><path d="M 166 180 Q 167 180 168 180 Q 179 185 178 192 Q 172 219 176 226 L 170 241 Q 162 233 164 203 Q 165 194 162 185 Q 161 181 162 180" fill="#CCCCCC"/><path d="M 176 226 Q 177 230 183 233 Q 190 236 199 237 Q 223 238 230 230 L 253 230 Q 257 236 252 240 Q 242 247 233 249 Q 232 249 230 250 Q 190 257 170 241" fill="#CCCCCC"/><path d="M 230 230 Q 235 224 240 202 Q 241 198 243 199 Q 245 200 245 204 Q 250 223 253 230" fill="#CCCCCC"/><path d="M 62 101 Q 54 103 48 105 Q 35 110 23 105 Q 16 102 25 99 Q 43 96 62 88 L 73 83 Q 77 83 82 83 Q 89 84 91 87 Q 92 89 91 91 Q 90 92 82 95 Q 77 96 73 98" fill="#0000ff" clip-path="url(#clip-mask-1)" /><path d="M 62 117 L 62 101 L 62 88 Q 61 47 61 42 Q 60 33 55 27 Q 51 21 55 20 Q 60 18 68 22 Q 82 28 78 35 Q 73 51 73 83 L 73 98 Q 73 114 73 130 L 73 137 Q 74 171 77 204 Q 77 222 73 233 Q 69 242 66 242 Q 62 242 58 234 L 58 211 Q 61 209 62 202 Q 62 171 62 148 L 62 137" fill="#0000ff" clip-path="url(#clip-mask-2)" /><path d="M 58 234 Q 54 227 39 215 Q 34 211 34 209 Q 33 207 41 210 Q 58 211 58 211" fill="#0000ff" clip-path="url(#clip-mask-3)" /><path d="M 73 130 Q 78 126 81 126 Q 84 125 82 129 Q 80 132 77 134 Q 75 136 73 137 L 62 148 Q 42 166 33 176 Q 31 180 27 179 Q 21 177 16 174 Q 12 170 12 168 Q 13 166 16 164 Q 22 162 30 157 Q 45 147 62 137" fill="#0000ff" clip-path="url(#clip-mask-4)" /><path d="M 110 49 Q 120 31 120 29 Q 119 27 121 26 Q 123 26 127 28 Q 132 30 135 32 Q 136 35 133 37 Q 129 40 126 42 Q 123 45 120 47 Q 118 49 114 51" fill="#000080" clip-path="url(#clip-mask-5)" /><path d="M 116 104 Q 109 73 106 66 Q 103 58 98 52 Q 96 49 98 47 Q 100 46 102 47 Q 107 47 110 49 L 114 51 Q 116 53 117 62 L 118 68 Q 119 74 120 80 L 121 86 Q 122 93 124 102" fill="#000080" clip-path="url(#clip-mask-6)" /><path d="M 117 62 Q 125 58 130 58 Q 135 58 137 60 Q 139 63 135 64 Q 127 66 118 68" fill="#000080" clip-path="url(#clip-mask-7)" /><path d="M 120 80 Q 125 76 133 76 Q 138 77 140 79 Q 142 81 138 82 Q 130 84 121 86" fill="#000080" clip-path="url(#clip-mask-8)" /><path d="M 151 48 L 143 55 Q 140 56 141 53 Q 146 45 151 39 L 155 33 Q 164 19 163 15 Q 162 13 164 12 Q 166 12 171 13 Q 176 15 178 18 Q 181 21 177 23 Q 172 26 163 36 L 157 43" fill="#000080" clip-path="url(#clip-mask-9)" /><path d="M 151 39 Q 140 31 140 30 Q 140 29 142 29 Q 146 30 155 33 L 163 36 Q 172 40 174 45 Q 176 51 175 52 Q 174 54 173 54 Q 171 53 169 52 Q 163 47 157 43" fill="#000080" clip-path="url(#clip-mask-10)" /><path d="M 154 85 L 145 92 Q 142 93 143 90 Q 149 82 154 76 L 158 71 Q 164 61 163 58 Q 162 56 164 56 Q 166 55 170 57 Q 174 59 177 61 Q 179 64 176 66 Q 171 69 166 73 L 160 79" fill="#000080" clip-path="url(#clip-mask-11)" /><path d="M 154 76 Q 145 69 145 69 Q 145 67 146 67 Q 150 68 158 71 L 166 73 Q 174 76 176 80 Q 178 86 177 88 Q 177 89 176 89 Q 174 89 160 79" fill="#000080" clip-path="url(#clip-mask-12)" /><path d="M 210 35 Q 208 34 205 34 Q 193 38 189 36 Q 185 34 185 33 Q 185 31 188 31 Q 198 29 210 25 Q 216 23 219 25 Q 227 30 230 34" fill="#000080" clip-path="url(#clip-mask-13)" /><path d="M 200 88 Q 202 79 204 71 L 206 65 Q 207 58 209 52 L 210 45 Q 211 36 210 35 L 230 34 Q 231 36 228 39 Q 221 44 210 87" fill="#000080" clip-path="url(#clip-mask-14)" /><path d="M 209 52 Q 200 52 190 53 Q 187 53 186 52 Q 182 49 185 49 Q 190 47 196 45 Q 207 42 210 45" fill="#000080" clip-path="url(#clip-mask-15)" /><path d="M 204 71 Q 184 73 184 73 Q 180 70 183 69 Q 187 68 192 66 Q 204 63 206 65" fill="#000080" clip-path="url(#clip-mask-16)" /><path d="M 103 113 L 100 127 Q 98 134 98 135 Q 96 139 95 139 Q 93 141 91 139 Q 89 135 88 131 Q 88 127 89 123 Q 95 109 93 101 Q 93 99 95 98 Q 96 96 97 98 Q 101 100 104 105 L 105 112" fill="#000080" clip-path="url(#clip-mask-17)" /><path d="M 104 105 Q 110 104 116 104 L 124 102 Q 131 99 200 88 L 210 87 Q 228 82 235 87 Q 252 98 252 101 L 223 98 Q 223 96 219 94 Q 216 94 205 95 Q 155 100 119 113 Q 111 115 105 112" fill="#000080" clip-path="url(#clip-mask-18)" /><path d="M 252 101 Q 253 103 244 106 Q 234 108 221 117 Q 217 120 215 119 Q 214 118 216 115 Q 223 98 223 98" fill="#000080" clip-path="url(#clip-mask-19)" /><path d="M 132 184 Q 131 188 130 189 Q 129 192 127 190 Q 125 187 122 182 Q 120 175 123 173 Q 127 140 119 123 Q 117 122 118 121 Q 119 119 120 119 Q 124 120 127 122 L 132 128 Q 132 132 132 142 L 132 147 Q 132 150 133 153 Q 133 156 133 159 L 133 165 Q 133 167 134 169 Q 134 173 133 177" fill="#000080" clip-path="url(#clip-mask-20)" /><path d="M 127 122 Q 159 117 175 110 Q 180 108 183 109 Q 194 113 200 118 L 180 120 Q 177 116 134 128 Q 133 128 132 128" fill="#000080" clip-path="url(#clip-mask-21)" /><path d="M 181 173 Q 182 172 182 172 Q 184 166 183 135 Q 183 123 180 120 L 200 118 Q 202 121 199 124 Q 192 134 197 170 Q 198 175 194 180 Q 191 187 188 187 Q 186 188 183 181 Q 182 180 182 178" fill="#000080" clip-path="url(#clip-mask-22)" /><path d="M 132 142 Q 155 133 163 134 Q 168 134 170 137 Q 172 140 167 141 Q 154 144 136 147 Q 133 147 132 147" fill="#000080" clip-path="url(#clip-mask-23)" /><path d="M 133 159 Q 156 150 163 151 Q 168 152 170 155 Q 172 158 167 159 Q 136 164 133 165" fill="#000080" clip-path="url(#clip-mask-24)" /><path d="M 146 182 L 137 184 Q 134 185 132 184 L 133 177 Q 148 174 166 169 Q 173 168 177 170 Q 180 172 181 173 L 182 178 Q 181 178 181 178 Q 173 179 166 180 L 162 180" fill="#000080" clip-path="url(#clip-mask-25)" /><path d="M 134 189 L 136 188 Q 143 187 149 195 Q 152 197 152 199 Q 152 201 150 202 Q 149 203 147 206 Q 110 250 89 250 Q 87 250 89 249 Q 136 211 135 191" fill="#000080" clip-path="url(#clip-mask-26)" /><path d="M 166 180 Q 167 180 168 180 Q 179 185 178 192 Q 172 219 176 226 L 170 241 Q 162 233 164 203 Q 165 194 162 185 Q 161 181 162 180" fill="#000080" clip-path="url(#clip-mask-27)" /><path d="M 176 226 Q 177 230 183 233 Q 190 236 199 237 Q 223 238 230 230 L 253 230 Q 257 236 252 240 Q 242 247 233 249 Q 232 249 230 250 Q 190 257 170 241" fill="#000080" clip-path="url(#clip-mask-28)" /><path d="M 230 230 Q 235 224 240 202 Q 241 198 243 199 Q 245 200 245 204 Q 250 223 253 230" fill="#000080" clip-path="url(#clip-mask-29)" /></svg>