<svg xmlns="http://www.w3.org/2000/svg" xmlns:xlink="http://www.w3.org/1999/xlink" width="270" height="270"><defs><clipPath id="clip-mask-1"><rect x="28" y="90" width="83" height="28"><animate attributeName="x" from="-55" to="28" dur="0.307" begin="0; animate7.end + 1" id="animate1" fill="freeze"/></rect></clipPath><clipPath id="clip-mask-2"><rect x="61" y="112" width="21" height="67"><set attributeName="y" to="45" begin="0; animate7.end + 1" /><animate attributeName="y" from="45" to="112" dur="0.248" begin="animate1.end + 0.5" id="animate2" fill="freeze"/></rect></clipPath><clipPath id="clip-mask-3"><rect x="17" y="161" width="97" height="49"><set attributeName="x" to="-80" begin="0; animate7.end + 1" /><animate attributeName="x" from="-80" to="17" dur="0.359" begin="animate2.end + 0.5" id="animate3" fill="freeze"/></rect></clipPath><clipPath id="clip-mask-4"><rect x="111" y="30" width="58" height="105"><set attributeName="y" to="-75" begin="0; animate7.end + 1" /><animate attributeName="y" from="-75" to="30" dur="0.389" begin="animate3.end + 0.5" id="animate4" fill="freeze"/></rect></clipPath><clipPath id="clip-mask-5"><rect x="130" y="89" width="91" height="34"><set attributeName="x" to="39" begin="0; animate7.end + 1" /><animate attributeName="x" from="39" to="130" dur="0.337" begin="animate4.end + 0.5" id="animate5" fill="freeze"/></rect></clipPath><clipPath id="clip-mask-6"><rect x="74" y="113" width="112" height="115"><set attributeName="y" to="-2" begin="0; animate7.end + 1" /><animate attributeName="y" from="-2" to="113" dur="0.426" begin="animate5.end + 0.5" id="animate6" fill="freeze"/></rect></clipPath><clipPath id="clip-mask-7"><rect x="115" y="142" width="137" height="97"><set attributeName="x" to="-22" begin="0; animate7.end + 1" /><animate attributeName="x" from="-22" to="115" dur="0.507" begin="animate6.end + 0.5" id="animate7" fill="freeze"/></rect></clipPath></defs><path d="M 0 0 L 270 270 M 270 0 L 0 270 M 135 0 L 135 270 M 0 135 L 270 135" stroke="#CCCCCC" /><path d="M 61 115 Q 48 118 36 114 Q 28 109 38 107 Q 40 106 65 100 Q 92 90 98 90 Q 107 92 110 95 Q 111 98 109 100 Q 108 101 71 112" fill="#CCCCCC"/><path d="M 64 155 L 64 142 Q 63 118 61 115 L 71 112 Q 75 115 80 120 Q 82 123 80 128 Q 79 132 77 174 L 64 179" fill="#CCCCCC"/><path d="M 77 174 Q 93 167 109 162 Q 112 161 114 162 Q 114 165 111 167 Q 105 171 99 175 Q 52 199 42 207 Q 38 210 35 209 Q 26 204 19 200 Q 17 198 17 194 Q 17 191 21 191 Q 30 190 64 179" fill="#CCCCCC"/><path d="M 130 117 Q 117 133 115 134 Q 111 135 111 132 Q 112 130 114 127 Q 125 106 133 88 Q 141 69 144 49 Q 145 43 141 38 Q 138 32 143 30 Q 149 30 157 33 Q 165 38 167 41 Q 169 45 167 48 Q 163 54 159 64 Q 149 88 134 110" fill="#CCCCCC"/><path d="M 163 116 Q 160 117 158 118 Q 142 123 130 117 L 134 110 Q 149 108 174 101 Q 202 89 210 90 Q 218 92 219 95 Q 221 97 219 99 Q 217 100 176 113" fill="#CCCCCC"/><path d="M 141 211 L 129 216 Q 110 226 82 228 Q 78 228 77 228 Q 74 227 76 225 Q 76 225 99 218 Q 129 207 150 184 L 155 173 Q 156 171 157 169 Q 167 143 163 116 L 176 113 Q 180 115 184 120 Q 186 122 185 125 Q 183 130 181 138 Q 177 165 165 184 L 157 195" fill="#CCCCCC"/><path d="M 150 184 Q 129 156 119 148 Q 115 145 116 143 Q 117 142 122 142 Q 132 143 140 155 Q 147 164 155 173 L 165 184 Q 169 187 173 191 Q 192 210 242 230 Q 252 234 252 235 Q 252 238 242 238 Q 223 239 198 237 Q 191 236 186 230 Q 170 212 157 195" fill="#CCCCCC"/><path d="M 61 115 Q 48 118 36 114 Q 28 109 38 107 Q 40 106 65 100 Q 92 90 98 90 Q 107 92 110 95 Q 111 98 109 100 Q 108 101 71 112" fill="#000080" clip-path="url(#clip-mask-1)" /><path d="M 64 155 L 64 142 Q 63 118 61 115 L 71 112 Q 75 115 80 120 Q 82 123 80 128 Q 79 132 77 174 L 64 179" fill="#000080" clip-path="url(#clip-mask-2)" /><path d="M 77 174 Q 93 167 109 162 Q 112 161 114 162 Q 114 165 111 167 Q 105 171 99 175 Q 52 199 42 207 Q 38 210 35 209 Q 26 204 19 200 Q 17 198 17 194 Q 17 191 21 191 Q 30 190 64 179" fill="#000080" clip-path="url(#clip-mask-3)" /><path d="M 130 117 Q 117 133 115 134 Q 111 135 111 132 Q 112 130 114 127 Q 125 106 133 88 Q 141 69 144 49 Q 145 43 141 38 Q 138 32 143 30 Q 149 30 157 33 Q 165 38 167 41 Q 169 45 167 48 Q 163 54 159 64 Q 149 88 134 110" fill="#0000ff" clip-path="url(#clip-mask-4)" /><path d="M 163 116 Q 160 117 158 118 Q 142 123 130 117 L 134 110 Q 149 108 174 101 Q 202 89 210 90 Q 218 92 219 95 Q 221 97 219 99 Q 217 100 176 113" fill="#0000ff" clip-path="url(#clip-mask-5)" /><path d="M 141 211 L 129 216 Q 110 226 82 228 Q 78 228 77 228 Q 74 227 76 225 Q 76 225 99 218 Q 129 207 150 184 L 155 173 Q 156 171 157 169 Q 167 143 163 116 L 176 113 Q 180 115 184 120 Q 186 122 185 125 Q 183 130 181 138 Q 177 165 165 184 L 157 195" fill="#0000ff" clip-path="url(#clip-mask-6)" /><path d="M 150 184 Q 129 156 119 148 Q 115 145 116 143 Q 117 142 122 142 Q 132 143 140 155 Q 147 164 155 173 L 165 184 Q 169 187 173 191 Q 192 210 242 230 Q 252 234 252 235 Q 252 238 242 238 Q 223 239 198 237 Q 191 236 186 230 Q 170 212 157 195" fill="#0000ff" clip-path="url(#clip-mask-7)" /></svg>