<svg xmlns="http://www.w3.org/2000/svg" xmlns:xlink="http://www.w3.org/1999/xlink" width="270" height="270"><defs><clipPath id="clip-mask-1"><rect x="71" y="38" width="43" height="39"><animate attributeName="x" from="28" to="71" dur="0.159" begin="0; animate10.end + 1" id="animate1" fill="freeze"/></rect></clipPath><clipPath id="clip-mask-2"><rect x="19" y="94" width="109" height="33"><set attributeName="x" to="-90" begin="0; animate10.end + 1" /><animate attributeName="x" from="-90" to="19" dur="0.404" begin="animate1.end + 0.5" id="animate2" fill="freeze"/></rect></clipPath><clipPath id="clip-mask-3"><rect x="13" y="115" width="81" height="109"><set attributeName="y" to="6" begin="0; animate10.end + 1" /><animate attributeName="y" from="6" to="115" dur="0.404" begin="animate2.end + 0.5" id="animate3" fill="freeze"/></rect></clipPath><clipPath id="clip-mask-4"><rect x="83" y="137" width="45" height="21"><set attributeName="x" to="38" begin="0; animate10.end + 1" /><animate attributeName="x" from="38" to="83" dur="0.167" begin="animate3.end + 0.5" id="animate4" fill="freeze"/></rect></clipPath><clipPath id="clip-mask-5"><rect x="76" y="153" width="52" height="90"><set attributeName="y" to="63" begin="0; animate10.end + 1" /><animate attributeName="y" from="63" to="153" dur="0.333" begin="animate4.end" id="animate5" fill="freeze"/></rect></clipPath><clipPath id="clip-mask-6"><rect x="57" y="209" width="24" height="32"><set attributeName="x" to="81" begin="0; animate10.end + 1" /><animate attributeName="x" from="81" to="57" dur="0.089" begin="animate5.end" id="animate6" fill="freeze"/></rect></clipPath><clipPath id="clip-mask-7"><rect x="129" y="26" width="55" height="108"><set attributeName="y" to="-82" begin="0; animate10.end + 1" /><animate attributeName="y" from="-82" to="26" dur="0.400" begin="animate6.end + 0.5" id="animate7" fill="freeze"/></rect></clipPath><clipPath id="clip-mask-8"><rect x="151" y="91" width="83" height="27"><set attributeName="x" to="68" begin="0; animate10.end + 1" /><animate attributeName="x" from="68" to="151" dur="0.307" begin="animate7.end + 0.5" id="animate8" fill="freeze"/></rect></clipPath><clipPath id="clip-mask-9"><rect x="109" y="116" width="90" height="111"><set attributeName="y" to="5" begin="0; animate10.end + 1" /><animate attributeName="y" from="5" to="116" dur="0.411" begin="animate8.end + 0.5" id="animate9" fill="freeze"/></rect></clipPath><clipPath id="clip-mask-10"><rect x="133" y="148" width="123" height="93"><set attributeName="x" to="10" begin="0; animate10.end + 1" /><animate attributeName="x" from="10" to="133" dur="0.456" begin="animate9.end + 0.5" id="animate10" fill="freeze"/></rect></clipPath></defs><path d="M 0 0 L 270 270 M 270 0 L 0 270 M 135 0 L 135 270 M 0 135 L 270 135" stroke="#CCCCCC" /><path d="M 72 49 L 71 45 Q 71 41 72 40 Q 77 38 100 48 Q 109 53 111 59 Q 114 69 112 73 Q 110 77 107 77 Q 102 77 98 73 Q 89 64 80 56" fill="#CCCCCC"/><path d="M 73 118 Q 55 122 41 125 Q 34 127 25 121 Q 19 117 26 116 Q 65 109 79 105 Q 86 103 92 102 Q 115 94 122 99 Q 128 102 128 105 Q 126 109 123 108 Q 92 113 85 115" fill="#CCCCCC"/><path d="M 83 145 Q 74 161 60 181 Q 59 181 59 183 Q 29 221 14 224 Q 13 224 13 223 Q 13 221 15 220 Q 33 200 46 181 Q 58 165 64 152 Q 68 143 72 130 Q 74 122 73 118 Q 73 118 73 118 L 85 115 Q 88 118 92 123 Q 94 126 92 130 Q 90 132 87 137 L 83 145" fill="#CCCCCC"/><path d="M 87 137 Q 90 137 92 138 Q 96 139 100 140 Q 114 140 122 148 Q 128 155 128 158 L 105 153 Q 102 150 95 148 Q 87 146 83 145" fill="#CCCCCC"/><path d="M 128 158 Q 127 160 124 161 Q 119 165 113 186 Q 107 210 101 223 Q 96 232 88 238 Q 80 243 76 241 L 81 217 Q 88 214 95 198 Q 101 180 103 167 Q 106 156 105 153" fill="#CCCCCC"/><path d="M 76 241 Q 73 240 72 235 Q 69 224 61 217 Q 57 213 58 211 Q 59 209 69 214 Q 78 218 81 217" fill="#CCCCCC"/><path d="M 151 112 Q 139 129 133 131 Q 129 134 130 129 Q 138 113 141 110 Q 167 63 157 34 Q 155 30 158 28 Q 164 26 180 32 Q 184 36 182 40 Q 177 53 172 70 Q 166 89 154 109" fill="#CCCCCC"/><path d="M 174 118 Q 169 118 165 118 Q 153 116 151 112 L 154 109 Q 155 108 157 108 Q 172 105 190 100 Q 213 91 221 92 Q 230 94 232 97 Q 234 100 231 102 Q 231 103 185 116" fill="#CCCCCC"/><path d="M 167 205 L 164 209 Q 137 227 117 227 Q 109 227 116 223 Q 151 206 163 188 L 169 178 Q 185 142 174 118 L 185 116 Q 194 118 198 122 Q 199 125 197 127 Q 196 130 195 136 Q 189 170 179 189 L 171 200" fill="#CCCCCC"/><path d="M 163 188 Q 146 162 136 154 Q 133 151 134 149 Q 134 148 139 149 Q 148 150 156 161 Q 162 170 169 178 L 179 189 Q 183 193 187 197 Q 207 213 247 232 Q 256 237 256 238 Q 256 240 247 240 Q 228 241 206 237 Q 199 237 195 231 Q 181 215 171 200" fill="#CCCCCC"/><path d="M 72 49 L 71 45 Q 71 41 72 40 Q 77 38 100 48 Q 109 53 111 59 Q 114 69 112 73 Q 110 77 107 77 Q 102 77 98 73 Q 89 64 80 56" fill="#000080" clip-path="url(#clip-mask-1)" /><path d="M 73 118 Q 55 122 41 125 Q 34 127 25 121 Q 19 117 26 116 Q 65 109 79 105 Q 86 103 92 102 Q 115 94 122 99 Q 128 102 128 105 Q 126 109 123 108 Q 92 113 85 115" fill="#000080" clip-path="url(#clip-mask-2)" /><path d="M 83 145 Q 74 161 60 181 Q 59 181 59 183 Q 29 221 14 224 Q 13 224 13 223 Q 13 221 15 220 Q 33 200 46 181 Q 58 165 64 152 Q 68 143 72 130 Q 74 122 73 118 Q 73 118 73 118 L 85 115 Q 88 118 92 123 Q 94 126 92 130 Q 90 132 87 137 L 83 145" fill="#000080" clip-path="url(#clip-mask-3)" /><path d="M 87 137 Q 90 137 92 138 Q 96 139 100 140 Q 114 140 122 148 Q 128 155 128 158 L 105 153 Q 102 150 95 148 Q 87 146 83 145" fill="#000080" clip-path="url(#clip-mask-4)" /><path d="M 128 158 Q 127 160 124 161 Q 119 165 113 186 Q 107 210 101 223 Q 96 232 88 238 Q 80 243 76 241 L 81 217 Q 88 214 95 198 Q 101 180 103 167 Q 106 156 105 153" fill="#000080" clip-path="url(#clip-mask-5)" /><path d="M 76 241 Q 73 240 72 235 Q 69 224 61 217 Q 57 213 58 211 Q 59 209 69 214 Q 78 218 81 217" fill="#000080" clip-path="url(#clip-mask-6)" /><path d="M 151 112 Q 139 129 133 131 Q 129 134 130 129 Q 138 113 141 110 Q 167 63 157 34 Q 155 30 158 28 Q 164 26 180 32 Q 184 36 182 40 Q 177 53 172 70 Q 166 89 154 109" fill="#0000ff" clip-path="url(#clip-mask-7)" /><path d="M 174 118 Q 169 118 165 118 Q 153 116 151 112 L 154 109 Q 155 108 157 108 Q 172 105 190 100 Q 213 91 221 92 Q 230 94 232 97 Q 234 100 231 102 Q 231 103 185 116" fill="#0000ff" clip-path="url(#clip-mask-8)" /><path d="M 167 205 L 164 209 Q 137 227 117 227 Q 109 227 116 223 Q 151 206 163 188 L 169 178 Q 185 142 174 118 L 185 116 Q 194 118 198 122 Q 199 125 197 127 Q 196 130 195 136 Q 189 170 179 189 L 171 200" fill="#0000ff" clip-path="url(#clip-mask-9)" /><path d="M 163 188 Q 146 162 136 154 Q 133 151 134 149 Q 134 148 139 149 Q 148 150 156 161 Q 162 170 169 178 L 179 189 Q 183 193 187 197 Q 207 213 247 232 Q 256 237 256 238 Q 256 240 247 240 Q 228 241 206 237 Q 199 237 195 231 Q 181 215 171 200" fill="#0000ff" clip-path="url(#clip-mask-10)" /></svg>