<svg xmlns="http://www.w3.org/2000/svg" xmlns:xlink="http://www.w3.org/1999/xlink" width="270" height="270"><defs><clipPath id="clip-mask-1"><rect x="75" y="26" width="34" height="29"><animate attributeName="x" from="41" to="75" dur="0.126" begin="0; animate18.end + 1" id="animate1" fill="freeze"/></rect></clipPath><clipPath id="clip-mask-2"><rect x="20" y="59" width="118" height="29"><set attributeName="x" to="-98" begin="0; animate18.end + 1" /><animate attributeName="x" from="-98" to="20" dur="0.437" begin="animate1.end + 0.5" id="animate2" fill="freeze"/></rect></clipPath><clipPath id="clip-mask-3"><rect x="46" y="90" width="21" height="24"><set attributeName="y" to="66" begin="0; animate18.end + 1" /><animate attributeName="y" from="66" to="90" dur="0.089" begin="animate2.end + 0.5" id="animate3" fill="freeze"/></rect></clipPath><clipPath id="clip-mask-4"><rect x="83" y="78" width="27" height="39"><set attributeName="y" to="39" begin="0; animate18.end + 1" /><animate attributeName="y" from="39" to="78" dur="0.144" begin="animate3.end + 0.5" id="animate4" fill="freeze"/></rect></clipPath><clipPath id="clip-mask-5"><rect x="21" y="121" width="23" height="112"><set attributeName="y" to="9" begin="0; animate18.end + 1" /><animate attributeName="y" from="9" to="121" dur="0.415" begin="animate4.end + 0.5" id="animate5" fill="freeze"/></rect></clipPath><clipPath id="clip-mask-6"><rect x="40" y="109" width="80" height="24"><set attributeName="x" to="-40" begin="0; animate18.end + 1" /><animate attributeName="x" from="-40" to="40" dur="0.296" begin="animate5.end + 0.5" id="animate6" fill="freeze"/></rect></clipPath><clipPath id="clip-mask-7"><rect x="107" y="114" width="24" height="129"><set attributeName="y" to="-15" begin="0; animate18.end + 1" /><animate attributeName="y" from="-15" to="114" dur="0.478" begin="animate6.end" id="animate7" fill="freeze"/></rect></clipPath><clipPath id="clip-mask-8"><rect x="90" y="215" width="17" height="23"><set attributeName="x" to="107" begin="0; animate18.end + 1" /><animate attributeName="x" from="107" to="90" dur="0.063" begin="animate7.end" id="animate8" fill="freeze"/></rect></clipPath><clipPath id="clip-mask-9"><rect x="45" y="140" width="59" height="20"><set attributeName="x" to="-14" begin="0; animate18.end + 1" /><animate attributeName="x" from="-14" to="45" dur="0.219" begin="animate8.end + 0.5" id="animate9" fill="freeze"/></rect></clipPath><clipPath id="clip-mask-10"><rect x="68" y="125" width="18" height="50"><set attributeName="y" to="75" begin="0; animate18.end + 1" /><animate attributeName="y" from="75" to="125" dur="0.185" begin="animate9.end + 0.5" id="animate10" fill="freeze"/></rect></clipPath><clipPath id="clip-mask-11"><rect x="48" y="173" width="18" height="42"><set attributeName="y" to="131" begin="0; animate18.end + 1" /><animate attributeName="y" from="131" to="173" dur="0.156" begin="animate10.end + 0.5" id="animate11" fill="freeze"/></rect></clipPath><clipPath id="clip-mask-12"><rect x="61" y="166" width="41" height="16"><set attributeName="x" to="20" begin="0; animate18.end + 1" /><animate attributeName="x" from="20" to="61" dur="0.152" begin="animate11.end + 0.5" id="animate12" fill="freeze"/></rect></clipPath><clipPath id="clip-mask-13"><rect x="85" y="174" width="21" height="23"><set attributeName="y" to="151" begin="0; animate18.end + 1" /><animate attributeName="y" from="151" to="174" dur="0.085" begin="animate12.end" id="animate13" fill="freeze"/></rect></clipPath><clipPath id="clip-mask-14"><rect x="65" y="194" width="34" height="13"><set attributeName="x" to="31" begin="0; animate18.end + 1" /><animate attributeName="x" from="31" to="65" dur="0.126" begin="animate13.end + 0.5" id="animate14" fill="freeze"/></rect></clipPath><clipPath id="clip-mask-15"><rect x="127" y="31" width="59" height="114"><set attributeName="y" to="-83" begin="0; animate18.end + 1" /><animate attributeName="y" from="-83" to="31" dur="0.422" begin="animate14.end + 0.5" id="animate15" fill="freeze"/></rect></clipPath><clipPath id="clip-mask-16"><rect x="155" y="90" width="70" height="25"><set attributeName="x" to="85" begin="0; animate18.end + 1" /><animate attributeName="x" from="85" to="155" dur="0.259" begin="animate15.end + 0.5" id="animate16" fill="freeze"/></rect></clipPath><clipPath id="clip-mask-17"><rect x="125" y="111" width="76" height="102"><set attributeName="y" to="9" begin="0; animate18.end + 1" /><animate attributeName="y" from="9" to="111" dur="0.378" begin="animate16.end + 0.5" id="animate17" fill="freeze"/></rect></clipPath><clipPath id="clip-mask-18"><rect x="135" y="137" width="114" height="89"><set attributeName="x" to="21" begin="0; animate18.end + 1" /><animate attributeName="x" from="21" to="135" dur="0.422" begin="animate17.end + 0.5" id="animate18" fill="freeze"/></rect></clipPath></defs><path d="M 0 0 L 270 270 M 270 0 L 0 270 M 135 0 L 135 270 M 0 135 L 270 135" stroke="#CCCCCC" /><path d="M 76 35 L 75 32 Q 75 28 76 27 Q 80 26 98 31 Q 105 34 106 39 Q 109 47 108 51 Q 107 55 103 55 Q 99 55 95 51 Q 90 45 84 41" fill="#CCCCCC"/><path d="M 91 79 Q 70 82 49 86 Q 36 88 26 82 Q 20 78 29 77 Q 49 76 90 69 Q 122 59 129 61 Q 136 63 137 66 Q 138 68 136 70 Q 135 71 102 78" fill="#CCCCCC"/><path d="M 46 95 L 46 93 Q 46 90 47 90 Q 49 90 52 91 Q 66 98 67 103 Q 67 109 65 112 Q 63 114 62 114 Q 59 113 51 101" fill="#CCCCCC"/><path d="M 83 117 Q 84 113 86 109 Q 92 86 91 79 L 102 78 Q 107 81 108 84 Q 110 86 107 90 Q 104 93 102 97 Q 95 109 91 115" fill="#CCCCCC"/><path d="M 44 133 Q 44 133 44 134 Q 42 145 41 196 Q 40 226 31 231 Q 28 233 26 229 Q 22 225 22 217 Q 21 214 26 200 Q 38 152 26 125 Q 24 122 27 121 Q 32 121 40 125" fill="#CCCCCC"/><path d="M 107 120 Q 106 118 102 119 Q 88 121 76 125 L 68 126 Q 55 129 44 133 L 40 125 Q 59 122 78 118 Q 80 117 83 117 L 91 115 Q 101 111 107 110 Q 111 109 115 111 Q 118 112 120 114" fill="#CCCCCC"/><path d="M 125 213 Q 124 226 121 235 Q 118 242 115 243 Q 112 243 107 238 L 107 217 Q 109 215 109 209 Q 112 168 110 132 Q 110 121 107 120 L 120 114 Q 131 120 127 127 Q 122 135 126 210" fill="#CCCCCC"/><path d="M 107 238 Q 103 231 93 221 Q 90 219 90 217 Q 90 215 94 216 Q 105 218 107 217" fill="#CCCCCC"/><path d="M 81 145 Q 86 140 95 142 Q 101 143 103 146 Q 104 147 102 149 Q 102 150 96 152 Q 87 153 79 156 L 69 158 Q 58 160 51 156 Q 45 153 53 151 Q 62 150 70 148" fill="#CCCCCC"/><path d="M 68 175 Q 69 166 69 158 L 70 148 Q 70 129 68 126 L 76 125 Q 80 126 83 128 Q 86 131 85 133 Q 85 135 84 137 Q 82 141 81 145 L 79 156 Q 77 164 75 173" fill="#CCCCCC"/><path d="M 66 206 Q 66 210 65 212 Q 64 215 61 211 Q 58 208 58 203 Q 54 188 49 178 Q 48 175 49 174 Q 49 173 52 174 Q 59 175 61 176 L 63 182 Q 63 187 65 199" fill="#CCCCCC"/><path d="M 61 176 L 61 176 Q 65 175 68 175 L 75 173 Q 80 171 85 169 Q 88 166 92 169 Q 98 172 102 174 L 86 180 Q 85 178 80 179 Q 66 181 63 182" fill="#CCCCCC"/><path d="M 85 194 Q 86 190 86 186 Q 87 180 86 180 L 102 174 Q 106 178 102 183 Q 98 186 95 197" fill="#CCCCCC"/><path d="M 83 194 L 85 194 L 95 197 Q 99 199 99 201 Q 99 203 97 203 Q 78 204 69 206 Q 67 207 66 206 L 65 199 Q 72 197 82 195" fill="#CCCCCC"/><path d="M 135 140 Q 132 143 130 144 Q 127 145 127 142 Q 128 140 130 137 Q 172 56 159 39 Q 156 34 161 32 Q 166 31 174 35 Q 182 39 184 43 Q 186 46 184 49 Q 180 55 176 66 Q 167 89 158 105 L 155 111 Q 147 126 139 136 Q 137 136 137 137" fill="#CCCCCC"/><path d="M 177 113 Q 165 115 155 111 L 158 105 Q 170 103 181 100 Q 191 97 200 93 Q 207 90 214 91 Q 222 93 224 95 Q 225 98 223 99 Q 222 100 182 111" fill="#CCCCCC"/><path d="M 171 194 L 170 195 Q 150 213 125 213 L 126 210 Q 125 210 125 210 Q 125 210 126 210 Q 155 195 166 181 L 172 170 Q 178 156 180 142 Q 180 131 177 113 L 182 111 Q 186 112 190 114 Q 198 117 199 119 Q 201 122 199 123 Q 198 126 197 132 Q 191 163 182 179 L 173 192" fill="#CCCCCC"/><path d="M 166 181 Q 165 180 164 179 Q 144 147 139 144 Q 137 143 135 140 L 137 137 Q 138 137 139 137 Q 147 139 152 145 Q 162 159 172 170 L 182 179 Q 198 193 212 200 Q 243 213 246 216 Q 249 218 247 220 Q 243 221 240 221 Q 229 223 215 224 Q 203 226 196 219 Q 182 204 173 192" fill="#CCCCCC"/><path d="M 76 35 L 75 32 Q 75 28 76 27 Q 80 26 98 31 Q 105 34 106 39 Q 109 47 108 51 Q 107 55 103 55 Q 99 55 95 51 Q 90 45 84 41" fill="#000080" clip-path="url(#clip-mask-1)" /><path d="M 91 79 Q 70 82 49 86 Q 36 88 26 82 Q 20 78 29 77 Q 49 76 90 69 Q 122 59 129 61 Q 136 63 137 66 Q 138 68 136 70 Q 135 71 102 78" fill="#000080" clip-path="url(#clip-mask-2)" /><path d="M 46 95 L 46 93 Q 46 90 47 90 Q 49 90 52 91 Q 66 98 67 103 Q 67 109 65 112 Q 63 114 62 114 Q 59 113 51 101" fill="#000080" clip-path="url(#clip-mask-3)" /><path d="M 83 117 Q 84 113 86 109 Q 92 86 91 79 L 102 78 Q 107 81 108 84 Q 110 86 107 90 Q 104 93 102 97 Q 95 109 91 115" fill="#000080" clip-path="url(#clip-mask-4)" /><path d="M 44 133 Q 44 133 44 134 Q 42 145 41 196 Q 40 226 31 231 Q 28 233 26 229 Q 22 225 22 217 Q 21 214 26 200 Q 38 152 26 125 Q 24 122 27 121 Q 32 121 40 125" fill="#000080" clip-path="url(#clip-mask-5)" /><path d="M 107 120 Q 106 118 102 119 Q 88 121 76 125 L 68 126 Q 55 129 44 133 L 40 125 Q 59 122 78 118 Q 80 117 83 117 L 91 115 Q 101 111 107 110 Q 111 109 115 111 Q 118 112 120 114" fill="#000080" clip-path="url(#clip-mask-6)" /><path d="M 125 213 Q 124 226 121 235 Q 118 242 115 243 Q 112 243 107 238 L 107 217 Q 109 215 109 209 Q 112 168 110 132 Q 110 121 107 120 L 120 114 Q 131 120 127 127 Q 122 135 126 210" fill="#000080" clip-path="url(#clip-mask-7)" /><path d="M 107 238 Q 103 231 93 221 Q 90 219 90 217 Q 90 215 94 216 Q 105 218 107 217" fill="#000080" clip-path="url(#clip-mask-8)" /><path d="M 81 145 Q 86 140 95 142 Q 101 143 103 146 Q 104 147 102 149 Q 102 150 96 152 Q 87 153 79 156 L 69 158 Q 58 160 51 156 Q 45 153 53 151 Q 62 150 70 148" fill="#000080" clip-path="url(#clip-mask-9)" /><path d="M 68 175 Q 69 166 69 158 L 70 148 Q 70 129 68 126 L 76 125 Q 80 126 83 128 Q 86 131 85 133 Q 85 135 84 137 Q 82 141 81 145 L 79 156 Q 77 164 75 173" fill="#000080" clip-path="url(#clip-mask-10)" /><path d="M 66 206 Q 66 210 65 212 Q 64 215 61 211 Q 58 208 58 203 Q 54 188 49 178 Q 48 175 49 174 Q 49 173 52 174 Q 59 175 61 176 L 63 182 Q 63 187 65 199" fill="#000080" clip-path="url(#clip-mask-11)" /><path d="M 61 176 L 61 176 Q 65 175 68 175 L 75 173 Q 80 171 85 169 Q 88 166 92 169 Q 98 172 102 174 L 86 180 Q 85 178 80 179 Q 66 181 63 182" fill="#000080" clip-path="url(#clip-mask-12)" /><path d="M 85 194 Q 86 190 86 186 Q 87 180 86 180 L 102 174 Q 106 178 102 183 Q 98 186 95 197" fill="#000080" clip-path="url(#clip-mask-13)" /><path d="M 83 194 L 85 194 L 95 197 Q 99 199 99 201 Q 99 203 97 203 Q 78 204 69 206 Q 67 207 66 206 L 65 199 Q 72 197 82 195" fill="#000080" clip-path="url(#clip-mask-14)" /><path d="M 135 140 Q 132 143 130 144 Q 127 145 127 142 Q 128 140 130 137 Q 172 56 159 39 Q 156 34 161 32 Q 166 31 174 35 Q 182 39 184 43 Q 186 46 184 49 Q 180 55 176 66 Q 167 89 158 105 L 155 111 Q 147 126 139 136 Q 137 136 137 137" fill="#0000ff" clip-path="url(#clip-mask-15)" /><path d="M 177 113 Q 165 115 155 111 L 158 105 Q 170 103 181 100 Q 191 97 200 93 Q 207 90 214 91 Q 222 93 224 95 Q 225 98 223 99 Q 222 100 182 111" fill="#0000ff" clip-path="url(#clip-mask-16)" /><path d="M 171 194 L 170 195 Q 150 213 125 213 L 126 210 Q 125 210 125 210 Q 125 210 126 210 Q 155 195 166 181 L 172 170 Q 178 156 180 142 Q 180 131 177 113 L 182 111 Q 186 112 190 114 Q 198 117 199 119 Q 201 122 199 123 Q 198 126 197 132 Q 191 163 182 179 L 173 192" fill="#0000ff" clip-path="url(#clip-mask-17)" /><path d="M 166 181 Q 165 180 164 179 Q 144 147 139 144 Q 137 143 135 140 L 137 137 Q 138 137 139 137 Q 147 139 152 145 Q 162 159 172 170 L 182 179 Q 198 193 212 200 Q 243 213 246 216 Q 249 218 247 220 Q 243 221 240 221 Q 229 223 215 224 Q 203 226 196 219 Q 182 204 173 192" fill="#0000ff" clip-path="url(#clip-mask-18)" /></svg>