<svg xmlns="http://www.w3.org/2000/svg" xmlns:xlink="http://www.w3.org/1999/xlink" width="270" height="270"><defs><clipPath id="clip-mask-1"><rect x="99" y="11" width="82" height="46"><animate attributeName="x" from="181" to="99" dur="0.304" begin="0; animate4.end + 1" id="animate1" fill="freeze"/></rect></clipPath><clipPath id="clip-mask-2"><rect x="32" y="42" width="70" height="174"><set attributeName="y" to="-132" begin="0; animate4.end + 1" /><animate attributeName="y" from="-132" to="42" dur="0.644" begin="animate1.end + 0.5" id="animate2" fill="freeze"/></rect></clipPath><clipPath id="clip-mask-3"><rect x="98" y="73" width="139" height="37"><set attributeName="x" to="-41" begin="0; animate4.end + 1" /><animate attributeName="x" from="-41" to="98" dur="0.515" begin="animate2.end + 0.5" id="animate3" fill="freeze"/></rect></clipPath><clipPath id="clip-mask-4"><rect x="145" y="98" width="27" height="160"><set attributeName="y" to="-62" begin="0; animate4.end + 1" /><animate attributeName="y" from="-62" to="98" dur="0.593" begin="animate3.end + 0.5" id="animate4" fill="freeze"/></rect></clipPath></defs><path d="M 0 0 L 270 270 M 270 0 L 0 270 M 135 0 L 135 270 M 0 135 L 270 135" stroke="#CCCCCC" /><path d="M 99 50 Q 145 26 145 16 Q 145 12 148 11 Q 152 11 156 13 Q 171 19 177 24 Q 181 27 180 30 Q 179 33 173 33 Q 161 36 147 41 Q 137 46 102 57" fill="#CCCCCC"/><path d="M 98 108 Q 96 116 96 124 Q 89 170 67 194 Q 48 215 35 216 Q 32 216 32 214 Q 33 212 37 208 Q 61 186 70 165 Q 78 146 80 129 Q 87 69 77 51 Q 72 44 78 43 Q 82 42 99 50 L 102 57 Q 101 58 100 68 Q 99 85 98 99" fill="#CCCCCC"/><path d="M 128 104 L 114 108 Q 106 110 98 108 L 98 99 Q 189 81 208 76 Q 218 73 233 82 Q 237 86 236 89 Q 235 92 229 92 Q 164 97 160 98 L 145 101" fill="#CCCCCC"/><path d="M 160 98 Q 163 100 168 103 Q 172 105 171 110 Q 167 127 168 188 Q 168 244 164 252 Q 163 257 161 258 Q 159 258 157 256 Q 152 249 152 204 Q 153 153 152 120 Q 151 113 146 102 Q 145 101 145 101" fill="#CCCCCC"/><path d="M 99 50 Q 145 26 145 16 Q 145 12 148 11 Q 152 11 156 13 Q 171 19 177 24 Q 181 27 180 30 Q 179 33 173 33 Q 161 36 147 41 Q 137 46 102 57" fill="#0000ff" clip-path="url(#clip-mask-1)" /><path d="M 98 108 Q 96 116 96 124 Q 89 170 67 194 Q 48 215 35 216 Q 32 216 32 214 Q 33 212 37 208 Q 61 186 70 165 Q 78 146 80 129 Q 87 69 77 51 Q 72 44 78 43 Q 82 42 99 50 L 102 57 Q 101 58 100 68 Q 99 85 98 99" fill="#0000ff" clip-path="url(#clip-mask-2)" /><path d="M 128 104 L 114 108 Q 106 110 98 108 L 98 99 Q 189 81 208 76 Q 218 73 233 82 Q 237 86 236 89 Q 235 92 229 92 Q 164 97 160 98 L 145 101" fill="#0000ff" clip-path="url(#clip-mask-3)" /><path d="M 160 98 Q 163 100 168 103 Q 172 105 171 110 Q 167 127 168 188 Q 168 244 164 252 Q 163 257 161 258 Q 159 258 157 256 Q 152 249 152 204 Q 153 153 152 120 Q 151 113 146 102 Q 145 101 145 101" fill="#0000ff" clip-path="url(#clip-mask-4)" /></svg>