<svg xmlns="http://www.w3.org/2000/svg" xmlns:xlink="http://www.w3.org/1999/xlink" width="270" height="270"><defs><clipPath id="clip-mask-1"><rect x="67" y="41" width="36" height="33"><animate attributeName="x" from="31" to="67" dur="0.133" begin="0; animate13.end + 1" id="animate1" fill="freeze"/></rect></clipPath><clipPath id="clip-mask-2"><rect x="23" y="92" width="98" height="34"><set attributeName="x" to="-75" begin="0; animate13.end + 1" /><animate attributeName="x" from="-75" to="23" dur="0.363" begin="animate1.end + 0.5" id="animate2" fill="freeze"/></rect></clipPath><clipPath id="clip-mask-3"><rect x="11" y="113" width="79" height="96"><set attributeName="y" to="17" begin="0; animate13.end + 1" /><animate attributeName="y" from="17" to="113" dur="0.356" begin="animate2.end + 0.5" id="animate3" fill="freeze"/></rect></clipPath><clipPath id="clip-mask-4"><rect x="80" y="130" width="38" height="20"><set attributeName="x" to="42" begin="0; animate13.end + 1" /><animate attributeName="x" from="42" to="80" dur="0.141" begin="animate3.end + 0.5" id="animate4" fill="freeze"/></rect></clipPath><clipPath id="clip-mask-5"><rect x="65" y="148" width="53" height="87"><set attributeName="y" to="61" begin="0; animate13.end + 1" /><animate attributeName="y" from="61" to="148" dur="0.322" begin="animate4.end" id="animate5" fill="freeze"/></rect></clipPath><clipPath id="clip-mask-6"><rect x="50" y="202" width="17" height="31"><set attributeName="x" to="67" begin="0; animate13.end + 1" /><animate attributeName="x" from="67" to="50" dur="0.063" begin="animate5.end" id="animate6" fill="freeze"/></rect></clipPath><clipPath id="clip-mask-7"><rect x="125" y="21" width="51" height="80"><set attributeName="y" to="-59" begin="0; animate13.end + 1" /><animate attributeName="y" from="-59" to="21" dur="0.296" begin="animate6.end + 0.5" id="animate7" fill="freeze"/></rect></clipPath><clipPath id="clip-mask-8"><rect x="149" y="58" width="72" height="27"><set attributeName="x" to="77" begin="0; animate13.end + 1" /><animate attributeName="x" from="77" to="149" dur="0.267" begin="animate7.end + 0.5" id="animate8" fill="freeze"/></rect></clipPath><clipPath id="clip-mask-9"><rect x="144" y="89" width="52" height="40"><set attributeName="x" to="196" begin="0; animate13.end + 1" /><animate attributeName="x" from="196" to="144" dur="0.193" begin="animate8.end + 0.5" id="animate9" fill="freeze"/></rect></clipPath><clipPath id="clip-mask-10"><rect x="115" y="118" width="31" height="130"><set attributeName="y" to="-12" begin="0; animate13.end + 1" /><animate attributeName="y" from="-12" to="118" dur="0.481" begin="animate9.end + 0.5" id="animate10" fill="freeze"/></rect></clipPath><clipPath id="clip-mask-11"><rect x="129" y="194" width="49" height="51"><set attributeName="x" to="80" begin="0; animate13.end + 1" /><animate attributeName="x" from="80" to="129" dur="0.181" begin="animate10.end" id="animate11" fill="freeze"/></rect></clipPath><clipPath id="clip-mask-12"><rect x="176" y="117" width="48" height="47"><set attributeName="y" to="70" begin="0; animate13.end + 1" /><animate attributeName="y" from="70" to="117" dur="0.174" begin="animate11.end + 0.5" id="animate12" fill="freeze"/></rect></clipPath><clipPath id="clip-mask-13"><rect x="145" y="135" width="113" height="84"><set attributeName="x" to="32" begin="0; animate13.end + 1" /><animate attributeName="x" from="32" to="145" dur="0.419" begin="animate12.end + 0.5" id="animate13" fill="freeze"/></rect></clipPath></defs><path d="M 0 0 L 270 270 M 270 0 L 0 270 M 135 0 L 135 270 M 0 135 L 270 135" stroke="#CCCCCC" /><path d="M 68 50 L 68 46 Q 67 42 69 41 Q 71 41 75 42 Q 99 50 101 57 Q 103 66 101 70 Q 99 74 96 74 Q 92 74 88 70 Q 82 62 76 56" fill="#CCCCCC"/><path d="M 70 117 Q 62 119 55 122 Q 39 126 30 122 Q 23 118 32 116 Q 43 114 78 103 Q 104 92 111 93 Q 118 94 120 97 Q 121 99 119 101 Q 118 102 83 113" fill="#CCCCCC"/><path d="M 71 152 L 59 171 Q 31 206 14 209 Q 11 209 13 208 Q 35 186 43 175 Q 44 174 45 173 Q 72 136 70 117 L 83 113 Q 89 117 89 120 Q 90 122 88 123 Q 84 129 84 130 L 80 137" fill="#CCCCCC"/><path d="M 84 130 Q 86 131 93 132 Q 106 132 113 139 Q 118 145 118 148 L 97 150 Q 97 141 87 139 Q 81 139 80 137" fill="#CCCCCC"/><path d="M 118 148 Q 118 150 115 151 Q 108 156 104 177 Q 98 196 93 209 Q 86 224 77 231 Q 68 235 65 233 L 67 211 Q 72 211 77 206 Q 88 192 95 157 Q 96 152 97 150" fill="#CCCCCC"/><path d="M 65 233 Q 63 232 62 227 Q 61 219 54 209 Q 50 205 52 204 Q 53 202 61 208 Q 66 210 67 211" fill="#CCCCCC"/><path d="M 134 98 L 128 100 Q 125 101 125 98 Q 126 96 128 94 Q 137 78 144 65 Q 157 35 153 27 Q 150 22 155 21 Q 159 21 166 25 Q 174 30 175 32 Q 176 36 174 38 Q 171 42 167 50 Q 160 63 153 72 L 149 78" fill="#CCCCCC"/><path d="M 153 72 Q 165 71 175 68 Q 185 65 194 62 Q 201 58 210 59 Q 218 61 219 64 Q 221 66 218 68 Q 217 70 176 80 Q 161 85 149 78" fill="#CCCCCC"/><path d="M 144 124 Q 151 118 158 113 Q 176 100 176 92 Q 175 89 178 89 Q 181 89 186 93 Q 192 98 194 102 Q 196 107 191 108 Q 185 110 146 129" fill="#CCCCCC"/><path d="M 145 142 Q 144 161 142 208 Q 142 212 143 213 L 129 245 Q 126 248 123 246 Q 119 243 117 236 Q 115 231 118 227 Q 126 217 128 208 Q 133 196 133 174 Q 134 148 132 140 Q 131 131 126 125 Q 123 120 125 119 Q 126 118 130 118 Q 141 122 144 124 L 146 129 Q 146 131 145 135" fill="#CCCCCC"/><path d="M 143 213 Q 144 213 146 212 Q 174 194 177 194 Q 178 194 178 195 Q 178 198 174 200 Q 140 230 129 245" fill="#CCCCCC"/><path d="M 183 153 L 188 146 Q 201 129 199 122 Q 198 118 201 118 Q 204 117 211 120 Q 218 123 221 128 Q 224 132 219 135 Q 213 138 208 142 Q 183 162 180 164 L 176 162" fill="#CCCCCC"/><path d="M 180 164 Q 187 171 194 176 Q 218 194 255 206 Q 258 207 257 209 Q 256 211 252 212 Q 223 219 214 217 Q 205 214 154 152 Q 150 146 145 142 L 145 135 Q 150 135 152 138 Q 165 151 176 162" fill="#CCCCCC"/><path d="M 68 50 L 68 46 Q 67 42 69 41 Q 71 41 75 42 Q 99 50 101 57 Q 103 66 101 70 Q 99 74 96 74 Q 92 74 88 70 Q 82 62 76 56" fill="#0000ff" clip-path="url(#clip-mask-1)" /><path d="M 70 117 Q 62 119 55 122 Q 39 126 30 122 Q 23 118 32 116 Q 43 114 78 103 Q 104 92 111 93 Q 118 94 120 97 Q 121 99 119 101 Q 118 102 83 113" fill="#0000ff" clip-path="url(#clip-mask-2)" /><path d="M 71 152 L 59 171 Q 31 206 14 209 Q 11 209 13 208 Q 35 186 43 175 Q 44 174 45 173 Q 72 136 70 117 L 83 113 Q 89 117 89 120 Q 90 122 88 123 Q 84 129 84 130 L 80 137" fill="#0000ff" clip-path="url(#clip-mask-3)" /><path d="M 84 130 Q 86 131 93 132 Q 106 132 113 139 Q 118 145 118 148 L 97 150 Q 97 141 87 139 Q 81 139 80 137" fill="#0000ff" clip-path="url(#clip-mask-4)" /><path d="M 118 148 Q 118 150 115 151 Q 108 156 104 177 Q 98 196 93 209 Q 86 224 77 231 Q 68 235 65 233 L 67 211 Q 72 211 77 206 Q 88 192 95 157 Q 96 152 97 150" fill="#0000ff" clip-path="url(#clip-mask-5)" /><path d="M 65 233 Q 63 232 62 227 Q 61 219 54 209 Q 50 205 52 204 Q 53 202 61 208 Q 66 210 67 211" fill="#0000ff" clip-path="url(#clip-mask-6)" /><path d="M 134 98 L 128 100 Q 125 101 125 98 Q 126 96 128 94 Q 137 78 144 65 Q 157 35 153 27 Q 150 22 155 21 Q 159 21 166 25 Q 174 30 175 32 Q 176 36 174 38 Q 171 42 167 50 Q 160 63 153 72 L 149 78" fill="#000080" clip-path="url(#clip-mask-7)" /><path d="M 153 72 Q 165 71 175 68 Q 185 65 194 62 Q 201 58 210 59 Q 218 61 219 64 Q 221 66 218 68 Q 217 70 176 80 Q 161 85 149 78" fill="#000080" clip-path="url(#clip-mask-8)" /><path d="M 144 124 Q 151 118 158 113 Q 176 100 176 92 Q 175 89 178 89 Q 181 89 186 93 Q 192 98 194 102 Q 196 107 191 108 Q 185 110 146 129" fill="#000080" clip-path="url(#clip-mask-9)" /><path d="M 145 142 Q 144 161 142 208 Q 142 212 143 213 L 129 245 Q 126 248 123 246 Q 119 243 117 236 Q 115 231 118 227 Q 126 217 128 208 Q 133 196 133 174 Q 134 148 132 140 Q 131 131 126 125 Q 123 120 125 119 Q 126 118 130 118 Q 141 122 144 124 L 146 129 Q 146 131 145 135" fill="#000080" clip-path="url(#clip-mask-10)" /><path d="M 143 213 Q 144 213 146 212 Q 174 194 177 194 Q 178 194 178 195 Q 178 198 174 200 Q 140 230 129 245" fill="#000080" clip-path="url(#clip-mask-11)" /><path d="M 183 153 L 188 146 Q 201 129 199 122 Q 198 118 201 118 Q 204 117 211 120 Q 218 123 221 128 Q 224 132 219 135 Q 213 138 208 142 Q 183 162 180 164 L 176 162" fill="#000080" clip-path="url(#clip-mask-12)" /><path d="M 180 164 Q 187 171 194 176 Q 218 194 255 206 Q 258 207 257 209 Q 256 211 252 212 Q 223 219 214 217 Q 205 214 154 152 Q 150 146 145 142 L 145 135 Q 150 135 152 138 Q 165 151 176 162" fill="#000080" clip-path="url(#clip-mask-13)" /></svg>