<svg xmlns="http://www.w3.org/2000/svg" xmlns:xlink="http://www.w3.org/1999/xlink" width="270" height="270"><defs><clipPath id="clip-mask-1"><rect x="69" y="38" width="34" height="37"><animate attributeName="x" from="35" to="69" dur="0.126" begin="0; animate13.end + 1" id="animate1" fill="freeze"/></rect></clipPath><clipPath id="clip-mask-2"><rect x="25" y="95" width="97" height="32"><set attributeName="x" to="-72" begin="0; animate13.end + 1" /><animate attributeName="x" from="-72" to="25" dur="0.359" begin="animate1.end + 0.5" id="animate2" fill="freeze"/></rect></clipPath><clipPath id="clip-mask-3"><rect x="14" y="117" width="74" height="99"><set attributeName="y" to="18" begin="0; animate13.end + 1" /><animate attributeName="y" from="18" to="117" dur="0.367" begin="animate2.end + 0.5" id="animate3" fill="freeze"/></rect></clipPath><clipPath id="clip-mask-4"><rect x="78" y="133" width="40" height="17"><set attributeName="x" to="38" begin="0; animate13.end + 1" /><animate attributeName="x" from="38" to="78" dur="0.148" begin="animate3.end + 0.5" id="animate4" fill="freeze"/></rect></clipPath><clipPath id="clip-mask-5"><rect x="75" y="149" width="43" height="87"><set attributeName="y" to="62" begin="0; animate13.end + 1" /><animate attributeName="y" from="62" to="149" dur="0.322" begin="animate4.end" id="animate5" fill="freeze"/></rect></clipPath><clipPath id="clip-mask-6"><rect x="59" y="206" width="19" height="29"><set attributeName="x" to="78" begin="0; animate13.end + 1" /><animate attributeName="x" from="78" to="59" dur="0.070" begin="animate5.end" id="animate6" fill="freeze"/></rect></clipPath><clipPath id="clip-mask-7"><rect x="124" y="27" width="50" height="83"><set attributeName="y" to="-56" begin="0; animate13.end + 1" /><animate attributeName="y" from="-56" to="27" dur="0.307" begin="animate6.end + 0.5" id="animate7" fill="freeze"/></rect></clipPath><clipPath id="clip-mask-8"><rect x="149" y="67" width="70" height="24"><set attributeName="x" to="79" begin="0; animate13.end + 1" /><animate attributeName="x" from="79" to="149" dur="0.259" begin="animate7.end + 0.5" id="animate8" fill="freeze"/></rect></clipPath><clipPath id="clip-mask-9"><rect x="129" y="99" width="41" height="50"><set attributeName="y" to="49" begin="0; animate13.end + 1" /><animate attributeName="y" from="49" to="99" dur="0.185" begin="animate8.end + 0.5" id="animate9" fill="freeze"/></rect></clipPath><clipPath id="clip-mask-10"><rect x="148" y="114" width="66" height="20"><set attributeName="x" to="82" begin="0; animate13.end + 1" /><animate attributeName="x" from="82" to="148" dur="0.244" begin="animate9.end + 0.5" id="animate10" fill="freeze"/></rect></clipPath><clipPath id="clip-mask-11"><rect x="115" y="148" width="129" height="32"><set attributeName="x" to="-14" begin="0; animate13.end + 1" /><animate attributeName="x" from="-14" to="115" dur="0.478" begin="animate10.end + 0.5" id="animate11" fill="freeze"/></rect></clipPath><clipPath id="clip-mask-12"><rect x="109" y="133" width="77" height="104"><set attributeName="y" to="29" begin="0; animate13.end + 1" /><animate attributeName="y" from="29" to="133" dur="0.385" begin="animate11.end + 0.5" id="animate12" fill="freeze"/></rect></clipPath><clipPath id="clip-mask-13"><rect x="172" y="173" width="83" height="69"><set attributeName="x" to="89" begin="0; animate13.end + 1" /><animate attributeName="x" from="89" to="172" dur="0.307" begin="animate12.end + 0.5" id="animate13" fill="freeze"/></rect></clipPath></defs><path d="M 0 0 L 270 270 M 270 0 L 0 270 M 135 0 L 135 270 M 0 135 L 270 135" stroke="#CCCCCC" /><path d="M 69 48 L 69 45 Q 69 41 70 40 Q 75 38 93 48 Q 101 53 102 59 Q 103 68 102 72 Q 100 75 96 75 Q 92 75 88 71 Q 82 62 76 55" fill="#CCCCCC"/><path d="M 67 121 Q 63 121 59 122 Q 44 127 32 121 Q 25 117 35 115 Q 43 114 77 105 Q 102 95 110 96 Q 118 98 120 101 Q 122 103 119 106 Q 118 107 106 111 Q 92 114 80 117" fill="#CCCCCC"/><path d="M 74 150 L 56 182 Q 30 213 16 216 Q 14 216 15 215 Q 70 154 67 121 L 80 117 Q 86 119 88 124 Q 88 126 86 127 Q 83 133 82 136 L 78 144" fill="#CCCCCC"/><path d="M 82 136 Q 87 136 92 136 Q 102 133 112 142 Q 118 147 118 150 L 96 149 Q 93 145 86 145 Q 80 145 78 144" fill="#CCCCCC"/><path d="M 118 150 Q 118 152 115 153 Q 109 159 107 179 Q 105 192 102 202 Q 96 223 86 231 Q 78 236 75 235 L 78 212 Q 85 209 90 192 Q 100 155 96 149" fill="#CCCCCC"/><path d="M 75 235 Q 72 234 71 229 Q 69 220 63 213 Q 59 209 61 208 Q 62 206 70 211 Q 77 213 78 212" fill="#CCCCCC"/><path d="M 134 106 L 127 109 Q 124 110 125 107 Q 125 106 127 103 Q 160 47 150 33 Q 148 28 152 27 Q 156 27 164 30 Q 171 35 172 37 Q 174 41 172 43 Q 169 47 165 55 Q 159 69 152 79 L 149 85" fill="#CCCCCC"/><path d="M 152 79 Q 155 79 179 74 Q 203 67 208 67 Q 216 69 218 72 Q 219 74 217 76 Q 215 78 173 87 Q 160 91 149 85" fill="#CCCCCC"/><path d="M 148 131 L 148 131 Q 142 137 133 147 Q 129 149 130 145 Q 134 138 137 133 Q 149 108 147 104 Q 146 102 148 101 Q 151 99 157 101 Q 163 103 166 106 Q 170 109 165 112 Q 162 115 152 126" fill="#CCCCCC"/><path d="M 162 134 Q 154 134 148 131 L 152 126 Q 173 123 191 117 Q 198 114 205 115 Q 212 117 213 120 Q 214 122 212 123 Q 212 123 174 133" fill="#CCCCCC"/><path d="M 161 173 Q 147 175 135 179 Q 131 180 126 179 Q 122 178 119 175 Q 115 171 120 171 Q 143 167 163 164 L 177 161 Q 199 156 214 153 Q 226 148 240 159 Q 244 162 243 164 Q 242 166 237 167 Q 200 167 174 171" fill="#CCCCCC"/><path d="M 163 208 L 145 222 Q 125 237 112 236 Q 109 235 112 234 Q 116 231 120 228 Q 148 212 161 173 L 163 164 Q 166 144 162 134 L 174 133 Q 178 134 182 138 Q 186 140 183 144 Q 179 151 177 161 L 174 171 Q 174 171 174 172 Q 174 172 174 173 L 172 181" fill="#CCCCCC"/><path d="M 174 173 Q 192 194 207 209 Q 223 222 252 237 Q 255 239 255 240 Q 255 241 253 242 Q 245 242 220 242 Q 213 242 209 237 Q 188 208 172 181" fill="#CCCCCC"/><path d="M 69 48 L 69 45 Q 69 41 70 40 Q 75 38 93 48 Q 101 53 102 59 Q 103 68 102 72 Q 100 75 96 75 Q 92 75 88 71 Q 82 62 76 55" fill="#0000ff" clip-path="url(#clip-mask-1)" /><path d="M 67 121 Q 63 121 59 122 Q 44 127 32 121 Q 25 117 35 115 Q 43 114 77 105 Q 102 95 110 96 Q 118 98 120 101 Q 122 103 119 106 Q 118 107 106 111 Q 92 114 80 117" fill="#0000ff" clip-path="url(#clip-mask-2)" /><path d="M 74 150 L 56 182 Q 30 213 16 216 Q 14 216 15 215 Q 70 154 67 121 L 80 117 Q 86 119 88 124 Q 88 126 86 127 Q 83 133 82 136 L 78 144" fill="#0000ff" clip-path="url(#clip-mask-3)" /><path d="M 82 136 Q 87 136 92 136 Q 102 133 112 142 Q 118 147 118 150 L 96 149 Q 93 145 86 145 Q 80 145 78 144" fill="#0000ff" clip-path="url(#clip-mask-4)" /><path d="M 118 150 Q 118 152 115 153 Q 109 159 107 179 Q 105 192 102 202 Q 96 223 86 231 Q 78 236 75 235 L 78 212 Q 85 209 90 192 Q 100 155 96 149" fill="#0000ff" clip-path="url(#clip-mask-5)" /><path d="M 75 235 Q 72 234 71 229 Q 69 220 63 213 Q 59 209 61 208 Q 62 206 70 211 Q 77 213 78 212" fill="#0000ff" clip-path="url(#clip-mask-6)" /><path d="M 134 106 L 127 109 Q 124 110 125 107 Q 125 106 127 103 Q 160 47 150 33 Q 148 28 152 27 Q 156 27 164 30 Q 171 35 172 37 Q 174 41 172 43 Q 169 47 165 55 Q 159 69 152 79 L 149 85" fill="#000080" clip-path="url(#clip-mask-7)" /><path d="M 152 79 Q 155 79 179 74 Q 203 67 208 67 Q 216 69 218 72 Q 219 74 217 76 Q 215 78 173 87 Q 160 91 149 85" fill="#000080" clip-path="url(#clip-mask-8)" /><path d="M 148 131 L 148 131 Q 142 137 133 147 Q 129 149 130 145 Q 134 138 137 133 Q 149 108 147 104 Q 146 102 148 101 Q 151 99 157 101 Q 163 103 166 106 Q 170 109 165 112 Q 162 115 152 126" fill="#000080" clip-path="url(#clip-mask-9)" /><path d="M 162 134 Q 154 134 148 131 L 152 126 Q 173 123 191 117 Q 198 114 205 115 Q 212 117 213 120 Q 214 122 212 123 Q 212 123 174 133" fill="#000080" clip-path="url(#clip-mask-10)" /><path d="M 161 173 Q 147 175 135 179 Q 131 180 126 179 Q 122 178 119 175 Q 115 171 120 171 Q 143 167 163 164 L 177 161 Q 199 156 214 153 Q 226 148 240 159 Q 244 162 243 164 Q 242 166 237 167 Q 200 167 174 171" fill="#000080" clip-path="url(#clip-mask-11)" /><path d="M 163 208 L 145 222 Q 125 237 112 236 Q 109 235 112 234 Q 116 231 120 228 Q 148 212 161 173 L 163 164 Q 166 144 162 134 L 174 133 Q 178 134 182 138 Q 186 140 183 144 Q 179 151 177 161 L 174 171 Q 174 171 174 172 Q 174 172 174 173 L 172 181" fill="#000080" clip-path="url(#clip-mask-12)" /><path d="M 174 173 Q 192 194 207 209 Q 223 222 252 237 Q 255 239 255 240 Q 255 241 253 242 Q 245 242 220 242 Q 213 242 209 237 Q 188 208 172 181" fill="#000080" clip-path="url(#clip-mask-13)" /></svg>