<svg xmlns="http://www.w3.org/2000/svg" xmlns:xlink="http://www.w3.org/1999/xlink" width="270" height="270"><defs><clipPath id="clip-mask-1"><rect x="72" y="52" width="24" height="169"><animate attributeName="y" from="-117" to="52" dur="0.626" begin="0; animate6.end + 1" id="animate1" fill="freeze"/></rect></clipPath><clipPath id="clip-mask-2"><rect x="93" y="40" width="101" height="31"><set attributeName="x" to="-8" begin="0; animate6.end + 1" /><animate attributeName="x" from="-8" to="93" dur="0.374" begin="animate1.end + 0.5" id="animate2" fill="freeze"/></rect></clipPath><clipPath id="clip-mask-3"><rect x="168" y="55" width="29" height="174"><set attributeName="y" to="-119" begin="0; animate6.end + 1" /><animate attributeName="y" from="-119" to="55" dur="0.644" begin="animate2.end" id="animate3" fill="freeze"/></rect></clipPath><clipPath id="clip-mask-4"><rect x="159" y="191" width="15" height="33"><set attributeName="x" to="174" begin="0; animate6.end + 1" /><animate attributeName="x" from="174" to="159" dur="0.056" begin="animate3.end" id="animate4" fill="freeze"/></rect></clipPath><clipPath id="clip-mask-5"><rect x="94" y="113" width="63" height="22"><set attributeName="x" to="31" begin="0; animate6.end + 1" /><animate attributeName="x" from="31" to="94" dur="0.233" begin="animate4.end + 0.5" id="animate5" fill="freeze"/></rect></clipPath><clipPath id="clip-mask-6"><rect x="90" y="187" width="78" height="21"><set attributeName="x" to="12" begin="0; animate6.end + 1" /><animate attributeName="x" from="12" to="90" dur="0.289" begin="animate5.end + 0.5" id="animate6" fill="freeze"/></rect></clipPath></defs><path d="M 0 0 L 270 270 M 270 0 L 0 270 M 135 0 L 135 270 M 0 135 L 270 135" stroke="#CCCCCC" /><path d="M 90 207 Q 89 214 86 217 Q 83 221 80 217 Q 76 214 74 203 Q 72 198 74 190 Q 84 158 82 91 Q 82 74 75 59 Q 72 56 73 54 Q 75 52 78 53 Q 86 55 93 60 L 96 71 Q 95 83 95 124 L 94 132 Q 94 184 92 197" fill="#CCCCCC"/><path d="M 168 60 Q 164 56 155 58 Q 133 63 108 68 Q 101 70 96 71 L 93 60 Q 143 51 162 42 Q 166 40 172 42 Q 188 49 194 55" fill="#CCCCCC"/><path d="M 173 191 Q 175 184 175 159 Q 177 67 168 60 L 194 55 Q 197 58 194 62 Q 189 69 190 79 Q 192 152 195 192 Q 196 206 191 218 Q 186 229 181 229 Q 177 229 174 224" fill="#CCCCCC"/><path d="M 168 195 Q 171 196 173 191 L 174 224 Q 168 213 159 202" fill="#CCCCCC"/><path d="M 95 124 Q 98 123 119 120 Q 140 113 147 115 Q 154 117 156 120 Q 157 122 155 124 Q 153 125 146 126 Q 130 129 115 133 Q 105 135 94 132" fill="#CCCCCC"/><path d="M 116 204 L 96 207 Q 93 208 90 207 L 92 197 Q 117 195 148 189 Q 157 187 162 190 Q 166 193 168 195 L 159 202" fill="#CCCCCC"/><path d="M 90 207 Q 89 214 86 217 Q 83 221 80 217 Q 76 214 74 203 Q 72 198 74 190 Q 84 158 82 91 Q 82 74 75 59 Q 72 56 73 54 Q 75 52 78 53 Q 86 55 93 60 L 96 71 Q 95 83 95 124 L 94 132 Q 94 184 92 197" fill="#0000ff" clip-path="url(#clip-mask-1)" /><path d="M 168 60 Q 164 56 155 58 Q 133 63 108 68 Q 101 70 96 71 L 93 60 Q 143 51 162 42 Q 166 40 172 42 Q 188 49 194 55" fill="#0000ff" clip-path="url(#clip-mask-2)" /><path d="M 173 191 Q 175 184 175 159 Q 177 67 168 60 L 194 55 Q 197 58 194 62 Q 189 69 190 79 Q 192 152 195 192 Q 196 206 191 218 Q 186 229 181 229 Q 177 229 174 224" fill="#0000ff" clip-path="url(#clip-mask-3)" /><path d="M 168 195 Q 171 196 173 191 L 174 224 Q 168 213 159 202" fill="#0000ff" clip-path="url(#clip-mask-4)" /><path d="M 95 124 Q 98 123 119 120 Q 140 113 147 115 Q 154 117 156 120 Q 157 122 155 124 Q 153 125 146 126 Q 130 129 115 133 Q 105 135 94 132" fill="#000080" clip-path="url(#clip-mask-5)" /><path d="M 116 204 L 96 207 Q 93 208 90 207 L 92 197 Q 117 195 148 189 Q 157 187 162 190 Q 166 193 168 195 L 159 202" fill="#0000ff" clip-path="url(#clip-mask-6)" /></svg>