<svg xmlns="http://www.w3.org/2000/svg" xmlns:xlink="http://www.w3.org/1999/xlink" width="270" height="270"><defs><clipPath id="clip-mask-1"><rect x="73" y="16" width="102" height="55"><animate attributeName="x" from="175" to="73" dur="0.378" begin="0; animate10.end + 1" id="animate1" fill="freeze"/></rect></clipPath><clipPath id="clip-mask-2"><rect x="55" y="22" width="24" height="71"><set attributeName="y" to="-49" begin="0; animate10.end + 1" /><animate attributeName="y" from="-49" to="22" dur="0.263" begin="animate1.end + 0.5" id="animate2" fill="freeze"/></rect></clipPath><clipPath id="clip-mask-3"><rect x="67" y="79" width="147" height="33"><set attributeName="x" to="-80" begin="0; animate10.end + 1" /><animate attributeName="x" from="-80" to="67" dur="0.544" begin="animate2.end" id="animate3" fill="freeze"/></rect></clipPath><clipPath id="clip-mask-4"><rect x="191" y="50" width="20" height="32"><set attributeName="y" to="82" begin="0; animate10.end + 1" /><animate attributeName="y" from="82" to="50" dur="0.119" begin="animate3.end" id="animate4" fill="freeze"/></rect></clipPath><clipPath id="clip-mask-5"><rect x="72" y="129" width="21" height="116"><set attributeName="y" to="13" begin="0; animate10.end + 1" /><animate attributeName="y" from="13" to="129" dur="0.430" begin="animate4.end + 0.5" id="animate5" fill="freeze"/></rect></clipPath><clipPath id="clip-mask-6"><rect x="90" y="119" width="89" height="25"><set attributeName="x" to="1" begin="0; animate10.end + 1" /><animate attributeName="x" from="1" to="90" dur="0.330" begin="animate5.end + 0.5" id="animate6" fill="freeze"/></rect></clipPath><clipPath id="clip-mask-7"><rect x="155" y="134" width="26" height="119"><set attributeName="y" to="15" begin="0; animate10.end + 1" /><animate attributeName="y" from="15" to="134" dur="0.441" begin="animate6.end" id="animate7" fill="freeze"/></rect></clipPath><clipPath id="clip-mask-8"><rect x="143" y="216" width="14" height="31"><set attributeName="x" to="157" begin="0; animate10.end + 1" /><animate attributeName="x" from="157" to="143" dur="0.052" begin="animate7.end" id="animate8" fill="freeze"/></rect></clipPath><clipPath id="clip-mask-9"><rect x="92" y="170" width="54" height="18"><set attributeName="x" to="38" begin="0; animate10.end + 1" /><animate attributeName="x" from="38" to="92" dur="0.200" begin="animate8.end + 0.5" id="animate9" fill="freeze"/></rect></clipPath><clipPath id="clip-mask-10"><rect x="91" y="213" width="66" height="34"><set attributeName="x" to="25" begin="0; animate10.end + 1" /><animate attributeName="x" from="25" to="91" dur="0.244" begin="animate9.end + 0.5" id="animate10" fill="freeze"/></rect></clipPath></defs><path d="M 0 0 L 270 270 M 270 0 L 0 270 M 135 0 L 135 270 M 0 135 L 270 135" stroke="#CCCCCC" /><path d="M 73 66 Q 94 56 114 48 Q 151 32 153 21 Q 153 16 157 17 Q 162 18 167 25 Q 173 32 174 38 Q 175 45 168 45 Q 156 46 123 57 Q 105 64 73 71" fill="#CCCCCC"/><path d="M 73 80 L 75 84 L 67 93 Q 61 85 61 51 Q 61 38 57 28 Q 55 24 58 23 Q 62 22 75 30 Q 79 34 77 42 Q 73 51 73 66 L 73 71" fill="#CCCCCC"/><path d="M 75 84 Q 77 89 88 93 Q 100 97 129 95 Q 183 92 191 79 L 211 82 Q 214 90 207 94 Q 195 101 166 107 Q 130 112 109 111 Q 77 108 67 93" fill="#CCCCCC"/><path d="M 191 79 Q 194 76 197 55 Q 197 50 199 51 Q 201 52 202 56 Q 206 73 211 82" fill="#CCCCCC"/><path d="M 90 238 L 88 242 Q 85 245 82 242 Q 80 239 78 236 Q 74 228 78 205 Q 82 159 74 135 Q 72 131 74 130 Q 77 129 80 130 Q 87 132 90 136 L 93 144 Q 92 145 92 179 L 92 187 Q 92 204 92 221 L 91 231" fill="#CCCCCC"/><path d="M 155 136 Q 152 133 144 135 Q 96 144 93 144 L 90 136 Q 130 130 150 121 Q 155 119 160 121 Q 174 128 179 134" fill="#CCCCCC"/><path d="M 156 218 Q 158 213 158 198 Q 160 141 155 136 L 179 134 Q 181 137 179 140 Q 174 146 174 155 Q 175 197 177 219 Q 177 232 172 243 Q 167 252 163 253 Q 160 253 157 247" fill="#CCCCCC"/><path d="M 143 216 Q 144 217 147 219 Q 148 220 149 220 Q 155 223 156 218 L 157 247" fill="#CCCCCC"/><path d="M 92 179 Q 126 170 132 171 Q 140 173 143 177 Q 146 181 139 182 Q 121 184 96 187 Q 93 188 92 187" fill="#CCCCCC"/><path d="M 92 221 Q 109 219 130 215 Q 139 213 143 216 L 157 247 Q 153 238 145 227 Q 109 228 94 230 Q 92 231 91 231" fill="#CCCCCC"/><path d="M 73 66 Q 94 56 114 48 Q 151 32 153 21 Q 153 16 157 17 Q 162 18 167 25 Q 173 32 174 38 Q 175 45 168 45 Q 156 46 123 57 Q 105 64 73 71" fill="#000080" clip-path="url(#clip-mask-1)" /><path d="M 73 80 L 75 84 L 67 93 Q 61 85 61 51 Q 61 38 57 28 Q 55 24 58 23 Q 62 22 75 30 Q 79 34 77 42 Q 73 51 73 66 L 73 71" fill="#000080" clip-path="url(#clip-mask-2)" /><path d="M 75 84 Q 77 89 88 93 Q 100 97 129 95 Q 183 92 191 79 L 211 82 Q 214 90 207 94 Q 195 101 166 107 Q 130 112 109 111 Q 77 108 67 93" fill="#000080" clip-path="url(#clip-mask-3)" /><path d="M 191 79 Q 194 76 197 55 Q 197 50 199 51 Q 201 52 202 56 Q 206 73 211 82" fill="#000080" clip-path="url(#clip-mask-4)" /><path d="M 90 238 L 88 242 Q 85 245 82 242 Q 80 239 78 236 Q 74 228 78 205 Q 82 159 74 135 Q 72 131 74 130 Q 77 129 80 130 Q 87 132 90 136 L 93 144 Q 92 145 92 179 L 92 187 Q 92 204 92 221 L 91 231" fill="#0000ff" clip-path="url(#clip-mask-5)" /><path d="M 155 136 Q 152 133 144 135 Q 96 144 93 144 L 90 136 Q 130 130 150 121 Q 155 119 160 121 Q 174 128 179 134" fill="#0000ff" clip-path="url(#clip-mask-6)" /><path d="M 156 218 Q 158 213 158 198 Q 160 141 155 136 L 179 134 Q 181 137 179 140 Q 174 146 174 155 Q 175 197 177 219 Q 177 232 172 243 Q 167 252 163 253 Q 160 253 157 247" fill="#0000ff" clip-path="url(#clip-mask-7)" /><path d="M 143 216 Q 144 217 147 219 Q 148 220 149 220 Q 155 223 156 218 L 157 247" fill="#0000ff" clip-path="url(#clip-mask-8)" /><path d="M 92 179 Q 126 170 132 171 Q 140 173 143 177 Q 146 181 139 182 Q 121 184 96 187 Q 93 188 92 187" fill="#0000ff" clip-path="url(#clip-mask-9)" /><path d="M 92 221 Q 109 219 130 215 Q 139 213 143 216 L 157 247 Q 153 238 145 227 Q 109 228 94 230 Q 92 231 91 231" fill="#0000ff" clip-path="url(#clip-mask-10)" /></svg>