<svg xmlns="http://www.w3.org/2000/svg" xmlns:xlink="http://www.w3.org/1999/xlink" width="270" height="270"><defs><clipPath id="clip-mask-1"><rect x="21" y="66" width="19" height="147"><animate attributeName="y" from="-81" to="66" dur="0.544" begin="0; animate12.end + 1" id="animate1" fill="freeze"/></rect></clipPath><clipPath id="clip-mask-2"><rect x="38" y="62" width="50" height="20"><set attributeName="x" to="-12" begin="0; animate12.end + 1" /><animate attributeName="x" from="-12" to="38" dur="0.185" begin="animate1.end + 0.5" id="animate2" fill="freeze"/></rect></clipPath><clipPath id="clip-mask-3"><rect x="67" y="71" width="23" height="144"><set attributeName="y" to="-73" begin="0; animate12.end + 1" /><animate attributeName="y" from="-73" to="71" dur="0.533" begin="animate2.end" id="animate3" fill="freeze"/></rect></clipPath><clipPath id="clip-mask-4"><rect x="63" y="186" width="6" height="22"><set attributeName="x" to="69" begin="0; animate12.end + 1" /><animate attributeName="x" from="69" to="63" dur="0.022" begin="animate3.end" id="animate4" fill="freeze"/></rect></clipPath><clipPath id="clip-mask-5"><rect x="40" y="125" width="28" height="12"><set attributeName="x" to="12" begin="0; animate12.end + 1" /><animate attributeName="x" from="12" to="40" dur="0.104" begin="animate4.end + 0.5" id="animate5" fill="freeze"/></rect></clipPath><clipPath id="clip-mask-6"><rect x="39" y="187" width="28" height="14"><set attributeName="x" to="11" begin="0; animate12.end + 1" /><animate attributeName="x" from="11" to="39" dur="0.104" begin="animate5.end + 0.5" id="animate6" fill="freeze"/></rect></clipPath><clipPath id="clip-mask-7"><rect x="96" y="98" width="26" height="56"><set attributeName="y" to="42" begin="0; animate12.end + 1" /><animate attributeName="y" from="42" to="98" dur="0.207" begin="animate6.end + 0.5" id="animate7" fill="freeze"/></rect></clipPath><clipPath id="clip-mask-8"><rect x="113" y="80" width="97" height="31"><set attributeName="x" to="16" begin="0; animate12.end + 1" /><animate attributeName="x" from="16" to="113" dur="0.359" begin="animate7.end + 0.5" id="animate8" fill="freeze"/></rect></clipPath><clipPath id="clip-mask-9"><rect x="177" y="96" width="37" height="49"><set attributeName="y" to="47" begin="0; animate12.end + 1" /><animate attributeName="y" from="47" to="96" dur="0.181" begin="animate8.end" id="animate9" fill="freeze"/></rect></clipPath><clipPath id="clip-mask-10"><rect x="86" y="134" width="156" height="33"><set attributeName="x" to="-70" begin="0; animate12.end + 1" /><animate attributeName="x" from="-70" to="86" dur="0.578" begin="animate9.end + 0.5" id="animate10" fill="freeze"/></rect></clipPath><clipPath id="clip-mask-11"><rect x="77" y="23" width="90" height="218"><set attributeName="y" to="-195" begin="0; animate12.end + 1" /><animate attributeName="y" from="-195" to="23" dur="0.807" begin="animate10.end + 0.5" id="animate11" fill="freeze"/></rect></clipPath><clipPath id="clip-mask-12"><rect x="151" y="159" width="97" height="87"><set attributeName="x" to="54" begin="0; animate12.end + 1" /><animate attributeName="x" from="54" to="151" dur="0.359" begin="animate11.end + 0.5" id="animate12" fill="freeze"/></rect></clipPath></defs><path d="M 0 0 L 270 270 M 270 0 L 0 270 M 135 0 L 135 270 M 0 135 L 270 135" stroke="#CCCCCC" /><path d="M 38 206 L 36 210 Q 33 213 30 210 Q 21 198 24 184 Q 32 151 28 97 Q 28 95 28 93 Q 28 91 22 72 Q 21 69 23 68 Q 25 66 28 68 Q 37 70 38 74 L 40 82 Q 40 105 40 127 L 40 137 Q 39 189 39 192 L 39 201" fill="#CCCCCC"/><path d="M 38 74 Q 49 70 62 65 Q 66 62 73 64 Q 86 69 88 71 L 67 76 Q 65 75 57 76 Q 49 79 43 81 Q 41 81 40 82" fill="#CCCCCC"/><path d="M 68 186 Q 71 153 71 94 Q 71 80 67 76 L 88 71 Q 90 74 87 79 Q 83 86 83 101 Q 83 156 85 182 Q 86 195 82 204 Q 78 214 75 214 Q 73 215 69 208" fill="#CCCCCC"/><path d="M 67 191 Q 68 189 68 186 L 69 208 Q 65 204 63 199" fill="#CCCCCC"/><path d="M 40 127 Q 49 125 56 125 Q 62 126 65 130 Q 68 133 62 135 Q 52 135 40 137" fill="#CCCCCC"/><path d="M 39 192 Q 61 187 65 189 Q 66 190 67 191 L 63 199 Q 46 200 39 201" fill="#CCCCCC"/><path d="M 118 111 Q 118 122 122 152 L 113 154 Q 107 125 105 118 Q 103 111 98 104 Q 96 101 98 99 Q 99 98 103 98 Q 108 100 113 103" fill="#CCCCCC"/><path d="M 145 106 Q 133 108 118 111 L 113 103 Q 129 100 145 97 L 157 94 Q 166 91 175 88 Q 189 80 210 96 L 183 101 Q 179 98 157 103" fill="#CCCCCC"/><path d="M 177 145 Q 182 129 185 110 Q 186 104 183 101 L 210 96 Q 214 102 210 106 Q 199 115 192 142" fill="#CCCCCC"/><path d="M 140 159 Q 122 162 107 166 Q 103 167 98 166 Q 93 165 90 161 Q 86 157 91 157 Q 102 155 113 154 L 122 152 Q 132 151 141 150 L 154 148 Q 157 147 159 147 Q 169 146 177 145 L 192 142 Q 199 140 205 139 Q 223 134 238 145 Q 242 149 240 151 Q 239 153 234 153 Q 179 153 153 157 Q 153 157 153 158" fill="#CCCCCC"/><path d="M 139 223 L 97 237 Q 85 241 80 240 Q 77 240 77 239 Q 77 238 80 236 Q 93 228 103 221 Q 132 199 140 159 L 141 150 Q 142 144 143 138 Q 144 122 145 106 L 145 97 Q 145 75 144 53 Q 144 40 137 31 Q 135 27 138 25 Q 140 23 147 25 Q 158 28 164 33 Q 167 36 165 40 Q 157 57 157 94 L 157 103 Q 156 117 156 132 Q 155 140 154 148 L 153 158 Q 153 158 153 159 L 151 170" fill="#CCCCCC"/><path d="M 153 159 Q 167 178 194 206 Q 204 215 241 234 Q 248 238 248 240 Q 248 241 242 242 Q 227 243 211 246 Q 205 246 199 238 Q 174 210 151 170" fill="#CCCCCC"/><path d="M 38 206 L 36 210 Q 33 213 30 210 Q 21 198 24 184 Q 32 151 28 97 Q 28 95 28 93 Q 28 91 22 72 Q 21 69 23 68 Q 25 66 28 68 Q 37 70 38 74 L 40 82 Q 40 105 40 127 L 40 137 Q 39 189 39 192 L 39 201" fill="#0000ff" clip-path="url(#clip-mask-1)" /><path d="M 38 74 Q 49 70 62 65 Q 66 62 73 64 Q 86 69 88 71 L 67 76 Q 65 75 57 76 Q 49 79 43 81 Q 41 81 40 82" fill="#0000ff" clip-path="url(#clip-mask-2)" /><path d="M 68 186 Q 71 153 71 94 Q 71 80 67 76 L 88 71 Q 90 74 87 79 Q 83 86 83 101 Q 83 156 85 182 Q 86 195 82 204 Q 78 214 75 214 Q 73 215 69 208" fill="#0000ff" clip-path="url(#clip-mask-3)" /><path d="M 67 191 Q 68 189 68 186 L 69 208 Q 65 204 63 199" fill="#0000ff" clip-path="url(#clip-mask-4)" /><path d="M 40 127 Q 49 125 56 125 Q 62 126 65 130 Q 68 133 62 135 Q 52 135 40 137" fill="#0000ff" clip-path="url(#clip-mask-5)" /><path d="M 39 192 Q 61 187 65 189 Q 66 190 67 191 L 63 199 Q 46 200 39 201" fill="#0000ff" clip-path="url(#clip-mask-6)" /><path d="M 118 111 Q 118 122 122 152 L 113 154 Q 107 125 105 118 Q 103 111 98 104 Q 96 101 98 99 Q 99 98 103 98 Q 108 100 113 103" fill="#000080" clip-path="url(#clip-mask-7)" /><path d="M 145 106 Q 133 108 118 111 L 113 103 Q 129 100 145 97 L 157 94 Q 166 91 175 88 Q 189 80 210 96 L 183 101 Q 179 98 157 103" fill="#000080" clip-path="url(#clip-mask-8)" /><path d="M 177 145 Q 182 129 185 110 Q 186 104 183 101 L 210 96 Q 214 102 210 106 Q 199 115 192 142" fill="#000080" clip-path="url(#clip-mask-9)" /><path d="M 140 159 Q 122 162 107 166 Q 103 167 98 166 Q 93 165 90 161 Q 86 157 91 157 Q 102 155 113 154 L 122 152 Q 132 151 141 150 L 154 148 Q 157 147 159 147 Q 169 146 177 145 L 192 142 Q 199 140 205 139 Q 223 134 238 145 Q 242 149 240 151 Q 239 153 234 153 Q 179 153 153 157 Q 153 157 153 158" fill="#000080" clip-path="url(#clip-mask-10)" /><path d="M 139 223 L 97 237 Q 85 241 80 240 Q 77 240 77 239 Q 77 238 80 236 Q 93 228 103 221 Q 132 199 140 159 L 141 150 Q 142 144 143 138 Q 144 122 145 106 L 145 97 Q 145 75 144 53 Q 144 40 137 31 Q 135 27 138 25 Q 140 23 147 25 Q 158 28 164 33 Q 167 36 165 40 Q 157 57 157 94 L 157 103 Q 156 117 156 132 Q 155 140 154 148 L 153 158 Q 153 158 153 159 L 151 170" fill="#000080" clip-path="url(#clip-mask-11)" /><path d="M 153 159 Q 167 178 194 206 Q 204 215 241 234 Q 248 238 248 240 Q 248 241 242 242 Q 227 243 211 246 Q 205 246 199 238 Q 174 210 151 170" fill="#000080" clip-path="url(#clip-mask-12)" /></svg>