<svg xmlns="http://www.w3.org/2000/svg" xmlns:xlink="http://www.w3.org/1999/xlink" width="270" height="270"><defs><clipPath id="clip-mask-1"><rect x="76" y="26" width="31" height="66"><animate attributeName="y" from="-40" to="26" dur="0.244" begin="0; animate15.end + 1" id="animate1" fill="freeze"/></rect></clipPath><clipPath id="clip-mask-2"><rect x="91" y="15" width="104" height="22"><set attributeName="x" to="-13" begin="0; animate15.end + 1" /><animate attributeName="x" from="-13" to="91" dur="0.385" begin="animate1.end + 0.5" id="animate2" fill="freeze"/></rect></clipPath><clipPath id="clip-mask-3"><rect x="157" y="29" width="40" height="61"><set attributeName="y" to="-32" begin="0; animate15.end + 1" /><animate attributeName="y" from="-32" to="29" dur="0.226" begin="animate2.end" id="animate3" fill="freeze"/></rect></clipPath><clipPath id="clip-mask-4"><rect x="100" y="45" width="54" height="16"><set attributeName="x" to="46" begin="0; animate15.end + 1" /><animate attributeName="x" from="46" to="100" dur="0.200" begin="animate3.end + 0.5" id="animate4" fill="freeze"/></rect></clipPath><clipPath id="clip-mask-5"><rect x="107" y="70" width="52" height="15"><set attributeName="x" to="55" begin="0; animate15.end + 1" /><animate attributeName="x" from="55" to="107" dur="0.193" begin="animate4.end + 0.5" id="animate5" fill="freeze"/></rect></clipPath><clipPath id="clip-mask-6"><rect x="119" y="84" width="23" height="23"><set attributeName="y" to="61" begin="0; animate15.end + 1" /><animate attributeName="y" from="61" to="84" dur="0.085" begin="animate5.end + 0.5" id="animate6" fill="freeze"/></rect></clipPath><clipPath id="clip-mask-7"><rect x="25" y="91" width="219" height="40"><set attributeName="x" to="-194" begin="0; animate15.end + 1" /><animate attributeName="x" from="-194" to="25" dur="0.811" begin="animate6.end + 0.5" id="animate7" fill="freeze"/></rect></clipPath><clipPath id="clip-mask-8"><rect x="82" y="135" width="25" height="47"><set attributeName="y" to="88" begin="0; animate15.end + 1" /><animate attributeName="y" from="88" to="135" dur="0.174" begin="animate7.end + 0.5" id="animate8" fill="freeze"/></rect></clipPath><clipPath id="clip-mask-9"><rect x="87" y="119" width="96" height="25"><set attributeName="x" to="-9" begin="0; animate15.end + 1" /><animate attributeName="x" from="-9" to="87" dur="0.356" begin="animate8.end + 0.5" id="animate9" fill="freeze"/></rect></clipPath><clipPath id="clip-mask-10"><rect x="154" y="135" width="32" height="26"><set attributeName="y" to="109" begin="0; animate15.end + 1" /><animate attributeName="y" from="109" to="135" dur="0.096" begin="animate9.end" id="animate10" fill="freeze"/></rect></clipPath><clipPath id="clip-mask-11"><rect x="106" y="160" width="67" height="16"><set attributeName="x" to="39" begin="0; animate15.end + 1" /><animate attributeName="x" from="39" to="106" dur="0.248" begin="animate10.end + 0.5" id="animate11" fill="freeze"/></rect></clipPath><clipPath id="clip-mask-12"><rect x="125" y="173" width="19" height="81"><set attributeName="y" to="92" begin="0; animate15.end + 1" /><animate attributeName="y" from="92" to="173" dur="0.300" begin="animate11.end + 0.5" id="animate12" fill="freeze"/></rect></clipPath><clipPath id="clip-mask-13"><rect x="101" y="224" width="26" height="27"><set attributeName="x" to="127" begin="0; animate15.end + 1" /><animate attributeName="x" from="127" to="101" dur="0.096" begin="animate12.end" id="animate13" fill="freeze"/></rect></clipPath><clipPath id="clip-mask-14"><rect x="58" y="186" width="30" height="46"><set attributeName="y" to="140" begin="0; animate15.end + 1" /><animate attributeName="y" from="140" to="186" dur="0.170" begin="animate13.end + 0.5" id="animate14" fill="freeze"/></rect></clipPath><clipPath id="clip-mask-15"><rect x="163" y="184" width="53" height="44"><set attributeName="x" to="110" begin="0; animate15.end + 1" /><animate attributeName="x" from="110" to="163" dur="0.196" begin="animate14.end + 0.5" id="animate15" fill="freeze"/></rect></clipPath></defs><path d="M 0 0 L 270 270 M 270 0 L 0 270 M 135 0 L 135 270 M 0 135 L 270 135" stroke="#CCCCCC" /><path d="M 107 85 Q 107 87 106 88 Q 106 92 101 87 Q 96 82 94 74 Q 87 48 79 33 Q 76 29 78 27 Q 78 26 81 26 Q 88 27 91 28 L 96 37 Q 97 42 100 54 L 102 61 Q 106 76 107 79" fill="#CCCCCC"/><path d="M 169 29 Q 166 26 158 27 Q 118 31 96 37 L 91 28 Q 103 27 116 24 Q 151 19 158 19 Q 175 15 180 18 Q 191 25 195 30" fill="#CCCCCC"/><path d="M 159 71 Q 164 67 171 36 Q 172 32 169 29 L 195 30 Q 197 34 194 37 Q 187 43 184 51 Q 175 80 171 85 Q 167 90 164 88 Q 160 86 157 80" fill="#CCCCCC"/><path d="M 100 54 Q 139 45 143 46 Q 149 47 152 51 Q 154 54 148 54 Q 129 57 104 61 Q 103 61 102 61" fill="#CCCCCC"/><path d="M 119 85 Q 108 85 107 85 L 107 79 Q 153 70 158 71 Q 159 71 159 71 L 157 80 Q 143 81 127 84" fill="#CCCCCC"/><path d="M 131 106 L 131 106 Q 119 85 119 85 L 127 84 Q 132 86 136 89 Q 142 93 142 97 Q 142 103 141 106 L 133 107" fill="#CCCCCC"/><path d="M 141 106 Q 183 100 210 95 Q 222 91 240 104 Q 244 108 243 111 Q 241 114 235 114 Q 229 113 222 113 Q 114 113 49 130 Q 44 131 38 130 Q 33 128 29 124 Q 25 119 31 119 Q 85 113 132 107 Q 132 107 133 107" fill="#CCCCCC"/><path d="M 107 176 Q 107 177 106 178 Q 106 182 101 177 Q 97 174 96 169 Q 91 152 85 142 Q 82 138 84 136 Q 84 135 87 135 L 102 144 Q 103 150 106 167 Q 106 168 106 168" fill="#CCCCCC"/><path d="M 159 137 Q 157 135 151 136 Q 115 142 102 144 L 87 135 Q 121 135 153 125 Q 164 119 183 135" fill="#CCCCCC"/><path d="M 154 160 Q 157 152 160 142 Q 161 139 159 137 L 183 135 Q 186 140 182 144 Q 175 146 167 161" fill="#CCCCCC"/><path d="M 107 176 L 107 176 L 106 168 Q 127 166 154 160 L 167 161 Q 173 165 173 167 Q 173 169 170 169 Q 149 171 135 173 L 125 174" fill="#CCCCCC"/><path d="M 135 173 Q 137 174 140 177 Q 144 182 142 193 Q 142 200 142 220 Q 143 235 139 244 Q 136 252 133 253 Q 130 254 126 251 L 127 224 Q 128 222 128 212 Q 129 184 126 175 Q 125 174 125 174" fill="#CCCCCC"/><path d="M 126 251 Q 120 243 104 230 Q 101 228 101 227 Q 102 225 105 225 Q 112 226 119 227 Q 126 228 127 224" fill="#CCCCCC"/><path d="M 83 186 L 85 186 Q 87 187 88 189 Q 88 196 85 204 Q 81 223 67 230 Q 61 232 60 227 Q 58 217 64 210 Q 73 200 81 188" fill="#CCCCCC"/><path d="M 163 191 L 163 188 Q 163 184 166 186 Q 207 196 211 210 Q 216 221 213 225 Q 211 228 209 228 Q 205 227 201 222 Q 182 205 166 194" fill="#CCCCCC"/><path d="M 107 85 Q 107 87 106 88 Q 106 92 101 87 Q 96 82 94 74 Q 87 48 79 33 Q 76 29 78 27 Q 78 26 81 26 Q 88 27 91 28 L 96 37 Q 97 42 100 54 L 102 61 Q 106 76 107 79" fill="#0000ff" clip-path="url(#clip-mask-1)" /><path d="M 169 29 Q 166 26 158 27 Q 118 31 96 37 L 91 28 Q 103 27 116 24 Q 151 19 158 19 Q 175 15 180 18 Q 191 25 195 30" fill="#0000ff" clip-path="url(#clip-mask-2)" /><path d="M 159 71 Q 164 67 171 36 Q 172 32 169 29 L 195 30 Q 197 34 194 37 Q 187 43 184 51 Q 175 80 171 85 Q 167 90 164 88 Q 160 86 157 80" fill="#0000ff" clip-path="url(#clip-mask-3)" /><path d="M 100 54 Q 139 45 143 46 Q 149 47 152 51 Q 154 54 148 54 Q 129 57 104 61 Q 103 61 102 61" fill="#0000ff" clip-path="url(#clip-mask-4)" /><path d="M 119 85 Q 108 85 107 85 L 107 79 Q 153 70 158 71 Q 159 71 159 71 L 157 80 Q 143 81 127 84" fill="#0000ff" clip-path="url(#clip-mask-5)" /><path d="M 131 106 L 131 106 Q 119 85 119 85 L 127 84 Q 132 86 136 89 Q 142 93 142 97 Q 142 103 141 106 L 133 107" fill="#000080" clip-path="url(#clip-mask-6)" /><path d="M 141 106 Q 183 100 210 95 Q 222 91 240 104 Q 244 108 243 111 Q 241 114 235 114 Q 229 113 222 113 Q 114 113 49 130 Q 44 131 38 130 Q 33 128 29 124 Q 25 119 31 119 Q 85 113 132 107 Q 132 107 133 107" fill="#000080" clip-path="url(#clip-mask-7)" /><path d="M 107 176 Q 107 177 106 178 Q 106 182 101 177 Q 97 174 96 169 Q 91 152 85 142 Q 82 138 84 136 Q 84 135 87 135 L 102 144 Q 103 150 106 167 Q 106 168 106 168" fill="#000080" clip-path="url(#clip-mask-8)" /><path d="M 159 137 Q 157 135 151 136 Q 115 142 102 144 L 87 135 Q 121 135 153 125 Q 164 119 183 135" fill="#000080" clip-path="url(#clip-mask-9)" /><path d="M 154 160 Q 157 152 160 142 Q 161 139 159 137 L 183 135 Q 186 140 182 144 Q 175 146 167 161" fill="#000080" clip-path="url(#clip-mask-10)" /><path d="M 107 176 L 107 176 L 106 168 Q 127 166 154 160 L 167 161 Q 173 165 173 167 Q 173 169 170 169 Q 149 171 135 173 L 125 174" fill="#000080" clip-path="url(#clip-mask-11)" /><path d="M 135 173 Q 137 174 140 177 Q 144 182 142 193 Q 142 200 142 220 Q 143 235 139 244 Q 136 252 133 253 Q 130 254 126 251 L 127 224 Q 128 222 128 212 Q 129 184 126 175 Q 125 174 125 174" fill="#000080" clip-path="url(#clip-mask-12)" /><path d="M 126 251 Q 120 243 104 230 Q 101 228 101 227 Q 102 225 105 225 Q 112 226 119 227 Q 126 228 127 224" fill="#000080" clip-path="url(#clip-mask-13)" /><path d="M 83 186 L 85 186 Q 87 187 88 189 Q 88 196 85 204 Q 81 223 67 230 Q 61 232 60 227 Q 58 217 64 210 Q 73 200 81 188" fill="#000080" clip-path="url(#clip-mask-14)" /><path d="M 163 191 L 163 188 Q 163 184 166 186 Q 207 196 211 210 Q 216 221 213 225 Q 211 228 209 228 Q 205 227 201 222 Q 182 205 166 194" fill="#000080" clip-path="url(#clip-mask-15)" /></svg>