<svg xmlns="http://www.w3.org/2000/svg" xmlns:xlink="http://www.w3.org/1999/xlink" width="270" height="270"><defs><clipPath id="clip-mask-1"><rect x="50" y="14" width="57" height="73"><animate attributeName="y" from="-59" to="14" dur="0.270" begin="0; animate15.end + 1" id="animate1" fill="freeze"/></rect></clipPath><clipPath id="clip-mask-2"><rect x="82" y="42" width="68" height="23"><set attributeName="x" to="14" begin="0; animate15.end + 1" /><animate attributeName="x" from="14" to="82" dur="0.252" begin="animate1.end + 0.5" id="animate2" fill="freeze"/></rect></clipPath><clipPath id="clip-mask-3"><rect x="24" y="79" width="124" height="39"><set attributeName="x" to="-100" begin="0; animate15.end + 1" /><animate attributeName="x" from="-100" to="24" dur="0.459" begin="animate2.end + 0.5" id="animate3" fill="freeze"/></rect></clipPath><clipPath id="clip-mask-4"><rect x="32" y="63" width="85" height="108"><set attributeName="y" to="-45" begin="0; animate15.end + 1" /><animate attributeName="y" from="-45" to="63" dur="0.400" begin="animate3.end + 0.5" id="animate4" fill="freeze"/></rect></clipPath><clipPath id="clip-mask-5"><rect x="110" y="109" width="29" height="29"><set attributeName="x" to="81" begin="0; animate15.end + 1" /><animate attributeName="x" from="81" to="110" dur="0.107" begin="animate4.end + 0.5" id="animate5" fill="freeze"/></rect></clipPath><clipPath id="clip-mask-6"><rect x="150" y="65" width="24" height="64"><set attributeName="y" to="1" begin="0; animate15.end + 1" /><animate attributeName="y" from="1" to="65" dur="0.237" begin="animate5.end + 0.5" id="animate6" fill="freeze"/></rect></clipPath><clipPath id="clip-mask-7"><rect x="165" y="53" width="74" height="24"><set attributeName="x" to="91" begin="0; animate15.end + 1" /><animate attributeName="x" from="91" to="165" dur="0.274" begin="animate6.end + 0.5" id="animate7" fill="freeze"/></rect></clipPath><clipPath id="clip-mask-8"><rect x="207" y="67" width="38" height="39"><set attributeName="y" to="28" begin="0; animate15.end + 1" /><animate attributeName="y" from="28" to="67" dur="0.144" begin="animate7.end" id="animate8" fill="freeze"/></rect></clipPath><clipPath id="clip-mask-9"><rect x="173" y="103" width="54" height="15"><set attributeName="x" to="119" begin="0; animate15.end + 1" /><animate attributeName="x" from="119" to="173" dur="0.200" begin="animate8.end + 0.5" id="animate9" fill="freeze"/></rect></clipPath><clipPath id="clip-mask-10"><rect x="93" y="147" width="19" height="98"><set attributeName="y" to="49" begin="0; animate15.end + 1" /><animate attributeName="y" from="49" to="147" dur="0.363" begin="animate9.end + 0.5" id="animate10" fill="freeze"/></rect></clipPath><clipPath id="clip-mask-11"><rect x="108" y="137" width="83" height="24"><set attributeName="x" to="25" begin="0; animate15.end + 1" /><animate attributeName="x" from="25" to="108" dur="0.307" begin="animate10.end + 0.5" id="animate11" fill="freeze"/></rect></clipPath><clipPath id="clip-mask-12"><rect x="169" y="152" width="24" height="103"><set attributeName="y" to="49" begin="0; animate15.end + 1" /><animate attributeName="y" from="49" to="152" dur="0.381" begin="animate11.end" id="animate12" fill="freeze"/></rect></clipPath><clipPath id="clip-mask-13"><rect x="156" y="223" width="14" height="28"><set attributeName="x" to="170" begin="0; animate15.end + 1" /><animate attributeName="x" from="170" to="156" dur="0.052" begin="animate12.end" id="animate13" fill="freeze"/></rect></clipPath><clipPath id="clip-mask-14"><rect x="111" y="180" width="52" height="16"><set attributeName="x" to="59" begin="0; animate15.end + 1" /><animate attributeName="x" from="59" to="111" dur="0.193" begin="animate13.end + 0.5" id="animate14" fill="freeze"/></rect></clipPath><clipPath id="clip-mask-15"><rect x="108" y="217" width="56" height="16"><set attributeName="x" to="52" begin="0; animate15.end + 1" /><animate attributeName="x" from="52" to="108" dur="0.207" begin="animate14.end + 0.5" id="animate15" fill="freeze"/></rect></clipPath></defs><path d="M 0 0 L 270 270 M 270 0 L 0 270 M 135 0 L 135 270 M 0 135 L 270 135" stroke="#CCCCCC" /><path d="M 82 63 Q 63 85 53 85 Q 50 87 52 83 Q 60 72 62 71 Q 88 42 85 19 Q 84 15 87 14 Q 94 14 104 22 Q 107 25 105 29 Q 102 32 87 57" fill="#CCCCCC"/><path d="M 94 65 Q 87 65 82 63 L 87 57 Q 109 52 126 46 Q 133 42 140 43 Q 147 45 149 47 Q 150 49 148 51 Q 146 52 106 63" fill="#CCCCCC"/><path d="M 74 106 L 48 114 Q 37 118 28 111 Q 24 108 25 105 Q 25 103 28 103 Q 48 100 94 90 L 109 86 Q 119 83 130 81 Q 136 79 143 82 Q 148 84 147 88 Q 147 89 143 90 Q 123 93 106 97 L 92 101" fill="#CCCCCC"/><path d="M 94 90 Q 98 73 94 65 L 106 63 Q 110 65 114 69 Q 117 71 115 75 Q 111 81 109 86 L 106 97 Q 105 100 104 104 Q 95 138 69 155 Q 49 171 35 169 Q 32 168 35 166 Q 39 164 43 162 Q 78 144 92 101" fill="#CCCCCC"/><path d="M 111 116 L 111 113 Q 110 110 112 110 Q 115 109 118 111 Q 136 119 139 128 Q 139 133 137 135 Q 135 138 131 137 Q 124 134 114 120" fill="#CCCCCC"/><path d="M 174 122 L 173 125 Q 171 129 167 123 Q 162 118 162 111 Q 159 87 152 72 Q 150 67 152 66 Q 153 65 156 66 Q 162 67 165 68 L 169 77 Q 170 85 173 109 Q 173 110 173 110 L 174 118" fill="#CCCCCC"/><path d="M 216 73 Q 214 68 204 70 Q 187 73 169 77 L 165 68 Q 193 65 209 60 Q 220 53 226 57 Q 234 63 239 67" fill="#CCCCCC"/><path d="M 207 103 Q 211 93 215 84 Q 218 74 216 73 L 239 67 Q 245 72 238 79 Q 230 85 222 106" fill="#CCCCCC"/><path d="M 173 110 Q 188 108 207 103 L 222 106 Q 227 109 227 110 Q 226 113 224 113 Q 199 113 177 118 Q 175 118 174 118" fill="#CCCCCC"/><path d="M 107 238 L 105 242 Q 102 245 99 242 Q 97 238 94 230 Q 94 228 97 211 Q 103 174 95 153 Q 93 150 94 149 Q 95 147 97 147 Q 103 149 108 152 L 112 161 Q 111 167 111 188 L 111 196 Q 111 219 110 224 L 108 233" fill="#CCCCCC"/><path d="M 108 152 Q 147 147 164 140 Q 168 137 173 140 Q 186 147 191 152 L 169 154 Q 166 151 159 152 Q 141 156 121 159 Q 116 160 112 161" fill="#CCCCCC"/><path d="M 169 223 Q 171 220 171 206 Q 173 158 169 154 L 191 152 Q 193 154 191 157 Q 186 163 187 171 Q 187 206 188 225 Q 189 237 184 247 Q 179 255 175 255 Q 172 255 170 251" fill="#CCCCCC"/><path d="M 164 226 Q 168 228 169 223 L 170 251 Q 164 241 156 230" fill="#CCCCCC"/><path d="M 111 188 Q 145 180 151 181 Q 158 182 161 187 Q 163 190 156 191 Q 137 193 112 196 Q 111 196 111 196" fill="#CCCCCC"/><path d="M 110 224 Q 126 222 145 218 Q 153 217 157 220 Q 162 223 164 226 L 156 230 Q 124 231 108 233" fill="#CCCCCC"/><path d="M 82 63 Q 63 85 53 85 Q 50 87 52 83 Q 60 72 62 71 Q 88 42 85 19 Q 84 15 87 14 Q 94 14 104 22 Q 107 25 105 29 Q 102 32 87 57" fill="#000080" clip-path="url(#clip-mask-1)" /><path d="M 94 65 Q 87 65 82 63 L 87 57 Q 109 52 126 46 Q 133 42 140 43 Q 147 45 149 47 Q 150 49 148 51 Q 146 52 106 63" fill="#000080" clip-path="url(#clip-mask-2)" /><path d="M 74 106 L 48 114 Q 37 118 28 111 Q 24 108 25 105 Q 25 103 28 103 Q 48 100 94 90 L 109 86 Q 119 83 130 81 Q 136 79 143 82 Q 148 84 147 88 Q 147 89 143 90 Q 123 93 106 97 L 92 101" fill="#000080" clip-path="url(#clip-mask-3)" /><path d="M 94 90 Q 98 73 94 65 L 106 63 Q 110 65 114 69 Q 117 71 115 75 Q 111 81 109 86 L 106 97 Q 105 100 104 104 Q 95 138 69 155 Q 49 171 35 169 Q 32 168 35 166 Q 39 164 43 162 Q 78 144 92 101" fill="#000080" clip-path="url(#clip-mask-4)" /><path d="M 111 116 L 111 113 Q 110 110 112 110 Q 115 109 118 111 Q 136 119 139 128 Q 139 133 137 135 Q 135 138 131 137 Q 124 134 114 120" fill="#000080" clip-path="url(#clip-mask-5)" /><path d="M 174 122 L 173 125 Q 171 129 167 123 Q 162 118 162 111 Q 159 87 152 72 Q 150 67 152 66 Q 153 65 156 66 Q 162 67 165 68 L 169 77 Q 170 85 173 109 Q 173 110 173 110 L 174 118" fill="#000080" clip-path="url(#clip-mask-6)" /><path d="M 216 73 Q 214 68 204 70 Q 187 73 169 77 L 165 68 Q 193 65 209 60 Q 220 53 226 57 Q 234 63 239 67" fill="#000080" clip-path="url(#clip-mask-7)" /><path d="M 207 103 Q 211 93 215 84 Q 218 74 216 73 L 239 67 Q 245 72 238 79 Q 230 85 222 106" fill="#000080" clip-path="url(#clip-mask-8)" /><path d="M 173 110 Q 188 108 207 103 L 222 106 Q 227 109 227 110 Q 226 113 224 113 Q 199 113 177 118 Q 175 118 174 118" fill="#000080" clip-path="url(#clip-mask-9)" /><path d="M 107 238 L 105 242 Q 102 245 99 242 Q 97 238 94 230 Q 94 228 97 211 Q 103 174 95 153 Q 93 150 94 149 Q 95 147 97 147 Q 103 149 108 152 L 112 161 Q 111 167 111 188 L 111 196 Q 111 219 110 224 L 108 233" fill="#0000ff" clip-path="url(#clip-mask-10)" /><path d="M 108 152 Q 147 147 164 140 Q 168 137 173 140 Q 186 147 191 152 L 169 154 Q 166 151 159 152 Q 141 156 121 159 Q 116 160 112 161" fill="#0000ff" clip-path="url(#clip-mask-11)" /><path d="M 169 223 Q 171 220 171 206 Q 173 158 169 154 L 191 152 Q 193 154 191 157 Q 186 163 187 171 Q 187 206 188 225 Q 189 237 184 247 Q 179 255 175 255 Q 172 255 170 251" fill="#0000ff" clip-path="url(#clip-mask-12)" /><path d="M 164 226 Q 168 228 169 223 L 170 251 Q 164 241 156 230" fill="#0000ff" clip-path="url(#clip-mask-13)" /><path d="M 111 188 Q 145 180 151 181 Q 158 182 161 187 Q 163 190 156 191 Q 137 193 112 196 Q 111 196 111 196" fill="#0000ff" clip-path="url(#clip-mask-14)" /><path d="M 110 224 Q 126 222 145 218 Q 153 217 157 220 Q 162 223 164 226 L 156 230 Q 124 231 108 233" fill="#0000ff" clip-path="url(#clip-mask-15)" /></svg>