<svg xmlns="http://www.w3.org/2000/svg" xmlns:xlink="http://www.w3.org/1999/xlink" width="270" height="270"><defs><clipPath id="clip-mask-1"><rect x="26" y="52" width="19" height="139"><animate attributeName="y" from="-87" to="52" dur="0.515" begin="0; animate21.end + 1" id="animate1" fill="freeze"/></rect></clipPath><clipPath id="clip-mask-2"><rect x="42" y="47" width="46" height="17"><set attributeName="x" to="-4" begin="0; animate21.end + 1" /><animate attributeName="x" from="-4" to="42" dur="0.170" begin="animate1.end + 0.5" id="animate2" fill="freeze"/></rect></clipPath><clipPath id="clip-mask-3"><rect x="65" y="56" width="25" height="133"><set attributeName="y" to="-77" begin="0; animate21.end + 1" /><animate attributeName="y" from="-77" to="56" dur="0.493" begin="animate2.end" id="animate3" fill="freeze"/></rect></clipPath><clipPath id="clip-mask-4"><rect x="44" y="107" width="25" height="12"><set attributeName="x" to="19" begin="0; animate21.end + 1" /><animate attributeName="x" from="19" to="44" dur="0.093" begin="animate3.end + 0.5" id="animate4" fill="freeze"/></rect></clipPath><clipPath id="clip-mask-5"><rect x="42" y="166" width="25" height="12"><set attributeName="x" to="17" begin="0; animate21.end + 1" /><animate attributeName="x" from="17" to="42" dur="0.093" begin="animate4.end + 0.5" id="animate5" fill="freeze"/></rect></clipPath><clipPath id="clip-mask-6"><rect x="149" y="12" width="32" height="25"><set attributeName="x" to="117" begin="0; animate21.end + 1" /><animate attributeName="x" from="117" to="149" dur="0.119" begin="animate5.end + 0.5" id="animate6" fill="freeze"/></rect></clipPath><clipPath id="clip-mask-7"><rect x="122" y="39" width="97" height="27"><set attributeName="x" to="25" begin="0; animate21.end + 1" /><animate attributeName="x" from="25" to="122" dur="0.359" begin="animate6.end + 0.5" id="animate7" fill="freeze"/></rect></clipPath><clipPath id="clip-mask-8"><rect x="57" y="50" width="67" height="193"><set attributeName="y" to="-143" begin="0; animate21.end + 1" /><animate attributeName="y" from="-143" to="50" dur="0.715" begin="animate7.end + 0.5" id="animate8" fill="freeze"/></rect></clipPath><clipPath id="clip-mask-9"><rect x="129" y="74" width="87" height="25"><set attributeName="x" to="42" begin="0; animate21.end + 1" /><animate attributeName="x" from="42" to="129" dur="0.322" begin="animate8.end + 0.5" id="animate9" fill="freeze"/></rect></clipPath><clipPath id="clip-mask-10"><rect x="140" y="68" width="19" height="54"><set attributeName="y" to="14" begin="0; animate21.end + 1" /><animate attributeName="y" from="14" to="68" dur="0.200" begin="animate9.end + 0.5" id="animate10" fill="freeze"/></rect></clipPath><clipPath id="clip-mask-11"><rect x="177" y="56" width="20" height="49"><set attributeName="y" to="7" begin="0; animate21.end + 1" /><animate attributeName="y" from="7" to="56" dur="0.181" begin="animate10.end + 0.5" id="animate11" fill="freeze"/></rect></clipPath><clipPath id="clip-mask-12"><rect x="159" y="105" width="33" height="12"><set attributeName="x" to="126" begin="0; animate21.end + 1" /><animate attributeName="x" from="126" to="159" dur="0.122" begin="animate11.end + 0.5" id="animate12" fill="freeze"/></rect></clipPath><clipPath id="clip-mask-13"><rect x="115" y="109" width="128" height="31"><set attributeName="x" to="-13" begin="0; animate21.end + 1" /><animate attributeName="x" from="-13" to="115" dur="0.474" begin="animate12.end + 0.5" id="animate13" fill="freeze"/></rect></clipPath><clipPath id="clip-mask-14"><rect x="124" y="150" width="24" height="60"><set attributeName="y" to="90" begin="0; animate21.end + 1" /><animate attributeName="y" from="90" to="150" dur="0.222" begin="animate13.end + 0.5" id="animate14" fill="freeze"/></rect></clipPath><clipPath id="clip-mask-15"><rect x="139" y="139" width="85" height="21"><set attributeName="x" to="54" begin="0; animate21.end + 1" /><animate attributeName="x" from="54" to="139" dur="0.315" begin="animate14.end + 0.5" id="animate15" fill="freeze"/></rect></clipPath><clipPath id="clip-mask-16"><rect x="192" y="150" width="34" height="58"><set attributeName="y" to="92" begin="0; animate21.end + 1" /><animate attributeName="y" from="92" to="150" dur="0.215" begin="animate15.end" id="animate16" fill="freeze"/></rect></clipPath><clipPath id="clip-mask-17"><rect x="148" y="167" width="47" height="13"><set attributeName="x" to="101" begin="0; animate21.end + 1" /><animate attributeName="x" from="101" to="148" dur="0.174" begin="animate16.end + 0.5" id="animate17" fill="freeze"/></rect></clipPath><clipPath id="clip-mask-18"><rect x="163" y="129" width="15" height="65"><set attributeName="y" to="64" begin="0; animate21.end + 1" /><animate attributeName="y" from="64" to="129" dur="0.241" begin="animate17.end + 0.5" id="animate18" fill="freeze"/></rect></clipPath><clipPath id="clip-mask-19"><rect x="148" y="189" width="47" height="15"><set attributeName="x" to="101" begin="0; animate21.end + 1" /><animate attributeName="x" from="101" to="148" dur="0.174" begin="animate18.end + 0.5" id="animate19" fill="freeze"/></rect></clipPath><clipPath id="clip-mask-20"><rect x="97" y="211" width="65" height="46"><set attributeName="y" to="165" begin="0; animate21.end + 1" /><animate attributeName="y" from="165" to="211" dur="0.170" begin="animate19.end + 0.5" id="animate20" fill="freeze"/></rect></clipPath><clipPath id="clip-mask-21"><rect x="190" y="210" width="40" height="43"><set attributeName="x" to="150" begin="0; animate21.end + 1" /><animate attributeName="x" from="150" to="190" dur="0.148" begin="animate20.end + 0.5" id="animate21" fill="freeze"/></rect></clipPath></defs><path d="M 0 0 L 270 270 M 270 0 L 0 270 M 135 0 L 135 270 M 0 135 L 270 135" stroke="#CCCCCC" /><path d="M 42 184 L 40 188 Q 37 191 35 188 Q 26 178 30 165 Q 38 132 34 81 Q 34 79 34 78 Q 33 74 29 57 Q 27 54 29 53 Q 32 52 34 53 Q 39 55 42 58 L 45 64 Q 44 67 44 111 L 44 119 Q 43 136 43 158 Q 43 166 43 171 L 42 178" fill="#CCCCCC"/><path d="M 42 58 Q 52 55 64 49 Q 69 47 74 49 Q 86 53 88 56 L 69 60 Q 67 58 61 60 Q 53 62 48 63 Q 46 64 45 64" fill="#CCCCCC"/><path d="M 67 167 Q 70 167 70 162 Q 73 132 72 77 Q 73 64 69 60 L 88 56 Q 90 58 87 63 Q 81 75 85 155 Q 85 173 82 179 Q 79 188 76 188 Q 74 189 70 183 Q 68 179 65 175" fill="#CCCCCC"/><path d="M 44 111 Q 52 107 58 107 Q 64 108 67 111 Q 69 113 63 115 Q 55 116 44 119" fill="#CCCCCC"/><path d="M 43 171 Q 55 166 65 167 Q 65 167 67 167 L 65 175 Q 54 176 42 178" fill="#CCCCCC"/><path d="M 151 19 L 150 17 Q 149 14 150 13 Q 152 12 156 12 Q 175 15 179 21 Q 181 28 181 32 Q 180 36 177 36 Q 173 37 169 34 Q 163 28 158 24" fill="#CCCCCC"/><path d="M 177 58 Q 161 61 147 64 Q 131 66 124 64 L 122 58 Q 123 57 126 57 Q 138 55 175 48 Q 204 39 210 40 Q 217 42 218 44 Q 219 46 217 48 Q 216 49 185 56" fill="#CCCCCC"/><path d="M 124 64 Q 124 65 124 66 Q 122 74 121 85 Q 116 150 98 191 Q 94 198 90 205 Q 68 241 60 243 Q 57 243 58 241 Q 58 239 59 238 Q 81 203 93 173 Q 96 165 98 157 Q 104 135 109 80 Q 109 64 104 56 Q 103 52 105 51 Q 108 50 113 52 Q 119 55 122 58" fill="#CCCCCC"/><path d="M 151 98 Q 149 98 148 98 Q 137 99 133 96 Q 129 93 134 92 Q 142 91 149 90 L 158 88 Q 168 86 179 83 Q 179 83 180 83 L 191 79 Q 206 74 212 78 Q 216 79 216 82 Q 215 83 190 88 L 179 90 Q 168 93 158 96" fill="#CCCCCC"/><path d="M 159 120 L 158 121 Q 157 122 156 121 Q 154 118 153 113 Q 152 100 151 98 L 149 90 Q 146 77 143 74 Q 140 72 142 70 Q 145 68 149 69 Q 154 70 156 72 Q 159 74 158 77 Q 158 80 158 87 Q 158 87 158 88 L 158 96 Q 159 100 159 106 Q 159 108 159 110 L 159 117" fill="#CCCCCC"/><path d="M 180 83 Q 180 64 178 60 Q 177 59 177 58 L 185 56 Q 189 58 193 61 Q 197 64 194 70 Q 192 77 191 79 L 190 88 Q 190 88 190 88 Q 188 97 186 105 L 178 105 Q 179 97 179 90" fill="#CCCCCC"/><path d="M 186 105 Q 192 108 192 110 Q 191 111 190 112 Q 171 114 163 116 Q 161 117 159 117 L 159 110 Q 167 108 177 105 Q 178 105 178 105" fill="#CCCCCC"/><path d="M 163 131 Q 146 134 132 139 Q 129 140 125 139 Q 121 138 118 135 Q 115 132 119 132 Q 185 120 214 113 Q 227 109 239 116 Q 243 118 242 121 Q 241 122 239 123 Q 205 126 173 129" fill="#CCCCCC"/><path d="M 137 197 L 137 193 Q 133 170 126 156 Q 124 153 125 151 Q 126 150 129 151 Q 136 152 139 153 L 142 160 Q 143 169 147 191 Q 148 195 148 198 L 148 204 Q 148 205 148 206 Q 146 210 142 205 Q 141 203 140 202 Q 138 200 139 200" fill="#CCCCCC"/><path d="M 165 155 Q 151 158 142 160 L 139 153 Q 160 148 165 148 L 177 145 Q 183 143 192 143 Q 206 139 210 141 Q 220 146 224 150 L 202 152 Q 196 148 176 153" fill="#CCCCCC"/><path d="M 195 191 Q 199 188 204 158 Q 205 154 202 152 L 224 150 Q 226 154 223 157 Q 218 162 216 169 Q 209 198 206 203 Q 203 208 200 206 Q 196 204 192 198" fill="#CCCCCC"/><path d="M 165 179 Q 153 180 153 180 Q 148 177 152 176 Q 158 174 165 171 L 176 168 Q 181 167 185 167 Q 191 168 193 171 Q 195 173 190 174 Q 183 176 175 177" fill="#CCCCCC"/><path d="M 165 194 Q 165 186 165 179 L 165 171 Q 165 162 165 155 L 165 148 Q 165 136 163 131 L 173 129 Q 174 130 175 130 Q 178 134 177 144 Q 177 145 177 145 L 176 153 Q 176 160 176 168 L 175 177 Q 175 184 175 191" fill="#CCCCCC"/><path d="M 148 198 Q 156 195 165 194 L 175 191 Q 175 191 176 191 Q 186 189 190 190 Q 194 190 195 191 L 192 198 Q 184 198 175 200 Q 174 200 174 200 Q 162 202 149 204 Q 148 204 148 204" fill="#CCCCCC"/><path d="M 144 212 L 146 212 Q 149 211 156 214 Q 162 217 162 221 Q 162 223 160 226 Q 156 228 149 234 Q 122 257 104 257 Q 97 257 103 254 Q 137 231 142 215" fill="#CCCCCC"/><path d="M 190 216 L 190 213 Q 191 210 193 211 Q 199 214 209 219 Q 226 226 227 237 Q 230 248 226 251 Q 224 253 222 253 Q 218 251 215 246 Q 203 230 192 219" fill="#CCCCCC"/><path d="M 42 184 L 40 188 Q 37 191 35 188 Q 26 178 30 165 Q 38 132 34 81 Q 34 79 34 78 Q 33 74 29 57 Q 27 54 29 53 Q 32 52 34 53 Q 39 55 42 58 L 45 64 Q 44 67 44 111 L 44 119 Q 43 136 43 158 Q 43 166 43 171 L 42 178" fill="#0000ff" clip-path="url(#clip-mask-1)" /><path d="M 42 58 Q 52 55 64 49 Q 69 47 74 49 Q 86 53 88 56 L 69 60 Q 67 58 61 60 Q 53 62 48 63 Q 46 64 45 64" fill="#0000ff" clip-path="url(#clip-mask-2)" /><path d="M 67 167 Q 70 167 70 162 Q 73 132 72 77 Q 73 64 69 60 L 88 56 Q 90 58 87 63 Q 81 75 85 155 Q 85 173 82 179 Q 79 188 76 188 Q 74 189 70 183 Q 68 179 65 175" fill="#0000ff" clip-path="url(#clip-mask-3)" /><path d="M 44 111 Q 52 107 58 107 Q 64 108 67 111 Q 69 113 63 115 Q 55 116 44 119" fill="#0000ff" clip-path="url(#clip-mask-4)" /><path d="M 43 171 Q 55 166 65 167 Q 65 167 67 167 L 65 175 Q 54 176 42 178" fill="#0000ff" clip-path="url(#clip-mask-5)" /><path d="M 151 19 L 150 17 Q 149 14 150 13 Q 152 12 156 12 Q 175 15 179 21 Q 181 28 181 32 Q 180 36 177 36 Q 173 37 169 34 Q 163 28 158 24" fill="#000080" clip-path="url(#clip-mask-6)" /><path d="M 177 58 Q 161 61 147 64 Q 131 66 124 64 L 122 58 Q 123 57 126 57 Q 138 55 175 48 Q 204 39 210 40 Q 217 42 218 44 Q 219 46 217 48 Q 216 49 185 56" fill="#000080" clip-path="url(#clip-mask-7)" /><path d="M 124 64 Q 124 65 124 66 Q 122 74 121 85 Q 116 150 98 191 Q 94 198 90 205 Q 68 241 60 243 Q 57 243 58 241 Q 58 239 59 238 Q 81 203 93 173 Q 96 165 98 157 Q 104 135 109 80 Q 109 64 104 56 Q 103 52 105 51 Q 108 50 113 52 Q 119 55 122 58" fill="#000080" clip-path="url(#clip-mask-8)" /><path d="M 151 98 Q 149 98 148 98 Q 137 99 133 96 Q 129 93 134 92 Q 142 91 149 90 L 158 88 Q 168 86 179 83 Q 179 83 180 83 L 191 79 Q 206 74 212 78 Q 216 79 216 82 Q 215 83 190 88 L 179 90 Q 168 93 158 96" fill="#000080" clip-path="url(#clip-mask-9)" /><path d="M 159 120 L 158 121 Q 157 122 156 121 Q 154 118 153 113 Q 152 100 151 98 L 149 90 Q 146 77 143 74 Q 140 72 142 70 Q 145 68 149 69 Q 154 70 156 72 Q 159 74 158 77 Q 158 80 158 87 Q 158 87 158 88 L 158 96 Q 159 100 159 106 Q 159 108 159 110 L 159 117" fill="#000080" clip-path="url(#clip-mask-10)" /><path d="M 180 83 Q 180 64 178 60 Q 177 59 177 58 L 185 56 Q 189 58 193 61 Q 197 64 194 70 Q 192 77 191 79 L 190 88 Q 190 88 190 88 Q 188 97 186 105 L 178 105 Q 179 97 179 90" fill="#000080" clip-path="url(#clip-mask-11)" /><path d="M 186 105 Q 192 108 192 110 Q 191 111 190 112 Q 171 114 163 116 Q 161 117 159 117 L 159 110 Q 167 108 177 105 Q 178 105 178 105" fill="#000080" clip-path="url(#clip-mask-12)" /><path d="M 163 131 Q 146 134 132 139 Q 129 140 125 139 Q 121 138 118 135 Q 115 132 119 132 Q 185 120 214 113 Q 227 109 239 116 Q 243 118 242 121 Q 241 122 239 123 Q 205 126 173 129" fill="#000080" clip-path="url(#clip-mask-13)" /><path d="M 137 197 L 137 193 Q 133 170 126 156 Q 124 153 125 151 Q 126 150 129 151 Q 136 152 139 153 L 142 160 Q 143 169 147 191 Q 148 195 148 198 L 148 204 Q 148 205 148 206 Q 146 210 142 205 Q 141 203 140 202 Q 138 200 139 200" fill="#000080" clip-path="url(#clip-mask-14)" /><path d="M 165 155 Q 151 158 142 160 L 139 153 Q 160 148 165 148 L 177 145 Q 183 143 192 143 Q 206 139 210 141 Q 220 146 224 150 L 202 152 Q 196 148 176 153" fill="#000080" clip-path="url(#clip-mask-15)" /><path d="M 195 191 Q 199 188 204 158 Q 205 154 202 152 L 224 150 Q 226 154 223 157 Q 218 162 216 169 Q 209 198 206 203 Q 203 208 200 206 Q 196 204 192 198" fill="#000080" clip-path="url(#clip-mask-16)" /><path d="M 165 179 Q 153 180 153 180 Q 148 177 152 176 Q 158 174 165 171 L 176 168 Q 181 167 185 167 Q 191 168 193 171 Q 195 173 190 174 Q 183 176 175 177" fill="#000080" clip-path="url(#clip-mask-17)" /><path d="M 165 194 Q 165 186 165 179 L 165 171 Q 165 162 165 155 L 165 148 Q 165 136 163 131 L 173 129 Q 174 130 175 130 Q 178 134 177 144 Q 177 145 177 145 L 176 153 Q 176 160 176 168 L 175 177 Q 175 184 175 191" fill="#000080" clip-path="url(#clip-mask-18)" /><path d="M 148 198 Q 156 195 165 194 L 175 191 Q 175 191 176 191 Q 186 189 190 190 Q 194 190 195 191 L 192 198 Q 184 198 175 200 Q 174 200 174 200 Q 162 202 149 204 Q 148 204 148 204" fill="#000080" clip-path="url(#clip-mask-19)" /><path d="M 144 212 L 146 212 Q 149 211 156 214 Q 162 217 162 221 Q 162 223 160 226 Q 156 228 149 234 Q 122 257 104 257 Q 97 257 103 254 Q 137 231 142 215" fill="#000080" clip-path="url(#clip-mask-20)" /><path d="M 190 216 L 190 213 Q 191 210 193 211 Q 199 214 209 219 Q 226 226 227 237 Q 230 248 226 251 Q 224 253 222 253 Q 218 251 215 246 Q 203 230 192 219" fill="#000080" clip-path="url(#clip-mask-21)" /></svg>