<svg xmlns="http://www.w3.org/2000/svg" xmlns:xlink="http://www.w3.org/1999/xlink" width="270" height="270"><defs><clipPath id="clip-mask-1"><rect x="53" y="32" width="82" height="212"><animate attributeName="y" from="-180" to="32" dur="0.785" begin="0; animate6.end + 1" id="animate1" fill="freeze"/></rect></clipPath><clipPath id="clip-mask-2"><rect x="130" y="23" width="82" height="26"><set attributeName="x" to="48" begin="0; animate6.end + 1" /><animate attributeName="x" from="48" to="130" dur="0.304" begin="animate1.end + 0.5" id="animate2" fill="freeze"/></rect></clipPath><clipPath id="clip-mask-3"><rect x="185" y="36" width="31" height="210"><set attributeName="y" to="-174" begin="0; animate6.end + 1" /><animate attributeName="y" from="-174" to="36" dur="0.778" begin="animate2.end" id="animate3" fill="freeze"/></rect></clipPath><clipPath id="clip-mask-4"><rect x="159" y="209" width="29" height="29"><set attributeName="x" to="188" begin="0; animate6.end + 1" /><animate attributeName="x" from="188" to="159" dur="0.107" begin="animate3.end" id="animate4" fill="freeze"/></rect></clipPath><clipPath id="clip-mask-5"><rect x="132" y="86" width="47" height="17"><set attributeName="x" to="85" begin="0; animate6.end + 1" /><animate attributeName="x" from="85" to="132" dur="0.174" begin="animate4.end + 0.5" id="animate5" fill="freeze"/></rect></clipPath><clipPath id="clip-mask-6"><rect x="126" y="130" width="53" height="18"><set attributeName="x" to="73" begin="0; animate6.end + 1" /><animate attributeName="x" from="73" to="126" dur="0.196" begin="animate5.end + 0.5" id="animate6" fill="freeze"/></rect></clipPath></defs><path d="M 0 0 L 270 270 M 270 0 L 0 270 M 135 0 L 135 270 M 0 135 L 270 135" stroke="#CCCCCC" /><path d="M 122 166 L 116 181 Q 108 200 93 216 Q 70 242 56 243 Q 53 244 53 241 Q 54 240 58 236 Q 89 206 100 182 Q 113 150 115 123 Q 121 58 110 41 Q 106 34 112 33 Q 116 32 130 39 L 135 49 Q 134 57 132 93 L 132 102 Q 130 120 128 135 Q 127 136 127 138 L 126 146" fill="#CCCCCC"/><path d="M 130 39 Q 131 40 132 40 Q 163 37 184 25 Q 188 23 194 25 Q 206 30 212 36 L 188 41 Q 186 39 180 40 Q 140 48 135 49" fill="#CCCCCC"/><path d="M 212 36 Q 216 39 212 45 Q 208 53 208 71 Q 209 158 212 211 Q 212 226 200 243 Q 197 246 194 245 Q 189 244 185 238 L 188 214 Q 190 210 191 202 Q 194 147 192 56 Q 192 45 188 41" fill="#CCCCCC"/><path d="M 185 238 Q 176 227 159 212 Q 159 209 165 211 Q 172 213 180 214 Q 186 216 188 214" fill="#CCCCCC"/><path d="M 132 93 Q 137 92 142 91 Q 148 90 155 88 Q 162 86 169 87 Q 176 89 177 92 Q 179 94 176 96 Q 175 96 175 96 Q 140 103 132 102 Q 132 101 132 102" fill="#CCCCCC"/><path d="M 127 138 Q 134 137 140 136 Q 147 135 153 133 Q 161 130 168 132 Q 176 134 177 137 Q 179 139 176 141 Q 175 142 155 145 Q 134 148 126 146" fill="#CCCCCC"/><path d="M 122 166 L 116 181 Q 108 200 93 216 Q 70 242 56 243 Q 53 244 53 241 Q 54 240 58 236 Q 89 206 100 182 Q 113 150 115 123 Q 121 58 110 41 Q 106 34 112 33 Q 116 32 130 39 L 135 49 Q 134 57 132 93 L 132 102 Q 130 120 128 135 Q 127 136 127 138 L 126 146" fill="#0000ff" clip-path="url(#clip-mask-1)" /><path d="M 130 39 Q 131 40 132 40 Q 163 37 184 25 Q 188 23 194 25 Q 206 30 212 36 L 188 41 Q 186 39 180 40 Q 140 48 135 49" fill="#0000ff" clip-path="url(#clip-mask-2)" /><path d="M 212 36 Q 216 39 212 45 Q 208 53 208 71 Q 209 158 212 211 Q 212 226 200 243 Q 197 246 194 245 Q 189 244 185 238 L 188 214 Q 190 210 191 202 Q 194 147 192 56 Q 192 45 188 41" fill="#0000ff" clip-path="url(#clip-mask-3)" /><path d="M 185 238 Q 176 227 159 212 Q 159 209 165 211 Q 172 213 180 214 Q 186 216 188 214" fill="#0000ff" clip-path="url(#clip-mask-4)" /><path d="M 132 93 Q 137 92 142 91 Q 148 90 155 88 Q 162 86 169 87 Q 176 89 177 92 Q 179 94 176 96 Q 175 96 175 96 Q 140 103 132 102 Q 132 101 132 102" fill="#0000ff" clip-path="url(#clip-mask-5)" /><path d="M 127 138 Q 134 137 140 136 Q 147 135 153 133 Q 161 130 168 132 Q 176 134 177 137 Q 179 139 176 141 Q 175 142 155 145 Q 134 148 126 146" fill="#0000ff" clip-path="url(#clip-mask-6)" /></svg>