<svg xmlns="http://www.w3.org/2000/svg" xmlns:xlink="http://www.w3.org/1999/xlink" width="270" height="270"><defs><clipPath id="clip-mask-1"><rect x="39" y="52" width="172" height="37"><animate attributeName="x" from="-133" to="39" dur="0.637" begin="0; animate5.end + 1" id="animate1" fill="freeze"/></rect></clipPath><clipPath id="clip-mask-2"><rect x="64" y="101" width="124" height="30"><set attributeName="x" to="-60" begin="0; animate5.end + 1" /><animate attributeName="x" from="-60" to="64" dur="0.459" begin="animate1.end + 0.5" id="animate2" fill="freeze"/></rect></clipPath><clipPath id="clip-mask-3"><rect x="107" y="13" width="33" height="243"><set attributeName="y" to="-230" begin="0; animate5.end + 1" /><animate attributeName="y" from="-230" to="13" dur="0.900" begin="animate2.end + 0.5" id="animate3" fill="freeze"/></rect></clipPath><clipPath id="clip-mask-4"><rect x="23" y="113" width="96" height="111"><set attributeName="x" to="119" begin="0; animate5.end + 1" /><animate attributeName="x" from="119" to="23" dur="0.356" begin="animate3.end + 0.5" id="animate4" fill="freeze"/></rect></clipPath><clipPath id="clip-mask-5"><rect x="131" y="125" width="115" height="89"><set attributeName="x" to="16" begin="0; animate5.end + 1" /><animate attributeName="x" from="16" to="131" dur="0.426" begin="animate4.end + 0.5" id="animate5" fill="freeze"/></rect></clipPath></defs><path d="M 0 0 L 270 270 M 270 0 L 0 270 M 135 0 L 135 270 M 0 135 L 270 135" stroke="#CCCCCC" /><path d="M 119 79 Q 89 82 65 87 Q 56 89 46 80 Q 39 75 48 74 Q 104 69 119 67 L 133 65 Q 141 62 170 58 Q 192 52 204 59 Q 211 62 210 66 Q 207 69 204 69 Q 156 73 132 77" fill="#CCCCCC"/><path d="M 115 124 Q 99 126 85 130 Q 81 131 76 130 Q 71 129 68 126 Q 64 122 69 121 Q 97 116 119 113 L 132 111 Q 144 108 153 106 Q 170 101 184 111 Q 188 114 187 117 Q 185 120 172 120 Q 148 120 132 122" fill="#CCCCCC"/><path d="M 131 219 L 132 230 Q 132 239 129 246 Q 126 252 124 253 Q 122 256 120 254 Q 118 253 116 248 Q 111 235 111 234 Q 110 230 116 201 Q 118 190 119 149 L 119 113 Q 120 104 120 94 Q 119 86 119 79 L 119 67 Q 119 59 119 51 Q 119 37 109 24 Q 107 19 109 18 Q 115 13 121 18 Q 137 28 139 30 Q 140 34 137 38 Q 134 50 133 65 L 132 77 Q 132 94 132 111 L 132 122 Q 131 123 131 125 L 131 136" fill="#CCCCCC"/><path d="M 119 149 Q 116 153 112 157 Q 109 162 106 166 Q 70 209 32 223 Q 29 224 26 223 Q 23 222 27 218 Q 92 171 115 124 L 119 113" fill="#CCCCCC"/><path d="M 131 125 Q 160 156 185 177 Q 203 190 242 205 Q 246 207 246 209 Q 246 210 242 211 Q 232 213 200 213 Q 191 214 185 207 Q 155 170 131 136" fill="#CCCCCC"/><path d="M 119 79 Q 89 82 65 87 Q 56 89 46 80 Q 39 75 48 74 Q 104 69 119 67 L 133 65 Q 141 62 170 58 Q 192 52 204 59 Q 211 62 210 66 Q 207 69 204 69 Q 156 73 132 77" fill="#000080" clip-path="url(#clip-mask-1)" /><path d="M 115 124 Q 99 126 85 130 Q 81 131 76 130 Q 71 129 68 126 Q 64 122 69 121 Q 97 116 119 113 L 132 111 Q 144 108 153 106 Q 170 101 184 111 Q 188 114 187 117 Q 185 120 172 120 Q 148 120 132 122" fill="#0000ff" clip-path="url(#clip-mask-2)" /><path d="M 131 219 L 132 230 Q 132 239 129 246 Q 126 252 124 253 Q 122 256 120 254 Q 118 253 116 248 Q 111 235 111 234 Q 110 230 116 201 Q 118 190 119 149 L 119 113 Q 120 104 120 94 Q 119 86 119 79 L 119 67 Q 119 59 119 51 Q 119 37 109 24 Q 107 19 109 18 Q 115 13 121 18 Q 137 28 139 30 Q 140 34 137 38 Q 134 50 133 65 L 132 77 Q 132 94 132 111 L 132 122 Q 131 123 131 125 L 131 136" fill="#0000ff" clip-path="url(#clip-mask-3)" /><path d="M 119 149 Q 116 153 112 157 Q 109 162 106 166 Q 70 209 32 223 Q 29 224 26 223 Q 23 222 27 218 Q 92 171 115 124 L 119 113" fill="#0000ff" clip-path="url(#clip-mask-4)" /><path d="M 131 125 Q 160 156 185 177 Q 203 190 242 205 Q 246 207 246 209 Q 246 210 242 211 Q 232 213 200 213 Q 191 214 185 207 Q 155 170 131 136" fill="#0000ff" clip-path="url(#clip-mask-5)" /></svg>