<svg xmlns="http://www.w3.org/2000/svg" xmlns:xlink="http://www.w3.org/1999/xlink" width="270" height="270"><defs><clipPath id="clip-mask-1"><rect x="41" y="77" width="105" height="35"><animate attributeName="x" from="-64" to="41" dur="0.389" begin="0; animate7.end + 1" id="animate1" fill="freeze"/></rect></clipPath><clipPath id="clip-mask-2"><rect x="87" y="13" width="34" height="225"><set attributeName="y" to="-212" begin="0; animate7.end + 1" /><animate attributeName="y" from="-212" to="13" dur="0.833" begin="animate1.end + 0.5" id="animate2" fill="freeze"/></rect></clipPath><clipPath id="clip-mask-3"><rect x="27" y="88" width="72" height="108"><set attributeName="y" to="-20" begin="0; animate7.end + 1" /><animate attributeName="y" from="-20" to="88" dur="0.400" begin="animate2.end + 0.5" id="animate3" fill="freeze"/></rect></clipPath><clipPath id="clip-mask-4"><rect x="110" y="124" width="32" height="27"><set attributeName="x" to="78" begin="0; animate7.end + 1" /><animate attributeName="x" from="78" to="110" dur="0.119" begin="animate3.end + 0.5" id="animate4" fill="freeze"/></rect></clipPath><clipPath id="clip-mask-5"><rect x="151" y="24" width="82" height="84"><set attributeName="y" to="-60" begin="0; animate7.end + 1" /><animate attributeName="y" from="-60" to="24" dur="0.311" begin="animate4.end + 0.5" id="animate5" fill="freeze"/></rect></clipPath><clipPath id="clip-mask-6"><rect x="152" y="92" width="82" height="74"><set attributeName="y" to="18" begin="0; animate7.end + 1" /><animate attributeName="y" from="18" to="92" dur="0.274" begin="animate5.end + 0.5" id="animate6" fill="freeze"/></rect></clipPath><clipPath id="clip-mask-7"><rect x="128" y="146" width="114" height="110"><set attributeName="y" to="36" begin="0; animate7.end + 1" /><animate attributeName="y" from="36" to="146" dur="0.407" begin="animate6.end + 0.5" id="animate7" fill="freeze"/></rect></clipPath></defs><path d="M 0 0 L 270 270 M 270 0 L 0 270 M 135 0 L 135 270 M 0 135 L 270 135" stroke="#CCCCCC" /><path d="M 91 104 Q 86 105 83 106 Q 61 112 49 106 Q 41 102 52 99 Q 75 96 99 88 L 111 83 Q 121 77 133 79 Q 142 80 144 84 Q 146 86 143 89 Q 142 90 111 99" fill="#CCCCCC"/><path d="M 109 203 L 109 214 Q 109 222 106 229 Q 103 234 101 235 Q 99 238 98 236 Q 95 235 94 230 Q 87 214 90 203 Q 93 191 95 180 Q 95 177 98 119 L 99 88 L 99 88 Q 99 67 99 48 Q 98 35 90 23 Q 88 19 90 17 Q 95 13 102 18 Q 109 23 114 26 Q 121 31 117 38 Q 111 55 111 83 L 111 99 Q 110 112 110 124 L 110 132" fill="#CCCCCC"/><path d="M 98 119 Q 83 145 68 161 Q 35 196 30 195 Q 27 195 28 192 Q 74 140 91 104 L 99 88" fill="#CCCCCC"/><path d="M 110 124 Q 112 124 114 124 Q 136 128 140 136 Q 142 143 141 147 Q 140 150 137 150 Q 134 151 130 148 Q 123 141 116 135 Q 112 133 110 132" fill="#CCCCCC"/><path d="M 207 25 L 210 24 Q 217 24 229 35 Q 233 40 229 44 Q 220 53 210 66 Q 195 87 169 102 Q 161 107 156 107 Q 151 108 154 104 Q 161 98 171 90 Q 207 57 207 29" fill="#CCCCCC"/><path d="M 211 92 L 215 92 Q 222 93 231 104 Q 234 109 231 112 Q 216 126 202 141 Q 172 166 156 166 Q 152 166 155 162 Q 167 153 171 152 Q 209 123 211 96" fill="#CCCCCC"/><path d="M 216 147 L 219 147 Q 222 146 229 149 Q 241 154 242 163 Q 242 166 240 168 Q 238 169 235 173 Q 204 212 183 228 Q 147 256 131 256 Q 128 255 130 253 Q 134 250 177 216 Q 217 175 217 151" fill="#CCCCCC"/><path d="M 91 104 Q 86 105 83 106 Q 61 112 49 106 Q 41 102 52 99 Q 75 96 99 88 L 111 83 Q 121 77 133 79 Q 142 80 144 84 Q 146 86 143 89 Q 142 90 111 99" fill="#0000ff" clip-path="url(#clip-mask-1)" /><path d="M 109 203 L 109 214 Q 109 222 106 229 Q 103 234 101 235 Q 99 238 98 236 Q 95 235 94 230 Q 87 214 90 203 Q 93 191 95 180 Q 95 177 98 119 L 99 88 L 99 88 Q 99 67 99 48 Q 98 35 90 23 Q 88 19 90 17 Q 95 13 102 18 Q 109 23 114 26 Q 121 31 117 38 Q 111 55 111 83 L 111 99 Q 110 112 110 124 L 110 132" fill="#0000ff" clip-path="url(#clip-mask-2)" /><path d="M 98 119 Q 83 145 68 161 Q 35 196 30 195 Q 27 195 28 192 Q 74 140 91 104 L 99 88" fill="#0000ff" clip-path="url(#clip-mask-3)" /><path d="M 110 124 Q 112 124 114 124 Q 136 128 140 136 Q 142 143 141 147 Q 140 150 137 150 Q 134 151 130 148 Q 123 141 116 135 Q 112 133 110 132" fill="#0000ff" clip-path="url(#clip-mask-4)" /><path d="M 207 25 L 210 24 Q 217 24 229 35 Q 233 40 229 44 Q 220 53 210 66 Q 195 87 169 102 Q 161 107 156 107 Q 151 108 154 104 Q 161 98 171 90 Q 207 57 207 29" fill="#000080" clip-path="url(#clip-mask-5)" /><path d="M 211 92 L 215 92 Q 222 93 231 104 Q 234 109 231 112 Q 216 126 202 141 Q 172 166 156 166 Q 152 166 155 162 Q 167 153 171 152 Q 209 123 211 96" fill="#000080" clip-path="url(#clip-mask-6)" /><path d="M 216 147 L 219 147 Q 222 146 229 149 Q 241 154 242 163 Q 242 166 240 168 Q 238 169 235 173 Q 204 212 183 228 Q 147 256 131 256 Q 128 255 130 253 Q 134 250 177 216 Q 217 175 217 151" fill="#000080" clip-path="url(#clip-mask-7)" /></svg>