<svg xmlns="http://www.w3.org/2000/svg" xmlns:xlink="http://www.w3.org/1999/xlink" width="270" height="270"><defs><clipPath id="clip-mask-1"><rect x="21" y="92" width="102" height="33"><animate attributeName="x" from="-81" to="21" dur="0.378" begin="0; animate7.end + 1" id="animate1" fill="freeze"/></rect></clipPath><clipPath id="clip-mask-2"><rect x="67" y="18" width="34" height="233"><set attributeName="y" to="-215" begin="0; animate7.end + 1" /><animate attributeName="y" from="-215" to="18" dur="0.863" begin="animate1.end + 0.5" id="animate2" fill="freeze"/></rect></clipPath><clipPath id="clip-mask-3"><rect x="14" y="101" width="66" height="112"><set attributeName="y" to="-11" begin="0; animate7.end + 1" /><animate attributeName="y" from="-11" to="101" dur="0.415" begin="animate2.end + 0.5" id="animate3" fill="freeze"/></rect></clipPath><clipPath id="clip-mask-4"><rect x="91" y="136" width="28" height="26"><set attributeName="x" to="63" begin="0; animate7.end + 1" /><animate attributeName="x" from="63" to="91" dur="0.104" begin="animate3.end + 0.5" id="animate4" fill="freeze"/></rect></clipPath><clipPath id="clip-mask-5"><rect x="122" y="105" width="105" height="34"><set attributeName="x" to="17" begin="0; animate7.end + 1" /><animate attributeName="x" from="17" to="122" dur="0.389" begin="animate4.end + 0.5" id="animate5" fill="freeze"/></rect></clipPath><clipPath id="clip-mask-6"><rect x="154" y="33" width="35" height="158"><set attributeName="y" to="-125" begin="0; animate7.end + 1" /><animate attributeName="y" from="-125" to="33" dur="0.585" begin="animate5.end + 0.5" id="animate6" fill="freeze"/></rect></clipPath><clipPath id="clip-mask-7"><rect x="102" y="180" width="153" height="31"><set attributeName="x" to="-51" begin="0; animate7.end + 1" /><animate attributeName="x" from="-51" to="102" dur="0.567" begin="animate6.end + 0.5" id="animate7" fill="freeze"/></rect></clipPath></defs><path d="M 0 0 L 270 270 M 270 0 L 0 270 M 135 0 L 135 270 M 0 135 L 270 135" stroke="#CCCCCC" /><path d="M 74 116 Q 65 118 56 120 Q 41 125 29 118 Q 21 114 32 112 Q 47 109 80 101 L 92 96 Q 105 92 112 93 Q 120 94 122 98 Q 123 100 121 102 Q 119 103 92 111" fill="#CCCCCC"/><path d="M 89 216 L 89 226 Q 89 235 86 241 Q 83 247 81 248 Q 79 251 77 249 Q 75 248 74 243 Q 67 226 70 216 Q 76 196 77 176 Q 78 156 79 137 L 80 101 Q 81 84 81 68 Q 81 42 72 28 Q 70 24 72 23 Q 77 18 84 23 Q 99 33 100 35 Q 101 39 99 43 Q 93 61 93 87 Q 93 91 92 96 L 92 111 Q 91 124 91 136 L 91 145" fill="#CCCCCC"/><path d="M 79 137 Q 67 162 53 178 Q 24 213 17 213 Q 14 213 15 210 Q 60 152 74 116 L 80 101" fill="#CCCCCC"/><path d="M 91 136 Q 92 136 92 136 Q 115 142 117 149 Q 119 155 118 159 Q 117 161 115 162 Q 112 162 108 159 Q 97 149 91 145" fill="#CCCCCC"/><path d="M 166 133 Q 164 134 163 134 Q 142 139 130 132 Q 122 128 133 125 Q 151 123 167 119 L 181 115 Q 188 112 196 109 Q 205 105 214 107 Q 223 109 226 112 Q 227 115 225 118 Q 223 119 211 123 Q 195 126 180 130" fill="#CCCCCC"/><path d="M 166 161 L 166 133 L 167 119 Q 167 91 166 65 Q 166 56 157 43 Q 154 38 157 36 Q 159 33 164 34 Q 172 36 183 42 Q 189 46 188 50 Q 181 80 181 115 L 180 130 Q 179 159 177 190 L 164 191" fill="#CCCCCC"/><path d="M 177 190 Q 207 185 225 182 Q 236 180 250 191 Q 255 195 254 198 Q 252 201 246 200 Q 241 200 236 200 Q 171 199 126 210 Q 122 211 115 209 Q 110 208 106 204 Q 102 198 108 198 Q 138 194 164 191" fill="#CCCCCC"/><path d="M 74 116 Q 65 118 56 120 Q 41 125 29 118 Q 21 114 32 112 Q 47 109 80 101 L 92 96 Q 105 92 112 93 Q 120 94 122 98 Q 123 100 121 102 Q 119 103 92 111" fill="#0000ff" clip-path="url(#clip-mask-1)" /><path d="M 89 216 L 89 226 Q 89 235 86 241 Q 83 247 81 248 Q 79 251 77 249 Q 75 248 74 243 Q 67 226 70 216 Q 76 196 77 176 Q 78 156 79 137 L 80 101 Q 81 84 81 68 Q 81 42 72 28 Q 70 24 72 23 Q 77 18 84 23 Q 99 33 100 35 Q 101 39 99 43 Q 93 61 93 87 Q 93 91 92 96 L 92 111 Q 91 124 91 136 L 91 145" fill="#0000ff" clip-path="url(#clip-mask-2)" /><path d="M 79 137 Q 67 162 53 178 Q 24 213 17 213 Q 14 213 15 210 Q 60 152 74 116 L 80 101" fill="#0000ff" clip-path="url(#clip-mask-3)" /><path d="M 91 136 Q 92 136 92 136 Q 115 142 117 149 Q 119 155 118 159 Q 117 161 115 162 Q 112 162 108 159 Q 97 149 91 145" fill="#0000ff" clip-path="url(#clip-mask-4)" /><path d="M 166 133 Q 164 134 163 134 Q 142 139 130 132 Q 122 128 133 125 Q 151 123 167 119 L 181 115 Q 188 112 196 109 Q 205 105 214 107 Q 223 109 226 112 Q 227 115 225 118 Q 223 119 211 123 Q 195 126 180 130" fill="#000080" clip-path="url(#clip-mask-5)" /><path d="M 166 161 L 166 133 L 167 119 Q 167 91 166 65 Q 166 56 157 43 Q 154 38 157 36 Q 159 33 164 34 Q 172 36 183 42 Q 189 46 188 50 Q 181 80 181 115 L 180 130 Q 179 159 177 190 L 164 191" fill="#000080" clip-path="url(#clip-mask-6)" /><path d="M 177 190 Q 207 185 225 182 Q 236 180 250 191 Q 255 195 254 198 Q 252 201 246 200 Q 241 200 236 200 Q 171 199 126 210 Q 122 211 115 209 Q 110 208 106 204 Q 102 198 108 198 Q 138 194 164 191" fill="#000080" clip-path="url(#clip-mask-7)" /></svg>