<svg xmlns="http://www.w3.org/2000/svg" xmlns:xlink="http://www.w3.org/1999/xlink" width="270" height="270"><defs><clipPath id="clip-mask-1"><rect x="22" y="88" width="98" height="33"><animate attributeName="x" from="-76" to="22" dur="0.363" begin="0; animate8.end + 1" id="animate1" fill="freeze"/></rect></clipPath><clipPath id="clip-mask-2"><rect x="65" y="21" width="34" height="227"><set attributeName="y" to="-206" begin="0; animate8.end + 1" /><animate attributeName="y" from="-206" to="21" dur="0.841" begin="animate1.end + 0.5" id="animate2" fill="freeze"/></rect></clipPath><clipPath id="clip-mask-3"><rect x="14" y="98" width="64" height="108"><set attributeName="y" to="-10" begin="0; animate8.end + 1" /><animate attributeName="y" from="-10" to="98" dur="0.400" begin="animate2.end + 0.5" id="animate3" fill="freeze"/></rect></clipPath><clipPath id="clip-mask-4"><rect x="88" y="132" width="29" height="26"><set attributeName="x" to="59" begin="0; animate8.end + 1" /><animate attributeName="x" from="59" to="88" dur="0.107" begin="animate3.end + 0.5" id="animate4" fill="freeze"/></rect></clipPath><clipPath id="clip-mask-5"><rect x="123" y="29" width="58" height="105"><set attributeName="y" to="-76" begin="0; animate8.end + 1" /><animate attributeName="y" from="-76" to="29" dur="0.389" begin="animate4.end + 0.5" id="animate5" fill="freeze"/></rect></clipPath><clipPath id="clip-mask-6"><rect x="147" y="85" width="83" height="29"><set attributeName="x" to="64" begin="0; animate8.end + 1" /><animate attributeName="x" from="64" to="147" dur="0.307" begin="animate5.end + 0.5" id="animate6" fill="freeze"/></rect></clipPath><clipPath id="clip-mask-7"><rect x="105" y="109" width="91" height="115"><set attributeName="y" to="-6" begin="0; animate8.end + 1" /><animate attributeName="y" from="-6" to="109" dur="0.426" begin="animate6.end + 0.5" id="animate7" fill="freeze"/></rect></clipPath><clipPath id="clip-mask-8"><rect x="126" y="142" width="129" height="94"><set attributeName="x" to="-3" begin="0; animate8.end + 1" /><animate attributeName="x" from="-3" to="126" dur="0.478" begin="animate7.end + 0.5" id="animate8" fill="freeze"/></rect></clipPath></defs><path d="M 0 0 L 270 270 M 270 0 L 0 270 M 135 0 L 135 270 M 0 135 L 270 135" stroke="#CCCCCC" /><path d="M 72 112 Q 64 114 56 116 Q 41 121 29 116 Q 22 112 31 110 Q 54 106 78 98 L 89 94 Q 101 88 109 89 Q 117 91 119 93 Q 120 96 118 98 Q 117 99 89 107" fill="#CCCCCC"/><path d="M 86 214 L 86 224 Q 86 233 84 239 Q 81 244 79 245 Q 77 248 76 246 Q 73 245 72 240 Q 65 224 68 214 Q 74 195 75 175 Q 75 153 76 133 L 78 98 Q 78 97 78 97 Q 78 75 78 56 Q 78 43 69 31 Q 68 26 69 25 Q 75 21 81 26 Q 88 31 92 34 Q 99 38 95 45 Q 89 65 89 94 L 89 107 Q 88 121 88 134 L 88 138" fill="#CCCCCC"/><path d="M 76 133 Q 65 156 52 172 Q 23 206 17 206 Q 14 206 15 203 Q 58 148 72 112 L 78 98" fill="#CCCCCC"/><path d="M 88 134 Q 88 133 89 133 Q 92 132 107 138 Q 114 141 115 145 Q 117 152 116 155 Q 115 157 112 158 Q 109 158 106 155 Q 100 149 94 144 Q 90 140 88 138" fill="#CCCCCC"/><path d="M 147 108 Q 131 130 126 132 Q 123 134 123 130 Q 123 129 125 126 Q 137 105 145 87 Q 161 47 154 37 Q 151 31 156 30 Q 161 29 169 33 Q 178 38 179 41 Q 181 44 179 48 Q 175 53 171 63 Q 164 80 149 104" fill="#CCCCCC"/><path d="M 172 112 Q 159 114 147 108 L 149 104 Q 150 103 152 103 Q 170 100 190 94 Q 211 85 219 86 Q 227 87 229 90 Q 230 93 228 95 Q 227 96 181 109" fill="#CCCCCC"/><path d="M 160 204 L 145 212 Q 117 224 108 222 Q 105 221 107 220 Q 108 219 111 218 Q 145 204 162 185 L 168 176 Q 177 160 177 137 Q 176 122 172 112 L 181 109 Q 188 112 194 116 Q 196 118 195 121 Q 194 126 193 133 Q 190 166 178 185 L 170 195" fill="#CCCCCC"/><path d="M 162 185 Q 153 174 144 162 Q 138 153 128 147 Q 126 146 127 145 Q 129 142 135 142 Q 140 143 143 148 Q 157 164 168 176 L 178 185 Q 184 191 189 195 Q 207 212 252 227 Q 255 228 254 230 Q 253 233 248 233 Q 238 234 211 235 Q 204 236 199 230 Q 185 214 170 195" fill="#CCCCCC"/><path d="M 72 112 Q 64 114 56 116 Q 41 121 29 116 Q 22 112 31 110 Q 54 106 78 98 L 89 94 Q 101 88 109 89 Q 117 91 119 93 Q 120 96 118 98 Q 117 99 89 107" fill="#0000ff" clip-path="url(#clip-mask-1)" /><path d="M 86 214 L 86 224 Q 86 233 84 239 Q 81 244 79 245 Q 77 248 76 246 Q 73 245 72 240 Q 65 224 68 214 Q 74 195 75 175 Q 75 153 76 133 L 78 98 Q 78 97 78 97 Q 78 75 78 56 Q 78 43 69 31 Q 68 26 69 25 Q 75 21 81 26 Q 88 31 92 34 Q 99 38 95 45 Q 89 65 89 94 L 89 107 Q 88 121 88 134 L 88 138" fill="#0000ff" clip-path="url(#clip-mask-2)" /><path d="M 76 133 Q 65 156 52 172 Q 23 206 17 206 Q 14 206 15 203 Q 58 148 72 112 L 78 98" fill="#0000ff" clip-path="url(#clip-mask-3)" /><path d="M 88 134 Q 88 133 89 133 Q 92 132 107 138 Q 114 141 115 145 Q 117 152 116 155 Q 115 157 112 158 Q 109 158 106 155 Q 100 149 94 144 Q 90 140 88 138" fill="#0000ff" clip-path="url(#clip-mask-4)" /><path d="M 147 108 Q 131 130 126 132 Q 123 134 123 130 Q 123 129 125 126 Q 137 105 145 87 Q 161 47 154 37 Q 151 31 156 30 Q 161 29 169 33 Q 178 38 179 41 Q 181 44 179 48 Q 175 53 171 63 Q 164 80 149 104" fill="#000080" clip-path="url(#clip-mask-5)" /><path d="M 172 112 Q 159 114 147 108 L 149 104 Q 150 103 152 103 Q 170 100 190 94 Q 211 85 219 86 Q 227 87 229 90 Q 230 93 228 95 Q 227 96 181 109" fill="#000080" clip-path="url(#clip-mask-6)" /><path d="M 160 204 L 145 212 Q 117 224 108 222 Q 105 221 107 220 Q 108 219 111 218 Q 145 204 162 185 L 168 176 Q 177 160 177 137 Q 176 122 172 112 L 181 109 Q 188 112 194 116 Q 196 118 195 121 Q 194 126 193 133 Q 190 166 178 185 L 170 195" fill="#000080" clip-path="url(#clip-mask-7)" /><path d="M 162 185 Q 153 174 144 162 Q 138 153 128 147 Q 126 146 127 145 Q 129 142 135 142 Q 140 143 143 148 Q 157 164 168 176 L 178 185 Q 184 191 189 195 Q 207 212 252 227 Q 255 228 254 230 Q 253 233 248 233 Q 238 234 211 235 Q 204 236 199 230 Q 185 214 170 195" fill="#000080" clip-path="url(#clip-mask-8)" /></svg>