<svg xmlns="http://www.w3.org/2000/svg" xmlns:xlink="http://www.w3.org/1999/xlink" width="270" height="270"><defs><clipPath id="clip-mask-1"><rect x="21" y="82" width="88" height="31"><animate attributeName="x" from="-67" to="21" dur="0.326" begin="0; animate12.end + 1" id="animate1" fill="freeze"/></rect></clipPath><clipPath id="clip-mask-2"><rect x="56" y="15" width="34" height="239"><set attributeName="y" to="-224" begin="0; animate12.end + 1" /><animate attributeName="y" from="-224" to="15" dur="0.885" begin="animate1.end + 0.5" id="animate2" fill="freeze"/></rect></clipPath><clipPath id="clip-mask-3"><rect x="12" y="92" width="57" height="110"><set attributeName="y" to="-18" begin="0; animate12.end + 1" /><animate attributeName="y" from="-18" to="92" dur="0.407" begin="animate2.end + 0.5" id="animate3" fill="freeze"/></rect></clipPath><clipPath id="clip-mask-4"><rect x="79" y="126" width="27" height="21"><set attributeName="x" to="52" begin="0; animate12.end + 1" /><animate attributeName="x" from="52" to="79" dur="0.100" begin="animate3.end + 0.5" id="animate4" fill="freeze"/></rect></clipPath><clipPath id="clip-mask-5"><rect x="97" y="56" width="65" height="175"><set attributeName="y" to="-119" begin="0; animate12.end + 1" /><animate attributeName="y" from="-119" to="56" dur="0.648" begin="animate4.end + 0.5" id="animate5" fill="freeze"/></rect></clipPath><clipPath id="clip-mask-6"><rect x="108" y="104" width="27" height="22"><set attributeName="x" to="81" begin="0; animate12.end + 1" /><animate attributeName="x" from="81" to="108" dur="0.100" begin="animate5.end + 0.5" id="animate6" fill="freeze"/></rect></clipPath><clipPath id="clip-mask-7"><rect x="98" y="140" width="45" height="34"><set attributeName="x" to="53" begin="0; animate12.end + 1" /><animate attributeName="x" from="53" to="98" dur="0.167" begin="animate6.end + 0.5" id="animate7" fill="freeze"/></rect></clipPath><clipPath id="clip-mask-8"><rect x="167" y="32" width="30" height="170"><set attributeName="y" to="-138" begin="0; animate12.end + 1" /><animate attributeName="y" from="-138" to="32" dur="0.630" begin="animate7.end + 0.5" id="animate8" fill="freeze"/></rect></clipPath><clipPath id="clip-mask-9"><rect x="178" y="188" width="79" height="40"><set attributeName="x" to="99" begin="0; animate12.end + 1" /><animate attributeName="x" from="99" to="178" dur="0.293" begin="animate8.end" id="animate9" fill="freeze"/></rect></clipPath><clipPath id="clip-mask-10"><rect x="227" y="170" width="27" height="37"><set attributeName="y" to="207" begin="0; animate12.end + 1" /><animate attributeName="y" from="207" to="170" dur="0.137" begin="animate9.end" id="animate10" fill="freeze"/></rect></clipPath><clipPath id="clip-mask-11"><rect x="185" y="74" width="45" height="41"><set attributeName="x" to="230" begin="0; animate12.end + 1" /><animate attributeName="x" from="230" to="185" dur="0.167" begin="animate10.end + 0.5" id="animate11" fill="freeze"/></rect></clipPath><clipPath id="clip-mask-12"><rect x="184" y="140" width="49" height="35"><set attributeName="x" to="135" begin="0; animate12.end + 1" /><animate attributeName="x" from="135" to="184" dur="0.181" begin="animate11.end + 0.5" id="animate12" fill="freeze"/></rect></clipPath></defs><path d="M 0 0 L 270 270 M 270 0 L 0 270 M 135 0 L 135 270 M 0 135 L 270 135" stroke="#CCCCCC" /><path d="M 65 106 Q 60 106 56 108 Q 40 113 28 108 Q 21 104 31 102 Q 45 99 69 92 L 81 87 Q 86 82 98 83 Q 106 85 108 88 Q 109 90 107 92 Q 106 94 96 97 Q 88 99 80 101" fill="#CCCCCC"/><path d="M 78 218 L 78 229 Q 77 247 70 251 Q 68 254 66 252 Q 64 251 63 246 Q 56 229 59 218 Q 65 199 66 177 Q 67 153 68 130 L 69 92 Q 69 71 69 52 Q 69 39 60 25 Q 58 21 60 20 Q 65 15 72 20 Q 79 25 84 28 Q 90 33 87 40 Q 81 61 81 87 L 80 101 Q 80 114 80 126 L 79 133" fill="#CCCCCC"/><path d="M 68 130 Q 58 150 48 165 Q 20 202 14 202 Q 12 202 13 199 Q 39 161 50 141 Q 59 124 65 106 L 69 92" fill="#CCCCCC"/><path d="M 80 126 Q 80 126 82 126 Q 102 129 104 136 Q 106 141 106 144 Q 105 147 103 147 Q 100 147 98 145 Q 90 140 84 135 Q 81 134 79 133" fill="#CCCCCC"/><path d="M 146 80 L 135 63 Q 133 60 135 58 Q 137 56 143 57 Q 153 60 159 64 Q 162 67 160 70 Q 160 72 159 74 Q 157 78 157 85 Q 154 151 150 168 Q 141 212 112 227 Q 104 231 100 230 Q 98 231 97 230 Q 97 229 100 226 Q 111 217 119 208 Q 138 185 143 147 L 143 140" fill="#CCCCCC"/><path d="M 109 111 L 108 108 Q 108 106 109 105 Q 112 104 126 108 Q 132 110 133 114 Q 135 120 134 123 Q 133 126 131 126 Q 127 126 124 124 Q 119 119 115 115" fill="#CCCCCC"/><path d="M 143 147 Q 123 165 119 171 Q 117 174 115 173 Q 107 171 101 169 Q 99 168 98 166 Q 98 163 101 162 Q 108 160 143 140" fill="#CCCCCC"/><path d="M 184 168 L 186 188 L 178 202 Q 174 190 176 68 Q 175 44 169 39 Q 167 37 169 34 Q 171 32 176 33 Q 185 35 192 42 Q 197 45 195 51 Q 189 60 186 110 L 185 115 Q 185 117 185 119 Q 185 130 184 140 L 184 146" fill="#CCCCCC"/><path d="M 186 188 Q 187 202 195 206 Q 198 208 206 208 Q 218 210 226 207 Q 226 207 227 207 L 254 205 Q 257 212 253 215 Q 250 219 240 221 Q 238 222 237 222 Q 183 228 178 202" fill="#CCCCCC"/><path d="M 227 207 Q 231 205 245 176 Q 246 170 248 172 Q 250 175 250 177 Q 251 193 254 205" fill="#CCCCCC"/><path d="M 186 110 Q 191 103 196 99 Q 208 85 208 78 Q 207 75 210 75 Q 213 74 219 78 Q 225 81 228 85 Q 230 90 225 92 Q 219 94 215 98 Q 187 114 185 115" fill="#CCCCCC"/><path d="M 184 140 Q 185 140 186 140 Q 224 147 228 160 Q 233 169 230 172 Q 229 175 227 175 Q 223 175 219 171 Q 201 157 186 147 Q 185 146 184 146" fill="#CCCCCC"/><path d="M 65 106 Q 60 106 56 108 Q 40 113 28 108 Q 21 104 31 102 Q 45 99 69 92 L 81 87 Q 86 82 98 83 Q 106 85 108 88 Q 109 90 107 92 Q 106 94 96 97 Q 88 99 80 101" fill="#0000ff" clip-path="url(#clip-mask-1)" /><path d="M 78 218 L 78 229 Q 77 247 70 251 Q 68 254 66 252 Q 64 251 63 246 Q 56 229 59 218 Q 65 199 66 177 Q 67 153 68 130 L 69 92 Q 69 71 69 52 Q 69 39 60 25 Q 58 21 60 20 Q 65 15 72 20 Q 79 25 84 28 Q 90 33 87 40 Q 81 61 81 87 L 80 101 Q 80 114 80 126 L 79 133" fill="#0000ff" clip-path="url(#clip-mask-2)" /><path d="M 68 130 Q 58 150 48 165 Q 20 202 14 202 Q 12 202 13 199 Q 39 161 50 141 Q 59 124 65 106 L 69 92" fill="#0000ff" clip-path="url(#clip-mask-3)" /><path d="M 80 126 Q 80 126 82 126 Q 102 129 104 136 Q 106 141 106 144 Q 105 147 103 147 Q 100 147 98 145 Q 90 140 84 135 Q 81 134 79 133" fill="#0000ff" clip-path="url(#clip-mask-4)" /><path d="M 146 80 L 135 63 Q 133 60 135 58 Q 137 56 143 57 Q 153 60 159 64 Q 162 67 160 70 Q 160 72 159 74 Q 157 78 157 85 Q 154 151 150 168 Q 141 212 112 227 Q 104 231 100 230 Q 98 231 97 230 Q 97 229 100 226 Q 111 217 119 208 Q 138 185 143 147 L 143 140" fill="#000080" clip-path="url(#clip-mask-5)" /><path d="M 109 111 L 108 108 Q 108 106 109 105 Q 112 104 126 108 Q 132 110 133 114 Q 135 120 134 123 Q 133 126 131 126 Q 127 126 124 124 Q 119 119 115 115" fill="#000080" clip-path="url(#clip-mask-6)" /><path d="M 143 147 Q 123 165 119 171 Q 117 174 115 173 Q 107 171 101 169 Q 99 168 98 166 Q 98 163 101 162 Q 108 160 143 140" fill="#000080" clip-path="url(#clip-mask-7)" /><path d="M 184 168 L 186 188 L 178 202 Q 174 190 176 68 Q 175 44 169 39 Q 167 37 169 34 Q 171 32 176 33 Q 185 35 192 42 Q 197 45 195 51 Q 189 60 186 110 L 185 115 Q 185 117 185 119 Q 185 130 184 140 L 184 146" fill="#000080" clip-path="url(#clip-mask-8)" /><path d="M 186 188 Q 187 202 195 206 Q 198 208 206 208 Q 218 210 226 207 Q 226 207 227 207 L 254 205 Q 257 212 253 215 Q 250 219 240 221 Q 238 222 237 222 Q 183 228 178 202" fill="#000080" clip-path="url(#clip-mask-9)" /><path d="M 227 207 Q 231 205 245 176 Q 246 170 248 172 Q 250 175 250 177 Q 251 193 254 205" fill="#000080" clip-path="url(#clip-mask-10)" /><path d="M 186 110 Q 191 103 196 99 Q 208 85 208 78 Q 207 75 210 75 Q 213 74 219 78 Q 225 81 228 85 Q 230 90 225 92 Q 219 94 215 98 Q 187 114 185 115" fill="#000080" clip-path="url(#clip-mask-11)" /><path d="M 184 140 Q 185 140 186 140 Q 224 147 228 160 Q 233 169 230 172 Q 229 175 227 175 Q 223 175 219 171 Q 201 157 186 147 Q 185 146 184 146" fill="#000080" clip-path="url(#clip-mask-12)" /></svg>