<svg xmlns="http://www.w3.org/2000/svg" xmlns:xlink="http://www.w3.org/1999/xlink" width="270" height="270"><defs><clipPath id="clip-mask-1"><rect x="25" y="85" width="78" height="26"><animate attributeName="x" from="-53" to="25" dur="0.289" begin="0; animate25.end + 1" id="animate1" fill="freeze"/></rect></clipPath><clipPath id="clip-mask-2"><rect x="60" y="17" width="32" height="225"><set attributeName="y" to="-208" begin="0; animate25.end + 1" /><animate attributeName="y" from="-208" to="17" dur="0.833" begin="animate1.end + 0.5" id="animate2" fill="freeze"/></rect></clipPath><clipPath id="clip-mask-3"><rect x="24" y="91" width="49" height="106"><set attributeName="y" to="-15" begin="0; animate25.end + 1" /><animate attributeName="y" from="-15" to="91" dur="0.393" begin="animate2.end + 0.5" id="animate3" fill="freeze"/></rect></clipPath><clipPath id="clip-mask-4"><rect x="82" y="128" width="22" height="21"><set attributeName="x" to="60" begin="0; animate25.end + 1" /><animate attributeName="x" from="60" to="82" dur="0.081" begin="animate3.end + 0.5" id="animate4" fill="freeze"/></rect></clipPath><clipPath id="clip-mask-5"><rect x="97" y="44" width="24" height="185"><set attributeName="y" to="-141" begin="0; animate25.end + 1" /><animate attributeName="y" from="-141" to="44" dur="0.685" begin="animate4.end + 0.5" id="animate5" fill="freeze"/></rect></clipPath><clipPath id="clip-mask-6"><rect x="118" y="39" width="45" height="17"><set attributeName="x" to="73" begin="0; animate25.end + 1" /><animate attributeName="x" from="73" to="118" dur="0.167" begin="animate5.end + 0.5" id="animate6" fill="freeze"/></rect></clipPath><clipPath id="clip-mask-7"><rect x="142" y="47" width="24" height="62"><set attributeName="y" to="-15" begin="0; animate25.end + 1" /><animate attributeName="y" from="-15" to="47" dur="0.230" begin="animate6.end" id="animate7" fill="freeze"/></rect></clipPath><clipPath id="clip-mask-8"><rect x="120" y="71" width="23" height="11"><set attributeName="x" to="97" begin="0; animate25.end + 1" /><animate attributeName="x" from="97" to="120" dur="0.085" begin="animate7.end + 0.5" id="animate8" fill="freeze"/></rect></clipPath><clipPath id="clip-mask-9"><rect x="119" y="93" width="26" height="13"><set attributeName="x" to="93" begin="0; animate25.end + 1" /><animate attributeName="x" from="93" to="119" dur="0.096" begin="animate8.end + 0.5" id="animate9" fill="freeze"/></rect></clipPath><clipPath id="clip-mask-10"><rect x="172" y="29" width="19" height="69"><set attributeName="y" to="-40" begin="0; animate25.end + 1" /><animate attributeName="y" from="-40" to="29" dur="0.256" begin="animate9.end + 0.5" id="animate10" fill="freeze"/></rect></clipPath><clipPath id="clip-mask-11"><rect x="188" y="25" width="54" height="19"><set attributeName="x" to="134" begin="0; animate25.end + 1" /><animate attributeName="x" from="134" to="188" dur="0.200" begin="animate10.end + 0.5" id="animate11" fill="freeze"/></rect></clipPath><clipPath id="clip-mask-12"><rect x="221" y="35" width="24" height="217"><set attributeName="y" to="-182" begin="0; animate25.end + 1" /><animate attributeName="y" from="-182" to="35" dur="0.804" begin="animate11.end" id="animate12" fill="freeze"/></rect></clipPath><clipPath id="clip-mask-13"><rect x="200" y="219" width="25" height="25"><set attributeName="x" to="225" begin="0; animate25.end + 1" /><animate attributeName="x" from="225" to="200" dur="0.093" begin="animate12.end" id="animate13" fill="freeze"/></rect></clipPath><clipPath id="clip-mask-14"><rect x="190" y="55" width="27" height="12"><set attributeName="x" to="163" begin="0; animate25.end + 1" /><animate attributeName="x" from="163" to="190" dur="0.100" begin="animate13.end + 0.5" id="animate14" fill="freeze"/></rect></clipPath><clipPath id="clip-mask-15"><rect x="190" y="79" width="37" height="14"><set attributeName="x" to="153" begin="0; animate25.end + 1" /><animate attributeName="x" from="153" to="190" dur="0.137" begin="animate14.end + 0.5" id="animate15" fill="freeze"/></rect></clipPath><clipPath id="clip-mask-16"><rect x="141" y="112" width="55" height="15"><set attributeName="x" to="86" begin="0; animate25.end + 1" /><animate attributeName="x" from="86" to="141" dur="0.204" begin="animate15.end + 0.5" id="animate16" fill="freeze"/></rect></clipPath><clipPath id="clip-mask-17"><rect x="125" y="139" width="19" height="45"><set attributeName="y" to="94" begin="0; animate25.end + 1" /><animate attributeName="y" from="94" to="139" dur="0.167" begin="animate16.end + 0.5" id="animate17" fill="freeze"/></rect></clipPath><clipPath id="clip-mask-18"><rect x="135" y="126" width="79" height="22"><set attributeName="x" to="56" begin="0; animate25.end + 1" /><animate attributeName="x" from="56" to="135" dur="0.293" begin="animate17.end + 0.5" id="animate18" fill="freeze"/></rect></clipPath><clipPath id="clip-mask-19"><rect x="192" y="135" width="25" height="40"><set attributeName="y" to="95" begin="0; animate25.end + 1" /><animate attributeName="y" from="95" to="135" dur="0.148" begin="animate18.end" id="animate19" fill="freeze"/></rect></clipPath><clipPath id="clip-mask-20"><rect x="149" y="151" width="13" height="15"><set attributeName="y" to="136" begin="0; animate25.end + 1" /><animate attributeName="y" from="136" to="151" dur="0.056" begin="animate19.end + 0.5" id="animate20" fill="freeze"/></rect></clipPath><clipPath id="clip-mask-21"><rect x="174" y="144" width="19" height="17"><set attributeName="y" to="127" begin="0; animate25.end + 1" /><animate attributeName="y" from="127" to="144" dur="0.063" begin="animate20.end + 0.5" id="animate21" fill="freeze"/></rect></clipPath><clipPath id="clip-mask-22"><rect x="143" y="163" width="50" height="17"><set attributeName="x" to="93" begin="0; animate25.end + 1" /><animate attributeName="x" from="93" to="143" dur="0.185" begin="animate21.end + 0.5" id="animate22" fill="freeze"/></rect></clipPath><clipPath id="clip-mask-23"><rect x="160" y="104" width="15" height="134"><set attributeName="y" to="-30" begin="0; animate25.end + 1" /><animate attributeName="y" from="-30" to="104" dur="0.496" begin="animate22.end + 0.5" id="animate23" fill="freeze"/></rect></clipPath><clipPath id="clip-mask-24"><rect x="126" y="169" width="39" height="49"><set attributeName="y" to="120" begin="0; animate25.end + 1" /><animate attributeName="y" from="120" to="169" dur="0.181" begin="animate23.end + 0.5" id="animate24" fill="freeze"/></rect></clipPath><clipPath id="clip-mask-25"><rect x="180" y="186" width="30" height="23"><set attributeName="x" to="150" begin="0; animate25.end + 1" /><animate attributeName="x" from="150" to="180" dur="0.111" begin="animate24.end + 0.5" id="animate25" fill="freeze"/></rect></clipPath></defs><path d="M 0 0 L 270 270 M 270 0 L 0 270 M 135 0 L 135 270 M 0 135 L 270 135" stroke="#CCCCCC" /><path d="M 69 104 Q 63 106 57 107 Q 40 111 31 107 Q 25 103 33 101 Q 47 99 73 91 L 83 87 Q 88 85 93 86 Q 100 88 102 90 Q 103 92 102 94 Q 100 96 83 100" fill="#CCCCCC"/><path d="M 80 210 L 80 221 Q 80 236 73 241 Q 72 242 70 241 Q 68 240 67 236 Q 60 222 63 211 Q 66 201 68 190 Q 70 182 72 132 L 73 91 Q 73 70 73 52 Q 73 39 65 26 Q 63 22 65 21 Q 69 17 75 21 Q 81 25 85 28 Q 92 33 89 40 Q 83 60 83 87 L 83 100 Q 82 115 82 128 L 82 135" fill="#CCCCCC"/><path d="M 72 132 Q 64 149 56 162 Q 32 197 26 197 Q 24 197 25 195 Q 47 159 56 140 Q 64 123 69 104 L 73 91" fill="#CCCCCC"/><path d="M 82 128 Q 82 128 83 128 Q 101 134 102 139 Q 104 144 103 146 Q 102 149 100 149 Q 98 149 95 147 Q 85 136 82 135" fill="#CCCCCC"/><path d="M 118 136 L 117 187 Q 116 220 112 227 Q 109 229 106 226 Q 97 215 101 201 Q 113 157 110 83 Q 110 81 110 80 Q 109 70 103 49 Q 102 46 103 45 Q 106 44 109 45 Q 116 48 118 50 L 121 56 Q 121 58 121 61 Q 120 63 120 75 L 120 82 Q 119 89 119 99 L 119 106" fill="#CCCCCC"/><path d="M 118 50 Q 133 47 147 40 Q 150 39 153 40 Q 160 43 163 47 L 147 49 Q 144 48 136 51 Q 122 55 121 56" fill="#CCCCCC"/><path d="M 163 47 Q 166 49 163 53 Q 158 61 157 86 Q 155 101 153 104 Q 148 109 143 103 Q 142 101 142 100 L 145 94 Q 146 91 149 57 Q 149 50 147 49" fill="#CCCCCC"/><path d="M 120 75 Q 124 71 134 71 Q 139 71 141 73 Q 143 75 139 77 Q 131 79 120 82" fill="#CCCCCC"/><path d="M 142 100 Q 132 102 120 105 Q 119 105 119 106 L 119 99 Q 132 93 140 93 Q 143 93 145 94" fill="#CCCCCC"/><path d="M 189 98 L 187 97 L 186 97 Q 179 92 180 78 Q 181 47 174 33 Q 172 31 174 30 Q 175 29 177 29 Q 183 32 188 36 L 190 44 Q 190 52 190 61 L 190 67 Q 190 73 190 78 Q 191 82 191 86 L 190 93" fill="#CCCCCC"/><path d="M 188 36 Q 205 34 218 27 Q 221 25 226 27 Q 236 31 242 35 L 221 41 Q 219 38 215 39 Q 191 44 190 44" fill="#CCCCCC"/><path d="M 226 84 Q 225 44 221 41 L 242 35 Q 245 38 242 43 Q 238 50 239 65 Q 241 162 245 222 Q 245 238 234 249 Q 232 252 230 251 Q 226 249 222 244 L 225 224 Q 231 215 227 88" fill="#CCCCCC"/><path d="M 222 244 Q 214 235 200 222 Q 200 219 205 221 Q 212 223 219 225 Q 224 226 225 224" fill="#CCCCCC"/><path d="M 190 61 Q 197 55 207 56 Q 212 57 215 60 Q 217 63 212 64 Q 203 65 191 67 Q 190 67 190 67" fill="#CCCCCC"/><path d="M 191 86 Q 200 84 212 81 Q 218 79 222 81 Q 225 82 226 84 L 227 88 Q 226 88 226 88 Q 203 90 193 93 Q 192 93 190 93" fill="#CCCCCC"/><path d="M 165 125 Q 161 125 159 126 Q 149 127 145 125 Q 141 122 146 121 Q 151 120 156 120 Q 160 119 164 118 L 174 115 Q 184 112 192 114 Q 196 116 195 118 Q 194 120 193 120 Q 177 122 174 123" fill="#CCCCCC"/><path d="M 143 179 Q 143 180 143 181 Q 142 184 139 180 Q 136 176 135 171 Q 131 154 126 144 Q 125 141 126 140 Q 126 139 129 140 Q 134 140 135 141 L 140 148 Q 142 163 144 174" fill="#CCCCCC"/><path d="M 165 141 Q 151 144 143 147 Q 141 148 140 148 L 135 141 Q 143 139 155 137 Q 160 135 165 134 L 173 133 Q 182 130 184 130 Q 198 126 201 128 Q 211 132 214 135 L 197 137 Q 193 135 173 140" fill="#CCCCCC"/><path d="M 193 166 Q 194 161 197 143 Q 198 138 197 137 L 214 135 Q 217 138 214 141 Q 208 147 205 157 Q 201 170 199 173 Q 198 175 195 175 Q 193 175 192 173" fill="#CCCCCC"/><path d="M 149 154 L 149 153 Q 150 151 151 152 Q 153 152 157 155 Q 160 156 161 159 Q 162 161 161 163 Q 160 166 158 165 Q 155 164 150 155" fill="#CCCCCC"/><path d="M 183 148 L 182 146 Q 182 144 184 144 Q 187 144 189 146 Q 192 149 193 151 Q 193 152 191 153 L 175 161 Q 174 160 175 159 Q 180 153 181 150" fill="#CCCCCC"/><path d="M 154 178 L 149 179 Q 146 180 143 179 L 144 174 Q 154 172 165 169 L 173 167 Q 184 163 193 166 L 192 173 Q 192 173 192 172 Q 183 173 173 175 L 160 177" fill="#CCCCCC"/><path d="M 165 169 Q 165 167 165 165 Q 165 152 165 141 L 165 134 Q 165 129 165 125 L 164 118 Q 163 112 161 108 Q 160 107 161 106 Q 163 104 165 105 Q 169 107 174 111 Q 175 112 175 114 Q 174 115 174 115 L 174 123 Q 173 127 173 133 L 173 140 Q 173 145 173 150 Q 173 159 173 167 L 173 175 Q 173 197 174 223 Q 175 229 173 235 Q 172 238 170 237 Q 168 237 166 233 Q 160 223 161 215 Q 162 211 164 188" fill="#CCCCCC"/><path d="M 165 169 L 164 188 Q 156 198 149 204 Q 131 218 128 217 Q 126 217 128 215 Q 150 193 160 177" fill="#CCCCCC"/><path d="M 181 191 L 181 189 Q 180 187 181 187 Q 185 186 200 191 Q 207 195 208 199 Q 210 204 209 207 Q 208 209 206 209 Q 204 209 186 195" fill="#CCCCCC"/><path d="M 69 104 Q 63 106 57 107 Q 40 111 31 107 Q 25 103 33 101 Q 47 99 73 91 L 83 87 Q 88 85 93 86 Q 100 88 102 90 Q 103 92 102 94 Q 100 96 83 100" fill="#0000ff" clip-path="url(#clip-mask-1)" /><path d="M 80 210 L 80 221 Q 80 236 73 241 Q 72 242 70 241 Q 68 240 67 236 Q 60 222 63 211 Q 66 201 68 190 Q 70 182 72 132 L 73 91 Q 73 70 73 52 Q 73 39 65 26 Q 63 22 65 21 Q 69 17 75 21 Q 81 25 85 28 Q 92 33 89 40 Q 83 60 83 87 L 83 100 Q 82 115 82 128 L 82 135" fill="#0000ff" clip-path="url(#clip-mask-2)" /><path d="M 72 132 Q 64 149 56 162 Q 32 197 26 197 Q 24 197 25 195 Q 47 159 56 140 Q 64 123 69 104 L 73 91" fill="#0000ff" clip-path="url(#clip-mask-3)" /><path d="M 82 128 Q 82 128 83 128 Q 101 134 102 139 Q 104 144 103 146 Q 102 149 100 149 Q 98 149 95 147 Q 85 136 82 135" fill="#0000ff" clip-path="url(#clip-mask-4)" /><path d="M 118 136 L 117 187 Q 116 220 112 227 Q 109 229 106 226 Q 97 215 101 201 Q 113 157 110 83 Q 110 81 110 80 Q 109 70 103 49 Q 102 46 103 45 Q 106 44 109 45 Q 116 48 118 50 L 121 56 Q 121 58 121 61 Q 120 63 120 75 L 120 82 Q 119 89 119 99 L 119 106" fill="#000080" clip-path="url(#clip-mask-5)" /><path d="M 118 50 Q 133 47 147 40 Q 150 39 153 40 Q 160 43 163 47 L 147 49 Q 144 48 136 51 Q 122 55 121 56" fill="#000080" clip-path="url(#clip-mask-6)" /><path d="M 163 47 Q 166 49 163 53 Q 158 61 157 86 Q 155 101 153 104 Q 148 109 143 103 Q 142 101 142 100 L 145 94 Q 146 91 149 57 Q 149 50 147 49" fill="#000080" clip-path="url(#clip-mask-7)" /><path d="M 120 75 Q 124 71 134 71 Q 139 71 141 73 Q 143 75 139 77 Q 131 79 120 82" fill="#000080" clip-path="url(#clip-mask-8)" /><path d="M 142 100 Q 132 102 120 105 Q 119 105 119 106 L 119 99 Q 132 93 140 93 Q 143 93 145 94" fill="#000080" clip-path="url(#clip-mask-9)" /><path d="M 189 98 L 187 97 L 186 97 Q 179 92 180 78 Q 181 47 174 33 Q 172 31 174 30 Q 175 29 177 29 Q 183 32 188 36 L 190 44 Q 190 52 190 61 L 190 67 Q 190 73 190 78 Q 191 82 191 86 L 190 93" fill="#000080" clip-path="url(#clip-mask-10)" /><path d="M 188 36 Q 205 34 218 27 Q 221 25 226 27 Q 236 31 242 35 L 221 41 Q 219 38 215 39 Q 191 44 190 44" fill="#000080" clip-path="url(#clip-mask-11)" /><path d="M 226 84 Q 225 44 221 41 L 242 35 Q 245 38 242 43 Q 238 50 239 65 Q 241 162 245 222 Q 245 238 234 249 Q 232 252 230 251 Q 226 249 222 244 L 225 224 Q 231 215 227 88" fill="#000080" clip-path="url(#clip-mask-12)" /><path d="M 222 244 Q 214 235 200 222 Q 200 219 205 221 Q 212 223 219 225 Q 224 226 225 224" fill="#000080" clip-path="url(#clip-mask-13)" /><path d="M 190 61 Q 197 55 207 56 Q 212 57 215 60 Q 217 63 212 64 Q 203 65 191 67 Q 190 67 190 67" fill="#000080" clip-path="url(#clip-mask-14)" /><path d="M 191 86 Q 200 84 212 81 Q 218 79 222 81 Q 225 82 226 84 L 227 88 Q 226 88 226 88 Q 203 90 193 93 Q 192 93 190 93" fill="#000080" clip-path="url(#clip-mask-15)" /><path d="M 165 125 Q 161 125 159 126 Q 149 127 145 125 Q 141 122 146 121 Q 151 120 156 120 Q 160 119 164 118 L 174 115 Q 184 112 192 114 Q 196 116 195 118 Q 194 120 193 120 Q 177 122 174 123" fill="#000080" clip-path="url(#clip-mask-16)" /><path d="M 143 179 Q 143 180 143 181 Q 142 184 139 180 Q 136 176 135 171 Q 131 154 126 144 Q 125 141 126 140 Q 126 139 129 140 Q 134 140 135 141 L 140 148 Q 142 163 144 174" fill="#000080" clip-path="url(#clip-mask-17)" /><path d="M 165 141 Q 151 144 143 147 Q 141 148 140 148 L 135 141 Q 143 139 155 137 Q 160 135 165 134 L 173 133 Q 182 130 184 130 Q 198 126 201 128 Q 211 132 214 135 L 197 137 Q 193 135 173 140" fill="#000080" clip-path="url(#clip-mask-18)" /><path d="M 193 166 Q 194 161 197 143 Q 198 138 197 137 L 214 135 Q 217 138 214 141 Q 208 147 205 157 Q 201 170 199 173 Q 198 175 195 175 Q 193 175 192 173" fill="#000080" clip-path="url(#clip-mask-19)" /><path d="M 149 154 L 149 153 Q 150 151 151 152 Q 153 152 157 155 Q 160 156 161 159 Q 162 161 161 163 Q 160 166 158 165 Q 155 164 150 155" fill="#000080" clip-path="url(#clip-mask-20)" /><path d="M 183 148 L 182 146 Q 182 144 184 144 Q 187 144 189 146 Q 192 149 193 151 Q 193 152 191 153 L 175 161 Q 174 160 175 159 Q 180 153 181 150" fill="#000080" clip-path="url(#clip-mask-21)" /><path d="M 154 178 L 149 179 Q 146 180 143 179 L 144 174 Q 154 172 165 169 L 173 167 Q 184 163 193 166 L 192 173 Q 192 173 192 172 Q 183 173 173 175 L 160 177" fill="#000080" clip-path="url(#clip-mask-22)" /><path d="M 165 169 Q 165 167 165 165 Q 165 152 165 141 L 165 134 Q 165 129 165 125 L 164 118 Q 163 112 161 108 Q 160 107 161 106 Q 163 104 165 105 Q 169 107 174 111 Q 175 112 175 114 Q 174 115 174 115 L 174 123 Q 173 127 173 133 L 173 140 Q 173 145 173 150 Q 173 159 173 167 L 173 175 Q 173 197 174 223 Q 175 229 173 235 Q 172 238 170 237 Q 168 237 166 233 Q 160 223 161 215 Q 162 211 164 188" fill="#000080" clip-path="url(#clip-mask-23)" /><path d="M 165 169 L 164 188 Q 156 198 149 204 Q 131 218 128 217 Q 126 217 128 215 Q 150 193 160 177" fill="#000080" clip-path="url(#clip-mask-24)" /><path d="M 181 191 L 181 189 Q 180 187 181 187 Q 185 186 200 191 Q 207 195 208 199 Q 210 204 209 207 Q 208 209 206 209 Q 204 209 186 195" fill="#000080" clip-path="url(#clip-mask-25)" /></svg>