<svg xmlns="http://www.w3.org/2000/svg" xmlns:xlink="http://www.w3.org/1999/xlink" width="270" height="270"><defs><clipPath id="clip-mask-1"><rect x="25" y="84" width="78" height="28"><animate attributeName="x" from="-53" to="25" dur="0.289" begin="0; animate24.end + 1" id="animate1" fill="freeze"/></rect></clipPath><clipPath id="clip-mask-2"><rect x="61" y="17" width="33" height="224"><set attributeName="y" to="-207" begin="0; animate24.end + 1" /><animate attributeName="y" from="-207" to="17" dur="0.830" begin="animate1.end + 0.5" id="animate2" fill="freeze"/></rect></clipPath><clipPath id="clip-mask-3"><rect x="19" y="90" width="55" height="101"><set attributeName="y" to="-11" begin="0; animate24.end + 1" /><animate attributeName="y" from="-11" to="90" dur="0.374" begin="animate2.end + 0.5" id="animate3" fill="freeze"/></rect></clipPath><clipPath id="clip-mask-4"><rect x="85" y="120" width="25" height="21"><set attributeName="x" to="60" begin="0; animate24.end + 1" /><animate attributeName="x" from="60" to="85" dur="0.093" begin="animate3.end + 0.5" id="animate4" fill="freeze"/></rect></clipPath><clipPath id="clip-mask-5"><rect x="136" y="25" width="25" height="49"><set attributeName="y" to="-24" begin="0; animate24.end + 1" /><animate attributeName="y" from="-24" to="25" dur="0.181" begin="animate4.end + 0.5" id="animate5" fill="freeze"/></rect></clipPath><clipPath id="clip-mask-6"><rect x="107" y="48" width="63" height="21"><set attributeName="x" to="44" begin="0; animate24.end + 1" /><animate attributeName="x" from="44" to="107" dur="0.233" begin="animate5.end + 0.5" id="animate6" fill="freeze"/></rect></clipPath><clipPath id="clip-mask-7"><rect x="180" y="11" width="28" height="60"><set attributeName="y" to="-49" begin="0; animate24.end + 1" /><animate attributeName="y" from="-49" to="11" dur="0.222" begin="animate6.end + 0.5" id="animate7" fill="freeze"/></rect></clipPath><clipPath id="clip-mask-8"><rect x="193" y="38" width="46" height="16"><set attributeName="x" to="147" begin="0; animate24.end + 1" /><animate attributeName="x" from="147" to="193" dur="0.170" begin="animate7.end + 0.5" id="animate8" fill="freeze"/></rect></clipPath><clipPath id="clip-mask-9"><rect x="113" y="85" width="18" height="37"><set attributeName="y" to="48" begin="0; animate24.end + 1" /><animate attributeName="y" from="48" to="85" dur="0.137" begin="animate8.end + 0.5" id="animate9" fill="freeze"/></rect></clipPath><clipPath id="clip-mask-10"><rect x="123" y="75" width="43" height="17"><set attributeName="x" to="80" begin="0; animate24.end + 1" /><animate attributeName="x" from="80" to="123" dur="0.159" begin="animate9.end + 0.5" id="animate10" fill="freeze"/></rect></clipPath><clipPath id="clip-mask-11"><rect x="150" y="82" width="20" height="21"><set attributeName="y" to="61" begin="0; animate24.end + 1" /><animate attributeName="y" from="61" to="82" dur="0.078" begin="animate10.end" id="animate11" fill="freeze"/></rect></clipPath><clipPath id="clip-mask-12"><rect x="130" y="103" width="35" height="12"><set attributeName="x" to="95" begin="0; animate24.end + 1" /><animate attributeName="x" from="95" to="130" dur="0.130" begin="animate11.end + 0.5" id="animate12" fill="freeze"/></rect></clipPath><clipPath id="clip-mask-13"><rect x="175" y="74" width="18" height="38"><set attributeName="y" to="36" begin="0; animate24.end + 1" /><animate attributeName="y" from="36" to="74" dur="0.141" begin="animate12.end + 0.5" id="animate13" fill="freeze"/></rect></clipPath><clipPath id="clip-mask-14"><rect x="187" y="65" width="45" height="17"><set attributeName="x" to="142" begin="0; animate24.end + 1" /><animate attributeName="x" from="142" to="187" dur="0.167" begin="animate13.end + 0.5" id="animate14" fill="freeze"/></rect></clipPath><clipPath id="clip-mask-15"><rect x="214" y="74" width="23" height="21"><set attributeName="y" to="53" begin="0; animate24.end + 1" /><animate attributeName="y" from="53" to="74" dur="0.078" begin="animate14.end" id="animate15" fill="freeze"/></rect></clipPath><clipPath id="clip-mask-16"><rect x="192" y="93" width="36" height="12"><set attributeName="x" to="156" begin="0; animate24.end + 1" /><animate attributeName="x" from="156" to="192" dur="0.133" begin="animate15.end + 0.5" id="animate16" fill="freeze"/></rect></clipPath><clipPath id="clip-mask-17"><rect x="95" y="113" width="59" height="68"><set attributeName="y" to="45" begin="0; animate24.end + 1" /><animate attributeName="y" from="45" to="113" dur="0.252" begin="animate16.end + 0.5" id="animate17" fill="freeze"/></rect></clipPath><clipPath id="clip-mask-18"><rect x="125" y="151" width="22" height="107"><set attributeName="y" to="44" begin="0; animate24.end + 1" /><animate attributeName="y" from="44" to="151" dur="0.396" begin="animate17.end + 0.5" id="animate18" fill="freeze"/></rect></clipPath><clipPath id="clip-mask-19"><rect x="169" y="106" width="22" height="22"><set attributeName="x" to="147" begin="0; animate24.end + 1" /><animate attributeName="x" from="147" to="169" dur="0.081" begin="animate18.end + 0.5" id="animate19" fill="freeze"/></rect></clipPath><clipPath id="clip-mask-20"><rect x="148" y="122" width="79" height="25"><set attributeName="x" to="69" begin="0; animate24.end + 1" /><animate attributeName="x" from="69" to="148" dur="0.293" begin="animate19.end + 0.5" id="animate20" fill="freeze"/></rect></clipPath><clipPath id="clip-mask-21"><rect x="155" y="149" width="62" height="22"><set attributeName="x" to="93" begin="0; animate24.end + 1" /><animate attributeName="x" from="93" to="155" dur="0.230" begin="animate20.end + 0.5" id="animate21" fill="freeze"/></rect></clipPath><clipPath id="clip-mask-22"><rect x="154" y="172" width="68" height="21"><set attributeName="x" to="86" begin="0; animate24.end + 1" /><animate attributeName="x" from="86" to="154" dur="0.252" begin="animate21.end + 0.5" id="animate22" fill="freeze"/></rect></clipPath><clipPath id="clip-mask-23"><rect x="176" y="141" width="18" height="66"><set attributeName="y" to="75" begin="0; animate24.end + 1" /><animate attributeName="y" from="75" to="141" dur="0.244" begin="animate22.end + 0.5" id="animate23" fill="freeze"/></rect></clipPath><clipPath id="clip-mask-24"><rect x="144" y="196" width="106" height="27"><set attributeName="x" to="38" begin="0; animate24.end + 1" /><animate attributeName="x" from="38" to="144" dur="0.393" begin="animate23.end + 0.5" id="animate24" fill="freeze"/></rect></clipPath></defs><path d="M 0 0 L 270 270 M 270 0 L 0 270 M 135 0 L 135 270 M 0 135 L 270 135" stroke="#CCCCCC" /><path d="M 62 105 L 54 107 Q 41 112 31 107 Q 25 104 33 101 Q 52 97 74 90 L 84 85 Q 88 84 93 84 Q 101 85 102 88 Q 103 90 102 92 Q 100 93 84 99 L 69 103" fill="#CCCCCC"/><path d="M 74 90 Q 74 69 74 52 Q 74 39 65 27 Q 64 22 65 21 Q 70 17 76 22 Q 82 25 86 29 Q 94 34 90 40 Q 84 60 84 85 L 84 99 Q 81 206 81 219 Q 82 227 79 233 Q 76 238 74 239 Q 73 241 71 240 Q 69 239 67 234 Q 61 220 64 209 Q 67 198 69 186 Q 70 180 72 128" fill="#CCCCCC"/><path d="M 74 90 L 72 128 Q 63 147 53 159 Q 27 191 22 191 Q 19 191 21 188 Q 59 135 69 103" fill="#CCCCCC"/><path d="M 86 126 L 85 124 Q 85 122 86 121 Q 89 120 101 124 Q 107 127 108 130 Q 110 136 109 138 Q 108 141 106 141 Q 104 141 101 139 Q 96 134 91 130" fill="#CCCCCC"/><path d="M 161 67 L 161 71 Q 160 74 156 71 Q 152 67 151 59 L 149 51 Q 144 39 139 34 Q 136 29 140 27 Q 145 25 154 29 Q 159 31 159 35 Q 159 41 160 49 L 160 56" fill="#CCCCCC"/><path d="M 151 59 Q 137 63 125 67 Q 122 69 118 67 Q 112 65 109 62 Q 107 60 107 58 Q 108 57 110 57 Q 114 56 122 56 Q 137 53 149 51 L 160 49 Q 163 48 167 48 Q 170 48 170 49 Q 170 51 169 52 Q 165 55 162 55 Q 161 55 160 56" fill="#CCCCCC"/><path d="M 188 65 L 184 69 Q 181 71 181 68 Q 180 64 182 58 Q 189 26 185 17 Q 183 15 186 13 Q 190 11 194 13 Q 202 17 205 21 Q 208 24 205 27 Q 200 35 196 46 L 193 54" fill="#CCCCCC"/><path d="M 196 46 Q 203 45 209 44 Q 227 38 237 46 Q 239 49 238 50 Q 237 52 235 52 Q 227 51 214 52 Q 195 54 193 54" fill="#CCCCCC"/><path d="M 131 115 Q 131 117 131 119 Q 130 122 126 118 Q 124 115 123 111 Q 120 98 115 90 Q 113 87 114 86 Q 115 85 117 86 Q 120 86 123 87 L 128 92 Q 128 95 130 109" fill="#CCCCCC"/><path d="M 151 88 Q 150 86 145 87 Q 138 89 129 91 Q 128 91 128 92 L 123 87 Q 129 85 143 81 Q 153 75 156 77 Q 162 80 166 82" fill="#CCCCCC"/><path d="M 150 103 L 151 88 L 166 82 Q 170 85 166 90 Q 163 93 160 103" fill="#CCCCCC"/><path d="M 135 115 Q 133 115 131 115 L 130 109 Q 139 106 150 103 L 150 103 L 160 103 Q 165 105 165 107 Q 165 109 163 109 Q 150 111 143 113" fill="#CCCCCC"/><path d="M 193 108 L 192 109 Q 191 112 187 108 Q 184 105 184 101 Q 181 87 177 79 Q 175 76 176 75 Q 177 74 179 74 Q 185 75 187 76 L 191 82 Q 191 85 192 99 L 193 105" fill="#CCCCCC"/><path d="M 217 78 Q 215 76 210 77 Q 191 81 191 82 L 187 76 Q 197 74 207 71 Q 220 65 223 67 Q 228 71 232 74" fill="#CCCCCC"/><path d="M 214 93 Q 217 78 217 78 L 232 74 Q 237 77 232 82 Q 228 85 224 95" fill="#CCCCCC"/><path d="M 192 99 Q 202 97 214 93 L 214 93 L 224 95 Q 228 98 228 99 Q 228 100 226 101 Q 206 103 196 104 Q 194 105 193 105" fill="#CCCCCC"/><path d="M 128 157 Q 108 179 98 181 Q 95 181 96 179 Q 97 178 101 174 Q 140 130 135 116 Q 135 115 135 115 L 143 113 Q 152 118 153 124 Q 153 124 154 125 Q 153 125 134 151" fill="#CCCCCC"/><path d="M 144 221 Q 143 242 140 251 Q 137 258 133 254 Q 133 253 132 253 Q 125 242 127 231 Q 133 209 133 180 Q 133 174 128 157 L 134 151 Q 136 152 140 157 Q 147 164 146 171 Q 144 180 144 213" fill="#CCCCCC"/><path d="M 169 112 L 169 110 Q 169 107 170 107 Q 171 106 174 107 Q 189 113 190 117 Q 191 123 190 126 Q 189 128 187 128 Q 183 127 174 116" fill="#CCCCCC"/><path d="M 176 144 Q 175 144 174 144 Q 162 147 154 143 Q 148 139 156 138 Q 171 136 183 132 Q 195 129 205 124 Q 211 122 218 123 Q 224 124 226 126 Q 227 128 225 130 Q 223 131 186 141" fill="#CCCCCC"/><path d="M 179 168 Q 169 171 160 167 Q 155 164 162 162 Q 171 161 179 159 L 192 155 Q 203 149 209 151 Q 215 152 216 154 Q 217 156 216 157 Q 215 158 208 160 Q 199 162 192 165" fill="#CCCCCC"/><path d="M 180 190 Q 179 190 178 190 Q 167 193 159 189 Q 154 185 161 184 Q 171 183 180 181 L 191 178 Q 209 172 214 173 Q 220 175 221 177 Q 222 179 221 180 Q 220 181 191 188" fill="#CCCCCC"/><path d="M 180 198 L 180 190 L 180 181 Q 179 173 179 168 L 179 159 Q 179 149 176 144 L 186 141 Q 189 143 192 146 Q 194 148 193 152 Q 193 154 192 155 L 192 165 Q 192 171 191 178 L 191 188 Q 191 196 191 206 L 180 207" fill="#CCCCCC"/><path d="M 191 206 Q 207 203 217 201 Q 233 196 246 206 Q 250 209 249 212 Q 248 214 243 214 Q 183 214 154 222 Q 150 223 144 221 L 144 213 Q 163 210 180 207" fill="#CCCCCC"/><path d="M 62 105 L 54 107 Q 41 112 31 107 Q 25 104 33 101 Q 52 97 74 90 L 84 85 Q 88 84 93 84 Q 101 85 102 88 Q 103 90 102 92 Q 100 93 84 99 L 69 103" fill="#0000ff" clip-path="url(#clip-mask-1)" /><path d="M 74 90 Q 74 69 74 52 Q 74 39 65 27 Q 64 22 65 21 Q 70 17 76 22 Q 82 25 86 29 Q 94 34 90 40 Q 84 60 84 85 L 84 99 Q 81 206 81 219 Q 82 227 79 233 Q 76 238 74 239 Q 73 241 71 240 Q 69 239 67 234 Q 61 220 64 209 Q 67 198 69 186 Q 70 180 72 128" fill="#0000ff" clip-path="url(#clip-mask-2)" /><path d="M 74 90 L 72 128 Q 63 147 53 159 Q 27 191 22 191 Q 19 191 21 188 Q 59 135 69 103" fill="#0000ff" clip-path="url(#clip-mask-3)" /><path d="M 86 126 L 85 124 Q 85 122 86 121 Q 89 120 101 124 Q 107 127 108 130 Q 110 136 109 138 Q 108 141 106 141 Q 104 141 101 139 Q 96 134 91 130" fill="#0000ff" clip-path="url(#clip-mask-4)" /><path d="M 161 67 L 161 71 Q 160 74 156 71 Q 152 67 151 59 L 149 51 Q 144 39 139 34 Q 136 29 140 27 Q 145 25 154 29 Q 159 31 159 35 Q 159 41 160 49 L 160 56" fill="#000080" clip-path="url(#clip-mask-5)" /><path d="M 151 59 Q 137 63 125 67 Q 122 69 118 67 Q 112 65 109 62 Q 107 60 107 58 Q 108 57 110 57 Q 114 56 122 56 Q 137 53 149 51 L 160 49 Q 163 48 167 48 Q 170 48 170 49 Q 170 51 169 52 Q 165 55 162 55 Q 161 55 160 56" fill="#000080" clip-path="url(#clip-mask-6)" /><path d="M 188 65 L 184 69 Q 181 71 181 68 Q 180 64 182 58 Q 189 26 185 17 Q 183 15 186 13 Q 190 11 194 13 Q 202 17 205 21 Q 208 24 205 27 Q 200 35 196 46 L 193 54" fill="#000080" clip-path="url(#clip-mask-7)" /><path d="M 196 46 Q 203 45 209 44 Q 227 38 237 46 Q 239 49 238 50 Q 237 52 235 52 Q 227 51 214 52 Q 195 54 193 54" fill="#000080" clip-path="url(#clip-mask-8)" /><path d="M 131 115 Q 131 117 131 119 Q 130 122 126 118 Q 124 115 123 111 Q 120 98 115 90 Q 113 87 114 86 Q 115 85 117 86 Q 120 86 123 87 L 128 92 Q 128 95 130 109" fill="#000080" clip-path="url(#clip-mask-9)" /><path d="M 151 88 Q 150 86 145 87 Q 138 89 129 91 Q 128 91 128 92 L 123 87 Q 129 85 143 81 Q 153 75 156 77 Q 162 80 166 82" fill="#000080" clip-path="url(#clip-mask-10)" /><path d="M 150 103 L 151 88 L 166 82 Q 170 85 166 90 Q 163 93 160 103" fill="#000080" clip-path="url(#clip-mask-11)" /><path d="M 135 115 Q 133 115 131 115 L 130 109 Q 139 106 150 103 L 150 103 L 160 103 Q 165 105 165 107 Q 165 109 163 109 Q 150 111 143 113" fill="#000080" clip-path="url(#clip-mask-12)" /><path d="M 193 108 L 192 109 Q 191 112 187 108 Q 184 105 184 101 Q 181 87 177 79 Q 175 76 176 75 Q 177 74 179 74 Q 185 75 187 76 L 191 82 Q 191 85 192 99 L 193 105" fill="#000080" clip-path="url(#clip-mask-13)" /><path d="M 217 78 Q 215 76 210 77 Q 191 81 191 82 L 187 76 Q 197 74 207 71 Q 220 65 223 67 Q 228 71 232 74" fill="#000080" clip-path="url(#clip-mask-14)" /><path d="M 214 93 Q 217 78 217 78 L 232 74 Q 237 77 232 82 Q 228 85 224 95" fill="#000080" clip-path="url(#clip-mask-15)" /><path d="M 192 99 Q 202 97 214 93 L 214 93 L 224 95 Q 228 98 228 99 Q 228 100 226 101 Q 206 103 196 104 Q 194 105 193 105" fill="#000080" clip-path="url(#clip-mask-16)" /><path d="M 128 157 Q 108 179 98 181 Q 95 181 96 179 Q 97 178 101 174 Q 140 130 135 116 Q 135 115 135 115 L 143 113 Q 152 118 153 124 Q 153 124 154 125 Q 153 125 134 151" fill="#000080" clip-path="url(#clip-mask-17)" /><path d="M 144 221 Q 143 242 140 251 Q 137 258 133 254 Q 133 253 132 253 Q 125 242 127 231 Q 133 209 133 180 Q 133 174 128 157 L 134 151 Q 136 152 140 157 Q 147 164 146 171 Q 144 180 144 213" fill="#000080" clip-path="url(#clip-mask-18)" /><path d="M 169 112 L 169 110 Q 169 107 170 107 Q 171 106 174 107 Q 189 113 190 117 Q 191 123 190 126 Q 189 128 187 128 Q 183 127 174 116" fill="#000080" clip-path="url(#clip-mask-19)" /><path d="M 176 144 Q 175 144 174 144 Q 162 147 154 143 Q 148 139 156 138 Q 171 136 183 132 Q 195 129 205 124 Q 211 122 218 123 Q 224 124 226 126 Q 227 128 225 130 Q 223 131 186 141" fill="#000080" clip-path="url(#clip-mask-20)" /><path d="M 179 168 Q 169 171 160 167 Q 155 164 162 162 Q 171 161 179 159 L 192 155 Q 203 149 209 151 Q 215 152 216 154 Q 217 156 216 157 Q 215 158 208 160 Q 199 162 192 165" fill="#000080" clip-path="url(#clip-mask-21)" /><path d="M 180 190 Q 179 190 178 190 Q 167 193 159 189 Q 154 185 161 184 Q 171 183 180 181 L 191 178 Q 209 172 214 173 Q 220 175 221 177 Q 222 179 221 180 Q 220 181 191 188" fill="#000080" clip-path="url(#clip-mask-22)" /><path d="M 180 198 L 180 190 L 180 181 Q 179 173 179 168 L 179 159 Q 179 149 176 144 L 186 141 Q 189 143 192 146 Q 194 148 193 152 Q 193 154 192 155 L 192 165 Q 192 171 191 178 L 191 188 Q 191 196 191 206 L 180 207" fill="#000080" clip-path="url(#clip-mask-23)" /><path d="M 191 206 Q 207 203 217 201 Q 233 196 246 206 Q 250 209 249 212 Q 248 214 243 214 Q 183 214 154 222 Q 150 223 144 221 L 144 213 Q 163 210 180 207" fill="#000080" clip-path="url(#clip-mask-24)" /></svg>