<svg xmlns="http://www.w3.org/2000/svg" xmlns:xlink="http://www.w3.org/1999/xlink" width="270" height="270"><defs><clipPath id="clip-mask-1"><rect x="39" y="42" width="26" height="68"><animate attributeName="y" from="-26" to="42" dur="0.252" begin="0; animate18.end + 1" id="animate1" fill="freeze"/></rect></clipPath><clipPath id="clip-mask-2"><rect x="55" y="34" width="76" height="19"><set attributeName="x" to="-21" begin="0; animate18.end + 1" /><animate attributeName="x" from="-21" to="55" dur="0.281" begin="animate1.end + 0.5" id="animate2" fill="freeze"/></rect></clipPath><clipPath id="clip-mask-3"><rect x="94" y="47" width="40" height="63"><set attributeName="y" to="-16" begin="0; animate18.end + 1" /><animate attributeName="y" from="-16" to="47" dur="0.233" begin="animate2.end" id="animate3" fill="freeze"/></rect></clipPath><clipPath id="clip-mask-4"><rect x="62" y="64" width="37" height="14"><set attributeName="x" to="25" begin="0; animate18.end + 1" /><animate attributeName="x" from="25" to="62" dur="0.137" begin="animate3.end + 0.5" id="animate4" fill="freeze"/></rect></clipPath><clipPath id="clip-mask-5"><rect x="65" y="89" width="33" height="14"><set attributeName="x" to="32" begin="0; animate18.end + 1" /><animate attributeName="x" from="32" to="65" dur="0.122" begin="animate4.end + 0.5" id="animate5" fill="freeze"/></rect></clipPath><clipPath id="clip-mask-6"><rect x="30" y="108" width="41" height="44"><set attributeName="y" to="64" begin="0; animate18.end + 1" /><animate attributeName="y" from="64" to="108" dur="0.163" begin="animate5.end + 0.5" id="animate6" fill="freeze"/></rect></clipPath><clipPath id="clip-mask-7"><rect x="53" y="122" width="85" height="23"><set attributeName="x" to="-32" begin="0; animate18.end + 1" /><animate attributeName="x" from="-32" to="53" dur="0.315" begin="animate6.end + 0.5" id="animate7" fill="freeze"/></rect></clipPath><clipPath id="clip-mask-8"><rect x="99" y="138" width="35" height="106"><set attributeName="y" to="32" begin="0; animate18.end + 1" /><animate attributeName="y" from="32" to="138" dur="0.393" begin="animate7.end" id="animate8" fill="freeze"/></rect></clipPath><clipPath id="clip-mask-9"><rect x="74" y="219" width="26" height="26"><set attributeName="x" to="100" begin="0; animate18.end + 1" /><animate attributeName="x" from="100" to="74" dur="0.096" begin="animate8.end" id="animate9" fill="freeze"/></rect></clipPath><clipPath id="clip-mask-10"><rect x="46" y="143" width="35" height="43"><set attributeName="y" to="100" begin="0; animate18.end + 1" /><animate attributeName="y" from="100" to="143" dur="0.159" begin="animate9.end + 0.5" id="animate10" fill="freeze"/></rect></clipPath><clipPath id="clip-mask-11"><rect x="71" y="160" width="25" height="20"><set attributeName="x" to="46" begin="0; animate18.end + 1" /><animate attributeName="x" from="46" to="71" dur="0.093" begin="animate10.end + 0.5" id="animate11" fill="freeze"/></rect></clipPath><clipPath id="clip-mask-12"><rect x="18" y="156" width="23" height="56"><set attributeName="y" to="100" begin="0; animate18.end + 1" /><animate attributeName="y" from="100" to="156" dur="0.207" begin="animate11.end + 0.5" id="animate12" fill="freeze"/></rect></clipPath><clipPath id="clip-mask-13"><rect x="34" y="186" width="60" height="24"><set attributeName="x" to="-26" begin="0; animate18.end + 1" /><animate attributeName="x" from="-26" to="34" dur="0.222" begin="animate12.end" id="animate13" fill="freeze"/></rect></clipPath><clipPath id="clip-mask-14"><rect x="133" y="24" width="55" height="100"><set attributeName="y" to="-76" begin="0; animate18.end + 1" /><animate attributeName="y" from="-76" to="24" dur="0.370" begin="animate13.end + 0.5" id="animate14" fill="freeze"/></rect></clipPath><clipPath id="clip-mask-15"><rect x="155" y="82" width="72" height="25"><set attributeName="x" to="83" begin="0; animate18.end + 1" /><animate attributeName="x" from="83" to="155" dur="0.267" begin="animate14.end + 0.5" id="animate15" fill="freeze"/></rect></clipPath><clipPath id="clip-mask-16"><rect x="192" y="92" width="42" height="31"><set attributeName="y" to="61" begin="0; animate18.end + 1" /><animate attributeName="y" from="61" to="92" dur="0.115" begin="animate15.end" id="animate16" fill="freeze"/></rect></clipPath><clipPath id="clip-mask-17"><rect x="122" y="118" width="62" height="101"><set attributeName="y" to="17" begin="0; animate18.end + 1" /><animate attributeName="y" from="17" to="118" dur="0.374" begin="animate16.end + 0.5" id="animate17" fill="freeze"/></rect></clipPath><clipPath id="clip-mask-18"><rect x="172" y="167" width="79" height="60"><set attributeName="x" to="93" begin="0; animate18.end + 1" /><animate attributeName="x" from="93" to="172" dur="0.293" begin="animate17.end + 0.5" id="animate18" fill="freeze"/></rect></clipPath></defs><path d="M 0 0 L 270 270 M 270 0 L 0 270 M 135 0 L 135 270 M 0 135 L 270 135" stroke="#CCCCCC" /><path d="M 65 104 L 64 106 Q 63 110 58 104 Q 54 99 53 91 Q 49 65 41 49 Q 39 45 41 43 Q 42 42 45 43 Q 52 44 55 45 L 59 53 Q 59 58 62 72 L 63 78 Q 65 93 65 96 L 65 103" fill="#CCCCCC"/><path d="M 108 47 Q 106 45 100 46 Q 74 49 59 53 L 55 45 Q 62 44 71 43 Q 94 38 98 38 Q 114 34 118 37 Q 128 43 131 48" fill="#CCCCCC"/><path d="M 98 92 Q 103 85 110 55 Q 112 49 108 47 L 131 48 Q 134 51 130 54 Q 125 59 122 66 Q 113 99 108 105 Q 105 110 102 108 Q 98 106 94 99" fill="#CCCCCC"/><path d="M 62 72 Q 79 64 89 65 Q 94 65 97 69 Q 99 72 94 73 Q 80 75 63 78" fill="#CCCCCC"/><path d="M 65 96 Q 84 89 93 90 Q 96 91 98 92 L 94 99 Q 82 100 65 103" fill="#CCCCCC"/><path d="M 53 140 Q 38 152 33 152 Q 30 152 32 150 Q 33 148 35 146 Q 54 127 53 112 Q 52 109 55 109 Q 60 108 68 116 Q 71 119 68 122 Q 64 126 59 132 Q 58 134 57 135" fill="#CCCCCC"/><path d="M 64 144 Q 60 145 53 140 L 57 135 Q 90 133 112 124 Q 119 122 124 124 Q 132 128 136 132 Q 138 135 134 139 L 114 138 Q 114 137 110 137 Q 92 138 72 143" fill="#CCCCCC"/><path d="M 134 139 Q 129 148 128 161 Q 123 223 108 238 Q 103 244 99 244 L 100 221 Q 104 217 107 205 Q 114 186 115 151 Q 116 142 114 138" fill="#CCCCCC"/><path d="M 99 244 Q 94 245 93 241 Q 88 233 78 224 Q 74 219 80 220 Q 85 221 91 222 Q 98 224 100 221" fill="#CCCCCC"/><path d="M 58 184 L 48 185 Q 46 186 47 183 Q 66 159 64 144 L 72 143 Q 75 144 79 146 Q 81 149 79 151 Q 76 155 74 160 L 71 165" fill="#CCCCCC"/><path d="M 74 160 Q 80 161 87 164 Q 93 166 94 170 Q 96 176 95 178 Q 94 180 92 180 Q 90 180 87 179 Q 80 173 75 168 Q 72 166 71 165" fill="#CCCCCC"/><path d="M 36 185 L 34 195 Q 34 198 36 199 L 34 210 Q 29 212 27 212 Q 24 212 20 206 Q 18 203 21 199 Q 23 197 25 185 Q 28 173 22 161 Q 20 156 25 156 Q 30 157 36 164 Q 41 169 39 175" fill="#CCCCCC"/><path d="M 36 199 Q 39 199 68 190 Q 78 186 85 189 Q 94 193 94 196 Q 94 199 88 199 Q 59 200 34 210" fill="#CCCCCC"/><path d="M 142 120 L 136 122 Q 133 124 133 120 Q 133 119 136 116 Q 146 96 153 79 Q 168 41 161 31 Q 158 26 163 24 Q 168 24 176 27 Q 185 32 187 35 Q 188 38 186 42 Q 183 47 179 57 Q 169 77 161 92 Q 158 95 157 97 L 155 101" fill="#CCCCCC"/><path d="M 157 97 Q 157 97 158 97 Q 189 91 206 83 Q 210 82 216 85 Q 222 89 227 92 L 202 95 Q 200 95 193 97 Q 180 100 168 105 Q 161 107 156 102 Q 155 101 155 101" fill="#CCCCCC"/><path d="M 227 92 Q 234 95 234 99 Q 233 101 231 101 Q 221 105 197 120 Q 194 123 194 122 Q 192 120 194 118 Q 204 102 204 100 Q 205 98 202 95" fill="#CCCCCC"/><path d="M 172 175 Q 162 196 155 203 Q 139 219 125 219 Q 122 218 126 216 Q 154 194 160 169 Q 167 139 160 126 Q 158 122 161 121 Q 168 118 180 127 Q 184 129 182 134 Q 180 137 176 158 Q 176 162 175 167" fill="#CCCCCC"/><path d="M 186 179 L 197 190 Q 213 206 248 222 Q 251 224 250 225 Q 250 226 248 226 Q 240 227 217 227 Q 210 227 206 223 Q 187 198 172 175 L 175 167" fill="#CCCCCC"/><path d="M 65 104 L 64 106 Q 63 110 58 104 Q 54 99 53 91 Q 49 65 41 49 Q 39 45 41 43 Q 42 42 45 43 Q 52 44 55 45 L 59 53 Q 59 58 62 72 L 63 78 Q 65 93 65 96 L 65 103" fill="#000080" clip-path="url(#clip-mask-1)" /><path d="M 108 47 Q 106 45 100 46 Q 74 49 59 53 L 55 45 Q 62 44 71 43 Q 94 38 98 38 Q 114 34 118 37 Q 128 43 131 48" fill="#000080" clip-path="url(#clip-mask-2)" /><path d="M 98 92 Q 103 85 110 55 Q 112 49 108 47 L 131 48 Q 134 51 130 54 Q 125 59 122 66 Q 113 99 108 105 Q 105 110 102 108 Q 98 106 94 99" fill="#000080" clip-path="url(#clip-mask-3)" /><path d="M 62 72 Q 79 64 89 65 Q 94 65 97 69 Q 99 72 94 73 Q 80 75 63 78" fill="#000080" clip-path="url(#clip-mask-4)" /><path d="M 65 96 Q 84 89 93 90 Q 96 91 98 92 L 94 99 Q 82 100 65 103" fill="#000080" clip-path="url(#clip-mask-5)" /><path d="M 53 140 Q 38 152 33 152 Q 30 152 32 150 Q 33 148 35 146 Q 54 127 53 112 Q 52 109 55 109 Q 60 108 68 116 Q 71 119 68 122 Q 64 126 59 132 Q 58 134 57 135" fill="#000080" clip-path="url(#clip-mask-6)" /><path d="M 64 144 Q 60 145 53 140 L 57 135 Q 90 133 112 124 Q 119 122 124 124 Q 132 128 136 132 Q 138 135 134 139 L 114 138 Q 114 137 110 137 Q 92 138 72 143" fill="#000080" clip-path="url(#clip-mask-7)" /><path d="M 134 139 Q 129 148 128 161 Q 123 223 108 238 Q 103 244 99 244 L 100 221 Q 104 217 107 205 Q 114 186 115 151 Q 116 142 114 138" fill="#000080" clip-path="url(#clip-mask-8)" /><path d="M 99 244 Q 94 245 93 241 Q 88 233 78 224 Q 74 219 80 220 Q 85 221 91 222 Q 98 224 100 221" fill="#000080" clip-path="url(#clip-mask-9)" /><path d="M 58 184 L 48 185 Q 46 186 47 183 Q 66 159 64 144 L 72 143 Q 75 144 79 146 Q 81 149 79 151 Q 76 155 74 160 L 71 165" fill="#000080" clip-path="url(#clip-mask-10)" /><path d="M 74 160 Q 80 161 87 164 Q 93 166 94 170 Q 96 176 95 178 Q 94 180 92 180 Q 90 180 87 179 Q 80 173 75 168 Q 72 166 71 165" fill="#000080" clip-path="url(#clip-mask-11)" /><path d="M 36 185 L 34 195 Q 34 198 36 199 L 34 210 Q 29 212 27 212 Q 24 212 20 206 Q 18 203 21 199 Q 23 197 25 185 Q 28 173 22 161 Q 20 156 25 156 Q 30 157 36 164 Q 41 169 39 175" fill="#000080" clip-path="url(#clip-mask-12)" /><path d="M 36 199 Q 39 199 68 190 Q 78 186 85 189 Q 94 193 94 196 Q 94 199 88 199 Q 59 200 34 210" fill="#000080" clip-path="url(#clip-mask-13)" /><path d="M 142 120 L 136 122 Q 133 124 133 120 Q 133 119 136 116 Q 146 96 153 79 Q 168 41 161 31 Q 158 26 163 24 Q 168 24 176 27 Q 185 32 187 35 Q 188 38 186 42 Q 183 47 179 57 Q 169 77 161 92 Q 158 95 157 97 L 155 101" fill="#0000ff" clip-path="url(#clip-mask-14)" /><path d="M 157 97 Q 157 97 158 97 Q 189 91 206 83 Q 210 82 216 85 Q 222 89 227 92 L 202 95 Q 200 95 193 97 Q 180 100 168 105 Q 161 107 156 102 Q 155 101 155 101" fill="#0000ff" clip-path="url(#clip-mask-15)" /><path d="M 227 92 Q 234 95 234 99 Q 233 101 231 101 Q 221 105 197 120 Q 194 123 194 122 Q 192 120 194 118 Q 204 102 204 100 Q 205 98 202 95" fill="#0000ff" clip-path="url(#clip-mask-16)" /><path d="M 172 175 Q 162 196 155 203 Q 139 219 125 219 Q 122 218 126 216 Q 154 194 160 169 Q 167 139 160 126 Q 158 122 161 121 Q 168 118 180 127 Q 184 129 182 134 Q 180 137 176 158 Q 176 162 175 167" fill="#0000ff" clip-path="url(#clip-mask-17)" /><path d="M 186 179 L 197 190 Q 213 206 248 222 Q 251 224 250 225 Q 250 226 248 226 Q 240 227 217 227 Q 210 227 206 223 Q 187 198 172 175 L 175 167" fill="#0000ff" clip-path="url(#clip-mask-18)" /></svg>