<svg xmlns="http://www.w3.org/2000/svg" xmlns:xlink="http://www.w3.org/1999/xlink" width="270" height="270"><defs><clipPath id="clip-mask-1"><rect x="46" y="45" width="77" height="25"><animate attributeName="x" from="-31" to="46" dur="0.285" begin="0; animate20.end + 1" id="animate1" fill="freeze"/></rect></clipPath><clipPath id="clip-mask-2"><rect x="57" y="88" width="21" height="42"><set attributeName="y" to="46" begin="0; animate20.end + 1" /><animate attributeName="y" from="46" to="88" dur="0.156" begin="animate1.end + 0.5" id="animate2" fill="freeze"/></rect></clipPath><clipPath id="clip-mask-3"><rect x="71" y="78" width="50" height="18"><set attributeName="x" to="21" begin="0; animate20.end + 1" /><animate attributeName="x" from="21" to="71" dur="0.185" begin="animate2.end + 0.5" id="animate3" fill="freeze"/></rect></clipPath><clipPath id="clip-mask-4"><rect x="99" y="86" width="25" height="25"><set attributeName="y" to="61" begin="0; animate20.end + 1" /><animate attributeName="y" from="61" to="86" dur="0.093" begin="animate3.end" id="animate4" fill="freeze"/></rect></clipPath><clipPath id="clip-mask-5"><rect x="77" y="110" width="38" height="14"><set attributeName="x" to="39" begin="0; animate20.end + 1" /><animate attributeName="x" from="39" to="77" dur="0.141" begin="animate4.end + 0.5" id="animate5" fill="freeze"/></rect></clipPath><clipPath id="clip-mask-6"><rect x="47" y="149" width="16" height="39"><set attributeName="y" to="110" begin="0; animate20.end + 1" /><animate attributeName="y" from="110" to="149" dur="0.144" begin="animate5.end + 0.5" id="animate6" fill="freeze"/></rect></clipPath><clipPath id="clip-mask-7"><rect x="58" y="142" width="32" height="14"><set attributeName="x" to="26" begin="0; animate20.end + 1" /><animate attributeName="x" from="26" to="58" dur="0.119" begin="animate6.end + 0.5" id="animate7" fill="freeze"/></rect></clipPath><clipPath id="clip-mask-8"><rect x="75" y="148" width="20" height="22"><set attributeName="y" to="126" begin="0; animate20.end + 1" /><animate attributeName="y" from="126" to="148" dur="0.081" begin="animate7.end" id="animate8" fill="freeze"/></rect></clipPath><clipPath id="clip-mask-9"><rect x="62" y="169" width="27" height="11"><set attributeName="x" to="35" begin="0; animate20.end + 1" /><animate attributeName="x" from="35" to="62" dur="0.100" begin="animate8.end + 0.5" id="animate9" fill="freeze"/></rect></clipPath><clipPath id="clip-mask-10"><rect x="91" y="138" width="17" height="43"><set attributeName="y" to="95" begin="0; animate20.end + 1" /><animate attributeName="y" from="95" to="138" dur="0.159" begin="animate9.end + 0.5" id="animate10" fill="freeze"/></rect></clipPath><clipPath id="clip-mask-11"><rect x="104" y="132" width="34" height="15"><set attributeName="x" to="70" begin="0; animate20.end + 1" /><animate attributeName="x" from="70" to="104" dur="0.126" begin="animate10.end + 0.5" id="animate11" fill="freeze"/></rect></clipPath><clipPath id="clip-mask-12"><rect x="121" y="139" width="22" height="23"><set attributeName="y" to="116" begin="0; animate20.end + 1" /><animate attributeName="y" from="116" to="139" dur="0.085" begin="animate11.end" id="animate12" fill="freeze"/></rect></clipPath><clipPath id="clip-mask-13"><rect x="108" y="162" width="28" height="11"><set attributeName="x" to="80" begin="0; animate20.end + 1" /><animate attributeName="x" from="80" to="108" dur="0.104" begin="animate12.end + 0.5" id="animate13" fill="freeze"/></rect></clipPath><clipPath id="clip-mask-14"><rect x="21" y="50" width="27" height="183"><set attributeName="y" to="-133" begin="0; animate20.end + 1" /><animate attributeName="y" from="-133" to="50" dur="0.678" begin="animate13.end + 0.5" id="animate14" fill="freeze"/></rect></clipPath><clipPath id="clip-mask-15"><rect x="35" y="191" width="87" height="38"><set attributeName="x" to="-52" begin="0; animate20.end + 1" /><animate attributeName="x" from="-52" to="35" dur="0.322" begin="animate14.end" id="animate15" fill="freeze"/></rect></clipPath><clipPath id="clip-mask-16"><rect x="131" y="30" width="44" height="96"><set attributeName="y" to="-66" begin="0; animate20.end + 1" /><animate attributeName="y" from="-66" to="30" dur="0.356" begin="animate15.end + 0.5" id="animate16" fill="freeze"/></rect></clipPath><clipPath id="clip-mask-17"><rect x="151" y="77" width="73" height="28"><set attributeName="x" to="78" begin="0; animate20.end + 1" /><animate attributeName="x" from="78" to="151" dur="0.270" begin="animate16.end + 0.5" id="animate17" fill="freeze"/></rect></clipPath><clipPath id="clip-mask-18"><rect x="187" y="86" width="44" height="35"><set attributeName="y" to="51" begin="0; animate20.end + 1" /><animate attributeName="y" from="51" to="86" dur="0.130" begin="animate17.end" id="animate18" fill="freeze"/></rect></clipPath><clipPath id="clip-mask-19"><rect x="106" y="122" width="71" height="111"><set attributeName="y" to="11" begin="0; animate20.end + 1" /><animate attributeName="y" from="11" to="122" dur="0.411" begin="animate18.end + 0.5" id="animate19" fill="freeze"/></rect></clipPath><clipPath id="clip-mask-20"><rect x="163" y="176" width="85" height="63"><set attributeName="x" to="78" begin="0; animate20.end + 1" /><animate attributeName="x" from="78" to="163" dur="0.315" begin="animate19.end + 0.5" id="animate20" fill="freeze"/></rect></clipPath></defs><path d="M 0 0 L 270 270 M 270 0 L 0 270 M 135 0 L 135 270 M 0 135 L 270 135" stroke="#CCCCCC" /><path d="M 46 60 L 47 60 Q 62 58 81 54 Q 105 45 112 46 Q 119 49 121 51 Q 123 54 120 55 Q 119 57 110 59 Q 89 64 69 68 Q 60 70 48 67 L 46 60" fill="#CCCCCC"/><path d="M 77 125 L 77 127 Q 76 130 72 126 Q 69 123 69 118 Q 64 103 59 93 Q 57 90 58 89 Q 59 88 61 88 Q 69 89 71 90 L 73 96 Q 73 102 77 116 L 78 124" fill="#CCCCCC"/><path d="M 103 89 Q 101 88 99 89 Q 81 94 73 96 L 71 90 Q 80 87 86 85 Q 104 78 108 79 Q 118 84 121 86" fill="#CCCCCC"/><path d="M 99 110 Q 105 92 103 89 L 121 86 Q 124 90 121 93 Q 115 97 110 111" fill="#CCCCCC"/><path d="M 77 116 Q 86 114 97 110 Q 98 110 99 110 L 110 111 Q 115 113 115 115 Q 115 117 112 118 Q 92 120 82 123 Q 79 124 78 124" fill="#CCCCCC"/><path d="M 63 184 L 63 185 Q 62 188 58 184 Q 56 181 55 177 Q 52 162 48 153 Q 47 151 48 150 Q 48 149 51 149 Q 56 150 58 151 L 60 156 Q 61 160 62 173 L 63 180" fill="#CCCCCC"/><path d="M 58 151 L 69 148 Q 79 142 82 143 Q 87 146 90 148 L 77 153 Q 77 152 73 153 Q 64 155 60 156" fill="#CCCCCC"/><path d="M 90 148 Q 95 150 91 155 Q 87 159 84 170 L 75 169 Q 78 154 77 153" fill="#CCCCCC"/><path d="M 84 170 Q 89 173 89 174 Q 89 176 86 176 Q 74 178 68 180 Q 65 180 63 180 L 62 173 Q 67 172 72 170 Q 73 169 75 169" fill="#CCCCCC"/><path d="M 108 176 L 107 178 Q 106 181 103 177 Q 100 174 100 169 Q 97 153 92 143 Q 91 140 92 139 Q 93 138 95 139 Q 101 140 104 141 L 105 147 Q 105 152 108 166 L 108 173" fill="#CCCCCC"/><path d="M 124 144 Q 123 142 119 143 Q 106 146 105 147 L 104 141 Q 116 138 123 133 Q 124 133 124 133 Q 126 132 138 139" fill="#CCCCCC"/><path d="M 121 162 Q 125 144 124 144 L 138 139 Q 143 142 139 146 Q 134 150 131 162" fill="#CCCCCC"/><path d="M 108 166 Q 113 164 120 162 Q 120 162 121 162 L 131 162 Q 136 165 136 167 Q 136 169 134 169 Q 119 171 112 173 Q 110 173 108 173" fill="#CCCCCC"/><path d="M 48 67 Q 46 75 46 89 Q 44 149 42 197 Q 41 211 47 209 L 35 229 Q 31 233 28 231 Q 26 229 23 223 Q 21 218 23 214 Q 35 193 33 84 Q 33 68 28 58 Q 26 54 28 52 Q 30 50 36 54 Q 43 57 46 60" fill="#CCCCCC"/><path d="M 47 209 Q 70 201 76 201 Q 109 191 113 194 Q 121 199 122 202 Q 121 205 116 206 Q 54 213 35 229" fill="#CCCCCC"/><path d="M 139 122 L 134 124 Q 131 126 131 123 Q 131 122 133 118 Q 161 51 150 37 Q 146 33 151 31 Q 155 30 163 32 Q 171 36 173 39 Q 175 42 173 45 Q 170 50 168 59 Q 162 77 153 95 L 151 100 L 151 100" fill="#CCCCCC"/><path d="M 153 95 Q 184 88 201 79 Q 205 77 212 80 Q 218 84 224 86 L 198 91 Q 196 90 189 93 Q 175 97 162 103 Q 157 105 151 100" fill="#CCCCCC"/><path d="M 224 86 Q 231 90 231 93 Q 231 96 228 96 Q 217 100 192 118 Q 189 121 188 120 Q 187 118 189 116 Q 199 97 199 96 Q 200 94 198 91" fill="#CCCCCC"/><path d="M 153 205 L 141 216 Q 123 233 109 233 Q 106 233 109 230 Q 140 208 150 178 Q 151 177 151 176 Q 159 142 152 129 Q 150 125 154 124 Q 158 122 164 126 Q 168 127 172 130 Q 177 132 174 137 Q 171 144 167 165 Q 166 170 165 176 L 163 182" fill="#CCCCCC"/><path d="M 165 176 Q 173 184 181 191 Q 206 214 245 231 Q 248 233 248 234 Q 248 235 246 236 Q 238 238 213 239 Q 206 239 201 234 Q 180 207 163 182" fill="#CCCCCC"/><path d="M 46 60 L 47 60 Q 62 58 81 54 Q 105 45 112 46 Q 119 49 121 51 Q 123 54 120 55 Q 119 57 110 59 Q 89 64 69 68 Q 60 70 48 67 L 46 60" fill="#000080" clip-path="url(#clip-mask-1)" /><path d="M 77 125 L 77 127 Q 76 130 72 126 Q 69 123 69 118 Q 64 103 59 93 Q 57 90 58 89 Q 59 88 61 88 Q 69 89 71 90 L 73 96 Q 73 102 77 116 L 78 124" fill="#000080" clip-path="url(#clip-mask-2)" /><path d="M 103 89 Q 101 88 99 89 Q 81 94 73 96 L 71 90 Q 80 87 86 85 Q 104 78 108 79 Q 118 84 121 86" fill="#000080" clip-path="url(#clip-mask-3)" /><path d="M 99 110 Q 105 92 103 89 L 121 86 Q 124 90 121 93 Q 115 97 110 111" fill="#000080" clip-path="url(#clip-mask-4)" /><path d="M 77 116 Q 86 114 97 110 Q 98 110 99 110 L 110 111 Q 115 113 115 115 Q 115 117 112 118 Q 92 120 82 123 Q 79 124 78 124" fill="#000080" clip-path="url(#clip-mask-5)" /><path d="M 63 184 L 63 185 Q 62 188 58 184 Q 56 181 55 177 Q 52 162 48 153 Q 47 151 48 150 Q 48 149 51 149 Q 56 150 58 151 L 60 156 Q 61 160 62 173 L 63 180" fill="#000080" clip-path="url(#clip-mask-6)" /><path d="M 58 151 L 69 148 Q 79 142 82 143 Q 87 146 90 148 L 77 153 Q 77 152 73 153 Q 64 155 60 156" fill="#000080" clip-path="url(#clip-mask-7)" /><path d="M 90 148 Q 95 150 91 155 Q 87 159 84 170 L 75 169 Q 78 154 77 153" fill="#000080" clip-path="url(#clip-mask-8)" /><path d="M 84 170 Q 89 173 89 174 Q 89 176 86 176 Q 74 178 68 180 Q 65 180 63 180 L 62 173 Q 67 172 72 170 Q 73 169 75 169" fill="#000080" clip-path="url(#clip-mask-9)" /><path d="M 108 176 L 107 178 Q 106 181 103 177 Q 100 174 100 169 Q 97 153 92 143 Q 91 140 92 139 Q 93 138 95 139 Q 101 140 104 141 L 105 147 Q 105 152 108 166 L 108 173" fill="#000080" clip-path="url(#clip-mask-10)" /><path d="M 124 144 Q 123 142 119 143 Q 106 146 105 147 L 104 141 Q 116 138 123 133 Q 124 133 124 133 Q 126 132 138 139" fill="#000080" clip-path="url(#clip-mask-11)" /><path d="M 121 162 Q 125 144 124 144 L 138 139 Q 143 142 139 146 Q 134 150 131 162" fill="#000080" clip-path="url(#clip-mask-12)" /><path d="M 108 166 Q 113 164 120 162 Q 120 162 121 162 L 131 162 Q 136 165 136 167 Q 136 169 134 169 Q 119 171 112 173 Q 110 173 108 173" fill="#000080" clip-path="url(#clip-mask-13)" /><path d="M 48 67 Q 46 75 46 89 Q 44 149 42 197 Q 41 211 47 209 L 35 229 Q 31 233 28 231 Q 26 229 23 223 Q 21 218 23 214 Q 35 193 33 84 Q 33 68 28 58 Q 26 54 28 52 Q 30 50 36 54 Q 43 57 46 60" fill="#000080" clip-path="url(#clip-mask-14)" /><path d="M 47 209 Q 70 201 76 201 Q 109 191 113 194 Q 121 199 122 202 Q 121 205 116 206 Q 54 213 35 229" fill="#000080" clip-path="url(#clip-mask-15)" /><path d="M 139 122 L 134 124 Q 131 126 131 123 Q 131 122 133 118 Q 161 51 150 37 Q 146 33 151 31 Q 155 30 163 32 Q 171 36 173 39 Q 175 42 173 45 Q 170 50 168 59 Q 162 77 153 95 L 151 100 L 151 100" fill="#0000ff" clip-path="url(#clip-mask-16)" /><path d="M 153 95 Q 184 88 201 79 Q 205 77 212 80 Q 218 84 224 86 L 198 91 Q 196 90 189 93 Q 175 97 162 103 Q 157 105 151 100" fill="#0000ff" clip-path="url(#clip-mask-17)" /><path d="M 224 86 Q 231 90 231 93 Q 231 96 228 96 Q 217 100 192 118 Q 189 121 188 120 Q 187 118 189 116 Q 199 97 199 96 Q 200 94 198 91" fill="#0000ff" clip-path="url(#clip-mask-18)" /><path d="M 153 205 L 141 216 Q 123 233 109 233 Q 106 233 109 230 Q 140 208 150 178 Q 151 177 151 176 Q 159 142 152 129 Q 150 125 154 124 Q 158 122 164 126 Q 168 127 172 130 Q 177 132 174 137 Q 171 144 167 165 Q 166 170 165 176 L 163 182" fill="#0000ff" clip-path="url(#clip-mask-19)" /><path d="M 165 176 Q 173 184 181 191 Q 206 214 245 231 Q 248 233 248 234 Q 248 235 246 236 Q 238 238 213 239 Q 206 239 201 234 Q 180 207 163 182" fill="#0000ff" clip-path="url(#clip-mask-20)" /></svg>