<svg xmlns="http://www.w3.org/2000/svg" xmlns:xlink="http://www.w3.org/1999/xlink" width="270" height="270"><defs><clipPath id="clip-mask-1"><rect x="118" y="37" width="37" height="170"><animate attributeName="y" from="-133" to="37" dur="0.630" begin="0; animate4.end + 1" id="animate1" fill="freeze"/></rect></clipPath><clipPath id="clip-mask-2"><rect x="145" y="109" width="68" height="25"><set attributeName="x" to="77" begin="0; animate4.end + 1" /><animate attributeName="x" from="77" to="145" dur="0.252" begin="animate1.end + 0.5" id="animate2" fill="freeze"/></rect></clipPath><clipPath id="clip-mask-3"><rect x="62" y="113" width="30" height="99"><set attributeName="y" to="14" begin="0; animate4.end + 1" /><animate attributeName="y" from="14" to="113" dur="0.367" begin="animate2.end + 0.5" id="animate3" fill="freeze"/></rect></clipPath><clipPath id="clip-mask-4"><rect x="17" y="192" width="235" height="40"><set attributeName="x" to="-218" begin="0; animate4.end + 1" /><animate attributeName="x" from="-218" to="17" dur="0.870" begin="animate3.end + 0.5" id="animate4" fill="freeze"/></rect></clipPath></defs><path d="M 0 0 L 270 270 M 270 0 L 0 270 M 135 0 L 135 270 M 0 135 L 270 135" stroke="#CCCCCC" /><path d="M 132 134 L 129 71 Q 130 62 120 48 Q 118 43 120 40 Q 123 37 128 38 Q 136 40 148 46 Q 155 51 154 55 Q 146 94 146 123 L 145 132 Q 144 167 141 206 L 128 207" fill="#CCCCCC"/><path d="M 146 123 Q 156 121 166 119 Q 175 116 183 113 Q 192 109 201 111 Q 209 113 211 116 Q 213 119 210 121 Q 209 122 202 124 Q 188 127 176 130 Q 156 134 145 132" fill="#CCCCCC"/><path d="M 77 212 Q 74 160 72 147 Q 70 134 64 121 Q 62 116 64 115 Q 67 113 72 114 Q 80 118 88 124 Q 92 128 91 135 Q 89 149 90 211" fill="#CCCCCC"/><path d="M 141 206 Q 182 200 209 196 Q 229 192 247 206 Q 252 210 250 215 Q 249 217 242 217 Q 123 212 45 230 Q 39 232 32 230 Q 26 228 22 223 Q 17 217 24 217 Q 52 214 77 212 L 90 211 Q 109 209 128 207" fill="#CCCCCC"/><path d="M 132 134 L 129 71 Q 130 62 120 48 Q 118 43 120 40 Q 123 37 128 38 Q 136 40 148 46 Q 155 51 154 55 Q 146 94 146 123 L 145 132 Q 144 167 141 206 L 128 207" fill="#0000ff" clip-path="url(#clip-mask-1)" /><path d="M 146 123 Q 156 121 166 119 Q 175 116 183 113 Q 192 109 201 111 Q 209 113 211 116 Q 213 119 210 121 Q 209 122 202 124 Q 188 127 176 130 Q 156 134 145 132" fill="#0000ff" clip-path="url(#clip-mask-2)" /><path d="M 77 212 Q 74 160 72 147 Q 70 134 64 121 Q 62 116 64 115 Q 67 113 72 114 Q 80 118 88 124 Q 92 128 91 135 Q 89 149 90 211" fill="#0000ff" clip-path="url(#clip-mask-3)" /><path d="M 141 206 Q 182 200 209 196 Q 229 192 247 206 Q 252 210 250 215 Q 249 217 242 217 Q 123 212 45 230 Q 39 232 32 230 Q 26 228 22 223 Q 17 217 24 217 Q 52 214 77 212 L 90 211 Q 109 209 128 207" fill="#0000ff" clip-path="url(#clip-mask-4)" /></svg>