<svg xmlns="http://www.w3.org/2000/svg" xmlns:xlink="http://www.w3.org/1999/xlink" width="270" height="270"><defs><clipPath id="clip-mask-1"><rect x="64" y="48" width="30" height="125"><animate attributeName="y" from="-77" to="48" dur="0.463" begin="0; animate9.end + 1" id="animate1" fill="freeze"/></rect></clipPath><clipPath id="clip-mask-2"><rect x="89" y="97" width="34" height="18"><set attributeName="x" to="55" begin="0; animate9.end + 1" /><animate attributeName="x" from="55" to="89" dur="0.126" begin="animate1.end + 0.5" id="animate2" fill="freeze"/></rect></clipPath><clipPath id="clip-mask-3"><rect x="29" y="106" width="25" height="77"><set attributeName="y" to="29" begin="0; animate9.end + 1" /><animate attributeName="y" from="29" to="106" dur="0.285" begin="animate2.end + 0.5" id="animate3" fill="freeze"/></rect></clipPath><clipPath id="clip-mask-4"><rect x="10" y="162" width="102" height="46"><set attributeName="x" to="-92" begin="0; animate9.end + 1" /><animate attributeName="x" from="-92" to="10" dur="0.378" begin="animate3.end + 0.5" id="animate4" fill="freeze"/></rect></clipPath><clipPath id="clip-mask-5"><rect x="120" y="71" width="98" height="32"><set attributeName="x" to="22" begin="0; animate9.end + 1" /><animate attributeName="x" from="22" to="120" dur="0.363" begin="animate4.end + 0.5" id="animate5" fill="freeze"/></rect></clipPath><clipPath id="clip-mask-6"><rect x="145" y="21" width="32" height="115"><set attributeName="y" to="-94" begin="0; animate9.end + 1" /><animate attributeName="y" from="-94" to="21" dur="0.426" begin="animate5.end + 0.5" id="animate6" fill="freeze"/></rect></clipPath><clipPath id="clip-mask-7"><rect x="122" y="124" width="85" height="28"><set attributeName="x" to="37" begin="0; animate9.end + 1" /><animate attributeName="x" from="37" to="122" dur="0.315" begin="animate6.end + 0.5" id="animate7" fill="freeze"/></rect></clipPath><clipPath id="clip-mask-8"><rect x="85" y="140" width="116" height="94"><set attributeName="y" to="46" begin="0; animate9.end + 1" /><animate attributeName="y" from="46" to="140" dur="0.348" begin="animate7.end" id="animate8" fill="freeze"/></rect></clipPath><clipPath id="clip-mask-9"><rect x="117" y="155" width="142" height="93"><set attributeName="x" to="-25" begin="0; animate9.end + 1" /><animate attributeName="x" from="-25" to="117" dur="0.526" begin="animate8.end + 0.5" id="animate9" fill="freeze"/></rect></clipPath></defs><path d="M 0 0 L 270 270 M 270 0 L 0 270 M 135 0 L 135 270 M 0 135 L 270 135" stroke="#CCCCCC" /><path d="M 77 119 L 74 74 Q 73 66 66 57 Q 64 53 66 51 Q 68 48 72 49 Q 79 50 89 55 Q 94 59 93 62 Q 89 77 89 105 L 89 114 Q 88 141 87 169 L 76 173" fill="#CCCCCC"/><path d="M 89 105 Q 99 99 106 98 Q 114 97 119 101 Q 123 104 116 107 Q 106 110 93 114 Q 90 115 89 114" fill="#CCCCCC"/><path d="M 43 183 Q 39 143 38 133 Q 35 123 30 113 Q 29 109 31 107 Q 33 106 37 107 Q 44 109 50 114 Q 54 118 54 124 Q 51 136 54 180" fill="#CCCCCC"/><path d="M 87 169 Q 97 166 107 163 Q 111 162 112 163 Q 112 166 109 168 Q 103 172 96 175 Q 46 197 34 206 Q 31 208 28 207 Q 19 202 12 197 Q 10 195 11 191 Q 11 188 15 188 Q 24 188 43 183 L 54 180 Q 65 176 76 173" fill="#CCCCCC"/><path d="M 155 99 Q 139 103 128 98 Q 120 93 130 91 Q 143 89 155 86 L 169 82 Q 180 78 189 74 Q 198 71 206 72 Q 214 73 217 77 Q 218 79 216 81 Q 214 83 168 95" fill="#CCCCCC"/><path d="M 153 136 Q 154 117 155 99 L 155 86 Q 155 65 154 45 Q 154 39 147 30 Q 145 25 147 23 Q 149 21 154 22 Q 161 23 171 28 Q 177 33 176 36 Q 169 65 169 82 L 168 95 Q 167 113 166 132" fill="#CCCCCC"/><path d="M 171 140 Q 168 141 152 147 Q 138 152 127 148 Q 122 147 123 144 Q 124 142 128 142 Q 143 139 153 136 L 166 132 Q 171 129 176 128 Q 184 124 191 126 Q 199 129 203 133 Q 207 137 201 141" fill="#CCCCCC"/><path d="M 135 231 L 103 233 Q 90 234 88 233 Q 85 230 89 229 Q 132 218 153 194 L 160 186 Q 170 170 176 147 Q 177 141 171 140 L 201 141 Q 196 147 192 155 Q 182 179 171 195 L 162 205" fill="#CCCCCC"/><path d="M 153 194 Q 130 166 123 163 Q 121 162 119 160 Q 117 159 118 157 Q 120 155 123 155 Q 133 157 138 163 Q 150 175 160 186 L 171 195 Q 197 217 217 222 Q 252 231 256 234 Q 259 236 257 238 Q 254 240 250 241 Q 238 243 221 246 Q 209 248 201 242 Q 176 221 162 205" fill="#CCCCCC"/><path d="M 77 119 L 74 74 Q 73 66 66 57 Q 64 53 66 51 Q 68 48 72 49 Q 79 50 89 55 Q 94 59 93 62 Q 89 77 89 105 L 89 114 Q 88 141 87 169 L 76 173" fill="#0000ff" clip-path="url(#clip-mask-1)" /><path d="M 89 105 Q 99 99 106 98 Q 114 97 119 101 Q 123 104 116 107 Q 106 110 93 114 Q 90 115 89 114" fill="#0000ff" clip-path="url(#clip-mask-2)" /><path d="M 43 183 Q 39 143 38 133 Q 35 123 30 113 Q 29 109 31 107 Q 33 106 37 107 Q 44 109 50 114 Q 54 118 54 124 Q 51 136 54 180" fill="#0000ff" clip-path="url(#clip-mask-3)" /><path d="M 87 169 Q 97 166 107 163 Q 111 162 112 163 Q 112 166 109 168 Q 103 172 96 175 Q 46 197 34 206 Q 31 208 28 207 Q 19 202 12 197 Q 10 195 11 191 Q 11 188 15 188 Q 24 188 43 183 L 54 180 Q 65 176 76 173" fill="#0000ff" clip-path="url(#clip-mask-4)" /><path d="M 155 99 Q 139 103 128 98 Q 120 93 130 91 Q 143 89 155 86 L 169 82 Q 180 78 189 74 Q 198 71 206 72 Q 214 73 217 77 Q 218 79 216 81 Q 214 83 168 95" fill="#000080" clip-path="url(#clip-mask-5)" /><path d="M 153 136 Q 154 117 155 99 L 155 86 Q 155 65 154 45 Q 154 39 147 30 Q 145 25 147 23 Q 149 21 154 22 Q 161 23 171 28 Q 177 33 176 36 Q 169 65 169 82 L 168 95 Q 167 113 166 132" fill="#000080" clip-path="url(#clip-mask-6)" /><path d="M 171 140 Q 168 141 152 147 Q 138 152 127 148 Q 122 147 123 144 Q 124 142 128 142 Q 143 139 153 136 L 166 132 Q 171 129 176 128 Q 184 124 191 126 Q 199 129 203 133 Q 207 137 201 141" fill="#000080" clip-path="url(#clip-mask-7)" /><path d="M 135 231 L 103 233 Q 90 234 88 233 Q 85 230 89 229 Q 132 218 153 194 L 160 186 Q 170 170 176 147 Q 177 141 171 140 L 201 141 Q 196 147 192 155 Q 182 179 171 195 L 162 205" fill="#000080" clip-path="url(#clip-mask-8)" /><path d="M 153 194 Q 130 166 123 163 Q 121 162 119 160 Q 117 159 118 157 Q 120 155 123 155 Q 133 157 138 163 Q 150 175 160 186 L 171 195 Q 197 217 217 222 Q 252 231 256 234 Q 259 236 257 238 Q 254 240 250 241 Q 238 243 221 246 Q 209 248 201 242 Q 176 221 162 205" fill="#000080" clip-path="url(#clip-mask-9)" /></svg>