<svg xmlns="http://www.w3.org/2000/svg" xmlns:xlink="http://www.w3.org/1999/xlink" width="270" height="270"><defs><clipPath id="clip-mask-1"><rect x="22" y="53" width="83" height="28"><animate attributeName="x" from="-61" to="22" dur="0.307" begin="0; animate11.end + 1" id="animate1" fill="freeze"/></rect></clipPath><clipPath id="clip-mask-2"><rect x="17" y="75" width="56" height="80"><set attributeName="y" to="-5" begin="0; animate11.end + 1" /><animate attributeName="y" from="-5" to="75" dur="0.296" begin="animate1.end + 0.5" id="animate2" fill="freeze"/></rect></clipPath><clipPath id="clip-mask-3"><rect x="50" y="108" width="48" height="16"><set attributeName="x" to="2" begin="0; animate11.end + 1" /><animate attributeName="x" from="2" to="50" dur="0.178" begin="animate2.end + 0.5" id="animate3" fill="freeze"/></rect></clipPath><clipPath id="clip-mask-4"><rect x="12" y="122" width="83" height="102"><set attributeName="y" to="20" begin="0; animate11.end + 1" /><animate attributeName="y" from="20" to="122" dur="0.378" begin="animate3.end" id="animate4" fill="freeze"/></rect></clipPath><clipPath id="clip-mask-5"><rect x="32" y="140" width="23" height="22"><set attributeName="y" to="118" begin="0; animate11.end + 1" /><animate attributeName="y" from="118" to="140" dur="0.081" begin="animate4.end + 0.5" id="animate5" fill="freeze"/></rect></clipPath><clipPath id="clip-mask-6"><rect x="102" y="63" width="35" height="56"><set attributeName="y" to="7" begin="0; animate11.end + 1" /><animate attributeName="y" from="7" to="63" dur="0.207" begin="animate5.end + 0.5" id="animate6" fill="freeze"/></rect></clipPath><clipPath id="clip-mask-7"><rect x="127" y="69" width="79" height="28"><set attributeName="x" to="48" begin="0; animate11.end + 1" /><animate attributeName="x" from="48" to="127" dur="0.293" begin="animate6.end + 0.5" id="animate7" fill="freeze"/></rect></clipPath><clipPath id="clip-mask-8"><rect x="98" y="106" width="123" height="36"><set attributeName="x" to="-25" begin="0; animate11.end + 1" /><animate attributeName="x" from="-25" to="98" dur="0.456" begin="animate7.end + 0.5" id="animate8" fill="freeze"/></rect></clipPath><clipPath id="clip-mask-9"><rect x="139" y="11" width="32" height="247"><set attributeName="y" to="-236" begin="0; animate11.end + 1" /><animate attributeName="y" from="-236" to="11" dur="0.915" begin="animate8.end + 0.5" id="animate9" fill="freeze"/></rect></clipPath><clipPath id="clip-mask-10"><rect x="67" y="122" width="85" height="96"><set attributeName="x" to="152" begin="0; animate11.end + 1" /><animate attributeName="x" from="152" to="67" dur="0.315" begin="animate9.end + 0.5" id="animate10" fill="freeze"/></rect></clipPath><clipPath id="clip-mask-11"><rect x="163" y="134" width="94" height="72"><set attributeName="x" to="69" begin="0; animate11.end + 1" /><animate attributeName="x" from="69" to="163" dur="0.348" begin="animate10.end + 0.5" id="animate11" fill="freeze"/></rect></clipPath></defs><path d="M 0 0 L 270 270 M 270 0 L 0 270 M 135 0 L 135 270 M 0 135 L 270 135" stroke="#CCCCCC" /><path d="M 54 78 Q 40 81 30 77 Q 22 73 32 71 Q 46 68 57 65 Q 68 61 77 57 Q 85 53 93 54 Q 101 56 103 59 Q 105 61 102 63 Q 101 64 66 75" fill="#CCCCCC"/><path d="M 22 154 L 20 154 Q 17 155 18 152 Q 18 149 21 147 Q 59 94 54 78 L 66 75 Q 72 79 73 82 Q 73 82 73 83 Q 73 84 53 117 L 50 122 Q 46 126 44 130 Q 39 135 35 140 L 32 144" fill="#CCCCCC"/><path d="M 53 117 Q 66 114 72 111 Q 78 108 81 109 Q 95 114 96 116 Q 98 119 95 122 L 73 122 Q 72 120 60 123 Q 52 124 50 122" fill="#CCCCCC"/><path d="M 95 122 Q 91 126 86 139 Q 80 153 74 165 Q 44 219 17 223 Q 12 224 18 220 Q 41 197 54 175 Q 67 154 70 139 Q 74 126 73 122" fill="#CCCCCC"/><path d="M 35 140 Q 36 140 38 141 Q 53 146 54 150 Q 55 157 54 159 Q 53 162 51 162 Q 48 162 38 150 Q 33 146 32 144" fill="#CCCCCC"/><path d="M 127 93 Q 115 113 105 118 Q 102 119 103 115 Q 104 112 108 106 Q 121 83 116 69 Q 115 66 118 65 Q 122 63 134 69 Q 137 72 135 75 Q 132 81 129 87" fill="#CCCCCC"/><path d="M 152 94 Q 152 93 152 93 Q 137 97 127 93 L 129 87 Q 141 85 152 83 L 164 79 Q 189 69 196 70 Q 203 72 204 74 Q 206 76 204 78 Q 202 79 193 82 Q 178 86 164 90" fill="#CCCCCC"/><path d="M 144 133 Q 130 136 118 140 Q 114 142 109 141 Q 105 140 101 137 Q 98 133 102 132 Q 129 127 152 122 L 163 119 Q 177 115 188 112 Q 202 106 217 115 Q 221 118 220 121 Q 219 123 214 123 Q 167 128 163 129" fill="#CCCCCC"/><path d="M 163 221 L 164 233 Q 164 241 162 248 Q 159 254 157 255 Q 155 258 153 256 Q 151 255 149 250 Q 141 232 145 222 Q 151 196 151 149 L 152 122 Q 152 107 152 94 L 152 83 Q 151 65 151 49 Q 150 35 141 22 Q 139 17 141 16 Q 146 11 153 16 Q 169 26 170 28 Q 171 32 169 36 Q 164 53 164 79 L 164 90 Q 163 105 163 119 L 163 129 Q 163 131 163 134 L 163 146" fill="#CCCCCC"/><path d="M 151 149 Q 145 159 136 171 Q 120 189 104 202 Q 80 218 71 217 Q 67 217 71 214 Q 96 195 114 177 Q 141 149 144 133 L 152 122" fill="#CCCCCC"/><path d="M 163 134 Q 180 151 195 165 Q 216 184 253 199 Q 257 200 257 202 Q 256 203 254 204 Q 245 205 218 206 Q 210 206 205 201 Q 182 172 163 146" fill="#CCCCCC"/><path d="M 54 78 Q 40 81 30 77 Q 22 73 32 71 Q 46 68 57 65 Q 68 61 77 57 Q 85 53 93 54 Q 101 56 103 59 Q 105 61 102 63 Q 101 64 66 75" fill="#0000ff" clip-path="url(#clip-mask-1)" /><path d="M 22 154 L 20 154 Q 17 155 18 152 Q 18 149 21 147 Q 59 94 54 78 L 66 75 Q 72 79 73 82 Q 73 82 73 83 Q 73 84 53 117 L 50 122 Q 46 126 44 130 Q 39 135 35 140 L 32 144" fill="#0000ff" clip-path="url(#clip-mask-2)" /><path d="M 53 117 Q 66 114 72 111 Q 78 108 81 109 Q 95 114 96 116 Q 98 119 95 122 L 73 122 Q 72 120 60 123 Q 52 124 50 122" fill="#0000ff" clip-path="url(#clip-mask-3)" /><path d="M 95 122 Q 91 126 86 139 Q 80 153 74 165 Q 44 219 17 223 Q 12 224 18 220 Q 41 197 54 175 Q 67 154 70 139 Q 74 126 73 122" fill="#0000ff" clip-path="url(#clip-mask-4)" /><path d="M 35 140 Q 36 140 38 141 Q 53 146 54 150 Q 55 157 54 159 Q 53 162 51 162 Q 48 162 38 150 Q 33 146 32 144" fill="#0000ff" clip-path="url(#clip-mask-5)" /><path d="M 127 93 Q 115 113 105 118 Q 102 119 103 115 Q 104 112 108 106 Q 121 83 116 69 Q 115 66 118 65 Q 122 63 134 69 Q 137 72 135 75 Q 132 81 129 87" fill="#000080" clip-path="url(#clip-mask-6)" /><path d="M 152 94 Q 152 93 152 93 Q 137 97 127 93 L 129 87 Q 141 85 152 83 L 164 79 Q 189 69 196 70 Q 203 72 204 74 Q 206 76 204 78 Q 202 79 193 82 Q 178 86 164 90" fill="#000080" clip-path="url(#clip-mask-7)" /><path d="M 144 133 Q 130 136 118 140 Q 114 142 109 141 Q 105 140 101 137 Q 98 133 102 132 Q 129 127 152 122 L 163 119 Q 177 115 188 112 Q 202 106 217 115 Q 221 118 220 121 Q 219 123 214 123 Q 167 128 163 129" fill="#000080" clip-path="url(#clip-mask-8)" /><path d="M 163 221 L 164 233 Q 164 241 162 248 Q 159 254 157 255 Q 155 258 153 256 Q 151 255 149 250 Q 141 232 145 222 Q 151 196 151 149 L 152 122 Q 152 107 152 94 L 152 83 Q 151 65 151 49 Q 150 35 141 22 Q 139 17 141 16 Q 146 11 153 16 Q 169 26 170 28 Q 171 32 169 36 Q 164 53 164 79 L 164 90 Q 163 105 163 119 L 163 129 Q 163 131 163 134 L 163 146" fill="#000080" clip-path="url(#clip-mask-9)" /><path d="M 151 149 Q 145 159 136 171 Q 120 189 104 202 Q 80 218 71 217 Q 67 217 71 214 Q 96 195 114 177 Q 141 149 144 133 L 152 122" fill="#000080" clip-path="url(#clip-mask-10)" /><path d="M 163 134 Q 180 151 195 165 Q 216 184 253 199 Q 257 200 257 202 Q 256 203 254 204 Q 245 205 218 206 Q 210 206 205 201 Q 182 172 163 146" fill="#000080" clip-path="url(#clip-mask-11)" /></svg>