<svg xmlns="http://www.w3.org/2000/svg" xmlns:xlink="http://www.w3.org/1999/xlink" width="270" height="270"><defs><clipPath id="clip-mask-1"><rect x="42" y="45" width="81" height="49"><animate attributeName="x" from="123" to="42" dur="0.300" begin="0; animate14.end + 1" id="animate1" fill="freeze"/></rect></clipPath><clipPath id="clip-mask-2"><rect x="36" y="102" width="83" height="29"><set attributeName="x" to="-47" begin="0; animate14.end + 1" /><animate attributeName="x" from="-47" to="36" dur="0.307" begin="animate1.end + 0.5" id="animate2" fill="freeze"/></rect></clipPath><clipPath id="clip-mask-3"><rect x="11" y="143" width="113" height="42"><set attributeName="x" to="-102" begin="0; animate14.end + 1" /><animate attributeName="x" from="-102" to="11" dur="0.419" begin="animate2.end + 0.5" id="animate3" fill="freeze"/></rect></clipPath><clipPath id="clip-mask-4"><rect x="68" y="81" width="25" height="137"><set attributeName="y" to="-56" begin="0; animate14.end + 1" /><animate attributeName="y" from="-56" to="81" dur="0.507" begin="animate3.end + 0.5" id="animate4" fill="freeze"/></rect></clipPath><clipPath id="clip-mask-5"><rect x="85" y="199" width="173" height="48"><set attributeName="x" to="-88" begin="0; animate14.end + 1" /><animate attributeName="x" from="-88" to="85" dur="0.641" begin="animate4.end" id="animate5" fill="freeze"/></rect></clipPath><clipPath id="clip-mask-6"><rect x="214" y="177" width="42" height="44"><set attributeName="y" to="221" begin="0; animate14.end + 1" /><animate attributeName="y" from="221" to="177" dur="0.163" begin="animate5.end" id="animate6" fill="freeze"/></rect></clipPath><clipPath id="clip-mask-7"><rect x="132" y="58" width="23" height="21"><set attributeName="x" to="109" begin="0; animate14.end + 1" /><animate attributeName="x" from="109" to="132" dur="0.085" begin="animate6.end + 0.5" id="animate7" fill="freeze"/></rect></clipPath><clipPath id="clip-mask-8"><rect x="184" y="40" width="38" height="31"><set attributeName="y" to="9" begin="0; animate14.end + 1" /><animate attributeName="y" from="9" to="40" dur="0.115" begin="animate7.end + 0.5" id="animate8" fill="freeze"/></rect></clipPath><clipPath id="clip-mask-9"><rect x="132" y="22" width="51" height="92"><set attributeName="y" to="-70" begin="0; animate14.end + 1" /><animate attributeName="y" from="-70" to="22" dur="0.341" begin="animate8.end + 0.5" id="animate9" fill="freeze"/></rect></clipPath><clipPath id="clip-mask-10"><rect x="175" y="80" width="42" height="28"><set attributeName="x" to="133" begin="0; animate14.end + 1" /><animate attributeName="x" from="133" to="175" dur="0.156" begin="animate9.end + 0.5" id="animate10" fill="freeze"/></rect></clipPath><clipPath id="clip-mask-11"><rect x="122" y="131" width="25" height="21"><set attributeName="x" to="97" begin="0; animate14.end + 1" /><animate attributeName="x" from="97" to="122" dur="0.093" begin="animate10.end + 0.5" id="animate11" fill="freeze"/></rect></clipPath><clipPath id="clip-mask-12"><rect x="177" y="114" width="36" height="28"><set attributeName="y" to="86" begin="0; animate14.end + 1" /><animate attributeName="y" from="86" to="114" dur="0.104" begin="animate11.end + 0.5" id="animate12" fill="freeze"/></rect></clipPath><clipPath id="clip-mask-13"><rect x="111" y="110" width="66" height="88"><set attributeName="y" to="22" begin="0; animate14.end + 1" /><animate attributeName="y" from="22" to="110" dur="0.326" begin="animate12.end + 0.5" id="animate13" fill="freeze"/></rect></clipPath><clipPath id="clip-mask-14"><rect x="167" y="153" width="50" height="40"><set attributeName="x" to="117" begin="0; animate14.end + 1" /><animate attributeName="x" from="117" to="167" dur="0.185" begin="animate13.end + 0.5" id="animate14" fill="freeze"/></rect></clipPath></defs><path d="M 0 0 L 270 270 M 270 0 L 0 270 M 135 0 L 135 270 M 0 135 L 270 135" stroke="#CCCCCC" /><path d="M 68 85 Q 46 94 43 94 Q 42 94 43 91 Q 93 61 93 50 Q 93 47 94 46 Q 98 45 102 47 Q 114 50 120 53 Q 123 56 122 59 Q 121 61 117 62 Q 107 65 96 71 Q 88 76 77 81" fill="#CCCCCC"/><path d="M 72 125 Q 69 126 67 127 Q 50 131 42 128 Q 36 124 44 122 Q 59 119 73 115 L 87 109 Q 103 102 109 103 Q 116 104 117 106 Q 119 108 117 110 Q 116 110 85 121" fill="#CCCCCC"/><path d="M 57 172 L 36 181 Q 26 185 15 179 Q 11 177 11 174 Q 12 172 15 171 Q 37 167 72 156 L 82 153 Q 93 149 107 144 Q 113 143 120 145 Q 124 147 124 150 Q 124 152 120 153 Q 99 158 82 163 L 72 166" fill="#CCCCCC"/><path d="M 72 156 Q 72 142 72 125 L 73 115 Q 73 113 73 112 Q 72 92 68 85 L 77 81 Q 81 83 88 88 Q 93 92 90 100 Q 88 104 87 109 L 85 121 Q 83 135 82 153 L 82 163 Q 84 189 88 199 L 85 218 Q 80 211 76 200 Q 73 192 72 166" fill="#CCCCCC"/><path d="M 88 199 Q 92 209 107 217 Q 123 225 160 226 Q 191 226 214 221 L 256 213 Q 258 221 251 225 Q 237 233 201 238 Q 120 247 85 218" fill="#CCCCCC"/><path d="M 214 221 Q 231 218 235 207 Q 239 204 245 183 Q 247 177 249 179 Q 250 180 251 185 Q 252 203 256 213" fill="#CCCCCC"/><path d="M 133 64 L 132 62 Q 132 59 133 58 Q 134 58 137 59 Q 152 62 154 68 Q 155 74 154 76 Q 153 79 151 79 Q 148 79 145 76 Q 141 72 138 68" fill="#CCCCCC"/><path d="M 205 47 L 205 43 Q 204 41 207 41 Q 209 40 214 43 Q 218 47 221 50 Q 222 54 218 56 Q 214 57 209 60 Q 197 67 188 70 Q 184 71 187 68 Q 198 56 202 50" fill="#CCCCCC"/><path d="M 160 26 L 163 25 Q 169 22 180 29 Q 183 31 182 35 Q 177 45 177 61 Q 174 85 160 99 Q 147 113 135 114 Q 132 114 135 112 Q 138 109 141 106 Q 158 93 164 68 Q 169 39 161 29" fill="#CCCCCC"/><path d="M 177 84 L 176 82 Q 175 80 177 80 Q 180 80 187 82 Q 201 85 205 87 Q 212 92 215 99 Q 217 104 215 107 Q 214 108 210 108 Q 205 107 180 85" fill="#CCCCCC"/><path d="M 123 136 L 122 134 Q 122 132 123 131 Q 124 131 127 131 Q 143 136 145 141 Q 147 146 146 149 Q 145 152 143 152 Q 140 151 138 150 Q 132 144 127 140" fill="#CCCCCC"/><path d="M 196 121 L 195 117 Q 195 114 197 114 Q 200 114 204 117 Q 209 121 211 124 Q 213 128 209 129 Q 204 131 200 134 Q 190 138 181 142 Q 177 142 180 139 Q 190 127 193 124" fill="#CCCCCC"/><path d="M 162 170 L 156 177 Q 154 179 153 182 Q 134 198 117 197 Q 111 197 116 194 Q 142 181 149 167 Q 162 146 158 116 Q 156 113 158 112 Q 161 110 168 114 Q 175 116 176 118 Q 177 120 175 121 Q 174 123 174 128 Q 171 143 168 153 L 167 158" fill="#CCCCCC"/><path d="M 168 153 Q 171 153 177 156 Q 199 165 206 170 Q 212 176 215 183 Q 217 189 215 192 Q 214 193 210 193 Q 206 192 201 188 Q 170 159 167 158" fill="#CCCCCC"/><path d="M 68 85 Q 46 94 43 94 Q 42 94 43 91 Q 93 61 93 50 Q 93 47 94 46 Q 98 45 102 47 Q 114 50 120 53 Q 123 56 122 59 Q 121 61 117 62 Q 107 65 96 71 Q 88 76 77 81" fill="#0000ff" clip-path="url(#clip-mask-1)" /><path d="M 72 125 Q 69 126 67 127 Q 50 131 42 128 Q 36 124 44 122 Q 59 119 73 115 L 87 109 Q 103 102 109 103 Q 116 104 117 106 Q 119 108 117 110 Q 116 110 85 121" fill="#0000ff" clip-path="url(#clip-mask-2)" /><path d="M 57 172 L 36 181 Q 26 185 15 179 Q 11 177 11 174 Q 12 172 15 171 Q 37 167 72 156 L 82 153 Q 93 149 107 144 Q 113 143 120 145 Q 124 147 124 150 Q 124 152 120 153 Q 99 158 82 163 L 72 166" fill="#0000ff" clip-path="url(#clip-mask-3)" /><path d="M 72 156 Q 72 142 72 125 L 73 115 Q 73 113 73 112 Q 72 92 68 85 L 77 81 Q 81 83 88 88 Q 93 92 90 100 Q 88 104 87 109 L 85 121 Q 83 135 82 153 L 82 163 Q 84 189 88 199 L 85 218 Q 80 211 76 200 Q 73 192 72 166" fill="#0000ff" clip-path="url(#clip-mask-4)" /><path d="M 88 199 Q 92 209 107 217 Q 123 225 160 226 Q 191 226 214 221 L 256 213 Q 258 221 251 225 Q 237 233 201 238 Q 120 247 85 218" fill="#0000ff" clip-path="url(#clip-mask-5)" /><path d="M 214 221 Q 231 218 235 207 Q 239 204 245 183 Q 247 177 249 179 Q 250 180 251 185 Q 252 203 256 213" fill="#0000ff" clip-path="url(#clip-mask-6)" /><path d="M 133 64 L 132 62 Q 132 59 133 58 Q 134 58 137 59 Q 152 62 154 68 Q 155 74 154 76 Q 153 79 151 79 Q 148 79 145 76 Q 141 72 138 68" fill="#000080" clip-path="url(#clip-mask-7)" /><path d="M 205 47 L 205 43 Q 204 41 207 41 Q 209 40 214 43 Q 218 47 221 50 Q 222 54 218 56 Q 214 57 209 60 Q 197 67 188 70 Q 184 71 187 68 Q 198 56 202 50" fill="#000080" clip-path="url(#clip-mask-8)" /><path d="M 160 26 L 163 25 Q 169 22 180 29 Q 183 31 182 35 Q 177 45 177 61 Q 174 85 160 99 Q 147 113 135 114 Q 132 114 135 112 Q 138 109 141 106 Q 158 93 164 68 Q 169 39 161 29" fill="#000080" clip-path="url(#clip-mask-9)" /><path d="M 177 84 L 176 82 Q 175 80 177 80 Q 180 80 187 82 Q 201 85 205 87 Q 212 92 215 99 Q 217 104 215 107 Q 214 108 210 108 Q 205 107 180 85" fill="#000080" clip-path="url(#clip-mask-10)" /><path d="M 123 136 L 122 134 Q 122 132 123 131 Q 124 131 127 131 Q 143 136 145 141 Q 147 146 146 149 Q 145 152 143 152 Q 140 151 138 150 Q 132 144 127 140" fill="#000080" clip-path="url(#clip-mask-11)" /><path d="M 196 121 L 195 117 Q 195 114 197 114 Q 200 114 204 117 Q 209 121 211 124 Q 213 128 209 129 Q 204 131 200 134 Q 190 138 181 142 Q 177 142 180 139 Q 190 127 193 124" fill="#000080" clip-path="url(#clip-mask-12)" /><path d="M 162 170 L 156 177 Q 154 179 153 182 Q 134 198 117 197 Q 111 197 116 194 Q 142 181 149 167 Q 162 146 158 116 Q 156 113 158 112 Q 161 110 168 114 Q 175 116 176 118 Q 177 120 175 121 Q 174 123 174 128 Q 171 143 168 153 L 167 158" fill="#000080" clip-path="url(#clip-mask-13)" /><path d="M 168 153 Q 171 153 177 156 Q 199 165 206 170 Q 212 176 215 183 Q 217 189 215 192 Q 214 193 210 193 Q 206 192 201 188 Q 170 159 167 158" fill="#000080" clip-path="url(#clip-mask-14)" /></svg>