<svg xmlns="http://www.w3.org/2000/svg" xmlns:xlink="http://www.w3.org/1999/xlink" width="270" height="270"><defs><clipPath id="clip-mask-1"><rect x="36" y="43" width="37" height="34"><animate attributeName="x" from="-1" to="36" dur="0.137" begin="0; animate10.end + 1" id="animate1" fill="freeze"/></rect></clipPath><clipPath id="clip-mask-2"><rect x="21" y="101" width="35" height="34"><set attributeName="x" to="-14" begin="0; animate10.end + 1" /><animate attributeName="x" from="-14" to="21" dur="0.130" begin="animate1.end + 0.5" id="animate2" fill="freeze"/></rect></clipPath><clipPath id="clip-mask-3"><rect x="20" y="141" width="48" height="101"><set attributeName="y" to="242" begin="0; animate10.end + 1" /><animate attributeName="y" from="242" to="141" dur="0.374" begin="animate2.end + 0.5" id="animate3" fill="freeze"/></rect></clipPath><clipPath id="clip-mask-4"><rect x="76" y="17" width="67" height="85"><set attributeName="y" to="-68" begin="0; animate10.end + 1" /><animate attributeName="y" from="-68" to="17" dur="0.315" begin="animate3.end + 0.5" id="animate4" fill="freeze"/></rect></clipPath><clipPath id="clip-mask-5"><rect x="121" y="45" width="75" height="27"><set attributeName="x" to="46" begin="0; animate10.end + 1" /><animate attributeName="x" from="46" to="121" dur="0.278" begin="animate4.end + 0.5" id="animate5" fill="freeze"/></rect></clipPath><clipPath id="clip-mask-6"><rect x="111" y="81" width="65" height="25"><set attributeName="x" to="46" begin="0; animate10.end + 1" /><animate attributeName="x" from="46" to="111" dur="0.241" begin="animate5.end + 0.5" id="animate6" fill="freeze"/></rect></clipPath><clipPath id="clip-mask-7"><rect x="86" y="109" width="111" height="39"><set attributeName="x" to="-25" begin="0; animate10.end + 1" /><animate attributeName="x" from="-25" to="86" dur="0.411" begin="animate6.end + 0.5" id="animate7" fill="freeze"/></rect></clipPath><clipPath id="clip-mask-8"><rect x="149" y="127" width="43" height="111"><set attributeName="y" to="16" begin="0; animate10.end + 1" /><animate attributeName="y" from="16" to="127" dur="0.411" begin="animate7.end" id="animate8" fill="freeze"/></rect></clipPath><clipPath id="clip-mask-9"><rect x="187" y="218" width="62" height="34"><set attributeName="x" to="125" begin="0; animate10.end + 1" /><animate attributeName="x" from="125" to="187" dur="0.230" begin="animate8.end" id="animate9" fill="freeze"/></rect></clipPath><clipPath id="clip-mask-10"><rect x="219" y="194" width="27" height="46"><set attributeName="y" to="240" begin="0; animate10.end + 1" /><animate attributeName="y" from="240" to="194" dur="0.170" begin="animate9.end" id="animate10" fill="freeze"/></rect></clipPath></defs><path d="M 0 0 L 270 270 M 270 0 L 0 270 M 135 0 L 135 270 M 0 135 L 270 135" stroke="#CCCCCC" /><path d="M 37 53 L 36 50 Q 36 45 38 44 Q 41 43 61 50 Q 69 54 70 59 Q 73 68 71 73 Q 69 77 66 77 Q 61 77 56 73 Q 51 66 45 60" fill="#CCCCCC"/><path d="M 22 110 L 21 106 Q 21 102 23 102 Q 25 101 30 103 Q 43 107 49 111 Q 54 115 55 122 Q 56 127 54 131 Q 51 135 46 134 Q 36 129 26 114" fill="#CCCCCC"/><path d="M 30 201 L 33 196 Q 62 145 65 143 Q 68 141 68 144 Q 68 145 66 150 Q 45 220 44 233 Q 44 241 42 241 Q 39 242 37 241 Q 26 235 21 214 Q 20 208 23 207" fill="#CCCCCC"/><path d="M 110 81 L 92 95 Q 85 100 81 101 Q 76 102 78 98 Q 88 86 91 84 Q 119 51 116 23 Q 116 19 119 18 Q 126 17 139 27 Q 143 31 140 35 Q 128 51 125 58 L 121 65" fill="#CCCCCC"/><path d="M 125 58 Q 139 56 153 52 Q 177 45 184 46 Q 192 47 194 51 Q 196 53 193 56 Q 192 57 184 59 Q 166 63 149 67 Q 132 72 121 65" fill="#CCCCCC"/><path d="M 129 93 L 136 91 Q 143 88 148 85 Q 156 81 164 81 Q 172 82 174 85 Q 176 87 174 89 Q 173 90 168 92 Q 156 96 145 100 Q 130 106 119 102 Q 111 99 120 95" fill="#CCCCCC"/><path d="M 106 133 L 126 127 Q 155 119 167 112 Q 171 109 176 111 Q 192 117 194 121 Q 197 124 192 128 L 165 127 Q 163 126 110 145 Q 103 148 96 145 Q 89 142 88 139 Q 86 135 90 134" fill="#CCCCCC"/><path d="M 192 128 Q 176 143 175 172 Q 173 204 187 218 L 187 238 Q 149 206 166 133 Q 167 128 165 127" fill="#CCCCCC"/><path d="M 187 218 Q 197 227 207 230 Q 213 233 219 230 L 246 240 Q 249 248 243 251 Q 239 252 232 252 Q 203 250 187 238" fill="#CCCCCC"/><path d="M 219 230 Q 224 225 231 199 Q 232 194 234 196 Q 236 198 237 207 Q 241 224 246 240" fill="#CCCCCC"/><path d="M 37 53 L 36 50 Q 36 45 38 44 Q 41 43 61 50 Q 69 54 70 59 Q 73 68 71 73 Q 69 77 66 77 Q 61 77 56 73 Q 51 66 45 60" fill="#0000ff" clip-path="url(#clip-mask-1)" /><path d="M 22 110 L 21 106 Q 21 102 23 102 Q 25 101 30 103 Q 43 107 49 111 Q 54 115 55 122 Q 56 127 54 131 Q 51 135 46 134 Q 36 129 26 114" fill="#0000ff" clip-path="url(#clip-mask-2)" /><path d="M 30 201 L 33 196 Q 62 145 65 143 Q 68 141 68 144 Q 68 145 66 150 Q 45 220 44 233 Q 44 241 42 241 Q 39 242 37 241 Q 26 235 21 214 Q 20 208 23 207" fill="#0000ff" clip-path="url(#clip-mask-3)" /><path d="M 110 81 L 92 95 Q 85 100 81 101 Q 76 102 78 98 Q 88 86 91 84 Q 119 51 116 23 Q 116 19 119 18 Q 126 17 139 27 Q 143 31 140 35 Q 128 51 125 58 L 121 65" fill="#000080" clip-path="url(#clip-mask-4)" /><path d="M 125 58 Q 139 56 153 52 Q 177 45 184 46 Q 192 47 194 51 Q 196 53 193 56 Q 192 57 184 59 Q 166 63 149 67 Q 132 72 121 65" fill="#000080" clip-path="url(#clip-mask-5)" /><path d="M 129 93 L 136 91 Q 143 88 148 85 Q 156 81 164 81 Q 172 82 174 85 Q 176 87 174 89 Q 173 90 168 92 Q 156 96 145 100 Q 130 106 119 102 Q 111 99 120 95" fill="#000080" clip-path="url(#clip-mask-6)" /><path d="M 106 133 L 126 127 Q 155 119 167 112 Q 171 109 176 111 Q 192 117 194 121 Q 197 124 192 128 L 165 127 Q 163 126 110 145 Q 103 148 96 145 Q 89 142 88 139 Q 86 135 90 134" fill="#000080" clip-path="url(#clip-mask-7)" /><path d="M 192 128 Q 176 143 175 172 Q 173 204 187 218 L 187 238 Q 149 206 166 133 Q 167 128 165 127" fill="#000080" clip-path="url(#clip-mask-8)" /><path d="M 187 218 Q 197 227 207 230 Q 213 233 219 230 L 246 240 Q 249 248 243 251 Q 239 252 232 252 Q 203 250 187 238" fill="#000080" clip-path="url(#clip-mask-9)" /><path d="M 219 230 Q 224 225 231 199 Q 232 194 234 196 Q 236 198 237 207 Q 241 224 246 240" fill="#000080" clip-path="url(#clip-mask-10)" /></svg>