<svg xmlns="http://www.w3.org/2000/svg" xmlns:xlink="http://www.w3.org/1999/xlink" width="270" height="270"><defs><clipPath id="clip-mask-1"><rect x="41" y="31" width="35" height="38"><animate attributeName="x" from="6" to="41" dur="0.130" begin="0; animate11.end + 1" id="animate1" fill="freeze"/></rect></clipPath><clipPath id="clip-mask-2"><rect x="17" y="88" width="31" height="32"><set attributeName="x" to="-14" begin="0; animate11.end + 1" /><animate attributeName="x" from="-14" to="17" dur="0.115" begin="animate1.end + 0.5" id="animate2" fill="freeze"/></rect></clipPath><clipPath id="clip-mask-3"><rect x="18" y="124" width="56" height="104"><set attributeName="y" to="228" begin="0; animate11.end + 1" /><animate attributeName="y" from="228" to="124" dur="0.385" begin="animate2.end + 0.5" id="animate3" fill="freeze"/></rect></clipPath><clipPath id="clip-mask-4"><rect x="78" y="48" width="30" height="63"><set attributeName="y" to="-15" begin="0; animate11.end + 1" /><animate attributeName="y" from="-15" to="48" dur="0.233" begin="animate3.end + 0.5" id="animate4" fill="freeze"/></rect></clipPath><clipPath id="clip-mask-5"><rect x="106" y="41" width="115" height="33"><set attributeName="x" to="-9" begin="0; animate11.end + 1" /><animate attributeName="x" from="-9" to="106" dur="0.426" begin="animate4.end + 0.5" id="animate5" fill="freeze"/></rect></clipPath><clipPath id="clip-mask-6"><rect x="176" y="60" width="45" height="29"><set attributeName="y" to="31" begin="0; animate11.end + 1" /><animate attributeName="y" from="31" to="60" dur="0.107" begin="animate5.end" id="animate6" fill="freeze"/></rect></clipPath><clipPath id="clip-mask-7"><rect x="65" y="108" width="60" height="116"><set attributeName="y" to="-8" begin="0; animate11.end + 1" /><animate attributeName="y" from="-8" to="108" dur="0.430" begin="animate6.end + 0.5" id="animate7" fill="freeze"/></rect></clipPath><clipPath id="clip-mask-8"><rect x="119" y="96" width="68" height="25"><set attributeName="x" to="51" begin="0; animate11.end + 1" /><animate attributeName="x" from="51" to="119" dur="0.252" begin="animate7.end + 0.5" id="animate8" fill="freeze"/></rect></clipPath><clipPath id="clip-mask-9"><rect x="147" y="114" width="33" height="102"><set attributeName="y" to="12" begin="0; animate11.end + 1" /><animate attributeName="y" from="12" to="114" dur="0.378" begin="animate8.end" id="animate9" fill="freeze"/></rect></clipPath><clipPath id="clip-mask-10"><rect x="160" y="202" width="92" height="36"><set attributeName="x" to="68" begin="0; animate11.end + 1" /><animate attributeName="x" from="68" to="160" dur="0.341" begin="animate9.end" id="animate10" fill="freeze"/></rect></clipPath><clipPath id="clip-mask-11"><rect x="206" y="173" width="42" height="44"><set attributeName="y" to="217" begin="0; animate11.end + 1" /><animate attributeName="y" from="217" to="173" dur="0.163" begin="animate10.end" id="animate11" fill="freeze"/></rect></clipPath></defs><path d="M 0 0 L 270 270 M 270 0 L 0 270 M 135 0 L 135 270 M 0 135 L 270 135" stroke="#CCCCCC" /><path d="M 42 41 L 41 38 Q 41 34 43 33 Q 48 31 66 42 Q 74 47 75 52 Q 76 62 74 66 Q 72 69 69 69 Q 64 69 60 64 Q 55 56 49 49" fill="#CCCCCC"/><path d="M 17 96 L 17 92 Q 17 89 18 89 Q 20 88 22 88 Q 36 92 41 96 Q 46 101 48 108 Q 48 113 45 117 Q 42 120 38 119 Q 29 114 21 101" fill="#CCCCCC"/><path d="M 30 187 L 34 181 Q 68 128 71 126 Q 74 124 74 127 Q 74 129 72 133 Q 42 206 40 220 Q 39 227 37 228 Q 34 228 32 226 Q 23 221 18 199 Q 18 194 22 193" fill="#CCCCCC"/><path d="M 96 101 L 95 104 Q 91 111 86 105 Q 78 92 82 85 Q 97 65 95 54 Q 95 48 100 51 Q 104 53 107 59 Q 108 61 108 63 L 106 71" fill="#CCCCCC"/><path d="M 108 63 Q 164 48 170 48 Q 194 41 201 47 Q 220 59 221 62 L 188 60 Q 189 57 184 56 Q 183 56 180 56 Q 157 58 125 70 Q 111 74 106 71" fill="#CCCCCC"/><path d="M 221 62 Q 221 65 211 69 Q 198 73 184 85 Q 180 89 178 88 Q 176 87 178 83 Q 188 61 188 60" fill="#CCCCCC"/><path d="M 122 123 L 122 132 Q 119 147 120 152 Q 120 152 113 179 Q 106 196 98 204 Q 82 223 68 224 Q 65 224 68 221 Q 98 194 105 165 Q 112 130 102 116 Q 101 112 104 111 Q 110 108 119 114 L 125 121" fill="#CCCCCC"/><path d="M 119 114 Q 144 107 152 100 Q 158 96 165 99 Q 174 102 179 104 Q 187 107 180 114 L 152 116 Q 151 114 147 115 Q 133 119 125 121" fill="#CCCCCC"/><path d="M 180 114 Q 171 120 166 135 Q 155 180 167 202 L 160 216 Q 147 200 151 151 Q 155 118 152 116" fill="#CCCCCC"/><path d="M 167 202 Q 172 210 181 213 Q 191 218 206 217 L 248 214 Q 252 222 244 226 Q 228 234 212 235 Q 175 238 160 216" fill="#CCCCCC"/><path d="M 206 217 Q 217 216 222 213 Q 226 208 228 198 Q 230 188 231 177 Q 232 173 234 174 Q 236 175 237 181 Q 241 202 248 214" fill="#CCCCCC"/><path d="M 42 41 L 41 38 Q 41 34 43 33 Q 48 31 66 42 Q 74 47 75 52 Q 76 62 74 66 Q 72 69 69 69 Q 64 69 60 64 Q 55 56 49 49" fill="#0000ff" clip-path="url(#clip-mask-1)" /><path d="M 17 96 L 17 92 Q 17 89 18 89 Q 20 88 22 88 Q 36 92 41 96 Q 46 101 48 108 Q 48 113 45 117 Q 42 120 38 119 Q 29 114 21 101" fill="#0000ff" clip-path="url(#clip-mask-2)" /><path d="M 30 187 L 34 181 Q 68 128 71 126 Q 74 124 74 127 Q 74 129 72 133 Q 42 206 40 220 Q 39 227 37 228 Q 34 228 32 226 Q 23 221 18 199 Q 18 194 22 193" fill="#0000ff" clip-path="url(#clip-mask-3)" /><path d="M 96 101 L 95 104 Q 91 111 86 105 Q 78 92 82 85 Q 97 65 95 54 Q 95 48 100 51 Q 104 53 107 59 Q 108 61 108 63 L 106 71" fill="#000080" clip-path="url(#clip-mask-4)" /><path d="M 108 63 Q 164 48 170 48 Q 194 41 201 47 Q 220 59 221 62 L 188 60 Q 189 57 184 56 Q 183 56 180 56 Q 157 58 125 70 Q 111 74 106 71" fill="#000080" clip-path="url(#clip-mask-5)" /><path d="M 221 62 Q 221 65 211 69 Q 198 73 184 85 Q 180 89 178 88 Q 176 87 178 83 Q 188 61 188 60" fill="#000080" clip-path="url(#clip-mask-6)" /><path d="M 122 123 L 122 132 Q 119 147 120 152 Q 120 152 113 179 Q 106 196 98 204 Q 82 223 68 224 Q 65 224 68 221 Q 98 194 105 165 Q 112 130 102 116 Q 101 112 104 111 Q 110 108 119 114 L 125 121" fill="#000080" clip-path="url(#clip-mask-7)" /><path d="M 119 114 Q 144 107 152 100 Q 158 96 165 99 Q 174 102 179 104 Q 187 107 180 114 L 152 116 Q 151 114 147 115 Q 133 119 125 121" fill="#000080" clip-path="url(#clip-mask-8)" /><path d="M 180 114 Q 171 120 166 135 Q 155 180 167 202 L 160 216 Q 147 200 151 151 Q 155 118 152 116" fill="#000080" clip-path="url(#clip-mask-9)" /><path d="M 167 202 Q 172 210 181 213 Q 191 218 206 217 L 248 214 Q 252 222 244 226 Q 228 234 212 235 Q 175 238 160 216" fill="#000080" clip-path="url(#clip-mask-10)" /><path d="M 206 217 Q 217 216 222 213 Q 226 208 228 198 Q 230 188 231 177 Q 232 173 234 174 Q 236 175 237 181 Q 241 202 248 214" fill="#000080" clip-path="url(#clip-mask-11)" /></svg>