<svg xmlns="http://www.w3.org/2000/svg" xmlns:xlink="http://www.w3.org/1999/xlink" width="270" height="270"><defs><clipPath id="clip-mask-1"><rect x="39" y="47" width="38" height="31"><animate attributeName="x" from="1" to="39" dur="0.141" begin="0; animate8.end + 1" id="animate1" fill="freeze"/></rect></clipPath><clipPath id="clip-mask-2"><rect x="18" y="101" width="34" height="32"><set attributeName="x" to="-16" begin="0; animate8.end + 1" /><animate attributeName="x" from="-16" to="18" dur="0.126" begin="animate1.end + 0.5" id="animate2" fill="freeze"/></rect></clipPath><clipPath id="clip-mask-3"><rect x="21" y="136" width="51" height="98"><set attributeName="y" to="234" begin="0; animate8.end + 1" /><animate attributeName="y" from="234" to="136" dur="0.363" begin="animate2.end + 0.5" id="animate3" fill="freeze"/></rect></clipPath><clipPath id="clip-mask-4"><rect x="76" y="58" width="132" height="39"><set attributeName="x" to="-56" begin="0; animate8.end + 1" /><animate attributeName="x" from="-56" to="76" dur="0.489" begin="animate3.end + 0.5" id="animate4" fill="freeze"/></rect></clipPath><clipPath id="clip-mask-5"><rect x="86" y="105" width="104" height="31"><set attributeName="x" to="-18" begin="0; animate8.end + 1" /><animate attributeName="x" from="-18" to="86" dur="0.385" begin="animate4.end + 0.5" id="animate5" fill="freeze"/></rect></clipPath><clipPath id="clip-mask-6"><rect x="119" y="14" width="33" height="241"><set attributeName="y" to="-227" begin="0; animate8.end + 1" /><animate attributeName="y" from="-227" to="14" dur="0.893" begin="animate5.end + 0.5" id="animate6" fill="freeze"/></rect></clipPath><clipPath id="clip-mask-7"><rect x="57" y="118" width="75" height="96"><set attributeName="x" to="132" begin="0; animate8.end + 1" /><animate attributeName="x" from="132" to="57" dur="0.278" begin="animate6.end + 0.5" id="animate7" fill="freeze"/></rect></clipPath><clipPath id="clip-mask-8"><rect x="145" y="138" width="106" height="67"><set attributeName="x" to="39" begin="0; animate8.end + 1" /><animate attributeName="x" from="39" to="145" dur="0.393" begin="animate7.end + 0.5" id="animate8" fill="freeze"/></rect></clipPath></defs><path d="M 0 0 L 270 270 M 270 0 L 0 270 M 135 0 L 135 270 M 0 135 L 270 135" stroke="#CCCCCC" /><path d="M 41 56 L 40 53 Q 39 48 41 47 Q 43 47 48 48 Q 70 52 73 60 Q 77 68 75 73 Q 74 77 70 78 Q 65 78 61 74 Q 55 67 49 62" fill="#CCCCCC"/><path d="M 19 112 L 19 108 Q 18 105 20 104 Q 27 101 45 110 Q 50 114 52 121 Q 52 126 51 129 Q 48 133 44 132 Q 35 129 24 116" fill="#CCCCCC"/><path d="M 31 194 L 35 189 Q 65 140 69 139 Q 72 136 72 140 Q 72 141 70 146 Q 44 213 43 226 Q 43 234 40 234 Q 37 234 35 233 Q 25 227 21 206 Q 21 201 24 200" fill="#CCCCCC"/><path d="M 132 89 Q 122 91 113 93 Q 97 97 84 90 Q 76 85 87 83 Q 111 80 132 76 L 145 73 Q 162 68 178 62 Q 187 58 196 60 Q 205 62 207 65 Q 208 68 206 70 Q 203 73 186 77 Q 164 81 145 86" fill="#CCCCCC"/><path d="M 126 132 Q 123 132 121 132 Q 104 136 93 131 Q 86 127 95 125 Q 115 122 132 118 L 145 114 Q 170 105 178 106 Q 186 108 188 111 Q 190 113 187 115 Q 185 117 145 127" fill="#CCCCCC"/><path d="M 145 219 L 145 229 Q 146 238 143 245 Q 140 251 138 252 Q 136 255 135 253 Q 132 252 131 247 Q 124 229 126 219 Q 132 196 132 148 L 132 118 Q 132 110 132 89 L 132 76 Q 131 63 131 52 Q 131 38 121 25 Q 119 21 121 19 Q 127 14 133 19 Q 149 29 151 31 Q 152 35 149 39 Q 145 53 145 73 L 145 86 Q 145 101 145 114 L 145 127 Q 145 133 145 138 L 145 148" fill="#CCCCCC"/><path d="M 132 148 Q 130 151 128 155 Q 97 200 65 213 Q 62 214 60 213 Q 57 213 61 210 Q 111 167 126 132 L 132 118" fill="#CCCCCC"/><path d="M 145 138 Q 146 139 147 140 Q 183 169 196 176 Q 198 177 247 196 Q 251 198 250 200 Q 250 201 245 202 Q 224 205 205 204 Q 194 203 188 197 Q 165 173 145 148" fill="#CCCCCC"/><path d="M 41 56 L 40 53 Q 39 48 41 47 Q 43 47 48 48 Q 70 52 73 60 Q 77 68 75 73 Q 74 77 70 78 Q 65 78 61 74 Q 55 67 49 62" fill="#0000ff" clip-path="url(#clip-mask-1)" /><path d="M 19 112 L 19 108 Q 18 105 20 104 Q 27 101 45 110 Q 50 114 52 121 Q 52 126 51 129 Q 48 133 44 132 Q 35 129 24 116" fill="#0000ff" clip-path="url(#clip-mask-2)" /><path d="M 31 194 L 35 189 Q 65 140 69 139 Q 72 136 72 140 Q 72 141 70 146 Q 44 213 43 226 Q 43 234 40 234 Q 37 234 35 233 Q 25 227 21 206 Q 21 201 24 200" fill="#0000ff" clip-path="url(#clip-mask-3)" /><path d="M 132 89 Q 122 91 113 93 Q 97 97 84 90 Q 76 85 87 83 Q 111 80 132 76 L 145 73 Q 162 68 178 62 Q 187 58 196 60 Q 205 62 207 65 Q 208 68 206 70 Q 203 73 186 77 Q 164 81 145 86" fill="#000080" clip-path="url(#clip-mask-4)" /><path d="M 126 132 Q 123 132 121 132 Q 104 136 93 131 Q 86 127 95 125 Q 115 122 132 118 L 145 114 Q 170 105 178 106 Q 186 108 188 111 Q 190 113 187 115 Q 185 117 145 127" fill="#000080" clip-path="url(#clip-mask-5)" /><path d="M 145 219 L 145 229 Q 146 238 143 245 Q 140 251 138 252 Q 136 255 135 253 Q 132 252 131 247 Q 124 229 126 219 Q 132 196 132 148 L 132 118 Q 132 110 132 89 L 132 76 Q 131 63 131 52 Q 131 38 121 25 Q 119 21 121 19 Q 127 14 133 19 Q 149 29 151 31 Q 152 35 149 39 Q 145 53 145 73 L 145 86 Q 145 101 145 114 L 145 127 Q 145 133 145 138 L 145 148" fill="#000080" clip-path="url(#clip-mask-6)" /><path d="M 132 148 Q 130 151 128 155 Q 97 200 65 213 Q 62 214 60 213 Q 57 213 61 210 Q 111 167 126 132 L 132 118" fill="#000080" clip-path="url(#clip-mask-7)" /><path d="M 145 138 Q 146 139 147 140 Q 183 169 196 176 Q 198 177 247 196 Q 251 198 250 200 Q 250 201 245 202 Q 224 205 205 204 Q 194 203 188 197 Q 165 173 145 148" fill="#000080" clip-path="url(#clip-mask-8)" /></svg>