<svg xmlns="http://www.w3.org/2000/svg" xmlns:xlink="http://www.w3.org/1999/xlink" width="270" height="270"><defs><clipPath id="clip-mask-1"><rect x="47" y="43" width="35" height="32"><animate attributeName="x" from="12" to="47" dur="0.130" begin="0; animate11.end + 1" id="animate1" fill="freeze"/></rect></clipPath><clipPath id="clip-mask-2"><rect x="21" y="98" width="32" height="29"><set attributeName="x" to="-11" begin="0; animate11.end + 1" /><animate attributeName="x" from="-11" to="21" dur="0.119" begin="animate1.end + 0.5" id="animate2" fill="freeze"/></rect></clipPath><clipPath id="clip-mask-3"><rect x="24" y="125" width="53" height="105"><set attributeName="y" to="230" begin="0; animate11.end + 1" /><animate attributeName="y" from="230" to="125" dur="0.389" begin="animate2.end + 0.5" id="animate3" fill="freeze"/></rect></clipPath><clipPath id="clip-mask-4"><rect x="96" y="56" width="29" height="69"><set attributeName="y" to="-13" begin="0; animate11.end + 1" /><animate attributeName="y" from="-13" to="56" dur="0.256" begin="animate3.end + 0.5" id="animate4" fill="freeze"/></rect></clipPath><clipPath id="clip-mask-5"><rect x="111" y="39" width="96" height="29"><set attributeName="x" to="15" begin="0; animate11.end + 1" /><animate attributeName="x" from="15" to="111" dur="0.356" begin="animate4.end + 0.5" id="animate5" fill="freeze"/></rect></clipPath><clipPath id="clip-mask-6"><rect x="167" y="54" width="44" height="49"><set attributeName="y" to="5" begin="0; animate11.end + 1" /><animate attributeName="y" from="5" to="54" dur="0.181" begin="animate5.end" id="animate6" fill="freeze"/></rect></clipPath><clipPath id="clip-mask-7"><rect x="124" y="99" width="65" height="20"><set attributeName="x" to="59" begin="0; animate11.end + 1" /><animate attributeName="x" from="59" to="124" dur="0.241" begin="animate6.end + 0.5" id="animate7" fill="freeze"/></rect></clipPath><clipPath id="clip-mask-8"><rect x="57" y="123" width="86" height="97"><set attributeName="y" to="26" begin="0; animate11.end + 1" /><animate attributeName="y" from="26" to="123" dur="0.359" begin="animate7.end + 0.5" id="animate8" fill="freeze"/></rect></clipPath><clipPath id="clip-mask-9"><rect x="150" y="118" width="27" height="93"><set attributeName="y" to="25" begin="0; animate11.end + 1" /><animate attributeName="y" from="25" to="118" dur="0.344" begin="animate8.end + 0.5" id="animate9" fill="freeze"/></rect></clipPath><clipPath id="clip-mask-10"><rect x="159" y="199" width="89" height="27"><set attributeName="x" to="70" begin="0; animate11.end + 1" /><animate attributeName="x" from="70" to="159" dur="0.330" begin="animate9.end" id="animate10" fill="freeze"/></rect></clipPath><clipPath id="clip-mask-11"><rect x="224" y="170" width="21" height="39"><set attributeName="y" to="209" begin="0; animate11.end + 1" /><animate attributeName="y" from="209" to="170" dur="0.144" begin="animate10.end" id="animate11" fill="freeze"/></rect></clipPath></defs><path d="M 0 0 L 270 270 M 270 0 L 0 270 M 135 0 L 135 270 M 0 135 L 270 135" stroke="#CCCCCC" /><path d="M 48 52 L 47 49 Q 47 45 48 44 Q 50 43 55 44 Q 77 50 80 57 Q 82 66 81 71 Q 79 75 76 75 Q 71 75 67 71 Q 62 64 56 59" fill="#CCCCCC"/><path d="M 22 106 L 22 103 Q 21 99 23 98 Q 24 98 26 98 Q 37 98 44 102 Q 50 106 52 113 Q 53 118 51 123 Q 48 127 43 126 Q 34 121 27 111" fill="#CCCCCC"/><path d="M 36 189 L 39 183 Q 69 130 73 127 Q 76 125 76 128 Q 77 129 75 134 Q 49 205 47 221 Q 47 228 45 229 Q 42 230 40 228 Q 30 223 25 201 Q 24 196 28 195" fill="#CCCCCC"/><path d="M 112 118 L 111 109 Q 106 81 98 64 Q 96 60 97 58 Q 98 56 102 57 Q 107 58 111 59 L 118 68 Q 119 84 124 110 L 125 119 Q 125 121 124 123 L 120 125" fill="#CCCCCC"/><path d="M 111 59 Q 148 52 173 42 Q 180 39 185 42 Q 202 50 207 54 L 177 57 Q 174 54 168 56 Q 122 66 118 68" fill="#CCCCCC"/><path d="M 207 54 Q 211 60 206 66 Q 195 73 185 103 L 167 99 Q 168 99 168 99 Q 181 63 177 57" fill="#CCCCCC"/><path d="M 185 103 Q 189 105 189 107 Q 189 109 185 110 Q 147 114 130 118 Q 127 119 125 119 L 124 110 Q 143 106 167 99" fill="#CCCCCC"/><path d="M 124 123 Q 133 124 138 129 Q 142 132 142 134 Q 143 137 141 138 Q 139 140 137 143 Q 120 170 110 183 Q 108 183 108 184 Q 79 217 59 220 Q 57 220 59 218 Q 82 198 91 187 Q 92 185 93 184 Q 123 146 120 127 Q 120 125 120 125" fill="#CCCCCC"/><path d="M 157 136 L 152 125 Q 150 120 154 119 Q 159 118 171 129 Q 177 134 173 142 Q 168 151 165 172 Q 164 191 166 199 L 159 211 Q 155 206 153 199 Q 151 191 155 151" fill="#CCCCCC"/><path d="M 166 199 Q 167 202 172 205 Q 178 207 193 208 Q 220 208 224 203 L 245 209 Q 248 217 240 221 Q 233 225 214 226 Q 173 226 159 211" fill="#CCCCCC"/><path d="M 224 203 Q 228 199 234 175 Q 236 170 238 171 Q 240 173 240 177 Q 241 197 245 209" fill="#CCCCCC"/><path d="M 48 52 L 47 49 Q 47 45 48 44 Q 50 43 55 44 Q 77 50 80 57 Q 82 66 81 71 Q 79 75 76 75 Q 71 75 67 71 Q 62 64 56 59" fill="#0000ff" clip-path="url(#clip-mask-1)" /><path d="M 22 106 L 22 103 Q 21 99 23 98 Q 24 98 26 98 Q 37 98 44 102 Q 50 106 52 113 Q 53 118 51 123 Q 48 127 43 126 Q 34 121 27 111" fill="#0000ff" clip-path="url(#clip-mask-2)" /><path d="M 36 189 L 39 183 Q 69 130 73 127 Q 76 125 76 128 Q 77 129 75 134 Q 49 205 47 221 Q 47 228 45 229 Q 42 230 40 228 Q 30 223 25 201 Q 24 196 28 195" fill="#0000ff" clip-path="url(#clip-mask-3)" /><path d="M 112 118 L 111 109 Q 106 81 98 64 Q 96 60 97 58 Q 98 56 102 57 Q 107 58 111 59 L 118 68 Q 119 84 124 110 L 125 119 Q 125 121 124 123 L 120 125" fill="#000080" clip-path="url(#clip-mask-4)" /><path d="M 111 59 Q 148 52 173 42 Q 180 39 185 42 Q 202 50 207 54 L 177 57 Q 174 54 168 56 Q 122 66 118 68" fill="#000080" clip-path="url(#clip-mask-5)" /><path d="M 207 54 Q 211 60 206 66 Q 195 73 185 103 L 167 99 Q 168 99 168 99 Q 181 63 177 57" fill="#000080" clip-path="url(#clip-mask-6)" /><path d="M 185 103 Q 189 105 189 107 Q 189 109 185 110 Q 147 114 130 118 Q 127 119 125 119 L 124 110 Q 143 106 167 99" fill="#000080" clip-path="url(#clip-mask-7)" /><path d="M 124 123 Q 133 124 138 129 Q 142 132 142 134 Q 143 137 141 138 Q 139 140 137 143 Q 120 170 110 183 Q 108 183 108 184 Q 79 217 59 220 Q 57 220 59 218 Q 82 198 91 187 Q 92 185 93 184 Q 123 146 120 127 Q 120 125 120 125" fill="#000080" clip-path="url(#clip-mask-8)" /><path d="M 157 136 L 152 125 Q 150 120 154 119 Q 159 118 171 129 Q 177 134 173 142 Q 168 151 165 172 Q 164 191 166 199 L 159 211 Q 155 206 153 199 Q 151 191 155 151" fill="#000080" clip-path="url(#clip-mask-9)" /><path d="M 166 199 Q 167 202 172 205 Q 178 207 193 208 Q 220 208 224 203 L 245 209 Q 248 217 240 221 Q 233 225 214 226 Q 173 226 159 211" fill="#000080" clip-path="url(#clip-mask-10)" /><path d="M 224 203 Q 228 199 234 175 Q 236 170 238 171 Q 240 173 240 177 Q 241 197 245 209" fill="#000080" clip-path="url(#clip-mask-11)" /></svg>