<svg xmlns="http://www.w3.org/2000/svg" xmlns:xlink="http://www.w3.org/1999/xlink" width="270" height="270"><defs><clipPath id="clip-mask-1"><rect x="46" y="40" width="35" height="33"><animate attributeName="x" from="11" to="46" dur="0.130" begin="0; animate9.end + 1" id="animate1" fill="freeze"/></rect></clipPath><clipPath id="clip-mask-2"><rect x="25" y="92" width="33" height="35"><set attributeName="x" to="-8" begin="0; animate9.end + 1" /><animate attributeName="x" from="-8" to="25" dur="0.122" begin="animate1.end + 0.5" id="animate2" fill="freeze"/></rect></clipPath><clipPath id="clip-mask-3"><rect x="21" y="144" width="44" height="85"><set attributeName="y" to="229" begin="0; animate9.end + 1" /><animate attributeName="y" from="229" to="144" dur="0.315" begin="animate2.end + 0.5" id="animate3" fill="freeze"/></rect></clipPath><clipPath id="clip-mask-4"><rect x="68" y="101" width="180" height="40"><set attributeName="x" to="-112" begin="0; animate9.end + 1" /><animate attributeName="x" from="-112" to="68" dur="0.667" begin="animate3.end + 0.5" id="animate4" fill="freeze"/></rect></clipPath><clipPath id="clip-mask-5"><rect x="129" y="57" width="29" height="123"><set attributeName="y" to="-66" begin="0; animate9.end + 1" /><animate attributeName="y" from="-66" to="57" dur="0.456" begin="animate4.end + 0.5" id="animate5" fill="freeze"/></rect></clipPath><clipPath id="clip-mask-6"><rect x="178" y="42" width="34" height="113"><set attributeName="y" to="-71" begin="0; animate9.end + 1" /><animate attributeName="y" from="-71" to="42" dur="0.419" begin="animate5.end + 0.5" id="animate6" fill="freeze"/></rect></clipPath><clipPath id="clip-mask-7"><rect x="153" y="153" width="45" height="17"><set attributeName="x" to="108" begin="0; animate9.end + 1" /><animate attributeName="x" from="108" to="153" dur="0.167" begin="animate6.end + 0.5" id="animate7" fill="freeze"/></rect></clipPath><clipPath id="clip-mask-8"><rect x="87" y="84" width="30" height="142"><set attributeName="y" to="-58" begin="0; animate9.end + 1" /><animate attributeName="y" from="-58" to="84" dur="0.526" begin="animate7.end + 0.5" id="animate8" fill="freeze"/></rect></clipPath><clipPath id="clip-mask-9"><rect x="106" y="194" width="118" height="28"><set attributeName="x" to="-12" begin="0; animate9.end + 1" /><animate attributeName="x" from="-12" to="106" dur="0.437" begin="animate8.end" id="animate9" fill="freeze"/></rect></clipPath></defs><path d="M 0 0 L 270 270 M 270 0 L 0 270 M 135 0 L 135 270 M 0 135 L 270 135" stroke="#CCCCCC" /><path d="M 47 50 L 46 46 Q 46 42 47 41 Q 49 40 54 42 Q 77 47 79 55 Q 81 65 79 69 Q 78 73 75 73 Q 70 73 66 69 Q 60 62 55 57" fill="#CCCCCC"/><path d="M 26 100 L 26 97 Q 25 93 27 93 Q 30 92 34 94 Q 56 103 58 116 Q 58 120 56 124 Q 53 127 49 126 Q 41 122 29 104" fill="#CCCCCC"/><path d="M 30 192 L 33 187 Q 60 147 62 146 Q 64 144 65 146 Q 65 148 63 152 Q 43 209 42 221 Q 42 228 40 228 Q 37 229 35 227 Q 26 223 22 202 Q 21 197 24 196" fill="#CCCCCC"/><path d="M 94 139 L 89 140 Q 85 141 80 140 Q 75 139 72 136 Q 68 132 73 131 Q 86 129 98 127 L 113 125 Q 129 122 143 120 L 154 118 Q 171 115 184 112 L 198 110 Q 206 108 214 106 Q 230 101 244 111 Q 248 114 247 117 Q 245 120 227 120 Q 210 120 196 122 L 183 123 Q 167 124 155 126 L 143 128 Q 127 130 114 134 L 99 137" fill="#CCCCCC"/><path d="M 143 120 Q 142 109 142 100 Q 139 77 133 66 Q 129 62 132 60 Q 138 57 143 59 Q 150 62 155 66 Q 158 69 156 74 Q 154 85 154 118 L 155 126 Q 155 143 155 160 L 153 170 Q 153 176 150 179 Q 148 180 146 178 Q 144 172 143 165 Q 143 151 143 132 Q 143 130 143 128" fill="#CCCCCC"/><path d="M 184 112 Q 187 88 188 66 Q 189 60 184 50 Q 182 46 184 44 Q 187 42 191 43 Q 198 45 207 51 Q 212 56 211 59 Q 203 83 198 110 L 196 122 Q 193 138 190 155 L 178 153 Q 181 138 183 123" fill="#CCCCCC"/><path d="M 190 155 Q 198 159 198 161 Q 197 164 194 164 Q 169 167 158 169 Q 155 170 153 170 L 155 160 Q 164 157 176 154 Q 177 153 178 153" fill="#CCCCCC"/><path d="M 98 127 Q 96 97 91 92 Q 88 88 90 86 Q 92 84 95 84 Q 100 84 111 90 Q 116 92 114 97 Q 113 102 113 125 L 114 134 Q 115 199 117 201 L 106 222 Q 102 226 98 223 L 97 222 Q 87 212 94 206 Q 104 197 99 137" fill="#CCCCCC"/><path d="M 117 201 Q 118 204 139 200 Q 194 194 201 194 Q 206 194 215 199 Q 223 204 224 208 Q 223 214 211 212 Q 205 211 194 210 Q 120 208 106 222" fill="#CCCCCC"/><path d="M 47 50 L 46 46 Q 46 42 47 41 Q 49 40 54 42 Q 77 47 79 55 Q 81 65 79 69 Q 78 73 75 73 Q 70 73 66 69 Q 60 62 55 57" fill="#0000ff" clip-path="url(#clip-mask-1)" /><path d="M 26 100 L 26 97 Q 25 93 27 93 Q 30 92 34 94 Q 56 103 58 116 Q 58 120 56 124 Q 53 127 49 126 Q 41 122 29 104" fill="#0000ff" clip-path="url(#clip-mask-2)" /><path d="M 30 192 L 33 187 Q 60 147 62 146 Q 64 144 65 146 Q 65 148 63 152 Q 43 209 42 221 Q 42 228 40 228 Q 37 229 35 227 Q 26 223 22 202 Q 21 197 24 196" fill="#0000ff" clip-path="url(#clip-mask-3)" /><path d="M 94 139 L 89 140 Q 85 141 80 140 Q 75 139 72 136 Q 68 132 73 131 Q 86 129 98 127 L 113 125 Q 129 122 143 120 L 154 118 Q 171 115 184 112 L 198 110 Q 206 108 214 106 Q 230 101 244 111 Q 248 114 247 117 Q 245 120 227 120 Q 210 120 196 122 L 183 123 Q 167 124 155 126 L 143 128 Q 127 130 114 134 L 99 137" fill="#000080" clip-path="url(#clip-mask-4)" /><path d="M 143 120 Q 142 109 142 100 Q 139 77 133 66 Q 129 62 132 60 Q 138 57 143 59 Q 150 62 155 66 Q 158 69 156 74 Q 154 85 154 118 L 155 126 Q 155 143 155 160 L 153 170 Q 153 176 150 179 Q 148 180 146 178 Q 144 172 143 165 Q 143 151 143 132 Q 143 130 143 128" fill="#000080" clip-path="url(#clip-mask-5)" /><path d="M 184 112 Q 187 88 188 66 Q 189 60 184 50 Q 182 46 184 44 Q 187 42 191 43 Q 198 45 207 51 Q 212 56 211 59 Q 203 83 198 110 L 196 122 Q 193 138 190 155 L 178 153 Q 181 138 183 123" fill="#000080" clip-path="url(#clip-mask-6)" /><path d="M 190 155 Q 198 159 198 161 Q 197 164 194 164 Q 169 167 158 169 Q 155 170 153 170 L 155 160 Q 164 157 176 154 Q 177 153 178 153" fill="#000080" clip-path="url(#clip-mask-7)" /><path d="M 98 127 Q 96 97 91 92 Q 88 88 90 86 Q 92 84 95 84 Q 100 84 111 90 Q 116 92 114 97 Q 113 102 113 125 L 114 134 Q 115 199 117 201 L 106 222 Q 102 226 98 223 L 97 222 Q 87 212 94 206 Q 104 197 99 137" fill="#000080" clip-path="url(#clip-mask-8)" /><path d="M 117 201 Q 118 204 139 200 Q 194 194 201 194 Q 206 194 215 199 Q 223 204 224 208 Q 223 214 211 212 Q 205 211 194 210 Q 120 208 106 222" fill="#000080" clip-path="url(#clip-mask-9)" /></svg>