<svg xmlns="http://www.w3.org/2000/svg" xmlns:xlink="http://www.w3.org/1999/xlink" width="270" height="270"><defs><clipPath id="clip-mask-1"><rect x="63" y="42" width="38" height="33"><animate attributeName="x" from="25" to="63" dur="0.141" begin="0; animate10.end + 1" id="animate1" fill="freeze"/></rect></clipPath><clipPath id="clip-mask-2"><rect x="37" y="97" width="37" height="35"><set attributeName="x" to="0" begin="0; animate10.end + 1" /><animate attributeName="x" from="0" to="37" dur="0.137" begin="animate1.end + 0.5" id="animate2" fill="freeze"/></rect></clipPath><clipPath id="clip-mask-3"><rect x="42" y="131" width="53" height="100"><set attributeName="y" to="231" begin="0; animate10.end + 1" /><animate attributeName="y" from="231" to="131" dur="0.370" begin="animate2.end + 0.5" id="animate3" fill="freeze"/></rect></clipPath><clipPath id="clip-mask-4"><rect x="129" y="33" width="59" height="79"><set attributeName="y" to="-46" begin="0; animate10.end + 1" /><animate attributeName="y" from="-46" to="33" dur="0.293" begin="animate3.end + 0.5" id="animate4" fill="freeze"/></rect></clipPath><clipPath id="clip-mask-5"><rect x="108" y="106" width="24" height="124"><set attributeName="y" to="-18" begin="0; animate10.end + 1" /><animate attributeName="y" from="-18" to="106" dur="0.459" begin="animate4.end + 0.5" id="animate5" fill="freeze"/></rect></clipPath><clipPath id="clip-mask-6"><rect x="127" y="94" width="101" height="29"><set attributeName="x" to="26" begin="0; animate10.end + 1" /><animate attributeName="x" from="26" to="127" dur="0.374" begin="animate5.end + 0.5" id="animate6" fill="freeze"/></rect></clipPath><clipPath id="clip-mask-7"><rect x="198" y="108" width="34" height="128"><set attributeName="y" to="-20" begin="0; animate10.end + 1" /><animate attributeName="y" from="-20" to="108" dur="0.474" begin="animate6.end" id="animate7" fill="freeze"/></rect></clipPath><clipPath id="clip-mask-8"><rect x="186" y="196" width="14" height="35"><set attributeName="x" to="200" begin="0; animate10.end + 1" /><animate attributeName="x" from="200" to="186" dur="0.052" begin="animate7.end" id="animate8" fill="freeze"/></rect></clipPath><clipPath id="clip-mask-9"><rect x="130" y="147" width="62" height="19"><set attributeName="x" to="68" begin="0; animate10.end + 1" /><animate attributeName="x" from="68" to="130" dur="0.230" begin="animate8.end + 0.5" id="animate9" fill="freeze"/></rect></clipPath><clipPath id="clip-mask-10"><rect x="132" y="194" width="62" height="19"><set attributeName="x" to="70" begin="0; animate10.end + 1" /><animate attributeName="x" from="70" to="132" dur="0.230" begin="animate9.end + 0.5" id="animate10" fill="freeze"/></rect></clipPath></defs><path d="M 0 0 L 270 270 M 270 0 L 0 270 M 135 0 L 135 270 M 0 135 L 270 135" stroke="#CCCCCC" /><path d="M 65 52 L 63 49 Q 63 44 65 43 Q 66 42 71 43 Q 95 49 99 56 Q 101 65 100 70 Q 99 74 95 74 Q 90 75 86 71 Q 79 64 73 58" fill="#CCCCCC"/><path d="M 38 105 L 38 102 Q 37 98 39 98 Q 42 97 47 98 Q 47 98 47 99 Q 71 105 74 119 Q 74 124 72 128 Q 69 132 65 131 Q 55 126 43 110" fill="#CCCCCC"/><path d="M 53 191 L 56 185 Q 89 135 92 133 Q 94 131 94 134 Q 95 136 93 140 Q 65 211 63 223 Q 63 230 61 231 Q 58 231 56 230 Q 45 224 42 203 Q 42 198 45 197" fill="#CCCCCC"/><path d="M 129 112 Q 137 95 145 80 Q 159 49 155 41 Q 152 37 156 35 Q 160 33 168 35 Q 178 37 183 41 Q 188 45 183 50 Q 176 56 172 63 Q 148 98 137 111" fill="#CCCCCC"/><path d="M 132 223 L 130 227 Q 127 230 124 227 L 123 226 Q 110 211 117 199 Q 118 191 118 155 Q 115 129 110 112 Q 108 109 110 107 Q 113 106 116 107 Q 123 109 127 113 L 129 123 Q 129 125 130 158 L 130 166 Q 132 197 132 204 L 132 213" fill="#CCCCCC"/><path d="M 198 113 Q 194 108 133 122 Q 131 123 129 123 L 127 113 Q 128 112 129 112 L 137 111 Q 156 108 179 103 Q 203 94 208 96 Q 222 102 228 108" fill="#CCCCCC"/><path d="M 200 196 Q 204 160 202 122 Q 202 115 198 113 L 228 108 Q 232 111 227 117 Q 221 126 220 139 Q 220 159 219 177 Q 220 205 211 226 Q 209 234 204 235 Q 201 236 199 231" fill="#CCCCCC"/><path d="M 194 203 Q 196 204 197 204 Q 200 203 200 196 L 199 231 Q 189 215 186 208" fill="#CCCCCC"/><path d="M 130 158 Q 167 147 177 149 Q 186 151 189 156 Q 192 160 184 162 Q 131 166 130 166" fill="#CCCCCC"/><path d="M 132 204 Q 151 201 173 196 Q 181 194 186 197 Q 193 201 194 203 L 186 208 Q 151 210 135 213 Q 133 213 132 213" fill="#CCCCCC"/><path d="M 65 52 L 63 49 Q 63 44 65 43 Q 66 42 71 43 Q 95 49 99 56 Q 101 65 100 70 Q 99 74 95 74 Q 90 75 86 71 Q 79 64 73 58" fill="#0000ff" clip-path="url(#clip-mask-1)" /><path d="M 38 105 L 38 102 Q 37 98 39 98 Q 42 97 47 98 Q 47 98 47 99 Q 71 105 74 119 Q 74 124 72 128 Q 69 132 65 131 Q 55 126 43 110" fill="#0000ff" clip-path="url(#clip-mask-2)" /><path d="M 53 191 L 56 185 Q 89 135 92 133 Q 94 131 94 134 Q 95 136 93 140 Q 65 211 63 223 Q 63 230 61 231 Q 58 231 56 230 Q 45 224 42 203 Q 42 198 45 197" fill="#0000ff" clip-path="url(#clip-mask-3)" /><path d="M 129 112 Q 137 95 145 80 Q 159 49 155 41 Q 152 37 156 35 Q 160 33 168 35 Q 178 37 183 41 Q 188 45 183 50 Q 176 56 172 63 Q 148 98 137 111" fill="#000080" clip-path="url(#clip-mask-4)" /><path d="M 132 223 L 130 227 Q 127 230 124 227 L 123 226 Q 110 211 117 199 Q 118 191 118 155 Q 115 129 110 112 Q 108 109 110 107 Q 113 106 116 107 Q 123 109 127 113 L 129 123 Q 129 125 130 158 L 130 166 Q 132 197 132 204 L 132 213" fill="#000080" clip-path="url(#clip-mask-5)" /><path d="M 198 113 Q 194 108 133 122 Q 131 123 129 123 L 127 113 Q 128 112 129 112 L 137 111 Q 156 108 179 103 Q 203 94 208 96 Q 222 102 228 108" fill="#000080" clip-path="url(#clip-mask-6)" /><path d="M 200 196 Q 204 160 202 122 Q 202 115 198 113 L 228 108 Q 232 111 227 117 Q 221 126 220 139 Q 220 159 219 177 Q 220 205 211 226 Q 209 234 204 235 Q 201 236 199 231" fill="#000080" clip-path="url(#clip-mask-7)" /><path d="M 194 203 Q 196 204 197 204 Q 200 203 200 196 L 199 231 Q 189 215 186 208" fill="#000080" clip-path="url(#clip-mask-8)" /><path d="M 130 158 Q 167 147 177 149 Q 186 151 189 156 Q 192 160 184 162 Q 131 166 130 166" fill="#000080" clip-path="url(#clip-mask-9)" /><path d="M 132 204 Q 151 201 173 196 Q 181 194 186 197 Q 193 201 194 203 L 186 208 Q 151 210 135 213 Q 133 213 132 213" fill="#000080" clip-path="url(#clip-mask-10)" /></svg>