<svg xmlns="http://www.w3.org/2000/svg" xmlns:xlink="http://www.w3.org/1999/xlink" width="270" height="270"><defs><clipPath id="clip-mask-1"><rect x="45" y="48" width="36" height="33"><animate attributeName="x" from="9" to="45" dur="0.133" begin="0; animate12.end + 1" id="animate1" fill="freeze"/></rect></clipPath><clipPath id="clip-mask-2"><rect x="27" y="103" width="34" height="30"><set attributeName="x" to="-7" begin="0; animate12.end + 1" /><animate attributeName="x" from="-7" to="27" dur="0.126" begin="animate1.end + 0.5" id="animate2" fill="freeze"/></rect></clipPath><clipPath id="clip-mask-3"><rect x="29" y="145" width="50" height="85"><set attributeName="y" to="230" begin="0; animate12.end + 1" /><animate attributeName="y" from="230" to="145" dur="0.315" begin="animate2.end + 0.5" id="animate3" fill="freeze"/></rect></clipPath><clipPath id="clip-mask-4"><rect x="126" y="25" width="36" height="31"><set attributeName="x" to="90" begin="0; animate12.end + 1" /><animate attributeName="x" from="90" to="126" dur="0.133" begin="animate3.end + 0.5" id="animate4" fill="freeze"/></rect></clipPath><clipPath id="clip-mask-5"><rect x="83" y="73" width="24" height="50"><set attributeName="y" to="23" begin="0; animate12.end + 1" /><animate attributeName="y" from="23" to="73" dur="0.185" begin="animate4.end + 0.5" id="animate5" fill="freeze"/></rect></clipPath><clipPath id="clip-mask-6"><rect x="106" y="65" width="118" height="27"><set attributeName="x" to="-12" begin="0; animate12.end + 1" /><animate attributeName="x" from="-12" to="106" dur="0.437" begin="animate5.end + 0.5" id="animate6" fill="freeze"/></rect></clipPath><clipPath id="clip-mask-7"><rect x="183" y="81" width="41" height="24"><set attributeName="y" to="57" begin="0; animate12.end + 1" /><animate attributeName="y" from="57" to="81" dur="0.089" begin="animate6.end" id="animate7" fill="freeze"/></rect></clipPath><clipPath id="clip-mask-8"><rect x="106" y="111" width="76" height="23"><set attributeName="x" to="30" begin="0; animate12.end + 1" /><animate attributeName="x" from="30" to="106" dur="0.281" begin="animate7.end + 0.5" id="animate8" fill="freeze"/></rect></clipPath><clipPath id="clip-mask-9"><rect x="137" y="129" width="19" height="77"><set attributeName="y" to="52" begin="0; animate12.end + 1" /><animate attributeName="y" from="52" to="129" dur="0.285" begin="animate8.end + 0.5" id="animate9" fill="freeze"/></rect></clipPath><clipPath id="clip-mask-10"><rect x="152" y="154" width="46" height="17"><set attributeName="x" to="106" begin="0; animate12.end + 1" /><animate attributeName="x" from="106" to="152" dur="0.170" begin="animate9.end + 0.5" id="animate10" fill="freeze"/></rect></clipPath><clipPath id="clip-mask-11"><rect x="59" y="157" width="61" height="75"><set attributeName="y" to="82" begin="0; animate12.end + 1" /><animate attributeName="y" from="82" to="157" dur="0.278" begin="animate10.end + 0.5" id="animate11" fill="freeze"/></rect></clipPath><clipPath id="clip-mask-12"><rect x="107" y="180" width="135" height="64"><set attributeName="x" to="-28" begin="0; animate12.end + 1" /><animate attributeName="x" from="-28" to="107" dur="0.500" begin="animate11.end + 0.5" id="animate12" fill="freeze"/></rect></clipPath></defs><path d="M 0 0 L 270 270 M 270 0 L 0 270 M 135 0 L 135 270 M 0 135 L 270 135" stroke="#CCCCCC" /><path d="M 46 57 L 46 54 Q 45 50 47 49 Q 51 48 70 55 Q 78 59 79 64 Q 81 73 80 77 Q 79 81 75 81 Q 71 81 67 77 Q 60 69 54 63" fill="#CCCCCC"/><path d="M 27 111 L 27 108 Q 27 104 28 104 Q 31 103 35 104 L 35 105 Q 57 111 60 122 Q 61 126 59 130 Q 56 133 52 132 Q 44 128 32 114" fill="#CCCCCC"/><path d="M 39 194 L 43 189 Q 74 147 77 146 Q 79 145 79 147 Q 79 149 78 153 Q 50 209 47 223 Q 46 229 44 229 Q 41 230 40 228 Q 31 223 29 204 Q 29 200 32 199" fill="#CCCCCC"/><path d="M 128 34 L 127 31 Q 126 27 128 26 Q 131 25 150 31 Q 158 35 160 40 Q 162 48 161 52 Q 160 55 157 56 Q 153 56 149 52 Q 141 45 135 40" fill="#CCCCCC"/><path d="M 98 107 L 98 109 Q 93 121 90 121 Q 88 123 86 120 Q 84 116 84 111 Q 83 106 87 102 Q 95 86 95 77 Q 95 74 97 73 Q 98 73 99 74 Q 102 75 106 82 L 107 91" fill="#CCCCCC"/><path d="M 106 82 Q 114 80 123 79 Q 147 74 180 69 Q 201 65 206 70 Q 223 83 224 86 L 193 81 Q 193 78 189 77 Q 187 77 183 78 Q 146 81 116 91 Q 112 92 107 91" fill="#CCCCCC"/><path d="M 224 86 Q 224 88 215 90 Q 203 93 190 102 Q 185 105 183 104 Q 183 103 191 85 Q 193 83 193 81" fill="#CCCCCC"/><path d="M 137 131 Q 122 134 113 128 Q 106 124 115 123 Q 128 122 138 119 Q 147 117 156 114 Q 163 111 171 113 Q 179 115 180 117 Q 182 120 179 121 Q 178 122 170 124 Q 160 126 149 129" fill="#CCCCCC"/><path d="M 139 199 Q 139 174 140 160 Q 139 140 137 131 L 149 129 Q 156 135 154 140 Q 154 146 153 162 L 152 170 Q 151 187 150 206" fill="#CCCCCC"/><path d="M 153 162 L 165 160 Q 183 154 188 155 Q 195 156 197 159 Q 198 161 196 163 Q 195 163 184 166 Q 162 171 152 170" fill="#CCCCCC"/><path d="M 101 196 L 98 202 Q 75 229 62 231 Q 59 232 60 229 Q 64 225 71 218 Q 101 188 98 161 Q 98 157 100 157 Q 107 157 116 164 Q 120 168 117 171 Q 114 175 111 180 L 107 187" fill="#CCCCCC"/><path d="M 111 180 Q 125 191 139 199 L 150 206 Q 152 207 153 208 Q 181 224 208 225 Q 219 226 237 228 Q 242 228 241 231 Q 237 237 201 244 Q 199 244 198 244 Q 189 244 170 233 Q 169 231 168 231 Q 129 209 107 187" fill="#CCCCCC"/><path d="M 46 57 L 46 54 Q 45 50 47 49 Q 51 48 70 55 Q 78 59 79 64 Q 81 73 80 77 Q 79 81 75 81 Q 71 81 67 77 Q 60 69 54 63" fill="#0000ff" clip-path="url(#clip-mask-1)" /><path d="M 27 111 L 27 108 Q 27 104 28 104 Q 31 103 35 104 L 35 105 Q 57 111 60 122 Q 61 126 59 130 Q 56 133 52 132 Q 44 128 32 114" fill="#0000ff" clip-path="url(#clip-mask-2)" /><path d="M 39 194 L 43 189 Q 74 147 77 146 Q 79 145 79 147 Q 79 149 78 153 Q 50 209 47 223 Q 46 229 44 229 Q 41 230 40 228 Q 31 223 29 204 Q 29 200 32 199" fill="#0000ff" clip-path="url(#clip-mask-3)" /><path d="M 128 34 L 127 31 Q 126 27 128 26 Q 131 25 150 31 Q 158 35 160 40 Q 162 48 161 52 Q 160 55 157 56 Q 153 56 149 52 Q 141 45 135 40" fill="#000080" clip-path="url(#clip-mask-4)" /><path d="M 98 107 L 98 109 Q 93 121 90 121 Q 88 123 86 120 Q 84 116 84 111 Q 83 106 87 102 Q 95 86 95 77 Q 95 74 97 73 Q 98 73 99 74 Q 102 75 106 82 L 107 91" fill="#000080" clip-path="url(#clip-mask-5)" /><path d="M 106 82 Q 114 80 123 79 Q 147 74 180 69 Q 201 65 206 70 Q 223 83 224 86 L 193 81 Q 193 78 189 77 Q 187 77 183 78 Q 146 81 116 91 Q 112 92 107 91" fill="#000080" clip-path="url(#clip-mask-6)" /><path d="M 224 86 Q 224 88 215 90 Q 203 93 190 102 Q 185 105 183 104 Q 183 103 191 85 Q 193 83 193 81" fill="#000080" clip-path="url(#clip-mask-7)" /><path d="M 137 131 Q 122 134 113 128 Q 106 124 115 123 Q 128 122 138 119 Q 147 117 156 114 Q 163 111 171 113 Q 179 115 180 117 Q 182 120 179 121 Q 178 122 170 124 Q 160 126 149 129" fill="#000080" clip-path="url(#clip-mask-8)" /><path d="M 139 199 Q 139 174 140 160 Q 139 140 137 131 L 149 129 Q 156 135 154 140 Q 154 146 153 162 L 152 170 Q 151 187 150 206" fill="#000080" clip-path="url(#clip-mask-9)" /><path d="M 153 162 L 165 160 Q 183 154 188 155 Q 195 156 197 159 Q 198 161 196 163 Q 195 163 184 166 Q 162 171 152 170" fill="#000080" clip-path="url(#clip-mask-10)" /><path d="M 101 196 L 98 202 Q 75 229 62 231 Q 59 232 60 229 Q 64 225 71 218 Q 101 188 98 161 Q 98 157 100 157 Q 107 157 116 164 Q 120 168 117 171 Q 114 175 111 180 L 107 187" fill="#000080" clip-path="url(#clip-mask-11)" /><path d="M 111 180 Q 125 191 139 199 L 150 206 Q 152 207 153 208 Q 181 224 208 225 Q 219 226 237 228 Q 242 228 241 231 Q 237 237 201 244 Q 199 244 198 244 Q 189 244 170 233 Q 169 231 168 231 Q 129 209 107 187" fill="#000080" clip-path="url(#clip-mask-12)" /></svg>