<svg xmlns="http://www.w3.org/2000/svg" xmlns:xlink="http://www.w3.org/1999/xlink" width="270" height="270"><defs><clipPath id="clip-mask-1"><rect x="61" y="23" width="30" height="23"><animate attributeName="x" from="31" to="61" dur="0.111" begin="0; animate13.end + 1" id="animate1" fill="freeze"/></rect></clipPath><clipPath id="clip-mask-2"><rect x="42" y="51" width="29" height="24"><set attributeName="x" to="13" begin="0; animate13.end + 1" /><animate attributeName="x" from="13" to="42" dur="0.107" begin="animate1.end + 0.5" id="animate2" fill="freeze"/></rect></clipPath><clipPath id="clip-mask-3"><rect x="50" y="74" width="44" height="62"><set attributeName="y" to="136" begin="0; animate13.end + 1" /><animate attributeName="y" from="136" to="74" dur="0.230" begin="animate2.end + 0.5" id="animate3" fill="freeze"/></rect></clipPath><clipPath id="clip-mask-4"><rect x="125" y="19" width="69" height="21"><set attributeName="x" to="56" begin="0; animate13.end + 1" /><animate attributeName="x" from="56" to="125" dur="0.256" begin="animate3.end + 0.5" id="animate4" fill="freeze"/></rect></clipPath><clipPath id="clip-mask-5"><rect x="105" y="27" width="23" height="100"><set attributeName="y" to="-73" begin="0; animate13.end + 1" /><animate attributeName="y" from="-73" to="27" dur="0.370" begin="animate4.end + 0.5" id="animate5" fill="freeze"/></rect></clipPath><clipPath id="clip-mask-6"><rect x="127" y="46" width="67" height="19"><set attributeName="x" to="60" begin="0; animate13.end + 1" /><animate attributeName="x" from="60" to="127" dur="0.248" begin="animate5.end + 0.5" id="animate6" fill="freeze"/></rect></clipPath><clipPath id="clip-mask-7"><rect x="171" y="57" width="26" height="21"><set attributeName="y" to="36" begin="0; animate13.end + 1" /><animate attributeName="y" from="36" to="57" dur="0.078" begin="animate6.end" id="animate7" fill="freeze"/></rect></clipPath><clipPath id="clip-mask-8"><rect x="126" y="76" width="61" height="14"><set attributeName="x" to="65" begin="0; animate13.end + 1" /><animate attributeName="x" from="65" to="126" dur="0.226" begin="animate7.end + 0.5" id="animate8" fill="freeze"/></rect></clipPath><clipPath id="clip-mask-9"><rect x="120" y="101" width="87" height="22"><set attributeName="x" to="33" begin="0; animate13.end + 1" /><animate attributeName="x" from="33" to="120" dur="0.322" begin="animate8.end + 0.5" id="animate9" fill="freeze"/></rect></clipPath><clipPath id="clip-mask-10"><rect x="26" y="133" width="201" height="41"><set attributeName="x" to="-175" begin="0; animate13.end + 1" /><animate attributeName="x" from="-175" to="26" dur="0.744" begin="animate9.end + 0.5" id="animate10" fill="freeze"/></rect></clipPath><clipPath id="clip-mask-11"><rect x="107" y="130" width="22" height="120"><set attributeName="y" to="10" begin="0; animate13.end + 1" /><animate attributeName="y" from="10" to="130" dur="0.444" begin="animate10.end + 0.5" id="animate11" fill="freeze"/></rect></clipPath><clipPath id="clip-mask-12"><rect x="26" y="159" width="89" height="70"><set attributeName="x" to="115" begin="0; animate13.end + 1" /><animate attributeName="x" from="115" to="26" dur="0.330" begin="animate11.end + 0.5" id="animate12" fill="freeze"/></rect></clipPath><clipPath id="clip-mask-13"><rect x="128" y="147" width="115" height="74"><set attributeName="x" to="13" begin="0; animate13.end + 1" /><animate attributeName="x" from="13" to="128" dur="0.426" begin="animate12.end + 0.5" id="animate13" fill="freeze"/></rect></clipPath></defs><path d="M 0 0 L 270 270 M 270 0 L 0 270 M 135 0 L 135 270 M 0 135 L 270 135" stroke="#CCCCCC" /><path d="M 63 30 L 62 28 Q 61 25 62 24 Q 64 23 68 24 Q 86 27 88 32 Q 91 40 90 43 Q 89 46 86 46 Q 82 46 79 44 Q 74 39 69 35" fill="#CCCCCC"/><path d="M 43 57 L 43 55 Q 42 52 44 52 Q 46 51 50 52 Q 59 53 64 57 Q 69 60 70 65 Q 71 69 70 72 Q 68 75 64 74 Q 56 71 47 60" fill="#CCCCCC"/><path d="M 58 107 L 62 104 Q 88 76 92 74 Q 94 74 94 75 Q 93 77 92 80 Q 64 124 62 130 Q 61 135 59 135 Q 57 136 56 134 Q 50 128 50 113 Q 50 110 53 109" fill="#CCCCCC"/><path d="M 125 32 Q 139 30 151 27 Q 162 25 171 21 Q 178 19 185 20 Q 191 21 193 24 Q 194 26 192 27 Q 191 28 157 36 Q 136 40 128 39" fill="#CCCCCC"/><path d="M 127 108 L 127 109 L 120 123 Q 116 127 113 124 Q 105 116 110 112 Q 114 109 115 98 Q 115 97 115 96 Q 118 40 111 33 Q 109 30 110 29 Q 112 27 114 27 Q 118 27 125 32 L 128 39 Q 127 47 127 59 L 127 65 Q 126 78 126 84 L 126 90" fill="#CCCCCC"/><path d="M 172 59 Q 169 56 159 60 Q 128 65 127 65 L 127 59 Q 153 54 170 48 Q 175 46 179 48 Q 190 53 194 57" fill="#CCCCCC"/><path d="M 171 76 Q 172 70 173 63 Q 174 60 172 59 L 194 57 Q 197 60 193 65 Q 187 67 183 78" fill="#CCCCCC"/><path d="M 126 84 Q 136 82 146 81 Q 156 80 171 76 L 183 78 L 183 78 Q 187 81 187 83 Q 187 84 184 85 Q 171 86 157 87 Q 130 90 126 90" fill="#CCCCCC"/><path d="M 127 109 Q 128 111 144 107 Q 185 101 190 101 Q 193 101 200 105 Q 207 109 207 112 Q 207 113 205 114 Q 203 115 198 115 Q 195 114 192 114 Q 131 112 120 123" fill="#CCCCCC"/><path d="M 115 159 L 98 161 Q 74 163 50 171 Q 41 174 30 166 Q 26 162 26 159 Q 26 157 30 157 Q 47 157 70 154 Q 89 151 115 149 L 129 147 Q 187 140 191 140 Q 207 133 224 150 Q 227 153 225 156 Q 223 158 218 157 Q 167 151 132 157" fill="#CCCCCC"/><path d="M 128 221 L 128 231 Q 129 239 126 247 Q 124 250 122 250 Q 120 249 119 248 Q 107 231 111 222 Q 115 206 115 159 L 115 149 Q 115 139 112 135 Q 111 133 112 132 Q 115 130 118 131 Q 123 134 128 139 Q 129 139 129 147 L 128 163 L 128 163" fill="#CCCCCC"/><path d="M 115 159 Q 115 159 115 159 Q 110 164 106 171 Q 100 180 90 191 Q 78 204 68 212 Q 56 221 42 225 Q 33 229 30 228 Q 26 228 31 225 Q 86 189 98 161" fill="#CCCCCC"/><path d="M 129 147 L 132 157 Q 132 158 132 158 Q 153 174 183 192 Q 191 196 239 211 Q 243 212 243 214 Q 243 215 238 216 Q 219 221 200 221 Q 190 221 184 215 Q 155 191 128 163" fill="#CCCCCC"/><path d="M 63 30 L 62 28 Q 61 25 62 24 Q 64 23 68 24 Q 86 27 88 32 Q 91 40 90 43 Q 89 46 86 46 Q 82 46 79 44 Q 74 39 69 35" fill="#0000ff" clip-path="url(#clip-mask-1)" /><path d="M 43 57 L 43 55 Q 42 52 44 52 Q 46 51 50 52 Q 59 53 64 57 Q 69 60 70 65 Q 71 69 70 72 Q 68 75 64 74 Q 56 71 47 60" fill="#0000ff" clip-path="url(#clip-mask-2)" /><path d="M 58 107 L 62 104 Q 88 76 92 74 Q 94 74 94 75 Q 93 77 92 80 Q 64 124 62 130 Q 61 135 59 135 Q 57 136 56 134 Q 50 128 50 113 Q 50 110 53 109" fill="#0000ff" clip-path="url(#clip-mask-3)" /><path d="M 125 32 Q 139 30 151 27 Q 162 25 171 21 Q 178 19 185 20 Q 191 21 193 24 Q 194 26 192 27 Q 191 28 157 36 Q 136 40 128 39" fill="#000080" clip-path="url(#clip-mask-4)" /><path d="M 127 108 L 127 109 L 120 123 Q 116 127 113 124 Q 105 116 110 112 Q 114 109 115 98 Q 115 97 115 96 Q 118 40 111 33 Q 109 30 110 29 Q 112 27 114 27 Q 118 27 125 32 L 128 39 Q 127 47 127 59 L 127 65 Q 126 78 126 84 L 126 90" fill="#000080" clip-path="url(#clip-mask-5)" /><path d="M 172 59 Q 169 56 159 60 Q 128 65 127 65 L 127 59 Q 153 54 170 48 Q 175 46 179 48 Q 190 53 194 57" fill="#000080" clip-path="url(#clip-mask-6)" /><path d="M 171 76 Q 172 70 173 63 Q 174 60 172 59 L 194 57 Q 197 60 193 65 Q 187 67 183 78" fill="#000080" clip-path="url(#clip-mask-7)" /><path d="M 126 84 Q 136 82 146 81 Q 156 80 171 76 L 183 78 L 183 78 Q 187 81 187 83 Q 187 84 184 85 Q 171 86 157 87 Q 130 90 126 90" fill="#000080" clip-path="url(#clip-mask-8)" /><path d="M 127 109 Q 128 111 144 107 Q 185 101 190 101 Q 193 101 200 105 Q 207 109 207 112 Q 207 113 205 114 Q 203 115 198 115 Q 195 114 192 114 Q 131 112 120 123" fill="#000080" clip-path="url(#clip-mask-9)" /><path d="M 115 159 L 98 161 Q 74 163 50 171 Q 41 174 30 166 Q 26 162 26 159 Q 26 157 30 157 Q 47 157 70 154 Q 89 151 115 149 L 129 147 Q 187 140 191 140 Q 207 133 224 150 Q 227 153 225 156 Q 223 158 218 157 Q 167 151 132 157" fill="#000080" clip-path="url(#clip-mask-10)" /><path d="M 128 221 L 128 231 Q 129 239 126 247 Q 124 250 122 250 Q 120 249 119 248 Q 107 231 111 222 Q 115 206 115 159 L 115 149 Q 115 139 112 135 Q 111 133 112 132 Q 115 130 118 131 Q 123 134 128 139 Q 129 139 129 147 L 128 163 L 128 163" fill="#000080" clip-path="url(#clip-mask-11)" /><path d="M 115 159 Q 115 159 115 159 Q 110 164 106 171 Q 100 180 90 191 Q 78 204 68 212 Q 56 221 42 225 Q 33 229 30 228 Q 26 228 31 225 Q 86 189 98 161" fill="#000080" clip-path="url(#clip-mask-12)" /><path d="M 129 147 L 132 157 Q 132 158 132 158 Q 153 174 183 192 Q 191 196 239 211 Q 243 212 243 214 Q 243 215 238 216 Q 219 221 200 221 Q 190 221 184 215 Q 155 191 128 163" fill="#000080" clip-path="url(#clip-mask-13)" /></svg>