<svg xmlns="http://www.w3.org/2000/svg" xmlns:xlink="http://www.w3.org/1999/xlink" width="270" height="270"><defs><clipPath id="clip-mask-1"><rect x="52" y="40" width="34" height="32"><animate attributeName="x" from="18" to="52" dur="0.126" begin="0; animate15.end + 1" id="animate1" fill="freeze"/></rect></clipPath><clipPath id="clip-mask-2"><rect x="29" y="94" width="29" height="32"><set attributeName="x" to="0" begin="0; animate15.end + 1" /><animate attributeName="x" from="0" to="29" dur="0.107" begin="animate1.end + 0.5" id="animate2" fill="freeze"/></rect></clipPath><clipPath id="clip-mask-3"><rect x="31" y="132" width="48" height="104"><set attributeName="y" to="236" begin="0; animate15.end + 1" /><animate attributeName="y" from="236" to="132" dur="0.385" begin="animate2.end + 0.5" id="animate3" fill="freeze"/></rect></clipPath><clipPath id="clip-mask-4"><rect x="113" y="25" width="92" height="46"><set attributeName="x" to="205" begin="0; animate15.end + 1" /><animate attributeName="x" from="205" to="113" dur="0.341" begin="animate3.end + 0.5" id="animate4" fill="freeze"/></rect></clipPath><clipPath id="clip-mask-5"><rect x="97" y="82" width="29" height="30"><set attributeName="x" to="68" begin="0; animate15.end + 1" /><animate attributeName="x" from="68" to="97" dur="0.107" begin="animate4.end + 0.5" id="animate5" fill="freeze"/></rect></clipPath><clipPath id="clip-mask-6"><rect x="136" y="72" width="25" height="28"><set attributeName="x" to="111" begin="0; animate15.end + 1" /><animate attributeName="x" from="111" to="136" dur="0.093" begin="animate5.end + 0.5" id="animate6" fill="freeze"/></rect></clipPath><clipPath id="clip-mask-7"><rect x="169" y="65" width="60" height="45"><set attributeName="x" to="229" begin="0; animate15.end + 1" /><animate attributeName="x" from="229" to="169" dur="0.222" begin="animate6.end + 0.5" id="animate7" fill="freeze"/></rect></clipPath><clipPath id="clip-mask-8"><rect x="107" y="117" width="46" height="33"><set attributeName="x" to="153" begin="0; animate15.end + 1" /><animate attributeName="x" from="153" to="107" dur="0.170" begin="animate7.end + 0.5" id="animate8" fill="freeze"/></rect></clipPath><clipPath id="clip-mask-9"><rect x="89" y="140" width="29" height="97"><set attributeName="y" to="43" begin="0; animate15.end + 1" /><animate attributeName="y" from="43" to="140" dur="0.359" begin="animate8.end + 0.5" id="animate9" fill="freeze"/></rect></clipPath><clipPath id="clip-mask-10"><rect x="113" y="169" width="39" height="16"><set attributeName="x" to="74" begin="0; animate15.end + 1" /><animate attributeName="x" from="74" to="113" dur="0.144" begin="animate9.end + 0.5" id="animate10" fill="freeze"/></rect></clipPath><clipPath id="clip-mask-11"><rect x="166" y="118" width="69" height="21"><set attributeName="x" to="97" begin="0; animate15.end + 1" /><animate attributeName="x" from="97" to="166" dur="0.256" begin="animate10.end + 0.5" id="animate11" fill="freeze"/></rect></clipPath><clipPath id="clip-mask-12"><rect x="201" y="134" width="39" height="110"><set attributeName="y" to="24" begin="0; animate15.end + 1" /><animate attributeName="y" from="24" to="134" dur="0.407" begin="animate11.end" id="animate12" fill="freeze"/></rect></clipPath><clipPath id="clip-mask-13"><rect x="193" y="212" width="12" height="27"><set attributeName="x" to="205" begin="0; animate15.end + 1" /><animate attributeName="x" from="205" to="193" dur="0.044" begin="animate12.end" id="animate13" fill="freeze"/></rect></clipPath><clipPath id="clip-mask-14"><rect x="166" y="164" width="47" height="13"><set attributeName="x" to="119" begin="0; animate15.end + 1" /><animate attributeName="x" from="119" to="166" dur="0.174" begin="animate13.end + 0.5" id="animate14" fill="freeze"/></rect></clipPath><clipPath id="clip-mask-15"><rect x="117" y="207" width="82" height="21"><set attributeName="x" to="35" begin="0; animate15.end + 1" /><animate attributeName="x" from="35" to="117" dur="0.304" begin="animate14.end + 0.5" id="animate15" fill="freeze"/></rect></clipPath></defs><path d="M 0 0 L 270 270 M 270 0 L 0 270 M 135 0 L 135 270 M 0 135 L 270 135" stroke="#CCCCCC" /><path d="M 53 48 L 52 45 Q 52 41 54 40 Q 56 40 60 41 Q 82 48 84 57 Q 86 65 84 69 Q 82 72 79 72 Q 75 72 72 68 Q 65 60 60 54" fill="#CCCCCC"/><path d="M 29 101 L 29 97 Q 29 94 31 94 Q 32 94 43 98 Q 56 104 58 116 Q 58 121 56 124 Q 53 126 49 125 Q 41 120 32 105" fill="#CCCCCC"/><path d="M 42 198 L 45 192 Q 73 136 76 134 Q 78 132 79 135 Q 79 137 77 141 Q 54 216 53 228 Q 54 235 52 235 Q 49 236 47 235 Q 38 231 32 210 Q 31 206 34 205" fill="#CCCCCC"/><path d="M 173 34 L 173 29 Q 174 26 176 25 Q 180 25 184 27 Q 196 32 201 37 Q 205 40 204 43 Q 203 45 198 45 Q 180 48 165 55 Q 122 71 115 69 Q 113 68 114 66 Q 154 49 170 36" fill="#CCCCCC"/><path d="M 97 89 L 97 87 Q 97 83 98 83 Q 100 82 104 84 Q 123 91 125 99 Q 126 106 125 109 Q 123 112 120 112 Q 117 112 114 108 Q 108 101 103 95" fill="#CCCCCC"/><path d="M 136 76 L 137 75 Q 138 72 140 73 Q 144 74 152 80 Q 158 82 160 87 Q 161 92 160 96 Q 158 100 155 99 Q 148 98 138 79" fill="#CCCCCC"/><path d="M 206 74 L 206 69 Q 205 65 209 65 Q 212 65 218 69 Q 224 74 226 79 Q 229 83 223 85 Q 216 87 211 90 Q 184 105 173 109 Q 169 110 172 106 Q 197 84 202 78" fill="#CCCCCC"/><path d="M 107 145 Q 113 141 119 137 Q 135 126 135 120 Q 135 117 138 117 Q 141 117 145 121 Q 150 126 152 130 Q 153 134 148 135 Q 146 136 110 150" fill="#CCCCCC"/><path d="M 117 228 Q 117 230 116 233 Q 114 237 110 230 Q 104 222 103 211 Q 100 172 91 148 Q 89 143 90 141 Q 92 140 95 141 Q 104 143 107 145 L 110 150 Q 110 150 110 151 Q 110 157 113 177 L 114 185 Q 115 195 117 207 Q 118 214 118 218" fill="#CCCCCC"/><path d="M 113 177 Q 128 169 140 170 Q 146 171 150 175 Q 152 179 146 180 Q 132 181 114 185" fill="#CCCCCC"/><path d="M 213 134 Q 210 132 191 136 Q 176 139 170 135 Q 166 133 166 130 Q 166 127 169 127 Q 184 127 197 125 Q 203 123 207 123 Q 219 118 235 134" fill="#CCCCCC"/><path d="M 205 212 Q 209 194 212 177 L 213 167 Q 215 155 216 142 Q 216 136 213 134 L 235 134 Q 240 137 236 143 Q 231 152 224 196 Q 217 236 209 241 Q 204 244 201 239" fill="#CCCCCC"/><path d="M 204 215 L 205 212 L 201 239 Q 197 228 193 222 L 199 215" fill="#CCCCCC"/><path d="M 212 177 Q 196 177 177 177 Q 173 177 171 176 Q 166 171 170 171 Q 172 170 175 170 Q 210 164 213 167" fill="#CCCCCC"/><path d="M 193 222 Q 145 224 122 228 Q 119 228 117 228 L 118 218 Q 146 216 181 210 Q 192 207 199 215" fill="#CCCCCC"/><path d="M 53 48 L 52 45 Q 52 41 54 40 Q 56 40 60 41 Q 82 48 84 57 Q 86 65 84 69 Q 82 72 79 72 Q 75 72 72 68 Q 65 60 60 54" fill="#0000ff" clip-path="url(#clip-mask-1)" /><path d="M 29 101 L 29 97 Q 29 94 31 94 Q 32 94 43 98 Q 56 104 58 116 Q 58 121 56 124 Q 53 126 49 125 Q 41 120 32 105" fill="#0000ff" clip-path="url(#clip-mask-2)" /><path d="M 42 198 L 45 192 Q 73 136 76 134 Q 78 132 79 135 Q 79 137 77 141 Q 54 216 53 228 Q 54 235 52 235 Q 49 236 47 235 Q 38 231 32 210 Q 31 206 34 205" fill="#0000ff" clip-path="url(#clip-mask-3)" /><path d="M 173 34 L 173 29 Q 174 26 176 25 Q 180 25 184 27 Q 196 32 201 37 Q 205 40 204 43 Q 203 45 198 45 Q 180 48 165 55 Q 122 71 115 69 Q 113 68 114 66 Q 154 49 170 36" fill="#000080" clip-path="url(#clip-mask-4)" /><path d="M 97 89 L 97 87 Q 97 83 98 83 Q 100 82 104 84 Q 123 91 125 99 Q 126 106 125 109 Q 123 112 120 112 Q 117 112 114 108 Q 108 101 103 95" fill="#000080" clip-path="url(#clip-mask-5)" /><path d="M 136 76 L 137 75 Q 138 72 140 73 Q 144 74 152 80 Q 158 82 160 87 Q 161 92 160 96 Q 158 100 155 99 Q 148 98 138 79" fill="#000080" clip-path="url(#clip-mask-6)" /><path d="M 206 74 L 206 69 Q 205 65 209 65 Q 212 65 218 69 Q 224 74 226 79 Q 229 83 223 85 Q 216 87 211 90 Q 184 105 173 109 Q 169 110 172 106 Q 197 84 202 78" fill="#000080" clip-path="url(#clip-mask-7)" /><path d="M 107 145 Q 113 141 119 137 Q 135 126 135 120 Q 135 117 138 117 Q 141 117 145 121 Q 150 126 152 130 Q 153 134 148 135 Q 146 136 110 150" fill="#000080" clip-path="url(#clip-mask-8)" /><path d="M 117 228 Q 117 230 116 233 Q 114 237 110 230 Q 104 222 103 211 Q 100 172 91 148 Q 89 143 90 141 Q 92 140 95 141 Q 104 143 107 145 L 110 150 Q 110 150 110 151 Q 110 157 113 177 L 114 185 Q 115 195 117 207 Q 118 214 118 218" fill="#000080" clip-path="url(#clip-mask-9)" /><path d="M 113 177 Q 128 169 140 170 Q 146 171 150 175 Q 152 179 146 180 Q 132 181 114 185" fill="#000080" clip-path="url(#clip-mask-10)" /><path d="M 213 134 Q 210 132 191 136 Q 176 139 170 135 Q 166 133 166 130 Q 166 127 169 127 Q 184 127 197 125 Q 203 123 207 123 Q 219 118 235 134" fill="#000080" clip-path="url(#clip-mask-11)" /><path d="M 205 212 Q 209 194 212 177 L 213 167 Q 215 155 216 142 Q 216 136 213 134 L 235 134 Q 240 137 236 143 Q 231 152 224 196 Q 217 236 209 241 Q 204 244 201 239" fill="#000080" clip-path="url(#clip-mask-12)" /><path d="M 204 215 L 205 212 L 201 239 Q 197 228 193 222 L 199 215" fill="#000080" clip-path="url(#clip-mask-13)" /><path d="M 212 177 Q 196 177 177 177 Q 173 177 171 176 Q 166 171 170 171 Q 172 170 175 170 Q 210 164 213 167" fill="#000080" clip-path="url(#clip-mask-14)" /><path d="M 193 222 Q 145 224 122 228 Q 119 228 117 228 L 118 218 Q 146 216 181 210 Q 192 207 199 215" fill="#000080" clip-path="url(#clip-mask-15)" /></svg>