<svg xmlns="http://www.w3.org/2000/svg" xmlns:xlink="http://www.w3.org/1999/xlink" width="270" height="270"><defs><clipPath id="clip-mask-1"><rect x="36" y="33" width="33" height="31"><animate attributeName="x" from="3" to="36" dur="0.122" begin="0; animate19.end + 1" id="animate1" fill="freeze"/></rect></clipPath><clipPath id="clip-mask-2"><rect x="16" y="90" width="30" height="31"><set attributeName="x" to="-14" begin="0; animate19.end + 1" /><animate attributeName="x" from="-14" to="16" dur="0.111" begin="animate1.end + 0.5" id="animate2" fill="freeze"/></rect></clipPath><clipPath id="clip-mask-3"><rect x="15" y="134" width="37" height="91"><set attributeName="y" to="225" begin="0; animate19.end + 1" /><animate attributeName="y" from="225" to="134" dur="0.337" begin="animate2.end + 0.5" id="animate3" fill="freeze"/></rect></clipPath><clipPath id="clip-mask-4"><rect x="74" y="33" width="51" height="18"><set attributeName="x" to="23" begin="0; animate19.end + 1" /><animate attributeName="x" from="23" to="74" dur="0.189" begin="animate3.end + 0.5" id="animate4" fill="freeze"/></rect></clipPath><clipPath id="clip-mask-5"><rect x="99" y="43" width="31" height="37"><set attributeName="y" to="6" begin="0; animate19.end + 1" /><animate attributeName="y" from="6" to="43" dur="0.137" begin="animate4.end" id="animate5" fill="freeze"/></rect></clipPath><clipPath id="clip-mask-6"><rect x="84" y="79" width="32" height="13"><set attributeName="x" to="52" begin="0; animate19.end + 1" /><animate attributeName="x" from="52" to="84" dur="0.119" begin="animate5.end + 0.5" id="animate6" fill="freeze"/></rect></clipPath><clipPath id="clip-mask-7"><rect x="56" y="77" width="31" height="68"><set attributeName="y" to="9" begin="0; animate19.end + 1" /><animate attributeName="y" from="9" to="77" dur="0.252" begin="animate6.end + 0.5" id="animate7" fill="freeze"/></rect></clipPath><clipPath id="clip-mask-8"><rect x="68" y="121" width="44" height="20"><set attributeName="x" to="24" begin="0; animate19.end + 1" /><animate attributeName="x" from="24" to="68" dur="0.163" begin="animate7.end" id="animate8" fill="freeze"/></rect></clipPath><clipPath id="clip-mask-9"><rect x="72" y="131" width="42" height="95"><set attributeName="y" to="36" begin="0; animate19.end + 1" /><animate attributeName="y" from="36" to="131" dur="0.352" begin="animate8.end" id="animate9" fill="freeze"/></rect></clipPath><clipPath id="clip-mask-10"><rect x="61" y="193" width="21" height="26"><set attributeName="x" to="82" begin="0; animate19.end + 1" /><animate attributeName="x" from="82" to="61" dur="0.078" begin="animate9.end" id="animate10" fill="freeze"/></rect></clipPath><clipPath id="clip-mask-11"><rect x="157" y="26" width="53" height="20"><set attributeName="x" to="104" begin="0; animate19.end + 1" /><animate attributeName="x" from="104" to="157" dur="0.196" begin="animate10.end + 0.5" id="animate11" fill="freeze"/></rect></clipPath><clipPath id="clip-mask-12"><rect x="137" y="28" width="22" height="97"><set attributeName="y" to="-69" begin="0; animate19.end + 1" /><animate attributeName="y" from="-69" to="28" dur="0.359" begin="animate11.end + 0.5" id="animate12" fill="freeze"/></rect></clipPath><clipPath id="clip-mask-13"><rect x="157" y="55" width="42" height="17"><set attributeName="x" to="115" begin="0; animate19.end + 1" /><animate attributeName="x" from="115" to="157" dur="0.156" begin="animate12.end + 0.5" id="animate13" fill="freeze"/></rect></clipPath><clipPath id="clip-mask-14"><rect x="157" y="83" width="43" height="16"><set attributeName="x" to="114" begin="0; animate19.end + 1" /><animate attributeName="x" from="114" to="157" dur="0.159" begin="animate13.end + 0.5" id="animate14" fill="freeze"/></rect></clipPath><clipPath id="clip-mask-15"><rect x="114" y="106" width="118" height="34"><set attributeName="x" to="-4" begin="0; animate19.end + 1" /><animate attributeName="x" from="-4" to="114" dur="0.437" begin="animate14.end + 0.5" id="animate15" fill="freeze"/></rect></clipPath><clipPath id="clip-mask-16"><rect x="119" y="138" width="28" height="105"><set attributeName="y" to="33" begin="0; animate19.end + 1" /><animate attributeName="y" from="33" to="138" dur="0.389" begin="animate15.end + 0.5" id="animate16" fill="freeze"/></rect></clipPath><clipPath id="clip-mask-17"><rect x="139" y="187" width="39" height="51"><set attributeName="x" to="100" begin="0; animate19.end + 1" /><animate attributeName="x" from="100" to="139" dur="0.144" begin="animate16.end" id="animate17" fill="freeze"/></rect></clipPath><clipPath id="clip-mask-18"><rect x="181" y="130" width="33" height="32"><set attributeName="y" to="98" begin="0; animate19.end + 1" /><animate attributeName="y" from="98" to="130" dur="0.119" begin="animate17.end + 0.5" id="animate18" fill="freeze"/></rect></clipPath><clipPath id="clip-mask-19"><rect x="143" y="134" width="111" height="72"><set attributeName="x" to="32" begin="0; animate19.end + 1" /><animate attributeName="x" from="32" to="143" dur="0.411" begin="animate18.end + 0.5" id="animate19" fill="freeze"/></rect></clipPath></defs><path d="M 0 0 L 270 270 M 270 0 L 0 270 M 135 0 L 135 270 M 0 135 L 270 135" stroke="#CCCCCC" /><path d="M 37 42 L 36 39 Q 36 36 38 35 Q 41 33 58 40 Q 65 44 66 48 Q 69 57 67 60 Q 65 64 62 64 Q 58 64 55 60 Q 49 54 44 49" fill="#CCCCCC"/><path d="M 16 98 L 16 94 Q 16 91 17 91 Q 20 90 24 91 Q 38 97 41 100 Q 45 103 46 110 Q 46 114 45 118 Q 42 121 38 120 Q 31 116 20 101" fill="#CCCCCC"/><path d="M 23 191 L 26 185 Q 46 139 50 136 Q 52 134 52 137 Q 52 138 51 142 Q 37 207 37 217 Q 38 223 36 224 Q 33 225 31 223 Q 22 220 16 202 Q 15 197 18 196" fill="#CCCCCC"/><path d="M 107 49 Q 105 46 99 48 Q 82 51 78 49 Q 75 48 75 47 Q 74 45 77 45 Q 90 42 98 39 Q 109 33 114 36 Q 120 40 125 43" fill="#CCCCCC"/><path d="M 99 79 Q 102 68 105 59 Q 109 51 107 49 L 125 43 Q 130 47 124 53 Q 117 59 111 80" fill="#CCCCCC"/><path d="M 92 81 L 97 79 Q 98 79 99 79 L 111 80 Q 111 80 111 80 Q 116 83 116 86 Q 116 86 116 86 Q 115 87 87 92 L 84 84" fill="#CCCCCC"/><path d="M 87 92 Q 87 94 86 95 Q 81 110 77 122 L 68 141 Q 64 145 61 143 Q 59 141 57 137 Q 56 135 59 131 Q 68 125 73 106 Q 77 93 72 83 Q 70 80 73 79 Q 75 77 78 79 Q 82 82 84 84" fill="#CCCCCC"/><path d="M 77 122 Q 76 126 77 127 Q 78 127 79 127 Q 90 123 92 122 Q 96 121 101 123 Q 109 127 112 131 L 93 134 Q 91 132 86 132 Q 75 133 68 141" fill="#CCCCCC"/><path d="M 112 131 Q 114 133 112 137 Q 108 143 108 149 Q 105 175 102 192 Q 101 204 96 209 Q 90 216 83 223 Q 76 226 72 219 L 82 200 Q 84 196 87 189 Q 93 172 95 147 Q 95 137 93 134" fill="#CCCCCC"/><path d="M 72 219 Q 70 211 63 202 Q 61 199 61 195 Q 61 193 64 195 Q 69 197 75 200 Q 80 201 82 200" fill="#CCCCCC"/><path d="M 157 38 Q 165 36 173 34 Q 181 31 187 29 Q 194 26 200 26 Q 207 27 209 30 Q 210 32 208 34 Q 207 35 201 37 Q 192 39 184 41 Q 164 46 159 45" fill="#CCCCCC"/><path d="M 147 125 Q 146 73 145 60 Q 143 47 138 35 Q 137 31 138 30 Q 141 28 144 30 Q 152 33 157 38 L 159 45 Q 157 50 157 64 L 157 70 Q 157 81 157 92 L 157 99 Q 157 110 157 123" fill="#CCCCCC"/><path d="M 157 64 Q 171 61 177 58 Q 183 55 190 56 Q 196 57 197 59 Q 199 61 197 62 Q 196 63 192 64 Q 184 67 176 69 Q 167 72 157 70" fill="#CCCCCC"/><path d="M 157 92 Q 163 90 169 89 Q 187 83 192 83 Q 198 85 199 87 Q 200 89 199 91 Q 198 91 199 91 Q 173 99 157 99" fill="#CCCCCC"/><path d="M 143 136 Q 139 137 137 138 L 126 140 Q 121 138 118 136 Q 114 132 119 131 Q 134 128 147 125 L 157 123 Q 179 117 201 112 Q 214 106 228 115 Q 232 118 231 121 Q 230 123 218 124 Q 172 127 152 134" fill="#CCCCCC"/><path d="M 137 138 Q 140 140 144 144 Q 147 147 146 152 Q 144 162 142 204 L 139 238 Q 136 243 133 242 L 132 241 Q 119 230 126 219 Q 131 213 132 189 Q 133 152 128 142 Q 127 141 126 140" fill="#CCCCCC"/><path d="M 142 204 Q 142 208 144 209 Q 146 209 173 190 Q 178 187 178 190 Q 178 192 173 196 Q 147 227 139 238" fill="#CCCCCC"/><path d="M 196 139 L 195 134 Q 195 130 198 130 Q 203 130 207 134 Q 212 138 213 141 Q 214 144 210 145 Q 202 149 185 162 L 181 160" fill="#CCCCCC"/><path d="M 185 162 Q 211 181 251 194 Q 254 194 253 196 Q 252 198 248 199 Q 228 206 214 206 Q 205 204 154 146 Q 149 140 143 136 L 152 134 Q 169 149 181 160" fill="#CCCCCC"/><path d="M 37 42 L 36 39 Q 36 36 38 35 Q 41 33 58 40 Q 65 44 66 48 Q 69 57 67 60 Q 65 64 62 64 Q 58 64 55 60 Q 49 54 44 49" fill="#0000ff" clip-path="url(#clip-mask-1)" /><path d="M 16 98 L 16 94 Q 16 91 17 91 Q 20 90 24 91 Q 38 97 41 100 Q 45 103 46 110 Q 46 114 45 118 Q 42 121 38 120 Q 31 116 20 101" fill="#0000ff" clip-path="url(#clip-mask-2)" /><path d="M 23 191 L 26 185 Q 46 139 50 136 Q 52 134 52 137 Q 52 138 51 142 Q 37 207 37 217 Q 38 223 36 224 Q 33 225 31 223 Q 22 220 16 202 Q 15 197 18 196" fill="#0000ff" clip-path="url(#clip-mask-3)" /><path d="M 107 49 Q 105 46 99 48 Q 82 51 78 49 Q 75 48 75 47 Q 74 45 77 45 Q 90 42 98 39 Q 109 33 114 36 Q 120 40 125 43" fill="#000080" clip-path="url(#clip-mask-4)" /><path d="M 99 79 Q 102 68 105 59 Q 109 51 107 49 L 125 43 Q 130 47 124 53 Q 117 59 111 80" fill="#000080" clip-path="url(#clip-mask-5)" /><path d="M 92 81 L 97 79 Q 98 79 99 79 L 111 80 Q 111 80 111 80 Q 116 83 116 86 Q 116 86 116 86 Q 115 87 87 92 L 84 84" fill="#000080" clip-path="url(#clip-mask-6)" /><path d="M 87 92 Q 87 94 86 95 Q 81 110 77 122 L 68 141 Q 64 145 61 143 Q 59 141 57 137 Q 56 135 59 131 Q 68 125 73 106 Q 77 93 72 83 Q 70 80 73 79 Q 75 77 78 79 Q 82 82 84 84" fill="#000080" clip-path="url(#clip-mask-7)" /><path d="M 77 122 Q 76 126 77 127 Q 78 127 79 127 Q 90 123 92 122 Q 96 121 101 123 Q 109 127 112 131 L 93 134 Q 91 132 86 132 Q 75 133 68 141" fill="#000080" clip-path="url(#clip-mask-8)" /><path d="M 112 131 Q 114 133 112 137 Q 108 143 108 149 Q 105 175 102 192 Q 101 204 96 209 Q 90 216 83 223 Q 76 226 72 219 L 82 200 Q 84 196 87 189 Q 93 172 95 147 Q 95 137 93 134" fill="#000080" clip-path="url(#clip-mask-9)" /><path d="M 72 219 Q 70 211 63 202 Q 61 199 61 195 Q 61 193 64 195 Q 69 197 75 200 Q 80 201 82 200" fill="#000080" clip-path="url(#clip-mask-10)" /><path d="M 157 38 Q 165 36 173 34 Q 181 31 187 29 Q 194 26 200 26 Q 207 27 209 30 Q 210 32 208 34 Q 207 35 201 37 Q 192 39 184 41 Q 164 46 159 45" fill="#000080" clip-path="url(#clip-mask-11)" /><path d="M 147 125 Q 146 73 145 60 Q 143 47 138 35 Q 137 31 138 30 Q 141 28 144 30 Q 152 33 157 38 L 159 45 Q 157 50 157 64 L 157 70 Q 157 81 157 92 L 157 99 Q 157 110 157 123" fill="#000080" clip-path="url(#clip-mask-12)" /><path d="M 157 64 Q 171 61 177 58 Q 183 55 190 56 Q 196 57 197 59 Q 199 61 197 62 Q 196 63 192 64 Q 184 67 176 69 Q 167 72 157 70" fill="#000080" clip-path="url(#clip-mask-13)" /><path d="M 157 92 Q 163 90 169 89 Q 187 83 192 83 Q 198 85 199 87 Q 200 89 199 91 Q 198 91 199 91 Q 173 99 157 99" fill="#000080" clip-path="url(#clip-mask-14)" /><path d="M 143 136 Q 139 137 137 138 L 126 140 Q 121 138 118 136 Q 114 132 119 131 Q 134 128 147 125 L 157 123 Q 179 117 201 112 Q 214 106 228 115 Q 232 118 231 121 Q 230 123 218 124 Q 172 127 152 134" fill="#000080" clip-path="url(#clip-mask-15)" /><path d="M 137 138 Q 140 140 144 144 Q 147 147 146 152 Q 144 162 142 204 L 139 238 Q 136 243 133 242 L 132 241 Q 119 230 126 219 Q 131 213 132 189 Q 133 152 128 142 Q 127 141 126 140" fill="#000080" clip-path="url(#clip-mask-16)" /><path d="M 142 204 Q 142 208 144 209 Q 146 209 173 190 Q 178 187 178 190 Q 178 192 173 196 Q 147 227 139 238" fill="#000080" clip-path="url(#clip-mask-17)" /><path d="M 196 139 L 195 134 Q 195 130 198 130 Q 203 130 207 134 Q 212 138 213 141 Q 214 144 210 145 Q 202 149 185 162 L 181 160" fill="#000080" clip-path="url(#clip-mask-18)" /><path d="M 185 162 Q 211 181 251 194 Q 254 194 253 196 Q 252 198 248 199 Q 228 206 214 206 Q 205 204 154 146 Q 149 140 143 136 L 152 134 Q 169 149 181 160" fill="#000080" clip-path="url(#clip-mask-19)" /></svg>