<svg xmlns="http://www.w3.org/2000/svg" xmlns:xlink="http://www.w3.org/1999/xlink" width="270" height="270"><defs><clipPath id="clip-mask-1"><rect x="51" y="38" width="34" height="31"><animate attributeName="x" from="17" to="51" dur="0.126" begin="0; animate22.end + 1" id="animate1" fill="freeze"/></rect></clipPath><clipPath id="clip-mask-2"><rect x="26" y="92" width="34" height="29"><set attributeName="x" to="-8" begin="0; animate22.end + 1" /><animate attributeName="x" from="-8" to="26" dur="0.126" begin="animate1.end + 0.5" id="animate2" fill="freeze"/></rect></clipPath><clipPath id="clip-mask-3"><rect x="29" y="135" width="46" height="95"><set attributeName="y" to="230" begin="0; animate22.end + 1" /><animate attributeName="y" from="230" to="135" dur="0.352" begin="animate2.end + 0.5" id="animate3" fill="freeze"/></rect></clipPath><clipPath id="clip-mask-4"><rect x="109" y="39" width="25" height="60"><set attributeName="y" to="-21" begin="0; animate22.end + 1" /><animate attributeName="y" from="-21" to="39" dur="0.222" begin="animate3.end + 0.5" id="animate4" fill="freeze"/></rect></clipPath><clipPath id="clip-mask-5"><rect x="124" y="27" width="94" height="23"><set attributeName="x" to="30" begin="0; animate22.end + 1" /><animate attributeName="x" from="30" to="124" dur="0.348" begin="animate4.end + 0.5" id="animate5" fill="freeze"/></rect></clipPath><clipPath id="clip-mask-6"><rect x="186" y="39" width="37" height="53"><set attributeName="y" to="-14" begin="0; animate22.end + 1" /><animate attributeName="y" from="-14" to="39" dur="0.196" begin="animate5.end" id="animate6" fill="freeze"/></rect></clipPath><clipPath id="clip-mask-7"><rect x="130" y="54" width="51" height="16"><set attributeName="x" to="79" begin="0; animate22.end + 1" /><animate attributeName="x" from="79" to="130" dur="0.189" begin="animate6.end + 0.5" id="animate7" fill="freeze"/></rect></clipPath><clipPath id="clip-mask-8"><rect x="134" y="77" width="53" height="16"><set attributeName="x" to="81" begin="0; animate22.end + 1" /><animate attributeName="x" from="81" to="134" dur="0.196" begin="animate7.end + 0.5" id="animate8" fill="freeze"/></rect></clipPath><clipPath id="clip-mask-9"><rect x="86" y="91" width="39" height="58"><set attributeName="y" to="33" begin="0; animate22.end + 1" /><animate attributeName="y" from="33" to="91" dur="0.215" begin="animate8.end + 0.5" id="animate9" fill="freeze"/></rect></clipPath><clipPath id="clip-mask-10"><rect x="95" y="132" width="28" height="16"><set attributeName="x" to="67" begin="0; animate22.end + 1" /><animate attributeName="x" from="67" to="95" dur="0.104" begin="animate9.end" id="animate10" fill="freeze"/></rect></clipPath><clipPath id="clip-mask-11"><rect x="92" y="109" width="58" height="78"><set attributeName="y" to="31" begin="0; animate22.end + 1" /><animate attributeName="y" from="31" to="109" dur="0.289" begin="animate10.end + 0.5" id="animate11" fill="freeze"/></rect></clipPath><clipPath id="clip-mask-12"><rect x="104" y="163" width="33" height="22"><set attributeName="x" to="71" begin="0; animate22.end + 1" /><animate attributeName="x" from="71" to="104" dur="0.122" begin="animate11.end" id="animate12" fill="freeze"/></rect></clipPath><clipPath id="clip-mask-13"><rect x="130" y="150" width="20" height="29"><set attributeName="y" to="121" begin="0; animate22.end + 1" /><animate attributeName="y" from="121" to="150" dur="0.107" begin="animate12.end + 0.5" id="animate13" fill="freeze"/></rect></clipPath><clipPath id="clip-mask-14"><rect x="154" y="90" width="34" height="50"><set attributeName="y" to="40" begin="0; animate22.end + 1" /><animate attributeName="y" from="40" to="90" dur="0.185" begin="animate13.end + 0.5" id="animate14" fill="freeze"/></rect></clipPath><clipPath id="clip-mask-15"><rect x="161" y="124" width="30" height="14"><set attributeName="x" to="131" begin="0; animate22.end + 1" /><animate attributeName="x" from="131" to="161" dur="0.111" begin="animate14.end" id="animate15" fill="freeze"/></rect></clipPath><clipPath id="clip-mask-16"><rect x="158" y="99" width="61" height="81"><set attributeName="y" to="18" begin="0; animate22.end + 1" /><animate attributeName="y" from="18" to="99" dur="0.300" begin="animate15.end + 0.5" id="animate16" fill="freeze"/></rect></clipPath><clipPath id="clip-mask-17"><rect x="171" y="156" width="36" height="21"><set attributeName="x" to="135" begin="0; animate22.end + 1" /><animate attributeName="x" from="135" to="171" dur="0.133" begin="animate16.end" id="animate17" fill="freeze"/></rect></clipPath><clipPath id="clip-mask-18"><rect x="199" y="139" width="25" height="36"><set attributeName="y" to="103" begin="0; animate22.end + 1" /><animate attributeName="y" from="103" to="139" dur="0.133" begin="animate17.end + 0.5" id="animate18" fill="freeze"/></rect></clipPath><clipPath id="clip-mask-19"><rect x="75" y="194" width="24" height="48"><set attributeName="y" to="146" begin="0; animate22.end + 1" /><animate attributeName="y" from="146" to="194" dur="0.178" begin="animate18.end + 0.5" id="animate19" fill="freeze"/></rect></clipPath><clipPath id="clip-mask-20"><rect x="125" y="192" width="21" height="33"><set attributeName="y" to="159" begin="0; animate22.end + 1" /><animate attributeName="y" from="159" to="192" dur="0.122" begin="animate19.end + 0.5" id="animate20" fill="freeze"/></rect></clipPath><clipPath id="clip-mask-21"><rect x="166" y="192" width="22" height="29"><set attributeName="x" to="144" begin="0; animate22.end + 1" /><animate attributeName="x" from="144" to="166" dur="0.081" begin="animate20.end + 0.5" id="animate21" fill="freeze"/></rect></clipPath><clipPath id="clip-mask-22"><rect x="204" y="184" width="39" height="51"><set attributeName="x" to="165" begin="0; animate22.end + 1" /><animate attributeName="x" from="165" to="204" dur="0.144" begin="animate21.end + 0.5" id="animate22" fill="freeze"/></rect></clipPath></defs><path d="M 0 0 L 270 270 M 270 0 L 0 270 M 135 0 L 135 270 M 0 135 L 270 135" stroke="#CCCCCC" /><path d="M 52 47 L 51 44 Q 51 41 52 39 Q 56 38 74 45 Q 82 48 83 53 Q 85 61 84 65 Q 82 69 79 69 Q 75 69 71 65 Q 65 58 59 53" fill="#CCCCCC"/><path d="M 27 100 L 27 97 Q 26 93 28 93 Q 30 92 35 93 L 35 93 Q 56 99 59 109 Q 60 113 58 117 Q 56 121 52 120 Q 43 116 32 104" fill="#CCCCCC"/><path d="M 39 194 L 42 188 Q 69 138 72 137 Q 75 135 75 137 Q 75 139 74 143 Q 50 213 49 222 Q 49 228 47 229 Q 45 230 43 228 Q 34 224 30 205 Q 29 201 32 200" fill="#CCCCCC"/><path d="M 134 94 L 134 95 Q 133 99 128 94 Q 124 89 123 83 Q 118 60 111 47 Q 109 43 110 41 Q 111 39 114 40 Q 122 42 124 43 L 128 50 Q 129 54 130 64 L 131 70 Q 133 77 134 87 L 134 93" fill="#CCCCCC"/><path d="M 193 39 Q 191 38 185 39 Q 147 44 131 50 Q 130 50 128 50 L 124 43 Q 133 41 146 38 Q 175 31 181 31 Q 198 27 202 29 Q 214 36 218 40" fill="#CCCCCC"/><path d="M 187 80 Q 187 80 187 80 Q 190 75 194 48 Q 196 41 193 39 L 218 40 Q 223 44 218 48 Q 209 55 205 68 Q 199 84 197 88 Q 195 92 192 92 Q 188 92 187 88 Q 186 87 186 86" fill="#CCCCCC"/><path d="M 130 64 Q 165 54 171 54 Q 177 55 179 59 Q 181 62 176 63 Q 132 70 131 70" fill="#CCCCCC"/><path d="M 134 87 Q 178 77 182 78 Q 185 78 187 80 L 186 86 Q 167 89 140 93 Q 136 93 134 93" fill="#CCCCCC"/><path d="M 95 148 Q 92 149 90 147 Q 88 144 87 140 Q 86 137 90 135 Q 92 133 94 132 Q 113 106 109 95 Q 107 92 110 91 Q 113 91 117 93 Q 124 100 125 102 Q 125 104 122 107 Q 113 118 103 132" fill="#CCCCCC"/><path d="M 119 143 Q 99 146 95 148 L 103 132 Q 101 137 106 137 Q 114 137 123 138" fill="#CCCCCC"/><path d="M 104 185 Q 101 187 99 185 Q 93 180 92 178 Q 92 174 95 173 Q 100 170 119 143 L 123 138 Q 132 120 132 113 Q 131 110 134 109 Q 136 109 139 111 Q 147 115 149 119 Q 150 121 148 124 Q 138 131 112 166" fill="#CCCCCC"/><path d="M 119 174 L 104 185 L 112 166 Q 110 171 114 169 Q 125 165 134 163 L 137 167" fill="#CCCCCC"/><path d="M 134 163 Q 132 159 131 155 Q 130 153 131 152 Q 132 150 134 150 Q 137 153 144 160 Q 149 164 150 169 Q 150 173 149 176 Q 147 179 144 178 Q 141 176 137 167" fill="#CCCCCC"/><path d="M 161 138 Q 159 140 157 137 Q 154 134 154 130 Q 154 128 157 125 Q 162 122 164 118 Q 174 100 173 93 Q 171 90 174 90 Q 177 90 180 92 Q 187 99 187 101 Q 188 103 185 106 Q 178 113 170 124" fill="#CCCCCC"/><path d="M 187 133 Q 186 133 184 133 Q 166 136 161 138 L 170 124 Q 167 128 172 128 Q 180 128 191 128" fill="#CCCCCC"/><path d="M 171 177 Q 167 180 165 177 Q 158 172 158 169 Q 158 166 161 164 Q 168 159 187 133 L 191 128 Q 200 112 200 104 Q 199 101 202 100 Q 204 99 208 101 Q 215 106 218 110 Q 219 112 217 115 Q 202 127 179 158" fill="#CCCCCC"/><path d="M 187 166 L 171 177 L 179 158 Q 176 163 181 161 Q 194 158 205 156 L 207 160" fill="#CCCCCC"/><path d="M 205 156 Q 199 144 199 142 Q 200 140 201 139 Q 205 139 218 153 Q 224 159 223 164 Q 222 170 220 173 Q 218 175 216 174 Q 213 172 207 160" fill="#CCCCCC"/><path d="M 92 194 L 94 194 Q 96 194 97 196 Q 99 202 98 210 Q 98 228 86 239 Q 82 242 80 238 Q 75 229 79 222 Q 86 210 91 197" fill="#CCCCCC"/><path d="M 125 196 L 126 194 Q 127 192 129 193 Q 144 203 145 213 Q 146 218 144 221 Q 141 225 138 223 Q 132 220 126 199" fill="#CCCCCC"/><path d="M 166 196 L 167 194 Q 168 192 170 193 Q 185 200 188 209 Q 188 214 187 218 Q 185 221 181 220 Q 176 218 167 199" fill="#CCCCCC"/><path d="M 204 190 L 205 187 Q 206 184 208 185 Q 214 189 225 195 Q 242 206 242 217 Q 243 230 239 233 Q 236 235 234 234 Q 230 232 227 226 Q 216 207 206 194" fill="#CCCCCC"/><path d="M 52 47 L 51 44 Q 51 41 52 39 Q 56 38 74 45 Q 82 48 83 53 Q 85 61 84 65 Q 82 69 79 69 Q 75 69 71 65 Q 65 58 59 53" fill="#0000ff" clip-path="url(#clip-mask-1)" /><path d="M 27 100 L 27 97 Q 26 93 28 93 Q 30 92 35 93 L 35 93 Q 56 99 59 109 Q 60 113 58 117 Q 56 121 52 120 Q 43 116 32 104" fill="#0000ff" clip-path="url(#clip-mask-2)" /><path d="M 39 194 L 42 188 Q 69 138 72 137 Q 75 135 75 137 Q 75 139 74 143 Q 50 213 49 222 Q 49 228 47 229 Q 45 230 43 228 Q 34 224 30 205 Q 29 201 32 200" fill="#0000ff" clip-path="url(#clip-mask-3)" /><path d="M 134 94 L 134 95 Q 133 99 128 94 Q 124 89 123 83 Q 118 60 111 47 Q 109 43 110 41 Q 111 39 114 40 Q 122 42 124 43 L 128 50 Q 129 54 130 64 L 131 70 Q 133 77 134 87 L 134 93" fill="#000080" clip-path="url(#clip-mask-4)" /><path d="M 193 39 Q 191 38 185 39 Q 147 44 131 50 Q 130 50 128 50 L 124 43 Q 133 41 146 38 Q 175 31 181 31 Q 198 27 202 29 Q 214 36 218 40" fill="#000080" clip-path="url(#clip-mask-5)" /><path d="M 187 80 Q 187 80 187 80 Q 190 75 194 48 Q 196 41 193 39 L 218 40 Q 223 44 218 48 Q 209 55 205 68 Q 199 84 197 88 Q 195 92 192 92 Q 188 92 187 88 Q 186 87 186 86" fill="#000080" clip-path="url(#clip-mask-6)" /><path d="M 130 64 Q 165 54 171 54 Q 177 55 179 59 Q 181 62 176 63 Q 132 70 131 70" fill="#000080" clip-path="url(#clip-mask-7)" /><path d="M 134 87 Q 178 77 182 78 Q 185 78 187 80 L 186 86 Q 167 89 140 93 Q 136 93 134 93" fill="#000080" clip-path="url(#clip-mask-8)" /><path d="M 95 148 Q 92 149 90 147 Q 88 144 87 140 Q 86 137 90 135 Q 92 133 94 132 Q 113 106 109 95 Q 107 92 110 91 Q 113 91 117 93 Q 124 100 125 102 Q 125 104 122 107 Q 113 118 103 132" fill="#000080" clip-path="url(#clip-mask-9)" /><path d="M 119 143 Q 99 146 95 148 L 103 132 Q 101 137 106 137 Q 114 137 123 138" fill="#000080" clip-path="url(#clip-mask-10)" /><path d="M 104 185 Q 101 187 99 185 Q 93 180 92 178 Q 92 174 95 173 Q 100 170 119 143 L 123 138 Q 132 120 132 113 Q 131 110 134 109 Q 136 109 139 111 Q 147 115 149 119 Q 150 121 148 124 Q 138 131 112 166" fill="#000080" clip-path="url(#clip-mask-11)" /><path d="M 119 174 L 104 185 L 112 166 Q 110 171 114 169 Q 125 165 134 163 L 137 167" fill="#000080" clip-path="url(#clip-mask-12)" /><path d="M 134 163 Q 132 159 131 155 Q 130 153 131 152 Q 132 150 134 150 Q 137 153 144 160 Q 149 164 150 169 Q 150 173 149 176 Q 147 179 144 178 Q 141 176 137 167" fill="#000080" clip-path="url(#clip-mask-13)" /><path d="M 161 138 Q 159 140 157 137 Q 154 134 154 130 Q 154 128 157 125 Q 162 122 164 118 Q 174 100 173 93 Q 171 90 174 90 Q 177 90 180 92 Q 187 99 187 101 Q 188 103 185 106 Q 178 113 170 124" fill="#000080" clip-path="url(#clip-mask-14)" /><path d="M 187 133 Q 186 133 184 133 Q 166 136 161 138 L 170 124 Q 167 128 172 128 Q 180 128 191 128" fill="#000080" clip-path="url(#clip-mask-15)" /><path d="M 171 177 Q 167 180 165 177 Q 158 172 158 169 Q 158 166 161 164 Q 168 159 187 133 L 191 128 Q 200 112 200 104 Q 199 101 202 100 Q 204 99 208 101 Q 215 106 218 110 Q 219 112 217 115 Q 202 127 179 158" fill="#000080" clip-path="url(#clip-mask-16)" /><path d="M 187 166 L 171 177 L 179 158 Q 176 163 181 161 Q 194 158 205 156 L 207 160" fill="#000080" clip-path="url(#clip-mask-17)" /><path d="M 205 156 Q 199 144 199 142 Q 200 140 201 139 Q 205 139 218 153 Q 224 159 223 164 Q 222 170 220 173 Q 218 175 216 174 Q 213 172 207 160" fill="#000080" clip-path="url(#clip-mask-18)" /><path d="M 92 194 L 94 194 Q 96 194 97 196 Q 99 202 98 210 Q 98 228 86 239 Q 82 242 80 238 Q 75 229 79 222 Q 86 210 91 197" fill="#000080" clip-path="url(#clip-mask-19)" /><path d="M 125 196 L 126 194 Q 127 192 129 193 Q 144 203 145 213 Q 146 218 144 221 Q 141 225 138 223 Q 132 220 126 199" fill="#000080" clip-path="url(#clip-mask-20)" /><path d="M 166 196 L 167 194 Q 168 192 170 193 Q 185 200 188 209 Q 188 214 187 218 Q 185 221 181 220 Q 176 218 167 199" fill="#000080" clip-path="url(#clip-mask-21)" /><path d="M 204 190 L 205 187 Q 206 184 208 185 Q 214 189 225 195 Q 242 206 242 217 Q 243 230 239 233 Q 236 235 234 234 Q 230 232 227 226 Q 216 207 206 194" fill="#000080" clip-path="url(#clip-mask-22)" /></svg>