<svg xmlns="http://www.w3.org/2000/svg" xmlns:xlink="http://www.w3.org/1999/xlink" width="270" height="270"><defs><clipPath id="clip-mask-1"><rect x="45" y="42" width="32" height="28"><animate attributeName="x" from="13" to="45" dur="0.119" begin="0; animate23.end + 1" id="animate1" fill="freeze"/></rect></clipPath><clipPath id="clip-mask-2"><rect x="22" y="101" width="33" height="30"><set attributeName="x" to="-11" begin="0; animate23.end + 1" /><animate attributeName="x" from="-11" to="22" dur="0.122" begin="animate1.end + 0.5" id="animate2" fill="freeze"/></rect></clipPath><clipPath id="clip-mask-3"><rect x="25" y="137" width="44" height="92"><set attributeName="y" to="229" begin="0; animate23.end + 1" /><animate attributeName="y" from="229" to="137" dur="0.341" begin="animate2.end + 0.5" id="animate3" fill="freeze"/></rect></clipPath><clipPath id="clip-mask-4"><rect x="111" y="19" width="26" height="47"><set attributeName="y" to="-28" begin="0; animate23.end + 1" /><animate attributeName="y" from="-28" to="19" dur="0.174" begin="animate3.end + 0.5" id="animate4" fill="freeze"/></rect></clipPath><clipPath id="clip-mask-5"><rect x="91" y="41" width="59" height="18"><set attributeName="x" to="32" begin="0; animate23.end + 1" /><animate attributeName="x" from="32" to="91" dur="0.219" begin="animate4.end + 0.5" id="animate5" fill="freeze"/></rect></clipPath><clipPath id="clip-mask-6"><rect x="164" y="8" width="30" height="54"><set attributeName="y" to="-46" begin="0; animate23.end + 1" /><animate attributeName="y" from="-46" to="8" dur="0.200" begin="animate5.end + 0.5" id="animate6" fill="freeze"/></rect></clipPath><clipPath id="clip-mask-7"><rect x="163" y="28" width="65" height="16"><set attributeName="x" to="98" begin="0; animate23.end + 1" /><animate attributeName="x" from="98" to="163" dur="0.241" begin="animate6.end + 0.5" id="animate7" fill="freeze"/></rect></clipPath><clipPath id="clip-mask-8"><rect x="107" y="63" width="93" height="29"><set attributeName="x" to="14" begin="0; animate23.end + 1" /><animate attributeName="x" from="14" to="107" dur="0.344" begin="animate7.end + 0.5" id="animate8" fill="freeze"/></rect></clipPath><clipPath id="clip-mask-9"><rect x="174" y="75" width="29" height="43"><set attributeName="y" to="32" begin="0; animate23.end + 1" /><animate attributeName="y" from="32" to="75" dur="0.159" begin="animate8.end" id="animate9" fill="freeze"/></rect></clipPath><clipPath id="clip-mask-10"><rect x="67" y="82" width="180" height="42"><set attributeName="x" to="-113" begin="0; animate23.end + 1" /><animate attributeName="x" from="-113" to="67" dur="0.667" begin="animate9.end + 0.5" id="animate10" fill="freeze"/></rect></clipPath><clipPath id="clip-mask-11"><rect x="101" y="116" width="89" height="21"><set attributeName="x" to="12" begin="0; animate23.end + 1" /><animate attributeName="x" from="12" to="101" dur="0.330" begin="animate10.end + 0.5" id="animate11" fill="freeze"/></rect></clipPath><clipPath id="clip-mask-12"><rect x="138" y="60" width="21" height="194"><set attributeName="y" to="-134" begin="0; animate23.end + 1" /><animate attributeName="y" from="-134" to="60" dur="0.719" begin="animate11.end + 0.5" id="animate12" fill="freeze"/></rect></clipPath><clipPath id="clip-mask-13"><rect x="63" y="144" width="40" height="100"><set attributeName="y" to="44" begin="0; animate23.end + 1" /><animate attributeName="y" from="44" to="144" dur="0.370" begin="animate12.end + 0.5" id="animate13" fill="freeze"/></rect></clipPath><clipPath id="clip-mask-14"><rect x="197" y="123" width="23" height="138"><set attributeName="y" to="-15" begin="0; animate23.end + 1" /><animate attributeName="y" from="-15" to="123" dur="0.511" begin="animate13.end + 0.5" id="animate14" fill="freeze"/></rect></clipPath><clipPath id="clip-mask-15"><rect x="116" y="135" width="13" height="22"><set attributeName="y" to="113" begin="0; animate23.end + 1" /><animate attributeName="y" from="113" to="135" dur="0.081" begin="animate14.end + 0.5" id="animate15" fill="freeze"/></rect></clipPath><clipPath id="clip-mask-16"><rect x="101" y="156" width="30" height="12"><set attributeName="x" to="71" begin="0; animate23.end + 1" /><animate attributeName="x" from="71" to="101" dur="0.111" begin="animate15.end + 0.5" id="animate16" fill="freeze"/></rect></clipPath><clipPath id="clip-mask-17"><rect x="165" y="126" width="15" height="33"><set attributeName="y" to="93" begin="0; animate23.end + 1" /><animate attributeName="y" from="93" to="126" dur="0.122" begin="animate16.end + 0.5" id="animate17" fill="freeze"/></rect></clipPath><clipPath id="clip-mask-18"><rect x="175" y="142" width="28" height="16"><set attributeName="x" to="147" begin="0; animate23.end + 1" /><animate attributeName="x" from="147" to="175" dur="0.104" begin="animate17.end" id="animate18" fill="freeze"/></rect></clipPath><clipPath id="clip-mask-19"><rect x="104" y="163" width="97" height="25"><set attributeName="x" to="7" begin="0; animate23.end + 1" /><animate attributeName="x" from="7" to="104" dur="0.359" begin="animate18.end + 0.5" id="animate19" fill="freeze"/></rect></clipPath><clipPath id="clip-mask-20"><rect x="96" y="196" width="33" height="13"><set attributeName="x" to="63" begin="0; animate23.end + 1" /><animate attributeName="x" from="63" to="96" dur="0.122" begin="animate19.end + 0.5" id="animate20" fill="freeze"/></rect></clipPath><clipPath id="clip-mask-21"><rect x="111" y="207" width="15" height="37"><set attributeName="y" to="170" begin="0; animate23.end + 1" /><animate attributeName="y" from="170" to="207" dur="0.137" begin="animate20.end" id="animate21" fill="freeze"/></rect></clipPath><clipPath id="clip-mask-22"><rect x="183" y="186" width="23" height="12"><set attributeName="x" to="160" begin="0; animate23.end + 1" /><animate attributeName="x" from="160" to="183" dur="0.085" begin="animate21.end + 0.5" id="animate22" fill="freeze"/></rect></clipPath><clipPath id="clip-mask-23"><rect x="170" y="185" width="17" height="55"><set attributeName="y" to="130" begin="0; animate23.end + 1" /><animate attributeName="y" from="130" to="185" dur="0.204" begin="animate22.end + 0.5" id="animate23" fill="freeze"/></rect></clipPath></defs><path d="M 0 0 L 270 270 M 270 0 L 0 270 M 135 0 L 135 270 M 0 135 L 270 135" stroke="#CCCCCC" /><path d="M 47 51 L 46 48 Q 45 44 47 43 Q 50 42 67 47 Q 73 50 75 54 Q 77 62 76 66 Q 75 69 72 70 Q 68 70 64 66 Q 59 61 54 57" fill="#CCCCCC"/><path d="M 22 108 L 22 105 Q 22 102 23 101 Q 24 101 25 101 Q 35 101 48 109 Q 52 113 54 119 Q 55 124 53 127 Q 50 131 46 130 Q 37 125 26 112" fill="#CCCCCC"/><path d="M 35 194 L 38 188 Q 63 141 66 138 Q 68 137 68 139 Q 69 140 67 145 Q 48 207 46 221 Q 46 228 45 228 Q 42 229 40 227 Q 32 224 26 205 Q 25 200 29 199" fill="#CCCCCC"/><path d="M 137 63 L 137 64 Q 136 66 133 65 Q 129 61 127 52 L 124 44 Q 121 34 114 27 Q 111 23 114 22 Q 119 19 127 23 Q 132 24 132 28 Q 132 34 134 42 L 135 50" fill="#CCCCCC"/><path d="M 127 52 Q 118 55 110 58 Q 106 59 102 57 Q 96 55 92 51 Q 91 49 91 47 Q 92 46 94 46 Q 98 46 105 46 Q 115 45 124 44 L 134 42 Q 141 41 146 41 Q 149 41 150 42 Q 150 44 149 45 Q 145 48 141 48 Q 138 49 135 50" fill="#CCCCCC"/><path d="M 169 59 L 167 61 Q 164 62 164 60 Q 164 56 165 51 Q 167 45 168 41 L 170 36 Q 173 18 171 13 Q 169 11 172 10 Q 176 8 179 10 Q 194 18 188 23 Q 182 33 182 35 L 178 44" fill="#CCCCCC"/><path d="M 168 41 Q 167 40 167 40 Q 163 36 169 36 Q 169 36 170 36 L 182 35 Q 190 33 197 32 Q 216 28 225 37 Q 228 40 227 42 Q 226 44 223 44 Q 212 42 197 43 Q 179 44 178 44" fill="#CCCCCC"/><path d="M 146 85 Q 135 87 125 90 Q 117 92 112 90 Q 107 89 107 87 Q 107 85 110 84 Q 128 82 145 78 L 158 74 Q 164 72 171 70 Q 183 63 200 75 L 179 79 Q 176 77 157 82" fill="#CCCCCC"/><path d="M 179 95 Q 180 91 181 87 Q 181 82 179 79 L 200 75 Q 203 79 200 83 Q 196 86 194 91 L 189 102 Q 187 108 185 118 L 174 116 Q 176 110 178 104" fill="#CCCCCC"/><path d="M 146 109 Q 144 109 143 109 Q 113 114 88 123 Q 84 124 79 123 Q 75 122 71 119 Q 67 116 72 115 Q 111 108 146 101 L 155 99 Q 167 96 179 95 L 194 91 Q 206 88 215 86 Q 229 82 244 90 Q 247 93 246 96 Q 245 98 241 98 Q 201 101 189 102 L 178 104 Q 165 105 155 107" fill="#CCCCCC"/><path d="M 145 131 Q 131 132 122 135 L 116 137 Q 116 136 116 136 Q 108 137 107 137 Q 105 137 103 135 Q 101 131 105 130 Q 124 128 146 123 L 155 121 Q 173 116 174 116 L 185 118 Q 190 121 190 123 Q 190 124 187 125 Q 181 125 175 126 L 168 127 Q 161 128 155 129" fill="#CCCCCC"/><path d="M 157 235 L 152 249 Q 151 252 149 253 Q 147 254 146 252 Q 139 241 144 181 L 144 173 Q 145 150 145 131 L 146 123 Q 146 115 146 109 L 146 101 Q 146 87 146 85 L 145 78 Q 143 72 139 66 Q 138 64 140 62 Q 143 60 146 61 Q 149 62 156 66 Q 159 69 159 72 Q 158 73 158 74 L 157 82 Q 156 84 156 98 Q 155 98 155 99 L 155 107 Q 155 114 155 121 L 155 129 Q 154 155 155 171 L 155 179" fill="#CCCCCC"/><path d="M 101 168 Q 101 173 98 202 L 96 207 Q 95 212 94 215 Q 93 215 93 216 Q 80 241 65 244 Q 63 244 63 242 Q 64 241 67 239 Q 82 221 84 213 Q 88 204 89 197 Q 94 161 86 150 Q 84 146 87 145 Q 90 144 99 149 Q 103 150 102 154 Q 102 156 101 160 Q 101 161 101 162" fill="#CCCCCC"/><path d="M 202 142 Q 200 136 198 130 Q 197 126 199 125 Q 201 123 204 124 Q 209 126 213 129 Q 218 132 217 137 Q 215 152 215 166 Q 215 205 218 229 Q 220 248 212 259 Q 210 261 208 259 Q 198 248 201 235 Q 204 213 205 196 L 206 190 Q 206 160 203 146" fill="#CCCCCC"/><path d="M 122 135 Q 125 137 128 140 Q 129 143 128 145 Q 128 146 127 147 Q 127 151 126 157 L 118 156 Q 118 140 116 137" fill="#CCCCCC"/><path d="M 126 157 Q 131 160 131 161 Q 131 163 129 163 Q 126 164 125 164 Q 125 164 125 164 Q 119 163 105 167 Q 103 168 101 168 L 101 162 Q 108 159 116 157 Q 117 156 118 156" fill="#CCCCCC"/><path d="M 175 126 Q 177 128 179 129 Q 180 131 179 143 L 175 158 Q 174 159 171 158 Q 169 157 167 155 Q 165 152 168 149 Q 174 141 168 127" fill="#CCCCCC"/><path d="M 179 143 Q 179 147 182 146 Q 191 143 202 142 L 203 146 Q 201 148 198 149 Q 197 148 193 150 Q 179 153 175 158" fill="#CCCCCC"/><path d="M 144 181 Q 133 184 122 186 Q 112 188 108 185 Q 104 181 108 181 Q 124 177 144 173 L 155 171 Q 186 163 192 164 Q 197 165 200 168 Q 201 171 196 172 Q 177 175 155 179" fill="#CCCCCC"/><path d="M 98 202 Q 105 200 110 198 Q 114 196 120 199 Q 126 200 127 202 Q 129 203 126 207 L 112 209 Q 111 205 107 207 Q 107 207 107 207 Q 100 209 97 207 Q 97 207 96 207" fill="#CCCCCC"/><path d="M 126 207 Q 124 210 123 226 Q 123 237 123 240 Q 121 243 119 244 Q 118 244 113 236 Q 111 232 111 227 Q 113 216 112 209" fill="#CCCCCC"/><path d="M 205 196 Q 193 197 187 198 L 183 192 Q 189 190 195 188 Q 203 186 206 190" fill="#CCCCCC"/><path d="M 187 198 Q 183 197 183 221 Q 182 236 180 238 Q 179 240 177 238 Q 174 236 172 232 Q 170 227 171 223 Q 176 200 171 190 Q 170 187 171 186 Q 172 185 173 186 Q 178 187 183 192" fill="#CCCCCC"/><path d="M 47 51 L 46 48 Q 45 44 47 43 Q 50 42 67 47 Q 73 50 75 54 Q 77 62 76 66 Q 75 69 72 70 Q 68 70 64 66 Q 59 61 54 57" fill="#0000ff" clip-path="url(#clip-mask-1)" /><path d="M 22 108 L 22 105 Q 22 102 23 101 Q 24 101 25 101 Q 35 101 48 109 Q 52 113 54 119 Q 55 124 53 127 Q 50 131 46 130 Q 37 125 26 112" fill="#0000ff" clip-path="url(#clip-mask-2)" /><path d="M 35 194 L 38 188 Q 63 141 66 138 Q 68 137 68 139 Q 69 140 67 145 Q 48 207 46 221 Q 46 228 45 228 Q 42 229 40 227 Q 32 224 26 205 Q 25 200 29 199" fill="#0000ff" clip-path="url(#clip-mask-3)" /><path d="M 137 63 L 137 64 Q 136 66 133 65 Q 129 61 127 52 L 124 44 Q 121 34 114 27 Q 111 23 114 22 Q 119 19 127 23 Q 132 24 132 28 Q 132 34 134 42 L 135 50" fill="#000080" clip-path="url(#clip-mask-4)" /><path d="M 127 52 Q 118 55 110 58 Q 106 59 102 57 Q 96 55 92 51 Q 91 49 91 47 Q 92 46 94 46 Q 98 46 105 46 Q 115 45 124 44 L 134 42 Q 141 41 146 41 Q 149 41 150 42 Q 150 44 149 45 Q 145 48 141 48 Q 138 49 135 50" fill="#000080" clip-path="url(#clip-mask-5)" /><path d="M 169 59 L 167 61 Q 164 62 164 60 Q 164 56 165 51 Q 167 45 168 41 L 170 36 Q 173 18 171 13 Q 169 11 172 10 Q 176 8 179 10 Q 194 18 188 23 Q 182 33 182 35 L 178 44" fill="#000080" clip-path="url(#clip-mask-6)" /><path d="M 168 41 Q 167 40 167 40 Q 163 36 169 36 Q 169 36 170 36 L 182 35 Q 190 33 197 32 Q 216 28 225 37 Q 228 40 227 42 Q 226 44 223 44 Q 212 42 197 43 Q 179 44 178 44" fill="#000080" clip-path="url(#clip-mask-7)" /><path d="M 146 85 Q 135 87 125 90 Q 117 92 112 90 Q 107 89 107 87 Q 107 85 110 84 Q 128 82 145 78 L 158 74 Q 164 72 171 70 Q 183 63 200 75 L 179 79 Q 176 77 157 82" fill="#000080" clip-path="url(#clip-mask-8)" /><path d="M 179 95 Q 180 91 181 87 Q 181 82 179 79 L 200 75 Q 203 79 200 83 Q 196 86 194 91 L 189 102 Q 187 108 185 118 L 174 116 Q 176 110 178 104" fill="#000080" clip-path="url(#clip-mask-9)" /><path d="M 146 109 Q 144 109 143 109 Q 113 114 88 123 Q 84 124 79 123 Q 75 122 71 119 Q 67 116 72 115 Q 111 108 146 101 L 155 99 Q 167 96 179 95 L 194 91 Q 206 88 215 86 Q 229 82 244 90 Q 247 93 246 96 Q 245 98 241 98 Q 201 101 189 102 L 178 104 Q 165 105 155 107" fill="#000080" clip-path="url(#clip-mask-10)" /><path d="M 145 131 Q 131 132 122 135 L 116 137 Q 116 136 116 136 Q 108 137 107 137 Q 105 137 103 135 Q 101 131 105 130 Q 124 128 146 123 L 155 121 Q 173 116 174 116 L 185 118 Q 190 121 190 123 Q 190 124 187 125 Q 181 125 175 126 L 168 127 Q 161 128 155 129" fill="#000080" clip-path="url(#clip-mask-11)" /><path d="M 157 235 L 152 249 Q 151 252 149 253 Q 147 254 146 252 Q 139 241 144 181 L 144 173 Q 145 150 145 131 L 146 123 Q 146 115 146 109 L 146 101 Q 146 87 146 85 L 145 78 Q 143 72 139 66 Q 138 64 140 62 Q 143 60 146 61 Q 149 62 156 66 Q 159 69 159 72 Q 158 73 158 74 L 157 82 Q 156 84 156 98 Q 155 98 155 99 L 155 107 Q 155 114 155 121 L 155 129 Q 154 155 155 171 L 155 179" fill="#000080" clip-path="url(#clip-mask-12)" /><path d="M 101 168 Q 101 173 98 202 L 96 207 Q 95 212 94 215 Q 93 215 93 216 Q 80 241 65 244 Q 63 244 63 242 Q 64 241 67 239 Q 82 221 84 213 Q 88 204 89 197 Q 94 161 86 150 Q 84 146 87 145 Q 90 144 99 149 Q 103 150 102 154 Q 102 156 101 160 Q 101 161 101 162" fill="#000080" clip-path="url(#clip-mask-13)" /><path d="M 202 142 Q 200 136 198 130 Q 197 126 199 125 Q 201 123 204 124 Q 209 126 213 129 Q 218 132 217 137 Q 215 152 215 166 Q 215 205 218 229 Q 220 248 212 259 Q 210 261 208 259 Q 198 248 201 235 Q 204 213 205 196 L 206 190 Q 206 160 203 146" fill="#000080" clip-path="url(#clip-mask-14)" /><path d="M 122 135 Q 125 137 128 140 Q 129 143 128 145 Q 128 146 127 147 Q 127 151 126 157 L 118 156 Q 118 140 116 137" fill="#000080" clip-path="url(#clip-mask-15)" /><path d="M 126 157 Q 131 160 131 161 Q 131 163 129 163 Q 126 164 125 164 Q 125 164 125 164 Q 119 163 105 167 Q 103 168 101 168 L 101 162 Q 108 159 116 157 Q 117 156 118 156" fill="#000080" clip-path="url(#clip-mask-16)" /><path d="M 175 126 Q 177 128 179 129 Q 180 131 179 143 L 175 158 Q 174 159 171 158 Q 169 157 167 155 Q 165 152 168 149 Q 174 141 168 127" fill="#000080" clip-path="url(#clip-mask-17)" /><path d="M 179 143 Q 179 147 182 146 Q 191 143 202 142 L 203 146 Q 201 148 198 149 Q 197 148 193 150 Q 179 153 175 158" fill="#000080" clip-path="url(#clip-mask-18)" /><path d="M 144 181 Q 133 184 122 186 Q 112 188 108 185 Q 104 181 108 181 Q 124 177 144 173 L 155 171 Q 186 163 192 164 Q 197 165 200 168 Q 201 171 196 172 Q 177 175 155 179" fill="#000080" clip-path="url(#clip-mask-19)" /><path d="M 98 202 Q 105 200 110 198 Q 114 196 120 199 Q 126 200 127 202 Q 129 203 126 207 L 112 209 Q 111 205 107 207 Q 107 207 107 207 Q 100 209 97 207 Q 97 207 96 207" fill="#000080" clip-path="url(#clip-mask-20)" /><path d="M 126 207 Q 124 210 123 226 Q 123 237 123 240 Q 121 243 119 244 Q 118 244 113 236 Q 111 232 111 227 Q 113 216 112 209" fill="#000080" clip-path="url(#clip-mask-21)" /><path d="M 205 196 Q 193 197 187 198 L 183 192 Q 189 190 195 188 Q 203 186 206 190" fill="#000080" clip-path="url(#clip-mask-22)" /><path d="M 187 198 Q 183 197 183 221 Q 182 236 180 238 Q 179 240 177 238 Q 174 236 172 232 Q 170 227 171 223 Q 176 200 171 190 Q 170 187 171 186 Q 172 185 173 186 Q 178 187 183 192" fill="#000080" clip-path="url(#clip-mask-23)" /></svg>