<svg xmlns="http://www.w3.org/2000/svg" xmlns:xlink="http://www.w3.org/1999/xlink" width="270" height="270"><defs><clipPath id="clip-mask-1"><rect x="50" y="55" width="85" height="24"><animate attributeName="x" from="-35" to="50" dur="0.315" begin="0; animate16.end + 1" id="animate1" fill="freeze"/></rect></clipPath><clipPath id="clip-mask-2"><rect x="49" y="81" width="81" height="25"><set attributeName="x" to="-32" begin="0; animate16.end + 1" /><animate attributeName="x" from="-32" to="49" dur="0.300" begin="animate1.end + 0.5" id="animate2" fill="freeze"/></rect></clipPath><clipPath id="clip-mask-3"><rect x="85" y="25" width="25" height="90"><set attributeName="y" to="-65" begin="0; animate16.end + 1" /><animate attributeName="y" from="-65" to="25" dur="0.333" begin="animate2.end + 0.5" id="animate3" fill="freeze"/></rect></clipPath><clipPath id="clip-mask-4"><rect x="29" y="107" width="97" height="33"><set attributeName="x" to="-68" begin="0; animate16.end + 1" /><animate attributeName="x" from="-68" to="29" dur="0.359" begin="animate3.end + 0.5" id="animate4" fill="freeze"/></rect></clipPath><clipPath id="clip-mask-5"><rect x="30" y="125" width="65" height="64"><set attributeName="y" to="61" begin="0; animate16.end + 1" /><animate attributeName="y" from="61" to="125" dur="0.237" begin="animate4.end + 0.5" id="animate5" fill="freeze"/></rect></clipPath><clipPath id="clip-mask-6"><rect x="90" y="135" width="30" height="8"><set attributeName="x" to="60" begin="0; animate16.end + 1" /><animate attributeName="x" from="60" to="90" dur="0.111" begin="animate5.end + 0.5" id="animate6" fill="freeze"/></rect></clipPath><clipPath id="clip-mask-7"><rect x="97" y="143" width="28" height="47"><set attributeName="y" to="96" begin="0; animate16.end + 1" /><animate attributeName="y" from="96" to="143" dur="0.174" begin="animate6.end" id="animate7" fill="freeze"/></rect></clipPath><clipPath id="clip-mask-8"><rect x="74" y="164" width="25" height="30"><set attributeName="x" to="99" begin="0; animate16.end + 1" /><animate attributeName="x" from="99" to="74" dur="0.093" begin="animate7.end" id="animate8" fill="freeze"/></rect></clipPath><clipPath id="clip-mask-9"><rect x="132" y="21" width="44" height="93"><set attributeName="y" to="-72" begin="0; animate16.end + 1" /><animate attributeName="y" from="-72" to="21" dur="0.344" begin="animate8.end + 0.5" id="animate9" fill="freeze"/></rect></clipPath><clipPath id="clip-mask-10"><rect x="149" y="75" width="66" height="24"><set attributeName="x" to="83" begin="0; animate16.end + 1" /><animate attributeName="x" from="83" to="149" dur="0.244" begin="animate9.end + 0.5" id="animate10" fill="freeze"/></rect></clipPath><clipPath id="clip-mask-11"><rect x="121" y="95" width="72" height="89"><set attributeName="y" to="6" begin="0; animate16.end + 1" /><animate attributeName="y" from="6" to="95" dur="0.330" begin="animate10.end + 0.5" id="animate11" fill="freeze"/></rect></clipPath><clipPath id="clip-mask-12"><rect x="135" y="120" width="106" height="71"><set attributeName="x" to="29" begin="0; animate16.end + 1" /><animate attributeName="x" from="29" to="135" dur="0.393" begin="animate11.end + 0.5" id="animate12" fill="freeze"/></rect></clipPath><clipPath id="clip-mask-13"><rect x="28" y="193" width="28" height="55"><set attributeName="y" to="138" begin="0; animate16.end + 1" /><animate attributeName="y" from="138" to="193" dur="0.204" begin="animate12.end + 0.5" id="animate13" fill="freeze"/></rect></clipPath><clipPath id="clip-mask-14"><rect x="90" y="202" width="25" height="35"><set attributeName="y" to="167" begin="0; animate16.end + 1" /><animate attributeName="y" from="167" to="202" dur="0.130" begin="animate13.end + 0.5" id="animate14" fill="freeze"/></rect></clipPath><clipPath id="clip-mask-15"><rect x="136" y="201" width="28" height="32"><set attributeName="y" to="169" begin="0; animate16.end + 1" /><animate attributeName="y" from="169" to="201" dur="0.119" begin="animate14.end + 0.5" id="animate15" fill="freeze"/></rect></clipPath><clipPath id="clip-mask-16"><rect x="182" y="193" width="48" height="53"><set attributeName="x" to="134" begin="0; animate16.end + 1" /><animate attributeName="x" from="134" to="182" dur="0.178" begin="animate15.end + 0.5" id="animate16" fill="freeze"/></rect></clipPath></defs><path d="M 0 0 L 270 270 M 270 0 L 0 270 M 135 0 L 135 270 M 0 135 L 270 135" stroke="#CCCCCC" /><path d="M 92 74 Q 84 75 76 76 Q 65 79 56 74 Q 50 70 58 69 Q 68 68 92 64 L 104 60 Q 120 55 126 56 Q 132 57 134 60 Q 135 61 133 63 Q 131 64 104 71" fill="#CCCCCC"/><path d="M 91 99 Q 77 101 67 104 Q 61 106 54 101 Q 49 98 55 97 Q 90 89 92 89 L 102 86 Q 118 81 125 85 Q 130 87 129 89 Q 128 90 128 91 Q 113 96 102 96" fill="#CCCCCC"/><path d="M 91 115 Q 91 106 91 99 L 92 89 Q 92 81 92 74 L 92 64 Q 92 53 92 44 Q 92 39 87 32 Q 85 29 87 27 Q 89 25 92 26 Q 97 27 105 31 Q 110 34 109 37 Q 106 46 104 60 L 104 71 Q 103 79 102 86 L 102 96 Q 100 104 100 112" fill="#CCCCCC"/><path d="M 77 128 Q 67 131 54 136 Q 41 140 32 135 Q 29 132 29 130 Q 30 128 32 128 Q 51 125 91 115 L 100 112 Q 113 107 121 111 Q 126 113 125 115 Q 125 117 122 118 Q 102 121 87 125" fill="#CCCCCC"/><path d="M 84 147 L 78 155 Q 66 172 45 184 Q 38 188 34 188 Q 30 189 32 185 Q 44 175 46 175 Q 75 152 77 128 L 87 125 Q 90 127 94 131 Q 95 133 95 135 L 90 140" fill="#CCCCCC"/><path d="M 95 135 Q 97 135 100 136 Q 113 136 120 143 L 97 143 Q 92 142 91 142 Q 90 141 90 140" fill="#CCCCCC"/><path d="M 120 143 Q 125 149 124 151 Q 124 153 122 154 Q 117 157 116 165 Q 110 182 99 190 L 99 166 Q 107 152 105 147 Q 103 144 97 143" fill="#CCCCCC"/><path d="M 99 190 Q 91 194 88 192 Q 86 190 85 187 Q 84 177 78 170 Q 74 167 76 165 Q 77 164 85 169 Q 92 172 94 171 Q 96 171 99 166" fill="#CCCCCC"/><path d="M 149 94 Q 139 110 135 113 Q 132 114 132 111 Q 132 110 134 107 Q 143 88 149 72 Q 161 37 154 28 Q 151 24 155 22 Q 159 21 166 24 Q 173 27 175 30 Q 176 33 175 36 Q 172 41 169 50 Q 162 70 155 84 Q 153 87 152 90" fill="#CCCCCC"/><path d="M 170 98 Q 154 99 149 94 L 152 90 Q 152 89 153 89 Q 164 87 172 84 Q 180 82 187 79 Q 195 75 203 75 Q 211 76 214 79 Q 215 81 213 84 Q 211 85 180 95" fill="#CCCCCC"/><path d="M 168 158 L 168 158 Q 162 166 153 172 Q 136 184 124 183 Q 121 182 124 180 Q 147 168 160 148 L 165 139 Q 170 126 171 116 Q 172 104 170 98 L 180 95 Q 183 96 189 102 Q 193 104 190 108 Q 187 113 185 119 Q 177 142 174 148 L 168 158" fill="#CCCCCC"/><path d="M 160 148 Q 146 130 141 127 Q 139 126 137 125 Q 135 123 136 122 Q 138 120 141 121 Q 148 121 152 126 Q 159 133 165 139 L 174 148 Q 193 164 209 169 Q 235 178 238 180 Q 241 182 239 183 Q 237 185 234 185 Q 224 187 212 189 Q 203 191 196 186 Q 179 170 168 158" fill="#CCCCCC"/><path d="M 48 194 L 51 193 Q 52 193 54 196 Q 56 203 55 211 Q 55 233 42 244 Q 36 248 34 243 Q 28 233 34 224 Q 42 211 47 196" fill="#CCCCCC"/><path d="M 90 209 L 90 206 Q 91 202 92 202 Q 94 202 97 204 Q 115 216 115 223 Q 115 231 112 234 Q 110 237 107 236 Q 103 235 102 230 Q 98 223 94 216" fill="#CCCCCC"/><path d="M 136 208 L 136 205 Q 136 202 137 201 Q 140 201 143 202 Q 162 212 163 219 Q 164 227 162 230 Q 160 233 157 233 Q 153 232 151 228 Q 146 221 142 214" fill="#CCCCCC"/><path d="M 182 200 L 182 196 Q 183 193 186 195 Q 193 198 206 204 Q 217 211 222 215 Q 227 220 228 227 Q 230 240 226 243 Q 224 246 222 245 Q 217 244 213 238 Q 198 217 185 204" fill="#CCCCCC"/><path d="M 92 74 Q 84 75 76 76 Q 65 79 56 74 Q 50 70 58 69 Q 68 68 92 64 L 104 60 Q 120 55 126 56 Q 132 57 134 60 Q 135 61 133 63 Q 131 64 104 71" fill="#000080" clip-path="url(#clip-mask-1)" /><path d="M 91 99 Q 77 101 67 104 Q 61 106 54 101 Q 49 98 55 97 Q 90 89 92 89 L 102 86 Q 118 81 125 85 Q 130 87 129 89 Q 128 90 128 91 Q 113 96 102 96" fill="#000080" clip-path="url(#clip-mask-2)" /><path d="M 91 115 Q 91 106 91 99 L 92 89 Q 92 81 92 74 L 92 64 Q 92 53 92 44 Q 92 39 87 32 Q 85 29 87 27 Q 89 25 92 26 Q 97 27 105 31 Q 110 34 109 37 Q 106 46 104 60 L 104 71 Q 103 79 102 86 L 102 96 Q 100 104 100 112" fill="#000080" clip-path="url(#clip-mask-3)" /><path d="M 77 128 Q 67 131 54 136 Q 41 140 32 135 Q 29 132 29 130 Q 30 128 32 128 Q 51 125 91 115 L 100 112 Q 113 107 121 111 Q 126 113 125 115 Q 125 117 122 118 Q 102 121 87 125" fill="#000080" clip-path="url(#clip-mask-4)" /><path d="M 84 147 L 78 155 Q 66 172 45 184 Q 38 188 34 188 Q 30 189 32 185 Q 44 175 46 175 Q 75 152 77 128 L 87 125 Q 90 127 94 131 Q 95 133 95 135 L 90 140" fill="#000080" clip-path="url(#clip-mask-5)" /><path d="M 95 135 Q 97 135 100 136 Q 113 136 120 143 L 97 143 Q 92 142 91 142 Q 90 141 90 140" fill="#000080" clip-path="url(#clip-mask-6)" /><path d="M 120 143 Q 125 149 124 151 Q 124 153 122 154 Q 117 157 116 165 Q 110 182 99 190 L 99 166 Q 107 152 105 147 Q 103 144 97 143" fill="#000080" clip-path="url(#clip-mask-7)" /><path d="M 99 190 Q 91 194 88 192 Q 86 190 85 187 Q 84 177 78 170 Q 74 167 76 165 Q 77 164 85 169 Q 92 172 94 171 Q 96 171 99 166" fill="#000080" clip-path="url(#clip-mask-8)" /><path d="M 149 94 Q 139 110 135 113 Q 132 114 132 111 Q 132 110 134 107 Q 143 88 149 72 Q 161 37 154 28 Q 151 24 155 22 Q 159 21 166 24 Q 173 27 175 30 Q 176 33 175 36 Q 172 41 169 50 Q 162 70 155 84 Q 153 87 152 90" fill="#000080" clip-path="url(#clip-mask-9)" /><path d="M 170 98 Q 154 99 149 94 L 152 90 Q 152 89 153 89 Q 164 87 172 84 Q 180 82 187 79 Q 195 75 203 75 Q 211 76 214 79 Q 215 81 213 84 Q 211 85 180 95" fill="#000080" clip-path="url(#clip-mask-10)" /><path d="M 168 158 L 168 158 Q 162 166 153 172 Q 136 184 124 183 Q 121 182 124 180 Q 147 168 160 148 L 165 139 Q 170 126 171 116 Q 172 104 170 98 L 180 95 Q 183 96 189 102 Q 193 104 190 108 Q 187 113 185 119 Q 177 142 174 148 L 168 158" fill="#000080" clip-path="url(#clip-mask-11)" /><path d="M 160 148 Q 146 130 141 127 Q 139 126 137 125 Q 135 123 136 122 Q 138 120 141 121 Q 148 121 152 126 Q 159 133 165 139 L 174 148 Q 193 164 209 169 Q 235 178 238 180 Q 241 182 239 183 Q 237 185 234 185 Q 224 187 212 189 Q 203 191 196 186 Q 179 170 168 158" fill="#000080" clip-path="url(#clip-mask-12)" /><path d="M 48 194 L 51 193 Q 52 193 54 196 Q 56 203 55 211 Q 55 233 42 244 Q 36 248 34 243 Q 28 233 34 224 Q 42 211 47 196" fill="#0000ff" clip-path="url(#clip-mask-13)" /><path d="M 90 209 L 90 206 Q 91 202 92 202 Q 94 202 97 204 Q 115 216 115 223 Q 115 231 112 234 Q 110 237 107 236 Q 103 235 102 230 Q 98 223 94 216" fill="#0000ff" clip-path="url(#clip-mask-14)" /><path d="M 136 208 L 136 205 Q 136 202 137 201 Q 140 201 143 202 Q 162 212 163 219 Q 164 227 162 230 Q 160 233 157 233 Q 153 232 151 228 Q 146 221 142 214" fill="#0000ff" clip-path="url(#clip-mask-15)" /><path d="M 182 200 L 182 196 Q 183 193 186 195 Q 193 198 206 204 Q 217 211 222 215 Q 227 220 228 227 Q 230 240 226 243 Q 224 246 222 245 Q 217 244 213 238 Q 198 217 185 204" fill="#0000ff" clip-path="url(#clip-mask-16)" /></svg>