<svg xmlns="http://www.w3.org/2000/svg" xmlns:xlink="http://www.w3.org/1999/xlink" width="270" height="270"><defs><clipPath id="clip-mask-1"><rect x="27" y="100" width="21" height="51"><animate attributeName="y" from="49" to="100" dur="0.189" begin="0; animate18.end + 1" id="animate1" fill="freeze"/></rect></clipPath><clipPath id="clip-mask-2"><rect x="71" y="80" width="32" height="35"><set attributeName="y" to="45" begin="0; animate18.end + 1" /><animate attributeName="y" from="45" to="80" dur="0.130" begin="animate1.end + 0.5" id="animate2" fill="freeze"/></rect></clipPath><clipPath id="clip-mask-3"><rect x="11" y="40" width="68" height="197"><set attributeName="y" to="-157" begin="0; animate18.end + 1" /><animate attributeName="y" from="-157" to="40" dur="0.730" begin="animate2.end + 0.5" id="animate3" fill="freeze"/></rect></clipPath><clipPath id="clip-mask-4"><rect x="66" y="167" width="29" height="27"><set attributeName="x" to="37" begin="0; animate18.end + 1" /><animate attributeName="x" from="37" to="66" dur="0.107" begin="animate3.end + 0.5" id="animate4" fill="freeze"/></rect></clipPath><clipPath id="clip-mask-5"><rect x="106" y="43" width="53" height="20"><set attributeName="x" to="53" begin="0; animate18.end + 1" /><animate attributeName="x" from="53" to="106" dur="0.196" begin="animate4.end + 0.5" id="animate5" fill="freeze"/></rect></clipPath><clipPath id="clip-mask-6"><rect x="81" y="55" width="76" height="92"><set attributeName="y" to="-37" begin="0; animate18.end + 1" /><animate attributeName="y" from="-37" to="55" dur="0.341" begin="animate5.end" id="animate6" fill="freeze"/></rect></clipPath><clipPath id="clip-mask-7"><rect x="107" y="75" width="21" height="23"><set attributeName="x" to="86" begin="0; animate18.end + 1" /><animate attributeName="x" from="86" to="107" dur="0.078" begin="animate6.end + 0.5" id="animate7" fill="freeze"/></rect></clipPath><clipPath id="clip-mask-8"><rect x="164" y="25" width="37" height="40"><set attributeName="y" to="-15" begin="0; animate18.end + 1" /><animate attributeName="y" from="-15" to="25" dur="0.148" begin="animate7.end + 0.5" id="animate8" fill="freeze"/></rect></clipPath><clipPath id="clip-mask-9"><rect x="180" y="42" width="45" height="38"><set attributeName="y" to="4" begin="0; animate18.end + 1" /><animate attributeName="y" from="4" to="42" dur="0.141" begin="animate8.end + 0.5" id="animate9" fill="freeze"/></rect></clipPath><clipPath id="clip-mask-10"><rect x="152" y="57" width="106" height="75"><set attributeName="x" to="46" begin="0; animate18.end + 1" /><animate attributeName="x" from="46" to="152" dur="0.393" begin="animate9.end + 0.5" id="animate10" fill="freeze"/></rect></clipPath><clipPath id="clip-mask-11"><rect x="121" y="115" width="65" height="20"><set attributeName="x" to="56" begin="0; animate18.end + 1" /><animate attributeName="x" from="56" to="121" dur="0.241" begin="animate10.end + 0.5" id="animate11" fill="freeze"/></rect></clipPath><clipPath id="clip-mask-12"><rect x="113" y="149" width="23" height="45"><set attributeName="y" to="104" begin="0; animate18.end + 1" /><animate attributeName="y" from="104" to="149" dur="0.167" begin="animate11.end + 0.5" id="animate12" fill="freeze"/></rect></clipPath><clipPath id="clip-mask-13"><rect x="127" y="139" width="71" height="20"><set attributeName="x" to="56" begin="0; animate18.end + 1" /><animate attributeName="x" from="56" to="127" dur="0.263" begin="animate12.end + 0.5" id="animate13" fill="freeze"/></rect></clipPath><clipPath id="clip-mask-14"><rect x="174" y="150" width="28" height="24"><set attributeName="y" to="126" begin="0; animate18.end + 1" /><animate attributeName="y" from="126" to="150" dur="0.089" begin="animate13.end" id="animate14" fill="freeze"/></rect></clipPath><clipPath id="clip-mask-15"><rect x="135" y="173" width="57" height="14"><set attributeName="x" to="78" begin="0; animate18.end + 1" /><animate attributeName="x" from="78" to="135" dur="0.211" begin="animate14.end + 0.5" id="animate15" fill="freeze"/></rect></clipPath><clipPath id="clip-mask-16"><rect x="122" y="197" width="24" height="26"><set attributeName="x" to="98" begin="0; animate18.end + 1" /><animate attributeName="x" from="98" to="122" dur="0.089" begin="animate15.end + 0.5" id="animate16" fill="freeze"/></rect></clipPath><clipPath id="clip-mask-17"><rect x="163" y="183" width="33" height="42"><set attributeName="y" to="141" begin="0; animate18.end + 1" /><animate attributeName="y" from="141" to="183" dur="0.156" begin="animate16.end + 0.5" id="animate17" fill="freeze"/></rect></clipPath><clipPath id="clip-mask-18"><rect x="84" y="215" width="155" height="29"><set attributeName="x" to="-71" begin="0; animate18.end + 1" /><animate attributeName="x" from="-71" to="84" dur="0.574" begin="animate17.end + 0.5" id="animate18" fill="freeze"/></rect></clipPath></defs><path d="M 0 0 L 270 270 M 270 0 L 0 270 M 135 0 L 135 270 M 0 135 L 270 135" stroke="#CCCCCC" /><path d="M 34 101 L 35 100 Q 37 100 38 102 Q 42 107 43 114 Q 48 133 39 147 Q 36 151 33 147 Q 27 141 29 133 Q 32 119 33 103" fill="#CCCCCC"/><path d="M 71 107 Q 85 90 84 84 Q 83 81 86 81 Q 88 80 93 82 Q 98 85 101 88 Q 103 92 99 94 Q 95 95 82 106 Q 78 110 71 115" fill="#CCCCCC"/><path d="M 58 218 L 26 232 Q 18 237 15 236 Q 12 236 11 235 Q 11 234 14 232 Q 33 216 42 200 Q 43 199 44 198 Q 44 197 54 167 Q 68 72 51 47 Q 49 44 52 42 Q 54 40 60 42 Q 70 45 76 49 Q 79 52 77 55 Q 71 70 71 107 L 71 115 Q 68 153 66 168 L 66 171" fill="#CCCCCC"/><path d="M 66 168 Q 66 167 66 167 Q 68 167 71 168 Q 92 175 94 183 Q 95 189 94 192 Q 93 194 90 194 Q 87 194 85 191 Q 78 184 71 178 Q 67 173 66 171" fill="#CCCCCC"/><path d="M 137 56 Q 136 54 119 60 Q 112 63 109 60 Q 106 58 110 57 Q 128 52 136 47 Q 140 43 143 44 Q 156 48 157 50 Q 159 53 157 55" fill="#CCCCCC"/><path d="M 152 62 Q 150 65 148 71 Q 139 95 124 114 Q 102 145 85 146 Q 81 147 86 143 Q 107 123 119 103 Q 121 100 122 98 L 128 88 Q 140 63 137 56 L 157 55 Q 156 56 155 57" fill="#CCCCCC"/><path d="M 122 98 Q 120 97 118 94 Q 107 81 108 78 Q 109 75 110 76 Q 125 81 128 88" fill="#CCCCCC"/><path d="M 164 62 Q 181 36 179 30 Q 178 27 181 26 Q 183 25 189 28 Q 195 30 198 33 Q 201 37 197 40 Q 188 45 168 65" fill="#CCCCCC"/><path d="M 204 54 L 204 46 Q 203 43 207 43 Q 209 42 215 46 Q 221 50 223 54 Q 225 59 221 61 Q 215 63 210 66 Q 187 78 183 80 L 180 78" fill="#CCCCCC"/><path d="M 183 80 Q 188 85 193 89 Q 217 108 255 122 Q 258 122 257 124 Q 255 126 252 127 Q 230 132 220 132 Q 210 129 165 73 Q 160 66 152 62 L 155 57 Q 156 57 157 57 Q 160 57 164 62 L 168 65 Q 175 72 180 78" fill="#CCCCCC"/><path d="M 139 124 L 147 122 Q 155 120 162 118 Q 168 115 176 116 Q 183 117 184 120 Q 186 122 184 124 Q 182 125 177 126 Q 168 128 161 130 Q 136 135 127 130 Q 121 127 129 125" fill="#CCCCCC"/><path d="M 136 187 Q 136 189 135 191 Q 134 194 130 190 Q 127 187 126 182 Q 121 165 115 155 Q 113 152 114 150 Q 115 149 118 150 Q 125 150 127 152 L 131 159 Q 132 164 135 180" fill="#CCCCCC"/><path d="M 176 153 Q 174 151 170 152 L 131 159 L 127 152 Q 156 148 174 141 Q 179 139 183 141 Q 195 147 198 150" fill="#CCCCCC"/><path d="M 174 173 Q 176 166 177 158 Q 178 155 176 153 L 198 150 Q 202 155 198 159 Q 192 162 187 174" fill="#CCCCCC"/><path d="M 176 183 Q 151 184 138 187 Q 137 187 136 187 L 135 180 Q 153 177 174 173 L 187 174 Q 192 178 192 180 Q 191 182 189 182 Q 186 182 184 183" fill="#CCCCCC"/><path d="M 122 203 L 122 201 Q 122 198 123 198 Q 126 197 140 204 Q 145 208 145 212 Q 146 218 144 221 Q 143 223 141 223 Q 138 222 127 208" fill="#CCCCCC"/><path d="M 164 222 L 166 218 Q 178 193 176 186 Q 176 184 176 183 L 184 183 Q 191 186 194 194 Q 196 197 192 199 Q 188 204 172 224 L 163 225" fill="#CCCCCC"/><path d="M 172 224 Q 193 221 208 219 Q 219 215 235 227 Q 239 230 237 233 Q 236 235 231 235 Q 160 230 105 243 Q 101 244 96 242 Q 91 240 88 237 Q 84 232 89 232 Q 126 229 157 226 Q 160 225 163 225" fill="#CCCCCC"/><path d="M 34 101 L 35 100 Q 37 100 38 102 Q 42 107 43 114 Q 48 133 39 147 Q 36 151 33 147 Q 27 141 29 133 Q 32 119 33 103" fill="#0000ff" clip-path="url(#clip-mask-1)" /><path d="M 71 107 Q 85 90 84 84 Q 83 81 86 81 Q 88 80 93 82 Q 98 85 101 88 Q 103 92 99 94 Q 95 95 82 106 Q 78 110 71 115" fill="#0000ff" clip-path="url(#clip-mask-2)" /><path d="M 58 218 L 26 232 Q 18 237 15 236 Q 12 236 11 235 Q 11 234 14 232 Q 33 216 42 200 Q 43 199 44 198 Q 44 197 54 167 Q 68 72 51 47 Q 49 44 52 42 Q 54 40 60 42 Q 70 45 76 49 Q 79 52 77 55 Q 71 70 71 107 L 71 115 Q 68 153 66 168 L 66 171" fill="#0000ff" clip-path="url(#clip-mask-3)" /><path d="M 66 168 Q 66 167 66 167 Q 68 167 71 168 Q 92 175 94 183 Q 95 189 94 192 Q 93 194 90 194 Q 87 194 85 191 Q 78 184 71 178 Q 67 173 66 171" fill="#0000ff" clip-path="url(#clip-mask-4)" /><path d="M 137 56 Q 136 54 119 60 Q 112 63 109 60 Q 106 58 110 57 Q 128 52 136 47 Q 140 43 143 44 Q 156 48 157 50 Q 159 53 157 55" fill="#000080" clip-path="url(#clip-mask-5)" /><path d="M 152 62 Q 150 65 148 71 Q 139 95 124 114 Q 102 145 85 146 Q 81 147 86 143 Q 107 123 119 103 Q 121 100 122 98 L 128 88 Q 140 63 137 56 L 157 55 Q 156 56 155 57" fill="#000080" clip-path="url(#clip-mask-6)" /><path d="M 122 98 Q 120 97 118 94 Q 107 81 108 78 Q 109 75 110 76 Q 125 81 128 88" fill="#000080" clip-path="url(#clip-mask-7)" /><path d="M 164 62 Q 181 36 179 30 Q 178 27 181 26 Q 183 25 189 28 Q 195 30 198 33 Q 201 37 197 40 Q 188 45 168 65" fill="#000080" clip-path="url(#clip-mask-8)" /><path d="M 204 54 L 204 46 Q 203 43 207 43 Q 209 42 215 46 Q 221 50 223 54 Q 225 59 221 61 Q 215 63 210 66 Q 187 78 183 80 L 180 78" fill="#000080" clip-path="url(#clip-mask-9)" /><path d="M 183 80 Q 188 85 193 89 Q 217 108 255 122 Q 258 122 257 124 Q 255 126 252 127 Q 230 132 220 132 Q 210 129 165 73 Q 160 66 152 62 L 155 57 Q 156 57 157 57 Q 160 57 164 62 L 168 65 Q 175 72 180 78" fill="#000080" clip-path="url(#clip-mask-10)" /><path d="M 139 124 L 147 122 Q 155 120 162 118 Q 168 115 176 116 Q 183 117 184 120 Q 186 122 184 124 Q 182 125 177 126 Q 168 128 161 130 Q 136 135 127 130 Q 121 127 129 125" fill="#000080" clip-path="url(#clip-mask-11)" /><path d="M 136 187 Q 136 189 135 191 Q 134 194 130 190 Q 127 187 126 182 Q 121 165 115 155 Q 113 152 114 150 Q 115 149 118 150 Q 125 150 127 152 L 131 159 Q 132 164 135 180" fill="#000080" clip-path="url(#clip-mask-12)" /><path d="M 176 153 Q 174 151 170 152 L 131 159 L 127 152 Q 156 148 174 141 Q 179 139 183 141 Q 195 147 198 150" fill="#000080" clip-path="url(#clip-mask-13)" /><path d="M 174 173 Q 176 166 177 158 Q 178 155 176 153 L 198 150 Q 202 155 198 159 Q 192 162 187 174" fill="#000080" clip-path="url(#clip-mask-14)" /><path d="M 176 183 Q 151 184 138 187 Q 137 187 136 187 L 135 180 Q 153 177 174 173 L 187 174 Q 192 178 192 180 Q 191 182 189 182 Q 186 182 184 183" fill="#000080" clip-path="url(#clip-mask-15)" /><path d="M 122 203 L 122 201 Q 122 198 123 198 Q 126 197 140 204 Q 145 208 145 212 Q 146 218 144 221 Q 143 223 141 223 Q 138 222 127 208" fill="#000080" clip-path="url(#clip-mask-16)" /><path d="M 164 222 L 166 218 Q 178 193 176 186 Q 176 184 176 183 L 184 183 Q 191 186 194 194 Q 196 197 192 199 Q 188 204 172 224 L 163 225" fill="#000080" clip-path="url(#clip-mask-17)" /><path d="M 172 224 Q 193 221 208 219 Q 219 215 235 227 Q 239 230 237 233 Q 236 235 231 235 Q 160 230 105 243 Q 101 244 96 242 Q 91 240 88 237 Q 84 232 89 232 Q 126 229 157 226 Q 160 225 163 225" fill="#000080" clip-path="url(#clip-mask-18)" /></svg>