<svg xmlns="http://www.w3.org/2000/svg" xmlns:xlink="http://www.w3.org/1999/xlink" width="270" height="270"><defs><clipPath id="clip-mask-1"><rect x="31" y="83" width="21" height="52"><animate attributeName="y" from="31" to="83" dur="0.193" begin="0; animate25.end + 1" id="animate1" fill="freeze"/></rect></clipPath><clipPath id="clip-mask-2"><rect x="76" y="70" width="29" height="30"><set attributeName="y" to="40" begin="0; animate25.end + 1" /><animate attributeName="y" from="40" to="70" dur="0.111" begin="animate1.end + 0.5" id="animate2" fill="freeze"/></rect></clipPath><clipPath id="clip-mask-3"><rect x="25" y="23" width="60" height="200"><set attributeName="y" to="-177" begin="0; animate25.end + 1" /><animate attributeName="y" from="-177" to="23" dur="0.741" begin="animate2.end + 0.5" id="animate3" fill="freeze"/></rect></clipPath><clipPath id="clip-mask-4"><rect x="73" y="146" width="24" height="25"><set attributeName="x" to="49" begin="0; animate25.end + 1" /><animate attributeName="x" from="49" to="73" dur="0.089" begin="animate3.end + 0.5" id="animate4" fill="freeze"/></rect></clipPath><clipPath id="clip-mask-5"><rect x="98" y="47" width="22" height="179"><set attributeName="y" to="-132" begin="0; animate25.end + 1" /><animate attributeName="y" from="-132" to="47" dur="0.663" begin="animate4.end + 0.5" id="animate5" fill="freeze"/></rect></clipPath><clipPath id="clip-mask-6"><rect x="115" y="43" width="44" height="16"><set attributeName="x" to="71" begin="0; animate25.end + 1" /><animate attributeName="x" from="71" to="115" dur="0.163" begin="animate5.end + 0.5" id="animate6" fill="freeze"/></rect></clipPath><clipPath id="clip-mask-7"><rect x="139" y="50" width="23" height="62"><set attributeName="y" to="-12" begin="0; animate25.end + 1" /><animate attributeName="y" from="-12" to="50" dur="0.230" begin="animate6.end" id="animate7" fill="freeze"/></rect></clipPath><clipPath id="clip-mask-8"><rect x="118" y="75" width="22" height="10"><set attributeName="x" to="96" begin="0; animate25.end + 1" /><animate attributeName="x" from="96" to="118" dur="0.081" begin="animate7.end + 0.5" id="animate8" fill="freeze"/></rect></clipPath><clipPath id="clip-mask-9"><rect x="117" y="96" width="24" height="13"><set attributeName="x" to="93" begin="0; animate25.end + 1" /><animate attributeName="x" from="93" to="117" dur="0.089" begin="animate8.end + 0.5" id="animate9" fill="freeze"/></rect></clipPath><clipPath id="clip-mask-10"><rect x="174" y="36" width="19" height="65"><set attributeName="y" to="-29" begin="0; animate25.end + 1" /><animate attributeName="y" from="-29" to="36" dur="0.241" begin="animate9.end + 0.5" id="animate10" fill="freeze"/></rect></clipPath><clipPath id="clip-mask-11"><rect x="187" y="28" width="54" height="21"><set attributeName="x" to="133" begin="0; animate25.end + 1" /><animate attributeName="x" from="133" to="187" dur="0.200" begin="animate10.end + 0.5" id="animate11" fill="freeze"/></rect></clipPath><clipPath id="clip-mask-12"><rect x="221" y="39" width="23" height="207"><set attributeName="y" to="-168" begin="0; animate25.end + 1" /><animate attributeName="y" from="-168" to="39" dur="0.767" begin="animate11.end" id="animate12" fill="freeze"/></rect></clipPath><clipPath id="clip-mask-13"><rect x="197" y="217" width="26" height="22"><set attributeName="x" to="223" begin="0; animate25.end + 1" /><animate attributeName="x" from="223" to="197" dur="0.096" begin="animate12.end" id="animate13" fill="freeze"/></rect></clipPath><clipPath id="clip-mask-14"><rect x="191" y="60" width="32" height="12"><set attributeName="x" to="159" begin="0; animate25.end + 1" /><animate attributeName="x" from="159" to="191" dur="0.119" begin="animate13.end + 0.5" id="animate14" fill="freeze"/></rect></clipPath><clipPath id="clip-mask-15"><rect x="192" y="82" width="33" height="14"><set attributeName="x" to="159" begin="0; animate25.end + 1" /><animate attributeName="x" from="159" to="192" dur="0.122" begin="animate14.end + 0.5" id="animate15" fill="freeze"/></rect></clipPath><clipPath id="clip-mask-16"><rect x="136" y="107" width="60" height="16"><set attributeName="x" to="76" begin="0; animate25.end + 1" /><animate attributeName="x" from="76" to="136" dur="0.222" begin="animate15.end + 0.5" id="animate16" fill="freeze"/></rect></clipPath><clipPath id="clip-mask-17"><rect x="125" y="133" width="20" height="45"><set attributeName="y" to="88" begin="0; animate25.end + 1" /><animate attributeName="y" from="88" to="133" dur="0.167" begin="animate16.end + 0.5" id="animate17" fill="freeze"/></rect></clipPath><clipPath id="clip-mask-18"><rect x="138" y="124" width="80" height="19"><set attributeName="x" to="58" begin="0; animate25.end + 1" /><animate attributeName="x" from="58" to="138" dur="0.296" begin="animate17.end + 0.5" id="animate18" fill="freeze"/></rect></clipPath><clipPath id="clip-mask-19"><rect x="191" y="135" width="30" height="37"><set attributeName="y" to="98" begin="0; animate25.end + 1" /><animate attributeName="y" from="98" to="135" dur="0.137" begin="animate18.end" id="animate19" fill="freeze"/></rect></clipPath><clipPath id="clip-mask-20"><rect x="146" y="146" width="14" height="14"><set attributeName="x" to="132" begin="0; animate25.end + 1" /><animate attributeName="x" from="132" to="146" dur="0.052" begin="animate19.end + 0.5" id="animate20" fill="freeze"/></rect></clipPath><clipPath id="clip-mask-21"><rect x="176" y="138" width="18" height="20"><set attributeName="y" to="118" begin="0; animate25.end + 1" /><animate attributeName="y" from="118" to="138" dur="0.074" begin="animate20.end + 0.5" id="animate21" fill="freeze"/></rect></clipPath><clipPath id="clip-mask-22"><rect x="145" y="158" width="48" height="15"><set attributeName="x" to="97" begin="0; animate25.end + 1" /><animate attributeName="x" from="97" to="145" dur="0.178" begin="animate21.end + 0.5" id="animate22" fill="freeze"/></rect></clipPath><clipPath id="clip-mask-23"><rect x="158" y="100" width="16" height="132"><set attributeName="y" to="-32" begin="0; animate25.end + 1" /><animate attributeName="y" from="-32" to="100" dur="0.489" begin="animate22.end + 0.5" id="animate23" fill="freeze"/></rect></clipPath><clipPath id="clip-mask-24"><rect x="125" y="164" width="38" height="49"><set attributeName="x" to="163" begin="0; animate25.end + 1" /><animate attributeName="x" from="163" to="125" dur="0.141" begin="animate23.end + 0.5" id="animate24" fill="freeze"/></rect></clipPath><clipPath id="clip-mask-25"><rect x="178" y="178" width="32" height="25"><set attributeName="x" to="146" begin="0; animate25.end + 1" /><animate attributeName="x" from="146" to="178" dur="0.119" begin="animate24.end + 0.5" id="animate25" fill="freeze"/></rect></clipPath></defs><path d="M 0 0 L 270 270 M 270 0 L 0 270 M 135 0 L 135 270 M 0 135 L 270 135" stroke="#CCCCCC" /><path d="M 38 84 L 40 83 Q 41 83 43 84 Q 46 89 47 96 Q 52 118 43 131 Q 39 135 36 132 Q 31 127 33 118 Q 37 102 38 86" fill="#CCCCCC"/><path d="M 76 95 Q 88 77 87 73 Q 87 71 89 71 Q 91 70 95 72 Q 100 75 103 78 Q 105 81 101 83 Q 97 85 94 88 Q 84 95 76 100" fill="#CCCCCC"/><path d="M 73 153 L 73 155 Q 65 205 39 219 Q 31 223 28 222 Q 25 223 25 222 Q 25 221 27 218 Q 28 217 29 216 Q 53 191 60 158 Q 60 154 61 152 Q 72 55 57 30 Q 55 27 57 25 Q 59 23 66 24 Q 76 27 82 32 Q 85 35 83 38 Q 76 55 76 95 L 76 100 Q 74 137 74 146 L 73 152" fill="#CCCCCC"/><path d="M 74 146 Q 75 146 77 146 Q 95 154 96 161 Q 97 166 96 169 Q 95 171 93 171 Q 90 171 89 170 Q 75 156 73 152" fill="#CCCCCC"/><path d="M 117 133 L 117 157 Q 117 213 109 222 Q 107 226 105 222 Q 102 219 99 211 Q 98 207 100 200 Q 105 186 107 173 Q 117 91 102 53 Q 100 50 101 49 Q 102 47 104 48 Q 110 49 115 54 L 120 59 Q 120 59 120 61 Q 118 66 118 79 L 118 85 Q 117 93 117 103 L 117 109" fill="#CCCCCC"/><path d="M 142 53 Q 138 51 120 58 Q 119 58 120 59 L 115 54 Q 129 50 142 44 Q 145 43 148 44 Q 155 47 159 50" fill="#CCCCCC"/><path d="M 141 98 Q 142 95 144 61 Q 144 54 142 53 L 159 50 Q 162 53 159 57 Q 154 65 153 91 Q 151 103 149 107 Q 145 112 140 106 Q 139 105 139 105" fill="#CCCCCC"/><path d="M 118 79 Q 122 76 130 75 Q 135 75 138 77 Q 140 79 135 81 Q 129 83 119 85 Q 118 85 118 85" fill="#CCCCCC"/><path d="M 117 103 Q 136 96 139 97 Q 140 97 141 98 L 139 105 Q 127 106 121 108 Q 119 109 117 109" fill="#CCCCCC"/><path d="M 191 101 L 188 100 L 188 100 Q 180 95 181 81 Q 182 52 176 41 Q 174 38 176 37 Q 177 36 178 37 Q 183 38 187 41 L 192 49 Q 191 57 191 66 L 191 72 Q 192 81 193 89 L 192 96" fill="#CCCCCC"/><path d="M 187 41 Q 200 38 209 35 Q 220 28 225 30 Q 235 34 241 39 L 221 44 Q 218 42 214 43 Q 195 49 192 49" fill="#CCCCCC"/><path d="M 225 86 Q 224 47 221 44 L 241 39 Q 244 42 241 46 Q 237 53 238 68 Q 239 160 243 216 Q 244 228 234 244 Q 232 246 229 245 Q 225 244 222 239 L 223 219 Q 229 211 225 91" fill="#CCCCCC"/><path d="M 222 239 Q 213 231 198 219 Q 197 217 202 218 Q 209 219 216 220 Q 222 221 223 219" fill="#CCCCCC"/><path d="M 191 66 Q 206 60 213 60 Q 218 61 221 64 Q 223 67 218 68 Q 192 72 191 72" fill="#CCCCCC"/><path d="M 193 89 Q 219 82 221 83 Q 224 85 225 86 L 225 91 Q 204 93 192 96" fill="#CCCCCC"/><path d="M 163 120 Q 158 121 154 122 Q 144 123 140 120 Q 136 118 141 117 Q 156 115 163 113 L 173 111 Q 173 111 173 111 Q 188 107 193 110 Q 196 111 196 113 Q 195 115 179 117 Q 175 118 172 119" fill="#CCCCCC"/><path d="M 145 173 Q 145 174 145 174 Q 144 178 140 173 Q 137 170 136 165 Q 133 148 127 138 Q 125 135 126 134 Q 127 133 129 133 Q 136 134 138 135 L 141 143 Q 141 143 141 143 Q 143 155 145 167" fill="#CCCCCC"/><path d="M 163 138 Q 149 140 141 143 L 138 135 Q 145 134 154 132 Q 159 131 163 131 L 171 129 Q 182 127 185 127 Q 202 124 205 126 Q 214 131 218 135 L 199 135 Q 194 132 171 136" fill="#CCCCCC"/><path d="M 218 135 Q 221 138 217 141 Q 209 146 206 157 Q 199 172 195 172 Q 193 172 192 169 Q 191 167 191 166 L 193 162 Q 194 158 199 140 Q 200 136 199 135" fill="#CCCCCC"/><path d="M 146 148 L 147 147 Q 147 146 148 146 Q 156 148 159 153 Q 160 156 159 158 Q 158 160 156 160 Q 153 159 147 150" fill="#CCCCCC"/><path d="M 183 143 L 183 141 Q 182 138 184 138 Q 187 138 190 140 Q 193 142 194 144 Q 194 145 192 146 Q 187 149 179 157 Q 177 158 176 158 Q 176 157 176 156 Q 181 149 183 145" fill="#CCCCCC"/><path d="M 152 172 L 148 173 Q 147 173 145 173 L 145 167 Q 154 166 163 164 L 171 162 Q 176 160 181 159 Q 188 158 193 162 L 191 166 Q 180 168 171 169 L 158 171" fill="#CCCCCC"/><path d="M 163 164 Q 163 162 163 160 Q 163 148 163 138 L 163 131 Q 163 125 163 120 L 163 113 Q 162 107 160 104 Q 159 102 160 102 Q 161 100 164 101 Q 167 103 172 106 Q 173 108 173 110 Q 173 110 173 111 L 172 119 Q 172 123 171 129 L 171 136 Q 171 140 171 145 Q 171 153 171 162 L 171 169 Q 172 192 173 217 Q 174 223 171 230 Q 170 232 168 232 Q 167 231 164 227 Q 158 218 159 210 Q 161 206 162 181" fill="#CCCCCC"/><path d="M 163 164 L 162 181 Q 154 192 146 199 Q 129 213 127 212 Q 125 211 126 210 Q 149 187 158 171" fill="#CCCCCC"/><path d="M 179 183 L 178 180 Q 178 178 180 179 Q 204 183 207 191 Q 210 198 208 201 Q 207 203 205 203 Q 203 203 200 199 Q 189 190 181 184" fill="#CCCCCC"/><path d="M 38 84 L 40 83 Q 41 83 43 84 Q 46 89 47 96 Q 52 118 43 131 Q 39 135 36 132 Q 31 127 33 118 Q 37 102 38 86" fill="#0000ff" clip-path="url(#clip-mask-1)" /><path d="M 76 95 Q 88 77 87 73 Q 87 71 89 71 Q 91 70 95 72 Q 100 75 103 78 Q 105 81 101 83 Q 97 85 94 88 Q 84 95 76 100" fill="#0000ff" clip-path="url(#clip-mask-2)" /><path d="M 73 153 L 73 155 Q 65 205 39 219 Q 31 223 28 222 Q 25 223 25 222 Q 25 221 27 218 Q 28 217 29 216 Q 53 191 60 158 Q 60 154 61 152 Q 72 55 57 30 Q 55 27 57 25 Q 59 23 66 24 Q 76 27 82 32 Q 85 35 83 38 Q 76 55 76 95 L 76 100 Q 74 137 74 146 L 73 152" fill="#0000ff" clip-path="url(#clip-mask-3)" /><path d="M 74 146 Q 75 146 77 146 Q 95 154 96 161 Q 97 166 96 169 Q 95 171 93 171 Q 90 171 89 170 Q 75 156 73 152" fill="#0000ff" clip-path="url(#clip-mask-4)" /><path d="M 117 133 L 117 157 Q 117 213 109 222 Q 107 226 105 222 Q 102 219 99 211 Q 98 207 100 200 Q 105 186 107 173 Q 117 91 102 53 Q 100 50 101 49 Q 102 47 104 48 Q 110 49 115 54 L 120 59 Q 120 59 120 61 Q 118 66 118 79 L 118 85 Q 117 93 117 103 L 117 109" fill="#000080" clip-path="url(#clip-mask-5)" /><path d="M 142 53 Q 138 51 120 58 Q 119 58 120 59 L 115 54 Q 129 50 142 44 Q 145 43 148 44 Q 155 47 159 50" fill="#000080" clip-path="url(#clip-mask-6)" /><path d="M 141 98 Q 142 95 144 61 Q 144 54 142 53 L 159 50 Q 162 53 159 57 Q 154 65 153 91 Q 151 103 149 107 Q 145 112 140 106 Q 139 105 139 105" fill="#000080" clip-path="url(#clip-mask-7)" /><path d="M 118 79 Q 122 76 130 75 Q 135 75 138 77 Q 140 79 135 81 Q 129 83 119 85 Q 118 85 118 85" fill="#000080" clip-path="url(#clip-mask-8)" /><path d="M 117 103 Q 136 96 139 97 Q 140 97 141 98 L 139 105 Q 127 106 121 108 Q 119 109 117 109" fill="#000080" clip-path="url(#clip-mask-9)" /><path d="M 191 101 L 188 100 L 188 100 Q 180 95 181 81 Q 182 52 176 41 Q 174 38 176 37 Q 177 36 178 37 Q 183 38 187 41 L 192 49 Q 191 57 191 66 L 191 72 Q 192 81 193 89 L 192 96" fill="#000080" clip-path="url(#clip-mask-10)" /><path d="M 187 41 Q 200 38 209 35 Q 220 28 225 30 Q 235 34 241 39 L 221 44 Q 218 42 214 43 Q 195 49 192 49" fill="#000080" clip-path="url(#clip-mask-11)" /><path d="M 225 86 Q 224 47 221 44 L 241 39 Q 244 42 241 46 Q 237 53 238 68 Q 239 160 243 216 Q 244 228 234 244 Q 232 246 229 245 Q 225 244 222 239 L 223 219 Q 229 211 225 91" fill="#000080" clip-path="url(#clip-mask-12)" /><path d="M 222 239 Q 213 231 198 219 Q 197 217 202 218 Q 209 219 216 220 Q 222 221 223 219" fill="#000080" clip-path="url(#clip-mask-13)" /><path d="M 191 66 Q 206 60 213 60 Q 218 61 221 64 Q 223 67 218 68 Q 192 72 191 72" fill="#000080" clip-path="url(#clip-mask-14)" /><path d="M 193 89 Q 219 82 221 83 Q 224 85 225 86 L 225 91 Q 204 93 192 96" fill="#000080" clip-path="url(#clip-mask-15)" /><path d="M 163 120 Q 158 121 154 122 Q 144 123 140 120 Q 136 118 141 117 Q 156 115 163 113 L 173 111 Q 173 111 173 111 Q 188 107 193 110 Q 196 111 196 113 Q 195 115 179 117 Q 175 118 172 119" fill="#000080" clip-path="url(#clip-mask-16)" /><path d="M 145 173 Q 145 174 145 174 Q 144 178 140 173 Q 137 170 136 165 Q 133 148 127 138 Q 125 135 126 134 Q 127 133 129 133 Q 136 134 138 135 L 141 143 Q 141 143 141 143 Q 143 155 145 167" fill="#000080" clip-path="url(#clip-mask-17)" /><path d="M 163 138 Q 149 140 141 143 L 138 135 Q 145 134 154 132 Q 159 131 163 131 L 171 129 Q 182 127 185 127 Q 202 124 205 126 Q 214 131 218 135 L 199 135 Q 194 132 171 136" fill="#000080" clip-path="url(#clip-mask-18)" /><path d="M 218 135 Q 221 138 217 141 Q 209 146 206 157 Q 199 172 195 172 Q 193 172 192 169 Q 191 167 191 166 L 193 162 Q 194 158 199 140 Q 200 136 199 135" fill="#000080" clip-path="url(#clip-mask-19)" /><path d="M 146 148 L 147 147 Q 147 146 148 146 Q 156 148 159 153 Q 160 156 159 158 Q 158 160 156 160 Q 153 159 147 150" fill="#000080" clip-path="url(#clip-mask-20)" /><path d="M 183 143 L 183 141 Q 182 138 184 138 Q 187 138 190 140 Q 193 142 194 144 Q 194 145 192 146 Q 187 149 179 157 Q 177 158 176 158 Q 176 157 176 156 Q 181 149 183 145" fill="#000080" clip-path="url(#clip-mask-21)" /><path d="M 152 172 L 148 173 Q 147 173 145 173 L 145 167 Q 154 166 163 164 L 171 162 Q 176 160 181 159 Q 188 158 193 162 L 191 166 Q 180 168 171 169 L 158 171" fill="#000080" clip-path="url(#clip-mask-22)" /><path d="M 163 164 Q 163 162 163 160 Q 163 148 163 138 L 163 131 Q 163 125 163 120 L 163 113 Q 162 107 160 104 Q 159 102 160 102 Q 161 100 164 101 Q 167 103 172 106 Q 173 108 173 110 Q 173 110 173 111 L 172 119 Q 172 123 171 129 L 171 136 Q 171 140 171 145 Q 171 153 171 162 L 171 169 Q 172 192 173 217 Q 174 223 171 230 Q 170 232 168 232 Q 167 231 164 227 Q 158 218 159 210 Q 161 206 162 181" fill="#000080" clip-path="url(#clip-mask-23)" /><path d="M 163 164 L 162 181 Q 154 192 146 199 Q 129 213 127 212 Q 125 211 126 210 Q 149 187 158 171" fill="#000080" clip-path="url(#clip-mask-24)" /><path d="M 179 183 L 178 180 Q 178 178 180 179 Q 204 183 207 191 Q 210 198 208 201 Q 207 203 205 203 Q 203 203 200 199 Q 189 190 181 184" fill="#000080" clip-path="url(#clip-mask-25)" /></svg>