<svg xmlns="http://www.w3.org/2000/svg" xmlns:xlink="http://www.w3.org/1999/xlink" width="270" height="270"><defs><clipPath id="clip-mask-1"><rect x="87" y="22" width="101" height="32"><animate attributeName="x" from="-14" to="87" dur="0.374" begin="0; animate6.end + 1" id="animate1" fill="freeze"/></rect></clipPath><clipPath id="clip-mask-2"><rect x="59" y="60" width="33" height="67"><set attributeName="y" to="-7" begin="0; animate6.end + 1" /><animate attributeName="y" from="-7" to="60" dur="0.248" begin="animate1.end + 0.5" id="animate2" fill="freeze"/></rect></clipPath><clipPath id="clip-mask-3"><rect x="72" y="75" width="164" height="48"><set attributeName="x" to="-92" begin="0; animate6.end + 1" /><animate attributeName="x" from="-92" to="72" dur="0.607" begin="animate2.end" id="animate3" fill="freeze"/></rect></clipPath><clipPath id="clip-mask-4"><rect x="139" y="43" width="23" height="204"><set attributeName="y" to="-161" begin="0; animate6.end + 1" /><animate attributeName="y" from="-161" to="43" dur="0.756" begin="animate3.end + 0.5" id="animate4" fill="freeze"/></rect></clipPath><clipPath id="clip-mask-5"><rect x="109" y="203" width="33" height="41"><set attributeName="x" to="142" begin="0; animate6.end + 1" /><animate attributeName="x" from="142" to="109" dur="0.122" begin="animate4.end" id="animate5" fill="freeze"/></rect></clipPath><clipPath id="clip-mask-6"><rect x="33" y="93" width="110" height="113"><set attributeName="x" to="143" begin="0; animate6.end + 1" /><animate attributeName="x" from="143" to="33" dur="0.407" begin="animate5.end + 0.5" id="animate6" fill="freeze"/></rect></clipPath></defs><path d="M 0 0 L 270 270 M 270 0 L 0 270 M 135 0 L 135 270 M 0 135 L 270 135" stroke="#CCCCCC" /><path d="M 139 46 Q 132 48 127 49 Q 107 54 95 48 Q 87 44 98 41 Q 116 39 139 32 Q 169 22 176 23 Q 184 25 187 28 Q 188 30 186 33 Q 184 34 153 43" fill="#CCCCCC"/><path d="M 72 123 Q 69 127 65 124 Q 60 121 59 117 Q 59 113 61 110 Q 68 103 69 98 Q 74 77 70 68 Q 67 65 70 62 Q 73 60 78 63 Q 88 67 90 70 Q 92 73 89 76 Q 85 83 81 101" fill="#CCCCCC"/><path d="M 93 111 L 72 123 L 81 101 Q 79 108 87 106 Q 115 98 143 93 L 158 89 Q 167 87 175 86 Q 187 83 198 81 Q 213 75 230 86 Q 236 89 234 92 Q 232 96 225 96 Q 184 95 158 100 L 132 105" fill="#CCCCCC"/><path d="M 143 93 Q 143 88 143 85 Q 142 49 139 46 L 153 43 Q 159 46 160 49 Q 162 52 160 60 Q 159 74 158 89 L 158 100 Q 157 125 160 205 Q 161 226 150 243 Q 146 247 142 244 L 142 203 Q 142 152 143 117" fill="#CCCCCC"/><path d="M 142 244 Q 130 233 112 217 Q 109 215 109 213 Q 109 210 112 211 Q 121 214 127 216 Q 136 218 139 216 Q 142 213 142 203" fill="#CCCCCC"/><path d="M 143 93 L 143 117 Q 142 118 141 120 Q 133 134 119 149 Q 100 171 77 188 Q 48 206 38 205 Q 33 204 38 201 Q 72 178 88 162 Q 107 144 125 119 Q 130 111 132 105" fill="#CCCCCC"/><path d="M 139 46 Q 132 48 127 49 Q 107 54 95 48 Q 87 44 98 41 Q 116 39 139 32 Q 169 22 176 23 Q 184 25 187 28 Q 188 30 186 33 Q 184 34 153 43" fill="#0000ff" clip-path="url(#clip-mask-1)" /><path d="M 72 123 Q 69 127 65 124 Q 60 121 59 117 Q 59 113 61 110 Q 68 103 69 98 Q 74 77 70 68 Q 67 65 70 62 Q 73 60 78 63 Q 88 67 90 70 Q 92 73 89 76 Q 85 83 81 101" fill="#0000ff" clip-path="url(#clip-mask-2)" /><path d="M 93 111 L 72 123 L 81 101 Q 79 108 87 106 Q 115 98 143 93 L 158 89 Q 167 87 175 86 Q 187 83 198 81 Q 213 75 230 86 Q 236 89 234 92 Q 232 96 225 96 Q 184 95 158 100 L 132 105" fill="#0000ff" clip-path="url(#clip-mask-3)" /><path d="M 143 93 Q 143 88 143 85 Q 142 49 139 46 L 153 43 Q 159 46 160 49 Q 162 52 160 60 Q 159 74 158 89 L 158 100 Q 157 125 160 205 Q 161 226 150 243 Q 146 247 142 244 L 142 203 Q 142 152 143 117" fill="#0000ff" clip-path="url(#clip-mask-4)" /><path d="M 142 244 Q 130 233 112 217 Q 109 215 109 213 Q 109 210 112 211 Q 121 214 127 216 Q 136 218 139 216 Q 142 213 142 203" fill="#0000ff" clip-path="url(#clip-mask-5)" /><path d="M 143 93 L 143 117 Q 142 118 141 120 Q 133 134 119 149 Q 100 171 77 188 Q 48 206 38 205 Q 33 204 38 201 Q 72 178 88 162 Q 107 144 125 119 Q 130 111 132 105" fill="#0000ff" clip-path="url(#clip-mask-6)" /></svg>