<svg xmlns="http://www.w3.org/2000/svg" xmlns:xlink="http://www.w3.org/1999/xlink" width="270" height="270"><defs><clipPath id="clip-mask-1"><rect x="23" y="66" width="47" height="77"><animate attributeName="y" from="-11" to="66" dur="0.285" begin="0; animate8.end + 1" id="animate1" fill="freeze"/></rect></clipPath><clipPath id="clip-mask-2"><rect x="52" y="92" width="69" height="25"><set attributeName="x" to="-17" begin="0; animate8.end + 1" /><animate attributeName="x" from="-17" to="52" dur="0.256" begin="animate1.end + 0.5" id="animate2" fill="freeze"/></rect></clipPath><clipPath id="clip-mask-3"><rect x="75" y="25" width="32" height="219"><set attributeName="y" to="-194" begin="0; animate8.end + 1" /><animate attributeName="y" from="-194" to="25" dur="0.811" begin="animate2.end + 0.5" id="animate3" fill="freeze"/></rect></clipPath><clipPath id="clip-mask-4"><rect x="12" y="137" width="103" height="59"><set attributeName="x" to="-91" begin="0; animate8.end + 1" /><animate attributeName="x" from="-91" to="12" dur="0.381" begin="animate3.end + 0.5" id="animate4" fill="freeze"/></rect></clipPath><clipPath id="clip-mask-5"><rect x="126" y="25" width="52" height="96"><set attributeName="y" to="-71" begin="0; animate8.end + 1" /><animate attributeName="y" from="-71" to="25" dur="0.356" begin="animate4.end + 0.5" id="animate5" fill="freeze"/></rect></clipPath><clipPath id="clip-mask-6"><rect x="143" y="82" width="83" height="29"><set attributeName="x" to="60" begin="0; animate8.end + 1" /><animate attributeName="x" from="60" to="143" dur="0.307" begin="animate5.end + 0.5" id="animate6" fill="freeze"/></rect></clipPath><clipPath id="clip-mask-7"><rect x="108" y="105" width="84" height="102"><set attributeName="y" to="3" begin="0; animate8.end + 1" /><animate attributeName="y" from="3" to="105" dur="0.378" begin="animate6.end + 0.5" id="animate7" fill="freeze"/></rect></clipPath><clipPath id="clip-mask-8"><rect x="123" y="128" width="134" height="97"><set attributeName="x" to="-11" begin="0; animate8.end + 1" /><animate attributeName="x" from="-11" to="123" dur="0.496" begin="animate7.end + 0.5" id="animate8" fill="freeze"/></rect></clipPath></defs><path d="M 0 0 L 270 270 M 270 0 L 0 270 M 135 0 L 135 270 M 0 135 L 270 135" stroke="#CCCCCC" /><path d="M 52 113 Q 38 139 27 142 Q 23 143 24 139 Q 27 135 32 127 Q 52 95 45 73 Q 44 69 47 68 Q 53 66 65 73 Q 70 75 68 79 Q 62 90 55 107" fill="#CCCCCC"/><path d="M 86 112 Q 83 112 80 113 Q 63 117 52 113 L 55 107 Q 55 107 56 107 Q 61 106 86 100 L 99 95 Q 104 92 111 93 Q 118 95 120 98 Q 121 100 119 102 Q 118 103 111 105 Q 104 107 98 108" fill="#CCCCCC"/><path d="M 85 130 L 86 112 L 86 100 Q 86 99 87 98 Q 87 78 86 59 Q 86 47 78 35 Q 77 31 78 29 Q 83 25 90 30 Q 97 35 101 38 Q 107 42 104 49 Q 99 68 99 95 L 98 108 Q 98 127 97 143 L 97 150 Q 96 211 96 220 Q 96 237 89 241 Q 87 244 85 242 Q 83 241 82 236 Q 75 220 78 210 Q 85 187 85 158 L 85 149" fill="#CCCCCC"/><path d="M 97 143 Q 109 137 112 137 Q 115 137 113 140 Q 110 144 104 147 Q 100 149 97 150 L 85 158 Q 47 182 34 193 Q 30 196 26 195 Q 20 192 15 188 Q 12 184 12 181 Q 13 179 17 178 Q 23 177 32 173 Q 57 161 85 149" fill="#CCCCCC"/><path d="M 143 105 Q 133 118 130 120 Q 126 121 126 118 Q 127 116 129 113 Q 163 47 152 33 Q 149 28 154 26 Q 159 25 166 29 Q 175 33 177 37 Q 178 40 177 43 Q 173 48 170 57 Q 163 73 147 99" fill="#CCCCCC"/><path d="M 169 108 Q 155 111 143 105 L 147 99 Q 163 96 175 93 Q 187 90 198 86 Q 206 82 215 84 Q 223 85 225 89 Q 226 91 224 93 Q 224 94 180 105" fill="#CCCCCC"/><path d="M 161 189 L 153 194 Q 138 203 116 207 Q 112 207 111 207 Q 108 206 110 205 Q 111 204 113 203 Q 144 190 160 172 L 167 162 Q 179 134 169 108 L 180 105 Q 185 108 190 112 Q 192 114 191 117 Q 190 121 189 127 Q 187 153 176 172 L 168 182" fill="#CCCCCC"/><path d="M 160 172 Q 151 161 142 149 Q 136 139 125 133 Q 123 132 124 130 Q 126 128 133 128 Q 138 129 142 134 Q 155 149 167 162 L 176 172 Q 184 179 191 186 Q 214 203 254 217 Q 257 218 256 220 Q 252 223 211 225 Q 204 225 199 220 Q 184 203 168 182" fill="#CCCCCC"/><path d="M 52 113 Q 38 139 27 142 Q 23 143 24 139 Q 27 135 32 127 Q 52 95 45 73 Q 44 69 47 68 Q 53 66 65 73 Q 70 75 68 79 Q 62 90 55 107" fill="#0000ff" clip-path="url(#clip-mask-1)" /><path d="M 86 112 Q 83 112 80 113 Q 63 117 52 113 L 55 107 Q 55 107 56 107 Q 61 106 86 100 L 99 95 Q 104 92 111 93 Q 118 95 120 98 Q 121 100 119 102 Q 118 103 111 105 Q 104 107 98 108" fill="#0000ff" clip-path="url(#clip-mask-2)" /><path d="M 85 130 L 86 112 L 86 100 Q 86 99 87 98 Q 87 78 86 59 Q 86 47 78 35 Q 77 31 78 29 Q 83 25 90 30 Q 97 35 101 38 Q 107 42 104 49 Q 99 68 99 95 L 98 108 Q 98 127 97 143 L 97 150 Q 96 211 96 220 Q 96 237 89 241 Q 87 244 85 242 Q 83 241 82 236 Q 75 220 78 210 Q 85 187 85 158 L 85 149" fill="#0000ff" clip-path="url(#clip-mask-3)" /><path d="M 97 143 Q 109 137 112 137 Q 115 137 113 140 Q 110 144 104 147 Q 100 149 97 150 L 85 158 Q 47 182 34 193 Q 30 196 26 195 Q 20 192 15 188 Q 12 184 12 181 Q 13 179 17 178 Q 23 177 32 173 Q 57 161 85 149" fill="#0000ff" clip-path="url(#clip-mask-4)" /><path d="M 143 105 Q 133 118 130 120 Q 126 121 126 118 Q 127 116 129 113 Q 163 47 152 33 Q 149 28 154 26 Q 159 25 166 29 Q 175 33 177 37 Q 178 40 177 43 Q 173 48 170 57 Q 163 73 147 99" fill="#000080" clip-path="url(#clip-mask-5)" /><path d="M 169 108 Q 155 111 143 105 L 147 99 Q 163 96 175 93 Q 187 90 198 86 Q 206 82 215 84 Q 223 85 225 89 Q 226 91 224 93 Q 224 94 180 105" fill="#000080" clip-path="url(#clip-mask-6)" /><path d="M 161 189 L 153 194 Q 138 203 116 207 Q 112 207 111 207 Q 108 206 110 205 Q 111 204 113 203 Q 144 190 160 172 L 167 162 Q 179 134 169 108 L 180 105 Q 185 108 190 112 Q 192 114 191 117 Q 190 121 189 127 Q 187 153 176 172 L 168 182" fill="#000080" clip-path="url(#clip-mask-7)" /><path d="M 160 172 Q 151 161 142 149 Q 136 139 125 133 Q 123 132 124 130 Q 126 128 133 128 Q 138 129 142 134 Q 155 149 167 162 L 176 172 Q 184 179 191 186 Q 214 203 254 217 Q 257 218 256 220 Q 252 223 211 225 Q 204 225 199 220 Q 184 203 168 182" fill="#000080" clip-path="url(#clip-mask-8)" /></svg>