<svg xmlns="http://www.w3.org/2000/svg" xmlns:xlink="http://www.w3.org/1999/xlink" width="270" height="270"><defs><clipPath id="clip-mask-1"><rect x="25" y="37" width="94" height="94"><animate attributeName="y" from="-57" to="37" dur="0.348" begin="0; animate8.end + 1" id="animate1" fill="freeze"/></rect></clipPath><clipPath id="clip-mask-2"><rect x="41" y="48" width="61" height="194"><set attributeName="y" to="-146" begin="0; animate8.end + 1" /><animate attributeName="y" from="-146" to="48" dur="0.719" begin="animate1.end + 0.5" id="animate2" fill="freeze"/></rect></clipPath><clipPath id="clip-mask-3"><rect x="49" y="210" width="30" height="32"><set attributeName="x" to="79" begin="0; animate8.end + 1" /><animate attributeName="x" from="79" to="49" dur="0.111" begin="animate2.end" id="animate3" fill="freeze"/></rect></clipPath><clipPath id="clip-mask-4"><rect x="14" y="117" width="71" height="84"><set attributeName="y" to="33" begin="0; animate8.end + 1" /><animate attributeName="y" from="33" to="117" dur="0.311" begin="animate3.end + 0.5" id="animate4" fill="freeze"/></rect></clipPath><clipPath id="clip-mask-5"><rect x="111" y="98" width="30" height="36"><set attributeName="x" to="81" begin="0; animate8.end + 1" /><animate attributeName="x" from="81" to="111" dur="0.111" begin="animate4.end + 0.5" id="animate5" fill="freeze"/></rect></clipPath><clipPath id="clip-mask-6"><rect x="181" y="73" width="59" height="52"><set attributeName="y" to="21" begin="0; animate8.end + 1" /><animate attributeName="y" from="21" to="73" dur="0.193" begin="animate5.end + 0.5" id="animate6" fill="freeze"/></rect></clipPath><clipPath id="clip-mask-7"><rect x="98" y="27" width="82" height="196"><set attributeName="y" to="-169" begin="0; animate8.end + 1" /><animate attributeName="y" from="-169" to="27" dur="0.726" begin="animate6.end + 0.5" id="animate7" fill="freeze"/></rect></clipPath><clipPath id="clip-mask-8"><rect x="168" y="134" width="87" height="88"><set attributeName="x" to="81" begin="0; animate8.end + 1" /><animate attributeName="x" from="81" to="168" dur="0.322" begin="animate7.end + 0.5" id="animate8" fill="freeze"/></rect></clipPath></defs><path d="M 0 0 L 270 270 M 270 0 L 0 270 M 135 0 L 135 270 M 0 135 L 270 135" stroke="#CCCCCC" /><path d="M 79 99 Q 48 129 30 130 Q 25 131 28 127 Q 34 122 45 114 Q 59 104 70 90 Q 72 88 74 86 L 82 75 Q 93 57 94 41 Q 94 37 97 37 Q 104 37 116 48 Q 119 53 116 56 Q 103 69 88 89" fill="#CCCCCC"/><path d="M 80 108 L 79 99 L 74 86 Q 73 84 73 83 Q 66 68 52 64 Q 47 64 44 59 Q 41 55 41 51 Q 42 48 46 49 Q 73 58 82 75 L 88 89 Q 97 117 99 152 Q 102 213 85 236 Q 80 242 77 241 L 79 210 Q 88 181 85 140 L 83 117" fill="#CCCCCC"/><path d="M 77 241 Q 75 242 70 235 Q 63 227 52 218 Q 49 215 50 213 Q 51 212 59 214 Q 70 217 74 216 Q 77 215 79 210" fill="#CCCCCC"/><path d="M 85 140 Q 84 142 82 145 Q 53 186 22 199 Q 18 201 16 200 Q 14 199 17 196 Q 20 193 23 191 Q 65 156 83 117" fill="#CCCCCC"/><path d="M 111 105 L 112 102 Q 112 98 113 98 Q 116 98 120 100 Q 140 111 141 123 Q 141 128 138 131 Q 135 134 131 132 Q 123 126 115 110" fill="#CCCCCC"/><path d="M 213 84 L 212 78 Q 211 74 215 74 Q 218 73 226 77 Q 233 82 237 86 Q 240 92 234 95 Q 227 98 221 103 Q 198 118 186 124 Q 181 125 184 120 Q 204 97 208 89" fill="#CCCCCC"/><path d="M 166 157 L 163 166 Q 151 207 116 219 Q 106 223 102 222 Q 98 222 98 221 Q 98 220 102 217 Q 120 206 131 196 Q 148 179 155 143 Q 164 57 150 35 Q 147 31 150 29 Q 153 27 160 29 Q 171 32 178 37 Q 180 41 179 45 Q 176 52 176 53 Q 174 57 169 134 L 168 145" fill="#CCCCCC"/><path d="M 169 134 Q 180 152 198 174 Q 214 194 249 214 Q 255 219 255 220 Q 254 222 249 222 Q 234 222 218 222 Q 212 222 207 214 Q 189 189 168 145" fill="#CCCCCC"/><path d="M 79 99 Q 48 129 30 130 Q 25 131 28 127 Q 34 122 45 114 Q 59 104 70 90 Q 72 88 74 86 L 82 75 Q 93 57 94 41 Q 94 37 97 37 Q 104 37 116 48 Q 119 53 116 56 Q 103 69 88 89" fill="#0000ff" clip-path="url(#clip-mask-1)" /><path d="M 80 108 L 79 99 L 74 86 Q 73 84 73 83 Q 66 68 52 64 Q 47 64 44 59 Q 41 55 41 51 Q 42 48 46 49 Q 73 58 82 75 L 88 89 Q 97 117 99 152 Q 102 213 85 236 Q 80 242 77 241 L 79 210 Q 88 181 85 140 L 83 117" fill="#0000ff" clip-path="url(#clip-mask-2)" /><path d="M 77 241 Q 75 242 70 235 Q 63 227 52 218 Q 49 215 50 213 Q 51 212 59 214 Q 70 217 74 216 Q 77 215 79 210" fill="#0000ff" clip-path="url(#clip-mask-3)" /><path d="M 85 140 Q 84 142 82 145 Q 53 186 22 199 Q 18 201 16 200 Q 14 199 17 196 Q 20 193 23 191 Q 65 156 83 117" fill="#0000ff" clip-path="url(#clip-mask-4)" /><path d="M 111 105 L 112 102 Q 112 98 113 98 Q 116 98 120 100 Q 140 111 141 123 Q 141 128 138 131 Q 135 134 131 132 Q 123 126 115 110" fill="#000080" clip-path="url(#clip-mask-5)" /><path d="M 213 84 L 212 78 Q 211 74 215 74 Q 218 73 226 77 Q 233 82 237 86 Q 240 92 234 95 Q 227 98 221 103 Q 198 118 186 124 Q 181 125 184 120 Q 204 97 208 89" fill="#000080" clip-path="url(#clip-mask-6)" /><path d="M 166 157 L 163 166 Q 151 207 116 219 Q 106 223 102 222 Q 98 222 98 221 Q 98 220 102 217 Q 120 206 131 196 Q 148 179 155 143 Q 164 57 150 35 Q 147 31 150 29 Q 153 27 160 29 Q 171 32 178 37 Q 180 41 179 45 Q 176 52 176 53 Q 174 57 169 134 L 168 145" fill="#000080" clip-path="url(#clip-mask-7)" /><path d="M 169 134 Q 180 152 198 174 Q 214 194 249 214 Q 255 219 255 220 Q 254 222 249 222 Q 234 222 218 222 Q 212 222 207 214 Q 189 189 168 145" fill="#000080" clip-path="url(#clip-mask-8)" /></svg>