<svg xmlns="http://www.w3.org/2000/svg" xmlns:xlink="http://www.w3.org/1999/xlink" width="270" height="270"><defs><clipPath id="clip-mask-1"><rect x="29" y="51" width="77" height="27"><animate attributeName="x" from="-48" to="29" dur="0.285" begin="0; animate10.end + 1" id="animate1" fill="freeze"/></rect></clipPath><clipPath id="clip-mask-2"><rect x="28" y="109" width="69" height="27"><set attributeName="x" to="-41" begin="0; animate10.end + 1" /><animate attributeName="x" from="-41" to="28" dur="0.256" begin="animate1.end + 0.5" id="animate2" fill="freeze"/></rect></clipPath><clipPath id="clip-mask-3"><rect x="58" y="74" width="18" height="102"><set attributeName="y" to="-28" begin="0; animate10.end + 1" /><animate attributeName="y" from="-28" to="74" dur="0.378" begin="animate2.end + 0.5" id="animate3" fill="freeze"/></rect></clipPath><clipPath id="clip-mask-4"><rect x="14" y="159" width="89" height="53"><set attributeName="x" to="-75" begin="0; animate10.end + 1" /><animate attributeName="x" from="-75" to="14" dur="0.330" begin="animate3.end + 0.5" id="animate4" fill="freeze"/></rect></clipPath><clipPath id="clip-mask-5"><rect x="123" y="40" width="73" height="28"><set attributeName="x" to="50" begin="0; animate10.end + 1" /><animate attributeName="x" from="50" to="123" dur="0.270" begin="animate4.end + 0.5" id="animate5" fill="freeze"/></rect></clipPath><clipPath id="clip-mask-6"><rect x="106" y="86" width="110" height="36"><set attributeName="x" to="-4" begin="0; animate10.end + 1" /><animate attributeName="x" from="-4" to="106" dur="0.407" begin="animate5.end + 0.5" id="animate6" fill="freeze"/></rect></clipPath><clipPath id="clip-mask-7"><rect x="64" y="123" width="81" height="104"><set attributeName="y" to="19" begin="0; animate10.end + 1" /><animate attributeName="y" from="19" to="123" dur="0.385" begin="animate6.end + 0.5" id="animate7" fill="freeze"/></rect></clipPath><clipPath id="clip-mask-8"><rect x="155" y="109" width="22" height="103"><set attributeName="y" to="6" begin="0; animate10.end + 1" /><animate attributeName="y" from="6" to="109" dur="0.381" begin="animate7.end + 0.5" id="animate8" fill="freeze"/></rect></clipPath><clipPath id="clip-mask-9"><rect x="166" y="196" width="89" height="33"><set attributeName="x" to="77" begin="0; animate10.end + 1" /><animate attributeName="x" from="77" to="166" dur="0.330" begin="animate8.end" id="animate9" fill="freeze"/></rect></clipPath><clipPath id="clip-mask-10"><rect x="225" y="162" width="26" height="39"><set attributeName="y" to="201" begin="0; animate10.end + 1" /><animate attributeName="y" from="201" to="162" dur="0.144" begin="animate9.end" id="animate10" fill="freeze"/></rect></clipPath></defs><path d="M 0 0 L 270 270 M 270 0 L 0 270 M 135 0 L 135 270 M 0 135 L 270 135" stroke="#CCCCCC" /><path d="M 58 77 Q 45 78 38 75 Q 29 71 40 68 Q 51 66 60 63 Q 68 59 76 56 Q 84 51 93 52 Q 102 52 104 56 Q 106 58 104 61 Q 103 61 69 74" fill="#CCCCCC"/><path d="M 61 130 Q 47 136 36 132 Q 28 129 37 126 Q 48 123 56 120 Q 59 119 61 118 L 75 111 Q 80 109 86 109 Q 94 110 96 112 Q 97 114 95 117 Q 95 118 88 120 Q 81 123 75 125" fill="#CCCCCC"/><path d="M 61 148 L 61 130 L 61 118 Q 61 84 58 77 L 69 74 Q 73 76 76 79 Q 76 80 75 111 L 75 125 Q 74 146 73 170 L 61 176" fill="#CCCCCC"/><path d="M 73 170 Q 99 159 100 159 Q 103 159 101 163 Q 98 166 93 168 Q 55 191 37 208 Q 32 212 28 210 Q 22 207 18 203 Q 14 198 14 196 Q 15 193 19 192 Q 25 191 35 187 Q 47 181 61 176" fill="#CCCCCC"/><path d="M 144 53 L 158 48 Q 176 40 183 40 Q 192 41 195 44 Q 196 47 194 49 Q 193 50 187 53 Q 173 57 160 62 Q 145 68 131 63 Q 123 59 133 56" fill="#CCCCCC"/><path d="M 140 115 L 126 120 Q 122 122 117 122 Q 113 121 110 118 Q 106 115 110 113 Q 152 102 182 93 Q 197 86 212 94 Q 216 97 215 100 Q 214 102 209 103 Q 179 106 165 109 L 156 111" fill="#CCCCCC"/><path d="M 123 125 L 126 124 Q 129 123 134 126 Q 142 130 144 133 Q 145 136 143 138 Q 139 144 137 151 Q 122 191 98 209 Q 85 220 70 227 Q 67 227 65 227 Q 64 226 65 224 Q 127 173 123 129" fill="#CCCCCC"/><path d="M 165 109 Q 177 115 175 123 Q 165 179 173 196 L 166 212 Q 161 207 160 201 Q 155 187 160 136 Q 160 126 157 115 Q 156 112 156 111" fill="#CCCCCC"/><path d="M 173 196 Q 175 200 180 203 Q 196 210 214 206 Q 222 204 225 200 L 251 201 Q 255 208 249 212 Q 240 219 230 222 Q 228 222 225 223 Q 184 229 166 212" fill="#CCCCCC"/><path d="M 225 200 Q 230 192 237 167 Q 238 162 240 163 Q 242 164 242 169 Q 247 193 251 201" fill="#CCCCCC"/><path d="M 58 77 Q 45 78 38 75 Q 29 71 40 68 Q 51 66 60 63 Q 68 59 76 56 Q 84 51 93 52 Q 102 52 104 56 Q 106 58 104 61 Q 103 61 69 74" fill="#0000ff" clip-path="url(#clip-mask-1)" /><path d="M 61 130 Q 47 136 36 132 Q 28 129 37 126 Q 48 123 56 120 Q 59 119 61 118 L 75 111 Q 80 109 86 109 Q 94 110 96 112 Q 97 114 95 117 Q 95 118 88 120 Q 81 123 75 125" fill="#0000ff" clip-path="url(#clip-mask-2)" /><path d="M 61 148 L 61 130 L 61 118 Q 61 84 58 77 L 69 74 Q 73 76 76 79 Q 76 80 75 111 L 75 125 Q 74 146 73 170 L 61 176" fill="#0000ff" clip-path="url(#clip-mask-3)" /><path d="M 73 170 Q 99 159 100 159 Q 103 159 101 163 Q 98 166 93 168 Q 55 191 37 208 Q 32 212 28 210 Q 22 207 18 203 Q 14 198 14 196 Q 15 193 19 192 Q 25 191 35 187 Q 47 181 61 176" fill="#0000ff" clip-path="url(#clip-mask-4)" /><path d="M 144 53 L 158 48 Q 176 40 183 40 Q 192 41 195 44 Q 196 47 194 49 Q 193 50 187 53 Q 173 57 160 62 Q 145 68 131 63 Q 123 59 133 56" fill="#000080" clip-path="url(#clip-mask-5)" /><path d="M 140 115 L 126 120 Q 122 122 117 122 Q 113 121 110 118 Q 106 115 110 113 Q 152 102 182 93 Q 197 86 212 94 Q 216 97 215 100 Q 214 102 209 103 Q 179 106 165 109 L 156 111" fill="#000080" clip-path="url(#clip-mask-6)" /><path d="M 123 125 L 126 124 Q 129 123 134 126 Q 142 130 144 133 Q 145 136 143 138 Q 139 144 137 151 Q 122 191 98 209 Q 85 220 70 227 Q 67 227 65 227 Q 64 226 65 224 Q 127 173 123 129" fill="#000080" clip-path="url(#clip-mask-7)" /><path d="M 165 109 Q 177 115 175 123 Q 165 179 173 196 L 166 212 Q 161 207 160 201 Q 155 187 160 136 Q 160 126 157 115 Q 156 112 156 111" fill="#000080" clip-path="url(#clip-mask-8)" /><path d="M 173 196 Q 175 200 180 203 Q 196 210 214 206 Q 222 204 225 200 L 251 201 Q 255 208 249 212 Q 240 219 230 222 Q 228 222 225 223 Q 184 229 166 212" fill="#000080" clip-path="url(#clip-mask-9)" /><path d="M 225 200 Q 230 192 237 167 Q 238 162 240 163 Q 242 164 242 169 Q 247 193 251 201" fill="#000080" clip-path="url(#clip-mask-10)" /></svg>