<svg xmlns="http://www.w3.org/2000/svg" xmlns:xlink="http://www.w3.org/1999/xlink" width="270" height="270"><defs><clipPath id="clip-mask-1"><rect x="39" y="44" width="71" height="24"><animate attributeName="x" from="-32" to="39" dur="0.263" begin="0; animate16.end + 1" id="animate1" fill="freeze"/></rect></clipPath><clipPath id="clip-mask-2"><rect x="43" y="100" width="63" height="23"><set attributeName="x" to="-20" begin="0; animate16.end + 1" /><animate attributeName="x" from="-20" to="43" dur="0.233" begin="animate1.end + 0.5" id="animate2" fill="freeze"/></rect></clipPath><clipPath id="clip-mask-3"><rect x="67" y="63" width="18" height="99"><set attributeName="y" to="-36" begin="0; animate16.end + 1" /><animate attributeName="y" from="-36" to="63" dur="0.367" begin="animate2.end + 0.5" id="animate3" fill="freeze"/></rect></clipPath><clipPath id="clip-mask-4"><rect x="21" y="142" width="90" height="57"><set attributeName="x" to="-69" begin="0; animate16.end + 1" /><animate attributeName="x" from="-69" to="21" dur="0.333" begin="animate3.end + 0.5" id="animate4" fill="freeze"/></rect></clipPath><clipPath id="clip-mask-5"><rect x="135" y="21" width="76" height="25"><set attributeName="x" to="59" begin="0; animate16.end + 1" /><animate attributeName="x" from="59" to="135" dur="0.281" begin="animate4.end + 0.5" id="animate5" fill="freeze"/></rect></clipPath><clipPath id="clip-mask-6"><rect x="116" y="31" width="23" height="116"><set attributeName="y" to="-85" begin="0; animate16.end + 1" /><animate attributeName="y" from="-85" to="31" dur="0.430" begin="animate5.end + 0.5" id="animate6" fill="freeze"/></rect></clipPath><clipPath id="clip-mask-7"><rect x="142" y="60" width="58" height="20"><set attributeName="x" to="84" begin="0; animate16.end + 1" /><animate attributeName="x" from="84" to="142" dur="0.215" begin="animate6.end + 0.5" id="animate7" fill="freeze"/></rect></clipPath><clipPath id="clip-mask-8"><rect x="140" y="88" width="58" height="20"><set attributeName="x" to="82" begin="0; animate16.end + 1" /><animate attributeName="x" from="82" to="140" dur="0.215" begin="animate7.end + 0.5" id="animate8" fill="freeze"/></rect></clipPath><clipPath id="clip-mask-9"><rect x="161" y="41" width="20" height="85"><set attributeName="y" to="-44" begin="0; animate16.end + 1" /><animate attributeName="y" from="-44" to="41" dur="0.315" begin="animate8.end + 0.5" id="animate9" fill="freeze"/></rect></clipPath><clipPath id="clip-mask-10"><rect x="136" y="114" width="112" height="31"><set attributeName="x" to="24" begin="0; animate16.end + 1" /><animate attributeName="x" from="24" to="136" dur="0.415" begin="animate9.end + 0.5" id="animate10" fill="freeze"/></rect></clipPath><clipPath id="clip-mask-11"><rect x="199" y="129" width="49" height="119"><set attributeName="y" to="10" begin="0; animate16.end + 1" /><animate attributeName="y" from="10" to="129" dur="0.441" begin="animate10.end" id="animate11" fill="freeze"/></rect></clipPath><clipPath id="clip-mask-12"><rect x="176" y="212" width="28" height="35"><set attributeName="x" to="204" begin="0; animate16.end + 1" /><animate attributeName="x" from="204" to="176" dur="0.104" begin="animate11.end" id="animate12" fill="freeze"/></rect></clipPath><clipPath id="clip-mask-13"><rect x="94" y="165" width="22" height="48"><set attributeName="y" to="117" begin="0; animate16.end + 1" /><animate attributeName="y" from="117" to="165" dur="0.178" begin="animate12.end + 0.5" id="animate13" fill="freeze"/></rect></clipPath><clipPath id="clip-mask-14"><rect x="124" y="160" width="21" height="29"><set attributeName="y" to="131" begin="0; animate16.end + 1" /><animate attributeName="y" from="131" to="160" dur="0.107" begin="animate13.end + 0.5" id="animate14" fill="freeze"/></rect></clipPath><clipPath id="clip-mask-15"><rect x="150" y="151" width="24" height="25"><set attributeName="x" to="126" begin="0; animate16.end + 1" /><animate attributeName="x" from="126" to="150" dur="0.089" begin="animate14.end + 0.5" id="animate15" fill="freeze"/></rect></clipPath><clipPath id="clip-mask-16"><rect x="178" y="140" width="30" height="29"><set attributeName="x" to="148" begin="0; animate16.end + 1" /><animate attributeName="x" from="148" to="178" dur="0.111" begin="animate15.end + 0.5" id="animate16" fill="freeze"/></rect></clipPath></defs><path d="M 0 0 L 270 270 M 270 0 L 0 270 M 135 0 L 135 270 M 0 135 L 270 135" stroke="#CCCCCC" /><path d="M 67 67 Q 56 68 47 65 Q 39 61 49 59 Q 59 57 68 54 Q 75 51 82 48 Q 90 44 98 44 Q 106 45 108 48 Q 110 50 108 53 Q 106 54 78 63" fill="#CCCCCC"/><path d="M 70 120 Q 59 123 50 120 Q 43 116 52 114 Q 60 112 70 109 L 84 102 Q 90 100 96 100 Q 103 101 105 104 Q 106 106 104 108 Q 104 108 84 115" fill="#CCCCCC"/><path d="M 70 137 L 70 120 L 70 109 Q 71 75 67 67 L 78 63 Q 82 66 85 69 Q 85 69 84 102 L 84 115 Q 83 134 82 156 L 70 162" fill="#CCCCCC"/><path d="M 82 156 Q 94 149 105 143 Q 109 142 110 143 Q 111 146 108 149 Q 103 153 98 157 Q 83 169 67 179 Q 57 186 48 196 Q 46 199 42 199 Q 32 195 25 192 Q 22 190 21 186 Q 22 183 25 182 Q 34 181 70 162" fill="#CCCCCC"/><path d="M 161 44 Q 150 46 139 46 L 135 39 Q 135 38 136 38 Q 151 36 164 32 Q 176 28 187 24 Q 193 21 201 22 Q 208 24 210 26 Q 211 28 209 30 Q 207 32 171 41" fill="#CCCCCC"/><path d="M 136 145 Q 132 146 129 147 Q 127 146 124 144 Q 121 141 120 139 Q 120 137 120 136 Q 121 133 122 124 Q 129 54 118 38 Q 116 36 117 34 Q 117 31 120 31 Q 128 32 135 39 L 139 46 Q 136 55 136 68 Q 133 113 136 127" fill="#CCCCCC"/><path d="M 165 79 Q 154 80 148 77 Q 142 74 149 72 Q 157 70 164 68 L 178 63 Q 178 63 179 63 Q 185 60 191 60 Q 198 61 199 63 Q 200 65 199 67 Q 198 68 178 74" fill="#CCCCCC"/><path d="M 183 88 L 189 89 Q 195 90 197 92 Q 198 94 197 96 Q 195 97 177 102 L 165 106 Q 153 108 146 105 Q 140 102 147 100 Q 157 99 164 96 Q 164 96 165 96 L 177 91" fill="#CCCCCC"/><path d="M 177 102 Q 176 113 176 124 L 165 126 Q 165 115 165 106 L 165 96 Q 165 86 165 79 L 164 68 Q 164 53 161 44 L 171 41 Q 175 44 178 47 Q 181 49 179 54 Q 178 60 178 63 L 178 74 Q 177 82 177 91" fill="#CCCCCC"/><path d="M 176 124 Q 177 123 178 123 Q 195 118 213 118 Q 228 114 239 121 Q 248 127 247 129 L 219 129 Q 209 122 160 136 Q 139 142 136 145 L 136 127 Q 137 133 145 131 Q 153 128 165 126" fill="#CCCCCC"/><path d="M 247 129 Q 248 131 245 133 Q 239 137 225 215 Q 220 232 212 240 Q 203 248 199 247 L 204 215 Q 210 206 215 181 Q 224 133 219 129" fill="#CCCCCC"/><path d="M 199 247 Q 197 247 196 244 Q 194 238 179 218 Q 176 214 177 213 Q 178 212 182 214 Q 190 217 197 220 Q 203 220 204 215" fill="#CCCCCC"/><path d="M 101 167 L 103 166 Q 104 165 106 167 Q 110 172 111 180 Q 116 195 108 208 Q 105 213 101 209 Q 94 203 96 193 Q 99 181 100 169" fill="#CCCCCC"/><path d="M 124 165 L 124 163 Q 124 160 126 160 Q 127 160 130 162 Q 136 165 140 169 Q 145 174 144 178 Q 144 184 142 187 Q 140 189 137 188 Q 134 187 127 172" fill="#CCCCCC"/><path d="M 150 157 L 150 155 Q 150 152 151 152 Q 152 151 155 152 Q 172 159 173 165 Q 174 171 173 174 Q 171 176 169 176 Q 166 175 155 162" fill="#CCCCCC"/><path d="M 179 146 L 178 144 Q 179 141 180 140 Q 181 140 185 141 Q 205 148 207 156 Q 208 163 207 166 Q 205 169 203 169 Q 199 169 196 166 Q 190 158 185 152" fill="#CCCCCC"/><path d="M 67 67 Q 56 68 47 65 Q 39 61 49 59 Q 59 57 68 54 Q 75 51 82 48 Q 90 44 98 44 Q 106 45 108 48 Q 110 50 108 53 Q 106 54 78 63" fill="#0000ff" clip-path="url(#clip-mask-1)" /><path d="M 70 120 Q 59 123 50 120 Q 43 116 52 114 Q 60 112 70 109 L 84 102 Q 90 100 96 100 Q 103 101 105 104 Q 106 106 104 108 Q 104 108 84 115" fill="#0000ff" clip-path="url(#clip-mask-2)" /><path d="M 70 137 L 70 120 L 70 109 Q 71 75 67 67 L 78 63 Q 82 66 85 69 Q 85 69 84 102 L 84 115 Q 83 134 82 156 L 70 162" fill="#0000ff" clip-path="url(#clip-mask-3)" /><path d="M 82 156 Q 94 149 105 143 Q 109 142 110 143 Q 111 146 108 149 Q 103 153 98 157 Q 83 169 67 179 Q 57 186 48 196 Q 46 199 42 199 Q 32 195 25 192 Q 22 190 21 186 Q 22 183 25 182 Q 34 181 70 162" fill="#0000ff" clip-path="url(#clip-mask-4)" /><path d="M 161 44 Q 150 46 139 46 L 135 39 Q 135 38 136 38 Q 151 36 164 32 Q 176 28 187 24 Q 193 21 201 22 Q 208 24 210 26 Q 211 28 209 30 Q 207 32 171 41" fill="#000080" clip-path="url(#clip-mask-5)" /><path d="M 136 145 Q 132 146 129 147 Q 127 146 124 144 Q 121 141 120 139 Q 120 137 120 136 Q 121 133 122 124 Q 129 54 118 38 Q 116 36 117 34 Q 117 31 120 31 Q 128 32 135 39 L 139 46 Q 136 55 136 68 Q 133 113 136 127" fill="#000080" clip-path="url(#clip-mask-6)" /><path d="M 165 79 Q 154 80 148 77 Q 142 74 149 72 Q 157 70 164 68 L 178 63 Q 178 63 179 63 Q 185 60 191 60 Q 198 61 199 63 Q 200 65 199 67 Q 198 68 178 74" fill="#000080" clip-path="url(#clip-mask-7)" /><path d="M 183 88 L 189 89 Q 195 90 197 92 Q 198 94 197 96 Q 195 97 177 102 L 165 106 Q 153 108 146 105 Q 140 102 147 100 Q 157 99 164 96 Q 164 96 165 96 L 177 91" fill="#000080" clip-path="url(#clip-mask-8)" /><path d="M 177 102 Q 176 113 176 124 L 165 126 Q 165 115 165 106 L 165 96 Q 165 86 165 79 L 164 68 Q 164 53 161 44 L 171 41 Q 175 44 178 47 Q 181 49 179 54 Q 178 60 178 63 L 178 74 Q 177 82 177 91" fill="#000080" clip-path="url(#clip-mask-9)" /><path d="M 176 124 Q 177 123 178 123 Q 195 118 213 118 Q 228 114 239 121 Q 248 127 247 129 L 219 129 Q 209 122 160 136 Q 139 142 136 145 L 136 127 Q 137 133 145 131 Q 153 128 165 126" fill="#000080" clip-path="url(#clip-mask-10)" /><path d="M 247 129 Q 248 131 245 133 Q 239 137 225 215 Q 220 232 212 240 Q 203 248 199 247 L 204 215 Q 210 206 215 181 Q 224 133 219 129" fill="#000080" clip-path="url(#clip-mask-11)" /><path d="M 199 247 Q 197 247 196 244 Q 194 238 179 218 Q 176 214 177 213 Q 178 212 182 214 Q 190 217 197 220 Q 203 220 204 215" fill="#000080" clip-path="url(#clip-mask-12)" /><path d="M 101 167 L 103 166 Q 104 165 106 167 Q 110 172 111 180 Q 116 195 108 208 Q 105 213 101 209 Q 94 203 96 193 Q 99 181 100 169" fill="#000080" clip-path="url(#clip-mask-13)" /><path d="M 124 165 L 124 163 Q 124 160 126 160 Q 127 160 130 162 Q 136 165 140 169 Q 145 174 144 178 Q 144 184 142 187 Q 140 189 137 188 Q 134 187 127 172" fill="#000080" clip-path="url(#clip-mask-14)" /><path d="M 150 157 L 150 155 Q 150 152 151 152 Q 152 151 155 152 Q 172 159 173 165 Q 174 171 173 174 Q 171 176 169 176 Q 166 175 155 162" fill="#000080" clip-path="url(#clip-mask-15)" /><path d="M 179 146 L 178 144 Q 179 141 180 140 Q 181 140 185 141 Q 205 148 207 156 Q 208 163 207 166 Q 205 169 203 169 Q 199 169 196 166 Q 190 158 185 152" fill="#000080" clip-path="url(#clip-mask-16)" /></svg>