<svg xmlns="http://www.w3.org/2000/svg" xmlns:xlink="http://www.w3.org/1999/xlink" width="270" height="270"><defs><clipPath id="clip-mask-1"><rect x="46" y="38" width="42" height="104"><animate attributeName="y" from="-66" to="38" dur="0.385" begin="0; animate6.end + 1" id="animate1" fill="freeze"/></rect></clipPath><clipPath id="clip-mask-2"><rect x="66" y="24" width="153" height="29"><set attributeName="x" to="-87" begin="0; animate6.end + 1" /><animate attributeName="x" from="-87" to="66" dur="0.567" begin="animate1.end + 0.5" id="animate2" fill="freeze"/></rect></clipPath><clipPath id="clip-mask-3"><rect x="170" y="41" width="53" height="98"><set attributeName="y" to="-57" begin="0; animate6.end + 1" /><animate attributeName="y" from="-57" to="41" dur="0.363" begin="animate2.end" id="animate3" fill="freeze"/></rect></clipPath><clipPath id="clip-mask-4"><rect x="92" y="69" width="75" height="22"><set attributeName="x" to="17" begin="0; animate6.end + 1" /><animate attributeName="x" from="17" to="92" dur="0.278" begin="animate3.end + 0.5" id="animate4" fill="freeze"/></rect></clipPath><clipPath id="clip-mask-5"><rect x="87" y="110" width="83" height="25"><set attributeName="x" to="4" begin="0; animate6.end + 1" /><animate attributeName="x" from="4" to="87" dur="0.307" begin="animate4.end + 0.5" id="animate5" fill="freeze"/></rect></clipPath><clipPath id="clip-mask-6"><rect x="115" y="44" width="26" height="201"><set attributeName="y" to="-157" begin="0; animate6.end + 1" /><animate attributeName="y" from="-157" to="44" dur="0.744" begin="animate5.end + 0.5" id="animate6" fill="freeze"/></rect></clipPath></defs><path d="M 0 0 L 270 270 M 270 0 L 0 270 M 135 0 L 135 270 M 0 135 L 270 135" stroke="#CCCCCC" /><path d="M 88 135 Q 88 142 83 141 Q 82 140 81 140 Q 70 130 69 114 Q 63 64 50 45 Q 46 42 49 40 Q 51 38 52 39 Q 59 40 66 44 L 75 53 Q 76 68 84 111 Q 86 119 87 125" fill="#CCCCCC"/><path d="M 188 41 Q 180 35 131 44 L 115 46 Q 91 49 75 53 L 66 44 Q 85 42 107 38 Q 136 33 159 31 Q 177 28 190 25 Q 195 24 201 27 Q 214 36 219 41" fill="#CCCCCC"/><path d="M 170 117 Q 175 116 177 112 Q 182 105 192 54 Q 194 46 188 41 L 219 41 Q 223 46 218 50 Q 211 58 208 67 Q 195 122 189 132 Q 184 139 181 136 Q 176 134 170 125" fill="#CCCCCC"/><path d="M 122 88 Q 117 89 114 90 Q 104 91 97 87 Q 92 83 99 82 Q 101 81 122 79 L 137 75 Q 153 69 162 74 Q 167 76 167 79 Q 166 79 166 80 Q 151 83 136 86" fill="#CCCCCC"/><path d="M 96 132 L 88 135 L 87 125 Q 103 123 121 120 L 135 118 Q 137 117 139 117 Q 162 110 170 117 L 170 125 Q 151 127 135 128 L 121 130" fill="#CCCCCC"/><path d="M 121 120 Q 121 103 122 88 L 122 79 Q 122 60 115 46 L 131 44 Q 134 45 137 47 Q 141 50 140 55 Q 137 68 137 75 L 136 86 Q 136 103 135 118 L 135 128 Q 135 165 135 178 Q 135 202 133 225 Q 131 242 127 245 Q 125 245 123 243 Q 121 241 121 238 Q 119 233 121 130" fill="#CCCCCC"/><path d="M 88 135 Q 88 142 83 141 Q 82 140 81 140 Q 70 130 69 114 Q 63 64 50 45 Q 46 42 49 40 Q 51 38 52 39 Q 59 40 66 44 L 75 53 Q 76 68 84 111 Q 86 119 87 125" fill="#0000ff" clip-path="url(#clip-mask-1)" /><path d="M 188 41 Q 180 35 131 44 L 115 46 Q 91 49 75 53 L 66 44 Q 85 42 107 38 Q 136 33 159 31 Q 177 28 190 25 Q 195 24 201 27 Q 214 36 219 41" fill="#0000ff" clip-path="url(#clip-mask-2)" /><path d="M 170 117 Q 175 116 177 112 Q 182 105 192 54 Q 194 46 188 41 L 219 41 Q 223 46 218 50 Q 211 58 208 67 Q 195 122 189 132 Q 184 139 181 136 Q 176 134 170 125" fill="#0000ff" clip-path="url(#clip-mask-3)" /><path d="M 122 88 Q 117 89 114 90 Q 104 91 97 87 Q 92 83 99 82 Q 101 81 122 79 L 137 75 Q 153 69 162 74 Q 167 76 167 79 Q 166 79 166 80 Q 151 83 136 86" fill="#0000ff" clip-path="url(#clip-mask-4)" /><path d="M 96 132 L 88 135 L 87 125 Q 103 123 121 120 L 135 118 Q 137 117 139 117 Q 162 110 170 117 L 170 125 Q 151 127 135 128 L 121 130" fill="#0000ff" clip-path="url(#clip-mask-5)" /><path d="M 121 120 Q 121 103 122 88 L 122 79 Q 122 60 115 46 L 131 44 Q 134 45 137 47 Q 141 50 140 55 Q 137 68 137 75 L 136 86 Q 136 103 135 118 L 135 128 Q 135 165 135 178 Q 135 202 133 225 Q 131 242 127 245 Q 125 245 123 243 Q 121 241 121 238 Q 119 233 121 130" fill="#0000ff" clip-path="url(#clip-mask-6)" /></svg>