<svg xmlns="http://www.w3.org/2000/svg" xmlns:xlink="http://www.w3.org/1999/xlink" width="270" height="270"><defs><clipPath id="clip-mask-1"><rect x="12" y="73" width="27" height="99"><animate attributeName="y" from="-26" to="73" dur="0.367" begin="0; animate12.end + 1" id="animate1" fill="freeze"/></rect></clipPath><clipPath id="clip-mask-2"><rect x="28" y="61" width="92" height="25"><set attributeName="x" to="-64" begin="0; animate12.end + 1" /><animate attributeName="x" from="-64" to="28" dur="0.341" begin="animate1.end + 0.5" id="animate2" fill="freeze"/></rect></clipPath><clipPath id="clip-mask-3"><rect x="90" y="73" width="33" height="98"><set attributeName="y" to="-25" begin="0; animate12.end + 1" /><animate attributeName="y" from="-25" to="73" dur="0.363" begin="animate2.end" id="animate3" fill="freeze"/></rect></clipPath><clipPath id="clip-mask-4"><rect x="83" y="140" width="10" height="27"><set attributeName="x" to="93" begin="0; animate12.end + 1" /><animate attributeName="x" from="93" to="83" dur="0.037" begin="animate3.end" id="animate4" fill="freeze"/></rect></clipPath><clipPath id="clip-mask-5"><rect x="38" y="105" width="51" height="17"><set attributeName="x" to="-13" begin="0; animate12.end + 1" /><animate attributeName="x" from="-13" to="38" dur="0.189" begin="animate4.end + 0.5" id="animate5" fill="freeze"/></rect></clipPath><clipPath id="clip-mask-6"><rect x="54" y="80" width="17" height="66"><set attributeName="y" to="14" begin="0; animate12.end + 1" /><animate attributeName="y" from="14" to="80" dur="0.244" begin="animate5.end + 0.5" id="animate6" fill="freeze"/></rect></clipPath><clipPath id="clip-mask-7"><rect x="39" y="138" width="52" height="20"><set attributeName="x" to="-13" begin="0; animate12.end + 1" /><animate attributeName="x" from="-13" to="39" dur="0.193" begin="animate6.end + 0.5" id="animate7" fill="freeze"/></rect></clipPath><clipPath id="clip-mask-8"><rect x="127" y="58" width="28" height="30"><set attributeName="y" to="28" begin="0; animate12.end + 1" /><animate attributeName="y" from="28" to="58" dur="0.111" begin="animate7.end + 0.5" id="animate8" fill="freeze"/></rect></clipPath><clipPath id="clip-mask-9"><rect x="187" y="35" width="45" height="43"><set attributeName="y" to="-8" begin="0; animate12.end + 1" /><animate attributeName="y" from="-8" to="35" dur="0.159" begin="animate8.end + 0.5" id="animate9" fill="freeze"/></rect></clipPath><clipPath id="clip-mask-10"><rect x="130" y="92" width="87" height="26"><set attributeName="x" to="43" begin="0; animate12.end + 1" /><animate attributeName="x" from="43" to="130" dur="0.322" begin="animate9.end + 0.5" id="animate10" fill="freeze"/></rect></clipPath><clipPath id="clip-mask-11"><rect x="106" y="128" width="151" height="34"><set attributeName="x" to="-45" begin="0; animate12.end + 1" /><animate attributeName="x" from="-45" to="106" dur="0.559" begin="animate10.end + 0.5" id="animate11" fill="freeze"/></rect></clipPath><clipPath id="clip-mask-12"><rect x="155" y="14" width="28" height="241"><set attributeName="y" to="-227" begin="0; animate12.end + 1" /><animate attributeName="y" from="-227" to="14" dur="0.893" begin="animate11.end + 0.5" id="animate12" fill="freeze"/></rect></clipPath></defs><path d="M 0 0 L 270 270 M 270 0 L 0 270 M 135 0 L 135 270 M 0 135 L 270 135" stroke="#CCCCCC" /><path d="M 38 164 L 37 168 Q 35 172 31 166 Q 25 157 25 145 Q 23 105 14 80 Q 12 76 14 74 Q 15 73 18 74 Q 25 76 28 78 L 31 86 Q 32 99 38 142 Q 38 146 39 149 L 39 158" fill="#CCCCCC"/><path d="M 28 78 Q 67 74 92 64 Q 99 61 104 63 Q 115 68 120 73 L 96 77 Q 92 73 64 80 L 54 82 L 31 86" fill="#CCCCCC"/><path d="M 93 140 Q 99 112 99 84 Q 99 78 96 77 L 120 73 Q 123 76 119 81 Q 113 88 112 99 Q 111 114 110 127 Q 109 149 101 164 Q 98 170 95 171 Q 92 171 90 167" fill="#CCCCCC"/><path d="M 91 145 Q 93 145 93 140 L 90 167 Q 85 157 83 152" fill="#CCCCCC"/><path d="M 57 121 Q 49 122 44 120 Q 38 117 45 115 Q 51 113 57 112 L 70 107 Q 75 105 81 105 Q 86 106 88 108 Q 89 109 87 111 Q 86 112 82 114 Q 75 115 69 118" fill="#CCCCCC"/><path d="M 57 146 Q 57 132 57 121 L 57 112 Q 57 86 54 82 L 64 80 Q 67 82 70 85 Q 71 87 70 98 Q 70 102 70 107 L 69 118 Q 68 129 68 143" fill="#CCCCCC"/><path d="M 39 149 Q 47 148 57 146 L 68 143 Q 79 138 86 141 Q 89 143 91 145 L 83 152 Q 74 152 67 153 Q 67 153 66 153 Q 51 155 42 157 Q 40 158 39 158" fill="#CCCCCC"/><path d="M 127 65 L 127 62 Q 127 59 129 58 Q 133 58 147 66 Q 153 69 153 74 Q 155 81 153 85 Q 151 88 148 87 Q 144 87 142 83 Q 137 77 133 72" fill="#CCCCCC"/><path d="M 209 45 L 208 40 Q 207 37 210 36 Q 213 35 219 38 Q 226 42 230 46 Q 232 51 227 53 Q 223 55 208 67 Q 202 71 191 78 Q 187 78 189 74 Q 203 56 206 49" fill="#CCCCCC"/><path d="M 166 114 Q 163 114 162 115 Q 147 118 137 113 Q 130 109 139 107 Q 153 105 166 102 L 179 99 Q 200 92 206 93 Q 214 95 216 97 Q 217 100 214 101 Q 214 102 179 111" fill="#CCCCCC"/><path d="M 145 156 L 129 161 Q 125 162 119 161 Q 115 159 111 156 Q 106 151 112 151 Q 140 146 165 143 L 179 141 Q 211 134 230 130 Q 239 128 253 137 Q 257 141 256 144 Q 254 147 239 147 Q 203 147 179 151 L 165 153" fill="#CCCCCC"/><path d="M 165 143 Q 166 128 166 114 L 166 102 Q 166 72 166 49 Q 165 37 157 22 Q 155 19 158 16 Q 162 14 166 15 Q 170 16 179 22 Q 183 25 183 29 Q 179 50 179 99 L 179 111 Q 179 127 179 141 L 179 151 Q 180 169 180 179 Q 181 207 179 236 Q 178 245 177 249 Q 175 254 173 255 Q 171 255 169 254 Q 162 243 165 153" fill="#CCCCCC"/><path d="M 38 164 L 37 168 Q 35 172 31 166 Q 25 157 25 145 Q 23 105 14 80 Q 12 76 14 74 Q 15 73 18 74 Q 25 76 28 78 L 31 86 Q 32 99 38 142 Q 38 146 39 149 L 39 158" fill="#0000ff" clip-path="url(#clip-mask-1)" /><path d="M 28 78 Q 67 74 92 64 Q 99 61 104 63 Q 115 68 120 73 L 96 77 Q 92 73 64 80 L 54 82 L 31 86" fill="#0000ff" clip-path="url(#clip-mask-2)" /><path d="M 93 140 Q 99 112 99 84 Q 99 78 96 77 L 120 73 Q 123 76 119 81 Q 113 88 112 99 Q 111 114 110 127 Q 109 149 101 164 Q 98 170 95 171 Q 92 171 90 167" fill="#0000ff" clip-path="url(#clip-mask-3)" /><path d="M 91 145 Q 93 145 93 140 L 90 167 Q 85 157 83 152" fill="#0000ff" clip-path="url(#clip-mask-4)" /><path d="M 57 121 Q 49 122 44 120 Q 38 117 45 115 Q 51 113 57 112 L 70 107 Q 75 105 81 105 Q 86 106 88 108 Q 89 109 87 111 Q 86 112 82 114 Q 75 115 69 118" fill="#0000ff" clip-path="url(#clip-mask-5)" /><path d="M 57 146 Q 57 132 57 121 L 57 112 Q 57 86 54 82 L 64 80 Q 67 82 70 85 Q 71 87 70 98 Q 70 102 70 107 L 69 118 Q 68 129 68 143" fill="#0000ff" clip-path="url(#clip-mask-6)" /><path d="M 39 149 Q 47 148 57 146 L 68 143 Q 79 138 86 141 Q 89 143 91 145 L 83 152 Q 74 152 67 153 Q 67 153 66 153 Q 51 155 42 157 Q 40 158 39 158" fill="#0000ff" clip-path="url(#clip-mask-7)" /><path d="M 127 65 L 127 62 Q 127 59 129 58 Q 133 58 147 66 Q 153 69 153 74 Q 155 81 153 85 Q 151 88 148 87 Q 144 87 142 83 Q 137 77 133 72" fill="#000080" clip-path="url(#clip-mask-8)" /><path d="M 209 45 L 208 40 Q 207 37 210 36 Q 213 35 219 38 Q 226 42 230 46 Q 232 51 227 53 Q 223 55 208 67 Q 202 71 191 78 Q 187 78 189 74 Q 203 56 206 49" fill="#000080" clip-path="url(#clip-mask-9)" /><path d="M 166 114 Q 163 114 162 115 Q 147 118 137 113 Q 130 109 139 107 Q 153 105 166 102 L 179 99 Q 200 92 206 93 Q 214 95 216 97 Q 217 100 214 101 Q 214 102 179 111" fill="#000080" clip-path="url(#clip-mask-10)" /><path d="M 145 156 L 129 161 Q 125 162 119 161 Q 115 159 111 156 Q 106 151 112 151 Q 140 146 165 143 L 179 141 Q 211 134 230 130 Q 239 128 253 137 Q 257 141 256 144 Q 254 147 239 147 Q 203 147 179 151 L 165 153" fill="#000080" clip-path="url(#clip-mask-11)" /><path d="M 165 143 Q 166 128 166 114 L 166 102 Q 166 72 166 49 Q 165 37 157 22 Q 155 19 158 16 Q 162 14 166 15 Q 170 16 179 22 Q 183 25 183 29 Q 179 50 179 99 L 179 111 Q 179 127 179 141 L 179 151 Q 180 169 180 179 Q 181 207 179 236 Q 178 245 177 249 Q 175 254 173 255 Q 171 255 169 254 Q 162 243 165 153" fill="#000080" clip-path="url(#clip-mask-12)" /></svg>