<svg xmlns="http://www.w3.org/2000/svg" xmlns:xlink="http://www.w3.org/1999/xlink" width="270" height="270"><defs><clipPath id="clip-mask-1"><rect x="85" y="37" width="107" height="27"><animate attributeName="x" from="-22" to="85" dur="0.396" begin="0; animate14.end + 1" id="animate1" fill="freeze"/></rect></clipPath><clipPath id="clip-mask-2"><rect x="161" y="48" width="35" height="44"><set attributeName="y" to="4" begin="0; animate14.end + 1" /><animate attributeName="y" from="4" to="48" dur="0.163" begin="animate1.end" id="animate2" fill="freeze"/></rect></clipPath><clipPath id="clip-mask-3"><rect x="28" y="58" width="213" height="41"><set attributeName="x" to="-185" begin="0; animate14.end + 1" /><animate attributeName="x" from="-185" to="28" dur="0.789" begin="animate2.end + 0.5" id="animate3" fill="freeze"/></rect></clipPath><clipPath id="clip-mask-4"><rect x="83" y="91" width="96" height="22"><set attributeName="x" to="-13" begin="0; animate14.end + 1" /><animate attributeName="x" from="-13" to="83" dur="0.356" begin="animate3.end + 0.5" id="animate4" fill="freeze"/></rect></clipPath><clipPath id="clip-mask-5"><rect x="85" y="113" width="88" height="22"><set attributeName="x" to="-3" begin="0; animate14.end + 1" /><animate attributeName="x" from="-3" to="85" dur="0.326" begin="animate4.end + 0.5" id="animate5" fill="freeze"/></rect></clipPath><clipPath id="clip-mask-6"><rect x="114" y="13" width="31" height="132"><set attributeName="y" to="-119" begin="0; animate14.end + 1" /><animate attributeName="y" from="-119" to="13" dur="0.489" begin="animate5.end + 0.5" id="animate6" fill="freeze"/></rect></clipPath><clipPath id="clip-mask-7"><rect x="55" y="130" width="157" height="33"><set attributeName="x" to="-102" begin="0; animate14.end + 1" /><animate attributeName="x" from="-102" to="55" dur="0.581" begin="animate6.end + 0.5" id="animate7" fill="freeze"/></rect></clipPath><clipPath id="clip-mask-8"><rect x="70" y="171" width="30" height="58"><set attributeName="y" to="113" begin="0; animate14.end + 1" /><animate attributeName="y" from="113" to="171" dur="0.215" begin="animate7.end + 0.5" id="animate8" fill="freeze"/></rect></clipPath><clipPath id="clip-mask-9"><rect x="87" y="158" width="104" height="23"><set attributeName="x" to="-17" begin="0; animate14.end + 1" /><animate attributeName="x" from="-17" to="87" dur="0.385" begin="animate8.end + 0.5" id="animate9" fill="freeze"/></rect></clipPath><clipPath id="clip-mask-10"><rect x="156" y="171" width="37" height="57"><set attributeName="y" to="114" begin="0; animate14.end + 1" /><animate attributeName="y" from="114" to="171" dur="0.211" begin="animate9.end" id="animate10" fill="freeze"/></rect></clipPath><clipPath id="clip-mask-11"><rect x="103" y="184" width="54" height="14"><set attributeName="x" to="49" begin="0; animate14.end + 1" /><animate attributeName="x" from="49" to="103" dur="0.200" begin="animate10.end + 0.5" id="animate11" fill="freeze"/></rect></clipPath><clipPath id="clip-mask-12"><rect x="123" y="173" width="13" height="38"><set attributeName="y" to="135" begin="0; animate14.end + 1" /><animate attributeName="y" from="135" to="173" dur="0.141" begin="animate11.end + 0.5" id="animate12" fill="freeze"/></rect></clipPath><clipPath id="clip-mask-13"><rect x="99" y="205" width="57" height="17"><set attributeName="x" to="42" begin="0; animate14.end + 1" /><animate attributeName="x" from="42" to="99" dur="0.211" begin="animate12.end + 0.5" id="animate13" fill="freeze"/></rect></clipPath><clipPath id="clip-mask-14"><rect x="38" y="225" width="190" height="31"><set attributeName="x" to="-152" begin="0; animate14.end + 1" /><animate attributeName="x" from="-152" to="38" dur="0.704" begin="animate13.end + 0.5" id="animate14" fill="freeze"/></rect></clipPath></defs><path d="M 0 0 L 270 270 M 270 0 L 0 270 M 135 0 L 135 270 M 0 135 L 270 135" stroke="#CCCCCC" /><path d="M 125 58 Q 115 60 105 61 Q 97 64 90 61 Q 86 60 85 58 Q 85 55 89 55 Q 107 53 125 50 L 140 47 Q 152 44 164 39 Q 170 37 174 39 Q 188 45 192 48 L 167 52 Q 164 49 139 55" fill="#CCCCCC"/><path d="M 167 70 Q 170 55 167 52 L 192 48 Q 196 53 191 58 Q 187 61 184 67 L 178 78 Q 176 84 174 92 L 161 91 Q 163 85 164 79" fill="#CCCCCC"/><path d="M 126 83 Q 92 86 50 99 Q 46 99 41 98 Q 36 97 32 94 Q 28 89 34 89 Q 83 82 125 76 L 139 74 Q 153 72 167 70 L 184 67 Q 195 64 205 62 Q 222 58 236 68 Q 241 72 239 74 Q 237 77 217 77 Q 196 77 178 78 L 164 79 Q 150 80 139 81" fill="#CCCCCC"/><path d="M 126 106 Q 106 109 94 113 Q 88 113 85 110 Q 83 106 87 106 Q 105 103 126 99 L 138 96 Q 149 94 161 91 L 174 92 Q 179 95 179 97 Q 179 99 177 99 Q 154 101 138 105" fill="#CCCCCC"/><path d="M 125 130 Q 114 131 102 134 Q 94 135 90 132 Q 85 128 90 128 Q 106 124 125 121 L 137 118 Q 156 113 162 114 Q 168 116 171 119 Q 173 122 167 123 Q 153 125 137 128" fill="#CCCCCC"/><path d="M 125 137 L 125 130 L 125 121 Q 125 113 126 106 L 126 99 Q 126 91 126 83 L 125 76 Q 125 67 125 58 L 125 50 Q 124 44 124 39 Q 124 32 117 22 Q 114 18 116 15 Q 118 13 123 14 Q 130 15 140 20 Q 145 24 144 27 Q 144 32 142 38 Q 141 41 140 47 L 139 55 Q 139 55 139 55 Q 139 65 139 74 L 139 81 Q 138 89 138 96 L 138 105 Q 137 111 137 118 L 137 128 Q 136 135 136 143 L 125 145" fill="#CCCCCC"/><path d="M 136 143 Q 168 137 187 133 Q 197 130 208 139 Q 212 142 211 145 Q 210 147 205 147 Q 205 147 205 147 Q 124 147 74 162 Q 71 163 66 162 Q 62 161 58 158 Q 55 154 59 154 Q 94 149 125 145" fill="#CCCCCC"/><path d="M 100 224 L 100 225 Q 99 229 94 224 Q 89 220 88 213 Q 81 191 73 178 Q 70 174 71 173 Q 72 171 75 172 Q 84 172 87 173 L 91 181 Q 93 188 98 210 Q 99 212 99 215 L 100 222" fill="#CCCCCC"/><path d="M 87 173 Q 98 171 111 169 Q 148 162 154 162 Q 172 158 176 160 Q 187 167 191 171 L 166 171 Q 161 167 132 173 L 123 174 Q 104 177 91 181" fill="#CCCCCC"/><path d="M 156 211 Q 161 210 161 207 Q 164 203 168 177 Q 169 174 166 171 L 191 171 Q 193 175 190 178 Q 184 184 182 191 Q 174 218 171 223 Q 167 228 165 226 Q 161 224 156 217" fill="#CCCCCC"/><path d="M 136 186 Q 143 184 147 185 Q 153 186 156 190 Q 157 193 152 193 Q 144 194 135 196 L 124 197 Q 109 198 108 197 Q 103 194 107 193 Q 115 191 124 189" fill="#CCCCCC"/><path d="M 132 173 Q 133 173 133 173 Q 136 175 136 184 Q 136 185 136 186 L 135 196 Q 135 202 134 209 L 125 211 Q 124 203 124 197 L 124 189 Q 123 175 123 174" fill="#CCCCCC"/><path d="M 99 215 Q 110 213 125 211 L 134 209 Q 148 205 153 208 Q 155 209 156 211 L 156 217 Q 120 219 103 222 Q 102 222 100 222" fill="#CCCCCC"/><path d="M 147 235 L 191 229 Q 208 225 223 237 Q 228 242 226 245 Q 225 248 219 247 Q 123 242 62 255 Q 57 256 51 254 Q 46 252 42 248 Q 38 243 44 243" fill="#CCCCCC"/><path d="M 125 58 Q 115 60 105 61 Q 97 64 90 61 Q 86 60 85 58 Q 85 55 89 55 Q 107 53 125 50 L 140 47 Q 152 44 164 39 Q 170 37 174 39 Q 188 45 192 48 L 167 52 Q 164 49 139 55" fill="#000080" clip-path="url(#clip-mask-1)" /><path d="M 167 70 Q 170 55 167 52 L 192 48 Q 196 53 191 58 Q 187 61 184 67 L 178 78 Q 176 84 174 92 L 161 91 Q 163 85 164 79" fill="#000080" clip-path="url(#clip-mask-2)" /><path d="M 126 83 Q 92 86 50 99 Q 46 99 41 98 Q 36 97 32 94 Q 28 89 34 89 Q 83 82 125 76 L 139 74 Q 153 72 167 70 L 184 67 Q 195 64 205 62 Q 222 58 236 68 Q 241 72 239 74 Q 237 77 217 77 Q 196 77 178 78 L 164 79 Q 150 80 139 81" fill="#000080" clip-path="url(#clip-mask-3)" /><path d="M 126 106 Q 106 109 94 113 Q 88 113 85 110 Q 83 106 87 106 Q 105 103 126 99 L 138 96 Q 149 94 161 91 L 174 92 Q 179 95 179 97 Q 179 99 177 99 Q 154 101 138 105" fill="#000080" clip-path="url(#clip-mask-4)" /><path d="M 125 130 Q 114 131 102 134 Q 94 135 90 132 Q 85 128 90 128 Q 106 124 125 121 L 137 118 Q 156 113 162 114 Q 168 116 171 119 Q 173 122 167 123 Q 153 125 137 128" fill="#000080" clip-path="url(#clip-mask-5)" /><path d="M 125 137 L 125 130 L 125 121 Q 125 113 126 106 L 126 99 Q 126 91 126 83 L 125 76 Q 125 67 125 58 L 125 50 Q 124 44 124 39 Q 124 32 117 22 Q 114 18 116 15 Q 118 13 123 14 Q 130 15 140 20 Q 145 24 144 27 Q 144 32 142 38 Q 141 41 140 47 L 139 55 Q 139 55 139 55 Q 139 65 139 74 L 139 81 Q 138 89 138 96 L 138 105 Q 137 111 137 118 L 137 128 Q 136 135 136 143 L 125 145" fill="#000080" clip-path="url(#clip-mask-6)" /><path d="M 136 143 Q 168 137 187 133 Q 197 130 208 139 Q 212 142 211 145 Q 210 147 205 147 Q 205 147 205 147 Q 124 147 74 162 Q 71 163 66 162 Q 62 161 58 158 Q 55 154 59 154 Q 94 149 125 145" fill="#000080" clip-path="url(#clip-mask-7)" /><path d="M 100 224 L 100 225 Q 99 229 94 224 Q 89 220 88 213 Q 81 191 73 178 Q 70 174 71 173 Q 72 171 75 172 Q 84 172 87 173 L 91 181 Q 93 188 98 210 Q 99 212 99 215 L 100 222" fill="#0000ff" clip-path="url(#clip-mask-8)" /><path d="M 87 173 Q 98 171 111 169 Q 148 162 154 162 Q 172 158 176 160 Q 187 167 191 171 L 166 171 Q 161 167 132 173 L 123 174 Q 104 177 91 181" fill="#0000ff" clip-path="url(#clip-mask-9)" /><path d="M 156 211 Q 161 210 161 207 Q 164 203 168 177 Q 169 174 166 171 L 191 171 Q 193 175 190 178 Q 184 184 182 191 Q 174 218 171 223 Q 167 228 165 226 Q 161 224 156 217" fill="#0000ff" clip-path="url(#clip-mask-10)" /><path d="M 136 186 Q 143 184 147 185 Q 153 186 156 190 Q 157 193 152 193 Q 144 194 135 196 L 124 197 Q 109 198 108 197 Q 103 194 107 193 Q 115 191 124 189" fill="#0000ff" clip-path="url(#clip-mask-11)" /><path d="M 132 173 Q 133 173 133 173 Q 136 175 136 184 Q 136 185 136 186 L 135 196 Q 135 202 134 209 L 125 211 Q 124 203 124 197 L 124 189 Q 123 175 123 174" fill="#0000ff" clip-path="url(#clip-mask-12)" /><path d="M 99 215 Q 110 213 125 211 L 134 209 Q 148 205 153 208 Q 155 209 156 211 L 156 217 Q 120 219 103 222 Q 102 222 100 222" fill="#0000ff" clip-path="url(#clip-mask-13)" /><path d="M 147 235 L 191 229 Q 208 225 223 237 Q 228 242 226 245 Q 225 248 219 247 Q 123 242 62 255 Q 57 256 51 254 Q 46 252 42 248 Q 38 243 44 243" fill="#000080" clip-path="url(#clip-mask-14)" /></svg>