<svg xmlns="http://www.w3.org/2000/svg" xmlns:xlink="http://www.w3.org/1999/xlink" width="270" height="270"><defs><clipPath id="clip-mask-1"><rect x="21" y="67" width="22" height="155"><animate attributeName="y" from="-88" to="67" dur="0.574" begin="0; animate15.end + 1" id="animate1" fill="freeze"/></rect></clipPath><clipPath id="clip-mask-2"><rect x="41" y="62" width="50" height="19"><set attributeName="x" to="-9" begin="0; animate15.end + 1" /><animate attributeName="x" from="-9" to="41" dur="0.185" begin="animate1.end + 0.5" id="animate2" fill="freeze"/></rect></clipPath><clipPath id="clip-mask-3"><rect x="71" y="71" width="22" height="154"><set attributeName="y" to="-83" begin="0; animate15.end + 1" /><animate attributeName="y" from="-83" to="71" dur="0.570" begin="animate2.end" id="animate3" fill="freeze"/></rect></clipPath><clipPath id="clip-mask-4"><rect x="67" y="196" width="7" height="22"><set attributeName="x" to="74" begin="0; animate15.end + 1" /><animate attributeName="x" from="74" to="67" dur="0.026" begin="animate3.end" id="animate4" fill="freeze"/></rect></clipPath><clipPath id="clip-mask-5"><rect x="42" y="108" width="30" height="14"><set attributeName="x" to="12" begin="0; animate15.end + 1" /><animate attributeName="x" from="12" to="42" dur="0.111" begin="animate4.end + 0.5" id="animate5" fill="freeze"/></rect></clipPath><clipPath id="clip-mask-6"><rect x="40" y="144" width="30" height="13"><set attributeName="x" to="10" begin="0; animate15.end + 1" /><animate attributeName="x" from="10" to="40" dur="0.111" begin="animate5.end + 0.5" id="animate6" fill="freeze"/></rect></clipPath><clipPath id="clip-mask-7"><rect x="38" y="197" width="34" height="14"><set attributeName="x" to="4" begin="0; animate15.end + 1" /><animate attributeName="x" from="4" to="38" dur="0.126" begin="animate6.end + 0.5" id="animate7" fill="freeze"/></rect></clipPath><clipPath id="clip-mask-8"><rect x="115" y="32" width="83" height="40"><set attributeName="x" to="198" begin="0; animate15.end + 1" /><animate attributeName="x" from="198" to="115" dur="0.307" begin="animate7.end + 0.5" id="animate8" fill="freeze"/></rect></clipPath><clipPath id="clip-mask-9"><rect x="109" y="80" width="96" height="27"><set attributeName="x" to="13" begin="0; animate15.end + 1" /><animate attributeName="x" from="13" to="109" dur="0.356" begin="animate8.end + 0.5" id="animate9" fill="freeze"/></rect></clipPath><clipPath id="clip-mask-10"><rect x="146" y="61" width="21" height="161"><set attributeName="y" to="-100" begin="0; animate15.end + 1" /><animate attributeName="y" from="-100" to="61" dur="0.596" begin="animate9.end + 0.5" id="animate10" fill="freeze"/></rect></clipPath><clipPath id="clip-mask-11"><rect x="90" y="121" width="158" height="34"><set attributeName="x" to="-68" begin="0; animate15.end + 1" /><animate attributeName="x" from="-68" to="90" dur="0.585" begin="animate10.end + 0.5" id="animate11" fill="freeze"/></rect></clipPath><clipPath id="clip-mask-12"><rect x="105" y="118" width="25" height="57"><set attributeName="y" to="61" begin="0; animate15.end + 1" /><animate attributeName="y" from="61" to="118" dur="0.211" begin="animate11.end + 0.5" id="animate12" fill="freeze"/></rect></clipPath><clipPath id="clip-mask-13"><rect x="185" y="101" width="31" height="68"><set attributeName="y" to="33" begin="0; animate15.end + 1" /><animate attributeName="y" from="33" to="101" dur="0.252" begin="animate12.end + 0.5" id="animate13" fill="freeze"/></rect></clipPath><clipPath id="clip-mask-14"><rect x="99" y="169" width="130" height="30"><set attributeName="x" to="-31" begin="0; animate15.end + 1" /><animate attributeName="x" from="-31" to="99" dur="0.481" begin="animate13.end + 0.5" id="animate14" fill="freeze"/></rect></clipPath><clipPath id="clip-mask-15"><rect x="110" y="212" width="104" height="25"><set attributeName="x" to="6" begin="0; animate15.end + 1" /><animate attributeName="x" from="6" to="110" dur="0.385" begin="animate14.end + 0.5" id="animate15" fill="freeze"/></rect></clipPath></defs><path d="M 0 0 L 270 270 M 270 0 L 0 270 M 135 0 L 135 270 M 0 135 L 270 135" stroke="#CCCCCC" /><path d="M 37 215 L 35 218 Q 32 222 29 218 Q 21 207 24 193 Q 31 168 31 96 Q 31 94 26 73 Q 24 69 26 68 Q 29 67 32 68 Q 37 70 41 74 L 43 81 Q 43 82 43 84 Q 43 87 42 115 L 42 122 Q 41 134 41 150 L 40 157 Q 40 170 40 186 Q 40 196 39 203 L 38 211" fill="#CCCCCC"/><path d="M 71 77 Q 68 75 61 76 Q 53 79 47 80 Q 44 81 43 81 L 41 74 Q 52 71 65 65 Q 70 62 76 64 Q 89 68 91 71" fill="#CCCCCC"/><path d="M 73 196 Q 76 161 75 96 Q 75 81 71 77 L 91 71 Q 93 74 90 78 Q 83 92 90 189 Q 91 203 87 213 Q 83 223 80 224 Q 78 225 74 218" fill="#CCCCCC"/><path d="M 72 201 Q 73 199 73 196 L 74 218 Q 70 213 67 208" fill="#CCCCCC"/><path d="M 42 115 Q 52 108 61 109 Q 67 109 70 113 Q 72 115 66 117 Q 56 119 42 122" fill="#CCCCCC"/><path d="M 41 150 Q 51 144 59 145 Q 66 145 68 149 Q 70 152 65 153 Q 55 154 42 157 Q 41 157 40 157" fill="#CCCCCC"/><path d="M 39 203 Q 65 197 69 199 Q 71 200 72 201 L 67 208 Q 52 209 44 211 Q 41 211 38 211" fill="#CCCCCC"/><path d="M 146 65 Q 145 65 144 65 Q 124 72 116 72 Q 115 71 116 69 Q 170 47 171 36 Q 172 33 173 33 Q 181 32 196 43 Q 198 46 197 48 Q 197 50 192 50 Q 183 52 158 61" fill="#CCCCCC"/><path d="M 153 101 Q 148 102 143 103 Q 124 107 115 102 Q 109 99 117 97 Q 137 95 153 91 L 165 88 Q 173 85 182 82 Q 189 80 195 81 Q 202 82 204 85 Q 205 87 203 89 Q 201 90 165 99" fill="#CCCCCC"/><path d="M 151 205 L 152 192 L 152 182 Q 152 161 153 146 L 153 138 Q 153 112 153 101 L 153 91 Q 152 78 146 65 L 158 61 Q 162 63 165 67 Q 167 70 165 75 Q 165 80 165 88 L 165 99 Q 164 117 164 136 L 164 144 Q 163 161 163 180 L 163 190 Q 163 205 163 220 L 151 222" fill="#CCCCCC"/><path d="M 153 146 Q 140 147 129 150 L 119 152 Q 105 155 101 155 Q 97 153 94 150 Q 90 146 95 146 Q 106 144 117 143 L 129 141 Q 140 139 153 138 L 164 136 Q 166 135 193 131 L 207 128 Q 211 127 215 126 Q 231 121 244 131 Q 248 134 247 137 Q 246 139 241 139 Q 213 140 202 140 L 191 141 Q 176 142 164 144" fill="#CCCCCC"/><path d="M 129 150 Q 130 171 130 172 Q 129 175 126 173 Q 123 169 121 164 Q 120 158 119 152 L 117 143 Q 114 134 108 126 Q 105 122 109 120 Q 114 118 123 123 Q 128 124 128 129 Q 128 134 129 141" fill="#CCCCCC"/><path d="M 193 131 Q 196 112 194 107 Q 192 104 194 103 Q 198 101 202 103 Q 211 107 213 111 Q 216 113 213 116 Q 209 123 207 128 L 202 140 Q 193 163 190 166 Q 186 169 186 165 Q 185 160 191 141" fill="#CCCCCC"/><path d="M 152 192 Q 140 193 129 196 Q 114 199 104 192 Q 99 189 106 188 Q 130 184 152 182 L 163 180 Q 177 177 190 175 Q 215 169 226 179 Q 229 183 228 185 Q 227 188 223 187 Q 196 185 163 190" fill="#CCCCCC"/><path d="M 163 220 Q 173 218 181 216 Q 196 212 211 222 Q 214 226 213 228 Q 212 230 207 230 Q 152 231 131 236 Q 127 237 122 236 Q 117 235 114 231 Q 110 227 115 227 Q 134 224 151 222" fill="#CCCCCC"/><path d="M 37 215 L 35 218 Q 32 222 29 218 Q 21 207 24 193 Q 31 168 31 96 Q 31 94 26 73 Q 24 69 26 68 Q 29 67 32 68 Q 37 70 41 74 L 43 81 Q 43 82 43 84 Q 43 87 42 115 L 42 122 Q 41 134 41 150 L 40 157 Q 40 170 40 186 Q 40 196 39 203 L 38 211" fill="#0000ff" clip-path="url(#clip-mask-1)" /><path d="M 71 77 Q 68 75 61 76 Q 53 79 47 80 Q 44 81 43 81 L 41 74 Q 52 71 65 65 Q 70 62 76 64 Q 89 68 91 71" fill="#0000ff" clip-path="url(#clip-mask-2)" /><path d="M 73 196 Q 76 161 75 96 Q 75 81 71 77 L 91 71 Q 93 74 90 78 Q 83 92 90 189 Q 91 203 87 213 Q 83 223 80 224 Q 78 225 74 218" fill="#0000ff" clip-path="url(#clip-mask-3)" /><path d="M 72 201 Q 73 199 73 196 L 74 218 Q 70 213 67 208" fill="#0000ff" clip-path="url(#clip-mask-4)" /><path d="M 42 115 Q 52 108 61 109 Q 67 109 70 113 Q 72 115 66 117 Q 56 119 42 122" fill="#0000ff" clip-path="url(#clip-mask-5)" /><path d="M 41 150 Q 51 144 59 145 Q 66 145 68 149 Q 70 152 65 153 Q 55 154 42 157 Q 41 157 40 157" fill="#0000ff" clip-path="url(#clip-mask-6)" /><path d="M 39 203 Q 65 197 69 199 Q 71 200 72 201 L 67 208 Q 52 209 44 211 Q 41 211 38 211" fill="#0000ff" clip-path="url(#clip-mask-7)" /><path d="M 146 65 Q 145 65 144 65 Q 124 72 116 72 Q 115 71 116 69 Q 170 47 171 36 Q 172 33 173 33 Q 181 32 196 43 Q 198 46 197 48 Q 197 50 192 50 Q 183 52 158 61" fill="#000080" clip-path="url(#clip-mask-8)" /><path d="M 153 101 Q 148 102 143 103 Q 124 107 115 102 Q 109 99 117 97 Q 137 95 153 91 L 165 88 Q 173 85 182 82 Q 189 80 195 81 Q 202 82 204 85 Q 205 87 203 89 Q 201 90 165 99" fill="#000080" clip-path="url(#clip-mask-9)" /><path d="M 151 205 L 152 192 L 152 182 Q 152 161 153 146 L 153 138 Q 153 112 153 101 L 153 91 Q 152 78 146 65 L 158 61 Q 162 63 165 67 Q 167 70 165 75 Q 165 80 165 88 L 165 99 Q 164 117 164 136 L 164 144 Q 163 161 163 180 L 163 190 Q 163 205 163 220 L 151 222" fill="#000080" clip-path="url(#clip-mask-10)" /><path d="M 153 146 Q 140 147 129 150 L 119 152 Q 105 155 101 155 Q 97 153 94 150 Q 90 146 95 146 Q 106 144 117 143 L 129 141 Q 140 139 153 138 L 164 136 Q 166 135 193 131 L 207 128 Q 211 127 215 126 Q 231 121 244 131 Q 248 134 247 137 Q 246 139 241 139 Q 213 140 202 140 L 191 141 Q 176 142 164 144" fill="#000080" clip-path="url(#clip-mask-11)" /><path d="M 129 150 Q 130 171 130 172 Q 129 175 126 173 Q 123 169 121 164 Q 120 158 119 152 L 117 143 Q 114 134 108 126 Q 105 122 109 120 Q 114 118 123 123 Q 128 124 128 129 Q 128 134 129 141" fill="#000080" clip-path="url(#clip-mask-12)" /><path d="M 193 131 Q 196 112 194 107 Q 192 104 194 103 Q 198 101 202 103 Q 211 107 213 111 Q 216 113 213 116 Q 209 123 207 128 L 202 140 Q 193 163 190 166 Q 186 169 186 165 Q 185 160 191 141" fill="#000080" clip-path="url(#clip-mask-13)" /><path d="M 152 192 Q 140 193 129 196 Q 114 199 104 192 Q 99 189 106 188 Q 130 184 152 182 L 163 180 Q 177 177 190 175 Q 215 169 226 179 Q 229 183 228 185 Q 227 188 223 187 Q 196 185 163 190" fill="#000080" clip-path="url(#clip-mask-14)" /><path d="M 163 220 Q 173 218 181 216 Q 196 212 211 222 Q 214 226 213 228 Q 212 230 207 230 Q 152 231 131 236 Q 127 237 122 236 Q 117 235 114 231 Q 110 227 115 227 Q 134 224 151 222" fill="#000080" clip-path="url(#clip-mask-15)" /></svg>