<svg xmlns="http://www.w3.org/2000/svg" xmlns:xlink="http://www.w3.org/1999/xlink" width="270" height="270"><defs><clipPath id="clip-mask-1"><rect x="46" y="32" width="76" height="42"><animate attributeName="x" from="122" to="46" dur="0.281" begin="0; animate15.end + 1" id="animate1" fill="freeze"/></rect></clipPath><clipPath id="clip-mask-2"><rect x="24" y="90" width="93" height="34"><set attributeName="x" to="-69" begin="0; animate15.end + 1" /><animate attributeName="x" from="-69" to="24" dur="0.344" begin="animate1.end + 0.5" id="animate2" fill="freeze"/></rect></clipPath><clipPath id="clip-mask-3"><rect x="67" y="63" width="28" height="179"><set attributeName="y" to="-116" begin="0; animate15.end + 1" /><animate attributeName="y" from="-116" to="63" dur="0.663" begin="animate2.end + 0.5" id="animate3" fill="freeze"/></rect></clipPath><clipPath id="clip-mask-4"><rect x="16" y="98" width="64" height="104"><set attributeName="x" to="80" begin="0; animate15.end + 1" /><animate attributeName="x" from="80" to="16" dur="0.237" begin="animate3.end + 0.5" id="animate4" fill="freeze"/></rect></clipPath><clipPath id="clip-mask-5"><rect x="90" y="128" width="29" height="26"><set attributeName="x" to="61" begin="0; animate15.end + 1" /><animate attributeName="x" from="61" to="90" dur="0.107" begin="animate4.end + 0.5" id="animate5" fill="freeze"/></rect></clipPath><clipPath id="clip-mask-6"><rect x="129" y="27" width="84" height="39"><set attributeName="x" to="213" begin="0; animate15.end + 1" /><animate attributeName="x" from="213" to="129" dur="0.311" begin="animate5.end + 0.5" id="animate6" fill="freeze"/></rect></clipPath><clipPath id="clip-mask-7"><rect x="117" y="64" width="130" height="35"><set attributeName="x" to="-13" begin="0; animate15.end + 1" /><animate attributeName="x" from="-13" to="117" dur="0.481" begin="animate6.end + 0.5" id="animate7" fill="freeze"/></rect></clipPath><clipPath id="clip-mask-8"><rect x="123" y="110" width="26" height="64"><set attributeName="y" to="46" begin="0; animate15.end + 1" /><animate attributeName="y" from="46" to="110" dur="0.237" begin="animate7.end + 0.5" id="animate8" fill="freeze"/></rect></clipPath><clipPath id="clip-mask-9"><rect x="136" y="96" width="99" height="25"><set attributeName="x" to="37" begin="0; animate15.end + 1" /><animate attributeName="x" from="37" to="136" dur="0.367" begin="animate8.end + 0.5" id="animate9" fill="freeze"/></rect></clipPath><clipPath id="clip-mask-10"><rect x="198" y="109" width="39" height="61"><set attributeName="y" to="48" begin="0; animate15.end + 1" /><animate attributeName="y" from="48" to="109" dur="0.226" begin="animate9.end" id="animate10" fill="freeze"/></rect></clipPath><clipPath id="clip-mask-11"><rect x="149" y="126" width="52" height="14"><set attributeName="x" to="97" begin="0; animate15.end + 1" /><animate attributeName="x" from="97" to="149" dur="0.193" begin="animate10.end + 0.5" id="animate11" fill="freeze"/></rect></clipPath><clipPath id="clip-mask-12"><rect x="149" y="148" width="52" height="19"><set attributeName="x" to="97" begin="0; animate15.end + 1" /><animate attributeName="x" from="97" to="149" dur="0.193" begin="animate11.end + 0.5" id="animate12" fill="freeze"/></rect></clipPath><clipPath id="clip-mask-13"><rect x="133" y="177" width="79" height="24"><set attributeName="x" to="54" begin="0; animate15.end + 1" /><animate attributeName="x" from="54" to="133" dur="0.293" begin="animate12.end + 0.5" id="animate13" fill="freeze"/></rect></clipPath><clipPath id="clip-mask-14"><rect x="162" y="55" width="23" height="161"><set attributeName="y" to="-106" begin="0; animate15.end + 1" /><animate attributeName="y" from="-106" to="55" dur="0.596" begin="animate13.end + 0.5" id="animate14" fill="freeze"/></rect></clipPath><clipPath id="clip-mask-15"><rect x="109" y="205" width="144" height="28"><set attributeName="x" to="-35" begin="0; animate15.end + 1" /><animate attributeName="x" from="-35" to="109" dur="0.533" begin="animate14.end + 0.5" id="animate15" fill="freeze"/></rect></clipPath></defs><path d="M 0 0 L 270 270 M 270 0 L 0 270 M 135 0 L 135 270 M 0 135 L 270 135" stroke="#CCCCCC" /><path d="M 75 66 Q 49 74 48 74 Q 46 74 47 71 Q 94 46 94 37 Q 94 34 96 33 Q 105 32 119 41 Q 122 44 122 47 Q 121 49 117 49 Q 106 52 82 63" fill="#CCCCCC"/><path d="M 77 110 Q 65 114 48 120 Q 38 124 28 118 Q 24 115 24 112 Q 25 110 28 110 Q 44 107 80 98 L 92 95 Q 105 90 113 93 Q 117 95 117 99 Q 117 101 113 101 Q 101 104 91 106" fill="#CCCCCC"/><path d="M 90 174 L 91 222 Q 92 230 88 239 Q 87 242 83 242 Q 83 241 82 241 Q 67 225 73 208 Q 79 171 79 135 L 80 98 Q 79 71 75 66 L 82 63 Q 87 66 93 71 Q 95 73 94 76 Q 93 82 92 95 L 91 106 Q 90 122 90 129 L 90 134" fill="#CCCCCC"/><path d="M 79 135 Q 57 173 23 200 Q 21 202 19 201 Q 16 201 18 199 Q 62 146 77 110 L 80 98" fill="#CCCCCC"/><path d="M 90 129 Q 92 128 94 129 Q 116 135 117 142 Q 119 148 118 151 Q 117 154 115 154 Q 112 154 109 151 Q 102 144 95 138 Q 92 136 90 134" fill="#CCCCCC"/><path d="M 162 58 Q 160 59 158 59 Q 134 66 130 65 Q 129 64 130 62 Q 185 41 185 30 Q 186 27 188 27 Q 191 27 195 28 Q 205 33 210 38 Q 213 40 212 43 Q 211 45 207 45 Q 191 47 173 55" fill="#CCCCCC"/><path d="M 170 88 Q 153 91 139 96 Q 129 99 121 93 Q 117 89 122 89 Q 148 83 170 79 L 183 77 Q 202 72 216 69 Q 230 64 243 72 Q 247 75 246 78 Q 244 80 240 80 Q 189 84 182 86" fill="#CCCCCC"/><path d="M 149 167 Q 149 169 148 170 Q 147 174 143 169 Q 139 164 137 157 Q 133 131 125 116 Q 123 112 124 111 Q 125 110 128 111 Q 133 111 136 112 L 141 121 Q 142 129 148 154 Q 148 156 149 159" fill="#CCCCCC"/><path d="M 170 113 Q 153 116 141 121 L 136 112 Q 147 110 160 107 Q 165 106 170 106 L 182 103 Q 191 101 198 100 Q 216 96 220 98 Q 231 105 235 109 L 211 109 Q 206 106 181 111" fill="#CCCCCC"/><path d="M 201 152 Q 205 149 213 116 Q 214 112 211 109 L 235 109 Q 237 113 234 116 Q 228 122 225 130 Q 217 160 213 165 Q 209 170 206 168 Q 202 166 198 159" fill="#CCCCCC"/><path d="M 169 139 Q 154 140 154 139 Q 149 135 153 134 Q 160 132 170 130 L 181 127 Q 186 126 190 126 Q 196 128 199 131 Q 201 134 195 135 Q 188 136 181 137" fill="#CCCCCC"/><path d="M 169 163 Q 150 165 149 167 L 149 159 Q 158 156 169 155 L 181 152 Q 193 148 198 150 Q 200 151 201 152 L 198 159 Q 188 160 181 161" fill="#CCCCCC"/><path d="M 168 197 Q 166 197 165 198 Q 149 201 139 196 Q 133 193 142 191 Q 155 189 167 187 Q 168 186 168 187 L 180 183 Q 194 177 202 179 Q 209 180 211 183 Q 212 185 210 187 Q 209 187 180 195" fill="#CCCCCC"/><path d="M 168 206 L 168 197 L 168 187 Q 169 174 169 163 L 169 155 Q 169 146 169 139 L 170 130 Q 170 120 170 113 L 170 106 Q 170 93 170 88 L 170 79 Q 168 69 162 58 L 173 55 Q 177 58 182 62 Q 185 65 183 70 Q 183 73 183 77 L 182 86 Q 182 94 182 103 L 181 111 Q 181 119 181 127 L 181 137 Q 181 144 181 152 L 181 161 Q 180 172 180 183 L 180 195 Q 180 204 180 215 L 168 216" fill="#CCCCCC"/><path d="M 180 215 Q 207 211 224 208 Q 234 205 249 216 Q 253 220 251 222 Q 250 224 245 224 Q 240 224 236 224 Q 173 222 130 232 Q 127 233 121 231 Q 117 229 113 226 Q 109 222 115 221 Q 143 218 168 216" fill="#CCCCCC"/><path d="M 75 66 Q 49 74 48 74 Q 46 74 47 71 Q 94 46 94 37 Q 94 34 96 33 Q 105 32 119 41 Q 122 44 122 47 Q 121 49 117 49 Q 106 52 82 63" fill="#0000ff" clip-path="url(#clip-mask-1)" /><path d="M 77 110 Q 65 114 48 120 Q 38 124 28 118 Q 24 115 24 112 Q 25 110 28 110 Q 44 107 80 98 L 92 95 Q 105 90 113 93 Q 117 95 117 99 Q 117 101 113 101 Q 101 104 91 106" fill="#0000ff" clip-path="url(#clip-mask-2)" /><path d="M 90 174 L 91 222 Q 92 230 88 239 Q 87 242 83 242 Q 83 241 82 241 Q 67 225 73 208 Q 79 171 79 135 L 80 98 Q 79 71 75 66 L 82 63 Q 87 66 93 71 Q 95 73 94 76 Q 93 82 92 95 L 91 106 Q 90 122 90 129 L 90 134" fill="#0000ff" clip-path="url(#clip-mask-3)" /><path d="M 79 135 Q 57 173 23 200 Q 21 202 19 201 Q 16 201 18 199 Q 62 146 77 110 L 80 98" fill="#0000ff" clip-path="url(#clip-mask-4)" /><path d="M 90 129 Q 92 128 94 129 Q 116 135 117 142 Q 119 148 118 151 Q 117 154 115 154 Q 112 154 109 151 Q 102 144 95 138 Q 92 136 90 134" fill="#0000ff" clip-path="url(#clip-mask-5)" /><path d="M 162 58 Q 160 59 158 59 Q 134 66 130 65 Q 129 64 130 62 Q 185 41 185 30 Q 186 27 188 27 Q 191 27 195 28 Q 205 33 210 38 Q 213 40 212 43 Q 211 45 207 45 Q 191 47 173 55" fill="#000080" clip-path="url(#clip-mask-6)" /><path d="M 170 88 Q 153 91 139 96 Q 129 99 121 93 Q 117 89 122 89 Q 148 83 170 79 L 183 77 Q 202 72 216 69 Q 230 64 243 72 Q 247 75 246 78 Q 244 80 240 80 Q 189 84 182 86" fill="#000080" clip-path="url(#clip-mask-7)" /><path d="M 149 167 Q 149 169 148 170 Q 147 174 143 169 Q 139 164 137 157 Q 133 131 125 116 Q 123 112 124 111 Q 125 110 128 111 Q 133 111 136 112 L 141 121 Q 142 129 148 154 Q 148 156 149 159" fill="#000080" clip-path="url(#clip-mask-8)" /><path d="M 170 113 Q 153 116 141 121 L 136 112 Q 147 110 160 107 Q 165 106 170 106 L 182 103 Q 191 101 198 100 Q 216 96 220 98 Q 231 105 235 109 L 211 109 Q 206 106 181 111" fill="#000080" clip-path="url(#clip-mask-9)" /><path d="M 201 152 Q 205 149 213 116 Q 214 112 211 109 L 235 109 Q 237 113 234 116 Q 228 122 225 130 Q 217 160 213 165 Q 209 170 206 168 Q 202 166 198 159" fill="#000080" clip-path="url(#clip-mask-10)" /><path d="M 169 139 Q 154 140 154 139 Q 149 135 153 134 Q 160 132 170 130 L 181 127 Q 186 126 190 126 Q 196 128 199 131 Q 201 134 195 135 Q 188 136 181 137" fill="#000080" clip-path="url(#clip-mask-11)" /><path d="M 169 163 Q 150 165 149 167 L 149 159 Q 158 156 169 155 L 181 152 Q 193 148 198 150 Q 200 151 201 152 L 198 159 Q 188 160 181 161" fill="#000080" clip-path="url(#clip-mask-12)" /><path d="M 168 197 Q 166 197 165 198 Q 149 201 139 196 Q 133 193 142 191 Q 155 189 167 187 Q 168 186 168 187 L 180 183 Q 194 177 202 179 Q 209 180 211 183 Q 212 185 210 187 Q 209 187 180 195" fill="#000080" clip-path="url(#clip-mask-13)" /><path d="M 168 206 L 168 197 L 168 187 Q 169 174 169 163 L 169 155 Q 169 146 169 139 L 170 130 Q 170 120 170 113 L 170 106 Q 170 93 170 88 L 170 79 Q 168 69 162 58 L 173 55 Q 177 58 182 62 Q 185 65 183 70 Q 183 73 183 77 L 182 86 Q 182 94 182 103 L 181 111 Q 181 119 181 127 L 181 137 Q 181 144 181 152 L 181 161 Q 180 172 180 183 L 180 195 Q 180 204 180 215 L 168 216" fill="#000080" clip-path="url(#clip-mask-14)" /><path d="M 180 215 Q 207 211 224 208 Q 234 205 249 216 Q 253 220 251 222 Q 250 224 245 224 Q 240 224 236 224 Q 173 222 130 232 Q 127 233 121 231 Q 117 229 113 226 Q 109 222 115 221 Q 143 218 168 216" fill="#000080" clip-path="url(#clip-mask-15)" /></svg>