<svg xmlns="http://www.w3.org/2000/svg" xmlns:xlink="http://www.w3.org/1999/xlink" width="270" height="270"><defs><clipPath id="clip-mask-1"><rect x="99" y="10" width="33" height="24"><animate attributeName="x" from="66" to="99" dur="0.122" begin="0; animate25.end + 1" id="animate1" fill="freeze"/></rect></clipPath><clipPath id="clip-mask-2"><rect x="29" y="37" width="30" height="58"><set attributeName="y" to="-21" begin="0; animate25.end + 1" /><animate attributeName="y" from="-21" to="37" dur="0.215" begin="animate1.end + 0.5" id="animate2" fill="freeze"/></rect></clipPath><clipPath id="clip-mask-3"><rect x="58" y="29" width="145" height="31"><set attributeName="x" to="-87" begin="0; animate25.end + 1" /><animate attributeName="x" from="-87" to="58" dur="0.537" begin="animate2.end + 0.5" id="animate3" fill="freeze"/></rect></clipPath><clipPath id="clip-mask-4"><rect x="179" y="35" width="42" height="32"><set attributeName="y" to="3" begin="0; animate25.end + 1" /><animate attributeName="y" from="3" to="35" dur="0.119" begin="animate3.end" id="animate4" fill="freeze"/></rect></clipPath><clipPath id="clip-mask-5"><rect x="63" y="53" width="40" height="39"><set attributeName="y" to="14" begin="0; animate25.end + 1" /><animate attributeName="y" from="14" to="53" dur="0.144" begin="animate4.end + 0.5" id="animate5" fill="freeze"/></rect></clipPath><clipPath id="clip-mask-6"><rect x="123" y="47" width="18" height="31"><set attributeName="y" to="16" begin="0; animate25.end + 1" /><animate attributeName="y" from="16" to="47" dur="0.115" begin="animate5.end + 0.5" id="animate6" fill="freeze"/></rect></clipPath><clipPath id="clip-mask-7"><rect x="135" y="64" width="42" height="17"><set attributeName="x" to="93" begin="0; animate25.end + 1" /><animate attributeName="x" from="93" to="135" dur="0.156" begin="animate6.end" id="animate7" fill="freeze"/></rect></clipPath><clipPath id="clip-mask-8"><rect x="73" y="79" width="39" height="30"><set attributeName="x" to="112" begin="0; animate25.end + 1" /><animate attributeName="x" from="112" to="73" dur="0.144" begin="animate7.end + 0.5" id="animate8" fill="freeze"/></rect></clipPath><clipPath id="clip-mask-9"><rect x="58" y="104" width="25" height="55"><set attributeName="y" to="49" begin="0; animate25.end + 1" /><animate attributeName="y" from="49" to="104" dur="0.204" begin="animate8.end + 0.5" id="animate9" fill="freeze"/></rect></clipPath><clipPath id="clip-mask-10"><rect x="78" y="115" width="31" height="14"><set attributeName="x" to="47" begin="0; animate25.end + 1" /><animate attributeName="x" from="47" to="78" dur="0.115" begin="animate9.end + 0.5" id="animate10" fill="freeze"/></rect></clipPath><clipPath id="clip-mask-11"><rect x="118" y="85" width="61" height="14"><set attributeName="x" to="57" begin="0; animate25.end + 1" /><animate attributeName="x" from="57" to="118" dur="0.226" begin="animate10.end + 0.5" id="animate11" fill="freeze"/></rect></clipPath><clipPath id="clip-mask-12"><rect x="146" y="95" width="37" height="51"><set attributeName="y" to="44" begin="0; animate25.end + 1" /><animate attributeName="y" from="44" to="95" dur="0.189" begin="animate11.end" id="animate12" fill="freeze"/></rect></clipPath><clipPath id="clip-mask-13"><rect x="119" y="109" width="36" height="12"><set attributeName="x" to="83" begin="0; animate25.end + 1" /><animate attributeName="x" from="83" to="119" dur="0.133" begin="animate12.end + 0.5" id="animate13" fill="freeze"/></rect></clipPath><clipPath id="clip-mask-14"><rect x="82" y="129" width="65" height="21"><set attributeName="x" to="17" begin="0; animate25.end + 1" /><animate attributeName="x" from="17" to="82" dur="0.241" begin="animate13.end + 0.5" id="animate14" fill="freeze"/></rect></clipPath><clipPath id="clip-mask-15"><rect x="34" y="163" width="35" height="92"><set attributeName="y" to="71" begin="0; animate25.end + 1" /><animate attributeName="y" from="71" to="163" dur="0.341" begin="animate14.end + 0.5" id="animate15" fill="freeze"/></rect></clipPath><clipPath id="clip-mask-16"><rect x="52" y="218" width="41" height="33"><set attributeName="x" to="11" begin="0; animate25.end + 1" /><animate attributeName="x" from="11" to="52" dur="0.152" begin="animate15.end" id="animate16" fill="freeze"/></rect></clipPath><clipPath id="clip-mask-17"><rect x="73" y="167" width="23" height="15"><set attributeName="x" to="50" begin="0; animate25.end + 1" /><animate attributeName="x" from="50" to="73" dur="0.085" begin="animate16.end + 0.5" id="animate17" fill="freeze"/></rect></clipPath><clipPath id="clip-mask-18"><rect x="72" y="190" width="23" height="16"><set attributeName="x" to="49" begin="0; animate25.end + 1" /><animate attributeName="x" from="49" to="72" dur="0.085" begin="animate17.end + 0.5" id="animate18" fill="freeze"/></rect></clipPath><clipPath id="clip-mask-19"><rect x="96" y="152" width="24" height="103"><set attributeName="y" to="49" begin="0; animate25.end + 1" /><animate attributeName="y" from="49" to="152" dur="0.381" begin="animate18.end + 0.5" id="animate19" fill="freeze"/></rect></clipPath><clipPath id="clip-mask-20"><rect x="112" y="205" width="39" height="45"><set attributeName="x" to="73" begin="0; animate25.end + 1" /><animate attributeName="x" from="73" to="112" dur="0.144" begin="animate19.end" id="animate20" fill="freeze"/></rect></clipPath><clipPath id="clip-mask-21"><rect x="124" y="159" width="21" height="15"><set attributeName="x" to="103" begin="0; animate25.end + 1" /><animate attributeName="x" from="103" to="124" dur="0.078" begin="animate20.end + 0.5" id="animate21" fill="freeze"/></rect></clipPath><clipPath id="clip-mask-22"><rect x="123" y="183" width="23" height="18"><set attributeName="x" to="100" begin="0; animate25.end + 1" /><animate attributeName="x" from="100" to="123" dur="0.085" begin="animate21.end + 0.5" id="animate22" fill="freeze"/></rect></clipPath><clipPath id="clip-mask-23"><rect x="145" y="148" width="57" height="101"><set attributeName="y" to="47" begin="0; animate25.end + 1" /><animate attributeName="y" from="47" to="148" dur="0.374" begin="animate22.end + 0.5" id="animate23" fill="freeze"/></rect></clipPath><clipPath id="clip-mask-24"><rect x="198" y="233" width="42" height="26"><set attributeName="x" to="156" begin="0; animate25.end + 1" /><animate attributeName="x" from="156" to="198" dur="0.156" begin="animate23.end" id="animate24" fill="freeze"/></rect></clipPath><clipPath id="clip-mask-25"><rect x="218" y="202" width="18" height="44"><set attributeName="y" to="246" begin="0; animate25.end + 1" /><animate attributeName="y" from="246" to="202" dur="0.163" begin="animate24.end" id="animate25" fill="freeze"/></rect></clipPath></defs><path d="M 0 0 L 270 270 M 270 0 L 0 270 M 135 0 L 135 270 M 0 135 L 270 135" stroke="#CCCCCC" /><path d="M 100 17 L 99 14 Q 99 11 100 10 Q 101 10 105 10 Q 126 13 129 19 Q 132 27 131 31 Q 130 34 128 34 Q 123 34 120 32 Q 114 26 107 22" fill="#CCCCCC"/><path d="M 58 56 Q 45 87 44 89 Q 41 95 36 89 Q 29 74 34 69 Q 49 53 47 43 Q 48 37 53 40 Q 55 42 59 48 Q 59 49 59 49" fill="#CCCCCC"/><path d="M 107 49 L 97 53 L 90 54 Q 81 56 73 59 Q 66 60 58 56 L 59 49 Q 59 49 59 49 Q 74 47 88 45 Q 155 35 179 32 Q 197 29 203 35 L 186 42 Q 176 40 133 47 L 123 48" fill="#CCCCCC"/><path d="M 203 35 Q 220 49 221 52 Q 221 55 212 56 Q 201 57 187 64 Q 182 67 181 66 Q 179 65 182 61 Q 190 46 190 45 Q 190 43 186 42" fill="#CCCCCC"/><path d="M 97 53 Q 98 53 98 53 Q 101 56 102 61 Q 103 64 102 66 Q 100 67 97 71 Q 73 92 64 92 Q 63 92 63 91 Q 64 90 65 89 Q 78 78 85 67 Q 91 58 90 55 Q 90 54 90 54" fill="#CCCCCC"/><path d="M 133 47 Q 135 48 137 49 Q 141 52 139 56 Q 137 59 137 65 Q 137 68 139 69 L 135 78 Q 126 73 126 60 Q 126 51 123 48" fill="#CCCCCC"/><path d="M 139 69 Q 149 74 158 67 Q 162 64 166 65 Q 173 68 175 71 Q 177 73 174 75 Q 172 78 164 79 Q 150 81 135 78" fill="#CCCCCC"/><path d="M 73 106 Q 74 105 75 105 Q 95 87 95 82 Q 95 79 98 79 Q 100 79 104 82 Q 108 86 110 89 Q 112 93 108 94 Q 103 95 99 98 Q 84 106 76 109" fill="#CCCCCC"/><path d="M 83 150 Q 83 153 83 155 Q 81 159 77 154 Q 73 150 72 143 Q 67 123 60 110 Q 58 107 59 105 Q 60 104 63 105 Q 70 105 73 106 L 76 109 Q 76 110 76 111 Q 76 114 78 123 L 80 129 Q 81 135 82 142" fill="#CCCCCC"/><path d="M 78 123 Q 89 115 98 116 Q 104 117 107 119 Q 109 122 104 123 Q 93 125 80 129" fill="#CCCCCC"/><path d="M 156 95 Q 152 94 136 98 Q 126 99 121 96 Q 118 94 119 93 Q 119 92 123 92 Q 136 89 150 87 Q 161 85 164 87 Q 175 94 179 98" fill="#CCCCCC"/><path d="M 147 135 L 147 134 Q 149 130 152 119 L 155 110 Q 155 107 156 103 Q 158 96 156 95 L 179 98 Q 183 102 178 105 Q 169 112 165 123 Q 159 139 156 142 Q 154 145 150 146 Q 148 146 147 142 L 146 142 L 147 136" fill="#CCCCCC"/><path d="M 152 119 Q 141 119 128 121 Q 125 121 123 120 Q 119 117 122 116 Q 150 109 155 110" fill="#CCCCCC"/><path d="M 146 142 Q 105 145 85 150 Q 84 150 83 150 L 82 142 Q 103 139 131 132 Q 140 129 147 136" fill="#CCCCCC"/><path d="M 66 187 L 65 194 Q 63 204 59 223 Q 58 227 60 228 L 52 251 Q 48 255 44 252 Q 38 249 36 245 Q 34 242 38 237 Q 42 231 45 226 Q 59 189 50 171 Q 47 166 50 164 Q 53 163 57 166 Q 62 169 67 174 Q 69 177 68 181" fill="#CCCCCC"/><path d="M 60 228 Q 61 229 65 228 Q 90 218 90 218 Q 93 219 91 221 Q 87 226 80 229 Q 56 243 52 251" fill="#CCCCCC"/><path d="M 74 172 L 74 170 Q 73 167 75 167 Q 78 167 86 168 Q 90 169 93 171 Q 96 175 96 177 Q 96 181 93 182 Q 89 182 75 173" fill="#CCCCCC"/><path d="M 73 196 L 73 195 Q 72 192 74 192 Q 86 190 92 195 Q 95 199 95 201 Q 95 205 92 206 Q 87 206 75 197" fill="#CCCCCC"/><path d="M 116 178 L 115 218 Q 115 222 117 223 L 112 250 Q 108 255 106 253 Q 101 250 99 242 Q 96 237 100 232 Q 102 229 105 215 Q 108 173 101 159 Q 99 155 101 154 Q 102 152 106 153 Q 110 154 116 160 Q 120 163 119 168" fill="#CCCCCC"/><path d="M 117 223 Q 119 224 124 221 Q 135 215 146 208 Q 151 205 150 209 Q 150 211 146 214 Q 119 240 112 250" fill="#CCCCCC"/><path d="M 125 164 L 124 162 Q 124 160 126 160 Q 136 159 142 164 Q 145 167 145 169 Q 145 173 142 173 Q 137 174 126 165" fill="#CCCCCC"/><path d="M 123 187 L 123 185 Q 123 183 125 183 Q 128 183 136 186 Q 141 187 144 190 Q 146 194 146 197 Q 145 201 143 201 Q 138 201 125 189" fill="#CCCCCC"/><path d="M 166 173 L 171 193 Q 178 222 202 233 L 198 249 Q 165 235 153 172 Q 151 161 146 153 Q 145 150 149 149 Q 153 148 161 153 Q 168 157 167 163" fill="#CCCCCC"/><path d="M 202 233 Q 214 238 218 235 L 236 246 Q 240 255 233 257 Q 226 259 211 253 Q 204 251 198 249" fill="#CCCCCC"/><path d="M 218 235 Q 223 233 225 218 Q 226 210 228 206 Q 229 202 231 205 Q 233 206 233 219 Q 234 235 236 246" fill="#CCCCCC"/><path d="M 100 17 L 99 14 Q 99 11 100 10 Q 101 10 105 10 Q 126 13 129 19 Q 132 27 131 31 Q 130 34 128 34 Q 123 34 120 32 Q 114 26 107 22" fill="#0000ff" clip-path="url(#clip-mask-1)" /><path d="M 58 56 Q 45 87 44 89 Q 41 95 36 89 Q 29 74 34 69 Q 49 53 47 43 Q 48 37 53 40 Q 55 42 59 48 Q 59 49 59 49" fill="#0000ff" clip-path="url(#clip-mask-2)" /><path d="M 107 49 L 97 53 L 90 54 Q 81 56 73 59 Q 66 60 58 56 L 59 49 Q 59 49 59 49 Q 74 47 88 45 Q 155 35 179 32 Q 197 29 203 35 L 186 42 Q 176 40 133 47 L 123 48" fill="#0000ff" clip-path="url(#clip-mask-3)" /><path d="M 203 35 Q 220 49 221 52 Q 221 55 212 56 Q 201 57 187 64 Q 182 67 181 66 Q 179 65 182 61 Q 190 46 190 45 Q 190 43 186 42" fill="#0000ff" clip-path="url(#clip-mask-4)" /><path d="M 97 53 Q 98 53 98 53 Q 101 56 102 61 Q 103 64 102 66 Q 100 67 97 71 Q 73 92 64 92 Q 63 92 63 91 Q 64 90 65 89 Q 78 78 85 67 Q 91 58 90 55 Q 90 54 90 54" fill="#0000ff" clip-path="url(#clip-mask-5)" /><path d="M 133 47 Q 135 48 137 49 Q 141 52 139 56 Q 137 59 137 65 Q 137 68 139 69 L 135 78 Q 126 73 126 60 Q 126 51 123 48" fill="#0000ff" clip-path="url(#clip-mask-6)" /><path d="M 139 69 Q 149 74 158 67 Q 162 64 166 65 Q 173 68 175 71 Q 177 73 174 75 Q 172 78 164 79 Q 150 81 135 78" fill="#0000ff" clip-path="url(#clip-mask-7)" /><path d="M 73 106 Q 74 105 75 105 Q 95 87 95 82 Q 95 79 98 79 Q 100 79 104 82 Q 108 86 110 89 Q 112 93 108 94 Q 103 95 99 98 Q 84 106 76 109" fill="#000080" clip-path="url(#clip-mask-8)" /><path d="M 83 150 Q 83 153 83 155 Q 81 159 77 154 Q 73 150 72 143 Q 67 123 60 110 Q 58 107 59 105 Q 60 104 63 105 Q 70 105 73 106 L 76 109 Q 76 110 76 111 Q 76 114 78 123 L 80 129 Q 81 135 82 142" fill="#000080" clip-path="url(#clip-mask-9)" /><path d="M 78 123 Q 89 115 98 116 Q 104 117 107 119 Q 109 122 104 123 Q 93 125 80 129" fill="#000080" clip-path="url(#clip-mask-10)" /><path d="M 156 95 Q 152 94 136 98 Q 126 99 121 96 Q 118 94 119 93 Q 119 92 123 92 Q 136 89 150 87 Q 161 85 164 87 Q 175 94 179 98" fill="#000080" clip-path="url(#clip-mask-11)" /><path d="M 147 135 L 147 134 Q 149 130 152 119 L 155 110 Q 155 107 156 103 Q 158 96 156 95 L 179 98 Q 183 102 178 105 Q 169 112 165 123 Q 159 139 156 142 Q 154 145 150 146 Q 148 146 147 142 L 146 142 L 147 136" fill="#000080" clip-path="url(#clip-mask-12)" /><path d="M 152 119 Q 141 119 128 121 Q 125 121 123 120 Q 119 117 122 116 Q 150 109 155 110" fill="#000080" clip-path="url(#clip-mask-13)" /><path d="M 146 142 Q 105 145 85 150 Q 84 150 83 150 L 82 142 Q 103 139 131 132 Q 140 129 147 136" fill="#000080" clip-path="url(#clip-mask-14)" /><path d="M 66 187 L 65 194 Q 63 204 59 223 Q 58 227 60 228 L 52 251 Q 48 255 44 252 Q 38 249 36 245 Q 34 242 38 237 Q 42 231 45 226 Q 59 189 50 171 Q 47 166 50 164 Q 53 163 57 166 Q 62 169 67 174 Q 69 177 68 181" fill="#000080" clip-path="url(#clip-mask-15)" /><path d="M 60 228 Q 61 229 65 228 Q 90 218 90 218 Q 93 219 91 221 Q 87 226 80 229 Q 56 243 52 251" fill="#000080" clip-path="url(#clip-mask-16)" /><path d="M 74 172 L 74 170 Q 73 167 75 167 Q 78 167 86 168 Q 90 169 93 171 Q 96 175 96 177 Q 96 181 93 182 Q 89 182 75 173" fill="#000080" clip-path="url(#clip-mask-17)" /><path d="M 73 196 L 73 195 Q 72 192 74 192 Q 86 190 92 195 Q 95 199 95 201 Q 95 205 92 206 Q 87 206 75 197" fill="#000080" clip-path="url(#clip-mask-18)" /><path d="M 116 178 L 115 218 Q 115 222 117 223 L 112 250 Q 108 255 106 253 Q 101 250 99 242 Q 96 237 100 232 Q 102 229 105 215 Q 108 173 101 159 Q 99 155 101 154 Q 102 152 106 153 Q 110 154 116 160 Q 120 163 119 168" fill="#000080" clip-path="url(#clip-mask-19)" /><path d="M 117 223 Q 119 224 124 221 Q 135 215 146 208 Q 151 205 150 209 Q 150 211 146 214 Q 119 240 112 250" fill="#000080" clip-path="url(#clip-mask-20)" /><path d="M 125 164 L 124 162 Q 124 160 126 160 Q 136 159 142 164 Q 145 167 145 169 Q 145 173 142 173 Q 137 174 126 165" fill="#000080" clip-path="url(#clip-mask-21)" /><path d="M 123 187 L 123 185 Q 123 183 125 183 Q 128 183 136 186 Q 141 187 144 190 Q 146 194 146 197 Q 145 201 143 201 Q 138 201 125 189" fill="#000080" clip-path="url(#clip-mask-22)" /><path d="M 166 173 L 171 193 Q 178 222 202 233 L 198 249 Q 165 235 153 172 Q 151 161 146 153 Q 145 150 149 149 Q 153 148 161 153 Q 168 157 167 163" fill="#000080" clip-path="url(#clip-mask-23)" /><path d="M 202 233 Q 214 238 218 235 L 236 246 Q 240 255 233 257 Q 226 259 211 253 Q 204 251 198 249" fill="#000080" clip-path="url(#clip-mask-24)" /><path d="M 218 235 Q 223 233 225 218 Q 226 210 228 206 Q 229 202 231 205 Q 233 206 233 219 Q 234 235 236 246" fill="#000080" clip-path="url(#clip-mask-25)" /></svg>