<svg xmlns="http://www.w3.org/2000/svg" xmlns:xlink="http://www.w3.org/1999/xlink" width="270" height="270"><defs><clipPath id="clip-mask-1"><rect x="55" y="17" width="43" height="52"><animate attributeName="y" from="-35" to="17" dur="0.193" begin="0; animate23.end + 1" id="animate1" fill="freeze"/></rect></clipPath><clipPath id="clip-mask-2"><rect x="91" y="27" width="42" height="13"><set attributeName="x" to="49" begin="0; animate23.end + 1" /><animate attributeName="x" from="49" to="91" dur="0.156" begin="animate1.end + 0.5" id="animate2" fill="freeze"/></rect></clipPath><clipPath id="clip-mask-3"><rect x="92" y="47" width="19" height="18"><set attributeName="x" to="73" begin="0; animate23.end + 1" /><animate attributeName="x" from="73" to="92" dur="0.070" begin="animate2.end + 0.5" id="animate3" fill="freeze"/></rect></clipPath><clipPath id="clip-mask-4"><rect x="133" y="9" width="34" height="43"><set attributeName="y" to="-34" begin="0; animate23.end + 1" /><animate attributeName="y" from="-34" to="9" dur="0.159" begin="animate3.end + 0.5" id="animate4" fill="freeze"/></rect></clipPath><clipPath id="clip-mask-5"><rect x="157" y="18" width="50" height="17"><set attributeName="x" to="107" begin="0; animate23.end + 1" /><animate attributeName="x" from="107" to="157" dur="0.185" begin="animate4.end + 0.5" id="animate5" fill="freeze"/></rect></clipPath><clipPath id="clip-mask-6"><rect x="156" y="42" width="30" height="21"><set attributeName="x" to="126" begin="0; animate23.end + 1" /><animate attributeName="x" from="126" to="156" dur="0.111" begin="animate5.end + 0.5" id="animate6" fill="freeze"/></rect></clipPath><clipPath id="clip-mask-7"><rect x="93" y="60" width="73" height="20"><set attributeName="x" to="20" begin="0; animate23.end + 1" /><animate attributeName="x" from="20" to="93" dur="0.270" begin="animate6.end + 0.5" id="animate7" fill="freeze"/></rect></clipPath><clipPath id="clip-mask-8"><rect x="120" y="50" width="20" height="36"><set attributeName="y" to="14" begin="0; animate23.end + 1" /><animate attributeName="y" from="14" to="50" dur="0.133" begin="animate7.end + 0.5" id="animate8" fill="freeze"/></rect></clipPath><clipPath id="clip-mask-9"><rect x="98" y="80" width="67" height="17"><set attributeName="x" to="31" begin="0; animate23.end + 1" /><animate attributeName="x" from="31" to="98" dur="0.248" begin="animate8.end + 0.5" id="animate9" fill="freeze"/></rect></clipPath><clipPath id="clip-mask-10"><rect x="58" y="90" width="160" height="33"><set attributeName="x" to="-102" begin="0; animate23.end + 1" /><animate attributeName="x" from="-102" to="58" dur="0.593" begin="animate9.end + 0.5" id="animate10" fill="freeze"/></rect></clipPath><clipPath id="clip-mask-11"><rect x="178" y="105" width="40" height="22"><set attributeName="y" to="83" begin="0; animate23.end + 1" /><animate attributeName="y" from="83" to="105" dur="0.081" begin="animate10.end" id="animate11" fill="freeze"/></rect></clipPath><clipPath id="clip-mask-12"><rect x="96" y="112" width="63" height="19"><set attributeName="x" to="33" begin="0; animate23.end + 1" /><animate attributeName="x" from="33" to="96" dur="0.233" begin="animate11.end + 0.5" id="animate12" fill="freeze"/></rect></clipPath><clipPath id="clip-mask-13"><rect x="124" y="126" width="10" height="16"><set attributeName="y" to="110" begin="0; animate23.end + 1" /><animate attributeName="y" from="110" to="126" dur="0.059" begin="animate12.end + 0.5" id="animate13" fill="freeze"/></rect></clipPath><clipPath id="clip-mask-14"><rect x="85" y="132" width="89" height="23"><set attributeName="x" to="-4" begin="0; animate23.end + 1" /><animate attributeName="x" from="-4" to="85" dur="0.330" begin="animate13.end + 0.5" id="animate14" fill="freeze"/></rect></clipPath><clipPath id="clip-mask-15"><rect x="25" y="142" width="219" height="40"><set attributeName="x" to="-194" begin="0; animate23.end + 1" /><animate attributeName="x" from="-194" to="25" dur="0.811" begin="animate14.end + 0.5" id="animate15" fill="freeze"/></rect></clipPath><clipPath id="clip-mask-16"><rect x="55" y="192" width="22" height="45"><set attributeName="y" to="147" begin="0; animate23.end + 1" /><animate attributeName="y" from="147" to="192" dur="0.167" begin="animate15.end + 0.5" id="animate16" fill="freeze"/></rect></clipPath><clipPath id="clip-mask-17"><rect x="59" y="181" width="55" height="18"><set attributeName="x" to="4" begin="0; animate23.end + 1" /><animate attributeName="x" from="4" to="59" dur="0.204" begin="animate16.end + 0.5" id="animate17" fill="freeze"/></rect></clipPath><clipPath id="clip-mask-18"><rect x="95" y="189" width="24" height="25"><set attributeName="y" to="164" begin="0; animate23.end + 1" /><animate attributeName="y" from="164" to="189" dur="0.093" begin="animate17.end" id="animate18" fill="freeze"/></rect></clipPath><clipPath id="clip-mask-19"><rect x="75" y="213" width="36" height="13"><set attributeName="x" to="39" begin="0; animate23.end + 1" /><animate attributeName="x" from="39" to="75" dur="0.133" begin="animate18.end + 0.5" id="animate19" fill="freeze"/></rect></clipPath><clipPath id="clip-mask-20"><rect x="120" y="177" width="92" height="22"><set attributeName="x" to="28" begin="0; animate23.end + 1" /><animate attributeName="x" from="28" to="120" dur="0.341" begin="animate19.end + 0.5" id="animate20" fill="freeze"/></rect></clipPath><clipPath id="clip-mask-21"><rect x="163" y="163" width="22" height="97"><set attributeName="y" to="66" begin="0; animate23.end + 1" /><animate attributeName="y" from="66" to="163" dur="0.359" begin="animate20.end + 0.5" id="animate21" fill="freeze"/></rect></clipPath><clipPath id="clip-mask-22"><rect x="145" y="230" width="24" height="26"><set attributeName="x" to="169" begin="0; animate23.end + 1" /><animate attributeName="x" from="169" to="145" dur="0.089" begin="animate21.end" id="animate22" fill="freeze"/></rect></clipPath><clipPath id="clip-mask-23"><rect x="123" y="203" width="22" height="21"><set attributeName="x" to="101" begin="0; animate23.end + 1" /><animate attributeName="x" from="101" to="123" dur="0.081" begin="animate22.end + 0.5" id="animate23" fill="freeze"/></rect></clipPath></defs><path d="M 0 0 L 270 270 M 270 0 L 0 270 M 135 0 L 135 270 M 0 135 L 270 135" stroke="#CCCCCC" /><path d="M 86 43 L 86 45 Q 69 67 58 68 Q 55 69 56 66 Q 58 63 63 59 Q 81 37 79 21 Q 78 17 81 17 Q 87 17 95 24 Q 98 27 96 29 Q 94 32 93 33 L 91 37" fill="#CCCCCC"/><path d="M 93 33 Q 93 33 94 33 Q 100 33 105 32 Q 122 27 125 28 Q 131 29 132 31 Q 133 33 132 34 L 132 34 Q 109 40 99 40 Q 93 39 91 37" fill="#CCCCCC"/><path d="M 92 52 L 92 50 Q 92 47 94 48 Q 106 49 109 54 Q 111 59 111 61 Q 110 65 107 65 Q 101 65 93 54" fill="#CCCCCC"/><path d="M 145 49 L 137 50 Q 133 52 135 48 Q 136 46 138 45 Q 150 25 149 13 Q 148 10 150 10 Q 155 9 164 15 Q 167 18 165 20 Q 162 23 160 27 L 157 32" fill="#CCCCCC"/><path d="M 160 27 Q 168 26 175 25 Q 192 18 199 19 Q 205 21 206 23 Q 207 25 206 27 Q 205 27 206 27 Q 170 35 165 35 Q 160 34 157 32" fill="#CCCCCC"/><path d="M 157 48 L 156 46 Q 156 44 157 43 Q 158 42 161 42 Q 181 46 184 52 Q 186 57 185 60 Q 184 63 183 63 Q 179 63 177 61 Q 169 56 163 52" fill="#CCCCCC"/><path d="M 126 77 Q 122 77 118 78 Q 103 80 97 76 Q 93 73 99 72 Q 113 71 125 69 L 137 66 Q 152 60 159 62 Q 165 64 166 65 Q 166 67 165 68 Q 163 70 154 72 Q 144 73 136 75" fill="#CCCCCC"/><path d="M 126 81 L 126 77 L 125 69 Q 124 59 122 55 Q 120 53 122 52 Q 124 50 126 51 Q 131 52 137 55 Q 140 58 139 60 Q 138 63 137 66 L 136 75 Q 135 79 135 84 L 126 86" fill="#CCCCCC"/><path d="M 135 84 Q 149 80 156 81 Q 161 82 163 86 Q 165 88 160 89 Q 139 91 111 96 Q 104 97 102 95 Q 98 91 101 91 Q 113 88 126 86" fill="#CCCCCC"/><path d="M 71 123 L 63 117 Q 58 113 66 112 Q 80 111 93 108 Q 155 97 181 94 Q 196 90 201 95 Q 218 108 218 110 L 188 105 Q 189 103 185 102 Q 181 101 169 103 Q 116 109 78 121" fill="#CCCCCC"/><path d="M 218 110 Q 218 113 209 115 Q 199 117 185 125 Q 181 127 179 127 Q 178 126 180 122 Q 188 106 188 105" fill="#CCCCCC"/><path d="M 124 128 Q 119 128 116 129 Q 106 131 100 126 Q 96 123 102 122 Q 121 119 129 117 Q 129 117 130 117 Q 149 112 155 116 Q 159 118 159 120 Q 157 123 156 123 Q 136 125 134 126" fill="#CCCCCC"/><path d="M 124 128 L 134 126 L 134 140 L 124 142" fill="#CCCCCC"/><path d="M 134 140 Q 140 138 145 137 Q 159 132 171 140 Q 174 142 173 144 Q 172 145 169 146 Q 128 146 101 154 Q 98 155 94 154 Q 91 153 88 151 Q 85 148 89 148 Q 108 144 124 142" fill="#CCCCCC"/><path d="M 163 163 Q 98 167 48 181 Q 43 182 37 181 Q 33 180 29 176 Q 25 171 30 170 Q 172 153 216 144 Q 226 142 240 152 Q 244 156 243 159 Q 241 162 219 161 Q 193 161 172 163" fill="#CCCCCC"/><path d="M 77 231 L 76 233 Q 75 237 71 232 Q 68 229 67 224 Q 62 207 56 198 Q 55 194 56 193 Q 56 192 59 192 L 71 199 Q 71 202 75 218 L 76 226" fill="#CCCCCC"/><path d="M 59 192 Q 77 194 96 183 Q 99 181 104 183 Q 110 187 114 189 L 97 195 Q 96 193 91 194 Q 78 197 71 199" fill="#CCCCCC"/><path d="M 95 213 Q 98 196 97 195 L 114 189 Q 119 192 114 198 Q 110 201 106 214" fill="#CCCCCC"/><path d="M 75 218 Q 83 216 94 213 Q 94 213 95 213 L 106 214 Q 111 217 111 218 Q 111 221 109 221 Q 89 223 80 225 Q 78 226 76 226" fill="#CCCCCC"/><path d="M 153 196 L 141 198 Q 131 199 124 195 Q 120 190 126 190 Q 165 185 169 185 L 181 182 Q 198 177 203 179 Q 207 180 208 181 Q 212 184 212 186 Q 210 189 208 188 Q 181 191 181 192 L 170 193" fill="#CCCCCC"/><path d="M 169 185 Q 169 175 165 167 Q 163 164 163 163 L 172 163 Q 177 165 181 169 Q 185 172 183 176 Q 182 179 181 182 L 181 192 Q 181 208 182 224 Q 183 248 175 256 Q 172 260 169 256 L 166 232 Q 169 231 169 226 Q 170 214 170 193" fill="#CCCCCC"/><path d="M 169 256 Q 164 248 148 235 Q 145 233 145 232 Q 145 230 148 231 Q 165 233 166 232" fill="#CCCCCC"/><path d="M 123 208 L 123 207 Q 123 204 124 204 Q 125 203 127 204 Q 143 210 144 215 Q 145 220 144 222 Q 143 224 141 224 Q 139 223 127 212" fill="#CCCCCC"/><path d="M 86 43 L 86 45 Q 69 67 58 68 Q 55 69 56 66 Q 58 63 63 59 Q 81 37 79 21 Q 78 17 81 17 Q 87 17 95 24 Q 98 27 96 29 Q 94 32 93 33 L 91 37" fill="#0000ff" clip-path="url(#clip-mask-1)" /><path d="M 93 33 Q 93 33 94 33 Q 100 33 105 32 Q 122 27 125 28 Q 131 29 132 31 Q 133 33 132 34 L 132 34 Q 109 40 99 40 Q 93 39 91 37" fill="#0000ff" clip-path="url(#clip-mask-2)" /><path d="M 92 52 L 92 50 Q 92 47 94 48 Q 106 49 109 54 Q 111 59 111 61 Q 110 65 107 65 Q 101 65 93 54" fill="#0000ff" clip-path="url(#clip-mask-3)" /><path d="M 145 49 L 137 50 Q 133 52 135 48 Q 136 46 138 45 Q 150 25 149 13 Q 148 10 150 10 Q 155 9 164 15 Q 167 18 165 20 Q 162 23 160 27 L 157 32" fill="#0000ff" clip-path="url(#clip-mask-4)" /><path d="M 160 27 Q 168 26 175 25 Q 192 18 199 19 Q 205 21 206 23 Q 207 25 206 27 Q 205 27 206 27 Q 170 35 165 35 Q 160 34 157 32" fill="#0000ff" clip-path="url(#clip-mask-5)" /><path d="M 157 48 L 156 46 Q 156 44 157 43 Q 158 42 161 42 Q 181 46 184 52 Q 186 57 185 60 Q 184 63 183 63 Q 179 63 177 61 Q 169 56 163 52" fill="#0000ff" clip-path="url(#clip-mask-6)" /><path d="M 126 77 Q 122 77 118 78 Q 103 80 97 76 Q 93 73 99 72 Q 113 71 125 69 L 137 66 Q 152 60 159 62 Q 165 64 166 65 Q 166 67 165 68 Q 163 70 154 72 Q 144 73 136 75" fill="#000080" clip-path="url(#clip-mask-7)" /><path d="M 126 81 L 126 77 L 125 69 Q 124 59 122 55 Q 120 53 122 52 Q 124 50 126 51 Q 131 52 137 55 Q 140 58 139 60 Q 138 63 137 66 L 136 75 Q 135 79 135 84 L 126 86" fill="#000080" clip-path="url(#clip-mask-8)" /><path d="M 135 84 Q 149 80 156 81 Q 161 82 163 86 Q 165 88 160 89 Q 139 91 111 96 Q 104 97 102 95 Q 98 91 101 91 Q 113 88 126 86" fill="#000080" clip-path="url(#clip-mask-9)" /><path d="M 71 123 L 63 117 Q 58 113 66 112 Q 80 111 93 108 Q 155 97 181 94 Q 196 90 201 95 Q 218 108 218 110 L 188 105 Q 189 103 185 102 Q 181 101 169 103 Q 116 109 78 121" fill="#000080" clip-path="url(#clip-mask-10)" /><path d="M 218 110 Q 218 113 209 115 Q 199 117 185 125 Q 181 127 179 127 Q 178 126 180 122 Q 188 106 188 105" fill="#000080" clip-path="url(#clip-mask-11)" /><path d="M 124 128 Q 119 128 116 129 Q 106 131 100 126 Q 96 123 102 122 Q 121 119 129 117 Q 129 117 130 117 Q 149 112 155 116 Q 159 118 159 120 Q 157 123 156 123 Q 136 125 134 126" fill="#000080" clip-path="url(#clip-mask-12)" /><path d="M 124 128 L 134 126 L 134 140 L 124 142" fill="#000080" clip-path="url(#clip-mask-13)" /><path d="M 134 140 Q 140 138 145 137 Q 159 132 171 140 Q 174 142 173 144 Q 172 145 169 146 Q 128 146 101 154 Q 98 155 94 154 Q 91 153 88 151 Q 85 148 89 148 Q 108 144 124 142" fill="#000080" clip-path="url(#clip-mask-14)" /><path d="M 163 163 Q 98 167 48 181 Q 43 182 37 181 Q 33 180 29 176 Q 25 171 30 170 Q 172 153 216 144 Q 226 142 240 152 Q 244 156 243 159 Q 241 162 219 161 Q 193 161 172 163" fill="#000080" clip-path="url(#clip-mask-15)" /><path d="M 77 231 L 76 233 Q 75 237 71 232 Q 68 229 67 224 Q 62 207 56 198 Q 55 194 56 193 Q 56 192 59 192 L 71 199 Q 71 202 75 218 L 76 226" fill="#000080" clip-path="url(#clip-mask-16)" /><path d="M 59 192 Q 77 194 96 183 Q 99 181 104 183 Q 110 187 114 189 L 97 195 Q 96 193 91 194 Q 78 197 71 199" fill="#000080" clip-path="url(#clip-mask-17)" /><path d="M 95 213 Q 98 196 97 195 L 114 189 Q 119 192 114 198 Q 110 201 106 214" fill="#000080" clip-path="url(#clip-mask-18)" /><path d="M 75 218 Q 83 216 94 213 Q 94 213 95 213 L 106 214 Q 111 217 111 218 Q 111 221 109 221 Q 89 223 80 225 Q 78 226 76 226" fill="#000080" clip-path="url(#clip-mask-19)" /><path d="M 153 196 L 141 198 Q 131 199 124 195 Q 120 190 126 190 Q 165 185 169 185 L 181 182 Q 198 177 203 179 Q 207 180 208 181 Q 212 184 212 186 Q 210 189 208 188 Q 181 191 181 192 L 170 193" fill="#000080" clip-path="url(#clip-mask-20)" /><path d="M 169 185 Q 169 175 165 167 Q 163 164 163 163 L 172 163 Q 177 165 181 169 Q 185 172 183 176 Q 182 179 181 182 L 181 192 Q 181 208 182 224 Q 183 248 175 256 Q 172 260 169 256 L 166 232 Q 169 231 169 226 Q 170 214 170 193" fill="#000080" clip-path="url(#clip-mask-21)" /><path d="M 169 256 Q 164 248 148 235 Q 145 233 145 232 Q 145 230 148 231 Q 165 233 166 232" fill="#000080" clip-path="url(#clip-mask-22)" /><path d="M 123 208 L 123 207 Q 123 204 124 204 Q 125 203 127 204 Q 143 210 144 215 Q 145 220 144 222 Q 143 224 141 224 Q 139 223 127 212" fill="#000080" clip-path="url(#clip-mask-23)" /></svg>