<svg xmlns="http://www.w3.org/2000/svg" xmlns:xlink="http://www.w3.org/1999/xlink" width="270" height="270"><defs><clipPath id="clip-mask-1"><rect x="52" y="20" width="49" height="61"><animate attributeName="y" from="-41" to="20" dur="0.226" begin="0; animate28.end + 1" id="animate1" fill="freeze"/></rect></clipPath><clipPath id="clip-mask-2"><rect x="89" y="35" width="49" height="15"><set attributeName="x" to="40" begin="0; animate28.end + 1" /><animate attributeName="x" from="40" to="89" dur="0.181" begin="animate1.end + 0.5" id="animate2" fill="freeze"/></rect></clipPath><clipPath id="clip-mask-3"><rect x="91" y="56" width="23" height="20"><set attributeName="x" to="68" begin="0; animate28.end + 1" /><animate attributeName="x" from="68" to="91" dur="0.085" begin="animate2.end + 0.5" id="animate3" fill="freeze"/></rect></clipPath><clipPath id="clip-mask-4"><rect x="130" y="12" width="44" height="60"><set attributeName="y" to="-48" begin="0; animate28.end + 1" /><animate attributeName="y" from="-48" to="12" dur="0.222" begin="animate3.end + 0.5" id="animate4" fill="freeze"/></rect></clipPath><clipPath id="clip-mask-5"><rect x="162" y="27" width="58" height="19"><set attributeName="x" to="104" begin="0; animate28.end + 1" /><animate attributeName="x" from="104" to="162" dur="0.215" begin="animate4.end + 0.5" id="animate5" fill="freeze"/></rect></clipPath><clipPath id="clip-mask-6"><rect x="163" y="53" width="25" height="20"><set attributeName="x" to="138" begin="0; animate28.end + 1" /><animate attributeName="x" from="138" to="163" dur="0.093" begin="animate5.end + 0.5" id="animate6" fill="freeze"/></rect></clipPath><clipPath id="clip-mask-7"><rect x="82" y="76" width="22" height="21"><set attributeName="x" to="60" begin="0; animate28.end + 1" /><animate attributeName="x" from="60" to="82" dur="0.081" begin="animate6.end + 0.5" id="animate7" fill="freeze"/></rect></clipPath><clipPath id="clip-mask-8"><rect x="50" y="90" width="79" height="23"><set attributeName="x" to="-29" begin="0; animate28.end + 1" /><animate attributeName="x" from="-29" to="50" dur="0.293" begin="animate7.end + 0.5" id="animate8" fill="freeze"/></rect></clipPath><clipPath id="clip-mask-9"><rect x="67" y="111" width="14" height="23"><set attributeName="y" to="88" begin="0; animate28.end + 1" /><animate attributeName="y" from="88" to="111" dur="0.085" begin="animate8.end + 0.5" id="animate9" fill="freeze"/></rect></clipPath><clipPath id="clip-mask-10"><rect x="99" y="103" width="20" height="29"><set attributeName="y" to="74" begin="0; animate28.end + 1" /><animate attributeName="y" from="74" to="103" dur="0.107" begin="animate9.end + 0.5" id="animate10" fill="freeze"/></rect></clipPath><clipPath id="clip-mask-11"><rect x="18" y="127" width="115" height="31"><set attributeName="x" to="-97" begin="0; animate28.end + 1" /><animate attributeName="x" from="-97" to="18" dur="0.426" begin="animate10.end + 0.5" id="animate11" fill="freeze"/></rect></clipPath><clipPath id="clip-mask-12"><rect x="49" y="154" width="26" height="90"><set attributeName="y" to="64" begin="0; animate28.end + 1" /><animate attributeName="y" from="64" to="154" dur="0.333" begin="animate11.end + 0.5" id="animate12" fill="freeze"/></rect></clipPath><clipPath id="clip-mask-13"><rect x="74" y="148" width="48" height="18"><set attributeName="x" to="26" begin="0; animate28.end + 1" /><animate attributeName="x" from="26" to="74" dur="0.178" begin="animate12.end + 0.5" id="animate13" fill="freeze"/></rect></clipPath><clipPath id="clip-mask-14"><rect x="100" y="159" width="19" height="98"><set attributeName="y" to="61" begin="0; animate28.end + 1" /><animate attributeName="y" from="61" to="159" dur="0.363" begin="animate13.end" id="animate14" fill="freeze"/></rect></clipPath><clipPath id="clip-mask-15"><rect x="83" y="234" width="19" height="17"><set attributeName="x" to="102" begin="0; animate28.end + 1" /><animate attributeName="x" from="102" to="83" dur="0.070" begin="animate14.end" id="animate15" fill="freeze"/></rect></clipPath><clipPath id="clip-mask-16"><rect x="72" y="175" width="28" height="12"><set attributeName="x" to="44" begin="0; animate28.end + 1" /><animate attributeName="x" from="44" to="72" dur="0.104" begin="animate15.end + 0.5" id="animate16" fill="freeze"/></rect></clipPath><clipPath id="clip-mask-17"><rect x="70" y="197" width="29" height="12"><set attributeName="x" to="41" begin="0; animate28.end + 1" /><animate attributeName="x" from="41" to="70" dur="0.107" begin="animate16.end + 0.5" id="animate17" fill="freeze"/></rect></clipPath><clipPath id="clip-mask-18"><rect x="156" y="79" width="46" height="17"><set attributeName="x" to="110" begin="0; animate28.end + 1" /><animate attributeName="x" from="110" to="156" dur="0.170" begin="animate17.end + 0.5" id="animate18" fill="freeze"/></rect></clipPath><clipPath id="clip-mask-19"><rect x="137" y="68" width="28" height="58"><set attributeName="y" to="10" begin="0; animate28.end + 1" /><animate attributeName="y" from="10" to="68" dur="0.215" begin="animate18.end + 0.5" id="animate19" fill="freeze"/></rect></clipPath><clipPath id="clip-mask-20"><rect x="147" y="102" width="59" height="21"><set attributeName="x" to="88" begin="0; animate28.end + 1" /><animate attributeName="x" from="88" to="147" dur="0.219" begin="animate19.end" id="animate20" fill="freeze"/></rect></clipPath><clipPath id="clip-mask-21"><rect x="179" y="115" width="28" height="21"><set attributeName="y" to="94" begin="0; animate28.end + 1" /><animate attributeName="y" from="94" to="115" dur="0.078" begin="animate20.end" id="animate21" fill="freeze"/></rect></clipPath><clipPath id="clip-mask-22"><rect x="147" y="135" width="51" height="16"><set attributeName="x" to="96" begin="0; animate28.end + 1" /><animate attributeName="x" from="96" to="147" dur="0.189" begin="animate21.end + 0.5" id="animate22" fill="freeze"/></rect></clipPath><clipPath id="clip-mask-23"><rect x="132" y="137" width="28" height="100"><set attributeName="y" to="37" begin="0; animate28.end + 1" /><animate attributeName="y" from="37" to="137" dur="0.370" begin="animate22.end + 0.5" id="animate23" fill="freeze"/></rect></clipPath><clipPath id="clip-mask-24"><rect x="146" y="221" width="105" height="33"><set attributeName="x" to="41" begin="0; animate28.end + 1" /><animate attributeName="x" from="41" to="146" dur="0.389" begin="animate23.end" id="animate24" fill="freeze"/></rect></clipPath><clipPath id="clip-mask-25"><rect x="221" y="191" width="26" height="31"><set attributeName="y" to="222" begin="0; animate28.end + 1" /><animate attributeName="y" from="222" to="191" dur="0.115" begin="animate24.end" id="animate25" fill="freeze"/></rect></clipPath><clipPath id="clip-mask-26"><rect x="146" y="156" width="48" height="16"><set attributeName="x" to="98" begin="0; animate28.end + 1" /><animate attributeName="x" from="98" to="146" dur="0.178" begin="animate25.end + 0.5" id="animate26" fill="freeze"/></rect></clipPath><clipPath id="clip-mask-27"><rect x="145" y="175" width="51" height="15"><set attributeName="x" to="94" begin="0; animate28.end + 1" /><animate attributeName="x" from="94" to="145" dur="0.189" begin="animate26.end + 0.5" id="animate27" fill="freeze"/></rect></clipPath><clipPath id="clip-mask-28"><rect x="145" y="195" width="53" height="17"><set attributeName="x" to="92" begin="0; animate28.end + 1" /><animate attributeName="x" from="92" to="145" dur="0.196" begin="animate27.end + 0.5" id="animate28" fill="freeze"/></rect></clipPath></defs><path d="M 0 0 L 270 270 M 270 0 L 0 270 M 135 0 L 135 270 M 0 135 L 270 135" stroke="#CCCCCC" /><path d="M 87 51 L 86 53 Q 68 77 55 80 Q 52 81 54 78 Q 61 68 62 68 Q 82 45 80 25 Q 80 21 82 21 Q 88 20 97 27 Q 101 31 98 33 Q 95 37 93 41 L 89 47" fill="#CCCCCC"/><path d="M 93 41 Q 99 41 106 40 Q 126 35 130 36 Q 136 38 137 40 Q 138 42 136 44 Q 135 44 130 45 Q 122 46 115 48 Q 97 50 89 47" fill="#CCCCCC"/><path d="M 91 61 L 92 59 Q 92 56 94 57 Q 97 57 105 60 Q 110 62 112 65 Q 114 69 114 72 Q 113 76 110 76 Q 105 76 93 62" fill="#CCCCCC"/><path d="M 154 55 L 141 66 Q 137 70 133 71 Q 130 72 132 68 Q 134 65 138 59 Q 156 35 153 17 Q 152 14 154 13 Q 160 12 170 19 Q 174 22 172 25 Q 168 31 164 38 L 162 42" fill="#CCCCCC"/><path d="M 164 38 Q 164 38 165 38 Q 175 37 183 35 Q 190 33 197 30 Q 204 27 210 28 Q 217 29 218 32 Q 220 34 218 36 Q 217 36 217 36 Q 176 46 172 46 Q 164 44 162 42" fill="#CCCCCC"/><path d="M 164 59 L 163 57 Q 163 55 164 54 Q 167 53 179 56 Q 184 58 186 61 Q 188 67 187 70 Q 186 73 184 73 Q 181 73 170 63" fill="#CCCCCC"/><path d="M 97 97 Q 96 96 95 95 Q 91 90 87 86 Q 82 81 82 80 Q 82 77 83 77 Q 84 76 87 77 Q 102 82 103 88 Q 104 93 103 95" fill="#CCCCCC"/><path d="M 103 104 Q 85 107 72 111 L 68 112 Q 61 113 59 112 Q 56 111 54 109 Q 50 106 55 105 Q 79 101 94 98 Q 95 97 97 97 L 103 95 Q 118 90 125 94 Q 129 95 129 98 Q 127 100 126 100 Q 117 101 108 103" fill="#CCCCCC"/><path d="M 72 111 Q 81 117 81 125 Q 81 129 80 131 Q 77 134 75 132 Q 73 131 72 127 Q 67 113 68 112" fill="#CCCCCC"/><path d="M 100 131 L 100 130 Q 105 109 103 106 Q 102 104 103 104 L 108 103 Q 109 103 109 103 Q 115 107 117 110 Q 119 112 116 114 Q 113 118 106 131 L 99 132" fill="#CCCCCC"/><path d="M 106 131 Q 122 127 129 130 Q 133 132 133 135 Q 132 136 129 136 Q 79 142 39 155 Q 31 158 21 152 Q 18 149 19 147 Q 20 145 22 145 Q 47 142 99 132" fill="#CCCCCC"/><path d="M 70 211 L 70 215 Q 67 239 60 243 Q 58 244 56 241 Q 49 231 57 220 Q 70 181 60 158 Q 60 155 62 154 Q 70 155 74 159 L 75 166 Q 74 170 73 180 L 72 187 Q 71 194 71 203 L 70 209" fill="#CCCCCC"/><path d="M 74 159 Q 90 155 101 149 Q 103 148 107 149 Q 115 153 119 156 Q 122 158 119 162 L 104 159 Q 102 158 79 164 Q 77 165 75 166" fill="#CCCCCC"/><path d="M 119 162 Q 115 170 118 234 Q 119 247 110 255 Q 108 257 106 256 Q 103 256 100 251 L 102 236 Q 104 233 104 227 Q 106 204 105 165 Q 105 160 104 159" fill="#CCCCCC"/><path d="M 100 251 Q 94 245 83 236 Q 83 234 87 235 Q 102 236 102 236" fill="#CCCCCC"/><path d="M 73 180 Q 82 175 90 175 Q 95 176 98 179 Q 100 181 95 182 Q 73 186 72 187" fill="#CCCCCC"/><path d="M 71 203 Q 84 197 90 198 Q 95 199 98 201 Q 99 204 95 205 L 70 209" fill="#CCCCCC"/><path d="M 159 89 Q 165 87 171 86 Q 190 79 194 80 Q 199 81 201 82 Q 202 84 200 86 Q 199 87 173 94 Q 167 96 156 95" fill="#CCCCCC"/><path d="M 147 123 Q 144 126 141 121 Q 137 116 139 113 Q 146 104 146 87 Q 147 79 144 74 Q 142 70 145 69 Q 149 68 159 74 Q 165 78 162 84 Q 160 85 159 89 L 156 95 Q 154 101 152 109" fill="#CCCCCC"/><path d="M 185 116 Q 183 114 177 115 Q 156 118 147 123 L 152 109 Q 151 113 155 112 Q 174 108 187 105 Q 191 102 196 106 Q 206 113 206 115" fill="#CCCCCC"/><path d="M 179 136 Q 179 134 181 132 Q 183 127 184 123 Q 186 118 185 116 L 206 115 Q 207 117 203 119 Q 202 119 201 120 Q 201 121 191 135" fill="#CCCCCC"/><path d="M 147 143 Q 161 140 179 136 L 191 135 Q 198 139 198 141 Q 198 143 195 143 Q 165 147 152 150 Q 150 151 149 151" fill="#CCCCCC"/><path d="M 148 222 L 160 228 L 146 237 Q 140 231 138 224 Q 134 210 136 161 Q 137 153 133 143 Q 132 139 134 138 Q 135 137 139 138 Q 144 140 147 143 Q 147 143 147 143 L 149 151 Q 147 158 147 164 L 146 167 Q 145 175 145 182 L 145 188 Q 145 202 145 203 L 145 207" fill="#CCCCCC"/><path d="M 160 228 Q 182 236 207 230 Q 218 227 221 222 L 247 221 Q 251 228 245 233 Q 234 241 223 244 Q 218 246 214 247 Q 167 254 146 237" fill="#CCCCCC"/><path d="M 221 222 Q 225 216 232 196 Q 233 191 235 192 Q 237 193 237 197 Q 243 215 247 221" fill="#CCCCCC"/><path d="M 147 164 Q 148 164 149 163 Q 157 163 163 161 Q 184 156 186 156 Q 192 157 194 160 Q 194 161 193 163 Q 193 163 193 163 Q 166 172 155 170 Q 149 169 146 167" fill="#CCCCCC"/><path d="M 145 182 Q 154 181 162 180 Q 169 179 175 177 Q 182 175 188 176 Q 194 178 195 181 Q 196 182 194 184 Q 194 184 168 189 Q 154 190 145 188" fill="#CCCCCC"/><path d="M 145 203 Q 146 203 148 203 Q 157 202 164 201 Q 171 200 177 198 Q 184 195 190 197 Q 196 199 197 201 Q 198 203 196 205 Q 195 206 171 209 Q 154 212 145 207" fill="#CCCCCC"/><path d="M 87 51 L 86 53 Q 68 77 55 80 Q 52 81 54 78 Q 61 68 62 68 Q 82 45 80 25 Q 80 21 82 21 Q 88 20 97 27 Q 101 31 98 33 Q 95 37 93 41 L 89 47" fill="#0000ff" clip-path="url(#clip-mask-1)" /><path d="M 93 41 Q 99 41 106 40 Q 126 35 130 36 Q 136 38 137 40 Q 138 42 136 44 Q 135 44 130 45 Q 122 46 115 48 Q 97 50 89 47" fill="#0000ff" clip-path="url(#clip-mask-2)" /><path d="M 91 61 L 92 59 Q 92 56 94 57 Q 97 57 105 60 Q 110 62 112 65 Q 114 69 114 72 Q 113 76 110 76 Q 105 76 93 62" fill="#0000ff" clip-path="url(#clip-mask-3)" /><path d="M 154 55 L 141 66 Q 137 70 133 71 Q 130 72 132 68 Q 134 65 138 59 Q 156 35 153 17 Q 152 14 154 13 Q 160 12 170 19 Q 174 22 172 25 Q 168 31 164 38 L 162 42" fill="#0000ff" clip-path="url(#clip-mask-4)" /><path d="M 164 38 Q 164 38 165 38 Q 175 37 183 35 Q 190 33 197 30 Q 204 27 210 28 Q 217 29 218 32 Q 220 34 218 36 Q 217 36 217 36 Q 176 46 172 46 Q 164 44 162 42" fill="#0000ff" clip-path="url(#clip-mask-5)" /><path d="M 164 59 L 163 57 Q 163 55 164 54 Q 167 53 179 56 Q 184 58 186 61 Q 188 67 187 70 Q 186 73 184 73 Q 181 73 170 63" fill="#0000ff" clip-path="url(#clip-mask-6)" /><path d="M 97 97 Q 96 96 95 95 Q 91 90 87 86 Q 82 81 82 80 Q 82 77 83 77 Q 84 76 87 77 Q 102 82 103 88 Q 104 93 103 95" fill="#000080" clip-path="url(#clip-mask-7)" /><path d="M 103 104 Q 85 107 72 111 L 68 112 Q 61 113 59 112 Q 56 111 54 109 Q 50 106 55 105 Q 79 101 94 98 Q 95 97 97 97 L 103 95 Q 118 90 125 94 Q 129 95 129 98 Q 127 100 126 100 Q 117 101 108 103" fill="#000080" clip-path="url(#clip-mask-8)" /><path d="M 72 111 Q 81 117 81 125 Q 81 129 80 131 Q 77 134 75 132 Q 73 131 72 127 Q 67 113 68 112" fill="#000080" clip-path="url(#clip-mask-9)" /><path d="M 100 131 L 100 130 Q 105 109 103 106 Q 102 104 103 104 L 108 103 Q 109 103 109 103 Q 115 107 117 110 Q 119 112 116 114 Q 113 118 106 131 L 99 132" fill="#000080" clip-path="url(#clip-mask-10)" /><path d="M 106 131 Q 122 127 129 130 Q 133 132 133 135 Q 132 136 129 136 Q 79 142 39 155 Q 31 158 21 152 Q 18 149 19 147 Q 20 145 22 145 Q 47 142 99 132" fill="#000080" clip-path="url(#clip-mask-11)" /><path d="M 70 211 L 70 215 Q 67 239 60 243 Q 58 244 56 241 Q 49 231 57 220 Q 70 181 60 158 Q 60 155 62 154 Q 70 155 74 159 L 75 166 Q 74 170 73 180 L 72 187 Q 71 194 71 203 L 70 209" fill="#000080" clip-path="url(#clip-mask-12)" /><path d="M 74 159 Q 90 155 101 149 Q 103 148 107 149 Q 115 153 119 156 Q 122 158 119 162 L 104 159 Q 102 158 79 164 Q 77 165 75 166" fill="#000080" clip-path="url(#clip-mask-13)" /><path d="M 119 162 Q 115 170 118 234 Q 119 247 110 255 Q 108 257 106 256 Q 103 256 100 251 L 102 236 Q 104 233 104 227 Q 106 204 105 165 Q 105 160 104 159" fill="#000080" clip-path="url(#clip-mask-14)" /><path d="M 100 251 Q 94 245 83 236 Q 83 234 87 235 Q 102 236 102 236" fill="#000080" clip-path="url(#clip-mask-15)" /><path d="M 73 180 Q 82 175 90 175 Q 95 176 98 179 Q 100 181 95 182 Q 73 186 72 187" fill="#000080" clip-path="url(#clip-mask-16)" /><path d="M 71 203 Q 84 197 90 198 Q 95 199 98 201 Q 99 204 95 205 L 70 209" fill="#000080" clip-path="url(#clip-mask-17)" /><path d="M 159 89 Q 165 87 171 86 Q 190 79 194 80 Q 199 81 201 82 Q 202 84 200 86 Q 199 87 173 94 Q 167 96 156 95" fill="#000080" clip-path="url(#clip-mask-18)" /><path d="M 147 123 Q 144 126 141 121 Q 137 116 139 113 Q 146 104 146 87 Q 147 79 144 74 Q 142 70 145 69 Q 149 68 159 74 Q 165 78 162 84 Q 160 85 159 89 L 156 95 Q 154 101 152 109" fill="#000080" clip-path="url(#clip-mask-19)" /><path d="M 185 116 Q 183 114 177 115 Q 156 118 147 123 L 152 109 Q 151 113 155 112 Q 174 108 187 105 Q 191 102 196 106 Q 206 113 206 115" fill="#000080" clip-path="url(#clip-mask-20)" /><path d="M 179 136 Q 179 134 181 132 Q 183 127 184 123 Q 186 118 185 116 L 206 115 Q 207 117 203 119 Q 202 119 201 120 Q 201 121 191 135" fill="#000080" clip-path="url(#clip-mask-21)" /><path d="M 147 143 Q 161 140 179 136 L 191 135 Q 198 139 198 141 Q 198 143 195 143 Q 165 147 152 150 Q 150 151 149 151" fill="#000080" clip-path="url(#clip-mask-22)" /><path d="M 148 222 L 160 228 L 146 237 Q 140 231 138 224 Q 134 210 136 161 Q 137 153 133 143 Q 132 139 134 138 Q 135 137 139 138 Q 144 140 147 143 Q 147 143 147 143 L 149 151 Q 147 158 147 164 L 146 167 Q 145 175 145 182 L 145 188 Q 145 202 145 203 L 145 207" fill="#000080" clip-path="url(#clip-mask-23)" /><path d="M 160 228 Q 182 236 207 230 Q 218 227 221 222 L 247 221 Q 251 228 245 233 Q 234 241 223 244 Q 218 246 214 247 Q 167 254 146 237" fill="#000080" clip-path="url(#clip-mask-24)" /><path d="M 221 222 Q 225 216 232 196 Q 233 191 235 192 Q 237 193 237 197 Q 243 215 247 221" fill="#000080" clip-path="url(#clip-mask-25)" /><path d="M 147 164 Q 148 164 149 163 Q 157 163 163 161 Q 184 156 186 156 Q 192 157 194 160 Q 194 161 193 163 Q 193 163 193 163 Q 166 172 155 170 Q 149 169 146 167" fill="#000080" clip-path="url(#clip-mask-26)" /><path d="M 145 182 Q 154 181 162 180 Q 169 179 175 177 Q 182 175 188 176 Q 194 178 195 181 Q 196 182 194 184 Q 194 184 168 189 Q 154 190 145 188" fill="#000080" clip-path="url(#clip-mask-27)" /><path d="M 145 203 Q 146 203 148 203 Q 157 202 164 201 Q 171 200 177 198 Q 184 195 190 197 Q 196 199 197 201 Q 198 203 196 205 Q 195 206 171 209 Q 154 212 145 207" fill="#000080" clip-path="url(#clip-mask-28)" /></svg>