<svg xmlns="http://www.w3.org/2000/svg" xmlns:xlink="http://www.w3.org/1999/xlink" width="270" height="270"><defs><clipPath id="clip-mask-1"><rect x="38" y="26" width="65" height="94"><animate attributeName="y" from="-68" to="26" dur="0.348" begin="0; animate13.end + 1" id="animate1" fill="freeze"/></rect></clipPath><clipPath id="clip-mask-2"><rect x="50" y="97" width="37" height="21"><set attributeName="x" to="13" begin="0; animate13.end + 1" /><animate attributeName="x" from="13" to="50" dur="0.137" begin="animate1.end" id="animate2" fill="freeze"/></rect></clipPath><clipPath id="clip-mask-3"><rect x="48" y="61" width="76" height="100"><set attributeName="y" to="-39" begin="0; animate13.end + 1" /><animate attributeName="y" from="-39" to="61" dur="0.370" begin="animate2.end + 0.5" id="animate3" fill="freeze"/></rect></clipPath><clipPath id="clip-mask-4"><rect x="62" y="130" width="44" height="28"><set attributeName="x" to="18" begin="0; animate13.end + 1" /><animate attributeName="x" from="18" to="62" dur="0.163" begin="animate3.end" id="animate4" fill="freeze"/></rect></clipPath><clipPath id="clip-mask-5"><rect x="100" y="116" width="21" height="28"><set attributeName="y" to="88" begin="0; animate13.end + 1" /><animate attributeName="y" from="88" to="116" dur="0.104" begin="animate4.end + 0.5" id="animate5" fill="freeze"/></rect></clipPath><clipPath id="clip-mask-6"><rect x="31" y="174" width="31" height="47"><set attributeName="y" to="127" begin="0; animate13.end + 1" /><animate attributeName="y" from="127" to="174" dur="0.174" begin="animate5.end + 0.5" id="animate6" fill="freeze"/></rect></clipPath><clipPath id="clip-mask-7"><rect x="68" y="170" width="22" height="29"><set attributeName="y" to="141" begin="0; animate13.end + 1" /><animate attributeName="y" from="141" to="170" dur="0.107" begin="animate6.end + 0.5" id="animate7" fill="freeze"/></rect></clipPath><clipPath id="clip-mask-8"><rect x="94" y="156" width="25" height="29"><set attributeName="y" to="127" begin="0; animate13.end + 1" /><animate attributeName="y" from="127" to="156" dur="0.107" begin="animate7.end + 0.5" id="animate8" fill="freeze"/></rect></clipPath><clipPath id="clip-mask-9"><rect x="126" y="28" width="68" height="96"><set attributeName="y" to="-68" begin="0; animate13.end + 1" /><animate attributeName="y" from="-68" to="28" dur="0.356" begin="animate8.end + 0.5" id="animate9" fill="freeze"/></rect></clipPath><clipPath id="clip-mask-10"><rect x="151" y="84" width="87" height="26"><set attributeName="x" to="64" begin="0; animate13.end + 1" /><animate attributeName="x" from="64" to="151" dur="0.322" begin="animate9.end + 0.5" id="animate10" fill="freeze"/></rect></clipPath><clipPath id="clip-mask-11"><rect x="195" y="103" width="39" height="138"><set attributeName="y" to="-35" begin="0; animate13.end + 1" /><animate attributeName="y" from="-35" to="103" dur="0.511" begin="animate10.end" id="animate11" fill="freeze"/></rect></clipPath><clipPath id="clip-mask-12"><rect x="160" y="207" width="35" height="36"><set attributeName="x" to="195" begin="0; animate13.end + 1" /><animate attributeName="x" from="195" to="160" dur="0.130" begin="animate11.end" id="animate12" fill="freeze"/></rect></clipPath><clipPath id="clip-mask-13"><rect x="136" y="133" width="38" height="39"><set attributeName="x" to="98" begin="0; animate13.end + 1" /><animate attributeName="x" from="98" to="136" dur="0.141" begin="animate12.end + 0.5" id="animate13" fill="freeze"/></rect></clipPath></defs><path d="M 0 0 L 270 270 M 270 0 L 0 270 M 135 0 L 135 270 M 0 135 L 270 135" stroke="#CCCCCC" /><path d="M 50 118 Q 46 120 44 116 Q 40 111 39 106 Q 38 103 44 99 Q 54 91 60 82 Q 86 43 82 32 Q 81 27 84 27 Q 89 26 93 30 Q 103 39 103 43 Q 103 45 99 49 Q 81 70 61 97" fill="#CCCCCC"/><path d="M 82 109 Q 59 112 50 118 L 61 97 Q 59 102 65 102 Q 75 102 87 102" fill="#CCCCCC"/><path d="M 62 158 Q 58 161 55 158 Q 48 153 48 150 Q 48 147 51 144 Q 57 141 82 109 L 87 102 Q 104 78 103 67 Q 103 63 106 62 Q 108 61 112 64 Q 120 69 123 74 Q 124 76 121 79 Q 114 84 107 94 Q 82 123 70 137" fill="#CCCCCC"/><path d="M 79 145 L 62 158 L 70 137 Q 69 141 72 140 Q 89 134 104 130 L 106 135" fill="#CCCCCC"/><path d="M 104 130 Q 100 121 100 119 Q 102 116 103 117 Q 118 124 120 132 Q 121 137 120 140 Q 117 144 114 143 Q 109 141 106 135" fill="#CCCCCC"/><path d="M 31 181 L 31 178 Q 32 174 34 174 Q 39 174 56 192 Q 62 201 61 207 Q 60 216 57 219 Q 54 221 52 220 Q 47 219 46 214 Q 40 200 35 189" fill="#CCCCCC"/><path d="M 68 176 L 68 173 Q 69 170 70 170 Q 72 170 75 172 Q 90 181 90 187 Q 90 195 88 197 Q 86 199 84 199 Q 80 197 73 182" fill="#CCCCCC"/><path d="M 94 162 L 94 159 Q 95 156 96 156 Q 98 156 101 158 Q 118 166 119 176 Q 119 180 117 183 Q 114 185 111 184 Q 104 179 97 166" fill="#CCCCCC"/><path d="M 134 122 L 130 123 Q 126 124 127 121 Q 127 119 130 116 Q 144 98 153 81 Q 163 64 170 46 Q 172 41 169 34 Q 166 29 171 28 Q 177 28 184 33 Q 192 39 193 42 Q 194 46 192 49 Q 187 53 182 62 Q 170 82 159 96 Q 157 98 155 100 L 151 105" fill="#CCCCCC"/><path d="M 155 100 Q 170 99 201 90 Q 216 84 222 87 Q 231 90 235 95 Q 238 98 234 103 L 210 103 Q 208 99 165 109 Q 160 110 154 107 Q 152 106 151 105" fill="#CCCCCC"/><path d="M 234 103 Q 228 114 227 132 Q 225 210 207 232 Q 200 240 195 241 L 195 213 Q 200 208 203 192 Q 211 167 212 120 Q 212 108 210 103" fill="#CCCCCC"/><path d="M 195 241 Q 189 243 186 237 Q 178 226 164 213 Q 160 207 166 209 Q 175 211 185 215 Q 192 216 195 213" fill="#CCCCCC"/><path d="M 137 141 L 136 138 Q 136 134 138 133 Q 140 133 144 134 Q 171 146 173 156 Q 174 164 172 168 Q 170 172 167 171 Q 163 171 160 167 Q 151 156 143 148" fill="#CCCCCC"/><path d="M 50 118 Q 46 120 44 116 Q 40 111 39 106 Q 38 103 44 99 Q 54 91 60 82 Q 86 43 82 32 Q 81 27 84 27 Q 89 26 93 30 Q 103 39 103 43 Q 103 45 99 49 Q 81 70 61 97" fill="#0000ff" clip-path="url(#clip-mask-1)" /><path d="M 82 109 Q 59 112 50 118 L 61 97 Q 59 102 65 102 Q 75 102 87 102" fill="#0000ff" clip-path="url(#clip-mask-2)" /><path d="M 62 158 Q 58 161 55 158 Q 48 153 48 150 Q 48 147 51 144 Q 57 141 82 109 L 87 102 Q 104 78 103 67 Q 103 63 106 62 Q 108 61 112 64 Q 120 69 123 74 Q 124 76 121 79 Q 114 84 107 94 Q 82 123 70 137" fill="#0000ff" clip-path="url(#clip-mask-3)" /><path d="M 79 145 L 62 158 L 70 137 Q 69 141 72 140 Q 89 134 104 130 L 106 135" fill="#0000ff" clip-path="url(#clip-mask-4)" /><path d="M 104 130 Q 100 121 100 119 Q 102 116 103 117 Q 118 124 120 132 Q 121 137 120 140 Q 117 144 114 143 Q 109 141 106 135" fill="#0000ff" clip-path="url(#clip-mask-5)" /><path d="M 31 181 L 31 178 Q 32 174 34 174 Q 39 174 56 192 Q 62 201 61 207 Q 60 216 57 219 Q 54 221 52 220 Q 47 219 46 214 Q 40 200 35 189" fill="#0000ff" clip-path="url(#clip-mask-6)" /><path d="M 68 176 L 68 173 Q 69 170 70 170 Q 72 170 75 172 Q 90 181 90 187 Q 90 195 88 197 Q 86 199 84 199 Q 80 197 73 182" fill="#0000ff" clip-path="url(#clip-mask-7)" /><path d="M 94 162 L 94 159 Q 95 156 96 156 Q 98 156 101 158 Q 118 166 119 176 Q 119 180 117 183 Q 114 185 111 184 Q 104 179 97 166" fill="#0000ff" clip-path="url(#clip-mask-8)" /><path d="M 134 122 L 130 123 Q 126 124 127 121 Q 127 119 130 116 Q 144 98 153 81 Q 163 64 170 46 Q 172 41 169 34 Q 166 29 171 28 Q 177 28 184 33 Q 192 39 193 42 Q 194 46 192 49 Q 187 53 182 62 Q 170 82 159 96 Q 157 98 155 100 L 151 105" fill="#000080" clip-path="url(#clip-mask-9)" /><path d="M 155 100 Q 170 99 201 90 Q 216 84 222 87 Q 231 90 235 95 Q 238 98 234 103 L 210 103 Q 208 99 165 109 Q 160 110 154 107 Q 152 106 151 105" fill="#000080" clip-path="url(#clip-mask-10)" /><path d="M 234 103 Q 228 114 227 132 Q 225 210 207 232 Q 200 240 195 241 L 195 213 Q 200 208 203 192 Q 211 167 212 120 Q 212 108 210 103" fill="#000080" clip-path="url(#clip-mask-11)" /><path d="M 195 241 Q 189 243 186 237 Q 178 226 164 213 Q 160 207 166 209 Q 175 211 185 215 Q 192 216 195 213" fill="#000080" clip-path="url(#clip-mask-12)" /><path d="M 137 141 L 136 138 Q 136 134 138 133 Q 140 133 144 134 Q 171 146 173 156 Q 174 164 172 168 Q 170 172 167 171 Q 163 171 160 167 Q 151 156 143 148" fill="#000080" clip-path="url(#clip-mask-13)" /></svg>