<svg xmlns="http://www.w3.org/2000/svg" xmlns:xlink="http://www.w3.org/1999/xlink" width="270" height="270"><defs><clipPath id="clip-mask-1"><rect x="27" y="28" width="56" height="98"><animate attributeName="y" from="-70" to="28" dur="0.363" begin="0; animate22.end + 1" id="animate1" fill="freeze"/></rect></clipPath><clipPath id="clip-mask-2"><rect x="39" y="103" width="34" height="21"><set attributeName="x" to="5" begin="0; animate22.end + 1" /><animate attributeName="x" from="5" to="39" dur="0.126" begin="animate1.end" id="animate2" fill="freeze"/></rect></clipPath><clipPath id="clip-mask-3"><rect x="33" y="69" width="72" height="101"><set attributeName="y" to="-32" begin="0; animate22.end + 1" /><animate attributeName="y" from="-32" to="69" dur="0.374" begin="animate2.end + 0.5" id="animate3" fill="freeze"/></rect></clipPath><clipPath id="clip-mask-4"><rect x="48" y="138" width="39" height="29"><set attributeName="x" to="9" begin="0; animate22.end + 1" /><animate attributeName="x" from="9" to="48" dur="0.144" begin="animate3.end" id="animate4" fill="freeze"/></rect></clipPath><clipPath id="clip-mask-5"><rect x="81" y="126" width="22" height="31"><set attributeName="y" to="95" begin="0; animate22.end + 1" /><animate attributeName="y" from="95" to="126" dur="0.115" begin="animate4.end + 0.5" id="animate5" fill="freeze"/></rect></clipPath><clipPath id="clip-mask-6"><rect x="17" y="187" width="30" height="45"><set attributeName="y" to="142" begin="0; animate22.end + 1" /><animate attributeName="y" from="142" to="187" dur="0.167" begin="animate5.end + 0.5" id="animate6" fill="freeze"/></rect></clipPath><clipPath id="clip-mask-7"><rect x="48" y="179" width="21" height="27"><set attributeName="y" to="152" begin="0; animate22.end + 1" /><animate attributeName="y" from="152" to="179" dur="0.100" begin="animate6.end + 0.5" id="animate7" fill="freeze"/></rect></clipPath><clipPath id="clip-mask-8"><rect x="76" y="166" width="22" height="25"><set attributeName="y" to="141" begin="0; animate22.end + 1" /><animate attributeName="y" from="141" to="166" dur="0.093" begin="animate7.end + 0.5" id="animate8" fill="freeze"/></rect></clipPath><clipPath id="clip-mask-9"><rect x="134" y="21" width="38" height="53"><set attributeName="y" to="-32" begin="0; animate22.end + 1" /><animate attributeName="y" from="-32" to="21" dur="0.196" begin="animate8.end + 0.5" id="animate9" fill="freeze"/></rect></clipPath><clipPath id="clip-mask-10"><rect x="109" y="71" width="25" height="99"><set attributeName="y" to="-28" begin="0; animate22.end + 1" /><animate attributeName="y" from="-28" to="71" dur="0.367" begin="animate9.end + 0.5" id="animate10" fill="freeze"/></rect></clipPath><clipPath id="clip-mask-11"><rect x="122" y="59" width="97" height="24"><set attributeName="x" to="25" begin="0; animate22.end + 1" /><animate attributeName="x" from="25" to="122" dur="0.359" begin="animate10.end + 0.5" id="animate11" fill="freeze"/></rect></clipPath><clipPath id="clip-mask-12"><rect x="184" y="70" width="38" height="101"><set attributeName="y" to="-31" begin="0; animate22.end + 1" /><animate attributeName="y" from="-31" to="70" dur="0.374" begin="animate11.end" id="animate12" fill="freeze"/></rect></clipPath><clipPath id="clip-mask-13"><rect x="133" y="77" width="31" height="42"><set attributeName="y" to="35" begin="0; animate22.end + 1" /><animate attributeName="y" from="35" to="77" dur="0.156" begin="animate12.end + 0.5" id="animate13" fill="freeze"/></rect></clipPath><clipPath id="clip-mask-14"><rect x="157" y="86" width="32" height="11"><set attributeName="x" to="125" begin="0; animate22.end + 1" /><animate attributeName="x" from="125" to="157" dur="0.119" begin="animate13.end + 0.5" id="animate14" fill="freeze"/></rect></clipPath><clipPath id="clip-mask-15"><rect x="133" y="95" width="53" height="52"><set attributeName="y" to="43" begin="0; animate22.end + 1" /><animate attributeName="y" from="43" to="95" dur="0.193" begin="animate14.end" id="animate15" fill="freeze"/></rect></clipPath><clipPath id="clip-mask-16"><rect x="148" y="114" width="36" height="26"><set attributeName="x" to="112" begin="0; animate22.end + 1" /><animate attributeName="x" from="112" to="148" dur="0.133" begin="animate15.end + 0.5" id="animate16" fill="freeze"/></rect></clipPath><clipPath id="clip-mask-17"><rect x="134" y="148" width="53" height="16"><set attributeName="x" to="81" begin="0; animate22.end + 1" /><animate attributeName="x" from="81" to="134" dur="0.196" begin="animate16.end + 0.5" id="animate17" fill="freeze"/></rect></clipPath><clipPath id="clip-mask-18"><rect x="89" y="186" width="26" height="54"><set attributeName="y" to="132" begin="0; animate22.end + 1" /><animate attributeName="y" from="132" to="186" dur="0.200" begin="animate17.end + 0.5" id="animate18" fill="freeze"/></rect></clipPath><clipPath id="clip-mask-19"><rect x="130" y="191" width="110" height="57"><set attributeName="x" to="20" begin="0; animate22.end + 1" /><animate attributeName="x" from="20" to="130" dur="0.407" begin="animate18.end + 0.5" id="animate19" fill="freeze"/></rect></clipPath><clipPath id="clip-mask-20"><rect x="204" y="195" width="27" height="33"><set attributeName="y" to="228" begin="0; animate22.end + 1" /><animate attributeName="y" from="228" to="195" dur="0.122" begin="animate19.end" id="animate20" fill="freeze"/></rect></clipPath><clipPath id="clip-mask-21"><rect x="150" y="174" width="32" height="25"><set attributeName="x" to="118" begin="0; animate22.end + 1" /><animate attributeName="x" from="118" to="150" dur="0.119" begin="animate20.end + 0.5" id="animate21" fill="freeze"/></rect></clipPath><clipPath id="clip-mask-22"><rect x="209" y="166" width="43" height="37"><set attributeName="x" to="166" begin="0; animate22.end + 1" /><animate attributeName="x" from="166" to="209" dur="0.159" begin="animate21.end + 0.5" id="animate22" fill="freeze"/></rect></clipPath></defs><path d="M 0 0 L 270 270 M 270 0 L 0 270 M 135 0 L 135 270 M 0 135 L 270 135" stroke="#CCCCCC" /><path d="M 39 124 Q 36 126 33 123 Q 29 119 27 115 Q 27 112 31 108 Q 41 97 45 88 Q 66 45 61 34 Q 60 30 62 30 Q 67 28 71 31 Q 81 39 82 42 Q 83 44 79 49 Q 63 72 47 104" fill="#CCCCCC"/><path d="M 69 110 Q 68 111 66 111 Q 45 119 39 124 L 47 104 Q 45 108 50 107 Q 61 104 73 103" fill="#CCCCCC"/><path d="M 48 167 Q 45 170 41 167 Q 35 163 34 159 Q 33 156 36 153 Q 44 148 69 110 L 69 110 L 73 103 Q 83 83 83 75 Q 82 71 85 70 Q 87 69 91 71 Q 100 75 103 80 Q 105 83 101 85 Q 95 91 88 101 Q 65 131 55 146" fill="#CCCCCC"/><path d="M 63 153 L 48 167 L 55 146 Q 54 150 58 148 Q 72 142 85 138 L 87 142" fill="#CCCCCC"/><path d="M 85 138 Q 81 131 81 129 Q 82 126 83 126 Q 85 126 87 127 Q 103 139 103 145 Q 103 152 101 154 Q 99 157 97 156 Q 93 154 87 142" fill="#CCCCCC"/><path d="M 17 193 L 17 191 Q 18 187 20 187 Q 21 187 25 190 Q 47 209 46 219 Q 44 227 42 230 Q 39 232 37 231 Q 33 230 31 225 Q 26 212 21 201" fill="#CCCCCC"/><path d="M 48 184 L 48 182 Q 49 179 50 179 Q 51 179 54 180 Q 69 190 69 196 Q 69 201 68 204 Q 66 206 64 206 Q 61 205 52 189" fill="#CCCCCC"/><path d="M 77 172 L 76 169 Q 77 167 78 166 Q 81 166 93 173 Q 98 176 98 180 Q 98 186 97 189 Q 95 191 93 191 Q 91 190 81 176" fill="#CCCCCC"/><path d="M 134 74 Q 134 73 134 73 Q 149 33 146 27 Q 143 24 146 23 Q 149 21 156 22 Q 163 23 168 26 Q 172 30 168 34 Q 163 38 160 44 Q 147 63 140 72" fill="#CCCCCC"/><path d="M 133 170 L 130 169 L 129 168 Q 120 161 121 146 Q 121 97 111 77 Q 109 74 111 73 Q 112 71 114 72 Q 118 73 122 76 L 129 83 Q 130 84 130 86 Q 130 101 133 146 Q 134 151 134 156 L 134 164" fill="#CCCCCC"/><path d="M 193 72 Q 186 69 155 77 L 150 77 Q 138 80 129 83 L 122 76 Q 128 75 134 74 L 140 72 Q 167 64 181 63 Q 198 59 203 60 Q 215 66 219 70" fill="#CCCCCC"/><path d="M 187 153 Q 193 149 198 85 Q 199 77 193 72 L 219 70 Q 222 74 219 77 Q 213 84 211 92 Q 207 153 202 165 Q 198 171 195 169 Q 190 167 184 159" fill="#CCCCCC"/><path d="M 155 77 Q 159 78 162 83 Q 164 86 163 88 Q 161 89 160 91 L 157 97 Q 141 116 134 119 Q 133 119 133 118 Q 133 117 134 116 Q 154 91 151 80 L 150 77" fill="#CCCCCC"/><path d="M 160 91 Q 167 90 171 88 Q 175 86 177 87 Q 187 91 188 93 Q 189 95 186 97 L 171 95 Q 170 95 161 96 Q 159 97 157 97" fill="#CCCCCC"/><path d="M 186 97 Q 184 99 180 105 Q 175 114 170 122 L 164 128 Q 145 146 137 146 Q 133 147 137 144 Q 150 134 157 124 L 161 118 Q 173 101 171 95" fill="#CCCCCC"/><path d="M 170 122 Q 180 125 181 131 Q 184 137 183 138 Q 182 140 181 140 Q 178 139 164 128 L 157 124 Q 148 117 148 115 Q 148 114 149 114 Q 154 115 161 118" fill="#CCCCCC"/><path d="M 134 156 Q 151 154 173 149 Q 180 148 183 150 Q 186 151 187 153 L 184 159 Q 140 162 134 164" fill="#CCCCCC"/><path d="M 108 186 L 110 186 Q 111 186 113 188 Q 115 194 114 202 Q 115 224 102 237 Q 97 240 94 236 Q 89 227 94 219 Q 102 204 107 188" fill="#CCCCCC"/><path d="M 130 192 L 131 192 Q 133 191 136 193 Q 139 194 140 200 Q 143 211 149 216 Q 162 230 196 231 Q 206 231 209 228 L 231 226 Q 240 233 238 236 Q 238 239 232 241 Q 226 244 220 245 Q 176 248 151 232 Q 134 219 130 196" fill="#CCCCCC"/><path d="M 209 228 Q 210 226 209 221 Q 207 211 204 202 Q 204 198 205 197 Q 206 195 209 199 Q 218 213 231 226" fill="#CCCCCC"/><path d="M 152 182 L 151 179 Q 150 177 152 176 Q 155 174 171 179 Q 178 182 179 186 Q 182 193 181 196 Q 180 199 177 199 Q 174 199 171 197 Q 164 191 158 186" fill="#CCCCCC"/><path d="M 209 172 L 209 169 Q 210 166 212 167 Q 245 176 248 187 Q 252 197 249 200 Q 248 203 245 203 Q 242 202 238 198 Q 224 184 212 174" fill="#CCCCCC"/><path d="M 39 124 Q 36 126 33 123 Q 29 119 27 115 Q 27 112 31 108 Q 41 97 45 88 Q 66 45 61 34 Q 60 30 62 30 Q 67 28 71 31 Q 81 39 82 42 Q 83 44 79 49 Q 63 72 47 104" fill="#0000ff" clip-path="url(#clip-mask-1)" /><path d="M 69 110 Q 68 111 66 111 Q 45 119 39 124 L 47 104 Q 45 108 50 107 Q 61 104 73 103" fill="#0000ff" clip-path="url(#clip-mask-2)" /><path d="M 48 167 Q 45 170 41 167 Q 35 163 34 159 Q 33 156 36 153 Q 44 148 69 110 L 69 110 L 73 103 Q 83 83 83 75 Q 82 71 85 70 Q 87 69 91 71 Q 100 75 103 80 Q 105 83 101 85 Q 95 91 88 101 Q 65 131 55 146" fill="#0000ff" clip-path="url(#clip-mask-3)" /><path d="M 63 153 L 48 167 L 55 146 Q 54 150 58 148 Q 72 142 85 138 L 87 142" fill="#0000ff" clip-path="url(#clip-mask-4)" /><path d="M 85 138 Q 81 131 81 129 Q 82 126 83 126 Q 85 126 87 127 Q 103 139 103 145 Q 103 152 101 154 Q 99 157 97 156 Q 93 154 87 142" fill="#0000ff" clip-path="url(#clip-mask-5)" /><path d="M 17 193 L 17 191 Q 18 187 20 187 Q 21 187 25 190 Q 47 209 46 219 Q 44 227 42 230 Q 39 232 37 231 Q 33 230 31 225 Q 26 212 21 201" fill="#0000ff" clip-path="url(#clip-mask-6)" /><path d="M 48 184 L 48 182 Q 49 179 50 179 Q 51 179 54 180 Q 69 190 69 196 Q 69 201 68 204 Q 66 206 64 206 Q 61 205 52 189" fill="#0000ff" clip-path="url(#clip-mask-7)" /><path d="M 77 172 L 76 169 Q 77 167 78 166 Q 81 166 93 173 Q 98 176 98 180 Q 98 186 97 189 Q 95 191 93 191 Q 91 190 81 176" fill="#0000ff" clip-path="url(#clip-mask-8)" /><path d="M 134 74 Q 134 73 134 73 Q 149 33 146 27 Q 143 24 146 23 Q 149 21 156 22 Q 163 23 168 26 Q 172 30 168 34 Q 163 38 160 44 Q 147 63 140 72" fill="#000080" clip-path="url(#clip-mask-9)" /><path d="M 133 170 L 130 169 L 129 168 Q 120 161 121 146 Q 121 97 111 77 Q 109 74 111 73 Q 112 71 114 72 Q 118 73 122 76 L 129 83 Q 130 84 130 86 Q 130 101 133 146 Q 134 151 134 156 L 134 164" fill="#000080" clip-path="url(#clip-mask-10)" /><path d="M 193 72 Q 186 69 155 77 L 150 77 Q 138 80 129 83 L 122 76 Q 128 75 134 74 L 140 72 Q 167 64 181 63 Q 198 59 203 60 Q 215 66 219 70" fill="#000080" clip-path="url(#clip-mask-11)" /><path d="M 187 153 Q 193 149 198 85 Q 199 77 193 72 L 219 70 Q 222 74 219 77 Q 213 84 211 92 Q 207 153 202 165 Q 198 171 195 169 Q 190 167 184 159" fill="#000080" clip-path="url(#clip-mask-12)" /><path d="M 155 77 Q 159 78 162 83 Q 164 86 163 88 Q 161 89 160 91 L 157 97 Q 141 116 134 119 Q 133 119 133 118 Q 133 117 134 116 Q 154 91 151 80 L 150 77" fill="#000080" clip-path="url(#clip-mask-13)" /><path d="M 160 91 Q 167 90 171 88 Q 175 86 177 87 Q 187 91 188 93 Q 189 95 186 97 L 171 95 Q 170 95 161 96 Q 159 97 157 97" fill="#000080" clip-path="url(#clip-mask-14)" /><path d="M 186 97 Q 184 99 180 105 Q 175 114 170 122 L 164 128 Q 145 146 137 146 Q 133 147 137 144 Q 150 134 157 124 L 161 118 Q 173 101 171 95" fill="#000080" clip-path="url(#clip-mask-15)" /><path d="M 170 122 Q 180 125 181 131 Q 184 137 183 138 Q 182 140 181 140 Q 178 139 164 128 L 157 124 Q 148 117 148 115 Q 148 114 149 114 Q 154 115 161 118" fill="#000080" clip-path="url(#clip-mask-16)" /><path d="M 134 156 Q 151 154 173 149 Q 180 148 183 150 Q 186 151 187 153 L 184 159 Q 140 162 134 164" fill="#000080" clip-path="url(#clip-mask-17)" /><path d="M 108 186 L 110 186 Q 111 186 113 188 Q 115 194 114 202 Q 115 224 102 237 Q 97 240 94 236 Q 89 227 94 219 Q 102 204 107 188" fill="#000080" clip-path="url(#clip-mask-18)" /><path d="M 130 192 L 131 192 Q 133 191 136 193 Q 139 194 140 200 Q 143 211 149 216 Q 162 230 196 231 Q 206 231 209 228 L 231 226 Q 240 233 238 236 Q 238 239 232 241 Q 226 244 220 245 Q 176 248 151 232 Q 134 219 130 196" fill="#000080" clip-path="url(#clip-mask-19)" /><path d="M 209 228 Q 210 226 209 221 Q 207 211 204 202 Q 204 198 205 197 Q 206 195 209 199 Q 218 213 231 226" fill="#000080" clip-path="url(#clip-mask-20)" /><path d="M 152 182 L 151 179 Q 150 177 152 176 Q 155 174 171 179 Q 178 182 179 186 Q 182 193 181 196 Q 180 199 177 199 Q 174 199 171 197 Q 164 191 158 186" fill="#000080" clip-path="url(#clip-mask-21)" /><path d="M 209 172 L 209 169 Q 210 166 212 167 Q 245 176 248 187 Q 252 197 249 200 Q 248 203 245 203 Q 242 202 238 198 Q 224 184 212 174" fill="#000080" clip-path="url(#clip-mask-22)" /></svg>