<svg xmlns="http://www.w3.org/2000/svg" xmlns:xlink="http://www.w3.org/1999/xlink" width="270" height="270"><defs><clipPath id="clip-mask-1"><rect x="38" y="38" width="58" height="87"><animate attributeName="y" from="-49" to="38" dur="0.322" begin="0; animate10.end + 1" id="animate1" fill="freeze"/></rect></clipPath><clipPath id="clip-mask-2"><rect x="65" y="79" width="67" height="25"><set attributeName="x" to="-2" begin="0; animate10.end + 1" /><animate attributeName="x" from="-2" to="65" dur="0.248" begin="animate1.end + 0.5" id="animate2" fill="freeze"/></rect></clipPath><clipPath id="clip-mask-3"><rect x="12" y="126" width="128" height="37"><set attributeName="x" to="-116" begin="0; animate10.end + 1" /><animate attributeName="x" from="-116" to="12" dur="0.474" begin="animate2.end + 0.5" id="animate3" fill="freeze"/></rect></clipPath><clipPath id="clip-mask-4"><rect x="79" y="102" width="20" height="99"><set attributeName="y" to="3" begin="0; animate10.end + 1" /><animate attributeName="y" from="3" to="102" dur="0.367" begin="animate3.end + 0.5" id="animate4" fill="freeze"/></rect></clipPath><clipPath id="clip-mask-5"><rect x="32" y="171" width="26" height="60"><set attributeName="y" to="111" begin="0; animate10.end + 1" /><animate attributeName="y" from="111" to="171" dur="0.222" begin="animate4.end + 0.5" id="animate5" fill="freeze"/></rect></clipPath><clipPath id="clip-mask-6"><rect x="47" y="191" width="70" height="38"><set attributeName="x" to="-23" begin="0; animate10.end + 1" /><animate attributeName="x" from="-23" to="47" dur="0.259" begin="animate5.end" id="animate6" fill="freeze"/></rect></clipPath><clipPath id="clip-mask-7"><rect x="110" y="163" width="20" height="62"><set attributeName="y" to="101" begin="0; animate10.end + 1" /><animate attributeName="y" from="101" to="163" dur="0.230" begin="animate6.end + 0.5" id="animate7" fill="freeze"/></rect></clipPath><clipPath id="clip-mask-8"><rect x="137" y="96" width="95" height="30"><set attributeName="x" to="42" begin="0; animate10.end + 1" /><animate attributeName="x" from="42" to="137" dur="0.352" begin="animate7.end + 0.5" id="animate8" fill="freeze"/></rect></clipPath><clipPath id="clip-mask-9"><rect x="171" y="119" width="23" height="67"><set attributeName="y" to="52" begin="0; animate10.end + 1" /><animate attributeName="y" from="52" to="119" dur="0.248" begin="animate8.end + 0.5" id="animate9" fill="freeze"/></rect></clipPath><clipPath id="clip-mask-10"><rect x="129" y="173" width="128" height="31"><set attributeName="x" to="1" begin="0; animate10.end + 1" /><animate attributeName="x" from="1" to="129" dur="0.474" begin="animate9.end + 0.5" id="animate10" fill="freeze"/></rect></clipPath></defs><path d="M 0 0 L 270 270 M 270 0 L 0 270 M 135 0 L 135 270 M 0 135 L 270 135" stroke="#CCCCCC" /><path d="M 65 100 Q 48 122 41 124 Q 38 125 38 122 Q 39 120 41 118 Q 53 101 60 86 Q 77 54 71 44 Q 68 39 73 38 Q 78 38 85 42 Q 93 47 94 50 Q 96 54 94 57 Q 90 61 86 69 Q 77 84 69 96" fill="#CCCCCC"/><path d="M 79 104 Q 72 103 65 100 L 69 96 Q 81 93 90 90 Q 90 90 91 90 Q 115 79 121 80 Q 129 81 130 84 Q 132 86 130 88 Q 129 89 122 92 Q 90 102 90 102" fill="#CCCCCC"/><path d="M 83 147 Q 82 147 81 147 Q 64 151 37 160 Q 26 163 15 156 Q 12 153 12 150 Q 13 148 16 147 Q 40 145 83 136 L 96 133 Q 107 130 121 127 Q 127 126 135 129 Q 140 132 139 135 Q 139 137 135 138 Q 113 140 96 144" fill="#CCCCCC"/><path d="M 82 201 Q 82 166 83 147 L 83 136 Q 82 113 79 104 L 90 102 Q 94 104 97 108 Q 99 110 98 115 Q 97 118 97 123 Q 97 128 96 133 L 96 144 Q 95 168 94 197" fill="#CCCCCC"/><path d="M 47 229 Q 44 231 41 230 Q 36 227 33 223 Q 32 220 36 215 Q 40 211 42 200 Q 45 189 40 178 Q 39 173 41 172 Q 44 171 47 173 Q 53 177 56 181 Q 58 185 57 191 Q 55 199 54 207" fill="#CCCCCC"/><path d="M 117 201 Q 112 200 100 204 Q 54 220 47 229 L 54 207 Q 53 210 56 210 Q 68 205 82 201 L 94 197 Q 104 193 117 191" fill="#CCCCCC"/><path d="M 129 197 Q 130 217 127 223 Q 125 225 122 223 Q 117 217 117 201 L 117 191 Q 115 176 112 170 Q 110 167 112 165 Q 115 163 125 168 Q 130 171 129 176 Q 129 179 129 192" fill="#CCCCCC"/><path d="M 171 122 Q 156 126 145 119 Q 137 115 148 113 Q 160 111 184 105 Q 212 96 219 97 Q 228 99 230 102 Q 232 105 229 107 Q 228 108 182 119" fill="#CCCCCC"/><path d="M 187 123 L 191 128 Q 194 131 191 136 Q 190 141 185 184 L 171 186 Q 172 163 173 150 Q 173 128 171 122 L 182 119" fill="#CCCCCC"/><path d="M 185 184 Q 207 180 222 178 Q 237 173 253 185 Q 257 188 256 191 Q 255 194 249 194 Q 180 194 147 202 Q 137 204 129 197 L 129 192 Q 129 191 171 186" fill="#CCCCCC"/><path d="M 65 100 Q 48 122 41 124 Q 38 125 38 122 Q 39 120 41 118 Q 53 101 60 86 Q 77 54 71 44 Q 68 39 73 38 Q 78 38 85 42 Q 93 47 94 50 Q 96 54 94 57 Q 90 61 86 69 Q 77 84 69 96" fill="#0000ff" clip-path="url(#clip-mask-1)" /><path d="M 79 104 Q 72 103 65 100 L 69 96 Q 81 93 90 90 Q 90 90 91 90 Q 115 79 121 80 Q 129 81 130 84 Q 132 86 130 88 Q 129 89 122 92 Q 90 102 90 102" fill="#0000ff" clip-path="url(#clip-mask-2)" /><path d="M 83 147 Q 82 147 81 147 Q 64 151 37 160 Q 26 163 15 156 Q 12 153 12 150 Q 13 148 16 147 Q 40 145 83 136 L 96 133 Q 107 130 121 127 Q 127 126 135 129 Q 140 132 139 135 Q 139 137 135 138 Q 113 140 96 144" fill="#0000ff" clip-path="url(#clip-mask-3)" /><path d="M 82 201 Q 82 166 83 147 L 83 136 Q 82 113 79 104 L 90 102 Q 94 104 97 108 Q 99 110 98 115 Q 97 118 97 123 Q 97 128 96 133 L 96 144 Q 95 168 94 197" fill="#0000ff" clip-path="url(#clip-mask-4)" /><path d="M 47 229 Q 44 231 41 230 Q 36 227 33 223 Q 32 220 36 215 Q 40 211 42 200 Q 45 189 40 178 Q 39 173 41 172 Q 44 171 47 173 Q 53 177 56 181 Q 58 185 57 191 Q 55 199 54 207" fill="#0000ff" clip-path="url(#clip-mask-5)" /><path d="M 117 201 Q 112 200 100 204 Q 54 220 47 229 L 54 207 Q 53 210 56 210 Q 68 205 82 201 L 94 197 Q 104 193 117 191" fill="#0000ff" clip-path="url(#clip-mask-6)" /><path d="M 129 197 Q 130 217 127 223 Q 125 225 122 223 Q 117 217 117 201 L 117 191 Q 115 176 112 170 Q 110 167 112 165 Q 115 163 125 168 Q 130 171 129 176 Q 129 179 129 192" fill="#0000ff" clip-path="url(#clip-mask-7)" /><path d="M 171 122 Q 156 126 145 119 Q 137 115 148 113 Q 160 111 184 105 Q 212 96 219 97 Q 228 99 230 102 Q 232 105 229 107 Q 228 108 182 119" fill="#000080" clip-path="url(#clip-mask-8)" /><path d="M 187 123 L 191 128 Q 194 131 191 136 Q 190 141 185 184 L 171 186 Q 172 163 173 150 Q 173 128 171 122 L 182 119" fill="#000080" clip-path="url(#clip-mask-9)" /><path d="M 185 184 Q 207 180 222 178 Q 237 173 253 185 Q 257 188 256 191 Q 255 194 249 194 Q 180 194 147 202 Q 137 204 129 197 L 129 192 Q 129 191 171 186" fill="#000080" clip-path="url(#clip-mask-10)" /></svg>