<svg xmlns="http://www.w3.org/2000/svg" xmlns:xlink="http://www.w3.org/1999/xlink" width="270" height="270"><defs><clipPath id="clip-mask-1"><rect x="52" y="30" width="28" height="52"><animate attributeName="y" from="-22" to="30" dur="0.193" begin="0; animate23.end + 1" id="animate1" fill="freeze"/></rect></clipPath><clipPath id="clip-mask-2"><rect x="69" y="15" width="128" height="26"><set attributeName="x" to="-59" begin="0; animate23.end + 1" /><animate attributeName="x" from="-59" to="69" dur="0.474" begin="animate1.end + 0.5" id="animate2" fill="freeze"/></rect></clipPath><clipPath id="clip-mask-3"><rect x="163" y="28" width="38" height="45"><set attributeName="y" to="-17" begin="0; animate23.end + 1" /><animate attributeName="y" from="-17" to="28" dur="0.167" begin="animate2.end" id="animate3" fill="freeze"/></rect></clipPath><clipPath id="clip-mask-4"><rect x="95" y="35" width="15" height="31"><set attributeName="y" to="4" begin="0; animate23.end + 1" /><animate attributeName="y" from="4" to="35" dur="0.115" begin="animate3.end + 0.5" id="animate4" fill="freeze"/></rect></clipPath><clipPath id="clip-mask-5"><rect x="127" y="29" width="25" height="32"><set attributeName="y" to="-3" begin="0; animate23.end + 1" /><animate attributeName="y" from="-3" to="29" dur="0.119" begin="animate4.end + 0.5" id="animate5" fill="freeze"/></rect></clipPath><clipPath id="clip-mask-6"><rect x="80" y="55" width="84" height="22"><set attributeName="x" to="-4" begin="0; animate23.end + 1" /><animate attributeName="x" from="-4" to="80" dur="0.311" begin="animate5.end + 0.5" id="animate6" fill="freeze"/></rect></clipPath><clipPath id="clip-mask-7"><rect x="25" y="80" width="54" height="59"><set attributeName="y" to="21" begin="0; animate23.end + 1" /><animate attributeName="y" from="21" to="80" dur="0.219" begin="animate6.end + 0.5" id="animate7" fill="freeze"/></rect></clipPath><clipPath id="clip-mask-8"><rect x="37" y="105" width="66" height="32"><set attributeName="x" to="-29" begin="0; animate23.end + 1" /><animate attributeName="x" from="-29" to="37" dur="0.244" begin="animate7.end" id="animate8" fill="freeze"/></rect></clipPath><clipPath id="clip-mask-9"><rect x="91" y="88" width="29" height="32"><set attributeName="y" to="56" begin="0; animate23.end + 1" /><animate attributeName="y" from="56" to="88" dur="0.119" begin="animate8.end + 0.5" id="animate9" fill="freeze"/></rect></clipPath><clipPath id="clip-mask-10"><rect x="34" y="140" width="26" height="99"><set attributeName="y" to="41" begin="0; animate23.end + 1" /><animate attributeName="y" from="41" to="140" dur="0.367" begin="animate9.end + 0.5" id="animate10" fill="freeze"/></rect></clipPath><clipPath id="clip-mask-11"><rect x="57" y="131" width="54" height="21"><set attributeName="x" to="3" begin="0; animate23.end + 1" /><animate attributeName="x" from="3" to="57" dur="0.200" begin="animate10.end + 0.5" id="animate11" fill="freeze"/></rect></clipPath><clipPath id="clip-mask-12"><rect x="89" y="145" width="21" height="109"><set attributeName="y" to="36" begin="0; animate23.end + 1" /><animate attributeName="y" from="36" to="145" dur="0.404" begin="animate11.end" id="animate12" fill="freeze"/></rect></clipPath><clipPath id="clip-mask-13"><rect x="70" y="225" width="22" height="22"><set attributeName="x" to="92" begin="0; animate23.end + 1" /><animate attributeName="x" from="92" to="70" dur="0.081" begin="animate12.end" id="animate13" fill="freeze"/></rect></clipPath><clipPath id="clip-mask-14"><rect x="58" y="160" width="30" height="13"><set attributeName="x" to="28" begin="0; animate23.end + 1" /><animate attributeName="x" from="28" to="58" dur="0.111" begin="animate13.end + 0.5" id="animate14" fill="freeze"/></rect></clipPath><clipPath id="clip-mask-15"><rect x="56" y="186" width="33" height="12"><set attributeName="x" to="23" begin="0; animate23.end + 1" /><animate attributeName="x" from="23" to="56" dur="0.122" begin="animate14.end + 0.5" id="animate15" fill="freeze"/></rect></clipPath><clipPath id="clip-mask-16"><rect x="148" y="77" width="46" height="32"><set attributeName="x" to="194" begin="0; animate23.end + 1" /><animate attributeName="x" from="194" to="148" dur="0.170" begin="animate15.end + 0.5" id="animate16" fill="freeze"/></rect></clipPath><clipPath id="clip-mask-17"><rect x="134" y="74" width="17" height="62"><set attributeName="y" to="12" begin="0; animate23.end + 1" /><animate attributeName="y" from="12" to="74" dur="0.230" begin="animate16.end + 0.5" id="animate17" fill="freeze"/></rect></clipPath><clipPath id="clip-mask-18"><rect x="148" y="121" width="68" height="28"><set attributeName="x" to="80" begin="0; animate23.end + 1" /><animate attributeName="x" from="80" to="148" dur="0.252" begin="animate17.end" id="animate18" fill="freeze"/></rect></clipPath><clipPath id="clip-mask-19"><rect x="187" y="103" width="26" height="23"><set attributeName="y" to="126" begin="0; animate23.end + 1" /><animate attributeName="y" from="126" to="103" dur="0.085" begin="animate18.end" id="animate19" fill="freeze"/></rect></clipPath><clipPath id="clip-mask-20"><rect x="148" y="149" width="60" height="39"><set attributeName="x" to="208" begin="0; animate23.end + 1" /><animate attributeName="x" from="208" to="148" dur="0.222" begin="animate19.end + 0.5" id="animate20" fill="freeze"/></rect></clipPath><clipPath id="clip-mask-21"><rect x="131" y="141" width="30" height="86"><set attributeName="y" to="55" begin="0; animate23.end + 1" /><animate attributeName="y" from="55" to="141" dur="0.319" begin="animate20.end + 0.5" id="animate21" fill="freeze"/></rect></clipPath><clipPath id="clip-mask-22"><rect x="146" y="214" width="98" height="31"><set attributeName="x" to="48" begin="0; animate23.end + 1" /><animate attributeName="x" from="48" to="146" dur="0.363" begin="animate21.end" id="animate22" fill="freeze"/></rect></clipPath><clipPath id="clip-mask-23"><rect x="215" y="180" width="25" height="35"><set attributeName="y" to="215" begin="0; animate23.end + 1" /><animate attributeName="y" from="215" to="180" dur="0.130" begin="animate22.end" id="animate23" fill="freeze"/></rect></clipPath></defs><path d="M 0 0 L 270 270 M 270 0 L 0 270 M 135 0 L 135 270 M 0 135 L 270 135" stroke="#CCCCCC" /><path d="M 80 77 L 80 78 Q 79 82 74 77 Q 70 73 68 68 Q 62 48 55 37 Q 52 33 54 31 Q 54 30 57 30 Q 65 30 69 32 L 73 41 Q 75 48 79 65 Q 79 67 80 69 L 80 77" fill="#CCCCCC"/><path d="M 133 30 Q 114 33 101 35 L 95 36 Q 83 38 76 41 Q 74 41 73 41 L 69 32 Q 82 30 101 27 Q 144 19 156 19 Q 177 15 181 18 Q 193 25 197 30 L 173 28 Q 167 25 144 29" fill="#CCCCCC"/><path d="M 164 62 Q 164 61 165 61 Q 167 57 173 35 Q 175 30 173 28 L 197 30 Q 201 34 196 38 Q 186 45 181 57 Q 172 72 167 73 Q 164 73 163 69 Q 163 68 163 67" fill="#CCCCCC"/><path d="M 101 35 Q 102 36 103 38 Q 110 52 110 65 L 102 66 Q 97 59 97 48 Q 96 41 95 37 L 95 36" fill="#CCCCCC"/><path d="M 127 61 Q 127 61 127 61 Q 135 36 133 30 L 144 29 Q 148 31 150 34 Q 152 37 148 39 Q 145 43 144 46 Q 140 53 137 58 Q 136 59 136 60" fill="#CCCCCC"/><path d="M 80 69 Q 90 67 102 66 L 110 65 Q 118 63 127 61 L 136 60 Q 153 55 158 58 Q 162 61 164 62 L 163 67 Q 109 71 84 77 Q 82 77 80 77" fill="#CCCCCC"/><path d="M 37 137 Q 35 139 33 138 Q 30 137 28 132 Q 25 128 25 123 Q 25 121 31 118 Q 34 117 37 116 Q 59 100 58 86 Q 57 81 59 81 Q 62 80 67 81 Q 75 84 77 86 Q 79 89 75 92 Q 69 96 52 114 Q 51 116 52 116" fill="#CCCCCC"/><path d="M 102 110 L 101 110 Q 54 125 37 137 L 52 116 Q 52 116 100 105 L 103 109" fill="#CCCCCC"/><path d="M 100 105 Q 98 103 97 101 Q 91 95 91 93 Q 92 90 93 89 Q 97 88 112 98 Q 119 103 119 108 Q 120 115 118 118 Q 116 120 114 120 Q 111 119 103 109" fill="#CCCCCC"/><path d="M 56 202 L 55 206 Q 54 233 45 238 Q 43 239 41 236 Q 34 226 41 209 Q 53 168 43 144 Q 42 141 45 140 Q 52 140 57 145 L 60 152 Q 60 152 60 153 Q 59 157 59 165 L 58 173 Q 57 180 56 191 L 56 198" fill="#CCCCCC"/><path d="M 57 145 Q 69 142 79 138 Q 90 131 95 134 Q 104 137 109 141 Q 111 144 109 148 L 91 145 Q 89 144 85 145 Q 75 148 64 151 Q 62 151 60 152" fill="#CCCCCC"/><path d="M 109 148 Q 104 158 109 228 Q 110 238 100 252 Q 98 254 96 253 Q 92 252 89 247 L 92 229 Q 93 226 93 221 Q 95 195 93 152 Q 93 147 91 145" fill="#CCCCCC"/><path d="M 89 247 Q 83 239 70 227 Q 70 225 75 226 Q 90 230 92 229" fill="#CCCCCC"/><path d="M 59 165 Q 65 160 77 161 Q 83 162 86 165 Q 88 168 83 169 Q 72 171 58 173" fill="#CCCCCC"/><path d="M 56 191 Q 71 186 78 187 Q 84 188 87 191 Q 89 194 83 195 Q 71 196 56 198" fill="#CCCCCC"/><path d="M 152 101 L 156 99 Q 177 85 177 80 Q 178 77 180 77 Q 188 78 193 91 Q 194 95 189 96 Q 184 96 179 99 Q 153 107 148 109 L 148 104" fill="#CCCCCC"/><path d="M 148 109 Q 148 117 150 121 L 148 136 Q 136 130 138 97 Q 138 89 135 80 Q 134 76 136 75 Q 137 74 140 75 Q 146 77 149 80 Q 151 82 150 86 Q 148 96 148 104" fill="#CCCCCC"/><path d="M 150 121 Q 155 132 187 126 L 213 122 Q 216 128 212 131 Q 190 149 157 140 Q 151 138 148 136" fill="#CCCCCC"/><path d="M 187 126 Q 194 123 202 106 Q 203 103 204 103 Q 206 104 206 107 Q 211 119 213 122" fill="#CCCCCC"/><path d="M 158 177 L 166 172 Q 188 159 189 152 Q 189 149 192 149 Q 195 150 200 155 Q 205 161 207 166 Q 208 171 202 171 Q 196 172 190 174 Q 159 185 148 188 L 148 183" fill="#CCCCCC"/><path d="M 148 188 Q 147 211 161 218 L 146 227 Q 139 221 138 214 Q 135 204 136 170 Q 136 159 132 149 Q 131 143 133 142 Q 135 141 139 142 Q 145 145 149 148 Q 152 151 151 156 Q 148 170 148 183" fill="#CCCCCC"/><path d="M 161 218 Q 180 226 203 221 Q 212 218 215 214 L 240 215 Q 244 222 239 226 Q 228 234 218 237 Q 213 239 208 240 Q 167 245 146 227" fill="#CCCCCC"/><path d="M 215 214 Q 220 207 228 185 Q 230 180 231 181 Q 233 182 233 186 Q 237 208 240 215" fill="#CCCCCC"/><path d="M 80 77 L 80 78 Q 79 82 74 77 Q 70 73 68 68 Q 62 48 55 37 Q 52 33 54 31 Q 54 30 57 30 Q 65 30 69 32 L 73 41 Q 75 48 79 65 Q 79 67 80 69 L 80 77" fill="#0000ff" clip-path="url(#clip-mask-1)" /><path d="M 133 30 Q 114 33 101 35 L 95 36 Q 83 38 76 41 Q 74 41 73 41 L 69 32 Q 82 30 101 27 Q 144 19 156 19 Q 177 15 181 18 Q 193 25 197 30 L 173 28 Q 167 25 144 29" fill="#0000ff" clip-path="url(#clip-mask-2)" /><path d="M 164 62 Q 164 61 165 61 Q 167 57 173 35 Q 175 30 173 28 L 197 30 Q 201 34 196 38 Q 186 45 181 57 Q 172 72 167 73 Q 164 73 163 69 Q 163 68 163 67" fill="#0000ff" clip-path="url(#clip-mask-3)" /><path d="M 101 35 Q 102 36 103 38 Q 110 52 110 65 L 102 66 Q 97 59 97 48 Q 96 41 95 37 L 95 36" fill="#0000ff" clip-path="url(#clip-mask-4)" /><path d="M 127 61 Q 127 61 127 61 Q 135 36 133 30 L 144 29 Q 148 31 150 34 Q 152 37 148 39 Q 145 43 144 46 Q 140 53 137 58 Q 136 59 136 60" fill="#0000ff" clip-path="url(#clip-mask-5)" /><path d="M 80 69 Q 90 67 102 66 L 110 65 Q 118 63 127 61 L 136 60 Q 153 55 158 58 Q 162 61 164 62 L 163 67 Q 109 71 84 77 Q 82 77 80 77" fill="#0000ff" clip-path="url(#clip-mask-6)" /><path d="M 37 137 Q 35 139 33 138 Q 30 137 28 132 Q 25 128 25 123 Q 25 121 31 118 Q 34 117 37 116 Q 59 100 58 86 Q 57 81 59 81 Q 62 80 67 81 Q 75 84 77 86 Q 79 89 75 92 Q 69 96 52 114 Q 51 116 52 116" fill="#000080" clip-path="url(#clip-mask-7)" /><path d="M 102 110 L 101 110 Q 54 125 37 137 L 52 116 Q 52 116 100 105 L 103 109" fill="#000080" clip-path="url(#clip-mask-8)" /><path d="M 100 105 Q 98 103 97 101 Q 91 95 91 93 Q 92 90 93 89 Q 97 88 112 98 Q 119 103 119 108 Q 120 115 118 118 Q 116 120 114 120 Q 111 119 103 109" fill="#000080" clip-path="url(#clip-mask-9)" /><path d="M 56 202 L 55 206 Q 54 233 45 238 Q 43 239 41 236 Q 34 226 41 209 Q 53 168 43 144 Q 42 141 45 140 Q 52 140 57 145 L 60 152 Q 60 152 60 153 Q 59 157 59 165 L 58 173 Q 57 180 56 191 L 56 198" fill="#000080" clip-path="url(#clip-mask-10)" /><path d="M 57 145 Q 69 142 79 138 Q 90 131 95 134 Q 104 137 109 141 Q 111 144 109 148 L 91 145 Q 89 144 85 145 Q 75 148 64 151 Q 62 151 60 152" fill="#000080" clip-path="url(#clip-mask-11)" /><path d="M 109 148 Q 104 158 109 228 Q 110 238 100 252 Q 98 254 96 253 Q 92 252 89 247 L 92 229 Q 93 226 93 221 Q 95 195 93 152 Q 93 147 91 145" fill="#000080" clip-path="url(#clip-mask-12)" /><path d="M 89 247 Q 83 239 70 227 Q 70 225 75 226 Q 90 230 92 229" fill="#000080" clip-path="url(#clip-mask-13)" /><path d="M 59 165 Q 65 160 77 161 Q 83 162 86 165 Q 88 168 83 169 Q 72 171 58 173" fill="#000080" clip-path="url(#clip-mask-14)" /><path d="M 56 191 Q 71 186 78 187 Q 84 188 87 191 Q 89 194 83 195 Q 71 196 56 198" fill="#000080" clip-path="url(#clip-mask-15)" /><path d="M 152 101 L 156 99 Q 177 85 177 80 Q 178 77 180 77 Q 188 78 193 91 Q 194 95 189 96 Q 184 96 179 99 Q 153 107 148 109 L 148 104" fill="#000080" clip-path="url(#clip-mask-16)" /><path d="M 148 109 Q 148 117 150 121 L 148 136 Q 136 130 138 97 Q 138 89 135 80 Q 134 76 136 75 Q 137 74 140 75 Q 146 77 149 80 Q 151 82 150 86 Q 148 96 148 104" fill="#000080" clip-path="url(#clip-mask-17)" /><path d="M 150 121 Q 155 132 187 126 L 213 122 Q 216 128 212 131 Q 190 149 157 140 Q 151 138 148 136" fill="#000080" clip-path="url(#clip-mask-18)" /><path d="M 187 126 Q 194 123 202 106 Q 203 103 204 103 Q 206 104 206 107 Q 211 119 213 122" fill="#000080" clip-path="url(#clip-mask-19)" /><path d="M 158 177 L 166 172 Q 188 159 189 152 Q 189 149 192 149 Q 195 150 200 155 Q 205 161 207 166 Q 208 171 202 171 Q 196 172 190 174 Q 159 185 148 188 L 148 183" fill="#000080" clip-path="url(#clip-mask-20)" /><path d="M 148 188 Q 147 211 161 218 L 146 227 Q 139 221 138 214 Q 135 204 136 170 Q 136 159 132 149 Q 131 143 133 142 Q 135 141 139 142 Q 145 145 149 148 Q 152 151 151 156 Q 148 170 148 183" fill="#000080" clip-path="url(#clip-mask-21)" /><path d="M 161 218 Q 180 226 203 221 Q 212 218 215 214 L 240 215 Q 244 222 239 226 Q 228 234 218 237 Q 213 239 208 240 Q 167 245 146 227" fill="#000080" clip-path="url(#clip-mask-22)" /><path d="M 215 214 Q 220 207 228 185 Q 230 180 231 181 Q 233 182 233 186 Q 237 208 240 215" fill="#000080" clip-path="url(#clip-mask-23)" /></svg>