<svg xmlns="http://www.w3.org/2000/svg" xmlns:xlink="http://www.w3.org/1999/xlink" width="270" height="270"><defs><clipPath id="clip-mask-1"><rect x="58" y="23" width="71" height="34"><animate attributeName="x" from="129" to="58" dur="0.263" begin="0; animate23.end + 1" id="animate1" fill="freeze"/></rect></clipPath><clipPath id="clip-mask-2"><rect x="52" y="69" width="26" height="25"><set attributeName="x" to="26" begin="0; animate23.end + 1" /><animate attributeName="x" from="26" to="52" dur="0.096" begin="animate1.end + 0.5" id="animate2" fill="freeze"/></rect></clipPath><clipPath id="clip-mask-3"><rect x="109" y="52" width="32" height="31"><set attributeName="y" to="21" begin="0; animate23.end + 1" /><animate attributeName="y" from="21" to="52" dur="0.115" begin="animate2.end + 0.5" id="animate3" fill="freeze"/></rect></clipPath><clipPath id="clip-mask-4"><rect x="28" y="90" width="107" height="32"><set attributeName="x" to="-79" begin="0; animate23.end + 1" /><animate attributeName="x" from="-79" to="28" dur="0.396" begin="animate3.end + 0.5" id="animate4" fill="freeze"/></rect></clipPath><clipPath id="clip-mask-5"><rect x="85" y="49" width="23" height="103"><set attributeName="y" to="-54" begin="0; animate23.end + 1" /><animate attributeName="y" from="-54" to="49" dur="0.381" begin="animate4.end + 0.5" id="animate5" fill="freeze"/></rect></clipPath><clipPath id="clip-mask-6"><rect x="23" y="99" width="67" height="64"><set attributeName="x" to="90" begin="0; animate23.end + 1" /><animate attributeName="x" from="90" to="23" dur="0.248" begin="animate5.end + 0.5" id="animate6" fill="freeze"/></rect></clipPath><clipPath id="clip-mask-7"><rect x="98" y="117" width="31" height="19"><set attributeName="x" to="67" begin="0; animate23.end + 1" /><animate attributeName="x" from="67" to="98" dur="0.115" begin="animate6.end + 0.5" id="animate7" fill="freeze"/></rect></clipPath><clipPath id="clip-mask-8"><rect x="44" y="159" width="26" height="77"><set attributeName="y" to="82" begin="0; animate23.end + 1" /><animate attributeName="y" from="82" to="159" dur="0.285" begin="animate7.end + 0.5" id="animate8" fill="freeze"/></rect></clipPath><clipPath id="clip-mask-9"><rect x="61" y="150" width="78" height="22"><set attributeName="x" to="-17" begin="0; animate23.end + 1" /><animate attributeName="x" from="-17" to="61" dur="0.289" begin="animate8.end + 0.5" id="animate9" fill="freeze"/></rect></clipPath><clipPath id="clip-mask-10"><rect x="110" y="160" width="32" height="68"><set attributeName="y" to="92" begin="0; animate23.end + 1" /><animate attributeName="y" from="92" to="160" dur="0.252" begin="animate9.end" id="animate10" fill="freeze"/></rect></clipPath><clipPath id="clip-mask-11"><rect x="69" y="180" width="47" height="15"><set attributeName="x" to="22" begin="0; animate23.end + 1" /><animate attributeName="x" from="22" to="69" dur="0.174" begin="animate10.end + 0.5" id="animate11" fill="freeze"/></rect></clipPath><clipPath id="clip-mask-12"><rect x="84" y="164" width="16" height="50"><set attributeName="y" to="114" begin="0; animate23.end + 1" /><animate attributeName="y" from="114" to="164" dur="0.185" begin="animate11.end + 0.5" id="animate12" fill="freeze"/></rect></clipPath><clipPath id="clip-mask-13"><rect x="70" y="210" width="43" height="14"><set attributeName="x" to="27" begin="0; animate23.end + 1" /><animate attributeName="x" from="27" to="70" dur="0.159" begin="animate12.end + 0.5" id="animate13" fill="freeze"/></rect></clipPath><clipPath id="clip-mask-14"><rect x="139" y="74" width="50" height="16"><set attributeName="x" to="89" begin="0; animate23.end + 1" /><animate attributeName="x" from="89" to="139" dur="0.185" begin="animate13.end + 0.5" id="animate14" fill="freeze"/></rect></clipPath><clipPath id="clip-mask-15"><rect x="165" y="87" width="21" height="148"><set attributeName="y" to="-61" begin="0; animate23.end + 1" /><animate attributeName="y" from="-61" to="87" dur="0.548" begin="animate14.end" id="animate15" fill="freeze"/></rect></clipPath><clipPath id="clip-mask-16"><rect x="144" y="207" width="23" height="22"><set attributeName="x" to="167" begin="0; animate23.end + 1" /><animate attributeName="x" from="167" to="144" dur="0.085" begin="animate15.end" id="animate16" fill="freeze"/></rect></clipPath><clipPath id="clip-mask-17"><rect x="137" y="111" width="27" height="22"><set attributeName="x" to="110" begin="0; animate23.end + 1" /><animate attributeName="x" from="110" to="137" dur="0.100" begin="animate16.end + 0.5" id="animate17" fill="freeze"/></rect></clipPath><clipPath id="clip-mask-18"><rect x="136" y="150" width="35" height="36"><set attributeName="x" to="101" begin="0; animate23.end + 1" /><animate attributeName="x" from="101" to="136" dur="0.130" begin="animate17.end + 0.5" id="animate18" fill="freeze"/></rect></clipPath><clipPath id="clip-mask-19"><rect x="191" y="60" width="55" height="20"><set attributeName="x" to="136" begin="0; animate23.end + 1" /><animate attributeName="x" from="136" to="191" dur="0.204" begin="animate18.end + 0.5" id="animate19" fill="freeze"/></rect></clipPath><clipPath id="clip-mask-20"><rect x="222" y="75" width="21" height="171"><set attributeName="y" to="-96" begin="0; animate23.end + 1" /><animate attributeName="y" from="-96" to="75" dur="0.633" begin="animate19.end" id="animate20" fill="freeze"/></rect></clipPath><clipPath id="clip-mask-21"><rect x="197" y="214" width="27" height="25"><set attributeName="x" to="224" begin="0; animate23.end + 1" /><animate attributeName="x" from="224" to="197" dur="0.100" begin="animate20.end" id="animate21" fill="freeze"/></rect></clipPath><clipPath id="clip-mask-22"><rect x="192" y="104" width="26" height="23"><set attributeName="x" to="166" begin="0; animate23.end + 1" /><animate attributeName="x" from="166" to="192" dur="0.096" begin="animate21.end + 0.5" id="animate22" fill="freeze"/></rect></clipPath><clipPath id="clip-mask-23"><rect x="189" y="144" width="39" height="36"><set attributeName="x" to="150" begin="0; animate23.end + 1" /><animate attributeName="x" from="150" to="189" dur="0.144" begin="animate22.end + 0.5" id="animate23" fill="freeze"/></rect></clipPath></defs><path d="M 0 0 L 270 270 M 270 0 L 0 270 M 135 0 L 135 270 M 0 135 L 270 135" stroke="#CCCCCC" /><path d="M 85 51 Q 83 51 81 52 Q 61 57 59 56 Q 58 55 59 53 Q 100 36 102 27 Q 102 24 104 23 Q 108 23 111 25 Q 121 29 126 34 Q 129 36 128 39 Q 127 41 123 41 Q 108 43 94 49" fill="#CCCCCC"/><path d="M 53 76 L 52 73 Q 52 70 53 70 Q 55 69 58 70 Q 75 75 77 82 Q 78 88 77 91 Q 76 94 74 94 Q 70 94 68 91 Q 63 85 58 80" fill="#CCCCCC"/><path d="M 124 58 L 123 56 Q 123 52 126 52 Q 131 52 135 56 Q 139 59 140 62 Q 141 65 138 66 Q 130 70 113 82 Q 112 83 110 83 Q 109 82 110 80 Q 118 69 122 62" fill="#CCCCCC"/><path d="M 78 111 Q 66 113 52 118 Q 40 122 32 115 Q 28 113 29 110 Q 30 108 32 108 Q 52 106 90 99 L 99 97 Q 123 90 131 94 Q 135 96 135 99 Q 135 101 131 101 Q 113 103 99 106" fill="#CCCCCC"/><path d="M 98 125 L 98 127 Q 98 148 96 151 Q 92 152 90 149 L 90 148 Q 87 143 89 115 L 90 99 Q 91 62 85 52 Q 85 51 85 51 L 94 49 Q 100 51 105 56 Q 108 59 106 61 Q 100 73 99 97 L 99 106 Q 98 112 98 119 L 98 123" fill="#CCCCCC"/><path d="M 89 115 Q 88 116 88 117 Q 83 125 75 133 Q 65 142 56 150 Q 34 163 26 162 Q 23 162 27 159 Q 62 137 78 111 L 90 99" fill="#CCCCCC"/><path d="M 98 119 Q 101 117 116 120 Q 124 123 126 127 Q 129 131 129 134 Q 128 136 127 136 Q 126 136 102 125 Q 100 124 98 123" fill="#CCCCCC"/><path d="M 70 229 L 69 232 Q 67 236 63 231 Q 58 224 57 215 Q 54 185 46 166 Q 44 162 46 161 Q 46 159 50 160 Q 59 162 61 164 L 63 172 Q 64 182 69 212 Q 69 215 70 219 L 70 224" fill="#CCCCCC"/><path d="M 84 166 Q 71 169 63 172 L 61 164 Q 77 161 103 154 Q 104 154 104 154 Q 123 150 126 151 Q 136 157 139 160 L 117 162 Q 113 159 93 164" fill="#CCCCCC"/><path d="M 113 212 Q 117 207 121 170 Q 122 165 117 162 L 139 160 Q 142 163 139 166 Q 135 172 133 179 Q 128 216 125 223 Q 122 228 119 227 Q 115 225 110 218" fill="#CCCCCC"/><path d="M 86 194 L 75 195 Q 69 192 73 191 Q 79 188 86 186 L 98 181 Q 103 180 105 180 Q 111 181 114 184 Q 116 187 111 188 Q 104 190 98 191" fill="#CCCCCC"/><path d="M 87 214 Q 86 202 86 194 L 86 186 Q 85 168 84 166 L 93 164 Q 96 166 98 169 Q 100 171 99 174 Q 98 177 98 181 L 98 191 Q 97 200 97 212" fill="#CCCCCC"/><path d="M 70 219 Q 77 216 87 214 L 97 212 Q 104 210 109 210 Q 112 211 113 212 L 110 218 Q 94 220 73 224 Q 71 224 70 224" fill="#CCCCCC"/><path d="M 169 87 Q 167 85 164 86 Q 151 90 146 89 Q 143 88 141 86 Q 139 84 142 84 Q 151 82 160 79 Q 170 74 174 76 Q 181 79 186 83 Q 189 86 186 90" fill="#CCCCCC"/><path d="M 172 126 L 172 98 Q 172 90 169 87 L 186 90 Q 181 98 183 205 Q 183 223 175 233 Q 173 235 171 234 Q 167 233 165 229 L 167 212 Q 169 208 171 158 L 171 150" fill="#CCCCCC"/><path d="M 165 229 Q 157 221 144 210 Q 144 207 148 209 Q 154 211 161 212 Q 166 213 167 212" fill="#CCCCCC"/><path d="M 138 116 L 138 115 Q 137 112 138 111 Q 139 111 143 111 Q 160 117 162 122 Q 164 128 163 130 Q 162 133 160 133 Q 157 133 143 120" fill="#CCCCCC"/><path d="M 171 158 Q 157 177 155 183 Q 153 186 152 186 Q 145 186 140 185 Q 138 184 137 182 Q 136 180 138 179 Q 143 176 171 150" fill="#CCCCCC"/><path d="M 224 75 Q 222 73 218 74 Q 206 80 199 78 Q 196 77 193 74 Q 191 72 195 72 Q 203 70 214 67 Q 223 60 229 63 Q 238 66 243 71 Q 246 73 243 78" fill="#CCCCCC"/><path d="M 228 118 L 227 88 Q 227 78 224 75 L 243 78 Q 240 84 240 99 Q 240 172 243 218 Q 243 232 233 244 Q 231 246 229 245 Q 225 244 222 239 L 224 220 Q 227 215 228 152 L 228 144" fill="#CCCCCC"/><path d="M 222 239 Q 213 230 198 217 Q 197 214 202 216 Q 210 218 218 220 Q 223 221 224 220" fill="#CCCCCC"/><path d="M 193 110 L 192 107 Q 192 105 193 104 Q 195 104 198 104 Q 215 110 216 115 Q 218 122 217 124 Q 215 127 213 127 Q 210 127 207 124 Q 203 119 198 114" fill="#CCCCCC"/><path d="M 228 152 Q 214 168 210 177 Q 208 180 206 180 Q 198 179 193 178 Q 190 177 190 175 Q 189 173 191 171 Q 196 170 198 168 Q 215 155 228 144" fill="#CCCCCC"/><path d="M 85 51 Q 83 51 81 52 Q 61 57 59 56 Q 58 55 59 53 Q 100 36 102 27 Q 102 24 104 23 Q 108 23 111 25 Q 121 29 126 34 Q 129 36 128 39 Q 127 41 123 41 Q 108 43 94 49" fill="#000080" clip-path="url(#clip-mask-1)" /><path d="M 53 76 L 52 73 Q 52 70 53 70 Q 55 69 58 70 Q 75 75 77 82 Q 78 88 77 91 Q 76 94 74 94 Q 70 94 68 91 Q 63 85 58 80" fill="#000080" clip-path="url(#clip-mask-2)" /><path d="M 124 58 L 123 56 Q 123 52 126 52 Q 131 52 135 56 Q 139 59 140 62 Q 141 65 138 66 Q 130 70 113 82 Q 112 83 110 83 Q 109 82 110 80 Q 118 69 122 62" fill="#000080" clip-path="url(#clip-mask-3)" /><path d="M 78 111 Q 66 113 52 118 Q 40 122 32 115 Q 28 113 29 110 Q 30 108 32 108 Q 52 106 90 99 L 99 97 Q 123 90 131 94 Q 135 96 135 99 Q 135 101 131 101 Q 113 103 99 106" fill="#000080" clip-path="url(#clip-mask-4)" /><path d="M 98 125 L 98 127 Q 98 148 96 151 Q 92 152 90 149 L 90 148 Q 87 143 89 115 L 90 99 Q 91 62 85 52 Q 85 51 85 51 L 94 49 Q 100 51 105 56 Q 108 59 106 61 Q 100 73 99 97 L 99 106 Q 98 112 98 119 L 98 123" fill="#000080" clip-path="url(#clip-mask-5)" /><path d="M 89 115 Q 88 116 88 117 Q 83 125 75 133 Q 65 142 56 150 Q 34 163 26 162 Q 23 162 27 159 Q 62 137 78 111 L 90 99" fill="#000080" clip-path="url(#clip-mask-6)" /><path d="M 98 119 Q 101 117 116 120 Q 124 123 126 127 Q 129 131 129 134 Q 128 136 127 136 Q 126 136 102 125 Q 100 124 98 123" fill="#000080" clip-path="url(#clip-mask-7)" /><path d="M 70 229 L 69 232 Q 67 236 63 231 Q 58 224 57 215 Q 54 185 46 166 Q 44 162 46 161 Q 46 159 50 160 Q 59 162 61 164 L 63 172 Q 64 182 69 212 Q 69 215 70 219 L 70 224" fill="#000080" clip-path="url(#clip-mask-8)" /><path d="M 84 166 Q 71 169 63 172 L 61 164 Q 77 161 103 154 Q 104 154 104 154 Q 123 150 126 151 Q 136 157 139 160 L 117 162 Q 113 159 93 164" fill="#000080" clip-path="url(#clip-mask-9)" /><path d="M 113 212 Q 117 207 121 170 Q 122 165 117 162 L 139 160 Q 142 163 139 166 Q 135 172 133 179 Q 128 216 125 223 Q 122 228 119 227 Q 115 225 110 218" fill="#000080" clip-path="url(#clip-mask-10)" /><path d="M 86 194 L 75 195 Q 69 192 73 191 Q 79 188 86 186 L 98 181 Q 103 180 105 180 Q 111 181 114 184 Q 116 187 111 188 Q 104 190 98 191" fill="#000080" clip-path="url(#clip-mask-11)" /><path d="M 87 214 Q 86 202 86 194 L 86 186 Q 85 168 84 166 L 93 164 Q 96 166 98 169 Q 100 171 99 174 Q 98 177 98 181 L 98 191 Q 97 200 97 212" fill="#000080" clip-path="url(#clip-mask-12)" /><path d="M 70 219 Q 77 216 87 214 L 97 212 Q 104 210 109 210 Q 112 211 113 212 L 110 218 Q 94 220 73 224 Q 71 224 70 224" fill="#000080" clip-path="url(#clip-mask-13)" /><path d="M 169 87 Q 167 85 164 86 Q 151 90 146 89 Q 143 88 141 86 Q 139 84 142 84 Q 151 82 160 79 Q 170 74 174 76 Q 181 79 186 83 Q 189 86 186 90" fill="#0000ff" clip-path="url(#clip-mask-14)" /><path d="M 172 126 L 172 98 Q 172 90 169 87 L 186 90 Q 181 98 183 205 Q 183 223 175 233 Q 173 235 171 234 Q 167 233 165 229 L 167 212 Q 169 208 171 158 L 171 150" fill="#0000ff" clip-path="url(#clip-mask-15)" /><path d="M 165 229 Q 157 221 144 210 Q 144 207 148 209 Q 154 211 161 212 Q 166 213 167 212" fill="#0000ff" clip-path="url(#clip-mask-16)" /><path d="M 138 116 L 138 115 Q 137 112 138 111 Q 139 111 143 111 Q 160 117 162 122 Q 164 128 163 130 Q 162 133 160 133 Q 157 133 143 120" fill="#0000ff" clip-path="url(#clip-mask-17)" /><path d="M 171 158 Q 157 177 155 183 Q 153 186 152 186 Q 145 186 140 185 Q 138 184 137 182 Q 136 180 138 179 Q 143 176 171 150" fill="#0000ff" clip-path="url(#clip-mask-18)" /><path d="M 224 75 Q 222 73 218 74 Q 206 80 199 78 Q 196 77 193 74 Q 191 72 195 72 Q 203 70 214 67 Q 223 60 229 63 Q 238 66 243 71 Q 246 73 243 78" fill="#0000ff" clip-path="url(#clip-mask-19)" /><path d="M 228 118 L 227 88 Q 227 78 224 75 L 243 78 Q 240 84 240 99 Q 240 172 243 218 Q 243 232 233 244 Q 231 246 229 245 Q 225 244 222 239 L 224 220 Q 227 215 228 152 L 228 144" fill="#0000ff" clip-path="url(#clip-mask-20)" /><path d="M 222 239 Q 213 230 198 217 Q 197 214 202 216 Q 210 218 218 220 Q 223 221 224 220" fill="#0000ff" clip-path="url(#clip-mask-21)" /><path d="M 193 110 L 192 107 Q 192 105 193 104 Q 195 104 198 104 Q 215 110 216 115 Q 218 122 217 124 Q 215 127 213 127 Q 210 127 207 124 Q 203 119 198 114" fill="#0000ff" clip-path="url(#clip-mask-22)" /><path d="M 228 152 Q 214 168 210 177 Q 208 180 206 180 Q 198 179 193 178 Q 190 177 190 175 Q 189 173 191 171 Q 196 170 198 168 Q 215 155 228 144" fill="#0000ff" clip-path="url(#clip-mask-23)" /></svg>