<svg xmlns="http://www.w3.org/2000/svg" xmlns:xlink="http://www.w3.org/1999/xlink" width="270" height="270"><defs><clipPath id="clip-mask-1"><rect x="39" y="13" width="57" height="56"><animate attributeName="y" from="-43" to="13" dur="0.207" begin="0; animate17.end + 1" id="animate1" fill="freeze"/></rect></clipPath><clipPath id="clip-mask-2"><rect x="18" y="52" width="81" height="77"><set attributeName="y" to="-25" begin="0; animate17.end + 1" /><animate attributeName="y" from="-25" to="52" dur="0.285" begin="animate1.end + 0.5" id="animate2" fill="freeze"/></rect></clipPath><clipPath id="clip-mask-3"><rect x="61" y="96" width="19" height="60"><set attributeName="y" to="36" begin="0; animate17.end + 1" /><animate attributeName="y" from="36" to="96" dur="0.222" begin="animate2.end + 0.5" id="animate3" fill="freeze"/></rect></clipPath><clipPath id="clip-mask-4"><rect x="102" y="18" width="41" height="50"><set attributeName="y" to="-32" begin="0; animate17.end + 1" /><animate attributeName="y" from="-32" to="18" dur="0.185" begin="animate3.end + 0.5" id="animate4" fill="freeze"/></rect></clipPath><clipPath id="clip-mask-5"><rect x="126" y="47" width="21" height="19"><set attributeName="x" to="105" begin="0; animate17.end + 1" /><animate attributeName="x" from="105" to="126" dur="0.078" begin="animate4.end + 0.5" id="animate5" fill="freeze"/></rect></clipPath><clipPath id="clip-mask-6"><rect x="155" y="11" width="44" height="50"><set attributeName="y" to="-39" begin="0; animate17.end + 1" /><animate attributeName="y" from="-39" to="11" dur="0.185" begin="animate5.end + 0.5" id="animate6" fill="freeze"/></rect></clipPath><clipPath id="clip-mask-7"><rect x="180" y="40" width="32" height="27"><set attributeName="x" to="148" begin="0; animate17.end + 1" /><animate attributeName="x" from="148" to="180" dur="0.119" begin="animate6.end + 0.5" id="animate7" fill="freeze"/></rect></clipPath><clipPath id="clip-mask-8"><rect x="150" y="62" width="20" height="44"><set attributeName="y" to="18" begin="0; animate17.end + 1" /><animate attributeName="y" from="18" to="62" dur="0.163" begin="animate7.end + 0.5" id="animate8" fill="freeze"/></rect></clipPath><clipPath id="clip-mask-9"><rect x="165" y="76" width="35" height="12"><set attributeName="x" to="130" begin="0; animate17.end + 1" /><animate attributeName="x" from="130" to="165" dur="0.130" begin="animate8.end + 0.5" id="animate9" fill="freeze"/></rect></clipPath><clipPath id="clip-mask-10"><rect x="87" y="69" width="49" height="54"><set attributeName="y" to="15" begin="0; animate17.end + 1" /><animate attributeName="y" from="15" to="69" dur="0.200" begin="animate9.end + 0.5" id="animate10" fill="freeze"/></rect></clipPath><clipPath id="clip-mask-11"><rect x="125" y="90" width="126" height="51"><set attributeName="x" to="-1" begin="0; animate17.end + 1" /><animate attributeName="x" from="-1" to="125" dur="0.467" begin="animate10.end + 0.5" id="animate11" fill="freeze"/></rect></clipPath><clipPath id="clip-mask-12"><rect x="80" y="124" width="95" height="21"><set attributeName="x" to="-15" begin="0; animate17.end + 1" /><animate attributeName="x" from="-15" to="80" dur="0.352" begin="animate11.end + 0.5" id="animate12" fill="freeze"/></rect></clipPath><clipPath id="clip-mask-13"><rect x="93" y="144" width="17" height="60"><set attributeName="y" to="84" begin="0; animate17.end + 1" /><animate attributeName="y" from="84" to="144" dur="0.222" begin="animate12.end + 0.5" id="animate13" fill="freeze"/></rect></clipPath><clipPath id="clip-mask-14"><rect x="147" y="136" width="20" height="122"><set attributeName="y" to="14" begin="0; animate17.end + 1" /><animate attributeName="y" from="14" to="136" dur="0.452" begin="animate13.end + 0.5" id="animate14" fill="freeze"/></rect></clipPath><clipPath id="clip-mask-15"><rect x="109" y="153" width="34" height="13"><set attributeName="x" to="75" begin="0; animate17.end + 1" /><animate attributeName="x" from="75" to="109" dur="0.126" begin="animate14.end + 0.5" id="animate15" fill="freeze"/></rect></clipPath><clipPath id="clip-mask-16"><rect x="108" y="174" width="36" height="14"><set attributeName="x" to="72" begin="0; animate17.end + 1" /><animate attributeName="x" from="72" to="108" dur="0.133" begin="animate15.end + 0.5" id="animate16" fill="freeze"/></rect></clipPath><clipPath id="clip-mask-17"><rect x="34" y="189" width="205" height="32"><set attributeName="x" to="-171" begin="0; animate17.end + 1" /><animate attributeName="x" from="-171" to="34" dur="0.759" begin="animate16.end + 0.5" id="animate17" fill="freeze"/></rect></clipPath></defs><path d="M 0 0 L 270 270 M 270 0 L 0 270 M 135 0 L 135 270 M 0 135 L 270 135" stroke="#CCCCCC" /><path d="M 77 13 L 81 13 Q 85 14 90 19 Q 95 25 95 28 Q 96 31 93 32 Q 89 34 85 39 Q 54 69 42 69 Q 39 69 41 67 Q 41 66 44 64 Q 55 54 63 45 Q 79 24 78 18" fill="#CCCCCC"/><path d="M 32 129 L 22 129 Q 18 129 20 127 Q 21 126 23 124 Q 59 95 78 68 Q 82 63 80 57 Q 79 52 84 52 Q 88 53 93 58 Q 98 65 98 68 Q 99 71 96 73 Q 91 76 71 96 L 65 101" fill="#CCCCCC"/><path d="M 71 96 Q 72 97 78 104 Q 80 106 79 111 Q 78 115 77 134 Q 77 143 75 151 Q 72 156 69 153 Q 68 152 68 152 Q 61 142 64 134 Q 69 111 65 101" fill="#CCCCCC"/><path d="M 110 67 L 104 68 Q 102 68 102 66 Q 103 65 105 63 Q 112 54 117 46 Q 128 28 126 23 Q 125 18 128 18 Q 132 18 137 22 Q 142 27 143 29 L 143 30 Q 143 32 130 47 L 126 51" fill="#CCCCCC"/><path d="M 130 47 Q 144 50 146 57 Q 147 62 146 64 Q 146 66 144 66 Q 141 66 129 53 Q 127 52 126 51" fill="#CCCCCC"/><path d="M 161 60 L 157 61 Q 155 61 156 59 Q 156 57 158 55 Q 175 36 181 22 Q 183 19 181 16 Q 180 11 184 11 Q 188 12 193 16 Q 198 21 198 24 Q 199 27 197 29 Q 194 30 191 34 Q 188 38 185 40 L 180 45" fill="#CCCCCC"/><path d="M 185 40 Q 193 43 201 46 Q 209 51 210 57 Q 212 62 211 65 Q 210 67 208 67 Q 205 67 203 65 Q 193 56 184 48 Q 181 46 180 45" fill="#CCCCCC"/><path d="M 154 87 L 153 74 Q 153 72 151 68 Q 150 66 151 64 Q 153 62 156 64 Q 160 65 166 68 Q 170 72 169 73 Q 169 75 168 76 Q 167 79 166 81 L 165 88 Q 163 96 162 106 L 154 102" fill="#CCCCCC"/><path d="M 166 81 Q 166 81 166 81 Q 180 76 190 78 Q 196 80 198 83 Q 200 87 194 87 Q 183 87 168 88 Q 166 88 165 88" fill="#CCCCCC"/><path d="M 125 94 Q 103 123 89 123 Q 87 123 89 122 Q 121 89 119 74 Q 118 71 120 71 Q 127 69 132 75 Q 135 78 135 79 Q 136 81 134 82 Q 131 83 128 90" fill="#CCCCCC"/><path d="M 162 106 Q 191 118 216 120 Q 233 121 247 123 Q 251 123 251 125 Q 251 127 246 128 Q 230 136 214 139 Q 205 141 193 135 Q 133 102 125 94 L 128 90 Q 138 94 154 102" fill="#CCCCCC"/><path d="M 93 144 Q 89 143 85 141 Q 80 137 88 136 Q 109 135 133 131 Q 162 124 167 125 Q 173 127 174 130 Q 175 131 173 133 Q 171 134 161 136 L 147 139 Q 105 144 104 145" fill="#CCCCCC"/><path d="M 97 204 Q 97 182 97 170 Q 96 149 93 144 L 104 145 Q 107 146 109 149 Q 110 150 109 159 L 109 166 Q 108 173 108 182 L 108 187 Q 107 195 106 203" fill="#CCCCCC"/><path d="M 162 253 L 156 257 Q 154 258 153 256 L 153 256 Q 150 251 150 209 L 150 199 Q 151 171 151 151 Q 150 144 147 139 L 161 136 Q 167 141 167 145 Q 164 157 163 198 L 163 208" fill="#CCCCCC"/><path d="M 109 159 Q 122 153 133 154 Q 138 155 141 158 Q 143 161 138 162 Q 126 163 111 166 Q 110 166 109 166" fill="#CCCCCC"/><path d="M 108 182 Q 126 174 134 175 Q 139 176 142 180 Q 144 183 139 184 Q 127 185 111 187 Q 109 188 108 187" fill="#CCCCCC"/><path d="M 150 209 Q 102 209 56 220 Q 52 221 46 219 Q 42 218 38 214 Q 34 209 39 209 Q 69 206 97 204 L 106 203 Q 120 202 134 201 Q 142 200 150 199 L 163 198 Q 192 194 211 191 Q 221 189 235 200 Q 239 204 238 207 Q 236 210 231 209 Q 224 209 216 209 Q 185 208 163 208" fill="#CCCCCC"/><path d="M 77 13 L 81 13 Q 85 14 90 19 Q 95 25 95 28 Q 96 31 93 32 Q 89 34 85 39 Q 54 69 42 69 Q 39 69 41 67 Q 41 66 44 64 Q 55 54 63 45 Q 79 24 78 18" fill="#000080" clip-path="url(#clip-mask-1)" /><path d="M 32 129 L 22 129 Q 18 129 20 127 Q 21 126 23 124 Q 59 95 78 68 Q 82 63 80 57 Q 79 52 84 52 Q 88 53 93 58 Q 98 65 98 68 Q 99 71 96 73 Q 91 76 71 96 L 65 101" fill="#000080" clip-path="url(#clip-mask-2)" /><path d="M 71 96 Q 72 97 78 104 Q 80 106 79 111 Q 78 115 77 134 Q 77 143 75 151 Q 72 156 69 153 Q 68 152 68 152 Q 61 142 64 134 Q 69 111 65 101" fill="#000080" clip-path="url(#clip-mask-3)" /><path d="M 110 67 L 104 68 Q 102 68 102 66 Q 103 65 105 63 Q 112 54 117 46 Q 128 28 126 23 Q 125 18 128 18 Q 132 18 137 22 Q 142 27 143 29 L 143 30 Q 143 32 130 47 L 126 51" fill="#000080" clip-path="url(#clip-mask-4)" /><path d="M 130 47 Q 144 50 146 57 Q 147 62 146 64 Q 146 66 144 66 Q 141 66 129 53 Q 127 52 126 51" fill="#000080" clip-path="url(#clip-mask-5)" /><path d="M 161 60 L 157 61 Q 155 61 156 59 Q 156 57 158 55 Q 175 36 181 22 Q 183 19 181 16 Q 180 11 184 11 Q 188 12 193 16 Q 198 21 198 24 Q 199 27 197 29 Q 194 30 191 34 Q 188 38 185 40 L 180 45" fill="#000080" clip-path="url(#clip-mask-6)" /><path d="M 185 40 Q 193 43 201 46 Q 209 51 210 57 Q 212 62 211 65 Q 210 67 208 67 Q 205 67 203 65 Q 193 56 184 48 Q 181 46 180 45" fill="#000080" clip-path="url(#clip-mask-7)" /><path d="M 154 87 L 153 74 Q 153 72 151 68 Q 150 66 151 64 Q 153 62 156 64 Q 160 65 166 68 Q 170 72 169 73 Q 169 75 168 76 Q 167 79 166 81 L 165 88 Q 163 96 162 106 L 154 102" fill="#000080" clip-path="url(#clip-mask-8)" /><path d="M 166 81 Q 166 81 166 81 Q 180 76 190 78 Q 196 80 198 83 Q 200 87 194 87 Q 183 87 168 88 Q 166 88 165 88" fill="#000080" clip-path="url(#clip-mask-9)" /><path d="M 125 94 Q 103 123 89 123 Q 87 123 89 122 Q 121 89 119 74 Q 118 71 120 71 Q 127 69 132 75 Q 135 78 135 79 Q 136 81 134 82 Q 131 83 128 90" fill="#000080" clip-path="url(#clip-mask-10)" /><path d="M 162 106 Q 191 118 216 120 Q 233 121 247 123 Q 251 123 251 125 Q 251 127 246 128 Q 230 136 214 139 Q 205 141 193 135 Q 133 102 125 94 L 128 90 Q 138 94 154 102" fill="#000080" clip-path="url(#clip-mask-11)" /><path d="M 93 144 Q 89 143 85 141 Q 80 137 88 136 Q 109 135 133 131 Q 162 124 167 125 Q 173 127 174 130 Q 175 131 173 133 Q 171 134 161 136 L 147 139 Q 105 144 104 145" fill="#0000ff" clip-path="url(#clip-mask-12)" /><path d="M 97 204 Q 97 182 97 170 Q 96 149 93 144 L 104 145 Q 107 146 109 149 Q 110 150 109 159 L 109 166 Q 108 173 108 182 L 108 187 Q 107 195 106 203" fill="#0000ff" clip-path="url(#clip-mask-13)" /><path d="M 162 253 L 156 257 Q 154 258 153 256 L 153 256 Q 150 251 150 209 L 150 199 Q 151 171 151 151 Q 150 144 147 139 L 161 136 Q 167 141 167 145 Q 164 157 163 198 L 163 208" fill="#0000ff" clip-path="url(#clip-mask-14)" /><path d="M 109 159 Q 122 153 133 154 Q 138 155 141 158 Q 143 161 138 162 Q 126 163 111 166 Q 110 166 109 166" fill="#0000ff" clip-path="url(#clip-mask-15)" /><path d="M 108 182 Q 126 174 134 175 Q 139 176 142 180 Q 144 183 139 184 Q 127 185 111 187 Q 109 188 108 187" fill="#0000ff" clip-path="url(#clip-mask-16)" /><path d="M 150 209 Q 102 209 56 220 Q 52 221 46 219 Q 42 218 38 214 Q 34 209 39 209 Q 69 206 97 204 L 106 203 Q 120 202 134 201 Q 142 200 150 199 L 163 198 Q 192 194 211 191 Q 221 189 235 200 Q 239 204 238 207 Q 236 210 231 209 Q 224 209 216 209 Q 185 208 163 208" fill="#0000ff" clip-path="url(#clip-mask-17)" /></svg>