<svg xmlns="http://www.w3.org/2000/svg" xmlns:xlink="http://www.w3.org/1999/xlink" width="270" height="270"><defs><clipPath id="clip-mask-1"><rect x="54" y="31" width="34" height="77"><animate attributeName="y" from="-46" to="31" dur="0.285" begin="0; animate12.end + 1" id="animate1" fill="freeze"/></rect></clipPath><clipPath id="clip-mask-2"><rect x="70" y="17" width="142" height="28"><set attributeName="x" to="-72" begin="0; animate12.end + 1" /><animate attributeName="x" from="-72" to="70" dur="0.526" begin="animate1.end + 0.5" id="animate2" fill="freeze"/></rect></clipPath><clipPath id="clip-mask-3"><rect x="170" y="34" width="46" height="70"><set attributeName="y" to="-36" begin="0; animate12.end + 1" /><animate attributeName="y" from="-36" to="34" dur="0.259" begin="animate2.end" id="animate3" fill="freeze"/></rect></clipPath><clipPath id="clip-mask-4"><rect x="92" y="51" width="73" height="20"><set attributeName="x" to="19" begin="0; animate12.end + 1" /><animate attributeName="x" from="19" to="92" dur="0.270" begin="animate3.end + 0.5" id="animate4" fill="freeze"/></rect></clipPath><clipPath id="clip-mask-5"><rect x="120" y="35" width="14" height="55"><set attributeName="y" to="-20" begin="0; animate12.end + 1" /><animate attributeName="y" from="-20" to="35" dur="0.204" begin="animate4.end + 0.5" id="animate5" fill="freeze"/></rect></clipPath><clipPath id="clip-mask-6"><rect x="87" y="82" width="84" height="21"><set attributeName="x" to="3" begin="0; animate12.end + 1" /><animate attributeName="x" from="3" to="87" dur="0.311" begin="animate5.end + 0.5" id="animate6" fill="freeze"/></rect></clipPath><clipPath id="clip-mask-7"><rect x="66" y="118" width="33" height="119"><set attributeName="y" to="-1" begin="0; animate12.end + 1" /><animate attributeName="y" from="-1" to="118" dur="0.441" begin="animate6.end + 0.5" id="animate7" fill="freeze"/></rect></clipPath><clipPath id="clip-mask-8"><rect x="96" y="109" width="90" height="23"><set attributeName="x" to="6" begin="0; animate12.end + 1" /><animate attributeName="x" from="6" to="96" dur="0.333" begin="animate7.end + 0.5" id="animate8" fill="freeze"/></rect></clipPath><clipPath id="clip-mask-9"><rect x="158" y="125" width="28" height="127"><set attributeName="y" to="-2" begin="0; animate12.end + 1" /><animate attributeName="y" from="-2" to="125" dur="0.470" begin="animate8.end" id="animate9" fill="freeze"/></rect></clipPath><clipPath id="clip-mask-10"><rect x="142" y="224" width="20" height="24"><set attributeName="x" to="162" begin="0; animate12.end + 1" /><animate attributeName="x" from="162" to="142" dur="0.074" begin="animate9.end" id="animate10" fill="freeze"/></rect></clipPath><clipPath id="clip-mask-11"><rect x="95" y="146" width="51" height="16"><set attributeName="x" to="44" begin="0; animate12.end + 1" /><animate attributeName="x" from="44" to="95" dur="0.189" begin="animate10.end + 0.5" id="animate11" fill="freeze"/></rect></clipPath><clipPath id="clip-mask-12"><rect x="92" y="176" width="55" height="15"><set attributeName="x" to="37" begin="0; animate12.end + 1" /><animate attributeName="x" from="37" to="92" dur="0.204" begin="animate11.end + 0.5" id="animate12" fill="freeze"/></rect></clipPath></defs><path d="M 0 0 L 270 270 M 270 0 L 0 270 M 135 0 L 135 270 M 0 135 L 270 135" stroke="#CCCCCC" /><path d="M 87 108 L 83 107 L 83 107 Q 73 102 71 84 Q 66 51 56 37 Q 54 34 55 32 Q 57 31 58 31 Q 64 32 70 35 L 78 45 Q 78 50 84 82 Q 86 89 87 95 L 88 103" fill="#CCCCCC"/><path d="M 120 37 Q 96 41 78 45 L 70 35 Q 87 34 108 30 Q 135 26 156 23 Q 173 22 185 18 Q 190 17 195 20 Q 208 29 212 34 L 183 34 Q 175 27 134 35" fill="#CCCCCC"/><path d="M 171 83 Q 174 82 175 79 Q 178 74 185 42 Q 186 36 183 34 L 212 34 Q 216 39 211 42 Q 204 49 201 59 Q 190 92 186 98 Q 181 104 178 102 Q 174 99 170 93" fill="#CCCCCC"/><path d="M 120 68 Q 119 68 119 68 Q 106 71 98 66 Q 92 62 100 61 Q 111 60 120 59 L 134 56 Q 150 51 157 52 Q 163 54 164 57 Q 165 58 163 60 Q 163 61 134 66" fill="#CCCCCC"/><path d="M 120 90 L 120 68 L 120 59 L 120 37 L 134 35 L 134 56 L 134 66 L 134 88" fill="#CCCCCC"/><path d="M 87 95 Q 103 92 120 90 L 134 88 Q 164 82 170 83 Q 170 83 171 83 L 170 93 Q 137 96 94 103 Q 90 103 88 103" fill="#CCCCCC"/><path d="M 92 194 L 92 198 Q 90 230 79 235 Q 77 237 75 233 Q 74 232 74 232 Q 66 219 72 210 Q 75 206 76 200 Q 90 150 79 123 Q 78 120 82 119 Q 90 118 96 125 L 99 132 Q 97 133 96 155 L 95 161 Q 94 171 93 184 L 92 191" fill="#CCCCCC"/><path d="M 96 125 Q 113 122 149 114 Q 162 109 167 111 Q 178 115 183 120 Q 186 124 183 128 L 158 125 Q 151 122 99 132" fill="#CCCCCC"/><path d="M 183 128 Q 178 138 179 149 Q 182 179 185 211 Q 186 225 179 238 Q 174 251 170 252 Q 165 252 162 248 L 160 226 Q 164 224 165 217 Q 167 181 162 135 Q 162 126 158 125" fill="#CCCCCC"/><path d="M 162 248 Q 156 239 147 231 Q 143 229 142 226 Q 142 224 146 225 Q 158 227 160 226" fill="#CCCCCC"/><path d="M 96 155 Q 127 146 135 147 Q 142 149 144 153 Q 146 156 140 157 Q 124 158 102 162 Q 97 162 95 161" fill="#CCCCCC"/><path d="M 93 184 Q 130 176 136 177 Q 143 179 145 183 Q 147 186 141 187 Q 122 189 97 191 Q 94 191 92 191" fill="#CCCCCC"/><path d="M 87 108 L 83 107 L 83 107 Q 73 102 71 84 Q 66 51 56 37 Q 54 34 55 32 Q 57 31 58 31 Q 64 32 70 35 L 78 45 Q 78 50 84 82 Q 86 89 87 95 L 88 103" fill="#000080" clip-path="url(#clip-mask-1)" /><path d="M 120 37 Q 96 41 78 45 L 70 35 Q 87 34 108 30 Q 135 26 156 23 Q 173 22 185 18 Q 190 17 195 20 Q 208 29 212 34 L 183 34 Q 175 27 134 35" fill="#000080" clip-path="url(#clip-mask-2)" /><path d="M 171 83 Q 174 82 175 79 Q 178 74 185 42 Q 186 36 183 34 L 212 34 Q 216 39 211 42 Q 204 49 201 59 Q 190 92 186 98 Q 181 104 178 102 Q 174 99 170 93" fill="#000080" clip-path="url(#clip-mask-3)" /><path d="M 120 68 Q 119 68 119 68 Q 106 71 98 66 Q 92 62 100 61 Q 111 60 120 59 L 134 56 Q 150 51 157 52 Q 163 54 164 57 Q 165 58 163 60 Q 163 61 134 66" fill="#000080" clip-path="url(#clip-mask-4)" /><path d="M 120 90 L 120 68 L 120 59 L 120 37 L 134 35 L 134 56 L 134 66 L 134 88" fill="#000080" clip-path="url(#clip-mask-5)" /><path d="M 87 95 Q 103 92 120 90 L 134 88 Q 164 82 170 83 Q 170 83 171 83 L 170 93 Q 137 96 94 103 Q 90 103 88 103" fill="#000080" clip-path="url(#clip-mask-6)" /><path d="M 92 194 L 92 198 Q 90 230 79 235 Q 77 237 75 233 Q 74 232 74 232 Q 66 219 72 210 Q 75 206 76 200 Q 90 150 79 123 Q 78 120 82 119 Q 90 118 96 125 L 99 132 Q 97 133 96 155 L 95 161 Q 94 171 93 184 L 92 191" fill="#0000ff" clip-path="url(#clip-mask-7)" /><path d="M 96 125 Q 113 122 149 114 Q 162 109 167 111 Q 178 115 183 120 Q 186 124 183 128 L 158 125 Q 151 122 99 132" fill="#0000ff" clip-path="url(#clip-mask-8)" /><path d="M 183 128 Q 178 138 179 149 Q 182 179 185 211 Q 186 225 179 238 Q 174 251 170 252 Q 165 252 162 248 L 160 226 Q 164 224 165 217 Q 167 181 162 135 Q 162 126 158 125" fill="#0000ff" clip-path="url(#clip-mask-9)" /><path d="M 162 248 Q 156 239 147 231 Q 143 229 142 226 Q 142 224 146 225 Q 158 227 160 226" fill="#0000ff" clip-path="url(#clip-mask-10)" /><path d="M 96 155 Q 127 146 135 147 Q 142 149 144 153 Q 146 156 140 157 Q 124 158 102 162 Q 97 162 95 161" fill="#0000ff" clip-path="url(#clip-mask-11)" /><path d="M 93 184 Q 130 176 136 177 Q 143 179 145 183 Q 147 186 141 187 Q 122 189 97 191 Q 94 191 92 191" fill="#0000ff" clip-path="url(#clip-mask-12)" /></svg>