<svg xmlns="http://www.w3.org/2000/svg" xmlns:xlink="http://www.w3.org/1999/xlink" width="270" height="270"><defs><clipPath id="clip-mask-1"><rect x="21" y="47" width="47" height="184"><animate attributeName="y" from="-137" to="47" dur="0.681" begin="0; animate15.end + 1" id="animate1" fill="freeze"/></rect></clipPath><clipPath id="clip-mask-2"><rect x="66" y="44" width="47" height="18"><set attributeName="x" to="19" begin="0; animate15.end + 1" /><animate attributeName="x" from="19" to="66" dur="0.174" begin="animate1.end + 0.5" id="animate2" fill="freeze"/></rect></clipPath><clipPath id="clip-mask-3"><rect x="86" y="58" width="24" height="166"><set attributeName="y" to="-108" begin="0; animate15.end + 1" /><animate attributeName="y" from="-108" to="58" dur="0.615" begin="animate2.end" id="animate3" fill="freeze"/></rect></clipPath><clipPath id="clip-mask-4"><rect x="67" y="195" width="22" height="22"><set attributeName="x" to="89" begin="0; animate15.end + 1" /><animate attributeName="x" from="89" to="67" dur="0.081" begin="animate3.end" id="animate4" fill="freeze"/></rect></clipPath><clipPath id="clip-mask-5"><rect x="67" y="95" width="24" height="11"><set attributeName="x" to="43" begin="0; animate15.end + 1" /><animate attributeName="x" from="43" to="67" dur="0.089" begin="animate4.end + 0.5" id="animate5" fill="freeze"/></rect></clipPath><clipPath id="clip-mask-6"><rect x="63" y="134" width="27" height="12"><set attributeName="x" to="36" begin="0; animate15.end + 1" /><animate attributeName="x" from="36" to="63" dur="0.100" begin="animate5.end + 0.5" id="animate6" fill="freeze"/></rect></clipPath><clipPath id="clip-mask-7"><rect x="120" y="20" width="66" height="91"><set attributeName="y" to="-71" begin="0; animate15.end + 1" /><animate attributeName="y" from="-71" to="20" dur="0.337" begin="animate6.end + 0.5" id="animate7" fill="freeze"/></rect></clipPath><clipPath id="clip-mask-8"><rect x="152" y="62" width="90" height="25"><set attributeName="x" to="62" begin="0; animate15.end + 1" /><animate attributeName="x" from="62" to="152" dur="0.333" begin="animate7.end + 0.5" id="animate8" fill="freeze"/></rect></clipPath><clipPath id="clip-mask-9"><rect x="201" y="74" width="47" height="175"><set attributeName="y" to="-101" begin="0; animate15.end + 1" /><animate attributeName="y" from="-101" to="74" dur="0.648" begin="animate8.end" id="animate9" fill="freeze"/></rect></clipPath><clipPath id="clip-mask-10"><rect x="184" y="213" width="24" height="28"><set attributeName="x" to="208" begin="0; animate15.end + 1" /><animate attributeName="x" from="208" to="184" dur="0.089" begin="animate9.end" id="animate10" fill="freeze"/></rect></clipPath><clipPath id="clip-mask-11"><rect x="135" y="96" width="52" height="72"><set attributeName="y" to="24" begin="0; animate15.end + 1" /><animate attributeName="y" from="24" to="96" dur="0.267" begin="animate10.end + 0.5" id="animate11" fill="freeze"/></rect></clipPath><clipPath id="clip-mask-12"><rect x="136" y="116" width="47" height="42"><set attributeName="x" to="89" begin="0; animate15.end + 1" /><animate attributeName="x" from="89" to="136" dur="0.174" begin="animate11.end + 0.5" id="animate12" fill="freeze"/></rect></clipPath><clipPath id="clip-mask-13"><rect x="111" y="137" width="23" height="58"><set attributeName="y" to="79" begin="0; animate15.end + 1" /><animate attributeName="y" from="79" to="137" dur="0.215" begin="animate12.end + 0.5" id="animate13" fill="freeze"/></rect></clipPath><clipPath id="clip-mask-14"><rect x="124" y="166" width="68" height="27"><set attributeName="x" to="56" begin="0; animate15.end + 1" /><animate attributeName="x" from="56" to="124" dur="0.252" begin="animate13.end" id="animate14" fill="freeze"/></rect></clipPath><clipPath id="clip-mask-15"><rect x="186" y="123" width="25" height="76"><set attributeName="y" to="47" begin="0; animate15.end + 1" /><animate attributeName="y" from="47" to="123" dur="0.281" begin="animate14.end + 0.5" id="animate15" fill="freeze"/></rect></clipPath></defs><path d="M 0 0 L 270 270 M 270 0 L 0 270 M 135 0 L 135 270 M 0 135 L 270 135" stroke="#CCCCCC" /><path d="M 54 192 L 36 216 Q 28 230 24 231 Q 21 231 21 229 Q 22 228 23 226 Q 41 188 48 163 Q 48 161 49 159 Q 54 135 54 76 Q 53 61 48 53 Q 46 50 48 48 Q 51 47 56 49 Q 62 51 66 54 L 68 62 Q 67 69 67 98 L 67 106 Q 66 121 65 137 L 63 146" fill="#CCCCCC"/><path d="M 66 54 Q 69 53 80 49 Q 90 44 96 46 Q 105 49 110 54 Q 113 57 110 61 L 91 58 Q 89 56 85 57 Q 78 59 71 61 Q 69 61 68 62" fill="#CCCCCC"/><path d="M 110 61 Q 106 68 107 82 Q 106 153 108 196 Q 108 209 98 221 Q 95 224 93 223 Q 89 222 86 217 L 89 198 Q 91 195 91 188 Q 95 144 94 70 Q 94 61 91 58" fill="#CCCCCC"/><path d="M 86 217 Q 80 209 67 197 Q 67 195 72 196 Q 88 198 89 198" fill="#CCCCCC"/><path d="M 67 98 Q 75 95 80 95 Q 86 95 89 98 Q 91 101 86 102 Q 78 104 67 106" fill="#CCCCCC"/><path d="M 65 137 Q 73 134 78 134 Q 85 134 88 137 Q 90 140 85 142 Q 76 143 65 146 Q 64 146 63 146" fill="#CCCCCC"/><path d="M 132 109 L 124 110 Q 120 111 121 108 Q 121 106 124 104 Q 137 87 147 71 Q 156 55 162 38 Q 164 32 162 26 Q 159 21 164 20 Q 169 20 176 25 Q 183 30 184 34 Q 186 37 183 40 Q 179 44 174 53 Q 164 68 156 79 L 152 83" fill="#CCCCCC"/><path d="M 156 79 Q 181 75 207 68 Q 221 62 242 74 L 215 80 Q 211 75 175 84 Q 161 87 152 83" fill="#CCCCCC"/><path d="M 242 74 Q 248 78 243 84 Q 238 91 239 110 Q 238 185 233 208 Q 228 228 221 238 Q 216 246 211 247 Q 207 249 201 241 L 208 218 Q 211 216 214 209 Q 219 192 222 169 Q 224 142 221 99 Q 220 86 215 80" fill="#CCCCCC"/><path d="M 201 241 Q 197 231 188 220 Q 184 216 185 214 Q 186 213 189 214 Q 207 219 208 218" fill="#CCCCCC"/><path d="M 148 166 L 137 168 Q 135 168 137 167 Q 151 150 158 139 L 162 130 Q 173 112 169 101 Q 168 99 170 98 Q 175 96 183 101 Q 186 103 186 105 Q 187 107 186 108 Q 184 109 183 112 Q 176 126 170 135 L 164 145" fill="#CCCCCC"/><path d="M 158 139 Q 147 129 138 122 Q 136 120 136 119 Q 136 116 138 117 Q 153 124 162 130 L 170 135 Q 179 141 181 147 Q 183 154 182 156 Q 180 158 179 157 Q 177 157 164 145" fill="#CCCCCC"/><path d="M 124 193 Q 122 195 119 193 Q 115 190 113 187 Q 111 184 115 181 Q 120 176 121 165 Q 123 154 118 142 Q 116 139 119 137 Q 121 137 123 138 Q 128 141 132 145 Q 134 148 133 153 Q 132 163 130 173" fill="#CCCCCC"/><path d="M 186 173 L 169 176 Q 130 186 124 193 L 130 173 Q 129 178 134 177 Q 158 169 192 166 L 190 174" fill="#CCCCCC"/><path d="M 192 166 Q 192 165 192 164 Q 195 134 191 128 Q 191 125 193 124 Q 196 123 198 125 Q 205 129 209 133 Q 211 136 210 139 Q 206 145 202 173 Q 201 191 195 196 Q 192 199 190 195 Q 186 183 190 174" fill="#CCCCCC"/><path d="M 54 192 L 36 216 Q 28 230 24 231 Q 21 231 21 229 Q 22 228 23 226 Q 41 188 48 163 Q 48 161 49 159 Q 54 135 54 76 Q 53 61 48 53 Q 46 50 48 48 Q 51 47 56 49 Q 62 51 66 54 L 68 62 Q 67 69 67 98 L 67 106 Q 66 121 65 137 L 63 146" fill="#0000ff" clip-path="url(#clip-mask-1)" /><path d="M 66 54 Q 69 53 80 49 Q 90 44 96 46 Q 105 49 110 54 Q 113 57 110 61 L 91 58 Q 89 56 85 57 Q 78 59 71 61 Q 69 61 68 62" fill="#0000ff" clip-path="url(#clip-mask-2)" /><path d="M 110 61 Q 106 68 107 82 Q 106 153 108 196 Q 108 209 98 221 Q 95 224 93 223 Q 89 222 86 217 L 89 198 Q 91 195 91 188 Q 95 144 94 70 Q 94 61 91 58" fill="#0000ff" clip-path="url(#clip-mask-3)" /><path d="M 86 217 Q 80 209 67 197 Q 67 195 72 196 Q 88 198 89 198" fill="#0000ff" clip-path="url(#clip-mask-4)" /><path d="M 67 98 Q 75 95 80 95 Q 86 95 89 98 Q 91 101 86 102 Q 78 104 67 106" fill="#0000ff" clip-path="url(#clip-mask-5)" /><path d="M 65 137 Q 73 134 78 134 Q 85 134 88 137 Q 90 140 85 142 Q 76 143 65 146 Q 64 146 63 146" fill="#0000ff" clip-path="url(#clip-mask-6)" /><path d="M 132 109 L 124 110 Q 120 111 121 108 Q 121 106 124 104 Q 137 87 147 71 Q 156 55 162 38 Q 164 32 162 26 Q 159 21 164 20 Q 169 20 176 25 Q 183 30 184 34 Q 186 37 183 40 Q 179 44 174 53 Q 164 68 156 79 L 152 83" fill="#000080" clip-path="url(#clip-mask-7)" /><path d="M 156 79 Q 181 75 207 68 Q 221 62 242 74 L 215 80 Q 211 75 175 84 Q 161 87 152 83" fill="#000080" clip-path="url(#clip-mask-8)" /><path d="M 242 74 Q 248 78 243 84 Q 238 91 239 110 Q 238 185 233 208 Q 228 228 221 238 Q 216 246 211 247 Q 207 249 201 241 L 208 218 Q 211 216 214 209 Q 219 192 222 169 Q 224 142 221 99 Q 220 86 215 80" fill="#000080" clip-path="url(#clip-mask-9)" /><path d="M 201 241 Q 197 231 188 220 Q 184 216 185 214 Q 186 213 189 214 Q 207 219 208 218" fill="#000080" clip-path="url(#clip-mask-10)" /><path d="M 148 166 L 137 168 Q 135 168 137 167 Q 151 150 158 139 L 162 130 Q 173 112 169 101 Q 168 99 170 98 Q 175 96 183 101 Q 186 103 186 105 Q 187 107 186 108 Q 184 109 183 112 Q 176 126 170 135 L 164 145" fill="#000080" clip-path="url(#clip-mask-11)" /><path d="M 158 139 Q 147 129 138 122 Q 136 120 136 119 Q 136 116 138 117 Q 153 124 162 130 L 170 135 Q 179 141 181 147 Q 183 154 182 156 Q 180 158 179 157 Q 177 157 164 145" fill="#000080" clip-path="url(#clip-mask-12)" /><path d="M 124 193 Q 122 195 119 193 Q 115 190 113 187 Q 111 184 115 181 Q 120 176 121 165 Q 123 154 118 142 Q 116 139 119 137 Q 121 137 123 138 Q 128 141 132 145 Q 134 148 133 153 Q 132 163 130 173" fill="#000080" clip-path="url(#clip-mask-13)" /><path d="M 186 173 L 169 176 Q 130 186 124 193 L 130 173 Q 129 178 134 177 Q 158 169 192 166 L 190 174" fill="#000080" clip-path="url(#clip-mask-14)" /><path d="M 192 166 Q 192 165 192 164 Q 195 134 191 128 Q 191 125 193 124 Q 196 123 198 125 Q 205 129 209 133 Q 211 136 210 139 Q 206 145 202 173 Q 201 191 195 196 Q 192 199 190 195 Q 186 183 190 174" fill="#000080" clip-path="url(#clip-mask-15)" /></svg>