<svg xmlns="http://www.w3.org/2000/svg" xmlns:xlink="http://www.w3.org/1999/xlink" width="270" height="270"><defs><clipPath id="clip-mask-1"><rect x="11" y="36" width="47" height="187"><animate attributeName="y" from="-151" to="36" dur="0.693" begin="0; animate19.end + 1" id="animate1" fill="freeze"/></rect></clipPath><clipPath id="clip-mask-2"><rect x="51" y="33" width="45" height="16"><set attributeName="x" to="6" begin="0; animate19.end + 1" /><animate attributeName="x" from="6" to="51" dur="0.167" begin="animate1.end + 0.5" id="animate2" fill="freeze"/></rect></clipPath><clipPath id="clip-mask-3"><rect x="71" y="43" width="28" height="186"><set attributeName="y" to="-143" begin="0; animate19.end + 1" /><animate attributeName="y" from="-143" to="43" dur="0.689" begin="animate2.end" id="animate3" fill="freeze"/></rect></clipPath><clipPath id="clip-mask-4"><rect x="51" y="199" width="31" height="29"><set attributeName="x" to="82" begin="0; animate19.end + 1" /><animate attributeName="x" from="82" to="51" dur="0.115" begin="animate3.end" id="animate4" fill="freeze"/></rect></clipPath><clipPath id="clip-mask-5"><rect x="56" y="84" width="23" height="12"><set attributeName="x" to="33" begin="0; animate19.end + 1" /><animate attributeName="x" from="33" to="56" dur="0.085" begin="animate4.end + 0.5" id="animate5" fill="freeze"/></rect></clipPath><clipPath id="clip-mask-6"><rect x="52" y="126" width="27" height="12"><set attributeName="x" to="25" begin="0; animate19.end + 1" /><animate attributeName="x" from="25" to="52" dur="0.100" begin="animate5.end + 0.5" id="animate6" fill="freeze"/></rect></clipPath><clipPath id="clip-mask-7"><rect x="163" y="34" width="54" height="18"><set attributeName="x" to="109" begin="0; animate19.end + 1" /><animate attributeName="x" from="109" to="163" dur="0.200" begin="animate6.end + 0.5" id="animate7" fill="freeze"/></rect></clipPath><clipPath id="clip-mask-8"><rect x="187" y="44" width="32" height="71"><set attributeName="y" to="-27" begin="0; animate19.end + 1" /><animate attributeName="y" from="-27" to="44" dur="0.263" begin="animate7.end" id="animate8" fill="freeze"/></rect></clipPath><clipPath id="clip-mask-9"><rect x="165" y="70" width="28" height="13"><set attributeName="x" to="137" begin="0; animate19.end + 1" /><animate attributeName="x" from="137" to="165" dur="0.104" begin="animate8.end + 0.5" id="animate9" fill="freeze"/></rect></clipPath><clipPath id="clip-mask-10"><rect x="165" y="98" width="25" height="13"><set attributeName="x" to="140" begin="0; animate19.end + 1" /><animate attributeName="x" from="140" to="165" dur="0.093" begin="animate9.end + 0.5" id="animate10" fill="freeze"/></rect></clipPath><clipPath id="clip-mask-11"><rect x="143" y="40" width="24" height="151"><set attributeName="y" to="-111" begin="0; animate19.end + 1" /><animate attributeName="y" from="-111" to="40" dur="0.559" begin="animate10.end + 0.5" id="animate11" fill="freeze"/></rect></clipPath><clipPath id="clip-mask-12"><rect x="158" y="152" width="31" height="35"><set attributeName="x" to="127" begin="0; animate19.end + 1" /><animate attributeName="x" from="127" to="158" dur="0.115" begin="animate11.end" id="animate12" fill="freeze"/></rect></clipPath><clipPath id="clip-mask-13"><rect x="194" y="100" width="39" height="31"><set attributeName="y" to="69" begin="0; animate19.end + 1" /><animate attributeName="y" from="69" to="100" dur="0.115" begin="animate12.end + 0.5" id="animate13" fill="freeze"/></rect></clipPath><clipPath id="clip-mask-14"><rect x="178" y="126" width="58" height="52"><set attributeName="x" to="120" begin="0; animate19.end + 1" /><animate attributeName="x" from="120" to="178" dur="0.215" begin="animate13.end + 0.5" id="animate14" fill="freeze"/></rect></clipPath><clipPath id="clip-mask-15"><rect x="108" y="64" width="25" height="29"><set attributeName="x" to="83" begin="0; animate19.end + 1" /><animate attributeName="x" from="83" to="108" dur="0.093" begin="animate14.end + 0.5" id="animate15" fill="freeze"/></rect></clipPath><clipPath id="clip-mask-16"><rect x="95" y="110" width="44" height="21"><set attributeName="x" to="51" begin="0; animate19.end + 1" /><animate attributeName="x" from="51" to="95" dur="0.163" begin="animate15.end + 0.5" id="animate16" fill="freeze"/></rect></clipPath><clipPath id="clip-mask-17"><rect x="112" y="119" width="32" height="41"><set attributeName="y" to="78" begin="0; animate19.end + 1" /><animate attributeName="y" from="78" to="119" dur="0.152" begin="animate16.end" id="animate17" fill="freeze"/></rect></clipPath><clipPath id="clip-mask-18"><rect x="117" y="160" width="19" height="30"><set attributeName="y" to="130" begin="0; animate19.end + 1" /><animate attributeName="y" from="130" to="160" dur="0.111" begin="animate17.end" id="animate18" fill="freeze"/></rect></clipPath><clipPath id="clip-mask-19"><rect x="96" y="188" width="162" height="48"><set attributeName="x" to="-66" begin="0; animate19.end + 1" /><animate attributeName="x" from="-66" to="96" dur="0.600" begin="animate18.end + 0.5" id="animate19" fill="freeze"/></rect></clipPath></defs><path d="M 0 0 L 270 270 M 270 0 L 0 270 M 135 0 L 135 270 M 0 135 L 270 135" stroke="#CCCCCC" /><path d="M 43 183 L 25 208 Q 18 221 13 222 Q 11 223 11 220 Q 11 219 12 217 Q 30 181 37 154 Q 46 121 44 75 Q 43 71 43 69 Q 42 50 36 44 Q 35 41 37 39 Q 41 36 51 42 L 58 49 Q 57 50 57 52 Q 55 61 56 80 Q 56 83 56 86 L 56 96 Q 55 112 54 128 L 52 138" fill="#CCCCCC"/><path d="M 51 42 Q 59 41 63 40 Q 68 38 74 35 Q 78 33 82 35 Q 91 39 96 43 L 71 46 Q 64 47 58 49" fill="#CCCCCC"/><path d="M 96 43 Q 99 46 96 50 Q 93 56 93 70 Q 92 152 95 202 Q 95 214 86 227 Q 83 229 82 228 L 77 204 Q 80 199 81 137 Q 81 58 78 48 Q 76 45 71 46" fill="#CCCCCC"/><path d="M 82 228 Q 78 227 75 222 Q 66 213 52 201 Q 51 199 56 200 Q 64 203 71 204 Q 76 205 77 204" fill="#CCCCCC"/><path d="M 56 86 Q 63 84 67 84 Q 73 85 76 88 Q 79 91 73 93 Q 65 94 56 96" fill="#CCCCCC"/><path d="M 54 128 Q 62 126 67 126 Q 74 127 76 130 Q 79 133 73 135 Q 64 136 52 138" fill="#CCCCCC"/><path d="M 195 45 Q 194 44 190 45 Q 176 49 167 52 L 163 46 Q 164 45 165 45 Q 199 34 203 35 Q 213 41 217 44" fill="#CCCCCC"/><path d="M 190 99 Q 194 92 199 54 Q 199 50 195 45 L 217 44 Q 219 47 217 50 Q 212 56 210 63 Q 205 102 201 110 Q 198 115 195 113 Q 192 112 187 106" fill="#CCCCCC"/><path d="M 165 74 Q 170 70 181 70 Q 188 70 190 73 Q 193 76 187 78 Q 177 79 165 83" fill="#CCCCCC"/><path d="M 165 105 Q 183 98 188 98 Q 189 98 190 99 L 187 106 Q 177 108 165 111" fill="#CCCCCC"/><path d="M 164 137 L 163 161 L 158 187 Q 156 191 153 190 Q 149 188 146 183 Q 144 179 146 174 Q 150 170 153 149 Q 158 60 146 49 Q 143 46 145 43 Q 147 40 154 42 Q 158 43 163 46 L 167 52 Q 167 53 167 55 Q 165 60 165 74 L 165 83 Q 165 94 165 105 L 165 111" fill="#CCCCCC"/><path d="M 163 161 Q 164 167 168 164 Q 187 152 188 153 Q 189 153 189 155 Q 189 157 182 162 Q 162 181 158 187" fill="#CCCCCC"/><path d="M 214 107 L 214 103 Q 213 100 216 100 Q 218 100 223 103 Q 228 107 231 111 Q 233 114 228 116 Q 223 118 219 121 Q 215 123 211 124 Q 206 127 197 131 Q 194 131 196 128 Q 208 114 211 111" fill="#CCCCCC"/><path d="M 178 132 L 178 129 Q 179 126 180 127 Q 229 146 233 162 Q 236 172 233 175 Q 232 178 230 177 Q 226 176 222 172 Q 199 150 180 135" fill="#CCCCCC"/><path d="M 108 69 L 108 67 Q 109 64 111 65 Q 128 70 132 78 Q 133 84 133 88 Q 130 93 126 92 Q 119 90 109 72" fill="#CCCCCC"/><path d="M 116 126 Q 105 131 97 128 Q 95 127 95 126 Q 95 124 97 124 Q 98 124 113 117 Q 122 110 127 112 Q 135 116 139 119" fill="#CCCCCC"/><path d="M 117 160 Q 112 149 120 138 Q 124 132 120 127 Q 118 125 116 126 L 139 119 Q 144 123 139 127 Q 137 128 136 131 Q 121 147 127 160" fill="#CCCCCC"/><path d="M 125 189 L 125 189 Q 126 186 126 182 Q 125 178 117 160 L 127 160 Q 136 174 135 184 Q 133 189 129 190 L 124 190" fill="#CCCCCC"/><path d="M 129 190 Q 160 200 190 209 Q 198 211 245 211 Q 258 210 258 213 Q 258 215 253 217 Q 238 224 222 230 Q 209 236 200 231 Q 167 215 139 203 Q 126 196 112 199 Q 102 198 99 196 Q 96 193 97 190 Q 97 188 101 189 Q 107 190 113 189 Q 119 189 124 190" fill="#CCCCCC"/><path d="M 43 183 L 25 208 Q 18 221 13 222 Q 11 223 11 220 Q 11 219 12 217 Q 30 181 37 154 Q 46 121 44 75 Q 43 71 43 69 Q 42 50 36 44 Q 35 41 37 39 Q 41 36 51 42 L 58 49 Q 57 50 57 52 Q 55 61 56 80 Q 56 83 56 86 L 56 96 Q 55 112 54 128 L 52 138" fill="#0000ff" clip-path="url(#clip-mask-1)" /><path d="M 51 42 Q 59 41 63 40 Q 68 38 74 35 Q 78 33 82 35 Q 91 39 96 43 L 71 46 Q 64 47 58 49" fill="#0000ff" clip-path="url(#clip-mask-2)" /><path d="M 96 43 Q 99 46 96 50 Q 93 56 93 70 Q 92 152 95 202 Q 95 214 86 227 Q 83 229 82 228 L 77 204 Q 80 199 81 137 Q 81 58 78 48 Q 76 45 71 46" fill="#0000ff" clip-path="url(#clip-mask-3)" /><path d="M 82 228 Q 78 227 75 222 Q 66 213 52 201 Q 51 199 56 200 Q 64 203 71 204 Q 76 205 77 204" fill="#0000ff" clip-path="url(#clip-mask-4)" /><path d="M 56 86 Q 63 84 67 84 Q 73 85 76 88 Q 79 91 73 93 Q 65 94 56 96" fill="#0000ff" clip-path="url(#clip-mask-5)" /><path d="M 54 128 Q 62 126 67 126 Q 74 127 76 130 Q 79 133 73 135 Q 64 136 52 138" fill="#0000ff" clip-path="url(#clip-mask-6)" /><path d="M 195 45 Q 194 44 190 45 Q 176 49 167 52 L 163 46 Q 164 45 165 45 Q 199 34 203 35 Q 213 41 217 44" fill="#000080" clip-path="url(#clip-mask-7)" /><path d="M 190 99 Q 194 92 199 54 Q 199 50 195 45 L 217 44 Q 219 47 217 50 Q 212 56 210 63 Q 205 102 201 110 Q 198 115 195 113 Q 192 112 187 106" fill="#000080" clip-path="url(#clip-mask-8)" /><path d="M 165 74 Q 170 70 181 70 Q 188 70 190 73 Q 193 76 187 78 Q 177 79 165 83" fill="#000080" clip-path="url(#clip-mask-9)" /><path d="M 165 105 Q 183 98 188 98 Q 189 98 190 99 L 187 106 Q 177 108 165 111" fill="#000080" clip-path="url(#clip-mask-10)" /><path d="M 164 137 L 163 161 L 158 187 Q 156 191 153 190 Q 149 188 146 183 Q 144 179 146 174 Q 150 170 153 149 Q 158 60 146 49 Q 143 46 145 43 Q 147 40 154 42 Q 158 43 163 46 L 167 52 Q 167 53 167 55 Q 165 60 165 74 L 165 83 Q 165 94 165 105 L 165 111" fill="#000080" clip-path="url(#clip-mask-11)" /><path d="M 163 161 Q 164 167 168 164 Q 187 152 188 153 Q 189 153 189 155 Q 189 157 182 162 Q 162 181 158 187" fill="#000080" clip-path="url(#clip-mask-12)" /><path d="M 214 107 L 214 103 Q 213 100 216 100 Q 218 100 223 103 Q 228 107 231 111 Q 233 114 228 116 Q 223 118 219 121 Q 215 123 211 124 Q 206 127 197 131 Q 194 131 196 128 Q 208 114 211 111" fill="#000080" clip-path="url(#clip-mask-13)" /><path d="M 178 132 L 178 129 Q 179 126 180 127 Q 229 146 233 162 Q 236 172 233 175 Q 232 178 230 177 Q 226 176 222 172 Q 199 150 180 135" fill="#000080" clip-path="url(#clip-mask-14)" /><path d="M 108 69 L 108 67 Q 109 64 111 65 Q 128 70 132 78 Q 133 84 133 88 Q 130 93 126 92 Q 119 90 109 72" fill="#000080" clip-path="url(#clip-mask-15)" /><path d="M 116 126 Q 105 131 97 128 Q 95 127 95 126 Q 95 124 97 124 Q 98 124 113 117 Q 122 110 127 112 Q 135 116 139 119" fill="#000080" clip-path="url(#clip-mask-16)" /><path d="M 117 160 Q 112 149 120 138 Q 124 132 120 127 Q 118 125 116 126 L 139 119 Q 144 123 139 127 Q 137 128 136 131 Q 121 147 127 160" fill="#000080" clip-path="url(#clip-mask-17)" /><path d="M 125 189 L 125 189 Q 126 186 126 182 Q 125 178 117 160 L 127 160 Q 136 174 135 184 Q 133 189 129 190 L 124 190" fill="#000080" clip-path="url(#clip-mask-18)" /><path d="M 129 190 Q 160 200 190 209 Q 198 211 245 211 Q 258 210 258 213 Q 258 215 253 217 Q 238 224 222 230 Q 209 236 200 231 Q 167 215 139 203 Q 126 196 112 199 Q 102 198 99 196 Q 96 193 97 190 Q 97 188 101 189 Q 107 190 113 189 Q 119 189 124 190" fill="#000080" clip-path="url(#clip-mask-19)" /></svg>