<svg xmlns="http://www.w3.org/2000/svg" xmlns:xlink="http://www.w3.org/1999/xlink" width="270" height="270"><defs><clipPath id="clip-mask-1"><rect x="62" y="19" width="43" height="56"><animate attributeName="y" from="-37" to="19" dur="0.207" begin="0; animate20.end + 1" id="animate1" fill="freeze"/></rect></clipPath><clipPath id="clip-mask-2"><rect x="22" y="69" width="43" height="167"><set attributeName="y" to="-98" begin="0; animate20.end + 1" /><animate attributeName="y" from="-98" to="69" dur="0.619" begin="animate1.end + 0.5" id="animate2" fill="freeze"/></rect></clipPath><clipPath id="clip-mask-3"><rect x="62" y="64" width="45" height="18"><set attributeName="x" to="17" begin="0; animate20.end + 1" /><animate attributeName="x" from="17" to="62" dur="0.167" begin="animate2.end + 0.5" id="animate3" fill="freeze"/></rect></clipPath><clipPath id="clip-mask-4"><rect x="86" y="74" width="24" height="169"><set attributeName="y" to="-95" begin="0; animate20.end + 1" /><animate attributeName="y" from="-95" to="74" dur="0.626" begin="animate3.end" id="animate4" fill="freeze"/></rect></clipPath><clipPath id="clip-mask-5"><rect x="66" y="214" width="22" height="22"><set attributeName="x" to="88" begin="0; animate20.end + 1" /><animate attributeName="x" from="88" to="66" dur="0.081" begin="animate4.end" id="animate5" fill="freeze"/></rect></clipPath><clipPath id="clip-mask-6"><rect x="68" y="99" width="18" height="22"><set attributeName="x" to="50" begin="0; animate20.end + 1" /><animate attributeName="x" from="50" to="68" dur="0.067" begin="animate5.end + 0.5" id="animate6" fill="freeze"/></rect></clipPath><clipPath id="clip-mask-7"><rect x="9" y="128" width="108" height="33"><set attributeName="x" to="-99" begin="0; animate20.end + 1" /><animate attributeName="x" from="-99" to="9" dur="0.400" begin="animate6.end + 0.5" id="animate7" fill="freeze"/></rect></clipPath><clipPath id="clip-mask-8"><rect x="65" y="156" width="22" height="26"><set attributeName="x" to="43" begin="0; animate20.end + 1" /><animate attributeName="x" from="43" to="65" dur="0.081" begin="animate7.end + 0.5" id="animate8" fill="freeze"/></rect></clipPath><clipPath id="clip-mask-9"><rect x="113" y="22" width="67" height="101"><set attributeName="y" to="-79" begin="0; animate20.end + 1" /><animate attributeName="y" from="-79" to="22" dur="0.374" begin="animate8.end + 0.5" id="animate9" fill="freeze"/></rect></clipPath><clipPath id="clip-mask-10"><rect x="171" y="44" width="88" height="65"><set attributeName="x" to="83" begin="0; animate20.end + 1" /><animate attributeName="x" from="83" to="171" dur="0.326" begin="animate9.end + 0.5" id="animate10" fill="freeze"/></rect></clipPath><clipPath id="clip-mask-11"><rect x="158" y="79" width="26" height="22"><set attributeName="x" to="132" begin="0; animate20.end + 1" /><animate attributeName="x" from="132" to="158" dur="0.096" begin="animate10.end + 0.5" id="animate11" fill="freeze"/></rect></clipPath><clipPath id="clip-mask-12"><rect x="147" y="101" width="65" height="22"><set attributeName="x" to="82" begin="0; animate20.end + 1" /><animate attributeName="x" from="82" to="147" dur="0.241" begin="animate11.end + 0.5" id="animate12" fill="freeze"/></rect></clipPath><clipPath id="clip-mask-13"><rect x="179" y="112" width="35" height="63"><set attributeName="y" to="49" begin="0; animate20.end + 1" /><animate attributeName="y" from="49" to="112" dur="0.233" begin="animate12.end" id="animate13" fill="freeze"/></rect></clipPath><clipPath id="clip-mask-14"><rect x="146" y="132" width="38" height="14"><set attributeName="x" to="108" begin="0; animate20.end + 1" /><animate attributeName="x" from="108" to="146" dur="0.141" begin="animate13.end + 0.5" id="animate14" fill="freeze"/></rect></clipPath><clipPath id="clip-mask-15"><rect x="142" y="152" width="41" height="17"><set attributeName="x" to="101" begin="0; animate20.end + 1" /><animate attributeName="x" from="101" to="142" dur="0.152" begin="animate14.end + 0.5" id="animate15" fill="freeze"/></rect></clipPath><clipPath id="clip-mask-16"><rect x="107" y="109" width="41" height="123"><set attributeName="y" to="-14" begin="0; animate20.end + 1" /><animate attributeName="y" from="-14" to="109" dur="0.456" begin="animate15.end + 0.5" id="animate16" fill="freeze"/></rect></clipPath><clipPath id="clip-mask-17"><rect x="134" y="193" width="20" height="57"><set attributeName="y" to="136" begin="0; animate20.end + 1" /><animate attributeName="y" from="136" to="193" dur="0.211" begin="animate16.end + 0.5" id="animate17" fill="freeze"/></rect></clipPath><clipPath id="clip-mask-18"><rect x="149" y="180" width="71" height="24"><set attributeName="x" to="78" begin="0; animate20.end + 1" /><animate attributeName="x" from="78" to="149" dur="0.263" begin="animate17.end + 0.5" id="animate18" fill="freeze"/></rect></clipPath><clipPath id="clip-mask-19"><rect x="190" y="196" width="33" height="30"><set attributeName="y" to="166" begin="0; animate20.end + 1" /><animate attributeName="y" from="166" to="196" dur="0.111" begin="animate18.end" id="animate19" fill="freeze"/></rect></clipPath><clipPath id="clip-mask-20"><rect x="154" y="224" width="55" height="16"><set attributeName="x" to="99" begin="0; animate20.end + 1" /><animate attributeName="x" from="99" to="154" dur="0.204" begin="animate19.end + 0.5" id="animate20" fill="freeze"/></rect></clipPath></defs><path d="M 0 0 L 270 270 M 270 0 L 0 270 M 135 0 L 135 270 M 0 135 L 270 135" stroke="#CCCCCC" /><path d="M 62 75 Q 62 74 62 74 Q 66 64 71 56 Q 83 30 81 24 Q 79 21 82 20 Q 85 19 91 21 Q 98 22 102 25 Q 105 28 101 32 Q 96 36 93 41 Q 76 63 66 75" fill="#CCCCCC"/><path d="M 61 149 L 61 151 Q 54 197 35 222 Q 28 234 24 235 Q 22 236 22 233 Q 22 232 24 230 Q 45 190 49 151 L 51 140 Q 54 85 44 75 Q 42 72 45 70 Q 47 69 52 71 Q 58 72 62 75 L 65 82 Q 63 88 63 92 Q 63 121 62 138 L 61 148" fill="#CCCCCC"/><path d="M 89 78 Q 87 76 84 77 Q 68 82 65 82 L 62 75 L 66 75 Q 72 72 79 71 Q 89 64 94 66 Q 102 70 107 74" fill="#CCCCCC"/><path d="M 93 133 Q 92 112 92 90 Q 92 80 89 78 L 107 74 Q 110 76 107 81 Q 104 86 104 130 L 104 137 Q 104 184 106 216 Q 106 228 96 240 Q 94 243 92 242 Q 89 240 86 236 L 88 218 Q 92 212 93 140" fill="#CCCCCC"/><path d="M 86 236 Q 79 228 67 217 Q 66 214 71 216 Q 87 219 88 218" fill="#CCCCCC"/><path d="M 68 103 L 69 101 Q 69 99 70 99 Q 72 99 74 100 Q 86 108 86 115 Q 86 118 84 120 Q 82 121 80 120 Q 75 117 70 106" fill="#CCCCCC"/><path d="M 49 151 Q 38 155 29 159 Q 26 161 23 160 Q 16 154 12 150 Q 9 148 11 145 Q 11 143 14 143 Q 24 144 29 143 Q 40 141 51 140 L 62 138 Q 78 135 93 133 L 104 130 Q 108 129 113 129 Q 116 128 117 130 Q 116 132 104 137 L 93 140 Q 76 144 61 148" fill="#CCCCCC"/><path d="M 65 160 L 66 159 Q 66 156 68 157 Q 72 158 79 164 Q 84 167 85 171 Q 87 176 86 178 Q 83 182 81 181 Q 75 180 66 163" fill="#CCCCCC"/><path d="M 167 54 L 166 58 Q 132 118 116 123 Q 113 123 114 121 Q 114 119 116 117 Q 130 97 141 79 Q 163 40 156 28 Q 154 23 159 22 Q 163 22 170 26 Q 177 31 178 34 Q 180 37 177 40 Q 175 41 174 44 L 171 49" fill="#CCCCCC"/><path d="M 174 44 Q 190 59 204 71 Q 221 86 256 101 Q 259 103 259 104 Q 259 105 257 106 Q 249 107 225 108 Q 217 109 213 104 Q 189 75 171 49" fill="#CCCCCC"/><path d="M 159 85 L 158 83 Q 158 81 159 80 Q 161 79 175 83 Q 181 86 182 90 Q 184 95 183 98 Q 182 101 180 101 Q 177 101 175 98 Q 169 93 164 89" fill="#CCCCCC"/><path d="M 191 112 Q 189 111 184 112 Q 163 117 152 122 Q 149 123 148 123 L 147 115 Q 152 114 160 111 Q 180 105 181 105 Q 195 101 199 103 Q 208 108 212 112" fill="#CCCCCC"/><path d="M 183 158 Q 186 155 193 120 Q 194 115 191 112 L 212 112 Q 214 115 211 118 Q 206 123 204 130 Q 196 164 193 170 Q 189 175 187 173 Q 183 171 179 164" fill="#CCCCCC"/><path d="M 146 140 Q 166 132 174 133 Q 180 134 182 137 Q 184 140 179 141 Q 166 143 149 146 Q 147 146 146 146" fill="#CCCCCC"/><path d="M 144 161 Q 150 160 157 158 Q 175 152 183 158 L 179 164 Q 156 166 146 169 Q 143 169 142 169" fill="#CCCCCC"/><path d="M 134 197 Q 133 198 130 205 Q 116 229 109 231 Q 107 232 108 229 Q 108 228 109 227 Q 124 199 128 186 Q 128 185 128 185 Q 141 128 131 114 Q 130 111 132 110 Q 135 109 139 111 Q 143 113 147 115 L 148 123 Q 146 138 146 140 L 146 146 Q 145 153 144 161 L 142 169 Q 142 170 142 172 Q 139 183 135 193" fill="#CCCCCC"/><path d="M 154 244 L 153 246 Q 152 250 148 245 Q 144 240 144 234 Q 140 210 134 197 L 135 193 Q 136 193 139 193 Q 147 195 149 197 L 152 204 Q 152 211 154 231 L 154 240" fill="#CCCCCC"/><path d="M 196 198 Q 194 196 190 197 Q 154 204 152 204 L 149 197 Q 175 192 189 187 Q 200 180 220 196" fill="#CCCCCC"/><path d="M 190 224 Q 194 214 197 204 Q 198 199 196 198 L 220 196 Q 223 201 219 205 Q 211 210 204 226" fill="#CCCCCC"/><path d="M 154 231 Q 169 228 188 224 Q 189 224 190 224 L 204 226 Q 209 231 209 233 Q 209 235 206 235 Q 161 238 154 240" fill="#CCCCCC"/><path d="M 62 75 Q 62 74 62 74 Q 66 64 71 56 Q 83 30 81 24 Q 79 21 82 20 Q 85 19 91 21 Q 98 22 102 25 Q 105 28 101 32 Q 96 36 93 41 Q 76 63 66 75" fill="#0000ff" clip-path="url(#clip-mask-1)" /><path d="M 61 149 L 61 151 Q 54 197 35 222 Q 28 234 24 235 Q 22 236 22 233 Q 22 232 24 230 Q 45 190 49 151 L 51 140 Q 54 85 44 75 Q 42 72 45 70 Q 47 69 52 71 Q 58 72 62 75 L 65 82 Q 63 88 63 92 Q 63 121 62 138 L 61 148" fill="#0000ff" clip-path="url(#clip-mask-2)" /><path d="M 89 78 Q 87 76 84 77 Q 68 82 65 82 L 62 75 L 66 75 Q 72 72 79 71 Q 89 64 94 66 Q 102 70 107 74" fill="#0000ff" clip-path="url(#clip-mask-3)" /><path d="M 93 133 Q 92 112 92 90 Q 92 80 89 78 L 107 74 Q 110 76 107 81 Q 104 86 104 130 L 104 137 Q 104 184 106 216 Q 106 228 96 240 Q 94 243 92 242 Q 89 240 86 236 L 88 218 Q 92 212 93 140" fill="#0000ff" clip-path="url(#clip-mask-4)" /><path d="M 86 236 Q 79 228 67 217 Q 66 214 71 216 Q 87 219 88 218" fill="#0000ff" clip-path="url(#clip-mask-5)" /><path d="M 68 103 L 69 101 Q 69 99 70 99 Q 72 99 74 100 Q 86 108 86 115 Q 86 118 84 120 Q 82 121 80 120 Q 75 117 70 106" fill="#0000ff" clip-path="url(#clip-mask-6)" /><path d="M 49 151 Q 38 155 29 159 Q 26 161 23 160 Q 16 154 12 150 Q 9 148 11 145 Q 11 143 14 143 Q 24 144 29 143 Q 40 141 51 140 L 62 138 Q 78 135 93 133 L 104 130 Q 108 129 113 129 Q 116 128 117 130 Q 116 132 104 137 L 93 140 Q 76 144 61 148" fill="#0000ff" clip-path="url(#clip-mask-7)" /><path d="M 65 160 L 66 159 Q 66 156 68 157 Q 72 158 79 164 Q 84 167 85 171 Q 87 176 86 178 Q 83 182 81 181 Q 75 180 66 163" fill="#0000ff" clip-path="url(#clip-mask-8)" /><path d="M 167 54 L 166 58 Q 132 118 116 123 Q 113 123 114 121 Q 114 119 116 117 Q 130 97 141 79 Q 163 40 156 28 Q 154 23 159 22 Q 163 22 170 26 Q 177 31 178 34 Q 180 37 177 40 Q 175 41 174 44 L 171 49" fill="#000080" clip-path="url(#clip-mask-9)" /><path d="M 174 44 Q 190 59 204 71 Q 221 86 256 101 Q 259 103 259 104 Q 259 105 257 106 Q 249 107 225 108 Q 217 109 213 104 Q 189 75 171 49" fill="#000080" clip-path="url(#clip-mask-10)" /><path d="M 159 85 L 158 83 Q 158 81 159 80 Q 161 79 175 83 Q 181 86 182 90 Q 184 95 183 98 Q 182 101 180 101 Q 177 101 175 98 Q 169 93 164 89" fill="#000080" clip-path="url(#clip-mask-11)" /><path d="M 191 112 Q 189 111 184 112 Q 163 117 152 122 Q 149 123 148 123 L 147 115 Q 152 114 160 111 Q 180 105 181 105 Q 195 101 199 103 Q 208 108 212 112" fill="#000080" clip-path="url(#clip-mask-12)" /><path d="M 183 158 Q 186 155 193 120 Q 194 115 191 112 L 212 112 Q 214 115 211 118 Q 206 123 204 130 Q 196 164 193 170 Q 189 175 187 173 Q 183 171 179 164" fill="#000080" clip-path="url(#clip-mask-13)" /><path d="M 146 140 Q 166 132 174 133 Q 180 134 182 137 Q 184 140 179 141 Q 166 143 149 146 Q 147 146 146 146" fill="#000080" clip-path="url(#clip-mask-14)" /><path d="M 144 161 Q 150 160 157 158 Q 175 152 183 158 L 179 164 Q 156 166 146 169 Q 143 169 142 169" fill="#000080" clip-path="url(#clip-mask-15)" /><path d="M 134 197 Q 133 198 130 205 Q 116 229 109 231 Q 107 232 108 229 Q 108 228 109 227 Q 124 199 128 186 Q 128 185 128 185 Q 141 128 131 114 Q 130 111 132 110 Q 135 109 139 111 Q 143 113 147 115 L 148 123 Q 146 138 146 140 L 146 146 Q 145 153 144 161 L 142 169 Q 142 170 142 172 Q 139 183 135 193" fill="#000080" clip-path="url(#clip-mask-16)" /><path d="M 154 244 L 153 246 Q 152 250 148 245 Q 144 240 144 234 Q 140 210 134 197 L 135 193 Q 136 193 139 193 Q 147 195 149 197 L 152 204 Q 152 211 154 231 L 154 240" fill="#000080" clip-path="url(#clip-mask-17)" /><path d="M 196 198 Q 194 196 190 197 Q 154 204 152 204 L 149 197 Q 175 192 189 187 Q 200 180 220 196" fill="#000080" clip-path="url(#clip-mask-18)" /><path d="M 190 224 Q 194 214 197 204 Q 198 199 196 198 L 220 196 Q 223 201 219 205 Q 211 210 204 226" fill="#000080" clip-path="url(#clip-mask-19)" /><path d="M 154 231 Q 169 228 188 224 Q 189 224 190 224 L 204 226 Q 209 231 209 233 Q 209 235 206 235 Q 161 238 154 240" fill="#000080" clip-path="url(#clip-mask-20)" /></svg>