<svg xmlns="http://www.w3.org/2000/svg" xmlns:xlink="http://www.w3.org/1999/xlink" width="270" height="270"><defs><clipPath id="clip-mask-1"><rect x="60" y="25" width="42" height="53"><animate attributeName="y" from="-28" to="25" dur="0.196" begin="0; animate25.end + 1" id="animate1" fill="freeze"/></rect></clipPath><clipPath id="clip-mask-2"><rect x="22" y="72" width="45" height="169"><set attributeName="y" to="-97" begin="0; animate25.end + 1" /><animate attributeName="y" from="-97" to="72" dur="0.626" begin="animate1.end + 0.5" id="animate2" fill="freeze"/></rect></clipPath><clipPath id="clip-mask-3"><rect x="63" y="68" width="46" height="17"><set attributeName="x" to="17" begin="0; animate25.end + 1" /><animate attributeName="x" from="17" to="63" dur="0.170" begin="animate2.end + 0.5" id="animate3" fill="freeze"/></rect></clipPath><clipPath id="clip-mask-4"><rect x="88" y="81" width="19" height="163"><set attributeName="y" to="-82" begin="0; animate25.end + 1" /><animate attributeName="y" from="-82" to="81" dur="0.604" begin="animate3.end" id="animate4" fill="freeze"/></rect></clipPath><clipPath id="clip-mask-5"><rect x="69" y="219" width="21" height="19"><set attributeName="x" to="90" begin="0; animate25.end + 1" /><animate attributeName="x" from="90" to="69" dur="0.078" begin="animate4.end" id="animate5" fill="freeze"/></rect></clipPath><clipPath id="clip-mask-6"><rect x="71" y="102" width="17" height="23"><set attributeName="y" to="79" begin="0; animate25.end + 1" /><animate attributeName="y" from="79" to="102" dur="0.085" begin="animate5.end + 0.5" id="animate6" fill="freeze"/></rect></clipPath><clipPath id="clip-mask-7"><rect x="14" y="126" width="104" height="34"><set attributeName="x" to="-90" begin="0; animate25.end + 1" /><animate attributeName="x" from="-90" to="14" dur="0.385" begin="animate6.end + 0.5" id="animate7" fill="freeze"/></rect></clipPath><clipPath id="clip-mask-8"><rect x="66" y="158" width="21" height="24"><set attributeName="y" to="134" begin="0; animate25.end + 1" /><animate attributeName="y" from="134" to="158" dur="0.089" begin="animate7.end + 0.5" id="animate8" fill="freeze"/></rect></clipPath><clipPath id="clip-mask-9"><rect x="133" y="51" width="50" height="16"><set attributeName="x" to="83" begin="0; animate25.end + 1" /><animate attributeName="x" from="83" to="133" dur="0.185" begin="animate8.end + 0.5" id="animate9" fill="freeze"/></rect></clipPath><clipPath id="clip-mask-10"><rect x="151" y="64" width="13" height="25"><set attributeName="y" to="39" begin="0; animate25.end + 1" /><animate attributeName="y" from="39" to="64" dur="0.093" begin="animate9.end + 0.5" id="animate10" fill="freeze"/></rect></clipPath><clipPath id="clip-mask-11"><rect x="133" y="82" width="50" height="18"><set attributeName="x" to="83" begin="0; animate25.end + 1" /><animate attributeName="x" from="83" to="133" dur="0.185" begin="animate10.end + 0.5" id="animate11" fill="freeze"/></rect></clipPath><clipPath id="clip-mask-12"><rect x="163" y="90" width="22" height="21"><set attributeName="y" to="69" begin="0; animate25.end + 1" /><animate attributeName="y" from="69" to="90" dur="0.078" begin="animate11.end" id="animate12" fill="freeze"/></rect></clipPath><clipPath id="clip-mask-13"><rect x="133" y="109" width="42" height="14"><set attributeName="x" to="91" begin="0; animate25.end + 1" /><animate attributeName="x" from="91" to="133" dur="0.156" begin="animate12.end + 0.5" id="animate13" fill="freeze"/></rect></clipPath><clipPath id="clip-mask-14"><rect x="151" y="120" width="13" height="28"><set attributeName="y" to="92" begin="0; animate25.end + 1" /><animate attributeName="y" from="92" to="120" dur="0.104" begin="animate13.end + 0.5" id="animate14" fill="freeze"/></rect></clipPath><clipPath id="clip-mask-15"><rect x="116" y="53" width="18" height="114"><set attributeName="y" to="-61" begin="0; animate25.end + 1" /><animate attributeName="y" from="-61" to="53" dur="0.422" begin="animate14.end + 0.5" id="animate15" fill="freeze"/></rect></clipPath><clipPath id="clip-mask-16"><rect x="127" y="142" width="59" height="23"><set attributeName="x" to="68" begin="0; animate25.end + 1" /><animate attributeName="x" from="68" to="127" dur="0.219" begin="animate15.end" id="animate16" fill="freeze"/></rect></clipPath><clipPath id="clip-mask-17"><rect x="184" y="33" width="37" height="92"><set attributeName="y" to="-59" begin="0; animate25.end + 1" /><animate attributeName="y" from="-59" to="33" dur="0.341" begin="animate16.end + 0.5" id="animate17" fill="freeze"/></rect></clipPath><clipPath id="clip-mask-18"><rect x="200" y="87" width="53" height="20"><set attributeName="x" to="147" begin="0; animate25.end + 1" /><animate attributeName="x" from="147" to="200" dur="0.196" begin="animate17.end + 0.5" id="animate18" fill="freeze"/></rect></clipPath><clipPath id="clip-mask-19"><rect x="202" y="122" width="32" height="28"><set attributeName="x" to="170" begin="0; animate25.end + 1" /><animate attributeName="x" from="170" to="202" dur="0.119" begin="animate18.end + 0.5" id="animate19" fill="freeze"/></rect></clipPath><clipPath id="clip-mask-20"><rect x="124" y="183" width="22" height="39"><set attributeName="y" to="144" begin="0; animate25.end + 1" /><animate attributeName="y" from="144" to="183" dur="0.144" begin="animate19.end + 0.5" id="animate20" fill="freeze"/></rect></clipPath><clipPath id="clip-mask-21"><rect x="137" y="171" width="99" height="23"><set attributeName="x" to="38" begin="0; animate25.end + 1" /><animate attributeName="x" from="38" to="137" dur="0.367" begin="animate20.end + 0.5" id="animate21" fill="freeze"/></rect></clipPath><clipPath id="clip-mask-22"><rect x="209" y="182" width="28" height="33"><set attributeName="y" to="149" begin="0; animate25.end + 1" /><animate attributeName="y" from="149" to="182" dur="0.122" begin="animate21.end" id="animate22" fill="freeze"/></rect></clipPath><clipPath id="clip-mask-23"><rect x="157" y="189" width="13" height="31"><set attributeName="y" to="158" begin="0; animate25.end + 1" /><animate attributeName="y" from="158" to="189" dur="0.115" begin="animate22.end + 0.5" id="animate23" fill="freeze"/></rect></clipPath><clipPath id="clip-mask-24"><rect x="181" y="183" width="18" height="35"><set attributeName="y" to="148" begin="0; animate25.end + 1" /><animate attributeName="y" from="148" to="183" dur="0.130" begin="animate23.end + 0.5" id="animate24" fill="freeze"/></rect></clipPath><clipPath id="clip-mask-25"><rect x="114" y="208" width="141" height="27"><set attributeName="x" to="-27" begin="0; animate25.end + 1" /><animate attributeName="x" from="-27" to="114" dur="0.522" begin="animate24.end + 0.5" id="animate25" fill="freeze"/></rect></clipPath></defs><path d="M 0 0 L 270 270 M 270 0 L 0 270 M 135 0 L 135 270 M 0 135 L 270 135" stroke="#CCCCCC" /><path d="M 60 77 Q 60 76 61 76 Q 82 36 79 30 Q 77 27 80 26 Q 83 25 89 26 Q 95 28 99 31 Q 102 34 98 38 Q 93 41 90 46 Q 71 69 63 78" fill="#CCCCCC"/><path d="M 58 196 L 36 227 Q 27 239 24 240 Q 22 241 22 238 Q 22 237 23 235 Q 46 191 51 150 L 52 140 Q 53 124 53 107 Q 52 102 52 99 Q 51 83 47 79 Q 45 76 48 74 Q 51 72 60 77 L 63 78 L 67 85 Q 66 87 66 96 Q 65 123 64 137 L 63 147" fill="#CCCCCC"/><path d="M 90 81 Q 88 79 84 80 Q 77 82 70 84 Q 68 85 67 85 L 63 78 Q 78 75 86 69 Q 90 68 94 69 Q 102 73 106 76 Q 109 79 107 83" fill="#CCCCCC"/><path d="M 93 131 Q 93 113 92 93 Q 92 83 90 81 L 107 83 Q 104 88 104 129 L 104 136 Q 105 185 107 219 Q 107 232 98 242 Q 96 244 95 243 Q 91 242 88 238 L 90 221 Q 94 215 93 139" fill="#CCCCCC"/><path d="M 88 238 Q 81 231 69 221 Q 69 219 73 220 Q 79 221 84 221 Q 89 223 90 221" fill="#CCCCCC"/><path d="M 71 105 L 71 103 Q 72 102 73 102 Q 85 108 88 115 Q 88 119 88 122 Q 85 125 83 124 Q 78 122 71 107" fill="#CCCCCC"/><path d="M 51 150 Q 42 154 33 159 Q 30 160 28 159 Q 21 154 16 150 Q 14 148 15 145 Q 16 143 19 143 Q 28 144 34 143 Q 43 141 52 140 L 64 137 Q 79 134 93 131 L 104 129 Q 110 127 115 126 Q 117 126 118 128 Q 118 129 115 131 Q 110 134 104 136 L 93 139 Q 78 143 63 147" fill="#CCCCCC"/><path d="M 66 162 L 67 161 Q 68 158 70 159 Q 83 164 86 172 Q 87 176 86 178 Q 84 182 82 181 Q 76 180 68 164" fill="#CCCCCC"/><path d="M 133 60 L 133 60 Q 142 59 150 57 Q 158 56 164 53 Q 170 51 175 52 Q 180 54 181 55 Q 183 57 181 59 Q 180 60 174 61 Q 166 62 160 64 L 151 66 Q 140 67 134 66" fill="#CCCCCC"/><path d="M 160 64 Q 164 69 162 72 Q 162 73 162 74 Q 161 79 160 86 L 151 89 Q 151 67 151 66" fill="#CCCCCC"/><path d="M 133 95 Q 142 93 150 90 Q 150 90 151 89 L 160 86 Q 167 82 171 84 Q 180 88 183 90 L 167 93 Q 166 92 163 93 Q 135 100 133 100" fill="#CCCCCC"/><path d="M 183 90 Q 185 93 182 96 Q 176 100 171 111 L 163 109 Q 165 104 167 97 Q 168 94 167 93" fill="#CCCCCC"/><path d="M 151 121 Q 145 122 141 123 Q 139 123 136 123 Q 134 123 133 121 L 133 117 Q 133 117 134 117 Q 145 115 159 110 Q 161 109 163 109 L 171 111 Q 175 114 175 115 Q 174 117 173 117 Q 164 118 158 120" fill="#CCCCCC"/><path d="M 151 148 Q 151 124 151 122 Q 151 121 151 121 L 158 120 Q 160 122 162 124 Q 164 126 162 129 Q 162 130 162 131 Q 161 138 160 146" fill="#CCCCCC"/><path d="M 127 165 Q 124 167 122 166 Q 120 165 118 161 Q 116 157 118 154 Q 121 150 122 146 Q 130 77 121 59 Q 119 56 120 55 Q 122 53 126 55 Q 132 58 133 60 L 134 66 Q 133 72 133 95 L 133 100 Q 133 109 133 117 L 133 121 Q 132 135 132 148 Q 132 150 133 151" fill="#CCCCCC"/><path d="M 178 142 L 180 144 Q 185 147 186 150 Q 186 152 181 152 Q 139 155 127 165 L 133 151 Q 134 151 136 151 Q 144 148 151 148 L 160 146" fill="#CCCCCC"/><path d="M 191 122 L 187 123 Q 184 125 184 122 Q 185 121 186 118 Q 210 51 199 40 Q 195 35 199 34 Q 203 33 210 34 Q 218 37 220 40 Q 221 43 220 45 Q 218 50 216 60 Q 211 79 204 93 Q 203 95 203 97 L 200 103" fill="#CCCCCC"/><path d="M 203 97 Q 211 96 217 94 Q 224 93 230 90 Q 237 87 243 88 Q 250 90 252 92 Q 253 94 251 96 Q 250 97 245 98 Q 232 101 221 103 Q 212 107 200 103" fill="#CCCCCC"/><path d="M 203 128 L 202 126 Q 202 123 203 122 Q 204 122 208 123 Q 231 130 233 138 Q 234 145 233 148 Q 232 150 230 150 Q 226 150 224 148 Q 216 139 208 133" fill="#CCCCCC"/><path d="M 137 219 L 136 215 Q 131 199 125 189 Q 124 185 125 184 Q 125 183 128 183 Q 135 184 137 185 L 141 194 Q 146 217 146 222 L 139 222" fill="#CCCCCC"/><path d="M 157 190 Q 148 192 141 194 L 137 185 Q 180 179 214 172 Q 218 171 221 173 Q 235 180 236 183 L 214 182 Q 210 180 192 183 L 181 185 Q 172 187 163 189" fill="#CCCCCC"/><path d="M 209 215 Q 216 184 214 182 L 236 183 Q 237 186 234 188 Q 229 195 223 213" fill="#CCCCCC"/><path d="M 163 220 Q 157 211 157 190 L 163 189 Q 165 195 165 196 Q 170 211 169 220" fill="#CCCCCC"/><path d="M 181 218 Q 181 216 181 215 Q 185 191 181 185 L 192 183 Q 195 185 197 187 Q 199 189 197 192 Q 194 196 193 200 Q 191 208 189 214 Q 187 216 187 217" fill="#CCCCCC"/><path d="M 146 222 Q 154 220 163 220 L 169 220 Q 175 218 181 218 L 187 217 Q 199 216 209 215 L 223 213 Q 238 208 251 218 Q 255 222 253 224 Q 252 226 248 226 Q 243 225 238 225 Q 173 224 133 233 Q 124 235 117 228 Q 114 224 119 224 Q 129 223 139 222" fill="#CCCCCC"/><path d="M 60 77 Q 60 76 61 76 Q 82 36 79 30 Q 77 27 80 26 Q 83 25 89 26 Q 95 28 99 31 Q 102 34 98 38 Q 93 41 90 46 Q 71 69 63 78" fill="#0000ff" clip-path="url(#clip-mask-1)" /><path d="M 58 196 L 36 227 Q 27 239 24 240 Q 22 241 22 238 Q 22 237 23 235 Q 46 191 51 150 L 52 140 Q 53 124 53 107 Q 52 102 52 99 Q 51 83 47 79 Q 45 76 48 74 Q 51 72 60 77 L 63 78 L 67 85 Q 66 87 66 96 Q 65 123 64 137 L 63 147" fill="#0000ff" clip-path="url(#clip-mask-2)" /><path d="M 90 81 Q 88 79 84 80 Q 77 82 70 84 Q 68 85 67 85 L 63 78 Q 78 75 86 69 Q 90 68 94 69 Q 102 73 106 76 Q 109 79 107 83" fill="#0000ff" clip-path="url(#clip-mask-3)" /><path d="M 93 131 Q 93 113 92 93 Q 92 83 90 81 L 107 83 Q 104 88 104 129 L 104 136 Q 105 185 107 219 Q 107 232 98 242 Q 96 244 95 243 Q 91 242 88 238 L 90 221 Q 94 215 93 139" fill="#0000ff" clip-path="url(#clip-mask-4)" /><path d="M 88 238 Q 81 231 69 221 Q 69 219 73 220 Q 79 221 84 221 Q 89 223 90 221" fill="#0000ff" clip-path="url(#clip-mask-5)" /><path d="M 71 105 L 71 103 Q 72 102 73 102 Q 85 108 88 115 Q 88 119 88 122 Q 85 125 83 124 Q 78 122 71 107" fill="#0000ff" clip-path="url(#clip-mask-6)" /><path d="M 51 150 Q 42 154 33 159 Q 30 160 28 159 Q 21 154 16 150 Q 14 148 15 145 Q 16 143 19 143 Q 28 144 34 143 Q 43 141 52 140 L 64 137 Q 79 134 93 131 L 104 129 Q 110 127 115 126 Q 117 126 118 128 Q 118 129 115 131 Q 110 134 104 136 L 93 139 Q 78 143 63 147" fill="#0000ff" clip-path="url(#clip-mask-7)" /><path d="M 66 162 L 67 161 Q 68 158 70 159 Q 83 164 86 172 Q 87 176 86 178 Q 84 182 82 181 Q 76 180 68 164" fill="#0000ff" clip-path="url(#clip-mask-8)" /><path d="M 133 60 L 133 60 Q 142 59 150 57 Q 158 56 164 53 Q 170 51 175 52 Q 180 54 181 55 Q 183 57 181 59 Q 180 60 174 61 Q 166 62 160 64 L 151 66 Q 140 67 134 66" fill="#000080" clip-path="url(#clip-mask-9)" /><path d="M 160 64 Q 164 69 162 72 Q 162 73 162 74 Q 161 79 160 86 L 151 89 Q 151 67 151 66" fill="#000080" clip-path="url(#clip-mask-10)" /><path d="M 133 95 Q 142 93 150 90 Q 150 90 151 89 L 160 86 Q 167 82 171 84 Q 180 88 183 90 L 167 93 Q 166 92 163 93 Q 135 100 133 100" fill="#000080" clip-path="url(#clip-mask-11)" /><path d="M 183 90 Q 185 93 182 96 Q 176 100 171 111 L 163 109 Q 165 104 167 97 Q 168 94 167 93" fill="#000080" clip-path="url(#clip-mask-12)" /><path d="M 151 121 Q 145 122 141 123 Q 139 123 136 123 Q 134 123 133 121 L 133 117 Q 133 117 134 117 Q 145 115 159 110 Q 161 109 163 109 L 171 111 Q 175 114 175 115 Q 174 117 173 117 Q 164 118 158 120" fill="#000080" clip-path="url(#clip-mask-13)" /><path d="M 151 148 Q 151 124 151 122 Q 151 121 151 121 L 158 120 Q 160 122 162 124 Q 164 126 162 129 Q 162 130 162 131 Q 161 138 160 146" fill="#000080" clip-path="url(#clip-mask-14)" /><path d="M 127 165 Q 124 167 122 166 Q 120 165 118 161 Q 116 157 118 154 Q 121 150 122 146 Q 130 77 121 59 Q 119 56 120 55 Q 122 53 126 55 Q 132 58 133 60 L 134 66 Q 133 72 133 95 L 133 100 Q 133 109 133 117 L 133 121 Q 132 135 132 148 Q 132 150 133 151" fill="#000080" clip-path="url(#clip-mask-15)" /><path d="M 178 142 L 180 144 Q 185 147 186 150 Q 186 152 181 152 Q 139 155 127 165 L 133 151 Q 134 151 136 151 Q 144 148 151 148 L 160 146" fill="#000080" clip-path="url(#clip-mask-16)" /><path d="M 191 122 L 187 123 Q 184 125 184 122 Q 185 121 186 118 Q 210 51 199 40 Q 195 35 199 34 Q 203 33 210 34 Q 218 37 220 40 Q 221 43 220 45 Q 218 50 216 60 Q 211 79 204 93 Q 203 95 203 97 L 200 103" fill="#000080" clip-path="url(#clip-mask-17)" /><path d="M 203 97 Q 211 96 217 94 Q 224 93 230 90 Q 237 87 243 88 Q 250 90 252 92 Q 253 94 251 96 Q 250 97 245 98 Q 232 101 221 103 Q 212 107 200 103" fill="#000080" clip-path="url(#clip-mask-18)" /><path d="M 203 128 L 202 126 Q 202 123 203 122 Q 204 122 208 123 Q 231 130 233 138 Q 234 145 233 148 Q 232 150 230 150 Q 226 150 224 148 Q 216 139 208 133" fill="#000080" clip-path="url(#clip-mask-19)" /><path d="M 137 219 L 136 215 Q 131 199 125 189 Q 124 185 125 184 Q 125 183 128 183 Q 135 184 137 185 L 141 194 Q 146 217 146 222 L 139 222" fill="#000080" clip-path="url(#clip-mask-20)" /><path d="M 157 190 Q 148 192 141 194 L 137 185 Q 180 179 214 172 Q 218 171 221 173 Q 235 180 236 183 L 214 182 Q 210 180 192 183 L 181 185 Q 172 187 163 189" fill="#000080" clip-path="url(#clip-mask-21)" /><path d="M 209 215 Q 216 184 214 182 L 236 183 Q 237 186 234 188 Q 229 195 223 213" fill="#000080" clip-path="url(#clip-mask-22)" /><path d="M 163 220 Q 157 211 157 190 L 163 189 Q 165 195 165 196 Q 170 211 169 220" fill="#000080" clip-path="url(#clip-mask-23)" /><path d="M 181 218 Q 181 216 181 215 Q 185 191 181 185 L 192 183 Q 195 185 197 187 Q 199 189 197 192 Q 194 196 193 200 Q 191 208 189 214 Q 187 216 187 217" fill="#000080" clip-path="url(#clip-mask-24)" /><path d="M 146 222 Q 154 220 163 220 L 169 220 Q 175 218 181 218 L 187 217 Q 199 216 209 215 L 223 213 Q 238 208 251 218 Q 255 222 253 224 Q 252 226 248 226 Q 243 225 238 225 Q 173 224 133 233 Q 124 235 117 228 Q 114 224 119 224 Q 129 223 139 222" fill="#000080" clip-path="url(#clip-mask-25)" /></svg>