<svg xmlns="http://www.w3.org/2000/svg" xmlns:xlink="http://www.w3.org/1999/xlink" width="270" height="270"><defs><clipPath id="clip-mask-1"><rect x="41" y="39" width="178" height="35"><animate attributeName="x" from="-137" to="41" dur="0.659" begin="0; animate12.end + 1" id="animate1" fill="freeze"/></rect></clipPath><clipPath id="clip-mask-2"><rect x="77" y="31" width="29" height="58"><set attributeName="y" to="-27" begin="0; animate12.end + 1" /><animate attributeName="y" from="-27" to="31" dur="0.215" begin="animate1.end + 0.5" id="animate2" fill="freeze"/></rect></clipPath><clipPath id="clip-mask-3"><rect x="145" y="16" width="34" height="68"><set attributeName="y" to="-52" begin="0; animate12.end + 1" /><animate attributeName="y" from="-52" to="16" dur="0.252" begin="animate2.end + 0.5" id="animate3" fill="freeze"/></rect></clipPath><clipPath id="clip-mask-4"><rect x="113" y="77" width="26" height="22"><set attributeName="x" to="87" begin="0; animate12.end + 1" /><animate attributeName="x" from="87" to="113" dur="0.096" begin="animate3.end + 0.5" id="animate4" fill="freeze"/></rect></clipPath><clipPath id="clip-mask-5"><rect x="71" y="89" width="110" height="29"><set attributeName="x" to="-39" begin="0; animate12.end + 1" /><animate attributeName="x" from="-39" to="71" dur="0.407" begin="animate4.end + 0.5" id="animate5" fill="freeze"/></rect></clipPath><clipPath id="clip-mask-6"><rect x="86" y="121" width="23" height="29"><set attributeName="y" to="92" begin="0; animate12.end + 1" /><animate attributeName="y" from="92" to="121" dur="0.107" begin="animate5.end + 0.5" id="animate6" fill="freeze"/></rect></clipPath><clipPath id="clip-mask-7"><rect x="138" y="109" width="32" height="42"><set attributeName="y" to="67" begin="0; animate12.end + 1" /><animate attributeName="y" from="67" to="109" dur="0.156" begin="animate6.end + 0.5" id="animate7" fill="freeze"/></rect></clipPath><clipPath id="clip-mask-8"><rect x="20" y="137" width="229" height="43"><set attributeName="x" to="-209" begin="0; animate12.end + 1" /><animate attributeName="x" from="-209" to="20" dur="0.848" begin="animate7.end + 0.5" id="animate8" fill="freeze"/></rect></clipPath><clipPath id="clip-mask-9"><rect x="74" y="184" width="28" height="69"><set attributeName="y" to="115" begin="0; animate12.end + 1" /><animate attributeName="y" from="115" to="184" dur="0.256" begin="animate8.end + 0.5" id="animate9" fill="freeze"/></rect></clipPath><clipPath id="clip-mask-10"><rect x="92" y="170" width="95" height="26"><set attributeName="x" to="-3" begin="0; animate12.end + 1" /><animate attributeName="x" from="-3" to="92" dur="0.352" begin="animate9.end + 0.5" id="animate10" fill="freeze"/></rect></clipPath><clipPath id="clip-mask-11"><rect x="156" y="186" width="35" height="36"><set attributeName="y" to="150" begin="0; animate12.end + 1" /><animate attributeName="y" from="150" to="186" dur="0.133" begin="animate10.end" id="animate11" fill="freeze"/></rect></clipPath><clipPath id="clip-mask-12"><rect x="101" y="220" width="82" height="19"><set attributeName="x" to="19" begin="0; animate12.end + 1" /><animate attributeName="x" from="19" to="101" dur="0.304" begin="animate11.end + 0.5" id="animate12" fill="freeze"/></rect></clipPath></defs><path d="M 0 0 L 270 270 M 270 0 L 0 270 M 135 0 L 135 270 M 0 135 L 270 135" stroke="#CCCCCC" /><path d="M 150 60 Q 111 62 104 64 L 92 66 Q 83 68 74 70 Q 58 74 46 66 Q 41 63 48 62 Q 70 59 90 58 L 103 56 Q 129 52 153 49 L 168 47 Q 174 45 180 45 Q 204 39 216 50 Q 219 54 218 56 Q 217 59 212 59 Q 186 57 162 59" fill="#CCCCCC"/><path d="M 104 64 Q 104 70 105 75 Q 106 81 104 86 Q 103 89 100 87 Q 96 83 92 66 L 90 58 Q 87 48 81 40 Q 77 36 81 33 Q 86 31 97 36 Q 102 37 102 42 Q 102 49 103 56" fill="#CCCCCC"/><path d="M 153 78 L 149 81 Q 145 84 145 80 Q 145 77 150 60 L 153 49 Q 157 30 155 23 Q 153 20 156 18 Q 160 16 164 19 Q 173 23 176 28 Q 179 31 175 34 Q 170 41 168 47 L 162 59" fill="#CCCCCC"/><path d="M 129 98 L 129 98 Q 124 92 119 87 Q 113 83 113 80 Q 113 78 114 77 Q 115 77 118 78 Q 136 83 138 89 Q 139 94 139 97 L 130 99" fill="#CCCCCC"/><path d="M 139 97 Q 163 89 171 90 Q 178 93 180 96 Q 181 98 179 100 Q 176 102 163 104 Q 132 110 103 115 Q 88 118 78 111 Q 71 107 81 105 Q 103 104 122 100 Q 126 99 130 99" fill="#CCCCCC"/><path d="M 86 126 L 87 124 Q 88 121 90 122 Q 104 128 107 137 Q 109 143 107 146 Q 105 150 101 149 Q 96 147 87 128" fill="#CCCCCC"/><path d="M 138 151 Q 139 148 142 144 Q 152 121 150 114 Q 149 111 152 110 Q 157 109 160 112 Q 167 118 169 123 Q 170 126 166 128 Q 162 132 160 135 Q 152 145 147 150" fill="#CCCCCC"/><path d="M 98 166 L 71 172 Q 50 176 46 177 Q 41 180 38 179 Q 30 176 25 172 Q 20 169 21 165 Q 21 162 25 162 Q 54 162 73 159 Q 122 152 138 151 L 147 150 Q 159 148 176 147 Q 196 144 216 140 Q 223 137 226 139 Q 238 144 246 152 Q 249 155 247 158 Q 245 161 239 160 Q 203 156 160 160 Q 146 162 131 163" fill="#CCCCCC"/><path d="M 102 245 L 101 248 Q 99 253 94 246 Q 90 241 89 233 Q 85 208 77 192 Q 74 187 76 186 Q 77 184 81 185 Q 88 186 92 188 L 97 196 Q 97 204 101 229 L 102 239" fill="#CCCCCC"/><path d="M 92 188 Q 129 184 151 177 Q 167 170 187 186 L 159 190 Q 157 188 151 189 Q 97 196 97 196" fill="#CCCCCC"/><path d="M 156 222 Q 159 210 161 197 Q 162 192 159 190 L 187 186 Q 191 191 186 196 Q 178 201 171 220" fill="#CCCCCC"/><path d="M 101 229 Q 126 227 156 222 L 171 220 Q 173 221 174 222 Q 183 228 183 230 Q 183 233 179 233 Q 129 235 106 239 Q 104 239 102 239" fill="#CCCCCC"/><path d="M 150 60 Q 111 62 104 64 L 92 66 Q 83 68 74 70 Q 58 74 46 66 Q 41 63 48 62 Q 70 59 90 58 L 103 56 Q 129 52 153 49 L 168 47 Q 174 45 180 45 Q 204 39 216 50 Q 219 54 218 56 Q 217 59 212 59 Q 186 57 162 59" fill="#0000ff" clip-path="url(#clip-mask-1)" /><path d="M 104 64 Q 104 70 105 75 Q 106 81 104 86 Q 103 89 100 87 Q 96 83 92 66 L 90 58 Q 87 48 81 40 Q 77 36 81 33 Q 86 31 97 36 Q 102 37 102 42 Q 102 49 103 56" fill="#0000ff" clip-path="url(#clip-mask-2)" /><path d="M 153 78 L 149 81 Q 145 84 145 80 Q 145 77 150 60 L 153 49 Q 157 30 155 23 Q 153 20 156 18 Q 160 16 164 19 Q 173 23 176 28 Q 179 31 175 34 Q 170 41 168 47 L 162 59" fill="#0000ff" clip-path="url(#clip-mask-3)" /><path d="M 129 98 L 129 98 Q 124 92 119 87 Q 113 83 113 80 Q 113 78 114 77 Q 115 77 118 78 Q 136 83 138 89 Q 139 94 139 97 L 130 99" fill="#000080" clip-path="url(#clip-mask-4)" /><path d="M 139 97 Q 163 89 171 90 Q 178 93 180 96 Q 181 98 179 100 Q 176 102 163 104 Q 132 110 103 115 Q 88 118 78 111 Q 71 107 81 105 Q 103 104 122 100 Q 126 99 130 99" fill="#000080" clip-path="url(#clip-mask-5)" /><path d="M 86 126 L 87 124 Q 88 121 90 122 Q 104 128 107 137 Q 109 143 107 146 Q 105 150 101 149 Q 96 147 87 128" fill="#000080" clip-path="url(#clip-mask-6)" /><path d="M 138 151 Q 139 148 142 144 Q 152 121 150 114 Q 149 111 152 110 Q 157 109 160 112 Q 167 118 169 123 Q 170 126 166 128 Q 162 132 160 135 Q 152 145 147 150" fill="#000080" clip-path="url(#clip-mask-7)" /><path d="M 98 166 L 71 172 Q 50 176 46 177 Q 41 180 38 179 Q 30 176 25 172 Q 20 169 21 165 Q 21 162 25 162 Q 54 162 73 159 Q 122 152 138 151 L 147 150 Q 159 148 176 147 Q 196 144 216 140 Q 223 137 226 139 Q 238 144 246 152 Q 249 155 247 158 Q 245 161 239 160 Q 203 156 160 160 Q 146 162 131 163" fill="#000080" clip-path="url(#clip-mask-8)" /><path d="M 102 245 L 101 248 Q 99 253 94 246 Q 90 241 89 233 Q 85 208 77 192 Q 74 187 76 186 Q 77 184 81 185 Q 88 186 92 188 L 97 196 Q 97 204 101 229 L 102 239" fill="#000080" clip-path="url(#clip-mask-9)" /><path d="M 92 188 Q 129 184 151 177 Q 167 170 187 186 L 159 190 Q 157 188 151 189 Q 97 196 97 196" fill="#000080" clip-path="url(#clip-mask-10)" /><path d="M 156 222 Q 159 210 161 197 Q 162 192 159 190 L 187 186 Q 191 191 186 196 Q 178 201 171 220" fill="#000080" clip-path="url(#clip-mask-11)" /><path d="M 101 229 Q 126 227 156 222 L 171 220 Q 173 221 174 222 Q 183 228 183 230 Q 183 233 179 233 Q 129 235 106 239 Q 104 239 102 239" fill="#000080" clip-path="url(#clip-mask-12)" /></svg>