<svg xmlns="http://www.w3.org/2000/svg" xmlns:xlink="http://www.w3.org/1999/xlink" width="270" height="270"><defs><clipPath id="clip-mask-1"><rect x="52" y="35" width="160" height="32"><animate attributeName="x" from="-108" to="52" dur="0.593" begin="0; animate13.end + 1" id="animate1" fill="freeze"/></rect></clipPath><clipPath id="clip-mask-2"><rect x="88" y="22" width="29" height="53"><set attributeName="y" to="-31" begin="0; animate13.end + 1" /><animate attributeName="y" from="-31" to="22" dur="0.196" begin="animate1.end + 0.5" id="animate2" fill="freeze"/></rect></clipPath><clipPath id="clip-mask-3"><rect x="149" y="11" width="32" height="67"><set attributeName="y" to="-56" begin="0; animate13.end + 1" /><animate attributeName="y" from="-56" to="11" dur="0.248" begin="animate2.end + 0.5" id="animate3" fill="freeze"/></rect></clipPath><clipPath id="clip-mask-4"><rect x="80" y="92" width="86" height="24"><set attributeName="x" to="-6" begin="0; animate13.end + 1" /><animate attributeName="x" from="-6" to="80" dur="0.319" begin="animate3.end + 0.5" id="animate4" fill="freeze"/></rect></clipPath><clipPath id="clip-mask-5"><rect x="118" y="71" width="26" height="63"><set attributeName="y" to="8" begin="0; animate13.end + 1" /><animate attributeName="y" from="8" to="71" dur="0.233" begin="animate4.end + 0.5" id="animate5" fill="freeze"/></rect></clipPath><clipPath id="clip-mask-6"><rect x="27" y="118" width="221" height="40"><set attributeName="x" to="-194" begin="0; animate13.end + 1" /><animate attributeName="x" from="-194" to="27" dur="0.819" begin="animate5.end + 0.5" id="animate6" fill="freeze"/></rect></clipPath><clipPath id="clip-mask-7"><rect x="21" y="82" width="187" height="145"><set attributeName="y" to="-63" begin="0; animate13.end + 1" /><animate attributeName="y" from="-63" to="82" dur="0.537" begin="animate6.end + 0.5" id="animate7" fill="freeze"/></rect></clipPath><clipPath id="clip-mask-8"><rect x="95" y="162" width="22" height="86"><set attributeName="y" to="76" begin="0; animate13.end + 1" /><animate attributeName="y" from="76" to="162" dur="0.319" begin="animate7.end + 0.5" id="animate8" fill="freeze"/></rect></clipPath><clipPath id="clip-mask-9"><rect x="108" y="150" width="84" height="24"><set attributeName="x" to="24" begin="0; animate13.end + 1" /><animate attributeName="x" from="24" to="108" dur="0.311" begin="animate8.end + 0.5" id="animate9" fill="freeze"/></rect></clipPath><clipPath id="clip-mask-10"><rect x="169" y="164" width="25" height="94"><set attributeName="y" to="70" begin="0; animate13.end + 1" /><animate attributeName="y" from="70" to="164" dur="0.348" begin="animate9.end" id="animate10" fill="freeze"/></rect></clipPath><clipPath id="clip-mask-11"><rect x="158" y="226" width="15" height="27"><set attributeName="x" to="173" begin="0; animate13.end + 1" /><animate attributeName="x" from="173" to="158" dur="0.056" begin="animate10.end" id="animate11" fill="freeze"/></rect></clipPath><clipPath id="clip-mask-12"><rect x="116" y="188" width="45" height="16"><set attributeName="x" to="71" begin="0; animate13.end + 1" /><animate attributeName="x" from="71" to="116" dur="0.167" begin="animate11.end + 0.5" id="animate12" fill="freeze"/></rect></clipPath><clipPath id="clip-mask-13"><rect x="112" y="220" width="53" height="18"><set attributeName="x" to="59" begin="0; animate13.end + 1" /><animate attributeName="x" from="59" to="112" dur="0.196" begin="animate12.end + 0.5" id="animate13" fill="freeze"/></rect></clipPath></defs><path d="M 0 0 L 270 270 M 270 0 L 0 270 M 135 0 L 135 270 M 0 135 L 270 135" stroke="#CCCCCC" /><path d="M 153 55 Q 133 56 115 58 Q 115 58 115 58 L 105 60 Q 95 61 86 64 Q 66 67 57 61 Q 52 57 59 56 Q 83 54 103 51 L 114 50 Q 136 47 156 44 L 171 41 Q 172 41 172 41 Q 197 35 208 45 Q 212 49 211 52 Q 209 54 205 54 Q 174 51 166 54" fill="#CCCCCC"/><path d="M 115 58 Q 117 66 115 72 Q 114 75 111 72 Q 107 68 105 60 L 103 51 Q 100 39 92 30 Q 88 26 93 23 Q 98 22 109 26 Q 114 28 113 33 Q 113 40 114 50" fill="#CCCCCC"/><path d="M 157 73 L 154 75 Q 149 78 149 75 Q 149 71 153 55 L 156 44 Q 159 24 157 18 Q 154 15 157 13 Q 162 11 166 13 Q 175 18 178 22 Q 181 25 177 29 Q 173 35 171 41 L 166 54" fill="#CCCCCC"/><path d="M 125 111 Q 117 112 110 113 Q 96 116 86 110 Q 80 106 89 105 Q 105 104 118 101 Q 121 100 125 100 L 140 96 Q 148 92 157 94 Q 163 97 165 99 Q 166 101 164 103 Q 162 104 138 109" fill="#CCCCCC"/><path d="M 126 134 Q 126 121 125 111 L 125 100 Q 123 83 120 79 Q 118 75 120 73 Q 122 71 125 72 Q 131 73 139 78 Q 144 81 143 84 Q 142 86 141 88 Q 140 91 140 96 L 138 109 Q 137 121 136 133" fill="#CCCCCC"/><path d="M 135 141 Q 86 146 51 155 Q 40 158 32 149 Q 27 145 33 144 Q 83 139 126 134 L 136 133 Q 140 132 145 131 L 168 128 Q 197 123 218 120 Q 229 118 243 129 Q 248 133 246 136 Q 245 139 239 139 Q 170 138 154 140" fill="#CCCCCC"/><path d="M 104 182 Q 79 201 54 216 Q 44 222 24 226 Q 22 227 21 226 Q 21 225 23 224 Q 62 201 89 180 Q 95 174 101 170 L 108 164 Q 123 152 135 141 L 145 131 Q 178 99 183 86 Q 185 82 189 83 Q 197 85 205 91 Q 208 93 208 95 Q 208 98 204 99 Q 196 102 188 110 Q 182 115 168 128 L 154 140 Q 141 150 125 165" fill="#CCCCCC"/><path d="M 110 245 L 107 247 Q 105 248 104 245 Q 95 235 99 226 Q 104 216 104 182 L 101 170 Q 100 168 100 167 Q 99 164 102 163 Q 104 162 108 164 L 117 174 Q 116 179 116 196 L 116 204 Q 115 211 115 219 Q 115 224 115 228 L 112 238" fill="#CCCCCC"/><path d="M 169 167 Q 167 165 161 166 Q 122 174 117 174 L 108 164 L 125 165 Q 158 156 165 153 Q 169 150 173 153 Q 187 159 192 164" fill="#CCCCCC"/><path d="M 172 226 L 172 225 Q 176 174 169 167 L 192 164 Q 194 167 191 170 Q 187 176 187 184 Q 189 211 191 227 Q 192 239 187 249 Q 182 258 178 258 Q 176 258 173 253" fill="#CCCCCC"/><path d="M 165 228 L 165 228 Q 170 231 172 226 L 173 253 Q 167 243 158 232" fill="#CCCCCC"/><path d="M 116 196 Q 140 188 148 189 Q 156 190 158 194 Q 161 198 154 199 Q 138 201 116 204" fill="#CCCCCC"/><path d="M 115 228 Q 129 226 145 222 Q 153 220 158 222 Q 163 226 165 228 L 158 232 Q 129 235 116 238 Q 114 238 112 238" fill="#CCCCCC"/><path d="M 153 55 Q 133 56 115 58 Q 115 58 115 58 L 105 60 Q 95 61 86 64 Q 66 67 57 61 Q 52 57 59 56 Q 83 54 103 51 L 114 50 Q 136 47 156 44 L 171 41 Q 172 41 172 41 Q 197 35 208 45 Q 212 49 211 52 Q 209 54 205 54 Q 174 51 166 54" fill="#0000ff" clip-path="url(#clip-mask-1)" /><path d="M 115 58 Q 117 66 115 72 Q 114 75 111 72 Q 107 68 105 60 L 103 51 Q 100 39 92 30 Q 88 26 93 23 Q 98 22 109 26 Q 114 28 113 33 Q 113 40 114 50" fill="#0000ff" clip-path="url(#clip-mask-2)" /><path d="M 157 73 L 154 75 Q 149 78 149 75 Q 149 71 153 55 L 156 44 Q 159 24 157 18 Q 154 15 157 13 Q 162 11 166 13 Q 175 18 178 22 Q 181 25 177 29 Q 173 35 171 41 L 166 54" fill="#0000ff" clip-path="url(#clip-mask-3)" /><path d="M 125 111 Q 117 112 110 113 Q 96 116 86 110 Q 80 106 89 105 Q 105 104 118 101 Q 121 100 125 100 L 140 96 Q 148 92 157 94 Q 163 97 165 99 Q 166 101 164 103 Q 162 104 138 109" fill="#000080" clip-path="url(#clip-mask-4)" /><path d="M 126 134 Q 126 121 125 111 L 125 100 Q 123 83 120 79 Q 118 75 120 73 Q 122 71 125 72 Q 131 73 139 78 Q 144 81 143 84 Q 142 86 141 88 Q 140 91 140 96 L 138 109 Q 137 121 136 133" fill="#000080" clip-path="url(#clip-mask-5)" /><path d="M 135 141 Q 86 146 51 155 Q 40 158 32 149 Q 27 145 33 144 Q 83 139 126 134 L 136 133 Q 140 132 145 131 L 168 128 Q 197 123 218 120 Q 229 118 243 129 Q 248 133 246 136 Q 245 139 239 139 Q 170 138 154 140" fill="#000080" clip-path="url(#clip-mask-6)" /><path d="M 104 182 Q 79 201 54 216 Q 44 222 24 226 Q 22 227 21 226 Q 21 225 23 224 Q 62 201 89 180 Q 95 174 101 170 L 108 164 Q 123 152 135 141 L 145 131 Q 178 99 183 86 Q 185 82 189 83 Q 197 85 205 91 Q 208 93 208 95 Q 208 98 204 99 Q 196 102 188 110 Q 182 115 168 128 L 154 140 Q 141 150 125 165" fill="#000080" clip-path="url(#clip-mask-7)" /><path d="M 110 245 L 107 247 Q 105 248 104 245 Q 95 235 99 226 Q 104 216 104 182 L 101 170 Q 100 168 100 167 Q 99 164 102 163 Q 104 162 108 164 L 117 174 Q 116 179 116 196 L 116 204 Q 115 211 115 219 Q 115 224 115 228 L 112 238" fill="#000080" clip-path="url(#clip-mask-8)" /><path d="M 169 167 Q 167 165 161 166 Q 122 174 117 174 L 108 164 L 125 165 Q 158 156 165 153 Q 169 150 173 153 Q 187 159 192 164" fill="#000080" clip-path="url(#clip-mask-9)" /><path d="M 172 226 L 172 225 Q 176 174 169 167 L 192 164 Q 194 167 191 170 Q 187 176 187 184 Q 189 211 191 227 Q 192 239 187 249 Q 182 258 178 258 Q 176 258 173 253" fill="#000080" clip-path="url(#clip-mask-10)" /><path d="M 165 228 L 165 228 Q 170 231 172 226 L 173 253 Q 167 243 158 232" fill="#000080" clip-path="url(#clip-mask-11)" /><path d="M 116 196 Q 140 188 148 189 Q 156 190 158 194 Q 161 198 154 199 Q 138 201 116 204" fill="#000080" clip-path="url(#clip-mask-12)" /><path d="M 115 228 Q 129 226 145 222 Q 153 220 158 222 Q 163 226 165 228 L 158 232 Q 129 235 116 238 Q 114 238 112 238" fill="#000080" clip-path="url(#clip-mask-13)" /></svg>