<svg xmlns="http://www.w3.org/2000/svg" xmlns:xlink="http://www.w3.org/1999/xlink" width="270" height="270"><defs><clipPath id="clip-mask-1"><rect x="78" y="23" width="27" height="50"><animate attributeName="y" from="-27" to="23" dur="0.185" begin="0; animate16.end + 1" id="animate1" fill="freeze"/></rect></clipPath><clipPath id="clip-mask-2"><rect x="38" y="42" width="81" height="25"><set attributeName="x" to="-43" begin="0; animate16.end + 1" /><animate attributeName="x" from="-43" to="38" dur="0.300" begin="animate1.end + 0.5" id="animate2" fill="freeze"/></rect></clipPath><clipPath id="clip-mask-3"><rect x="141" y="10" width="32" height="63"><set attributeName="y" to="-53" begin="0; animate16.end + 1" /><animate attributeName="y" from="-53" to="10" dur="0.233" begin="animate2.end + 0.5" id="animate3" fill="freeze"/></rect></clipPath><clipPath id="clip-mask-4"><rect x="139" y="28" width="80" height="20"><set attributeName="x" to="59" begin="0; animate16.end + 1" /><animate attributeName="x" from="59" to="139" dur="0.296" begin="animate3.end + 0.5" id="animate4" fill="freeze"/></rect></clipPath><clipPath id="clip-mask-5"><rect x="16" y="59" width="116" height="102"><set attributeName="y" to="-43" begin="0; animate16.end + 1" /><animate attributeName="y" from="-43" to="59" dur="0.378" begin="animate4.end + 0.5" id="animate5" fill="freeze"/></rect></clipPath><clipPath id="clip-mask-6"><rect x="125" y="73" width="128" height="68"><set attributeName="x" to="-3" begin="0; animate16.end + 1" /><animate attributeName="x" from="-3" to="125" dur="0.474" begin="animate5.end + 0.5" id="animate6" fill="freeze"/></rect></clipPath><clipPath id="clip-mask-7"><rect x="110" y="95" width="22" height="19"><set attributeName="x" to="88" begin="0; animate16.end + 1" /><animate attributeName="x" from="88" to="110" dur="0.081" begin="animate6.end + 0.5" id="animate7" fill="freeze"/></rect></clipPath><clipPath id="clip-mask-8"><rect x="100" y="113" width="70" height="21"><set attributeName="x" to="30" begin="0; animate16.end + 1" /><animate attributeName="x" from="30" to="100" dur="0.259" begin="animate7.end + 0.5" id="animate8" fill="freeze"/></rect></clipPath><clipPath id="clip-mask-9"><rect x="139" y="126" width="34" height="54"><set attributeName="y" to="72" begin="0; animate16.end + 1" /><animate attributeName="y" from="72" to="126" dur="0.200" begin="animate8.end" id="animate9" fill="freeze"/></rect></clipPath><clipPath id="clip-mask-10"><rect x="97" y="141" width="41" height="14"><set attributeName="x" to="56" begin="0; animate16.end + 1" /><animate attributeName="x" from="56" to="97" dur="0.152" begin="animate9.end + 0.5" id="animate10" fill="freeze"/></rect></clipPath><clipPath id="clip-mask-11"><rect x="91" y="162" width="48" height="17"><set attributeName="x" to="43" begin="0; animate16.end + 1" /><animate attributeName="x" from="43" to="91" dur="0.178" begin="animate10.end + 0.5" id="animate11" fill="freeze"/></rect></clipPath><clipPath id="clip-mask-12"><rect x="28" y="118" width="73" height="130"><set attributeName="y" to="-12" begin="0; animate16.end + 1" /><animate attributeName="y" from="-12" to="118" dur="0.481" begin="animate11.end + 0.5" id="animate12" fill="freeze"/></rect></clipPath><clipPath id="clip-mask-13"><rect x="80" y="200" width="23" height="59"><set attributeName="y" to="141" begin="0; animate16.end + 1" /><animate attributeName="y" from="141" to="200" dur="0.219" begin="animate12.end + 0.5" id="animate13" fill="freeze"/></rect></clipPath><clipPath id="clip-mask-14"><rect x="94" y="188" width="88" height="23"><set attributeName="x" to="6" begin="0; animate16.end + 1" /><animate attributeName="x" from="6" to="94" dur="0.326" begin="animate13.end + 0.5" id="animate14" fill="freeze"/></rect></clipPath><clipPath id="clip-mask-15"><rect x="152" y="202" width="34" height="34"><set attributeName="y" to="168" begin="0; animate16.end + 1" /><animate attributeName="y" from="168" to="202" dur="0.126" begin="animate14.end" id="animate15" fill="freeze"/></rect></clipPath><clipPath id="clip-mask-16"><rect x="102" y="233" width="68" height="16"><set attributeName="x" to="34" begin="0; animate16.end + 1" /><animate attributeName="x" from="34" to="102" dur="0.252" begin="animate15.end + 0.5" id="animate16" fill="freeze"/></rect></clipPath></defs><path d="M 0 0 L 270 270 M 270 0 L 0 270 M 135 0 L 135 270 M 0 135 L 270 135" stroke="#CCCCCC" /><path d="M 105 68 L 105 70 Q 104 73 101 70 Q 98 67 94 55 L 90 46 Q 88 38 81 32 Q 78 28 82 25 Q 87 23 97 27 Q 102 28 101 33 Q 102 38 103 44 L 104 52" fill="#CCCCCC"/><path d="M 94 55 Q 76 60 60 65 Q 56 67 51 64 Q 44 61 40 57 Q 38 55 39 53 Q 39 52 42 52 Q 47 51 57 51 Q 76 48 90 46 L 103 44 Q 109 42 115 42 Q 118 42 119 44 Q 119 46 117 47 Q 113 50 109 50 Q 106 51 104 52" fill="#CCCCCC"/><path d="M 150 68 L 146 71 Q 142 73 142 69 Q 141 66 147 46 L 149 39 Q 152 24 150 17 Q 148 14 150 12 Q 155 10 159 13 Q 167 17 170 21 Q 173 24 169 28 Q 166 33 164 37 L 159 48" fill="#CCCCCC"/><path d="M 147 46 Q 146 44 144 43 Q 139 40 146 39 Q 147 39 149 39 L 164 37 Q 175 35 185 33 Q 205 28 216 38 Q 219 41 218 44 Q 217 46 213 45 Q 190 42 166 47 Q 162 48 159 48" fill="#CCCCCC"/><path d="M 83 122 Q 43 158 22 160 Q 16 161 21 157 Q 24 155 27 153 Q 103 97 113 64 Q 113 60 115 60 Q 118 59 125 62 Q 132 64 132 67 Q 132 70 130 72 Q 129 73 129 73 L 125 78 Q 119 84 110 95 Q 99 106 87 118" fill="#CCCCCC"/><path d="M 129 73 Q 135 77 146 86 Q 164 99 183 108 Q 197 116 217 121 Q 234 126 249 130 Q 253 131 253 133 Q 253 134 248 135 Q 227 141 209 141 Q 194 141 125 78" fill="#CCCCCC"/><path d="M 110 100 L 111 98 Q 111 95 113 96 Q 125 97 130 103 Q 132 107 132 109 Q 131 113 128 113 Q 123 114 112 101" fill="#CCCCCC"/><path d="M 148 126 Q 146 124 140 125 Q 115 129 101 134 L 100 126 Q 128 118 136 118 Q 152 113 157 115 Q 167 122 170 126" fill="#CCCCCC"/><path d="M 139 164 Q 143 162 150 132 Q 150 128 148 126 L 170 126 Q 173 129 170 132 Q 164 138 162 145 Q 154 171 151 175 Q 147 180 145 178 Q 142 176 139 172" fill="#CCCCCC"/><path d="M 98 149 Q 121 141 129 142 Q 134 143 136 146 Q 138 149 133 150 L 97 155" fill="#CCCCCC"/><path d="M 93 172 Q 132 162 139 164 L 139 172 Q 121 174 98 178 Q 94 179 91 178" fill="#CCCCCC"/><path d="M 80 208 Q 72 223 59 234 Q 40 248 32 247 Q 28 247 29 245 Q 30 244 34 241 Q 62 222 75 190 Q 90 141 83 124 Q 83 123 83 122 L 87 118 Q 91 120 99 125 Q 100 125 100 126 L 101 134 Q 99 141 98 149 L 97 155 Q 94 164 93 172 L 91 178 Q 88 188 84 200" fill="#CCCCCC"/><path d="M 103 253 L 102 255 Q 101 259 97 254 Q 93 250 92 243 Q 87 221 80 208 L 84 200 Q 91 201 94 202 L 96 211 Q 98 219 102 240 L 103 249" fill="#CCCCCC"/><path d="M 94 202 Q 128 198 153 190 Q 159 188 164 191 Q 178 198 182 202 L 155 205 Q 153 202 148 203 Q 133 206 96 211" fill="#CCCCCC"/><path d="M 152 233 Q 155 223 157 211 Q 158 207 155 205 L 182 202 Q 186 207 181 212 Q 172 216 165 236" fill="#CCCCCC"/><path d="M 102 240 Q 124 238 150 233 Q 151 233 152 233 L 165 236 Q 170 239 170 241 Q 169 243 167 244 Q 125 246 106 249 Q 104 249 103 249" fill="#CCCCCC"/><path d="M 105 68 L 105 70 Q 104 73 101 70 Q 98 67 94 55 L 90 46 Q 88 38 81 32 Q 78 28 82 25 Q 87 23 97 27 Q 102 28 101 33 Q 102 38 103 44 L 104 52" fill="#0000ff" clip-path="url(#clip-mask-1)" /><path d="M 94 55 Q 76 60 60 65 Q 56 67 51 64 Q 44 61 40 57 Q 38 55 39 53 Q 39 52 42 52 Q 47 51 57 51 Q 76 48 90 46 L 103 44 Q 109 42 115 42 Q 118 42 119 44 Q 119 46 117 47 Q 113 50 109 50 Q 106 51 104 52" fill="#0000ff" clip-path="url(#clip-mask-2)" /><path d="M 150 68 L 146 71 Q 142 73 142 69 Q 141 66 147 46 L 149 39 Q 152 24 150 17 Q 148 14 150 12 Q 155 10 159 13 Q 167 17 170 21 Q 173 24 169 28 Q 166 33 164 37 L 159 48" fill="#0000ff" clip-path="url(#clip-mask-3)" /><path d="M 147 46 Q 146 44 144 43 Q 139 40 146 39 Q 147 39 149 39 L 164 37 Q 175 35 185 33 Q 205 28 216 38 Q 219 41 218 44 Q 217 46 213 45 Q 190 42 166 47 Q 162 48 159 48" fill="#0000ff" clip-path="url(#clip-mask-4)" /><path d="M 83 122 Q 43 158 22 160 Q 16 161 21 157 Q 24 155 27 153 Q 103 97 113 64 Q 113 60 115 60 Q 118 59 125 62 Q 132 64 132 67 Q 132 70 130 72 Q 129 73 129 73 L 125 78 Q 119 84 110 95 Q 99 106 87 118" fill="#000080" clip-path="url(#clip-mask-5)" /><path d="M 129 73 Q 135 77 146 86 Q 164 99 183 108 Q 197 116 217 121 Q 234 126 249 130 Q 253 131 253 133 Q 253 134 248 135 Q 227 141 209 141 Q 194 141 125 78" fill="#000080" clip-path="url(#clip-mask-6)" /><path d="M 110 100 L 111 98 Q 111 95 113 96 Q 125 97 130 103 Q 132 107 132 109 Q 131 113 128 113 Q 123 114 112 101" fill="#000080" clip-path="url(#clip-mask-7)" /><path d="M 148 126 Q 146 124 140 125 Q 115 129 101 134 L 100 126 Q 128 118 136 118 Q 152 113 157 115 Q 167 122 170 126" fill="#000080" clip-path="url(#clip-mask-8)" /><path d="M 139 164 Q 143 162 150 132 Q 150 128 148 126 L 170 126 Q 173 129 170 132 Q 164 138 162 145 Q 154 171 151 175 Q 147 180 145 178 Q 142 176 139 172" fill="#000080" clip-path="url(#clip-mask-9)" /><path d="M 98 149 Q 121 141 129 142 Q 134 143 136 146 Q 138 149 133 150 L 97 155" fill="#000080" clip-path="url(#clip-mask-10)" /><path d="M 93 172 Q 132 162 139 164 L 139 172 Q 121 174 98 178 Q 94 179 91 178" fill="#000080" clip-path="url(#clip-mask-11)" /><path d="M 80 208 Q 72 223 59 234 Q 40 248 32 247 Q 28 247 29 245 Q 30 244 34 241 Q 62 222 75 190 Q 90 141 83 124 Q 83 123 83 122 L 87 118 Q 91 120 99 125 Q 100 125 100 126 L 101 134 Q 99 141 98 149 L 97 155 Q 94 164 93 172 L 91 178 Q 88 188 84 200" fill="#000080" clip-path="url(#clip-mask-12)" /><path d="M 103 253 L 102 255 Q 101 259 97 254 Q 93 250 92 243 Q 87 221 80 208 L 84 200 Q 91 201 94 202 L 96 211 Q 98 219 102 240 L 103 249" fill="#000080" clip-path="url(#clip-mask-13)" /><path d="M 94 202 Q 128 198 153 190 Q 159 188 164 191 Q 178 198 182 202 L 155 205 Q 153 202 148 203 Q 133 206 96 211" fill="#000080" clip-path="url(#clip-mask-14)" /><path d="M 152 233 Q 155 223 157 211 Q 158 207 155 205 L 182 202 Q 186 207 181 212 Q 172 216 165 236" fill="#000080" clip-path="url(#clip-mask-15)" /><path d="M 102 240 Q 124 238 150 233 Q 151 233 152 233 L 165 236 Q 170 239 170 241 Q 169 243 167 244 Q 125 246 106 249 Q 104 249 103 249" fill="#000080" clip-path="url(#clip-mask-16)" /></svg>