<svg xmlns="http://www.w3.org/2000/svg" xmlns:xlink="http://www.w3.org/1999/xlink" width="270" height="270"><defs><clipPath id="clip-mask-1"><rect x="39" y="44" width="177" height="37"><animate attributeName="x" from="-138" to="39" dur="0.656" begin="0; animate19.end + 1" id="animate1" fill="freeze"/></rect></clipPath><clipPath id="clip-mask-2"><rect x="77" y="35" width="28" height="58"><set attributeName="y" to="-23" begin="0; animate19.end + 1" /><animate attributeName="y" from="-23" to="35" dur="0.215" begin="animate1.end + 0.5" id="animate2" fill="freeze"/></rect></clipPath><clipPath id="clip-mask-3"><rect x="145" y="21" width="30" height="67"><set attributeName="y" to="-46" begin="0; animate19.end + 1" /><animate attributeName="y" from="-46" to="21" dur="0.248" begin="animate2.end + 0.5" id="animate3" fill="freeze"/></rect></clipPath><clipPath id="clip-mask-4"><rect x="37" y="100" width="74" height="29"><set attributeName="x" to="-37" begin="0; animate19.end + 1" /><animate attributeName="x" from="-37" to="37" dur="0.274" begin="animate3.end + 0.5" id="animate4" fill="freeze"/></rect></clipPath><clipPath id="clip-mask-5"><rect x="77" y="113" width="35" height="29"><set attributeName="y" to="84" begin="0; animate19.end + 1" /><animate attributeName="y" from="84" to="113" dur="0.107" begin="animate4.end" id="animate5" fill="freeze"/></rect></clipPath><clipPath id="clip-mask-6"><rect x="64" y="134" width="18" height="71"><set attributeName="y" to="63" begin="0; animate19.end + 1" /><animate attributeName="y" from="63" to="134" dur="0.263" begin="animate5.end + 0.5" id="animate6" fill="freeze"/></rect></clipPath><clipPath id="clip-mask-7"><rect x="81" y="157" width="29" height="13"><set attributeName="x" to="52" begin="0; animate19.end + 1" /><animate attributeName="x" from="52" to="81" dur="0.107" begin="animate6.end + 0.5" id="animate7" fill="freeze"/></rect></clipPath><clipPath id="clip-mask-8"><rect x="30" y="158" width="24" height="54"><set attributeName="y" to="104" begin="0; animate19.end + 1" /><animate attributeName="y" from="104" to="158" dur="0.200" begin="animate7.end + 0.5" id="animate8" fill="freeze"/></rect></clipPath><clipPath id="clip-mask-9"><rect x="17" y="192" width="92" height="43"><set attributeName="x" to="-75" begin="0; animate19.end + 1" /><animate attributeName="x" from="-75" to="17" dur="0.341" begin="animate8.end + 0.5" id="animate9" fill="freeze"/></rect></clipPath><clipPath id="clip-mask-10"><rect x="142" y="88" width="26" height="20"><set attributeName="x" to="116" begin="0; animate19.end + 1" /><animate attributeName="x" from="116" to="142" dur="0.096" begin="animate9.end + 0.5" id="animate10" fill="freeze"/></rect></clipPath><clipPath id="clip-mask-11"><rect x="115" y="98" width="89" height="27"><set attributeName="x" to="26" begin="0; animate19.end + 1" /><animate attributeName="x" from="26" to="115" dur="0.330" begin="animate10.end + 0.5" id="animate11" fill="freeze"/></rect></clipPath><clipPath id="clip-mask-12"><rect x="117" y="118" width="45" height="50"><set attributeName="y" to="68" begin="0; animate19.end + 1" /><animate attributeName="y" from="68" to="118" dur="0.185" begin="animate11.end + 0.5" id="animate12" fill="freeze"/></rect></clipPath><clipPath id="clip-mask-13"><rect x="127" y="143" width="60" height="24"><set attributeName="x" to="67" begin="0; animate19.end + 1" /><animate attributeName="x" from="67" to="127" dur="0.222" begin="animate12.end" id="animate13" fill="freeze"/></rect></clipPath><clipPath id="clip-mask-14"><rect x="178" y="130" width="30" height="34"><set attributeName="y" to="96" begin="0; animate19.end + 1" /><animate attributeName="y" from="96" to="130" dur="0.126" begin="animate13.end + 0.5" id="animate14" fill="freeze"/></rect></clipPath><clipPath id="clip-mask-15"><rect x="86" y="175" width="49" height="71"><set attributeName="y" to="104" begin="0; animate19.end + 1" /><animate attributeName="y" from="104" to="175" dur="0.263" begin="animate14.end + 0.5" id="animate15" fill="freeze"/></rect></clipPath><clipPath id="clip-mask-16"><rect x="144" y="170" width="17" height="73"><set attributeName="y" to="97" begin="0; animate19.end + 1" /><animate attributeName="y" from="97" to="170" dur="0.270" begin="animate15.end + 0.5" id="animate16" fill="freeze"/></rect></clipPath><clipPath id="clip-mask-17"><rect x="173" y="165" width="19" height="74"><set attributeName="y" to="91" begin="0; animate19.end + 1" /><animate attributeName="y" from="91" to="165" dur="0.274" begin="animate16.end + 0.5" id="animate17" fill="freeze"/></rect></clipPath><clipPath id="clip-mask-18"><rect x="184" y="225" width="68" height="23"><set attributeName="x" to="116" begin="0; animate19.end + 1" /><animate attributeName="x" from="116" to="184" dur="0.252" begin="animate17.end" id="animate18" fill="freeze"/></rect></clipPath><clipPath id="clip-mask-19"><rect x="220" y="196" width="29" height="36"><set attributeName="y" to="232" begin="0; animate19.end + 1" /><animate attributeName="y" from="232" to="196" dur="0.133" begin="animate18.end" id="animate19" fill="freeze"/></rect></clipPath></defs><path d="M 0 0 L 270 270 M 270 0 L 0 270 M 135 0 L 135 270 M 0 135 L 270 135" stroke="#CCCCCC" /><path d="M 149 66 Q 107 69 104 71 L 92 73 Q 83 74 75 76 Q 55 81 44 74 Q 39 70 47 70 Q 69 67 90 64 L 103 63 Q 128 59 151 56 L 165 53 Q 171 52 178 51 Q 200 44 212 55 Q 216 59 215 62 Q 213 64 210 64 Q 183 62 160 65" fill="#CCCCCC"/><path d="M 104 71 Q 105 86 103 90 Q 102 93 99 91 Q 95 86 92 73 L 90 64 Q 88 53 81 45 Q 77 39 82 37 Q 87 35 98 41 Q 103 43 102 48 Q 103 54 103 63" fill="#CCCCCC"/><path d="M 153 83 L 150 85 Q 146 88 146 85 Q 145 78 149 66 L 151 56 Q 154 34 151 28 Q 149 25 151 24 Q 155 21 160 24 Q 169 27 172 32 Q 175 34 171 38 Q 166 48 165 53 L 160 65" fill="#CCCCCC"/><path d="M 85 114 Q 81 111 60 124 Q 53 129 45 125 Q 41 123 39 120 Q 37 115 42 115 Q 53 115 57 113 Q 73 107 85 102 Q 90 100 94 102 Q 110 109 111 113" fill="#CCCCCC"/><path d="M 77 140 Q 82 129 87 119 Q 88 116 85 114 L 111 113 Q 112 116 108 118 Q 101 121 80 142" fill="#CCCCCC"/><path d="M 70 205 Q 69 181 68 168 Q 68 145 64 139 Q 64 137 66 136 Q 70 134 77 140 L 80 142 Q 82 145 81 150 Q 81 156 81 162 L 81 170 Q 80 185 80 202" fill="#CCCCCC"/><path d="M 81 162 Q 91 157 98 157 Q 105 158 108 161 Q 110 164 105 165 Q 95 167 82 170 Q 82 170 81 170" fill="#CCCCCC"/><path d="M 40 185 L 38 178 Q 36 171 32 164 Q 30 161 32 159 Q 33 158 37 159 Q 43 161 49 164 Q 52 167 52 172 Q 51 178 54 210 L 45 212" fill="#CCCCCC"/><path d="M 54 210 Q 62 207 70 205 L 80 202 Q 106 192 109 194 Q 109 196 105 198 Q 101 202 94 205 Q 48 226 39 232 Q 36 235 33 234 Q 25 229 19 225 Q 17 223 17 220 Q 18 217 21 217 Q 21 217 45 212" fill="#CCCCCC"/><path d="M 159 108 Q 153 103 149 99 Q 143 95 143 93 Q 142 91 143 90 Q 146 88 159 93 Q 165 95 167 99 Q 168 103 168 105" fill="#CCCCCC"/><path d="M 145 121 Q 141 121 139 122 Q 128 125 120 119 Q 115 116 122 115 Q 154 109 159 108 L 168 105 Q 168 105 169 105 Q 190 98 199 102 Q 204 105 204 107 Q 202 110 199 110 Q 166 115 156 118" fill="#CCCCCC"/><path d="M 127 167 Q 125 168 123 168 Q 120 166 119 163 Q 117 159 117 155 Q 117 154 122 151 Q 129 148 133 144 Q 146 131 145 121 L 145 121 L 156 118 Q 160 119 161 121 Q 162 123 160 125 Q 154 130 140 148 Q 139 149 139 149" fill="#CCCCCC"/><path d="M 145 155 L 127 167 L 139 149 Q 139 150 141 149 Q 163 146 184 143 L 187 146" fill="#CCCCCC"/><path d="M 184 143 L 184 142 Q 179 136 178 134 Q 179 131 180 130 Q 182 130 185 131 Q 207 143 208 151 Q 208 158 207 161 Q 205 164 202 163 Q 200 163 187 146" fill="#CCCCCC"/><path d="M 113 178 L 116 177 Q 122 175 131 183 Q 135 185 133 189 Q 132 190 128 205 Q 124 224 111 235 Q 97 246 88 245 Q 86 244 88 242 Q 91 240 95 237 Q 108 229 114 210 Q 119 188 114 181" fill="#CCCCCC"/><path d="M 144 172 L 145 171 Q 147 170 150 170 Q 153 172 157 175 Q 161 177 160 182 Q 157 202 158 224 Q 159 234 154 241 Q 152 243 150 241 Q 144 232 145 226 Q 151 193 144 175" fill="#CCCCCC"/><path d="M 184 239 Q 176 230 177 191 Q 178 181 174 172 Q 173 167 174 166 Q 176 165 180 166 Q 192 171 191 178 Q 185 215 191 225" fill="#CCCCCC"/><path d="M 252 234 L 248 237 Q 234 248 216 248 Q 194 247 184 239 L 191 225 Q 192 228 196 230 Q 206 234 220 232 L 249 228" fill="#CCCCCC"/><path d="M 220 232 Q 225 230 227 228 Q 231 221 237 200 Q 238 196 239 197 Q 241 198 241 202 Q 246 221 249 228" fill="#CCCCCC"/><path d="M 149 66 Q 107 69 104 71 L 92 73 Q 83 74 75 76 Q 55 81 44 74 Q 39 70 47 70 Q 69 67 90 64 L 103 63 Q 128 59 151 56 L 165 53 Q 171 52 178 51 Q 200 44 212 55 Q 216 59 215 62 Q 213 64 210 64 Q 183 62 160 65" fill="#0000ff" clip-path="url(#clip-mask-1)" /><path d="M 104 71 Q 105 86 103 90 Q 102 93 99 91 Q 95 86 92 73 L 90 64 Q 88 53 81 45 Q 77 39 82 37 Q 87 35 98 41 Q 103 43 102 48 Q 103 54 103 63" fill="#0000ff" clip-path="url(#clip-mask-2)" /><path d="M 153 83 L 150 85 Q 146 88 146 85 Q 145 78 149 66 L 151 56 Q 154 34 151 28 Q 149 25 151 24 Q 155 21 160 24 Q 169 27 172 32 Q 175 34 171 38 Q 166 48 165 53 L 160 65" fill="#0000ff" clip-path="url(#clip-mask-3)" /><path d="M 85 114 Q 81 111 60 124 Q 53 129 45 125 Q 41 123 39 120 Q 37 115 42 115 Q 53 115 57 113 Q 73 107 85 102 Q 90 100 94 102 Q 110 109 111 113" fill="#000080" clip-path="url(#clip-mask-4)" /><path d="M 77 140 Q 82 129 87 119 Q 88 116 85 114 L 111 113 Q 112 116 108 118 Q 101 121 80 142" fill="#000080" clip-path="url(#clip-mask-5)" /><path d="M 70 205 Q 69 181 68 168 Q 68 145 64 139 Q 64 137 66 136 Q 70 134 77 140 L 80 142 Q 82 145 81 150 Q 81 156 81 162 L 81 170 Q 80 185 80 202" fill="#000080" clip-path="url(#clip-mask-6)" /><path d="M 81 162 Q 91 157 98 157 Q 105 158 108 161 Q 110 164 105 165 Q 95 167 82 170 Q 82 170 81 170" fill="#000080" clip-path="url(#clip-mask-7)" /><path d="M 40 185 L 38 178 Q 36 171 32 164 Q 30 161 32 159 Q 33 158 37 159 Q 43 161 49 164 Q 52 167 52 172 Q 51 178 54 210 L 45 212" fill="#000080" clip-path="url(#clip-mask-8)" /><path d="M 54 210 Q 62 207 70 205 L 80 202 Q 106 192 109 194 Q 109 196 105 198 Q 101 202 94 205 Q 48 226 39 232 Q 36 235 33 234 Q 25 229 19 225 Q 17 223 17 220 Q 18 217 21 217 Q 21 217 45 212" fill="#000080" clip-path="url(#clip-mask-9)" /><path d="M 159 108 Q 153 103 149 99 Q 143 95 143 93 Q 142 91 143 90 Q 146 88 159 93 Q 165 95 167 99 Q 168 103 168 105" fill="#000080" clip-path="url(#clip-mask-10)" /><path d="M 145 121 Q 141 121 139 122 Q 128 125 120 119 Q 115 116 122 115 Q 154 109 159 108 L 168 105 Q 168 105 169 105 Q 190 98 199 102 Q 204 105 204 107 Q 202 110 199 110 Q 166 115 156 118" fill="#000080" clip-path="url(#clip-mask-11)" /><path d="M 127 167 Q 125 168 123 168 Q 120 166 119 163 Q 117 159 117 155 Q 117 154 122 151 Q 129 148 133 144 Q 146 131 145 121 L 145 121 L 156 118 Q 160 119 161 121 Q 162 123 160 125 Q 154 130 140 148 Q 139 149 139 149" fill="#000080" clip-path="url(#clip-mask-12)" /><path d="M 145 155 L 127 167 L 139 149 Q 139 150 141 149 Q 163 146 184 143 L 187 146" fill="#000080" clip-path="url(#clip-mask-13)" /><path d="M 184 143 L 184 142 Q 179 136 178 134 Q 179 131 180 130 Q 182 130 185 131 Q 207 143 208 151 Q 208 158 207 161 Q 205 164 202 163 Q 200 163 187 146" fill="#000080" clip-path="url(#clip-mask-14)" /><path d="M 113 178 L 116 177 Q 122 175 131 183 Q 135 185 133 189 Q 132 190 128 205 Q 124 224 111 235 Q 97 246 88 245 Q 86 244 88 242 Q 91 240 95 237 Q 108 229 114 210 Q 119 188 114 181" fill="#000080" clip-path="url(#clip-mask-15)" /><path d="M 144 172 L 145 171 Q 147 170 150 170 Q 153 172 157 175 Q 161 177 160 182 Q 157 202 158 224 Q 159 234 154 241 Q 152 243 150 241 Q 144 232 145 226 Q 151 193 144 175" fill="#000080" clip-path="url(#clip-mask-16)" /><path d="M 184 239 Q 176 230 177 191 Q 178 181 174 172 Q 173 167 174 166 Q 176 165 180 166 Q 192 171 191 178 Q 185 215 191 225" fill="#000080" clip-path="url(#clip-mask-17)" /><path d="M 252 234 L 248 237 Q 234 248 216 248 Q 194 247 184 239 L 191 225 Q 192 228 196 230 Q 206 234 220 232 L 249 228" fill="#000080" clip-path="url(#clip-mask-18)" /><path d="M 220 232 Q 225 230 227 228 Q 231 221 237 200 Q 238 196 239 197 Q 241 198 241 202 Q 246 221 249 228" fill="#000080" clip-path="url(#clip-mask-19)" /></svg>