<svg xmlns="http://www.w3.org/2000/svg" xmlns:xlink="http://www.w3.org/1999/xlink" width="270" height="270"><defs><clipPath id="clip-mask-1"><rect x="117" y="9" width="27" height="57"><animate attributeName="y" from="-48" to="9" dur="0.211" begin="0; animate18.end + 1" id="animate1" fill="freeze"/></rect></clipPath><clipPath id="clip-mask-2"><rect x="139" y="22" width="47" height="19"><set attributeName="x" to="92" begin="0; animate18.end + 1" /><animate attributeName="x" from="92" to="139" dur="0.174" begin="animate1.end + 0.5" id="animate2" fill="freeze"/></rect></clipPath><clipPath id="clip-mask-3"><rect x="73" y="48" width="149" height="37"><set attributeName="x" to="-76" begin="0; animate18.end + 1" /><animate attributeName="x" from="-76" to="73" dur="0.552" begin="animate2.end + 0.5" id="animate3" fill="freeze"/></rect></clipPath><clipPath id="clip-mask-4"><rect x="182" y="64" width="40" height="22"><set attributeName="y" to="42" begin="0; animate18.end + 1" /><animate attributeName="y" from="42" to="64" dur="0.081" begin="animate3.end" id="animate4" fill="freeze"/></rect></clipPath><clipPath id="clip-mask-5"><rect x="14" y="66" width="62" height="167"><set attributeName="y" to="-101" begin="0; animate18.end + 1" /><animate attributeName="y" from="-101" to="66" dur="0.619" begin="animate4.end + 0.5" id="animate5" fill="freeze"/></rect></clipPath><clipPath id="clip-mask-6"><rect x="82" y="83" width="88" height="31"><set attributeName="x" to="-6" begin="0; animate18.end + 1" /><animate attributeName="x" from="-6" to="82" dur="0.326" begin="animate5.end + 0.5" id="animate6" fill="freeze"/></rect></clipPath><clipPath id="clip-mask-7"><rect x="121" y="73" width="15" height="53"><set attributeName="y" to="20" begin="0; animate18.end + 1" /><animate attributeName="y" from="20" to="73" dur="0.196" begin="animate6.end + 0.5" id="animate7" fill="freeze"/></rect></clipPath><clipPath id="clip-mask-8"><rect x="129" y="114" width="67" height="23"><set attributeName="x" to="62" begin="0; animate18.end + 1" /><animate attributeName="x" from="62" to="129" dur="0.248" begin="animate7.end" id="animate8" fill="freeze"/></rect></clipPath><clipPath id="clip-mask-9"><rect x="174" y="95" width="18" height="21"><set attributeName="y" to="116" begin="0; animate18.end + 1" /><animate attributeName="y" from="116" to="95" dur="0.078" begin="animate8.end" id="animate9" fill="freeze"/></rect></clipPath><clipPath id="clip-mask-10"><rect x="54" y="130" width="54" height="69"><set attributeName="y" to="61" begin="0; animate18.end + 1" /><animate attributeName="y" from="61" to="130" dur="0.256" begin="animate9.end + 0.5" id="animate10" fill="freeze"/></rect></clipPath><clipPath id="clip-mask-11"><rect x="97" y="147" width="43" height="14"><set attributeName="x" to="54" begin="0; animate18.end + 1" /><animate attributeName="x" from="54" to="97" dur="0.159" begin="animate10.end + 0.5" id="animate11" fill="freeze"/></rect></clipPath><clipPath id="clip-mask-12"><rect x="49" y="159" width="88" height="86"><set attributeName="y" to="73" begin="0; animate18.end + 1" /><animate attributeName="y" from="73" to="159" dur="0.319" begin="animate11.end" id="animate12" fill="freeze"/></rect></clipPath><clipPath id="clip-mask-13"><rect x="74" y="181" width="181" height="79"><set attributeName="x" to="-107" begin="0; animate18.end + 1" /><animate attributeName="x" from="-107" to="74" dur="0.670" begin="animate12.end + 0.5" id="animate13" fill="freeze"/></rect></clipPath><clipPath id="clip-mask-14"><rect x="137" y="145" width="21" height="56"><set attributeName="y" to="89" begin="0; animate18.end + 1" /><animate attributeName="y" from="89" to="145" dur="0.207" begin="animate13.end + 0.5" id="animate14" fill="freeze"/></rect></clipPath><clipPath id="clip-mask-15"><rect x="158" y="140" width="42" height="17"><set attributeName="x" to="116" begin="0; animate18.end + 1" /><animate attributeName="x" from="116" to="158" dur="0.156" begin="animate14.end + 0.5" id="animate15" fill="freeze"/></rect></clipPath><clipPath id="clip-mask-16"><rect x="172" y="153" width="25" height="46"><set attributeName="y" to="107" begin="0; animate18.end + 1" /><animate attributeName="y" from="107" to="153" dur="0.170" begin="animate15.end" id="animate16" fill="freeze"/></rect></clipPath><clipPath id="clip-mask-17"><rect x="179" y="191" width="55" height="20"><set attributeName="x" to="124" begin="0; animate18.end + 1" /><animate attributeName="x" from="124" to="179" dur="0.204" begin="animate16.end" id="animate17" fill="freeze"/></rect></clipPath><clipPath id="clip-mask-18"><rect x="215" y="164" width="18" height="31"><set attributeName="y" to="195" begin="0; animate18.end + 1" /><animate attributeName="y" from="195" to="164" dur="0.115" begin="animate17.end" id="animate18" fill="freeze"/></rect></clipPath></defs><path d="M 0 0 L 270 270 M 270 0 L 0 270 M 135 0 L 135 270 M 0 135 L 270 135" stroke="#CCCCCC" /><path d="M 126 66 Q 125 43 123 23 Q 123 21 119 17 Q 117 13 119 11 Q 121 9 125 10 Q 131 11 139 15 Q 144 19 143 21 Q 142 23 142 25 Q 140 28 140 31 Q 140 32 140 32 L 139 40 Q 137 51 136 64" fill="#CCCCCC"/><path d="M 140 32 Q 146 31 152 30 Q 171 22 176 23 Q 184 24 185 27 Q 186 29 185 31 Q 183 32 164 37 Q 147 41 139 40" fill="#CCCCCC"/><path d="M 121 75 Q 103 79 86 84 Q 79 85 76 85 L 73 75 Q 103 70 126 66 L 136 64 Q 160 58 189 50 Q 196 48 202 50 Q 222 61 222 64 L 190 64 Q 190 61 181 62 Q 156 67 131 73" fill="#CCCCCC"/><path d="M 222 64 Q 222 67 217 68 Q 209 70 190 83 Q 186 86 184 85 Q 182 84 184 80 Q 190 67 190 64" fill="#CCCCCC"/><path d="M 76 85 Q 75 88 72 109 Q 68 153 51 189 Q 48 196 44 203 Q 25 231 17 233 Q 14 233 15 230 Q 16 229 17 227 Q 38 192 45 172 Q 55 143 57 102 Q 58 97 58 93 Q 58 79 54 73 Q 52 69 55 68 Q 59 66 64 69 Q 70 72 73 75" fill="#CCCCCC"/><path d="M 111 108 L 101 111 Q 94 114 87 109 Q 82 105 88 104 Q 113 98 123 96 L 133 92 Q 134 91 136 91 Q 156 83 164 87 Q 170 89 170 91 Q 168 94 166 94 Q 144 99 132 103 L 123 105" fill="#CCCCCC"/><path d="M 123 96 Q 122 81 121 75 L 131 73 Q 132 73 133 74 Q 136 76 134 80 Q 133 87 133 92 L 132 103 Q 132 110 134 114 L 129 126 Q 123 120 123 105" fill="#CCCCCC"/><path d="M 134 114 Q 135 117 140 119 Q 152 124 166 120 Q 172 118 174 116 L 192 114 Q 196 119 192 122 Q 185 127 178 130 Q 176 130 175 130 Q 143 137 129 126" fill="#CCCCCC"/><path d="M 174 116 Q 177 111 181 98 Q 181 95 182 95 Q 184 96 184 99 Q 190 110 192 114" fill="#CCCCCC"/><path d="M 74 187 Q 65 196 56 199 Q 54 198 56 197 Q 69 182 75 175 Q 95 147 90 135 Q 89 132 91 131 Q 98 130 105 135 Q 108 138 108 140 Q 108 140 100 155 L 97 160 Q 91 167 80 182" fill="#CCCCCC"/><path d="M 118 159 Q 117 157 105 160 Q 99 161 97 160 L 100 155 Q 112 152 118 149 Q 123 147 125 148 Q 138 153 139 156 Q 140 159 137 161" fill="#CCCCCC"/><path d="M 76 245 L 54 245 Q 49 245 55 242 Q 79 224 93 205 Q 97 201 100 197 L 106 189 Q 120 166 118 159 L 137 161 Q 133 164 127 176 Q 121 186 115 195 L 109 203" fill="#CCCCCC"/><path d="M 100 197 Q 88 189 78 189 Q 76 189 74 187 L 80 182 Q 84 181 90 183 Q 97 183 106 189 L 115 195 Q 115 195 116 195 Q 176 233 213 237 Q 232 238 249 240 Q 255 240 254 242 Q 253 245 250 246 Q 203 260 190 256 Q 152 236 118 208 Q 113 205 109 203" fill="#CCCCCC"/><path d="M 158 159 L 158 160 Q 158 162 158 164 Q 157 171 155 176 Q 147 198 139 201 Q 137 201 137 199 Q 138 198 139 197 Q 144 184 145 180 Q 146 173 145 151 Q 144 150 144 150 Q 143 147 144 146 Q 147 145 150 147 Q 155 149 158 151 L 158 157" fill="#CCCCCC"/><path d="M 158 151 Q 169 147 175 143 Q 178 140 183 141 Q 190 144 196 147 Q 200 151 197 154 L 176 153 Q 176 153 173 153 Q 163 156 158 157" fill="#CCCCCC"/><path d="M 197 154 Q 186 164 185 175 Q 184 189 187 192 L 179 199 Q 172 193 176 160 Q 177 155 176 153" fill="#CCCCCC"/><path d="M 187 192 Q 194 196 204 195 Q 213 194 215 191 L 233 195 Q 234 198 231 200 Q 226 204 218 206 Q 191 211 179 199" fill="#CCCCCC"/><path d="M 215 191 Q 218 188 222 171 Q 224 164 226 171 Q 228 184 233 195" fill="#CCCCCC"/><path d="M 126 66 Q 125 43 123 23 Q 123 21 119 17 Q 117 13 119 11 Q 121 9 125 10 Q 131 11 139 15 Q 144 19 143 21 Q 142 23 142 25 Q 140 28 140 31 Q 140 32 140 32 L 139 40 Q 137 51 136 64" fill="#0000ff" clip-path="url(#clip-mask-1)" /><path d="M 140 32 Q 146 31 152 30 Q 171 22 176 23 Q 184 24 185 27 Q 186 29 185 31 Q 183 32 164 37 Q 147 41 139 40" fill="#0000ff" clip-path="url(#clip-mask-2)" /><path d="M 121 75 Q 103 79 86 84 Q 79 85 76 85 L 73 75 Q 103 70 126 66 L 136 64 Q 160 58 189 50 Q 196 48 202 50 Q 222 61 222 64 L 190 64 Q 190 61 181 62 Q 156 67 131 73" fill="#0000ff" clip-path="url(#clip-mask-3)" /><path d="M 222 64 Q 222 67 217 68 Q 209 70 190 83 Q 186 86 184 85 Q 182 84 184 80 Q 190 67 190 64" fill="#0000ff" clip-path="url(#clip-mask-4)" /><path d="M 76 85 Q 75 88 72 109 Q 68 153 51 189 Q 48 196 44 203 Q 25 231 17 233 Q 14 233 15 230 Q 16 229 17 227 Q 38 192 45 172 Q 55 143 57 102 Q 58 97 58 93 Q 58 79 54 73 Q 52 69 55 68 Q 59 66 64 69 Q 70 72 73 75" fill="#0000ff" clip-path="url(#clip-mask-5)" /><path d="M 111 108 L 101 111 Q 94 114 87 109 Q 82 105 88 104 Q 113 98 123 96 L 133 92 Q 134 91 136 91 Q 156 83 164 87 Q 170 89 170 91 Q 168 94 166 94 Q 144 99 132 103 L 123 105" fill="#0000ff" clip-path="url(#clip-mask-6)" /><path d="M 123 96 Q 122 81 121 75 L 131 73 Q 132 73 133 74 Q 136 76 134 80 Q 133 87 133 92 L 132 103 Q 132 110 134 114 L 129 126 Q 123 120 123 105" fill="#0000ff" clip-path="url(#clip-mask-7)" /><path d="M 134 114 Q 135 117 140 119 Q 152 124 166 120 Q 172 118 174 116 L 192 114 Q 196 119 192 122 Q 185 127 178 130 Q 176 130 175 130 Q 143 137 129 126" fill="#0000ff" clip-path="url(#clip-mask-8)" /><path d="M 174 116 Q 177 111 181 98 Q 181 95 182 95 Q 184 96 184 99 Q 190 110 192 114" fill="#0000ff" clip-path="url(#clip-mask-9)" /><path d="M 74 187 Q 65 196 56 199 Q 54 198 56 197 Q 69 182 75 175 Q 95 147 90 135 Q 89 132 91 131 Q 98 130 105 135 Q 108 138 108 140 Q 108 140 100 155 L 97 160 Q 91 167 80 182" fill="#000080" clip-path="url(#clip-mask-10)" /><path d="M 118 159 Q 117 157 105 160 Q 99 161 97 160 L 100 155 Q 112 152 118 149 Q 123 147 125 148 Q 138 153 139 156 Q 140 159 137 161" fill="#000080" clip-path="url(#clip-mask-11)" /><path d="M 76 245 L 54 245 Q 49 245 55 242 Q 79 224 93 205 Q 97 201 100 197 L 106 189 Q 120 166 118 159 L 137 161 Q 133 164 127 176 Q 121 186 115 195 L 109 203" fill="#000080" clip-path="url(#clip-mask-12)" /><path d="M 100 197 Q 88 189 78 189 Q 76 189 74 187 L 80 182 Q 84 181 90 183 Q 97 183 106 189 L 115 195 Q 115 195 116 195 Q 176 233 213 237 Q 232 238 249 240 Q 255 240 254 242 Q 253 245 250 246 Q 203 260 190 256 Q 152 236 118 208 Q 113 205 109 203" fill="#000080" clip-path="url(#clip-mask-13)" /><path d="M 158 159 L 158 160 Q 158 162 158 164 Q 157 171 155 176 Q 147 198 139 201 Q 137 201 137 199 Q 138 198 139 197 Q 144 184 145 180 Q 146 173 145 151 Q 144 150 144 150 Q 143 147 144 146 Q 147 145 150 147 Q 155 149 158 151 L 158 157" fill="#000080" clip-path="url(#clip-mask-14)" /><path d="M 158 151 Q 169 147 175 143 Q 178 140 183 141 Q 190 144 196 147 Q 200 151 197 154 L 176 153 Q 176 153 173 153 Q 163 156 158 157" fill="#000080" clip-path="url(#clip-mask-15)" /><path d="M 197 154 Q 186 164 185 175 Q 184 189 187 192 L 179 199 Q 172 193 176 160 Q 177 155 176 153" fill="#000080" clip-path="url(#clip-mask-16)" /><path d="M 187 192 Q 194 196 204 195 Q 213 194 215 191 L 233 195 Q 234 198 231 200 Q 226 204 218 206 Q 191 211 179 199" fill="#000080" clip-path="url(#clip-mask-17)" /><path d="M 215 191 Q 218 188 222 171 Q 224 164 226 171 Q 228 184 233 195" fill="#000080" clip-path="url(#clip-mask-18)" /></svg>