<svg xmlns="http://www.w3.org/2000/svg" xmlns:xlink="http://www.w3.org/1999/xlink" width="270" height="270"><defs><clipPath id="clip-mask-1"><rect x="88" y="15" width="24" height="49"><animate attributeName="y" from="-34" to="15" dur="0.181" begin="0; animate23.end + 1" id="animate1" fill="freeze"/></rect></clipPath><clipPath id="clip-mask-2"><rect x="108" y="30" width="41" height="16"><set attributeName="x" to="67" begin="0; animate23.end + 1" /><animate attributeName="x" from="67" to="108" dur="0.152" begin="animate1.end + 0.5" id="animate2" fill="freeze"/></rect></clipPath><clipPath id="clip-mask-3"><rect x="64" y="51" width="103" height="30"><set attributeName="x" to="-39" begin="0; animate23.end + 1" /><animate attributeName="x" from="-39" to="64" dur="0.381" begin="animate2.end + 0.5" id="animate3" fill="freeze"/></rect></clipPath><clipPath id="clip-mask-4"><rect x="134" y="66" width="33" height="20"><set attributeName="y" to="46" begin="0; animate23.end + 1" /><animate attributeName="y" from="46" to="66" dur="0.074" begin="animate3.end" id="animate4" fill="freeze"/></rect></clipPath><clipPath id="clip-mask-5"><rect x="15" y="65" width="52" height="170"><set attributeName="y" to="-105" begin="0; animate23.end + 1" /><animate attributeName="y" from="-105" to="65" dur="0.630" begin="animate4.end + 0.5" id="animate5" fill="freeze"/></rect></clipPath><clipPath id="clip-mask-6"><rect x="65" y="86" width="63" height="22"><set attributeName="x" to="2" begin="0; animate23.end + 1" /><animate attributeName="x" from="2" to="65" dur="0.233" begin="animate5.end + 0.5" id="animate6" fill="freeze"/></rect></clipPath><clipPath id="clip-mask-7"><rect x="90" y="75" width="14" height="46"><set attributeName="y" to="29" begin="0; animate23.end + 1" /><animate attributeName="y" from="29" to="75" dur="0.170" begin="animate6.end + 0.5" id="animate7" fill="freeze"/></rect></clipPath><clipPath id="clip-mask-8"><rect x="96" y="112" width="49" height="19"><set attributeName="x" to="47" begin="0; animate23.end + 1" /><animate attributeName="x" from="47" to="96" dur="0.181" begin="animate7.end" id="animate8" fill="freeze"/></rect></clipPath><clipPath id="clip-mask-9"><rect x="127" y="96" width="16" height="17"><set attributeName="y" to="113" begin="0; animate23.end + 1" /><animate attributeName="y" from="113" to="96" dur="0.063" begin="animate8.end" id="animate9" fill="freeze"/></rect></clipPath><clipPath id="clip-mask-10"><rect x="58" y="131" width="35" height="49"><set attributeName="y" to="82" begin="0; animate23.end + 1" /><animate attributeName="y" from="82" to="131" dur="0.181" begin="animate9.end + 0.5" id="animate10" fill="freeze"/></rect></clipPath><clipPath id="clip-mask-11"><rect x="66" y="167" width="21" height="87"><set attributeName="y" to="80" begin="0; animate23.end + 1" /><animate attributeName="y" from="80" to="167" dur="0.322" begin="animate10.end + 0.5" id="animate11" fill="freeze"/></rect></clipPath><clipPath id="clip-mask-12"><rect x="103" y="129" width="20" height="19"><set attributeName="x" to="83" begin="0; animate23.end + 1" /><animate attributeName="x" from="83" to="103" dur="0.074" begin="animate11.end + 0.5" id="animate12" fill="freeze"/></rect></clipPath><clipPath id="clip-mask-13"><rect x="85" y="148" width="64" height="19"><set attributeName="x" to="21" begin="0; animate23.end + 1" /><animate attributeName="x" from="21" to="85" dur="0.237" begin="animate12.end + 0.5" id="animate13" fill="freeze"/></rect></clipPath><clipPath id="clip-mask-14"><rect x="91" y="172" width="55" height="16"><set attributeName="x" to="36" begin="0; animate23.end + 1" /><animate attributeName="x" from="36" to="91" dur="0.204" begin="animate13.end + 0.5" id="animate14" fill="freeze"/></rect></clipPath><clipPath id="clip-mask-15"><rect x="91" y="193" width="56" height="17"><set attributeName="x" to="35" begin="0; animate23.end + 1" /><animate attributeName="x" from="35" to="91" dur="0.207" begin="animate14.end + 0.5" id="animate15" fill="freeze"/></rect></clipPath><clipPath id="clip-mask-16"><rect x="109" y="163" width="14" height="62"><set attributeName="y" to="101" begin="0; animate23.end + 1" /><animate attributeName="y" from="101" to="163" dur="0.230" begin="animate15.end + 0.5" id="animate16" fill="freeze"/></rect></clipPath><clipPath id="clip-mask-17"><rect x="83" y="214" width="81" height="25"><set attributeName="x" to="2" begin="0; animate23.end + 1" /><animate attributeName="x" from="2" to="83" dur="0.300" begin="animate16.end + 0.5" id="animate17" fill="freeze"/></rect></clipPath><clipPath id="clip-mask-18"><rect x="167" y="55" width="69" height="24"><set attributeName="x" to="98" begin="0; animate23.end + 1" /><animate attributeName="x" from="98" to="167" dur="0.256" begin="animate17.end + 0.5" id="animate18" fill="freeze"/></rect></clipPath><clipPath id="clip-mask-19"><rect x="147" y="86" width="107" height="32"><set attributeName="x" to="40" begin="0; animate23.end + 1" /><animate attributeName="x" from="40" to="147" dur="0.396" begin="animate18.end + 0.5" id="animate19" fill="freeze"/></rect></clipPath><clipPath id="clip-mask-20"><rect x="161" y="110" width="37" height="62"><set attributeName="y" to="48" begin="0; animate23.end + 1" /><animate attributeName="y" from="48" to="110" dur="0.230" begin="animate19.end + 0.5" id="animate20" fill="freeze"/></rect></clipPath><clipPath id="clip-mask-21"><rect x="175" y="142" width="70" height="26"><set attributeName="x" to="105" begin="0; animate23.end + 1" /><animate attributeName="x" from="105" to="175" dur="0.259" begin="animate20.end" id="animate21" fill="freeze"/></rect></clipPath><clipPath id="clip-mask-22"><rect x="202" y="155" width="45" height="88"><set attributeName="y" to="67" begin="0; animate23.end + 1" /><animate attributeName="y" from="67" to="155" dur="0.326" begin="animate21.end" id="animate22" fill="freeze"/></rect></clipPath><clipPath id="clip-mask-23"><rect x="176" y="212" width="27" height="34"><set attributeName="x" to="203" begin="0; animate23.end + 1" /><animate attributeName="x" from="203" to="176" dur="0.100" begin="animate22.end" id="animate23" fill="freeze"/></rect></clipPath></defs><path d="M 0 0 L 270 270 M 270 0 L 0 270 M 135 0 L 135 270 M 0 135 L 270 135" stroke="#CCCCCC" /><path d="M 96 64 Q 95 28 90 22 Q 88 19 90 17 Q 92 15 95 16 Q 101 17 108 21 Q 112 25 112 27 Q 111 29 110 31 Q 110 33 109 36 Q 109 37 109 38 L 108 46 Q 106 54 105 62" fill="#CCCCCC"/><path d="M 109 38 Q 113 36 117 36 Q 136 30 140 30 Q 146 32 148 34 Q 149 36 147 38 Q 147 38 147 38 Q 120 46 109 46 Q 108 45 108 46" fill="#CCCCCC"/><path d="M 78 67 L 96 64 L 105 62 Q 122 58 123 58 Q 145 51 151 56 Q 166 65 167 68 L 141 66 Q 142 64 137 63 Q 134 63 127 64 Q 95 70 70 80 Q 69 81 67 81 L 64 72" fill="#CCCCCC"/><path d="M 167 68 Q 167 70 160 72 Q 151 76 140 84 Q 137 86 135 86 Q 134 85 136 82 Q 141 67 141 66" fill="#CCCCCC"/><path d="M 67 81 Q 67 81 67 81 Q 66 86 65 90 Q 62 152 49 189 Q 45 195 43 201 Q 25 233 17 235 Q 15 235 15 233 Q 15 231 16 230 Q 35 196 42 173 Q 51 142 51 97 Q 51 78 45 72 Q 44 68 46 66 Q 50 65 55 68 Q 60 70 64 72" fill="#CCCCCC"/><path d="M 88 104 L 85 105 Q 76 108 70 105 Q 65 103 70 101 Q 80 98 92 95 L 102 92 Q 118 86 124 88 Q 128 89 128 92 Q 127 94 125 94 Q 118 96 110 98 Q 105 99 101 101 L 92 104" fill="#CCCCCC"/><path d="M 92 95 Q 92 95 92 95 Q 93 87 91 80 Q 90 76 91 76 Q 93 75 96 76 Q 100 78 102 80 Q 104 82 103 86 Q 102 89 102 92 L 101 101 Q 99 106 102 112 L 96 121 Q 91 116 92 104" fill="#CCCCCC"/><path d="M 102 112 Q 103 114 105 115 Q 112 118 122 116 Q 126 115 127 113 L 143 113 Q 145 118 142 120 Q 137 124 131 125 Q 107 131 96 121" fill="#CCCCCC"/><path d="M 127 113 Q 130 110 135 99 Q 136 96 137 97 Q 138 98 138 100 Q 141 110 143 113" fill="#CCCCCC"/><path d="M 70 173 Q 62 179 59 179 Q 58 180 58 179 Q 58 177 60 176 Q 81 146 79 136 Q 78 135 78 135 Q 77 131 80 131 Q 85 131 92 140 Q 93 143 92 145 Q 90 146 88 150 Q 82 160 75 167" fill="#CCCCCC"/><path d="M 83 238 Q 83 243 81 248 Q 78 254 75 251 Q 66 241 71 226 Q 78 189 71 176 Q 70 174 70 173 L 75 167 Q 77 169 78 170 Q 81 173 85 177 Q 87 179 85 184 Q 84 193 84 230" fill="#CCCCCC"/><path d="M 103 133 L 103 132 Q 103 129 105 130 Q 117 131 120 137 Q 123 142 122 144 Q 121 148 118 148 Q 113 148 104 135" fill="#CCCCCC"/><path d="M 109 165 Q 107 165 107 165 Q 97 167 89 163 Q 85 160 91 159 Q 103 158 113 155 Q 123 153 131 150 Q 137 148 142 149 Q 147 150 149 152 Q 149 154 148 155 Q 146 156 139 158 Q 129 160 119 163" fill="#CCCCCC"/><path d="M 110 186 Q 106 186 102 187 Q 98 188 95 187 Q 91 184 95 183 Q 102 180 110 178 L 123 175 Q 131 172 136 173 Q 142 173 144 177 Q 146 179 141 180 Q 132 181 122 184" fill="#CCCCCC"/><path d="M 110 207 Q 106 208 102 209 Q 98 210 95 209 Q 91 205 94 204 Q 102 202 110 200 L 121 197 Q 129 193 137 193 Q 143 194 145 197 Q 147 200 142 201 Q 132 203 121 205" fill="#CCCCCC"/><path d="M 110 215 L 110 207 L 110 200 Q 110 191 110 186 L 110 178 Q 110 166 109 165 L 119 163 Q 123 165 123 175 L 122 184 Q 122 190 121 197 L 121 205 Q 120 213 120 223 L 110 225" fill="#CCCCCC"/><path d="M 120 223 Q 127 221 132 220 Q 148 214 160 223 Q 164 225 163 228 Q 162 230 158 230 Q 119 230 93 238 Q 89 239 83 238 L 84 230 Q 98 227 110 225" fill="#CCCCCC"/><path d="M 186 66 L 195 64 Q 204 61 211 58 Q 218 55 226 55 Q 233 57 235 59 Q 236 62 234 64 Q 233 65 227 67 Q 212 71 198 75 Q 185 79 173 74 Q 167 70 176 68" fill="#CCCCCC"/><path d="M 173 114 L 167 116 Q 163 118 158 117 Q 154 116 151 113 Q 147 109 151 108 Q 196 98 221 91 Q 236 86 250 94 Q 254 97 253 100 Q 252 102 248 103 Q 194 109 188 110 L 180 113 L 180 112" fill="#CCCCCC"/><path d="M 188 110 Q 194 115 196 118 Q 198 122 195 127 Q 190 139 185 149 Q 184 151 185 152 L 175 168 Q 169 172 167 170 Q 164 167 162 164 Q 161 160 165 156 Q 173 151 179 134 Q 184 122 180 113" fill="#CCCCCC"/><path d="M 185 152 Q 186 154 190 153 Q 218 145 224 143 Q 228 142 234 145 Q 242 150 245 155 L 223 157 Q 221 155 217 155 Q 208 154 192 158 Q 183 161 175 168" fill="#CCCCCC"/><path d="M 245 155 Q 247 157 244 162 Q 242 164 226 216 Q 226 216 226 217 Q 220 232 202 243 L 203 219 Q 216 207 224 170 Q 226 161 223 157" fill="#CCCCCC"/><path d="M 202 243 Q 196 246 192 240 Q 188 231 180 222 Q 177 218 177 214 Q 176 212 180 213 Q 186 215 193 218 Q 199 221 203 219" fill="#CCCCCC"/><path d="M 96 64 Q 95 28 90 22 Q 88 19 90 17 Q 92 15 95 16 Q 101 17 108 21 Q 112 25 112 27 Q 111 29 110 31 Q 110 33 109 36 Q 109 37 109 38 L 108 46 Q 106 54 105 62" fill="#0000ff" clip-path="url(#clip-mask-1)" /><path d="M 109 38 Q 113 36 117 36 Q 136 30 140 30 Q 146 32 148 34 Q 149 36 147 38 Q 147 38 147 38 Q 120 46 109 46 Q 108 45 108 46" fill="#0000ff" clip-path="url(#clip-mask-2)" /><path d="M 78 67 L 96 64 L 105 62 Q 122 58 123 58 Q 145 51 151 56 Q 166 65 167 68 L 141 66 Q 142 64 137 63 Q 134 63 127 64 Q 95 70 70 80 Q 69 81 67 81 L 64 72" fill="#0000ff" clip-path="url(#clip-mask-3)" /><path d="M 167 68 Q 167 70 160 72 Q 151 76 140 84 Q 137 86 135 86 Q 134 85 136 82 Q 141 67 141 66" fill="#0000ff" clip-path="url(#clip-mask-4)" /><path d="M 67 81 Q 67 81 67 81 Q 66 86 65 90 Q 62 152 49 189 Q 45 195 43 201 Q 25 233 17 235 Q 15 235 15 233 Q 15 231 16 230 Q 35 196 42 173 Q 51 142 51 97 Q 51 78 45 72 Q 44 68 46 66 Q 50 65 55 68 Q 60 70 64 72" fill="#0000ff" clip-path="url(#clip-mask-5)" /><path d="M 88 104 L 85 105 Q 76 108 70 105 Q 65 103 70 101 Q 80 98 92 95 L 102 92 Q 118 86 124 88 Q 128 89 128 92 Q 127 94 125 94 Q 118 96 110 98 Q 105 99 101 101 L 92 104" fill="#0000ff" clip-path="url(#clip-mask-6)" /><path d="M 92 95 Q 92 95 92 95 Q 93 87 91 80 Q 90 76 91 76 Q 93 75 96 76 Q 100 78 102 80 Q 104 82 103 86 Q 102 89 102 92 L 101 101 Q 99 106 102 112 L 96 121 Q 91 116 92 104" fill="#0000ff" clip-path="url(#clip-mask-7)" /><path d="M 102 112 Q 103 114 105 115 Q 112 118 122 116 Q 126 115 127 113 L 143 113 Q 145 118 142 120 Q 137 124 131 125 Q 107 131 96 121" fill="#0000ff" clip-path="url(#clip-mask-8)" /><path d="M 127 113 Q 130 110 135 99 Q 136 96 137 97 Q 138 98 138 100 Q 141 110 143 113" fill="#0000ff" clip-path="url(#clip-mask-9)" /><path d="M 70 173 Q 62 179 59 179 Q 58 180 58 179 Q 58 177 60 176 Q 81 146 79 136 Q 78 135 78 135 Q 77 131 80 131 Q 85 131 92 140 Q 93 143 92 145 Q 90 146 88 150 Q 82 160 75 167" fill="#000080" clip-path="url(#clip-mask-10)" /><path d="M 83 238 Q 83 243 81 248 Q 78 254 75 251 Q 66 241 71 226 Q 78 189 71 176 Q 70 174 70 173 L 75 167 Q 77 169 78 170 Q 81 173 85 177 Q 87 179 85 184 Q 84 193 84 230" fill="#000080" clip-path="url(#clip-mask-11)" /><path d="M 103 133 L 103 132 Q 103 129 105 130 Q 117 131 120 137 Q 123 142 122 144 Q 121 148 118 148 Q 113 148 104 135" fill="#000080" clip-path="url(#clip-mask-12)" /><path d="M 109 165 Q 107 165 107 165 Q 97 167 89 163 Q 85 160 91 159 Q 103 158 113 155 Q 123 153 131 150 Q 137 148 142 149 Q 147 150 149 152 Q 149 154 148 155 Q 146 156 139 158 Q 129 160 119 163" fill="#000080" clip-path="url(#clip-mask-13)" /><path d="M 110 186 Q 106 186 102 187 Q 98 188 95 187 Q 91 184 95 183 Q 102 180 110 178 L 123 175 Q 131 172 136 173 Q 142 173 144 177 Q 146 179 141 180 Q 132 181 122 184" fill="#000080" clip-path="url(#clip-mask-14)" /><path d="M 110 207 Q 106 208 102 209 Q 98 210 95 209 Q 91 205 94 204 Q 102 202 110 200 L 121 197 Q 129 193 137 193 Q 143 194 145 197 Q 147 200 142 201 Q 132 203 121 205" fill="#000080" clip-path="url(#clip-mask-15)" /><path d="M 110 215 L 110 207 L 110 200 Q 110 191 110 186 L 110 178 Q 110 166 109 165 L 119 163 Q 123 165 123 175 L 122 184 Q 122 190 121 197 L 121 205 Q 120 213 120 223 L 110 225" fill="#000080" clip-path="url(#clip-mask-16)" /><path d="M 120 223 Q 127 221 132 220 Q 148 214 160 223 Q 164 225 163 228 Q 162 230 158 230 Q 119 230 93 238 Q 89 239 83 238 L 84 230 Q 98 227 110 225" fill="#000080" clip-path="url(#clip-mask-17)" /><path d="M 186 66 L 195 64 Q 204 61 211 58 Q 218 55 226 55 Q 233 57 235 59 Q 236 62 234 64 Q 233 65 227 67 Q 212 71 198 75 Q 185 79 173 74 Q 167 70 176 68" fill="#000080" clip-path="url(#clip-mask-18)" /><path d="M 173 114 L 167 116 Q 163 118 158 117 Q 154 116 151 113 Q 147 109 151 108 Q 196 98 221 91 Q 236 86 250 94 Q 254 97 253 100 Q 252 102 248 103 Q 194 109 188 110 L 180 113 L 180 112" fill="#000080" clip-path="url(#clip-mask-19)" /><path d="M 188 110 Q 194 115 196 118 Q 198 122 195 127 Q 190 139 185 149 Q 184 151 185 152 L 175 168 Q 169 172 167 170 Q 164 167 162 164 Q 161 160 165 156 Q 173 151 179 134 Q 184 122 180 113" fill="#000080" clip-path="url(#clip-mask-20)" /><path d="M 185 152 Q 186 154 190 153 Q 218 145 224 143 Q 228 142 234 145 Q 242 150 245 155 L 223 157 Q 221 155 217 155 Q 208 154 192 158 Q 183 161 175 168" fill="#000080" clip-path="url(#clip-mask-21)" /><path d="M 245 155 Q 247 157 244 162 Q 242 164 226 216 Q 226 216 226 217 Q 220 232 202 243 L 203 219 Q 216 207 224 170 Q 226 161 223 157" fill="#000080" clip-path="url(#clip-mask-22)" /><path d="M 202 243 Q 196 246 192 240 Q 188 231 180 222 Q 177 218 177 214 Q 176 212 180 213 Q 186 215 193 218 Q 199 221 203 219" fill="#000080" clip-path="url(#clip-mask-23)" /></svg>