<svg xmlns="http://www.w3.org/2000/svg" xmlns:xlink="http://www.w3.org/1999/xlink" width="270" height="270"><defs><clipPath id="clip-mask-1"><rect x="118" y="11" width="33" height="26"><animate attributeName="x" from="85" to="118" dur="0.122" begin="0; animate12.end + 1" id="animate1" fill="freeze"/></rect></clipPath><clipPath id="clip-mask-2"><rect x="52" y="34" width="166" height="35"><set attributeName="x" to="-114" begin="0; animate12.end + 1" /><animate attributeName="x" from="-114" to="52" dur="0.615" begin="animate1.end + 0.5" id="animate2" fill="freeze"/></rect></clipPath><clipPath id="clip-mask-3"><rect x="73" y="85" width="28" height="57"><set attributeName="y" to="28" begin="0; animate12.end + 1" /><animate attributeName="y" from="28" to="85" dur="0.211" begin="animate2.end + 0.5" id="animate3" fill="freeze"/></rect></clipPath><clipPath id="clip-mask-4"><rect x="88" y="68" width="109" height="27"><set attributeName="x" to="-21" begin="0; animate12.end + 1" /><animate attributeName="x" from="-21" to="88" dur="0.404" begin="animate3.end + 0.5" id="animate4" fill="freeze"/></rect></clipPath><clipPath id="clip-mask-5"><rect x="168" y="83" width="33" height="34"><set attributeName="y" to="49" begin="0; animate12.end + 1" /><animate attributeName="y" from="49" to="83" dur="0.126" begin="animate4.end" id="animate5" fill="freeze"/></rect></clipPath><clipPath id="clip-mask-6"><rect x="100" y="113" width="85" height="21"><set attributeName="x" to="15" begin="0; animate12.end + 1" /><animate attributeName="x" from="15" to="100" dur="0.315" begin="animate5.end + 0.5" id="animate6" fill="freeze"/></rect></clipPath><clipPath id="clip-mask-7"><rect x="123" y="56" width="20" height="65"><set attributeName="y" to="-9" begin="0; animate12.end + 1" /><animate attributeName="y" from="-9" to="56" dur="0.241" begin="animate6.end + 0.5" id="animate7" fill="freeze"/></rect></clipPath><clipPath id="clip-mask-8"><rect x="17" y="131" width="115" height="91"><set attributeName="y" to="40" begin="0; animate12.end + 1" /><animate attributeName="y" from="40" to="131" dur="0.337" begin="animate7.end + 0.5" id="animate8" fill="freeze"/></rect></clipPath><clipPath id="clip-mask-9"><rect x="85" y="175" width="25" height="83"><set attributeName="y" to="92" begin="0; animate12.end + 1" /><animate attributeName="y" from="92" to="175" dur="0.307" begin="animate8.end + 0.5" id="animate9" fill="freeze"/></rect></clipPath><clipPath id="clip-mask-10"><rect x="100" y="203" width="43" height="50"><set attributeName="x" to="57" begin="0; animate12.end + 1" /><animate attributeName="x" from="57" to="100" dur="0.159" begin="animate9.end" id="animate10" fill="freeze"/></rect></clipPath><clipPath id="clip-mask-11"><rect x="151" y="128" width="55" height="41"><set attributeName="y" to="87" begin="0; animate12.end + 1" /><animate attributeName="y" from="87" to="128" dur="0.152" begin="animate10.end + 0.5" id="animate11" fill="freeze"/></rect></clipPath><clipPath id="clip-mask-12"><rect x="125" y="148" width="127" height="80"><set attributeName="x" to="-2" begin="0; animate12.end + 1" /><animate attributeName="x" from="-2" to="125" dur="0.470" begin="animate11.end + 0.5" id="animate12" fill="freeze"/></rect></clipPath></defs><path d="M 0 0 L 270 270 M 270 0 L 0 270 M 135 0 L 135 270 M 0 135 L 270 135" stroke="#CCCCCC" /><path d="M 119 19 L 119 15 Q 118 12 119 12 Q 121 11 131 13 Q 146 15 150 26 Q 151 30 149 34 Q 147 37 143 37 Q 134 33 124 22" fill="#CCCCCC"/><path d="M 123 58 Q 96 61 72 68 Q 68 69 63 68 Q 59 67 55 64 Q 52 60 57 59 Q 155 45 192 37 Q 201 34 214 43 Q 218 47 217 49 Q 215 52 198 52 Q 160 53 134 56" fill="#CCCCCC"/><path d="M 101 134 Q 101 136 100 138 Q 99 142 94 137 Q 90 133 89 126 Q 83 105 76 92 Q 73 88 75 87 Q 76 85 79 86 Q 85 86 88 87 L 94 95 Q 99 124 100 125" fill="#CCCCCC"/><path d="M 127 90 Q 96 95 94 95 L 88 87 Q 108 86 127 83 L 140 81 Q 151 78 164 74 Q 179 68 197 83 L 172 85 Q 169 82 161 84 Q 150 85 140 88" fill="#CCCCCC"/><path d="M 168 114 Q 171 104 174 92 Q 174 88 172 85 L 197 83 Q 201 87 197 92 Q 189 96 181 117" fill="#CCCCCC"/><path d="M 112 133 Q 108 133 104 134 Q 102 134 101 134 L 100 125 Q 112 123 127 121 L 138 120 Q 151 117 166 114 Q 167 113 168 114 L 181 117 Q 185 120 185 122 Q 185 124 182 125 Q 144 127 120 131" fill="#CCCCCC"/><path d="M 127 121 Q 127 102 127 90 L 127 83 Q 126 63 123 58 L 134 56 Q 143 62 141 68 Q 140 74 140 81 L 140 88 Q 139 102 138 120" fill="#CCCCCC"/><path d="M 125 152 Q 125 152 102 175 L 93 183 Q 70 202 53 210 Q 52 210 51 211 Q 25 222 20 221 Q 17 220 19 219 Q 51 202 64 192 Q 65 191 66 191 Q 112 155 112 133 L 120 131 Q 125 133 130 139 Q 132 142 132 145 Q 132 147 131 148" fill="#CCCCCC"/><path d="M 102 175 Q 110 182 109 187 Q 107 194 105 219 Q 105 223 106 224 L 100 253 Q 97 258 94 256 Q 89 253 87 244 Q 85 239 88 233 Q 91 229 92 221 Q 95 215 95 195 Q 95 189 93 183" fill="#CCCCCC"/><path d="M 106 224 Q 109 225 138 206 Q 143 203 143 207 Q 142 208 138 213 Q 109 242 100 253" fill="#CCCCCC"/><path d="M 182 139 L 182 132 Q 182 128 185 128 Q 189 128 195 132 Q 201 137 204 143 Q 206 148 200 150 Q 192 152 174 161 Q 167 164 155 169 L 151 166" fill="#CCCCCC"/><path d="M 155 169 Q 170 182 184 193 Q 200 206 248 217 Q 252 219 252 220 Q 252 222 249 223 Q 239 225 208 228 Q 199 228 193 223 Q 155 186 125 152 L 131 148 Q 141 157 151 166" fill="#CCCCCC"/><path d="M 119 19 L 119 15 Q 118 12 119 12 Q 121 11 131 13 Q 146 15 150 26 Q 151 30 149 34 Q 147 37 143 37 Q 134 33 124 22" fill="#000080" clip-path="url(#clip-mask-1)" /><path d="M 123 58 Q 96 61 72 68 Q 68 69 63 68 Q 59 67 55 64 Q 52 60 57 59 Q 155 45 192 37 Q 201 34 214 43 Q 218 47 217 49 Q 215 52 198 52 Q 160 53 134 56" fill="#000080" clip-path="url(#clip-mask-2)" /><path d="M 101 134 Q 101 136 100 138 Q 99 142 94 137 Q 90 133 89 126 Q 83 105 76 92 Q 73 88 75 87 Q 76 85 79 86 Q 85 86 88 87 L 94 95 Q 99 124 100 125" fill="#000080" clip-path="url(#clip-mask-3)" /><path d="M 127 90 Q 96 95 94 95 L 88 87 Q 108 86 127 83 L 140 81 Q 151 78 164 74 Q 179 68 197 83 L 172 85 Q 169 82 161 84 Q 150 85 140 88" fill="#000080" clip-path="url(#clip-mask-4)" /><path d="M 168 114 Q 171 104 174 92 Q 174 88 172 85 L 197 83 Q 201 87 197 92 Q 189 96 181 117" fill="#000080" clip-path="url(#clip-mask-5)" /><path d="M 112 133 Q 108 133 104 134 Q 102 134 101 134 L 100 125 Q 112 123 127 121 L 138 120 Q 151 117 166 114 Q 167 113 168 114 L 181 117 Q 185 120 185 122 Q 185 124 182 125 Q 144 127 120 131" fill="#000080" clip-path="url(#clip-mask-6)" /><path d="M 127 121 Q 127 102 127 90 L 127 83 Q 126 63 123 58 L 134 56 Q 143 62 141 68 Q 140 74 140 81 L 140 88 Q 139 102 138 120" fill="#000080" clip-path="url(#clip-mask-7)" /><path d="M 125 152 Q 125 152 102 175 L 93 183 Q 70 202 53 210 Q 52 210 51 211 Q 25 222 20 221 Q 17 220 19 219 Q 51 202 64 192 Q 65 191 66 191 Q 112 155 112 133 L 120 131 Q 125 133 130 139 Q 132 142 132 145 Q 132 147 131 148" fill="#0000ff" clip-path="url(#clip-mask-8)" /><path d="M 102 175 Q 110 182 109 187 Q 107 194 105 219 Q 105 223 106 224 L 100 253 Q 97 258 94 256 Q 89 253 87 244 Q 85 239 88 233 Q 91 229 92 221 Q 95 215 95 195 Q 95 189 93 183" fill="#0000ff" clip-path="url(#clip-mask-9)" /><path d="M 106 224 Q 109 225 138 206 Q 143 203 143 207 Q 142 208 138 213 Q 109 242 100 253" fill="#0000ff" clip-path="url(#clip-mask-10)" /><path d="M 182 139 L 182 132 Q 182 128 185 128 Q 189 128 195 132 Q 201 137 204 143 Q 206 148 200 150 Q 192 152 174 161 Q 167 164 155 169 L 151 166" fill="#0000ff" clip-path="url(#clip-mask-11)" /><path d="M 155 169 Q 170 182 184 193 Q 200 206 248 217 Q 252 219 252 220 Q 252 222 249 223 Q 239 225 208 228 Q 199 228 193 223 Q 155 186 125 152 L 131 148 Q 141 157 151 166" fill="#0000ff" clip-path="url(#clip-mask-12)" /></svg>