<svg xmlns="http://www.w3.org/2000/svg" xmlns:xlink="http://www.w3.org/1999/xlink" width="270" height="270"><defs><clipPath id="clip-mask-1"><rect x="77" y="20" width="105" height="27"><animate attributeName="x" from="-28" to="77" dur="0.389" begin="0; animate11.end + 1" id="animate1" fill="freeze"/></rect></clipPath><clipPath id="clip-mask-2"><rect x="53" y="78" width="31" height="57"><set attributeName="y" to="21" begin="0; animate11.end + 1" /><animate attributeName="y" from="21" to="78" dur="0.211" begin="animate1.end + 0.5" id="animate2" fill="freeze"/></rect></clipPath><clipPath id="clip-mask-3"><rect x="71" y="59" width="137" height="31"><set attributeName="x" to="-66" begin="0; animate11.end + 1" /><animate attributeName="x" from="-66" to="71" dur="0.507" begin="animate2.end + 0.5" id="animate3" fill="freeze"/></rect></clipPath><clipPath id="clip-mask-4"><rect x="166" y="74" width="44" height="55"><set attributeName="y" to="19" begin="0; animate11.end + 1" /><animate attributeName="y" from="19" to="74" dur="0.204" begin="animate3.end" id="animate4" fill="freeze"/></rect></clipPath><clipPath id="clip-mask-5"><rect x="93" y="47" width="20" height="70"><set attributeName="y" to="-23" begin="0; animate11.end + 1" /><animate attributeName="y" from="-23" to="47" dur="0.259" begin="animate4.end + 0.5" id="animate5" fill="freeze"/></rect></clipPath><clipPath id="clip-mask-6"><rect x="132" y="39" width="27" height="73"><set attributeName="y" to="-34" begin="0; animate11.end + 1" /><animate attributeName="y" from="-34" to="39" dur="0.270" begin="animate5.end + 0.5" id="animate6" fill="freeze"/></rect></clipPath><clipPath id="clip-mask-7"><rect x="84" y="107" width="83" height="21"><set attributeName="x" to="1" begin="0; animate11.end + 1" /><animate attributeName="x" from="1" to="84" dur="0.307" begin="animate6.end + 0.5" id="animate7" fill="freeze"/></rect></clipPath><clipPath id="clip-mask-8"><rect x="88" y="125" width="36" height="60"><set attributeName="y" to="65" begin="0; animate11.end + 1" /><animate attributeName="y" from="65" to="125" dur="0.222" begin="animate7.end + 0.5" id="animate8" fill="freeze"/></rect></clipPath><clipPath id="clip-mask-9"><rect x="93" y="173" width="113" height="76"><set attributeName="x" to="-20" begin="0; animate11.end + 1" /><animate attributeName="x" from="-20" to="93" dur="0.419" begin="animate8.end" id="animate9" fill="freeze"/></rect></clipPath><clipPath id="clip-mask-10"><rect x="41" y="136" width="128" height="95"><set attributeName="y" to="41" begin="0; animate11.end + 1" /><animate attributeName="y" from="41" to="136" dur="0.352" begin="animate9.end + 0.5" id="animate10" fill="freeze"/></rect></clipPath><clipPath id="clip-mask-11"><rect x="11" y="137" width="247" height="44"><set attributeName="x" to="-236" begin="0; animate11.end + 1" /><animate attributeName="x" from="-236" to="11" dur="0.915" begin="animate10.end + 0.5" id="animate11" fill="freeze"/></rect></clipPath></defs><path d="M 0 0 L 270 270 M 270 0 L 0 270 M 135 0 L 135 270 M 0 135 L 270 135" stroke="#CCCCCC" /><path d="M 138 41 Q 109 46 108 47 L 93 47 Q 87 45 83 43 Q 77 39 86 37 Q 104 35 139 28 Q 166 20 171 22 Q 179 24 181 27 Q 182 30 180 32 Q 178 33 165 36 Q 157 37 150 39" fill="#CCCCCC"/><path d="M 84 128 Q 84 129 84 130 Q 84 135 78 129 Q 73 126 72 119 Q 64 98 56 86 Q 53 81 54 80 Q 55 78 58 79 Q 68 79 71 80 L 75 90 Q 77 98 83 116 Q 84 118 84 120" fill="#CCCCCC"/><path d="M 138 76 Q 123 79 111 81 L 101 84 Q 76 88 75 90 L 71 80 Q 84 78 100 75 L 111 73 Q 125 71 138 69 L 151 67 Q 153 66 155 66 Q 172 64 183 61 Q 188 59 193 63 Q 204 72 208 76 L 183 74 Q 176 69 149 74" fill="#CCCCCC"/><path d="M 167 108 Q 171 109 173 105 Q 176 102 184 80 Q 185 77 183 74 L 208 76 Q 210 81 206 84 Q 199 90 196 98 Q 184 121 180 124 Q 175 129 173 127 Q 169 124 166 117" fill="#CCCCCC"/><path d="M 111 81 Q 111 95 112 116 L 103 117 Q 101 96 101 84 L 100 75 Q 99 60 93 47 L 108 47 Q 109 47 109 48 Q 113 51 112 56 Q 111 60 111 73" fill="#CCCCCC"/><path d="M 132 112 Q 135 93 138 76 L 138 69 Q 139 60 140 52 Q 140 48 138 41 L 150 39 Q 152 40 155 42 Q 159 46 158 48 Q 151 63 151 67 L 149 74 Q 145 92 141 111" fill="#CCCCCC"/><path d="M 104 126 Q 86 128 84 128 L 84 120 Q 93 118 103 117 L 112 116 Q 122 114 132 112 L 141 111 Q 157 107 165 108 Q 166 108 165 108 L 166 108 Q 166 108 167 108 L 166 117 Q 142 120 112 125" fill="#CCCCCC"/><path d="M 106 166 Q 104 169 102 173 L 93 185 Q 88 184 88 181 Q 88 178 94 167 L 99 157 Q 107 135 105 128 Q 104 127 104 126 L 112 125 Q 112 125 112 125 Q 122 133 123 136 Q 124 139 121 140 Q 119 143 112 156" fill="#CCCCCC"/><path d="M 140 194 Q 194 217 199 226 Q 206 238 206 243 Q 205 249 200 249 Q 196 249 189 243 Q 154 215 132 202 L 118 195 Q 105 188 93 185 L 102 173 Q 99 179 105 180 Q 114 183 126 188" fill="#CCCCCC"/><path d="M 162 166 L 140 194 L 132 202 Q 109 222 87 227 Q 73 231 57 230 Q 47 229 44 228 Q 41 225 45 225 Q 51 224 56 223 Q 91 220 118 195 L 126 188 Q 131 182 144 161 L 150 151 Q 152 146 152 140 Q 152 136 156 136 Q 162 137 169 148 L 169 160" fill="#CCCCCC"/><path d="M 144 161 Q 127 163 114 164 Q 110 165 106 166 L 94 167 Q 64 171 37 178 Q 25 181 16 172 Q 11 167 18 166 Q 60 161 99 157 L 112 156 Q 122 154 150 151 L 169 148 Q 202 143 225 139 Q 237 137 252 149 Q 258 153 256 157 Q 254 159 248 159 Q 180 159 169 160" fill="#CCCCCC"/><path d="M 138 41 Q 109 46 108 47 L 93 47 Q 87 45 83 43 Q 77 39 86 37 Q 104 35 139 28 Q 166 20 171 22 Q 179 24 181 27 Q 182 30 180 32 Q 178 33 165 36 Q 157 37 150 39" fill="#0000ff" clip-path="url(#clip-mask-1)" /><path d="M 84 128 Q 84 129 84 130 Q 84 135 78 129 Q 73 126 72 119 Q 64 98 56 86 Q 53 81 54 80 Q 55 78 58 79 Q 68 79 71 80 L 75 90 Q 77 98 83 116 Q 84 118 84 120" fill="#0000ff" clip-path="url(#clip-mask-2)" /><path d="M 138 76 Q 123 79 111 81 L 101 84 Q 76 88 75 90 L 71 80 Q 84 78 100 75 L 111 73 Q 125 71 138 69 L 151 67 Q 153 66 155 66 Q 172 64 183 61 Q 188 59 193 63 Q 204 72 208 76 L 183 74 Q 176 69 149 74" fill="#0000ff" clip-path="url(#clip-mask-3)" /><path d="M 167 108 Q 171 109 173 105 Q 176 102 184 80 Q 185 77 183 74 L 208 76 Q 210 81 206 84 Q 199 90 196 98 Q 184 121 180 124 Q 175 129 173 127 Q 169 124 166 117" fill="#0000ff" clip-path="url(#clip-mask-4)" /><path d="M 111 81 Q 111 95 112 116 L 103 117 Q 101 96 101 84 L 100 75 Q 99 60 93 47 L 108 47 Q 109 47 109 48 Q 113 51 112 56 Q 111 60 111 73" fill="#0000ff" clip-path="url(#clip-mask-5)" /><path d="M 132 112 Q 135 93 138 76 L 138 69 Q 139 60 140 52 Q 140 48 138 41 L 150 39 Q 152 40 155 42 Q 159 46 158 48 Q 151 63 151 67 L 149 74 Q 145 92 141 111" fill="#0000ff" clip-path="url(#clip-mask-6)" /><path d="M 104 126 Q 86 128 84 128 L 84 120 Q 93 118 103 117 L 112 116 Q 122 114 132 112 L 141 111 Q 157 107 165 108 Q 166 108 165 108 L 166 108 Q 166 108 167 108 L 166 117 Q 142 120 112 125" fill="#0000ff" clip-path="url(#clip-mask-7)" /><path d="M 106 166 Q 104 169 102 173 L 93 185 Q 88 184 88 181 Q 88 178 94 167 L 99 157 Q 107 135 105 128 Q 104 127 104 126 L 112 125 Q 112 125 112 125 Q 122 133 123 136 Q 124 139 121 140 Q 119 143 112 156" fill="#000080" clip-path="url(#clip-mask-8)" /><path d="M 140 194 Q 194 217 199 226 Q 206 238 206 243 Q 205 249 200 249 Q 196 249 189 243 Q 154 215 132 202 L 118 195 Q 105 188 93 185 L 102 173 Q 99 179 105 180 Q 114 183 126 188" fill="#000080" clip-path="url(#clip-mask-9)" /><path d="M 162 166 L 140 194 L 132 202 Q 109 222 87 227 Q 73 231 57 230 Q 47 229 44 228 Q 41 225 45 225 Q 51 224 56 223 Q 91 220 118 195 L 126 188 Q 131 182 144 161 L 150 151 Q 152 146 152 140 Q 152 136 156 136 Q 162 137 169 148 L 169 160" fill="#000080" clip-path="url(#clip-mask-10)" /><path d="M 144 161 Q 127 163 114 164 Q 110 165 106 166 L 94 167 Q 64 171 37 178 Q 25 181 16 172 Q 11 167 18 166 Q 60 161 99 157 L 112 156 Q 122 154 150 151 L 169 148 Q 202 143 225 139 Q 237 137 252 149 Q 258 153 256 157 Q 254 159 248 159 Q 180 159 169 160" fill="#000080" clip-path="url(#clip-mask-11)" /></svg>