<svg xmlns="http://www.w3.org/2000/svg" xmlns:xlink="http://www.w3.org/1999/xlink" width="270" height="270"><defs><clipPath id="clip-mask-1"><rect x="67" y="31" width="22" height="120"><animate attributeName="y" from="-89" to="31" dur="0.444" begin="0; animate10.end + 1" id="animate1" fill="freeze"/></rect></clipPath><clipPath id="clip-mask-2"><rect x="86" y="21" width="92" height="22"><set attributeName="x" to="-6" begin="0; animate10.end + 1" /><animate attributeName="x" from="-6" to="86" dur="0.341" begin="animate1.end + 0.5" id="animate2" fill="freeze"/></rect></clipPath><clipPath id="clip-mask-3"><rect x="149" y="36" width="26" height="118"><set attributeName="y" to="-82" begin="0; animate10.end + 1" /><animate attributeName="y" from="-82" to="36" dur="0.437" begin="animate2.end" id="animate3" fill="freeze"/></rect></clipPath><clipPath id="clip-mask-4"><rect x="89" y="61" width="50" height="18"><set attributeName="x" to="39" begin="0; animate10.end + 1" /><animate attributeName="x" from="39" to="89" dur="0.185" begin="animate3.end + 0.5" id="animate4" fill="freeze"/></rect></clipPath><clipPath id="clip-mask-5"><rect x="89" y="92" width="49" height="17"><set attributeName="x" to="40" begin="0; animate10.end + 1" /><animate attributeName="x" from="40" to="89" dur="0.181" begin="animate4.end + 0.5" id="animate5" fill="freeze"/></rect></clipPath><clipPath id="clip-mask-6"><rect x="83" y="126" width="67" height="19"><set attributeName="x" to="16" begin="0; animate10.end + 1" /><animate attributeName="x" from="16" to="83" dur="0.248" begin="animate5.end + 0.5" id="animate6" fill="freeze"/></rect></clipPath><clipPath id="clip-mask-7"><rect x="26" y="151" width="82" height="81"><set attributeName="y" to="70" begin="0; animate10.end + 1" /><animate attributeName="y" from="70" to="151" dur="0.300" begin="animate6.end + 0.5" id="animate7" fill="freeze"/></rect></clipPath><clipPath id="clip-mask-8"><rect x="118" y="140" width="26" height="82"><set attributeName="y" to="58" begin="0; animate10.end + 1" /><animate attributeName="y" from="58" to="140" dur="0.304" begin="animate7.end + 0.5" id="animate8" fill="freeze"/></rect></clipPath><clipPath id="clip-mask-9"><rect x="127" y="214" width="116" height="34"><set attributeName="x" to="11" begin="0; animate10.end + 1" /><animate attributeName="x" from="11" to="127" dur="0.430" begin="animate8.end" id="animate9" fill="freeze"/></rect></clipPath><clipPath id="clip-mask-10"><rect x="206" y="173" width="34" height="51"><set attributeName="y" to="224" begin="0; animate10.end + 1" /><animate attributeName="y" from="224" to="173" dur="0.189" begin="animate9.end" id="animate10" fill="freeze"/></rect></clipPath></defs><path d="M 0 0 L 270 270 M 270 0 L 0 270 M 135 0 L 135 270 M 0 135 L 270 135" stroke="#CCCCCC" /><path d="M 83 145 Q 82 148 81 149 Q 78 151 76 147 L 75 147 Q 67 136 71 126 Q 73 121 75 115 Q 84 65 70 36 Q 68 32 72 31 Q 81 31 86 36 L 89 43 Q 89 43 89 43 Q 89 51 89 71 L 89 77 Q 89 87 89 101 L 89 109 Q 89 127 87 136" fill="#CCCCCC"/><path d="M 149 36 Q 146 32 139 34 Q 118 36 89 43 L 86 36 Q 124 32 145 23 Q 152 21 156 23 Q 168 28 176 35 Q 178 38 175 42" fill="#CCCCCC"/><path d="M 150 132 Q 153 120 153 63 Q 153 42 149 36 L 175 42 Q 168 52 169 63 Q 168 104 171 130 Q 172 136 168 143 Q 163 153 159 153 Q 156 154 152 145 Q 150 142 150 139" fill="#CCCCCC"/><path d="M 89 71 Q 97 70 104 68 Q 127 61 130 62 Q 136 63 137 66 Q 139 68 137 69 Q 136 70 130 71 Q 123 73 116 75 Q 96 79 89 77" fill="#CCCCCC"/><path d="M 89 101 Q 102 98 103 98 Q 124 92 129 93 Q 136 95 137 97 Q 138 99 136 101 Q 136 101 136 101 Q 106 109 89 109" fill="#CCCCCC"/><path d="M 99 143 L 88 145 Q 85 145 83 145 L 87 136 Q 108 133 134 128 Q 142 126 147 129 Q 149 130 150 132 L 150 139 Q 140 139 133 140 L 118 141" fill="#CCCCCC"/><path d="M 87 152 L 91 151 Q 94 151 99 155 Q 106 161 107 164 Q 108 167 106 169 Q 102 174 99 179 Q 80 210 58 220 Q 35 232 28 230 Q 26 229 28 227 Q 48 215 56 208 Q 56 207 57 207 Q 86 183 87 156" fill="#CCCCCC"/><path d="M 133 140 Q 144 147 140 157 Q 138 163 136 173 Q 131 200 137 214 L 127 222 Q 121 212 123 166 Q 124 151 118 141" fill="#CCCCCC"/><path d="M 137 214 Q 139 219 146 223 Q 155 226 175 227 Q 193 227 206 224 L 240 222 Q 243 231 235 235 Q 226 240 203 243 Q 139 248 127 222" fill="#CCCCCC"/><path d="M 206 224 Q 216 222 218 217 Q 223 211 226 179 Q 227 173 230 175 Q 231 177 232 181 Q 235 207 240 222" fill="#CCCCCC"/><path d="M 83 145 Q 82 148 81 149 Q 78 151 76 147 L 75 147 Q 67 136 71 126 Q 73 121 75 115 Q 84 65 70 36 Q 68 32 72 31 Q 81 31 86 36 L 89 43 Q 89 43 89 43 Q 89 51 89 71 L 89 77 Q 89 87 89 101 L 89 109 Q 89 127 87 136" fill="#0000ff" clip-path="url(#clip-mask-1)" /><path d="M 149 36 Q 146 32 139 34 Q 118 36 89 43 L 86 36 Q 124 32 145 23 Q 152 21 156 23 Q 168 28 176 35 Q 178 38 175 42" fill="#0000ff" clip-path="url(#clip-mask-2)" /><path d="M 150 132 Q 153 120 153 63 Q 153 42 149 36 L 175 42 Q 168 52 169 63 Q 168 104 171 130 Q 172 136 168 143 Q 163 153 159 153 Q 156 154 152 145 Q 150 142 150 139" fill="#0000ff" clip-path="url(#clip-mask-3)" /><path d="M 89 71 Q 97 70 104 68 Q 127 61 130 62 Q 136 63 137 66 Q 139 68 137 69 Q 136 70 130 71 Q 123 73 116 75 Q 96 79 89 77" fill="#0000ff" clip-path="url(#clip-mask-4)" /><path d="M 89 101 Q 102 98 103 98 Q 124 92 129 93 Q 136 95 137 97 Q 138 99 136 101 Q 136 101 136 101 Q 106 109 89 109" fill="#0000ff" clip-path="url(#clip-mask-5)" /><path d="M 99 143 L 88 145 Q 85 145 83 145 L 87 136 Q 108 133 134 128 Q 142 126 147 129 Q 149 130 150 132 L 150 139 Q 140 139 133 140 L 118 141" fill="#0000ff" clip-path="url(#clip-mask-6)" /><path d="M 87 152 L 91 151 Q 94 151 99 155 Q 106 161 107 164 Q 108 167 106 169 Q 102 174 99 179 Q 80 210 58 220 Q 35 232 28 230 Q 26 229 28 227 Q 48 215 56 208 Q 56 207 57 207 Q 86 183 87 156" fill="#0000ff" clip-path="url(#clip-mask-7)" /><path d="M 133 140 Q 144 147 140 157 Q 138 163 136 173 Q 131 200 137 214 L 127 222 Q 121 212 123 166 Q 124 151 118 141" fill="#0000ff" clip-path="url(#clip-mask-8)" /><path d="M 137 214 Q 139 219 146 223 Q 155 226 175 227 Q 193 227 206 224 L 240 222 Q 243 231 235 235 Q 226 240 203 243 Q 139 248 127 222" fill="#0000ff" clip-path="url(#clip-mask-9)" /><path d="M 206 224 Q 216 222 218 217 Q 223 211 226 179 Q 227 173 230 175 Q 231 177 232 181 Q 235 207 240 222" fill="#0000ff" clip-path="url(#clip-mask-10)" /></svg>