<svg xmlns="http://www.w3.org/2000/svg" xmlns:xlink="http://www.w3.org/1999/xlink" width="270" height="270"><defs><clipPath id="clip-mask-1"><rect x="87" y="21" width="34" height="28"><animate attributeName="x" from="53" to="87" dur="0.126" begin="0; animate11.end + 1" id="animate1" fill="freeze"/></rect></clipPath><clipPath id="clip-mask-2"><rect x="25" y="69" width="102" height="32"><set attributeName="x" to="-77" begin="0; animate11.end + 1" /><animate attributeName="x" from="-77" to="25" dur="0.378" begin="animate1.end + 0.5" id="animate2" fill="freeze"/></rect></clipPath><clipPath id="clip-mask-3"><rect x="64" y="100" width="55" height="19"><set attributeName="x" to="9" begin="0; animate11.end + 1" /><animate attributeName="x" from="9" to="64" dur="0.204" begin="animate2.end + 0.5" id="animate3" fill="freeze"/></rect></clipPath><clipPath id="clip-mask-4"><rect x="65" y="129" width="51" height="18"><set attributeName="x" to="14" begin="0; animate11.end + 1" /><animate attributeName="x" from="14" to="65" dur="0.189" begin="animate3.end + 0.5" id="animate4" fill="freeze"/></rect></clipPath><clipPath id="clip-mask-5"><rect x="46" y="165" width="29" height="58"><set attributeName="y" to="107" begin="0; animate11.end + 1" /><animate attributeName="y" from="107" to="165" dur="0.215" begin="animate4.end + 0.5" id="animate5" fill="freeze"/></rect></clipPath><clipPath id="clip-mask-6"><rect x="62" y="152" width="58" height="22"><set attributeName="x" to="4" begin="0; animate11.end + 1" /><animate attributeName="x" from="4" to="62" dur="0.215" begin="animate5.end + 0.5" id="animate6" fill="freeze"/></rect></clipPath><clipPath id="clip-mask-7"><rect x="98" y="160" width="28" height="32"><set attributeName="y" to="128" begin="0; animate11.end + 1" /><animate attributeName="y" from="128" to="160" dur="0.119" begin="animate6.end" id="animate7" fill="freeze"/></rect></clipPath><clipPath id="clip-mask-8"><rect x="71" y="190" width="44" height="16"><set attributeName="x" to="27" begin="0; animate11.end + 1" /><animate attributeName="x" from="27" to="71" dur="0.163" begin="animate7.end + 0.5" id="animate8" fill="freeze"/></rect></clipPath><clipPath id="clip-mask-9"><rect x="111" y="76" width="52" height="144"><set attributeName="y" to="-68" begin="0; animate11.end + 1" /><animate attributeName="y" from="-68" to="76" dur="0.533" begin="animate8.end + 0.5" id="animate9" fill="freeze"/></rect></clipPath><clipPath id="clip-mask-10"><rect x="177" y="64" width="23" height="129"><set attributeName="y" to="-65" begin="0; animate11.end + 1" /><animate attributeName="y" from="-65" to="64" dur="0.478" begin="animate9.end + 0.5" id="animate10" fill="freeze"/></rect></clipPath><clipPath id="clip-mask-11"><rect x="212" y="16" width="32" height="237"><set attributeName="y" to="-221" begin="0; animate11.end + 1" /><animate attributeName="y" from="-221" to="16" dur="0.878" begin="animate10.end + 0.5" id="animate11" fill="freeze"/></rect></clipPath></defs><path d="M 0 0 L 270 270 M 270 0 L 0 270 M 135 0 L 135 270 M 0 135 L 270 135" stroke="#CCCCCC" /><path d="M 89 30 L 88 27 Q 87 23 89 22 Q 90 21 95 22 Q 116 25 118 31 Q 121 40 120 45 Q 118 49 115 49 Q 110 49 97 36" fill="#CCCCCC"/><path d="M 57 83 L 110 70 Q 116 69 122 71 Q 127 73 126 76 Q 126 78 122 79 Q 85 84 48 98 Q 39 101 29 95 Q 25 92 25 89 Q 26 87 29 87" fill="#CCCCCC"/><path d="M 79 109 L 85 107 Q 102 100 109 101 Q 116 102 118 104 Q 119 106 117 109 Q 116 109 112 111 Q 104 113 96 115 Q 81 119 70 116 Q 64 113 72 110" fill="#CCCCCC"/><path d="M 85 136 L 91 133 Q 98 129 105 129 Q 113 130 115 132 Q 116 134 114 137 Q 113 137 110 138 Q 103 140 97 143 Q 80 147 71 144 Q 65 141 73 138" fill="#CCCCCC"/><path d="M 75 214 L 73 219 Q 72 223 68 218 Q 63 213 62 207 Q 56 185 48 172 Q 46 168 47 166 Q 48 165 51 165 Q 59 166 62 167 L 66 174 Q 67 180 71 198 L 73 206" fill="#CCCCCC"/><path d="M 62 167 Q 88 161 99 153 Q 101 152 103 152 Q 104 152 120 160 L 101 167 Q 99 164 92 167 Q 68 173 66 174" fill="#CCCCCC"/><path d="M 98 190 Q 100 183 101 176 Q 103 169 101 167 L 120 160 Q 126 164 121 171 Q 116 176 111 192" fill="#CCCCCC"/><path d="M 71 198 Q 83 196 97 191 Q 98 190 98 190 L 111 192 Q 115 194 115 196 Q 115 198 112 198 Q 76 204 73 206" fill="#CCCCCC"/><path d="M 137 78 L 142 77 Q 145 76 158 82 Q 163 84 162 89 Q 162 95 162 125 Q 159 175 140 200 Q 124 219 115 220 Q 111 220 112 218 Q 113 217 116 213 Q 135 192 140 176 Q 146 160 147 147 Q 151 99 141 84" fill="#CCCCCC"/><path d="M 177 67 L 180 65 Q 182 64 186 65 Q 190 67 195 70 Q 200 73 198 79 Q 194 113 197 163 Q 199 178 191 191 Q 189 193 186 191 Q 177 179 180 167 Q 190 98 178 71" fill="#CCCCCC"/><path d="M 212 22 L 213 21 Q 219 16 226 21 Q 241 30 243 32 Q 244 36 242 41 Q 235 67 240 228 Q 240 236 238 244 Q 235 249 233 251 Q 231 253 229 251 Q 225 250 223 242 Q 217 228 222 207 Q 228 178 224 55 Q 223 40 214 26" fill="#CCCCCC"/><path d="M 89 30 L 88 27 Q 87 23 89 22 Q 90 21 95 22 Q 116 25 118 31 Q 121 40 120 45 Q 118 49 115 49 Q 110 49 97 36" fill="#0000ff" clip-path="url(#clip-mask-1)" /><path d="M 57 83 L 110 70 Q 116 69 122 71 Q 127 73 126 76 Q 126 78 122 79 Q 85 84 48 98 Q 39 101 29 95 Q 25 92 25 89 Q 26 87 29 87" fill="#0000ff" clip-path="url(#clip-mask-2)" /><path d="M 79 109 L 85 107 Q 102 100 109 101 Q 116 102 118 104 Q 119 106 117 109 Q 116 109 112 111 Q 104 113 96 115 Q 81 119 70 116 Q 64 113 72 110" fill="#0000ff" clip-path="url(#clip-mask-3)" /><path d="M 85 136 L 91 133 Q 98 129 105 129 Q 113 130 115 132 Q 116 134 114 137 Q 113 137 110 138 Q 103 140 97 143 Q 80 147 71 144 Q 65 141 73 138" fill="#0000ff" clip-path="url(#clip-mask-4)" /><path d="M 75 214 L 73 219 Q 72 223 68 218 Q 63 213 62 207 Q 56 185 48 172 Q 46 168 47 166 Q 48 165 51 165 Q 59 166 62 167 L 66 174 Q 67 180 71 198 L 73 206" fill="#0000ff" clip-path="url(#clip-mask-5)" /><path d="M 62 167 Q 88 161 99 153 Q 101 152 103 152 Q 104 152 120 160 L 101 167 Q 99 164 92 167 Q 68 173 66 174" fill="#0000ff" clip-path="url(#clip-mask-6)" /><path d="M 98 190 Q 100 183 101 176 Q 103 169 101 167 L 120 160 Q 126 164 121 171 Q 116 176 111 192" fill="#0000ff" clip-path="url(#clip-mask-7)" /><path d="M 71 198 Q 83 196 97 191 Q 98 190 98 190 L 111 192 Q 115 194 115 196 Q 115 198 112 198 Q 76 204 73 206" fill="#0000ff" clip-path="url(#clip-mask-8)" /><path d="M 137 78 L 142 77 Q 145 76 158 82 Q 163 84 162 89 Q 162 95 162 125 Q 159 175 140 200 Q 124 219 115 220 Q 111 220 112 218 Q 113 217 116 213 Q 135 192 140 176 Q 146 160 147 147 Q 151 99 141 84" fill="#000080" clip-path="url(#clip-mask-9)" /><path d="M 177 67 L 180 65 Q 182 64 186 65 Q 190 67 195 70 Q 200 73 198 79 Q 194 113 197 163 Q 199 178 191 191 Q 189 193 186 191 Q 177 179 180 167 Q 190 98 178 71" fill="#000080" clip-path="url(#clip-mask-10)" /><path d="M 212 22 L 213 21 Q 219 16 226 21 Q 241 30 243 32 Q 244 36 242 41 Q 235 67 240 228 Q 240 236 238 244 Q 235 249 233 251 Q 231 253 229 251 Q 225 250 223 242 Q 217 228 222 207 Q 228 178 224 55 Q 223 40 214 26" fill="#000080" clip-path="url(#clip-mask-11)" /></svg>