<svg xmlns="http://www.w3.org/2000/svg" xmlns:xlink="http://www.w3.org/1999/xlink" width="270" height="270"><defs><clipPath id="clip-mask-1"><rect x="73" y="36" width="37" height="32"><animate attributeName="x" from="36" to="73" dur="0.137" begin="0; animate18.end + 1" id="animate1" fill="freeze"/></rect></clipPath><clipPath id="clip-mask-2"><rect x="22" y="89" width="88" height="29"><set attributeName="x" to="-66" begin="0; animate18.end + 1" /><animate attributeName="x" from="-66" to="22" dur="0.326" begin="animate1.end + 0.5" id="animate2" fill="freeze"/></rect></clipPath><clipPath id="clip-mask-3"><rect x="48" y="119" width="54" height="19"><set attributeName="x" to="-6" begin="0; animate18.end + 1" /><animate attributeName="x" from="-6" to="48" dur="0.200" begin="animate2.end + 0.5" id="animate3" fill="freeze"/></rect></clipPath><clipPath id="clip-mask-4"><rect x="49" y="146" width="51" height="17"><set attributeName="x" to="-2" begin="0; animate18.end + 1" /><animate attributeName="x" from="-2" to="49" dur="0.189" begin="animate3.end + 0.5" id="animate4" fill="freeze"/></rect></clipPath><clipPath id="clip-mask-5"><rect x="39" y="182" width="24" height="58"><set attributeName="y" to="124" begin="0; animate18.end + 1" /><animate attributeName="y" from="124" to="182" dur="0.215" begin="animate4.end + 0.5" id="animate5" fill="freeze"/></rect></clipPath><clipPath id="clip-mask-6"><rect x="54" y="172" width="56" height="21"><set attributeName="x" to="-2" begin="0; animate18.end + 1" /><animate attributeName="x" from="-2" to="54" dur="0.207" begin="animate5.end + 0.5" id="animate6" fill="freeze"/></rect></clipPath><clipPath id="clip-mask-7"><rect x="82" y="187" width="23" height="26"><set attributeName="y" to="161" begin="0; animate18.end + 1" /><animate attributeName="y" from="161" to="187" dur="0.096" begin="animate6.end" id="animate7" fill="freeze"/></rect></clipPath><clipPath id="clip-mask-8"><rect x="61" y="213" width="39" height="13"><set attributeName="x" to="22" begin="0; animate18.end + 1" /><animate attributeName="x" from="22" to="61" dur="0.144" begin="animate7.end + 0.5" id="animate8" fill="freeze"/></rect></clipPath><clipPath id="clip-mask-9"><rect x="135" y="48" width="26" height="59"><set attributeName="y" to="-11" begin="0; animate18.end + 1" /><animate attributeName="y" from="-11" to="48" dur="0.219" begin="animate8.end + 0.5" id="animate9" fill="freeze"/></rect></clipPath><clipPath id="clip-mask-10"><rect x="112" y="75" width="61" height="20"><set attributeName="x" to="51" begin="0; animate18.end + 1" /><animate attributeName="x" from="51" to="112" dur="0.226" begin="animate9.end + 0.5" id="animate10" fill="freeze"/></rect></clipPath><clipPath id="clip-mask-11"><rect x="186" y="24" width="36" height="85"><set attributeName="y" to="-61" begin="0; animate18.end + 1" /><animate attributeName="y" from="-61" to="24" dur="0.315" begin="animate10.end + 0.5" id="animate11" fill="freeze"/></rect></clipPath><clipPath id="clip-mask-12"><rect x="175" y="62" width="69" height="21"><set attributeName="x" to="106" begin="0; animate18.end + 1" /><animate attributeName="x" from="106" to="175" dur="0.256" begin="animate11.end + 0.5" id="animate12" fill="freeze"/></rect></clipPath><clipPath id="clip-mask-13"><rect x="108" y="121" width="139" height="31"><set attributeName="x" to="-31" begin="0; animate18.end + 1" /><animate attributeName="x" from="-31" to="108" dur="0.515" begin="animate12.end + 0.5" id="animate13" fill="freeze"/></rect></clipPath><clipPath id="clip-mask-14"><rect x="89" y="113" width="90" height="129"><set attributeName="y" to="-16" begin="0; animate18.end + 1" /><animate attributeName="y" from="-16" to="113" dur="0.478" begin="animate13.end + 0.5" id="animate14" fill="freeze"/></rect></clipPath><clipPath id="clip-mask-15"><rect x="139" y="182" width="20" height="63"><set attributeName="y" to="119" begin="0; animate18.end + 1" /><animate attributeName="y" from="119" to="182" dur="0.233" begin="animate14.end + 0.5" id="animate15" fill="freeze"/></rect></clipPath><clipPath id="clip-mask-16"><rect x="152" y="170" width="80" height="23"><set attributeName="x" to="72" begin="0; animate18.end + 1" /><animate attributeName="x" from="72" to="152" dur="0.296" begin="animate15.end + 0.5" id="animate16" fill="freeze"/></rect></clipPath><clipPath id="clip-mask-17"><rect x="199" y="185" width="29" height="33"><set attributeName="y" to="152" begin="0; animate18.end + 1" /><animate attributeName="y" from="152" to="185" dur="0.122" begin="animate16.end" id="animate17" fill="freeze"/></rect></clipPath><clipPath id="clip-mask-18"><rect x="158" y="218" width="63" height="17"><set attributeName="x" to="95" begin="0; animate18.end + 1" /><animate attributeName="x" from="95" to="158" dur="0.233" begin="animate17.end + 0.5" id="animate18" fill="freeze"/></rect></clipPath></defs><path d="M 0 0 L 270 270 M 270 0 L 0 270 M 135 0 L 135 270 M 0 135 L 270 135" stroke="#CCCCCC" /><path d="M 74 45 L 73 43 Q 73 39 74 38 Q 78 36 97 43 Q 106 46 107 51 Q 110 59 109 63 Q 107 67 104 67 Q 100 68 96 64 Q 89 57 82 51" fill="#CCCCCC"/><path d="M 49 101 L 93 90 Q 98 89 106 91 Q 110 93 110 97 Q 110 98 106 99 Q 74 104 52 113 Q 36 118 27 111 Q 22 109 23 106 Q 24 104 27 103" fill="#CCCCCC"/><path d="M 63 128 L 69 126 Q 87 119 93 120 Q 99 121 101 123 Q 102 125 100 127 Q 100 128 95 129 Q 87 131 79 133 Q 65 138 55 134 Q 48 131 56 129" fill="#CCCCCC"/><path d="M 63 153 L 69 151 Q 87 146 91 146 Q 97 147 99 149 Q 100 151 98 153 Q 97 153 93 155 Q 85 157 77 159 Q 64 163 55 159 Q 49 156 56 154" fill="#CCCCCC"/><path d="M 63 233 L 62 237 Q 61 240 57 235 Q 53 231 52 224 Q 48 202 41 189 Q 39 185 40 184 Q 41 182 44 183 Q 51 184 54 186 L 57 193 Q 58 199 61 219 L 62 226" fill="#CCCCCC"/><path d="M 54 186 Q 74 181 84 174 Q 87 172 89 172 Q 89 172 105 180 Q 110 184 105 190 L 86 187 Q 85 185 79 186 Q 58 192 57 193" fill="#CCCCCC"/><path d="M 105 190 Q 99 196 95 213 L 82 213 Q 87 188 86 187" fill="#CCCCCC"/><path d="M 61 219 Q 69 217 82 213 L 95 213 Q 100 216 100 218 Q 100 220 98 220 Q 77 223 67 226 Q 64 226 62 226" fill="#CCCCCC"/><path d="M 160 88 L 161 94 Q 161 99 160 104 Q 159 107 155 104 Q 150 99 150 87 L 148 79 Q 142 61 139 56 Q 135 51 140 49 Q 145 48 155 53 Q 160 55 159 59 Q 159 67 160 77 L 160 84" fill="#CCCCCC"/><path d="M 150 87 Q 140 90 130 93 Q 127 95 123 93 Q 117 91 114 88 Q 112 86 113 84 Q 113 83 115 83 Q 119 82 127 82 Q 139 80 148 79 L 160 77 Q 165 75 169 75 Q 173 75 173 76 Q 173 78 172 79 Q 168 81 165 82 Q 162 83 160 84" fill="#CCCCCC"/><path d="M 195 103 L 191 107 Q 187 109 186 106 Q 186 99 191 83 L 194 73 Q 201 42 197 31 Q 195 29 197 27 Q 202 24 206 27 Q 216 31 219 35 Q 222 38 218 42 Q 211 56 208 70 L 203 82" fill="#CCCCCC"/><path d="M 191 83 Q 187 83 180 79 Q 175 76 182 75 Q 188 74 194 73 L 208 70 Q 208 70 208 70 Q 229 62 241 71 Q 244 74 243 77 Q 242 79 238 79 Q 220 77 203 82" fill="#CCCCCC"/><path d="M 151 146 Q 139 148 128 151 Q 124 152 120 151 Q 115 150 112 147 Q 108 143 113 143 Q 134 139 154 136 L 171 133 Q 172 133 173 133 Q 204 127 222 123 Q 230 121 243 129 Q 247 132 245 135 Q 244 137 240 137 Q 178 137 167 143" fill="#CCCCCC"/><path d="M 139 193 Q 139 194 138 195 Q 115 231 95 239 Q 89 242 93 237 Q 138 180 151 146 L 154 136 Q 157 126 157 119 Q 156 116 158 115 Q 161 113 169 114 Q 176 114 177 117 Q 179 119 177 123 Q 174 127 171 133 L 167 143 Q 165 146 163 151 Q 156 166 146 182" fill="#CCCCCC"/><path d="M 159 238 L 158 241 Q 156 245 152 239 Q 148 234 147 227 Q 144 207 139 193 L 146 182 Q 150 184 152 185 L 154 193 Q 154 201 158 226 L 159 234" fill="#CCCCCC"/><path d="M 203 185 Q 202 184 197 185 Q 156 193 154 193 L 152 185 Q 182 180 201 172 Q 206 170 211 172 Q 224 178 228 182 Q 232 186 228 191" fill="#CCCCCC"/><path d="M 199 218 Q 203 207 205 192 Q 206 188 203 185 L 228 191 Q 219 198 212 218" fill="#CCCCCC"/><path d="M 158 226 Q 176 223 199 218 L 212 218 L 213 218 Q 221 224 220 226 Q 220 228 217 228 Q 181 231 164 234 Q 161 235 159 234" fill="#CCCCCC"/><path d="M 74 45 L 73 43 Q 73 39 74 38 Q 78 36 97 43 Q 106 46 107 51 Q 110 59 109 63 Q 107 67 104 67 Q 100 68 96 64 Q 89 57 82 51" fill="#0000ff" clip-path="url(#clip-mask-1)" /><path d="M 49 101 L 93 90 Q 98 89 106 91 Q 110 93 110 97 Q 110 98 106 99 Q 74 104 52 113 Q 36 118 27 111 Q 22 109 23 106 Q 24 104 27 103" fill="#0000ff" clip-path="url(#clip-mask-2)" /><path d="M 63 128 L 69 126 Q 87 119 93 120 Q 99 121 101 123 Q 102 125 100 127 Q 100 128 95 129 Q 87 131 79 133 Q 65 138 55 134 Q 48 131 56 129" fill="#0000ff" clip-path="url(#clip-mask-3)" /><path d="M 63 153 L 69 151 Q 87 146 91 146 Q 97 147 99 149 Q 100 151 98 153 Q 97 153 93 155 Q 85 157 77 159 Q 64 163 55 159 Q 49 156 56 154" fill="#0000ff" clip-path="url(#clip-mask-4)" /><path d="M 63 233 L 62 237 Q 61 240 57 235 Q 53 231 52 224 Q 48 202 41 189 Q 39 185 40 184 Q 41 182 44 183 Q 51 184 54 186 L 57 193 Q 58 199 61 219 L 62 226" fill="#0000ff" clip-path="url(#clip-mask-5)" /><path d="M 54 186 Q 74 181 84 174 Q 87 172 89 172 Q 89 172 105 180 Q 110 184 105 190 L 86 187 Q 85 185 79 186 Q 58 192 57 193" fill="#0000ff" clip-path="url(#clip-mask-6)" /><path d="M 105 190 Q 99 196 95 213 L 82 213 Q 87 188 86 187" fill="#0000ff" clip-path="url(#clip-mask-7)" /><path d="M 61 219 Q 69 217 82 213 L 95 213 Q 100 216 100 218 Q 100 220 98 220 Q 77 223 67 226 Q 64 226 62 226" fill="#0000ff" clip-path="url(#clip-mask-8)" /><path d="M 160 88 L 161 94 Q 161 99 160 104 Q 159 107 155 104 Q 150 99 150 87 L 148 79 Q 142 61 139 56 Q 135 51 140 49 Q 145 48 155 53 Q 160 55 159 59 Q 159 67 160 77 L 160 84" fill="#000080" clip-path="url(#clip-mask-9)" /><path d="M 150 87 Q 140 90 130 93 Q 127 95 123 93 Q 117 91 114 88 Q 112 86 113 84 Q 113 83 115 83 Q 119 82 127 82 Q 139 80 148 79 L 160 77 Q 165 75 169 75 Q 173 75 173 76 Q 173 78 172 79 Q 168 81 165 82 Q 162 83 160 84" fill="#000080" clip-path="url(#clip-mask-10)" /><path d="M 195 103 L 191 107 Q 187 109 186 106 Q 186 99 191 83 L 194 73 Q 201 42 197 31 Q 195 29 197 27 Q 202 24 206 27 Q 216 31 219 35 Q 222 38 218 42 Q 211 56 208 70 L 203 82" fill="#000080" clip-path="url(#clip-mask-11)" /><path d="M 191 83 Q 187 83 180 79 Q 175 76 182 75 Q 188 74 194 73 L 208 70 Q 208 70 208 70 Q 229 62 241 71 Q 244 74 243 77 Q 242 79 238 79 Q 220 77 203 82" fill="#000080" clip-path="url(#clip-mask-12)" /><path d="M 151 146 Q 139 148 128 151 Q 124 152 120 151 Q 115 150 112 147 Q 108 143 113 143 Q 134 139 154 136 L 171 133 Q 172 133 173 133 Q 204 127 222 123 Q 230 121 243 129 Q 247 132 245 135 Q 244 137 240 137 Q 178 137 167 143" fill="#000080" clip-path="url(#clip-mask-13)" /><path d="M 139 193 Q 139 194 138 195 Q 115 231 95 239 Q 89 242 93 237 Q 138 180 151 146 L 154 136 Q 157 126 157 119 Q 156 116 158 115 Q 161 113 169 114 Q 176 114 177 117 Q 179 119 177 123 Q 174 127 171 133 L 167 143 Q 165 146 163 151 Q 156 166 146 182" fill="#000080" clip-path="url(#clip-mask-14)" /><path d="M 159 238 L 158 241 Q 156 245 152 239 Q 148 234 147 227 Q 144 207 139 193 L 146 182 Q 150 184 152 185 L 154 193 Q 154 201 158 226 L 159 234" fill="#000080" clip-path="url(#clip-mask-15)" /><path d="M 203 185 Q 202 184 197 185 Q 156 193 154 193 L 152 185 Q 182 180 201 172 Q 206 170 211 172 Q 224 178 228 182 Q 232 186 228 191" fill="#000080" clip-path="url(#clip-mask-16)" /><path d="M 199 218 Q 203 207 205 192 Q 206 188 203 185 L 228 191 Q 219 198 212 218" fill="#000080" clip-path="url(#clip-mask-17)" /><path d="M 158 226 Q 176 223 199 218 L 212 218 L 213 218 Q 221 224 220 226 Q 220 228 217 228 Q 181 231 164 234 Q 161 235 159 234" fill="#000080" clip-path="url(#clip-mask-18)" /></svg>