<svg xmlns="http://www.w3.org/2000/svg" xmlns:xlink="http://www.w3.org/1999/xlink" width="270" height="270"><defs><clipPath id="clip-mask-1"><rect x="72" y="18" width="34" height="30"><animate attributeName="y" from="-12" to="18" dur="0.111" begin="0; animate24.end + 1" id="animate1" fill="freeze"/></rect></clipPath><clipPath id="clip-mask-2"><rect x="54" y="39" width="32" height="68"><set attributeName="y" to="-29" begin="0; animate24.end + 1" /><animate attributeName="y" from="-29" to="39" dur="0.252" begin="animate1.end + 0.5" id="animate2" fill="freeze"/></rect></clipPath><clipPath id="clip-mask-3"><rect x="78" y="56" width="25" height="11"><set attributeName="x" to="53" begin="0; animate24.end + 1" /><animate attributeName="x" from="53" to="78" dur="0.093" begin="animate2.end + 0.5" id="animate3" fill="freeze"/></rect></clipPath><clipPath id="clip-mask-4"><rect x="81" y="77" width="24" height="11"><set attributeName="x" to="57" begin="0; animate24.end + 1" /><animate attributeName="x" from="57" to="81" dur="0.089" begin="animate3.end + 0.5" id="animate4" fill="freeze"/></rect></clipPath><clipPath id="clip-mask-5"><rect x="125" y="25" width="32" height="12"><set attributeName="x" to="93" begin="0; animate24.end + 1" /><animate attributeName="x" from="93" to="125" dur="0.119" begin="animate4.end + 0.5" id="animate5" fill="freeze"/></rect></clipPath><clipPath id="clip-mask-6"><rect x="111" y="10" width="19" height="53"><set attributeName="y" to="-43" begin="0; animate24.end + 1" /><animate attributeName="y" from="-43" to="10" dur="0.196" begin="animate5.end + 0.5" id="animate6" fill="freeze"/></rect></clipPath><clipPath id="clip-mask-7"><rect x="120" y="48" width="30" height="13"><set attributeName="x" to="90" begin="0; animate24.end + 1" /><animate attributeName="x" from="90" to="120" dur="0.111" begin="animate6.end" id="animate7" fill="freeze"/></rect></clipPath><clipPath id="clip-mask-8"><rect x="129" y="57" width="19" height="44"><set attributeName="y" to="13" begin="0; animate24.end + 1" /><animate attributeName="y" from="13" to="57" dur="0.163" begin="animate7.end" id="animate8" fill="freeze"/></rect></clipPath><clipPath id="clip-mask-9"><rect x="110" y="68" width="12" height="35"><set attributeName="y" to="33" begin="0; animate24.end + 1" /><animate attributeName="y" from="33" to="68" dur="0.130" begin="animate8.end + 0.5" id="animate9" fill="freeze"/></rect></clipPath><clipPath id="clip-mask-10"><rect x="161" y="20" width="48" height="19"><set attributeName="x" to="113" begin="0; animate24.end + 1" /><animate attributeName="x" from="113" to="161" dur="0.178" begin="animate9.end + 0.5" id="animate10" fill="freeze"/></rect></clipPath><clipPath id="clip-mask-11"><rect x="175" y="33" width="31" height="62"><set attributeName="y" to="-29" begin="0; animate24.end + 1" /><animate attributeName="y" from="-29" to="33" dur="0.230" begin="animate10.end" id="animate11" fill="freeze"/></rect></clipPath><clipPath id="clip-mask-12"><rect x="156" y="49" width="28" height="11"><set attributeName="x" to="128" begin="0; animate24.end + 1" /><animate attributeName="x" from="128" to="156" dur="0.104" begin="animate11.end + 0.5" id="animate12" fill="freeze"/></rect></clipPath><clipPath id="clip-mask-13"><rect x="151" y="71" width="29" height="11"><set attributeName="x" to="122" begin="0; animate24.end + 1" /><animate attributeName="x" from="122" to="151" dur="0.107" begin="animate12.end + 0.5" id="animate13" fill="freeze"/></rect></clipPath><clipPath id="clip-mask-14"><rect x="25" y="86" width="214" height="36"><set attributeName="x" to="-189" begin="0; animate24.end + 1" /><animate attributeName="x" from="-189" to="25" dur="0.793" begin="animate13.end + 0.5" id="animate14" fill="freeze"/></rect></clipPath><clipPath id="clip-mask-15"><rect x="11" y="112" width="90" height="78"><set attributeName="y" to="34" begin="0; animate24.end + 1" /><animate attributeName="y" from="34" to="112" dur="0.289" begin="animate14.end + 0.5" id="animate15" fill="freeze"/></rect></clipPath><clipPath id="clip-mask-16"><rect x="145" y="106" width="113" height="65"><set attributeName="x" to="32" begin="0; animate24.end + 1" /><animate attributeName="x" from="32" to="145" dur="0.419" begin="animate15.end + 0.5" id="animate16" fill="freeze"/></rect></clipPath><clipPath id="clip-mask-17"><rect x="116" y="113" width="21" height="17"><set attributeName="x" to="95" begin="0; animate24.end + 1" /><animate attributeName="x" from="95" to="116" dur="0.078" begin="animate16.end + 0.5" id="animate17" fill="freeze"/></rect></clipPath><clipPath id="clip-mask-18"><rect x="78" y="132" width="91" height="24"><set attributeName="x" to="-13" begin="0; animate24.end + 1" /><animate attributeName="x" from="-13" to="78" dur="0.337" begin="animate17.end + 0.5" id="animate18" fill="freeze"/></rect></clipPath><clipPath id="clip-mask-19"><rect x="88" y="156" width="71" height="17"><set attributeName="x" to="17" begin="0; animate24.end + 1" /><animate attributeName="x" from="17" to="88" dur="0.263" begin="animate18.end + 0.5" id="animate19" fill="freeze"/></rect></clipPath><clipPath id="clip-mask-20"><rect x="88" y="176" width="71" height="16"><set attributeName="x" to="17" begin="0; animate24.end + 1" /><animate attributeName="x" from="17" to="88" dur="0.263" begin="animate19.end + 0.5" id="animate20" fill="freeze"/></rect></clipPath><clipPath id="clip-mask-21"><rect x="78" y="202" width="26" height="57"><set attributeName="y" to="145" begin="0; animate24.end + 1" /><animate attributeName="y" from="145" to="202" dur="0.211" begin="animate20.end + 0.5" id="animate21" fill="freeze"/></rect></clipPath><clipPath id="clip-mask-22"><rect x="90" y="189" width="86" height="23"><set attributeName="x" to="4" begin="0; animate24.end + 1" /><animate attributeName="x" from="4" to="90" dur="0.319" begin="animate21.end + 0.5" id="animate22" fill="freeze"/></rect></clipPath><clipPath id="clip-mask-23"><rect x="148" y="204" width="31" height="27"><set attributeName="y" to="177" begin="0; animate24.end + 1" /><animate attributeName="y" from="177" to="204" dur="0.100" begin="animate22.end" id="animate23" fill="freeze"/></rect></clipPath><clipPath id="clip-mask-24"><rect x="102" y="230" width="68" height="15"><set attributeName="x" to="34" begin="0; animate24.end + 1" /><animate attributeName="x" from="34" to="102" dur="0.252" begin="animate23.end + 0.5" id="animate24" fill="freeze"/></rect></clipPath></defs><path d="M 0 0 L 270 270 M 270 0 L 0 270 M 135 0 L 135 270 M 0 135 L 270 135" stroke="#CCCCCC" /><path d="M 72 44 Q 88 28 88 21 Q 88 19 90 18 Q 93 18 98 21 Q 102 24 105 28 Q 106 31 102 33 Q 97 35 85 43 Q 81 45 76 48" fill="#CCCCCC"/><path d="M 76 107 Q 68 71 65 62 Q 62 54 56 46 Q 54 43 56 41 Q 57 39 61 40 Q 67 41 72 44 L 76 48 Q 76 49 76 52 Q 76 54 78 62 L 78 67 Q 78 68 79 69 Q 79 75 81 82 L 82 88 Q 83 96 86 106" fill="#CCCCCC"/><path d="M 78 62 Q 87 56 94 57 Q 99 57 101 60 Q 103 62 99 63 L 78 67" fill="#CCCCCC"/><path d="M 81 82 Q 87 77 96 77 Q 101 78 103 81 Q 105 83 101 84 Q 92 85 82 88" fill="#CCCCCC"/><path d="M 126 31 Q 139 25 148 27 Q 153 28 155 31 Q 157 34 152 34 Q 127 37 125 37" fill="#CCCCCC"/><path d="M 120 61 Q 118 63 116 63 Q 115 62 114 60 Q 111 55 113 51 Q 114 50 114 49 Q 118 21 112 14 Q 111 13 112 12 Q 112 10 115 10 Q 120 11 125 14 Q 129 16 130 19 Q 130 21 129 22 Q 128 24 126 31 L 125 37 Q 122 50 123 52" fill="#CCCCCC"/><path d="M 136 57 Q 134 56 129 57 Q 123 58 120 61 L 123 52 Q 124 54 129 51 Q 137 48 139 48 Q 141 49 146 51 Q 150 54 150 55 Q 150 57 148 59" fill="#CCCCCC"/><path d="M 135 101 Q 134 101 133 97 Q 129 89 133 84 Q 134 82 136 63 Q 137 58 136 57 L 148 59 Q 147 61 144 78 Q 141 96 137 100" fill="#CCCCCC"/><path d="M 114 103 Q 110 96 110 94 Q 111 85 111 76 Q 110 69 110 68 Q 112 68 114 68 Q 116 70 119 71 Q 122 73 121 77 Q 117 101 116 102" fill="#CCCCCC"/><path d="M 185 33 Q 184 32 181 32 Q 167 34 164 32 Q 161 30 161 29 Q 161 26 164 26 Q 174 26 186 22 Q 192 20 196 23 Q 205 28 207 32 Q 209 35 206 39" fill="#CCCCCC"/><path d="M 175 95 Q 177 87 179 80 L 180 72 Q 182 65 183 59 L 184 51 Q 185 45 186 39 Q 187 34 185 33 L 206 39 Q 198 45 186 94" fill="#CCCCCC"/><path d="M 183 59 Q 174 59 164 60 Q 161 60 160 59 Q 156 56 160 55 Q 160 55 160 55 Q 177 49 184 51" fill="#CCCCCC"/><path d="M 179 80 Q 170 81 159 82 Q 156 82 155 81 Q 151 77 154 77 Q 160 75 166 73 Q 175 71 180 72" fill="#CCCCCC"/><path d="M 116 108 L 92 112 L 82 114 Q 63 117 46 121 Q 42 122 37 121 Q 32 119 29 116 Q 25 111 30 111 Q 54 109 76 107 L 86 106 Q 100 104 114 103 L 116 102 Q 116 102 116 103 Q 129 101 135 101 L 137 100 Q 157 97 175 95 L 186 94 Q 197 91 206 90 Q 221 86 235 97 Q 239 101 237 104 Q 236 106 231 106 Q 162 106 153 106 L 145 107" fill="#CCCCCC"/><path d="M 92 112 Q 93 113 94 113 Q 100 115 100 118 Q 101 120 99 123 Q 84 138 82 142 Q 43 185 17 189 Q 11 190 16 186 Q 76 140 82 114" fill="#CCCCCC"/><path d="M 153 106 Q 187 132 200 139 Q 209 145 255 160 Q 258 161 258 163 Q 257 164 252 165 Q 227 171 209 168 Q 197 165 148 110 Q 146 108 145 107" fill="#CCCCCC"/><path d="M 116 117 L 116 116 Q 116 113 118 113 Q 129 113 135 120 Q 137 124 137 126 Q 136 130 133 130 Q 129 130 117 119" fill="#CCCCCC"/><path d="M 100 145 L 127 140 Q 154 132 160 133 Q 166 135 168 138 Q 169 140 167 142 Q 165 143 154 145 Q 129 150 105 154 Q 93 156 83 151 Q 78 147 86 146" fill="#CCCCCC"/><path d="M 111 163 L 133 158 Q 143 156 149 157 Q 155 159 157 162 Q 159 166 153 166 Q 132 168 102 172 Q 96 173 93 171 Q 88 167 93 166" fill="#CCCCCC"/><path d="M 146 176 L 149 177 Q 155 178 157 182 Q 159 185 153 186 Q 131 188 102 191 Q 96 192 93 190 Q 88 186 93 185" fill="#CCCCCC"/><path d="M 104 251 L 103 254 Q 101 259 96 253 Q 93 249 92 242 Q 87 222 80 209 Q 78 205 79 204 Q 80 202 83 203 Q 87 203 90 204 L 98 212 Q 98 217 102 235 L 103 244" fill="#CCCCCC"/><path d="M 90 204 Q 121 201 143 195 Q 158 189 176 204 L 150 206 Q 148 204 143 205 L 98 212" fill="#CCCCCC"/><path d="M 148 230 Q 153 209 150 206 L 176 204 Q 179 209 175 213 Q 169 216 163 231" fill="#CCCCCC"/><path d="M 102 235 Q 122 234 148 230 L 163 231 Q 170 236 170 238 Q 169 240 167 241 Q 127 241 108 244 Q 106 245 103 244" fill="#CCCCCC"/><path d="M 72 44 Q 88 28 88 21 Q 88 19 90 18 Q 93 18 98 21 Q 102 24 105 28 Q 106 31 102 33 Q 97 35 85 43 Q 81 45 76 48" fill="#000080" clip-path="url(#clip-mask-1)" /><path d="M 76 107 Q 68 71 65 62 Q 62 54 56 46 Q 54 43 56 41 Q 57 39 61 40 Q 67 41 72 44 L 76 48 Q 76 49 76 52 Q 76 54 78 62 L 78 67 Q 78 68 79 69 Q 79 75 81 82 L 82 88 Q 83 96 86 106" fill="#000080" clip-path="url(#clip-mask-2)" /><path d="M 78 62 Q 87 56 94 57 Q 99 57 101 60 Q 103 62 99 63 L 78 67" fill="#000080" clip-path="url(#clip-mask-3)" /><path d="M 81 82 Q 87 77 96 77 Q 101 78 103 81 Q 105 83 101 84 Q 92 85 82 88" fill="#000080" clip-path="url(#clip-mask-4)" /><path d="M 126 31 Q 139 25 148 27 Q 153 28 155 31 Q 157 34 152 34 Q 127 37 125 37" fill="#000080" clip-path="url(#clip-mask-5)" /><path d="M 120 61 Q 118 63 116 63 Q 115 62 114 60 Q 111 55 113 51 Q 114 50 114 49 Q 118 21 112 14 Q 111 13 112 12 Q 112 10 115 10 Q 120 11 125 14 Q 129 16 130 19 Q 130 21 129 22 Q 128 24 126 31 L 125 37 Q 122 50 123 52" fill="#000080" clip-path="url(#clip-mask-6)" /><path d="M 136 57 Q 134 56 129 57 Q 123 58 120 61 L 123 52 Q 124 54 129 51 Q 137 48 139 48 Q 141 49 146 51 Q 150 54 150 55 Q 150 57 148 59" fill="#000080" clip-path="url(#clip-mask-7)" /><path d="M 135 101 Q 134 101 133 97 Q 129 89 133 84 Q 134 82 136 63 Q 137 58 136 57 L 148 59 Q 147 61 144 78 Q 141 96 137 100" fill="#000080" clip-path="url(#clip-mask-8)" /><path d="M 114 103 Q 110 96 110 94 Q 111 85 111 76 Q 110 69 110 68 Q 112 68 114 68 Q 116 70 119 71 Q 122 73 121 77 Q 117 101 116 102" fill="#000080" clip-path="url(#clip-mask-9)" /><path d="M 185 33 Q 184 32 181 32 Q 167 34 164 32 Q 161 30 161 29 Q 161 26 164 26 Q 174 26 186 22 Q 192 20 196 23 Q 205 28 207 32 Q 209 35 206 39" fill="#000080" clip-path="url(#clip-mask-10)" /><path d="M 175 95 Q 177 87 179 80 L 180 72 Q 182 65 183 59 L 184 51 Q 185 45 186 39 Q 187 34 185 33 L 206 39 Q 198 45 186 94" fill="#000080" clip-path="url(#clip-mask-11)" /><path d="M 183 59 Q 174 59 164 60 Q 161 60 160 59 Q 156 56 160 55 Q 160 55 160 55 Q 177 49 184 51" fill="#000080" clip-path="url(#clip-mask-12)" /><path d="M 179 80 Q 170 81 159 82 Q 156 82 155 81 Q 151 77 154 77 Q 160 75 166 73 Q 175 71 180 72" fill="#000080" clip-path="url(#clip-mask-13)" /><path d="M 116 108 L 92 112 L 82 114 Q 63 117 46 121 Q 42 122 37 121 Q 32 119 29 116 Q 25 111 30 111 Q 54 109 76 107 L 86 106 Q 100 104 114 103 L 116 102 Q 116 102 116 103 Q 129 101 135 101 L 137 100 Q 157 97 175 95 L 186 94 Q 197 91 206 90 Q 221 86 235 97 Q 239 101 237 104 Q 236 106 231 106 Q 162 106 153 106 L 145 107" fill="#000080" clip-path="url(#clip-mask-14)" /><path d="M 92 112 Q 93 113 94 113 Q 100 115 100 118 Q 101 120 99 123 Q 84 138 82 142 Q 43 185 17 189 Q 11 190 16 186 Q 76 140 82 114" fill="#000080" clip-path="url(#clip-mask-15)" /><path d="M 153 106 Q 187 132 200 139 Q 209 145 255 160 Q 258 161 258 163 Q 257 164 252 165 Q 227 171 209 168 Q 197 165 148 110 Q 146 108 145 107" fill="#000080" clip-path="url(#clip-mask-16)" /><path d="M 116 117 L 116 116 Q 116 113 118 113 Q 129 113 135 120 Q 137 124 137 126 Q 136 130 133 130 Q 129 130 117 119" fill="#0000ff" clip-path="url(#clip-mask-17)" /><path d="M 100 145 L 127 140 Q 154 132 160 133 Q 166 135 168 138 Q 169 140 167 142 Q 165 143 154 145 Q 129 150 105 154 Q 93 156 83 151 Q 78 147 86 146" fill="#0000ff" clip-path="url(#clip-mask-18)" /><path d="M 111 163 L 133 158 Q 143 156 149 157 Q 155 159 157 162 Q 159 166 153 166 Q 132 168 102 172 Q 96 173 93 171 Q 88 167 93 166" fill="#0000ff" clip-path="url(#clip-mask-19)" /><path d="M 146 176 L 149 177 Q 155 178 157 182 Q 159 185 153 186 Q 131 188 102 191 Q 96 192 93 190 Q 88 186 93 185" fill="#0000ff" clip-path="url(#clip-mask-20)" /><path d="M 104 251 L 103 254 Q 101 259 96 253 Q 93 249 92 242 Q 87 222 80 209 Q 78 205 79 204 Q 80 202 83 203 Q 87 203 90 204 L 98 212 Q 98 217 102 235 L 103 244" fill="#0000ff" clip-path="url(#clip-mask-21)" /><path d="M 90 204 Q 121 201 143 195 Q 158 189 176 204 L 150 206 Q 148 204 143 205 L 98 212" fill="#0000ff" clip-path="url(#clip-mask-22)" /><path d="M 148 230 Q 153 209 150 206 L 176 204 Q 179 209 175 213 Q 169 216 163 231" fill="#0000ff" clip-path="url(#clip-mask-23)" /><path d="M 102 235 Q 122 234 148 230 L 163 231 Q 170 236 170 238 Q 169 240 167 241 Q 127 241 108 244 Q 106 245 103 244" fill="#0000ff" clip-path="url(#clip-mask-24)" /></svg>