<svg xmlns="http://www.w3.org/2000/svg" xmlns:xlink="http://www.w3.org/1999/xlink" width="270" height="270"><defs><clipPath id="clip-mask-1"><rect x="54" y="23" width="62" height="20"><animate attributeName="x" from="-8" to="54" dur="0.230" begin="0; animate19.end + 1" id="animate1" fill="freeze"/></rect></clipPath><clipPath id="clip-mask-2"><rect x="78" y="39" width="15" height="26"><set attributeName="y" to="13" begin="0; animate19.end + 1" /><animate attributeName="y" from="13" to="39" dur="0.096" begin="animate1.end + 0.5" id="animate2" fill="freeze"/></rect></clipPath><clipPath id="clip-mask-3"><rect x="53" y="54" width="67" height="23"><set attributeName="x" to="-14" begin="0; animate19.end + 1" /><animate attributeName="x" from="-14" to="53" dur="0.248" begin="animate2.end + 0.5" id="animate3" fill="freeze"/></rect></clipPath><clipPath id="clip-mask-4"><rect x="96" y="67" width="27" height="20"><set attributeName="y" to="47" begin="0; animate19.end + 1" /><animate attributeName="y" from="47" to="67" dur="0.074" begin="animate3.end" id="animate4" fill="freeze"/></rect></clipPath><clipPath id="clip-mask-5"><rect x="52" y="86" width="61" height="18"><set attributeName="x" to="-9" begin="0; animate19.end + 1" /><animate attributeName="x" from="-9" to="52" dur="0.226" begin="animate4.end + 0.5" id="animate5" fill="freeze"/></rect></clipPath><clipPath id="clip-mask-6"><rect x="78" y="98" width="13" height="21"><set attributeName="y" to="77" begin="0; animate19.end + 1" /><animate attributeName="y" from="77" to="98" dur="0.078" begin="animate5.end + 0.5" id="animate6" fill="freeze"/></rect></clipPath><clipPath id="clip-mask-7"><rect x="33" y="27" width="22" height="117"><set attributeName="y" to="-90" begin="0; animate19.end + 1" /><animate attributeName="y" from="-90" to="27" dur="0.433" begin="animate6.end + 0.5" id="animate7" fill="freeze"/></rect></clipPath><clipPath id="clip-mask-8"><rect x="45" y="111" width="74" height="30"><set attributeName="x" to="-29" begin="0; animate19.end + 1" /><animate attributeName="x" from="-29" to="45" dur="0.274" begin="animate7.end" id="animate8" fill="freeze"/></rect></clipPath><clipPath id="clip-mask-9"><rect x="132" y="24" width="71" height="24"><set attributeName="x" to="61" begin="0; animate19.end + 1" /><animate attributeName="x" from="61" to="132" dur="0.263" begin="animate8.end + 0.5" id="animate9" fill="freeze"/></rect></clipPath><clipPath id="clip-mask-10"><rect x="119" y="38" width="79" height="71"><set attributeName="y" to="-33" begin="0; animate19.end + 1" /><animate attributeName="y" from="-33" to="38" dur="0.263" begin="animate9.end" id="animate10" fill="freeze"/></rect></clipPath><clipPath id="clip-mask-11"><rect x="126" y="55" width="112" height="71"><set attributeName="x" to="14" begin="0; animate19.end + 1" /><animate attributeName="x" from="14" to="126" dur="0.415" begin="animate10.end + 0.5" id="animate11" fill="freeze"/></rect></clipPath><clipPath id="clip-mask-12"><rect x="80" y="122" width="94" height="25"><set attributeName="x" to="-14" begin="0; animate19.end + 1" /><animate attributeName="x" from="-14" to="80" dur="0.348" begin="animate11.end + 0.5" id="animate12" fill="freeze"/></rect></clipPath><clipPath id="clip-mask-13"><rect x="79" y="157" width="24" height="41"><set attributeName="y" to="116" begin="0; animate19.end + 1" /><animate attributeName="y" from="116" to="157" dur="0.152" begin="animate12.end + 0.5" id="animate13" fill="freeze"/></rect></clipPath><clipPath id="clip-mask-14"><rect x="93" y="146" width="86" height="19"><set attributeName="x" to="7" begin="0; animate19.end + 1" /><animate attributeName="x" from="7" to="93" dur="0.319" begin="animate13.end + 0.5" id="animate14" fill="freeze"/></rect></clipPath><clipPath id="clip-mask-15"><rect x="152" y="158" width="29" height="20"><set attributeName="y" to="138" begin="0; animate19.end + 1" /><animate attributeName="y" from="138" to="158" dur="0.074" begin="animate14.end" id="animate15" fill="freeze"/></rect></clipPath><clipPath id="clip-mask-16"><rect x="102" y="177" width="69" height="14"><set attributeName="x" to="33" begin="0; animate19.end + 1" /><animate attributeName="x" from="33" to="102" dur="0.256" begin="animate15.end + 0.5" id="animate16" fill="freeze"/></rect></clipPath><clipPath id="clip-mask-17"><rect x="78" y="199" width="27" height="26"><set attributeName="x" to="51" begin="0; animate19.end + 1" /><animate attributeName="x" from="51" to="78" dur="0.100" begin="animate16.end + 0.5" id="animate17" fill="freeze"/></rect></clipPath><clipPath id="clip-mask-18"><rect x="140" y="189" width="31" height="37"><set attributeName="y" to="152" begin="0; animate19.end + 1" /><animate attributeName="y" from="152" to="189" dur="0.137" begin="animate17.end + 0.5" id="animate18" fill="freeze"/></rect></clipPath><clipPath id="clip-mask-19"><rect x="31" y="216" width="206" height="30"><set attributeName="x" to="-175" begin="0; animate19.end + 1" /><animate attributeName="x" from="-175" to="31" dur="0.763" begin="animate18.end + 0.5" id="animate19" fill="freeze"/></rect></clipPath></defs><path d="M 0 0 L 270 270 M 270 0 L 0 270 M 135 0 L 135 270 M 0 135 L 270 135" stroke="#CCCCCC" /><path d="M 79 41 Q 61 43 55 42 L 54 35 Q 66 33 76 31 Q 85 29 94 25 Q 101 23 107 24 Q 114 25 115 28 Q 116 30 114 32 Q 113 33 88 39" fill="#CCCCCC"/><path d="M 78 65 L 79 41 L 88 39 Q 93 44 91 48 Q 89 50 88 62" fill="#CCCCCC"/><path d="M 54 70 Q 66 68 78 65 L 88 62 Q 90 61 94 60 Q 105 54 120 67 L 101 69 Q 100 67 86 70 Q 56 77 53 76" fill="#CCCCCC"/><path d="M 96 86 Q 103 71 101 69 L 120 67 Q 123 71 119 74 Q 113 77 107 87" fill="#CCCCCC"/><path d="M 78 99 Q 66 101 59 103 Q 54 104 52 103 L 52 96 Q 72 93 95 86 Q 95 86 96 86 L 107 87 Q 113 91 113 92 Q 112 94 110 95 Q 97 96 87 98" fill="#CCCCCC"/><path d="M 78 119 Q 78 103 78 101 Q 78 99 78 99 L 87 98 Q 88 99 90 101 Q 91 103 89 106 Q 89 107 87 117" fill="#CCCCCC"/><path d="M 45 141 Q 41 144 39 143 Q 36 141 34 136 Q 33 131 34 128 Q 38 122 39 117 Q 47 51 39 33 Q 37 30 39 28 Q 41 27 45 29 Q 52 32 54 35 L 55 42 Q 54 44 54 70 L 53 76 Q 53 86 52 96 L 52 103 Q 52 112 51 121" fill="#CCCCCC"/><path d="M 109 111 L 112 114 Q 119 117 119 120 Q 119 123 114 123 Q 61 127 45 141 L 51 121 Q 51 124 52 124 Q 53 125 55 124 Q 67 120 78 119 L 87 117" fill="#CCCCCC"/><path d="M 172 38 Q 170 38 157 44 Q 145 48 136 45 Q 132 44 133 42 Q 134 40 137 40 Q 152 37 161 34 Q 170 31 176 28 Q 183 24 188 26 Q 196 28 199 31 Q 203 34 198 38" fill="#CCCCCC"/><path d="M 147 106 L 132 108 Q 123 109 122 108 Q 119 106 123 105 Q 142 98 156 87 L 162 79 Q 172 65 176 44 Q 178 38 172 38 L 198 38 Q 193 43 191 50 Q 182 74 171 87 L 163 95" fill="#CCCCCC"/><path d="M 156 87 Q 137 65 132 62 Q 130 61 128 60 Q 126 58 127 57 Q 129 55 132 56 Q 139 56 143 61 Q 153 71 162 79 L 171 87 Q 191 100 204 104 Q 232 112 236 114 Q 238 116 237 118 Q 234 118 215 123 Q 198 126 192 122 Q 174 107 163 95" fill="#CCCCCC"/><path d="M 107 134 L 131 129 Q 160 122 165 123 Q 172 125 173 128 Q 174 130 172 132 Q 170 133 159 136 Q 134 140 109 144 Q 96 147 86 140 Q 80 136 89 135" fill="#CCCCCC"/><path d="M 103 193 L 103 194 Q 102 198 97 193 Q 94 191 93 186 Q 87 172 81 163 Q 79 159 80 158 Q 81 157 84 157 Q 91 157 93 158 L 98 165 Q 99 170 102 184 L 103 191" fill="#CCCCCC"/><path d="M 93 158 Q 130 155 155 147 Q 160 146 164 148 Q 175 155 179 158 L 157 159 Q 154 157 149 158 Q 101 165 98 165" fill="#CCCCCC"/><path d="M 152 177 Q 158 161 157 159 L 179 158 Q 181 163 177 167 Q 170 170 166 178" fill="#CCCCCC"/><path d="M 102 184 Q 124 182 152 177 L 166 178 Q 171 182 171 184 Q 171 186 169 186 Q 126 188 106 191 Q 105 191 103 191" fill="#CCCCCC"/><path d="M 79 206 L 78 203 Q 78 200 79 199 Q 81 199 84 200 Q 102 206 104 212 Q 105 219 103 223 Q 102 225 100 225 Q 96 225 93 222 Q 88 216 84 211" fill="#CCCCCC"/><path d="M 154 198 L 154 193 Q 153 190 156 190 Q 160 189 162 192 Q 168 198 170 202 Q 171 205 168 207 Q 164 210 150 225 L 140 226" fill="#CCCCCC"/><path d="M 150 225 Q 186 221 209 218 Q 218 216 233 227 Q 237 231 235 234 Q 234 237 229 237 Q 118 231 53 245 Q 48 246 43 244 Q 38 243 34 239 Q 31 234 36 234 Q 112 228 140 226" fill="#CCCCCC"/><path d="M 79 41 Q 61 43 55 42 L 54 35 Q 66 33 76 31 Q 85 29 94 25 Q 101 23 107 24 Q 114 25 115 28 Q 116 30 114 32 Q 113 33 88 39" fill="#000080" clip-path="url(#clip-mask-1)" /><path d="M 78 65 L 79 41 L 88 39 Q 93 44 91 48 Q 89 50 88 62" fill="#000080" clip-path="url(#clip-mask-2)" /><path d="M 54 70 Q 66 68 78 65 L 88 62 Q 90 61 94 60 Q 105 54 120 67 L 101 69 Q 100 67 86 70 Q 56 77 53 76" fill="#000080" clip-path="url(#clip-mask-3)" /><path d="M 96 86 Q 103 71 101 69 L 120 67 Q 123 71 119 74 Q 113 77 107 87" fill="#000080" clip-path="url(#clip-mask-4)" /><path d="M 78 99 Q 66 101 59 103 Q 54 104 52 103 L 52 96 Q 72 93 95 86 Q 95 86 96 86 L 107 87 Q 113 91 113 92 Q 112 94 110 95 Q 97 96 87 98" fill="#000080" clip-path="url(#clip-mask-5)" /><path d="M 78 119 Q 78 103 78 101 Q 78 99 78 99 L 87 98 Q 88 99 90 101 Q 91 103 89 106 Q 89 107 87 117" fill="#000080" clip-path="url(#clip-mask-6)" /><path d="M 45 141 Q 41 144 39 143 Q 36 141 34 136 Q 33 131 34 128 Q 38 122 39 117 Q 47 51 39 33 Q 37 30 39 28 Q 41 27 45 29 Q 52 32 54 35 L 55 42 Q 54 44 54 70 L 53 76 Q 53 86 52 96 L 52 103 Q 52 112 51 121" fill="#000080" clip-path="url(#clip-mask-7)" /><path d="M 109 111 L 112 114 Q 119 117 119 120 Q 119 123 114 123 Q 61 127 45 141 L 51 121 Q 51 124 52 124 Q 53 125 55 124 Q 67 120 78 119 L 87 117" fill="#000080" clip-path="url(#clip-mask-8)" /><path d="M 172 38 Q 170 38 157 44 Q 145 48 136 45 Q 132 44 133 42 Q 134 40 137 40 Q 152 37 161 34 Q 170 31 176 28 Q 183 24 188 26 Q 196 28 199 31 Q 203 34 198 38" fill="#000080" clip-path="url(#clip-mask-9)" /><path d="M 147 106 L 132 108 Q 123 109 122 108 Q 119 106 123 105 Q 142 98 156 87 L 162 79 Q 172 65 176 44 Q 178 38 172 38 L 198 38 Q 193 43 191 50 Q 182 74 171 87 L 163 95" fill="#000080" clip-path="url(#clip-mask-10)" /><path d="M 156 87 Q 137 65 132 62 Q 130 61 128 60 Q 126 58 127 57 Q 129 55 132 56 Q 139 56 143 61 Q 153 71 162 79 L 171 87 Q 191 100 204 104 Q 232 112 236 114 Q 238 116 237 118 Q 234 118 215 123 Q 198 126 192 122 Q 174 107 163 95" fill="#000080" clip-path="url(#clip-mask-11)" /><path d="M 107 134 L 131 129 Q 160 122 165 123 Q 172 125 173 128 Q 174 130 172 132 Q 170 133 159 136 Q 134 140 109 144 Q 96 147 86 140 Q 80 136 89 135" fill="#0000ff" clip-path="url(#clip-mask-12)" /><path d="M 103 193 L 103 194 Q 102 198 97 193 Q 94 191 93 186 Q 87 172 81 163 Q 79 159 80 158 Q 81 157 84 157 Q 91 157 93 158 L 98 165 Q 99 170 102 184 L 103 191" fill="#0000ff" clip-path="url(#clip-mask-13)" /><path d="M 93 158 Q 130 155 155 147 Q 160 146 164 148 Q 175 155 179 158 L 157 159 Q 154 157 149 158 Q 101 165 98 165" fill="#0000ff" clip-path="url(#clip-mask-14)" /><path d="M 152 177 Q 158 161 157 159 L 179 158 Q 181 163 177 167 Q 170 170 166 178" fill="#0000ff" clip-path="url(#clip-mask-15)" /><path d="M 102 184 Q 124 182 152 177 L 166 178 Q 171 182 171 184 Q 171 186 169 186 Q 126 188 106 191 Q 105 191 103 191" fill="#0000ff" clip-path="url(#clip-mask-16)" /><path d="M 79 206 L 78 203 Q 78 200 79 199 Q 81 199 84 200 Q 102 206 104 212 Q 105 219 103 223 Q 102 225 100 225 Q 96 225 93 222 Q 88 216 84 211" fill="#0000ff" clip-path="url(#clip-mask-17)" /><path d="M 154 198 L 154 193 Q 153 190 156 190 Q 160 189 162 192 Q 168 198 170 202 Q 171 205 168 207 Q 164 210 150 225 L 140 226" fill="#0000ff" clip-path="url(#clip-mask-18)" /><path d="M 150 225 Q 186 221 209 218 Q 218 216 233 227 Q 237 231 235 234 Q 234 237 229 237 Q 118 231 53 245 Q 48 246 43 244 Q 38 243 34 239 Q 31 234 36 234 Q 112 228 140 226" fill="#0000ff" clip-path="url(#clip-mask-19)" /></svg>