<svg xmlns="http://www.w3.org/2000/svg" xmlns:xlink="http://www.w3.org/1999/xlink" width="270" height="270"><defs><clipPath id="clip-mask-1"><rect x="55" y="32" width="31" height="58"><animate attributeName="y" from="-26" to="32" dur="0.215" begin="0; animate14.end + 1" id="animate1" fill="freeze"/></rect></clipPath><clipPath id="clip-mask-2"><rect x="66" y="15" width="155" height="28"><set attributeName="x" to="-89" begin="0; animate14.end + 1" /><animate attributeName="x" from="-89" to="66" dur="0.574" begin="animate1.end + 0.5" id="animate2" fill="freeze"/></rect></clipPath><clipPath id="clip-mask-3"><rect x="183" y="29" width="42" height="47"><set attributeName="y" to="-18" begin="0; animate14.end + 1" /><animate attributeName="y" from="-18" to="29" dur="0.174" begin="animate2.end" id="animate3" fill="freeze"/></rect></clipPath><clipPath id="clip-mask-4"><rect x="103" y="36" width="16" height="34"><set attributeName="y" to="2" begin="0; animate14.end + 1" /><animate attributeName="y" from="2" to="36" dur="0.126" begin="animate3.end + 0.5" id="animate4" fill="freeze"/></rect></clipPath><clipPath id="clip-mask-5"><rect x="141" y="30" width="24" height="36"><set attributeName="y" to="-6" begin="0; animate14.end + 1" /><animate attributeName="y" from="-6" to="30" dur="0.133" begin="animate4.end + 0.5" id="animate5" fill="freeze"/></rect></clipPath><clipPath id="clip-mask-6"><rect x="85" y="60" width="98" height="21"><set attributeName="x" to="-13" begin="0; animate14.end + 1" /><animate attributeName="x" from="-13" to="85" dur="0.363" begin="animate5.end + 0.5" id="animate6" fill="freeze"/></rect></clipPath><clipPath id="clip-mask-7"><rect x="85" y="97" width="19" height="100"><set attributeName="y" to="-3" begin="0; animate14.end + 1" /><animate attributeName="y" from="-3" to="97" dur="0.370" begin="animate6.end + 0.5" id="animate7" fill="freeze"/></rect></clipPath><clipPath id="clip-mask-8"><rect x="98" y="87" width="89" height="22"><set attributeName="x" to="9" begin="0; animate14.end + 1" /><animate attributeName="x" from="9" to="98" dur="0.330" begin="animate7.end + 0.5" id="animate8" fill="freeze"/></rect></clipPath><clipPath id="clip-mask-9"><rect x="161" y="99" width="28" height="100"><set attributeName="y" to="-1" begin="0; animate14.end + 1" /><animate attributeName="y" from="-1" to="99" dur="0.370" begin="animate8.end" id="animate9" fill="freeze"/></rect></clipPath><clipPath id="clip-mask-10"><rect x="102" y="117" width="52" height="17"><set attributeName="x" to="50" begin="0; animate14.end + 1" /><animate attributeName="x" from="50" to="102" dur="0.193" begin="animate9.end + 0.5" id="animate10" fill="freeze"/></rect></clipPath><clipPath id="clip-mask-11"><rect x="102" y="142" width="53" height="16"><set attributeName="x" to="49" begin="0; animate14.end + 1" /><animate attributeName="x" from="49" to="102" dur="0.196" begin="animate10.end + 0.5" id="animate11" fill="freeze"/></rect></clipPath><clipPath id="clip-mask-12"><rect x="98" y="172" width="67" height="18"><set attributeName="x" to="31" begin="0; animate14.end + 1" /><animate attributeName="x" from="31" to="98" dur="0.248" begin="animate11.end + 0.5" id="animate12" fill="freeze"/></rect></clipPath><clipPath id="clip-mask-13"><rect x="44" y="194" width="81" height="54"><set attributeName="y" to="140" begin="0; animate14.end + 1" /><animate attributeName="y" from="140" to="194" dur="0.200" begin="animate12.end + 0.5" id="animate13" fill="freeze"/></rect></clipPath><clipPath id="clip-mask-14"><rect x="157" y="203" width="43" height="51"><set attributeName="x" to="114" begin="0; animate14.end + 1" /><animate attributeName="x" from="114" to="157" dur="0.159" begin="animate13.end + 0.5" id="animate14" fill="freeze"/></rect></clipPath></defs><path d="M 0 0 L 270 270 M 270 0 L 0 270 M 135 0 L 135 270 M 0 135 L 270 135" stroke="#CCCCCC" /><path d="M 86 83 L 86 85 Q 85 90 79 84 Q 75 80 73 74 Q 66 52 58 40 Q 55 35 56 33 Q 57 32 61 32 Q 63 32 66 32 L 78 43 Q 82 64 85 73 L 86 81" fill="#CCCCCC"/><path d="M 103 37 Q 88 40 78 43 L 66 32 Q 76 33 109 28 Q 125 25 180 18 Q 199 15 203 18 Q 216 26 221 31 L 194 29 Q 189 26 155 30 L 145 31 Q 124 33 109 36" fill="#CCCCCC"/><path d="M 183 68 Q 183 65 185 62 Q 187 58 194 36 Q 196 30 194 29 L 221 31 Q 225 36 219 40 Q 208 47 203 61 Q 193 76 188 76 Q 185 76 184 72 Q 183 71 183 70" fill="#CCCCCC"/><path d="M 111 70 Q 106 66 104 43 Q 103 41 103 38 Q 103 38 103 37 L 109 36 Q 110 37 111 39 Q 119 55 119 69" fill="#CCCCCC"/><path d="M 155 30 Q 161 33 163 36 Q 165 39 162 41 Q 159 45 158 49 Q 154 56 151 62 Q 150 63 150 64 L 141 66 Q 141 65 142 65 Q 151 36 145 31" fill="#CCCCCC"/><path d="M 85 73 Q 97 71 111 70 L 119 69 Q 129 68 141 66 L 150 64 Q 173 60 177 62 Q 182 65 183 68 L 183 70 Q 182 71 180 71 Q 118 75 89 81 Q 88 81 86 81" fill="#CCCCCC"/><path d="M 97 192 L 96 194 Q 93 197 91 194 Q 88 191 86 183 Q 85 179 88 167 Q 96 125 86 102 Q 85 100 85 99 Q 87 97 89 97 Q 94 98 98 102 L 104 109 Q 102 114 102 127 L 102 134 Q 102 149 102 151 L 102 158 Q 102 173 100 181 L 98 189" fill="#CCCCCC"/><path d="M 98 102 Q 137 97 157 89 Q 163 87 167 88 Q 180 93 187 99 L 161 101 Q 159 98 152 99 Q 131 102 104 109" fill="#CCCCCC"/><path d="M 165 180 Q 165 179 165 179 Q 167 169 165 122 Q 165 106 161 101 L 187 99 Q 189 102 186 106 Q 181 114 182 123 Q 182 155 185 176 Q 186 182 182 189 Q 178 198 174 199 Q 171 199 167 191 Q 165 187 165 184" fill="#CCCCCC"/><path d="M 102 127 Q 137 117 143 118 Q 149 119 152 123 Q 154 126 148 127 Q 130 130 107 134 Q 103 134 102 134" fill="#CCCCCC"/><path d="M 102 151 Q 137 142 144 143 Q 150 144 153 148 Q 155 152 149 152 Q 131 155 106 158 Q 103 158 102 158" fill="#CCCCCC"/><path d="M 100 181 Q 121 178 146 174 Q 154 172 158 175 Q 163 178 165 180 L 165 184 Q 164 185 163 185 Q 121 186 102 189 Q 100 190 98 189" fill="#CCCCCC"/><path d="M 105 195 L 107 195 Q 110 194 118 199 Q 124 202 125 206 Q 125 208 122 211 Q 108 220 107 222 Q 71 248 52 247 Q 44 247 51 244 Q 95 218 103 198" fill="#CCCCCC"/><path d="M 157 210 L 158 206 Q 159 203 161 205 Q 162 205 162 205 Q 196 219 198 235 Q 200 248 196 251 Q 193 254 191 253 Q 186 251 182 245 Q 170 226 160 214" fill="#CCCCCC"/><path d="M 86 83 L 86 85 Q 85 90 79 84 Q 75 80 73 74 Q 66 52 58 40 Q 55 35 56 33 Q 57 32 61 32 Q 63 32 66 32 L 78 43 Q 82 64 85 73 L 86 81" fill="#000080" clip-path="url(#clip-mask-1)" /><path d="M 103 37 Q 88 40 78 43 L 66 32 Q 76 33 109 28 Q 125 25 180 18 Q 199 15 203 18 Q 216 26 221 31 L 194 29 Q 189 26 155 30 L 145 31 Q 124 33 109 36" fill="#000080" clip-path="url(#clip-mask-2)" /><path d="M 183 68 Q 183 65 185 62 Q 187 58 194 36 Q 196 30 194 29 L 221 31 Q 225 36 219 40 Q 208 47 203 61 Q 193 76 188 76 Q 185 76 184 72 Q 183 71 183 70" fill="#000080" clip-path="url(#clip-mask-3)" /><path d="M 111 70 Q 106 66 104 43 Q 103 41 103 38 Q 103 38 103 37 L 109 36 Q 110 37 111 39 Q 119 55 119 69" fill="#000080" clip-path="url(#clip-mask-4)" /><path d="M 155 30 Q 161 33 163 36 Q 165 39 162 41 Q 159 45 158 49 Q 154 56 151 62 Q 150 63 150 64 L 141 66 Q 141 65 142 65 Q 151 36 145 31" fill="#000080" clip-path="url(#clip-mask-5)" /><path d="M 85 73 Q 97 71 111 70 L 119 69 Q 129 68 141 66 L 150 64 Q 173 60 177 62 Q 182 65 183 68 L 183 70 Q 182 71 180 71 Q 118 75 89 81 Q 88 81 86 81" fill="#000080" clip-path="url(#clip-mask-6)" /><path d="M 97 192 L 96 194 Q 93 197 91 194 Q 88 191 86 183 Q 85 179 88 167 Q 96 125 86 102 Q 85 100 85 99 Q 87 97 89 97 Q 94 98 98 102 L 104 109 Q 102 114 102 127 L 102 134 Q 102 149 102 151 L 102 158 Q 102 173 100 181 L 98 189" fill="#0000ff" clip-path="url(#clip-mask-7)" /><path d="M 98 102 Q 137 97 157 89 Q 163 87 167 88 Q 180 93 187 99 L 161 101 Q 159 98 152 99 Q 131 102 104 109" fill="#0000ff" clip-path="url(#clip-mask-8)" /><path d="M 165 180 Q 165 179 165 179 Q 167 169 165 122 Q 165 106 161 101 L 187 99 Q 189 102 186 106 Q 181 114 182 123 Q 182 155 185 176 Q 186 182 182 189 Q 178 198 174 199 Q 171 199 167 191 Q 165 187 165 184" fill="#0000ff" clip-path="url(#clip-mask-9)" /><path d="M 102 127 Q 137 117 143 118 Q 149 119 152 123 Q 154 126 148 127 Q 130 130 107 134 Q 103 134 102 134" fill="#0000ff" clip-path="url(#clip-mask-10)" /><path d="M 102 151 Q 137 142 144 143 Q 150 144 153 148 Q 155 152 149 152 Q 131 155 106 158 Q 103 158 102 158" fill="#0000ff" clip-path="url(#clip-mask-11)" /><path d="M 100 181 Q 121 178 146 174 Q 154 172 158 175 Q 163 178 165 180 L 165 184 Q 164 185 163 185 Q 121 186 102 189 Q 100 190 98 189" fill="#0000ff" clip-path="url(#clip-mask-12)" /><path d="M 105 195 L 107 195 Q 110 194 118 199 Q 124 202 125 206 Q 125 208 122 211 Q 108 220 107 222 Q 71 248 52 247 Q 44 247 51 244 Q 95 218 103 198" fill="#0000ff" clip-path="url(#clip-mask-13)" /><path d="M 157 210 L 158 206 Q 159 203 161 205 Q 162 205 162 205 Q 196 219 198 235 Q 200 248 196 251 Q 193 254 191 253 Q 186 251 182 245 Q 170 226 160 214" fill="#0000ff" clip-path="url(#clip-mask-14)" /></svg>