<svg xmlns="http://www.w3.org/2000/svg" xmlns:xlink="http://www.w3.org/1999/xlink" width="270" height="270"><defs><clipPath id="clip-mask-1"><rect x="38" y="59" width="19" height="119"><animate attributeName="y" from="-60" to="59" dur="0.441" begin="0; animate16.end + 1" id="animate1" fill="freeze"/></rect></clipPath><clipPath id="clip-mask-2"><rect x="53" y="51" width="62" height="20"><set attributeName="x" to="-9" begin="0; animate16.end + 1" /><animate attributeName="x" from="-9" to="53" dur="0.230" begin="animate1.end + 0.5" id="animate2" fill="freeze"/></rect></clipPath><clipPath id="clip-mask-3"><rect x="87" y="65" width="25" height="116"><set attributeName="y" to="-51" begin="0; animate16.end + 1" /><animate attributeName="y" from="-51" to="65" dur="0.430" begin="animate2.end" id="animate3" fill="freeze"/></rect></clipPath><clipPath id="clip-mask-4"><rect x="56" y="88" width="31" height="14"><set attributeName="x" to="25" begin="0; animate16.end + 1" /><animate attributeName="x" from="25" to="56" dur="0.115" begin="animate3.end + 0.5" id="animate4" fill="freeze"/></rect></clipPath><clipPath id="clip-mask-5"><rect x="56" y="119" width="32" height="13"><set attributeName="x" to="24" begin="0; animate16.end + 1" /><animate attributeName="x" from="24" to="56" dur="0.119" begin="animate4.end + 0.5" id="animate5" fill="freeze"/></rect></clipPath><clipPath id="clip-mask-6"><rect x="55" y="151" width="36" height="15"><set attributeName="x" to="19" begin="0; animate16.end + 1" /><animate attributeName="x" from="19" to="55" dur="0.133" begin="animate5.end + 0.5" id="animate6" fill="freeze"/></rect></clipPath><clipPath id="clip-mask-7"><rect x="15" y="176" width="60" height="56"><set attributeName="y" to="120" begin="0; animate16.end + 1" /><animate attributeName="y" from="120" to="176" dur="0.207" begin="animate6.end + 0.5" id="animate7" fill="freeze"/></rect></clipPath><clipPath id="clip-mask-8"><rect x="85" y="188" width="28" height="30"><set attributeName="y" to="158" begin="0; animate16.end + 1" /><animate attributeName="y" from="158" to="188" dur="0.111" begin="animate7.end + 0.5" id="animate8" fill="freeze"/></rect></clipPath><clipPath id="clip-mask-9"><rect x="122" y="46" width="132" height="35"><set attributeName="x" to="-10" begin="0; animate16.end + 1" /><animate attributeName="x" from="-10" to="122" dur="0.489" begin="animate8.end + 0.5" id="animate9" fill="freeze"/></rect></clipPath><clipPath id="clip-mask-10"><rect x="109" y="17" width="84" height="159"><set attributeName="y" to="-142" begin="0; animate16.end + 1" /><animate attributeName="y" from="-142" to="17" dur="0.589" begin="animate9.end + 0.5" id="animate10" fill="freeze"/></rect></clipPath><clipPath id="clip-mask-11"><rect x="141" y="117" width="26" height="120"><set attributeName="y" to="-3" begin="0; animate16.end + 1" /><animate attributeName="y" from="-3" to="117" dur="0.444" begin="animate10.end + 0.5" id="animate11" fill="freeze"/></rect></clipPath><clipPath id="clip-mask-12"><rect x="164" y="103" width="66" height="24"><set attributeName="x" to="98" begin="0; animate16.end + 1" /><animate attributeName="x" from="98" to="164" dur="0.244" begin="animate11.end + 0.5" id="animate12" fill="freeze"/></rect></clipPath><clipPath id="clip-mask-13"><rect x="205" y="119" width="24" height="133"><set attributeName="y" to="-14" begin="0; animate16.end + 1" /><animate attributeName="y" from="-14" to="119" dur="0.493" begin="animate12.end" id="animate13" fill="freeze"/></rect></clipPath><clipPath id="clip-mask-14"><rect x="183" y="218" width="25" height="26"><set attributeName="x" to="208" begin="0; animate16.end + 1" /><animate attributeName="x" from="208" to="183" dur="0.093" begin="animate13.end" id="animate14" fill="freeze"/></rect></clipPath><clipPath id="clip-mask-15"><rect x="165" y="142" width="34" height="14"><set attributeName="x" to="131" begin="0; animate16.end + 1" /><animate attributeName="x" from="131" to="165" dur="0.126" begin="animate14.end + 0.5" id="animate15" fill="freeze"/></rect></clipPath><clipPath id="clip-mask-16"><rect x="163" y="172" width="38" height="16"><set attributeName="x" to="125" begin="0; animate16.end + 1" /><animate attributeName="x" from="125" to="163" dur="0.141" begin="animate15.end + 0.5" id="animate16" fill="freeze"/></rect></clipPath></defs><path d="M 0 0 L 270 270 M 270 0 L 0 270 M 135 0 L 135 270 M 0 135 L 270 135" stroke="#CCCCCC" /><path d="M 55 171 L 52 175 Q 50 178 47 175 Q 41 167 41 162 Q 41 160 44 133 Q 44 74 41 68 Q 40 66 39 64 Q 38 60 40 59 Q 43 59 45 60 Q 50 61 53 64 L 57 71 Q 56 82 56 94 L 56 102 Q 56 111 56 124 L 56 132 Q 56 145 56 157 L 55 166" fill="#CCCCCC"/><path d="M 92 65 Q 89 62 79 65 Q 68 68 58 70 Q 57 70 57 71 L 53 64 Q 69 61 87 53 Q 91 51 98 53 Q 111 57 113 60 Q 115 63 112 68" fill="#CCCCCC"/><path d="M 91 157 Q 95 157 94 152 Q 96 126 95 80 Q 95 68 92 65 L 112 68 Q 107 77 109 147 Q 109 167 107 172 Q 103 180 101 180 Q 99 181 95 174 Q 91 168 87 162" fill="#CCCCCC"/><path d="M 56 94 Q 58 93 59 92 Q 69 88 75 89 Q 81 89 84 93 Q 87 95 81 97 Q 70 99 56 102" fill="#CCCCCC"/><path d="M 56 124 Q 62 119 76 119 Q 83 120 85 124 Q 88 127 82 128 Q 71 130 56 132" fill="#CCCCCC"/><path d="M 56 157 Q 82 151 85 153 Q 90 155 91 157 L 87 162 Q 65 164 56 166 Q 55 166 55 166" fill="#CCCCCC"/><path d="M 55 177 L 56 176 Q 59 176 66 177 Q 73 179 74 182 Q 75 184 72 187 Q 63 196 62 200 Q 38 227 21 231 Q 15 232 19 228 Q 53 196 54 180" fill="#CCCCCC"/><path d="M 85 194 L 85 191 Q 85 188 86 188 Q 88 188 91 189 Q 111 199 112 205 Q 113 212 111 215 Q 110 218 107 218 Q 104 217 101 214 Q 96 206 90 200" fill="#CCCCCC"/><path d="M 163 74 Q 153 76 144 79 Q 140 81 134 80 Q 130 79 126 75 Q 122 71 127 71 Q 147 67 166 64 L 181 60 Q 182 60 183 60 Q 205 55 220 51 Q 235 46 250 56 Q 254 59 253 62 Q 252 65 247 65 Q 199 65 178 71" fill="#CCCCCC"/><path d="M 153 130 Q 149 137 146 142 Q 145 143 145 143 Q 125 172 113 176 Q 109 176 110 174 Q 111 173 114 171 Q 144 131 163 74 L 166 64 Q 169 53 171 41 Q 173 33 167 24 Q 164 19 170 18 Q 174 17 179 21 Q 188 27 192 32 Q 193 35 191 37 Q 183 52 181 60 L 178 71 Q 172 95 161 117" fill="#CCCCCC"/><path d="M 163 189 L 163 190 Q 162 228 151 236 Q 149 237 147 234 Q 143 229 143 222 Q 141 217 144 213 Q 149 204 151 189 Q 151 186 152 184 Q 152 184 152 184 Q 157 149 153 130 L 161 117 Q 164 119 164 119 L 167 127 Q 166 133 165 148 L 165 156 Q 164 166 163 179 L 163 188" fill="#CCCCCC"/><path d="M 164 119 Q 186 115 202 105 Q 206 103 211 105 Q 221 109 227 114 Q 230 117 227 122 L 206 119 Q 204 117 199 118 Q 171 127 167 127" fill="#CCCCCC"/><path d="M 227 122 Q 221 135 229 217 Q 228 237 218 249 Q 216 252 213 251 Q 209 249 205 244 L 208 223 Q 210 220 211 213 Q 212 181 208 128 Q 208 121 206 119" fill="#CCCCCC"/><path d="M 205 244 Q 198 234 184 221 Q 183 218 189 220 Q 196 222 202 223 Q 207 224 208 223" fill="#CCCCCC"/><path d="M 165 148 Q 177 142 187 142 Q 193 142 197 146 Q 199 148 193 150 Q 181 153 165 156" fill="#CCCCCC"/><path d="M 163 179 Q 177 172 188 173 Q 195 174 198 178 Q 201 182 195 183 Q 181 184 163 188" fill="#CCCCCC"/><path d="M 55 171 L 52 175 Q 50 178 47 175 Q 41 167 41 162 Q 41 160 44 133 Q 44 74 41 68 Q 40 66 39 64 Q 38 60 40 59 Q 43 59 45 60 Q 50 61 53 64 L 57 71 Q 56 82 56 94 L 56 102 Q 56 111 56 124 L 56 132 Q 56 145 56 157 L 55 166" fill="#0000ff" clip-path="url(#clip-mask-1)" /><path d="M 92 65 Q 89 62 79 65 Q 68 68 58 70 Q 57 70 57 71 L 53 64 Q 69 61 87 53 Q 91 51 98 53 Q 111 57 113 60 Q 115 63 112 68" fill="#0000ff" clip-path="url(#clip-mask-2)" /><path d="M 91 157 Q 95 157 94 152 Q 96 126 95 80 Q 95 68 92 65 L 112 68 Q 107 77 109 147 Q 109 167 107 172 Q 103 180 101 180 Q 99 181 95 174 Q 91 168 87 162" fill="#0000ff" clip-path="url(#clip-mask-3)" /><path d="M 56 94 Q 58 93 59 92 Q 69 88 75 89 Q 81 89 84 93 Q 87 95 81 97 Q 70 99 56 102" fill="#0000ff" clip-path="url(#clip-mask-4)" /><path d="M 56 124 Q 62 119 76 119 Q 83 120 85 124 Q 88 127 82 128 Q 71 130 56 132" fill="#0000ff" clip-path="url(#clip-mask-5)" /><path d="M 56 157 Q 82 151 85 153 Q 90 155 91 157 L 87 162 Q 65 164 56 166 Q 55 166 55 166" fill="#0000ff" clip-path="url(#clip-mask-6)" /><path d="M 55 177 L 56 176 Q 59 176 66 177 Q 73 179 74 182 Q 75 184 72 187 Q 63 196 62 200 Q 38 227 21 231 Q 15 232 19 228 Q 53 196 54 180" fill="#0000ff" clip-path="url(#clip-mask-7)" /><path d="M 85 194 L 85 191 Q 85 188 86 188 Q 88 188 91 189 Q 111 199 112 205 Q 113 212 111 215 Q 110 218 107 218 Q 104 217 101 214 Q 96 206 90 200" fill="#0000ff" clip-path="url(#clip-mask-8)" /><path d="M 163 74 Q 153 76 144 79 Q 140 81 134 80 Q 130 79 126 75 Q 122 71 127 71 Q 147 67 166 64 L 181 60 Q 182 60 183 60 Q 205 55 220 51 Q 235 46 250 56 Q 254 59 253 62 Q 252 65 247 65 Q 199 65 178 71" fill="#000080" clip-path="url(#clip-mask-9)" /><path d="M 153 130 Q 149 137 146 142 Q 145 143 145 143 Q 125 172 113 176 Q 109 176 110 174 Q 111 173 114 171 Q 144 131 163 74 L 166 64 Q 169 53 171 41 Q 173 33 167 24 Q 164 19 170 18 Q 174 17 179 21 Q 188 27 192 32 Q 193 35 191 37 Q 183 52 181 60 L 178 71 Q 172 95 161 117" fill="#000080" clip-path="url(#clip-mask-10)" /><path d="M 163 189 L 163 190 Q 162 228 151 236 Q 149 237 147 234 Q 143 229 143 222 Q 141 217 144 213 Q 149 204 151 189 Q 151 186 152 184 Q 152 184 152 184 Q 157 149 153 130 L 161 117 Q 164 119 164 119 L 167 127 Q 166 133 165 148 L 165 156 Q 164 166 163 179 L 163 188" fill="#000080" clip-path="url(#clip-mask-11)" /><path d="M 164 119 Q 186 115 202 105 Q 206 103 211 105 Q 221 109 227 114 Q 230 117 227 122 L 206 119 Q 204 117 199 118 Q 171 127 167 127" fill="#000080" clip-path="url(#clip-mask-12)" /><path d="M 227 122 Q 221 135 229 217 Q 228 237 218 249 Q 216 252 213 251 Q 209 249 205 244 L 208 223 Q 210 220 211 213 Q 212 181 208 128 Q 208 121 206 119" fill="#000080" clip-path="url(#clip-mask-13)" /><path d="M 205 244 Q 198 234 184 221 Q 183 218 189 220 Q 196 222 202 223 Q 207 224 208 223" fill="#000080" clip-path="url(#clip-mask-14)" /><path d="M 165 148 Q 177 142 187 142 Q 193 142 197 146 Q 199 148 193 150 Q 181 153 165 156" fill="#000080" clip-path="url(#clip-mask-15)" /><path d="M 163 179 Q 177 172 188 173 Q 195 174 198 178 Q 201 182 195 183 Q 181 184 163 188" fill="#000080" clip-path="url(#clip-mask-16)" /></svg>