<svg xmlns="http://www.w3.org/2000/svg" xmlns:xlink="http://www.w3.org/1999/xlink" width="270" height="270"><defs><clipPath id="clip-mask-1"><rect x="48" y="35" width="32" height="43"><animate attributeName="y" from="-8" to="35" dur="0.159" begin="0; animate23.end + 1" id="animate1" fill="freeze"/></rect></clipPath><clipPath id="clip-mask-2"><rect x="67" y="47" width="59" height="21"><set attributeName="x" to="8" begin="0; animate23.end + 1" /><animate attributeName="x" from="8" to="67" dur="0.219" begin="animate1.end + 0.5" id="animate2" fill="freeze"/></rect></clipPath><clipPath id="clip-mask-3"><rect x="86" y="21" width="22" height="59"><set attributeName="y" to="-38" begin="0; animate23.end + 1" /><animate attributeName="y" from="-38" to="21" dur="0.219" begin="animate2.end + 0.5" id="animate3" fill="freeze"/></rect></clipPath><clipPath id="clip-mask-4"><rect x="24" y="74" width="98" height="31"><set attributeName="x" to="-74" begin="0; animate23.end + 1" /><animate attributeName="x" from="-74" to="24" dur="0.363" begin="animate3.end + 0.5" id="animate4" fill="freeze"/></rect></clipPath><clipPath id="clip-mask-5"><rect x="39" y="91" width="50" height="53"><set attributeName="y" to="38" begin="0; animate23.end + 1" /><animate attributeName="y" from="38" to="91" dur="0.196" begin="animate4.end + 0.5" id="animate5" fill="freeze"/></rect></clipPath><clipPath id="clip-mask-6"><rect x="87" y="87" width="21" height="42"><set attributeName="y" to="45" begin="0; animate23.end + 1" /><animate attributeName="y" from="45" to="87" dur="0.156" begin="animate5.end + 0.5" id="animate6" fill="freeze"/></rect></clipPath><clipPath id="clip-mask-7"><rect x="99" y="97" width="35" height="29"><set attributeName="x" to="64" begin="0; animate23.end + 1" /><animate attributeName="x" from="64" to="99" dur="0.130" begin="animate6.end" id="animate7" fill="freeze"/></rect></clipPath><clipPath id="clip-mask-8"><rect x="123" y="28" width="31" height="45"><set attributeName="y" to="-17" begin="0; animate23.end + 1" /><animate attributeName="y" from="-17" to="28" dur="0.167" begin="animate7.end + 0.5" id="animate8" fill="freeze"/></rect></clipPath><clipPath id="clip-mask-9"><rect x="145" y="35" width="59" height="19"><set attributeName="x" to="86" begin="0; animate23.end + 1" /><animate attributeName="x" from="86" to="145" dur="0.219" begin="animate8.end + 0.5" id="animate9" fill="freeze"/></rect></clipPath><clipPath id="clip-mask-10"><rect x="163" y="12" width="22" height="56"><set attributeName="y" to="-44" begin="0; animate23.end + 1" /><animate attributeName="y" from="-44" to="12" dur="0.207" begin="animate9.end + 0.5" id="animate10" fill="freeze"/></rect></clipPath><clipPath id="clip-mask-11"><rect x="127" y="58" width="93" height="25"><set attributeName="x" to="34" begin="0; animate23.end + 1" /><animate attributeName="x" from="34" to="127" dur="0.344" begin="animate10.end + 0.5" id="animate11" fill="freeze"/></rect></clipPath><clipPath id="clip-mask-12"><rect x="131" y="78" width="34" height="39"><set attributeName="y" to="39" begin="0; animate23.end + 1" /><animate attributeName="y" from="39" to="78" dur="0.144" begin="animate11.end + 0.5" id="animate12" fill="freeze"/></rect></clipPath><clipPath id="clip-mask-13"><rect x="174" y="74" width="15" height="35"><set attributeName="y" to="39" begin="0; animate23.end + 1" /><animate attributeName="y" from="39" to="74" dur="0.130" begin="animate12.end + 0.5" id="animate13" fill="freeze"/></rect></clipPath><clipPath id="clip-mask-14"><rect x="182" y="97" width="63" height="24"><set attributeName="x" to="119" begin="0; animate23.end + 1" /><animate attributeName="x" from="119" to="182" dur="0.233" begin="animate13.end" id="animate14" fill="freeze"/></rect></clipPath><clipPath id="clip-mask-15"><rect x="224" y="77" width="18" height="22"><set attributeName="y" to="99" begin="0; animate23.end + 1" /><animate attributeName="y" from="99" to="77" dur="0.081" begin="animate14.end" id="animate15" fill="freeze"/></rect></clipPath><clipPath id="clip-mask-16"><rect x="93" y="130" width="17" height="81"><set attributeName="y" to="49" begin="0; animate23.end + 1" /><animate attributeName="y" from="49" to="130" dur="0.300" begin="animate15.end + 0.5" id="animate16" fill="freeze"/></rect></clipPath><clipPath id="clip-mask-17"><rect x="106" y="119" width="78" height="22"><set attributeName="x" to="28" begin="0; animate23.end + 1" /><animate attributeName="x" from="28" to="106" dur="0.289" begin="animate16.end + 0.5" id="animate17" fill="freeze"/></rect></clipPath><clipPath id="clip-mask-18"><rect x="162" y="130" width="24" height="80"><set attributeName="y" to="50" begin="0; animate23.end + 1" /><animate attributeName="y" from="50" to="130" dur="0.296" begin="animate17.end" id="animate18" fill="freeze"/></rect></clipPath><clipPath id="clip-mask-19"><rect x="109" y="149" width="45" height="15"><set attributeName="x" to="64" begin="0; animate23.end + 1" /><animate attributeName="x" from="64" to="109" dur="0.167" begin="animate18.end + 0.5" id="animate19" fill="freeze"/></rect></clipPath><clipPath id="clip-mask-20"><rect x="109" y="170" width="49" height="14"><set attributeName="x" to="60" begin="0; animate23.end + 1" /><animate attributeName="x" from="60" to="109" dur="0.181" begin="animate19.end + 0.5" id="animate20" fill="freeze"/></rect></clipPath><clipPath id="clip-mask-21"><rect x="107" y="191" width="57" height="14"><set attributeName="x" to="50" begin="0; animate23.end + 1" /><animate attributeName="x" from="50" to="107" dur="0.211" begin="animate20.end + 0.5" id="animate21" fill="freeze"/></rect></clipPath><clipPath id="clip-mask-22"><rect x="58" y="211" width="68" height="46"><set attributeName="y" to="165" begin="0; animate23.end + 1" /><animate attributeName="y" from="165" to="211" dur="0.170" begin="animate21.end + 0.5" id="animate22" fill="freeze"/></rect></clipPath><clipPath id="clip-mask-23"><rect x="152" y="213" width="48" height="44"><set attributeName="x" to="104" begin="0; animate23.end + 1" /><animate attributeName="x" from="104" to="152" dur="0.178" begin="animate22.end + 0.5" id="animate23" fill="freeze"/></rect></clipPath></defs><path d="M 0 0 L 270 270 M 270 0 L 0 270 M 135 0 L 135 270 M 0 135 L 270 135" stroke="#CCCCCC" /><path d="M 67 64 Q 61 72 50 78 Q 48 77 49 76 Q 56 67 58 63 Q 68 47 64 39 Q 64 37 65 37 Q 71 35 77 39 Q 80 41 80 43 Q 80 44 78 48 Q 73 55 70 60" fill="#CCCCCC"/><path d="M 92 64 Q 73 68 67 64 L 70 60 Q 81 58 90 56 Q 91 55 92 55 L 103 52 Q 111 47 118 49 Q 124 50 125 53 Q 126 54 125 56 Q 124 57 116 59 Q 109 60 102 62" fill="#CCCCCC"/><path d="M 92 80 Q 92 71 92 64 L 92 55 Q 92 45 91 35 Q 91 32 88 27 Q 86 25 88 23 Q 90 21 93 22 Q 98 23 104 27 Q 108 30 107 32 Q 107 34 106 36 Q 105 39 104 43 Q 104 47 103 52 L 102 62 Q 101 70 100 78" fill="#CCCCCC"/><path d="M 88 89 L 83 91 L 75 92 Q 62 96 44 102 Q 36 105 27 100 Q 24 97 25 95 Q 25 93 28 93 Q 50 90 92 80 L 100 78 Q 111 74 119 77 Q 122 79 122 81 Q 122 83 119 83 Q 109 85 102 87 L 96 88" fill="#CCCCCC"/><path d="M 83 91 Q 85 93 88 98 Q 89 100 87 102 Q 85 104 82 109 Q 58 139 40 144 Q 39 144 39 143 Q 40 141 42 140 Q 77 107 75 92" fill="#CCCCCC"/><path d="M 102 87 Q 104 88 106 91 Q 108 93 105 103 Q 104 107 105 108 L 99 126 Q 97 129 95 127 L 95 127 Q 87 119 93 112 Q 100 102 96 88" fill="#CCCCCC"/><path d="M 105 108 Q 107 108 130 98 Q 134 97 133 99 Q 133 101 130 102 Q 106 119 99 126" fill="#CCCCCC"/><path d="M 145 51 Q 134 71 125 72 Q 123 73 124 70 Q 125 68 127 65 Q 140 44 138 32 Q 137 29 139 28 Q 143 28 151 33 Q 154 35 152 37 Q 150 42 147 47" fill="#CCCCCC"/><path d="M 169 52 Q 153 54 153 54 Q 148 53 145 51 L 147 47 Q 158 46 169 43 L 181 40 Q 190 35 196 37 Q 202 38 203 40 Q 204 42 203 43 Q 202 44 179 50" fill="#CCCCCC"/><path d="M 169 68 Q 169 59 169 52 L 169 43 Q 167 22 164 18 Q 163 15 164 14 Q 166 12 169 13 Q 174 14 181 18 Q 185 21 184 23 Q 184 25 183 27 Q 181 32 181 40 L 179 50 Q 178 58 177 66" fill="#CCCCCC"/><path d="M 163 76 L 159 78 L 152 79 Q 148 80 145 81 Q 135 83 130 79 Q 127 76 131 75 Q 151 72 169 68 L 177 66 Q 188 64 196 62 Q 206 58 217 65 Q 220 67 219 70 Q 218 71 215 71 Q 212 72 208 72 Q 193 72 181 74 L 174 75" fill="#CCCCCC"/><path d="M 159 78 Q 161 80 164 83 Q 165 86 164 88 Q 162 89 160 93 Q 145 113 132 117 Q 131 117 131 116 Q 132 115 133 114 Q 154 89 152 79" fill="#CCCCCC"/><path d="M 181 74 Q 189 77 187 82 Q 185 94 186 97 L 182 109 Q 176 103 177 92 Q 177 84 175 77 Q 174 75 174 75" fill="#CCCCCC"/><path d="M 186 97 Q 187 100 191 101 Q 203 105 216 102 Q 222 100 224 99 L 242 98 Q 245 103 241 106 Q 235 111 228 113 Q 200 121 182 109" fill="#CCCCCC"/><path d="M 224 99 Q 227 94 232 81 Q 233 77 234 78 Q 235 79 236 82 Q 240 94 242 98" fill="#CCCCCC"/><path d="M 106 207 L 105 208 Q 103 211 101 208 Q 93 198 97 187 Q 99 178 99 168 Q 99 150 96 134 Q 95 132 96 131 Q 99 130 100 131 Q 103 132 105 133 Q 105 134 106 134 L 110 141 Q 110 142 110 144 Q 110 145 110 158 L 109 163 Q 109 170 109 178 L 109 184 Q 109 194 108 199 L 107 205" fill="#CCCCCC"/><path d="M 106 134 Q 139 129 156 121 Q 162 119 166 120 Q 177 125 184 130 L 162 133 Q 158 128 115 140 Q 113 141 110 141" fill="#CCCCCC"/><path d="M 164 193 Q 164 193 164 192 Q 166 185 165 149 Q 165 136 162 133 L 184 130 Q 186 133 184 137 Q 177 148 181 186 Q 180 197 178 202 Q 174 209 171 210 Q 169 210 166 203 Q 165 202 164 201" fill="#CCCCCC"/><path d="M 110 158 Q 119 155 130 152 Q 139 149 144 150 Q 150 150 152 154 Q 154 156 149 157 Q 134 160 114 163 Q 111 164 109 163" fill="#CCCCCC"/><path d="M 109 178 Q 144 170 149 171 Q 154 172 156 175 Q 158 178 153 179 Q 135 181 112 184 Q 110 184 109 184" fill="#CCCCCC"/><path d="M 108 199 Q 126 196 146 193 Q 155 191 161 192 Q 163 193 164 193 L 164 201 Q 143 203 113 205 Q 110 205 107 205" fill="#CCCCCC"/><path d="M 107 212 L 109 212 Q 112 211 119 215 Q 125 218 125 221 Q 126 224 123 226 Q 113 233 110 235 Q 81 257 65 256 Q 58 256 64 253 Q 101 229 106 215" fill="#CCCCCC"/><path d="M 152 220 L 152 216 Q 152 213 154 214 Q 192 225 196 240 Q 200 251 197 254 Q 195 257 193 257 Q 189 256 185 251 Q 168 234 154 222" fill="#CCCCCC"/><path d="M 67 64 Q 61 72 50 78 Q 48 77 49 76 Q 56 67 58 63 Q 68 47 64 39 Q 64 37 65 37 Q 71 35 77 39 Q 80 41 80 43 Q 80 44 78 48 Q 73 55 70 60" fill="#000080" clip-path="url(#clip-mask-1)" /><path d="M 92 64 Q 73 68 67 64 L 70 60 Q 81 58 90 56 Q 91 55 92 55 L 103 52 Q 111 47 118 49 Q 124 50 125 53 Q 126 54 125 56 Q 124 57 116 59 Q 109 60 102 62" fill="#000080" clip-path="url(#clip-mask-2)" /><path d="M 92 80 Q 92 71 92 64 L 92 55 Q 92 45 91 35 Q 91 32 88 27 Q 86 25 88 23 Q 90 21 93 22 Q 98 23 104 27 Q 108 30 107 32 Q 107 34 106 36 Q 105 39 104 43 Q 104 47 103 52 L 102 62 Q 101 70 100 78" fill="#000080" clip-path="url(#clip-mask-3)" /><path d="M 88 89 L 83 91 L 75 92 Q 62 96 44 102 Q 36 105 27 100 Q 24 97 25 95 Q 25 93 28 93 Q 50 90 92 80 L 100 78 Q 111 74 119 77 Q 122 79 122 81 Q 122 83 119 83 Q 109 85 102 87 L 96 88" fill="#000080" clip-path="url(#clip-mask-4)" /><path d="M 83 91 Q 85 93 88 98 Q 89 100 87 102 Q 85 104 82 109 Q 58 139 40 144 Q 39 144 39 143 Q 40 141 42 140 Q 77 107 75 92" fill="#000080" clip-path="url(#clip-mask-5)" /><path d="M 102 87 Q 104 88 106 91 Q 108 93 105 103 Q 104 107 105 108 L 99 126 Q 97 129 95 127 L 95 127 Q 87 119 93 112 Q 100 102 96 88" fill="#000080" clip-path="url(#clip-mask-6)" /><path d="M 105 108 Q 107 108 130 98 Q 134 97 133 99 Q 133 101 130 102 Q 106 119 99 126" fill="#000080" clip-path="url(#clip-mask-7)" /><path d="M 145 51 Q 134 71 125 72 Q 123 73 124 70 Q 125 68 127 65 Q 140 44 138 32 Q 137 29 139 28 Q 143 28 151 33 Q 154 35 152 37 Q 150 42 147 47" fill="#000080" clip-path="url(#clip-mask-8)" /><path d="M 169 52 Q 153 54 153 54 Q 148 53 145 51 L 147 47 Q 158 46 169 43 L 181 40 Q 190 35 196 37 Q 202 38 203 40 Q 204 42 203 43 Q 202 44 179 50" fill="#000080" clip-path="url(#clip-mask-9)" /><path d="M 169 68 Q 169 59 169 52 L 169 43 Q 167 22 164 18 Q 163 15 164 14 Q 166 12 169 13 Q 174 14 181 18 Q 185 21 184 23 Q 184 25 183 27 Q 181 32 181 40 L 179 50 Q 178 58 177 66" fill="#000080" clip-path="url(#clip-mask-10)" /><path d="M 163 76 L 159 78 L 152 79 Q 148 80 145 81 Q 135 83 130 79 Q 127 76 131 75 Q 151 72 169 68 L 177 66 Q 188 64 196 62 Q 206 58 217 65 Q 220 67 219 70 Q 218 71 215 71 Q 212 72 208 72 Q 193 72 181 74 L 174 75" fill="#000080" clip-path="url(#clip-mask-11)" /><path d="M 159 78 Q 161 80 164 83 Q 165 86 164 88 Q 162 89 160 93 Q 145 113 132 117 Q 131 117 131 116 Q 132 115 133 114 Q 154 89 152 79" fill="#000080" clip-path="url(#clip-mask-12)" /><path d="M 181 74 Q 189 77 187 82 Q 185 94 186 97 L 182 109 Q 176 103 177 92 Q 177 84 175 77 Q 174 75 174 75" fill="#000080" clip-path="url(#clip-mask-13)" /><path d="M 186 97 Q 187 100 191 101 Q 203 105 216 102 Q 222 100 224 99 L 242 98 Q 245 103 241 106 Q 235 111 228 113 Q 200 121 182 109" fill="#000080" clip-path="url(#clip-mask-14)" /><path d="M 224 99 Q 227 94 232 81 Q 233 77 234 78 Q 235 79 236 82 Q 240 94 242 98" fill="#000080" clip-path="url(#clip-mask-15)" /><path d="M 106 207 L 105 208 Q 103 211 101 208 Q 93 198 97 187 Q 99 178 99 168 Q 99 150 96 134 Q 95 132 96 131 Q 99 130 100 131 Q 103 132 105 133 Q 105 134 106 134 L 110 141 Q 110 142 110 144 Q 110 145 110 158 L 109 163 Q 109 170 109 178 L 109 184 Q 109 194 108 199 L 107 205" fill="#0000ff" clip-path="url(#clip-mask-16)" /><path d="M 106 134 Q 139 129 156 121 Q 162 119 166 120 Q 177 125 184 130 L 162 133 Q 158 128 115 140 Q 113 141 110 141" fill="#0000ff" clip-path="url(#clip-mask-17)" /><path d="M 164 193 Q 164 193 164 192 Q 166 185 165 149 Q 165 136 162 133 L 184 130 Q 186 133 184 137 Q 177 148 181 186 Q 180 197 178 202 Q 174 209 171 210 Q 169 210 166 203 Q 165 202 164 201" fill="#0000ff" clip-path="url(#clip-mask-18)" /><path d="M 110 158 Q 119 155 130 152 Q 139 149 144 150 Q 150 150 152 154 Q 154 156 149 157 Q 134 160 114 163 Q 111 164 109 163" fill="#0000ff" clip-path="url(#clip-mask-19)" /><path d="M 109 178 Q 144 170 149 171 Q 154 172 156 175 Q 158 178 153 179 Q 135 181 112 184 Q 110 184 109 184" fill="#0000ff" clip-path="url(#clip-mask-20)" /><path d="M 108 199 Q 126 196 146 193 Q 155 191 161 192 Q 163 193 164 193 L 164 201 Q 143 203 113 205 Q 110 205 107 205" fill="#0000ff" clip-path="url(#clip-mask-21)" /><path d="M 107 212 L 109 212 Q 112 211 119 215 Q 125 218 125 221 Q 126 224 123 226 Q 113 233 110 235 Q 81 257 65 256 Q 58 256 64 253 Q 101 229 106 215" fill="#0000ff" clip-path="url(#clip-mask-22)" /><path d="M 152 220 L 152 216 Q 152 213 154 214 Q 192 225 196 240 Q 200 251 197 254 Q 195 257 193 257 Q 189 256 185 251 Q 168 234 154 222" fill="#0000ff" clip-path="url(#clip-mask-23)" /></svg>