<svg xmlns="http://www.w3.org/2000/svg" xmlns:xlink="http://www.w3.org/1999/xlink" width="270" height="270"><defs><clipPath id="clip-mask-1"><rect x="54" y="74" width="79" height="27"><animate attributeName="x" from="-25" to="54" dur="0.293" begin="0; animate9.end + 1" id="animate1" fill="freeze"/></rect></clipPath><clipPath id="clip-mask-2"><rect x="83" y="29" width="29" height="93"><set attributeName="y" to="-64" begin="0; animate9.end + 1" /><animate attributeName="y" from="-64" to="29" dur="0.344" begin="animate1.end + 0.5" id="animate2" fill="freeze"/></rect></clipPath><clipPath id="clip-mask-3"><rect x="14" y="111" width="130" height="41"><set attributeName="x" to="-116" begin="0; animate9.end + 1" /><animate attributeName="x" from="-116" to="14" dur="0.481" begin="animate2.end + 0.5" id="animate3" fill="freeze"/></rect></clipPath><clipPath id="clip-mask-4"><rect x="90" y="130" width="18" height="63"><set attributeName="y" to="67" begin="0; animate9.end + 1" /><animate attributeName="y" from="67" to="130" dur="0.233" begin="animate3.end + 0.5" id="animate4" fill="freeze"/></rect></clipPath><clipPath id="clip-mask-5"><rect x="106" y="150" width="37" height="14"><set attributeName="x" to="69" begin="0; animate9.end + 1" /><animate attributeName="x" from="69" to="106" dur="0.137" begin="animate4.end + 0.5" id="animate5" fill="freeze"/></rect></clipPath><clipPath id="clip-mask-6"><rect x="16" y="152" width="61" height="76"><set attributeName="y" to="76" begin="0; animate9.end + 1" /><animate attributeName="y" from="76" to="152" dur="0.281" begin="animate5.end + 0.5" id="animate6" fill="freeze"/></rect></clipPath><clipPath id="clip-mask-7"><rect x="66" y="174" width="189" height="72"><set attributeName="x" to="-123" begin="0; animate9.end + 1" /><animate attributeName="x" from="-123" to="66" dur="0.700" begin="animate6.end + 0.5" id="animate7" fill="freeze"/></rect></clipPath><clipPath id="clip-mask-8"><rect x="158" y="23" width="33" height="190"><set attributeName="y" to="-167" begin="0; animate9.end + 1" /><animate attributeName="y" from="-167" to="23" dur="0.704" begin="animate7.end + 0.5" id="animate8" fill="freeze"/></rect></clipPath><clipPath id="clip-mask-9"><rect x="181" y="101" width="57" height="28"><set attributeName="x" to="124" begin="0; animate9.end + 1" /><animate attributeName="x" from="124" to="181" dur="0.211" begin="animate8.end + 0.5" id="animate9" fill="freeze"/></rect></clipPath></defs><path d="M 0 0 L 270 270 M 270 0 L 0 270 M 135 0 L 135 270 M 0 135 L 270 135" stroke="#CCCCCC" /><path d="M 92 95 Q 91 95 90 96 Q 73 101 61 95 Q 54 91 64 89 Q 76 87 88 84 Q 90 83 92 83 L 106 78 Q 114 74 122 75 Q 130 77 132 80 Q 133 82 131 84 Q 130 86 106 92" fill="#CCCCCC"/><path d="M 92 122 Q 92 108 92 95 L 92 83 Q 91 66 90 50 Q 90 45 85 37 Q 83 33 84 31 Q 87 29 91 29 Q 97 31 107 36 Q 112 40 112 42 Q 107 60 106 78 L 106 92 Q 105 105 104 119" fill="#CCCCCC"/><path d="M 90 132 Q 79 133 38 149 Q 28 152 18 146 Q 14 143 15 140 Q 16 138 19 138 Q 43 135 92 122 L 104 119 Q 115 116 127 112 Q 133 111 140 114 Q 144 116 144 119 Q 144 121 140 122 Q 119 125 101 130" fill="#CCCCCC"/><path d="M 93 187 Q 93 179 93 172 Q 92 136 90 132 L 101 130 Q 104 132 108 135 L 108 136 Q 108 136 107 157 L 106 164 Q 106 177 105 193" fill="#CCCCCC"/><path d="M 107 157 Q 109 155 111 154 Q 122 150 129 150 Q 137 150 140 154 Q 143 157 136 159 Q 107 164 106 164" fill="#CCCCCC"/><path d="M 64 184 L 61 188 Q 51 207 31 221 Q 25 226 20 227 Q 16 228 18 224 Q 27 213 30 212 Q 57 181 54 157 Q 54 153 56 153 Q 63 152 74 160 Q 77 164 75 167 Q 72 170 70 174 L 66 180" fill="#CCCCCC"/><path d="M 70 174 Q 82 180 93 187 L 105 193 Q 115 198 126 203 Q 173 223 210 222 Q 226 221 250 221 Q 255 221 254 224 Q 252 227 245 230 Q 231 235 218 239 Q 196 246 188 245 Q 118 216 66 180 L 66 180" fill="#CCCCCC"/><path d="M 181 108 Q 181 117 181 127 Q 180 197 176 207 Q 173 213 170 209 Q 167 205 167 197 Q 166 180 166 164 Q 168 137 168 55 Q 167 36 161 31 Q 158 28 160 26 Q 164 23 169 24 Q 179 27 186 32 Q 191 36 188 41 Q 183 48 182 101" fill="#CCCCCC"/><path d="M 224 101 L 231 112 Q 238 121 236 125 Q 235 128 233 128 Q 230 129 224 126 Q 200 114 181 108 L 182 101" fill="#CCCCCC"/><path d="M 92 95 Q 91 95 90 96 Q 73 101 61 95 Q 54 91 64 89 Q 76 87 88 84 Q 90 83 92 83 L 106 78 Q 114 74 122 75 Q 130 77 132 80 Q 133 82 131 84 Q 130 86 106 92" fill="#0000ff" clip-path="url(#clip-mask-1)" /><path d="M 92 122 Q 92 108 92 95 L 92 83 Q 91 66 90 50 Q 90 45 85 37 Q 83 33 84 31 Q 87 29 91 29 Q 97 31 107 36 Q 112 40 112 42 Q 107 60 106 78 L 106 92 Q 105 105 104 119" fill="#0000ff" clip-path="url(#clip-mask-2)" /><path d="M 90 132 Q 79 133 38 149 Q 28 152 18 146 Q 14 143 15 140 Q 16 138 19 138 Q 43 135 92 122 L 104 119 Q 115 116 127 112 Q 133 111 140 114 Q 144 116 144 119 Q 144 121 140 122 Q 119 125 101 130" fill="#0000ff" clip-path="url(#clip-mask-3)" /><path d="M 93 187 Q 93 179 93 172 Q 92 136 90 132 L 101 130 Q 104 132 108 135 L 108 136 Q 108 136 107 157 L 106 164 Q 106 177 105 193" fill="#0000ff" clip-path="url(#clip-mask-4)" /><path d="M 107 157 Q 109 155 111 154 Q 122 150 129 150 Q 137 150 140 154 Q 143 157 136 159 Q 107 164 106 164" fill="#0000ff" clip-path="url(#clip-mask-5)" /><path d="M 64 184 L 61 188 Q 51 207 31 221 Q 25 226 20 227 Q 16 228 18 224 Q 27 213 30 212 Q 57 181 54 157 Q 54 153 56 153 Q 63 152 74 160 Q 77 164 75 167 Q 72 170 70 174 L 66 180" fill="#0000ff" clip-path="url(#clip-mask-6)" /><path d="M 70 174 Q 82 180 93 187 L 105 193 Q 115 198 126 203 Q 173 223 210 222 Q 226 221 250 221 Q 255 221 254 224 Q 252 227 245 230 Q 231 235 218 239 Q 196 246 188 245 Q 118 216 66 180 L 66 180" fill="#0000ff" clip-path="url(#clip-mask-7)" /><path d="M 181 108 Q 181 117 181 127 Q 180 197 176 207 Q 173 213 170 209 Q 167 205 167 197 Q 166 180 166 164 Q 168 137 168 55 Q 167 36 161 31 Q 158 28 160 26 Q 164 23 169 24 Q 179 27 186 32 Q 191 36 188 41 Q 183 48 182 101" fill="#000080" clip-path="url(#clip-mask-8)" /><path d="M 224 101 L 231 112 Q 238 121 236 125 Q 235 128 233 128 Q 230 129 224 126 Q 200 114 181 108 L 182 101" fill="#000080" clip-path="url(#clip-mask-9)" /></svg>