<svg xmlns="http://www.w3.org/2000/svg" xmlns:xlink="http://www.w3.org/1999/xlink" width="270" height="270"><defs><clipPath id="clip-mask-1"><rect x="38" y="60" width="24" height="57"><animate attributeName="y" from="3" to="60" dur="0.211" begin="0; animate19.end + 1" id="animate1" fill="freeze"/></rect></clipPath><clipPath id="clip-mask-2"><rect x="54" y="48" width="67" height="23"><set attributeName="x" to="-13" begin="0; animate19.end + 1" /><animate attributeName="x" from="-13" to="54" dur="0.248" begin="animate1.end + 0.5" id="animate2" fill="freeze"/></rect></clipPath><clipPath id="clip-mask-3"><rect x="88" y="66" width="26" height="28"><set attributeName="y" to="38" begin="0; animate19.end + 1" /><animate attributeName="y" from="38" to="66" dur="0.104" begin="animate2.end" id="animate3" fill="freeze"/></rect></clipPath><clipPath id="clip-mask-4"><rect x="62" y="93" width="44" height="15"><set attributeName="x" to="18" begin="0; animate19.end + 1" /><animate attributeName="x" from="18" to="62" dur="0.163" begin="animate3.end + 0.5" id="animate4" fill="freeze"/></rect></clipPath><clipPath id="clip-mask-5"><rect x="68" y="105" width="20" height="77"><set attributeName="y" to="28" begin="0; animate19.end + 1" /><animate attributeName="y" from="28" to="105" dur="0.285" begin="animate4.end + 0.5" id="animate5" fill="freeze"/></rect></clipPath><clipPath id="clip-mask-6"><rect x="85" y="128" width="27" height="15"><set attributeName="x" to="58" begin="0; animate19.end + 1" /><animate attributeName="x" from="58" to="85" dur="0.100" begin="animate5.end + 0.5" id="animate6" fill="freeze"/></rect></clipPath><clipPath id="clip-mask-7"><rect x="30" y="135" width="25" height="56"><set attributeName="y" to="79" begin="0; animate19.end + 1" /><animate attributeName="y" from="79" to="135" dur="0.207" begin="animate6.end + 0.5" id="animate7" fill="freeze"/></rect></clipPath><clipPath id="clip-mask-8"><rect x="17" y="170" width="89" height="44"><set attributeName="x" to="-72" begin="0; animate19.end + 1" /><animate attributeName="x" from="-72" to="17" dur="0.330" begin="animate7.end + 0.5" id="animate8" fill="freeze"/></rect></clipPath><clipPath id="clip-mask-9"><rect x="127" y="21" width="46" height="65"><set attributeName="y" to="-44" begin="0; animate19.end + 1" /><animate attributeName="y" from="-44" to="21" dur="0.241" begin="animate8.end + 0.5" id="animate9" fill="freeze"/></rect></clipPath><clipPath id="clip-mask-10"><rect x="156" y="43" width="54" height="18"><set attributeName="x" to="102" begin="0; animate19.end + 1" /><animate attributeName="x" from="102" to="156" dur="0.200" begin="animate9.end + 0.5" id="animate10" fill="freeze"/></rect></clipPath><clipPath id="clip-mask-11"><rect x="163" y="58" width="42" height="40"><set attributeName="y" to="18" begin="0; animate19.end + 1" /><animate attributeName="y" from="18" to="58" dur="0.148" begin="animate10.end" id="animate11" fill="freeze"/></rect></clipPath><clipPath id="clip-mask-12"><rect x="136" y="86" width="90" height="26"><set attributeName="x" to="46" begin="0; animate19.end + 1" /><animate attributeName="x" from="46" to="136" dur="0.333" begin="animate11.end + 0.5" id="animate12" fill="freeze"/></rect></clipPath><clipPath id="clip-mask-13"><rect x="73" y="92" width="65" height="156"><set attributeName="y" to="-64" begin="0; animate19.end + 1" /><animate attributeName="y" from="-64" to="92" dur="0.578" begin="animate12.end + 0.5" id="animate13" fill="freeze"/></rect></clipPath><clipPath id="clip-mask-14"><rect x="154" y="122" width="59" height="20"><set attributeName="x" to="95" begin="0; animate19.end + 1" /><animate attributeName="x" from="95" to="154" dur="0.219" begin="animate13.end + 0.5" id="animate14" fill="freeze"/></rect></clipPath><clipPath id="clip-mask-15"><rect x="187" y="136" width="23" height="53"><set attributeName="y" to="83" begin="0; animate19.end + 1" /><animate attributeName="y" from="83" to="136" dur="0.196" begin="animate14.end" id="animate15" fill="freeze"/></rect></clipPath><clipPath id="clip-mask-16"><rect x="162" y="163" width="27" height="29"><set attributeName="x" to="189" begin="0; animate19.end + 1" /><animate attributeName="x" from="189" to="162" dur="0.100" begin="animate15.end" id="animate16" fill="freeze"/></rect></clipPath><clipPath id="clip-mask-17"><rect x="142" y="131" width="18" height="96"><set attributeName="y" to="35" begin="0; animate19.end + 1" /><animate attributeName="y" from="35" to="131" dur="0.356" begin="animate16.end + 0.5" id="animate17" fill="freeze"/></rect></clipPath><clipPath id="clip-mask-18"><rect x="156" y="210" width="96" height="34"><set attributeName="x" to="60" begin="0; animate19.end + 1" /><animate attributeName="x" from="60" to="156" dur="0.356" begin="animate17.end" id="animate18" fill="freeze"/></rect></clipPath><clipPath id="clip-mask-19"><rect x="210" y="178" width="39" height="41"><set attributeName="y" to="219" begin="0; animate19.end + 1" /><animate attributeName="y" from="219" to="178" dur="0.152" begin="animate18.end" id="animate19" fill="freeze"/></rect></clipPath></defs><path d="M 0 0 L 270 270 M 270 0 L 0 270 M 135 0 L 135 270 M 0 135 L 270 135" stroke="#CCCCCC" /><path d="M 62 107 Q 62 111 62 113 Q 60 117 56 111 Q 52 107 51 101 Q 46 80 40 67 Q 38 63 39 62 Q 40 60 43 61 Q 51 62 54 64 L 58 71 Q 59 78 62 100" fill="#CCCCCC"/><path d="M 95 66 Q 93 62 85 64 Q 66 68 58 71 L 54 64 Q 72 60 86 54 Q 97 48 103 51 Q 110 56 115 59 Q 121 64 114 70" fill="#CCCCCC"/><path d="M 88 93 Q 91 83 94 75 Q 96 67 95 66 L 114 70 Q 108 75 102 94" fill="#CCCCCC"/><path d="M 68 107 Q 67 107 66 107 Q 64 108 62 107 L 62 100 Q 73 97 88 93 L 102 94 Q 106 96 106 98 Q 106 100 103 100 Q 87 102 78 105" fill="#CCCCCC"/><path d="M 72 182 Q 72 154 72 139 Q 71 113 68 107 L 78 105 Q 88 111 86 118 Q 85 125 85 133 L 85 143 Q 83 159 83 178" fill="#CCCCCC"/><path d="M 85 133 Q 94 129 99 129 Q 106 128 109 132 Q 112 135 107 136 Q 97 139 85 143" fill="#CCCCCC"/><path d="M 40 163 L 39 156 Q 36 148 32 141 Q 30 138 32 136 Q 34 135 38 136 Q 45 137 50 142 Q 54 145 54 150 Q 53 157 55 188 L 45 191" fill="#CCCCCC"/><path d="M 55 188 Q 63 184 72 182 L 83 178 Q 93 174 101 171 Q 105 170 106 171 Q 106 174 103 176 Q 71 194 40 212 Q 37 214 35 213 Q 26 209 20 205 Q 17 203 18 200 Q 18 197 21 196 Q 29 196 34 195 Q 39 193 45 191" fill="#CCCCCC"/><path d="M 156 59 Q 136 84 130 85 Q 127 86 128 83 Q 129 82 130 79 Q 148 53 154 33 Q 155 29 153 26 Q 151 21 155 21 Q 159 21 165 24 Q 171 28 172 31 Q 172 32 173 33 Q 173 33 159 54" fill="#CCCCCC"/><path d="M 181 58 Q 180 58 179 58 Q 160 61 156 59 L 159 54 Q 163 53 167 52 Q 184 47 186 46 Q 190 43 194 45 Q 204 50 207 53 Q 210 56 205 59" fill="#CCCCCC"/><path d="M 163 98 Q 164 96 165 94 Q 171 84 181 62 Q 182 59 181 58 L 205 59 Q 198 64 170 97" fill="#CCCCCC"/><path d="M 150 100 L 163 98 L 170 97 Q 170 96 171 96 Q 187 93 202 88 Q 209 86 216 87 Q 223 89 224 92 Q 226 94 223 96 Q 221 98 209 100 Q 181 105 153 110 Q 146 112 139 110 Q 139 110 138 110 Q 138 110 138 111 L 136 101" fill="#CCCCCC"/><path d="M 138 111 Q 137 114 136 119 Q 126 177 110 208 Q 107 214 103 219 Q 85 246 75 248 Q 73 248 73 246 Q 74 244 75 243 Q 95 215 105 193 Q 115 166 121 118 Q 122 106 118 99 Q 116 95 120 94 Q 123 92 127 95 Q 133 98 136 101" fill="#CCCCCC"/><path d="M 163 133 L 173 130 Q 186 127 189 125 Q 194 122 198 124 Q 209 128 211 131 Q 213 133 210 136 L 190 136 Q 189 136 187 136 Q 175 138 160 142 L 154 135" fill="#CCCCCC"/><path d="M 210 136 Q 206 141 204 154 Q 198 181 187 189 L 189 163 Q 191 157 191 143 Q 191 138 190 136" fill="#CCCCCC"/><path d="M 187 189 Q 184 192 181 188 Q 176 182 167 174 Q 162 169 168 170 Q 173 171 177 171 Q 185 172 189 163" fill="#CCCCCC"/><path d="M 160 142 Q 160 143 160 144 Q 153 196 160 210 L 156 227 Q 150 222 148 215 Q 144 202 146 156 Q 147 147 143 138 Q 142 134 144 133 Q 146 131 149 132 Q 152 133 154 135" fill="#CCCCCC"/><path d="M 160 210 Q 162 215 169 218 Q 188 225 210 219 L 249 215 Q 252 222 247 225 Q 237 233 226 236 Q 221 237 216 238 Q 175 244 156 227" fill="#CCCCCC"/><path d="M 210 219 Q 220 217 223 213 Q 229 206 240 183 Q 241 178 243 179 Q 245 181 244 185 Q 247 207 249 215" fill="#CCCCCC"/><path d="M 62 107 Q 62 111 62 113 Q 60 117 56 111 Q 52 107 51 101 Q 46 80 40 67 Q 38 63 39 62 Q 40 60 43 61 Q 51 62 54 64 L 58 71 Q 59 78 62 100" fill="#0000ff" clip-path="url(#clip-mask-1)" /><path d="M 95 66 Q 93 62 85 64 Q 66 68 58 71 L 54 64 Q 72 60 86 54 Q 97 48 103 51 Q 110 56 115 59 Q 121 64 114 70" fill="#0000ff" clip-path="url(#clip-mask-2)" /><path d="M 88 93 Q 91 83 94 75 Q 96 67 95 66 L 114 70 Q 108 75 102 94" fill="#0000ff" clip-path="url(#clip-mask-3)" /><path d="M 68 107 Q 67 107 66 107 Q 64 108 62 107 L 62 100 Q 73 97 88 93 L 102 94 Q 106 96 106 98 Q 106 100 103 100 Q 87 102 78 105" fill="#0000ff" clip-path="url(#clip-mask-4)" /><path d="M 72 182 Q 72 154 72 139 Q 71 113 68 107 L 78 105 Q 88 111 86 118 Q 85 125 85 133 L 85 143 Q 83 159 83 178" fill="#0000ff" clip-path="url(#clip-mask-5)" /><path d="M 85 133 Q 94 129 99 129 Q 106 128 109 132 Q 112 135 107 136 Q 97 139 85 143" fill="#0000ff" clip-path="url(#clip-mask-6)" /><path d="M 40 163 L 39 156 Q 36 148 32 141 Q 30 138 32 136 Q 34 135 38 136 Q 45 137 50 142 Q 54 145 54 150 Q 53 157 55 188 L 45 191" fill="#0000ff" clip-path="url(#clip-mask-7)" /><path d="M 55 188 Q 63 184 72 182 L 83 178 Q 93 174 101 171 Q 105 170 106 171 Q 106 174 103 176 Q 71 194 40 212 Q 37 214 35 213 Q 26 209 20 205 Q 17 203 18 200 Q 18 197 21 196 Q 29 196 34 195 Q 39 193 45 191" fill="#0000ff" clip-path="url(#clip-mask-8)" /><path d="M 156 59 Q 136 84 130 85 Q 127 86 128 83 Q 129 82 130 79 Q 148 53 154 33 Q 155 29 153 26 Q 151 21 155 21 Q 159 21 165 24 Q 171 28 172 31 Q 172 32 173 33 Q 173 33 159 54" fill="#000080" clip-path="url(#clip-mask-9)" /><path d="M 181 58 Q 180 58 179 58 Q 160 61 156 59 L 159 54 Q 163 53 167 52 Q 184 47 186 46 Q 190 43 194 45 Q 204 50 207 53 Q 210 56 205 59" fill="#000080" clip-path="url(#clip-mask-10)" /><path d="M 163 98 Q 164 96 165 94 Q 171 84 181 62 Q 182 59 181 58 L 205 59 Q 198 64 170 97" fill="#000080" clip-path="url(#clip-mask-11)" /><path d="M 150 100 L 163 98 L 170 97 Q 170 96 171 96 Q 187 93 202 88 Q 209 86 216 87 Q 223 89 224 92 Q 226 94 223 96 Q 221 98 209 100 Q 181 105 153 110 Q 146 112 139 110 Q 139 110 138 110 Q 138 110 138 111 L 136 101" fill="#000080" clip-path="url(#clip-mask-12)" /><path d="M 138 111 Q 137 114 136 119 Q 126 177 110 208 Q 107 214 103 219 Q 85 246 75 248 Q 73 248 73 246 Q 74 244 75 243 Q 95 215 105 193 Q 115 166 121 118 Q 122 106 118 99 Q 116 95 120 94 Q 123 92 127 95 Q 133 98 136 101" fill="#000080" clip-path="url(#clip-mask-13)" /><path d="M 163 133 L 173 130 Q 186 127 189 125 Q 194 122 198 124 Q 209 128 211 131 Q 213 133 210 136 L 190 136 Q 189 136 187 136 Q 175 138 160 142 L 154 135" fill="#000080" clip-path="url(#clip-mask-14)" /><path d="M 210 136 Q 206 141 204 154 Q 198 181 187 189 L 189 163 Q 191 157 191 143 Q 191 138 190 136" fill="#000080" clip-path="url(#clip-mask-15)" /><path d="M 187 189 Q 184 192 181 188 Q 176 182 167 174 Q 162 169 168 170 Q 173 171 177 171 Q 185 172 189 163" fill="#000080" clip-path="url(#clip-mask-16)" /><path d="M 160 142 Q 160 143 160 144 Q 153 196 160 210 L 156 227 Q 150 222 148 215 Q 144 202 146 156 Q 147 147 143 138 Q 142 134 144 133 Q 146 131 149 132 Q 152 133 154 135" fill="#000080" clip-path="url(#clip-mask-17)" /><path d="M 160 210 Q 162 215 169 218 Q 188 225 210 219 L 249 215 Q 252 222 247 225 Q 237 233 226 236 Q 221 237 216 238 Q 175 244 156 227" fill="#000080" clip-path="url(#clip-mask-18)" /><path d="M 210 219 Q 220 217 223 213 Q 229 206 240 183 Q 241 178 243 179 Q 245 181 244 185 Q 247 207 249 215" fill="#000080" clip-path="url(#clip-mask-19)" /></svg>