<svg xmlns="http://www.w3.org/2000/svg" xmlns:xlink="http://www.w3.org/1999/xlink" width="270" height="270"><defs><clipPath id="clip-mask-1"><rect x="95" y="11" width="54" height="50"><animate attributeName="y" from="-39" to="11" dur="0.185" begin="0; animate9.end + 1" id="animate1" fill="freeze"/></rect></clipPath><clipPath id="clip-mask-2"><rect x="82" y="54" width="24" height="95"><set attributeName="y" to="-41" begin="0; animate9.end + 1" /><animate attributeName="y" from="-41" to="54" dur="0.352" begin="animate1.end + 0.5" id="animate2" fill="freeze"/></rect></clipPath><clipPath id="clip-mask-3"><rect x="102" y="46" width="83" height="25"><set attributeName="x" to="19" begin="0; animate9.end + 1" /><animate attributeName="x" from="19" to="102" dur="0.307" begin="animate2.end + 0.5" id="animate3" fill="freeze"/></rect></clipPath><clipPath id="clip-mask-4"><rect x="155" y="63" width="27" height="195"><set attributeName="y" to="-132" begin="0; animate9.end + 1" /><animate attributeName="y" from="-132" to="63" dur="0.722" begin="animate3.end" id="animate4" fill="freeze"/></rect></clipPath><clipPath id="clip-mask-5"><rect x="133" y="225" width="24" height="25"><set attributeName="x" to="157" begin="0; animate9.end + 1" /><animate attributeName="x" from="157" to="133" dur="0.089" begin="animate4.end" id="animate5" fill="freeze"/></rect></clipPath><clipPath id="clip-mask-6"><rect x="104" y="81" width="48" height="17"><set attributeName="x" to="56" begin="0; animate9.end + 1" /><animate attributeName="x" from="56" to="104" dur="0.178" begin="animate5.end + 0.5" id="animate6" fill="freeze"/></rect></clipPath><clipPath id="clip-mask-7"><rect x="103" y="107" width="49" height="17"><set attributeName="x" to="54" begin="0; animate9.end + 1" /><animate attributeName="x" from="54" to="103" dur="0.181" begin="animate6.end + 0.5" id="animate7" fill="freeze"/></rect></clipPath><clipPath id="clip-mask-8"><rect x="36" y="137" width="127" height="39"><set attributeName="x" to="-91" begin="0; animate9.end + 1" /><animate attributeName="x" from="-91" to="36" dur="0.470" begin="animate7.end + 0.5" id="animate8" fill="freeze"/></rect></clipPath><clipPath id="clip-mask-9"><rect x="40" y="83" width="193" height="160"><set attributeName="y" to="-77" begin="0; animate9.end + 1" /><animate attributeName="y" from="-77" to="83" dur="0.593" begin="animate8.end + 0.5" id="animate9" fill="freeze"/></rect></clipPath></defs><path d="M 0 0 L 270 270 M 270 0 L 0 270 M 135 0 L 135 270 M 0 135 L 270 135" stroke="#CCCCCC" /><path d="M 95 58 Q 124 24 124 16 Q 122 12 126 12 Q 129 11 135 15 Q 143 18 146 23 Q 149 27 143 30 Q 136 33 120 46 Q 112 52 100 61" fill="#CCCCCC"/><path d="M 92 149 Q 92 99 91 86 Q 89 73 83 61 Q 82 57 84 55 Q 87 54 90 55 Q 93 56 95 58 L 100 61 Q 101 61 102 62 L 106 71 Q 106 72 106 73 Q 105 77 104 91 L 104 98 Q 103 107 103 117 L 103 124 Q 103 135 103 147" fill="#CCCCCC"/><path d="M 160 63 Q 156 58 106 71 L 102 62 Q 135 59 156 48 Q 160 46 166 48 Q 176 52 182 58 Q 185 61 182 66" fill="#CCCCCC"/><path d="M 163 137 Q 164 67 160 63 L 182 66 Q 178 74 178 126 L 178 147 Q 178 189 179 221 Q 179 241 168 255 Q 166 258 163 257 Q 159 255 155 250 L 157 228 Q 162 221 163 160" fill="#CCCCCC"/><path d="M 155 250 Q 147 240 133 228 Q 133 225 138 227 Q 156 229 157 228" fill="#CCCCCC"/><path d="M 104 91 Q 132 81 140 82 Q 147 83 150 87 Q 152 91 146 92 Q 130 94 107 98 Q 105 98 104 98" fill="#CCCCCC"/><path d="M 103 117 Q 132 107 140 108 Q 147 109 150 113 Q 152 117 146 118 Q 130 120 107 124 Q 104 124 103 124" fill="#CCCCCC"/><path d="M 155 147 L 125 154 Q 75 166 59 174 Q 55 176 52 174 Q 43 168 38 162 Q 36 159 37 156 Q 37 153 41 153 Q 54 155 62 153 Q 77 151 92 149 L 103 147 Q 135 142 163 137 L 163 145" fill="#CCCCCC"/><path d="M 178 126 Q 201 99 205 88 Q 207 83 212 84 Q 220 86 230 92 Q 233 95 233 97 Q 233 100 229 101 Q 221 104 212 114 Q 205 122 178 147 L 163 160 Q 154 168 145 177 Q 110 208 75 230 Q 65 237 43 242 Q 41 243 41 242 Q 40 240 43 239 Q 104 200 159 146" fill="#CCCCCC"/><path d="M 95 58 Q 124 24 124 16 Q 122 12 126 12 Q 129 11 135 15 Q 143 18 146 23 Q 149 27 143 30 Q 136 33 120 46 Q 112 52 100 61" fill="#0000ff" clip-path="url(#clip-mask-1)" /><path d="M 92 149 Q 92 99 91 86 Q 89 73 83 61 Q 82 57 84 55 Q 87 54 90 55 Q 93 56 95 58 L 100 61 Q 101 61 102 62 L 106 71 Q 106 72 106 73 Q 105 77 104 91 L 104 98 Q 103 107 103 117 L 103 124 Q 103 135 103 147" fill="#0000ff" clip-path="url(#clip-mask-2)" /><path d="M 160 63 Q 156 58 106 71 L 102 62 Q 135 59 156 48 Q 160 46 166 48 Q 176 52 182 58 Q 185 61 182 66" fill="#0000ff" clip-path="url(#clip-mask-3)" /><path d="M 163 137 Q 164 67 160 63 L 182 66 Q 178 74 178 126 L 178 147 Q 178 189 179 221 Q 179 241 168 255 Q 166 258 163 257 Q 159 255 155 250 L 157 228 Q 162 221 163 160" fill="#0000ff" clip-path="url(#clip-mask-4)" /><path d="M 155 250 Q 147 240 133 228 Q 133 225 138 227 Q 156 229 157 228" fill="#0000ff" clip-path="url(#clip-mask-5)" /><path d="M 104 91 Q 132 81 140 82 Q 147 83 150 87 Q 152 91 146 92 Q 130 94 107 98 Q 105 98 104 98" fill="#0000ff" clip-path="url(#clip-mask-6)" /><path d="M 103 117 Q 132 107 140 108 Q 147 109 150 113 Q 152 117 146 118 Q 130 120 107 124 Q 104 124 103 124" fill="#0000ff" clip-path="url(#clip-mask-7)" /><path d="M 155 147 L 125 154 Q 75 166 59 174 Q 55 176 52 174 Q 43 168 38 162 Q 36 159 37 156 Q 37 153 41 153 Q 54 155 62 153 Q 77 151 92 149 L 103 147 Q 135 142 163 137 L 163 145" fill="#0000ff" clip-path="url(#clip-mask-8)" /><path d="M 178 126 Q 201 99 205 88 Q 207 83 212 84 Q 220 86 230 92 Q 233 95 233 97 Q 233 100 229 101 Q 221 104 212 114 Q 205 122 178 147 L 163 160 Q 154 168 145 177 Q 110 208 75 230 Q 65 237 43 242 Q 41 243 41 242 Q 40 240 43 239 Q 104 200 159 146" fill="#0000ff" clip-path="url(#clip-mask-9)" /></svg>