<svg xmlns="http://www.w3.org/2000/svg" xmlns:xlink="http://www.w3.org/1999/xlink" width="270" height="270"><defs><clipPath id="clip-mask-1"><rect x="41" y="59" width="73" height="24"><animate attributeName="x" from="-32" to="41" dur="0.270" begin="0; animate15.end + 1" id="animate1" fill="freeze"/></rect></clipPath><clipPath id="clip-mask-2"><rect x="27" y="104" width="28" height="68"><set attributeName="y" to="36" begin="0; animate15.end + 1" /><animate attributeName="y" from="36" to="104" dur="0.252" begin="animate1.end + 0.5" id="animate2" fill="freeze"/></rect></clipPath><clipPath id="clip-mask-3"><rect x="44" y="89" width="86" height="26"><set attributeName="x" to="-42" begin="0; animate15.end + 1" /><animate attributeName="x" from="-42" to="44" dur="0.319" begin="animate2.end + 0.5" id="animate3" fill="freeze"/></rect></clipPath><clipPath id="clip-mask-4"><rect x="95" y="102" width="38" height="64"><set attributeName="y" to="38" begin="0; animate15.end + 1" /><animate attributeName="y" from="38" to="102" dur="0.237" begin="animate3.end" id="animate4" fill="freeze"/></rect></clipPath><clipPath id="clip-mask-5"><rect x="54" y="121" width="48" height="14"><set attributeName="x" to="6" begin="0; animate15.end + 1" /><animate attributeName="x" from="6" to="54" dur="0.178" begin="animate4.end + 0.5" id="animate5" fill="freeze"/></rect></clipPath><clipPath id="clip-mask-6"><rect x="55" y="143" width="43" height="19"><set attributeName="x" to="12" begin="0; animate15.end + 1" /><animate attributeName="x" from="12" to="55" dur="0.159" begin="animate5.end + 0.5" id="animate6" fill="freeze"/></rect></clipPath><clipPath id="clip-mask-7"><rect x="15" y="170" width="113" height="35"><set attributeName="x" to="-98" begin="0; animate15.end + 1" /><animate attributeName="x" from="-98" to="15" dur="0.419" begin="animate6.end + 0.5" id="animate7" fill="freeze"/></rect></clipPath><clipPath id="clip-mask-8"><rect x="61" y="17" width="29" height="235"><set attributeName="y" to="-218" begin="0; animate15.end + 1" /><animate attributeName="y" from="-218" to="17" dur="0.870" begin="animate7.end + 0.5" id="animate8" fill="freeze"/></rect></clipPath><clipPath id="clip-mask-9"><rect x="126" y="126" width="28" height="95"><set attributeName="y" to="31" begin="0; animate15.end + 1" /><animate attributeName="y" from="31" to="126" dur="0.352" begin="animate8.end + 0.5" id="animate9" fill="freeze"/></rect></clipPath><clipPath id="clip-mask-10"><rect x="139" y="109" width="112" height="30"><set attributeName="x" to="27" begin="0; animate15.end + 1" /><animate attributeName="x" from="27" to="139" dur="0.415" begin="animate9.end + 0.5" id="animate10" fill="freeze"/></rect></clipPath><clipPath id="clip-mask-11"><rect x="214" y="123" width="40" height="105"><set attributeName="y" to="18" begin="0; animate15.end + 1" /><animate attributeName="y" from="18" to="123" dur="0.389" begin="animate10.end" id="animate11" fill="freeze"/></rect></clipPath><clipPath id="clip-mask-12"><rect x="206" y="196" width="9" height="27"><set attributeName="x" to="215" begin="0; animate15.end + 1" /><animate attributeName="x" from="215" to="206" dur="0.033" begin="animate11.end" id="animate12" fill="freeze"/></rect></clipPath><clipPath id="clip-mask-13"><rect x="153" y="151" width="62" height="19"><set attributeName="x" to="91" begin="0; animate15.end + 1" /><animate attributeName="x" from="91" to="153" dur="0.230" begin="animate12.end + 0.5" id="animate13" fill="freeze"/></rect></clipPath><clipPath id="clip-mask-14"><rect x="167" y="48" width="31" height="149"><set attributeName="y" to="-101" begin="0; animate15.end + 1" /><animate attributeName="y" from="-101" to="48" dur="0.552" begin="animate13.end + 0.5" id="animate14" fill="freeze"/></rect></clipPath><clipPath id="clip-mask-15"><rect x="153" y="191" width="60" height="19"><set attributeName="x" to="93" begin="0; animate15.end + 1" /><animate attributeName="x" from="93" to="153" dur="0.222" begin="animate14.end + 0.5" id="animate15" fill="freeze"/></rect></clipPath></defs><path d="M 0 0 L 270 270 M 270 0 L 0 270 M 135 0 L 135 270 M 0 135 L 270 135" stroke="#CCCCCC" /><path d="M 73 80 Q 58 83 49 78 Q 41 74 51 72 Q 62 71 71 68 Q 71 68 72 68 L 84 64 Q 97 59 102 60 Q 110 61 112 64 Q 114 66 111 69 Q 110 70 104 72 Q 93 74 83 77" fill="#CCCCCC"/><path d="M 55 162 Q 55 165 54 168 Q 53 172 48 166 Q 43 161 42 153 Q 37 127 29 111 Q 27 107 29 105 Q 29 104 32 105 Q 41 106 44 107 L 48 115 Q 49 124 54 150 Q 55 153 55 155" fill="#CCCCCC"/><path d="M 73 107 Q 58 111 48 115 L 44 107 Q 72 100 73 100 L 83 97 Q 86 96 97 93 Q 111 89 116 91 Q 126 98 130 102 L 107 102 Q 102 99 83 105" fill="#CCCCCC"/><path d="M 98 148 Q 102 143 109 109 Q 111 105 107 102 L 130 102 Q 133 105 130 108 Q 124 114 122 122 Q 114 155 110 160 Q 106 166 103 164 Q 99 161 95 154" fill="#CCCCCC"/><path d="M 73 134 L 59 135 Q 54 132 58 130 Q 65 128 73 125 L 83 122 Q 87 121 90 121 Q 97 122 99 125 Q 102 129 96 130 Q 89 130 83 132" fill="#CCCCCC"/><path d="M 72 159 Q 64 160 60 162 Q 57 162 55 162 L 55 155 Q 63 153 72 150 L 82 147 Q 83 146 84 146 Q 92 143 98 148 L 95 154 Q 88 155 82 156" fill="#CCCCCC"/><path d="M 58 196 L 43 201 Q 30 205 19 198 Q 15 195 16 193 Q 17 190 21 190 Q 39 187 72 181 L 82 179 Q 95 175 110 172 Q 116 170 123 174 Q 128 176 127 180 Q 127 181 123 182 Q 100 186 82 190 L 70 193" fill="#CCCCCC"/><path d="M 72 181 Q 72 169 72 159 L 72 150 Q 72 142 73 134 L 73 125 Q 73 116 73 107 L 73 100 Q 73 90 73 80 L 72 68 Q 72 60 72 53 Q 72 40 63 26 Q 61 22 62 21 Q 68 17 73 21 Q 88 30 89 32 Q 90 36 88 40 Q 85 50 84 64 L 83 77 Q 83 87 83 97 L 83 105 Q 83 114 83 122 L 83 132 Q 82 140 82 147 L 82 156 Q 82 168 82 179 L 82 190 Q 83 222 83 229 Q 83 237 80 243 Q 78 248 76 249 Q 74 252 73 250 Q 71 249 69 245 Q 62 230 65 219 Q 69 206 70 193" fill="#CCCCCC"/><path d="M 154 211 L 154 213 Q 153 221 149 219 Q 146 218 143 212 Q 139 204 139 196 Q 139 150 128 132 Q 126 129 128 127 Q 129 126 131 127 Q 135 128 139 130 L 149 139 Q 148 159 153 201 L 154 210" fill="#CCCCCC"/><path d="M 178 132 Q 149 139 149 139 L 139 130 Q 161 127 178 124 L 191 121 Q 205 117 219 112 Q 227 109 232 111 Q 245 117 251 123 L 224 126 Q 220 122 190 129" fill="#CCCCCC"/><path d="M 215 197 Q 218 196 218 191 Q 225 162 226 133 Q 226 127 224 126 L 251 123 Q 254 127 249 132 Q 243 140 241 152 Q 234 205 226 220 Q 223 227 219 227 Q 216 228 214 223" fill="#CCCCCC"/><path d="M 213 196 Q 215 197 215 197 L 214 223 Q 209 211 206 204" fill="#CCCCCC"/><path d="M 178 167 Q 172 168 167 169 Q 162 170 159 168 Q 153 165 158 163 Q 167 160 178 157 L 189 153 Q 198 151 203 152 Q 209 153 212 157 Q 215 160 208 161 Q 199 163 189 165" fill="#CCCCCC"/><path d="M 176 197 Q 177 181 178 167 L 178 157 Q 178 144 178 132 L 178 124 Q 178 100 178 77 Q 177 69 169 57 Q 167 53 169 51 Q 171 48 176 49 Q 183 50 192 55 Q 198 59 197 62 Q 191 86 191 121 L 190 129 Q 190 141 189 153 L 189 165 Q 188 179 188 195" fill="#CCCCCC"/><path d="M 153 201 Q 164 199 176 197 L 188 195 Q 202 191 205 192 Q 205 192 206 192 Q 208 193 208 193 Q 211 195 213 196 L 206 204 Q 173 207 157 210 Q 155 210 154 210" fill="#CCCCCC"/><path d="M 73 80 Q 58 83 49 78 Q 41 74 51 72 Q 62 71 71 68 Q 71 68 72 68 L 84 64 Q 97 59 102 60 Q 110 61 112 64 Q 114 66 111 69 Q 110 70 104 72 Q 93 74 83 77" fill="#0000ff" clip-path="url(#clip-mask-1)" /><path d="M 55 162 Q 55 165 54 168 Q 53 172 48 166 Q 43 161 42 153 Q 37 127 29 111 Q 27 107 29 105 Q 29 104 32 105 Q 41 106 44 107 L 48 115 Q 49 124 54 150 Q 55 153 55 155" fill="#0000ff" clip-path="url(#clip-mask-2)" /><path d="M 73 107 Q 58 111 48 115 L 44 107 Q 72 100 73 100 L 83 97 Q 86 96 97 93 Q 111 89 116 91 Q 126 98 130 102 L 107 102 Q 102 99 83 105" fill="#0000ff" clip-path="url(#clip-mask-3)" /><path d="M 98 148 Q 102 143 109 109 Q 111 105 107 102 L 130 102 Q 133 105 130 108 Q 124 114 122 122 Q 114 155 110 160 Q 106 166 103 164 Q 99 161 95 154" fill="#0000ff" clip-path="url(#clip-mask-4)" /><path d="M 73 134 L 59 135 Q 54 132 58 130 Q 65 128 73 125 L 83 122 Q 87 121 90 121 Q 97 122 99 125 Q 102 129 96 130 Q 89 130 83 132" fill="#0000ff" clip-path="url(#clip-mask-5)" /><path d="M 72 159 Q 64 160 60 162 Q 57 162 55 162 L 55 155 Q 63 153 72 150 L 82 147 Q 83 146 84 146 Q 92 143 98 148 L 95 154 Q 88 155 82 156" fill="#0000ff" clip-path="url(#clip-mask-6)" /><path d="M 58 196 L 43 201 Q 30 205 19 198 Q 15 195 16 193 Q 17 190 21 190 Q 39 187 72 181 L 82 179 Q 95 175 110 172 Q 116 170 123 174 Q 128 176 127 180 Q 127 181 123 182 Q 100 186 82 190 L 70 193" fill="#0000ff" clip-path="url(#clip-mask-7)" /><path d="M 72 181 Q 72 169 72 159 L 72 150 Q 72 142 73 134 L 73 125 Q 73 116 73 107 L 73 100 Q 73 90 73 80 L 72 68 Q 72 60 72 53 Q 72 40 63 26 Q 61 22 62 21 Q 68 17 73 21 Q 88 30 89 32 Q 90 36 88 40 Q 85 50 84 64 L 83 77 Q 83 87 83 97 L 83 105 Q 83 114 83 122 L 83 132 Q 82 140 82 147 L 82 156 Q 82 168 82 179 L 82 190 Q 83 222 83 229 Q 83 237 80 243 Q 78 248 76 249 Q 74 252 73 250 Q 71 249 69 245 Q 62 230 65 219 Q 69 206 70 193" fill="#0000ff" clip-path="url(#clip-mask-8)" /><path d="M 154 211 L 154 213 Q 153 221 149 219 Q 146 218 143 212 Q 139 204 139 196 Q 139 150 128 132 Q 126 129 128 127 Q 129 126 131 127 Q 135 128 139 130 L 149 139 Q 148 159 153 201 L 154 210" fill="#000080" clip-path="url(#clip-mask-9)" /><path d="M 178 132 Q 149 139 149 139 L 139 130 Q 161 127 178 124 L 191 121 Q 205 117 219 112 Q 227 109 232 111 Q 245 117 251 123 L 224 126 Q 220 122 190 129" fill="#000080" clip-path="url(#clip-mask-10)" /><path d="M 215 197 Q 218 196 218 191 Q 225 162 226 133 Q 226 127 224 126 L 251 123 Q 254 127 249 132 Q 243 140 241 152 Q 234 205 226 220 Q 223 227 219 227 Q 216 228 214 223" fill="#000080" clip-path="url(#clip-mask-11)" /><path d="M 213 196 Q 215 197 215 197 L 214 223 Q 209 211 206 204" fill="#000080" clip-path="url(#clip-mask-12)" /><path d="M 178 167 Q 172 168 167 169 Q 162 170 159 168 Q 153 165 158 163 Q 167 160 178 157 L 189 153 Q 198 151 203 152 Q 209 153 212 157 Q 215 160 208 161 Q 199 163 189 165" fill="#000080" clip-path="url(#clip-mask-13)" /><path d="M 176 197 Q 177 181 178 167 L 178 157 Q 178 144 178 132 L 178 124 Q 178 100 178 77 Q 177 69 169 57 Q 167 53 169 51 Q 171 48 176 49 Q 183 50 192 55 Q 198 59 197 62 Q 191 86 191 121 L 190 129 Q 190 141 189 153 L 189 165 Q 188 179 188 195" fill="#000080" clip-path="url(#clip-mask-14)" /><path d="M 153 201 Q 164 199 176 197 L 188 195 Q 202 191 205 192 Q 205 192 206 192 Q 208 193 208 193 Q 211 195 213 196 L 206 204 Q 173 207 157 210 Q 155 210 154 210" fill="#000080" clip-path="url(#clip-mask-15)" /></svg>