<svg xmlns="http://www.w3.org/2000/svg" xmlns:xlink="http://www.w3.org/1999/xlink" width="270" height="270"><defs><clipPath id="clip-mask-1"><rect x="53" y="54" width="73" height="24"><animate attributeName="x" from="-20" to="53" dur="0.270" begin="0; animate15.end + 1" id="animate1" fill="freeze"/></rect></clipPath><clipPath id="clip-mask-2"><rect x="78" y="23" width="27" height="71"><set attributeName="y" to="-48" begin="0; animate15.end + 1" /><animate attributeName="y" from="-48" to="23" dur="0.263" begin="animate1.end + 0.5" id="animate2" fill="freeze"/></rect></clipPath><clipPath id="clip-mask-3"><rect x="24" y="69" width="181" height="46"><set attributeName="x" to="-157" begin="0; animate15.end + 1" /><animate attributeName="x" from="-157" to="24" dur="0.670" begin="animate2.end + 0.5" id="animate3" fill="freeze"/></rect></clipPath><clipPath id="clip-mask-4"><rect x="58" y="112" width="64" height="22"><set attributeName="x" to="-6" begin="0; animate15.end + 1" /><animate attributeName="x" from="-6" to="58" dur="0.237" begin="animate3.end + 0.5" id="animate4" fill="freeze"/></rect></clipPath><clipPath id="clip-mask-5"><rect x="43" y="147" width="23" height="49"><set attributeName="y" to="98" begin="0; animate15.end + 1" /><animate attributeName="y" from="98" to="147" dur="0.181" begin="animate4.end + 0.5" id="animate5" fill="freeze"/></rect></clipPath><clipPath id="clip-mask-6"><rect x="56" y="131" width="86" height="25"><set attributeName="x" to="-30" begin="0; animate15.end + 1" /><animate attributeName="x" from="-30" to="56" dur="0.319" begin="animate5.end + 0.5" id="animate6" fill="freeze"/></rect></clipPath><clipPath id="clip-mask-7"><rect x="115" y="143" width="31" height="40"><set attributeName="y" to="103" begin="0; animate15.end + 1" /><animate attributeName="y" from="103" to="143" dur="0.148" begin="animate6.end" id="animate7" fill="freeze"/></rect></clipPath><clipPath id="clip-mask-8"><rect x="69" y="156" width="43" height="14"><set attributeName="x" to="26" begin="0; animate15.end + 1" /><animate attributeName="x" from="26" to="69" dur="0.159" begin="animate7.end + 0.5" id="animate8" fill="freeze"/></rect></clipPath><clipPath id="clip-mask-9"><rect x="65" y="171" width="51" height="19"><set attributeName="x" to="14" begin="0; animate15.end + 1" /><animate attributeName="x" from="14" to="65" dur="0.189" begin="animate8.end + 0.5" id="animate9" fill="freeze"/></rect></clipPath><clipPath id="clip-mask-10"><rect x="27" y="192" width="105" height="37"><set attributeName="x" to="-78" begin="0; animate15.end + 1" /><animate attributeName="x" from="-78" to="27" dur="0.389" begin="animate9.end + 0.5" id="animate10" fill="freeze"/></rect></clipPath><clipPath id="clip-mask-11"><rect x="79" y="102" width="21" height="150"><set attributeName="y" to="-48" begin="0; animate15.end + 1" /><animate attributeName="y" from="-48" to="102" dur="0.556" begin="animate10.end + 0.5" id="animate11" fill="freeze"/></rect></clipPath><clipPath id="clip-mask-12"><rect x="124" y="17" width="121" height="234"><set attributeName="y" to="-217" begin="0; animate15.end + 1" /><animate attributeName="y" from="-217" to="17" dur="0.867" begin="animate11.end + 0.5" id="animate12" fill="freeze"/></rect></clipPath><clipPath id="clip-mask-13"><rect x="223" y="191" width="20" height="51"><set attributeName="y" to="242" begin="0; animate15.end + 1" /><animate attributeName="y" from="242" to="191" dur="0.189" begin="animate12.end" id="animate13" fill="freeze"/></rect></clipPath><clipPath id="clip-mask-14"><rect x="126" y="107" width="89" height="114"><set attributeName="y" to="-7" begin="0; animate15.end + 1" /><animate attributeName="y" from="-7" to="107" dur="0.422" begin="animate13.end + 0.5" id="animate14" fill="freeze"/></rect></clipPath><clipPath id="clip-mask-15"><rect x="173" y="30" width="37" height="31"><set attributeName="x" to="136" begin="0; animate15.end + 1" /><animate attributeName="x" from="136" to="173" dur="0.137" begin="animate14.end + 0.5" id="animate15" fill="freeze"/></rect></clipPath></defs><path d="M 0 0 L 270 270 M 270 0 L 0 270 M 135 0 L 135 270 M 0 135 L 270 135" stroke="#CCCCCC" /><path d="M 86 73 Q 84 74 83 74 Q 67 78 59 73 Q 53 70 61 68 Q 74 66 84 64 Q 85 63 86 63 L 100 59 Q 109 54 116 55 Q 123 57 125 59 Q 126 61 124 63 Q 122 65 99 70" fill="#CCCCCC"/><path d="M 86 94 Q 86 83 86 73 L 86 63 Q 86 51 85 39 Q 84 36 80 30 Q 78 27 80 25 Q 82 23 86 24 Q 92 25 100 29 Q 105 33 104 35 Q 100 55 100 59 L 99 70 Q 98 81 97 92" fill="#CCCCCC"/><path d="M 79 105 Q 61 108 46 114 Q 42 115 37 114 Q 32 113 28 110 Q 24 106 29 105 Q 59 99 86 94 L 97 92 Q 104 90 111 89 Q 130 85 146 81 L 158 78 Q 165 76 171 74 Q 185 69 201 79 Q 205 82 204 86 Q 203 88 198 88 Q 173 90 160 91 L 148 93 Q 108 96 90 102" fill="#CCCCCC"/><path d="M 85 130 Q 83 130 83 130 Q 71 134 63 130 Q 58 127 65 125 Q 75 123 85 121 L 98 116 Q 106 112 113 113 Q 119 114 120 116 Q 122 118 120 119 Q 119 121 112 122 Q 104 124 97 127" fill="#CCCCCC"/><path d="M 66 190 Q 65 192 65 193 Q 64 196 60 191 Q 56 188 55 182 Q 51 164 45 153 Q 43 149 44 148 Q 45 147 48 147 Q 53 148 56 149 L 61 156 Q 63 170 65 184" fill="#CCCCCC"/><path d="M 86 149 Q 70 153 61 156 L 56 149 Q 63 147 74 144 Q 79 142 85 141 L 96 139 Q 105 136 106 136 Q 123 131 127 133 Q 138 139 142 143 L 120 143 Q 116 141 96 146" fill="#CCCCCC"/><path d="M 142 143 Q 146 146 142 150 Q 133 156 130 168 Q 126 178 124 180 Q 123 183 119 183 Q 117 183 116 180 L 115 180 L 116 172 Q 118 169 121 149 Q 122 144 120 143" fill="#CCCCCC"/><path d="M 86 168 Q 74 170 73 170 Q 69 167 72 166 Q 78 163 86 160 L 96 157 Q 99 156 102 156 Q 107 156 110 159 Q 112 162 107 163 Q 101 164 96 166" fill="#CCCCCC"/><path d="M 96 176 Q 105 171 115 172 Q 116 172 116 172 L 115 180 Q 105 181 96 184 L 86 186 Q 79 188 71 189 Q 68 190 66 190 L 65 184 Q 75 181 86 179" fill="#CCCCCC"/><path d="M 96 200 Q 118 192 127 195 Q 132 197 132 201 Q 132 203 127 203 Q 110 207 96 210 L 85 214 Q 71 217 52 225 Q 41 229 31 222 Q 27 219 28 216 Q 28 214 31 214 Q 48 212 86 202" fill="#CCCCCC"/><path d="M 96 171 L 96 176 L 96 184 Q 96 192 96 200 L 96 210 Q 96 220 96 227 Q 96 246 91 250 Q 89 252 88 251 Q 86 250 85 247 Q 85 245 85 245 Q 80 237 85 214 L 86 202 Q 86 194 86 186 L 86 179 Q 86 173 86 168 L 86 160 Q 86 154 86 149 L 85 141 Q 85 135 85 130 L 85 121 Q 85 113 79 105 L 90 102 Q 99 107 100 109 Q 100 110 98 116 L 97 127 Q 96 132 96 139 L 96 146 Q 96 152 96 157 L 96 166" fill="#CCCCCC"/><path d="M 157 141 L 148 93 L 146 81 Q 143 65 140 46 Q 140 38 127 27 Q 124 21 130 20 Q 135 17 145 21 Q 160 26 157 38 Q 155 56 158 78 L 160 91 Q 167 133 178 162 L 185 177 Q 196 198 213 215 Q 220 221 223 220 L 243 242 Q 245 249 240 251 Q 233 251 217 239 Q 192 219 177 188 L 171 174" fill="#CCCCCC"/><path d="M 223 220 Q 226 220 229 213 Q 233 205 237 196 Q 238 191 240 191 Q 242 191 242 197 Q 242 230 243 242" fill="#CCCCCC"/><path d="M 178 162 Q 193 135 191 113 Q 190 109 194 108 Q 197 107 203 111 Q 211 115 213 118 Q 215 121 212 123 Q 208 130 205 137 Q 193 168 185 177 L 177 188 Q 171 195 164 200 Q 149 212 133 219 Q 130 221 127 220 Q 126 219 128 217 Q 155 195 171 174" fill="#CCCCCC"/><path d="M 174 38 L 173 35 Q 173 32 174 31 Q 175 30 179 31 Q 204 36 208 46 Q 210 53 209 57 Q 208 60 205 60 Q 201 61 198 58 Q 189 49 181 43" fill="#CCCCCC"/><path d="M 86 73 Q 84 74 83 74 Q 67 78 59 73 Q 53 70 61 68 Q 74 66 84 64 Q 85 63 86 63 L 100 59 Q 109 54 116 55 Q 123 57 125 59 Q 126 61 124 63 Q 122 65 99 70" fill="#000080" clip-path="url(#clip-mask-1)" /><path d="M 86 94 Q 86 83 86 73 L 86 63 Q 86 51 85 39 Q 84 36 80 30 Q 78 27 80 25 Q 82 23 86 24 Q 92 25 100 29 Q 105 33 104 35 Q 100 55 100 59 L 99 70 Q 98 81 97 92" fill="#000080" clip-path="url(#clip-mask-2)" /><path d="M 79 105 Q 61 108 46 114 Q 42 115 37 114 Q 32 113 28 110 Q 24 106 29 105 Q 59 99 86 94 L 97 92 Q 104 90 111 89 Q 130 85 146 81 L 158 78 Q 165 76 171 74 Q 185 69 201 79 Q 205 82 204 86 Q 203 88 198 88 Q 173 90 160 91 L 148 93 Q 108 96 90 102" fill="#000080" clip-path="url(#clip-mask-3)" /><path d="M 85 130 Q 83 130 83 130 Q 71 134 63 130 Q 58 127 65 125 Q 75 123 85 121 L 98 116 Q 106 112 113 113 Q 119 114 120 116 Q 122 118 120 119 Q 119 121 112 122 Q 104 124 97 127" fill="#0000ff" clip-path="url(#clip-mask-4)" /><path d="M 66 190 Q 65 192 65 193 Q 64 196 60 191 Q 56 188 55 182 Q 51 164 45 153 Q 43 149 44 148 Q 45 147 48 147 Q 53 148 56 149 L 61 156 Q 63 170 65 184" fill="#0000ff" clip-path="url(#clip-mask-5)" /><path d="M 86 149 Q 70 153 61 156 L 56 149 Q 63 147 74 144 Q 79 142 85 141 L 96 139 Q 105 136 106 136 Q 123 131 127 133 Q 138 139 142 143 L 120 143 Q 116 141 96 146" fill="#0000ff" clip-path="url(#clip-mask-6)" /><path d="M 142 143 Q 146 146 142 150 Q 133 156 130 168 Q 126 178 124 180 Q 123 183 119 183 Q 117 183 116 180 L 115 180 L 116 172 Q 118 169 121 149 Q 122 144 120 143" fill="#0000ff" clip-path="url(#clip-mask-7)" /><path d="M 86 168 Q 74 170 73 170 Q 69 167 72 166 Q 78 163 86 160 L 96 157 Q 99 156 102 156 Q 107 156 110 159 Q 112 162 107 163 Q 101 164 96 166" fill="#0000ff" clip-path="url(#clip-mask-8)" /><path d="M 96 176 Q 105 171 115 172 Q 116 172 116 172 L 115 180 Q 105 181 96 184 L 86 186 Q 79 188 71 189 Q 68 190 66 190 L 65 184 Q 75 181 86 179" fill="#0000ff" clip-path="url(#clip-mask-9)" /><path d="M 96 200 Q 118 192 127 195 Q 132 197 132 201 Q 132 203 127 203 Q 110 207 96 210 L 85 214 Q 71 217 52 225 Q 41 229 31 222 Q 27 219 28 216 Q 28 214 31 214 Q 48 212 86 202" fill="#0000ff" clip-path="url(#clip-mask-10)" /><path d="M 96 171 L 96 176 L 96 184 Q 96 192 96 200 L 96 210 Q 96 220 96 227 Q 96 246 91 250 Q 89 252 88 251 Q 86 250 85 247 Q 85 245 85 245 Q 80 237 85 214 L 86 202 Q 86 194 86 186 L 86 179 Q 86 173 86 168 L 86 160 Q 86 154 86 149 L 85 141 Q 85 135 85 130 L 85 121 Q 85 113 79 105 L 90 102 Q 99 107 100 109 Q 100 110 98 116 L 97 127 Q 96 132 96 139 L 96 146 Q 96 152 96 157 L 96 166" fill="#0000ff" clip-path="url(#clip-mask-11)" /><path d="M 157 141 L 148 93 L 146 81 Q 143 65 140 46 Q 140 38 127 27 Q 124 21 130 20 Q 135 17 145 21 Q 160 26 157 38 Q 155 56 158 78 L 160 91 Q 167 133 178 162 L 185 177 Q 196 198 213 215 Q 220 221 223 220 L 243 242 Q 245 249 240 251 Q 233 251 217 239 Q 192 219 177 188 L 171 174" fill="#000080" clip-path="url(#clip-mask-12)" /><path d="M 223 220 Q 226 220 229 213 Q 233 205 237 196 Q 238 191 240 191 Q 242 191 242 197 Q 242 230 243 242" fill="#000080" clip-path="url(#clip-mask-13)" /><path d="M 178 162 Q 193 135 191 113 Q 190 109 194 108 Q 197 107 203 111 Q 211 115 213 118 Q 215 121 212 123 Q 208 130 205 137 Q 193 168 185 177 L 177 188 Q 171 195 164 200 Q 149 212 133 219 Q 130 221 127 220 Q 126 219 128 217 Q 155 195 171 174" fill="#000080" clip-path="url(#clip-mask-14)" /><path d="M 174 38 L 173 35 Q 173 32 174 31 Q 175 30 179 31 Q 204 36 208 46 Q 210 53 209 57 Q 208 60 205 60 Q 201 61 198 58 Q 189 49 181 43" fill="#000080" clip-path="url(#clip-mask-15)" /></svg>