<svg xmlns="http://www.w3.org/2000/svg" xmlns:xlink="http://www.w3.org/1999/xlink" width="270" height="270"><defs><clipPath id="clip-mask-1"><rect x="49" y="17" width="70" height="35"><animate attributeName="x" from="119" to="49" dur="0.259" begin="0; animate24.end + 1" id="animate1" fill="freeze"/></rect></clipPath><clipPath id="clip-mask-2"><rect x="36" y="58" width="18" height="28"><set attributeName="y" to="30" begin="0; animate24.end + 1" /><animate attributeName="y" from="30" to="58" dur="0.104" begin="animate1.end + 0.5" id="animate2" fill="freeze"/></rect></clipPath><clipPath id="clip-mask-3"><rect x="70" y="49" width="17" height="26"><set attributeName="y" to="23" begin="0; animate24.end + 1" /><animate attributeName="y" from="23" to="49" dur="0.096" begin="animate2.end + 0.5" id="animate3" fill="freeze"/></rect></clipPath><clipPath id="clip-mask-4"><rect x="101" y="38" width="33" height="29"><set attributeName="y" to="9" begin="0; animate24.end + 1" /><animate attributeName="y" from="9" to="38" dur="0.107" begin="animate3.end + 0.5" id="animate4" fill="freeze"/></rect></clipPath><clipPath id="clip-mask-5"><rect x="55" y="75" width="61" height="22"><set attributeName="x" to="-6" begin="0; animate24.end + 1" /><animate attributeName="x" from="-6" to="55" dur="0.226" begin="animate4.end + 0.5" id="animate5" fill="freeze"/></rect></clipPath><clipPath id="clip-mask-6"><rect x="81" y="84" width="32" height="25"><set attributeName="y" to="59" begin="0; animate24.end + 1" /><animate attributeName="y" from="59" to="84" dur="0.093" begin="animate5.end" id="animate6" fill="freeze"/></rect></clipPath><clipPath id="clip-mask-7"><rect x="68" y="102" width="18" height="15"><set attributeName="y" to="87" begin="0; animate24.end + 1" /><animate attributeName="y" from="87" to="102" dur="0.056" begin="animate6.end + 0.5" id="animate7" fill="freeze"/></rect></clipPath><clipPath id="clip-mask-8"><rect x="21" y="118" width="25" height="103"><set attributeName="y" to="15" begin="0; animate24.end + 1" /><animate attributeName="y" from="15" to="118" dur="0.381" begin="animate7.end + 0.5" id="animate8" fill="freeze"/></rect></clipPath><clipPath id="clip-mask-9"><rect x="45" y="109" width="80" height="22"><set attributeName="x" to="-35" begin="0; animate24.end + 1" /><animate attributeName="x" from="-35" to="45" dur="0.296" begin="animate8.end + 0.5" id="animate9" fill="freeze"/></rect></clipPath><clipPath id="clip-mask-10"><rect x="107" y="119" width="21" height="115"><set attributeName="y" to="4" begin="0; animate24.end + 1" /><animate attributeName="y" from="4" to="119" dur="0.426" begin="animate9.end" id="animate10" fill="freeze"/></rect></clipPath><clipPath id="clip-mask-11"><rect x="93" y="209" width="19" height="21"><set attributeName="x" to="112" begin="0; animate24.end + 1" /><animate attributeName="x" from="112" to="93" dur="0.070" begin="animate10.end" id="animate11" fill="freeze"/></rect></clipPath><clipPath id="clip-mask-12"><rect x="51" y="125" width="28" height="36"><set attributeName="y" to="89" begin="0; animate24.end + 1" /><animate attributeName="y" from="89" to="125" dur="0.133" begin="animate11.end + 0.5" id="animate12" fill="freeze"/></rect></clipPath><clipPath id="clip-mask-13"><rect x="60" y="143" width="29" height="16"><set attributeName="x" to="31" begin="0; animate24.end + 1" /><animate attributeName="x" from="31" to="60" dur="0.107" begin="animate12.end" id="animate13" fill="freeze"/></rect></clipPath><clipPath id="clip-mask-14"><rect x="85" y="133" width="15" height="23"><set attributeName="y" to="110" begin="0; animate24.end + 1" /><animate attributeName="y" from="110" to="133" dur="0.085" begin="animate13.end + 0.5" id="animate14" fill="freeze"/></rect></clipPath><clipPath id="clip-mask-15"><rect x="51" y="159" width="46" height="17"><set attributeName="x" to="5" begin="0; animate24.end + 1" /><animate attributeName="x" from="5" to="51" dur="0.170" begin="animate14.end + 0.5" id="animate15" fill="freeze"/></rect></clipPath><clipPath id="clip-mask-16"><rect x="46" y="168" width="49" height="46"><set attributeName="y" to="122" begin="0; animate24.end + 1" /><animate attributeName="y" from="122" to="168" dur="0.170" begin="animate15.end" id="animate16" fill="freeze"/></rect></clipPath><clipPath id="clip-mask-17"><rect x="53" y="180" width="37" height="23"><set attributeName="x" to="16" begin="0; animate24.end + 1" /><animate attributeName="x" from="16" to="53" dur="0.137" begin="animate16.end + 0.5" id="animate17" fill="freeze"/></rect></clipPath><clipPath id="clip-mask-18"><rect x="157" y="18" width="36" height="29"><set attributeName="x" to="121" begin="0; animate24.end + 1" /><animate attributeName="x" from="121" to="157" dur="0.133" begin="animate17.end + 0.5" id="animate18" fill="freeze"/></rect></clipPath><clipPath id="clip-mask-19"><rect x="136" y="48" width="88" height="26"><set attributeName="x" to="48" begin="0; animate24.end + 1" /><animate attributeName="x" from="48" to="136" dur="0.326" begin="animate18.end + 0.5" id="animate19" fill="freeze"/></rect></clipPath><clipPath id="clip-mask-20"><rect x="141" y="84" width="25" height="26"><set attributeName="y" to="58" begin="0; animate24.end + 1" /><animate attributeName="y" from="58" to="84" dur="0.096" begin="animate19.end + 0.5" id="animate20" fill="freeze"/></rect></clipPath><clipPath id="clip-mask-21"><rect x="184" y="68" width="32" height="48"><set attributeName="y" to="20" begin="0; animate24.end + 1" /><animate attributeName="y" from="20" to="68" dur="0.178" begin="animate20.end + 0.5" id="animate21" fill="freeze"/></rect></clipPath><clipPath id="clip-mask-22"><rect x="127" y="103" width="121" height="33"><set attributeName="x" to="6" begin="0; animate24.end + 1" /><animate attributeName="x" from="6" to="127" dur="0.448" begin="animate21.end + 0.5" id="animate22" fill="freeze"/></rect></clipPath><clipPath id="clip-mask-23"><rect x="135" y="142" width="100" height="29"><set attributeName="x" to="35" begin="0; animate24.end + 1" /><animate attributeName="x" from="35" to="135" dur="0.370" begin="animate22.end + 0.5" id="animate23" fill="freeze"/></rect></clipPath><clipPath id="clip-mask-24"><rect x="171" y="125" width="23" height="127"><set attributeName="y" to="-2" begin="0; animate24.end + 1" /><animate attributeName="y" from="-2" to="125" dur="0.470" begin="animate23.end + 0.5" id="animate24" fill="freeze"/></rect></clipPath></defs><path d="M 0 0 L 270 270 M 270 0 L 0 270 M 135 0 L 135 270 M 0 135 L 270 135" stroke="#CCCCCC" /><path d="M 93 22 L 95 18 Q 98 17 102 19 Q 111 23 116 26 Q 119 29 118 31 Q 117 33 113 33 Q 96 36 92 40 Q 61 52 51 52 Q 49 51 51 50 Q 79 37 90 27" fill="#CCCCCC"/><path d="M 36 63 L 37 61 Q 38 58 39 58 Q 40 58 43 60 Q 54 70 53 76 Q 52 82 50 84 Q 47 86 46 85 Q 43 83 39 69" fill="#CCCCCC"/><path d="M 70 53 L 71 51 Q 72 49 74 50 Q 76 52 82 58 Q 86 62 87 66 Q 87 70 86 72 Q 83 75 81 74 Q 75 72 71 55" fill="#CCCCCC"/><path d="M 117 45 L 117 42 Q 117 38 120 38 Q 125 38 129 43 Q 133 46 134 50 Q 134 52 130 53 Q 122 57 105 66 Q 103 67 102 67 Q 101 65 102 64 Q 111 54 115 48" fill="#CCCCCC"/><path d="M 96 84 Q 93 83 73 93 Q 67 97 61 94 Q 58 92 56 90 Q 55 86 59 86 Q 64 86 81 82 Q 100 75 103 77 Q 115 84 116 86 Q 116 89 113 90" fill="#CCCCCC"/><path d="M 81 107 Q 90 96 97 88 Q 98 85 96 84 L 113 90 Q 107 92 84 109" fill="#CCCCCC"/><path d="M 80 117 Q 79 116 77 115 Q 68 106 68 104 Q 68 102 70 102 Q 78 104 81 107 L 84 109 Q 86 113 85 116" fill="#CCCCCC"/><path d="M 46 131 Q 45 142 43 187 Q 41 214 33 220 Q 30 221 29 218 Q 21 209 29 191 Q 41 148 30 122 Q 29 119 32 118 Q 40 118 45 123" fill="#CCCCCC"/><path d="M 65 127 Q 48 131 46 131 L 45 123 Q 62 121 78 117 Q 79 117 80 117 L 85 116 Q 98 112 105 110 Q 109 109 113 111 Q 123 116 125 119 L 107 122 Q 105 119 100 120 Q 86 122 74 125" fill="#CCCCCC"/><path d="M 125 119 Q 128 121 125 126 Q 121 133 127 204 Q 127 217 123 227 Q 121 233 119 233 Q 116 234 112 230 L 110 210 Q 112 209 112 203 Q 113 166 110 133 Q 109 123 107 122" fill="#CCCCCC"/><path d="M 112 230 Q 106 223 96 214 Q 93 213 93 211 Q 93 209 96 210 Q 108 212 110 210" fill="#CCCCCC"/><path d="M 60 159 Q 58 161 56 160 Q 52 157 51 155 Q 51 153 53 151 Q 59 146 62 141 Q 67 133 65 127 L 74 125 Q 77 126 77 127 Q 79 129 77 131 Q 75 133 65 147 Q 65 148 65 149" fill="#CCCCCC"/><path d="M 87 146 L 86 147 Q 63 155 60 159 L 65 149 Q 65 149 66 149 Q 77 144 88 143 L 89 146" fill="#CCCCCC"/><path d="M 88 143 Q 85 137 86 135 Q 86 133 87 133 Q 88 133 90 135 Q 100 143 100 151 Q 99 153 97 155 Q 95 156 94 155 Q 91 152 89 146" fill="#CCCCCC"/><path d="M 80 169 Q 79 169 67 174 Q 62 176 54 173 Q 51 172 52 171 Q 52 169 54 169 Q 65 167 72 165 Q 78 163 81 160 Q 84 159 88 161 Q 94 163 96 165 Q 97 166 95 168" fill="#CCCCCC"/><path d="M 58 214 L 47 212 Q 46 212 48 210 Q 55 205 68 192 L 72 186 Q 76 180 80 172 Q 82 170 80 169 L 95 168 Q 93 170 92 174 Q 86 183 81 190 L 75 197" fill="#CCCCCC"/><path d="M 68 192 L 54 183 Q 53 181 54 181 Q 58 180 72 186 L 81 190 Q 82 190 82 190 Q 86 193 88 197 Q 90 200 89 202 Q 88 203 86 203 Q 82 202 75 197" fill="#CCCCCC"/><path d="M 159 26 L 157 23 Q 157 20 158 19 Q 160 18 164 19 Q 187 23 190 32 Q 193 39 192 43 Q 190 46 188 46 Q 184 47 181 44 Q 173 37 166 31" fill="#CCCCCC"/><path d="M 165 62 L 187 56 Q 210 48 215 49 Q 222 50 223 53 Q 224 55 223 56 Q 221 58 210 61 Q 188 66 167 71 Q 150 74 142 70 Q 136 66 144 65" fill="#CCCCCC"/><path d="M 141 90 L 141 88 Q 141 85 142 85 Q 144 84 148 85 Q 163 92 166 101 Q 166 104 164 107 Q 162 110 159 109 Q 153 105 144 93" fill="#CCCCCC"/><path d="M 184 116 Q 184 112 187 107 Q 197 82 195 74 Q 194 71 196 70 Q 201 68 204 71 Q 212 77 214 81 Q 216 84 212 87 Q 208 91 206 95 Q 195 110 192 114" fill="#CCCCCC"/><path d="M 146 134 Q 138 136 131 130 Q 127 127 132 126 Q 159 121 182 116 Q 183 116 184 116 L 192 114 Q 205 111 214 108 Q 231 103 244 111 Q 248 115 247 117 Q 246 118 244 119 Q 214 122 185 125" fill="#CCCCCC"/><path d="M 165 166 L 156 169 Q 144 171 138 167 Q 135 163 139 163 Q 159 158 176 155 L 191 151 Q 196 150 202 149 Q 219 142 231 151 Q 235 153 234 156 Q 232 159 222 159 Q 203 159 191 162 L 176 164" fill="#CCCCCC"/><path d="M 176 155 Q 175 132 171 128 L 185 125 Q 187 126 190 128 Q 194 131 193 135 Q 191 144 191 150 Q 191 151 191 151 L 191 162 Q 190 197 190 207 Q 191 221 189 234 Q 188 248 184 251 Q 182 252 181 250 Q 177 244 177 208 Q 177 183 176 164" fill="#CCCCCC"/><path d="M 93 22 L 95 18 Q 98 17 102 19 Q 111 23 116 26 Q 119 29 118 31 Q 117 33 113 33 Q 96 36 92 40 Q 61 52 51 52 Q 49 51 51 50 Q 79 37 90 27" fill="#000080" clip-path="url(#clip-mask-1)" /><path d="M 36 63 L 37 61 Q 38 58 39 58 Q 40 58 43 60 Q 54 70 53 76 Q 52 82 50 84 Q 47 86 46 85 Q 43 83 39 69" fill="#000080" clip-path="url(#clip-mask-2)" /><path d="M 70 53 L 71 51 Q 72 49 74 50 Q 76 52 82 58 Q 86 62 87 66 Q 87 70 86 72 Q 83 75 81 74 Q 75 72 71 55" fill="#000080" clip-path="url(#clip-mask-3)" /><path d="M 117 45 L 117 42 Q 117 38 120 38 Q 125 38 129 43 Q 133 46 134 50 Q 134 52 130 53 Q 122 57 105 66 Q 103 67 102 67 Q 101 65 102 64 Q 111 54 115 48" fill="#000080" clip-path="url(#clip-mask-4)" /><path d="M 96 84 Q 93 83 73 93 Q 67 97 61 94 Q 58 92 56 90 Q 55 86 59 86 Q 64 86 81 82 Q 100 75 103 77 Q 115 84 116 86 Q 116 89 113 90" fill="#000080" clip-path="url(#clip-mask-5)" /><path d="M 81 107 Q 90 96 97 88 Q 98 85 96 84 L 113 90 Q 107 92 84 109" fill="#000080" clip-path="url(#clip-mask-6)" /><path d="M 80 117 Q 79 116 77 115 Q 68 106 68 104 Q 68 102 70 102 Q 78 104 81 107 L 84 109 Q 86 113 85 116" fill="#000080" clip-path="url(#clip-mask-7)" /><path d="M 46 131 Q 45 142 43 187 Q 41 214 33 220 Q 30 221 29 218 Q 21 209 29 191 Q 41 148 30 122 Q 29 119 32 118 Q 40 118 45 123" fill="#000080" clip-path="url(#clip-mask-8)" /><path d="M 65 127 Q 48 131 46 131 L 45 123 Q 62 121 78 117 Q 79 117 80 117 L 85 116 Q 98 112 105 110 Q 109 109 113 111 Q 123 116 125 119 L 107 122 Q 105 119 100 120 Q 86 122 74 125" fill="#000080" clip-path="url(#clip-mask-9)" /><path d="M 125 119 Q 128 121 125 126 Q 121 133 127 204 Q 127 217 123 227 Q 121 233 119 233 Q 116 234 112 230 L 110 210 Q 112 209 112 203 Q 113 166 110 133 Q 109 123 107 122" fill="#000080" clip-path="url(#clip-mask-10)" /><path d="M 112 230 Q 106 223 96 214 Q 93 213 93 211 Q 93 209 96 210 Q 108 212 110 210" fill="#000080" clip-path="url(#clip-mask-11)" /><path d="M 60 159 Q 58 161 56 160 Q 52 157 51 155 Q 51 153 53 151 Q 59 146 62 141 Q 67 133 65 127 L 74 125 Q 77 126 77 127 Q 79 129 77 131 Q 75 133 65 147 Q 65 148 65 149" fill="#000080" clip-path="url(#clip-mask-12)" /><path d="M 87 146 L 86 147 Q 63 155 60 159 L 65 149 Q 65 149 66 149 Q 77 144 88 143 L 89 146" fill="#000080" clip-path="url(#clip-mask-13)" /><path d="M 88 143 Q 85 137 86 135 Q 86 133 87 133 Q 88 133 90 135 Q 100 143 100 151 Q 99 153 97 155 Q 95 156 94 155 Q 91 152 89 146" fill="#000080" clip-path="url(#clip-mask-14)" /><path d="M 80 169 Q 79 169 67 174 Q 62 176 54 173 Q 51 172 52 171 Q 52 169 54 169 Q 65 167 72 165 Q 78 163 81 160 Q 84 159 88 161 Q 94 163 96 165 Q 97 166 95 168" fill="#000080" clip-path="url(#clip-mask-15)" /><path d="M 58 214 L 47 212 Q 46 212 48 210 Q 55 205 68 192 L 72 186 Q 76 180 80 172 Q 82 170 80 169 L 95 168 Q 93 170 92 174 Q 86 183 81 190 L 75 197" fill="#000080" clip-path="url(#clip-mask-16)" /><path d="M 68 192 L 54 183 Q 53 181 54 181 Q 58 180 72 186 L 81 190 Q 82 190 82 190 Q 86 193 88 197 Q 90 200 89 202 Q 88 203 86 203 Q 82 202 75 197" fill="#000080" clip-path="url(#clip-mask-17)" /><path d="M 159 26 L 157 23 Q 157 20 158 19 Q 160 18 164 19 Q 187 23 190 32 Q 193 39 192 43 Q 190 46 188 46 Q 184 47 181 44 Q 173 37 166 31" fill="#0000ff" clip-path="url(#clip-mask-18)" /><path d="M 165 62 L 187 56 Q 210 48 215 49 Q 222 50 223 53 Q 224 55 223 56 Q 221 58 210 61 Q 188 66 167 71 Q 150 74 142 70 Q 136 66 144 65" fill="#0000ff" clip-path="url(#clip-mask-19)" /><path d="M 141 90 L 141 88 Q 141 85 142 85 Q 144 84 148 85 Q 163 92 166 101 Q 166 104 164 107 Q 162 110 159 109 Q 153 105 144 93" fill="#0000ff" clip-path="url(#clip-mask-20)" /><path d="M 184 116 Q 184 112 187 107 Q 197 82 195 74 Q 194 71 196 70 Q 201 68 204 71 Q 212 77 214 81 Q 216 84 212 87 Q 208 91 206 95 Q 195 110 192 114" fill="#0000ff" clip-path="url(#clip-mask-21)" /><path d="M 146 134 Q 138 136 131 130 Q 127 127 132 126 Q 159 121 182 116 Q 183 116 184 116 L 192 114 Q 205 111 214 108 Q 231 103 244 111 Q 248 115 247 117 Q 246 118 244 119 Q 214 122 185 125" fill="#0000ff" clip-path="url(#clip-mask-22)" /><path d="M 165 166 L 156 169 Q 144 171 138 167 Q 135 163 139 163 Q 159 158 176 155 L 191 151 Q 196 150 202 149 Q 219 142 231 151 Q 235 153 234 156 Q 232 159 222 159 Q 203 159 191 162 L 176 164" fill="#0000ff" clip-path="url(#clip-mask-23)" /><path d="M 176 155 Q 175 132 171 128 L 185 125 Q 187 126 190 128 Q 194 131 193 135 Q 191 144 191 150 Q 191 151 191 151 L 191 162 Q 190 197 190 207 Q 191 221 189 234 Q 188 248 184 251 Q 182 252 181 250 Q 177 244 177 208 Q 177 183 176 164" fill="#0000ff" clip-path="url(#clip-mask-24)" /></svg>