<svg xmlns="http://www.w3.org/2000/svg" xmlns:xlink="http://www.w3.org/1999/xlink" width="270" height="270"><defs><clipPath id="clip-mask-1"><rect x="101" y="13" width="96" height="25"><animate attributeName="x" from="5" to="101" dur="0.356" begin="0; animate12.end + 1" id="animate1" fill="freeze"/></rect></clipPath><clipPath id="clip-mask-2"><rect x="18" y="18" width="85" height="178"><set attributeName="y" to="-160" begin="0; animate12.end + 1" /><animate attributeName="y" from="-160" to="18" dur="0.659" begin="animate1.end + 0.5" id="animate2" fill="freeze"/></rect></clipPath><clipPath id="clip-mask-3"><rect x="109" y="41" width="68" height="19"><set attributeName="x" to="41" begin="0; animate12.end + 1" /><animate attributeName="x" from="41" to="109" dur="0.252" begin="animate2.end + 0.5" id="animate3" fill="freeze"/></rect></clipPath><clipPath id="clip-mask-4"><rect x="93" y="60" width="115" height="28"><set attributeName="x" to="-22" begin="0; animate12.end + 1" /><animate attributeName="x" from="-22" to="93" dur="0.426" begin="animate3.end + 0.5" id="animate4" fill="freeze"/></rect></clipPath><clipPath id="clip-mask-5"><rect x="97" y="86" width="24" height="69"><set attributeName="y" to="17" begin="0; animate12.end + 1" /><animate attributeName="y" from="17" to="86" dur="0.256" begin="animate4.end + 0.5" id="animate5" fill="freeze"/></rect></clipPath><clipPath id="clip-mask-6"><rect x="113" y="116" width="37" height="36"><set attributeName="x" to="76" begin="0; animate12.end + 1" /><animate attributeName="x" from="76" to="113" dur="0.137" begin="animate5.end" id="animate6" fill="freeze"/></rect></clipPath><clipPath id="clip-mask-7"><rect x="172" y="78" width="39" height="28"><set attributeName="y" to="50" begin="0; animate12.end + 1" /><animate attributeName="y" from="50" to="78" dur="0.104" begin="animate6.end + 0.5" id="animate7" fill="freeze"/></rect></clipPath><clipPath id="clip-mask-8"><rect x="131" y="80" width="120" height="61"><set attributeName="x" to="11" begin="0; animate12.end + 1" /><animate attributeName="x" from="11" to="131" dur="0.444" begin="animate7.end + 0.5" id="animate8" fill="freeze"/></rect></clipPath><clipPath id="clip-mask-9"><rect x="70" y="146" width="170" height="31"><set attributeName="x" to="-100" begin="0; animate12.end + 1" /><animate attributeName="x" from="-100" to="70" dur="0.630" begin="animate8.end + 0.5" id="animate9" fill="freeze"/></rect></clipPath><clipPath id="clip-mask-10"><rect x="155" y="129" width="27" height="127"><set attributeName="y" to="2" begin="0; animate12.end + 1" /><animate attributeName="y" from="2" to="129" dur="0.470" begin="animate9.end + 0.5" id="animate10" fill="freeze"/></rect></clipPath><clipPath id="clip-mask-11"><rect x="135" y="219" width="25" height="33"><set attributeName="x" to="160" begin="0; animate12.end + 1" /><animate attributeName="x" from="160" to="135" dur="0.093" begin="animate10.end" id="animate11" fill="freeze"/></rect></clipPath><clipPath id="clip-mask-12"><rect x="100" y="176" width="30" height="33"><set attributeName="x" to="70" begin="0; animate12.end + 1" /><animate attributeName="x" from="70" to="100" dur="0.111" begin="animate11.end + 0.5" id="animate12" fill="freeze"/></rect></clipPath></defs><path d="M 0 0 L 270 270 M 270 0 L 0 270 M 135 0 L 135 270 M 0 135 L 270 135" stroke="#CCCCCC" /><path d="M 128 25 L 152 21 Q 182 13 188 15 Q 194 17 196 20 Q 197 22 195 24 Q 191 26 120 37 Q 110 38 103 36 L 101 27" fill="#CCCCCC"/><path d="M 103 36 Q 100 39 95 65 Q 85 114 63 151 Q 60 156 57 161 Q 32 194 21 196 Q 18 196 19 193 Q 20 192 21 190 Q 47 158 60 133 Q 76 99 83 56 Q 83 52 84 49 Q 86 32 82 24 Q 81 20 85 19 Q 88 18 92 21 Q 98 24 101 27" fill="#CCCCCC"/><path d="M 129 50 L 139 48 Q 148 46 156 44 Q 162 41 169 42 Q 175 44 176 46 Q 177 48 175 50 Q 174 51 167 52 Q 152 55 140 58 Q 122 60 115 56 Q 109 52 117 51" fill="#CCCCCC"/><path d="M 131 82 Q 122 83 115 86 L 106 88 Q 98 86 96 84 Q 93 81 97 80 Q 151 71 182 64 Q 192 60 204 68 Q 208 70 207 73 Q 206 75 202 75 Q 170 75 143 80 Q 142 80 142 80" fill="#CCCCCC"/><path d="M 115 86 Q 120 90 121 92 Q 121 92 118 122 Q 118 127 120 128 L 113 152 Q 110 155 107 154 Q 106 153 106 152 Q 97 142 103 134 Q 109 128 110 103 Q 110 96 106 88" fill="#CCCCCC"/><path d="M 120 128 Q 122 129 146 118 Q 150 116 150 119 Q 150 121 146 124 Q 120 143 113 152" fill="#CCCCCC"/><path d="M 174 101 L 175 100 Q 195 85 195 81 Q 195 78 197 79 Q 200 79 204 82 Q 208 86 210 90 Q 211 93 207 94 Q 202 95 188 101 Q 183 103 176 106 L 172 103" fill="#CCCCCC"/><path d="M 176 106 Q 179 107 192 115 Q 202 120 242 128 Q 250 130 250 131 Q 251 133 243 135 Q 228 139 210 140 Q 200 141 170 113 Q 145 89 131 82 L 142 80 Q 143 80 172 103" fill="#CCCCCC"/><path d="M 127 167 L 91 175 Q 87 177 81 175 Q 77 173 74 170 Q 70 166 75 165 Q 116 161 151 157 Q 157 156 163 156 L 177 154 Q 193 152 205 150 Q 221 146 236 156 Q 240 160 238 163 Q 237 165 232 165 Q 226 165 220 165 Q 195 164 176 165 L 163 166" fill="#CCCCCC"/><path d="M 163 156 Q 162 146 157 136 Q 155 133 156 131 Q 158 129 163 130 Q 171 133 177 139 Q 182 142 179 147 Q 177 150 177 154 L 176 165 Q 176 205 177 226 Q 177 244 167 253 Q 163 256 160 252 L 159 224 Q 163 220 163 166" fill="#CCCCCC"/><path d="M 160 252 Q 154 242 137 225 Q 135 223 135 221 Q 135 219 138 220 Q 146 222 154 224 Q 157 225 159 224" fill="#CCCCCC"/><path d="M 100 184 L 100 181 Q 100 178 101 177 Q 105 176 121 186 Q 128 190 129 195 Q 130 202 128 206 Q 127 209 124 208 Q 120 208 117 204 Q 111 197 106 190" fill="#CCCCCC"/><path d="M 128 25 L 152 21 Q 182 13 188 15 Q 194 17 196 20 Q 197 22 195 24 Q 191 26 120 37 Q 110 38 103 36 L 101 27" fill="#0000ff" clip-path="url(#clip-mask-1)" /><path d="M 103 36 Q 100 39 95 65 Q 85 114 63 151 Q 60 156 57 161 Q 32 194 21 196 Q 18 196 19 193 Q 20 192 21 190 Q 47 158 60 133 Q 76 99 83 56 Q 83 52 84 49 Q 86 32 82 24 Q 81 20 85 19 Q 88 18 92 21 Q 98 24 101 27" fill="#0000ff" clip-path="url(#clip-mask-2)" /><path d="M 129 50 L 139 48 Q 148 46 156 44 Q 162 41 169 42 Q 175 44 176 46 Q 177 48 175 50 Q 174 51 167 52 Q 152 55 140 58 Q 122 60 115 56 Q 109 52 117 51" fill="#0000ff" clip-path="url(#clip-mask-3)" /><path d="M 131 82 Q 122 83 115 86 L 106 88 Q 98 86 96 84 Q 93 81 97 80 Q 151 71 182 64 Q 192 60 204 68 Q 208 70 207 73 Q 206 75 202 75 Q 170 75 143 80 Q 142 80 142 80" fill="#0000ff" clip-path="url(#clip-mask-4)" /><path d="M 115 86 Q 120 90 121 92 Q 121 92 118 122 Q 118 127 120 128 L 113 152 Q 110 155 107 154 Q 106 153 106 152 Q 97 142 103 134 Q 109 128 110 103 Q 110 96 106 88" fill="#0000ff" clip-path="url(#clip-mask-5)" /><path d="M 120 128 Q 122 129 146 118 Q 150 116 150 119 Q 150 121 146 124 Q 120 143 113 152" fill="#0000ff" clip-path="url(#clip-mask-6)" /><path d="M 174 101 L 175 100 Q 195 85 195 81 Q 195 78 197 79 Q 200 79 204 82 Q 208 86 210 90 Q 211 93 207 94 Q 202 95 188 101 Q 183 103 176 106 L 172 103" fill="#0000ff" clip-path="url(#clip-mask-7)" /><path d="M 176 106 Q 179 107 192 115 Q 202 120 242 128 Q 250 130 250 131 Q 251 133 243 135 Q 228 139 210 140 Q 200 141 170 113 Q 145 89 131 82 L 142 80 Q 143 80 172 103" fill="#0000ff" clip-path="url(#clip-mask-8)" /><path d="M 127 167 L 91 175 Q 87 177 81 175 Q 77 173 74 170 Q 70 166 75 165 Q 116 161 151 157 Q 157 156 163 156 L 177 154 Q 193 152 205 150 Q 221 146 236 156 Q 240 160 238 163 Q 237 165 232 165 Q 226 165 220 165 Q 195 164 176 165 L 163 166" fill="#000080" clip-path="url(#clip-mask-9)" /><path d="M 163 156 Q 162 146 157 136 Q 155 133 156 131 Q 158 129 163 130 Q 171 133 177 139 Q 182 142 179 147 Q 177 150 177 154 L 176 165 Q 176 205 177 226 Q 177 244 167 253 Q 163 256 160 252 L 159 224 Q 163 220 163 166" fill="#000080" clip-path="url(#clip-mask-10)" /><path d="M 160 252 Q 154 242 137 225 Q 135 223 135 221 Q 135 219 138 220 Q 146 222 154 224 Q 157 225 159 224" fill="#000080" clip-path="url(#clip-mask-11)" /><path d="M 100 184 L 100 181 Q 100 178 101 177 Q 105 176 121 186 Q 128 190 129 195 Q 130 202 128 206 Q 127 209 124 208 Q 120 208 117 204 Q 111 197 106 190" fill="#000080" clip-path="url(#clip-mask-12)" /></svg>