<svg xmlns="http://www.w3.org/2000/svg" xmlns:xlink="http://www.w3.org/1999/xlink" width="270" height="270"><defs><clipPath id="clip-mask-1"><rect x="127" y="35" width="25" height="30"><animate attributeName="y" from="5" to="35" dur="0.111" begin="0; animate12.end + 1" id="animate1" fill="freeze"/></rect></clipPath><clipPath id="clip-mask-2"><rect x="163" y="18" width="48" height="51"><set attributeName="y" to="-33" begin="0; animate12.end + 1" /><animate attributeName="y" from="-33" to="18" dur="0.189" begin="animate1.end + 0.5" id="animate2" fill="freeze"/></rect></clipPath><clipPath id="clip-mask-3"><rect x="115" y="68" width="97" height="29"><set attributeName="x" to="18" begin="0; animate12.end + 1" /><animate attributeName="x" from="18" to="115" dur="0.359" begin="animate2.end + 0.5" id="animate3" fill="freeze"/></rect></clipPath><clipPath id="clip-mask-4"><rect x="103" y="107" width="26" height="62"><set attributeName="y" to="45" begin="0; animate12.end + 1" /><animate attributeName="y" from="45" to="107" dur="0.230" begin="animate3.end + 0.5" id="animate4" fill="freeze"/></rect></clipPath><clipPath id="clip-mask-5"><rect x="117" y="136" width="79" height="31"><set attributeName="x" to="38" begin="0; animate12.end + 1" /><animate attributeName="x" from="38" to="117" dur="0.293" begin="animate4.end" id="animate5" fill="freeze"/></rect></clipPath><clipPath id="clip-mask-6"><rect x="192" y="92" width="28" height="71"><set attributeName="y" to="21" begin="0; animate12.end + 1" /><animate attributeName="y" from="21" to="92" dur="0.263" begin="animate5.end + 0.5" id="animate6" fill="freeze"/></rect></clipPath><clipPath id="clip-mask-7"><rect x="122" y="91" width="49" height="119"><set attributeName="y" to="-28" begin="0; animate12.end + 1" /><animate attributeName="y" from="-28" to="91" dur="0.441" begin="animate6.end + 0.5" id="animate7" fill="freeze"/></rect></clipPath><clipPath id="clip-mask-8"><rect x="52" y="35" width="41" height="34"><set attributeName="x" to="11" begin="0; animate12.end + 1" /><animate attributeName="x" from="11" to="52" dur="0.152" begin="animate7.end + 0.5" id="animate8" fill="freeze"/></rect></clipPath><clipPath id="clip-mask-9"><rect x="23" y="97" width="64" height="28"><set attributeName="x" to="-41" begin="0; animate12.end + 1" /><animate attributeName="x" from="-41" to="23" dur="0.237" begin="animate8.end + 0.5" id="animate9" fill="freeze"/></rect></clipPath><clipPath id="clip-mask-10"><rect x="51" y="109" width="41" height="50"><set attributeName="y" to="59" begin="0; animate12.end + 1" /><animate attributeName="y" from="59" to="109" dur="0.185" begin="animate9.end" id="animate10" fill="freeze"/></rect></clipPath><clipPath id="clip-mask-11"><rect x="58" y="159" width="22" height="34"><set attributeName="y" to="125" begin="0; animate12.end + 1" /><animate attributeName="y" from="125" to="159" dur="0.126" begin="animate10.end" id="animate11" fill="freeze"/></rect></clipPath><clipPath id="clip-mask-12"><rect x="19" y="193" width="231" height="58"><set attributeName="x" to="-212" begin="0; animate12.end + 1" /><animate attributeName="x" from="-212" to="19" dur="0.856" begin="animate11.end + 0.5" id="animate12" fill="freeze"/></rect></clipPath></defs><path d="M 0 0 L 270 270 M 270 0 L 0 270 M 135 0 L 135 270 M 0 135 L 270 135" stroke="#CCCCCC" /><path d="M 127 40 L 128 38 Q 129 35 130 36 Q 134 38 143 44 Q 149 47 151 52 Q 152 57 151 61 Q 149 65 145 64 Q 139 62 128 43" fill="#CCCCCC"/><path d="M 187 27 L 186 23 Q 184 19 188 18 Q 191 18 197 20 Q 204 23 208 27 Q 211 31 206 34 Q 201 38 196 43 Q 168 67 167 68 Q 163 69 164 64 Q 182 37 184 32" fill="#CCCCCC"/><path d="M 150 93 Q 148 93 147 93 Q 132 97 122 91 Q 115 87 124 85 Q 145 82 170 76 Q 195 68 201 69 Q 208 71 210 73 Q 212 76 209 77 Q 207 79 159 91" fill="#CCCCCC"/><path d="M 117 167 Q 115 169 111 167 Q 107 164 105 161 Q 103 158 107 153 Q 112 148 114 137 Q 116 125 111 113 Q 109 108 112 107 Q 115 107 117 108 Q 123 112 126 116 Q 129 119 128 125 Q 126 135 125 145" fill="#CCCCCC"/><path d="M 154 153 Q 121 162 117 167 L 125 145 Q 123 150 128 149 Q 140 145 155 143 L 167 141 Q 181 138 196 136 L 192 146 Q 180 145 165 150" fill="#CCCCCC"/><path d="M 196 136 Q 196 135 196 135 Q 204 106 199 97 Q 198 94 200 93 Q 203 92 206 94 Q 213 99 217 103 Q 220 106 217 110 Q 215 113 209 135 Q 206 155 200 160 Q 197 163 195 159 Q 192 152 192 146" fill="#CCCCCC"/><path d="M 122 208 Q 148 182 154 153 L 155 143 Q 155 142 155 141 Q 155 132 156 126 Q 155 105 150 93 L 159 91 Q 162 92 166 94 Q 171 96 170 101 Q 169 104 169 108 Q 168 126 167 141 L 165 150 Q 162 168 155 183 Q 148 194 128 210" fill="#CCCCCC"/><path d="M 53 44 L 52 41 Q 52 37 53 36 Q 56 35 60 36 Q 87 42 90 52 Q 93 61 92 65 Q 90 69 87 69 Q 82 69 78 65 Q 70 57 61 50" fill="#CCCCCC"/><path d="M 60 116 Q 35 125 25 121 Q 23 120 23 119 Q 24 117 26 117 Q 33 118 56 105 Q 67 97 72 101 Q 82 105 87 109" fill="#CCCCCC"/><path d="M 58 159 Q 51 144 63 131 Q 70 124 64 117 Q 62 115 60 116 L 87 109 Q 92 113 86 118 Q 85 119 84 120 Q 62 144 70 159" fill="#CCCCCC"/><path d="M 68 192 L 69 192 Q 70 184 58 159 L 70 159 Q 80 178 79 187 Q 77 192 75 193 L 68 193" fill="#CCCCCC"/><path d="M 75 193 Q 84 194 122 208 L 128 210 Q 137 213 146 216 Q 178 225 244 225 Q 250 225 244 229 Q 230 239 214 245 Q 213 245 213 245 Q 190 251 130 224 Q 93 208 76 204 Q 57 201 40 214 Q 35 218 32 216 Q 26 213 21 209 Q 19 206 20 204 Q 20 202 22 202 Q 36 200 45 197 Q 57 193 68 193" fill="#CCCCCC"/><path d="M 127 40 L 128 38 Q 129 35 130 36 Q 134 38 143 44 Q 149 47 151 52 Q 152 57 151 61 Q 149 65 145 64 Q 139 62 128 43" fill="#000080" clip-path="url(#clip-mask-1)" /><path d="M 187 27 L 186 23 Q 184 19 188 18 Q 191 18 197 20 Q 204 23 208 27 Q 211 31 206 34 Q 201 38 196 43 Q 168 67 167 68 Q 163 69 164 64 Q 182 37 184 32" fill="#000080" clip-path="url(#clip-mask-2)" /><path d="M 150 93 Q 148 93 147 93 Q 132 97 122 91 Q 115 87 124 85 Q 145 82 170 76 Q 195 68 201 69 Q 208 71 210 73 Q 212 76 209 77 Q 207 79 159 91" fill="#000080" clip-path="url(#clip-mask-3)" /><path d="M 117 167 Q 115 169 111 167 Q 107 164 105 161 Q 103 158 107 153 Q 112 148 114 137 Q 116 125 111 113 Q 109 108 112 107 Q 115 107 117 108 Q 123 112 126 116 Q 129 119 128 125 Q 126 135 125 145" fill="#000080" clip-path="url(#clip-mask-4)" /><path d="M 154 153 Q 121 162 117 167 L 125 145 Q 123 150 128 149 Q 140 145 155 143 L 167 141 Q 181 138 196 136 L 192 146 Q 180 145 165 150" fill="#000080" clip-path="url(#clip-mask-5)" /><path d="M 196 136 Q 196 135 196 135 Q 204 106 199 97 Q 198 94 200 93 Q 203 92 206 94 Q 213 99 217 103 Q 220 106 217 110 Q 215 113 209 135 Q 206 155 200 160 Q 197 163 195 159 Q 192 152 192 146" fill="#000080" clip-path="url(#clip-mask-6)" /><path d="M 122 208 Q 148 182 154 153 L 155 143 Q 155 142 155 141 Q 155 132 156 126 Q 155 105 150 93 L 159 91 Q 162 92 166 94 Q 171 96 170 101 Q 169 104 169 108 Q 168 126 167 141 L 165 150 Q 162 168 155 183 Q 148 194 128 210" fill="#000080" clip-path="url(#clip-mask-7)" /><path d="M 53 44 L 52 41 Q 52 37 53 36 Q 56 35 60 36 Q 87 42 90 52 Q 93 61 92 65 Q 90 69 87 69 Q 82 69 78 65 Q 70 57 61 50" fill="#0000ff" clip-path="url(#clip-mask-8)" /><path d="M 60 116 Q 35 125 25 121 Q 23 120 23 119 Q 24 117 26 117 Q 33 118 56 105 Q 67 97 72 101 Q 82 105 87 109" fill="#0000ff" clip-path="url(#clip-mask-9)" /><path d="M 58 159 Q 51 144 63 131 Q 70 124 64 117 Q 62 115 60 116 L 87 109 Q 92 113 86 118 Q 85 119 84 120 Q 62 144 70 159" fill="#0000ff" clip-path="url(#clip-mask-10)" /><path d="M 68 192 L 69 192 Q 70 184 58 159 L 70 159 Q 80 178 79 187 Q 77 192 75 193 L 68 193" fill="#0000ff" clip-path="url(#clip-mask-11)" /><path d="M 75 193 Q 84 194 122 208 L 128 210 Q 137 213 146 216 Q 178 225 244 225 Q 250 225 244 229 Q 230 239 214 245 Q 213 245 213 245 Q 190 251 130 224 Q 93 208 76 204 Q 57 201 40 214 Q 35 218 32 216 Q 26 213 21 209 Q 19 206 20 204 Q 20 202 22 202 Q 36 200 45 197 Q 57 193 68 193" fill="#0000ff" clip-path="url(#clip-mask-12)" /></svg>