<svg xmlns="http://www.w3.org/2000/svg" xmlns:xlink="http://www.w3.org/1999/xlink" width="270" height="270"><defs><clipPath id="clip-mask-1"><rect x="120" y="50" width="80" height="27"><animate attributeName="x" from="40" to="120" dur="0.296" begin="0; animate17.end + 1" id="animate1" fill="freeze"/></rect></clipPath><clipPath id="clip-mask-2"><rect x="147" y="12" width="25" height="76"><set attributeName="y" to="-64" begin="0; animate17.end + 1" /><animate attributeName="y" from="-64" to="12" dur="0.281" begin="animate1.end + 0.5" id="animate2" fill="freeze"/></rect></clipPath><clipPath id="clip-mask-3"><rect x="88" y="72" width="142" height="39"><set attributeName="x" to="-54" begin="0; animate17.end + 1" /><animate attributeName="x" from="-54" to="88" dur="0.526" begin="animate2.end + 0.5" id="animate3" fill="freeze"/></rect></clipPath><clipPath id="clip-mask-4"><rect x="118" y="113" width="22" height="36"><set attributeName="y" to="77" begin="0; animate17.end + 1" /><animate attributeName="y" from="77" to="113" dur="0.133" begin="animate3.end + 0.5" id="animate4" fill="freeze"/></rect></clipPath><clipPath id="clip-mask-5"><rect x="133" y="100" width="63" height="22"><set attributeName="x" to="70" begin="0; animate17.end + 1" /><animate attributeName="x" from="70" to="133" dur="0.233" begin="animate4.end + 0.5" id="animate5" fill="freeze"/></rect></clipPath><clipPath id="clip-mask-6"><rect x="172" y="111" width="27" height="21"><set attributeName="y" to="90" begin="0; animate17.end + 1" /><animate attributeName="y" from="90" to="111" dur="0.078" begin="animate5.end" id="animate6" fill="freeze"/></rect></clipPath><clipPath id="clip-mask-7"><rect x="140" y="130" width="48" height="19"><set attributeName="x" to="92" begin="0; animate17.end + 1" /><animate attributeName="x" from="92" to="140" dur="0.178" begin="animate6.end + 0.5" id="animate7" fill="freeze"/></rect></clipPath><clipPath id="clip-mask-8"><rect x="82" y="145" width="76" height="53"><set attributeName="y" to="92" begin="0; animate17.end + 1" /><animate attributeName="y" from="92" to="145" dur="0.196" begin="animate7.end + 0.5" id="animate8" fill="freeze"/></rect></clipPath><clipPath id="clip-mask-9"><rect x="136" y="164" width="20" height="59"><set attributeName="y" to="105" begin="0; animate17.end + 1" /><animate attributeName="y" from="105" to="164" dur="0.219" begin="animate8.end + 0.5" id="animate9" fill="freeze"/></rect></clipPath><clipPath id="clip-mask-10"><rect x="148" y="187" width="33" height="32"><set attributeName="x" to="115" begin="0; animate17.end + 1" /><animate attributeName="x" from="115" to="148" dur="0.122" begin="animate9.end" id="animate10" fill="freeze"/></rect></clipPath><clipPath id="clip-mask-11"><rect x="175" y="137" width="36" height="30"><set attributeName="y" to="107" begin="0; animate17.end + 1" /><animate attributeName="y" from="107" to="137" dur="0.111" begin="animate10.end + 0.5" id="animate11" fill="freeze"/></rect></clipPath><clipPath id="clip-mask-12"><rect x="163" y="161" width="61" height="40"><set attributeName="x" to="102" begin="0; animate17.end + 1" /><animate attributeName="x" from="102" to="163" dur="0.226" begin="animate11.end + 0.5" id="animate12" fill="freeze"/></rect></clipPath><clipPath id="clip-mask-13"><rect x="44" y="43" width="39" height="29"><set attributeName="x" to="5" begin="0; animate17.end + 1" /><animate attributeName="x" from="5" to="44" dur="0.144" begin="animate12.end + 0.5" id="animate13" fill="freeze"/></rect></clipPath><clipPath id="clip-mask-14"><rect x="16" y="109" width="65" height="26"><set attributeName="x" to="-49" begin="0; animate17.end + 1" /><animate attributeName="x" from="-49" to="16" dur="0.241" begin="animate13.end + 0.5" id="animate14" fill="freeze"/></rect></clipPath><clipPath id="clip-mask-15"><rect x="43" y="128" width="32" height="38"><set attributeName="y" to="90" begin="0; animate17.end + 1" /><animate attributeName="y" from="90" to="128" dur="0.141" begin="animate14.end" id="animate15" fill="freeze"/></rect></clipPath><clipPath id="clip-mask-16"><rect x="48" y="165" width="26" height="39"><set attributeName="y" to="126" begin="0; animate17.end + 1" /><animate attributeName="y" from="126" to="165" dur="0.144" begin="animate15.end + 0.5" id="animate16" fill="freeze"/></rect></clipPath><clipPath id="clip-mask-17"><rect x="17" y="203" width="236" height="54"><set attributeName="x" to="-219" begin="0; animate17.end + 1" /><animate attributeName="x" from="-219" to="17" dur="0.874" begin="animate16.end + 0.5" id="animate17" fill="freeze"/></rect></clipPath></defs><path d="M 0 0 L 270 270 M 270 0 L 0 270 M 135 0 L 135 270 M 0 135 L 270 135" stroke="#CCCCCC" /><path d="M 155 72 Q 153 72 152 73 Q 139 77 127 71 Q 120 67 129 65 Q 143 64 154 61 Q 155 60 155 61 L 167 56 Q 171 55 174 54 Q 182 50 189 51 Q 197 53 199 56 Q 200 58 198 60 Q 196 61 167 69" fill="#CCCCCC"/><path d="M 155 79 L 155 72 L 155 61 Q 154 44 153 29 Q 153 25 149 19 Q 147 16 148 14 Q 150 12 154 13 Q 159 14 167 18 Q 172 21 171 24 Q 167 47 167 56 L 167 69 Q 166 77 165 85 L 155 88" fill="#CCCCCC"/><path d="M 165 85 Q 185 81 199 77 Q 212 72 226 80 Q 230 83 229 86 Q 228 88 224 89 Q 148 95 114 107 Q 99 111 92 105 Q 88 102 93 101 Q 127 94 155 88" fill="#CCCCCC"/><path d="M 140 149 Q 138 148 135 146 Q 132 144 131 140 Q 126 127 120 120 Q 118 117 119 115 Q 120 113 122 114 Q 130 114 133 115 L 136 122 Q 138 127 140 139" fill="#CCCCCC"/><path d="M 133 115 Q 150 110 161 107 Q 176 100 181 103 Q 192 108 196 111 L 175 115 Q 173 113 170 114 Q 139 122 136 122" fill="#CCCCCC"/><path d="M 196 111 Q 199 115 195 119 Q 190 122 184 132 L 172 131 Q 176 117 175 115" fill="#CCCCCC"/><path d="M 171 130 L 172 131 L 184 132 Q 188 135 188 137 Q 188 139 186 139 Q 161 142 148 145 L 140 149 L 140 139 Q 154 136 171 131" fill="#CCCCCC"/><path d="M 106 198 L 88 198 Q 82 197 87 195 Q 130 168 140 149 L 148 145 Q 150 146 152 147 Q 158 150 158 153 Q 158 154 148 164 L 141 169" fill="#CCCCCC"/><path d="M 148 164 Q 151 165 154 168 Q 156 170 155 174 Q 154 177 153 189 Q 153 194 155 196 L 148 219 Q 146 223 143 221 Q 140 218 137 211 Q 136 206 139 201 Q 142 198 143 191 Q 145 177 141 169" fill="#CCCCCC"/><path d="M 155 196 Q 157 196 176 189 Q 181 187 181 189 Q 180 191 176 194 Q 155 211 148 219" fill="#CCCCCC"/><path d="M 179 160 L 182 157 Q 192 146 191 140 Q 191 137 194 137 Q 196 137 201 140 Q 207 144 209 147 Q 211 152 207 153 Q 199 156 189 163 Q 186 165 182 167 L 175 164" fill="#CCCCCC"/><path d="M 182 167 Q 214 175 219 187 Q 224 196 222 199 Q 220 201 218 201 Q 215 201 211 197 Q 186 179 166 168 Q 163 166 163 164 Q 163 161 165 162 Q 169 163 175 164" fill="#CCCCCC"/><path d="M 46 52 L 45 49 Q 44 45 45 44 Q 47 43 51 43 Q 76 47 80 54 Q 83 62 83 66 Q 82 71 79 71 Q 74 72 70 68 Q 61 62 54 57" fill="#CCCCCC"/><path d="M 53 128 Q 51 126 49 127 Q 28 135 18 131 Q 16 130 17 129 Q 17 127 19 127 Q 23 128 35 122 Q 45 118 52 112 Q 56 109 62 112 Q 71 116 76 120 Q 81 124 75 129" fill="#CCCCCC"/><path d="M 48 166 Q 43 159 45 154 Q 48 146 52 141 Q 58 133 53 128 L 75 129 Q 70 133 64 141 Q 54 158 60 165" fill="#CCCCCC"/><path d="M 58 203 L 58 203 Q 62 189 48 166 L 60 165 Q 74 181 71 193 Q 68 200 63 204 L 58 204" fill="#CCCCCC"/><path d="M 63 204 Q 76 204 98 212 Q 161 234 248 228 Q 252 228 252 229 Q 253 230 251 231 Q 226 245 207 253 Q 202 254 198 255 Q 183 257 149 241 Q 112 224 74 214 Q 52 209 42 218 Q 34 223 29 220 Q 18 213 17 210 Q 17 207 21 207 Q 27 207 37 205 Q 47 203 58 204" fill="#CCCCCC"/><path d="M 155 72 Q 153 72 152 73 Q 139 77 127 71 Q 120 67 129 65 Q 143 64 154 61 Q 155 60 155 61 L 167 56 Q 171 55 174 54 Q 182 50 189 51 Q 197 53 199 56 Q 200 58 198 60 Q 196 61 167 69" fill="#000080" clip-path="url(#clip-mask-1)" /><path d="M 155 79 L 155 72 L 155 61 Q 154 44 153 29 Q 153 25 149 19 Q 147 16 148 14 Q 150 12 154 13 Q 159 14 167 18 Q 172 21 171 24 Q 167 47 167 56 L 167 69 Q 166 77 165 85 L 155 88" fill="#000080" clip-path="url(#clip-mask-2)" /><path d="M 165 85 Q 185 81 199 77 Q 212 72 226 80 Q 230 83 229 86 Q 228 88 224 89 Q 148 95 114 107 Q 99 111 92 105 Q 88 102 93 101 Q 127 94 155 88" fill="#000080" clip-path="url(#clip-mask-3)" /><path d="M 140 149 Q 138 148 135 146 Q 132 144 131 140 Q 126 127 120 120 Q 118 117 119 115 Q 120 113 122 114 Q 130 114 133 115 L 136 122 Q 138 127 140 139" fill="#000080" clip-path="url(#clip-mask-4)" /><path d="M 133 115 Q 150 110 161 107 Q 176 100 181 103 Q 192 108 196 111 L 175 115 Q 173 113 170 114 Q 139 122 136 122" fill="#000080" clip-path="url(#clip-mask-5)" /><path d="M 196 111 Q 199 115 195 119 Q 190 122 184 132 L 172 131 Q 176 117 175 115" fill="#000080" clip-path="url(#clip-mask-6)" /><path d="M 171 130 L 172 131 L 184 132 Q 188 135 188 137 Q 188 139 186 139 Q 161 142 148 145 L 140 149 L 140 139 Q 154 136 171 131" fill="#000080" clip-path="url(#clip-mask-7)" /><path d="M 106 198 L 88 198 Q 82 197 87 195 Q 130 168 140 149 L 148 145 Q 150 146 152 147 Q 158 150 158 153 Q 158 154 148 164 L 141 169" fill="#000080" clip-path="url(#clip-mask-8)" /><path d="M 148 164 Q 151 165 154 168 Q 156 170 155 174 Q 154 177 153 189 Q 153 194 155 196 L 148 219 Q 146 223 143 221 Q 140 218 137 211 Q 136 206 139 201 Q 142 198 143 191 Q 145 177 141 169" fill="#000080" clip-path="url(#clip-mask-9)" /><path d="M 155 196 Q 157 196 176 189 Q 181 187 181 189 Q 180 191 176 194 Q 155 211 148 219" fill="#000080" clip-path="url(#clip-mask-10)" /><path d="M 179 160 L 182 157 Q 192 146 191 140 Q 191 137 194 137 Q 196 137 201 140 Q 207 144 209 147 Q 211 152 207 153 Q 199 156 189 163 Q 186 165 182 167 L 175 164" fill="#000080" clip-path="url(#clip-mask-11)" /><path d="M 182 167 Q 214 175 219 187 Q 224 196 222 199 Q 220 201 218 201 Q 215 201 211 197 Q 186 179 166 168 Q 163 166 163 164 Q 163 161 165 162 Q 169 163 175 164" fill="#000080" clip-path="url(#clip-mask-12)" /><path d="M 46 52 L 45 49 Q 44 45 45 44 Q 47 43 51 43 Q 76 47 80 54 Q 83 62 83 66 Q 82 71 79 71 Q 74 72 70 68 Q 61 62 54 57" fill="#0000ff" clip-path="url(#clip-mask-13)" /><path d="M 53 128 Q 51 126 49 127 Q 28 135 18 131 Q 16 130 17 129 Q 17 127 19 127 Q 23 128 35 122 Q 45 118 52 112 Q 56 109 62 112 Q 71 116 76 120 Q 81 124 75 129" fill="#0000ff" clip-path="url(#clip-mask-14)" /><path d="M 48 166 Q 43 159 45 154 Q 48 146 52 141 Q 58 133 53 128 L 75 129 Q 70 133 64 141 Q 54 158 60 165" fill="#0000ff" clip-path="url(#clip-mask-15)" /><path d="M 58 203 L 58 203 Q 62 189 48 166 L 60 165 Q 74 181 71 193 Q 68 200 63 204 L 58 204" fill="#0000ff" clip-path="url(#clip-mask-16)" /><path d="M 63 204 Q 76 204 98 212 Q 161 234 248 228 Q 252 228 252 229 Q 253 230 251 231 Q 226 245 207 253 Q 202 254 198 255 Q 183 257 149 241 Q 112 224 74 214 Q 52 209 42 218 Q 34 223 29 220 Q 18 213 17 210 Q 17 207 21 207 Q 27 207 37 205 Q 47 203 58 204" fill="#0000ff" clip-path="url(#clip-mask-17)" /></svg>