<svg xmlns="http://www.w3.org/2000/svg" xmlns:xlink="http://www.w3.org/1999/xlink" width="270" height="270"><defs><clipPath id="clip-mask-1"><rect x="116" y="42" width="88" height="26"><animate attributeName="x" from="28" to="116" dur="0.326" begin="0; animate19.end + 1" id="animate1" fill="freeze"/></rect></clipPath><clipPath id="clip-mask-2"><rect x="85" y="13" width="83" height="120"><set attributeName="y" to="-107" begin="0; animate19.end + 1" /><animate attributeName="y" from="-107" to="13" dur="0.444" begin="animate1.end + 0.5" id="animate2" fill="freeze"/></rect></clipPath><clipPath id="clip-mask-3"><rect x="160" y="61" width="93" height="55"><set attributeName="x" to="67" begin="0; animate19.end + 1" /><animate attributeName="x" from="67" to="160" dur="0.344" begin="animate2.end + 0.5" id="animate3" fill="freeze"/></rect></clipPath><clipPath id="clip-mask-4"><rect x="100" y="81" width="26" height="21"><set attributeName="y" to="60" begin="0; animate19.end + 1" /><animate attributeName="y" from="60" to="81" dur="0.078" begin="animate3.end + 0.5" id="animate4" fill="freeze"/></rect></clipPath><clipPath id="clip-mask-5"><rect x="192" y="57" width="28" height="26"><set attributeName="y" to="31" begin="0; animate19.end + 1" /><animate attributeName="y" from="31" to="57" dur="0.096" begin="animate4.end + 0.5" id="animate5" fill="freeze"/></rect></clipPath><clipPath id="clip-mask-6"><rect x="121" y="113" width="22" height="53"><set attributeName="y" to="60" begin="0; animate19.end + 1" /><animate attributeName="y" from="60" to="113" dur="0.196" begin="animate5.end + 0.5" id="animate6" fill="freeze"/></rect></clipPath><clipPath id="clip-mask-7"><rect x="132" y="101" width="73" height="21"><set attributeName="x" to="59" begin="0; animate19.end + 1" /><animate attributeName="x" from="59" to="132" dur="0.270" begin="animate6.end + 0.5" id="animate7" fill="freeze"/></rect></clipPath><clipPath id="clip-mask-8"><rect x="176" y="113" width="32" height="52"><set attributeName="y" to="61" begin="0; animate19.end + 1" /><animate attributeName="y" from="61" to="113" dur="0.193" begin="animate7.end" id="animate8" fill="freeze"/></rect></clipPath><clipPath id="clip-mask-9"><rect x="139" y="128" width="37" height="14"><set attributeName="x" to="102" begin="0; animate19.end + 1" /><animate attributeName="x" from="102" to="139" dur="0.137" begin="animate8.end + 0.5" id="animate9" fill="freeze"/></rect></clipPath><clipPath id="clip-mask-10"><rect x="143" y="148" width="34" height="13"><set attributeName="x" to="109" begin="0; animate19.end + 1" /><animate attributeName="x" from="109" to="143" dur="0.126" begin="animate9.end + 0.5" id="animate10" fill="freeze"/></rect></clipPath><clipPath id="clip-mask-11"><rect x="153" y="159" width="17" height="61"><set attributeName="y" to="98" begin="0; animate19.end + 1" /><animate attributeName="y" from="98" to="159" dur="0.226" begin="animate10.end + 0.5" id="animate11" fill="freeze"/></rect></clipPath><clipPath id="clip-mask-12"><rect x="135" y="195" width="20" height="22"><set attributeName="x" to="155" begin="0; animate19.end + 1" /><animate attributeName="x" from="155" to="135" dur="0.074" begin="animate11.end" id="animate12" fill="freeze"/></rect></clipPath><clipPath id="clip-mask-13"><rect x="100" y="166" width="25" height="36"><set attributeName="y" to="130" begin="0; animate19.end + 1" /><animate attributeName="y" from="130" to="166" dur="0.133" begin="animate12.end + 0.5" id="animate13" fill="freeze"/></rect></clipPath><clipPath id="clip-mask-14"><rect x="183" y="169" width="39" height="37"><set attributeName="x" to="144" begin="0; animate19.end + 1" /><animate attributeName="x" from="144" to="183" dur="0.144" begin="animate13.end + 0.5" id="animate14" fill="freeze"/></rect></clipPath><clipPath id="clip-mask-15"><rect x="47" y="42" width="35" height="34"><set attributeName="x" to="12" begin="0; animate19.end + 1" /><animate attributeName="x" from="12" to="47" dur="0.130" begin="animate14.end + 0.5" id="animate15" fill="freeze"/></rect></clipPath><clipPath id="clip-mask-16"><rect x="16" y="106" width="66" height="30"><set attributeName="x" to="-50" begin="0; animate19.end + 1" /><animate attributeName="x" from="-50" to="16" dur="0.244" begin="animate15.end + 0.5" id="animate16" fill="freeze"/></rect></clipPath><clipPath id="clip-mask-17"><rect x="47" y="126" width="29" height="39"><set attributeName="y" to="87" begin="0; animate19.end + 1" /><animate attributeName="y" from="87" to="126" dur="0.144" begin="animate16.end" id="animate17" fill="freeze"/></rect></clipPath><clipPath id="clip-mask-18"><rect x="51" y="163" width="25" height="37"><set attributeName="y" to="126" begin="0; animate19.end + 1" /><animate attributeName="y" from="126" to="163" dur="0.137" begin="animate17.end + 0.5" id="animate18" fill="freeze"/></rect></clipPath><clipPath id="clip-mask-19"><rect x="18" y="198" width="233" height="58"><set attributeName="x" to="-215" begin="0; animate19.end + 1" /><animate attributeName="x" from="-215" to="18" dur="0.863" begin="animate18.end + 0.5" id="animate19" fill="freeze"/></rect></clipPath></defs><path d="M 0 0 L 270 270 M 270 0 L 0 270 M 135 0 L 135 270 M 0 135 L 270 135" stroke="#CCCCCC" /><path d="M 141 68 Q 129 68 122 65 Q 116 61 124 59 Q 135 58 144 56 L 158 52 Q 169 49 180 45 Q 187 42 194 43 Q 201 45 203 47 Q 204 49 202 51 Q 201 52 167 61 L 160 63 Q 157 63 155 64" fill="#CCCCCC"/><path d="M 121 117 Q 100 133 88 132 Q 85 131 88 129 Q 92 126 96 124 Q 111 115 123 102 L 126 97 Q 136 84 141 68 L 144 56 Q 149 31 145 20 Q 144 17 147 15 Q 153 13 164 23 Q 168 25 166 29 Q 163 34 158 52 L 155 64 Q 152 74 145 88 Q 134 106 126 113" fill="#CCCCCC"/><path d="M 167 61 Q 176 68 188 77 Q 191 79 192 80 L 196 83 Q 199 85 201 86 Q 211 93 246 101 Q 252 103 252 105 Q 253 106 248 107 Q 236 111 223 115 Q 218 116 213 112 Q 191 95 160 63" fill="#CCCCCC"/><path d="M 123 102 Q 122 101 106 90 Q 102 87 101 85 Q 100 83 102 82 Q 104 81 118 86 Q 124 89 126 97" fill="#CCCCCC"/><path d="M 192 80 Q 199 72 202 67 Q 204 64 203 61 Q 204 58 206 57 Q 211 58 214 62 Q 218 65 219 68 Q 220 71 216 72 Q 210 74 196 83" fill="#CCCCCC"/><path d="M 143 161 Q 142 162 142 162 Q 142 166 137 161 Q 134 157 133 151 Q 126 123 121 117 L 126 113 Q 130 114 132 115 L 137 122 Q 137 126 139 136 L 140 142 Q 142 151 143 155" fill="#CCCCCC"/><path d="M 183 114 Q 177 110 139 122 Q 138 122 137 122 L 132 115 Q 157 108 171 106 Q 172 105 173 105 Q 188 101 192 103 Q 201 109 205 113" fill="#CCCCCC"/><path d="M 176 150 Q 181 147 185 120 Q 186 116 183 114 L 205 113 Q 208 116 205 119 Q 199 124 197 132 Q 191 156 189 160 Q 185 165 183 163 Q 180 162 177 158" fill="#CCCCCC"/><path d="M 139 136 Q 159 128 167 129 Q 172 130 174 133 Q 176 136 171 137 Q 140 142 140 142" fill="#CCCCCC"/><path d="M 149 160 L 144 161 Q 143 161 143 161 L 143 155 Q 171 148 176 149 Q 176 149 176 150 L 177 158 Q 170 158 162 159 L 153 160" fill="#CCCCCC"/><path d="M 162 159 Q 164 161 166 163 Q 170 168 168 176 Q 168 180 169 190 Q 170 204 166 211 Q 163 219 161 220 Q 158 220 155 217 L 155 195 Q 156 194 156 193 Q 156 163 153 160" fill="#CCCCCC"/><path d="M 155 217 Q 151 211 138 200 Q 135 198 136 197 Q 136 195 138 195 Q 144 196 149 197 Q 154 198 155 195" fill="#CCCCCC"/><path d="M 121 166 L 123 167 Q 124 167 125 169 Q 125 174 123 181 Q 120 194 108 200 Q 104 202 103 198 Q 100 190 106 185 Q 114 177 120 168" fill="#CCCCCC"/><path d="M 183 175 L 183 172 Q 184 169 186 170 Q 217 181 219 191 Q 222 201 219 204 Q 217 206 215 206 Q 212 204 209 200 Q 196 186 185 177" fill="#CCCCCC"/><path d="M 48 51 L 47 47 Q 47 44 49 42 Q 51 42 55 43 Q 78 51 80 59 Q 82 68 80 72 Q 78 76 75 76 Q 70 75 67 71 Q 61 64 55 57" fill="#CCCCCC"/><path d="M 54 126 Q 52 125 50 126 Q 29 136 19 133 Q 16 132 17 131 Q 17 129 19 129 Q 28 129 46 115 Q 56 106 61 109 Q 71 113 76 117 Q 82 121 76 126" fill="#CCCCCC"/><path d="M 51 165 Q 47 159 48 153 Q 50 145 54 140 Q 59 132 54 126 L 76 126 Q 75 126 75 127 Q 54 152 63 163" fill="#CCCCCC"/><path d="M 59 198 L 61 196 Q 65 185 51 165 L 63 163 Q 76 178 72 189 Q 71 195 64 199 Q 64 199 63 200 L 60 200" fill="#CCCCCC"/><path d="M 63 200 Q 73 198 98 209 Q 157 231 246 228 Q 250 228 251 229 Q 251 230 249 231 Q 220 247 200 253 Q 186 256 150 238 Q 115 221 70 209 Q 53 205 43 214 Q 35 219 30 216 Q 19 210 19 207 Q 18 204 22 204 Q 29 204 38 202 Q 48 199 60 200" fill="#CCCCCC"/><path d="M 141 68 Q 129 68 122 65 Q 116 61 124 59 Q 135 58 144 56 L 158 52 Q 169 49 180 45 Q 187 42 194 43 Q 201 45 203 47 Q 204 49 202 51 Q 201 52 167 61 L 160 63 Q 157 63 155 64" fill="#000080" clip-path="url(#clip-mask-1)" /><path d="M 121 117 Q 100 133 88 132 Q 85 131 88 129 Q 92 126 96 124 Q 111 115 123 102 L 126 97 Q 136 84 141 68 L 144 56 Q 149 31 145 20 Q 144 17 147 15 Q 153 13 164 23 Q 168 25 166 29 Q 163 34 158 52 L 155 64 Q 152 74 145 88 Q 134 106 126 113" fill="#000080" clip-path="url(#clip-mask-2)" /><path d="M 167 61 Q 176 68 188 77 Q 191 79 192 80 L 196 83 Q 199 85 201 86 Q 211 93 246 101 Q 252 103 252 105 Q 253 106 248 107 Q 236 111 223 115 Q 218 116 213 112 Q 191 95 160 63" fill="#000080" clip-path="url(#clip-mask-3)" /><path d="M 123 102 Q 122 101 106 90 Q 102 87 101 85 Q 100 83 102 82 Q 104 81 118 86 Q 124 89 126 97" fill="#000080" clip-path="url(#clip-mask-4)" /><path d="M 192 80 Q 199 72 202 67 Q 204 64 203 61 Q 204 58 206 57 Q 211 58 214 62 Q 218 65 219 68 Q 220 71 216 72 Q 210 74 196 83" fill="#000080" clip-path="url(#clip-mask-5)" /><path d="M 143 161 Q 142 162 142 162 Q 142 166 137 161 Q 134 157 133 151 Q 126 123 121 117 L 126 113 Q 130 114 132 115 L 137 122 Q 137 126 139 136 L 140 142 Q 142 151 143 155" fill="#000080" clip-path="url(#clip-mask-6)" /><path d="M 183 114 Q 177 110 139 122 Q 138 122 137 122 L 132 115 Q 157 108 171 106 Q 172 105 173 105 Q 188 101 192 103 Q 201 109 205 113" fill="#000080" clip-path="url(#clip-mask-7)" /><path d="M 176 150 Q 181 147 185 120 Q 186 116 183 114 L 205 113 Q 208 116 205 119 Q 199 124 197 132 Q 191 156 189 160 Q 185 165 183 163 Q 180 162 177 158" fill="#000080" clip-path="url(#clip-mask-8)" /><path d="M 139 136 Q 159 128 167 129 Q 172 130 174 133 Q 176 136 171 137 Q 140 142 140 142" fill="#000080" clip-path="url(#clip-mask-9)" /><path d="M 149 160 L 144 161 Q 143 161 143 161 L 143 155 Q 171 148 176 149 Q 176 149 176 150 L 177 158 Q 170 158 162 159 L 153 160" fill="#000080" clip-path="url(#clip-mask-10)" /><path d="M 162 159 Q 164 161 166 163 Q 170 168 168 176 Q 168 180 169 190 Q 170 204 166 211 Q 163 219 161 220 Q 158 220 155 217 L 155 195 Q 156 194 156 193 Q 156 163 153 160" fill="#000080" clip-path="url(#clip-mask-11)" /><path d="M 155 217 Q 151 211 138 200 Q 135 198 136 197 Q 136 195 138 195 Q 144 196 149 197 Q 154 198 155 195" fill="#000080" clip-path="url(#clip-mask-12)" /><path d="M 121 166 L 123 167 Q 124 167 125 169 Q 125 174 123 181 Q 120 194 108 200 Q 104 202 103 198 Q 100 190 106 185 Q 114 177 120 168" fill="#000080" clip-path="url(#clip-mask-13)" /><path d="M 183 175 L 183 172 Q 184 169 186 170 Q 217 181 219 191 Q 222 201 219 204 Q 217 206 215 206 Q 212 204 209 200 Q 196 186 185 177" fill="#000080" clip-path="url(#clip-mask-14)" /><path d="M 48 51 L 47 47 Q 47 44 49 42 Q 51 42 55 43 Q 78 51 80 59 Q 82 68 80 72 Q 78 76 75 76 Q 70 75 67 71 Q 61 64 55 57" fill="#0000ff" clip-path="url(#clip-mask-15)" /><path d="M 54 126 Q 52 125 50 126 Q 29 136 19 133 Q 16 132 17 131 Q 17 129 19 129 Q 28 129 46 115 Q 56 106 61 109 Q 71 113 76 117 Q 82 121 76 126" fill="#0000ff" clip-path="url(#clip-mask-16)" /><path d="M 51 165 Q 47 159 48 153 Q 50 145 54 140 Q 59 132 54 126 L 76 126 Q 75 126 75 127 Q 54 152 63 163" fill="#0000ff" clip-path="url(#clip-mask-17)" /><path d="M 59 198 L 61 196 Q 65 185 51 165 L 63 163 Q 76 178 72 189 Q 71 195 64 199 Q 64 199 63 200 L 60 200" fill="#0000ff" clip-path="url(#clip-mask-18)" /><path d="M 63 200 Q 73 198 98 209 Q 157 231 246 228 Q 250 228 251 229 Q 251 230 249 231 Q 220 247 200 253 Q 186 256 150 238 Q 115 221 70 209 Q 53 205 43 214 Q 35 219 30 216 Q 19 210 19 207 Q 18 204 22 204 Q 29 204 38 202 Q 48 199 60 200" fill="#0000ff" clip-path="url(#clip-mask-19)" /></svg>