<svg xmlns="http://www.w3.org/2000/svg" xmlns:xlink="http://www.w3.org/1999/xlink" width="270" height="270"><defs><clipPath id="clip-mask-1"><rect x="51" y="54" width="90" height="29"><animate attributeName="x" from="-39" to="51" dur="0.333" begin="0; animate9.end + 1" id="animate1" fill="freeze"/></rect></clipPath><clipPath id="clip-mask-2"><rect x="54" y="88" width="83" height="29"><set attributeName="x" to="-29" begin="0; animate9.end + 1" /><animate attributeName="x" from="-29" to="54" dur="0.307" begin="animate1.end + 0.5" id="animate2" fill="freeze"/></rect></clipPath><clipPath id="clip-mask-3"><rect x="24" y="123" width="122" height="40"><set attributeName="x" to="-98" begin="0; animate9.end + 1" /><animate attributeName="x" from="-98" to="24" dur="0.452" begin="animate2.end + 0.5" id="animate3" fill="freeze"/></rect></clipPath><clipPath id="clip-mask-4"><rect x="35" y="14" width="80" height="210"><set attributeName="y" to="-196" begin="0; animate9.end + 1" /><animate attributeName="y" from="-196" to="14" dur="0.778" begin="animate3.end + 0.5" id="animate4" fill="freeze"/></rect></clipPath><clipPath id="clip-mask-5"><rect x="170" y="38" width="67" height="31"><set attributeName="x" to="103" begin="0; animate9.end + 1" /><animate attributeName="x" from="103" to="170" dur="0.248" begin="animate4.end + 0.5" id="animate5" fill="freeze"/></rect></clipPath><clipPath id="clip-mask-6"><rect x="191" y="53" width="54" height="48"><set attributeName="y" to="5" begin="0; animate9.end + 1" /><animate attributeName="y" from="5" to="53" dur="0.178" begin="animate5.end" id="animate6" fill="freeze"/></rect></clipPath><clipPath id="clip-mask-7"><rect x="191" y="101" width="52" height="83"><set attributeName="y" to="18" begin="0; animate9.end + 1" /><animate attributeName="y" from="18" to="101" dur="0.307" begin="animate6.end" id="animate7" fill="freeze"/></rect></clipPath><clipPath id="clip-mask-8"><rect x="185" y="150" width="40" height="34"><set attributeName="x" to="225" begin="0; animate9.end + 1" /><animate attributeName="x" from="225" to="185" dur="0.148" begin="animate7.end" id="animate8" fill="freeze"/></rect></clipPath><clipPath id="clip-mask-9"><rect x="147" y="51" width="26" height="204"><set attributeName="y" to="-153" begin="0; animate9.end + 1" /><animate attributeName="y" from="-153" to="51" dur="0.756" begin="animate8.end + 0.5" id="animate9" fill="freeze"/></rect></clipPath></defs><path d="M 0 0 L 270 270 M 270 0 L 0 270 M 135 0 L 135 270 M 0 135 L 270 135" stroke="#CCCCCC" /><path d="M 93 76 Q 90 77 87 78 Q 67 83 58 77 Q 51 73 60 71 Q 71 70 93 65 L 107 60 Q 122 54 131 55 Q 138 57 140 60 Q 141 62 139 64 Q 138 65 107 73" fill="#CCCCCC"/><path d="M 92 111 Q 88 111 86 112 Q 72 117 61 111 Q 54 107 63 105 Q 70 104 92 98 L 105 94 Q 120 88 126 89 Q 134 91 136 93 Q 137 96 135 98 Q 134 99 125 102 Q 114 104 105 107" fill="#CCCCCC"/><path d="M 72 152 L 52 159 Q 40 163 29 156 Q 24 152 25 150 Q 26 147 29 147 Q 50 144 89 135 L 103 131 Q 113 128 127 124 Q 134 123 141 126 Q 146 128 146 132 Q 146 134 141 135 Q 119 139 101 143 L 87 147" fill="#CCCCCC"/><path d="M 89 135 Q 90 129 92 111 L 92 98 Q 93 87 93 76 L 93 65 Q 93 54 93 44 Q 92 31 86 21 Q 84 18 86 16 Q 89 14 96 16 Q 107 19 112 24 Q 115 27 114 31 Q 110 41 107 60 L 107 73 Q 106 84 105 94 L 105 107 Q 104 111 104 114 Q 104 123 103 131 L 101 143 Q 91 203 52 219 Q 42 224 38 223 Q 35 223 35 222 Q 35 220 38 218 Q 52 208 61 199 Q 79 180 87 147" fill="#CCCCCC"/><path d="M 170 59 Q 171 58 172 58 Q 202 47 209 41 Q 214 38 219 40 Q 226 44 237 53 L 208 58 Q 205 56 204 57 Q 193 61 180 66 Q 176 68 173 69" fill="#CCCCCC"/><path d="M 237 53 Q 245 59 236 64 Q 228 67 222 75 Q 217 81 209 90 Q 205 97 208 101 L 191 101 Q 191 100 208 65 Q 211 60 208 58" fill="#CCCCCC"/><path d="M 208 101 Q 243 131 242 153 Q 242 168 232 181 Q 228 184 225 184 L 224 150 Q 228 129 198 108 Q 191 105 191 101" fill="#CCCCCC"/><path d="M 225 184 Q 221 184 218 180 Q 213 171 191 160 Q 186 156 185 155 Q 185 152 187 153 Q 198 154 210 156 Q 217 157 222 155 Q 223 152 224 150" fill="#CCCCCC"/><path d="M 154 229 L 154 189 Q 156 145 156 78 Q 155 73 149 58 Q 147 55 149 53 Q 154 51 157 52 Q 162 53 170 59 L 173 69 Q 170 80 170 92 Q 169 169 170 189 Q 170 212 168 235 Q 166 252 162 254 Q 160 255 158 253 Q 156 251 155 243" fill="#CCCCCC"/><path d="M 93 76 Q 90 77 87 78 Q 67 83 58 77 Q 51 73 60 71 Q 71 70 93 65 L 107 60 Q 122 54 131 55 Q 138 57 140 60 Q 141 62 139 64 Q 138 65 107 73" fill="#000080" clip-path="url(#clip-mask-1)" /><path d="M 92 111 Q 88 111 86 112 Q 72 117 61 111 Q 54 107 63 105 Q 70 104 92 98 L 105 94 Q 120 88 126 89 Q 134 91 136 93 Q 137 96 135 98 Q 134 99 125 102 Q 114 104 105 107" fill="#000080" clip-path="url(#clip-mask-2)" /><path d="M 72 152 L 52 159 Q 40 163 29 156 Q 24 152 25 150 Q 26 147 29 147 Q 50 144 89 135 L 103 131 Q 113 128 127 124 Q 134 123 141 126 Q 146 128 146 132 Q 146 134 141 135 Q 119 139 101 143 L 87 147" fill="#000080" clip-path="url(#clip-mask-3)" /><path d="M 89 135 Q 90 129 92 111 L 92 98 Q 93 87 93 76 L 93 65 Q 93 54 93 44 Q 92 31 86 21 Q 84 18 86 16 Q 89 14 96 16 Q 107 19 112 24 Q 115 27 114 31 Q 110 41 107 60 L 107 73 Q 106 84 105 94 L 105 107 Q 104 111 104 114 Q 104 123 103 131 L 101 143 Q 91 203 52 219 Q 42 224 38 223 Q 35 223 35 222 Q 35 220 38 218 Q 52 208 61 199 Q 79 180 87 147" fill="#000080" clip-path="url(#clip-mask-4)" /><path d="M 170 59 Q 171 58 172 58 Q 202 47 209 41 Q 214 38 219 40 Q 226 44 237 53 L 208 58 Q 205 56 204 57 Q 193 61 180 66 Q 176 68 173 69" fill="#0000ff" clip-path="url(#clip-mask-5)" /><path d="M 237 53 Q 245 59 236 64 Q 228 67 222 75 Q 217 81 209 90 Q 205 97 208 101 L 191 101 Q 191 100 208 65 Q 211 60 208 58" fill="#0000ff" clip-path="url(#clip-mask-6)" /><path d="M 208 101 Q 243 131 242 153 Q 242 168 232 181 Q 228 184 225 184 L 224 150 Q 228 129 198 108 Q 191 105 191 101" fill="#0000ff" clip-path="url(#clip-mask-7)" /><path d="M 225 184 Q 221 184 218 180 Q 213 171 191 160 Q 186 156 185 155 Q 185 152 187 153 Q 198 154 210 156 Q 217 157 222 155 Q 223 152 224 150" fill="#0000ff" clip-path="url(#clip-mask-8)" /><path d="M 154 229 L 154 189 Q 156 145 156 78 Q 155 73 149 58 Q 147 55 149 53 Q 154 51 157 52 Q 162 53 170 59 L 173 69 Q 170 80 170 92 Q 169 169 170 189 Q 170 212 168 235 Q 166 252 162 254 Q 160 255 158 253 Q 156 251 155 243" fill="#0000ff" clip-path="url(#clip-mask-9)" /></svg>