<svg xmlns="http://www.w3.org/2000/svg" xmlns:xlink="http://www.w3.org/1999/xlink" width="270" height="270"><defs><clipPath id="clip-mask-1"><rect x="65" y="23" width="81" height="27"><animate attributeName="x" from="-16" to="65" dur="0.300" begin="0; animate11.end + 1" id="animate1" fill="freeze"/></rect></clipPath><clipPath id="clip-mask-2"><rect x="47" y="60" width="28" height="58"><set attributeName="y" to="2" begin="0; animate11.end + 1" /><animate attributeName="y" from="2" to="60" dur="0.215" begin="animate1.end + 0.5" id="animate2" fill="freeze"/></rect></clipPath><clipPath id="clip-mask-3"><rect x="59" y="80" width="95" height="35"><set attributeName="x" to="-36" begin="0; animate11.end + 1" /><animate attributeName="x" from="-36" to="59" dur="0.352" begin="animate2.end" id="animate3" fill="freeze"/></rect></clipPath><clipPath id="clip-mask-4"><rect x="102" y="43" width="21" height="176"><set attributeName="y" to="-133" begin="0; animate11.end + 1" /><animate attributeName="y" from="-133" to="43" dur="0.652" begin="animate3.end + 0.5" id="animate4" fill="freeze"/></rect></clipPath><clipPath id="clip-mask-5"><rect x="78" y="181" width="27" height="36"><set attributeName="x" to="105" begin="0; animate11.end + 1" /><animate attributeName="x" from="105" to="78" dur="0.100" begin="animate4.end" id="animate5" fill="freeze"/></rect></clipPath><clipPath id="clip-mask-6"><rect x="23" y="90" width="83" height="99"><set attributeName="x" to="106" begin="0; animate11.end + 1" /><animate attributeName="x" from="106" to="23" dur="0.307" begin="animate5.end + 0.5" id="animate6" fill="freeze"/></rect></clipPath><clipPath id="clip-mask-7"><rect x="173" y="30" width="66" height="28"><set attributeName="x" to="107" begin="0; animate11.end + 1" /><animate attributeName="x" from="107" to="173" dur="0.244" begin="animate6.end + 0.5" id="animate7" fill="freeze"/></rect></clipPath><clipPath id="clip-mask-8"><rect x="196" y="44" width="50" height="48"><set attributeName="y" to="-4" begin="0; animate11.end + 1" /><animate attributeName="y" from="-4" to="44" dur="0.178" begin="animate7.end" id="animate8" fill="freeze"/></rect></clipPath><clipPath id="clip-mask-9"><rect x="195" y="92" width="51" height="85"><set attributeName="y" to="7" begin="0; animate11.end + 1" /><animate attributeName="y" from="7" to="92" dur="0.315" begin="animate8.end" id="animate9" fill="freeze"/></rect></clipPath><clipPath id="clip-mask-10"><rect x="192" y="144" width="36" height="33"><set attributeName="x" to="228" begin="0; animate11.end + 1" /><animate attributeName="x" from="228" to="192" dur="0.133" begin="animate9.end" id="animate10" fill="freeze"/></rect></clipPath><clipPath id="clip-mask-11"><rect x="152" y="43" width="26" height="203"><set attributeName="y" to="-160" begin="0; animate11.end + 1" /><animate attributeName="y" from="-160" to="43" dur="0.752" begin="animate10.end + 0.5" id="animate11" fill="freeze"/></rect></clipPath></defs><path d="M 0 0 L 270 270 M 270 0 L 0 270 M 135 0 L 135 270 M 0 135 L 270 135" stroke="#CCCCCC" /><path d="M 102 45 Q 101 45 101 45 Q 85 50 72 45 Q 65 41 74 39 Q 88 37 100 34 Q 111 30 120 27 Q 128 23 136 25 Q 143 26 145 29 Q 146 31 144 33 Q 143 35 134 37 Q 122 40 111 43" fill="#CCCCCC"/><path d="M 59 115 Q 56 118 53 117 Q 48 113 47 111 Q 47 108 54 98 Q 61 80 56 67 Q 53 64 56 61 Q 59 60 63 62 Q 72 66 74 69 Q 75 71 73 74 Q 70 80 66 96" fill="#CCCCCC"/><path d="M 71 108 L 59 115 L 66 96 Q 65 102 72 99 Q 88 94 106 90 L 120 85 Q 133 80 148 89 Q 154 92 152 94 Q 150 97 145 98 Q 130 98 119 99 L 99 103" fill="#CCCCCC"/><path d="M 106 90 Q 106 76 106 64 Q 106 58 102 45 L 111 43 Q 119 47 121 50 Q 123 53 121 59 Q 120 72 120 85 L 119 99 Q 119 108 120 182 Q 121 202 111 215 Q 107 219 104 217 L 105 181 Q 105 144 106 118" fill="#CCCCCC"/><path d="M 104 217 Q 95 206 80 192 Q 78 189 78 187 Q 78 186 81 187 Q 88 189 93 191 Q 100 193 102 191 Q 105 189 105 181" fill="#CCCCCC"/><path d="M 106 90 L 106 118 Q 105 118 105 119 Q 66 174 30 188 Q 27 189 25 188 Q 23 188 26 185 Q 31 180 36 176 Q 83 136 99 103" fill="#CCCCCC"/><path d="M 173 50 Q 176 49 178 48 Q 204 39 212 33 Q 216 30 221 32 Q 228 35 239 44 L 211 49 Q 208 47 207 48 Q 197 51 186 56 Q 182 57 178 58" fill="#CCCCCC"/><path d="M 239 44 Q 246 50 237 55 Q 230 58 224 66 Q 222 68 221 70 Q 209 87 212 92 L 196 92 Q 196 91 211 56 Q 213 51 211 49" fill="#CCCCCC"/><path d="M 212 92 Q 246 121 246 146 Q 245 161 235 174 Q 231 177 228 177 L 227 144 Q 232 121 202 98 Q 195 95 196 92" fill="#CCCCCC"/><path d="M 228 177 Q 225 177 222 173 Q 218 166 198 156 Q 193 153 192 151 Q 192 149 194 150 Q 204 150 214 151 Q 221 151 225 149 Q 226 147 227 144" fill="#CCCCCC"/><path d="M 162 221 L 162 180 Q 163 115 162 73 Q 161 63 154 51 Q 152 48 155 46 Q 159 43 162 45 Q 166 45 173 50 L 178 58 Q 176 71 176 78 Q 175 158 177 180 Q 178 203 176 227 Q 174 243 170 245 Q 168 246 167 244 Q 165 241 163 234" fill="#CCCCCC"/><path d="M 102 45 Q 101 45 101 45 Q 85 50 72 45 Q 65 41 74 39 Q 88 37 100 34 Q 111 30 120 27 Q 128 23 136 25 Q 143 26 145 29 Q 146 31 144 33 Q 143 35 134 37 Q 122 40 111 43" fill="#000080" clip-path="url(#clip-mask-1)" /><path d="M 59 115 Q 56 118 53 117 Q 48 113 47 111 Q 47 108 54 98 Q 61 80 56 67 Q 53 64 56 61 Q 59 60 63 62 Q 72 66 74 69 Q 75 71 73 74 Q 70 80 66 96" fill="#000080" clip-path="url(#clip-mask-2)" /><path d="M 71 108 L 59 115 L 66 96 Q 65 102 72 99 Q 88 94 106 90 L 120 85 Q 133 80 148 89 Q 154 92 152 94 Q 150 97 145 98 Q 130 98 119 99 L 99 103" fill="#000080" clip-path="url(#clip-mask-3)" /><path d="M 106 90 Q 106 76 106 64 Q 106 58 102 45 L 111 43 Q 119 47 121 50 Q 123 53 121 59 Q 120 72 120 85 L 119 99 Q 119 108 120 182 Q 121 202 111 215 Q 107 219 104 217 L 105 181 Q 105 144 106 118" fill="#000080" clip-path="url(#clip-mask-4)" /><path d="M 104 217 Q 95 206 80 192 Q 78 189 78 187 Q 78 186 81 187 Q 88 189 93 191 Q 100 193 102 191 Q 105 189 105 181" fill="#000080" clip-path="url(#clip-mask-5)" /><path d="M 106 90 L 106 118 Q 105 118 105 119 Q 66 174 30 188 Q 27 189 25 188 Q 23 188 26 185 Q 31 180 36 176 Q 83 136 99 103" fill="#000080" clip-path="url(#clip-mask-6)" /><path d="M 173 50 Q 176 49 178 48 Q 204 39 212 33 Q 216 30 221 32 Q 228 35 239 44 L 211 49 Q 208 47 207 48 Q 197 51 186 56 Q 182 57 178 58" fill="#0000ff" clip-path="url(#clip-mask-7)" /><path d="M 239 44 Q 246 50 237 55 Q 230 58 224 66 Q 222 68 221 70 Q 209 87 212 92 L 196 92 Q 196 91 211 56 Q 213 51 211 49" fill="#0000ff" clip-path="url(#clip-mask-8)" /><path d="M 212 92 Q 246 121 246 146 Q 245 161 235 174 Q 231 177 228 177 L 227 144 Q 232 121 202 98 Q 195 95 196 92" fill="#0000ff" clip-path="url(#clip-mask-9)" /><path d="M 228 177 Q 225 177 222 173 Q 218 166 198 156 Q 193 153 192 151 Q 192 149 194 150 Q 204 150 214 151 Q 221 151 225 149 Q 226 147 227 144" fill="#0000ff" clip-path="url(#clip-mask-10)" /><path d="M 162 221 L 162 180 Q 163 115 162 73 Q 161 63 154 51 Q 152 48 155 46 Q 159 43 162 45 Q 166 45 173 50 L 178 58 Q 176 71 176 78 Q 175 158 177 180 Q 178 203 176 227 Q 174 243 170 245 Q 168 246 167 244 Q 165 241 163 234" fill="#0000ff" clip-path="url(#clip-mask-11)" /></svg>