<svg xmlns="http://www.w3.org/2000/svg" xmlns:xlink="http://www.w3.org/1999/xlink" width="270" height="270"><defs><clipPath id="clip-mask-1"><rect x="78" y="10" width="41" height="28"><animate attributeName="x" from="37" to="78" dur="0.152" begin="0; animate13.end + 1" id="animate1" fill="freeze"/></rect></clipPath><clipPath id="clip-mask-2"><rect x="60" y="52" width="72" height="23"><set attributeName="x" to="-12" begin="0; animate13.end + 1" /><animate attributeName="x" from="-12" to="60" dur="0.267" begin="animate1.end + 0.5" id="animate2" fill="freeze"/></rect></clipPath><clipPath id="clip-mask-3"><rect x="98" y="64" width="38" height="70"><set attributeName="y" to="-6" begin="0; animate13.end + 1" /><animate attributeName="y" from="-6" to="64" dur="0.259" begin="animate2.end" id="animate3" fill="freeze"/></rect></clipPath><clipPath id="clip-mask-4"><rect x="64" y="87" width="36" height="16"><set attributeName="x" to="28" begin="0; animate13.end + 1" /><animate attributeName="x" from="28" to="64" dur="0.133" begin="animate3.end + 0.5" id="animate4" fill="freeze"/></rect></clipPath><clipPath id="clip-mask-5"><rect x="64" y="111" width="37" height="19"><set attributeName="x" to="27" begin="0; animate13.end + 1" /><animate attributeName="x" from="27" to="64" dur="0.137" begin="animate4.end + 0.5" id="animate5" fill="freeze"/></rect></clipPath><clipPath id="clip-mask-6"><rect x="36" y="61" width="29" height="154"><set attributeName="y" to="-93" begin="0; animate13.end + 1" /><animate attributeName="y" from="-93" to="61" dur="0.570" begin="animate5.end + 0.5" id="animate6" fill="freeze"/></rect></clipPath><clipPath id="clip-mask-7"><rect x="50" y="158" width="56" height="53"><set attributeName="x" to="-6" begin="0; animate13.end + 1" /><animate attributeName="x" from="-6" to="50" dur="0.207" begin="animate6.end" id="animate7" fill="freeze"/></rect></clipPath><clipPath id="clip-mask-8"><rect x="96" y="142" width="30" height="36"><set attributeName="x" to="66" begin="0; animate13.end + 1" /><animate attributeName="x" from="66" to="96" dur="0.111" begin="animate7.end + 0.5" id="animate8" fill="freeze"/></rect></clipPath><clipPath id="clip-mask-9"><rect x="161" y="46" width="66" height="25"><set attributeName="x" to="95" begin="0; animate13.end + 1" /><animate attributeName="x" from="95" to="161" dur="0.244" begin="animate8.end + 0.5" id="animate9" fill="freeze"/></rect></clipPath><clipPath id="clip-mask-10"><rect x="180" y="60" width="53" height="49"><set attributeName="y" to="11" begin="0; animate13.end + 1" /><animate attributeName="y" from="11" to="60" dur="0.181" begin="animate9.end" id="animate10" fill="freeze"/></rect></clipPath><clipPath id="clip-mask-11"><rect x="180" y="109" width="53" height="85"><set attributeName="y" to="24" begin="0; animate13.end + 1" /><animate attributeName="y" from="24" to="109" dur="0.315" begin="animate10.end" id="animate11" fill="freeze"/></rect></clipPath><clipPath id="clip-mask-12"><rect x="182" y="161" width="35" height="33"><set attributeName="x" to="217" begin="0; animate13.end + 1" /><animate attributeName="x" from="217" to="182" dur="0.130" begin="animate11.end" id="animate12" fill="freeze"/></rect></clipPath><clipPath id="clip-mask-13"><rect x="142" y="58" width="26" height="201"><set attributeName="y" to="-143" begin="0; animate13.end + 1" /><animate attributeName="y" from="-143" to="58" dur="0.744" begin="animate12.end + 0.5" id="animate13" fill="freeze"/></rect></clipPath></defs><path d="M 0 0 L 270 270 M 270 0 L 0 270 M 135 0 L 135 270 M 0 135 L 270 135" stroke="#CCCCCC" /><path d="M 80 18 L 79 15 Q 78 12 79 11 Q 80 10 85 10 Q 111 12 116 20 Q 119 28 119 33 Q 118 36 116 37 Q 111 38 107 35 Q 97 28 88 23" fill="#CCCCCC"/><path d="M 108 66 Q 106 64 101 65 Q 79 70 65 75 L 60 67 Q 78 62 96 57 Q 113 52 118 54 Q 128 60 132 64" fill="#CCCCCC"/><path d="M 101 116 Q 105 112 111 74 Q 112 70 108 66 L 132 64 Q 136 68 132 71 Q 126 78 124 86 Q 117 122 113 129 Q 109 134 107 133 Q 102 130 98 124" fill="#CCCCCC"/><path d="M 64 95 Q 76 87 87 87 Q 94 88 97 91 Q 100 95 94 96 Q 82 99 65 103 Q 64 103 64 103" fill="#CCCCCC"/><path d="M 64 123 Q 93 111 101 116 L 98 124 Q 83 126 64 130" fill="#CCCCCC"/><path d="M 50 211 Q 47 215 43 213 Q 40 210 37 203 Q 36 197 38 193 Q 46 183 49 173 Q 59 97 44 68 Q 42 64 45 62 Q 47 61 52 63 Q 55 64 60 67 L 65 75 Q 65 76 65 77 Q 63 85 64 95 L 64 103 Q 64 112 64 123 L 64 130 Q 63 153 61 178" fill="#CCCCCC"/><path d="M 55 201 L 50 211 L 61 178 Q 61 181 65 179 Q 84 168 102 158 L 106 164" fill="#CCCCCC"/><path d="M 102 158 Q 96 148 96 146 Q 96 143 98 143 Q 100 142 104 144 L 104 144 Q 126 157 126 169 Q 126 173 124 176 Q 121 178 118 177 Q 111 173 106 164" fill="#CCCCCC"/><path d="M 161 64 Q 162 63 164 63 Q 193 54 201 48 Q 206 46 210 47 Q 217 51 227 60 L 200 63 Q 197 61 196 62 Q 169 69 168 71" fill="#CCCCCC"/><path d="M 227 60 Q 233 66 225 70 Q 217 73 210 82 Q 209 83 209 83 Q 190 105 195 109 L 180 109 Q 180 107 200 70 Q 202 65 200 63" fill="#CCCCCC"/><path d="M 195 109 Q 233 137 233 162 Q 233 178 224 191 Q 219 194 215 194 L 217 163 Q 221 138 186 115 Q 180 112 180 109" fill="#CCCCCC"/><path d="M 215 194 Q 212 193 209 189 Q 204 181 186 168 Q 182 165 182 163 Q 182 161 184 162 Q 193 164 204 167 Q 210 169 214 167 Q 216 165 217 163" fill="#CCCCCC"/><path d="M 147 235 L 148 194 Q 151 138 151 99 Q 151 78 144 66 Q 142 62 144 61 Q 148 58 152 59 Q 155 60 161 64 L 168 71 Q 168 72 168 73 Q 165 86 164 99 Q 163 174 164 194 Q 164 217 161 241 Q 160 256 156 259 Q 154 259 152 258 Q 150 255 149 248" fill="#CCCCCC"/><path d="M 80 18 L 79 15 Q 78 12 79 11 Q 80 10 85 10 Q 111 12 116 20 Q 119 28 119 33 Q 118 36 116 37 Q 111 38 107 35 Q 97 28 88 23" fill="#000080" clip-path="url(#clip-mask-1)" /><path d="M 108 66 Q 106 64 101 65 Q 79 70 65 75 L 60 67 Q 78 62 96 57 Q 113 52 118 54 Q 128 60 132 64" fill="#000080" clip-path="url(#clip-mask-2)" /><path d="M 101 116 Q 105 112 111 74 Q 112 70 108 66 L 132 64 Q 136 68 132 71 Q 126 78 124 86 Q 117 122 113 129 Q 109 134 107 133 Q 102 130 98 124" fill="#000080" clip-path="url(#clip-mask-3)" /><path d="M 64 95 Q 76 87 87 87 Q 94 88 97 91 Q 100 95 94 96 Q 82 99 65 103 Q 64 103 64 103" fill="#000080" clip-path="url(#clip-mask-4)" /><path d="M 64 123 Q 93 111 101 116 L 98 124 Q 83 126 64 130" fill="#000080" clip-path="url(#clip-mask-5)" /><path d="M 50 211 Q 47 215 43 213 Q 40 210 37 203 Q 36 197 38 193 Q 46 183 49 173 Q 59 97 44 68 Q 42 64 45 62 Q 47 61 52 63 Q 55 64 60 67 L 65 75 Q 65 76 65 77 Q 63 85 64 95 L 64 103 Q 64 112 64 123 L 64 130 Q 63 153 61 178" fill="#000080" clip-path="url(#clip-mask-6)" /><path d="M 55 201 L 50 211 L 61 178 Q 61 181 65 179 Q 84 168 102 158 L 106 164" fill="#000080" clip-path="url(#clip-mask-7)" /><path d="M 102 158 Q 96 148 96 146 Q 96 143 98 143 Q 100 142 104 144 L 104 144 Q 126 157 126 169 Q 126 173 124 176 Q 121 178 118 177 Q 111 173 106 164" fill="#000080" clip-path="url(#clip-mask-8)" /><path d="M 161 64 Q 162 63 164 63 Q 193 54 201 48 Q 206 46 210 47 Q 217 51 227 60 L 200 63 Q 197 61 196 62 Q 169 69 168 71" fill="#0000ff" clip-path="url(#clip-mask-9)" /><path d="M 227 60 Q 233 66 225 70 Q 217 73 210 82 Q 209 83 209 83 Q 190 105 195 109 L 180 109 Q 180 107 200 70 Q 202 65 200 63" fill="#0000ff" clip-path="url(#clip-mask-10)" /><path d="M 195 109 Q 233 137 233 162 Q 233 178 224 191 Q 219 194 215 194 L 217 163 Q 221 138 186 115 Q 180 112 180 109" fill="#0000ff" clip-path="url(#clip-mask-11)" /><path d="M 215 194 Q 212 193 209 189 Q 204 181 186 168 Q 182 165 182 163 Q 182 161 184 162 Q 193 164 204 167 Q 210 169 214 167 Q 216 165 217 163" fill="#0000ff" clip-path="url(#clip-mask-12)" /><path d="M 147 235 L 148 194 Q 151 138 151 99 Q 151 78 144 66 Q 142 62 144 61 Q 148 58 152 59 Q 155 60 161 64 L 168 71 Q 168 72 168 73 Q 165 86 164 99 Q 163 174 164 194 Q 164 217 161 241 Q 160 256 156 259 Q 154 259 152 258 Q 150 255 149 248" fill="#0000ff" clip-path="url(#clip-mask-13)" /></svg>