<svg xmlns="http://www.w3.org/2000/svg" xmlns:xlink="http://www.w3.org/1999/xlink" width="270" height="270"><defs><clipPath id="clip-mask-1"><rect x="27" y="49" width="97" height="23"><animate attributeName="x" from="-70" to="27" dur="0.359" begin="0; animate18.end + 1" id="animate1" fill="freeze"/></rect></clipPath><clipPath id="clip-mask-2"><rect x="21" y="109" width="19" height="115"><set attributeName="y" to="-6" begin="0; animate18.end + 1" /><animate attributeName="y" from="-6" to="109" dur="0.426" begin="animate1.end + 0.5" id="animate2" fill="freeze"/></rect></clipPath><clipPath id="clip-mask-3"><rect x="34" y="97" width="88" height="24"><set attributeName="x" to="-54" begin="0; animate18.end + 1" /><animate attributeName="x" from="-54" to="34" dur="0.326" begin="animate2.end + 0.5" id="animate3" fill="freeze"/></rect></clipPath><clipPath id="clip-mask-4"><rect x="102" y="110" width="23" height="120"><set attributeName="y" to="-10" begin="0; animate18.end + 1" /><animate attributeName="y" from="-10" to="110" dur="0.444" begin="animate3.end" id="animate4" fill="freeze"/></rect></clipPath><clipPath id="clip-mask-5"><rect x="90" y="200" width="12" height="26"><set attributeName="x" to="102" begin="0; animate18.end + 1" /><animate attributeName="x" from="102" to="90" dur="0.044" begin="animate4.end" id="animate5" fill="freeze"/></rect></clipPath><clipPath id="clip-mask-6"><rect x="46" y="71" width="19" height="86"><set attributeName="y" to="-15" begin="0; animate18.end + 1" /><animate attributeName="y" from="-15" to="71" dur="0.319" begin="animate5.end + 0.5" id="animate6" fill="freeze"/></rect></clipPath><clipPath id="clip-mask-7"><rect x="75" y="66" width="20" height="83"><set attributeName="y" to="-17" begin="0; animate18.end + 1" /><animate attributeName="y" from="-17" to="66" dur="0.307" begin="animate6.end + 0.5" id="animate7" fill="freeze"/></rect></clipPath><clipPath id="clip-mask-8"><rect x="85" y="140" width="18" height="10"><set attributeName="x" to="67" begin="0; animate18.end + 1" /><animate attributeName="x" from="67" to="85" dur="0.067" begin="animate7.end" id="animate8" fill="freeze"/></rect></clipPath><clipPath id="clip-mask-9"><rect x="46" y="163" width="46" height="15"><set attributeName="x" to="0" begin="0; animate18.end + 1" /><animate attributeName="x" from="0" to="46" dur="0.170" begin="animate8.end + 0.5" id="animate9" fill="freeze"/></rect></clipPath><clipPath id="clip-mask-10"><rect x="38" y="194" width="59" height="16"><set attributeName="x" to="-21" begin="0; animate18.end + 1" /><animate attributeName="x" from="-21" to="38" dur="0.219" begin="animate9.end + 0.5" id="animate10" fill="freeze"/></rect></clipPath><clipPath id="clip-mask-11"><rect x="128" y="69" width="34" height="55"><set attributeName="y" to="14" begin="0; animate18.end + 1" /><animate attributeName="y" from="14" to="69" dur="0.204" begin="animate10.end + 0.5" id="animate11" fill="freeze"/></rect></clipPath><clipPath id="clip-mask-12"><rect x="150" y="81" width="74" height="26"><set attributeName="x" to="76" begin="0; animate18.end + 1" /><animate attributeName="x" from="76" to="150" dur="0.274" begin="animate11.end + 0.5" id="animate12" fill="freeze"/></rect></clipPath><clipPath id="clip-mask-13"><rect x="167" y="31" width="29" height="105"><set attributeName="y" to="-74" begin="0; animate18.end + 1" /><animate attributeName="y" from="-74" to="31" dur="0.389" begin="animate12.end + 0.5" id="animate13" fill="freeze"/></rect></clipPath><clipPath id="clip-mask-14"><rect x="120" y="123" width="128" height="31"><set attributeName="x" to="-8" begin="0; animate18.end + 1" /><animate attributeName="x" from="-8" to="120" dur="0.474" begin="animate13.end + 0.5" id="animate14" fill="freeze"/></rect></clipPath><clipPath id="clip-mask-15"><rect x="133" y="172" width="25" height="66"><set attributeName="y" to="106" begin="0; animate18.end + 1" /><animate attributeName="y" from="106" to="172" dur="0.244" begin="animate14.end + 0.5" id="animate15" fill="freeze"/></rect></clipPath><clipPath id="clip-mask-16"><rect x="150" y="159" width="81" height="26"><set attributeName="x" to="69" begin="0; animate18.end + 1" /><animate attributeName="x" from="69" to="150" dur="0.300" begin="animate15.end + 0.5" id="animate16" fill="freeze"/></rect></clipPath><clipPath id="clip-mask-17"><rect x="198" y="178" width="28" height="31"><set attributeName="y" to="147" begin="0; animate18.end + 1" /><animate attributeName="y" from="147" to="178" dur="0.115" begin="animate16.end" id="animate17" fill="freeze"/></rect></clipPath><clipPath id="clip-mask-18"><rect x="156" y="208" width="63" height="16"><set attributeName="x" to="93" begin="0; animate18.end + 1" /><animate attributeName="x" from="93" to="156" dur="0.233" begin="animate17.end + 0.5" id="animate18" fill="freeze"/></rect></clipPath></defs><path d="M 0 0 L 270 270 M 270 0 L 0 270 M 135 0 L 135 270 M 0 135 L 270 135" stroke="#CCCCCC" /><path d="M 47 72 Q 37 70 33 68 Q 27 64 36 63 Q 56 61 80 57 Q 109 49 115 50 Q 122 52 123 55 Q 124 57 122 59 Q 120 61 90 66 L 77 68 Q 68 70 59 71" fill="#CCCCCC"/><path d="M 38 217 L 35 221 Q 32 224 30 220 Q 21 210 27 187 Q 32 137 24 115 Q 22 111 24 110 Q 27 109 29 110 Q 32 111 34 113 L 40 121 Q 39 161 39 201 L 38 210" fill="#CCCCCC"/><path d="M 34 113 Q 41 112 55 110 L 65 109 Q 72 107 79 105 L 88 102 Q 102 97 105 99 Q 118 105 122 110 L 102 112 Q 97 108 87 111 L 79 113 Q 71 114 64 116 L 55 118 Q 52 118 50 119 Q 44 120 40 121" fill="#CCCCCC"/><path d="M 102 200 Q 104 195 104 178 Q 108 118 102 112 L 122 110 Q 125 112 122 115 Q 118 121 119 128 Q 119 176 120 201 Q 120 213 115 222 Q 111 230 107 230 Q 104 230 102 226" fill="#CCCCCC"/><path d="M 97 203 Q 100 204 102 200 L 102 226 Q 97 217 90 207" fill="#CCCCCC"/><path d="M 55 110 Q 55 80 47 72 L 59 71 Q 62 72 64 74 Q 64 74 64 83 Q 65 93 65 109 L 64 116 Q 62 136 54 148 Q 50 156 48 156 Q 46 157 46 155 Q 46 153 47 152 Q 51 142 55 118" fill="#CCCCCC"/><path d="M 79 105 Q 80 94 80 84 Q 81 74 78 69 Q 77 69 77 68 L 90 66 Q 92 67 94 68 Q 95 70 94 73 Q 90 89 88 102 L 87 111 Q 86 137 93 140 L 85 149 Q 75 141 79 113" fill="#CCCCCC"/><path d="M 93 140 Q 101 142 101 143 Q 103 144 101 147 Q 98 150 91 150 Q 86 150 85 149" fill="#CCCCCC"/><path d="M 71 163 L 80 164 Q 87 165 90 169 Q 92 172 86 173 Q 73 175 56 178 Q 53 178 51 177 Q 46 174 50 173" fill="#CCCCCC"/><path d="M 39 201 Q 56 199 78 196 Q 86 194 90 197 Q 96 200 97 203 L 90 207 Q 57 207 41 210 Q 39 210 38 210" fill="#CCCCCC"/><path d="M 150 102 Q 138 120 130 122 Q 128 124 129 120 Q 130 117 134 112 Q 147 89 141 75 Q 140 71 142 70 Q 148 69 159 75 Q 162 77 160 81 Q 156 88 153 96" fill="#CCCCCC"/><path d="M 177 103 Q 176 103 175 103 Q 162 107 150 102 L 153 96 Q 166 93 177 91 L 190 87 Q 206 81 213 82 Q 221 84 222 87 Q 224 89 221 91 Q 220 92 212 95 Q 200 97 189 100" fill="#CCCCCC"/><path d="M 177 119 L 177 103 L 177 91 Q 176 71 175 54 Q 175 48 169 39 Q 167 35 169 34 Q 171 31 175 32 Q 182 33 191 38 Q 196 42 195 45 Q 190 65 190 87 L 189 100 Q 188 116 187 133 L 176 136" fill="#CCCCCC"/><path d="M 187 133 Q 203 130 215 128 Q 231 123 244 133 Q 248 136 247 139 Q 246 141 241 141 L 241 141 Q 180 141 140 153 Q 136 154 131 153 Q 127 152 123 148 Q 120 144 125 144 Q 153 139 176 136" fill="#CCCCCC"/><path d="M 158 230 L 157 234 Q 155 238 151 232 Q 147 227 146 220 Q 142 196 136 181 Q 136 180 136 180 Q 135 179 135 179 Q 133 175 135 173 Q 136 172 139 173 Q 148 174 150 176 L 152 185 Q 153 193 156 215 L 157 223" fill="#CCCCCC"/><path d="M 150 176 Q 172 173 191 167 Q 207 159 227 175 Q 231 179 226 184 L 201 178 Q 199 176 194 177 Q 175 180 156 184 Q 153 184 152 185" fill="#CCCCCC"/><path d="M 198 208 Q 204 181 201 178 L 226 184 Q 218 190 212 209" fill="#CCCCCC"/><path d="M 156 215 Q 175 213 198 208 L 212 209 Q 219 213 219 216 Q 218 218 216 218 Q 180 220 163 223 Q 160 224 157 223" fill="#CCCCCC"/><path d="M 47 72 Q 37 70 33 68 Q 27 64 36 63 Q 56 61 80 57 Q 109 49 115 50 Q 122 52 123 55 Q 124 57 122 59 Q 120 61 90 66 L 77 68 Q 68 70 59 71" fill="#0000ff" clip-path="url(#clip-mask-1)" /><path d="M 38 217 L 35 221 Q 32 224 30 220 Q 21 210 27 187 Q 32 137 24 115 Q 22 111 24 110 Q 27 109 29 110 Q 32 111 34 113 L 40 121 Q 39 161 39 201 L 38 210" fill="#0000ff" clip-path="url(#clip-mask-2)" /><path d="M 34 113 Q 41 112 55 110 L 65 109 Q 72 107 79 105 L 88 102 Q 102 97 105 99 Q 118 105 122 110 L 102 112 Q 97 108 87 111 L 79 113 Q 71 114 64 116 L 55 118 Q 52 118 50 119 Q 44 120 40 121" fill="#0000ff" clip-path="url(#clip-mask-3)" /><path d="M 102 200 Q 104 195 104 178 Q 108 118 102 112 L 122 110 Q 125 112 122 115 Q 118 121 119 128 Q 119 176 120 201 Q 120 213 115 222 Q 111 230 107 230 Q 104 230 102 226" fill="#0000ff" clip-path="url(#clip-mask-4)" /><path d="M 97 203 Q 100 204 102 200 L 102 226 Q 97 217 90 207" fill="#0000ff" clip-path="url(#clip-mask-5)" /><path d="M 55 110 Q 55 80 47 72 L 59 71 Q 62 72 64 74 Q 64 74 64 83 Q 65 93 65 109 L 64 116 Q 62 136 54 148 Q 50 156 48 156 Q 46 157 46 155 Q 46 153 47 152 Q 51 142 55 118" fill="#0000ff" clip-path="url(#clip-mask-6)" /><path d="M 79 105 Q 80 94 80 84 Q 81 74 78 69 Q 77 69 77 68 L 90 66 Q 92 67 94 68 Q 95 70 94 73 Q 90 89 88 102 L 87 111 Q 86 137 93 140 L 85 149 Q 75 141 79 113" fill="#0000ff" clip-path="url(#clip-mask-7)" /><path d="M 93 140 Q 101 142 101 143 Q 103 144 101 147 Q 98 150 91 150 Q 86 150 85 149" fill="#0000ff" clip-path="url(#clip-mask-8)" /><path d="M 71 163 L 80 164 Q 87 165 90 169 Q 92 172 86 173 Q 73 175 56 178 Q 53 178 51 177 Q 46 174 50 173" fill="#0000ff" clip-path="url(#clip-mask-9)" /><path d="M 39 201 Q 56 199 78 196 Q 86 194 90 197 Q 96 200 97 203 L 90 207 Q 57 207 41 210 Q 39 210 38 210" fill="#0000ff" clip-path="url(#clip-mask-10)" /><path d="M 150 102 Q 138 120 130 122 Q 128 124 129 120 Q 130 117 134 112 Q 147 89 141 75 Q 140 71 142 70 Q 148 69 159 75 Q 162 77 160 81 Q 156 88 153 96" fill="#000080" clip-path="url(#clip-mask-11)" /><path d="M 177 103 Q 176 103 175 103 Q 162 107 150 102 L 153 96 Q 166 93 177 91 L 190 87 Q 206 81 213 82 Q 221 84 222 87 Q 224 89 221 91 Q 220 92 212 95 Q 200 97 189 100" fill="#000080" clip-path="url(#clip-mask-12)" /><path d="M 177 119 L 177 103 L 177 91 Q 176 71 175 54 Q 175 48 169 39 Q 167 35 169 34 Q 171 31 175 32 Q 182 33 191 38 Q 196 42 195 45 Q 190 65 190 87 L 189 100 Q 188 116 187 133 L 176 136" fill="#000080" clip-path="url(#clip-mask-13)" /><path d="M 187 133 Q 203 130 215 128 Q 231 123 244 133 Q 248 136 247 139 Q 246 141 241 141 L 241 141 Q 180 141 140 153 Q 136 154 131 153 Q 127 152 123 148 Q 120 144 125 144 Q 153 139 176 136" fill="#000080" clip-path="url(#clip-mask-14)" /><path d="M 158 230 L 157 234 Q 155 238 151 232 Q 147 227 146 220 Q 142 196 136 181 Q 136 180 136 180 Q 135 179 135 179 Q 133 175 135 173 Q 136 172 139 173 Q 148 174 150 176 L 152 185 Q 153 193 156 215 L 157 223" fill="#000080" clip-path="url(#clip-mask-15)" /><path d="M 150 176 Q 172 173 191 167 Q 207 159 227 175 Q 231 179 226 184 L 201 178 Q 199 176 194 177 Q 175 180 156 184 Q 153 184 152 185" fill="#000080" clip-path="url(#clip-mask-16)" /><path d="M 198 208 Q 204 181 201 178 L 226 184 Q 218 190 212 209" fill="#000080" clip-path="url(#clip-mask-17)" /><path d="M 156 215 Q 175 213 198 208 L 212 209 Q 219 213 219 216 Q 218 218 216 218 Q 180 220 163 223 Q 160 224 157 223" fill="#000080" clip-path="url(#clip-mask-18)" /></svg>