<svg xmlns="http://www.w3.org/2000/svg" xmlns:xlink="http://www.w3.org/1999/xlink" width="270" height="270"><defs><clipPath id="clip-mask-1"><rect x="78" y="12" width="90" height="52"><animate attributeName="x" from="168" to="78" dur="0.333" begin="0; animate8.end + 1" id="animate1" fill="freeze"/></rect></clipPath><clipPath id="clip-mask-2"><rect x="59" y="70" width="31" height="36"><set attributeName="y" to="34" begin="0; animate8.end + 1" /><animate attributeName="y" from="34" to="70" dur="0.133" begin="animate1.end + 0.5" id="animate2" fill="freeze"/></rect></clipPath><clipPath id="clip-mask-3"><rect x="108" y="62" width="25" height="29"><set attributeName="y" to="33" begin="0; animate8.end + 1" /><animate attributeName="y" from="33" to="62" dur="0.107" begin="animate2.end + 0.5" id="animate3" fill="freeze"/></rect></clipPath><clipPath id="clip-mask-4"><rect x="143" y="41" width="56" height="46"><set attributeName="y" to="-5" begin="0; animate8.end + 1" /><animate attributeName="y" from="-5" to="41" dur="0.170" begin="animate3.end + 0.5" id="animate4" fill="freeze"/></rect></clipPath><clipPath id="clip-mask-5"><rect x="34" y="109" width="167" height="38"><set attributeName="x" to="-133" begin="0; animate8.end + 1" /><animate attributeName="x" from="-133" to="34" dur="0.619" begin="animate4.end + 0.5" id="animate5" fill="freeze"/></rect></clipPath><clipPath id="clip-mask-6"><rect x="104" y="99" width="26" height="158"><set attributeName="y" to="-59" begin="0; animate8.end + 1" /><animate attributeName="y" from="-59" to="99" dur="0.585" begin="animate5.end + 0.5" id="animate6" fill="freeze"/></rect></clipPath><clipPath id="clip-mask-7"><rect x="18" y="124" width="96" height="103"><set attributeName="x" to="114" begin="0; animate8.end + 1" /><animate attributeName="x" from="114" to="18" dur="0.356" begin="animate6.end + 0.5" id="animate7" fill="freeze"/></rect></clipPath><clipPath id="clip-mask-8"><rect x="128" y="133" width="123" height="87"><set attributeName="x" to="5" begin="0; animate8.end + 1" /><animate attributeName="x" from="5" to="128" dur="0.456" begin="animate7.end + 0.5" id="animate8" fill="freeze"/></rect></clipPath></defs><path d="M 0 0 L 270 270 M 270 0 L 0 270 M 135 0 L 135 270 M 0 135 L 270 135" stroke="#CCCCCC" /><path d="M 136 22 L 136 18 Q 136 15 138 14 Q 147 12 165 23 Q 168 26 167 29 Q 167 32 162 32 Q 147 36 130 45 Q 88 64 79 64 Q 78 63 79 60 Q 117 40 133 25" fill="#CCCCCC"/><path d="M 60 79 L 59 76 Q 60 72 61 71 Q 66 70 82 81 Q 89 86 90 91 Q 90 99 88 103 Q 86 106 83 106 Q 79 105 76 101 Q 71 93 66 86" fill="#CCCCCC"/><path d="M 108 68 L 108 65 Q 108 62 109 62 Q 112 62 116 63 Q 116 63 116 64 Q 132 72 133 81 Q 133 85 130 88 Q 128 91 125 89 Q 119 86 111 72" fill="#CCCCCC"/><path d="M 172 51 L 171 46 Q 170 42 174 42 Q 178 41 185 45 Q 192 50 196 55 Q 199 61 192 63 Q 188 65 168 76 Q 161 81 148 86 Q 143 87 146 82 Q 163 64 168 56" fill="#CCCCCC"/><path d="M 102 135 Q 78 138 56 145 Q 46 147 38 140 Q 34 135 39 135 Q 80 129 114 124 L 129 122 Q 153 117 169 114 Q 182 109 197 120 Q 201 124 200 127 Q 199 129 194 129 Q 149 129 128 132" fill="#CCCCCC"/><path d="M 128 148 L 128 154 Q 127 191 127 234 Q 128 244 125 253 Q 123 257 119 257 Q 117 255 114 250 Q 113 249 113 248 Q 104 233 107 223 Q 110 213 113 146 L 114 124 Q 113 110 110 105 Q 108 102 110 101 Q 113 99 116 100 Q 122 103 129 109 Q 130 110 129 122 L 128 132 Q 128 132 128 133 L 128 144" fill="#CCCCCC"/><path d="M 113 146 Q 95 174 94 175 Q 79 193 59 209 Q 31 227 22 226 Q 18 226 22 222 Q 52 201 66 187 Q 82 170 97 147 Q 101 141 102 135 L 114 124" fill="#CCCCCC"/><path d="M 128 133 L 129 134 Q 160 165 190 184 Q 196 187 247 210 Q 251 212 251 213 Q 250 215 244 215 Q 211 220 194 215 Q 180 210 128 144" fill="#CCCCCC"/><path d="M 136 22 L 136 18 Q 136 15 138 14 Q 147 12 165 23 Q 168 26 167 29 Q 167 32 162 32 Q 147 36 130 45 Q 88 64 79 64 Q 78 63 79 60 Q 117 40 133 25" fill="#0000ff" clip-path="url(#clip-mask-1)" /><path d="M 60 79 L 59 76 Q 60 72 61 71 Q 66 70 82 81 Q 89 86 90 91 Q 90 99 88 103 Q 86 106 83 106 Q 79 105 76 101 Q 71 93 66 86" fill="#0000ff" clip-path="url(#clip-mask-2)" /><path d="M 108 68 L 108 65 Q 108 62 109 62 Q 112 62 116 63 Q 116 63 116 64 Q 132 72 133 81 Q 133 85 130 88 Q 128 91 125 89 Q 119 86 111 72" fill="#0000ff" clip-path="url(#clip-mask-3)" /><path d="M 172 51 L 171 46 Q 170 42 174 42 Q 178 41 185 45 Q 192 50 196 55 Q 199 61 192 63 Q 188 65 168 76 Q 161 81 148 86 Q 143 87 146 82 Q 163 64 168 56" fill="#0000ff" clip-path="url(#clip-mask-4)" /><path d="M 102 135 Q 78 138 56 145 Q 46 147 38 140 Q 34 135 39 135 Q 80 129 114 124 L 129 122 Q 153 117 169 114 Q 182 109 197 120 Q 201 124 200 127 Q 199 129 194 129 Q 149 129 128 132" fill="#0000ff" clip-path="url(#clip-mask-5)" /><path d="M 128 148 L 128 154 Q 127 191 127 234 Q 128 244 125 253 Q 123 257 119 257 Q 117 255 114 250 Q 113 249 113 248 Q 104 233 107 223 Q 110 213 113 146 L 114 124 Q 113 110 110 105 Q 108 102 110 101 Q 113 99 116 100 Q 122 103 129 109 Q 130 110 129 122 L 128 132 Q 128 132 128 133 L 128 144" fill="#0000ff" clip-path="url(#clip-mask-6)" /><path d="M 113 146 Q 95 174 94 175 Q 79 193 59 209 Q 31 227 22 226 Q 18 226 22 222 Q 52 201 66 187 Q 82 170 97 147 Q 101 141 102 135 L 114 124" fill="#0000ff" clip-path="url(#clip-mask-7)" /><path d="M 128 133 L 129 134 Q 160 165 190 184 Q 196 187 247 210 Q 251 212 251 213 Q 250 215 244 215 Q 211 220 194 215 Q 180 210 128 144" fill="#0000ff" clip-path="url(#clip-mask-8)" /></svg>