<svg xmlns="http://www.w3.org/2000/svg" xmlns:xlink="http://www.w3.org/1999/xlink" width="270" height="270"><defs><clipPath id="clip-mask-1"><rect x="42" y="28" width="73" height="38"><animate attributeName="x" from="115" to="42" dur="0.270" begin="0; animate21.end + 1" id="animate1" fill="freeze"/></rect></clipPath><clipPath id="clip-mask-2"><rect x="39" y="77" width="23" height="26"><set attributeName="y" to="51" begin="0; animate21.end + 1" /><animate attributeName="y" from="51" to="77" dur="0.096" begin="animate1.end + 0.5" id="animate2" fill="freeze"/></rect></clipPath><clipPath id="clip-mask-3"><rect x="94" y="61" width="30" height="30"><set attributeName="y" to="31" begin="0; animate21.end + 1" /><animate attributeName="y" from="31" to="61" dur="0.111" begin="animate2.end + 0.5" id="animate3" fill="freeze"/></rect></clipPath><clipPath id="clip-mask-4"><rect x="24" y="99" width="95" height="32"><set attributeName="x" to="-71" begin="0; animate21.end + 1" /><animate attributeName="x" from="-71" to="24" dur="0.352" begin="animate3.end + 0.5" id="animate4" fill="freeze"/></rect></clipPath><clipPath id="clip-mask-5"><rect x="65" y="56" width="24" height="179"><set attributeName="y" to="-123" begin="0; animate21.end + 1" /><animate attributeName="y" from="-123" to="56" dur="0.663" begin="animate4.end + 0.5" id="animate5" fill="freeze"/></rect></clipPath><clipPath id="clip-mask-6"><rect x="21" y="108" width="54" height="90"><set attributeName="y" to="18" begin="0; animate21.end + 1" /><animate attributeName="y" from="18" to="108" dur="0.333" begin="animate5.end + 0.5" id="animate6" fill="freeze"/></rect></clipPath><clipPath id="clip-mask-7"><rect x="85" y="130" width="26" height="25"><set attributeName="x" to="59" begin="0; animate21.end + 1" /><animate attributeName="x" from="59" to="85" dur="0.096" begin="animate6.end + 0.5" id="animate7" fill="freeze"/></rect></clipPath><clipPath id="clip-mask-8"><rect x="123" y="32" width="23" height="48"><set attributeName="y" to="-16" begin="0; animate21.end + 1" /><animate attributeName="y" from="-16" to="32" dur="0.178" begin="animate7.end + 0.5" id="animate8" fill="freeze"/></rect></clipPath><clipPath id="clip-mask-9"><rect x="137" y="17" width="99" height="24"><set attributeName="x" to="38" begin="0; animate21.end + 1" /><animate attributeName="x" from="38" to="137" dur="0.367" begin="animate8.end + 0.5" id="animate9" fill="freeze"/></rect></clipPath><clipPath id="clip-mask-10"><rect x="208" y="28" width="31" height="39"><set attributeName="y" to="-11" begin="0; animate21.end + 1" /><animate attributeName="y" from="-11" to="28" dur="0.144" begin="animate9.end" id="animate10" fill="freeze"/></rect></clipPath><clipPath id="clip-mask-11"><rect x="155" y="36" width="13" height="27"><set attributeName="y" to="9" begin="0; animate21.end + 1" /><animate attributeName="y" from="9" to="36" dur="0.100" begin="animate10.end + 0.5" id="animate11" fill="freeze"/></rect></clipPath><clipPath id="clip-mask-12"><rect x="182" y="30" width="16" height="29"><set attributeName="y" to="1" begin="0; animate21.end + 1" /><animate attributeName="y" from="1" to="30" dur="0.107" begin="animate11.end + 0.5" id="animate12" fill="freeze"/></rect></clipPath><clipPath id="clip-mask-13"><rect x="145" y="53" width="64" height="21"><set attributeName="x" to="81" begin="0; animate21.end + 1" /><animate attributeName="x" from="81" to="145" dur="0.237" begin="animate12.end + 0.5" id="animate13" fill="freeze"/></rect></clipPath><clipPath id="clip-mask-14"><rect x="139" y="81" width="67" height="19"><set attributeName="x" to="72" begin="0; animate21.end + 1" /><animate attributeName="x" from="72" to="139" dur="0.248" begin="animate13.end + 0.5" id="animate14" fill="freeze"/></rect></clipPath><clipPath id="clip-mask-15"><rect x="164" y="68" width="18" height="44"><set attributeName="y" to="24" begin="0; animate21.end + 1" /><animate attributeName="y" from="24" to="68" dur="0.163" begin="animate14.end + 0.5" id="animate15" fill="freeze"/></rect></clipPath><clipPath id="clip-mask-16"><rect x="111" y="98" width="137" height="33"><set attributeName="x" to="-26" begin="0; animate21.end + 1" /><animate attributeName="x" from="-26" to="111" dur="0.507" begin="animate15.end + 0.5" id="animate16" fill="freeze"/></rect></clipPath><clipPath id="clip-mask-17"><rect x="144" y="124" width="18" height="24"><set attributeName="y" to="100" begin="0; animate21.end + 1" /><animate attributeName="y" from="100" to="124" dur="0.089" begin="animate16.end + 0.5" id="animate17" fill="freeze"/></rect></clipPath><clipPath id="clip-mask-18"><rect x="177" y="117" width="24" height="29"><set attributeName="y" to="88" begin="0; animate21.end + 1" /><animate attributeName="y" from="88" to="117" dur="0.107" begin="animate17.end + 0.5" id="animate18" fill="freeze"/></rect></clipPath><clipPath id="clip-mask-19"><rect x="128" y="139" width="86" height="21"><set attributeName="x" to="42" begin="0; animate21.end + 1" /><animate attributeName="x" from="42" to="128" dur="0.319" begin="animate18.end + 0.5" id="animate19" fill="freeze"/></rect></clipPath><clipPath id="clip-mask-20"><rect x="119" y="160" width="125" height="31"><set attributeName="x" to="-6" begin="0; animate21.end + 1" /><animate attributeName="x" from="-6" to="119" dur="0.463" begin="animate19.end + 0.5" id="animate20" fill="freeze"/></rect></clipPath><clipPath id="clip-mask-21"><rect x="163" y="155" width="21" height="97"><set attributeName="y" to="58" begin="0; animate21.end + 1" /><animate attributeName="y" from="58" to="155" dur="0.359" begin="animate20.end + 0.5" id="animate21" fill="freeze"/></rect></clipPath></defs><path d="M 0 0 L 270 270 M 270 0 L 0 270 M 135 0 L 135 270 M 0 135 L 270 135" stroke="#CCCCCC" /><path d="M 71 59 Q 69 59 67 60 Q 48 66 44 66 Q 42 65 44 63 Q 89 42 89 33 Q 89 30 90 29 Q 98 28 112 38 Q 115 41 114 43 Q 113 45 109 45 Q 96 48 80 56" fill="#CCCCCC"/><path d="M 39 83 L 39 81 Q 39 78 40 78 Q 41 77 45 79 Q 60 86 61 92 Q 62 98 60 101 Q 59 103 56 103 Q 54 103 44 89" fill="#CCCCCC"/><path d="M 107 68 L 107 65 Q 106 61 109 61 Q 118 62 123 71 Q 124 73 120 74 Q 113 79 98 90 Q 96 91 95 91 Q 94 90 95 88 Q 102 78 106 71" fill="#CCCCCC"/><path d="M 71 120 Q 61 122 50 126 Q 37 131 28 125 Q 24 123 25 120 Q 25 118 28 118 Q 48 115 75 108 L 86 106 Q 107 99 114 102 Q 119 104 119 107 Q 119 109 115 109 Q 98 112 85 116" fill="#CCCCCC"/><path d="M 85 173 L 85 215 Q 86 224 83 232 Q 82 235 79 235 Q 76 234 73 229 Q 65 215 67 205 Q 72 194 74 139 L 75 108 Q 76 66 71 59 L 80 56 Q 83 58 88 61 Q 89 63 89 66 Q 87 78 86 106 L 85 116 Q 85 122 85 130 L 85 136" fill="#CCCCCC"/><path d="M 74 139 Q 56 172 27 196 Q 25 198 24 197 Q 21 197 22 195 Q 59 150 71 120 L 75 108" fill="#CCCCCC"/><path d="M 85 130 Q 86 130 88 130 Q 108 137 110 145 Q 111 150 110 153 Q 109 155 107 155 Q 105 155 85 136" fill="#CCCCCC"/><path d="M 146 73 Q 146 75 145 76 Q 144 80 140 75 Q 137 72 136 66 Q 131 48 124 37 Q 123 34 124 33 Q 124 32 127 32 Q 134 33 137 34 L 140 41 Q 141 48 145 64 Q 145 65 145 66" fill="#CCCCCC"/><path d="M 155 37 Q 148 39 143 41 Q 141 41 140 41 L 137 34 Q 147 32 161 29 Q 195 21 201 21 Q 218 17 222 19 Q 232 25 236 28 L 215 28 Q 211 26 193 30 L 182 32 Q 170 34 161 36" fill="#CCCCCC"/><path d="M 209 56 Q 212 52 216 34 Q 217 29 215 28 L 236 28 Q 239 32 235 35 Q 227 41 223 52 Q 216 66 212 67 Q 210 67 209 64 L 208 63" fill="#CCCCCC"/><path d="M 163 63 Q 158 59 158 54 Q 156 40 155 37 L 161 36 Q 161 37 162 37 Q 168 56 168 62 Q 167 62 167 63" fill="#CCCCCC"/><path d="M 193 30 Q 195 31 196 32 Q 198 34 196 36 Q 194 39 188 58 L 183 59 Q 183 57 183 55 Q 185 36 182 32" fill="#CCCCCC"/><path d="M 164 70 Q 156 71 151 73 Q 148 74 146 73 L 145 66 Q 153 64 163 63 L 167 63 Q 175 61 183 59 L 188 58 Q 204 53 208 55 Q 209 56 209 56 L 208 63 Q 187 66 173 68" fill="#CCCCCC"/><path d="M 168 98 Q 151 100 144 96 Q 139 93 147 92 Q 157 91 167 89 L 180 86 Q 191 81 198 82 Q 204 84 205 86 Q 206 88 204 89 Q 203 90 195 92 Q 187 93 179 95" fill="#CCCCCC"/><path d="M 168 112 Q 168 103 168 98 L 167 89 Q 166 75 164 70 L 173 68 Q 177 70 180 74 Q 182 76 181 81 Q 180 83 180 86 L 179 95 Q 179 102 179 110" fill="#CCCCCC"/><path d="M 183 118 Q 162 120 150 124 L 144 125 Q 136 127 130 129 Q 126 131 122 130 Q 118 129 114 125 Q 111 122 115 121 Q 143 116 168 112 L 179 110 Q 201 105 217 102 Q 231 98 244 106 Q 248 110 247 112 Q 245 115 231 115 Q 210 115 193 117" fill="#CCCCCC"/><path d="M 150 124 Q 161 131 162 138 Q 162 143 161 145 Q 159 148 157 146 Q 153 144 145 126 Q 145 126 144 125" fill="#CCCCCC"/><path d="M 177 146 Q 178 144 179 142 Q 185 124 183 118 L 193 117 Q 197 120 199 123 Q 201 126 198 128 Q 195 131 194 133 Q 190 138 187 142 Q 187 143 186 144" fill="#CCCCCC"/><path d="M 163 158 Q 153 159 147 160 Q 138 160 133 157 Q 128 153 135 152 Q 169 148 176 146 Q 176 146 177 146 L 186 144 Q 186 144 187 144 Q 201 139 209 144 Q 214 146 214 148 Q 212 151 210 151 Q 182 154 176 155" fill="#CCCCCC"/><path d="M 152 186 L 139 190 Q 135 191 130 190 Q 126 189 123 186 Q 119 181 124 181 Q 146 177 167 174 L 182 172 Q 200 168 213 165 Q 226 160 240 170 Q 244 173 243 176 Q 242 178 237 178 Q 204 178 181 181 L 167 184" fill="#CCCCCC"/><path d="M 167 174 Q 167 163 163 158 L 176 155 L 176 156 Q 184 159 182 170 Q 182 171 182 172 L 181 181 Q 180 209 180 216 Q 179 248 174 251 Q 172 252 171 250 Q 167 245 167 184" fill="#CCCCCC"/><path d="M 71 59 Q 69 59 67 60 Q 48 66 44 66 Q 42 65 44 63 Q 89 42 89 33 Q 89 30 90 29 Q 98 28 112 38 Q 115 41 114 43 Q 113 45 109 45 Q 96 48 80 56" fill="#0000ff" clip-path="url(#clip-mask-1)" /><path d="M 39 83 L 39 81 Q 39 78 40 78 Q 41 77 45 79 Q 60 86 61 92 Q 62 98 60 101 Q 59 103 56 103 Q 54 103 44 89" fill="#0000ff" clip-path="url(#clip-mask-2)" /><path d="M 107 68 L 107 65 Q 106 61 109 61 Q 118 62 123 71 Q 124 73 120 74 Q 113 79 98 90 Q 96 91 95 91 Q 94 90 95 88 Q 102 78 106 71" fill="#0000ff" clip-path="url(#clip-mask-3)" /><path d="M 71 120 Q 61 122 50 126 Q 37 131 28 125 Q 24 123 25 120 Q 25 118 28 118 Q 48 115 75 108 L 86 106 Q 107 99 114 102 Q 119 104 119 107 Q 119 109 115 109 Q 98 112 85 116" fill="#0000ff" clip-path="url(#clip-mask-4)" /><path d="M 85 173 L 85 215 Q 86 224 83 232 Q 82 235 79 235 Q 76 234 73 229 Q 65 215 67 205 Q 72 194 74 139 L 75 108 Q 76 66 71 59 L 80 56 Q 83 58 88 61 Q 89 63 89 66 Q 87 78 86 106 L 85 116 Q 85 122 85 130 L 85 136" fill="#0000ff" clip-path="url(#clip-mask-5)" /><path d="M 74 139 Q 56 172 27 196 Q 25 198 24 197 Q 21 197 22 195 Q 59 150 71 120 L 75 108" fill="#0000ff" clip-path="url(#clip-mask-6)" /><path d="M 85 130 Q 86 130 88 130 Q 108 137 110 145 Q 111 150 110 153 Q 109 155 107 155 Q 105 155 85 136" fill="#0000ff" clip-path="url(#clip-mask-7)" /><path d="M 146 73 Q 146 75 145 76 Q 144 80 140 75 Q 137 72 136 66 Q 131 48 124 37 Q 123 34 124 33 Q 124 32 127 32 Q 134 33 137 34 L 140 41 Q 141 48 145 64 Q 145 65 145 66" fill="#000080" clip-path="url(#clip-mask-8)" /><path d="M 155 37 Q 148 39 143 41 Q 141 41 140 41 L 137 34 Q 147 32 161 29 Q 195 21 201 21 Q 218 17 222 19 Q 232 25 236 28 L 215 28 Q 211 26 193 30 L 182 32 Q 170 34 161 36" fill="#000080" clip-path="url(#clip-mask-9)" /><path d="M 209 56 Q 212 52 216 34 Q 217 29 215 28 L 236 28 Q 239 32 235 35 Q 227 41 223 52 Q 216 66 212 67 Q 210 67 209 64 L 208 63" fill="#000080" clip-path="url(#clip-mask-10)" /><path d="M 163 63 Q 158 59 158 54 Q 156 40 155 37 L 161 36 Q 161 37 162 37 Q 168 56 168 62 Q 167 62 167 63" fill="#000080" clip-path="url(#clip-mask-11)" /><path d="M 193 30 Q 195 31 196 32 Q 198 34 196 36 Q 194 39 188 58 L 183 59 Q 183 57 183 55 Q 185 36 182 32" fill="#000080" clip-path="url(#clip-mask-12)" /><path d="M 164 70 Q 156 71 151 73 Q 148 74 146 73 L 145 66 Q 153 64 163 63 L 167 63 Q 175 61 183 59 L 188 58 Q 204 53 208 55 Q 209 56 209 56 L 208 63 Q 187 66 173 68" fill="#000080" clip-path="url(#clip-mask-13)" /><path d="M 168 98 Q 151 100 144 96 Q 139 93 147 92 Q 157 91 167 89 L 180 86 Q 191 81 198 82 Q 204 84 205 86 Q 206 88 204 89 Q 203 90 195 92 Q 187 93 179 95" fill="#000080" clip-path="url(#clip-mask-14)" /><path d="M 168 112 Q 168 103 168 98 L 167 89 Q 166 75 164 70 L 173 68 Q 177 70 180 74 Q 182 76 181 81 Q 180 83 180 86 L 179 95 Q 179 102 179 110" fill="#000080" clip-path="url(#clip-mask-15)" /><path d="M 183 118 Q 162 120 150 124 L 144 125 Q 136 127 130 129 Q 126 131 122 130 Q 118 129 114 125 Q 111 122 115 121 Q 143 116 168 112 L 179 110 Q 201 105 217 102 Q 231 98 244 106 Q 248 110 247 112 Q 245 115 231 115 Q 210 115 193 117" fill="#000080" clip-path="url(#clip-mask-16)" /><path d="M 150 124 Q 161 131 162 138 Q 162 143 161 145 Q 159 148 157 146 Q 153 144 145 126 Q 145 126 144 125" fill="#000080" clip-path="url(#clip-mask-17)" /><path d="M 177 146 Q 178 144 179 142 Q 185 124 183 118 L 193 117 Q 197 120 199 123 Q 201 126 198 128 Q 195 131 194 133 Q 190 138 187 142 Q 187 143 186 144" fill="#000080" clip-path="url(#clip-mask-18)" /><path d="M 163 158 Q 153 159 147 160 Q 138 160 133 157 Q 128 153 135 152 Q 169 148 176 146 Q 176 146 177 146 L 186 144 Q 186 144 187 144 Q 201 139 209 144 Q 214 146 214 148 Q 212 151 210 151 Q 182 154 176 155" fill="#000080" clip-path="url(#clip-mask-19)" /><path d="M 152 186 L 139 190 Q 135 191 130 190 Q 126 189 123 186 Q 119 181 124 181 Q 146 177 167 174 L 182 172 Q 200 168 213 165 Q 226 160 240 170 Q 244 173 243 176 Q 242 178 237 178 Q 204 178 181 181 L 167 184" fill="#000080" clip-path="url(#clip-mask-20)" /><path d="M 167 174 Q 167 163 163 158 L 176 155 L 176 156 Q 184 159 182 170 Q 182 171 182 172 L 181 181 Q 180 209 180 216 Q 179 248 174 251 Q 172 252 171 250 Q 167 245 167 184" fill="#000080" clip-path="url(#clip-mask-21)" /></svg>