<svg xmlns="http://www.w3.org/2000/svg" xmlns:xlink="http://www.w3.org/1999/xlink" width="270" height="270"><defs><clipPath id="clip-mask-1"><rect x="18" y="24" width="93" height="123"><animate attributeName="y" from="-99" to="24" dur="0.456" begin="0; animate17.end + 1" id="animate1" fill="freeze"/></rect></clipPath><clipPath id="clip-mask-2"><rect x="97" y="56" width="30" height="26"><set attributeName="x" to="67" begin="0; animate17.end + 1" /><animate attributeName="x" from="67" to="97" dur="0.111" begin="animate1.end + 0.5" id="animate2" fill="freeze"/></rect></clipPath><clipPath id="clip-mask-3"><rect x="61" y="98" width="63" height="22"><set attributeName="x" to="-2" begin="0; animate17.end + 1" /><animate attributeName="x" from="-2" to="61" dur="0.233" begin="animate2.end + 0.5" id="animate3" fill="freeze"/></rect></clipPath><clipPath id="clip-mask-4"><rect x="54" y="130" width="72" height="26"><set attributeName="x" to="-18" begin="0; animate17.end + 1" /><animate attributeName="x" from="-18" to="54" dur="0.267" begin="animate3.end + 0.5" id="animate4" fill="freeze"/></rect></clipPath><clipPath id="clip-mask-5"><rect x="87" y="115" width="17" height="79"><set attributeName="y" to="36" begin="0; animate17.end + 1" /><animate attributeName="y" from="36" to="115" dur="0.293" begin="animate4.end + 0.5" id="animate5" fill="freeze"/></rect></clipPath><clipPath id="clip-mask-6"><rect x="53" y="163" width="24" height="24"><set attributeName="x" to="29" begin="0; animate17.end + 1" /><animate attributeName="x" from="29" to="53" dur="0.089" begin="animate5.end + 0.5" id="animate6" fill="freeze"/></rect></clipPath><clipPath id="clip-mask-7"><rect x="104" y="150" width="27" height="28"><set attributeName="y" to="122" begin="0; animate17.end + 1" /><animate attributeName="y" from="122" to="150" dur="0.104" begin="animate6.end + 0.5" id="animate7" fill="freeze"/></rect></clipPath><clipPath id="clip-mask-8"><rect x="35" y="183" width="94" height="41"><set attributeName="x" to="-59" begin="0; animate17.end + 1" /><animate attributeName="x" from="-59" to="35" dur="0.348" begin="animate7.end + 0.5" id="animate8" fill="freeze"/></rect></clipPath><clipPath id="clip-mask-9"><rect x="131" y="63" width="23" height="166"><set attributeName="y" to="-103" begin="0; animate17.end + 1" /><animate attributeName="y" from="-103" to="63" dur="0.615" begin="animate8.end + 0.5" id="animate9" fill="freeze"/></rect></clipPath><clipPath id="clip-mask-10"><rect x="149" y="52" width="99" height="28"><set attributeName="x" to="50" begin="0; animate17.end + 1" /><animate attributeName="x" from="50" to="149" dur="0.367" begin="animate9.end + 0.5" id="animate10" fill="freeze"/></rect></clipPath><clipPath id="clip-mask-11"><rect x="224" y="65" width="27" height="180"><set attributeName="y" to="-115" begin="0; animate17.end + 1" /><animate attributeName="y" from="-115" to="65" dur="0.667" begin="animate10.end" id="animate11" fill="freeze"/></rect></clipPath><clipPath id="clip-mask-12"><rect x="207" y="210" width="20" height="29"><set attributeName="x" to="227" begin="0; animate17.end + 1" /><animate attributeName="x" from="227" to="207" dur="0.074" begin="animate11.end" id="animate12" fill="freeze"/></rect></clipPath><clipPath id="clip-mask-13"><rect x="158" y="92" width="59" height="21"><set attributeName="x" to="99" begin="0; animate17.end + 1" /><animate attributeName="x" from="99" to="158" dur="0.219" begin="animate12.end + 0.5" id="animate13" fill="freeze"/></rect></clipPath><clipPath id="clip-mask-14"><rect x="156" y="133" width="21" height="53"><set attributeName="y" to="80" begin="0; animate17.end + 1" /><animate attributeName="y" from="80" to="133" dur="0.196" begin="animate13.end + 0.5" id="animate14" fill="freeze"/></rect></clipPath><clipPath id="clip-mask-15"><rect x="170" y="125" width="51" height="18"><set attributeName="x" to="119" begin="0; animate17.end + 1" /><animate attributeName="x" from="119" to="170" dur="0.189" begin="animate14.end + 0.5" id="animate15" fill="freeze"/></rect></clipPath><clipPath id="clip-mask-16"><rect x="195" y="140" width="21" height="26"><set attributeName="y" to="114" begin="0; animate17.end + 1" /><animate attributeName="y" from="114" to="140" dur="0.096" begin="animate15.end" id="animate16" fill="freeze"/></rect></clipPath><clipPath id="clip-mask-17"><rect x="176" y="164" width="36" height="12"><set attributeName="x" to="140" begin="0; animate17.end + 1" /><animate attributeName="x" from="140" to="176" dur="0.133" begin="animate16.end + 0.5" id="animate17" fill="freeze"/></rect></clipPath></defs><path d="M 0 0 L 270 270 M 270 0 L 0 270 M 135 0 L 135 270 M 0 135 L 270 135" stroke="#CCCCCC" /><path d="M 61 116 Q 37 142 20 147 Q 18 147 19 145 Q 45 118 56 105 Q 57 103 58 101 Q 92 53 86 31 Q 85 28 88 27 Q 96 24 106 32 Q 109 35 110 37 Q 111 40 109 42 Q 105 45 100 56 L 97 62 Q 80 93 64 113" fill="#CCCCCC"/><path d="M 100 56 Q 109 59 116 61 Q 124 64 125 69 Q 127 75 126 78 Q 125 81 122 82 Q 119 82 116 79 Q 109 72 102 67 Q 98 64 97 62" fill="#CCCCCC"/><path d="M 87 118 Q 80 120 73 120 Q 64 119 61 116 L 64 113 Q 64 112 65 112 Q 70 111 90 106 Q 108 98 113 99 Q 120 99 122 102 Q 124 104 122 106 Q 120 107 97 115" fill="#CCCCCC"/><path d="M 89 150 Q 85 151 84 151 Q 71 156 61 151 Q 54 148 62 145 Q 75 143 85 140 Q 86 139 89 139 L 101 134 Q 106 130 116 131 Q 124 132 125 134 Q 126 137 125 138 Q 124 139 101 146" fill="#CCCCCC"/><path d="M 89 166 L 89 150 L 89 139 Q 89 120 87 118 L 97 115 Q 104 120 102 125 Q 101 131 101 134 L 101 146 Q 100 167 99 192 L 88 194" fill="#CCCCCC"/><path d="M 53 171 L 53 168 Q 53 165 54 164 Q 56 163 70 168 Q 75 171 76 174 Q 77 181 76 184 Q 75 187 72 187 Q 68 187 66 184 Q 62 179 59 176" fill="#CCCCCC"/><path d="M 114 157 L 113 154 Q 113 150 115 150 Q 120 150 124 153 Q 128 157 130 159 Q 131 161 127 163 Q 121 166 108 177 Q 107 178 105 178 Q 104 176 105 175 Q 110 166 112 160" fill="#CCCCCC"/><path d="M 99 192 Q 112 187 125 184 Q 128 183 129 185 Q 129 187 125 189 Q 120 192 114 195 Q 97 202 79 209 Q 67 214 57 221 Q 53 224 51 223 Q 43 217 37 213 Q 35 211 35 208 Q 36 205 39 205 Q 48 205 52 204 Q 71 199 88 194" fill="#CCCCCC"/><path d="M 152 95 L 152 159 Q 152 215 144 225 Q 141 229 138 225 Q 135 221 132 212 Q 131 207 133 200 Q 137 188 139 176 Q 149 104 134 69 Q 132 67 133 65 Q 135 63 137 63 Q 144 65 149 69 L 154 80" fill="#CCCCCC"/><path d="M 149 69 Q 169 67 210 57 Q 227 52 233 55 Q 246 61 248 65 L 224 68 Q 221 65 216 66 Q 164 75 154 80" fill="#CCCCCC"/><path d="M 248 65 Q 251 69 248 75 Q 245 81 245 92 Q 245 122 249 205 Q 248 223 244 236 Q 240 244 237 245 Q 233 245 227 239 L 227 213 Q 230 211 230 202 Q 233 140 228 86 Q 227 70 224 68" fill="#CCCCCC"/><path d="M 227 239 Q 221 230 210 217 Q 207 215 207 213 Q 207 210 212 212 Q 224 215 227 213" fill="#CCCCCC"/><path d="M 174 101 L 180 99 Q 200 92 205 92 Q 213 93 215 96 Q 217 98 214 101 Q 214 102 210 103 Q 200 105 191 108 Q 177 113 165 108 Q 158 104 167 102" fill="#CCCCCC"/><path d="M 177 180 L 176 182 Q 174 186 171 181 Q 167 177 167 171 Q 164 151 158 139 Q 156 135 158 134 Q 159 133 161 133 Q 167 135 170 136 L 174 142 Q 174 148 176 168 L 177 176" fill="#CCCCCC"/><path d="M 170 136 Q 181 133 188 131 Q 202 125 205 127 Q 211 131 216 134 Q 221 137 216 143 L 198 140 Q 197 138 192 139 Q 174 142 174 142" fill="#CCCCCC"/><path d="M 195 164 Q 197 155 198 148 Q 200 141 198 140 L 216 143 Q 211 148 207 166" fill="#CCCCCC"/><path d="M 176 168 Q 183 166 193 164 Q 194 164 195 164 L 207 166 Q 212 169 212 171 Q 211 173 209 173 Q 189 174 180 176 Q 178 176 177 176" fill="#CCCCCC"/><path d="M 61 116 Q 37 142 20 147 Q 18 147 19 145 Q 45 118 56 105 Q 57 103 58 101 Q 92 53 86 31 Q 85 28 88 27 Q 96 24 106 32 Q 109 35 110 37 Q 111 40 109 42 Q 105 45 100 56 L 97 62 Q 80 93 64 113" fill="#0000ff" clip-path="url(#clip-mask-1)" /><path d="M 100 56 Q 109 59 116 61 Q 124 64 125 69 Q 127 75 126 78 Q 125 81 122 82 Q 119 82 116 79 Q 109 72 102 67 Q 98 64 97 62" fill="#0000ff" clip-path="url(#clip-mask-2)" /><path d="M 87 118 Q 80 120 73 120 Q 64 119 61 116 L 64 113 Q 64 112 65 112 Q 70 111 90 106 Q 108 98 113 99 Q 120 99 122 102 Q 124 104 122 106 Q 120 107 97 115" fill="#0000ff" clip-path="url(#clip-mask-3)" /><path d="M 89 150 Q 85 151 84 151 Q 71 156 61 151 Q 54 148 62 145 Q 75 143 85 140 Q 86 139 89 139 L 101 134 Q 106 130 116 131 Q 124 132 125 134 Q 126 137 125 138 Q 124 139 101 146" fill="#0000ff" clip-path="url(#clip-mask-4)" /><path d="M 89 166 L 89 150 L 89 139 Q 89 120 87 118 L 97 115 Q 104 120 102 125 Q 101 131 101 134 L 101 146 Q 100 167 99 192 L 88 194" fill="#0000ff" clip-path="url(#clip-mask-5)" /><path d="M 53 171 L 53 168 Q 53 165 54 164 Q 56 163 70 168 Q 75 171 76 174 Q 77 181 76 184 Q 75 187 72 187 Q 68 187 66 184 Q 62 179 59 176" fill="#0000ff" clip-path="url(#clip-mask-6)" /><path d="M 114 157 L 113 154 Q 113 150 115 150 Q 120 150 124 153 Q 128 157 130 159 Q 131 161 127 163 Q 121 166 108 177 Q 107 178 105 178 Q 104 176 105 175 Q 110 166 112 160" fill="#0000ff" clip-path="url(#clip-mask-7)" /><path d="M 99 192 Q 112 187 125 184 Q 128 183 129 185 Q 129 187 125 189 Q 120 192 114 195 Q 97 202 79 209 Q 67 214 57 221 Q 53 224 51 223 Q 43 217 37 213 Q 35 211 35 208 Q 36 205 39 205 Q 48 205 52 204 Q 71 199 88 194" fill="#0000ff" clip-path="url(#clip-mask-8)" /><path d="M 152 95 L 152 159 Q 152 215 144 225 Q 141 229 138 225 Q 135 221 132 212 Q 131 207 133 200 Q 137 188 139 176 Q 149 104 134 69 Q 132 67 133 65 Q 135 63 137 63 Q 144 65 149 69 L 154 80" fill="#000080" clip-path="url(#clip-mask-9)" /><path d="M 149 69 Q 169 67 210 57 Q 227 52 233 55 Q 246 61 248 65 L 224 68 Q 221 65 216 66 Q 164 75 154 80" fill="#000080" clip-path="url(#clip-mask-10)" /><path d="M 248 65 Q 251 69 248 75 Q 245 81 245 92 Q 245 122 249 205 Q 248 223 244 236 Q 240 244 237 245 Q 233 245 227 239 L 227 213 Q 230 211 230 202 Q 233 140 228 86 Q 227 70 224 68" fill="#000080" clip-path="url(#clip-mask-11)" /><path d="M 227 239 Q 221 230 210 217 Q 207 215 207 213 Q 207 210 212 212 Q 224 215 227 213" fill="#000080" clip-path="url(#clip-mask-12)" /><path d="M 174 101 L 180 99 Q 200 92 205 92 Q 213 93 215 96 Q 217 98 214 101 Q 214 102 210 103 Q 200 105 191 108 Q 177 113 165 108 Q 158 104 167 102" fill="#000080" clip-path="url(#clip-mask-13)" /><path d="M 177 180 L 176 182 Q 174 186 171 181 Q 167 177 167 171 Q 164 151 158 139 Q 156 135 158 134 Q 159 133 161 133 Q 167 135 170 136 L 174 142 Q 174 148 176 168 L 177 176" fill="#000080" clip-path="url(#clip-mask-14)" /><path d="M 170 136 Q 181 133 188 131 Q 202 125 205 127 Q 211 131 216 134 Q 221 137 216 143 L 198 140 Q 197 138 192 139 Q 174 142 174 142" fill="#000080" clip-path="url(#clip-mask-15)" /><path d="M 195 164 Q 197 155 198 148 Q 200 141 198 140 L 216 143 Q 211 148 207 166" fill="#000080" clip-path="url(#clip-mask-16)" /><path d="M 176 168 Q 183 166 193 164 Q 194 164 195 164 L 207 166 Q 212 169 212 171 Q 211 173 209 173 Q 189 174 180 176 Q 178 176 177 176" fill="#000080" clip-path="url(#clip-mask-17)" /></svg>