<svg xmlns="http://www.w3.org/2000/svg" xmlns:xlink="http://www.w3.org/1999/xlink" width="270" height="270"><defs><clipPath id="clip-mask-1"><rect x="99" y="14" width="74" height="24"><animate attributeName="x" from="25" to="99" dur="0.274" begin="0; animate9.end + 1" id="animate1" fill="freeze"/></rect></clipPath><clipPath id="clip-mask-2"><rect x="77" y="19" width="26" height="112"><set attributeName="y" to="-93" begin="0; animate9.end + 1" /><animate attributeName="y" from="-93" to="19" dur="0.415" begin="animate1.end + 0.5" id="animate2" fill="freeze"/></rect></clipPath><clipPath id="clip-mask-3"><rect x="102" y="52" width="60" height="20"><set attributeName="x" to="42" begin="0; animate9.end + 1" /><animate attributeName="x" from="42" to="102" dur="0.222" begin="animate2.end + 0.5" id="animate3" fill="freeze"/></rect></clipPath><clipPath id="clip-mask-4"><rect x="102" y="81" width="61" height="21"><set attributeName="x" to="41" begin="0; animate9.end + 1" /><animate attributeName="x" from="41" to="102" dur="0.226" begin="animate3.end + 0.5" id="animate4" fill="freeze"/></rect></clipPath><clipPath id="clip-mask-5"><rect x="22" y="109" width="193" height="46"><set attributeName="x" to="-171" begin="0; animate9.end + 1" /><animate attributeName="x" from="-171" to="22" dur="0.715" begin="animate4.end + 0.5" id="animate5" fill="freeze"/></rect></clipPath><clipPath id="clip-mask-6"><rect x="56" y="143" width="33" height="112"><set attributeName="y" to="31" begin="0; animate9.end + 1" /><animate attributeName="y" from="31" to="143" dur="0.415" begin="animate5.end + 0.5" id="animate6" fill="freeze"/></rect></clipPath><clipPath id="clip-mask-7"><rect x="71" y="194" width="59" height="57"><set attributeName="x" to="12" begin="0; animate9.end + 1" /><animate attributeName="x" from="12" to="71" dur="0.219" begin="animate6.end" id="animate7" fill="freeze"/></rect></clipPath><clipPath id="clip-mask-8"><rect x="148" y="135" width="39" height="38"><set attributeName="y" to="97" begin="0; animate9.end + 1" /><animate attributeName="y" from="97" to="135" dur="0.141" begin="animate7.end + 0.5" id="animate8" fill="freeze"/></rect></clipPath><clipPath id="clip-mask-9"><rect x="96" y="138" width="151" height="89"><set attributeName="x" to="-55" begin="0; animate9.end + 1" /><animate attributeName="x" from="-55" to="96" dur="0.559" begin="animate8.end + 0.5" id="animate9" fill="freeze"/></rect></clipPath></defs><path d="M 0 0 L 270 270 M 270 0 L 0 270 M 135 0 L 135 270 M 0 135 L 270 135" stroke="#CCCCCC" /><path d="M 99 28 Q 114 27 126 24 Q 137 21 147 17 Q 155 14 163 15 Q 170 17 172 20 Q 173 22 171 24 Q 169 25 126 35 Q 108 38 103 37" fill="#CCCCCC"/><path d="M 91 131 Q 89 71 88 56 Q 85 41 79 27 Q 77 22 79 21 Q 82 19 86 21 Q 93 23 99 28 L 103 37 Q 103 38 103 39 Q 102 44 102 62 L 102 69 Q 102 81 102 92 L 102 99 Q 102 113 102 129" fill="#CCCCCC"/><path d="M 102 62 Q 102 62 102 62 Q 113 61 122 59 Q 130 57 137 54 Q 144 52 152 53 Q 158 55 160 57 Q 162 59 159 61 Q 158 62 152 64 Q 137 66 123 70 Q 112 72 102 69" fill="#CCCCCC"/><path d="M 102 92 Q 113 91 123 89 Q 131 87 139 84 Q 146 81 154 83 Q 160 85 162 87 Q 163 89 161 91 Q 160 92 153 94 Q 137 97 122 100 Q 113 102 102 99" fill="#CCCCCC"/><path d="M 96 140 Q 88 141 82 143 L 67 146 Q 56 149 46 152 Q 36 155 26 147 Q 22 142 28 142 Q 61 136 91 131 L 102 129 Q 150 120 178 114 Q 194 109 210 120 Q 215 123 214 127 Q 212 129 207 129 Q 131 134 110 138" fill="#CCCCCC"/><path d="M 82 143 Q 84 144 85 145 Q 89 147 88 152 Q 86 158 85 214 Q 85 217 86 218 L 71 251 Q 67 255 64 253 Q 60 249 58 242 Q 56 237 59 233 Q 68 223 70 213 Q 74 202 74 185 Q 74 156 67 146" fill="#CCCCCC"/><path d="M 86 218 Q 87 219 90 217 Q 125 195 128 195 Q 130 194 129 196 Q 129 199 125 201 Q 84 235 71 251" fill="#CCCCCC"/><path d="M 164 147 L 163 140 Q 161 137 164 136 Q 167 135 173 138 Q 180 140 184 145 Q 187 149 182 152 Q 178 153 153 173 L 148 169" fill="#CCCCCC"/><path d="M 153 173 Q 160 179 167 183 Q 195 202 244 211 Q 247 211 246 214 Q 244 216 239 217 Q 228 221 199 226 Q 191 227 185 221 Q 154 194 115 153 Q 107 144 96 140 L 110 138 Q 132 156 148 169" fill="#CCCCCC"/><path d="M 99 28 Q 114 27 126 24 Q 137 21 147 17 Q 155 14 163 15 Q 170 17 172 20 Q 173 22 171 24 Q 169 25 126 35 Q 108 38 103 37" fill="#0000ff" clip-path="url(#clip-mask-1)" /><path d="M 91 131 Q 89 71 88 56 Q 85 41 79 27 Q 77 22 79 21 Q 82 19 86 21 Q 93 23 99 28 L 103 37 Q 103 38 103 39 Q 102 44 102 62 L 102 69 Q 102 81 102 92 L 102 99 Q 102 113 102 129" fill="#0000ff" clip-path="url(#clip-mask-2)" /><path d="M 102 62 Q 102 62 102 62 Q 113 61 122 59 Q 130 57 137 54 Q 144 52 152 53 Q 158 55 160 57 Q 162 59 159 61 Q 158 62 152 64 Q 137 66 123 70 Q 112 72 102 69" fill="#0000ff" clip-path="url(#clip-mask-3)" /><path d="M 102 92 Q 113 91 123 89 Q 131 87 139 84 Q 146 81 154 83 Q 160 85 162 87 Q 163 89 161 91 Q 160 92 153 94 Q 137 97 122 100 Q 113 102 102 99" fill="#0000ff" clip-path="url(#clip-mask-4)" /><path d="M 96 140 Q 88 141 82 143 L 67 146 Q 56 149 46 152 Q 36 155 26 147 Q 22 142 28 142 Q 61 136 91 131 L 102 129 Q 150 120 178 114 Q 194 109 210 120 Q 215 123 214 127 Q 212 129 207 129 Q 131 134 110 138" fill="#0000ff" clip-path="url(#clip-mask-5)" /><path d="M 82 143 Q 84 144 85 145 Q 89 147 88 152 Q 86 158 85 214 Q 85 217 86 218 L 71 251 Q 67 255 64 253 Q 60 249 58 242 Q 56 237 59 233 Q 68 223 70 213 Q 74 202 74 185 Q 74 156 67 146" fill="#0000ff" clip-path="url(#clip-mask-6)" /><path d="M 86 218 Q 87 219 90 217 Q 125 195 128 195 Q 130 194 129 196 Q 129 199 125 201 Q 84 235 71 251" fill="#0000ff" clip-path="url(#clip-mask-7)" /><path d="M 164 147 L 163 140 Q 161 137 164 136 Q 167 135 173 138 Q 180 140 184 145 Q 187 149 182 152 Q 178 153 153 173 L 148 169" fill="#0000ff" clip-path="url(#clip-mask-8)" /><path d="M 153 173 Q 160 179 167 183 Q 195 202 244 211 Q 247 211 246 214 Q 244 216 239 217 Q 228 221 199 226 Q 191 227 185 221 Q 154 194 115 153 Q 107 144 96 140 L 110 138 Q 132 156 148 169" fill="#0000ff" clip-path="url(#clip-mask-9)" /></svg>