<svg xmlns="http://www.w3.org/2000/svg" xmlns:xlink="http://www.w3.org/1999/xlink" width="270" height="270"><defs><clipPath id="clip-mask-1"><rect x="42" y="32" width="26" height="196"><animate attributeName="y" from="-164" to="32" dur="0.726" begin="0; animate23.end + 1" id="animate1" fill="freeze"/></rect></clipPath><clipPath id="clip-mask-2"><rect x="64" y="29" width="49" height="17"><set attributeName="x" to="15" begin="0; animate23.end + 1" /><animate attributeName="x" from="15" to="64" dur="0.181" begin="animate1.end + 0.5" id="animate2" fill="freeze"/></rect></clipPath><clipPath id="clip-mask-3"><rect x="91" y="38" width="25" height="62"><set attributeName="y" to="-24" begin="0; animate23.end + 1" /><animate attributeName="y" from="-24" to="38" dur="0.230" begin="animate2.end" id="animate3" fill="freeze"/></rect></clipPath><clipPath id="clip-mask-4"><rect x="66" y="62" width="27" height="12"><set attributeName="x" to="39" begin="0; animate23.end + 1" /><animate attributeName="x" from="39" to="66" dur="0.100" begin="animate3.end + 0.5" id="animate4" fill="freeze"/></rect></clipPath><clipPath id="clip-mask-5"><rect x="65" y="84" width="27" height="14"><set attributeName="x" to="38" begin="0; animate23.end + 1" /><animate attributeName="x" from="38" to="65" dur="0.100" begin="animate4.end + 0.5" id="animate5" fill="freeze"/></rect></clipPath><clipPath id="clip-mask-6"><rect x="148" y="20" width="19" height="69"><set attributeName="y" to="-49" begin="0; animate23.end + 1" /><animate attributeName="y" from="-49" to="20" dur="0.256" begin="animate5.end + 0.5" id="animate6" fill="freeze"/></rect></clipPath><clipPath id="clip-mask-7"><rect x="161" y="14" width="63" height="20"><set attributeName="x" to="98" begin="0; animate23.end + 1" /><animate attributeName="x" from="98" to="161" dur="0.233" begin="animate6.end + 0.5" id="animate7" fill="freeze"/></rect></clipPath><clipPath id="clip-mask-8"><rect x="202" y="26" width="25" height="229"><set attributeName="y" to="-203" begin="0; animate23.end + 1" /><animate attributeName="y" from="-203" to="26" dur="0.848" begin="animate7.end" id="animate8" fill="freeze"/></rect></clipPath><clipPath id="clip-mask-9"><rect x="179" y="223" width="25" height="24"><set attributeName="x" to="204" begin="0; animate23.end + 1" /><animate attributeName="x" from="204" to="179" dur="0.093" begin="animate8.end" id="animate9" fill="freeze"/></rect></clipPath><clipPath id="clip-mask-10"><rect x="166" y="45" width="29" height="12"><set attributeName="x" to="137" begin="0; animate23.end + 1" /><animate attributeName="x" from="137" to="166" dur="0.107" begin="animate9.end + 0.5" id="animate10" fill="freeze"/></rect></clipPath><clipPath id="clip-mask-11"><rect x="166" y="68" width="41" height="13"><set attributeName="x" to="125" begin="0; animate23.end + 1" /><animate attributeName="x" from="125" to="166" dur="0.152" begin="animate10.end + 0.5" id="animate11" fill="freeze"/></rect></clipPath><clipPath id="clip-mask-12"><rect x="111" y="99" width="55" height="18"><set attributeName="x" to="56" begin="0; animate23.end + 1" /><animate attributeName="x" from="56" to="111" dur="0.204" begin="animate11.end + 0.5" id="animate12" fill="freeze"/></rect></clipPath><clipPath id="clip-mask-13"><rect x="95" y="104" width="18" height="70"><set attributeName="y" to="34" begin="0; animate23.end + 1" /><animate attributeName="y" from="34" to="104" dur="0.259" begin="animate12.end + 0.5" id="animate13" fill="freeze"/></rect></clipPath><clipPath id="clip-mask-14"><rect x="116" y="121" width="44" height="12"><set attributeName="x" to="72" begin="0; animate23.end + 1" /><animate attributeName="x" from="72" to="116" dur="0.163" begin="animate13.end + 0.5" id="animate14" fill="freeze"/></rect></clipPath><clipPath id="clip-mask-15"><rect x="114" y="139" width="47" height="12"><set attributeName="x" to="67" begin="0; animate23.end + 1" /><animate attributeName="x" from="67" to="114" dur="0.174" begin="animate14.end + 0.5" id="animate15" fill="freeze"/></rect></clipPath><clipPath id="clip-mask-16"><rect x="131" y="113" width="14" height="47"><set attributeName="y" to="66" begin="0; animate23.end + 1" /><animate attributeName="y" from="66" to="113" dur="0.174" begin="animate15.end + 0.5" id="animate16" fill="freeze"/></rect></clipPath><clipPath id="clip-mask-17"><rect x="107" y="153" width="80" height="20"><set attributeName="x" to="27" begin="0; animate23.end + 1" /><animate attributeName="x" from="27" to="107" dur="0.296" begin="animate16.end + 0.5" id="animate17" fill="freeze"/></rect></clipPath><clipPath id="clip-mask-18"><rect x="159" y="163" width="28" height="66"><set attributeName="y" to="97" begin="0; animate23.end + 1" /><animate attributeName="y" from="97" to="163" dur="0.244" begin="animate17.end" id="animate18" fill="freeze"/></rect></clipPath><clipPath id="clip-mask-19"><rect x="141" y="203" width="22" height="26"><set attributeName="x" to="163" begin="0; animate23.end + 1" /><animate attributeName="x" from="163" to="141" dur="0.081" begin="animate18.end" id="animate19" fill="freeze"/></rect></clipPath><clipPath id="clip-mask-20"><rect x="74" y="178" width="18" height="40"><set attributeName="y" to="138" begin="0; animate23.end + 1" /><animate attributeName="y" from="138" to="178" dur="0.148" begin="animate19.end + 0.5" id="animate20" fill="freeze"/></rect></clipPath><clipPath id="clip-mask-21"><rect x="102" y="182" width="13" height="24"><set attributeName="y" to="158" begin="0; animate23.end + 1" /><animate attributeName="y" from="158" to="182" dur="0.089" begin="animate20.end + 0.5" id="animate21" fill="freeze"/></rect></clipPath><clipPath id="clip-mask-22"><rect x="123" y="178" width="13" height="20"><set attributeName="y" to="158" begin="0; animate23.end + 1" /><animate attributeName="y" from="158" to="178" dur="0.074" begin="animate21.end + 0.5" id="animate22" fill="freeze"/></rect></clipPath><clipPath id="clip-mask-23"><rect x="143" y="174" width="15" height="19"><set attributeName="y" to="155" begin="0; animate23.end + 1" /><animate attributeName="y" from="155" to="174" dur="0.070" begin="animate22.end + 0.5" id="animate23" fill="freeze"/></rect></clipPath></defs><path d="M 0 0 L 270 270 M 270 0 L 0 270 M 135 0 L 135 270 M 0 135 L 270 135" stroke="#CCCCCC" /><path d="M 65 109 L 65 123 Q 64 148 64 173 Q 63 214 54 224 Q 52 228 49 224 Q 45 221 43 211 Q 42 206 44 199 Q 57 159 56 79 Q 56 59 48 39 Q 46 36 47 35 Q 49 32 51 33 Q 58 35 64 40 L 68 46 Q 68 47 68 48 Q 67 54 66 67 L 66 74 Q 65 81 65 91 L 65 98" fill="#CCCCCC"/><path d="M 95 41 Q 94 40 93 40 Q 92 40 68 46 L 64 40 Q 81 36 95 31 Q 99 29 102 31 Q 109 35 113 38" fill="#CCCCCC"/><path d="M 92 85 Q 93 83 97 48 Q 97 42 95 41 L 113 38 Q 116 42 114 46 Q 108 53 107 73 Q 104 90 101 94 Q 96 100 91 93" fill="#CCCCCC"/><path d="M 66 67 Q 74 62 82 62 Q 88 62 91 65 Q 93 68 88 69 Q 78 71 66 74" fill="#CCCCCC"/><path d="M 65 91 Q 81 84 90 85 Q 91 85 92 85 L 91 93 Q 80 95 65 97 Q 65 97 65 98" fill="#CCCCCC"/><path d="M 166 82 L 166 82 Q 165 89 162 88 Q 154 82 154 66 Q 155 37 149 25 Q 148 22 150 21 Q 151 20 152 21 Q 157 22 161 26 L 167 34 Q 167 34 167 35 Q 166 42 166 51 L 166 57 Q 166 66 167 74 L 166 81" fill="#CCCCCC"/><path d="M 202 31 Q 200 28 195 29 Q 183 31 171 33 Q 169 34 167 34 L 161 26 Q 184 23 199 16 Q 203 14 208 16 Q 218 20 224 26" fill="#CCCCCC"/><path d="M 207 72 Q 206 60 206 48 Q 206 35 202 31 L 224 26 Q 227 29 224 34 Q 220 41 220 57 Q 221 160 225 224 Q 225 237 214 252 Q 212 255 210 254 Q 205 252 202 247 L 204 226 Q 211 213 207 79" fill="#CCCCCC"/><path d="M 202 247 Q 194 238 179 225 Q 179 223 185 224 Q 202 227 204 226" fill="#CCCCCC"/><path d="M 166 51 Q 177 45 185 46 Q 191 47 193 50 Q 195 53 190 54 Q 179 55 166 57" fill="#CCCCCC"/><path d="M 167 74 Q 194 68 202 70 Q 205 71 207 72 L 207 79 Q 190 80 168 81 Q 167 81 166 81" fill="#CCCCCC"/><path d="M 131 115 Q 118 117 113 116 L 111 111 Q 111 110 111 110 Q 122 109 132 107 Q 140 104 148 102 Q 153 99 159 100 Q 164 102 165 104 Q 166 105 165 107 Q 164 107 141 113" fill="#CCCCCC"/><path d="M 113 116 Q 111 118 111 121 Q 107 145 108 160 L 107 173 Q 104 174 103 174 Q 101 174 99 172 Q 95 168 96 166 Q 98 163 99 148 Q 102 118 97 109 Q 95 108 96 106 Q 97 104 99 104 Q 105 105 111 111" fill="#CCCCCC"/><path d="M 132 133 Q 121 133 120 133 Q 116 130 119 129 Q 125 128 132 126 L 143 123 Q 149 121 152 121 Q 157 122 159 125 Q 160 127 156 128 Q 149 129 142 131" fill="#CCCCCC"/><path d="M 149 139 L 153 139 Q 158 140 160 142 Q 161 145 157 146 Q 149 147 141 148 L 132 150 Q 118 151 118 151 Q 114 148 117 147 Q 124 145 132 143 L 141 141" fill="#CCCCCC"/><path d="M 141 148 Q 140 153 140 158 L 132 160 Q 132 154 132 150 L 132 143 Q 132 137 132 133 L 132 126 Q 132 118 131 115 L 141 113 Q 142 114 143 115 Q 145 116 143 120 Q 143 121 143 123 L 142 131 Q 142 135 141 141" fill="#CCCCCC"/><path d="M 108 160 Q 109 164 115 163 Q 122 161 132 160 L 140 158 Q 152 156 159 155 Q 163 155 167 154 Q 171 153 174 153 Q 175 154 181 157 Q 187 162 187 163 L 167 163 Q 163 161 151 163 Q 116 167 107 173" fill="#CCCCCC"/><path d="M 187 163 Q 187 164 186 166 Q 181 168 177 201 Q 173 217 168 223 Q 162 229 159 229 L 163 206 Q 165 201 167 190 Q 170 170 170 168 Q 170 165 167 163" fill="#CCCCCC"/><path d="M 159 229 Q 157 228 156 227 Q 156 222 144 208 Q 141 205 142 204 Q 143 203 146 205 Q 152 206 157 208 Q 160 209 163 206" fill="#CCCCCC"/><path d="M 83 179 L 84 178 Q 86 178 87 180 Q 90 184 90 190 Q 92 206 85 215 Q 81 218 79 215 Q 74 209 77 202 Q 80 192 82 181" fill="#CCCCCC"/><path d="M 102 185 L 102 184 Q 104 182 105 183 Q 114 190 115 198 Q 114 202 113 203 Q 111 206 109 204 Q 105 202 102 187" fill="#CCCCCC"/><path d="M 123 181 L 124 180 Q 125 178 127 179 Q 129 180 133 184 Q 136 187 136 190 Q 136 194 135 196 Q 132 198 130 197 Q 127 195 124 183" fill="#CCCCCC"/><path d="M 143 178 L 143 176 Q 143 174 144 174 Q 145 174 147 175 Q 158 182 158 186 Q 157 190 156 192 Q 154 193 153 193 Q 151 192 146 182" fill="#CCCCCC"/><path d="M 65 109 L 65 123 Q 64 148 64 173 Q 63 214 54 224 Q 52 228 49 224 Q 45 221 43 211 Q 42 206 44 199 Q 57 159 56 79 Q 56 59 48 39 Q 46 36 47 35 Q 49 32 51 33 Q 58 35 64 40 L 68 46 Q 68 47 68 48 Q 67 54 66 67 L 66 74 Q 65 81 65 91 L 65 98" fill="#0000ff" clip-path="url(#clip-mask-1)" /><path d="M 95 41 Q 94 40 93 40 Q 92 40 68 46 L 64 40 Q 81 36 95 31 Q 99 29 102 31 Q 109 35 113 38" fill="#0000ff" clip-path="url(#clip-mask-2)" /><path d="M 92 85 Q 93 83 97 48 Q 97 42 95 41 L 113 38 Q 116 42 114 46 Q 108 53 107 73 Q 104 90 101 94 Q 96 100 91 93" fill="#0000ff" clip-path="url(#clip-mask-3)" /><path d="M 66 67 Q 74 62 82 62 Q 88 62 91 65 Q 93 68 88 69 Q 78 71 66 74" fill="#0000ff" clip-path="url(#clip-mask-4)" /><path d="M 65 91 Q 81 84 90 85 Q 91 85 92 85 L 91 93 Q 80 95 65 97 Q 65 97 65 98" fill="#0000ff" clip-path="url(#clip-mask-5)" /><path d="M 166 82 L 166 82 Q 165 89 162 88 Q 154 82 154 66 Q 155 37 149 25 Q 148 22 150 21 Q 151 20 152 21 Q 157 22 161 26 L 167 34 Q 167 34 167 35 Q 166 42 166 51 L 166 57 Q 166 66 167 74 L 166 81" fill="#0000ff" clip-path="url(#clip-mask-6)" /><path d="M 202 31 Q 200 28 195 29 Q 183 31 171 33 Q 169 34 167 34 L 161 26 Q 184 23 199 16 Q 203 14 208 16 Q 218 20 224 26" fill="#0000ff" clip-path="url(#clip-mask-7)" /><path d="M 207 72 Q 206 60 206 48 Q 206 35 202 31 L 224 26 Q 227 29 224 34 Q 220 41 220 57 Q 221 160 225 224 Q 225 237 214 252 Q 212 255 210 254 Q 205 252 202 247 L 204 226 Q 211 213 207 79" fill="#0000ff" clip-path="url(#clip-mask-8)" /><path d="M 202 247 Q 194 238 179 225 Q 179 223 185 224 Q 202 227 204 226" fill="#0000ff" clip-path="url(#clip-mask-9)" /><path d="M 166 51 Q 177 45 185 46 Q 191 47 193 50 Q 195 53 190 54 Q 179 55 166 57" fill="#0000ff" clip-path="url(#clip-mask-10)" /><path d="M 167 74 Q 194 68 202 70 Q 205 71 207 72 L 207 79 Q 190 80 168 81 Q 167 81 166 81" fill="#0000ff" clip-path="url(#clip-mask-11)" /><path d="M 131 115 Q 118 117 113 116 L 111 111 Q 111 110 111 110 Q 122 109 132 107 Q 140 104 148 102 Q 153 99 159 100 Q 164 102 165 104 Q 166 105 165 107 Q 164 107 141 113" fill="#000080" clip-path="url(#clip-mask-12)" /><path d="M 113 116 Q 111 118 111 121 Q 107 145 108 160 L 107 173 Q 104 174 103 174 Q 101 174 99 172 Q 95 168 96 166 Q 98 163 99 148 Q 102 118 97 109 Q 95 108 96 106 Q 97 104 99 104 Q 105 105 111 111" fill="#000080" clip-path="url(#clip-mask-13)" /><path d="M 132 133 Q 121 133 120 133 Q 116 130 119 129 Q 125 128 132 126 L 143 123 Q 149 121 152 121 Q 157 122 159 125 Q 160 127 156 128 Q 149 129 142 131" fill="#000080" clip-path="url(#clip-mask-14)" /><path d="M 149 139 L 153 139 Q 158 140 160 142 Q 161 145 157 146 Q 149 147 141 148 L 132 150 Q 118 151 118 151 Q 114 148 117 147 Q 124 145 132 143 L 141 141" fill="#000080" clip-path="url(#clip-mask-15)" /><path d="M 141 148 Q 140 153 140 158 L 132 160 Q 132 154 132 150 L 132 143 Q 132 137 132 133 L 132 126 Q 132 118 131 115 L 141 113 Q 142 114 143 115 Q 145 116 143 120 Q 143 121 143 123 L 142 131 Q 142 135 141 141" fill="#000080" clip-path="url(#clip-mask-16)" /><path d="M 108 160 Q 109 164 115 163 Q 122 161 132 160 L 140 158 Q 152 156 159 155 Q 163 155 167 154 Q 171 153 174 153 Q 175 154 181 157 Q 187 162 187 163 L 167 163 Q 163 161 151 163 Q 116 167 107 173" fill="#000080" clip-path="url(#clip-mask-17)" /><path d="M 187 163 Q 187 164 186 166 Q 181 168 177 201 Q 173 217 168 223 Q 162 229 159 229 L 163 206 Q 165 201 167 190 Q 170 170 170 168 Q 170 165 167 163" fill="#000080" clip-path="url(#clip-mask-18)" /><path d="M 159 229 Q 157 228 156 227 Q 156 222 144 208 Q 141 205 142 204 Q 143 203 146 205 Q 152 206 157 208 Q 160 209 163 206" fill="#000080" clip-path="url(#clip-mask-19)" /><path d="M 83 179 L 84 178 Q 86 178 87 180 Q 90 184 90 190 Q 92 206 85 215 Q 81 218 79 215 Q 74 209 77 202 Q 80 192 82 181" fill="#000080" clip-path="url(#clip-mask-20)" /><path d="M 102 185 L 102 184 Q 104 182 105 183 Q 114 190 115 198 Q 114 202 113 203 Q 111 206 109 204 Q 105 202 102 187" fill="#000080" clip-path="url(#clip-mask-21)" /><path d="M 123 181 L 124 180 Q 125 178 127 179 Q 129 180 133 184 Q 136 187 136 190 Q 136 194 135 196 Q 132 198 130 197 Q 127 195 124 183" fill="#000080" clip-path="url(#clip-mask-22)" /><path d="M 143 178 L 143 176 Q 143 174 144 174 Q 145 174 147 175 Q 158 182 158 186 Q 157 190 156 192 Q 154 193 153 193 Q 151 192 146 182" fill="#000080" clip-path="url(#clip-mask-23)" /></svg>