<svg xmlns="http://www.w3.org/2000/svg" xmlns:xlink="http://www.w3.org/1999/xlink" width="270" height="270"><defs><clipPath id="clip-mask-1"><rect x="46" y="33" width="56" height="23"><animate attributeName="x" from="-10" to="46" dur="0.207" begin="0; animate14.end + 1" id="animate1" fill="freeze"/></rect></clipPath><clipPath id="clip-mask-2"><rect x="69" y="46" width="35" height="35"><set attributeName="y" to="11" begin="0; animate14.end + 1" /><animate attributeName="y" from="11" to="46" dur="0.130" begin="animate1.end" id="animate2" fill="freeze"/></rect></clipPath><clipPath id="clip-mask-3"><rect x="70" y="81" width="31" height="55"><set attributeName="y" to="26" begin="0; animate14.end + 1" /><animate attributeName="y" from="26" to="81" dur="0.204" begin="animate2.end" id="animate3" fill="freeze"/></rect></clipPath><clipPath id="clip-mask-4"><rect x="58" y="113" width="30" height="20"><set attributeName="x" to="88" begin="0; animate14.end + 1" /><animate attributeName="x" from="88" to="58" dur="0.111" begin="animate3.end" id="animate4" fill="freeze"/></rect></clipPath><clipPath id="clip-mask-5"><rect x="26" y="41" width="24" height="195"><set attributeName="y" to="-154" begin="0; animate14.end + 1" /><animate attributeName="y" from="-154" to="41" dur="0.722" begin="animate4.end + 0.5" id="animate5" fill="freeze"/></rect></clipPath><clipPath id="clip-mask-6"><rect x="109" y="42" width="116" height="31"><set attributeName="x" to="-7" begin="0; animate14.end + 1" /><animate attributeName="x" from="-7" to="109" dur="0.430" begin="animate5.end + 0.5" id="animate6" fill="freeze"/></rect></clipPath><clipPath id="clip-mask-7"><rect x="112" y="99" width="23" height="90"><set attributeName="y" to="9" begin="0; animate14.end + 1" /><animate attributeName="y" from="9" to="99" dur="0.333" begin="animate6.end + 0.5" id="animate7" fill="freeze"/></rect></clipPath><clipPath id="clip-mask-8"><rect x="127" y="88" width="100" height="26"><set attributeName="x" to="27" begin="0; animate14.end + 1" /><animate attributeName="x" from="27" to="127" dur="0.370" begin="animate7.end + 0.5" id="animate8" fill="freeze"/></rect></clipPath><clipPath id="clip-mask-9"><rect x="206" y="98" width="23" height="92"><set attributeName="y" to="6" begin="0; animate14.end + 1" /><animate attributeName="y" from="6" to="98" dur="0.341" begin="animate8.end" id="animate9" fill="freeze"/></rect></clipPath><clipPath id="clip-mask-10"><rect x="180" y="158" width="27" height="29"><set attributeName="x" to="207" begin="0; animate14.end + 1" /><animate attributeName="x" from="207" to="180" dur="0.100" begin="animate9.end" id="animate10" fill="freeze"/></rect></clipPath><clipPath id="clip-mask-11"><rect x="140" y="66" width="38" height="89"><set attributeName="y" to="-23" begin="0; animate14.end + 1" /><animate attributeName="y" from="-23" to="66" dur="0.330" begin="animate10.end + 0.5" id="animate11" fill="freeze"/></rect></clipPath><clipPath id="clip-mask-12"><rect x="165" y="119" width="33" height="31"><set attributeName="x" to="132" begin="0; animate14.end + 1" /><animate attributeName="x" from="132" to="165" dur="0.122" begin="animate11.end + 0.5" id="animate12" fill="freeze"/></rect></clipPath><clipPath id="clip-mask-13"><rect x="83" y="146" width="26" height="82"><set attributeName="y" to="64" begin="0; animate14.end + 1" /><animate attributeName="y" from="64" to="146" dur="0.304" begin="animate12.end + 0.5" id="animate13" fill="freeze"/></rect></clipPath><clipPath id="clip-mask-14"><rect x="98" y="196" width="145" height="28"><set attributeName="x" to="-47" begin="0; animate14.end + 1" /><animate attributeName="x" from="-47" to="98" dur="0.537" begin="animate13.end" id="animate14" fill="freeze"/></rect></clipPath></defs><path d="M 0 0 L 270 270 M 270 0 L 0 270 M 135 0 L 135 270 M 0 135 L 270 135" stroke="#CCCCCC" /><path d="M 67 46 L 80 36 Q 84 33 89 36 Q 98 41 102 46 L 79 51 Q 76 48 72 50 Q 61 55 50 56 L 46 49" fill="#CCCCCC"/><path d="M 102 46 Q 104 49 99 52 Q 92 56 80 74 Q 77 78 78 81 L 70 81 Q 69 79 71 75 Q 80 52 79 51" fill="#CCCCCC"/><path d="M 78 81 Q 79 84 83 88 Q 92 97 96 108 Q 101 118 99 124 Q 98 130 95 133 Q 91 136 88 133 L 82 114 Q 84 112 83 107 Q 80 100 70 81" fill="#CCCCCC"/><path d="M 88 133 Q 77 124 65 117 Q 58 113 64 113 Q 71 114 76 115 Q 81 116 82 114" fill="#CCCCCC"/><path d="M 50 56 Q 47 77 48 181 Q 48 221 39 232 Q 37 236 33 232 Q 30 228 27 219 Q 26 213 28 205 Q 32 193 34 181 Q 39 148 37 87 Q 37 67 29 48 Q 26 45 27 43 Q 29 41 32 41 Q 39 43 46 49" fill="#CCCCCC"/><path d="M 157 68 Q 149 69 142 70 Q 128 73 116 67 Q 109 62 119 61 Q 152 58 179 50 Q 207 42 213 43 Q 221 45 223 49 Q 225 51 222 53 Q 220 55 205 58 Q 184 62 165 66" fill="#CCCCCC"/><path d="M 134 114 Q 131 115 133 157 Q 135 175 134 180 Q 133 185 131 186 Q 131 189 128 186 Q 124 184 120 179 Q 118 174 119 168 Q 123 124 114 105 Q 112 102 114 101 Q 115 99 116 100 Q 121 100 127 105" fill="#CCCCCC"/><path d="M 158 108 Q 143 111 134 114 L 127 105 Q 138 104 152 101 Q 155 100 159 99 L 173 97 Q 179 95 187 94 Q 201 92 206 90 Q 210 88 215 90 Q 225 95 227 98 L 206 102 Q 200 99 171 105" fill="#CCCCCC"/><path d="M 227 98 Q 229 100 227 103 Q 224 107 224 144 Q 223 167 218 179 Q 215 187 212 189 Q 210 190 206 187 L 207 158 Q 211 128 211 111 Q 210 104 206 102" fill="#CCCCCC"/><path d="M 206 187 Q 199 178 188 170 Q 181 165 181 162 Q 180 160 184 160 Q 192 162 201 164 Q 207 164 207 158" fill="#CCCCCC"/><path d="M 164 128 L 162 131 Q 161 132 161 132 Q 149 152 142 154 Q 140 155 140 152 Q 141 151 142 149 Q 154 130 158 108 L 159 99 Q 160 92 160 84 Q 160 75 157 68 L 165 66 Q 166 66 166 66 Q 173 70 176 73 Q 178 76 176 79 Q 174 89 174 92 Q 173 94 173 97 L 171 105 Q 168 114 167 119 L 165 123" fill="#CCCCCC"/><path d="M 167 119 Q 172 120 180 124 Q 193 129 196 136 Q 198 144 196 146 Q 193 150 188 144 Q 176 132 165 123" fill="#CCCCCC"/><path d="M 104 170 L 103 199 L 98 224 Q 93 228 91 225 Q 87 221 85 216 Q 83 213 87 210 Q 95 196 93 171 Q 92 161 87 154 Q 85 150 86 148 Q 88 146 92 147 Q 99 150 105 155 Q 109 157 107 161" fill="#CCCCCC"/><path d="M 103 199 Q 102 203 105 205 Q 105 206 110 205 Q 161 198 205 198 Q 225 196 230 199 Q 240 206 241 209 Q 243 213 241 214 Q 238 216 232 214 Q 195 209 166 211 Q 117 214 98 224" fill="#CCCCCC"/><path d="M 67 46 L 80 36 Q 84 33 89 36 Q 98 41 102 46 L 79 51 Q 76 48 72 50 Q 61 55 50 56 L 46 49" fill="#0000ff" clip-path="url(#clip-mask-1)" /><path d="M 102 46 Q 104 49 99 52 Q 92 56 80 74 Q 77 78 78 81 L 70 81 Q 69 79 71 75 Q 80 52 79 51" fill="#0000ff" clip-path="url(#clip-mask-2)" /><path d="M 78 81 Q 79 84 83 88 Q 92 97 96 108 Q 101 118 99 124 Q 98 130 95 133 Q 91 136 88 133 L 82 114 Q 84 112 83 107 Q 80 100 70 81" fill="#0000ff" clip-path="url(#clip-mask-3)" /><path d="M 88 133 Q 77 124 65 117 Q 58 113 64 113 Q 71 114 76 115 Q 81 116 82 114" fill="#0000ff" clip-path="url(#clip-mask-4)" /><path d="M 50 56 Q 47 77 48 181 Q 48 221 39 232 Q 37 236 33 232 Q 30 228 27 219 Q 26 213 28 205 Q 32 193 34 181 Q 39 148 37 87 Q 37 67 29 48 Q 26 45 27 43 Q 29 41 32 41 Q 39 43 46 49" fill="#0000ff" clip-path="url(#clip-mask-5)" /><path d="M 157 68 Q 149 69 142 70 Q 128 73 116 67 Q 109 62 119 61 Q 152 58 179 50 Q 207 42 213 43 Q 221 45 223 49 Q 225 51 222 53 Q 220 55 205 58 Q 184 62 165 66" fill="#000080" clip-path="url(#clip-mask-6)" /><path d="M 134 114 Q 131 115 133 157 Q 135 175 134 180 Q 133 185 131 186 Q 131 189 128 186 Q 124 184 120 179 Q 118 174 119 168 Q 123 124 114 105 Q 112 102 114 101 Q 115 99 116 100 Q 121 100 127 105" fill="#000080" clip-path="url(#clip-mask-7)" /><path d="M 158 108 Q 143 111 134 114 L 127 105 Q 138 104 152 101 Q 155 100 159 99 L 173 97 Q 179 95 187 94 Q 201 92 206 90 Q 210 88 215 90 Q 225 95 227 98 L 206 102 Q 200 99 171 105" fill="#000080" clip-path="url(#clip-mask-8)" /><path d="M 227 98 Q 229 100 227 103 Q 224 107 224 144 Q 223 167 218 179 Q 215 187 212 189 Q 210 190 206 187 L 207 158 Q 211 128 211 111 Q 210 104 206 102" fill="#000080" clip-path="url(#clip-mask-9)" /><path d="M 206 187 Q 199 178 188 170 Q 181 165 181 162 Q 180 160 184 160 Q 192 162 201 164 Q 207 164 207 158" fill="#000080" clip-path="url(#clip-mask-10)" /><path d="M 164 128 L 162 131 Q 161 132 161 132 Q 149 152 142 154 Q 140 155 140 152 Q 141 151 142 149 Q 154 130 158 108 L 159 99 Q 160 92 160 84 Q 160 75 157 68 L 165 66 Q 166 66 166 66 Q 173 70 176 73 Q 178 76 176 79 Q 174 89 174 92 Q 173 94 173 97 L 171 105 Q 168 114 167 119 L 165 123" fill="#000080" clip-path="url(#clip-mask-11)" /><path d="M 167 119 Q 172 120 180 124 Q 193 129 196 136 Q 198 144 196 146 Q 193 150 188 144 Q 176 132 165 123" fill="#000080" clip-path="url(#clip-mask-12)" /><path d="M 104 170 L 103 199 L 98 224 Q 93 228 91 225 Q 87 221 85 216 Q 83 213 87 210 Q 95 196 93 171 Q 92 161 87 154 Q 85 150 86 148 Q 88 146 92 147 Q 99 150 105 155 Q 109 157 107 161" fill="#000080" clip-path="url(#clip-mask-13)" /><path d="M 103 199 Q 102 203 105 205 Q 105 206 110 205 Q 161 198 205 198 Q 225 196 230 199 Q 240 206 241 209 Q 243 213 241 214 Q 238 216 232 214 Q 195 209 166 211 Q 117 214 98 224" fill="#000080" clip-path="url(#clip-mask-14)" /></svg>