<svg xmlns="http://www.w3.org/2000/svg" xmlns:xlink="http://www.w3.org/1999/xlink" width="270" height="270"><defs><clipPath id="clip-mask-1"><rect x="42" y="48" width="54" height="23"><animate attributeName="x" from="-12" to="42" dur="0.200" begin="0; animate15.end + 1" id="animate1" fill="freeze"/></rect></clipPath><clipPath id="clip-mask-2"><rect x="60" y="65" width="31" height="25"><set attributeName="y" to="40" begin="0; animate15.end + 1" /><animate attributeName="y" from="40" to="65" dur="0.093" begin="animate1.end" id="animate2" fill="freeze"/></rect></clipPath><clipPath id="clip-mask-3"><rect x="56" y="90" width="30" height="61"><set attributeName="y" to="29" begin="0; animate15.end + 1" /><animate attributeName="y" from="29" to="90" dur="0.226" begin="animate2.end + 0.5" id="animate3" fill="freeze"/></rect></clipPath><clipPath id="clip-mask-4"><rect x="46" y="128" width="26" height="20"><set attributeName="x" to="72" begin="0; animate15.end + 1" /><animate attributeName="x" from="72" to="46" dur="0.096" begin="animate3.end" id="animate4" fill="freeze"/></rect></clipPath><clipPath id="clip-mask-5"><rect x="21" y="56" width="25" height="186"><set attributeName="y" to="-130" begin="0; animate15.end + 1" /><animate attributeName="y" from="-130" to="56" dur="0.689" begin="animate4.end + 0.5" id="animate5" fill="freeze"/></rect></clipPath><clipPath id="clip-mask-6"><rect x="84" y="21" width="74" height="99"><set attributeName="y" to="-78" begin="0; animate15.end + 1" /><animate attributeName="y" from="-78" to="21" dur="0.367" begin="animate5.end + 0.5" id="animate6" fill="freeze"/></rect></clipPath><clipPath id="clip-mask-7"><rect x="147" y="45" width="101" height="62"><set attributeName="x" to="46" begin="0; animate15.end + 1" /><animate attributeName="x" from="46" to="147" dur="0.374" begin="animate6.end + 0.5" id="animate7" fill="freeze"/></rect></clipPath><clipPath id="clip-mask-8"><rect x="132" y="78" width="27" height="21"><set attributeName="x" to="105" begin="0; animate15.end + 1" /><animate attributeName="x" from="105" to="132" dur="0.100" begin="animate7.end + 0.5" id="animate8" fill="freeze"/></rect></clipPath><clipPath id="clip-mask-9"><rect x="105" y="101" width="81" height="28"><set attributeName="x" to="24" begin="0; animate15.end + 1" /><animate attributeName="x" from="24" to="105" dur="0.300" begin="animate8.end + 0.5" id="animate9" fill="freeze"/></rect></clipPath><clipPath id="clip-mask-10"><rect x="140" y="116" width="46" height="32"><set attributeName="y" to="84" begin="0; animate15.end + 1" /><animate attributeName="y" from="84" to="116" dur="0.119" begin="animate9.end" id="animate10" fill="freeze"/></rect></clipPath><clipPath id="clip-mask-11"><rect x="102" y="139" width="81" height="24"><set attributeName="x" to="21" begin="0; animate15.end + 1" /><animate attributeName="x" from="21" to="102" dur="0.300" begin="animate10.end + 0.5" id="animate11" fill="freeze"/></rect></clipPath><clipPath id="clip-mask-12"><rect x="72" y="162" width="153" height="34"><set attributeName="x" to="-81" begin="0; animate15.end + 1" /><animate attributeName="x" from="-81" to="72" dur="0.567" begin="animate11.end + 0.5" id="animate12" fill="freeze"/></rect></clipPath><clipPath id="clip-mask-13"><rect x="88" y="185" width="58" height="63"><set attributeName="y" to="122" begin="0; animate15.end + 1" /><animate attributeName="y" from="122" to="185" dur="0.233" begin="animate12.end + 0.5" id="animate13" fill="freeze"/></rect></clipPath><clipPath id="clip-mask-14"><rect x="102" y="210" width="77" height="37"><set attributeName="x" to="25" begin="0; animate15.end + 1" /><animate attributeName="x" from="25" to="102" dur="0.285" begin="animate13.end" id="animate14" fill="freeze"/></rect></clipPath><clipPath id="clip-mask-15"><rect x="166" y="191" width="42" height="54"><set attributeName="y" to="137" begin="0; animate15.end + 1" /><animate attributeName="y" from="137" to="191" dur="0.200" begin="animate14.end + 0.5" id="animate15" fill="freeze"/></rect></clipPath></defs><path d="M 0 0 L 270 270 M 270 0 L 0 270 M 135 0 L 135 270 M 0 135 L 270 135" stroke="#CCCCCC" /><path d="M 60 60 L 73 51 Q 77 48 82 50 Q 90 55 94 60 Q 96 64 91 67 L 72 65 Q 70 62 65 65 Q 55 69 46 71 L 42 64" fill="#CCCCCC"/><path d="M 91 67 Q 84 71 69 90 L 60 90 Q 65 80 71 71 Q 73 67 72 65" fill="#CCCCCC"/><path d="M 69 90 Q 65 94 71 103 Q 80 113 83 124 Q 86 134 85 140 Q 82 146 79 148 Q 76 151 72 148 L 69 128 Q 73 123 60 101 Q 56 95 60 90" fill="#CCCCCC"/><path d="M 72 148 Q 63 139 52 132 Q 46 128 51 128 Q 57 129 63 130 Q 67 130 69 128" fill="#CCCCCC"/><path d="M 46 71 Q 44 85 44 167 Q 44 227 35 237 Q 32 242 29 238 Q 26 234 23 224 Q 21 218 24 211 Q 35 174 32 99 Q 32 80 24 63 Q 22 60 23 58 Q 25 56 27 56 Q 35 59 42 64" fill="#CCCCCC"/><path d="M 144 54 L 139 63 Q 102 117 88 119 Q 84 120 85 117 Q 86 116 88 113 Q 104 94 116 76 Q 128 59 135 39 Q 138 33 135 26 Q 133 21 137 21 Q 142 21 149 25 Q 155 31 156 34 Q 158 37 155 40 Q 153 42 151 45 L 147 50" fill="#CCCCCC"/><path d="M 151 45 Q 169 60 187 73 Q 207 86 244 96 Q 248 98 248 99 Q 247 100 245 101 Q 237 103 211 106 Q 203 107 198 102 Q 169 75 147 50" fill="#CCCCCC"/><path d="M 134 85 L 133 82 Q 132 79 133 78 Q 135 78 138 78 Q 154 80 156 86 Q 159 92 157 96 Q 156 99 154 99 Q 150 99 140 89" fill="#CCCCCC"/><path d="M 161 117 Q 158 109 123 125 Q 114 129 109 125 Q 105 120 110 120 Q 142 112 160 102 Q 164 101 169 104 Q 174 107 179 110 Q 186 113 185 116" fill="#CCCCCC"/><path d="M 161 119 L 161 118 L 161 117 L 185 116 Q 186 119 182 120 Q 170 126 148 146 L 140 148" fill="#CCCCCC"/><path d="M 148 146 Q 149 146 149 146 Q 168 139 178 143 Q 183 146 183 148 Q 181 151 178 151 Q 145 156 121 161 Q 115 163 107 157 Q 102 154 108 153 Q 135 148 140 148" fill="#CCCCCC"/><path d="M 123 187 Q 107 190 92 195 Q 88 196 83 195 Q 79 194 76 190 Q 72 186 77 186 Q 175 170 200 164 Q 208 162 221 171 Q 225 174 224 176 Q 223 179 218 179 Q 204 179 201 179 Q 145 181 135 185" fill="#CCCCCC"/><path d="M 102 247 Q 99 248 97 247 Q 93 246 90 241 Q 88 236 88 231 Q 88 228 96 225 Q 104 222 108 217 Q 123 203 123 187 L 135 185 Q 142 187 144 190 Q 146 193 142 196 Q 136 201 118 221 Q 117 222 118 222" fill="#CCCCCC"/><path d="M 124 230 L 102 247 L 118 222 Q 118 222 175 210 L 179 216" fill="#CCCCCC"/><path d="M 175 210 Q 166 197 167 194 Q 168 191 171 193 Q 206 213 207 227 Q 208 240 204 243 Q 202 245 200 244 Q 196 242 192 236 Q 185 224 179 216" fill="#CCCCCC"/><path d="M 60 60 L 73 51 Q 77 48 82 50 Q 90 55 94 60 Q 96 64 91 67 L 72 65 Q 70 62 65 65 Q 55 69 46 71 L 42 64" fill="#0000ff" clip-path="url(#clip-mask-1)" /><path d="M 91 67 Q 84 71 69 90 L 60 90 Q 65 80 71 71 Q 73 67 72 65" fill="#0000ff" clip-path="url(#clip-mask-2)" /><path d="M 69 90 Q 65 94 71 103 Q 80 113 83 124 Q 86 134 85 140 Q 82 146 79 148 Q 76 151 72 148 L 69 128 Q 73 123 60 101 Q 56 95 60 90" fill="#0000ff" clip-path="url(#clip-mask-3)" /><path d="M 72 148 Q 63 139 52 132 Q 46 128 51 128 Q 57 129 63 130 Q 67 130 69 128" fill="#0000ff" clip-path="url(#clip-mask-4)" /><path d="M 46 71 Q 44 85 44 167 Q 44 227 35 237 Q 32 242 29 238 Q 26 234 23 224 Q 21 218 24 211 Q 35 174 32 99 Q 32 80 24 63 Q 22 60 23 58 Q 25 56 27 56 Q 35 59 42 64" fill="#0000ff" clip-path="url(#clip-mask-5)" /><path d="M 144 54 L 139 63 Q 102 117 88 119 Q 84 120 85 117 Q 86 116 88 113 Q 104 94 116 76 Q 128 59 135 39 Q 138 33 135 26 Q 133 21 137 21 Q 142 21 149 25 Q 155 31 156 34 Q 158 37 155 40 Q 153 42 151 45 L 147 50" fill="#000080" clip-path="url(#clip-mask-6)" /><path d="M 151 45 Q 169 60 187 73 Q 207 86 244 96 Q 248 98 248 99 Q 247 100 245 101 Q 237 103 211 106 Q 203 107 198 102 Q 169 75 147 50" fill="#000080" clip-path="url(#clip-mask-7)" /><path d="M 134 85 L 133 82 Q 132 79 133 78 Q 135 78 138 78 Q 154 80 156 86 Q 159 92 157 96 Q 156 99 154 99 Q 150 99 140 89" fill="#000080" clip-path="url(#clip-mask-8)" /><path d="M 161 117 Q 158 109 123 125 Q 114 129 109 125 Q 105 120 110 120 Q 142 112 160 102 Q 164 101 169 104 Q 174 107 179 110 Q 186 113 185 116" fill="#000080" clip-path="url(#clip-mask-9)" /><path d="M 161 119 L 161 118 L 161 117 L 185 116 Q 186 119 182 120 Q 170 126 148 146 L 140 148" fill="#000080" clip-path="url(#clip-mask-10)" /><path d="M 148 146 Q 149 146 149 146 Q 168 139 178 143 Q 183 146 183 148 Q 181 151 178 151 Q 145 156 121 161 Q 115 163 107 157 Q 102 154 108 153 Q 135 148 140 148" fill="#000080" clip-path="url(#clip-mask-11)" /><path d="M 123 187 Q 107 190 92 195 Q 88 196 83 195 Q 79 194 76 190 Q 72 186 77 186 Q 175 170 200 164 Q 208 162 221 171 Q 225 174 224 176 Q 223 179 218 179 Q 204 179 201 179 Q 145 181 135 185" fill="#000080" clip-path="url(#clip-mask-12)" /><path d="M 102 247 Q 99 248 97 247 Q 93 246 90 241 Q 88 236 88 231 Q 88 228 96 225 Q 104 222 108 217 Q 123 203 123 187 L 135 185 Q 142 187 144 190 Q 146 193 142 196 Q 136 201 118 221 Q 117 222 118 222" fill="#000080" clip-path="url(#clip-mask-13)" /><path d="M 124 230 L 102 247 L 118 222 Q 118 222 175 210 L 179 216" fill="#000080" clip-path="url(#clip-mask-14)" /><path d="M 175 210 Q 166 197 167 194 Q 168 191 171 193 Q 206 213 207 227 Q 208 240 204 243 Q 202 245 200 244 Q 196 242 192 236 Q 185 224 179 216" fill="#000080" clip-path="url(#clip-mask-15)" /></svg>