<svg xmlns="http://www.w3.org/2000/svg" xmlns:xlink="http://www.w3.org/1999/xlink" width="270" height="270"><defs><clipPath id="clip-mask-1"><rect x="46" y="36" width="50" height="24"><animate attributeName="x" from="-4" to="46" dur="0.185" begin="0; animate17.end + 1" id="animate1" fill="freeze"/></rect></clipPath><clipPath id="clip-mask-2"><rect x="63" y="53" width="28" height="33"><set attributeName="y" to="20" begin="0; animate17.end + 1" /><animate attributeName="y" from="20" to="53" dur="0.122" begin="animate1.end" id="animate2" fill="freeze"/></rect></clipPath><clipPath id="clip-mask-3"><rect x="65" y="86" width="25" height="50"><set attributeName="y" to="36" begin="0; animate17.end + 1" /><animate attributeName="y" from="36" to="86" dur="0.185" begin="animate2.end + 0.5" id="animate3" fill="freeze"/></rect></clipPath><clipPath id="clip-mask-4"><rect x="46" y="113" width="30" height="19"><set attributeName="x" to="76" begin="0; animate17.end + 1" /><animate attributeName="x" from="76" to="46" dur="0.111" begin="animate3.end" id="animate4" fill="freeze"/></rect></clipPath><clipPath id="clip-mask-5"><rect x="26" y="45" width="24" height="191"><set attributeName="y" to="-146" begin="0; animate17.end + 1" /><animate attributeName="y" from="-146" to="45" dur="0.707" begin="animate4.end + 0.5" id="animate5" fill="freeze"/></rect></clipPath><clipPath id="clip-mask-6"><rect x="115" y="27" width="22" height="74"><set attributeName="y" to="-47" begin="0; animate17.end + 1" /><animate attributeName="y" from="-47" to="27" dur="0.274" begin="animate5.end + 0.5" id="animate6" fill="freeze"/></rect></clipPath><clipPath id="clip-mask-7"><rect x="129" y="19" width="69" height="21"><set attributeName="x" to="60" begin="0; animate17.end + 1" /><animate attributeName="x" from="60" to="129" dur="0.256" begin="animate6.end + 0.5" id="animate7" fill="freeze"/></rect></clipPath><clipPath id="clip-mask-8"><rect x="164" y="32" width="37" height="69"><set attributeName="y" to="-37" begin="0; animate17.end + 1" /><animate attributeName="y" from="-37" to="32" dur="0.256" begin="animate7.end" id="animate8" fill="freeze"/></rect></clipPath><clipPath id="clip-mask-9"><rect x="134" y="52" width="32" height="14"><set attributeName="x" to="102" begin="0; animate17.end + 1" /><animate attributeName="x" from="102" to="134" dur="0.119" begin="animate8.end + 0.5" id="animate9" fill="freeze"/></rect></clipPath><clipPath id="clip-mask-10"><rect x="137" y="80" width="31" height="13"><set attributeName="x" to="106" begin="0; animate17.end + 1" /><animate attributeName="x" from="106" to="137" dur="0.115" begin="animate9.end + 0.5" id="animate10" fill="freeze"/></rect></clipPath><clipPath id="clip-mask-11"><rect x="92" y="99" width="151" height="32"><set attributeName="x" to="-59" begin="0; animate17.end + 1" /><animate attributeName="x" from="-59" to="92" dur="0.559" begin="animate10.end + 0.5" id="animate11" fill="freeze"/></rect></clipPath><clipPath id="clip-mask-12"><rect x="76" y="127" width="57" height="48"><set attributeName="y" to="79" begin="0; animate17.end + 1" /><animate attributeName="y" from="79" to="127" dur="0.178" begin="animate11.end + 0.5" id="animate12" fill="freeze"/></rect></clipPath><clipPath id="clip-mask-13"><rect x="118" y="131" width="109" height="25"><set attributeName="x" to="9" begin="0; animate17.end + 1" /><animate attributeName="x" from="9" to="118" dur="0.404" begin="animate12.end + 0.5" id="animate13" fill="freeze"/></rect></clipPath><clipPath id="clip-mask-14"><rect x="180" y="148" width="43" height="97"><set attributeName="y" to="51" begin="0; animate17.end + 1" /><animate attributeName="y" from="51" to="148" dur="0.359" begin="animate13.end" id="animate14" fill="freeze"/></rect></clipPath><clipPath id="clip-mask-15"><rect x="148" y="217" width="33" height="33"><set attributeName="x" to="181" begin="0; animate17.end + 1" /><animate attributeName="x" from="181" to="148" dur="0.122" begin="animate14.end" id="animate15" fill="freeze"/></rect></clipPath><clipPath id="clip-mask-16"><rect x="86" y="156" width="57" height="49"><set attributeName="y" to="107" begin="0; animate17.end + 1" /><animate attributeName="y" from="107" to="156" dur="0.181" begin="animate15.end + 0.5" id="animate16" fill="freeze"/></rect></clipPath><clipPath id="clip-mask-17"><rect x="89" y="149" width="93" height="88"><set attributeName="y" to="61" begin="0; animate17.end + 1" /><animate attributeName="y" from="61" to="149" dur="0.326" begin="animate16.end + 0.5" id="animate17" fill="freeze"/></rect></clipPath></defs><path d="M 0 0 L 270 270 M 270 0 L 0 270 M 135 0 L 135 270 M 0 135 L 270 135" stroke="#CCCCCC" /><path d="M 61 48 L 72 39 Q 75 36 80 38 Q 90 43 93 47 Q 96 50 91 53 L 72 54 Q 69 52 66 54 Q 58 58 50 60 L 46 53" fill="#CCCCCC"/><path d="M 91 53 Q 85 58 74 75 Q 70 80 76 86 L 65 86 Q 64 85 63 83 Q 68 68 72 54" fill="#CCCCCC"/><path d="M 76 86 Q 84 98 87 109 Q 90 119 89 125 Q 86 130 83 133 Q 80 136 76 132 L 73 113 Q 75 111 74 107 Q 72 100 65 86" fill="#CCCCCC"/><path d="M 76 132 Q 65 124 53 117 Q 46 114 52 114 Q 60 114 66 115 Q 72 116 73 113" fill="#CCCCCC"/><path d="M 50 60 Q 47 85 48 181 Q 48 221 39 231 Q 36 236 33 232 Q 30 228 27 218 Q 26 213 28 205 Q 35 181 36 158 Q 36 156 36 154 Q 40 77 28 52 Q 26 49 27 47 Q 29 45 32 45 Q 40 48 46 53" fill="#CCCCCC"/><path d="M 137 93 L 137 94 Q 137 101 133 100 Q 125 95 125 79 Q 124 45 116 31 Q 115 29 116 28 Q 118 27 119 27 Q 125 28 129 32 L 134 40 Q 134 48 134 59 L 135 66 Q 136 73 136 79 Q 137 83 137 87 L 137 93" fill="#CCCCCC"/><path d="M 129 32 Q 179 19 183 21 Q 194 27 198 32 L 174 33 Q 171 32 167 33 Q 146 37 134 40" fill="#CCCCCC"/><path d="M 198 32 Q 201 35 198 38 Q 192 45 190 52 Q 184 88 181 95 Q 177 101 174 99 Q 170 97 164 89 L 168 83 Q 172 79 177 41 Q 178 36 174 33" fill="#CCCCCC"/><path d="M 134 59 Q 146 52 155 53 Q 161 54 164 57 Q 166 60 161 61 Q 150 63 135 66" fill="#CCCCCC"/><path d="M 137 87 Q 153 80 162 81 Q 166 81 168 83 L 164 89 Q 152 91 137 93" fill="#CCCCCC"/><path d="M 115 130 Q 113 130 113 130 Q 109 131 104 130 Q 99 129 96 125 Q 92 121 97 120 Q 188 107 217 101 Q 226 99 240 108 Q 243 112 242 114 Q 241 116 235 116 Q 161 117 124 127" fill="#CCCCCC"/><path d="M 118 150 Q 115 153 114 155 Q 92 175 80 174 Q 76 174 79 172 Q 82 169 86 166 Q 112 148 115 130 L 124 127 Q 128 130 130 133 Q 133 137 130 139 Q 126 142 122 147" fill="#CCCCCC"/><path d="M 151 153 L 138 156 L 127 156 Q 118 151 118 150 L 122 147 Q 122 146 123 146 Q 143 146 168 141 Q 193 137 200 134 Q 205 131 210 134 Q 224 141 225 144 Q 227 147 223 150 L 201 148 Q 200 146 195 146 Q 184 147 171 149 L 163 151" fill="#CCCCCC"/><path d="M 223 150 Q 218 157 215 172 Q 206 214 197 228 Q 190 239 180 245 L 181 217 Q 191 202 200 166 Q 204 153 201 148" fill="#CCCCCC"/><path d="M 180 245 Q 174 250 168 243 Q 163 235 153 224 Q 148 218 155 220 Q 161 222 167 224 Q 175 226 181 217" fill="#CCCCCC"/><path d="M 138 156 Q 142 160 142 163 Q 143 165 141 166 Q 140 167 139 168 Q 127 181 120 188 Q 116 190 114 193 Q 94 205 88 204 Q 86 204 88 203 Q 102 193 108 187 Q 108 186 108 186 Q 127 167 127 156" fill="#CCCCCC"/><path d="M 171 149 Q 176 152 179 155 Q 182 158 182 160 Q 182 163 180 164 Q 179 165 176 168 Q 160 189 136 213 Q 105 237 92 237 Q 89 237 91 236 Q 116 217 127 208 Q 127 207 128 206 Q 164 173 163 151" fill="#CCCCCC"/><path d="M 61 48 L 72 39 Q 75 36 80 38 Q 90 43 93 47 Q 96 50 91 53 L 72 54 Q 69 52 66 54 Q 58 58 50 60 L 46 53" fill="#0000ff" clip-path="url(#clip-mask-1)" /><path d="M 91 53 Q 85 58 74 75 Q 70 80 76 86 L 65 86 Q 64 85 63 83 Q 68 68 72 54" fill="#0000ff" clip-path="url(#clip-mask-2)" /><path d="M 76 86 Q 84 98 87 109 Q 90 119 89 125 Q 86 130 83 133 Q 80 136 76 132 L 73 113 Q 75 111 74 107 Q 72 100 65 86" fill="#0000ff" clip-path="url(#clip-mask-3)" /><path d="M 76 132 Q 65 124 53 117 Q 46 114 52 114 Q 60 114 66 115 Q 72 116 73 113" fill="#0000ff" clip-path="url(#clip-mask-4)" /><path d="M 50 60 Q 47 85 48 181 Q 48 221 39 231 Q 36 236 33 232 Q 30 228 27 218 Q 26 213 28 205 Q 35 181 36 158 Q 36 156 36 154 Q 40 77 28 52 Q 26 49 27 47 Q 29 45 32 45 Q 40 48 46 53" fill="#0000ff" clip-path="url(#clip-mask-5)" /><path d="M 137 93 L 137 94 Q 137 101 133 100 Q 125 95 125 79 Q 124 45 116 31 Q 115 29 116 28 Q 118 27 119 27 Q 125 28 129 32 L 134 40 Q 134 48 134 59 L 135 66 Q 136 73 136 79 Q 137 83 137 87 L 137 93" fill="#000080" clip-path="url(#clip-mask-6)" /><path d="M 129 32 Q 179 19 183 21 Q 194 27 198 32 L 174 33 Q 171 32 167 33 Q 146 37 134 40" fill="#000080" clip-path="url(#clip-mask-7)" /><path d="M 198 32 Q 201 35 198 38 Q 192 45 190 52 Q 184 88 181 95 Q 177 101 174 99 Q 170 97 164 89 L 168 83 Q 172 79 177 41 Q 178 36 174 33" fill="#000080" clip-path="url(#clip-mask-8)" /><path d="M 134 59 Q 146 52 155 53 Q 161 54 164 57 Q 166 60 161 61 Q 150 63 135 66" fill="#000080" clip-path="url(#clip-mask-9)" /><path d="M 137 87 Q 153 80 162 81 Q 166 81 168 83 L 164 89 Q 152 91 137 93" fill="#000080" clip-path="url(#clip-mask-10)" /><path d="M 115 130 Q 113 130 113 130 Q 109 131 104 130 Q 99 129 96 125 Q 92 121 97 120 Q 188 107 217 101 Q 226 99 240 108 Q 243 112 242 114 Q 241 116 235 116 Q 161 117 124 127" fill="#000080" clip-path="url(#clip-mask-11)" /><path d="M 118 150 Q 115 153 114 155 Q 92 175 80 174 Q 76 174 79 172 Q 82 169 86 166 Q 112 148 115 130 L 124 127 Q 128 130 130 133 Q 133 137 130 139 Q 126 142 122 147" fill="#000080" clip-path="url(#clip-mask-12)" /><path d="M 151 153 L 138 156 L 127 156 Q 118 151 118 150 L 122 147 Q 122 146 123 146 Q 143 146 168 141 Q 193 137 200 134 Q 205 131 210 134 Q 224 141 225 144 Q 227 147 223 150 L 201 148 Q 200 146 195 146 Q 184 147 171 149 L 163 151" fill="#000080" clip-path="url(#clip-mask-13)" /><path d="M 223 150 Q 218 157 215 172 Q 206 214 197 228 Q 190 239 180 245 L 181 217 Q 191 202 200 166 Q 204 153 201 148" fill="#000080" clip-path="url(#clip-mask-14)" /><path d="M 180 245 Q 174 250 168 243 Q 163 235 153 224 Q 148 218 155 220 Q 161 222 167 224 Q 175 226 181 217" fill="#000080" clip-path="url(#clip-mask-15)" /><path d="M 138 156 Q 142 160 142 163 Q 143 165 141 166 Q 140 167 139 168 Q 127 181 120 188 Q 116 190 114 193 Q 94 205 88 204 Q 86 204 88 203 Q 102 193 108 187 Q 108 186 108 186 Q 127 167 127 156" fill="#000080" clip-path="url(#clip-mask-16)" /><path d="M 171 149 Q 176 152 179 155 Q 182 158 182 160 Q 182 163 180 164 Q 179 165 176 168 Q 160 189 136 213 Q 105 237 92 237 Q 89 237 91 236 Q 116 217 127 208 Q 127 207 128 206 Q 164 173 163 151" fill="#000080" clip-path="url(#clip-mask-17)" /></svg>