<svg xmlns="http://www.w3.org/2000/svg" xmlns:xlink="http://www.w3.org/1999/xlink" width="270" height="270"><defs><clipPath id="clip-mask-1"><rect x="40" y="42" width="52" height="22"><animate attributeName="x" from="-12" to="40" dur="0.193" begin="0; animate15.end + 1" id="animate1" fill="freeze"/></rect></clipPath><clipPath id="clip-mask-2"><rect x="58" y="59" width="29" height="38"><set attributeName="y" to="21" begin="0; animate15.end + 1" /><animate attributeName="y" from="21" to="59" dur="0.141" begin="animate1.end" id="animate2" fill="freeze"/></rect></clipPath><clipPath id="clip-mask-3"><rect x="60" y="97" width="25" height="47"><set attributeName="y" to="50" begin="0; animate15.end + 1" /><animate attributeName="y" from="50" to="97" dur="0.174" begin="animate2.end + 0.5" id="animate3" fill="freeze"/></rect></clipPath><clipPath id="clip-mask-4"><rect x="47" y="120" width="24" height="20"><set attributeName="x" to="71" begin="0; animate15.end + 1" /><animate attributeName="x" from="71" to="47" dur="0.089" begin="animate3.end" id="animate4" fill="freeze"/></rect></clipPath><clipPath id="clip-mask-5"><rect x="21" y="50" width="23" height="184"><set attributeName="y" to="-134" begin="0; animate15.end + 1" /><animate attributeName="y" from="-134" to="50" dur="0.681" begin="animate4.end + 0.5" id="animate5" fill="freeze"/></rect></clipPath><clipPath id="clip-mask-6"><rect x="103" y="34" width="28" height="27"><set attributeName="y" to="7" begin="0; animate15.end + 1" /><animate attributeName="y" from="7" to="34" dur="0.100" begin="animate5.end + 0.5" id="animate6" fill="freeze"/></rect></clipPath><clipPath id="clip-mask-7"><rect x="147" y="15" width="49" height="46"><set attributeName="y" to="-31" begin="0; animate15.end + 1" /><animate attributeName="y" from="-31" to="15" dur="0.170" begin="animate6.end + 0.5" id="animate7" fill="freeze"/></rect></clipPath><clipPath id="clip-mask-8"><rect x="90" y="61" width="98" height="28"><set attributeName="x" to="-8" begin="0; animate15.end + 1" /><animate attributeName="x" from="-8" to="90" dur="0.363" begin="animate7.end + 0.5" id="animate8" fill="freeze"/></rect></clipPath><clipPath id="clip-mask-9"><rect x="86" y="82" width="57" height="50"><set attributeName="y" to="32" begin="0; animate15.end + 1" /><animate attributeName="y" from="32" to="82" dur="0.185" begin="animate8.end + 0.5" id="animate9" fill="freeze"/></rect></clipPath><clipPath id="clip-mask-10"><rect x="112" y="116" width="53" height="138"><set attributeName="y" to="-22" begin="0; animate15.end + 1" /><animate attributeName="y" from="-22" to="116" dur="0.511" begin="animate9.end + 0.5" id="animate10" fill="freeze"/></rect></clipPath><clipPath id="clip-mask-11"><rect x="111" y="221" width="29" height="29"><set attributeName="x" to="140" begin="0; animate15.end + 1" /><animate attributeName="x" from="140" to="111" dur="0.107" begin="animate10.end" id="animate11" fill="freeze"/></rect></clipPath><clipPath id="clip-mask-12"><rect x="74" y="124" width="55" height="49"><set attributeName="y" to="75" begin="0; animate15.end + 1" /><animate attributeName="y" from="75" to="124" dur="0.181" begin="animate11.end + 0.5" id="animate12" fill="freeze"/></rect></clipPath><clipPath id="clip-mask-13"><rect x="72" y="142" width="71" height="82"><set attributeName="y" to="60" begin="0; animate15.end + 1" /><animate attributeName="y" from="60" to="142" dur="0.304" begin="animate12.end + 0.5" id="animate13" fill="freeze"/></rect></clipPath><clipPath id="clip-mask-14"><rect x="147" y="93" width="55" height="50"><set attributeName="y" to="43" begin="0; animate15.end + 1" /><animate attributeName="y" from="43" to="93" dur="0.185" begin="animate13.end + 0.5" id="animate14" fill="freeze"/></rect></clipPath><clipPath id="clip-mask-15"><rect x="144" y="138" width="104" height="59"><set attributeName="x" to="40" begin="0; animate15.end + 1" /><animate attributeName="x" from="40" to="144" dur="0.385" begin="animate14.end + 0.5" id="animate15" fill="freeze"/></rect></clipPath></defs><path d="M 0 0 L 270 270 M 270 0 L 0 270 M 135 0 L 135 270 M 0 135 L 270 135" stroke="#CCCCCC" /><path d="M 57 53 L 68 44 Q 71 42 76 44 Q 86 48 89 53 Q 92 56 87 59 L 67 59 Q 65 57 61 59 Q 52 63 44 64 L 40 57" fill="#CCCCCC"/><path d="M 87 59 Q 81 64 69 84 Q 66 89 72 97 L 60 97 Q 59 96 59 95 Q 58 91 67 65 Q 69 61 67 59" fill="#CCCCCC"/><path d="M 72 97 Q 79 107 82 118 Q 85 128 83 133 Q 80 139 77 141 Q 74 144 71 140 L 68 121 Q 71 116 60 97" fill="#CCCCCC"/><path d="M 71 140 Q 63 132 53 125 Q 47 120 53 121 Q 58 121 63 122 Q 67 123 68 121" fill="#CCCCCC"/><path d="M 44 64 Q 43 73 43 184 Q 42 221 35 231 Q 32 234 29 231 Q 26 227 23 218 Q 22 212 24 205 Q 34 169 31 93 Q 30 73 23 57 Q 21 54 22 52 Q 24 50 26 50 Q 34 52 40 57" fill="#CCCCCC"/><path d="M 104 42 L 103 39 Q 103 36 104 35 Q 108 34 122 39 Q 129 42 130 46 Q 131 54 130 57 Q 129 61 126 61 Q 122 61 119 57 Q 114 51 110 47" fill="#CCCCCC"/><path d="M 171 24 L 170 20 Q 169 16 172 15 Q 176 15 182 18 Q 189 22 193 26 Q 196 31 191 34 Q 184 37 179 41 Q 156 57 151 60 Q 147 61 149 57 Q 163 38 167 30" fill="#CCCCCC"/><path d="M 128 84 Q 125 84 122 85 Q 107 89 96 83 Q 90 79 99 78 Q 119 76 135 72 Q 150 68 164 63 Q 171 61 178 62 Q 185 64 187 66 Q 188 69 186 70 Q 184 71 139 82" fill="#CCCCCC"/><path d="M 112 120 Q 93 132 87 131 Q 86 131 86 130 Q 86 129 88 128 Q 121 103 128 84 L 139 82 Q 141 84 143 89 Q 143 93 142 95 Q 139 97 135 101 Q 128 108 119 116" fill="#CCCCCC"/><path d="M 160 166 L 163 186 Q 165 224 153 246 Q 149 253 144 254 Q 139 254 136 250 L 140 224 Q 143 223 146 213 Q 155 176 143 157 L 134 142 Q 131 138 129 135 L 116 124 Q 113 121 112 120 L 119 116 Q 132 122 144 138 L 157 159" fill="#CCCCCC"/><path d="M 136 250 Q 130 241 114 228 Q 111 224 111 223 Q 112 221 122 223 Q 138 225 140 224" fill="#CCCCCC"/><path d="M 129 135 Q 126 138 122 143 Q 97 171 80 172 Q 74 173 79 170 Q 113 141 116 125 Q 116 124 116 124" fill="#CCCCCC"/><path d="M 143 157 Q 143 159 142 162 Q 142 162 134 173 Q 116 199 99 211 Q 80 224 75 221 Q 72 221 76 217 Q 118 181 132 145 Q 133 143 134 142" fill="#CCCCCC"/><path d="M 147 140 Q 153 133 158 127 Q 176 105 175 98 Q 175 95 178 94 Q 182 93 188 97 Q 195 102 199 106 Q 202 112 196 114 Q 189 117 184 122 Q 159 138 150 143" fill="#CCCCCC"/><path d="M 144 138 Q 145 139 147 140 L 150 143 Q 173 159 188 166 Q 189 167 191 168 Q 195 170 244 185 Q 248 186 248 188 Q 248 189 243 190 Q 216 197 201 195 Q 193 193 157 159" fill="#CCCCCC"/><path d="M 57 53 L 68 44 Q 71 42 76 44 Q 86 48 89 53 Q 92 56 87 59 L 67 59 Q 65 57 61 59 Q 52 63 44 64 L 40 57" fill="#0000ff" clip-path="url(#clip-mask-1)" /><path d="M 87 59 Q 81 64 69 84 Q 66 89 72 97 L 60 97 Q 59 96 59 95 Q 58 91 67 65 Q 69 61 67 59" fill="#0000ff" clip-path="url(#clip-mask-2)" /><path d="M 72 97 Q 79 107 82 118 Q 85 128 83 133 Q 80 139 77 141 Q 74 144 71 140 L 68 121 Q 71 116 60 97" fill="#0000ff" clip-path="url(#clip-mask-3)" /><path d="M 71 140 Q 63 132 53 125 Q 47 120 53 121 Q 58 121 63 122 Q 67 123 68 121" fill="#0000ff" clip-path="url(#clip-mask-4)" /><path d="M 44 64 Q 43 73 43 184 Q 42 221 35 231 Q 32 234 29 231 Q 26 227 23 218 Q 22 212 24 205 Q 34 169 31 93 Q 30 73 23 57 Q 21 54 22 52 Q 24 50 26 50 Q 34 52 40 57" fill="#0000ff" clip-path="url(#clip-mask-5)" /><path d="M 104 42 L 103 39 Q 103 36 104 35 Q 108 34 122 39 Q 129 42 130 46 Q 131 54 130 57 Q 129 61 126 61 Q 122 61 119 57 Q 114 51 110 47" fill="#000080" clip-path="url(#clip-mask-6)" /><path d="M 171 24 L 170 20 Q 169 16 172 15 Q 176 15 182 18 Q 189 22 193 26 Q 196 31 191 34 Q 184 37 179 41 Q 156 57 151 60 Q 147 61 149 57 Q 163 38 167 30" fill="#000080" clip-path="url(#clip-mask-7)" /><path d="M 128 84 Q 125 84 122 85 Q 107 89 96 83 Q 90 79 99 78 Q 119 76 135 72 Q 150 68 164 63 Q 171 61 178 62 Q 185 64 187 66 Q 188 69 186 70 Q 184 71 139 82" fill="#000080" clip-path="url(#clip-mask-8)" /><path d="M 112 120 Q 93 132 87 131 Q 86 131 86 130 Q 86 129 88 128 Q 121 103 128 84 L 139 82 Q 141 84 143 89 Q 143 93 142 95 Q 139 97 135 101 Q 128 108 119 116" fill="#000080" clip-path="url(#clip-mask-9)" /><path d="M 160 166 L 163 186 Q 165 224 153 246 Q 149 253 144 254 Q 139 254 136 250 L 140 224 Q 143 223 146 213 Q 155 176 143 157 L 134 142 Q 131 138 129 135 L 116 124 Q 113 121 112 120 L 119 116 Q 132 122 144 138 L 157 159" fill="#000080" clip-path="url(#clip-mask-10)" /><path d="M 136 250 Q 130 241 114 228 Q 111 224 111 223 Q 112 221 122 223 Q 138 225 140 224" fill="#000080" clip-path="url(#clip-mask-11)" /><path d="M 129 135 Q 126 138 122 143 Q 97 171 80 172 Q 74 173 79 170 Q 113 141 116 125 Q 116 124 116 124" fill="#000080" clip-path="url(#clip-mask-12)" /><path d="M 143 157 Q 143 159 142 162 Q 142 162 134 173 Q 116 199 99 211 Q 80 224 75 221 Q 72 221 76 217 Q 118 181 132 145 Q 133 143 134 142" fill="#000080" clip-path="url(#clip-mask-13)" /><path d="M 147 140 Q 153 133 158 127 Q 176 105 175 98 Q 175 95 178 94 Q 182 93 188 97 Q 195 102 199 106 Q 202 112 196 114 Q 189 117 184 122 Q 159 138 150 143" fill="#000080" clip-path="url(#clip-mask-14)" /><path d="M 144 138 Q 145 139 147 140 L 150 143 Q 173 159 188 166 Q 189 167 191 168 Q 195 170 244 185 Q 248 186 248 188 Q 248 189 243 190 Q 216 197 201 195 Q 193 193 157 159" fill="#000080" clip-path="url(#clip-mask-15)" /></svg>