<svg xmlns="http://www.w3.org/2000/svg" xmlns:xlink="http://www.w3.org/1999/xlink" width="270" height="270"><defs><clipPath id="clip-mask-1"><rect x="14" y="45" width="46" height="181"><animate attributeName="y" from="-136" to="45" dur="0.670" begin="0; animate19.end + 1" id="animate1" fill="freeze"/></rect></clipPath><clipPath id="clip-mask-2"><rect x="54" y="35" width="78" height="24"><set attributeName="x" to="-24" begin="0; animate19.end + 1" /><animate attributeName="x" from="-24" to="54" dur="0.289" begin="animate1.end + 0.5" id="animate2" fill="freeze"/></rect></clipPath><clipPath id="clip-mask-3"><rect x="111" y="47" width="23" height="180"><set attributeName="y" to="-133" begin="0; animate19.end + 1" /><animate attributeName="y" from="-133" to="47" dur="0.667" begin="animate2.end" id="animate3" fill="freeze"/></rect></clipPath><clipPath id="clip-mask-4"><rect x="91" y="198" width="21" height="24"><set attributeName="x" to="112" begin="0; animate19.end + 1" /><animate attributeName="x" from="112" to="91" dur="0.078" begin="animate3.end" id="animate4" fill="freeze"/></rect></clipPath><clipPath id="clip-mask-5"><rect x="59" y="80" width="54" height="19"><set attributeName="x" to="5" begin="0; animate19.end + 1" /><animate attributeName="x" from="5" to="59" dur="0.200" begin="animate4.end + 0.5" id="animate5" fill="freeze"/></rect></clipPath><clipPath id="clip-mask-6"><rect x="75" y="58" width="21" height="59"><set attributeName="y" to="-1" begin="0; animate19.end + 1" /><animate attributeName="y" from="-1" to="58" dur="0.219" begin="animate5.end + 0.5" id="animate6" fill="freeze"/></rect></clipPath><clipPath id="clip-mask-7"><rect x="60" y="110" width="49" height="17"><set attributeName="x" to="11" begin="0; animate19.end + 1" /><animate attributeName="x" from="11" to="60" dur="0.181" begin="animate6.end + 0.5" id="animate7" fill="freeze"/></rect></clipPath><clipPath id="clip-mask-8"><rect x="59" y="137" width="15" height="45"><set attributeName="y" to="92" begin="0; animate19.end + 1" /><animate attributeName="y" from="92" to="137" dur="0.167" begin="animate7.end + 0.5" id="animate8" fill="freeze"/></rect></clipPath><clipPath id="clip-mask-9"><rect x="69" y="128" width="42" height="17"><set attributeName="x" to="27" begin="0; animate19.end + 1" /><animate attributeName="x" from="27" to="69" dur="0.156" begin="animate8.end + 0.5" id="animate9" fill="freeze"/></rect></clipPath><clipPath id="clip-mask-10"><rect x="90" y="141" width="17" height="20"><set attributeName="y" to="121" begin="0; animate19.end + 1" /><animate attributeName="y" from="121" to="141" dur="0.074" begin="animate9.end" id="animate10" fill="freeze"/></rect></clipPath><clipPath id="clip-mask-11"><rect x="73" y="160" width="31" height="11"><set attributeName="x" to="42" begin="0; animate19.end + 1" /><animate attributeName="x" from="42" to="73" dur="0.115" begin="animate10.end + 0.5" id="animate11" fill="freeze"/></rect></clipPath><clipPath id="clip-mask-12"><rect x="133" y="24" width="52" height="92"><set attributeName="y" to="-68" begin="0; animate19.end + 1" /><animate attributeName="y" from="-68" to="24" dur="0.341" begin="animate11.end + 0.5" id="animate12" fill="freeze"/></rect></clipPath><clipPath id="clip-mask-13"><rect x="142" y="99" width="24" height="146"><set attributeName="y" to="-47" begin="0; animate19.end + 1" /><animate attributeName="y" from="-47" to="99" dur="0.541" begin="animate12.end + 0.5" id="animate13" fill="freeze"/></rect></clipPath><clipPath id="clip-mask-14"><rect x="192" y="39" width="28" height="26"><set attributeName="x" to="164" begin="0; animate19.end + 1" /><animate attributeName="x" from="164" to="192" dur="0.104" begin="animate13.end + 0.5" id="animate14" fill="freeze"/></rect></clipPath><clipPath id="clip-mask-15"><rect x="166" y="72" width="75" height="24"><set attributeName="x" to="91" begin="0; animate19.end + 1" /><animate attributeName="x" from="91" to="166" dur="0.278" begin="animate14.end + 0.5" id="animate15" fill="freeze"/></rect></clipPath><clipPath id="clip-mask-16"><rect x="172" y="112" width="59" height="20"><set attributeName="x" to="113" begin="0; animate19.end + 1" /><animate attributeName="x" from="113" to="172" dur="0.219" begin="animate15.end + 0.5" id="animate16" fill="freeze"/></rect></clipPath><clipPath id="clip-mask-17"><rect x="170" y="145" width="62" height="21"><set attributeName="x" to="108" begin="0; animate19.end + 1" /><animate attributeName="x" from="108" to="170" dur="0.230" begin="animate16.end + 0.5" id="animate17" fill="freeze"/></rect></clipPath><clipPath id="clip-mask-18"><rect x="192" y="91" width="18" height="102"><set attributeName="y" to="-11" begin="0; animate19.end + 1" /><animate attributeName="y" from="-11" to="91" dur="0.378" begin="animate17.end + 0.5" id="animate18" fill="freeze"/></rect></clipPath><clipPath id="clip-mask-19"><rect x="163" y="183" width="92" height="24"><set attributeName="x" to="71" begin="0; animate19.end + 1" /><animate attributeName="x" from="71" to="163" dur="0.341" begin="animate18.end + 0.5" id="animate19" fill="freeze"/></rect></clipPath></defs><path d="M 0 0 L 270 270 M 270 0 L 0 270 M 135 0 L 135 270 M 0 135 L 270 135" stroke="#CCCCCC" /><path d="M 58 69 L 59 87 Q 60 168 28 211 Q 20 224 16 225 Q 14 226 14 223 Q 15 222 16 220 Q 33 187 40 159 Q 47 125 45 82 Q 45 77 45 74 Q 44 58 38 51 Q 37 48 39 46 Q 42 45 47 47 Q 51 48 54 50 L 59 59" fill="#CCCCCC"/><path d="M 54 50 Q 72 47 99 41 Q 114 35 119 38 Q 130 44 132 47 L 112 49 Q 110 47 105 48 Q 80 52 59 59" fill="#CCCCCC"/><path d="M 132 47 Q 134 50 132 55 Q 129 60 129 69 Q 127 102 130 194 Q 130 209 126 220 Q 123 226 120 227 Q 117 227 112 222 L 111 201 Q 115 198 115 189 Q 119 124 116 68 Q 115 51 112 49" fill="#CCCCCC"/><path d="M 112 222 Q 106 214 94 203 Q 91 202 91 200 Q 91 198 95 199 Q 109 202 111 201" fill="#CCCCCC"/><path d="M 82 97 Q 72 99 65 96 Q 59 94 66 92 Q 74 90 81 88 L 92 84 Q 99 80 105 81 Q 110 82 112 83 Q 113 85 111 86 Q 111 87 91 94" fill="#CCCCCC"/><path d="M 82 106 L 82 97 L 81 88 Q 81 80 80 72 Q 80 68 77 64 Q 75 61 77 60 Q 79 58 81 59 Q 86 60 92 63 Q 96 66 95 68 Q 92 82 92 84 L 91 94 Q 90 103 90 114 L 82 117" fill="#CCCCCC"/><path d="M 90 114 Q 99 110 105 112 Q 109 113 109 115 Q 108 117 106 117 Q 86 122 79 125 Q 69 127 64 125 Q 60 122 64 121 Q 69 120 73 119 Q 77 118 82 117" fill="#CCCCCC"/><path d="M 74 177 L 73 179 Q 72 182 69 178 Q 66 174 66 169 Q 64 152 60 141 Q 59 139 60 137 Q 61 137 63 137 Q 68 139 69 140 L 72 145 Q 72 150 73 165 L 74 171" fill="#CCCCCC"/><path d="M 69 140 Q 75 137 84 134 Q 93 128 97 130 Q 103 134 106 135 Q 111 138 107 143 L 92 141 Q 91 139 87 140 Q 78 143 72 145" fill="#CCCCCC"/><path d="M 90 160 Q 91 154 92 148 Q 94 142 92 141 L 107 143 Q 103 147 99 161" fill="#CCCCCC"/><path d="M 73 165 Q 80 163 88 160 Q 89 160 90 160 L 99 161 Q 104 164 104 166 Q 104 168 102 168 Q 86 169 79 171 Q 77 171 74 171" fill="#CCCCCC"/><path d="M 145 107 Q 137 115 136 115 Q 133 116 133 114 Q 134 112 136 109 Q 146 91 153 75 Q 169 40 163 30 Q 160 25 164 24 Q 169 24 175 27 Q 183 31 184 34 Q 185 37 184 39 Q 180 44 176 53 Q 167 74 151 99" fill="#CCCCCC"/><path d="M 163 203 Q 163 229 160 238 Q 157 245 152 241 Q 151 241 151 241 Q 142 227 145 216 Q 154 178 152 131 Q 152 130 152 129 Q 152 127 145 107 L 151 99 Q 153 101 161 109 Q 166 115 164 122 Q 162 137 163 198" fill="#CCCCCC"/><path d="M 193 46 L 192 43 Q 192 40 193 39 Q 195 39 198 40 Q 217 46 219 53 Q 220 59 219 62 Q 218 65 216 65 Q 212 65 209 62 Q 204 56 198 51" fill="#CCCCCC"/><path d="M 192 94 Q 179 96 172 92 Q 166 88 174 87 Q 187 85 199 82 Q 209 78 218 75 Q 225 72 231 73 Q 238 74 240 77 Q 241 79 239 80 Q 237 82 201 91" fill="#CCCCCC"/><path d="M 197 130 Q 185 132 178 129 Q 172 126 180 124 Q 189 123 197 120 L 208 116 Q 212 112 221 113 Q 227 114 229 116 Q 231 118 229 120 Q 228 120 208 127" fill="#CCCCCC"/><path d="M 197 163 Q 196 162 196 163 Q 184 166 175 161 Q 170 158 177 157 Q 187 155 197 153 L 207 149 Q 217 145 224 146 Q 230 147 231 149 Q 232 151 231 153 Q 230 154 223 155 Q 215 157 207 160" fill="#CCCCCC"/><path d="M 197 176 L 197 163 L 197 153 Q 197 139 197 130 L 197 120 Q 195 102 192 94 L 201 91 Q 210 97 209 103 Q 208 110 208 116 L 208 127 Q 208 137 207 149 L 207 160 Q 207 175 207 191 L 197 193" fill="#CCCCCC"/><path d="M 207 191 Q 217 189 225 188 Q 238 183 252 193 Q 255 196 254 198 Q 253 200 249 200 Q 199 200 178 207 Q 174 207 170 206 Q 166 205 163 203 L 163 198 Q 163 198 164 198 Q 181 195 197 193" fill="#CCCCCC"/><path d="M 58 69 L 59 87 Q 60 168 28 211 Q 20 224 16 225 Q 14 226 14 223 Q 15 222 16 220 Q 33 187 40 159 Q 47 125 45 82 Q 45 77 45 74 Q 44 58 38 51 Q 37 48 39 46 Q 42 45 47 47 Q 51 48 54 50 L 59 59" fill="#000080" clip-path="url(#clip-mask-1)" /><path d="M 54 50 Q 72 47 99 41 Q 114 35 119 38 Q 130 44 132 47 L 112 49 Q 110 47 105 48 Q 80 52 59 59" fill="#000080" clip-path="url(#clip-mask-2)" /><path d="M 132 47 Q 134 50 132 55 Q 129 60 129 69 Q 127 102 130 194 Q 130 209 126 220 Q 123 226 120 227 Q 117 227 112 222 L 111 201 Q 115 198 115 189 Q 119 124 116 68 Q 115 51 112 49" fill="#000080" clip-path="url(#clip-mask-3)" /><path d="M 112 222 Q 106 214 94 203 Q 91 202 91 200 Q 91 198 95 199 Q 109 202 111 201" fill="#000080" clip-path="url(#clip-mask-4)" /><path d="M 82 97 Q 72 99 65 96 Q 59 94 66 92 Q 74 90 81 88 L 92 84 Q 99 80 105 81 Q 110 82 112 83 Q 113 85 111 86 Q 111 87 91 94" fill="#000080" clip-path="url(#clip-mask-5)" /><path d="M 82 106 L 82 97 L 81 88 Q 81 80 80 72 Q 80 68 77 64 Q 75 61 77 60 Q 79 58 81 59 Q 86 60 92 63 Q 96 66 95 68 Q 92 82 92 84 L 91 94 Q 90 103 90 114 L 82 117" fill="#000080" clip-path="url(#clip-mask-6)" /><path d="M 90 114 Q 99 110 105 112 Q 109 113 109 115 Q 108 117 106 117 Q 86 122 79 125 Q 69 127 64 125 Q 60 122 64 121 Q 69 120 73 119 Q 77 118 82 117" fill="#000080" clip-path="url(#clip-mask-7)" /><path d="M 74 177 L 73 179 Q 72 182 69 178 Q 66 174 66 169 Q 64 152 60 141 Q 59 139 60 137 Q 61 137 63 137 Q 68 139 69 140 L 72 145 Q 72 150 73 165 L 74 171" fill="#000080" clip-path="url(#clip-mask-8)" /><path d="M 69 140 Q 75 137 84 134 Q 93 128 97 130 Q 103 134 106 135 Q 111 138 107 143 L 92 141 Q 91 139 87 140 Q 78 143 72 145" fill="#000080" clip-path="url(#clip-mask-9)" /><path d="M 90 160 Q 91 154 92 148 Q 94 142 92 141 L 107 143 Q 103 147 99 161" fill="#000080" clip-path="url(#clip-mask-10)" /><path d="M 73 165 Q 80 163 88 160 Q 89 160 90 160 L 99 161 Q 104 164 104 166 Q 104 168 102 168 Q 86 169 79 171 Q 77 171 74 171" fill="#000080" clip-path="url(#clip-mask-11)" /><path d="M 145 107 Q 137 115 136 115 Q 133 116 133 114 Q 134 112 136 109 Q 146 91 153 75 Q 169 40 163 30 Q 160 25 164 24 Q 169 24 175 27 Q 183 31 184 34 Q 185 37 184 39 Q 180 44 176 53 Q 167 74 151 99" fill="#0000ff" clip-path="url(#clip-mask-12)" /><path d="M 163 203 Q 163 229 160 238 Q 157 245 152 241 Q 151 241 151 241 Q 142 227 145 216 Q 154 178 152 131 Q 152 130 152 129 Q 152 127 145 107 L 151 99 Q 153 101 161 109 Q 166 115 164 122 Q 162 137 163 198" fill="#0000ff" clip-path="url(#clip-mask-13)" /><path d="M 193 46 L 192 43 Q 192 40 193 39 Q 195 39 198 40 Q 217 46 219 53 Q 220 59 219 62 Q 218 65 216 65 Q 212 65 209 62 Q 204 56 198 51" fill="#0000ff" clip-path="url(#clip-mask-14)" /><path d="M 192 94 Q 179 96 172 92 Q 166 88 174 87 Q 187 85 199 82 Q 209 78 218 75 Q 225 72 231 73 Q 238 74 240 77 Q 241 79 239 80 Q 237 82 201 91" fill="#0000ff" clip-path="url(#clip-mask-15)" /><path d="M 197 130 Q 185 132 178 129 Q 172 126 180 124 Q 189 123 197 120 L 208 116 Q 212 112 221 113 Q 227 114 229 116 Q 231 118 229 120 Q 228 120 208 127" fill="#0000ff" clip-path="url(#clip-mask-16)" /><path d="M 197 163 Q 196 162 196 163 Q 184 166 175 161 Q 170 158 177 157 Q 187 155 197 153 L 207 149 Q 217 145 224 146 Q 230 147 231 149 Q 232 151 231 153 Q 230 154 223 155 Q 215 157 207 160" fill="#0000ff" clip-path="url(#clip-mask-17)" /><path d="M 197 176 L 197 163 L 197 153 Q 197 139 197 130 L 197 120 Q 195 102 192 94 L 201 91 Q 210 97 209 103 Q 208 110 208 116 L 208 127 Q 208 137 207 149 L 207 160 Q 207 175 207 191 L 197 193" fill="#0000ff" clip-path="url(#clip-mask-18)" /><path d="M 207 191 Q 217 189 225 188 Q 238 183 252 193 Q 255 196 254 198 Q 253 200 249 200 Q 199 200 178 207 Q 174 207 170 206 Q 166 205 163 203 L 163 198 Q 163 198 164 198 Q 181 195 197 193" fill="#0000ff" clip-path="url(#clip-mask-19)" /></svg>