<svg xmlns="http://www.w3.org/2000/svg" xmlns:xlink="http://www.w3.org/1999/xlink" width="270" height="270"><defs><clipPath id="clip-mask-1"><rect x="45" y="47" width="74" height="25"><animate attributeName="x" from="-29" to="45" dur="0.274" begin="0; animate20.end + 1" id="animate1" fill="freeze"/></rect></clipPath><clipPath id="clip-mask-2"><rect x="51" y="75" width="61" height="21"><set attributeName="x" to="-10" begin="0; animate20.end + 1" /><animate attributeName="x" from="-10" to="51" dur="0.226" begin="animate1.end + 0.5" id="animate2" fill="freeze"/></rect></clipPath><clipPath id="clip-mask-3"><rect x="73" y="18" width="27" height="90"><set attributeName="y" to="-72" begin="0; animate20.end + 1" /><animate attributeName="y" from="-72" to="18" dur="0.333" begin="animate2.end + 0.5" id="animate3" fill="freeze"/></rect></clipPath><clipPath id="clip-mask-4"><rect x="12" y="101" width="109" height="32"><set attributeName="x" to="-97" begin="0; animate20.end + 1" /><animate attributeName="x" from="-97" to="12" dur="0.404" begin="animate3.end + 0.5" id="animate4" fill="freeze"/></rect></clipPath><clipPath id="clip-mask-5"><rect x="42" y="135" width="26" height="93"><set attributeName="y" to="42" begin="0; animate20.end + 1" /><animate attributeName="y" from="42" to="135" dur="0.344" begin="animate4.end + 0.5" id="animate5" fill="freeze"/></rect></clipPath><clipPath id="clip-mask-6"><rect x="65" y="126" width="52" height="18"><set attributeName="x" to="13" begin="0; animate20.end + 1" /><animate attributeName="x" from="13" to="65" dur="0.193" begin="animate5.end + 0.5" id="animate6" fill="freeze"/></rect></clipPath><clipPath id="clip-mask-7"><rect x="95" y="137" width="20" height="90"><set attributeName="y" to="47" begin="0; animate20.end + 1" /><animate attributeName="y" from="47" to="137" dur="0.333" begin="animate6.end" id="animate7" fill="freeze"/></rect></clipPath><clipPath id="clip-mask-8"><rect x="84" y="208" width="12" height="17"><set attributeName="x" to="96" begin="0; animate20.end + 1" /><animate attributeName="x" from="96" to="84" dur="0.044" begin="animate7.end" id="animate8" fill="freeze"/></rect></clipPath><clipPath id="clip-mask-9"><rect x="66" y="154" width="30" height="12"><set attributeName="x" to="36" begin="0; animate20.end + 1" /><animate attributeName="x" from="36" to="66" dur="0.111" begin="animate8.end + 0.5" id="animate9" fill="freeze"/></rect></clipPath><clipPath id="clip-mask-10"><rect x="64" y="176" width="32" height="13"><set attributeName="x" to="32" begin="0; animate20.end + 1" /><animate attributeName="x" from="32" to="64" dur="0.119" begin="animate9.end + 0.5" id="animate10" fill="freeze"/></rect></clipPath><clipPath id="clip-mask-11"><rect x="131" y="16" width="80" height="34"><set attributeName="x" to="211" begin="0; animate20.end + 1" /><animate attributeName="x" from="211" to="131" dur="0.296" begin="animate10.end + 0.5" id="animate11" fill="freeze"/></rect></clipPath><clipPath id="clip-mask-12"><rect x="130" y="62" width="21" height="25"><set attributeName="y" to="37" begin="0; animate20.end + 1" /><animate attributeName="y" from="37" to="62" dur="0.093" begin="animate11.end + 0.5" id="animate12" fill="freeze"/></rect></clipPath><clipPath id="clip-mask-13"><rect x="156" y="53" width="21" height="25"><set attributeName="y" to="28" begin="0; animate20.end + 1" /><animate attributeName="y" from="28" to="53" dur="0.093" begin="animate12.end + 0.5" id="animate13" fill="freeze"/></rect></clipPath><clipPath id="clip-mask-14"><rect x="179" y="42" width="46" height="49"><set attributeName="y" to="-7" begin="0; animate20.end + 1" /><animate attributeName="y" from="-7" to="42" dur="0.181" begin="animate13.end + 0.5" id="animate14" fill="freeze"/></rect></clipPath><clipPath id="clip-mask-15"><rect x="130" y="87" width="95" height="28"><set attributeName="x" to="35" begin="0; animate20.end + 1" /><animate attributeName="x" from="35" to="130" dur="0.352" begin="animate14.end + 0.5" id="animate15" fill="freeze"/></rect></clipPath><clipPath id="clip-mask-16"><rect x="197" y="98" width="33" height="55"><set attributeName="y" to="43" begin="0; animate20.end + 1" /><animate attributeName="y" from="43" to="98" dur="0.204" begin="animate15.end" id="animate16" fill="freeze"/></rect></clipPath><clipPath id="clip-mask-17"><rect x="118" y="115" width="139" height="33"><set attributeName="x" to="-21" begin="0; animate20.end + 1" /><animate attributeName="x" from="-21" to="118" dur="0.515" begin="animate16.end + 0.5" id="animate17" fill="freeze"/></rect></clipPath><clipPath id="clip-mask-18"><rect x="125" y="152" width="91" height="21"><set attributeName="x" to="34" begin="0; animate20.end + 1" /><animate attributeName="x" from="34" to="125" dur="0.337" begin="animate17.end + 0.5" id="animate18" fill="freeze"/></rect></clipPath><clipPath id="clip-mask-19"><rect x="156" y="108" width="24" height="145"><set attributeName="y" to="-37" begin="0; animate20.end + 1" /><animate attributeName="y" from="-37" to="108" dur="0.537" begin="animate18.end + 0.5" id="animate19" fill="freeze"/></rect></clipPath><clipPath id="clip-mask-20"><rect x="133" y="224" width="26" height="29"><set attributeName="x" to="159" begin="0; animate20.end + 1" /><animate attributeName="x" from="159" to="133" dur="0.096" begin="animate19.end" id="animate20" fill="freeze"/></rect></clipPath></defs><path d="M 0 0 L 270 270 M 270 0 L 0 270 M 135 0 L 135 270 M 0 135 L 270 135" stroke="#CCCCCC" /><path d="M 81 66 Q 80 67 79 67 Q 58 72 51 68 Q 45 65 52 63 Q 66 61 78 58 Q 79 57 81 57 L 95 52 Q 102 47 110 48 Q 116 49 118 52 Q 119 54 117 55 Q 116 57 94 63" fill="#CCCCCC"/><path d="M 81 92 Q 80 92 80 92 Q 63 96 56 93 Q 51 90 58 88 Q 65 87 81 82 L 93 77 Q 98 75 103 76 Q 109 76 111 79 Q 112 81 110 82 Q 110 83 103 85 Q 98 87 93 89" fill="#CCCCCC"/><path d="M 81 100 L 81 92 L 81 82 Q 81 74 81 66 L 81 57 Q 80 47 80 37 Q 80 32 75 25 Q 73 22 74 20 Q 76 18 80 18 Q 86 19 95 24 Q 100 28 99 30 Q 95 45 95 52 L 94 63 Q 94 70 93 77 L 93 89 Q 92 97 92 106 L 81 108" fill="#CCCCCC"/><path d="M 92 106 Q 110 101 117 104 Q 121 106 121 109 Q 121 111 117 111 Q 73 117 34 130 Q 25 133 16 127 Q 12 124 13 122 Q 14 120 17 120 Q 43 116 81 108" fill="#CCCCCC"/><path d="M 64 190 L 64 191 Q 64 220 54 227 Q 52 228 51 225 Q 42 214 51 201 Q 62 163 52 138 Q 51 136 54 135 Q 58 135 65 139 L 68 144 Q 68 145 68 147 Q 67 151 66 160 L 66 166 Q 65 173 65 183 L 64 189" fill="#CCCCCC"/><path d="M 65 139 Q 71 136 87 131 Q 99 126 103 127 Q 111 130 114 133 Q 117 136 115 139 L 98 137 Q 95 136 74 142 Q 71 143 68 144" fill="#CCCCCC"/><path d="M 115 139 Q 112 146 112 154 Q 113 176 113 199 Q 114 209 109 218 Q 104 227 101 227 Q 98 227 96 225 L 95 208 Q 98 207 99 202 Q 101 177 99 144 Q 100 139 98 137" fill="#CCCCCC"/><path d="M 96 225 Q 92 219 87 214 Q 84 212 84 210 Q 84 209 86 209 Q 94 209 95 208" fill="#CCCCCC"/><path d="M 66 160 Q 76 154 86 155 Q 91 155 94 158 Q 96 161 91 162 Q 81 164 68 166 Q 67 166 66 166" fill="#CCCCCC"/><path d="M 65 183 Q 79 176 86 177 Q 91 178 94 181 Q 96 184 91 185 Q 65 189 64 189" fill="#CCCCCC"/><path d="M 186 22 L 186 19 Q 186 16 188 16 Q 197 16 209 27 Q 211 30 210 32 Q 209 34 205 34 Q 189 35 182 38 Q 141 50 132 48 Q 131 48 133 46 Q 168 34 182 24" fill="#CCCCCC"/><path d="M 130 68 L 130 65 Q 130 63 131 62 Q 132 62 135 63 Q 150 71 150 76 Q 151 82 149 84 Q 147 87 145 86 Q 142 86 134 73" fill="#CCCCCC"/><path d="M 156 58 L 156 55 Q 156 53 157 53 Q 160 53 162 55 Q 176 63 177 71 Q 176 74 175 76 Q 173 78 170 77 Q 164 74 158 61" fill="#CCCCCC"/><path d="M 202 51 L 201 47 Q 200 44 203 43 Q 206 42 212 45 Q 218 48 222 51 Q 225 55 220 58 Q 214 62 201 74 Q 195 81 183 89 Q 179 91 181 86 Q 197 62 200 56" fill="#CCCCCC"/><path d="M 153 111 L 150 111 Q 142 115 136 112 Q 131 110 130 109 Q 130 106 134 106 Q 169 101 197 90 Q 202 87 207 89 Q 221 95 225 98 L 200 103 Q 197 100 166 108 L 156 110" fill="#CCCCCC"/><path d="M 202 124 Q 204 106 200 103 L 225 98 Q 230 102 225 107 Q 219 113 217 122 L 213 132 Q 211 140 209 153 L 197 152 Q 199 143 201 133" fill="#CCCCCC"/><path d="M 164 139 Q 149 142 136 146 Q 128 148 121 142 Q 118 139 122 138 Q 143 135 163 131 L 175 129 Q 177 128 202 124 L 217 122 Q 222 120 226 119 Q 240 115 253 123 Q 257 126 256 128 Q 254 131 240 131 Q 225 131 213 132 L 201 133 Q 177 136 176 137" fill="#CCCCCC"/><path d="M 178 156 Q 187 154 196 152 Q 197 152 197 152 L 209 153 Q 216 158 216 159 Q 215 162 213 162 Q 194 164 179 166 L 166 167 Q 149 170 139 172 Q 136 173 133 172 Q 130 171 129 169 Q 125 164 131 164 Q 147 162 166 159" fill="#CCCCCC"/><path d="M 177 143 L 178 156 L 179 166 Q 179 168 179 170 Q 180 189 180 201 Q 180 236 168 248 Q 162 253 159 253 L 159 225 Q 167 212 166 168 Q 166 167 166 167 L 166 159 Q 165 148 164 139 L 163 131 Q 160 116 156 110 L 166 108 Q 169 110 171 111 Q 174 113 174 118 Q 174 123 175 129 L 176 137" fill="#CCCCCC"/><path d="M 159 253 Q 157 253 155 250 Q 148 241 135 228 Q 133 226 134 225 Q 134 224 136 224 Q 155 228 157 227 Q 159 227 159 225" fill="#CCCCCC"/><path d="M 81 66 Q 80 67 79 67 Q 58 72 51 68 Q 45 65 52 63 Q 66 61 78 58 Q 79 57 81 57 L 95 52 Q 102 47 110 48 Q 116 49 118 52 Q 119 54 117 55 Q 116 57 94 63" fill="#0000ff" clip-path="url(#clip-mask-1)" /><path d="M 81 92 Q 80 92 80 92 Q 63 96 56 93 Q 51 90 58 88 Q 65 87 81 82 L 93 77 Q 98 75 103 76 Q 109 76 111 79 Q 112 81 110 82 Q 110 83 103 85 Q 98 87 93 89" fill="#0000ff" clip-path="url(#clip-mask-2)" /><path d="M 81 100 L 81 92 L 81 82 Q 81 74 81 66 L 81 57 Q 80 47 80 37 Q 80 32 75 25 Q 73 22 74 20 Q 76 18 80 18 Q 86 19 95 24 Q 100 28 99 30 Q 95 45 95 52 L 94 63 Q 94 70 93 77 L 93 89 Q 92 97 92 106 L 81 108" fill="#0000ff" clip-path="url(#clip-mask-3)" /><path d="M 92 106 Q 110 101 117 104 Q 121 106 121 109 Q 121 111 117 111 Q 73 117 34 130 Q 25 133 16 127 Q 12 124 13 122 Q 14 120 17 120 Q 43 116 81 108" fill="#0000ff" clip-path="url(#clip-mask-4)" /><path d="M 64 190 L 64 191 Q 64 220 54 227 Q 52 228 51 225 Q 42 214 51 201 Q 62 163 52 138 Q 51 136 54 135 Q 58 135 65 139 L 68 144 Q 68 145 68 147 Q 67 151 66 160 L 66 166 Q 65 173 65 183 L 64 189" fill="#0000ff" clip-path="url(#clip-mask-5)" /><path d="M 65 139 Q 71 136 87 131 Q 99 126 103 127 Q 111 130 114 133 Q 117 136 115 139 L 98 137 Q 95 136 74 142 Q 71 143 68 144" fill="#0000ff" clip-path="url(#clip-mask-6)" /><path d="M 115 139 Q 112 146 112 154 Q 113 176 113 199 Q 114 209 109 218 Q 104 227 101 227 Q 98 227 96 225 L 95 208 Q 98 207 99 202 Q 101 177 99 144 Q 100 139 98 137" fill="#0000ff" clip-path="url(#clip-mask-7)" /><path d="M 96 225 Q 92 219 87 214 Q 84 212 84 210 Q 84 209 86 209 Q 94 209 95 208" fill="#0000ff" clip-path="url(#clip-mask-8)" /><path d="M 66 160 Q 76 154 86 155 Q 91 155 94 158 Q 96 161 91 162 Q 81 164 68 166 Q 67 166 66 166" fill="#0000ff" clip-path="url(#clip-mask-9)" /><path d="M 65 183 Q 79 176 86 177 Q 91 178 94 181 Q 96 184 91 185 Q 65 189 64 189" fill="#0000ff" clip-path="url(#clip-mask-10)" /><path d="M 186 22 L 186 19 Q 186 16 188 16 Q 197 16 209 27 Q 211 30 210 32 Q 209 34 205 34 Q 189 35 182 38 Q 141 50 132 48 Q 131 48 133 46 Q 168 34 182 24" fill="#000080" clip-path="url(#clip-mask-11)" /><path d="M 130 68 L 130 65 Q 130 63 131 62 Q 132 62 135 63 Q 150 71 150 76 Q 151 82 149 84 Q 147 87 145 86 Q 142 86 134 73" fill="#000080" clip-path="url(#clip-mask-12)" /><path d="M 156 58 L 156 55 Q 156 53 157 53 Q 160 53 162 55 Q 176 63 177 71 Q 176 74 175 76 Q 173 78 170 77 Q 164 74 158 61" fill="#000080" clip-path="url(#clip-mask-13)" /><path d="M 202 51 L 201 47 Q 200 44 203 43 Q 206 42 212 45 Q 218 48 222 51 Q 225 55 220 58 Q 214 62 201 74 Q 195 81 183 89 Q 179 91 181 86 Q 197 62 200 56" fill="#000080" clip-path="url(#clip-mask-14)" /><path d="M 153 111 L 150 111 Q 142 115 136 112 Q 131 110 130 109 Q 130 106 134 106 Q 169 101 197 90 Q 202 87 207 89 Q 221 95 225 98 L 200 103 Q 197 100 166 108 L 156 110" fill="#000080" clip-path="url(#clip-mask-15)" /><path d="M 202 124 Q 204 106 200 103 L 225 98 Q 230 102 225 107 Q 219 113 217 122 L 213 132 Q 211 140 209 153 L 197 152 Q 199 143 201 133" fill="#000080" clip-path="url(#clip-mask-16)" /><path d="M 164 139 Q 149 142 136 146 Q 128 148 121 142 Q 118 139 122 138 Q 143 135 163 131 L 175 129 Q 177 128 202 124 L 217 122 Q 222 120 226 119 Q 240 115 253 123 Q 257 126 256 128 Q 254 131 240 131 Q 225 131 213 132 L 201 133 Q 177 136 176 137" fill="#000080" clip-path="url(#clip-mask-17)" /><path d="M 178 156 Q 187 154 196 152 Q 197 152 197 152 L 209 153 Q 216 158 216 159 Q 215 162 213 162 Q 194 164 179 166 L 166 167 Q 149 170 139 172 Q 136 173 133 172 Q 130 171 129 169 Q 125 164 131 164 Q 147 162 166 159" fill="#000080" clip-path="url(#clip-mask-18)" /><path d="M 177 143 L 178 156 L 179 166 Q 179 168 179 170 Q 180 189 180 201 Q 180 236 168 248 Q 162 253 159 253 L 159 225 Q 167 212 166 168 Q 166 167 166 167 L 166 159 Q 165 148 164 139 L 163 131 Q 160 116 156 110 L 166 108 Q 169 110 171 111 Q 174 113 174 118 Q 174 123 175 129 L 176 137" fill="#000080" clip-path="url(#clip-mask-19)" /><path d="M 159 253 Q 157 253 155 250 Q 148 241 135 228 Q 133 226 134 225 Q 134 224 136 224 Q 155 228 157 227 Q 159 227 159 225" fill="#000080" clip-path="url(#clip-mask-20)" /></svg>