<svg xmlns="http://www.w3.org/2000/svg" xmlns:xlink="http://www.w3.org/1999/xlink" width="270" height="270"><defs><clipPath id="clip-mask-1"><rect x="89" y="41" width="29" height="198"><animate attributeName="y" from="-157" to="41" dur="0.733" begin="0; animate8.end + 1" id="animate1" fill="freeze"/></rect></clipPath><clipPath id="clip-mask-2"><rect x="40" y="82" width="59" height="23"><set attributeName="x" to="-19" begin="0; animate8.end + 1" /><animate attributeName="x" from="-19" to="40" dur="0.219" begin="animate1.end + 0.5" id="animate2" fill="freeze"/></rect></clipPath><clipPath id="clip-mask-3"><rect x="46" y="125" width="53" height="22"><set attributeName="x" to="-7" begin="0; animate8.end + 1" /><animate attributeName="x" from="-7" to="46" dur="0.196" begin="animate2.end + 0.5" id="animate3" fill="freeze"/></rect></clipPath><clipPath id="clip-mask-4"><rect x="26" y="166" width="73" height="33"><set attributeName="x" to="-47" begin="0; animate8.end + 1" /><animate attributeName="x" from="-47" to="26" dur="0.270" begin="animate3.end + 0.5" id="animate4" fill="freeze"/></rect></clipPath><clipPath id="clip-mask-5"><rect x="140" y="16" width="34" height="237"><set attributeName="y" to="-221" begin="0; animate8.end + 1" /><animate attributeName="y" from="-221" to="16" dur="0.878" begin="animate4.end + 0.5" id="animate5" fill="freeze"/></rect></clipPath><clipPath id="clip-mask-6"><rect x="166" y="65" width="63" height="20"><set attributeName="x" to="103" begin="0; animate8.end + 1" /><animate attributeName="x" from="103" to="166" dur="0.233" begin="animate5.end + 0.5" id="animate6" fill="freeze"/></rect></clipPath><clipPath id="clip-mask-7"><rect x="167" y="112" width="59" height="18"><set attributeName="x" to="108" begin="0; animate8.end + 1" /><animate attributeName="x" from="108" to="167" dur="0.219" begin="animate6.end + 0.5" id="animate7" fill="freeze"/></rect></clipPath><clipPath id="clip-mask-8"><rect x="167" y="156" width="76" height="21"><set attributeName="x" to="91" begin="0; animate8.end + 1" /><animate attributeName="x" from="91" to="167" dur="0.281" begin="animate7.end + 0.5" id="animate8" fill="freeze"/></rect></clipPath></defs><path d="M 0 0 L 270 270 M 270 0 L 0 270 M 135 0 L 135 270 M 0 135 L 270 135" stroke="#CCCCCC" /><path d="M 99 166 Q 99 151 99 136 L 99 127 Q 99 109 99 93 L 98 83 Q 98 77 98 71 Q 98 60 90 50 Q 89 46 90 44 Q 95 41 101 45 Q 116 53 117 56 Q 118 59 116 63 Q 112 78 112 100 Q 111 204 112 215 Q 112 230 105 236 Q 103 239 101 237 Q 99 236 97 231 Q 90 216 93 205 Q 97 190 98 174" fill="#CCCCCC"/><path d="M 99 93 Q 80 96 64 101 Q 53 105 44 98 Q 40 95 41 92 Q 42 90 45 90 Q 62 88 89 83 Q 93 82 98 83" fill="#CCCCCC"/><path d="M 99 136 Q 87 138 70 143 Q 60 147 50 140 Q 46 137 47 135 Q 48 133 51 132 Q 69 130 90 126 Q 94 125 99 127" fill="#CCCCCC"/><path d="M 97 174 L 97 174 Q 59 191 49 197 Q 46 199 43 198 Q 34 193 29 188 Q 26 185 27 182 Q 28 179 31 179 Q 43 179 99 166 L 98 174" fill="#CCCCCC"/><path d="M 167 176 Q 167 219 167 227 Q 167 245 159 251 Q 157 253 155 251 Q 153 250 151 245 Q 143 228 146 216 Q 156 179 151 55 Q 151 40 142 27 Q 140 22 141 20 Q 148 16 154 21 Q 171 30 173 33 Q 174 37 171 42 Q 167 56 167 77 L 166 84 Q 167 103 167 122 L 167 130 Q 167 150 167 167" fill="#CCCCCC"/><path d="M 167 77 Q 204 65 214 67 Q 223 69 226 74 Q 229 79 221 80 Q 201 82 174 85 Q 169 85 166 84" fill="#CCCCCC"/><path d="M 167 122 Q 201 112 211 114 Q 220 115 223 120 Q 226 125 218 126 Q 167 130 167 130" fill="#CCCCCC"/><path d="M 216 156 L 227 159 Q 237 162 240 167 Q 243 172 234 173 Q 209 174 175 177 Q 170 177 167 176 L 167 167" fill="#CCCCCC"/><path d="M 99 166 Q 99 151 99 136 L 99 127 Q 99 109 99 93 L 98 83 Q 98 77 98 71 Q 98 60 90 50 Q 89 46 90 44 Q 95 41 101 45 Q 116 53 117 56 Q 118 59 116 63 Q 112 78 112 100 Q 111 204 112 215 Q 112 230 105 236 Q 103 239 101 237 Q 99 236 97 231 Q 90 216 93 205 Q 97 190 98 174" fill="#0000ff" clip-path="url(#clip-mask-1)" /><path d="M 99 93 Q 80 96 64 101 Q 53 105 44 98 Q 40 95 41 92 Q 42 90 45 90 Q 62 88 89 83 Q 93 82 98 83" fill="#0000ff" clip-path="url(#clip-mask-2)" /><path d="M 99 136 Q 87 138 70 143 Q 60 147 50 140 Q 46 137 47 135 Q 48 133 51 132 Q 69 130 90 126 Q 94 125 99 127" fill="#0000ff" clip-path="url(#clip-mask-3)" /><path d="M 97 174 L 97 174 Q 59 191 49 197 Q 46 199 43 198 Q 34 193 29 188 Q 26 185 27 182 Q 28 179 31 179 Q 43 179 99 166 L 98 174" fill="#0000ff" clip-path="url(#clip-mask-4)" /><path d="M 167 176 Q 167 219 167 227 Q 167 245 159 251 Q 157 253 155 251 Q 153 250 151 245 Q 143 228 146 216 Q 156 179 151 55 Q 151 40 142 27 Q 140 22 141 20 Q 148 16 154 21 Q 171 30 173 33 Q 174 37 171 42 Q 167 56 167 77 L 166 84 Q 167 103 167 122 L 167 130 Q 167 150 167 167" fill="#0000ff" clip-path="url(#clip-mask-5)" /><path d="M 167 77 Q 204 65 214 67 Q 223 69 226 74 Q 229 79 221 80 Q 201 82 174 85 Q 169 85 166 84" fill="#0000ff" clip-path="url(#clip-mask-6)" /><path d="M 167 122 Q 201 112 211 114 Q 220 115 223 120 Q 226 125 218 126 Q 167 130 167 130" fill="#0000ff" clip-path="url(#clip-mask-7)" /><path d="M 216 156 L 227 159 Q 237 162 240 167 Q 243 172 234 173 Q 209 174 175 177 Q 170 177 167 176 L 167 167" fill="#0000ff" clip-path="url(#clip-mask-8)" /></svg>