<svg xmlns="http://www.w3.org/2000/svg" xmlns:xlink="http://www.w3.org/1999/xlink" width="270" height="270"><defs><clipPath id="clip-mask-1"><rect x="34" y="22" width="48" height="64"><animate attributeName="y" from="-42" to="22" dur="0.237" begin="0; animate29.end + 1" id="animate1" fill="freeze"/></rect></clipPath><clipPath id="clip-mask-2"><rect x="43" y="71" width="31" height="14"><set attributeName="x" to="12" begin="0; animate29.end + 1" /><animate attributeName="x" from="12" to="43" dur="0.115" begin="animate1.end" id="animate2" fill="freeze"/></rect></clipPath><clipPath id="clip-mask-3"><rect x="41" y="45" width="59" height="74"><set attributeName="y" to="-29" begin="0; animate29.end + 1" /><animate attributeName="y" from="-29" to="45" dur="0.274" begin="animate2.end + 0.5" id="animate3" fill="freeze"/></rect></clipPath><clipPath id="clip-mask-4"><rect x="51" y="98" width="33" height="18"><set attributeName="x" to="18" begin="0; animate29.end + 1" /><animate attributeName="x" from="18" to="51" dur="0.122" begin="animate3.end" id="animate4" fill="freeze"/></rect></clipPath><clipPath id="clip-mask-5"><rect x="37" y="82" width="66" height="70"><set attributeName="y" to="12" begin="0; animate29.end + 1" /><animate attributeName="y" from="12" to="82" dur="0.259" begin="animate4.end + 0.5" id="animate5" fill="freeze"/></rect></clipPath><clipPath id="clip-mask-6"><rect x="119" y="8" width="25" height="19"><set attributeName="x" to="94" begin="0; animate29.end + 1" /><animate attributeName="x" from="94" to="119" dur="0.093" begin="animate5.end + 0.5" id="animate6" fill="freeze"/></rect></clipPath><clipPath id="clip-mask-7"><rect x="119" y="25" width="48" height="16"><set attributeName="x" to="71" begin="0; animate29.end + 1" /><animate attributeName="x" from="71" to="119" dur="0.178" begin="animate6.end + 0.5" id="animate7" fill="freeze"/></rect></clipPath><clipPath id="clip-mask-8"><rect x="144" y="33" width="26" height="48"><set attributeName="y" to="-15" begin="0; animate29.end + 1" /><animate attributeName="y" from="-15" to="33" dur="0.178" begin="animate7.end" id="animate8" fill="freeze"/></rect></clipPath><clipPath id="clip-mask-9"><rect x="120" y="49" width="24" height="11"><set attributeName="x" to="96" begin="0; animate29.end + 1" /><animate attributeName="x" from="96" to="120" dur="0.089" begin="animate8.end + 0.5" id="animate9" fill="freeze"/></rect></clipPath><clipPath id="clip-mask-10"><rect x="119" y="63" width="28" height="13"><set attributeName="x" to="91" begin="0; animate29.end + 1" /><animate attributeName="x" from="91" to="119" dur="0.104" begin="animate9.end + 0.5" id="animate10" fill="freeze"/></rect></clipPath><clipPath id="clip-mask-11"><rect x="101" y="30" width="20" height="86"><set attributeName="y" to="-56" begin="0; animate29.end + 1" /><animate attributeName="y" from="-56" to="30" dur="0.319" begin="animate10.end + 0.5" id="animate11" fill="freeze"/></rect></clipPath><clipPath id="clip-mask-12"><rect x="115" y="89" width="34" height="24"><set attributeName="x" to="81" begin="0; animate29.end + 1" /><animate attributeName="x" from="81" to="115" dur="0.126" begin="animate11.end" id="animate12" fill="freeze"/></rect></clipPath><clipPath id="clip-mask-13"><rect x="144" y="81" width="19" height="23"><set attributeName="x" to="125" begin="0; animate29.end + 1" /><animate attributeName="x" from="125" to="144" dur="0.070" begin="animate12.end + 0.5" id="animate13" fill="freeze"/></rect></clipPath><clipPath id="clip-mask-14"><rect x="187" y="21" width="46" height="19"><set attributeName="x" to="141" begin="0; animate29.end + 1" /><animate attributeName="x" from="141" to="187" dur="0.170" begin="animate13.end + 0.5" id="animate14" fill="freeze"/></rect></clipPath><clipPath id="clip-mask-15"><rect x="194" y="36" width="35" height="28"><set attributeName="y" to="8" begin="0; animate29.end + 1" /><animate attributeName="y" from="8" to="36" dur="0.104" begin="animate14.end" id="animate15" fill="freeze"/></rect></clipPath><clipPath id="clip-mask-16"><rect x="194" y="63" width="41" height="54"><set attributeName="y" to="9" begin="0; animate29.end + 1" /><animate attributeName="y" from="9" to="63" dur="0.200" begin="animate15.end + 0.5" id="animate16" fill="freeze"/></rect></clipPath><clipPath id="clip-mask-17"><rect x="197" y="95" width="30" height="23"><set attributeName="x" to="227" begin="0; animate29.end + 1" /><animate attributeName="x" from="227" to="197" dur="0.111" begin="animate16.end" id="animate17" fill="freeze"/></rect></clipPath><clipPath id="clip-mask-18"><rect x="172" y="29" width="17" height="88"><set attributeName="y" to="-59" begin="0; animate29.end + 1" /><animate attributeName="y" from="-59" to="29" dur="0.326" begin="animate17.end + 0.5" id="animate18" fill="freeze"/></rect></clipPath><clipPath id="clip-mask-19"><rect x="125" y="109" width="20" height="15"><set attributeName="x" to="105" begin="0; animate29.end + 1" /><animate attributeName="x" from="105" to="125" dur="0.074" begin="animate18.end + 0.5" id="animate19" fill="freeze"/></rect></clipPath><clipPath id="clip-mask-20"><rect x="85" y="118" width="95" height="22"><set attributeName="x" to="-10" begin="0; animate29.end + 1" /><animate attributeName="x" from="-10" to="85" dur="0.352" begin="animate19.end + 0.5" id="animate20" fill="freeze"/></rect></clipPath><clipPath id="clip-mask-21"><rect x="92" y="142" width="18" height="20"><set attributeName="y" to="122" begin="0; animate29.end + 1" /><animate attributeName="y" from="122" to="142" dur="0.074" begin="animate20.end + 0.5" id="animate21" fill="freeze"/></rect></clipPath><clipPath id="clip-mask-22"><rect x="142" y="130" width="23" height="27"><set attributeName="y" to="103" begin="0; animate29.end + 1" /><animate attributeName="y" from="103" to="130" dur="0.100" begin="animate21.end + 0.5" id="animate22" fill="freeze"/></rect></clipPath><clipPath id="clip-mask-23"><rect x="29" y="145" width="211" height="36"><set attributeName="x" to="-182" begin="0; animate29.end + 1" /><animate attributeName="x" from="-182" to="29" dur="0.781" begin="animate22.end + 0.5" id="animate23" fill="freeze"/></rect></clipPath><clipPath id="clip-mask-24"><rect x="86" y="178" width="18" height="75"><set attributeName="y" to="103" begin="0; animate29.end + 1" /><animate attributeName="y" from="103" to="178" dur="0.278" begin="animate23.end + 0.5" id="animate24" fill="freeze"/></rect></clipPath><clipPath id="clip-mask-25"><rect x="100" y="169" width="81" height="21"><set attributeName="x" to="19" begin="0; animate29.end + 1" /><animate attributeName="x" from="19" to="100" dur="0.300" begin="animate24.end + 0.5" id="animate25" fill="freeze"/></rect></clipPath><clipPath id="clip-mask-26"><rect x="160" y="182" width="23" height="79"><set attributeName="y" to="103" begin="0; animate29.end + 1" /><animate attributeName="y" from="103" to="182" dur="0.293" begin="animate25.end" id="animate26" fill="freeze"/></rect></clipPath><clipPath id="clip-mask-27"><rect x="150" y="231" width="13" height="26"><set attributeName="x" to="163" begin="0; animate29.end + 1" /><animate attributeName="x" from="163" to="150" dur="0.048" begin="animate26.end" id="animate27" fill="freeze"/></rect></clipPath><clipPath id="clip-mask-28"><rect x="103" y="200" width="48" height="15"><set attributeName="x" to="55" begin="0; animate29.end + 1" /><animate attributeName="x" from="55" to="103" dur="0.178" begin="animate27.end + 0.5" id="animate28" fill="freeze"/></rect></clipPath><clipPath id="clip-mask-29"><rect x="103" y="227" width="55" height="16"><set attributeName="x" to="48" begin="0; animate29.end + 1" /><animate attributeName="x" from="48" to="103" dur="0.204" begin="animate28.end + 0.5" id="animate29" fill="freeze"/></rect></clipPath></defs><path d="M 0 0 L 270 270 M 270 0 L 0 270 M 135 0 L 135 270 M 0 135 L 270 135" stroke="#CCCCCC" /><path d="M 43 85 Q 40 86 38 84 Q 35 80 35 76 Q 34 73 38 70 Q 45 65 49 60 Q 68 34 65 26 Q 64 22 67 22 Q 71 22 73 25 Q 81 33 81 35 Q 82 37 78 40 Q 65 53 52 69 Q 50 72 54 72" fill="#CCCCCC"/><path d="M 70 77 Q 49 81 43 85 L 54 72 Q 63 71 74 71" fill="#CCCCCC"/><path d="M 51 116 Q 48 119 46 116 Q 41 112 41 110 Q 41 107 43 105 Q 47 103 70 77 L 74 71 Q 84 55 84 49 Q 84 46 86 46 Q 88 45 91 47 Q 97 51 99 55 Q 100 57 97 59 Q 92 63 86 70 Q 67 90 59 101 Q 56 104 61 103" fill="#CCCCCC"/><path d="M 65 107 L 51 116 L 61 103 Q 73 99 84 98 L 83 102" fill="#CCCCCC"/><path d="M 84 98 Q 87 92 87 85 Q 87 82 89 82 Q 91 82 95 85 Q 101 89 102 91 Q 103 93 101 95 Q 98 99 95 103 Q 81 129 63 140 Q 44 152 38 150 Q 37 149 39 148 Q 73 125 82 103 Q 83 103 83 102" fill="#CCCCCC"/><path d="M 120 13 L 120 11 Q 119 9 120 8 Q 122 8 125 8 Q 140 11 144 19 Q 144 22 143 24 Q 142 27 139 27 Q 132 24 123 15" fill="#CCCCCC"/><path d="M 119 36 Q 136 32 151 26 Q 154 25 158 26 Q 164 30 167 33 L 151 34 Q 148 32 138 36 Q 122 40 121 41" fill="#CCCCCC"/><path d="M 167 33 Q 170 37 167 40 Q 161 47 160 61 Q 157 73 154 76 Q 149 81 145 74 Q 145 73 144 72 L 147 67 Q 148 65 152 40 Q 153 35 151 34" fill="#CCCCCC"/><path d="M 120 54 Q 127 49 136 49 Q 140 49 143 52 Q 144 54 140 55 Q 132 57 120 60" fill="#CCCCCC"/><path d="M 144 72 Q 134 74 121 76 Q 120 76 119 76 L 120 71 Q 124 69 130 67 Q 142 63 147 67" fill="#CCCCCC"/><path d="M 120 64 L 120 71 L 119 76 Q 119 82 119 89 Q 118 94 120 95 L 115 113 Q 112 116 109 115 Q 104 112 103 110 Q 101 107 104 104 Q 109 97 110 91 Q 115 48 107 36 Q 104 32 106 31 Q 108 30 111 31 Q 115 33 119 36 L 121 41 Q 120 47 120 54 L 120 60" fill="#CCCCCC"/><path d="M 146 95 L 143 96 Q 120 106 115 113 L 120 95 Q 122 96 147 89 L 149 93" fill="#CCCCCC"/><path d="M 147 89 Q 144 84 144 83 Q 145 81 147 81 Q 150 83 157 88 Q 161 91 162 95 Q 163 99 163 101 Q 161 104 158 103 Q 156 102 149 93" fill="#CCCCCC"/><path d="M 198 30 L 210 24 Q 214 21 218 23 Q 231 30 232 32 Q 233 35 229 38 L 209 36 Q 208 35 205 36 Q 195 39 189 40 L 187 34" fill="#CCCCCC"/><path d="M 229 38 Q 219 45 207 56 Q 203 60 203 63 L 194 64 Q 196 62 197 60 Q 201 53 206 44 Q 210 38 209 36" fill="#CCCCCC"/><path d="M 203 63 Q 204 66 208 69 Q 231 87 233 95 Q 235 102 233 109 Q 231 115 227 117 L 217 95 Q 216 87 194 64" fill="#CCCCCC"/><path d="M 227 117 Q 223 118 219 116 Q 216 112 200 100 Q 197 99 197 98 Q 198 97 201 97 Q 206 98 212 99 Q 219 100 217 95" fill="#CCCCCC"/><path d="M 189 40 Q 188 45 188 49 Q 187 79 187 87 Q 188 112 182 117 Q 181 117 180 116 Q 177 111 177 74 Q 177 39 173 34 Q 172 32 174 31 Q 177 29 179 30 Q 181 30 187 34" fill="#CCCCCC"/><path d="M 138 124 Q 137 124 137 124 Q 134 120 131 117 Q 126 114 125 112 Q 125 110 126 109 Q 127 109 130 109 Q 142 111 144 115 Q 145 120 145 123" fill="#CCCCCC"/><path d="M 149 131 Q 127 135 103 139 Q 94 140 90 137 Q 85 134 89 133 Q 112 129 138 124 L 145 123 Q 167 118 171 119 Q 177 120 179 124 Q 180 126 176 127 Q 166 128 156 130" fill="#CCCCCC"/><path d="M 103 162 Q 92 151 94 144 Q 94 142 95 142 Q 101 142 108 151 Q 110 154 109 158 Q 109 160 108 162" fill="#CCCCCC"/><path d="M 143 156 L 144 154 Q 151 138 150 132 Q 149 131 149 131 L 156 130 Q 163 138 163 139 Q 165 141 162 143 Q 159 145 158 147 Q 154 152 151 155 Q 150 156 150 157 L 142 157" fill="#CCCCCC"/><path d="M 150 157 Q 188 151 212 146 Q 222 145 236 155 Q 240 158 238 162 Q 237 164 232 164 Q 226 163 219 163 Q 112 163 51 180 Q 47 181 41 179 Q 36 178 33 174 Q 29 170 35 169 Q 70 165 103 162 L 108 162 Q 137 157 142 157" fill="#CCCCCC"/><path d="M 103 247 L 100 251 Q 98 253 95 251 Q 87 240 90 228 Q 94 203 88 183 Q 86 180 88 179 Q 90 178 92 179 Q 98 181 100 183 L 104 190 Q 103 190 103 207 L 103 213 Q 103 224 103 235 L 103 243" fill="#CCCCCC"/><path d="M 160 184 Q 157 181 150 182 Q 121 188 104 190 L 100 183 Q 140 178 156 171 Q 160 169 164 171 Q 177 177 181 182" fill="#CCCCCC"/><path d="M 162 231 Q 163 228 163 219 Q 163 187 160 184 L 181 182 Q 183 184 181 187 Q 176 193 178 217 Q 180 244 176 253 Q 171 261 167 261 Q 164 261 163 257" fill="#CCCCCC"/><path d="M 158 234 Q 161 235 162 231 L 163 257 Q 157 248 150 238" fill="#CCCCCC"/><path d="M 103 207 Q 103 207 103 207 Q 112 207 119 206 Q 126 204 131 203 Q 137 200 143 201 Q 149 203 150 205 Q 151 207 149 209 Q 149 209 143 210 Q 136 212 129 213 Q 110 215 103 213" fill="#CCCCCC"/><path d="M 103 235 Q 120 233 142 228 Q 149 227 152 229 Q 157 232 158 234 L 150 238 Q 119 240 104 243 Q 103 243 103 243" fill="#CCCCCC"/><path d="M 43 85 Q 40 86 38 84 Q 35 80 35 76 Q 34 73 38 70 Q 45 65 49 60 Q 68 34 65 26 Q 64 22 67 22 Q 71 22 73 25 Q 81 33 81 35 Q 82 37 78 40 Q 65 53 52 69 Q 50 72 54 72" fill="#000080" clip-path="url(#clip-mask-1)" /><path d="M 70 77 Q 49 81 43 85 L 54 72 Q 63 71 74 71" fill="#000080" clip-path="url(#clip-mask-2)" /><path d="M 51 116 Q 48 119 46 116 Q 41 112 41 110 Q 41 107 43 105 Q 47 103 70 77 L 74 71 Q 84 55 84 49 Q 84 46 86 46 Q 88 45 91 47 Q 97 51 99 55 Q 100 57 97 59 Q 92 63 86 70 Q 67 90 59 101 Q 56 104 61 103" fill="#000080" clip-path="url(#clip-mask-3)" /><path d="M 65 107 L 51 116 L 61 103 Q 73 99 84 98 L 83 102" fill="#000080" clip-path="url(#clip-mask-4)" /><path d="M 84 98 Q 87 92 87 85 Q 87 82 89 82 Q 91 82 95 85 Q 101 89 102 91 Q 103 93 101 95 Q 98 99 95 103 Q 81 129 63 140 Q 44 152 38 150 Q 37 149 39 148 Q 73 125 82 103 Q 83 103 83 102" fill="#000080" clip-path="url(#clip-mask-5)" /><path d="M 120 13 L 120 11 Q 119 9 120 8 Q 122 8 125 8 Q 140 11 144 19 Q 144 22 143 24 Q 142 27 139 27 Q 132 24 123 15" fill="#000080" clip-path="url(#clip-mask-6)" /><path d="M 119 36 Q 136 32 151 26 Q 154 25 158 26 Q 164 30 167 33 L 151 34 Q 148 32 138 36 Q 122 40 121 41" fill="#000080" clip-path="url(#clip-mask-7)" /><path d="M 167 33 Q 170 37 167 40 Q 161 47 160 61 Q 157 73 154 76 Q 149 81 145 74 Q 145 73 144 72 L 147 67 Q 148 65 152 40 Q 153 35 151 34" fill="#000080" clip-path="url(#clip-mask-8)" /><path d="M 120 54 Q 127 49 136 49 Q 140 49 143 52 Q 144 54 140 55 Q 132 57 120 60" fill="#000080" clip-path="url(#clip-mask-9)" /><path d="M 144 72 Q 134 74 121 76 Q 120 76 119 76 L 120 71 Q 124 69 130 67 Q 142 63 147 67" fill="#000080" clip-path="url(#clip-mask-10)" /><path d="M 120 64 L 120 71 L 119 76 Q 119 82 119 89 Q 118 94 120 95 L 115 113 Q 112 116 109 115 Q 104 112 103 110 Q 101 107 104 104 Q 109 97 110 91 Q 115 48 107 36 Q 104 32 106 31 Q 108 30 111 31 Q 115 33 119 36 L 121 41 Q 120 47 120 54 L 120 60" fill="#000080" clip-path="url(#clip-mask-11)" /><path d="M 146 95 L 143 96 Q 120 106 115 113 L 120 95 Q 122 96 147 89 L 149 93" fill="#000080" clip-path="url(#clip-mask-12)" /><path d="M 147 89 Q 144 84 144 83 Q 145 81 147 81 Q 150 83 157 88 Q 161 91 162 95 Q 163 99 163 101 Q 161 104 158 103 Q 156 102 149 93" fill="#000080" clip-path="url(#clip-mask-13)" /><path d="M 198 30 L 210 24 Q 214 21 218 23 Q 231 30 232 32 Q 233 35 229 38 L 209 36 Q 208 35 205 36 Q 195 39 189 40 L 187 34" fill="#000080" clip-path="url(#clip-mask-14)" /><path d="M 229 38 Q 219 45 207 56 Q 203 60 203 63 L 194 64 Q 196 62 197 60 Q 201 53 206 44 Q 210 38 209 36" fill="#000080" clip-path="url(#clip-mask-15)" /><path d="M 203 63 Q 204 66 208 69 Q 231 87 233 95 Q 235 102 233 109 Q 231 115 227 117 L 217 95 Q 216 87 194 64" fill="#000080" clip-path="url(#clip-mask-16)" /><path d="M 227 117 Q 223 118 219 116 Q 216 112 200 100 Q 197 99 197 98 Q 198 97 201 97 Q 206 98 212 99 Q 219 100 217 95" fill="#000080" clip-path="url(#clip-mask-17)" /><path d="M 189 40 Q 188 45 188 49 Q 187 79 187 87 Q 188 112 182 117 Q 181 117 180 116 Q 177 111 177 74 Q 177 39 173 34 Q 172 32 174 31 Q 177 29 179 30 Q 181 30 187 34" fill="#000080" clip-path="url(#clip-mask-18)" /><path d="M 138 124 Q 137 124 137 124 Q 134 120 131 117 Q 126 114 125 112 Q 125 110 126 109 Q 127 109 130 109 Q 142 111 144 115 Q 145 120 145 123" fill="#0000ff" clip-path="url(#clip-mask-19)" /><path d="M 149 131 Q 127 135 103 139 Q 94 140 90 137 Q 85 134 89 133 Q 112 129 138 124 L 145 123 Q 167 118 171 119 Q 177 120 179 124 Q 180 126 176 127 Q 166 128 156 130" fill="#0000ff" clip-path="url(#clip-mask-20)" /><path d="M 103 162 Q 92 151 94 144 Q 94 142 95 142 Q 101 142 108 151 Q 110 154 109 158 Q 109 160 108 162" fill="#0000ff" clip-path="url(#clip-mask-21)" /><path d="M 143 156 L 144 154 Q 151 138 150 132 Q 149 131 149 131 L 156 130 Q 163 138 163 139 Q 165 141 162 143 Q 159 145 158 147 Q 154 152 151 155 Q 150 156 150 157 L 142 157" fill="#0000ff" clip-path="url(#clip-mask-22)" /><path d="M 150 157 Q 188 151 212 146 Q 222 145 236 155 Q 240 158 238 162 Q 237 164 232 164 Q 226 163 219 163 Q 112 163 51 180 Q 47 181 41 179 Q 36 178 33 174 Q 29 170 35 169 Q 70 165 103 162 L 108 162 Q 137 157 142 157" fill="#0000ff" clip-path="url(#clip-mask-23)" /><path d="M 103 247 L 100 251 Q 98 253 95 251 Q 87 240 90 228 Q 94 203 88 183 Q 86 180 88 179 Q 90 178 92 179 Q 98 181 100 183 L 104 190 Q 103 190 103 207 L 103 213 Q 103 224 103 235 L 103 243" fill="#0000ff" clip-path="url(#clip-mask-24)" /><path d="M 160 184 Q 157 181 150 182 Q 121 188 104 190 L 100 183 Q 140 178 156 171 Q 160 169 164 171 Q 177 177 181 182" fill="#0000ff" clip-path="url(#clip-mask-25)" /><path d="M 162 231 Q 163 228 163 219 Q 163 187 160 184 L 181 182 Q 183 184 181 187 Q 176 193 178 217 Q 180 244 176 253 Q 171 261 167 261 Q 164 261 163 257" fill="#0000ff" clip-path="url(#clip-mask-26)" /><path d="M 158 234 Q 161 235 162 231 L 163 257 Q 157 248 150 238" fill="#0000ff" clip-path="url(#clip-mask-27)" /><path d="M 103 207 Q 103 207 103 207 Q 112 207 119 206 Q 126 204 131 203 Q 137 200 143 201 Q 149 203 150 205 Q 151 207 149 209 Q 149 209 143 210 Q 136 212 129 213 Q 110 215 103 213" fill="#0000ff" clip-path="url(#clip-mask-28)" /><path d="M 103 235 Q 120 233 142 228 Q 149 227 152 229 Q 157 232 158 234 L 150 238 Q 119 240 104 243 Q 103 243 103 243" fill="#0000ff" clip-path="url(#clip-mask-29)" /></svg>