<svg xmlns="http://www.w3.org/2000/svg" xmlns:xlink="http://www.w3.org/1999/xlink" width="270" height="270"><defs><clipPath id="clip-mask-1"><rect x="10" y="12" width="98" height="129"><animate attributeName="y" from="-117" to="12" dur="0.478" begin="0; animate16.end + 1" id="animate1" fill="freeze"/></rect></clipPath><clipPath id="clip-mask-2"><rect x="99" y="35" width="31" height="24"><set attributeName="x" to="68" begin="0; animate16.end + 1" /><animate attributeName="x" from="68" to="99" dur="0.115" begin="animate1.end + 0.5" id="animate2" fill="freeze"/></rect></clipPath><clipPath id="clip-mask-3"><rect x="84" y="62" width="25" height="19"><set attributeName="x" to="59" begin="0; animate16.end + 1" /><animate attributeName="x" from="59" to="84" dur="0.093" begin="animate2.end + 0.5" id="animate3" fill="freeze"/></rect></clipPath><clipPath id="clip-mask-4"><rect x="72" y="90" width="58" height="22"><set attributeName="x" to="14" begin="0; animate16.end + 1" /><animate attributeName="x" from="14" to="72" dur="0.215" begin="animate3.end + 0.5" id="animate4" fill="freeze"/></rect></clipPath><clipPath id="clip-mask-5"><rect x="99" y="101" width="33" height="60"><set attributeName="y" to="41" begin="0; animate16.end + 1" /><animate attributeName="y" from="41" to="101" dur="0.222" begin="animate4.end" id="animate5" fill="freeze"/></rect></clipPath><clipPath id="clip-mask-6"><rect x="76" y="122" width="25" height="13"><set attributeName="x" to="51" begin="0; animate16.end + 1" /><animate attributeName="x" from="51" to="76" dur="0.093" begin="animate5.end + 0.5" id="animate6" fill="freeze"/></rect></clipPath><clipPath id="clip-mask-7"><rect x="75" y="143" width="25" height="16"><set attributeName="x" to="50" begin="0; animate16.end + 1" /><animate attributeName="x" from="50" to="75" dur="0.093" begin="animate6.end + 0.5" id="animate7" fill="freeze"/></rect></clipPath><clipPath id="clip-mask-8"><rect x="49" y="101" width="28" height="129"><set attributeName="y" to="-28" begin="0; animate16.end + 1" /><animate attributeName="y" from="-28" to="101" dur="0.478" begin="animate7.end + 0.5" id="animate8" fill="freeze"/></rect></clipPath><clipPath id="clip-mask-9"><rect x="63" y="180" width="38" height="46"><set attributeName="x" to="25" begin="0; animate16.end + 1" /><animate attributeName="x" from="25" to="63" dur="0.141" begin="animate8.end" id="animate9" fill="freeze"/></rect></clipPath><clipPath id="clip-mask-10"><rect x="93" y="165" width="26" height="32"><set attributeName="y" to="133" begin="0; animate16.end + 1" /><animate attributeName="y" from="133" to="165" dur="0.119" begin="animate9.end + 0.5" id="animate10" fill="freeze"/></rect></clipPath><clipPath id="clip-mask-11"><rect x="145" y="32" width="28" height="34"><set attributeName="y" to="-2" begin="0; animate16.end + 1" /><animate attributeName="y" from="-2" to="32" dur="0.126" begin="animate10.end + 0.5" id="animate11" fill="freeze"/></rect></clipPath><clipPath id="clip-mask-12"><rect x="186" y="17" width="48" height="58"><set attributeName="y" to="-41" begin="0; animate16.end + 1" /><animate attributeName="y" from="-41" to="17" dur="0.215" begin="animate11.end + 0.5" id="animate12" fill="freeze"/></rect></clipPath><clipPath id="clip-mask-13"><rect x="133" y="74" width="93" height="25"><set attributeName="x" to="40" begin="0; animate16.end + 1" /><animate attributeName="x" from="40" to="133" dur="0.344" begin="animate12.end + 0.5" id="animate13" fill="freeze"/></rect></clipPath><clipPath id="clip-mask-14"><rect x="117" y="117" width="142" height="38"><set attributeName="x" to="-25" begin="0; animate16.end + 1" /><animate attributeName="x" from="-25" to="117" dur="0.526" begin="animate13.end + 0.5" id="animate14" fill="freeze"/></rect></clipPath><clipPath id="clip-mask-15"><rect x="112" y="98" width="59" height="132"><set attributeName="y" to="-34" begin="0; animate16.end + 1" /><animate attributeName="y" from="-34" to="98" dur="0.489" begin="animate14.end + 0.5" id="animate15" fill="freeze"/></rect></clipPath><clipPath id="clip-mask-16"><rect x="186" y="92" width="25" height="165"><set attributeName="y" to="-73" begin="0; animate16.end + 1" /><animate attributeName="y" from="-73" to="92" dur="0.611" begin="animate15.end + 0.5" id="animate16" fill="freeze"/></rect></clipPath></defs><path d="M 0 0 L 270 270 M 270 0 L 0 270 M 135 0 L 135 270 M 0 135 L 270 135" stroke="#CCCCCC" /><path d="M 56 107 Q 50 113 45 118 Q 34 128 22 135 Q 16 140 12 141 Q 10 140 12 139 Q 40 110 51 96 Q 54 92 57 88 Q 90 39 84 17 Q 83 14 85 13 Q 88 12 94 14 Q 99 15 103 18 Q 107 21 107 23 Q 108 26 106 28 Q 104 30 102 34 Q 102 35 102 35 L 99 40 Q 92 53 86 64 L 84 67 Q 73 85 61 101" fill="#CCCCCC"/><path d="M 102 35 Q 102 35 104 35 Q 125 38 128 45 Q 130 52 129 56 Q 129 58 126 59 Q 123 59 119 57 Q 112 51 106 46 Q 101 42 99 40" fill="#CCCCCC"/><path d="M 86 64 Q 86 63 86 63 Q 99 62 105 67 Q 109 71 109 75 Q 108 80 105 80 Q 101 81 96 78 Q 85 69 84 67" fill="#CCCCCC"/><path d="M 108 102 Q 103 99 77 112 L 72 105 Q 96 95 100 95 Q 111 90 116 92 Q 126 97 130 101" fill="#CCCCCC"/><path d="M 99 145 Q 104 143 110 108 Q 111 104 108 102 L 130 101 Q 132 104 130 107 Q 124 113 123 120 Q 116 150 113 156 Q 109 161 106 159 Q 103 157 100 153" fill="#CCCCCC"/><path d="M 76 126 Q 84 122 89 122 Q 95 122 98 125 Q 101 128 96 130 Q 87 132 76 135" fill="#CCCCCC"/><path d="M 75 151 Q 95 143 98 144 Q 99 145 99 145 L 100 153 Q 81 156 75 159" fill="#CCCCCC"/><path d="M 63 226 Q 60 230 57 227 Q 53 225 51 218 Q 49 212 51 209 Q 60 199 61 190 Q 65 177 65 149 Q 64 117 56 108 Q 56 107 56 107 L 61 101 Q 69 103 72 105 L 77 112 Q 77 112 77 113 Q 76 115 76 126 L 76 135 Q 75 142 75 151 L 75 159 Q 74 192 76 194" fill="#CCCCCC"/><path d="M 72 212 L 63 226 L 76 194 Q 77 194 79 193 Q 92 184 98 180 L 101 184" fill="#CCCCCC"/><path d="M 98 180 Q 93 171 94 169 Q 94 166 96 166 Q 98 165 102 168 Q 118 178 119 188 Q 118 192 117 194 Q 113 197 110 195 Q 105 191 101 184" fill="#CCCCCC"/><path d="M 145 39 L 145 36 Q 145 33 146 33 Q 147 32 149 33 Q 160 35 168 43 Q 173 48 173 55 Q 173 59 170 62 Q 167 66 163 64 Q 155 58 148 44" fill="#CCCCCC"/><path d="M 207 28 L 205 23 Q 203 20 207 18 Q 210 17 217 19 Q 225 22 230 25 Q 234 29 229 33 Q 222 38 209 54 Q 203 62 191 73 Q 186 75 188 70 Q 202 44 205 34" fill="#CCCCCC"/><path d="M 186 94 Q 166 98 162 99 L 148 98 Q 143 97 140 96 Q 133 91 143 89 Q 145 89 183 82 Q 208 74 215 76 Q 223 77 224 81 Q 226 83 223 85 Q 222 86 198 92" fill="#CCCCCC"/><path d="M 180 141 L 165 145 L 152 148 Q 147 149 143 151 Q 129 155 121 148 Q 117 144 122 144 Q 138 140 153 138 L 166 136 Q 189 130 193 130 L 207 126 Q 216 124 224 123 Q 241 117 255 127 Q 259 130 258 133 Q 257 135 242 136 Q 223 136 207 138 L 194 140" fill="#CCCCCC"/><path d="M 165 145 Q 160 192 140 213 Q 124 230 115 230 Q 112 230 112 228 Q 113 227 114 226 Q 119 218 127 213 Q 152 183 152 148 L 153 138 Q 154 110 150 102 Q 148 99 148 98 L 162 99 Q 164 100 166 101 Q 171 103 169 108 Q 168 114 166 136" fill="#CCCCCC"/><path d="M 193 130 Q 193 128 193 127 Q 193 110 187 96 Q 186 95 186 94 L 198 92 Q 202 93 207 97 Q 211 99 210 104 Q 207 119 207 126 L 207 138 Q 206 187 207 201 Q 208 220 206 239 Q 205 253 200 257 Q 199 257 197 255 Q 192 247 194 140" fill="#CCCCCC"/><path d="M 56 107 Q 50 113 45 118 Q 34 128 22 135 Q 16 140 12 141 Q 10 140 12 139 Q 40 110 51 96 Q 54 92 57 88 Q 90 39 84 17 Q 83 14 85 13 Q 88 12 94 14 Q 99 15 103 18 Q 107 21 107 23 Q 108 26 106 28 Q 104 30 102 34 Q 102 35 102 35 L 99 40 Q 92 53 86 64 L 84 67 Q 73 85 61 101" fill="#0000ff" clip-path="url(#clip-mask-1)" /><path d="M 102 35 Q 102 35 104 35 Q 125 38 128 45 Q 130 52 129 56 Q 129 58 126 59 Q 123 59 119 57 Q 112 51 106 46 Q 101 42 99 40" fill="#0000ff" clip-path="url(#clip-mask-2)" /><path d="M 86 64 Q 86 63 86 63 Q 99 62 105 67 Q 109 71 109 75 Q 108 80 105 80 Q 101 81 96 78 Q 85 69 84 67" fill="#0000ff" clip-path="url(#clip-mask-3)" /><path d="M 108 102 Q 103 99 77 112 L 72 105 Q 96 95 100 95 Q 111 90 116 92 Q 126 97 130 101" fill="#0000ff" clip-path="url(#clip-mask-4)" /><path d="M 99 145 Q 104 143 110 108 Q 111 104 108 102 L 130 101 Q 132 104 130 107 Q 124 113 123 120 Q 116 150 113 156 Q 109 161 106 159 Q 103 157 100 153" fill="#0000ff" clip-path="url(#clip-mask-5)" /><path d="M 76 126 Q 84 122 89 122 Q 95 122 98 125 Q 101 128 96 130 Q 87 132 76 135" fill="#0000ff" clip-path="url(#clip-mask-6)" /><path d="M 75 151 Q 95 143 98 144 Q 99 145 99 145 L 100 153 Q 81 156 75 159" fill="#0000ff" clip-path="url(#clip-mask-7)" /><path d="M 63 226 Q 60 230 57 227 Q 53 225 51 218 Q 49 212 51 209 Q 60 199 61 190 Q 65 177 65 149 Q 64 117 56 108 Q 56 107 56 107 L 61 101 Q 69 103 72 105 L 77 112 Q 77 112 77 113 Q 76 115 76 126 L 76 135 Q 75 142 75 151 L 75 159 Q 74 192 76 194" fill="#0000ff" clip-path="url(#clip-mask-8)" /><path d="M 72 212 L 63 226 L 76 194 Q 77 194 79 193 Q 92 184 98 180 L 101 184" fill="#0000ff" clip-path="url(#clip-mask-9)" /><path d="M 98 180 Q 93 171 94 169 Q 94 166 96 166 Q 98 165 102 168 Q 118 178 119 188 Q 118 192 117 194 Q 113 197 110 195 Q 105 191 101 184" fill="#0000ff" clip-path="url(#clip-mask-10)" /><path d="M 145 39 L 145 36 Q 145 33 146 33 Q 147 32 149 33 Q 160 35 168 43 Q 173 48 173 55 Q 173 59 170 62 Q 167 66 163 64 Q 155 58 148 44" fill="#000080" clip-path="url(#clip-mask-11)" /><path d="M 207 28 L 205 23 Q 203 20 207 18 Q 210 17 217 19 Q 225 22 230 25 Q 234 29 229 33 Q 222 38 209 54 Q 203 62 191 73 Q 186 75 188 70 Q 202 44 205 34" fill="#000080" clip-path="url(#clip-mask-12)" /><path d="M 186 94 Q 166 98 162 99 L 148 98 Q 143 97 140 96 Q 133 91 143 89 Q 145 89 183 82 Q 208 74 215 76 Q 223 77 224 81 Q 226 83 223 85 Q 222 86 198 92" fill="#000080" clip-path="url(#clip-mask-13)" /><path d="M 180 141 L 165 145 L 152 148 Q 147 149 143 151 Q 129 155 121 148 Q 117 144 122 144 Q 138 140 153 138 L 166 136 Q 189 130 193 130 L 207 126 Q 216 124 224 123 Q 241 117 255 127 Q 259 130 258 133 Q 257 135 242 136 Q 223 136 207 138 L 194 140" fill="#000080" clip-path="url(#clip-mask-14)" /><path d="M 165 145 Q 160 192 140 213 Q 124 230 115 230 Q 112 230 112 228 Q 113 227 114 226 Q 119 218 127 213 Q 152 183 152 148 L 153 138 Q 154 110 150 102 Q 148 99 148 98 L 162 99 Q 164 100 166 101 Q 171 103 169 108 Q 168 114 166 136" fill="#000080" clip-path="url(#clip-mask-15)" /><path d="M 193 130 Q 193 128 193 127 Q 193 110 187 96 Q 186 95 186 94 L 198 92 Q 202 93 207 97 Q 211 99 210 104 Q 207 119 207 126 L 207 138 Q 206 187 207 201 Q 208 220 206 239 Q 205 253 200 257 Q 199 257 197 255 Q 192 247 194 140" fill="#000080" clip-path="url(#clip-mask-16)" /></svg>