<svg xmlns="http://www.w3.org/2000/svg" xmlns:xlink="http://www.w3.org/1999/xlink" width="270" height="270"><defs><clipPath id="clip-mask-1"><rect x="33" y="18" width="63" height="76"><animate attributeName="y" from="-58" to="18" dur="0.281" begin="0; animate19.end + 1" id="animate1" fill="freeze"/></rect></clipPath><clipPath id="clip-mask-2"><rect x="75" y="48" width="55" height="16"><set attributeName="x" to="20" begin="0; animate19.end + 1" /><animate attributeName="x" from="20" to="75" dur="0.204" begin="animate1.end + 0.5" id="animate2" fill="freeze"/></rect></clipPath><clipPath id="clip-mask-3"><rect x="76" y="61" width="49" height="40"><set attributeName="y" to="21" begin="0; animate19.end + 1" /><animate attributeName="y" from="21" to="61" dur="0.148" begin="animate2.end" id="animate3" fill="freeze"/></rect></clipPath><clipPath id="clip-mask-4"><rect x="32" y="104" width="29" height="67"><set attributeName="y" to="37" begin="0; animate19.end + 1" /><animate attributeName="y" from="37" to="104" dur="0.248" begin="animate3.end + 0.5" id="animate4" fill="freeze"/></rect></clipPath><clipPath id="clip-mask-5"><rect x="48" y="93" width="86" height="21"><set attributeName="x" to="-38" begin="0; animate19.end + 1" /><animate attributeName="x" from="-38" to="48" dur="0.319" begin="animate4.end + 0.5" id="animate5" fill="freeze"/></rect></clipPath><clipPath id="clip-mask-6"><rect x="102" y="104" width="35" height="63"><set attributeName="y" to="41" begin="0; animate19.end + 1" /><animate attributeName="y" from="41" to="104" dur="0.233" begin="animate5.end" id="animate6" fill="freeze"/></rect></clipPath><clipPath id="clip-mask-7"><rect x="58" y="124" width="48" height="13"><set attributeName="x" to="10" begin="0; animate19.end + 1" /><animate attributeName="x" from="10" to="58" dur="0.178" begin="animate6.end + 0.5" id="animate7" fill="freeze"/></rect></clipPath><clipPath id="clip-mask-8"><rect x="74" y="108" width="15" height="45"><set attributeName="y" to="63" begin="0; animate19.end + 1" /><animate attributeName="y" from="63" to="108" dur="0.167" begin="animate7.end + 0.5" id="animate8" fill="freeze"/></rect></clipPath><clipPath id="clip-mask-9"><rect x="60" y="149" width="46" height="14"><set attributeName="x" to="14" begin="0; animate19.end + 1" /><animate attributeName="x" from="14" to="60" dur="0.170" begin="animate8.end + 0.5" id="animate9" fill="freeze"/></rect></clipPath><clipPath id="clip-mask-10"><rect x="18" y="170" width="20" height="54"><set attributeName="y" to="116" begin="0; animate19.end + 1" /><animate attributeName="y" from="116" to="170" dur="0.200" begin="animate9.end + 0.5" id="animate10" fill="freeze"/></rect></clipPath><clipPath id="clip-mask-11"><rect x="48" y="178" width="19" height="30"><set attributeName="y" to="148" begin="0; animate19.end + 1" /><animate attributeName="y" from="148" to="178" dur="0.111" begin="animate10.end + 0.5" id="animate11" fill="freeze"/></rect></clipPath><clipPath id="clip-mask-12"><rect x="75" y="174" width="20" height="27"><set attributeName="y" to="147" begin="0; animate19.end + 1" /><animate attributeName="y" from="147" to="174" dur="0.100" begin="animate11.end + 0.5" id="animate12" fill="freeze"/></rect></clipPath><clipPath id="clip-mask-13"><rect x="98" y="169" width="24" height="27"><set attributeName="y" to="142" begin="0; animate19.end + 1" /><animate attributeName="y" from="142" to="169" dur="0.100" begin="animate12.end + 0.5" id="animate13" fill="freeze"/></rect></clipPath><clipPath id="clip-mask-14"><rect x="139" y="27" width="26" height="33"><set attributeName="y" to="-6" begin="0; animate19.end + 1" /><animate attributeName="y" from="-6" to="27" dur="0.122" begin="animate13.end + 0.5" id="animate14" fill="freeze"/></rect></clipPath><clipPath id="clip-mask-15"><rect x="177" y="17" width="49" height="50"><set attributeName="y" to="-33" begin="0; animate19.end + 1" /><animate attributeName="y" from="-33" to="17" dur="0.185" begin="animate14.end + 0.5" id="animate15" fill="freeze"/></rect></clipPath><clipPath id="clip-mask-16"><rect x="135" y="69" width="87" height="25"><set attributeName="x" to="48" begin="0; animate19.end + 1" /><animate attributeName="x" from="48" to="135" dur="0.322" begin="animate15.end + 0.5" id="animate16" fill="freeze"/></rect></clipPath><clipPath id="clip-mask-17"><rect x="142" y="105" width="72" height="20"><set attributeName="x" to="70" begin="0; animate19.end + 1" /><animate attributeName="x" from="70" to="142" dur="0.267" begin="animate16.end + 0.5" id="animate17" fill="freeze"/></rect></clipPath><clipPath id="clip-mask-18"><rect x="119" y="132" width="132" height="29"><set attributeName="x" to="-13" begin="0; animate19.end + 1" /><animate attributeName="x" from="-13" to="119" dur="0.489" begin="animate17.end + 0.5" id="animate18" fill="freeze"/></rect></clipPath><clipPath id="clip-mask-19"><rect x="164" y="88" width="25" height="164"><set attributeName="y" to="-76" begin="0; animate19.end + 1" /><animate attributeName="y" from="-76" to="88" dur="0.607" begin="animate18.end + 0.5" id="animate19" fill="freeze"/></rect></clipPath></defs><path d="M 0 0 L 270 270 M 270 0 L 0 270 M 135 0 L 135 270 M 0 135 L 270 135" stroke="#CCCCCC" /><path d="M 75 59 Q 47 92 37 94 Q 33 94 34 92 Q 35 91 37 88 Q 50 74 59 61 Q 79 33 75 23 Q 74 18 78 18 Q 82 18 88 22 Q 94 28 95 31 Q 96 34 93 37 Q 87 42 78 55" fill="#CCCCCC"/><path d="M 100 61 Q 99 60 94 61 Q 78 62 75 59 L 78 55 Q 83 54 96 52 Q 112 48 115 49 Q 123 55 127 58 Q 130 62 125 64" fill="#CCCCCC"/><path d="M 76 101 Q 77 100 79 97 Q 87 87 99 65 Q 101 62 100 61 L 125 64 Q 113 71 101 83 Q 90 94 85 100" fill="#CCCCCC"/><path d="M 60 166 L 60 168 Q 59 171 54 166 Q 49 161 48 153 Q 43 127 35 111 Q 32 107 34 105 Q 35 104 38 105 Q 45 106 48 107 L 52 114 Q 53 123 59 150 Q 60 154 60 157 L 61 163" fill="#CCCCCC"/><path d="M 48 107 Q 71 101 76 101 L 85 100 Q 93 97 102 96 Q 117 93 120 95 Q 130 100 134 104 L 112 106 Q 107 102 82 108 L 74 109 Q 61 112 52 114" fill="#CCCCCC"/><path d="M 106 150 Q 109 143 114 113 Q 115 108 112 106 L 134 104 Q 137 108 133 110 Q 128 116 126 123 Q 120 156 116 162 Q 113 167 110 165 Q 106 163 102 156" fill="#CCCCCC"/><path d="M 87 125 Q 92 124 96 124 Q 102 125 104 128 Q 106 131 101 132 Q 94 132 87 134 L 77 136 L 63 137 Q 58 134 62 133 Q 69 130 77 128" fill="#CCCCCC"/><path d="M 82 108 Q 85 109 87 112 Q 89 114 88 117 Q 87 121 87 125 L 87 134 Q 86 142 86 151 L 78 153 Q 77 143 77 136 L 77 128 Q 77 116 74 109" fill="#CCCCCC"/><path d="M 60 157 Q 68 155 78 153 L 86 151 Q 100 149 103 149 Q 105 149 106 150 L 102 156 Q 85 159 64 163 Q 62 163 61 163" fill="#CCCCCC"/><path d="M 32 172 L 34 170 Q 35 170 36 172 Q 37 173 38 176 Q 38 207 34 220 Q 32 223 30 224 Q 27 224 25 222 Q 22 219 21 215 Q 18 208 21 202 Q 25 189 30 176" fill="#CCCCCC"/><path d="M 48 182 L 49 180 Q 50 178 51 178 Q 51 178 51 178 Q 58 180 65 194 Q 67 198 66 202 Q 64 205 63 207 Q 59 208 58 206 Q 53 201 49 186" fill="#CCCCCC"/><path d="M 75 179 L 75 176 Q 75 174 77 174 Q 79 174 81 175 Q 95 184 95 193 Q 94 197 92 199 Q 90 201 87 199 Q 81 194 77 182" fill="#CCCCCC"/><path d="M 99 175 L 98 173 Q 99 170 100 169 Q 103 169 116 177 Q 122 181 122 185 Q 122 191 121 194 Q 119 196 117 196 Q 115 195 103 180" fill="#CCCCCC"/><path d="M 140 34 L 139 32 Q 140 29 141 28 Q 145 27 159 37 Q 165 42 165 47 Q 165 54 163 58 Q 161 60 159 60 Q 155 59 152 55 Q 149 48 145 41" fill="#CCCCCC"/><path d="M 202 26 L 201 22 Q 199 19 203 18 Q 206 17 212 20 Q 219 23 223 27 Q 226 31 221 34 Q 215 37 211 42 Q 191 58 181 66 Q 177 67 179 62 Q 196 38 199 31" fill="#CCCCCC"/><path d="M 164 92 Q 150 94 141 90 Q 135 86 143 84 Q 150 83 177 78 Q 206 69 212 70 Q 219 72 221 74 Q 222 76 220 78 Q 219 79 208 82 Q 194 85 180 88" fill="#CCCCCC"/><path d="M 169 122 Q 150 125 147 124 Q 142 120 146 119 Q 157 116 169 113 L 186 108 Q 196 105 201 106 Q 208 107 211 111 Q 214 114 207 115 Q 196 117 185 119" fill="#CCCCCC"/><path d="M 153 156 L 140 160 Q 136 161 131 160 Q 126 159 123 156 Q 119 152 124 151 Q 148 147 169 145 L 184 142 Q 203 139 217 136 Q 235 132 247 141 Q 251 145 250 147 Q 248 150 235 149 Q 204 150 184 152 L 169 154" fill="#CCCCCC"/><path d="M 169 145 Q 169 133 169 122 L 169 113 Q 169 100 164 92 L 180 88 Q 182 89 185 91 Q 189 94 187 99 Q 187 102 186 108 L 185 119 Q 184 132 184 142 L 184 152 Q 183 184 184 196 Q 184 214 182 233 Q 180 249 176 251 Q 174 252 173 250 Q 167 242 169 154" fill="#CCCCCC"/><path d="M 75 59 Q 47 92 37 94 Q 33 94 34 92 Q 35 91 37 88 Q 50 74 59 61 Q 79 33 75 23 Q 74 18 78 18 Q 82 18 88 22 Q 94 28 95 31 Q 96 34 93 37 Q 87 42 78 55" fill="#0000ff" clip-path="url(#clip-mask-1)" /><path d="M 100 61 Q 99 60 94 61 Q 78 62 75 59 L 78 55 Q 83 54 96 52 Q 112 48 115 49 Q 123 55 127 58 Q 130 62 125 64" fill="#0000ff" clip-path="url(#clip-mask-2)" /><path d="M 76 101 Q 77 100 79 97 Q 87 87 99 65 Q 101 62 100 61 L 125 64 Q 113 71 101 83 Q 90 94 85 100" fill="#0000ff" clip-path="url(#clip-mask-3)" /><path d="M 60 166 L 60 168 Q 59 171 54 166 Q 49 161 48 153 Q 43 127 35 111 Q 32 107 34 105 Q 35 104 38 105 Q 45 106 48 107 L 52 114 Q 53 123 59 150 Q 60 154 60 157 L 61 163" fill="#0000ff" clip-path="url(#clip-mask-4)" /><path d="M 48 107 Q 71 101 76 101 L 85 100 Q 93 97 102 96 Q 117 93 120 95 Q 130 100 134 104 L 112 106 Q 107 102 82 108 L 74 109 Q 61 112 52 114" fill="#0000ff" clip-path="url(#clip-mask-5)" /><path d="M 106 150 Q 109 143 114 113 Q 115 108 112 106 L 134 104 Q 137 108 133 110 Q 128 116 126 123 Q 120 156 116 162 Q 113 167 110 165 Q 106 163 102 156" fill="#0000ff" clip-path="url(#clip-mask-6)" /><path d="M 87 125 Q 92 124 96 124 Q 102 125 104 128 Q 106 131 101 132 Q 94 132 87 134 L 77 136 L 63 137 Q 58 134 62 133 Q 69 130 77 128" fill="#0000ff" clip-path="url(#clip-mask-7)" /><path d="M 82 108 Q 85 109 87 112 Q 89 114 88 117 Q 87 121 87 125 L 87 134 Q 86 142 86 151 L 78 153 Q 77 143 77 136 L 77 128 Q 77 116 74 109" fill="#0000ff" clip-path="url(#clip-mask-8)" /><path d="M 60 157 Q 68 155 78 153 L 86 151 Q 100 149 103 149 Q 105 149 106 150 L 102 156 Q 85 159 64 163 Q 62 163 61 163" fill="#0000ff" clip-path="url(#clip-mask-9)" /><path d="M 32 172 L 34 170 Q 35 170 36 172 Q 37 173 38 176 Q 38 207 34 220 Q 32 223 30 224 Q 27 224 25 222 Q 22 219 21 215 Q 18 208 21 202 Q 25 189 30 176" fill="#0000ff" clip-path="url(#clip-mask-10)" /><path d="M 48 182 L 49 180 Q 50 178 51 178 Q 51 178 51 178 Q 58 180 65 194 Q 67 198 66 202 Q 64 205 63 207 Q 59 208 58 206 Q 53 201 49 186" fill="#0000ff" clip-path="url(#clip-mask-11)" /><path d="M 75 179 L 75 176 Q 75 174 77 174 Q 79 174 81 175 Q 95 184 95 193 Q 94 197 92 199 Q 90 201 87 199 Q 81 194 77 182" fill="#0000ff" clip-path="url(#clip-mask-12)" /><path d="M 99 175 L 98 173 Q 99 170 100 169 Q 103 169 116 177 Q 122 181 122 185 Q 122 191 121 194 Q 119 196 117 196 Q 115 195 103 180" fill="#0000ff" clip-path="url(#clip-mask-13)" /><path d="M 140 34 L 139 32 Q 140 29 141 28 Q 145 27 159 37 Q 165 42 165 47 Q 165 54 163 58 Q 161 60 159 60 Q 155 59 152 55 Q 149 48 145 41" fill="#000080" clip-path="url(#clip-mask-14)" /><path d="M 202 26 L 201 22 Q 199 19 203 18 Q 206 17 212 20 Q 219 23 223 27 Q 226 31 221 34 Q 215 37 211 42 Q 191 58 181 66 Q 177 67 179 62 Q 196 38 199 31" fill="#000080" clip-path="url(#clip-mask-15)" /><path d="M 164 92 Q 150 94 141 90 Q 135 86 143 84 Q 150 83 177 78 Q 206 69 212 70 Q 219 72 221 74 Q 222 76 220 78 Q 219 79 208 82 Q 194 85 180 88" fill="#000080" clip-path="url(#clip-mask-16)" /><path d="M 169 122 Q 150 125 147 124 Q 142 120 146 119 Q 157 116 169 113 L 186 108 Q 196 105 201 106 Q 208 107 211 111 Q 214 114 207 115 Q 196 117 185 119" fill="#000080" clip-path="url(#clip-mask-17)" /><path d="M 153 156 L 140 160 Q 136 161 131 160 Q 126 159 123 156 Q 119 152 124 151 Q 148 147 169 145 L 184 142 Q 203 139 217 136 Q 235 132 247 141 Q 251 145 250 147 Q 248 150 235 149 Q 204 150 184 152 L 169 154" fill="#000080" clip-path="url(#clip-mask-18)" /><path d="M 169 145 Q 169 133 169 122 L 169 113 Q 169 100 164 92 L 180 88 Q 182 89 185 91 Q 189 94 187 99 Q 187 102 186 108 L 185 119 Q 184 132 184 142 L 184 152 Q 183 184 184 196 Q 184 214 182 233 Q 180 249 176 251 Q 174 252 173 250 Q 167 242 169 154" fill="#000080" clip-path="url(#clip-mask-19)" /></svg>