<svg xmlns="http://www.w3.org/2000/svg" xmlns:xlink="http://www.w3.org/1999/xlink" width="270" height="270"><defs><clipPath id="clip-mask-1"><rect x="76" y="30" width="96" height="27"><animate attributeName="x" from="-20" to="76" dur="0.356" begin="0; animate12.end + 1" id="animate1" fill="freeze"/></rect></clipPath><clipPath id="clip-mask-2"><rect x="109" y="11" width="28" height="112"><set attributeName="y" to="-101" begin="0; animate12.end + 1" /><animate attributeName="y" from="-101" to="11" dur="0.415" begin="animate1.end + 0.5" id="animate2" fill="freeze"/></rect></clipPath><clipPath id="clip-mask-3"><rect x="36" y="61" width="58" height="54"><set attributeName="y" to="7" begin="0; animate12.end + 1" /><animate attributeName="y" from="7" to="61" dur="0.200" begin="animate2.end + 0.5" id="animate3" fill="freeze"/></rect></clipPath><clipPath id="clip-mask-4"><rect x="75" y="88" width="23" height="20"><set attributeName="x" to="52" begin="0; animate12.end + 1" /><animate attributeName="x" from="52" to="75" dur="0.085" begin="animate3.end + 0.5" id="animate4" fill="freeze"/></rect></clipPath><clipPath id="clip-mask-5"><rect x="130" y="48" width="52" height="48"><set attributeName="y" to="0" begin="0; animate12.end + 1" /><animate attributeName="y" from="0" to="48" dur="0.178" begin="animate4.end + 0.5" id="animate5" fill="freeze"/></rect></clipPath><clipPath id="clip-mask-6"><rect x="154" y="82" width="37" height="24"><set attributeName="x" to="117" begin="0; animate12.end + 1" /><animate attributeName="x" from="117" to="154" dur="0.137" begin="animate5.end + 0.5" id="animate6" fill="freeze"/></rect></clipPath><clipPath id="clip-mask-7"><rect x="18" y="87" width="101" height="100"><set attributeName="y" to="-13" begin="0; animate12.end + 1" /><animate attributeName="y" from="-13" to="87" dur="0.370" begin="animate6.end + 0.5" id="animate7" fill="freeze"/></rect></clipPath><clipPath id="clip-mask-8"><rect x="129" y="98" width="122" height="70"><set attributeName="x" to="7" begin="0; animate12.end + 1" /><animate attributeName="x" from="7" to="129" dur="0.452" begin="animate7.end + 0.5" id="animate8" fill="freeze"/></rect></clipPath><clipPath id="clip-mask-9"><rect x="57" y="129" width="75" height="64"><set attributeName="y" to="65" begin="0; animate12.end + 1" /><animate attributeName="y" from="65" to="129" dur="0.237" begin="animate8.end + 0.5" id="animate9" fill="freeze"/></rect></clipPath><clipPath id="clip-mask-10"><rect x="111" y="144" width="58" height="20"><set attributeName="x" to="53" begin="0; animate12.end + 1" /><animate attributeName="x" from="53" to="111" dur="0.215" begin="animate9.end + 0.5" id="animate10" fill="freeze"/></rect></clipPath><clipPath id="clip-mask-11"><rect x="52" y="162" width="113" height="96"><set attributeName="y" to="66" begin="0; animate12.end + 1" /><animate attributeName="y" from="66" to="162" dur="0.356" begin="animate10.end" id="animate11" fill="freeze"/></rect></clipPath><clipPath id="clip-mask-12"><rect x="96" y="185" width="45" height="36"><set attributeName="x" to="51" begin="0; animate12.end + 1" /><animate attributeName="x" from="51" to="96" dur="0.167" begin="animate11.end + 0.5" id="animate12" fill="freeze"/></rect></clipPath></defs><path d="M 0 0 L 270 270 M 270 0 L 0 270 M 135 0 L 135 270 M 0 135 L 270 135" stroke="#CCCCCC" /><path d="M 119 53 Q 114 53 111 54 Q 91 57 83 52 Q 76 48 85 47 Q 103 45 118 41 L 133 38 Q 155 30 162 31 Q 169 33 171 36 Q 172 38 170 40 Q 169 41 132 50" fill="#CCCCCC"/><path d="M 126 120 L 124 122 Q 122 123 120 121 Q 118 116 118 109 L 119 87 Q 119 75 119 53 L 118 41 Q 118 30 112 19 Q 109 15 112 13 Q 118 11 123 13 Q 130 16 134 20 Q 137 22 135 27 Q 134 31 133 38 L 132 50 Q 132 61 129 98 L 129 106" fill="#CCCCCC"/><path d="M 64 104 L 49 112 Q 44 114 40 114 Q 36 115 39 112 Q 47 105 49 103 Q 75 82 76 64 Q 76 61 78 61 Q 83 61 91 70 Q 94 74 91 76 Q 85 81 79 88 L 75 93" fill="#CCCCCC"/><path d="M 79 88 Q 95 91 97 97 Q 98 102 98 105 Q 97 107 95 107 Q 92 108 90 105 Q 84 100 78 96 Q 76 94 75 93" fill="#CCCCCC"/><path d="M 138 96 L 133 95 Q 130 96 132 93 Q 134 91 137 89 Q 163 69 163 52 Q 163 48 166 48 Q 172 48 180 58 Q 182 62 180 64 Q 174 69 167 76 Q 164 79 161 82 L 154 87" fill="#CCCCCC"/><path d="M 161 82 Q 185 85 188 94 Q 191 100 190 103 Q 189 106 187 106 Q 184 106 181 104 Q 170 96 159 90 Q 156 88 154 87" fill="#CCCCCC"/><path d="M 118 109 Q 95 138 73 155 Q 28 187 21 186 Q 18 185 20 183 Q 64 150 83 130 Q 103 111 119 87" fill="#CCCCCC"/><path d="M 129 98 L 129 98 Q 130 99 131 100 Q 163 124 186 136 Q 190 139 247 157 Q 251 159 251 160 Q 250 162 246 163 Q 226 168 206 168 Q 192 166 129 106" fill="#CCCCCC"/><path d="M 111 161 Q 78 191 64 192 Q 57 193 62 189 Q 109 153 113 133 Q 113 130 115 130 Q 118 129 125 131 Q 130 133 131 136 Q 132 139 129 141 Q 125 145 117 154" fill="#CCCCCC"/><path d="M 138 162 Q 136 160 130 161 Q 117 164 111 161 L 117 154 Q 138 149 142 148 Q 147 144 152 147 Q 168 154 168 157 Q 169 160 165 162" fill="#CCCCCC"/><path d="M 120 193 Q 139 166 138 162 L 165 162 Q 156 169 150 176 Q 141 189 132 199 L 122 210 Q 121 211 120 212 Q 79 255 56 258 Q 52 258 56 255 Q 92 227 113 203" fill="#CCCCCC"/><path d="M 105 197 L 99 192 Q 96 190 96 187 Q 96 185 98 186 Q 115 190 120 193 L 132 199 Q 136 202 138 207 Q 141 215 139 218 Q 138 221 136 221 Q 133 220 122 210 L 113 203" fill="#CCCCCC"/><path d="M 119 53 Q 114 53 111 54 Q 91 57 83 52 Q 76 48 85 47 Q 103 45 118 41 L 133 38 Q 155 30 162 31 Q 169 33 171 36 Q 172 38 170 40 Q 169 41 132 50" fill="#0000ff" clip-path="url(#clip-mask-1)" /><path d="M 126 120 L 124 122 Q 122 123 120 121 Q 118 116 118 109 L 119 87 Q 119 75 119 53 L 118 41 Q 118 30 112 19 Q 109 15 112 13 Q 118 11 123 13 Q 130 16 134 20 Q 137 22 135 27 Q 134 31 133 38 L 132 50 Q 132 61 129 98 L 129 106" fill="#0000ff" clip-path="url(#clip-mask-2)" /><path d="M 64 104 L 49 112 Q 44 114 40 114 Q 36 115 39 112 Q 47 105 49 103 Q 75 82 76 64 Q 76 61 78 61 Q 83 61 91 70 Q 94 74 91 76 Q 85 81 79 88 L 75 93" fill="#0000ff" clip-path="url(#clip-mask-3)" /><path d="M 79 88 Q 95 91 97 97 Q 98 102 98 105 Q 97 107 95 107 Q 92 108 90 105 Q 84 100 78 96 Q 76 94 75 93" fill="#0000ff" clip-path="url(#clip-mask-4)" /><path d="M 138 96 L 133 95 Q 130 96 132 93 Q 134 91 137 89 Q 163 69 163 52 Q 163 48 166 48 Q 172 48 180 58 Q 182 62 180 64 Q 174 69 167 76 Q 164 79 161 82 L 154 87" fill="#0000ff" clip-path="url(#clip-mask-5)" /><path d="M 161 82 Q 185 85 188 94 Q 191 100 190 103 Q 189 106 187 106 Q 184 106 181 104 Q 170 96 159 90 Q 156 88 154 87" fill="#0000ff" clip-path="url(#clip-mask-6)" /><path d="M 118 109 Q 95 138 73 155 Q 28 187 21 186 Q 18 185 20 183 Q 64 150 83 130 Q 103 111 119 87" fill="#0000ff" clip-path="url(#clip-mask-7)" /><path d="M 129 98 L 129 98 Q 130 99 131 100 Q 163 124 186 136 Q 190 139 247 157 Q 251 159 251 160 Q 250 162 246 163 Q 226 168 206 168 Q 192 166 129 106" fill="#0000ff" clip-path="url(#clip-mask-8)" /><path d="M 111 161 Q 78 191 64 192 Q 57 193 62 189 Q 109 153 113 133 Q 113 130 115 130 Q 118 129 125 131 Q 130 133 131 136 Q 132 139 129 141 Q 125 145 117 154" fill="#0000ff" clip-path="url(#clip-mask-9)" /><path d="M 138 162 Q 136 160 130 161 Q 117 164 111 161 L 117 154 Q 138 149 142 148 Q 147 144 152 147 Q 168 154 168 157 Q 169 160 165 162" fill="#0000ff" clip-path="url(#clip-mask-10)" /><path d="M 120 193 Q 139 166 138 162 L 165 162 Q 156 169 150 176 Q 141 189 132 199 L 122 210 Q 121 211 120 212 Q 79 255 56 258 Q 52 258 56 255 Q 92 227 113 203" fill="#0000ff" clip-path="url(#clip-mask-11)" /><path d="M 105 197 L 99 192 Q 96 190 96 187 Q 96 185 98 186 Q 115 190 120 193 L 132 199 Q 136 202 138 207 Q 141 215 139 218 Q 138 221 136 221 Q 133 220 122 210 L 113 203" fill="#0000ff" clip-path="url(#clip-mask-12)" /></svg>