<svg xmlns="http://www.w3.org/2000/svg" xmlns:xlink="http://www.w3.org/1999/xlink" width="270" height="270"><defs><clipPath id="clip-mask-1"><rect x="26" y="61" width="101" height="30"><animate attributeName="x" from="-75" to="26" dur="0.374" begin="0; animate15.end + 1" id="animate1" fill="freeze"/></rect></clipPath><clipPath id="clip-mask-2"><rect x="67" y="32" width="28" height="73"><set attributeName="y" to="-41" begin="0; animate15.end + 1" /><animate attributeName="y" from="-41" to="32" dur="0.270" begin="animate1.end + 0.5" id="animate2" fill="freeze"/></rect></clipPath><clipPath id="clip-mask-3"><rect x="43" y="96" width="68" height="24"><set attributeName="x" to="-25" begin="0; animate15.end + 1" /><animate attributeName="x" from="-25" to="43" dur="0.252" begin="animate2.end + 0.5" id="animate3" fill="freeze"/></rect></clipPath><clipPath id="clip-mask-4"><rect x="36" y="136" width="26" height="43"><set attributeName="y" to="93" begin="0; animate15.end + 1" /><animate attributeName="y" from="93" to="136" dur="0.159" begin="animate3.end + 0.5" id="animate4" fill="freeze"/></rect></clipPath><clipPath id="clip-mask-5"><rect x="50" y="118" width="72" height="26"><set attributeName="x" to="-22" begin="0; animate15.end + 1" /><animate attributeName="x" from="-22" to="50" dur="0.267" begin="animate4.end + 0.5" id="animate5" fill="freeze"/></rect></clipPath><clipPath id="clip-mask-6"><rect x="97" y="132" width="28" height="22"><set attributeName="y" to="110" begin="0; animate15.end + 1" /><animate attributeName="y" from="110" to="132" dur="0.081" begin="animate5.end" id="animate6" fill="freeze"/></rect></clipPath><clipPath id="clip-mask-7"><rect x="60" y="153" width="55" height="18"><set attributeName="x" to="5" begin="0; animate15.end + 1" /><animate attributeName="x" from="5" to="60" dur="0.204" begin="animate6.end + 0.5" id="animate7" fill="freeze"/></rect></clipPath><clipPath id="clip-mask-8"><rect x="43" y="180" width="24" height="29"><set attributeName="y" to="151" begin="0; animate15.end + 1" /><animate attributeName="y" from="151" to="180" dur="0.107" begin="animate7.end + 0.5" id="animate8" fill="freeze"/></rect></clipPath><clipPath id="clip-mask-9"><rect x="85" y="165" width="27" height="42"><set attributeName="y" to="123" begin="0; animate15.end + 1" /><animate attributeName="y" from="123" to="165" dur="0.156" begin="animate8.end + 0.5" id="animate9" fill="freeze"/></rect></clipPath><clipPath id="clip-mask-10"><rect x="19" y="196" width="108" height="44"><set attributeName="x" to="-89" begin="0; animate15.end + 1" /><animate attributeName="x" from="-89" to="19" dur="0.400" begin="animate9.end + 0.5" id="animate10" fill="freeze"/></rect></clipPath><clipPath id="clip-mask-11"><rect x="127" y="79" width="93" height="32"><set attributeName="x" to="34" begin="0; animate15.end + 1" /><animate attributeName="x" from="34" to="127" dur="0.344" begin="animate10.end + 0.5" id="animate11" fill="freeze"/></rect></clipPath><clipPath id="clip-mask-12"><rect x="151" y="25" width="31" height="114"><set attributeName="y" to="-89" begin="0; animate15.end + 1" /><animate attributeName="y" from="-89" to="25" dur="0.422" begin="animate11.end + 0.5" id="animate12" fill="freeze"/></rect></clipPath><clipPath id="clip-mask-13"><rect x="128" y="128" width="73" height="24"><set attributeName="x" to="55" begin="0; animate15.end + 1" /><animate attributeName="x" from="55" to="128" dur="0.270" begin="animate12.end + 0.5" id="animate13" fill="freeze"/></rect></clipPath><clipPath id="clip-mask-14"><rect x="101" y="135" width="104" height="101"><set attributeName="y" to="34" begin="0; animate15.end + 1" /><animate attributeName="y" from="34" to="135" dur="0.374" begin="animate13.end" id="animate14" fill="freeze"/></rect></clipPath><clipPath id="clip-mask-15"><rect x="127" y="161" width="123" height="83"><set attributeName="x" to="4" begin="0; animate15.end + 1" /><animate attributeName="x" from="4" to="127" dur="0.456" begin="animate14.end + 0.5" id="animate15" fill="freeze"/></rect></clipPath></defs><path d="M 0 0 L 270 270 M 270 0 L 0 270 M 135 0 L 135 270 M 0 135 L 270 135" stroke="#CCCCCC" /><path d="M 75 84 Q 67 86 60 88 Q 41 91 32 86 Q 26 82 35 80 Q 61 77 75 73 L 90 68 Q 96 66 102 64 Q 109 61 117 62 Q 124 64 126 66 Q 127 69 125 71 Q 123 72 88 81" fill="#CCCCCC"/><path d="M 75 94 L 75 84 L 75 73 Q 74 61 73 49 Q 73 45 69 39 Q 67 36 69 34 Q 71 32 75 32 Q 81 34 90 38 Q 90 39 91 39 Q 95 43 92 51 Q 90 58 90 68 L 88 81 Q 87 91 86 101 L 75 105" fill="#CCCCCC"/><path d="M 86 101 Q 98 96 106 100 Q 111 102 111 105 Q 109 108 107 108 Q 85 112 62 118 Q 56 120 48 115 Q 43 111 50 110 Q 69 106 75 105" fill="#CCCCCC"/><path d="M 61 173 L 61 175 Q 60 179 55 174 Q 52 172 51 167 Q 45 152 39 143 Q 36 139 38 138 Q 39 136 42 137 Q 46 137 50 138 L 57 144 Q 57 148 60 163 L 62 171" fill="#CCCCCC"/><path d="M 100 136 Q 98 134 94 135 Q 58 144 57 144 L 50 138 Q 72 133 91 126 Q 105 118 122 132" fill="#CCCCCC"/><path d="M 97 153 Q 99 147 101 140 Q 102 137 100 136 L 122 132 Q 125 137 121 141 Q 115 144 110 154" fill="#CCCCCC"/><path d="M 60 163 Q 76 160 97 153 L 110 154 Q 115 157 115 159 Q 115 161 112 161 Q 74 167 62 171" fill="#CCCCCC"/><path d="M 43 184 L 44 183 Q 45 180 47 181 Q 63 187 66 196 Q 67 201 66 205 Q 63 209 60 208 Q 54 206 45 187" fill="#CCCCCC"/><path d="M 95 177 L 93 170 Q 91 167 94 166 Q 98 165 101 167 Q 108 171 110 175 Q 112 178 109 181 Q 105 186 103 190 Q 99 198 95 205 L 85 207" fill="#CCCCCC"/><path d="M 95 205 Q 109 200 122 197 Q 126 196 127 198 Q 126 200 123 202 Q 114 206 107 210 Q 54 230 43 238 Q 39 240 36 239 Q 28 233 22 229 Q 19 227 20 223 Q 21 221 24 220 Q 34 221 40 219 Q 63 213 85 207" fill="#CCCCCC"/><path d="M 159 108 Q 145 111 134 106 Q 127 103 136 100 Q 148 98 160 95 L 174 91 Q 202 79 209 80 Q 217 81 218 84 Q 220 86 218 89 Q 217 90 173 104" fill="#CCCCCC"/><path d="M 158 139 Q 159 123 159 108 L 160 95 Q 160 71 160 49 Q 159 43 154 34 Q 151 29 154 28 Q 156 25 160 26 Q 167 28 177 33 Q 182 37 181 40 Q 176 54 174 91 L 173 104 Q 171 119 170 135" fill="#CCCCCC"/><path d="M 172 143 Q 170 143 155 148 Q 142 152 133 149 Q 128 147 129 145 Q 131 144 134 143 Q 148 141 158 139 L 170 135 Q 184 128 190 130 Q 198 132 201 135" fill="#CCCCCC"/><path d="M 146 233 L 117 236 Q 105 236 104 235 Q 101 233 104 232 Q 140 220 158 196 L 164 186 Q 172 171 177 150 Q 179 143 172 143 L 201 135 Q 205 139 200 143 Q 195 147 192 155 Q 183 179 174 196 L 167 207" fill="#CCCCCC"/><path d="M 158 196 Q 139 172 134 169 Q 132 168 130 167 Q 127 165 129 163 Q 131 161 135 161 Q 143 163 148 168 Q 156 178 164 186 L 174 196 Q 198 216 213 220 Q 243 230 247 232 Q 250 234 248 235 Q 245 237 241 238 Q 231 239 217 242 Q 206 244 198 238 Q 179 221 167 207" fill="#CCCCCC"/><path d="M 75 84 Q 67 86 60 88 Q 41 91 32 86 Q 26 82 35 80 Q 61 77 75 73 L 90 68 Q 96 66 102 64 Q 109 61 117 62 Q 124 64 126 66 Q 127 69 125 71 Q 123 72 88 81" fill="#0000ff" clip-path="url(#clip-mask-1)" /><path d="M 75 94 L 75 84 L 75 73 Q 74 61 73 49 Q 73 45 69 39 Q 67 36 69 34 Q 71 32 75 32 Q 81 34 90 38 Q 90 39 91 39 Q 95 43 92 51 Q 90 58 90 68 L 88 81 Q 87 91 86 101 L 75 105" fill="#0000ff" clip-path="url(#clip-mask-2)" /><path d="M 86 101 Q 98 96 106 100 Q 111 102 111 105 Q 109 108 107 108 Q 85 112 62 118 Q 56 120 48 115 Q 43 111 50 110 Q 69 106 75 105" fill="#0000ff" clip-path="url(#clip-mask-3)" /><path d="M 61 173 L 61 175 Q 60 179 55 174 Q 52 172 51 167 Q 45 152 39 143 Q 36 139 38 138 Q 39 136 42 137 Q 46 137 50 138 L 57 144 Q 57 148 60 163 L 62 171" fill="#0000ff" clip-path="url(#clip-mask-4)" /><path d="M 100 136 Q 98 134 94 135 Q 58 144 57 144 L 50 138 Q 72 133 91 126 Q 105 118 122 132" fill="#0000ff" clip-path="url(#clip-mask-5)" /><path d="M 97 153 Q 99 147 101 140 Q 102 137 100 136 L 122 132 Q 125 137 121 141 Q 115 144 110 154" fill="#0000ff" clip-path="url(#clip-mask-6)" /><path d="M 60 163 Q 76 160 97 153 L 110 154 Q 115 157 115 159 Q 115 161 112 161 Q 74 167 62 171" fill="#0000ff" clip-path="url(#clip-mask-7)" /><path d="M 43 184 L 44 183 Q 45 180 47 181 Q 63 187 66 196 Q 67 201 66 205 Q 63 209 60 208 Q 54 206 45 187" fill="#0000ff" clip-path="url(#clip-mask-8)" /><path d="M 95 177 L 93 170 Q 91 167 94 166 Q 98 165 101 167 Q 108 171 110 175 Q 112 178 109 181 Q 105 186 103 190 Q 99 198 95 205 L 85 207" fill="#0000ff" clip-path="url(#clip-mask-9)" /><path d="M 95 205 Q 109 200 122 197 Q 126 196 127 198 Q 126 200 123 202 Q 114 206 107 210 Q 54 230 43 238 Q 39 240 36 239 Q 28 233 22 229 Q 19 227 20 223 Q 21 221 24 220 Q 34 221 40 219 Q 63 213 85 207" fill="#0000ff" clip-path="url(#clip-mask-10)" /><path d="M 159 108 Q 145 111 134 106 Q 127 103 136 100 Q 148 98 160 95 L 174 91 Q 202 79 209 80 Q 217 81 218 84 Q 220 86 218 89 Q 217 90 173 104" fill="#0000ff" clip-path="url(#clip-mask-11)" /><path d="M 158 139 Q 159 123 159 108 L 160 95 Q 160 71 160 49 Q 159 43 154 34 Q 151 29 154 28 Q 156 25 160 26 Q 167 28 177 33 Q 182 37 181 40 Q 176 54 174 91 L 173 104 Q 171 119 170 135" fill="#0000ff" clip-path="url(#clip-mask-12)" /><path d="M 172 143 Q 170 143 155 148 Q 142 152 133 149 Q 128 147 129 145 Q 131 144 134 143 Q 148 141 158 139 L 170 135 Q 184 128 190 130 Q 198 132 201 135" fill="#0000ff" clip-path="url(#clip-mask-13)" /><path d="M 146 233 L 117 236 Q 105 236 104 235 Q 101 233 104 232 Q 140 220 158 196 L 164 186 Q 172 171 177 150 Q 179 143 172 143 L 201 135 Q 205 139 200 143 Q 195 147 192 155 Q 183 179 174 196 L 167 207" fill="#0000ff" clip-path="url(#clip-mask-14)" /><path d="M 158 196 Q 139 172 134 169 Q 132 168 130 167 Q 127 165 129 163 Q 131 161 135 161 Q 143 163 148 168 Q 156 178 164 186 L 174 196 Q 198 216 213 220 Q 243 230 247 232 Q 250 234 248 235 Q 245 237 241 238 Q 231 239 217 242 Q 206 244 198 238 Q 179 221 167 207" fill="#0000ff" clip-path="url(#clip-mask-15)" /></svg>