<svg xmlns="http://www.w3.org/2000/svg" xmlns:xlink="http://www.w3.org/1999/xlink" width="270" height="270"><defs><clipPath id="clip-mask-1"><rect x="103" y="8" width="32" height="24"><animate attributeName="x" from="71" to="103" dur="0.119" begin="0; animate17.end + 1" id="animate1" fill="freeze"/></rect></clipPath><clipPath id="clip-mask-2"><rect x="43" y="25" width="168" height="36"><set attributeName="x" to="-125" begin="0; animate17.end + 1" /><animate attributeName="x" from="-125" to="43" dur="0.622" begin="animate1.end + 0.5" id="animate2" fill="freeze"/></rect></clipPath><clipPath id="clip-mask-3"><rect x="88" y="58" width="22" height="24"><set attributeName="y" to="34" begin="0; animate17.end + 1" /><animate attributeName="y" from="34" to="58" dur="0.089" begin="animate2.end + 0.5" id="animate3" fill="freeze"/></rect></clipPath><clipPath id="clip-mask-4"><rect x="124" y="54" width="31" height="39"><set attributeName="y" to="15" begin="0; animate17.end + 1" /><animate attributeName="y" from="15" to="54" dur="0.144" begin="animate3.end + 0.5" id="animate4" fill="freeze"/></rect></clipPath><clipPath id="clip-mask-5"><rect x="109" y="85" width="19" height="68"><set attributeName="y" to="17" begin="0; animate17.end + 1" /><animate attributeName="y" from="17" to="85" dur="0.252" begin="animate4.end + 0.5" id="animate5" fill="freeze"/></rect></clipPath><clipPath id="clip-mask-6"><rect x="29" y="85" width="76" height="26"><set attributeName="x" to="-47" begin="0; animate17.end + 1" /><animate attributeName="x" from="-47" to="29" dur="0.281" begin="animate5.end + 0.5" id="animate6" fill="freeze"/></rect></clipPath><clipPath id="clip-mask-7"><rect x="82" y="99" width="21" height="56"><set attributeName="y" to="43" begin="0; animate17.end + 1" /><animate attributeName="y" from="43" to="99" dur="0.207" begin="animate6.end" id="animate7" fill="freeze"/></rect></clipPath><clipPath id="clip-mask-8"><rect x="60" y="133" width="22" height="26"><set attributeName="x" to="82" begin="0; animate17.end + 1" /><animate attributeName="x" from="82" to="60" dur="0.081" begin="animate7.end" id="animate8" fill="freeze"/></rect></clipPath><clipPath id="clip-mask-9"><rect x="17" y="104" width="52" height="61"><set attributeName="y" to="43" begin="0; animate17.end + 1" /><animate attributeName="y" from="43" to="104" dur="0.226" begin="animate8.end + 0.5" id="animate9" fill="freeze"/></rect></clipPath><clipPath id="clip-mask-10"><rect x="157" y="58" width="39" height="33"><set attributeName="x" to="196" begin="0; animate17.end + 1" /><animate attributeName="x" from="196" to="157" dur="0.144" begin="animate9.end + 0.5" id="animate10" fill="freeze"/></rect></clipPath><clipPath id="clip-mask-11"><rect x="143" y="82" width="17" height="69"><set attributeName="y" to="13" begin="0; animate17.end + 1" /><animate attributeName="y" from="13" to="82" dur="0.256" begin="animate10.end + 0.5" id="animate11" fill="freeze"/></rect></clipPath><clipPath id="clip-mask-12"><rect x="156" y="115" width="26" height="32"><set attributeName="x" to="130" begin="0; animate17.end + 1" /><animate attributeName="x" from="130" to="156" dur="0.096" begin="animate11.end" id="animate12" fill="freeze"/></rect></clipPath><clipPath id="clip-mask-13"><rect x="165" y="86" width="87" height="55"><set attributeName="x" to="78" begin="0; animate17.end + 1" /><animate attributeName="x" from="78" to="165" dur="0.322" begin="animate12.end + 0.5" id="animate13" fill="freeze"/></rect></clipPath><clipPath id="clip-mask-14"><rect x="35" y="160" width="55" height="90"><set attributeName="y" to="70" begin="0; animate17.end + 1" /><animate attributeName="y" from="70" to="160" dur="0.333" begin="animate13.end + 0.5" id="animate14" fill="freeze"/></rect></clipPath><clipPath id="clip-mask-15"><rect x="155" y="149" width="25" height="112"><set attributeName="y" to="37" begin="0; animate17.end + 1" /><animate attributeName="y" from="37" to="149" dur="0.415" begin="animate14.end + 0.5" id="animate15" fill="freeze"/></rect></clipPath><clipPath id="clip-mask-16"><rect x="89" y="159" width="62" height="17"><set attributeName="x" to="27" begin="0; animate17.end + 1" /><animate attributeName="x" from="27" to="89" dur="0.230" begin="animate15.end + 0.5" id="animate16" fill="freeze"/></rect></clipPath><clipPath id="clip-mask-17"><rect x="87" y="184" width="68" height="19"><set attributeName="x" to="19" begin="0; animate17.end + 1" /><animate attributeName="x" from="19" to="87" dur="0.252" begin="animate16.end + 0.5" id="animate17" fill="freeze"/></rect></clipPath></defs><path d="M 0 0 L 270 270 M 270 0 L 0 270 M 135 0 L 135 270 M 0 135 L 270 135" stroke="#CCCCCC" /><path d="M 105 16 L 104 13 Q 103 9 104 8 Q 106 8 110 8 Q 129 9 132 15 Q 135 23 135 27 Q 133 31 131 31 Q 127 32 122 29 Q 117 24 113 21" fill="#CCCCCC"/><path d="M 151 35 L 183 28 Q 193 25 207 36 Q 211 39 210 43 Q 208 45 203 45 Q 115 45 66 58 Q 55 61 47 53 Q 43 48 48 48" fill="#CCCCCC"/><path d="M 88 64 L 88 62 Q 88 58 91 59 Q 104 61 108 68 Q 110 73 110 77 Q 108 82 104 81 Q 97 80 89 66" fill="#CCCCCC"/><path d="M 135 64 L 134 59 Q 133 55 136 54 Q 141 54 146 57 Q 152 60 154 63 Q 155 65 152 67 Q 143 75 127 93 L 124 90" fill="#CCCCCC"/><path d="M 127 93 Q 128 95 127 100 Q 127 102 126 134 Q 126 146 122 150 Q 120 153 118 150 Q 109 141 113 127 Q 116 106 112 89 Q 110 86 112 85 Q 114 85 117 86 Q 120 87 122 89 Q 123 89 124 90" fill="#CCCCCC"/><path d="M 48 108 L 45 109 Q 40 111 35 108 Q 29 105 29 104 Q 30 102 34 101 Q 47 100 62 95 Q 78 91 81 88 Q 86 85 90 87 Q 102 91 104 93 Q 105 96 103 99 L 85 99 Q 84 98 80 99 Q 72 100 63 104 L 53 106" fill="#CCCCCC"/><path d="M 103 99 Q 98 104 97 121 Q 92 149 82 155 L 82 133 Q 86 125 86 108 Q 86 102 85 99" fill="#CCCCCC"/><path d="M 82 155 Q 79 159 75 155 Q 72 149 64 140 Q 60 135 65 137 Q 69 138 73 139 Q 79 139 82 133" fill="#CCCCCC"/><path d="M 63 104 Q 65 106 67 110 Q 69 113 67 116 Q 65 118 62 124 Q 39 160 18 165 Q 17 165 17 164 Q 18 163 19 162 Q 53 127 53 106" fill="#CCCCCC"/><path d="M 162 90 L 159 91 L 157 88 Q 176 67 176 61 Q 175 58 178 58 Q 181 58 186 61 Q 191 64 194 68 Q 196 72 191 74 Q 189 75 188 76 Q 173 82 169 86 L 165 89" fill="#CCCCCC"/><path d="M 159 91 Q 160 92 159 94 Q 158 99 158 121 Q 158 125 160 126 L 156 147 Q 153 151 152 150 Q 148 147 146 141 Q 144 137 146 132 Q 149 129 150 123 Q 151 96 145 87 Q 143 85 145 83 Q 146 82 148 83 Q 152 83 157 88" fill="#CCCCCC"/><path d="M 160 126 Q 161 126 178 117 Q 182 115 182 117 Q 181 119 178 122 Q 161 140 156 147" fill="#CCCCCC"/><path d="M 169 86 Q 170 86 187 102 Q 203 115 249 134 Q 252 136 251 137 Q 251 138 247 138 Q 230 141 214 139 Q 205 138 200 133 Q 182 112 166 90 Q 165 89 165 89" fill="#CCCCCC"/><path d="M 65 162 L 68 161 Q 73 160 79 162 Q 82 164 86 167 Q 90 169 88 173 Q 88 174 84 195 Q 82 205 78 215 Q 74 223 74 223 Q 59 248 37 250 Q 35 250 37 247 Q 41 245 44 242 Q 62 229 68 204 Q 74 177 67 166" fill="#CCCCCC"/><path d="M 157 153 L 159 152 Q 162 149 165 150 Q 170 153 177 159 Q 179 161 179 164 Q 176 178 179 240 Q 180 249 176 258 Q 175 261 172 261 Q 170 260 169 259 Q 155 240 159 229 Q 160 227 160 222 Q 160 219 161 216 Q 165 163 159 155" fill="#CCCCCC"/><path d="M 107 166 L 115 165 Q 122 163 129 162 Q 136 159 143 161 Q 149 163 150 165 Q 151 167 149 169 Q 148 170 142 171 Q 132 172 121 174 Q 102 176 95 171 Q 89 167 97 166" fill="#CCCCCC"/><path d="M 107 192 L 116 190 Q 125 188 133 186 Q 140 184 147 186 Q 153 188 155 190 Q 155 192 154 194 Q 152 195 145 196 Q 129 198 114 201 Q 101 203 93 197 Q 87 193 95 192" fill="#CCCCCC"/><path d="M 105 16 L 104 13 Q 103 9 104 8 Q 106 8 110 8 Q 129 9 132 15 Q 135 23 135 27 Q 133 31 131 31 Q 127 32 122 29 Q 117 24 113 21" fill="#0000ff" clip-path="url(#clip-mask-1)" /><path d="M 151 35 L 183 28 Q 193 25 207 36 Q 211 39 210 43 Q 208 45 203 45 Q 115 45 66 58 Q 55 61 47 53 Q 43 48 48 48" fill="#0000ff" clip-path="url(#clip-mask-2)" /><path d="M 88 64 L 88 62 Q 88 58 91 59 Q 104 61 108 68 Q 110 73 110 77 Q 108 82 104 81 Q 97 80 89 66" fill="#0000ff" clip-path="url(#clip-mask-3)" /><path d="M 135 64 L 134 59 Q 133 55 136 54 Q 141 54 146 57 Q 152 60 154 63 Q 155 65 152 67 Q 143 75 127 93 L 124 90" fill="#0000ff" clip-path="url(#clip-mask-4)" /><path d="M 127 93 Q 128 95 127 100 Q 127 102 126 134 Q 126 146 122 150 Q 120 153 118 150 Q 109 141 113 127 Q 116 106 112 89 Q 110 86 112 85 Q 114 85 117 86 Q 120 87 122 89 Q 123 89 124 90" fill="#0000ff" clip-path="url(#clip-mask-5)" /><path d="M 48 108 L 45 109 Q 40 111 35 108 Q 29 105 29 104 Q 30 102 34 101 Q 47 100 62 95 Q 78 91 81 88 Q 86 85 90 87 Q 102 91 104 93 Q 105 96 103 99 L 85 99 Q 84 98 80 99 Q 72 100 63 104 L 53 106" fill="#0000ff" clip-path="url(#clip-mask-6)" /><path d="M 103 99 Q 98 104 97 121 Q 92 149 82 155 L 82 133 Q 86 125 86 108 Q 86 102 85 99" fill="#0000ff" clip-path="url(#clip-mask-7)" /><path d="M 82 155 Q 79 159 75 155 Q 72 149 64 140 Q 60 135 65 137 Q 69 138 73 139 Q 79 139 82 133" fill="#0000ff" clip-path="url(#clip-mask-8)" /><path d="M 63 104 Q 65 106 67 110 Q 69 113 67 116 Q 65 118 62 124 Q 39 160 18 165 Q 17 165 17 164 Q 18 163 19 162 Q 53 127 53 106" fill="#0000ff" clip-path="url(#clip-mask-9)" /><path d="M 162 90 L 159 91 L 157 88 Q 176 67 176 61 Q 175 58 178 58 Q 181 58 186 61 Q 191 64 194 68 Q 196 72 191 74 Q 189 75 188 76 Q 173 82 169 86 L 165 89" fill="#0000ff" clip-path="url(#clip-mask-10)" /><path d="M 159 91 Q 160 92 159 94 Q 158 99 158 121 Q 158 125 160 126 L 156 147 Q 153 151 152 150 Q 148 147 146 141 Q 144 137 146 132 Q 149 129 150 123 Q 151 96 145 87 Q 143 85 145 83 Q 146 82 148 83 Q 152 83 157 88" fill="#0000ff" clip-path="url(#clip-mask-11)" /><path d="M 160 126 Q 161 126 178 117 Q 182 115 182 117 Q 181 119 178 122 Q 161 140 156 147" fill="#0000ff" clip-path="url(#clip-mask-12)" /><path d="M 169 86 Q 170 86 187 102 Q 203 115 249 134 Q 252 136 251 137 Q 251 138 247 138 Q 230 141 214 139 Q 205 138 200 133 Q 182 112 166 90 Q 165 89 165 89" fill="#0000ff" clip-path="url(#clip-mask-13)" /><path d="M 65 162 L 68 161 Q 73 160 79 162 Q 82 164 86 167 Q 90 169 88 173 Q 88 174 84 195 Q 82 205 78 215 Q 74 223 74 223 Q 59 248 37 250 Q 35 250 37 247 Q 41 245 44 242 Q 62 229 68 204 Q 74 177 67 166" fill="#0000ff" clip-path="url(#clip-mask-14)" /><path d="M 157 153 L 159 152 Q 162 149 165 150 Q 170 153 177 159 Q 179 161 179 164 Q 176 178 179 240 Q 180 249 176 258 Q 175 261 172 261 Q 170 260 169 259 Q 155 240 159 229 Q 160 227 160 222 Q 160 219 161 216 Q 165 163 159 155" fill="#0000ff" clip-path="url(#clip-mask-15)" /><path d="M 107 166 L 115 165 Q 122 163 129 162 Q 136 159 143 161 Q 149 163 150 165 Q 151 167 149 169 Q 148 170 142 171 Q 132 172 121 174 Q 102 176 95 171 Q 89 167 97 166" fill="#0000ff" clip-path="url(#clip-mask-16)" /><path d="M 107 192 L 116 190 Q 125 188 133 186 Q 140 184 147 186 Q 153 188 155 190 Q 155 192 154 194 Q 152 195 145 196 Q 129 198 114 201 Q 101 203 93 197 Q 87 193 95 192" fill="#0000ff" clip-path="url(#clip-mask-17)" /></svg>