<svg xmlns="http://www.w3.org/2000/svg" xmlns:xlink="http://www.w3.org/1999/xlink" width="270" height="270"><path d="M 0 0 L 270 270 M 270 0 L 0 270 M 135 0 L 135 270 M 0 135 L 270 135" stroke="#CCCCCC" /><path d="M 100 129 L 86 131 L 71 134 Q 59 134 36 142 Q 27 145 15 136 Q 10 132 10 129 Q 11 126 14 126 Q 36 127 66 123 Q 68 123 69 123 L 86 121 Q 101 119 121 118 L 133 116 Q 151 114 170 113 L 184 112 Q 189 112 195 111 Q 210 109 222 107 Q 236 100 256 119 Q 259 122 257 126 Q 256 128 249 127 Q 212 122 183 123 L 169 124 Q 150 125 133 126 L 121 127" fill="#CCCCCC"/><path d="M 121 118 Q 121 64 114 52 Q 112 48 113 46 Q 115 44 121 47 Q 128 51 131 53 Q 131 53 132 54 Q 132 55 133 116 L 133 126 Q 134 143 134 159 L 126 181 Q 122 184 120 183 Q 119 182 119 182 Q 108 171 116 165 Q 120 156 121 127" fill="#CCCCCC"/><path d="M 170 113 Q 173 86 176 61 Q 177 50 173 40 Q 171 37 173 35 Q 177 33 181 34 Q 188 37 196 45 Q 199 49 195 53 Q 189 66 184 112 L 183 123 Q 180 140 178 158 L 166 157 Q 168 140 169 124" fill="#CCCCCC"/><path d="M 178 158 Q 183 162 184 165 Q 183 168 178 168 Q 155 170 143 173 Q 133 176 126 181 L 134 159 Q 134 162 135 162 Q 136 162 137 162 Q 145 160 151 159 Q 157 158 165 157 Q 166 156 166 157" fill="#CCCCCC"/><path d="M 86 131 Q 86 168 87 175 Q 88 206 88 207 L 79 232 Q 73 236 69 233 Q 56 222 65 215 Q 75 204 71 134 L 69 123 Q 67 105 66 91 Q 65 84 61 80 Q 57 75 59 73 Q 62 71 65 71 Q 70 71 83 77 Q 88 80 86 85 Q 85 91 86 119 Q 86 120 86 121" fill="#CCCCCC"/><path d="M 88 207 Q 90 212 117 208 Q 162 203 181 202 Q 197 200 208 206 Q 217 212 217 216 Q 217 218 214 220 Q 211 222 204 221 Q 191 219 154 219 Q 89 219 79 232" fill="#CCCCCC"/><path d="M 100 129 L 86 131 L 71 134 Q 59 134 36 142 Q 27 145 15 136 Q 10 132 10 129 Q 11 126 14 126 Q 36 127 66 123 Q 68 123 69 123 L 86 121 Q 101 119 121 118 L 133 116 Q 151 114 170 113 L 184 112 Q 189 112 195 111 Q 210 109 222 107 Q 236 100 256 119 Q 259 122 257 126 Q 256 128 249 127 Q 212 122 183 123 L 169 124 Q 150 125 133 126 L 121 127" fill="#000000" /><path d="M 121 118 Q 121 64 114 52 Q 112 48 113 46 Q 115 44 121 47 Q 128 51 131 53 Q 131 53 132 54 Q 132 55 133 116 L 133 126 Q 134 143 134 159 L 126 181 Q 122 184 120 183 Q 119 182 119 182 Q 108 171 116 165 Q 120 156 121 127" fill="#3f0000" /><path d="M 170 113 Q 173 86 176 61 Q 177 50 173 40 Q 171 37 173 35 Q 177 33 181 34 Q 188 37 196 45 Q 199 49 195 53 Q 189 66 184 112 L 183 123 Q 180 140 178 158 L 166 157 Q 168 140 169 124" fill="#7f0000" /><path d="M 178 158 Q 183 162 184 165 Q 183 168 178 168 Q 155 170 143 173 Q 133 176 126 181 L 134 159 Q 134 162 135 162 Q 136 162 137 162 Q 145 160 151 159 Q 157 158 165 157 Q 166 156 166 157" fill="#bf0000" /><path d="M 86 131 Q 86 168 87 175 Q 88 206 88 207 L 79 232 Q 73 236 69 233 Q 56 222 65 215 Q 75 204 71 134 L 69 123 Q 67 105 66 91 Q 65 84 61 80 Q 57 75 59 73 Q 62 71 65 71 Q 70 71 83 77 Q 88 80 86 85 Q 85 91 86 119 Q 86 120 86 121" fill="#ff0000" /><path d="M 88 207 Q 90 212 117 208 Q 162 203 181 202 Q 197 200 208 206 Q 217 212 217 216 Q 217 218 214 220 Q 211 222 204 221 Q 191 219 154 219 Q 89 219 79 232" fill="#ff0000" /></svg>