<svg xmlns="http://www.w3.org/2000/svg" xmlns:xlink="http://www.w3.org/1999/xlink" width="270" height="270"><path d="M 0 0 L 270 270 M 270 0 L 0 270 M 135 0 L 135 270 M 0 135 L 270 135" stroke="#CCCCCC" /><path d="M 125 78 Q 112 79 101 82 Q 80 85 68 78 Q 61 73 72 72 Q 100 69 125 65 L 141 61 Q 153 57 166 53 Q 175 50 183 52 Q 192 55 194 58 Q 195 61 193 63 Q 190 65 172 69 Q 155 72 140 75" fill="#CCCCCC"/><path d="M 125 124 Q 114 126 105 128 Q 82 131 69 124 Q 62 119 73 117 Q 101 115 125 111 L 140 108 Q 153 104 166 100 Q 176 96 185 99 Q 194 102 196 105 Q 197 108 194 110 Q 192 112 174 116 Q 156 119 140 122" fill="#CCCCCC"/><path d="M 122 172 L 121 172 Q 87 175 57 183 Q 45 186 35 176 Q 29 170 37 170 Q 84 165 125 160 L 140 158 Q 180 152 205 147 Q 217 144 234 157 Q 240 161 238 165 Q 236 168 229 168 Q 159 168 140 170 L 125 171" fill="#CCCCCC"/><path d="M 125 160 Q 125 151 125 124 L 125 111 Q 125 92 125 78 L 125 65 Q 125 49 125 37 Q 124 28 116 21 Q 112 17 115 15 Q 119 11 124 13 Q 136 15 143 21 Q 148 25 147 30 Q 141 37 141 61 L 140 75 Q 140 89 140 108 L 140 122 Q 140 140 140 158 L 140 170 Q 140 241 135 252 Q 133 258 128 254 Q 123 243 125 171" fill="#CCCCCC"/><path d="M 125 78 Q 112 79 101 82 Q 80 85 68 78 Q 61 73 72 72 Q 100 69 125 65 L 141 61 Q 153 57 166 53 Q 175 50 183 52 Q 192 55 194 58 Q 195 61 193 63 Q 190 65 172 69 Q 155 72 140 75" fill="#000000" /><path d="M 125 124 Q 114 126 105 128 Q 82 131 69 124 Q 62 119 73 117 Q 101 115 125 111 L 140 108 Q 153 104 166 100 Q 176 96 185 99 Q 194 102 196 105 Q 197 108 194 110 Q 192 112 174 116 Q 156 119 140 122" fill="#550000" /><path d="M 122 172 L 121 172 Q 87 175 57 183 Q 45 186 35 176 Q 29 170 37 170 Q 84 165 125 160 L 140 158 Q 180 152 205 147 Q 217 144 234 157 Q 240 161 238 165 Q 236 168 229 168 Q 159 168 140 170 L 125 171" fill="#aa0000" /><path d="M 125 160 Q 125 151 125 124 L 125 111 Q 125 92 125 78 L 125 65 Q 125 49 125 37 Q 124 28 116 21 Q 112 17 115 15 Q 119 11 124 13 Q 136 15 143 21 Q 148 25 147 30 Q 141 37 141 61 L 140 75 Q 140 89 140 108 L 140 122 Q 140 140 140 158 L 140 170 Q 140 241 135 252 Q 133 258 128 254 Q 123 243 125 171" fill="#ff0000" /></svg>