<svg xmlns="http://www.w3.org/2000/svg" xmlns:xlink="http://www.w3.org/1999/xlink" width="270" height="270"><path d="M 0 0 L 270 270 M 270 0 L 0 270 M 135 0 L 135 270 M 0 135 L 270 135" stroke="#CCCCCC" /><path d="M 99 153 L 93 171 Q 86 189 73 205 Q 52 231 40 233 Q 37 233 37 231 Q 38 228 50 216 Q 82 184 88 129 L 89 117 Q 89 117 89 117 Q 91 55 80 39 Q 76 34 81 32 Q 85 31 99 37 Q 100 38 101 39 L 103 48 Q 102 50 102 53 Q 104 89 102 116 L 101 127" fill="#000000" /><path d="M 157 40 Q 155 38 150 39 Q 129 43 107 47 Q 105 47 103 48 L 101 39 Q 133 35 153 25 Q 157 23 163 25 Q 174 30 180 35" fill="#550000" /><path d="M 162 110 Q 161 85 161 55 Q 161 44 157 40 L 180 35 Q 184 38 180 44 Q 176 52 176 69 Q 176 90 176 109 L 177 121 Q 177 175 180 213 Q 180 228 168 243 Q 165 246 162 245 Q 158 244 154 238 L 156 215 Q 161 208 162 121" fill="#550000" /><path d="M 154 238 Q 144 227 126 211 Q 126 209 132 211 Q 141 213 149 215 Q 155 217 156 215" fill="#550000" /><path d="M 117 73 L 117 69 Q 117 66 119 66 Q 119 66 120 66 Q 130 66 142 78 Q 146 82 146 89 Q 146 93 144 96 Q 141 100 136 98 Q 128 92 120 77" fill="#aa0000" /><path d="M 88 129 Q 72 130 51 137 Q 36 141 26 133 Q 21 129 21 126 Q 21 122 25 122 Q 44 123 71 119 Q 79 118 89 117 L 102 116 Q 129 113 162 110 L 176 109 Q 181 108 187 108 Q 198 106 208 104 Q 226 98 245 115 Q 248 119 246 122 Q 244 124 238 123 Q 203 119 177 121 L 162 121 Q 124 124 101 127" fill="#ff0000" /></svg>