<svg xmlns="http://www.w3.org/2000/svg" xmlns:xlink="http://www.w3.org/1999/xlink" width="270" height="270"><path d="M 0 0 L 270 270 M 270 0 L 0 270 M 135 0 L 135 270 M 0 135 L 270 135" stroke="#CCCCCC" /><path d="M 100 59 Q 153 34 153 24 Q 153 21 155 20 Q 159 19 163 22 Q 176 27 183 32 Q 186 35 185 38 Q 184 40 179 41 Q 167 43 154 48 Q 134 57 102 65" fill="#000000" /><path d="M 87 85 Q 84 71 77 57 Q 75 53 77 51 Q 80 49 84 51 Q 98 55 100 59 L 102 65 Q 102 74 102 94 L 102 102 Q 103 124 106 155 L 94 157" fill="#330000" /><path d="M 147 99 Q 139 100 131 102 Q 113 105 102 102 L 102 94 Q 123 92 153 85 Q 180 76 188 78 Q 196 80 197 83 Q 199 86 196 87 Q 194 89 181 92 Q 168 94 157 97" fill="#660000" /><path d="M 147 149 Q 149 134 150 122 Q 150 107 147 99 L 157 97 Q 162 99 167 102 Q 170 107 169 109 Q 167 115 158 147" fill="#990000" /><path d="M 106 155 Q 119 153 131 152 Q 139 150 147 149 L 158 147 Q 193 141 215 136 Q 227 134 243 146 Q 248 150 247 153 Q 245 156 239 156 Q 238 156 238 156 Q 118 156 47 177 Q 34 180 25 171 Q 21 166 27 166 Q 62 161 94 157" fill="#cc0000" /><path d="M 102 181 L 105 181 Q 108 181 113 183 Q 124 190 124 197 Q 124 200 121 201 Q 99 223 82 234 Q 55 250 45 248 Q 42 247 45 246 Q 65 233 73 226 Q 73 225 74 225 Q 103 199 102 184" fill="#ff0000" /></svg>