<svg xmlns="http://www.w3.org/2000/svg" xmlns:xlink="http://www.w3.org/1999/xlink" width="270" height="270"><path d="M 0 0 L 270 270 M 270 0 L 0 270 M 135 0 L 135 270 M 0 135 L 270 135" stroke="#CCCCCC" /><path d="M 184 43 Q 184 42 183 41 Q 180 40 158 45 Q 102 57 88 67 Q 82 70 79 70 Q 77 70 70 66 Q 63 61 61 57 Q 58 54 59 52 Q 61 48 66 49 Q 84 54 175 33 Q 189 29 190 29 Q 193 29 201 40 Q 211 52 210 54" fill="#CCCCCC"/><path d="M 136 88 L 139 87 Q 183 46 184 43 L 210 54 Q 209 59 196 62 Q 189 63 177 72 Q 151 88 140 94 L 135 90" fill="#CCCCCC"/><path d="M 140 94 Q 150 99 153 110 Q 154 116 155 123 Q 162 203 149 225 Q 142 236 137 238 L 134 204 Q 134 203 134 203 Q 144 189 139 128 Q 136 107 125 98 Q 119 94 119 89 Q 119 83 123 83 Q 126 84 135 90" fill="#CCCCCC"/><path d="M 137 238 Q 134 240 132 237 Q 127 229 121 223 Q 97 201 97 200 Q 97 198 102 200 Q 115 202 125 204 Q 131 207 134 204" fill="#CCCCCC"/><path d="M 184 43 Q 184 42 183 41 Q 180 40 158 45 Q 102 57 88 67 Q 82 70 79 70 Q 77 70 70 66 Q 63 61 61 57 Q 58 54 59 52 Q 61 48 66 49 Q 84 54 175 33 Q 189 29 190 29 Q 193 29 201 40 Q 211 52 210 54" fill="#000000" /><path d="M 136 88 L 139 87 Q 183 46 184 43 L 210 54 Q 209 59 196 62 Q 189 63 177 72 Q 151 88 140 94 L 135 90" fill="#000000" /><path d="M 140 94 Q 150 99 153 110 Q 154 116 155 123 Q 162 203 149 225 Q 142 236 137 238 L 134 204 Q 134 203 134 203 Q 144 189 139 128 Q 136 107 125 98 Q 119 94 119 89 Q 119 83 123 83 Q 126 84 135 90" fill="#ff0000" /><path d="M 137 238 Q 134 240 132 237 Q 127 229 121 223 Q 97 201 97 200 Q 97 198 102 200 Q 115 202 125 204 Q 131 207 134 204" fill="#ff0000" /></svg>