<svg xmlns="http://www.w3.org/2000/svg" xmlns:xlink="http://www.w3.org/1999/xlink" width="270" height="270"><path d="M 0 0 L 270 270 M 270 0 L 0 270 M 135 0 L 135 270 M 0 135 L 270 135" stroke="#CCCCCC" /><path d="M 119 67 Q 115 67 111 68 Q 90 71 79 64 Q 72 58 83 57 Q 119 55 156 47 Q 181 40 190 42 Q 198 45 200 49 Q 201 51 199 53 Q 195 56 133 65" fill="#000000" /><path d="M 87 202 Q 99 159 107 132 L 110 122 Q 111 116 113 112 Q 121 81 119 67 L 133 65 Q 137 69 140 74 Q 142 78 138 83 Q 131 105 127 118 L 124 129 Q 114 162 103 200" fill="#550000" /><path d="M 107 132 Q 100 133 94 134 Q 83 138 75 134 Q 70 132 69 130 Q 69 127 73 126 Q 92 125 110 122 L 127 118 Q 143 115 159 108 Q 166 105 172 108 Q 188 116 193 120 Q 198 125 193 131 L 163 125 Q 159 122 152 123 Q 137 126 124 129" fill="#aa0000" /><path d="M 151 198 Q 159 172 166 139 Q 167 130 163 125 L 193 131 Q 177 146 166 197" fill="#aa0000" /><path d="M 215 194 L 217 193 Q 229 191 251 209 Q 257 214 255 217 Q 253 220 247 219 Q 177 205 138 208 Q 89 210 43 227 Q 37 229 33 227 Q 18 220 15 214 Q 12 211 15 210 Q 17 208 20 208 Q 39 209 79 203 Q 83 203 87 202 L 103 200 Q 134 197 151 198 L 166 197" fill="#ff0000" /></svg>