<svg xmlns="http://www.w3.org/2000/svg" xmlns:xlink="http://www.w3.org/1999/xlink" width="270" height="270"><path d="M 0 0 L 270 270 M 270 0 L 0 270 M 135 0 L 135 270 M 0 135 L 270 135" stroke="#CCCCCC" /><path d="M 33 159 L 23 160 Q 19 161 21 158 Q 21 156 24 154 Q 44 130 58 109 Q 73 86 83 63 Q 85 56 82 47 Q 80 41 85 41 Q 90 41 97 46 Q 105 52 106 55 Q 106 56 107 57 Q 107 59 79 101 L 71 112" fill="#CCCCCC"/><path d="M 79 101 Q 83 105 90 113 Q 93 115 90 123 Q 88 138 87 205 Q 87 218 83 229 Q 80 237 75 232 Q 73 231 73 230 Q 64 217 68 205 Q 75 176 75 148 Q 75 146 76 143 Q 76 121 71 112" fill="#CCCCCC"/><path d="M 143 127 L 133 130 Q 118 136 105 131 Q 96 127 107 124 Q 130 118 150 112 L 162 107 Q 176 101 189 94 Q 198 90 206 90 Q 215 91 218 95 Q 219 97 217 100 Q 214 102 165 120 L 153 124" fill="#CCCCCC"/><path d="M 150 112 Q 143 85 136 51 Q 135 41 122 31 Q 118 26 124 24 Q 129 21 139 25 Q 155 29 153 41 Q 151 67 162 107 L 165 120 Q 180 177 215 208 Q 217 210 220 211 L 247 238 Q 250 246 244 247 Q 236 248 218 234 Q 174 202 153 124" fill="#CCCCCC"/><path d="M 220 211 Q 227 215 230 206 Q 239 185 240 185 Q 243 185 243 192 Q 245 226 247 238" fill="#CCCCCC"/><path d="M 181 49 L 180 46 Q 179 43 181 42 Q 185 40 204 47 Q 213 51 214 56 Q 217 64 215 68 Q 214 72 211 72 Q 207 72 203 69 Q 196 61 188 55" fill="#CCCCCC"/><path d="M 33 159 L 23 160 Q 19 161 21 158 Q 21 156 24 154 Q 44 130 58 109 Q 73 86 83 63 Q 85 56 82 47 Q 80 41 85 41 Q 90 41 97 46 Q 105 52 106 55 Q 106 56 107 57 Q 107 59 79 101 L 71 112" fill="#000000" /><path d="M 79 101 Q 83 105 90 113 Q 93 115 90 123 Q 88 138 87 205 Q 87 218 83 229 Q 80 237 75 232 Q 73 231 73 230 Q 64 217 68 205 Q 75 176 75 148 Q 75 146 76 143 Q 76 121 71 112" fill="#3f0000" /><path d="M 143 127 L 133 130 Q 118 136 105 131 Q 96 127 107 124 Q 130 118 150 112 L 162 107 Q 176 101 189 94 Q 198 90 206 90 Q 215 91 218 95 Q 219 97 217 100 Q 214 102 165 120 L 153 124" fill="#7f0000" /><path d="M 150 112 Q 143 85 136 51 Q 135 41 122 31 Q 118 26 124 24 Q 129 21 139 25 Q 155 29 153 41 Q 151 67 162 107 L 165 120 Q 180 177 215 208 Q 217 210 220 211 L 247 238 Q 250 246 244 247 Q 236 248 218 234 Q 174 202 153 124" fill="#bf0000" /><path d="M 220 211 Q 227 215 230 206 Q 239 185 240 185 Q 243 185 243 192 Q 245 226 247 238" fill="#bf0000" /><path d="M 181 49 L 180 46 Q 179 43 181 42 Q 185 40 204 47 Q 213 51 214 56 Q 217 64 215 68 Q 214 72 211 72 Q 207 72 203 69 Q 196 61 188 55" fill="#ff0000" /></svg>