<svg xmlns="http://www.w3.org/2000/svg" xmlns:xlink="http://www.w3.org/1999/xlink" width="270" height="270"><path d="M 0 0 L 270 270 M 270 0 L 0 270 M 135 0 L 135 270 M 0 135 L 270 135" stroke="#CCCCCC" /><path d="M 51 101 L 45 94 Q 42 89 44 87 Q 45 85 50 86 Q 63 90 66 93 Q 70 96 69 101 Q 68 107 65 167 Q 65 170 66 171 L 53 209 Q 49 214 46 211 Q 41 208 38 200 Q 35 193 39 190 Q 49 177 50 166 Q 53 157 54 139 Q 54 118 52 112" fill="#CCCCCC"/><path d="M 66 171 Q 68 172 72 169 Q 117 126 122 124 Q 123 124 123 126 Q 123 128 119 132 Q 69 184 53 209" fill="#CCCCCC"/><path d="M 107 70 L 106 67 Q 106 63 108 63 Q 111 62 115 63 Q 139 71 142 84 Q 142 89 141 92 Q 138 96 133 95 Q 125 91 111 74" fill="#CCCCCC"/><path d="M 167 180 L 146 197 Q 131 210 112 218 Q 100 222 96 222 Q 92 221 97 218 Q 102 215 107 211 Q 151 184 170 138 Q 182 106 182 89 Q 184 65 180 55 Q 178 50 182 49 Q 190 47 205 58 Q 210 61 207 67 Q 203 75 194 112 Q 190 131 176 159 L 173 166" fill="#CCCCCC"/><path d="M 176 159 Q 227 186 230 203 Q 234 216 230 219 Q 228 222 225 222 Q 220 220 216 214 Q 193 186 173 166" fill="#CCCCCC"/><path d="M 51 101 L 45 94 Q 42 89 44 87 Q 45 85 50 86 Q 63 90 66 93 Q 70 96 69 101 Q 68 107 65 167 Q 65 170 66 171 L 53 209 Q 49 214 46 211 Q 41 208 38 200 Q 35 193 39 190 Q 49 177 50 166 Q 53 157 54 139 Q 54 118 52 112" fill="#000000" /><path d="M 66 171 Q 68 172 72 169 Q 117 126 122 124 Q 123 124 123 126 Q 123 128 119 132 Q 69 184 53 209" fill="#000000" /><path d="M 107 70 L 106 67 Q 106 63 108 63 Q 111 62 115 63 Q 139 71 142 84 Q 142 89 141 92 Q 138 96 133 95 Q 125 91 111 74" fill="#550000" /><path d="M 167 180 L 146 197 Q 131 210 112 218 Q 100 222 96 222 Q 92 221 97 218 Q 102 215 107 211 Q 151 184 170 138 Q 182 106 182 89 Q 184 65 180 55 Q 178 50 182 49 Q 190 47 205 58 Q 210 61 207 67 Q 203 75 194 112 Q 190 131 176 159 L 173 166" fill="#aa0000" /><path d="M 176 159 Q 227 186 230 203 Q 234 216 230 219 Q 228 222 225 222 Q 220 220 216 214 Q 193 186 173 166" fill="#ff0000" /></svg>