<svg xmlns="http://www.w3.org/2000/svg" xmlns:xlink="http://www.w3.org/1999/xlink" width="270" height="270"><path d="M 0 0 L 270 270 M 270 0 L 0 270 M 135 0 L 135 270 M 0 135 L 270 135" stroke="#CCCCCC" /><path d="M 36 144 L 24 146 Q 20 146 21 143 Q 22 142 25 138 Q 46 113 62 90 Q 78 66 89 41 Q 92 34 88 25 Q 86 18 91 17 Q 97 17 105 23 Q 114 30 115 34 Q 116 38 113 41 Q 106 48 99 61 Q 88 78 78 92 L 70 102" fill="#000000" /><path d="M 78 92 Q 79 92 88 103 Q 91 106 89 114 Q 87 129 86 198 Q 86 211 82 222 Q 78 230 73 225 Q 72 224 72 223 Q 63 210 66 198 Q 70 183 72 169 Q 79 119 70 103 Q 70 102 70 102" fill="#330000" /><path d="M 132 152 Q 131 155 131 157 Q 129 162 124 156 Q 120 150 119 142 Q 114 115 106 99 Q 104 95 106 93 Q 106 91 110 92 Q 118 93 121 95 L 125 105 Q 130 137 131 142" fill="#660000" /><path d="M 163 99 Q 148 101 134 103 Q 129 105 125 105 L 121 95 Q 142 93 163 90 L 178 87 Q 195 84 213 77 Q 220 75 225 78 Q 240 86 245 90 L 215 93 Q 212 90 203 92 Q 190 94 178 96" fill="#990000" /><path d="M 208 130 Q 213 117 217 102 Q 218 96 215 93 L 245 90 Q 249 96 243 101 Q 233 107 223 132" fill="#990000" /><path d="M 147 149 L 136 152 Q 133 152 132 152 L 131 142 Q 146 140 163 138 L 178 136 Q 192 133 208 130 L 223 132 Q 230 137 230 139 Q 230 142 227 142 Q 199 143 178 146 L 163 147" fill="#cc0000" /><path d="M 163 138 Q 163 135 163 132 Q 163 114 163 99 L 163 90 Q 162 59 162 41 Q 161 31 153 24 Q 150 21 152 18 Q 156 15 161 16 Q 173 19 180 24 Q 186 29 184 33 Q 178 43 178 87 L 178 96 Q 178 113 178 136 L 178 146 Q 178 235 174 248 Q 171 254 167 250 Q 166 249 166 249 Q 163 242 163 147" fill="#ff0000" /></svg>