<svg xmlns="http://www.w3.org/2000/svg" xmlns:xlink="http://www.w3.org/1999/xlink" width="270" height="270"><path d="M 0 0 L 270 270 M 270 0 L 0 270 M 135 0 L 135 270 M 0 135 L 270 135" stroke="#CCCCCC" /><path d="M 22 147 L 13 148 Q 8 149 9 146 Q 11 144 13 141 Q 32 119 46 100 Q 61 79 70 57 Q 73 50 70 42 Q 68 36 73 35 Q 79 35 86 41 Q 94 48 95 52 Q 96 56 94 58 Q 87 64 80 75 Q 67 95 55 109 L 48 117" fill="#000000" /><path d="M 55 109 Q 57 109 67 120 Q 69 123 67 130 Q 65 143 65 203 Q 66 216 62 226 Q 59 233 54 229 Q 53 228 53 228 Q 44 215 47 203 Q 54 177 54 144 Q 54 134 48 117" fill="#330000" /><path d="M 115 62 L 117 61 Q 124 59 136 67 Q 140 71 137 74 Q 131 85 125 98 Q 115 119 95 137 Q 89 143 84 144 Q 80 146 82 142 Q 91 128 93 127 Q 120 92 116 65" fill="#660000" /><path d="M 135 25 L 136 23 Q 137 21 145 21 Q 155 22 161 32 Q 189 76 210 91 Q 214 94 240 105 Q 260 113 261 114 Q 260 116 253 117 Q 243 117 235 118 Q 208 119 204 115 Q 182 93 161 53 Q 150 33 137 26" fill="#990000" /><path d="M 123 153 L 118 155 Q 113 157 106 153 Q 99 150 99 148 Q 100 145 105 145 Q 126 143 150 137 Q 175 131 181 127 Q 186 123 192 126 Q 206 132 208 135 Q 210 138 207 141 L 184 142 Q 183 140 178 141 Q 160 143 139 149 L 129 152" fill="#cc0000" /><path d="M 207 141 Q 201 149 200 165 Q 196 209 188 223 Q 182 235 172 242 L 170 214 Q 180 198 185 160 Q 188 147 184 142" fill="#cc0000" /><path d="M 172 242 Q 167 248 160 241 Q 156 233 146 222 Q 142 215 148 217 Q 153 219 159 221 Q 166 222 170 214" fill="#cc0000" /><path d="M 139 149 Q 143 152 146 157 Q 148 161 147 164 Q 143 168 139 176 Q 132 190 120 206 Q 120 206 119 207 Q 94 239 82 242 Q 81 242 81 240 Q 80 238 82 237 Q 129 186 129 152" fill="#ff0000" /></svg>