<svg xmlns="http://www.w3.org/2000/svg" xmlns:xlink="http://www.w3.org/1999/xlink" width="270" height="270"><path d="M 0 0 L 270 270 M 270 0 L 0 270 M 135 0 L 135 270 M 0 135 L 270 135" stroke="#CCCCCC" /><path d="M 58 116 L 56 119 Q 27 153 18 154 Q 14 155 15 152 Q 15 150 18 147 Q 35 127 58 96 Q 58 95 58 95 Q 71 75 80 55 Q 83 48 79 39 Q 77 33 82 32 Q 88 32 95 38 Q 103 45 105 48 Q 106 52 103 55 Q 96 61 89 74 Q 79 89 71 101 L 62 112" fill="#000000" /><path d="M 71 101 Q 74 104 78 109 Q 81 112 79 119 Q 77 135 76 206 Q 76 219 72 230 Q 69 237 64 233 Q 63 232 63 231 Q 53 219 57 206 Q 61 191 63 176 Q 69 128 62 112" fill="#330000" /><path d="M 148 82 Q 134 83 124 78 Q 116 73 127 71 Q 140 70 164 65 Q 197 55 204 56 Q 212 58 215 62 Q 216 64 213 67 Q 212 68 160 79" fill="#660000" /><path d="M 135 162 L 140 139 L 142 129 Q 150 94 148 82 L 160 79 Q 164 83 167 88 Q 168 89 163 107 Q 161 116 158 126 L 156 135 Q 148 165 140 201 L 126 202" fill="#990000" /><path d="M 190 132 Q 186 128 156 135 L 140 138 Q 134 139 127 140 Q 117 144 110 140 Q 105 139 104 136 Q 104 133 109 133 Q 126 131 142 129 L 158 126 Q 172 122 187 117 Q 194 114 199 116 Q 214 123 219 127" fill="#cc0000" /><path d="M 182 196 Q 189 174 194 145 Q 195 136 190 132 L 219 127 Q 224 132 219 138 Q 204 152 196 194" fill="#cc0000" /><path d="M 140 201 Q 151 199 163 198 Q 173 197 182 196 L 196 194 Q 209 192 218 190 Q 235 186 251 199 Q 255 202 254 206 Q 252 208 246 208 Q 245 208 245 208 Q 165 203 105 217 Q 100 219 94 217 Q 89 215 85 211 Q 80 206 87 206 Q 107 203 126 202" fill="#ff0000" /></svg>