<svg xmlns="http://www.w3.org/2000/svg" xmlns:xlink="http://www.w3.org/1999/xlink" width="270" height="270"><path d="M 0 0 L 270 270 M 270 0 L 0 270 M 135 0 L 135 270 M 0 135 L 270 135" stroke="#CCCCCC" /><path d="M 32 157 L 22 158 Q 18 159 19 156 Q 20 154 22 151 Q 65 95 81 52 Q 84 45 80 36 Q 77 30 82 29 Q 88 29 96 34 Q 105 40 106 44 Q 107 48 105 51 Q 98 58 91 71 Q 78 95 65 113 L 58 121" fill="#CCCCCC"/><path d="M 65 113 Q 68 114 70 117 Q 74 121 78 126 Q 81 129 79 137 Q 77 150 78 209 Q 78 222 74 233 Q 71 240 66 236 Q 65 235 65 234 Q 55 222 59 209 Q 65 183 65 153 Q 64 132 58 121" fill="#CCCCCC"/><path d="M 160 82 Q 155 83 152 85 Q 138 91 130 94 L 126 90 Q 176 59 176 47 Q 176 44 178 43 Q 187 41 206 50 Q 209 53 208 56 Q 208 58 203 59 Q 194 63 168 77" fill="#CCCCCC"/><path d="M 130 94 Q 131 96 131 99 Q 129 108 128 186 L 114 227 Q 111 232 107 229 Q 103 225 101 218 Q 98 212 102 208 Q 117 190 117 148 Q 117 142 117 137 Q 116 104 108 93 Q 105 88 107 86 Q 108 85 113 85 Q 123 88 126 90" fill="#CCCCCC"/><path d="M 128 186 Q 128 190 130 191 Q 130 192 133 191 Q 159 174 162 174 Q 164 174 163 175 Q 163 178 159 181 Q 125 213 114 227" fill="#CCCCCC"/><path d="M 173 142 L 172 142 Q 152 146 143 142 Q 135 139 145 136 Q 159 133 171 130 L 182 126 Q 190 123 197 120 Q 205 116 213 117 Q 221 118 223 121 Q 225 123 222 126 Q 221 127 186 138 L 174 141" fill="#CCCCCC"/><path d="M 171 130 Q 168 116 166 101 Q 165 89 160 82 L 168 77 Q 185 85 183 93 Q 177 107 182 126 L 186 138 Q 192 154 199 167 Q 207 181 217 190 Q 225 199 230 200 L 250 220 Q 251 229 244 229 Q 234 227 220 216 Q 210 208 202 198 Q 178 164 174 141" fill="#CCCCCC"/><path d="M 230 200 Q 235 200 239 187 Q 242 177 245 167 Q 246 164 248 164 Q 250 165 250 168 Q 247 211 250 220" fill="#CCCCCC"/><path d="M 154 209 L 153 207 Q 153 204 154 203 Q 155 202 159 203 Q 185 209 188 218 Q 191 225 190 229 Q 189 232 186 232 Q 182 232 179 229 Q 169 221 160 214" fill="#CCCCCC"/><path d="M 32 157 L 22 158 Q 18 159 19 156 Q 20 154 22 151 Q 65 95 81 52 Q 84 45 80 36 Q 77 30 82 29 Q 88 29 96 34 Q 105 40 106 44 Q 107 48 105 51 Q 98 58 91 71 Q 78 95 65 113 L 58 121" fill="#000000" /><path d="M 65 113 Q 68 114 70 117 Q 74 121 78 126 Q 81 129 79 137 Q 77 150 78 209 Q 78 222 74 233 Q 71 240 66 236 Q 65 235 65 234 Q 55 222 59 209 Q 65 183 65 153 Q 64 132 58 121" fill="#2a0000" /><path d="M 160 82 Q 155 83 152 85 Q 138 91 130 94 L 126 90 Q 176 59 176 47 Q 176 44 178 43 Q 187 41 206 50 Q 209 53 208 56 Q 208 58 203 59 Q 194 63 168 77" fill="#550000" /><path d="M 130 94 Q 131 96 131 99 Q 129 108 128 186 L 114 227 Q 111 232 107 229 Q 103 225 101 218 Q 98 212 102 208 Q 117 190 117 148 Q 117 142 117 137 Q 116 104 108 93 Q 105 88 107 86 Q 108 85 113 85 Q 123 88 126 90" fill="#7f0000" /><path d="M 128 186 Q 128 190 130 191 Q 130 192 133 191 Q 159 174 162 174 Q 164 174 163 175 Q 163 178 159 181 Q 125 213 114 227" fill="#7f0000" /><path d="M 173 142 L 172 142 Q 152 146 143 142 Q 135 139 145 136 Q 159 133 171 130 L 182 126 Q 190 123 197 120 Q 205 116 213 117 Q 221 118 223 121 Q 225 123 222 126 Q 221 127 186 138 L 174 141" fill="#aa0000" /><path d="M 171 130 Q 168 116 166 101 Q 165 89 160 82 L 168 77 Q 185 85 183 93 Q 177 107 182 126 L 186 138 Q 192 154 199 167 Q 207 181 217 190 Q 225 199 230 200 L 250 220 Q 251 229 244 229 Q 234 227 220 216 Q 210 208 202 198 Q 178 164 174 141" fill="#d40000" /><path d="M 230 200 Q 235 200 239 187 Q 242 177 245 167 Q 246 164 248 164 Q 250 165 250 168 Q 247 211 250 220" fill="#d40000" /><path d="M 154 209 L 153 207 Q 153 204 154 203 Q 155 202 159 203 Q 185 209 188 218 Q 191 225 190 229 Q 189 232 186 232 Q 182 232 179 229 Q 169 221 160 214" fill="#ff0000" /></svg>