<svg xmlns="http://www.w3.org/2000/svg" xmlns:xlink="http://www.w3.org/1999/xlink" width="270" height="270"><path d="M 0 0 L 270 270 M 270 0 L 0 270 M 135 0 L 135 270 M 0 135 L 270 135" stroke="#CCCCCC" /><path d="M 68 106 L 65 111 Q 39 143 28 146 Q 24 146 25 143 Q 25 142 28 138 Q 48 115 63 93 Q 78 71 89 46 Q 92 39 88 30 Q 86 24 91 24 Q 96 24 104 29 Q 113 36 114 39 Q 115 43 112 46 Q 106 52 98 65 Q 89 80 80 92 L 72 102" fill="#000000" /><path d="M 80 92 Q 81 92 82 93 Q 86 97 90 103 Q 93 105 91 113 Q 88 130 86 204 Q 86 216 82 227 Q 79 234 74 230 Q 71 227 68 218 Q 65 209 67 204 Q 75 173 76 143 Q 77 132 77 121 Q 77 112 73 103 Q 72 102 72 102" fill="#2a0000" /><path d="M 123 126 L 116 129 Q 112 130 112 127 Q 113 125 115 122 Q 129 99 138 79 Q 148 59 153 38 Q 155 31 151 25 Q 148 18 153 17 Q 159 17 167 21 Q 175 27 177 30 Q 179 34 177 37 Q 172 43 167 54 Q 157 76 147 92 L 143 97" fill="#550000" /><path d="M 147 92 Q 188 83 213 72 Q 217 70 224 74 Q 231 78 237 81 Q 245 85 245 89 Q 245 91 243 92 L 213 94 Q 214 90 208 87 Q 199 85 158 101 Q 150 104 144 98 Q 143 97 143 97" fill="#7f0000" /><path d="M 243 92 Q 232 97 208 117 Q 205 120 204 119 Q 202 117 204 115 Q 213 95 213 94" fill="#7f0000" /><path d="M 166 133 L 160 123 Q 157 118 159 117 Q 161 115 166 116 Q 174 119 181 125 Q 186 129 183 133 Q 180 140 180 150 Q 180 205 182 220 Q 181 238 171 248 Q 167 252 163 247 L 163 218 Q 168 213 166 145" fill="#aa0000" /><path d="M 163 247 Q 157 236 137 216 Q 135 214 135 212 Q 135 210 138 211 Q 148 215 157 218 Q 161 219 163 218" fill="#aa0000" /><path d="M 123 152 L 126 151 Q 127 151 129 154 Q 131 160 130 169 Q 128 192 116 202 Q 110 205 108 201 Q 103 192 108 184 Q 117 170 122 154" fill="#d40000" /><path d="M 198 156 L 199 152 Q 200 149 202 151 Q 241 170 243 186 Q 245 197 241 201 Q 239 203 237 203 Q 233 201 229 195 Q 214 174 201 159" fill="#ff0000" /></svg>