<svg xmlns="http://www.w3.org/2000/svg" xmlns:xlink="http://www.w3.org/1999/xlink" width="270" height="270"><path d="M 0 0 L 270 270 M 270 0 L 0 270 M 135 0 L 135 270 M 0 135 L 270 135" stroke="#CCCCCC" /><path d="M 61 114 L 58 117 Q 33 152 22 154 Q 18 155 19 151 Q 19 150 22 147 Q 63 95 79 51 Q 82 44 78 35 Q 76 29 81 28 Q 87 28 94 33 Q 103 40 104 43 Q 106 47 103 50 Q 97 56 90 70 Q 80 87 70 100 L 63 110" fill="#CCCCCC"/><path d="M 70 100 Q 73 102 83 113 Q 86 116 83 124 Q 81 139 79 209 Q 79 222 75 233 Q 72 241 67 236 Q 66 235 65 234 Q 56 221 60 209 Q 63 194 66 180 Q 72 129 65 113 Q 63 112 63 110" fill="#CCCCCC"/><path d="M 154 75 Q 139 78 126 82 Q 117 86 107 78 Q 103 73 109 72 Q 197 57 222 50 Q 233 48 247 58 Q 251 61 250 64 Q 249 67 233 67 Q 213 68 197 69 Q 168 72 168 73" fill="#CCCCCC"/><path d="M 142 124 Q 143 120 145 114 Q 156 85 154 75 L 168 73 Q 173 77 176 81 Q 179 85 174 88 Q 170 94 167 98 Q 158 114 151 122" fill="#CCCCCC"/><path d="M 141 218 L 141 219 Q 140 227 137 230 Q 135 234 132 230 Q 128 227 126 219 Q 125 216 129 194 Q 131 144 122 123 Q 120 121 121 119 Q 122 117 124 117 Q 134 120 139 124 L 141 134 Q 140 143 141 164 L 141 172 Q 142 206 142 207 L 141 216" fill="#CCCCCC"/><path d="M 199 126 Q 195 122 144 134 Q 142 134 141 134 L 139 124 Q 141 124 142 124 L 151 122 Q 164 120 180 116 Q 203 107 208 109 Q 221 114 227 120" fill="#CCCCCC"/><path d="M 200 207 Q 202 206 202 200 Q 205 167 202 134 Q 202 127 199 126 L 227 120 Q 230 123 226 129 Q 221 137 220 150 Q 220 168 220 184 Q 221 209 214 228 Q 212 235 208 236" fill="#CCCCCC"/><path d="M 197 207 Q 200 207 200 207 L 208 236 Q 205 237 202 232 Q 194 218 190 212" fill="#CCCCCC"/><path d="M 141 164 Q 174 155 181 156 Q 188 158 191 162 Q 194 166 187 167 Q 141 172 141 172" fill="#CCCCCC"/><path d="M 142 207 Q 158 204 178 200 Q 186 198 191 201 Q 195 204 197 207 L 190 212 Q 161 214 147 216 Q 143 217 141 216" fill="#CCCCCC"/><path d="M 61 114 L 58 117 Q 33 152 22 154 Q 18 155 19 151 Q 19 150 22 147 Q 63 95 79 51 Q 82 44 78 35 Q 76 29 81 28 Q 87 28 94 33 Q 103 40 104 43 Q 106 47 103 50 Q 97 56 90 70 Q 80 87 70 100 L 63 110" fill="#000000" /><path d="M 70 100 Q 73 102 83 113 Q 86 116 83 124 Q 81 139 79 209 Q 79 222 75 233 Q 72 241 67 236 Q 66 235 65 234 Q 56 221 60 209 Q 63 194 66 180 Q 72 129 65 113 Q 63 112 63 110" fill="#240000" /><path d="M 154 75 Q 139 78 126 82 Q 117 86 107 78 Q 103 73 109 72 Q 197 57 222 50 Q 233 48 247 58 Q 251 61 250 64 Q 249 67 233 67 Q 213 68 197 69 Q 168 72 168 73" fill="#480000" /><path d="M 142 124 Q 143 120 145 114 Q 156 85 154 75 L 168 73 Q 173 77 176 81 Q 179 85 174 88 Q 170 94 167 98 Q 158 114 151 122" fill="#6d0000" /><path d="M 141 218 L 141 219 Q 140 227 137 230 Q 135 234 132 230 Q 128 227 126 219 Q 125 216 129 194 Q 131 144 122 123 Q 120 121 121 119 Q 122 117 124 117 Q 134 120 139 124 L 141 134 Q 140 143 141 164 L 141 172 Q 142 206 142 207 L 141 216" fill="#910000" /><path d="M 199 126 Q 195 122 144 134 Q 142 134 141 134 L 139 124 Q 141 124 142 124 L 151 122 Q 164 120 180 116 Q 203 107 208 109 Q 221 114 227 120" fill="#b60000" /><path d="M 200 207 Q 202 206 202 200 Q 205 167 202 134 Q 202 127 199 126 L 227 120 Q 230 123 226 129 Q 221 137 220 150 Q 220 168 220 184 Q 221 209 214 228 Q 212 235 208 236" fill="#b60000" /><path d="M 197 207 Q 200 207 200 207 L 208 236 Q 205 237 202 232 Q 194 218 190 212" fill="#b60000" /><path d="M 141 164 Q 174 155 181 156 Q 188 158 191 162 Q 194 166 187 167 Q 141 172 141 172" fill="#da0000" /><path d="M 142 207 Q 158 204 178 200 Q 186 198 191 201 Q 195 204 197 207 L 190 212 Q 161 214 147 216 Q 143 217 141 216" fill="#ff0000" /></svg>