<svg xmlns="http://www.w3.org/2000/svg" xmlns:xlink="http://www.w3.org/1999/xlink" width="270" height="270"><path d="M 0 0 L 270 270 M 270 0 L 0 270 M 135 0 L 135 270 M 0 135 L 270 135" stroke="#CCCCCC" /><path d="M 58 105 L 58 106 Q 30 143 21 145 Q 17 146 18 143 Q 19 141 21 138 Q 40 114 53 92 Q 67 69 76 45 Q 79 37 75 29 Q 72 24 77 23 Q 82 23 90 27 Q 98 33 99 37 Q 101 40 98 43 Q 92 49 86 63 Q 76 80 66 94 L 59 105" fill="#000000" /><path d="M 66 94 Q 71 99 73 101 Q 79 108 78 116 Q 75 133 75 206 Q 75 219 72 230 Q 68 237 63 233 Q 62 232 62 231 Q 53 219 56 206 Q 64 175 64 141 Q 64 116 59 105" fill="#240000" /><path d="M 157 78 Q 154 79 152 79 Q 139 84 128 79 Q 122 75 130 73 Q 145 71 157 67 L 172 62 Q 192 54 198 55 Q 205 56 207 59 Q 208 61 206 63 Q 205 64 171 74" fill="#480000" /><path d="M 157 105 Q 157 91 157 78 L 157 67 Q 156 50 155 34 Q 154 30 149 23 Q 147 18 149 16 Q 151 14 156 15 Q 163 16 173 21 Q 178 25 177 28 Q 172 45 172 62 L 171 74 Q 170 88 169 103" fill="#6d0000" /><path d="M 173 111 Q 146 114 110 126 Q 106 127 101 126 Q 96 125 92 122 Q 88 118 93 117 Q 127 111 157 105 L 169 103 Q 204 96 225 90 Q 234 87 248 96 Q 252 99 251 102 Q 250 105 245 105 Q 193 109 182 110" fill="#910000" /><path d="M 151 152 L 126 159 Q 110 163 103 157 Q 100 153 105 152 Q 115 150 178 138 L 194 134 Q 197 133 201 132 Q 216 127 230 137 Q 234 139 233 143 Q 232 144 218 145 Q 205 146 194 147 L 178 149" fill="#b60000" /><path d="M 178 138 Q 177 123 175 117 Q 173 113 173 111 L 182 110 Q 192 115 195 119 Q 196 121 194 134 L 194 147 Q 193 169 196 215 Q 197 235 187 251 Q 183 255 180 253 L 176 226 Q 179 222 179 213 Q 179 172 178 149" fill="#da0000" /><path d="M 180 253 Q 169 242 153 229 Q 150 227 150 224 Q 150 222 153 223 Q 160 225 165 226 Q 173 228 176 226" fill="#da0000" /><path d="M 121 177 L 120 174 Q 120 171 122 170 Q 123 169 128 170 Q 147 176 149 182 Q 150 190 149 194 Q 147 198 144 198 Q 140 197 136 194 Q 132 188 128 183" fill="#ff0000" /></svg>