<svg xmlns="http://www.w3.org/2000/svg" xmlns:xlink="http://www.w3.org/1999/xlink" width="270" height="270"><path d="M 0 0 L 270 270 M 270 0 L 0 270 M 135 0 L 135 270 M 0 135 L 270 135" stroke="#CCCCCC" /><path d="M 26 147 L 18 149 Q 14 149 15 146 Q 15 144 18 142 Q 56 92 71 54 Q 73 47 69 39 Q 67 33 72 32 Q 78 32 85 37 Q 93 43 94 47 Q 96 50 93 54 Q 88 60 81 72 Q 68 94 56 110 L 48 119" fill="#CCCCCC"/><path d="M 56 110 Q 57 110 58 111 Q 61 115 66 120 Q 68 123 66 130 Q 64 146 65 214 Q 66 226 62 237 Q 59 244 54 239 Q 53 239 53 239 Q 44 225 47 214 Q 54 186 54 156 Q 54 125 48 119" fill="#CCCCCC"/><path d="M 136 35 L 135 31 Q 134 28 136 27 Q 138 25 162 32 Q 172 36 174 42 Q 176 50 175 55 Q 174 58 171 59 Q 167 59 162 56 Q 153 47 144 40" fill="#CCCCCC"/><path d="M 131 94 Q 127 95 123 95 Q 103 100 93 93 Q 86 89 96 88 Q 148 82 191 67 Q 199 64 206 66 Q 214 68 215 71 Q 216 73 214 75 Q 212 77 194 82 Q 166 87 141 92" fill="#CCCCCC"/><path d="M 137 124 Q 123 142 119 146 L 112 153 Q 85 177 72 177 Q 70 176 72 175 Q 94 157 102 148 Q 103 147 104 146 Q 134 111 131 94 L 141 92 Q 145 94 149 97 Q 152 100 152 102 Q 152 105 150 106 Q 146 110 140 120" fill="#CCCCCC"/><path d="M 123 142 Q 127 144 132 149 Q 136 152 135 157 Q 132 166 130 200 Q 131 206 133 207 L 119 241 Q 114 238 111 229 Q 109 222 113 217 Q 116 212 118 203 Q 120 194 120 166 Q 120 158 116 149" fill="#CCCCCC"/><path d="M 133 207 Q 135 208 167 188 Q 173 184 173 188 Q 173 191 168 195 Q 135 226 126 238 Q 122 244 119 241" fill="#CCCCCC"/><path d="M 178 136 L 186 128 Q 202 111 202 104 Q 201 100 204 100 Q 213 99 223 111 Q 225 116 220 118 Q 215 120 195 134 Q 187 140 174 148 L 170 144" fill="#CCCCCC"/><path d="M 174 148 Q 183 158 192 165 Q 211 183 253 200 Q 255 201 254 203 Q 252 207 214 208 Q 208 208 203 203 Q 181 177 153 138 Q 147 129 138 124 Q 137 124 137 124 L 140 120 Q 142 119 146 119 Q 150 120 153 124 Q 162 135 170 144" fill="#CCCCCC"/><path d="M 26 147 L 18 149 Q 14 149 15 146 Q 15 144 18 142 Q 56 92 71 54 Q 73 47 69 39 Q 67 33 72 32 Q 78 32 85 37 Q 93 43 94 47 Q 96 50 93 54 Q 88 60 81 72 Q 68 94 56 110 L 48 119" fill="#000000" /><path d="M 56 110 Q 57 110 58 111 Q 61 115 66 120 Q 68 123 66 130 Q 64 146 65 214 Q 66 226 62 237 Q 59 244 54 239 Q 53 239 53 239 Q 44 225 47 214 Q 54 186 54 156 Q 54 125 48 119" fill="#240000" /><path d="M 136 35 L 135 31 Q 134 28 136 27 Q 138 25 162 32 Q 172 36 174 42 Q 176 50 175 55 Q 174 58 171 59 Q 167 59 162 56 Q 153 47 144 40" fill="#480000" /><path d="M 131 94 Q 127 95 123 95 Q 103 100 93 93 Q 86 89 96 88 Q 148 82 191 67 Q 199 64 206 66 Q 214 68 215 71 Q 216 73 214 75 Q 212 77 194 82 Q 166 87 141 92" fill="#6d0000" /><path d="M 137 124 Q 123 142 119 146 L 112 153 Q 85 177 72 177 Q 70 176 72 175 Q 94 157 102 148 Q 103 147 104 146 Q 134 111 131 94 L 141 92 Q 145 94 149 97 Q 152 100 152 102 Q 152 105 150 106 Q 146 110 140 120" fill="#910000" /><path d="M 123 142 Q 127 144 132 149 Q 136 152 135 157 Q 132 166 130 200 Q 131 206 133 207 L 119 241 Q 114 238 111 229 Q 109 222 113 217 Q 116 212 118 203 Q 120 194 120 166 Q 120 158 116 149" fill="#b60000" /><path d="M 133 207 Q 135 208 167 188 Q 173 184 173 188 Q 173 191 168 195 Q 135 226 126 238 Q 122 244 119 241" fill="#b60000" /><path d="M 178 136 L 186 128 Q 202 111 202 104 Q 201 100 204 100 Q 213 99 223 111 Q 225 116 220 118 Q 215 120 195 134 Q 187 140 174 148 L 170 144" fill="#da0000" /><path d="M 174 148 Q 183 158 192 165 Q 211 183 253 200 Q 255 201 254 203 Q 252 207 214 208 Q 208 208 203 203 Q 181 177 153 138 Q 147 129 138 124 Q 137 124 137 124 L 140 120 Q 142 119 146 119 Q 150 120 153 124 Q 162 135 170 144" fill="#ff0000" /></svg>