<svg xmlns="http://www.w3.org/2000/svg" xmlns:xlink="http://www.w3.org/1999/xlink" width="270" height="270"><path d="M 0 0 L 270 270 M 270 0 L 0 270 M 135 0 L 135 270 M 0 135 L 270 135" stroke="#CCCCCC" /><path d="M 27 147 L 17 150 Q 13 151 14 148 Q 14 146 17 143 Q 36 119 49 97 Q 63 73 72 49 Q 75 42 71 34 Q 69 28 74 27 Q 79 27 86 31 Q 94 37 95 41 Q 97 45 94 47 Q 88 54 82 67 Q 72 83 63 97 L 57 106" fill="#000000" /><path d="M 63 97 Q 65 98 76 110 Q 79 112 77 119 Q 74 136 74 209 Q 74 221 70 232 Q 67 239 62 235 Q 62 234 61 234 Q 53 221 55 209 Q 64 176 64 127 Q 64 127 64 126 Q 63 125 57 106" fill="#1f0000" /><path d="M 185 44 Q 183 42 178 43 Q 159 46 140 49 Q 131 52 125 49 Q 120 47 120 45 Q 119 43 123 43 Q 147 41 175 33 Q 191 25 210 41" fill="#3f0000" /><path d="M 182 70 L 187 53 Q 188 47 185 44 L 210 41 Q 214 45 209 50 Q 198 58 190 86 L 177 84" fill="#3f0000" /><path d="M 139 66 L 153 62 Q 159 60 165 61 Q 171 62 173 65 Q 174 66 172 68 Q 171 69 166 70 Q 160 71 154 72 Q 132 77 124 73 Q 119 69 126 68" fill="#5f0000" /><path d="M 190 86 Q 196 90 196 92 Q 195 94 193 94 Q 148 99 127 104 Q 124 105 121 104 Q 119 103 117 101 Q 114 96 119 96 Q 144 92 176 84 Q 176 84 177 84" fill="#7f0000" /><path d="M 108 133 L 107 135 Q 105 138 99 149 Q 96 155 95 156 Q 92 160 90 160 Q 89 162 87 158 Q 85 154 85 149 Q 86 144 89 140 Q 98 126 98 119 Q 98 116 100 115 Q 102 115 102 116 Q 105 118 108 123 L 109 132" fill="#9f0000" /><path d="M 108 123 Q 119 122 131 119 Q 186 109 200 107 Q 222 102 229 107 L 212 115 Q 208 114 198 116 Q 151 121 127 130 Q 114 133 109 132" fill="#bf0000" /><path d="M 229 107 Q 247 120 247 123 Q 247 125 238 128 Q 227 131 213 139 Q 208 142 206 141 Q 204 140 207 137 Q 215 119 215 118 Q 216 116 212 115" fill="#bf0000" /><path d="M 165 151 Q 161 151 142 158 Q 129 162 120 158 Q 115 156 116 155 Q 117 153 121 152 Q 135 151 159 144 Q 179 138 183 139 Q 191 142 194 145" fill="#df0000" /><path d="M 136 229 L 108 231 Q 96 232 95 231 Q 92 228 95 227 Q 131 218 149 199 L 155 191 Q 164 177 169 158 Q 171 152 165 151 L 194 145 Q 197 149 192 153 Q 187 157 184 165 Q 175 185 165 199 L 158 207" fill="#df0000" /><path d="M 149 199 Q 129 180 118 174 Q 114 172 114 170 Q 115 169 119 168 Q 128 167 138 176 Q 147 184 155 191 L 165 199 Q 168 200 171 202 Q 195 218 230 225 Q 238 226 245 228 Q 255 230 255 231 Q 256 234 247 236 Q 211 244 201 241 Q 188 237 158 207" fill="#ff0000" /></svg>