<svg xmlns="http://www.w3.org/2000/svg" xmlns:xlink="http://www.w3.org/1999/xlink" width="270" height="270"><path d="M 0 0 L 270 270 M 270 0 L 0 270 M 135 0 L 135 270 M 0 135 L 270 135" stroke="#CCCCCC" /><path d="M 26 143 L 14 146 Q 10 147 11 144 Q 11 142 14 139 Q 55 88 71 48 Q 74 41 70 33 Q 68 27 73 26 Q 78 25 86 31 Q 95 37 96 41 Q 97 45 94 48 Q 88 54 81 67 Q 70 85 59 99 L 52 108" fill="#CCCCCC"/><path d="M 59 99 Q 61 100 71 111 Q 74 114 72 121 Q 69 138 70 214 Q 70 226 66 237 Q 63 244 58 239 Q 58 239 57 239 Q 49 225 51 214 Q 59 182 59 152 Q 59 144 59 137 Q 59 125 52 108" fill="#CCCCCC"/><path d="M 117 45 L 118 44 Q 127 43 134 50 Q 138 53 138 55 Q 138 58 137 59 Q 135 59 134 61 Q 125 74 118 81 Q 118 81 118 82 Q 99 98 91 98 Q 89 97 90 96 Q 101 85 105 79 Q 105 79 106 78 Q 119 56 117 48" fill="#CCCCCC"/><path d="M 165 52 L 164 49 Q 163 45 165 44 Q 167 43 171 44 Q 201 49 205 60 Q 208 68 207 72 Q 205 76 203 76 Q 198 77 194 74 Q 183 64 173 57" fill="#CCCCCC"/><path d="M 136 129 L 126 140 Q 125 141 125 142 Q 95 175 75 178 Q 72 178 74 176 Q 97 155 107 144 Q 108 143 108 143 Q 141 101 137 83 Q 137 79 139 79 Q 148 78 156 86 Q 160 89 160 91 Q 160 94 159 96 Q 156 98 154 102 L 151 107" fill="#CCCCCC"/><path d="M 154 102 Q 159 105 170 115 Q 185 128 200 136 Q 212 144 228 150 Q 243 155 255 160 Q 259 162 259 163 Q 258 165 253 165 Q 209 172 197 160 Q 173 135 152 109 Q 151 108 151 107" fill="#CCCCCC"/><path d="M 126 231 L 124 236 Q 123 240 118 234 Q 114 229 113 221 Q 109 193 101 177 Q 99 173 101 171 Q 102 170 105 171 Q 112 172 115 173 L 119 182 Q 120 190 124 213 L 125 223" fill="#CCCCCC"/><path d="M 172 175 Q 171 173 165 174 Q 130 180 119 182 L 115 173 Q 147 170 170 162 Q 176 159 181 162 Q 195 168 199 172" fill="#CCCCCC"/><path d="M 169 206 Q 172 195 174 182 Q 175 177 172 175 L 199 172 Q 203 177 198 182 Q 189 188 183 208" fill="#CCCCCC"/><path d="M 124 213 Q 144 211 169 206 L 169 206 L 183 208 Q 190 213 190 215 Q 189 217 186 218 Q 148 219 130 223 Q 127 223 125 223" fill="#CCCCCC"/><path d="M 26 143 L 14 146 Q 10 147 11 144 Q 11 142 14 139 Q 55 88 71 48 Q 74 41 70 33 Q 68 27 73 26 Q 78 25 86 31 Q 95 37 96 41 Q 97 45 94 48 Q 88 54 81 67 Q 70 85 59 99 L 52 108" fill="#000000" /><path d="M 59 99 Q 61 100 71 111 Q 74 114 72 121 Q 69 138 70 214 Q 70 226 66 237 Q 63 244 58 239 Q 58 239 57 239 Q 49 225 51 214 Q 59 182 59 152 Q 59 144 59 137 Q 59 125 52 108" fill="#1f0000" /><path d="M 117 45 L 118 44 Q 127 43 134 50 Q 138 53 138 55 Q 138 58 137 59 Q 135 59 134 61 Q 125 74 118 81 Q 118 81 118 82 Q 99 98 91 98 Q 89 97 90 96 Q 101 85 105 79 Q 105 79 106 78 Q 119 56 117 48" fill="#3f0000" /><path d="M 165 52 L 164 49 Q 163 45 165 44 Q 167 43 171 44 Q 201 49 205 60 Q 208 68 207 72 Q 205 76 203 76 Q 198 77 194 74 Q 183 64 173 57" fill="#5f0000" /><path d="M 136 129 L 126 140 Q 125 141 125 142 Q 95 175 75 178 Q 72 178 74 176 Q 97 155 107 144 Q 108 143 108 143 Q 141 101 137 83 Q 137 79 139 79 Q 148 78 156 86 Q 160 89 160 91 Q 160 94 159 96 Q 156 98 154 102 L 151 107" fill="#7f0000" /><path d="M 154 102 Q 159 105 170 115 Q 185 128 200 136 Q 212 144 228 150 Q 243 155 255 160 Q 259 162 259 163 Q 258 165 253 165 Q 209 172 197 160 Q 173 135 152 109 Q 151 108 151 107" fill="#9f0000" /><path d="M 126 231 L 124 236 Q 123 240 118 234 Q 114 229 113 221 Q 109 193 101 177 Q 99 173 101 171 Q 102 170 105 171 Q 112 172 115 173 L 119 182 Q 120 190 124 213 L 125 223" fill="#bf0000" /><path d="M 172 175 Q 171 173 165 174 Q 130 180 119 182 L 115 173 Q 147 170 170 162 Q 176 159 181 162 Q 195 168 199 172" fill="#df0000" /><path d="M 169 206 Q 172 195 174 182 Q 175 177 172 175 L 199 172 Q 203 177 198 182 Q 189 188 183 208" fill="#df0000" /><path d="M 124 213 Q 144 211 169 206 L 169 206 L 183 208 Q 190 213 190 215 Q 189 217 186 218 Q 148 219 130 223 Q 127 223 125 223" fill="#ff0000" /></svg>