<svg xmlns="http://www.w3.org/2000/svg" xmlns:xlink="http://www.w3.org/1999/xlink" width="270" height="270"><path d="M 0 0 L 270 270 M 270 0 L 0 270 M 135 0 L 135 270 M 0 135 L 270 135" stroke="#CCCCCC" /><path d="M 58 106 L 54 110 Q 27 144 16 147 Q 12 147 13 144 Q 14 142 17 139 Q 38 114 53 92 Q 68 68 78 43 Q 82 35 78 26 Q 76 20 81 20 Q 86 19 94 25 Q 102 31 103 35 Q 105 39 102 42 Q 95 48 88 62 Q 78 78 69 91 L 62 101" fill="#000000" /><path d="M 69 91 Q 69 91 70 91 Q 73 94 78 100 Q 80 103 78 110 Q 76 127 77 202 Q 78 214 74 224 Q 71 231 66 227 Q 65 226 65 226 Q 56 213 59 201 Q 67 170 66 140 Q 66 111 62 101" fill="#1f0000" /><path d="M 170 23 L 170 19 Q 170 16 172 15 Q 175 15 179 17 Q 191 22 196 26 Q 198 30 197 32 Q 196 34 192 34 Q 175 36 165 41 Q 132 51 125 49 Q 124 49 125 46 Q 156 34 166 25" fill="#3f0000" /><path d="M 113 74 L 112 71 Q 112 68 113 67 Q 115 67 119 68 Q 136 73 138 80 Q 139 87 138 91 Q 136 94 133 94 Q 130 93 127 90 Q 123 85 119 80" fill="#5f0000" /><path d="M 147 62 L 147 59 Q 147 56 148 56 Q 150 55 153 56 Q 166 61 167 62 Q 171 65 172 71 Q 172 75 171 77 Q 168 80 165 79 Q 158 76 151 65" fill="#7f0000" /><path d="M 213 51 L 212 46 Q 212 43 215 43 Q 218 43 224 47 Q 230 51 232 56 Q 234 60 228 62 Q 222 64 203 75 Q 193 81 176 89 Q 172 89 175 86 Q 201 64 208 55" fill="#9f0000" /><path d="M 183 108 Q 178 105 140 118 Q 131 123 124 119 Q 120 116 118 113 Q 116 108 122 109 Q 137 109 143 108 Q 167 102 183 96 Q 188 94 192 97 Q 208 105 208 109" fill="#bf0000" /><path d="M 166 139 Q 176 125 184 113 Q 185 109 183 108 L 208 109 Q 210 113 205 115 Q 196 118 170 142" fill="#bf0000" /><path d="M 184 183 L 183 220 Q 182 232 176 242 Q 170 251 167 252 L 164 224 Q 166 222 167 216 Q 169 204 169 184 Q 169 167 167 159 L 163 151 Q 161 148 158 145 Q 153 142 153 138 Q 153 133 156 133 Q 159 134 166 139 L 170 142 Q 176 145 178 149 L 180 157" fill="#df0000" /><path d="M 167 252 Q 164 254 162 251 Q 159 245 153 240 Q 133 222 133 221 Q 133 219 144 222 Q 162 226 164 224" fill="#df0000" /><path d="M 167 159 Q 137 163 110 171 Q 106 172 100 171 Q 96 169 92 166 Q 88 162 94 161 Q 131 156 163 151 L 178 149 Q 210 143 230 138 Q 239 136 253 146 Q 257 149 256 152 Q 254 154 237 154 Q 204 155 180 157" fill="#ff0000" /></svg>