<svg xmlns="http://www.w3.org/2000/svg" xmlns:xlink="http://www.w3.org/1999/xlink" width="270" height="270"><path d="M 0 0 L 270 270 M 270 0 L 0 270 M 135 0 L 135 270 M 0 135 L 270 135" stroke="#CCCCCC" /><path d="M 27 149 L 17 152 Q 13 153 14 149 Q 14 148 17 145 Q 58 92 73 51 Q 76 44 72 35 Q 70 29 75 29 Q 80 28 87 33 Q 96 39 97 43 Q 98 47 96 49 Q 89 56 83 69 Q 70 91 58 107 L 51 117" fill="#000000" /><path d="M 58 107 Q 59 108 60 109 Q 64 112 69 118 Q 71 121 69 128 Q 67 144 67 215 Q 67 227 63 238 Q 60 245 56 241 Q 55 240 55 240 Q 46 227 48 215 Q 52 199 54 185 Q 59 134 51 117" fill="#1c0000" /><path d="M 166 79 Q 159 80 153 82 Q 145 85 139 83 Q 135 82 134 80 Q 134 78 138 77 Q 152 75 166 72 L 179 68 Q 188 64 199 60 Q 204 58 208 59 Q 222 65 226 68 L 202 72 Q 199 70 179 76" fill="#380000" /><path d="M 203 93 Q 203 87 205 82 Q 205 76 202 72 L 226 68 Q 230 72 226 77 Q 222 81 218 88 Q 218 88 218 89 L 214 100 Q 212 107 210 118 L 197 118 Q 199 110 201 101" fill="#380000" /><path d="M 166 108 Q 152 110 140 115 Q 137 116 133 115 Q 129 114 126 111 Q 123 108 127 108 Q 147 104 166 100 L 178 98 Q 183 96 203 93 L 218 89 Q 218 88 219 88 Q 234 82 247 91 Q 250 93 249 96 Q 249 97 245 98 Q 240 98 235 98 Q 224 99 214 100 L 201 101 Q 187 103 178 105" fill="#550000" /><path d="M 165 134 Q 152 137 143 140 Q 140 140 138 140 Q 135 139 134 138 Q 131 134 135 133 Q 149 130 166 127 L 178 123 Q 187 121 197 118 L 210 118 Q 216 121 216 123 Q 216 125 213 126 Q 192 129 178 132" fill="#710000" /><path d="M 178 148 Q 194 142 198 143 Q 204 144 206 146 Q 207 148 205 149 Q 205 149 178 157 L 165 160 Q 149 164 142 160 Q 137 157 144 155 Q 155 153 165 152" fill="#8d0000" /><path d="M 178 173 Q 189 170 198 169 Q 210 164 221 172 Q 224 174 223 177 Q 222 179 212 179 Q 191 179 178 182 L 165 184 Q 155 186 147 188 Q 144 189 140 189 Q 136 188 134 186 Q 131 182 135 182 Q 150 179 165 176" fill="#aa0000" /><path d="M 178 140 L 178 148 L 178 157 Q 178 166 178 173 L 178 182 Q 176 206 174 212 Q 172 217 168 214 Q 165 210 165 184 L 165 176 Q 165 168 165 160 L 165 152 Q 165 143 165 134 L 166 127 Q 166 117 166 108 L 166 100 Q 166 89 166 79 L 166 72 Q 166 53 166 41 Q 165 33 159 28 Q 155 25 158 23 Q 161 20 165 21 Q 176 24 182 28 Q 186 32 184 35 Q 180 43 179 68 L 179 76 Q 178 86 178 98 L 178 105 Q 178 114 178 123 L 178 132" fill="#c60000" /><path d="M 102 98 Q 101 96 99 97 Q 86 103 81 100 Q 79 99 83 97 Q 90 93 99 84 Q 103 80 110 82 Q 120 85 123 87 Q 126 90 122 95" fill="#e20000" /><path d="M 95 154 Q 90 155 88 152 Q 87 149 90 144 Q 96 137 101 115 Q 104 101 102 98 L 122 95 Q 118 101 113 111 Q 107 128 101 142" fill="#e20000" /><path d="M 95 154 L 101 142 Q 100 146 101 146 Q 102 147 106 145 Q 116 143 125 150" fill="#e20000" /><path d="M 105 152 L 95 154 L 125 150 Q 127 152 124 155 Q 124 156 112 189 L 108 198 Q 97 220 78 233 Q 76 235 75 235 Q 74 234 77 231 Q 92 210 99 193 L 102 184 Q 109 163 107 158" fill="#e20000" /><path d="M 112 189 Q 114 190 117 192 Q 175 225 215 225 Q 234 226 251 227 Q 256 226 256 229 Q 256 231 252 233 Q 205 249 193 246 Q 157 231 118 204 Q 112 201 108 198 L 99 193 Q 87 187 77 187 Q 74 187 72 184 Q 71 182 73 181 Q 87 177 102 184" fill="#ff0000" /></svg>