<svg xmlns="http://www.w3.org/2000/svg" xmlns:xlink="http://www.w3.org/1999/xlink" width="270" height="270"><path d="M 0 0 L 270 270 M 270 0 L 0 270 M 135 0 L 135 270 M 0 135 L 270 135" stroke="#CCCCCC" /><path d="M 57 110 L 56 111 Q 32 143 21 145 Q 17 146 18 143 Q 19 141 21 138 Q 61 90 77 50 Q 80 43 77 35 Q 75 29 80 28 Q 85 28 92 33 Q 100 39 102 43 Q 103 47 100 50 Q 94 55 88 68 Q 77 85 67 98 L 59 108" fill="#CCCCCC"/><path d="M 67 98 Q 67 98 76 108 Q 79 111 77 118 Q 74 134 74 207 Q 74 219 70 229 Q 67 236 62 232 Q 62 231 62 231 Q 53 218 55 206 Q 59 191 62 177 Q 68 125 59 108" fill="#CCCCCC"/><path d="M 169 23 L 169 19 Q 169 17 171 16 Q 174 15 178 17 Q 188 21 193 25 Q 196 28 195 30 Q 194 32 190 32 Q 173 36 168 40 Q 134 54 123 54 Q 122 53 123 51 Q 152 37 166 25" fill="#CCCCCC"/><path d="M 108 68 L 108 65 Q 108 62 109 62 Q 116 61 126 68 Q 129 71 130 76 Q 130 80 129 82 Q 126 85 123 84 Q 117 81 111 71" fill="#CCCCCC"/><path d="M 139 58 L 140 56 Q 141 53 143 54 Q 154 57 159 65 Q 160 71 159 74 Q 157 78 154 77 Q 148 76 141 61" fill="#CCCCCC"/><path d="M 198 52 L 198 48 Q 199 44 202 44 Q 208 46 211 51 Q 215 56 215 60 Q 216 63 212 63 Q 200 67 177 78 Q 175 78 173 78 Q 172 76 174 74 Q 188 63 195 55" fill="#CCCCCC"/><path d="M 110 170 L 107 176 Q 107 177 106 178 Q 89 203 80 205 Q 78 205 79 203 Q 79 202 80 201 Q 95 180 103 163 Q 104 160 105 156 Q 121 104 113 93 Q 111 90 114 89 Q 117 88 121 91 Q 127 94 130 98 L 130 98 L 129 105 Q 128 108 128 110 Q 127 115 126 121 Q 125 124 124 128 L 123 136 Q 119 149 115 159 L 113 164" fill="#CCCCCC"/><path d="M 173 97 Q 171 96 167 97 Q 132 105 129 105 L 130 98 Q 147 94 159 90 Q 174 84 179 86 Q 190 92 194 96" fill="#CCCCCC"/><path d="M 165 122 Q 175 101 173 97 L 194 96 Q 197 100 193 104 Q 186 106 180 118" fill="#CCCCCC"/><path d="M 124 128 Q 145 125 165 122 L 180 118 Q 188 115 193 118 Q 205 125 206 129 L 186 126 Q 181 123 133 136 Q 129 137 123 136" fill="#CCCCCC"/><path d="M 176 153 Q 183 139 187 130 Q 187 128 186 126 L 206 129 Q 207 131 205 133 Q 199 138 191 150" fill="#CCCCCC"/><path d="M 115 159 Q 116 158 116 158 Q 143 158 176 153 L 191 150 Q 216 146 224 142 Q 229 138 234 141 Q 248 147 251 150 Q 252 153 249 156 L 224 157 Q 220 149 127 168 Q 122 170 116 166 Q 114 164 113 164" fill="#CCCCCC"/><path d="M 249 156 Q 244 163 242 178 Q 239 218 232 231 Q 227 242 218 249 L 217 218 Q 224 204 226 173 Q 227 161 224 157" fill="#CCCCCC"/><path d="M 218 249 Q 213 254 207 248 Q 203 238 192 224 Q 189 217 195 220 Q 200 223 206 225 Q 212 226 217 218" fill="#CCCCCC"/><path d="M 103 191 L 103 190 Q 105 187 106 187 Q 107 187 110 190 Q 123 205 122 212 Q 120 218 118 220 Q 115 222 113 221 Q 111 219 105 198" fill="#CCCCCC"/><path d="M 129 183 L 130 182 Q 131 179 132 180 Q 136 182 142 190 Q 146 194 147 198 Q 148 203 146 205 Q 144 208 141 207 Q 136 205 129 185" fill="#CCCCCC"/><path d="M 153 178 L 154 177 Q 156 174 157 175 Q 170 182 172 189 Q 172 194 171 197 Q 168 200 166 199 Q 160 197 154 180" fill="#CCCCCC"/><path d="M 179 175 L 179 173 Q 179 170 180 169 Q 184 168 200 177 Q 207 182 207 186 Q 208 193 207 197 Q 205 199 203 199 Q 199 199 197 196 Q 191 187 185 181" fill="#CCCCCC"/><path d="M 57 110 L 56 111 Q 32 143 21 145 Q 17 146 18 143 Q 19 141 21 138 Q 61 90 77 50 Q 80 43 77 35 Q 75 29 80 28 Q 85 28 92 33 Q 100 39 102 43 Q 103 47 100 50 Q 94 55 88 68 Q 77 85 67 98 L 59 108" fill="#000000" /><path d="M 67 98 Q 67 98 76 108 Q 79 111 77 118 Q 74 134 74 207 Q 74 219 70 229 Q 67 236 62 232 Q 62 231 62 231 Q 53 218 55 206 Q 59 191 62 177 Q 68 125 59 108" fill="#130000" /><path d="M 169 23 L 169 19 Q 169 17 171 16 Q 174 15 178 17 Q 188 21 193 25 Q 196 28 195 30 Q 194 32 190 32 Q 173 36 168 40 Q 134 54 123 54 Q 122 53 123 51 Q 152 37 166 25" fill="#270000" /><path d="M 108 68 L 108 65 Q 108 62 109 62 Q 116 61 126 68 Q 129 71 130 76 Q 130 80 129 82 Q 126 85 123 84 Q 117 81 111 71" fill="#3a0000" /><path d="M 139 58 L 140 56 Q 141 53 143 54 Q 154 57 159 65 Q 160 71 159 74 Q 157 78 154 77 Q 148 76 141 61" fill="#4e0000" /><path d="M 198 52 L 198 48 Q 199 44 202 44 Q 208 46 211 51 Q 215 56 215 60 Q 216 63 212 63 Q 200 67 177 78 Q 175 78 173 78 Q 172 76 174 74 Q 188 63 195 55" fill="#620000" /><path d="M 110 170 L 107 176 Q 107 177 106 178 Q 89 203 80 205 Q 78 205 79 203 Q 79 202 80 201 Q 95 180 103 163 Q 104 160 105 156 Q 121 104 113 93 Q 111 90 114 89 Q 117 88 121 91 Q 127 94 130 98 L 130 98 L 129 105 Q 128 108 128 110 Q 127 115 126 121 Q 125 124 124 128 L 123 136 Q 119 149 115 159 L 113 164" fill="#750000" /><path d="M 173 97 Q 171 96 167 97 Q 132 105 129 105 L 130 98 Q 147 94 159 90 Q 174 84 179 86 Q 190 92 194 96" fill="#890000" /><path d="M 165 122 Q 175 101 173 97 L 194 96 Q 197 100 193 104 Q 186 106 180 118" fill="#890000" /><path d="M 124 128 Q 145 125 165 122 L 180 118 Q 188 115 193 118 Q 205 125 206 129 L 186 126 Q 181 123 133 136 Q 129 137 123 136" fill="#9c0000" /><path d="M 176 153 Q 183 139 187 130 Q 187 128 186 126 L 206 129 Q 207 131 205 133 Q 199 138 191 150" fill="#9c0000" /><path d="M 115 159 Q 116 158 116 158 Q 143 158 176 153 L 191 150 Q 216 146 224 142 Q 229 138 234 141 Q 248 147 251 150 Q 252 153 249 156 L 224 157 Q 220 149 127 168 Q 122 170 116 166 Q 114 164 113 164" fill="#b00000" /><path d="M 249 156 Q 244 163 242 178 Q 239 218 232 231 Q 227 242 218 249 L 217 218 Q 224 204 226 173 Q 227 161 224 157" fill="#b00000" /><path d="M 218 249 Q 213 254 207 248 Q 203 238 192 224 Q 189 217 195 220 Q 200 223 206 225 Q 212 226 217 218" fill="#b00000" /><path d="M 103 191 L 103 190 Q 105 187 106 187 Q 107 187 110 190 Q 123 205 122 212 Q 120 218 118 220 Q 115 222 113 221 Q 111 219 105 198" fill="#c40000" /><path d="M 129 183 L 130 182 Q 131 179 132 180 Q 136 182 142 190 Q 146 194 147 198 Q 148 203 146 205 Q 144 208 141 207 Q 136 205 129 185" fill="#d70000" /><path d="M 153 178 L 154 177 Q 156 174 157 175 Q 170 182 172 189 Q 172 194 171 197 Q 168 200 166 199 Q 160 197 154 180" fill="#eb0000" /><path d="M 179 175 L 179 173 Q 179 170 180 169 Q 184 168 200 177 Q 207 182 207 186 Q 208 193 207 197 Q 205 199 203 199 Q 199 199 197 196 Q 191 187 185 181" fill="#ff0000" /></svg>