<svg xmlns="http://www.w3.org/2000/svg" xmlns:xlink="http://www.w3.org/1999/xlink" width="270" height="270"><path d="M 0 0 L 270 270 M 270 0 L 0 270 M 135 0 L 135 270 M 0 135 L 270 135" stroke="#CCCCCC" /><path d="M 61 112 L 59 115 Q 34 150 23 152 Q 19 153 20 150 Q 21 148 23 146 Q 66 91 83 48 Q 86 41 82 32 Q 79 26 84 25 Q 90 25 97 30 Q 105 36 106 39 Q 107 43 105 46 Q 98 52 91 66 Q 80 85 70 101 L 63 110" fill="#000000" /><path d="M 70 101 Q 71 101 82 113 Q 84 116 82 123 Q 80 139 80 212 Q 80 224 76 234 Q 73 241 69 237 Q 68 236 68 236 Q 59 223 62 211 Q 69 181 69 152 Q 69 145 70 138 Q 68 123 63 110" fill="#170000" /><path d="M 177 72 Q 162 75 150 77 L 138 80 Q 126 81 119 76 Q 113 72 122 70 Q 129 70 137 69 L 150 67 Q 156 65 162 64 Q 170 62 178 60 L 193 56 Q 200 52 209 54 Q 216 56 218 58 Q 218 60 217 62 Q 214 64 201 67 Q 195 68 190 69" fill="#2e0000" /><path d="M 150 77 Q 150 89 150 106 L 140 107 Q 139 90 138 80 L 137 69 Q 136 57 129 46 Q 128 42 130 40 Q 132 39 135 40 Q 142 43 147 47 Q 151 50 150 56 Q 150 58 150 67" fill="#450000" /><path d="M 174 102 Q 176 86 177 72 L 178 60 Q 179 48 179 38 Q 179 33 175 27 Q 173 23 176 21 Q 178 19 182 20 Q 187 22 196 27 Q 200 31 199 34 Q 193 49 193 56 L 190 69 Q 187 84 185 99" fill="#5c0000" /><path d="M 134 118 Q 122 120 113 123 Q 109 124 104 123 Q 99 122 96 119 Q 92 115 97 114 Q 119 110 140 107 L 150 106 Q 159 104 167 103 Q 170 102 174 102 L 185 99 Q 205 95 220 92 Q 231 88 246 97 Q 250 100 249 103 Q 248 106 242 106 Q 186 106 143 116" fill="#730000" /><path d="M 125 150 Q 102 170 92 170 Q 87 171 91 168 Q 131 135 134 118 L 143 116 Q 144 116 144 116 Q 150 118 150 120 Q 150 120 150 121 Q 150 122 133 142" fill="#8b0000" /><path d="M 140 150 Q 140 151 140 152 Q 139 161 137 205 Q 136 231 127 237 Q 125 238 123 235 Q 115 224 123 209 Q 132 174 125 150 L 133 142 Q 135 142 136 143 Q 136 143 136 143" fill="#a20000" /><path d="M 160 146 Q 154 147 148 149 Q 143 150 140 150 L 136 143 Q 142 142 190 133 Q 205 127 209 130 Q 219 133 224 137 L 202 142 Q 196 139 171 144" fill="#b90000" /><path d="M 224 137 Q 228 141 224 145 Q 220 153 221 163 Q 223 188 224 215 Q 225 227 219 238 Q 214 249 211 250 Q 206 250 203 245 L 203 226 Q 206 224 206 219 Q 208 189 205 151 Q 205 144 202 142" fill="#b90000" /><path d="M 203 245 Q 197 237 188 228 Q 184 226 184 223 Q 184 221 187 222 Q 200 226 203 226" fill="#b90000" /><path d="M 163 174 Q 159 175 155 176 Q 151 177 149 175 Q 144 172 148 171 Q 155 169 163 166 L 176 162 Q 175 162 175 163 Q 183 160 188 161 Q 194 162 196 165 Q 198 168 193 169 Q 184 170 175 172" fill="#d00000" /><path d="M 174 188 Q 183 186 189 186 Q 195 188 197 191 Q 199 194 194 195 Q 184 196 174 198 L 163 200 Q 147 200 147 200 Q 142 196 146 196 Q 154 193 163 191" fill="#e70000" /><path d="M 174 181 L 174 188 L 174 198 Q 174 213 173 221 Q 172 232 168 234 Q 167 234 166 233 Q 163 229 163 200 L 163 191 Q 163 181 163 174 L 163 166 Q 164 152 160 146 L 171 144 Q 173 145 175 146 Q 178 149 177 152 Q 176 160 176 162 L 175 172" fill="#ff0000" /></svg>