<svg xmlns="http://www.w3.org/2000/svg" xmlns:xlink="http://www.w3.org/1999/xlink" width="270" height="270"><path d="M 0 0 L 270 270 M 270 0 L 0 270 M 135 0 L 135 270 M 0 135 L 270 135" stroke="#CCCCCC" /><path d="M 60 109 L 58 112 Q 32 145 21 146 Q 18 147 19 144 Q 19 142 22 140 Q 66 88 82 48 Q 86 41 82 32 Q 80 26 85 26 Q 90 26 97 31 Q 105 37 106 41 Q 107 44 105 47 Q 99 54 91 66 Q 80 84 69 98 L 63 106" fill="#CCCCCC"/><path d="M 69 98 Q 74 101 83 112 Q 87 115 84 123 Q 82 137 81 202 Q 81 214 77 226 Q 74 233 69 229 Q 67 228 67 227 Q 58 213 61 201 Q 69 173 69 147 Q 69 142 69 138 Q 69 122 63 106" fill="#CCCCCC"/><path d="M 166 64 Q 166 28 162 22 Q 160 18 162 17 Q 164 15 167 16 Q 172 17 179 21 Q 183 24 183 27 Q 182 28 181 30 Q 181 32 180 36 Q 178 48 176 62" fill="#CCCCCC"/><path d="M 127 87 Q 125 89 122 87 Q 118 84 116 81 Q 114 78 119 74 Q 123 70 125 61 Q 127 51 123 42 Q 122 38 124 37 Q 127 36 129 38 Q 134 42 137 46 Q 139 49 138 54 Q 136 61 135 67" fill="#CCCCCC"/><path d="M 200 65 L 184 68 Q 134 78 127 87 L 135 67 Q 134 71 138 70 Q 151 66 166 64 L 176 62 Q 191 58 209 56 L 207 65" fill="#CCCCCC"/><path d="M 209 56 Q 212 51 214 44 Q 214 33 212 29 Q 212 26 214 25 Q 217 25 219 27 Q 226 32 230 36 Q 232 39 230 43 Q 227 44 223 54 Q 220 72 213 78 Q 210 80 209 76 Q 207 72 207 65" fill="#CCCCCC"/><path d="M 120 138 Q 119 139 118 140 Q 101 157 94 157 Q 91 158 92 155 Q 93 154 95 152 Q 120 126 130 104 Q 132 101 130 96 Q 129 91 133 91 Q 137 92 142 96 Q 147 101 148 104 Q 148 104 148 105 Q 148 106 127 130" fill="#CCCCCC"/><path d="M 133 212 Q 133 219 133 226 Q 133 237 130 247 Q 127 254 122 250 L 122 250 Q 113 239 116 226 Q 125 196 125 155 Q 124 155 125 154 Q 124 152 120 138 L 127 130 Q 130 132 132 134 Q 139 142 137 149 Q 135 161 134 209" fill="#CCCCCC"/><path d="M 169 85 L 168 82 Q 168 80 169 79 Q 170 78 173 79 Q 191 84 193 90 Q 195 96 194 99 Q 193 102 190 102 Q 187 102 184 99 Q 179 93 174 89" fill="#CCCCCC"/><path d="M 176 124 Q 175 124 174 124 Q 160 127 151 122 Q 144 118 153 116 Q 158 116 186 110 Q 215 101 221 102 Q 228 104 230 106 Q 231 108 229 110 Q 227 112 186 121" fill="#CCCCCC"/><path d="M 179 152 Q 171 153 164 155 Q 157 156 154 154 Q 148 150 153 149 Q 165 145 179 142 L 192 138 Q 204 134 212 136 Q 219 137 222 141 Q 224 144 218 145 Q 206 147 191 150" fill="#CCCCCC"/><path d="M 179 180 Q 171 181 163 183 Q 156 184 153 182 Q 147 178 152 177 Q 164 173 179 170 L 191 167 Q 204 163 212 164 Q 219 166 222 170 Q 224 173 218 174 Q 204 176 190 179" fill="#CCCCCC"/><path d="M 179 190 L 179 180 L 179 170 Q 179 159 179 152 L 179 142 Q 179 128 176 124 L 186 121 Q 189 123 192 125 Q 193 127 192 138 L 191 150 Q 191 158 191 167 L 190 179 Q 190 189 190 201 L 179 202" fill="#CCCCCC"/><path d="M 190 201 Q 206 198 217 196 Q 234 192 248 203 Q 251 206 250 209 Q 249 211 244 211 Q 243 211 242 211 Q 180 211 151 218 Q 147 219 142 218 Q 137 216 133 212 L 134 209 Q 134 208 179 202" fill="#CCCCCC"/><path d="M 60 109 L 58 112 Q 32 145 21 146 Q 18 147 19 144 Q 19 142 22 140 Q 66 88 82 48 Q 86 41 82 32 Q 80 26 85 26 Q 90 26 97 31 Q 105 37 106 41 Q 107 44 105 47 Q 99 54 91 66 Q 80 84 69 98 L 63 106" fill="#000000" /><path d="M 69 98 Q 74 101 83 112 Q 87 115 84 123 Q 82 137 81 202 Q 81 214 77 226 Q 74 233 69 229 Q 67 228 67 227 Q 58 213 61 201 Q 69 173 69 147 Q 69 142 69 138 Q 69 122 63 106" fill="#150000" /><path d="M 166 64 Q 166 28 162 22 Q 160 18 162 17 Q 164 15 167 16 Q 172 17 179 21 Q 183 24 183 27 Q 182 28 181 30 Q 181 32 180 36 Q 178 48 176 62" fill="#2a0000" /><path d="M 127 87 Q 125 89 122 87 Q 118 84 116 81 Q 114 78 119 74 Q 123 70 125 61 Q 127 51 123 42 Q 122 38 124 37 Q 127 36 129 38 Q 134 42 137 46 Q 139 49 138 54 Q 136 61 135 67" fill="#3f0000" /><path d="M 200 65 L 184 68 Q 134 78 127 87 L 135 67 Q 134 71 138 70 Q 151 66 166 64 L 176 62 Q 191 58 209 56 L 207 65" fill="#3f0000" /><path d="M 209 56 Q 212 51 214 44 Q 214 33 212 29 Q 212 26 214 25 Q 217 25 219 27 Q 226 32 230 36 Q 232 39 230 43 Q 227 44 223 54 Q 220 72 213 78 Q 210 80 209 76 Q 207 72 207 65" fill="#550000" /><path d="M 120 138 Q 119 139 118 140 Q 101 157 94 157 Q 91 158 92 155 Q 93 154 95 152 Q 120 126 130 104 Q 132 101 130 96 Q 129 91 133 91 Q 137 92 142 96 Q 147 101 148 104 Q 148 104 148 105 Q 148 106 127 130" fill="#6a0000" /><path d="M 133 212 Q 133 219 133 226 Q 133 237 130 247 Q 127 254 122 250 L 122 250 Q 113 239 116 226 Q 125 196 125 155 Q 124 155 125 154 Q 124 152 120 138 L 127 130 Q 130 132 132 134 Q 139 142 137 149 Q 135 161 134 209" fill="#7f0000" /><path d="M 169 85 L 168 82 Q 168 80 169 79 Q 170 78 173 79 Q 191 84 193 90 Q 195 96 194 99 Q 193 102 190 102 Q 187 102 184 99 Q 179 93 174 89" fill="#940000" /><path d="M 176 124 Q 175 124 174 124 Q 160 127 151 122 Q 144 118 153 116 Q 158 116 186 110 Q 215 101 221 102 Q 228 104 230 106 Q 231 108 229 110 Q 227 112 186 121" fill="#aa0000" /><path d="M 179 152 Q 171 153 164 155 Q 157 156 154 154 Q 148 150 153 149 Q 165 145 179 142 L 192 138 Q 204 134 212 136 Q 219 137 222 141 Q 224 144 218 145 Q 206 147 191 150" fill="#bf0000" /><path d="M 179 180 Q 171 181 163 183 Q 156 184 153 182 Q 147 178 152 177 Q 164 173 179 170 L 191 167 Q 204 163 212 164 Q 219 166 222 170 Q 224 173 218 174 Q 204 176 190 179" fill="#d40000" /><path d="M 179 190 L 179 180 L 179 170 Q 179 159 179 152 L 179 142 Q 179 128 176 124 L 186 121 Q 189 123 192 125 Q 193 127 192 138 L 191 150 Q 191 158 191 167 L 190 179 Q 190 189 190 201 L 179 202" fill="#e90000" /><path d="M 190 201 Q 206 198 217 196 Q 234 192 248 203 Q 251 206 250 209 Q 249 211 244 211 Q 243 211 242 211 Q 180 211 151 218 Q 147 219 142 218 Q 137 216 133 212 L 134 209 Q 134 208 179 202" fill="#ff0000" /></svg>