<svg xmlns="http://www.w3.org/2000/svg" xmlns:xlink="http://www.w3.org/1999/xlink" width="270" height="270"><path d="M 0 0 L 270 270 M 270 0 L 0 270 M 135 0 L 135 270 M 0 135 L 270 135" stroke="#CCCCCC" /><path d="M 57 105 L 57 105 Q 33 138 23 140 Q 19 141 20 138 Q 21 136 23 133 Q 24 132 25 130 Q 86 51 76 29 Q 73 23 78 22 Q 83 22 91 27 Q 98 32 99 36 Q 101 39 98 42 Q 93 48 86 61 Q 74 82 63 97 L 57 105" fill="#CCCCCC"/><path d="M 63 97 Q 67 99 78 111 Q 81 114 78 122 Q 76 139 75 215 Q 75 228 71 239 Q 68 247 63 242 Q 62 241 61 240 Q 52 227 56 215 Q 59 199 62 183 Q 68 129 60 111 Q 58 108 57 105" fill="#CCCCCC"/><path d="M 140 35 L 165 30 Q 189 23 194 25 Q 201 27 203 30 Q 204 32 202 34 Q 200 35 191 37 Q 175 40 159 43 Q 137 47 127 42 Q 121 37 130 36" fill="#CCCCCC"/><path d="M 137 117 L 137 118 Q 137 122 132 118 Q 127 113 126 107 Q 119 85 110 71 Q 108 68 109 66 Q 110 65 112 65 L 126 74 Q 128 81 135 104 Q 136 106 137 109 L 137 116" fill="#CCCCCC"/><path d="M 154 68 Q 136 70 126 74 L 112 65 Q 127 65 144 62 Q 162 58 187 55 Q 203 52 206 54 Q 217 61 221 65 L 198 63 Q 193 61 164 66" fill="#CCCCCC"/><path d="M 190 101 Q 192 95 199 72 Q 200 65 198 63 L 221 65 Q 225 69 220 72 Q 212 79 207 91 Q 201 107 198 110 Q 196 113 193 113 Q 190 114 189 110 Q 188 109 188 108" fill="#CCCCCC"/><path d="M 156 91 Q 142 92 142 91 Q 137 88 140 87 Q 148 85 156 83 L 167 80 Q 173 79 177 79 Q 182 80 185 83 Q 187 86 181 87 Q 174 88 167 89" fill="#CCCCCC"/><path d="M 157 105 Q 156 97 156 91 L 156 83 Q 155 70 154 68 L 164 66 Q 168 69 168 78 Q 167 79 167 80 L 167 89 Q 167 95 166 103" fill="#CCCCCC"/><path d="M 137 109 Q 146 107 157 105 L 166 103 Q 184 97 188 100 Q 189 101 190 101 L 188 108 Q 156 111 140 115 Q 138 116 137 116" fill="#CCCCCC"/><path d="M 188 124 L 224 117 Q 233 115 246 124 Q 250 128 248 131 Q 247 133 242 133 Q 238 132 233 132 Q 155 132 110 144 Q 105 145 100 144 Q 96 142 93 139 Q 89 135 94 135" fill="#CCCCCC"/><path d="M 135 210 L 134 212 Q 133 216 129 211 Q 124 206 123 199 Q 117 175 109 160 Q 107 157 108 155 Q 109 154 111 155 Q 118 155 122 156 L 125 164 Q 127 173 133 196 Q 133 198 134 200 L 135 207" fill="#CCCCCC"/><path d="M 153 159 Q 136 161 125 164 L 122 156 Q 170 148 178 148 Q 180 147 183 147 Q 203 143 206 145 Q 217 152 220 156 L 197 156 Q 192 152 162 158" fill="#CCCCCC"/><path d="M 190 197 Q 193 193 199 163 Q 200 159 197 156 L 220 156 Q 223 159 220 162 Q 214 168 212 175 Q 204 204 200 209 Q 197 214 194 212 Q 190 210 186 203" fill="#CCCCCC"/><path d="M 155 182 Q 150 183 145 184 Q 140 184 138 183 Q 133 179 138 178 Q 146 176 155 174 L 167 171 Q 173 170 177 170 Q 182 171 185 175 Q 187 178 181 178 Q 174 179 167 180" fill="#CCCCCC"/><path d="M 156 197 Q 156 188 155 182 L 155 174 Q 154 162 153 159 L 162 158 Q 165 159 167 162 Q 168 164 167 171 L 167 180 Q 166 187 166 195" fill="#CCCCCC"/><path d="M 134 200 Q 144 198 156 197 L 166 195 Q 182 191 186 194 Q 188 196 190 197 L 186 203 Q 153 204 137 207 Q 136 207 135 207" fill="#CCCCCC"/><path d="M 167 224 L 211 217 Q 221 216 233 226 Q 237 230 236 233 Q 234 235 229 234 Q 159 228 112 239 Q 103 240 95 233 Q 92 228 97 228" fill="#CCCCCC"/><path d="M 57 105 L 57 105 Q 33 138 23 140 Q 19 141 20 138 Q 21 136 23 133 Q 24 132 25 130 Q 86 51 76 29 Q 73 23 78 22 Q 83 22 91 27 Q 98 32 99 36 Q 101 39 98 42 Q 93 48 86 61 Q 74 82 63 97 L 57 105" fill="#000000" /><path d="M 63 97 Q 67 99 78 111 Q 81 114 78 122 Q 76 139 75 215 Q 75 228 71 239 Q 68 247 63 242 Q 62 241 61 240 Q 52 227 56 215 Q 59 199 62 183 Q 68 129 60 111 Q 58 108 57 105" fill="#120000" /><path d="M 140 35 L 165 30 Q 189 23 194 25 Q 201 27 203 30 Q 204 32 202 34 Q 200 35 191 37 Q 175 40 159 43 Q 137 47 127 42 Q 121 37 130 36" fill="#240000" /><path d="M 137 117 L 137 118 Q 137 122 132 118 Q 127 113 126 107 Q 119 85 110 71 Q 108 68 109 66 Q 110 65 112 65 L 126 74 Q 128 81 135 104 Q 136 106 137 109 L 137 116" fill="#360000" /><path d="M 154 68 Q 136 70 126 74 L 112 65 Q 127 65 144 62 Q 162 58 187 55 Q 203 52 206 54 Q 217 61 221 65 L 198 63 Q 193 61 164 66" fill="#480000" /><path d="M 190 101 Q 192 95 199 72 Q 200 65 198 63 L 221 65 Q 225 69 220 72 Q 212 79 207 91 Q 201 107 198 110 Q 196 113 193 113 Q 190 114 189 110 Q 188 109 188 108" fill="#480000" /><path d="M 156 91 Q 142 92 142 91 Q 137 88 140 87 Q 148 85 156 83 L 167 80 Q 173 79 177 79 Q 182 80 185 83 Q 187 86 181 87 Q 174 88 167 89" fill="#5b0000" /><path d="M 157 105 Q 156 97 156 91 L 156 83 Q 155 70 154 68 L 164 66 Q 168 69 168 78 Q 167 79 167 80 L 167 89 Q 167 95 166 103" fill="#6d0000" /><path d="M 137 109 Q 146 107 157 105 L 166 103 Q 184 97 188 100 Q 189 101 190 101 L 188 108 Q 156 111 140 115 Q 138 116 137 116" fill="#7f0000" /><path d="M 188 124 L 224 117 Q 233 115 246 124 Q 250 128 248 131 Q 247 133 242 133 Q 238 132 233 132 Q 155 132 110 144 Q 105 145 100 144 Q 96 142 93 139 Q 89 135 94 135" fill="#910000" /><path d="M 135 210 L 134 212 Q 133 216 129 211 Q 124 206 123 199 Q 117 175 109 160 Q 107 157 108 155 Q 109 154 111 155 Q 118 155 122 156 L 125 164 Q 127 173 133 196 Q 133 198 134 200 L 135 207" fill="#a30000" /><path d="M 153 159 Q 136 161 125 164 L 122 156 Q 170 148 178 148 Q 180 147 183 147 Q 203 143 206 145 Q 217 152 220 156 L 197 156 Q 192 152 162 158" fill="#b60000" /><path d="M 190 197 Q 193 193 199 163 Q 200 159 197 156 L 220 156 Q 223 159 220 162 Q 214 168 212 175 Q 204 204 200 209 Q 197 214 194 212 Q 190 210 186 203" fill="#b60000" /><path d="M 155 182 Q 150 183 145 184 Q 140 184 138 183 Q 133 179 138 178 Q 146 176 155 174 L 167 171 Q 173 170 177 170 Q 182 171 185 175 Q 187 178 181 178 Q 174 179 167 180" fill="#c80000" /><path d="M 156 197 Q 156 188 155 182 L 155 174 Q 154 162 153 159 L 162 158 Q 165 159 167 162 Q 168 164 167 171 L 167 180 Q 166 187 166 195" fill="#da0000" /><path d="M 134 200 Q 144 198 156 197 L 166 195 Q 182 191 186 194 Q 188 196 190 197 L 186 203 Q 153 204 137 207 Q 136 207 135 207" fill="#ec0000" /><path d="M 167 224 L 211 217 Q 221 216 233 226 Q 237 230 236 233 Q 234 235 229 234 Q 159 228 112 239 Q 103 240 95 233 Q 92 228 97 228" fill="#ff0000" /></svg>