<svg xmlns="http://www.w3.org/2000/svg" xmlns:xlink="http://www.w3.org/1999/xlink" width="270" height="270"><path d="M 0 0 L 270 270 M 270 0 L 0 270 M 135 0 L 135 270 M 0 135 L 270 135" stroke="#CCCCCC" /><path d="M 98 37 Q 96 36 90 38 Q 80 42 75 42 Q 68 40 65 38 Q 64 36 64 36 Q 65 34 73 34 Q 80 34 100 28 Q 102 26 105 26 Q 107 26 115 31 Q 122 35 122 38" fill="#000000" /><path d="M 81 95 Q 80 96 80 97 Q 50 129 25 129 Q 23 129 23 128 Q 23 125 27 125 Q 79 98 95 51 Q 99 38 98 37 L 122 38 Q 122 40 118 41 Q 113 45 109 51 Q 104 62 99 70 L 97 73 Q 91 82 86 89 Q 85 91 84 92" fill="#000000" /><path d="M 52 67 L 52 64 Q 52 62 53 62 Q 55 61 58 62 Q 67 63 71 66 Q 74 68 76 73 Q 77 76 76 79 Q 74 81 71 81 Q 64 78 56 70" fill="#130000" /><path d="M 146 37 Q 159 21 159 17 Q 159 14 162 14 Q 167 14 171 18 Q 174 22 176 26 Q 176 28 172 29 Q 165 32 150 41" fill="#270000" /><path d="M 189 37 L 190 32 Q 189 30 192 30 Q 194 30 198 33 Q 202 37 204 40 Q 205 44 201 45 Q 198 46 183 53 Q 177 55 169 58 L 166 56" fill="#3a0000" /><path d="M 169 58 Q 194 80 211 84 Q 240 91 244 92 Q 246 94 245 96 Q 240 98 211 103 Q 195 102 163 66 Q 142 41 130 34 Q 128 33 129 31 Q 131 30 133 30 Q 141 31 146 37 L 150 41 Q 158 49 166 56" fill="#4e0000" /><path d="M 99 70 Q 99 70 101 70 Q 115 69 125 65 Q 132 62 139 63 Q 145 64 147 67 Q 148 69 146 71 Q 146 71 146 71 Q 115 78 107 78 Q 99 76 97 73" fill="#620000" /><path d="M 103 127 Q 103 130 103 132 Q 102 135 98 131 Q 94 128 93 123 Q 91 115 81 95 L 84 92 Q 84 92 85 92 Q 93 93 96 94 L 98 101 Q 99 107 102 119" fill="#750000" /><path d="M 151 95 Q 149 92 143 93 Q 123 97 101 100 Q 99 101 98 101 L 96 94 Q 133 89 149 83 Q 153 82 157 84 Q 167 90 171 93" fill="#890000" /><path d="M 146 111 L 147 111 Q 149 105 151 99 Q 151 96 151 95 L 171 93 Q 173 97 170 101 Q 163 103 159 112" fill="#890000" /><path d="M 148 122 Q 121 124 107 127 Q 105 127 103 127 L 102 119 Q 121 116 146 111 Q 146 111 159 112 Q 165 116 165 118 Q 164 120 162 120 Q 159 121 156 121" fill="#9c0000" /><path d="M 99 158 Q 98 158 89 146 Q 84 141 84 139 Q 84 136 85 136 Q 88 135 100 141 Q 105 144 105 148 Q 106 153 104 158" fill="#b00000" /><path d="M 139 150 L 141 147 Q 150 128 149 123 Q 148 122 148 122 L 156 121 Q 157 121 157 122 Q 163 127 164 131 Q 166 134 162 136 Q 156 142 150 149 Q 148 150 147 152 L 138 153" fill="#c40000" /><path d="M 147 152 Q 171 147 189 144 Q 202 140 217 151 Q 221 155 220 158 Q 218 160 213 160 L 212 160 Q 113 160 56 176 Q 52 177 46 176 Q 41 174 38 171 Q 34 166 39 166 Q 71 162 99 158 L 104 158 Q 133 153 138 153" fill="#d70000" /><path d="M 102 191 L 98 205 Q 89 230 74 241 Q 59 252 48 251 Q 46 250 49 248 Q 73 234 82 214 Q 91 191 86 180 Q 85 177 88 176 Q 94 175 100 181 L 105 188" fill="#eb0000" /><path d="M 100 181 Q 125 176 133 171 Q 137 169 144 171 Q 164 179 154 185 L 134 183 Q 132 181 128 182 Q 105 188 105 188" fill="#ff0000" /><path d="M 154 185 Q 152 187 151 190 Q 143 203 145 219 Q 146 228 151 232 Q 155 235 161 237 L 160 252 Q 125 245 135 189 Q 136 184 134 183" fill="#ff0000" /><path d="M 161 237 Q 189 240 206 233 L 234 233 Q 236 239 231 242 Q 215 251 196 253 Q 175 255 160 252" fill="#ff0000" /><path d="M 206 233 Q 214 227 222 201 Q 224 197 225 197 Q 226 197 227 200 Q 228 217 234 233" fill="#ff0000" /></svg>