<svg xmlns="http://www.w3.org/2000/svg" xmlns:xlink="http://www.w3.org/1999/xlink" width="270" height="270"><path d="M 0 0 L 270 270 M 270 0 L 0 270 M 135 0 L 135 270 M 0 135 L 270 135" stroke="#CCCCCC" /><path d="M 71 152 Q 68 154 64 152 Q 59 148 55 144 Q 53 140 59 135 Q 64 129 66 116 Q 68 102 62 89 Q 60 83 63 82 Q 71 81 81 92 Q 83 97 79 125" fill="#CCCCCC"/><path d="M 129 131 Q 78 143 71 152 L 79 125 Q 78 132 84 130 Q 105 124 129 120 L 145 118 Q 166 114 190 112 L 188 122 Q 187 122 188 122 Q 168 121 144 128" fill="#CCCCCC"/><path d="M 190 112 Q 190 111 191 111 Q 200 85 193 73 Q 192 69 195 68 Q 199 66 202 69 Q 212 75 217 81 Q 220 86 217 90 Q 215 92 209 107 Q 206 133 197 140 Q 193 143 191 138 Q 188 132 188 122" fill="#CCCCCC"/><path d="M 127 207 Q 129 167 129 131 L 129 120 Q 129 88 128 57 Q 128 47 118 32 Q 115 27 117 24 Q 120 21 126 22 Q 134 24 146 30 Q 153 35 152 39 Q 145 75 145 118 L 144 128 Q 143 165 141 204" fill="#CCCCCC"/><path d="M 67 241 Q 64 243 60 241 Q 55 237 51 232 Q 49 228 55 222 Q 62 216 64 202 Q 68 186 62 170 Q 60 164 64 163 Q 72 162 82 175 Q 85 180 83 187 Q 80 200 79 212" fill="#CCCCCC"/><path d="M 191 205 L 158 212 Q 119 220 82 233 Q 71 237 67 241 L 79 212 Q 76 219 82 218 Q 103 211 127 207 L 141 204 Q 169 199 199 196 L 201 208" fill="#CCCCCC"/><path d="M 199 196 Q 197 182 194 171 Q 192 165 194 163 Q 196 162 200 163 Q 213 168 217 171 Q 219 173 218 178 Q 218 186 217 223 Q 217 237 214 242 Q 211 248 206 239 Q 202 232 201 208" fill="#CCCCCC"/><path d="M 71 152 Q 68 154 64 152 Q 59 148 55 144 Q 53 140 59 135 Q 64 129 66 116 Q 68 102 62 89 Q 60 83 63 82 Q 71 81 81 92 Q 83 97 79 125" fill="#000000" /><path d="M 129 131 Q 78 143 71 152 L 79 125 Q 78 132 84 130 Q 105 124 129 120 L 145 118 Q 166 114 190 112 L 188 122 Q 187 122 188 122 Q 168 121 144 128" fill="#000000" /><path d="M 190 112 Q 190 111 191 111 Q 200 85 193 73 Q 192 69 195 68 Q 199 66 202 69 Q 212 75 217 81 Q 220 86 217 90 Q 215 92 209 107 Q 206 133 197 140 Q 193 143 191 138 Q 188 132 188 122" fill="#3f0000" /><path d="M 127 207 Q 129 167 129 131 L 129 120 Q 129 88 128 57 Q 128 47 118 32 Q 115 27 117 24 Q 120 21 126 22 Q 134 24 146 30 Q 153 35 152 39 Q 145 75 145 118 L 144 128 Q 143 165 141 204" fill="#7f0000" /><path d="M 67 241 Q 64 243 60 241 Q 55 237 51 232 Q 49 228 55 222 Q 62 216 64 202 Q 68 186 62 170 Q 60 164 64 163 Q 72 162 82 175 Q 85 180 83 187 Q 80 200 79 212" fill="#bf0000" /><path d="M 191 205 L 158 212 Q 119 220 82 233 Q 71 237 67 241 L 79 212 Q 76 219 82 218 Q 103 211 127 207 L 141 204 Q 169 199 199 196 L 201 208" fill="#bf0000" /><path d="M 199 196 Q 197 182 194 171 Q 192 165 194 163 Q 196 162 200 163 Q 213 168 217 171 Q 219 173 218 178 Q 218 186 217 223 Q 217 237 214 242 Q 211 248 206 239 Q 202 232 201 208" fill="#ff0000" /></svg>