<svg xmlns="http://www.w3.org/2000/svg" xmlns:xlink="http://www.w3.org/1999/xlink" width="270" height="270"><path d="M 0 0 L 270 270 M 270 0 L 0 270 M 135 0 L 135 270 M 0 135 L 270 135" stroke="#CCCCCC" /><path d="M 96 62 Q 93 63 91 63 Q 68 71 61 71 Q 60 70 61 68 Q 62 67 64 66 Q 118 42 118 30 Q 119 27 121 26 Q 124 26 128 28 Q 141 33 147 37 Q 150 40 149 43 Q 148 45 143 45 Q 129 48 108 58" fill="#CCCCCC"/><path d="M 95 110 Q 79 114 57 120 Q 46 123 36 116 Q 33 113 33 110 Q 34 108 38 108 Q 59 106 101 99 L 115 97 Q 124 94 136 92 Q 141 91 148 94 Q 153 97 153 100 Q 152 102 148 102 Q 129 104 114 107" fill="#CCCCCC"/><path d="M 111 189 L 110 206 Q 110 227 103 231 Q 102 233 100 232 Q 98 231 97 227 Q 96 225 96 225 Q 90 212 95 196 Q 99 182 100 130 L 101 99 Q 101 89 101 81 Q 101 71 96 62 L 108 58 Q 119 65 120 67 Q 121 70 119 74 Q 116 84 115 97 L 114 107 Q 113 118 113 129 L 113 135" fill="#CCCCCC"/><path d="M 100 130 Q 99 132 97 135 Q 67 179 35 192 Q 32 193 30 192 Q 27 192 31 189 Q 79 149 95 110 L 101 99" fill="#CCCCCC"/><path d="M 113 129 Q 117 128 136 136 Q 144 141 145 147 Q 146 154 145 157 Q 144 160 141 160 Q 138 160 135 157 Q 126 148 119 140 Q 114 137 113 135" fill="#CCCCCC"/><path d="M 165 76 L 167 75 Q 170 73 173 75 Q 178 77 183 80 Q 188 83 186 90 Q 184 107 184 138 Q 183 156 178 164 Q 175 167 173 164 Q 165 155 168 141 Q 173 96 166 81" fill="#CCCCCC"/><path d="M 215 38 L 209 30 Q 204 23 209 22 Q 215 20 225 25 Q 242 32 237 41 Q 225 81 234 203 Q 233 226 228 239 Q 223 250 218 249 Q 214 248 209 238 L 211 211 Q 214 209 214 203 Q 216 58 215 49" fill="#CCCCCC"/><path d="M 209 238 Q 205 230 189 213 Q 183 209 183 206 Q 182 203 192 207 Q 209 212 211 211" fill="#CCCCCC"/><path d="M 96 62 Q 93 63 91 63 Q 68 71 61 71 Q 60 70 61 68 Q 62 67 64 66 Q 118 42 118 30 Q 119 27 121 26 Q 124 26 128 28 Q 141 33 147 37 Q 150 40 149 43 Q 148 45 143 45 Q 129 48 108 58" fill="#000000" /><path d="M 95 110 Q 79 114 57 120 Q 46 123 36 116 Q 33 113 33 110 Q 34 108 38 108 Q 59 106 101 99 L 115 97 Q 124 94 136 92 Q 141 91 148 94 Q 153 97 153 100 Q 152 102 148 102 Q 129 104 114 107" fill="#2a0000" /><path d="M 111 189 L 110 206 Q 110 227 103 231 Q 102 233 100 232 Q 98 231 97 227 Q 96 225 96 225 Q 90 212 95 196 Q 99 182 100 130 L 101 99 Q 101 89 101 81 Q 101 71 96 62 L 108 58 Q 119 65 120 67 Q 121 70 119 74 Q 116 84 115 97 L 114 107 Q 113 118 113 129 L 113 135" fill="#550000" /><path d="M 100 130 Q 99 132 97 135 Q 67 179 35 192 Q 32 193 30 192 Q 27 192 31 189 Q 79 149 95 110 L 101 99" fill="#7f0000" /><path d="M 113 129 Q 117 128 136 136 Q 144 141 145 147 Q 146 154 145 157 Q 144 160 141 160 Q 138 160 135 157 Q 126 148 119 140 Q 114 137 113 135" fill="#aa0000" /><path d="M 165 76 L 167 75 Q 170 73 173 75 Q 178 77 183 80 Q 188 83 186 90 Q 184 107 184 138 Q 183 156 178 164 Q 175 167 173 164 Q 165 155 168 141 Q 173 96 166 81" fill="#d40000" /><path d="M 215 38 L 209 30 Q 204 23 209 22 Q 215 20 225 25 Q 242 32 237 41 Q 225 81 234 203 Q 233 226 228 239 Q 223 250 218 249 Q 214 248 209 238 L 211 211 Q 214 209 214 203 Q 216 58 215 49" fill="#ff0000" /><path d="M 209 238 Q 205 230 189 213 Q 183 209 183 206 Q 182 203 192 207 Q 209 212 211 211" fill="#ff0000" /></svg>