<svg xmlns="http://www.w3.org/2000/svg" xmlns:xlink="http://www.w3.org/1999/xlink" width="270" height="270"><path d="M 0 0 L 270 270 M 270 0 L 0 270 M 135 0 L 135 270 M 0 135 L 270 135" stroke="#CCCCCC" /><path d="M 112 112 L 91 118 Q 82 121 74 115 Q 67 110 67 107 Q 67 103 74 104 Q 94 104 131 99 Q 133 98 136 98 L 152 95 Q 180 89 200 81 Q 209 78 217 82 Q 229 87 234 94 Q 236 97 231 104 L 204 100 Q 202 97 195 97 Q 173 99 150 104 L 133 108" fill="#CCCCCC"/><path d="M 231 104 Q 223 115 220 133 Q 208 217 185 237 Q 177 245 171 245 L 175 214 Q 181 209 187 193 Q 198 168 204 119 Q 206 105 204 100" fill="#CCCCCC"/><path d="M 171 245 Q 165 247 163 240 Q 158 229 147 214 Q 142 207 149 210 Q 156 212 164 214 Q 171 217 175 214" fill="#CCCCCC"/><path d="M 136 98 Q 136 97 136 97 Q 145 50 136 32 Q 134 27 139 26 Q 148 22 163 35 Q 169 38 166 44 Q 161 52 152 95 L 150 104 Q 145 130 134 152 Q 129 160 125 169 Q 115 188 95 205 Q 77 221 53 232 Q 42 236 37 236 Q 33 235 37 232 Q 43 228 48 224 Q 55 219 64 213 Q 81 200 102 176 Q 122 149 133 108" fill="#CCCCCC"/><path d="M 112 112 L 91 118 Q 82 121 74 115 Q 67 110 67 107 Q 67 103 74 104 Q 94 104 131 99 Q 133 98 136 98 L 152 95 Q 180 89 200 81 Q 209 78 217 82 Q 229 87 234 94 Q 236 97 231 104 L 204 100 Q 202 97 195 97 Q 173 99 150 104 L 133 108" fill="#000000" /><path d="M 231 104 Q 223 115 220 133 Q 208 217 185 237 Q 177 245 171 245 L 175 214 Q 181 209 187 193 Q 198 168 204 119 Q 206 105 204 100" fill="#000000" /><path d="M 171 245 Q 165 247 163 240 Q 158 229 147 214 Q 142 207 149 210 Q 156 212 164 214 Q 171 217 175 214" fill="#000000" /><path d="M 136 98 Q 136 97 136 97 Q 145 50 136 32 Q 134 27 139 26 Q 148 22 163 35 Q 169 38 166 44 Q 161 52 152 95 L 150 104 Q 145 130 134 152 Q 129 160 125 169 Q 115 188 95 205 Q 77 221 53 232 Q 42 236 37 236 Q 33 235 37 232 Q 43 228 48 224 Q 55 219 64 213 Q 81 200 102 176 Q 122 149 133 108" fill="#ff0000" /></svg>