<svg xmlns="http://www.w3.org/2000/svg" xmlns:xlink="http://www.w3.org/1999/xlink" width="270" height="270"><path d="M 0 0 L 270 270 M 270 0 L 0 270 M 135 0 L 135 270 M 0 135 L 270 135" stroke="#CCCCCC" /><path d="M 105 49 Q 101 46 68 58 Q 61 63 54 59 Q 50 56 48 53 Q 47 49 52 49 Q 65 50 70 48 Q 91 43 105 38 Q 110 36 114 38 Q 129 46 130 49" fill="#CCCCCC"/><path d="M 99 66 L 107 54 Q 108 51 105 49 L 130 49 Q 131 53 127 55 Q 120 58 95 83 L 92 80" fill="#CCCCCC"/><path d="M 95 83 Q 98 85 99 88 Q 100 94 99 97 Q 98 100 95 100 Q 92 100 89 97 Q 83 90 77 84 Q 71 80 71 77 Q 71 75 72 74 Q 73 73 76 74 Q 84 77 92 80" fill="#CCCCCC"/><path d="M 55 125 L 36 130 Q 25 134 21 130 Q 16 124 22 123 Q 54 117 91 107 Q 113 100 118 103 Q 136 111 137 114 L 108 115 Q 108 112 100 114 Q 91 116 82 118 L 74 120" fill="#CCCCCC"/><path d="M 137 114 Q 137 117 132 119 Q 124 122 106 136 Q 103 139 101 138 Q 100 137 102 133 Q 108 119 108 115" fill="#CCCCCC"/><path d="M 82 118 Q 88 122 91 129 Q 97 140 97 164 Q 99 199 92 220 Q 87 233 81 236 Q 77 238 73 233 L 76 210 Q 80 208 82 194 Q 88 168 81 138 L 74 120" fill="#CCCCCC"/><path d="M 73 233 Q 67 224 58 212 Q 54 209 55 208 Q 56 207 59 209 Q 76 210 76 210" fill="#CCCCCC"/><path d="M 81 138 Q 59 179 39 194 Q 20 210 14 208 Q 12 208 15 205 Q 61 161 74 120" fill="#CCCCCC"/><path d="M 144 81 Q 135 91 132 92 Q 129 93 129 90 Q 130 89 132 86 Q 162 34 154 22 Q 152 17 156 16 Q 160 15 167 19 Q 174 23 175 26 Q 177 29 175 32 Q 171 35 168 43 Q 163 52 159 59 L 156 64 Q 154 67 153 69 Q 149 73 147 77" fill="#CCCCCC"/><path d="M 184 66 Q 166 68 165 68 Q 160 67 156 64 L 159 59 Q 174 57 192 53 Q 215 45 221 46 Q 228 48 230 50 Q 231 52 229 54 Q 228 56 219 58 Q 204 61 192 64" fill="#CCCCCC"/><path d="M 177 112 L 176 113 Q 160 132 131 139 Q 128 140 127 139 Q 125 138 127 137 Q 155 119 168 104 Q 169 102 170 101 L 175 94 Q 184 77 184 66 L 192 64 Q 199 67 202 74 Q 203 76 201 78 Q 197 83 194 88 Q 190 95 186 101 L 179 110" fill="#CCCCCC"/><path d="M 170 101 Q 152 84 145 82 Q 144 81 144 81 L 147 77 Q 154 76 163 84 Q 169 89 175 94 L 186 101 Q 186 102 186 102 Q 205 113 234 121 Q 255 125 256 127 Q 257 129 249 131 Q 234 134 218 135 Q 203 135 179 110" fill="#CCCCCC"/><path d="M 146 173 L 138 176 Q 133 178 127 174 Q 121 171 121 170 Q 122 167 126 167 Q 141 165 157 162 L 173 157 Q 191 153 196 149 Q 201 146 206 148 Q 220 154 222 157 Q 224 159 220 163 L 198 163 Q 197 161 192 162 Q 181 163 170 167 L 155 171" fill="#CCCCCC"/><path d="M 220 163 Q 216 169 214 183 Q 209 221 202 233 Q 195 243 187 249 L 187 221 Q 195 208 199 178 Q 201 167 198 163" fill="#CCCCCC"/><path d="M 187 249 Q 182 254 177 248 Q 173 239 163 227 Q 159 220 165 223 Q 170 226 176 227 Q 183 228 187 221" fill="#CCCCCC"/><path d="M 157 162 Q 160 149 158 138 Q 157 134 160 133 Q 163 132 168 135 Q 176 138 178 141 Q 180 143 178 146 Q 175 151 173 157 L 170 167 Q 157 202 139 219 Q 115 240 107 239 Q 106 238 107 236 Q 108 235 110 234 Q 143 201 155 171" fill="#CCCCCC"/><path d="M 105 49 Q 101 46 68 58 Q 61 63 54 59 Q 50 56 48 53 Q 47 49 52 49 Q 65 50 70 48 Q 91 43 105 38 Q 110 36 114 38 Q 129 46 130 49" fill="#000000" /><path d="M 99 66 L 107 54 Q 108 51 105 49 L 130 49 Q 131 53 127 55 Q 120 58 95 83 L 92 80" fill="#000000" /><path d="M 95 83 Q 98 85 99 88 Q 100 94 99 97 Q 98 100 95 100 Q 92 100 89 97 Q 83 90 77 84 Q 71 80 71 77 Q 71 75 72 74 Q 73 73 76 74 Q 84 77 92 80" fill="#190000" /><path d="M 55 125 L 36 130 Q 25 134 21 130 Q 16 124 22 123 Q 54 117 91 107 Q 113 100 118 103 Q 136 111 137 114 L 108 115 Q 108 112 100 114 Q 91 116 82 118 L 74 120" fill="#330000" /><path d="M 137 114 Q 137 117 132 119 Q 124 122 106 136 Q 103 139 101 138 Q 100 137 102 133 Q 108 119 108 115" fill="#330000" /><path d="M 82 118 Q 88 122 91 129 Q 97 140 97 164 Q 99 199 92 220 Q 87 233 81 236 Q 77 238 73 233 L 76 210 Q 80 208 82 194 Q 88 168 81 138 L 74 120" fill="#4c0000" /><path d="M 73 233 Q 67 224 58 212 Q 54 209 55 208 Q 56 207 59 209 Q 76 210 76 210" fill="#4c0000" /><path d="M 81 138 Q 59 179 39 194 Q 20 210 14 208 Q 12 208 15 205 Q 61 161 74 120" fill="#660000" /><path d="M 144 81 Q 135 91 132 92 Q 129 93 129 90 Q 130 89 132 86 Q 162 34 154 22 Q 152 17 156 16 Q 160 15 167 19 Q 174 23 175 26 Q 177 29 175 32 Q 171 35 168 43 Q 163 52 159 59 L 156 64 Q 154 67 153 69 Q 149 73 147 77" fill="#7f0000" /><path d="M 184 66 Q 166 68 165 68 Q 160 67 156 64 L 159 59 Q 174 57 192 53 Q 215 45 221 46 Q 228 48 230 50 Q 231 52 229 54 Q 228 56 219 58 Q 204 61 192 64" fill="#990000" /><path d="M 177 112 L 176 113 Q 160 132 131 139 Q 128 140 127 139 Q 125 138 127 137 Q 155 119 168 104 Q 169 102 170 101 L 175 94 Q 184 77 184 66 L 192 64 Q 199 67 202 74 Q 203 76 201 78 Q 197 83 194 88 Q 190 95 186 101 L 179 110" fill="#b20000" /><path d="M 170 101 Q 152 84 145 82 Q 144 81 144 81 L 147 77 Q 154 76 163 84 Q 169 89 175 94 L 186 101 Q 186 102 186 102 Q 205 113 234 121 Q 255 125 256 127 Q 257 129 249 131 Q 234 134 218 135 Q 203 135 179 110" fill="#cc0000" /><path d="M 146 173 L 138 176 Q 133 178 127 174 Q 121 171 121 170 Q 122 167 126 167 Q 141 165 157 162 L 173 157 Q 191 153 196 149 Q 201 146 206 148 Q 220 154 222 157 Q 224 159 220 163 L 198 163 Q 197 161 192 162 Q 181 163 170 167 L 155 171" fill="#e50000" /><path d="M 220 163 Q 216 169 214 183 Q 209 221 202 233 Q 195 243 187 249 L 187 221 Q 195 208 199 178 Q 201 167 198 163" fill="#e50000" /><path d="M 187 249 Q 182 254 177 248 Q 173 239 163 227 Q 159 220 165 223 Q 170 226 176 227 Q 183 228 187 221" fill="#e50000" /><path d="M 157 162 Q 160 149 158 138 Q 157 134 160 133 Q 163 132 168 135 Q 176 138 178 141 Q 180 143 178 146 Q 175 151 173 157 L 170 167 Q 157 202 139 219 Q 115 240 107 239 Q 106 238 107 236 Q 108 235 110 234 Q 143 201 155 171" fill="#ff0000" /></svg>