<svg xmlns="http://www.w3.org/2000/svg" xmlns:xlink="http://www.w3.org/1999/xlink" width="270" height="270"><path d="M 0 0 L 270 270 M 270 0 L 0 270 M 135 0 L 135 270 M 0 135 L 270 135" stroke="#CCCCCC" /><path d="M 77 98 Q 58 120 50 121 Q 46 122 47 118 Q 47 117 50 114 Q 66 95 77 78 Q 101 41 96 29 Q 93 22 99 22 Q 104 22 112 27 Q 120 34 121 37 Q 122 41 120 44 Q 114 49 109 59 Q 92 82 81 94" fill="#CCCCCC"/><path d="M 129 97 L 107 100 L 97 101 Q 82 103 77 98 L 81 94 Q 115 92 183 77 Q 199 73 205 76 Q 215 80 223 86 Q 228 91 229 93 L 197 91 Q 196 89 190 89 Q 178 89 159 92 L 149 94" fill="#CCCCCC"/><path d="M 229 93 Q 229 96 225 100 Q 218 106 217 115 Q 200 199 185 224 Q 178 236 167 242 Q 161 247 156 247 L 159 220 Q 165 219 170 211 Q 181 194 190 159 Q 201 101 197 91" fill="#CCCCCC"/><path d="M 156 247 Q 152 247 149 241 Q 145 232 135 218 Q 132 215 132 214 Q 132 212 135 213 Q 154 221 159 220" fill="#CCCCCC"/><path d="M 107 100 Q 111 102 114 105 Q 117 108 117 110 Q 118 113 116 114 Q 114 115 112 118 Q 72 172 43 178 Q 40 177 43 176 Q 62 159 70 151 Q 71 150 71 150 Q 100 118 97 102 L 97 101" fill="#CCCCCC"/><path d="M 159 92 Q 167 99 170 108 Q 171 112 166 116 Q 162 120 153 136 Q 117 200 71 219 Q 57 226 53 225 Q 50 224 52 222 Q 53 220 55 219 Q 86 198 102 180 Q 106 176 110 171 Q 151 116 149 94" fill="#CCCCCC"/><path d="M 77 98 Q 58 120 50 121 Q 46 122 47 118 Q 47 117 50 114 Q 66 95 77 78 Q 101 41 96 29 Q 93 22 99 22 Q 104 22 112 27 Q 120 34 121 37 Q 122 41 120 44 Q 114 49 109 59 Q 92 82 81 94" fill="#000000" /><path d="M 129 97 L 107 100 L 97 101 Q 82 103 77 98 L 81 94 Q 115 92 183 77 Q 199 73 205 76 Q 215 80 223 86 Q 228 91 229 93 L 197 91 Q 196 89 190 89 Q 178 89 159 92 L 149 94" fill="#550000" /><path d="M 229 93 Q 229 96 225 100 Q 218 106 217 115 Q 200 199 185 224 Q 178 236 167 242 Q 161 247 156 247 L 159 220 Q 165 219 170 211 Q 181 194 190 159 Q 201 101 197 91" fill="#550000" /><path d="M 156 247 Q 152 247 149 241 Q 145 232 135 218 Q 132 215 132 214 Q 132 212 135 213 Q 154 221 159 220" fill="#550000" /><path d="M 107 100 Q 111 102 114 105 Q 117 108 117 110 Q 118 113 116 114 Q 114 115 112 118 Q 72 172 43 178 Q 40 177 43 176 Q 62 159 70 151 Q 71 150 71 150 Q 100 118 97 102 L 97 101" fill="#aa0000" /><path d="M 159 92 Q 167 99 170 108 Q 171 112 166 116 Q 162 120 153 136 Q 117 200 71 219 Q 57 226 53 225 Q 50 224 52 222 Q 53 220 55 219 Q 86 198 102 180 Q 106 176 110 171 Q 151 116 149 94" fill="#ff0000" /></svg>