<svg xmlns="http://www.w3.org/2000/svg" xmlns:xlink="http://www.w3.org/1999/xlink" width="270" height="270"><path d="M 0 0 L 270 270 M 270 0 L 0 270 M 135 0 L 135 270 M 0 135 L 270 135" stroke="#CCCCCC" /><path d="M 123 42 L 170 33 Q 186 28 197 35 Q 203 38 203 41 Q 200 45 197 44 Q 138 49 83 59 Q 79 60 77 60 L 73 47" fill="#000000" /><path d="M 120 91 Q 151 72 151 64 Q 151 61 153 60 Q 163 59 178 69 Q 181 72 180 74 Q 179 76 175 77 Q 165 79 154 85 Q 142 90 122 95" fill="#330000" /><path d="M 121 126 Q 119 164 104 183 Q 91 198 83 199 Q 79 199 80 197 Q 81 195 84 192 Q 98 175 102 163 Q 105 154 106 146 Q 110 106 101 92 Q 96 86 101 85 Q 105 84 118 89 Q 119 90 120 91 L 122 95 Q 122 95 121 105 Q 121 112 121 117" fill="#660000" /><path d="M 131 128 L 121 126 L 121 117 Q 136 115 158 111 Q 187 103 193 104 Q 201 106 203 109 Q 204 112 201 114 Q 201 114 166 122 L 152 125" fill="#990000" /><path d="M 166 122 Q 168 123 169 124 Q 173 126 172 130 Q 169 143 169 161 Q 167 200 162 203 Q 160 204 159 202 Q 156 198 156 173 Q 155 129 152 125" fill="#cc0000" /><path d="M 77 60 Q 76 64 76 71 Q 70 145 70 179 Q 68 213 70 215 L 78 228 Q 61 234 59 237 Q 54 241 50 237 Q 45 234 44 229 Q 40 224 46 219 Q 55 212 58 154 Q 61 59 54 49 Q 50 44 52 42 Q 55 41 58 41 Q 63 41 73 47" fill="#ff0000" /><path d="M 70 215 Q 72 219 106 214 Q 193 204 204 203 Q 210 203 219 209 Q 228 215 229 219 Q 229 221 226 222 Q 222 224 216 223 Q 199 221 150 222 Q 103 223 78 228" fill="#ff0000" /></svg>