<svg xmlns="http://www.w3.org/2000/svg" xmlns:xlink="http://www.w3.org/1999/xlink" width="270" height="270"><path d="M 0 0 L 270 270 M 270 0 L 0 270 M 135 0 L 135 270 M 0 135 L 270 135" stroke="#CCCCCC" /><path d="M 148 60 Q 119 67 90 73 Q 80 77 73 74 Q 68 71 71 70 Q 74 68 80 67 Q 120 63 150 49 Q 155 45 161 47 Q 170 50 175 55" fill="#000000" /><path d="M 114 187 L 100 195 Q 77 207 39 213 Q 32 214 30 213 Q 27 211 31 210 Q 97 188 117 163 L 123 155 Q 138 134 146 108 Q 154 79 154 64 Q 153 58 148 60 L 175 55 Q 180 58 176 62 Q 171 67 169 76 Q 157 125 132 164 L 126 173" fill="#000000" /><path d="M 117 163 Q 86 124 69 114 Q 66 111 66 109 Q 67 108 72 108 Q 81 109 90 119 Q 107 139 123 155 L 132 164 Q 157 185 168 191 Q 184 201 230 212 Q 241 215 241 217 Q 242 220 231 221 Q 209 224 182 223 Q 174 222 168 217 Q 144 194 126 173" fill="#7f0000" /><path d="M 86 92 L 85 89 Q 84 87 85 86 Q 86 85 90 86 Q 114 90 117 98 Q 119 104 119 107 Q 118 110 115 110 Q 112 111 109 108 Q 100 101 92 96" fill="#ff0000" /></svg>