<svg xmlns="http://www.w3.org/2000/svg" xmlns:xlink="http://www.w3.org/1999/xlink" width="270" height="270"><path d="M 0 0 L 270 270 M 270 0 L 0 270 M 135 0 L 135 270 M 0 135 L 270 135" stroke="#CCCCCC" /><path d="M 139 25 L 139 21 Q 139 18 141 17 Q 145 17 149 19 Q 161 25 167 29 Q 170 32 169 35 Q 167 38 163 38 Q 154 39 130 47 Q 86 61 79 59 Q 77 58 79 56 Q 119 40 135 28" fill="#000000" /><path d="M 71 76 L 71 73 Q 72 69 73 69 Q 75 68 78 70 Q 97 80 98 87 Q 98 95 96 98 Q 94 101 91 101 Q 88 100 85 96 Q 81 88 77 82" fill="#240000" /><path d="M 114 66 L 115 64 Q 116 61 118 62 Q 122 64 130 70 Q 136 73 137 78 Q 138 84 137 88 Q 134 92 131 91 Q 125 89 115 69" fill="#480000" /><path d="M 180 55 L 179 50 Q 179 46 182 46 Q 185 45 192 49 Q 199 53 202 58 Q 205 63 199 66 Q 192 68 187 72 Q 162 87 153 91 Q 149 92 152 87 Q 171 67 176 60" fill="#6d0000" /><path d="M 57 125 L 56 126 Q 47 155 45 160 Q 42 167 36 161 Q 27 147 32 140 Q 46 125 43 113 Q 43 106 49 109 Q 52 111 56 117 L 57 124" fill="#910000" /><path d="M 56 117 Q 57 117 59 117 Q 75 115 91 112 Q 139 104 193 97 Q 210 94 217 99 L 198 108 Q 193 107 179 108 Q 120 114 79 126 Q 65 130 57 124" fill="#b60000" /><path d="M 217 99 Q 236 115 236 117 Q 236 121 226 122 Q 214 125 199 134 Q 194 137 192 136 Q 191 135 193 131 Q 203 113 203 111 Q 203 109 198 108" fill="#b60000" /><path d="M 137 148 Q 123 152 108 156 Q 97 160 89 156 Q 84 154 86 152 Q 90 150 97 149 Q 122 144 139 135 Q 145 132 151 134 Q 161 138 166 143" fill="#da0000" /><path d="M 112 234 L 65 238 Q 57 239 55 237 Q 53 235 57 234 Q 104 221 122 202 L 128 194 Q 143 172 143.5 159 Q 144 146 137 148 L 166 143 Q 172 147 167 151 Q 161 156 159 166 Q 151 188 140 203 L 133 212" fill="#da0000" /><path d="M 122 202 Q 98 178 85 172 Q 81 169 81 168 Q 82 166 86 166 Q 96 165 106 175 Q 117 185 128 194 L 140 203 Q 150 210 161 217 Q 176 225 212 233 Q 222 235 230 236 Q 240 239 241 240 Q 242 243 232 245 Q 212 249 188 251 Q 173 252 133 212" fill="#ff0000" /></svg>