<svg xmlns="http://www.w3.org/2000/svg" xmlns:xlink="http://www.w3.org/1999/xlink" width="270" height="270"><path d="M 0 0 L 270 270 M 270 0 L 0 270 M 135 0 L 135 270 M 0 135 L 270 135" stroke="#CCCCCC" /><path d="M 112 132 L 111 135 Q 109 140 104 133 Q 98 126 98 116 Q 93 84 84 64 Q 81 59 83 57 Q 84 56 88 57 Q 95 58 98 59 L 105 70 Q 109 104 112 118 L 112 128" fill="#CCCCCC"/><path d="M 179 60 Q 176 57 169 59 Q 105 70 105 70 L 98 59 Q 146 54 176 43 Q 183 40 189 43 Q 206 51 211 56" fill="#CCCCCC"/><path d="M 172 108 Q 177 91 181 70 Q 182 64 179 60 L 211 56 Q 216 62 210 68 Q 199 76 189 109" fill="#CCCCCC"/><path d="M 112 118 Q 139 115 172 108 L 189 109 Q 197 114 197 116 Q 196 119 193 119 Q 141 123 117 128 Q 114 128 112 128" fill="#CCCCCC"/><path d="M 99 153 L 102 153 Q 106 152 115 155 Q 124 158 125 162 Q 125 165 122 169 Q 111 179 103 189 Q 66 226 44 227 Q 35 229 42 224 Q 94 181 99 158" fill="#CCCCCC"/><path d="M 164 156 L 164 153 Q 163 150 167 150 Q 171 151 182 158 Q 213 178 222 187 Q 231 197 233 209 Q 234 219 230 223 Q 228 224 222 223 Q 216 221 210 213 Q 191 189 168 160" fill="#CCCCCC"/><path d="M 112 132 L 111 135 Q 109 140 104 133 Q 98 126 98 116 Q 93 84 84 64 Q 81 59 83 57 Q 84 56 88 57 Q 95 58 98 59 L 105 70 Q 109 104 112 118 L 112 128" fill="#000000" /><path d="M 179 60 Q 176 57 169 59 Q 105 70 105 70 L 98 59 Q 146 54 176 43 Q 183 40 189 43 Q 206 51 211 56" fill="#3f0000" /><path d="M 172 108 Q 177 91 181 70 Q 182 64 179 60 L 211 56 Q 216 62 210 68 Q 199 76 189 109" fill="#3f0000" /><path d="M 112 118 Q 139 115 172 108 L 189 109 Q 197 114 197 116 Q 196 119 193 119 Q 141 123 117 128 Q 114 128 112 128" fill="#7f0000" /><path d="M 99 153 L 102 153 Q 106 152 115 155 Q 124 158 125 162 Q 125 165 122 169 Q 111 179 103 189 Q 66 226 44 227 Q 35 229 42 224 Q 94 181 99 158" fill="#bf0000" /><path d="M 164 156 L 164 153 Q 163 150 167 150 Q 171 151 182 158 Q 213 178 222 187 Q 231 197 233 209 Q 234 219 230 223 Q 228 224 222 223 Q 216 221 210 213 Q 191 189 168 160" fill="#ff0000" /></svg>