<svg xmlns="http://www.w3.org/2000/svg" xmlns:xlink="http://www.w3.org/1999/xlink" width="270" height="270"><path d="M 0 0 L 270 270 M 270 0 L 0 270 M 135 0 L 135 270 M 0 135 L 270 135" stroke="#CCCCCC" /><path d="M 42 143 L 40 147 Q 39 150 35 145 Q 30 138 29 129 Q 26 100 19 81 Q 17 76 19 75 Q 20 74 23 75 Q 31 76 34 78 L 37 86 Q 37 95 41 127 L 42 136" fill="#000000" /><path d="M 69 82 Q 67 80 60 81 Q 37 86 37 86 L 34 78 Q 49 75 60 71 Q 72 65 77 68 Q 85 72 90 75 Q 96 79 90 86" fill="#240000" /><path d="M 63 121 Q 66 108 69 96 Q 71 84 69 82 L 90 86 Q 82 94 77 121" fill="#240000" /><path d="M 41 127 Q 51 125 63 121 L 77 121 Q 84 125 84 127 Q 84 130 82 130 Q 57 133 46 136 Q 44 136 42 136" fill="#480000" /><path d="M 148 58 L 111 68 Q 100 70 91 62 Q 87 57 93 56 Q 190 43 221 37 Q 231 34 247 45 Q 252 49 250 52 Q 249 55 243 55 Q 206 55 196 56 L 183 57" fill="#6d0000" /><path d="M 119 153 L 118 156 Q 117 160 112 154 Q 108 149 108 142 Q 105 118 99 102 Q 97 99 98 97 Q 99 96 102 97 Q 111 99 114 100 L 115 108 Q 116 115 119 140 L 119 148" fill="#910000" /><path d="M 146 103 Q 145 101 139 102 Q 130 104 119 107 Q 117 108 115 108 L 114 100 Q 134 96 145 89 Q 149 86 154 89 Q 161 93 166 96 Q 172 100 166 107" fill="#b60000" /><path d="M 142 134 Q 145 123 146 114 Q 148 105 146 103 L 166 107 Q 160 113 155 133" fill="#b60000" /><path d="M 119 140 Q 129 137 142 134 L 155 133 Q 162 137 162 139 Q 162 142 159 142 Q 135 145 124 147 Q 121 148 119 148" fill="#da0000" /><path d="M 196 56 Q 204 60 207 64 Q 208 67 206 75 Q 202 123 205 186 Q 205 215 194 230 Q 189 235 186 231 L 187 189 Q 188 114 188 81 Q 188 69 185 62 Q 183 58 183 57" fill="#ff0000" /><path d="M 186 231 Q 177 220 162 205 Q 159 202 159 200 Q 159 198 163 199 Q 181 202 184 201 Q 187 198 187 189" fill="#ff0000" /></svg>