<svg xmlns="http://www.w3.org/2000/svg" xmlns:xlink="http://www.w3.org/1999/xlink" width="270" height="270"><path d="M 0 0 L 270 270 M 270 0 L 0 270 M 135 0 L 135 270 M 0 135 L 270 135" stroke="#CCCCCC" /><path d="M 109 120 L 108 123 Q 107 128 101 122 Q 95 116 94 107 Q 87 77 77 59 Q 74 54 76 52 Q 76 51 80 51 Q 90 52 93 54 L 98 64 Q 102 90 107 106 L 109 116" fill="#CCCCCC"/><path d="M 159 56 Q 157 54 151 55 Q 129 59 106 62 Q 102 63 98 64 L 93 54 Q 124 50 150 42 Q 166 33 189 53" fill="#CCCCCC"/><path d="M 150 97 Q 164 62 159 56 L 189 53 Q 194 59 188 64 Q 177 73 166 100" fill="#CCCCCC"/><path d="M 107 106 Q 126 103 150 97 Q 150 97 150 97 L 166 100 Q 172 104 172 106 Q 172 109 169 109 Q 132 112 115 115 Q 112 116 109 116" fill="#CCCCCC"/><path d="M 60 226 L 58 232 Q 56 236 51 230 Q 46 224 45 214 Q 39 183 30 164 Q 28 160 29 158 Q 30 156 34 157 Q 42 158 46 160 L 50 169 Q 51 178 56 206 L 58 215" fill="#CCCCCC"/><path d="M 94 163 Q 92 161 88 162 Q 56 167 50 169 L 46 160 Q 69 156 86 150 Q 99 142 122 157" fill="#CCCCCC"/><path d="M 92 198 Q 95 185 96 170 Q 96 165 94 163 L 122 157 Q 126 162 121 168 Q 113 174 106 200" fill="#CCCCCC"/><path d="M 56 206 Q 72 203 92 198 L 92 198 L 106 200 Q 113 204 113 207 Q 112 209 110 209 Q 77 212 62 215 Q 60 215 58 215" fill="#CCCCCC"/><path d="M 165 215 L 165 220 Q 165 227 161 226 Q 160 226 160 226 Q 150 217 150 203 Q 147 166 137 151 Q 134 148 136 146 Q 137 145 139 145 Q 145 147 151 150 L 158 159 Q 158 170 160 184 Q 161 192 162 199 L 164 209" fill="#CCCCCC"/><path d="M 151 150 Q 181 146 200 139 Q 215 132 237 149 L 208 152 Q 206 150 201 151 Q 183 154 163 158 Q 160 158 158 159" fill="#CCCCCC"/><path d="M 237 149 Q 241 154 237 159 Q 227 166 219 194 L 203 192 Q 207 178 210 161 Q 211 155 208 152" fill="#CCCCCC"/><path d="M 162 199 Q 180 197 203 192 L 203 192 L 219 194 Q 225 199 225 201 Q 225 203 221 204 Q 185 206 167 209 Q 165 209 164 209" fill="#CCCCCC"/><path d="M 109 120 L 108 123 Q 107 128 101 122 Q 95 116 94 107 Q 87 77 77 59 Q 74 54 76 52 Q 76 51 80 51 Q 90 52 93 54 L 98 64 Q 102 90 107 106 L 109 116" fill="#000000" /><path d="M 159 56 Q 157 54 151 55 Q 129 59 106 62 Q 102 63 98 64 L 93 54 Q 124 50 150 42 Q 166 33 189 53" fill="#1f0000" /><path d="M 150 97 Q 164 62 159 56 L 189 53 Q 194 59 188 64 Q 177 73 166 100" fill="#1f0000" /><path d="M 107 106 Q 126 103 150 97 Q 150 97 150 97 L 166 100 Q 172 104 172 106 Q 172 109 169 109 Q 132 112 115 115 Q 112 116 109 116" fill="#3f0000" /><path d="M 60 226 L 58 232 Q 56 236 51 230 Q 46 224 45 214 Q 39 183 30 164 Q 28 160 29 158 Q 30 156 34 157 Q 42 158 46 160 L 50 169 Q 51 178 56 206 L 58 215" fill="#5f0000" /><path d="M 94 163 Q 92 161 88 162 Q 56 167 50 169 L 46 160 Q 69 156 86 150 Q 99 142 122 157" fill="#7f0000" /><path d="M 92 198 Q 95 185 96 170 Q 96 165 94 163 L 122 157 Q 126 162 121 168 Q 113 174 106 200" fill="#7f0000" /><path d="M 56 206 Q 72 203 92 198 L 92 198 L 106 200 Q 113 204 113 207 Q 112 209 110 209 Q 77 212 62 215 Q 60 215 58 215" fill="#9f0000" /><path d="M 165 215 L 165 220 Q 165 227 161 226 Q 160 226 160 226 Q 150 217 150 203 Q 147 166 137 151 Q 134 148 136 146 Q 137 145 139 145 Q 145 147 151 150 L 158 159 Q 158 170 160 184 Q 161 192 162 199 L 164 209" fill="#bf0000" /><path d="M 151 150 Q 181 146 200 139 Q 215 132 237 149 L 208 152 Q 206 150 201 151 Q 183 154 163 158 Q 160 158 158 159" fill="#df0000" /><path d="M 237 149 Q 241 154 237 159 Q 227 166 219 194 L 203 192 Q 207 178 210 161 Q 211 155 208 152" fill="#df0000" /><path d="M 162 199 Q 180 197 203 192 L 203 192 L 219 194 Q 225 199 225 201 Q 225 203 221 204 Q 185 206 167 209 Q 165 209 164 209" fill="#ff0000" /></svg>