<svg xmlns="http://www.w3.org/2000/svg" xmlns:xlink="http://www.w3.org/1999/xlink" width="270" height="270"><path d="M 0 0 L 270 270 M 270 0 L 0 270 M 135 0 L 135 270 M 0 135 L 270 135" stroke="#CCCCCC" /><path d="M 57 152 L 55 157 Q 53 162 48 155 Q 43 149 43 139 Q 39 108 31 89 Q 28 84 30 83 Q 31 81 35 82 Q 43 84 46 86 L 50 93 Q 50 102 55 134 L 56 143" fill="#CCCCCC"/><path d="M 82 88 Q 81 85 74 87 Q 59 91 50 93 L 46 86 Q 71 80 80 74 Q 83 72 86 72 Q 86 72 103 81 Q 109 84 104 91" fill="#CCCCCC"/><path d="M 78 127 Q 80 113 83 101 Q 85 90 82 88 L 104 91 Q 96 100 92 127" fill="#CCCCCC"/><path d="M 55 134 Q 65 131 78 127 L 92 127 Q 99 131 99 132 Q 98 135 96 135 Q 71 139 60 142 Q 58 143 56 143" fill="#CCCCCC"/><path d="M 165 110 Q 166 71 164 38 Q 163 33 158 25 Q 156 22 158 20 Q 160 17 164 18 Q 171 20 180 24 Q 185 29 184 31 Q 181 41 176 107" fill="#CCCCCC"/><path d="M 122 68 L 122 65 Q 122 62 123 61 Q 127 61 142 69 Q 149 74 149 78 Q 149 86 147 90 Q 145 92 143 92 Q 139 91 128 75" fill="#CCCCCC"/><path d="M 217 50 L 216 45 Q 215 41 218 41 Q 221 40 228 44 Q 234 48 238 52 Q 241 57 235 60 Q 229 62 213 73 Q 206 78 194 83 Q 190 84 193 80 Q 208 63 213 54" fill="#CCCCCC"/><path d="M 143 185 L 143 192 Q 142 210 137 221 Q 134 230 131 232 Q 128 233 126 229 Q 121 223 121 214 Q 121 213 127 196 Q 142 140 129 112 Q 128 109 132 108 Q 136 108 144 112 L 149 120 Q 149 121 149 123 Q 147 128 146 144 L 146 150 Q 145 160 144 173 Q 144 179 144 179" fill="#CCCCCC"/><path d="M 144 112 Q 156 111 165 110 L 176 107 Q 183 104 194 98 Q 198 97 203 99 Q 213 103 219 108 Q 223 110 219 116 L 198 113 Q 196 110 191 111 Q 171 115 152 119 Q 150 120 149 120" fill="#CCCCCC"/><path d="M 219 116 Q 212 130 221 220 Q 223 233 212 249 Q 210 252 207 251 L 203 212 Q 204 178 200 122 Q 200 115 198 113" fill="#CCCCCC"/><path d="M 207 251 Q 203 249 199 244 Q 192 236 178 225 Q 177 223 183 224 Q 199 225 200 224 Q 203 220 203 212" fill="#CCCCCC"/><path d="M 146 144 Q 171 135 180 136 Q 187 137 190 141 Q 193 144 186 145 Q 147 150 146 150" fill="#CCCCCC"/><path d="M 144 173 Q 174 164 181 165 Q 189 167 191 171 Q 193 174 187 175 L 144 179" fill="#CCCCCC"/><path d="M 57 152 L 55 157 Q 53 162 48 155 Q 43 149 43 139 Q 39 108 31 89 Q 28 84 30 83 Q 31 81 35 82 Q 43 84 46 86 L 50 93 Q 50 102 55 134 L 56 143" fill="#000000" /><path d="M 82 88 Q 81 85 74 87 Q 59 91 50 93 L 46 86 Q 71 80 80 74 Q 83 72 86 72 Q 86 72 103 81 Q 109 84 104 91" fill="#1c0000" /><path d="M 78 127 Q 80 113 83 101 Q 85 90 82 88 L 104 91 Q 96 100 92 127" fill="#1c0000" /><path d="M 55 134 Q 65 131 78 127 L 92 127 Q 99 131 99 132 Q 98 135 96 135 Q 71 139 60 142 Q 58 143 56 143" fill="#380000" /><path d="M 165 110 Q 166 71 164 38 Q 163 33 158 25 Q 156 22 158 20 Q 160 17 164 18 Q 171 20 180 24 Q 185 29 184 31 Q 181 41 176 107" fill="#550000" /><path d="M 122 68 L 122 65 Q 122 62 123 61 Q 127 61 142 69 Q 149 74 149 78 Q 149 86 147 90 Q 145 92 143 92 Q 139 91 128 75" fill="#710000" /><path d="M 217 50 L 216 45 Q 215 41 218 41 Q 221 40 228 44 Q 234 48 238 52 Q 241 57 235 60 Q 229 62 213 73 Q 206 78 194 83 Q 190 84 193 80 Q 208 63 213 54" fill="#8d0000" /><path d="M 143 185 L 143 192 Q 142 210 137 221 Q 134 230 131 232 Q 128 233 126 229 Q 121 223 121 214 Q 121 213 127 196 Q 142 140 129 112 Q 128 109 132 108 Q 136 108 144 112 L 149 120 Q 149 121 149 123 Q 147 128 146 144 L 146 150 Q 145 160 144 173 Q 144 179 144 179" fill="#aa0000" /><path d="M 144 112 Q 156 111 165 110 L 176 107 Q 183 104 194 98 Q 198 97 203 99 Q 213 103 219 108 Q 223 110 219 116 L 198 113 Q 196 110 191 111 Q 171 115 152 119 Q 150 120 149 120" fill="#c60000" /><path d="M 219 116 Q 212 130 221 220 Q 223 233 212 249 Q 210 252 207 251 L 203 212 Q 204 178 200 122 Q 200 115 198 113" fill="#c60000" /><path d="M 207 251 Q 203 249 199 244 Q 192 236 178 225 Q 177 223 183 224 Q 199 225 200 224 Q 203 220 203 212" fill="#c60000" /><path d="M 146 144 Q 171 135 180 136 Q 187 137 190 141 Q 193 144 186 145 Q 147 150 146 150" fill="#e20000" /><path d="M 144 173 Q 174 164 181 165 Q 189 167 191 171 Q 193 174 187 175 L 144 179" fill="#ff0000" /></svg>