<svg xmlns="http://www.w3.org/2000/svg" xmlns:xlink="http://www.w3.org/1999/xlink" width="270" height="270"><path d="M 0 0 L 270 270 M 270 0 L 0 270 M 135 0 L 135 270 M 0 135 L 270 135" stroke="#CCCCCC" /><path d="M 94 35 Q 99 34 138 28 Q 169 19 175 20 Q 183 22 184 25 Q 185 27 183 29 Q 180 32 113 44 Q 105 46 95 44 Q 95 44 95 44" fill="#000000" /><path d="M 77 102 Q 64 134 56 147 Q 52 153 48 159 Q 23 187 15 187 Q 13 187 14 184 Q 14 183 16 182 Q 40 153 52 130 Q 55 123 58 116 Q 65 99 76 53 Q 78 38 75 30 Q 74 26 77 25 Q 80 25 85 28 Q 91 31 94 35 L 95 44 Q 92 49 91 53 Q 81 90 79 98" fill="#1c0000" /><path d="M 121 61 L 140 56 Q 152 52 159 53 Q 166 54 169 59 Q 172 62 165 63 Q 144 67 115 72 Q 109 73 106 71 Q 100 67 105 66" fill="#380000" /><path d="M 113 101 Q 106 102 101 104 L 88 107 Q 82 106 77 102 L 79 98 Q 156 83 169 81 Q 186 75 199 85 Q 203 88 202 90 Q 200 93 187 93 Q 140 95 122 99" fill="#550000" /><path d="M 101 104 Q 105 109 104 114 Q 103 119 100 139 Q 100 144 102 145 L 94 172 Q 90 176 88 174 Q 84 170 82 162 Q 80 157 84 152 Q 87 148 89 141 Q 95 121 88 107" fill="#710000" /><path d="M 102 145 Q 103 146 129 136 Q 133 133 133 137 Q 133 139 128 142 Q 102 163 94 172" fill="#710000" /><path d="M 158 121 L 159 121 Q 177 105 177 101 Q 177 98 179 98 Q 182 98 186 102 Q 191 107 193 111 Q 194 115 190 116 Q 188 116 171 123 Q 167 124 163 126 L 157 122" fill="#8d0000" /><path d="M 163 126 Q 171 130 185 136 Q 195 141 252 155 Q 256 157 256 159 Q 256 160 251 161 Q 208 175 194 164 Q 153 135 115 102 Q 114 102 113 101 L 122 99 Q 140 112 157 122" fill="#aa0000" /><path d="M 105 242 L 104 246 Q 102 250 97 244 Q 92 238 91 230 Q 86 203 78 187 Q 75 182 77 180 Q 78 179 81 180 Q 92 181 95 183 L 97 192 Q 98 201 103 227 L 104 237" fill="#c60000" /><path d="M 167 185 Q 164 182 157 183 L 97 192 L 95 183 Q 134 179 158 173 Q 175 165 196 183" fill="#e20000" /><path d="M 162 219 Q 165 207 169 193 Q 169 188 167 185 L 196 183 Q 199 188 194 194 Q 185 200 177 222" fill="#e20000" /><path d="M 103 227 Q 129 225 161 219 Q 162 218 162 219 L 177 222 Q 183 227 183 228 Q 183 231 179 231 Q 132 233 110 237 Q 107 237 104 237" fill="#ff0000" /></svg>