<svg xmlns="http://www.w3.org/2000/svg" xmlns:xlink="http://www.w3.org/1999/xlink" width="270" height="270"><path d="M 0 0 L 270 270 M 270 0 L 0 270 M 135 0 L 135 270 M 0 135 L 270 135" stroke="#CCCCCC" /><path d="M 91 78 L 90 78 Q 53 124 39 126 Q 36 127 37 124 Q 37 122 40 119 Q 80 76 97 39 Q 100 33 97 25 Q 95 19 100 19 Q 105 20 112 25 Q 119 31 120 35 Q 121 38 119 41 Q 112 46 95 72" fill="#CCCCCC"/><path d="M 105 170 Q 105 172 104 175 Q 101 181 97 178 Q 96 177 96 176 Q 88 165 91 154 Q 96 133 96 105 Q 96 95 91 78 L 95 72 Q 98 73 101 77 Q 104 80 109 85 Q 111 87 109 94 Q 107 105 107 155 Q 107 157 107 160" fill="#CCCCCC"/><path d="M 148 21 L 147 18 Q 146 15 148 14 Q 150 13 154 14 Q 175 18 177 25 Q 179 33 178 37 Q 177 41 174 41 Q 170 41 166 37 Q 160 32 155 27" fill="#CCCCCC"/><path d="M 155 69 Q 150 69 146 70 Q 126 73 117 67 Q 110 62 120 61 Q 133 61 173 54 Q 200 46 207 48 Q 214 49 216 53 Q 217 55 215 57 Q 213 58 199 61 Q 183 63 168 66" fill="#CCCCCC"/><path d="M 158 97 Q 149 98 140 100 Q 133 102 129 99 Q 124 95 128 94 Q 142 90 158 87 L 173 83 Q 191 79 194 80 Q 202 81 204 85 Q 207 89 200 90 Q 187 91 172 95" fill="#CCCCCC"/><path d="M 158 127 Q 148 129 138 131 Q 130 132 126 129 Q 120 125 125 124 Q 141 121 158 117 L 171 115 Q 190 109 200 111 Q 207 112 210 116 Q 212 120 205 120 Q 190 122 171 125" fill="#CCCCCC"/><path d="M 158 138 L 158 127 L 158 117 Q 158 105 158 97 L 158 87 Q 158 73 155 69 L 168 66 Q 169 67 171 69 Q 173 72 173 83 L 172 95 Q 171 104 171 115 L 171 125 Q 170 137 170 150 L 158 152" fill="#CCCCCC"/><path d="M 170 150 Q 188 147 200 145 Q 215 141 229 151 Q 233 154 232 157 Q 231 159 226 159 Q 155 160 116 170 Q 112 171 107 170 Q 106 170 105 170 L 107 160 Q 134 156 158 152" fill="#CCCCCC"/><path d="M 117 248 L 116 252 Q 114 256 109 250 Q 105 245 104 237 Q 99 212 91 197 Q 88 192 90 190 Q 91 189 95 190 Q 105 191 108 193 L 111 202 Q 111 211 116 234 L 117 244" fill="#CCCCCC"/><path d="M 187 194 Q 185 191 177 192 Q 148 197 117 201 Q 114 202 111 202 L 108 193 Q 148 190 180 181 Q 195 173 215 191" fill="#CCCCCC"/><path d="M 182 226 Q 186 215 189 201 Q 190 197 187 194 L 215 191 Q 219 197 214 201 Q 204 207 196 230" fill="#CCCCCC"/><path d="M 116 234 Q 144 233 179 226 Q 181 226 182 226 L 196 230 Q 201 234 201 236 Q 201 239 198 239 Q 147 240 123 244 Q 120 244 117 244" fill="#CCCCCC"/><path d="M 91 78 L 90 78 Q 53 124 39 126 Q 36 127 37 124 Q 37 122 40 119 Q 80 76 97 39 Q 100 33 97 25 Q 95 19 100 19 Q 105 20 112 25 Q 119 31 120 35 Q 121 38 119 41 Q 112 46 95 72" fill="#000000" /><path d="M 105 170 Q 105 172 104 175 Q 101 181 97 178 Q 96 177 96 176 Q 88 165 91 154 Q 96 133 96 105 Q 96 95 91 78 L 95 72 Q 98 73 101 77 Q 104 80 109 85 Q 111 87 109 94 Q 107 105 107 155 Q 107 157 107 160" fill="#190000" /><path d="M 148 21 L 147 18 Q 146 15 148 14 Q 150 13 154 14 Q 175 18 177 25 Q 179 33 178 37 Q 177 41 174 41 Q 170 41 166 37 Q 160 32 155 27" fill="#330000" /><path d="M 155 69 Q 150 69 146 70 Q 126 73 117 67 Q 110 62 120 61 Q 133 61 173 54 Q 200 46 207 48 Q 214 49 216 53 Q 217 55 215 57 Q 213 58 199 61 Q 183 63 168 66" fill="#4c0000" /><path d="M 158 97 Q 149 98 140 100 Q 133 102 129 99 Q 124 95 128 94 Q 142 90 158 87 L 173 83 Q 191 79 194 80 Q 202 81 204 85 Q 207 89 200 90 Q 187 91 172 95" fill="#660000" /><path d="M 158 127 Q 148 129 138 131 Q 130 132 126 129 Q 120 125 125 124 Q 141 121 158 117 L 171 115 Q 190 109 200 111 Q 207 112 210 116 Q 212 120 205 120 Q 190 122 171 125" fill="#7f0000" /><path d="M 158 138 L 158 127 L 158 117 Q 158 105 158 97 L 158 87 Q 158 73 155 69 L 168 66 Q 169 67 171 69 Q 173 72 173 83 L 172 95 Q 171 104 171 115 L 171 125 Q 170 137 170 150 L 158 152" fill="#990000" /><path d="M 170 150 Q 188 147 200 145 Q 215 141 229 151 Q 233 154 232 157 Q 231 159 226 159 Q 155 160 116 170 Q 112 171 107 170 Q 106 170 105 170 L 107 160 Q 134 156 158 152" fill="#b20000" /><path d="M 117 248 L 116 252 Q 114 256 109 250 Q 105 245 104 237 Q 99 212 91 197 Q 88 192 90 190 Q 91 189 95 190 Q 105 191 108 193 L 111 202 Q 111 211 116 234 L 117 244" fill="#cc0000" /><path d="M 187 194 Q 185 191 177 192 Q 148 197 117 201 Q 114 202 111 202 L 108 193 Q 148 190 180 181 Q 195 173 215 191" fill="#e50000" /><path d="M 182 226 Q 186 215 189 201 Q 190 197 187 194 L 215 191 Q 219 197 214 201 Q 204 207 196 230" fill="#e50000" /><path d="M 116 234 Q 144 233 179 226 Q 181 226 182 226 L 196 230 Q 201 234 201 236 Q 201 239 198 239 Q 147 240 123 244 Q 120 244 117 244" fill="#ff0000" /></svg>