<svg xmlns="http://www.w3.org/2000/svg" xmlns:xlink="http://www.w3.org/1999/xlink" width="270" height="270"><path d="M 0 0 L 270 270 M 270 0 L 0 270 M 135 0 L 135 270 M 0 135 L 270 135" stroke="#CCCCCC" /><path d="M 55 142 L 53 147 Q 52 151 47 146 Q 42 139 41 130 Q 37 99 29 80 Q 27 76 28 74 Q 29 73 33 74 Q 40 75 44 77 L 47 85 Q 47 94 52 124 L 54 132" fill="#CCCCCC"/><path d="M 79 79 Q 78 77 72 78 Q 62 81 51 84 Q 48 84 47 85 L 44 77 Q 57 73 70 68 Q 82 61 87 63 Q 95 68 101 71 Q 108 75 101 82" fill="#CCCCCC"/><path d="M 76 116 Q 78 103 80 92 Q 82 81 79 79 L 101 82 Q 94 90 90 117" fill="#CCCCCC"/><path d="M 52 124 Q 63 121 76 116 L 90 117 Q 96 120 96 122 Q 96 124 93 125 Q 70 128 59 131 Q 56 132 54 132" fill="#CCCCCC"/><path d="M 143 114 L 140 114 L 140 114 Q 130 107 130 93 Q 127 59 117 44 Q 115 41 117 40 Q 118 38 120 39 Q 125 40 130 43 L 136 51 Q 137 61 139 74 L 139 79 Q 140 86 141 92 Q 144 98 144 104 L 144 111" fill="#CCCCCC"/><path d="M 200 43 Q 196 41 190 42 Q 156 46 137 51 L 136 51 L 130 43 Q 144 41 183 34 Q 185 33 188 33 Q 206 29 210 31 Q 221 38 225 43" fill="#CCCCCC"/><path d="M 191 97 Q 195 93 203 52 Q 204 46 200 43 L 225 43 Q 228 46 225 50 Q 219 56 216 64 Q 208 103 203 111 Q 199 116 197 114 Q 193 112 189 106" fill="#CCCCCC"/><path d="M 139 74 Q 148 71 158 67 Q 169 64 175 65 Q 182 66 184 70 Q 186 73 181 74 Q 166 76 145 79 Q 141 80 139 79" fill="#CCCCCC"/><path d="M 144 104 Q 185 96 189 97 Q 191 97 191 97 L 189 106 Q 170 108 145 111 Q 144 111 144 111" fill="#CCCCCC"/><path d="M 130 221 Q 129 230 125 228 L 124 227 Q 114 220 114 203 Q 113 159 103 142 Q 101 139 103 137 Q 105 136 106 136 Q 113 138 119 142 L 125 153 Q 125 164 126 176 L 127 184 Q 128 194 128 202 Q 129 207 129 211" fill="#CCCCCC"/><path d="M 119 142 Q 169 139 205 126 Q 214 123 219 126 Q 233 131 239 138 L 211 143 Q 208 140 200 141 Q 157 147 129 153 Q 127 153 125 153" fill="#CCCCCC"/><path d="M 206 210 Q 208 209 208 204 Q 214 178 213 150 Q 213 144 211 143 L 239 138 Q 242 141 237 147 Q 231 156 230 169 Q 225 216 218 232 Q 215 239 211 240 Q 208 240 206 235" fill="#CCCCCC"/><path d="M 206 210 L 206 235 Q 200 223 196 216" fill="#CCCCCC"/><path d="M 126 176 Q 144 172 166 167 Q 177 164 184 165 Q 191 166 194 171 Q 196 174 189 175 Q 165 178 132 184 Q 128 184 127 184" fill="#CCCCCC"/><path d="M 130 221 L 129 211 Q 153 209 182 203 Q 191 201 196 204 Q 198 206 200 208 Q 205 210 206 210 L 196 216 Q 155 217 135 221 Q 133 221 130 221" fill="#CCCCCC"/><path d="M 55 142 L 53 147 Q 52 151 47 146 Q 42 139 41 130 Q 37 99 29 80 Q 27 76 28 74 Q 29 73 33 74 Q 40 75 44 77 L 47 85 Q 47 94 52 124 L 54 132" fill="#000000" /><path d="M 79 79 Q 78 77 72 78 Q 62 81 51 84 Q 48 84 47 85 L 44 77 Q 57 73 70 68 Q 82 61 87 63 Q 95 68 101 71 Q 108 75 101 82" fill="#190000" /><path d="M 76 116 Q 78 103 80 92 Q 82 81 79 79 L 101 82 Q 94 90 90 117" fill="#190000" /><path d="M 52 124 Q 63 121 76 116 L 90 117 Q 96 120 96 122 Q 96 124 93 125 Q 70 128 59 131 Q 56 132 54 132" fill="#330000" /><path d="M 143 114 L 140 114 L 140 114 Q 130 107 130 93 Q 127 59 117 44 Q 115 41 117 40 Q 118 38 120 39 Q 125 40 130 43 L 136 51 Q 137 61 139 74 L 139 79 Q 140 86 141 92 Q 144 98 144 104 L 144 111" fill="#4c0000" /><path d="M 200 43 Q 196 41 190 42 Q 156 46 137 51 L 136 51 L 130 43 Q 144 41 183 34 Q 185 33 188 33 Q 206 29 210 31 Q 221 38 225 43" fill="#660000" /><path d="M 191 97 Q 195 93 203 52 Q 204 46 200 43 L 225 43 Q 228 46 225 50 Q 219 56 216 64 Q 208 103 203 111 Q 199 116 197 114 Q 193 112 189 106" fill="#660000" /><path d="M 139 74 Q 148 71 158 67 Q 169 64 175 65 Q 182 66 184 70 Q 186 73 181 74 Q 166 76 145 79 Q 141 80 139 79" fill="#7f0000" /><path d="M 144 104 Q 185 96 189 97 Q 191 97 191 97 L 189 106 Q 170 108 145 111 Q 144 111 144 111" fill="#990000" /><path d="M 130 221 Q 129 230 125 228 L 124 227 Q 114 220 114 203 Q 113 159 103 142 Q 101 139 103 137 Q 105 136 106 136 Q 113 138 119 142 L 125 153 Q 125 164 126 176 L 127 184 Q 128 194 128 202 Q 129 207 129 211" fill="#b20000" /><path d="M 119 142 Q 169 139 205 126 Q 214 123 219 126 Q 233 131 239 138 L 211 143 Q 208 140 200 141 Q 157 147 129 153 Q 127 153 125 153" fill="#cc0000" /><path d="M 206 210 Q 208 209 208 204 Q 214 178 213 150 Q 213 144 211 143 L 239 138 Q 242 141 237 147 Q 231 156 230 169 Q 225 216 218 232 Q 215 239 211 240 Q 208 240 206 235" fill="#cc0000" /><path d="M 206 210 L 206 235 Q 200 223 196 216" fill="#cc0000" /><path d="M 126 176 Q 144 172 166 167 Q 177 164 184 165 Q 191 166 194 171 Q 196 174 189 175 Q 165 178 132 184 Q 128 184 127 184" fill="#e50000" /><path d="M 130 221 L 129 211 Q 153 209 182 203 Q 191 201 196 204 Q 198 206 200 208 Q 205 210 206 210 L 196 216 Q 155 217 135 221 Q 133 221 130 221" fill="#ff0000" /></svg>