<svg xmlns="http://www.w3.org/2000/svg" xmlns:xlink="http://www.w3.org/1999/xlink" width="270" height="270"><path d="M 0 0 L 270 270 M 270 0 L 0 270 M 135 0 L 135 270 M 0 135 L 270 135" stroke="#CCCCCC" /><path d="M 42 141 Q 45 154 42 161 Q 41 165 36 159 Q 31 153 31 143 Q 27 110 19 90 Q 17 86 19 84 Q 20 83 23 84 Q 32 86 35 88 Q 35 88 35 88 L 36 96 Q 37 106 41 133" fill="#000000" /><path d="M 35 88 Q 56 82 65 76 Q 69 72 74 75 Q 82 79 87 82 L 59 89 Q 38 94 36 96" fill="#190000" /><path d="M 87 82 Q 93 85 88 92 Q 81 100 78 125 L 65 125 Q 69 91 67 90 Q 65 87 59 89" fill="#190000" /><path d="M 84 129 L 84 130 Q 84 133 81 133 Q 58 137 48 140 Q 45 141 42 141 L 41 133 Q 52 129 65 125 L 78 125" fill="#330000" /><path d="M 133 157 L 133 157 Q 133 144 133 133 L 134 124 Q 134 110 134 99 L 134 90 Q 134 85 133 81 Q 133 63 128 54 Q 127 51 126 46 Q 124 42 126 41 Q 129 40 133 41 Q 144 46 146 51 Q 148 54 147 60 Q 146 68 145 189 Q 145 223 140 231 Q 136 235 133 230 Q 122 216 127 200 Q 131 181 132 165 L 133 157" fill="#4c0000" /><path d="M 134 99 Q 126 100 118 101 Q 101 105 93 100 Q 87 96 95 95 Q 102 94 109 93 Q 129 88 134 90" fill="#660000" /><path d="M 133 133 Q 123 135 114 137 Q 97 141 89 137 Q 83 134 92 132 Q 99 130 107 129 Q 129 121 134 124" fill="#7f0000" /><path d="M 132 165 Q 131 165 131 165 Q 100 184 94 189 Q 92 192 89 191 Q 80 187 74 183 Q 72 181 72 178 Q 73 176 76 175 Q 84 174 133 157" fill="#990000" /><path d="M 188 165 Q 188 216 189 224 Q 189 240 182 246 Q 180 248 178 246 Q 174 245 170 228 Q 167 223 170 214 Q 176 192 176 169 Q 177 117 176 61 Q 175 43 167 30 Q 165 26 166 25 Q 172 21 178 25 Q 193 34 195 37 Q 196 40 193 44 Q 189 59 189 80 L 188 89 Q 188 105 188 119 L 188 127 Q 188 143 188 157" fill="#b20000" /><path d="M 189 80 Q 218 71 227 71 Q 234 73 238 77 Q 241 81 234 82 Q 215 85 191 89 Q 189 89 188 89" fill="#cc0000" /><path d="M 188 119 Q 211 109 222 110 Q 229 112 233 116 Q 235 120 228 121 Q 212 123 191 127 Q 189 127 188 127" fill="#e50000" /><path d="M 217 152 L 220 152 Q 235 145 246 153 Q 252 158 252 161 Q 251 163 247 163 Q 235 164 222 164 Q 192 167 188 165 L 188 157" fill="#ff0000" /></svg>