<svg xmlns="http://www.w3.org/2000/svg" xmlns:xlink="http://www.w3.org/1999/xlink" width="270" height="270"><path d="M 0 0 L 270 270 M 270 0 L 0 270 M 135 0 L 135 270 M 0 135 L 270 135" stroke="#CCCCCC" /><path d="M 41 163 L 39 168 Q 37 172 33 166 Q 29 160 28 151 Q 26 121 19 102 Q 17 98 19 96 Q 20 95 23 96 Q 32 99 35 100 L 36 107 Q 36 116 40 144 L 41 153" fill="#000000" /><path d="M 66 103 Q 65 100 58 102 Q 48 104 36 107 L 35 100 Q 54 95 64 89 Q 66 87 68 87 Q 70 87 86 95 Q 92 99 86 106" fill="#170000" /><path d="M 63 137 Q 69 105 66 103 L 86 106 Q 80 113 75 138" fill="#170000" /><path d="M 40 144 Q 50 142 62 137 Q 62 137 63 137 L 75 138 Q 82 141 82 143 Q 82 146 79 146 Q 55 149 44 153 Q 42 153 41 153" fill="#2e0000" /><path d="M 136 66 Q 113 93 106 95 Q 102 96 103 93 Q 104 92 106 89 Q 140 40 133 29 Q 131 24 136 23 Q 140 23 147 27 Q 154 32 155 35 Q 155 36 156 37 Q 155 38 140 60" fill="#450000" /><path d="M 168 66 Q 167 65 165 65 Q 142 68 136 66 L 140 60 Q 144 60 164 56 Q 180 51 183 52 Q 192 59 196 62 Q 199 66 194 68" fill="#5c0000" /><path d="M 149 104 Q 149 103 150 102 Q 157 91 167 69 Q 169 67 168 66 L 194 68 Q 183 74 158 102" fill="#5c0000" /><path d="M 110 171 Q 105 138 103 129 Q 101 121 96 113 Q 94 110 96 108 Q 97 107 101 108 Q 105 109 108 111 L 116 119 Q 116 140 117 152 L 117 153 Q 118 160 119 170" fill="#730000" /><path d="M 108 111 Q 128 107 149 104 L 158 102 Q 178 98 196 94 Q 199 93 204 95 Q 219 102 221 106 L 196 105 Q 190 102 162 109 L 155 110 Q 122 116 116 119" fill="#8b0000" /><path d="M 189 161 Q 191 152 192 145 L 194 137 Q 196 123 198 113 Q 198 107 196 105 L 221 106 Q 222 109 219 112 Q 211 125 204 158" fill="#8b0000" /><path d="M 117 152 Q 134 129 131 120 Q 131 118 132 118 Q 137 117 143 121 Q 145 122 145 124 Q 146 126 145 127 Q 144 127 143 128 Q 127 153 117 153" fill="#a20000" /><path d="M 164 146 Q 156 143 156 130 Q 157 113 155 110 L 162 109 Q 165 110 167 112 Q 170 115 168 118 Q 165 123 165 131 Q 165 135 167 137" fill="#b90000" /><path d="M 192 145 Q 192 145 192 145 Q 177 148 164 146 L 167 137 Q 175 140 182 135 Q 185 133 189 134 Q 192 135 194 137" fill="#b90000" /><path d="M 139 175 Q 111 179 86 185 Q 82 186 77 185 Q 72 183 69 180 Q 65 175 70 175 Q 91 173 110 171 L 119 170 Q 130 168 140 167 L 156 166 Q 156 165 156 165 Q 174 163 189 161 L 204 158 Q 211 157 218 156 Q 233 151 248 162 Q 252 166 251 169 Q 249 172 230 171 Q 184 170 153 174" fill="#d00000" /><path d="M 140 213 L 123 227 Q 98 246 67 244 Q 62 244 66 242 Q 77 237 87 234 Q 130 214 139 175 L 140 167 Q 140 158 138 155 Q 136 152 139 151 Q 144 150 149 152 Q 155 154 158 157 Q 160 160 158 162 Q 157 163 156 166 L 153 174 Q 153 174 152 175 L 151 182" fill="#e70000" /><path d="M 152 175 Q 168 191 183 203 Q 199 218 239 235 Q 243 237 243 238 Q 243 240 240 240 Q 232 242 205 243 Q 197 243 192 238 Q 169 210 151 182" fill="#ff0000" /></svg>