<svg xmlns="http://www.w3.org/2000/svg" xmlns:xlink="http://www.w3.org/1999/xlink" width="270" height="270"><path d="M 0 0 L 270 270 M 270 0 L 0 270 M 135 0 L 135 270 M 0 135 L 270 135" stroke="#CCCCCC" /><path d="M 46 159 L 44 164 Q 42 168 38 162 Q 33 156 33 146 Q 30 115 22 95 Q 20 91 22 89 Q 23 88 26 89 Q 33 90 36 92 L 40 99 Q 40 108 45 141 L 45 150" fill="#CCCCCC"/><path d="M 72 95 Q 70 92 63 94 Q 42 98 40 99 L 36 92 Q 60 87 70 81 Q 72 80 74 80 Q 75 80 91 88 Q 97 92 92 98" fill="#CCCCCC"/><path d="M 67 135 Q 70 121 72 109 Q 74 97 72 95 L 92 98 Q 84 107 80 136" fill="#CCCCCC"/><path d="M 45 141 Q 54 139 66 135 Q 66 135 67 135 L 80 136 Q 86 139 86 141 Q 86 144 83 144 Q 54 147 45 150" fill="#CCCCCC"/><path d="M 146 35 L 145 32 Q 145 28 147 28 Q 149 27 154 29 Q 166 32 172 36 Q 177 40 178 47 Q 179 52 177 56 Q 174 59 170 58 Q 161 54 150 39" fill="#CCCCCC"/><path d="M 113 95 L 111 105 Q 109 114 105 121 Q 103 127 98 122 L 97 122 Q 90 110 94 104 Q 106 87 104 77 Q 104 71 109 73 Q 111 76 115 81 Q 115 81 115 81 L 115 89" fill="#CCCCCC"/><path d="M 115 81 Q 126 80 136 78 Q 164 72 181 70 Q 198 66 212 64 Q 219 63 224 68 Q 241 81 242 83 L 208 78 Q 209 76 207 74 Q 204 74 196 75 Q 152 81 127 90 Q 121 91 115 89" fill="#CCCCCC"/><path d="M 242 83 Q 242 86 232 88 Q 220 90 206 99 Q 201 102 199 101 Q 197 100 200 96 Q 208 78 208 78" fill="#CCCCCC"/><path d="M 142 111 L 149 110 Q 156 108 163 105 Q 169 103 177 104 Q 184 105 185 108 Q 186 110 185 112 Q 184 112 178 114 Q 167 117 157 119 Q 140 123 130 118 Q 124 115 132 113" fill="#CCCCCC"/><path d="M 132 202 L 132 202 Q 131 209 127 208 Q 119 204 118 187 Q 116 159 109 147 Q 106 144 108 143 Q 109 142 111 142 Q 116 144 120 146 L 127 153 Q 127 163 128 172 L 128 178 Q 129 183 129 186 Q 131 190 131 194 L 132 201" fill="#CCCCCC"/><path d="M 187 144 Q 184 142 178 143 Q 145 148 127 153 L 120 146 Q 130 144 143 142 Q 175 136 177 136 Q 194 131 198 134 Q 208 140 212 145" fill="#CCCCCC"/><path d="M 179 189 Q 183 186 190 151 Q 191 147 187 144 L 212 145 Q 214 148 211 151 Q 205 157 203 165 Q 195 195 191 201 Q 187 206 185 204 Q 181 202 178 197" fill="#CCCCCC"/><path d="M 128 172 Q 159 163 166 164 Q 172 166 174 169 Q 177 172 171 173 Q 155 175 133 178 Q 130 178 128 178" fill="#CCCCCC"/><path d="M 131 194 Q 172 187 177 188 Q 179 188 179 189 L 178 197 Q 158 199 132 201" fill="#CCCCCC"/><path d="M 186 221 L 221 215 Q 231 213 245 224 Q 249 228 247 231 Q 246 233 241 233 Q 240 233 240 233 Q 154 228 98 241 Q 94 242 88 240 Q 83 239 79 235 Q 76 230 81 230" fill="#CCCCCC"/><path d="M 46 159 L 44 164 Q 42 168 38 162 Q 33 156 33 146 Q 30 115 22 95 Q 20 91 22 89 Q 23 88 26 89 Q 33 90 36 92 L 40 99 Q 40 108 45 141 L 45 150" fill="#000000" /><path d="M 72 95 Q 70 92 63 94 Q 42 98 40 99 L 36 92 Q 60 87 70 81 Q 72 80 74 80 Q 75 80 91 88 Q 97 92 92 98" fill="#170000" /><path d="M 67 135 Q 70 121 72 109 Q 74 97 72 95 L 92 98 Q 84 107 80 136" fill="#170000" /><path d="M 45 141 Q 54 139 66 135 Q 66 135 67 135 L 80 136 Q 86 139 86 141 Q 86 144 83 144 Q 54 147 45 150" fill="#2e0000" /><path d="M 146 35 L 145 32 Q 145 28 147 28 Q 149 27 154 29 Q 166 32 172 36 Q 177 40 178 47 Q 179 52 177 56 Q 174 59 170 58 Q 161 54 150 39" fill="#450000" /><path d="M 113 95 L 111 105 Q 109 114 105 121 Q 103 127 98 122 L 97 122 Q 90 110 94 104 Q 106 87 104 77 Q 104 71 109 73 Q 111 76 115 81 Q 115 81 115 81 L 115 89" fill="#5c0000" /><path d="M 115 81 Q 126 80 136 78 Q 164 72 181 70 Q 198 66 212 64 Q 219 63 224 68 Q 241 81 242 83 L 208 78 Q 209 76 207 74 Q 204 74 196 75 Q 152 81 127 90 Q 121 91 115 89" fill="#730000" /><path d="M 242 83 Q 242 86 232 88 Q 220 90 206 99 Q 201 102 199 101 Q 197 100 200 96 Q 208 78 208 78" fill="#730000" /><path d="M 142 111 L 149 110 Q 156 108 163 105 Q 169 103 177 104 Q 184 105 185 108 Q 186 110 185 112 Q 184 112 178 114 Q 167 117 157 119 Q 140 123 130 118 Q 124 115 132 113" fill="#8b0000" /><path d="M 132 202 L 132 202 Q 131 209 127 208 Q 119 204 118 187 Q 116 159 109 147 Q 106 144 108 143 Q 109 142 111 142 Q 116 144 120 146 L 127 153 Q 127 163 128 172 L 128 178 Q 129 183 129 186 Q 131 190 131 194 L 132 201" fill="#a20000" /><path d="M 187 144 Q 184 142 178 143 Q 145 148 127 153 L 120 146 Q 130 144 143 142 Q 175 136 177 136 Q 194 131 198 134 Q 208 140 212 145" fill="#b90000" /><path d="M 179 189 Q 183 186 190 151 Q 191 147 187 144 L 212 145 Q 214 148 211 151 Q 205 157 203 165 Q 195 195 191 201 Q 187 206 185 204 Q 181 202 178 197" fill="#b90000" /><path d="M 128 172 Q 159 163 166 164 Q 172 166 174 169 Q 177 172 171 173 Q 155 175 133 178 Q 130 178 128 178" fill="#d00000" /><path d="M 131 194 Q 172 187 177 188 Q 179 188 179 189 L 178 197 Q 158 199 132 201" fill="#e70000" /><path d="M 186 221 L 221 215 Q 231 213 245 224 Q 249 228 247 231 Q 246 233 241 233 Q 240 233 240 233 Q 154 228 98 241 Q 94 242 88 240 Q 83 239 79 235 Q 76 230 81 230" fill="#ff0000" /></svg>