<svg xmlns="http://www.w3.org/2000/svg" xmlns:xlink="http://www.w3.org/1999/xlink" width="270" height="270"><path d="M 0 0 L 270 270 M 270 0 L 0 270 M 135 0 L 135 270 M 0 135 L 270 135" stroke="#CCCCCC" /><path d="M 103 45 Q 102 45 102 45 Q 74 50 71 49 Q 69 49 71 46 Q 134 28 135 17 Q 136 14 138 13 Q 141 13 145 16 Q 155 22 160 27 Q 163 30 162 32 Q 161 34 156 34 Q 149 35 116 43" fill="#000000" /><path d="M 94 75 Q 76 78 60 83 Q 56 84 51 83 Q 47 82 44 79 Q 40 75 45 74 Q 73 70 98 66 L 116 64 Q 152 57 172 52 Q 181 50 193 59 Q 197 62 196 65 Q 195 67 190 67 Q 157 67 134 69 L 126 70 Q 118 71 111 72" fill="#170000" /><path d="M 82 112 Q 77 118 73 123 Q 39 156 21 158 Q 19 158 21 157 Q 27 151 32 147 Q 76 109 94 75 L 98 66 Q 103 53 103 45 L 116 43 Q 123 46 124 51 Q 125 54 123 55 Q 120 57 116 64 L 111 72 Q 97 93 87 106" fill="#2e0000" /><path d="M 134 69 Q 136 71 140 74 Q 180 109 215 122 Q 232 128 246 133 Q 250 135 249 137 Q 249 138 244 139 Q 215 144 200 141 Q 184 138 127 72 Q 126 71 126 70" fill="#450000" /><path d="M 100 142 L 100 143 Q 99 146 94 141 Q 92 138 91 134 Q 86 120 82 112 L 87 106 Q 95 107 96 109 L 98 116 Q 98 121 100 133 L 100 141" fill="#5c0000" /><path d="M 133 110 Q 131 108 128 109 Q 99 115 98 116 L 96 109 Q 115 104 119 103 Q 135 97 138 99 Q 149 104 153 107" fill="#730000" /><path d="M 130 128 Q 132 122 134 114 Q 134 111 133 110 L 153 107 Q 155 111 152 115 Q 147 117 142 128" fill="#730000" /><path d="M 100 133 Q 114 131 130 128 L 142 128 Q 148 132 148 134 Q 148 136 145 136 Q 117 138 104 141 Q 102 141 100 141" fill="#8b0000" /><path d="M 66 178 L 68 202 Q 71 231 64 238 Q 62 240 59 237 Q 58 235 57 234 Q 49 224 54 213 Q 59 180 47 163 Q 45 160 48 158 Q 53 158 60 160 Q 61 160 61 160 L 66 170" fill="#a20000" /><path d="M 61 160 Q 62 160 149 152 Q 170 151 177 149 Q 182 147 187 149 Q 199 154 202 157 Q 205 160 202 163 L 177 163 Q 174 160 168 160 Q 99 163 71 168 Q 69 170 66 170" fill="#b90000" /><path d="M 202 163 Q 197 171 198 218 Q 197 231 190 244 Q 186 253 184 254 Q 180 256 177 253 L 178 219 Q 183 189 182 172 Q 182 165 177 163" fill="#b90000" /><path d="M 177 253 Q 171 244 160 236 Q 152 231 151 228 Q 149 225 154 226 Q 162 226 170 227 Q 178 227 178 219" fill="#b90000" /><path d="M 103 219 L 103 221 Q 102 225 98 220 Q 95 217 94 212 Q 91 194 85 184 Q 83 180 84 179 Q 85 177 88 178 Q 93 179 95 180 L 100 186 Q 100 191 103 208 L 103 216" fill="#d00000" /><path d="M 134 185 Q 133 182 126 183 Q 102 185 100 186 L 95 180 Q 114 178 125 175 Q 139 169 143 172 Q 149 177 153 180 Q 158 184 153 189" fill="#e70000" /><path d="M 132 203 Q 135 185 134 185 L 153 189 Q 148 193 144 204" fill="#e70000" /><path d="M 103 208 Q 116 206 132 203 L 144 204 Q 150 208 150 210 Q 150 212 147 212 Q 121 213 109 216 Q 106 216 103 216" fill="#ff0000" /></svg>