<svg xmlns="http://www.w3.org/2000/svg" xmlns:xlink="http://www.w3.org/1999/xlink" width="270" height="270"><path d="M 0 0 L 270 270 M 270 0 L 0 270 M 135 0 L 135 270 M 0 135 L 270 135" stroke="#CCCCCC" /><path d="M 40 147 L 38 151 Q 37 155 32 150 Q 28 144 28 136 Q 24 107 17 90 Q 15 86 16 84 Q 17 83 20 84 Q 28 85 31 87 L 33 95 Q 34 103 38 131 L 39 140" fill="#000000" /><path d="M 63 90 Q 62 88 56 89 Q 47 91 37 94 Q 35 95 33 95 L 31 87 Q 50 82 61 75 Q 64 74 66 74 Q 68 74 83 82 Q 90 86 84 93" fill="#120000" /><path d="M 58 125 Q 61 113 63 102 Q 65 92 63 90 L 84 93 Q 77 101 72 125" fill="#120000" /><path d="M 38 131 Q 47 128 58 125 L 72 125 Q 79 129 79 131 Q 79 133 76 134 Q 48 137 39 140" fill="#240000" /><path d="M 144 55 Q 143 55 143 55 Q 117 60 108 55 Q 102 50 110 49 Q 128 47 144 44 L 158 41 Q 188 31 195 32 Q 203 34 204 37 Q 206 39 203 41 Q 201 43 188 46 Q 172 49 157 53" fill="#360000" /><path d="M 145 64 L 144 55 L 144 44 Q 143 23 139 18 Q 137 15 139 13 Q 141 11 144 12 Q 150 13 158 17 Q 162 20 161 23 Q 161 25 160 28 Q 159 29 158 41 L 157 53 Q 156 61 155 71 L 145 74" fill="#480000" /><path d="M 155 71 Q 166 68 173 69 Q 180 70 183 74 Q 185 78 179 79 Q 157 82 127 88 Q 120 89 117 87 Q 111 82 116 81 Q 130 78 145 74" fill="#5b0000" /><path d="M 128 140 Q 127 142 127 144 Q 126 148 122 143 Q 118 140 117 135 Q 113 119 107 110 Q 105 106 106 105 Q 107 104 110 104 Q 117 105 120 106 L 123 113 Q 124 119 127 132" fill="#6d0000" /><path d="M 172 106 Q 170 104 166 105 Q 148 109 129 112 Q 126 113 123 113 L 120 106 Q 133 104 146 101 Q 158 98 170 93 Q 174 92 179 94 Q 191 100 194 103" fill="#7f0000" /><path d="M 170 123 Q 172 117 173 110 Q 173 107 172 106 L 194 103 Q 198 107 193 111 Q 188 115 183 123" fill="#7f0000" /><path d="M 171 134 Q 146 137 133 140 Q 130 140 128 140 L 127 132 Q 146 129 170 123 L 183 123 Q 190 128 190 130 Q 190 132 187 132 Q 183 132 179 133" fill="#910000" /><path d="M 106 149 L 106 147 Q 107 144 109 145 Q 122 148 126 156 Q 128 162 127 165 Q 125 169 122 168 Q 116 168 107 151" fill="#a30000" /><path d="M 162 163 L 164 160 Q 172 140 171 135 L 171 134 L 179 133 Q 187 141 187 144 Q 189 146 185 149 Q 170 161 170 164 L 161 166" fill="#b60000" /><path d="M 170 164 Q 216 158 224 155 Q 231 153 234 155 Q 244 159 252 165 Q 254 168 253 171 Q 251 173 246 173 Q 211 170 184 172 Q 99 181 73 192 Q 65 195 54 188 Q 50 184 50 181 Q 50 179 54 179 Q 71 178 95 174 Q 122 170 161 166" fill="#c80000" /><path d="M 124 250 L 123 254 Q 122 258 117 253 Q 113 248 112 241 Q 107 218 100 204 Q 97 200 99 198 Q 100 197 103 197 Q 111 198 114 200 L 118 208 Q 118 215 122 232 L 124 242" fill="#da0000" /><path d="M 179 200 Q 177 198 170 199 Q 123 207 118 208 L 114 200 Q 148 196 172 189 Q 184 182 204 198" fill="#ec0000" /><path d="M 174 224 Q 174 224 174 224 Q 177 215 180 206 Q 181 202 179 200 L 204 198 Q 207 203 202 207 Q 195 212 188 226" fill="#ec0000" /><path d="M 122 232 Q 145 230 174 224 L 188 226 Q 196 231 196 233 Q 196 236 192 236 Q 149 238 128 242 Q 125 242 124 242" fill="#ff0000" /></svg>