<svg xmlns="http://www.w3.org/2000/svg" xmlns:xlink="http://www.w3.org/1999/xlink" width="270" height="270"><path d="M 0 0 L 270 270 M 270 0 L 0 270 M 135 0 L 135 270 M 0 135 L 270 135" stroke="#CCCCCC" /><path d="M 47 134 L 45 138 Q 44 142 39 136 Q 34 131 34 123 Q 30 95 22 78 Q 20 74 22 72 Q 23 71 26 72 Q 35 73 38 75 L 40 82 Q 41 90 45 118 L 46 126" fill="#CCCCCC"/><path d="M 70 77 Q 68 75 62 76 Q 42 81 40 82 L 38 75 Q 50 71 61 67 Q 71 60 77 63 Q 84 67 89 70 Q 95 73 90 80" fill="#CCCCCC"/><path d="M 66 111 Q 71 79 70 77 L 90 80 Q 84 87 79 111" fill="#CCCCCC"/><path d="M 45 118 Q 54 115 66 111 L 79 111 Q 87 115 87 117 Q 87 119 84 119 Q 61 123 51 126 Q 48 126 46 126" fill="#CCCCCC"/><path d="M 158 57 Q 158 57 157 57 Q 139 59 130 55 Q 124 51 133 50 Q 146 48 158 46 L 171 43 Q 191 36 198 37 Q 204 39 206 42 Q 207 44 205 45 Q 204 46 169 54" fill="#CCCCCC"/><path d="M 158 83 Q 157 81 158 57 L 158 46 Q 159 26 154 18 Q 152 16 154 14 Q 158 11 162 12 Q 171 14 174 18 Q 178 20 175 24 Q 172 33 171 41 Q 171 42 171 43 L 169 54 Q 164 79 161 82" fill="#CCCCCC"/><path d="M 154 90 L 139 94 L 130 96 Q 118 98 107 102 Q 104 103 99 102 Q 94 101 91 97 Q 87 93 92 92 Q 110 89 127 88 L 138 86 Q 149 84 158 83 L 161 82 Q 161 82 161 82 Q 163 82 164 82 Q 176 80 187 78 L 201 75 Q 208 74 214 73 Q 231 67 245 77 Q 249 81 248 84 Q 246 86 230 86 Q 211 86 196 88 L 184 88" fill="#CCCCCC"/><path d="M 139 94 Q 142 109 141 114 Q 140 116 137 114 Q 134 111 130 96 L 127 88 Q 124 81 119 76 Q 116 72 120 70 Q 124 68 133 72 Q 138 73 138 77 Q 138 81 138 86" fill="#CCCCCC"/><path d="M 187 78 Q 190 66 187 60 Q 186 57 188 56 Q 192 54 196 56 Q 203 61 206 64 Q 208 66 205 70 Q 203 73 201 75 L 196 88 Q 187 106 184 108 Q 180 110 180 107 Q 180 106 184 88" fill="#CCCCCC"/><path d="M 134 205 L 133 207 Q 131 210 128 207 Q 119 197 124 176 Q 126 136 121 126 Q 120 124 120 123 Q 118 120 120 119 Q 123 118 125 119 Q 131 120 133 123 L 137 131 Q 136 132 136 147 L 136 153 Q 136 160 136 170 L 136 176 Q 136 192 136 194 L 135 204" fill="#CCCCCC"/><path d="M 133 123 Q 166 119 185 111 Q 191 108 195 110 Q 208 115 215 121 L 190 124 Q 188 120 182 122 Q 165 125 141 130 Q 139 131 137 131" fill="#CCCCCC"/><path d="M 193 191 Q 193 190 194 190 Q 196 182 194 142 Q 193 128 190 124 L 215 121 Q 217 124 214 128 Q 208 139 212 180 Q 213 193 210 199 Q 206 208 202 209 Q 199 209 196 201 Q 194 199 194 198" fill="#CCCCCC"/><path d="M 136 147 Q 171 138 176 138 Q 182 140 185 144 Q 187 147 181 148 Q 164 150 142 153 Q 138 153 136 153" fill="#CCCCCC"/><path d="M 136 170 Q 170 160 178 161 Q 184 163 187 166 Q 189 170 183 171 Q 166 173 143 176 Q 139 177 136 176" fill="#CCCCCC"/><path d="M 136 194 Q 154 192 177 187 Q 185 186 189 188 Q 192 190 193 191 L 194 198 Q 156 200 139 203 Q 136 204 135 204" fill="#CCCCCC"/><path d="M 134 209 L 136 209 Q 139 209 146 212 Q 153 214 153 217 Q 154 220 151 223 Q 147 226 140 232 Q 111 258 95 258 Q 88 258 94 255 Q 130 227 133 213" fill="#CCCCCC"/><path d="M 179 215 L 179 212 Q 180 209 182 210 Q 219 225 222 241 Q 225 253 221 256 Q 219 258 217 258 Q 213 257 209 251 Q 194 232 181 218" fill="#CCCCCC"/><path d="M 47 134 L 45 138 Q 44 142 39 136 Q 34 131 34 123 Q 30 95 22 78 Q 20 74 22 72 Q 23 71 26 72 Q 35 73 38 75 L 40 82 Q 41 90 45 118 L 46 126" fill="#000000" /><path d="M 70 77 Q 68 75 62 76 Q 42 81 40 82 L 38 75 Q 50 71 61 67 Q 71 60 77 63 Q 84 67 89 70 Q 95 73 90 80" fill="#120000" /><path d="M 66 111 Q 71 79 70 77 L 90 80 Q 84 87 79 111" fill="#120000" /><path d="M 45 118 Q 54 115 66 111 L 79 111 Q 87 115 87 117 Q 87 119 84 119 Q 61 123 51 126 Q 48 126 46 126" fill="#240000" /><path d="M 158 57 Q 158 57 157 57 Q 139 59 130 55 Q 124 51 133 50 Q 146 48 158 46 L 171 43 Q 191 36 198 37 Q 204 39 206 42 Q 207 44 205 45 Q 204 46 169 54" fill="#360000" /><path d="M 158 83 Q 157 81 158 57 L 158 46 Q 159 26 154 18 Q 152 16 154 14 Q 158 11 162 12 Q 171 14 174 18 Q 178 20 175 24 Q 172 33 171 41 Q 171 42 171 43 L 169 54 Q 164 79 161 82" fill="#480000" /><path d="M 154 90 L 139 94 L 130 96 Q 118 98 107 102 Q 104 103 99 102 Q 94 101 91 97 Q 87 93 92 92 Q 110 89 127 88 L 138 86 Q 149 84 158 83 L 161 82 Q 161 82 161 82 Q 163 82 164 82 Q 176 80 187 78 L 201 75 Q 208 74 214 73 Q 231 67 245 77 Q 249 81 248 84 Q 246 86 230 86 Q 211 86 196 88 L 184 88" fill="#5b0000" /><path d="M 139 94 Q 142 109 141 114 Q 140 116 137 114 Q 134 111 130 96 L 127 88 Q 124 81 119 76 Q 116 72 120 70 Q 124 68 133 72 Q 138 73 138 77 Q 138 81 138 86" fill="#6d0000" /><path d="M 187 78 Q 190 66 187 60 Q 186 57 188 56 Q 192 54 196 56 Q 203 61 206 64 Q 208 66 205 70 Q 203 73 201 75 L 196 88 Q 187 106 184 108 Q 180 110 180 107 Q 180 106 184 88" fill="#7f0000" /><path d="M 134 205 L 133 207 Q 131 210 128 207 Q 119 197 124 176 Q 126 136 121 126 Q 120 124 120 123 Q 118 120 120 119 Q 123 118 125 119 Q 131 120 133 123 L 137 131 Q 136 132 136 147 L 136 153 Q 136 160 136 170 L 136 176 Q 136 192 136 194 L 135 204" fill="#910000" /><path d="M 133 123 Q 166 119 185 111 Q 191 108 195 110 Q 208 115 215 121 L 190 124 Q 188 120 182 122 Q 165 125 141 130 Q 139 131 137 131" fill="#a30000" /><path d="M 193 191 Q 193 190 194 190 Q 196 182 194 142 Q 193 128 190 124 L 215 121 Q 217 124 214 128 Q 208 139 212 180 Q 213 193 210 199 Q 206 208 202 209 Q 199 209 196 201 Q 194 199 194 198" fill="#a30000" /><path d="M 136 147 Q 171 138 176 138 Q 182 140 185 144 Q 187 147 181 148 Q 164 150 142 153 Q 138 153 136 153" fill="#b60000" /><path d="M 136 170 Q 170 160 178 161 Q 184 163 187 166 Q 189 170 183 171 Q 166 173 143 176 Q 139 177 136 176" fill="#c80000" /><path d="M 136 194 Q 154 192 177 187 Q 185 186 189 188 Q 192 190 193 191 L 194 198 Q 156 200 139 203 Q 136 204 135 204" fill="#da0000" /><path d="M 134 209 L 136 209 Q 139 209 146 212 Q 153 214 153 217 Q 154 220 151 223 Q 147 226 140 232 Q 111 258 95 258 Q 88 258 94 255 Q 130 227 133 213" fill="#ec0000" /><path d="M 179 215 L 179 212 Q 180 209 182 210 Q 219 225 222 241 Q 225 253 221 256 Q 219 258 217 258 Q 213 257 209 251 Q 194 232 181 218" fill="#ff0000" /></svg>