<svg xmlns="http://www.w3.org/2000/svg" xmlns:xlink="http://www.w3.org/1999/xlink" width="270" height="270"><path d="M 0 0 L 270 270 M 270 0 L 0 270 M 135 0 L 135 270 M 0 135 L 270 135" stroke="#CCCCCC" /><path d="M 80 74 L 80 77 Q 80 80 75 76 Q 71 73 69 68 Q 63 50 56 39 Q 53 36 54 34 Q 55 33 58 33 Q 64 33 67 34 L 72 40 Q 73 46 79 64 L 80 72" fill="#000000" /><path d="M 106 35 Q 104 32 97 34 Q 79 38 72 40 L 67 34 Q 83 31 97 26 Q 109 20 113 22 Q 119 26 124 29 Q 129 32 124 38" fill="#0d0000" /><path d="M 103 57 Q 105 49 106 43 Q 108 36 106 35 L 124 38 Q 119 42 115 58" fill="#0d0000" /><path d="M 79 64 Q 89 61 102 57 Q 103 57 103 57 L 115 58 Q 120 60 120 62 Q 120 64 117 65 Q 95 68 84 71 Q 82 72 80 72" fill="#1a0000" /><path d="M 157 64 L 156 66 Q 155 69 151 64 Q 148 61 147 56 Q 143 38 138 28 Q 136 24 137 23 Q 138 21 141 22 Q 150 24 152 25 L 154 32 Q 154 38 157 55 L 157 62" fill="#280000" /><path d="M 188 28 Q 186 26 180 27 Q 155 32 154 32 L 152 25 Q 169 23 180 19 Q 191 12 196 15 Q 203 20 207 23 Q 213 27 207 32" fill="#350000" /><path d="M 185 48 L 185 48 Q 189 29 188 28 L 207 32 Q 203 36 198 49" fill="#350000" /><path d="M 157 55 Q 169 53 185 48 L 198 49 Q 203 52 203 54 Q 203 56 200 56 Q 174 59 162 62 Q 159 63 157 62" fill="#430000" /><path d="M 82 93 Q 110 89 150 81 Q 186 71 193 72 Q 199 74 201 77 Q 202 79 200 81 Q 199 82 197 83 Q 190 85 107 100 Q 93 102 83 100" fill="#500000" /><path d="M 72 146 Q 63 178 50 201 Q 45 208 41 215 Q 21 241 12 241 Q 10 242 11 239 Q 11 237 13 236 Q 34 209 45 185 Q 57 159 65 112 Q 67 95 63 88 Q 62 85 65 83 Q 69 82 73 85 Q 79 89 82 93 L 83 100 Q 83 101 83 101 Q 77 120 73 140" fill="#5d0000" /><path d="M 104 121 Q 95 122 89 119 Q 84 116 90 115 Q 100 114 107 112 Q 129 106 131 106 Q 137 108 138 109 Q 139 111 137 113 Q 136 114 131 115 Q 123 117 116 119" fill="#6b0000" /><path d="M 104 135 L 104 121 L 116 119 L 116 132" fill="#780000" /><path d="M 117 140 Q 102 142 90 146 L 81 148 Q 77 149 72 146 L 73 140 Q 99 136 104 135 L 116 132 Q 117 132 118 132 Q 139 125 145 129 Q 149 131 149 133 Q 147 135 145 135 Q 136 136 126 139" fill="#860000" /><path d="M 83 186 L 83 174 Q 83 152 81 148 L 90 146 Q 91 147 93 148 Q 96 151 95 161 L 94 169 Q 94 176 93 183 L 93 191 Q 92 198 92 206 L 83 209" fill="#930000" /><path d="M 120 198 Q 124 150 117 140 L 126 139 Q 129 141 132 143 Q 133 145 133 147 Q 131 166 133 239 Q 134 246 131 254 Q 130 257 127 256 Q 126 255 123 251 Q 116 241 117 231 Q 118 228 120 204" fill="#a10000" /><path d="M 95 161 Q 95 162 95 162 Q 102 159 107 159 Q 112 159 115 162 Q 117 164 112 166 Q 105 167 96 169 L 94 169" fill="#ae0000" /><path d="M 93 183 Q 102 180 107 180 Q 112 180 115 183 Q 116 185 112 186 Q 104 188 93 191" fill="#bb0000" /><path d="M 92 206 Q 107 202 120 198 L 120 204 Q 117 206 114 207 Q 78 223 70 230 Q 67 232 65 231 Q 57 227 52 223 Q 50 221 50 217 Q 50 215 54 215 Q 60 215 64 214 Q 73 211 83 209" fill="#c90000" /><path d="M 152 157 Q 143 166 142 166 Q 139 167 140 165 Q 140 163 142 161 Q 170 111 163 100 Q 160 96 164 95 Q 168 94 174 97 Q 181 101 182 104 Q 184 107 182 109 Q 180 112 168 134 L 164 140 Q 163 142 161 144 Q 158 149 155 153" fill="#d60000" /><path d="M 168 134 Q 178 132 187 129 Q 197 127 205 123 Q 211 120 218 121 Q 224 122 226 125 Q 227 126 226 128 Q 224 129 217 132 Q 206 134 197 137 L 186 140 Q 175 143 164 140" fill="#e40000" /><path d="M 184 199 L 183 201 Q 181 203 179 205 Q 157 222 138 221 Q 131 220 137 217 Q 148 213 155 209 Q 167 201 178 188 L 183 178 Q 190 156 186 140 L 197 137 Q 204 140 205 142 Q 207 144 205 146 Q 204 148 203 153 Q 199 170 192 188 L 186 197" fill="#f10000" /><path d="M 178 188 Q 160 163 152 157 L 155 153 Q 162 154 169 163 Q 176 171 183 178 L 192 188 Q 193 188 194 189 Q 211 203 251 220 Q 259 223 259 224 Q 259 226 251 227 Q 235 228 216 226 Q 208 225 186 197" fill="#ff0000" /></svg>