<svg xmlns="http://www.w3.org/2000/svg" xmlns:xlink="http://www.w3.org/1999/xlink" width="270" height="270"><path d="M 0 0 L 270 270 M 270 0 L 0 270 M 135 0 L 135 270 M 0 135 L 270 135" stroke="#CCCCCC" /><path d="M 67 220 L 67 221 Q 67 228 63 233 Q 59 236 56 232 Q 45 218 52 196 Q 59 162 59 76 Q 59 71 53 48 Q 51 45 53 43 Q 57 42 60 43 Q 67 46 71 50 L 74 61 Q 74 62 74 62 Q 73 71 69 191 Q 69 200 68 208 L 67 218" fill="#CCCCCC"/><path d="M 195 51 Q 188 45 173 47 Q 82 61 74 61 L 71 50 Q 88 50 124 46 Q 162 41 187 31 Q 192 28 198 31 Q 215 39 221 45 Q 224 48 221 53" fill="#CCCCCC"/><path d="M 199 204 Q 202 195 202 167 Q 204 123 202 90 Q 200 55 195 51 L 221 53 Q 216 60 217 70 Q 218 157 221 205 Q 222 219 217 230 Q 212 240 207 241 Q 204 241 201 235" fill="#CCCCCC"/><path d="M 193 207 Q 198 210 199 204 L 201 235 Q 194 224 184 211" fill="#CCCCCC"/><path d="M 120 117 Q 118 117 117 117 Q 100 120 91 115 Q 84 112 93 110 Q 108 108 122 106 L 137 102 Q 161 94 168 95 Q 175 97 177 100 Q 178 102 176 104 Q 174 105 135 114" fill="#CCCCCC"/><path d="M 126 152 L 108 168 Q 91 182 83 181 Q 80 181 80 179 Q 81 177 85 174 Q 115 151 120 117 L 122 106 Q 125 78 122 70 Q 118 64 123 64 Q 127 63 139 71 Q 144 74 142 79 Q 139 86 137 102 L 135 114" fill="#CCCCCC"/><path d="M 139 138 L 139 135 Q 140 133 142 134 Q 177 148 179 160 Q 181 170 178 173 Q 176 175 174 175 Q 171 174 168 169 Q 153 152 142 141" fill="#CCCCCC"/><path d="M 68 208 Q 114 206 170 197 Q 180 195 185 199 Q 192 204 193 207 L 184 211 Q 105 212 67 218" fill="#CCCCCC"/><path d="M 67 220 L 67 221 Q 67 228 63 233 Q 59 236 56 232 Q 45 218 52 196 Q 59 162 59 76 Q 59 71 53 48 Q 51 45 53 43 Q 57 42 60 43 Q 67 46 71 50 L 74 61 Q 74 62 74 62 Q 73 71 69 191 Q 69 200 68 208 L 67 218" fill="#000000" /><path d="M 195 51 Q 188 45 173 47 Q 82 61 74 61 L 71 50 Q 88 50 124 46 Q 162 41 187 31 Q 192 28 198 31 Q 215 39 221 45 Q 224 48 221 53" fill="#330000" /><path d="M 199 204 Q 202 195 202 167 Q 204 123 202 90 Q 200 55 195 51 L 221 53 Q 216 60 217 70 Q 218 157 221 205 Q 222 219 217 230 Q 212 240 207 241 Q 204 241 201 235" fill="#330000" /><path d="M 193 207 Q 198 210 199 204 L 201 235 Q 194 224 184 211" fill="#330000" /><path d="M 120 117 Q 118 117 117 117 Q 100 120 91 115 Q 84 112 93 110 Q 108 108 122 106 L 137 102 Q 161 94 168 95 Q 175 97 177 100 Q 178 102 176 104 Q 174 105 135 114" fill="#660000" /><path d="M 126 152 L 108 168 Q 91 182 83 181 Q 80 181 80 179 Q 81 177 85 174 Q 115 151 120 117 L 122 106 Q 125 78 122 70 Q 118 64 123 64 Q 127 63 139 71 Q 144 74 142 79 Q 139 86 137 102 L 135 114" fill="#990000" /><path d="M 139 138 L 139 135 Q 140 133 142 134 Q 177 148 179 160 Q 181 170 178 173 Q 176 175 174 175 Q 171 174 168 169 Q 153 152 142 141" fill="#cc0000" /><path d="M 68 208 Q 114 206 170 197 Q 180 195 185 199 Q 192 204 193 207 L 184 211 Q 105 212 67 218" fill="#ff0000" /></svg>