<svg xmlns="http://www.w3.org/2000/svg" xmlns:xlink="http://www.w3.org/1999/xlink" width="270" height="270"><path d="M 0 0 L 270 270 M 270 0 L 0 270 M 135 0 L 135 270 M 0 135 L 270 135" stroke="#CCCCCC" /><path d="M 84 73 Q 82 73 82 73 Q 69 77 59 72 Q 52 68 61 66 Q 73 64 83 62 L 97 58 Q 107 53 115 54 Q 122 56 123 58 Q 125 61 123 62 Q 121 63 96 70" fill="#000000" /><path d="M 83 95 Q 84 84 84 73 L 83 62 Q 83 48 82 35 Q 82 30 78 24 Q 76 20 78 18 Q 79 16 83 17 Q 89 18 98 23 Q 103 27 102 29 Q 97 44 97 58 L 96 70 Q 95 81 94 93" fill="#190000" /><path d="M 97 102 Q 75 106 40 118 Q 30 121 20 115 Q 16 112 17 110 Q 18 108 21 107 Q 41 105 83 95 L 94 93 Q 123 84 132 87 Q 136 89 136 92 Q 136 94 132 95 Q 116 97 104 100" fill="#330000" /><path d="M 55 120 L 56 118 Q 58 116 59 117 Q 72 121 75 128 Q 76 133 75 136 Q 72 140 69 139 Q 63 138 57 123" fill="#4c0000" /><path d="M 89 144 Q 89 142 90 140 Q 100 112 98 104 Q 97 102 97 102 L 104 100 Q 105 100 106 101 Q 113 105 115 109 Q 117 112 114 115 Q 110 120 108 124 Q 103 132 99 140" fill="#660000" /><path d="M 78 157 Q 57 162 49 158 Q 44 155 51 153 Q 66 151 89 144 L 99 140 Q 104 138 109 139 Q 115 140 117 142 Q 118 144 116 146 Q 115 147 107 150 Q 98 152 89 154" fill="#7f0000" /><path d="M 77 185 L 77 185 Q 62 189 40 197 Q 30 200 20 194 Q 16 191 17 189 Q 18 186 21 186 Q 41 184 79 175 L 92 172 Q 114 165 122 168 Q 127 170 126 173 Q 126 175 122 176 Q 106 179 92 182 L 79 185" fill="#990000" /><path d="M 79 175 Q 79 162 78 157 L 89 154 Q 91 155 92 156 Q 94 158 93 161 Q 92 164 92 172 L 92 182 Q 92 183 92 185 Q 92 208 92 234 Q 92 242 89 250 Q 88 253 85 252 Q 83 252 81 247 Q 73 235 75 225 Q 78 219 79 191 Q 79 187 79 185" fill="#b20000" /><path d="M 150 139 Q 151 135 157 103 L 158 93 Q 159 82 160 71 Q 160 65 160 61 Q 161 46 155 37 Q 153 33 156 31 Q 160 30 165 33 Q 173 37 178 41 Q 180 44 177 48 Q 173 64 173 88 L 171 98 Q 166 129 161 146 L 156 159 Q 154 166 151 173 Q 146 183 141 192 Q 120 223 112 225 Q 109 225 110 222 Q 110 221 112 219 Q 119 208 125 197 Q 137 178 145 155 Q 146 152 147 149" fill="#cc0000" /><path d="M 157 103 Q 145 106 137 101 Q 133 98 140 97 Q 147 96 158 93 L 173 88 Q 190 81 198 76 Q 202 72 207 75 Q 222 81 223 85 L 195 91 Q 193 90 171 98" fill="#e50000" /><path d="M 223 85 Q 224 88 217 93 Q 211 100 208 114 Q 200 144 202 165 Q 202 194 225 209 L 225 226 Q 213 220 200 202 Q 182 178 196 96 Q 196 92 195 91" fill="#e50000" /><path d="M 225 209 Q 232 213 234 211 L 250 216 L 252 227 Q 253 233 248 233 Q 238 233 225 226" fill="#e50000" /><path d="M 234 211 Q 238 209 244 189 Q 246 186 247 186 Q 248 186 248 190 Q 248 209 250 216" fill="#e50000" /><path d="M 140 142 L 133 136 Q 131 133 132 131 Q 132 129 134 130 Q 140 133 150 139 L 161 146 Q 177 158 178 166 Q 180 174 178 177 Q 176 178 175 178 Q 172 177 156 159 L 147 149" fill="#ff0000" /></svg>