<svg xmlns="http://www.w3.org/2000/svg" xmlns:xlink="http://www.w3.org/1999/xlink" width="270" height="270"><path d="M 0 0 L 270 270 M 270 0 L 0 270 M 135 0 L 135 270 M 0 135 L 270 135" stroke="#CCCCCC" /><path d="M 72 49 Q 71 49 71 49 Q 54 52 50 51 L 46 43 Q 60 41 72 38 Q 82 35 92 31 Q 99 27 106 28 Q 113 30 115 32 Q 116 34 114 36 Q 113 38 104 40 Q 93 43 82 46" fill="#000000" /><path d="M 72 76 L 72 49 L 82 46 Q 84 48 85 50 Q 87 52 85 55 Q 85 56 82 73" fill="#190000" /><path d="M 92 81 Q 91 80 87 81 Q 49 89 47 89 L 47 82 Q 58 79 69 77 Q 70 76 72 76 L 82 73 Q 93 67 98 70 Q 109 75 112 79 Q 115 82 112 86" fill="#330000" /><path d="M 87 101 Q 94 84 92 81 L 112 86 Q 105 89 99 102" fill="#330000" /><path d="M 45 112 Q 63 108 86 101 Q 86 101 87 101 L 99 102 Q 105 105 105 107 Q 105 109 102 110 Q 90 111 82 113 L 71 115 Q 64 116 59 118 Q 48 120 45 119" fill="#4c0000" /><path d="M 82 113 Q 86 118 84 122 Q 83 123 81 136 L 71 139 Q 72 119 72 116 Q 72 115 71 115" fill="#660000" /><path d="M 37 163 Q 33 166 31 164 Q 28 162 26 157 Q 25 152 26 149 Q 30 143 31 138 Q 41 60 33 43 Q 31 40 33 38 Q 35 37 39 39 Q 44 41 46 43 L 50 51 Q 48 59 47 82 L 47 89 Q 45 100 45 112 L 45 119 Q 44 130 43 141 Q 43 144 44 145" fill="#7f0000" /><path d="M 96 132 L 100 134 Q 107 138 107 141 Q 107 144 102 144 Q 52 149 37 163 L 44 145 Q 45 145 47 145 Q 66 139 71 139 L 81 136" fill="#7f0000" /><path d="M 168 55 Q 165 55 150 61 Q 137 66 127 63 Q 122 61 123 59 Q 124 57 128 57 Q 145 54 155 50 Q 165 47 172 43 Q 179 39 185 41 Q 194 44 198 46 Q 201 50 197 54" fill="#990000" /><path d="M 144 132 L 127 133 Q 118 134 117 133 Q 113 131 117 129 Q 140 121 153 107 L 160 99 Q 161 97 163 94 Q 170 81 173 62 Q 174 55 168 55 L 197 54 Q 191 59 189 67 Q 180 94 170 107 L 161 116" fill="#990000" /><path d="M 153 107 Q 134 85 124 79 Q 120 77 121 75 Q 122 74 126 74 Q 134 74 143 83 Q 151 92 160 99 L 170 107 Q 170 107 170 108 Q 189 122 220 131 Q 243 137 243 139 Q 244 142 235 143 Q 219 145 199 146 Q 188 146 161 116" fill="#b20000" /><path d="M 113 195 Q 109 195 106 196 Q 88 199 76 193 Q 70 188 79 187 Q 97 185 112 183 L 128 179 Q 154 171 160 173 Q 168 175 170 178 Q 171 181 169 182 Q 167 184 127 192" fill="#cc0000" /><path d="M 113 207 L 113 195 L 112 183 Q 112 182 112 182 Q 111 159 108 155 Q 107 152 108 150 Q 111 148 115 149 Q 122 150 130 157 Q 133 160 130 165 Q 129 168 128 179 L 127 192 Q 126 205 125 220 L 114 221" fill="#e50000" /><path d="M 125 220 Q 164 215 189 210 Q 202 207 218 220 Q 222 223 220 227 Q 219 229 213 229 Q 207 229 201 229 Q 103 229 54 241 Q 49 242 43 240 Q 38 238 34 234 Q 30 229 36 229 Q 78 224 114 221" fill="#ff0000" /></svg>