<svg xmlns="http://www.w3.org/2000/svg" xmlns:xlink="http://www.w3.org/1999/xlink" width="270" height="270"><path d="M 0 0 L 270 270 M 270 0 L 0 270 M 135 0 L 135 270 M 0 135 L 270 135" stroke="#CCCCCC" /><path d="M 63 126 Q 61 126 60 126 Q 45 131 32 126 Q 24 122 34 119 Q 36 118 63 112 L 76 107 Q 81 106 86 106 Q 94 108 97 111 Q 98 113 96 116 Q 95 117 88 119 Q 81 120 75 123" fill="#000000" /><path d="M 62 147 L 63 126 L 63 112 Q 63 89 62 68 Q 62 61 55 51 Q 53 47 55 45 Q 58 43 62 44 Q 68 45 78 50 Q 83 54 82 57 Q 76 79 76 107 L 75 123 Q 74 143 73 165 L 61 170" fill="#190000" /><path d="M 73 165 Q 86 159 98 154 Q 101 153 102 154 Q 102 157 99 159 Q 95 163 89 166 Q 46 193 42 198 Q 39 201 36 200 Q 26 196 20 192 Q 17 190 18 187 Q 18 184 21 183 Q 29 183 33 181 Q 47 175 61 170" fill="#330000" /><path d="M 145 90 Q 144 90 144 90 Q 132 94 119 89 Q 113 85 121 83 Q 132 82 141 79 Q 143 78 145 78 L 158 74 Q 164 71 171 72 Q 179 74 181 76 Q 182 79 180 80 Q 179 81 157 87" fill="#4c0000" /><path d="M 145 123 Q 145 106 145 90 L 145 78 Q 144 60 143 44 Q 143 39 137 31 Q 135 27 137 25 Q 139 23 143 24 Q 150 25 159 30 Q 163 34 163 36 Q 158 56 158 74 L 157 87 Q 156 104 155 121" fill="#660000" /><path d="M 158 130 Q 136 133 117 140 Q 113 141 108 140 Q 103 139 100 136 Q 95 132 101 131 Q 123 126 145 123 L 155 121 Q 160 120 166 119 L 182 116 Q 203 110 218 107 Q 234 102 248 111 Q 252 115 251 118 Q 250 120 245 120 Q 187 124 174 127" fill="#7f0000" /><path d="M 131 177 Q 115 193 100 206 Q 67 231 59 231 Q 57 232 57 230 Q 58 228 59 227 Q 99 195 129 163 L 135 157 Q 148 142 158 130 L 166 119 Q 170 112 172 111 Q 177 103 196 66 Q 199 56 197 45 Q 196 39 201 39 Q 210 40 218 56 Q 220 60 218 63 Q 210 72 198 92 Q 191 103 182 116 L 174 127 Q 163 141 149 157" fill="#990000" /><path d="M 140 233 L 137 236 Q 135 238 133 236 Q 126 227 129 217 Q 132 203 131 177 L 129 163 Q 128 162 128 160 Q 126 158 127 157 Q 128 155 130 155 Q 133 156 135 157 L 143 166 Q 143 171 143 188 L 142 196 Q 142 215 142 217 L 141 226" fill="#b20000" /><path d="M 189 159 Q 187 157 182 158 Q 148 166 143 166 L 135 157 L 149 157 Q 178 149 184 146 Q 188 144 193 146 Q 206 152 210 157" fill="#cc0000" /><path d="M 190 216 Q 191 213 191 202 Q 194 163 189 159 L 210 157 Q 212 159 210 162 Q 206 168 206 175 Q 207 202 208 217 Q 208 228 204 238 Q 200 246 196 246 Q 193 246 191 242" fill="#cc0000" /><path d="M 187 219 Q 189 218 190 216 L 191 242 Q 186 232 179 223" fill="#cc0000" /><path d="M 143 188 Q 159 181 169 182 Q 176 184 179 188 Q 181 191 175 192 Q 162 194 145 196 Q 143 196 142 196" fill="#e50000" /><path d="M 142 217 Q 154 215 168 212 Q 176 210 180 213 Q 186 217 187 219 L 179 223 Q 156 224 145 226 Q 142 226 141 226" fill="#ff0000" /></svg>