<svg xmlns="http://www.w3.org/2000/svg" xmlns:xlink="http://www.w3.org/1999/xlink" width="270" height="270"><path d="M 0 0 L 270 270 M 270 0 L 0 270 M 135 0 L 135 270 M 0 135 L 270 135" stroke="#CCCCCC" /><path d="M 63 111 Q 59 112 56 113 Q 43 117 32 112 Q 25 108 34 106 Q 49 103 63 99 L 75 94 Q 82 91 89 92 Q 97 93 99 96 Q 100 98 98 100 Q 96 101 89 103 Q 81 105 75 108" fill="#CCCCCC"/><path d="M 63 132 L 63 111 L 63 99 Q 62 79 61 60 Q 61 54 55 44 Q 53 40 54 39 Q 56 36 61 37 Q 67 38 76 43 Q 82 47 81 50 Q 76 73 75 94 L 75 108 Q 74 129 73 152 L 62 156" fill="#CCCCCC"/><path d="M 73 152 Q 83 146 93 142 Q 96 141 98 142 Q 98 145 95 147 Q 66 167 38 187 Q 35 189 33 189 Q 23 185 17 182 Q 14 180 14 176 Q 14 173 18 173 Q 25 172 29 170 Q 46 163 62 156" fill="#CCCCCC"/><path d="M 149 24 L 148 21 Q 147 18 148 17 Q 150 17 154 17 Q 176 20 179 28 Q 182 35 181 39 Q 180 42 177 42 Q 173 43 170 40 Q 162 34 156 29" fill="#CCCCCC"/><path d="M 135 61 L 171 55 Q 202 46 208 47 Q 215 49 216 52 Q 218 54 215 56 Q 214 58 171 66 Q 135 72 129 71 Q 128 71 128 71 L 124 62" fill="#CCCCCC"/><path d="M 128 71 Q 126 73 123 100 Q 117 151 99 187 Q 94 198 88 207 Q 68 232 62 234 Q 59 234 60 232 Q 61 230 62 229 Q 84 195 94 170 Q 105 140 111 83 Q 112 68 107 61 Q 105 58 108 56 Q 113 54 124 62" fill="#CCCCCC"/><path d="M 155 114 L 150 115 Q 142 118 136 115 Q 131 113 130 111 Q 130 109 134 109 Q 147 107 160 105 L 173 101 Q 184 98 196 93 Q 201 92 206 93 Q 219 99 223 103 L 198 107 Q 196 104 172 110 L 160 113" fill="#CCCCCC"/><path d="M 198 125 Q 200 121 201 117 Q 202 110 198 107 L 223 103 Q 227 107 222 112 Q 218 115 214 122 L 209 132 Q 206 140 203 153 L 191 152 Q 194 143 196 134" fill="#CCCCCC"/><path d="M 160 140 Q 148 142 138 146 Q 135 147 131 146 Q 127 145 124 142 Q 121 139 125 138 Q 143 135 160 132 L 171 130 Q 180 128 198 125 L 214 122 Q 219 120 224 120 Q 239 114 252 123 Q 255 125 254 128 Q 252 130 239 130 Q 223 131 209 132 L 196 134 Q 180 135 170 138" fill="#CCCCCC"/><path d="M 168 157 Q 179 154 190 152 Q 190 152 191 152 L 203 153 Q 210 157 210 160 Q 209 162 207 162 Q 184 164 168 167 L 158 168 Q 145 170 137 172 Q 134 172 131 172 Q 128 171 127 169 Q 123 164 129 164 Q 142 162 159 159" fill="#CCCCCC"/><path d="M 169 147 L 168 157 L 168 167 Q 165 181 163 184 Q 160 185 159 182 Q 156 174 158 168 L 159 159 Q 159 151 160 142 Q 160 141 160 140 L 160 132 Q 160 122 160 113 L 160 105 Q 160 92 155 83 Q 152 79 155 77 Q 160 75 165 78 Q 171 81 175 84 Q 177 87 175 91 Q 174 95 173 101 L 172 110 Q 172 112 172 115 Q 171 122 171 130 L 170 138" fill="#CCCCCC"/><path d="M 142 245 L 141 248 Q 140 252 135 247 Q 131 242 130 235 Q 126 212 119 197 Q 117 193 119 192 Q 119 190 122 191 Q 123 191 124 192 L 137 201 Q 137 208 141 230 L 142 239" fill="#CCCCCC"/><path d="M 195 194 Q 193 192 187 193 Q 140 200 137 201 L 124 192 Q 145 196 187 183 Q 202 176 220 192" fill="#CCCCCC"/><path d="M 191 222 Q 198 198 195 194 L 220 192 Q 224 197 219 201 Q 211 207 203 226" fill="#CCCCCC"/><path d="M 141 230 Q 161 227 186 222 Q 189 222 191 222 L 203 226 Q 207 230 207 231 Q 207 234 204 234 Q 164 236 146 239 Q 143 239 142 239" fill="#CCCCCC"/><path d="M 63 111 Q 59 112 56 113 Q 43 117 32 112 Q 25 108 34 106 Q 49 103 63 99 L 75 94 Q 82 91 89 92 Q 97 93 99 96 Q 100 98 98 100 Q 96 101 89 103 Q 81 105 75 108" fill="#000000" /><path d="M 63 132 L 63 111 L 63 99 Q 62 79 61 60 Q 61 54 55 44 Q 53 40 54 39 Q 56 36 61 37 Q 67 38 76 43 Q 82 47 81 50 Q 76 73 75 94 L 75 108 Q 74 129 73 152 L 62 156" fill="#150000" /><path d="M 73 152 Q 83 146 93 142 Q 96 141 98 142 Q 98 145 95 147 Q 66 167 38 187 Q 35 189 33 189 Q 23 185 17 182 Q 14 180 14 176 Q 14 173 18 173 Q 25 172 29 170 Q 46 163 62 156" fill="#2a0000" /><path d="M 149 24 L 148 21 Q 147 18 148 17 Q 150 17 154 17 Q 176 20 179 28 Q 182 35 181 39 Q 180 42 177 42 Q 173 43 170 40 Q 162 34 156 29" fill="#3f0000" /><path d="M 135 61 L 171 55 Q 202 46 208 47 Q 215 49 216 52 Q 218 54 215 56 Q 214 58 171 66 Q 135 72 129 71 Q 128 71 128 71 L 124 62" fill="#550000" /><path d="M 128 71 Q 126 73 123 100 Q 117 151 99 187 Q 94 198 88 207 Q 68 232 62 234 Q 59 234 60 232 Q 61 230 62 229 Q 84 195 94 170 Q 105 140 111 83 Q 112 68 107 61 Q 105 58 108 56 Q 113 54 124 62" fill="#6a0000" /><path d="M 155 114 L 150 115 Q 142 118 136 115 Q 131 113 130 111 Q 130 109 134 109 Q 147 107 160 105 L 173 101 Q 184 98 196 93 Q 201 92 206 93 Q 219 99 223 103 L 198 107 Q 196 104 172 110 L 160 113" fill="#7f0000" /><path d="M 198 125 Q 200 121 201 117 Q 202 110 198 107 L 223 103 Q 227 107 222 112 Q 218 115 214 122 L 209 132 Q 206 140 203 153 L 191 152 Q 194 143 196 134" fill="#7f0000" /><path d="M 160 140 Q 148 142 138 146 Q 135 147 131 146 Q 127 145 124 142 Q 121 139 125 138 Q 143 135 160 132 L 171 130 Q 180 128 198 125 L 214 122 Q 219 120 224 120 Q 239 114 252 123 Q 255 125 254 128 Q 252 130 239 130 Q 223 131 209 132 L 196 134 Q 180 135 170 138" fill="#940000" /><path d="M 168 157 Q 179 154 190 152 Q 190 152 191 152 L 203 153 Q 210 157 210 160 Q 209 162 207 162 Q 184 164 168 167 L 158 168 Q 145 170 137 172 Q 134 172 131 172 Q 128 171 127 169 Q 123 164 129 164 Q 142 162 159 159" fill="#aa0000" /><path d="M 169 147 L 168 157 L 168 167 Q 165 181 163 184 Q 160 185 159 182 Q 156 174 158 168 L 159 159 Q 159 151 160 142 Q 160 141 160 140 L 160 132 Q 160 122 160 113 L 160 105 Q 160 92 155 83 Q 152 79 155 77 Q 160 75 165 78 Q 171 81 175 84 Q 177 87 175 91 Q 174 95 173 101 L 172 110 Q 172 112 172 115 Q 171 122 171 130 L 170 138" fill="#bf0000" /><path d="M 142 245 L 141 248 Q 140 252 135 247 Q 131 242 130 235 Q 126 212 119 197 Q 117 193 119 192 Q 119 190 122 191 Q 123 191 124 192 L 137 201 Q 137 208 141 230 L 142 239" fill="#d40000" /><path d="M 195 194 Q 193 192 187 193 Q 140 200 137 201 L 124 192 Q 145 196 187 183 Q 202 176 220 192" fill="#e90000" /><path d="M 191 222 Q 198 198 195 194 L 220 192 Q 224 197 219 201 Q 211 207 203 226" fill="#e90000" /><path d="M 141 230 Q 161 227 186 222 Q 189 222 191 222 L 203 226 Q 207 230 207 231 Q 207 234 204 234 Q 164 236 146 239 Q 143 239 142 239" fill="#ff0000" /></svg>