<svg xmlns="http://www.w3.org/2000/svg" xmlns:xlink="http://www.w3.org/1999/xlink" width="270" height="270"><path d="M 0 0 L 270 270 M 270 0 L 0 270 M 135 0 L 135 270 M 0 135 L 270 135" stroke="#CCCCCC" /><path d="M 112 65 L 111 65 Q 94 68 84 61 Q 77 56 87 55 Q 104 54 119 52 L 135 49 Q 149 45 162 41 Q 170 38 178 40 Q 186 42 188 45 Q 189 48 186 50 Q 185 51 131 61 L 115 64" fill="#000000" /><path d="M 119 52 Q 125 31 120 15 Q 119 11 122 10 Q 124 8 131 10 Q 139 13 142 15 Q 144 18 142 21 Q 140 27 139 32 Q 137 41 135 49 L 131 61 Q 130 63 130 65 Q 120 89 94 106 Q 92 108 90 108 Q 88 108 89 105 Q 107 82 115 64" fill="#240000" /><path d="M 141 72 L 141 69 Q 141 66 143 67 Q 148 68 157 70 Q 172 74 174 82 Q 178 91 176 95 Q 174 97 172 97 Q 169 96 165 92 Q 153 81 144 74" fill="#480000" /><path d="M 101 122 L 46 137 Q 35 139 26 131 Q 21 125 28 125 Q 160 109 216 98 Q 227 95 243 107 Q 248 111 246 114 Q 244 117 222 117 Q 194 117 172 118 L 157 119" fill="#6d0000" /><path d="M 89 196 L 87 200 Q 86 204 81 198 Q 77 194 76 187 Q 73 164 66 150 Q 64 146 66 144 Q 66 143 70 144 Q 78 145 82 147 L 84 154 Q 84 160 86 179 L 88 188" fill="#910000" /><path d="M 119 149 Q 117 146 110 148 Q 90 152 84 154 L 82 147 Q 107 142 117 136 Q 122 134 126 136 Q 133 141 137 143 Q 143 147 137 153" fill="#b60000" /><path d="M 115 172 Q 117 165 118 158 Q 120 150 119 149 L 137 153 Q 132 158 127 173" fill="#b60000" /><path d="M 86 179 Q 98 177 114 173 Q 115 172 115 172 L 127 173 Q 134 177 134 180 Q 134 182 131 182 Q 105 185 93 187 Q 90 188 88 188" fill="#da0000" /><path d="M 172 118 Q 178 122 181 125 Q 182 128 180 136 Q 179 159 181 216 Q 183 238 170 256 Q 166 261 163 258 L 162 219 Q 161 130 159 123 Q 157 121 157 119" fill="#ff0000" /><path d="M 163 258 Q 151 247 132 232 Q 129 230 129 227 Q 129 225 132 226 Q 140 227 146 228 Q 155 231 158 229 Q 161 225 162 219" fill="#ff0000" /></svg>