<svg xmlns="http://www.w3.org/2000/svg" xmlns:xlink="http://www.w3.org/1999/xlink" width="270" height="270"><path d="M 0 0 L 270 270 M 270 0 L 0 270 M 135 0 L 135 270 M 0 135 L 270 135" stroke="#CCCCCC" /><path d="M 107 58 Q 103 58 100 59 Q 81 62 71 56 Q 64 51 73 50 Q 92 49 108 46 L 123 43 Q 143 39 161 33 Q 169 30 177 32 Q 185 35 187 38 Q 188 40 185 42 Q 183 44 166 48 Q 143 51 121 56" fill="#CCCCCC"/><path d="M 101 88 Q 100 88 100 88 Q 87 91 76 85 Q 70 81 79 80 Q 92 78 103 77 L 117 74 Q 124 72 128 71 Q 160 61 167 62 Q 173 64 175 66 Q 176 69 174 70 Q 172 72 158 76 Q 136 80 114 85" fill="#CCCCCC"/><path d="M 119 108 L 106 111 L 91 114 Q 76 116 62 121 Q 51 124 41 117 Q 37 112 42 112 Q 70 107 95 103 L 110 101 Q 114 99 118 99 Q 156 92 179 86 Q 189 83 203 93 Q 208 97 207 100 Q 205 103 188 103 Q 166 104 149 105 L 141 106" fill="#CCCCCC"/><path d="M 106 111 Q 91 149 66 169 Q 50 183 29 192 Q 19 196 15 196 Q 12 195 15 192 Q 20 189 24 186 Q 70 159 91 114 L 95 103 Q 98 95 101 88 L 103 77 Q 106 67 107 58 L 108 46 Q 110 27 105 17 Q 103 13 107 12 Q 113 10 119 14 Q 123 16 128 20 Q 132 23 130 28 Q 125 35 123 43 L 121 56 Q 119 64 117 74 L 114 85 Q 112 93 110 101" fill="#CCCCCC"/><path d="M 149 105 Q 176 130 199 146 Q 214 156 253 168 Q 257 170 257 171 Q 257 173 254 174 Q 212 183 202 175 Q 168 142 142 107 Q 141 106 141 106" fill="#CCCCCC"/><path d="M 114 162 Q 100 164 92 159 Q 86 155 94 153 Q 105 152 113 151 L 129 147 Q 143 142 150 144 Q 157 146 159 149 Q 159 151 157 152 Q 156 154 129 159" fill="#CCCCCC"/><path d="M 95 193 L 78 198 Q 74 199 69 198 Q 64 197 61 194 Q 57 190 62 189 Q 90 184 114 181 L 128 179 Q 144 175 156 173 Q 172 168 187 178 Q 191 182 190 185 Q 189 187 184 187 Q 149 187 128 190 L 114 191" fill="#CCCCCC"/><path d="M 114 181 Q 114 171 114 162 L 113 151 Q 113 151 113 151 Q 112 135 108 128 Q 106 126 108 123 Q 112 121 116 122 Q 120 123 128 129 Q 131 131 129 143 Q 129 145 129 147 L 129 159 Q 128 170 128 179 L 128 190 Q 128 234 127 241 Q 126 256 122 258 Q 120 259 119 257 Q 114 252 114 213 Q 114 201 114 191" fill="#CCCCCC"/><path d="M 107 58 Q 103 58 100 59 Q 81 62 71 56 Q 64 51 73 50 Q 92 49 108 46 L 123 43 Q 143 39 161 33 Q 169 30 177 32 Q 185 35 187 38 Q 188 40 185 42 Q 183 44 166 48 Q 143 51 121 56" fill="#000000" /><path d="M 101 88 Q 100 88 100 88 Q 87 91 76 85 Q 70 81 79 80 Q 92 78 103 77 L 117 74 Q 124 72 128 71 Q 160 61 167 62 Q 173 64 175 66 Q 176 69 174 70 Q 172 72 158 76 Q 136 80 114 85" fill="#240000" /><path d="M 119 108 L 106 111 L 91 114 Q 76 116 62 121 Q 51 124 41 117 Q 37 112 42 112 Q 70 107 95 103 L 110 101 Q 114 99 118 99 Q 156 92 179 86 Q 189 83 203 93 Q 208 97 207 100 Q 205 103 188 103 Q 166 104 149 105 L 141 106" fill="#480000" /><path d="M 106 111 Q 91 149 66 169 Q 50 183 29 192 Q 19 196 15 196 Q 12 195 15 192 Q 20 189 24 186 Q 70 159 91 114 L 95 103 Q 98 95 101 88 L 103 77 Q 106 67 107 58 L 108 46 Q 110 27 105 17 Q 103 13 107 12 Q 113 10 119 14 Q 123 16 128 20 Q 132 23 130 28 Q 125 35 123 43 L 121 56 Q 119 64 117 74 L 114 85 Q 112 93 110 101" fill="#6d0000" /><path d="M 149 105 Q 176 130 199 146 Q 214 156 253 168 Q 257 170 257 171 Q 257 173 254 174 Q 212 183 202 175 Q 168 142 142 107 Q 141 106 141 106" fill="#910000" /><path d="M 114 162 Q 100 164 92 159 Q 86 155 94 153 Q 105 152 113 151 L 129 147 Q 143 142 150 144 Q 157 146 159 149 Q 159 151 157 152 Q 156 154 129 159" fill="#b60000" /><path d="M 95 193 L 78 198 Q 74 199 69 198 Q 64 197 61 194 Q 57 190 62 189 Q 90 184 114 181 L 128 179 Q 144 175 156 173 Q 172 168 187 178 Q 191 182 190 185 Q 189 187 184 187 Q 149 187 128 190 L 114 191" fill="#da0000" /><path d="M 114 181 Q 114 171 114 162 L 113 151 Q 113 151 113 151 Q 112 135 108 128 Q 106 126 108 123 Q 112 121 116 122 Q 120 123 128 129 Q 131 131 129 143 Q 129 145 129 147 L 129 159 Q 128 170 128 179 L 128 190 Q 128 234 127 241 Q 126 256 122 258 Q 120 259 119 257 Q 114 252 114 213 Q 114 201 114 191" fill="#ff0000" /></svg>