<svg xmlns="http://www.w3.org/2000/svg" xmlns:xlink="http://www.w3.org/1999/xlink" width="270" height="270"><path d="M 0 0 L 270 270 M 270 0 L 0 270 M 135 0 L 135 270 M 0 135 L 270 135" stroke="#CCCCCC" /><path d="M 56 160 Q 51 155 54 150 Q 58 142 64 123 L 66 112 Q 81 48 73 36 Q 70 32 73 30 Q 78 28 83 31 Q 95 38 99 43 Q 100 46 97 52 Q 92 59 89 71 Q 84 91 78 110 L 75 120 Q 70 135 65 150" fill="#000000" /><path d="M 68 167 L 56 160 L 65 150 Q 65 155 70 158 Q 78 163 85 167 L 96 173 Q 117 184 119 194 Q 120 202 118 204 Q 116 207 114 207 Q 113 207 89 184 L 79 176" fill="#000000" /><path d="M 85 167 Q 99 141 101 120 Q 102 116 102 113 L 102 106 Q 102 100 100 95 Q 99 91 102 90 Q 110 88 121 98 Q 125 101 122 105 Q 116 115 115 126 Q 104 159 96 173 L 89 184 Q 88 185 88 185 Q 57 216 36 214 Q 33 213 36 211 Q 68 191 79 176" fill="#330000" /><path d="M 64 123 Q 46 126 32 133 Q 29 135 27 134 Q 19 128 15 123 Q 12 121 14 118 Q 14 116 18 116 Q 26 117 32 116 Q 50 113 66 112 L 78 110 Q 91 108 102 106 L 102 113 Q 88 117 75 120" fill="#660000" /><path d="M 195 66 Q 196 62 193 61 Q 187 57 154 74 Q 143 81 135 76 Q 129 73 127 69 Q 124 64 131 64 Q 146 64 153 62 Q 177 54 193 47 Q 200 45 205 48 Q 224 58 225 63 Q 227 68 221 69" fill="#990000" /><path d="M 173 95 Q 185 79 195 66 L 221 69 Q 210 72 177 98" fill="#990000" /><path d="M 203 212 L 180 234 Q 173 241 169 241 L 173 211 Q 185 183 177 137 L 175 127 Q 174 123 173 119 Q 171 106 162 99 Q 158 95 162 93 Q 165 92 170 94 Q 171 95 173 95 L 177 98 Q 186 104 190 125 L 192 136" fill="#cc0000" /><path d="M 169 241 Q 165 241 162 237 Q 159 230 148 221 Q 144 218 143 216 Q 141 213 144 213 Q 151 215 159 216 Q 169 218 173 211" fill="#cc0000" /><path d="M 177 137 Q 177 137 177 137 Q 155 140 135 145 Q 131 146 126 145 Q 121 144 118 140 Q 114 136 119 136 Q 149 131 175 127 L 190 125 Q 210 122 223 119 Q 237 114 252 125 Q 257 129 255 131 Q 254 134 249 134 Q 213 133 192 136" fill="#ff0000" /></svg>