<svg xmlns="http://www.w3.org/2000/svg" xmlns:xlink="http://www.w3.org/1999/xlink" width="270" height="270"><path d="M 0 0 L 270 270 M 270 0 L 0 270 M 135 0 L 135 270 M 0 135 L 270 135" stroke="#CCCCCC" /><path d="M 63 153 Q 58 149 60 143 Q 65 134 68 124 L 70 113 Q 85 43 75 29 Q 73 25 76 24 Q 80 21 86 24 Q 98 31 102 36 Q 103 39 100 45 Q 96 51 93 64 Q 88 88 82 111 L 79 121 Q 75 132 72 143" fill="#CCCCCC"/><path d="M 76 161 L 63 153 L 72 143 Q 71 148 76 151 Q 85 156 92 160 L 103 166 Q 118 175 119 184 Q 120 192 118 194 Q 117 197 114 197 Q 112 196 95 179 L 86 171" fill="#CCCCCC"/><path d="M 92 160 Q 93 158 93 157 Q 101 138 103 122 Q 104 118 104 113 L 105 106 Q 104 101 103 97 Q 102 93 105 92 Q 112 91 123 101 Q 127 103 125 108 Q 119 116 113 141 Q 110 155 103 166 L 95 179 Q 95 180 95 180 Q 88 191 75 200 Q 52 218 36 216 Q 33 216 37 213 Q 69 195 86 171" fill="#CCCCCC"/><path d="M 68 124 Q 47 129 31 137 Q 28 139 25 138 Q 18 133 13 128 Q 11 126 12 122 Q 12 120 16 120 Q 25 121 31 120 Q 52 116 70 113 L 82 111 Q 93 108 105 106 L 104 113 Q 96 115 79 121" fill="#CCCCCC"/><path d="M 172 32 L 166 24 Q 163 22 165 20 Q 167 18 171 18 Q 180 19 189 25 Q 193 28 192 33 Q 186 49 187 110 Q 187 139 184 143 Q 180 150 177 152 Q 174 153 171 150 L 170 127 Q 172 125 172 121 Q 175 69 173 43" fill="#CCCCCC"/><path d="M 171 150 Q 166 143 154 133 Q 149 129 149 127 Q 148 124 151 125 Q 169 127 170 127" fill="#CCCCCC"/><path d="M 142 83 L 144 83 Q 145 83 146 85 Q 149 90 148 98 Q 149 118 137 128 Q 132 132 130 127 Q 125 119 130 112 Q 137 99 141 85" fill="#CCCCCC"/><path d="M 205 81 L 205 78 Q 205 74 207 75 Q 246 80 253 93 Q 258 103 256 108 Q 254 111 252 111 Q 248 110 243 106 Q 224 92 209 83" fill="#CCCCCC"/><path d="M 202 112 L 206 111 Q 209 111 215 115 Q 224 121 226 125 Q 227 128 224 130 Q 218 139 213 148 Q 185 206 149 228 Q 129 243 105 250 Q 102 251 100 251 Q 98 249 100 247 Q 135 225 149 211 Q 150 210 151 210 Q 202 163 202 117" fill="#CCCCCC"/><path d="M 63 153 Q 58 149 60 143 Q 65 134 68 124 L 70 113 Q 85 43 75 29 Q 73 25 76 24 Q 80 21 86 24 Q 98 31 102 36 Q 103 39 100 45 Q 96 51 93 64 Q 88 88 82 111 L 79 121 Q 75 132 72 143" fill="#000000" /><path d="M 76 161 L 63 153 L 72 143 Q 71 148 76 151 Q 85 156 92 160 L 103 166 Q 118 175 119 184 Q 120 192 118 194 Q 117 197 114 197 Q 112 196 95 179 L 86 171" fill="#000000" /><path d="M 92 160 Q 93 158 93 157 Q 101 138 103 122 Q 104 118 104 113 L 105 106 Q 104 101 103 97 Q 102 93 105 92 Q 112 91 123 101 Q 127 103 125 108 Q 119 116 113 141 Q 110 155 103 166 L 95 179 Q 95 180 95 180 Q 88 191 75 200 Q 52 218 36 216 Q 33 216 37 213 Q 69 195 86 171" fill="#2a0000" /><path d="M 68 124 Q 47 129 31 137 Q 28 139 25 138 Q 18 133 13 128 Q 11 126 12 122 Q 12 120 16 120 Q 25 121 31 120 Q 52 116 70 113 L 82 111 Q 93 108 105 106 L 104 113 Q 96 115 79 121" fill="#550000" /><path d="M 172 32 L 166 24 Q 163 22 165 20 Q 167 18 171 18 Q 180 19 189 25 Q 193 28 192 33 Q 186 49 187 110 Q 187 139 184 143 Q 180 150 177 152 Q 174 153 171 150 L 170 127 Q 172 125 172 121 Q 175 69 173 43" fill="#7f0000" /><path d="M 171 150 Q 166 143 154 133 Q 149 129 149 127 Q 148 124 151 125 Q 169 127 170 127" fill="#7f0000" /><path d="M 142 83 L 144 83 Q 145 83 146 85 Q 149 90 148 98 Q 149 118 137 128 Q 132 132 130 127 Q 125 119 130 112 Q 137 99 141 85" fill="#aa0000" /><path d="M 205 81 L 205 78 Q 205 74 207 75 Q 246 80 253 93 Q 258 103 256 108 Q 254 111 252 111 Q 248 110 243 106 Q 224 92 209 83" fill="#d40000" /><path d="M 202 112 L 206 111 Q 209 111 215 115 Q 224 121 226 125 Q 227 128 224 130 Q 218 139 213 148 Q 185 206 149 228 Q 129 243 105 250 Q 102 251 100 251 Q 98 249 100 247 Q 135 225 149 211 Q 150 210 151 210 Q 202 163 202 117" fill="#ff0000" /></svg>