<svg xmlns="http://www.w3.org/2000/svg" xmlns:xlink="http://www.w3.org/1999/xlink" width="270" height="270"><path d="M 0 0 L 270 270 M 270 0 L 0 270 M 135 0 L 135 270 M 0 135 L 270 135" stroke="#CCCCCC" /><path d="M 62 124 Q 60 126 57 124 Q 52 122 50 119 Q 48 115 52 111 Q 57 105 59 92 Q 61 78 55 64 Q 53 59 55 58 Q 58 58 60 59 Q 66 62 70 66 Q 72 70 71 75 Q 70 89 69 102" fill="#000000" /><path d="M 97 109 Q 95 109 94 110 Q 93 110 92 110 Q 69 114 62 124 L 69 102 Q 68 107 72 106 Q 82 102 97 100" fill="#000000" /><path d="M 96 139 Q 96 123 97 109 L 97 100 Q 96 83 96 68 Q 96 57 89 45 Q 88 41 89 40 Q 94 37 99 41 Q 113 49 115 52 Q 115 55 113 59 Q 108 76 107 190 Q 106 224 104 229 Q 101 234 100 235 Q 98 237 96 235 Q 94 234 93 230 Q 92 229 92 229 Q 86 213 91 199 Q 94 185 95 147" fill="#2a0000" /><path d="M 46 159 L 40 162 Q 29 165 21 160 Q 18 157 18 155 Q 19 153 21 153 Q 45 149 86 138 Q 90 137 96 139 L 95 147 Q 67 152 60 155 L 51 158" fill="#550000" /><path d="M 60 155 Q 65 157 69 162 Q 71 165 70 167 Q 66 176 66 178 Q 49 219 33 226 Q 32 227 32 225 Q 32 224 33 223 Q 48 196 51 180 Q 54 165 51 158" fill="#7f0000" /><path d="M 142 174 Q 136 169 138 163 Q 142 156 145 147 L 148 136 Q 165 55 155 41 Q 152 37 155 35 Q 160 32 166 36 Q 179 43 183 48 Q 185 52 182 58 Q 177 65 174 79 Q 167 108 159 135 L 156 145 Q 153 154 151 162" fill="#aa0000" /><path d="M 154 180 L 142 174 L 151 162 Q 150 168 156 170 Q 165 175 173 179 L 184 184 Q 209 197 219 204 Q 225 208 227 216 Q 229 224 228 228 Q 226 231 223 231 Q 221 231 216 227 Q 194 206 176 195 L 166 188" fill="#aa0000" /><path d="M 173 179 Q 176 174 179 168 Q 186 152 188 140 L 189 129 Q 190 123 188 118 Q 187 114 190 113 Q 197 112 208 122 Q 210 123 210 125 L 204 137 Q 197 151 197 158 Q 194 167 184 184 L 176 195 Q 176 195 175 195 Q 147 219 129 218 Q 126 217 129 215 Q 150 203 166 188" fill="#d40000" /><path d="M 187 140 Q 170 142 156 145 L 145 147 Q 136 149 128 150 Q 123 152 119 150 Q 115 148 113 145 Q 107 141 114 140 Q 131 137 146 136 Q 147 136 148 136 L 159 135 Q 173 132 189 130 L 209 125 Q 213 124 215 124 Q 236 118 246 123 Q 251 126 251 129 Q 249 132 246 132 Q 207 136 204 137" fill="#ff0000" /></svg>