<svg xmlns="http://www.w3.org/2000/svg" xmlns:xlink="http://www.w3.org/1999/xlink" width="270" height="270"><path d="M 0 0 L 270 270 M 270 0 L 0 270 M 135 0 L 135 270 M 0 135 L 270 135" stroke="#CCCCCC" /><path d="M 54 174 Q 49 170 51 164 Q 57 154 61 135 L 64 123 Q 77 58 70 47 Q 67 43 70 41 Q 75 39 79 42 Q 91 49 94 54 Q 96 57 93 62 Q 89 68 86 80 Q 81 100 76 120 L 72 132 Q 67 148 62 164" fill="#000000" /><path d="M 96 183 Q 110 190 112 198 Q 114 205 113 208 Q 111 211 109 211 Q 107 211 103 207 Q 95 201 88 196 L 79 189 Q 68 180 54 174 L 62 164 Q 62 169 67 171 Q 77 175 85 178" fill="#000000" /><path d="M 100 112 L 99 109 Q 98 105 101 104 Q 107 103 119 112 Q 123 115 120 119 Q 116 127 110 150 Q 106 169 96 183 L 88 196 Q 88 196 88 197 Q 60 226 39 224 Q 36 223 39 221 Q 68 203 79 189 L 85 178 Q 98 158 101 123 L 101 115" fill="#240000" /><path d="M 61 135 Q 42 141 34 146 Q 30 148 28 147 Q 20 141 15 136 Q 12 134 14 130 Q 14 128 18 128 Q 26 129 32 128 Q 49 125 64 123 L 76 120 Q 89 118 101 115 L 101 123 Q 100 123 100 123 Q 86 128 72 132" fill="#480000" /><path d="M 139 114 L 138 102 Q 138 92 136 85 Q 134 82 132 77 Q 131 74 133 73 Q 136 71 139 72 Q 143 75 148 78 L 153 87 Q 153 88 152 102 Q 152 111 152 121 L 152 130 Q 152 145 151 162 L 151 171 Q 151 191 151 214 L 138 215" fill="#6d0000" /><path d="M 193 78 Q 190 76 158 85 Q 155 87 153 87 L 148 78 Q 160 76 182 68 Q 194 62 199 65 Q 213 73 215 76" fill="#910000" /><path d="M 193 209 Q 196 84 193 78 L 215 76 Q 219 81 216 85 Q 211 92 211 102 Q 208 144 208 207" fill="#910000" /><path d="M 152 121 Q 160 115 173 116 Q 180 116 183 120 Q 186 123 180 125 Q 168 127 152 130" fill="#b60000" /><path d="M 151 162 Q 167 155 176 156 Q 183 157 186 160 Q 189 164 183 165 Q 169 167 151 171" fill="#da0000" /><path d="M 151 214 Q 163 212 174 211 Q 184 210 193 209 L 208 207 Q 214 206 220 205 Q 238 200 252 212 Q 257 216 255 219 Q 253 221 248 221 Q 244 220 240 220 Q 158 220 123 229 Q 118 230 113 228 Q 108 227 105 223 Q 101 218 106 218 Q 123 216 138 215" fill="#ff0000" /></svg>