<svg xmlns="http://www.w3.org/2000/svg" xmlns:xlink="http://www.w3.org/1999/xlink" width="270" height="270"><path d="M 0 0 L 270 270 M 270 0 L 0 270 M 135 0 L 135 270 M 0 135 L 270 135" stroke="#CCCCCC" /><path d="M 51 170 Q 45 165 48 160 Q 53 150 55 138 L 58 126 Q 71 52 61 38 Q 58 34 62 32 Q 66 30 71 32 Q 84 39 88 44 Q 90 47 86 53 Q 82 59 80 72 Q 75 98 69 123 L 66 135 Q 63 147 59 159" fill="#000000" /><path d="M 87 180 Q 105 191 107 199 Q 108 207 106 210 Q 105 213 102 213 Q 100 212 96 208 Q 87 198 79 192 L 71 184 Q 62 176 51 170 L 59 159 Q 59 164 64 167 Q 71 171 77 174" fill="#000000" /><path d="M 90 113 L 88 109 Q 87 105 90 104 Q 96 102 108 112 Q 112 115 110 119 Q 105 125 104 133 Q 96 165 87 180 L 79 192 Q 75 197 69 202 Q 58 211 46 216 Q 37 219 33 218 Q 30 218 34 216 Q 59 199 71 184 L 77 174 Q 90 148 90 126 L 90 118" fill="#1c0000" /><path d="M 55 138 Q 44 143 34 149 Q 31 151 28 150 Q 20 144 15 140 Q 13 138 14 135 Q 14 132 17 132 Q 25 133 30 132 Q 44 129 58 126 L 69 123 Q 80 121 90 118 L 90 126 Q 89 126 89 126 Q 77 130 66 135" fill="#380000" /><path d="M 159 97 L 159 98 Q 158 103 153 97 Q 149 93 148 87 Q 143 65 136 52 Q 133 49 135 47 Q 136 45 139 46 Q 146 47 149 48 L 153 56 Q 158 83 159 86 L 160 95" fill="#550000" /><path d="M 149 48 Q 177 42 192 35 Q 198 32 202 34 Q 216 41 220 44 L 196 48 Q 194 46 190 47 Q 156 55 153 56" fill="#710000" /><path d="M 220 44 Q 224 48 219 53 Q 211 59 205 78 L 191 78 Q 194 67 197 55 Q 198 50 196 48" fill="#710000" /><path d="M 205 78 Q 212 81 212 83 Q 211 85 209 86 Q 178 90 164 94 Q 161 95 160 95 L 159 86 Q 173 83 191 78" fill="#8d0000" /><path d="M 130 139 Q 126 141 124 139 Q 119 136 118 133 Q 116 129 119 126 Q 125 120 126 112 Q 128 102 122 93 Q 120 90 122 88 Q 124 87 127 88 Q 134 91 138 95 Q 141 96 138 101 Q 136 109 135 122 Q 135 125 137 124" fill="#aa0000" /><path d="M 199 123 Q 198 121 192 121 Q 170 124 156 128 L 149 130 Q 147 130 147 130 Q 136 134 130 139 L 137 124 Q 166 118 184 115 Q 193 113 199 110 Q 205 107 208 109 Q 220 113 223 117 Q 225 119 220 123" fill="#aa0000" /><path d="M 195 151 Q 194 150 195 148 Q 198 140 200 131 Q 202 125 199 123 L 220 123 Q 215 129 208 147 Q 208 148 208 149" fill="#aa0000" /><path d="M 151 167 Q 136 169 122 173 Q 118 174 113 173 Q 109 172 106 169 Q 102 165 107 164 Q 131 161 152 158 L 167 156 Q 171 155 195 151 L 208 149 Q 214 147 220 146 Q 235 141 248 151 Q 252 154 251 157 Q 249 159 245 159 Q 196 159 167 164 Q 165 164 165 164" fill="#c60000" /><path d="M 156 197 L 147 209 Q 144 213 141 216 Q 118 235 97 235 Q 90 235 96 232 Q 118 220 127 212 Q 127 212 128 211 Q 142 198 151 167 L 152 158 Q 153 142 150 133 Q 149 131 149 130 L 156 128 Q 159 128 162 130 Q 170 133 171 135 Q 173 137 171 139 Q 170 142 168 148 Q 167 152 167 156 L 165 164 Q 164 167 164 169 L 162 178" fill="#e20000" /><path d="M 164 169 Q 181 186 196 199 Q 214 216 253 231 Q 256 233 256 234 Q 256 235 253 235 Q 245 237 218 239 Q 210 239 205 234 Q 181 205 162 178" fill="#ff0000" /></svg>