<svg xmlns="http://www.w3.org/2000/svg" xmlns:xlink="http://www.w3.org/1999/xlink" width="270" height="270"><path d="M 0 0 L 270 270 M 270 0 L 0 270 M 135 0 L 135 270 M 0 135 L 270 135" stroke="#CCCCCC" /><path d="M 48 165 Q 42 161 44 156 Q 50 145 52 132 Q 52 131 53 130 L 55 118 Q 69 45 60 33 Q 57 29 60 27 Q 64 24 69 28 Q 81 34 85 38 Q 87 41 84 47 Q 79 53 77 65 Q 72 91 66 116 L 63 126 Q 59 141 55 155" fill="#000000" /><path d="M 87 171 Q 99 174 102 183 Q 104 190 103 193 Q 102 196 100 196 Q 97 196 80 183 L 69 177 Q 59 170 48 165 L 55 155 Q 55 160 60 162 Q 69 164 75 166" fill="#000000" /><path d="M 87 106 L 85 102 Q 84 98 88 97 Q 93 95 106 105 Q 110 107 107 112 Q 104 119 102 127 Q 94 159 87 171 L 80 183 Q 74 192 64 200 Q 53 209 40 213 Q 31 217 27 216 Q 24 216 28 213 Q 53 197 69 177 L 75 166 Q 84 147 87 119 L 88 111" fill="#170000" /><path d="M 53 130 Q 41 133 31 140 Q 28 142 25 140 Q 18 135 13 131 Q 11 129 12 126 Q 12 124 16 123 Q 24 124 29 123 Q 43 120 55 118 L 66 116 Q 77 113 88 111 L 87 119 Q 75 123 63 126" fill="#2e0000" /><path d="M 133 77 Q 126 78 119 80 Q 114 81 106 75 Q 101 71 107 70 Q 120 69 131 68 L 144 66 Q 157 64 170 61 Q 176 59 182 58 L 196 54 Q 209 51 216 55 Q 221 58 221 61 Q 219 63 216 63 Q 206 64 195 66 L 181 68 Q 161 71 144 75" fill="#450000" /><path d="M 144 133 L 143 135 Q 142 138 139 135 Q 136 131 134 125 Q 135 108 133 77 L 131 68 Q 127 56 122 45 Q 118 39 123 37 Q 129 36 139 42 Q 145 44 144 49 Q 144 57 144 66 L 144 75 Q 144 84 144 96 L 144 103 Q 145 112 145 122 L 145 130" fill="#5c0000" /><path d="M 182 58 Q 181 36 176 23 Q 172 19 176 17 Q 182 15 188 17 Q 195 21 199 25 Q 203 29 200 34 Q 198 40 196 54 L 195 66 Q 193 85 191 108 Q 190 129 184 134 Q 181 135 180 132 Q 179 129 178 126 L 178 120 Q 178 119 178 119 Q 180 103 181 68" fill="#730000" /><path d="M 144 96 Q 154 90 164 90 Q 171 91 173 95 Q 176 98 170 99 Q 159 101 144 103" fill="#8b0000" /><path d="M 145 122 Q 170 116 174 117 Q 176 119 178 120 L 178 126 Q 159 128 150 130 Q 147 130 145 130" fill="#a20000" /><path d="M 147 166 Q 134 168 123 171 Q 119 172 114 171 Q 110 170 107 167 Q 103 163 108 162 Q 133 159 155 156 L 169 153 Q 200 149 218 144 Q 227 142 239 151 Q 242 154 241 157 Q 240 159 226 159 Q 190 159 168 163" fill="#b90000" /><path d="M 167 176 L 167 178 Q 167 204 167 235 Q 168 243 165 251 Q 163 254 160 254 Q 158 253 156 248 Q 147 234 150 226 Q 153 216 154 186 Q 154 180 154 175 L 155 156 Q 155 145 152 142 Q 151 139 152 138 Q 154 136 158 137 Q 163 140 168 145 Q 169 145 169 153 L 168 163 Q 168 164 168 165 L 167 174" fill="#d00000" /><path d="M 154 175 Q 150 184 142 193 Q 128 209 115 218 Q 95 230 89 229 Q 85 229 89 226 Q 138 190 147 166 L 155 156" fill="#e70000" /><path d="M 168 165 Q 184 179 199 191 Q 217 205 255 218 Q 258 220 258 221 Q 258 222 255 223 Q 218 232 210 224 Q 186 199 167 174" fill="#ff0000" /></svg>