<svg xmlns="http://www.w3.org/2000/svg" xmlns:xlink="http://www.w3.org/1999/xlink" width="270" height="270"><path d="M 0 0 L 270 270 M 270 0 L 0 270 M 135 0 L 135 270 M 0 135 L 270 135" stroke="#CCCCCC" /><path d="M 73 105 L 72 106 Q 70 109 68 106 Q 66 104 64 98 Q 62 91 64 88 Q 70 54 61 34 Q 60 32 60 31 Q 61 30 63 30 Q 68 31 72 34 L 75 41 Q 75 46 75 56 L 75 62 Q 75 70 76 77 L 76 84 Q 76 89 75 95 L 74 102" fill="#CCCCCC"/><path d="M 106 36 Q 104 34 101 35 Q 76 40 75 41 L 72 34 Q 92 30 101 26 Q 105 24 109 25 Q 119 29 124 34" fill="#CCCCCC"/><path d="M 108 94 Q 109 87 108 52 Q 108 39 106 36 L 124 34 Q 126 36 124 39 Q 116 50 122 92 Q 122 97 119 102 Q 116 108 113 108 Q 112 108 109 103 Q 107 100 107 99" fill="#CCCCCC"/><path d="M 75 56 Q 83 51 92 52 Q 97 53 100 55 Q 101 58 97 59 Q 88 60 75 62" fill="#CCCCCC"/><path d="M 76 77 Q 83 72 93 73 Q 98 73 101 76 Q 103 79 98 80 Q 88 81 76 84" fill="#CCCCCC"/><path d="M 75 95 Q 84 93 94 91 Q 100 89 103 91 Q 106 92 108 94 L 107 99 Q 87 100 77 102 Q 75 102 74 102" fill="#CCCCCC"/><path d="M 74 111 L 75 110 Q 78 110 84 112 Q 89 113 90 116 Q 90 118 88 120 Q 79 128 79 129 Q 59 150 46 151 Q 40 152 44 149 Q 72 125 73 113" fill="#CCCCCC"/><path d="M 99 113 L 98 111 Q 98 109 99 108 Q 101 108 112 114 Q 117 116 117 120 Q 117 125 116 127 Q 115 129 113 129 Q 110 129 108 126 Q 106 122 102 118" fill="#CCCCCC"/><path d="M 151 99 L 150 101 Q 148 104 146 101 Q 144 99 142 93 Q 140 87 143 82 Q 149 51 140 28 Q 139 26 139 25 Q 140 23 142 24 Q 146 25 150 28 L 154 34 Q 153 38 154 48 L 154 54 Q 154 62 154 69 L 154 77 Q 154 86 153 90 L 152 97" fill="#CCCCCC"/><path d="M 150 28 Q 171 24 182 19 Q 187 18 190 19 Q 200 23 206 28 L 186 30 Q 184 27 156 34 Q 155 34 154 34" fill="#CCCCCC"/><path d="M 206 28 Q 208 31 205 34 Q 198 46 203 86 Q 203 91 200 96 Q 196 103 193 103 Q 191 103 189 97 Q 187 95 187 93 L 187 88 Q 187 88 187 88 Q 189 81 189 46 Q 189 33 186 30" fill="#CCCCCC"/><path d="M 154 48 Q 166 42 173 43 Q 178 44 181 47 Q 182 49 178 51 Q 168 52 154 54" fill="#CCCCCC"/><path d="M 154 69 Q 165 65 172 66 Q 177 67 180 70 Q 181 73 176 74 Q 167 74 154 77" fill="#CCCCCC"/><path d="M 187 93 Q 166 95 156 97 Q 154 98 152 97 L 153 90 Q 162 88 174 85 Q 180 84 183 86 Q 186 87 187 88" fill="#CCCCCC"/><path d="M 153 105 L 155 105 Q 157 104 163 105 Q 168 106 169 109 Q 169 111 167 113 Q 167 113 167 113 Q 148 135 136 138 Q 130 139 134 135 Q 151 117 153 108" fill="#CCCCCC"/><path d="M 180 116 L 179 114 Q 179 111 180 111 Q 182 110 185 111 Q 204 119 205 126 Q 206 132 204 135 Q 203 137 201 137 Q 198 136 196 134 Q 190 127 184 121" fill="#CCCCCC"/><path d="M 96 199 Q 92 198 91 196 Q 90 192 93 188 Q 98 180 103 167 L 106 159 Q 106 156 107 155 Q 109 148 107 143 Q 105 139 109 138 Q 112 137 114 139 Q 124 147 125 150 Q 125 150 122 157 L 117 166 Q 113 172 106 188" fill="#CCCCCC"/><path d="M 146 207 Q 161 213 179 221 Q 187 224 190 229 Q 198 241 198 246 Q 198 251 192 251 Q 188 251 181 247 Q 155 227 137 217 L 124 210 Q 124 209 124 209 Q 110 202 96 199 L 106 188 Q 102 193 108 194 Q 118 196 132 202" fill="#CCCCCC"/><path d="M 171 163 L 171 163 Q 167 166 163 178 Q 157 193 148 205 Q 147 206 146 207 L 137 217 Q 137 217 137 217 Q 108 240 69 233 Q 64 232 69 230 Q 105 223 124 210 L 132 202 Q 133 201 133 201 Q 141 192 146 180 Q 150 171 150 164 L 150 155 Q 149 153 149 152 Q 147 147 151 147 Q 161 146 169 154 L 171 163" fill="#CCCCCC"/><path d="M 150 164 Q 131 164 117 166 L 103 167 Q 61 170 39 179 Q 30 181 20 173 Q 15 169 15 166 Q 16 163 19 163 Q 40 165 69 161 Q 85 160 106 159 L 122 157 Q 135 156 150 155 L 169 154 Q 215 149 216 149 Q 235 143 251 160 Q 254 163 252 166 Q 250 168 244 167 Q 203 162 171 163" fill="#CCCCCC"/><path d="M 73 105 L 72 106 Q 70 109 68 106 Q 66 104 64 98 Q 62 91 64 88 Q 70 54 61 34 Q 60 32 60 31 Q 61 30 63 30 Q 68 31 72 34 L 75 41 Q 75 46 75 56 L 75 62 Q 75 70 76 77 L 76 84 Q 76 89 75 95 L 74 102" fill="#000000" /><path d="M 106 36 Q 104 34 101 35 Q 76 40 75 41 L 72 34 Q 92 30 101 26 Q 105 24 109 25 Q 119 29 124 34" fill="#0f0000" /><path d="M 108 94 Q 109 87 108 52 Q 108 39 106 36 L 124 34 Q 126 36 124 39 Q 116 50 122 92 Q 122 97 119 102 Q 116 108 113 108 Q 112 108 109 103 Q 107 100 107 99" fill="#0f0000" /><path d="M 75 56 Q 83 51 92 52 Q 97 53 100 55 Q 101 58 97 59 Q 88 60 75 62" fill="#1f0000" /><path d="M 76 77 Q 83 72 93 73 Q 98 73 101 76 Q 103 79 98 80 Q 88 81 76 84" fill="#2f0000" /><path d="M 75 95 Q 84 93 94 91 Q 100 89 103 91 Q 106 92 108 94 L 107 99 Q 87 100 77 102 Q 75 102 74 102" fill="#3f0000" /><path d="M 74 111 L 75 110 Q 78 110 84 112 Q 89 113 90 116 Q 90 118 88 120 Q 79 128 79 129 Q 59 150 46 151 Q 40 152 44 149 Q 72 125 73 113" fill="#4f0000" /><path d="M 99 113 L 98 111 Q 98 109 99 108 Q 101 108 112 114 Q 117 116 117 120 Q 117 125 116 127 Q 115 129 113 129 Q 110 129 108 126 Q 106 122 102 118" fill="#5f0000" /><path d="M 151 99 L 150 101 Q 148 104 146 101 Q 144 99 142 93 Q 140 87 143 82 Q 149 51 140 28 Q 139 26 139 25 Q 140 23 142 24 Q 146 25 150 28 L 154 34 Q 153 38 154 48 L 154 54 Q 154 62 154 69 L 154 77 Q 154 86 153 90 L 152 97" fill="#6f0000" /><path d="M 150 28 Q 171 24 182 19 Q 187 18 190 19 Q 200 23 206 28 L 186 30 Q 184 27 156 34 Q 155 34 154 34" fill="#7f0000" /><path d="M 206 28 Q 208 31 205 34 Q 198 46 203 86 Q 203 91 200 96 Q 196 103 193 103 Q 191 103 189 97 Q 187 95 187 93 L 187 88 Q 187 88 187 88 Q 189 81 189 46 Q 189 33 186 30" fill="#7f0000" /><path d="M 154 48 Q 166 42 173 43 Q 178 44 181 47 Q 182 49 178 51 Q 168 52 154 54" fill="#8f0000" /><path d="M 154 69 Q 165 65 172 66 Q 177 67 180 70 Q 181 73 176 74 Q 167 74 154 77" fill="#9f0000" /><path d="M 187 93 Q 166 95 156 97 Q 154 98 152 97 L 153 90 Q 162 88 174 85 Q 180 84 183 86 Q 186 87 187 88" fill="#af0000" /><path d="M 153 105 L 155 105 Q 157 104 163 105 Q 168 106 169 109 Q 169 111 167 113 Q 167 113 167 113 Q 148 135 136 138 Q 130 139 134 135 Q 151 117 153 108" fill="#bf0000" /><path d="M 180 116 L 179 114 Q 179 111 180 111 Q 182 110 185 111 Q 204 119 205 126 Q 206 132 204 135 Q 203 137 201 137 Q 198 136 196 134 Q 190 127 184 121" fill="#cf0000" /><path d="M 96 199 Q 92 198 91 196 Q 90 192 93 188 Q 98 180 103 167 L 106 159 Q 106 156 107 155 Q 109 148 107 143 Q 105 139 109 138 Q 112 137 114 139 Q 124 147 125 150 Q 125 150 122 157 L 117 166 Q 113 172 106 188" fill="#df0000" /><path d="M 146 207 Q 161 213 179 221 Q 187 224 190 229 Q 198 241 198 246 Q 198 251 192 251 Q 188 251 181 247 Q 155 227 137 217 L 124 210 Q 124 209 124 209 Q 110 202 96 199 L 106 188 Q 102 193 108 194 Q 118 196 132 202" fill="#df0000" /><path d="M 171 163 L 171 163 Q 167 166 163 178 Q 157 193 148 205 Q 147 206 146 207 L 137 217 Q 137 217 137 217 Q 108 240 69 233 Q 64 232 69 230 Q 105 223 124 210 L 132 202 Q 133 201 133 201 Q 141 192 146 180 Q 150 171 150 164 L 150 155 Q 149 153 149 152 Q 147 147 151 147 Q 161 146 169 154 L 171 163" fill="#ef0000" /><path d="M 150 164 Q 131 164 117 166 L 103 167 Q 61 170 39 179 Q 30 181 20 173 Q 15 169 15 166 Q 16 163 19 163 Q 40 165 69 161 Q 85 160 106 159 L 122 157 Q 135 156 150 155 L 169 154 Q 215 149 216 149 Q 235 143 251 160 Q 254 163 252 166 Q 250 168 244 167 Q 203 162 171 163" fill="#ff0000" /></svg>