<svg xmlns="http://www.w3.org/2000/svg" xmlns:xlink="http://www.w3.org/1999/xlink" width="270" height="270"><path d="M 0 0 L 270 270 M 270 0 L 0 270 M 135 0 L 135 270 M 0 135 L 270 135" stroke="#CCCCCC" /><path d="M 77 71 Q 74 69 71 71 Q 50 81 46 84 Q 38 89 30 85 Q 25 83 23 80 Q 21 75 26 75 Q 38 74 61 66 Q 81 56 86 59 Q 104 66 105 70" fill="#CCCCCC"/><path d="M 64 106 Q 72 90 79 77 Q 81 73 77 71 L 105 70 Q 107 74 102 76 Q 92 80 66 109" fill="#CCCCCC"/><path d="M 83 192 L 77 217 Q 72 230 67 233 Q 62 236 58 231 L 61 208 Q 68 202 68 155 L 66 145 Q 64 123 56 108 Q 54 105 55 103 Q 57 101 59 103 Q 62 104 64 106 L 66 109 Q 75 118 78 139 L 79 148" fill="#CCCCCC"/><path d="M 58 231 Q 52 221 42 209 Q 38 206 39 206 Q 41 205 43 206 Q 61 208 61 208" fill="#CCCCCC"/><path d="M 68 155 Q 43 170 34 179 Q 31 181 29 181 Q 20 178 14 175 Q 11 173 11 170 Q 11 167 15 166 Q 23 165 28 163 Q 48 153 66 145 L 78 139 Q 87 134 95 130 Q 98 129 99 130 Q 100 132 97 135 Q 92 139 86 143 Q 82 145 79 148" fill="#CCCCCC"/><path d="M 138 78 Q 133 80 130 81 L 126 77 Q 169 49 169 39 Q 169 35 171 34 Q 179 32 198 42 Q 202 45 201 48 Q 200 50 196 51 Q 185 54 173 61 Q 163 68 147 74 Q 146 74 146 75" fill="#CCCCCC"/><path d="M 130 81 Q 130 83 129 86 Q 129 89 128 108 Q 127 149 116 181 Q 112 189 109 196 Q 95 222 89 223 Q 86 224 86 221 Q 87 220 88 218 Q 103 190 109 167 Q 110 160 112 152 Q 118 89 109 77 Q 107 74 109 72 Q 112 70 117 73 Q 122 74 126 77" fill="#CCCCCC"/><path d="M 154 137 L 154 196 Q 154 202 156 203 L 149 232 Q 145 237 142 235 Q 137 232 135 223 Q 133 217 136 211 Q 140 207 141 199 Q 147 174 144 98 Q 144 85 138 78 L 146 75 Q 150 76 156 82 Q 159 85 158 90 Q 157 95 156 105 L 156 109" fill="#CCCCCC"/><path d="M 156 203 Q 158 204 178 194 L 181 200 Q 156 223 149 232" fill="#CCCCCC"/><path d="M 178 194 Q 170 182 170 180 Q 171 178 172 177 Q 173 177 176 179 Q 198 195 198 204 Q 198 210 196 213 Q 194 215 192 215 Q 190 214 181 200" fill="#CCCCCC"/><path d="M 156 105 Q 163 102 168 111 Q 186 139 200 157 Q 215 176 255 199 Q 258 200 257 201 Q 255 203 251 203 Q 227 203 214 200 Q 205 195 167 124 Q 163 115 156 109" fill="#CCCCCC"/><path d="M 77 71 Q 74 69 71 71 Q 50 81 46 84 Q 38 89 30 85 Q 25 83 23 80 Q 21 75 26 75 Q 38 74 61 66 Q 81 56 86 59 Q 104 66 105 70" fill="#000000" /><path d="M 64 106 Q 72 90 79 77 Q 81 73 77 71 L 105 70 Q 107 74 102 76 Q 92 80 66 109" fill="#000000" /><path d="M 83 192 L 77 217 Q 72 230 67 233 Q 62 236 58 231 L 61 208 Q 68 202 68 155 L 66 145 Q 64 123 56 108 Q 54 105 55 103 Q 57 101 59 103 Q 62 104 64 106 L 66 109 Q 75 118 78 139 L 79 148" fill="#240000" /><path d="M 58 231 Q 52 221 42 209 Q 38 206 39 206 Q 41 205 43 206 Q 61 208 61 208" fill="#240000" /><path d="M 68 155 Q 43 170 34 179 Q 31 181 29 181 Q 20 178 14 175 Q 11 173 11 170 Q 11 167 15 166 Q 23 165 28 163 Q 48 153 66 145 L 78 139 Q 87 134 95 130 Q 98 129 99 130 Q 100 132 97 135 Q 92 139 86 143 Q 82 145 79 148" fill="#480000" /><path d="M 138 78 Q 133 80 130 81 L 126 77 Q 169 49 169 39 Q 169 35 171 34 Q 179 32 198 42 Q 202 45 201 48 Q 200 50 196 51 Q 185 54 173 61 Q 163 68 147 74 Q 146 74 146 75" fill="#6d0000" /><path d="M 130 81 Q 130 83 129 86 Q 129 89 128 108 Q 127 149 116 181 Q 112 189 109 196 Q 95 222 89 223 Q 86 224 86 221 Q 87 220 88 218 Q 103 190 109 167 Q 110 160 112 152 Q 118 89 109 77 Q 107 74 109 72 Q 112 70 117 73 Q 122 74 126 77" fill="#910000" /><path d="M 154 137 L 154 196 Q 154 202 156 203 L 149 232 Q 145 237 142 235 Q 137 232 135 223 Q 133 217 136 211 Q 140 207 141 199 Q 147 174 144 98 Q 144 85 138 78 L 146 75 Q 150 76 156 82 Q 159 85 158 90 Q 157 95 156 105 L 156 109" fill="#b60000" /><path d="M 156 203 Q 158 204 178 194 L 181 200 Q 156 223 149 232" fill="#b60000" /><path d="M 178 194 Q 170 182 170 180 Q 171 178 172 177 Q 173 177 176 179 Q 198 195 198 204 Q 198 210 196 213 Q 194 215 192 215 Q 190 214 181 200" fill="#da0000" /><path d="M 156 105 Q 163 102 168 111 Q 186 139 200 157 Q 215 176 255 199 Q 258 200 257 201 Q 255 203 251 203 Q 227 203 214 200 Q 205 195 167 124 Q 163 115 156 109" fill="#ff0000" /></svg>