<svg xmlns="http://www.w3.org/2000/svg" xmlns:xlink="http://www.w3.org/1999/xlink" width="270" height="270"><path d="M 0 0 L 270 270 M 270 0 L 0 270 M 135 0 L 135 270 M 0 135 L 270 135" stroke="#CCCCCC" /><path d="M 109 26 L 108 22 Q 108 18 109 17 Q 112 16 116 18 Q 142 25 144 34 Q 147 43 145 48 Q 143 52 140 52 Q 134 52 130 48 Q 124 40 117 33" fill="#CCCCCC"/><path d="M 61 98 L 56 111 Q 53 121 48 128 Q 44 135 38 129 Q 31 113 36 107 Q 54 86 52 75 Q 53 68 58 72 Q 62 74 65 81 L 64 91" fill="#CCCCCC"/><path d="M 65 81 L 65 82 Q 153 66 156 66 Q 172 63 186 61 Q 205 57 213 62 L 194 70 Q 189 69 168 73 Q 107 82 84 89 Q 70 93 64 91" fill="#CCCCCC"/><path d="M 213 62 Q 234 77 235 80 Q 235 83 223 86 Q 209 89 193 101 Q 188 104 185 103 Q 183 102 186 98 Q 195 76 195 75 Q 197 73 194 70" fill="#CCCCCC"/><path d="M 103 132 Q 87 136 72 140 Q 70 139 71 136 Q 73 135 74 135 Q 129 110 129 99 Q 130 96 132 95 Q 135 94 140 96 Q 152 101 158 106 Q 161 108 160 112 Q 159 114 154 114 Q 146 115 114 128" fill="#CCCCCC"/><path d="M 87 188 L 67 192 Q 47 197 35 190 Q 28 186 39 184 Q 73 179 103 171 Q 105 170 108 170 L 123 166 Q 139 160 155 154 Q 163 150 172 152 Q 181 154 183 157 Q 184 160 182 162 Q 179 166 121 180 L 108 183" fill="#CCCCCC"/><path d="M 108 170 Q 108 169 108 168 Q 107 140 103 132 L 114 128 Q 119 130 125 134 Q 130 139 127 148 Q 124 154 123 166 L 121 180 Q 121 183 121 186 Q 122 209 125 218 L 121 234 Q 114 228 111 219 Q 108 211 108 183" fill="#CCCCCC"/><path d="M 125 218 Q 127 223 136 227 Q 145 230 167 230 Q 209 228 214 218 L 238 223 Q 241 233 233 237 Q 223 243 198 247 Q 142 253 121 234" fill="#CCCCCC"/><path d="M 214 218 Q 219 213 225 182 Q 226 176 228 177 Q 231 179 231 184 Q 233 209 238 223" fill="#CCCCCC"/><path d="M 109 26 L 108 22 Q 108 18 109 17 Q 112 16 116 18 Q 142 25 144 34 Q 147 43 145 48 Q 143 52 140 52 Q 134 52 130 48 Q 124 40 117 33" fill="#000000" /><path d="M 61 98 L 56 111 Q 53 121 48 128 Q 44 135 38 129 Q 31 113 36 107 Q 54 86 52 75 Q 53 68 58 72 Q 62 74 65 81 L 64 91" fill="#330000" /><path d="M 65 81 L 65 82 Q 153 66 156 66 Q 172 63 186 61 Q 205 57 213 62 L 194 70 Q 189 69 168 73 Q 107 82 84 89 Q 70 93 64 91" fill="#660000" /><path d="M 213 62 Q 234 77 235 80 Q 235 83 223 86 Q 209 89 193 101 Q 188 104 185 103 Q 183 102 186 98 Q 195 76 195 75 Q 197 73 194 70" fill="#660000" /><path d="M 103 132 Q 87 136 72 140 Q 70 139 71 136 Q 73 135 74 135 Q 129 110 129 99 Q 130 96 132 95 Q 135 94 140 96 Q 152 101 158 106 Q 161 108 160 112 Q 159 114 154 114 Q 146 115 114 128" fill="#990000" /><path d="M 87 188 L 67 192 Q 47 197 35 190 Q 28 186 39 184 Q 73 179 103 171 Q 105 170 108 170 L 123 166 Q 139 160 155 154 Q 163 150 172 152 Q 181 154 183 157 Q 184 160 182 162 Q 179 166 121 180 L 108 183" fill="#cc0000" /><path d="M 108 170 Q 108 169 108 168 Q 107 140 103 132 L 114 128 Q 119 130 125 134 Q 130 139 127 148 Q 124 154 123 166 L 121 180 Q 121 183 121 186 Q 122 209 125 218 L 121 234 Q 114 228 111 219 Q 108 211 108 183" fill="#ff0000" /><path d="M 125 218 Q 127 223 136 227 Q 145 230 167 230 Q 209 228 214 218 L 238 223 Q 241 233 233 237 Q 223 243 198 247 Q 142 253 121 234" fill="#ff0000" /><path d="M 214 218 Q 219 213 225 182 Q 226 176 228 177 Q 231 179 231 184 Q 233 209 238 223" fill="#ff0000" /></svg>