<svg xmlns="http://www.w3.org/2000/svg" xmlns:xlink="http://www.w3.org/1999/xlink" width="270" height="270"><path d="M 0 0 L 270 270 M 270 0 L 0 270 M 135 0 L 135 270 M 0 135 L 270 135" stroke="#CCCCCC" /><path d="M 115 17 L 115 14 Q 114 10 116 10 Q 117 9 118 9 Q 130 9 141 17 Q 146 20 148 27 Q 148 32 147 36 Q 143 40 139 39 Q 131 35 120 21" fill="#CCCCCC"/><path d="M 67 73 L 64 83 Q 61 93 56 99 Q 53 106 47 100 Q 40 85 45 79 Q 60 63 58 52 Q 58 45 64 48 Q 67 51 70 57 L 70 67" fill="#CCCCCC"/><path d="M 70 57 Q 83 55 97 53 Q 156 45 190 41 Q 213 37 219 43 L 200 50 Q 196 49 184 51 Q 124 56 90 65 Q 74 68 70 67" fill="#CCCCCC"/><path d="M 219 43 Q 239 59 240 62 Q 240 65 229 66 Q 216 69 199 78 Q 194 81 191 80 Q 189 78 192 74 Q 202 56 202 54 Q 203 53 200 50" fill="#CCCCCC"/><path d="M 133 87 Q 132 86 131 85 Q 119 67 119 67 Q 119 64 120 63 Q 122 63 125 64 Q 141 69 142 75 Q 143 82 142 85" fill="#CCCCCC"/><path d="M 151 95 Q 117 96 90 105 Q 83 107 76 101 Q 72 97 76 96 Q 103 92 125 88 Q 129 87 133 87 L 142 85 Q 151 83 158 81 Q 171 77 184 86 Q 187 88 186 91 Q 184 93 173 93 Q 167 94 162 94" fill="#CCCCCC"/><path d="M 97 114 L 97 112 Q 98 109 99 109 Q 100 109 101 110 Q 110 114 114 119 Q 116 123 115 128 Q 115 132 113 134 Q 109 136 107 134 Q 102 129 99 118" fill="#CCCCCC"/><path d="M 137 136 Q 139 133 140 130 Q 153 103 151 95 L 162 94 Q 167 98 169 102 Q 171 105 167 108 Q 163 112 160 116 Q 155 125 150 131 Q 148 133 147 135" fill="#CCCCCC"/><path d="M 125 147 Q 88 150 53 159 Q 48 161 42 159 Q 38 157 34 154 Q 29 149 35 148 Q 86 142 129 137 Q 133 136 137 136 L 147 135 Q 183 129 206 125 Q 217 122 231 133 Q 235 137 234 141 Q 233 143 227 143 Q 162 143 139 145" fill="#CCCCCC"/><path d="M 101 190 L 81 195 Q 77 196 71 195 Q 67 193 64 190 Q 60 186 65 185 Q 96 181 124 179 L 139 177 Q 161 173 176 170 Q 190 168 203 178 Q 207 181 206 184 Q 204 186 199 186 Q 147 186 139 187 L 124 188" fill="#CCCCCC"/><path d="M 124 179 Q 124 162 125 147 L 139 145 Q 139 161 139 177 L 139 187 Q 139 243 135 253 Q 132 260 129 257 Q 123 250 124 188" fill="#CCCCCC"/><path d="M 115 17 L 115 14 Q 114 10 116 10 Q 117 9 118 9 Q 130 9 141 17 Q 146 20 148 27 Q 148 32 147 36 Q 143 40 139 39 Q 131 35 120 21" fill="#000000" /><path d="M 67 73 L 64 83 Q 61 93 56 99 Q 53 106 47 100 Q 40 85 45 79 Q 60 63 58 52 Q 58 45 64 48 Q 67 51 70 57 L 70 67" fill="#1c0000" /><path d="M 70 57 Q 83 55 97 53 Q 156 45 190 41 Q 213 37 219 43 L 200 50 Q 196 49 184 51 Q 124 56 90 65 Q 74 68 70 67" fill="#380000" /><path d="M 219 43 Q 239 59 240 62 Q 240 65 229 66 Q 216 69 199 78 Q 194 81 191 80 Q 189 78 192 74 Q 202 56 202 54 Q 203 53 200 50" fill="#380000" /><path d="M 133 87 Q 132 86 131 85 Q 119 67 119 67 Q 119 64 120 63 Q 122 63 125 64 Q 141 69 142 75 Q 143 82 142 85" fill="#550000" /><path d="M 151 95 Q 117 96 90 105 Q 83 107 76 101 Q 72 97 76 96 Q 103 92 125 88 Q 129 87 133 87 L 142 85 Q 151 83 158 81 Q 171 77 184 86 Q 187 88 186 91 Q 184 93 173 93 Q 167 94 162 94" fill="#710000" /><path d="M 97 114 L 97 112 Q 98 109 99 109 Q 100 109 101 110 Q 110 114 114 119 Q 116 123 115 128 Q 115 132 113 134 Q 109 136 107 134 Q 102 129 99 118" fill="#8d0000" /><path d="M 137 136 Q 139 133 140 130 Q 153 103 151 95 L 162 94 Q 167 98 169 102 Q 171 105 167 108 Q 163 112 160 116 Q 155 125 150 131 Q 148 133 147 135" fill="#aa0000" /><path d="M 125 147 Q 88 150 53 159 Q 48 161 42 159 Q 38 157 34 154 Q 29 149 35 148 Q 86 142 129 137 Q 133 136 137 136 L 147 135 Q 183 129 206 125 Q 217 122 231 133 Q 235 137 234 141 Q 233 143 227 143 Q 162 143 139 145" fill="#c60000" /><path d="M 101 190 L 81 195 Q 77 196 71 195 Q 67 193 64 190 Q 60 186 65 185 Q 96 181 124 179 L 139 177 Q 161 173 176 170 Q 190 168 203 178 Q 207 181 206 184 Q 204 186 199 186 Q 147 186 139 187 L 124 188" fill="#e20000" /><path d="M 124 179 Q 124 162 125 147 L 139 145 Q 139 161 139 177 L 139 187 Q 139 243 135 253 Q 132 260 129 257 Q 123 250 124 188" fill="#ff0000" /></svg>