<svg xmlns="http://www.w3.org/2000/svg" xmlns:xlink="http://www.w3.org/1999/xlink" width="270" height="270"><path d="M 0 0 L 270 270 M 270 0 L 0 270 M 135 0 L 135 270 M 0 135 L 270 135" stroke="#CCCCCC" /><path d="M 126 27 L 125 23 Q 124 20 126 19 Q 128 18 132 19 Q 156 24 159 33 Q 162 41 160 45 Q 159 49 156 49 Q 151 50 147 46 Q 140 39 133 32" fill="#000000" /><path d="M 77 85 L 73 96 Q 69 105 65 111 Q 61 118 56 111 Q 53 106 52 98 Q 51 93 54 89 Q 60 84 64 78 Q 69 71 68 64 Q 69 57 74 61 Q 77 64 80 71 L 79 79" fill="#190000" /><path d="M 80 71 Q 93 69 106 66 Q 164 56 190 53 Q 214 48 221 55 L 202 62 Q 198 61 185 63 Q 129 69 94 80 Q 85 82 79 79" fill="#330000" /><path d="M 221 55 Q 241 70 242 73 Q 242 76 232 77 Q 219 79 203 88 Q 198 91 195 90 Q 193 89 196 85 Q 204 67 204 66 Q 205 65 202 62" fill="#330000" /><path d="M 50 186 L 29 190 Q 27 189 29 188 Q 52 168 62 157 Q 62 156 63 156 Q 97 117 92 99 Q 92 95 94 95 Q 103 94 111 102 Q 114 104 115 107 Q 115 108 109 116 Q 96 135 86 147 L 80 155" fill="#4c0000" /><path d="M 86 147 Q 89 149 97 158 Q 99 161 98 167 Q 96 178 96 223 Q 96 234 92 245 Q 89 251 85 247 L 85 247 Q 76 236 79 223 Q 84 202 84 181 Q 84 163 80 155" fill="#660000" /><path d="M 156 123 Q 146 125 138 127 Q 134 129 129 128 Q 125 127 121 124 Q 117 120 122 119 Q 188 107 206 103 Q 218 98 231 108 Q 235 111 234 114 Q 233 116 228 116 Q 177 116 166 122" fill="#7f0000" /><path d="M 151 152 Q 158 129 156 123 L 166 122 Q 170 125 172 127 Q 174 130 171 132 Q 168 136 166 139 Q 163 145 160 150" fill="#990000" /><path d="M 142 233 L 140 235 Q 138 239 136 236 Q 127 227 132 209 Q 136 170 127 155 Q 126 153 126 151 Q 127 149 130 150 Q 135 151 140 154 L 145 162 Q 144 167 145 185 L 145 192 Q 146 210 145 219 L 144 228" fill="#b20000" /><path d="M 200 155 Q 197 153 191 154 Q 153 161 145 162 L 140 154 Q 144 153 151 152 L 160 150 Q 159 151 159 151 Q 181 147 196 141 Q 199 138 204 141 Q 217 147 222 152" fill="#cc0000" /><path d="M 201 215 Q 203 212 203 200 Q 204 158 200 155 L 222 152 Q 224 155 222 158 Q 217 164 218 172 Q 219 201 220 217 Q 220 229 215 238 Q 211 247 207 247 Q 204 247 202 242" fill="#cc0000" /><path d="M 193 214 Q 198 217 199 219 Q 200 218 201 215 L 202 242" fill="#cc0000" /><path d="M 145 185 Q 171 177 181 178 Q 188 179 191 184 Q 193 187 186 188 Q 170 190 149 192 Q 147 193 145 192" fill="#e50000" /><path d="M 145 219 Q 162 217 182 213 Q 190 211 193 214 L 199 232 Q 196 228 192 224 Q 161 225 148 227 Q 145 228 144 228" fill="#ff0000" /></svg>