<svg xmlns="http://www.w3.org/2000/svg" xmlns:xlink="http://www.w3.org/1999/xlink" width="270" height="270"><path d="M 0 0 L 270 270 M 270 0 L 0 270 M 135 0 L 135 270 M 0 135 L 270 135" stroke="#CCCCCC" /><path d="M 110 18 L 109 16 Q 108 12 109 11 Q 111 10 115 10 Q 139 12 143 20 Q 146 27 146 31 Q 145 35 142 36 Q 138 36 133 34 Q 125 28 118 23" fill="#000000" /><path d="M 66 65 L 62 76 Q 57 85 52 91 Q 48 97 44 90 L 44 90 Q 38 76 44 70 Q 61 56 61 45 Q 62 38 66 42 Q 69 45 71 51 L 70 59" fill="#130000" /><path d="M 71 51 Q 84 49 98 47 Q 161 39 191 36 Q 210 32 216 39 L 199 45 Q 196 44 189 44 Q 123 48 80 61 Q 75 62 70 59" fill="#270000" /><path d="M 216 39 Q 232 54 232 57 Q 232 59 223 60 Q 211 60 197 66 Q 192 68 190 67 Q 188 65 191 62 Q 202 48 202 47 Q 202 45 199 45" fill="#270000" /><path d="M 84 70 L 86 70 Q 87 70 88 72 Q 89 77 88 84 Q 87 98 77 105 Q 73 107 71 104 Q 68 96 72 90 Q 78 81 83 72" fill="#3a0000" /><path d="M 98 75 L 99 75 Q 100 74 103 75 Q 105 76 107 80 Q 109 86 113 90 Q 122 97 143 95 Q 149 94 151 93 L 171 89 Q 177 93 177 95 Q 177 97 173 99 Q 170 101 167 102 Q 137 110 116 101 Q 103 93 99 78" fill="#4e0000" /><path d="M 151 93 Q 153 91 149 76 Q 148 73 149 72 Q 150 70 152 74 Q 160 82 171 89" fill="#4e0000" /><path d="M 116 64 L 116 61 Q 116 59 117 59 Q 123 58 132 66 Q 135 69 135 73 Q 136 76 134 78 Q 132 80 130 79 Q 124 76 118 66" fill="#620000" /><path d="M 160 67 L 159 65 Q 159 63 160 62 Q 162 61 179 65 Q 185 68 187 72 Q 189 78 188 81 Q 187 84 185 84 Q 183 84 166 71" fill="#750000" /><path d="M 75 132 L 70 126 Q 69 123 70 121 Q 71 120 75 120 Q 81 122 86 125 L 89 134 Q 88 142 91 158 L 83 158" fill="#890000" /><path d="M 173 123 Q 168 118 152 123 L 142 125 Q 127 127 113 129 L 107 130 Q 99 131 93 133 Q 91 134 89 134 L 86 125 Q 134 120 174 112 Q 178 111 181 113 Q 195 121 196 125" fill="#9c0000" /><path d="M 168 150 Q 172 136 174 126 Q 174 124 173 123 L 196 125 Q 197 127 194 130 Q 189 135 183 148" fill="#9c0000" /><path d="M 114 156 Q 109 152 108 138 Q 107 131 107 130 L 113 129 Q 113 130 114 130 Q 119 142 119 154 Q 119 154 119 155" fill="#b00000" /><path d="M 136 153 L 136 153 Q 143 127 142 125 L 152 123 Q 154 125 156 127 Q 158 129 155 132 Q 147 141 143 152" fill="#c40000" /><path d="M 91 158 Q 103 156 114 156 L 119 155 Q 126 154 132 153 Q 135 153 136 153 L 143 152 Q 156 151 168 150 L 183 148 Q 196 145 208 144 Q 223 140 238 151 Q 242 155 240 158 Q 239 161 234 160 Q 233 160 233 160 Q 128 155 49 174 Q 45 175 39 173 Q 35 172 31 168 Q 27 163 33 163 Q 58 160 83 158" fill="#d70000" /><path d="M 108 186 L 93 189 Q 89 190 84 189 Q 80 188 77 185 Q 74 180 79 180 Q 134 173 160 169 Q 174 165 186 175 Q 190 178 189 180 Q 187 182 183 182 Q 143 183 137 183 L 126 184" fill="#eb0000" /><path d="M 137 183 Q 144 190 142 201 Q 142 207 143 225 Q 143 241 139 249 Q 136 258 133 259 Q 130 259 126 256 L 127 230 Q 128 228 128 220 Q 129 193 126 184" fill="#ff0000" /><path d="M 126 256 Q 120 248 104 234 Q 101 232 102 231 Q 102 229 105 229 Q 112 231 119 232 Q 126 233 127 230" fill="#ff0000" /></svg>