<svg xmlns="http://www.w3.org/2000/svg" xmlns:xlink="http://www.w3.org/1999/xlink" width="270" height="270"><path d="M 0 0 L 270 270 M 270 0 L 0 270 M 135 0 L 135 270 M 0 135 L 270 135" stroke="#CCCCCC" /><path d="M 89 113 L 81 115 Q 66 119 53 111 Q 45 106 56 105 Q 79 103 100 99 L 115 96 Q 135 91 153 85 Q 162 82 171 84 Q 179 86 181 90 Q 182 92 180 95 Q 177 97 159 101 Q 135 105 113 109 L 98 112" fill="#CCCCCC"/><path d="M 100 99 Q 107 53 100 37 Q 96 30 102 30 Q 106 30 120 38 Q 126 41 123 47 Q 121 54 115 96 L 113 109 Q 110 122 108 132 Q 101 159 92 177 Q 81 195 65 210 Q 39 234 26 233 Q 22 233 23 231 Q 24 229 28 226 Q 70 194 89 147 Q 92 141 98 112" fill="#CCCCCC"/><path d="M 126 131 L 121 120 Q 119 115 123 113 Q 128 112 142 124 Q 148 129 143 138 Q 139 149 136 174 Q 135 196 137 205 L 132 221 Q 126 214 123 205 Q 121 195 124 147" fill="#CCCCCC"/><path d="M 137 205 Q 139 210 147 214 Q 169 223 207 218 Q 217 216 220 211 L 243 217 Q 247 226 237 231 Q 228 236 204 238 Q 150 239 132 221" fill="#CCCCCC"/><path d="M 220 211 Q 224 206 229 178 Q 230 172 233 174 Q 235 175 235 180 Q 238 203 243 217" fill="#CCCCCC"/><path d="M 164 53 L 163 51 Q 162 47 164 46 Q 168 44 188 52 Q 197 56 199 62 Q 201 70 200 73 Q 199 77 196 77 Q 192 78 188 74 Q 179 66 171 59" fill="#CCCCCC"/><path d="M 89 113 L 81 115 Q 66 119 53 111 Q 45 106 56 105 Q 79 103 100 99 L 115 96 Q 135 91 153 85 Q 162 82 171 84 Q 179 86 181 90 Q 182 92 180 95 Q 177 97 159 101 Q 135 105 113 109 L 98 112" fill="#000000" /><path d="M 100 99 Q 107 53 100 37 Q 96 30 102 30 Q 106 30 120 38 Q 126 41 123 47 Q 121 54 115 96 L 113 109 Q 110 122 108 132 Q 101 159 92 177 Q 81 195 65 210 Q 39 234 26 233 Q 22 233 23 231 Q 24 229 28 226 Q 70 194 89 147 Q 92 141 98 112" fill="#550000" /><path d="M 126 131 L 121 120 Q 119 115 123 113 Q 128 112 142 124 Q 148 129 143 138 Q 139 149 136 174 Q 135 196 137 205 L 132 221 Q 126 214 123 205 Q 121 195 124 147" fill="#aa0000" /><path d="M 137 205 Q 139 210 147 214 Q 169 223 207 218 Q 217 216 220 211 L 243 217 Q 247 226 237 231 Q 228 236 204 238 Q 150 239 132 221" fill="#aa0000" /><path d="M 220 211 Q 224 206 229 178 Q 230 172 233 174 Q 235 175 235 180 Q 238 203 243 217" fill="#aa0000" /><path d="M 164 53 L 163 51 Q 162 47 164 46 Q 168 44 188 52 Q 197 56 199 62 Q 201 70 200 73 Q 199 77 196 77 Q 192 78 188 74 Q 179 66 171 59" fill="#ff0000" /></svg>