<svg xmlns="http://www.w3.org/2000/svg" xmlns:xlink="http://www.w3.org/1999/xlink" width="270" height="270"><path d="M 0 0 L 270 270 M 270 0 L 0 270 M 135 0 L 135 270 M 0 135 L 270 135" stroke="#CCCCCC" /><path d="M 109 41 Q 141 35 162 28 Q 177 20 198 37 L 172 40 Q 169 38 163 39 Q 139 44 115 49 Q 113 50 111 51" fill="#CCCCCC"/><path d="M 165 69 Q 169 59 172 47 Q 173 43 172 40 L 198 37 Q 202 42 197 47 Q 188 52 179 71" fill="#CCCCCC"/><path d="M 103 83 Q 129 78 163 69 Q 164 69 165 69 L 179 71 Q 186 75 186 77 Q 185 80 182 80 Q 132 86 108 92 Q 104 93 101 92 L 101 92" fill="#CCCCCC"/><path d="M 81 154 L 70 173 Q 64 181 59 189 Q 33 221 25 221 Q 22 221 23 218 Q 24 216 25 214 Q 53 177 65 154 Q 70 144 73 135 Q 99 59 88 37 Q 86 33 90 31 Q 94 30 99 34 Q 105 37 109 41 L 111 51 Q 110 52 109 55 Q 103 73 103 83 L 101 92 Q 97 108 92 124 L 90 131" fill="#CCCCCC"/><path d="M 92 124 Q 131 120 201 104 Q 214 99 222 101 Q 233 105 241 111 Q 246 115 247 118 L 215 119 Q 215 117 212 117 Q 207 115 111 131 Q 99 133 90 131" fill="#CCCCCC"/><path d="M 247 118 Q 247 120 243 124 Q 238 129 237 137 Q 229 207 218 228 Q 207 248 195 249 L 196 223 Q 200 221 204 214 Q 213 197 216 167 Q 219 124 215 119" fill="#CCCCCC"/><path d="M 195 249 Q 192 249 189 243 Q 184 234 173 222 Q 170 219 170 218 Q 170 216 173 217 Q 192 224 196 223" fill="#CCCCCC"/><path d="M 112 207 L 111 210 Q 110 214 106 209 Q 102 204 101 197 Q 97 174 90 160 Q 88 156 90 155 Q 91 153 93 154 Q 101 155 103 157 L 107 165 Q 108 172 111 193 L 112 203" fill="#CCCCCC"/><path d="M 146 161 Q 144 158 136 159 Q 113 163 107 165 L 103 157 Q 127 153 138 148 Q 150 141 156 145 Q 163 151 169 154" fill="#CCCCCC"/><path d="M 142 186 Q 144 178 146 171 Q 148 163 146 161 L 169 154 Q 175 159 168 166 Q 162 171 156 189" fill="#CCCCCC"/><path d="M 111 193 Q 125 190 140 186 Q 141 186 142 186 L 156 189 Q 162 193 162 194 Q 161 197 158 197 Q 121 200 112 203" fill="#CCCCCC"/><path d="M 109 41 Q 141 35 162 28 Q 177 20 198 37 L 172 40 Q 169 38 163 39 Q 139 44 115 49 Q 113 50 111 51" fill="#000000" /><path d="M 165 69 Q 169 59 172 47 Q 173 43 172 40 L 198 37 Q 202 42 197 47 Q 188 52 179 71" fill="#000000" /><path d="M 103 83 Q 129 78 163 69 Q 164 69 165 69 L 179 71 Q 186 75 186 77 Q 185 80 182 80 Q 132 86 108 92 Q 104 93 101 92 L 101 92" fill="#2a0000" /><path d="M 81 154 L 70 173 Q 64 181 59 189 Q 33 221 25 221 Q 22 221 23 218 Q 24 216 25 214 Q 53 177 65 154 Q 70 144 73 135 Q 99 59 88 37 Q 86 33 90 31 Q 94 30 99 34 Q 105 37 109 41 L 111 51 Q 110 52 109 55 Q 103 73 103 83 L 101 92 Q 97 108 92 124 L 90 131" fill="#550000" /><path d="M 92 124 Q 131 120 201 104 Q 214 99 222 101 Q 233 105 241 111 Q 246 115 247 118 L 215 119 Q 215 117 212 117 Q 207 115 111 131 Q 99 133 90 131" fill="#7f0000" /><path d="M 247 118 Q 247 120 243 124 Q 238 129 237 137 Q 229 207 218 228 Q 207 248 195 249 L 196 223 Q 200 221 204 214 Q 213 197 216 167 Q 219 124 215 119" fill="#7f0000" /><path d="M 195 249 Q 192 249 189 243 Q 184 234 173 222 Q 170 219 170 218 Q 170 216 173 217 Q 192 224 196 223" fill="#7f0000" /><path d="M 112 207 L 111 210 Q 110 214 106 209 Q 102 204 101 197 Q 97 174 90 160 Q 88 156 90 155 Q 91 153 93 154 Q 101 155 103 157 L 107 165 Q 108 172 111 193 L 112 203" fill="#aa0000" /><path d="M 146 161 Q 144 158 136 159 Q 113 163 107 165 L 103 157 Q 127 153 138 148 Q 150 141 156 145 Q 163 151 169 154" fill="#d40000" /><path d="M 142 186 Q 144 178 146 171 Q 148 163 146 161 L 169 154 Q 175 159 168 166 Q 162 171 156 189" fill="#d40000" /><path d="M 111 193 Q 125 190 140 186 Q 141 186 142 186 L 156 189 Q 162 193 162 194 Q 161 197 158 197 Q 121 200 112 203" fill="#ff0000" /></svg>