<svg xmlns="http://www.w3.org/2000/svg" xmlns:xlink="http://www.w3.org/1999/xlink" width="270" height="270"><path d="M 0 0 L 270 270 M 270 0 L 0 270 M 135 0 L 135 270 M 0 135 L 270 135" stroke="#CCCCCC" /><path d="M 104 40 Q 147 34 174 24 Q 181 22 186 24 Q 200 33 205 37 L 177 39 Q 174 36 167 38 Q 141 43 113 48 Q 110 49 109 49" fill="#000000" /><path d="M 170 68 Q 174 58 178 45 Q 179 42 177 39 L 205 37 Q 209 42 204 48 Q 195 51 186 70" fill="#000000" /><path d="M 101 81 Q 132 77 170 68 L 186 70 Q 192 74 192 76 Q 191 78 188 79 Q 132 84 106 90 Q 102 91 100 91" fill="#240000" /><path d="M 90 143 L 69 184 Q 63 193 58 201 Q 32 235 23 236 Q 20 237 21 234 Q 21 232 23 230 Q 51 192 64 164 Q 80 128 88 61 Q 89 46 85 38 Q 83 34 86 32 Q 93 30 104 40 L 109 49 Q 103 65 101 81 L 100 91" fill="#480000" /><path d="M 142 139 Q 125 142 111 146 Q 101 149 92 141 Q 87 137 93 136 Q 119 132 144 128 L 161 125 Q 162 125 163 125 Q 199 118 220 113 Q 230 111 245 121 Q 249 125 248 128 Q 246 131 230 131 Q 186 131 159 136" fill="#6d0000" /><path d="M 136 178 Q 140 157 142 139 L 144 128 Q 145 117 146 108 Q 147 103 143 95 Q 141 91 143 89 Q 146 87 150 89 Q 157 91 166 98 Q 170 103 169 105 Q 162 121 161 125 L 159 136 Q 154 155 149 176" fill="#910000" /><path d="M 125 238 L 124 242 Q 122 247 117 240 Q 113 235 112 227 Q 108 200 100 184 Q 97 179 99 178 Q 100 176 104 177 Q 113 179 116 180 L 120 189 Q 121 197 124 223 L 125 232" fill="#b60000" /><path d="M 116 180 Q 127 179 136 178 L 149 176 Q 151 176 153 175 Q 167 172 182 168 Q 197 160 219 178 L 190 181 Q 187 178 180 179 Q 128 188 120 189" fill="#da0000" /><path d="M 185 214 Q 189 203 191 189 Q 192 183 190 181 L 219 178 Q 223 184 218 189 Q 209 195 201 217" fill="#da0000" /><path d="M 124 223 Q 151 221 185 214 L 201 217 Q 208 221 208 224 Q 208 226 204 227 Q 155 228 132 233 Q 128 233 125 232" fill="#ff0000" /></svg>