<svg xmlns="http://www.w3.org/2000/svg" xmlns:xlink="http://www.w3.org/1999/xlink" width="270" height="270"><path d="M 0 0 L 270 270 M 270 0 L 0 270 M 135 0 L 135 270 M 0 135 L 270 135" stroke="#CCCCCC" /><path d="M 141 58 Q 142 23 137 17 Q 136 14 137 12 Q 139 10 143 11 Q 148 12 155 17 Q 160 20 159 22 Q 154 39 151 57" fill="#000000" /><path d="M 96 83 Q 93 85 90 83 Q 86 80 83 76 Q 82 73 86 69 Q 90 64 92 56 Q 94 46 91 36 Q 89 31 92 30 Q 95 30 97 32 Q 103 35 106 40 Q 108 43 105 61" fill="#240000" /><path d="M 184 60 L 160 64 Q 104 74 96 83 L 105 61 Q 103 66 108 65 Q 123 61 141 58 L 151 57 Q 170 54 192 52 L 190 62" fill="#240000" /><path d="M 192 52 Q 196 46 197 38 Q 197 24 195 22 Q 195 18 197 18 Q 200 16 203 19 Q 211 25 215 29 Q 217 33 215 36 Q 214 37 208 48 Q 205 69 198 75 Q 194 77 193 73 Q 191 68 190 62" fill="#480000" /><path d="M 103 102 Q 136 99 162 92 Q 192 83 199 85 Q 206 87 208 90 Q 209 92 206 94 Q 204 96 189 99 Q 156 105 124 111 Q 114 113 102 109" fill="#6d0000" /><path d="M 99 115 L 96 130 Q 85 169 68 197 Q 64 201 61 206 Q 39 230 31 230 Q 29 230 30 228 Q 30 226 32 225 Q 51 203 63 181 Q 66 175 69 169 Q 90 109 83 95 Q 81 92 85 90 Q 88 89 93 93 Q 99 97 103 102 L 102 109" fill="#910000" /><path d="M 143 136 L 139 137 Q 124 140 114 133 Q 108 129 117 128 Q 138 126 164 121 Q 184 114 191 116 Q 199 118 200 121 Q 201 123 199 125 Q 198 127 186 129 Q 174 131 162 133 L 146 136" fill="#b60000" /><path d="M 162 159 Q 193 153 212 149 Q 222 147 236 157 Q 240 161 239 164 Q 237 167 221 166 Q 185 166 161 170 L 145 172 Q 126 174 109 179 Q 97 183 88 174 Q 84 170 90 169 Q 119 165 145 162" fill="#da0000" /><path d="M 162 133 Q 162 146 162 159 L 161 170 Q 160 188 160 206 Q 160 241 155 252 Q 152 259 149 256 Q 142 249 145 172 L 145 162 Q 146 149 146 136" fill="#ff0000" /></svg>