<svg xmlns="http://www.w3.org/2000/svg" xmlns:xlink="http://www.w3.org/1999/xlink" width="270" height="270"><path d="M 0 0 L 270 270 M 270 0 L 0 270 M 135 0 L 135 270 M 0 135 L 270 135" stroke="#CCCCCC" /><path d="M 125 59 Q 125 24 121 18 Q 119 15 121 13 Q 123 11 127 12 Q 132 13 140 18 Q 144 21 144 24 Q 141 32 136 58" fill="#000000" /><path d="M 80 82 Q 78 84 75 82 Q 71 79 68 75 Q 66 72 71 68 Q 75 64 77 55 Q 79 46 76 36 Q 74 32 77 31 Q 79 30 82 32 Q 87 36 91 40 Q 92 43 89 60" fill="#190000" /><path d="M 171 63 L 171 64 Q 166 61 142 65 Q 88 73 80 82 L 89 60 Q 87 66 92 65 Q 107 61 125 59 L 136 58 Q 154 55 174 54 L 172 64" fill="#190000" /><path d="M 174 54 Q 175 53 175 53 Q 183 34 179 23 Q 179 20 180 20 Q 183 19 186 21 Q 193 26 197 31 Q 198 34 196 37 Q 195 38 189 52 Q 184 71 178 76 Q 174 78 173 74 Q 172 70 172 64" fill="#330000" /><path d="M 118 82 L 117 79 Q 117 76 118 76 Q 120 74 129 77 Q 144 79 147 89 Q 148 92 147 95 Q 145 99 141 98 Q 134 96 122 85" fill="#4c0000" /><path d="M 47 152 L 46 154 Q 42 161 37 154 Q 30 140 35 133 Q 51 118 50 107 Q 50 99 55 104 Q 58 106 62 113 L 61 121" fill="#660000" /><path d="M 62 113 Q 129 104 195 95 Q 212 91 219 97 L 200 105 Q 194 104 172 106 Q 109 114 82 121 Q 68 125 61 121" fill="#7f0000" /><path d="M 219 97 Q 239 114 239 116 Q 239 119 228 121 Q 216 122 199 131 Q 194 134 191 133 Q 189 132 192 127 Q 202 109 202 108 Q 203 107 200 105" fill="#7f0000" /><path d="M 107 137 L 118 135 Q 128 132 138 129 Q 146 126 153 128 Q 160 130 162 133 Q 163 135 161 137 Q 160 138 151 140 Q 133 143 115 147 Q 101 150 90 144 Q 84 140 93 138" fill="#990000" /><path d="M 98 177 L 79 182 Q 74 183 69 182 Q 65 180 61 177 Q 57 172 63 172 Q 139 162 173 155 Q 182 153 196 162 Q 200 166 198 169 Q 197 171 192 171 Q 146 171 129 173 L 119 174" fill="#b20000" /><path d="M 129 173 Q 132 176 135 179 Q 140 185 138 196 Q 137 203 138 221 Q 138 238 133 247 Q 130 256 127 257 Q 124 258 120 255 L 120 226 Q 122 224 122 217 Q 123 187 120 177 Q 119 175 119 174" fill="#cc0000" /><path d="M 120 255 Q 115 247 99 234 Q 96 231 97 229 Q 97 228 100 228 Q 106 228 112 229 Q 119 230 120 226" fill="#cc0000" /><path d="M 75 192 L 78 192 Q 80 193 81 196 Q 82 203 79 212 Q 77 229 62 237 Q 55 240 54 235 Q 50 224 57 215 Q 66 206 74 195" fill="#e50000" /><path d="M 162 196 L 162 192 Q 163 188 165 190 Q 172 192 186 197 Q 197 202 202 206 Q 207 210 209 217 Q 213 229 209 233 Q 207 236 205 235 Q 200 234 196 229 Q 179 211 165 199" fill="#ff0000" /></svg>