<svg xmlns="http://www.w3.org/2000/svg" xmlns:xlink="http://www.w3.org/1999/xlink" width="270" height="270"><path d="M 0 0 L 270 270 M 270 0 L 0 270 M 135 0 L 135 270 M 0 135 L 270 135" stroke="#CCCCCC" /><path d="M 126 49 Q 125 20 121 15 Q 119 12 121 11 Q 123 9 126 10 Q 131 11 139 15 Q 143 19 142 21 Q 139 26 135 48" fill="#000000" /><path d="M 83 73 Q 80 75 77 73 Q 73 70 71 67 Q 70 63 74 60 Q 77 56 78 48 Q 80 39 76 30 Q 75 26 77 25 Q 79 24 82 26 Q 87 29 91 33 Q 93 37 90 52" fill="#150000" /><path d="M 167 50 L 144 54 Q 90 64 83 73 L 90 52 Q 89 57 93 56 Q 108 52 126 49 L 135 48 Q 154 45 175 43 L 172 52" fill="#150000" /><path d="M 175 43 Q 184 25 180 14 Q 180 11 182 11 Q 185 10 188 12 Q 194 18 198 23 Q 200 26 198 30 Q 196 31 190 41 Q 185 61 178 66 Q 174 67 173 63 Q 172 58 172 52" fill="#2a0000" /><path d="M 119 68 L 118 67 Q 118 64 118 64 Q 120 63 123 63 Q 138 64 140 68 Q 142 73 142 76 Q 141 79 139 79 Q 137 80 133 78 Q 129 74 125 72" fill="#3f0000" /><path d="M 147 82 L 185 74 Q 193 72 205 80 Q 209 83 208 85 Q 207 87 203 87 Q 202 87 202 87 Q 125 88 71 105 Q 68 106 63 105 Q 59 104 56 101 Q 52 97 57 96" fill="#550000" /><path d="M 106 149 L 106 151 Q 104 155 100 150 Q 97 147 96 142 Q 91 127 85 118 Q 83 114 84 113 Q 85 112 88 112 Q 93 112 97 113 L 102 120 Q 102 125 105 139 L 106 146" fill="#6a0000" /><path d="M 97 113 Q 128 108 147 101 Q 151 99 155 101 Q 167 107 170 110 L 149 112 Q 147 111 142 112 Q 104 119 102 120" fill="#7f0000" /><path d="M 146 131 Q 148 125 150 116 Q 150 113 149 112 L 170 110 Q 173 114 169 118 Q 164 120 158 131" fill="#7f0000" /><path d="M 105 139 Q 123 136 146 131 L 158 131 Q 164 135 164 137 Q 164 139 162 139 Q 126 142 110 146 Q 107 146 106 146" fill="#940000" /><path d="M 63 181 L 64 217 Q 64 232 63 237 Q 62 242 61 243 Q 60 246 56 243 Q 52 240 49 235 Q 47 230 48 223 Q 54 183 46 168 Q 45 165 46 163 Q 47 161 49 162 Q 53 163 59 168 L 65 179" fill="#aa0000" /><path d="M 59 168 Q 71 167 88 163 Q 112 158 176 152 Q 190 150 198 147 Q 202 145 207 149 Q 220 158 222 162 L 199 163 Q 197 160 191 160 Q 170 160 150 162 Q 123 165 65 179" fill="#bf0000" /><path d="M 222 162 Q 224 164 220 169 Q 215 177 215 193 Q 214 237 210 245 Q 208 252 203 257 Q 200 260 196 256 L 194 228 Q 198 221 199 169 Q 201 165 199 163" fill="#bf0000" /><path d="M 196 256 Q 189 246 172 233 Q 166 228 174 228 Q 182 229 189 230 Q 193 231 194 228" fill="#bf0000" /><path d="M 106 227 L 106 230 Q 104 234 100 229 Q 97 225 96 220 Q 92 201 86 190 Q 84 187 85 185 Q 86 184 89 184 Q 96 186 98 187 L 102 194 Q 103 199 105 215 L 106 223" fill="#d40000" /><path d="M 139 189 Q 137 186 130 188 Q 109 191 102 194 L 98 187 Q 126 182 138 175 Q 143 173 147 175 Q 153 180 158 183" fill="#e90000" /><path d="M 135 209 Q 137 202 139 197 Q 140 190 139 189 L 158 183 Q 164 187 158 193 Q 153 197 148 210" fill="#e90000" /><path d="M 105 215 Q 119 213 135 209 L 148 210 Q 155 215 155 216 Q 154 218 152 219 Q 124 220 111 223 Q 109 223 106 223" fill="#ff0000" /></svg>