<svg xmlns="http://www.w3.org/2000/svg" xmlns:xlink="http://www.w3.org/1999/xlink" width="270" height="270"><path d="M 0 0 L 270 270 M 270 0 L 0 270 M 135 0 L 135 270 M 0 135 L 270 135" stroke="#CCCCCC" /><path d="M 117 22 L 116 18 Q 115 15 117 14 Q 119 14 130 15 Q 145 18 149 29 Q 150 34 148 38 Q 146 41 141 41 Q 133 37 122 25" fill="#000000" /><path d="M 62 77 L 58 88 Q 54 99 50 106 Q 44 113 40 106 Q 38 104 38 102 Q 32 85 39 82 Q 56 64 54 54 Q 55 47 60 51 Q 63 54 66 61 L 66 70" fill="#240000" /><path d="M 66 61 Q 81 59 95 58 Q 157 48 188 45 Q 210 41 217 46 L 198 53 Q 194 52 180 54 Q 111 61 81 71 Q 72 73 66 70" fill="#480000" /><path d="M 217 46 Q 237 61 237 64 Q 237 66 227 68 Q 215 71 200 79 Q 195 82 193 81 L 193 81 Q 197 69 202 58 Q 202 56 198 53" fill="#480000" /><path d="M 96 74 L 100 74 Q 103 75 107 80 Q 112 86 112 88 Q 112 91 110 93 Q 107 94 104 97 Q 79 118 69 118 Q 66 118 67 116 Q 68 115 70 113 Q 78 106 85 99 Q 97 84 96 78" fill="#6d0000" /><path d="M 151 77 L 150 75 Q 150 72 151 71 Q 156 69 177 78 Q 187 83 189 90 Q 191 96 190 100 Q 189 103 187 103 Q 183 103 180 101 Q 168 90 157 82" fill="#910000" /><path d="M 96 140 Q 96 145 96 159 Q 96 195 88 201 Q 86 203 84 199 Q 82 198 82 196 Q 74 184 80 176 Q 87 150 77 132 Q 75 129 79 128 Q 83 127 90 131" fill="#b60000" /><path d="M 125 135 Q 108 138 96 140 L 90 131 Q 112 128 125 127 L 140 125 Q 140 125 141 125 Q 170 119 172 117 Q 175 114 178 116 Q 183 119 191 126 L 166 130 Q 153 131 139 133" fill="#da0000" /><path d="M 191 126 Q 193 129 192 135 Q 190 149 191 179 Q 191 194 181 205 Q 177 209 173 205 L 171 181 Q 176 175 174 136 Q 174 131 166 130" fill="#da0000" /><path d="M 173 205 Q 165 195 152 183 Q 149 179 150 178 Q 151 177 155 178 Q 168 181 171 181" fill="#da0000" /><path d="M 123 236 L 125 135 L 125 127 Q 125 115 119 105 Q 117 103 120 100 Q 124 98 127 100 Q 131 100 139 106 Q 143 108 142 113 Q 140 124 140 125 L 139 133 Q 138 188 138 203 Q 138 220 136 237 Q 134 252 130 255 Q 129 255 127 253 Q 125 251 124 244" fill="#ff0000" /></svg>