<svg xmlns="http://www.w3.org/2000/svg" xmlns:xlink="http://www.w3.org/1999/xlink" width="270" height="270"><path d="M 0 0 L 270 270 M 270 0 L 0 270 M 135 0 L 135 270 M 0 135 L 270 135" stroke="#CCCCCC" /><path d="M 124 68 Q 121 68 118 69 Q 103 72 92 66 Q 85 61 95 60 Q 110 59 124 57 L 140 53 Q 161 46 169 48 Q 177 50 179 53 Q 180 56 177 58 Q 176 59 165 61 Q 151 63 139 66" fill="#CCCCCC"/><path d="M 124 91 Q 124 79 124 68 L 124 57 Q 123 42 122 28 Q 122 24 118 17 Q 115 13 117 11 Q 119 9 124 10 Q 131 11 140 16 Q 146 20 145 24 Q 141 37 140 53 L 139 66 Q 137 77 136 89" fill="#CCCCCC"/><path d="M 148 98 L 147 98 Q 98 100 49 112 Q 45 114 39 112 Q 34 110 29 106 Q 25 101 31 101 Q 81 95 124 91 L 136 89 Q 178 83 205 79 Q 222 74 239 86 Q 244 90 242 94 Q 241 96 235 96 Q 172 96 158 97" fill="#CCCCCC"/><path d="M 93 109 L 94 107 Q 95 104 96 105 Q 99 105 104 110 Q 114 118 113 127 Q 112 131 109 133 Q 107 134 104 132 Q 99 127 95 114" fill="#CCCCCC"/><path d="M 136 136 Q 137 133 140 129 Q 150 105 148 98 L 158 97 Q 164 102 166 106 Q 168 109 164 111 Q 162 113 146 134" fill="#CCCCCC"/><path d="M 122 150 Q 113 151 106 152 Q 93 155 86 148 Q 81 143 88 142 Q 128 137 132 137 Q 134 136 136 136 L 146 134 Q 161 130 170 135 Q 176 138 176 141 Q 175 141 175 142 Q 156 145 137 148" fill="#CCCCCC"/><path d="M 103 180 L 67 189 Q 63 190 57 188 Q 52 187 49 183 Q 45 179 51 178 Q 89 174 122 170 L 137 168 Q 167 164 186 161 Q 195 159 209 169 Q 213 173 212 176 Q 211 178 205 178 Q 146 178 137 179 L 122 180" fill="#CCCCCC"/><path d="M 122 170 Q 122 160 122 150 L 137 148 Q 137 158 137 168 L 137 179 Q 137 182 137 186 Q 137 244 133 254 Q 130 260 127 257 Q 121 251 122 180" fill="#CCCCCC"/><path d="M 124 68 Q 121 68 118 69 Q 103 72 92 66 Q 85 61 95 60 Q 110 59 124 57 L 140 53 Q 161 46 169 48 Q 177 50 179 53 Q 180 56 177 58 Q 176 59 165 61 Q 151 63 139 66" fill="#000000" /><path d="M 124 91 Q 124 79 124 68 L 124 57 Q 123 42 122 28 Q 122 24 118 17 Q 115 13 117 11 Q 119 9 124 10 Q 131 11 140 16 Q 146 20 145 24 Q 141 37 140 53 L 139 66 Q 137 77 136 89" fill="#240000" /><path d="M 148 98 L 147 98 Q 98 100 49 112 Q 45 114 39 112 Q 34 110 29 106 Q 25 101 31 101 Q 81 95 124 91 L 136 89 Q 178 83 205 79 Q 222 74 239 86 Q 244 90 242 94 Q 241 96 235 96 Q 172 96 158 97" fill="#480000" /><path d="M 93 109 L 94 107 Q 95 104 96 105 Q 99 105 104 110 Q 114 118 113 127 Q 112 131 109 133 Q 107 134 104 132 Q 99 127 95 114" fill="#6d0000" /><path d="M 136 136 Q 137 133 140 129 Q 150 105 148 98 L 158 97 Q 164 102 166 106 Q 168 109 164 111 Q 162 113 146 134" fill="#910000" /><path d="M 122 150 Q 113 151 106 152 Q 93 155 86 148 Q 81 143 88 142 Q 128 137 132 137 Q 134 136 136 136 L 146 134 Q 161 130 170 135 Q 176 138 176 141 Q 175 141 175 142 Q 156 145 137 148" fill="#b60000" /><path d="M 103 180 L 67 189 Q 63 190 57 188 Q 52 187 49 183 Q 45 179 51 178 Q 89 174 122 170 L 137 168 Q 167 164 186 161 Q 195 159 209 169 Q 213 173 212 176 Q 211 178 205 178 Q 146 178 137 179 L 122 180" fill="#da0000" /><path d="M 122 170 Q 122 160 122 150 L 137 148 Q 137 158 137 168 L 137 179 Q 137 182 137 186 Q 137 244 133 254 Q 130 260 127 257 Q 121 251 122 180" fill="#ff0000" /></svg>