<svg xmlns="http://www.w3.org/2000/svg" xmlns:xlink="http://www.w3.org/1999/xlink" width="270" height="270"><path d="M 0 0 L 270 270 M 270 0 L 0 270 M 135 0 L 135 270 M 0 135 L 270 135" stroke="#CCCCCC" /><path d="M 41 141 Q 38 143 35 139 Q 31 134 30 129 Q 30 126 35 122 Q 46 112 51 103 Q 67 74 70 60 Q 71 53 70 48 Q 68 44 71 43 Q 76 42 80 46 Q 91 54 92 58 Q 93 61 89 65 Q 71 88 53 119" fill="#000000" /><path d="M 78 134 Q 76 134 73 134 Q 49 137 41 141 L 53 119 Q 49 125 58 125 Q 69 126 83 127" fill="#000000" /><path d="M 51 205 Q 46 208 43 205 Q 35 199 34 195 Q 33 191 37 188 Q 46 183 78 134 L 83 127 Q 98 100 97 88 Q 96 83 99 82 Q 102 81 107 84 Q 118 90 121 95 Q 123 98 119 102 Q 112 109 104 120 Q 73 159 61 178" fill="#3f0000" /><path d="M 72 188 L 51 205 L 61 178 Q 57 185 64 182 Q 85 174 103 170 L 106 176" fill="#3f0000" /><path d="M 103 170 Q 96 157 96 154 Q 97 151 98 151 Q 99 151 103 153 Q 123 169 123 179 Q 122 186 120 189 Q 118 191 116 190 Q 111 189 106 176" fill="#7f0000" /><path d="M 151 118 L 143 120 Q 136 123 129 118 Q 123 115 124 112 Q 124 110 129 110 Q 141 110 163 105 L 180 102 Q 196 97 207 92 Q 215 89 222 92 Q 232 97 236 102 L 209 109 Q 208 107 204 107 Q 191 109 177 112 L 161 116" fill="#bf0000" /><path d="M 236 102 Q 239 105 234 111 Q 228 120 226 137 Q 218 211 200 228 Q 193 236 188 237 L 190 207 Q 195 203 199 189 Q 207 166 210 124 Q 211 113 209 109" fill="#bf0000" /><path d="M 188 237 Q 183 237 181 231 Q 177 221 167 207 Q 164 200 170 203 Q 176 205 182 207 Q 187 210 190 207" fill="#bf0000" /><path d="M 163 105 Q 167 85 170 57 Q 171 49 163 39 Q 159 34 165 32 Q 170 31 176 35 Q 186 39 191 45 Q 193 47 191 51 Q 184 67 180 102 L 177 112 Q 168 151 150 183 Q 141 198 130 209 Q 116 224 107 230 Q 95 238 92 238 Q 88 238 89 236 Q 90 235 93 233 Q 98 228 103 223 Q 144 183 160 119 Q 160 117 161 116" fill="#ff0000" /></svg>