<svg xmlns="http://www.w3.org/2000/svg" xmlns:xlink="http://www.w3.org/1999/xlink" width="270" height="270"><path d="M 0 0 L 270 270 M 270 0 L 0 270 M 135 0 L 135 270 M 0 135 L 270 135" stroke="#CCCCCC" /><path d="M 125 25 L 124 22 Q 123 18 125 18 Q 128 17 138 19 Q 156 23 160 33 Q 161 38 160 41 Q 158 45 154 45 Q 143 40 129 28" fill="#CCCCCC"/><path d="M 123 69 L 167 58 Q 190 51 198 53 Q 206 55 208 58 Q 209 61 206 63 Q 205 64 202 65 Q 196 66 103 82 Q 93 84 82 80 L 80 72" fill="#CCCCCC"/><path d="M 82 80 Q 80 82 77 109 Q 71 160 53 199 Q 49 205 46 212 Q 24 245 15 247 Q 12 247 13 244 Q 14 243 15 241 Q 36 211 47 181 Q 60 146 63 102 Q 63 100 63 99 Q 65 80 59 70 Q 58 66 61 64 Q 64 63 70 66 Q 76 69 80 72" fill="#CCCCCC"/><path d="M 167 113 Q 136 124 134 124 Q 133 123 134 121 Q 178 98 178 89 Q 178 86 180 85 Q 189 84 202 93 Q 205 96 204 98 Q 203 100 199 100 Q 190 103 175 110" fill="#CCCCCC"/><path d="M 170 150 Q 158 152 148 155 Q 138 154 133 150 Q 128 146 134 145 Q 145 144 170 141 L 183 138 Q 185 137 188 137 Q 213 129 220 134 Q 225 137 225 140 Q 223 142 221 142 Q 195 145 182 148" fill="#CCCCCC"/><path d="M 182 163 L 181 181 L 170 183 Q 170 163 170 150 L 170 141 Q 170 117 167 113 L 175 110 Q 179 112 184 117 Q 184 118 184 129 Q 183 133 183 138 L 182 148" fill="#CCCCCC"/><path d="M 181 181 Q 187 179 193 178 Q 206 174 220 183 Q 224 186 223 189 Q 222 190 217 191 Q 176 190 154 197 Q 150 198 145 197 Q 141 196 138 193 Q 134 189 139 188 Q 156 185 170 183" fill="#CCCCCC"/><path d="M 104 120 Q 103 118 99 119 Q 92 121 86 121 Q 82 122 80 120 Q 78 118 81 117 Q 90 115 102 107 Q 106 104 112 107 Q 120 110 123 113 Q 125 116 121 120" fill="#CCCCCC"/><path d="M 97 154 Q 92 154 91 152 Q 90 149 93 145 Q 97 141 101 129 Q 104 122 104 120 L 121 120 Q 119 121 103 146" fill="#CCCCCC"/><path d="M 97 154 L 103 146 Q 102 148 102 148 Q 104 150 111 149 Q 117 148 121 150 Q 125 151 128 155" fill="#CCCCCC"/><path d="M 101 205 L 96 211 Q 87 222 70 230 Q 67 232 67 231 Q 66 231 68 228 Q 87 208 97 193 L 101 185 Q 105 178 110 162 Q 111 153 97 154 L 128 155 Q 130 157 127 160 Q 126 160 111 190 L 106 198" fill="#CCCCCC"/><path d="M 97 193 Q 86 187 77 187 Q 74 187 72 184 Q 71 182 73 181 Q 87 177 101 185 L 111 190 Q 112 190 113 191 Q 177 228 216 230 Q 234 230 252 232 Q 257 232 257 234 Q 256 237 253 239 Q 233 245 208 250 Q 206 250 205 251 Q 184 252 118 205 Q 112 201 106 198" fill="#CCCCCC"/><path d="M 125 25 L 124 22 Q 123 18 125 18 Q 128 17 138 19 Q 156 23 160 33 Q 161 38 160 41 Q 158 45 154 45 Q 143 40 129 28" fill="#000000" /><path d="M 123 69 L 167 58 Q 190 51 198 53 Q 206 55 208 58 Q 209 61 206 63 Q 205 64 202 65 Q 196 66 103 82 Q 93 84 82 80 L 80 72" fill="#1f0000" /><path d="M 82 80 Q 80 82 77 109 Q 71 160 53 199 Q 49 205 46 212 Q 24 245 15 247 Q 12 247 13 244 Q 14 243 15 241 Q 36 211 47 181 Q 60 146 63 102 Q 63 100 63 99 Q 65 80 59 70 Q 58 66 61 64 Q 64 63 70 66 Q 76 69 80 72" fill="#3f0000" /><path d="M 167 113 Q 136 124 134 124 Q 133 123 134 121 Q 178 98 178 89 Q 178 86 180 85 Q 189 84 202 93 Q 205 96 204 98 Q 203 100 199 100 Q 190 103 175 110" fill="#5f0000" /><path d="M 170 150 Q 158 152 148 155 Q 138 154 133 150 Q 128 146 134 145 Q 145 144 170 141 L 183 138 Q 185 137 188 137 Q 213 129 220 134 Q 225 137 225 140 Q 223 142 221 142 Q 195 145 182 148" fill="#7f0000" /><path d="M 182 163 L 181 181 L 170 183 Q 170 163 170 150 L 170 141 Q 170 117 167 113 L 175 110 Q 179 112 184 117 Q 184 118 184 129 Q 183 133 183 138 L 182 148" fill="#9f0000" /><path d="M 181 181 Q 187 179 193 178 Q 206 174 220 183 Q 224 186 223 189 Q 222 190 217 191 Q 176 190 154 197 Q 150 198 145 197 Q 141 196 138 193 Q 134 189 139 188 Q 156 185 170 183" fill="#bf0000" /><path d="M 104 120 Q 103 118 99 119 Q 92 121 86 121 Q 82 122 80 120 Q 78 118 81 117 Q 90 115 102 107 Q 106 104 112 107 Q 120 110 123 113 Q 125 116 121 120" fill="#df0000" /><path d="M 97 154 Q 92 154 91 152 Q 90 149 93 145 Q 97 141 101 129 Q 104 122 104 120 L 121 120 Q 119 121 103 146" fill="#df0000" /><path d="M 97 154 L 103 146 Q 102 148 102 148 Q 104 150 111 149 Q 117 148 121 150 Q 125 151 128 155" fill="#df0000" /><path d="M 101 205 L 96 211 Q 87 222 70 230 Q 67 232 67 231 Q 66 231 68 228 Q 87 208 97 193 L 101 185 Q 105 178 110 162 Q 111 153 97 154 L 128 155 Q 130 157 127 160 Q 126 160 111 190 L 106 198" fill="#df0000" /><path d="M 97 193 Q 86 187 77 187 Q 74 187 72 184 Q 71 182 73 181 Q 87 177 101 185 L 111 190 Q 112 190 113 191 Q 177 228 216 230 Q 234 230 252 232 Q 257 232 257 234 Q 256 237 253 239 Q 233 245 208 250 Q 206 250 205 251 Q 184 252 118 205 Q 112 201 106 198" fill="#ff0000" /></svg>