<svg xmlns="http://www.w3.org/2000/svg" xmlns:xlink="http://www.w3.org/1999/xlink" width="270" height="270"><path d="M 0 0 L 270 270 M 270 0 L 0 270 M 135 0 L 135 270 M 0 135 L 270 135" stroke="#CCCCCC" /><path d="M 120 29 L 119 25 Q 118 21 120 20 Q 123 18 143 25 Q 150 29 152 34 Q 154 43 153 47 Q 152 51 148 51 Q 144 51 140 47 Q 133 41 127 35" fill="#CCCCCC"/><path d="M 76 73 Q 77 73 78 73 Q 117 70 159 59 Q 186 52 192 53 Q 200 55 201 59 Q 203 61 200 63 Q 197 66 179 69 Q 139 76 101 82 Q 89 85 78 81" fill="#CCCCCC"/><path d="M 62 162 Q 56 176 51 189 Q 47 195 44 201 Q 23 232 15 233 Q 12 233 13 230 Q 14 229 15 227 Q 36 194 45 172 Q 57 142 60 100 Q 60 99 60 98 Q 62 79 57 71 Q 55 67 58 65 Q 62 64 67 67 Q 72 70 76 73 L 78 81 Q 77 82 76 91 Q 68 140 65 152 Q 64 154 63 156" fill="#CCCCCC"/><path d="M 106 152 Q 106 128 105 107 Q 104 104 101 99 Q 99 95 101 94 Q 103 92 106 93 Q 111 94 119 98 Q 124 101 123 104 Q 120 109 116 150" fill="#CCCCCC"/><path d="M 75 129 L 74 126 Q 74 123 75 122 Q 77 122 80 123 Q 96 127 98 133 Q 99 139 98 142 Q 97 146 95 145 Q 91 146 88 142 Q 84 137 80 134" fill="#CCCCCC"/><path d="M 139 112 L 139 108 Q 139 104 142 104 Q 147 105 151 109 Q 156 113 157 117 Q 158 119 153 120 Q 145 124 127 135 Q 125 136 124 136 Q 122 134 124 133 Q 133 122 138 115" fill="#CCCCCC"/><path d="M 77 168 Q 77 173 77 193 Q 77 230 70 235 Q 68 236 66 233 Q 62 229 61 222 Q 58 215 62 213 Q 71 181 62 162 L 63 156 Q 67 156 73 159" fill="#CCCCCC"/><path d="M 131 157 Q 128 154 123 156 Q 80 165 77 168 L 73 159 Q 89 156 103 153 Q 104 152 106 152 L 116 150 Q 132 144 136 146 Q 146 151 149 154" fill="#CCCCCC"/><path d="M 147 232 Q 146 238 144 244 Q 142 250 139 250 Q 136 251 132 247 L 131 227 Q 136 223 133 166 Q 133 158 131 157 L 149 154 Q 151 157 148 161 Q 145 169 148 221 Q 148 225 147 229" fill="#CCCCCC"/><path d="M 132 247 Q 125 239 112 229 Q 110 228 110 226 Q 110 224 113 225 Q 127 229 131 227" fill="#CCCCCC"/><path d="M 97 209 L 96 211 Q 95 214 92 210 Q 89 207 89 203 Q 87 188 83 179 Q 81 176 82 175 Q 83 175 85 175 Q 90 176 91 177 L 95 182 Q 95 186 96 199 L 97 206" fill="#CCCCCC"/><path d="M 113 178 Q 112 177 109 178 L 95 182 L 91 177 Q 97 175 102 173 Q 107 171 111 168 Q 115 166 118 167 Q 124 170 128 172 Q 132 175 128 180" fill="#CCCCCC"/><path d="M 112 194 Q 115 179 113 178 L 128 180 Q 125 184 122 195" fill="#CCCCCC"/><path d="M 96 199 Q 102 197 110 194 Q 111 194 112 194 L 122 195 Q 126 198 126 199 Q 126 201 124 201 Q 104 204 97 206" fill="#CCCCCC"/><path d="M 174 142 Q 174 142 174 143 Q 160 165 153 168 Q 150 169 150 166 Q 151 165 152 162 Q 182 105 174 93 Q 171 88 175 87 Q 180 86 187 89 Q 194 93 196 96 Q 198 99 196 102 Q 193 106 190 114 Q 184 127 178 136" fill="#CCCCCC"/><path d="M 193 145 Q 181 145 174 142 L 178 136 Q 194 133 205 130 Q 223 123 230 124 Q 237 125 239 128 Q 240 130 238 132 Q 237 133 230 135 Q 215 139 201 143" fill="#CCCCCC"/><path d="M 191 213 L 190 214 Q 173 232 147 232 L 147 229 Q 147 229 148 229 Q 174 216 185 202 L 190 192 Q 190 192 190 192 Q 200 161 196 151 Q 193 145 193 145 L 201 143 Q 211 145 214 149 Q 215 151 213 153 Q 212 155 211 160 Q 207 187 199 202 L 191 212" fill="#CCCCCC"/><path d="M 185 202 Q 170 178 162 172 Q 160 170 161 169 Q 163 168 166 168 Q 173 169 176 174 Q 183 184 190 192 L 199 202 Q 214 216 226 221 Q 251 233 254 235 Q 257 237 255 238 Q 252 240 250 240 Q 240 241 228 242 Q 218 243 213 237 Q 199 223 191 212" fill="#CCCCCC"/><path d="M 120 29 L 119 25 Q 118 21 120 20 Q 123 18 143 25 Q 150 29 152 34 Q 154 43 153 47 Q 152 51 148 51 Q 144 51 140 47 Q 133 41 127 35" fill="#000000" /><path d="M 76 73 Q 77 73 78 73 Q 117 70 159 59 Q 186 52 192 53 Q 200 55 201 59 Q 203 61 200 63 Q 197 66 179 69 Q 139 76 101 82 Q 89 85 78 81" fill="#120000" /><path d="M 62 162 Q 56 176 51 189 Q 47 195 44 201 Q 23 232 15 233 Q 12 233 13 230 Q 14 229 15 227 Q 36 194 45 172 Q 57 142 60 100 Q 60 99 60 98 Q 62 79 57 71 Q 55 67 58 65 Q 62 64 67 67 Q 72 70 76 73 L 78 81 Q 77 82 76 91 Q 68 140 65 152 Q 64 154 63 156" fill="#240000" /><path d="M 106 152 Q 106 128 105 107 Q 104 104 101 99 Q 99 95 101 94 Q 103 92 106 93 Q 111 94 119 98 Q 124 101 123 104 Q 120 109 116 150" fill="#360000" /><path d="M 75 129 L 74 126 Q 74 123 75 122 Q 77 122 80 123 Q 96 127 98 133 Q 99 139 98 142 Q 97 146 95 145 Q 91 146 88 142 Q 84 137 80 134" fill="#480000" /><path d="M 139 112 L 139 108 Q 139 104 142 104 Q 147 105 151 109 Q 156 113 157 117 Q 158 119 153 120 Q 145 124 127 135 Q 125 136 124 136 Q 122 134 124 133 Q 133 122 138 115" fill="#5b0000" /><path d="M 77 168 Q 77 173 77 193 Q 77 230 70 235 Q 68 236 66 233 Q 62 229 61 222 Q 58 215 62 213 Q 71 181 62 162 L 63 156 Q 67 156 73 159" fill="#6d0000" /><path d="M 131 157 Q 128 154 123 156 Q 80 165 77 168 L 73 159 Q 89 156 103 153 Q 104 152 106 152 L 116 150 Q 132 144 136 146 Q 146 151 149 154" fill="#7f0000" /><path d="M 147 232 Q 146 238 144 244 Q 142 250 139 250 Q 136 251 132 247 L 131 227 Q 136 223 133 166 Q 133 158 131 157 L 149 154 Q 151 157 148 161 Q 145 169 148 221 Q 148 225 147 229" fill="#7f0000" /><path d="M 132 247 Q 125 239 112 229 Q 110 228 110 226 Q 110 224 113 225 Q 127 229 131 227" fill="#7f0000" /><path d="M 97 209 L 96 211 Q 95 214 92 210 Q 89 207 89 203 Q 87 188 83 179 Q 81 176 82 175 Q 83 175 85 175 Q 90 176 91 177 L 95 182 Q 95 186 96 199 L 97 206" fill="#910000" /><path d="M 113 178 Q 112 177 109 178 L 95 182 L 91 177 Q 97 175 102 173 Q 107 171 111 168 Q 115 166 118 167 Q 124 170 128 172 Q 132 175 128 180" fill="#a30000" /><path d="M 112 194 Q 115 179 113 178 L 128 180 Q 125 184 122 195" fill="#a30000" /><path d="M 96 199 Q 102 197 110 194 Q 111 194 112 194 L 122 195 Q 126 198 126 199 Q 126 201 124 201 Q 104 204 97 206" fill="#b60000" /><path d="M 174 142 Q 174 142 174 143 Q 160 165 153 168 Q 150 169 150 166 Q 151 165 152 162 Q 182 105 174 93 Q 171 88 175 87 Q 180 86 187 89 Q 194 93 196 96 Q 198 99 196 102 Q 193 106 190 114 Q 184 127 178 136" fill="#c80000" /><path d="M 193 145 Q 181 145 174 142 L 178 136 Q 194 133 205 130 Q 223 123 230 124 Q 237 125 239 128 Q 240 130 238 132 Q 237 133 230 135 Q 215 139 201 143" fill="#da0000" /><path d="M 191 213 L 190 214 Q 173 232 147 232 L 147 229 Q 147 229 148 229 Q 174 216 185 202 L 190 192 Q 190 192 190 192 Q 200 161 196 151 Q 193 145 193 145 L 201 143 Q 211 145 214 149 Q 215 151 213 153 Q 212 155 211 160 Q 207 187 199 202 L 191 212" fill="#ec0000" /><path d="M 185 202 Q 170 178 162 172 Q 160 170 161 169 Q 163 168 166 168 Q 173 169 176 174 Q 183 184 190 192 L 199 202 Q 214 216 226 221 Q 251 233 254 235 Q 257 237 255 238 Q 252 240 250 240 Q 240 241 228 242 Q 218 243 213 237 Q 199 223 191 212" fill="#ff0000" /></svg>