<svg xmlns="http://www.w3.org/2000/svg" xmlns:xlink="http://www.w3.org/1999/xlink" width="270" height="270"><path d="M 0 0 L 270 270 M 270 0 L 0 270 M 135 0 L 135 270 M 0 135 L 270 135" stroke="#CCCCCC" /><path d="M 158 65 Q 155 65 154 66 Q 129 76 125 76 Q 123 76 124 73 Q 179 43 178 31 Q 178 29 180 27 Q 189 26 206 36 Q 210 39 209 42 Q 208 44 204 45 Q 197 46 167 61" fill="#CCCCCC"/><path d="M 163 120 L 163 101 Q 162 73 158 65 L 167 61 Q 172 63 177 68 Q 177 68 177 69 Q 177 69 176 103 L 176 111 Q 176 131 175 154 L 163 156" fill="#CCCCCC"/><path d="M 176 103 Q 182 102 187 101 Q 192 100 196 98 Q 204 94 212 95 Q 221 96 222 99 Q 224 102 222 104 Q 221 104 217 105 Q 214 106 211 107 Q 187 113 176 111" fill="#CCCCCC"/><path d="M 134 178 Q 130 181 127 179 Q 122 176 120 171 Q 119 169 121 165 Q 129 151 126 126 Q 125 116 120 109 Q 117 105 119 104 Q 121 102 124 102 Q 132 104 138 109 Q 141 112 140 116 Q 138 124 138 153" fill="#CCCCCC"/><path d="M 175 154 Q 189 151 191 152 Q 211 149 216 152 Q 225 157 226 160 Q 228 163 226 165 Q 224 166 218 165 Q 208 164 200 165 Q 153 165 134 178 L 138 153 Q 137 158 139 160 Q 140 161 143 160 Q 152 157 163 156" fill="#CCCCCC"/><path d="M 77 71 Q 76 70 73 71 Q 62 76 53 78 Q 46 81 36 75 Q 33 73 34 71 Q 35 69 39 70 Q 44 70 58 66 Q 71 62 76 58 Q 81 53 85 54 Q 93 56 101 62 Q 105 66 99 70" fill="#CCCCCC"/><path d="M 64 131 Q 59 135 56 131 Q 54 129 53 127 Q 52 123 56 121 Q 61 116 63 110 Q 79 75 77 71 L 99 70 Q 90 75 75 107" fill="#CCCCCC"/><path d="M 85 130 Q 81 123 64 131 L 75 107 Q 70 118 72 121 Q 73 122 76 121 Q 92 118 94 120 Q 104 126 106 128" fill="#CCCCCC"/><path d="M 76 189 L 70 195 Q 55 211 30 222 Q 22 226 19 225 Q 17 224 20 222 Q 57 199 71 174 L 75 165 Q 79 156 83 141 Q 85 133 85 130 L 106 128 Q 108 132 106 134 Q 102 137 101 139 Q 100 139 86 171 L 81 180" fill="#CCCCCC"/><path d="M 71 174 L 71 174 Q 55 164 41 164 Q 38 164 36 161 Q 35 159 37 157 Q 55 152 75 165 L 86 171 Q 87 172 89 173 Q 150 214 203 218 Q 226 218 246 221 Q 252 221 252 223 Q 251 226 247 228 Q 196 243 183 239 Q 124 210 91 186 Q 86 182 81 180" fill="#CCCCCC"/><path d="M 158 65 Q 155 65 154 66 Q 129 76 125 76 Q 123 76 124 73 Q 179 43 178 31 Q 178 29 180 27 Q 189 26 206 36 Q 210 39 209 42 Q 208 44 204 45 Q 197 46 167 61" fill="#000000" /><path d="M 163 120 L 163 101 Q 162 73 158 65 L 167 61 Q 172 63 177 68 Q 177 68 177 69 Q 177 69 176 103 L 176 111 Q 176 131 175 154 L 163 156" fill="#330000" /><path d="M 176 103 Q 182 102 187 101 Q 192 100 196 98 Q 204 94 212 95 Q 221 96 222 99 Q 224 102 222 104 Q 221 104 217 105 Q 214 106 211 107 Q 187 113 176 111" fill="#660000" /><path d="M 134 178 Q 130 181 127 179 Q 122 176 120 171 Q 119 169 121 165 Q 129 151 126 126 Q 125 116 120 109 Q 117 105 119 104 Q 121 102 124 102 Q 132 104 138 109 Q 141 112 140 116 Q 138 124 138 153" fill="#990000" /><path d="M 175 154 Q 189 151 191 152 Q 211 149 216 152 Q 225 157 226 160 Q 228 163 226 165 Q 224 166 218 165 Q 208 164 200 165 Q 153 165 134 178 L 138 153 Q 137 158 139 160 Q 140 161 143 160 Q 152 157 163 156" fill="#990000" /><path d="M 77 71 Q 76 70 73 71 Q 62 76 53 78 Q 46 81 36 75 Q 33 73 34 71 Q 35 69 39 70 Q 44 70 58 66 Q 71 62 76 58 Q 81 53 85 54 Q 93 56 101 62 Q 105 66 99 70" fill="#cc0000" /><path d="M 64 131 Q 59 135 56 131 Q 54 129 53 127 Q 52 123 56 121 Q 61 116 63 110 Q 79 75 77 71 L 99 70 Q 90 75 75 107" fill="#cc0000" /><path d="M 85 130 Q 81 123 64 131 L 75 107 Q 70 118 72 121 Q 73 122 76 121 Q 92 118 94 120 Q 104 126 106 128" fill="#cc0000" /><path d="M 76 189 L 70 195 Q 55 211 30 222 Q 22 226 19 225 Q 17 224 20 222 Q 57 199 71 174 L 75 165 Q 79 156 83 141 Q 85 133 85 130 L 106 128 Q 108 132 106 134 Q 102 137 101 139 Q 100 139 86 171 L 81 180" fill="#cc0000" /><path d="M 71 174 L 71 174 Q 55 164 41 164 Q 38 164 36 161 Q 35 159 37 157 Q 55 152 75 165 L 86 171 Q 87 172 89 173 Q 150 214 203 218 Q 226 218 246 221 Q 252 221 252 223 Q 251 226 247 228 Q 196 243 183 239 Q 124 210 91 186 Q 86 182 81 180" fill="#ff0000" /></svg>