<svg xmlns="http://www.w3.org/2000/svg" xmlns:xlink="http://www.w3.org/1999/xlink" width="270" height="270"><path d="M 0 0 L 270 270 M 270 0 L 0 270 M 135 0 L 135 270 M 0 135 L 270 135" stroke="#CCCCCC" /><path d="M 159 133 Q 125 136 103 140 L 88 142 Q 67 146 44 154 Q 34 157 22 149 Q 16 145 16 141 Q 17 138 21 138 Q 22 137 87 130 L 102 128 Q 127 124 160 120 L 177 118 Q 209 112 215 110 Q 223 108 227 110 Q 240 115 249 123 Q 253 126 250 130 Q 249 133 242 132 Q 204 129 176 131" fill="#000000" /><path d="M 103 140 Q 106 196 106 203 L 106 214 Q 104 226 103 228 Q 100 230 97 227 Q 94 220 93 211 Q 92 180 88 142 L 87 130 Q 85 114 82 102 Q 79 88 76 83 Q 74 81 71 77 Q 66 72 70 69 Q 77 66 84 67 Q 94 71 99 75 Q 104 78 102 85 Q 101 96 102 122 Q 102 125 102 128" fill="#550000" /><path d="M 152 194 Q 157 162 159 133 L 160 120 Q 162 96 163 72 Q 164 64 156 49 Q 153 44 157 42 Q 159 39 165 41 Q 173 43 185 50 Q 191 56 190 60 Q 180 83 177 118 L 176 131 Q 171 162 167 195" fill="#aa0000" /><path d="M 176 201 L 176 204 Q 175 207 172 207 Q 130 210 110 214 Q 108 214 106 214 L 106 203 Q 126 200 150 194 Q 151 194 152 194 L 167 195" fill="#ff0000" /></svg>