<svg xmlns="http://www.w3.org/2000/svg" xmlns:xlink="http://www.w3.org/1999/xlink" width="270" height="270"><path d="M 0 0 L 270 270 M 270 0 L 0 270 M 135 0 L 135 270 M 0 135 L 270 135" stroke="#CCCCCC" /><path d="M 95 48 Q 92 45 83 48 Q 59 55 55 53 Q 51 51 51 49 Q 50 47 54 47 Q 66 44 84 38 Q 97 30 103 33 Q 110 38 116 41" fill="#CCCCCC"/><path d="M 84 92 Q 89 77 93 63 Q 97 51 95 48 L 116 41 Q 122 46 116 53 Q 107 62 99 92" fill="#CCCCCC"/><path d="M 72 96 L 84 92 L 99 92 Q 104 95 104 97 Q 104 99 102 99 Q 68 105 66 108 L 63 99" fill="#CCCCCC"/><path d="M 66 108 Q 63 116 58 135 Q 57 138 58 139 L 48 154 Q 43 158 41 156 Q 38 154 36 150 Q 35 147 38 143 Q 46 137 51 120 Q 55 107 50 98 Q 48 94 50 93 Q 52 91 56 94 Q 61 97 63 99" fill="#CCCCCC"/><path d="M 58 139 Q 58 139 72 136 Q 84 131 90 134 Q 98 138 102 142 L 81 146 Q 78 143 73 143 Q 58 144 48 154" fill="#CCCCCC"/><path d="M 102 142 Q 104 145 102 149 Q 98 155 91 203 Q 86 227 69 241 Q 62 245 58 238 L 67 217 Q 70 213 73 204 Q 80 186 83 160 Q 84 149 81 146" fill="#CCCCCC"/><path d="M 58 238 Q 54 230 47 220 Q 44 217 44 213 Q 43 211 47 213 Q 53 214 59 217 Q 65 218 67 217" fill="#CCCCCC"/><path d="M 131 114 Q 127 117 125 114 Q 118 109 117 105 Q 116 102 120 99 Q 127 93 133 88 Q 167 50 162 32 Q 161 26 164 25 Q 167 24 171 27 Q 184 33 185 37 Q 187 40 183 42 Q 176 49 144 92 Q 142 95 143 96" fill="#CCCCCC"/><path d="M 157 102 Q 140 107 131 114 L 143 96 Q 144 96 146 95 Q 176 86 204 80 L 208 85 Q 205 87 201 88 Q 180 94 166 99" fill="#CCCCCC"/><path d="M 204 80 Q 203 78 201 76 Q 197 70 197 67 Q 197 65 198 64 Q 202 64 219 76 Q 226 83 226 88 Q 226 95 224 98 Q 223 100 220 100 Q 217 99 208 85" fill="#CCCCCC"/><path d="M 139 174 Q 139 177 138 179 Q 137 182 133 177 Q 129 174 128 168 Q 123 147 116 135 Q 113 132 115 130 Q 115 129 118 129 Q 125 130 128 131 L 133 139 Q 134 146 138 166" fill="#CCCCCC"/><path d="M 162 133 Q 150 135 139 137 Q 135 139 133 139 L 128 131 Q 145 129 162 125 L 175 122 Q 184 120 193 117 Q 209 109 227 124 L 203 127 Q 200 125 175 130" fill="#CCCCCC"/><path d="M 200 152 Q 202 143 204 133 Q 205 129 203 127 L 227 124 Q 230 128 226 133 Q 219 138 213 153" fill="#CCCCCC"/><path d="M 163 169 Q 150 171 141 174 Q 140 174 139 174 L 138 166 Q 149 163 163 161 L 174 158 Q 186 155 200 152 L 213 153 Q 219 156 219 158 Q 219 160 216 161 Q 192 163 174 167" fill="#CCCCCC"/><path d="M 163 204 Q 163 184 163 169 L 163 161 Q 162 143 162 133 L 162 125 Q 162 121 162 120 Q 162 112 160 107 Q 158 105 157 102 L 166 99 Q 170 101 175 105 Q 176 107 175 121 Q 175 122 175 122 L 175 130 Q 175 143 174 158 L 174 167 Q 174 184 174 202" fill="#CCCCCC"/><path d="M 195 206 L 179 210 Q 140 220 126 228 Q 123 230 120 229 Q 112 223 107 218 Q 105 216 106 212 Q 106 210 110 210 Q 120 211 127 210 Q 145 207 163 204 L 174 202 Q 191 198 207 195 L 211 201" fill="#CCCCCC"/><path d="M 207 195 Q 203 188 199 183 Q 197 180 198 177 Q 199 174 200 176 Q 233 195 233 209 Q 234 220 231 222 Q 228 224 226 223 Q 225 222 211 201" fill="#CCCCCC"/><path d="M 95 48 Q 92 45 83 48 Q 59 55 55 53 Q 51 51 51 49 Q 50 47 54 47 Q 66 44 84 38 Q 97 30 103 33 Q 110 38 116 41" fill="#000000" /><path d="M 84 92 Q 89 77 93 63 Q 97 51 95 48 L 116 41 Q 122 46 116 53 Q 107 62 99 92" fill="#000000" /><path d="M 72 96 L 84 92 L 99 92 Q 104 95 104 97 Q 104 99 102 99 Q 68 105 66 108 L 63 99" fill="#190000" /><path d="M 66 108 Q 63 116 58 135 Q 57 138 58 139 L 48 154 Q 43 158 41 156 Q 38 154 36 150 Q 35 147 38 143 Q 46 137 51 120 Q 55 107 50 98 Q 48 94 50 93 Q 52 91 56 94 Q 61 97 63 99" fill="#330000" /><path d="M 58 139 Q 58 139 72 136 Q 84 131 90 134 Q 98 138 102 142 L 81 146 Q 78 143 73 143 Q 58 144 48 154" fill="#330000" /><path d="M 102 142 Q 104 145 102 149 Q 98 155 91 203 Q 86 227 69 241 Q 62 245 58 238 L 67 217 Q 70 213 73 204 Q 80 186 83 160 Q 84 149 81 146" fill="#330000" /><path d="M 58 238 Q 54 230 47 220 Q 44 217 44 213 Q 43 211 47 213 Q 53 214 59 217 Q 65 218 67 217" fill="#330000" /><path d="M 131 114 Q 127 117 125 114 Q 118 109 117 105 Q 116 102 120 99 Q 127 93 133 88 Q 167 50 162 32 Q 161 26 164 25 Q 167 24 171 27 Q 184 33 185 37 Q 187 40 183 42 Q 176 49 144 92 Q 142 95 143 96" fill="#4c0000" /><path d="M 157 102 Q 140 107 131 114 L 143 96 Q 144 96 146 95 Q 176 86 204 80 L 208 85 Q 205 87 201 88 Q 180 94 166 99" fill="#4c0000" /><path d="M 204 80 Q 203 78 201 76 Q 197 70 197 67 Q 197 65 198 64 Q 202 64 219 76 Q 226 83 226 88 Q 226 95 224 98 Q 223 100 220 100 Q 217 99 208 85" fill="#660000" /><path d="M 139 174 Q 139 177 138 179 Q 137 182 133 177 Q 129 174 128 168 Q 123 147 116 135 Q 113 132 115 130 Q 115 129 118 129 Q 125 130 128 131 L 133 139 Q 134 146 138 166" fill="#7f0000" /><path d="M 162 133 Q 150 135 139 137 Q 135 139 133 139 L 128 131 Q 145 129 162 125 L 175 122 Q 184 120 193 117 Q 209 109 227 124 L 203 127 Q 200 125 175 130" fill="#990000" /><path d="M 200 152 Q 202 143 204 133 Q 205 129 203 127 L 227 124 Q 230 128 226 133 Q 219 138 213 153" fill="#990000" /><path d="M 163 169 Q 150 171 141 174 Q 140 174 139 174 L 138 166 Q 149 163 163 161 L 174 158 Q 186 155 200 152 L 213 153 Q 219 156 219 158 Q 219 160 216 161 Q 192 163 174 167" fill="#b20000" /><path d="M 163 204 Q 163 184 163 169 L 163 161 Q 162 143 162 133 L 162 125 Q 162 121 162 120 Q 162 112 160 107 Q 158 105 157 102 L 166 99 Q 170 101 175 105 Q 176 107 175 121 Q 175 122 175 122 L 175 130 Q 175 143 174 158 L 174 167 Q 174 184 174 202" fill="#cc0000" /><path d="M 195 206 L 179 210 Q 140 220 126 228 Q 123 230 120 229 Q 112 223 107 218 Q 105 216 106 212 Q 106 210 110 210 Q 120 211 127 210 Q 145 207 163 204 L 174 202 Q 191 198 207 195 L 211 201" fill="#e50000" /><path d="M 207 195 Q 203 188 199 183 Q 197 180 198 177 Q 199 174 200 176 Q 233 195 233 209 Q 234 220 231 222 Q 228 224 226 223 Q 225 222 211 201" fill="#ff0000" /></svg>