<svg xmlns="http://www.w3.org/2000/svg" xmlns:xlink="http://www.w3.org/1999/xlink" width="270" height="270"><path d="M 0 0 L 270 270 M 270 0 L 0 270 M 135 0 L 135 270 M 0 135 L 270 135" stroke="#CCCCCC" /><path d="M 84 57 Q 83 56 69 60 Q 61 63 55 62 Q 51 60 51 59 Q 50 57 53 57 Q 62 54 74 48 Q 85 39 90 43 Q 97 47 103 50" fill="#CCCCCC"/><path d="M 76 89 Q 80 78 83 69 Q 86 59 84 57 L 103 50 Q 109 53 103 60 Q 96 67 89 90" fill="#CCCCCC"/><path d="M 65 93 L 74 90 Q 75 89 76 89 L 89 90 Q 93 92 93 94 Q 93 96 91 97 Q 71 101 58 105 L 57 96" fill="#CCCCCC"/><path d="M 58 105 Q 51 136 52 137 L 44 152 Q 39 156 37 154 Q 35 152 33 149 Q 32 146 34 143 Q 42 136 45 117 Q 48 104 43 95 Q 41 91 43 90 Q 45 88 48 91 Q 54 93 57 96" fill="#CCCCCC"/><path d="M 52 137 Q 52 138 63 135 Q 75 130 80 132 Q 88 135 91 139 L 72 143 Q 70 141 65 141 Q 52 142 44 152" fill="#CCCCCC"/><path d="M 91 139 Q 93 142 91 146 Q 90 146 90 147 Q 89 150 82 201 Q 80 217 62 232 Q 57 235 53 231 L 59 211 Q 63 208 66 198 Q 72 181 74 156 Q 74 146 72 143" fill="#CCCCCC"/><path d="M 53 231 Q 48 223 40 215 Q 37 212 36 209 Q 36 207 39 208 Q 45 210 52 211 Q 58 213 59 211" fill="#CCCCCC"/><path d="M 154 46 Q 140 49 129 44 Q 122 39 131 38 Q 148 35 161 32 Q 174 28 185 24 Q 193 21 201 22 Q 209 24 211 27 Q 212 29 210 31 Q 208 33 166 43" fill="#CCCCCC"/><path d="M 122 57 L 126 57 Q 129 58 134 62 Q 140 67 140 70 Q 140 72 139 74 Q 135 76 132 81 Q 107 109 96 111 Q 93 111 94 109 Q 95 108 97 106 Q 114 86 123 69 Q 125 65 123 62" fill="#CCCCCC"/><path d="M 195 58 L 195 55 Q 195 52 197 53 Q 203 54 213 55 Q 228 57 232 65 Q 237 75 235 78 Q 234 81 232 81 Q 228 80 224 77 Q 210 67 199 60" fill="#CCCCCC"/><path d="M 124 123 Q 121 137 119 192 Q 119 219 112 228 Q 109 232 107 228 Q 104 225 102 217 Q 102 214 106 198 Q 117 151 107 116 Q 105 113 106 112 Q 108 110 110 110 Q 113 112 116 113" fill="#CCCCCC"/><path d="M 126 122 L 124 123 L 116 113 Q 140 111 162 107 L 172 105 Q 198 99 210 95 Q 214 93 219 96 Q 231 101 234 105 L 212 108 Q 210 105 204 106 Q 187 109 172 112 L 162 114" fill="#CCCCCC"/><path d="M 234 105 Q 236 108 234 113 Q 229 124 236 212 Q 237 228 233 240 Q 231 247 228 248 Q 224 248 219 244 L 218 212 Q 220 164 216 122 Q 215 109 212 108" fill="#CCCCCC"/><path d="M 219 244 Q 210 235 193 225 Q 190 224 190 222 Q 189 220 193 220 Q 212 223 216 221 Q 218 219 218 212" fill="#CCCCCC"/><path d="M 162 107 Q 161 89 161 72 Q 161 57 154 46 L 166 43 Q 170 45 173 47 Q 178 51 175 57 Q 172 71 172 105 L 172 112 Q 172 204 172 215 Q 172 222 170 227 Q 168 232 166 233 Q 165 235 164 233 Q 162 233 160 229 Q 159 227 159 225 Q 155 216 159 195 Q 161 184 162 114" fill="#CCCCCC"/><path d="M 140 153 L 140 154 Q 131 164 127 165 Q 126 165 126 164 Q 127 163 128 162 Q 133 155 136 150 L 139 144 Q 145 132 144 128 Q 143 126 145 125 Q 147 125 151 128 Q 154 130 155 132 Q 155 134 154 135 Q 151 138 145 147 L 140 153" fill="#CCCCCC"/><path d="M 136 150 Q 125 140 125 139 Q 125 138 126 138 Q 131 140 139 144 L 145 147 Q 151 150 153 155 Q 156 160 154 161 Q 153 163 152 163 Q 151 162 140 153" fill="#CCCCCC"/><path d="M 129 210 L 123 212 Q 122 212 122 211 Q 126 206 134 194 Q 135 193 135 193 L 139 187 Q 140 183 142 179 Q 143 176 142 174 Q 141 171 143 171 Q 145 171 149 173 Q 152 176 152 177 Q 153 179 152 180 Q 149 183 144 191 L 139 197" fill="#CCCCCC"/><path d="M 135 193 Q 123 181 123 180 Q 123 179 124 179 Q 129 182 137 186 Q 138 187 139 187 L 144 191 Q 149 194 150 199 Q 151 204 150 205 Q 149 206 148 206 Q 147 206 139 197" fill="#CCCCCC"/><path d="M 192 145 L 192 145 Q 184 155 179 156 Q 178 156 178 155 Q 179 153 180 152 Q 184 146 188 141 L 191 135 Q 197 124 195 121 Q 194 118 197 118 Q 199 118 203 120 Q 206 123 207 125 Q 207 127 206 128 Q 204 129 198 138 L 193 145" fill="#CCCCCC"/><path d="M 188 141 L 176 131 Q 177 129 178 130 Q 183 131 191 135 L 198 138 Q 209 143 211 149 Q 214 154 212 156 Q 211 158 210 158 Q 208 157 193 145" fill="#CCCCCC"/><path d="M 178 209 L 177 209 Q 175 209 175 207 Q 176 207 177 205 Q 184 196 189 188 L 193 181 Q 199 168 198 165 Q 197 162 199 161 Q 202 161 205 164 Q 209 167 210 169 Q 210 171 209 172 Q 206 175 200 185 L 194 192" fill="#CCCCCC"/><path d="M 189 188 Q 177 177 177 176 Q 177 174 179 174 Q 184 177 193 181 L 200 185 Q 210 190 212 196 Q 214 203 212 205 Q 211 206 210 206 Q 209 206 194 192" fill="#CCCCCC"/><path d="M 84 57 Q 83 56 69 60 Q 61 63 55 62 Q 51 60 51 59 Q 50 57 53 57 Q 62 54 74 48 Q 85 39 90 43 Q 97 47 103 50" fill="#000000" /><path d="M 76 89 Q 80 78 83 69 Q 86 59 84 57 L 103 50 Q 109 53 103 60 Q 96 67 89 90" fill="#000000" /><path d="M 65 93 L 74 90 Q 75 89 76 89 L 89 90 Q 93 92 93 94 Q 93 96 91 97 Q 71 101 58 105 L 57 96" fill="#0f0000" /><path d="M 58 105 Q 51 136 52 137 L 44 152 Q 39 156 37 154 Q 35 152 33 149 Q 32 146 34 143 Q 42 136 45 117 Q 48 104 43 95 Q 41 91 43 90 Q 45 88 48 91 Q 54 93 57 96" fill="#1f0000" /><path d="M 52 137 Q 52 138 63 135 Q 75 130 80 132 Q 88 135 91 139 L 72 143 Q 70 141 65 141 Q 52 142 44 152" fill="#1f0000" /><path d="M 91 139 Q 93 142 91 146 Q 90 146 90 147 Q 89 150 82 201 Q 80 217 62 232 Q 57 235 53 231 L 59 211 Q 63 208 66 198 Q 72 181 74 156 Q 74 146 72 143" fill="#1f0000" /><path d="M 53 231 Q 48 223 40 215 Q 37 212 36 209 Q 36 207 39 208 Q 45 210 52 211 Q 58 213 59 211" fill="#1f0000" /><path d="M 154 46 Q 140 49 129 44 Q 122 39 131 38 Q 148 35 161 32 Q 174 28 185 24 Q 193 21 201 22 Q 209 24 211 27 Q 212 29 210 31 Q 208 33 166 43" fill="#2f0000" /><path d="M 122 57 L 126 57 Q 129 58 134 62 Q 140 67 140 70 Q 140 72 139 74 Q 135 76 132 81 Q 107 109 96 111 Q 93 111 94 109 Q 95 108 97 106 Q 114 86 123 69 Q 125 65 123 62" fill="#3f0000" /><path d="M 195 58 L 195 55 Q 195 52 197 53 Q 203 54 213 55 Q 228 57 232 65 Q 237 75 235 78 Q 234 81 232 81 Q 228 80 224 77 Q 210 67 199 60" fill="#4f0000" /><path d="M 124 123 Q 121 137 119 192 Q 119 219 112 228 Q 109 232 107 228 Q 104 225 102 217 Q 102 214 106 198 Q 117 151 107 116 Q 105 113 106 112 Q 108 110 110 110 Q 113 112 116 113" fill="#5f0000" /><path d="M 126 122 L 124 123 L 116 113 Q 140 111 162 107 L 172 105 Q 198 99 210 95 Q 214 93 219 96 Q 231 101 234 105 L 212 108 Q 210 105 204 106 Q 187 109 172 112 L 162 114" fill="#6f0000" /><path d="M 234 105 Q 236 108 234 113 Q 229 124 236 212 Q 237 228 233 240 Q 231 247 228 248 Q 224 248 219 244 L 218 212 Q 220 164 216 122 Q 215 109 212 108" fill="#6f0000" /><path d="M 219 244 Q 210 235 193 225 Q 190 224 190 222 Q 189 220 193 220 Q 212 223 216 221 Q 218 219 218 212" fill="#6f0000" /><path d="M 162 107 Q 161 89 161 72 Q 161 57 154 46 L 166 43 Q 170 45 173 47 Q 178 51 175 57 Q 172 71 172 105 L 172 112 Q 172 204 172 215 Q 172 222 170 227 Q 168 232 166 233 Q 165 235 164 233 Q 162 233 160 229 Q 159 227 159 225 Q 155 216 159 195 Q 161 184 162 114" fill="#7f0000" /><path d="M 140 153 L 140 154 Q 131 164 127 165 Q 126 165 126 164 Q 127 163 128 162 Q 133 155 136 150 L 139 144 Q 145 132 144 128 Q 143 126 145 125 Q 147 125 151 128 Q 154 130 155 132 Q 155 134 154 135 Q 151 138 145 147 L 140 153" fill="#8f0000" /><path d="M 136 150 Q 125 140 125 139 Q 125 138 126 138 Q 131 140 139 144 L 145 147 Q 151 150 153 155 Q 156 160 154 161 Q 153 163 152 163 Q 151 162 140 153" fill="#9f0000" /><path d="M 129 210 L 123 212 Q 122 212 122 211 Q 126 206 134 194 Q 135 193 135 193 L 139 187 Q 140 183 142 179 Q 143 176 142 174 Q 141 171 143 171 Q 145 171 149 173 Q 152 176 152 177 Q 153 179 152 180 Q 149 183 144 191 L 139 197" fill="#af0000" /><path d="M 135 193 Q 123 181 123 180 Q 123 179 124 179 Q 129 182 137 186 Q 138 187 139 187 L 144 191 Q 149 194 150 199 Q 151 204 150 205 Q 149 206 148 206 Q 147 206 139 197" fill="#bf0000" /><path d="M 192 145 L 192 145 Q 184 155 179 156 Q 178 156 178 155 Q 179 153 180 152 Q 184 146 188 141 L 191 135 Q 197 124 195 121 Q 194 118 197 118 Q 199 118 203 120 Q 206 123 207 125 Q 207 127 206 128 Q 204 129 198 138 L 193 145" fill="#cf0000" /><path d="M 188 141 L 176 131 Q 177 129 178 130 Q 183 131 191 135 L 198 138 Q 209 143 211 149 Q 214 154 212 156 Q 211 158 210 158 Q 208 157 193 145" fill="#df0000" /><path d="M 178 209 L 177 209 Q 175 209 175 207 Q 176 207 177 205 Q 184 196 189 188 L 193 181 Q 199 168 198 165 Q 197 162 199 161 Q 202 161 205 164 Q 209 167 210 169 Q 210 171 209 172 Q 206 175 200 185 L 194 192" fill="#ef0000" /><path d="M 189 188 Q 177 177 177 176 Q 177 174 179 174 Q 184 177 193 181 L 200 185 Q 210 190 212 196 Q 214 203 212 205 Q 211 206 210 206 Q 209 206 194 192" fill="#ff0000" /></svg>