<svg xmlns="http://www.w3.org/2000/svg" xmlns:xlink="http://www.w3.org/1999/xlink" width="270" height="270"><path d="M 0 0 L 270 270 M 270 0 L 0 270 M 135 0 L 135 270 M 0 135 L 270 135" stroke="#CCCCCC" /><path d="M 123 50 L 123 50 Q 100 53 84 57 L 75 58 Q 69 56 64 51 Q 58 46 66 45 Q 81 43 130 35 Q 146 30 155 36 Q 161 39 161 42 Q 159 46 156 45 Q 146 46 134 48" fill="#000000" /><path d="M 105 110 L 95 113 L 81 116 Q 69 119 55 123 Q 45 126 34 118 Q 30 115 31 112 Q 32 110 35 110 Q 52 109 82 105 L 95 103 Q 108 100 127 97 L 139 95 Q 152 91 160 95 Q 165 98 164 101 Q 164 103 160 104 Q 149 104 139 106 L 127 108" fill="#2a0000" /><path d="M 95 113 Q 89 147 85 159 Q 83 163 81 166 Q 59 201 42 202 Q 39 202 39 200 Q 40 199 52 187 Q 54 184 57 181 Q 81 151 81 116 L 82 105 Q 83 72 77 62 Q 75 59 75 58 L 84 57 Q 88 58 94 61 Q 100 63 98 69 Q 97 73 95 103" fill="#550000" /><path d="M 127 97 Q 128 58 123 50 L 134 48 Q 137 50 140 53 Q 142 55 142 58 Q 140 69 139 95 L 139 106 Q 139 142 140 185 Q 141 194 138 203 Q 136 206 133 206 Q 131 204 128 199 Q 119 186 121 175 Q 125 165 127 116 Q 127 111 127 108" fill="#7f0000" /><path d="M 213 23 L 217 23 Q 222 24 228 29 Q 234 36 235 39 Q 236 43 233 45 Q 229 48 224 54 Q 190 92 175 94 Q 171 94 173 91 Q 174 90 176 88 Q 188 75 198 63 Q 217 38 214 29" fill="#aa0000" /><path d="M 210 86 L 214 86 Q 219 87 224 92 Q 230 99 230 103 Q 230 106 228 108 Q 223 111 216 118 Q 178 152 165 152 Q 161 152 163 150 Q 164 148 166 146 Q 180 135 190 124 Q 212 100 210 91" fill="#d40000" /><path d="M 216 139 L 220 139 Q 223 139 229 144 Q 237 151 238 155 Q 239 158 236 160 Q 230 167 225 174 Q 196 218 165 232 Q 147 241 127 245 Q 123 246 122 245 Q 120 243 123 241 Q 152 226 165 216 Q 166 215 166 215 Q 211 183 215 144" fill="#ff0000" /></svg>