<svg xmlns="http://www.w3.org/2000/svg" xmlns:xlink="http://www.w3.org/1999/xlink" width="270" height="270"><path d="M 0 0 L 270 270 M 270 0 L 0 270 M 135 0 L 135 270 M 0 135 L 270 135" stroke="#CCCCCC" /><path d="M 79 11 L 83 11 Q 88 12 94 17 Q 100 23 100 27 Q 101 30 98 32 Q 97 32 97 33 Q 89 38 87 44 Q 51 83 39 83 Q 36 83 37 80 Q 38 79 40 77 Q 53 64 62 52 Q 83 26 80 17" fill="#CCCCCC"/><path d="M 58 140 L 53 145 Q 26 172 14 174 Q 11 174 12 171 Q 12 170 15 167 Q 58 126 78 90 Q 83 79 81 72 Q 80 66 85 66 Q 90 66 96 72 Q 103 79 104 83 Q 104 84 104 85 Q 104 86 70 126 L 63 135 Q 63 134 63 134" fill="#CCCCCC"/><path d="M 70 126 Q 77 133 80 136 Q 82 138 80 145 Q 79 157 78 207 Q 79 218 75 229 Q 72 235 67 231 Q 66 230 66 230 Q 56 215 62 201 Q 72 153 63 135" fill="#CCCCCC"/><path d="M 142 93 L 141 96 Q 140 100 136 95 Q 131 89 130 81 Q 124 54 116 38 Q 115 34 116 33 Q 117 32 119 32 Q 128 34 131 35 L 133 44 Q 134 49 136 61 L 137 66 Q 141 80 141 82 L 143 89 Q 142 89 142 89" fill="#CCCCCC"/><path d="M 131 35 Q 179 25 181 25 Q 199 20 204 23 Q 214 30 218 34 L 194 34 Q 187 29 137 43 Q 135 44 133 44" fill="#CCCCCC"/><path d="M 218 34 Q 220 38 217 41 Q 211 47 208 55 Q 198 85 194 91 Q 190 96 187 94 Q 184 91 180 85 L 184 77 Q 187 73 196 41 Q 197 36 194 34" fill="#CCCCCC"/><path d="M 136 61 Q 162 51 170 52 Q 176 53 178 57 Q 180 59 175 61 Q 160 63 140 66 Q 139 66 137 66" fill="#CCCCCC"/><path d="M 141 82 Q 175 74 181 76 Q 183 76 184 77 L 180 85 Q 163 86 143 89" fill="#CCCCCC"/><path d="M 172 117 Q 162 119 151 121 Q 140 124 130 118 Q 124 114 132 113 Q 150 111 167 107 Q 191 100 197 101 Q 204 103 206 105 Q 207 107 205 109 Q 203 110 194 112 Q 190 113 187 114" fill="#CCCCCC"/><path d="M 144 151 L 115 160 Q 111 161 106 159 Q 101 158 98 155 Q 94 150 99 150 Q 139 145 172 140 Q 175 139 178 139 L 194 136 Q 211 133 225 130 Q 240 126 254 136 Q 258 140 257 143 Q 256 145 251 145 Q 211 145 193 147 L 179 148" fill="#CCCCCC"/><path d="M 178 139 Q 178 127 172 117 L 187 114 Q 190 116 194 119 Q 199 122 196 128 Q 194 131 194 136 L 193 147 Q 193 187 196 220 Q 195 245 186 254 Q 182 258 178 253 L 175 223 Q 182 218 179 148" fill="#CCCCCC"/><path d="M 178 253 Q 171 243 152 226 Q 149 223 149 221 Q 148 219 152 220 Q 173 224 175 223" fill="#CCCCCC"/><path d="M 122 167 L 123 164 Q 124 161 125 161 Q 127 161 130 164 Q 149 179 149 189 Q 148 196 145 199 Q 143 201 140 200 Q 137 199 135 195 Q 130 184 126 174" fill="#CCCCCC"/><path d="M 79 11 L 83 11 Q 88 12 94 17 Q 100 23 100 27 Q 101 30 98 32 Q 97 32 97 33 Q 89 38 87 44 Q 51 83 39 83 Q 36 83 37 80 Q 38 79 40 77 Q 53 64 62 52 Q 83 26 80 17" fill="#000000" /><path d="M 58 140 L 53 145 Q 26 172 14 174 Q 11 174 12 171 Q 12 170 15 167 Q 58 126 78 90 Q 83 79 81 72 Q 80 66 85 66 Q 90 66 96 72 Q 103 79 104 83 Q 104 84 104 85 Q 104 86 70 126 L 63 135 Q 63 134 63 134" fill="#190000" /><path d="M 70 126 Q 77 133 80 136 Q 82 138 80 145 Q 79 157 78 207 Q 79 218 75 229 Q 72 235 67 231 Q 66 230 66 230 Q 56 215 62 201 Q 72 153 63 135" fill="#330000" /><path d="M 142 93 L 141 96 Q 140 100 136 95 Q 131 89 130 81 Q 124 54 116 38 Q 115 34 116 33 Q 117 32 119 32 Q 128 34 131 35 L 133 44 Q 134 49 136 61 L 137 66 Q 141 80 141 82 L 143 89 Q 142 89 142 89" fill="#4c0000" /><path d="M 131 35 Q 179 25 181 25 Q 199 20 204 23 Q 214 30 218 34 L 194 34 Q 187 29 137 43 Q 135 44 133 44" fill="#660000" /><path d="M 218 34 Q 220 38 217 41 Q 211 47 208 55 Q 198 85 194 91 Q 190 96 187 94 Q 184 91 180 85 L 184 77 Q 187 73 196 41 Q 197 36 194 34" fill="#660000" /><path d="M 136 61 Q 162 51 170 52 Q 176 53 178 57 Q 180 59 175 61 Q 160 63 140 66 Q 139 66 137 66" fill="#7f0000" /><path d="M 141 82 Q 175 74 181 76 Q 183 76 184 77 L 180 85 Q 163 86 143 89" fill="#990000" /><path d="M 172 117 Q 162 119 151 121 Q 140 124 130 118 Q 124 114 132 113 Q 150 111 167 107 Q 191 100 197 101 Q 204 103 206 105 Q 207 107 205 109 Q 203 110 194 112 Q 190 113 187 114" fill="#b20000" /><path d="M 144 151 L 115 160 Q 111 161 106 159 Q 101 158 98 155 Q 94 150 99 150 Q 139 145 172 140 Q 175 139 178 139 L 194 136 Q 211 133 225 130 Q 240 126 254 136 Q 258 140 257 143 Q 256 145 251 145 Q 211 145 193 147 L 179 148" fill="#cc0000" /><path d="M 178 139 Q 178 127 172 117 L 187 114 Q 190 116 194 119 Q 199 122 196 128 Q 194 131 194 136 L 193 147 Q 193 187 196 220 Q 195 245 186 254 Q 182 258 178 253 L 175 223 Q 182 218 179 148" fill="#e50000" /><path d="M 178 253 Q 171 243 152 226 Q 149 223 149 221 Q 148 219 152 220 Q 173 224 175 223" fill="#e50000" /><path d="M 122 167 L 123 164 Q 124 161 125 161 Q 127 161 130 164 Q 149 179 149 189 Q 148 196 145 199 Q 143 201 140 200 Q 137 199 135 195 Q 130 184 126 174" fill="#ff0000" /></svg>