<svg xmlns="http://www.w3.org/2000/svg" xmlns:xlink="http://www.w3.org/1999/xlink" width="270" height="270"><path d="M 0 0 L 270 270 M 270 0 L 0 270 M 135 0 L 135 270 M 0 135 L 270 135" stroke="#CCCCCC" /><path d="M 65 28 L 70 28 Q 75 28 82 33 Q 89 39 90 42 Q 92 46 89 48 Q 85 51 81 58 Q 49 102 36 104 Q 32 104 33 102 Q 34 100 37 98 Q 47 83 55 71 Q 72 42 68 34" fill="#CCCCCC"/><path d="M 26 196 L 16 200 Q 13 200 14 197 Q 14 196 17 193 Q 33 173 45 154 Q 58 135 66 114 Q 69 108 65 101 Q 63 95 68 95 Q 73 95 79 99 Q 86 105 87 108 Q 88 111 86 114 Q 80 119 75 130 Q 69 140 63 148 L 57 157" fill="#CCCCCC"/><path d="M 63 148 Q 64 148 72 157 Q 75 160 73 166 Q 71 176 70 219 Q 70 229 66 239 Q 64 245 59 242 L 59 241 Q 49 230 55 213 Q 63 174 57 157" fill="#CCCCCC"/><path d="M 106 105 L 97 107 Q 93 108 95 105 Q 98 100 103 93 Q 127 62 121 38 Q 120 34 122 33 Q 128 32 139 39 Q 143 41 141 45 Q 136 54 131 66 Q 128 72 124 79 L 122 82" fill="#CCCCCC"/><path d="M 124 79 Q 127 79 135 82 Q 140 84 143 87 Q 145 92 145 95 Q 144 99 140 99 Q 137 99 133 95 Q 123 85 122 82" fill="#CCCCCC"/><path d="M 178 78 L 178 79 Q 157 105 150 106 Q 147 107 147 104 Q 148 102 150 100 Q 190 45 183 29 Q 181 24 185 24 Q 190 24 197 28 Q 204 33 205 36 Q 205 37 205 38 Q 205 39 183 72 L 179 78" fill="#CCCCCC"/><path d="M 183 72 L 183 72 Q 214 79 217 89 Q 220 96 219 99 Q 218 102 215 102 Q 212 103 209 100 Q 197 91 185 83 Q 180 80 179 78" fill="#CCCCCC"/><path d="M 153 188 Q 154 147 153 137 Q 152 126 147 115 Q 146 111 148 109 Q 151 108 154 109 Q 161 112 167 118 Q 171 122 169 127 Q 168 130 167 138 L 167 146 Q 166 149 165 193" fill="#CCCCCC"/><path d="M 167 138 Q 185 134 187 133 Q 194 129 202 130 Q 210 132 211 134 Q 212 136 211 138 Q 210 139 206 140 Q 201 141 197 142 Q 174 147 167 146" fill="#CCCCCC"/><path d="M 112 179 L 112 179 Q 90 207 77 209 Q 75 209 76 207 Q 92 189 97 181 Q 97 180 98 180 Q 118 147 113 133 Q 112 130 114 129 Q 122 127 131 134 Q 135 136 135 139 Q 135 139 136 139 Q 135 140 119 169 L 115 175" fill="#CCCCCC"/><path d="M 119 169 Q 125 173 137 180 Q 145 184 153 188 L 165 193 Q 172 196 179 199 Q 196 205 217 209 Q 235 211 252 214 Q 256 215 256 216 Q 256 218 251 220 Q 234 226 207 231 Q 191 230 115 175" fill="#CCCCCC"/><path d="M 65 28 L 70 28 Q 75 28 82 33 Q 89 39 90 42 Q 92 46 89 48 Q 85 51 81 58 Q 49 102 36 104 Q 32 104 33 102 Q 34 100 37 98 Q 47 83 55 71 Q 72 42 68 34" fill="#000000" /><path d="M 26 196 L 16 200 Q 13 200 14 197 Q 14 196 17 193 Q 33 173 45 154 Q 58 135 66 114 Q 69 108 65 101 Q 63 95 68 95 Q 73 95 79 99 Q 86 105 87 108 Q 88 111 86 114 Q 80 119 75 130 Q 69 140 63 148 L 57 157" fill="#190000" /><path d="M 63 148 Q 64 148 72 157 Q 75 160 73 166 Q 71 176 70 219 Q 70 229 66 239 Q 64 245 59 242 L 59 241 Q 49 230 55 213 Q 63 174 57 157" fill="#330000" /><path d="M 106 105 L 97 107 Q 93 108 95 105 Q 98 100 103 93 Q 127 62 121 38 Q 120 34 122 33 Q 128 32 139 39 Q 143 41 141 45 Q 136 54 131 66 Q 128 72 124 79 L 122 82" fill="#4c0000" /><path d="M 124 79 Q 127 79 135 82 Q 140 84 143 87 Q 145 92 145 95 Q 144 99 140 99 Q 137 99 133 95 Q 123 85 122 82" fill="#660000" /><path d="M 178 78 L 178 79 Q 157 105 150 106 Q 147 107 147 104 Q 148 102 150 100 Q 190 45 183 29 Q 181 24 185 24 Q 190 24 197 28 Q 204 33 205 36 Q 205 37 205 38 Q 205 39 183 72 L 179 78" fill="#7f0000" /><path d="M 183 72 L 183 72 Q 214 79 217 89 Q 220 96 219 99 Q 218 102 215 102 Q 212 103 209 100 Q 197 91 185 83 Q 180 80 179 78" fill="#990000" /><path d="M 153 188 Q 154 147 153 137 Q 152 126 147 115 Q 146 111 148 109 Q 151 108 154 109 Q 161 112 167 118 Q 171 122 169 127 Q 168 130 167 138 L 167 146 Q 166 149 165 193" fill="#b20000" /><path d="M 167 138 Q 185 134 187 133 Q 194 129 202 130 Q 210 132 211 134 Q 212 136 211 138 Q 210 139 206 140 Q 201 141 197 142 Q 174 147 167 146" fill="#cc0000" /><path d="M 112 179 L 112 179 Q 90 207 77 209 Q 75 209 76 207 Q 92 189 97 181 Q 97 180 98 180 Q 118 147 113 133 Q 112 130 114 129 Q 122 127 131 134 Q 135 136 135 139 Q 135 139 136 139 Q 135 140 119 169 L 115 175" fill="#e50000" /><path d="M 119 169 Q 125 173 137 180 Q 145 184 153 188 L 165 193 Q 172 196 179 199 Q 196 205 217 209 Q 235 211 252 214 Q 256 215 256 216 Q 256 218 251 220 Q 234 226 207 231 Q 191 230 115 175" fill="#ff0000" /></svg>