<svg xmlns="http://www.w3.org/2000/svg" xmlns:xlink="http://www.w3.org/1999/xlink" width="270" height="270"><path d="M 0 0 L 270 270 M 270 0 L 0 270 M 135 0 L 135 270 M 0 135 L 270 135" stroke="#CCCCCC" /><path d="M 71 36 L 75 35 Q 80 36 86 40 Q 93 46 94 49 Q 95 53 92 55 Q 84 62 83 67 Q 52 106 39 109 Q 35 109 36 106 Q 37 105 40 103 Q 51 89 59 77 Q 67 64 73 50 Q 74 46 73 41" fill="#CCCCCC"/><path d="M 55 166 L 49 173 Q 35 190 24 199 Q 17 205 14 205 Q 11 206 12 203 Q 12 201 15 199 Q 34 177 48 157 Q 62 136 72 114 Q 75 108 72 100 Q 69 94 74 94 Q 80 94 86 99 Q 93 105 94 108 Q 95 112 93 114 Q 89 118 68 148 L 62 158" fill="#CCCCCC"/><path d="M 68 148 Q 70 149 77 158 Q 80 161 78 167 Q 76 178 76 223 Q 76 235 73 245 Q 69 251 65 247 Q 56 237 61 213 Q 68 173 62 158" fill="#CCCCCC"/><path d="M 117 78 Q 111 83 107 83 Q 104 84 106 80 Q 113 70 115 69 Q 137 44 135 23 Q 134 19 137 19 Q 144 18 155 26 Q 158 30 156 34 Q 150 40 146 48 L 142 53 Q 132 66 119 77" fill="#CCCCCC"/><path d="M 146 48 Q 162 46 175 42 Q 199 36 204 36 Q 211 39 213 41 Q 214 44 212 45 Q 210 47 167 56 Q 153 59 142 53" fill="#CCCCCC"/><path d="M 141 135 L 141 137 Q 140 140 136 135 Q 132 130 130 123 Q 126 98 119 82 Q 117 79 117 78 L 119 77 Q 119 76 121 77 Q 127 78 130 79 L 134 86 Q 135 91 137 104 L 139 111 Q 142 126 142 127 L 142 133" fill="#CCCCCC"/><path d="M 184 77 Q 182 75 177 76 Q 151 81 137 86 Q 135 86 134 86 L 130 79 Q 138 77 149 74 Q 173 68 175 68 Q 190 64 194 66 Q 204 72 207 76" fill="#CCCCCC"/><path d="M 176 123 Q 177 122 177 121 Q 180 116 187 84 Q 188 79 184 77 L 207 76 Q 210 80 207 83 Q 201 88 199 96 Q 190 130 187 135 Q 183 140 180 139 Q 176 136 172 130" fill="#CCCCCC"/><path d="M 137 104 Q 158 96 164 96 Q 170 97 173 100 Q 176 103 170 105 Q 157 107 139 111 Q 139 111 139 111" fill="#CCCCCC"/><path d="M 142 127 Q 170 121 174 122 Q 175 122 176 123 L 172 130 Q 159 131 142 133" fill="#CCCCCC"/><path d="M 107 215 L 84 220 Q 82 220 84 218 Q 101 203 109 195 Q 110 193 112 192 Q 135 163 132 150 Q 131 147 133 147 Q 136 146 140 148 Q 147 150 149 155 L 146 163 Q 142 169 139 173 L 135 179" fill="#CCCCCC"/><path d="M 173 157 Q 170 157 158 162 Q 151 163 146 163 L 149 155 Q 157 153 162 152 Q 171 150 178 148 Q 184 145 190 146 Q 198 149 201 152" fill="#CCCCCC"/><path d="M 166 195 Q 173 182 177 165 Q 179 159 173 157 L 201 152 Q 204 156 199 160 Q 194 164 191 171 Q 183 189 175 203 L 168 212 Q 147 235 121 237 Q 110 238 109 237 Q 106 235 109 234 Q 143 224 160 203" fill="#CCCCCC"/><path d="M 139 173 Q 145 174 153 182 Q 160 188 166 195 L 175 203 Q 199 220 215 225 Q 216 225 217 226 Q 257 238 258 240 Q 258 243 250 244 Q 234 247 206 247 Q 201 245 168 212 L 160 203 Q 143 184 135 179" fill="#CCCCCC"/><path d="M 71 36 L 75 35 Q 80 36 86 40 Q 93 46 94 49 Q 95 53 92 55 Q 84 62 83 67 Q 52 106 39 109 Q 35 109 36 106 Q 37 105 40 103 Q 51 89 59 77 Q 67 64 73 50 Q 74 46 73 41" fill="#000000" /><path d="M 55 166 L 49 173 Q 35 190 24 199 Q 17 205 14 205 Q 11 206 12 203 Q 12 201 15 199 Q 34 177 48 157 Q 62 136 72 114 Q 75 108 72 100 Q 69 94 74 94 Q 80 94 86 99 Q 93 105 94 108 Q 95 112 93 114 Q 89 118 68 148 L 62 158" fill="#170000" /><path d="M 68 148 Q 70 149 77 158 Q 80 161 78 167 Q 76 178 76 223 Q 76 235 73 245 Q 69 251 65 247 Q 56 237 61 213 Q 68 173 62 158" fill="#2e0000" /><path d="M 117 78 Q 111 83 107 83 Q 104 84 106 80 Q 113 70 115 69 Q 137 44 135 23 Q 134 19 137 19 Q 144 18 155 26 Q 158 30 156 34 Q 150 40 146 48 L 142 53 Q 132 66 119 77" fill="#450000" /><path d="M 146 48 Q 162 46 175 42 Q 199 36 204 36 Q 211 39 213 41 Q 214 44 212 45 Q 210 47 167 56 Q 153 59 142 53" fill="#5c0000" /><path d="M 141 135 L 141 137 Q 140 140 136 135 Q 132 130 130 123 Q 126 98 119 82 Q 117 79 117 78 L 119 77 Q 119 76 121 77 Q 127 78 130 79 L 134 86 Q 135 91 137 104 L 139 111 Q 142 126 142 127 L 142 133" fill="#730000" /><path d="M 184 77 Q 182 75 177 76 Q 151 81 137 86 Q 135 86 134 86 L 130 79 Q 138 77 149 74 Q 173 68 175 68 Q 190 64 194 66 Q 204 72 207 76" fill="#8b0000" /><path d="M 176 123 Q 177 122 177 121 Q 180 116 187 84 Q 188 79 184 77 L 207 76 Q 210 80 207 83 Q 201 88 199 96 Q 190 130 187 135 Q 183 140 180 139 Q 176 136 172 130" fill="#8b0000" /><path d="M 137 104 Q 158 96 164 96 Q 170 97 173 100 Q 176 103 170 105 Q 157 107 139 111 Q 139 111 139 111" fill="#a20000" /><path d="M 142 127 Q 170 121 174 122 Q 175 122 176 123 L 172 130 Q 159 131 142 133" fill="#b90000" /><path d="M 107 215 L 84 220 Q 82 220 84 218 Q 101 203 109 195 Q 110 193 112 192 Q 135 163 132 150 Q 131 147 133 147 Q 136 146 140 148 Q 147 150 149 155 L 146 163 Q 142 169 139 173 L 135 179" fill="#d00000" /><path d="M 173 157 Q 170 157 158 162 Q 151 163 146 163 L 149 155 Q 157 153 162 152 Q 171 150 178 148 Q 184 145 190 146 Q 198 149 201 152" fill="#e70000" /><path d="M 166 195 Q 173 182 177 165 Q 179 159 173 157 L 201 152 Q 204 156 199 160 Q 194 164 191 171 Q 183 189 175 203 L 168 212 Q 147 235 121 237 Q 110 238 109 237 Q 106 235 109 234 Q 143 224 160 203" fill="#e70000" /><path d="M 139 173 Q 145 174 153 182 Q 160 188 166 195 L 175 203 Q 199 220 215 225 Q 216 225 217 226 Q 257 238 258 240 Q 258 243 250 244 Q 234 247 206 247 Q 201 245 168 212 L 160 203 Q 143 184 135 179" fill="#ff0000" /></svg>