<svg xmlns="http://www.w3.org/2000/svg" xmlns:xlink="http://www.w3.org/1999/xlink" width="270" height="270"><path d="M 0 0 L 270 270 M 270 0 L 0 270 M 135 0 L 135 270 M 0 135 L 270 135" stroke="#CCCCCC" /><path d="M 82 125 Q 71 118 73 112 Q 77 106 78 96 L 80 85 Q 87 36 80 27 Q 78 23 80 21 Q 84 19 89 21 Q 100 27 104 32 Q 106 34 103 40 Q 101 42 92 83 L 89 93 Q 86 102 84 112" fill="#CCCCCC"/><path d="M 110 131 Q 125 139 126 147 Q 127 154 126 156 Q 124 159 122 159 Q 122 159 101 141 L 93 133 Q 88 129 82 125 L 84 112 Q 83 117 88 119 Q 95 123 99 125" fill="#CCCCCC"/><path d="M 118 73 L 116 69 Q 115 65 119 65 Q 126 64 135 74 Q 139 76 136 80 Q 131 86 130 93 Q 117 122 110 131 L 101 141 Q 77 161 57 160 Q 55 159 58 157 Q 77 148 93 133 L 99 125 Q 112 107 115 88 Q 116 87 116 86 L 117 78" fill="#CCCCCC"/><path d="M 78 96 Q 53 103 38 112 Q 35 113 32 112 Q 24 107 19 102 Q 17 99 18 96 Q 18 94 22 94 Q 32 94 38 93 Q 60 89 80 85 L 92 83 Q 105 80 117 78 L 116 86 Q 113 86 112 87 Q 100 90 89 93" fill="#CCCCCC"/><path d="M 190 72 Q 189 67 185 69 Q 176 72 168 75 Q 159 80 151 77 Q 147 75 149 73 Q 151 71 158 69 Q 174 65 185 57 Q 190 54 196 55 Q 204 58 210 62 Q 215 66 211 69" fill="#CCCCCC"/><path d="M 168 140 L 139 145 Q 132 146 130 144 Q 127 142 131 141 Q 159 132 172 119 L 178 110 Q 190 90 190 72 L 211 69 Q 206 74 205 83 Q 200 102 189 119 L 181 128" fill="#CCCCCC"/><path d="M 172 119 Q 153 97 143 92 Q 140 89 140 88 Q 141 87 145 87 Q 152 86 161 95 Q 170 103 178 110 L 189 119 Q 212 130 214 131 Q 251 142 251 143 Q 252 146 244 147 Q 229 150 210 150 Q 202 149 181 128" fill="#CCCCCC"/><path d="M 56 178 L 59 178 Q 61 178 62 181 Q 64 188 63 197 Q 61 219 47 230 Q 41 233 38 228 Q 33 218 39 209 Q 49 195 55 180" fill="#CCCCCC"/><path d="M 85 176 L 87 176 Q 89 175 92 177 Q 95 179 96 185 Q 100 200 109 208 Q 128 229 178 231 Q 183 231 186 230 L 212 226 Q 223 234 222 237 Q 221 241 214 244 Q 206 246 198 247 Q 143 250 111 227 Q 89 210 86 180" fill="#CCCCCC"/><path d="M 186 230 Q 188 229 188 221 Q 178 196 179 195 Q 180 193 184 197 Q 195 212 212 226" fill="#CCCCCC"/><path d="M 122 177 L 121 174 Q 121 171 122 170 Q 126 168 145 174 Q 153 177 154 182 Q 157 189 156 194 Q 155 197 152 197 Q 148 198 145 195 Q 137 188 130 182" fill="#CCCCCC"/><path d="M 193 176 L 192 173 Q 192 169 195 170 Q 236 176 242 190 Q 247 201 245 205 Q 243 208 240 208 Q 236 208 231 203 Q 212 188 196 178" fill="#CCCCCC"/><path d="M 82 125 Q 71 118 73 112 Q 77 106 78 96 L 80 85 Q 87 36 80 27 Q 78 23 80 21 Q 84 19 89 21 Q 100 27 104 32 Q 106 34 103 40 Q 101 42 92 83 L 89 93 Q 86 102 84 112" fill="#000000" /><path d="M 110 131 Q 125 139 126 147 Q 127 154 126 156 Q 124 159 122 159 Q 122 159 101 141 L 93 133 Q 88 129 82 125 L 84 112 Q 83 117 88 119 Q 95 123 99 125" fill="#000000" /><path d="M 118 73 L 116 69 Q 115 65 119 65 Q 126 64 135 74 Q 139 76 136 80 Q 131 86 130 93 Q 117 122 110 131 L 101 141 Q 77 161 57 160 Q 55 159 58 157 Q 77 148 93 133 L 99 125 Q 112 107 115 88 Q 116 87 116 86 L 117 78" fill="#1f0000" /><path d="M 78 96 Q 53 103 38 112 Q 35 113 32 112 Q 24 107 19 102 Q 17 99 18 96 Q 18 94 22 94 Q 32 94 38 93 Q 60 89 80 85 L 92 83 Q 105 80 117 78 L 116 86 Q 113 86 112 87 Q 100 90 89 93" fill="#3f0000" /><path d="M 190 72 Q 189 67 185 69 Q 176 72 168 75 Q 159 80 151 77 Q 147 75 149 73 Q 151 71 158 69 Q 174 65 185 57 Q 190 54 196 55 Q 204 58 210 62 Q 215 66 211 69" fill="#5f0000" /><path d="M 168 140 L 139 145 Q 132 146 130 144 Q 127 142 131 141 Q 159 132 172 119 L 178 110 Q 190 90 190 72 L 211 69 Q 206 74 205 83 Q 200 102 189 119 L 181 128" fill="#5f0000" /><path d="M 172 119 Q 153 97 143 92 Q 140 89 140 88 Q 141 87 145 87 Q 152 86 161 95 Q 170 103 178 110 L 189 119 Q 212 130 214 131 Q 251 142 251 143 Q 252 146 244 147 Q 229 150 210 150 Q 202 149 181 128" fill="#7f0000" /><path d="M 56 178 L 59 178 Q 61 178 62 181 Q 64 188 63 197 Q 61 219 47 230 Q 41 233 38 228 Q 33 218 39 209 Q 49 195 55 180" fill="#9f0000" /><path d="M 85 176 L 87 176 Q 89 175 92 177 Q 95 179 96 185 Q 100 200 109 208 Q 128 229 178 231 Q 183 231 186 230 L 212 226 Q 223 234 222 237 Q 221 241 214 244 Q 206 246 198 247 Q 143 250 111 227 Q 89 210 86 180" fill="#bf0000" /><path d="M 186 230 Q 188 229 188 221 Q 178 196 179 195 Q 180 193 184 197 Q 195 212 212 226" fill="#bf0000" /><path d="M 122 177 L 121 174 Q 121 171 122 170 Q 126 168 145 174 Q 153 177 154 182 Q 157 189 156 194 Q 155 197 152 197 Q 148 198 145 195 Q 137 188 130 182" fill="#df0000" /><path d="M 193 176 L 192 173 Q 192 169 195 170 Q 236 176 242 190 Q 247 201 245 205 Q 243 208 240 208 Q 236 208 231 203 Q 212 188 196 178" fill="#ff0000" /></svg>