<svg xmlns="http://www.w3.org/2000/svg" xmlns:xlink="http://www.w3.org/1999/xlink" width="270" height="270"><path d="M 0 0 L 270 270 M 270 0 L 0 270 M 135 0 L 135 270 M 0 135 L 270 135" stroke="#CCCCCC" /><path d="M 41 96 L 43 95 Q 44 95 46 97 Q 49 103 49 112 Q 52 138 39 152 Q 34 156 31 152 Q 25 144 29 134 Q 36 116 40 98" fill="#CCCCCC"/><path d="M 82 79 Q 86 79 99 85 Q 107 89 108 94 Q 110 100 109 104 Q 108 107 105 107 L 105 107 Q 102 107 81 88" fill="#CCCCCC"/><path d="M 80 200 L 80 213 Q 80 221 78 227 Q 75 233 73 234 Q 71 236 70 234 Q 68 234 66 229 Q 59 213 62 202 Q 64 196 65 190 Q 69 167 69 55 Q 69 38 60 25 Q 59 21 60 20 Q 65 16 72 21 Q 86 29 88 32 Q 89 36 86 39 Q 82 56 82 79 L 81 88" fill="#CCCCCC"/><path d="M 142 76 Q 135 78 130 79 Q 126 81 120 79 Q 116 78 112 75 Q 109 71 113 70 Q 131 67 146 65 L 162 62 Q 166 61 171 61 Q 196 55 212 52 Q 225 48 240 58 Q 244 61 242 64 Q 241 66 227 66 Q 180 68 158 73" fill="#CCCCCC"/><path d="M 126 131 Q 124 133 123 135 Q 96 163 87 163 Q 83 163 84 162 Q 84 161 96 151 Q 120 123 142 76 L 146 65 Q 151 51 156 35 Q 158 27 153 18 Q 150 12 155 12 Q 160 11 165 15 Q 173 22 176 27 Q 178 30 176 32 Q 170 41 162 62 L 158 73 Q 152 91 142 107 Q 135 117 130 125" fill="#CCCCCC"/><path d="M 142 138 Q 141 145 140 164 Q 140 184 133 189 Q 131 190 130 187 Q 127 185 127 183 Q 122 170 126 167 Q 133 146 126 131 L 130 125 Q 137 126 139 129" fill="#CCCCCC"/><path d="M 158 134 L 148 137 Q 144 138 142 138 L 139 129 Q 154 126 167 124 L 182 120 Q 183 119 183 119 Q 197 116 206 112 Q 217 106 235 118 L 213 124 Q 211 122 205 123 Q 196 124 182 128 L 167 132" fill="#CCCCCC"/><path d="M 235 118 Q 237 120 235 125 Q 232 134 232 163 Q 232 177 227 187 Q 224 193 221 194 Q 216 196 213 192 L 213 166 Q 215 163 215 155 Q 216 144 216 135 Q 216 126 213 124" fill="#CCCCCC"/><path d="M 213 192 Q 206 182 193 170 Q 189 166 190 165 Q 192 163 196 165 Q 201 166 205 167 Q 211 169 213 166" fill="#CCCCCC"/><path d="M 167 124 Q 167 116 167 109 Q 166 105 161 92 Q 159 89 161 87 Q 165 85 169 86 Q 173 87 182 92 Q 186 95 185 100 Q 183 111 182 120 L 182 128 Q 180 238 180 238 Q 179 254 175 257 Q 173 258 171 256 Q 170 254 169 252 Q 167 247 167 132" fill="#CCCCCC"/><path d="M 41 96 L 43 95 Q 44 95 46 97 Q 49 103 49 112 Q 52 138 39 152 Q 34 156 31 152 Q 25 144 29 134 Q 36 116 40 98" fill="#000000" /><path d="M 82 79 Q 86 79 99 85 Q 107 89 108 94 Q 110 100 109 104 Q 108 107 105 107 L 105 107 Q 102 107 81 88" fill="#240000" /><path d="M 80 200 L 80 213 Q 80 221 78 227 Q 75 233 73 234 Q 71 236 70 234 Q 68 234 66 229 Q 59 213 62 202 Q 64 196 65 190 Q 69 167 69 55 Q 69 38 60 25 Q 59 21 60 20 Q 65 16 72 21 Q 86 29 88 32 Q 89 36 86 39 Q 82 56 82 79 L 81 88" fill="#480000" /><path d="M 142 76 Q 135 78 130 79 Q 126 81 120 79 Q 116 78 112 75 Q 109 71 113 70 Q 131 67 146 65 L 162 62 Q 166 61 171 61 Q 196 55 212 52 Q 225 48 240 58 Q 244 61 242 64 Q 241 66 227 66 Q 180 68 158 73" fill="#6d0000" /><path d="M 126 131 Q 124 133 123 135 Q 96 163 87 163 Q 83 163 84 162 Q 84 161 96 151 Q 120 123 142 76 L 146 65 Q 151 51 156 35 Q 158 27 153 18 Q 150 12 155 12 Q 160 11 165 15 Q 173 22 176 27 Q 178 30 176 32 Q 170 41 162 62 L 158 73 Q 152 91 142 107 Q 135 117 130 125" fill="#910000" /><path d="M 142 138 Q 141 145 140 164 Q 140 184 133 189 Q 131 190 130 187 Q 127 185 127 183 Q 122 170 126 167 Q 133 146 126 131 L 130 125 Q 137 126 139 129" fill="#b60000" /><path d="M 158 134 L 148 137 Q 144 138 142 138 L 139 129 Q 154 126 167 124 L 182 120 Q 183 119 183 119 Q 197 116 206 112 Q 217 106 235 118 L 213 124 Q 211 122 205 123 Q 196 124 182 128 L 167 132" fill="#da0000" /><path d="M 235 118 Q 237 120 235 125 Q 232 134 232 163 Q 232 177 227 187 Q 224 193 221 194 Q 216 196 213 192 L 213 166 Q 215 163 215 155 Q 216 144 216 135 Q 216 126 213 124" fill="#da0000" /><path d="M 213 192 Q 206 182 193 170 Q 189 166 190 165 Q 192 163 196 165 Q 201 166 205 167 Q 211 169 213 166" fill="#da0000" /><path d="M 167 124 Q 167 116 167 109 Q 166 105 161 92 Q 159 89 161 87 Q 165 85 169 86 Q 173 87 182 92 Q 186 95 185 100 Q 183 111 182 120 L 182 128 Q 180 238 180 238 Q 179 254 175 257 Q 173 258 171 256 Q 170 254 169 252 Q 167 247 167 132" fill="#ff0000" /></svg>