<svg xmlns="http://www.w3.org/2000/svg" xmlns:xlink="http://www.w3.org/1999/xlink" width="270" height="270"><path d="M 0 0 L 270 270 M 270 0 L 0 270 M 135 0 L 135 270 M 0 135 L 270 135" stroke="#CCCCCC" /><path d="M 31 100 L 34 99 Q 35 100 37 101 Q 39 108 39 117 Q 40 142 27 154 Q 22 158 19 153 Q 13 145 18 135 Q 26 119 31 102" fill="#CCCCCC"/><path d="M 70 75 Q 73 75 91 80 Q 99 84 100 89 Q 103 96 102 99 Q 101 102 98 102 Q 95 102 92 100 Q 83 92 75 86 Q 72 83 70 81" fill="#CCCCCC"/><path d="M 70 86 L 70 90 Q 67 207 67 219 Q 67 236 60 241 Q 58 243 56 241 Q 54 240 52 235 Q 46 219 49 209 Q 50 203 52 197 Q 57 167 57 69 Q 57 47 49 35 Q 48 31 49 30 Q 54 26 60 30 Q 75 39 76 42 Q 77 45 75 49 Q 71 60 70 75 L 70 81" fill="#CCCCCC"/><path d="M 129 113 L 109 134 Q 108 135 107 136 Q 86 156 78 158 Q 75 158 77 156 Q 102 126 112 111 Q 115 107 117 103 Q 146 52 138 32 Q 137 28 139 27 Q 142 26 149 27 Q 161 29 164 37 Q 165 40 163 42 Q 162 43 154 61 L 151 67" fill="#CCCCCC"/><path d="M 154 61 Q 179 87 201 105 Q 215 116 252 129 Q 256 130 256 132 Q 256 133 253 134 Q 244 135 216 136 Q 207 137 202 131 Q 173 99 151 67" fill="#CCCCCC"/><path d="M 133 134 L 142 132 Q 149 130 156 128 Q 164 124 173 126 Q 181 127 182 130 Q 184 132 181 135 Q 180 135 174 137 Q 160 140 147 143 Q 133 147 121 141 Q 114 137 123 135" fill="#CCCCCC"/><path d="M 133 234 L 132 239 Q 130 243 125 237 Q 120 231 119 222 Q 114 193 106 175 Q 104 171 106 169 Q 107 167 110 168 Q 118 170 122 171 L 126 180 Q 127 189 131 217 L 133 227" fill="#CCCCCC"/><path d="M 177 173 Q 175 171 170 172 Q 154 175 126 180 L 122 171 Q 150 167 171 160 Q 182 151 205 168" fill="#CCCCCC"/><path d="M 174 208 Q 177 196 180 181 Q 180 175 177 173 L 205 168 Q 209 173 204 179 Q 195 185 187 210" fill="#CCCCCC"/><path d="M 131 217 Q 149 214 172 208 Q 173 208 174 208 L 187 210 Q 195 215 195 217 Q 194 220 191 220 Q 154 223 137 226 Q 134 227 133 227" fill="#CCCCCC"/><path d="M 31 100 L 34 99 Q 35 100 37 101 Q 39 108 39 117 Q 40 142 27 154 Q 22 158 19 153 Q 13 145 18 135 Q 26 119 31 102" fill="#000000" /><path d="M 70 75 Q 73 75 91 80 Q 99 84 100 89 Q 103 96 102 99 Q 101 102 98 102 Q 95 102 92 100 Q 83 92 75 86 Q 72 83 70 81" fill="#1f0000" /><path d="M 70 86 L 70 90 Q 67 207 67 219 Q 67 236 60 241 Q 58 243 56 241 Q 54 240 52 235 Q 46 219 49 209 Q 50 203 52 197 Q 57 167 57 69 Q 57 47 49 35 Q 48 31 49 30 Q 54 26 60 30 Q 75 39 76 42 Q 77 45 75 49 Q 71 60 70 75 L 70 81" fill="#3f0000" /><path d="M 129 113 L 109 134 Q 108 135 107 136 Q 86 156 78 158 Q 75 158 77 156 Q 102 126 112 111 Q 115 107 117 103 Q 146 52 138 32 Q 137 28 139 27 Q 142 26 149 27 Q 161 29 164 37 Q 165 40 163 42 Q 162 43 154 61 L 151 67" fill="#5f0000" /><path d="M 154 61 Q 179 87 201 105 Q 215 116 252 129 Q 256 130 256 132 Q 256 133 253 134 Q 244 135 216 136 Q 207 137 202 131 Q 173 99 151 67" fill="#7f0000" /><path d="M 133 134 L 142 132 Q 149 130 156 128 Q 164 124 173 126 Q 181 127 182 130 Q 184 132 181 135 Q 180 135 174 137 Q 160 140 147 143 Q 133 147 121 141 Q 114 137 123 135" fill="#9f0000" /><path d="M 133 234 L 132 239 Q 130 243 125 237 Q 120 231 119 222 Q 114 193 106 175 Q 104 171 106 169 Q 107 167 110 168 Q 118 170 122 171 L 126 180 Q 127 189 131 217 L 133 227" fill="#bf0000" /><path d="M 177 173 Q 175 171 170 172 Q 154 175 126 180 L 122 171 Q 150 167 171 160 Q 182 151 205 168" fill="#df0000" /><path d="M 174 208 Q 177 196 180 181 Q 180 175 177 173 L 205 168 Q 209 173 204 179 Q 195 185 187 210" fill="#df0000" /><path d="M 131 217 Q 149 214 172 208 Q 173 208 174 208 L 187 210 Q 195 215 195 217 Q 194 220 191 220 Q 154 223 137 226 Q 134 227 133 227" fill="#ff0000" /></svg>