<svg xmlns="http://www.w3.org/2000/svg" xmlns:xlink="http://www.w3.org/1999/xlink" width="270" height="270"><path d="M 0 0 L 270 270 M 270 0 L 0 270 M 135 0 L 135 270 M 0 135 L 270 135" stroke="#CCCCCC" /><path d="M 28 93 L 30 92 Q 31 92 33 94 Q 36 100 36 109 Q 38 134 27 147 Q 22 151 19 147 Q 14 139 17 130 Q 23 113 27 95" fill="#000000" /><path d="M 66 85 Q 66 85 70 85 Q 89 87 92 94 Q 94 100 93 103 Q 93 106 90 106 Q 88 106 86 106 Q 65 91 65 90" fill="#130000" /><path d="M 63 204 L 63 216 Q 63 233 56 237 Q 54 240 52 238 Q 50 237 48 232 Q 42 216 45 206 Q 50 188 51 169 Q 52 130 54 95 Q 53 75 53 57 Q 53 45 45 33 Q 44 29 45 28 Q 50 24 56 28 Q 71 37 72 40 Q 73 43 71 47 Q 66 63 66 85 L 65 90" fill="#270000" /><path d="M 139 21 L 138 18 Q 138 15 139 14 Q 140 14 144 14 Q 164 16 167 23 Q 170 30 169 34 Q 168 37 166 37 Q 161 38 158 35 Q 152 30 147 26" fill="#3a0000" /><path d="M 115 57 Q 153 54 190 43 Q 197 40 204 42 Q 211 44 212 47 Q 213 49 211 51 Q 209 53 195 55 Q 164 61 135 66 Q 126 68 118 65" fill="#4e0000" /><path d="M 116 71 L 116 75 Q 113 136 99 173 Q 96 181 92 188 Q 75 218 68 219 Q 66 220 66 217 Q 66 216 68 214 Q 86 181 93 158 Q 102 125 102 81 Q 102 63 97 57 Q 96 54 98 52 Q 101 50 106 53 Q 111 55 115 57 L 118 65" fill="#620000" /><path d="M 153 95 Q 148 95 143 96 Q 135 99 129 96 Q 125 95 124 93 Q 124 91 128 90 Q 140 89 153 87 L 168 83 Q 172 82 177 80 Q 192 73 211 87 L 187 91 Q 184 88 166 92" fill="#750000" /><path d="M 188 106 Q 188 103 189 100 Q 190 93 187 91 L 211 87 Q 214 91 210 95 Q 207 98 204 103 L 198 114 Q 196 120 194 132 L 181 133 Q 184 124 185 115" fill="#750000" /><path d="M 153 120 Q 141 122 131 125 Q 127 126 123 125 Q 119 124 116 121 Q 113 118 117 117 Q 136 114 153 112 L 165 110 Q 186 106 188 106 L 204 103 Q 209 102 214 101 Q 227 96 239 105 Q 243 108 242 110 Q 241 112 237 112 Q 232 112 227 112 Q 211 113 198 114 L 185 115 Q 177 115 165 118" fill="#890000" /><path d="M 153 146 Q 146 147 140 148 Q 128 149 125 146 Q 122 142 127 141 Q 139 140 153 138 L 164 136 Q 172 134 181 133 L 194 132 Q 195 132 196 132 Q 204 137 203 139 Q 203 141 200 142 Q 179 143 164 145" fill="#9c0000" /><path d="M 165 178 Q 165 199 167 220 Q 168 237 164 248 Q 161 255 158 255 Q 154 255 150 248 L 150 227 Q 153 225 153 220 Q 153 175 153 146 L 153 138 Q 153 128 153 120 L 153 112 Q 153 101 153 95 L 153 87 Q 153 78 147 72 Q 144 67 147 65 Q 152 64 160 68 Q 173 73 169 80 Q 168 81 168 83 L 166 92 Q 165 100 165 110 L 165 118 Q 164 127 164 136 L 164 145 Q 164 157 164 169" fill="#b00000" /><path d="M 150 248 Q 147 242 132 232 Q 127 229 127 228 Q 126 225 134 228 Q 149 228 150 227" fill="#b00000" /><path d="M 115 168 L 114 166 Q 113 163 114 163 Q 116 162 119 162 Q 119 162 120 162 Q 136 162 140 172 Q 141 175 140 178 Q 139 181 136 181 Q 129 180 118 170" fill="#c40000" /><path d="M 102 206 L 104 206 Q 109 206 140 190 Q 142 189 142 190 Q 143 192 141 193 Q 123 210 116 218 Q 113 222 111 222 Q 108 222 102 218 Q 97 214 96 210 Q 97 207 99 206" fill="#d70000" /><path d="M 176 176 L 178 174 Q 191 158 191 153 Q 190 150 193 149 Q 196 149 200 152 Q 206 155 209 159 Q 211 163 206 165 Q 201 167 197 170 Q 193 173 189 175 Q 185 177 179 180 L 175 177" fill="#eb0000" /><path d="M 179 180 Q 195 191 206 196 Q 207 196 252 210 Q 255 211 255 213 Q 255 214 251 214 Q 225 221 214 219 Q 204 217 165 178 L 164 169 Q 173 176 175 177" fill="#ff0000" /></svg>