<svg xmlns="http://www.w3.org/2000/svg" xmlns:xlink="http://www.w3.org/1999/xlink" width="270" height="270"><path d="M 0 0 L 270 270 M 270 0 L 0 270 M 135 0 L 135 270 M 0 135 L 270 135" stroke="#CCCCCC" /><path d="M 110 19 L 109 17 Q 108 13 109 12 Q 111 11 115 12 Q 136 14 140 21 Q 143 29 142 33 Q 141 37 138 37 Q 134 38 130 34 Q 124 29 118 24" fill="#000000" /><path d="M 63 71 L 60 81 Q 58 90 55 96 Q 52 103 46 98 Q 39 85 42 78 Q 55 63 53 52 Q 53 45 58 48 Q 60 50 64 54 L 65 64" fill="#110000" /><path d="M 64 54 Q 76 53 89 51 Q 157 42 181 40 Q 200 37 206 42 L 188 48 Q 185 47 175 48 Q 111 53 72 64 Q 68 65 65 64" fill="#220000" /><path d="M 206 42 Q 223 57 223 59 Q 223 62 213 64 Q 201 66 185 74 Q 180 76 178 75 L 177 75 Q 184 63 190 52 Q 191 50 188 48" fill="#220000" /><path d="M 119 81 Q 114 81 110 82 Q 91 85 85 81 Q 80 78 87 76 Q 104 75 118 72 L 135 68 Q 149 62 157 64 Q 163 65 164 67 Q 165 69 163 71 Q 162 72 133 78" fill="#330000" /><path d="M 120 100 Q 113 101 107 102 Q 98 104 92 100 Q 88 97 93 96 Q 106 94 120 92 L 132 89 Q 147 83 154 88 Q 158 89 158 92 Q 157 92 157 92 Q 144 95 131 98" fill="#440000" /><path d="M 120 106 L 120 100 L 120 92 Q 119 86 119 81 L 118 72 Q 118 67 114 63 Q 113 60 114 58 Q 116 56 119 57 Q 125 58 132 62 Q 136 65 135 67 Q 135 68 135 68 L 133 78 Q 132 84 132 89 L 131 98 Q 130 104 130 112 L 121 113" fill="#550000" /><path d="M 130 112 Q 146 107 158 105 Q 173 100 186 109 Q 189 111 188 114 Q 187 116 183 116 L 183 116 Q 130 116 89 128 Q 80 131 73 126 Q 69 122 73 121 Q 99 117 121 113" fill="#660000" /><path d="M 91 183 L 91 184 Q 90 188 86 183 Q 82 180 80 175 Q 74 158 67 148 Q 65 145 66 143 Q 67 142 69 142 Q 78 143 81 144 L 84 151 Q 85 157 90 173 Q 90 174 91 176 L 91 183" fill="#770000" /><path d="M 131 143 Q 118 144 107 146 L 103 147 L 103 147 Q 91 149 84 151 L 81 144 Q 144 134 148 134 Q 168 130 171 132 Q 182 139 186 143 L 164 141 Q 159 138 140 142" fill="#880000" /><path d="M 158 168 Q 160 162 164 148 Q 166 142 164 141 L 186 143 Q 189 146 184 150 Q 176 156 172 167 Q 164 181 160 181 Q 157 181 156 178 Q 156 176 156 175" fill="#880000" /><path d="M 107 146 Q 108 147 109 147 Q 115 161 115 172 Q 114 172 114 173 L 109 173 Q 105 169 104 157 Q 104 152 103 147" fill="#990000" /><path d="M 128 170 Q 133 148 131 143 L 140 142 Q 143 144 145 146 Q 147 148 145 150 Q 142 154 141 156 Q 139 162 136 167 Q 135 168 135 169" fill="#aa0000" /><path d="M 121 171 L 128 170 L 135 169 Q 148 165 155 167 Q 157 167 158 168 L 156 175 Q 130 178 98 183 Q 94 183 91 183 L 91 176 Q 100 174 109 173 L 114 173" fill="#bb0000" /><path d="M 52 190 L 54 190 Q 56 190 57 192 Q 59 199 58 208 Q 59 227 46 238 Q 40 242 38 237 Q 33 229 38 219 Q 45 207 51 192" fill="#cc0000" /><path d="M 77 196 L 79 195 Q 81 194 84 196 Q 87 197 89 203 Q 93 217 103 224 Q 122 241 169 238 Q 173 237 175 237 L 205 230 Q 215 237 214 240 Q 213 244 207 247 Q 198 251 188 252 Q 135 258 106 241 Q 84 227 78 199" fill="#dd0000" /><path d="M 175 237 Q 184 235 181 226 Q 174 203 175 203 Q 176 201 179 206 Q 190 218 205 230" fill="#dd0000" /><path d="M 122 194 L 121 191 Q 121 188 122 188 Q 125 187 128 188 Q 140 192 143 194 Q 148 197 149 203 Q 149 207 148 210 Q 145 213 142 213 Q 134 209 125 197" fill="#ee0000" /><path d="M 192 177 L 191 175 Q 190 171 191 170 Q 193 169 197 170 Q 229 175 233 185 Q 236 193 235 197 Q 234 201 231 201 Q 227 202 223 199 Q 211 190 200 183" fill="#ff0000" /></svg>