<svg xmlns="http://www.w3.org/2000/svg" xmlns:xlink="http://www.w3.org/1999/xlink" width="270" height="270"><path d="M 0 0 L 270 270 M 270 0 L 0 270 M 135 0 L 135 270 M 0 135 L 270 135" stroke="#CCCCCC" /><path d="M 36 94 L 38 94 Q 39 94 41 95 Q 44 101 45 109 Q 48 133 37 146 Q 32 151 29 146 Q 23 139 27 130 Q 32 114 35 97" fill="#CCCCCC"/><path d="M 79 79 Q 88 80 95 82 Q 103 84 105 88 Q 107 94 107 97 Q 106 100 104 100 Q 101 101 98 99 Q 86 91 78 87" fill="#CCCCCC"/><path d="M 78 91 L 78 95 Q 77 216 77 229 Q 77 237 75 244 Q 72 249 70 251 Q 68 253 66 251 Q 64 250 62 246 Q 55 229 58 218 Q 60 212 61 206 Q 65 183 65 69 Q 65 51 57 39 Q 55 35 56 34 Q 62 30 68 34 Q 83 43 85 45 Q 86 49 83 53 Q 80 64 79 79 L 78 87" fill="#CCCCCC"/><path d="M 181 55 Q 160 56 152 59 L 142 60 Q 139 61 136 61 Q 116 66 107 61 Q 102 58 109 57 Q 125 54 140 52 L 151 51 Q 168 47 183 45 L 197 42 Q 197 42 197 42 Q 197 42 198 42 Q 218 36 230 45 Q 233 48 232 50 Q 231 52 227 52 Q 207 51 192 54" fill="#CCCCCC"/><path d="M 152 59 Q 153 73 152 76 Q 151 79 148 77 Q 144 72 142 60 L 140 52 Q 138 43 131 35 Q 128 30 132 28 Q 137 26 146 31 Q 151 32 150 37 Q 151 43 151 51" fill="#CCCCCC"/><path d="M 179 70 Q 178 68 181 55 L 183 45 Q 186 27 184 22 Q 182 20 184 18 Q 188 16 192 18 Q 201 22 203 26 Q 206 29 202 32 Q 199 38 197 42 L 192 54 Q 188 63 182 70" fill="#CCCCCC"/><path d="M 153 94 Q 132 97 130 96 Q 129 95 130 94 Q 177 81 178 72 Q 178 70 179 70 L 182 70 Q 189 71 199 80 Q 201 83 200 85 Q 198 87 195 87 Q 183 87 166 92" fill="#CCCCCC"/><path d="M 159 114 Q 158 114 158 114 Q 134 117 112 124 Q 108 125 103 124 Q 99 123 96 120 Q 92 116 97 115 Q 130 110 158 106 L 173 103 Q 198 98 215 94 Q 227 90 242 100 Q 246 103 245 105 Q 244 108 239 108 Q 200 108 172 112" fill="#CCCCCC"/><path d="M 131 144 Q 132 152 137 173 Q 137 176 138 179 L 137 185 Q 137 186 137 188 Q 136 191 131 186 Q 127 182 126 176 Q 121 153 114 141 Q 111 137 113 135 Q 113 134 116 134 Q 124 136 127 137" fill="#CCCCCC"/><path d="M 159 137 Q 142 141 131 144 L 127 137 Q 138 135 150 132 Q 155 131 159 130 L 172 128 Q 181 125 189 124 Q 208 120 212 123 Q 222 129 225 133 L 203 133 Q 200 130 191 131 Q 181 133 172 135" fill="#CCCCCC"/><path d="M 194 171 Q 198 167 205 139 Q 205 136 203 133 L 225 133 Q 228 137 225 140 Q 219 145 216 153 Q 208 179 205 184 Q 201 188 198 186 Q 194 184 191 177" fill="#CCCCCC"/><path d="M 160 160 Q 144 161 143 161 Q 138 157 142 157 Q 150 154 159 152 L 172 148 Q 178 147 182 147 Q 188 148 190 152 Q 192 155 187 156 Q 179 157 171 158" fill="#CCCCCC"/><path d="M 159 182 Q 152 183 143 184 Q 140 185 137 185 L 138 179 Q 148 176 160 175 L 171 172 Q 187 166 194 171 L 191 177 Q 181 179 171 180" fill="#CCCCCC"/><path d="M 159 213 Q 157 213 156 213 Q 137 215 129 210 Q 123 206 131 205 Q 146 205 159 202 L 171 200 Q 189 195 194 196 Q 201 199 202 201 Q 203 203 201 205 Q 200 206 171 211" fill="#CCCCCC"/><path d="M 159 221 L 159 213 L 159 202 Q 159 191 159 182 L 160 175 Q 160 167 160 160 L 159 152 Q 159 143 159 137 L 159 130 Q 159 115 159 114 L 158 106 Q 158 102 153 94 L 166 92 Q 169 94 172 97 Q 174 99 173 103 L 172 112 Q 172 120 172 128 L 172 135 Q 172 141 172 148 L 171 158 Q 171 165 171 172 L 171 180 Q 171 190 171 200 L 171 211 Q 171 220 171 230 L 159 231" fill="#CCCCCC"/><path d="M 171 230 Q 201 226 219 222 Q 227 220 242 230 Q 246 234 244 237 Q 243 239 238 239 Q 234 239 230 239 Q 152 239 117 248 Q 113 248 107 247 Q 103 246 99 242 Q 96 238 101 237 Q 132 234 159 231" fill="#CCCCCC"/><path d="M 36 94 L 38 94 Q 39 94 41 95 Q 44 101 45 109 Q 48 133 37 146 Q 32 151 29 146 Q 23 139 27 130 Q 32 114 35 97" fill="#000000" /><path d="M 79 79 Q 88 80 95 82 Q 103 84 105 88 Q 107 94 107 97 Q 106 100 104 100 Q 101 101 98 99 Q 86 91 78 87" fill="#120000" /><path d="M 78 91 L 78 95 Q 77 216 77 229 Q 77 237 75 244 Q 72 249 70 251 Q 68 253 66 251 Q 64 250 62 246 Q 55 229 58 218 Q 60 212 61 206 Q 65 183 65 69 Q 65 51 57 39 Q 55 35 56 34 Q 62 30 68 34 Q 83 43 85 45 Q 86 49 83 53 Q 80 64 79 79 L 78 87" fill="#240000" /><path d="M 181 55 Q 160 56 152 59 L 142 60 Q 139 61 136 61 Q 116 66 107 61 Q 102 58 109 57 Q 125 54 140 52 L 151 51 Q 168 47 183 45 L 197 42 Q 197 42 197 42 Q 197 42 198 42 Q 218 36 230 45 Q 233 48 232 50 Q 231 52 227 52 Q 207 51 192 54" fill="#360000" /><path d="M 152 59 Q 153 73 152 76 Q 151 79 148 77 Q 144 72 142 60 L 140 52 Q 138 43 131 35 Q 128 30 132 28 Q 137 26 146 31 Q 151 32 150 37 Q 151 43 151 51" fill="#480000" /><path d="M 179 70 Q 178 68 181 55 L 183 45 Q 186 27 184 22 Q 182 20 184 18 Q 188 16 192 18 Q 201 22 203 26 Q 206 29 202 32 Q 199 38 197 42 L 192 54 Q 188 63 182 70" fill="#5b0000" /><path d="M 153 94 Q 132 97 130 96 Q 129 95 130 94 Q 177 81 178 72 Q 178 70 179 70 L 182 70 Q 189 71 199 80 Q 201 83 200 85 Q 198 87 195 87 Q 183 87 166 92" fill="#6d0000" /><path d="M 159 114 Q 158 114 158 114 Q 134 117 112 124 Q 108 125 103 124 Q 99 123 96 120 Q 92 116 97 115 Q 130 110 158 106 L 173 103 Q 198 98 215 94 Q 227 90 242 100 Q 246 103 245 105 Q 244 108 239 108 Q 200 108 172 112" fill="#7f0000" /><path d="M 131 144 Q 132 152 137 173 Q 137 176 138 179 L 137 185 Q 137 186 137 188 Q 136 191 131 186 Q 127 182 126 176 Q 121 153 114 141 Q 111 137 113 135 Q 113 134 116 134 Q 124 136 127 137" fill="#910000" /><path d="M 159 137 Q 142 141 131 144 L 127 137 Q 138 135 150 132 Q 155 131 159 130 L 172 128 Q 181 125 189 124 Q 208 120 212 123 Q 222 129 225 133 L 203 133 Q 200 130 191 131 Q 181 133 172 135" fill="#a30000" /><path d="M 194 171 Q 198 167 205 139 Q 205 136 203 133 L 225 133 Q 228 137 225 140 Q 219 145 216 153 Q 208 179 205 184 Q 201 188 198 186 Q 194 184 191 177" fill="#a30000" /><path d="M 160 160 Q 144 161 143 161 Q 138 157 142 157 Q 150 154 159 152 L 172 148 Q 178 147 182 147 Q 188 148 190 152 Q 192 155 187 156 Q 179 157 171 158" fill="#b60000" /><path d="M 159 182 Q 152 183 143 184 Q 140 185 137 185 L 138 179 Q 148 176 160 175 L 171 172 Q 187 166 194 171 L 191 177 Q 181 179 171 180" fill="#c80000" /><path d="M 159 213 Q 157 213 156 213 Q 137 215 129 210 Q 123 206 131 205 Q 146 205 159 202 L 171 200 Q 189 195 194 196 Q 201 199 202 201 Q 203 203 201 205 Q 200 206 171 211" fill="#da0000" /><path d="M 159 221 L 159 213 L 159 202 Q 159 191 159 182 L 160 175 Q 160 167 160 160 L 159 152 Q 159 143 159 137 L 159 130 Q 159 115 159 114 L 158 106 Q 158 102 153 94 L 166 92 Q 169 94 172 97 Q 174 99 173 103 L 172 112 Q 172 120 172 128 L 172 135 Q 172 141 172 148 L 171 158 Q 171 165 171 172 L 171 180 Q 171 190 171 200 L 171 211 Q 171 220 171 230 L 159 231" fill="#ec0000" /><path d="M 171 230 Q 201 226 219 222 Q 227 220 242 230 Q 246 234 244 237 Q 243 239 238 239 Q 234 239 230 239 Q 152 239 117 248 Q 113 248 107 247 Q 103 246 99 242 Q 96 238 101 237 Q 132 234 159 231" fill="#ff0000" /></svg>