<svg xmlns="http://www.w3.org/2000/svg" xmlns:xlink="http://www.w3.org/1999/xlink" width="270" height="270"><path d="M 0 0 L 270 270 M 270 0 L 0 270 M 135 0 L 135 270 M 0 135 L 270 135" stroke="#CCCCCC" /><path d="M 76 103 Q 68 105 61 107 Q 44 112 33 108 Q 26 104 35 101 Q 49 98 76 90 L 90 84 Q 96 81 104 81 Q 112 82 114 85 Q 115 88 113 90 Q 112 91 89 99" fill="#000000" /><path d="M 75 119 L 76 103 L 76 90 Q 76 54 76 49 Q 75 40 70 33 Q 66 27 70 25 Q 76 23 85 28 Q 100 34 95 42 Q 90 61 90 84 L 89 99 Q 89 115 89 132 L 89 141 Q 89 173 91 205 Q 91 224 86 237 Q 82 246 78 246 Q 74 245 70 237 L 71 212 Q 74 210 74 204 Q 75 175 75 152 L 75 141" fill="#2a0000" /><path d="M 70 237 Q 66 229 51 216 Q 45 212 45 210 Q 44 207 53 211 Q 70 213 71 212" fill="#2a0000" /><path d="M 89 132 Q 107 121 107 121 Q 110 120 109 124 Q 106 129 100 132 Q 94 136 89 141 L 75 152 Q 58 166 34 191 Q 31 194 27 193 Q 21 191 16 187 Q 12 184 12 181 Q 13 177 17 177 Q 20 175 75 141" fill="#550000" /><path d="M 168 86 L 189 78 Q 202 70 224 85 L 197 90 Q 194 88 167 96 L 158 98 Q 150 100 142 102 Q 138 104 134 104 L 133 95" fill="#7f0000" /><path d="M 224 85 Q 228 90 224 95 Q 214 104 206 132 L 193 130 Q 196 116 200 99 Q 200 93 197 90" fill="#7f0000" /><path d="M 159 139 Q 159 132 159 128 Q 159 99 158 98 L 167 96 Q 170 98 173 101 Q 174 103 173 111 Q 171 122 169 136" fill="#aa0000" /><path d="M 206 132 Q 211 136 211 138 Q 211 140 208 140 Q 158 146 135 153 Q 132 153 130 153 L 131 144 Q 144 142 159 139 L 169 136 Q 180 133 191 130 Q 192 130 193 130" fill="#d40000" /><path d="M 134 104 Q 131 125 131 144 L 130 153 Q 129 183 137 197 L 134 218 Q 127 211 125 203 Q 119 184 121 115 Q 121 105 118 95 Q 116 90 118 89 Q 120 88 123 89 Q 129 91 133 95" fill="#ff0000" /><path d="M 137 197 Q 140 204 151 209 Q 179 220 210 211 Q 224 207 229 201 L 254 201 Q 257 208 252 212 Q 239 222 226 226 Q 221 227 217 228 Q 161 238 134 218" fill="#ff0000" /><path d="M 229 201 Q 234 194 242 171 Q 243 166 245 167 Q 247 169 247 173 Q 251 194 254 201" fill="#ff0000" /></svg>