<svg xmlns="http://www.w3.org/2000/svg" xmlns:xlink="http://www.w3.org/1999/xlink" width="270" height="270"><path d="M 0 0 L 270 270 M 270 0 L 0 270 M 135 0 L 135 270 M 0 135 L 270 135" stroke="#CCCCCC" /><path d="M 78 91 Q 70 93 63 96 Q 49 101 37 95 Q 29 92 39 89 Q 54 86 78 78 L 92 72 Q 95 72 99 72 Q 107 73 109 76 Q 110 78 108 81 Q 107 82 91 87" fill="#000000" /><path d="M 77 108 L 78 91 L 78 78 Q 79 43 78 39 Q 78 30 72 22 Q 68 16 73 15 Q 78 13 87 18 Q 102 24 97 32 Q 92 51 92 72 L 91 87 Q 90 106 90 124 L 90 133 Q 90 164 92 197 Q 92 217 86 229 Q 82 238 78 238 Q 75 237 71 229 L 71 204 Q 75 202 75 195 Q 75 166 76 143 L 76 131" fill="#2a0000" /><path d="M 71 229 Q 68 222 55 209 Q 50 205 49 203 Q 49 200 58 204 Q 70 205 71 204" fill="#2a0000" /><path d="M 90 124 Q 107 115 108 115 Q 111 115 109 118 Q 106 122 101 124 Q 96 128 90 133 L 76 143 Q 56 158 42 172 Q 40 175 36 174 Q 29 172 25 168 Q 21 164 21 162 Q 22 159 26 158 Q 28 156 76 131" fill="#550000" /><path d="M 152 58 L 152 52 Q 151 49 154 48 Q 158 48 163 51 Q 170 55 173 59 Q 176 64 170 67 Q 164 69 160 73 Q 148 81 134 89 L 130 85" fill="#7f0000" /><path d="M 134 89 Q 135 91 134 94 Q 133 103 132 138 Q 132 142 134 142 L 129 172 Q 127 177 124 175 Q 119 172 116 164 Q 113 159 116 153 Q 119 149 120 141 Q 122 131 121 102 Q 121 93 116 84 Q 113 81 116 79 Q 117 78 121 78 Q 125 79 130 85" fill="#aa0000" /><path d="M 134 142 Q 136 143 162 123 Q 167 119 167 123 Q 167 125 163 129 Q 137 160 129 172" fill="#aa0000" /><path d="M 188 84 Q 216 76 222 72 Q 226 69 231 70 Q 244 75 246 77 Q 248 79 245 83 L 224 85 Q 223 85 221 85 Q 209 87 194 92" fill="#d40000" /><path d="M 245 83 Q 242 90 242 103 Q 241 139 236 152 Q 232 162 225 169 Q 221 174 215 169 L 221 142 Q 227 129 227 100 Q 228 89 224 85" fill="#d40000" /><path d="M 215 169 Q 211 160 202 148 Q 198 142 204 144 Q 208 146 213 148 Q 218 149 221 142" fill="#d40000" /><path d="M 193 103 L 191 115 Q 190 181 191 198 Q 192 218 190 238 Q 189 252 184 255 Q 183 256 181 254 Q 176 247 177 198 Q 179 141 178 105 Q 177 99 171 86 Q 169 83 172 81 Q 176 79 179 80 Q 182 80 188 84 L 194 92" fill="#ff0000" /></svg>