<svg xmlns="http://www.w3.org/2000/svg" xmlns:xlink="http://www.w3.org/1999/xlink" width="270" height="270"><path d="M 0 0 L 270 270 M 270 0 L 0 270 M 135 0 L 135 270 M 0 135 L 270 135" stroke="#CCCCCC" /><path d="M 73 102 Q 68 103 63 105 Q 48 110 34 104 Q 26 100 37 97 Q 50 95 73 88 L 87 82 Q 94 78 103 79 Q 112 81 114 84 Q 116 86 113 89 Q 112 90 103 93 Q 94 96 86 98" fill="#000000" /><path d="M 73 116 L 73 102 L 73 88 Q 74 54 74 50 Q 74 41 68 34 Q 65 28 69 26 Q 74 24 83 29 Q 97 35 92 43 Q 87 61 87 82 L 86 98 Q 85 111 85 125 L 85 134 Q 84 170 86 205 Q 85 224 80 236 Q 76 245 72 244 Q 69 244 65 235 L 66 211 Q 69 209 70 203 Q 71 170 72 145 L 72 133" fill="#2a0000" /><path d="M 65 235 Q 63 228 50 215 Q 45 211 45 209 Q 45 206 53 210 L 66 211" fill="#2a0000" /><path d="M 85 125 Q 101 115 102 115 Q 105 115 104 118 Q 101 122 96 126 Q 90 130 85 134 L 72 145 Q 46 165 33 181 Q 30 184 26 183 Q 20 181 15 177 Q 11 174 11 171 Q 12 169 15 167 Q 21 166 30 160 Q 49 147 72 133" fill="#550000" /><path d="M 148 68 L 148 79 Q 146 102 134 117 Q 122 131 110 133 Q 107 133 110 130 Q 131 109 134 87 Q 136 61 129 53 Q 127 50 129 48 Q 133 46 139 48 Q 143 49 147 51 L 148 62" fill="#7f0000" /><path d="M 147 51 Q 148 52 148 52 Q 166 47 182 38 Q 187 35 190 37 Q 197 40 204 45 Q 208 49 203 53 L 181 54 Q 181 51 179 50 Q 177 50 174 53 Q 152 62 148 62" fill="#aa0000" /><path d="M 203 53 Q 194 62 192 72 Q 188 87 191 92 L 185 106 Q 179 102 178 95 Q 176 90 181 54" fill="#aa0000" /><path d="M 191 92 Q 193 97 199 97 Q 210 98 218 93 Q 224 91 227 92 Q 233 95 237 100 Q 239 104 235 106 Q 227 111 210 111 Q 194 111 185 106" fill="#aa0000" /><path d="M 171 135 Q 169 135 156 142 Q 143 147 132 144 Q 127 142 128 140 Q 129 138 133 138 Q 149 134 159 130 Q 168 126 175 122 Q 183 118 189 120 Q 198 123 202 126 Q 205 130 201 135" fill="#d40000" /><path d="M 141 219 L 114 220 Q 103 221 101 220 Q 98 217 102 216 Q 135 206 154 187 L 161 178 Q 169 170 176 141 Q 177 135 171 135 L 201 135 Q 195 140 192 148 Q 182 172 171 188 L 163 197" fill="#d40000" /><path d="M 154 187 Q 134 163 124 158 Q 121 155 121 153 Q 122 152 127 152 Q 135 152 145 162 Q 153 171 161 178 L 171 188 Q 172 189 173 189 Q 193 206 232 219 Q 257 228 257 228 Q 258 231 248 232 Q 203 239 195 230 Q 177 213 163 197" fill="#ff0000" /></svg>