<svg xmlns="http://www.w3.org/2000/svg" xmlns:xlink="http://www.w3.org/1999/xlink" width="270" height="270"><path d="M 0 0 L 270 270 M 270 0 L 0 270 M 135 0 L 135 270 M 0 135 L 270 135" stroke="#CCCCCC" /><path d="M 78 109 Q 72 110 67 112 Q 50 117 39 110 Q 31 106 41 104 Q 47 103 79 96 L 92 91 Q 100 87 109 89 Q 117 90 119 94 Q 120 96 118 99 Q 117 100 107 102 Q 99 104 92 106" fill="#CCCCCC"/><path d="M 77 147 Q 78 126 78 109 L 79 96 Q 79 51 79 46 Q 79 37 73 29 Q 69 23 73 21 Q 79 20 88 25 Q 103 31 98 39 Q 94 52 92 91 L 92 106 Q 91 123 91 140 L 91 148 Q 92 178 93 208 Q 93 228 88 240 Q 84 249 80 249 Q 76 248 72 240 L 73 215 Q 76 213 76 206 Q 77 180 77 159" fill="#CCCCCC"/><path d="M 72 240 Q 69 233 56 219 Q 50 215 50 213 Q 49 210 58 214 L 73 215" fill="#CCCCCC"/><path d="M 51 178 L 32 196 Q 29 200 25 199 Q 19 196 14 192 Q 10 188 10 186 Q 11 183 14 182 Q 20 180 30 175 Q 52 161 77 147 L 91 140 Q 105 132 106 132 Q 109 132 107 135 Q 105 139 99 143 Q 95 145 91 148 L 77 159" fill="#CCCCCC"/><path d="M 162 42 L 161 39 Q 160 35 161 33 Q 164 32 187 37 Q 196 40 198 45 Q 201 54 200 59 Q 199 64 195 64 Q 190 65 186 61 Q 178 54 171 48" fill="#CCCCCC"/><path d="M 158 101 L 174 98 Q 188 94 200 90 Q 209 87 218 88 Q 227 91 229 94 Q 230 96 228 99 Q 226 100 215 103 Q 190 108 166 113 Q 149 116 138 109 Q 130 104 140 102" fill="#CCCCCC"/><path d="M 136 141 L 137 139 Q 138 136 140 137 Q 144 140 153 150 Q 158 155 159 161 Q 159 167 158 170 Q 154 174 151 173 Q 145 169 136 144" fill="#CCCCCC"/><path d="M 174 187 L 176 184 Q 192 137 188 125 Q 186 121 189 120 Q 194 117 199 120 Q 208 126 212 131 Q 214 134 210 138 Q 205 146 185 188 L 173 190" fill="#CCCCCC"/><path d="M 185 188 Q 208 184 224 182 Q 238 177 255 190 Q 259 194 258 197 Q 256 200 251 200 Q 246 200 241 200 Q 160 200 122 209 Q 118 210 111 209 Q 106 207 102 203 Q 98 198 104 197 Q 141 193 173 190 Q 173 189 173 190" fill="#CCCCCC"/><path d="M 78 109 Q 72 110 67 112 Q 50 117 39 110 Q 31 106 41 104 Q 47 103 79 96 L 92 91 Q 100 87 109 89 Q 117 90 119 94 Q 120 96 118 99 Q 117 100 107 102 Q 99 104 92 106" fill="#000000" /><path d="M 77 147 Q 78 126 78 109 L 79 96 Q 79 51 79 46 Q 79 37 73 29 Q 69 23 73 21 Q 79 20 88 25 Q 103 31 98 39 Q 94 52 92 91 L 92 106 Q 91 123 91 140 L 91 148 Q 92 178 93 208 Q 93 228 88 240 Q 84 249 80 249 Q 76 248 72 240 L 73 215 Q 76 213 76 206 Q 77 180 77 159" fill="#240000" /><path d="M 72 240 Q 69 233 56 219 Q 50 215 50 213 Q 49 210 58 214 L 73 215" fill="#240000" /><path d="M 51 178 L 32 196 Q 29 200 25 199 Q 19 196 14 192 Q 10 188 10 186 Q 11 183 14 182 Q 20 180 30 175 Q 52 161 77 147 L 91 140 Q 105 132 106 132 Q 109 132 107 135 Q 105 139 99 143 Q 95 145 91 148 L 77 159" fill="#480000" /><path d="M 162 42 L 161 39 Q 160 35 161 33 Q 164 32 187 37 Q 196 40 198 45 Q 201 54 200 59 Q 199 64 195 64 Q 190 65 186 61 Q 178 54 171 48" fill="#6d0000" /><path d="M 158 101 L 174 98 Q 188 94 200 90 Q 209 87 218 88 Q 227 91 229 94 Q 230 96 228 99 Q 226 100 215 103 Q 190 108 166 113 Q 149 116 138 109 Q 130 104 140 102" fill="#910000" /><path d="M 136 141 L 137 139 Q 138 136 140 137 Q 144 140 153 150 Q 158 155 159 161 Q 159 167 158 170 Q 154 174 151 173 Q 145 169 136 144" fill="#b60000" /><path d="M 174 187 L 176 184 Q 192 137 188 125 Q 186 121 189 120 Q 194 117 199 120 Q 208 126 212 131 Q 214 134 210 138 Q 205 146 185 188 L 173 190" fill="#da0000" /><path d="M 185 188 Q 208 184 224 182 Q 238 177 255 190 Q 259 194 258 197 Q 256 200 251 200 Q 246 200 241 200 Q 160 200 122 209 Q 118 210 111 209 Q 106 207 102 203 Q 98 198 104 197 Q 141 193 173 190 Q 173 189 173 190" fill="#ff0000" /></svg>