<svg xmlns="http://www.w3.org/2000/svg" xmlns:xlink="http://www.w3.org/1999/xlink" width="270" height="270"><path d="M 0 0 L 270 270 M 270 0 L 0 270 M 135 0 L 135 270 M 0 135 L 270 135" stroke="#CCCCCC" /><path d="M 88 94 Q 82 95 78 97 Q 62 102 50 95 Q 43 91 53 89 Q 61 88 88 82 L 100 77 Q 107 74 116 75 Q 124 76 126 79 Q 127 82 125 84 Q 124 84 100 91" fill="#CCCCCC"/><path d="M 87 111 L 88 94 L 88 82 Q 87 52 87 49 Q 87 40 81 33 Q 77 27 82 26 Q 86 24 95 29 Q 109 34 105 42 Q 102 53 101 75 Q 100 76 100 77 L 100 91 Q 99 109 100 127 L 100 136 Q 100 171 102 206 Q 103 225 99 236 Q 95 245 91 245 L 87 205 Q 87 172 87 146 L 87 134" fill="#CCCCCC"/><path d="M 91 245 Q 87 245 82 236 Q 78 228 61 215 Q 56 212 56 210 Q 55 207 63 210 Q 70 212 76 213 Q 81 215 84 213 Q 87 211 87 205" fill="#CCCCCC"/><path d="M 100 127 Q 117 116 119 116 Q 122 116 120 120 Q 119 122 100 136 L 87 146 Q 69 158 45 183 Q 42 186 38 185 Q 32 183 26 179 Q 22 175 22 172 Q 23 170 27 168 Q 33 166 42 161 Q 63 147 87 134" fill="#CCCCCC"/><path d="M 166 105 Q 166 108 165 110 L 163 112 Q 161 112 159 109 Q 155 105 154 97 Q 148 73 141 58 Q 139 54 140 53 Q 141 52 144 52 Q 153 53 156 55 L 158 64 Q 164 94 165 96" fill="#CCCCCC"/><path d="M 211 55 Q 209 53 204 54 Q 184 58 163 62 Q 160 63 158 64 L 156 55 Q 167 52 193 46 Q 213 38 219 41 Q 233 48 237 52" fill="#CCCCCC"/><path d="M 205 87 Q 209 76 212 62 Q 213 58 211 55 L 237 52 Q 242 57 237 62 Q 228 67 219 89" fill="#CCCCCC"/><path d="M 204 87 L 205 87 L 219 89 Q 224 93 224 94 Q 223 97 221 97 Q 186 100 170 104 Q 168 105 166 105 L 165 96 Q 182 93 203 87" fill="#CCCCCC"/><path d="M 149 151 L 139 154 Q 133 156 126 151 Q 119 148 119 145 Q 120 143 125 142 Q 143 141 163 138 L 179 134 Q 179 134 179 134 Q 209 127 216 123 Q 222 119 228 122 Q 243 129 245 132 L 220 138 Q 218 136 212 137 Q 195 139 176 144 L 160 148" fill="#CCCCCC"/><path d="M 245 132 Q 247 136 244 139 Q 238 146 236 162 Q 229 206 221 221 Q 214 233 204 239 L 203 210 Q 213 194 220 157 Q 223 144 220 138" fill="#CCCCCC"/><path d="M 204 239 Q 198 245 192 238 Q 187 229 176 217 Q 172 210 178 212 Q 184 215 191 217 Q 198 218 203 210" fill="#CCCCCC"/><path d="M 165 110 Q 167 109 173 112 Q 182 116 183 118 Q 185 121 183 123 Q 181 128 179 134 L 176 144 Q 164 184 143 203 Q 130 216 114 224 Q 111 225 109 225 Q 107 224 109 223 Q 150 182 160 148 L 163 138 Q 164 126 162 116 Q 162 113 163 112" fill="#CCCCCC"/><path d="M 88 94 Q 82 95 78 97 Q 62 102 50 95 Q 43 91 53 89 Q 61 88 88 82 L 100 77 Q 107 74 116 75 Q 124 76 126 79 Q 127 82 125 84 Q 124 84 100 91" fill="#000000" /><path d="M 87 111 L 88 94 L 88 82 Q 87 52 87 49 Q 87 40 81 33 Q 77 27 82 26 Q 86 24 95 29 Q 109 34 105 42 Q 102 53 101 75 Q 100 76 100 77 L 100 91 Q 99 109 100 127 L 100 136 Q 100 171 102 206 Q 103 225 99 236 Q 95 245 91 245 L 87 205 Q 87 172 87 146 L 87 134" fill="#240000" /><path d="M 91 245 Q 87 245 82 236 Q 78 228 61 215 Q 56 212 56 210 Q 55 207 63 210 Q 70 212 76 213 Q 81 215 84 213 Q 87 211 87 205" fill="#240000" /><path d="M 100 127 Q 117 116 119 116 Q 122 116 120 120 Q 119 122 100 136 L 87 146 Q 69 158 45 183 Q 42 186 38 185 Q 32 183 26 179 Q 22 175 22 172 Q 23 170 27 168 Q 33 166 42 161 Q 63 147 87 134" fill="#480000" /><path d="M 166 105 Q 166 108 165 110 L 163 112 Q 161 112 159 109 Q 155 105 154 97 Q 148 73 141 58 Q 139 54 140 53 Q 141 52 144 52 Q 153 53 156 55 L 158 64 Q 164 94 165 96" fill="#6d0000" /><path d="M 211 55 Q 209 53 204 54 Q 184 58 163 62 Q 160 63 158 64 L 156 55 Q 167 52 193 46 Q 213 38 219 41 Q 233 48 237 52" fill="#910000" /><path d="M 205 87 Q 209 76 212 62 Q 213 58 211 55 L 237 52 Q 242 57 237 62 Q 228 67 219 89" fill="#910000" /><path d="M 204 87 L 205 87 L 219 89 Q 224 93 224 94 Q 223 97 221 97 Q 186 100 170 104 Q 168 105 166 105 L 165 96 Q 182 93 203 87" fill="#b60000" /><path d="M 149 151 L 139 154 Q 133 156 126 151 Q 119 148 119 145 Q 120 143 125 142 Q 143 141 163 138 L 179 134 Q 179 134 179 134 Q 209 127 216 123 Q 222 119 228 122 Q 243 129 245 132 L 220 138 Q 218 136 212 137 Q 195 139 176 144 L 160 148" fill="#da0000" /><path d="M 245 132 Q 247 136 244 139 Q 238 146 236 162 Q 229 206 221 221 Q 214 233 204 239 L 203 210 Q 213 194 220 157 Q 223 144 220 138" fill="#da0000" /><path d="M 204 239 Q 198 245 192 238 Q 187 229 176 217 Q 172 210 178 212 Q 184 215 191 217 Q 198 218 203 210" fill="#da0000" /><path d="M 165 110 Q 167 109 173 112 Q 182 116 183 118 Q 185 121 183 123 Q 181 128 179 134 L 176 144 Q 164 184 143 203 Q 130 216 114 224 Q 111 225 109 225 Q 107 224 109 223 Q 150 182 160 148 L 163 138 Q 164 126 162 116 Q 162 113 163 112" fill="#ff0000" /></svg>