<svg xmlns="http://www.w3.org/2000/svg" xmlns:xlink="http://www.w3.org/1999/xlink" width="270" height="270"><path d="M 0 0 L 270 270 M 270 0 L 0 270 M 135 0 L 135 270 M 0 135 L 270 135" stroke="#CCCCCC" /><path d="M 74 101 Q 68 103 63 104 Q 44 109 34 105 Q 26 101 36 98 Q 47 96 74 88 L 88 83 Q 94 80 99 81 Q 108 82 109 85 Q 111 88 109 90 Q 108 92 99 94 Q 92 96 87 98" fill="#000000" /><path d="M 73 141 Q 74 118 74 101 L 74 88 Q 75 54 74 50 Q 74 41 69 34 Q 64 28 69 26 Q 74 24 83 29 Q 97 35 93 43 Q 88 61 88 83 L 87 98 Q 86 115 86 133 L 86 141 Q 86 173 88 204 Q 89 223 84 235 Q 80 245 76 244 Q 72 244 67 235 L 69 212 Q 72 210 72 203 Q 73 175 73 152" fill="#240000" /><path d="M 67 235 Q 63 228 46 215 Q 41 211 41 210 Q 40 207 49 210 Q 67 213 69 212" fill="#240000" /><path d="M 53 167 L 35 187 Q 32 190 29 189 Q 23 187 18 184 Q 14 180 14 178 Q 15 176 18 174 Q 23 172 32 167 Q 51 154 73 141 L 86 133 Q 100 123 102 123 Q 105 123 103 127 Q 102 128 86 141 L 73 152" fill="#480000" /><path d="M 143 108 Q 142 108 142 108 Q 127 112 116 106 Q 108 102 118 100 Q 132 98 146 95 L 161 92 Q 178 87 194 81 Q 202 78 210 79 Q 218 81 220 84 Q 221 87 219 89 Q 217 91 158 105" fill="#6d0000" /><path d="M 136 169 L 127 184 Q 104 214 95 216 Q 92 217 93 213 Q 93 212 95 210 Q 133 156 143 108 L 146 95 Q 148 82 149 69 Q 150 63 151 59 Q 152 43 147 35 Q 145 31 149 30 Q 152 28 157 32 Q 166 36 170 41 Q 172 45 170 49 Q 165 62 161 92 L 158 105 Q 154 124 149 137 L 147 144 Q 144 150 141 156 L 139 162" fill="#910000" /><path d="M 149 137 Q 150 136 152 136 Q 171 133 184 126 Q 189 123 195 125 Q 204 128 209 132 L 182 138 Q 152 145 147 144" fill="#b60000" /><path d="M 209 132 Q 214 136 210 140 Q 205 145 203 154 Q 196 179 184 195 L 176 206 Q 157 224 122 228 Q 114 229 112 227 Q 110 225 114 224 Q 150 213 164 200 Q 166 197 167 195 L 174 186 Q 187 162 187 142 Q 188 137 182 138" fill="#b60000" /><path d="M 184 195 Q 201 211 218 217 Q 248 227 252 230 Q 255 232 253 234 Q 250 235 247 235 Q 220 239 215 239 Q 203 238 176 206 L 167 195 Q 148 169 139 162 L 141 156 Q 142 156 142 156 Q 150 158 155 164 Q 165 176 174 186" fill="#da0000" /><path d="M 197 41 L 202 42 Q 219 47 221 55 Q 223 59 222 63 Q 221 66 220 68 Q 218 68 217 68 Q 206 65 191 46 Q 189 43 190 41 Q 191 40 194 40" fill="#ff0000" /></svg>