<svg xmlns="http://www.w3.org/2000/svg" xmlns:xlink="http://www.w3.org/1999/xlink" width="270" height="270"><path d="M 0 0 L 270 270 M 270 0 L 0 270 M 135 0 L 135 270 M 0 135 L 270 135" stroke="#CCCCCC" /><path d="M 88 107 Q 79 110 72 112 Q 57 116 46 110 Q 39 107 48 104 Q 67 101 88 94 L 102 89 Q 108 86 115 87 Q 123 88 125 92 Q 127 94 124 96 Q 124 96 101 104" fill="#CCCCCC"/><path d="M 87 142 Q 88 122 88 107 L 88 94 Q 89 54 88 49 Q 88 40 82 33 Q 78 26 83 25 Q 88 23 97 28 Q 112 34 108 42 Q 102 60 102 89 L 101 104 Q 101 119 101 134 L 101 142 Q 101 173 103 203 Q 103 224 97 236 Q 93 245 89 245 Q 86 244 82 236 L 82 211 Q 86 208 86 202 Q 86 175 87 154" fill="#CCCCCC"/><path d="M 82 236 Q 80 229 67 216 Q 62 212 62 210 Q 61 207 70 211 Q 81 211 82 211" fill="#CCCCCC"/><path d="M 62 173 L 47 190 Q 44 193 40 192 Q 33 190 28 186 Q 25 183 25 180 Q 25 178 28 176 Q 35 175 44 169 Q 64 156 87 142 L 101 134 Q 114 125 117 125 Q 120 125 118 128 Q 116 132 110 135 Q 105 139 101 142 L 87 154" fill="#CCCCCC"/><path d="M 161 82 Q 161 82 161 81 Q 156 82 151 84 Q 146 86 140 82 Q 134 79 134 77 Q 134 75 139 74 Q 160 73 183 66 Q 207 61 213 57 Q 218 53 223 55 Q 237 61 240 65 Q 242 68 238 71 L 215 71 Q 214 69 209 70 Q 191 73 169 79" fill="#CCCCCC"/><path d="M 238 71 Q 234 77 232 89 Q 226 123 220 134 Q 214 143 207 148 Q 202 153 197 147 L 195 126 Q 203 128 208 119 Q 214 108 216 83 Q 217 74 215 71" fill="#CCCCCC"/><path d="M 197 147 Q 193 139 181 127 Q 177 120 183 122 Q 189 125 195 126" fill="#CCCCCC"/><path d="M 174 81 L 180 90 Q 181 94 180 96 Q 171 107 171 109 Q 139 160 117 164 Q 116 164 116 163 Q 116 161 117 160 Q 131 146 141 131 Q 165 96 161 82 L 169 79" fill="#CCCCCC"/><path d="M 160 236 L 159 242 Q 157 246 152 240 Q 147 234 146 225 Q 140 194 132 176 Q 129 172 131 170 Q 132 168 135 169 Q 145 171 148 173 L 151 181 Q 152 190 157 216 L 159 227" fill="#CCCCCC"/><path d="M 148 173 Q 183 167 203 160 Q 218 151 240 168 L 212 171 Q 210 169 204 170 Q 154 180 151 181" fill="#CCCCCC"/><path d="M 208 208 Q 211 195 214 180 Q 215 174 212 171 L 240 168 Q 244 173 240 178 Q 230 185 222 209" fill="#CCCCCC"/><path d="M 157 216 Q 179 214 208 208 L 222 209 Q 230 215 230 217 Q 229 220 226 220 Q 183 222 163 226 Q 161 227 159 227" fill="#CCCCCC"/><path d="M 88 107 Q 79 110 72 112 Q 57 116 46 110 Q 39 107 48 104 Q 67 101 88 94 L 102 89 Q 108 86 115 87 Q 123 88 125 92 Q 127 94 124 96 Q 124 96 101 104" fill="#000000" /><path d="M 87 142 Q 88 122 88 107 L 88 94 Q 89 54 88 49 Q 88 40 82 33 Q 78 26 83 25 Q 88 23 97 28 Q 112 34 108 42 Q 102 60 102 89 L 101 104 Q 101 119 101 134 L 101 142 Q 101 173 103 203 Q 103 224 97 236 Q 93 245 89 245 Q 86 244 82 236 L 82 211 Q 86 208 86 202 Q 86 175 87 154" fill="#240000" /><path d="M 82 236 Q 80 229 67 216 Q 62 212 62 210 Q 61 207 70 211 Q 81 211 82 211" fill="#240000" /><path d="M 62 173 L 47 190 Q 44 193 40 192 Q 33 190 28 186 Q 25 183 25 180 Q 25 178 28 176 Q 35 175 44 169 Q 64 156 87 142 L 101 134 Q 114 125 117 125 Q 120 125 118 128 Q 116 132 110 135 Q 105 139 101 142 L 87 154" fill="#480000" /><path d="M 161 82 Q 161 82 161 81 Q 156 82 151 84 Q 146 86 140 82 Q 134 79 134 77 Q 134 75 139 74 Q 160 73 183 66 Q 207 61 213 57 Q 218 53 223 55 Q 237 61 240 65 Q 242 68 238 71 L 215 71 Q 214 69 209 70 Q 191 73 169 79" fill="#6d0000" /><path d="M 238 71 Q 234 77 232 89 Q 226 123 220 134 Q 214 143 207 148 Q 202 153 197 147 L 195 126 Q 203 128 208 119 Q 214 108 216 83 Q 217 74 215 71" fill="#6d0000" /><path d="M 197 147 Q 193 139 181 127 Q 177 120 183 122 Q 189 125 195 126" fill="#6d0000" /><path d="M 174 81 L 180 90 Q 181 94 180 96 Q 171 107 171 109 Q 139 160 117 164 Q 116 164 116 163 Q 116 161 117 160 Q 131 146 141 131 Q 165 96 161 82 L 169 79" fill="#910000" /><path d="M 160 236 L 159 242 Q 157 246 152 240 Q 147 234 146 225 Q 140 194 132 176 Q 129 172 131 170 Q 132 168 135 169 Q 145 171 148 173 L 151 181 Q 152 190 157 216 L 159 227" fill="#b60000" /><path d="M 148 173 Q 183 167 203 160 Q 218 151 240 168 L 212 171 Q 210 169 204 170 Q 154 180 151 181" fill="#da0000" /><path d="M 208 208 Q 211 195 214 180 Q 215 174 212 171 L 240 168 Q 244 173 240 178 Q 230 185 222 209" fill="#da0000" /><path d="M 157 216 Q 179 214 208 208 L 222 209 Q 230 215 230 217 Q 229 220 226 220 Q 183 222 163 226 Q 161 227 159 227" fill="#ff0000" /></svg>