<svg xmlns="http://www.w3.org/2000/svg" xmlns:xlink="http://www.w3.org/1999/xlink" width="270" height="270"><path d="M 0 0 L 270 270 M 270 0 L 0 270 M 135 0 L 135 270 M 0 135 L 270 135" stroke="#CCCCCC" /><path d="M 68 102 Q 64 102 62 103 Q 45 107 33 102 Q 26 97 35 96 Q 50 93 62 91 Q 65 90 68 89 L 81 85 Q 82 84 83 84 Q 91 81 99 82 Q 107 84 109 87 Q 110 89 108 91 Q 107 92 81 99" fill="#CCCCCC"/><path d="M 68 117 L 68 102 L 68 89 Q 69 54 68 50 Q 68 41 62 34 Q 58 28 63 26 Q 68 24 77 29 Q 91 35 87 43 Q 85 48 81 85 L 81 99 Q 80 114 80 129 L 80 138 Q 81 171 83 205 Q 83 224 78 235 Q 74 245 70 244 Q 66 244 62 235 L 63 212 Q 66 210 67 203 Q 67 172 67 148 L 67 136" fill="#CCCCCC"/><path d="M 62 235 Q 59 228 44 215 Q 38 211 38 209 Q 37 206 46 210 Q 61 213 63 212" fill="#CCCCCC"/><path d="M 80 129 Q 93 121 96 121 Q 99 121 98 124 Q 95 128 90 131 Q 85 134 80 138 L 67 148 Q 48 161 30 179 Q 27 182 23 181 Q 17 179 12 175 Q 8 171 9 169 Q 9 167 13 165 Q 19 163 28 158 Q 46 148 67 136" fill="#CCCCCC"/><path d="M 137 119 L 118 139 Q 117 139 117 140 Q 94 160 89 161 Q 86 161 88 159 Q 112 131 121 117 Q 122 116 123 115 Q 155 62 147 41 Q 145 38 148 37 Q 151 36 156 37 Q 168 38 171 46 Q 172 49 170 50 Q 167 55 160 70 L 157 77" fill="#CCCCCC"/><path d="M 160 70 Q 190 100 202 111 Q 216 123 257 138 Q 261 140 261 142 Q 260 143 258 143 Q 249 145 222 146 Q 214 146 209 141 Q 180 109 158 78 Q 157 77 157 77" fill="#CCCCCC"/><path d="M 138 139 L 146 137 Q 153 135 159 133 Q 167 130 175 132 Q 183 133 184 137 Q 186 139 183 141 Q 183 142 177 143 Q 164 145 152 148 Q 138 152 126 145 Q 119 141 129 139" fill="#CCCCCC"/><path d="M 132 231 L 132 233 Q 130 237 125 231 Q 121 226 120 219 Q 116 196 109 181 Q 106 177 108 175 Q 109 174 113 175 Q 121 176 125 178 L 128 187 Q 129 195 132 218 L 133 228" fill="#CCCCCC"/><path d="M 184 180 Q 182 178 176 179 Q 139 185 128 187 L 125 178 Q 148 174 168 170 Q 187 163 192 165 Q 207 173 211 177" fill="#CCCCCC"/><path d="M 178 211 Q 187 184 184 180 L 211 177 Q 215 182 210 187 Q 201 193 192 213" fill="#CCCCCC"/><path d="M 132 218 Q 152 216 177 211 Q 177 211 178 211 L 192 213 Q 199 218 199 220 Q 199 223 195 223 Q 155 225 137 228 Q 135 228 133 228" fill="#CCCCCC"/><path d="M 68 102 Q 64 102 62 103 Q 45 107 33 102 Q 26 97 35 96 Q 50 93 62 91 Q 65 90 68 89 L 81 85 Q 82 84 83 84 Q 91 81 99 82 Q 107 84 109 87 Q 110 89 108 91 Q 107 92 81 99" fill="#000000" /><path d="M 68 117 L 68 102 L 68 89 Q 69 54 68 50 Q 68 41 62 34 Q 58 28 63 26 Q 68 24 77 29 Q 91 35 87 43 Q 85 48 81 85 L 81 99 Q 80 114 80 129 L 80 138 Q 81 171 83 205 Q 83 224 78 235 Q 74 245 70 244 Q 66 244 62 235 L 63 212 Q 66 210 67 203 Q 67 172 67 148 L 67 136" fill="#1f0000" /><path d="M 62 235 Q 59 228 44 215 Q 38 211 38 209 Q 37 206 46 210 Q 61 213 63 212" fill="#1f0000" /><path d="M 80 129 Q 93 121 96 121 Q 99 121 98 124 Q 95 128 90 131 Q 85 134 80 138 L 67 148 Q 48 161 30 179 Q 27 182 23 181 Q 17 179 12 175 Q 8 171 9 169 Q 9 167 13 165 Q 19 163 28 158 Q 46 148 67 136" fill="#3f0000" /><path d="M 137 119 L 118 139 Q 117 139 117 140 Q 94 160 89 161 Q 86 161 88 159 Q 112 131 121 117 Q 122 116 123 115 Q 155 62 147 41 Q 145 38 148 37 Q 151 36 156 37 Q 168 38 171 46 Q 172 49 170 50 Q 167 55 160 70 L 157 77" fill="#5f0000" /><path d="M 160 70 Q 190 100 202 111 Q 216 123 257 138 Q 261 140 261 142 Q 260 143 258 143 Q 249 145 222 146 Q 214 146 209 141 Q 180 109 158 78 Q 157 77 157 77" fill="#7f0000" /><path d="M 138 139 L 146 137 Q 153 135 159 133 Q 167 130 175 132 Q 183 133 184 137 Q 186 139 183 141 Q 183 142 177 143 Q 164 145 152 148 Q 138 152 126 145 Q 119 141 129 139" fill="#9f0000" /><path d="M 132 231 L 132 233 Q 130 237 125 231 Q 121 226 120 219 Q 116 196 109 181 Q 106 177 108 175 Q 109 174 113 175 Q 121 176 125 178 L 128 187 Q 129 195 132 218 L 133 228" fill="#bf0000" /><path d="M 184 180 Q 182 178 176 179 Q 139 185 128 187 L 125 178 Q 148 174 168 170 Q 187 163 192 165 Q 207 173 211 177" fill="#df0000" /><path d="M 178 211 Q 187 184 184 180 L 211 177 Q 215 182 210 187 Q 201 193 192 213" fill="#df0000" /><path d="M 132 218 Q 152 216 177 211 Q 177 211 178 211 L 192 213 Q 199 218 199 220 Q 199 223 195 223 Q 155 225 137 228 Q 135 228 133 228" fill="#ff0000" /></svg>