<svg xmlns="http://www.w3.org/2000/svg" xmlns:xlink="http://www.w3.org/1999/xlink" width="270" height="270"><path d="M 0 0 L 270 270 M 270 0 L 0 270 M 135 0 L 135 270 M 0 135 L 270 135" stroke="#CCCCCC" /><path d="M 74 92 Q 69 93 65 95 Q 46 101 35 97 Q 29 93 38 91 Q 54 87 74 80 L 87 74 Q 92 72 98 72 Q 106 74 108 76 Q 109 78 107 80 Q 107 81 87 88" fill="#CCCCCC"/><path d="M 74 105 L 74 92 L 74 80 Q 74 41 74 36 Q 73 28 68 21 Q 63 15 68 13 Q 73 11 82 16 Q 96 22 92 29 Q 89 37 87 74 L 87 88 Q 86 101 86 113 L 86 121 Q 86 159 89 197 Q 88 217 83 228 Q 79 237 75 237 Q 71 236 68 227 L 69 204 Q 72 202 73 195 Q 73 160 73 133 L 73 122" fill="#CCCCCC"/><path d="M 68 227 Q 65 220 50 206 Q 45 201 45 200 Q 45 197 53 201 Q 68 204 69 204" fill="#CCCCCC"/><path d="M 86 113 Q 95 106 98 105 Q 100 105 99 109 Q 96 113 92 116 Q 89 118 86 121 L 73 133 Q 52 151 35 172 Q 32 175 28 174 Q 22 173 17 169 Q 14 166 14 164 Q 14 162 17 160 Q 22 158 31 152 Q 51 137 73 122" fill="#CCCCCC"/><path d="M 195 37 Q 193 35 189 36 Q 171 41 153 45 Q 145 48 139 45 Q 134 44 133 42 Q 133 39 137 39 Q 170 34 191 23 Q 197 21 202 23 Q 215 29 220 32" fill="#CCCCCC"/><path d="M 195 61 L 197 45 Q 198 39 195 37 L 220 32 Q 223 36 219 41 Q 210 49 203 76 L 191 74" fill="#CCCCCC"/><path d="M 175 53 L 181 53 Q 188 54 190 57 Q 193 61 187 62 Q 169 65 146 70 Q 141 71 139 69 Q 133 66 137 65" fill="#CCCCCC"/><path d="M 203 76 Q 208 79 208 80 Q 208 83 205 83 Q 161 89 141 95 Q 135 96 131 92 Q 128 88 133 87 Q 158 83 189 74 Q 190 74 191 74" fill="#CCCCCC"/><path d="M 117 119 Q 116 135 107 142 Q 103 145 101 141 Q 98 136 101 128 Q 108 117 112 105 Q 113 104 115 104 Q 116 104 117 105 Q 117 108 118 110" fill="#CCCCCC"/><path d="M 154 114 Q 142 116 132 119 Q 122 121 117 119 L 118 110 Q 179 103 225 92 Q 232 91 237 93 Q 255 104 255 107 L 226 106 Q 225 103 217 104 Q 192 107 166 112" fill="#CCCCCC"/><path d="M 255 107 Q 255 110 250 111 Q 242 113 223 125 Q 220 128 218 127 Q 216 126 218 122 Q 226 109 226 106" fill="#CCCCCC"/><path d="M 137 151 Q 136 157 136 171 Q 136 195 130 200 Q 128 201 126 198 Q 124 196 123 195 Q 118 183 123 178 Q 127 158 122 145 Q 121 143 121 142 Q 120 140 122 139 Q 130 138 134 142" fill="#CCCCCC"/><path d="M 141 150 L 137 151 L 134 142 Q 148 141 160 140 L 174 137 Q 188 134 196 131 Q 204 126 221 137 L 202 143 Q 199 140 193 141 Q 186 142 174 144 L 160 147" fill="#CCCCCC"/><path d="M 221 137 Q 223 140 221 144 Q 218 152 219 177 Q 219 188 214 197 Q 212 202 209 203 Q 205 205 203 201 L 202 179 Q 204 176 204 170 Q 204 160 204 152 Q 204 145 202 143" fill="#CCCCCC"/><path d="M 203 201 Q 197 193 186 183 Q 182 180 183 179 Q 185 177 189 179 Q 201 180 202 179" fill="#CCCCCC"/><path d="M 160 140 Q 159 134 159 129 Q 156 121 154 114 L 166 112 Q 169 113 173 116 Q 177 119 176 123 Q 174 133 174 137 L 174 144 Q 172 240 172 241 Q 171 255 167 258 Q 165 258 163 256 Q 162 255 162 254 Q 160 249 160 147" fill="#CCCCCC"/><path d="M 74 92 Q 69 93 65 95 Q 46 101 35 97 Q 29 93 38 91 Q 54 87 74 80 L 87 74 Q 92 72 98 72 Q 106 74 108 76 Q 109 78 107 80 Q 107 81 87 88" fill="#000000" /><path d="M 74 105 L 74 92 L 74 80 Q 74 41 74 36 Q 73 28 68 21 Q 63 15 68 13 Q 73 11 82 16 Q 96 22 92 29 Q 89 37 87 74 L 87 88 Q 86 101 86 113 L 86 121 Q 86 159 89 197 Q 88 217 83 228 Q 79 237 75 237 Q 71 236 68 227 L 69 204 Q 72 202 73 195 Q 73 160 73 133 L 73 122" fill="#190000" /><path d="M 68 227 Q 65 220 50 206 Q 45 201 45 200 Q 45 197 53 201 Q 68 204 69 204" fill="#190000" /><path d="M 86 113 Q 95 106 98 105 Q 100 105 99 109 Q 96 113 92 116 Q 89 118 86 121 L 73 133 Q 52 151 35 172 Q 32 175 28 174 Q 22 173 17 169 Q 14 166 14 164 Q 14 162 17 160 Q 22 158 31 152 Q 51 137 73 122" fill="#330000" /><path d="M 195 37 Q 193 35 189 36 Q 171 41 153 45 Q 145 48 139 45 Q 134 44 133 42 Q 133 39 137 39 Q 170 34 191 23 Q 197 21 202 23 Q 215 29 220 32" fill="#4c0000" /><path d="M 195 61 L 197 45 Q 198 39 195 37 L 220 32 Q 223 36 219 41 Q 210 49 203 76 L 191 74" fill="#4c0000" /><path d="M 175 53 L 181 53 Q 188 54 190 57 Q 193 61 187 62 Q 169 65 146 70 Q 141 71 139 69 Q 133 66 137 65" fill="#660000" /><path d="M 203 76 Q 208 79 208 80 Q 208 83 205 83 Q 161 89 141 95 Q 135 96 131 92 Q 128 88 133 87 Q 158 83 189 74 Q 190 74 191 74" fill="#7f0000" /><path d="M 117 119 Q 116 135 107 142 Q 103 145 101 141 Q 98 136 101 128 Q 108 117 112 105 Q 113 104 115 104 Q 116 104 117 105 Q 117 108 118 110" fill="#990000" /><path d="M 154 114 Q 142 116 132 119 Q 122 121 117 119 L 118 110 Q 179 103 225 92 Q 232 91 237 93 Q 255 104 255 107 L 226 106 Q 225 103 217 104 Q 192 107 166 112" fill="#b20000" /><path d="M 255 107 Q 255 110 250 111 Q 242 113 223 125 Q 220 128 218 127 Q 216 126 218 122 Q 226 109 226 106" fill="#b20000" /><path d="M 137 151 Q 136 157 136 171 Q 136 195 130 200 Q 128 201 126 198 Q 124 196 123 195 Q 118 183 123 178 Q 127 158 122 145 Q 121 143 121 142 Q 120 140 122 139 Q 130 138 134 142" fill="#cc0000" /><path d="M 141 150 L 137 151 L 134 142 Q 148 141 160 140 L 174 137 Q 188 134 196 131 Q 204 126 221 137 L 202 143 Q 199 140 193 141 Q 186 142 174 144 L 160 147" fill="#e50000" /><path d="M 221 137 Q 223 140 221 144 Q 218 152 219 177 Q 219 188 214 197 Q 212 202 209 203 Q 205 205 203 201 L 202 179 Q 204 176 204 170 Q 204 160 204 152 Q 204 145 202 143" fill="#e50000" /><path d="M 203 201 Q 197 193 186 183 Q 182 180 183 179 Q 185 177 189 179 Q 201 180 202 179" fill="#e50000" /><path d="M 160 140 Q 159 134 159 129 Q 156 121 154 114 L 166 112 Q 169 113 173 116 Q 177 119 176 123 Q 174 133 174 137 L 174 144 Q 172 240 172 241 Q 171 255 167 258 Q 165 258 163 256 Q 162 255 162 254 Q 160 249 160 147" fill="#ff0000" /></svg>