<svg xmlns="http://www.w3.org/2000/svg" xmlns:xlink="http://www.w3.org/1999/xlink" width="270" height="270"><path d="M 0 0 L 270 270 M 270 0 L 0 270 M 135 0 L 135 270 M 0 135 L 270 135" stroke="#CCCCCC" /><path d="M 80 99 Q 76 100 73 101 Q 54 106 43 101 Q 35 98 45 95 Q 65 92 80 86 L 93 81 Q 96 81 100 81 Q 108 82 110 86 Q 111 88 109 90 Q 108 91 101 93 Q 96 94 92 96" fill="#CCCCCC"/><path d="M 80 116 L 80 99 L 80 86 Q 81 47 81 42 Q 81 34 75 27 Q 72 21 76 20 Q 81 18 89 23 Q 102 29 98 36 Q 94 48 93 81 L 92 96 Q 91 113 91 130 L 91 139 Q 91 170 93 200 Q 93 219 88 230 Q 84 238 81 238 Q 77 238 73 230 L 74 207 Q 77 205 77 199 Q 78 172 79 150 L 79 138" fill="#CCCCCC"/><path d="M 73 230 Q 70 223 56 211 Q 52 208 51 206 Q 51 203 59 206 Q 73 207 74 207" fill="#CCCCCC"/><path d="M 91 130 Q 103 121 107 120 Q 109 120 108 123 Q 105 127 100 131 Q 95 134 91 139 L 79 150 Q 55 170 41 187 Q 38 190 34 190 Q 28 188 23 184 Q 20 181 20 179 Q 20 177 24 175 Q 27 173 79 138" fill="#CCCCCC"/><path d="M 127 98 L 120 99 Q 117 99 118 96 Q 119 95 121 93 Q 134 78 143 64 Q 163 34 160 25 Q 158 19 162 19 Q 167 19 174 24 Q 180 30 181 34 Q 182 37 180 40 Q 175 43 170 51 Q 159 67 148 77 L 145 80" fill="#CCCCCC"/><path d="M 148 77 Q 173 73 211 65 Q 224 58 244 71 L 219 77 Q 217 74 210 75 Q 173 81 164 83 Q 157 86 147 81 Q 146 81 145 80" fill="#CCCCCC"/><path d="M 244 71 Q 249 75 245 80 Q 240 88 241 107 Q 243 184 238 209 Q 230 244 217 249 Q 212 251 206 243 L 212 222 Q 221 216 226 171 Q 229 142 225 98 Q 225 83 219 77" fill="#CCCCCC"/><path d="M 206 243 Q 201 234 190 224 Q 186 221 187 219 Q 188 218 190 219 Q 210 223 212 222" fill="#CCCCCC"/><path d="M 133 119 Q 132 120 131 121 Q 126 128 117 137 Q 114 138 115 135 Q 132 106 130 99 Q 129 96 131 96 Q 133 94 138 96 Q 143 98 147 100 Q 149 103 146 106 Q 139 111 136 115" fill="#CCCCCC"/><path d="M 146 122 Q 141 122 133 119 L 136 115 Q 136 115 137 115 Q 147 114 155 112 Q 180 104 183 105 Q 189 106 190 109 Q 191 111 190 112 Q 189 113 182 115 Q 169 118 156 121" fill="#CCCCCC"/><path d="M 149 152 Q 135 155 125 157 Q 116 159 108 153 Q 103 150 110 149 Q 130 146 149 144 L 161 141 Q 162 141 163 141 Q 172 138 181 136 Q 196 131 203 136 Q 208 139 208 141 Q 206 144 203 144 Q 168 148 161 150" fill="#CCCCCC"/><path d="M 149 185 Q 149 164 149 152 L 149 144 Q 148 126 146 122 L 156 121 Q 164 127 162 132 Q 161 137 161 141 L 161 150 Q 160 165 160 183" fill="#CCCCCC"/><path d="M 118 205 Q 116 207 113 205 Q 110 203 107 199 Q 106 196 110 193 Q 114 190 116 183 Q 118 175 116 167 Q 115 163 117 162 Q 123 162 129 171 Q 130 174 126 187" fill="#CCCCCC"/><path d="M 180 186 L 165 190 Q 124 199 118 205 L 126 187 Q 126 190 128 190 Q 138 187 149 185 L 160 183 Q 171 180 184 179 L 185 187" fill="#CCCCCC"/><path d="M 184 179 Q 181 166 177 160 Q 176 156 177 155 Q 179 153 182 154 Q 186 155 190 156 Q 194 158 194 163 Q 194 175 197 187 Q 198 199 196 205 Q 195 208 192 206 Q 186 201 185 187" fill="#CCCCCC"/><path d="M 80 99 Q 76 100 73 101 Q 54 106 43 101 Q 35 98 45 95 Q 65 92 80 86 L 93 81 Q 96 81 100 81 Q 108 82 110 86 Q 111 88 109 90 Q 108 91 101 93 Q 96 94 92 96" fill="#000000" /><path d="M 80 116 L 80 99 L 80 86 Q 81 47 81 42 Q 81 34 75 27 Q 72 21 76 20 Q 81 18 89 23 Q 102 29 98 36 Q 94 48 93 81 L 92 96 Q 91 113 91 130 L 91 139 Q 91 170 93 200 Q 93 219 88 230 Q 84 238 81 238 Q 77 238 73 230 L 74 207 Q 77 205 77 199 Q 78 172 79 150 L 79 138" fill="#190000" /><path d="M 73 230 Q 70 223 56 211 Q 52 208 51 206 Q 51 203 59 206 Q 73 207 74 207" fill="#190000" /><path d="M 91 130 Q 103 121 107 120 Q 109 120 108 123 Q 105 127 100 131 Q 95 134 91 139 L 79 150 Q 55 170 41 187 Q 38 190 34 190 Q 28 188 23 184 Q 20 181 20 179 Q 20 177 24 175 Q 27 173 79 138" fill="#330000" /><path d="M 127 98 L 120 99 Q 117 99 118 96 Q 119 95 121 93 Q 134 78 143 64 Q 163 34 160 25 Q 158 19 162 19 Q 167 19 174 24 Q 180 30 181 34 Q 182 37 180 40 Q 175 43 170 51 Q 159 67 148 77 L 145 80" fill="#4c0000" /><path d="M 148 77 Q 173 73 211 65 Q 224 58 244 71 L 219 77 Q 217 74 210 75 Q 173 81 164 83 Q 157 86 147 81 Q 146 81 145 80" fill="#660000" /><path d="M 244 71 Q 249 75 245 80 Q 240 88 241 107 Q 243 184 238 209 Q 230 244 217 249 Q 212 251 206 243 L 212 222 Q 221 216 226 171 Q 229 142 225 98 Q 225 83 219 77" fill="#660000" /><path d="M 206 243 Q 201 234 190 224 Q 186 221 187 219 Q 188 218 190 219 Q 210 223 212 222" fill="#660000" /><path d="M 133 119 Q 132 120 131 121 Q 126 128 117 137 Q 114 138 115 135 Q 132 106 130 99 Q 129 96 131 96 Q 133 94 138 96 Q 143 98 147 100 Q 149 103 146 106 Q 139 111 136 115" fill="#7f0000" /><path d="M 146 122 Q 141 122 133 119 L 136 115 Q 136 115 137 115 Q 147 114 155 112 Q 180 104 183 105 Q 189 106 190 109 Q 191 111 190 112 Q 189 113 182 115 Q 169 118 156 121" fill="#990000" /><path d="M 149 152 Q 135 155 125 157 Q 116 159 108 153 Q 103 150 110 149 Q 130 146 149 144 L 161 141 Q 162 141 163 141 Q 172 138 181 136 Q 196 131 203 136 Q 208 139 208 141 Q 206 144 203 144 Q 168 148 161 150" fill="#b20000" /><path d="M 149 185 Q 149 164 149 152 L 149 144 Q 148 126 146 122 L 156 121 Q 164 127 162 132 Q 161 137 161 141 L 161 150 Q 160 165 160 183" fill="#cc0000" /><path d="M 118 205 Q 116 207 113 205 Q 110 203 107 199 Q 106 196 110 193 Q 114 190 116 183 Q 118 175 116 167 Q 115 163 117 162 Q 123 162 129 171 Q 130 174 126 187" fill="#e50000" /><path d="M 180 186 L 165 190 Q 124 199 118 205 L 126 187 Q 126 190 128 190 Q 138 187 149 185 L 160 183 Q 171 180 184 179 L 185 187" fill="#e50000" /><path d="M 184 179 Q 181 166 177 160 Q 176 156 177 155 Q 179 153 182 154 Q 186 155 190 156 Q 194 158 194 163 Q 194 175 197 187 Q 198 199 196 205 Q 195 208 192 206 Q 186 201 185 187" fill="#ff0000" /></svg>