<svg xmlns="http://www.w3.org/2000/svg" xmlns:xlink="http://www.w3.org/1999/xlink" width="270" height="270"><path d="M 0 0 L 270 270 M 270 0 L 0 270 M 135 0 L 135 270 M 0 135 L 270 135" stroke="#CCCCCC" /><path d="M 74 95 Q 66 97 59 99 Q 44 104 32 98 Q 25 94 35 91 Q 56 88 74 82 L 87 77 Q 94 74 102 75 Q 110 76 112 80 Q 113 82 111 84 Q 110 84 87 92" fill="#000000" /><path d="M 74 111 L 74 95 L 74 82 Q 75 46 74 41 Q 74 33 68 26 Q 64 20 69 18 Q 74 16 83 21 Q 97 27 93 35 Q 91 40 87 77 L 87 92 Q 86 107 86 123 L 86 132 Q 87 167 89 202 Q 88 221 83 233 Q 79 242 75 241 Q 72 241 68 232 L 69 208 Q 72 206 73 200 Q 73 168 73 144 L 73 132" fill="#190000" /><path d="M 68 232 Q 66 225 52 212 Q 47 208 47 206 Q 47 204 55 207 Q 67 209 69 208" fill="#190000" /><path d="M 86 123 Q 101 112 103 112 Q 106 112 105 115 Q 104 116 86 132 L 73 144 Q 49 164 31 186 Q 28 190 24 189 Q 18 187 13 184 Q 9 181 9 178 Q 9 176 12 174 Q 18 172 27 166 Q 48 149 73 132" fill="#330000" /><path d="M 177 21 L 177 18 Q 178 15 180 14 Q 183 14 187 16 Q 198 21 203 26 Q 206 29 205 31 Q 204 33 200 33 Q 186 35 173 40 Q 132 52 126 51 Q 124 50 126 47 Q 161 34 174 24" fill="#4c0000" /><path d="M 117 69 L 116 67 Q 117 64 118 63 Q 120 63 122 65 Q 138 72 139 78 Q 139 85 137 88 Q 135 90 133 90 Q 130 88 121 75" fill="#660000" /><path d="M 150 61 L 150 59 Q 151 56 152 56 Q 154 56 157 58 Q 170 66 170 75 Q 170 78 168 80 Q 165 82 163 81 Q 157 76 152 65" fill="#7f0000" /><path d="M 172 97 Q 172 96 173 95 Q 187 73 194 60 Q 196 55 195 52 Q 194 47 198 46 Q 203 46 209 50 Q 215 54 216 58 Q 218 61 213 62 Q 201 72 179 95" fill="#990000" /><path d="M 153 109 Q 148 110 143 111 Q 134 114 128 111 Q 123 109 122 107 Q 122 105 126 104 Q 148 102 169 98 Q 170 97 172 97 L 179 95 Q 186 93 194 90 Q 209 82 229 98 L 203 102 Q 200 99 162 107" fill="#b20000" /><path d="M 204 123 Q 207 106 203 102 L 229 98 Q 233 102 228 107 Q 223 112 220 120 L 214 133 Q 212 141 209 152 L 197 151 Q 199 142 201 134" fill="#b20000" /><path d="M 137 143 L 118 149 Q 114 150 109 149 Q 104 148 101 144 Q 97 140 102 140 Q 132 135 158 131 L 174 129 Q 175 127 204 123 L 220 120 Q 219 120 219 120 Q 223 119 227 119 Q 243 114 256 123 Q 260 127 259 130 Q 257 132 241 132 Q 227 132 214 133 L 201 134 Q 186 135 174 137 L 159 140" fill="#cc0000" /><path d="M 173 156 L 197 151 L 209 152 Q 217 157 217 159 Q 216 161 213 162 Q 190 163 173 166 L 159 168 L 130 172 Q 127 171 125 169 Q 122 164 127 163 Q 142 161 159 159" fill="#e50000" /><path d="M 158 131 Q 158 121 155 115 Q 153 111 153 109 L 162 107 Q 172 113 174 116 Q 176 118 174 126 Q 174 127 174 129 L 174 137 Q 173 146 173 156 L 173 166 Q 173 185 176 217 Q 178 237 168 251 Q 164 255 161 253 L 157 228 Q 160 224 160 215 Q 159 188 159 168 L 159 159 Q 159 148 159 140" fill="#ff0000" /><path d="M 161 253 Q 151 244 135 232 Q 132 230 132 228 Q 132 227 135 227 Q 141 227 146 228 Q 154 230 157 228" fill="#ff0000" /></svg>