<svg xmlns="http://www.w3.org/2000/svg" xmlns:xlink="http://www.w3.org/1999/xlink" width="270" height="270"><path d="M 0 0 L 270 270 M 270 0 L 0 270 M 135 0 L 135 270 M 0 135 L 270 135" stroke="#CCCCCC" /><path d="M 74 105 Q 66 108 59 109 Q 46 114 34 108 Q 27 105 36 102 Q 55 99 74 92 L 87 89 Q 89 89 91 89 Q 99 90 101 93 Q 102 95 100 97 Q 99 99 91 101 Q 89 101 86 102" fill="#CCCCCC"/><path d="M 73 118 L 74 105 L 74 92 Q 74 50 74 45 Q 74 36 68 29 Q 64 23 68 21 Q 73 20 82 24 Q 97 30 92 38 Q 88 51 87 89 L 86 102 Q 86 114 86 126 L 86 133 Q 86 165 88 198 Q 88 217 83 228 Q 79 238 75 237 Q 72 237 68 228 L 68 205 Q 72 203 72 196 Q 73 167 73 144 L 73 134" fill="#CCCCCC"/><path d="M 68 228 Q 64 221 50 208 Q 45 204 45 202 Q 44 199 52 203 Q 66 206 68 205" fill="#CCCCCC"/><path d="M 86 126 Q 86 125 86 125 Q 92 121 95 120 Q 98 120 96 123 Q 94 127 89 130 Q 87 131 86 133 L 73 144 Q 50 164 35 182 Q 33 185 28 184 Q 22 182 18 179 Q 14 176 14 173 Q 14 171 17 170 Q 23 167 31 162 Q 51 148 73 134" fill="#CCCCCC"/><path d="M 105 74 L 105 72 Q 106 69 108 70 Q 111 71 118 74 Q 122 76 124 79 Q 126 84 125 87 Q 123 91 120 90 Q 116 90 106 76" fill="#CCCCCC"/><path d="M 143 69 Q 152 56 152 53 Q 152 49 154 49 Q 158 50 162 54 Q 165 57 166 60 Q 167 62 164 63 Q 157 65 144 73 Q 143 74 142 74" fill="#CCCCCC"/><path d="M 136 98 L 136 99 Q 126 120 119 122 Q 117 123 117 120 Q 117 119 119 118 Q 127 95 129 89 Q 129 88 129 88 Q 135 47 126 38 Q 125 36 127 34 Q 129 33 134 35 Q 140 37 144 40 Q 146 43 145 46 Q 143 51 143 69 L 142 74 Q 141 80 138 92 L 137 94" fill="#CCCCCC"/><path d="M 138 92 Q 140 91 142 92 Q 157 95 159 101 Q 160 106 160 109 Q 159 111 157 111 Q 154 111 152 109 Q 147 104 143 100 Q 138 96 137 95 Q 137 94 137 94" fill="#CCCCCC"/><path d="M 163 71 L 163 70 Q 164 68 166 68 Q 177 71 181 77 Q 182 82 181 84 Q 180 88 177 87 Q 172 86 164 73" fill="#CCCCCC"/><path d="M 221 47 L 221 44 Q 221 39 224 39 Q 229 40 233 45 Q 237 50 238 54 Q 239 56 235 57 Q 227 59 210 67 Q 208 68 207 68 Q 205 66 207 64 Q 215 56 218 50" fill="#CCCCCC"/><path d="M 190 36 L 184 29 Q 180 25 184 23 Q 194 20 206 31 Q 208 33 207 35 Q 204 41 203 52 Q 200 86 185 102 Q 174 113 170 113 Q 167 113 168 111 Q 168 111 169 110 Q 192 87 190 42" fill="#CCCCCC"/><path d="M 203 88 L 202 86 Q 202 83 203 82 Q 204 82 207 82 Q 223 85 226 90 Q 228 96 227 99 Q 226 102 224 102 Q 221 103 208 92" fill="#CCCCCC"/><path d="M 113 136 L 108 149 Q 104 159 101 160 Q 100 162 98 159 Q 96 156 95 151 Q 95 147 98 143 Q 104 128 103 122 Q 104 119 105 118 Q 106 117 107 118 Q 111 121 114 128 L 115 134" fill="#CCCCCC"/><path d="M 114 128 Q 115 127 115 127 Q 127 126 139 123 Q 191 113 204 111 Q 229 106 236 111 L 218 119 Q 215 118 203 120 Q 146 129 130 136 Q 122 138 115 134" fill="#CCCCCC"/><path d="M 236 111 Q 254 124 255 126 Q 255 129 246 131 Q 235 134 222 143 Q 217 146 215 145 Q 213 144 215 140 Q 221 125 221 123 Q 222 121 218 119" fill="#CCCCCC"/><path d="M 140 174 L 133 177 Q 128 179 123 175 Q 117 173 117 171 Q 118 169 122 168 Q 135 167 150 164 L 165 160 Q 185 154 191 151 Q 196 148 201 150 Q 214 155 216 158 Q 217 160 214 164 L 192 164 Q 191 162 186 163 Q 176 164 163 168 L 148 172" fill="#CCCCCC"/><path d="M 214 164 Q 210 170 208 183 Q 202 219 195 230 Q 190 240 182 245 L 182 217 Q 189 205 193 177 Q 195 167 192 164" fill="#CCCCCC"/><path d="M 182 245 Q 177 250 172 244 Q 167 236 157 225 Q 152 219 159 221 Q 164 223 170 224 Q 177 225 182 217" fill="#CCCCCC"/><path d="M 150 164 Q 153 145 149 138 Q 148 135 152 134 Q 157 132 169 141 Q 173 144 170 148 Q 166 153 165 160 L 163 168 Q 162 171 162 174 Q 155 204 133 221 Q 113 237 101 236 Q 98 235 101 233 Q 105 230 109 228 Q 123 219 132 208 Q 133 206 134 205 Q 141 194 148 172" fill="#CCCCCC"/><path d="M 74 105 Q 66 108 59 109 Q 46 114 34 108 Q 27 105 36 102 Q 55 99 74 92 L 87 89 Q 89 89 91 89 Q 99 90 101 93 Q 102 95 100 97 Q 99 99 91 101 Q 89 101 86 102" fill="#000000" /><path d="M 73 118 L 74 105 L 74 92 Q 74 50 74 45 Q 74 36 68 29 Q 64 23 68 21 Q 73 20 82 24 Q 97 30 92 38 Q 88 51 87 89 L 86 102 Q 86 114 86 126 L 86 133 Q 86 165 88 198 Q 88 217 83 228 Q 79 238 75 237 Q 72 237 68 228 L 68 205 Q 72 203 72 196 Q 73 167 73 144 L 73 134" fill="#120000" /><path d="M 68 228 Q 64 221 50 208 Q 45 204 45 202 Q 44 199 52 203 Q 66 206 68 205" fill="#120000" /><path d="M 86 126 Q 86 125 86 125 Q 92 121 95 120 Q 98 120 96 123 Q 94 127 89 130 Q 87 131 86 133 L 73 144 Q 50 164 35 182 Q 33 185 28 184 Q 22 182 18 179 Q 14 176 14 173 Q 14 171 17 170 Q 23 167 31 162 Q 51 148 73 134" fill="#240000" /><path d="M 105 74 L 105 72 Q 106 69 108 70 Q 111 71 118 74 Q 122 76 124 79 Q 126 84 125 87 Q 123 91 120 90 Q 116 90 106 76" fill="#360000" /><path d="M 143 69 Q 152 56 152 53 Q 152 49 154 49 Q 158 50 162 54 Q 165 57 166 60 Q 167 62 164 63 Q 157 65 144 73 Q 143 74 142 74" fill="#480000" /><path d="M 136 98 L 136 99 Q 126 120 119 122 Q 117 123 117 120 Q 117 119 119 118 Q 127 95 129 89 Q 129 88 129 88 Q 135 47 126 38 Q 125 36 127 34 Q 129 33 134 35 Q 140 37 144 40 Q 146 43 145 46 Q 143 51 143 69 L 142 74 Q 141 80 138 92 L 137 94" fill="#5b0000" /><path d="M 138 92 Q 140 91 142 92 Q 157 95 159 101 Q 160 106 160 109 Q 159 111 157 111 Q 154 111 152 109 Q 147 104 143 100 Q 138 96 137 95 Q 137 94 137 94" fill="#6d0000" /><path d="M 163 71 L 163 70 Q 164 68 166 68 Q 177 71 181 77 Q 182 82 181 84 Q 180 88 177 87 Q 172 86 164 73" fill="#7f0000" /><path d="M 221 47 L 221 44 Q 221 39 224 39 Q 229 40 233 45 Q 237 50 238 54 Q 239 56 235 57 Q 227 59 210 67 Q 208 68 207 68 Q 205 66 207 64 Q 215 56 218 50" fill="#910000" /><path d="M 190 36 L 184 29 Q 180 25 184 23 Q 194 20 206 31 Q 208 33 207 35 Q 204 41 203 52 Q 200 86 185 102 Q 174 113 170 113 Q 167 113 168 111 Q 168 111 169 110 Q 192 87 190 42" fill="#a30000" /><path d="M 203 88 L 202 86 Q 202 83 203 82 Q 204 82 207 82 Q 223 85 226 90 Q 228 96 227 99 Q 226 102 224 102 Q 221 103 208 92" fill="#b60000" /><path d="M 113 136 L 108 149 Q 104 159 101 160 Q 100 162 98 159 Q 96 156 95 151 Q 95 147 98 143 Q 104 128 103 122 Q 104 119 105 118 Q 106 117 107 118 Q 111 121 114 128 L 115 134" fill="#c80000" /><path d="M 114 128 Q 115 127 115 127 Q 127 126 139 123 Q 191 113 204 111 Q 229 106 236 111 L 218 119 Q 215 118 203 120 Q 146 129 130 136 Q 122 138 115 134" fill="#da0000" /><path d="M 236 111 Q 254 124 255 126 Q 255 129 246 131 Q 235 134 222 143 Q 217 146 215 145 Q 213 144 215 140 Q 221 125 221 123 Q 222 121 218 119" fill="#da0000" /><path d="M 140 174 L 133 177 Q 128 179 123 175 Q 117 173 117 171 Q 118 169 122 168 Q 135 167 150 164 L 165 160 Q 185 154 191 151 Q 196 148 201 150 Q 214 155 216 158 Q 217 160 214 164 L 192 164 Q 191 162 186 163 Q 176 164 163 168 L 148 172" fill="#ec0000" /><path d="M 214 164 Q 210 170 208 183 Q 202 219 195 230 Q 190 240 182 245 L 182 217 Q 189 205 193 177 Q 195 167 192 164" fill="#ec0000" /><path d="M 182 245 Q 177 250 172 244 Q 167 236 157 225 Q 152 219 159 221 Q 164 223 170 224 Q 177 225 182 217" fill="#ec0000" /><path d="M 150 164 Q 153 145 149 138 Q 148 135 152 134 Q 157 132 169 141 Q 173 144 170 148 Q 166 153 165 160 L 163 168 Q 162 171 162 174 Q 155 204 133 221 Q 113 237 101 236 Q 98 235 101 233 Q 105 230 109 228 Q 123 219 132 208 Q 133 206 134 205 Q 141 194 148 172" fill="#ff0000" /></svg>