<svg xmlns="http://www.w3.org/2000/svg" xmlns:xlink="http://www.w3.org/1999/xlink" width="270" height="270"><path d="M 0 0 L 270 270 M 270 0 L 0 270 M 135 0 L 135 270 M 0 135 L 270 135" stroke="#CCCCCC" /><path d="M 60 99 Q 56 100 53 101 Q 35 105 26 101 Q 19 97 28 95 Q 38 93 60 86 L 73 81 Q 77 80 82 81 Q 90 82 92 84 Q 93 87 91 89 Q 89 90 72 95" fill="#CCCCCC"/><path d="M 59 114 L 60 99 L 60 86 Q 60 56 60 52 Q 59 44 54 37 Q 51 31 55 29 Q 60 28 68 32 Q 82 38 77 45 Q 73 62 73 81 L 72 95 Q 71 111 71 126 L 71 135 Q 72 168 73 201 Q 73 220 67 231 Q 63 239 60 239 Q 56 238 53 230 L 54 207 Q 57 205 58 199 Q 58 171 58 148 L 59 135" fill="#CCCCCC"/><path d="M 53 230 Q 51 223 38 209 Q 33 205 33 203 Q 33 200 41 204 Q 53 208 54 207" fill="#CCCCCC"/><path d="M 71 126 Q 80 119 82 119 Q 85 119 84 122 Q 83 122 71 135 L 58 148 Q 45 159 33 176 Q 30 180 26 179 Q 20 178 15 174 Q 11 171 11 169 Q 11 167 59 135" fill="#CCCCCC"/><path d="M 129 54 Q 128 52 115 55 Q 108 56 106 54 Q 103 51 106 50 Q 122 47 129 44 Q 134 41 136 42 Q 149 47 150 49 Q 151 51 150 52" fill="#CCCCCC"/><path d="M 147 56 Q 144 60 141 69 Q 130 92 117 110 Q 94 139 79 140 Q 74 140 79 137 Q 100 118 111 99 Q 113 96 115 93 L 116 91 Q 124 78 126 69 Q 130 57 129 54 L 150 52" fill="#CCCCCC"/><path d="M 115 93 Q 114 94 113 94 Q 109 93 105 90 Q 94 78 94 76 Q 95 73 96 74 Q 100 74 108 77 Q 113 79 115 83 Q 117 87 117 90 Q 116 90 116 91" fill="#CCCCCC"/><path d="M 163 58 Q 178 32 177 27 Q 176 24 178 23 Q 181 22 186 24 Q 192 27 196 30 Q 198 33 194 36 Q 189 39 186 43 Q 173 54 166 60" fill="#CCCCCC"/><path d="M 188 69 L 193 63 Q 206 49 206 42 Q 205 39 208 39 Q 211 38 216 42 Q 223 46 225 50 Q 227 54 222 56 Q 217 58 212 62 Q 204 67 185 79 L 182 75" fill="#CCCCCC"/><path d="M 185 79 Q 191 84 197 89 Q 217 104 256 117 Q 258 118 257 119 Q 256 121 252 122 Q 233 128 218 128 Q 209 125 162 68 Q 156 61 147 56 Q 147 56 147 56 L 150 52 Q 156 50 163 58 L 166 60 Q 174 68 182 75" fill="#CCCCCC"/><path d="M 128 129 Q 127 128 124 128 Q 111 131 108 130 Q 105 129 105 128 Q 104 126 107 126 Q 121 122 125 118 Q 126 117 128 117 Q 129 117 143 124" fill="#CCCCCC"/><path d="M 122 149 Q 125 142 127 137 Q 129 130 128 129 L 143 124 Q 147 128 143 132 Q 137 137 133 151" fill="#CCCCCC"/><path d="M 119 149 L 122 149 L 133 151 Q 136 153 136 154 Q 136 156 133 157 Q 117 159 110 160 L 107 153" fill="#CCCCCC"/><path d="M 110 160 Q 109 165 106 177 L 98 193 Q 94 196 91 194 Q 89 193 87 190 Q 86 187 89 184 Q 94 179 97 168 Q 99 159 96 153 Q 94 150 96 149 Q 98 148 101 149 Q 105 152 107 153" fill="#CCCCCC"/><path d="M 106 177 Q 105 179 106 179 Q 106 179 113 177 Q 126 171 132 174 Q 138 178 141 182 L 118 183 Q 105 184 98 193" fill="#CCCCCC"/><path d="M 141 182 Q 143 184 141 188 Q 138 192 129 221 Q 123 237 110 244 L 110 225 Q 114 222 119 213 Q 128 192 123 184 Q 122 183 118 183" fill="#CCCCCC"/><path d="M 110 244 Q 107 247 103 243 Q 100 236 92 229 Q 89 226 88 224 Q 88 221 91 222 Q 109 226 110 225" fill="#CCCCCC"/><path d="M 164 125 L 164 128 Q 162 150 154 157 Q 147 164 143 164 Q 141 164 141 163 Q 141 162 144 159 Q 150 153 151 147 Q 151 146 152 145 Q 156 127 151 118 Q 148 114 151 113 Q 154 113 160 116 L 165 123" fill="#CCCCCC"/><path d="M 160 116 Q 174 112 180 110 Q 184 108 186 109 Q 191 111 196 115 Q 199 119 195 121 L 179 123 Q 180 120 178 119 Q 177 118 173 120 Q 169 121 166 123 Q 165 123 165 123" fill="#CCCCCC"/><path d="M 195 121 Q 190 126 189 131 Q 187 140 188 143 L 184 153 Q 180 150 179 145 Q 178 144 179 123" fill="#CCCCCC"/><path d="M 188 143 Q 189 146 194 146 Q 202 146 207 143 Q 212 141 214 142 Q 218 144 221 147 Q 223 151 220 152 Q 214 155 203 156 Q 190 156 184 153" fill="#CCCCCC"/><path d="M 186 174 Q 185 170 181 171 Q 159 179 154 177 Q 149 175 151 173 Q 154 171 160 171 Q 173 167 182 161 Q 187 159 192 160 Q 199 163 204 166 Q 208 170 204 173" fill="#CCCCCC"/><path d="M 179 200 Q 186 187 186 174 L 204 173 Q 200 177 198 184 Q 195 197 189 205 L 182 215 Q 176 220 171 223 Q 161 227 146 229 Q 140 230 138 228 Q 136 227 140 226 Q 162 219 173 208" fill="#CCCCCC"/><path d="M 152 192 L 152 191 Q 152 189 153 188 Q 155 188 179 200 L 189 205 Q 218 220 219 231 Q 221 238 219 242 Q 217 246 214 245 Q 211 243 208 239 Q 196 226 182 215 L 173 208" fill="#CCCCCC"/><path d="M 60 99 Q 56 100 53 101 Q 35 105 26 101 Q 19 97 28 95 Q 38 93 60 86 L 73 81 Q 77 80 82 81 Q 90 82 92 84 Q 93 87 91 89 Q 89 90 72 95" fill="#000000" /><path d="M 59 114 L 60 99 L 60 86 Q 60 56 60 52 Q 59 44 54 37 Q 51 31 55 29 Q 60 28 68 32 Q 82 38 77 45 Q 73 62 73 81 L 72 95 Q 71 111 71 126 L 71 135 Q 72 168 73 201 Q 73 220 67 231 Q 63 239 60 239 Q 56 238 53 230 L 54 207 Q 57 205 58 199 Q 58 171 58 148 L 59 135" fill="#120000" /><path d="M 53 230 Q 51 223 38 209 Q 33 205 33 203 Q 33 200 41 204 Q 53 208 54 207" fill="#120000" /><path d="M 71 126 Q 80 119 82 119 Q 85 119 84 122 Q 83 122 71 135 L 58 148 Q 45 159 33 176 Q 30 180 26 179 Q 20 178 15 174 Q 11 171 11 169 Q 11 167 59 135" fill="#240000" /><path d="M 129 54 Q 128 52 115 55 Q 108 56 106 54 Q 103 51 106 50 Q 122 47 129 44 Q 134 41 136 42 Q 149 47 150 49 Q 151 51 150 52" fill="#360000" /><path d="M 147 56 Q 144 60 141 69 Q 130 92 117 110 Q 94 139 79 140 Q 74 140 79 137 Q 100 118 111 99 Q 113 96 115 93 L 116 91 Q 124 78 126 69 Q 130 57 129 54 L 150 52" fill="#360000" /><path d="M 115 93 Q 114 94 113 94 Q 109 93 105 90 Q 94 78 94 76 Q 95 73 96 74 Q 100 74 108 77 Q 113 79 115 83 Q 117 87 117 90 Q 116 90 116 91" fill="#480000" /><path d="M 163 58 Q 178 32 177 27 Q 176 24 178 23 Q 181 22 186 24 Q 192 27 196 30 Q 198 33 194 36 Q 189 39 186 43 Q 173 54 166 60" fill="#5b0000" /><path d="M 188 69 L 193 63 Q 206 49 206 42 Q 205 39 208 39 Q 211 38 216 42 Q 223 46 225 50 Q 227 54 222 56 Q 217 58 212 62 Q 204 67 185 79 L 182 75" fill="#6d0000" /><path d="M 185 79 Q 191 84 197 89 Q 217 104 256 117 Q 258 118 257 119 Q 256 121 252 122 Q 233 128 218 128 Q 209 125 162 68 Q 156 61 147 56 Q 147 56 147 56 L 150 52 Q 156 50 163 58 L 166 60 Q 174 68 182 75" fill="#7f0000" /><path d="M 128 129 Q 127 128 124 128 Q 111 131 108 130 Q 105 129 105 128 Q 104 126 107 126 Q 121 122 125 118 Q 126 117 128 117 Q 129 117 143 124" fill="#910000" /><path d="M 122 149 Q 125 142 127 137 Q 129 130 128 129 L 143 124 Q 147 128 143 132 Q 137 137 133 151" fill="#910000" /><path d="M 119 149 L 122 149 L 133 151 Q 136 153 136 154 Q 136 156 133 157 Q 117 159 110 160 L 107 153" fill="#a30000" /><path d="M 110 160 Q 109 165 106 177 L 98 193 Q 94 196 91 194 Q 89 193 87 190 Q 86 187 89 184 Q 94 179 97 168 Q 99 159 96 153 Q 94 150 96 149 Q 98 148 101 149 Q 105 152 107 153" fill="#b60000" /><path d="M 106 177 Q 105 179 106 179 Q 106 179 113 177 Q 126 171 132 174 Q 138 178 141 182 L 118 183 Q 105 184 98 193" fill="#b60000" /><path d="M 141 182 Q 143 184 141 188 Q 138 192 129 221 Q 123 237 110 244 L 110 225 Q 114 222 119 213 Q 128 192 123 184 Q 122 183 118 183" fill="#b60000" /><path d="M 110 244 Q 107 247 103 243 Q 100 236 92 229 Q 89 226 88 224 Q 88 221 91 222 Q 109 226 110 225" fill="#b60000" /><path d="M 164 125 L 164 128 Q 162 150 154 157 Q 147 164 143 164 Q 141 164 141 163 Q 141 162 144 159 Q 150 153 151 147 Q 151 146 152 145 Q 156 127 151 118 Q 148 114 151 113 Q 154 113 160 116 L 165 123" fill="#c80000" /><path d="M 160 116 Q 174 112 180 110 Q 184 108 186 109 Q 191 111 196 115 Q 199 119 195 121 L 179 123 Q 180 120 178 119 Q 177 118 173 120 Q 169 121 166 123 Q 165 123 165 123" fill="#da0000" /><path d="M 195 121 Q 190 126 189 131 Q 187 140 188 143 L 184 153 Q 180 150 179 145 Q 178 144 179 123" fill="#da0000" /><path d="M 188 143 Q 189 146 194 146 Q 202 146 207 143 Q 212 141 214 142 Q 218 144 221 147 Q 223 151 220 152 Q 214 155 203 156 Q 190 156 184 153" fill="#da0000" /><path d="M 186 174 Q 185 170 181 171 Q 159 179 154 177 Q 149 175 151 173 Q 154 171 160 171 Q 173 167 182 161 Q 187 159 192 160 Q 199 163 204 166 Q 208 170 204 173" fill="#ec0000" /><path d="M 179 200 Q 186 187 186 174 L 204 173 Q 200 177 198 184 Q 195 197 189 205 L 182 215 Q 176 220 171 223 Q 161 227 146 229 Q 140 230 138 228 Q 136 227 140 226 Q 162 219 173 208" fill="#ec0000" /><path d="M 152 192 L 152 191 Q 152 189 153 188 Q 155 188 179 200 L 189 205 Q 218 220 219 231 Q 221 238 219 242 Q 217 246 214 245 Q 211 243 208 239 Q 196 226 182 215 L 173 208" fill="#ff0000" /></svg>