<svg xmlns="http://www.w3.org/2000/svg" xmlns:xlink="http://www.w3.org/1999/xlink" width="270" height="270"><path d="M 0 0 L 270 270 M 270 0 L 0 270 M 135 0 L 135 270 M 0 135 L 270 135" stroke="#CCCCCC" /><path d="M 67 103 Q 61 104 55 106 Q 39 110 28 105 Q 22 101 31 99 Q 51 96 68 91 L 81 86 Q 85 84 91 85 Q 99 87 100 90 Q 102 92 99 94 Q 98 95 90 97 Q 85 98 80 100" fill="#000000" /><path d="M 67 118 L 67 103 L 68 91 Q 68 48 68 43 Q 68 35 62 28 Q 58 22 63 20 Q 68 18 76 23 Q 91 29 86 37 Q 82 49 81 86 L 80 100 Q 79 115 79 130 L 79 137 Q 80 173 81 209 Q 81 228 75 240 Q 70 248 67 248 Q 64 247 61 239 L 61 215 Q 65 213 65 206 Q 66 173 66 147 L 66 137" fill="#120000" /><path d="M 61 239 Q 59 232 47 219 Q 43 214 43 212 Q 42 210 51 214 Q 60 216 61 215" fill="#120000" /><path d="M 79 130 Q 81 129 82 128 Q 88 124 91 124 Q 94 124 92 127 Q 90 129 79 137 L 66 147 Q 43 164 28 179 Q 26 182 21 181 Q 16 179 11 175 Q 8 172 8 169 Q 8 167 66 137" fill="#240000" /><path d="M 148 57 Q 131 62 129 62 Q 128 61 129 59 Q 171 38 171 30 Q 171 27 173 26 Q 176 26 180 28 Q 190 31 195 35 Q 198 38 197 41 Q 196 42 192 43 Q 187 43 159 54" fill="#360000" /><path d="M 114 77 L 114 75 Q 115 72 117 72 Q 120 73 128 77 Q 133 79 135 82 Q 137 87 137 90 Q 135 95 132 95 Q 125 94 116 79" fill="#480000" /><path d="M 193 57 L 192 54 Q 192 50 195 49 Q 201 50 205 54 Q 209 59 210 62 Q 211 65 207 66 Q 199 70 183 80 Q 181 81 179 81 Q 178 79 179 77 Q 187 68 190 61" fill="#5b0000" /><path d="M 141 110 Q 129 112 119 116 Q 110 119 103 113 Q 99 109 104 109 Q 131 103 155 98 L 165 96 Q 180 92 191 90 Q 207 83 221 92 Q 225 95 224 98 Q 223 100 219 100 Q 169 105 167 105" fill="#6d0000" /><path d="M 164 125 L 165 138 Q 165 154 163 156 Q 159 158 157 154 Q 153 144 153 142 Q 154 133 155 111 L 155 98 Q 154 68 148 57 L 159 54 Q 165 57 170 61 Q 173 64 171 66 Q 166 76 165 96 L 164 111" fill="#7f0000" /><path d="M 155 111 Q 152 113 150 118 Q 146 126 138 134 Q 129 144 118 153 Q 98 165 91 164 Q 87 164 91 161 Q 131 134 141 110 L 155 98" fill="#910000" /><path d="M 165 96 L 167 105 Q 197 124 211 129 Q 215 131 257 142 Q 261 143 261 145 Q 261 146 256 147 Q 237 152 218 153 Q 208 154 202 148 Q 182 130 164 111" fill="#a30000" /><path d="M 128 238 L 128 240 Q 127 244 122 238 Q 118 232 117 223 Q 113 193 105 175 Q 103 170 105 169 Q 106 167 109 169 Q 116 170 119 171 L 123 181 Q 124 191 129 220 Q 129 224 129 227 L 129 236" fill="#b60000" /><path d="M 149 176 Q 124 180 123 181 L 119 171 Q 161 167 192 157 Q 200 154 204 156 Q 216 162 221 167 L 196 171 Q 192 167 159 174" fill="#c80000" /><path d="M 193 223 Q 194 223 194 219 Q 198 198 198 177 Q 198 172 196 171 L 221 167 Q 224 170 220 175 Q 214 183 213 194 Q 208 232 203 244 Q 201 250 197 251 Q 194 251 192 247" fill="#c80000" /><path d="M 182 220 Q 183 218 185 220 Q 192 224 193 223 L 192 247 Q 187 237 184 230" fill="#c80000" /><path d="M 152 202 Q 135 203 134 203 Q 129 199 133 198 Q 142 196 152 193 L 164 190 Q 172 188 176 189 Q 182 190 185 193 Q 187 197 181 198 Q 173 198 164 200" fill="#da0000" /><path d="M 153 224 Q 152 211 152 202 L 152 193 Q 150 182 149 176 L 159 174 Q 159 175 161 176 Q 165 179 165 189 Q 164 190 164 190 L 164 200 Q 163 210 163 223" fill="#ec0000" /><path d="M 129 227 Q 140 226 153 224 L 163 223 Q 168 221 174 220 Q 179 219 182 220 L 184 230 Q 149 232 132 236 Q 130 236 129 236" fill="#ff0000" /></svg>