<svg xmlns="http://www.w3.org/2000/svg" xmlns:xlink="http://www.w3.org/1999/xlink" width="270" height="270"><path d="M 0 0 L 270 270 M 270 0 L 0 270 M 135 0 L 135 270 M 0 135 L 270 135" stroke="#CCCCCC" /><path d="M 74 88 Q 64 89 55 92 Q 41 96 29 90 Q 22 85 32 84 Q 54 81 74 74 L 87 70 Q 95 66 102 68 Q 110 70 112 73 Q 113 75 111 77 Q 109 78 87 84" fill="#000000" /><path d="M 74 103 L 74 88 L 74 74 Q 74 43 73 39 Q 73 30 67 23 Q 63 17 68 15 Q 73 14 82 18 Q 96 24 92 32 Q 87 48 87 70 L 87 84 Q 86 100 86 116 L 86 125 Q 87 162 89 200 Q 90 219 85 231 Q 81 240 77 240 Q 73 239 70 231 L 70 207 Q 73 205 73 198 Q 73 163 73 136 L 73 125" fill="#110000" /><path d="M 70 231 Q 66 224 52 211 Q 47 207 47 205 Q 46 203 55 206 Q 70 207 70 207" fill="#110000" /><path d="M 86 116 Q 98 107 101 106 Q 104 106 103 109 Q 100 113 95 117 Q 90 120 86 125 L 73 136 Q 56 151 36 174 Q 34 177 30 177 Q 24 175 19 172 Q 15 169 15 166 Q 16 164 19 163 Q 24 160 32 155 Q 51 140 73 125" fill="#220000" /><path d="M 140 74 Q 140 77 140 78 Q 139 82 134 78 Q 130 74 129 68 Q 122 48 114 37 Q 112 34 113 32 Q 114 30 116 31 Q 124 31 126 32 L 131 41 Q 134 51 139 68" fill="#330000" /><path d="M 126 32 Q 139 30 153 27 Q 196 20 199 20 Q 217 15 221 18 Q 231 25 235 29 L 212 29 Q 205 24 183 29 L 175 31 Q 163 32 153 35 L 149 37 Q 148 36 148 36 Q 138 38 131 41" fill="#440000" /><path d="M 235 29 Q 237 33 234 35 Q 228 41 225 49 Q 217 67 215 71 Q 211 76 208 73 Q 205 71 202 65 L 201 58 Q 201 58 202 58 Q 206 58 207 55 Q 208 52 213 34 Q 214 30 212 29" fill="#440000" /><path d="M 153 35 Q 156 37 156 41 Q 157 43 158 44 Q 162 54 162 64 L 154 65 Q 150 62 149 37" fill="#550000" /><path d="M 183 29 Q 189 32 191 36 Q 193 38 191 41 Q 181 58 181 60 L 174 62 Q 179 39 176 33 Q 175 31 175 31" fill="#660000" /><path d="M 201 58 L 201 58 L 202 65 Q 182 67 168 69 L 158 71 Q 147 72 140 74 L 139 68 Q 146 66 154 65 L 162 64 Q 167 63 174 62 L 181 60 Q 197 56 200 58" fill="#770000" /><path d="M 161 98 Q 158 98 155 99 Q 142 102 134 97 Q 129 93 137 92 Q 150 91 161 89 L 175 86 Q 190 81 196 82 Q 202 84 204 87 Q 204 88 203 90 Q 201 91 192 93 Q 183 94 174 96" fill="#880000" /><path d="M 168 69 Q 171 72 175 76 Q 177 77 175 86 L 174 96 Q 174 104 173 114 L 162 116 Q 161 105 161 98 L 161 89 Q 160 74 158 71" fill="#990000" /><path d="M 183 121 Q 160 123 142 127 L 134 129 Q 113 134 110 133 Q 106 132 103 129 Q 99 125 104 125 Q 135 120 162 116 L 173 114 Q 208 108 229 103 Q 238 101 250 109 Q 254 112 253 115 Q 252 117 247 117 Q 214 118 190 120" fill="#aa0000" /><path d="M 142 127 Q 153 133 154 138 Q 154 144 153 146 Q 151 148 149 148 Q 147 147 145 145 Q 142 139 138 135 Q 135 131 134 129" fill="#bb0000" /><path d="M 175 151 Q 176 148 178 145 Q 185 128 183 122 Q 183 121 183 121 L 190 120 Q 191 120 191 121 Q 197 125 198 129 Q 200 132 197 134 Q 195 135 186 146 Q 184 148 183 150" fill="#cc0000" /><path d="M 157 164 Q 148 165 142 166 Q 133 166 128 163 Q 123 159 129 158 Q 164 153 171 152 Q 173 151 175 151 L 183 150 Q 197 145 205 149 Q 210 152 210 154 Q 208 157 205 156 Q 176 160 171 161" fill="#dd0000" /><path d="M 161 192 Q 142 194 125 199 Q 121 200 116 199 Q 111 198 108 194 Q 104 191 109 190 Q 137 186 161 183 L 176 180 Q 194 176 208 174 Q 225 169 239 179 Q 243 183 241 185 Q 239 188 226 187 Q 195 187 175 190" fill="#ee0000" /><path d="M 175 191 L 175 193 Q 174 244 172 251 Q 171 254 169 255 Q 167 255 166 254 L 166 254 Q 163 249 161 192 L 161 183 Q 159 167 159 166 Q 157 165 157 164 L 171 161 Q 177 165 177 170 Q 176 178 176 180 L 175 190" fill="#ff0000" /></svg>