<svg xmlns="http://www.w3.org/2000/svg" xmlns:xlink="http://www.w3.org/1999/xlink" width="270" height="270"><path d="M 0 0 L 270 270 M 270 0 L 0 270 M 135 0 L 135 270 M 0 135 L 270 135" stroke="#CCCCCC" /><path d="M 72 104 Q 64 106 57 109 Q 44 113 32 108 Q 26 105 34 102 Q 50 99 72 92 L 84 87 Q 88 85 94 86 Q 102 87 103 90 Q 105 92 103 94 Q 102 94 84 101" fill="#000000" /><path d="M 72 119 L 72 104 L 72 92 Q 72 47 72 42 Q 71 33 66 27 Q 62 21 66 19 Q 71 18 80 22 Q 93 28 89 35 Q 86 46 84 87 L 84 101 Q 83 115 83 130 L 83 139 Q 84 174 86 209 Q 86 227 81 238 Q 77 247 73 247 L 71 206 Q 71 174 71 148 L 71 137" fill="#0f0000" /><path d="M 73 247 Q 70 246 66 238 Q 63 231 49 217 Q 44 213 44 211 Q 44 209 51 212 Q 66 215 68 214 Q 70 213 71 206" fill="#0f0000" /><path d="M 83 130 Q 94 122 98 122 Q 101 122 99 125 Q 98 126 83 139 L 71 148 Q 53 163 36 180 Q 33 183 29 182 Q 23 180 18 176 Q 14 173 14 170 Q 15 168 71 137" fill="#1e0000" /><path d="M 159 36 Q 158 36 158 36 Q 146 39 135 34 Q 130 30 138 29 Q 139 28 179 22 Q 203 14 209 15 Q 216 17 217 20 Q 218 22 216 24 Q 215 25 169 34" fill="#2d0000" /><path d="M 151 60 Q 151 60 151 60 Q 152 57 154 53 Q 159 41 159 36 L 169 34 Q 172 38 173 40 Q 175 43 171 45 Q 169 47 168 48 Q 162 55 158 59" fill="#3c0000" /><path d="M 139 115 Q 137 96 136 86 Q 135 65 132 61 Q 131 59 132 58 Q 134 57 136 58 Q 139 59 142 61 L 147 68 Q 147 74 147 79 L 147 85 Q 147 90 147 97 L 147 101 Q 147 107 147 114" fill="#4b0000" /><path d="M 142 61 Q 147 60 151 60 L 158 59 Q 166 57 175 55 Q 193 48 196 51 Q 207 57 209 60 L 190 61 Q 189 59 185 60 Q 175 61 150 67 Q 148 68 147 68" fill="#5a0000" /><path d="M 209 60 Q 211 64 209 67 Q 205 70 201 104 L 189 106 Q 192 63 190 61" fill="#5a0000" /><path d="M 147 79 Q 169 72 173 72 Q 178 73 181 76 Q 182 78 178 79 Q 166 81 149 85 Q 148 85 147 85" fill="#690000" /><path d="M 147 97 Q 168 89 174 90 Q 179 91 182 94 Q 183 96 179 97 L 147 101" fill="#780000" /><path d="M 119 129 L 116 141 Q 114 148 113 150 Q 111 154 109 155 Q 108 157 106 154 Q 103 150 102 146 Q 102 141 104 137 Q 111 119 110 111 Q 110 108 111 107 Q 113 106 114 107 Q 119 111 122 118 L 122 125" fill="#870000" /><path d="M 122 118 Q 130 116 139 115 L 147 114 Q 172 109 189 106 L 201 104 Q 215 101 227 99 Q 233 99 237 102 L 222 109 Q 220 109 217 109 Q 181 112 140 123 Q 127 127 122 125" fill="#960000" /><path d="M 237 102 Q 252 114 253 116 Q 253 118 245 120 Q 236 123 224 131 Q 220 133 218 133 Q 217 132 219 129 Q 225 114 225.5 112.5 Q 226 111 222 109" fill="#960000" /><path d="M 131 134 L 132 134 Q 133 134 134 135 Q 136 140 135 146 Q 136 157 126 165 Q 123 168 121 165 Q 118 158 121 152 Q 127 145 130 136" fill="#a50000" /><path d="M 140 139 L 141 139 Q 142 138 145 139 Q 147 140 149 144 Q 151 149 154 152 Q 163 157 179 156 Q 186 155 187 153 L 213 155 Q 213 157 210 159 Q 209 160 209 160 Q 180 172 158 162 Q 146 155 141 141" fill="#b40000" /><path d="M 187 153 Q 188 152 187 148 Q 184 138 184 138 Q 184 136 187 139 Q 196 145 207 151 Q 213 153 213 155" fill="#b40000" /><path d="M 155 129 L 155 127 Q 155 125 157 125 Q 169 127 173 132 Q 175 136 175 138 Q 174 142 171 142 Q 167 142 156 130" fill="#c30000" /><path d="M 188 124 L 188 122 Q 188 120 189 120 Q 190 119 192 120 Q 208 125 209 130 Q 211 135 210 137 Q 209 140 207 140 Q 204 140 202 137 Q 197 132 193 128" fill="#d20000" /><path d="M 114 234 L 95 234 Q 93 233 95 232 Q 97 230 99 228 Q 142 192 141 170 Q 141 168 143 167 Q 145 167 150 169 Q 157 172 159 177 L 155 184 Q 154 185 151 190 L 146 195" fill="#e10000" /><path d="M 159 177 Q 174 175 185 170 Q 190 169 195 171 Q 202 175 207 179 L 182 181 Q 157 184 155 184" fill="#f00000" /><path d="M 207 179 Q 210 184 206 186 Q 201 190 198 197 Q 194 208 188 216 L 181 224 Q 171 234 160 238 Q 147 242 126 244 Q 119 244 118 242 Q 116 240 120 240 Q 157 230 172 216 L 178 209 Q 186 196 186.5 188 Q 187 180 182 181" fill="#f00000" /><path d="M 188 216 Q 189 216 191 217 Q 215 233 253 240 Q 255 241 255 242 Q 252 246 222 254 Q 216 255 212 251 Q 197 239 181 224 L 172 216 Q 153 197 146 195 L 151 190 Q 154 189 157 193 Q 169 202 178 209" fill="#ff0000" /></svg>