<svg xmlns="http://www.w3.org/2000/svg" xmlns:xlink="http://www.w3.org/1999/xlink" width="270" height="270"><path d="M 0 0 L 270 270 M 270 0 L 0 270 M 135 0 L 135 270 M 0 135 L 270 135" stroke="#CCCCCC" /><path d="M 75 37 L 74 34 Q 73 31 74 30 Q 77 27 97 31 Q 105 34 107 38 Q 110 45 110 49 Q 109 53 106 54 Q 102 54 98 52 Q 90 46 83 41" fill="#000000" /><path d="M 62 78 L 80 74 Q 96 69 112 63 Q 119 60 126 61 Q 133 63 134 66 Q 135 68 134 70 Q 131 72 119 75 Q 89 82 62 88 Q 49 92 39 86 Q 32 83 41 81" fill="#130000" /><path d="M 72 140 L 72 142 Q 71 146 66 142 Q 63 139 61 134 Q 56 118 50 109 Q 47 105 48 104 Q 49 103 52 103 Q 61 103 63 104 L 66 111 Q 67 116 70 130 L 72 137" fill="#270000" /><path d="M 99 103 Q 97 102 94 103 Q 81 106 68 110 Q 67 111 66 111 L 63 104 Q 71 102 78 100 Q 87 97 95 93 Q 100 91 103 92 Q 114 97 117 99" fill="#3a0000" /><path d="M 97 122 Q 98 115 100 108 Q 100 104 99 103 L 117 99 Q 121 103 117 106 Q 112 110 108 120" fill="#3a0000" /><path d="M 70 130 Q 82 126 97 122 L 108 120 Q 109 120 109 121 Q 117 125 117 127 Q 117 129 115 130 Q 88 133 76 137 Q 74 137 72 137" fill="#4e0000" /><path d="M 36 175 Q 36 182 38 205 Q 41 232 35 239 Q 32 241 31 238 L 30 238 Q 19 227 25 215 Q 27 182 17 168 Q 15 165 19 164 Q 25 163 32 166" fill="#620000" /><path d="M 112 160 Q 109 158 106 159 Q 65 166 36 175 L 32 166 Q 41 164 56 161 Q 91 152 99 151 Q 117 146 120 147 Q 130 151 133 154 Q 135 156 132 159" fill="#750000" /><path d="M 128 230 Q 125 240 122 241 Q 119 243 116 240 L 116 213 Q 119 184 117 168 Q 116 162 112 160 L 132 159 Q 129 163 131 187 Q 132 218 130 226" fill="#750000" /><path d="M 116 240 Q 112 233 104 227 Q 97 223 97 220 Q 96 218 100 219 Q 105 219 110 219 Q 116 219 116 213" fill="#750000" /><path d="M 66 217 L 65 219 Q 64 221 61 217 Q 58 214 57 210 Q 54 194 49 185 Q 47 182 48 181 Q 49 180 52 180 Q 58 181 61 183 L 63 188 Q 63 193 65 206 L 66 214" fill="#890000" /><path d="M 88 184 Q 87 182 81 183 Q 64 187 63 188 L 61 183 Q 70 180 80 176 Q 90 170 94 172 Q 99 176 103 178" fill="#9c0000" /><path d="M 86 199 Q 89 185 88 184 L 103 178 Q 108 181 104 186 Q 100 190 97 200" fill="#9c0000" /><path d="M 65 206 Q 74 204 85 200 Q 85 199 86 199 L 97 200 Q 103 203 103 205 Q 103 207 100 207 Q 79 211 69 213 Q 67 214 66 214" fill="#b00000" /><path d="M 164 133 Q 165 88 163 49 Q 162 43 156 34 Q 154 30 156 28 Q 158 26 162 27 Q 169 28 178 33 Q 183 37 182 39 Q 178 57 178 80 L 177 90 Q 176 109 175 129" fill="#c40000" /><path d="M 178 80 Q 182 79 191 77 Q 210 71 216 72 Q 224 73 226 76 Q 227 78 225 81 Q 224 81 203 87 Q 185 91 177 90" fill="#d70000" /><path d="M 182 136 Q 173 139 163 142 Q 154 145 148 142 Q 143 140 145 138 Q 147 137 164 133 L 175 129 Q 180 127 183 125 Q 188 122 194 123 Q 203 126 208 129" fill="#eb0000" /><path d="M 175 214 L 168 219 Q 157 226 137 229 Q 131 231 128 230 L 130 226 Q 158 215 169 201 Q 171 197 174 194 L 179 183 Q 188 163 188 141 Q 188 135 182 136 L 208 129 Q 213 133 209 137 Q 205 142 204 150 Q 198 176 189 193 L 182 205" fill="#eb0000" /><path d="M 174 194 Q 165 183 156 171 Q 151 163 142 158 Q 140 157 141 155 Q 143 153 149 153 Q 154 154 156 158 Q 169 172 179 183 L 189 193 Q 190 194 191 195 Q 211 212 251 228 Q 254 229 252 231 Q 249 234 215 236 Q 208 236 204 232 Q 193 219 182 205" fill="#ff0000" /></svg>