<svg xmlns="http://www.w3.org/2000/svg" xmlns:xlink="http://www.w3.org/1999/xlink" width="270" height="270"><path d="M 0 0 L 270 270 M 270 0 L 0 270 M 135 0 L 135 270 M 0 135 L 270 135" stroke="#CCCCCC" /><path d="M 45 45 L 45 44 Q 45 41 48 41 Q 51 42 59 45 Q 64 47 66 50 Q 68 55 68 58 Q 66 62 63 62 Q 58 62 47 48" fill="#000000" /><path d="M 107 34 L 107 31 Q 107 28 110 27 Q 115 28 118 32 Q 122 35 123 38 Q 123 41 120 42 Q 113 45 99 54 Q 97 54 95 54 Q 95 53 96 51 Q 102 43 106 37" fill="#0f0000" /><path d="M 51 82 Q 51 85 51 97 Q 51 126 45 131 Q 43 132 41 129 Q 34 120 38 111 Q 44 95 39 78 Q 37 77 38 76 Q 37 75 37 75 Q 36 72 38 71 Q 45 71 49 75" fill="#1f0000" /><path d="M 66 78 L 53 82 Q 52 82 51 82 L 49 75 Q 60 73 73 70 Q 75 70 77 70 L 87 67 Q 93 65 99 62 Q 103 61 107 62 Q 117 66 123 71 L 105 73 Q 103 70 97 71 Q 91 72 87 74 L 77 76" fill="#2f0000" /><path d="M 123 71 Q 125 73 123 77 Q 118 83 120 107 Q 120 116 117 120 Q 114 125 112 126 Q 110 126 108 121 Q 106 116 107 111 Q 109 78 105 73" fill="#2f0000" /><path d="M 77 70 Q 77 61 77 52 Q 78 36 71 26 Q 69 22 73 21 Q 80 19 92 29 Q 95 32 93 34 Q 88 44 87 67 L 87 74 Q 85 93 87 112 Q 87 127 84 129 Q 81 131 79 127 Q 74 117 75 115 Q 77 104 77 76" fill="#3f0000" /><path d="M 60 87 L 62 87 Q 64 87 68 88 Q 71 90 72 91 Q 73 93 72 94 Q 70 96 69 99 Q 59 118 54 119 Q 53 120 53 119 Q 57 110 60 105 Q 63 92 62 90" fill="#4f0000" /><path d="M 90 88 L 90 87 Q 91 85 92 86 Q 101 89 104 96 Q 104 100 103 102 Q 102 104 100 103 Q 96 102 91 90" fill="#5f0000" /><path d="M 143 55 Q 132 69 127 70 Q 124 71 125 69 Q 125 68 127 65 Q 133 55 136 47 Q 144 28 141 24 Q 139 19 143 19 Q 146 18 152 22 Q 158 26 159 28 Q 160 31 158 33 Q 156 36 154 40 Q 150 46 146 51" fill="#6f0000" /><path d="M 162 59 Q 147 60 143 55 L 146 51 Q 146 51 146 51 Q 158 49 168 47 Q 195 39 199 40 Q 206 41 208 44 Q 208 46 207 48 Q 206 48 168 57" fill="#7f0000" /><path d="M 140 115 L 126 111 Q 123 110 127 109 Q 141 102 150 94 L 155 88 Q 165 72 162 59 L 168 57 Q 173 59 177 65 Q 180 68 177 71 Q 175 74 173 77 Q 164 93 163 94 L 157 101" fill="#8f0000" /><path d="M 150 94 Q 137 82 131 79 Q 128 77 128 76 Q 129 75 132 75 Q 139 74 155 88 L 163 94 Q 180 104 207 112 Q 213 113 218 115 Q 225 116 225 117 Q 226 119 219 121 Q 188 128 181 122 Q 159 105 157 101" fill="#9f0000" /><path d="M 71 149 Q 67 148 61 143 Q 56 139 62 138 Q 98 135 119 130 Q 127 128 136 126 Q 155 121 162 126 Q 167 129 167 132 Q 164 135 162 134 Q 122 138 80 147" fill="#af0000" /><path d="M 33 191 L 33 191 Q 31 191 33 190 Q 66 167 71 149 L 80 147 Q 86 151 86 155 Q 86 157 84 158 Q 82 158 75 166 L 70 171 Q 62 178 53 184 L 50 186" fill="#bf0000" /><path d="M 75 166 Q 89 165 96 163 Q 102 161 104 163 Q 116 170 116 172 L 95 173 Q 94 171 78 172 Q 73 172 70 171" fill="#cf0000" /><path d="M 116 172 Q 117 175 114 177 Q 107 181 102 191 Q 63 244 34 243 Q 29 243 35 240 Q 57 226 71 211 Q 85 197 90 186 Q 96 176 95 173" fill="#cf0000" /><path d="M 53 184 Q 54 184 55 185 Q 71 191 72 196 Q 72 202 71 204 Q 70 206 68 206 Q 65 206 63 203 Q 50 186 50 186" fill="#df0000" /><path d="M 145 176 L 151 171 Q 167 156 167 149 Q 166 145 170 145 Q 173 145 179 149 Q 185 153 188 158 Q 190 163 184 165 Q 174 167 159 178 Q 151 183 137 189 L 137 183" fill="#ef0000" /><path d="M 137 189 Q 134 206 139 221 L 129 227 Q 123 218 125 172 Q 126 158 121 148 Q 119 144 123 142 Q 127 141 140 151 Q 145 155 142 163 Q 139 170 137 183" fill="#ff0000" /><path d="M 139 221 Q 141 226 148 229 Q 168 237 204 230 L 237 228 Q 240 236 232 240 Q 224 246 202 248 Q 177 251 161 247 Q 137 243 129 227" fill="#ff0000" /><path d="M 204 230 Q 214 228 216 223 Q 219 221 225 204 Q 226 198 228 200 Q 230 201 230 205 Q 233 220 237 228" fill="#ff0000" /></svg>