<svg xmlns="http://www.w3.org/2000/svg" xmlns:xlink="http://www.w3.org/1999/xlink" width="270" height="270"><path d="M 0 0 L 270 270 M 270 0 L 0 270 M 135 0 L 135 270 M 0 135 L 270 135" stroke="#CCCCCC" /><path d="M 84 69 Q 72 71 63 67 Q 56 64 65 61 Q 80 58 84 57 L 96 53 Q 96 52 96 52 Q 104 48 112 49 Q 120 51 122 54 Q 123 56 121 58 Q 119 59 95 66" fill="#000000" /><path d="M 64 149 Q 64 153 63 156 Q 62 160 57 155 Q 52 150 51 142 Q 46 116 38 101 Q 35 96 37 95 Q 38 93 41 94 Q 47 95 50 96 L 56 104 Q 56 108 63 143" fill="#190000" /><path d="M 84 96 Q 67 100 56 104 L 50 96 Q 59 94 71 91 Q 78 88 84 87 L 94 85 Q 97 84 109 82 Q 122 77 127 79 Q 138 86 142 90 L 119 91 Q 113 88 94 94" fill="#330000" /><path d="M 112 133 Q 116 125 121 98 Q 122 94 119 91 L 142 90 Q 144 93 141 96 Q 136 102 134 110 Q 126 140 123 146 Q 119 150 117 149 Q 113 147 109 141" fill="#330000" /><path d="M 84 121 Q 71 123 71 123 Q 65 120 69 119 Q 76 116 84 112 L 94 109 Q 97 108 99 108 Q 106 108 109 112 Q 111 114 106 116 Q 100 117 94 119" fill="#4c0000" /><path d="M 83 146 Q 76 147 68 149 Q 65 149 64 149 L 63 143 Q 73 139 84 136 L 94 133 Q 108 129 112 133 L 109 141 Q 101 142 94 144" fill="#660000" /><path d="M 80 179 L 80 179 Q 64 184 41 194 Q 31 198 21 192 Q 17 189 18 187 Q 18 184 22 184 Q 47 179 83 169 L 93 166 Q 103 162 115 159 Q 121 157 127 159 Q 132 161 132 164 Q 132 166 128 167 Q 109 171 93 175 L 82 179" fill="#7f0000" /><path d="M 83 169 Q 83 166 83 146 L 84 136 Q 84 129 84 121 L 84 112 Q 84 104 84 96 L 84 87 Q 84 87 85 86 Q 84 78 84 69 L 84 57 Q 84 51 84 46 Q 83 33 75 21 Q 73 17 75 16 Q 79 12 85 16 Q 99 24 100 27 Q 102 30 99 34 Q 97 42 96 53 L 95 66 Q 94 76 94 85 L 94 94 Q 94 101 94 109 L 94 119 Q 94 126 94 133 L 94 144 Q 93 155 93 166 L 93 175 Q 94 206 94 213 Q 94 221 92 226 Q 89 232 88 233 Q 86 235 84 233 Q 82 232 80 228 Q 74 212 77 203 Q 80 191 82 179" fill="#990000" /><path d="M 163 71 Q 167 66 171 63 Q 194 39 194 31 Q 194 27 197 27 Q 201 27 207 31 Q 214 36 218 41 Q 220 46 214 48 Q 207 51 187 64 Q 179 69 167 75" fill="#b20000" /><path d="M 164 115 Q 162 150 155 170 Q 153 173 151 176 Q 130 212 112 213 Q 110 214 110 212 Q 111 210 114 207 Q 135 186 142 169 Q 147 154 150 141 Q 156 86 146 72 Q 142 66 147 65 Q 151 64 163 70 Q 163 70 163 71 L 167 75 Q 167 76 167 78 Q 166 85 165 107" fill="#cc0000" /><path d="M 187 115 L 187 115 Q 178 118 164 115 L 165 107 Q 187 103 205 98 Q 234 88 241 89 Q 249 91 251 94 Q 252 96 250 99 Q 249 99 203 112 L 189 115" fill="#e50000" /><path d="M 203 112 Q 206 113 210 116 Q 213 118 212 123 Q 210 132 210 140 Q 208 193 209 207 Q 209 222 207 239 Q 206 254 201 257 Q 200 257 198 255 Q 197 254 197 253 Q 194 247 194 144 Q 194 124 189 115" fill="#ff0000" /></svg>