<svg xmlns="http://www.w3.org/2000/svg" xmlns:xlink="http://www.w3.org/1999/xlink" width="270" height="270"><path d="M 0 0 L 270 270 M 270 0 L 0 270 M 135 0 L 135 270 M 0 135 L 270 135" stroke="#CCCCCC" /><path d="M 56 155 Q 54 166 52 170 Q 49 173 47 170 L 46 169 Q 37 157 43 134 Q 48 75 41 62 Q 40 60 40 58 Q 38 54 40 53 Q 44 51 52 57 Q 52 57 52 57 L 58 64 Q 58 66 58 69 Q 57 72 56 102 L 56 110 Q 56 128 56 145" fill="#CCCCCC"/><path d="M 52 57 Q 78 52 89 46 Q 93 44 97 46 Q 109 52 113 56 L 94 59 Q 92 58 67 63 Q 61 64 58 64" fill="#CCCCCC"/><path d="M 94 145 Q 97 139 97 122 Q 99 64 94 59 L 113 56 Q 115 59 113 62 Q 109 66 109 74 Q 110 119 112 143 Q 113 154 109 163 Q 105 171 101 171 Q 99 171 97 167" fill="#CCCCCC"/><path d="M 94 145 L 97 167 Q 92 159 86 151" fill="#CCCCCC"/><path d="M 56 102 Q 67 96 77 97 Q 84 97 87 101 Q 89 105 83 106 Q 72 108 56 110" fill="#CCCCCC"/><path d="M 68 152 L 59 154 Q 57 155 56 155 L 56 145 Q 66 143 77 141 Q 85 138 89 141 Q 93 143 94 145 L 86 151" fill="#CCCCCC"/><path d="M 151 164 L 144 179 Q 136 198 121 214 Q 111 226 95 237 Q 89 241 85 241 Q 81 241 82 239 Q 82 237 87 234 Q 117 207 128 180 Q 142 149 144 122 Q 148 83 147 64 Q 147 50 140 40 Q 136 34 142 32 Q 146 32 159 38 L 163 48 Q 162 51 161 87 L 160 96 Q 157 129 156 135 L 155 143" fill="#CCCCCC"/><path d="M 159 38 Q 184 35 200 26 Q 204 24 210 27 Q 222 31 228 37 L 204 43 Q 202 40 196 41 Q 163 48 163 48" fill="#CCCCCC"/><path d="M 228 37 Q 232 41 228 47 Q 224 55 224 73 Q 224 158 228 210 Q 228 227 215 242 Q 212 245 209 244 Q 205 242 201 236 L 204 212 Q 206 208 207 200 Q 210 147 207 58 Q 208 46 204 43" fill="#CCCCCC"/><path d="M 201 236 Q 191 225 175 210 Q 174 207 181 209 Q 188 211 196 212 Q 202 214 204 212" fill="#CCCCCC"/><path d="M 161 87 Q 164 86 166 86 Q 186 81 190 82 Q 197 84 198 86 Q 200 89 197 90 Q 197 90 197 91 Q 182 96 160 96" fill="#CCCCCC"/><path d="M 156 135 Q 161 134 167 133 Q 186 129 191 130 Q 198 132 200 134 Q 200 136 198 138 Q 198 138 198 138 Q 168 145 155 143" fill="#CCCCCC"/><path d="M 56 155 Q 54 166 52 170 Q 49 173 47 170 L 46 169 Q 37 157 43 134 Q 48 75 41 62 Q 40 60 40 58 Q 38 54 40 53 Q 44 51 52 57 Q 52 57 52 57 L 58 64 Q 58 66 58 69 Q 57 72 56 102 L 56 110 Q 56 128 56 145" fill="#000000" /><path d="M 52 57 Q 78 52 89 46 Q 93 44 97 46 Q 109 52 113 56 L 94 59 Q 92 58 67 63 Q 61 64 58 64" fill="#240000" /><path d="M 94 145 Q 97 139 97 122 Q 99 64 94 59 L 113 56 Q 115 59 113 62 Q 109 66 109 74 Q 110 119 112 143 Q 113 154 109 163 Q 105 171 101 171 Q 99 171 97 167" fill="#240000" /><path d="M 94 145 L 97 167 Q 92 159 86 151" fill="#240000" /><path d="M 56 102 Q 67 96 77 97 Q 84 97 87 101 Q 89 105 83 106 Q 72 108 56 110" fill="#480000" /><path d="M 68 152 L 59 154 Q 57 155 56 155 L 56 145 Q 66 143 77 141 Q 85 138 89 141 Q 93 143 94 145 L 86 151" fill="#6d0000" /><path d="M 151 164 L 144 179 Q 136 198 121 214 Q 111 226 95 237 Q 89 241 85 241 Q 81 241 82 239 Q 82 237 87 234 Q 117 207 128 180 Q 142 149 144 122 Q 148 83 147 64 Q 147 50 140 40 Q 136 34 142 32 Q 146 32 159 38 L 163 48 Q 162 51 161 87 L 160 96 Q 157 129 156 135 L 155 143" fill="#910000" /><path d="M 159 38 Q 184 35 200 26 Q 204 24 210 27 Q 222 31 228 37 L 204 43 Q 202 40 196 41 Q 163 48 163 48" fill="#b60000" /><path d="M 228 37 Q 232 41 228 47 Q 224 55 224 73 Q 224 158 228 210 Q 228 227 215 242 Q 212 245 209 244 Q 205 242 201 236 L 204 212 Q 206 208 207 200 Q 210 147 207 58 Q 208 46 204 43" fill="#b60000" /><path d="M 201 236 Q 191 225 175 210 Q 174 207 181 209 Q 188 211 196 212 Q 202 214 204 212" fill="#b60000" /><path d="M 161 87 Q 164 86 166 86 Q 186 81 190 82 Q 197 84 198 86 Q 200 89 197 90 Q 197 90 197 91 Q 182 96 160 96" fill="#da0000" /><path d="M 156 135 Q 161 134 167 133 Q 186 129 191 130 Q 198 132 200 134 Q 200 136 198 138 Q 198 138 198 138 Q 168 145 155 143" fill="#ff0000" /></svg>