<svg xmlns="http://www.w3.org/2000/svg" xmlns:xlink="http://www.w3.org/1999/xlink" width="270" height="270"><path d="M 0 0 L 270 270 M 270 0 L 0 270 M 135 0 L 135 270 M 0 135 L 270 135" stroke="#CCCCCC" /><path d="M 36 196 L 33 200 Q 30 203 28 200 Q 19 188 22 175 Q 27 156 27 115 Q 27 91 21 69 Q 20 66 22 65 Q 24 64 27 65 Q 32 67 34 69 L 39 76 Q 39 78 38 80 Q 38 83 37 122 L 37 132 Q 37 148 37 169 Q 37 175 37 179 L 36 189" fill="#CCCCCC"/><path d="M 63 73 Q 61 71 55 73 Q 42 76 39 76 L 34 69 Q 45 66 57 60 Q 62 57 69 60 Q 83 65 85 67" fill="#CCCCCC"/><path d="M 65 172 Q 67 143 66 89 Q 66 76 63 73 L 85 67 Q 87 70 84 75 Q 80 82 80 96 Q 81 148 82 172 Q 82 184 79 193 Q 75 202 72 202 Q 70 202 66 196" fill="#CCCCCC"/><path d="M 60 178 Q 66 179 65 172 L 66 196 Q 62 191 60 187" fill="#CCCCCC"/><path d="M 37 122 Q 46 119 52 119 Q 59 120 62 123 Q 65 126 58 128 Q 49 129 37 132" fill="#CCCCCC"/><path d="M 37 179 Q 53 174 58 176 Q 59 177 60 178 L 60 187 Q 44 187 37 189 Q 36 189 36 189" fill="#CCCCCC"/><path d="M 142 88 Q 140 88 139 89 Q 123 92 112 86 Q 105 81 115 80 Q 129 79 142 76 L 153 73 Q 173 67 180 68 Q 188 70 190 73 Q 191 76 189 78 Q 188 79 178 81 Q 165 83 152 86" fill="#CCCCCC"/><path d="M 136 127 Q 121 129 109 133 Q 99 136 92 129 Q 88 126 93 125 Q 118 120 140 116 L 152 114 Q 173 109 186 106 Q 198 101 212 111 Q 217 114 216 117 Q 214 120 201 120 Q 171 121 152 124" fill="#CCCCCC"/><path d="M 151 221 L 152 232 Q 152 240 149 247 Q 146 252 145 253 Q 143 255 141 254 Q 139 253 137 248 Q 130 233 133 222 Q 136 210 138 199 Q 139 191 140 147 L 142 116 Q 142 108 142 88 L 142 76 Q 142 62 141 51 Q 141 37 132 23 Q 130 19 131 18 Q 137 14 143 18 Q 158 27 159 29 Q 160 33 158 37 Q 153 52 153 73 L 152 86 Q 152 101 152 114 L 152 124 Q 152 127 152 129 L 152 141" fill="#CCCCCC"/><path d="M 140 147 Q 137 151 133 159 Q 105 201 75 215 Q 72 217 70 216 Q 67 216 70 213 Q 72 210 74 209 Q 121 164 136 127 L 140 116 Q 141 116 142 116" fill="#CCCCCC"/><path d="M 152 129 Q 170 149 186 163 Q 206 183 246 200 Q 250 202 250 204 Q 249 205 246 206 Q 238 207 209 208 Q 200 208 195 202 Q 171 170 152 141" fill="#CCCCCC"/><path d="M 36 196 L 33 200 Q 30 203 28 200 Q 19 188 22 175 Q 27 156 27 115 Q 27 91 21 69 Q 20 66 22 65 Q 24 64 27 65 Q 32 67 34 69 L 39 76 Q 39 78 38 80 Q 38 83 37 122 L 37 132 Q 37 148 37 169 Q 37 175 37 179 L 36 189" fill="#000000" /><path d="M 63 73 Q 61 71 55 73 Q 42 76 39 76 L 34 69 Q 45 66 57 60 Q 62 57 69 60 Q 83 65 85 67" fill="#1f0000" /><path d="M 65 172 Q 67 143 66 89 Q 66 76 63 73 L 85 67 Q 87 70 84 75 Q 80 82 80 96 Q 81 148 82 172 Q 82 184 79 193 Q 75 202 72 202 Q 70 202 66 196" fill="#1f0000" /><path d="M 60 178 Q 66 179 65 172 L 66 196 Q 62 191 60 187" fill="#1f0000" /><path d="M 37 122 Q 46 119 52 119 Q 59 120 62 123 Q 65 126 58 128 Q 49 129 37 132" fill="#3f0000" /><path d="M 37 179 Q 53 174 58 176 Q 59 177 60 178 L 60 187 Q 44 187 37 189 Q 36 189 36 189" fill="#5f0000" /><path d="M 142 88 Q 140 88 139 89 Q 123 92 112 86 Q 105 81 115 80 Q 129 79 142 76 L 153 73 Q 173 67 180 68 Q 188 70 190 73 Q 191 76 189 78 Q 188 79 178 81 Q 165 83 152 86" fill="#7f0000" /><path d="M 136 127 Q 121 129 109 133 Q 99 136 92 129 Q 88 126 93 125 Q 118 120 140 116 L 152 114 Q 173 109 186 106 Q 198 101 212 111 Q 217 114 216 117 Q 214 120 201 120 Q 171 121 152 124" fill="#9f0000" /><path d="M 151 221 L 152 232 Q 152 240 149 247 Q 146 252 145 253 Q 143 255 141 254 Q 139 253 137 248 Q 130 233 133 222 Q 136 210 138 199 Q 139 191 140 147 L 142 116 Q 142 108 142 88 L 142 76 Q 142 62 141 51 Q 141 37 132 23 Q 130 19 131 18 Q 137 14 143 18 Q 158 27 159 29 Q 160 33 158 37 Q 153 52 153 73 L 152 86 Q 152 101 152 114 L 152 124 Q 152 127 152 129 L 152 141" fill="#bf0000" /><path d="M 140 147 Q 137 151 133 159 Q 105 201 75 215 Q 72 217 70 216 Q 67 216 70 213 Q 72 210 74 209 Q 121 164 136 127 L 140 116 Q 141 116 142 116" fill="#df0000" /><path d="M 152 129 Q 170 149 186 163 Q 206 183 246 200 Q 250 202 250 204 Q 249 205 246 206 Q 238 207 209 208 Q 200 208 195 202 Q 171 170 152 141" fill="#ff0000" /></svg>