<svg xmlns="http://www.w3.org/2000/svg" xmlns:xlink="http://www.w3.org/1999/xlink" width="270" height="270"><path d="M 0 0 L 270 270 M 270 0 L 0 270 M 135 0 L 135 270 M 0 135 L 270 135" stroke="#CCCCCC" /><path d="M 51 181 L 49 184 Q 46 188 43 184 Q 32 170 38 157 Q 39 149 41 112 Q 40 81 35 67 Q 34 63 36 62 Q 38 61 41 62 Q 46 64 49 66 L 53 73 Q 53 75 53 78 Q 53 81 53 116 L 52 124 Q 52 165 52 168 L 52 177" fill="#000000" /><path d="M 83 67 Q 80 65 72 67 Q 54 73 53 73 L 49 66 Q 62 63 77 56 Q 82 53 88 55 Q 101 59 103 61" fill="#1f0000" /><path d="M 86 163 Q 88 134 86 83 Q 86 70 83 67 L 103 61 Q 105 64 102 69 Q 96 80 101 151 Q 102 173 99 181 Q 96 190 93 190 Q 91 190 87 185" fill="#1f0000" /><path d="M 84 168 Q 87 168 86 163 L 87 185 Q 84 180 80 175" fill="#1f0000" /><path d="M 53 116 Q 55 115 56 114 Q 67 110 73 111 Q 80 111 83 115 Q 85 119 79 120 Q 68 121 52 124" fill="#3f0000" /><path d="M 52 168 Q 60 166 69 164 Q 76 163 80 165 Q 83 167 84 168 L 80 175 Q 62 175 53 177 Q 52 177 52 177" fill="#5f0000" /><path d="M 135 87 Q 135 87 135 88 Q 114 117 105 120 Q 102 121 102 117 Q 103 116 105 113 Q 106 111 107 110 Q 154 37 144 20 Q 142 14 147 13 Q 152 13 160 17 Q 168 22 169 26 Q 171 29 168 32 Q 164 38 159 49 Q 149 66 140 80" fill="#7f0000" /><path d="M 153 90 Q 142 91 135 87 L 140 80 Q 167 76 196 68 Q 217 60 226 62 Q 234 64 236 68 Q 237 70 235 72 Q 232 74 219 77 Q 191 83 164 89" fill="#9f0000" /><path d="M 169 203 L 170 234 Q 171 243 167 252 Q 166 256 162 256 Q 161 255 160 255 Q 146 236 150 223 Q 151 218 154 189 Q 159 103 153 90 L 164 89 Q 173 95 172 99 Q 171 107 170 122 L 170 130 Q 169 142 169 167 L 169 175" fill="#bf0000" /><path d="M 170 122 Q 179 121 187 119 Q 194 117 201 115 Q 208 112 216 113 Q 224 114 225 117 Q 226 119 225 121 Q 224 122 217 124 Q 204 127 191 130 Q 180 133 170 130" fill="#df0000" /><path d="M 169 167 Q 179 166 189 164 Q 198 162 206 159 Q 214 156 222 158 Q 230 160 232 163 Q 233 166 231 167 Q 229 169 203 173 Q 181 177 169 175" fill="#ff0000" /></svg>