<svg xmlns="http://www.w3.org/2000/svg" xmlns:xlink="http://www.w3.org/1999/xlink" width="270" height="270"><path d="M 0 0 L 270 270 M 270 0 L 0 270 M 135 0 L 135 270 M 0 135 L 270 135" stroke="#CCCCCC" /><path d="M 36 188 L 32 192 Q 30 196 27 192 Q 19 181 22 168 Q 25 155 26 144 Q 31 69 23 53 Q 21 50 21 47 Q 19 44 21 43 Q 24 42 26 43 Q 32 45 35 48 L 38 55 Q 38 56 38 58 Q 37 62 37 110 L 37 119 Q 36 137 36 159 Q 36 168 36 174 L 35 183" fill="#000000" /><path d="M 35 48 Q 44 44 56 39 Q 60 36 66 38 Q 79 42 81 44 L 61 50 Q 59 48 53 50 Q 46 52 40 54 Q 38 54 38 55" fill="#0b0000" /><path d="M 64 164 Q 66 130 65 68 Q 65 54 61 50 L 81 44 Q 83 47 81 51 Q 77 59 77 74 Q 78 131 80 158 Q 82 171 78 181 Q 74 191 70 191 Q 69 192 65 186" fill="#0b0000" /><path d="M 59 170 Q 65 171 64 164 L 65 186 Q 62 182 59 178" fill="#0b0000" /><path d="M 37 110 Q 45 107 51 107 Q 56 107 59 110 Q 61 113 56 114 Q 48 116 37 119" fill="#170000" /><path d="M 36 174 Q 52 167 57 170 Q 57 170 58 170 Q 58 170 59 170 L 59 178 Q 43 180 35 183" fill="#220000" /><path d="M 112 32 L 119 31 Q 135 24 141 25 Q 147 26 149 29 Q 150 30 148 32 Q 147 32 128 38 Q 110 43 103 39 Q 97 36 105 34" fill="#2e0000" /><path d="M 106 70 L 108 89 Q 109 98 107 101 Q 106 104 102 99 Q 99 96 99 90 Q 97 72 92 61 Q 91 57 92 56 Q 93 55 95 56 Q 101 57 104 59 L 106 65" fill="#390000" /><path d="M 104 59 L 116 55 Q 133 48 135 48 Q 143 51 148 55 L 133 57 Q 132 55 129 56 Q 107 64 106 65" fill="#450000" /><path d="M 148 55 Q 149 57 148 60 Q 146 62 146 69 Q 145 84 143 87 Q 140 92 139 92 L 138 92 Q 133 88 134 80 Q 136 60 133 57" fill="#450000" /><path d="M 112 74 L 112 72 Q 112 70 114 70 Q 116 71 122 74 Q 126 75 128 78 Q 129 82 129 84 Q 127 87 125 87 Q 121 86 113 75" fill="#510000" /><path d="M 171 25 L 178 24 Q 200 17 203 18 Q 209 19 211 21 Q 212 23 210 25 Q 210 26 204 27 Q 195 29 187 31 Q 167 35 160 31 Q 155 28 162 27" fill="#5c0000" /><path d="M 170 55 L 170 60 Q 169 86 169 88 Q 168 91 165 86 Q 162 82 162 77 Q 161 61 157 50 Q 156 47 157 46 Q 158 45 160 46 Q 163 46 165 48 L 170 53" fill="#680000" /><path d="M 165 48 Q 188 42 195 39 Q 200 37 202 38 Q 211 42 216 46 L 199 48 Q 198 46 194 46 Q 179 50 170 53" fill="#730000" /><path d="M 216 46 Q 217 48 216 51 Q 214 54 214 63 Q 213 80 211 84 Q 208 90 206 90 Q 204 90 202 85 Q 200 81 201 76 Q 203 52 199 48" fill="#730000" /><path d="M 176 64 L 176 63 Q 177 61 179 61 Q 188 63 192 70 Q 193 73 193 76 Q 192 79 189 78 Q 185 77 177 66" fill="#7f0000" /><path d="M 160 107 Q 159 106 158 106 Q 155 102 152 99 Q 148 95 147 93 Q 147 90 148 90 Q 149 90 152 90 Q 164 93 166 98 Q 167 103 166 105" fill="#8b0000" /><path d="M 161 116 Q 153 117 145 118 Q 120 122 116 122 L 114 115 Q 135 112 153 109 Q 156 108 160 107 L 166 105 Q 176 102 186 99 Q 192 97 198 98 Q 204 100 205 102 Q 205 104 204 105 Q 202 107 188 110 Q 176 112 165 115" fill="#960000" /><path d="M 116 122 Q 115 123 114 130 Q 107 176 93 204 Q 90 210 87 215 Q 71 237 65 238 Q 62 238 63 236 Q 64 235 65 233 Q 83 205 88 191 Q 98 163 100 135 Q 101 119 98 112 Q 96 109 99 108 Q 102 107 106 109 Q 111 112 114 115" fill="#a20000" /><path d="M 193 141 Q 190 139 173 143 L 162 145 Q 153 146 146 148 L 136 150 Q 127 152 122 150 Q 118 149 117 147 Q 117 145 120 144 Q 127 144 135 143 L 146 141 Q 162 138 162 138 L 174 135 Q 194 127 198 130 Q 209 136 212 139" fill="#ad0000" /><path d="M 188 156 Q 190 151 193 145 Q 194 142 193 141 L 212 139 Q 215 143 211 146 Q 204 149 199 159" fill="#ad0000" /><path d="M 146 148 Q 146 158 146 165 L 138 166 Q 136 156 136 150 L 135 143 Q 133 137 130 133 Q 129 130 130 129 Q 132 128 135 129 Q 140 131 144 134 Q 146 136 146 140 Q 146 140 146 141" fill="#b90000" /><path d="M 173 143 Q 170 151 168 160 L 161 162 Q 162 153 162 145 L 162 138 Q 163 123 161 119 Q 160 117 161 116 L 165 115 Q 170 116 175 120 Q 179 123 178 125 Q 177 126 176 128 Q 175 131 174 134 Q 174 135 174 135" fill="#c50000" /><path d="M 163 169 Q 141 171 129 174 Q 121 174 119 172 Q 117 168 121 168 Q 129 167 138 166 L 146 165 Q 153 163 161 162 L 168 160 Q 177 158 186 156 Q 187 156 188 156 L 199 159 Q 202 161 202 162 Q 202 164 200 164 Q 182 166 168 168" fill="#d00000" /><path d="M 129 196 L 131 196 Q 135 195 139 194 Q 145 191 151 192 Q 157 193 158 196 Q 159 197 157 199 L 157 199 Q 137 205 127 204 Q 126 204 126 204 L 127 197" fill="#dc0000" /><path d="M 126 204 Q 124 210 122 221 Q 122 224 123 225 L 116 243 Q 113 246 110 245 Q 105 241 103 239 Q 102 236 105 232 Q 108 229 109 226 Q 121 203 113 187 Q 110 183 113 182 Q 115 181 118 183 Q 123 186 127 190 Q 128 192 127 195 Q 127 196 127 197" fill="#e70000" /><path d="M 123 225 Q 124 226 145 218 Q 148 217 150 217 Q 152 218 150 219 Q 148 223 141 226 Q 121 236 116 243" fill="#e70000" /><path d="M 204 177 L 205 171 Q 205 168 208 169 Q 211 169 215 174 Q 219 179 220 183 Q 221 188 216 188 Q 210 188 205 190 Q 184 196 175 198 L 175 192" fill="#f30000" /><path d="M 175 198 Q 174 215 177 222 L 173 237 Q 168 232 167 226 Q 164 218 166 189 Q 166 181 163 173 Q 162 169 163 169 L 168 168 Q 173 170 176 173 Q 178 175 177 179 Q 176 186 175 192" fill="#ff0000" /><path d="M 177 222 Q 179 226 184 229 Q 200 235 216 231 Q 224 229 226 226 L 248 227 Q 250 233 246 237 Q 238 243 230 245 Q 228 245 227 246 Q 190 252 173 237" fill="#ff0000" /><path d="M 226 226 Q 230 221 238 203 Q 239 199 241 200 Q 242 202 242 205 Q 245 222 248 227" fill="#ff0000" /></svg>