<svg xmlns="http://www.w3.org/2000/svg" xmlns:xlink="http://www.w3.org/1999/xlink" width="270" height="270"><path d="M 0 0 L 270 270 M 270 0 L 0 270 M 135 0 L 135 270 M 0 135 L 270 135" stroke="#CCCCCC" /><path d="M 122 57 Q 110 59 99 61 Q 90 63 84 60 Q 79 58 78 56 Q 78 54 82 53 Q 103 52 122 50 L 137 47 Q 150 44 164 39 Q 169 37 174 39 Q 188 47 192 51 L 166 54 Q 163 50 156 52 Q 145 53 136 55" fill="#CCCCCC"/><path d="M 166 70 Q 168 57 166 54 L 192 51 Q 196 56 191 60 Q 187 63 184 68 L 178 79 Q 174 87 171 100 L 158 96 Q 160 88 163 80" fill="#CCCCCC"/><path d="M 123 83 Q 118 83 115 84 Q 76 88 42 97 Q 38 98 32 97 Q 28 95 24 91 Q 19 86 25 86 Q 77 81 122 76 L 135 74 Q 151 72 166 70 L 184 68 Q 199 65 212 63 Q 230 58 245 70 Q 250 74 248 77 Q 247 79 241 79 Q 184 79 178 79 L 163 80 Q 147 80 135 82" fill="#CCCCCC"/><path d="M 123 111 Q 102 114 89 116 Q 85 117 83 116 Q 80 115 79 113 Q 76 108 81 108 Q 100 106 123 103 L 134 101 Q 157 96 158 96 L 171 100 Q 174 103 174 104 Q 174 107 171 107 Q 150 108 134 110" fill="#CCCCCC"/><path d="M 122 138 Q 112 139 102 141 Q 94 142 90 139 Q 85 135 90 134 Q 105 131 122 128 L 133 126 Q 154 121 162 123 Q 169 124 172 128 Q 174 132 167 133 Q 151 134 133 137" fill="#CCCCCC"/><path d="M 121 154 Q 121 146 122 138 L 122 128 Q 122 119 123 111 L 123 103 Q 123 92 123 83 L 122 76 Q 122 66 122 57 L 122 50 Q 121 46 121 43 Q 121 35 113 24 Q 111 20 113 18 Q 116 16 120 16 Q 126 17 136 22 Q 142 26 140 29 Q 137 42 137 47 L 136 55 Q 136 57 136 59 Q 135 66 135 74 L 135 82 Q 134 91 134 101 L 134 110 Q 133 118 133 126 L 133 137 Q 133 144 132 152" fill="#CCCCCC"/><path d="M 171 146 L 195 142 Q 204 139 217 150 Q 221 153 220 156 Q 219 158 214 158 Q 114 158 61 173 Q 56 174 51 173 Q 47 171 43 168 Q 40 164 45 163 Q 86 158 121 154 L 132 152" fill="#CCCCCC"/><path d="M 103 246 L 102 249 Q 100 253 95 248 Q 90 242 89 233 Q 85 205 76 188 Q 74 183 76 182 Q 76 180 80 181 Q 88 183 92 184 L 95 192 Q 95 197 98 210 L 99 216 Q 102 233 102 234 L 103 242" fill="#CCCCCC"/><path d="M 92 184 Q 146 174 158 173 Q 176 169 180 171 Q 191 178 196 183 L 170 184 Q 166 181 158 182 Q 118 186 95 192" fill="#CCCCCC"/><path d="M 163 232 Q 166 228 172 192 Q 173 186 170 184 L 196 183 Q 198 186 195 190 Q 189 197 186 205 Q 179 239 175 246 Q 171 251 169 250 Q 164 247 158 239" fill="#CCCCCC"/><path d="M 98 210 Q 142 200 148 201 Q 154 203 157 206 Q 159 210 153 210 Q 132 212 104 216 Q 100 217 99 216" fill="#CCCCCC"/><path d="M 102 234 Q 121 232 145 227 Q 153 225 157 228 Q 161 230 163 232 L 158 239 Q 158 238 158 238 Q 125 239 109 242 Q 105 243 103 242" fill="#CCCCCC"/><path d="M 122 57 Q 110 59 99 61 Q 90 63 84 60 Q 79 58 78 56 Q 78 54 82 53 Q 103 52 122 50 L 137 47 Q 150 44 164 39 Q 169 37 174 39 Q 188 47 192 51 L 166 54 Q 163 50 156 52 Q 145 53 136 55" fill="#000000" /><path d="M 166 70 Q 168 57 166 54 L 192 51 Q 196 56 191 60 Q 187 63 184 68 L 178 79 Q 174 87 171 100 L 158 96 Q 160 88 163 80" fill="#000000" /><path d="M 123 83 Q 118 83 115 84 Q 76 88 42 97 Q 38 98 32 97 Q 28 95 24 91 Q 19 86 25 86 Q 77 81 122 76 L 135 74 Q 151 72 166 70 L 184 68 Q 199 65 212 63 Q 230 58 245 70 Q 250 74 248 77 Q 247 79 241 79 Q 184 79 178 79 L 163 80 Q 147 80 135 82" fill="#1c0000" /><path d="M 123 111 Q 102 114 89 116 Q 85 117 83 116 Q 80 115 79 113 Q 76 108 81 108 Q 100 106 123 103 L 134 101 Q 157 96 158 96 L 171 100 Q 174 103 174 104 Q 174 107 171 107 Q 150 108 134 110" fill="#380000" /><path d="M 122 138 Q 112 139 102 141 Q 94 142 90 139 Q 85 135 90 134 Q 105 131 122 128 L 133 126 Q 154 121 162 123 Q 169 124 172 128 Q 174 132 167 133 Q 151 134 133 137" fill="#550000" /><path d="M 121 154 Q 121 146 122 138 L 122 128 Q 122 119 123 111 L 123 103 Q 123 92 123 83 L 122 76 Q 122 66 122 57 L 122 50 Q 121 46 121 43 Q 121 35 113 24 Q 111 20 113 18 Q 116 16 120 16 Q 126 17 136 22 Q 142 26 140 29 Q 137 42 137 47 L 136 55 Q 136 57 136 59 Q 135 66 135 74 L 135 82 Q 134 91 134 101 L 134 110 Q 133 118 133 126 L 133 137 Q 133 144 132 152" fill="#710000" /><path d="M 171 146 L 195 142 Q 204 139 217 150 Q 221 153 220 156 Q 219 158 214 158 Q 114 158 61 173 Q 56 174 51 173 Q 47 171 43 168 Q 40 164 45 163 Q 86 158 121 154 L 132 152" fill="#8d0000" /><path d="M 103 246 L 102 249 Q 100 253 95 248 Q 90 242 89 233 Q 85 205 76 188 Q 74 183 76 182 Q 76 180 80 181 Q 88 183 92 184 L 95 192 Q 95 197 98 210 L 99 216 Q 102 233 102 234 L 103 242" fill="#aa0000" /><path d="M 92 184 Q 146 174 158 173 Q 176 169 180 171 Q 191 178 196 183 L 170 184 Q 166 181 158 182 Q 118 186 95 192" fill="#c60000" /><path d="M 163 232 Q 166 228 172 192 Q 173 186 170 184 L 196 183 Q 198 186 195 190 Q 189 197 186 205 Q 179 239 175 246 Q 171 251 169 250 Q 164 247 158 239" fill="#c60000" /><path d="M 98 210 Q 142 200 148 201 Q 154 203 157 206 Q 159 210 153 210 Q 132 212 104 216 Q 100 217 99 216" fill="#e20000" /><path d="M 102 234 Q 121 232 145 227 Q 153 225 157 228 Q 161 230 163 232 L 158 239 Q 158 238 158 238 Q 125 239 109 242 Q 105 243 103 242" fill="#ff0000" /></svg>