<svg xmlns="http://www.w3.org/2000/svg" xmlns:xlink="http://www.w3.org/1999/xlink" width="270" height="270"><path d="M 0 0 L 270 270 M 270 0 L 0 270 M 135 0 L 135 270 M 0 135 L 270 135" stroke="#CCCCCC" /><path d="M 72 112 Q 64 114 56 116 Q 41 121 29 116 Q 22 112 31 110 Q 54 106 78 98 L 89 94 Q 101 88 109 89 Q 117 91 119 93 Q 120 96 118 98 Q 117 99 89 107" fill="#CCCCCC"/><path d="M 86 214 L 86 224 Q 86 233 84 239 Q 81 244 79 245 Q 77 248 76 246 Q 73 245 72 240 Q 65 224 68 214 Q 74 195 75 175 Q 75 153 76 133 L 78 98 Q 78 97 78 97 Q 78 75 78 56 Q 78 43 69 31 Q 68 26 69 25 Q 75 21 81 26 Q 88 31 92 34 Q 99 38 95 45 Q 89 65 89 94 L 89 107 Q 88 121 88 134 L 88 138" fill="#CCCCCC"/><path d="M 76 133 Q 65 156 52 172 Q 23 206 17 206 Q 14 206 15 203 Q 58 148 72 112 L 78 98" fill="#CCCCCC"/><path d="M 88 134 Q 88 133 89 133 Q 92 132 107 138 Q 114 141 115 145 Q 117 152 116 155 Q 115 157 112 158 Q 109 158 106 155 Q 100 149 94 144 Q 90 140 88 138" fill="#CCCCCC"/><path d="M 147 108 Q 131 130 126 132 Q 123 134 123 130 Q 123 129 125 126 Q 137 105 145 87 Q 161 47 154 37 Q 151 31 156 30 Q 161 29 169 33 Q 178 38 179 41 Q 181 44 179 48 Q 175 53 171 63 Q 164 80 149 104" fill="#CCCCCC"/><path d="M 172 112 Q 159 114 147 108 L 149 104 Q 150 103 152 103 Q 170 100 190 94 Q 211 85 219 86 Q 227 87 229 90 Q 230 93 228 95 Q 227 96 181 109" fill="#CCCCCC"/><path d="M 160 204 L 145 212 Q 117 224 108 222 Q 105 221 107 220 Q 108 219 111 218 Q 145 204 162 185 L 168 176 Q 177 160 177 137 Q 176 122 172 112 L 181 109 Q 188 112 194 116 Q 196 118 195 121 Q 194 126 193 133 Q 190 166 178 185 L 170 195" fill="#CCCCCC"/><path d="M 162 185 Q 153 174 144 162 Q 138 153 128 147 Q 126 146 127 145 Q 129 142 135 142 Q 140 143 143 148 Q 157 164 168 176 L 178 185 Q 184 191 189 195 Q 207 212 252 227 Q 255 228 254 230 Q 253 233 248 233 Q 238 234 211 235 Q 204 236 199 230 Q 185 214 170 195" fill="#CCCCCC"/><path d="M 72 112 Q 64 114 56 116 Q 41 121 29 116 Q 22 112 31 110 Q 54 106 78 98 L 89 94 Q 101 88 109 89 Q 117 91 119 93 Q 120 96 118 98 Q 117 99 89 107" fill="#000000" /><path d="M 86 214 L 86 224 Q 86 233 84 239 Q 81 244 79 245 Q 77 248 76 246 Q 73 245 72 240 Q 65 224 68 214 Q 74 195 75 175 Q 75 153 76 133 L 78 98 Q 78 97 78 97 Q 78 75 78 56 Q 78 43 69 31 Q 68 26 69 25 Q 75 21 81 26 Q 88 31 92 34 Q 99 38 95 45 Q 89 65 89 94 L 89 107 Q 88 121 88 134 L 88 138" fill="#240000" /><path d="M 76 133 Q 65 156 52 172 Q 23 206 17 206 Q 14 206 15 203 Q 58 148 72 112 L 78 98" fill="#480000" /><path d="M 88 134 Q 88 133 89 133 Q 92 132 107 138 Q 114 141 115 145 Q 117 152 116 155 Q 115 157 112 158 Q 109 158 106 155 Q 100 149 94 144 Q 90 140 88 138" fill="#6d0000" /><path d="M 147 108 Q 131 130 126 132 Q 123 134 123 130 Q 123 129 125 126 Q 137 105 145 87 Q 161 47 154 37 Q 151 31 156 30 Q 161 29 169 33 Q 178 38 179 41 Q 181 44 179 48 Q 175 53 171 63 Q 164 80 149 104" fill="#910000" /><path d="M 172 112 Q 159 114 147 108 L 149 104 Q 150 103 152 103 Q 170 100 190 94 Q 211 85 219 86 Q 227 87 229 90 Q 230 93 228 95 Q 227 96 181 109" fill="#b60000" /><path d="M 160 204 L 145 212 Q 117 224 108 222 Q 105 221 107 220 Q 108 219 111 218 Q 145 204 162 185 L 168 176 Q 177 160 177 137 Q 176 122 172 112 L 181 109 Q 188 112 194 116 Q 196 118 195 121 Q 194 126 193 133 Q 190 166 178 185 L 170 195" fill="#da0000" /><path d="M 162 185 Q 153 174 144 162 Q 138 153 128 147 Q 126 146 127 145 Q 129 142 135 142 Q 140 143 143 148 Q 157 164 168 176 L 178 185 Q 184 191 189 195 Q 207 212 252 227 Q 255 228 254 230 Q 253 233 248 233 Q 238 234 211 235 Q 204 236 199 230 Q 185 214 170 195" fill="#ff0000" /></svg>