<svg xmlns="http://www.w3.org/2000/svg" xmlns:xlink="http://www.w3.org/1999/xlink" width="270" height="270"><path d="M 0 0 L 270 270 M 270 0 L 0 270 M 135 0 L 135 270 M 0 135 L 270 135" stroke="#CCCCCC" /><path d="M 68 100 Q 59 102 51 104 Q 39 108 26 103 Q 20 99 28 97 Q 47 94 72 87 L 83 83 Q 95 77 103 78 Q 111 80 113 82 Q 114 85 112 86 Q 111 87 83 96" fill="#000000" /><path d="M 81 212 L 81 223 Q 82 231 79 237 Q 76 243 74 244 Q 72 246 71 244 Q 69 244 67 239 Q 60 223 63 212 Q 67 201 68 189 Q 69 185 71 122 L 72 87 Q 71 69 71 54 Q 71 41 62 28 Q 61 24 62 23 Q 68 18 74 23 Q 88 32 90 35 Q 91 38 88 42 Q 83 58 83 83 L 83 96 Q 82 113 82 128 L 82 137" fill="#1c0000" /><path d="M 71 122 Q 51 160 19 186 Q 17 188 15 188 Q 13 188 14 185 Q 54 135 68 100 L 72 87" fill="#380000" /><path d="M 82 128 Q 90 129 97 130 Q 105 132 107 137 Q 109 143 109 146 Q 108 149 106 149 Q 103 150 100 148 Q 85 137 82 137" fill="#550000" /><path d="M 180 48 Q 177 47 173 48 Q 148 53 137 58 L 131 50 Q 155 43 169 40 Q 184 35 189 37 Q 202 44 207 48" fill="#710000" /><path d="M 173 109 Q 176 101 182 61 Q 183 50 180 48 L 207 48 Q 212 52 207 57 Q 197 65 194 79 Q 188 110 184 117 Q 182 121 178 122 Q 175 122 173 118 Q 173 117 173 117" fill="#710000" /><path d="M 135 85 Q 146 77 159 78 Q 165 79 168 83 Q 170 86 165 87 Q 137 92 135 92" fill="#8d0000" /><path d="M 136 114 Q 141 113 146 111 Q 167 105 173 109 L 173 117 Q 150 119 139 122 Q 137 123 136 123" fill="#aa0000" /><path d="M 136 136 Q 136 171 133 213 L 121 246 Q 118 251 115 249 Q 111 246 108 238 Q 106 232 109 228 Q 120 215 121 202 Q 132 83 116 51 Q 113 47 116 45 Q 118 44 123 45 Q 127 47 131 50 L 137 58 Q 136 72 135 85 L 135 92 Q 136 102 136 114 L 136 123 Q 136 126 136 129" fill="#c60000" /><path d="M 133 213 Q 133 216 137 214 Q 167 199 170 199 Q 173 199 172 201 Q 170 204 166 207 Q 126 239 121 246" fill="#c60000" /><path d="M 169 155 L 183 139 Q 196 125 195 117 Q 194 114 198 114 Q 201 113 207 117 Q 213 121 217 125 Q 220 129 214 132 Q 208 134 203 138 Q 176 156 172 158 Q 171 158 171 158 L 169 156" fill="#e20000" /><path d="M 171 158 Q 180 166 188 171 Q 208 187 254 200 Q 256 201 255 203 Q 254 205 250 206 Q 229 212 211 212 Q 202 209 147 146 Q 142 140 136 136 L 136 129 Q 140 129 143 133 Q 157 146 169 156" fill="#ff0000" /></svg>