<svg xmlns="http://www.w3.org/2000/svg" xmlns:xlink="http://www.w3.org/1999/xlink" width="270" height="270"><path d="M 0 0 L 270 270 M 270 0 L 0 270 M 135 0 L 135 270 M 0 135 L 270 135" stroke="#CCCCCC" /><path d="M 70 105 Q 63 107 58 109 Q 39 113 29 108 Q 22 104 32 102 Q 41 100 74 91 L 86 86 Q 93 84 100 85 Q 108 86 110 89 Q 111 91 109 93 Q 107 95 98 98 Q 91 99 86 101" fill="#000000" /><path d="M 84 204 L 85 214 Q 85 223 82 229 Q 79 235 78 236 Q 75 238 74 236 Q 72 235 70 231 Q 69 229 69 227 Q 63 214 69 192 Q 73 176 73 129 L 74 91 Q 74 70 74 52 Q 74 40 66 27 Q 64 23 65 22 Q 71 18 77 22 Q 85 27 89 30 Q 96 35 92 41 Q 86 60 86 86 L 86 101 Q 86 115 86 127 L 85 133" fill="#190000" /><path d="M 73 129 Q 63 149 52 162 Q 26 193 20 193 Q 18 193 19 191 Q 58 140 70 105 L 74 91" fill="#330000" /><path d="M 86 127 Q 86 127 87 127 Q 101 127 107 134 Q 110 138 110 142 Q 109 146 106 146 Q 99 147 85 133" fill="#4c0000" /><path d="M 130 39 L 130 36 Q 129 34 131 33 Q 133 32 137 34 L 137 34 Q 156 39 160 51 Q 160 55 158 58 Q 156 61 153 60 Q 145 57 134 43" fill="#660000" /><path d="M 193 26 L 191 22 Q 190 17 194 16 Q 201 16 207 20 Q 213 24 215 29 Q 217 32 212 34 Q 201 42 178 64 Q 176 66 174 65 Q 172 64 173 62 Q 185 43 191 31" fill="#7f0000" /><path d="M 161 83 Q 155 84 151 84 Q 135 87 132 85 Q 128 84 127 82 Q 127 79 131 79 Q 170 76 199 65 Q 204 63 209 65 Q 221 71 224 75 L 202 77 Q 199 75 170 81" fill="#990000" /><path d="M 224 75 Q 228 79 224 83 Q 217 87 211 99 L 198 99 Q 204 81 202 77" fill="#990000" /><path d="M 165 114 Q 150 116 141 118 Q 139 118 138 118 L 135 111 Q 149 108 165 106 L 177 103 Q 187 101 198 99 L 211 99 L 211 99 Q 218 104 218 105 Q 218 108 215 108 Q 193 110 176 112" fill="#b20000" /><path d="M 130 157 Q 125 161 122 160 Q 119 158 116 152 Q 114 148 116 143 Q 120 139 123 127 Q 124 118 121 111 Q 119 107 120 105 Q 123 103 126 105 Q 132 107 135 111 L 138 118 Q 135 121 134 136 Q 133 140 135 141" fill="#cc0000" /><path d="M 140 149 L 130 157 L 135 141 Q 140 142 148 140 Q 155 138 165 137 L 176 135 Q 181 134 208 130 Q 229 125 232 128 Q 241 133 248 140 L 225 142 Q 224 139 220 139 Q 215 138 176 144 L 159 147" fill="#cc0000" /><path d="M 248 140 Q 251 143 247 148 Q 238 157 236 169 Q 232 187 225 195 Q 220 199 217 198 L 219 172 Q 228 146 225 142" fill="#cc0000" /><path d="M 217 198 Q 213 198 211 195 Q 210 189 201 177 Q 196 171 203 173 Q 209 174 215 175 Q 218 176 219 172" fill="#cc0000" /><path d="M 165 137 Q 165 124 165 114 L 165 106 Q 162 86 161 83 L 170 81 Q 173 83 177 86 Q 179 88 178 91 Q 177 96 177 103 L 176 112 Q 176 122 176 135 L 176 144 Q 176 185 177 233 Q 178 241 175 250 Q 174 253 171 253 Q 169 252 166 247 Q 157 233 159 223 Q 163 215 165 163" fill="#e50000" /><path d="M 165 137 L 165 163 Q 163 165 160 169 Q 141 194 125 205 Q 107 216 102 214 Q 100 214 103 211 Q 144 178 159 147" fill="#ff0000" /></svg>