<svg xmlns="http://www.w3.org/2000/svg" xmlns:xlink="http://www.w3.org/1999/xlink" width="270" height="270"><path d="M 0 0 L 270 270 M 270 0 L 0 270 M 135 0 L 135 270 M 0 135 L 270 135" stroke="#CCCCCC" /><path d="M 74 110 Q 66 112 59 114 Q 52 117 45 116 Q 39 115 35 113 Q 28 109 37 107 Q 53 105 67 101 Q 72 99 78 97 L 90 93 Q 90 92 91 92 Q 99 88 106 89 Q 114 91 115 94 Q 116 96 115 98 Q 113 99 103 102 Q 96 104 89 106" fill="#CCCCCC"/><path d="M 87 230 L 85 236 Q 82 242 80 243 Q 78 245 76 243 Q 74 242 72 237 Q 70 231 68 225 Q 66 220 69 211 Q 74 193 76 172 Q 76 152 77 134 L 78 97 Q 78 96 79 95 Q 79 74 79 55 Q 79 42 70 30 Q 69 26 70 25 Q 75 20 81 25 Q 96 34 98 37 Q 98 40 96 44 Q 91 61 90 86 Q 90 89 90 93 L 89 106 Q 89 118 89 129 L 88 136 Q 87 211 87 222" fill="#CCCCCC"/><path d="M 77 134 Q 67 153 57 166 Q 42 184 29 196 Q 26 198 25 198 Q 22 198 23 195 Q 48 162 59 143 Q 68 128 74 110 L 78 97" fill="#CCCCCC"/><path d="M 89 129 Q 93 130 100 133 Q 105 134 108 138 Q 110 142 110 145 Q 109 149 106 149 Q 103 149 99 146 Q 94 141 88 136" fill="#CCCCCC"/><path d="M 128 43 L 129 42 Q 130 41 133 42 Q 139 43 142 45 L 145 53 Q 145 58 147 71 L 148 78 Q 148 83 149 89 Q 150 93 150 96 L 149 102 Q 149 105 148 106 Q 147 110 143 105 Q 139 99 139 91 Q 136 64 129 47" fill="#CCCCCC"/><path d="M 142 45 Q 147 43 152 42 Q 163 39 171 37 Q 178 35 183 34 Q 186 32 191 34 Q 202 40 206 43 L 182 46 Q 180 45 176 45 Q 156 49 145 53" fill="#CCCCCC"/><path d="M 206 43 Q 209 46 206 49 Q 201 56 199 63 Q 195 96 192 102 Q 189 108 187 106 Q 182 104 177 98 L 177 89 Q 180 90 181 90 Q 181 89 181 89 Q 184 83 186 53 Q 186 48 182 46" fill="#CCCCCC"/><path d="M 147 71 Q 149 69 152 67 Q 162 64 168 64 Q 174 64 177 68 Q 180 71 174 72 Q 163 74 148 78 L 148 78" fill="#CCCCCC"/><path d="M 177 98 Q 166 100 151 102 Q 150 102 149 102 L 150 96 Q 156 94 163 92 Q 173 89 177 89" fill="#CCCCCC"/><path d="M 154 127 L 143 130 L 132 133 Q 128 133 125 134 Q 121 135 116 134 Q 111 133 108 129 Q 104 125 109 125 Q 142 120 170 115 Q 202 109 221 105 Q 226 104 230 105 Q 236 107 243 112 Q 247 116 246 118 Q 245 121 240 121 Q 235 121 230 121 Q 191 121 167 126" fill="#CCCCCC"/><path d="M 143 130 Q 146 132 148 134 Q 151 137 148 140 Q 145 143 143 146 L 137 154 Q 137 154 136 154 Q 127 165 113 173 Q 108 176 105 176 Q 101 176 103 173 Q 106 171 111 166 Q 117 161 122 154 Q 128 147 129 142 Q 131 137 132 133" fill="#CCCCCC"/><path d="M 143 146 Q 154 146 171 144 Q 196 140 212 135 Q 219 132 225 136 Q 234 141 238 146 L 212 150 Q 211 148 207 148 Q 197 149 188 150 L 176 152 Q 165 154 154 156 L 146 157 Q 141 157 137 154" fill="#CCCCCC"/><path d="M 238 146 Q 241 149 236 154 Q 230 161 228 173 Q 221 208 214 224 Q 208 237 202 242 Q 196 247 192 248 L 196 220 Q 199 216 203 207 Q 209 191 212 162 Q 213 154 212 150" fill="#CCCCCC"/><path d="M 192 248 Q 187 249 186 244 Q 181 235 171 223 Q 166 217 173 219 Q 178 220 184 221 Q 192 223 196 220" fill="#CCCCCC"/><path d="M 154 156 Q 157 159 159 163 Q 160 167 158 169 Q 156 170 153 174 Q 147 181 139 188 Q 133 193 128 196 Q 123 199 116 202 Q 114 202 113 202 Q 112 202 112 201 Q 112 200 113 199 Q 123 192 130 183 Q 136 176 139 172 Q 142 168 145 162 Q 146 159 146 157" fill="#CCCCCC"/><path d="M 188 150 Q 190 151 193 154 Q 196 156 196 159 Q 196 161 195 162 Q 193 163 191 167 Q 176 190 166 201 Q 156 213 145 220 Q 137 226 129 230 Q 123 233 121 233 Q 119 232 121 231 Q 142 213 150 204 Q 158 195 165 183 Q 171 173 176 161 Q 176 155 176 152" fill="#CCCCCC"/><path d="M 74 110 Q 66 112 59 114 Q 52 117 45 116 Q 39 115 35 113 Q 28 109 37 107 Q 53 105 67 101 Q 72 99 78 97 L 90 93 Q 90 92 91 92 Q 99 88 106 89 Q 114 91 115 94 Q 116 96 115 98 Q 113 99 103 102 Q 96 104 89 106" fill="#000000" /><path d="M 87 230 L 85 236 Q 82 242 80 243 Q 78 245 76 243 Q 74 242 72 237 Q 70 231 68 225 Q 66 220 69 211 Q 74 193 76 172 Q 76 152 77 134 L 78 97 Q 78 96 79 95 Q 79 74 79 55 Q 79 42 70 30 Q 69 26 70 25 Q 75 20 81 25 Q 96 34 98 37 Q 98 40 96 44 Q 91 61 90 86 Q 90 89 90 93 L 89 106 Q 89 118 89 129 L 88 136 Q 87 211 87 222" fill="#150000" /><path d="M 77 134 Q 67 153 57 166 Q 42 184 29 196 Q 26 198 25 198 Q 22 198 23 195 Q 48 162 59 143 Q 68 128 74 110 L 78 97" fill="#2a0000" /><path d="M 89 129 Q 93 130 100 133 Q 105 134 108 138 Q 110 142 110 145 Q 109 149 106 149 Q 103 149 99 146 Q 94 141 88 136" fill="#3f0000" /><path d="M 128 43 L 129 42 Q 130 41 133 42 Q 139 43 142 45 L 145 53 Q 145 58 147 71 L 148 78 Q 148 83 149 89 Q 150 93 150 96 L 149 102 Q 149 105 148 106 Q 147 110 143 105 Q 139 99 139 91 Q 136 64 129 47" fill="#550000" /><path d="M 142 45 Q 147 43 152 42 Q 163 39 171 37 Q 178 35 183 34 Q 186 32 191 34 Q 202 40 206 43 L 182 46 Q 180 45 176 45 Q 156 49 145 53" fill="#6a0000" /><path d="M 206 43 Q 209 46 206 49 Q 201 56 199 63 Q 195 96 192 102 Q 189 108 187 106 Q 182 104 177 98 L 177 89 Q 180 90 181 90 Q 181 89 181 89 Q 184 83 186 53 Q 186 48 182 46" fill="#6a0000" /><path d="M 147 71 Q 149 69 152 67 Q 162 64 168 64 Q 174 64 177 68 Q 180 71 174 72 Q 163 74 148 78 L 148 78" fill="#7f0000" /><path d="M 177 98 Q 166 100 151 102 Q 150 102 149 102 L 150 96 Q 156 94 163 92 Q 173 89 177 89" fill="#940000" /><path d="M 154 127 L 143 130 L 132 133 Q 128 133 125 134 Q 121 135 116 134 Q 111 133 108 129 Q 104 125 109 125 Q 142 120 170 115 Q 202 109 221 105 Q 226 104 230 105 Q 236 107 243 112 Q 247 116 246 118 Q 245 121 240 121 Q 235 121 230 121 Q 191 121 167 126" fill="#aa0000" /><path d="M 143 130 Q 146 132 148 134 Q 151 137 148 140 Q 145 143 143 146 L 137 154 Q 137 154 136 154 Q 127 165 113 173 Q 108 176 105 176 Q 101 176 103 173 Q 106 171 111 166 Q 117 161 122 154 Q 128 147 129 142 Q 131 137 132 133" fill="#bf0000" /><path d="M 143 146 Q 154 146 171 144 Q 196 140 212 135 Q 219 132 225 136 Q 234 141 238 146 L 212 150 Q 211 148 207 148 Q 197 149 188 150 L 176 152 Q 165 154 154 156 L 146 157 Q 141 157 137 154" fill="#d40000" /><path d="M 238 146 Q 241 149 236 154 Q 230 161 228 173 Q 221 208 214 224 Q 208 237 202 242 Q 196 247 192 248 L 196 220 Q 199 216 203 207 Q 209 191 212 162 Q 213 154 212 150" fill="#d40000" /><path d="M 192 248 Q 187 249 186 244 Q 181 235 171 223 Q 166 217 173 219 Q 178 220 184 221 Q 192 223 196 220" fill="#d40000" /><path d="M 154 156 Q 157 159 159 163 Q 160 167 158 169 Q 156 170 153 174 Q 147 181 139 188 Q 133 193 128 196 Q 123 199 116 202 Q 114 202 113 202 Q 112 202 112 201 Q 112 200 113 199 Q 123 192 130 183 Q 136 176 139 172 Q 142 168 145 162 Q 146 159 146 157" fill="#e90000" /><path d="M 188 150 Q 190 151 193 154 Q 196 156 196 159 Q 196 161 195 162 Q 193 163 191 167 Q 176 190 166 201 Q 156 213 145 220 Q 137 226 129 230 Q 123 233 121 233 Q 119 232 121 231 Q 142 213 150 204 Q 158 195 165 183 Q 171 173 176 161 Q 176 155 176 152" fill="#ff0000" /></svg>