<svg xmlns="http://www.w3.org/2000/svg" xmlns:xlink="http://www.w3.org/1999/xlink" width="270" height="270"><path d="M 0 0 L 270 270 M 270 0 L 0 270 M 135 0 L 135 270 M 0 135 L 270 135" stroke="#CCCCCC" /><path d="M 70 102 Q 63 103 57 105 Q 44 109 31 104 Q 25 99 34 98 Q 35 97 71 89 L 83 85 Q 83 84 83 84 Q 91 81 98 82 Q 106 84 108 86 Q 109 89 107 90 Q 105 92 83 98" fill="#CCCCCC"/><path d="M 80 207 L 81 218 Q 80 235 73 239 Q 71 242 70 240 Q 68 239 66 234 Q 61 221 61 219 Q 61 219 67 187 Q 68 181 70 131 L 71 89 Q 71 69 71 52 Q 71 39 63 27 Q 61 22 62 21 Q 68 17 74 22 Q 88 31 90 34 Q 91 37 88 41 Q 83 58 83 83 Q 83 84 83 85 L 83 98 Q 83 105 82 112 L 82 118" fill="#CCCCCC"/><path d="M 70 131 Q 61 149 51 162 Q 25 196 19 196 Q 17 196 18 193 Q 57 140 70 102 L 71 89" fill="#CCCCCC"/><path d="M 82 112 Q 96 112 102 118 Q 104 122 104 125 Q 103 129 101 129 Q 95 130 82 118" fill="#CCCCCC"/><path d="M 150 28 L 149 25 Q 148 22 149 21 Q 152 20 170 25 Q 178 28 179 33 Q 182 40 181 44 Q 179 47 177 47 Q 173 48 170 45 Q 163 38 156 33" fill="#CCCCCC"/><path d="M 180 69 Q 170 71 160 72 Q 138 77 128 71 Q 122 67 131 66 Q 148 64 163 61 Q 176 57 188 53 Q 196 50 203 51 Q 211 54 212 56 Q 214 58 211 60 Q 210 61 188 67" fill="#CCCCCC"/><path d="M 137 85 L 138 84 Q 139 82 141 83 Q 144 84 150 90 Q 153 93 154 97 Q 155 102 154 104 Q 151 108 148 106 Q 142 104 138 88" fill="#CCCCCC"/><path d="M 171 110 Q 172 106 173 104 Q 179 89 181 78 Q 183 71 180 69 L 188 67 Q 189 67 189 67 Q 197 72 199 76 Q 201 79 197 82 Q 194 86 191 90 Q 186 100 180 108" fill="#CCCCCC"/><path d="M 124 128 L 124 129 Q 122 132 118 141 Q 114 151 111 151 Q 110 153 108 150 Q 106 147 105 142 Q 105 138 108 134 Q 114 120 113 115 Q 114 112 115 111 Q 117 110 117 111 Q 120 114 123 119 L 125 126" fill="#CCCCCC"/><path d="M 123 119 Q 134 117 145 115 Q 159 111 171 110 L 180 108 Q 186 106 192 105 Q 210 102 225 99 Q 230 98 235 102 Q 252 113 252 116 L 223 113 Q 223 111 219 109 Q 216 109 206 110 Q 163 117 135 127 Q 130 128 125 126" fill="#CCCCCC"/><path d="M 252 116 Q 252 118 244 120 Q 234 123 221 131 Q 217 134 215 133 Q 214 132 216 129 Q 223 113 223 113" fill="#CCCCCC"/><path d="M 154 132 L 154 130 Q 153 128 154 127 Q 156 126 159 127 Q 176 131 179 138 Q 179 141 178 144 Q 177 146 174 146 Q 166 143 158 135" fill="#CCCCCC"/><path d="M 155 163 Q 143 165 131 169 Q 124 171 117 166 Q 113 162 117 162 Q 158 154 201 145 Q 216 141 227 149 Q 230 151 229 154 Q 228 156 216 157 Q 184 158 165 162" fill="#CCCCCC"/><path d="M 166 180 L 163 184 Q 143 216 120 227 Q 96 240 89 237 Q 88 235 90 234 Q 151 201 155 163 L 165 162 Q 165 162 165 162 Q 169 165 171 167 L 169 176" fill="#CCCCCC"/><path d="M 171 167 Q 179 171 187 173 Q 199 173 207 182 L 190 186 Q 188 182 181 180 Q 172 178 169 176" fill="#CCCCCC"/><path d="M 207 182 Q 212 189 212 191 Q 211 193 208 194 Q 202 199 198 211 Q 188 239 175 247 Q 167 252 164 250 L 170 227 Q 174 226 180 216 Q 192 191 190 186" fill="#CCCCCC"/><path d="M 164 250 Q 161 248 160 244 Q 159 235 149 225 Q 145 222 147 220 Q 148 218 157 223 Q 166 228 170 227" fill="#CCCCCC"/><path d="M 70 102 Q 63 103 57 105 Q 44 109 31 104 Q 25 99 34 98 Q 35 97 71 89 L 83 85 Q 83 84 83 84 Q 91 81 98 82 Q 106 84 108 86 Q 109 89 107 90 Q 105 92 83 98" fill="#000000" /><path d="M 80 207 L 81 218 Q 80 235 73 239 Q 71 242 70 240 Q 68 239 66 234 Q 61 221 61 219 Q 61 219 67 187 Q 68 181 70 131 L 71 89 Q 71 69 71 52 Q 71 39 63 27 Q 61 22 62 21 Q 68 17 74 22 Q 88 31 90 34 Q 91 37 88 41 Q 83 58 83 83 Q 83 84 83 85 L 83 98 Q 83 105 82 112 L 82 118" fill="#130000" /><path d="M 70 131 Q 61 149 51 162 Q 25 196 19 196 Q 17 196 18 193 Q 57 140 70 102 L 71 89" fill="#270000" /><path d="M 82 112 Q 96 112 102 118 Q 104 122 104 125 Q 103 129 101 129 Q 95 130 82 118" fill="#3a0000" /><path d="M 150 28 L 149 25 Q 148 22 149 21 Q 152 20 170 25 Q 178 28 179 33 Q 182 40 181 44 Q 179 47 177 47 Q 173 48 170 45 Q 163 38 156 33" fill="#4e0000" /><path d="M 180 69 Q 170 71 160 72 Q 138 77 128 71 Q 122 67 131 66 Q 148 64 163 61 Q 176 57 188 53 Q 196 50 203 51 Q 211 54 212 56 Q 214 58 211 60 Q 210 61 188 67" fill="#620000" /><path d="M 137 85 L 138 84 Q 139 82 141 83 Q 144 84 150 90 Q 153 93 154 97 Q 155 102 154 104 Q 151 108 148 106 Q 142 104 138 88" fill="#750000" /><path d="M 171 110 Q 172 106 173 104 Q 179 89 181 78 Q 183 71 180 69 L 188 67 Q 189 67 189 67 Q 197 72 199 76 Q 201 79 197 82 Q 194 86 191 90 Q 186 100 180 108" fill="#890000" /><path d="M 124 128 L 124 129 Q 122 132 118 141 Q 114 151 111 151 Q 110 153 108 150 Q 106 147 105 142 Q 105 138 108 134 Q 114 120 113 115 Q 114 112 115 111 Q 117 110 117 111 Q 120 114 123 119 L 125 126" fill="#9c0000" /><path d="M 123 119 Q 134 117 145 115 Q 159 111 171 110 L 180 108 Q 186 106 192 105 Q 210 102 225 99 Q 230 98 235 102 Q 252 113 252 116 L 223 113 Q 223 111 219 109 Q 216 109 206 110 Q 163 117 135 127 Q 130 128 125 126" fill="#b00000" /><path d="M 252 116 Q 252 118 244 120 Q 234 123 221 131 Q 217 134 215 133 Q 214 132 216 129 Q 223 113 223 113" fill="#b00000" /><path d="M 154 132 L 154 130 Q 153 128 154 127 Q 156 126 159 127 Q 176 131 179 138 Q 179 141 178 144 Q 177 146 174 146 Q 166 143 158 135" fill="#c40000" /><path d="M 155 163 Q 143 165 131 169 Q 124 171 117 166 Q 113 162 117 162 Q 158 154 201 145 Q 216 141 227 149 Q 230 151 229 154 Q 228 156 216 157 Q 184 158 165 162" fill="#d70000" /><path d="M 166 180 L 163 184 Q 143 216 120 227 Q 96 240 89 237 Q 88 235 90 234 Q 151 201 155 163 L 165 162 Q 165 162 165 162 Q 169 165 171 167 L 169 176" fill="#eb0000" /><path d="M 171 167 Q 179 171 187 173 Q 199 173 207 182 L 190 186 Q 188 182 181 180 Q 172 178 169 176" fill="#ff0000" /><path d="M 207 182 Q 212 189 212 191 Q 211 193 208 194 Q 202 199 198 211 Q 188 239 175 247 Q 167 252 164 250 L 170 227 Q 174 226 180 216 Q 192 191 190 186" fill="#ff0000" /><path d="M 164 250 Q 161 248 160 244 Q 159 235 149 225 Q 145 222 147 220 Q 148 218 157 223 Q 166 228 170 227" fill="#ff0000" /></svg>