<svg xmlns="http://www.w3.org/2000/svg" xmlns:xlink="http://www.w3.org/1999/xlink" width="270" height="270"><path d="M 0 0 L 270 270 M 270 0 L 0 270 M 135 0 L 135 270 M 0 135 L 270 135" stroke="#CCCCCC" /><path d="M 62 114 Q 54 116 46 118 Q 34 122 22 117 Q 15 113 24 111 Q 46 107 67 100 L 78 95 Q 84 93 89 94 Q 97 96 99 98 Q 100 101 98 102 Q 97 105 78 109" fill="#000000" /><path d="M 75 202 L 74 220 Q 74 242 67 247 Q 65 250 63 248 Q 61 247 59 242 Q 53 226 56 215 Q 62 197 64 176 Q 64 156 65 136 L 67 100 Q 67 99 67 98 Q 67 77 67 58 Q 67 45 59 32 Q 57 28 59 27 Q 64 23 70 27 Q 78 32 82 35 Q 89 40 85 47 Q 78 68 78 95 L 78 109 Q 77 125 77 139 L 77 146" fill="#130000" /><path d="M 65 136 Q 55 156 44 169 Q 16 201 11 201 Q 8 201 9 198 Q 48 149 62 114 L 67 100" fill="#270000" /><path d="M 77 139 Q 77 138 78 139 Q 96 143 97 149 Q 99 155 98 157 Q 97 160 95 160 Q 92 160 89 158 Q 79 148 77 146" fill="#3a0000" /><path d="M 138 82 L 136 86 Q 135 87 133 90 Q 108 126 89 132 Q 87 132 89 130 Q 110 105 118 93 Q 119 90 121 88 Q 147 45 140 26 Q 139 23 142 22 Q 150 19 159 26 Q 163 29 164 31 Q 164 34 163 35 Q 159 40 158 43 L 156 49 Q 148 64 143 75 L 140 79" fill="#4e0000" /><path d="M 158 43 Q 159 44 161 45 Q 198 78 230 89 Q 245 94 257 99 Q 261 101 260 102 Q 260 104 255 104 Q 236 107 217 106 Q 206 106 201 100 Q 177 75 156 49" fill="#620000" /><path d="M 143 75 Q 144 74 145 75 Q 165 78 168 85 Q 171 90 170 93 Q 169 96 167 96 Q 164 97 161 95 Q 154 89 147 84 Q 141 81 140 79" fill="#750000" /><path d="M 136 115 Q 163 106 166 106 Q 181 101 186 103 Q 197 109 200 113 L 176 114 Q 173 112 169 113 Q 150 118 139 122" fill="#890000" /><path d="M 167 158 Q 171 157 172 154 Q 175 149 178 120 Q 179 116 176 114 L 200 113 Q 204 117 200 120 Q 194 126 193 134 Q 187 164 184 169 Q 180 175 177 173 Q 174 172 170 167" fill="#890000" /><path d="M 137 137 Q 146 132 157 132 Q 163 133 166 137 Q 168 140 162 141 Q 151 142 136 145" fill="#9c0000" /><path d="M 132 165 Q 144 162 158 158 Q 164 157 167 158 L 170 167 Q 145 170 133 173 Q 132 173 131 173" fill="#b00000" /><path d="M 121 205 Q 120 205 120 206 Q 115 216 104 226 Q 98 233 87 239 Q 82 242 78 242 Q 75 242 76 240 Q 77 238 80 236 Q 102 216 108 203 Q 117 186 120 172 Q 127 128 120 115 Q 117 109 122 109 Q 125 109 136 115 L 139 122 Q 138 125 137 129 Q 137 133 137 137 L 136 145 Q 134 156 132 165 L 131 173 Q 129 181 126 193" fill="#c40000" /><path d="M 137 242 L 136 245 Q 135 249 130 243 Q 127 238 126 232 Q 124 216 121 205 L 126 193 Q 128 193 130 194 L 136 202 Q 136 207 137 228 L 137 238" fill="#d70000" /><path d="M 186 196 Q 184 194 180 195 Q 137 202 136 202 L 130 194 Q 164 189 183 182 Q 189 179 194 182 Q 208 189 212 193" fill="#eb0000" /><path d="M 182 221 Q 185 213 187 202 Q 188 197 186 196 L 212 193 Q 216 198 212 203 Q 204 207 197 222" fill="#eb0000" /><path d="M 137 228 Q 157 226 182 221 L 197 222 Q 205 228 205 230 Q 204 232 201 233 Q 161 234 142 237 Q 140 238 137 238" fill="#ff0000" /></svg>