<svg xmlns="http://www.w3.org/2000/svg" xmlns:xlink="http://www.w3.org/1999/xlink" width="270" height="270"><path d="M 0 0 L 270 270 M 270 0 L 0 270 M 135 0 L 135 270 M 0 135 L 270 135" stroke="#CCCCCC" /><path d="M 61 112 Q 55 113 50 114 Q 32 118 22 113 Q 16 109 25 108 Q 45 105 66 98 L 77 95 Q 84 91 91 92 Q 99 94 100 97 Q 102 99 100 101 Q 98 102 77 108" fill="#CCCCCC"/><path d="M 74 215 L 75 225 Q 75 233 72 240 Q 69 245 68 246 Q 66 248 64 246 Q 62 246 61 241 Q 54 226 57 215 Q 60 204 62 193 Q 63 187 65 135 L 66 98 Q 66 78 66 60 Q 66 48 57 35 Q 56 31 57 30 Q 62 26 68 30 Q 75 34 78 37 Q 86 42 82 49 Q 77 67 77 95 L 77 108 Q 76 126 76 141 L 76 147" fill="#CCCCCC"/><path d="M 65 135 Q 56 153 45 166 Q 21 196 16 196 Q 12 196 14 193 Q 50 145 61 112 L 66 98" fill="#CCCCCC"/><path d="M 76 141 Q 76 140 78 141 Q 98 144 100 150 Q 103 155 102 158 Q 101 161 99 161 Q 96 162 94 160 Q 86 154 80 150 Q 77 148 76 147" fill="#CCCCCC"/><path d="M 141 71 Q 134 72 129 73 Q 123 75 115 69 Q 110 66 116 65 Q 128 63 139 62 L 151 60 Q 164 58 178 54 Q 179 54 180 54 L 195 50 Q 195 50 196 50 Q 216 43 223 48 Q 228 51 228 53 Q 226 56 224 56 Q 210 58 192 60 L 179 63 Q 164 65 151 68" fill="#CCCCCC"/><path d="M 151 100 L 150 101 Q 148 103 147 100 Q 144 96 141 72 Q 141 71 141 71 L 139 62 Q 136 44 131 37 Q 127 34 130 32 Q 134 29 139 30 Q 146 32 150 35 Q 150 35 150 36 Q 151 37 151 60 L 151 68 Q 152 84 152 89 L 152 97" fill="#CCCCCC"/><path d="M 180 54 Q 182 42 183 32 Q 183 28 180 22 Q 179 18 181 17 Q 183 15 187 17 Q 192 19 199 24 Q 203 29 202 31 Q 195 48 195 50 L 192 60 Q 192 60 192 61 Q 189 71 185 83 L 176 83 Q 177 72 179 63" fill="#CCCCCC"/><path d="M 185 83 Q 192 88 192 89 Q 192 91 190 92 Q 166 94 155 97 Q 153 97 152 97 L 152 89 Q 162 87 175 83 Q 176 83 176 83" fill="#CCCCCC"/><path d="M 155 118 Q 133 122 113 128 Q 110 129 105 128 Q 100 126 97 123 Q 93 119 98 119 Q 198 103 232 95 Q 240 93 253 102 Q 257 105 255 107 Q 254 110 249 110 Q 201 110 165 116" fill="#CCCCCC"/><path d="M 136 197 L 136 199 Q 134 203 130 197 Q 126 192 125 185 Q 121 160 113 145 Q 111 141 113 139 Q 114 138 117 139 Q 122 139 125 140 L 130 149 Q 131 156 136 182 Q 136 185 137 188 L 136 195" fill="#CCCCCC"/><path d="M 125 140 Q 158 134 159 134 L 171 131 Q 187 128 193 128 Q 210 125 212 126 Q 225 133 229 137 L 204 137 Q 199 134 171 139 L 159 142 Q 141 145 130 148 Q 130 148 130 149" fill="#CCCCCC"/><path d="M 197 181 Q 200 173 205 146 Q 207 138 204 137 L 229 137 Q 233 141 228 145 Q 219 152 215 165 Q 209 186 206 191 Q 204 194 200 194 Q 197 195 196 191 Q 195 189 195 188" fill="#CCCCCC"/><path d="M 170 155 Q 179 153 184 153 Q 190 155 192 158 Q 194 161 189 162 Q 180 163 170 165 L 159 166 Q 154 167 149 168 Q 144 169 142 167 Q 137 164 141 163 Q 149 160 159 158" fill="#CCCCCC"/><path d="M 159 134 Q 158 125 155 118 L 165 116 Q 168 118 171 122 Q 173 124 171 131 L 171 139 Q 171 147 170 155 L 170 165 Q 170 173 169 182 L 159 184 Q 159 174 159 166 L 159 158 Q 159 148 159 142" fill="#CCCCCC"/><path d="M 169 182 Q 185 178 193 179 Q 195 180 197 181 L 195 188 Q 172 190 141 195 Q 138 195 136 195 L 137 188 Q 147 186 159 184" fill="#CCCCCC"/><path d="M 139 206 L 141 206 Q 144 205 151 209 Q 157 212 157 215 Q 158 218 154 220 Q 145 227 142 229 Q 113 251 97 250 Q 90 250 96 247 Q 133 223 138 209" fill="#CCCCCC"/><path d="M 182 211 L 183 207 Q 183 204 186 205 Q 226 220 230 235 Q 233 248 230 251 Q 228 254 225 253 Q 221 252 217 247 Q 200 227 185 214" fill="#CCCCCC"/><path d="M 61 112 Q 55 113 50 114 Q 32 118 22 113 Q 16 109 25 108 Q 45 105 66 98 L 77 95 Q 84 91 91 92 Q 99 94 100 97 Q 102 99 100 101 Q 98 102 77 108" fill="#000000" /><path d="M 74 215 L 75 225 Q 75 233 72 240 Q 69 245 68 246 Q 66 248 64 246 Q 62 246 61 241 Q 54 226 57 215 Q 60 204 62 193 Q 63 187 65 135 L 66 98 Q 66 78 66 60 Q 66 48 57 35 Q 56 31 57 30 Q 62 26 68 30 Q 75 34 78 37 Q 86 42 82 49 Q 77 67 77 95 L 77 108 Q 76 126 76 141 L 76 147" fill="#110000" /><path d="M 65 135 Q 56 153 45 166 Q 21 196 16 196 Q 12 196 14 193 Q 50 145 61 112 L 66 98" fill="#220000" /><path d="M 76 141 Q 76 140 78 141 Q 98 144 100 150 Q 103 155 102 158 Q 101 161 99 161 Q 96 162 94 160 Q 86 154 80 150 Q 77 148 76 147" fill="#330000" /><path d="M 141 71 Q 134 72 129 73 Q 123 75 115 69 Q 110 66 116 65 Q 128 63 139 62 L 151 60 Q 164 58 178 54 Q 179 54 180 54 L 195 50 Q 195 50 196 50 Q 216 43 223 48 Q 228 51 228 53 Q 226 56 224 56 Q 210 58 192 60 L 179 63 Q 164 65 151 68" fill="#440000" /><path d="M 151 100 L 150 101 Q 148 103 147 100 Q 144 96 141 72 Q 141 71 141 71 L 139 62 Q 136 44 131 37 Q 127 34 130 32 Q 134 29 139 30 Q 146 32 150 35 Q 150 35 150 36 Q 151 37 151 60 L 151 68 Q 152 84 152 89 L 152 97" fill="#550000" /><path d="M 180 54 Q 182 42 183 32 Q 183 28 180 22 Q 179 18 181 17 Q 183 15 187 17 Q 192 19 199 24 Q 203 29 202 31 Q 195 48 195 50 L 192 60 Q 192 60 192 61 Q 189 71 185 83 L 176 83 Q 177 72 179 63" fill="#660000" /><path d="M 185 83 Q 192 88 192 89 Q 192 91 190 92 Q 166 94 155 97 Q 153 97 152 97 L 152 89 Q 162 87 175 83 Q 176 83 176 83" fill="#770000" /><path d="M 155 118 Q 133 122 113 128 Q 110 129 105 128 Q 100 126 97 123 Q 93 119 98 119 Q 198 103 232 95 Q 240 93 253 102 Q 257 105 255 107 Q 254 110 249 110 Q 201 110 165 116" fill="#880000" /><path d="M 136 197 L 136 199 Q 134 203 130 197 Q 126 192 125 185 Q 121 160 113 145 Q 111 141 113 139 Q 114 138 117 139 Q 122 139 125 140 L 130 149 Q 131 156 136 182 Q 136 185 137 188 L 136 195" fill="#990000" /><path d="M 125 140 Q 158 134 159 134 L 171 131 Q 187 128 193 128 Q 210 125 212 126 Q 225 133 229 137 L 204 137 Q 199 134 171 139 L 159 142 Q 141 145 130 148 Q 130 148 130 149" fill="#aa0000" /><path d="M 197 181 Q 200 173 205 146 Q 207 138 204 137 L 229 137 Q 233 141 228 145 Q 219 152 215 165 Q 209 186 206 191 Q 204 194 200 194 Q 197 195 196 191 Q 195 189 195 188" fill="#aa0000" /><path d="M 170 155 Q 179 153 184 153 Q 190 155 192 158 Q 194 161 189 162 Q 180 163 170 165 L 159 166 Q 154 167 149 168 Q 144 169 142 167 Q 137 164 141 163 Q 149 160 159 158" fill="#bb0000" /><path d="M 159 134 Q 158 125 155 118 L 165 116 Q 168 118 171 122 Q 173 124 171 131 L 171 139 Q 171 147 170 155 L 170 165 Q 170 173 169 182 L 159 184 Q 159 174 159 166 L 159 158 Q 159 148 159 142" fill="#cc0000" /><path d="M 169 182 Q 185 178 193 179 Q 195 180 197 181 L 195 188 Q 172 190 141 195 Q 138 195 136 195 L 137 188 Q 147 186 159 184" fill="#dd0000" /><path d="M 139 206 L 141 206 Q 144 205 151 209 Q 157 212 157 215 Q 158 218 154 220 Q 145 227 142 229 Q 113 251 97 250 Q 90 250 96 247 Q 133 223 138 209" fill="#ee0000" /><path d="M 182 211 L 183 207 Q 183 204 186 205 Q 226 220 230 235 Q 233 248 230 251 Q 228 254 225 253 Q 221 252 217 247 Q 200 227 185 214" fill="#ff0000" /></svg>