<svg xmlns="http://www.w3.org/2000/svg" xmlns:xlink="http://www.w3.org/1999/xlink" width="270" height="270"><path d="M 0 0 L 270 270 M 270 0 L 0 270 M 135 0 L 135 270 M 0 135 L 270 135" stroke="#CCCCCC" /><path d="M 47 85 L 46 81 Q 46 78 48 76 Q 52 75 72 84 Q 81 89 82 95 Q 84 104 82 108 Q 80 112 77 112 Q 72 112 69 107 Q 62 99 55 92" fill="#000000" /><path d="M 63 158 L 84 135 Q 88 132 88 136 Q 88 139 85 142 Q 58 184 49 204 Q 47 211 42 210 Q 30 206 26 187 Q 26 181 30 183 Q 33 184 35 184 Q 40 185 42 181" fill="#330000" /><path d="M 113 130 L 103 134 Q 99 136 100 131 Q 107 120 114 111 Q 140 67 132 37 Q 130 33 134 32 Q 141 29 155 37 Q 160 40 157 44 Q 151 58 146 74 Q 142 83 138 92 L 133 100" fill="#660000" /><path d="M 138 92 Q 175 86 198 76 Q 202 74 210 79 Q 216 83 222 87 Q 230 92 229 95 L 196 96 Q 197 93 193 91 Q 190 90 180 92 Q 162 96 146 102 Q 139 105 133 100" fill="#990000" /><path d="M 229 95 Q 229 98 226 98 Q 213 103 183 125 Q 180 127 179 126 Q 178 124 180 122 Q 196 98 196 96" fill="#990000" /><path d="M 136 194 L 122 208 Q 119 212 116 215 Q 89 234 65 233 Q 57 233 64 229 Q 71 226 77 224 Q 116 205 126 175 Q 135 152 128 134 Q 125 129 128 128 Q 132 126 141 130 Q 149 134 150 135 Q 152 138 150 140 Q 149 143 147 149 Q 146 154 145 158 L 143 167" fill="#cc0000" /><path d="M 145 158 Q 169 186 190 204 Q 197 210 236 228 Q 243 231 243 233 Q 243 234 237 235 Q 222 237 205 239 Q 199 240 193 233 Q 171 210 143 167" fill="#ff0000" /></svg>