<svg xmlns="http://www.w3.org/2000/svg" xmlns:xlink="http://www.w3.org/1999/xlink" width="270" height="270"><path d="M 0 0 L 270 270 M 270 0 L 0 270 M 135 0 L 135 270 M 0 135 L 270 135" stroke="#CCCCCC" /><path d="M 114 52 Q 83 55 68 61 Q 57 65 46 57 Q 42 54 42 51 Q 42 48 46 48 Q 48 47 174 33 Q 184 32 191 30 Q 208 25 224 40 Q 227 42 225 46 Q 224 48 218 47 Q 178 43 125 50" fill="#CCCCCC"/><path d="M 101 116 L 101 117 Q 72 151 57 153 Q 55 154 55 152 Q 55 150 68 137 Q 119 79 115 55 Q 114 52 114 52 L 125 50 L 125 50 Q 130 53 135 61 Q 137 66 135 69 Q 131 73 126 83 Q 120 91 113 102 L 109 107" fill="#CCCCCC"/><path d="M 113 102 Q 116 101 120 101 Q 152 96 166 91 Q 169 88 172 88 Q 176 88 187 95 Q 196 100 196 104 L 163 105 Q 160 102 153 105 Q 121 116 109 107" fill="#CCCCCC"/><path d="M 196 104 Q 196 107 191 109 Q 184 115 179 123 Q 162 160 144 183 Q 127 206 108 220 Q 92 232 76 237 Q 61 244 53 244 Q 51 244 51 243 Q 51 241 53 240 Q 94 219 123 186 Q 150 152 159 123 Q 165 106 163 105" fill="#CCCCCC"/><path d="M 93 135 L 93 132 Q 93 128 95 128 Q 97 127 101 129 Q 124 141 125 149 Q 125 157 123 161 Q 121 164 118 164 Q 114 163 111 159 Q 105 150 99 142" fill="#CCCCCC"/><path d="M 114 52 Q 83 55 68 61 Q 57 65 46 57 Q 42 54 42 51 Q 42 48 46 48 Q 48 47 174 33 Q 184 32 191 30 Q 208 25 224 40 Q 227 42 225 46 Q 224 48 218 47 Q 178 43 125 50" fill="#000000" /><path d="M 101 116 L 101 117 Q 72 151 57 153 Q 55 154 55 152 Q 55 150 68 137 Q 119 79 115 55 Q 114 52 114 52 L 125 50 L 125 50 Q 130 53 135 61 Q 137 66 135 69 Q 131 73 126 83 Q 120 91 113 102 L 109 107" fill="#550000" /><path d="M 113 102 Q 116 101 120 101 Q 152 96 166 91 Q 169 88 172 88 Q 176 88 187 95 Q 196 100 196 104 L 163 105 Q 160 102 153 105 Q 121 116 109 107" fill="#aa0000" /><path d="M 196 104 Q 196 107 191 109 Q 184 115 179 123 Q 162 160 144 183 Q 127 206 108 220 Q 92 232 76 237 Q 61 244 53 244 Q 51 244 51 243 Q 51 241 53 240 Q 94 219 123 186 Q 150 152 159 123 Q 165 106 163 105" fill="#aa0000" /><path d="M 93 135 L 93 132 Q 93 128 95 128 Q 97 127 101 129 Q 124 141 125 149 Q 125 157 123 161 Q 121 164 118 164 Q 114 163 111 159 Q 105 150 99 142" fill="#ff0000" /></svg>