<svg xmlns="http://www.w3.org/2000/svg" xmlns:xlink="http://www.w3.org/1999/xlink" width="270" height="270"><path d="M 0 0 L 270 270 M 270 0 L 0 270 M 135 0 L 135 270 M 0 135 L 270 135" stroke="#CCCCCC" /><path d="M 51 115 L 40 116 Q 37 117 38 114 Q 38 113 41 111 Q 60 88 70 72 L 76 63 Q 80 54 84 46 Q 87 40 84 35 Q 83 29 87 29 Q 91 29 97 34 Q 103 39 104 42 Q 105 45 103 47 Q 97 52 89 66 L 81 77" fill="#CCCCCC"/><path d="M 70 72 Q 59 66 49 62 Q 46 60 46 58 Q 46 56 48 56 Q 58 57 76 62 L 76 63 L 89 66 Q 101 70 105 77 Q 110 85 109 88 Q 108 90 106 91 Q 105 91 81 77" fill="#CCCCCC"/><path d="M 59 151 L 40 158 Q 31 162 21 155 Q 17 152 18 150 Q 18 148 21 147 Q 39 145 73 137 L 85 134 Q 109 127 116 131 Q 121 133 121 136 Q 121 138 116 138 Q 100 141 86 145 L 74 147" fill="#CCCCCC"/><path d="M 73 137 Q 73 133 73 130 Q 73 119 68 111 Q 65 107 67 105 Q 68 104 73 105 Q 80 108 86 112 Q 90 116 88 120 Q 86 126 85 134 L 86 145 Q 86 195 87 209 Q 86 229 79 237 Q 75 240 72 236 L 70 212 Q 75 207 74 147" fill="#CCCCCC"/><path d="M 72 236 Q 67 228 53 213 Q 50 211 50 209 Q 50 208 53 209 Q 69 211 70 212" fill="#CCCCCC"/><path d="M 41 170 L 42 170 Q 44 170 45 172 Q 47 177 46 185 Q 45 206 34 216 Q 29 219 27 214 Q 23 208 27 199 Q 35 186 40 172" fill="#CCCCCC"/><path d="M 96 171 L 96 169 Q 96 165 97 165 Q 100 164 116 173 Q 122 177 122 181 Q 123 189 121 192 Q 120 195 117 195 Q 113 194 111 191 Q 106 183 101 177" fill="#CCCCCC"/><path d="M 95 103 L 95 102 Q 96 99 98 99 Q 110 101 113 108 Q 115 113 114 116 Q 112 121 109 120 Q 102 119 96 106" fill="#CCCCCC"/><path d="M 151 63 L 150 66 Q 149 99 139 110 Q 130 119 124 119 Q 122 120 122 118 Q 129 107 136 97 Q 137 92 138 88 Q 140 61 134 55 Q 131 50 135 49 Q 137 49 145 52 L 151 61" fill="#CCCCCC"/><path d="M 145 52 Q 166 47 180 40 Q 185 38 187 39 Q 194 42 201 47 L 178 53 Q 176 52 154 60 Q 152 61 151 61" fill="#CCCCCC"/><path d="M 201 47 Q 205 51 201 55 Q 192 65 191 74 Q 189 90 192 95 L 187 108 Q 182 105 180 99 Q 177 92 180 57 Q 180 54 178 53" fill="#CCCCCC"/><path d="M 192 95 Q 197 104 214 93 Q 220 90 223 91 Q 228 93 233 97 Q 236 101 232 103 Q 225 108 210 110 Q 195 111 187 108" fill="#CCCCCC"/><path d="M 175 142 Q 175 136 170 138 Q 163 140 156 142 Q 146 145 139 142 Q 135 140 137 138 Q 140 136 146 136 Q 161 132 172 126 Q 177 123 183 125 Q 191 128 197 132 Q 202 136 197 140" fill="#CCCCCC"/><path d="M 161 211 L 150 218 Q 137 225 115 227 Q 107 229 105 227 Q 103 225 107 224 Q 140 213 153 200 Q 157 194 161 190 L 166 179 Q 175 159 175 142 L 197 140 Q 193 145 191 154 Q 185 174 177 189 L 170 200" fill="#CCCCCC"/><path d="M 161 190 Q 153 180 144 170 Q 137 162 128 157 Q 126 156 126 154 Q 128 152 135 152 Q 139 152 142 156 Q 155 169 166 179 L 177 189 Q 181 192 184 194 Q 208 213 249 225 Q 252 225 251 227 Q 248 232 211 235 Q 204 236 200 231 Q 186 217 170 200" fill="#CCCCCC"/><path d="M 51 115 L 40 116 Q 37 117 38 114 Q 38 113 41 111 Q 60 88 70 72 L 76 63 Q 80 54 84 46 Q 87 40 84 35 Q 83 29 87 29 Q 91 29 97 34 Q 103 39 104 42 Q 105 45 103 47 Q 97 52 89 66 L 81 77" fill="#000000" /><path d="M 70 72 Q 59 66 49 62 Q 46 60 46 58 Q 46 56 48 56 Q 58 57 76 62 L 76 63 L 89 66 Q 101 70 105 77 Q 110 85 109 88 Q 108 90 106 91 Q 105 91 81 77" fill="#190000" /><path d="M 59 151 L 40 158 Q 31 162 21 155 Q 17 152 18 150 Q 18 148 21 147 Q 39 145 73 137 L 85 134 Q 109 127 116 131 Q 121 133 121 136 Q 121 138 116 138 Q 100 141 86 145 L 74 147" fill="#330000" /><path d="M 73 137 Q 73 133 73 130 Q 73 119 68 111 Q 65 107 67 105 Q 68 104 73 105 Q 80 108 86 112 Q 90 116 88 120 Q 86 126 85 134 L 86 145 Q 86 195 87 209 Q 86 229 79 237 Q 75 240 72 236 L 70 212 Q 75 207 74 147" fill="#4c0000" /><path d="M 72 236 Q 67 228 53 213 Q 50 211 50 209 Q 50 208 53 209 Q 69 211 70 212" fill="#4c0000" /><path d="M 41 170 L 42 170 Q 44 170 45 172 Q 47 177 46 185 Q 45 206 34 216 Q 29 219 27 214 Q 23 208 27 199 Q 35 186 40 172" fill="#660000" /><path d="M 96 171 L 96 169 Q 96 165 97 165 Q 100 164 116 173 Q 122 177 122 181 Q 123 189 121 192 Q 120 195 117 195 Q 113 194 111 191 Q 106 183 101 177" fill="#7f0000" /><path d="M 95 103 L 95 102 Q 96 99 98 99 Q 110 101 113 108 Q 115 113 114 116 Q 112 121 109 120 Q 102 119 96 106" fill="#990000" /><path d="M 151 63 L 150 66 Q 149 99 139 110 Q 130 119 124 119 Q 122 120 122 118 Q 129 107 136 97 Q 137 92 138 88 Q 140 61 134 55 Q 131 50 135 49 Q 137 49 145 52 L 151 61" fill="#b20000" /><path d="M 145 52 Q 166 47 180 40 Q 185 38 187 39 Q 194 42 201 47 L 178 53 Q 176 52 154 60 Q 152 61 151 61" fill="#cc0000" /><path d="M 201 47 Q 205 51 201 55 Q 192 65 191 74 Q 189 90 192 95 L 187 108 Q 182 105 180 99 Q 177 92 180 57 Q 180 54 178 53" fill="#cc0000" /><path d="M 192 95 Q 197 104 214 93 Q 220 90 223 91 Q 228 93 233 97 Q 236 101 232 103 Q 225 108 210 110 Q 195 111 187 108" fill="#cc0000" /><path d="M 175 142 Q 175 136 170 138 Q 163 140 156 142 Q 146 145 139 142 Q 135 140 137 138 Q 140 136 146 136 Q 161 132 172 126 Q 177 123 183 125 Q 191 128 197 132 Q 202 136 197 140" fill="#e50000" /><path d="M 161 211 L 150 218 Q 137 225 115 227 Q 107 229 105 227 Q 103 225 107 224 Q 140 213 153 200 Q 157 194 161 190 L 166 179 Q 175 159 175 142 L 197 140 Q 193 145 191 154 Q 185 174 177 189 L 170 200" fill="#e50000" /><path d="M 161 190 Q 153 180 144 170 Q 137 162 128 157 Q 126 156 126 154 Q 128 152 135 152 Q 139 152 142 156 Q 155 169 166 179 L 177 189 Q 181 192 184 194 Q 208 213 249 225 Q 252 225 251 227 Q 248 232 211 235 Q 204 236 200 231 Q 186 217 170 200" fill="#ff0000" /></svg>