<svg xmlns="http://www.w3.org/2000/svg" xmlns:xlink="http://www.w3.org/1999/xlink" width="270" height="270"><path d="M 0 0 L 270 270 M 270 0 L 0 270 M 135 0 L 135 270 M 0 135 L 270 135" stroke="#CCCCCC" /><path d="M 130 48 Q 119 49 109 51 Q 95 53 86 47 Q 80 43 89 42 Q 110 40 129 38 L 146 34 Q 173 27 180 28 Q 187 30 189 33 Q 190 35 187 37 Q 186 39 144 46" fill="#CCCCCC"/><path d="M 130 75 Q 121 76 115 78 Q 104 79 97 74 Q 92 71 99 69 Q 102 69 130 65 L 142 62 Q 144 61 145 61 Q 167 54 174 60 Q 179 62 179 65 Q 177 68 175 67 Q 148 71 141 73" fill="#CCCCCC"/><path d="M 129 84 L 130 75 L 130 65 Q 130 56 130 48 L 129 38 Q 128 23 124 18 Q 122 14 124 12 Q 126 10 130 11 Q 136 12 145 17 Q 149 20 148 23 Q 147 29 146 34 L 144 46 Q 143 54 142 62 L 141 73 Q 140 83 140 93 L 129 95" fill="#CCCCCC"/><path d="M 140 93 Q 170 87 189 83 Q 198 81 210 90 Q 214 93 213 96 Q 212 98 207 98 Q 126 98 77 113 Q 73 114 68 113 Q 64 112 61 109 Q 57 105 62 104 Q 98 99 129 95" fill="#CCCCCC"/><path d="M 98 171 Q 93 184 88 196 L 79 217 Q 73 221 69 217 Q 64 213 63 208 Q 62 204 67 201 Q 80 190 86 173 L 88 164 Q 96 135 90 123 Q 88 121 90 118 Q 91 116 96 118 Q 101 121 105 125 L 108 133 Q 108 136 100 163" fill="#CCCCCC"/><path d="M 178 204 Q 190 205 196 205 Q 203 205 207 210 Q 212 213 214 219 Q 215 223 211 223 Q 208 225 203 223 Q 190 218 176 216 L 161 214 Q 151 211 128 210 Q 90 209 79 217 L 88 196 Q 86 202 91 202 Q 135 200 163 202" fill="#CCCCCC"/><path d="M 105 125 Q 115 124 145 120 Q 170 114 174 116 Q 184 119 190 126 L 166 128 Q 161 125 154 126 Q 117 133 108 133" fill="#CCCCCC"/><path d="M 181 170 L 178 204 L 176 216 Q 171 247 155 257 L 156 230 Q 159 225 161 214 L 163 202 Q 166 188 167 167 L 168 157 Q 168 149 169 140 Q 169 130 166 128 L 190 126 Q 193 129 188 135 Q 184 139 183 155 L 182 167" fill="#CCCCCC"/><path d="M 155 257 Q 151 259 146 253 Q 139 243 128 234 Q 122 228 130 229 Q 129 231 147 233 Q 154 235 156 230" fill="#CCCCCC"/><path d="M 124 136 L 125 135 Q 126 132 127 133 Q 139 136 142 143 Q 143 148 142 150 Q 140 154 137 153 Q 133 152 126 138" fill="#CCCCCC"/><path d="M 167 167 Q 137 167 114 170 Q 106 170 98 171 L 86 173 Q 60 175 38 181 Q 33 182 27 180 Q 22 178 18 174 Q 13 169 20 169 Q 55 166 88 164 L 100 163 Q 117 161 133 160 Q 152 158 168 157 L 183 155 Q 201 152 215 151 Q 235 146 251 159 Q 256 163 254 167 Q 252 169 247 169 Q 201 167 182 167" fill="#CCCCCC"/><path d="M 118 176 L 119 174 Q 120 172 121 172 Q 135 177 138 185 Q 140 190 139 193 Q 137 196 134 196 Q 128 194 119 178" fill="#CCCCCC"/><path d="M 130 48 Q 119 49 109 51 Q 95 53 86 47 Q 80 43 89 42 Q 110 40 129 38 L 146 34 Q 173 27 180 28 Q 187 30 189 33 Q 190 35 187 37 Q 186 39 144 46" fill="#000000" /><path d="M 130 75 Q 121 76 115 78 Q 104 79 97 74 Q 92 71 99 69 Q 102 69 130 65 L 142 62 Q 144 61 145 61 Q 167 54 174 60 Q 179 62 179 65 Q 177 68 175 67 Q 148 71 141 73" fill="#1f0000" /><path d="M 129 84 L 130 75 L 130 65 Q 130 56 130 48 L 129 38 Q 128 23 124 18 Q 122 14 124 12 Q 126 10 130 11 Q 136 12 145 17 Q 149 20 148 23 Q 147 29 146 34 L 144 46 Q 143 54 142 62 L 141 73 Q 140 83 140 93 L 129 95" fill="#3f0000" /><path d="M 140 93 Q 170 87 189 83 Q 198 81 210 90 Q 214 93 213 96 Q 212 98 207 98 Q 126 98 77 113 Q 73 114 68 113 Q 64 112 61 109 Q 57 105 62 104 Q 98 99 129 95" fill="#5f0000" /><path d="M 98 171 Q 93 184 88 196 L 79 217 Q 73 221 69 217 Q 64 213 63 208 Q 62 204 67 201 Q 80 190 86 173 L 88 164 Q 96 135 90 123 Q 88 121 90 118 Q 91 116 96 118 Q 101 121 105 125 L 108 133 Q 108 136 100 163" fill="#7f0000" /><path d="M 178 204 Q 190 205 196 205 Q 203 205 207 210 Q 212 213 214 219 Q 215 223 211 223 Q 208 225 203 223 Q 190 218 176 216 L 161 214 Q 151 211 128 210 Q 90 209 79 217 L 88 196 Q 86 202 91 202 Q 135 200 163 202" fill="#7f0000" /><path d="M 105 125 Q 115 124 145 120 Q 170 114 174 116 Q 184 119 190 126 L 166 128 Q 161 125 154 126 Q 117 133 108 133" fill="#9f0000" /><path d="M 181 170 L 178 204 L 176 216 Q 171 247 155 257 L 156 230 Q 159 225 161 214 L 163 202 Q 166 188 167 167 L 168 157 Q 168 149 169 140 Q 169 130 166 128 L 190 126 Q 193 129 188 135 Q 184 139 183 155 L 182 167" fill="#9f0000" /><path d="M 155 257 Q 151 259 146 253 Q 139 243 128 234 Q 122 228 130 229 Q 129 231 147 233 Q 154 235 156 230" fill="#9f0000" /><path d="M 124 136 L 125 135 Q 126 132 127 133 Q 139 136 142 143 Q 143 148 142 150 Q 140 154 137 153 Q 133 152 126 138" fill="#bf0000" /><path d="M 167 167 Q 137 167 114 170 Q 106 170 98 171 L 86 173 Q 60 175 38 181 Q 33 182 27 180 Q 22 178 18 174 Q 13 169 20 169 Q 55 166 88 164 L 100 163 Q 117 161 133 160 Q 152 158 168 157 L 183 155 Q 201 152 215 151 Q 235 146 251 159 Q 256 163 254 167 Q 252 169 247 169 Q 201 167 182 167" fill="#df0000" /><path d="M 118 176 L 119 174 Q 120 172 121 172 Q 135 177 138 185 Q 140 190 139 193 Q 137 196 134 196 Q 128 194 119 178" fill="#ff0000" /></svg>