<svg xmlns="http://www.w3.org/2000/svg" xmlns:xlink="http://www.w3.org/1999/xlink" width="270" height="270"><path d="M 0 0 L 270 270 M 270 0 L 0 270 M 135 0 L 135 270 M 0 135 L 270 135" stroke="#CCCCCC" /><path d="M 50 56 L 49 52 Q 48 49 50 48 Q 52 47 56 48 Q 83 56 85 64 Q 87 73 86 77 Q 85 81 82 81 Q 77 81 73 77 Q 65 69 57 62" fill="#CCCCCC"/><path d="M 22 110 L 22 107 Q 21 104 23 103 Q 26 102 30 104 L 30 104 Q 52 110 55 122 Q 55 127 54 130 Q 51 134 47 133 Q 39 129 26 114" fill="#CCCCCC"/><path d="M 36 207 L 40 202 Q 69 150 74 147 Q 76 145 76 148 Q 77 149 75 153 Q 49 223 46 238 Q 46 245 44 246 Q 41 246 40 245 Q 31 240 26 220 Q 25 215 29 214" fill="#CCCCCC"/><path d="M 115 175 Q 108 170 111 163 Q 119 150 122 134 L 124 124 Q 140 46 130 32 Q 127 27 131 25 Q 136 23 142 26 Q 155 34 160 39 Q 162 43 158 49 Q 153 57 150 71 Q 144 96 137 122 L 134 131 Q 129 147 124 163" fill="#CCCCCC"/><path d="M 131 182 L 115 175 L 124 163 Q 124 169 130 171 Q 143 177 153 182 L 165 188 Q 190 200 201 207 Q 208 211 209 219 Q 212 227 210 231 Q 209 234 206 234 Q 203 234 198 230 Q 163 201 156 199 L 145 191" fill="#CCCCCC"/><path d="M 153 182 Q 170 159 171 128 Q 171 127 171 126 L 169 116 Q 168 113 167 111 Q 164 107 168 105 Q 172 103 181 108 Q 187 110 190 112 L 189 124 Q 180 168 165 188 L 156 199 Q 148 207 133 215 Q 102 228 87 227 Q 78 226 86 223 Q 129 207 145 191" fill="#CCCCCC"/><path d="M 171 126 Q 147 128 134 131 L 122 134 Q 109 136 99 139 Q 85 142 78 136 Q 73 131 79 131 Q 102 127 124 124 L 137 122 Q 140 120 169 116 L 190 112 Q 201 109 211 107 Q 228 102 243 112 Q 248 116 246 119 Q 244 122 227 122 Q 206 122 189 124" fill="#CCCCCC"/><path d="M 50 56 L 49 52 Q 48 49 50 48 Q 52 47 56 48 Q 83 56 85 64 Q 87 73 86 77 Q 85 81 82 81 Q 77 81 73 77 Q 65 69 57 62" fill="#000000" /><path d="M 22 110 L 22 107 Q 21 104 23 103 Q 26 102 30 104 L 30 104 Q 52 110 55 122 Q 55 127 54 130 Q 51 134 47 133 Q 39 129 26 114" fill="#330000" /><path d="M 36 207 L 40 202 Q 69 150 74 147 Q 76 145 76 148 Q 77 149 75 153 Q 49 223 46 238 Q 46 245 44 246 Q 41 246 40 245 Q 31 240 26 220 Q 25 215 29 214" fill="#660000" /><path d="M 115 175 Q 108 170 111 163 Q 119 150 122 134 L 124 124 Q 140 46 130 32 Q 127 27 131 25 Q 136 23 142 26 Q 155 34 160 39 Q 162 43 158 49 Q 153 57 150 71 Q 144 96 137 122 L 134 131 Q 129 147 124 163" fill="#990000" /><path d="M 131 182 L 115 175 L 124 163 Q 124 169 130 171 Q 143 177 153 182 L 165 188 Q 190 200 201 207 Q 208 211 209 219 Q 212 227 210 231 Q 209 234 206 234 Q 203 234 198 230 Q 163 201 156 199 L 145 191" fill="#990000" /><path d="M 153 182 Q 170 159 171 128 Q 171 127 171 126 L 169 116 Q 168 113 167 111 Q 164 107 168 105 Q 172 103 181 108 Q 187 110 190 112 L 189 124 Q 180 168 165 188 L 156 199 Q 148 207 133 215 Q 102 228 87 227 Q 78 226 86 223 Q 129 207 145 191" fill="#cc0000" /><path d="M 171 126 Q 147 128 134 131 L 122 134 Q 109 136 99 139 Q 85 142 78 136 Q 73 131 79 131 Q 102 127 124 124 L 137 122 Q 140 120 169 116 L 190 112 Q 201 109 211 107 Q 228 102 243 112 Q 248 116 246 119 Q 244 122 227 122 Q 206 122 189 124" fill="#ff0000" /></svg>