<svg xmlns="http://www.w3.org/2000/svg" xmlns:xlink="http://www.w3.org/1999/xlink" width="270" height="270"><path d="M 0 0 L 270 270 M 270 0 L 0 270 M 135 0 L 135 270 M 0 135 L 270 135" stroke="#CCCCCC" /><path d="M 42 59 L 41 55 Q 41 51 43 50 Q 45 50 49 51 Q 71 55 73 62 Q 76 72 74 76 Q 72 80 69 80 Q 63 80 51 65" fill="#CCCCCC"/><path d="M 17 108 L 17 105 Q 16 101 18 101 Q 25 98 42 106 Q 48 110 49 117 Q 50 122 48 126 Q 46 130 41 129 Q 32 125 22 112" fill="#CCCCCC"/><path d="M 35 190 L 38 184 Q 68 132 70 131 Q 72 129 73 132 Q 73 133 71 137 Q 47 206 45 219 Q 45 226 43 226 Q 40 227 39 225 Q 29 220 25 201 Q 24 197 27 196" fill="#CCCCCC"/><path d="M 131 109 Q 115 113 102 116 Q 95 118 85 111 Q 78 106 86 105 Q 100 103 112 101 Q 125 99 139 96 L 152 92 Q 161 89 169 87 Q 188 80 198 86 Q 204 89 204 92 Q 202 96 199 95 Q 154 104 152 104" fill="#CCCCCC"/><path d="M 151 218 L 151 230 Q 152 248 143 254 Q 141 256 139 254 Q 137 253 135 248 Q 127 230 130 218 Q 134 206 136 194 Q 137 180 138 129 L 139 96 Q 139 94 139 93 Q 138 71 138 51 Q 137 37 128 23 Q 126 19 128 17 Q 134 13 141 18 Q 157 28 160 31 Q 160 35 158 39 Q 152 59 152 92 L 152 104 Q 152 111 152 117 L 152 130" fill="#CCCCCC"/><path d="M 138 129 Q 136 132 134 136 Q 113 173 91 192 Q 69 210 62 209 Q 60 208 63 205 Q 115 154 131 109 L 139 96" fill="#CCCCCC"/><path d="M 152 117 Q 153 118 154 119 Q 171 138 185 151 Q 211 173 250 189 Q 253 190 252 192 Q 249 196 214 200 Q 211 199 210 199 Q 202 197 152 130" fill="#CCCCCC"/><path d="M 42 59 L 41 55 Q 41 51 43 50 Q 45 50 49 51 Q 71 55 73 62 Q 76 72 74 76 Q 72 80 69 80 Q 63 80 51 65" fill="#000000" /><path d="M 17 108 L 17 105 Q 16 101 18 101 Q 25 98 42 106 Q 48 110 49 117 Q 50 122 48 126 Q 46 130 41 129 Q 32 125 22 112" fill="#2a0000" /><path d="M 35 190 L 38 184 Q 68 132 70 131 Q 72 129 73 132 Q 73 133 71 137 Q 47 206 45 219 Q 45 226 43 226 Q 40 227 39 225 Q 29 220 25 201 Q 24 197 27 196" fill="#550000" /><path d="M 131 109 Q 115 113 102 116 Q 95 118 85 111 Q 78 106 86 105 Q 100 103 112 101 Q 125 99 139 96 L 152 92 Q 161 89 169 87 Q 188 80 198 86 Q 204 89 204 92 Q 202 96 199 95 Q 154 104 152 104" fill="#7f0000" /><path d="M 151 218 L 151 230 Q 152 248 143 254 Q 141 256 139 254 Q 137 253 135 248 Q 127 230 130 218 Q 134 206 136 194 Q 137 180 138 129 L 139 96 Q 139 94 139 93 Q 138 71 138 51 Q 137 37 128 23 Q 126 19 128 17 Q 134 13 141 18 Q 157 28 160 31 Q 160 35 158 39 Q 152 59 152 92 L 152 104 Q 152 111 152 117 L 152 130" fill="#aa0000" /><path d="M 138 129 Q 136 132 134 136 Q 113 173 91 192 Q 69 210 62 209 Q 60 208 63 205 Q 115 154 131 109 L 139 96" fill="#d40000" /><path d="M 152 117 Q 153 118 154 119 Q 171 138 185 151 Q 211 173 250 189 Q 253 190 252 192 Q 249 196 214 200 Q 211 199 210 199 Q 202 197 152 130" fill="#ff0000" /></svg>