<svg xmlns="http://www.w3.org/2000/svg" xmlns:xlink="http://www.w3.org/1999/xlink" width="270" height="270"><path d="M 0 0 L 270 270 M 270 0 L 0 270 M 135 0 L 135 270 M 0 135 L 270 135" stroke="#CCCCCC" /><path d="M 51 36 L 50 33 Q 49 29 50 28 Q 54 26 73 31 Q 81 34 83 39 Q 86 48 85 52 Q 83 56 80 57 Q 76 57 71 53 Q 65 47 59 42" fill="#CCCCCC"/><path d="M 28 89 L 27 85 Q 26 82 28 81 Q 29 80 31 80 Q 44 80 52 85 Q 58 88 61 95 Q 62 100 60 104 Q 58 108 53 108 Q 44 104 33 93" fill="#CCCCCC"/><path d="M 42 179 L 45 174 Q 74 128 77 127 Q 79 125 79 128 Q 79 129 59 183 Q 54 198 52 208 Q 52 215 50 216 Q 47 216 45 215 Q 37 210 32 189 Q 32 185 35 184" fill="#CCCCCC"/><path d="M 137 67 L 101 77 Q 90 80 82 72 Q 78 68 84 67 Q 179 53 214 45 Q 224 42 238 52 Q 243 56 241 59 Q 240 61 235 61 Q 205 62 187 63 L 171 65" fill="#CCCCCC"/><path d="M 111 153 L 110 156 Q 109 160 104 154 Q 100 150 100 143 Q 96 122 90 108 Q 87 104 89 102 Q 90 101 93 102 Q 103 104 105 106 L 107 113 Q 107 120 111 140 L 111 149" fill="#CCCCCC"/><path d="M 105 106 Q 109 105 129 99 Q 141 92 146 95 Q 153 100 158 103 L 138 110 Q 137 107 131 108 Q 128 109 107 113" fill="#CCCCCC"/><path d="M 158 103 Q 165 107 158 114 Q 152 119 147 136 L 133 135 Q 136 126 137 119 Q 140 111 138 110" fill="#CCCCCC"/><path d="M 111 140 Q 120 138 132 135 Q 133 134 133 135 L 147 136 Q 152 140 152 142 Q 152 144 149 145 Q 126 146 116 149 Q 113 149 111 149" fill="#CCCCCC"/><path d="M 187 63 Q 193 67 195 70 Q 197 73 195 81 Q 192 128 196 200 Q 197 223 184 239 Q 179 243 176 241 L 174 209 Q 177 206 178 198 Q 177 121 176 88 Q 176 75 173 68 Q 171 66 171 65" fill="#CCCCCC"/><path d="M 176 241 Q 167 228 153 210 Q 150 207 150 205 Q 151 203 155 204 Q 172 210 174 209" fill="#CCCCCC"/><path d="M 51 36 L 50 33 Q 49 29 50 28 Q 54 26 73 31 Q 81 34 83 39 Q 86 48 85 52 Q 83 56 80 57 Q 76 57 71 53 Q 65 47 59 42" fill="#000000" /><path d="M 28 89 L 27 85 Q 26 82 28 81 Q 29 80 31 80 Q 44 80 52 85 Q 58 88 61 95 Q 62 100 60 104 Q 58 108 53 108 Q 44 104 33 93" fill="#240000" /><path d="M 42 179 L 45 174 Q 74 128 77 127 Q 79 125 79 128 Q 79 129 59 183 Q 54 198 52 208 Q 52 215 50 216 Q 47 216 45 215 Q 37 210 32 189 Q 32 185 35 184" fill="#480000" /><path d="M 137 67 L 101 77 Q 90 80 82 72 Q 78 68 84 67 Q 179 53 214 45 Q 224 42 238 52 Q 243 56 241 59 Q 240 61 235 61 Q 205 62 187 63 L 171 65" fill="#6d0000" /><path d="M 111 153 L 110 156 Q 109 160 104 154 Q 100 150 100 143 Q 96 122 90 108 Q 87 104 89 102 Q 90 101 93 102 Q 103 104 105 106 L 107 113 Q 107 120 111 140 L 111 149" fill="#910000" /><path d="M 105 106 Q 109 105 129 99 Q 141 92 146 95 Q 153 100 158 103 L 138 110 Q 137 107 131 108 Q 128 109 107 113" fill="#b60000" /><path d="M 158 103 Q 165 107 158 114 Q 152 119 147 136 L 133 135 Q 136 126 137 119 Q 140 111 138 110" fill="#b60000" /><path d="M 111 140 Q 120 138 132 135 Q 133 134 133 135 L 147 136 Q 152 140 152 142 Q 152 144 149 145 Q 126 146 116 149 Q 113 149 111 149" fill="#da0000" /><path d="M 187 63 Q 193 67 195 70 Q 197 73 195 81 Q 192 128 196 200 Q 197 223 184 239 Q 179 243 176 241 L 174 209 Q 177 206 178 198 Q 177 121 176 88 Q 176 75 173 68 Q 171 66 171 65" fill="#ff0000" /><path d="M 176 241 Q 167 228 153 210 Q 150 207 150 205 Q 151 203 155 204 Q 172 210 174 209" fill="#ff0000" /></svg>