<svg xmlns="http://www.w3.org/2000/svg" xmlns:xlink="http://www.w3.org/1999/xlink" width="270" height="270"><path d="M 0 0 L 270 270 M 270 0 L 0 270 M 135 0 L 135 270 M 0 135 L 270 135" stroke="#CCCCCC" /><path d="M 52 53 L 51 50 Q 50 45 52 44 Q 54 44 59 45 Q 82 50 86 58 Q 88 67 87 72 Q 85 76 82 76 Q 76 77 72 72 Q 66 66 60 60" fill="#000000" /><path d="M 27 113 L 27 109 Q 26 105 28 105 Q 29 104 32 105 Q 43 105 53 111 Q 59 115 60 122 Q 61 127 59 131 Q 57 135 52 135 Q 43 130 32 117" fill="#240000" /><path d="M 40 197 L 44 191 Q 73 140 76 138 Q 78 137 78 139 Q 79 141 77 145 Q 52 213 51 227 Q 51 234 49 234 Q 46 235 45 233 Q 36 229 31 208 Q 30 204 33 203" fill="#480000" /><path d="M 136 44 L 135 40 Q 135 36 137 35 Q 139 34 144 35 Q 170 43 173 51 Q 176 61 174 66 Q 172 70 169 70 Q 164 70 160 66 Q 152 57 145 51" fill="#6d0000" /><path d="M 136 100 L 159 94 Q 188 85 194 87 Q 203 89 205 92 Q 207 95 204 97 Q 202 99 191 102 Q 166 107 141 112 Q 125 116 113 109 Q 105 104 116 102" fill="#910000" /><path d="M 113 140 L 114 137 Q 114 133 116 134 Q 117 134 118 134 Q 128 138 136 151 Q 139 156 138 162 Q 137 167 134 169 Q 131 172 127 169 Q 121 162 115 145" fill="#b60000" /><path d="M 151 186 L 155 177 Q 175 135 172 122 Q 170 119 174 117 Q 179 116 183 119 Q 193 125 196 131 Q 198 134 193 138 Q 186 148 182 155 Q 168 181 161 190 L 149 191" fill="#da0000" /><path d="M 161 190 Q 192 185 213 182 Q 223 180 238 191 Q 243 196 241 199 Q 240 201 234 201 Q 233 201 232 201 Q 152 196 90 211 Q 85 212 79 210 Q 74 209 70 204 Q 66 199 72 199 Q 114 195 149 191" fill="#ff0000" /></svg>