<svg xmlns="http://www.w3.org/2000/svg" xmlns:xlink="http://www.w3.org/1999/xlink" width="270" height="270"><path d="M 0 0 L 270 270 M 270 0 L 0 270 M 135 0 L 135 270 M 0 135 L 270 135" stroke="#CCCCCC" /><path d="M 54 56 L 53 53 Q 52 49 54 48 Q 56 47 61 48 Q 85 55 89 63 Q 91 72 89 77 Q 88 81 85 81 Q 80 81 76 77 Q 69 69 62 63" fill="#CCCCCC"/><path d="M 27 108 L 26 104 Q 26 101 28 101 Q 29 99 32 100 Q 49 106 52 108 Q 57 112 58 119 Q 58 124 57 127 Q 54 131 50 130 Q 40 125 31 112" fill="#CCCCCC"/><path d="M 42 196 L 45 190 Q 77 134 80 133 Q 83 131 83 133 Q 83 136 82 140 Q 55 210 52 227 Q 52 234 50 235 Q 47 235 45 234 Q 36 229 31 208 Q 30 203 34 202" fill="#CCCCCC"/><path d="M 134 43 L 132 40 Q 131 36 133 34 Q 135 34 140 34 Q 169 37 173 46 Q 178 55 177 60 Q 176 65 172 65 Q 167 66 162 63 Q 152 55 143 49" fill="#CCCCCC"/><path d="M 145 112 Q 139 113 135 114 Q 114 118 103 113 Q 96 108 105 106 Q 136 103 166 94 Q 194 85 201 86 Q 209 88 211 91 Q 212 94 210 96 Q 207 98 159 109" fill="#CCCCCC"/><path d="M 148 164 Q 143 165 139 166 Q 124 171 112 164 Q 105 160 115 158 Q 132 156 148 152 L 165 147 Q 184 140 192 142 Q 199 143 201 146 Q 203 149 200 151 Q 198 152 187 156 Q 176 158 164 161" fill="#CCCCCC"/><path d="M 148 203 Q 148 180 148 164 L 148 152 Q 149 118 145 112 L 159 109 Q 169 117 166 124 Q 165 131 165 147 L 164 161 Q 163 180 162 202" fill="#CCCCCC"/><path d="M 193 197 L 213 194 Q 224 192 239 204 Q 243 207 241 211 Q 240 213 234 213 Q 229 213 223 213 Q 148 210 100 222 Q 95 223 89 221 Q 84 219 80 215 Q 76 210 82 210 Q 118 206 148 203 L 162 202" fill="#CCCCCC"/><path d="M 54 56 L 53 53 Q 52 49 54 48 Q 56 47 61 48 Q 85 55 89 63 Q 91 72 89 77 Q 88 81 85 81 Q 80 81 76 77 Q 69 69 62 63" fill="#000000" /><path d="M 27 108 L 26 104 Q 26 101 28 101 Q 29 99 32 100 Q 49 106 52 108 Q 57 112 58 119 Q 58 124 57 127 Q 54 131 50 130 Q 40 125 31 112" fill="#240000" /><path d="M 42 196 L 45 190 Q 77 134 80 133 Q 83 131 83 133 Q 83 136 82 140 Q 55 210 52 227 Q 52 234 50 235 Q 47 235 45 234 Q 36 229 31 208 Q 30 203 34 202" fill="#480000" /><path d="M 134 43 L 132 40 Q 131 36 133 34 Q 135 34 140 34 Q 169 37 173 46 Q 178 55 177 60 Q 176 65 172 65 Q 167 66 162 63 Q 152 55 143 49" fill="#6d0000" /><path d="M 145 112 Q 139 113 135 114 Q 114 118 103 113 Q 96 108 105 106 Q 136 103 166 94 Q 194 85 201 86 Q 209 88 211 91 Q 212 94 210 96 Q 207 98 159 109" fill="#910000" /><path d="M 148 164 Q 143 165 139 166 Q 124 171 112 164 Q 105 160 115 158 Q 132 156 148 152 L 165 147 Q 184 140 192 142 Q 199 143 201 146 Q 203 149 200 151 Q 198 152 187 156 Q 176 158 164 161" fill="#b60000" /><path d="M 148 203 Q 148 180 148 164 L 148 152 Q 149 118 145 112 L 159 109 Q 169 117 166 124 Q 165 131 165 147 L 164 161 Q 163 180 162 202" fill="#da0000" /><path d="M 193 197 L 213 194 Q 224 192 239 204 Q 243 207 241 211 Q 240 213 234 213 Q 229 213 223 213 Q 148 210 100 222 Q 95 223 89 221 Q 84 219 80 215 Q 76 210 82 210 Q 118 206 148 203 L 162 202" fill="#ff0000" /></svg>