<svg xmlns="http://www.w3.org/2000/svg" xmlns:xlink="http://www.w3.org/1999/xlink" width="270" height="270"><path d="M 0 0 L 270 270 M 270 0 L 0 270 M 135 0 L 135 270 M 0 135 L 270 135" stroke="#CCCCCC" /><path d="M 47 46 L 46 43 Q 46 39 47 38 Q 49 38 54 39 Q 80 46 82 56 Q 84 65 83 69 Q 81 73 78 73 Q 73 73 69 69 Q 62 60 55 53" fill="#000000" /><path d="M 25 104 L 24 101 Q 23 97 25 97 Q 27 96 32 97 Q 54 100 59 112 Q 60 117 58 121 Q 56 125 51 124 Q 43 121 29 108" fill="#1f0000" /><path d="M 30 187 L 33 183 Q 60 137 65 134 Q 68 132 68 135 Q 68 137 66 141 Q 41 206 39 217 Q 39 224 37 224 Q 34 225 32 223 Q 23 217 20 199 Q 19 194 23 193" fill="#3f0000" /><path d="M 92 109 L 87 109 Q 83 110 84 107 Q 85 105 88 103 Q 101 87 111 72 Q 133 39 128 29 Q 126 23 131 23 Q 136 23 142 28 Q 149 33 150 37 Q 151 37 151 38 Q 150 39 132 64 L 127 71 Q 121 79 115 85 Q 114 86 113 87 L 108 93" fill="#5f0000" /><path d="M 132 64 Q 147 61 162 56 Q 172 50 176 53 Q 194 60 194 63 Q 196 65 192 68 L 161 70 Q 159 68 154 69 Q 135 75 127 71" fill="#7f0000" /><path d="M 192 68 Q 182 76 176 84 Q 163 102 151 117 L 144 125 Q 144 125 144 125 Q 129 143 113 156 Q 97 170 82 177 Q 69 184 67 184 Q 63 184 66 180 Q 111 145 135 115 L 141 107 Q 151 92 159 78 Q 162 72 161 70" fill="#7f0000" /><path d="M 151 117 Q 155 119 159 122 Q 182 140 222 151 Q 231 153 239 155 Q 248 158 249 159 Q 250 162 240 164 Q 216 168 195 168 Q 186 166 144 125 L 135 115 Q 118 98 108 93 L 113 87 Q 121 88 129 96 Q 135 102 141 107" fill="#9f0000" /><path d="M 118 239 L 117 242 Q 115 246 110 240 Q 106 235 105 227 Q 102 201 94 184 Q 92 180 94 178 Q 95 177 98 178 Q 107 179 110 181 L 113 190 Q 114 199 117 224 L 118 233" fill="#bf0000" /><path d="M 110 181 Q 135 178 154 173 Q 174 167 179 169 Q 193 177 198 181 L 170 184 Q 169 183 168 183 Q 167 182 113 190" fill="#df0000" /><path d="M 164 217 L 164 217 Q 168 205 171 191 Q 172 186 170 184 L 198 181 Q 201 186 197 191 Q 187 198 179 219" fill="#df0000" /><path d="M 117 224 Q 138 222 164 217 L 179 219 Q 186 224 186 227 Q 185 229 182 230 Q 142 230 123 233 Q 120 234 118 233" fill="#ff0000" /></svg>