<svg xmlns="http://www.w3.org/2000/svg" xmlns:xlink="http://www.w3.org/1999/xlink" width="270" height="270"><path d="M 0 0 L 270 270 M 270 0 L 0 270 M 135 0 L 135 270 M 0 135 L 270 135" stroke="#CCCCCC" /><path d="M 46 64 L 45 60 Q 45 57 46 55 Q 50 54 70 63 Q 79 67 80 73 Q 82 82 80 86 Q 78 90 75 90 Q 70 90 66 86 Q 60 77 53 71" fill="#000000" /><path d="M 23 116 L 23 113 Q 22 109 24 109 Q 26 108 29 109 Q 45 114 48 116 Q 53 120 55 127 Q 55 133 53 136 Q 50 140 46 139 Q 37 134 28 121" fill="#1c0000" /><path d="M 34 203 L 37 197 Q 65 146 69 143 Q 71 141 71 144 Q 71 145 52 205 Q 46 222 45 233 Q 45 240 43 241 Q 40 242 38 240 Q 30 236 24 215 Q 23 210 26 209" fill="#380000" /><path d="M 113 105 Q 97 132 85 134 Q 81 136 83 132 Q 88 122 90 121 Q 107 93 102 75 Q 101 71 104 70 Q 110 68 123 76 Q 127 80 125 83 Q 120 90 116 99" fill="#550000" /><path d="M 146 107 Q 143 107 141 107 Q 125 112 113 105 L 116 99 Q 132 97 146 94 L 161 89 Q 185 81 192 82 Q 200 84 202 88 Q 204 90 201 92 Q 199 93 160 103" fill="#710000" /><path d="M 145 124 L 146 107 L 146 94 Q 146 71 145 49 Q 145 43 138 33 Q 136 29 138 27 Q 141 24 145 25 Q 153 26 163 32 Q 169 37 168 40 Q 162 58 161 89 L 160 103 Q 158 122 157 141 L 144 143" fill="#8d0000" /><path d="M 157 141 Q 194 134 215 128 Q 226 126 242 136 Q 247 140 245 143 Q 244 146 238 146 L 237 146 Q 157 146 96 165 Q 86 168 76 160 Q 71 155 77 155 Q 113 149 144 143" fill="#aa0000" /><path d="M 125 237 L 124 241 Q 123 245 117 239 Q 113 235 111 227 Q 104 203 96 188 Q 93 184 95 182 Q 96 180 99 181 Q 110 182 113 184 L 116 193 Q 117 201 123 222 L 124 232" fill="#c60000" /><path d="M 113 184 Q 152 179 177 170 Q 183 168 188 170 Q 202 178 206 182 L 179 184 Q 177 181 170 183 Q 117 192 116 193" fill="#e20000" /><path d="M 174 214 Q 182 188 179 184 L 206 182 Q 210 187 205 192 Q 197 197 189 216" fill="#e20000" /><path d="M 123 222 Q 145 220 174 214 L 189 216 Q 196 221 196 223 Q 195 225 192 225 Q 147 228 127 231 Q 125 232 124 232" fill="#ff0000" /></svg>