<svg xmlns="http://www.w3.org/2000/svg" xmlns:xlink="http://www.w3.org/1999/xlink" width="270" height="270"><path d="M 0 0 L 270 270 M 270 0 L 0 270 M 135 0 L 135 270 M 0 135 L 270 135" stroke="#CCCCCC" /><path d="M 40 44 L 39 41 Q 38 37 40 36 Q 43 34 65 41 Q 74 45 76 50 Q 79 59 77 63 Q 76 67 73 68 Q 68 68 64 64 Q 56 57 48 50" fill="#CCCCCC"/><path d="M 22 108 L 22 105 Q 21 101 23 101 Q 25 100 30 101 Q 51 107 55 119 Q 56 123 54 127 Q 52 130 48 129 Q 39 125 26 111" fill="#CCCCCC"/><path d="M 38 194 L 41 188 Q 72 139 76 137 Q 78 135 78 138 Q 78 140 77 144 Q 49 214 47 224 Q 46 231 45 231 Q 42 232 40 230 Q 30 224 27 204 Q 27 200 30 199" fill="#CCCCCC"/><path d="M 126 23 L 125 21 Q 124 17 125 16 Q 127 14 146 17 Q 153 19 155 24 Q 158 31 158 35 Q 156 39 154 40 Q 150 40 145 37 Q 139 32 134 28" fill="#CCCCCC"/><path d="M 165 60 Q 163 59 158 60 Q 130 67 117 72 L 111 63 Q 147 51 153 51 Q 170 47 173 49 Q 187 55 192 60" fill="#CCCCCC"/><path d="M 157 122 Q 157 121 157 121 Q 160 113 167 73 Q 168 62 165 60 L 192 60 Q 197 64 192 68 Q 183 77 179 91 Q 172 123 168 130 Q 166 134 163 135 Q 159 135 157 131 Q 157 130 157 129" fill="#CCCCCC"/><path d="M 115 96 Q 133 87 143 88 Q 150 89 153 93 Q 155 96 149 97 Q 136 99 119 103 Q 117 103 115 103" fill="#CCCCCC"/><path d="M 116 128 Q 129 125 144 120 Q 151 118 155 120 Q 156 121 157 122 L 157 129 Q 132 131 115 135" fill="#CCCCCC"/><path d="M 116 140 Q 115 173 113 213 L 102 250 Q 98 255 94 252 Q 91 249 87 242 Q 85 235 88 230 Q 99 216 99 201 Q 110 95 93 63 Q 91 59 94 57 Q 97 55 102 57 Q 106 59 111 63 L 117 72 Q 116 84 115 96 L 115 103 Q 116 115 116 128" fill="#CCCCCC"/><path d="M 113 213 Q 113 215 116 214 Q 149 194 150 194 Q 153 194 152 197 Q 151 200 146 204 Q 106 241 102 250" fill="#CCCCCC"/><path d="M 165 159 L 171 153 Q 191 133 191 126 Q 190 123 193 123 Q 197 122 203 126 Q 209 130 212 135 Q 215 141 209 142 Q 203 145 197 148 Q 176 162 163 169 L 159 166" fill="#CCCCCC"/><path d="M 163 169 Q 168 173 173 176 Q 198 193 245 203 Q 248 203 247 205 Q 245 208 241 209 Q 217 216 199 216 Q 190 214 127 149 Q 122 143 116 140 L 116 128 L 121 135 Q 128 142 159 166" fill="#CCCCCC"/><path d="M 40 44 L 39 41 Q 38 37 40 36 Q 43 34 65 41 Q 74 45 76 50 Q 79 59 77 63 Q 76 67 73 68 Q 68 68 64 64 Q 56 57 48 50" fill="#000000" /><path d="M 22 108 L 22 105 Q 21 101 23 101 Q 25 100 30 101 Q 51 107 55 119 Q 56 123 54 127 Q 52 130 48 129 Q 39 125 26 111" fill="#1c0000" /><path d="M 38 194 L 41 188 Q 72 139 76 137 Q 78 135 78 138 Q 78 140 77 144 Q 49 214 47 224 Q 46 231 45 231 Q 42 232 40 230 Q 30 224 27 204 Q 27 200 30 199" fill="#380000" /><path d="M 126 23 L 125 21 Q 124 17 125 16 Q 127 14 146 17 Q 153 19 155 24 Q 158 31 158 35 Q 156 39 154 40 Q 150 40 145 37 Q 139 32 134 28" fill="#550000" /><path d="M 165 60 Q 163 59 158 60 Q 130 67 117 72 L 111 63 Q 147 51 153 51 Q 170 47 173 49 Q 187 55 192 60" fill="#710000" /><path d="M 157 122 Q 157 121 157 121 Q 160 113 167 73 Q 168 62 165 60 L 192 60 Q 197 64 192 68 Q 183 77 179 91 Q 172 123 168 130 Q 166 134 163 135 Q 159 135 157 131 Q 157 130 157 129" fill="#710000" /><path d="M 115 96 Q 133 87 143 88 Q 150 89 153 93 Q 155 96 149 97 Q 136 99 119 103 Q 117 103 115 103" fill="#8d0000" /><path d="M 116 128 Q 129 125 144 120 Q 151 118 155 120 Q 156 121 157 122 L 157 129 Q 132 131 115 135" fill="#aa0000" /><path d="M 116 140 Q 115 173 113 213 L 102 250 Q 98 255 94 252 Q 91 249 87 242 Q 85 235 88 230 Q 99 216 99 201 Q 110 95 93 63 Q 91 59 94 57 Q 97 55 102 57 Q 106 59 111 63 L 117 72 Q 116 84 115 96 L 115 103 Q 116 115 116 128" fill="#c60000" /><path d="M 113 213 Q 113 215 116 214 Q 149 194 150 194 Q 153 194 152 197 Q 151 200 146 204 Q 106 241 102 250" fill="#c60000" /><path d="M 165 159 L 171 153 Q 191 133 191 126 Q 190 123 193 123 Q 197 122 203 126 Q 209 130 212 135 Q 215 141 209 142 Q 203 145 197 148 Q 176 162 163 169 L 159 166" fill="#e20000" /><path d="M 163 169 Q 168 173 173 176 Q 198 193 245 203 Q 248 203 247 205 Q 245 208 241 209 Q 217 216 199 216 Q 190 214 127 149 Q 122 143 116 140 L 116 128 L 121 135 Q 128 142 159 166" fill="#ff0000" /></svg>