<svg xmlns="http://www.w3.org/2000/svg" xmlns:xlink="http://www.w3.org/1999/xlink" width="270" height="270"><path d="M 0 0 L 270 270 M 270 0 L 0 270 M 135 0 L 135 270 M 0 135 L 270 135" stroke="#CCCCCC" /><path d="M 47 44 L 47 40 Q 47 37 49 36 Q 51 35 55 37 Q 78 46 79 54 Q 81 63 79 67 Q 77 71 73 71 Q 69 70 65 66 Q 60 58 54 51" fill="#000000" /><path d="M 26 91 L 26 88 Q 25 84 27 84 Q 28 83 29 84 Q 39 84 52 92 Q 56 96 58 103 Q 58 108 57 111 Q 54 115 50 114 Q 40 108 30 95" fill="#1c0000" /><path d="M 30 181 L 33 176 Q 61 128 65 126 Q 68 124 68 126 Q 68 128 66 132 Q 42 199 40 211 Q 40 218 38 218 Q 35 219 33 217 Q 24 213 20 192 Q 19 188 22 187" fill="#380000" /><path d="M 99 91 L 89 92 Q 86 93 87 90 Q 87 89 90 86 Q 101 72 109 59 Q 127 30 123 21 Q 121 16 125 15 Q 130 16 137 20 Q 143 26 144 29 Q 144 29 145 30 Q 144 31 125 58 L 120 64" fill="#550000" /><path d="M 125 58 Q 141 56 162 52 Q 190 43 197 45 Q 204 47 206 50 Q 207 53 205 54 Q 203 56 192 58 Q 169 63 146 67 Q 133 70 120 64" fill="#710000" /><path d="M 111 147 Q 104 164 93 187 L 84 204 Q 81 206 79 204 Q 75 199 74 194 Q 73 191 75 188 Q 88 179 99 149 L 103 139 Q 110 121 113 106 Q 115 97 112 88 Q 112 86 114 83 Q 117 81 126 91 L 130 99 Q 130 100 129 102 Q 126 107 124 116 Q 120 125 115 138" fill="#8d0000" /><path d="M 139 193 L 116 197 Q 95 200 84 204 L 93 187 Q 92 190 95 189 Q 131 186 171 186 L 188 186 Q 210 183 214 187 Q 226 195 229 200 Q 231 205 228 206 Q 225 207 220 205 Q 204 199 186 197 L 168 195" fill="#8d0000" /><path d="M 126 91 Q 143 89 154 87 Q 164 85 177 80 Q 183 78 187 81 Q 197 85 203 90 L 178 92 Q 174 89 169 90 Q 139 99 133 99 Q 131 99 130 99" fill="#aa0000" /><path d="M 171 186 Q 174 169 178 141 L 179 132 Q 182 95 178 92 L 203 90 Q 206 93 201 100 Q 196 105 194 129 L 193 141 Q 191 161 188 186 L 186 197 Q 186 199 185 202 Q 180 239 159 250 L 159 222 Q 164 215 168 195" fill="#aa0000" /><path d="M 159 250 Q 154 254 148 245 Q 142 234 133 223 Q 127 215 135 218 Q 134 219 151 224 Q 157 226 159 222" fill="#aa0000" /><path d="M 140 107 L 141 106 Q 142 103 144 104 Q 155 109 158 117 Q 158 123 157 126 Q 154 129 151 128 Q 145 125 141 110" fill="#c60000" /><path d="M 178 141 Q 136 142 111 147 L 99 149 Q 83 152 79 151 Q 75 149 71 146 Q 67 141 73 141 Q 88 140 103 139 L 115 138 Q 136 136 156 134 Q 168 132 179 132 L 194 129 Q 206 127 217 126 Q 232 122 246 133 Q 250 137 248 140 Q 247 142 242 142 Q 216 140 193 141" fill="#e20000" /><path d="M 132 156 L 132 154 Q 132 151 133 151 Q 136 151 139 153 Q 146 156 149 160 Q 152 164 152 169 Q 151 173 149 175 Q 147 177 144 176 Q 138 170 134 160" fill="#ff0000" /></svg>