<svg xmlns="http://www.w3.org/2000/svg" xmlns:xlink="http://www.w3.org/1999/xlink" width="270" height="270"><path d="M 0 0 L 270 270 M 270 0 L 0 270 M 135 0 L 135 270 M 0 135 L 270 135" stroke="#CCCCCC" /><path d="M 65 38 L 64 35 Q 64 31 66 30 Q 68 29 72 31 Q 93 38 95 46 Q 97 55 95 59 Q 93 63 90 62 Q 85 62 72 46" fill="#CCCCCC"/><path d="M 40 94 L 39 91 Q 39 87 40 87 Q 43 86 47 87 Q 48 87 48 88 Q 71 94 74 106 Q 75 110 73 114 Q 71 117 66 117 Q 57 113 44 98" fill="#CCCCCC"/><path d="M 51 179 L 54 174 Q 67 154 81 132 Q 84 127 87 125 Q 89 123 90 126 Q 90 128 88 132 Q 63 196 61 209 Q 60 216 58 216 Q 55 217 53 215 Q 44 209 41 190 Q 40 185 43 184" fill="#CCCCCC"/><path d="M 154 100 Q 154 66 152 38 Q 152 34 147 28 Q 146 24 147 22 Q 150 20 154 21 Q 160 22 169 27 Q 174 31 173 34 Q 166 83 165 98" fill="#CCCCCC"/><path d="M 107 66 L 107 64 Q 107 61 108 60 Q 109 60 110 60 Q 118 60 128 67 Q 132 69 133 75 Q 133 79 132 82 Q 130 85 127 84 Q 119 81 111 69" fill="#CCCCCC"/><path d="M 208 42 L 208 38 Q 208 32 212 33 Q 218 33 223 39 Q 228 44 230 49 Q 230 52 225 53 Q 212 59 185 76 Q 183 78 181 77 Q 179 75 181 73 Q 197 57 205 46" fill="#CCCCCC"/><path d="M 133 186 L 133 189 Q 130 222 121 228 Q 118 229 116 226 Q 111 219 111 210 Q 111 210 118 191 Q 132 132 119 102 Q 118 99 121 98 Q 126 98 133 102 L 138 110 Q 138 111 138 112 Q 137 117 136 132 L 136 138 Q 135 149 134 165 L 134 172" fill="#CCCCCC"/><path d="M 133 102 Q 145 101 154 100 L 165 98 Q 178 93 191 88 Q 195 86 201 88 Q 211 92 217 98 L 195 103 Q 193 100 188 101 Q 165 105 142 109 Q 139 110 138 110" fill="#CCCCCC"/><path d="M 217 98 Q 221 101 217 106 Q 210 119 219 217 Q 220 231 208 246 Q 206 249 203 248 Q 199 247 195 241 L 197 219 Q 199 216 199 208 Q 201 172 198 113 Q 197 105 195 103" fill="#CCCCCC"/><path d="M 195 241 Q 186 232 171 218 Q 171 215 176 217 Q 183 219 190 220 Q 196 221 197 219" fill="#CCCCCC"/><path d="M 136 132 Q 144 131 151 130 Q 158 128 164 127 Q 170 124 176 126 Q 182 128 184 130 Q 185 132 183 134 Q 182 134 176 135 Q 172 136 168 136 Q 144 140 136 138" fill="#CCCCCC"/><path d="M 134 165 Q 143 165 150 164 Q 157 163 164 161 Q 171 159 177 161 Q 183 163 185 166 Q 186 168 184 169 Q 183 170 177 171 Q 170 171 163 172 Q 141 175 134 172" fill="#CCCCCC"/><path d="M 65 38 L 64 35 Q 64 31 66 30 Q 68 29 72 31 Q 93 38 95 46 Q 97 55 95 59 Q 93 63 90 62 Q 85 62 72 46" fill="#000000" /><path d="M 40 94 L 39 91 Q 39 87 40 87 Q 43 86 47 87 Q 48 87 48 88 Q 71 94 74 106 Q 75 110 73 114 Q 71 117 66 117 Q 57 113 44 98" fill="#1c0000" /><path d="M 51 179 L 54 174 Q 67 154 81 132 Q 84 127 87 125 Q 89 123 90 126 Q 90 128 88 132 Q 63 196 61 209 Q 60 216 58 216 Q 55 217 53 215 Q 44 209 41 190 Q 40 185 43 184" fill="#380000" /><path d="M 154 100 Q 154 66 152 38 Q 152 34 147 28 Q 146 24 147 22 Q 150 20 154 21 Q 160 22 169 27 Q 174 31 173 34 Q 166 83 165 98" fill="#550000" /><path d="M 107 66 L 107 64 Q 107 61 108 60 Q 109 60 110 60 Q 118 60 128 67 Q 132 69 133 75 Q 133 79 132 82 Q 130 85 127 84 Q 119 81 111 69" fill="#710000" /><path d="M 208 42 L 208 38 Q 208 32 212 33 Q 218 33 223 39 Q 228 44 230 49 Q 230 52 225 53 Q 212 59 185 76 Q 183 78 181 77 Q 179 75 181 73 Q 197 57 205 46" fill="#8d0000" /><path d="M 133 186 L 133 189 Q 130 222 121 228 Q 118 229 116 226 Q 111 219 111 210 Q 111 210 118 191 Q 132 132 119 102 Q 118 99 121 98 Q 126 98 133 102 L 138 110 Q 138 111 138 112 Q 137 117 136 132 L 136 138 Q 135 149 134 165 L 134 172" fill="#aa0000" /><path d="M 133 102 Q 145 101 154 100 L 165 98 Q 178 93 191 88 Q 195 86 201 88 Q 211 92 217 98 L 195 103 Q 193 100 188 101 Q 165 105 142 109 Q 139 110 138 110" fill="#c60000" /><path d="M 217 98 Q 221 101 217 106 Q 210 119 219 217 Q 220 231 208 246 Q 206 249 203 248 Q 199 247 195 241 L 197 219 Q 199 216 199 208 Q 201 172 198 113 Q 197 105 195 103" fill="#c60000" /><path d="M 195 241 Q 186 232 171 218 Q 171 215 176 217 Q 183 219 190 220 Q 196 221 197 219" fill="#c60000" /><path d="M 136 132 Q 144 131 151 130 Q 158 128 164 127 Q 170 124 176 126 Q 182 128 184 130 Q 185 132 183 134 Q 182 134 176 135 Q 172 136 168 136 Q 144 140 136 138" fill="#e20000" /><path d="M 134 165 Q 143 165 150 164 Q 157 163 164 161 Q 171 159 177 161 Q 183 163 185 166 Q 186 168 184 169 Q 183 170 177 171 Q 170 171 163 172 Q 141 175 134 172" fill="#ff0000" /></svg>