<svg xmlns="http://www.w3.org/2000/svg" xmlns:xlink="http://www.w3.org/1999/xlink" width="270" height="270"><path d="M 0 0 L 270 270 M 270 0 L 0 270 M 135 0 L 135 270 M 0 135 L 270 135" stroke="#CCCCCC" /><path d="M 41 58 L 40 55 Q 40 51 41 50 Q 43 49 48 50 Q 70 55 73 62 Q 75 70 74 75 Q 73 79 70 79 Q 65 79 61 76 Q 55 69 49 64" fill="#CCCCCC"/><path d="M 21 107 L 21 103 Q 20 100 22 99 Q 23 99 26 99 Q 40 103 45 109 Q 50 113 51 120 Q 51 125 49 129 Q 46 132 42 131 Q 32 125 25 111" fill="#CCCCCC"/><path d="M 30 189 L 33 184 Q 43 166 55 146 Q 58 142 60 140 Q 62 138 63 141 Q 63 142 61 146 Q 42 205 41 216 Q 41 223 39 223 Q 37 224 35 222 Q 26 218 21 199 Q 21 195 24 194" fill="#CCCCCC"/><path d="M 128 35 L 127 31 Q 126 27 127 26 Q 129 25 134 26 Q 158 30 161 38 Q 164 46 163 51 Q 162 55 158 55 Q 154 55 149 52 Q 142 45 136 40" fill="#CCCCCC"/><path d="M 104 93 Q 95 93 89 90 Q 82 85 91 84 Q 124 79 160 69 Q 186 59 193 61 Q 201 62 203 65 Q 204 68 202 70 Q 200 72 183 76 Q 149 84 116 92" fill="#CCCCCC"/><path d="M 67 176 L 61 176 Q 58 177 59 174 Q 59 173 61 171 Q 76 154 86 138 Q 109 104 104 93 L 116 92 Q 116 92 117 92 Q 123 98 124 101 Q 125 104 123 106 Q 118 111 113 119 Q 102 136 92 148 L 86 155" fill="#CCCCCC"/><path d="M 92 148 Q 94 150 101 158 Q 103 160 101 166 Q 100 176 100 219 Q 100 229 96 238 Q 94 244 90 240 Q 89 240 89 239 Q 80 224 85 217 Q 94 173 86 155" fill="#CCCCCC"/><path d="M 154 122 Q 149 129 143 134 L 139 138 Q 127 147 123 147 Q 120 148 121 145 Q 123 143 125 141 Q 153 112 151 92 Q 150 89 153 89 Q 159 88 168 96 Q 171 99 168 102 Q 163 109 158 117" fill="#CCCCCC"/><path d="M 182 121 Q 181 119 164 123 Q 157 124 154 122 L 158 117 Q 175 114 183 110 Q 189 108 192 109 Q 206 116 207 118 Q 209 122 205 124" fill="#CCCCCC"/><path d="M 128 216 L 112 216 Q 106 215 112 212 Q 130 199 144 185 L 151 178 Q 161 166 167 158 Q 185 131 182 121 L 205 124 Q 201 128 194 140 Q 179 166 161 185 L 152 193" fill="#CCCCCC"/><path d="M 143 134 Q 157 137 161 142 Q 164 146 163 150 Q 163 154 160 154 Q 156 154 152 151 Q 139 140 139 138" fill="#CCCCCC"/><path d="M 144 185 Q 137 179 131 173 Q 123 165 113 161 Q 110 160 111 158 Q 113 156 119 155 Q 124 154 128 159 Q 140 169 151 178 L 161 185 Q 168 190 175 195 Q 203 213 246 219 Q 249 220 248 222 Q 245 227 207 234 Q 200 235 195 231 Q 175 214 152 193" fill="#CCCCCC"/><path d="M 41 58 L 40 55 Q 40 51 41 50 Q 43 49 48 50 Q 70 55 73 62 Q 75 70 74 75 Q 73 79 70 79 Q 65 79 61 76 Q 55 69 49 64" fill="#000000" /><path d="M 21 107 L 21 103 Q 20 100 22 99 Q 23 99 26 99 Q 40 103 45 109 Q 50 113 51 120 Q 51 125 49 129 Q 46 132 42 131 Q 32 125 25 111" fill="#190000" /><path d="M 30 189 L 33 184 Q 43 166 55 146 Q 58 142 60 140 Q 62 138 63 141 Q 63 142 61 146 Q 42 205 41 216 Q 41 223 39 223 Q 37 224 35 222 Q 26 218 21 199 Q 21 195 24 194" fill="#330000" /><path d="M 128 35 L 127 31 Q 126 27 127 26 Q 129 25 134 26 Q 158 30 161 38 Q 164 46 163 51 Q 162 55 158 55 Q 154 55 149 52 Q 142 45 136 40" fill="#4c0000" /><path d="M 104 93 Q 95 93 89 90 Q 82 85 91 84 Q 124 79 160 69 Q 186 59 193 61 Q 201 62 203 65 Q 204 68 202 70 Q 200 72 183 76 Q 149 84 116 92" fill="#660000" /><path d="M 67 176 L 61 176 Q 58 177 59 174 Q 59 173 61 171 Q 76 154 86 138 Q 109 104 104 93 L 116 92 Q 116 92 117 92 Q 123 98 124 101 Q 125 104 123 106 Q 118 111 113 119 Q 102 136 92 148 L 86 155" fill="#7f0000" /><path d="M 92 148 Q 94 150 101 158 Q 103 160 101 166 Q 100 176 100 219 Q 100 229 96 238 Q 94 244 90 240 Q 89 240 89 239 Q 80 224 85 217 Q 94 173 86 155" fill="#990000" /><path d="M 154 122 Q 149 129 143 134 L 139 138 Q 127 147 123 147 Q 120 148 121 145 Q 123 143 125 141 Q 153 112 151 92 Q 150 89 153 89 Q 159 88 168 96 Q 171 99 168 102 Q 163 109 158 117" fill="#b20000" /><path d="M 182 121 Q 181 119 164 123 Q 157 124 154 122 L 158 117 Q 175 114 183 110 Q 189 108 192 109 Q 206 116 207 118 Q 209 122 205 124" fill="#cc0000" /><path d="M 128 216 L 112 216 Q 106 215 112 212 Q 130 199 144 185 L 151 178 Q 161 166 167 158 Q 185 131 182 121 L 205 124 Q 201 128 194 140 Q 179 166 161 185 L 152 193" fill="#cc0000" /><path d="M 143 134 Q 157 137 161 142 Q 164 146 163 150 Q 163 154 160 154 Q 156 154 152 151 Q 139 140 139 138" fill="#e50000" /><path d="M 144 185 Q 137 179 131 173 Q 123 165 113 161 Q 110 160 111 158 Q 113 156 119 155 Q 124 154 128 159 Q 140 169 151 178 L 161 185 Q 168 190 175 195 Q 203 213 246 219 Q 249 220 248 222 Q 245 227 207 234 Q 200 235 195 231 Q 175 214 152 193" fill="#ff0000" /></svg>