<svg xmlns="http://www.w3.org/2000/svg" xmlns:xlink="http://www.w3.org/1999/xlink" width="270" height="270"><path d="M 0 0 L 270 270 M 270 0 L 0 270 M 135 0 L 135 270 M 0 135 L 270 135" stroke="#CCCCCC" /><path d="M 47 48 L 46 44 Q 45 40 47 39 Q 52 38 70 46 Q 79 50 80 55 Q 82 64 80 68 Q 79 72 76 72 Q 71 72 67 68 Q 61 60 54 54" fill="#CCCCCC"/><path d="M 24 102 L 24 99 Q 23 95 24 95 Q 27 94 31 95 Q 52 98 57 110 Q 58 114 57 118 Q 55 122 51 121 Q 41 118 29 106" fill="#CCCCCC"/><path d="M 31 187 L 33 182 Q 59 136 62 134 Q 64 133 64 135 Q 65 137 63 141 Q 43 203 42 215 Q 42 222 40 222 Q 37 223 36 221 Q 27 217 22 198 Q 21 193 24 192" fill="#CCCCCC"/><path d="M 126 86 L 114 103 Q 87 136 74 139 Q 71 139 73 137 Q 82 125 106 94 Q 134 48 127 28 Q 125 25 128 24 Q 131 23 136 24 Q 142 25 146 28 Q 150 31 150 33 Q 151 36 150 38 Q 147 40 144 49 L 141 55" fill="#CCCCCC"/><path d="M 144 49 Q 149 53 157 61 Q 170 73 194 89 Q 197 91 244 111 Q 248 113 247 114 Q 247 116 242 116 Q 224 119 206 117 Q 197 116 191 111 Q 165 84 141 55" fill="#CCCCCC"/><path d="M 125 114 L 133 112 Q 154 104 160 105 Q 168 106 170 108 Q 171 111 169 113 Q 168 113 163 115 Q 150 119 139 122 Q 125 126 114 122 Q 107 118 116 116" fill="#CCCCCC"/><path d="M 94 162 Q 94 170 94 200 Q 95 220 88 226 Q 85 227 83 224 Q 76 215 80 201 Q 86 169 77 154 Q 76 152 79 150 Q 83 150 89 153" fill="#CCCCCC"/><path d="M 143 153 Q 129 154 118 157 L 111 158 Q 104 159 99 161 Q 97 162 94 162 L 89 153 Q 103 152 123 148 Q 143 144 168 141 Q 185 139 192 137 Q 196 134 201 137 Q 212 142 215 145 Q 217 148 214 151 L 191 150 Q 186 146 153 151" fill="#CCCCCC"/><path d="M 214 151 Q 210 157 211 206 Q 211 221 204 234 Q 200 243 197 244 Q 194 246 191 243 L 192 211 Q 197 178 197 160 Q 196 152 191 150" fill="#CCCCCC"/><path d="M 191 243 Q 186 234 178 225 Q 170 219 170 216 Q 170 214 174 215 Q 179 216 186 217 Q 191 217 192 211" fill="#CCCCCC"/><path d="M 136 188 L 126 190 L 116 192 Q 109 194 105 191 Q 100 188 104 187 Q 109 185 116 184 L 126 182 Q 135 179 146 176 L 160 173 Q 167 170 172 171 Q 179 173 181 176 Q 183 179 178 180 Q 169 181 159 183 L 146 186" fill="#CCCCCC"/><path d="M 126 190 Q 126 207 123 211 Q 122 214 119 208 Q 116 203 116 197 Q 116 194 116 192 L 116 184 Q 114 168 111 158 L 118 157 Q 124 159 126 160 Q 126 162 126 165 Q 126 168 126 182" fill="#CCCCCC"/><path d="M 146 176 Q 146 162 144 155 Q 143 153 143 153 L 153 151 Q 156 153 160 156 Q 163 158 162 162 Q 162 165 161 169 Q 160 171 160 173 L 159 183 Q 156 214 154 218 Q 153 221 151 222 Q 150 223 149 221 Q 146 216 146 186" fill="#CCCCCC"/><path d="M 47 48 L 46 44 Q 45 40 47 39 Q 52 38 70 46 Q 79 50 80 55 Q 82 64 80 68 Q 79 72 76 72 Q 71 72 67 68 Q 61 60 54 54" fill="#000000" /><path d="M 24 102 L 24 99 Q 23 95 24 95 Q 27 94 31 95 Q 52 98 57 110 Q 58 114 57 118 Q 55 122 51 121 Q 41 118 29 106" fill="#190000" /><path d="M 31 187 L 33 182 Q 59 136 62 134 Q 64 133 64 135 Q 65 137 63 141 Q 43 203 42 215 Q 42 222 40 222 Q 37 223 36 221 Q 27 217 22 198 Q 21 193 24 192" fill="#330000" /><path d="M 126 86 L 114 103 Q 87 136 74 139 Q 71 139 73 137 Q 82 125 106 94 Q 134 48 127 28 Q 125 25 128 24 Q 131 23 136 24 Q 142 25 146 28 Q 150 31 150 33 Q 151 36 150 38 Q 147 40 144 49 L 141 55" fill="#4c0000" /><path d="M 144 49 Q 149 53 157 61 Q 170 73 194 89 Q 197 91 244 111 Q 248 113 247 114 Q 247 116 242 116 Q 224 119 206 117 Q 197 116 191 111 Q 165 84 141 55" fill="#660000" /><path d="M 125 114 L 133 112 Q 154 104 160 105 Q 168 106 170 108 Q 171 111 169 113 Q 168 113 163 115 Q 150 119 139 122 Q 125 126 114 122 Q 107 118 116 116" fill="#7f0000" /><path d="M 94 162 Q 94 170 94 200 Q 95 220 88 226 Q 85 227 83 224 Q 76 215 80 201 Q 86 169 77 154 Q 76 152 79 150 Q 83 150 89 153" fill="#990000" /><path d="M 143 153 Q 129 154 118 157 L 111 158 Q 104 159 99 161 Q 97 162 94 162 L 89 153 Q 103 152 123 148 Q 143 144 168 141 Q 185 139 192 137 Q 196 134 201 137 Q 212 142 215 145 Q 217 148 214 151 L 191 150 Q 186 146 153 151" fill="#b20000" /><path d="M 214 151 Q 210 157 211 206 Q 211 221 204 234 Q 200 243 197 244 Q 194 246 191 243 L 192 211 Q 197 178 197 160 Q 196 152 191 150" fill="#b20000" /><path d="M 191 243 Q 186 234 178 225 Q 170 219 170 216 Q 170 214 174 215 Q 179 216 186 217 Q 191 217 192 211" fill="#b20000" /><path d="M 136 188 L 126 190 L 116 192 Q 109 194 105 191 Q 100 188 104 187 Q 109 185 116 184 L 126 182 Q 135 179 146 176 L 160 173 Q 167 170 172 171 Q 179 173 181 176 Q 183 179 178 180 Q 169 181 159 183 L 146 186" fill="#cc0000" /><path d="M 126 190 Q 126 207 123 211 Q 122 214 119 208 Q 116 203 116 197 Q 116 194 116 192 L 116 184 Q 114 168 111 158 L 118 157 Q 124 159 126 160 Q 126 162 126 165 Q 126 168 126 182" fill="#e50000" /><path d="M 146 176 Q 146 162 144 155 Q 143 153 143 153 L 153 151 Q 156 153 160 156 Q 163 158 162 162 Q 162 165 161 169 Q 160 171 160 173 L 159 183 Q 156 214 154 218 Q 153 221 151 222 Q 150 223 149 221 Q 146 216 146 186" fill="#ff0000" /></svg>