<svg xmlns="http://www.w3.org/2000/svg" xmlns:xlink="http://www.w3.org/1999/xlink" width="270" height="270"><path d="M 0 0 L 270 270 M 270 0 L 0 270 M 135 0 L 135 270 M 0 135 L 270 135" stroke="#CCCCCC" /><path d="M 43 52 L 42 48 Q 42 45 44 44 Q 46 43 50 45 Q 75 53 76 61 Q 78 70 76 74 Q 74 78 71 78 Q 66 78 63 74 Q 57 65 50 59" fill="#000000" /><path d="M 22 113 L 22 109 Q 21 106 22 106 Q 24 105 25 105 Q 36 105 46 110 Q 51 113 53 119 Q 54 124 53 128 Q 51 131 46 131 Q 37 128 27 116" fill="#190000" /><path d="M 34 198 L 36 194 Q 61 159 64 157 Q 66 156 66 158 Q 67 160 65 164 Q 47 215 46 227 Q 45 234 44 234 Q 41 234 39 232 Q 29 228 26 208 Q 25 203 28 202" fill="#330000" /><path d="M 142 64 L 156 60 Q 183 51 190 53 Q 198 55 199 58 Q 201 61 198 62 Q 196 64 181 68 Q 166 70 154 73 L 147 74 Q 138 75 130 77 L 113 81 Q 100 81 92 76 Q 85 71 95 70 Q 107 69 119 68 L 135 65" fill="#4c0000" /><path d="M 83 138 Q 63 153 58 153 Q 56 152 58 150 Q 99 110 112 82 Q 113 81 113 81 L 119 68 Q 129 38 125 17 Q 125 13 128 11 Q 131 11 137 13 Q 146 18 149 20 Q 150 23 148 26 Q 144 35 142 44 Q 138 55 135 65 L 130 77 Q 126 85 123 92 Q 114 110 98 125 Q 93 130 88 135" fill="#660000" /><path d="M 154 73 Q 171 88 187 99 Q 209 115 245 126 Q 248 127 248 128 Q 248 130 246 130 Q 238 133 212 136 Q 204 137 199 133 Q 150 83 147 74" fill="#7f0000" /><path d="M 107 187 L 107 190 L 107 197 Q 106 199 106 201 Q 104 205 100 200 Q 96 194 95 186 Q 91 154 83 138 L 88 135 Q 93 136 95 136 L 101 145 Q 102 154 106 183" fill="#990000" /><path d="M 95 136 Q 104 135 118 133 Q 122 131 127 131 L 139 129 Q 151 126 156 126 Q 174 123 177 125 Q 190 132 194 136 L 169 136 Q 167 135 160 135 Q 147 136 138 138 L 126 140 Q 112 142 103 145 Q 102 145 101 145" fill="#b20000" /><path d="M 161 184 Q 164 176 170 147 Q 172 138 169 136 L 194 136 Q 198 140 193 144 Q 184 151 180 164 Q 173 189 170 194 Q 168 198 164 198 Q 161 198 160 194 Q 159 193 159 192" fill="#b20000" /><path d="M 136 155 Q 144 153 150 153 Q 156 154 158 157 Q 160 161 155 162 Q 145 163 135 165 L 125 166 Q 115 167 113 166 Q 108 163 112 162 Q 118 160 125 158" fill="#cc0000" /><path d="M 134 185 Q 152 179 161 184 L 159 192 Q 147 193 134 194 L 125 195 L 107 197 L 107 190 Q 115 188 125 187" fill="#e50000" /><path d="M 127 131 Q 127 131 127 130 Q 127 121 124 112 Q 123 107 125 106 Q 126 105 130 106 Q 135 108 139 112 Q 142 114 140 118 Q 139 124 139 129 L 138 138 Q 136 147 136 155 L 135 165 Q 134 175 134 185 L 134 194 Q 135 214 141 225 L 136 242 Q 125 233 125 195 L 125 187 Q 125 177 125 166 L 125 158 Q 125 149 126 140" fill="#ff0000" /><path d="M 141 225 Q 143 230 150 234 Q 158 237 168 238 Q 195 238 202 229 L 226 228 Q 230 235 225 239 Q 215 247 205 249 Q 202 250 200 251 Q 158 258 136 242" fill="#ff0000" /><path d="M 202 229 Q 206 221 212 196 Q 213 192 214 193 Q 216 194 217 198 Q 222 221 226 228" fill="#ff0000" /></svg>