<svg xmlns="http://www.w3.org/2000/svg" xmlns:xlink="http://www.w3.org/1999/xlink" width="270" height="270"><path d="M 0 0 L 270 270 M 270 0 L 0 270 M 135 0 L 135 270 M 0 135 L 270 135" stroke="#CCCCCC" /><path d="M 41 53 L 40 50 Q 40 46 41 44 Q 46 42 68 50 Q 77 54 79 60 Q 82 68 81 73 Q 79 77 76 78 Q 71 78 67 74 Q 58 66 50 59" fill="#CCCCCC"/><path d="M 24 106 L 24 103 Q 23 99 25 99 Q 28 98 33 100 Q 55 106 59 119 Q 59 124 57 127 Q 54 131 50 130 Q 41 126 29 111" fill="#CCCCCC"/><path d="M 38 193 L 42 188 Q 73 140 78 137 Q 80 135 80 139 Q 80 140 79 145 Q 50 212 48 225 Q 48 233 46 233 Q 42 234 41 232 Q 31 226 27 204 Q 27 200 31 198" fill="#CCCCCC"/><path d="M 144 61 Q 142 61 141 61 Q 122 65 112 59 Q 105 55 114 53 Q 129 52 144 49 L 160 45 Q 182 38 188 39 Q 196 41 198 44 Q 199 47 197 49 Q 195 50 159 58" fill="#CCCCCC"/><path d="M 145 89 L 144 89 Q 125 94 116 88 Q 109 84 118 82 Q 132 81 145 79 L 158 75 Q 175 69 182 71 Q 189 73 190 75 Q 191 77 189 79 Q 189 80 157 87" fill="#CCCCCC"/><path d="M 145 98 L 145 89 L 145 79 Q 145 69 144 61 L 144 49 Q 143 40 143 31 Q 143 26 137 18 Q 135 14 137 12 Q 139 10 143 10 Q 150 12 159 17 Q 165 21 164 23 Q 161 38 160 44 Q 160 44 160 45 L 159 58 Q 158 66 158 75 L 157 87 Q 157 96 156 107 L 145 108" fill="#CCCCCC"/><path d="M 156 107 Q 156 106 156 106 Q 195 100 218 94 Q 228 92 242 102 Q 246 106 245 109 Q 243 111 238 111 L 237 111 Q 152 111 98 127 Q 87 130 79 122 Q 75 118 81 117 Q 115 112 145 108" fill="#CCCCCC"/><path d="M 125 202 L 125 203 Q 125 235 114 242 Q 111 243 110 240 Q 103 232 105 225 Q 105 225 111 210 Q 122 161 112 138 Q 110 135 114 134 Q 122 134 127 139 L 129 147 Q 128 153 127 168 L 127 175 Q 126 183 125 194 L 125 202" fill="#CCCCCC"/><path d="M 127 139 Q 160 130 160 130 Q 175 124 181 126 Q 191 129 196 134 L 174 139 Q 168 137 136 145 Q 132 146 129 147" fill="#CCCCCC"/><path d="M 196 134 Q 200 137 196 141 Q 192 150 193 162 Q 195 190 197 221 Q 199 233 192 246 Q 187 258 183 259 Q 179 259 175 255 L 174 236 Q 179 234 179 227 Q 181 192 177 148 Q 177 141 174 139" fill="#CCCCCC"/><path d="M 175 255 Q 168 247 159 239 Q 155 236 155 234 Q 155 232 158 233 Q 172 236 174 236" fill="#CCCCCC"/><path d="M 127 168 Q 149 161 155 162 Q 161 163 164 167 Q 166 170 160 171 Q 147 173 128 175 Q 127 175 127 175" fill="#CCCCCC"/><path d="M 125 194 Q 148 187 156 189 Q 162 190 165 194 Q 167 197 161 198 Q 147 199 127 202 Q 126 202 125 202" fill="#CCCCCC"/><path d="M 41 53 L 40 50 Q 40 46 41 44 Q 46 42 68 50 Q 77 54 79 60 Q 82 68 81 73 Q 79 77 76 78 Q 71 78 67 74 Q 58 66 50 59" fill="#000000" /><path d="M 24 106 L 24 103 Q 23 99 25 99 Q 28 98 33 100 Q 55 106 59 119 Q 59 124 57 127 Q 54 131 50 130 Q 41 126 29 111" fill="#190000" /><path d="M 38 193 L 42 188 Q 73 140 78 137 Q 80 135 80 139 Q 80 140 79 145 Q 50 212 48 225 Q 48 233 46 233 Q 42 234 41 232 Q 31 226 27 204 Q 27 200 31 198" fill="#330000" /><path d="M 144 61 Q 142 61 141 61 Q 122 65 112 59 Q 105 55 114 53 Q 129 52 144 49 L 160 45 Q 182 38 188 39 Q 196 41 198 44 Q 199 47 197 49 Q 195 50 159 58" fill="#4c0000" /><path d="M 145 89 L 144 89 Q 125 94 116 88 Q 109 84 118 82 Q 132 81 145 79 L 158 75 Q 175 69 182 71 Q 189 73 190 75 Q 191 77 189 79 Q 189 80 157 87" fill="#660000" /><path d="M 145 98 L 145 89 L 145 79 Q 145 69 144 61 L 144 49 Q 143 40 143 31 Q 143 26 137 18 Q 135 14 137 12 Q 139 10 143 10 Q 150 12 159 17 Q 165 21 164 23 Q 161 38 160 44 Q 160 44 160 45 L 159 58 Q 158 66 158 75 L 157 87 Q 157 96 156 107 L 145 108" fill="#7f0000" /><path d="M 156 107 Q 156 106 156 106 Q 195 100 218 94 Q 228 92 242 102 Q 246 106 245 109 Q 243 111 238 111 L 237 111 Q 152 111 98 127 Q 87 130 79 122 Q 75 118 81 117 Q 115 112 145 108" fill="#990000" /><path d="M 125 202 L 125 203 Q 125 235 114 242 Q 111 243 110 240 Q 103 232 105 225 Q 105 225 111 210 Q 122 161 112 138 Q 110 135 114 134 Q 122 134 127 139 L 129 147 Q 128 153 127 168 L 127 175 Q 126 183 125 194 L 125 202" fill="#b20000" /><path d="M 127 139 Q 160 130 160 130 Q 175 124 181 126 Q 191 129 196 134 L 174 139 Q 168 137 136 145 Q 132 146 129 147" fill="#cc0000" /><path d="M 196 134 Q 200 137 196 141 Q 192 150 193 162 Q 195 190 197 221 Q 199 233 192 246 Q 187 258 183 259 Q 179 259 175 255 L 174 236 Q 179 234 179 227 Q 181 192 177 148 Q 177 141 174 139" fill="#cc0000" /><path d="M 175 255 Q 168 247 159 239 Q 155 236 155 234 Q 155 232 158 233 Q 172 236 174 236" fill="#cc0000" /><path d="M 127 168 Q 149 161 155 162 Q 161 163 164 167 Q 166 170 160 171 Q 147 173 128 175 Q 127 175 127 175" fill="#e50000" /><path d="M 125 194 Q 148 187 156 189 Q 162 190 165 194 Q 167 197 161 198 Q 147 199 127 202 Q 126 202 125 202" fill="#ff0000" /></svg>