<svg xmlns="http://www.w3.org/2000/svg" xmlns:xlink="http://www.w3.org/1999/xlink" width="270" height="270"><path d="M 0 0 L 270 270 M 270 0 L 0 270 M 135 0 L 135 270 M 0 135 L 270 135" stroke="#CCCCCC" /><path d="M 58 54 L 58 51 Q 58 47 59 46 Q 61 46 65 48 Q 85 55 86 62 Q 88 70 86 74 Q 84 77 81 77 Q 77 77 73 73 Q 69 66 65 61" fill="#CCCCCC"/><path d="M 28 101 L 28 97 Q 28 94 30 94 Q 32 93 34 95 Q 44 98 50 104 Q 54 109 55 115 Q 54 120 52 123 Q 49 126 45 124 Q 38 118 31 105" fill="#CCCCCC"/><path d="M 37 182 L 40 178 Q 63 139 67 136 Q 69 135 70 137 Q 70 138 68 143 Q 49 199 48 210 Q 48 216 46 216 Q 43 217 41 215 Q 33 211 29 192 Q 28 188 31 187" fill="#CCCCCC"/><path d="M 111 108 Q 108 109 104 110 Q 90 114 78 108 Q 71 104 80 102 Q 97 99 110 96 Q 111 96 113 96 L 127 91 Q 142 85 150 86 Q 158 88 160 91 Q 162 93 159 95 Q 156 97 124 105" fill="#CCCCCC"/><path d="M 106 139 Q 109 123 111 108 L 113 96 Q 117 68 119 44 Q 120 37 114 27 Q 112 23 115 21 Q 118 18 122 20 Q 129 22 137 29 Q 142 34 141 36 Q 132 58 127 91 L 124 105 Q 121 120 118 136" fill="#CCCCCC"/><path d="M 98 191 L 97 194 Q 95 198 91 193 Q 87 188 86 181 Q 83 158 77 144 Q 75 140 77 139 Q 78 137 81 138 Q 88 140 91 142 L 94 149 Q 94 156 97 178 L 98 186" fill="#CCCCCC"/><path d="M 91 142 Q 99 140 106 139 L 118 136 Q 124 134 129 131 Q 133 129 138 132 Q 145 137 150 140 L 130 145 Q 128 142 120 144 Q 95 148 94 149" fill="#CCCCCC"/><path d="M 124 172 Q 127 163 129 155 Q 131 147 130 145 L 150 140 Q 155 144 149 150 Q 143 156 137 174" fill="#CCCCCC"/><path d="M 97 178 Q 108 176 122 172 Q 123 172 124 172 L 137 174 Q 140 177 140 179 Q 140 181 138 181 Q 99 185 98 186" fill="#CCCCCC"/><path d="M 170 194 L 149 220 Q 128 243 117 244 Q 114 244 114 243 Q 116 239 126 230 Q 147 209 155 189 Q 167 160 169 136 Q 173 78 164 62 Q 159 57 164 56 Q 168 55 181 61 L 184 70 Q 184 72 183 76 Q 183 94 183 110 L 182 117 Q 180 138 179 150 L 178 158" fill="#CCCCCC"/><path d="M 181 61 Q 181 61 181 61 Q 193 59 199 58 Q 204 56 212 52 Q 216 50 221 52 Q 232 57 238 62 L 215 67 Q 213 64 208 65 Q 189 70 184 70" fill="#CCCCCC"/><path d="M 238 62 Q 241 65 238 71 Q 229 85 235 220 Q 234 236 221 248 Q 219 251 217 250 Q 212 248 209 242 L 213 220 Q 215 217 215 211 Q 220 162 218 81 Q 219 70 215 67" fill="#CCCCCC"/><path d="M 209 242 Q 203 232 191 217 Q 191 214 197 217 Q 202 218 208 220 Q 212 221 213 220" fill="#CCCCCC"/><path d="M 183 110 Q 194 104 204 105 Q 210 106 212 109 Q 215 112 209 113 Q 199 115 185 117 Q 184 117 182 117" fill="#CCCCCC"/><path d="M 179 150 Q 194 144 203 145 Q 210 146 212 150 Q 215 153 208 154 Q 196 156 179 158 Q 178 158 178 158" fill="#CCCCCC"/><path d="M 58 54 L 58 51 Q 58 47 59 46 Q 61 46 65 48 Q 85 55 86 62 Q 88 70 86 74 Q 84 77 81 77 Q 77 77 73 73 Q 69 66 65 61" fill="#000000" /><path d="M 28 101 L 28 97 Q 28 94 30 94 Q 32 93 34 95 Q 44 98 50 104 Q 54 109 55 115 Q 54 120 52 123 Q 49 126 45 124 Q 38 118 31 105" fill="#170000" /><path d="M 37 182 L 40 178 Q 63 139 67 136 Q 69 135 70 137 Q 70 138 68 143 Q 49 199 48 210 Q 48 216 46 216 Q 43 217 41 215 Q 33 211 29 192 Q 28 188 31 187" fill="#2e0000" /><path d="M 111 108 Q 108 109 104 110 Q 90 114 78 108 Q 71 104 80 102 Q 97 99 110 96 Q 111 96 113 96 L 127 91 Q 142 85 150 86 Q 158 88 160 91 Q 162 93 159 95 Q 156 97 124 105" fill="#450000" /><path d="M 106 139 Q 109 123 111 108 L 113 96 Q 117 68 119 44 Q 120 37 114 27 Q 112 23 115 21 Q 118 18 122 20 Q 129 22 137 29 Q 142 34 141 36 Q 132 58 127 91 L 124 105 Q 121 120 118 136" fill="#5c0000" /><path d="M 98 191 L 97 194 Q 95 198 91 193 Q 87 188 86 181 Q 83 158 77 144 Q 75 140 77 139 Q 78 137 81 138 Q 88 140 91 142 L 94 149 Q 94 156 97 178 L 98 186" fill="#730000" /><path d="M 91 142 Q 99 140 106 139 L 118 136 Q 124 134 129 131 Q 133 129 138 132 Q 145 137 150 140 L 130 145 Q 128 142 120 144 Q 95 148 94 149" fill="#8b0000" /><path d="M 124 172 Q 127 163 129 155 Q 131 147 130 145 L 150 140 Q 155 144 149 150 Q 143 156 137 174" fill="#8b0000" /><path d="M 97 178 Q 108 176 122 172 Q 123 172 124 172 L 137 174 Q 140 177 140 179 Q 140 181 138 181 Q 99 185 98 186" fill="#a20000" /><path d="M 170 194 L 149 220 Q 128 243 117 244 Q 114 244 114 243 Q 116 239 126 230 Q 147 209 155 189 Q 167 160 169 136 Q 173 78 164 62 Q 159 57 164 56 Q 168 55 181 61 L 184 70 Q 184 72 183 76 Q 183 94 183 110 L 182 117 Q 180 138 179 150 L 178 158" fill="#b90000" /><path d="M 181 61 Q 181 61 181 61 Q 193 59 199 58 Q 204 56 212 52 Q 216 50 221 52 Q 232 57 238 62 L 215 67 Q 213 64 208 65 Q 189 70 184 70" fill="#d00000" /><path d="M 238 62 Q 241 65 238 71 Q 229 85 235 220 Q 234 236 221 248 Q 219 251 217 250 Q 212 248 209 242 L 213 220 Q 215 217 215 211 Q 220 162 218 81 Q 219 70 215 67" fill="#d00000" /><path d="M 209 242 Q 203 232 191 217 Q 191 214 197 217 Q 202 218 208 220 Q 212 221 213 220" fill="#d00000" /><path d="M 183 110 Q 194 104 204 105 Q 210 106 212 109 Q 215 112 209 113 Q 199 115 185 117 Q 184 117 182 117" fill="#e70000" /><path d="M 179 150 Q 194 144 203 145 Q 210 146 212 150 Q 215 153 208 154 Q 196 156 179 158 Q 178 158 178 158" fill="#ff0000" /></svg>