<svg xmlns="http://www.w3.org/2000/svg" xmlns:xlink="http://www.w3.org/1999/xlink" width="270" height="270"><path d="M 0 0 L 270 270 M 270 0 L 0 270 M 135 0 L 135 270 M 0 135 L 270 135" stroke="#CCCCCC" /><path d="M 44 42 L 43 39 Q 43 36 44 35 Q 46 34 50 35 Q 74 41 76 49 Q 78 57 77 61 Q 75 65 72 65 Q 68 65 64 61 Q 58 54 51 48" fill="#CCCCCC"/><path d="M 22 101 L 22 98 Q 21 95 23 95 Q 26 93 30 95 Q 54 104 57 115 Q 57 119 55 122 Q 53 126 49 125 Q 40 121 26 105" fill="#CCCCCC"/><path d="M 34 193 L 37 188 Q 64 140 67 138 Q 70 136 70 139 Q 71 140 69 145 Q 46 211 45 223 Q 45 230 43 230 Q 40 231 38 229 Q 29 225 24 205 Q 24 200 27 199" fill="#CCCCCC"/><path d="M 165 57 Q 149 59 136 62 L 125 64 Q 122 64 120 65 Q 109 65 104 61 Q 99 56 106 56 Q 115 54 123 54 L 136 52 Q 149 51 163 48 Q 164 48 166 48 L 180 44 Q 186 43 192 42 Q 201 39 206 44 Q 211 47 210 50 Q 208 53 206 52 Q 194 54 179 56" fill="#CCCCCC"/><path d="M 177 70 Q 177 70 177 70 Q 188 67 194 68 Q 201 70 203 74 Q 205 77 200 78 Q 188 79 175 82 L 164 84 Q 151 86 137 88 L 127 90 Q 125 90 124 90 Q 115 92 110 89 Q 106 85 110 84 Q 118 82 126 81 L 136 79 Q 150 76 164 73" fill="#CCCCCC"/><path d="M 137 88 Q 137 96 137 105 L 128 106 Q 127 97 127 90 L 126 81 Q 125 71 125 64 L 123 54 Q 123 47 116 32 Q 114 28 116 27 Q 118 25 122 27 Q 128 29 134 33 Q 138 36 137 42 Q 136 44 136 52 L 136 62 Q 136 73 136 79" fill="#CCCCCC"/><path d="M 165 65 L 165 57 L 166 48 Q 166 39 166 31 Q 167 26 162 18 Q 160 15 162 13 Q 164 11 168 12 Q 174 13 182 19 Q 187 23 186 25 Q 184 30 181 43 Q 180 44 180 44 L 179 56 Q 178 63 177 70 L 175 82 Q 174 90 173 99 L 162 101 Q 163 92 164 84 L 164 73" fill="#CCCCCC"/><path d="M 137 113 Q 116 116 97 121 Q 94 122 89 121 Q 85 120 81 117 Q 78 112 82 112 Q 106 109 128 106 L 137 105 Q 145 103 152 103 Q 157 101 162 101 L 173 99 Q 190 96 202 93 Q 217 89 229 99 Q 233 102 232 105 Q 230 107 215 107 Q 174 107 148 111" fill="#CCCCCC"/><path d="M 111 235 L 103 240 Q 101 242 99 238 Q 95 234 95 226 Q 93 221 95 217 Q 100 210 101 198 L 103 188 Q 108 154 100 136 Q 99 132 102 131 Q 109 131 115 136 L 119 143 Q 119 144 119 145 Q 117 153 115 186 L 115 195" fill="#CCCCCC"/><path d="M 141 139 Q 132 140 124 142 Q 120 143 119 143 L 115 136 Q 124 134 140 132 L 154 128 Q 153 129 153 129 Q 155 128 158 128 Q 169 125 175 122 Q 180 119 186 122 Q 196 126 201 130 L 179 135 Q 174 133 153 137" fill="#CCCCCC"/><path d="M 184 179 Q 184 162 182 144 Q 182 137 179 135 L 201 130 Q 205 133 201 138 Q 197 147 199 177 L 200 189 Q 201 203 202 218 Q 203 232 196 244 Q 191 257 187 258 Q 182 258 179 253 L 179 234 Q 183 233 183 225 Q 184 208 184 189" fill="#CCCCCC"/><path d="M 179 253 Q 173 245 164 236 Q 160 234 160 231 Q 160 229 163 230 Q 176 234 179 234" fill="#CCCCCC"/><path d="M 141 166 Q 128 167 127 166 Q 122 163 126 162 Q 133 159 141 157 L 152 153 Q 159 152 163 152 Q 170 153 172 157 Q 175 160 169 161 Q 161 162 152 164" fill="#CCCCCC"/><path d="M 141 184 Q 141 174 141 166 L 141 157 Q 141 146 141 139 L 140 132 Q 140 118 137 113 L 148 111 Q 151 113 153 116 Q 154 117 154 128 L 153 137 Q 153 145 152 153 L 152 164 Q 152 173 152 183" fill="#CCCCCC"/><path d="M 101 198 Q 93 199 85 201 Q 81 202 76 201 Q 71 199 68 196 Q 64 191 69 191 Q 87 189 103 188 L 115 186 Q 128 185 141 184 L 152 183 Q 152 183 153 183 Q 170 180 184 179 L 199 177 Q 207 175 213 174 Q 229 170 244 181 Q 248 185 246 187 Q 244 190 226 189 Q 212 189 200 189 L 184 189 Q 139 190 115 195" fill="#CCCCCC"/><path d="M 44 42 L 43 39 Q 43 36 44 35 Q 46 34 50 35 Q 74 41 76 49 Q 78 57 77 61 Q 75 65 72 65 Q 68 65 64 61 Q 58 54 51 48" fill="#000000" /><path d="M 22 101 L 22 98 Q 21 95 23 95 Q 26 93 30 95 Q 54 104 57 115 Q 57 119 55 122 Q 53 126 49 125 Q 40 121 26 105" fill="#150000" /><path d="M 34 193 L 37 188 Q 64 140 67 138 Q 70 136 70 139 Q 71 140 69 145 Q 46 211 45 223 Q 45 230 43 230 Q 40 231 38 229 Q 29 225 24 205 Q 24 200 27 199" fill="#2a0000" /><path d="M 165 57 Q 149 59 136 62 L 125 64 Q 122 64 120 65 Q 109 65 104 61 Q 99 56 106 56 Q 115 54 123 54 L 136 52 Q 149 51 163 48 Q 164 48 166 48 L 180 44 Q 186 43 192 42 Q 201 39 206 44 Q 211 47 210 50 Q 208 53 206 52 Q 194 54 179 56" fill="#3f0000" /><path d="M 177 70 Q 177 70 177 70 Q 188 67 194 68 Q 201 70 203 74 Q 205 77 200 78 Q 188 79 175 82 L 164 84 Q 151 86 137 88 L 127 90 Q 125 90 124 90 Q 115 92 110 89 Q 106 85 110 84 Q 118 82 126 81 L 136 79 Q 150 76 164 73" fill="#550000" /><path d="M 137 88 Q 137 96 137 105 L 128 106 Q 127 97 127 90 L 126 81 Q 125 71 125 64 L 123 54 Q 123 47 116 32 Q 114 28 116 27 Q 118 25 122 27 Q 128 29 134 33 Q 138 36 137 42 Q 136 44 136 52 L 136 62 Q 136 73 136 79" fill="#6a0000" /><path d="M 165 65 L 165 57 L 166 48 Q 166 39 166 31 Q 167 26 162 18 Q 160 15 162 13 Q 164 11 168 12 Q 174 13 182 19 Q 187 23 186 25 Q 184 30 181 43 Q 180 44 180 44 L 179 56 Q 178 63 177 70 L 175 82 Q 174 90 173 99 L 162 101 Q 163 92 164 84 L 164 73" fill="#7f0000" /><path d="M 137 113 Q 116 116 97 121 Q 94 122 89 121 Q 85 120 81 117 Q 78 112 82 112 Q 106 109 128 106 L 137 105 Q 145 103 152 103 Q 157 101 162 101 L 173 99 Q 190 96 202 93 Q 217 89 229 99 Q 233 102 232 105 Q 230 107 215 107 Q 174 107 148 111" fill="#940000" /><path d="M 111 235 L 103 240 Q 101 242 99 238 Q 95 234 95 226 Q 93 221 95 217 Q 100 210 101 198 L 103 188 Q 108 154 100 136 Q 99 132 102 131 Q 109 131 115 136 L 119 143 Q 119 144 119 145 Q 117 153 115 186 L 115 195" fill="#aa0000" /><path d="M 141 139 Q 132 140 124 142 Q 120 143 119 143 L 115 136 Q 124 134 140 132 L 154 128 Q 153 129 153 129 Q 155 128 158 128 Q 169 125 175 122 Q 180 119 186 122 Q 196 126 201 130 L 179 135 Q 174 133 153 137" fill="#bf0000" /><path d="M 184 179 Q 184 162 182 144 Q 182 137 179 135 L 201 130 Q 205 133 201 138 Q 197 147 199 177 L 200 189 Q 201 203 202 218 Q 203 232 196 244 Q 191 257 187 258 Q 182 258 179 253 L 179 234 Q 183 233 183 225 Q 184 208 184 189" fill="#bf0000" /><path d="M 179 253 Q 173 245 164 236 Q 160 234 160 231 Q 160 229 163 230 Q 176 234 179 234" fill="#bf0000" /><path d="M 141 166 Q 128 167 127 166 Q 122 163 126 162 Q 133 159 141 157 L 152 153 Q 159 152 163 152 Q 170 153 172 157 Q 175 160 169 161 Q 161 162 152 164" fill="#d40000" /><path d="M 141 184 Q 141 174 141 166 L 141 157 Q 141 146 141 139 L 140 132 Q 140 118 137 113 L 148 111 Q 151 113 153 116 Q 154 117 154 128 L 153 137 Q 153 145 152 153 L 152 164 Q 152 173 152 183" fill="#e90000" /><path d="M 101 198 Q 93 199 85 201 Q 81 202 76 201 Q 71 199 68 196 Q 64 191 69 191 Q 87 189 103 188 L 115 186 Q 128 185 141 184 L 152 183 Q 152 183 153 183 Q 170 180 184 179 L 199 177 Q 207 175 213 174 Q 229 170 244 181 Q 248 185 246 187 Q 244 190 226 189 Q 212 189 200 189 L 184 189 Q 139 190 115 195" fill="#ff0000" /></svg>