<svg xmlns="http://www.w3.org/2000/svg" xmlns:xlink="http://www.w3.org/1999/xlink" width="270" height="270"><path d="M 0 0 L 270 270 M 270 0 L 0 270 M 135 0 L 135 270 M 0 135 L 270 135" stroke="#CCCCCC" /><path d="M 50 50 L 49 46 Q 49 43 51 42 Q 53 41 57 43 Q 81 51 82 60 Q 84 68 82 72 Q 80 76 77 76 Q 72 76 69 71 Q 63 63 57 56" fill="#000000" /><path d="M 24 105 L 24 102 Q 23 99 25 99 Q 28 98 32 99 Q 32 99 32 99 Q 55 106 58 118 Q 58 122 57 125 Q 54 129 50 128 Q 41 124 28 109" fill="#150000" /><path d="M 35 193 L 39 187 Q 70 136 73 135 Q 75 133 75 136 Q 76 137 74 142 Q 48 210 45 224 Q 45 231 43 231 Q 40 231 38 230 Q 28 225 25 205 Q 24 200 28 199" fill="#2a0000" /><path d="M 127 123 L 127 124 Q 126 129 121 123 Q 116 116 115 107 Q 110 75 101 55 Q 99 51 101 49 Q 102 48 105 49 Q 113 50 117 52 L 119 61 Q 121 71 127 103 Q 128 110 128 115 L 128 121" fill="#3f0000" /><path d="M 188 52 Q 183 48 153 54 L 146 55 Q 132 58 122 60 Q 120 61 119 61 L 117 52 Q 127 50 140 48 Q 157 45 171 43 Q 182 41 189 39 Q 193 38 198 40 Q 210 47 213 52" fill="#550000" /><path d="M 176 109 Q 178 108 179 105 Q 183 100 191 62 Q 192 56 188 52 L 213 52 Q 216 56 213 59 Q 207 65 204 73 Q 194 115 190 122 Q 185 128 183 125 Q 178 123 174 116" fill="#550000" /><path d="M 153 54 Q 153 54 153 54 Q 157 56 160 60 Q 162 63 160 64 Q 159 67 157 71 Q 156 74 153 78 L 151 83 Q 137 104 131 105 Q 130 105 130 105 Q 130 103 131 102 Q 150 72 147 58 Q 146 56 146 55" fill="#6a0000" /><path d="M 153 78 L 154 78 Q 173 84 175 90 Q 176 94 176 96 Q 175 98 173 99 Q 172 98 155 86 Q 152 84 151 83" fill="#7f0000" /><path d="M 128 115 Q 140 112 155 108 Q 165 106 170 107 Q 174 108 176 109 L 174 116 Q 156 118 132 121 Q 130 121 128 121" fill="#940000" /><path d="M 102 208 L 102 202 Q 98 173 90 154 Q 88 150 89 149 Q 90 147 93 148 Q 103 150 106 152 L 108 160 Q 109 170 114 199 Q 115 206 115 212 L 105 213" fill="#aa0000" /><path d="M 106 152 Q 177 140 184 139 Q 202 134 206 137 Q 213 141 220 146 L 197 149 Q 196 147 192 147 Q 178 148 168 150 L 160 151 Q 146 152 135 154 L 128 155 Q 119 157 108 160" fill="#bf0000" /><path d="M 186 206 Q 195 179 198 162 Q 200 154 197 149 L 220 146 Q 227 151 222 157 Q 212 167 208 182 Q 205 193 203 204" fill="#bf0000" /><path d="M 135 211 Q 130 203 130 180 Q 130 175 128 155 L 135 154 Q 136 157 137 160 Q 143 199 141 209 Q 141 210 141 210" fill="#d40000" /><path d="M 157 209 Q 160 187 162 177 Q 162 169 160 151 L 168 150 Q 172 152 175 157 Q 178 160 176 164 Q 172 175 167 208" fill="#e90000" /><path d="M 115 212 Q 125 211 135 211 L 141 210 Q 147 209 154 209 Q 156 208 157 209 L 167 208 Q 177 206 186 206 L 203 204 Q 207 203 212 202 Q 227 199 241 210 Q 246 214 244 217 Q 243 219 238 219 Q 149 213 91 226 Q 87 227 81 225 Q 77 223 73 220 Q 69 215 75 215 Q 90 213 105 213" fill="#ff0000" /></svg>