<svg xmlns="http://www.w3.org/2000/svg" xmlns:xlink="http://www.w3.org/1999/xlink" width="270" height="270"><path d="M 0 0 L 270 270 M 270 0 L 0 270 M 135 0 L 135 270 M 0 135 L 270 135" stroke="#CCCCCC" /><path d="M 39 51 L 39 48 Q 38 44 40 43 Q 43 42 61 48 Q 68 52 69 56 Q 71 65 70 69 Q 68 72 65 72 Q 61 72 58 69 Q 52 62 46 57" fill="#000000" /><path d="M 22 103 L 22 99 Q 22 96 24 96 Q 26 95 30 96 Q 41 99 47 104 Q 52 107 53 114 Q 54 118 52 122 Q 49 125 45 124 Q 37 120 27 106" fill="#130000" /><path d="M 27 185 L 30 179 Q 60 131 64 129 Q 66 127 66 130 Q 67 131 65 135 Q 37 204 36 215 Q 35 221 34 222 Q 31 222 29 220 Q 20 215 17 196 Q 16 192 19 191" fill="#270000" /><path d="M 123 66 L 121 66 Q 108 70 98 63 Q 92 59 100 58 Q 119 57 136 54 L 148 51 Q 160 48 171 45 Q 178 42 186 44 Q 192 46 194 49 Q 195 51 193 53 Q 191 54 147 62 L 126 66" fill="#3a0000" /><path d="M 136 54 Q 135 28 131 20 Q 129 16 133 15 Q 140 13 153 24 Q 156 27 154 29 Q 149 37 148 51 L 147 62 Q 147 72 147 82 Q 148 102 144 105 Q 140 108 137 104 Q 134 94 134 91 Q 135 85 135 71" fill="#4e0000" /><path d="M 136 54 L 135 71 Q 135 71 135 72 Q 132 78 125 85 Q 117 94 110 99 Q 102 106 94 109 Q 86 112 83 112 Q 80 111 83 109 Q 118 84 126 66" fill="#620000" /><path d="M 158 81 L 158 79 Q 157 76 160 77 Q 196 83 200 93 Q 205 102 203 106 Q 201 108 200 108 Q 196 108 192 104 Q 175 91 161 83" fill="#750000" /><path d="M 127 137 L 123 142 Q 80 184 57 185 Q 50 186 55 182 Q 117 139 125 112 Q 126 109 128 109 Q 130 108 137 111 Q 143 113 144 116 Q 144 117 144 118 L 141 123" fill="#890000" /><path d="M 144 118 Q 146 119 149 121 Q 192 148 222 155 Q 236 158 249 161 Q 253 162 253 164 Q 252 165 248 166 Q 230 172 212 173 Q 204 173 199 171 Q 157 139 141 123" fill="#9c0000" /><path d="M 135 162 L 130 153 Q 127 149 129 148 Q 131 146 135 147 Q 142 150 148 155 Q 152 158 149 163 Q 146 171 148 217 Q 149 244 140 252 Q 137 256 133 252 L 131 227 Q 136 223 135 172" fill="#b00000" /><path d="M 133 252 Q 128 244 113 230 Q 110 229 110 227 Q 110 226 113 226 Q 130 228 131 227" fill="#b00000" /><path d="M 101 173 L 101 171 Q 102 169 103 169 Q 115 171 119 176 Q 121 180 121 183 Q 119 187 116 187 Q 112 186 102 174" fill="#c40000" /><path d="M 80 216 L 90 212 Q 123 195 125 196 Q 125 197 123 200 Q 121 202 118 205 Q 98 222 96 226 Q 94 229 91 228 Q 83 226 78 224 Q 75 223 75 220 Q 75 218 78 217" fill="#d70000" /><path d="M 167 166 L 166 164 Q 166 160 169 160 Q 174 161 177 164 Q 181 167 182 171 Q 183 173 180 174 Q 173 177 159 186 Q 157 187 156 186 Q 155 185 156 184 Q 162 175 165 170" fill="#eb0000" /><path d="M 160 203 L 160 199 Q 160 196 162 197 Q 163 197 163 198 Q 196 206 200 219 Q 203 229 201 232 Q 199 235 197 234 Q 193 233 189 229 Q 174 214 162 205" fill="#ff0000" /></svg>