<svg xmlns="http://www.w3.org/2000/svg" xmlns:xlink="http://www.w3.org/1999/xlink" width="270" height="270"><path d="M 0 0 L 270 270 M 270 0 L 0 270 M 135 0 L 135 270 M 0 135 L 270 135" stroke="#CCCCCC" /><path d="M 65 78 Q 60 81 58 80 Q 55 78 52 75 Q 50 72 54 68 Q 57 64 58 55 Q 58 46 54 37 Q 52 33 54 32 Q 60 31 68 39 Q 69 41 69 59" fill="#000000" /><path d="M 95 67 Q 94 67 93 67 Q 93 67 92 67 Q 72 70 65 78 L 69 59 Q 68 64 72 63 Q 82 60 94 58" fill="#000000" /><path d="M 95 87 Q 95 77 95 67 L 94 58 Q 94 48 94 39 Q 93 32 89 26 Q 88 23 89 22 Q 93 19 98 22 Q 109 29 110 31 Q 111 34 109 37 Q 107 45 107 58 Q 106 118 106 125 Q 106 137 101 142 Q 99 143 98 142 Q 97 141 95 138 Q 90 125 92 117 Q 95 106 95 93" fill="#120000" /><path d="M 93 94 L 68 104 L 60 107 Q 54 110 48 113 Q 45 115 43 115 Q 36 110 31 106 Q 29 104 30 101 Q 30 99 33 98 Q 42 99 95 87 L 95 93" fill="#240000" /><path d="M 68 104 Q 72 106 75 109 Q 77 112 76 114 Q 66 125 64 129 Q 48 150 35 151 Q 32 152 34 149 Q 38 145 42 141 Q 61 123 60 107" fill="#360000" /><path d="M 156 31 Q 149 36 144 40 L 142 42 Q 135 47 130 49 L 125 51 Q 122 51 119 52 Q 116 53 115 53 Q 113 52 115 52 Q 127 43 132 38 Q 151 22 150 11 Q 150 9 152 9 Q 154 9 158 11 Q 166 16 166 20 Q 166 22 164 23 Q 160 24 158 28" fill="#480000" /><path d="M 180 36 Q 179 34 175 35 Q 160 36 156 31 L 158 28 Q 169 27 178 27 Q 190 24 193 26 Q 204 33 204 35 Q 205 37 202 38" fill="#5b0000" /><path d="M 167 67 Q 141 86 127 86 Q 124 85 127 83 Q 163 62 177 42 Q 181 38 180 36 L 202 38 Q 194 43 189 48 Q 180 56 172 63 Q 169 65 167 67" fill="#5b0000" /><path d="M 144 40 Q 154 43 157 48 Q 158 51 158 54 Q 157 56 154 56 Q 152 56 149 53 Q 142 43 142 42" fill="#6d0000" /><path d="M 130 49 Q 141 56 142 60 Q 142 65 141 67 Q 139 69 138 68 Q 136 68 134 65 Q 131 61 129 56 Q 126 53 125 51" fill="#7f0000" /><path d="M 155 95 L 131 102 Q 128 103 124 102 Q 120 101 118 99 Q 115 95 119 95 Q 145 91 167 87 Q 170 86 173 86 L 185 83 Q 193 81 200 80 Q 213 76 225 84 Q 228 86 227 89 Q 226 90 223 90 Q 201 91 184 92 L 173 93" fill="#910000" /><path d="M 173 86 Q 172 78 168 71 Q 166 68 167 67 L 167 67 Q 169 65 173 67 Q 179 69 184 73 Q 188 76 186 80 Q 185 82 185 83 L 184 92 Q 183 96 185 113 Q 187 138 179 146 Q 176 149 173 146 L 171 124 Q 174 121 173 93" fill="#a30000" /><path d="M 173 146 Q 169 139 156 127 Q 154 125 153 124 Q 153 122 156 123 Q 170 124 171 124" fill="#a30000" /><path d="M 130 109 L 130 108 Q 130 106 132 106 Q 142 109 145 115 Q 146 118 146 121 Q 144 124 142 123 Q 137 123 131 111" fill="#b60000" /><path d="M 135 168 Q 136 221 137 229 Q 136 248 127 256 Q 123 260 119 255 L 118 227 Q 124 223 121 156 Q 122 145 116 135 Q 113 131 115 129 Q 117 127 122 129 Q 129 131 136 137 Q 140 140 138 145 Q 135 152 135 161" fill="#c80000" /><path d="M 119 255 Q 114 246 99 231 Q 96 228 96 227 Q 96 225 99 225 Q 117 228 118 227" fill="#c80000" /><path d="M 68 162 L 80 159 Q 92 154 97 157 Q 106 160 108 163 Q 109 166 106 168 L 85 167 Q 83 167 60 173 Q 54 175 43 169 Q 40 167 40 165 Q 40 163 43 164" fill="#da0000" /><path d="M 106 168 Q 103 171 100 176 Q 83 205 69 217 Q 54 229 37 237 Q 32 238 29 238 Q 27 237 31 234 Q 65 212 84 173 Q 87 168 85 167" fill="#da0000" /><path d="M 163 169 L 170 163 Q 185 152 185 145 Q 185 142 188 142 Q 191 142 196 146 Q 201 150 203 154 Q 205 159 200 160 Q 198 160 158 178 L 155 175" fill="#ec0000" /><path d="M 158 178 Q 184 202 206 209 Q 236 218 239 220 Q 242 222 240 224 Q 237 225 211 232 Q 209 232 207 232 Q 190 234 161 197 Q 141 170 135 168 L 135 161 Q 142 162 155 175" fill="#ff0000" /></svg>