<svg xmlns="http://www.w3.org/2000/svg" xmlns:xlink="http://www.w3.org/1999/xlink" width="270" height="270"><path d="M 0 0 L 270 270 M 270 0 L 0 270 M 135 0 L 135 270 M 0 135 L 270 135" stroke="#CCCCCC" /><path d="M 40 51 L 40 48 Q 40 44 41 43 Q 44 43 48 44 Q 71 54 72 62 Q 74 71 71 75 Q 70 79 66 78 Q 62 78 58 73 Q 52 65 47 59" fill="#000000" /><path d="M 22 108 L 22 105 Q 21 101 23 101 Q 25 100 28 101 Q 41 105 47 110 Q 52 114 53 121 Q 53 126 51 129 Q 49 132 44 131 Q 37 127 26 112" fill="#120000" /><path d="M 26 196 L 28 192 Q 54 151 56 150 Q 58 148 59 150 Q 59 152 57 156 Q 38 217 37 225 Q 37 231 35 232 Q 33 233 31 231 Q 22 226 17 207 Q 17 202 20 201" fill="#240000" /><path d="M 119 50 Q 117 48 111 51 Q 103 56 99 56 Q 91 55 88 53 Q 86 52 87 51 Q 88 49 96 49 Q 99 48 108 45 Q 117 41 120 40 Q 123 38 125 37 Q 129 37 137 42 Q 144 45 145 48" fill="#360000" /><path d="M 115 78 L 118 66 Q 121 51 119 50 L 145 48 Q 145 50 142 52 Q 136 57 133 64 Q 125 86 117 99 Q 93 136 65 140 Q 63 141 63 140 Q 63 138 64 137 Q 87 122 104 99 L 108 91" fill="#360000" /><path d="M 104 99 Q 103 99 102 99 L 101 98 Q 84 87 83 79 Q 83 77 84 77 Q 86 76 89 77 Q 106 84 108 91" fill="#480000" /><path d="M 156 56 Q 156 55 156 55 Q 167 36 167 32 Q 166 29 168 28 Q 171 27 176 30 Q 182 33 185 36 Q 188 40 184 42 Q 178 45 175 49 Q 168 54 160 60 Q 161 60 161 61" fill="#5b0000" /><path d="M 194 57 L 194 52 Q 194 49 197 49 Q 200 49 204 52 Q 209 56 211 60 Q 213 64 208 65 Q 203 67 190 74 Q 185 76 177 80 L 175 77" fill="#6d0000" /><path d="M 177 80 Q 198 103 219 112 Q 246 122 250 125 Q 252 127 251 128 Q 248 130 244 130 Q 235 131 221 132 Q 211 134 205 128 Q 184 107 174 92 Q 159 70 153 64 Q 152 63 152 63 Q 151 61 149 61 Q 147 59 146 58 Q 144 56 145 54 Q 150 52 156 56 L 161 61 Q 168 69 175 77" fill="#7f0000" /><path d="M 128 110 L 133 109 Q 138 107 143 106 Q 151 102 159 103 Q 167 104 169 107 Q 171 109 168 112 Q 167 113 163 114 Q 158 115 153 116 Q 128 122 119 117 Q 111 113 121 111" fill="#910000" /><path d="M 118 183 L 118 185 Q 117 189 112 184 Q 108 180 107 175 Q 102 158 96 147 Q 93 143 95 142 Q 95 140 98 141 Q 99 141 100 141 L 113 149 Q 113 154 117 173 L 118 182" fill="#a30000" /><path d="M 100 141 Q 121 141 152 132 Q 168 127 173 129 Q 186 136 190 140 L 165 142 Q 163 140 158 141 Q 118 148 113 149" fill="#b60000" /><path d="M 159 165 L 160 165 Q 163 157 166 148 Q 167 144 165 142 L 190 140 Q 193 145 189 149 Q 181 153 174 167" fill="#b60000" /><path d="M 117 173 Q 136 170 159 165 L 174 167 Q 179 171 179 173 Q 179 175 176 175 Q 139 178 122 181 Q 120 182 118 182" fill="#c80000" /><path d="M 105 196 L 105 194 Q 105 191 106 191 Q 107 190 108 191 Q 117 193 124 200 Q 127 204 127 210 Q 127 214 125 216 Q 123 218 119 217 Q 114 213 107 200" fill="#da0000" /><path d="M 146 220 L 148 217 Q 160 192 159 184 Q 158 181 161 180 Q 166 179 169 183 Q 177 189 178 194 Q 180 197 176 200 Q 172 203 158 219 Q 157 221 156 222 L 145 223" fill="#ec0000" /><path d="M 156 222 Q 172 219 184 218 Q 200 213 215 225 Q 220 229 218 232 Q 217 235 211 234 Q 211 234 211 234 Q 142 229 91 241 Q 86 242 81 240 Q 76 238 72 234 Q 68 230 74 229 Q 109 226 139 223 Q 142 223 145 223" fill="#ff0000" /></svg>