<svg xmlns="http://www.w3.org/2000/svg" xmlns:xlink="http://www.w3.org/1999/xlink" width="270" height="270"><path d="M 0 0 L 270 270 M 270 0 L 0 270 M 135 0 L 135 270 M 0 135 L 270 135" stroke="#CCCCCC" /><path d="M 54 38 L 53 34 Q 53 31 54 30 Q 58 29 75 35 Q 83 39 84 43 Q 86 52 85 55 Q 83 59 80 59 Q 75 59 72 55 Q 66 49 61 44" fill="#000000" /><path d="M 33 88 L 33 85 Q 32 82 34 82 Q 36 81 41 82 L 41 83 Q 62 89 65 102 Q 65 106 63 109 Q 61 113 57 112 Q 48 107 37 92" fill="#0f0000" /><path d="M 38 192 L 41 186 Q 68 139 71 136 Q 73 135 74 137 Q 74 139 72 143 Q 48 212 48 220 Q 47 226 46 227 Q 43 227 41 226 Q 33 221 28 203 Q 28 198 31 197" fill="#1f0000" /><path d="M 140 18 L 139 15 Q 138 12 139 11 Q 143 9 159 13 Q 166 15 168 19 Q 171 26 171 30 Q 170 33 167 34 Q 163 34 160 32 Q 153 27 147 22" fill="#2f0000" /><path d="M 109 64 L 108 73 Q 106 81 102 86 Q 100 92 95 87 Q 88 76 92 70 Q 103 56 102 47 Q 102 41 106 44 Q 109 46 112 51 L 112 59" fill="#3f0000" /><path d="M 112 51 Q 112 52 112 52 Q 123 50 133 48 Q 183 38 190 37 Q 218 30 224 36 L 208 43 Q 205 43 197 44 Q 156 49 128 58 Q 117 61 112 59" fill="#4f0000" /><path d="M 224 36 Q 240 48 241 51 Q 241 53 232 55 Q 221 59 207 67 Q 203 70 201 69 Q 200 68 202 65 Q 211 47 211 46 Q 212 44 208 43" fill="#4f0000" /><path d="M 142 81 Q 132 82 124 79 Q 119 75 126 74 Q 137 72 146 70 Q 154 67 161 65 Q 167 62 174 63 Q 180 64 182 66 Q 183 68 181 70 Q 179 71 152 78" fill="#5f0000" /><path d="M 149 121 Q 143 113 144 109 Q 146 90 142 81 L 152 78 Q 153 79 155 80 Q 159 83 158 87 Q 157 92 157 96 Q 155 112 154 115" fill="#6f0000" /><path d="M 112 93 L 114 93 Q 115 93 116 95 Q 117 101 116 108 Q 114 121 105 127 Q 100 129 99 126 Q 95 117 100 111 Q 106 103 111 95" fill="#7f0000" /><path d="M 125 156 Q 107 170 89 181 Q 82 186 67 190 Q 65 190 65 189 Q 65 189 66 188 Q 91 172 124 144 L 133 135 Q 141 128 149 121 L 154 115 Q 176 87 178 82 Q 180 79 184 79 Q 190 81 197 86 Q 200 87 200 89 Q 200 92 196 93 Q 193 94 150 133" fill="#8f0000" /><path d="M 135 208 L 134 209 Q 131 212 129 209 Q 120 199 123 187 Q 126 177 125 156 L 124 144 Q 123 141 123 140 Q 122 138 122 137 Q 120 134 122 133 Q 125 132 131 135 L 138 144 Q 137 151 137 158 L 137 162 Q 137 168 137 178 L 137 184 Q 136 196 136 198 L 135 206" fill="#9f0000" /><path d="M 189 135 Q 187 132 181 133 Q 143 138 138 144 L 131 135 Q 132 135 133 135 L 150 133 Q 155 132 159 131 Q 174 129 186 124 Q 191 122 195 123 Q 206 128 213 134" fill="#af0000" /><path d="M 191 196 Q 191 196 191 195 Q 193 188 192 152 Q 192 139 189 135 L 213 134 Q 215 136 212 140 Q 206 149 209 186 Q 210 198 207 204 Q 202 213 199 213 Q 197 213 193 206 Q 191 203 191 201" fill="#af0000" /><path d="M 137 158 Q 166 149 172 151 Q 178 152 180 155 Q 182 158 177 159 Q 162 160 142 163 Q 139 163 137 162" fill="#bf0000" /><path d="M 137 178 Q 172 171 175 172 Q 180 173 182 177 Q 183 180 179 180 Q 162 182 138 184 Q 137 184 137 184" fill="#cf0000" /><path d="M 136 198 Q 154 196 176 192 Q 183 190 187 193 Q 189 195 191 196 L 191 201 Q 190 201 190 202 Q 155 203 138 206 Q 136 206 135 206" fill="#df0000" /><path d="M 138 212 L 140 212 Q 142 212 149 215 Q 155 218 155 221 Q 155 224 152 226 Q 107 257 90 256 Q 83 256 89 254 Q 129 231 136 215" fill="#ef0000" /><path d="M 174 219 L 174 215 Q 175 213 177 214 Q 216 231 219 244 Q 222 254 218 258 Q 217 260 214 260 Q 211 258 207 254 Q 190 235 177 221" fill="#ff0000" /></svg>