<svg xmlns="http://www.w3.org/2000/svg" xmlns:xlink="http://www.w3.org/1999/xlink" width="270" height="270"><path d="M 0 0 L 270 270 M 270 0 L 0 270 M 135 0 L 135 270 M 0 135 L 270 135" stroke="#CCCCCC" /><path d="M 50 47 L 49 44 Q 49 41 51 40 Q 55 39 72 46 Q 79 50 80 55 Q 82 63 80 66 Q 78 70 76 70 Q 71 70 68 66 Q 62 59 57 53" fill="#CCCCCC"/><path d="M 32 100 L 31 97 Q 30 94 32 94 Q 36 92 44 95 Q 59 97 63 107 Q 64 111 63 115 Q 61 118 57 118 Q 49 115 36 103" fill="#CCCCCC"/><path d="M 40 192 L 43 186 Q 70 136 73 134 Q 75 132 75 135 Q 76 136 74 140 Q 51 208 50 220 Q 50 227 49 227 Q 46 228 44 226 Q 36 223 31 203 Q 30 199 33 198" fill="#CCCCCC"/><path d="M 137 22 L 136 19 Q 136 16 137 15 Q 138 14 142 15 Q 163 18 166 25 Q 168 32 167 36 Q 166 38 164 39 Q 160 39 157 37 Q 150 31 144 26" fill="#CCCCCC"/><path d="M 108 66 L 107 67 Q 105 71 99 83 Q 94 95 90 96 Q 89 97 87 94 Q 85 90 85 85 Q 85 81 88 77 Q 98 61 97 52 Q 98 49 99 48 Q 101 48 102 49 Q 103 50 108 58 L 109 64" fill="#CCCCCC"/><path d="M 108 58 Q 108 57 108 57 Q 119 56 130 53 Q 177 43 184 43 Q 210 36 217 41 Q 234 53 234 56 L 205 52 Q 205 50 201 49 Q 198 48 187 50 Q 136 60 124 65 Q 113 67 109 64" fill="#CCCCCC"/><path d="M 234 56 Q 235 58 226 61 Q 215 63 203 72 Q 199 75 197 74 Q 196 73 197 70 Q 205 53 205 52" fill="#CCCCCC"/><path d="M 112 100 Q 127 79 125 75 Q 125 72 127 72 Q 129 71 133 74 Q 138 76 141 79 Q 143 82 139 84 Q 139 84 138 84 Q 127 90 115 103" fill="#CCCCCC"/><path d="M 119 150 Q 113 143 112 137 Q 107 117 99 104 Q 97 101 98 99 Q 99 98 102 98 Q 109 99 112 100 L 115 103 Q 115 104 115 105 Q 116 108 118 117 L 119 124 Q 122 134 123 139 L 123 146 Q 123 147 123 149 Q 123 149 123 149" fill="#CCCCCC"/><path d="M 118 117 Q 126 111 135 112 Q 141 112 144 115 Q 146 118 141 119 Q 131 121 119 124" fill="#CCCCCC"/><path d="M 190 88 Q 187 87 176 90 Q 164 92 159 90 Q 156 88 157 86 Q 157 85 160 85 Q 164 85 171 83 Q 193 76 198 80 Q 209 86 213 90" fill="#CCCCCC"/><path d="M 179 134 Q 181 129 186 114 L 188 107 Q 189 103 191 98 Q 193 90 190 88 L 213 90 Q 216 94 212 98 Q 203 104 199 115 Q 192 138 188 143 Q 186 146 182 146 Q 179 147 178 143 Q 178 141 178 140" fill="#CCCCCC"/><path d="M 186 114 Q 175 114 160 116 Q 156 116 155 115 Q 151 112 154 111 Q 182 103 188 107" fill="#CCCCCC"/><path d="M 123 139 Q 138 137 156 133 Q 171 128 179 134 L 178 140 Q 145 143 130 146 Q 127 147 124 146 Q 123 146 123 146" fill="#CCCCCC"/><path d="M 112 181 L 105 184 Q 94 189 93 189 Q 91 188 93 187 Q 121 163 119 151 Q 119 150 119 150 L 123 149 Q 124 149 127 150 Q 133 153 135 158 Q 134 160 131 163 Q 129 165 127 167 L 122 172" fill="#CCCCCC"/><path d="M 127 167 Q 146 164 195 153 Q 212 147 218 150 Q 227 153 234 158 Q 239 162 239 164 L 212 164 Q 209 160 184 165 Q 166 169 143 173 Q 129 176 122 172" fill="#CCCCCC"/><path d="M 239 164 Q 239 166 236 170 Q 232 173 231 178 Q 222 227 213 241 Q 204 254 195 254 L 196 231 Q 199 230 202 226 Q 206 219 209 206 Q 215 173 212 164" fill="#CCCCCC"/><path d="M 195 254 Q 192 255 190 250 Q 185 242 176 232 Q 173 230 173 229 Q 173 227 176 228 Q 193 232 196 231" fill="#CCCCCC"/><path d="M 90 193 L 91 192 Q 93 193 94 194 Q 96 200 95 208 Q 96 223 85 231 Q 80 234 78 230 Q 74 222 78 215 Q 84 205 89 195" fill="#CCCCCC"/><path d="M 112 194 L 113 193 Q 114 191 116 192 Q 128 200 129 207 Q 129 212 128 215 Q 125 218 122 216 Q 117 214 112 197" fill="#CCCCCC"/><path d="M 137 188 L 138 187 Q 139 184 141 185 Q 144 186 151 192 Q 156 195 157 199 Q 158 204 157 207 Q 154 211 151 210 Q 146 208 138 191" fill="#CCCCCC"/><path d="M 164 186 L 164 184 Q 164 181 165 180 Q 168 179 183 188 Q 189 192 190 197 Q 191 203 189 206 Q 187 208 186 208 Q 182 207 169 191" fill="#CCCCCC"/><path d="M 50 47 L 49 44 Q 49 41 51 40 Q 55 39 72 46 Q 79 50 80 55 Q 82 63 80 66 Q 78 70 76 70 Q 71 70 68 66 Q 62 59 57 53" fill="#000000" /><path d="M 32 100 L 31 97 Q 30 94 32 94 Q 36 92 44 95 Q 59 97 63 107 Q 64 111 63 115 Q 61 118 57 118 Q 49 115 36 103" fill="#0f0000" /><path d="M 40 192 L 43 186 Q 70 136 73 134 Q 75 132 75 135 Q 76 136 74 140 Q 51 208 50 220 Q 50 227 49 227 Q 46 228 44 226 Q 36 223 31 203 Q 30 199 33 198" fill="#1e0000" /><path d="M 137 22 L 136 19 Q 136 16 137 15 Q 138 14 142 15 Q 163 18 166 25 Q 168 32 167 36 Q 166 38 164 39 Q 160 39 157 37 Q 150 31 144 26" fill="#2d0000" /><path d="M 108 66 L 107 67 Q 105 71 99 83 Q 94 95 90 96 Q 89 97 87 94 Q 85 90 85 85 Q 85 81 88 77 Q 98 61 97 52 Q 98 49 99 48 Q 101 48 102 49 Q 103 50 108 58 L 109 64" fill="#3c0000" /><path d="M 108 58 Q 108 57 108 57 Q 119 56 130 53 Q 177 43 184 43 Q 210 36 217 41 Q 234 53 234 56 L 205 52 Q 205 50 201 49 Q 198 48 187 50 Q 136 60 124 65 Q 113 67 109 64" fill="#4b0000" /><path d="M 234 56 Q 235 58 226 61 Q 215 63 203 72 Q 199 75 197 74 Q 196 73 197 70 Q 205 53 205 52" fill="#4b0000" /><path d="M 112 100 Q 127 79 125 75 Q 125 72 127 72 Q 129 71 133 74 Q 138 76 141 79 Q 143 82 139 84 Q 139 84 138 84 Q 127 90 115 103" fill="#5a0000" /><path d="M 119 150 Q 113 143 112 137 Q 107 117 99 104 Q 97 101 98 99 Q 99 98 102 98 Q 109 99 112 100 L 115 103 Q 115 104 115 105 Q 116 108 118 117 L 119 124 Q 122 134 123 139 L 123 146 Q 123 147 123 149 Q 123 149 123 149" fill="#690000" /><path d="M 118 117 Q 126 111 135 112 Q 141 112 144 115 Q 146 118 141 119 Q 131 121 119 124" fill="#780000" /><path d="M 190 88 Q 187 87 176 90 Q 164 92 159 90 Q 156 88 157 86 Q 157 85 160 85 Q 164 85 171 83 Q 193 76 198 80 Q 209 86 213 90" fill="#870000" /><path d="M 179 134 Q 181 129 186 114 L 188 107 Q 189 103 191 98 Q 193 90 190 88 L 213 90 Q 216 94 212 98 Q 203 104 199 115 Q 192 138 188 143 Q 186 146 182 146 Q 179 147 178 143 Q 178 141 178 140" fill="#870000" /><path d="M 186 114 Q 175 114 160 116 Q 156 116 155 115 Q 151 112 154 111 Q 182 103 188 107" fill="#960000" /><path d="M 123 139 Q 138 137 156 133 Q 171 128 179 134 L 178 140 Q 145 143 130 146 Q 127 147 124 146 Q 123 146 123 146" fill="#a50000" /><path d="M 112 181 L 105 184 Q 94 189 93 189 Q 91 188 93 187 Q 121 163 119 151 Q 119 150 119 150 L 123 149 Q 124 149 127 150 Q 133 153 135 158 Q 134 160 131 163 Q 129 165 127 167 L 122 172" fill="#b40000" /><path d="M 127 167 Q 146 164 195 153 Q 212 147 218 150 Q 227 153 234 158 Q 239 162 239 164 L 212 164 Q 209 160 184 165 Q 166 169 143 173 Q 129 176 122 172" fill="#c30000" /><path d="M 239 164 Q 239 166 236 170 Q 232 173 231 178 Q 222 227 213 241 Q 204 254 195 254 L 196 231 Q 199 230 202 226 Q 206 219 209 206 Q 215 173 212 164" fill="#c30000" /><path d="M 195 254 Q 192 255 190 250 Q 185 242 176 232 Q 173 230 173 229 Q 173 227 176 228 Q 193 232 196 231" fill="#c30000" /><path d="M 90 193 L 91 192 Q 93 193 94 194 Q 96 200 95 208 Q 96 223 85 231 Q 80 234 78 230 Q 74 222 78 215 Q 84 205 89 195" fill="#d20000" /><path d="M 112 194 L 113 193 Q 114 191 116 192 Q 128 200 129 207 Q 129 212 128 215 Q 125 218 122 216 Q 117 214 112 197" fill="#e10000" /><path d="M 137 188 L 138 187 Q 139 184 141 185 Q 144 186 151 192 Q 156 195 157 199 Q 158 204 157 207 Q 154 211 151 210 Q 146 208 138 191" fill="#f00000" /><path d="M 164 186 L 164 184 Q 164 181 165 180 Q 168 179 183 188 Q 189 192 190 197 Q 191 203 189 206 Q 187 208 186 208 Q 182 207 169 191" fill="#ff0000" /></svg>