<svg xmlns="http://www.w3.org/2000/svg" xmlns:xlink="http://www.w3.org/1999/xlink" width="270" height="270"><path d="M 0 0 L 270 270 M 270 0 L 0 270 M 135 0 L 135 270 M 0 135 L 270 135" stroke="#CCCCCC" /><path d="M 47 44 L 46 42 Q 45 38 46 37 Q 47 37 52 37 Q 73 40 77 48 Q 79 55 79 59 Q 78 62 75 63 Q 71 63 67 60 Q 60 54 54 49" fill="#CCCCCC"/><path d="M 30 95 L 30 91 Q 29 88 31 88 Q 33 87 37 88 Q 51 92 54 94 Q 59 98 61 103 Q 62 108 60 111 Q 58 114 54 113 Q 45 110 34 98" fill="#CCCCCC"/><path d="M 40 193 L 43 188 Q 65 141 66 140 Q 69 138 69 140 Q 69 142 68 146 Q 54 209 54 219 Q 54 226 53 226 Q 50 227 48 226 Q 38 223 33 204 Q 32 200 35 199" fill="#CCCCCC"/><path d="M 141 17 L 141 16 Q 141 13 143 13 Q 158 15 162 21 Q 165 26 164 29 Q 163 33 160 33 Q 154 33 143 19" fill="#CCCCCC"/><path d="M 142 43 L 149 41 Q 170 35 174 36 Q 180 37 182 39 Q 183 41 181 43 Q 180 44 175 45 Q 164 47 154 50 Q 139 52 131 49 Q 125 45 133 44" fill="#CCCCCC"/><path d="M 142 63 L 147 62 Q 164 57 166 57 Q 171 58 173 60 Q 173 61 172 63 Q 171 63 168 64 Q 163 66 159 67 Q 142 70 135 68 Q 130 65 136 63" fill="#CCCCCC"/><path d="M 141 79 L 146 78 Q 163 74 166 75 Q 171 76 172 78 Q 173 79 172 81 Q 171 81 167 82 Q 141 88 134 84 Q 129 81 135 80" fill="#CCCCCC"/><path d="M 143 128 L 143 130 Q 142 133 139 129 Q 136 126 135 122 Q 132 110 128 102 Q 127 99 128 98 Q 128 97 130 98 Q 136 98 138 99 L 141 105 Q 141 109 143 120 L 143 126" fill="#CCCCCC"/><path d="M 138 99 Q 151 96 157 94 Q 166 89 170 91 Q 175 95 178 97 L 164 101 Q 163 99 158 101 Q 151 102 142 104 Q 138 105 141 105" fill="#CCCCCC"/><path d="M 161 115 Q 163 110 164 106 Q 165 102 164 101 L 178 97 Q 182 99 178 104 Q 175 107 171 116" fill="#CCCCCC"/><path d="M 143 120 Q 150 118 160 115 L 161 115 L 171 116 Q 175 119 175 120 Q 175 122 173 122 Q 155 124 148 125 Q 145 126 143 126" fill="#CCCCCC"/><path d="M 77 83 Q 75 79 74 76 Q 73 73 77 71 Q 79 68 81 66 Q 98 39 95 30 Q 94 27 95 26 Q 99 25 102 28 Q 110 34 110 37 Q 110 38 108 41 Q 99 53 89 68" fill="#CCCCCC"/><path d="M 101 77 Q 91 77 82 83 Q 79 84 77 83 L 89 68 Q 86 72 92 72 L 105 72" fill="#CCCCCC"/><path d="M 91 108 Q 88 110 86 108 Q 81 104 81 102 Q 80 99 83 97 Q 88 95 101 77 L 105 72 Q 113 58 113 51 Q 113 48 114 48 Q 116 47 119 49 Q 126 53 127 56 Q 129 58 126 60 Q 117 68 98 92 Q 94 96 99 95" fill="#CCCCCC"/><path d="M 101 100 L 91 108 L 99 95 Q 108 92 116 90 L 118 94" fill="#CCCCCC"/><path d="M 116 90 Q 115 87 114 84 Q 114 82 115 81 Q 116 79 117 80 Q 126 85 127 92 Q 127 96 126 97 Q 124 100 122 99 Q 119 97 118 94" fill="#CCCCCC"/><path d="M 80 115 L 81 114 Q 82 114 83 115 Q 86 119 87 125 Q 91 136 85 146 Q 82 149 80 147 Q 75 142 76 135 Q 79 126 79 116" fill="#CCCCCC"/><path d="M 96 114 L 97 113 Q 98 111 99 112 Q 108 120 108 127 Q 108 131 107 133 Q 104 135 102 133 Q 99 131 96 116" fill="#CCCCCC"/><path d="M 114 107 L 114 106 Q 115 104 117 105 Q 126 112 126 117 Q 126 122 125 123 Q 122 125 121 124 Q 117 123 114 109" fill="#CCCCCC"/><path d="M 180 71 Q 177 68 176 64 Q 176 62 180 59 Q 181 58 182 57 Q 199 34 194 25 Q 193 22 195 21 Q 199 20 202 23 Q 209 29 209 31 Q 210 33 207 36 Q 200 45 192 57" fill="#CCCCCC"/><path d="M 205 65 Q 198 65 189 70 Q 181 72 180 71 L 192 57 Q 189 61 195 61 L 208 61" fill="#CCCCCC"/><path d="M 194 95 Q 191 97 189 94 Q 185 90 185 88 Q 184 85 187 84 Q 191 82 205 65 L 208 61 Q 216 48 216 43 Q 216 40 217 40 Q 220 39 222 41 Q 228 45 230 49 Q 231 51 229 53 Q 223 57 202 79 Q 198 84 204 82" fill="#CCCCCC"/><path d="M 206 88 L 194 95 L 204 82 Q 211 80 220 79 L 222 83" fill="#CCCCCC"/><path d="M 220 79 Q 217 73 217 71 Q 218 70 220 70 Q 230 75 233 82 Q 233 86 233 88 Q 231 91 229 90 Q 226 89 222 83" fill="#CCCCCC"/><path d="M 185 106 L 186 105 Q 187 103 188 104 Q 197 111 198 117 Q 198 121 197 122 Q 194 124 193 123 Q 188 121 186 108" fill="#CCCCCC"/><path d="M 201 102 L 202 101 Q 203 99 204 99 Q 214 105 216 111 Q 216 116 215 118 Q 213 121 211 119 Q 206 117 202 104" fill="#CCCCCC"/><path d="M 220 98 L 220 96 Q 221 94 222 95 Q 225 96 230 99 Q 238 104 239 111 Q 240 118 237 120 Q 236 121 235 121 Q 232 119 230 116 Q 225 106 221 100" fill="#CCCCCC"/><path d="M 177 138 Q 175 137 171 138 Q 153 142 135 145 Q 128 148 122 145 Q 118 144 118 143 Q 118 140 121 140 Q 142 137 169 130 Q 180 123 197 136" fill="#CCCCCC"/><path d="M 174 153 Q 176 148 178 142 Q 179 139 177 138 L 197 136 Q 200 140 196 143 Q 190 146 186 153" fill="#CCCCCC"/><path d="M 147 159 L 174 153 L 186 153 Q 191 157 191 159 Q 191 161 189 161 Q 148 165 129 170 Q 127 170 128 170 L 127 162" fill="#CCCCCC"/><path d="M 128 170 Q 126 175 122 186 L 118 202 Q 114 204 111 202 Q 106 198 104 196 Q 103 193 105 189 Q 119 175 115 160 Q 114 157 115 156 Q 117 155 122 158 Q 125 160 127 162" fill="#CCCCCC"/><path d="M 122 186 Q 122 190 127 187 Q 147 181 169 177 Q 178 175 186 173 Q 194 171 199 175 Q 210 181 213 184 L 190 186 Q 188 184 183 185 Q 137 191 118 202" fill="#CCCCCC"/><path d="M 213 184 Q 215 187 211 190 Q 209 191 209 192 Q 207 193 188 235 Q 181 249 167 254 L 171 232 Q 179 229 190 196 Q 192 190 190 186" fill="#CCCCCC"/><path d="M 167 254 Q 162 256 160 250 Q 156 244 148 237 Q 143 234 143 232 Q 143 230 148 231 Q 168 234 171 232" fill="#CCCCCC"/><path d="M 47 44 L 46 42 Q 45 38 46 37 Q 47 37 52 37 Q 73 40 77 48 Q 79 55 79 59 Q 78 62 75 63 Q 71 63 67 60 Q 60 54 54 49" fill="#000000" /><path d="M 30 95 L 30 91 Q 29 88 31 88 Q 33 87 37 88 Q 51 92 54 94 Q 59 98 61 103 Q 62 108 60 111 Q 58 114 54 113 Q 45 110 34 98" fill="#0a0000" /><path d="M 40 193 L 43 188 Q 65 141 66 140 Q 69 138 69 140 Q 69 142 68 146 Q 54 209 54 219 Q 54 226 53 226 Q 50 227 48 226 Q 38 223 33 204 Q 32 200 35 199" fill="#150000" /><path d="M 141 17 L 141 16 Q 141 13 143 13 Q 158 15 162 21 Q 165 26 164 29 Q 163 33 160 33 Q 154 33 143 19" fill="#1f0000" /><path d="M 142 43 L 149 41 Q 170 35 174 36 Q 180 37 182 39 Q 183 41 181 43 Q 180 44 175 45 Q 164 47 154 50 Q 139 52 131 49 Q 125 45 133 44" fill="#2a0000" /><path d="M 142 63 L 147 62 Q 164 57 166 57 Q 171 58 173 60 Q 173 61 172 63 Q 171 63 168 64 Q 163 66 159 67 Q 142 70 135 68 Q 130 65 136 63" fill="#350000" /><path d="M 141 79 L 146 78 Q 163 74 166 75 Q 171 76 172 78 Q 173 79 172 81 Q 171 81 167 82 Q 141 88 134 84 Q 129 81 135 80" fill="#3f0000" /><path d="M 143 128 L 143 130 Q 142 133 139 129 Q 136 126 135 122 Q 132 110 128 102 Q 127 99 128 98 Q 128 97 130 98 Q 136 98 138 99 L 141 105 Q 141 109 143 120 L 143 126" fill="#4a0000" /><path d="M 138 99 Q 151 96 157 94 Q 166 89 170 91 Q 175 95 178 97 L 164 101 Q 163 99 158 101 Q 151 102 142 104 Q 138 105 141 105" fill="#550000" /><path d="M 161 115 Q 163 110 164 106 Q 165 102 164 101 L 178 97 Q 182 99 178 104 Q 175 107 171 116" fill="#550000" /><path d="M 143 120 Q 150 118 160 115 L 161 115 L 171 116 Q 175 119 175 120 Q 175 122 173 122 Q 155 124 148 125 Q 145 126 143 126" fill="#5f0000" /><path d="M 77 83 Q 75 79 74 76 Q 73 73 77 71 Q 79 68 81 66 Q 98 39 95 30 Q 94 27 95 26 Q 99 25 102 28 Q 110 34 110 37 Q 110 38 108 41 Q 99 53 89 68" fill="#6a0000" /><path d="M 101 77 Q 91 77 82 83 Q 79 84 77 83 L 89 68 Q 86 72 92 72 L 105 72" fill="#6a0000" /><path d="M 91 108 Q 88 110 86 108 Q 81 104 81 102 Q 80 99 83 97 Q 88 95 101 77 L 105 72 Q 113 58 113 51 Q 113 48 114 48 Q 116 47 119 49 Q 126 53 127 56 Q 129 58 126 60 Q 117 68 98 92 Q 94 96 99 95" fill="#740000" /><path d="M 101 100 L 91 108 L 99 95 Q 108 92 116 90 L 118 94" fill="#740000" /><path d="M 116 90 Q 115 87 114 84 Q 114 82 115 81 Q 116 79 117 80 Q 126 85 127 92 Q 127 96 126 97 Q 124 100 122 99 Q 119 97 118 94" fill="#7f0000" /><path d="M 80 115 L 81 114 Q 82 114 83 115 Q 86 119 87 125 Q 91 136 85 146 Q 82 149 80 147 Q 75 142 76 135 Q 79 126 79 116" fill="#8a0000" /><path d="M 96 114 L 97 113 Q 98 111 99 112 Q 108 120 108 127 Q 108 131 107 133 Q 104 135 102 133 Q 99 131 96 116" fill="#940000" /><path d="M 114 107 L 114 106 Q 115 104 117 105 Q 126 112 126 117 Q 126 122 125 123 Q 122 125 121 124 Q 117 123 114 109" fill="#9f0000" /><path d="M 180 71 Q 177 68 176 64 Q 176 62 180 59 Q 181 58 182 57 Q 199 34 194 25 Q 193 22 195 21 Q 199 20 202 23 Q 209 29 209 31 Q 210 33 207 36 Q 200 45 192 57" fill="#aa0000" /><path d="M 205 65 Q 198 65 189 70 Q 181 72 180 71 L 192 57 Q 189 61 195 61 L 208 61" fill="#aa0000" /><path d="M 194 95 Q 191 97 189 94 Q 185 90 185 88 Q 184 85 187 84 Q 191 82 205 65 L 208 61 Q 216 48 216 43 Q 216 40 217 40 Q 220 39 222 41 Q 228 45 230 49 Q 231 51 229 53 Q 223 57 202 79 Q 198 84 204 82" fill="#b40000" /><path d="M 206 88 L 194 95 L 204 82 Q 211 80 220 79 L 222 83" fill="#b40000" /><path d="M 220 79 Q 217 73 217 71 Q 218 70 220 70 Q 230 75 233 82 Q 233 86 233 88 Q 231 91 229 90 Q 226 89 222 83" fill="#bf0000" /><path d="M 185 106 L 186 105 Q 187 103 188 104 Q 197 111 198 117 Q 198 121 197 122 Q 194 124 193 123 Q 188 121 186 108" fill="#c90000" /><path d="M 201 102 L 202 101 Q 203 99 204 99 Q 214 105 216 111 Q 216 116 215 118 Q 213 121 211 119 Q 206 117 202 104" fill="#d40000" /><path d="M 220 98 L 220 96 Q 221 94 222 95 Q 225 96 230 99 Q 238 104 239 111 Q 240 118 237 120 Q 236 121 235 121 Q 232 119 230 116 Q 225 106 221 100" fill="#df0000" /><path d="M 177 138 Q 175 137 171 138 Q 153 142 135 145 Q 128 148 122 145 Q 118 144 118 143 Q 118 140 121 140 Q 142 137 169 130 Q 180 123 197 136" fill="#e90000" /><path d="M 174 153 Q 176 148 178 142 Q 179 139 177 138 L 197 136 Q 200 140 196 143 Q 190 146 186 153" fill="#e90000" /><path d="M 147 159 L 174 153 L 186 153 Q 191 157 191 159 Q 191 161 189 161 Q 148 165 129 170 Q 127 170 128 170 L 127 162" fill="#f40000" /><path d="M 128 170 Q 126 175 122 186 L 118 202 Q 114 204 111 202 Q 106 198 104 196 Q 103 193 105 189 Q 119 175 115 160 Q 114 157 115 156 Q 117 155 122 158 Q 125 160 127 162" fill="#ff0000" /><path d="M 122 186 Q 122 190 127 187 Q 147 181 169 177 Q 178 175 186 173 Q 194 171 199 175 Q 210 181 213 184 L 190 186 Q 188 184 183 185 Q 137 191 118 202" fill="#ff0000" /><path d="M 213 184 Q 215 187 211 190 Q 209 191 209 192 Q 207 193 188 235 Q 181 249 167 254 L 171 232 Q 179 229 190 196 Q 192 190 190 186" fill="#ff0000" /><path d="M 167 254 Q 162 256 160 250 Q 156 244 148 237 Q 143 234 143 232 Q 143 230 148 231 Q 168 234 171 232" fill="#ff0000" /></svg>