<svg xmlns="http://www.w3.org/2000/svg" xmlns:xlink="http://www.w3.org/1999/xlink" width="270" height="270"><path d="M 0 0 L 270 270 M 270 0 L 0 270 M 135 0 L 135 270 M 0 135 L 270 135" stroke="#CCCCCC" /><path d="M 35 87 L 37 86 Q 38 86 40 88 Q 43 93 44 101 Q 50 122 39 135 Q 35 140 32 136 Q 25 128 28 120 Q 33 105 34 89" fill="#CCCCCC"/><path d="M 76 96 Q 80 91 84 87 Q 95 76 95 69 Q 94 66 96 66 Q 99 66 104 69 Q 109 72 112 76 Q 114 79 109 81 Q 103 83 91 93 Q 85 96 76 102" fill="#CCCCCC"/><path d="M 63 210 L 35 225 Q 28 230 24 228 Q 22 229 21 228 Q 21 227 24 225 Q 35 214 42 204 Q 51 189 60 156 Q 73 65 58 42 Q 56 39 58 37 Q 60 35 66 37 Q 76 39 82 44 Q 84 47 83 50 Q 76 66 76 96 L 76 102 Q 74 138 72 154 L 71 160" fill="#CCCCCC"/><path d="M 72 154 Q 75 153 92 163 Q 99 168 100 174 Q 101 180 99 183 Q 98 185 96 185 Q 93 184 91 182 Q 83 172 75 165 Q 72 162 71 160" fill="#CCCCCC"/><path d="M 121 106 L 114 110 Q 110 111 111 108 Q 111 106 114 103 Q 124 86 131 71 Q 147 37 141 28 Q 138 23 143 22 Q 149 21 156 25 Q 164 30 165 34 Q 167 37 165 40 Q 161 44 157 53 Q 147 71 138 83 Q 138 84 137 85 L 133 90" fill="#CCCCCC"/><path d="M 137 85 Q 152 83 170 78 Q 187 73 192 70 Q 197 67 202 69 Q 216 74 219 77 Q 221 79 218 83 L 196 86 Q 193 81 149 94 Q 142 97 133 90" fill="#CCCCCC"/><path d="M 218 83 Q 213 90 213 104 Q 212 145 206 158 Q 201 170 193 177 Q 188 183 182 177 L 189 149 Q 196 134 198 101 Q 198 90 196 86" fill="#CCCCCC"/><path d="M 182 177 Q 178 169 169 158 Q 164 151 171 154 Q 175 155 179 156 Q 186 157 189 149" fill="#CCCCCC"/><path d="M 130 122 L 140 118 Q 151 112 156 115 Q 162 119 167 122 L 149 128 Q 147 126 142 127 Q 125 131 123 131 L 119 124" fill="#CCCCCC"/><path d="M 167 122 Q 173 126 167 132 Q 162 137 157 152 L 144 152 Q 149 129 149 128" fill="#CCCCCC"/><path d="M 157 152 Q 163 156 163 158 Q 163 160 160 160 Q 137 163 126 165 Q 122 167 119 165 L 119 158 Q 131 156 144 152" fill="#CCCCCC"/><path d="M 123 131 Q 123 132 123 133 Q 120 146 119 158 L 119 165 Q 115 193 122 207 L 120 227 Q 112 220 111 212 Q 106 197 110 144 Q 110 136 107 126 Q 106 122 108 121 Q 109 120 112 121 Q 116 122 119 124" fill="#CCCCCC"/><path d="M 122 207 Q 125 214 136 219 Q 165 229 200 220 Q 214 216 220 209 L 245 211 Q 248 218 243 221 Q 229 231 215 235 Q 212 235 210 236 Q 150 248 120 227" fill="#CCCCCC"/><path d="M 220 209 Q 226 201 234 173 Q 236 169 238 170 Q 239 171 239 176 Q 242 202 245 211" fill="#CCCCCC"/><path d="M 35 87 L 37 86 Q 38 86 40 88 Q 43 93 44 101 Q 50 122 39 135 Q 35 140 32 136 Q 25 128 28 120 Q 33 105 34 89" fill="#000000" /><path d="M 76 96 Q 80 91 84 87 Q 95 76 95 69 Q 94 66 96 66 Q 99 66 104 69 Q 109 72 112 76 Q 114 79 109 81 Q 103 83 91 93 Q 85 96 76 102" fill="#1f0000" /><path d="M 63 210 L 35 225 Q 28 230 24 228 Q 22 229 21 228 Q 21 227 24 225 Q 35 214 42 204 Q 51 189 60 156 Q 73 65 58 42 Q 56 39 58 37 Q 60 35 66 37 Q 76 39 82 44 Q 84 47 83 50 Q 76 66 76 96 L 76 102 Q 74 138 72 154 L 71 160" fill="#3f0000" /><path d="M 72 154 Q 75 153 92 163 Q 99 168 100 174 Q 101 180 99 183 Q 98 185 96 185 Q 93 184 91 182 Q 83 172 75 165 Q 72 162 71 160" fill="#5f0000" /><path d="M 121 106 L 114 110 Q 110 111 111 108 Q 111 106 114 103 Q 124 86 131 71 Q 147 37 141 28 Q 138 23 143 22 Q 149 21 156 25 Q 164 30 165 34 Q 167 37 165 40 Q 161 44 157 53 Q 147 71 138 83 Q 138 84 137 85 L 133 90" fill="#7f0000" /><path d="M 137 85 Q 152 83 170 78 Q 187 73 192 70 Q 197 67 202 69 Q 216 74 219 77 Q 221 79 218 83 L 196 86 Q 193 81 149 94 Q 142 97 133 90" fill="#9f0000" /><path d="M 218 83 Q 213 90 213 104 Q 212 145 206 158 Q 201 170 193 177 Q 188 183 182 177 L 189 149 Q 196 134 198 101 Q 198 90 196 86" fill="#9f0000" /><path d="M 182 177 Q 178 169 169 158 Q 164 151 171 154 Q 175 155 179 156 Q 186 157 189 149" fill="#9f0000" /><path d="M 130 122 L 140 118 Q 151 112 156 115 Q 162 119 167 122 L 149 128 Q 147 126 142 127 Q 125 131 123 131 L 119 124" fill="#bf0000" /><path d="M 167 122 Q 173 126 167 132 Q 162 137 157 152 L 144 152 Q 149 129 149 128" fill="#bf0000" /><path d="M 157 152 Q 163 156 163 158 Q 163 160 160 160 Q 137 163 126 165 Q 122 167 119 165 L 119 158 Q 131 156 144 152" fill="#df0000" /><path d="M 123 131 Q 123 132 123 133 Q 120 146 119 158 L 119 165 Q 115 193 122 207 L 120 227 Q 112 220 111 212 Q 106 197 110 144 Q 110 136 107 126 Q 106 122 108 121 Q 109 120 112 121 Q 116 122 119 124" fill="#ff0000" /><path d="M 122 207 Q 125 214 136 219 Q 165 229 200 220 Q 214 216 220 209 L 245 211 Q 248 218 243 221 Q 229 231 215 235 Q 212 235 210 236 Q 150 248 120 227" fill="#ff0000" /><path d="M 220 209 Q 226 201 234 173 Q 236 169 238 170 Q 239 171 239 176 Q 242 202 245 211" fill="#ff0000" /></svg>