<svg xmlns="http://www.w3.org/2000/svg" xmlns:xlink="http://www.w3.org/1999/xlink" width="270" height="270"><path d="M 0 0 L 270 270 M 270 0 L 0 270 M 135 0 L 135 270 M 0 135 L 270 135" stroke="#CCCCCC" /><path d="M 30 83 L 32 82 Q 33 81 35 83 Q 38 89 39 97 Q 44 117 34 131 Q 30 135 27 131 Q 20 124 23 115 Q 28 101 29 85" fill="#000000" /><path d="M 73 88 Q 75 86 76 85 Q 88 74 87 68 Q 86 65 90 65 Q 92 64 97 68 Q 103 72 105 76 Q 107 80 102 82 Q 96 84 83 91 Q 79 93 73 96" fill="#1c0000" /><path d="M 69 157 L 69 158 Q 59 196 31 207 Q 23 212 19 211 Q 16 211 16 210 Q 16 209 19 206 Q 26 200 32 196 Q 54 175 59 140 Q 66 55 52 34 Q 49 31 52 29 Q 54 27 61 28 Q 71 31 77 36 Q 80 38 78 42 Q 73 54 73 88 L 73 96 Q 71 140 71 146 L 69 156" fill="#380000" /><path d="M 71 146 Q 91 154 92 161 Q 93 167 92 170 Q 91 172 89 172 Q 86 172 83 170 Q 76 162 69 156" fill="#550000" /><path d="M 143 74 Q 130 78 119 73 Q 113 69 122 68 Q 137 65 143 63 L 158 58 Q 164 55 171 56 Q 178 57 180 60 Q 181 62 179 64 Q 178 65 172 67 Q 164 68 157 71" fill="#710000" /><path d="M 143 103 Q 143 88 143 74 L 143 63 Q 143 48 142 34 Q 142 29 137 23 Q 135 18 137 17 Q 139 14 143 15 Q 150 17 159 22 Q 164 25 163 29 Q 158 48 158 58 L 157 71 Q 155 85 153 101" fill="#8d0000" /><path d="M 161 108 Q 133 112 105 121 Q 96 124 88 117 Q 84 113 89 113 Q 117 107 143 103 L 153 101 Q 159 100 165 99 Q 166 98 167 98 L 183 95 Q 204 90 220 86 Q 235 81 249 91 Q 253 93 252 97 Q 251 99 246 99 Q 193 103 177 105" fill="#aa0000" /><path d="M 146 145 Q 131 163 116 178 Q 103 191 76 208 Q 73 209 71 210 Q 69 210 69 208 Q 69 206 71 205 Q 126 157 161 108 L 167 98 Q 168 97 168 96 Q 185 70 191 48 Q 192 42 190 34 Q 189 28 194 28 Q 203 28 212 43 Q 212 44 212 46 Q 212 48 183 95 L 177 105 Q 165 121 152 138" fill="#c60000" /><path d="M 148 146 L 146 145 L 152 138 Q 204 125 209 126 Q 216 128 219 132 Q 221 135 215 136 Q 192 139 164 145 L 151 146" fill="#e20000" /><path d="M 164 145 Q 167 146 169 148 Q 172 152 168 155 Q 166 158 159 172 L 146 194 Q 142 196 139 193 Q 135 190 134 186 Q 133 183 138 179 Q 144 174 146 171 Q 154 155 151 146" fill="#ff0000" /><path d="M 159 172 Q 157 177 161 176 Q 177 170 186 167 Q 198 164 211 176 L 188 178 Q 182 175 173 179 Q 155 186 146 194" fill="#ff0000" /><path d="M 211 176 Q 213 180 211 183 Q 207 187 206 196 Q 196 238 178 252 Q 173 255 168 254 L 172 231 Q 176 230 180 224 Q 190 209 193 190 Q 194 181 188 178" fill="#ff0000" /><path d="M 168 254 Q 166 254 163 251 Q 158 242 149 231 Q 146 228 146 227 Q 147 225 151 227 Q 155 228 161 230 Q 167 232 172 231" fill="#ff0000" /></svg>