<svg xmlns="http://www.w3.org/2000/svg" xmlns:xlink="http://www.w3.org/1999/xlink" width="270" height="270"><path d="M 0 0 L 270 270 M 270 0 L 0 270 M 135 0 L 135 270 M 0 135 L 270 135" stroke="#CCCCCC" /><path d="M 73 86 L 69 87 Q 49 92 39 87 Q 33 83 42 81 Q 60 79 83 73 L 93 69 Q 93 69 93 69 Q 100 66 108 68 Q 114 69 116 72 Q 117 74 115 76 Q 113 77 104 80 Q 97 81 92 82 L 78 85" fill="#000000" /><path d="M 83 73 Q 84 43 77 30 Q 75 26 78 25 Q 85 23 99 33 Q 102 37 100 39 Q 93 50 93 69 L 92 82 Q 91 94 91 122 Q 92 147 89 149 Q 85 152 83 148 Q 78 137 79 135 Q 81 125 82 102" fill="#170000" /><path d="M 83 73 L 82 102 Q 81 103 80 105 Q 56 138 31 148 Q 28 149 26 148 Q 24 147 26 145 Q 66 113 78 85" fill="#2e0000" /><path d="M 94 100 L 94 98 Q 94 96 96 96 Q 112 98 117 103 Q 119 107 119 110 Q 118 114 116 114 Q 111 114 96 102" fill="#450000" /><path d="M 153 79 Q 152 79 152 79 Q 139 82 129 76 Q 122 72 131 71 Q 147 69 161 66 L 171 64 Q 180 61 191 58 Q 198 55 205 56 Q 212 58 214 61 Q 214 63 213 65 Q 212 65 170 75" fill="#5c0000" /><path d="M 169 108 L 170 122 Q 170 137 167 139 Q 164 141 161 137 Q 157 127 158 124 Q 160 114 161 89 L 161 66 Q 161 59 161 51 Q 162 32 154 20 Q 153 16 156 15 Q 160 13 164 16 Q 171 18 177 23 Q 179 26 178 29 Q 171 41 171 64 L 170 75 Q 169 84 169 93 L 169 98" fill="#730000" /><path d="M 161 89 Q 139 118 119 124 Q 116 125 114 124 Q 112 123 115 121 Q 145 97 153 79 L 161 66" fill="#8b0000" /><path d="M 169 93 Q 171 93 172 93 Q 207 95 212 105 Q 215 111 215 114 Q 215 117 213 117 Q 210 118 207 116 Q 191 108 176 102 Q 171 100 169 98" fill="#a20000" /><path d="M 63 169 L 63 166 Q 62 163 64 163 Q 71 161 84 169 Q 88 173 89 180 Q 89 184 87 187 Q 84 190 80 189 Q 72 184 66 174" fill="#b90000" /><path d="M 162 151 L 162 147 Q 162 144 165 144 Q 168 144 173 148 Q 178 153 180 158 Q 182 162 176 163 Q 170 165 165 167 Q 146 174 135 177 Q 131 177 134 174 Q 154 159 158 155" fill="#d00000" /><path d="M 106 214 L 96 224 Q 71 248 36 250 Q 31 250 35 247 Q 43 243 50 240 Q 100 213 106 170 Q 110 152 103 143 Q 101 140 104 138 Q 109 136 114 138 Q 122 140 125 143 Q 127 145 126 149 Q 123 153 122 165 Q 120 173 118 181 L 116 188" fill="#e70000" /><path d="M 118 181 Q 119 181 121 183 Q 151 207 184 225 Q 187 227 241 245 Q 245 247 245 248 Q 244 250 239 251 Q 218 256 198 255 Q 187 256 180 249 Q 147 220 116 188" fill="#ff0000" /></svg>