<svg xmlns="http://www.w3.org/2000/svg" xmlns:xlink="http://www.w3.org/1999/xlink" width="270" height="270"><path d="M 0 0 L 270 270 M 270 0 L 0 270 M 135 0 L 135 270 M 0 135 L 270 135" stroke="#CCCCCC" /><path d="M 31 87 L 32 86 Q 34 86 36 88 Q 38 93 39 101 Q 41 111 38 124 Q 36 132 32 137 Q 28 141 25 137 Q 19 130 22 122 Q 28 106 30 89" fill="#CCCCCC"/><path d="M 72 86 Q 80 77 85 70 Q 87 67 87 64 Q 87 60 90 60 Q 95 61 98 65 Q 102 69 103 72 Q 104 74 100 75 Q 91 80 73 92 Q 72 92 72 92" fill="#CCCCCC"/><path d="M 67 158 L 67 159 Q 56 209 28 223 Q 19 228 16 227 Q 13 228 13 227 Q 13 225 15 223 Q 27 213 35 202 Q 51 180 57 141 Q 66 56 52 33 Q 50 30 52 28 Q 54 27 60 28 Q 71 31 77 35 Q 79 38 78 42 Q 72 54 72 86 L 72 92 Q 70 136 68 150 L 67 157" fill="#CCCCCC"/><path d="M 68 150 Q 72 150 85 157 Q 92 160 93 165 Q 94 171 93 174 Q 92 176 90 176 Q 89 176 89 176 Q 86 175 67 157" fill="#CCCCCC"/><path d="M 142 75 L 142 77 Q 141 81 137 76 Q 132 72 131 65 Q 125 43 118 30 Q 116 26 117 25 Q 118 24 120 24 Q 129 25 131 26 L 134 33 Q 135 38 137 46 L 138 52 Q 142 66 142 67 L 143 73" fill="#CCCCCC"/><path d="M 131 26 Q 176 18 179 18 Q 194 15 197 17 Q 208 23 212 27 L 190 26 Q 188 25 183 26 Q 140 30 134 33" fill="#CCCCCC"/><path d="M 212 27 Q 215 31 211 34 Q 203 40 200 52 Q 194 68 192 72 Q 190 75 187 75 Q 184 75 183 72 Q 183 71 182 69 L 184 64 Q 186 59 191 34 Q 192 27 190 26" fill="#CCCCCC"/><path d="M 137 46 Q 162 40 167 41 Q 172 42 174 45 Q 176 48 171 48 Q 157 49 138 52" fill="#CCCCCC"/><path d="M 142 67 Q 154 65 170 61 Q 177 60 180 61 Q 183 63 184 64 L 182 69 Q 158 71 147 73 Q 144 73 143 73" fill="#CCCCCC"/><path d="M 170 107 Q 156 109 143 112 L 133 114 Q 122 115 115 111 Q 110 107 117 106 Q 125 105 132 105 L 143 103 Q 156 100 171 96 L 185 92 Q 190 91 195 92 Q 201 93 202 95 Q 203 97 201 99 Q 199 101 187 103 Q 184 104 182 105" fill="#CCCCCC"/><path d="M 143 112 Q 143 120 143 130 L 135 132 Q 134 121 133 114 L 132 105 Q 130 95 126 89 Q 125 86 127 85 Q 129 84 131 85 Q 137 87 141 90 Q 143 92 143 103" fill="#CCCCCC"/><path d="M 167 126 Q 169 116 170 107 L 171 96 Q 171 84 170 80 Q 168 77 170 76 Q 172 74 175 75 Q 179 77 185 82 Q 189 85 188 87 Q 187 89 185 92 L 182 105 Q 179 114 177 123" fill="#CCCCCC"/><path d="M 162 126 L 167 126 L 177 123 Q 186 121 194 119 Q 207 114 220 122 Q 224 125 223 127 Q 222 129 208 130 Q 192 130 180 132 L 173 133 Q 146 136 126 142 L 123 143 Q 109 146 108 146 Q 104 145 101 142 Q 98 139 102 138 Q 119 135 135 132 L 143 130 Q 150 129 157 128" fill="#CCCCCC"/><path d="M 111 184 L 111 185 Q 85 207 74 207 Q 72 206 73 205 Q 91 192 98 185 Q 98 184 99 184 Q 124 159 123 145 Q 122 143 123 143 L 126 142 Q 131 142 136 147 Q 138 150 138 152 Q 138 152 121 173 L 118 177" fill="#CCCCCC"/><path d="M 180 132 Q 204 157 232 168 Q 244 172 253 176 Q 256 177 256 179 Q 255 180 252 180 Q 248 180 217 180 Q 206 177 174 134 Q 173 133 173 133" fill="#CCCCCC"/><path d="M 154 164 L 149 155 Q 147 152 148 150 Q 150 149 154 150 Q 160 153 166 157 Q 170 160 168 165 Q 164 173 166 218 Q 167 242 158 251 Q 154 254 151 250 L 151 226 Q 153 224 153 220 Q 155 204 154 173" fill="#CCCCCC"/><path d="M 151 250 Q 147 242 134 228 Q 132 226 132 224 Q 132 223 134 223 Q 140 225 146 226 Q 149 227 151 226" fill="#CCCCCC"/><path d="M 121 173 Q 138 175 141 180 Q 143 185 143 188 Q 143 190 141 190 Q 138 191 136 189 L 118 177" fill="#CCCCCC"/><path d="M 101 209 L 103 209 Q 107 210 111 208 Q 124 203 139 197 Q 142 197 142 198 Q 142 199 140 200 Q 122 215 114 222 Q 111 226 109 226 Q 106 225 101 220 Q 96 216 96 212 Q 96 209 99 209" fill="#CCCCCC"/><path d="M 182 168 L 182 166 Q 181 162 184 162 Q 188 162 192 166 Q 196 169 197 172 Q 198 174 194 175 Q 188 178 174 187 Q 173 188 171 188 Q 170 187 171 185 Q 178 177 181 171" fill="#CCCCCC"/><path d="M 176 201 L 176 197 Q 176 195 178 196 Q 212 202 216 214 Q 220 224 218 227 Q 216 230 214 230 Q 210 229 206 225 Q 191 212 179 203" fill="#CCCCCC"/><path d="M 31 87 L 32 86 Q 34 86 36 88 Q 38 93 39 101 Q 41 111 38 124 Q 36 132 32 137 Q 28 141 25 137 Q 19 130 22 122 Q 28 106 30 89" fill="#000000" /><path d="M 72 86 Q 80 77 85 70 Q 87 67 87 64 Q 87 60 90 60 Q 95 61 98 65 Q 102 69 103 72 Q 104 74 100 75 Q 91 80 73 92 Q 72 92 72 92" fill="#0e0000" /><path d="M 67 158 L 67 159 Q 56 209 28 223 Q 19 228 16 227 Q 13 228 13 227 Q 13 225 15 223 Q 27 213 35 202 Q 51 180 57 141 Q 66 56 52 33 Q 50 30 52 28 Q 54 27 60 28 Q 71 31 77 35 Q 79 38 78 42 Q 72 54 72 86 L 72 92 Q 70 136 68 150 L 67 157" fill="#1c0000" /><path d="M 68 150 Q 72 150 85 157 Q 92 160 93 165 Q 94 171 93 174 Q 92 176 90 176 Q 89 176 89 176 Q 86 175 67 157" fill="#2a0000" /><path d="M 142 75 L 142 77 Q 141 81 137 76 Q 132 72 131 65 Q 125 43 118 30 Q 116 26 117 25 Q 118 24 120 24 Q 129 25 131 26 L 134 33 Q 135 38 137 46 L 138 52 Q 142 66 142 67 L 143 73" fill="#380000" /><path d="M 131 26 Q 176 18 179 18 Q 194 15 197 17 Q 208 23 212 27 L 190 26 Q 188 25 183 26 Q 140 30 134 33" fill="#460000" /><path d="M 212 27 Q 215 31 211 34 Q 203 40 200 52 Q 194 68 192 72 Q 190 75 187 75 Q 184 75 183 72 Q 183 71 182 69 L 184 64 Q 186 59 191 34 Q 192 27 190 26" fill="#460000" /><path d="M 137 46 Q 162 40 167 41 Q 172 42 174 45 Q 176 48 171 48 Q 157 49 138 52" fill="#550000" /><path d="M 142 67 Q 154 65 170 61 Q 177 60 180 61 Q 183 63 184 64 L 182 69 Q 158 71 147 73 Q 144 73 143 73" fill="#630000" /><path d="M 170 107 Q 156 109 143 112 L 133 114 Q 122 115 115 111 Q 110 107 117 106 Q 125 105 132 105 L 143 103 Q 156 100 171 96 L 185 92 Q 190 91 195 92 Q 201 93 202 95 Q 203 97 201 99 Q 199 101 187 103 Q 184 104 182 105" fill="#710000" /><path d="M 143 112 Q 143 120 143 130 L 135 132 Q 134 121 133 114 L 132 105 Q 130 95 126 89 Q 125 86 127 85 Q 129 84 131 85 Q 137 87 141 90 Q 143 92 143 103" fill="#7f0000" /><path d="M 167 126 Q 169 116 170 107 L 171 96 Q 171 84 170 80 Q 168 77 170 76 Q 172 74 175 75 Q 179 77 185 82 Q 189 85 188 87 Q 187 89 185 92 L 182 105 Q 179 114 177 123" fill="#8d0000" /><path d="M 162 126 L 167 126 L 177 123 Q 186 121 194 119 Q 207 114 220 122 Q 224 125 223 127 Q 222 129 208 130 Q 192 130 180 132 L 173 133 Q 146 136 126 142 L 123 143 Q 109 146 108 146 Q 104 145 101 142 Q 98 139 102 138 Q 119 135 135 132 L 143 130 Q 150 129 157 128" fill="#9b0000" /><path d="M 111 184 L 111 185 Q 85 207 74 207 Q 72 206 73 205 Q 91 192 98 185 Q 98 184 99 184 Q 124 159 123 145 Q 122 143 123 143 L 126 142 Q 131 142 136 147 Q 138 150 138 152 Q 138 152 121 173 L 118 177" fill="#aa0000" /><path d="M 180 132 Q 204 157 232 168 Q 244 172 253 176 Q 256 177 256 179 Q 255 180 252 180 Q 248 180 217 180 Q 206 177 174 134 Q 173 133 173 133" fill="#b80000" /><path d="M 154 164 L 149 155 Q 147 152 148 150 Q 150 149 154 150 Q 160 153 166 157 Q 170 160 168 165 Q 164 173 166 218 Q 167 242 158 251 Q 154 254 151 250 L 151 226 Q 153 224 153 220 Q 155 204 154 173" fill="#c60000" /><path d="M 151 250 Q 147 242 134 228 Q 132 226 132 224 Q 132 223 134 223 Q 140 225 146 226 Q 149 227 151 226" fill="#c60000" /><path d="M 121 173 Q 138 175 141 180 Q 143 185 143 188 Q 143 190 141 190 Q 138 191 136 189 L 118 177" fill="#d40000" /><path d="M 101 209 L 103 209 Q 107 210 111 208 Q 124 203 139 197 Q 142 197 142 198 Q 142 199 140 200 Q 122 215 114 222 Q 111 226 109 226 Q 106 225 101 220 Q 96 216 96 212 Q 96 209 99 209" fill="#e20000" /><path d="M 182 168 L 182 166 Q 181 162 184 162 Q 188 162 192 166 Q 196 169 197 172 Q 198 174 194 175 Q 188 178 174 187 Q 173 188 171 188 Q 170 187 171 185 Q 178 177 181 171" fill="#f00000" /><path d="M 176 201 L 176 197 Q 176 195 178 196 Q 212 202 216 214 Q 220 224 218 227 Q 216 230 214 230 Q 210 229 206 225 Q 191 212 179 203" fill="#ff0000" /></svg>