<svg xmlns="http://www.w3.org/2000/svg" xmlns:xlink="http://www.w3.org/1999/xlink" width="270" height="270"><path d="M 0 0 L 270 270 M 270 0 L 0 270 M 135 0 L 135 270 M 0 135 L 270 135" stroke="#CCCCCC" /><path d="M 97 67 Q 89 70 84 72 L 81 68 Q 116 42 116 35 Q 115 31 117 30 Q 121 29 125 31 Q 137 34 142 37 Q 146 39 146 42 Q 145 44 140 45 Q 131 49 120 55 Q 113 59 104 64" fill="#CCCCCC"/><path d="M 84 72 Q 84 77 83 84 Q 82 119 78 142 Q 72 180 51 204 Q 44 212 31 221 Q 25 225 21 225 Q 18 225 18 223 Q 19 221 23 218 Q 47 193 54 176 Q 62 158 65 143 Q 72 85 62 68 Q 57 62 63 61 Q 67 61 80 67 Q 81 68 81 68" fill="#CCCCCC"/><path d="M 113 176 L 114 220 Q 115 228 112 236 Q 110 240 107 239 Q 100 235 96 221 Q 95 218 100 173 Q 105 79 97 67 L 104 64 Q 108 66 113 70 Q 115 72 114 75 Q 113 84 112 105 L 112 114" fill="#CCCCCC"/><path d="M 112 105 Q 122 106 127 115 Q 156 162 176 182 Q 195 201 246 219 Q 251 221 251 223 Q 251 224 245 225 Q 201 226 192 225 Q 174 218 136 147 Q 123 122 112 114" fill="#CCCCCC"/><path d="M 180 67 L 198 61 Q 214 52 231 65 L 208 69 Q 207 67 202 68 Q 195 70 188 72 L 179 74 Q 174 75 169 76 Q 166 78 164 78 L 160 71" fill="#CCCCCC"/><path d="M 231 65 Q 234 69 230 73 Q 223 80 217 98 L 205 96 L 205 96 Q 208 86 210 75 Q 210 70 208 69" fill="#CCCCCC"/><path d="M 188 72 Q 189 73 191 75 Q 193 77 191 80 Q 190 82 188 101 L 179 104 Q 179 75 179 74" fill="#CCCCCC"/><path d="M 217 98 Q 222 101 222 102 Q 222 104 220 105 Q 181 110 163 115 Q 162 115 161 115 L 161 107 Q 169 105 179 104 L 188 101 Q 196 99 205 96" fill="#CCCCCC"/><path d="M 161 115 Q 161 126 165 133 L 159 146 Q 151 137 152 90 Q 152 82 149 73 Q 148 69 149 69 Q 151 67 154 68 Q 157 69 160 71 L 164 78 Q 164 78 164 79 Q 162 94 161 107" fill="#CCCCCC"/><path d="M 165 133 Q 167 137 174 141 Q 191 148 211 143 Q 220 141 223 137 L 243 136 Q 246 142 242 145 Q 216 166 177 156 Q 165 152 159 146" fill="#CCCCCC"/><path d="M 223 137 Q 226 132 231 117 Q 231 113 233 114 Q 235 115 235 118 Q 240 132 243 136" fill="#CCCCCC"/><path d="M 97 67 Q 89 70 84 72 L 81 68 Q 116 42 116 35 Q 115 31 117 30 Q 121 29 125 31 Q 137 34 142 37 Q 146 39 146 42 Q 145 44 140 45 Q 131 49 120 55 Q 113 59 104 64" fill="#000000" /><path d="M 84 72 Q 84 77 83 84 Q 82 119 78 142 Q 72 180 51 204 Q 44 212 31 221 Q 25 225 21 225 Q 18 225 18 223 Q 19 221 23 218 Q 47 193 54 176 Q 62 158 65 143 Q 72 85 62 68 Q 57 62 63 61 Q 67 61 80 67 Q 81 68 81 68" fill="#240000" /><path d="M 113 176 L 114 220 Q 115 228 112 236 Q 110 240 107 239 Q 100 235 96 221 Q 95 218 100 173 Q 105 79 97 67 L 104 64 Q 108 66 113 70 Q 115 72 114 75 Q 113 84 112 105 L 112 114" fill="#480000" /><path d="M 112 105 Q 122 106 127 115 Q 156 162 176 182 Q 195 201 246 219 Q 251 221 251 223 Q 251 224 245 225 Q 201 226 192 225 Q 174 218 136 147 Q 123 122 112 114" fill="#6d0000" /><path d="M 180 67 L 198 61 Q 214 52 231 65 L 208 69 Q 207 67 202 68 Q 195 70 188 72 L 179 74 Q 174 75 169 76 Q 166 78 164 78 L 160 71" fill="#910000" /><path d="M 231 65 Q 234 69 230 73 Q 223 80 217 98 L 205 96 L 205 96 Q 208 86 210 75 Q 210 70 208 69" fill="#910000" /><path d="M 188 72 Q 189 73 191 75 Q 193 77 191 80 Q 190 82 188 101 L 179 104 Q 179 75 179 74" fill="#b60000" /><path d="M 217 98 Q 222 101 222 102 Q 222 104 220 105 Q 181 110 163 115 Q 162 115 161 115 L 161 107 Q 169 105 179 104 L 188 101 Q 196 99 205 96" fill="#da0000" /><path d="M 161 115 Q 161 126 165 133 L 159 146 Q 151 137 152 90 Q 152 82 149 73 Q 148 69 149 69 Q 151 67 154 68 Q 157 69 160 71 L 164 78 Q 164 78 164 79 Q 162 94 161 107" fill="#ff0000" /><path d="M 165 133 Q 167 137 174 141 Q 191 148 211 143 Q 220 141 223 137 L 243 136 Q 246 142 242 145 Q 216 166 177 156 Q 165 152 159 146" fill="#ff0000" /><path d="M 223 137 Q 226 132 231 117 Q 231 113 233 114 Q 235 115 235 118 Q 240 132 243 136" fill="#ff0000" /></svg>