<svg xmlns="http://www.w3.org/2000/svg" xmlns:xlink="http://www.w3.org/1999/xlink" width="270" height="270"><path d="M 0 0 L 270 270 M 270 0 L 0 270 M 135 0 L 135 270 M 0 135 L 270 135" stroke="#CCCCCC" /><path d="M 77 44 L 80 43 Q 89 42 97 51 Q 101 54 101 57 Q 101 60 99 61 Q 98 62 96 64 Q 83 80 75 88 Q 74 88 73 89 Q 49 109 38 109 Q 36 108 38 107 Q 53 93 59 86 Q 81 61 78 47" fill="#CCCCCC"/><path d="M 145 40 L 144 36 Q 144 32 147 33 Q 197 42 203 56 Q 208 68 206 73 Q 204 76 202 76 Q 197 76 191 71 Q 168 53 149 42" fill="#CCCCCC"/><path d="M 109 203 L 88 211 Q 65 221 32 223 Q 29 223 27 222 Q 24 221 26 220 Q 27 218 30 218 Q 49 213 62 209 Q 98 196 117 171 L 123 159 Q 139 125 132 93 Q 132 90 135 89 Q 138 88 144 92 Q 150 95 156 101 Q 158 104 156 107 Q 154 113 152 122 Q 146 150 134 171 L 126 182" fill="#CCCCCC"/><path d="M 117 171 Q 106 157 94 143 Q 84 131 69 121 Q 66 118 68 116 Q 71 113 75 114 Q 88 117 95 126 Q 109 144 123 159 L 134 171 Q 166 203 193 210 Q 235 222 240 225 Q 245 227 242 230 Q 238 232 233 232 Q 218 233 197 235 Q 182 237 172 228 Q 143 203 126 182" fill="#CCCCCC"/><path d="M 77 44 L 80 43 Q 89 42 97 51 Q 101 54 101 57 Q 101 60 99 61 Q 98 62 96 64 Q 83 80 75 88 Q 74 88 73 89 Q 49 109 38 109 Q 36 108 38 107 Q 53 93 59 86 Q 81 61 78 47" fill="#000000" /><path d="M 145 40 L 144 36 Q 144 32 147 33 Q 197 42 203 56 Q 208 68 206 73 Q 204 76 202 76 Q 197 76 191 71 Q 168 53 149 42" fill="#550000" /><path d="M 109 203 L 88 211 Q 65 221 32 223 Q 29 223 27 222 Q 24 221 26 220 Q 27 218 30 218 Q 49 213 62 209 Q 98 196 117 171 L 123 159 Q 139 125 132 93 Q 132 90 135 89 Q 138 88 144 92 Q 150 95 156 101 Q 158 104 156 107 Q 154 113 152 122 Q 146 150 134 171 L 126 182" fill="#aa0000" /><path d="M 117 171 Q 106 157 94 143 Q 84 131 69 121 Q 66 118 68 116 Q 71 113 75 114 Q 88 117 95 126 Q 109 144 123 159 L 134 171 Q 166 203 193 210 Q 235 222 240 225 Q 245 227 242 230 Q 238 232 233 232 Q 218 233 197 235 Q 182 237 172 228 Q 143 203 126 182" fill="#ff0000" /></svg>