<svg xmlns="http://www.w3.org/2000/svg" xmlns:xlink="http://www.w3.org/1999/xlink" width="270" height="270"><path d="M 0 0 L 270 270 M 270 0 L 0 270 M 135 0 L 135 270 M 0 135 L 270 135" stroke="#CCCCCC" /><path d="M 83 20 L 86 19 Q 91 18 102 22 Q 106 24 107 25 Q 108 27 105 30 Q 101 32 99 34 Q 75 55 52 61 Q 49 60 51 59 Q 65 48 72 41 Q 84 27 83 23" fill="#CCCCCC"/><path d="M 154 16 L 154 12 Q 154 9 156 10 Q 196 17 202 30 Q 207 40 204 43 Q 203 46 201 46 Q 197 46 192 42 Q 173 27 157 18" fill="#CCCCCC"/><path d="M 129 66 L 129 67 Q 109 85 83 100 Q 62 114 45 119 Q 30 125 21 124 Q 14 124 20 121 Q 71 96 89 83 Q 107 70 120 58 L 126 51 Q 135 41 138 34 Q 140 31 141 31 Q 145 30 151 34 Q 157 37 157 41 Q 158 43 155 46 Q 148 50 138 59 L 130 66" fill="#CCCCCC"/><path d="M 120 58 Q 109 51 101 51 Q 98 51 96 49 Q 95 46 97 45 Q 112 41 126 51 L 138 59 Q 139 60 140 61 Q 184 91 219 95 Q 235 96 250 99 Q 255 99 255 101 Q 254 104 251 105 Q 207 116 196 112 Q 167 97 134 68 Q 132 67 130 66" fill="#CCCCCC"/><path d="M 76 137 L 65 137 Q 59 138 64 135 Q 108 107 114 90 Q 114 87 116 87 Q 119 87 124 89 Q 129 92 130 94 Q 130 96 126 100 L 120 105 Q 102 120 101 121 L 95 125" fill="#CCCCCC"/><path d="M 138 108 Q 138 106 125 105 Q 122 105 120 105 L 126 100 Q 136 100 141 100 Q 147 99 148 101 Q 158 108 159 111" fill="#CCCCCC"/><path d="M 112 139 Q 125 129 131 121 Q 138 112 138 108 L 159 111 Q 159 114 156 115 Q 152 117 144 126 Q 127 143 109 154 Q 80 172 65 168 Q 60 168 66 166 Q 91 156 107 143 Q 108 142 109 142" fill="#CCCCCC"/><path d="M 101 121 Q 105 122 108 125 Q 113 129 113 133 Q 113 137 112 139 L 109 142 Q 106 141 105 139 Q 96 125 95 125" fill="#CCCCCC"/><path d="M 85 192 L 80 192 Q 74 192 79 189 Q 128 162 135 144 Q 136 141 137 141 Q 140 141 146 144 Q 151 147 152 150 Q 152 152 149 154 Q 148 154 148 155 L 138 162 Q 130 171 112 180 Q 108 182 105 184 L 100 187" fill="#CCCCCC"/><path d="M 159 165 Q 158 163 146 163 Q 141 163 138 162 L 148 155 Q 156 155 161 154 Q 168 152 171 155 Q 184 164 184 168" fill="#CCCCCC"/><path d="M 121 209 Q 139 195 148 183 Q 159 169 159 165 L 184 168 Q 185 172 181 173 Q 177 175 146 204 Q 83 260 47 252 Q 41 250 48 249 Q 86 234 111 215 Q 114 213 117 211" fill="#CCCCCC"/><path d="M 105 184 Q 122 194 122 202 Q 122 206 121 209 L 117 211 Q 114 210 113 208 Q 107 199 102 191 Q 100 189 100 187" fill="#CCCCCC"/><path d="M 83 20 L 86 19 Q 91 18 102 22 Q 106 24 107 25 Q 108 27 105 30 Q 101 32 99 34 Q 75 55 52 61 Q 49 60 51 59 Q 65 48 72 41 Q 84 27 83 23" fill="#000000" /><path d="M 154 16 L 154 12 Q 154 9 156 10 Q 196 17 202 30 Q 207 40 204 43 Q 203 46 201 46 Q 197 46 192 42 Q 173 27 157 18" fill="#1c0000" /><path d="M 129 66 L 129 67 Q 109 85 83 100 Q 62 114 45 119 Q 30 125 21 124 Q 14 124 20 121 Q 71 96 89 83 Q 107 70 120 58 L 126 51 Q 135 41 138 34 Q 140 31 141 31 Q 145 30 151 34 Q 157 37 157 41 Q 158 43 155 46 Q 148 50 138 59 L 130 66" fill="#380000" /><path d="M 120 58 Q 109 51 101 51 Q 98 51 96 49 Q 95 46 97 45 Q 112 41 126 51 L 138 59 Q 139 60 140 61 Q 184 91 219 95 Q 235 96 250 99 Q 255 99 255 101 Q 254 104 251 105 Q 207 116 196 112 Q 167 97 134 68 Q 132 67 130 66" fill="#550000" /><path d="M 76 137 L 65 137 Q 59 138 64 135 Q 108 107 114 90 Q 114 87 116 87 Q 119 87 124 89 Q 129 92 130 94 Q 130 96 126 100 L 120 105 Q 102 120 101 121 L 95 125" fill="#710000" /><path d="M 138 108 Q 138 106 125 105 Q 122 105 120 105 L 126 100 Q 136 100 141 100 Q 147 99 148 101 Q 158 108 159 111" fill="#8d0000" /><path d="M 112 139 Q 125 129 131 121 Q 138 112 138 108 L 159 111 Q 159 114 156 115 Q 152 117 144 126 Q 127 143 109 154 Q 80 172 65 168 Q 60 168 66 166 Q 91 156 107 143 Q 108 142 109 142" fill="#8d0000" /><path d="M 101 121 Q 105 122 108 125 Q 113 129 113 133 Q 113 137 112 139 L 109 142 Q 106 141 105 139 Q 96 125 95 125" fill="#aa0000" /><path d="M 85 192 L 80 192 Q 74 192 79 189 Q 128 162 135 144 Q 136 141 137 141 Q 140 141 146 144 Q 151 147 152 150 Q 152 152 149 154 Q 148 154 148 155 L 138 162 Q 130 171 112 180 Q 108 182 105 184 L 100 187" fill="#c60000" /><path d="M 159 165 Q 158 163 146 163 Q 141 163 138 162 L 148 155 Q 156 155 161 154 Q 168 152 171 155 Q 184 164 184 168" fill="#e20000" /><path d="M 121 209 Q 139 195 148 183 Q 159 169 159 165 L 184 168 Q 185 172 181 173 Q 177 175 146 204 Q 83 260 47 252 Q 41 250 48 249 Q 86 234 111 215 Q 114 213 117 211" fill="#e20000" /><path d="M 105 184 Q 122 194 122 202 Q 122 206 121 209 L 117 211 Q 114 210 113 208 Q 107 199 102 191 Q 100 189 100 187" fill="#ff0000" /></svg>