<svg xmlns="http://www.w3.org/2000/svg" xmlns:xlink="http://www.w3.org/1999/xlink" width="270" height="270"><path d="M 0 0 L 270 270 M 270 0 L 0 270 M 135 0 L 135 270 M 0 135 L 270 135" stroke="#CCCCCC" /><path d="M 78 90 Q 52 118 35 119 Q 31 120 34 116 Q 62 92 68 84 Q 70 81 73 78 L 80 68 Q 88 54 88 41 Q 87 37 90 37 Q 97 37 108 47 Q 111 51 108 54 Q 100 62 87 80" fill="#000000" /><path d="M 81 100 L 78 90 L 73 78 Q 66 66 54 63 Q 50 64 46 59 Q 44 55 44 52 Q 44 49 48 50 Q 70 56 80 68 L 87 80 Q 94 97 97 120 Q 99 133 100 146 Q 102 206 82 230 Q 77 237 73 237 Q 71 237 66 230 L 71 212 Q 74 211 76 206 Q 88 173 86 134 L 83 111" fill="#190000" /><path d="M 66 230 Q 60 222 51 212 Q 48 209 49 208 Q 51 206 58 209 Q 68 212 71 212" fill="#190000" /><path d="M 86 134 Q 72 154 58 167 Q 28 193 23 192 Q 20 192 22 189 Q 67 144 83 111" fill="#330000" /><path d="M 190 45 Q 187 44 184 45 Q 155 55 149 58 Q 141 62 133 58 Q 129 55 127 52 Q 125 47 131 47 Q 145 48 152 46 Q 175 39 191 34 Q 196 32 201 34 Q 217 44 218 48" fill="#4c0000" /><path d="M 173 73 Q 183 60 192 50 Q 193 47 190 45 L 218 48 Q 219 52 214 54 Q 205 56 176 76" fill="#4c0000" /><path d="M 184 101 L 184 102 Q 187 131 176 143 Q 170 149 168 149 L 169 126 Q 173 116 172 102 L 171 94 Q 169 80 159 74 Q 156 71 159 69 Q 161 68 165 69 Q 170 71 173 73 L 176 76 Q 179 79 183 92" fill="#660000" /><path d="M 168 149 Q 164 150 162 146 Q 160 141 153 134 Q 150 132 149 130 Q 148 128 150 128 Q 155 129 160 130 Q 167 131 169 126" fill="#660000" /><path d="M 184 101 L 172 102 Q 150 105 128 111 Q 125 112 120 111 Q 116 110 113 107 Q 109 103 114 103 Q 143 98 168 94 Q 170 94 171 94 L 183 92 Q 195 89 204 87 Q 219 82 233 91 Q 237 94 235 97 Q 235 99 230 99 Q 201 99 184 101" fill="#7f0000" /><path d="M 122 210 L 121 204 Q 118 179 111 163 Q 109 160 110 158 Q 111 157 114 158 Q 123 160 125 161 L 127 170 Q 128 180 132 202 Q 133 209 132 213 L 124 214" fill="#990000" /><path d="M 172 161 Q 161 163 150 165 L 144 167 Q 137 168 131 169 Q 129 170 127 170 L 125 161 Q 171 155 208 146 Q 212 145 216 147 Q 231 154 233 158 L 208 157 Q 203 154 181 159" fill="#b20000" /><path d="M 201 206 Q 207 181 210 164 Q 210 158 208 157 L 233 158 Q 234 161 231 163 Q 223 175 215 204" fill="#b20000" /><path d="M 150 165 Q 151 166 151 168 Q 151 168 151 169 Q 158 201 156 211 L 150 212 Q 148 209 148 208 Q 147 207 144 167" fill="#cc0000" /><path d="M 170 210 Q 174 182 174 175 Q 174 168 172 161 L 181 159 Q 184 162 187 165 Q 189 169 187 173 Q 184 178 179 209" fill="#e50000" /><path d="M 170 210 L 170 210 L 179 209 Q 191 207 201 206 L 215 204 Q 216 204 216 204 Q 229 199 245 211 Q 249 215 247 217 Q 246 220 241 220 Q 172 214 120 226 Q 115 227 110 225 Q 106 224 103 221 Q 99 216 104 216 Q 114 214 124 214 L 132 213 Q 141 212 150 212 L 156 211 Q 163 210 170 210" fill="#ff0000" /></svg>