<svg xmlns="http://www.w3.org/2000/svg" xmlns:xlink="http://www.w3.org/1999/xlink" width="270" height="270"><path d="M 0 0 L 270 270 M 270 0 L 0 270 M 135 0 L 135 270 M 0 135 L 270 135" stroke="#CCCCCC" /><path d="M 64 95 Q 41 119 29 120 Q 26 121 28 117 Q 32 112 41 105 Q 51 96 59 85 Q 59 83 60 83 L 67 73 Q 76 57 75 43 Q 75 39 78 39 Q 84 38 94 47 Q 98 51 95 54 Q 87 64 79 77 Q 75 81 72 86" fill="#CCCCCC"/><path d="M 67 104 L 64 95 L 60 83 Q 55 66 43 65 Q 39 66 36 62 Q 34 58 34 55 Q 34 52 38 53 Q 58 57 67 73 L 72 86 Q 82 111 85 149 Q 90 211 73 235 Q 67 242 65 242 L 66 213 Q 75 181 72 137 L 69 114" fill="#CCCCCC"/><path d="M 65 242 Q 62 242 58 236 Q 52 229 43 221 Q 40 218 41 217 Q 42 216 49 217 Q 58 220 61 219 Q 65 218 66 213" fill="#CCCCCC"/><path d="M 72 137 Q 61 157 49 170 Q 22 198 17 197 Q 14 197 16 194 Q 55 147 69 114" fill="#CCCCCC"/><path d="M 147 63 L 147 66 Q 146 69 143 67 Q 138 62 137 56 L 134 48 Q 131 39 125 33 Q 121 29 125 27 Q 129 25 138 28 Q 143 30 143 34 Q 143 39 145 47 L 146 53" fill="#CCCCCC"/><path d="M 137 56 Q 127 59 119 62 Q 115 63 111 61 Q 105 59 102 56 Q 101 54 101 52 Q 101 51 104 51 Q 107 51 114 51 Q 125 49 134 48 L 145 47 Q 148 46 151 46 Q 154 47 154 48 Q 155 49 153 50 Q 149 53 146 53 Q 146 53 146 53" fill="#CCCCCC"/><path d="M 185 50 L 183 54 Q 180 61 176 64 Q 173 66 172 63 Q 172 59 174 54 Q 181 27 177 20 Q 176 18 178 16 Q 182 14 186 16 Q 194 20 196 24 Q 199 26 195 30 Q 192 35 190 38 Q 190 39 190 39 L 187 46" fill="#CCCCCC"/><path d="M 190 39 Q 194 38 198 37 Q 223 31 232 39 Q 235 42 234 44 Q 233 46 230 46 Q 219 45 210 46 Q 192 47 187 46" fill="#CCCCCC"/><path d="M 116 111 Q 101 125 93 126 Q 87 127 92 123 Q 123 92 125 76 Q 125 73 127 72 Q 129 71 135 73 Q 141 74 142 77 Q 143 79 141 81 Q 126 100 122 105" fill="#CCCCCC"/><path d="M 127 156 Q 127 161 125 165 Q 123 169 120 167 L 120 167 Q 112 159 115 149 Q 120 125 116 111 L 122 105 Q 128 111 127 116 Q 127 122 128 150" fill="#CCCCCC"/><path d="M 155 66 L 156 64 Q 156 62 157 62 Q 169 62 173 68 Q 175 71 175 74 Q 174 77 171 77 Q 167 77 157 67" fill="#CCCCCC"/><path d="M 163 92 Q 162 92 162 92 Q 151 95 143 90 Q 138 87 145 86 Q 158 85 168 82 Q 178 80 187 76 Q 193 74 199 75 Q 204 76 206 79 Q 207 80 205 82 Q 204 82 172 90" fill="#CCCCCC"/><path d="M 166 111 Q 160 112 154 113 Q 149 114 147 112 Q 143 109 146 108 Q 155 106 166 103 L 178 100 Q 186 98 191 98 Q 196 99 198 102 Q 200 105 195 105 Q 187 107 177 108" fill="#CCCCCC"/><path d="M 166 129 Q 147 132 145 131 Q 141 128 144 127 Q 154 125 166 122 L 176 119 Q 187 116 193 117 Q 198 118 200 121 Q 202 123 197 124 Q 187 125 176 128" fill="#CCCCCC"/><path d="M 166 135 L 166 129 L 166 122 Q 166 115 166 111 L 166 103 Q 165 96 163 92 L 172 90 Q 175 92 177 94 Q 179 96 178 100 L 177 108 Q 177 114 176 119 L 176 128 Q 176 134 175 141 L 166 143" fill="#CCCCCC"/><path d="M 175 141 Q 188 138 197 136 Q 211 132 223 140 Q 227 142 225 144 Q 225 146 221 146 Q 174 147 138 157 Q 134 158 127 156 L 128 150 Q 148 146 166 143" fill="#CCCCCC"/><path d="M 171 176 Q 173 171 168 170 Q 166 170 155 175 Q 142 179 133 175 Q 128 173 129 172 Q 131 170 134 170 Q 149 168 158 165 Q 166 162 173 160 Q 180 156 186 159 Q 193 162 196 166 Q 200 169 195 173" fill="#CCCCCC"/><path d="M 139 238 L 112 240 Q 101 241 100 240 Q 97 237 100 237 Q 136 228 153 211 L 159 204 Q 167 192 171 176 L 195 173 Q 189 177 186 184 Q 178 200 169 211 L 161 220" fill="#CCCCCC"/><path d="M 153 211 Q 145 204 138 198 Q 133 193 127 190 Q 123 188 123 186 Q 124 185 128 184 Q 137 184 147 193 Q 153 199 159 204 L 169 211 Q 190 228 210 233 Q 254 245 254 245 Q 255 248 246 250 Q 229 254 207 255 Q 195 254 161 220" fill="#CCCCCC"/><path d="M 64 95 Q 41 119 29 120 Q 26 121 28 117 Q 32 112 41 105 Q 51 96 59 85 Q 59 83 60 83 L 67 73 Q 76 57 75 43 Q 75 39 78 39 Q 84 38 94 47 Q 98 51 95 54 Q 87 64 79 77 Q 75 81 72 86" fill="#000000" /><path d="M 67 104 L 64 95 L 60 83 Q 55 66 43 65 Q 39 66 36 62 Q 34 58 34 55 Q 34 52 38 53 Q 58 57 67 73 L 72 86 Q 82 111 85 149 Q 90 211 73 235 Q 67 242 65 242 L 66 213 Q 75 181 72 137 L 69 114" fill="#0f0000" /><path d="M 65 242 Q 62 242 58 236 Q 52 229 43 221 Q 40 218 41 217 Q 42 216 49 217 Q 58 220 61 219 Q 65 218 66 213" fill="#0f0000" /><path d="M 72 137 Q 61 157 49 170 Q 22 198 17 197 Q 14 197 16 194 Q 55 147 69 114" fill="#1f0000" /><path d="M 147 63 L 147 66 Q 146 69 143 67 Q 138 62 137 56 L 134 48 Q 131 39 125 33 Q 121 29 125 27 Q 129 25 138 28 Q 143 30 143 34 Q 143 39 145 47 L 146 53" fill="#2f0000" /><path d="M 137 56 Q 127 59 119 62 Q 115 63 111 61 Q 105 59 102 56 Q 101 54 101 52 Q 101 51 104 51 Q 107 51 114 51 Q 125 49 134 48 L 145 47 Q 148 46 151 46 Q 154 47 154 48 Q 155 49 153 50 Q 149 53 146 53 Q 146 53 146 53" fill="#3f0000" /><path d="M 185 50 L 183 54 Q 180 61 176 64 Q 173 66 172 63 Q 172 59 174 54 Q 181 27 177 20 Q 176 18 178 16 Q 182 14 186 16 Q 194 20 196 24 Q 199 26 195 30 Q 192 35 190 38 Q 190 39 190 39 L 187 46" fill="#4f0000" /><path d="M 190 39 Q 194 38 198 37 Q 223 31 232 39 Q 235 42 234 44 Q 233 46 230 46 Q 219 45 210 46 Q 192 47 187 46" fill="#5f0000" /><path d="M 116 111 Q 101 125 93 126 Q 87 127 92 123 Q 123 92 125 76 Q 125 73 127 72 Q 129 71 135 73 Q 141 74 142 77 Q 143 79 141 81 Q 126 100 122 105" fill="#6f0000" /><path d="M 127 156 Q 127 161 125 165 Q 123 169 120 167 L 120 167 Q 112 159 115 149 Q 120 125 116 111 L 122 105 Q 128 111 127 116 Q 127 122 128 150" fill="#7f0000" /><path d="M 155 66 L 156 64 Q 156 62 157 62 Q 169 62 173 68 Q 175 71 175 74 Q 174 77 171 77 Q 167 77 157 67" fill="#8f0000" /><path d="M 163 92 Q 162 92 162 92 Q 151 95 143 90 Q 138 87 145 86 Q 158 85 168 82 Q 178 80 187 76 Q 193 74 199 75 Q 204 76 206 79 Q 207 80 205 82 Q 204 82 172 90" fill="#9f0000" /><path d="M 166 111 Q 160 112 154 113 Q 149 114 147 112 Q 143 109 146 108 Q 155 106 166 103 L 178 100 Q 186 98 191 98 Q 196 99 198 102 Q 200 105 195 105 Q 187 107 177 108" fill="#af0000" /><path d="M 166 129 Q 147 132 145 131 Q 141 128 144 127 Q 154 125 166 122 L 176 119 Q 187 116 193 117 Q 198 118 200 121 Q 202 123 197 124 Q 187 125 176 128" fill="#bf0000" /><path d="M 166 135 L 166 129 L 166 122 Q 166 115 166 111 L 166 103 Q 165 96 163 92 L 172 90 Q 175 92 177 94 Q 179 96 178 100 L 177 108 Q 177 114 176 119 L 176 128 Q 176 134 175 141 L 166 143" fill="#cf0000" /><path d="M 175 141 Q 188 138 197 136 Q 211 132 223 140 Q 227 142 225 144 Q 225 146 221 146 Q 174 147 138 157 Q 134 158 127 156 L 128 150 Q 148 146 166 143" fill="#df0000" /><path d="M 171 176 Q 173 171 168 170 Q 166 170 155 175 Q 142 179 133 175 Q 128 173 129 172 Q 131 170 134 170 Q 149 168 158 165 Q 166 162 173 160 Q 180 156 186 159 Q 193 162 196 166 Q 200 169 195 173" fill="#ef0000" /><path d="M 139 238 L 112 240 Q 101 241 100 240 Q 97 237 100 237 Q 136 228 153 211 L 159 204 Q 167 192 171 176 L 195 173 Q 189 177 186 184 Q 178 200 169 211 L 161 220" fill="#ef0000" /><path d="M 153 211 Q 145 204 138 198 Q 133 193 127 190 Q 123 188 123 186 Q 124 185 128 184 Q 137 184 147 193 Q 153 199 159 204 L 169 211 Q 190 228 210 233 Q 254 245 254 245 Q 255 248 246 250 Q 229 254 207 255 Q 195 254 161 220" fill="#ff0000" /></svg>