<svg xmlns="http://www.w3.org/2000/svg" xmlns:xlink="http://www.w3.org/1999/xlink" width="270" height="270"><path d="M 0 0 L 270 270 M 270 0 L 0 270 M 135 0 L 135 270 M 0 135 L 270 135" stroke="#CCCCCC" /><path d="M 115 41 L 114 36 Q 113 32 115 31 Q 118 30 123 32 Q 148 39 151 48 Q 152 59 151 64 Q 149 68 145 68 Q 139 68 135 63 Q 129 55 123 48" fill="#000000" /><path d="M 113 96 Q 80 100 51 108 Q 46 110 40 108 Q 34 107 30 103 Q 25 97 32 97 Q 141 83 204 71 Q 222 66 239 78 Q 244 83 242 86 Q 241 89 234 89 Q 165 89 126 94" fill="#3f0000" /><path d="M 84 168 Q 80 170 77 166 Q 73 160 73 155 Q 73 151 78 147 Q 88 142 92 135 Q 114 107 113 96 L 126 94 Q 135 104 136 108 Q 136 111 131 115 Q 116 128 98 146" fill="#7f0000" /><path d="M 135 159 Q 133 159 132 159 Q 95 163 84 168 L 98 146 Q 95 151 102 151 Q 119 151 141 151" fill="#7f0000" /><path d="M 80 236 Q 74 239 71 234 Q 64 227 64 223 Q 64 218 69 216 Q 82 210 135 159 L 141 151 Q 154 132 155 125 Q 156 120 159 119 Q 162 119 167 123 Q 177 132 179 139 Q 180 142 176 145 Q 166 150 154 161 Q 113 194 95 211" fill="#bf0000" /><path d="M 116 217 L 80 236 L 95 211 Q 92 215 97 214 Q 135 205 167 201 L 171 207" fill="#bf0000" /><path d="M 167 201 Q 154 180 155 177 Q 157 174 159 176 Q 198 203 198 220 Q 199 232 194 235 Q 192 237 190 236 Q 188 235 171 207" fill="#ff0000" /></svg>