<svg xmlns="http://www.w3.org/2000/svg" xmlns:xlink="http://www.w3.org/1999/xlink" width="270" height="270"><path d="M 0 0 L 270 270 M 270 0 L 0 270 M 135 0 L 135 270 M 0 135 L 270 135" stroke="#CCCCCC" /><path d="M 53 76 Q 40 78 32 75 Q 24 71 34 69 Q 48 65 59 61 Q 83 51 89 51 Q 97 52 99 55 Q 101 57 99 59 Q 98 60 63 73" fill="#000000" /><path d="M 57 124 L 56 124 Q 39 128 31 125 Q 24 122 32 120 Q 44 117 55 114 Q 56 113 57 113 L 71 107 Q 75 102 86 103 Q 93 104 95 106 Q 96 108 94 111 Q 93 111 70 120" fill="#1f0000" /><path d="M 57 140 L 57 124 L 57 113 Q 57 111 57 110 Q 57 82 53 76 L 63 73 Q 64 73 64 73 Q 74 80 72 87 Q 71 88 71 107 L 70 120 Q 69 139 68 162 L 56 166" fill="#3f0000" /><path d="M 68 162 Q 81 156 93 151 Q 97 150 98 151 Q 98 154 95 156 Q 91 160 85 164 Q 43 187 35 194 Q 32 197 29 197 Q 19 192 13 188 Q 10 186 10 183 Q 11 180 14 179 Q 22 178 27 177 Q 42 171 56 166" fill="#5f0000" /><path d="M 142 75 L 132 92 Q 107 126 91 132 Q 89 132 90 130 Q 112 103 120 90 Q 120 89 121 88 Q 150 39 142 20 Q 140 17 143 16 Q 150 13 160 19 Q 164 21 165 24 L 165 25 Q 165 25 154 49 L 152 56" fill="#7f0000" /><path d="M 154 49 Q 181 74 203 91 Q 215 101 255 115 Q 259 117 259 118 Q 258 119 256 120 Q 247 122 218 124 Q 209 124 204 119 Q 174 86 152 56" fill="#9f0000" /><path d="M 147 96 L 149 96 Q 156 95 162 101 Q 165 104 165 106 Q 165 108 164 109 Q 163 110 161 112 Q 150 126 143 133 Q 142 134 141 135 Q 120 153 111 153 Q 109 152 111 151 Q 149 117 147 98" fill="#bf0000" /><path d="M 157 131 L 159 131 Q 162 130 166 133 Q 174 137 175 143 Q 175 145 173 146 Q 172 147 170 149 Q 130 193 108 193 Q 106 193 108 192 Q 125 179 132 172 Q 158 149 157 134" fill="#df0000" /><path d="M 175 159 L 177 159 Q 180 159 185 162 Q 189 164 192 169 Q 195 172 195 175 Q 195 177 193 178 Q 191 180 187 183 Q 156 216 139 229 Q 99 256 82 255 Q 80 254 82 253 Q 108 238 132 220 Q 175 185 175 163" fill="#ff0000" /></svg>