<svg xmlns="http://www.w3.org/2000/svg" xmlns:xlink="http://www.w3.org/1999/xlink" width="270" height="270"><path d="M 0 0 L 270 270 M 270 0 L 0 270 M 135 0 L 135 270 M 0 135 L 270 135" stroke="#CCCCCC" /><path d="M 161 71 Q 136 74 116 79 L 104 81 Q 94 83 85 84 Q 78 87 69 79 Q 63 75 71 74 Q 88 71 103 70 L 117 69 Q 132 66 148 63 Q 155 61 161 60 L 177 56 Q 177 56 178 56 Q 193 51 203 57 Q 209 60 209 63 Q 206 66 204 66 Q 191 67 176 69" fill="#CCCCCC"/><path d="M 116 79 Q 116 84 116 103 L 116 109 Q 115 118 115 128 L 115 134 Q 115 144 116 156 L 105 158 Q 105 102 104 81 L 103 70 Q 100 55 95 41 Q 93 37 95 35 Q 98 33 102 35 Q 109 38 116 44 Q 119 47 118 54 Q 117 58 117 69" fill="#CCCCCC"/><path d="M 158 150 Q 161 108 161 71 L 161 60 Q 161 52 161 45 Q 162 38 154 27 Q 152 22 154 20 Q 157 18 161 19 Q 168 20 178 26 Q 183 30 182 33 Q 178 47 177 56 L 176 69 Q 173 107 170 148" fill="#CCCCCC"/><path d="M 116 103 Q 135 95 143 96 Q 148 97 151 100 Q 153 103 148 104 Q 135 106 119 108 Q 117 109 116 109" fill="#CCCCCC"/><path d="M 115 128 Q 133 120 143 121 Q 148 122 151 125 Q 153 128 148 129 Q 135 131 118 134 Q 116 134 115 134" fill="#CCCCCC"/><path d="M 62 176 L 55 178 Q 51 179 45 177 Q 40 176 36 172 Q 31 167 37 167 Q 72 162 105 158 L 116 156 Q 124 155 131 154 Q 145 152 158 150 L 170 148 Q 189 144 203 141 Q 216 136 233 148 Q 238 152 236 156 Q 235 158 228 158 Q 139 158 82 171 L 70 174" fill="#CCCCCC"/><path d="M 119 173 L 122 173 Q 126 174 130 177 Q 135 182 135 184 Q 135 186 134 188 Q 131 190 128 193 Q 106 216 98 216 Q 95 217 96 215 Q 97 214 99 212 Q 106 204 111 197 Q 121 181 120 177" fill="#CCCCCC"/><path d="M 155 179 L 155 176 Q 155 173 156 172 Q 158 172 161 173 Q 190 186 191 196 Q 193 203 191 206 Q 190 209 187 209 Q 183 209 181 206 Q 170 194 161 184" fill="#CCCCCC"/><path d="M 82 171 Q 91 174 92 176 Q 95 179 92 182 Q 88 194 87 224 L 79 248 Q 76 251 72 249 Q 62 242 67 235 Q 72 230 74 226 Q 80 192 72 177 Q 70 175 70 174" fill="#CCCCCC"/><path d="M 87 224 Q 83 235 96 232 Q 130 225 167 223 Q 176 222 184 220 Q 201 216 216 229 Q 222 233 220 235 Q 217 239 211 238 Q 120 229 79 248" fill="#CCCCCC"/><path d="M 161 71 Q 136 74 116 79 L 104 81 Q 94 83 85 84 Q 78 87 69 79 Q 63 75 71 74 Q 88 71 103 70 L 117 69 Q 132 66 148 63 Q 155 61 161 60 L 177 56 Q 177 56 178 56 Q 193 51 203 57 Q 209 60 209 63 Q 206 66 204 66 Q 191 67 176 69" fill="#000000" /><path d="M 116 79 Q 116 84 116 103 L 116 109 Q 115 118 115 128 L 115 134 Q 115 144 116 156 L 105 158 Q 105 102 104 81 L 103 70 Q 100 55 95 41 Q 93 37 95 35 Q 98 33 102 35 Q 109 38 116 44 Q 119 47 118 54 Q 117 58 117 69" fill="#1f0000" /><path d="M 158 150 Q 161 108 161 71 L 161 60 Q 161 52 161 45 Q 162 38 154 27 Q 152 22 154 20 Q 157 18 161 19 Q 168 20 178 26 Q 183 30 182 33 Q 178 47 177 56 L 176 69 Q 173 107 170 148" fill="#3f0000" /><path d="M 116 103 Q 135 95 143 96 Q 148 97 151 100 Q 153 103 148 104 Q 135 106 119 108 Q 117 109 116 109" fill="#5f0000" /><path d="M 115 128 Q 133 120 143 121 Q 148 122 151 125 Q 153 128 148 129 Q 135 131 118 134 Q 116 134 115 134" fill="#7f0000" /><path d="M 62 176 L 55 178 Q 51 179 45 177 Q 40 176 36 172 Q 31 167 37 167 Q 72 162 105 158 L 116 156 Q 124 155 131 154 Q 145 152 158 150 L 170 148 Q 189 144 203 141 Q 216 136 233 148 Q 238 152 236 156 Q 235 158 228 158 Q 139 158 82 171 L 70 174" fill="#9f0000" /><path d="M 119 173 L 122 173 Q 126 174 130 177 Q 135 182 135 184 Q 135 186 134 188 Q 131 190 128 193 Q 106 216 98 216 Q 95 217 96 215 Q 97 214 99 212 Q 106 204 111 197 Q 121 181 120 177" fill="#bf0000" /><path d="M 155 179 L 155 176 Q 155 173 156 172 Q 158 172 161 173 Q 190 186 191 196 Q 193 203 191 206 Q 190 209 187 209 Q 183 209 181 206 Q 170 194 161 184" fill="#df0000" /><path d="M 82 171 Q 91 174 92 176 Q 95 179 92 182 Q 88 194 87 224 L 79 248 Q 76 251 72 249 Q 62 242 67 235 Q 72 230 74 226 Q 80 192 72 177 Q 70 175 70 174" fill="#ff0000" /><path d="M 87 224 Q 83 235 96 232 Q 130 225 167 223 Q 176 222 184 220 Q 201 216 216 229 Q 222 233 220 235 Q 217 239 211 238 Q 120 229 79 248" fill="#ff0000" /></svg>