<svg xmlns="http://www.w3.org/2000/svg" xmlns:xlink="http://www.w3.org/1999/xlink" width="270" height="270"><path d="M 0 0 L 270 270 M 270 0 L 0 270 M 135 0 L 135 270 M 0 135 L 270 135" stroke="#CCCCCC" /><path d="M 79 117 Q 69 135 52 150 Q 46 156 41 157 Q 36 159 38 154 Q 49 140 50 140 Q 77 103 71 77 Q 70 73 74 72 Q 79 71 94 79 Q 99 83 96 87 Q 84 106 82 113" fill="#000000" /><path d="M 127 119 Q 117 121 108 122 Q 89 127 79 117 L 82 113 Q 83 112 84 112 Q 107 110 127 107 L 144 103 Q 155 100 166 97 Q 174 94 183 96 Q 191 98 193 102 Q 194 104 191 106 Q 189 108 174 111 Q 158 114 143 117" fill="#3f0000" /><path d="M 127 175 Q 121 175 115 177 Q 98 181 87 174 Q 80 170 90 168 Q 110 166 126 162 Q 127 162 127 162 L 142 157 Q 164 150 172 151 Q 181 153 182 157 Q 184 159 181 161 Q 180 163 142 171" fill="#7f0000" /><path d="M 127 197 L 127 175 L 127 162 Q 127 140 127 119 L 127 107 Q 127 85 127 63 Q 128 48 119 34 Q 117 30 119 28 Q 123 24 128 25 Q 137 28 148 36 Q 152 40 148 46 Q 145 56 144 103 L 143 117 Q 142 136 142 157 L 142 171 Q 142 194 141 218 L 127 220" fill="#bf0000" /><path d="M 141 218 Q 180 213 204 208 Q 219 205 236 218 Q 241 222 240 226 Q 238 229 231 229 Q 231 229 230 229 Q 132 224 54 242 Q 42 245 32 236 Q 28 230 34 229 Q 84 224 127 220" fill="#ff0000" /></svg>