<svg xmlns="http://www.w3.org/2000/svg" xmlns:xlink="http://www.w3.org/1999/xlink" width="270" height="270"><path d="M 0 0 L 270 270 M 270 0 L 0 270 M 135 0 L 135 270 M 0 135 L 270 135" stroke="#CCCCCC" /><path d="M 96 57 Q 94 68 94 82 Q 94 164 59 209 Q 49 223 46 223 Q 43 224 43 221 Q 44 219 45 217 Q 63 183 70 155 Q 72 150 73 144 Q 77 122 77 67 Q 75 53 71 46 Q 69 42 72 40 Q 76 38 81 41 Q 88 43 92 46" fill="#000000" /><path d="M 129 50 Q 112 53 96 57 L 92 46 Q 139 41 183 32 Q 200 27 206 31 Q 220 38 223 42 L 196 45 Q 193 41 188 42 Q 164 45 144 48" fill="#3f0000" /><path d="M 223 42 Q 226 46 222 52 Q 218 59 218 71 Q 217 105 221 198 Q 221 218 215 232 Q 212 240 208 241 Q 204 242 198 235 L 197 207 Q 201 204 201 194 Q 205 125 201 65 Q 200 46 196 45" fill="#3f0000" /><path d="M 198 235 Q 191 225 179 211 Q 175 209 175 207 Q 175 204 180 206 Q 194 209 197 207" fill="#3f0000" /><path d="M 135 103 Q 121 107 112 101 Q 105 98 114 96 Q 125 95 135 93 L 150 89 Q 163 83 172 85 Q 179 86 180 89 Q 181 91 179 93 Q 178 94 149 100" fill="#7f0000" /><path d="M 128 149 L 123 150 Q 115 152 106 145 Q 101 141 108 140 Q 116 139 123 138 Q 128 137 135 136 L 149 133 Q 149 133 150 133 Q 170 127 178 132 Q 184 134 184 137 Q 182 141 179 141 Q 152 144 149 145 L 135 148" fill="#bf0000" /><path d="M 135 136 Q 135 118 135 103 L 135 93 Q 135 85 135 79 Q 135 64 129 50 L 144 48 Q 147 49 150 52 Q 154 54 153 59 Q 150 70 150 89 L 149 100 Q 149 120 149 133 L 149 145 Q 149 185 148 197 Q 147 212 142 215 Q 140 216 139 214 L 138 214 Q 131 201 135 148" fill="#ff0000" /></svg>