<svg xmlns="http://www.w3.org/2000/svg" xmlns:xlink="http://www.w3.org/1999/xlink" width="270" height="270"><path d="M 0 0 L 270 270 M 270 0 L 0 270 M 135 0 L 135 270 M 0 135 L 270 135" stroke="#CCCCCC" /><path d="M 117 48 Q 115 49 112 49 Q 80 56 76 55 Q 74 54 76 51 Q 78 51 80 50 Q 148 27 149 16 Q 150 13 152 12 Q 160 11 177 26 Q 181 30 179 33 Q 178 35 173 35 Q 162 36 148 39 Q 139 43 129 45" fill="#000000" /><path d="M 77 72 L 76 69 Q 77 66 78 65 Q 80 65 83 66 Q 100 71 102 78 Q 103 85 102 89 Q 100 92 98 92 Q 94 91 91 88 Q 87 83 83 78" fill="#170000" /><path d="M 169 51 L 169 46 Q 168 42 172 42 Q 175 42 181 46 Q 188 50 191 55 Q 193 60 187 62 Q 181 64 176 68 Q 155 78 149 81 Q 144 81 147 77 Q 164 58 166 56" fill="#2e0000" /><path d="M 112 107 Q 88 110 68 116 Q 64 118 58 116 Q 53 115 49 111 Q 45 107 51 106 Q 90 100 124 95 L 135 93 Q 168 87 187 83 Q 198 81 212 91 Q 216 95 215 98 Q 214 100 208 100 Q 163 100 139 103" fill="#450000" /><path d="M 134 124 L 135 133 Q 135 153 132 156 Q 128 158 126 154 Q 124 151 123 149 Q 121 144 122 140 Q 124 132 124 112 L 124 95 Q 124 59 117 48 L 129 45 Q 135 48 141 52 Q 143 56 142 58 Q 136 70 135 93 L 134 107" fill="#5c0000" /><path d="M 124 112 Q 121 115 118 119 Q 98 143 65 161 Q 49 170 33 172 Q 22 175 20 174 Q 16 173 21 171 Q 88 140 112 107 L 124 95" fill="#730000" /><path d="M 135 93 L 139 103 Q 141 104 143 106 Q 187 133 220 141 Q 236 143 249 147 Q 253 147 253 149 Q 252 151 248 152 Q 231 158 215 159 Q 206 160 199 156 Q 166 133 134 107" fill="#8b0000" /><path d="M 92 241 L 91 245 Q 90 249 85 242 Q 79 235 79 225 Q 75 191 66 170 Q 64 165 66 164 Q 67 162 70 163 Q 80 166 83 167 L 86 177 Q 87 189 93 228 L 93 236" fill="#a20000" /><path d="M 83 167 Q 134 165 169 154 Q 178 151 183 154 Q 196 159 202 166 L 174 169 Q 171 166 163 167 Q 144 169 129 172 L 119 173 Q 86 177 86 177" fill="#b90000" /><path d="M 171 222 Q 176 199 176 175 Q 175 170 174 169 L 202 166 Q 205 170 200 174 Q 194 183 192 196 Q 188 235 181 249 Q 178 257 174 257 Q 171 258 169 253" fill="#b90000" /><path d="M 168 227 Q 169 227 170 227 Q 171 226 171 222 L 169 253 Q 162 239 159 231" fill="#b90000" /><path d="M 134 191 Q 134 191 135 191 Q 146 188 152 189 Q 160 190 162 194 Q 164 198 158 199 Q 146 200 134 202 L 121 204 Q 116 205 110 206 Q 104 207 102 205 Q 96 201 101 200 Q 110 197 121 194" fill="#d00000" /><path d="M 129 172 Q 137 178 135 183 Q 134 187 134 191 L 134 202 Q 133 212 132 223 L 121 225 Q 121 212 121 204 L 121 194 Q 120 179 119 173" fill="#e70000" /><path d="M 93 228 Q 106 226 121 225 L 132 223 Q 157 218 161 221 Q 167 224 168 227 L 159 231 Q 117 233 97 236 Q 94 237 93 236" fill="#ff0000" /></svg>