<svg xmlns="http://www.w3.org/2000/svg" xmlns:xlink="http://www.w3.org/1999/xlink" width="270" height="270"><path d="M 0 0 L 270 270 M 270 0 L 0 270 M 135 0 L 135 270 M 0 135 L 270 135" stroke="#CCCCCC" /><path d="M 122 30 L 121 27 Q 120 23 122 22 Q 123 21 128 22 Q 151 25 154 32 Q 157 41 156 45 Q 155 49 152 49 Q 147 49 143 46 Q 137 40 130 35" fill="#CCCCCC"/><path d="M 90 68 Q 127 65 169 55 Q 189 48 197 50 Q 204 52 205 55 Q 206 57 204 59 Q 200 62 107 77 Q 99 79 93 77" fill="#CCCCCC"/><path d="M 76 139 L 76 139 Q 80 84 71 69 Q 67 63 72 62 Q 76 62 89 68 Q 90 68 90 68 L 93 77 Q 92 80 92 84 Q 92 123 88 149 Q 82 192 59 218 Q 38 241 27 241 Q 24 242 24 240 Q 26 236 37 226 Q 68 195 75 146 L 76 140" fill="#CCCCCC"/><path d="M 32 92 L 32 89 Q 32 85 34 85 Q 36 85 41 86 Q 60 95 62 106 Q 62 111 60 114 Q 57 117 53 116 Q 44 109 36 96" fill="#CCCCCC"/><path d="M 75 146 Q 50 167 38 181 Q 35 184 31 183 Q 26 181 21 178 Q 17 174 17 172 Q 18 170 21 169 Q 27 167 35 162 Q 68 143 76 140" fill="#CCCCCC"/><path d="M 132 102 L 131 112 Q 130 127 121 137 Q 112 146 103 148 Q 101 147 103 146 Q 118 131 119 117 Q 120 99 115 95 Q 113 92 116 91 Q 119 89 129 93 L 133 101" fill="#CCCCCC"/><path d="M 129 93 Q 149 88 163 80 Q 166 78 169 79 Q 175 82 181 86 Q 185 90 180 93 L 162 94 Q 161 91 159 91 Q 159 90 159 91 Q 154 91 133 101" fill="#CCCCCC"/><path d="M 180 93 Q 173 99 171 106 Q 168 118 170 122 L 166 134 Q 160 131 158 124 Q 158 121 162 94" fill="#CCCCCC"/><path d="M 170 122 Q 172 127 179 126 Q 190 126 198 121 Q 204 118 207 120 Q 211 122 215 126 Q 217 130 214 131 Q 206 136 191 137 Q 175 138 166 134" fill="#CCCCCC"/><path d="M 159 157 Q 158 153 154 155 Q 142 158 129 162 Q 119 166 113 163 Q 108 160 110 159 Q 113 157 119 156 Q 141 152 156 143 Q 161 141 166 143 Q 174 146 179 150 Q 183 154 179 157" fill="#CCCCCC"/><path d="M 132 230 L 93 234 Q 86 235 84 233 Q 82 231 85 230 Q 126 219 142 201 L 148 193 Q 159 174 159 157 L 179 157 Q 174 161 172 170 Q 166 188 158 201 L 151 210" fill="#CCCCCC"/><path d="M 142 201 Q 124 184 113 178 Q 109 176 109 174 Q 110 172 114 172 Q 123 172 134 181 Q 140 187 148 193 L 158 201 Q 161 203 164 206 Q 184 220 225 231 Q 233 232 241 234 Q 251 237 251 238 Q 252 241 242 242 Q 219 248 200 248 Q 188 248 151 210" fill="#CCCCCC"/><path d="M 122 30 L 121 27 Q 120 23 122 22 Q 123 21 128 22 Q 151 25 154 32 Q 157 41 156 45 Q 155 49 152 49 Q 147 49 143 46 Q 137 40 130 35" fill="#000000" /><path d="M 90 68 Q 127 65 169 55 Q 189 48 197 50 Q 204 52 205 55 Q 206 57 204 59 Q 200 62 107 77 Q 99 79 93 77" fill="#1f0000" /><path d="M 76 139 L 76 139 Q 80 84 71 69 Q 67 63 72 62 Q 76 62 89 68 Q 90 68 90 68 L 93 77 Q 92 80 92 84 Q 92 123 88 149 Q 82 192 59 218 Q 38 241 27 241 Q 24 242 24 240 Q 26 236 37 226 Q 68 195 75 146 L 76 140" fill="#3f0000" /><path d="M 32 92 L 32 89 Q 32 85 34 85 Q 36 85 41 86 Q 60 95 62 106 Q 62 111 60 114 Q 57 117 53 116 Q 44 109 36 96" fill="#5f0000" /><path d="M 75 146 Q 50 167 38 181 Q 35 184 31 183 Q 26 181 21 178 Q 17 174 17 172 Q 18 170 21 169 Q 27 167 35 162 Q 68 143 76 140" fill="#7f0000" /><path d="M 132 102 L 131 112 Q 130 127 121 137 Q 112 146 103 148 Q 101 147 103 146 Q 118 131 119 117 Q 120 99 115 95 Q 113 92 116 91 Q 119 89 129 93 L 133 101" fill="#9f0000" /><path d="M 129 93 Q 149 88 163 80 Q 166 78 169 79 Q 175 82 181 86 Q 185 90 180 93 L 162 94 Q 161 91 159 91 Q 159 90 159 91 Q 154 91 133 101" fill="#bf0000" /><path d="M 180 93 Q 173 99 171 106 Q 168 118 170 122 L 166 134 Q 160 131 158 124 Q 158 121 162 94" fill="#bf0000" /><path d="M 170 122 Q 172 127 179 126 Q 190 126 198 121 Q 204 118 207 120 Q 211 122 215 126 Q 217 130 214 131 Q 206 136 191 137 Q 175 138 166 134" fill="#bf0000" /><path d="M 159 157 Q 158 153 154 155 Q 142 158 129 162 Q 119 166 113 163 Q 108 160 110 159 Q 113 157 119 156 Q 141 152 156 143 Q 161 141 166 143 Q 174 146 179 150 Q 183 154 179 157" fill="#df0000" /><path d="M 132 230 L 93 234 Q 86 235 84 233 Q 82 231 85 230 Q 126 219 142 201 L 148 193 Q 159 174 159 157 L 179 157 Q 174 161 172 170 Q 166 188 158 201 L 151 210" fill="#df0000" /><path d="M 142 201 Q 124 184 113 178 Q 109 176 109 174 Q 110 172 114 172 Q 123 172 134 181 Q 140 187 148 193 L 158 201 Q 161 203 164 206 Q 184 220 225 231 Q 233 232 241 234 Q 251 237 251 238 Q 252 241 242 242 Q 219 248 200 248 Q 188 248 151 210" fill="#ff0000" /></svg>