<svg xmlns="http://www.w3.org/2000/svg" xmlns:xlink="http://www.w3.org/1999/xlink" width="270" height="270"><path d="M 0 0 L 270 270 M 270 0 L 0 270 M 135 0 L 135 270 M 0 135 L 270 135" stroke="#CCCCCC" /><path d="M 149 26 L 148 24 Q 147 20 148 19 Q 152 17 170 23 Q 178 27 179 31 Q 182 39 181 43 Q 179 46 177 46 Q 173 47 169 44 Q 162 37 156 32" fill="#CCCCCC"/><path d="M 114 66 Q 147 64 183 56 Q 210 48 217 50 Q 225 52 227 55 Q 228 58 225 60 Q 223 62 154 73 Q 126 78 116 76 Q 116 76 116 77" fill="#CCCCCC"/><path d="M 105 78 L 94 64 Q 93 61 96 59 Q 100 57 105 61 Q 110 63 114 66 L 116 77 Q 113 87 112 101 Q 102 161 84 200 Q 79 209 74 217 Q 51 249 42 250 Q 40 251 40 248 Q 41 246 42 245 Q 77 197 88 151 L 90 142" fill="#CCCCCC"/><path d="M 53 95 L 53 93 Q 53 90 54 90 Q 57 89 60 91 Q 80 99 81 111 Q 82 115 80 117 Q 77 120 74 119 Q 66 113 56 99" fill="#CCCCCC"/><path d="M 88 151 Q 60 169 54 175 Q 52 177 49 177 Q 40 173 34 169 Q 32 168 32 164 Q 32 162 35 161 Q 45 160 90 142" fill="#CCCCCC"/><path d="M 195 95 Q 195 92 193 90 Q 190 89 187 91 Q 158 101 152 103 Q 144 108 136 104 Q 132 101 130 98 Q 128 93 133 93 Q 148 93 154 92 Q 178 85 194 79 Q 200 77 204 80 Q 220 90 221 94" fill="#CCCCCC"/><path d="M 186 105 L 195 95 L 221 94 Q 222 98 217 99 Q 206 101 178 120 L 175 117" fill="#CCCCCC"/><path d="M 178 120 Q 179 120 179 121 Q 180 125 180 128 Q 179 130 177 130 Q 175 131 173 129 Q 166 124 161 120 Q 156 117 155 115 Q 155 113 156 112 Q 156 111 159 112 Q 173 114 175 117" fill="#CCCCCC"/><path d="M 136 149 Q 134 159 132 202 Q 130 228 121 234 Q 119 235 117 232 Q 117 231 117 230 Q 111 223 118 203 Q 128 162 119 141 Q 117 138 121 137 Q 125 137 132 141" fill="#CCCCCC"/><path d="M 158 144 Q 138 149 136 149 L 132 141 Q 165 136 201 127 Q 216 123 221 125 Q 232 131 235 135 L 213 137 Q 211 134 207 135 Q 186 138 170 142" fill="#CCCCCC"/><path d="M 235 135 Q 237 138 234 143 Q 229 151 235 216 Q 235 232 231 243 Q 229 250 225 251 Q 222 252 217 247 L 217 217 Q 218 180 216 147 Q 215 138 213 137" fill="#CCCCCC"/><path d="M 217 247 Q 210 239 197 228 Q 194 227 194 225 Q 193 223 197 223 Q 212 226 215 224 Q 217 223 217 217" fill="#CCCCCC"/><path d="M 163 174 Q 159 174 154 176 Q 149 177 147 175 Q 142 172 146 171 Q 154 168 163 165 L 177 161 Q 184 158 190 159 Q 196 160 198 163 Q 201 166 195 167 Q 186 169 176 171" fill="#CCCCCC"/><path d="M 157 199 L 152 200 Q 146 201 144 199 Q 139 195 143 194 Q 153 192 163 190 L 176 187 Q 187 184 194 185 Q 200 187 203 190 Q 204 193 199 194 Q 187 195 175 197 L 163 199" fill="#CCCCCC"/><path d="M 163 190 Q 163 181 163 174 L 163 165 Q 161 151 158 144 L 170 142 Q 173 143 176 145 Q 177 146 177 147 Q 177 154 177 161 L 176 171 Q 176 180 176 187 L 175 197 Q 175 228 173 234 Q 171 238 170 238 Q 168 239 167 237 Q 163 232 163 205 Q 163 201 163 199" fill="#CCCCCC"/><path d="M 149 26 L 148 24 Q 147 20 148 19 Q 152 17 170 23 Q 178 27 179 31 Q 182 39 181 43 Q 179 46 177 46 Q 173 47 169 44 Q 162 37 156 32" fill="#000000" /><path d="M 114 66 Q 147 64 183 56 Q 210 48 217 50 Q 225 52 227 55 Q 228 58 225 60 Q 223 62 154 73 Q 126 78 116 76 Q 116 76 116 77" fill="#170000" /><path d="M 105 78 L 94 64 Q 93 61 96 59 Q 100 57 105 61 Q 110 63 114 66 L 116 77 Q 113 87 112 101 Q 102 161 84 200 Q 79 209 74 217 Q 51 249 42 250 Q 40 251 40 248 Q 41 246 42 245 Q 77 197 88 151 L 90 142" fill="#2e0000" /><path d="M 53 95 L 53 93 Q 53 90 54 90 Q 57 89 60 91 Q 80 99 81 111 Q 82 115 80 117 Q 77 120 74 119 Q 66 113 56 99" fill="#450000" /><path d="M 88 151 Q 60 169 54 175 Q 52 177 49 177 Q 40 173 34 169 Q 32 168 32 164 Q 32 162 35 161 Q 45 160 90 142" fill="#5c0000" /><path d="M 195 95 Q 195 92 193 90 Q 190 89 187 91 Q 158 101 152 103 Q 144 108 136 104 Q 132 101 130 98 Q 128 93 133 93 Q 148 93 154 92 Q 178 85 194 79 Q 200 77 204 80 Q 220 90 221 94" fill="#730000" /><path d="M 186 105 L 195 95 L 221 94 Q 222 98 217 99 Q 206 101 178 120 L 175 117" fill="#730000" /><path d="M 178 120 Q 179 120 179 121 Q 180 125 180 128 Q 179 130 177 130 Q 175 131 173 129 Q 166 124 161 120 Q 156 117 155 115 Q 155 113 156 112 Q 156 111 159 112 Q 173 114 175 117" fill="#8b0000" /><path d="M 136 149 Q 134 159 132 202 Q 130 228 121 234 Q 119 235 117 232 Q 117 231 117 230 Q 111 223 118 203 Q 128 162 119 141 Q 117 138 121 137 Q 125 137 132 141" fill="#a20000" /><path d="M 158 144 Q 138 149 136 149 L 132 141 Q 165 136 201 127 Q 216 123 221 125 Q 232 131 235 135 L 213 137 Q 211 134 207 135 Q 186 138 170 142" fill="#b90000" /><path d="M 235 135 Q 237 138 234 143 Q 229 151 235 216 Q 235 232 231 243 Q 229 250 225 251 Q 222 252 217 247 L 217 217 Q 218 180 216 147 Q 215 138 213 137" fill="#b90000" /><path d="M 217 247 Q 210 239 197 228 Q 194 227 194 225 Q 193 223 197 223 Q 212 226 215 224 Q 217 223 217 217" fill="#b90000" /><path d="M 163 174 Q 159 174 154 176 Q 149 177 147 175 Q 142 172 146 171 Q 154 168 163 165 L 177 161 Q 184 158 190 159 Q 196 160 198 163 Q 201 166 195 167 Q 186 169 176 171" fill="#d00000" /><path d="M 157 199 L 152 200 Q 146 201 144 199 Q 139 195 143 194 Q 153 192 163 190 L 176 187 Q 187 184 194 185 Q 200 187 203 190 Q 204 193 199 194 Q 187 195 175 197 L 163 199" fill="#e70000" /><path d="M 163 190 Q 163 181 163 174 L 163 165 Q 161 151 158 144 L 170 142 Q 173 143 176 145 Q 177 146 177 147 Q 177 154 177 161 L 176 171 Q 176 180 176 187 L 175 197 Q 175 228 173 234 Q 171 238 170 238 Q 168 239 167 237 Q 163 232 163 205 Q 163 201 163 199" fill="#ff0000" /></svg>