<svg xmlns="http://www.w3.org/2000/svg" xmlns:xlink="http://www.w3.org/1999/xlink" width="270" height="270"><path d="M 0 0 L 270 270 M 270 0 L 0 270 M 135 0 L 135 270 M 0 135 L 270 135" stroke="#CCCCCC" /><path d="M 129 21 L 128 19 Q 127 15 128 14 Q 131 12 150 16 Q 158 18 160 22 Q 164 30 163 34 Q 161 38 159 39 Q 155 39 151 36 Q 144 31 137 26" fill="#CCCCCC"/><path d="M 134 63 Q 126 64 118 66 Q 101 68 93 65 L 91 58 Q 91 58 92 58 Q 123 55 157 46 Q 178 39 185 41 Q 193 43 194 46 Q 196 48 193 50 Q 191 52 177 55 Q 158 58 142 61" fill="#CCCCCC"/><path d="M 73 113 L 75 88 Q 75 86 75 84 Q 77 63 71 55 Q 69 52 72 50 Q 76 49 80 51 Q 87 54 91 58 L 93 65 Q 90 67 88 95 Q 83 148 64 188 Q 60 195 57 202 Q 35 236 25 238 Q 23 238 23 235 Q 24 234 25 232 Q 54 190 66 145 L 68 136" fill="#CCCCCC"/><path d="M 33 92 L 33 89 Q 33 85 35 85 Q 38 84 54 93 Q 61 97 61 101 Q 62 110 60 113 Q 58 116 55 116 Q 51 115 48 111 Q 44 104 39 98" fill="#CCCCCC"/><path d="M 66 145 Q 44 160 37 168 Q 35 170 32 170 Q 24 167 18 164 Q 16 163 16 160 Q 16 157 19 156 Q 24 155 68 136" fill="#CCCCCC"/><path d="M 147 85 Q 160 81 172 77 Q 178 74 185 75 Q 191 77 192 79 Q 193 81 191 83 Q 191 83 161 91 L 154 92 Q 149 93 143 95 L 129 98 Q 126 98 124 99 Q 112 102 103 97 Q 97 93 105 92 Q 119 90 133 88" fill="#CCCCCC"/><path d="M 105 148 Q 105 147 105 147 Q 87 159 83 159 Q 82 158 83 156 Q 103 139 110 129 Q 111 128 112 127 L 116 122 Q 123 111 129 98 L 133 88 Q 136 76 134 65 Q 134 64 134 63 L 142 61 Q 150 64 153 68 Q 154 71 152 73 Q 149 79 147 85 L 143 95 Q 131 125 113 140 Q 111 141 110 143" fill="#CCCCCC"/><path d="M 161 91 Q 180 105 186 109 L 190 112 Q 195 114 199 117 Q 210 123 225 128 Q 239 132 250 135 Q 253 136 253 138 Q 253 139 248 140 Q 212 148 202 139 Q 177 117 154 92" fill="#CCCCCC"/><path d="M 112 127 Q 110 127 107 126 Q 97 119 96 114 Q 95 112 96 112 Q 101 110 112 115 Q 116 118 116 122" fill="#CCCCCC"/><path d="M 186 109 Q 201 89 200 85 Q 200 80 204 80 Q 209 81 214 85 Q 218 89 220 93 Q 221 96 217 97 Q 207 101 190 112" fill="#CCCCCC"/><path d="M 125 188 Q 125 191 125 193 Q 123 197 119 192 Q 116 188 115 181 Q 112 160 105 148 L 110 143 L 120 151 Q 120 155 122 164 L 123 169 Q 124 174 125 180 Q 125 181 125 182" fill="#CCCCCC"/><path d="M 110 143 Q 120 143 136 139 Q 149 136 160 134 Q 161 134 162 134 Q 179 130 182 132 Q 192 138 195 142 L 173 142 Q 171 140 166 141 Q 134 146 120 151" fill="#CCCCCC"/><path d="M 167 176 Q 171 169 175 148 Q 176 144 173 142 L 195 142 Q 198 145 194 148 Q 189 153 187 160 Q 180 185 177 189 Q 173 194 171 192 Q 167 190 164 183" fill="#CCCCCC"/><path d="M 122 164 Q 147 156 153 156 Q 158 156 161 160 Q 163 162 158 163 Q 145 166 127 169 Q 125 169 123 169" fill="#CCCCCC"/><path d="M 166 175 L 167 176 L 164 183 Q 156 184 149 185 L 139 186 Q 134 187 128 188 Q 126 188 125 188 L 125 182 Q 158 174 163 175" fill="#CCCCCC"/><path d="M 149 185 Q 151 187 154 189 Q 158 194 156 204 Q 156 210 156 225 Q 156 240 152 248 Q 149 256 146 257 Q 144 257 140 254 L 141 229 Q 142 228 142 223 Q 143 190 139 186" fill="#CCCCCC"/><path d="M 140 254 Q 134 246 119 232 Q 116 230 117 228 Q 117 227 120 227 Q 127 229 134 231 Q 140 232 141 229" fill="#CCCCCC"/><path d="M 101 196 L 103 196 Q 104 196 105 199 Q 105 205 103 213 Q 99 229 86 236 Q 80 238 79 233 Q 77 224 83 217 Q 92 208 99 197" fill="#CCCCCC"/><path d="M 173 204 L 174 200 Q 174 197 177 199 Q 183 201 194 206 Q 212 213 214 224 Q 217 235 214 238 Q 212 241 210 241 Q 206 239 202 234 Q 188 218 176 207" fill="#CCCCCC"/><path d="M 129 21 L 128 19 Q 127 15 128 14 Q 131 12 150 16 Q 158 18 160 22 Q 164 30 163 34 Q 161 38 159 39 Q 155 39 151 36 Q 144 31 137 26" fill="#000000" /><path d="M 134 63 Q 126 64 118 66 Q 101 68 93 65 L 91 58 Q 91 58 92 58 Q 123 55 157 46 Q 178 39 185 41 Q 193 43 194 46 Q 196 48 193 50 Q 191 52 177 55 Q 158 58 142 61" fill="#0f0000" /><path d="M 73 113 L 75 88 Q 75 86 75 84 Q 77 63 71 55 Q 69 52 72 50 Q 76 49 80 51 Q 87 54 91 58 L 93 65 Q 90 67 88 95 Q 83 148 64 188 Q 60 195 57 202 Q 35 236 25 238 Q 23 238 23 235 Q 24 234 25 232 Q 54 190 66 145 L 68 136" fill="#1f0000" /><path d="M 33 92 L 33 89 Q 33 85 35 85 Q 38 84 54 93 Q 61 97 61 101 Q 62 110 60 113 Q 58 116 55 116 Q 51 115 48 111 Q 44 104 39 98" fill="#2f0000" /><path d="M 66 145 Q 44 160 37 168 Q 35 170 32 170 Q 24 167 18 164 Q 16 163 16 160 Q 16 157 19 156 Q 24 155 68 136" fill="#3f0000" /><path d="M 147 85 Q 160 81 172 77 Q 178 74 185 75 Q 191 77 192 79 Q 193 81 191 83 Q 191 83 161 91 L 154 92 Q 149 93 143 95 L 129 98 Q 126 98 124 99 Q 112 102 103 97 Q 97 93 105 92 Q 119 90 133 88" fill="#4f0000" /><path d="M 105 148 Q 105 147 105 147 Q 87 159 83 159 Q 82 158 83 156 Q 103 139 110 129 Q 111 128 112 127 L 116 122 Q 123 111 129 98 L 133 88 Q 136 76 134 65 Q 134 64 134 63 L 142 61 Q 150 64 153 68 Q 154 71 152 73 Q 149 79 147 85 L 143 95 Q 131 125 113 140 Q 111 141 110 143" fill="#5f0000" /><path d="M 161 91 Q 180 105 186 109 L 190 112 Q 195 114 199 117 Q 210 123 225 128 Q 239 132 250 135 Q 253 136 253 138 Q 253 139 248 140 Q 212 148 202 139 Q 177 117 154 92" fill="#6f0000" /><path d="M 112 127 Q 110 127 107 126 Q 97 119 96 114 Q 95 112 96 112 Q 101 110 112 115 Q 116 118 116 122" fill="#7f0000" /><path d="M 186 109 Q 201 89 200 85 Q 200 80 204 80 Q 209 81 214 85 Q 218 89 220 93 Q 221 96 217 97 Q 207 101 190 112" fill="#8f0000" /><path d="M 125 188 Q 125 191 125 193 Q 123 197 119 192 Q 116 188 115 181 Q 112 160 105 148 L 110 143 L 120 151 Q 120 155 122 164 L 123 169 Q 124 174 125 180 Q 125 181 125 182" fill="#9f0000" /><path d="M 110 143 Q 120 143 136 139 Q 149 136 160 134 Q 161 134 162 134 Q 179 130 182 132 Q 192 138 195 142 L 173 142 Q 171 140 166 141 Q 134 146 120 151" fill="#af0000" /><path d="M 167 176 Q 171 169 175 148 Q 176 144 173 142 L 195 142 Q 198 145 194 148 Q 189 153 187 160 Q 180 185 177 189 Q 173 194 171 192 Q 167 190 164 183" fill="#af0000" /><path d="M 122 164 Q 147 156 153 156 Q 158 156 161 160 Q 163 162 158 163 Q 145 166 127 169 Q 125 169 123 169" fill="#bf0000" /><path d="M 166 175 L 167 176 L 164 183 Q 156 184 149 185 L 139 186 Q 134 187 128 188 Q 126 188 125 188 L 125 182 Q 158 174 163 175" fill="#cf0000" /><path d="M 149 185 Q 151 187 154 189 Q 158 194 156 204 Q 156 210 156 225 Q 156 240 152 248 Q 149 256 146 257 Q 144 257 140 254 L 141 229 Q 142 228 142 223 Q 143 190 139 186" fill="#df0000" /><path d="M 140 254 Q 134 246 119 232 Q 116 230 117 228 Q 117 227 120 227 Q 127 229 134 231 Q 140 232 141 229" fill="#df0000" /><path d="M 101 196 L 103 196 Q 104 196 105 199 Q 105 205 103 213 Q 99 229 86 236 Q 80 238 79 233 Q 77 224 83 217 Q 92 208 99 197" fill="#ef0000" /><path d="M 173 204 L 174 200 Q 174 197 177 199 Q 183 201 194 206 Q 212 213 214 224 Q 217 235 214 238 Q 212 241 210 241 Q 206 239 202 234 Q 188 218 176 207" fill="#ff0000" /></svg>