<svg xmlns="http://www.w3.org/2000/svg" xmlns:xlink="http://www.w3.org/1999/xlink" width="270" height="270"><path d="M 0 0 L 270 270 M 270 0 L 0 270 M 135 0 L 135 270 M 0 135 L 270 135" stroke="#CCCCCC" /><path d="M 111 55 L 115 64 Q 116 68 112 70 Q 107 77 103 86 Q 87 117 68 136 Q 67 136 66 137 Q 41 158 31 157 Q 28 157 30 155 Q 31 153 32 152 Q 59 129 66 121 Q 80 104 92 74 Q 93 72 94 70 Q 97 60 97 53 L 96 52 L 104 51" fill="#000000" /><path d="M 96 52 Q 91 53 85 55 Q 78 58 71 53 Q 65 48 65 46 Q 66 45 69 45 Q 142 39 163 29 Q 168 27 172 29 Q 185 35 186 38 Q 188 41 181 45 L 162 43 Q 160 41 155 42 Q 133 44 104 51" fill="#1f0000" /><path d="M 181 45 Q 175 49 168 62 L 158 82 Q 155 85 153 83 Q 150 81 149 76 Q 148 73 151 71 Q 156 65 161 51 Q 163 46 162 43" fill="#1f0000" /><path d="M 168 62 Q 165 70 170 70 Q 173 70 183 67 Q 188 65 194 68 Q 204 73 207 76 L 184 78 Q 183 76 178 76 Q 169 77 158 82" fill="#1f0000" /><path d="M 207 76 Q 210 80 205 83 Q 200 90 194 116 Q 187 139 173 146 L 172 125 Q 176 123 178 118 Q 184 105 186 88 Q 187 81 184 78" fill="#1f0000" /><path d="M 173 146 Q 168 149 164 144 Q 157 135 149 125 Q 143 118 150 121 Q 169 126 172 125" fill="#1f0000" /><path d="M 131 94 Q 130 92 116 97 Q 109 99 107 96 Q 104 94 107 93 Q 124 89 130 86 Q 135 83 138 84 Q 149 89 150 92 Q 151 94 149 96" fill="#3f0000" /><path d="M 120 132 L 119 133 Q 97 155 83 154 Q 78 154 84 151 Q 101 139 112 126 Q 113 125 114 124 L 120 117 Q 132 100 131 94 L 149 96 Q 145 99 140 107 Q 135 115 129 122 L 122 131" fill="#3f0000" /><path d="M 114 124 Q 102 113 102 110 Q 102 108 104 109 Q 110 112 120 117 L 129 122 Q 140 128 142 135 Q 144 142 142 145 Q 141 147 139 146 Q 138 146 122 131" fill="#5f0000" /><path d="M 65 194 L 62 187 Q 59 179 55 173 Q 52 169 54 167 Q 56 165 60 166 Q 68 168 74 172 L 78 181 Q 78 189 82 222 L 71 223" fill="#7f0000" /><path d="M 74 172 Q 131 166 179 157 Q 183 155 187 158 Q 202 166 204 170 L 178 168 Q 172 165 147 170 L 135 171 Q 121 174 108 176 L 101 177 Q 93 179 85 180 Q 81 182 78 181" fill="#9f0000" /><path d="M 168 214 Q 175 191 179 174 Q 180 169 178 168 L 204 170 Q 205 174 202 176 Q 194 186 184 213" fill="#9f0000" /><path d="M 108 219 Q 103 213 101 177 L 108 176 Q 108 177 109 177 Q 116 200 115 218" fill="#bf0000" /><path d="M 132 217 Q 132 214 133 211 Q 139 179 135 171 L 147 170 Q 150 171 152 173 Q 154 175 152 178 Q 149 184 147 189 Q 143 208 139 217" fill="#df0000" /><path d="M 82 222 Q 94 220 108 219 L 115 218 Q 123 217 132 217 L 139 217 Q 152 215 168 214 L 184 213 Q 186 213 188 213 Q 204 211 215 208 Q 221 206 225 208 Q 236 213 243 220 Q 246 223 244 226 Q 242 228 236 228 Q 199 222 170 224 Q 75 229 47 240 Q 38 242 28 234 Q 23 230 24 227 Q 24 224 27 224 Q 46 225 71 223" fill="#ff0000" /></svg>