<svg xmlns="http://www.w3.org/2000/svg" xmlns:xlink="http://www.w3.org/1999/xlink" width="270" height="270"><path d="M 0 0 L 270 270 M 270 0 L 0 270 M 135 0 L 135 270 M 0 135 L 270 135" stroke="#CCCCCC" /><path d="M 138 68 Q 136 30 131 24 Q 129 21 131 20 Q 133 17 136 18 Q 142 19 150 23 Q 154 26 154 29 Q 152 34 152 35 L 151 41 Q 150 53 149 66" fill="#000000" /><path d="M 152 35 Q 157 33 162 32 Q 181 27 184 27 Q 192 28 193 31 Q 194 32 193 35 Q 192 35 189 36 Q 186 37 183 38 Q 160 44 151 41" fill="#110000" /><path d="M 128 77 Q 114 80 102 84 Q 97 85 94 85 L 92 76 Q 102 75 113 72 Q 127 70 138 68 L 149 66 Q 160 63 185 60 Q 205 56 211 60 Q 227 71 227 74 L 199 71 Q 199 69 195 67 Q 180 66 133 76" fill="#220000" /><path d="M 227 74 Q 228 76 219 78 Q 209 82 197 90 Q 193 93 191 92 Q 195 81 199 71" fill="#220000" /><path d="M 94 85 Q 93 88 93 92 Q 91 130 86 155 Q 83 176 76 191 Q 68 206 56 219 Q 35 240 24 240 Q 21 240 22 239 Q 22 237 27 233 Q 53 209 61 191 Q 73 165 75 143 Q 80 90 72 76 Q 68 70 73 69 Q 77 69 92 76" fill="#330000" /><path d="M 124 107 L 118 109 Q 110 110 104 106 Q 99 103 105 102 Q 110 101 130 97 L 139 94 Q 140 94 140 94 Q 143 93 147 92 Q 162 87 170 89 Q 174 91 174 93 Q 173 96 171 96 Q 146 101 139 103 L 130 105" fill="#440000" /><path d="M 130 97 Q 130 85 128 80 Q 127 78 128 77 L 133 76 Q 137 77 139 80 Q 142 82 141 85 Q 140 90 139 94 L 139 103 Q 139 108 140 111 L 136 121 Q 131 117 130 105" fill="#550000" /><path d="M 140 111 Q 142 113 145 115 Q 154 117 165 115 L 187 112 Q 189 116 185 118 Q 180 123 174 124 Q 149 131 136 121" fill="#550000" /><path d="M 165 115 Q 171 113 179 98 Q 180 96 181 96 Q 182 97 182 100 Q 185 109 187 112" fill="#550000" /><path d="M 125 185 Q 125 187 124 190 Q 123 193 119 189 Q 115 185 114 178 Q 108 157 101 144 Q 99 141 100 139 Q 101 138 104 138 Q 111 139 114 140 L 117 148 Q 119 155 124 176 Q 124 177 124 179" fill="#660000" /><path d="M 123 139 L 135 136 Q 152 133 165 130 Q 176 128 183 126 Q 187 125 191 128 Q 201 133 204 137 L 183 138 Q 179 136 172 137 Q 160 138 151 140 L 142 142 Q 127 144 117 148 L 114 140" fill="#770000" /><path d="M 204 137 Q 207 141 204 143 Q 198 149 196 156 Q 189 179 186 184 Q 183 188 180 186 Q 177 184 173 179 L 174 173 Q 179 170 184 143 Q 185 140 183 138" fill="#770000" /><path d="M 144 163 L 130 164 Q 126 162 129 161 Q 136 158 144 157 L 157 153 Q 162 151 165 152 Q 170 152 172 155 Q 173 157 169 158 Q 162 159 156 161" fill="#880000" /><path d="M 145 175 Q 144 168 144 163 L 144 157 Q 143 143 142 142 L 151 140 Q 154 142 157 145 Q 158 147 157 151 Q 157 152 157 153 L 156 161 Q 155 167 155 173" fill="#990000" /><path d="M 173 179 Q 153 181 127 185 Q 126 185 125 185 L 124 179 Q 134 177 145 175 L 155 173 Q 171 170 174 173" fill="#aa0000" /><path d="M 110 211 Q 111 217 114 232 Q 114 235 115 237 L 105 238 Q 104 235 104 233 Q 99 217 94 206 Q 92 203 93 201 Q 94 200 96 201 Q 103 202 106 203" fill="#bb0000" /><path d="M 151 197 L 189 190 Q 192 189 196 191 Q 210 199 211 203 L 188 200 Q 185 198 176 199 Q 169 200 164 201 L 154 203 Q 143 204 132 206 L 126 208 Q 112 210 110 211 L 106 203" fill="#cc0000" /><path d="M 182 232 Q 186 216 189 205 Q 189 201 188 200 L 211 203 Q 212 206 210 208 Q 204 214 198 231" fill="#cc0000" /><path d="M 132 236 Q 129 233 129 228 Q 127 213 126 208 L 132 206 Q 133 208 133 210 Q 133 212 134 213 Q 139 228 138 236" fill="#dd0000" /><path d="M 153 235 Q 158 210 155 203 Q 155 203 154 203 L 164 201 Q 167 203 169 205 Q 171 207 169 210 Q 167 212 159 234" fill="#ee0000" /><path d="M 115 237 Q 124 237 132 236 L 138 236 Q 145 235 153 235 L 159 234 Q 171 233 182 232 L 198 231 Q 207 229 216 228 Q 230 224 244 236 Q 248 240 247 243 Q 245 245 240 244 Q 143 238 86 251 Q 82 252 77 250 Q 73 248 70 245 Q 66 240 71 240 Q 89 238 105 238" fill="#ff0000" /></svg>