<svg xmlns="http://www.w3.org/2000/svg" xmlns:xlink="http://www.w3.org/1999/xlink" width="270" height="270"><path d="M 0 0 L 270 270 M 270 0 L 0 270 M 135 0 L 135 270 M 0 135 L 270 135" stroke="#CCCCCC" /><path d="M 123 78 Q 102 81 84 84 Q 76 86 66 77 Q 60 72 68 72 Q 93 70 124 67 L 139 65 Q 140 64 175 58 Q 192 53 203 59 Q 209 63 209 66 Q 206 70 203 69 Q 163 72 137 76" fill="#000000" /><path d="M 120 108 Q 122 92 123 78 L 124 67 Q 126 54 126 42 Q 126 38 122 30 Q 120 27 123 25 Q 125 23 129 24 Q 135 26 143 32 Q 148 36 147 39 Q 140 53 139 65 L 137 76 Q 134 91 131 106" fill="#240000" /><path d="M 90 226 Q 89 141 88 131 Q 87 121 82 110 Q 81 107 83 106 Q 85 104 89 105 Q 93 107 97 110 L 103 120 Q 103 122 103 141 L 103 148 Q 103 157 103 168 L 103 176 Q 103 185 103 195 L 103 203 Q 103 213 103 225" fill="#480000" /><path d="M 162 110 Q 161 109 155 109 Q 154 109 103 120 L 97 110 Q 109 109 120 108 L 131 106 Q 147 101 159 97 Q 165 95 169 97 Q 183 105 185 109" fill="#6d0000" /><path d="M 162 220 Q 165 115 162 110 L 185 109 Q 189 113 185 118 Q 178 126 176 219" fill="#6d0000" /><path d="M 103 141 Q 134 131 141 132 Q 148 133 150 136 Q 152 140 147 141 Q 129 143 106 148 Q 104 148 103 148" fill="#910000" /><path d="M 103 168 Q 133 159 139 160 Q 146 162 148 165 Q 150 168 145 169 Q 127 172 103 176" fill="#b60000" /><path d="M 103 195 Q 136 187 142 187 Q 149 189 151 192 Q 153 196 147 197 Q 128 199 103 203" fill="#da0000" /><path d="M 100 236 L 76 240 Q 56 243 52 244 Q 47 246 45 245 Q 36 242 32 239 Q 27 235 28 231 Q 28 228 32 228 Q 59 229 77 227 Q 82 226 90 226 L 103 225 Q 113 224 125 223 Q 138 221 162 220 L 176 219 Q 218 213 219 213 Q 231 219 238 227 Q 242 230 239 233 Q 237 236 232 235 Q 195 230 159 232 Q 145 234 131 234" fill="#ff0000" /></svg>