<svg xmlns="http://www.w3.org/2000/svg" xmlns:xlink="http://www.w3.org/1999/xlink" width="270" height="270"><path d="M 0 0 L 270 270 M 270 0 L 0 270 M 135 0 L 135 270 M 0 135 L 270 135" stroke="#CCCCCC" /><path d="M 33 200 L 29 203 Q 26 207 24 203 Q 14 191 18 177 Q 26 144 23 87 Q 23 85 23 83 Q 22 82 18 61 Q 16 58 18 56 Q 21 55 24 56 Q 29 58 33 61 L 36 68 Q 36 70 36 73 Q 35 76 35 104 L 35 113 Q 34 124 34 139 L 34 147 Q 34 158 34 171 Q 34 178 34 184 L 33 192" fill="#CCCCCC"/><path d="M 33 61 Q 45 59 59 52 Q 64 50 70 52 Q 82 56 84 59 L 64 64 Q 62 61 54 64 Q 45 66 38 68 Q 36 68 36 68" fill="#CCCCCC"/><path d="M 65 178 Q 68 144 68 82 Q 68 68 64 64 L 84 59 Q 86 61 84 66 Q 76 79 82 172 Q 83 185 79 195 Q 75 204 72 205 Q 70 206 66 199" fill="#CCCCCC"/><path d="M 64 182 Q 65 181 65 178 L 66 199 Q 62 195 60 190" fill="#CCCCCC"/><path d="M 35 104 Q 44 101 49 102 Q 56 103 59 106 Q 61 109 56 110 Q 47 112 35 113" fill="#CCCCCC"/><path d="M 34 139 Q 42 134 52 136 Q 58 137 60 140 Q 62 143 57 144 Q 47 145 34 147" fill="#CCCCCC"/><path d="M 34 184 Q 57 178 61 180 Q 63 181 64 182 L 60 190 Q 44 190 36 192 Q 34 192 33 192" fill="#CCCCCC"/><path d="M 172 37 L 172 33 Q 173 30 175 29 Q 178 29 182 31 Q 195 36 201 40 Q 204 43 203 46 Q 202 48 197 48 Q 180 52 167 59 Q 126 75 112 75 Q 110 74 112 72 Q 155 52 169 40" fill="#CCCCCC"/><path d="M 132 86 L 131 83 Q 130 80 132 79 Q 133 79 137 79 Q 157 81 160 88 Q 163 95 162 99 Q 161 102 158 102 Q 154 103 151 100 Q 145 95 139 91" fill="#CCCCCC"/><path d="M 174 124 Q 177 119 171 120 Q 148 126 132 134 Q 123 137 116 135 Q 109 132 107 129 Q 106 125 111 125 Q 129 123 166 112 Q 182 105 188 108 Q 203 114 205 118 Q 208 121 202 125" fill="#CCCCCC"/><path d="M 168 142 L 174 124 L 202 125 Q 191 131 183 139 Q 157 165 124 183 Q 122 183 121 184 L 114 182" fill="#CCCCCC"/><path d="M 121 184 Q 122 185 124 186 Q 169 205 186 211 Q 193 214 242 218 Q 255 219 255 221 Q 255 224 249 225 Q 234 230 216 236 Q 203 240 194 235 Q 162 215 135 200 Q 119 190 109 192 Q 95 194 90 189 Q 86 186 87 183 Q 88 181 92 182 Q 98 184 104 182 Q 109 181 114 182" fill="#CCCCCC"/><path d="M 33 200 L 29 203 Q 26 207 24 203 Q 14 191 18 177 Q 26 144 23 87 Q 23 85 23 83 Q 22 82 18 61 Q 16 58 18 56 Q 21 55 24 56 Q 29 58 33 61 L 36 68 Q 36 70 36 73 Q 35 76 35 104 L 35 113 Q 34 124 34 139 L 34 147 Q 34 158 34 171 Q 34 178 34 184 L 33 192" fill="#000000" /><path d="M 33 61 Q 45 59 59 52 Q 64 50 70 52 Q 82 56 84 59 L 64 64 Q 62 61 54 64 Q 45 66 38 68 Q 36 68 36 68" fill="#1f0000" /><path d="M 65 178 Q 68 144 68 82 Q 68 68 64 64 L 84 59 Q 86 61 84 66 Q 76 79 82 172 Q 83 185 79 195 Q 75 204 72 205 Q 70 206 66 199" fill="#1f0000" /><path d="M 64 182 Q 65 181 65 178 L 66 199 Q 62 195 60 190" fill="#1f0000" /><path d="M 35 104 Q 44 101 49 102 Q 56 103 59 106 Q 61 109 56 110 Q 47 112 35 113" fill="#3f0000" /><path d="M 34 139 Q 42 134 52 136 Q 58 137 60 140 Q 62 143 57 144 Q 47 145 34 147" fill="#5f0000" /><path d="M 34 184 Q 57 178 61 180 Q 63 181 64 182 L 60 190 Q 44 190 36 192 Q 34 192 33 192" fill="#7f0000" /><path d="M 172 37 L 172 33 Q 173 30 175 29 Q 178 29 182 31 Q 195 36 201 40 Q 204 43 203 46 Q 202 48 197 48 Q 180 52 167 59 Q 126 75 112 75 Q 110 74 112 72 Q 155 52 169 40" fill="#9f0000" /><path d="M 132 86 L 131 83 Q 130 80 132 79 Q 133 79 137 79 Q 157 81 160 88 Q 163 95 162 99 Q 161 102 158 102 Q 154 103 151 100 Q 145 95 139 91" fill="#bf0000" /><path d="M 174 124 Q 177 119 171 120 Q 148 126 132 134 Q 123 137 116 135 Q 109 132 107 129 Q 106 125 111 125 Q 129 123 166 112 Q 182 105 188 108 Q 203 114 205 118 Q 208 121 202 125" fill="#df0000" /><path d="M 168 142 L 174 124 L 202 125 Q 191 131 183 139 Q 157 165 124 183 Q 122 183 121 184 L 114 182" fill="#df0000" /><path d="M 121 184 Q 122 185 124 186 Q 169 205 186 211 Q 193 214 242 218 Q 255 219 255 221 Q 255 224 249 225 Q 234 230 216 236 Q 203 240 194 235 Q 162 215 135 200 Q 119 190 109 192 Q 95 194 90 189 Q 86 186 87 183 Q 88 181 92 182 Q 98 184 104 182 Q 109 181 114 182" fill="#ff0000" /></svg>