<svg xmlns="http://www.w3.org/2000/svg" xmlns:xlink="http://www.w3.org/1999/xlink" width="270" height="270"><path d="M 0 0 L 270 270 M 270 0 L 0 270 M 135 0 L 135 270 M 0 135 L 270 135" stroke="#CCCCCC" /><path d="M 81 72 Q 80 27 74 20 Q 72 16 74 14 Q 76 12 79 13 Q 85 14 93 18 Q 98 22 98 24 Q 97 26 96 29 Q 95 34 94 39 L 94 46 Q 92 57 91 70" fill="#000000" /><path d="M 94 39 Q 98 39 102 38 Q 118 33 121 33 Q 128 33 130 36 Q 131 38 129 40 L 129 40 Q 104 47 94 46" fill="#150000" /><path d="M 80 82 L 80 82 Q 63 86 40 93 Q 30 97 20 90 Q 16 87 17 84 Q 18 82 21 82 Q 40 80 81 72 L 91 70 Q 102 67 116 64 Q 122 63 128 66 Q 132 68 132 71 Q 132 73 128 74 Q 106 76 90 80 L 82 82" fill="#2a0000" /><path d="M 90 80 Q 91 81 94 83 Q 97 88 96 96 Q 95 124 92 130 Q 90 137 87 137 Q 85 138 82 135 L 83 114 Q 84 113 84 112 Q 84 89 82 82" fill="#3f0000" /><path d="M 82 135 Q 78 128 66 116 Q 64 114 64 113 Q 64 112 67 112 Q 72 114 78 115 Q 82 116 83 114" fill="#3f0000" /><path d="M 49 99 L 51 99 Q 52 99 54 101 Q 55 107 54 114 Q 52 130 40 139 Q 36 141 34 137 Q 30 129 35 122 Q 43 112 48 101" fill="#550000" /><path d="M 103 95 L 103 93 Q 104 90 106 91 Q 122 96 126 105 Q 127 109 127 112 Q 125 116 122 116 Q 116 115 104 97" fill="#6a0000" /><path d="M 184 42 Q 182 42 163 49 Q 149 54 143 50 Q 138 47 138 44 Q 139 43 143 43 Q 156 41 168 39 Q 179 35 185 33 Q 191 29 197 32 Q 204 34 209 37" fill="#7f0000" /><path d="M 171 103 L 166 106 Q 156 112 139 117 Q 133 119 132 119 Q 130 117 133 115 Q 156 103 168 89 L 174 80 Q 182 66 186 47 Q 186 42 184 42 L 209 37 Q 213 40 208 44 Q 201 51 198 61 Q 193 76 184 88 L 176 98" fill="#7f0000" /><path d="M 168 89 Q 152 71 139 64 Q 137 63 138 61 Q 140 59 143 59 Q 150 60 155 64 Q 165 73 174 80 L 184 88 Q 204 100 217 103 Q 246 110 250 112 Q 253 113 251 115 Q 248 117 245 118 Q 236 120 223 124 Q 213 127 206 123 Q 187 109 176 98" fill="#940000" /><path d="M 92 238 L 90 241 Q 87 244 85 241 Q 76 230 81 209 Q 86 163 80 151 Q 79 149 79 147 Q 78 144 79 143 Q 82 142 85 143 Q 90 145 92 147 L 96 156 Q 96 157 96 159 Q 96 160 95 174 L 95 180 Q 95 188 94 199 L 94 205 Q 94 211 94 218 Q 94 223 94 227 L 93 234" fill="#aa0000" /><path d="M 92 147 Q 129 142 151 132 Q 156 129 161 132 Q 175 139 180 144 L 157 147 Q 153 144 146 146 Q 100 156 96 156" fill="#bf0000" /><path d="M 159 222 Q 160 218 160 203 Q 162 151 157 147 L 180 144 Q 183 147 180 150 Q 176 156 176 165 Q 178 203 180 223 Q 180 236 176 247 Q 171 257 166 257 Q 163 257 160 252" fill="#bf0000" /><path d="M 154 226 Q 158 226 159 222 L 160 252 Q 154 242 146 231" fill="#bf0000" /><path d="M 95 174 Q 129 164 135 164 Q 141 166 144 169 Q 146 172 140 173 Q 123 176 100 180 Q 97 180 95 180" fill="#d40000" /><path d="M 94 199 Q 128 189 135 189 Q 141 191 144 194 Q 146 197 140 198 Q 123 201 99 205 Q 96 205 94 205" fill="#e90000" /><path d="M 94 227 Q 136 219 142 220 Q 143 220 143 220 Q 142 220 142 220 Q 144 220 145 220 Q 152 222 154 226 L 146 231 Q 125 232 97 234 Q 95 235 93 234" fill="#ff0000" /></svg>