<svg xmlns="http://www.w3.org/2000/svg" xmlns:xlink="http://www.w3.org/1999/xlink" width="270" height="270"><path d="M 0 0 L 270 270 M 270 0 L 0 270 M 135 0 L 135 270 M 0 135 L 270 135" stroke="#CCCCCC" /><path d="M 41 200 L 38 204 Q 36 207 33 204 Q 24 192 28 179 Q 38 144 36 86 Q 36 85 36 84 Q 35 83 30 59 Q 29 56 31 55 Q 34 54 36 55 Q 44 58 46 62 L 48 68 Q 46 71 45 103 L 45 111 Q 44 123 44 140 L 44 147 Q 42 187 42 189 L 41 196" fill="#CCCCCC"/><path d="M 46 62 Q 56 59 67 54 Q 71 51 77 53 Q 89 57 91 59 L 72 64 Q 70 62 65 64 Q 51 68 48 68" fill="#CCCCCC"/><path d="M 73 181 Q 76 147 76 83 Q 76 68 72 64 L 91 59 Q 93 62 90 66 Q 83 81 89 173 Q 91 187 87 197 Q 83 206 79 207 Q 78 208 74 202" fill="#CCCCCC"/><path d="M 71 187 Q 73 186 73 181 L 74 202 Q 70 197 68 193" fill="#CCCCCC"/><path d="M 45 103 Q 55 99 60 99 Q 66 99 69 102 Q 71 104 66 106 Q 58 108 45 111" fill="#CCCCCC"/><path d="M 44 140 Q 52 135 62 135 Q 68 136 70 139 Q 72 142 67 143 Q 58 145 45 147 Q 44 147 44 147" fill="#CCCCCC"/><path d="M 42 189 Q 56 183 65 184 Q 69 184 71 187 L 68 193 Q 56 193 41 196" fill="#CCCCCC"/><path d="M 168 27 L 168 23 Q 168 21 170 20 Q 174 19 177 21 Q 188 25 193 29 Q 196 32 195 34 Q 194 36 190 36 Q 173 40 167 44 Q 137 57 124 57 Q 123 55 124 54 Q 154 39 165 29" fill="#CCCCCC"/><path d="M 117 72 L 116 70 Q 117 67 118 66 Q 119 66 122 67 Q 139 73 140 79 Q 141 85 140 88 Q 138 91 136 91 Q 133 91 130 88 Q 126 82 122 77" fill="#CCCCCC"/><path d="M 148 59 L 149 57 Q 150 54 152 55 Q 155 57 162 62 Q 167 65 169 69 Q 170 74 169 76 Q 167 80 164 79 Q 159 78 150 61" fill="#CCCCCC"/><path d="M 200 52 L 199 47 Q 199 45 201 44 Q 204 44 209 46 Q 215 50 218 53 Q 220 57 215 59 Q 211 61 206 65 Q 193 75 180 83 Q 177 84 178 80 Q 194 61 197 55" fill="#CCCCCC"/><path d="M 115 111 L 114 111 Q 112 115 108 124 Q 106 130 105 131 Q 103 135 101 135 Q 100 137 98 134 Q 96 130 96 126 Q 96 121 98 118 Q 105 103 105 97 Q 105 94 106 94 Q 108 93 109 94 Q 111 96 115 103 L 116 110" fill="#CCCCCC"/><path d="M 115 103 Q 125 100 136 99 Q 185 88 193 88 Q 220 81 226 87 L 211 94 Q 207 93 198 95 Q 156 100 132 109 Q 120 112 116 110" fill="#CCCCCC"/><path d="M 226 87 Q 242 99 242 101 Q 242 103 234 105 Q 224 107 212 115 Q 207 118 206 117 Q 204 116 206 113 Q 214 97 214 96 Q 214 94 211 94" fill="#CCCCCC"/><path d="M 108 167 Q 101 174 97 175 Q 92 177 95 173 Q 118 139 117 125 Q 117 122 119 121 Q 121 120 127 120 Q 132 120 134 123 Q 134 123 134 124 Q 130 133 125 142 L 123 147 Q 121 149 112 163" fill="#CCCCCC"/><path d="M 125 142 Q 135 140 139 138 Q 144 135 146 136 Q 157 140 158 143 Q 159 145 157 147 L 139 147 Q 138 146 130 147 Q 125 148 123 147" fill="#CCCCCC"/><path d="M 157 147 Q 152 151 144 172 Q 114 231 85 235 Q 81 236 86 233 Q 107 213 120 194 Q 133 175 136 162 Q 140 150 139 147" fill="#CCCCCC"/><path d="M 122 167 L 124 171 Q 125 174 125 177 Q 124 180 122 179 Q 118 178 108 167 L 112 163" fill="#CCCCCC"/><path d="M 188 145 Q 174 148 167 144 Q 162 141 169 140 Q 179 138 188 136 L 203 132 Q 210 127 218 129 Q 224 130 225 133 Q 226 134 225 136 Q 224 137 216 139 Q 208 140 202 142" fill="#CCCCCC"/><path d="M 157 197 Q 154 200 151 198 Q 147 194 147 192 Q 147 188 149 187 Q 156 182 157 177 Q 161 164 159 158 Q 157 155 160 153 Q 163 152 166 155 Q 173 160 174 162 Q 176 165 173 167 Q 170 170 165 181" fill="#CCCCCC"/><path d="M 167 192 L 157 197 L 165 181 Q 164 186 169 184 Q 178 181 188 179 L 201 176 Q 203 176 214 174 Q 225 168 240 177 Q 245 180 244 182 Q 242 185 237 185 Q 212 184 201 187 L 188 188" fill="#CCCCCC"/><path d="M 188 179 Q 188 160 188 145 L 188 136 Q 188 132 184 121 Q 182 119 184 117 Q 188 115 191 116 Q 194 117 201 122 Q 205 124 204 128 Q 203 129 203 132 L 202 142 Q 201 159 201 176 L 201 187 Q 201 226 200 234 Q 199 247 195 249 Q 193 250 192 248 Q 192 248 192 247 Q 188 242 188 188" fill="#CCCCCC"/><path d="M 41 200 L 38 204 Q 36 207 33 204 Q 24 192 28 179 Q 38 144 36 86 Q 36 85 36 84 Q 35 83 30 59 Q 29 56 31 55 Q 34 54 36 55 Q 44 58 46 62 L 48 68 Q 46 71 45 103 L 45 111 Q 44 123 44 140 L 44 147 Q 42 187 42 189 L 41 196" fill="#000000" /><path d="M 46 62 Q 56 59 67 54 Q 71 51 77 53 Q 89 57 91 59 L 72 64 Q 70 62 65 64 Q 51 68 48 68" fill="#0f0000" /><path d="M 73 181 Q 76 147 76 83 Q 76 68 72 64 L 91 59 Q 93 62 90 66 Q 83 81 89 173 Q 91 187 87 197 Q 83 206 79 207 Q 78 208 74 202" fill="#0f0000" /><path d="M 71 187 Q 73 186 73 181 L 74 202 Q 70 197 68 193" fill="#0f0000" /><path d="M 45 103 Q 55 99 60 99 Q 66 99 69 102 Q 71 104 66 106 Q 58 108 45 111" fill="#1f0000" /><path d="M 44 140 Q 52 135 62 135 Q 68 136 70 139 Q 72 142 67 143 Q 58 145 45 147 Q 44 147 44 147" fill="#2f0000" /><path d="M 42 189 Q 56 183 65 184 Q 69 184 71 187 L 68 193 Q 56 193 41 196" fill="#3f0000" /><path d="M 168 27 L 168 23 Q 168 21 170 20 Q 174 19 177 21 Q 188 25 193 29 Q 196 32 195 34 Q 194 36 190 36 Q 173 40 167 44 Q 137 57 124 57 Q 123 55 124 54 Q 154 39 165 29" fill="#4f0000" /><path d="M 117 72 L 116 70 Q 117 67 118 66 Q 119 66 122 67 Q 139 73 140 79 Q 141 85 140 88 Q 138 91 136 91 Q 133 91 130 88 Q 126 82 122 77" fill="#5f0000" /><path d="M 148 59 L 149 57 Q 150 54 152 55 Q 155 57 162 62 Q 167 65 169 69 Q 170 74 169 76 Q 167 80 164 79 Q 159 78 150 61" fill="#6f0000" /><path d="M 200 52 L 199 47 Q 199 45 201 44 Q 204 44 209 46 Q 215 50 218 53 Q 220 57 215 59 Q 211 61 206 65 Q 193 75 180 83 Q 177 84 178 80 Q 194 61 197 55" fill="#7f0000" /><path d="M 115 111 L 114 111 Q 112 115 108 124 Q 106 130 105 131 Q 103 135 101 135 Q 100 137 98 134 Q 96 130 96 126 Q 96 121 98 118 Q 105 103 105 97 Q 105 94 106 94 Q 108 93 109 94 Q 111 96 115 103 L 116 110" fill="#8f0000" /><path d="M 115 103 Q 125 100 136 99 Q 185 88 193 88 Q 220 81 226 87 L 211 94 Q 207 93 198 95 Q 156 100 132 109 Q 120 112 116 110" fill="#9f0000" /><path d="M 226 87 Q 242 99 242 101 Q 242 103 234 105 Q 224 107 212 115 Q 207 118 206 117 Q 204 116 206 113 Q 214 97 214 96 Q 214 94 211 94" fill="#9f0000" /><path d="M 108 167 Q 101 174 97 175 Q 92 177 95 173 Q 118 139 117 125 Q 117 122 119 121 Q 121 120 127 120 Q 132 120 134 123 Q 134 123 134 124 Q 130 133 125 142 L 123 147 Q 121 149 112 163" fill="#af0000" /><path d="M 125 142 Q 135 140 139 138 Q 144 135 146 136 Q 157 140 158 143 Q 159 145 157 147 L 139 147 Q 138 146 130 147 Q 125 148 123 147" fill="#bf0000" /><path d="M 157 147 Q 152 151 144 172 Q 114 231 85 235 Q 81 236 86 233 Q 107 213 120 194 Q 133 175 136 162 Q 140 150 139 147" fill="#bf0000" /><path d="M 122 167 L 124 171 Q 125 174 125 177 Q 124 180 122 179 Q 118 178 108 167 L 112 163" fill="#cf0000" /><path d="M 188 145 Q 174 148 167 144 Q 162 141 169 140 Q 179 138 188 136 L 203 132 Q 210 127 218 129 Q 224 130 225 133 Q 226 134 225 136 Q 224 137 216 139 Q 208 140 202 142" fill="#df0000" /><path d="M 157 197 Q 154 200 151 198 Q 147 194 147 192 Q 147 188 149 187 Q 156 182 157 177 Q 161 164 159 158 Q 157 155 160 153 Q 163 152 166 155 Q 173 160 174 162 Q 176 165 173 167 Q 170 170 165 181" fill="#ef0000" /><path d="M 167 192 L 157 197 L 165 181 Q 164 186 169 184 Q 178 181 188 179 L 201 176 Q 203 176 214 174 Q 225 168 240 177 Q 245 180 244 182 Q 242 185 237 185 Q 212 184 201 187 L 188 188" fill="#ef0000" /><path d="M 188 179 Q 188 160 188 145 L 188 136 Q 188 132 184 121 Q 182 119 184 117 Q 188 115 191 116 Q 194 117 201 122 Q 205 124 204 128 Q 203 129 203 132 L 202 142 Q 201 159 201 176 L 201 187 Q 201 226 200 234 Q 199 247 195 249 Q 193 250 192 248 Q 192 248 192 247 Q 188 242 188 188" fill="#ff0000" /></svg>