<svg xmlns="http://www.w3.org/2000/svg" xmlns:xlink="http://www.w3.org/1999/xlink" width="270" height="270"><path d="M 0 0 L 270 270 M 270 0 L 0 270 M 135 0 L 135 270 M 0 135 L 270 135" stroke="#CCCCCC" /><path d="M 64 74 Q 53 75 45 71 Q 38 66 47 65 Q 57 63 80 58 Q 104 49 111 50 Q 119 52 121 55 Q 122 57 120 59 Q 119 61 81 70" fill="#000000" /><path d="M 52 140 Q 51 141 51 142 Q 27 175 12 179 Q 9 179 11 178 Q 36 147 49 126 L 54 115 Q 65 86 64 74 L 81 70 Q 84 72 85 74 Q 85 75 81 84 Q 72 103 66 116" fill="#150000" /><path d="M 68 177 L 66 182 Q 64 186 60 180 Q 56 174 56 166 Q 54 151 52 140 L 49 126 Q 48 122 47 119 Q 45 115 46 114 Q 48 112 51 113 Q 53 114 54 115 L 64 125 Q 64 132 66 156 L 67 164" fill="#2a0000" /><path d="M 94 120 Q 93 118 87 119 Q 79 121 71 123 Q 66 124 64 125 L 54 115 L 66 116 Q 84 111 91 105 Q 94 104 97 104 Q 98 104 114 112" fill="#3f0000" /><path d="M 89 148 Q 92 138 94 130 Q 96 122 94 120 L 114 112 Q 120 116 114 123 Q 107 129 103 151" fill="#3f0000" /><path d="M 66 156 Q 75 153 86 149 Q 88 149 89 148 L 103 151 Q 107 153 107 154 Q 107 157 104 157 Q 82 161 72 164 Q 70 165 67 164" fill="#550000" /><path d="M 145 63 Q 145 63 145 63 Q 167 23 165 16 Q 164 13 167 12 Q 170 11 176 13 Q 184 16 188 19 Q 191 23 186 27 Q 181 30 177 35 Q 158 55 151 62" fill="#6a0000" /><path d="M 148 123 Q 148 128 145 128 Q 136 123 134 108 Q 131 78 122 66 Q 120 64 122 62 Q 122 61 124 62 Q 129 62 133 65 L 141 73 Q 142 82 143 92 Q 145 100 145 106 Q 147 111 148 115" fill="#7f0000" /><path d="M 133 65 Q 138 64 145 63 L 151 62 Q 155 61 159 60 Q 195 52 200 52 Q 219 47 223 50 Q 234 57 238 61 L 213 61 Q 207 57 176 64 L 166 66 Q 152 69 141 73" fill="#940000" /><path d="M 238 61 Q 240 65 237 68 Q 231 75 228 83 Q 218 118 214 124 Q 210 130 207 127 Q 203 125 198 116 L 200 111 Q 203 110 204 107 Q 208 102 215 69 Q 216 64 213 61" fill="#940000" /><path d="M 165 94 Q 154 95 152 95 Q 148 91 152 91 Q 158 88 166 86 L 178 83 Q 187 80 192 80 Q 198 81 200 84 Q 202 87 197 88 Q 187 90 177 92" fill="#aa0000" /><path d="M 172 110 Q 178 108 183 107 Q 193 104 200 111 L 198 116 Q 181 117 169 120 L 158 122 Q 154 122 151 123 Q 149 123 148 123 L 148 115 Q 154 113 161 112" fill="#bf0000" /><path d="M 175 101 L 172 110 L 169 120 Q 159 147 144 161 Q 143 162 143 163 L 134 164 Q 151 143 158 122 L 161 112 Q 162 111 162 109 Q 163 102 165 94 L 166 86 Q 169 73 167 68 Q 166 67 166 66 L 176 64 Q 180 66 181 69 Q 181 69 178 83 L 177 92" fill="#d40000" /><path d="M 161 167 L 126 177 Q 116 180 108 172 Q 104 168 110 167 Q 122 165 134 164 L 143 163 Q 161 160 177 157 Q 178 157 179 157 L 194 154 Q 213 151 226 148 Q 240 143 256 154 Q 260 158 259 161 Q 258 163 253 163 Q 213 163 194 166 L 179 167" fill="#e90000" /><path d="M 179 157 Q 179 138 174 130 Q 172 127 174 126 Q 179 123 182 125 Q 186 125 194 131 Q 198 133 197 138 Q 194 146 194 154 Q 194 154 194 154 L 194 166 Q 192 202 193 212 Q 192 252 185 258 Q 183 258 182 257 Q 181 255 181 254 Q 179 249 179 167" fill="#ff0000" /></svg>