<svg xmlns="http://www.w3.org/2000/svg" xmlns:xlink="http://www.w3.org/1999/xlink" width="270" height="270"><path d="M 0 0 L 270 270 M 270 0 L 0 270 M 135 0 L 135 270 M 0 135 L 270 135" stroke="#CCCCCC" /><path d="M 79 71 Q 66 72 59 69 Q 53 65 61 63 Q 62 62 90 56 Q 116 46 122 46 Q 130 48 132 50 Q 133 53 131 54 Q 130 55 90 68" fill="#CCCCCC"/><path d="M 66 142 Q 42 175 23 182 Q 21 182 22 181 Q 49 150 62 129 L 67 120 Q 68 116 70 113 Q 83 84 79 71 L 90 68 Q 99 70 100 75 Q 100 76 96 85 Q 86 108 78 123" fill="#CCCCCC"/><path d="M 82 178 L 80 182 Q 79 186 75 181 Q 71 175 70 167 Q 68 153 66 142 L 62 129 Q 61 126 60 124 Q 59 121 60 119 Q 61 118 64 119 Q 66 119 67 120 L 76 131 Q 77 139 80 161 L 81 169" fill="#CCCCCC"/><path d="M 107 125 Q 106 122 100 124 Q 90 127 80 130 Q 78 130 76 131 L 67 120 L 78 123 Q 82 122 97 116 Q 110 109 114 112 Q 121 115 126 118" fill="#CCCCCC"/><path d="M 104 153 Q 109 127 107 125 L 126 118 Q 132 121 126 128 Q 120 134 116 154" fill="#CCCCCC"/><path d="M 80 161 Q 90 158 102 154 Q 103 153 104 153 L 116 154 Q 122 158 122 160 Q 122 162 120 162 Q 96 166 86 169 Q 83 169 81 169" fill="#CCCCCC"/><path d="M 171 54 Q 155 57 145 50 Q 138 45 148 44 Q 173 42 203 35 Q 224 28 233 30 Q 241 32 242 35 Q 244 38 241 39 Q 239 41 181 52" fill="#CCCCCC"/><path d="M 162 87 Q 163 84 164 82 Q 174 60 171 55 L 171 54 L 181 52 Q 187 53 190 56 Q 193 59 189 62 Q 185 66 182 70 Q 179 73 176 77 Q 173 81 168 86" fill="#CCCCCC"/><path d="M 159 178 L 157 180 Q 155 183 152 180 Q 150 177 148 174 Q 146 169 149 147 Q 152 104 146 92 Q 145 90 145 88 Q 144 86 145 85 Q 148 83 150 85 Q 154 86 155 87 L 161 95 Q 161 105 161 115 L 160 121 Q 160 129 160 141 L 160 148 Q 160 164 160 167 L 159 175" fill="#CCCCCC"/><path d="M 155 87 Q 159 87 162 87 L 168 86 Q 196 81 209 76 Q 215 74 218 75 Q 230 80 237 86 L 213 88 Q 211 85 205 86 Q 169 92 161 95" fill="#CCCCCC"/><path d="M 217 161 Q 218 151 217 109 Q 217 93 213 88 L 237 86 Q 239 89 237 93 Q 232 101 232 109 Q 232 141 235 161 Q 236 166 232 172 Q 228 181 224 181 Q 222 181 218 174 Q 217 172 216 169" fill="#CCCCCC"/><path d="M 161 115 Q 192 106 197 107 Q 203 108 206 112 Q 208 114 202 115 Q 186 118 164 121 Q 161 122 160 121" fill="#CCCCCC"/><path d="M 160 141 Q 194 133 199 134 Q 205 135 208 139 Q 209 141 204 142 Q 187 144 163 148 Q 161 148 160 148" fill="#CCCCCC"/><path d="M 160 167 Q 210 160 214 160 Q 216 161 217 161 L 216 169 Q 193 171 161 175 Q 160 175 159 175" fill="#CCCCCC"/><path d="M 166 182 L 167 181 Q 170 181 177 184 Q 184 187 184 190 Q 184 193 182 195 Q 177 199 169 207 Q 133 240 113 240 Q 106 240 111 236 Q 160 204 164 185" fill="#CCCCCC"/><path d="M 203 196 L 203 193 Q 204 189 206 191 Q 244 210 246 224 Q 248 236 245 239 Q 243 241 241 241 Q 237 239 233 234 Q 218 213 205 199" fill="#CCCCCC"/><path d="M 79 71 Q 66 72 59 69 Q 53 65 61 63 Q 62 62 90 56 Q 116 46 122 46 Q 130 48 132 50 Q 133 53 131 54 Q 130 55 90 68" fill="#000000" /><path d="M 66 142 Q 42 175 23 182 Q 21 182 22 181 Q 49 150 62 129 L 67 120 Q 68 116 70 113 Q 83 84 79 71 L 90 68 Q 99 70 100 75 Q 100 76 96 85 Q 86 108 78 123" fill="#130000" /><path d="M 82 178 L 80 182 Q 79 186 75 181 Q 71 175 70 167 Q 68 153 66 142 L 62 129 Q 61 126 60 124 Q 59 121 60 119 Q 61 118 64 119 Q 66 119 67 120 L 76 131 Q 77 139 80 161 L 81 169" fill="#270000" /><path d="M 107 125 Q 106 122 100 124 Q 90 127 80 130 Q 78 130 76 131 L 67 120 L 78 123 Q 82 122 97 116 Q 110 109 114 112 Q 121 115 126 118" fill="#3a0000" /><path d="M 104 153 Q 109 127 107 125 L 126 118 Q 132 121 126 128 Q 120 134 116 154" fill="#3a0000" /><path d="M 80 161 Q 90 158 102 154 Q 103 153 104 153 L 116 154 Q 122 158 122 160 Q 122 162 120 162 Q 96 166 86 169 Q 83 169 81 169" fill="#4e0000" /><path d="M 171 54 Q 155 57 145 50 Q 138 45 148 44 Q 173 42 203 35 Q 224 28 233 30 Q 241 32 242 35 Q 244 38 241 39 Q 239 41 181 52" fill="#620000" /><path d="M 162 87 Q 163 84 164 82 Q 174 60 171 55 L 171 54 L 181 52 Q 187 53 190 56 Q 193 59 189 62 Q 185 66 182 70 Q 179 73 176 77 Q 173 81 168 86" fill="#750000" /><path d="M 159 178 L 157 180 Q 155 183 152 180 Q 150 177 148 174 Q 146 169 149 147 Q 152 104 146 92 Q 145 90 145 88 Q 144 86 145 85 Q 148 83 150 85 Q 154 86 155 87 L 161 95 Q 161 105 161 115 L 160 121 Q 160 129 160 141 L 160 148 Q 160 164 160 167 L 159 175" fill="#890000" /><path d="M 155 87 Q 159 87 162 87 L 168 86 Q 196 81 209 76 Q 215 74 218 75 Q 230 80 237 86 L 213 88 Q 211 85 205 86 Q 169 92 161 95" fill="#9c0000" /><path d="M 217 161 Q 218 151 217 109 Q 217 93 213 88 L 237 86 Q 239 89 237 93 Q 232 101 232 109 Q 232 141 235 161 Q 236 166 232 172 Q 228 181 224 181 Q 222 181 218 174 Q 217 172 216 169" fill="#9c0000" /><path d="M 161 115 Q 192 106 197 107 Q 203 108 206 112 Q 208 114 202 115 Q 186 118 164 121 Q 161 122 160 121" fill="#b00000" /><path d="M 160 141 Q 194 133 199 134 Q 205 135 208 139 Q 209 141 204 142 Q 187 144 163 148 Q 161 148 160 148" fill="#c40000" /><path d="M 160 167 Q 210 160 214 160 Q 216 161 217 161 L 216 169 Q 193 171 161 175 Q 160 175 159 175" fill="#d70000" /><path d="M 166 182 L 167 181 Q 170 181 177 184 Q 184 187 184 190 Q 184 193 182 195 Q 177 199 169 207 Q 133 240 113 240 Q 106 240 111 236 Q 160 204 164 185" fill="#eb0000" /><path d="M 203 196 L 203 193 Q 204 189 206 191 Q 244 210 246 224 Q 248 236 245 239 Q 243 241 241 241 Q 237 239 233 234 Q 218 213 205 199" fill="#ff0000" /></svg>