<svg xmlns="http://www.w3.org/2000/svg" xmlns:xlink="http://www.w3.org/1999/xlink" width="270" height="270"><path d="M 0 0 L 270 270 M 270 0 L 0 270 M 135 0 L 135 270 M 0 135 L 270 135" stroke="#CCCCCC" /><path d="M 69 60 Q 65 61 62 62 Q 40 69 34 69 Q 32 68 34 66 Q 88 41 88 30 Q 88 28 90 27 Q 93 27 97 28 Q 108 32 114 37 Q 117 40 116 42 Q 115 44 111 45 Q 97 47 77 57" fill="#000000" /><path d="M 67 109 Q 56 112 43 117 Q 30 121 20 115 Q 16 112 17 109 Q 18 107 21 107 Q 35 105 72 97 L 84 94 Q 104 88 112 91 Q 116 93 116 97 Q 116 99 112 99 Q 96 102 83 105" fill="#130000" /><path d="M 82 173 L 82 217 Q 83 225 80 234 Q 78 237 75 237 Q 73 235 70 231 Q 61 217 64 206 Q 68 190 71 137 Q 71 131 71 127 L 72 97 Q 73 68 69 60 L 77 57 Q 87 63 86 68 Q 85 77 84 94 L 83 105 Q 83 116 83 127 L 83 135" fill="#270000" /><path d="M 71 127 Q 59 150 45 164 Q 16 193 12 192 Q 9 192 10 189 Q 53 141 67 109 L 72 97" fill="#3a0000" /><path d="M 83 127 Q 90 128 97 129 Q 104 131 106 135 Q 109 141 109 144 Q 108 147 106 147 Q 103 148 100 146 Q 86 136 83 135" fill="#4e0000" /><path d="M 171 29 L 171 25 Q 171 22 172 21 Q 182 20 197 29 Q 201 32 200 35 Q 199 37 195 37 Q 175 43 171 47 Q 136 64 126 64 Q 125 63 126 61 Q 157 43 168 32" fill="#620000" /><path d="M 122 78 L 122 76 Q 122 73 123 73 Q 124 72 127 74 Q 143 81 144 87 Q 144 93 143 96 Q 142 98 139 98 Q 137 97 126 83" fill="#750000" /><path d="M 157 64 L 157 62 Q 157 59 159 59 Q 159 59 159 59 Q 166 58 175 66 Q 179 69 179 74 Q 179 78 178 80 Q 176 83 172 82 Q 167 79 160 68" fill="#890000" /><path d="M 211 58 L 210 55 Q 210 50 213 50 Q 219 50 224 55 Q 229 60 231 64 Q 232 67 227 68 Q 215 74 192 91 Q 190 92 188 92 Q 186 90 188 89 Q 202 73 208 63" fill="#9c0000" /><path d="M 137 228 L 127 235 Q 124 236 122 233 Q 118 228 118 221 Q 116 216 118 211 Q 123 203 125 189 L 126 178 Q 131 138 121 119 Q 120 116 123 115 Q 127 114 133 117 L 140 126 Q 140 127 140 128 Q 139 137 138 177 L 137 186" fill="#b00000" /><path d="M 162 120 Q 150 123 141 126 Q 140 126 140 126 L 133 117 Q 147 115 162 112 L 176 109 Q 189 105 195 102 Q 200 101 204 103 Q 215 109 218 112 L 197 115 Q 194 112 189 114 Q 181 115 174 117" fill="#c40000" /><path d="M 204 167 Q 203 146 201 128 Q 200 116 197 115 L 218 112 Q 220 115 217 120 Q 214 127 216 164 L 217 177 Q 218 194 220 215 Q 220 231 216 241 Q 213 248 211 248 Q 208 249 203 244 L 201 223 Q 205 220 204 178" fill="#c40000" /><path d="M 203 244 Q 196 236 184 225 Q 180 224 180 222 Q 180 220 184 221 Q 198 225 201 223" fill="#c40000" /><path d="M 163 153 Q 153 154 146 151 Q 140 148 148 146 Q 155 145 161 143 Q 162 143 163 143 L 173 138 Q 179 136 185 137 Q 192 138 193 140 Q 194 142 193 144 Q 192 145 187 146 Q 179 148 172 150" fill="#d70000" /><path d="M 162 173 Q 162 163 163 153 L 163 143 Q 162 131 162 120 L 162 112 Q 162 104 157 98 Q 155 95 157 93 Q 158 91 162 92 Q 167 93 174 97 Q 178 100 178 102 Q 177 105 176 109 L 174 117 Q 174 119 173 138 L 172 150 Q 172 161 171 172" fill="#eb0000" /><path d="M 189 169 L 204 167 L 216 164 Q 220 163 224 163 Q 242 158 256 168 Q 260 172 259 174 Q 257 177 252 177 Q 231 177 217 177 L 204 178 Q 170 179 137 186 L 125 189 Q 119 190 114 192 Q 110 193 105 191 Q 100 190 97 187 Q 92 182 98 182 Q 112 179 126 178 L 138 177 Q 150 174 162 173 L 171 172 Q 171 172 172 172" fill="#ff0000" /></svg>