<svg xmlns="http://www.w3.org/2000/svg" xmlns:xlink="http://www.w3.org/1999/xlink" width="270" height="270"><path d="M 0 0 L 270 270 M 270 0 L 0 270 M 135 0 L 135 270 M 0 135 L 270 135" stroke="#CCCCCC" /><path d="M 122 21 L 121 18 Q 121 14 122 13 Q 124 12 129 13 Q 148 16 150 22 Q 153 31 151 35 Q 150 39 147 39 Q 142 40 138 36 Q 134 31 130 27" fill="#CCCCCC"/><path d="M 78 63 Q 78 64 78 64 Q 76 70 73 81 Q 70 90 66 96 Q 63 103 57 97 L 57 97 Q 49 82 54 76 Q 68 61 66 51 Q 66 43 71 47 Q 74 49 78 55" fill="#CCCCCC"/><path d="M 123 56 L 111 59 L 105 61 Q 97 63 90 65 Q 84 66 78 63 L 78 55 Q 77 55 78 55 Q 92 54 107 51 Q 180 41 201 39 Q 216 36 222 43 L 205 49 Q 195 47 158 52 L 147 54" fill="#CCCCCC"/><path d="M 222 43 Q 239 59 240 61 Q 239 64 230 64 Q 219 64 204 70 Q 199 72 197 71 Q 195 69 198 66 Q 207 51 207 51 Q 207 49 205 49" fill="#CCCCCC"/><path d="M 111 59 Q 114 61 119 70 Q 120 73 118 75 Q 116 77 113 81 Q 90 109 74 109 Q 73 109 73 108 Q 73 107 75 106 Q 105 80 105 62 Q 105 61 105 61" fill="#CCCCCC"/><path d="M 158 52 Q 161 54 164 56 Q 167 59 165 64 Q 162 67 162 74 Q 162 78 164 79 L 161 89 Q 151 86 150 73 Q 150 56 147 54" fill="#CCCCCC"/><path d="M 164 79 Q 173 83 182 76 Q 186 73 190 74 Q 198 78 200 81 Q 202 83 200 86 Q 197 88 189 89 Q 173 92 161 89" fill="#CCCCCC"/><path d="M 99 105 L 99 103 Q 99 100 100 99 Q 102 98 116 105 Q 121 108 121 111 Q 122 117 120 120 Q 119 123 117 123 Q 113 122 105 110" fill="#CCCCCC"/><path d="M 148 97 L 147 93 Q 146 91 149 90 Q 151 89 157 91 Q 163 94 166 97 Q 169 101 164 103 Q 157 107 150 115 Q 146 118 139 122 Q 135 123 137 120 Q 145 104 146 102" fill="#CCCCCC"/><path d="M 123 139 Q 118 139 114 140 Q 96 143 88 137 Q 82 133 90 132 Q 118 131 144 125 Q 171 117 177 119 Q 184 121 185 123 Q 186 125 184 127 Q 182 129 168 131 Q 151 134 135 137" fill="#CCCCCC"/><path d="M 125 163 Q 116 164 107 166 Q 99 167 95 165 Q 90 161 94 160 Q 109 156 124 153 L 139 150 Q 158 145 166 146 Q 173 148 176 152 Q 178 155 171 156 Q 156 158 138 161" fill="#CCCCCC"/><path d="M 125 170 L 125 163 L 124 153 Q 123 139 123 139 L 135 137 Q 137 138 139 140 Q 140 142 139 150 L 138 161 Q 137 169 137 178 L 125 180" fill="#CCCCCC"/><path d="M 137 178 Q 154 175 167 172 Q 182 168 194 178 Q 198 181 197 184 Q 196 186 191 186 Q 122 186 86 196 Q 82 197 77 196 Q 73 195 70 192 Q 66 187 71 187 Q 100 183 125 180" fill="#CCCCCC"/><path d="M 44 200 L 46 199 Q 48 199 50 201 Q 53 207 53 217 Q 56 240 44 253 Q 38 257 35 252 Q 29 244 33 234 Q 39 219 43 202" fill="#CCCCCC"/><path d="M 85 211 L 85 208 Q 85 205 87 205 Q 90 205 93 207 Q 111 219 111 230 Q 110 234 107 236 Q 104 239 101 237 Q 95 232 87 216" fill="#CCCCCC"/><path d="M 136 211 L 136 208 Q 136 205 138 205 Q 138 205 139 205 Q 148 205 159 216 Q 163 220 163 226 Q 163 231 160 233 Q 157 236 154 235 Q 147 229 139 215" fill="#CCCCCC"/><path d="M 190 204 L 191 201 Q 191 197 194 199 Q 212 207 214 208 Q 232 217 234 228 Q 236 240 233 243 Q 231 246 228 246 Q 224 244 220 238 Q 205 220 193 207" fill="#CCCCCC"/><path d="M 122 21 L 121 18 Q 121 14 122 13 Q 124 12 129 13 Q 148 16 150 22 Q 153 31 151 35 Q 150 39 147 39 Q 142 40 138 36 Q 134 31 130 27" fill="#000000" /><path d="M 78 63 Q 78 64 78 64 Q 76 70 73 81 Q 70 90 66 96 Q 63 103 57 97 L 57 97 Q 49 82 54 76 Q 68 61 66 51 Q 66 43 71 47 Q 74 49 78 55" fill="#120000" /><path d="M 123 56 L 111 59 L 105 61 Q 97 63 90 65 Q 84 66 78 63 L 78 55 Q 77 55 78 55 Q 92 54 107 51 Q 180 41 201 39 Q 216 36 222 43 L 205 49 Q 195 47 158 52 L 147 54" fill="#240000" /><path d="M 222 43 Q 239 59 240 61 Q 239 64 230 64 Q 219 64 204 70 Q 199 72 197 71 Q 195 69 198 66 Q 207 51 207 51 Q 207 49 205 49" fill="#240000" /><path d="M 111 59 Q 114 61 119 70 Q 120 73 118 75 Q 116 77 113 81 Q 90 109 74 109 Q 73 109 73 108 Q 73 107 75 106 Q 105 80 105 62 Q 105 61 105 61" fill="#360000" /><path d="M 158 52 Q 161 54 164 56 Q 167 59 165 64 Q 162 67 162 74 Q 162 78 164 79 L 161 89 Q 151 86 150 73 Q 150 56 147 54" fill="#480000" /><path d="M 164 79 Q 173 83 182 76 Q 186 73 190 74 Q 198 78 200 81 Q 202 83 200 86 Q 197 88 189 89 Q 173 92 161 89" fill="#480000" /><path d="M 99 105 L 99 103 Q 99 100 100 99 Q 102 98 116 105 Q 121 108 121 111 Q 122 117 120 120 Q 119 123 117 123 Q 113 122 105 110" fill="#5b0000" /><path d="M 148 97 L 147 93 Q 146 91 149 90 Q 151 89 157 91 Q 163 94 166 97 Q 169 101 164 103 Q 157 107 150 115 Q 146 118 139 122 Q 135 123 137 120 Q 145 104 146 102" fill="#6d0000" /><path d="M 123 139 Q 118 139 114 140 Q 96 143 88 137 Q 82 133 90 132 Q 118 131 144 125 Q 171 117 177 119 Q 184 121 185 123 Q 186 125 184 127 Q 182 129 168 131 Q 151 134 135 137" fill="#7f0000" /><path d="M 125 163 Q 116 164 107 166 Q 99 167 95 165 Q 90 161 94 160 Q 109 156 124 153 L 139 150 Q 158 145 166 146 Q 173 148 176 152 Q 178 155 171 156 Q 156 158 138 161" fill="#910000" /><path d="M 125 170 L 125 163 L 124 153 Q 123 139 123 139 L 135 137 Q 137 138 139 140 Q 140 142 139 150 L 138 161 Q 137 169 137 178 L 125 180" fill="#a30000" /><path d="M 137 178 Q 154 175 167 172 Q 182 168 194 178 Q 198 181 197 184 Q 196 186 191 186 Q 122 186 86 196 Q 82 197 77 196 Q 73 195 70 192 Q 66 187 71 187 Q 100 183 125 180" fill="#b60000" /><path d="M 44 200 L 46 199 Q 48 199 50 201 Q 53 207 53 217 Q 56 240 44 253 Q 38 257 35 252 Q 29 244 33 234 Q 39 219 43 202" fill="#c80000" /><path d="M 85 211 L 85 208 Q 85 205 87 205 Q 90 205 93 207 Q 111 219 111 230 Q 110 234 107 236 Q 104 239 101 237 Q 95 232 87 216" fill="#da0000" /><path d="M 136 211 L 136 208 Q 136 205 138 205 Q 138 205 139 205 Q 148 205 159 216 Q 163 220 163 226 Q 163 231 160 233 Q 157 236 154 235 Q 147 229 139 215" fill="#ec0000" /><path d="M 190 204 L 191 201 Q 191 197 194 199 Q 212 207 214 208 Q 232 217 234 228 Q 236 240 233 243 Q 231 246 228 246 Q 224 244 220 238 Q 205 220 193 207" fill="#ff0000" /></svg>