<svg xmlns="http://www.w3.org/2000/svg" xmlns:xlink="http://www.w3.org/1999/xlink" width="270" height="270"><path d="M 0 0 L 270 270 M 270 0 L 0 270 M 135 0 L 135 270 M 0 135 L 270 135" stroke="#CCCCCC" /><path d="M 66 48 L 65 45 Q 65 41 66 40 Q 69 39 73 41 Q 94 47 96 55 Q 97 64 96 68 Q 94 72 91 71 Q 86 71 82 67 Q 78 61 73 55" fill="#000000" /><path d="M 59 102 L 74 97 Q 96 88 102 89 Q 110 90 112 93 Q 113 95 112 97 Q 110 98 103 101 Q 88 105 73 110 Q 56 116 45 111 Q 38 107 47 105" fill="#130000" /><path d="M 45 133 L 46 131 Q 46 128 48 128 Q 50 128 52 130 Q 68 143 68 150 Q 67 156 65 159 Q 63 161 60 160 Q 57 159 55 155 Q 52 147 49 140" fill="#270000" /><path d="M 78 171 L 78 171 Q 92 127 87 116 Q 85 113 88 112 Q 91 110 95 112 Q 103 116 106 119 Q 108 122 105 125 Q 100 134 98 141 Q 93 155 88 167 L 78 172" fill="#3a0000" /><path d="M 88 167 Q 102 162 104 162 Q 107 163 105 165 Q 104 167 99 170 Q 61 194 54 200 Q 48 204 43 203 Q 39 201 29 196 Q 25 194 25 191 Q 26 187 29 187 Q 43 185 46 184 Q 62 177 78 172" fill="#4e0000" /><path d="M 169 88 Q 169 62 166 39 Q 166 36 162 31 Q 160 28 162 26 Q 164 24 168 25 Q 174 25 182 30 Q 186 34 186 36 Q 185 38 184 41 Q 184 44 183 49 Q 181 67 179 86" fill="#620000" /><path d="M 137 111 Q 134 113 131 111 Q 127 109 124 105 Q 123 102 127 98 Q 131 94 132 85 Q 134 76 131 66 Q 129 62 132 61 Q 134 60 137 62 Q 142 65 145 70 Q 147 74 144 90" fill="#750000" /><path d="M 202 89 L 195 91 Q 144 101 137 111 L 144 90 Q 143 95 147 94 Q 157 90 169 88 L 179 86 Q 192 82 208 81 L 206 90" fill="#750000" /><path d="M 208 81 Q 212 75 214 65 Q 214 52 212 50 Q 213 47 214 46 Q 218 45 221 47 Q 228 53 232 58 Q 234 62 232 65 Q 230 67 225 77 Q 220 97 213 103 Q 210 105 208 101 Q 206 96 206 90" fill="#890000" /><path d="M 151 138 Q 141 139 132 135 Q 126 131 135 129 Q 150 127 170 121 Q 193 113 199 113 Q 207 115 209 118 Q 210 120 208 122 Q 205 124 163 135" fill="#9c0000" /><path d="M 141 163 Q 152 143 151 138 L 163 135 Q 167 138 169 140 Q 171 143 167 145 Q 161 150 151 160" fill="#b00000" /><path d="M 125 177 Q 125 179 125 181 Q 124 188 125 207 Q 125 224 122 226 Q 122 229 118 227 Q 115 224 112 219 Q 110 215 111 209 Q 114 181 108 170 Q 107 167 108 166 Q 110 164 111 165 Q 114 166 117 168" fill="#c40000" /><path d="M 161 165 L 149 169 L 140 171 Q 132 174 127 176 Q 126 177 125 177 L 117 168 Q 126 166 138 163 Q 139 163 141 163 L 151 160 Q 168 156 201 152 Q 213 149 220 147 Q 224 145 228 149 Q 241 156 242 159 L 221 161 Q 219 158 214 158 Q 197 159 182 162 L 171 164" fill="#d70000" /><path d="M 242 159 Q 244 161 240 166 Q 237 172 235 209 Q 233 236 226 243 Q 223 245 220 242 L 218 217 Q 221 211 222 166 Q 223 163 221 161" fill="#d70000" /><path d="M 220 242 Q 213 232 196 219 Q 191 214 198 215 Q 206 217 214 218 Q 217 219 218 217" fill="#d70000" /><path d="M 149 169 Q 151 170 154 172 Q 157 174 156 177 Q 155 179 154 191 Q 152 213 149 216 Q 148 216 147 215 Q 144 211 144 198 Q 143 174 140 171" fill="#eb0000" /><path d="M 182 162 Q 184 164 188 166 Q 191 169 190 172 Q 189 174 183 216 Q 182 219 180 220 Q 179 220 178 219 Q 175 215 175 198 Q 174 170 172 165 Q 171 164 171 164" fill="#ff0000" /></svg>