<svg xmlns="http://www.w3.org/2000/svg" xmlns:xlink="http://www.w3.org/1999/xlink" width="270" height="270"><path d="M 0 0 L 270 270 M 270 0 L 0 270 M 135 0 L 135 270 M 0 135 L 270 135" stroke="#CCCCCC" /><path d="M 62 122 Q 34 164 23 166 Q 19 167 20 164 Q 21 162 23 159 Q 67 97 82 53 Q 85 45 80 36 Q 78 30 82 29 Q 88 28 96 33 Q 105 39 106 43 Q 108 46 105 50 Q 99 57 92 72 Q 79 97 67 115" fill="#000000" /><path d="M 80 111 L 93 109 Q 118 100 125 101 Q 133 102 135 105 Q 136 108 134 110 Q 133 111 92 122 L 83 124 Q 70 126 62 122 L 67 115" fill="#330000" /><path d="M 92 122 Q 95 124 99 128 Q 101 130 100 133 Q 98 145 97 194 Q 96 210 94 217 Q 93 221 89 220 Q 88 220 88 219 Q 75 203 79 190 Q 80 188 80 184 Q 81 182 81 181 Q 87 131 83 124" fill="#660000" /><path d="M 157 113 Q 136 149 127 152 Q 123 154 124 151 Q 124 149 126 145 Q 142 119 153 96 Q 165 71 171 46 Q 173 39 168 31 Q 165 25 170 24 Q 175 23 183 27 Q 192 32 194 36 Q 195 39 194 42 Q 188 50 183 63 Q 172 88 162 106" fill="#990000" /><path d="M 175 115 L 175 115 Q 166 116 157 113 L 162 106 Q 175 102 189 99 Q 202 96 217 90 Q 230 84 242 90 Q 250 95 250 98 Q 249 101 245 101 Q 211 106 190 112 L 177 115" fill="#cc0000" /><path d="M 190 112 Q 196 115 202 120 Q 208 124 205 130 Q 201 140 201 155 Q 203 203 204 210 Q 203 232 191 242 Q 186 246 182 240 L 182 207 Q 185 205 186 200 Q 187 180 185 143 Q 185 129 179 117 Q 177 116 177 115" fill="#ff0000" /><path d="M 182 240 Q 176 228 155 205 Q 153 202 153 200 Q 152 198 156 199 Q 167 203 177 207 Q 181 208 182 207" fill="#ff0000" /></svg>