<svg xmlns="http://www.w3.org/2000/svg" xmlns:xlink="http://www.w3.org/1999/xlink" width="270" height="270"><path d="M 0 0 L 270 270 M 270 0 L 0 270 M 135 0 L 135 270 M 0 135 L 270 135" stroke="#CCCCCC" /><path d="M 31 81 L 30 78 Q 31 75 32 75 Q 35 74 50 83 Q 57 87 57 92 Q 58 99 56 102 Q 54 105 52 104 Q 49 104 36 86" fill="#CCCCCC"/><path d="M 102 64 L 101 61 Q 100 57 103 57 Q 108 56 112 59 Q 117 63 119 66 Q 120 68 116 69 Q 108 76 91 93 Q 89 94 88 94 Q 86 93 87 91 Q 96 76 100 68" fill="#CCCCCC"/><path d="M 65 128 Q 55 131 42 136 Q 28 140 19 135 Q 15 132 15 130 Q 16 127 19 127 Q 32 125 70 116 L 80 113 Q 99 107 106 110 Q 110 112 110 115 Q 110 117 106 118 Q 92 120 80 124" fill="#CCCCCC"/><path d="M 79 212 L 79 222 Q 79 230 77 236 Q 74 241 72 242 Q 70 244 69 242 Q 67 241 66 237 Q 65 235 64 234 Q 59 222 65 200 Q 68 187 69 152 L 70 116 Q 70 107 70 98 Q 70 77 70 59 Q 70 46 62 34 Q 60 30 61 29 Q 66 25 72 29 Q 86 38 87 40 Q 88 44 86 47 Q 80 67 80 113 L 80 124 Q 80 131 80 139 L 80 147" fill="#CCCCCC"/><path d="M 69 152 Q 59 171 49 184 Q 23 215 18 215 Q 15 215 17 212 Q 53 162 65 128 L 70 116" fill="#CCCCCC"/><path d="M 80 139 Q 82 138 97 148 Q 103 153 104 158 Q 104 164 103 166 Q 101 169 99 169 Q 96 168 94 165 Q 88 157 82 150 Q 80 148 80 147" fill="#CCCCCC"/><path d="M 181 80 Q 169 82 157 85 L 151 86 Q 138 87 129 82 Q 123 78 132 76 Q 146 75 175 69 Q 205 60 211 62 Q 219 64 221 67 Q 222 69 219 71 Q 218 72 195 77" fill="#CCCCCC"/><path d="M 139 221 L 139 223 Q 138 231 133 229 L 133 229 Q 123 222 123 205 Q 122 151 109 130 Q 107 126 109 125 Q 110 124 112 124 Q 119 126 126 131 L 131 140 Q 132 167 138 212 L 139 220" fill="#CCCCCC"/><path d="M 223 129 Q 217 123 193 129 L 184 131 Q 175 132 167 134 L 156 136 Q 143 138 133 140 Q 132 140 131 140 L 126 131 Q 142 129 157 128 L 168 126 Q 171 126 174 125 Q 179 124 184 124 L 193 122 Q 207 118 218 113 Q 228 111 233 113 Q 245 119 251 125 Q 254 129 249 134" fill="#CCCCCC"/><path d="M 219 201 Q 225 169 226 137 Q 226 130 223 129 L 249 134 Q 243 142 242 155 Q 240 172 238 187 Q 236 211 228 230 Q 225 237 221 237 Q 218 238 215 233" fill="#CCCCCC"/><path d="M 214 207 Q 215 207 216 207 Q 218 206 219 201 L 215 233 Q 209 220 206 212" fill="#CCCCCC"/><path d="M 167 134 Q 165 146 162 155 Q 161 156 161 157 Q 150 182 144 183 Q 142 184 142 181 Q 143 180 144 179 Q 155 155 156 136 L 157 128 Q 157 127 157 127 Q 158 95 151 89 Q 150 87 151 86 L 157 85 Q 162 85 168 90 Q 170 92 169 96 Q 168 99 168 110 Q 168 118 168 126" fill="#CCCCCC"/><path d="M 193 129 Q 191 166 204 166 L 193 175 Q 181 166 184 131 L 184 124 Q 185 110 185 97 Q 186 86 182 81 Q 181 80 181 80 L 195 77 Q 197 78 198 79 Q 200 82 199 85 Q 194 105 193 122" fill="#CCCCCC"/><path d="M 204 166 Q 219 166 220 167 Q 222 169 220 172 Q 217 176 210 176 Q 196 178 193 175" fill="#CCCCCC"/><path d="M 138 212 Q 163 209 196 201 Q 204 199 208 202 Q 212 204 214 207 L 206 212 Q 164 216 144 220 Q 141 220 139 220" fill="#CCCCCC"/><path d="M 31 81 L 30 78 Q 31 75 32 75 Q 35 74 50 83 Q 57 87 57 92 Q 58 99 56 102 Q 54 105 52 104 Q 49 104 36 86" fill="#000000" /><path d="M 102 64 L 101 61 Q 100 57 103 57 Q 108 56 112 59 Q 117 63 119 66 Q 120 68 116 69 Q 108 76 91 93 Q 89 94 88 94 Q 86 93 87 91 Q 96 76 100 68" fill="#170000" /><path d="M 65 128 Q 55 131 42 136 Q 28 140 19 135 Q 15 132 15 130 Q 16 127 19 127 Q 32 125 70 116 L 80 113 Q 99 107 106 110 Q 110 112 110 115 Q 110 117 106 118 Q 92 120 80 124" fill="#2e0000" /><path d="M 79 212 L 79 222 Q 79 230 77 236 Q 74 241 72 242 Q 70 244 69 242 Q 67 241 66 237 Q 65 235 64 234 Q 59 222 65 200 Q 68 187 69 152 L 70 116 Q 70 107 70 98 Q 70 77 70 59 Q 70 46 62 34 Q 60 30 61 29 Q 66 25 72 29 Q 86 38 87 40 Q 88 44 86 47 Q 80 67 80 113 L 80 124 Q 80 131 80 139 L 80 147" fill="#450000" /><path d="M 69 152 Q 59 171 49 184 Q 23 215 18 215 Q 15 215 17 212 Q 53 162 65 128 L 70 116" fill="#5c0000" /><path d="M 80 139 Q 82 138 97 148 Q 103 153 104 158 Q 104 164 103 166 Q 101 169 99 169 Q 96 168 94 165 Q 88 157 82 150 Q 80 148 80 147" fill="#730000" /><path d="M 181 80 Q 169 82 157 85 L 151 86 Q 138 87 129 82 Q 123 78 132 76 Q 146 75 175 69 Q 205 60 211 62 Q 219 64 221 67 Q 222 69 219 71 Q 218 72 195 77" fill="#8b0000" /><path d="M 139 221 L 139 223 Q 138 231 133 229 L 133 229 Q 123 222 123 205 Q 122 151 109 130 Q 107 126 109 125 Q 110 124 112 124 Q 119 126 126 131 L 131 140 Q 132 167 138 212 L 139 220" fill="#a20000" /><path d="M 223 129 Q 217 123 193 129 L 184 131 Q 175 132 167 134 L 156 136 Q 143 138 133 140 Q 132 140 131 140 L 126 131 Q 142 129 157 128 L 168 126 Q 171 126 174 125 Q 179 124 184 124 L 193 122 Q 207 118 218 113 Q 228 111 233 113 Q 245 119 251 125 Q 254 129 249 134" fill="#b90000" /><path d="M 219 201 Q 225 169 226 137 Q 226 130 223 129 L 249 134 Q 243 142 242 155 Q 240 172 238 187 Q 236 211 228 230 Q 225 237 221 237 Q 218 238 215 233" fill="#b90000" /><path d="M 214 207 Q 215 207 216 207 Q 218 206 219 201 L 215 233 Q 209 220 206 212" fill="#b90000" /><path d="M 167 134 Q 165 146 162 155 Q 161 156 161 157 Q 150 182 144 183 Q 142 184 142 181 Q 143 180 144 179 Q 155 155 156 136 L 157 128 Q 157 127 157 127 Q 158 95 151 89 Q 150 87 151 86 L 157 85 Q 162 85 168 90 Q 170 92 169 96 Q 168 99 168 110 Q 168 118 168 126" fill="#d00000" /><path d="M 193 129 Q 191 166 204 166 L 193 175 Q 181 166 184 131 L 184 124 Q 185 110 185 97 Q 186 86 182 81 Q 181 80 181 80 L 195 77 Q 197 78 198 79 Q 200 82 199 85 Q 194 105 193 122" fill="#e70000" /><path d="M 204 166 Q 219 166 220 167 Q 222 169 220 172 Q 217 176 210 176 Q 196 178 193 175" fill="#e70000" /><path d="M 138 212 Q 163 209 196 201 Q 204 199 208 202 Q 212 204 214 207 L 206 212 Q 164 216 144 220 Q 141 220 139 220" fill="#ff0000" /></svg>