<svg xmlns="http://www.w3.org/2000/svg" xmlns:xlink="http://www.w3.org/1999/xlink" width="270" height="270"><path d="M 0 0 L 270 270 M 270 0 L 0 270 M 135 0 L 135 270 M 0 135 L 270 135" stroke="#CCCCCC" /><path d="M 41 124 Q 37 126 35 123 Q 31 118 29 113 Q 29 110 34 106 Q 41 99 46 91 Q 73 43 68 30 Q 66 26 70 25 Q 75 24 79 27 Q 89 35 90 39 Q 91 41 87 46 Q 69 70 51 102" fill="#000000" /><path d="M 75 111 Q 48 119 41 124 L 51 102 Q 48 107 55 107 Q 66 105 79 104" fill="#000000" /><path d="M 54 168 Q 50 171 47 168 Q 40 163 39 160 Q 39 156 42 154 Q 49 149 75 111 L 79 104 Q 90 83 90 75 Q 90 71 92 69 Q 95 69 99 71 Q 108 76 111 81 Q 113 84 109 86 Q 103 92 96 102 Q 72 131 62 146" fill="#1c0000" /><path d="M 69 154 L 54 168 L 62 146 Q 60 150 64 148 Q 80 141 94 137 L 97 142" fill="#1c0000" /><path d="M 94 137 Q 91 130 92 128 Q 93 126 95 127 Q 109 133 112 141 Q 113 146 112 149 Q 109 153 106 152 Q 102 151 97 142" fill="#380000" /><path d="M 27 194 L 27 190 Q 28 187 30 186 Q 32 186 35 189 Q 56 204 55 214 Q 54 222 52 225 Q 49 228 46 227 Q 42 225 40 221 Q 36 210 31 201" fill="#550000" /><path d="M 61 181 L 61 179 Q 61 176 62 176 Q 64 176 68 178 Q 81 184 82 194 Q 81 197 79 199 Q 77 201 74 200 Q 69 195 63 184" fill="#710000" /><path d="M 85 166 L 85 164 Q 86 161 87 161 Q 88 161 91 162 Q 106 170 107 176 Q 108 182 106 185 Q 104 187 102 187 Q 99 186 90 171" fill="#8d0000" /><path d="M 145 40 L 144 37 Q 143 32 145 31 Q 150 29 172 37 Q 181 41 183 48 Q 186 57 184 61 Q 183 65 180 66 Q 175 66 171 62 Q 162 54 153 46" fill="#aa0000" /><path d="M 154 108 Q 142 111 133 113 Q 122 115 113 109 Q 107 105 115 103 Q 119 102 123 102 Q 155 97 203 86 Q 226 78 236 83 Q 242 86 242 89 Q 240 93 237 93 Q 194 99 165 106" fill="#c60000" /><path d="M 146 169 L 130 188 Q 101 218 85 220 Q 83 220 85 218 Q 111 193 122 180 Q 123 178 124 177 Q 158 130 154 108 L 165 106 Q 170 107 173 110 Q 177 113 177 116 Q 177 118 176 120 Q 171 125 167 132 L 164 139" fill="#e20000" /><path d="M 167 132 Q 179 137 190 138 Q 203 138 212 147 Q 218 154 217 157 L 193 159 Q 194 149 183 147 Q 166 143 164 139" fill="#ff0000" /><path d="M 217 157 Q 217 159 214 160 Q 207 164 202 186 Q 190 228 175 239 Q 165 245 162 243 L 167 217 Q 174 215 182 198 Q 182 196 183 195 Q 183 194 193 159" fill="#ff0000" /><path d="M 162 243 Q 159 242 158 237 Q 156 229 144 217 Q 140 214 141 211 Q 142 210 152 215 Q 163 219 167 217" fill="#ff0000" /></svg>