<svg xmlns="http://www.w3.org/2000/svg" xmlns:xlink="http://www.w3.org/1999/xlink" width="270" height="270"><path d="M 0 0 L 270 270 M 270 0 L 0 270 M 135 0 L 135 270 M 0 135 L 270 135" stroke="#CCCCCC" /><path d="M 45 108 Q 41 110 38 107 Q 34 102 33 97 Q 33 94 38 90 Q 44 84 48 79 Q 72 39 67 26 Q 65 22 69 21 Q 74 20 78 24 Q 88 32 89 36 Q 90 38 86 43 Q 71 62 55 87" fill="#CCCCCC"/><path d="M 76 98 Q 52 104 45 108 L 55 87 Q 51 92 59 92 Q 69 91 81 90" fill="#CCCCCC"/><path d="M 53 159 Q 49 163 46 160 Q 39 155 38 151 Q 37 148 41 145 Q 47 141 76 98 L 81 90 Q 90 72 89 64 Q 89 60 91 59 Q 94 58 98 61 Q 107 65 110 70 Q 112 73 109 76 Q 102 82 95 92 Q 71 122 61 137" fill="#CCCCCC"/><path d="M 70 144 L 53 159 L 61 137 Q 59 142 63 139 Q 79 133 92 129 L 94 134" fill="#CCCCCC"/><path d="M 92 129 Q 90 125 89 121 Q 88 118 89 117 Q 90 114 92 115 Q 105 123 108 133 Q 108 138 106 140 Q 104 143 101 142 Q 97 141 94 134" fill="#CCCCCC"/><path d="M 26 181 L 26 177 Q 27 174 29 174 Q 31 174 34 177 Q 43 185 51 194 Q 58 203 56 210 Q 55 218 52 222 Q 49 224 46 223 Q 42 221 41 216 Q 35 202 29 189" fill="#CCCCCC"/><path d="M 61 172 L 61 170 Q 62 167 63 166 Q 67 167 81 178 Q 86 183 86 188 Q 86 195 84 198 Q 82 200 79 200 Q 76 199 74 195 Q 69 186 65 179" fill="#CCCCCC"/><path d="M 89 160 L 89 157 Q 90 154 91 154 Q 94 154 107 163 Q 113 168 113 172 Q 113 179 111 181 Q 109 183 107 183 Q 103 182 102 179 Q 98 172 93 166" fill="#CCCCCC"/><path d="M 145 157 Q 145 164 140 163 Q 140 163 140 163 Q 130 156 130 140 Q 127 102 117 87 Q 115 85 117 83 Q 118 82 120 82 Q 127 84 133 88 L 138 98 Q 139 112 143 139 Q 145 145 145 150" fill="#CCCCCC"/><path d="M 169 90 Q 151 94 138 98 L 133 88 Q 145 86 160 82 Q 164 81 169 80 L 182 78 Q 193 74 201 73 Q 219 68 223 70 Q 236 77 240 82 L 213 84 Q 209 81 182 87" fill="#CCCCCC"/><path d="M 207 142 Q 211 134 217 94 Q 218 87 213 84 L 240 82 Q 243 86 240 89 Q 234 96 231 105 Q 223 150 219 158 Q 215 164 212 162 Q 207 160 201 151 Q 200 150 200 150" fill="#CCCCCC"/><path d="M 169 123 Q 153 126 152 125 Q 146 121 151 120 Q 159 118 169 114 L 182 110 Q 188 108 192 109 Q 199 109 201 113 Q 204 116 198 117 Q 190 119 182 120" fill="#CCCCCC"/><path d="M 146 157 L 145 157 L 145 150 Q 156 147 169 145 L 182 142 Q 197 136 207 142 L 200 150 Q 191 150 182 152 L 169 154" fill="#CCCCCC"/><path d="M 169 145 Q 169 134 169 123 L 169 114 Q 169 101 169 90 L 169 80 Q 169 54 169 38 Q 168 28 160 21 Q 157 18 159 16 Q 163 13 168 14 Q 179 17 185 22 Q 191 26 189 30 Q 184 38 184 47 Q 183 59 182 78 L 182 87 Q 182 97 182 110 L 182 120 Q 182 130 182 142 L 182 152 Q 183 237 178 251 Q 176 256 172 252 Q 171 251 171 251 Q 167 244 169 154" fill="#CCCCCC"/><path d="M 45 108 Q 41 110 38 107 Q 34 102 33 97 Q 33 94 38 90 Q 44 84 48 79 Q 72 39 67 26 Q 65 22 69 21 Q 74 20 78 24 Q 88 32 89 36 Q 90 38 86 43 Q 71 62 55 87" fill="#000000" /><path d="M 76 98 Q 52 104 45 108 L 55 87 Q 51 92 59 92 Q 69 91 81 90" fill="#000000" /><path d="M 53 159 Q 49 163 46 160 Q 39 155 38 151 Q 37 148 41 145 Q 47 141 76 98 L 81 90 Q 90 72 89 64 Q 89 60 91 59 Q 94 58 98 61 Q 107 65 110 70 Q 112 73 109 76 Q 102 82 95 92 Q 71 122 61 137" fill="#190000" /><path d="M 70 144 L 53 159 L 61 137 Q 59 142 63 139 Q 79 133 92 129 L 94 134" fill="#190000" /><path d="M 92 129 Q 90 125 89 121 Q 88 118 89 117 Q 90 114 92 115 Q 105 123 108 133 Q 108 138 106 140 Q 104 143 101 142 Q 97 141 94 134" fill="#330000" /><path d="M 26 181 L 26 177 Q 27 174 29 174 Q 31 174 34 177 Q 43 185 51 194 Q 58 203 56 210 Q 55 218 52 222 Q 49 224 46 223 Q 42 221 41 216 Q 35 202 29 189" fill="#4c0000" /><path d="M 61 172 L 61 170 Q 62 167 63 166 Q 67 167 81 178 Q 86 183 86 188 Q 86 195 84 198 Q 82 200 79 200 Q 76 199 74 195 Q 69 186 65 179" fill="#660000" /><path d="M 89 160 L 89 157 Q 90 154 91 154 Q 94 154 107 163 Q 113 168 113 172 Q 113 179 111 181 Q 109 183 107 183 Q 103 182 102 179 Q 98 172 93 166" fill="#7f0000" /><path d="M 145 157 Q 145 164 140 163 Q 140 163 140 163 Q 130 156 130 140 Q 127 102 117 87 Q 115 85 117 83 Q 118 82 120 82 Q 127 84 133 88 L 138 98 Q 139 112 143 139 Q 145 145 145 150" fill="#990000" /><path d="M 169 90 Q 151 94 138 98 L 133 88 Q 145 86 160 82 Q 164 81 169 80 L 182 78 Q 193 74 201 73 Q 219 68 223 70 Q 236 77 240 82 L 213 84 Q 209 81 182 87" fill="#b20000" /><path d="M 207 142 Q 211 134 217 94 Q 218 87 213 84 L 240 82 Q 243 86 240 89 Q 234 96 231 105 Q 223 150 219 158 Q 215 164 212 162 Q 207 160 201 151 Q 200 150 200 150" fill="#b20000" /><path d="M 169 123 Q 153 126 152 125 Q 146 121 151 120 Q 159 118 169 114 L 182 110 Q 188 108 192 109 Q 199 109 201 113 Q 204 116 198 117 Q 190 119 182 120" fill="#cc0000" /><path d="M 146 157 L 145 157 L 145 150 Q 156 147 169 145 L 182 142 Q 197 136 207 142 L 200 150 Q 191 150 182 152 L 169 154" fill="#e50000" /><path d="M 169 145 Q 169 134 169 123 L 169 114 Q 169 101 169 90 L 169 80 Q 169 54 169 38 Q 168 28 160 21 Q 157 18 159 16 Q 163 13 168 14 Q 179 17 185 22 Q 191 26 189 30 Q 184 38 184 47 Q 183 59 182 78 L 182 87 Q 182 97 182 110 L 182 120 Q 182 130 182 142 L 182 152 Q 183 237 178 251 Q 176 256 172 252 Q 171 251 171 251 Q 167 244 169 154" fill="#ff0000" /></svg>