<svg xmlns="http://www.w3.org/2000/svg" xmlns:xlink="http://www.w3.org/1999/xlink" width="270" height="270"><path d="M 0 0 L 270 270 M 270 0 L 0 270 M 135 0 L 135 270 M 0 135 L 270 135" stroke="#CCCCCC" /><path d="M 33 122 Q 29 123 27 120 Q 23 115 22 110 Q 22 107 27 103 Q 35 97 40 91 Q 71 44 66 31 Q 64 27 67 26 Q 72 25 77 29 Q 87 38 87 42 Q 88 44 84 48 Q 65 71 45 101" fill="#000000" /><path d="M 68 114 Q 68 114 68 114 Q 41 118 33 122 L 45 101 Q 41 106 49 107 Q 60 107 73 107" fill="#000000" /><path d="M 45 171 Q 41 174 39 171 Q 31 166 31 162 Q 30 159 34 156 Q 40 153 68 114 L 73 107 Q 87 83 86 73 Q 86 69 89 68 Q 91 67 96 70 Q 105 75 107 80 Q 109 82 106 85 Q 99 91 91 101 Q 65 133 55 149" fill="#170000" /><path d="M 63 158 L 45 171 L 55 149 Q 52 155 57 152 Q 72 147 86 144 L 89 149" fill="#170000" /><path d="M 86 144 Q 81 134 82 132 Q 83 129 85 130 Q 89 132 97 139 Q 103 143 104 148 Q 105 153 104 156 Q 101 160 98 159 Q 92 157 89 149" fill="#2e0000" /><path d="M 16 193 L 16 190 Q 17 186 19 186 Q 24 186 41 205 Q 48 214 47 221 Q 45 229 43 232 Q 40 235 37 234 Q 33 232 31 227 Q 26 213 20 201" fill="#450000" /><path d="M 50 185 L 50 182 Q 51 179 52 179 Q 55 178 68 188 Q 73 192 73 196 Q 73 203 71 205 Q 69 207 67 207 Q 63 206 62 203 Q 58 196 55 190" fill="#5c0000" /><path d="M 77 175 L 77 173 Q 77 170 78 170 Q 81 169 93 175 Q 98 179 98 182 Q 99 188 98 191 Q 96 193 95 193 Q 92 193 82 180" fill="#730000" /><path d="M 143 34 L 142 32 Q 141 28 142 27 Q 145 25 165 30 Q 174 33 176 38 Q 179 46 178 50 Q 177 54 174 54 Q 170 54 166 51 Q 158 45 151 40" fill="#8b0000" /><path d="M 137 88 Q 126 89 117 85 Q 111 81 119 79 Q 121 79 161 71 Q 189 62 196 63 Q 203 65 204 67 Q 206 69 203 71 Q 202 72 148 85" fill="#a20000" /><path d="M 122 147 Q 119 150 117 147 Q 107 140 109 137 Q 109 136 121 126 Q 142 102 137 89 Q 137 88 137 88 L 148 85 Q 156 89 158 92 Q 159 95 156 98 Q 152 102 132 127 Q 131 129 132 130" fill="#b90000" /><path d="M 132 139 L 122 147 L 132 130 Q 133 130 135 129 Q 159 122 181 117 L 185 123 Q 173 126 164 129 L 157 132" fill="#b90000" /><path d="M 181 117 Q 176 112 176 109 Q 177 106 178 105 Q 181 104 196 113 Q 201 117 202 121 Q 203 128 201 132 Q 199 134 196 134 Q 193 133 185 123" fill="#d00000" /><path d="M 126 149 L 129 149 Q 131 148 136 152 Q 143 156 145 158 Q 146 161 144 163 Q 141 167 138 172 Q 125 202 106 215 Q 85 229 79 227 Q 77 226 79 224 Q 128 186 126 153" fill="#e70000" /><path d="M 164 129 Q 176 134 175 142 Q 165 199 173 215 L 167 230 Q 162 225 161 220 Q 157 206 160 154 Q 161 145 158 135 Q 157 133 157 132" fill="#ff0000" /><path d="M 173 215 Q 175 219 180 221 Q 187 224 196 224 Q 218 225 224 217 L 249 217 Q 253 224 248 228 Q 239 234 229 237 Q 225 238 222 238 Q 183 244 167 230" fill="#ff0000" /><path d="M 224 217 Q 229 210 235 186 Q 236 181 238 182 Q 240 183 240 188 Q 245 210 249 217" fill="#ff0000" /></svg>