<svg xmlns="http://www.w3.org/2000/svg" xmlns:xlink="http://www.w3.org/1999/xlink" width="270" height="270"><path d="M 0 0 L 270 270 M 270 0 L 0 270 M 135 0 L 135 270 M 0 135 L 270 135" stroke="#CCCCCC" /><path d="M 43 104 Q 40 106 37 104 Q 34 99 33 94 Q 32 91 37 88 Q 45 80 49 72 Q 65 38 61 28 Q 59 24 62 23 Q 67 22 71 25 Q 82 33 82 36 Q 83 38 80 43 Q 67 60 54 84" fill="#000000" /><path d="M 71 98 Q 70 98 68 98 Q 49 102 43 104 L 54 84 Q 49 90 59 90 Q 67 91 76 91" fill="#000000" /><path d="M 52 152 Q 48 156 45 153 Q 38 148 38 145 Q 37 141 40 139 Q 46 135 71 98 L 76 91 Q 86 69 86 61 Q 85 57 88 56 Q 90 56 95 57 Q 103 62 106 67 Q 108 69 105 72 Q 89 88 60 131" fill="#130000" /><path d="M 70 138 L 52 152 L 60 131 Q 57 137 62 134 Q 78 129 91 126 L 93 130" fill="#130000" /><path d="M 91 126 Q 89 121 87 116 Q 86 114 87 112 Q 88 110 90 111 Q 103 119 106 128 Q 106 132 105 135 Q 102 138 100 137 Q 97 136 94 131 Q 93 130 93 130" fill="#270000" /><path d="M 19 178 L 20 175 Q 21 172 22 171 Q 27 172 42 186 Q 48 193 47 198 Q 46 206 44 209 Q 42 212 39 211 Q 35 210 33 205 Q 29 194 24 185" fill="#3a0000" /><path d="M 54 167 L 54 164 Q 54 162 55 161 Q 57 161 59 163 Q 74 170 75 175 Q 75 182 73 184 Q 71 187 69 186 Q 65 186 64 182 Q 61 177 58 173" fill="#4e0000" /><path d="M 83 150 L 83 148 Q 84 145 86 146 Q 98 149 102 156 Q 103 160 102 164 Q 100 168 97 167 Q 92 166 84 152" fill="#620000" /><path d="M 157 77 Q 156 28 149 21 Q 147 17 149 15 Q 151 13 155 14 Q 161 15 170 19 Q 174 23 174 25 Q 173 27 172 30 Q 171 32 171 35 L 170 43 Q 169 58 167 76" fill="#750000" /><path d="M 171 35 Q 175 34 179 34 Q 185 32 189 31 Q 196 28 203 29 Q 210 30 212 33 Q 213 35 211 37 Q 211 37 196 41 Q 178 44 170 43" fill="#890000" /><path d="M 136 141 Q 135 144 135 146 Q 133 150 129 144 Q 124 139 123 131 Q 119 104 111 88 Q 109 84 110 82 Q 111 81 114 82 Q 120 83 124 84 L 129 92 Q 129 96 131 106 L 132 113 Q 135 126 135 133" fill="#9c0000" /><path d="M 195 82 Q 186 78 129 92 L 124 84 Q 133 83 146 79 Q 151 78 157 77 L 167 76 Q 172 74 186 73 Q 200 69 205 71 Q 219 79 224 83" fill="#b00000" /><path d="M 189 127 Q 192 121 197 91 Q 198 84 195 82 L 224 83 Q 228 88 223 92 Q 213 100 208 114 Q 203 131 200 134 Q 198 138 194 139 Q 191 139 189 135" fill="#b00000" /><path d="M 131 106 Q 139 105 146 104 Q 168 99 172 100 Q 178 102 179 104 Q 180 106 178 108 Q 178 108 172 109 Q 170 110 169 110 Q 143 115 132 113" fill="#c40000" /><path d="M 150 139 Q 143 140 138 141 Q 137 141 136 141 L 135 133 Q 154 131 177 125 Q 184 124 187 126 Q 188 126 189 127 L 189 135 Q 173 136 161 137" fill="#d70000" /><path d="M 136 176 L 119 180 Q 115 181 110 180 Q 105 179 102 176 Q 97 171 103 171 Q 131 167 155 164 L 172 162 Q 204 157 223 153 Q 233 151 245 160 Q 250 164 248 166 Q 247 169 242 169 Q 192 169 171 172 L 156 173" fill="#eb0000" /><path d="M 155 164 Q 154 147 151 142 Q 150 140 150 139 L 161 137 Q 165 139 171 143 Q 174 145 172 156 Q 172 158 172 162 L 171 172 Q 169 236 169 238 Q 169 253 164 256 Q 162 256 160 254 Q 160 253 159 252 Q 156 246 156 173" fill="#ff0000" /></svg>