<svg xmlns="http://www.w3.org/2000/svg" xmlns:xlink="http://www.w3.org/1999/xlink" width="270" height="270"><path d="M 0 0 L 270 270 M 270 0 L 0 270 M 135 0 L 135 270 M 0 135 L 270 135" stroke="#CCCCCC" /><path d="M 56 108 Q 52 109 50 107 Q 46 102 45 98 Q 44 94 49 90 Q 58 82 62 74 Q 82 36 78 26 Q 76 22 79 21 Q 84 20 88 23 Q 98 31 99 35 Q 99 36 96 41 Q 81 61 65 87" fill="#CCCCCC"/><path d="M 87 98 Q 67 100 56 108 L 65 87 Q 63 92 70 92 Q 80 91 92 90" fill="#CCCCCC"/><path d="M 65 152 Q 61 155 59 152 Q 52 147 51 144 Q 51 140 54 138 Q 61 134 87 98 L 92 90 Q 103 69 103 62 Q 102 58 105 57 Q 107 56 111 59 Q 120 63 123 68 Q 124 71 121 73 Q 115 79 107 88 Q 84 116 74 131" fill="#CCCCCC"/><path d="M 83 137 L 65 152 L 74 131 Q 72 136 76 133 Q 89 129 100 127 L 102 131" fill="#CCCCCC"/><path d="M 100 127 Q 96 118 97 115 Q 97 113 98 113 Q 100 113 103 115 Q 110 119 113 125 Q 116 128 115 133 Q 115 137 112 139 Q 110 140 107 139 Q 103 135 102 131" fill="#CCCCCC"/><path d="M 26 175 L 26 172 Q 27 169 28 168 Q 32 168 49 182 Q 55 189 55 194 Q 55 202 52 205 Q 50 208 47 207 Q 43 206 42 202 Q 36 191 31 182" fill="#CCCCCC"/><path d="M 61 167 L 61 164 Q 61 162 62 161 Q 64 161 66 163 Q 80 169 81 175 Q 81 181 79 183 Q 77 186 76 185 Q 72 185 70 181 Q 68 176 65 172" fill="#CCCCCC"/><path d="M 88 156 L 88 154 Q 88 151 89 151 Q 92 150 104 156 Q 109 159 109 162 Q 110 168 108 171 Q 107 174 105 173 Q 102 173 93 161" fill="#CCCCCC"/><path d="M 150 66 Q 152 60 154 56 Q 166 24 163 18 Q 161 15 164 13 Q 167 12 174 13 Q 182 14 187 18 Q 192 21 187 26 Q 185 27 157 64" fill="#CCCCCC"/><path d="M 156 122 Q 156 124 156 125 Q 154 129 149 124 Q 145 119 144 112 Q 138 88 130 73 Q 127 69 129 67 Q 130 66 133 66 Q 138 67 140 68 L 148 75 Q 148 79 151 90 L 152 96 Q 156 114 156 115" fill="#CCCCCC"/><path d="M 140 68 Q 144 67 150 66 L 157 64 Q 159 63 161 62 Q 189 54 193 54 Q 212 49 215 51 Q 228 58 233 62 L 207 62 Q 205 61 199 62 Q 163 69 148 75 Q 148 75 148 75" fill="#CCCCCC"/><path d="M 200 110 Q 204 99 208 71 Q 210 63 207 62 L 233 62 Q 238 66 233 70 Q 224 78 220 91 Q 214 112 211 116 Q 209 120 206 120 Q 202 121 201 116 Q 200 116 200 115" fill="#CCCCCC"/><path d="M 151 90 Q 177 81 184 81 Q 190 82 192 86 Q 195 89 189 90 Q 175 92 155 96 Q 153 96 152 96" fill="#CCCCCC"/><path d="M 163 121 Q 157 122 156 122 L 156 115 Q 170 112 187 108 Q 194 106 197 108 Q 199 109 200 110 L 200 115 Q 186 117 177 119" fill="#CCCCCC"/><path d="M 141 156 Q 140 161 139 179 Q 139 197 133 202 Q 131 204 129 201 Q 128 200 127 199 Q 121 189 125 181 Q 131 162 124 149 Q 122 147 125 146 Q 129 145 136 148" fill="#CCCCCC"/><path d="M 146 152 L 141 156 L 136 148 Q 146 146 161 143 Q 165 142 170 141 L 186 138 Q 185 138 185 138 Q 192 137 198 136 Q 213 133 218 132 Q 222 129 227 131 Q 238 135 241 137 Q 243 140 241 143 L 219 144 Q 215 141 185 146 L 170 148" fill="#CCCCCC"/><path d="M 241 143 Q 238 147 238 156 Q 237 184 238 188 Q 235 208 227 213 Q 225 215 222 212 L 222 182 Q 224 161 223 149 Q 223 145 219 144" fill="#CCCCCC"/><path d="M 222 212 Q 218 205 212 198 Q 205 192 204 190 Q 203 187 207 188 Q 212 188 217 188 Q 222 188 222 182" fill="#CCCCCC"/><path d="M 170 141 Q 169 131 164 123 Q 164 121 163 121 L 177 119 Q 180 120 184 123 Q 188 126 187 130 Q 186 133 186 138 L 185 146 Q 184 197 185 209 Q 185 224 184 240 Q 183 254 178 257 Q 177 257 175 256 Q 174 255 174 255 Q 171 249 170 148" fill="#CCCCCC"/><path d="M 56 108 Q 52 109 50 107 Q 46 102 45 98 Q 44 94 49 90 Q 58 82 62 74 Q 82 36 78 26 Q 76 22 79 21 Q 84 20 88 23 Q 98 31 99 35 Q 99 36 96 41 Q 81 61 65 87" fill="#000000" /><path d="M 87 98 Q 67 100 56 108 L 65 87 Q 63 92 70 92 Q 80 91 92 90" fill="#000000" /><path d="M 65 152 Q 61 155 59 152 Q 52 147 51 144 Q 51 140 54 138 Q 61 134 87 98 L 92 90 Q 103 69 103 62 Q 102 58 105 57 Q 107 56 111 59 Q 120 63 123 68 Q 124 71 121 73 Q 115 79 107 88 Q 84 116 74 131" fill="#130000" /><path d="M 83 137 L 65 152 L 74 131 Q 72 136 76 133 Q 89 129 100 127 L 102 131" fill="#130000" /><path d="M 100 127 Q 96 118 97 115 Q 97 113 98 113 Q 100 113 103 115 Q 110 119 113 125 Q 116 128 115 133 Q 115 137 112 139 Q 110 140 107 139 Q 103 135 102 131" fill="#270000" /><path d="M 26 175 L 26 172 Q 27 169 28 168 Q 32 168 49 182 Q 55 189 55 194 Q 55 202 52 205 Q 50 208 47 207 Q 43 206 42 202 Q 36 191 31 182" fill="#3a0000" /><path d="M 61 167 L 61 164 Q 61 162 62 161 Q 64 161 66 163 Q 80 169 81 175 Q 81 181 79 183 Q 77 186 76 185 Q 72 185 70 181 Q 68 176 65 172" fill="#4e0000" /><path d="M 88 156 L 88 154 Q 88 151 89 151 Q 92 150 104 156 Q 109 159 109 162 Q 110 168 108 171 Q 107 174 105 173 Q 102 173 93 161" fill="#620000" /><path d="M 150 66 Q 152 60 154 56 Q 166 24 163 18 Q 161 15 164 13 Q 167 12 174 13 Q 182 14 187 18 Q 192 21 187 26 Q 185 27 157 64" fill="#750000" /><path d="M 156 122 Q 156 124 156 125 Q 154 129 149 124 Q 145 119 144 112 Q 138 88 130 73 Q 127 69 129 67 Q 130 66 133 66 Q 138 67 140 68 L 148 75 Q 148 79 151 90 L 152 96 Q 156 114 156 115" fill="#890000" /><path d="M 140 68 Q 144 67 150 66 L 157 64 Q 159 63 161 62 Q 189 54 193 54 Q 212 49 215 51 Q 228 58 233 62 L 207 62 Q 205 61 199 62 Q 163 69 148 75 Q 148 75 148 75" fill="#9c0000" /><path d="M 200 110 Q 204 99 208 71 Q 210 63 207 62 L 233 62 Q 238 66 233 70 Q 224 78 220 91 Q 214 112 211 116 Q 209 120 206 120 Q 202 121 201 116 Q 200 116 200 115" fill="#9c0000" /><path d="M 151 90 Q 177 81 184 81 Q 190 82 192 86 Q 195 89 189 90 Q 175 92 155 96 Q 153 96 152 96" fill="#b00000" /><path d="M 163 121 Q 157 122 156 122 L 156 115 Q 170 112 187 108 Q 194 106 197 108 Q 199 109 200 110 L 200 115 Q 186 117 177 119" fill="#c40000" /><path d="M 141 156 Q 140 161 139 179 Q 139 197 133 202 Q 131 204 129 201 Q 128 200 127 199 Q 121 189 125 181 Q 131 162 124 149 Q 122 147 125 146 Q 129 145 136 148" fill="#d70000" /><path d="M 146 152 L 141 156 L 136 148 Q 146 146 161 143 Q 165 142 170 141 L 186 138 Q 185 138 185 138 Q 192 137 198 136 Q 213 133 218 132 Q 222 129 227 131 Q 238 135 241 137 Q 243 140 241 143 L 219 144 Q 215 141 185 146 L 170 148" fill="#eb0000" /><path d="M 241 143 Q 238 147 238 156 Q 237 184 238 188 Q 235 208 227 213 Q 225 215 222 212 L 222 182 Q 224 161 223 149 Q 223 145 219 144" fill="#eb0000" /><path d="M 222 212 Q 218 205 212 198 Q 205 192 204 190 Q 203 187 207 188 Q 212 188 217 188 Q 222 188 222 182" fill="#eb0000" /><path d="M 170 141 Q 169 131 164 123 Q 164 121 163 121 L 177 119 Q 180 120 184 123 Q 188 126 187 130 Q 186 133 186 138 L 185 146 Q 184 197 185 209 Q 185 224 184 240 Q 183 254 178 257 Q 177 257 175 256 Q 174 255 174 255 Q 171 249 170 148" fill="#ff0000" /></svg>