<svg xmlns="http://www.w3.org/2000/svg" xmlns:xlink="http://www.w3.org/1999/xlink" width="270" height="270"><path d="M 0 0 L 270 270 M 270 0 L 0 270 M 135 0 L 135 270 M 0 135 L 270 135" stroke="#CCCCCC" /><path d="M 32 120 Q 29 122 26 120 Q 22 115 20 110 Q 20 107 24 103 Q 34 95 38 87 Q 58 49 53 39 Q 51 35 55 34 Q 59 33 63 37 Q 73 45 74 48 Q 75 50 71 55 Q 57 74 41 100" fill="#000000" /><path d="M 60 109 Q 58 109 56 110 Q 37 116 32 120 L 41 100 Q 38 104 45 103 Q 54 102 64 102" fill="#000000" /><path d="M 39 166 Q 35 169 32 166 Q 25 161 24 158 Q 24 154 27 152 Q 34 147 59 110 Q 59 109 60 109 L 64 102 Q 73 82 72 75 Q 72 71 75 70 Q 77 69 81 71 Q 91 76 93 81 Q 95 84 92 86 Q 85 92 78 102 Q 57 130 47 143" fill="#120000" /><path d="M 55 152 L 39 166 L 47 143 Q 45 148 50 146 Q 63 141 75 139 L 78 144" fill="#120000" /><path d="M 75 139 Q 69 128 69 126 Q 70 123 72 124 Q 76 126 85 131 Q 90 134 92 139 Q 93 144 93 147 Q 90 152 87 151 Q 84 150 78 144" fill="#240000" /><path d="M 10 193 L 11 190 Q 12 187 13 186 Q 15 186 18 189 Q 37 203 37 213 Q 36 220 33 223 Q 31 225 28 224 Q 24 223 23 219 Q 18 209 14 200" fill="#360000" /><path d="M 42 180 L 42 177 Q 42 175 43 174 Q 45 174 48 175 Q 63 183 64 188 Q 64 195 62 198 Q 60 201 58 200 Q 54 200 46 186" fill="#480000" /><path d="M 70 166 L 70 164 Q 70 161 71 160 Q 74 160 86 166 Q 91 169 91 172 Q 92 179 90 182 Q 88 184 86 184 Q 83 183 75 172" fill="#5b0000" /><path d="M 147 69 Q 145 70 144 70 Q 131 75 120 69 Q 114 66 123 64 Q 135 62 145 59 Q 146 59 146 59 L 160 54 Q 170 49 177 50 Q 185 51 186 54 Q 187 56 186 58 Q 185 58 159 66" fill="#6d0000" /><path d="M 121 147 Q 121 150 120 152 Q 119 155 115 150 Q 111 145 110 138 Q 105 113 97 98 Q 95 95 96 93 Q 97 92 100 93 Q 104 93 108 94 L 113 102 Q 115 111 120 135 Q 120 137 120 139" fill="#7f0000" /><path d="M 147 94 Q 129 98 118 102 Q 116 103 113 102 L 108 94 Q 120 93 136 89 Q 141 87 147 86 L 158 84 Q 173 80 177 80 Q 198 75 202 79 Q 215 86 219 91 L 194 88 Q 189 86 158 92" fill="#910000" /><path d="M 181 132 Q 182 131 183 130 Q 185 125 194 97 Q 196 90 194 88 L 219 91 Q 223 95 218 99 Q 208 106 202 119 Q 195 136 191 140 Q 189 143 185 143 Q 182 143 181 139" fill="#910000" /><path d="M 122 111 L 122 109 Q 123 107 125 108 Q 128 108 134 112 Q 138 113 140 116 Q 142 121 141 124 Q 139 127 137 127 Q 131 126 123 113" fill="#a30000" /><path d="M 170 103 L 169 100 Q 168 96 171 96 Q 180 95 186 104 Q 187 106 184 108 Q 178 113 165 124 Q 164 125 162 125 Q 161 124 162 122 Q 167 112 169 107" fill="#b60000" /><path d="M 142 144 Q 131 145 124 147 Q 123 147 121 147 L 120 139 Q 133 137 146 135 L 158 133 Q 174 127 180 130 Q 181 131 181 132 L 181 139 Q 168 140 157 141" fill="#c80000" /><path d="M 157 224 L 157 235 Q 157 244 155 250 Q 152 256 150 257 Q 148 259 146 257 Q 144 257 142 252 Q 135 234 139 221 Q 144 204 146 163 L 146 135 Q 147 114 147 94 L 147 86 Q 147 78 147 69 L 146 59 Q 146 34 137 20 Q 135 15 136 14 Q 142 10 148 14 Q 163 24 165 26 Q 166 30 164 34 Q 161 43 160 54 L 159 66 Q 158 81 158 84 L 158 92 Q 158 114 158 133 L 157 141 Q 157 143 157 146 L 157 156" fill="#da0000" /><path d="M 146 163 Q 142 168 139 173 Q 111 211 79 224 Q 77 225 74 224 Q 72 224 75 221 Q 77 219 78 218 Q 127 178 142 144 L 146 135" fill="#ec0000" /><path d="M 157 146 Q 158 147 161 149 Q 182 168 207 184 Q 208 185 254 205 Q 259 207 258 208 Q 257 210 252 210 Q 232 213 212 211 Q 201 210 196 203 Q 175 181 157 156" fill="#ff0000" /></svg>