<svg xmlns="http://www.w3.org/2000/svg" xmlns:xlink="http://www.w3.org/1999/xlink" width="270" height="270"><path d="M 0 0 L 270 270 M 270 0 L 0 270 M 135 0 L 135 270 M 0 135 L 270 135" stroke="#CCCCCC" /><path d="M 41 114 Q 37 116 35 113 Q 31 109 30 104 Q 29 102 33 98 Q 42 88 46 79 Q 64 38 59 28 Q 57 24 60 23 Q 64 22 69 25 Q 79 32 80 35 Q 81 37 77 42 Q 63 64 49 93" fill="#CCCCCC"/><path d="M 65 105 Q 64 105 63 105 Q 45 110 41 114 L 49 93 Q 46 99 54 98 Q 61 98 69 98" fill="#CCCCCC"/><path d="M 53 151 Q 49 154 46 152 Q 40 148 39 144 Q 38 141 41 139 Q 43 137 65 105 L 69 98 Q 70 97 71 96 Q 84 71 82 62 Q 81 58 84 57 Q 86 56 90 58 Q 99 62 101 66 Q 103 69 100 71 Q 95 77 88 87 Q 68 116 59 130" fill="#CCCCCC"/><path d="M 67 138 L 53 151 L 59 130 Q 58 134 61 133 Q 76 126 89 122 L 90 127" fill="#CCCCCC"/><path d="M 89 122 Q 86 111 86 110 Q 88 107 90 108 Q 93 110 99 118 Q 103 122 104 126 Q 104 132 103 134 Q 100 138 97 136 Q 92 134 90 127" fill="#CCCCCC"/><path d="M 19 180 L 19 177 Q 20 174 22 174 Q 25 174 41 190 Q 47 197 46 203 Q 45 211 42 213 Q 40 216 37 215 Q 34 213 32 209 Q 27 198 23 188" fill="#CCCCCC"/><path d="M 48 169 L 48 167 Q 48 164 49 164 Q 51 164 53 165 Q 69 173 70 179 Q 70 185 68 188 Q 66 190 65 190 Q 62 189 52 174" fill="#CCCCCC"/><path d="M 76 156 L 76 153 Q 76 150 77 150 Q 79 150 82 151 Q 96 160 96 165 Q 96 172 94 174 Q 92 177 91 176 Q 87 175 80 161" fill="#CCCCCC"/><path d="M 153 58 Q 151 58 150 58 Q 139 61 130 56 Q 125 52 132 51 Q 143 50 153 48 L 166 45 Q 176 42 185 38 Q 192 36 198 37 Q 204 38 206 41 Q 206 43 205 44 Q 204 45 165 55" fill="#CCCCCC"/><path d="M 124 88 Q 124 97 127 118 Q 129 137 127 140 Q 126 143 123 141 Q 119 139 117 135 Q 115 131 115 126 Q 115 92 108 80 Q 107 77 108 76 Q 109 75 110 75 Q 115 76 120 80" fill="#CCCCCC"/><path d="M 153 79 Q 140 82 124 88 L 120 80 Q 130 78 144 74 Q 148 72 153 72 L 164 69 Q 181 65 188 64 Q 204 60 206 61 L 199 72 Q 194 69 164 77" fill="#CCCCCC"/><path d="M 206 61 Q 221 69 225 73 Q 230 77 225 81 Q 216 89 212 102 Q 206 122 203 126 Q 201 130 198 131 Q 194 131 193 127 Q 191 123 193 118 Q 196 112 200 82 Q 202 73 199 72" fill="#CCCCCC"/><path d="M 153 103 Q 145 105 139 103 Q 135 100 140 98 Q 147 97 153 96 L 164 92 Q 172 87 179 88 Q 184 88 185 90 Q 186 91 185 93 Q 184 94 178 96 Q 170 98 164 100" fill="#CCCCCC"/><path d="M 145 124 L 138 121 Q 134 119 140 118 Q 147 117 153 115 L 163 112 Q 175 108 179 108 Q 184 109 185 111 Q 185 112 184 113 Q 184 113 163 120 L 153 122" fill="#CCCCCC"/><path d="M 153 115 Q 153 109 153 103 L 153 96 Q 153 88 153 79 L 153 72 Q 153 64 153 58 L 153 48 Q 152 34 152 25 Q 152 20 147 17 Q 145 14 147 12 Q 150 10 153 11 Q 162 13 167 17 Q 171 20 170 23 Q 166 27 166 45 L 165 55 Q 165 61 164 69 L 164 77 Q 164 84 164 92 L 164 100 Q 163 107 163 112 L 163 120 Q 161 135 161 136 Q 159 141 156 138 Q 154 136 153 122" fill="#CCCCCC"/><path d="M 199 22 L 198 19 Q 198 16 199 15 Q 200 14 204 15 Q 223 17 225 23 Q 228 30 227 34 Q 226 38 224 38 Q 219 38 216 35 Q 211 31 206 27" fill="#CCCCCC"/><path d="M 147 161 L 121 168 Q 110 171 104 165 Q 101 161 105 160 Q 174 152 176 152 L 191 150 Q 206 147 217 146 Q 234 141 247 150 Q 250 153 249 156 Q 248 158 244 158 Q 202 158 190 158 L 176 159" fill="#CCCCCC"/><path d="M 176 152 Q 175 143 170 135 Q 167 131 169 129 Q 171 127 176 128 Q 184 131 190 136 Q 194 139 193 144 Q 191 147 191 150 L 190 158 Q 190 206 193 228 Q 194 245 185 255 Q 181 259 177 255 L 174 228 Q 179 223 176 159" fill="#CCCCCC"/><path d="M 177 255 Q 171 246 152 232 Q 149 230 149 228 Q 148 226 152 226 Q 172 229 174 228" fill="#CCCCCC"/><path d="M 123 183 L 123 180 Q 123 177 124 176 Q 126 175 130 177 Q 150 184 151 191 Q 152 199 150 202 Q 149 205 146 205 Q 142 204 129 189" fill="#CCCCCC"/><path d="M 41 114 Q 37 116 35 113 Q 31 109 30 104 Q 29 102 33 98 Q 42 88 46 79 Q 64 38 59 28 Q 57 24 60 23 Q 64 22 69 25 Q 79 32 80 35 Q 81 37 77 42 Q 63 64 49 93" fill="#000000" /><path d="M 65 105 Q 64 105 63 105 Q 45 110 41 114 L 49 93 Q 46 99 54 98 Q 61 98 69 98" fill="#000000" /><path d="M 53 151 Q 49 154 46 152 Q 40 148 39 144 Q 38 141 41 139 Q 43 137 65 105 L 69 98 Q 70 97 71 96 Q 84 71 82 62 Q 81 58 84 57 Q 86 56 90 58 Q 99 62 101 66 Q 103 69 100 71 Q 95 77 88 87 Q 68 116 59 130" fill="#110000" /><path d="M 67 138 L 53 151 L 59 130 Q 58 134 61 133 Q 76 126 89 122 L 90 127" fill="#110000" /><path d="M 89 122 Q 86 111 86 110 Q 88 107 90 108 Q 93 110 99 118 Q 103 122 104 126 Q 104 132 103 134 Q 100 138 97 136 Q 92 134 90 127" fill="#220000" /><path d="M 19 180 L 19 177 Q 20 174 22 174 Q 25 174 41 190 Q 47 197 46 203 Q 45 211 42 213 Q 40 216 37 215 Q 34 213 32 209 Q 27 198 23 188" fill="#330000" /><path d="M 48 169 L 48 167 Q 48 164 49 164 Q 51 164 53 165 Q 69 173 70 179 Q 70 185 68 188 Q 66 190 65 190 Q 62 189 52 174" fill="#440000" /><path d="M 76 156 L 76 153 Q 76 150 77 150 Q 79 150 82 151 Q 96 160 96 165 Q 96 172 94 174 Q 92 177 91 176 Q 87 175 80 161" fill="#550000" /><path d="M 153 58 Q 151 58 150 58 Q 139 61 130 56 Q 125 52 132 51 Q 143 50 153 48 L 166 45 Q 176 42 185 38 Q 192 36 198 37 Q 204 38 206 41 Q 206 43 205 44 Q 204 45 165 55" fill="#660000" /><path d="M 124 88 Q 124 97 127 118 Q 129 137 127 140 Q 126 143 123 141 Q 119 139 117 135 Q 115 131 115 126 Q 115 92 108 80 Q 107 77 108 76 Q 109 75 110 75 Q 115 76 120 80" fill="#770000" /><path d="M 153 79 Q 140 82 124 88 L 120 80 Q 130 78 144 74 Q 148 72 153 72 L 164 69 Q 181 65 188 64 Q 204 60 206 61 L 199 72 Q 194 69 164 77" fill="#880000" /><path d="M 206 61 Q 221 69 225 73 Q 230 77 225 81 Q 216 89 212 102 Q 206 122 203 126 Q 201 130 198 131 Q 194 131 193 127 Q 191 123 193 118 Q 196 112 200 82 Q 202 73 199 72" fill="#880000" /><path d="M 153 103 Q 145 105 139 103 Q 135 100 140 98 Q 147 97 153 96 L 164 92 Q 172 87 179 88 Q 184 88 185 90 Q 186 91 185 93 Q 184 94 178 96 Q 170 98 164 100" fill="#990000" /><path d="M 145 124 L 138 121 Q 134 119 140 118 Q 147 117 153 115 L 163 112 Q 175 108 179 108 Q 184 109 185 111 Q 185 112 184 113 Q 184 113 163 120 L 153 122" fill="#aa0000" /><path d="M 153 115 Q 153 109 153 103 L 153 96 Q 153 88 153 79 L 153 72 Q 153 64 153 58 L 153 48 Q 152 34 152 25 Q 152 20 147 17 Q 145 14 147 12 Q 150 10 153 11 Q 162 13 167 17 Q 171 20 170 23 Q 166 27 166 45 L 165 55 Q 165 61 164 69 L 164 77 Q 164 84 164 92 L 164 100 Q 163 107 163 112 L 163 120 Q 161 135 161 136 Q 159 141 156 138 Q 154 136 153 122" fill="#bb0000" /><path d="M 199 22 L 198 19 Q 198 16 199 15 Q 200 14 204 15 Q 223 17 225 23 Q 228 30 227 34 Q 226 38 224 38 Q 219 38 216 35 Q 211 31 206 27" fill="#cc0000" /><path d="M 147 161 L 121 168 Q 110 171 104 165 Q 101 161 105 160 Q 174 152 176 152 L 191 150 Q 206 147 217 146 Q 234 141 247 150 Q 250 153 249 156 Q 248 158 244 158 Q 202 158 190 158 L 176 159" fill="#dd0000" /><path d="M 176 152 Q 175 143 170 135 Q 167 131 169 129 Q 171 127 176 128 Q 184 131 190 136 Q 194 139 193 144 Q 191 147 191 150 L 190 158 Q 190 206 193 228 Q 194 245 185 255 Q 181 259 177 255 L 174 228 Q 179 223 176 159" fill="#ee0000" /><path d="M 177 255 Q 171 246 152 232 Q 149 230 149 228 Q 148 226 152 226 Q 172 229 174 228" fill="#ee0000" /><path d="M 123 183 L 123 180 Q 123 177 124 176 Q 126 175 130 177 Q 150 184 151 191 Q 152 199 150 202 Q 149 205 146 205 Q 142 204 129 189" fill="#ff0000" /></svg>