<svg xmlns="http://www.w3.org/2000/svg" xmlns:xlink="http://www.w3.org/1999/xlink" width="270" height="270"><path d="M 0 0 L 270 270 M 270 0 L 0 270 M 135 0 L 135 270 M 0 135 L 270 135" stroke="#CCCCCC" /><path d="M 63 103 Q 50 124 41 128 Q 38 129 38 126 Q 39 124 41 122 Q 51 105 58 91 Q 72 58 66 50 Q 64 45 68 44 Q 73 43 80 47 Q 88 52 89 55 Q 91 58 89 61 Q 85 65 82 73 Q 74 87 67 98" fill="#000000" /><path d="M 74 106 Q 68 106 63 103 L 67 98 Q 77 95 85 94 Q 93 91 100 88 Q 107 85 114 86 Q 121 87 123 90 Q 124 92 122 94 Q 121 95 115 96 Q 85 105 85 105" fill="#1c0000" /><path d="M 78 147 Q 62 150 40 157 Q 30 161 20 154 Q 16 150 17 148 Q 18 146 21 146 Q 38 144 78 137 L 91 134 Q 100 132 110 130 Q 115 129 122 132 Q 127 134 127 137 Q 126 140 122 140 Q 105 142 91 145" fill="#380000" /><path d="M 76 194 Q 77 165 78 147 L 78 137 Q 78 115 74 106 L 85 105 Q 88 107 92 111 Q 95 113 93 118 Q 92 121 91 134 L 91 145 Q 89 166 88 191" fill="#550000" /><path d="M 43 219 Q 41 221 37 219 Q 33 216 31 213 Q 29 209 33 205 Q 38 201 40 192 Q 43 182 40 172 Q 39 167 41 166 Q 44 166 46 168 Q 51 171 54 176 Q 56 180 51 199" fill="#710000" /><path d="M 99 197 L 88 200 Q 49 211 43 219 L 51 199 Q 50 201 53 201 Q 63 197 76 194 L 88 191 Q 97 189 106 187 L 105 196" fill="#710000" /><path d="M 106 187 Q 107 186 107 186 Q 107 174 106 170 Q 106 167 108 166 Q 110 165 112 166 Q 115 168 119 171 Q 122 174 120 178 Q 119 182 118 186 Q 118 186 118 188 Q 118 187 118 187 Q 113 206 111 209 Q 109 211 107 209 Q 103 202 105 196" fill="#8d0000" /><path d="M 160 109 Q 156 110 153 111 Q 144 114 137 111 Q 132 109 132 107 Q 131 104 135 104 Q 148 102 160 100 L 172 96 Q 182 93 192 89 Q 198 87 203 89 Q 217 95 221 98 L 195 104 Q 193 101 171 107" fill="#aa0000" /><path d="M 221 98 Q 225 103 221 108 Q 211 117 204 144 L 190 147 Q 195 132 198 113 Q 198 107 195 104" fill="#aa0000" /><path d="M 155 163 Q 146 165 137 167 Q 133 168 128 167 Q 124 166 121 163 Q 117 159 122 159 Q 140 155 156 153 L 169 151 Q 175 149 190 147 L 204 144 Q 210 142 216 141 Q 230 137 244 146 Q 248 149 247 152 Q 246 154 241 154 Q 183 155 168 160" fill="#c60000" /><path d="M 161 202 L 147 217 Q 135 229 118 234 Q 108 238 104 237 Q 101 237 101 236 Q 101 234 104 233 Q 117 225 127 218 Q 150 200 155 163 L 156 153 Q 159 131 160 109 L 160 100 Q 160 81 160 61 Q 159 48 153 38 Q 151 35 153 33 Q 156 31 162 33 Q 173 37 179 41 Q 182 44 180 48 Q 173 68 172 96 L 171 107 Q 170 128 169 151 Q 169 151 169 151 L 168 160 Q 168 163 167 165 L 166 174" fill="#e20000" /><path d="M 167 165 Q 180 179 191 190 Q 213 212 250 230 Q 253 232 253 233 Q 253 235 250 235 Q 242 236 216 236 Q 208 236 204 230 Q 183 201 166 174" fill="#ff0000" /></svg>