<svg xmlns="http://www.w3.org/2000/svg" xmlns:xlink="http://www.w3.org/1999/xlink" width="270" height="270"><path d="M 0 0 L 270 270 M 270 0 L 0 270 M 135 0 L 135 270 M 0 135 L 270 135" stroke="#CCCCCC" /><path d="M 105 79 L 105 80 Q 104 85 99 79 Q 95 75 93 70 Q 88 50 80 39 Q 78 35 79 33 Q 80 32 83 32 Q 85 32 86 33 L 99 42 Q 101 49 105 68 Q 105 69 105 70 L 105 78" fill="#CCCCCC"/><path d="M 123 38 Q 111 40 103 42 Q 101 43 99 42 L 86 33 Q 105 32 130 28 Q 164 22 191 20 Q 209 16 214 20 Q 226 28 230 33 L 205 29 Q 199 26 171 31 L 162 32 Q 143 34 129 36" fill="#CCCCCC"/><path d="M 194 62 Q 194 60 196 59 Q 198 55 205 36 Q 207 31 205 29 L 230 33 Q 234 38 228 41 Q 218 48 212 60 Q 202 73 198 73 Q 195 72 194 69" fill="#CCCCCC"/><path d="M 129 67 Q 128 66 127 64 Q 125 61 123 38 L 123 38 L 129 36 Q 130 37 130 39 Q 138 54 136 67" fill="#CCCCCC"/><path d="M 157 63 Q 157 62 157 62 Q 164 38 162 33 Q 162 32 162 32 L 171 31 Q 177 34 179 38 Q 181 40 177 43 Q 175 46 173 49 Q 170 55 166 60 Q 166 60 166 61" fill="#CCCCCC"/><path d="M 105 70 Q 116 68 129 67 L 136 67 Q 146 65 157 63 L 166 61 Q 186 56 191 59 Q 193 61 194 62 L 194 69 Q 137 72 111 78 Q 108 79 105 78" fill="#CCCCCC"/><path d="M 114 108 L 104 97 Q 98 92 97 89 Q 97 86 98 85 Q 100 85 103 86 Q 120 90 122 96 Q 123 103 122 107 Q 122 107 122 108 L 115 109" fill="#CCCCCC"/><path d="M 122 108 Q 137 103 146 107 Q 151 110 150 113 Q 150 115 146 116 Q 101 121 61 134 Q 50 137 39 130 Q 35 127 36 124 Q 37 122 41 121 Q 63 119 115 109" fill="#CCCCCC"/><path d="M 93 140 L 101 137 Q 120 130 125 131 Q 131 132 133 134 Q 135 136 133 138 Q 132 139 126 140 Q 115 143 103 147 Q 92 150 83 146 Q 77 143 85 141" fill="#CCCCCC"/><path d="M 96 160 L 103 159 Q 121 152 126 153 Q 132 154 134 156 Q 136 158 134 160 Q 133 161 128 162 Q 120 164 113 166 Q 96 171 86 167 Q 80 163 88 162" fill="#CCCCCC"/><path d="M 91 222 L 91 223 Q 94 232 92 237 Q 91 241 86 236 Q 82 232 80 225 Q 74 203 66 191 Q 64 187 65 185 Q 66 184 69 184 Q 79 185 82 186 L 85 194 Q 85 200 89 213 L 91 222" fill="#CCCCCC"/><path d="M 82 186 Q 98 182 112 177 Q 124 170 142 182 Q 146 186 142 190 L 120 186 Q 119 185 89 192 Q 86 194 85 194" fill="#CCCCCC"/><path d="M 119 205 Q 121 198 122 191 Q 122 187 120 186 L 142 190 Q 136 194 132 206" fill="#CCCCCC"/><path d="M 89 213 Q 102 210 119 205 Q 119 205 119 205 L 132 206 Q 139 210 139 212 Q 138 214 136 215 Q 93 220 91 222" fill="#CCCCCC"/><path d="M 163 108 L 165 106 Q 169 105 179 111 Q 184 114 182 119 Q 179 141 180 163 Q 181 173 176 181 Q 173 184 171 181 Q 164 174 166 165 Q 171 129 164 112" fill="#CCCCCC"/><path d="M 209 96 L 204 89 Q 199 83 204 81 Q 209 79 218 84 Q 232 89 228 97 Q 221 126 228 197 Q 231 230 226 244 Q 221 253 218 253 Q 214 252 210 244 L 210 220 Q 213 218 213 214 Q 211 111 210 105" fill="#CCCCCC"/><path d="M 210 244 Q 206 236 191 223 Q 186 218 186 217 Q 185 214 194 218 Q 209 221 210 220" fill="#CCCCCC"/><path d="M 105 79 L 105 80 Q 104 85 99 79 Q 95 75 93 70 Q 88 50 80 39 Q 78 35 79 33 Q 80 32 83 32 Q 85 32 86 33 L 99 42 Q 101 49 105 68 Q 105 69 105 70 L 105 78" fill="#000000" /><path d="M 123 38 Q 111 40 103 42 Q 101 43 99 42 L 86 33 Q 105 32 130 28 Q 164 22 191 20 Q 209 16 214 20 Q 226 28 230 33 L 205 29 Q 199 26 171 31 L 162 32 Q 143 34 129 36" fill="#130000" /><path d="M 194 62 Q 194 60 196 59 Q 198 55 205 36 Q 207 31 205 29 L 230 33 Q 234 38 228 41 Q 218 48 212 60 Q 202 73 198 73 Q 195 72 194 69" fill="#130000" /><path d="M 129 67 Q 128 66 127 64 Q 125 61 123 38 L 123 38 L 129 36 Q 130 37 130 39 Q 138 54 136 67" fill="#270000" /><path d="M 157 63 Q 157 62 157 62 Q 164 38 162 33 Q 162 32 162 32 L 171 31 Q 177 34 179 38 Q 181 40 177 43 Q 175 46 173 49 Q 170 55 166 60 Q 166 60 166 61" fill="#3a0000" /><path d="M 105 70 Q 116 68 129 67 L 136 67 Q 146 65 157 63 L 166 61 Q 186 56 191 59 Q 193 61 194 62 L 194 69 Q 137 72 111 78 Q 108 79 105 78" fill="#4e0000" /><path d="M 114 108 L 104 97 Q 98 92 97 89 Q 97 86 98 85 Q 100 85 103 86 Q 120 90 122 96 Q 123 103 122 107 Q 122 107 122 108 L 115 109" fill="#620000" /><path d="M 122 108 Q 137 103 146 107 Q 151 110 150 113 Q 150 115 146 116 Q 101 121 61 134 Q 50 137 39 130 Q 35 127 36 124 Q 37 122 41 121 Q 63 119 115 109" fill="#750000" /><path d="M 93 140 L 101 137 Q 120 130 125 131 Q 131 132 133 134 Q 135 136 133 138 Q 132 139 126 140 Q 115 143 103 147 Q 92 150 83 146 Q 77 143 85 141" fill="#890000" /><path d="M 96 160 L 103 159 Q 121 152 126 153 Q 132 154 134 156 Q 136 158 134 160 Q 133 161 128 162 Q 120 164 113 166 Q 96 171 86 167 Q 80 163 88 162" fill="#9c0000" /><path d="M 91 222 L 91 223 Q 94 232 92 237 Q 91 241 86 236 Q 82 232 80 225 Q 74 203 66 191 Q 64 187 65 185 Q 66 184 69 184 Q 79 185 82 186 L 85 194 Q 85 200 89 213 L 91 222" fill="#b00000" /><path d="M 82 186 Q 98 182 112 177 Q 124 170 142 182 Q 146 186 142 190 L 120 186 Q 119 185 89 192 Q 86 194 85 194" fill="#c40000" /><path d="M 119 205 Q 121 198 122 191 Q 122 187 120 186 L 142 190 Q 136 194 132 206" fill="#c40000" /><path d="M 89 213 Q 102 210 119 205 Q 119 205 119 205 L 132 206 Q 139 210 139 212 Q 138 214 136 215 Q 93 220 91 222" fill="#d70000" /><path d="M 163 108 L 165 106 Q 169 105 179 111 Q 184 114 182 119 Q 179 141 180 163 Q 181 173 176 181 Q 173 184 171 181 Q 164 174 166 165 Q 171 129 164 112" fill="#eb0000" /><path d="M 209 96 L 204 89 Q 199 83 204 81 Q 209 79 218 84 Q 232 89 228 97 Q 221 126 228 197 Q 231 230 226 244 Q 221 253 218 253 Q 214 252 210 244 L 210 220 Q 213 218 213 214 Q 211 111 210 105" fill="#ff0000" /><path d="M 210 244 Q 206 236 191 223 Q 186 218 186 217 Q 185 214 194 218 Q 209 221 210 220" fill="#ff0000" /></svg>