<svg xmlns="http://www.w3.org/2000/svg" xmlns:xlink="http://www.w3.org/1999/xlink" width="270" height="270"><path d="M 0 0 L 270 270 M 270 0 L 0 270 M 135 0 L 135 270 M 0 135 L 270 135" stroke="#CCCCCC" /><path d="M 80 77 L 80 78 Q 79 82 74 77 Q 70 73 68 68 Q 62 48 55 37 Q 52 33 54 31 Q 54 30 57 30 Q 65 30 69 32 L 73 41 Q 75 48 79 65 Q 79 67 80 69 L 80 77" fill="#CCCCCC"/><path d="M 133 30 Q 114 33 101 35 L 95 36 Q 83 38 76 41 Q 74 41 73 41 L 69 32 Q 82 30 101 27 Q 144 19 156 19 Q 177 15 181 18 Q 193 25 197 30 L 173 28 Q 167 25 144 29" fill="#CCCCCC"/><path d="M 164 62 Q 164 61 165 61 Q 167 57 173 35 Q 175 30 173 28 L 197 30 Q 201 34 196 38 Q 186 45 181 57 Q 172 72 167 73 Q 164 73 163 69 Q 163 68 163 67" fill="#CCCCCC"/><path d="M 101 35 Q 102 36 103 38 Q 110 52 110 65 L 102 66 Q 97 59 97 48 Q 96 41 95 37 L 95 36" fill="#CCCCCC"/><path d="M 127 61 Q 127 61 127 61 Q 135 36 133 30 L 144 29 Q 148 31 150 34 Q 152 37 148 39 Q 145 43 144 46 Q 140 53 137 58 Q 136 59 136 60" fill="#CCCCCC"/><path d="M 80 69 Q 90 67 102 66 L 110 65 Q 118 63 127 61 L 136 60 Q 153 55 158 58 Q 162 61 164 62 L 163 67 Q 109 71 84 77 Q 82 77 80 77" fill="#CCCCCC"/><path d="M 37 137 Q 35 139 33 138 Q 30 137 28 132 Q 25 128 25 123 Q 25 121 31 118 Q 34 117 37 116 Q 59 100 58 86 Q 57 81 59 81 Q 62 80 67 81 Q 75 84 77 86 Q 79 89 75 92 Q 69 96 52 114 Q 51 116 52 116" fill="#CCCCCC"/><path d="M 102 110 L 101 110 Q 54 125 37 137 L 52 116 Q 52 116 100 105 L 103 109" fill="#CCCCCC"/><path d="M 100 105 Q 98 103 97 101 Q 91 95 91 93 Q 92 90 93 89 Q 97 88 112 98 Q 119 103 119 108 Q 120 115 118 118 Q 116 120 114 120 Q 111 119 103 109" fill="#CCCCCC"/><path d="M 56 202 L 55 206 Q 54 233 45 238 Q 43 239 41 236 Q 34 226 41 209 Q 53 168 43 144 Q 42 141 45 140 Q 52 140 57 145 L 60 152 Q 60 152 60 153 Q 59 157 59 165 L 58 173 Q 57 180 56 191 L 56 198" fill="#CCCCCC"/><path d="M 57 145 Q 69 142 79 138 Q 90 131 95 134 Q 104 137 109 141 Q 111 144 109 148 L 91 145 Q 89 144 85 145 Q 75 148 64 151 Q 62 151 60 152" fill="#CCCCCC"/><path d="M 109 148 Q 104 158 109 228 Q 110 238 100 252 Q 98 254 96 253 Q 92 252 89 247 L 92 229 Q 93 226 93 221 Q 95 195 93 152 Q 93 147 91 145" fill="#CCCCCC"/><path d="M 89 247 Q 83 239 70 227 Q 70 225 75 226 Q 90 230 92 229" fill="#CCCCCC"/><path d="M 59 165 Q 65 160 77 161 Q 83 162 86 165 Q 88 168 83 169 Q 72 171 58 173" fill="#CCCCCC"/><path d="M 56 191 Q 71 186 78 187 Q 84 188 87 191 Q 89 194 83 195 Q 71 196 56 198" fill="#CCCCCC"/><path d="M 152 101 L 156 99 Q 177 85 177 80 Q 178 77 180 77 Q 188 78 193 91 Q 194 95 189 96 Q 184 96 179 99 Q 153 107 148 109 L 148 104" fill="#CCCCCC"/><path d="M 148 109 Q 148 117 150 121 L 148 136 Q 136 130 138 97 Q 138 89 135 80 Q 134 76 136 75 Q 137 74 140 75 Q 146 77 149 80 Q 151 82 150 86 Q 148 96 148 104" fill="#CCCCCC"/><path d="M 150 121 Q 155 132 187 126 L 213 122 Q 216 128 212 131 Q 190 149 157 140 Q 151 138 148 136" fill="#CCCCCC"/><path d="M 187 126 Q 194 123 202 106 Q 203 103 204 103 Q 206 104 206 107 Q 211 119 213 122" fill="#CCCCCC"/><path d="M 158 177 L 166 172 Q 188 159 189 152 Q 189 149 192 149 Q 195 150 200 155 Q 205 161 207 166 Q 208 171 202 171 Q 196 172 190 174 Q 159 185 148 188 L 148 183" fill="#CCCCCC"/><path d="M 148 188 Q 147 211 161 218 L 146 227 Q 139 221 138 214 Q 135 204 136 170 Q 136 159 132 149 Q 131 143 133 142 Q 135 141 139 142 Q 145 145 149 148 Q 152 151 151 156 Q 148 170 148 183" fill="#CCCCCC"/><path d="M 161 218 Q 180 226 203 221 Q 212 218 215 214 L 240 215 Q 244 222 239 226 Q 228 234 218 237 Q 213 239 208 240 Q 167 245 146 227" fill="#CCCCCC"/><path d="M 215 214 Q 220 207 228 185 Q 230 180 231 181 Q 233 182 233 186 Q 237 208 240 215" fill="#CCCCCC"/><path d="M 80 77 L 80 78 Q 79 82 74 77 Q 70 73 68 68 Q 62 48 55 37 Q 52 33 54 31 Q 54 30 57 30 Q 65 30 69 32 L 73 41 Q 75 48 79 65 Q 79 67 80 69 L 80 77" fill="#000000" /><path d="M 133 30 Q 114 33 101 35 L 95 36 Q 83 38 76 41 Q 74 41 73 41 L 69 32 Q 82 30 101 27 Q 144 19 156 19 Q 177 15 181 18 Q 193 25 197 30 L 173 28 Q 167 25 144 29" fill="#120000" /><path d="M 164 62 Q 164 61 165 61 Q 167 57 173 35 Q 175 30 173 28 L 197 30 Q 201 34 196 38 Q 186 45 181 57 Q 172 72 167 73 Q 164 73 163 69 Q 163 68 163 67" fill="#120000" /><path d="M 101 35 Q 102 36 103 38 Q 110 52 110 65 L 102 66 Q 97 59 97 48 Q 96 41 95 37 L 95 36" fill="#240000" /><path d="M 127 61 Q 127 61 127 61 Q 135 36 133 30 L 144 29 Q 148 31 150 34 Q 152 37 148 39 Q 145 43 144 46 Q 140 53 137 58 Q 136 59 136 60" fill="#360000" /><path d="M 80 69 Q 90 67 102 66 L 110 65 Q 118 63 127 61 L 136 60 Q 153 55 158 58 Q 162 61 164 62 L 163 67 Q 109 71 84 77 Q 82 77 80 77" fill="#480000" /><path d="M 37 137 Q 35 139 33 138 Q 30 137 28 132 Q 25 128 25 123 Q 25 121 31 118 Q 34 117 37 116 Q 59 100 58 86 Q 57 81 59 81 Q 62 80 67 81 Q 75 84 77 86 Q 79 89 75 92 Q 69 96 52 114 Q 51 116 52 116" fill="#5b0000" /><path d="M 102 110 L 101 110 Q 54 125 37 137 L 52 116 Q 52 116 100 105 L 103 109" fill="#5b0000" /><path d="M 100 105 Q 98 103 97 101 Q 91 95 91 93 Q 92 90 93 89 Q 97 88 112 98 Q 119 103 119 108 Q 120 115 118 118 Q 116 120 114 120 Q 111 119 103 109" fill="#6d0000" /><path d="M 56 202 L 55 206 Q 54 233 45 238 Q 43 239 41 236 Q 34 226 41 209 Q 53 168 43 144 Q 42 141 45 140 Q 52 140 57 145 L 60 152 Q 60 152 60 153 Q 59 157 59 165 L 58 173 Q 57 180 56 191 L 56 198" fill="#7f0000" /><path d="M 57 145 Q 69 142 79 138 Q 90 131 95 134 Q 104 137 109 141 Q 111 144 109 148 L 91 145 Q 89 144 85 145 Q 75 148 64 151 Q 62 151 60 152" fill="#910000" /><path d="M 109 148 Q 104 158 109 228 Q 110 238 100 252 Q 98 254 96 253 Q 92 252 89 247 L 92 229 Q 93 226 93 221 Q 95 195 93 152 Q 93 147 91 145" fill="#910000" /><path d="M 89 247 Q 83 239 70 227 Q 70 225 75 226 Q 90 230 92 229" fill="#910000" /><path d="M 59 165 Q 65 160 77 161 Q 83 162 86 165 Q 88 168 83 169 Q 72 171 58 173" fill="#a30000" /><path d="M 56 191 Q 71 186 78 187 Q 84 188 87 191 Q 89 194 83 195 Q 71 196 56 198" fill="#b60000" /><path d="M 152 101 L 156 99 Q 177 85 177 80 Q 178 77 180 77 Q 188 78 193 91 Q 194 95 189 96 Q 184 96 179 99 Q 153 107 148 109 L 148 104" fill="#c80000" /><path d="M 148 109 Q 148 117 150 121 L 148 136 Q 136 130 138 97 Q 138 89 135 80 Q 134 76 136 75 Q 137 74 140 75 Q 146 77 149 80 Q 151 82 150 86 Q 148 96 148 104" fill="#da0000" /><path d="M 150 121 Q 155 132 187 126 L 213 122 Q 216 128 212 131 Q 190 149 157 140 Q 151 138 148 136" fill="#da0000" /><path d="M 187 126 Q 194 123 202 106 Q 203 103 204 103 Q 206 104 206 107 Q 211 119 213 122" fill="#da0000" /><path d="M 158 177 L 166 172 Q 188 159 189 152 Q 189 149 192 149 Q 195 150 200 155 Q 205 161 207 166 Q 208 171 202 171 Q 196 172 190 174 Q 159 185 148 188 L 148 183" fill="#ec0000" /><path d="M 148 188 Q 147 211 161 218 L 146 227 Q 139 221 138 214 Q 135 204 136 170 Q 136 159 132 149 Q 131 143 133 142 Q 135 141 139 142 Q 145 145 149 148 Q 152 151 151 156 Q 148 170 148 183" fill="#ff0000" /><path d="M 161 218 Q 180 226 203 221 Q 212 218 215 214 L 240 215 Q 244 222 239 226 Q 228 234 218 237 Q 213 239 208 240 Q 167 245 146 227" fill="#ff0000" /><path d="M 215 214 Q 220 207 228 185 Q 230 180 231 181 Q 233 182 233 186 Q 237 208 240 215" fill="#ff0000" /></svg>