<svg xmlns="http://www.w3.org/2000/svg" xmlns:xlink="http://www.w3.org/1999/xlink" width="270" height="270"><path d="M 0 0 L 270 270 M 270 0 L 0 270 M 135 0 L 135 270 M 0 135 L 270 135" stroke="#CCCCCC" /><path d="M 86 77 L 86 78 Q 85 83 80 78 Q 76 74 75 68 Q 68 49 61 38 Q 58 35 59 33 Q 60 31 63 32 Q 70 32 74 33 L 78 42 Q 85 65 86 70 L 86 76" fill="#CCCCCC"/><path d="M 101 37 Q 87 39 78 42 L 74 33 Q 87 31 103 28 Q 136 22 162 20 Q 181 16 185 18 Q 196 25 201 30 L 178 29 Q 172 26 148 30 L 137 31 Q 120 33 107 36" fill="#CCCCCC"/><path d="M 170 57 Q 173 52 178 35 Q 179 30 178 29 L 201 30 Q 204 34 200 37 Q 190 44 186 56 Q 177 70 173 71 Q 170 71 169 67 Q 168 65 168 64" fill="#CCCCCC"/><path d="M 109 66 Q 105 62 104 56 Q 102 43 101 37 L 107 36 Q 108 37 109 39 Q 109 41 110 42 Q 115 56 115 64 Q 114 65 114 65" fill="#CCCCCC"/><path d="M 134 61 Q 140 37 137 31 L 148 30 Q 151 31 153 34 Q 155 36 152 38 Q 150 41 143 58 Q 142 59 142 60" fill="#CCCCCC"/><path d="M 86 70 Q 97 67 109 66 L 114 65 Q 124 63 134 61 L 142 60 Q 164 56 168 57 Q 169 57 170 57 L 168 64 Q 136 69 94 76 Q 89 76 86 76" fill="#CCCCCC"/><path d="M 48 150 Q 45 152 42 149 Q 39 145 38 141 Q 38 139 42 135 Q 48 129 52 124 Q 67 96 64 88 Q 62 84 65 84 Q 69 83 72 86 Q 81 93 81 96 Q 82 98 79 102 Q 68 115 56 133" fill="#CCCCCC"/><path d="M 72 142 Q 71 142 71 142 Q 53 147 48 150 L 56 133 Q 54 137 59 136 Q 67 136 77 135" fill="#CCCCCC"/><path d="M 54 186 Q 50 189 48 186 Q 42 182 41 179 Q 41 175 44 173 Q 49 170 72 142 L 77 135 Q 88 117 88 110 Q 87 106 90 106 Q 92 105 96 108 Q 103 112 106 117 Q 107 119 104 122 Q 98 126 91 135 Q 71 157 62 168" fill="#CCCCCC"/><path d="M 68 175 L 54 186 L 62 168 Q 61 171 64 170 Q 80 164 94 161 L 95 165" fill="#CCCCCC"/><path d="M 94 161 Q 90 151 91 149 Q 92 147 93 147 Q 94 148 96 150 Q 107 161 106 168 Q 105 171 103 172 Q 101 173 99 172 Q 95 167 95 165" fill="#CCCCCC"/><path d="M 34 210 L 34 207 Q 35 204 37 204 Q 39 204 42 206 Q 60 221 60 229 Q 59 237 57 239 Q 54 242 52 241 Q 48 240 46 235 Q 42 226 38 218" fill="#CCCCCC"/><path d="M 62 200 L 62 198 Q 63 195 64 195 Q 65 195 68 196 Q 83 204 84 210 Q 85 216 83 219 Q 81 221 79 221 Q 76 220 67 205" fill="#CCCCCC"/><path d="M 89 187 L 88 185 Q 89 183 90 182 Q 91 182 94 183 Q 108 191 109 196 Q 109 202 108 204 Q 106 206 104 206 Q 101 205 99 203 Q 96 197 93 192" fill="#CCCCCC"/><path d="M 124 129 Q 111 141 108 141 Q 106 142 106 139 Q 107 138 109 136 Q 117 125 123 114 Q 136 92 133 85 Q 132 81 135 81 Q 139 80 145 84 Q 150 89 152 91 Q 152 94 150 97 Q 147 99 144 105 Q 137 114 131 121" fill="#CCCCCC"/><path d="M 138 217 Q 138 244 134 250 Q 131 253 129 250 Q 120 239 123 225 Q 126 215 127 207 Q 131 136 124 129 L 131 121 Q 139 124 140 129 Q 141 131 140 136 Q 139 141 138 211" fill="#CCCCCC"/><path d="M 166 87 L 165 85 Q 164 82 166 81 Q 167 81 170 81 Q 188 85 190 90 Q 193 96 192 100 Q 191 103 189 103 Q 185 103 172 91" fill="#CCCCCC"/><path d="M 168 128 Q 157 130 149 126 Q 144 123 152 121 Q 160 119 181 115 Q 202 108 205 109 Q 211 110 213 112 Q 214 114 212 116 Q 211 117 179 125" fill="#CCCCCC"/><path d="M 172 159 Q 171 159 171 159 Q 159 162 152 158 Q 146 155 153 153 Q 163 152 172 150 L 184 145 Q 196 140 202 141 Q 207 142 209 145 Q 210 146 208 148 Q 208 148 184 155" fill="#CCCCCC"/><path d="M 173 185 Q 171 185 170 185 Q 158 189 150 184 Q 145 181 152 180 Q 163 178 172 176 L 184 173 Q 198 166 205 168 Q 211 169 212 172 Q 213 173 211 175 Q 210 175 184 182" fill="#CCCCCC"/><path d="M 173 194 L 173 185 L 172 176 Q 172 166 172 159 L 172 150 Q 171 133 168 128 L 179 125 Q 187 132 185 137 Q 184 141 184 145 L 184 155 Q 184 164 184 173 L 184 182 Q 184 193 183 204 L 173 206" fill="#CCCCCC"/><path d="M 183 204 Q 195 202 203 201 Q 219 196 231 206 Q 235 209 234 211 Q 233 213 228 213 Q 175 213 152 220 Q 145 221 138 217 L 138 211 Q 156 208 173 206" fill="#CCCCCC"/><path d="M 86 77 L 86 78 Q 85 83 80 78 Q 76 74 75 68 Q 68 49 61 38 Q 58 35 59 33 Q 60 31 63 32 Q 70 32 74 33 L 78 42 Q 85 65 86 70 L 86 76" fill="#000000" /><path d="M 101 37 Q 87 39 78 42 L 74 33 Q 87 31 103 28 Q 136 22 162 20 Q 181 16 185 18 Q 196 25 201 30 L 178 29 Q 172 26 148 30 L 137 31 Q 120 33 107 36" fill="#0e0000" /><path d="M 170 57 Q 173 52 178 35 Q 179 30 178 29 L 201 30 Q 204 34 200 37 Q 190 44 186 56 Q 177 70 173 71 Q 170 71 169 67 Q 168 65 168 64" fill="#0e0000" /><path d="M 109 66 Q 105 62 104 56 Q 102 43 101 37 L 107 36 Q 108 37 109 39 Q 109 41 110 42 Q 115 56 115 64 Q 114 65 114 65" fill="#1c0000" /><path d="M 134 61 Q 140 37 137 31 L 148 30 Q 151 31 153 34 Q 155 36 152 38 Q 150 41 143 58 Q 142 59 142 60" fill="#2a0000" /><path d="M 86 70 Q 97 67 109 66 L 114 65 Q 124 63 134 61 L 142 60 Q 164 56 168 57 Q 169 57 170 57 L 168 64 Q 136 69 94 76 Q 89 76 86 76" fill="#380000" /><path d="M 48 150 Q 45 152 42 149 Q 39 145 38 141 Q 38 139 42 135 Q 48 129 52 124 Q 67 96 64 88 Q 62 84 65 84 Q 69 83 72 86 Q 81 93 81 96 Q 82 98 79 102 Q 68 115 56 133" fill="#460000" /><path d="M 72 142 Q 71 142 71 142 Q 53 147 48 150 L 56 133 Q 54 137 59 136 Q 67 136 77 135" fill="#460000" /><path d="M 54 186 Q 50 189 48 186 Q 42 182 41 179 Q 41 175 44 173 Q 49 170 72 142 L 77 135 Q 88 117 88 110 Q 87 106 90 106 Q 92 105 96 108 Q 103 112 106 117 Q 107 119 104 122 Q 98 126 91 135 Q 71 157 62 168" fill="#550000" /><path d="M 68 175 L 54 186 L 62 168 Q 61 171 64 170 Q 80 164 94 161 L 95 165" fill="#550000" /><path d="M 94 161 Q 90 151 91 149 Q 92 147 93 147 Q 94 148 96 150 Q 107 161 106 168 Q 105 171 103 172 Q 101 173 99 172 Q 95 167 95 165" fill="#630000" /><path d="M 34 210 L 34 207 Q 35 204 37 204 Q 39 204 42 206 Q 60 221 60 229 Q 59 237 57 239 Q 54 242 52 241 Q 48 240 46 235 Q 42 226 38 218" fill="#710000" /><path d="M 62 200 L 62 198 Q 63 195 64 195 Q 65 195 68 196 Q 83 204 84 210 Q 85 216 83 219 Q 81 221 79 221 Q 76 220 67 205" fill="#7f0000" /><path d="M 89 187 L 88 185 Q 89 183 90 182 Q 91 182 94 183 Q 108 191 109 196 Q 109 202 108 204 Q 106 206 104 206 Q 101 205 99 203 Q 96 197 93 192" fill="#8d0000" /><path d="M 124 129 Q 111 141 108 141 Q 106 142 106 139 Q 107 138 109 136 Q 117 125 123 114 Q 136 92 133 85 Q 132 81 135 81 Q 139 80 145 84 Q 150 89 152 91 Q 152 94 150 97 Q 147 99 144 105 Q 137 114 131 121" fill="#9b0000" /><path d="M 138 217 Q 138 244 134 250 Q 131 253 129 250 Q 120 239 123 225 Q 126 215 127 207 Q 131 136 124 129 L 131 121 Q 139 124 140 129 Q 141 131 140 136 Q 139 141 138 211" fill="#aa0000" /><path d="M 166 87 L 165 85 Q 164 82 166 81 Q 167 81 170 81 Q 188 85 190 90 Q 193 96 192 100 Q 191 103 189 103 Q 185 103 172 91" fill="#b80000" /><path d="M 168 128 Q 157 130 149 126 Q 144 123 152 121 Q 160 119 181 115 Q 202 108 205 109 Q 211 110 213 112 Q 214 114 212 116 Q 211 117 179 125" fill="#c60000" /><path d="M 172 159 Q 171 159 171 159 Q 159 162 152 158 Q 146 155 153 153 Q 163 152 172 150 L 184 145 Q 196 140 202 141 Q 207 142 209 145 Q 210 146 208 148 Q 208 148 184 155" fill="#d40000" /><path d="M 173 185 Q 171 185 170 185 Q 158 189 150 184 Q 145 181 152 180 Q 163 178 172 176 L 184 173 Q 198 166 205 168 Q 211 169 212 172 Q 213 173 211 175 Q 210 175 184 182" fill="#e20000" /><path d="M 173 194 L 173 185 L 172 176 Q 172 166 172 159 L 172 150 Q 171 133 168 128 L 179 125 Q 187 132 185 137 Q 184 141 184 145 L 184 155 Q 184 164 184 173 L 184 182 Q 184 193 183 204 L 173 206" fill="#f00000" /><path d="M 183 204 Q 195 202 203 201 Q 219 196 231 206 Q 235 209 234 211 Q 233 213 228 213 Q 175 213 152 220 Q 145 221 138 217 L 138 211 Q 156 208 173 206" fill="#ff0000" /></svg>