<svg xmlns="http://www.w3.org/2000/svg" xmlns:xlink="http://www.w3.org/1999/xlink" width="270" height="270"><path d="M 0 0 L 270 270 M 270 0 L 0 270 M 135 0 L 135 270 M 0 135 L 270 135" stroke="#CCCCCC" /><path d="M 86 29 L 88 28 Q 91 27 99 30 Q 106 33 108 36 Q 108 39 105 42 Q 91 56 91 56 Q 57 91 38 92 Q 30 93 36 89 Q 80 54 85 32" fill="#CCCCCC"/><path d="M 133 24 L 132 22 Q 131 20 133 19 Q 134 18 135 18 Q 148 15 165 33 Q 166 34 168 35 Q 172 39 201 58 Q 205 60 242 71 Q 247 72 246 74 Q 245 75 242 76 Q 221 79 201 79 Q 186 78 156 39 Q 142 24 136 24" fill="#CCCCCC"/><path d="M 85 114 Q 82 116 79 113 Q 74 107 73 103 Q 73 100 77 98 Q 83 95 88 92 Q 118 68 116 53 Q 116 48 119 47 Q 122 47 125 49 Q 136 57 137 60 Q 137 64 134 65 Q 128 70 99 96 Q 98 97 98 98" fill="#CCCCCC"/><path d="M 99 105 L 85 114 L 98 98 Q 99 99 102 98 Q 129 92 153 89 L 158 95" fill="#CCCCCC"/><path d="M 153 89 Q 151 88 150 86 Q 144 81 144 78 Q 144 75 145 74 Q 146 74 150 75 Q 175 84 176 92 Q 178 100 176 103 Q 174 106 172 106 Q 169 106 158 95" fill="#CCCCCC"/><path d="M 51 136 L 75 131 Q 88 125 92 127 Q 102 131 106 136 L 88 139 Q 85 137 81 138 Q 58 144 53 143 Q 49 141 48 138 Q 45 136 49 136" fill="#CCCCCC"/><path d="M 106 136 Q 109 138 106 143 Q 101 152 104 223 Q 105 235 94 248 Q 92 250 90 249 Q 86 248 83 243 L 85 224 Q 88 221 88 214 Q 90 189 89 146 Q 89 141 88 139" fill="#CCCCCC"/><path d="M 83 243 Q 76 235 64 223 Q 64 221 69 223 Q 85 224 85 224" fill="#CCCCCC"/><path d="M 39 159 L 38 157 Q 38 154 39 153 Q 42 152 56 157 Q 62 159 63 163 Q 65 170 64 173 Q 63 176 61 176 Q 57 176 54 173 Q 49 168 45 164" fill="#CCCCCC"/><path d="M 28 198 L 48 192 Q 83 179 85 180 Q 85 183 82 185 Q 79 187 76 190 Q 50 206 44 212 Q 42 214 39 213 Q 30 210 25 206 Q 22 205 22 201 Q 23 199 26 198" fill="#CCCCCC"/><path d="M 158 125 L 172 116 Q 176 115 181 117 Q 191 121 197 126 L 176 131 Q 173 128 169 129 Q 139 136 135 136 Q 131 134 128 131 Q 126 129 130 128" fill="#CCCCCC"/><path d="M 197 126 Q 200 129 197 134 Q 190 145 196 223 Q 197 237 185 251 Q 183 254 180 253 Q 176 251 172 246 L 175 225 Q 177 221 178 214 Q 179 186 178 138 Q 178 132 176 131" fill="#CCCCCC"/><path d="M 172 246 Q 164 237 149 223 Q 149 221 154 223 Q 174 226 175 225" fill="#CCCCCC"/><path d="M 125 153 L 124 150 Q 124 148 125 146 Q 127 146 130 146 Q 149 150 151 156 Q 153 163 152 166 Q 151 169 149 169 Q 146 169 142 167 Q 137 161 132 157" fill="#CCCCCC"/><path d="M 125 194 L 170 171 Q 172 170 174 171 Q 174 173 172 176 Q 169 179 166 181 Q 157 189 147 196 Q 141 201 136 206 Q 134 209 131 209 Q 123 206 117 203 Q 114 202 114 199 Q 114 196 117 195" fill="#CCCCCC"/><path d="M 86 29 L 88 28 Q 91 27 99 30 Q 106 33 108 36 Q 108 39 105 42 Q 91 56 91 56 Q 57 91 38 92 Q 30 93 36 89 Q 80 54 85 32" fill="#000000" /><path d="M 133 24 L 132 22 Q 131 20 133 19 Q 134 18 135 18 Q 148 15 165 33 Q 166 34 168 35 Q 172 39 201 58 Q 205 60 242 71 Q 247 72 246 74 Q 245 75 242 76 Q 221 79 201 79 Q 186 78 156 39 Q 142 24 136 24" fill="#1c0000" /><path d="M 85 114 Q 82 116 79 113 Q 74 107 73 103 Q 73 100 77 98 Q 83 95 88 92 Q 118 68 116 53 Q 116 48 119 47 Q 122 47 125 49 Q 136 57 137 60 Q 137 64 134 65 Q 128 70 99 96 Q 98 97 98 98" fill="#380000" /><path d="M 99 105 L 85 114 L 98 98 Q 99 99 102 98 Q 129 92 153 89 L 158 95" fill="#380000" /><path d="M 153 89 Q 151 88 150 86 Q 144 81 144 78 Q 144 75 145 74 Q 146 74 150 75 Q 175 84 176 92 Q 178 100 176 103 Q 174 106 172 106 Q 169 106 158 95" fill="#550000" /><path d="M 51 136 L 75 131 Q 88 125 92 127 Q 102 131 106 136 L 88 139 Q 85 137 81 138 Q 58 144 53 143 Q 49 141 48 138 Q 45 136 49 136" fill="#710000" /><path d="M 106 136 Q 109 138 106 143 Q 101 152 104 223 Q 105 235 94 248 Q 92 250 90 249 Q 86 248 83 243 L 85 224 Q 88 221 88 214 Q 90 189 89 146 Q 89 141 88 139" fill="#710000" /><path d="M 83 243 Q 76 235 64 223 Q 64 221 69 223 Q 85 224 85 224" fill="#710000" /><path d="M 39 159 L 38 157 Q 38 154 39 153 Q 42 152 56 157 Q 62 159 63 163 Q 65 170 64 173 Q 63 176 61 176 Q 57 176 54 173 Q 49 168 45 164" fill="#8d0000" /><path d="M 28 198 L 48 192 Q 83 179 85 180 Q 85 183 82 185 Q 79 187 76 190 Q 50 206 44 212 Q 42 214 39 213 Q 30 210 25 206 Q 22 205 22 201 Q 23 199 26 198" fill="#aa0000" /><path d="M 158 125 L 172 116 Q 176 115 181 117 Q 191 121 197 126 L 176 131 Q 173 128 169 129 Q 139 136 135 136 Q 131 134 128 131 Q 126 129 130 128" fill="#c60000" /><path d="M 197 126 Q 200 129 197 134 Q 190 145 196 223 Q 197 237 185 251 Q 183 254 180 253 Q 176 251 172 246 L 175 225 Q 177 221 178 214 Q 179 186 178 138 Q 178 132 176 131" fill="#c60000" /><path d="M 172 246 Q 164 237 149 223 Q 149 221 154 223 Q 174 226 175 225" fill="#c60000" /><path d="M 125 153 L 124 150 Q 124 148 125 146 Q 127 146 130 146 Q 149 150 151 156 Q 153 163 152 166 Q 151 169 149 169 Q 146 169 142 167 Q 137 161 132 157" fill="#e20000" /><path d="M 125 194 L 170 171 Q 172 170 174 171 Q 174 173 172 176 Q 169 179 166 181 Q 157 189 147 196 Q 141 201 136 206 Q 134 209 131 209 Q 123 206 117 203 Q 114 202 114 199 Q 114 196 117 195" fill="#ff0000" /></svg>