<svg xmlns="http://www.w3.org/2000/svg" xmlns:xlink="http://www.w3.org/1999/xlink" width="270" height="270"><path d="M 0 0 L 270 270 M 270 0 L 0 270 M 135 0 L 135 270 M 0 135 L 270 135" stroke="#CCCCCC" /><path d="M 73 68 Q 72 68 72 68 Q 59 71 49 66 Q 43 62 51 61 Q 63 59 74 57 L 87 54 Q 103 48 110 49 Q 117 51 119 54 Q 119 56 118 57 Q 117 58 85 66" fill="#000000" /><path d="M 71 92 Q 72 79 73 68 L 74 57 Q 75 45 75 33 Q 75 29 72 22 Q 70 19 72 17 Q 74 16 77 17 Q 83 18 90 23 Q 94 27 93 29 Q 87 41 87 54 L 85 66 Q 83 77 81 90" fill="#110000" /><path d="M 57 148 Q 56 150 56 152 Q 55 156 51 151 Q 47 146 46 139 Q 42 115 35 100 Q 34 96 35 95 Q 36 93 38 94 Q 46 95 49 97 L 51 104 Q 51 108 53 119 L 54 125 Q 55 130 56 137 Q 57 139 57 142" fill="#220000" /><path d="M 49 97 Q 69 92 71 92 L 81 90 Q 87 88 89 88 Q 105 84 109 86 Q 118 92 121 96 L 100 96 Q 98 94 92 95 Q 66 99 51 104" fill="#330000" /><path d="M 88 138 Q 92 137 93 135 Q 96 131 102 103 Q 103 98 100 96 L 121 96 Q 124 99 120 102 Q 115 107 113 114 Q 105 144 101 149 Q 98 154 95 152 Q 92 150 89 145" fill="#330000" /><path d="M 53 119 Q 58 118 63 117 Q 80 113 83 113 Q 88 114 89 116 Q 90 118 89 119 L 89 119 Q 64 127 54 125" fill="#440000" /><path d="M 66 147 Q 62 147 59 148 Q 58 148 57 148 L 57 142 Q 85 136 87 137 Q 88 138 88 138 L 89 145 Q 81 145 75 146" fill="#550000" /><path d="M 55 184 L 37 190 Q 22 193 14 186 Q 11 183 12 180 Q 12 179 16 178 Q 34 177 69 172 L 81 170 Q 105 164 112 168 Q 116 171 116 174 Q 116 176 112 176 Q 95 177 81 180 L 69 182" fill="#660000" /><path d="M 69 172 Q 69 158 66 147 L 75 146 Q 83 152 83 155 Q 82 160 81 170 L 81 180 Q 81 203 81 229 Q 82 237 79 244 Q 78 247 75 246 L 75 246 Q 62 233 65 221 Q 69 213 69 182" fill="#770000" /><path d="M 161 74 L 154 85 Q 132 113 120 116 Q 117 116 119 114 Q 136 94 142 84 Q 143 83 143 82 Q 164 46 159 29 Q 159 27 160 25 Q 168 23 177 29 Q 180 31 181 34 Q 182 36 180 38 Q 178 40 175 48 L 172 54" fill="#880000" /><path d="M 175 48 Q 178 51 184 57 Q 188 60 192 64 Q 209 79 255 99 Q 258 101 258 102 Q 257 103 253 104 Q 236 105 220 104 Q 211 103 207 97 Q 188 76 172 54" fill="#990000" /><path d="M 129 125 L 140 122 Q 149 116 153 118 Q 161 121 165 125 Q 167 127 165 131 L 149 128 Q 147 127 144 128 Q 132 132 128 132 Q 125 131 123 129 Q 122 127 125 126" fill="#aa0000" /><path d="M 165 131 Q 160 140 163 215 Q 163 230 155 240 Q 153 241 151 241 Q 148 240 145 236 L 147 220 Q 150 217 150 212 Q 152 183 151 136 Q 151 130 149 128" fill="#aa0000" /><path d="M 145 236 Q 140 228 130 219 Q 129 217 133 218 Q 138 219 143 220 Q 146 221 147 220" fill="#aa0000" /><path d="M 116 148 L 116 146 Q 116 144 118 144 Q 132 146 136 151 Q 139 155 138 158 Q 137 162 135 162 Q 130 162 118 150" fill="#bb0000" /><path d="M 111 193 L 113 192 Q 146 170 147 170 Q 148 172 146 174 Q 135 188 125 201 Q 123 204 121 204 Q 113 203 108 201 Q 105 200 105 197 Q 105 195 107 194" fill="#cc0000" /><path d="M 206 124 Q 204 122 200 122 Q 186 127 179 126 Q 175 124 173 122 Q 171 120 175 119 Q 187 118 193 116 Q 197 114 203 111 Q 206 109 211 111 Q 220 115 225 120 Q 228 122 225 127" fill="#dd0000" /><path d="M 207 125 L 206 124 L 225 127 Q 219 138 224 221 Q 224 240 215 251 Q 213 253 210 252 Q 207 251 203 246 L 206 227 Q 209 223 209 169 L 209 164" fill="#dd0000" /><path d="M 203 246 Q 195 237 179 224 Q 179 220 185 224 Q 204 229 206 227" fill="#dd0000" /><path d="M 174 146 L 173 144 Q 173 142 174 142 Q 179 139 190 145 Q 194 147 195 151 Q 196 154 195 157 Q 193 159 191 159 Q 185 156 177 148" fill="#ee0000" /><path d="M 209 169 Q 191 187 186 195 Q 184 198 182 198 Q 176 197 171 195 Q 168 194 168 192 Q 168 190 170 189 Q 177 187 209 164" fill="#ff0000" /></svg>