<svg xmlns="http://www.w3.org/2000/svg" xmlns:xlink="http://www.w3.org/1999/xlink" width="270" height="270"><path d="M 0 0 L 270 270 M 270 0 L 0 270 M 135 0 L 135 270 M 0 135 L 270 135" stroke="#CCCCCC" /><path d="M 106 43 Q 90 46 75 48 L 64 49 Q 53 49 47 45 Q 41 41 50 39 Q 76 38 111 30 Q 138 22 145 24 Q 152 26 154 29 Q 155 31 153 33 Q 152 33 118 41" fill="#CCCCCC"/><path d="M 68 98 L 68 82 Q 67 57 64 49 L 75 48 Q 82 54 80 59 Q 80 63 80 67 L 80 76 Q 79 83 79 91 L 79 100 Q 79 111 79 123 L 68 126" fill="#CCCCCC"/><path d="M 110 115 Q 110 113 110 113 Q 110 50 106 43 L 118 41 Q 124 44 125 46 Q 126 49 124 52 Q 122 59 122 70 Q 122 125 122 131 Q 122 143 117 147 Q 115 148 114 147 Q 113 146 111 143 Q 105 129 108 122" fill="#CCCCCC"/><path d="M 80 67 Q 88 64 94 64 Q 100 64 103 67 Q 106 70 100 71 Q 91 73 80 76" fill="#CCCCCC"/><path d="M 79 91 Q 89 88 95 88 Q 101 89 104 92 Q 106 95 101 96 Q 92 98 79 100" fill="#CCCCCC"/><path d="M 79 123 Q 95 118 110 115 L 108 122 Q 105 123 102 125 Q 60 144 54 149 Q 51 151 48 150 Q 39 145 33 140 Q 31 138 32 135 Q 32 132 35 132 Q 43 132 47 131 Q 58 128 68 126" fill="#CCCCCC"/><path d="M 159 120 L 158 122 Q 157 126 152 120 Q 149 116 148 110 Q 144 90 138 77 Q 136 73 138 72 Q 139 70 142 71 Q 149 72 152 74 L 156 82 Q 156 89 159 108 L 159 116" fill="#CCCCCC"/><path d="M 197 76 Q 196 74 192 75 Q 165 80 156 82 L 152 74 Q 174 70 190 64 Q 202 57 222 73" fill="#CCCCCC"/><path d="M 193 101 Q 193 101 193 101 Q 196 92 199 82 Q 199 78 197 76 L 222 73 Q 225 77 221 82 Q 213 87 206 103" fill="#CCCCCC"/><path d="M 159 108 Q 174 105 193 101 L 206 103 Q 211 107 211 109 Q 211 111 208 111 Q 177 113 162 116 Q 161 116 159 116" fill="#CCCCCC"/><path d="M 121 171 Q 100 173 87 171 Q 83 169 86 168 Q 146 158 153 143 Q 154 140 156 140 Q 162 142 171 150 Q 175 154 175 156 Q 175 159 171 159 Q 165 160 160 162 Q 146 166 133 169" fill="#CCCCCC"/><path d="M 123 202 Q 113 203 104 204 Q 90 207 81 200 Q 75 196 84 195 Q 105 194 123 192 L 137 189 Q 150 186 163 183 Q 170 180 177 182 Q 184 184 186 187 Q 187 190 184 191 Q 182 193 167 196 Q 151 197 136 200" fill="#CCCCCC"/><path d="M 123 211 L 123 202 L 123 192 Q 122 173 121 171 Q 121 171 121 171 L 133 169 Q 135 170 137 172 Q 139 175 137 179 Q 137 181 137 184 Q 137 187 137 189 L 136 200 Q 135 211 135 223 L 124 224" fill="#CCCCCC"/><path d="M 135 223 Q 157 221 183 219 Q 197 218 208 215 Q 214 213 217 215 Q 228 220 235 227 Q 238 230 236 233 Q 235 235 229 235 Q 194 230 168 231 Q 91 234 58 244 Q 46 247 37 239 Q 33 235 33 232 Q 33 230 37 230 Q 54 230 78 228 Q 98 225 124 224" fill="#CCCCCC"/><path d="M 106 43 Q 90 46 75 48 L 64 49 Q 53 49 47 45 Q 41 41 50 39 Q 76 38 111 30 Q 138 22 145 24 Q 152 26 154 29 Q 155 31 153 33 Q 152 33 118 41" fill="#000000" /><path d="M 68 98 L 68 82 Q 67 57 64 49 L 75 48 Q 82 54 80 59 Q 80 63 80 67 L 80 76 Q 79 83 79 91 L 79 100 Q 79 111 79 123 L 68 126" fill="#150000" /><path d="M 110 115 Q 110 113 110 113 Q 110 50 106 43 L 118 41 Q 124 44 125 46 Q 126 49 124 52 Q 122 59 122 70 Q 122 125 122 131 Q 122 143 117 147 Q 115 148 114 147 Q 113 146 111 143 Q 105 129 108 122" fill="#2a0000" /><path d="M 80 67 Q 88 64 94 64 Q 100 64 103 67 Q 106 70 100 71 Q 91 73 80 76" fill="#3f0000" /><path d="M 79 91 Q 89 88 95 88 Q 101 89 104 92 Q 106 95 101 96 Q 92 98 79 100" fill="#550000" /><path d="M 79 123 Q 95 118 110 115 L 108 122 Q 105 123 102 125 Q 60 144 54 149 Q 51 151 48 150 Q 39 145 33 140 Q 31 138 32 135 Q 32 132 35 132 Q 43 132 47 131 Q 58 128 68 126" fill="#6a0000" /><path d="M 159 120 L 158 122 Q 157 126 152 120 Q 149 116 148 110 Q 144 90 138 77 Q 136 73 138 72 Q 139 70 142 71 Q 149 72 152 74 L 156 82 Q 156 89 159 108 L 159 116" fill="#7f0000" /><path d="M 197 76 Q 196 74 192 75 Q 165 80 156 82 L 152 74 Q 174 70 190 64 Q 202 57 222 73" fill="#940000" /><path d="M 193 101 Q 193 101 193 101 Q 196 92 199 82 Q 199 78 197 76 L 222 73 Q 225 77 221 82 Q 213 87 206 103" fill="#940000" /><path d="M 159 108 Q 174 105 193 101 L 206 103 Q 211 107 211 109 Q 211 111 208 111 Q 177 113 162 116 Q 161 116 159 116" fill="#aa0000" /><path d="M 121 171 Q 100 173 87 171 Q 83 169 86 168 Q 146 158 153 143 Q 154 140 156 140 Q 162 142 171 150 Q 175 154 175 156 Q 175 159 171 159 Q 165 160 160 162 Q 146 166 133 169" fill="#bf0000" /><path d="M 123 202 Q 113 203 104 204 Q 90 207 81 200 Q 75 196 84 195 Q 105 194 123 192 L 137 189 Q 150 186 163 183 Q 170 180 177 182 Q 184 184 186 187 Q 187 190 184 191 Q 182 193 167 196 Q 151 197 136 200" fill="#d40000" /><path d="M 123 211 L 123 202 L 123 192 Q 122 173 121 171 Q 121 171 121 171 L 133 169 Q 135 170 137 172 Q 139 175 137 179 Q 137 181 137 184 Q 137 187 137 189 L 136 200 Q 135 211 135 223 L 124 224" fill="#e90000" /><path d="M 135 223 Q 157 221 183 219 Q 197 218 208 215 Q 214 213 217 215 Q 228 220 235 227 Q 238 230 236 233 Q 235 235 229 235 Q 194 230 168 231 Q 91 234 58 244 Q 46 247 37 239 Q 33 235 33 232 Q 33 230 37 230 Q 54 230 78 228 Q 98 225 124 224" fill="#ff0000" /></svg>