<svg xmlns="http://www.w3.org/2000/svg" xmlns:xlink="http://www.w3.org/1999/xlink" width="270" height="270"><path d="M 0 0 L 270 270 M 270 0 L 0 270 M 135 0 L 135 270 M 0 135 L 270 135" stroke="#CCCCCC" /><path d="M 85 18 L 85 17 Q 84 14 85 13 Q 86 13 90 13 Q 103 15 105 19 Q 107 25 106 28 Q 105 31 103 31 Q 100 31 97 29 Q 94 25 91 23" fill="#000000" /><path d="M 107 41 Q 88 43 74 46 L 72 47 Q 70 47 70 47 Q 64 48 59 43 Q 55 40 60 40 Q 96 34 97 34 Q 98 34 99 34 Q 121 28 127 32 Q 131 34 131 36 Q 129 38 127 38 Q 121 39 114 40" fill="#0c0000" /><path d="M 74 46 Q 83 52 85 57 Q 85 62 84 63 Q 82 66 80 65 Q 77 64 75 60 Q 71 49 72 47" fill="#180000" /><path d="M 102 61 L 103 58 Q 108 45 107 41 L 114 40 Q 118 44 119 46 Q 121 48 118 50 Q 116 52 115 53 Q 112 57 110 59 Q 108 61 107 62 L 101 63" fill="#240000" /><path d="M 107 62 Q 124 58 130 61 Q 133 63 133 65 Q 133 67 130 67 Q 85 72 48 83 Q 40 85 32 80 Q 30 77 30 75 Q 31 74 33 74 Q 58 71 101 63" fill="#300000" /><path d="M 72 140 L 67 143 Q 65 144 64 141 Q 63 140 63 140 Q 58 131 63 124 Q 71 101 64 84 Q 64 82 66 81 Q 72 81 76 85 L 77 89 Q 77 90 77 90 Q 76 93 76 101 L 75 107 Q 75 111 74 117 L 74 123" fill="#3c0000" /><path d="M 76 85 Q 82 83 97 79 Q 109 74 112 76 Q 119 78 123 81 Q 126 84 123 87 L 108 85 Q 104 84 82 89 Q 79 89 77 89" fill="#480000" /><path d="M 123 87 Q 120 92 122 117 Q 122 133 119 137 Q 116 143 115 144 Q 112 144 109 142 L 109 127 Q 110 126 110 123 Q 111 109 110 91 Q 110 86 108 85" fill="#480000" /><path d="M 109 142 Q 103 136 97 131 Q 93 130 93 128 Q 93 126 95 127 Q 107 128 109 127" fill="#480000" /><path d="M 76 101 Q 88 96 95 96 Q 100 97 102 99 Q 104 102 99 103 Q 89 104 75 107" fill="#550000" /><path d="M 74 117 Q 87 111 95 112 Q 100 113 102 116 Q 104 118 99 119 Q 89 121 76 123 Q 75 123 74 123" fill="#610000" /><path d="M 159 26 Q 164 25 168 24 Q 188 20 190 20 Q 196 21 198 23 Q 199 25 197 27 Q 197 27 182 31 Q 163 34 156 31" fill="#6d0000" /><path d="M 147 54 Q 145 56 142 52 Q 138 47 140 45 Q 145 38 146 30 Q 146 28 146 26 Q 147 19 145 14 Q 143 11 146 10 Q 149 9 158 15 Q 163 19 160 23 Q 159 24 159 26 L 156 31 Q 154 35 152 41" fill="#790000" /><path d="M 185 46 Q 183 44 178 46 Q 157 48 147 54 L 152 41 Q 151 45 154 44 Q 174 40 187 36 Q 191 34 194 37 Q 204 43 204 45" fill="#790000" /><path d="M 181 60 Q 181 58 185 52 Q 186 48 185 46 L 204 45 Q 204 47 201 49 Q 195 52 192 62" fill="#790000" /><path d="M 147 69 Q 162 66 181 60 L 192 62 Q 195 64 195 65 Q 195 67 193 67 Q 165 71 152 74 Q 151 75 150 75" fill="#850000" /><path d="M 149 116 L 150 117 L 147 129 Q 142 125 141 120 Q 138 112 139 84 Q 140 77 137 70 Q 137 66 138 66 Q 139 65 142 65 Q 145 67 147 69 L 150 75 Q 149 79 149 83 L 149 87 L 148 87 Q 147 92 147 98 L 147 101 Q 147 106 148 111 L 149 116" fill="#910000" /><path d="M 150 117 Q 151 120 159 123 Q 178 127 202 120 Q 212 117 216 112 L 237 111 Q 240 117 236 120 Q 225 127 215 130 Q 214 130 213 130 Q 168 142 147 129" fill="#910000" /><path d="M 216 112 Q 220 108 225 95 Q 226 91 228 91 Q 229 92 230 96 Q 234 108 237 111" fill="#910000" /><path d="M 149 83 Q 176 75 182 76 Q 187 77 189 80 Q 191 82 186 83 Q 172 85 154 88 Q 150 88 149 87" fill="#9d0000" /><path d="M 147 98 Q 179 91 183 91 Q 187 92 189 95 Q 190 98 186 98 Q 172 100 153 102 Q 149 103 147 101 L 147 101" fill="#aa0000" /><path d="M 148 111 Q 158 109 171 106 Q 180 104 185 105 Q 190 106 192 110 Q 194 113 189 113 Q 150 116 149 116" fill="#b60000" /><path d="M 88 160 Q 87 160 86 160 Q 80 162 72 155 Q 68 151 74 150 Q 113 147 150 140 Q 170 135 176 141 Q 181 144 181 147 Q 179 149 176 149 Q 167 150 157 151 L 142 152 Q 118 155 100 158" fill="#c20000" /><path d="M 92 212 Q 89 163 88 160 L 100 158 Q 101 159 103 161 Q 104 163 103 172 Q 103 172 103 173 L 103 179 Q 102 184 102 190 L 102 197 Q 102 203 102 211" fill="#ce0000" /><path d="M 160 255 L 153 259 Q 151 260 150 258 Q 147 253 147 215 L 147 206 Q 147 188 147 174 Q 145 159 142 152 L 157 151 Q 159 152 161 153 Q 164 155 163 159 Q 160 177 160 205 L 160 215" fill="#da0000" /><path d="M 103 173 Q 125 165 132 166 Q 137 167 139 170 Q 141 173 136 174 Q 123 176 105 179 Q 104 179 103 179" fill="#e60000" /><path d="M 102 190 Q 126 183 133 185 Q 138 186 140 189 Q 142 192 137 192 Q 122 194 102 197" fill="#f20000" /><path d="M 147 215 Q 98 217 51 228 Q 47 229 42 227 Q 37 226 33 222 Q 29 217 35 217 Q 65 214 92 212 L 102 211 Q 117 209 131 208 Q 139 207 147 206 L 160 205 Q 190 201 210 198 Q 219 196 233 206 Q 238 210 236 213 Q 235 216 230 215 Q 222 215 214 215 Q 184 214 160 215" fill="#ff0000" /></svg>