<svg xmlns="http://www.w3.org/2000/svg" xmlns:xlink="http://www.w3.org/1999/xlink" width="270" height="270"><path d="M 0 0 L 270 270 M 270 0 L 0 270 M 135 0 L 135 270 M 0 135 L 270 135" stroke="#CCCCCC" /><path d="M 51 180 L 31 207 Q 22 221 18 221 Q 16 222 16 220 Q 17 218 18 216 Q 36 179 44 152 Q 46 146 47 140 Q 51 117 51 59 Q 49 45 44 38 Q 42 35 45 33 Q 48 32 53 34 Q 59 35 62 38 L 66 46 Q 65 48 65 76 Q 65 79 64 82 L 64 92 Q 63 106 62 121 L 60 131" fill="#000000" /><path d="M 62 38 Q 73 35 79 32 Q 89 25 95 28 Q 104 31 110 36 Q 113 39 110 44 L 90 40 Q 88 38 84 39 Q 76 42 69 45 Q 67 45 66 46" fill="#2a0000" /><path d="M 110 44 Q 104 55 108 180 Q 108 200 96 212 Q 94 214 92 213 Q 88 212 85 207 L 89 186 Q 91 184 91 178 Q 95 131 93 53 Q 94 43 90 40" fill="#2a0000" /><path d="M 85 207 Q 78 197 66 181 Q 66 179 71 181 Q 78 184 84 186 Q 88 187 89 186" fill="#2a0000" /><path d="M 64 82 Q 72 79 78 79 Q 85 80 88 84 Q 90 87 84 88 Q 75 89 64 92" fill="#550000" /><path d="M 62 121 Q 70 118 76 118 Q 83 118 87 122 Q 89 126 83 128 Q 74 129 62 131 Q 61 131 60 131" fill="#7f0000" /><path d="M 161 65 Q 145 67 134 61 Q 126 56 137 55 Q 148 54 181 48 Q 206 41 213 42 Q 221 45 223 48 Q 224 50 222 53 Q 220 54 209 56 Q 192 59 176 63" fill="#aa0000" /><path d="M 147 119 L 129 124 Q 125 126 119 124 Q 115 123 111 119 Q 107 115 112 115 Q 142 110 168 106 L 182 104 Q 204 99 219 96 Q 234 92 249 102 Q 253 106 252 109 Q 251 111 246 111 Q 205 111 182 115 L 168 116" fill="#d40000" /><path d="M 168 106 Q 168 102 168 98 Q 168 78 161 65 L 176 63 Q 179 64 182 66 Q 186 69 185 73 Q 182 87 182 104 L 182 115 Q 181 167 182 183 Q 182 204 180 225 Q 178 241 174 243 Q 172 244 170 242 Q 169 241 169 239 Q 166 232 168 116" fill="#ff0000" /></svg>