<svg xmlns="http://www.w3.org/2000/svg" xmlns:xlink="http://www.w3.org/1999/xlink" width="270" height="270"><path d="M 0 0 L 270 270 M 270 0 L 0 270 M 135 0 L 135 270 M 0 135 L 270 135" stroke="#CCCCCC" /><path d="M 46 182 L 30 203 Q 21 216 18 217 Q 16 218 16 215 Q 16 214 17 212 Q 35 176 41 152 Q 49 120 46 77 Q 46 72 46 69 Q 45 53 39 47 Q 37 44 40 42 Q 43 41 48 42 Q 52 44 55 46 L 61 53 Q 59 57 59 91 L 59 101 Q 58 115 56 133 L 54 142" fill="#000000" /><path d="M 55 46 Q 69 42 73 40 Q 85 34 89 36 Q 98 40 104 45 Q 107 47 104 52 L 85 49 Q 83 47 78 48 L 61 53" fill="#1f0000" /><path d="M 104 52 Q 100 58 100 73 Q 100 146 102 191 Q 102 204 91 215 Q 89 217 86 216 Q 82 215 80 210 L 84 190 Q 86 188 86 183 Q 89 137 88 61 Q 88 51 85 49" fill="#1f0000" /><path d="M 80 210 Q 75 200 65 186 Q 65 184 70 187 Q 75 189 80 190 Q 83 191 84 190" fill="#1f0000" /><path d="M 59 91 Q 66 89 71 89 Q 78 89 81 93 Q 84 96 78 98 Q 70 99 59 101" fill="#3f0000" /><path d="M 56 133 Q 64 130 70 130 Q 77 130 80 134 Q 83 137 77 139 L 54 142" fill="#5f0000" /><path d="M 118 66 L 118 63 Q 118 60 119 59 Q 121 59 125 60 Q 144 66 145 72 Q 147 80 145 84 Q 143 88 141 88 Q 136 87 133 83 Q 129 78 125 73" fill="#7f0000" /><path d="M 208 46 L 207 41 Q 206 38 209 37 Q 213 37 219 40 Q 226 43 230 48 Q 233 53 228 56 Q 223 57 208 69 Q 202 73 192 78 Q 188 79 190 74 Q 203 55 204 52" fill="#9f0000" /><path d="M 164 114 Q 161 114 159 114 Q 139 118 130 112 Q 124 108 133 106 Q 149 105 164 102 L 177 99 Q 197 92 204 94 Q 212 96 213 99 Q 214 101 212 103 Q 211 105 200 107 Q 188 109 177 111" fill="#bf0000" /><path d="M 143 154 L 125 159 Q 120 160 115 158 Q 110 157 107 153 Q 103 149 108 148 Q 138 145 164 141 L 177 140 Q 207 134 226 131 Q 235 129 249 139 Q 253 143 252 146 Q 250 148 245 148 Q 194 148 177 150 L 164 152" fill="#df0000" /><path d="M 164 141 Q 164 138 164 114 L 164 102 Q 164 61 164 38 Q 163 28 155 22 Q 152 19 154 17 Q 158 13 163 14 Q 174 17 180 22 Q 186 26 184 31 Q 179 38 179 47 Q 177 65 177 99 L 177 111 Q 177 124 177 140 L 177 150 Q 178 237 173 250 Q 171 256 167 252 Q 163 244 164 152" fill="#ff0000" /></svg>