<svg xmlns="http://www.w3.org/2000/svg" xmlns:xlink="http://www.w3.org/1999/xlink" width="270" height="270"><path d="M 0 0 L 270 270 M 270 0 L 0 270 M 135 0 L 135 270 M 0 135 L 270 135" stroke="#CCCCCC" /><path d="M 62 165 L 58 179 Q 54 190 50 198 Q 34 229 27 232 Q 24 232 24 230 Q 25 228 26 226 Q 44 189 51 163 Q 58 127 56 83 Q 55 79 55 76 Q 54 59 48 52 Q 46 49 49 46 Q 52 45 57 47 Q 62 48 66 51 L 70 58 Q 69 59 69 93 L 69 103 Q 69 120 67 137 Q 67 138 67 139 L 65 149" fill="#000000" /><path d="M 66 51 Q 78 48 85 45 Q 96 39 102 41 Q 111 45 117 50 L 97 54 Q 94 52 90 53 Q 82 55 73 58 Q 72 58 70 58" fill="#1c0000" /><path d="M 117 50 Q 120 53 117 58 Q 113 64 113 79 Q 113 157 115 205 Q 116 217 104 231 Q 102 233 100 232 Q 96 231 92 226 L 96 205 Q 98 202 98 197 Q 102 148 100 68 Q 100 57 97 54" fill="#1c0000" /><path d="M 92 226 Q 86 216 74 202 Q 74 199 79 202 Q 85 204 90 205 Q 95 206 96 205" fill="#1c0000" /><path d="M 69 93 Q 78 90 83 90 Q 89 90 93 94 Q 95 97 89 99 Q 80 100 69 103" fill="#380000" /><path d="M 67 139 Q 77 135 83 135 Q 90 135 94 139 Q 97 142 90 144 Q 80 145 66 149 Q 65 149 65 149" fill="#550000" /><path d="M 148 77 Q 196 57 199 45 Q 199 42 202 42 Q 208 42 218 49 Q 222 52 223 54 Q 223 57 220 58 Q 214 59 210 62 Q 179 78 148 81" fill="#710000" /><path d="M 149 93 L 151 98 L 147 110 Q 142 106 139 99 Q 136 92 136 58 Q 137 44 132 35 Q 130 31 133 29 Q 137 28 150 37 Q 155 41 152 49 Q 148 59 148 77 L 148 81" fill="#8d0000" /><path d="M 151 98 Q 153 101 159 103 Q 166 104 184 102 Q 195 100 214 96 L 243 96 Q 245 103 239 106 Q 231 111 210 115 Q 164 122 147 110" fill="#8d0000" /><path d="M 214 96 Q 223 92 233 73 Q 234 68 236 70 Q 238 71 238 75 Q 240 89 243 96" fill="#8d0000" /><path d="M 148 218 L 148 219 Q 148 225 145 229 Q 142 232 140 229 Q 131 218 135 197 Q 138 156 133 146 Q 132 144 132 143 Q 130 139 132 138 Q 136 137 143 142 Q 144 142 144 142 L 150 150 Q 150 152 149 154 Q 149 156 149 176 L 149 183 Q 148 190 148 209 L 148 217" fill="#aa0000" /><path d="M 201 146 Q 199 143 193 144 Q 154 150 150 150 L 144 142 Q 175 140 197 131 Q 201 129 206 131 Q 220 138 225 143" fill="#c60000" /><path d="M 203 207 Q 204 204 204 192 Q 206 149 201 146 L 225 143 Q 227 146 224 150 Q 220 155 220 163 Q 221 192 223 208 Q 223 221 218 231 Q 214 240 210 241 Q 207 241 204 236" fill="#c60000" /><path d="M 198 211 Q 202 211 203 207 L 204 236 Q 198 226 190 215" fill="#c60000" /><path d="M 149 176 Q 156 173 165 171 Q 176 169 183 170 Q 190 171 192 175 Q 195 179 188 179 Q 173 181 152 183 Q 149 183 149 183" fill="#e20000" /><path d="M 148 209 Q 162 207 179 204 Q 187 202 191 205 Q 196 208 198 211 L 190 215 Q 165 216 152 217 Q 150 218 148 217" fill="#ff0000" /></svg>