<svg xmlns="http://www.w3.org/2000/svg" xmlns:xlink="http://www.w3.org/1999/xlink" width="270" height="270"><path d="M 0 0 L 270 270 M 270 0 L 0 270 M 135 0 L 135 270 M 0 135 L 270 135" stroke="#CCCCCC" /><path d="M 49 163 L 44 181 Q 42 187 40 194 Q 22 234 13 237 Q 11 238 11 235 Q 11 234 12 232 Q 18 221 22 209 Q 25 202 28 195 Q 46 147 40 69 Q 39 56 33 48 Q 31 45 33 42 Q 36 41 41 43 Q 46 44 48 46 L 54 54 Q 53 55 54 85 Q 54 88 54 92 L 54 101 Q 54 118 53 134 L 52 144" fill="#000000" /><path d="M 48 46 Q 66 43 75 37 Q 79 36 83 38 Q 93 42 99 47 Q 102 49 99 54 L 78 51 Q 76 49 72 49 Q 70 50 54 54" fill="#170000" /><path d="M 99 54 Q 90 68 97 206 Q 97 220 86 232 Q 84 235 82 234 Q 78 232 74 227 L 77 207 Q 79 204 80 198 Q 83 148 81 65 Q 82 54 78 51" fill="#170000" /><path d="M 74 227 Q 68 218 57 207 Q 57 204 62 206 Q 67 207 72 207 Q 76 208 77 207" fill="#170000" /><path d="M 54 92 Q 61 90 66 90 Q 72 91 75 94 Q 78 97 72 98 Q 64 100 54 101" fill="#2e0000" /><path d="M 53 134 Q 62 131 68 131 Q 74 132 78 136 Q 80 139 74 140 Q 64 141 52 144" fill="#450000" /><path d="M 137 34 Q 149 32 159 30 Q 170 26 180 23 Q 186 20 194 21 Q 201 23 202 25 Q 203 27 202 29 Q 201 29 200 30 Q 155 43 141 43" fill="#5c0000" /><path d="M 128 123 Q 127 71 126 59 Q 125 46 119 34 Q 117 30 120 28 Q 122 26 126 28 Q 132 30 137 34 L 141 43 Q 141 44 141 45 Q 140 49 140 65 L 139 71 Q 139 81 139 93 L 139 100 Q 139 110 139 122" fill="#730000" /><path d="M 140 65 Q 173 54 179 55 Q 186 56 188 60 Q 191 63 185 64 Q 168 67 146 71 Q 142 72 139 71" fill="#8b0000" /><path d="M 139 93 Q 173 82 180 84 Q 187 85 189 89 Q 192 92 186 93 Q 168 95 144 100 Q 141 100 139 100" fill="#a20000" /><path d="M 132 132 Q 127 133 123 135 L 113 137 Q 106 138 100 133 Q 96 129 101 128 Q 115 125 128 123 L 139 122 Q 208 107 215 105 Q 223 103 236 111 Q 240 114 239 117 Q 238 119 233 119 Q 181 119 143 129" fill="#b90000" /><path d="M 123 135 Q 127 136 132 141 Q 135 144 134 150 Q 131 161 130 208 Q 129 214 132 215 L 123 244 Q 120 249 117 247 Q 113 243 110 234 Q 108 228 112 223 Q 115 218 117 210 Q 120 197 120 158 Q 120 150 113 137" fill="#d00000" /><path d="M 132 215 Q 133 216 164 203 Q 170 201 169 204 Q 168 206 163 209 Q 133 234 123 244" fill="#d00000" /><path d="M 186 150 L 192 142 Q 194 138 194 135 Q 194 130 197 130 Q 203 130 207 135 Q 212 140 213 144 Q 214 147 210 148 Q 198 153 177 167 L 173 164" fill="#e70000" /><path d="M 177 167 Q 185 175 192 181 Q 215 200 255 212 Q 258 213 257 215 Q 255 217 251 218 Q 220 221 209 219 Q 200 217 146 146 Q 140 137 132 132 L 143 129 Q 144 130 145 132 Q 160 150 173 164" fill="#ff0000" /></svg>