<svg xmlns="http://www.w3.org/2000/svg" xmlns:xlink="http://www.w3.org/1999/xlink" width="270" height="270"><path d="M 0 0 L 270 270 M 270 0 L 0 270 M 135 0 L 135 270 M 0 135 L 270 135" stroke="#CCCCCC" /><path d="M 51 197 L 33 222 Q 24 235 20 236 Q 18 237 18 235 Q 19 233 20 231 Q 38 198 46 168 Q 47 163 48 159 Q 52 136 52 82 Q 50 63 45 56 Q 43 53 46 51 Q 48 50 53 52 Q 60 54 64 57 L 65 65 Q 64 71 64 105 L 64 114 Q 63 130 61 148 L 59 156" fill="#CCCCCC"/><path d="M 64 57 Q 76 54 79 52 Q 90 45 95 48 Q 104 51 110 56 L 90 60 Q 89 58 84 59 Q 76 62 68 64 Q 66 65 65 65" fill="#CCCCCC"/><path d="M 110 56 Q 112 58 110 63 Q 108 66 107 72 Q 104 105 110 205 Q 110 220 101 231 Q 99 234 96 233 Q 92 232 89 227 L 91 207 Q 93 204 94 184 Q 97 79 90 60" fill="#CCCCCC"/><path d="M 89 227 Q 81 218 67 206 Q 66 204 71 205 Q 78 207 85 208 Q 90 209 91 207" fill="#CCCCCC"/><path d="M 64 105 Q 72 102 77 103 Q 83 103 86 107 Q 88 110 82 111 Q 74 112 64 114" fill="#CCCCCC"/><path d="M 61 148 Q 65 143 77 144 Q 83 144 86 148 Q 88 151 82 152 Q 72 153 59 156" fill="#CCCCCC"/><path d="M 152 41 L 151 38 Q 151 34 152 33 Q 154 32 175 37 Q 184 40 186 45 Q 189 52 188 56 Q 187 60 184 60 Q 180 61 176 58 Q 168 51 160 46" fill="#CCCCCC"/><path d="M 133 93 L 133 94 Q 131 97 128 109 Q 126 115 125 116 Q 123 121 122 121 Q 120 123 118 120 Q 116 117 115 112 Q 114 107 117 103 Q 123 87 121 80 Q 121 77 123 76 Q 124 75 125 76 Q 130 78 133 85 L 134 93" fill="#CCCCCC"/><path d="M 133 85 Q 141 84 150 82 Q 197 74 197 74 Q 224 69 230 73 L 213 80 Q 212 80 210 80 Q 175 83 150 91 Q 138 95 134 93" fill="#CCCCCC"/><path d="M 230 73 Q 247 85 247 87 Q 247 89 238 92 Q 227 95 215 105 Q 211 108 209 107 L 208 106 Q 213 95 217 84 Q 217 82 213 80" fill="#CCCCCC"/><path d="M 146 107 L 149 107 Q 153 107 157 111 Q 162 116 163 118 Q 163 121 161 123 Q 158 125 155 129 Q 131 157 121 157 Q 119 157 119 155 Q 120 154 122 152 Q 130 143 136 135 Q 148 117 147 111" fill="#CCCCCC"/><path d="M 181 114 L 180 111 Q 180 108 181 107 Q 183 107 186 108 Q 215 119 216 128 Q 217 135 216 138 Q 215 141 213 141 Q 209 141 206 138 Q 196 128 187 119" fill="#CCCCCC"/><path d="M 163 176 L 162 176 Q 143 181 134 174 Q 127 170 136 169 Q 152 167 173 162 Q 199 155 205 156 Q 212 158 214 160 Q 215 163 213 164 Q 212 165 173 174" fill="#CCCCCC"/><path d="M 164 179 L 163 177 Q 163 176 163 176 L 173 174 Q 176 176 179 179 Q 180 181 178 190 Q 177 202 175 217 L 164 218" fill="#CCCCCC"/><path d="M 175 217 Q 205 213 223 210 Q 233 207 247 218 Q 251 222 249 225 Q 248 227 243 227 Q 182 222 129 234 Q 124 236 119 234 Q 114 232 110 228 Q 106 224 112 223 Q 140 221 164 218" fill="#CCCCCC"/><path d="M 51 197 L 33 222 Q 24 235 20 236 Q 18 237 18 235 Q 19 233 20 231 Q 38 198 46 168 Q 47 163 48 159 Q 52 136 52 82 Q 50 63 45 56 Q 43 53 46 51 Q 48 50 53 52 Q 60 54 64 57 L 65 65 Q 64 71 64 105 L 64 114 Q 63 130 61 148 L 59 156" fill="#000000" /><path d="M 64 57 Q 76 54 79 52 Q 90 45 95 48 Q 104 51 110 56 L 90 60 Q 89 58 84 59 Q 76 62 68 64 Q 66 65 65 65" fill="#170000" /><path d="M 110 56 Q 112 58 110 63 Q 108 66 107 72 Q 104 105 110 205 Q 110 220 101 231 Q 99 234 96 233 Q 92 232 89 227 L 91 207 Q 93 204 94 184 Q 97 79 90 60" fill="#170000" /><path d="M 89 227 Q 81 218 67 206 Q 66 204 71 205 Q 78 207 85 208 Q 90 209 91 207" fill="#170000" /><path d="M 64 105 Q 72 102 77 103 Q 83 103 86 107 Q 88 110 82 111 Q 74 112 64 114" fill="#2e0000" /><path d="M 61 148 Q 65 143 77 144 Q 83 144 86 148 Q 88 151 82 152 Q 72 153 59 156" fill="#450000" /><path d="M 152 41 L 151 38 Q 151 34 152 33 Q 154 32 175 37 Q 184 40 186 45 Q 189 52 188 56 Q 187 60 184 60 Q 180 61 176 58 Q 168 51 160 46" fill="#5c0000" /><path d="M 133 93 L 133 94 Q 131 97 128 109 Q 126 115 125 116 Q 123 121 122 121 Q 120 123 118 120 Q 116 117 115 112 Q 114 107 117 103 Q 123 87 121 80 Q 121 77 123 76 Q 124 75 125 76 Q 130 78 133 85 L 134 93" fill="#730000" /><path d="M 133 85 Q 141 84 150 82 Q 197 74 197 74 Q 224 69 230 73 L 213 80 Q 212 80 210 80 Q 175 83 150 91 Q 138 95 134 93" fill="#8b0000" /><path d="M 230 73 Q 247 85 247 87 Q 247 89 238 92 Q 227 95 215 105 Q 211 108 209 107 L 208 106 Q 213 95 217 84 Q 217 82 213 80" fill="#8b0000" /><path d="M 146 107 L 149 107 Q 153 107 157 111 Q 162 116 163 118 Q 163 121 161 123 Q 158 125 155 129 Q 131 157 121 157 Q 119 157 119 155 Q 120 154 122 152 Q 130 143 136 135 Q 148 117 147 111" fill="#a20000" /><path d="M 181 114 L 180 111 Q 180 108 181 107 Q 183 107 186 108 Q 215 119 216 128 Q 217 135 216 138 Q 215 141 213 141 Q 209 141 206 138 Q 196 128 187 119" fill="#b90000" /><path d="M 163 176 L 162 176 Q 143 181 134 174 Q 127 170 136 169 Q 152 167 173 162 Q 199 155 205 156 Q 212 158 214 160 Q 215 163 213 164 Q 212 165 173 174" fill="#d00000" /><path d="M 164 179 L 163 177 Q 163 176 163 176 L 173 174 Q 176 176 179 179 Q 180 181 178 190 Q 177 202 175 217 L 164 218" fill="#e70000" /><path d="M 175 217 Q 205 213 223 210 Q 233 207 247 218 Q 251 222 249 225 Q 248 227 243 227 Q 182 222 129 234 Q 124 236 119 234 Q 114 232 110 228 Q 106 224 112 223 Q 140 221 164 218" fill="#ff0000" /></svg>