<svg xmlns="http://www.w3.org/2000/svg" xmlns:xlink="http://www.w3.org/1999/xlink" width="270" height="270"><path d="M 0 0 L 270 270 M 270 0 L 0 270 M 135 0 L 135 270 M 0 135 L 270 135" stroke="#CCCCCC" /><path d="M 62 60 Q 62 61 61 62 Q 61 67 60 72 Q 60 81 60 90 Q 60 94 60 98 L 60 107 Q 60 122 58 137 L 56 147 Q 53 167 47 184 Q 39 207 28 223 Q 25 228 20 233 Q 18 237 15 237 Q 12 238 13 236 Q 13 234 14 232 Q 20 222 25 210 Q 34 190 40 167 Q 45 150 46 129 Q 48 109 47 86 Q 46 76 46 68 Q 46 62 44 60 Q 41 56 40 53 Q 38 50 40 48 Q 44 47 48 48 Q 54 50 57 52" fill="#CCCCCC"/><path d="M 80 56 Q 77 54 73 55 Q 69 57 66 59 Q 63 60 62 60 L 57 52 Q 63 51 67 49 Q 71 47 76 44 Q 79 42 84 44 Q 93 47 98 52 Q 101 54 98 59" fill="#CCCCCC"/><path d="M 83 59 L 80 56 L 98 59 Q 95 65 95 79 Q 96 160 99 209 Q 99 217 96 223 Q 92 231 89 235 Q 87 237 85 236 Q 81 235 78 230 L 80 211 Q 82 208 82 202 Q 86 152 82 69" fill="#CCCCCC"/><path d="M 78 230 Q 70 222 56 210 Q 56 208 61 209 Q 67 211 74 212 Q 79 213 80 211" fill="#CCCCCC"/><path d="M 60 98 Q 65 96 69 96 Q 75 95 78 99 Q 81 101 75 103 Q 69 105 60 107" fill="#CCCCCC"/><path d="M 58 137 Q 65 134 69 134 Q 76 135 79 138 Q 82 141 76 143 Q 67 144 56 147" fill="#CCCCCC"/><path d="M 172 52 Q 159 54 146 58 L 134 59 Q 132 59 130 59 Q 125 58 122 56 Q 116 53 124 51 Q 145 48 163 44 Q 180 39 195 33 Q 202 31 208 32 Q 215 33 216 36 Q 217 38 215 40 Q 214 42 200 45 Q 191 47 183 49" fill="#CCCCCC"/><path d="M 123 95 Q 125 103 129 122 Q 129 124 130 126 L 130 132 Q 130 134 130 136 Q 129 140 125 135 Q 121 131 120 125 Q 115 104 108 91 Q 106 88 107 86 Q 108 85 110 86 Q 116 86 119 87" fill="#CCCCCC"/><path d="M 173 85 Q 162 87 153 89 L 143 91 Q 133 93 126 95 Q 124 95 123 95 L 119 87 Q 129 86 142 83 L 153 81 Q 162 79 174 78 L 187 76 Q 187 75 187 75 Q 197 74 205 72 Q 210 71 214 73 Q 226 80 230 85 L 206 83 Q 203 81 194 82 Q 189 82 185 83" fill="#CCCCCC"/><path d="M 230 85 Q 234 89 229 92 Q 220 99 215 112 Q 210 124 208 126 Q 205 130 202 130 Q 199 130 198 126 Q 197 125 197 124 L 199 117 Q 201 112 206 90 Q 208 84 206 83" fill="#CCCCCC"/><path d="M 153 89 Q 153 102 154 121 L 146 123 Q 144 102 143 91 L 142 83 Q 142 80 142 78 Q 140 68 135 60 Q 135 60 134 59 L 146 58 Q 148 59 151 61 Q 154 64 154 69 Q 153 72 153 81" fill="#CCCCCC"/><path d="M 168 119 Q 171 101 173 85 L 174 78 Q 175 69 175 62 Q 175 58 172 52 L 172 52 L 183 49 Q 186 51 189 54 Q 193 58 192 59 Q 191 62 190 65 Q 189 68 187 73 Q 187 75 187 76 L 185 83 Q 181 100 177 117" fill="#CCCCCC"/><path d="M 147 130 Q 141 131 136 132 Q 133 132 130 132 L 130 126 Q 137 124 146 123 L 154 121 Q 161 120 168 119 L 177 117 Q 179 117 181 116 Q 190 115 195 116 Q 197 116 199 117 L 197 124 Q 177 126 154 129" fill="#CCCCCC"/><path d="M 154 130 L 155 130 Q 164 138 166 141 Q 166 144 164 146 Q 161 149 158 155 Q 157 156 157 158 L 152 166 Q 149 171 146 179 L 137 190 Q 133 189 132 186 Q 131 183 134 179 Q 137 174 139 168 L 143 159 Q 145 153 148 146 Q 150 139 148 134 Q 147 132 147 130 L 154 129" fill="#CCCCCC"/><path d="M 182 196 Q 194 201 209 207 Q 217 210 220 216 Q 228 228 228 233 Q 228 238 222 238 Q 218 238 211 233 Q 189 216 174 207 L 162 200 Q 162 200 161 200 Q 149 193 137 190 L 146 179 Q 143 183 148 184 Q 157 187 169 191" fill="#CCCCCC"/><path d="M 177 155 Q 177 154 177 153 Q 175 149 179 148 Q 184 148 189 151 Q 192 152 194 153 L 198 162 Q 198 162 198 163 Q 195 166 190 178 Q 187 187 182 196 L 174 207 Q 168 215 159 221 Q 148 227 135 230 Q 120 233 104 230 Q 99 229 104 227 Q 131 222 144 215 Q 154 209 162 200 L 169 191 Q 172 186 174 180 Q 179 171 178 164 L 178 163" fill="#CCCCCC"/><path d="M 157 158 Q 166 156 175 155 Q 176 155 177 155 L 194 153 Q 217 149 233 147 Q 237 146 242 147 Q 247 149 253 154 Q 257 157 256 160 Q 255 162 250 162 Q 244 162 238 162 Q 216 161 198 162 L 178 163 Q 172 164 167 164 Q 159 165 152 166 L 139 168 Q 129 170 119 173 Q 115 173 110 172 Q 106 171 103 168 Q 99 163 104 163 Q 124 161 143 159" fill="#CCCCCC"/><path d="M 62 60 Q 62 61 61 62 Q 61 67 60 72 Q 60 81 60 90 Q 60 94 60 98 L 60 107 Q 60 122 58 137 L 56 147 Q 53 167 47 184 Q 39 207 28 223 Q 25 228 20 233 Q 18 237 15 237 Q 12 238 13 236 Q 13 234 14 232 Q 20 222 25 210 Q 34 190 40 167 Q 45 150 46 129 Q 48 109 47 86 Q 46 76 46 68 Q 46 62 44 60 Q 41 56 40 53 Q 38 50 40 48 Q 44 47 48 48 Q 54 50 57 52" fill="#000000" /><path d="M 80 56 Q 77 54 73 55 Q 69 57 66 59 Q 63 60 62 60 L 57 52 Q 63 51 67 49 Q 71 47 76 44 Q 79 42 84 44 Q 93 47 98 52 Q 101 54 98 59" fill="#150000" /><path d="M 83 59 L 80 56 L 98 59 Q 95 65 95 79 Q 96 160 99 209 Q 99 217 96 223 Q 92 231 89 235 Q 87 237 85 236 Q 81 235 78 230 L 80 211 Q 82 208 82 202 Q 86 152 82 69" fill="#150000" /><path d="M 78 230 Q 70 222 56 210 Q 56 208 61 209 Q 67 211 74 212 Q 79 213 80 211" fill="#150000" /><path d="M 60 98 Q 65 96 69 96 Q 75 95 78 99 Q 81 101 75 103 Q 69 105 60 107" fill="#2a0000" /><path d="M 58 137 Q 65 134 69 134 Q 76 135 79 138 Q 82 141 76 143 Q 67 144 56 147" fill="#3f0000" /><path d="M 172 52 Q 159 54 146 58 L 134 59 Q 132 59 130 59 Q 125 58 122 56 Q 116 53 124 51 Q 145 48 163 44 Q 180 39 195 33 Q 202 31 208 32 Q 215 33 216 36 Q 217 38 215 40 Q 214 42 200 45 Q 191 47 183 49" fill="#550000" /><path d="M 123 95 Q 125 103 129 122 Q 129 124 130 126 L 130 132 Q 130 134 130 136 Q 129 140 125 135 Q 121 131 120 125 Q 115 104 108 91 Q 106 88 107 86 Q 108 85 110 86 Q 116 86 119 87" fill="#6a0000" /><path d="M 173 85 Q 162 87 153 89 L 143 91 Q 133 93 126 95 Q 124 95 123 95 L 119 87 Q 129 86 142 83 L 153 81 Q 162 79 174 78 L 187 76 Q 187 75 187 75 Q 197 74 205 72 Q 210 71 214 73 Q 226 80 230 85 L 206 83 Q 203 81 194 82 Q 189 82 185 83" fill="#7f0000" /><path d="M 230 85 Q 234 89 229 92 Q 220 99 215 112 Q 210 124 208 126 Q 205 130 202 130 Q 199 130 198 126 Q 197 125 197 124 L 199 117 Q 201 112 206 90 Q 208 84 206 83" fill="#7f0000" /><path d="M 153 89 Q 153 102 154 121 L 146 123 Q 144 102 143 91 L 142 83 Q 142 80 142 78 Q 140 68 135 60 Q 135 60 134 59 L 146 58 Q 148 59 151 61 Q 154 64 154 69 Q 153 72 153 81" fill="#940000" /><path d="M 168 119 Q 171 101 173 85 L 174 78 Q 175 69 175 62 Q 175 58 172 52 L 172 52 L 183 49 Q 186 51 189 54 Q 193 58 192 59 Q 191 62 190 65 Q 189 68 187 73 Q 187 75 187 76 L 185 83 Q 181 100 177 117" fill="#aa0000" /><path d="M 147 130 Q 141 131 136 132 Q 133 132 130 132 L 130 126 Q 137 124 146 123 L 154 121 Q 161 120 168 119 L 177 117 Q 179 117 181 116 Q 190 115 195 116 Q 197 116 199 117 L 197 124 Q 177 126 154 129" fill="#bf0000" /><path d="M 154 130 L 155 130 Q 164 138 166 141 Q 166 144 164 146 Q 161 149 158 155 Q 157 156 157 158 L 152 166 Q 149 171 146 179 L 137 190 Q 133 189 132 186 Q 131 183 134 179 Q 137 174 139 168 L 143 159 Q 145 153 148 146 Q 150 139 148 134 Q 147 132 147 130 L 154 129" fill="#d40000" /><path d="M 182 196 Q 194 201 209 207 Q 217 210 220 216 Q 228 228 228 233 Q 228 238 222 238 Q 218 238 211 233 Q 189 216 174 207 L 162 200 Q 162 200 161 200 Q 149 193 137 190 L 146 179 Q 143 183 148 184 Q 157 187 169 191" fill="#d40000" /><path d="M 177 155 Q 177 154 177 153 Q 175 149 179 148 Q 184 148 189 151 Q 192 152 194 153 L 198 162 Q 198 162 198 163 Q 195 166 190 178 Q 187 187 182 196 L 174 207 Q 168 215 159 221 Q 148 227 135 230 Q 120 233 104 230 Q 99 229 104 227 Q 131 222 144 215 Q 154 209 162 200 L 169 191 Q 172 186 174 180 Q 179 171 178 164 L 178 163" fill="#e90000" /><path d="M 157 158 Q 166 156 175 155 Q 176 155 177 155 L 194 153 Q 217 149 233 147 Q 237 146 242 147 Q 247 149 253 154 Q 257 157 256 160 Q 255 162 250 162 Q 244 162 238 162 Q 216 161 198 162 L 178 163 Q 172 164 167 164 Q 159 165 152 166 L 139 168 Q 129 170 119 173 Q 115 173 110 172 Q 106 171 103 168 Q 99 163 104 163 Q 124 161 143 159" fill="#ff0000" /></svg>