<svg xmlns="http://www.w3.org/2000/svg" xmlns:xlink="http://www.w3.org/1999/xlink" width="270" height="270"><path d="M 0 0 L 270 270 M 270 0 L 0 270 M 135 0 L 135 270 M 0 135 L 270 135" stroke="#CCCCCC" /><path d="M 52 173 L 49 187 Q 47 191 46 195 Q 29 234 19 237 Q 16 238 17 236 Q 17 234 18 232 Q 34 201 41 171 Q 48 137 45 94 Q 44 88 44 82 Q 42 69 38 64 Q 36 60 38 59 Q 41 57 46 59 Q 52 60 55 63 L 61 70 Q 60 70 60 70 Q 59 72 59 108 L 59 117 Q 58 142 57 149 L 55 159" fill="#CCCCCC"/><path d="M 55 63 Q 68 59 77 54 Q 81 53 85 54 Q 94 58 99 63 L 80 67 Q 78 65 74 66 Q 68 68 61 70" fill="#CCCCCC"/><path d="M 99 63 Q 102 65 99 70 Q 96 76 96 91 Q 96 169 99 217 Q 99 230 89 242 Q 86 245 84 244 Q 81 243 77 238 L 80 218 Q 82 216 82 210 Q 86 161 83 80 Q 84 70 80 67" fill="#CCCCCC"/><path d="M 77 238 Q 70 229 57 215 Q 56 213 61 215 Q 68 217 75 219 Q 79 220 80 218" fill="#CCCCCC"/><path d="M 59 108 Q 64 106 68 106 Q 74 107 77 110 Q 79 113 74 114 Q 67 115 59 117" fill="#CCCCCC"/><path d="M 57 149 Q 63 147 67 147 Q 73 147 77 150 Q 79 154 74 155 Q 65 157 55 159" fill="#CCCCCC"/><path d="M 159 98 Q 159 68 157 41 Q 157 37 153 31 Q 151 27 153 25 Q 155 23 159 24 Q 165 25 174 30 Q 180 34 179 37 Q 173 66 170 96" fill="#CCCCCC"/><path d="M 123 71 L 123 68 Q 123 65 125 65 Q 131 64 142 73 Q 146 76 146 82 Q 146 86 144 89 Q 141 92 138 90 Q 131 87 126 75" fill="#CCCCCC"/><path d="M 201 54 L 200 49 Q 199 46 203 46 Q 212 45 222 57 Q 224 62 219 64 Q 214 66 200 75 Q 194 78 185 82 Q 180 83 183 79 Q 197 60 197 59" fill="#CCCCCC"/><path d="M 119 115 L 114 130 Q 110 142 107 143 Q 105 145 104 142 Q 101 139 101 134 Q 100 129 103 125 Q 110 109 109 101 Q 109 98 110 97 Q 112 96 112 97 Q 116 99 119 105 L 121 114" fill="#CCCCCC"/><path d="M 119 105 Q 130 103 141 101 Q 150 99 159 98 L 170 96 Q 188 93 211 90 Q 228 86 234 91 L 218 98 Q 215 98 210 98 Q 172 101 137 112 Q 126 115 121 114" fill="#CCCCCC"/><path d="M 234 91 Q 252 105 252 107 Q 253 110 243 112 Q 231 114 217 123 Q 212 126 210 125 Q 208 123 211 120 Q 220 102 220 102 Q 221 100 218 98" fill="#CCCCCC"/><path d="M 144 168 Q 144 170 143 172 Q 142 176 138 171 Q 135 168 134 163 Q 130 147 125 138 Q 123 134 124 133 Q 125 131 128 132 Q 134 133 137 134 L 141 142 Q 141 147 143 160" fill="#CCCCCC"/><path d="M 137 134 Q 151 132 167 128 Q 185 121 190 123 Q 202 129 205 132 L 183 135 Q 181 133 177 134 Q 142 141 141 142" fill="#CCCCCC"/><path d="M 205 132 Q 208 136 204 141 Q 199 143 193 155 L 181 152 Q 183 146 184 140 Q 185 136 183 135" fill="#CCCCCC"/><path d="M 156 166 Q 151 167 148 167 Q 145 168 144 168 L 143 160 Q 159 157 179 153 Q 180 152 181 152 L 193 155 Q 198 158 198 160 Q 197 162 195 162 Q 179 163 167 164" fill="#CCCCCC"/><path d="M 160 204 Q 143 207 133 201 Q 127 197 136 196 Q 149 195 160 194 L 175 190 Q 191 184 198 186 Q 205 188 207 191 Q 208 193 206 195 Q 205 196 174 202" fill="#CCCCCC"/><path d="M 160 214 L 160 204 L 160 194 Q 159 171 156 166 L 167 164 Q 172 167 176 171 Q 177 173 176 184 Q 175 187 175 190 L 174 202 Q 173 214 172 227 L 160 229" fill="#CCCCCC"/><path d="M 172 227 Q 197 223 214 221 Q 224 217 238 228 Q 243 232 241 234 Q 240 237 235 236 Q 157 236 122 245 Q 118 246 113 244 Q 109 243 105 239 Q 102 235 106 235 Q 135 231 160 229" fill="#CCCCCC"/><path d="M 52 173 L 49 187 Q 47 191 46 195 Q 29 234 19 237 Q 16 238 17 236 Q 17 234 18 232 Q 34 201 41 171 Q 48 137 45 94 Q 44 88 44 82 Q 42 69 38 64 Q 36 60 38 59 Q 41 57 46 59 Q 52 60 55 63 L 61 70 Q 60 70 60 70 Q 59 72 59 108 L 59 117 Q 58 142 57 149 L 55 159" fill="#000000" /><path d="M 55 63 Q 68 59 77 54 Q 81 53 85 54 Q 94 58 99 63 L 80 67 Q 78 65 74 66 Q 68 68 61 70" fill="#120000" /><path d="M 99 63 Q 102 65 99 70 Q 96 76 96 91 Q 96 169 99 217 Q 99 230 89 242 Q 86 245 84 244 Q 81 243 77 238 L 80 218 Q 82 216 82 210 Q 86 161 83 80 Q 84 70 80 67" fill="#120000" /><path d="M 77 238 Q 70 229 57 215 Q 56 213 61 215 Q 68 217 75 219 Q 79 220 80 218" fill="#120000" /><path d="M 59 108 Q 64 106 68 106 Q 74 107 77 110 Q 79 113 74 114 Q 67 115 59 117" fill="#240000" /><path d="M 57 149 Q 63 147 67 147 Q 73 147 77 150 Q 79 154 74 155 Q 65 157 55 159" fill="#360000" /><path d="M 159 98 Q 159 68 157 41 Q 157 37 153 31 Q 151 27 153 25 Q 155 23 159 24 Q 165 25 174 30 Q 180 34 179 37 Q 173 66 170 96" fill="#480000" /><path d="M 123 71 L 123 68 Q 123 65 125 65 Q 131 64 142 73 Q 146 76 146 82 Q 146 86 144 89 Q 141 92 138 90 Q 131 87 126 75" fill="#5b0000" /><path d="M 201 54 L 200 49 Q 199 46 203 46 Q 212 45 222 57 Q 224 62 219 64 Q 214 66 200 75 Q 194 78 185 82 Q 180 83 183 79 Q 197 60 197 59" fill="#6d0000" /><path d="M 119 115 L 114 130 Q 110 142 107 143 Q 105 145 104 142 Q 101 139 101 134 Q 100 129 103 125 Q 110 109 109 101 Q 109 98 110 97 Q 112 96 112 97 Q 116 99 119 105 L 121 114" fill="#7f0000" /><path d="M 119 105 Q 130 103 141 101 Q 150 99 159 98 L 170 96 Q 188 93 211 90 Q 228 86 234 91 L 218 98 Q 215 98 210 98 Q 172 101 137 112 Q 126 115 121 114" fill="#910000" /><path d="M 234 91 Q 252 105 252 107 Q 253 110 243 112 Q 231 114 217 123 Q 212 126 210 125 Q 208 123 211 120 Q 220 102 220 102 Q 221 100 218 98" fill="#910000" /><path d="M 144 168 Q 144 170 143 172 Q 142 176 138 171 Q 135 168 134 163 Q 130 147 125 138 Q 123 134 124 133 Q 125 131 128 132 Q 134 133 137 134 L 141 142 Q 141 147 143 160" fill="#a30000" /><path d="M 137 134 Q 151 132 167 128 Q 185 121 190 123 Q 202 129 205 132 L 183 135 Q 181 133 177 134 Q 142 141 141 142" fill="#b60000" /><path d="M 205 132 Q 208 136 204 141 Q 199 143 193 155 L 181 152 Q 183 146 184 140 Q 185 136 183 135" fill="#b60000" /><path d="M 156 166 Q 151 167 148 167 Q 145 168 144 168 L 143 160 Q 159 157 179 153 Q 180 152 181 152 L 193 155 Q 198 158 198 160 Q 197 162 195 162 Q 179 163 167 164" fill="#c80000" /><path d="M 160 204 Q 143 207 133 201 Q 127 197 136 196 Q 149 195 160 194 L 175 190 Q 191 184 198 186 Q 205 188 207 191 Q 208 193 206 195 Q 205 196 174 202" fill="#da0000" /><path d="M 160 214 L 160 204 L 160 194 Q 159 171 156 166 L 167 164 Q 172 167 176 171 Q 177 173 176 184 Q 175 187 175 190 L 174 202 Q 173 214 172 227 L 160 229" fill="#ec0000" /><path d="M 172 227 Q 197 223 214 221 Q 224 217 238 228 Q 243 232 241 234 Q 240 237 235 236 Q 157 236 122 245 Q 118 246 113 244 Q 109 243 105 239 Q 102 235 106 235 Q 135 231 160 229" fill="#ff0000" /></svg>