<svg xmlns="http://www.w3.org/2000/svg" xmlns:xlink="http://www.w3.org/1999/xlink" width="270" height="270"><path d="M 0 0 L 270 270 M 270 0 L 0 270 M 135 0 L 135 270 M 0 135 L 270 135" stroke="#CCCCCC" /><path d="M 77 49 Q 90 48 101 47 Q 120 45 157 37 Q 179 30 191 37 Q 197 40 197 44 Q 194 47 191 47 Q 154 51 137 54 L 125 56 Q 106 59 91 62 Q 84 64 80 62 Q 79 61 79 61" fill="#CCCCCC"/><path d="M 141 58 L 146 63 Q 146 64 146 64 Q 146 64 140 100 L 125 104 Q 126 63 125 56 L 137 54" fill="#CCCCCC"/><path d="M 140 100 Q 151 97 163 93 Q 170 91 175 94 Q 189 102 194 106 L 166 109 Q 163 106 155 108 Q 124 113 92 118 Q 82 121 75 118 L 76 110 Q 101 108 124 104 Q 124 103 125 104" fill="#CCCCCC"/><path d="M 194 106 Q 198 111 193 116 Q 183 121 175 140 L 160 138 Q 160 138 161 138 Q 169 113 166 109" fill="#CCCCCC"/><path d="M 73 153 Q 112 149 160 138 L 175 140 Q 182 146 182 147 Q 182 150 179 150 Q 156 152 137 154 L 126 156 Q 98 159 81 163 Q 76 164 73 162" fill="#CCCCCC"/><path d="M 126 156 L 137 154 Q 143 158 148 164 Q 148 165 148 166 Q 148 166 141 208 L 126 210 Q 126 202 127 196 Q 128 162 126 156" fill="#CCCCCC"/><path d="M 61 235 Q 56 239 52 235 Q 48 232 46 228 Q 43 223 49 218 Q 49 217 50 216 Q 61 201 61 132 Q 62 60 56 51 Q 52 46 55 44 Q 57 42 61 43 Q 66 43 77 49 L 79 61 Q 78 71 77 100 Q 76 105 76 110 L 75 118 Q 74 140 73 153 L 73 162 Q 73 170 73 178 Q 70 212 73 214" fill="#CCCCCC"/><path d="M 141 208 Q 193 201 201 201 Q 207 201 216 206 Q 226 212 226 216 Q 226 217 226 217 Q 224 222 213 221 Q 196 219 150 220 Q 72 223 61 235 L 73 214 Q 75 218 107 212 Q 117 211 126 210" fill="#CCCCCC"/><path d="M 77 49 Q 90 48 101 47 Q 120 45 157 37 Q 179 30 191 37 Q 197 40 197 44 Q 194 47 191 47 Q 154 51 137 54 L 125 56 Q 106 59 91 62 Q 84 64 80 62 Q 79 61 79 61" fill="#000000" /><path d="M 141 58 L 146 63 Q 146 64 146 64 Q 146 64 140 100 L 125 104 Q 126 63 125 56 L 137 54" fill="#330000" /><path d="M 140 100 Q 151 97 163 93 Q 170 91 175 94 Q 189 102 194 106 L 166 109 Q 163 106 155 108 Q 124 113 92 118 Q 82 121 75 118 L 76 110 Q 101 108 124 104 Q 124 103 125 104" fill="#660000" /><path d="M 194 106 Q 198 111 193 116 Q 183 121 175 140 L 160 138 Q 160 138 161 138 Q 169 113 166 109" fill="#660000" /><path d="M 73 153 Q 112 149 160 138 L 175 140 Q 182 146 182 147 Q 182 150 179 150 Q 156 152 137 154 L 126 156 Q 98 159 81 163 Q 76 164 73 162" fill="#990000" /><path d="M 126 156 L 137 154 Q 143 158 148 164 Q 148 165 148 166 Q 148 166 141 208 L 126 210 Q 126 202 127 196 Q 128 162 126 156" fill="#cc0000" /><path d="M 61 235 Q 56 239 52 235 Q 48 232 46 228 Q 43 223 49 218 Q 49 217 50 216 Q 61 201 61 132 Q 62 60 56 51 Q 52 46 55 44 Q 57 42 61 43 Q 66 43 77 49 L 79 61 Q 78 71 77 100 Q 76 105 76 110 L 75 118 Q 74 140 73 153 L 73 162 Q 73 170 73 178 Q 70 212 73 214" fill="#ff0000" /><path d="M 141 208 Q 193 201 201 201 Q 207 201 216 206 Q 226 212 226 216 Q 226 217 226 217 Q 224 222 213 221 Q 196 219 150 220 Q 72 223 61 235 L 73 214 Q 75 218 107 212 Q 117 211 126 210" fill="#ff0000" /></svg>