<svg xmlns="http://www.w3.org/2000/svg" xmlns:xlink="http://www.w3.org/1999/xlink" width="270" height="270"><path d="M 0 0 L 270 270 M 270 0 L 0 270 M 135 0 L 135 270 M 0 135 L 270 135" stroke="#CCCCCC" /><path d="M 90 42 Q 93 39 96 36 Q 115 19 115 13 Q 115 10 118 10 Q 120 10 125 13 Q 131 17 133 21 Q 135 26 130 27 Q 126 29 108 38 Q 102 42 93 46" fill="#000000" /><path d="M 108 88 Q 108 89 108 90 Q 108 94 102 90 Q 97 86 95 80 Q 85 60 76 49 Q 72 45 73 43 Q 74 42 77 42 Q 87 41 90 42 L 93 46 Q 93 46 93 46 Q 94 49 97 58 L 100 65 Q 102 69 105 76 Q 106 79 107 81" fill="#150000" /><path d="M 97 58 Q 119 49 127 51 Q 133 52 136 55 Q 138 58 132 59 Q 118 61 100 65" fill="#2a0000" /><path d="M 198 29 Q 197 28 194 28 Q 177 29 170 31 Q 165 32 158 27 Q 155 24 156 23 Q 157 22 160 22 Q 165 22 173 21 Q 204 17 208 21 Q 219 29 222 34" fill="#3f0000" /><path d="M 188 59 L 191 53 L 194 46 Q 196 42 198 38 Q 200 31 198 29 L 222 34 Q 225 39 220 42 Q 210 47 204 59 Q 195 76 191 79 Q 189 82 185 82 Q 182 82 181 78 L 183 71" fill="#3f0000" /><path d="M 191 53 Q 179 53 163 55 Q 159 55 158 54 Q 153 50 157 49 Q 157 49 158 49 Q 189 41 194 46" fill="#550000" /><path d="M 181 78 Q 152 81 114 88 Q 110 88 108 88 L 107 81 Q 121 79 137 76 Q 180 67 183 71" fill="#6a0000" /><path d="M 110 155 Q 110 157 110 159 Q 109 163 104 158 Q 99 154 97 146 Q 89 123 80 109 Q 77 105 79 103 Q 79 102 83 102 Q 92 103 96 104 L 99 113 Q 104 131 110 149" fill="#7f0000" /><path d="M 96 104 Q 109 102 125 99 Q 161 92 180 90 Q 199 85 204 88 Q 215 97 218 102 L 193 99 Q 186 94 145 102 L 135 105 Q 114 108 99 113" fill="#940000" /><path d="M 180 140 Q 184 137 194 106 Q 196 102 193 99 L 218 102 Q 221 106 217 109 Q 210 115 207 123 Q 195 151 191 156 Q 186 161 183 159 Q 179 155 175 147" fill="#940000" /><path d="M 136 130 Q 131 131 125 132 Q 120 133 117 131 Q 112 128 116 127 Q 126 124 136 122 L 150 118 Q 150 118 151 117 Q 160 115 166 115 Q 172 116 174 119 Q 176 122 171 123 Q 160 125 149 127" fill="#aa0000" /><path d="M 137 144 Q 136 136 136 130 L 136 122 Q 135 106 135 105 L 145 102 Q 147 104 150 107 Q 151 109 150 116 Q 150 117 150 118 L 149 127 Q 148 134 147 142" fill="#bf0000" /><path d="M 130 153 Q 123 154 116 155 Q 112 155 110 155 L 110 149 Q 122 146 137 144 L 147 142 Q 170 138 175 139 Q 178 139 180 140 L 175 147 Q 157 148 137 152" fill="#d40000" /><path d="M 106 193 L 91 197 Q 85 198 77 193 Q 70 189 71 187 Q 72 184 77 184 Q 99 184 125 181 L 142 178 Q 143 177 144 177 Q 180 172 189 167 Q 196 163 201 166 Q 216 174 219 178 L 192 182 Q 191 179 182 180 Q 162 182 138 187 L 121 190" fill="#e90000" /><path d="M 219 178 Q 220 181 216 185 Q 212 189 203 217 Q 192 249 177 256 Q 172 259 168 254 L 166 233 Q 175 235 182 226 Q 188 216 192 194 Q 194 186 192 182" fill="#e90000" /><path d="M 168 254 Q 163 246 152 235 Q 146 228 153 230 Q 159 232 166 233" fill="#e90000" /><path d="M 125 181 Q 131 163 130 155 Q 130 154 130 153 L 137 152 Q 141 153 149 162 Q 152 166 149 169 Q 145 173 142 178 L 138 187 Q 135 192 132 197 Q 131 198 131 199 Q 113 232 85 243 Q 73 249 59 251 Q 50 252 46 251 Q 44 249 48 248 Q 52 246 57 244 Q 94 235 121 190" fill="#ff0000" /></svg>