<svg xmlns="http://www.w3.org/2000/svg" xmlns:xlink="http://www.w3.org/1999/xlink" width="270" height="270"><path d="M 0 0 L 270 270 M 270 0 L 0 270 M 135 0 L 135 270 M 0 135 L 270 135" stroke="#CCCCCC" /><path d="M 62 90 Q 80 68 79 61 Q 78 57 81 57 Q 85 56 90 60 Q 97 63 100 67 Q 103 72 98 75 Q 91 77 78 87 Q 73 90 66 94" fill="#CCCCCC"/><path d="M 70 175 Q 58 127 54 115 Q 50 103 42 93 Q 39 89 41 87 Q 43 85 47 85 Q 55 86 62 90 L 66 94 Q 66 95 69 113 L 70 120 Q 71 122 71 124 Q 72 131 74 140 L 76 148 Q 78 160 82 174" fill="#CCCCCC"/><path d="M 69 113 Q 78 107 88 107 Q 95 108 98 111 Q 100 114 94 116 Q 84 118 70 120" fill="#CCCCCC"/><path d="M 74 140 Q 74 140 74 140 Q 85 136 91 136 Q 98 137 101 141 Q 103 143 97 145 Q 88 147 76 148" fill="#CCCCCC"/><path d="M 133 51 Q 144 50 146 49 Q 154 46 161 48 Q 169 49 171 52 Q 172 54 170 56 Q 169 57 166 57 Q 141 61 131 58" fill="#CCCCCC"/><path d="M 124 100 Q 120 102 118 102 Q 116 101 114 98 Q 111 92 114 87 Q 115 85 116 81 Q 124 32 115 21 Q 113 19 114 18 Q 115 16 119 16 Q 125 16 132 20 Q 138 24 139 27 Q 139 30 138 33 Q 135 36 133 51 L 131 58 Q 126 86 127 87" fill="#CCCCCC"/><path d="M 142 94 Q 140 93 134 95 Q 127 96 124 100 L 127 87 Q 129 88 138 85 Q 146 81 156 87 Q 162 90 162 92 Q 161 94 159 98" fill="#CCCCCC"/><path d="M 138 169 Q 129 156 136 149 Q 139 145 143 106 Q 145 97 142 94 L 159 98 Q 156 102 151 140 Q 149 159 144 169" fill="#CCCCCC"/><path d="M 103 110 L 105 109 Q 107 107 110 108 Q 114 111 117 112 Q 122 115 120 120 Q 117 134 119 152 Q 120 160 115 166 Q 113 168 111 166 Q 106 159 106 153 Q 109 126 104 113" fill="#CCCCCC"/><path d="M 197 73 Q 195 72 184 73 Q 177 74 172 71 Q 168 69 168 66 Q 168 64 172 64 Q 184 64 198 59 Q 206 56 211 60 Q 222 66 225 72" fill="#CCCCCC"/><path d="M 185 164 Q 188 147 191 133 L 193 125 Q 194 114 196 104 L 197 95 Q 199 75 197 73 L 225 72 Q 228 76 223 80 Q 213 88 198 162" fill="#CCCCCC"/><path d="M 196 104 Q 185 104 172 105 Q 169 105 167 104 Q 163 100 167 99 Q 194 92 197 95" fill="#CCCCCC"/><path d="M 191 133 L 164 133 Q 159 129 164 128 Q 186 121 193 125" fill="#CCCCCC"/><path d="M 206 160 L 213 160 Q 231 156 246 169 Q 251 173 249 176 Q 247 179 242 179 Q 241 178 241 179 Q 119 173 43 191 Q 31 193 22 184 Q 18 179 24 179 Q 48 177 70 175 L 82 174 Q 131 169 138 169 L 144 169 Q 166 166 185 164 L 198 162" fill="#CCCCCC"/><path d="M 85 195 L 88 194 Q 91 194 99 197 Q 107 200 107 204 Q 108 206 105 210 Q 91 222 91 222 Q 58 253 39 253 Q 31 253 37 249 Q 80 216 84 199" fill="#CCCCCC"/><path d="M 158 201 L 159 197 Q 160 193 163 195 Q 205 217 206 232 Q 208 245 204 249 Q 202 252 199 251 Q 195 249 191 243 Q 175 220 161 204" fill="#CCCCCC"/><path d="M 62 90 Q 80 68 79 61 Q 78 57 81 57 Q 85 56 90 60 Q 97 63 100 67 Q 103 72 98 75 Q 91 77 78 87 Q 73 90 66 94" fill="#000000" /><path d="M 70 175 Q 58 127 54 115 Q 50 103 42 93 Q 39 89 41 87 Q 43 85 47 85 Q 55 86 62 90 L 66 94 Q 66 95 69 113 L 70 120 Q 71 122 71 124 Q 72 131 74 140 L 76 148 Q 78 160 82 174" fill="#150000" /><path d="M 69 113 Q 78 107 88 107 Q 95 108 98 111 Q 100 114 94 116 Q 84 118 70 120" fill="#2a0000" /><path d="M 74 140 Q 74 140 74 140 Q 85 136 91 136 Q 98 137 101 141 Q 103 143 97 145 Q 88 147 76 148" fill="#3f0000" /><path d="M 133 51 Q 144 50 146 49 Q 154 46 161 48 Q 169 49 171 52 Q 172 54 170 56 Q 169 57 166 57 Q 141 61 131 58" fill="#550000" /><path d="M 124 100 Q 120 102 118 102 Q 116 101 114 98 Q 111 92 114 87 Q 115 85 116 81 Q 124 32 115 21 Q 113 19 114 18 Q 115 16 119 16 Q 125 16 132 20 Q 138 24 139 27 Q 139 30 138 33 Q 135 36 133 51 L 131 58 Q 126 86 127 87" fill="#6a0000" /><path d="M 142 94 Q 140 93 134 95 Q 127 96 124 100 L 127 87 Q 129 88 138 85 Q 146 81 156 87 Q 162 90 162 92 Q 161 94 159 98" fill="#6a0000" /><path d="M 138 169 Q 129 156 136 149 Q 139 145 143 106 Q 145 97 142 94 L 159 98 Q 156 102 151 140 Q 149 159 144 169" fill="#6a0000" /><path d="M 103 110 L 105 109 Q 107 107 110 108 Q 114 111 117 112 Q 122 115 120 120 Q 117 134 119 152 Q 120 160 115 166 Q 113 168 111 166 Q 106 159 106 153 Q 109 126 104 113" fill="#7f0000" /><path d="M 197 73 Q 195 72 184 73 Q 177 74 172 71 Q 168 69 168 66 Q 168 64 172 64 Q 184 64 198 59 Q 206 56 211 60 Q 222 66 225 72" fill="#940000" /><path d="M 185 164 Q 188 147 191 133 L 193 125 Q 194 114 196 104 L 197 95 Q 199 75 197 73 L 225 72 Q 228 76 223 80 Q 213 88 198 162" fill="#940000" /><path d="M 196 104 Q 185 104 172 105 Q 169 105 167 104 Q 163 100 167 99 Q 194 92 197 95" fill="#aa0000" /><path d="M 191 133 L 164 133 Q 159 129 164 128 Q 186 121 193 125" fill="#bf0000" /><path d="M 206 160 L 213 160 Q 231 156 246 169 Q 251 173 249 176 Q 247 179 242 179 Q 241 178 241 179 Q 119 173 43 191 Q 31 193 22 184 Q 18 179 24 179 Q 48 177 70 175 L 82 174 Q 131 169 138 169 L 144 169 Q 166 166 185 164 L 198 162" fill="#d40000" /><path d="M 85 195 L 88 194 Q 91 194 99 197 Q 107 200 107 204 Q 108 206 105 210 Q 91 222 91 222 Q 58 253 39 253 Q 31 253 37 249 Q 80 216 84 199" fill="#e90000" /><path d="M 158 201 L 159 197 Q 160 193 163 195 Q 205 217 206 232 Q 208 245 204 249 Q 202 252 199 251 Q 195 249 191 243 Q 175 220 161 204" fill="#ff0000" /></svg>