<svg xmlns="http://www.w3.org/2000/svg" xmlns:xlink="http://www.w3.org/1999/xlink" width="270" height="270"><path d="M 0 0 L 270 270 M 270 0 L 0 270 M 135 0 L 135 270 M 0 135 L 270 135" stroke="#CCCCCC" /><path d="M 150 70 Q 116 72 106 74 L 94 76 Q 88 77 83 78 Q 62 82 51 75 Q 46 71 53 71 Q 73 68 92 67 L 105 65 Q 131 62 153 59 L 171 56 Q 172 56 173 56 Q 199 49 211 61 Q 215 65 213 67 Q 212 70 208 70 Q 174 67 165 70" fill="#CCCCCC"/><path d="M 106 74 Q 107 96 107 99 Q 105 102 102 99 Q 98 95 94 76 L 92 67 Q 89 56 81 46 Q 76 41 82 38 Q 88 36 99 41 Q 104 43 104 48 Q 104 56 105 65" fill="#CCCCCC"/><path d="M 155 90 L 150 95 Q 145 98 145 94 Q 144 88 150 70 L 153 59 Q 159 35 156 28 Q 153 24 157 23 Q 162 20 167 23 Q 177 29 181 34 Q 184 37 179 41 Q 174 49 171 56 L 165 70" fill="#CCCCCC"/><path d="M 117 140 Q 116 140 115 140 Q 75 144 41 153 Q 36 154 30 152 Q 25 150 21 146 Q 16 141 22 140 Q 73 136 117 132 L 135 130 Q 190 124 222 118 Q 233 116 248 128 Q 253 132 251 135 Q 249 138 244 138 Q 235 137 226 137 Q 171 135 133 139" fill="#CCCCCC"/><path d="M 111 181 Q 114 160 117 140 L 117 132 Q 118 124 119 116 Q 119 111 116 104 Q 114 100 117 98 Q 119 96 123 98 Q 129 100 138 107 Q 143 112 142 115 Q 138 121 135 130 L 133 139 Q 128 158 123 179" fill="#CCCCCC"/><path d="M 98 242 L 98 245 Q 96 249 91 242 Q 86 237 86 229 Q 82 202 75 186 Q 73 181 75 179 Q 76 178 79 179 Q 89 181 92 183 L 95 192 Q 95 200 99 227 Q 99 228 99 229 L 99 239" fill="#CCCCCC"/><path d="M 92 183 Q 102 182 111 181 L 123 179 Q 125 178 128 178 Q 142 175 158 169 Q 165 167 170 169 Q 184 176 189 180 L 159 183 Q 127 187 95 192" fill="#CCCCCC"/><path d="M 157 221 Q 161 208 163 192 Q 164 187 161 184 Q 160 183 159 183 L 189 180 Q 193 185 188 191 Q 180 197 171 224" fill="#CCCCCC"/><path d="M 99 229 Q 124 227 155 221 Q 156 221 157 221 L 171 224 Q 177 229 177 231 Q 177 234 174 234 Q 127 235 105 239 Q 102 239 99 239" fill="#CCCCCC"/><path d="M 150 70 Q 116 72 106 74 L 94 76 Q 88 77 83 78 Q 62 82 51 75 Q 46 71 53 71 Q 73 68 92 67 L 105 65 Q 131 62 153 59 L 171 56 Q 172 56 173 56 Q 199 49 211 61 Q 215 65 213 67 Q 212 70 208 70 Q 174 67 165 70" fill="#000000" /><path d="M 106 74 Q 107 96 107 99 Q 105 102 102 99 Q 98 95 94 76 L 92 67 Q 89 56 81 46 Q 76 41 82 38 Q 88 36 99 41 Q 104 43 104 48 Q 104 56 105 65" fill="#240000" /><path d="M 155 90 L 150 95 Q 145 98 145 94 Q 144 88 150 70 L 153 59 Q 159 35 156 28 Q 153 24 157 23 Q 162 20 167 23 Q 177 29 181 34 Q 184 37 179 41 Q 174 49 171 56 L 165 70" fill="#480000" /><path d="M 117 140 Q 116 140 115 140 Q 75 144 41 153 Q 36 154 30 152 Q 25 150 21 146 Q 16 141 22 140 Q 73 136 117 132 L 135 130 Q 190 124 222 118 Q 233 116 248 128 Q 253 132 251 135 Q 249 138 244 138 Q 235 137 226 137 Q 171 135 133 139" fill="#6d0000" /><path d="M 111 181 Q 114 160 117 140 L 117 132 Q 118 124 119 116 Q 119 111 116 104 Q 114 100 117 98 Q 119 96 123 98 Q 129 100 138 107 Q 143 112 142 115 Q 138 121 135 130 L 133 139 Q 128 158 123 179" fill="#910000" /><path d="M 98 242 L 98 245 Q 96 249 91 242 Q 86 237 86 229 Q 82 202 75 186 Q 73 181 75 179 Q 76 178 79 179 Q 89 181 92 183 L 95 192 Q 95 200 99 227 Q 99 228 99 229 L 99 239" fill="#b60000" /><path d="M 92 183 Q 102 182 111 181 L 123 179 Q 125 178 128 178 Q 142 175 158 169 Q 165 167 170 169 Q 184 176 189 180 L 159 183 Q 127 187 95 192" fill="#da0000" /><path d="M 157 221 Q 161 208 163 192 Q 164 187 161 184 Q 160 183 159 183 L 189 180 Q 193 185 188 191 Q 180 197 171 224" fill="#da0000" /><path d="M 99 229 Q 124 227 155 221 Q 156 221 157 221 L 171 224 Q 177 229 177 231 Q 177 234 174 234 Q 127 235 105 239 Q 102 239 99 239" fill="#ff0000" /></svg>