<svg xmlns="http://www.w3.org/2000/svg" xmlns:xlink="http://www.w3.org/1999/xlink" width="270" height="270"><path d="M 0 0 L 270 270 M 270 0 L 0 270 M 135 0 L 135 270 M 0 135 L 270 135" stroke="#CCCCCC" /><path d="M 167 58 Q 134 60 122 63 L 110 65 Q 101 66 93 68 Q 73 71 62 65 Q 57 61 65 60 Q 87 57 108 55 L 121 53 Q 147 50 170 47 L 186 44 Q 187 43 188 43 Q 217 37 229 48 Q 232 52 231 55 Q 230 58 226 57 Q 194 55 180 58" fill="#CCCCCC"/><path d="M 122 63 Q 121 76 120 79 Q 119 82 115 79 Q 111 75 110 65 L 108 55 Q 105 41 98 32 Q 95 27 100 24 Q 106 22 117 29 Q 123 31 121 36 Q 121 44 121 53" fill="#CCCCCC"/><path d="M 168 83 L 164 86 Q 160 90 159 86 Q 159 81 167 58 L 170 47 Q 177 23 173 14 Q 171 11 174 9 Q 179 7 183 9 Q 193 14 196 19 Q 199 22 195 27 Q 189 37 186 44 L 180 58" fill="#CCCCCC"/><path d="M 97 113 Q 92 115 87 116 Q 64 124 59 124 Q 58 123 59 121 Q 60 120 62 120 Q 111 96 112 89 Q 113 86 115 85 Q 118 85 121 86 Q 131 91 136 94 Q 138 97 138 99 Q 137 101 133 101 Q 117 104 108 109" fill="#CCCCCC"/><path d="M 80 157 L 61 163 Q 51 167 41 160 Q 37 157 38 154 Q 39 152 42 152 Q 62 150 102 142 L 113 140 Q 122 137 133 135 Q 139 134 146 137 Q 150 139 150 142 Q 150 144 145 144 Q 127 146 113 150 L 94 154" fill="#CCCCCC"/><path d="M 102 142 Q 101 134 101 127 Q 101 120 97 113 L 108 109 Q 116 115 118 116 Q 118 119 116 122 Q 114 129 113 140 L 113 150 Q 111 203 111 222 Q 110 243 105 247 Q 104 249 102 248 Q 101 247 100 243 L 99 243 Q 93 231 98 216 Q 100 205 101 168" fill="#CCCCCC"/><path d="M 102 142 L 101 168 Q 99 170 97 174 Q 71 211 44 222 Q 41 223 39 222 Q 37 222 39 219 Q 80 185 94 154" fill="#CCCCCC"/><path d="M 118 171 L 117 169 Q 118 166 119 165 Q 120 165 124 166 Q 143 175 143 182 Q 144 189 142 192 Q 141 194 138 194 Q 135 194 132 190 Q 128 183 123 177" fill="#CCCCCC"/><path d="M 159 118 L 160 117 Q 163 115 166 116 Q 170 118 175 121 Q 180 124 178 130 Q 177 141 177 169 Q 177 193 172 200 Q 170 203 167 200 Q 159 192 162 183 Q 167 138 159 122" fill="#CCCCCC"/><path d="M 204 98 L 198 91 Q 193 84 198 82 Q 203 80 213 85 Q 228 91 224 99 Q 215 129 225 220 Q 226 240 221 252 Q 218 262 214 262 Q 210 262 205 254 L 205 228 Q 207 227 207 222 Q 206 114 205 107" fill="#CCCCCC"/><path d="M 205 254 Q 201 246 185 234 Q 179 230 179 228 Q 178 225 187 228 Q 204 229 205 228" fill="#CCCCCC"/><path d="M 167 58 Q 134 60 122 63 L 110 65 Q 101 66 93 68 Q 73 71 62 65 Q 57 61 65 60 Q 87 57 108 55 L 121 53 Q 147 50 170 47 L 186 44 Q 187 43 188 43 Q 217 37 229 48 Q 232 52 231 55 Q 230 58 226 57 Q 194 55 180 58" fill="#000000" /><path d="M 122 63 Q 121 76 120 79 Q 119 82 115 79 Q 111 75 110 65 L 108 55 Q 105 41 98 32 Q 95 27 100 24 Q 106 22 117 29 Q 123 31 121 36 Q 121 44 121 53" fill="#1c0000" /><path d="M 168 83 L 164 86 Q 160 90 159 86 Q 159 81 167 58 L 170 47 Q 177 23 173 14 Q 171 11 174 9 Q 179 7 183 9 Q 193 14 196 19 Q 199 22 195 27 Q 189 37 186 44 L 180 58" fill="#380000" /><path d="M 97 113 Q 92 115 87 116 Q 64 124 59 124 Q 58 123 59 121 Q 60 120 62 120 Q 111 96 112 89 Q 113 86 115 85 Q 118 85 121 86 Q 131 91 136 94 Q 138 97 138 99 Q 137 101 133 101 Q 117 104 108 109" fill="#550000" /><path d="M 80 157 L 61 163 Q 51 167 41 160 Q 37 157 38 154 Q 39 152 42 152 Q 62 150 102 142 L 113 140 Q 122 137 133 135 Q 139 134 146 137 Q 150 139 150 142 Q 150 144 145 144 Q 127 146 113 150 L 94 154" fill="#710000" /><path d="M 102 142 Q 101 134 101 127 Q 101 120 97 113 L 108 109 Q 116 115 118 116 Q 118 119 116 122 Q 114 129 113 140 L 113 150 Q 111 203 111 222 Q 110 243 105 247 Q 104 249 102 248 Q 101 247 100 243 L 99 243 Q 93 231 98 216 Q 100 205 101 168" fill="#8d0000" /><path d="M 102 142 L 101 168 Q 99 170 97 174 Q 71 211 44 222 Q 41 223 39 222 Q 37 222 39 219 Q 80 185 94 154" fill="#aa0000" /><path d="M 118 171 L 117 169 Q 118 166 119 165 Q 120 165 124 166 Q 143 175 143 182 Q 144 189 142 192 Q 141 194 138 194 Q 135 194 132 190 Q 128 183 123 177" fill="#c60000" /><path d="M 159 118 L 160 117 Q 163 115 166 116 Q 170 118 175 121 Q 180 124 178 130 Q 177 141 177 169 Q 177 193 172 200 Q 170 203 167 200 Q 159 192 162 183 Q 167 138 159 122" fill="#e20000" /><path d="M 204 98 L 198 91 Q 193 84 198 82 Q 203 80 213 85 Q 228 91 224 99 Q 215 129 225 220 Q 226 240 221 252 Q 218 262 214 262 Q 210 262 205 254 L 205 228 Q 207 227 207 222 Q 206 114 205 107" fill="#ff0000" /><path d="M 205 254 Q 201 246 185 234 Q 179 230 179 228 Q 178 225 187 228 Q 204 229 205 228" fill="#ff0000" /></svg>