<svg xmlns="http://www.w3.org/2000/svg" xmlns:xlink="http://www.w3.org/1999/xlink" width="270" height="270"><path d="M 0 0 L 270 270 M 270 0 L 0 270 M 135 0 L 135 270 M 0 135 L 270 135" stroke="#CCCCCC" /><path d="M 138 48 Q 104 49 103 51 L 92 53 Q 84 54 76 56 Q 57 59 48 52 Q 42 49 50 48 Q 71 46 90 44 L 102 42 Q 122 40 140 37 L 154 35 Q 155 35 155 35 Q 182 28 194 39 Q 198 43 197 45 Q 195 47 191 47 Q 165 45 150 47" fill="#CCCCCC"/><path d="M 103 51 Q 104 67 103 70 Q 102 73 99 70 Q 95 67 92 53 L 90 44 Q 87 36 82 29 Q 78 24 82 22 Q 87 20 97 25 Q 102 26 102 31 Q 102 36 102 42" fill="#CCCCCC"/><path d="M 142 65 L 139 67 Q 135 70 135 66 Q 135 61 138 48 L 140 37 Q 143 21 140 15 Q 138 12 140 11 Q 144 8 148 10 Q 157 14 160 18 Q 163 21 159 25 Q 156 30 154 35 L 150 47" fill="#CCCCCC"/><path d="M 41 122 L 40 124 Q 35 131 31 124 Q 29 120 28 112 Q 27 107 29 103 Q 36 97 40 92 Q 45 85 43 79 Q 44 71 49 75 Q 52 78 55 84 L 54 92" fill="#CCCCCC"/><path d="M 55 84 Q 69 82 83 80 Q 141 71 176 68 Q 197 64 205 69 L 186 76 Q 182 76 170 77 Q 108 82 72 93 Q 59 95 54 92" fill="#CCCCCC"/><path d="M 205 69 Q 224 84 224 87 Q 224 89 214 91 Q 202 93 187 102 Q 182 105 180 104 L 180 103 Q 184 92 189 80 Q 189 79 186 76" fill="#CCCCCC"/><path d="M 98 100 L 110 98 Q 120 96 129 93 Q 136 91 143 93 Q 149 94 151 97 Q 152 99 150 101 Q 149 102 140 103 Q 124 106 109 108 Q 91 111 83 106 Q 77 102 85 101" fill="#CCCCCC"/><path d="M 82 136 Q 78 136 71 131 Q 66 127 72 126 Q 105 121 114 119 Q 115 118 118 118 Q 142 111 149 117 Q 154 119 154 122 Q 152 125 149 124 Q 115 129 91 134" fill="#CCCCCC"/><path d="M 86 151 Q 83 151 83 153 Q 51 171 38 170 Q 32 169 37 167 Q 71 151 82 136 L 91 134 Q 93 134 94 135 Q 99 138 99 141 Q 98 142 92 147" fill="#CCCCCC"/><path d="M 139 197 L 138 221 Q 133 252 122 259 L 122 220 Q 127 194 121 180 L 113 167 Q 109 164 106 162 L 92 154 Q 88 152 86 151 L 92 147 Q 110 151 125 165 L 128 169 L 128 169 L 135 184" fill="#CCCCCC"/><path d="M 122 259 Q 118 261 114 256 Q 107 248 90 237 Q 87 233 87 232 Q 87 229 101 232 Q 114 233 117 231 Q 120 229 122 220" fill="#CCCCCC"/><path d="M 106 162 Q 106 162 105 163 Q 101 165 96 170 Q 56 201 39 201 Q 33 201 38 199 Q 84 172 92 154" fill="#CCCCCC"/><path d="M 121 180 Q 121 182 120 183 Q 120 184 108 194 Q 71 230 39 236 Q 35 237 34 235 Q 31 234 35 232 Q 91 201 113 167" fill="#CCCCCC"/><path d="M 125 165 Q 134 157 143 151 Q 162 136 162 128 Q 162 125 165 125 Q 168 125 174 129 Q 179 134 182 139 Q 184 144 178 146 Q 169 148 151 158 Q 142 163 128 169" fill="#CCCCCC"/><path d="M 128 169 Q 160 190 183 202 Q 191 205 238 218 Q 242 219 242 221 Q 242 222 237 223 Q 207 231 192 229 Q 181 227 135 184" fill="#CCCCCC"/><path d="M 138 48 Q 104 49 103 51 L 92 53 Q 84 54 76 56 Q 57 59 48 52 Q 42 49 50 48 Q 71 46 90 44 L 102 42 Q 122 40 140 37 L 154 35 Q 155 35 155 35 Q 182 28 194 39 Q 198 43 197 45 Q 195 47 191 47 Q 165 45 150 47" fill="#000000" /><path d="M 103 51 Q 104 67 103 70 Q 102 73 99 70 Q 95 67 92 53 L 90 44 Q 87 36 82 29 Q 78 24 82 22 Q 87 20 97 25 Q 102 26 102 31 Q 102 36 102 42" fill="#150000" /><path d="M 142 65 L 139 67 Q 135 70 135 66 Q 135 61 138 48 L 140 37 Q 143 21 140 15 Q 138 12 140 11 Q 144 8 148 10 Q 157 14 160 18 Q 163 21 159 25 Q 156 30 154 35 L 150 47" fill="#2a0000" /><path d="M 41 122 L 40 124 Q 35 131 31 124 Q 29 120 28 112 Q 27 107 29 103 Q 36 97 40 92 Q 45 85 43 79 Q 44 71 49 75 Q 52 78 55 84 L 54 92" fill="#3f0000" /><path d="M 55 84 Q 69 82 83 80 Q 141 71 176 68 Q 197 64 205 69 L 186 76 Q 182 76 170 77 Q 108 82 72 93 Q 59 95 54 92" fill="#550000" /><path d="M 205 69 Q 224 84 224 87 Q 224 89 214 91 Q 202 93 187 102 Q 182 105 180 104 L 180 103 Q 184 92 189 80 Q 189 79 186 76" fill="#550000" /><path d="M 98 100 L 110 98 Q 120 96 129 93 Q 136 91 143 93 Q 149 94 151 97 Q 152 99 150 101 Q 149 102 140 103 Q 124 106 109 108 Q 91 111 83 106 Q 77 102 85 101" fill="#6a0000" /><path d="M 82 136 Q 78 136 71 131 Q 66 127 72 126 Q 105 121 114 119 Q 115 118 118 118 Q 142 111 149 117 Q 154 119 154 122 Q 152 125 149 124 Q 115 129 91 134" fill="#7f0000" /><path d="M 86 151 Q 83 151 83 153 Q 51 171 38 170 Q 32 169 37 167 Q 71 151 82 136 L 91 134 Q 93 134 94 135 Q 99 138 99 141 Q 98 142 92 147" fill="#940000" /><path d="M 139 197 L 138 221 Q 133 252 122 259 L 122 220 Q 127 194 121 180 L 113 167 Q 109 164 106 162 L 92 154 Q 88 152 86 151 L 92 147 Q 110 151 125 165 L 128 169 L 128 169 L 135 184" fill="#aa0000" /><path d="M 122 259 Q 118 261 114 256 Q 107 248 90 237 Q 87 233 87 232 Q 87 229 101 232 Q 114 233 117 231 Q 120 229 122 220" fill="#aa0000" /><path d="M 106 162 Q 106 162 105 163 Q 101 165 96 170 Q 56 201 39 201 Q 33 201 38 199 Q 84 172 92 154" fill="#bf0000" /><path d="M 121 180 Q 121 182 120 183 Q 120 184 108 194 Q 71 230 39 236 Q 35 237 34 235 Q 31 234 35 232 Q 91 201 113 167" fill="#d40000" /><path d="M 125 165 Q 134 157 143 151 Q 162 136 162 128 Q 162 125 165 125 Q 168 125 174 129 Q 179 134 182 139 Q 184 144 178 146 Q 169 148 151 158 Q 142 163 128 169" fill="#e90000" /><path d="M 128 169 Q 160 190 183 202 Q 191 205 238 218 Q 242 219 242 221 Q 242 222 237 223 Q 207 231 192 229 Q 181 227 135 184" fill="#ff0000" /></svg>