<svg xmlns="http://www.w3.org/2000/svg" xmlns:xlink="http://www.w3.org/1999/xlink" width="270" height="270"><path d="M 0 0 L 270 270 M 270 0 L 0 270 M 135 0 L 135 270 M 0 135 L 270 135" stroke="#CCCCCC" /><path d="M 117 70 L 117 74 Q 115 77 112 74 Q 110 72 105 58 L 103 49 Q 100 38 93 30 Q 89 25 93 23 Q 99 21 109 26 Q 114 27 114 32 Q 115 39 115 47 L 116 55" fill="#CCCCCC"/><path d="M 105 58 Q 86 62 67 67 Q 63 68 58 66 Q 51 62 48 59 Q 46 56 47 54 Q 48 53 50 53 Q 56 53 66 54 Q 87 51 103 49 L 115 47 Q 121 46 126 46 Q 130 47 130 48 Q 130 50 129 51 Q 124 54 120 54 Q 118 54 116 55" fill="#CCCCCC"/><path d="M 158 69 L 155 72 Q 151 74 151 70 Q 151 68 157 49 L 159 41 Q 163 23 160 16 Q 159 13 161 12 Q 166 10 170 12 Q 179 18 182 22 Q 184 25 180 28 Q 176 34 174 39 L 169 50" fill="#CCCCCC"/><path d="M 157 49 Q 153 47 151 45 Q 146 41 153 41 Q 156 41 159 41 L 174 39 Q 183 38 191 37 Q 211 32 222 42 Q 225 45 224 48 Q 223 49 219 49 Q 190 45 169 50" fill="#CCCCCC"/><path d="M 146 104 Q 144 104 142 105 Q 130 107 120 102 Q 115 98 123 97 Q 135 95 146 94 L 161 90 Q 176 84 184 86 Q 191 87 192 90 Q 193 92 192 94 Q 190 95 181 97 Q 170 99 160 101" fill="#CCCCCC"/><path d="M 128 167 Q 128 169 127 171 Q 126 175 122 170 Q 118 166 117 160 Q 111 137 103 125 Q 101 121 102 120 Q 103 119 106 119 Q 111 119 114 120 L 119 128 Q 122 138 127 160" fill="#CCCCCC"/><path d="M 146 122 Q 130 125 119 128 L 114 120 Q 125 118 137 115 Q 142 114 146 114 L 159 111 Q 167 109 176 108 Q 193 104 198 106 Q 208 113 212 117 L 189 118 Q 183 114 159 119" fill="#CCCCCC"/><path d="M 180 155 Q 183 153 190 123 Q 191 120 189 118 L 212 117 Q 215 121 212 124 Q 206 130 203 138 Q 195 163 192 168 Q 187 173 185 171 Q 180 169 176 161" fill="#CCCCCC"/><path d="M 146 144 Q 133 145 132 145 Q 127 141 131 140 Q 138 138 146 135 L 159 131 Q 165 129 170 130 Q 176 130 179 134 Q 181 137 176 138 Q 167 140 159 141" fill="#CCCCCC"/><path d="M 146 164 Q 137 166 132 167 Q 130 168 128 167 L 127 160 Q 136 158 146 156 L 159 154 Q 172 150 176 152 Q 179 154 180 155 L 176 161 Q 166 162 159 163" fill="#CCCCCC"/><path d="M 127 195 L 111 199 Q 107 200 102 199 Q 98 197 94 194 Q 91 189 96 189 Q 122 186 146 184 L 159 183 Q 189 179 207 175 Q 216 174 228 183 Q 232 187 231 189 Q 230 192 225 191 Q 166 191 159 192 L 146 193" fill="#CCCCCC"/><path d="M 146 184 Q 146 174 146 164 L 146 156 Q 146 150 146 144 L 146 135 Q 146 128 146 122 L 146 114 Q 146 108 146 104 L 146 94 Q 145 88 141 81 Q 140 78 142 76 Q 145 74 148 75 Q 152 76 159 81 Q 163 83 162 88 Q 162 89 161 90 L 160 101 Q 160 103 160 106 Q 160 108 159 111 L 159 119 Q 159 125 159 131 L 159 141 Q 159 148 159 154 L 159 163 Q 159 176 159 183 L 159 192 Q 157 220 152 223 Q 150 223 149 222 Q 146 217 146 193" fill="#CCCCCC"/><path d="M 58 85 L 58 82 Q 58 79 59 78 Q 63 78 78 85 Q 84 88 85 93 Q 86 100 84 104 Q 83 107 80 107 Q 76 106 73 103 Q 69 96 64 91" fill="#CCCCCC"/><path d="M 53 135 Q 33 143 24 140 Q 22 139 22 137 Q 23 136 24 136 Q 30 136 50 125 Q 59 117 65 120 Q 74 124 79 128" fill="#CCCCCC"/><path d="M 49 162 Q 52 155 56 150 Q 62 142 57 136 Q 55 134 53 135 L 79 128 Q 84 133 79 137 Q 70 145 61 162" fill="#CCCCCC"/><path d="M 63 194 L 59 186 Q 48 167 49 162 L 61 162 Q 60 168 64 173 Q 83 194 67 204 L 63 204" fill="#CCCCCC"/><path d="M 72 204 Q 77 202 103 213 Q 161 235 245 233 Q 249 233 249 234 Q 250 235 248 236 Q 218 253 197 257 Q 184 259 150 243 Q 143 239 135 236 Q 82 212 67 213 Q 52 213 44 221 Q 36 226 31 224 Q 21 218 20 215 Q 19 212 23 212 Q 31 211 44 207 Q 55 204 67 204" fill="#CCCCCC"/><path d="M 117 70 L 117 74 Q 115 77 112 74 Q 110 72 105 58 L 103 49 Q 100 38 93 30 Q 89 25 93 23 Q 99 21 109 26 Q 114 27 114 32 Q 115 39 115 47 L 116 55" fill="#000000" /><path d="M 105 58 Q 86 62 67 67 Q 63 68 58 66 Q 51 62 48 59 Q 46 56 47 54 Q 48 53 50 53 Q 56 53 66 54 Q 87 51 103 49 L 115 47 Q 121 46 126 46 Q 130 47 130 48 Q 130 50 129 51 Q 124 54 120 54 Q 118 54 116 55" fill="#120000" /><path d="M 158 69 L 155 72 Q 151 74 151 70 Q 151 68 157 49 L 159 41 Q 163 23 160 16 Q 159 13 161 12 Q 166 10 170 12 Q 179 18 182 22 Q 184 25 180 28 Q 176 34 174 39 L 169 50" fill="#240000" /><path d="M 157 49 Q 153 47 151 45 Q 146 41 153 41 Q 156 41 159 41 L 174 39 Q 183 38 191 37 Q 211 32 222 42 Q 225 45 224 48 Q 223 49 219 49 Q 190 45 169 50" fill="#360000" /><path d="M 146 104 Q 144 104 142 105 Q 130 107 120 102 Q 115 98 123 97 Q 135 95 146 94 L 161 90 Q 176 84 184 86 Q 191 87 192 90 Q 193 92 192 94 Q 190 95 181 97 Q 170 99 160 101" fill="#480000" /><path d="M 128 167 Q 128 169 127 171 Q 126 175 122 170 Q 118 166 117 160 Q 111 137 103 125 Q 101 121 102 120 Q 103 119 106 119 Q 111 119 114 120 L 119 128 Q 122 138 127 160" fill="#5b0000" /><path d="M 146 122 Q 130 125 119 128 L 114 120 Q 125 118 137 115 Q 142 114 146 114 L 159 111 Q 167 109 176 108 Q 193 104 198 106 Q 208 113 212 117 L 189 118 Q 183 114 159 119" fill="#6d0000" /><path d="M 180 155 Q 183 153 190 123 Q 191 120 189 118 L 212 117 Q 215 121 212 124 Q 206 130 203 138 Q 195 163 192 168 Q 187 173 185 171 Q 180 169 176 161" fill="#6d0000" /><path d="M 146 144 Q 133 145 132 145 Q 127 141 131 140 Q 138 138 146 135 L 159 131 Q 165 129 170 130 Q 176 130 179 134 Q 181 137 176 138 Q 167 140 159 141" fill="#7f0000" /><path d="M 146 164 Q 137 166 132 167 Q 130 168 128 167 L 127 160 Q 136 158 146 156 L 159 154 Q 172 150 176 152 Q 179 154 180 155 L 176 161 Q 166 162 159 163" fill="#910000" /><path d="M 127 195 L 111 199 Q 107 200 102 199 Q 98 197 94 194 Q 91 189 96 189 Q 122 186 146 184 L 159 183 Q 189 179 207 175 Q 216 174 228 183 Q 232 187 231 189 Q 230 192 225 191 Q 166 191 159 192 L 146 193" fill="#a30000" /><path d="M 146 184 Q 146 174 146 164 L 146 156 Q 146 150 146 144 L 146 135 Q 146 128 146 122 L 146 114 Q 146 108 146 104 L 146 94 Q 145 88 141 81 Q 140 78 142 76 Q 145 74 148 75 Q 152 76 159 81 Q 163 83 162 88 Q 162 89 161 90 L 160 101 Q 160 103 160 106 Q 160 108 159 111 L 159 119 Q 159 125 159 131 L 159 141 Q 159 148 159 154 L 159 163 Q 159 176 159 183 L 159 192 Q 157 220 152 223 Q 150 223 149 222 Q 146 217 146 193" fill="#b60000" /><path d="M 58 85 L 58 82 Q 58 79 59 78 Q 63 78 78 85 Q 84 88 85 93 Q 86 100 84 104 Q 83 107 80 107 Q 76 106 73 103 Q 69 96 64 91" fill="#c80000" /><path d="M 53 135 Q 33 143 24 140 Q 22 139 22 137 Q 23 136 24 136 Q 30 136 50 125 Q 59 117 65 120 Q 74 124 79 128" fill="#da0000" /><path d="M 49 162 Q 52 155 56 150 Q 62 142 57 136 Q 55 134 53 135 L 79 128 Q 84 133 79 137 Q 70 145 61 162" fill="#da0000" /><path d="M 63 194 L 59 186 Q 48 167 49 162 L 61 162 Q 60 168 64 173 Q 83 194 67 204 L 63 204" fill="#ec0000" /><path d="M 72 204 Q 77 202 103 213 Q 161 235 245 233 Q 249 233 249 234 Q 250 235 248 236 Q 218 253 197 257 Q 184 259 150 243 Q 143 239 135 236 Q 82 212 67 213 Q 52 213 44 221 Q 36 226 31 224 Q 21 218 20 215 Q 19 212 23 212 Q 31 211 44 207 Q 55 204 67 204" fill="#ff0000" /></svg>