<svg xmlns="http://www.w3.org/2000/svg" xmlns:xlink="http://www.w3.org/1999/xlink" width="270" height="270"><path d="M 0 0 L 270 270 M 270 0 L 0 270 M 135 0 L 135 270 M 0 135 L 270 135" stroke="#CCCCCC" /><path d="M 144 65 Q 117 66 104 69 L 93 70 Q 76 72 60 76 Q 56 77 51 76 Q 46 74 43 71 Q 39 66 44 66 Q 69 63 91 61 L 102 60 Q 113 59 124 58 Q 136 56 147 55 L 162 53 Q 173 50 182 49 Q 197 46 212 56 Q 216 60 214 63 Q 212 65 195 65 Q 173 64 157 65" fill="#CCCCCC"/><path d="M 104 69 Q 105 85 105 87 Q 104 89 101 87 Q 97 83 93 70 L 91 61 Q 88 51 80 43 Q 76 39 80 36 Q 85 34 96 38 Q 101 39 100 44 Q 101 51 102 60" fill="#CCCCCC"/><path d="M 149 83 L 144 88 Q 140 90 139 87 Q 139 83 144 65 L 147 55 Q 152 32 149 25 Q 147 22 150 21 Q 154 18 158 21 Q 168 26 171 30 Q 174 33 170 37 Q 165 45 163 51 Q 162 52 162 53 L 157 65" fill="#CCCCCC"/><path d="M 38 119 L 38 117 Q 38 114 39 113 Q 40 113 43 114 Q 61 119 63 125 Q 64 132 63 135 Q 62 138 60 138 Q 56 138 53 135 Q 49 129 44 124" fill="#CCCCCC"/><path d="M 113 99 L 112 96 Q 111 93 113 93 Q 116 92 121 94 Q 127 97 130 100 Q 132 104 128 107 Q 121 110 111 119 Q 106 123 97 129 Q 93 130 95 127 Q 107 109 110 104" fill="#CCCCCC"/><path d="M 47 159 Q 47 159 47 160 Q 46 169 45 210 Q 44 235 37 241 Q 34 243 32 239 Q 23 228 30 213 Q 39 172 28 152 Q 27 149 30 148 Q 35 147 42 151 Q 43 151 44 152" fill="#CCCCCC"/><path d="M 67 155 L 55 158 Q 50 159 47 159 L 44 152 Q 54 151 76 146 L 86 144 Q 87 144 88 144 Q 99 141 105 138 Q 109 135 114 138 Q 124 141 128 145 L 108 151 Q 103 148 86 152 L 76 153" fill="#CCCCCC"/><path d="M 128 145 Q 131 148 129 152 Q 125 160 126 169 Q 127 192 129 218 Q 130 229 124 239 Q 120 249 116 250 Q 112 251 109 247 L 109 229 Q 113 228 113 223 Q 115 194 112 157 Q 111 151 108 151" fill="#CCCCCC"/><path d="M 109 247 Q 102 239 93 231 Q 90 228 90 227 Q 90 225 92 226 Q 107 230 109 229" fill="#CCCCCC"/><path d="M 76 146 Q 76 133 75 123 Q 74 110 71 105 Q 70 102 68 98 Q 64 94 67 92 Q 73 90 78 92 Q 85 96 89 99 Q 92 102 90 107 Q 88 118 87 144 Q 86 144 86 144 L 86 152 Q 86 182 84 217 Q 82 238 78 241 Q 76 242 75 240 Q 73 235 72 227 Q 76 194 76 153" fill="#CCCCCC"/><path d="M 56 172 L 57 172 Q 59 171 62 171 Q 66 171 68 172 Q 71 173 72 175 Q 72 176 71 177 Q 71 178 71 179 Q 61 205 51 211 Q 49 211 50 210 Q 62 182 57 174" fill="#CCCCCC"/><path d="M 91 171 L 92 170 Q 93 168 95 169 Q 107 177 107 186 Q 108 190 106 193 Q 104 195 101 194 Q 97 192 92 174" fill="#CCCCCC"/><path d="M 156 142 Q 141 165 134 168 Q 130 169 131 166 Q 131 165 133 162 Q 143 145 150 129 Q 164 95 159 87 Q 156 82 160 81 Q 165 80 172 84 Q 180 89 181 91 Q 183 95 181 97 Q 177 102 174 110 Q 167 124 160 135" fill="#CCCCCC"/><path d="M 178 144 Q 165 146 156 142 L 160 135 Q 175 132 188 128 Q 207 121 214 122 Q 222 123 224 127 Q 225 129 223 131 Q 223 131 189 141" fill="#CCCCCC"/><path d="M 173 212 L 172 214 Q 149 230 135 229 Q 128 229 133 226 Q 158 213 168 199 L 173 189 Q 182 167 178 144 L 189 141 Q 196 144 197 146 Q 199 148 197 150 Q 196 152 195 157 Q 191 183 183 199 L 175 210" fill="#CCCCCC"/><path d="M 168 199 Q 153 176 147 172 Q 145 171 144 170 Q 142 168 143 167 Q 145 166 148 166 Q 155 167 159 172 Q 166 181 173 189 L 183 199 Q 203 217 214 220 Q 241 232 244 234 Q 246 236 245 238 Q 242 239 239 239 Q 229 240 216 242 Q 206 244 200 238 Q 184 222 175 210" fill="#CCCCCC"/><path d="M 144 65 Q 117 66 104 69 L 93 70 Q 76 72 60 76 Q 56 77 51 76 Q 46 74 43 71 Q 39 66 44 66 Q 69 63 91 61 L 102 60 Q 113 59 124 58 Q 136 56 147 55 L 162 53 Q 173 50 182 49 Q 197 46 212 56 Q 216 60 214 63 Q 212 65 195 65 Q 173 64 157 65" fill="#000000" /><path d="M 104 69 Q 105 85 105 87 Q 104 89 101 87 Q 97 83 93 70 L 91 61 Q 88 51 80 43 Q 76 39 80 36 Q 85 34 96 38 Q 101 39 100 44 Q 101 51 102 60" fill="#130000" /><path d="M 149 83 L 144 88 Q 140 90 139 87 Q 139 83 144 65 L 147 55 Q 152 32 149 25 Q 147 22 150 21 Q 154 18 158 21 Q 168 26 171 30 Q 174 33 170 37 Q 165 45 163 51 Q 162 52 162 53 L 157 65" fill="#270000" /><path d="M 38 119 L 38 117 Q 38 114 39 113 Q 40 113 43 114 Q 61 119 63 125 Q 64 132 63 135 Q 62 138 60 138 Q 56 138 53 135 Q 49 129 44 124" fill="#3a0000" /><path d="M 113 99 L 112 96 Q 111 93 113 93 Q 116 92 121 94 Q 127 97 130 100 Q 132 104 128 107 Q 121 110 111 119 Q 106 123 97 129 Q 93 130 95 127 Q 107 109 110 104" fill="#4e0000" /><path d="M 47 159 Q 47 159 47 160 Q 46 169 45 210 Q 44 235 37 241 Q 34 243 32 239 Q 23 228 30 213 Q 39 172 28 152 Q 27 149 30 148 Q 35 147 42 151 Q 43 151 44 152" fill="#620000" /><path d="M 67 155 L 55 158 Q 50 159 47 159 L 44 152 Q 54 151 76 146 L 86 144 Q 87 144 88 144 Q 99 141 105 138 Q 109 135 114 138 Q 124 141 128 145 L 108 151 Q 103 148 86 152 L 76 153" fill="#750000" /><path d="M 128 145 Q 131 148 129 152 Q 125 160 126 169 Q 127 192 129 218 Q 130 229 124 239 Q 120 249 116 250 Q 112 251 109 247 L 109 229 Q 113 228 113 223 Q 115 194 112 157 Q 111 151 108 151" fill="#750000" /><path d="M 109 247 Q 102 239 93 231 Q 90 228 90 227 Q 90 225 92 226 Q 107 230 109 229" fill="#750000" /><path d="M 76 146 Q 76 133 75 123 Q 74 110 71 105 Q 70 102 68 98 Q 64 94 67 92 Q 73 90 78 92 Q 85 96 89 99 Q 92 102 90 107 Q 88 118 87 144 Q 86 144 86 144 L 86 152 Q 86 182 84 217 Q 82 238 78 241 Q 76 242 75 240 Q 73 235 72 227 Q 76 194 76 153" fill="#890000" /><path d="M 56 172 L 57 172 Q 59 171 62 171 Q 66 171 68 172 Q 71 173 72 175 Q 72 176 71 177 Q 71 178 71 179 Q 61 205 51 211 Q 49 211 50 210 Q 62 182 57 174" fill="#9c0000" /><path d="M 91 171 L 92 170 Q 93 168 95 169 Q 107 177 107 186 Q 108 190 106 193 Q 104 195 101 194 Q 97 192 92 174" fill="#b00000" /><path d="M 156 142 Q 141 165 134 168 Q 130 169 131 166 Q 131 165 133 162 Q 143 145 150 129 Q 164 95 159 87 Q 156 82 160 81 Q 165 80 172 84 Q 180 89 181 91 Q 183 95 181 97 Q 177 102 174 110 Q 167 124 160 135" fill="#c40000" /><path d="M 178 144 Q 165 146 156 142 L 160 135 Q 175 132 188 128 Q 207 121 214 122 Q 222 123 224 127 Q 225 129 223 131 Q 223 131 189 141" fill="#d70000" /><path d="M 173 212 L 172 214 Q 149 230 135 229 Q 128 229 133 226 Q 158 213 168 199 L 173 189 Q 182 167 178 144 L 189 141 Q 196 144 197 146 Q 199 148 197 150 Q 196 152 195 157 Q 191 183 183 199 L 175 210" fill="#eb0000" /><path d="M 168 199 Q 153 176 147 172 Q 145 171 144 170 Q 142 168 143 167 Q 145 166 148 166 Q 155 167 159 172 Q 166 181 173 189 L 183 199 Q 203 217 214 220 Q 241 232 244 234 Q 246 236 245 238 Q 242 239 239 239 Q 229 240 216 242 Q 206 244 200 238 Q 184 222 175 210" fill="#ff0000" /></svg>