<svg xmlns="http://www.w3.org/2000/svg" xmlns:xlink="http://www.w3.org/1999/xlink" width="270" height="270"><path d="M 0 0 L 270 270 M 270 0 L 0 270 M 135 0 L 135 270 M 0 135 L 270 135" stroke="#CCCCCC" /><path d="M 155 51 Q 118 53 114 55 L 102 57 Q 95 58 88 60 Q 68 64 58 58 Q 53 54 60 53 Q 81 51 100 49 L 113 47 Q 136 44 157 41 L 172 39 Q 173 39 174 39 Q 199 32 212 42 Q 215 46 214 49 Q 213 51 209 50 Q 180 48 167 51" fill="#CCCCCC"/><path d="M 114 55 Q 115 71 114 75 Q 113 78 110 75 Q 106 70 102 57 L 100 49 Q 97 42 92 36 Q 88 32 92 29 Q 97 27 108 32 Q 113 34 113 39 Q 113 42 113 47" fill="#CCCCCC"/><path d="M 159 65 L 153 71 L 151 71 Q 151 70 151 69 Q 151 66 155 51 L 157 41 Q 160 27 158 22 Q 156 19 158 18 Q 162 16 166 18 Q 174 22 177 26 Q 179 29 176 32 Q 174 36 172 39 L 167 51" fill="#CCCCCC"/><path d="M 170 87 Q 182 83 190 84 Q 197 87 198 89 Q 199 92 197 93 Q 194 95 179 99 Q 174 99 170 100 L 157 103 Q 134 107 112 111 Q 104 113 98 111 Q 97 111 96 111 L 96 102 Q 123 99 154 92" fill="#CCCCCC"/><path d="M 96 111 Q 95 114 95 116 Q 92 169 79 201 Q 77 207 74 212 Q 57 240 51 241 Q 48 242 49 239 Q 49 238 50 236 Q 73 194 78 164 L 79 158 Q 80 147 81 136 L 81 128 Q 81 126 81 124 Q 81 122 81 120 Q 81 106 77 99 Q 75 96 78 94 Q 81 93 85 95 Q 92 98 96 102" fill="#CCCCCC"/><path d="M 53 148 Q 51 150 48 148 Q 45 146 42 143 Q 41 140 44 136 Q 49 132 50 122 Q 51 112 47 102 Q 45 98 48 97 Q 53 96 60 104 Q 62 107 59 129" fill="#CCCCCC"/><path d="M 81 136 Q 79 136 78 136 Q 58 141 53 148 L 59 129 Q 58 133 61 132 Q 69 129 81 128" fill="#CCCCCC"/><path d="M 78 164 Q 54 174 53 175 L 45 178 Q 42 180 39 182 Q 37 184 35 183 Q 29 179 24 176 Q 23 174 23 172 Q 24 170 26 169 Q 32 170 35 169 Q 58 163 79 158" fill="#CCCCCC"/><path d="M 53 175 Q 57 178 58 180 Q 59 183 57 185 Q 56 186 56 187 Q 55 190 54 192 Q 47 214 34 222 Q 29 226 27 226 Q 25 226 26 224 Q 27 223 28 223 Q 40 205 45 178" fill="#CCCCCC"/><path d="M 129 132 Q 127 132 126 132 Q 120 134 115 133 Q 115 133 115 133 L 110 127 Q 118 126 125 124 Q 142 118 147 119 Q 153 121 154 122 Q 155 124 153 126 Q 153 126 148 127 Q 141 129 136 130" fill="#CCCCCC"/><path d="M 129 151 L 129 132 L 136 130 Q 141 135 139 139 Q 139 139 139 140 Q 138 143 137 148" fill="#CCCCCC"/><path d="M 143 157 Q 141 156 139 157 Q 115 161 112 161 L 112 155 Q 119 154 126 152 Q 127 152 129 151 L 137 148 Q 143 145 147 147 Q 157 151 160 154" fill="#CCCCCC"/><path d="M 140 172 Q 142 167 143 161 Q 144 158 143 157 L 160 154 Q 163 157 160 161 Q 155 164 150 174" fill="#CCCCCC"/><path d="M 111 180 Q 111 180 112 180 Q 124 177 138 173 Q 139 172 140 172 L 150 174 Q 154 177 154 178 Q 154 180 152 181 Q 144 181 137 182 L 128 184 Q 122 185 119 186 Q 116 186 114 186 Q 112 185 110 184" fill="#CCCCCC"/><path d="M 127 203 Q 128 187 128 185 Q 128 184 128 184 L 137 182 Q 138 183 138 183 Q 140 185 136 201" fill="#CCCCCC"/><path d="M 103 222 Q 100 224 98 223 Q 96 221 95 217 Q 93 213 95 210 Q 98 205 99 201 Q 107 142 100 127 Q 99 124 100 123 Q 102 122 106 124 Q 109 126 110 127 L 115 133 Q 112 136 112 155 L 112 161 Q 111 171 111 180 L 110 184 Q 110 194 109 204" fill="#CCCCCC"/><path d="M 148 198 L 151 200 Q 157 204 157 207 Q 157 209 153 209 Q 114 213 103 222 L 109 204 Q 109 206 110 206 Q 111 207 112 206 Q 120 204 127 203 L 136 201" fill="#CCCCCC"/><path d="M 153 71 Q 155 71 159 73 Q 172 77 170 87 L 170 100 Q 170 101 170 102 Q 170 130 188 177 L 195 191 Q 198 201 217 219 Q 219 220 221 222 L 244 245 Q 246 252 241 253 Q 234 253 218 241 Q 198 225 187 203 L 181 191 Q 167 158 157 103 L 154 92 Q 151 85 142 78 Q 139 73 144 71 Q 147 70 151 71" fill="#CCCCCC"/><path d="M 221 222 Q 227 224 231 215 Q 241 192 242 192 Q 244 193 244 199 Q 243 233 244 245" fill="#CCCCCC"/><path d="M 188 177 Q 202 146 197 124 Q 196 120 199 119 Q 202 118 207 120 Q 215 124 217 126 Q 219 128 217 131 Q 214 138 212 146 Q 204 177 195 191 L 187 203 Q 183 208 179 212 Q 166 225 151 234 Q 148 236 146 235 Q 145 235 146 233 Q 169 209 181 191" fill="#CCCCCC"/><path d="M 189 66 L 188 64 Q 187 61 188 60 Q 189 60 193 60 Q 213 64 216 71 Q 219 77 218 80 Q 217 83 215 83 Q 212 84 208 81 Q 201 75 195 71" fill="#CCCCCC"/><path d="M 155 51 Q 118 53 114 55 L 102 57 Q 95 58 88 60 Q 68 64 58 58 Q 53 54 60 53 Q 81 51 100 49 L 113 47 Q 136 44 157 41 L 172 39 Q 173 39 174 39 Q 199 32 212 42 Q 215 46 214 49 Q 213 51 209 50 Q 180 48 167 51" fill="#000000" /><path d="M 114 55 Q 115 71 114 75 Q 113 78 110 75 Q 106 70 102 57 L 100 49 Q 97 42 92 36 Q 88 32 92 29 Q 97 27 108 32 Q 113 34 113 39 Q 113 42 113 47" fill="#0f0000" /><path d="M 159 65 L 153 71 L 151 71 Q 151 70 151 69 Q 151 66 155 51 L 157 41 Q 160 27 158 22 Q 156 19 158 18 Q 162 16 166 18 Q 174 22 177 26 Q 179 29 176 32 Q 174 36 172 39 L 167 51" fill="#1f0000" /><path d="M 170 87 Q 182 83 190 84 Q 197 87 198 89 Q 199 92 197 93 Q 194 95 179 99 Q 174 99 170 100 L 157 103 Q 134 107 112 111 Q 104 113 98 111 Q 97 111 96 111 L 96 102 Q 123 99 154 92" fill="#2f0000" /><path d="M 96 111 Q 95 114 95 116 Q 92 169 79 201 Q 77 207 74 212 Q 57 240 51 241 Q 48 242 49 239 Q 49 238 50 236 Q 73 194 78 164 L 79 158 Q 80 147 81 136 L 81 128 Q 81 126 81 124 Q 81 122 81 120 Q 81 106 77 99 Q 75 96 78 94 Q 81 93 85 95 Q 92 98 96 102" fill="#3f0000" /><path d="M 53 148 Q 51 150 48 148 Q 45 146 42 143 Q 41 140 44 136 Q 49 132 50 122 Q 51 112 47 102 Q 45 98 48 97 Q 53 96 60 104 Q 62 107 59 129" fill="#4f0000" /><path d="M 81 136 Q 79 136 78 136 Q 58 141 53 148 L 59 129 Q 58 133 61 132 Q 69 129 81 128" fill="#4f0000" /><path d="M 78 164 Q 54 174 53 175 L 45 178 Q 42 180 39 182 Q 37 184 35 183 Q 29 179 24 176 Q 23 174 23 172 Q 24 170 26 169 Q 32 170 35 169 Q 58 163 79 158" fill="#5f0000" /><path d="M 53 175 Q 57 178 58 180 Q 59 183 57 185 Q 56 186 56 187 Q 55 190 54 192 Q 47 214 34 222 Q 29 226 27 226 Q 25 226 26 224 Q 27 223 28 223 Q 40 205 45 178" fill="#6f0000" /><path d="M 129 132 Q 127 132 126 132 Q 120 134 115 133 Q 115 133 115 133 L 110 127 Q 118 126 125 124 Q 142 118 147 119 Q 153 121 154 122 Q 155 124 153 126 Q 153 126 148 127 Q 141 129 136 130" fill="#7f0000" /><path d="M 129 151 L 129 132 L 136 130 Q 141 135 139 139 Q 139 139 139 140 Q 138 143 137 148" fill="#8f0000" /><path d="M 143 157 Q 141 156 139 157 Q 115 161 112 161 L 112 155 Q 119 154 126 152 Q 127 152 129 151 L 137 148 Q 143 145 147 147 Q 157 151 160 154" fill="#9f0000" /><path d="M 140 172 Q 142 167 143 161 Q 144 158 143 157 L 160 154 Q 163 157 160 161 Q 155 164 150 174" fill="#9f0000" /><path d="M 111 180 Q 111 180 112 180 Q 124 177 138 173 Q 139 172 140 172 L 150 174 Q 154 177 154 178 Q 154 180 152 181 Q 144 181 137 182 L 128 184 Q 122 185 119 186 Q 116 186 114 186 Q 112 185 110 184" fill="#af0000" /><path d="M 127 203 Q 128 187 128 185 Q 128 184 128 184 L 137 182 Q 138 183 138 183 Q 140 185 136 201" fill="#bf0000" /><path d="M 103 222 Q 100 224 98 223 Q 96 221 95 217 Q 93 213 95 210 Q 98 205 99 201 Q 107 142 100 127 Q 99 124 100 123 Q 102 122 106 124 Q 109 126 110 127 L 115 133 Q 112 136 112 155 L 112 161 Q 111 171 111 180 L 110 184 Q 110 194 109 204" fill="#cf0000" /><path d="M 148 198 L 151 200 Q 157 204 157 207 Q 157 209 153 209 Q 114 213 103 222 L 109 204 Q 109 206 110 206 Q 111 207 112 206 Q 120 204 127 203 L 136 201" fill="#cf0000" /><path d="M 153 71 Q 155 71 159 73 Q 172 77 170 87 L 170 100 Q 170 101 170 102 Q 170 130 188 177 L 195 191 Q 198 201 217 219 Q 219 220 221 222 L 244 245 Q 246 252 241 253 Q 234 253 218 241 Q 198 225 187 203 L 181 191 Q 167 158 157 103 L 154 92 Q 151 85 142 78 Q 139 73 144 71 Q 147 70 151 71" fill="#df0000" /><path d="M 221 222 Q 227 224 231 215 Q 241 192 242 192 Q 244 193 244 199 Q 243 233 244 245" fill="#df0000" /><path d="M 188 177 Q 202 146 197 124 Q 196 120 199 119 Q 202 118 207 120 Q 215 124 217 126 Q 219 128 217 131 Q 214 138 212 146 Q 204 177 195 191 L 187 203 Q 183 208 179 212 Q 166 225 151 234 Q 148 236 146 235 Q 145 235 146 233 Q 169 209 181 191" fill="#ef0000" /><path d="M 189 66 L 188 64 Q 187 61 188 60 Q 189 60 193 60 Q 213 64 216 71 Q 219 77 218 80 Q 217 83 215 83 Q 212 84 208 81 Q 201 75 195 71" fill="#ff0000" /></svg>