<svg xmlns="http://www.w3.org/2000/svg" xmlns:xlink="http://www.w3.org/1999/xlink" width="270" height="270"><path d="M 0 0 L 270 270 M 270 0 L 0 270 M 135 0 L 135 270 M 0 135 L 270 135" stroke="#CCCCCC" /><path d="M 115 65 L 114 67 Q 113 70 110 67 Q 106 64 103 51 L 101 42 Q 98 34 92 27 Q 88 22 92 20 Q 97 18 107 23 Q 112 24 111 28 Q 112 34 112 41 L 113 48" fill="#CCCCCC"/><path d="M 103 51 Q 83 56 65 61 Q 61 62 56 60 Q 49 57 46 53 Q 44 50 45 48 Q 45 47 48 48 Q 54 47 64 48 Q 85 44 101 42 L 112 41 Q 118 39 123 39 Q 126 40 127 41 Q 127 43 125 44 Q 121 47 117 47 Q 115 47 113 48" fill="#CCCCCC"/><path d="M 154 61 L 151 63 Q 147 65 147 62 Q 147 61 152 44 L 154 37 Q 158 20 156 14 Q 154 11 157 10 Q 161 8 164 11 Q 172 15 175 19 Q 177 22 173 25 Q 170 31 168 35 L 162 46" fill="#CCCCCC"/><path d="M 152 44 Q 150 43 148 42 Q 143 38 150 38 Q 151 37 154 37 L 168 35 Q 178 33 188 32 Q 207 27 218 36 Q 221 39 220 42 Q 219 44 215 44 Q 193 41 170 46 Q 165 46 162 46" fill="#CCCCCC"/><path d="M 67 155 L 67 183 Q 67 236 58 245 Q 56 248 53 245 Q 50 241 48 233 Q 47 228 49 222 Q 60 187 59 118 Q 59 100 52 84 Q 50 81 51 80 Q 53 78 55 78 Q 62 80 67 85 Q 68 85 68 86 L 71 92 Q 69 96 69 106 L 69 113 Q 68 120 68 130 L 68 135" fill="#CCCCCC"/><path d="M 101 84 Q 96 82 71 91 Q 71 91 71 92 L 68 86 Q 85 81 100 74 Q 104 73 108 74 Q 115 78 119 82" fill="#CCCCCC"/><path d="M 99 123 Q 100 122 102 91 Q 103 85 101 84 L 119 82 Q 122 85 119 89 Q 114 97 112 115 Q 111 129 108 133 Q 103 139 98 132 Q 97 131 97 130" fill="#CCCCCC"/><path d="M 69 106 Q 77 101 85 102 Q 90 102 93 105 Q 95 107 90 108 Q 81 110 69 113" fill="#CCCCCC"/><path d="M 68 130 Q 88 121 96 122 Q 98 122 99 123 L 97 130 Q 70 134 68 135" fill="#CCCCCC"/><path d="M 166 128 L 163 127 L 163 127 Q 156 120 156 107 Q 157 85 152 73 Q 150 71 152 70 Q 153 69 154 69 Q 158 71 162 73 L 168 80 Q 167 88 167 95 L 167 101 Q 167 107 168 116 L 167 123" fill="#CCCCCC"/><path d="M 162 73 Q 184 71 199 63 Q 203 61 207 63 Q 216 67 222 71 L 203 76 Q 200 74 196 74 Q 183 77 170 80 Q 169 80 168 80" fill="#CCCCCC"/><path d="M 222 71 Q 225 74 222 79 Q 219 85 219 100 Q 220 182 224 232 Q 225 244 215 258 Q 213 261 211 260 Q 207 259 204 254 L 204 236 Q 211 227 207 118 L 206 113 Q 206 102 206 90 Q 206 79 203 76" fill="#CCCCCC"/><path d="M 204 254 Q 194 246 177 235 Q 177 232 181 233 Q 190 235 198 236 Q 203 237 204 236" fill="#CCCCCC"/><path d="M 167 95 Q 178 88 187 89 Q 193 89 196 93 Q 198 95 193 96 Q 182 98 168 101 Q 167 101 167 101" fill="#CCCCCC"/><path d="M 168 116 Q 179 113 193 110 Q 199 108 203 110 Q 205 112 206 113 L 207 118 Q 181 120 170 123 Q 168 123 167 123" fill="#CCCCCC"/><path d="M 131 142 Q 127 142 124 143 Q 114 146 110 142 Q 106 139 111 138 Q 125 136 130 135 L 142 132 Q 147 128 156 131 Q 160 133 160 135 Q 158 137 157 137 Q 144 139 140 140" fill="#CCCCCC"/><path d="M 107 195 Q 106 196 106 198 Q 105 201 102 197 Q 98 193 97 188 Q 93 171 88 161 Q 86 157 87 156 Q 87 155 90 156 Q 93 156 96 157 L 101 164 Q 104 182 106 189" fill="#CCCCCC"/><path d="M 131 158 Q 103 162 101 164 L 96 157 Q 106 156 119 153 Q 125 152 131 152 L 139 150 Q 151 148 155 148 Q 174 145 177 146 Q 187 153 190 156 L 170 155 Q 166 152 138 157" fill="#CCCCCC"/><path d="M 162 182 Q 163 181 163 180 Q 165 177 170 160 Q 171 156 170 155 L 190 156 Q 193 160 189 163 Q 181 168 177 179 Q 170 190 166 191 Q 164 191 163 188" fill="#CCCCCC"/><path d="M 108 170 L 108 169 Q 108 167 110 167 Q 120 169 123 175 Q 124 177 124 179 Q 123 182 121 182 Q 118 181 109 171" fill="#CCCCCC"/><path d="M 152 163 L 152 161 Q 151 159 153 159 Q 156 159 159 161 Q 161 164 162 166 Q 162 167 160 168 L 143 177 Q 142 176 143 175 Q 148 169 151 165" fill="#CCCCCC"/><path d="M 117 194 L 113 195 Q 109 195 107 195 L 106 189 Q 118 187 130 185 L 138 183 Q 157 179 162 182 L 163 188 Q 151 189 138 191 L 122 193" fill="#CCCCCC"/><path d="M 130 185 Q 131 173 131 161 Q 131 160 131 158 L 131 152 Q 131 146 131 142 L 130 135 Q 130 128 125 122 Q 124 119 125 118 Q 129 115 133 119 Q 142 124 143 126 Q 144 128 142 131 Q 142 131 142 132 L 140 140 Q 139 145 139 150 L 138 157 Q 138 171 138 183 L 138 191 Q 138 233 138 239 Q 138 249 133 252 Q 132 254 131 253 Q 130 252 129 249 Q 124 240 126 232 Q 130 219 130 201" fill="#CCCCCC"/><path d="M 130 185 L 130 201 Q 130 201 130 202 Q 126 207 120 213 Q 97 237 82 235 Q 79 234 82 232 Q 118 209 122 193" fill="#CCCCCC"/><path d="M 150 203 L 150 201 Q 150 198 152 199 Q 167 202 175 207 Q 179 209 180 213 Q 183 221 181 223 Q 180 225 178 225 Q 175 225 172 221 Q 161 211 152 204" fill="#CCCCCC"/><path d="M 115 65 L 114 67 Q 113 70 110 67 Q 106 64 103 51 L 101 42 Q 98 34 92 27 Q 88 22 92 20 Q 97 18 107 23 Q 112 24 111 28 Q 112 34 112 41 L 113 48" fill="#000000" /><path d="M 103 51 Q 83 56 65 61 Q 61 62 56 60 Q 49 57 46 53 Q 44 50 45 48 Q 45 47 48 48 Q 54 47 64 48 Q 85 44 101 42 L 112 41 Q 118 39 123 39 Q 126 40 127 41 Q 127 43 125 44 Q 121 47 117 47 Q 115 47 113 48" fill="#0c0000" /><path d="M 154 61 L 151 63 Q 147 65 147 62 Q 147 61 152 44 L 154 37 Q 158 20 156 14 Q 154 11 157 10 Q 161 8 164 11 Q 172 15 175 19 Q 177 22 173 25 Q 170 31 168 35 L 162 46" fill="#190000" /><path d="M 152 44 Q 150 43 148 42 Q 143 38 150 38 Q 151 37 154 37 L 168 35 Q 178 33 188 32 Q 207 27 218 36 Q 221 39 220 42 Q 219 44 215 44 Q 193 41 170 46 Q 165 46 162 46" fill="#260000" /><path d="M 67 155 L 67 183 Q 67 236 58 245 Q 56 248 53 245 Q 50 241 48 233 Q 47 228 49 222 Q 60 187 59 118 Q 59 100 52 84 Q 50 81 51 80 Q 53 78 55 78 Q 62 80 67 85 Q 68 85 68 86 L 71 92 Q 69 96 69 106 L 69 113 Q 68 120 68 130 L 68 135" fill="#330000" /><path d="M 101 84 Q 96 82 71 91 Q 71 91 71 92 L 68 86 Q 85 81 100 74 Q 104 73 108 74 Q 115 78 119 82" fill="#3f0000" /><path d="M 99 123 Q 100 122 102 91 Q 103 85 101 84 L 119 82 Q 122 85 119 89 Q 114 97 112 115 Q 111 129 108 133 Q 103 139 98 132 Q 97 131 97 130" fill="#3f0000" /><path d="M 69 106 Q 77 101 85 102 Q 90 102 93 105 Q 95 107 90 108 Q 81 110 69 113" fill="#4c0000" /><path d="M 68 130 Q 88 121 96 122 Q 98 122 99 123 L 97 130 Q 70 134 68 135" fill="#590000" /><path d="M 166 128 L 163 127 L 163 127 Q 156 120 156 107 Q 157 85 152 73 Q 150 71 152 70 Q 153 69 154 69 Q 158 71 162 73 L 168 80 Q 167 88 167 95 L 167 101 Q 167 107 168 116 L 167 123" fill="#660000" /><path d="M 162 73 Q 184 71 199 63 Q 203 61 207 63 Q 216 67 222 71 L 203 76 Q 200 74 196 74 Q 183 77 170 80 Q 169 80 168 80" fill="#720000" /><path d="M 222 71 Q 225 74 222 79 Q 219 85 219 100 Q 220 182 224 232 Q 225 244 215 258 Q 213 261 211 260 Q 207 259 204 254 L 204 236 Q 211 227 207 118 L 206 113 Q 206 102 206 90 Q 206 79 203 76" fill="#720000" /><path d="M 204 254 Q 194 246 177 235 Q 177 232 181 233 Q 190 235 198 236 Q 203 237 204 236" fill="#720000" /><path d="M 167 95 Q 178 88 187 89 Q 193 89 196 93 Q 198 95 193 96 Q 182 98 168 101 Q 167 101 167 101" fill="#7f0000" /><path d="M 168 116 Q 179 113 193 110 Q 199 108 203 110 Q 205 112 206 113 L 207 118 Q 181 120 170 123 Q 168 123 167 123" fill="#8c0000" /><path d="M 131 142 Q 127 142 124 143 Q 114 146 110 142 Q 106 139 111 138 Q 125 136 130 135 L 142 132 Q 147 128 156 131 Q 160 133 160 135 Q 158 137 157 137 Q 144 139 140 140" fill="#990000" /><path d="M 107 195 Q 106 196 106 198 Q 105 201 102 197 Q 98 193 97 188 Q 93 171 88 161 Q 86 157 87 156 Q 87 155 90 156 Q 93 156 96 157 L 101 164 Q 104 182 106 189" fill="#a50000" /><path d="M 131 158 Q 103 162 101 164 L 96 157 Q 106 156 119 153 Q 125 152 131 152 L 139 150 Q 151 148 155 148 Q 174 145 177 146 Q 187 153 190 156 L 170 155 Q 166 152 138 157" fill="#b20000" /><path d="M 162 182 Q 163 181 163 180 Q 165 177 170 160 Q 171 156 170 155 L 190 156 Q 193 160 189 163 Q 181 168 177 179 Q 170 190 166 191 Q 164 191 163 188" fill="#b20000" /><path d="M 108 170 L 108 169 Q 108 167 110 167 Q 120 169 123 175 Q 124 177 124 179 Q 123 182 121 182 Q 118 181 109 171" fill="#bf0000" /><path d="M 152 163 L 152 161 Q 151 159 153 159 Q 156 159 159 161 Q 161 164 162 166 Q 162 167 160 168 L 143 177 Q 142 176 143 175 Q 148 169 151 165" fill="#cc0000" /><path d="M 117 194 L 113 195 Q 109 195 107 195 L 106 189 Q 118 187 130 185 L 138 183 Q 157 179 162 182 L 163 188 Q 151 189 138 191 L 122 193" fill="#d80000" /><path d="M 130 185 Q 131 173 131 161 Q 131 160 131 158 L 131 152 Q 131 146 131 142 L 130 135 Q 130 128 125 122 Q 124 119 125 118 Q 129 115 133 119 Q 142 124 143 126 Q 144 128 142 131 Q 142 131 142 132 L 140 140 Q 139 145 139 150 L 138 157 Q 138 171 138 183 L 138 191 Q 138 233 138 239 Q 138 249 133 252 Q 132 254 131 253 Q 130 252 129 249 Q 124 240 126 232 Q 130 219 130 201" fill="#e50000" /><path d="M 130 185 L 130 201 Q 130 201 130 202 Q 126 207 120 213 Q 97 237 82 235 Q 79 234 82 232 Q 118 209 122 193" fill="#f20000" /><path d="M 150 203 L 150 201 Q 150 198 152 199 Q 167 202 175 207 Q 179 209 180 213 Q 183 221 181 223 Q 180 225 178 225 Q 175 225 172 221 Q 161 211 152 204" fill="#ff0000" /></svg>