<svg xmlns="http://www.w3.org/2000/svg" xmlns:xlink="http://www.w3.org/1999/xlink" width="270" height="270"><path d="M 0 0 L 270 270 M 270 0 L 0 270 M 135 0 L 135 270 M 0 135 L 270 135" stroke="#CCCCCC" /><path d="M 136 67 Q 133 28 127 23 Q 125 19 127 17 Q 129 15 133 15 Q 139 16 148 21 Q 153 24 153 27 Q 152 29 152 30 Q 151 31 151 32 L 150 42 Q 148 53 147 65" fill="#000000" /><path d="M 151 32 Q 156 31 160 30 Q 167 28 174 26 Q 181 23 188 24 Q 195 25 197 28 Q 198 30 196 32 Q 196 32 196 32 Q 158 42 150 42" fill="#170000" /><path d="M 129 76 Q 114 79 100 84 Q 98 84 96 84 L 91 75 Q 102 73 113 71 Q 125 69 136 67 L 147 65 Q 169 61 179 60 Q 207 54 213 59 L 198 66 Q 193 65 176 68 Q 152 71 136 75" fill="#2e0000" /><path d="M 213 59 Q 229 71 229 74 Q 229 76 220 79 Q 210 82 196 91 Q 193 93 191 93 Q 190 92 191 89 Q 202 71 202 70 Q 202 67 198 66" fill="#2e0000" /><path d="M 96 84 Q 93 89 91 114 Q 86 166 67 204 Q 62 214 57 223 Q 36 252 29 253 Q 26 254 27 251 Q 28 249 29 247 Q 50 215 61 186 Q 76 143 76 104 Q 78 82 72 74 Q 70 70 74 68 Q 80 66 91 75" fill="#450000" /><path d="M 132 111 L 131 111 Q 111 116 103 112 Q 97 109 105 108 Q 120 105 132 101 L 142 98 Q 162 90 168 91 Q 174 92 176 94 Q 177 96 176 98 Q 175 98 142 109 L 133 111" fill="#5c0000" /><path d="M 132 101 Q 132 86 129 79 Q 129 77 129 76 L 136 75 Q 140 76 142 78 Q 144 80 144 84 Q 142 92 142 98 L 142 109 Q 143 115 144 119 L 140 131 Q 133 125 133 111" fill="#730000" /><path d="M 144 119 Q 146 122 150 123 Q 162 127 175 123 Q 181 122 183 119 L 202 118 Q 205 123 201 126 Q 194 132 188 134 Q 187 134 187 135 Q 156 143 140 131" fill="#730000" /><path d="M 183 119 Q 186 115 191 103 Q 192 99 193 99 Q 195 101 195 104 Q 199 115 202 118" fill="#730000" /><path d="M 126 226 Q 126 210 126 199 L 126 193 Q 126 179 126 173 Q 124 163 120 152 Q 119 149 121 147 Q 123 146 126 147 Q 133 150 137 155 Q 141 158 140 163 Q 136 178 136 225" fill="#8b0000" /><path d="M 160 189 L 159 160 Q 159 155 155 148 Q 153 145 155 143 Q 156 142 160 143 Q 165 143 173 148 Q 177 151 176 154 Q 171 169 170 189 L 170 197 Q 168 209 167 222 L 158 223" fill="#a20000" /><path d="M 99 211 Q 95 213 91 208 Q 89 204 91 199 Q 94 194 95 183 Q 97 170 92 161 Q 90 157 93 156 Q 95 156 99 158 Q 105 162 108 165 Q 108 166 104 192 Q 104 195 105 196" fill="#b90000" /><path d="M 126 199 Q 107 206 99 211 L 105 196 Q 106 197 110 196 Q 119 194 126 193" fill="#b90000" /><path d="M 192 185 Q 192 184 192 184 Q 195 179 197 170 Q 200 150 196 145 Q 196 142 198 141 Q 201 140 204 142 Q 211 147 216 151 Q 218 155 216 158 Q 213 162 208 180 Q 205 200 198 205 Q 195 208 193 204 Q 192 199 191 194" fill="#d00000" /><path d="M 170 189 Q 189 183 192 185 L 191 194 Q 179 195 173 197 Q 171 197 170 197" fill="#e70000" /><path d="M 167 222 Q 192 218 209 216 Q 224 213 238 224 Q 243 228 241 232 Q 240 234 234 234 Q 234 233 234 234 Q 150 228 92 242 Q 87 244 81 242 Q 76 240 73 236 Q 68 231 74 231 Q 101 228 126 226 L 136 225 Q 149 223 158 223" fill="#ff0000" /></svg>