<svg xmlns="http://www.w3.org/2000/svg" xmlns:xlink="http://www.w3.org/1999/xlink" width="270" height="270"><path d="M 0 0 L 270 270 M 270 0 L 0 270 M 135 0 L 135 270 M 0 135 L 270 135" stroke="#CCCCCC" /><path d="M 110 103 Q 110 105 110 107 Q 109 111 104 106 Q 100 103 99 98 Q 93 79 86 69 Q 84 65 85 63 Q 86 62 89 62 Q 98 63 101 64 L 104 72 Q 105 78 109 94" fill="#000000" /><path d="M 131 68 Q 121 69 110 71 Q 107 72 104 72 L 101 64 Q 116 63 131 61 L 145 58 Q 157 55 171 51 Q 177 49 181 51 Q 193 59 197 62 L 174 64 Q 170 60 144 66" fill="#0f0000" /><path d="M 170 83 Q 175 66 174 64 L 197 62 Q 200 66 195 71 Q 190 74 182 86" fill="#0f0000" /><path d="M 132 99 Q 120 101 112 102 Q 111 103 110 103 L 109 94 Q 120 93 132 91 L 143 89 Q 168 83 170 83 L 182 86 Q 186 89 186 91 Q 186 93 183 93 Q 159 95 143 98" fill="#1e0000" /><path d="M 131 117 Q 132 108 132 99 L 132 91 Q 132 79 131 68 L 131 61 Q 131 51 130 41 Q 130 35 125 27 Q 123 24 124 22 Q 126 20 130 21 Q 136 21 145 26 Q 150 30 149 32 Q 145 47 145 53 Q 145 56 145 58 L 144 66 Q 143 77 143 89 L 143 98 Q 142 106 141 115" fill="#2d0000" /><path d="M 170 118 L 166 119 Q 144 124 122 128 Q 107 132 93 138 Q 90 140 88 139 Q 81 133 76 128 Q 75 126 76 123 Q 76 121 79 121 Q 89 123 95 122 Q 114 119 131 117 L 141 115 Q 157 113 171 111 L 175 116" fill="#3c0000" /><path d="M 171 111 Q 168 106 168 104 Q 168 101 170 101 Q 171 100 174 102 Q 192 112 193 119 Q 193 126 192 129 Q 190 132 187 131 Q 184 130 182 127 Q 178 121 175 116" fill="#4b0000" /><path d="M 62 204 Q 61 206 61 208 Q 60 212 56 207 Q 52 204 51 199 Q 46 182 41 173 Q 39 169 40 168 Q 41 167 43 167 Q 50 168 52 169 L 57 175 Q 57 181 60 197" fill="#5a0000" /><path d="M 76 172 Q 71 173 57 175 L 52 169 Q 64 167 76 165 L 89 162 Q 96 159 103 157 Q 108 155 112 157 Q 123 162 126 166 L 105 168 Q 103 166 88 169" fill="#690000" /><path d="M 126 166 Q 129 169 125 173 Q 119 177 113 190 L 102 188 Q 107 170 105 168" fill="#690000" /><path d="M 76 202 Q 70 203 66 204 Q 63 204 62 204 L 60 197 Q 68 195 76 194 L 87 192 Q 101 187 102 188 L 113 190 Q 118 193 118 194 Q 117 196 115 196 Q 98 198 86 200" fill="#780000" /><path d="M 76 222 Q 76 211 76 202 L 76 194 Q 76 182 76 172 L 76 165 Q 75 162 75 160 Q 75 155 71 149 Q 69 146 70 144 Q 72 142 76 143 Q 81 144 88 148 Q 92 151 91 153 Q 91 157 89 162 L 88 169 Q 88 170 88 170 Q 88 181 87 192 L 86 200 Q 85 210 85 220" fill="#870000" /><path d="M 107 222 L 104 223 Q 55 238 44 245 Q 41 247 38 246 Q 31 241 26 236 Q 24 234 25 231 Q 25 229 29 229 Q 37 230 42 229 Q 59 225 76 222 L 85 220 Q 97 217 107 215 L 110 220" fill="#960000" /><path d="M 107 215 Q 103 208 103 206 Q 104 203 105 203 Q 107 203 109 204 Q 125 216 125 222 Q 124 228 122 231 Q 120 233 118 232 Q 114 230 110 220" fill="#a50000" /><path d="M 158 199 Q 158 201 158 203 Q 157 207 152 202 Q 148 199 147 193 Q 142 175 135 165 Q 133 161 134 160 Q 135 159 138 159 Q 145 160 148 161 L 152 168 Q 153 175 157 191" fill="#b40000" /><path d="M 175 164 Q 166 166 157 167 Q 154 168 152 168 L 148 161 Q 161 159 175 157 L 190 154 Q 197 152 204 149 Q 218 142 236 159 L 212 160 Q 210 158 204 159 Q 196 160 188 162" fill="#c30000" /><path d="M 207 182 Q 214 163 212 160 L 236 159 Q 239 163 234 168 Q 227 170 219 186" fill="#c30000" /><path d="M 176 196 Q 167 197 161 199 Q 159 199 158 199 L 157 191 Q 166 190 176 188 L 188 186 Q 205 182 207 182 L 219 186 Q 222 188 222 189 Q 222 192 219 192 Q 201 193 187 195" fill="#d20000" /><path d="M 176 221 Q 176 208 176 196 L 176 188 Q 176 175 175 164 L 175 157 Q 173 145 169 140 Q 167 137 169 135 Q 171 133 174 134 Q 180 135 188 139 Q 193 142 192 145 Q 191 148 190 152 Q 190 153 190 154 L 188 162 Q 188 162 188 163 Q 188 174 188 186 L 187 195 Q 187 207 186 220" fill="#e10000" /><path d="M 215 221 L 210 222 Q 161 237 153 243 Q 150 244 147 243 Q 139 238 134 233 Q 132 231 133 228 Q 134 225 137 225 Q 144 226 176 221 L 186 220 Q 201 216 216 214 L 219 219" fill="#f00000" /><path d="M 216 214 Q 210 204 211 201 Q 212 198 213 200 Q 213 200 214 201 Q 245 223 245 234 Q 245 245 241 247 Q 239 249 237 248 Q 234 247 232 241 Q 225 229 219 219" fill="#ff0000" /></svg>