<svg xmlns="http://www.w3.org/2000/svg" xmlns:xlink="http://www.w3.org/1999/xlink" width="270" height="270"><path d="M 0 0 L 270 270 M 270 0 L 0 270 M 135 0 L 135 270 M 0 135 L 270 135" stroke="#CCCCCC" /><path d="M 88 30 L 87 27 Q 87 22 88 21 Q 93 19 114 27 Q 123 31 125 37 Q 128 45 127 50 Q 126 54 122 54 Q 117 55 113 51 Q 105 43 97 36" fill="#CCCCCC"/><path d="M 105 93 Q 104 91 99 93 Q 65 108 61 109 Q 53 110 42 103 Q 38 101 39 98 Q 39 95 43 96 Q 87 92 110 75 Q 115 72 121 74 Q 129 77 134 81 Q 137 85 133 89" fill="#CCCCCC"/><path d="M 60 180 L 31 194 Q 28 195 27 194 Q 26 193 30 191 Q 81 144 103 102 Q 107 95 105 93 L 133 89 Q 119 99 110 114 Q 102 126 95 136 L 88 145" fill="#CCCCCC"/><path d="M 95 136 Q 99 140 106 147 Q 108 149 106 156 Q 104 167 103 210 Q 103 222 99 233 Q 96 239 92 235 Q 90 233 89 231 Q 81 214 86 208 Q 96 165 88 145" fill="#CCCCCC"/><path d="M 121 137 L 121 137 Q 135 118 135 113 Q 134 109 137 108 Q 142 108 146 112 Q 150 116 152 119 Q 152 122 149 123 Q 141 127 124 139 L 121 138" fill="#CCCCCC"/><path d="M 124 139 Q 138 141 141 149 Q 143 155 142 158 Q 141 161 139 161 Q 135 161 133 159 Q 125 152 119 147 Q 113 142 113 140 Q 112 138 113 137 Q 115 136 121 138" fill="#CCCCCC"/><path d="M 207 27 L 210 26 Q 219 25 227 34 Q 231 37 231 40 Q 231 43 229 44 Q 228 45 226 48 Q 208 70 191 86 Q 167 103 158 103 Q 155 102 157 101 Q 209 55 208 30" fill="#CCCCCC"/><path d="M 209 87 L 212 87 Q 215 87 220 89 Q 230 94 231 101 Q 231 104 229 105 Q 228 106 226 108 Q 210 127 200 136 Q 199 137 199 137 Q 170 161 157 161 Q 154 160 156 159 Q 211 116 210 91" fill="#CCCCCC"/><path d="M 217 143 L 220 142 Q 224 142 229 145 Q 241 150 242 159 Q 243 162 240 163 Q 238 164 235 168 Q 207 204 182 224 Q 147 250 132 250 Q 129 248 132 247 Q 162 226 175 214 Q 177 211 180 210 Q 218 170 218 147" fill="#CCCCCC"/><path d="M 88 30 L 87 27 Q 87 22 88 21 Q 93 19 114 27 Q 123 31 125 37 Q 128 45 127 50 Q 126 54 122 54 Q 117 55 113 51 Q 105 43 97 36" fill="#000000" /><path d="M 105 93 Q 104 91 99 93 Q 65 108 61 109 Q 53 110 42 103 Q 38 101 39 98 Q 39 95 43 96 Q 87 92 110 75 Q 115 72 121 74 Q 129 77 134 81 Q 137 85 133 89" fill="#240000" /><path d="M 60 180 L 31 194 Q 28 195 27 194 Q 26 193 30 191 Q 81 144 103 102 Q 107 95 105 93 L 133 89 Q 119 99 110 114 Q 102 126 95 136 L 88 145" fill="#240000" /><path d="M 95 136 Q 99 140 106 147 Q 108 149 106 156 Q 104 167 103 210 Q 103 222 99 233 Q 96 239 92 235 Q 90 233 89 231 Q 81 214 86 208 Q 96 165 88 145" fill="#480000" /><path d="M 121 137 L 121 137 Q 135 118 135 113 Q 134 109 137 108 Q 142 108 146 112 Q 150 116 152 119 Q 152 122 149 123 Q 141 127 124 139 L 121 138" fill="#6d0000" /><path d="M 124 139 Q 138 141 141 149 Q 143 155 142 158 Q 141 161 139 161 Q 135 161 133 159 Q 125 152 119 147 Q 113 142 113 140 Q 112 138 113 137 Q 115 136 121 138" fill="#910000" /><path d="M 207 27 L 210 26 Q 219 25 227 34 Q 231 37 231 40 Q 231 43 229 44 Q 228 45 226 48 Q 208 70 191 86 Q 167 103 158 103 Q 155 102 157 101 Q 209 55 208 30" fill="#b60000" /><path d="M 209 87 L 212 87 Q 215 87 220 89 Q 230 94 231 101 Q 231 104 229 105 Q 228 106 226 108 Q 210 127 200 136 Q 199 137 199 137 Q 170 161 157 161 Q 154 160 156 159 Q 211 116 210 91" fill="#da0000" /><path d="M 217 143 L 220 142 Q 224 142 229 145 Q 241 150 242 159 Q 243 162 240 163 Q 238 164 235 168 Q 207 204 182 224 Q 147 250 132 250 Q 129 248 132 247 Q 162 226 175 214 Q 177 211 180 210 Q 218 170 218 147" fill="#ff0000" /></svg>