<svg xmlns="http://www.w3.org/2000/svg" xmlns:xlink="http://www.w3.org/1999/xlink" width="270" height="270"><path d="M 0 0 L 270 270 M 270 0 L 0 270 M 135 0 L 135 270 M 0 135 L 270 135" stroke="#CCCCCC" /><path d="M 128 24 L 117 15 Q 117 12 118 11 Q 119 11 123 11 Q 142 13 145 19 Q 148 28 147 32 L 139 33" fill="#CCCCCC"/><path d="M 147 32 Q 160 28 174 25 Q 191 20 200 27 Q 205 29 205 32 Q 203 35 200 35 Q 140 41 82 52 Q 74 54 67 46 Q 61 41 68 41 Q 138 33 139 33" fill="#CCCCCC"/><path d="M 91 100 L 90 102 Q 89 106 85 101 Q 82 98 81 93 Q 77 76 72 66 Q 70 63 71 62 Q 72 60 74 61 Q 81 62 84 63 L 86 69 Q 87 74 89 88 L 91 94" fill="#CCCCCC"/><path d="M 84 63 Q 94 61 104 57 Q 115 51 119 53 Q 125 57 129 59 L 112 65 Q 111 62 105 64 Q 97 66 87 69 Q 86 69 86 69" fill="#CCCCCC"/><path d="M 110 82 Q 113 66 112 65 L 129 59 Q 134 62 129 68 Q 125 71 122 81" fill="#CCCCCC"/><path d="M 89 88 Q 99 85 110 82 L 122 81 Q 128 84 128 86 Q 128 88 125 88 Q 104 91 95 94 Q 93 95 91 94" fill="#CCCCCC"/><path d="M 161 87 L 161 88 Q 160 91 156 87 Q 153 84 153 79 Q 150 64 146 55 Q 144 52 145 51 Q 146 50 148 51 Q 154 52 156 53 L 159 59 Q 160 65 161 79 L 162 85" fill="#CCCCCC"/><path d="M 156 53 Q 176 49 185 43 Q 189 41 193 43 Q 200 47 204 49 L 187 56 Q 185 54 180 55 Q 164 58 159 59" fill="#CCCCCC"/><path d="M 184 73 Q 186 66 187 61 Q 188 57 187 56 L 204 49 Q 209 53 204 58 Q 200 62 196 73" fill="#CCCCCC"/><path d="M 161 79 Q 171 76 184 73 L 196 73 Q 201 76 201 78 Q 201 80 199 80 Q 177 82 167 85 Q 165 86 162 85 Q 162 85 162 85" fill="#CCCCCC"/><path d="M 143 118 Q 130 119 117 122 L 106 124 Q 90 126 80 121 Q 75 117 83 116 Q 93 115 103 114 L 117 112 Q 123 111 129 110 Q 136 108 143 107 L 160 102 Q 171 97 179 100 Q 186 101 187 104 Q 188 106 186 108 Q 183 110 168 113 Q 163 113 157 115" fill="#CCCCCC"/><path d="M 155 126 Q 166 123 172 124 Q 178 126 181 129 Q 182 132 177 133 Q 165 134 154 137 L 142 139 Q 130 141 118 143 L 108 145 Q 101 146 96 147 Q 86 149 81 146 Q 76 142 80 141 Q 93 138 107 136 L 117 134 Q 129 131 143 129" fill="#CCCCCC"/><path d="M 117 122 Q 117 128 117 134 L 118 143 Q 118 150 118 158 L 109 159 Q 108 151 108 145 L 107 136 Q 106 128 106 124 L 103 114 Q 101 108 98 102 Q 96 98 98 97 Q 100 95 103 96 Q 110 99 115 102 Q 118 105 117 110 Q 117 111 117 112" fill="#CCCCCC"/><path d="M 143 123 L 143 118 L 143 107 Q 142 96 139 92 Q 137 88 139 86 Q 141 85 145 86 Q 150 87 158 92 Q 162 95 161 98 Q 161 100 160 102 L 157 115 Q 155 121 155 126 L 154 137 Q 153 144 151 152 L 142 153 Q 142 145 142 139 L 143 129" fill="#CCCCCC"/><path d="M 101 169 Q 83 173 67 177 Q 63 179 58 178 Q 53 177 50 173 Q 46 169 51 169 Q 82 163 109 159 L 118 158 Q 122 156 142 153 L 151 152 Q 171 147 186 144 Q 197 140 212 149 Q 216 153 215 156 Q 213 158 196 158 Q 180 159 166 160 Q 119 163 117 166" fill="#CCCCCC"/><path d="M 118 177 Q 113 180 105 188 L 96 196 Q 54 231 30 231 Q 24 231 29 228 Q 31 227 33 226 Q 88 193 101 169 L 117 166 Q 121 168 121 171" fill="#CCCCCC"/><path d="M 105 188 Q 107 189 109 192 Q 112 195 111 200 Q 110 203 109 219 Q 109 225 110 226 L 103 254 Q 100 258 97 256 Q 96 256 96 255 Q 85 243 93 233 Q 103 217 96 196" fill="#CCCCCC"/><path d="M 110 226 Q 114 228 141 214 Q 146 212 146 215 Q 145 217 140 221 Q 112 244 103 254" fill="#CCCCCC"/><path d="M 166 182 L 172 174 Q 175 170 174 166 Q 174 161 179 161 Q 184 162 189 167 Q 194 173 195 177 Q 196 180 191 181 Q 181 186 160 198 L 155 194" fill="#CCCCCC"/><path d="M 160 198 Q 175 209 184 214 Q 214 223 245 232 Q 245 234 237 236 Q 220 240 198 241 Q 187 241 155 209 Q 123 177 118 177 L 121 171 Q 121 172 121 172 Q 129 172 139 180 Q 147 188 155 194" fill="#CCCCCC"/><path d="M 128 24 L 117 15 Q 117 12 118 11 Q 119 11 123 11 Q 142 13 145 19 Q 148 28 147 32 L 139 33" fill="#000000" /><path d="M 147 32 Q 160 28 174 25 Q 191 20 200 27 Q 205 29 205 32 Q 203 35 200 35 Q 140 41 82 52 Q 74 54 67 46 Q 61 41 68 41 Q 138 33 139 33" fill="#0f0000" /><path d="M 91 100 L 90 102 Q 89 106 85 101 Q 82 98 81 93 Q 77 76 72 66 Q 70 63 71 62 Q 72 60 74 61 Q 81 62 84 63 L 86 69 Q 87 74 89 88 L 91 94" fill="#1f0000" /><path d="M 84 63 Q 94 61 104 57 Q 115 51 119 53 Q 125 57 129 59 L 112 65 Q 111 62 105 64 Q 97 66 87 69 Q 86 69 86 69" fill="#2f0000" /><path d="M 110 82 Q 113 66 112 65 L 129 59 Q 134 62 129 68 Q 125 71 122 81" fill="#2f0000" /><path d="M 89 88 Q 99 85 110 82 L 122 81 Q 128 84 128 86 Q 128 88 125 88 Q 104 91 95 94 Q 93 95 91 94" fill="#3f0000" /><path d="M 161 87 L 161 88 Q 160 91 156 87 Q 153 84 153 79 Q 150 64 146 55 Q 144 52 145 51 Q 146 50 148 51 Q 154 52 156 53 L 159 59 Q 160 65 161 79 L 162 85" fill="#4f0000" /><path d="M 156 53 Q 176 49 185 43 Q 189 41 193 43 Q 200 47 204 49 L 187 56 Q 185 54 180 55 Q 164 58 159 59" fill="#5f0000" /><path d="M 184 73 Q 186 66 187 61 Q 188 57 187 56 L 204 49 Q 209 53 204 58 Q 200 62 196 73" fill="#5f0000" /><path d="M 161 79 Q 171 76 184 73 L 196 73 Q 201 76 201 78 Q 201 80 199 80 Q 177 82 167 85 Q 165 86 162 85 Q 162 85 162 85" fill="#6f0000" /><path d="M 143 118 Q 130 119 117 122 L 106 124 Q 90 126 80 121 Q 75 117 83 116 Q 93 115 103 114 L 117 112 Q 123 111 129 110 Q 136 108 143 107 L 160 102 Q 171 97 179 100 Q 186 101 187 104 Q 188 106 186 108 Q 183 110 168 113 Q 163 113 157 115" fill="#7f0000" /><path d="M 155 126 Q 166 123 172 124 Q 178 126 181 129 Q 182 132 177 133 Q 165 134 154 137 L 142 139 Q 130 141 118 143 L 108 145 Q 101 146 96 147 Q 86 149 81 146 Q 76 142 80 141 Q 93 138 107 136 L 117 134 Q 129 131 143 129" fill="#8f0000" /><path d="M 117 122 Q 117 128 117 134 L 118 143 Q 118 150 118 158 L 109 159 Q 108 151 108 145 L 107 136 Q 106 128 106 124 L 103 114 Q 101 108 98 102 Q 96 98 98 97 Q 100 95 103 96 Q 110 99 115 102 Q 118 105 117 110 Q 117 111 117 112" fill="#9f0000" /><path d="M 143 123 L 143 118 L 143 107 Q 142 96 139 92 Q 137 88 139 86 Q 141 85 145 86 Q 150 87 158 92 Q 162 95 161 98 Q 161 100 160 102 L 157 115 Q 155 121 155 126 L 154 137 Q 153 144 151 152 L 142 153 Q 142 145 142 139 L 143 129" fill="#af0000" /><path d="M 101 169 Q 83 173 67 177 Q 63 179 58 178 Q 53 177 50 173 Q 46 169 51 169 Q 82 163 109 159 L 118 158 Q 122 156 142 153 L 151 152 Q 171 147 186 144 Q 197 140 212 149 Q 216 153 215 156 Q 213 158 196 158 Q 180 159 166 160 Q 119 163 117 166" fill="#bf0000" /><path d="M 118 177 Q 113 180 105 188 L 96 196 Q 54 231 30 231 Q 24 231 29 228 Q 31 227 33 226 Q 88 193 101 169 L 117 166 Q 121 168 121 171" fill="#cf0000" /><path d="M 105 188 Q 107 189 109 192 Q 112 195 111 200 Q 110 203 109 219 Q 109 225 110 226 L 103 254 Q 100 258 97 256 Q 96 256 96 255 Q 85 243 93 233 Q 103 217 96 196" fill="#df0000" /><path d="M 110 226 Q 114 228 141 214 Q 146 212 146 215 Q 145 217 140 221 Q 112 244 103 254" fill="#df0000" /><path d="M 166 182 L 172 174 Q 175 170 174 166 Q 174 161 179 161 Q 184 162 189 167 Q 194 173 195 177 Q 196 180 191 181 Q 181 186 160 198 L 155 194" fill="#ef0000" /><path d="M 160 198 Q 175 209 184 214 Q 214 223 245 232 Q 245 234 237 236 Q 220 240 198 241 Q 187 241 155 209 Q 123 177 118 177 L 121 171 Q 121 172 121 172 Q 129 172 139 180 Q 147 188 155 194" fill="#ff0000" /></svg>