<svg xmlns="http://www.w3.org/2000/svg" xmlns:xlink="http://www.w3.org/1999/xlink" width="270" height="270"><path d="M 0 0 L 270 270 M 270 0 L 0 270 M 135 0 L 135 270 M 0 135 L 270 135" stroke="#CCCCCC" /><path d="M 58 37 L 57 33 Q 56 30 58 29 Q 61 27 79 34 Q 87 37 88 42 Q 90 50 89 54 Q 88 58 85 58 Q 80 58 77 55 Q 71 48 65 42" fill="#000000" /><path d="M 63 99 Q 62 98 59 99 Q 32 110 29 111 Q 25 112 16 106 Q 13 104 14 101 Q 14 99 17 100 Q 49 97 67 83 Q 71 80 76 82 Q 83 84 88 88 Q 91 91 87 93" fill="#0c0000" /><path d="M 31 173 L 13 184 Q 10 186 9 185 Q 8 184 12 182 Q 48 141 62 106 Q 65 101 63 99 L 87 93 Q 80 99 56 140 L 50 148" fill="#0c0000" /><path d="M 56 140 Q 57 141 59 143 Q 62 146 66 151 Q 68 153 66 159 Q 65 170 65 216 Q 65 226 62 235 Q 59 241 55 238 Q 49 232 49 226 Q 48 220 52 199 Q 57 155 50 148" fill="#190000" /><path d="M 75 133 L 75 132 Q 80 119 79 116 Q 79 113 81 113 Q 88 112 92 119 Q 93 120 91 122 Q 82 129 76 135 L 75 134" fill="#260000" /><path d="M 76 135 Q 86 138 87 143 Q 88 148 86 150 Q 85 152 84 152 Q 81 152 79 149 Q 68 135 68 135 Q 68 132 68 132 Q 71 131 75 134" fill="#330000" /><path d="M 120 32 L 119 30 Q 119 27 121 27 Q 124 25 131 29 Q 144 34 145 44 Q 146 48 144 50 Q 142 53 138 52 Q 132 49 123 36" fill="#3f0000" /><path d="M 107 73 L 116 71 Q 124 68 131 66 Q 137 63 143 64 Q 149 65 151 67 Q 152 69 150 71 Q 150 72 143 74 Q 133 76 124 78 Q 103 83 95 79 Q 89 76 97 75" fill="#4c0000" /><path d="M 102 93 L 103 91 Q 103 89 105 90 Q 116 96 118 103 Q 118 108 117 110 Q 115 113 112 112 Q 107 110 102 95" fill="#590000" /><path d="M 128 115 Q 137 90 135 83 Q 134 81 136 80 Q 139 79 142 81 Q 147 84 149 87 Q 151 89 148 92 Q 145 97 143 100 Q 140 106 137 112" fill="#660000" /><path d="M 113 127 Q 110 128 109 128 Q 99 130 95 127 Q 91 124 96 123 Q 99 123 128 115 Q 128 115 128 115 L 137 112 Q 140 110 146 113 Q 150 114 150 116 Q 149 118 147 118 Q 131 122 119 125" fill="#720000" /><path d="M 116 155 Q 115 155 114 155 Q 105 158 97 155 Q 92 152 98 150 Q 107 149 116 146 L 129 142 Q 139 137 143 138 Q 149 139 150 141 Q 151 142 150 144 Q 149 145 142 147 Q 135 149 128 151" fill="#7f0000" /><path d="M 128 174 L 129 200 Q 130 217 121 227 Q 118 230 116 228 L 113 208 Q 116 205 116 198 Q 116 171 116 155 L 116 146 Q 116 136 114 131 Q 113 129 113 127 L 119 125 Q 119 125 119 125 Q 127 130 129 132 Q 130 135 129 140 Q 129 140 129 142 L 128 151 Q 127 158 127 166 L 127 171" fill="#8c0000" /><path d="M 116 228 Q 110 221 100 212 Q 98 210 98 208 Q 98 207 100 207 Q 103 207 105 207 Q 111 209 113 208" fill="#8c0000" /><path d="M 93 168 L 95 168 Q 96 168 97 170 Q 98 175 97 181 Q 95 197 84 204 Q 80 206 79 202 Q 75 194 80 189 Q 87 180 92 170" fill="#990000" /><path d="M 127 166 Q 141 167 146 173 Q 148 176 148 179 Q 147 182 145 182 Q 141 183 127 171" fill="#a50000" /><path d="M 161 155 L 160 154 Q 157 147 160 126 Q 163 84 157 70 Q 156 69 156 67 Q 155 64 156 63 Q 159 63 160 63 Q 166 66 168 68 L 170 74 Q 170 75 170 96 L 170 102 Q 170 110 170 121 L 170 127 Q 170 131 170 136 Q 170 143 170 147 L 169 154 Q 168 155 168 156 L 162 157" fill="#b20000" /><path d="M 168 68 Q 180 64 195 57 Q 199 55 205 56 Q 217 59 219 62 Q 221 65 218 69 L 200 67 Q 197 65 190 68 Q 177 72 170 74" fill="#bf0000" /><path d="M 218 69 Q 213 79 217 140 Q 217 149 215 156 Q 212 162 210 163 Q 208 163 204 158 Q 201 154 199 150 L 199 142 Q 204 143 203 137 Q 204 116 203 79 Q 203 70 200 67" fill="#bf0000" /><path d="M 170 96 Q 180 89 187 89 Q 193 90 196 92 Q 198 95 193 96 Q 184 98 172 102 Q 170 102 170 102" fill="#cc0000" /><path d="M 170 121 Q 183 115 190 116 Q 195 116 197 119 Q 199 122 194 123 Q 184 125 170 127" fill="#d80000" /><path d="M 199 150 Q 178 151 169 154 L 170 147 Q 178 145 189 142 Q 194 141 197 142 Q 197 142 199 142" fill="#e50000" /><path d="M 168 156 Q 173 159 176 164 Q 178 166 177 169 Q 172 175 171 180 Q 150 221 134 226 Q 133 226 133 225 Q 133 224 134 223 Q 143 211 150 199 Q 167 170 163 159 Q 161 157 162 157" fill="#f20000" /><path d="M 187 172 L 184 163 Q 183 158 185 158 Q 187 157 190 158 Q 201 163 199 170 Q 192 207 197 218 L 190 230 Q 186 226 185 221 Q 183 213 186 181" fill="#ff0000" /><path d="M 197 218 Q 198 220 202 222 Q 207 225 213 225 Q 229 225 235 220 L 258 220 Q 261 227 256 231 Q 248 236 241 238 Q 240 238 239 238 Q 206 244 190 230" fill="#ff0000" /><path d="M 235 220 Q 239 214 246 195 Q 247 190 248 191 Q 250 192 250 196 Q 254 215 258 220" fill="#ff0000" /></svg>