<svg xmlns="http://www.w3.org/2000/svg" xmlns:xlink="http://www.w3.org/1999/xlink" width="270" height="270"><path d="M 0 0 L 270 270 M 270 0 L 0 270 M 135 0 L 135 270 M 0 135 L 270 135" stroke="#CCCCCC" /><path d="M 86 31 L 85 28 Q 84 24 85 23 Q 89 21 111 26 Q 120 30 122 35 Q 125 44 124 48 Q 123 53 119 53 Q 115 53 111 50 Q 102 42 94 37" fill="#CCCCCC"/><path d="M 49 81 L 108 68 Q 114 66 122 69 Q 127 72 126 76 Q 126 78 122 78 Q 81 84 45 96 Q 34 100 23 92 Q 18 89 19 86 Q 20 83 24 83" fill="#CCCCCC"/><path d="M 78 107 L 85 105 Q 104 98 110 98 Q 117 99 119 102 Q 120 104 118 106 Q 117 107 112 108 Q 101 112 90 114 Q 78 119 67 114 Q 61 110 69 108" fill="#CCCCCC"/><path d="M 79 132 L 84 131 Q 89 129 93 128 Q 100 125 108 125 Q 115 126 117 129 Q 118 131 116 133 Q 115 134 111 135 Q 103 137 95 139 Q 82 143 71 139 Q 65 135 73 133" fill="#CCCCCC"/><path d="M 73 211 L 72 215 Q 70 220 65 214 Q 61 209 60 203 Q 55 181 47 167 Q 45 163 46 161 Q 47 160 50 161 Q 59 162 62 163 L 65 171 Q 66 177 70 194 L 71 203" fill="#CCCCCC"/><path d="M 62 163 Q 78 160 92 154 Q 104 147 109 150 Q 117 154 122 157 Q 128 162 122 168 L 102 164 Q 100 161 92 163 Q 70 169 65 171" fill="#CCCCCC"/><path d="M 97 185 Q 99 179 101 173 Q 103 166 102 164 L 122 168 Q 116 173 111 188" fill="#CCCCCC"/><path d="M 70 194 Q 81 191 94 186 Q 95 186 97 185 L 111 188 Q 115 190 115 192 Q 115 194 112 195 Q 74 200 71 203" fill="#CCCCCC"/><path d="M 162 122 L 150 126 Q 146 127 140 126 Q 136 125 132 121 Q 127 117 133 116 Q 156 112 176 108 L 191 105 Q 206 101 218 99 Q 230 93 247 104 Q 251 107 250 111 Q 248 113 235 113 Q 208 114 191 117 L 176 119" fill="#CCCCCC"/><path d="M 176 108 Q 177 66 177 42 Q 176 33 169 27 Q 165 23 168 21 Q 171 17 177 19 Q 188 22 195 27 Q 200 31 198 35 Q 193 43 193 52 Q 192 70 191 105 L 191 117 Q 190 120 190 124 Q 190 235 185 246 Q 183 252 179 248 Q 174 240 175 192 Q 176 165 176 119" fill="#CCCCCC"/><path d="M 86 31 L 85 28 Q 84 24 85 23 Q 89 21 111 26 Q 120 30 122 35 Q 125 44 124 48 Q 123 53 119 53 Q 115 53 111 50 Q 102 42 94 37" fill="#000000" /><path d="M 49 81 L 108 68 Q 114 66 122 69 Q 127 72 126 76 Q 126 78 122 78 Q 81 84 45 96 Q 34 100 23 92 Q 18 89 19 86 Q 20 83 24 83" fill="#1f0000" /><path d="M 78 107 L 85 105 Q 104 98 110 98 Q 117 99 119 102 Q 120 104 118 106 Q 117 107 112 108 Q 101 112 90 114 Q 78 119 67 114 Q 61 110 69 108" fill="#3f0000" /><path d="M 79 132 L 84 131 Q 89 129 93 128 Q 100 125 108 125 Q 115 126 117 129 Q 118 131 116 133 Q 115 134 111 135 Q 103 137 95 139 Q 82 143 71 139 Q 65 135 73 133" fill="#5f0000" /><path d="M 73 211 L 72 215 Q 70 220 65 214 Q 61 209 60 203 Q 55 181 47 167 Q 45 163 46 161 Q 47 160 50 161 Q 59 162 62 163 L 65 171 Q 66 177 70 194 L 71 203" fill="#7f0000" /><path d="M 62 163 Q 78 160 92 154 Q 104 147 109 150 Q 117 154 122 157 Q 128 162 122 168 L 102 164 Q 100 161 92 163 Q 70 169 65 171" fill="#9f0000" /><path d="M 97 185 Q 99 179 101 173 Q 103 166 102 164 L 122 168 Q 116 173 111 188" fill="#9f0000" /><path d="M 70 194 Q 81 191 94 186 Q 95 186 97 185 L 111 188 Q 115 190 115 192 Q 115 194 112 195 Q 74 200 71 203" fill="#bf0000" /><path d="M 162 122 L 150 126 Q 146 127 140 126 Q 136 125 132 121 Q 127 117 133 116 Q 156 112 176 108 L 191 105 Q 206 101 218 99 Q 230 93 247 104 Q 251 107 250 111 Q 248 113 235 113 Q 208 114 191 117 L 176 119" fill="#df0000" /><path d="M 176 108 Q 177 66 177 42 Q 176 33 169 27 Q 165 23 168 21 Q 171 17 177 19 Q 188 22 195 27 Q 200 31 198 35 Q 193 43 193 52 Q 192 70 191 105 L 191 117 Q 190 120 190 124 Q 190 235 185 246 Q 183 252 179 248 Q 174 240 175 192 Q 176 165 176 119" fill="#ff0000" /></svg>