<svg xmlns="http://www.w3.org/2000/svg" xmlns:xlink="http://www.w3.org/1999/xlink" width="270" height="270"><path d="M 0 0 L 270 270 M 270 0 L 0 270 M 135 0 L 135 270 M 0 135 L 270 135" stroke="#CCCCCC" /><path d="M 74 38 L 73 35 Q 72 31 74 30 Q 76 29 80 30 Q 107 38 109 46 Q 112 55 110 59 Q 109 63 106 64 Q 101 64 97 60 Q 89 51 81 44" fill="#CCCCCC"/><path d="M 38 91 L 94 78 Q 100 76 108 80 Q 113 82 113 86 Q 113 88 108 89 Q 71 94 37 106 Q 25 110 14 102 Q 10 99 11 96 Q 12 94 15 93" fill="#CCCCCC"/><path d="M 70 118 L 80 114 Q 87 111 94 112 Q 102 113 104 115 Q 105 118 103 120 Q 103 120 99 121 Q 89 124 80 126 Q 67 130 56 126 Q 49 122 58 120" fill="#CCCCCC"/><path d="M 62 150 L 67 149 Q 73 148 77 147 Q 83 143 91 145 Q 98 146 100 149 Q 101 151 99 153 Q 98 153 94 154 Q 85 156 77 158 Q 65 162 54 157 Q 47 153 56 151" fill="#CCCCCC"/><path d="M 60 232 L 59 236 Q 58 240 53 234 Q 48 230 47 224 Q 42 202 34 189 Q 32 185 34 183 Q 34 182 38 182 Q 44 183 48 184 L 52 191 Q 53 197 57 216 L 60 225 Q 59 225 59 225" fill="#CCCCCC"/><path d="M 48 184 Q 71 178 82 172 Q 87 168 92 171 Q 99 175 104 178 L 85 185 Q 83 183 76 184 Q 62 188 52 191" fill="#CCCCCC"/><path d="M 83 208 Q 85 201 85 194 Q 86 186 85 185 L 104 178 Q 110 181 105 188 Q 100 193 97 210" fill="#CCCCCC"/><path d="M 57 216 Q 68 214 82 209 Q 82 208 83 208 L 97 210 Q 101 213 101 214 Q 101 216 99 217 Q 72 221 60 225" fill="#CCCCCC"/><path d="M 133 76 L 137 76 Q 141 75 148 80 Q 156 85 157 88 Q 158 91 156 94 Q 149 100 147 107 Q 118 152 107 154 Q 104 154 105 152 Q 105 150 107 148 Q 117 133 125 119 Q 140 90 135 82" fill="#CCCCCC"/><path d="M 152 41 L 153 40 Q 156 38 163 39 Q 168 40 169 45 Q 187 73 202 90 Q 216 108 257 131 Q 259 132 258 134 Q 256 135 252 135 Q 243 136 218 134 Q 212 133 208 128 Q 189 99 167 59 Q 162 49 154 44" fill="#CCCCCC"/><path d="M 128 220 Q 125 223 121 221 Q 114 216 113 211 Q 112 209 115 205 Q 122 199 127 194 Q 156 152 150 136 Q 148 130 152 128 Q 154 127 159 129 Q 172 134 174 137 Q 176 141 173 143 Q 166 151 139 196 Q 137 199 138 200" fill="#CCCCCC"/><path d="M 195 193 Q 140 209 128 220 L 138 200 Q 139 201 142 200 Q 167 192 192 186" fill="#CCCCCC"/><path d="M 182 168 L 183 166 Q 184 163 185 163 Q 187 163 190 165 Q 203 177 214 189 Q 224 202 222 212 Q 221 220 218 222 Q 216 225 214 224 Q 210 223 195 193 L 192 186" fill="#CCCCCC"/><path d="M 74 38 L 73 35 Q 72 31 74 30 Q 76 29 80 30 Q 107 38 109 46 Q 112 55 110 59 Q 109 63 106 64 Q 101 64 97 60 Q 89 51 81 44" fill="#000000" /><path d="M 38 91 L 94 78 Q 100 76 108 80 Q 113 82 113 86 Q 113 88 108 89 Q 71 94 37 106 Q 25 110 14 102 Q 10 99 11 96 Q 12 94 15 93" fill="#190000" /><path d="M 70 118 L 80 114 Q 87 111 94 112 Q 102 113 104 115 Q 105 118 103 120 Q 103 120 99 121 Q 89 124 80 126 Q 67 130 56 126 Q 49 122 58 120" fill="#330000" /><path d="M 62 150 L 67 149 Q 73 148 77 147 Q 83 143 91 145 Q 98 146 100 149 Q 101 151 99 153 Q 98 153 94 154 Q 85 156 77 158 Q 65 162 54 157 Q 47 153 56 151" fill="#4c0000" /><path d="M 60 232 L 59 236 Q 58 240 53 234 Q 48 230 47 224 Q 42 202 34 189 Q 32 185 34 183 Q 34 182 38 182 Q 44 183 48 184 L 52 191 Q 53 197 57 216 L 60 225 Q 59 225 59 225" fill="#660000" /><path d="M 48 184 Q 71 178 82 172 Q 87 168 92 171 Q 99 175 104 178 L 85 185 Q 83 183 76 184 Q 62 188 52 191" fill="#7f0000" /><path d="M 83 208 Q 85 201 85 194 Q 86 186 85 185 L 104 178 Q 110 181 105 188 Q 100 193 97 210" fill="#7f0000" /><path d="M 57 216 Q 68 214 82 209 Q 82 208 83 208 L 97 210 Q 101 213 101 214 Q 101 216 99 217 Q 72 221 60 225" fill="#990000" /><path d="M 133 76 L 137 76 Q 141 75 148 80 Q 156 85 157 88 Q 158 91 156 94 Q 149 100 147 107 Q 118 152 107 154 Q 104 154 105 152 Q 105 150 107 148 Q 117 133 125 119 Q 140 90 135 82" fill="#b20000" /><path d="M 152 41 L 153 40 Q 156 38 163 39 Q 168 40 169 45 Q 187 73 202 90 Q 216 108 257 131 Q 259 132 258 134 Q 256 135 252 135 Q 243 136 218 134 Q 212 133 208 128 Q 189 99 167 59 Q 162 49 154 44" fill="#cc0000" /><path d="M 128 220 Q 125 223 121 221 Q 114 216 113 211 Q 112 209 115 205 Q 122 199 127 194 Q 156 152 150 136 Q 148 130 152 128 Q 154 127 159 129 Q 172 134 174 137 Q 176 141 173 143 Q 166 151 139 196 Q 137 199 138 200" fill="#e50000" /><path d="M 195 193 Q 140 209 128 220 L 138 200 Q 139 201 142 200 Q 167 192 192 186" fill="#e50000" /><path d="M 182 168 L 183 166 Q 184 163 185 163 Q 187 163 190 165 Q 203 177 214 189 Q 224 202 222 212 Q 221 220 218 222 Q 216 225 214 224 Q 210 223 195 193 L 192 186" fill="#ff0000" /></svg>