<svg xmlns="http://www.w3.org/2000/svg" xmlns:xlink="http://www.w3.org/1999/xlink" width="270" height="270"><path d="M 0 0 L 270 270 M 270 0 L 0 270 M 135 0 L 135 270 M 0 135 L 270 135" stroke="#CCCCCC" /><path d="M 84 33 L 83 30 Q 82 27 84 25 Q 86 25 90 25 Q 113 31 116 38 Q 118 46 117 50 Q 116 54 113 54 Q 109 54 105 51 Q 98 44 91 38" fill="#CCCCCC"/><path d="M 47 85 L 102 71 Q 108 69 115 72 Q 120 75 120 78 Q 119 80 115 81 Q 78 87 44 100 Q 32 104 22 97 Q 18 94 18 91 Q 19 89 22 89" fill="#CCCCCC"/><path d="M 95 104 L 100 104 Q 107 104 110 108 Q 113 111 107 113 Q 91 116 70 121 Q 66 122 64 121 Q 58 117 62 116" fill="#CCCCCC"/><path d="M 69 142 L 79 137 Q 90 132 97 132 Q 104 133 107 136 Q 110 139 104 141 Q 89 145 68 151 Q 64 152 62 151 Q 56 147 60 146" fill="#CCCCCC"/><path d="M 66 212 L 67 213 Q 68 224 67 230 Q 65 233 61 228 Q 57 223 56 215 Q 51 190 44 174 Q 41 171 43 169 Q 44 168 47 169 Q 54 169 57 171 L 60 177 Q 61 183 65 203 L 66 211" fill="#CCCCCC"/><path d="M 57 171 Q 73 167 83 163 Q 95 157 99 159 Q 105 163 110 166 L 92 172 Q 90 170 84 171 Q 76 174 65 176 Q 62 177 60 177" fill="#CCCCCC"/><path d="M 88 196 Q 93 173 92 172 L 110 166 Q 116 169 110 176 Q 105 181 100 198" fill="#CCCCCC"/><path d="M 65 203 Q 74 200 86 197 Q 87 196 88 196 L 100 198 Q 105 201 105 203 Q 105 205 102 205 Q 80 208 70 210 Q 68 211 66 211" fill="#CCCCCC"/><path d="M 157 38 L 156 35 Q 156 30 157 29 Q 162 28 183 35 Q 191 39 193 45 Q 196 55 194 59 Q 192 64 189 64 Q 183 64 179 59 Q 172 52 166 45" fill="#CCCCCC"/><path d="M 163 103 Q 149 105 138 110 Q 134 111 129 110 Q 125 109 122 106 Q 118 103 122 102 Q 188 87 219 79 Q 234 75 247 83 Q 251 86 250 88 Q 249 91 245 91 Q 193 96 177 99" fill="#CCCCCC"/><path d="M 169 138 L 153 164 Q 129 197 115 200 Q 112 199 114 198 Q 134 174 141 163 Q 142 163 142 162 Q 168 120 163 103 L 177 99 Q 183 101 184 106 Q 185 108 183 110 Q 181 113 177 123 L 173 131" fill="#CCCCCC"/><path d="M 177 123 Q 186 124 192 124 Q 205 122 215 130 L 187 133 Q 177 133 173 131" fill="#CCCCCC"/><path d="M 215 130 Q 222 136 222 139 Q 221 141 218 143 Q 211 149 207 174 Q 200 205 193 223 Q 188 232 180 238 L 179 210 Q 193 187 197 150 Q 198 146 198 143 Q 197 134 187 133" fill="#CCCCCC"/><path d="M 180 238 Q 171 244 167 242 Q 164 241 163 236 Q 160 225 148 214 Q 144 211 146 209 Q 147 207 156 212 Q 168 218 172 217 Q 174 216 179 210" fill="#CCCCCC"/><path d="M 84 33 L 83 30 Q 82 27 84 25 Q 86 25 90 25 Q 113 31 116 38 Q 118 46 117 50 Q 116 54 113 54 Q 109 54 105 51 Q 98 44 91 38" fill="#000000" /><path d="M 47 85 L 102 71 Q 108 69 115 72 Q 120 75 120 78 Q 119 80 115 81 Q 78 87 44 100 Q 32 104 22 97 Q 18 94 18 91 Q 19 89 22 89" fill="#190000" /><path d="M 95 104 L 100 104 Q 107 104 110 108 Q 113 111 107 113 Q 91 116 70 121 Q 66 122 64 121 Q 58 117 62 116" fill="#330000" /><path d="M 69 142 L 79 137 Q 90 132 97 132 Q 104 133 107 136 Q 110 139 104 141 Q 89 145 68 151 Q 64 152 62 151 Q 56 147 60 146" fill="#4c0000" /><path d="M 66 212 L 67 213 Q 68 224 67 230 Q 65 233 61 228 Q 57 223 56 215 Q 51 190 44 174 Q 41 171 43 169 Q 44 168 47 169 Q 54 169 57 171 L 60 177 Q 61 183 65 203 L 66 211" fill="#660000" /><path d="M 57 171 Q 73 167 83 163 Q 95 157 99 159 Q 105 163 110 166 L 92 172 Q 90 170 84 171 Q 76 174 65 176 Q 62 177 60 177" fill="#7f0000" /><path d="M 88 196 Q 93 173 92 172 L 110 166 Q 116 169 110 176 Q 105 181 100 198" fill="#7f0000" /><path d="M 65 203 Q 74 200 86 197 Q 87 196 88 196 L 100 198 Q 105 201 105 203 Q 105 205 102 205 Q 80 208 70 210 Q 68 211 66 211" fill="#990000" /><path d="M 157 38 L 156 35 Q 156 30 157 29 Q 162 28 183 35 Q 191 39 193 45 Q 196 55 194 59 Q 192 64 189 64 Q 183 64 179 59 Q 172 52 166 45" fill="#b20000" /><path d="M 163 103 Q 149 105 138 110 Q 134 111 129 110 Q 125 109 122 106 Q 118 103 122 102 Q 188 87 219 79 Q 234 75 247 83 Q 251 86 250 88 Q 249 91 245 91 Q 193 96 177 99" fill="#cc0000" /><path d="M 169 138 L 153 164 Q 129 197 115 200 Q 112 199 114 198 Q 134 174 141 163 Q 142 163 142 162 Q 168 120 163 103 L 177 99 Q 183 101 184 106 Q 185 108 183 110 Q 181 113 177 123 L 173 131" fill="#e50000" /><path d="M 177 123 Q 186 124 192 124 Q 205 122 215 130 L 187 133 Q 177 133 173 131" fill="#ff0000" /><path d="M 215 130 Q 222 136 222 139 Q 221 141 218 143 Q 211 149 207 174 Q 200 205 193 223 Q 188 232 180 238 L 179 210 Q 193 187 197 150 Q 198 146 198 143 Q 197 134 187 133" fill="#ff0000" /><path d="M 180 238 Q 171 244 167 242 Q 164 241 163 236 Q 160 225 148 214 Q 144 211 146 209 Q 147 207 156 212 Q 168 218 172 217 Q 174 216 179 210" fill="#ff0000" /></svg>