<svg xmlns="http://www.w3.org/2000/svg" xmlns:xlink="http://www.w3.org/1999/xlink" width="270" height="270"><path d="M 0 0 L 270 270 M 270 0 L 0 270 M 135 0 L 135 270 M 0 135 L 270 135" stroke="#CCCCCC" /><path d="M 78 34 L 77 30 Q 76 27 78 25 Q 80 24 99 28 Q 107 30 109 34 Q 112 43 111 47 Q 110 51 107 51 Q 102 52 98 49 Q 92 43 87 38" fill="#CCCCCC"/><path d="M 47 78 L 97 65 Q 103 63 111 66 Q 116 68 116 72 Q 116 74 111 75 Q 74 82 44 93 Q 29 98 19 91 Q 14 88 15 84 Q 16 82 20 82" fill="#CCCCCC"/><path d="M 65 105 L 72 103 Q 89 95 96 96 Q 102 97 103 99 Q 105 101 103 103 Q 102 103 97 105 Q 87 108 79 111 Q 62 115 55 111 Q 50 108 57 106" fill="#CCCCCC"/><path d="M 66 130 L 74 128 Q 92 120 98 121 Q 104 122 106 124 Q 107 126 105 128 Q 104 129 99 130 Q 88 133 77 137 Q 66 140 56 136 Q 51 133 58 131" fill="#CCCCCC"/><path d="M 67 209 L 64 218 Q 63 222 58 216 Q 54 211 53 204 Q 48 178 41 162 Q 39 158 41 156 Q 41 155 45 156 Q 52 157 55 159 L 59 166 Q 59 171 62 190 L 63 198" fill="#CCCCCC"/><path d="M 55 159 Q 65 156 82 150 Q 92 143 98 146 Q 105 151 110 153 Q 116 157 110 163 L 90 160 Q 89 158 82 159 Q 73 162 62 165 Q 60 165 59 166" fill="#CCCCCC"/><path d="M 88 183 Q 89 175 90 168 Q 92 161 90 160 L 110 163 Q 105 168 101 183" fill="#CCCCCC"/><path d="M 62 190 Q 73 187 87 183 Q 87 183 88 183 L 101 183 Q 106 186 106 188 Q 106 190 103 191 Q 79 194 68 198 Q 65 198 63 198" fill="#CCCCCC"/><path d="M 162 63 Q 149 65 139 61 Q 131 57 141 55 Q 156 52 168 48 Q 180 44 190 40 Q 198 36 206 37 Q 214 39 216 42 Q 217 44 215 46 Q 214 48 174 59" fill="#CCCCCC"/><path d="M 126 95 L 125 92 Q 125 89 127 88 Q 128 88 132 89 Q 150 94 152 99 Q 153 107 152 111 Q 150 115 147 115 Q 143 114 140 111 Q 136 105 133 101" fill="#CCCCCC"/><path d="M 210 77 L 209 72 Q 208 69 211 69 Q 214 68 221 71 Q 228 75 231 79 Q 234 83 228 86 Q 222 89 218 93 Q 198 105 195 107 Q 190 108 193 104 Q 204 87 207 82" fill="#CCCCCC"/><path d="M 148 140 L 130 146 Q 126 147 121 146 Q 116 145 113 142 Q 109 138 114 137 Q 143 131 169 127 L 184 124 Q 206 119 221 116 Q 236 111 250 120 Q 255 123 254 126 Q 252 129 237 129 Q 205 131 184 134 L 169 137" fill="#CCCCCC"/><path d="M 169 127 Q 169 103 169 85 Q 169 82 169 80 Q 165 71 162 63 L 174 59 Q 178 61 184 65 Q 189 68 188 72 Q 184 91 184 124 L 184 134 Q 183 171 184 183 Q 185 228 180 239 Q 179 244 176 245 Q 174 245 173 244 Q 172 242 171 242 Q 168 234 169 137" fill="#CCCCCC"/><path d="M 78 34 L 77 30 Q 76 27 78 25 Q 80 24 99 28 Q 107 30 109 34 Q 112 43 111 47 Q 110 51 107 51 Q 102 52 98 49 Q 92 43 87 38" fill="#000000" /><path d="M 47 78 L 97 65 Q 103 63 111 66 Q 116 68 116 72 Q 116 74 111 75 Q 74 82 44 93 Q 29 98 19 91 Q 14 88 15 84 Q 16 82 20 82" fill="#170000" /><path d="M 65 105 L 72 103 Q 89 95 96 96 Q 102 97 103 99 Q 105 101 103 103 Q 102 103 97 105 Q 87 108 79 111 Q 62 115 55 111 Q 50 108 57 106" fill="#2e0000" /><path d="M 66 130 L 74 128 Q 92 120 98 121 Q 104 122 106 124 Q 107 126 105 128 Q 104 129 99 130 Q 88 133 77 137 Q 66 140 56 136 Q 51 133 58 131" fill="#450000" /><path d="M 67 209 L 64 218 Q 63 222 58 216 Q 54 211 53 204 Q 48 178 41 162 Q 39 158 41 156 Q 41 155 45 156 Q 52 157 55 159 L 59 166 Q 59 171 62 190 L 63 198" fill="#5c0000" /><path d="M 55 159 Q 65 156 82 150 Q 92 143 98 146 Q 105 151 110 153 Q 116 157 110 163 L 90 160 Q 89 158 82 159 Q 73 162 62 165 Q 60 165 59 166" fill="#730000" /><path d="M 88 183 Q 89 175 90 168 Q 92 161 90 160 L 110 163 Q 105 168 101 183" fill="#730000" /><path d="M 62 190 Q 73 187 87 183 Q 87 183 88 183 L 101 183 Q 106 186 106 188 Q 106 190 103 191 Q 79 194 68 198 Q 65 198 63 198" fill="#8b0000" /><path d="M 162 63 Q 149 65 139 61 Q 131 57 141 55 Q 156 52 168 48 Q 180 44 190 40 Q 198 36 206 37 Q 214 39 216 42 Q 217 44 215 46 Q 214 48 174 59" fill="#a20000" /><path d="M 126 95 L 125 92 Q 125 89 127 88 Q 128 88 132 89 Q 150 94 152 99 Q 153 107 152 111 Q 150 115 147 115 Q 143 114 140 111 Q 136 105 133 101" fill="#b90000" /><path d="M 210 77 L 209 72 Q 208 69 211 69 Q 214 68 221 71 Q 228 75 231 79 Q 234 83 228 86 Q 222 89 218 93 Q 198 105 195 107 Q 190 108 193 104 Q 204 87 207 82" fill="#d00000" /><path d="M 148 140 L 130 146 Q 126 147 121 146 Q 116 145 113 142 Q 109 138 114 137 Q 143 131 169 127 L 184 124 Q 206 119 221 116 Q 236 111 250 120 Q 255 123 254 126 Q 252 129 237 129 Q 205 131 184 134 L 169 137" fill="#e70000" /><path d="M 169 127 Q 169 103 169 85 Q 169 82 169 80 Q 165 71 162 63 L 174 59 Q 178 61 184 65 Q 189 68 188 72 Q 184 91 184 124 L 184 134 Q 183 171 184 183 Q 185 228 180 239 Q 179 244 176 245 Q 174 245 173 244 Q 172 242 171 242 Q 168 234 169 137" fill="#ff0000" /></svg>