<svg xmlns="http://www.w3.org/2000/svg" xmlns:xlink="http://www.w3.org/1999/xlink" width="270" height="270"><path d="M 0 0 L 270 270 M 270 0 L 0 270 M 135 0 L 135 270 M 0 135 L 270 135" stroke="#CCCCCC" /><path d="M 78 26 L 77 23 Q 76 20 78 18 Q 79 18 84 18 Q 109 24 112 32 Q 114 40 113 44 Q 112 48 109 48 Q 105 48 101 45 Q 93 38 85 31" fill="#000000" /><path d="M 44 75 L 103 62 Q 109 60 116 63 Q 121 66 121 69 Q 120 71 116 72 Q 77 78 42 89 Q 31 93 20 86 Q 16 83 17 80 Q 17 78 21 77" fill="#150000" /><path d="M 64 107 L 69 105 Q 74 104 78 102 Q 85 98 92 98 Q 100 99 102 102 Q 103 104 101 106 Q 100 107 97 108 Q 89 110 82 112 Q 66 117 56 113 Q 49 110 58 108" fill="#2a0000" /><path d="M 63 134 L 68 133 Q 73 131 77 130 Q 84 126 91 127 Q 99 128 100 131 Q 102 133 100 135 Q 99 136 95 137 Q 86 139 78 141 Q 66 145 55 140 Q 49 137 57 135" fill="#3f0000" /><path d="M 65 219 L 64 223 Q 63 228 58 222 Q 54 218 52 210 Q 48 187 40 173 Q 38 169 39 167 Q 40 166 43 167 Q 51 167 54 169 L 58 176 Q 58 182 62 202 L 64 211" fill="#550000" /><path d="M 54 169 Q 62 166 79 160 Q 92 152 97 155 Q 104 159 109 162 Q 115 165 109 172 L 90 169 Q 88 167 82 169 Q 61 174 58 176" fill="#6a0000" /><path d="M 87 193 Q 89 185 90 178 Q 91 170 90 169 L 109 172 Q 104 177 100 194" fill="#6a0000" /><path d="M 62 202 Q 72 199 84 194 Q 85 193 87 193 L 100 194 Q 105 197 105 199 Q 105 201 103 202 Q 77 207 64 211" fill="#7f0000" /><path d="M 164 78 Q 163 78 162 79 Q 146 83 135 78 Q 128 74 138 71 Q 152 69 163 66 L 178 61 Q 192 55 200 56 Q 208 58 210 61 Q 211 63 209 65 Q 208 65 177 75" fill="#940000" /><path d="M 164 90 L 164 78 L 163 66 Q 164 66 164 66 Q 164 47 163 30 Q 163 25 158 18 Q 156 14 158 12 Q 160 10 164 11 Q 171 12 180 17 Q 185 21 184 24 Q 179 39 178 61 L 177 75 Q 176 87 175 100 L 164 102" fill="#aa0000" /><path d="M 175 100 Q 208 93 227 88 Q 237 86 249 94 Q 253 97 252 101 Q 251 103 246 103 Q 246 103 246 103 Q 178 103 125 120 Q 121 121 116 120 Q 112 119 108 116 Q 105 112 110 111 Q 138 106 164 102" fill="#bf0000" /><path d="M 162 149 L 137 156 Q 133 158 129 157 Q 124 156 121 152 Q 117 149 122 148 Q 149 143 172 138 Q 175 137 179 137 L 194 134 Q 198 132 202 132 Q 218 126 234 135 Q 238 138 237 140 Q 235 143 223 143 Q 206 144 193 145 L 180 147" fill="#d40000" /><path d="M 179 137 Q 179 126 174 116 Q 171 112 172 111 Q 174 109 179 110 Q 187 112 194 118 Q 198 121 196 126 Q 194 130 194 134 L 193 145 Q 193 187 196 225 Q 195 247 187 256 Q 183 259 179 255 L 178 227 Q 183 223 180 147" fill="#e90000" /><path d="M 179 255 Q 174 246 158 229 Q 155 227 155 225 Q 155 223 158 224 Q 175 228 178 227" fill="#e90000" /><path d="M 128 173 L 128 170 Q 129 167 130 166 Q 132 166 135 167 Q 153 176 154 183 Q 154 191 153 194 Q 151 197 148 197 Q 144 196 142 192 Q 138 185 133 179" fill="#ff0000" /></svg>