<svg xmlns="http://www.w3.org/2000/svg" xmlns:xlink="http://www.w3.org/1999/xlink" width="270" height="270"><path d="M 0 0 L 270 270 M 270 0 L 0 270 M 135 0 L 135 270 M 0 135 L 270 135" stroke="#CCCCCC" /><path d="M 75 22 L 74 20 Q 74 16 75 15 Q 77 14 81 15 Q 105 19 108 27 Q 111 35 110 39 Q 108 43 106 43 Q 101 44 97 40 Q 90 34 83 28" fill="#000000" /><path d="M 43 75 L 107 57 Q 114 56 121 59 Q 126 61 126 64 Q 125 66 121 67 Q 80 74 39 89 Q 28 93 17 86 Q 13 83 14 81 Q 15 78 18 78" fill="#150000" /><path d="M 72 100 L 79 98 Q 100 91 103 91 Q 111 92 113 95 Q 114 97 112 99 Q 111 100 107 101 Q 97 104 89 106 Q 71 111 63 107 Q 56 103 65 101" fill="#2a0000" /><path d="M 71 129 L 78 127 Q 97 119 102 120 Q 110 120 112 123 Q 113 125 111 127 Q 110 128 106 130 Q 95 133 85 136 Q 73 141 62 137 Q 55 134 64 131" fill="#3f0000" /><path d="M 70 211 L 69 214 Q 67 219 62 213 Q 59 209 58 203 Q 52 181 45 169 Q 43 165 44 163 Q 45 161 48 162 Q 58 163 61 165 L 63 172 Q 64 178 67 196 L 69 204" fill="#550000" /><path d="M 61 165 Q 74 162 87 157 Q 97 149 103 153 Q 109 157 114 160 Q 119 163 114 169 L 96 166 Q 94 163 88 165 Q 75 169 63 172" fill="#6a0000" /><path d="M 114 169 Q 108 174 103 191 L 91 189 Q 93 181 95 174 Q 97 167 96 166" fill="#6a0000" /><path d="M 67 196 Q 77 194 89 190 Q 90 189 91 189 L 103 191 Q 108 193 108 195 Q 108 197 105 198 Q 84 201 74 204 Q 71 204 69 204" fill="#7f0000" /><path d="M 139 40 L 139 37 Q 138 34 140 33 Q 140 33 141 33 Q 152 33 162 40 Q 166 43 167 50 Q 168 54 166 57 Q 164 60 160 59 Q 153 56 143 43" fill="#940000" /><path d="M 207 22 L 206 17 Q 204 14 207 12 Q 210 11 217 14 Q 225 17 229 21 Q 233 25 228 29 Q 221 33 217 38 Q 196 57 188 64 Q 183 65 185 61 Q 201 34 204 27" fill="#aa0000" /><path d="M 162 90 Q 158 91 156 91 Q 143 95 131 90 Q 124 86 133 84 Q 158 80 178 74 Q 205 64 212 65 Q 219 67 221 69 Q 222 72 220 73 Q 219 75 177 86" fill="#bf0000" /><path d="M 167 122 L 167 122 Q 152 128 140 122 Q 134 118 142 117 Q 155 115 167 112 L 182 107 Q 199 99 206 101 Q 213 102 215 105 Q 216 107 214 109 Q 213 110 203 113 Q 192 115 181 119" fill="#d40000" /><path d="M 152 156 L 139 160 Q 135 162 130 160 Q 125 159 122 156 Q 118 152 123 151 Q 146 147 167 144 L 181 141 Q 212 135 229 131 Q 239 129 252 138 Q 256 141 255 144 Q 253 146 239 146 Q 203 147 181 152 L 167 154" fill="#e90000" /><path d="M 167 144 Q 167 132 167 122 L 167 112 Q 167 102 162 90 L 177 86 Q 179 87 181 89 Q 185 91 184 96 Q 183 101 182 107 L 181 119 Q 181 131 181 141 L 181 152 Q 181 187 182 199 Q 182 219 180 239 Q 179 254 175 257 Q 173 258 171 256 L 171 255 Q 166 246 167 154" fill="#ff0000" /></svg>