<svg xmlns="http://www.w3.org/2000/svg" xmlns:xlink="http://www.w3.org/1999/xlink" width="270" height="270"><path d="M 0 0 L 270 270 M 270 0 L 0 270 M 135 0 L 135 270 M 0 135 L 270 135" stroke="#CCCCCC" /><path d="M 75 43 L 74 40 Q 73 37 75 36 Q 76 35 80 36 Q 110 44 113 52 Q 115 60 114 65 Q 113 68 110 68 Q 106 69 102 65 Q 92 56 82 49" fill="#CCCCCC"/><path d="M 45 100 L 98 86 Q 104 84 111 87 Q 116 89 116 93 Q 115 94 111 95 Q 75 101 42 114 Q 31 118 20 111 Q 16 108 16 106 Q 17 103 21 103" fill="#CCCCCC"/><path d="M 63 127 L 69 125 Q 88 118 92 118 Q 100 119 102 121 Q 103 123 101 125 Q 100 126 96 127 Q 89 130 83 132 Q 64 137 55 134 Q 48 131 57 128" fill="#CCCCCC"/><path d="M 64 154 L 68 153 Q 72 152 75 150 Q 82 146 90 146 Q 97 147 100 149 Q 101 151 99 154 Q 99 154 96 155 Q 89 157 83 160 Q 69 166 58 162 Q 51 159 59 155" fill="#CCCCCC"/><path d="M 60 232 L 59 236 Q 57 241 52 235 Q 48 231 47 224 Q 42 201 35 187 Q 33 183 34 182 Q 35 180 38 181 Q 46 182 49 183 L 53 190 Q 54 196 57 215 L 59 223" fill="#CCCCCC"/><path d="M 49 183 Q 72 178 80 172 Q 82 171 84 171 Q 85 170 102 179 Q 107 183 102 189 L 82 186 Q 80 184 75 185 Q 69 187 53 190" fill="#CCCCCC"/><path d="M 102 189 Q 97 194 92 211 L 79 208 Q 81 201 82 194 Q 84 187 82 186" fill="#CCCCCC"/><path d="M 57 215 Q 65 212 76 209 Q 78 208 79 208 L 92 211 Q 97 214 97 215 Q 96 218 94 218 Q 73 220 63 223 Q 61 223 59 223" fill="#CCCCCC"/><path d="M 123 81 L 123 78 Q 122 75 124 75 Q 126 74 134 78 Q 147 82 149 92 Q 149 96 147 99 Q 144 101 141 100 Q 133 97 126 85" fill="#CCCCCC"/><path d="M 205 57 L 205 52 Q 204 48 208 48 Q 211 48 217 52 Q 224 57 227 62 Q 230 67 223 69 Q 217 71 201 80 Q 194 83 183 87 Q 178 88 181 83 Q 197 68 201 62" fill="#CCCCCC"/><path d="M 149 130 Q 140 138 129 140 Q 123 142 120 141 Q 117 140 116 139 Q 117 138 135 129 Q 148 118 153 101 Q 160 54 148 34 Q 146 30 149 28 Q 151 26 159 28 Q 171 32 177 38 Q 180 41 178 46 Q 174 52 167 95 L 165 100 Q 159 119 151 127" fill="#CCCCCC"/><path d="M 167 95 Q 200 102 204 112 Q 209 121 206 124 Q 205 127 203 127 Q 200 126 196 122 Q 180 110 168 102 Q 166 101 165 100" fill="#CCCCCC"/><path d="M 114 160 L 114 157 Q 114 154 116 154 Q 118 153 122 155 Q 122 155 123 155 Q 138 159 140 171 Q 140 176 139 179 Q 136 181 133 180 Q 125 176 118 164" fill="#CCCCCC"/><path d="M 200 145 L 200 140 Q 200 136 203 137 Q 207 137 212 141 Q 217 147 220 152 Q 221 157 215 158 Q 211 159 194 165 Q 188 167 178 170 Q 173 169 177 166 Q 192 152 196 149" fill="#CCCCCC"/><path d="M 163 184 Q 163 184 162 186 Q 152 214 136 223 Q 126 229 116 232 Q 108 235 104 235 Q 96 235 102 231 Q 123 220 130 212 Q 131 210 132 209 Q 158 179 150 133 Q 149 131 149 130 L 151 127 Q 155 126 164 130 Q 171 133 173 135 Q 174 138 173 140 Q 171 142 171 149 Q 168 165 165 177" fill="#CCCCCC"/><path d="M 179 190 L 193 201 Q 212 218 250 234 Q 253 236 253 237 Q 253 238 251 238 Q 242 240 217 242 Q 209 243 205 238 Q 181 210 163 184 L 165 177" fill="#CCCCCC"/><path d="M 75 43 L 74 40 Q 73 37 75 36 Q 76 35 80 36 Q 110 44 113 52 Q 115 60 114 65 Q 113 68 110 68 Q 106 69 102 65 Q 92 56 82 49" fill="#000000" /><path d="M 45 100 L 98 86 Q 104 84 111 87 Q 116 89 116 93 Q 115 94 111 95 Q 75 101 42 114 Q 31 118 20 111 Q 16 108 16 106 Q 17 103 21 103" fill="#120000" /><path d="M 63 127 L 69 125 Q 88 118 92 118 Q 100 119 102 121 Q 103 123 101 125 Q 100 126 96 127 Q 89 130 83 132 Q 64 137 55 134 Q 48 131 57 128" fill="#240000" /><path d="M 64 154 L 68 153 Q 72 152 75 150 Q 82 146 90 146 Q 97 147 100 149 Q 101 151 99 154 Q 99 154 96 155 Q 89 157 83 160 Q 69 166 58 162 Q 51 159 59 155" fill="#360000" /><path d="M 60 232 L 59 236 Q 57 241 52 235 Q 48 231 47 224 Q 42 201 35 187 Q 33 183 34 182 Q 35 180 38 181 Q 46 182 49 183 L 53 190 Q 54 196 57 215 L 59 223" fill="#480000" /><path d="M 49 183 Q 72 178 80 172 Q 82 171 84 171 Q 85 170 102 179 Q 107 183 102 189 L 82 186 Q 80 184 75 185 Q 69 187 53 190" fill="#5b0000" /><path d="M 102 189 Q 97 194 92 211 L 79 208 Q 81 201 82 194 Q 84 187 82 186" fill="#5b0000" /><path d="M 57 215 Q 65 212 76 209 Q 78 208 79 208 L 92 211 Q 97 214 97 215 Q 96 218 94 218 Q 73 220 63 223 Q 61 223 59 223" fill="#6d0000" /><path d="M 123 81 L 123 78 Q 122 75 124 75 Q 126 74 134 78 Q 147 82 149 92 Q 149 96 147 99 Q 144 101 141 100 Q 133 97 126 85" fill="#7f0000" /><path d="M 205 57 L 205 52 Q 204 48 208 48 Q 211 48 217 52 Q 224 57 227 62 Q 230 67 223 69 Q 217 71 201 80 Q 194 83 183 87 Q 178 88 181 83 Q 197 68 201 62" fill="#910000" /><path d="M 149 130 Q 140 138 129 140 Q 123 142 120 141 Q 117 140 116 139 Q 117 138 135 129 Q 148 118 153 101 Q 160 54 148 34 Q 146 30 149 28 Q 151 26 159 28 Q 171 32 177 38 Q 180 41 178 46 Q 174 52 167 95 L 165 100 Q 159 119 151 127" fill="#a30000" /><path d="M 167 95 Q 200 102 204 112 Q 209 121 206 124 Q 205 127 203 127 Q 200 126 196 122 Q 180 110 168 102 Q 166 101 165 100" fill="#b60000" /><path d="M 114 160 L 114 157 Q 114 154 116 154 Q 118 153 122 155 Q 122 155 123 155 Q 138 159 140 171 Q 140 176 139 179 Q 136 181 133 180 Q 125 176 118 164" fill="#c80000" /><path d="M 200 145 L 200 140 Q 200 136 203 137 Q 207 137 212 141 Q 217 147 220 152 Q 221 157 215 158 Q 211 159 194 165 Q 188 167 178 170 Q 173 169 177 166 Q 192 152 196 149" fill="#da0000" /><path d="M 163 184 Q 163 184 162 186 Q 152 214 136 223 Q 126 229 116 232 Q 108 235 104 235 Q 96 235 102 231 Q 123 220 130 212 Q 131 210 132 209 Q 158 179 150 133 Q 149 131 149 130 L 151 127 Q 155 126 164 130 Q 171 133 173 135 Q 174 138 173 140 Q 171 142 171 149 Q 168 165 165 177" fill="#ec0000" /><path d="M 179 190 L 193 201 Q 212 218 250 234 Q 253 236 253 237 Q 253 238 251 238 Q 242 240 217 242 Q 209 243 205 238 Q 181 210 163 184 L 165 177" fill="#ff0000" /></svg>