<svg xmlns="http://www.w3.org/2000/svg" xmlns:xlink="http://www.w3.org/1999/xlink" width="270" height="270"><path d="M 0 0 L 270 270 M 270 0 L 0 270 M 135 0 L 135 270 M 0 135 L 270 135" stroke="#CCCCCC" /><path d="M 63 31 L 62 28 Q 61 24 62 23 Q 64 23 68 23 Q 92 27 95 36 Q 98 44 97 48 Q 95 52 93 52 Q 88 52 85 49 Q 77 42 70 36" fill="#CCCCCC"/><path d="M 35 90 L 84 77 Q 90 76 97 79 Q 102 81 101 84 Q 101 86 97 87 Q 62 93 36 103 Q 25 106 15 100 Q 11 97 12 95 Q 12 92 16 92" fill="#CCCCCC"/><path d="M 57 115 L 63 113 Q 82 106 86 106 Q 92 107 94 110 Q 95 111 93 113 Q 93 114 88 115 Q 78 118 69 122 Q 58 126 48 122 Q 42 119 50 117" fill="#CCCCCC"/><path d="M 55 143 L 60 141 Q 76 135 82 135 Q 89 135 90 138 Q 92 140 90 142 Q 89 142 86 144 Q 78 146 71 148 Q 55 153 47 150 Q 41 147 49 144" fill="#CCCCCC"/><path d="M 51 223 L 49 227 Q 48 231 44 226 Q 40 221 39 214 Q 34 191 27 176 Q 25 172 26 171 Q 27 170 30 171 Q 39 172 41 174 L 43 180 Q 44 187 48 206 L 49 213" fill="#CCCCCC"/><path d="M 41 174 Q 58 169 68 162 Q 69 161 71 161 Q 73 160 87 167 Q 93 170 88 176 L 70 174 Q 69 172 63 174 Q 44 179 43 180" fill="#CCCCCC"/><path d="M 68 198 Q 69 190 71 184 Q 72 176 70 174 L 88 176 Q 83 182 80 200" fill="#CCCCCC"/><path d="M 48 206 Q 55 203 66 199 Q 66 198 68 198 L 80 200 Q 84 202 84 203 Q 84 205 81 206 Q 61 210 52 213 Q 51 213 49 213" fill="#CCCCCC"/><path d="M 123 88 L 123 101 Q 123 181 93 222 Q 85 235 82 235 Q 80 237 80 234 Q 80 232 81 231 Q 98 198 105 173 Q 113 140 111 99 Q 110 98 111 97 Q 109 75 105 71 Q 103 68 105 66 Q 108 64 113 66 Q 119 68 123 72 L 124 79" fill="#CCCCCC"/><path d="M 123 72 Q 178 61 197 53 Q 206 48 210 50 Q 223 56 226 60 L 203 64 Q 201 62 198 63 Q 163 71 128 78 Q 126 79 124 79" fill="#CCCCCC"/><path d="M 226 60 Q 231 63 227 67 Q 217 77 216 87 Q 208 140 216 186 L 216 219 Q 194 182 204 71 Q 205 67 203 64" fill="#CCCCCC"/><path d="M 216 186 Q 220 203 234 217 L 257 237 Q 258 242 255 244 Q 250 246 241 242 Q 229 235 216 219" fill="#CCCCCC"/><path d="M 234 217 Q 238 222 242 216 Q 246 209 250 192 Q 251 188 253 190 Q 254 192 254 195 Q 254 217 257 237" fill="#CCCCCC"/><path d="M 148 115 Q 135 118 131 118 Q 130 117 131 115 Q 168 100 168 91 Q 168 89 170 88 Q 177 87 189 97 Q 192 99 191 102 Q 190 103 186 103 Q 183 104 157 112" fill="#CCCCCC"/><path d="M 139 177 Q 139 179 139 181 Q 137 184 134 180 Q 132 177 131 172 Q 129 155 124 145 Q 123 142 124 141 Q 124 140 127 140 Q 132 142 134 143 L 136 149 Q 139 170 139 172" fill="#CCCCCC"/><path d="M 151 145 Q 146 147 141 148 Q 138 149 136 149 L 134 143 Q 142 141 151 139 L 162 136 Q 181 129 183 130 Q 193 135 196 137 Q 199 140 196 144 L 179 140 Q 176 139 162 143" fill="#CCCCCC"/><path d="M 176 162 Q 180 143 179 140 L 196 144 Q 190 148 185 163" fill="#CCCCCC"/><path d="M 161 166 Q 170 163 176 162 L 185 163 Q 189 163 190 166 Q 192 169 187 169 Q 175 171 161 174 L 152 176 Q 147 176 144 177 Q 141 177 139 177 L 139 172 Q 145 170 152 169" fill="#CCCCCC"/><path d="M 151 154 L 151 145 L 151 139 Q 150 120 148 115 L 157 112 Q 164 117 162 122 Q 162 129 162 136 L 162 143 Q 161 154 161 166 L 161 174 Q 161 187 161 202 L 152 204 Q 152 188 152 176 L 152 169" fill="#CCCCCC"/><path d="M 179 203 L 176 204 Q 136 221 132 225 Q 129 226 127 226 Q 120 221 115 218 Q 113 215 114 213 Q 114 211 117 211 Q 123 211 128 210 Q 140 207 152 204 L 161 202 Q 170 199 179 197 L 181 202" fill="#CCCCCC"/><path d="M 179 197 L 175 187 Q 176 185 177 185 Q 178 185 180 186 Q 188 194 196 203 Q 202 212 201 218 Q 200 224 198 225 Q 196 227 195 226 Q 192 225 181 202" fill="#CCCCCC"/><path d="M 63 31 L 62 28 Q 61 24 62 23 Q 64 23 68 23 Q 92 27 95 36 Q 98 44 97 48 Q 95 52 93 52 Q 88 52 85 49 Q 77 42 70 36" fill="#000000" /><path d="M 35 90 L 84 77 Q 90 76 97 79 Q 102 81 101 84 Q 101 86 97 87 Q 62 93 36 103 Q 25 106 15 100 Q 11 97 12 95 Q 12 92 16 92" fill="#110000" /><path d="M 57 115 L 63 113 Q 82 106 86 106 Q 92 107 94 110 Q 95 111 93 113 Q 93 114 88 115 Q 78 118 69 122 Q 58 126 48 122 Q 42 119 50 117" fill="#220000" /><path d="M 55 143 L 60 141 Q 76 135 82 135 Q 89 135 90 138 Q 92 140 90 142 Q 89 142 86 144 Q 78 146 71 148 Q 55 153 47 150 Q 41 147 49 144" fill="#330000" /><path d="M 51 223 L 49 227 Q 48 231 44 226 Q 40 221 39 214 Q 34 191 27 176 Q 25 172 26 171 Q 27 170 30 171 Q 39 172 41 174 L 43 180 Q 44 187 48 206 L 49 213" fill="#440000" /><path d="M 41 174 Q 58 169 68 162 Q 69 161 71 161 Q 73 160 87 167 Q 93 170 88 176 L 70 174 Q 69 172 63 174 Q 44 179 43 180" fill="#550000" /><path d="M 68 198 Q 69 190 71 184 Q 72 176 70 174 L 88 176 Q 83 182 80 200" fill="#550000" /><path d="M 48 206 Q 55 203 66 199 Q 66 198 68 198 L 80 200 Q 84 202 84 203 Q 84 205 81 206 Q 61 210 52 213 Q 51 213 49 213" fill="#660000" /><path d="M 123 88 L 123 101 Q 123 181 93 222 Q 85 235 82 235 Q 80 237 80 234 Q 80 232 81 231 Q 98 198 105 173 Q 113 140 111 99 Q 110 98 111 97 Q 109 75 105 71 Q 103 68 105 66 Q 108 64 113 66 Q 119 68 123 72 L 124 79" fill="#770000" /><path d="M 123 72 Q 178 61 197 53 Q 206 48 210 50 Q 223 56 226 60 L 203 64 Q 201 62 198 63 Q 163 71 128 78 Q 126 79 124 79" fill="#880000" /><path d="M 226 60 Q 231 63 227 67 Q 217 77 216 87 Q 208 140 216 186 L 216 219 Q 194 182 204 71 Q 205 67 203 64" fill="#880000" /><path d="M 216 186 Q 220 203 234 217 L 257 237 Q 258 242 255 244 Q 250 246 241 242 Q 229 235 216 219" fill="#880000" /><path d="M 234 217 Q 238 222 242 216 Q 246 209 250 192 Q 251 188 253 190 Q 254 192 254 195 Q 254 217 257 237" fill="#880000" /><path d="M 148 115 Q 135 118 131 118 Q 130 117 131 115 Q 168 100 168 91 Q 168 89 170 88 Q 177 87 189 97 Q 192 99 191 102 Q 190 103 186 103 Q 183 104 157 112" fill="#990000" /><path d="M 139 177 Q 139 179 139 181 Q 137 184 134 180 Q 132 177 131 172 Q 129 155 124 145 Q 123 142 124 141 Q 124 140 127 140 Q 132 142 134 143 L 136 149 Q 139 170 139 172" fill="#aa0000" /><path d="M 151 145 Q 146 147 141 148 Q 138 149 136 149 L 134 143 Q 142 141 151 139 L 162 136 Q 181 129 183 130 Q 193 135 196 137 Q 199 140 196 144 L 179 140 Q 176 139 162 143" fill="#bb0000" /><path d="M 176 162 Q 180 143 179 140 L 196 144 Q 190 148 185 163" fill="#bb0000" /><path d="M 161 166 Q 170 163 176 162 L 185 163 Q 189 163 190 166 Q 192 169 187 169 Q 175 171 161 174 L 152 176 Q 147 176 144 177 Q 141 177 139 177 L 139 172 Q 145 170 152 169" fill="#cc0000" /><path d="M 151 154 L 151 145 L 151 139 Q 150 120 148 115 L 157 112 Q 164 117 162 122 Q 162 129 162 136 L 162 143 Q 161 154 161 166 L 161 174 Q 161 187 161 202 L 152 204 Q 152 188 152 176 L 152 169" fill="#dd0000" /><path d="M 179 203 L 176 204 Q 136 221 132 225 Q 129 226 127 226 Q 120 221 115 218 Q 113 215 114 213 Q 114 211 117 211 Q 123 211 128 210 Q 140 207 152 204 L 161 202 Q 170 199 179 197 L 181 202" fill="#ee0000" /><path d="M 179 197 L 175 187 Q 176 185 177 185 Q 178 185 180 186 Q 188 194 196 203 Q 202 212 201 218 Q 200 224 198 225 Q 196 227 195 226 Q 192 225 181 202" fill="#ff0000" /></svg>