<svg xmlns="http://www.w3.org/2000/svg" xmlns:xlink="http://www.w3.org/1999/xlink" width="270" height="270"><path d="M 0 0 L 270 270 M 270 0 L 0 270 M 135 0 L 135 270 M 0 135 L 270 135" stroke="#CCCCCC" /><path d="M 71 53 L 70 50 Q 69 46 70 45 Q 72 44 77 45 Q 98 48 101 55 Q 104 64 103 68 Q 102 72 98 72 Q 94 72 90 69 Q 84 64 79 59" fill="#000000" /><path d="M 41 106 L 82 95 Q 88 93 95 95 Q 100 98 100 101 Q 100 103 96 104 Q 66 110 38 121 Q 28 126 17 119 Q 12 116 13 113 Q 14 111 17 110" fill="#0f0000" /><path d="M 56 133 L 63 131 Q 81 124 85 124 Q 91 125 93 127 Q 94 129 93 131 Q 92 132 88 133 Q 78 136 68 139 Q 57 143 48 140 Q 42 137 49 135" fill="#1f0000" /><path d="M 57 159 L 63 157 Q 69 155 74 153 Q 80 150 86 150 Q 92 151 94 153 Q 95 155 94 157 Q 88 160 73 164 Q 56 169 48 166 Q 42 162 49 161" fill="#2f0000" /><path d="M 58 234 L 57 237 Q 56 241 52 236 Q 48 232 47 226 Q 42 207 35 195 Q 32 191 34 189 Q 34 188 37 189 Q 42 189 45 190 L 51 196 Q 52 200 56 219 L 57 227" fill="#3f0000" /><path d="M 45 190 Q 60 186 69 182 Q 82 175 86 177 Q 92 181 97 183 Q 103 186 98 193 L 79 190 Q 78 188 72 189 Q 65 191 51 196" fill="#4f0000" /><path d="M 78 211 Q 79 204 79 198 Q 81 191 79 190 L 98 193 Q 93 197 90 212" fill="#4f0000" /><path d="M 56 219 Q 64 216 76 211 Q 77 211 78 211 L 90 212 Q 95 214 95 216 Q 95 218 92 219 Q 71 223 61 226 Q 59 227 57 227" fill="#5f0000" /><path d="M 144 85 L 143 82 Q 143 80 144 79 Q 148 78 161 82 Q 167 85 168 88 Q 169 95 168 99 Q 167 102 164 102 Q 160 102 150 90" fill="#6f0000" /><path d="M 217 67 L 216 63 Q 215 58 219 58 Q 225 58 231 62 Q 236 67 238 71 Q 239 74 235 75 Q 224 82 203 98 Q 201 100 199 99 Q 198 98 199 96 Q 210 81 215 71" fill="#7f0000" /><path d="M 171 131 Q 169 131 168 132 Q 155 135 146 130 Q 140 127 148 125 Q 165 122 180 119 L 188 116 Q 198 113 208 109 Q 215 106 222 107 Q 228 108 230 111 Q 231 113 229 115 Q 227 117 188 127" fill="#8f0000" /><path d="M 188 146 L 190 177 Q 191 200 186 203 Q 182 206 179 201 Q 174 189 174 185 Q 178 172 179 141 L 180 119 Q 180 102 180 81 Q 181 54 171 37 Q 169 33 173 32 Q 181 28 197 41 Q 200 45 199 48 Q 191 64 191 76 Q 189 95 188 116 L 188 127 Q 188 134 188 141 L 188 146" fill="#9f0000" /><path d="M 179 141 Q 178 142 176 145 Q 159 171 140 179 Q 138 181 136 180 Q 134 179 136 177 Q 163 151 171 131 L 180 119" fill="#af0000" /><path d="M 188 141 Q 188 140 190 141 Q 230 149 235 162 Q 240 172 238 175 Q 236 178 234 178 Q 231 177 226 174 Q 207 159 191 148 Q 189 147 188 146" fill="#bf0000" /><path d="M 111 92 L 111 89 Q 111 86 112 86 Q 113 85 114 86 Q 121 86 131 93 Q 135 96 135 102 Q 135 107 133 109 Q 131 112 127 111 Q 121 108 114 96" fill="#cf0000" /><path d="M 119 135 Q 117 133 116 134 Q 101 139 94 135 Q 92 133 92 132 Q 93 131 95 132 Q 96 131 112 126 Q 123 119 127 122 Q 135 126 139 130 Q 143 134 137 137" fill="#df0000" /><path d="M 112 168 Q 108 162 110 157 Q 113 151 117 147 Q 123 140 119 135 L 137 137 Q 133 141 127 148 Q 117 161 122 168" fill="#df0000" /><path d="M 118 195 L 119 194 Q 121 186 112 168 L 122 168 Q 128 174 129 178 Q 131 183 129 188 Q 128 189 121 196 L 118 196" fill="#ef0000" /><path d="M 121 196 Q 128 197 133 199 Q 162 207 184 213 Q 199 218 215 217 Q 232 216 244 216 Q 256 215 257 218 Q 257 220 252 222 Q 238 228 222 235 Q 210 240 201 236 Q 173 223 149 213 Q 128 204 119 205 Q 106 207 102 203 Q 98 200 99 197 Q 100 195 104 196 Q 109 197 115 196 Q 117 196 118 196" fill="#ff0000" /></svg>