<svg xmlns="http://www.w3.org/2000/svg" xmlns:xlink="http://www.w3.org/1999/xlink" width="270" height="270"><path d="M 0 0 L 270 270 M 270 0 L 0 270 M 135 0 L 135 270 M 0 135 L 270 135" stroke="#CCCCCC" /><path d="M 60 33 L 59 31 Q 58 28 59 27 Q 62 25 80 30 Q 88 33 89 38 Q 92 45 91 49 Q 89 52 87 52 Q 83 53 80 50 Q 73 43 66 38" fill="#000000" /><path d="M 43 81 L 92 67 Q 98 66 105 68 Q 109 70 109 74 Q 109 75 105 76 Q 72 82 41 93 Q 28 97 19 92 Q 15 89 16 87 Q 17 84 20 84" fill="#0e0000" /><path d="M 59 104 L 65 102 Q 82 96 86 96 Q 92 97 94 99 Q 95 101 93 103 Q 93 104 89 105 Q 81 107 74 109 Q 59 113 51 110 Q 46 108 53 105" fill="#1c0000" /><path d="M 59 129 L 65 127 Q 82 121 86 121 Q 92 122 94 124 Q 95 126 93 128 Q 93 129 89 130 Q 81 132 74 134 Q 59 138 51 135 Q 46 133 53 130" fill="#2a0000" /><path d="M 62 206 L 61 209 Q 60 212 55 208 Q 52 204 51 198 Q 45 178 39 166 Q 36 163 38 161 Q 39 160 41 160 Q 47 161 50 162 L 54 168 Q 55 174 60 193 L 61 201" fill="#380000" /><path d="M 50 162 Q 63 158 75 154 Q 85 146 90 150 Q 96 153 101 156 Q 107 159 102 166 L 83 163 Q 82 161 75 162 Q 58 167 54 168" fill="#460000" /><path d="M 102 166 Q 97 170 93 186 L 81 185 Q 82 177 83 171 Q 85 164 83 163" fill="#460000" /><path d="M 60 193 Q 69 190 80 185 L 81 185 L 93 186 Q 98 188 98 190 Q 98 192 96 192 Q 74 197 64 200 Q 62 201 61 201" fill="#550000" /><path d="M 181 29 Q 167 31 154 35 L 144 36 Q 136 35 130 33 Q 125 29 133 28 Q 153 26 178 20 Q 203 11 209 12 Q 215 14 217 16 Q 218 18 216 20 Q 214 22 202 24 Q 195 25 190 27" fill="#630000" /><path d="M 138 95 L 137 97 Q 137 100 132 96 Q 129 93 128 89 Q 123 73 117 64 Q 115 61 116 60 Q 117 59 119 59 Q 125 59 128 60 L 133 69 Q 134 74 137 86 L 138 93" fill="#710000" /><path d="M 185 55 Q 172 58 162 61 L 152 63 Q 133 68 133 69 L 128 60 Q 139 58 150 56 L 162 54 Q 174 50 185 48 L 198 46 Q 198 45 199 45 Q 213 43 222 40 Q 226 38 230 41 Q 240 47 243 51 L 223 52 Q 217 48 196 53" fill="#7f0000" /><path d="M 216 75 Q 220 73 224 56 Q 225 53 223 52 L 243 51 Q 245 54 242 57 Q 237 62 234 69 Q 228 84 225 87 Q 221 91 219 89 Q 216 87 213 80" fill="#7f0000" /><path d="M 162 61 Q 163 70 164 81 L 155 83 Q 153 71 152 63 L 150 56 Q 148 43 144 36 L 154 35 Q 162 38 161 44 Q 161 47 162 54" fill="#8d0000" /><path d="M 183 76 Q 184 65 185 55 L 185 48 Q 184 35 182 31 Q 181 29 181 29 L 190 27 Q 194 28 198 31 Q 202 35 201 36 Q 200 38 200 40 Q 199 42 198 46 L 196 53 Q 194 63 192 74" fill="#9b0000" /><path d="M 173 79 L 183 76 L 192 74 Q 207 69 211 71 Q 215 74 216 75 L 213 80 Q 164 87 142 93 Q 139 94 138 93 L 137 86 Q 145 84 155 83 L 164 81" fill="#aa0000" /><path d="M 152 153 Q 152 156 151 158 Q 150 162 146 157 Q 142 152 141 146 Q 136 125 130 112 Q 128 108 129 107 Q 130 106 133 106 Q 138 107 141 108 L 146 115 Q 146 118 148 128 L 149 134 Q 150 138 151 144 Q 151 145 151 147" fill="#b80000" /><path d="M 141 108 Q 189 98 189 98 Q 209 93 212 95 Q 222 100 225 104 L 203 105 Q 201 103 194 104 Q 163 110 146 115" fill="#c60000" /><path d="M 201 141 Q 203 137 206 111 Q 206 107 203 105 L 225 104 Q 228 106 225 110 Q 221 115 219 122 Q 214 147 212 152 Q 209 157 206 156 Q 205 155 196 146" fill="#c60000" /><path d="M 148 128 Q 176 119 183 119 Q 188 120 190 123 Q 192 126 187 127 Q 150 133 149 134" fill="#d40000" /><path d="M 163 152 Q 159 152 155 153 Q 153 154 152 153 L 151 147 Q 167 144 187 138 Q 193 136 196 138 Q 200 140 201 141 L 196 146 Q 182 147 172 150" fill="#e20000" /><path d="M 148 187 L 129 192 Q 126 193 120 192 Q 115 191 112 187 Q 108 183 113 183 Q 142 178 168 175 L 183 172 Q 207 168 222 165 Q 235 161 249 171 Q 254 175 252 177 Q 251 180 246 180 Q 204 180 182 183 L 168 185" fill="#f00000" /><path d="M 168 175 Q 166 160 165 158 Q 163 152 163 152 L 172 150 Q 176 151 182 155 Q 185 157 184 162 Q 183 171 183 172 L 182 183 Q 181 239 181 241 Q 180 255 176 257 Q 174 258 173 256 L 173 256 Q 169 249 168 185" fill="#ff0000" /></svg>