<svg xmlns="http://www.w3.org/2000/svg" xmlns:xlink="http://www.w3.org/1999/xlink" width="270" height="270"><path d="M 0 0 L 270 270 M 270 0 L 0 270 M 135 0 L 135 270 M 0 135 L 270 135" stroke="#CCCCCC" /><path d="M 121 24 L 120 22 Q 119 19 120 19 Q 126 15 140 21 Q 144 24 146 29 Q 147 33 146 36 Q 144 39 141 39 Q 133 37 124 27" fill="#000000" /><path d="M 118 53 L 127 51 Q 135 48 142 46 Q 148 43 155 44 Q 161 45 163 48 Q 164 49 162 51 Q 161 52 154 54 Q 140 57 126 60 Q 114 64 105 59 Q 100 56 107 54" fill="#0b0000" /><path d="M 118 75 L 122 74 Q 139 68 141 68 Q 148 69 149 72 Q 150 73 149 75 Q 148 75 145 76 Q 139 78 134 80 Q 118 83 111 81 Q 106 78 113 76" fill="#170000" /><path d="M 119 96 L 124 94 Q 141 88 144 88 Q 150 89 151 91 Q 153 93 151 94 Q 150 95 147 96 Q 140 98 134 100 Q 118 104 111 102 Q 106 99 113 97" fill="#220000" /><path d="M 123 145 L 123 147 Q 122 150 118 146 Q 115 144 115 140 Q 111 126 106 118 Q 104 115 105 114 Q 106 113 108 113 Q 112 113 114 114 L 119 119 Q 119 123 122 136 L 123 142" fill="#2e0000" /><path d="M 114 114 Q 123 112 129 111 Q 136 109 141 105 Q 145 104 148 105 Q 154 109 157 111 L 143 116 Q 141 114 136 115 Q 120 119 119 119" fill="#390000" /><path d="M 140 131 Q 143 116 143 116 L 157 111 Q 161 114 157 119 Q 154 121 150 132" fill="#390000" /><path d="M 122 136 Q 130 134 140 131 L 140 131 L 150 132 Q 155 134 155 135 Q 154 137 153 137 Q 134 140 126 142 Q 124 142 123 142" fill="#450000" /><path d="M 45 95 Q 42 97 40 95 Q 37 91 36 87 Q 35 85 39 81 Q 46 75 49 69 Q 64 41 61 33 Q 59 29 62 29 Q 66 28 69 31 Q 77 37 78 40 Q 78 42 75 45 Q 64 60 50 83" fill="#510000" /><path d="M 69 87 Q 54 89 45 95 L 50 83 Q 63 82 72 82" fill="#510000" /><path d="M 56 125 Q 53 127 51 125 Q 45 121 45 119 Q 44 115 47 114 Q 50 111 69 87 L 72 82 Q 72 82 73 82 Q 82 65 82 58 Q 82 55 84 54 Q 86 54 89 56 Q 96 60 98 64 Q 100 66 97 68 Q 92 72 86 80 Q 69 99 61 110" fill="#5c0000" /><path d="M 70 112 L 56 125 L 61 110 Q 78 103 90 100 L 92 104" fill="#5c0000" /><path d="M 90 100 Q 88 97 87 94 Q 86 91 87 90 Q 88 88 89 89 Q 101 94 104 103 Q 105 107 103 109 Q 101 112 99 111 Q 94 110 92 104" fill="#680000" /><path d="M 30 142 L 30 140 Q 31 137 32 137 Q 34 137 36 139 Q 54 152 53 159 Q 53 165 51 168 Q 49 170 47 169 Q 44 168 42 165 Q 38 156 34 148" fill="#730000" /><path d="M 58 134 L 58 133 Q 59 130 60 131 Q 72 134 75 142 Q 76 146 75 149 Q 73 152 71 151 Q 65 149 59 136" fill="#7f0000" /><path d="M 79 124 L 79 122 Q 79 120 81 121 Q 84 121 90 125 Q 94 127 95 130 Q 96 134 96 136 Q 94 139 92 139 Q 88 138 80 125" fill="#8b0000" /><path d="M 162 81 Q 160 82 158 80 Q 155 76 154 73 Q 154 71 158 68 Q 164 63 167 58 Q 182 34 179 27 Q 179 24 180 24 Q 184 23 187 26 Q 194 32 194 35 Q 194 36 192 39 Q 181 51 167 70" fill="#960000" /><path d="M 187 75 Q 185 75 184 75 Q 167 79 162 81 L 167 70 Q 181 70 190 70" fill="#960000" /><path d="M 174 109 Q 170 111 168 108 Q 163 104 163 101 Q 163 98 165 96 Q 169 95 173 91 Q 180 82 187 75 L 190 70 Q 191 68 193 67 Q 205 51 205 42 Q 205 39 207 38 Q 209 38 212 40 Q 219 44 221 48 Q 222 51 219 53 Q 214 57 207 64 Q 189 82 179 95" fill="#a20000" /><path d="M 188 99 L 174 109 L 179 95 Q 196 91 208 89 L 210 92" fill="#a20000" /><path d="M 208 89 Q 203 80 204 78 Q 205 75 207 76 Q 210 78 217 83 Q 221 87 222 91 Q 223 95 222 98 Q 220 101 217 100 Q 212 99 210 92" fill="#ad0000" /><path d="M 164 123 L 164 121 Q 165 119 167 120 Q 178 125 180 131 Q 181 136 180 138 Q 178 141 176 141 Q 170 139 164 125" fill="#b90000" /><path d="M 182 116 L 183 115 Q 183 113 185 114 Q 196 119 199 125 Q 200 129 199 131 Q 197 134 195 133 Q 190 132 183 118" fill="#c50000" /><path d="M 201 113 L 201 110 Q 201 107 202 107 Q 204 107 207 108 Q 226 119 227 127 Q 227 133 225 135 Q 224 138 222 137 Q 218 137 217 134 Q 211 125 206 118" fill="#d00000" /><path d="M 87 181 Q 85 184 82 186 Q 65 202 54 203 Q 48 204 53 200 Q 92 165 94 148 Q 95 145 96 144 Q 99 144 106 146 Q 112 147 113 150 Q 114 152 111 155 Q 109 157 105 162 L 101 167 Q 101 167 101 167 Q 96 172 92 177" fill="#dc0000" /><path d="M 137 167 Q 134 168 131 169 Q 108 174 101 167 L 105 162 Q 115 161 141 156 Q 171 146 177 148 Q 184 149 186 152 Q 186 154 184 156 Q 183 157 148 165" fill="#e70000" /><path d="M 132 218 L 132 219 Q 123 231 111 237 Q 84 252 51 246 Q 46 244 51 243 Q 106 233 124 208 L 129 200 Q 130 199 130 198 Q 141 176 137 167 L 148 165 Q 149 166 149 166 Q 155 168 157 173 Q 159 175 156 178 Q 153 181 149 191 Q 145 200 140 208 L 133 217" fill="#f30000" /><path d="M 124 208 Q 111 196 87 181 L 92 177 Q 100 176 111 185 Q 121 193 129 200 L 140 208 Q 157 219 169 224 Q 182 230 227 238 Q 237 240 238 241 Q 239 244 229 246 Q 210 251 187 254 Q 182 254 178 252 Q 159 243 133 217" fill="#ff0000" /></svg>