<svg xmlns="http://www.w3.org/2000/svg" xmlns:xlink="http://www.w3.org/1999/xlink" width="270" height="270"><path d="M 0 0 L 270 270 M 270 0 L 0 270 M 135 0 L 135 270 M 0 135 L 270 135" stroke="#CCCCCC" /><path d="M 111 46 L 134 40 Q 157 32 166 34 Q 176 36 178 40 Q 180 43 177 46 Q 175 47 164 50 Q 140 55 118 59 Q 99 64 85 56 Q 76 51 88 49" fill="#000000" /><path d="M 97 147 L 97 149 Q 96 153 90 148 Q 86 144 84 137 Q 77 116 69 104 Q 66 100 67 98 Q 68 96 72 97 Q 77 97 81 98 L 89 107 Q 90 115 96 135 L 97 145" fill="#2a0000" /><path d="M 81 98 Q 96 97 140 88 Q 164 79 170 82 Q 184 90 189 94 L 161 97 Q 158 94 152 95 Q 90 107 89 107" fill="#550000" /><path d="M 155 123 Q 159 114 162 103 Q 163 99 161 97 L 189 94 Q 193 100 188 105 Q 179 109 170 127" fill="#550000" /><path d="M 96 135 Q 122 131 152 124 Q 153 123 155 123 L 170 127 Q 175 131 175 132 Q 174 135 171 135 Q 122 140 99 145 Q 97 145 97 145" fill="#7f0000" /><path d="M 80 173 L 79 169 Q 80 166 82 165 Q 84 165 87 167 Q 95 171 102 176 Q 108 181 108 186 Q 108 194 106 198 Q 103 201 101 200 Q 96 199 94 195 Q 89 187 85 180" fill="#aa0000" /><path d="M 145 184 L 150 168 Q 151 162 149 158 Q 147 153 152 151 Q 159 150 166 153 Q 173 157 177 161 Q 179 164 174 167 Q 163 180 141 210 L 133 211" fill="#d40000" /><path d="M 141 210 Q 184 204 212 199 Q 224 194 243 209 Q 248 213 246 217 Q 245 219 239 219 Q 129 214 47 234 Q 35 237 25 227 Q 21 222 27 221 Q 83 216 131 211 Q 132 211 133 211" fill="#ff0000" /></svg>