<svg xmlns="http://www.w3.org/2000/svg" xmlns:xlink="http://www.w3.org/1999/xlink" width="270" height="270"><path d="M 0 0 L 270 270 M 270 0 L 0 270 M 135 0 L 135 270 M 0 135 L 270 135" stroke="#CCCCCC" /><path d="M 65 70 Q 56 70 51 68 Q 43 64 53 62 Q 59 61 76 55 Q 95 47 101 47 Q 109 48 111 51 Q 112 53 111 56 Q 110 56 104 59 Q 79 66 75 69" fill="#000000" /><path d="M 53 113 Q 36 129 29 130 Q 26 130 27 128 Q 28 127 30 125 Q 68 84 65 70 L 75 69 Q 81 71 83 78 Q 83 81 81 83 Q 77 85 73 91 Q 65 101 58 108" fill="#120000" /><path d="M 94 144 L 97 161 Q 102 197 90 225 Q 85 233 80 234 Q 76 235 72 231 L 76 209 Q 79 207 82 196 Q 88 168 83 149 L 76 133 Q 72 127 67 123 L 58 116 Q 55 114 53 113 L 58 108 Q 71 112 83 127 L 88 133" fill="#240000" /><path d="M 72 231 Q 67 223 53 212 Q 50 209 51 207 Q 51 205 69 210 Q 73 210 76 209" fill="#240000" /><path d="M 67 123 Q 67 125 66 127 Q 57 145 41 156 Q 29 163 26 162 Q 24 162 26 159 Q 51 136 58 116" fill="#360000" /><path d="M 83 149 Q 81 152 77 158 Q 76 159 76 160 Q 51 195 24 207 Q 22 209 19 208 Q 17 207 20 204 Q 21 203 23 202 Q 62 167 76 133" fill="#480000" /><path d="M 83 127 Q 93 110 98 99 Q 100 95 99 91 Q 98 87 101 86 Q 106 86 111 89 Q 117 93 118 96 Q 120 98 116 100 Q 106 109 85 131" fill="#5b0000" /><path d="M 83 127 L 88 129 Q 108 129 113 137 Q 116 143 115 145 Q 114 147 113 147 Q 111 147 107 145 Q 96 137 88 133" fill="#6d0000" /><path d="M 160 92 Q 147 96 138 92 Q 132 89 140 87 Q 149 85 156 82 Q 158 81 159 81 L 173 75 Q 177 73 183 74 Q 190 74 192 77 Q 193 78 192 81 Q 191 81 172 88" fill="#7f0000" /><path d="M 159 119 Q 160 105 160 92 L 159 81 Q 159 62 158 45 Q 158 39 152 32 Q 150 28 152 26 Q 154 24 158 24 Q 165 25 174 30 Q 179 34 178 37 Q 173 54 173 75 L 172 88 Q 171 102 171 117" fill="#910000" /><path d="M 174 125 Q 173 125 173 126 Q 152 130 133 137 Q 125 140 116 133 Q 112 130 117 129 Q 139 123 159 119 L 171 117 Q 176 115 182 114 L 200 109 Q 210 106 218 104 Q 233 100 247 108 Q 252 111 251 113 Q 250 116 245 116 Q 208 119 192 122" fill="#a30000" /><path d="M 144 180 Q 140 182 139 185 Q 111 210 101 211 Q 99 211 99 210 Q 99 208 101 206 Q 123 186 142 166 L 150 157 Q 166 138 174 125 L 182 114 Q 194 94 200 78 Q 200 76 201 75 Q 204 65 202 56 Q 200 50 205 50 Q 210 50 214 54 Q 219 57 223 65 Q 226 70 223 73 Q 220 77 200 109 L 192 122 Q 183 135 172 149 Q 169 152 167 155" fill="#b60000" /><path d="M 150 235 L 148 236 Q 146 237 144 234 Q 136 225 140 216 Q 145 206 144 180 L 142 166 Q 140 162 138 158 Q 137 155 140 154 Q 144 154 150 157 L 154 169 Q 154 174 154 186 L 154 193 Q 154 200 155 209 Q 155 213 154 217 L 153 225" fill="#c80000" /><path d="M 199 158 Q 197 156 169 162 Q 163 164 159 164 Q 157 166 154 169 L 150 157 L 167 155 Q 169 153 173 153 Q 187 150 196 146 Q 199 143 203 146 Q 216 152 220 157" fill="#da0000" /><path d="M 201 215 Q 202 212 202 201 Q 203 162 199 158 L 220 157 Q 222 159 220 162 Q 213 170 218 212 Q 218 230 214 237 Q 211 245 207 245 Q 204 245 202 241" fill="#da0000" /><path d="M 198 218 Q 200 218 201 215 L 202 241 Q 197 232 189 223" fill="#da0000" /><path d="M 154 186 Q 174 178 183 180 Q 190 181 192 185 Q 194 189 188 189 Q 174 191 156 193 Q 155 193 154 193" fill="#ec0000" /><path d="M 154 217 Q 166 215 181 212 Q 188 211 192 213 Q 197 217 198 218 L 189 223 Q 167 223 156 225 Q 154 225 153 225" fill="#ff0000" /></svg>