<svg xmlns="http://www.w3.org/2000/svg" xmlns:xlink="http://www.w3.org/1999/xlink" width="270" height="270"><path d="M 0 0 L 270 270 M 270 0 L 0 270 M 135 0 L 135 270 M 0 135 L 270 135" stroke="#CCCCCC" /><path d="M 44 163 L 43 165 Q 41 168 38 165 Q 36 162 33 154 Q 33 153 33 153 Q 33 153 37 131 Q 44 81 33 53 Q 31 50 32 49 Q 33 47 35 47 Q 41 49 47 53 L 50 61 Q 49 68 49 90 L 49 97 Q 49 109 49 121 L 49 130 Q 51 134 47 152 L 46 160" fill="#CCCCCC"/><path d="M 47 53 Q 47 53 47 54 Q 61 51 78 44 Q 83 41 89 44 Q 103 48 105 51 L 83 56 Q 81 54 72 56 Q 59 59 50 61" fill="#CCCCCC"/><path d="M 86 147 Q 87 146 87 143 Q 88 117 87 71 Q 87 59 83 56 L 105 51 Q 106 54 104 59 Q 98 68 102 138 Q 102 158 100 163 Q 97 171 94 171 Q 92 172 88 166 Q 85 161 81 156" fill="#CCCCCC"/><path d="M 49 90 Q 50 89 51 88 Q 61 85 66 85 Q 73 85 76 89 Q 78 92 72 93 Q 63 94 51 97 Q 49 97 49 97" fill="#CCCCCC"/><path d="M 49 121 Q 49 121 50 120 Q 61 116 67 117 Q 74 118 77 121 Q 79 124 73 126 Q 63 127 49 130" fill="#CCCCCC"/><path d="M 47 152 Q 75 145 82 146 Q 85 146 86 147 L 81 156 Q 66 157 46 160" fill="#CCCCCC"/><path d="M 45 173 L 47 173 Q 49 172 56 174 Q 63 175 64 178 Q 65 180 63 183 Q 60 186 54 194 Q 33 223 15 227 Q 9 228 14 224 Q 43 193 45 177" fill="#CCCCCC"/><path d="M 71 177 L 71 176 Q 72 173 74 174 Q 78 175 86 180 Q 91 182 93 187 Q 94 191 93 195 Q 91 199 88 198 Q 83 197 72 180" fill="#CCCCCC"/><path d="M 140 55 Q 141 54 142 54 Q 172 49 194 39 Q 202 35 210 36 Q 218 37 220 40 Q 221 42 219 45 Q 217 47 177 58 Q 156 63 145 62" fill="#CCCCCC"/><path d="M 137 119 Q 131 154 118 184 Q 113 194 108 203 Q 87 232 80 234 Q 78 234 78 232 Q 79 230 80 228 Q 102 194 112 167 Q 114 161 116 155 Q 122 134 127 76 Q 127 60 122 54 Q 120 50 123 48 Q 129 46 140 55 L 145 62 Q 142 72 138 113" fill="#CCCCCC"/><path d="M 180 109 Q 170 112 162 115 Q 144 121 137 119 L 138 113 Q 141 112 145 111 Q 166 107 181 97 Q 186 94 192 95 Q 202 98 207 102" fill="#CCCCCC"/><path d="M 170 195 L 162 200 Q 149 208 126 211 Q 119 213 116 212 Q 114 210 117 209 Q 151 196 164 180 Q 166 177 168 174 L 174 164 Q 186 138 186 114 Q 185 107 180 109 L 207 102 Q 213 106 209 110 Q 204 115 203 124 Q 195 156 184 175 L 177 186" fill="#CCCCCC"/><path d="M 168 174 Q 150 149 143 143 Q 139 140 140 138 Q 141 137 145 138 Q 154 139 162 149 Q 168 157 174 164 L 184 175 Q 200 192 219 201 Q 259 218 260 221 Q 260 223 251 223 Q 233 224 211 221 Q 201 219 177 186" fill="#CCCCCC"/><path d="M 44 163 L 43 165 Q 41 168 38 165 Q 36 162 33 154 Q 33 153 33 153 Q 33 153 37 131 Q 44 81 33 53 Q 31 50 32 49 Q 33 47 35 47 Q 41 49 47 53 L 50 61 Q 49 68 49 90 L 49 97 Q 49 109 49 121 L 49 130 Q 51 134 47 152 L 46 160" fill="#000000" /><path d="M 47 53 Q 47 53 47 54 Q 61 51 78 44 Q 83 41 89 44 Q 103 48 105 51 L 83 56 Q 81 54 72 56 Q 59 59 50 61" fill="#190000" /><path d="M 86 147 Q 87 146 87 143 Q 88 117 87 71 Q 87 59 83 56 L 105 51 Q 106 54 104 59 Q 98 68 102 138 Q 102 158 100 163 Q 97 171 94 171 Q 92 172 88 166 Q 85 161 81 156" fill="#190000" /><path d="M 49 90 Q 50 89 51 88 Q 61 85 66 85 Q 73 85 76 89 Q 78 92 72 93 Q 63 94 51 97 Q 49 97 49 97" fill="#330000" /><path d="M 49 121 Q 49 121 50 120 Q 61 116 67 117 Q 74 118 77 121 Q 79 124 73 126 Q 63 127 49 130" fill="#4c0000" /><path d="M 47 152 Q 75 145 82 146 Q 85 146 86 147 L 81 156 Q 66 157 46 160" fill="#660000" /><path d="M 45 173 L 47 173 Q 49 172 56 174 Q 63 175 64 178 Q 65 180 63 183 Q 60 186 54 194 Q 33 223 15 227 Q 9 228 14 224 Q 43 193 45 177" fill="#7f0000" /><path d="M 71 177 L 71 176 Q 72 173 74 174 Q 78 175 86 180 Q 91 182 93 187 Q 94 191 93 195 Q 91 199 88 198 Q 83 197 72 180" fill="#990000" /><path d="M 140 55 Q 141 54 142 54 Q 172 49 194 39 Q 202 35 210 36 Q 218 37 220 40 Q 221 42 219 45 Q 217 47 177 58 Q 156 63 145 62" fill="#b20000" /><path d="M 137 119 Q 131 154 118 184 Q 113 194 108 203 Q 87 232 80 234 Q 78 234 78 232 Q 79 230 80 228 Q 102 194 112 167 Q 114 161 116 155 Q 122 134 127 76 Q 127 60 122 54 Q 120 50 123 48 Q 129 46 140 55 L 145 62 Q 142 72 138 113" fill="#cc0000" /><path d="M 180 109 Q 170 112 162 115 Q 144 121 137 119 L 138 113 Q 141 112 145 111 Q 166 107 181 97 Q 186 94 192 95 Q 202 98 207 102" fill="#e50000" /><path d="M 170 195 L 162 200 Q 149 208 126 211 Q 119 213 116 212 Q 114 210 117 209 Q 151 196 164 180 Q 166 177 168 174 L 174 164 Q 186 138 186 114 Q 185 107 180 109 L 207 102 Q 213 106 209 110 Q 204 115 203 124 Q 195 156 184 175 L 177 186" fill="#e50000" /><path d="M 168 174 Q 150 149 143 143 Q 139 140 140 138 Q 141 137 145 138 Q 154 139 162 149 Q 168 157 174 164 L 184 175 Q 200 192 219 201 Q 259 218 260 221 Q 260 223 251 223 Q 233 224 211 221 Q 201 219 177 186" fill="#ff0000" /></svg>