<svg xmlns="http://www.w3.org/2000/svg" xmlns:xlink="http://www.w3.org/1999/xlink" width="270" height="270"><path d="M 0 0 L 270 270 M 270 0 L 0 270 M 135 0 L 135 270 M 0 135 L 270 135" stroke="#CCCCCC" /><path d="M 58 166 L 56 169 Q 53 173 51 169 Q 42 159 45 145 Q 48 131 48 117 Q 48 78 42 59 Q 41 55 42 54 Q 47 52 56 59 L 60 66 Q 59 78 59 91 L 59 99 Q 59 108 59 120 L 59 128 Q 59 135 59 143 Q 60 149 59 154 L 59 163" fill="#CCCCCC"/><path d="M 56 59 Q 68 55 82 48 Q 87 46 93 48 Q 107 52 108 55 Q 110 58 108 62 L 87 60 Q 86 59 85 59 Q 85 59 60 66" fill="#CCCCCC"/><path d="M 89 147 Q 92 121 90 74 Q 90 63 87 60 L 108 62 Q 102 72 105 142 Q 105 162 102 167 Q 99 175 96 175 Q 94 176 90 169" fill="#CCCCCC"/><path d="M 85 152 Q 90 153 89 147 L 90 169 Q 87 164 83 159" fill="#CCCCCC"/><path d="M 59 91 Q 70 87 76 87 Q 82 87 85 91 Q 87 93 82 95 Q 72 97 59 99" fill="#CCCCCC"/><path d="M 59 120 Q 70 116 76 116 Q 82 116 85 120 Q 87 122 82 124 Q 72 126 59 128" fill="#CCCCCC"/><path d="M 59 154 Q 79 148 82 150 Q 84 151 85 152 L 83 159 Q 67 160 59 163" fill="#CCCCCC"/><path d="M 52 178 L 53 177 Q 56 177 63 179 Q 69 180 70 183 Q 70 185 68 188 Q 59 199 59 199 Q 34 227 20 229 Q 13 229 18 226 Q 50 195 51 181" fill="#CCCCCC"/><path d="M 81 188 L 81 186 Q 81 183 82 183 Q 84 182 87 184 Q 107 195 108 204 Q 108 210 107 213 Q 105 215 103 215 Q 100 214 97 211 Q 91 202 86 194" fill="#CCCCCC"/><path d="M 161 78 Q 157 80 154 81 Q 136 88 127 85 Q 120 83 128 79 Q 141 75 152 70 Q 154 69 155 68 L 166 63 Q 176 55 184 55 Q 191 55 194 58 Q 195 60 194 62 Q 193 64 185 67 Q 177 71 170 74" fill="#CCCCCC"/><path d="M 167 91 L 161 78 L 155 68 Q 153 64 151 59 Q 142 35 134 31 Q 131 28 131 27 Q 132 24 133 24 Q 140 22 151 26 Q 161 29 160 37 Q 160 48 166 63 L 170 74 Q 177 87 183 96 L 188 103 Q 204 123 219 126 L 237 135 Q 240 145 236 146 Q 229 146 210 135 Q 195 126 180 107 L 175 101" fill="#CCCCCC"/><path d="M 219 126 Q 225 126 227 106 Q 227 102 230 104 Q 233 107 233 114 Q 235 129 237 135" fill="#CCCCCC"/><path d="M 183 96 Q 186 93 189 92 Q 207 76 207 69 Q 207 66 209 66 Q 214 66 224 69 Q 228 72 229 73 Q 230 75 227 77 Q 226 77 188 103 L 180 107 Q 179 108 178 108 Q 169 112 160 114 Q 157 114 159 112 Q 168 106 175 101" fill="#CCCCCC"/><path d="M 174 27 L 173 25 Q 173 21 174 20 Q 175 20 179 20 Q 202 23 205 29 Q 208 36 207 40 Q 207 43 204 44 Q 201 44 197 42 Q 189 36 182 31" fill="#CCCCCC"/><path d="M 150 159 Q 143 162 138 164 Q 126 169 116 165 Q 109 163 117 160 Q 130 156 141 152 Q 143 151 145 150 L 155 145 Q 166 139 173 139 Q 179 140 181 142 Q 183 144 181 146 Q 180 147 172 150 Q 166 153 160 155" fill="#CCCCCC"/><path d="M 165 186 L 163 182 Q 156 171 150 159 L 145 150 Q 130 120 125 115 Q 121 109 125 108 Q 129 106 138 108 Q 150 111 149 118 Q 149 127 155 145 L 160 155 Q 167 168 175 180 L 183 191 Q 192 202 195 204 Q 213 221 228 223 L 253 234 Q 256 242 251 245 Q 247 249 228 242 Q 198 229 174 199 L 167 189 Q 167 189 167 189" fill="#CCCCCC"/><path d="M 228 223 Q 235 224 244 199 Q 245 194 246 194 Q 247 195 248 200 Q 250 227 253 234" fill="#CCCCCC"/><path d="M 175 180 Q 188 164 189 149 Q 190 146 193 145 Q 196 145 200 149 Q 207 155 208 158 Q 208 161 206 163 Q 201 168 197 173 Q 189 183 183 191 L 174 199 Q 164 209 149 215 Q 123 228 116 224 Q 115 223 116 222 Q 153 204 167 189" fill="#CCCCCC"/><path d="M 166 126 L 166 124 Q 166 122 168 122 Q 181 122 186 127 Q 189 131 189 134 Q 188 137 186 138 Q 181 138 168 127" fill="#CCCCCC"/><path d="M 58 166 L 56 169 Q 53 173 51 169 Q 42 159 45 145 Q 48 131 48 117 Q 48 78 42 59 Q 41 55 42 54 Q 47 52 56 59 L 60 66 Q 59 78 59 91 L 59 99 Q 59 108 59 120 L 59 128 Q 59 135 59 143 Q 60 149 59 154 L 59 163" fill="#000000" /><path d="M 56 59 Q 68 55 82 48 Q 87 46 93 48 Q 107 52 108 55 Q 110 58 108 62 L 87 60 Q 86 59 85 59 Q 85 59 60 66" fill="#120000" /><path d="M 89 147 Q 92 121 90 74 Q 90 63 87 60 L 108 62 Q 102 72 105 142 Q 105 162 102 167 Q 99 175 96 175 Q 94 176 90 169" fill="#120000" /><path d="M 85 152 Q 90 153 89 147 L 90 169 Q 87 164 83 159" fill="#120000" /><path d="M 59 91 Q 70 87 76 87 Q 82 87 85 91 Q 87 93 82 95 Q 72 97 59 99" fill="#240000" /><path d="M 59 120 Q 70 116 76 116 Q 82 116 85 120 Q 87 122 82 124 Q 72 126 59 128" fill="#360000" /><path d="M 59 154 Q 79 148 82 150 Q 84 151 85 152 L 83 159 Q 67 160 59 163" fill="#480000" /><path d="M 52 178 L 53 177 Q 56 177 63 179 Q 69 180 70 183 Q 70 185 68 188 Q 59 199 59 199 Q 34 227 20 229 Q 13 229 18 226 Q 50 195 51 181" fill="#5b0000" /><path d="M 81 188 L 81 186 Q 81 183 82 183 Q 84 182 87 184 Q 107 195 108 204 Q 108 210 107 213 Q 105 215 103 215 Q 100 214 97 211 Q 91 202 86 194" fill="#6d0000" /><path d="M 161 78 Q 157 80 154 81 Q 136 88 127 85 Q 120 83 128 79 Q 141 75 152 70 Q 154 69 155 68 L 166 63 Q 176 55 184 55 Q 191 55 194 58 Q 195 60 194 62 Q 193 64 185 67 Q 177 71 170 74" fill="#7f0000" /><path d="M 167 91 L 161 78 L 155 68 Q 153 64 151 59 Q 142 35 134 31 Q 131 28 131 27 Q 132 24 133 24 Q 140 22 151 26 Q 161 29 160 37 Q 160 48 166 63 L 170 74 Q 177 87 183 96 L 188 103 Q 204 123 219 126 L 237 135 Q 240 145 236 146 Q 229 146 210 135 Q 195 126 180 107 L 175 101" fill="#910000" /><path d="M 219 126 Q 225 126 227 106 Q 227 102 230 104 Q 233 107 233 114 Q 235 129 237 135" fill="#910000" /><path d="M 183 96 Q 186 93 189 92 Q 207 76 207 69 Q 207 66 209 66 Q 214 66 224 69 Q 228 72 229 73 Q 230 75 227 77 Q 226 77 188 103 L 180 107 Q 179 108 178 108 Q 169 112 160 114 Q 157 114 159 112 Q 168 106 175 101" fill="#a30000" /><path d="M 174 27 L 173 25 Q 173 21 174 20 Q 175 20 179 20 Q 202 23 205 29 Q 208 36 207 40 Q 207 43 204 44 Q 201 44 197 42 Q 189 36 182 31" fill="#b60000" /><path d="M 150 159 Q 143 162 138 164 Q 126 169 116 165 Q 109 163 117 160 Q 130 156 141 152 Q 143 151 145 150 L 155 145 Q 166 139 173 139 Q 179 140 181 142 Q 183 144 181 146 Q 180 147 172 150 Q 166 153 160 155" fill="#c80000" /><path d="M 165 186 L 163 182 Q 156 171 150 159 L 145 150 Q 130 120 125 115 Q 121 109 125 108 Q 129 106 138 108 Q 150 111 149 118 Q 149 127 155 145 L 160 155 Q 167 168 175 180 L 183 191 Q 192 202 195 204 Q 213 221 228 223 L 253 234 Q 256 242 251 245 Q 247 249 228 242 Q 198 229 174 199 L 167 189 Q 167 189 167 189" fill="#da0000" /><path d="M 228 223 Q 235 224 244 199 Q 245 194 246 194 Q 247 195 248 200 Q 250 227 253 234" fill="#da0000" /><path d="M 175 180 Q 188 164 189 149 Q 190 146 193 145 Q 196 145 200 149 Q 207 155 208 158 Q 208 161 206 163 Q 201 168 197 173 Q 189 183 183 191 L 174 199 Q 164 209 149 215 Q 123 228 116 224 Q 115 223 116 222 Q 153 204 167 189" fill="#ec0000" /><path d="M 166 126 L 166 124 Q 166 122 168 122 Q 181 122 186 127 Q 189 131 189 134 Q 188 137 186 138 Q 181 138 168 127" fill="#ff0000" /></svg>