<svg xmlns="http://www.w3.org/2000/svg" xmlns:xlink="http://www.w3.org/1999/xlink" width="270" height="270"><path d="M 0 0 L 270 270 M 270 0 L 0 270 M 135 0 L 135 270 M 0 135 L 270 135" stroke="#CCCCCC" /><path d="M 51 169 L 50 171 Q 47 175 45 171 Q 38 165 38 159 Q 38 158 41 134 Q 44 81 38 67 Q 38 66 38 66 Q 37 64 36 62 Q 35 59 37 58 Q 39 57 42 58 Q 47 60 50 63 L 54 69 Q 53 70 53 70 Q 53 72 53 93 L 53 101 Q 53 110 53 123 L 53 130 Q 53 137 53 146 Q 53 152 53 157 L 52 166" fill="#CCCCCC"/><path d="M 50 63 Q 62 60 75 54 Q 80 51 86 53 Q 99 57 100 60 Q 103 62 100 67 L 81 65 Q 78 62 70 65 Q 62 68 54 69" fill="#CCCCCC"/><path d="M 78 155 L 78 155 Q 83 156 82 150 Q 84 124 84 79 Q 83 68 81 65 L 100 67 Q 93 79 97 151 Q 98 161 95 169 Q 91 176 89 177 Q 87 177 83 171 Q 80 167 77 162" fill="#CCCCCC"/><path d="M 53 93 Q 61 88 69 89 Q 75 89 77 92 Q 80 95 75 96 Q 65 98 53 101" fill="#CCCCCC"/><path d="M 53 123 Q 60 118 70 119 Q 76 119 78 122 Q 81 125 75 126 Q 65 128 53 130" fill="#CCCCCC"/><path d="M 53 157 Q 72 152 76 154 Q 77 154 78 155 L 77 162 Q 60 164 52 166 Q 52 166 52 166" fill="#CCCCCC"/><path d="M 49 179 L 51 178 Q 54 177 60 178 Q 67 180 68 182 Q 69 184 67 187 Q 57 200 57 201 Q 32 232 17 235 Q 11 237 16 233 Q 48 198 49 181" fill="#CCCCCC"/><path d="M 72 196 L 71 194 Q 72 191 73 191 Q 75 191 77 192 Q 95 201 95 208 Q 96 214 94 217 Q 92 219 90 219 Q 87 218 76 201" fill="#CCCCCC"/><path d="M 124 81 L 131 79 Q 149 71 156 72 Q 164 73 167 76 Q 168 78 166 80 Q 165 81 161 82 Q 153 85 146 87 Q 125 93 115 89 Q 107 85 117 82" fill="#CCCCCC"/><path d="M 158 117 L 146 122 L 137 125 Q 130 127 123 129 Q 120 131 115 130 Q 110 130 107 127 Q 103 123 107 122 Q 138 114 163 107 Q 170 105 178 103 L 190 99 Q 194 97 199 96 Q 214 89 230 97 Q 234 100 233 103 Q 231 106 218 107 Q 204 108 192 111 L 179 113" fill="#CCCCCC"/><path d="M 146 122 Q 154 128 153 133 Q 152 140 152 148 L 152 156 Q 152 169 152 183 L 142 187 Q 141 163 140 151 Q 139 128 137 125" fill="#CCCCCC"/><path d="M 152 148 Q 157 143 170 142 Q 176 142 179 145 Q 182 148 177 150 L 152 156" fill="#CCCCCC"/><path d="M 119 193 Q 113 165 109 157 Q 107 154 109 153 Q 110 151 113 152 Q 119 154 124 157 Q 127 159 126 164 Q 126 169 127 191" fill="#CCCCCC"/><path d="M 152 183 Q 183 173 186 175 Q 185 177 182 179 Q 178 182 172 185 Q 129 203 120 211 Q 117 213 114 212 Q 106 208 100 203 Q 98 202 99 198 Q 99 196 103 195 Q 104 195 119 193 L 127 191 Q 134 188 142 187" fill="#CCCCCC"/><path d="M 178 103 Q 174 86 173 70 Q 168 29 164 28 Q 159 21 166 20 Q 166 20 169 20 Q 173 20 179 25 Q 181 26 182 27 Q 188 32 185 41 Q 183 57 190 99 L 192 111 Q 200 154 214 184 Q 228 209 237 215 L 256 231 Q 258 243 256 245 Q 253 249 249 249 Q 245 248 237 242 Q 197 205 179 113" fill="#CCCCCC"/><path d="M 237 215 Q 242 217 247 196 Q 249 189 251 189 Q 254 190 253 198 Q 253 218 256 231" fill="#CCCCCC"/><path d="M 205 58 L 204 55 Q 204 52 205 51 Q 206 51 210 51 Q 231 54 234 61 Q 237 68 236 72 Q 235 75 233 75 Q 228 76 225 73 Q 219 67 212 63" fill="#CCCCCC"/><path d="M 51 169 L 50 171 Q 47 175 45 171 Q 38 165 38 159 Q 38 158 41 134 Q 44 81 38 67 Q 38 66 38 66 Q 37 64 36 62 Q 35 59 37 58 Q 39 57 42 58 Q 47 60 50 63 L 54 69 Q 53 70 53 70 Q 53 72 53 93 L 53 101 Q 53 110 53 123 L 53 130 Q 53 137 53 146 Q 53 152 53 157 L 52 166" fill="#000000" /><path d="M 50 63 Q 62 60 75 54 Q 80 51 86 53 Q 99 57 100 60 Q 103 62 100 67 L 81 65 Q 78 62 70 65 Q 62 68 54 69" fill="#120000" /><path d="M 78 155 L 78 155 Q 83 156 82 150 Q 84 124 84 79 Q 83 68 81 65 L 100 67 Q 93 79 97 151 Q 98 161 95 169 Q 91 176 89 177 Q 87 177 83 171 Q 80 167 77 162" fill="#120000" /><path d="M 53 93 Q 61 88 69 89 Q 75 89 77 92 Q 80 95 75 96 Q 65 98 53 101" fill="#240000" /><path d="M 53 123 Q 60 118 70 119 Q 76 119 78 122 Q 81 125 75 126 Q 65 128 53 130" fill="#360000" /><path d="M 53 157 Q 72 152 76 154 Q 77 154 78 155 L 77 162 Q 60 164 52 166 Q 52 166 52 166" fill="#480000" /><path d="M 49 179 L 51 178 Q 54 177 60 178 Q 67 180 68 182 Q 69 184 67 187 Q 57 200 57 201 Q 32 232 17 235 Q 11 237 16 233 Q 48 198 49 181" fill="#5b0000" /><path d="M 72 196 L 71 194 Q 72 191 73 191 Q 75 191 77 192 Q 95 201 95 208 Q 96 214 94 217 Q 92 219 90 219 Q 87 218 76 201" fill="#6d0000" /><path d="M 124 81 L 131 79 Q 149 71 156 72 Q 164 73 167 76 Q 168 78 166 80 Q 165 81 161 82 Q 153 85 146 87 Q 125 93 115 89 Q 107 85 117 82" fill="#7f0000" /><path d="M 158 117 L 146 122 L 137 125 Q 130 127 123 129 Q 120 131 115 130 Q 110 130 107 127 Q 103 123 107 122 Q 138 114 163 107 Q 170 105 178 103 L 190 99 Q 194 97 199 96 Q 214 89 230 97 Q 234 100 233 103 Q 231 106 218 107 Q 204 108 192 111 L 179 113" fill="#910000" /><path d="M 146 122 Q 154 128 153 133 Q 152 140 152 148 L 152 156 Q 152 169 152 183 L 142 187 Q 141 163 140 151 Q 139 128 137 125" fill="#a30000" /><path d="M 152 148 Q 157 143 170 142 Q 176 142 179 145 Q 182 148 177 150 L 152 156" fill="#b60000" /><path d="M 119 193 Q 113 165 109 157 Q 107 154 109 153 Q 110 151 113 152 Q 119 154 124 157 Q 127 159 126 164 Q 126 169 127 191" fill="#c80000" /><path d="M 152 183 Q 183 173 186 175 Q 185 177 182 179 Q 178 182 172 185 Q 129 203 120 211 Q 117 213 114 212 Q 106 208 100 203 Q 98 202 99 198 Q 99 196 103 195 Q 104 195 119 193 L 127 191 Q 134 188 142 187" fill="#da0000" /><path d="M 178 103 Q 174 86 173 70 Q 168 29 164 28 Q 159 21 166 20 Q 166 20 169 20 Q 173 20 179 25 Q 181 26 182 27 Q 188 32 185 41 Q 183 57 190 99 L 192 111 Q 200 154 214 184 Q 228 209 237 215 L 256 231 Q 258 243 256 245 Q 253 249 249 249 Q 245 248 237 242 Q 197 205 179 113" fill="#ec0000" /><path d="M 237 215 Q 242 217 247 196 Q 249 189 251 189 Q 254 190 253 198 Q 253 218 256 231" fill="#ec0000" /><path d="M 205 58 L 204 55 Q 204 52 205 51 Q 206 51 210 51 Q 231 54 234 61 Q 237 68 236 72 Q 235 75 233 75 Q 228 76 225 73 Q 219 67 212 63" fill="#ff0000" /></svg>