<svg xmlns="http://www.w3.org/2000/svg" xmlns:xlink="http://www.w3.org/1999/xlink" width="270" height="270"><path d="M 0 0 L 270 270 M 270 0 L 0 270 M 135 0 L 135 270 M 0 135 L 270 135" stroke="#CCCCCC" /><path d="M 77 67 Q 64 71 54 66 Q 47 62 56 60 Q 67 58 77 56 L 89 52 Q 99 46 107 47 Q 115 49 116 51 Q 117 53 116 55 Q 115 56 88 64" fill="#000000" /><path d="M 58 147 Q 58 150 58 153 Q 56 157 52 152 Q 48 146 47 139 Q 42 113 35 98 Q 33 94 34 93 Q 35 91 38 92 Q 44 93 46 94 L 51 101 Q 52 109 57 136 Q 58 139 58 141" fill="#110000" /><path d="M 77 93 Q 61 97 51 101 L 46 94 Q 55 92 65 88 Q 71 86 77 85 L 87 82 Q 90 81 96 80 Q 112 75 117 76 Q 126 82 130 86 L 109 87 Q 104 84 86 90" fill="#220000" /><path d="M 130 86 Q 133 89 130 92 Q 125 97 123 105 Q 116 138 112 143 Q 109 148 106 147 Q 102 145 98 138 L 101 133 Q 105 129 111 94 Q 112 89 109 87" fill="#220000" /><path d="M 76 118 Q 63 120 63 120 Q 58 117 61 116 Q 69 113 77 110 L 86 107 Q 89 106 92 106 Q 97 107 100 109 Q 102 112 97 113 Q 92 114 86 116" fill="#330000" /><path d="M 75 143 Q 59 147 58 147 L 58 141 Q 66 138 76 135 L 86 132 Q 96 129 101 133 L 98 138 Q 92 139 86 141" fill="#440000" /><path d="M 59 176 L 37 185 Q 27 189 17 183 Q 13 180 14 177 Q 14 175 17 175 Q 41 171 75 162 L 85 159 Q 95 156 108 153 Q 113 151 120 154 Q 124 156 124 159 Q 124 161 120 162 Q 101 165 85 169 L 75 172" fill="#550000" /><path d="M 75 162 Q 75 152 75 143 L 76 135 Q 76 126 76 118 L 77 110 Q 77 101 77 93 L 77 85 Q 77 75 77 67 L 77 56 Q 77 33 68 19 Q 66 14 67 13 Q 73 10 78 14 Q 92 22 94 25 Q 95 28 93 32 Q 90 41 89 52 L 88 64 Q 87 78 87 82 L 86 90 Q 86 99 86 107 L 86 116 Q 86 124 86 132 L 86 141 Q 85 150 85 159 L 85 169 Q 85 218 85 227 Q 85 243 78 247 Q 76 249 75 248 Q 72 247 71 242 Q 64 226 67 216 Q 75 191 75 172" fill="#660000" /><path d="M 161 76 Q 161 77 160 78 Q 160 82 155 77 Q 152 75 151 70 Q 145 54 139 45 Q 137 42 138 40 Q 139 39 142 40 Q 148 40 150 41 L 155 47 Q 156 52 160 69" fill="#770000" /><path d="M 150 41 Q 167 37 186 31 Q 199 23 216 37 L 194 39 Q 192 37 157 46 Q 156 47 155 47" fill="#880000" /><path d="M 216 37 Q 220 41 215 45 Q 209 49 203 62 L 189 61 Q 197 41 194 39" fill="#880000" /><path d="M 208 65 L 208 67 Q 208 69 205 69 Q 178 72 165 76 Q 163 76 161 76 L 160 69 Q 172 66 189 61 L 203 62" fill="#990000" /><path d="M 142 105 Q 138 105 131 101 Q 126 97 133 96 Q 167 90 205 81 Q 223 75 231 80 Q 237 82 236 84 Q 234 87 232 87 Q 203 91 202 92 L 189 95 Q 168 99 152 103" fill="#aa0000" /><path d="M 145 173 Q 144 111 142 105 L 152 103 Q 158 107 156 112 Q 156 116 156 121 L 155 128 Q 155 135 155 144 L 155 151 Q 155 161 154 172" fill="#bb0000" /><path d="M 205 94 L 208 95 Q 211 98 210 102 Q 207 119 206 161 L 206 173 Q 206 194 206 203 Q 207 222 204 242 Q 203 256 199 259 Q 197 259 196 257 Q 195 257 195 257 Q 192 250 193 174 L 194 163 Q 194 135 194 114 Q 194 107 189 95 L 202 92" fill="#cc0000" /><path d="M 156 121 Q 169 114 176 115 Q 181 116 184 119 Q 186 121 181 122 Q 170 125 155 128" fill="#dd0000" /><path d="M 155 144 Q 166 138 177 139 Q 183 139 185 143 Q 187 146 182 147 Q 171 148 155 151" fill="#ee0000" /><path d="M 206 161 Q 215 158 222 157 Q 238 152 252 161 Q 256 164 255 167 Q 253 169 238 170 Q 220 171 206 173 L 193 174 Q 162 177 124 189 Q 120 190 115 189 Q 110 188 107 185 Q 103 181 108 180 Q 127 176 145 173 L 154 172 Q 161 170 194 163" fill="#ff0000" /></svg>