<svg xmlns="http://www.w3.org/2000/svg" xmlns:xlink="http://www.w3.org/1999/xlink" width="270" height="270"><path d="M 0 0 L 270 270 M 270 0 L 0 270 M 135 0 L 135 270 M 0 135 L 270 135" stroke="#CCCCCC" /><path d="M 64 26 L 63 23 Q 63 21 64 20 Q 68 18 83 25 Q 90 28 91 32 Q 93 39 92 43 Q 90 46 88 46 Q 84 46 81 43 Q 75 36 70 31" fill="#CCCCCC"/><path d="M 53 68 L 62 65 Q 70 63 78 60 Q 84 57 92 57 Q 99 59 100 62 Q 102 64 100 65 Q 99 66 92 68 Q 77 72 63 76 Q 50 80 40 75 Q 33 71 42 69" fill="#CCCCCC"/><path d="M 40 92 L 40 90 Q 41 88 43 89 Q 55 96 56 103 Q 57 108 56 110 Q 54 113 51 112 Q 46 110 40 94" fill="#CCCCCC"/><path d="M 68 118 Q 69 115 70 112 Q 80 86 78 79 Q 77 76 79 75 Q 82 74 85 76 Q 92 81 94 84 Q 96 86 92 89 Q 88 95 76 116" fill="#CCCCCC"/><path d="M 55 131 Q 47 134 36 138 Q 26 141 18 136 Q 14 133 15 131 Q 15 129 18 129 Q 32 127 68 118 L 76 116 Q 92 111 99 113 Q 103 115 103 118 Q 103 119 100 120 Q 80 124 66 128" fill="#CCCCCC"/><path d="M 53 166 L 52 166 Q 41 170 31 166 Q 24 162 32 160 Q 46 158 57 155 L 71 150 Q 81 144 90 145 Q 96 146 98 149 Q 100 150 98 152 Q 96 153 88 156 Q 78 158 69 162 L 55 165" fill="#CCCCCC"/><path d="M 57 155 Q 58 137 55 131 L 66 128 Q 68 129 70 130 Q 75 133 73 137 Q 72 144 71 150 L 69 162 Q 60 207 42 224 Q 26 237 19 237 Q 16 237 17 235 Q 18 232 22 230 Q 51 206 55 165" fill="#CCCCCC"/><path d="M 112 101 L 110 102 Q 106 104 101 101 Q 96 99 97 97 Q 97 95 100 96 Q 106 95 117 93 L 130 89 Q 135 87 139 85 Q 144 83 148 85 Q 155 88 159 91 Q 160 93 157 97 L 140 96 Q 140 95 138 96 Q 133 96 128 97 L 116 101" fill="#CCCCCC"/><path d="M 157 97 Q 152 105 152 118 Q 148 176 135 192 Q 130 198 126 199 L 127 179 Q 130 175 134 163 Q 140 145 142 109 Q 142 99 140 96" fill="#CCCCCC"/><path d="M 126 199 Q 122 199 121 195 Q 117 188 110 178 Q 108 173 112 175 Q 116 177 121 179 Q 125 180 127 179" fill="#CCCCCC"/><path d="M 117 93 Q 120 75 120 72 Q 121 55 117 45 Q 115 42 118 41 Q 121 40 125 42 Q 132 45 135 49 Q 137 52 135 55 Q 130 71 130 89 L 128 97 Q 123 129 110 157 Q 107 163 104 169 Q 86 197 78 199 Q 75 199 76 197 Q 76 196 77 194 Q 108 151 116 101" fill="#CCCCCC"/><path d="M 177 21 L 176 18 Q 176 15 177 14 Q 179 14 182 15 Q 200 21 202 28 Q 203 35 202 38 Q 200 41 198 41 Q 194 40 191 37 Q 187 31 182 26" fill="#CCCCCC"/><path d="M 182 54 L 193 51 Q 203 48 213 45 Q 219 42 227 43 Q 234 44 235 47 Q 236 49 235 51 Q 233 52 225 54 Q 206 59 189 63 Q 176 67 166 62 Q 159 58 168 56" fill="#CCCCCC"/><path d="M 165 78 L 166 77 Q 167 74 169 75 Q 172 76 179 82 Q 183 85 184 89 Q 186 94 184 96 Q 182 100 180 99 Q 174 97 167 81" fill="#CCCCCC"/><path d="M 201 105 Q 201 104 201 103 Q 201 100 203 95 Q 209 71 207 66 Q 205 63 207 62 Q 211 61 215 63 Q 222 67 224 71 Q 226 73 223 76 Q 220 80 218 83 Q 209 101 206 104" fill="#CCCCCC"/><path d="M 182 118 Q 178 119 174 120 Q 162 124 155 118 Q 152 115 156 114 Q 179 110 197 105 Q 199 105 201 105 L 206 104 Q 215 101 222 99 Q 238 94 251 102 Q 255 105 254 108 Q 252 110 248 110 Q 206 110 194 116" fill="#CCCCCC"/><path d="M 183 152 L 180 153 Q 168 155 160 149 Q 155 145 162 144 Q 170 143 178 142 Q 183 141 188 140 L 202 138 Q 202 137 203 137 Q 228 130 235 136 Q 240 138 240 141 Q 238 144 235 144 Q 208 148 201 149 L 188 151" fill="#CCCCCC"/><path d="M 188 140 Q 188 128 183 120 Q 182 118 182 118 L 194 116 Q 197 117 201 120 Q 205 122 204 126 Q 203 130 202 135 Q 202 136 202 138 L 201 149 Q 200 238 200 238 Q 199 252 195 254 Q 193 255 192 253 Q 191 252 190 251 Q 188 246 188 151" fill="#CCCCCC"/><path d="M 64 26 L 63 23 Q 63 21 64 20 Q 68 18 83 25 Q 90 28 91 32 Q 93 39 92 43 Q 90 46 88 46 Q 84 46 81 43 Q 75 36 70 31" fill="#000000" /><path d="M 53 68 L 62 65 Q 70 63 78 60 Q 84 57 92 57 Q 99 59 100 62 Q 102 64 100 65 Q 99 66 92 68 Q 77 72 63 76 Q 50 80 40 75 Q 33 71 42 69" fill="#110000" /><path d="M 40 92 L 40 90 Q 41 88 43 89 Q 55 96 56 103 Q 57 108 56 110 Q 54 113 51 112 Q 46 110 40 94" fill="#220000" /><path d="M 68 118 Q 69 115 70 112 Q 80 86 78 79 Q 77 76 79 75 Q 82 74 85 76 Q 92 81 94 84 Q 96 86 92 89 Q 88 95 76 116" fill="#330000" /><path d="M 55 131 Q 47 134 36 138 Q 26 141 18 136 Q 14 133 15 131 Q 15 129 18 129 Q 32 127 68 118 L 76 116 Q 92 111 99 113 Q 103 115 103 118 Q 103 119 100 120 Q 80 124 66 128" fill="#440000" /><path d="M 53 166 L 52 166 Q 41 170 31 166 Q 24 162 32 160 Q 46 158 57 155 L 71 150 Q 81 144 90 145 Q 96 146 98 149 Q 100 150 98 152 Q 96 153 88 156 Q 78 158 69 162 L 55 165" fill="#550000" /><path d="M 57 155 Q 58 137 55 131 L 66 128 Q 68 129 70 130 Q 75 133 73 137 Q 72 144 71 150 L 69 162 Q 60 207 42 224 Q 26 237 19 237 Q 16 237 17 235 Q 18 232 22 230 Q 51 206 55 165" fill="#660000" /><path d="M 112 101 L 110 102 Q 106 104 101 101 Q 96 99 97 97 Q 97 95 100 96 Q 106 95 117 93 L 130 89 Q 135 87 139 85 Q 144 83 148 85 Q 155 88 159 91 Q 160 93 157 97 L 140 96 Q 140 95 138 96 Q 133 96 128 97 L 116 101" fill="#770000" /><path d="M 157 97 Q 152 105 152 118 Q 148 176 135 192 Q 130 198 126 199 L 127 179 Q 130 175 134 163 Q 140 145 142 109 Q 142 99 140 96" fill="#770000" /><path d="M 126 199 Q 122 199 121 195 Q 117 188 110 178 Q 108 173 112 175 Q 116 177 121 179 Q 125 180 127 179" fill="#770000" /><path d="M 117 93 Q 120 75 120 72 Q 121 55 117 45 Q 115 42 118 41 Q 121 40 125 42 Q 132 45 135 49 Q 137 52 135 55 Q 130 71 130 89 L 128 97 Q 123 129 110 157 Q 107 163 104 169 Q 86 197 78 199 Q 75 199 76 197 Q 76 196 77 194 Q 108 151 116 101" fill="#880000" /><path d="M 177 21 L 176 18 Q 176 15 177 14 Q 179 14 182 15 Q 200 21 202 28 Q 203 35 202 38 Q 200 41 198 41 Q 194 40 191 37 Q 187 31 182 26" fill="#990000" /><path d="M 182 54 L 193 51 Q 203 48 213 45 Q 219 42 227 43 Q 234 44 235 47 Q 236 49 235 51 Q 233 52 225 54 Q 206 59 189 63 Q 176 67 166 62 Q 159 58 168 56" fill="#aa0000" /><path d="M 165 78 L 166 77 Q 167 74 169 75 Q 172 76 179 82 Q 183 85 184 89 Q 186 94 184 96 Q 182 100 180 99 Q 174 97 167 81" fill="#bb0000" /><path d="M 201 105 Q 201 104 201 103 Q 201 100 203 95 Q 209 71 207 66 Q 205 63 207 62 Q 211 61 215 63 Q 222 67 224 71 Q 226 73 223 76 Q 220 80 218 83 Q 209 101 206 104" fill="#cc0000" /><path d="M 182 118 Q 178 119 174 120 Q 162 124 155 118 Q 152 115 156 114 Q 179 110 197 105 Q 199 105 201 105 L 206 104 Q 215 101 222 99 Q 238 94 251 102 Q 255 105 254 108 Q 252 110 248 110 Q 206 110 194 116" fill="#dd0000" /><path d="M 183 152 L 180 153 Q 168 155 160 149 Q 155 145 162 144 Q 170 143 178 142 Q 183 141 188 140 L 202 138 Q 202 137 203 137 Q 228 130 235 136 Q 240 138 240 141 Q 238 144 235 144 Q 208 148 201 149 L 188 151" fill="#ee0000" /><path d="M 188 140 Q 188 128 183 120 Q 182 118 182 118 L 194 116 Q 197 117 201 120 Q 205 122 204 126 Q 203 130 202 135 Q 202 136 202 138 L 201 149 Q 200 238 200 238 Q 199 252 195 254 Q 193 255 192 253 Q 191 252 190 251 Q 188 246 188 151" fill="#ff0000" /></svg>