<svg xmlns="http://www.w3.org/2000/svg" xmlns:xlink="http://www.w3.org/1999/xlink" width="270" height="270"><path d="M 0 0 L 270 270 M 270 0 L 0 270 M 135 0 L 135 270 M 0 135 L 270 135" stroke="#CCCCCC" /><path d="M 123 58 L 131 52 Q 147 36 147 27 Q 146 24 149 23 Q 153 23 159 27 Q 165 31 169 36 Q 171 41 165 44 Q 158 46 140 59 Q 132 64 119 70 L 116 66" fill="#CCCCCC"/><path d="M 119 70 Q 120 73 120 76 Q 118 85 118 124 L 114 159 Q 111 164 108 162 Q 104 159 100 151 Q 98 145 102 139 Q 105 135 107 122 Q 110 82 101 66 Q 98 63 101 61 Q 102 60 106 60 Q 110 61 116 66" fill="#CCCCCC"/><path d="M 118 124 Q 118 129 120 130 Q 122 131 127 128 Q 139 121 148 116 Q 154 112 154 116 Q 153 118 149 122 Q 122 148 114 159" fill="#CCCCCC"/><path d="M 176 72 Q 206 65 213 60 Q 217 56 222 58 Q 234 63 236 65 Q 237 67 235 70 L 214 72 Q 214 71 210 71 Q 197 74 178 80" fill="#CCCCCC"/><path d="M 235 70 Q 232 75 228 113 Q 223 139 210 150 L 209 124 Q 214 112 216 85 Q 217 75 214 72" fill="#CCCCCC"/><path d="M 210 150 Q 206 154 201 149 Q 196 142 185 132 Q 180 127 186 128 Q 192 130 198 131 Q 205 132 209 124" fill="#CCCCCC"/><path d="M 164 200 L 163 91 Q 162 80 157 72 Q 156 69 158 67 Q 161 65 165 66 Q 168 67 176 72 L 178 80 Q 177 92 177 96 Q 176 148 177 161 Q 177 177 176 193 Q 174 207 171 210 Q 169 210 167 209 Q 166 206 164 200" fill="#CCCCCC"/><path d="M 54 38 L 53 35 Q 52 31 54 30 Q 56 29 60 30 Q 83 36 87 43 Q 89 52 88 56 Q 86 60 83 60 Q 79 60 75 56 Q 68 50 62 44" fill="#CCCCCC"/><path d="M 61 111 Q 32 120 22 114 Q 21 113 21 112 Q 22 110 23 111 Q 28 112 44 106 Q 55 103 64 97 Q 69 93 75 96 Q 84 101 89 105" fill="#CCCCCC"/><path d="M 62 152 Q 55 138 65 126 Q 71 119 66 114 Q 64 110 61 111 L 89 105 Q 94 109 88 114 Q 87 114 87 114 Q 66 136 74 152" fill="#CCCCCC"/><path d="M 72 182 L 72 182 Q 73 177 62 152 L 74 152 Q 83 169 82 177 Q 80 183 77 184 L 72 184" fill="#CCCCCC"/><path d="M 77 184 Q 88 185 99 190 Q 121 199 138 205 Q 183 220 245 220 Q 251 220 245 224 Q 231 234 214 239 Q 193 246 132 216 Q 98 200 80 195 Q 60 191 38 204 Q 33 208 30 206 Q 24 202 20 197 Q 18 195 19 193 Q 20 191 21 191 Q 38 190 50 186 Q 61 183 72 184" fill="#CCCCCC"/><path d="M 123 58 L 131 52 Q 147 36 147 27 Q 146 24 149 23 Q 153 23 159 27 Q 165 31 169 36 Q 171 41 165 44 Q 158 46 140 59 Q 132 64 119 70 L 116 66" fill="#000000" /><path d="M 119 70 Q 120 73 120 76 Q 118 85 118 124 L 114 159 Q 111 164 108 162 Q 104 159 100 151 Q 98 145 102 139 Q 105 135 107 122 Q 110 82 101 66 Q 98 63 101 61 Q 102 60 106 60 Q 110 61 116 66" fill="#2a0000" /><path d="M 118 124 Q 118 129 120 130 Q 122 131 127 128 Q 139 121 148 116 Q 154 112 154 116 Q 153 118 149 122 Q 122 148 114 159" fill="#2a0000" /><path d="M 176 72 Q 206 65 213 60 Q 217 56 222 58 Q 234 63 236 65 Q 237 67 235 70 L 214 72 Q 214 71 210 71 Q 197 74 178 80" fill="#550000" /><path d="M 235 70 Q 232 75 228 113 Q 223 139 210 150 L 209 124 Q 214 112 216 85 Q 217 75 214 72" fill="#550000" /><path d="M 210 150 Q 206 154 201 149 Q 196 142 185 132 Q 180 127 186 128 Q 192 130 198 131 Q 205 132 209 124" fill="#550000" /><path d="M 164 200 L 163 91 Q 162 80 157 72 Q 156 69 158 67 Q 161 65 165 66 Q 168 67 176 72 L 178 80 Q 177 92 177 96 Q 176 148 177 161 Q 177 177 176 193 Q 174 207 171 210 Q 169 210 167 209 Q 166 206 164 200" fill="#7f0000" /><path d="M 54 38 L 53 35 Q 52 31 54 30 Q 56 29 60 30 Q 83 36 87 43 Q 89 52 88 56 Q 86 60 83 60 Q 79 60 75 56 Q 68 50 62 44" fill="#aa0000" /><path d="M 61 111 Q 32 120 22 114 Q 21 113 21 112 Q 22 110 23 111 Q 28 112 44 106 Q 55 103 64 97 Q 69 93 75 96 Q 84 101 89 105" fill="#d40000" /><path d="M 62 152 Q 55 138 65 126 Q 71 119 66 114 Q 64 110 61 111 L 89 105 Q 94 109 88 114 Q 87 114 87 114 Q 66 136 74 152" fill="#d40000" /><path d="M 72 182 L 72 182 Q 73 177 62 152 L 74 152 Q 83 169 82 177 Q 80 183 77 184 L 72 184" fill="#d40000" /><path d="M 77 184 Q 88 185 99 190 Q 121 199 138 205 Q 183 220 245 220 Q 251 220 245 224 Q 231 234 214 239 Q 193 246 132 216 Q 98 200 80 195 Q 60 191 38 204 Q 33 208 30 206 Q 24 202 20 197 Q 18 195 19 193 Q 20 191 21 191 Q 38 190 50 186 Q 61 183 72 184" fill="#ff0000" /></svg>