<svg xmlns="http://www.w3.org/2000/svg" xmlns:xlink="http://www.w3.org/1999/xlink" width="270" height="270"><path d="M 0 0 L 270 270 M 270 0 L 0 270 M 135 0 L 135 270 M 0 135 L 270 135" stroke="#CCCCCC" /><path d="M 136 54 Q 125 55 116 51 Q 109 47 118 45 Q 137 43 160 35 Q 183 27 190 28 Q 198 30 200 32 Q 201 35 199 37 Q 196 38 145 52" fill="#CCCCCC"/><path d="M 131 86 Q 130 87 130 88 Q 110 106 97 106 Q 95 105 97 104 Q 111 92 117 87 Q 117 86 118 86 Q 137 64 136 54 L 145 52 Q 148 53 151 56 Q 153 59 153 61 Q 153 63 149 67 Q 141 76 136 82" fill="#CCCCCC"/><path d="M 181 127 L 182 130 Q 185 142 182 164 Q 177 195 166 201 L 161 172 Q 164 171 167 161 Q 172 137 167 121 L 159 107 Q 157 104 154 102 L 141 92 Q 138 90 135 89 Q 132 87 131 86 L 136 82 Q 156 87 170 103 L 173 107 Q 176 111 178 116 L 180 124" fill="#CCCCCC"/><path d="M 166 201 Q 162 202 158 197 Q 151 188 133 175 Q 130 172 130 170 Q 131 168 144 171 Q 159 173 161 172" fill="#CCCCCC"/><path d="M 154 102 Q 143 110 143 112 Q 110 137 98 136 Q 92 136 97 134 Q 137 107 141 92" fill="#CCCCCC"/><path d="M 167 121 Q 166 121 166 123 Q 166 123 158 133 Q 138 155 122 163 Q 105 173 99 170 Q 97 170 100 167 Q 144 137 159 107 L 159 107" fill="#CCCCCC"/><path d="M 170 103 Q 197 74 197 67 Q 197 62 201 62 Q 207 63 212 68 Q 217 73 218 78 Q 219 81 214 82 Q 201 89 173 107" fill="#CCCCCC"/><path d="M 178 116 Q 178 116 179 116 Q 226 127 232 141 Q 237 151 234 154 Q 233 157 231 157 Q 227 157 223 153 Q 200 135 180 124" fill="#CCCCCC"/><path d="M 56 37 L 55 34 Q 55 31 56 30 Q 60 28 80 35 Q 88 39 90 44 Q 92 53 91 57 Q 90 60 87 61 Q 83 61 79 57 Q 71 49 64 43" fill="#CCCCCC"/><path d="M 58 109 Q 36 118 26 114 Q 24 113 24 112 Q 25 110 26 110 Q 33 111 55 98 Q 65 90 71 93 Q 80 97 85 101" fill="#CCCCCC"/><path d="M 59 148 Q 52 135 62 123 Q 68 116 63 110 Q 60 108 58 109 L 85 101 Q 91 106 84 111 Q 63 132 71 148" fill="#CCCCCC"/><path d="M 71 182 L 71 182 Q 72 175 59 148 L 71 148 Q 82 167 80 177 Q 80 181 77 183 L 71 183" fill="#CCCCCC"/><path d="M 77 183 Q 87 184 98 189 Q 124 199 145 206 Q 184 217 243 217 Q 249 217 243 221 Q 229 231 212 236 Q 211 236 211 237 Q 189 242 130 214 Q 96 198 78 194 Q 59 190 41 203 Q 36 207 33 205 Q 26 202 22 197 Q 20 194 21 193 Q 22 191 23 190 Q 38 189 48 186 Q 60 182 71 183" fill="#CCCCCC"/><path d="M 136 54 Q 125 55 116 51 Q 109 47 118 45 Q 137 43 160 35 Q 183 27 190 28 Q 198 30 200 32 Q 201 35 199 37 Q 196 38 145 52" fill="#000000" /><path d="M 131 86 Q 130 87 130 88 Q 110 106 97 106 Q 95 105 97 104 Q 111 92 117 87 Q 117 86 118 86 Q 137 64 136 54 L 145 52 Q 148 53 151 56 Q 153 59 153 61 Q 153 63 149 67 Q 141 76 136 82" fill="#1c0000" /><path d="M 181 127 L 182 130 Q 185 142 182 164 Q 177 195 166 201 L 161 172 Q 164 171 167 161 Q 172 137 167 121 L 159 107 Q 157 104 154 102 L 141 92 Q 138 90 135 89 Q 132 87 131 86 L 136 82 Q 156 87 170 103 L 173 107 Q 176 111 178 116 L 180 124" fill="#380000" /><path d="M 166 201 Q 162 202 158 197 Q 151 188 133 175 Q 130 172 130 170 Q 131 168 144 171 Q 159 173 161 172" fill="#380000" /><path d="M 154 102 Q 143 110 143 112 Q 110 137 98 136 Q 92 136 97 134 Q 137 107 141 92" fill="#550000" /><path d="M 167 121 Q 166 121 166 123 Q 166 123 158 133 Q 138 155 122 163 Q 105 173 99 170 Q 97 170 100 167 Q 144 137 159 107 L 159 107" fill="#710000" /><path d="M 170 103 Q 197 74 197 67 Q 197 62 201 62 Q 207 63 212 68 Q 217 73 218 78 Q 219 81 214 82 Q 201 89 173 107" fill="#8d0000" /><path d="M 178 116 Q 178 116 179 116 Q 226 127 232 141 Q 237 151 234 154 Q 233 157 231 157 Q 227 157 223 153 Q 200 135 180 124" fill="#aa0000" /><path d="M 56 37 L 55 34 Q 55 31 56 30 Q 60 28 80 35 Q 88 39 90 44 Q 92 53 91 57 Q 90 60 87 61 Q 83 61 79 57 Q 71 49 64 43" fill="#c60000" /><path d="M 58 109 Q 36 118 26 114 Q 24 113 24 112 Q 25 110 26 110 Q 33 111 55 98 Q 65 90 71 93 Q 80 97 85 101" fill="#e20000" /><path d="M 59 148 Q 52 135 62 123 Q 68 116 63 110 Q 60 108 58 109 L 85 101 Q 91 106 84 111 Q 63 132 71 148" fill="#e20000" /><path d="M 71 182 L 71 182 Q 72 175 59 148 L 71 148 Q 82 167 80 177 Q 80 181 77 183 L 71 183" fill="#e20000" /><path d="M 77 183 Q 87 184 98 189 Q 124 199 145 206 Q 184 217 243 217 Q 249 217 243 221 Q 229 231 212 236 Q 211 236 211 237 Q 189 242 130 214 Q 96 198 78 194 Q 59 190 41 203 Q 36 207 33 205 Q 26 202 22 197 Q 20 194 21 193 Q 22 191 23 190 Q 38 189 48 186 Q 60 182 71 183" fill="#ff0000" /></svg>