<svg xmlns="http://www.w3.org/2000/svg" xmlns:xlink="http://www.w3.org/1999/xlink" width="270" height="270"><path d="M 0 0 L 270 270 M 270 0 L 0 270 M 135 0 L 135 270 M 0 135 L 270 135" stroke="#CCCCCC" /><path d="M 120 91 Q 116 92 114 93 Q 101 98 90 93 Q 83 90 92 88 Q 104 85 120 79 L 131 74 Q 135 73 139 73 Q 146 74 148 76 Q 149 78 147 80 Q 146 81 140 84 Q 135 85 131 87" fill="#000000" /><path d="M 130 145 L 130 156 Q 130 187 123 196 Q 122 197 120 196 L 117 167 Q 118 163 119 130 L 119 119 Q 120 108 120 91 L 120 79 Q 119 53 119 46 Q 118 36 115 31 Q 111 27 115 26 Q 119 25 128 29 Q 134 32 136 35 Q 137 38 134 41 Q 131 45 131 74 L 131 87 Q 130 100 130 113 L 130 122" fill="#1c0000" /><path d="M 120 196 Q 117 195 115 190 Q 112 184 99 172 Q 96 169 96 167 Q 97 166 101 168 Q 110 170 113 171 Q 117 172 117 167" fill="#1c0000" /><path d="M 119 130 Q 105 139 96 149 Q 93 151 91 151 Q 83 148 77 146 Q 75 144 75 141 Q 75 139 77 138 Q 84 137 88 135 Q 104 127 119 119 L 130 113 Q 137 110 144 106 Q 146 105 148 106 Q 148 109 145 111 Q 144 112 130 122" fill="#380000" /><path d="M 172 72 Q 174 70 176 68 Q 197 46 197 41 Q 196 38 199 38 Q 202 37 208 41 Q 214 46 217 50 Q 219 55 213 57 Q 211 58 173 77" fill="#550000" /><path d="M 170 112 Q 167 134 161 153 Q 160 155 159 156 Q 144 185 138 186 Q 136 187 136 184 Q 136 183 137 181 Q 149 159 153 141 Q 159 119 157 89 Q 156 74 153 70 Q 151 67 154 65 Q 157 64 161 66 Q 168 68 172 72 L 173 77 Q 173 77 172 78 Q 172 81 171 96 Q 171 100 170 105" fill="#710000" /><path d="M 191 110 Q 186 111 181 112 Q 176 112 172 112 Q 171 112 170 112 L 170 105 Q 182 102 194 99 Q 202 97 213 94 Q 229 86 239 91 Q 244 95 244 98 Q 244 99 241 100 Q 205 107 204 107" fill="#8d0000" /><path d="M 196 191 L 196 172 Q 196 118 193 112 Q 192 111 191 110 L 204 107 Q 206 108 208 110 Q 212 112 211 116 Q 209 125 209 128 Q 208 162 208 171 Q 208 191 205 203 Q 204 206 202 207 Q 200 208 199 206 Q 198 204 197 198" fill="#aa0000" /><path d="M 54 39 L 53 35 Q 52 32 54 31 Q 57 29 76 36 Q 84 40 85 45 Q 87 53 86 58 Q 84 61 81 61 Q 76 61 73 58 Q 67 51 61 45" fill="#c60000" /><path d="M 52 114 Q 30 123 20 119 Q 18 118 19 117 Q 19 116 21 116 Q 25 116 37 110 Q 47 106 53 100 Q 58 95 63 99 Q 72 102 77 106" fill="#e20000" /><path d="M 53 152 Q 48 140 56 128 Q 61 120 56 115 Q 53 113 52 114 L 77 106 Q 82 110 77 114 Q 73 119 68 128 Q 59 142 65 152" fill="#e20000" /><path d="M 65 175 L 53 152 L 65 152 Q 72 163 74 168 Q 77 180 72 187 L 64 186" fill="#e20000" /><path d="M 72 187 Q 81 187 90 191 Q 115 201 137 207 Q 183 220 245 218 Q 252 218 246 222 Q 232 232 215 238 Q 215 238 214 238 Q 190 244 128 217 Q 90 200 71 197 Q 53 194 39 207 Q 34 211 31 210 Q 24 207 20 203 Q 17 200 18 198 Q 18 196 20 196 Q 32 194 40 191 Q 52 186 64 186" fill="#ff0000" /></svg>