<svg xmlns="http://www.w3.org/2000/svg" xmlns:xlink="http://www.w3.org/1999/xlink" width="270" height="270"><path d="M 0 0 L 270 270 M 270 0 L 0 270 M 135 0 L 135 270 M 0 135 L 270 135" stroke="#CCCCCC" /><path d="M 182 36 Q 180 34 175 36 Q 157 41 137 45 Q 133 47 131 47 L 127 40 Q 142 37 164 30 Q 183 22 189 24 Q 201 30 205 34" fill="#CCCCCC"/><path d="M 177 57 Q 180 50 183 41 Q 184 38 182 36 L 205 34 Q 208 38 204 43 Q 198 45 191 58" fill="#CCCCCC"/><path d="M 144 74 L 134 77 Q 131 78 129 78 Q 128 77 127 77 L 128 70 Q 149 66 177 57 L 191 58 Q 195 60 195 62 Q 195 64 193 64 Q 179 66 169 69 L 163 70" fill="#CCCCCC"/><path d="M 127 77 Q 123 115 112 143 Q 109 149 107 154 Q 91 182 83 184 Q 81 185 81 182 Q 82 181 83 179 Q 100 149 107 129 Q 107 126 108 124 Q 124 57 111 39 Q 110 37 112 35 Q 115 34 120 36 Q 124 38 127 40 L 131 47 Q 129 48 129 56 Q 128 63 128 70" fill="#CCCCCC"/><path d="M 169 69 Q 172 70 175 72 Q 179 75 178 79 Q 177 84 177 91 Q 176 110 173 113 Q 171 115 169 113 Q 165 107 166 102 Q 166 100 166 98 Q 166 92 163 70" fill="#CCCCCC"/><path d="M 136 84 L 136 82 Q 136 80 138 80 Q 149 80 153 85 Q 155 89 155 91 Q 155 95 152 95 Q 148 95 137 85" fill="#CCCCCC"/><path d="M 134 112 L 136 111 Q 159 98 160 98 Q 160 99 156 104 Q 145 115 143 118 Q 142 120 140 120 Q 135 118 132 117 Q 130 117 130 115 Q 129 113 131 113" fill="#CCCCCC"/><path d="M 201 70 L 200 66 Q 200 64 202 64 Q 204 63 208 66 Q 213 69 215 72 Q 217 75 213 77 Q 209 78 198 86 Q 193 89 185 92 Q 182 93 184 90 Q 196 75 198 73" fill="#CCCCCC"/><path d="M 189 104 L 189 101 Q 189 99 191 100 Q 205 102 210 104 Q 214 106 215 109 Q 218 116 217 118 Q 216 120 214 120 Q 212 120 209 117 Q 199 110 191 105" fill="#CCCCCC"/><path d="M 142 144 Q 125 159 116 159 Q 111 160 115 157 Q 134 139 135 130 Q 135 127 137 127 Q 139 127 145 129 Q 151 130 151 133 Q 152 135 149 137 Q 148 138 146 140" fill="#CCCCCC"/><path d="M 166 147 Q 148 150 142 144 L 146 140 Q 156 139 166 138 L 179 135 Q 193 130 199 131 Q 205 133 207 136 Q 208 137 206 139 Q 205 140 197 142 Q 187 143 179 145" fill="#CCCCCC"/><path d="M 165 174 L 164 174 Q 145 176 128 181 Q 125 182 121 181 Q 117 180 114 177 Q 111 173 115 173 Q 142 169 166 166 L 178 164 Q 194 161 205 159 Q 219 155 231 163 Q 234 166 233 168 Q 232 170 228 170 Q 194 170 178 172 L 166 174" fill="#CCCCCC"/><path d="M 166 166 Q 166 156 166 147 L 166 138 Q 166 126 162 121 Q 161 118 163 117 Q 166 115 169 116 Q 172 116 179 121 Q 182 123 181 127 Q 180 129 180 132 Q 179 133 179 135 L 179 145 Q 178 156 178 164 L 178 172 Q 178 204 175 211 Q 174 214 173 214 Q 171 215 170 214 Q 167 210 166 181 Q 166 177 166 174" fill="#CCCCCC"/><path d="M 49 49 L 48 47 Q 48 43 49 42 Q 53 41 72 47 Q 80 51 82 56 Q 84 64 83 68 Q 82 71 79 71 Q 74 71 70 68 Q 63 61 57 55" fill="#CCCCCC"/><path d="M 52 116 Q 49 114 48 115 Q 30 124 21 120 Q 19 119 19 118 Q 19 116 21 116 Q 27 116 44 105 Q 53 96 60 99 Q 69 103 74 107 Q 79 111 74 116" fill="#CCCCCC"/><path d="M 46 154 Q 44 147 52 130 Q 57 122 52 116 L 74 116 Q 73 116 73 117 Q 52 142 61 154" fill="#CCCCCC"/><path d="M 62 191 L 62 191 Q 65 179 54 163 Q 48 159 46 154 L 61 154 Q 84 181 66 192 L 62 192" fill="#CCCCCC"/><path d="M 66 192 Q 66 192 67 192 Q 83 192 101 201 Q 162 224 248 219 Q 252 219 252 220 Q 253 221 251 222 Q 221 239 202 244 Q 187 247 151 230 Q 137 223 121 217 Q 80 202 68 201 Q 50 199 41 209 Q 34 215 29 212 Q 18 207 17 204 Q 16 201 20 201 Q 28 200 39 196 Q 49 192 62 192" fill="#CCCCCC"/><path d="M 182 36 Q 180 34 175 36 Q 157 41 137 45 Q 133 47 131 47 L 127 40 Q 142 37 164 30 Q 183 22 189 24 Q 201 30 205 34" fill="#000000" /><path d="M 177 57 Q 180 50 183 41 Q 184 38 182 36 L 205 34 Q 208 38 204 43 Q 198 45 191 58" fill="#000000" /><path d="M 144 74 L 134 77 Q 131 78 129 78 Q 128 77 127 77 L 128 70 Q 149 66 177 57 L 191 58 Q 195 60 195 62 Q 195 64 193 64 Q 179 66 169 69 L 163 70" fill="#110000" /><path d="M 127 77 Q 123 115 112 143 Q 109 149 107 154 Q 91 182 83 184 Q 81 185 81 182 Q 82 181 83 179 Q 100 149 107 129 Q 107 126 108 124 Q 124 57 111 39 Q 110 37 112 35 Q 115 34 120 36 Q 124 38 127 40 L 131 47 Q 129 48 129 56 Q 128 63 128 70" fill="#220000" /><path d="M 169 69 Q 172 70 175 72 Q 179 75 178 79 Q 177 84 177 91 Q 176 110 173 113 Q 171 115 169 113 Q 165 107 166 102 Q 166 100 166 98 Q 166 92 163 70" fill="#330000" /><path d="M 136 84 L 136 82 Q 136 80 138 80 Q 149 80 153 85 Q 155 89 155 91 Q 155 95 152 95 Q 148 95 137 85" fill="#440000" /><path d="M 134 112 L 136 111 Q 159 98 160 98 Q 160 99 156 104 Q 145 115 143 118 Q 142 120 140 120 Q 135 118 132 117 Q 130 117 130 115 Q 129 113 131 113" fill="#550000" /><path d="M 201 70 L 200 66 Q 200 64 202 64 Q 204 63 208 66 Q 213 69 215 72 Q 217 75 213 77 Q 209 78 198 86 Q 193 89 185 92 Q 182 93 184 90 Q 196 75 198 73" fill="#660000" /><path d="M 189 104 L 189 101 Q 189 99 191 100 Q 205 102 210 104 Q 214 106 215 109 Q 218 116 217 118 Q 216 120 214 120 Q 212 120 209 117 Q 199 110 191 105" fill="#770000" /><path d="M 142 144 Q 125 159 116 159 Q 111 160 115 157 Q 134 139 135 130 Q 135 127 137 127 Q 139 127 145 129 Q 151 130 151 133 Q 152 135 149 137 Q 148 138 146 140" fill="#880000" /><path d="M 166 147 Q 148 150 142 144 L 146 140 Q 156 139 166 138 L 179 135 Q 193 130 199 131 Q 205 133 207 136 Q 208 137 206 139 Q 205 140 197 142 Q 187 143 179 145" fill="#990000" /><path d="M 165 174 L 164 174 Q 145 176 128 181 Q 125 182 121 181 Q 117 180 114 177 Q 111 173 115 173 Q 142 169 166 166 L 178 164 Q 194 161 205 159 Q 219 155 231 163 Q 234 166 233 168 Q 232 170 228 170 Q 194 170 178 172 L 166 174" fill="#aa0000" /><path d="M 166 166 Q 166 156 166 147 L 166 138 Q 166 126 162 121 Q 161 118 163 117 Q 166 115 169 116 Q 172 116 179 121 Q 182 123 181 127 Q 180 129 180 132 Q 179 133 179 135 L 179 145 Q 178 156 178 164 L 178 172 Q 178 204 175 211 Q 174 214 173 214 Q 171 215 170 214 Q 167 210 166 181 Q 166 177 166 174" fill="#bb0000" /><path d="M 49 49 L 48 47 Q 48 43 49 42 Q 53 41 72 47 Q 80 51 82 56 Q 84 64 83 68 Q 82 71 79 71 Q 74 71 70 68 Q 63 61 57 55" fill="#cc0000" /><path d="M 52 116 Q 49 114 48 115 Q 30 124 21 120 Q 19 119 19 118 Q 19 116 21 116 Q 27 116 44 105 Q 53 96 60 99 Q 69 103 74 107 Q 79 111 74 116" fill="#dd0000" /><path d="M 46 154 Q 44 147 52 130 Q 57 122 52 116 L 74 116 Q 73 116 73 117 Q 52 142 61 154" fill="#dd0000" /><path d="M 62 191 L 62 191 Q 65 179 54 163 Q 48 159 46 154 L 61 154 Q 84 181 66 192 L 62 192" fill="#ee0000" /><path d="M 66 192 Q 66 192 67 192 Q 83 192 101 201 Q 162 224 248 219 Q 252 219 252 220 Q 253 221 251 222 Q 221 239 202 244 Q 187 247 151 230 Q 137 223 121 217 Q 80 202 68 201 Q 50 199 41 209 Q 34 215 29 212 Q 18 207 17 204 Q 16 201 20 201 Q 28 200 39 196 Q 49 192 62 192" fill="#ff0000" /></svg>