<svg xmlns="http://www.w3.org/2000/svg" xmlns:xlink="http://www.w3.org/1999/xlink" width="270" height="270"><path d="M 0 0 L 270 270 M 270 0 L 0 270 M 135 0 L 135 270 M 0 135 L 270 135" stroke="#CCCCCC" /><path d="M 140 41 Q 149 20 148 15 Q 146 12 149 12 Q 151 10 156 12 Q 162 14 166 17 Q 169 20 165 23 Q 157 28 148 38" fill="#CCCCCC"/><path d="M 139 97 L 139 97 Q 139 103 135 102 Q 128 97 127 84 Q 126 54 119 42 Q 117 39 119 38 Q 120 38 121 38 Q 126 39 131 43 L 135 48 Q 135 54 135 58 L 136 62 L 135 62 Q 136 69 136 74 L 137 79 Q 138 85 139 91" fill="#CCCCCC"/><path d="M 179 39 Q 177 38 173 39 Q 149 44 139 48 Q 137 49 135 48 L 131 43 Q 134 42 140 41 L 148 38 Q 158 35 170 33 Q 183 29 187 31 Q 197 36 202 39" fill="#CCCCCC"/><path d="M 176 85 Q 178 78 181 49 Q 182 40 179 39 L 202 39 Q 205 42 201 46 Q 194 52 191 64 Q 188 87 184 92 Q 183 95 180 96 Q 177 97 176 93 Q 176 92 175 92" fill="#CCCCCC"/><path d="M 135 58 Q 161 50 165 51 Q 170 52 172 54 Q 174 57 169 58 Q 157 59 141 63 Q 137 63 136 62" fill="#CCCCCC"/><path d="M 136 74 Q 160 66 166 66 Q 171 67 173 70 Q 175 72 170 73 Q 157 76 140 79 Q 138 79 137 79" fill="#CCCCCC"/><path d="M 148 96 Q 144 96 141 97 Q 140 97 139 97 L 139 91 Q 169 84 174 84 Q 175 85 176 85 L 175 92 Q 166 93 155 95" fill="#CCCCCC"/><path d="M 162 111 Q 159 110 157 108 Q 148 98 148 96 L 155 95 Q 163 98 166 102 Q 168 107 166 111" fill="#CCCCCC"/><path d="M 110 127 Q 108 131 105 140 Q 100 151 98 152 Q 96 153 94 151 Q 92 147 92 143 Q 92 138 94 135 Q 101 119 101 112 Q 101 110 102 109 Q 104 108 105 109 Q 109 112 113 120" fill="#CCCCCC"/><path d="M 144 121 L 139 123 L 134 124 Q 126 125 121 128 Q 115 129 110 127 L 113 120 Q 142 114 162 111 L 166 111 Q 174 108 197 105 Q 218 101 224 105 L 209 112 Q 200 110 170 117 L 162 118" fill="#CCCCCC"/><path d="M 224 105 Q 240 115 240 118 Q 241 120 233 123 Q 223 126 211 135 Q 207 138 205 137 Q 203 136 205 133 Q 211 117 211 116 Q 213 113 209 112" fill="#CCCCCC"/><path d="M 139 123 Q 139 123 140 123 Q 142 125 144 129 Q 145 131 144 132 Q 142 134 140 136 Q 126 156 116 156 Q 115 156 115 155 Q 115 154 116 154 Q 122 148 126 143 Q 134 132 134 125 Q 134 124 134 124" fill="#CCCCCC"/><path d="M 170 117 Q 175 120 174 124 Q 172 127 173 132 L 167 139 Q 165 137 165 133 Q 163 119 162 118" fill="#CCCCCC"/><path d="M 173 132 Q 173 135 173 136 Q 180 142 191 136 Q 194 134 197 135 Q 202 137 204 139 Q 205 141 203 143 Q 201 144 195 145 Q 174 148 167 139" fill="#CCCCCC"/><path d="M 146 143 L 147 141 Q 147 139 148 139 Q 159 139 163 145 Q 165 149 165 151 Q 164 154 161 154 Q 156 154 148 144" fill="#CCCCCC"/><path d="M 147 167 Q 136 169 127 171 Q 118 173 111 169 Q 107 165 113 164 Q 149 158 162 156 Q 162 155 163 155 Q 190 148 194 149 Q 198 150 199 151 Q 204 153 204 156 Q 202 159 200 158 Q 176 161 158 165" fill="#CCCCCC"/><path d="M 157 177 L 155 179 Q 141 198 127 204 Q 111 211 107 208 Q 106 207 107 206 Q 141 189 147 167 L 158 165 Q 160 167 161 169 L 159 175" fill="#CCCCCC"/><path d="M 161 169 Q 167 170 173 171 Q 186 171 191 176 L 178 180 Q 176 178 171 177 Q 162 176 159 175" fill="#CCCCCC"/><path d="M 191 176 Q 195 181 195 183 Q 194 184 193 185 Q 189 187 186 198 Q 179 220 169 227 Q 162 230 160 229 L 164 211 Q 167 210 171 203 Q 180 186 178 180" fill="#CCCCCC"/><path d="M 160 229 Q 157 228 157 225 Q 156 219 148 211 Q 144 209 146 207 Q 146 206 154 209 Q 161 212 164 211" fill="#CCCCCC"/><path d="M 50 62 L 49 60 Q 48 56 49 55 Q 51 54 55 55 Q 79 59 82 66 Q 85 75 84 79 Q 82 82 80 83 Q 76 83 72 80 Q 64 73 58 68" fill="#CCCCCC"/><path d="M 58 131 Q 56 128 54 128 Q 32 136 22 131 Q 20 129 20 128 Q 21 127 23 127 Q 27 128 40 123 Q 49 120 57 115 Q 61 111 67 115 Q 75 118 80 123 Q 85 127 79 131" fill="#CCCCCC"/><path d="M 52 167 Q 49 157 58 144 Q 63 136 58 131 L 79 131 Q 75 136 69 144 Q 61 160 66 167" fill="#CCCCCC"/><path d="M 65 203 L 65 203 Q 68 190 59 176 Q 54 173 52 167 L 66 167 Q 87 192 69 204 L 65 204" fill="#CCCCCC"/><path d="M 69 204 Q 82 206 98 213 Q 155 236 244 234 Q 248 234 249 235 Q 249 237 247 237 Q 244 239 241 241 Q 221 251 203 256 Q 187 259 152 242 Q 128 230 94 220 Q 56 206 44 219 Q 37 225 32 222 Q 21 217 21 214 Q 20 211 24 211 Q 31 211 40 207 Q 52 204 65 204" fill="#CCCCCC"/><path d="M 140 41 Q 149 20 148 15 Q 146 12 149 12 Q 151 10 156 12 Q 162 14 166 17 Q 169 20 165 23 Q 157 28 148 38" fill="#000000" /><path d="M 139 97 L 139 97 Q 139 103 135 102 Q 128 97 127 84 Q 126 54 119 42 Q 117 39 119 38 Q 120 38 121 38 Q 126 39 131 43 L 135 48 Q 135 54 135 58 L 136 62 L 135 62 Q 136 69 136 74 L 137 79 Q 138 85 139 91" fill="#0e0000" /><path d="M 179 39 Q 177 38 173 39 Q 149 44 139 48 Q 137 49 135 48 L 131 43 Q 134 42 140 41 L 148 38 Q 158 35 170 33 Q 183 29 187 31 Q 197 36 202 39" fill="#1c0000" /><path d="M 176 85 Q 178 78 181 49 Q 182 40 179 39 L 202 39 Q 205 42 201 46 Q 194 52 191 64 Q 188 87 184 92 Q 183 95 180 96 Q 177 97 176 93 Q 176 92 175 92" fill="#1c0000" /><path d="M 135 58 Q 161 50 165 51 Q 170 52 172 54 Q 174 57 169 58 Q 157 59 141 63 Q 137 63 136 62" fill="#2a0000" /><path d="M 136 74 Q 160 66 166 66 Q 171 67 173 70 Q 175 72 170 73 Q 157 76 140 79 Q 138 79 137 79" fill="#380000" /><path d="M 148 96 Q 144 96 141 97 Q 140 97 139 97 L 139 91 Q 169 84 174 84 Q 175 85 176 85 L 175 92 Q 166 93 155 95" fill="#460000" /><path d="M 162 111 Q 159 110 157 108 Q 148 98 148 96 L 155 95 Q 163 98 166 102 Q 168 107 166 111" fill="#550000" /><path d="M 110 127 Q 108 131 105 140 Q 100 151 98 152 Q 96 153 94 151 Q 92 147 92 143 Q 92 138 94 135 Q 101 119 101 112 Q 101 110 102 109 Q 104 108 105 109 Q 109 112 113 120" fill="#630000" /><path d="M 144 121 L 139 123 L 134 124 Q 126 125 121 128 Q 115 129 110 127 L 113 120 Q 142 114 162 111 L 166 111 Q 174 108 197 105 Q 218 101 224 105 L 209 112 Q 200 110 170 117 L 162 118" fill="#710000" /><path d="M 224 105 Q 240 115 240 118 Q 241 120 233 123 Q 223 126 211 135 Q 207 138 205 137 Q 203 136 205 133 Q 211 117 211 116 Q 213 113 209 112" fill="#710000" /><path d="M 139 123 Q 139 123 140 123 Q 142 125 144 129 Q 145 131 144 132 Q 142 134 140 136 Q 126 156 116 156 Q 115 156 115 155 Q 115 154 116 154 Q 122 148 126 143 Q 134 132 134 125 Q 134 124 134 124" fill="#7f0000" /><path d="M 170 117 Q 175 120 174 124 Q 172 127 173 132 L 167 139 Q 165 137 165 133 Q 163 119 162 118" fill="#8d0000" /><path d="M 173 132 Q 173 135 173 136 Q 180 142 191 136 Q 194 134 197 135 Q 202 137 204 139 Q 205 141 203 143 Q 201 144 195 145 Q 174 148 167 139" fill="#8d0000" /><path d="M 146 143 L 147 141 Q 147 139 148 139 Q 159 139 163 145 Q 165 149 165 151 Q 164 154 161 154 Q 156 154 148 144" fill="#9b0000" /><path d="M 147 167 Q 136 169 127 171 Q 118 173 111 169 Q 107 165 113 164 Q 149 158 162 156 Q 162 155 163 155 Q 190 148 194 149 Q 198 150 199 151 Q 204 153 204 156 Q 202 159 200 158 Q 176 161 158 165" fill="#aa0000" /><path d="M 157 177 L 155 179 Q 141 198 127 204 Q 111 211 107 208 Q 106 207 107 206 Q 141 189 147 167 L 158 165 Q 160 167 161 169 L 159 175" fill="#b80000" /><path d="M 161 169 Q 167 170 173 171 Q 186 171 191 176 L 178 180 Q 176 178 171 177 Q 162 176 159 175" fill="#c60000" /><path d="M 191 176 Q 195 181 195 183 Q 194 184 193 185 Q 189 187 186 198 Q 179 220 169 227 Q 162 230 160 229 L 164 211 Q 167 210 171 203 Q 180 186 178 180" fill="#c60000" /><path d="M 160 229 Q 157 228 157 225 Q 156 219 148 211 Q 144 209 146 207 Q 146 206 154 209 Q 161 212 164 211" fill="#c60000" /><path d="M 50 62 L 49 60 Q 48 56 49 55 Q 51 54 55 55 Q 79 59 82 66 Q 85 75 84 79 Q 82 82 80 83 Q 76 83 72 80 Q 64 73 58 68" fill="#d40000" /><path d="M 58 131 Q 56 128 54 128 Q 32 136 22 131 Q 20 129 20 128 Q 21 127 23 127 Q 27 128 40 123 Q 49 120 57 115 Q 61 111 67 115 Q 75 118 80 123 Q 85 127 79 131" fill="#e20000" /><path d="M 52 167 Q 49 157 58 144 Q 63 136 58 131 L 79 131 Q 75 136 69 144 Q 61 160 66 167" fill="#e20000" /><path d="M 65 203 L 65 203 Q 68 190 59 176 Q 54 173 52 167 L 66 167 Q 87 192 69 204 L 65 204" fill="#f00000" /><path d="M 69 204 Q 82 206 98 213 Q 155 236 244 234 Q 248 234 249 235 Q 249 237 247 237 Q 244 239 241 241 Q 221 251 203 256 Q 187 259 152 242 Q 128 230 94 220 Q 56 206 44 219 Q 37 225 32 222 Q 21 217 21 214 Q 20 211 24 211 Q 31 211 40 207 Q 52 204 65 204" fill="#ff0000" /></svg>