<svg xmlns="http://www.w3.org/2000/svg" xmlns:xlink="http://www.w3.org/1999/xlink" width="270" height="270"><path d="M 0 0 L 270 270 M 270 0 L 0 270 M 135 0 L 135 270 M 0 135 L 270 135" stroke="#CCCCCC" /><path d="M 120 18 L 124 26 Q 125 30 125 34 Q 124 38 123 39 Q 122 40 120 40 Q 111 39 94 20 Q 92 18 93 16 Q 93 14 96 14" fill="#000000" /><path d="M 78 63 L 92 60 Q 105 56 116 52 Q 124 49 133 51 Q 140 52 142 56 Q 144 58 141 60 Q 140 61 129 64 Q 107 69 85 73 Q 71 77 59 71 Q 52 66 62 65" fill="#1c0000" /><path d="M 67 88 L 68 86 Q 69 83 71 84 Q 74 86 81 92 Q 86 95 87 99 Q 88 104 87 107 Q 84 111 81 110 Q 75 108 68 90" fill="#380000" /><path d="M 109 111 L 110 109 Q 120 81 118 73 Q 116 70 119 69 Q 123 68 126 70 Q 134 75 136 79 Q 138 82 134 84 Q 130 89 129 93 Q 123 102 119 109 Q 118 110 118 111 L 108 113" fill="#550000" /><path d="M 118 111 Q 128 109 140 107 Q 146 105 154 109 Q 159 112 159 115 Q 159 117 154 118 Q 102 123 52 139 Q 40 143 29 135 Q 25 132 26 128 Q 27 126 30 126 Q 55 124 108 113" fill="#710000" /><path d="M 80 205 L 79 208 Q 78 212 73 206 Q 69 202 68 195 Q 63 172 57 158 Q 54 154 56 152 Q 57 151 60 151 Q 66 153 70 154 L 75 161 Q 75 167 78 189 L 80 199" fill="#8d0000" /><path d="M 117 153 Q 115 152 111 153 Q 79 160 75 161 L 70 154 Q 86 150 108 143 Q 121 135 140 149" fill="#aa0000" /><path d="M 115 180 Q 120 156 117 153 L 140 149 Q 144 153 140 158 Q 133 163 127 183" fill="#aa0000" /><path d="M 78 189 Q 93 186 110 181 Q 112 180 115 180 L 127 183 Q 132 186 132 188 Q 132 191 129 191 Q 95 195 80 199" fill="#c60000" /><path d="M 181 57 Q 206 47 212 43 Q 216 40 221 42 Q 228 45 237 54 L 211 58 Q 208 57 207 57 Q 185 64 183 66" fill="#e20000" /><path d="M 237 54 Q 244 60 236 64 Q 227 68 222 77 Q 220 78 219 80 Q 201 101 208 105 L 192 105 Q 192 104 211 65 Q 213 60 211 58" fill="#e20000" /><path d="M 208 105 Q 242 132 243 155 Q 243 170 234 183 Q 230 186 226 186 L 226 155 Q 230 132 198 111 Q 192 109 192 105" fill="#e20000" /><path d="M 226 186 Q 223 185 221 182 Q 216 174 197 165 Q 193 162 192 160 Q 192 158 194 158 Q 203 159 213 161 Q 220 161 223 159 Q 225 157 226 155" fill="#e20000" /><path d="M 166 230 L 166 188 Q 167 122 167 79 Q 166 68 159 56 Q 157 54 159 51 Q 164 49 167 50 Q 171 51 180 56 Q 180 56 181 57 L 183 66 Q 180 80 180 88 Q 180 175 181 188 Q 182 212 179 236 Q 178 252 174 254 Q 172 255 170 253 Q 169 251 167 244" fill="#ff0000" /></svg>