<svg xmlns="http://www.w3.org/2000/svg" xmlns:xlink="http://www.w3.org/1999/xlink" width="270" height="270"><path d="M 0 0 L 270 270 M 270 0 L 0 270 M 135 0 L 135 270 M 0 135 L 270 135" stroke="#CCCCCC" /><path d="M 74 56 Q 66 58 58 59 L 48 61 Q 37 61 30 57 Q 23 53 33 52 Q 56 49 71 45 Q 99 35 107 36 Q 115 38 116 41 Q 118 43 115 45 Q 113 47 85 53" fill="#CCCCCC"/><path d="M 34 200 L 32 203 Q 29 207 27 203 Q 24 201 22 193 Q 21 188 23 182 Q 25 174 26 166 Q 32 117 22 94 Q 21 92 21 90 Q 23 88 25 89 Q 36 93 38 96 L 39 103 Q 37 122 37 186 L 36 194" fill="#CCCCCC"/><path d="M 38 96 Q 44 95 55 93 L 65 91 Q 71 89 77 87 L 86 85 Q 91 82 96 80 Q 99 78 104 80 Q 116 86 120 90 L 101 92 Q 96 89 85 93 L 77 95 Q 70 96 64 98 L 55 100 Q 53 100 52 101 Q 43 103 39 103" fill="#CCCCCC"/><path d="M 102 184 Q 105 173 105 128 L 105 123 Q 104 96 101 92 L 120 90 Q 122 92 120 95 Q 116 100 117 107 Q 117 158 119 185 Q 119 196 115 205 Q 111 212 108 213 Q 105 213 103 209" fill="#CCCCCC"/><path d="M 99 187 Q 101 187 102 184 L 103 209 Q 98 200 91 191" fill="#CCCCCC"/><path d="M 55 93 Q 53 69 48 61 L 58 59 Q 61 61 64 62 Q 64 63 64 72 Q 65 76 65 91 L 64 98 Q 64 118 54 134 Q 49 141 47 142 Q 45 142 45 140 Q 45 139 46 138 Q 53 122 55 100" fill="#CCCCCC"/><path d="M 77 87 Q 78 61 75 57 Q 75 56 74 56 L 85 53 Q 88 54 90 55 Q 92 57 91 60 Q 88 73 86 85 L 85 93 Q 83 117 89 121 L 83 131 Q 75 123 77 95" fill="#CCCCCC"/><path d="M 89 121 Q 91 123 100 122 Q 103 122 105 123 L 105 128 Q 102 130 96 132 Q 86 133 83 131" fill="#CCCCCC"/><path d="M 77 149 L 83 149 Q 89 151 92 154 Q 94 157 88 158 Q 74 160 55 163 Q 50 163 49 162 Q 44 158 48 157" fill="#CCCCCC"/><path d="M 37 186 Q 57 185 82 180 Q 89 179 93 181 Q 98 185 99 187 L 91 191 Q 57 192 42 195 Q 38 195 36 194" fill="#CCCCCC"/><path d="M 158 23 L 157 21 Q 156 18 157 17 Q 159 15 179 20 Q 187 22 189 27 Q 191 34 191 38 Q 190 41 187 42 Q 183 42 179 39 Q 172 33 165 28" fill="#CCCCCC"/><path d="M 156 60 L 186 53 Q 206 46 213 48 Q 219 50 221 52 Q 222 54 220 56 Q 218 58 207 60 Q 181 65 157 70 Q 143 73 134 67 Q 128 63 137 61" fill="#CCCCCC"/><path d="M 135 129 L 125 131 Q 121 132 123 129 Q 124 125 128 120 Q 144 98 139 80 Q 138 77 141 76 Q 146 75 156 81 Q 160 84 158 87 Q 154 93 150 103 L 147 108" fill="#CCCCCC"/><path d="M 150 103 Q 164 107 167 112 Q 170 116 170 118 Q 169 122 166 122 Q 161 122 147 108" fill="#CCCCCC"/><path d="M 184 119 L 178 120 Q 174 121 176 118 Q 178 114 182 109 Q 198 91 195 71 Q 194 68 197 67 Q 202 67 212 73 Q 216 76 213 79 Q 206 90 200 100 L 197 105" fill="#CCCCCC"/><path d="M 200 100 Q 201 100 201 100 Q 222 104 225 112 Q 227 118 226 121 Q 225 124 223 124 Q 219 124 216 122 Q 209 115 203 110 Q 198 107 197 105" fill="#CCCCCC"/><path d="M 153 160 L 139 164 Q 136 165 131 164 Q 127 163 123 160 Q 120 156 124 155 Q 147 152 169 148 L 185 145 Q 205 141 219 138 Q 231 134 245 143 Q 248 146 247 149 Q 246 151 242 151 Q 209 152 184 155 L 169 157" fill="#CCCCCC"/><path d="M 169 148 Q 168 145 164 133 Q 162 131 164 129 Q 168 127 171 128 Q 175 128 183 134 Q 187 136 186 141 Q 185 143 185 145 L 184 155 Q 183 199 183 210 Q 183 223 182 237 Q 181 251 177 254 Q 175 254 173 252 L 173 252 Q 170 248 169 157" fill="#CCCCCC"/><path d="M 74 56 Q 66 58 58 59 L 48 61 Q 37 61 30 57 Q 23 53 33 52 Q 56 49 71 45 Q 99 35 107 36 Q 115 38 116 41 Q 118 43 115 45 Q 113 47 85 53" fill="#000000" /><path d="M 34 200 L 32 203 Q 29 207 27 203 Q 24 201 22 193 Q 21 188 23 182 Q 25 174 26 166 Q 32 117 22 94 Q 21 92 21 90 Q 23 88 25 89 Q 36 93 38 96 L 39 103 Q 37 122 37 186 L 36 194" fill="#120000" /><path d="M 38 96 Q 44 95 55 93 L 65 91 Q 71 89 77 87 L 86 85 Q 91 82 96 80 Q 99 78 104 80 Q 116 86 120 90 L 101 92 Q 96 89 85 93 L 77 95 Q 70 96 64 98 L 55 100 Q 53 100 52 101 Q 43 103 39 103" fill="#240000" /><path d="M 102 184 Q 105 173 105 128 L 105 123 Q 104 96 101 92 L 120 90 Q 122 92 120 95 Q 116 100 117 107 Q 117 158 119 185 Q 119 196 115 205 Q 111 212 108 213 Q 105 213 103 209" fill="#240000" /><path d="M 99 187 Q 101 187 102 184 L 103 209 Q 98 200 91 191" fill="#240000" /><path d="M 55 93 Q 53 69 48 61 L 58 59 Q 61 61 64 62 Q 64 63 64 72 Q 65 76 65 91 L 64 98 Q 64 118 54 134 Q 49 141 47 142 Q 45 142 45 140 Q 45 139 46 138 Q 53 122 55 100" fill="#360000" /><path d="M 77 87 Q 78 61 75 57 Q 75 56 74 56 L 85 53 Q 88 54 90 55 Q 92 57 91 60 Q 88 73 86 85 L 85 93 Q 83 117 89 121 L 83 131 Q 75 123 77 95" fill="#480000" /><path d="M 89 121 Q 91 123 100 122 Q 103 122 105 123 L 105 128 Q 102 130 96 132 Q 86 133 83 131" fill="#480000" /><path d="M 77 149 L 83 149 Q 89 151 92 154 Q 94 157 88 158 Q 74 160 55 163 Q 50 163 49 162 Q 44 158 48 157" fill="#5b0000" /><path d="M 37 186 Q 57 185 82 180 Q 89 179 93 181 Q 98 185 99 187 L 91 191 Q 57 192 42 195 Q 38 195 36 194" fill="#6d0000" /><path d="M 158 23 L 157 21 Q 156 18 157 17 Q 159 15 179 20 Q 187 22 189 27 Q 191 34 191 38 Q 190 41 187 42 Q 183 42 179 39 Q 172 33 165 28" fill="#7f0000" /><path d="M 156 60 L 186 53 Q 206 46 213 48 Q 219 50 221 52 Q 222 54 220 56 Q 218 58 207 60 Q 181 65 157 70 Q 143 73 134 67 Q 128 63 137 61" fill="#910000" /><path d="M 135 129 L 125 131 Q 121 132 123 129 Q 124 125 128 120 Q 144 98 139 80 Q 138 77 141 76 Q 146 75 156 81 Q 160 84 158 87 Q 154 93 150 103 L 147 108" fill="#a30000" /><path d="M 150 103 Q 164 107 167 112 Q 170 116 170 118 Q 169 122 166 122 Q 161 122 147 108" fill="#b60000" /><path d="M 184 119 L 178 120 Q 174 121 176 118 Q 178 114 182 109 Q 198 91 195 71 Q 194 68 197 67 Q 202 67 212 73 Q 216 76 213 79 Q 206 90 200 100 L 197 105" fill="#c80000" /><path d="M 200 100 Q 201 100 201 100 Q 222 104 225 112 Q 227 118 226 121 Q 225 124 223 124 Q 219 124 216 122 Q 209 115 203 110 Q 198 107 197 105" fill="#da0000" /><path d="M 153 160 L 139 164 Q 136 165 131 164 Q 127 163 123 160 Q 120 156 124 155 Q 147 152 169 148 L 185 145 Q 205 141 219 138 Q 231 134 245 143 Q 248 146 247 149 Q 246 151 242 151 Q 209 152 184 155 L 169 157" fill="#ec0000" /><path d="M 169 148 Q 168 145 164 133 Q 162 131 164 129 Q 168 127 171 128 Q 175 128 183 134 Q 187 136 186 141 Q 185 143 185 145 L 184 155 Q 183 199 183 210 Q 183 223 182 237 Q 181 251 177 254 Q 175 254 173 252 L 173 252 Q 170 248 169 157" fill="#ff0000" /></svg>