<svg xmlns="http://www.w3.org/2000/svg" xmlns:xlink="http://www.w3.org/1999/xlink" width="270" height="270"><path d="M 0 0 L 270 270 M 270 0 L 0 270 M 135 0 L 135 270 M 0 135 L 270 135" stroke="#CCCCCC" /><path d="M 118 56 Q 115 56 113 57 Q 84 63 80 62 Q 79 61 80 59 Q 82 58 84 58 Q 146 36 147 25 Q 147 22 150 21 Q 154 21 158 24 Q 170 30 175 35 Q 178 38 177 41 Q 176 43 171 43 Q 158 44 131 53" fill="#CCCCCC"/><path d="M 125 89 Q 98 89 50 102 Q 45 103 39 101 Q 34 100 30 96 Q 26 90 32 90 Q 82 85 125 81 L 139 79 Q 182 72 209 68 Q 221 64 238 77 Q 243 81 242 84 Q 240 87 234 86 Q 157 87 139 88" fill="#CCCCCC"/><path d="M 98 176 Q 97 177 97 179 Q 96 183 91 178 Q 86 173 85 165 Q 78 138 69 122 Q 66 118 68 116 Q 68 115 72 115 Q 78 116 81 117 L 87 126 Q 89 135 96 161 Q 97 165 97 168" fill="#CCCCCC"/><path d="M 125 118 Q 102 121 87 126 L 81 117 Q 95 115 112 112 Q 119 110 125 110 L 138 108 Q 145 107 166 104 Q 182 101 187 103 Q 198 111 203 116 L 176 115 Q 170 111 138 116" fill="#CCCCCC"/><path d="M 163 160 Q 167 160 169 156 Q 171 152 178 122 Q 179 118 176 115 L 203 116 Q 206 120 202 123 Q 195 130 192 138 Q 183 168 179 174 Q 174 180 171 177 Q 168 175 164 169" fill="#CCCCCC"/><path d="M 125 146 Q 107 147 106 146 Q 101 142 106 141 Q 115 139 125 137 L 138 134 Q 146 132 151 133 Q 157 134 160 138 Q 162 141 156 142 Q 147 143 138 144" fill="#CCCCCC"/><path d="M 124 173 Q 114 174 103 176 Q 99 176 98 176 L 97 168 Q 110 166 124 164 L 137 162 Q 156 156 163 160 L 164 169 Q 151 170 137 172" fill="#CCCCCC"/><path d="M 124 207 Q 115 207 108 209 Q 97 211 90 205 Q 85 201 92 200 Q 114 197 124 196 L 137 194 Q 137 194 138 194 Q 162 187 169 193 Q 175 196 174 198 Q 172 201 170 201 Q 160 202 148 203 Q 142 203 137 204" fill="#CCCCCC"/><path d="M 124 218 L 124 207 L 124 196 Q 124 184 124 173 L 124 164 Q 125 154 125 146 L 125 137 Q 125 126 125 118 L 125 110 Q 125 95 125 89 L 125 81 Q 125 71 122 65 Q 120 61 118 56 L 131 53 Q 135 56 140 60 Q 140 61 139 79 L 139 88 Q 139 98 138 108 L 138 116 Q 138 125 138 134 L 138 144 Q 137 153 137 162 L 137 172 Q 137 182 137 194 L 137 204 Q 137 217 137 230 L 124 231" fill="#CCCCCC"/><path d="M 137 230 Q 174 226 197 223 Q 206 222 219 232 Q 223 236 221 238 Q 220 240 215 240 Q 124 235 67 247 Q 62 248 58 247 Q 53 245 50 241 Q 46 237 51 236 Q 90 234 124 231" fill="#CCCCCC"/><path d="M 118 56 Q 115 56 113 57 Q 84 63 80 62 Q 79 61 80 59 Q 82 58 84 58 Q 146 36 147 25 Q 147 22 150 21 Q 154 21 158 24 Q 170 30 175 35 Q 178 38 177 41 Q 176 43 171 43 Q 158 44 131 53" fill="#000000" /><path d="M 125 89 Q 98 89 50 102 Q 45 103 39 101 Q 34 100 30 96 Q 26 90 32 90 Q 82 85 125 81 L 139 79 Q 182 72 209 68 Q 221 64 238 77 Q 243 81 242 84 Q 240 87 234 86 Q 157 87 139 88" fill="#1f0000" /><path d="M 98 176 Q 97 177 97 179 Q 96 183 91 178 Q 86 173 85 165 Q 78 138 69 122 Q 66 118 68 116 Q 68 115 72 115 Q 78 116 81 117 L 87 126 Q 89 135 96 161 Q 97 165 97 168" fill="#3f0000" /><path d="M 125 118 Q 102 121 87 126 L 81 117 Q 95 115 112 112 Q 119 110 125 110 L 138 108 Q 145 107 166 104 Q 182 101 187 103 Q 198 111 203 116 L 176 115 Q 170 111 138 116" fill="#5f0000" /><path d="M 163 160 Q 167 160 169 156 Q 171 152 178 122 Q 179 118 176 115 L 203 116 Q 206 120 202 123 Q 195 130 192 138 Q 183 168 179 174 Q 174 180 171 177 Q 168 175 164 169" fill="#5f0000" /><path d="M 125 146 Q 107 147 106 146 Q 101 142 106 141 Q 115 139 125 137 L 138 134 Q 146 132 151 133 Q 157 134 160 138 Q 162 141 156 142 Q 147 143 138 144" fill="#7f0000" /><path d="M 124 173 Q 114 174 103 176 Q 99 176 98 176 L 97 168 Q 110 166 124 164 L 137 162 Q 156 156 163 160 L 164 169 Q 151 170 137 172" fill="#9f0000" /><path d="M 124 207 Q 115 207 108 209 Q 97 211 90 205 Q 85 201 92 200 Q 114 197 124 196 L 137 194 Q 137 194 138 194 Q 162 187 169 193 Q 175 196 174 198 Q 172 201 170 201 Q 160 202 148 203 Q 142 203 137 204" fill="#bf0000" /><path d="M 124 218 L 124 207 L 124 196 Q 124 184 124 173 L 124 164 Q 125 154 125 146 L 125 137 Q 125 126 125 118 L 125 110 Q 125 95 125 89 L 125 81 Q 125 71 122 65 Q 120 61 118 56 L 131 53 Q 135 56 140 60 Q 140 61 139 79 L 139 88 Q 139 98 138 108 L 138 116 Q 138 125 138 134 L 138 144 Q 137 153 137 162 L 137 172 Q 137 182 137 194 L 137 204 Q 137 217 137 230 L 124 231" fill="#df0000" /><path d="M 137 230 Q 174 226 197 223 Q 206 222 219 232 Q 223 236 221 238 Q 220 240 215 240 Q 124 235 67 247 Q 62 248 58 247 Q 53 245 50 241 Q 46 237 51 236 Q 90 234 124 231" fill="#ff0000" /></svg>