<svg xmlns="http://www.w3.org/2000/svg" xmlns:xlink="http://www.w3.org/1999/xlink" width="270" height="270"><path d="M 0 0 L 270 270 M 270 0 L 0 270 M 135 0 L 135 270 M 0 135 L 270 135" stroke="#CCCCCC" /><path d="M 106 88 L 106 90 Q 105 94 99 89 Q 94 84 93 77 Q 86 52 78 38 Q 75 34 76 32 Q 77 31 81 31 Q 87 32 91 33 L 96 41 Q 97 46 100 58 L 102 64 Q 105 75 106 79 L 106 86" fill="#000000" /><path d="M 165 33 Q 162 30 154 31 Q 117 36 96 41 L 91 33 Q 102 31 114 29 Q 132 26 147 24 Q 159 22 167 20 Q 171 19 176 22 Q 186 29 190 34" fill="#170000" /><path d="M 154 73 Q 157 72 158 70 Q 160 66 167 40 Q 168 36 165 33 L 190 34 Q 193 38 189 41 Q 183 47 180 55 Q 170 82 167 87 Q 162 92 160 90 Q 156 88 152 80" fill="#170000" /><path d="M 100 58 Q 132 48 141 49 Q 147 50 150 54 Q 152 57 146 58 Q 129 60 106 64 Q 103 64 102 64" fill="#2e0000" /><path d="M 106 79 Q 148 71 150 72 Q 152 72 154 73 L 152 80 Q 132 82 106 86" fill="#450000" /><path d="M 165 98 L 217 89 Q 227 86 242 97 Q 246 101 245 105 Q 243 107 238 107 Q 230 106 223 106 Q 111 106 46 124 Q 35 126 27 118 Q 23 113 28 112" fill="#5c0000" /><path d="M 98 183 Q 98 185 97 186 Q 96 191 91 185 Q 86 180 85 173 Q 80 149 72 134 Q 69 130 71 129 Q 72 127 75 128 Q 83 129 86 130 L 90 139 Q 94 158 98 176" fill="#730000" /><path d="M 117 133 Q 100 135 90 139 L 86 130 Q 153 120 161 119 Q 175 116 179 118 Q 192 125 196 130 L 171 129 Q 166 126 128 131" fill="#8b0000" /><path d="M 164 170 Q 167 164 172 137 Q 173 130 171 129 L 196 130 Q 200 133 195 137 Q 186 145 182 157 Q 176 174 173 178 Q 171 181 168 181 Q 165 182 163 178 Q 163 176 163 175" fill="#8b0000" /><path d="M 122 158 Q 116 158 111 159 Q 106 160 104 158 Q 100 155 103 154 Q 112 152 121 150 L 135 147 Q 143 145 148 146 Q 154 147 156 150 Q 157 153 153 154 Q 144 154 134 156" fill="#a20000" /><path d="M 121 180 Q 112 181 102 183 Q 99 183 98 183 L 98 176 Q 109 174 122 172 L 134 170 Q 159 164 164 170 L 163 175 Q 149 177 133 179" fill="#b90000" /><path d="M 121 212 Q 116 212 113 213 Q 98 216 89 208 Q 83 204 92 203 Q 108 203 121 201 L 132 199 Q 152 194 159 196 Q 166 198 167 201 Q 168 203 166 205 Q 164 206 154 208 Q 143 209 132 211" fill="#d00000" /><path d="M 121 221 L 121 212 L 121 201 Q 121 189 121 180 L 122 172 Q 122 163 122 158 L 121 150 Q 121 143 120 139 Q 118 136 117 133 L 128 131 Q 129 132 132 134 Q 135 136 135 147 L 134 156 Q 134 163 134 170 L 133 179 Q 133 189 132 199 L 132 211 Q 132 221 132 232 L 121 233" fill="#e70000" /><path d="M 132 232 Q 170 228 193 225 Q 203 223 217 234 Q 221 238 219 241 Q 218 244 213 243 Q 123 238 70 249 Q 66 250 60 248 Q 55 246 52 242 Q 48 238 53 237 Q 90 235 121 233" fill="#ff0000" /></svg>