<svg xmlns="http://www.w3.org/2000/svg" xmlns:xlink="http://www.w3.org/1999/xlink" width="270" height="270"><path d="M 0 0 L 270 270 M 270 0 L 0 270 M 135 0 L 135 270 M 0 135 L 270 135" stroke="#CCCCCC" /><path d="M 98 63 L 96 66 Q 90 75 85 84 Q 40 147 25 149 Q 21 150 22 146 Q 23 145 25 142 Q 46 118 62 96 Q 78 72 88 48 Q 92 40 88 31 Q 86 25 90 25 Q 95 25 103 30 Q 110 36 112 40 Q 113 44 110 46 Q 107 50 103 55 L 100 60" fill="#CCCCCC"/><path d="M 103 55 Q 104 54 104 55 Q 114 55 122 57 Q 131 60 133 65 Q 136 71 136 75 Q 135 78 133 78 Q 129 79 126 77 Q 116 70 107 65 Q 101 62 100 60" fill="#CCCCCC"/><path d="M 88 119 Q 79 121 70 119 Q 64 116 72 113 Q 81 110 89 108 Q 109 98 115 98 Q 122 98 124 101 Q 126 103 124 105 Q 123 106 99 116" fill="#CCCCCC"/><path d="M 91 149 Q 89 149 88 149 Q 68 156 58 152 Q 51 149 60 146 Q 77 142 90 137 L 104 131 Q 114 126 121 127 Q 129 128 130 130 Q 132 132 130 134 Q 128 136 103 144" fill="#CCCCCC"/><path d="M 91 165 L 91 149 L 90 137 Q 90 122 88 119 L 99 116 Q 99 116 100 116 Q 105 120 104 131 L 103 144 Q 103 166 102 194 L 91 197" fill="#CCCCCC"/><path d="M 53 173 L 53 170 Q 53 167 54 166 Q 58 165 72 171 Q 78 173 79 178 Q 81 185 80 189 Q 78 192 76 192 Q 72 192 69 189 Q 64 183 60 179" fill="#CCCCCC"/><path d="M 122 156 L 122 153 Q 122 150 125 149 Q 129 150 133 153 Q 137 157 138 160 Q 139 162 136 163 Q 128 167 114 177 Q 112 178 110 178 Q 109 176 110 175 Q 118 165 121 159" fill="#CCCCCC"/><path d="M 102 194 Q 117 189 133 184 Q 136 183 137 185 Q 137 187 134 189 Q 128 193 121 196 Q 70 218 58 226 Q 54 228 52 228 Q 43 223 36 218 Q 34 216 35 213 Q 35 210 39 210 Q 48 210 53 208 Q 73 202 91 197" fill="#CCCCCC"/><path d="M 146 128 L 140 130 Q 136 131 137 128 Q 137 126 139 123 Q 153 101 162 80 Q 171 59 176 38 Q 177 31 173 25 Q 170 19 175 18 Q 180 17 188 21 Q 197 26 198 29 Q 200 33 198 36 Q 193 42 189 54 Q 180 74 165 99 L 161 105" fill="#CCCCCC"/><path d="M 165 99 Q 169 98 175 97 Q 185 94 199 90 Q 209 87 213 85 Q 218 83 225 85 Q 235 88 242 92 Q 248 96 248 98 L 219 99 Q 218 98 216 98 Q 211 98 203 100 Q 170 106 161 105" fill="#CCCCCC"/><path d="M 248 98 Q 248 101 245 104 Q 240 110 240 120 Q 237 199 226 225 Q 220 238 212 245 Q 207 251 201 252 L 200 227 Q 206 225 210 216 Q 219 198 221 165 Q 224 108 219 99" fill="#CCCCCC"/><path d="M 201 252 Q 198 252 195 247 Q 191 239 181 227 Q 178 224 178 223 Q 178 221 181 223 Q 197 228 200 227" fill="#CCCCCC"/><path d="M 153 147 L 153 144 Q 152 140 154 140 Q 156 139 161 140 Q 174 144 179 148 Q 184 152 186 159 Q 186 164 184 168 Q 181 171 177 170 Q 168 166 157 151" fill="#CCCCCC"/><path d="M 98 63 L 96 66 Q 90 75 85 84 Q 40 147 25 149 Q 21 150 22 146 Q 23 145 25 142 Q 46 118 62 96 Q 78 72 88 48 Q 92 40 88 31 Q 86 25 90 25 Q 95 25 103 30 Q 110 36 112 40 Q 113 44 110 46 Q 107 50 103 55 L 100 60" fill="#000000" /><path d="M 103 55 Q 104 54 104 55 Q 114 55 122 57 Q 131 60 133 65 Q 136 71 136 75 Q 135 78 133 78 Q 129 79 126 77 Q 116 70 107 65 Q 101 62 100 60" fill="#190000" /><path d="M 88 119 Q 79 121 70 119 Q 64 116 72 113 Q 81 110 89 108 Q 109 98 115 98 Q 122 98 124 101 Q 126 103 124 105 Q 123 106 99 116" fill="#330000" /><path d="M 91 149 Q 89 149 88 149 Q 68 156 58 152 Q 51 149 60 146 Q 77 142 90 137 L 104 131 Q 114 126 121 127 Q 129 128 130 130 Q 132 132 130 134 Q 128 136 103 144" fill="#4c0000" /><path d="M 91 165 L 91 149 L 90 137 Q 90 122 88 119 L 99 116 Q 99 116 100 116 Q 105 120 104 131 L 103 144 Q 103 166 102 194 L 91 197" fill="#660000" /><path d="M 53 173 L 53 170 Q 53 167 54 166 Q 58 165 72 171 Q 78 173 79 178 Q 81 185 80 189 Q 78 192 76 192 Q 72 192 69 189 Q 64 183 60 179" fill="#7f0000" /><path d="M 122 156 L 122 153 Q 122 150 125 149 Q 129 150 133 153 Q 137 157 138 160 Q 139 162 136 163 Q 128 167 114 177 Q 112 178 110 178 Q 109 176 110 175 Q 118 165 121 159" fill="#990000" /><path d="M 102 194 Q 117 189 133 184 Q 136 183 137 185 Q 137 187 134 189 Q 128 193 121 196 Q 70 218 58 226 Q 54 228 52 228 Q 43 223 36 218 Q 34 216 35 213 Q 35 210 39 210 Q 48 210 53 208 Q 73 202 91 197" fill="#b20000" /><path d="M 146 128 L 140 130 Q 136 131 137 128 Q 137 126 139 123 Q 153 101 162 80 Q 171 59 176 38 Q 177 31 173 25 Q 170 19 175 18 Q 180 17 188 21 Q 197 26 198 29 Q 200 33 198 36 Q 193 42 189 54 Q 180 74 165 99 L 161 105" fill="#cc0000" /><path d="M 165 99 Q 169 98 175 97 Q 185 94 199 90 Q 209 87 213 85 Q 218 83 225 85 Q 235 88 242 92 Q 248 96 248 98 L 219 99 Q 218 98 216 98 Q 211 98 203 100 Q 170 106 161 105" fill="#e50000" /><path d="M 248 98 Q 248 101 245 104 Q 240 110 240 120 Q 237 199 226 225 Q 220 238 212 245 Q 207 251 201 252 L 200 227 Q 206 225 210 216 Q 219 198 221 165 Q 224 108 219 99" fill="#e50000" /><path d="M 201 252 Q 198 252 195 247 Q 191 239 181 227 Q 178 224 178 223 Q 178 221 181 223 Q 197 228 200 227" fill="#e50000" /><path d="M 153 147 L 153 144 Q 152 140 154 140 Q 156 139 161 140 Q 174 144 179 148 Q 184 152 186 159 Q 186 164 184 168 Q 181 171 177 170 Q 168 166 157 151" fill="#ff0000" /></svg>