<svg xmlns="http://www.w3.org/2000/svg" xmlns:xlink="http://www.w3.org/1999/xlink" width="270" height="270"><path d="M 0 0 L 270 270 M 270 0 L 0 270 M 135 0 L 135 270 M 0 135 L 270 135" stroke="#CCCCCC" /><path d="M 57 112 Q 31 145 12 150 Q 9 150 11 148 Q 36 121 46 108 Q 47 106 48 106 Q 82 57 75 33 Q 74 30 76 29 Q 79 28 85 29 Q 90 30 94 34 Q 98 36 99 39 Q 99 42 98 43 Q 93 48 93 52 L 90 57 Q 79 78 61 107" fill="#CCCCCC"/><path d="M 93 52 Q 93 52 95 52 Q 120 57 123 65 Q 126 72 125 76 Q 124 78 121 79 Q 118 79 115 76 Q 105 69 97 63 Q 92 59 90 57" fill="#CCCCCC"/><path d="M 75 115 Q 61 115 57 112 L 61 107 Q 61 107 61 107 Q 69 105 77 103 Q 95 95 102 96 Q 109 96 111 99 Q 112 101 110 103 Q 110 104 85 112" fill="#CCCCCC"/><path d="M 78 146 Q 77 146 76 146 Q 61 151 51 147 Q 44 144 53 141 Q 57 140 78 135 L 92 129 Q 97 126 104 127 Q 111 128 113 130 Q 114 132 112 134 Q 111 135 104 138 Q 97 139 91 142" fill="#CCCCCC"/><path d="M 78 161 L 78 146 L 78 135 Q 77 117 75 115 L 85 112 Q 88 114 91 117 Q 93 119 92 129 L 91 142 Q 90 162 89 187 L 78 190" fill="#CCCCCC"/><path d="M 43 165 L 43 163 Q 43 160 44 159 Q 46 158 61 166 Q 67 170 67 174 Q 68 181 66 183 Q 65 186 63 186 Q 59 185 57 182 Q 52 176 48 170" fill="#CCCCCC"/><path d="M 105 155 L 104 152 Q 103 148 106 148 Q 110 147 115 150 Q 119 153 120 156 Q 122 158 118 159 Q 112 164 100 174 Q 99 176 97 176 Q 96 174 97 173 Q 102 164 104 158" fill="#CCCCCC"/><path d="M 89 187 Q 104 183 116 179 Q 120 178 121 179 Q 121 182 117 184 Q 112 188 105 190 Q 57 210 45 218 Q 42 220 39 219 Q 31 214 25 210 Q 23 208 24 205 Q 24 202 28 202 Q 36 202 41 200 Q 61 195 78 190" fill="#CCCCCC"/><path d="M 139 135 L 123 142 Q 120 144 120 141 Q 121 139 123 136 Q 151 85 159 48 Q 160 41 156 35 Q 153 29 157 28 Q 162 27 170 30 Q 178 35 179 38 Q 181 41 179 44 Q 174 52 170 64 L 167 71" fill="#CCCCCC"/><path d="M 170 64 Q 186 80 197 90 Q 218 110 256 125 Q 260 127 259 128 Q 259 129 257 130 Q 230 135 219 133 Q 207 129 168 72 Q 168 71 167 71" fill="#CCCCCC"/><path d="M 155 124 L 154 122 Q 153 118 154 117 Q 157 116 174 121 Q 181 124 183 128 Q 185 135 184 139 Q 183 142 180 142 Q 176 143 173 139 Q 167 134 161 129" fill="#CCCCCC"/><path d="M 188 165 Q 185 163 181 164 Q 160 175 156 177 Q 148 183 140 178 Q 134 176 132 172 Q 130 167 136 167 Q 149 167 154 165 Q 174 158 187 152 Q 193 150 198 152 Q 216 160 217 165" fill="#CCCCCC"/><path d="M 180 185 L 190 171 Q 191 167 188 165 L 217 165 Q 219 169 214 171 Q 205 174 175 205 L 170 203" fill="#CCCCCC"/><path d="M 175 205 Q 191 215 191 226 Q 193 238 189 240 Q 186 242 185 242 Q 181 240 178 234 Q 166 216 156 202 Q 154 199 154 196 Q 155 193 157 194 Q 162 197 170 203" fill="#CCCCCC"/><path d="M 57 112 Q 31 145 12 150 Q 9 150 11 148 Q 36 121 46 108 Q 47 106 48 106 Q 82 57 75 33 Q 74 30 76 29 Q 79 28 85 29 Q 90 30 94 34 Q 98 36 99 39 Q 99 42 98 43 Q 93 48 93 52 L 90 57 Q 79 78 61 107" fill="#000000" /><path d="M 93 52 Q 93 52 95 52 Q 120 57 123 65 Q 126 72 125 76 Q 124 78 121 79 Q 118 79 115 76 Q 105 69 97 63 Q 92 59 90 57" fill="#150000" /><path d="M 75 115 Q 61 115 57 112 L 61 107 Q 61 107 61 107 Q 69 105 77 103 Q 95 95 102 96 Q 109 96 111 99 Q 112 101 110 103 Q 110 104 85 112" fill="#2a0000" /><path d="M 78 146 Q 77 146 76 146 Q 61 151 51 147 Q 44 144 53 141 Q 57 140 78 135 L 92 129 Q 97 126 104 127 Q 111 128 113 130 Q 114 132 112 134 Q 111 135 104 138 Q 97 139 91 142" fill="#3f0000" /><path d="M 78 161 L 78 146 L 78 135 Q 77 117 75 115 L 85 112 Q 88 114 91 117 Q 93 119 92 129 L 91 142 Q 90 162 89 187 L 78 190" fill="#550000" /><path d="M 43 165 L 43 163 Q 43 160 44 159 Q 46 158 61 166 Q 67 170 67 174 Q 68 181 66 183 Q 65 186 63 186 Q 59 185 57 182 Q 52 176 48 170" fill="#6a0000" /><path d="M 105 155 L 104 152 Q 103 148 106 148 Q 110 147 115 150 Q 119 153 120 156 Q 122 158 118 159 Q 112 164 100 174 Q 99 176 97 176 Q 96 174 97 173 Q 102 164 104 158" fill="#7f0000" /><path d="M 89 187 Q 104 183 116 179 Q 120 178 121 179 Q 121 182 117 184 Q 112 188 105 190 Q 57 210 45 218 Q 42 220 39 219 Q 31 214 25 210 Q 23 208 24 205 Q 24 202 28 202 Q 36 202 41 200 Q 61 195 78 190" fill="#940000" /><path d="M 139 135 L 123 142 Q 120 144 120 141 Q 121 139 123 136 Q 151 85 159 48 Q 160 41 156 35 Q 153 29 157 28 Q 162 27 170 30 Q 178 35 179 38 Q 181 41 179 44 Q 174 52 170 64 L 167 71" fill="#aa0000" /><path d="M 170 64 Q 186 80 197 90 Q 218 110 256 125 Q 260 127 259 128 Q 259 129 257 130 Q 230 135 219 133 Q 207 129 168 72 Q 168 71 167 71" fill="#bf0000" /><path d="M 155 124 L 154 122 Q 153 118 154 117 Q 157 116 174 121 Q 181 124 183 128 Q 185 135 184 139 Q 183 142 180 142 Q 176 143 173 139 Q 167 134 161 129" fill="#d40000" /><path d="M 188 165 Q 185 163 181 164 Q 160 175 156 177 Q 148 183 140 178 Q 134 176 132 172 Q 130 167 136 167 Q 149 167 154 165 Q 174 158 187 152 Q 193 150 198 152 Q 216 160 217 165" fill="#e90000" /><path d="M 180 185 L 190 171 Q 191 167 188 165 L 217 165 Q 219 169 214 171 Q 205 174 175 205 L 170 203" fill="#e90000" /><path d="M 175 205 Q 191 215 191 226 Q 193 238 189 240 Q 186 242 185 242 Q 181 240 178 234 Q 166 216 156 202 Q 154 199 154 196 Q 155 193 157 194 Q 162 197 170 203" fill="#ff0000" /></svg>