<svg xmlns="http://www.w3.org/2000/svg" xmlns:xlink="http://www.w3.org/1999/xlink" width="270" height="270"><path d="M 0 0 L 270 270 M 270 0 L 0 270 M 135 0 L 135 270 M 0 135 L 270 135" stroke="#CCCCCC" /><path d="M 71 21 L 76 21 Q 80 21 87 26 Q 93 31 94 34 Q 95 38 93 40 Q 89 44 79 58 Q 47 99 35 101 Q 32 101 33 99 Q 33 98 36 95 Q 48 80 58 66 Q 77 36 73 27" fill="#000000" /><path d="M 23 179 L 16 180 Q 12 181 13 178 Q 14 177 16 174 Q 54 132 68 100 Q 70 94 68 87 Q 66 82 70 81 Q 75 82 81 86 Q 87 91 88 94 Q 88 95 88 95 Q 88 96 63 132 L 56 141 Q 56 141 56 141" fill="#130000" /><path d="M 63 132 Q 66 134 73 142 Q 75 145 73 152 Q 72 162 71 210 Q 71 221 68 231 Q 65 237 61 234 Q 60 232 59 231 Q 50 215 55 207 Q 65 159 56 141" fill="#270000" /><path d="M 100 111 Q 86 127 82 128 Q 79 129 79 126 Q 80 125 82 122 Q 115 76 128 40 Q 130 34 126 27 Q 124 22 128 21 Q 133 21 140 25 Q 147 30 148 33 Q 149 36 147 39 Q 142 44 137 54 L 135 59 Q 123 81 112 96 Q 106 103 101 110" fill="#3a0000" /><path d="M 137 54 L 138 54 Q 163 59 166 69 Q 168 74 168 78 Q 167 80 165 80 Q 162 80 159 78 Q 149 70 139 63 Q 136 61 135 59" fill="#4e0000" /><path d="M 124 114 Q 112 117 103 114 Q 100 112 100 111 L 101 110 Q 102 109 105 108 Q 114 107 121 104 Q 128 102 134 99 Q 140 95 147 95 Q 154 96 156 99 Q 157 101 155 102 Q 154 103 149 105 Q 141 108 135 110" fill="#620000" /><path d="M 126 143 Q 120 144 115 146 Q 103 149 95 145 Q 89 142 96 140 Q 99 139 126 133 L 138 128 Q 142 124 152 125 Q 158 126 160 129 Q 161 130 159 132 Q 159 133 138 140" fill="#750000" /><path d="M 126 159 L 126 143 L 126 133 Q 126 119 124 114 L 124 114 L 135 110 Q 135 111 136 111 Q 139 114 138 127 Q 138 127 138 128 L 138 140 Q 137 160 136 186 L 126 188" fill="#890000" /><path d="M 90 164 L 90 162 Q 89 159 90 159 Q 91 159 100 161 Q 111 164 113 173 Q 114 176 112 179 Q 110 182 107 181 Q 101 178 93 168" fill="#9c0000" /><path d="M 153 149 L 153 146 Q 153 142 156 142 Q 160 142 164 146 Q 169 149 170 153 Q 171 155 168 156 Q 160 161 144 173 Q 142 174 141 173 Q 140 172 141 170 Q 149 160 152 153" fill="#b00000" /><path d="M 136 186 Q 155 181 171 176 Q 175 176 176 177 Q 176 180 172 181 Q 167 185 160 187 Q 142 194 123 201 Q 112 205 100 213 Q 97 215 95 214 Q 86 208 81 204 Q 78 202 79 198 Q 80 196 83 195 Q 89 196 126 188" fill="#c40000" /><path d="M 190 74 L 198 72 Q 205 70 211 68 Q 219 64 227 65 Q 235 66 237 69 Q 238 71 236 74 Q 235 74 229 76 Q 221 78 213 80 Q 190 87 179 82 Q 172 78 181 76" fill="#d70000" /><path d="M 189 125 L 183 127 Q 179 128 174 127 Q 170 127 167 123 Q 163 120 168 119 Q 193 114 225 106 Q 238 101 253 110 Q 257 113 256 116 Q 254 118 244 118 Q 224 119 211 121 L 196 124" fill="#eb0000" /><path d="M 211 121 Q 215 124 216 126 Q 218 128 216 136 Q 214 165 217 208 Q 218 230 207 244 Q 203 248 200 246 L 197 218 Q 200 215 201 206 Q 200 184 200 168 Q 199 130 196 124" fill="#ff0000" /><path d="M 200 246 Q 191 235 175 220 Q 173 217 173 216 Q 172 214 176 215 Q 182 216 187 218 Q 194 220 197 218" fill="#ff0000" /></svg>