<svg xmlns="http://www.w3.org/2000/svg" xmlns:xlink="http://www.w3.org/1999/xlink" width="270" height="270"><path d="M 0 0 L 270 270 M 270 0 L 0 270 M 135 0 L 135 270 M 0 135 L 270 135" stroke="#CCCCCC" /><path d="M 58 113 Q 32 141 21 144 Q 18 144 20 142 Q 37 123 55 99 Q 86 49 78 30 Q 77 27 80 26 Q 88 24 97 30 Q 101 33 102 35 Q 102 38 101 39 Q 96 47 96 49 L 93 55 Q 77 87 62 109" fill="#CCCCCC"/><path d="M 96 49 Q 96 48 97 49 Q 121 54 124 62 Q 126 69 125 72 Q 124 75 122 75 Q 119 76 115 73 Q 106 66 98 59 Q 95 57 93 55" fill="#CCCCCC"/><path d="M 79 116 Q 69 118 58 113 L 62 109 Q 62 108 62 108 Q 71 107 79 105 Q 86 103 93 100 Q 100 97 106 98 Q 113 99 115 102 Q 116 104 114 106 Q 113 106 90 113" fill="#CCCCCC"/><path d="M 83 147 Q 79 148 77 149 Q 64 153 55 148 Q 49 145 57 143 Q 68 141 78 139 Q 80 137 83 137 L 96 132 Q 101 129 107 130 Q 114 132 116 134 Q 117 136 115 138 Q 114 139 107 141 Q 101 142 96 144" fill="#CCCCCC"/><path d="M 83 164 L 83 147 L 83 137 Q 81 119 79 116 L 90 113 Q 92 114 93 116 Q 97 119 96 132 Q 96 132 96 132 L 96 144 Q 95 166 94 193 L 83 196" fill="#CCCCCC"/><path d="M 46 168 L 46 166 Q 46 163 47 162 Q 49 162 52 163 Q 70 169 72 176 Q 73 183 71 186 Q 70 189 68 189 Q 64 189 61 185 Q 57 179 52 174" fill="#CCCCCC"/><path d="M 109 156 L 108 154 Q 108 150 110 150 Q 114 149 118 152 Q 123 155 124 157 Q 125 159 122 161 Q 116 165 104 176 Q 103 177 101 177 Q 100 176 101 175 Q 106 165 108 159" fill="#CCCCCC"/><path d="M 94 193 Q 107 189 119 185 Q 122 184 124 186 Q 124 188 120 190 Q 115 194 109 196 Q 63 215 51 224 Q 48 226 46 225 Q 37 220 31 216 Q 29 214 29 211 Q 30 208 33 208 Q 42 208 47 207 Q 65 201 83 196" fill="#CCCCCC"/><path d="M 173 92 Q 158 95 146 99 Q 137 101 131 95 Q 127 92 132 91 Q 153 87 173 83 L 186 81 Q 205 76 219 73 Q 234 68 247 76 Q 251 79 250 82 Q 248 84 236 84 Q 206 86 186 89" fill="#CCCCCC"/><path d="M 146 131 Q 145 142 145 189 Q 145 216 137 223 Q 134 224 132 221 Q 124 212 131 193 Q 140 148 129 124 Q 127 121 131 120 Q 135 120 142 123" fill="#CCCCCC"/><path d="M 173 124 Q 159 127 147 131 Q 146 131 146 131 L 142 123 Q 157 120 173 117 L 186 114 Q 206 109 216 105 Q 220 104 225 106 Q 236 112 239 116 L 216 118 Q 214 115 210 116 Q 197 118 186 121" fill="#CCCCCC"/><path d="M 239 116 Q 241 119 238 124 Q 236 129 235 139 Q 236 157 239 208 Q 239 225 235 237 Q 232 244 229 245 Q 226 245 220 240 L 219 216 Q 221 214 221 208 Q 223 167 219 130 Q 219 119 216 118" fill="#CCCCCC"/><path d="M 220 240 Q 213 231 200 220 Q 197 218 196 216 Q 196 213 200 214 Q 216 218 219 216" fill="#CCCCCC"/><path d="M 173 157 Q 163 158 158 155 Q 152 152 159 150 Q 167 149 173 148 L 186 143 Q 192 140 198 141 Q 204 142 206 144 Q 207 146 205 148 Q 204 149 186 154" fill="#CCCCCC"/><path d="M 162 184 L 156 180 Q 150 177 158 176 Q 166 175 173 173 L 186 169 Q 186 169 187 169 Q 193 167 199 168 Q 205 169 207 171 Q 208 173 206 175 Q 205 176 200 177 Q 192 178 186 180 L 173 183" fill="#CCCCCC"/><path d="M 173 173 Q 173 166 173 157 L 173 148 Q 173 137 173 125 Q 173 124 173 124 L 173 117 Q 173 103 173 92 L 173 83 Q 173 61 173 48 Q 172 40 165 34 Q 162 31 165 29 Q 167 26 172 27 Q 182 30 189 34 Q 193 38 192 42 Q 187 49 186 81 L 186 89 Q 186 101 186 114 L 186 121 Q 186 132 186 143 L 186 154 Q 186 162 186 169 L 186 180 Q 186 215 183 225 Q 181 230 177 226 Q 173 221 173 183" fill="#CCCCCC"/><path d="M 206 44 L 205 41 Q 205 38 206 37 Q 208 37 212 37 Q 226 38 229 44 Q 231 51 230 55 Q 229 58 226 58 Q 222 58 213 49" fill="#CCCCCC"/><path d="M 58 113 Q 32 141 21 144 Q 18 144 20 142 Q 37 123 55 99 Q 86 49 78 30 Q 77 27 80 26 Q 88 24 97 30 Q 101 33 102 35 Q 102 38 101 39 Q 96 47 96 49 L 93 55 Q 77 87 62 109" fill="#000000" /><path d="M 96 49 Q 96 48 97 49 Q 121 54 124 62 Q 126 69 125 72 Q 124 75 122 75 Q 119 76 115 73 Q 106 66 98 59 Q 95 57 93 55" fill="#120000" /><path d="M 79 116 Q 69 118 58 113 L 62 109 Q 62 108 62 108 Q 71 107 79 105 Q 86 103 93 100 Q 100 97 106 98 Q 113 99 115 102 Q 116 104 114 106 Q 113 106 90 113" fill="#240000" /><path d="M 83 147 Q 79 148 77 149 Q 64 153 55 148 Q 49 145 57 143 Q 68 141 78 139 Q 80 137 83 137 L 96 132 Q 101 129 107 130 Q 114 132 116 134 Q 117 136 115 138 Q 114 139 107 141 Q 101 142 96 144" fill="#360000" /><path d="M 83 164 L 83 147 L 83 137 Q 81 119 79 116 L 90 113 Q 92 114 93 116 Q 97 119 96 132 Q 96 132 96 132 L 96 144 Q 95 166 94 193 L 83 196" fill="#480000" /><path d="M 46 168 L 46 166 Q 46 163 47 162 Q 49 162 52 163 Q 70 169 72 176 Q 73 183 71 186 Q 70 189 68 189 Q 64 189 61 185 Q 57 179 52 174" fill="#5b0000" /><path d="M 109 156 L 108 154 Q 108 150 110 150 Q 114 149 118 152 Q 123 155 124 157 Q 125 159 122 161 Q 116 165 104 176 Q 103 177 101 177 Q 100 176 101 175 Q 106 165 108 159" fill="#6d0000" /><path d="M 94 193 Q 107 189 119 185 Q 122 184 124 186 Q 124 188 120 190 Q 115 194 109 196 Q 63 215 51 224 Q 48 226 46 225 Q 37 220 31 216 Q 29 214 29 211 Q 30 208 33 208 Q 42 208 47 207 Q 65 201 83 196" fill="#7f0000" /><path d="M 173 92 Q 158 95 146 99 Q 137 101 131 95 Q 127 92 132 91 Q 153 87 173 83 L 186 81 Q 205 76 219 73 Q 234 68 247 76 Q 251 79 250 82 Q 248 84 236 84 Q 206 86 186 89" fill="#910000" /><path d="M 146 131 Q 145 142 145 189 Q 145 216 137 223 Q 134 224 132 221 Q 124 212 131 193 Q 140 148 129 124 Q 127 121 131 120 Q 135 120 142 123" fill="#a30000" /><path d="M 173 124 Q 159 127 147 131 Q 146 131 146 131 L 142 123 Q 157 120 173 117 L 186 114 Q 206 109 216 105 Q 220 104 225 106 Q 236 112 239 116 L 216 118 Q 214 115 210 116 Q 197 118 186 121" fill="#b60000" /><path d="M 239 116 Q 241 119 238 124 Q 236 129 235 139 Q 236 157 239 208 Q 239 225 235 237 Q 232 244 229 245 Q 226 245 220 240 L 219 216 Q 221 214 221 208 Q 223 167 219 130 Q 219 119 216 118" fill="#b60000" /><path d="M 220 240 Q 213 231 200 220 Q 197 218 196 216 Q 196 213 200 214 Q 216 218 219 216" fill="#b60000" /><path d="M 173 157 Q 163 158 158 155 Q 152 152 159 150 Q 167 149 173 148 L 186 143 Q 192 140 198 141 Q 204 142 206 144 Q 207 146 205 148 Q 204 149 186 154" fill="#c80000" /><path d="M 162 184 L 156 180 Q 150 177 158 176 Q 166 175 173 173 L 186 169 Q 186 169 187 169 Q 193 167 199 168 Q 205 169 207 171 Q 208 173 206 175 Q 205 176 200 177 Q 192 178 186 180 L 173 183" fill="#da0000" /><path d="M 173 173 Q 173 166 173 157 L 173 148 Q 173 137 173 125 Q 173 124 173 124 L 173 117 Q 173 103 173 92 L 173 83 Q 173 61 173 48 Q 172 40 165 34 Q 162 31 165 29 Q 167 26 172 27 Q 182 30 189 34 Q 193 38 192 42 Q 187 49 186 81 L 186 89 Q 186 101 186 114 L 186 121 Q 186 132 186 143 L 186 154 Q 186 162 186 169 L 186 180 Q 186 215 183 225 Q 181 230 177 226 Q 173 221 173 183" fill="#ec0000" /><path d="M 206 44 L 205 41 Q 205 38 206 37 Q 208 37 212 37 Q 226 38 229 44 Q 231 51 230 55 Q 229 58 226 58 Q 222 58 213 49" fill="#ff0000" /></svg>