<svg xmlns="http://www.w3.org/2000/svg" xmlns:xlink="http://www.w3.org/1999/xlink" width="270" height="270"><path d="M 0 0 L 270 270 M 270 0 L 0 270 M 135 0 L 135 270 M 0 135 L 270 135" stroke="#CCCCCC" /><path d="M 61 120 L 61 130 Q 61 154 61 178 Q 61 218 52 229 Q 49 233 46 229 Q 43 225 40 216 Q 39 210 41 203 Q 49 179 50 155 Q 56 79 42 46 Q 40 44 41 42 Q 43 40 46 40 Q 53 42 59 47 L 64 54 Q 64 54 64 55 Q 62 61 62 76 L 61 84 Q 61 93 61 104 L 61 112" fill="#CCCCCC"/><path d="M 92 47 Q 89 46 80 48 Q 74 50 66 53 Q 64 54 64 54 L 59 47 Q 76 43 92 36 Q 95 34 100 36 Q 107 40 112 44" fill="#CCCCCC"/><path d="M 88 102 Q 90 101 91 96 Q 92 78 94 56 Q 95 48 92 47 L 112 44 Q 116 48 113 52 Q 106 62 105 90 Q 102 107 100 111 Q 94 117 88 109 Q 88 109 88 109" fill="#CCCCCC"/><path d="M 62 76 Q 62 76 62 76 Q 73 73 78 73 Q 85 74 87 77 Q 89 81 84 82 Q 74 83 61 84" fill="#CCCCCC"/><path d="M 61 104 Q 81 98 85 100 Q 87 101 88 102 L 88 109 Q 72 110 64 112 Q 62 112 61 112" fill="#CCCCCC"/><path d="M 167 95 Q 166 102 163 101 L 162 101 Q 153 94 154 78 Q 155 47 147 34 Q 145 31 147 30 Q 148 29 150 29 Q 154 30 158 33 L 166 41 Q 165 50 165 60 L 166 68 Q 166 73 166 78 Q 167 83 167 87" fill="#CCCCCC"/><path d="M 158 33 Q 171 31 188 27 Q 204 18 210 21 Q 220 24 227 30 L 204 35 Q 202 33 197 34 Q 184 37 170 40 Q 167 41 166 41" fill="#CCCCCC"/><path d="M 227 30 Q 230 33 227 38 Q 223 46 223 63 Q 224 159 228 218 Q 229 234 217 248 Q 215 251 213 250 Q 208 248 204 243 L 207 221 Q 213 210 210 92 L 210 87 Q 208 39 204 35" fill="#CCCCCC"/><path d="M 204 243 Q 195 233 179 219 Q 179 216 185 218 Q 192 220 200 221 Q 205 223 207 221" fill="#CCCCCC"/><path d="M 165 60 Q 178 54 188 55 Q 195 56 197 60 Q 199 63 194 64 Q 181 65 166 68" fill="#CCCCCC"/><path d="M 209 92 L 208 92 Q 182 93 170 95 Q 168 95 167 95 L 167 87 Q 175 86 184 84 Q 202 79 210 87 L 210 92" fill="#CCCCCC"/><path d="M 105 133 Q 89 149 81 151 Q 75 152 79 149 Q 108 117 110 103 Q 110 99 112 99 Q 114 99 120 100 Q 126 101 127 103 Q 127 105 126 108 Q 123 110 120 115 L 115 121 Q 112 125 108 130" fill="#CCCCCC"/><path d="M 140 120 Q 138 119 135 119 Q 122 123 115 121 L 120 115 Q 126 114 134 112 Q 140 110 143 108 Q 148 105 152 108 Q 165 113 165 115 Q 166 117 163 119" fill="#CCCCCC"/><path d="M 95 184 Q 78 192 73 193 Q 69 193 73 191 Q 104 168 122 147 L 127 141 Q 133 133 137 126 Q 140 122 140 120 L 163 119 Q 155 125 137 146 L 131 154 Q 114 170 101 180" fill="#CCCCCC"/><path d="M 122 147 Q 106 134 105 133 L 108 130 Q 113 132 124 139 Q 126 140 127 141 L 137 146 Q 155 155 203 165 Q 207 166 206 167 Q 206 168 202 169 Q 182 177 168 177 Q 160 176 131 154" fill="#CCCCCC"/><path d="M 114 218 L 113 220 Q 112 224 108 219 Q 105 216 104 211 Q 99 188 95 184 L 101 180 Q 107 181 108 182 L 110 189 Q 111 194 113 207 L 114 215" fill="#CCCCCC"/><path d="M 108 182 L 126 179 Q 148 172 151 173 Q 161 179 164 181 L 145 184 Q 143 183 140 184 Q 115 187 110 189" fill="#CCCCCC"/><path d="M 143 200 Q 146 186 145 184 L 164 181 Q 167 185 164 189 Q 159 192 154 202" fill="#CCCCCC"/><path d="M 113 207 Q 126 205 142 201 Q 142 200 143 200 L 154 202 Q 160 206 160 208 Q 160 210 157 210 Q 131 212 119 214 Q 116 215 114 215" fill="#CCCCCC"/><path d="M 61 120 L 61 130 Q 61 154 61 178 Q 61 218 52 229 Q 49 233 46 229 Q 43 225 40 216 Q 39 210 41 203 Q 49 179 50 155 Q 56 79 42 46 Q 40 44 41 42 Q 43 40 46 40 Q 53 42 59 47 L 64 54 Q 64 54 64 55 Q 62 61 62 76 L 61 84 Q 61 93 61 104 L 61 112" fill="#000000" /><path d="M 92 47 Q 89 46 80 48 Q 74 50 66 53 Q 64 54 64 54 L 59 47 Q 76 43 92 36 Q 95 34 100 36 Q 107 40 112 44" fill="#130000" /><path d="M 88 102 Q 90 101 91 96 Q 92 78 94 56 Q 95 48 92 47 L 112 44 Q 116 48 113 52 Q 106 62 105 90 Q 102 107 100 111 Q 94 117 88 109 Q 88 109 88 109" fill="#130000" /><path d="M 62 76 Q 62 76 62 76 Q 73 73 78 73 Q 85 74 87 77 Q 89 81 84 82 Q 74 83 61 84" fill="#270000" /><path d="M 61 104 Q 81 98 85 100 Q 87 101 88 102 L 88 109 Q 72 110 64 112 Q 62 112 61 112" fill="#3a0000" /><path d="M 167 95 Q 166 102 163 101 L 162 101 Q 153 94 154 78 Q 155 47 147 34 Q 145 31 147 30 Q 148 29 150 29 Q 154 30 158 33 L 166 41 Q 165 50 165 60 L 166 68 Q 166 73 166 78 Q 167 83 167 87" fill="#4e0000" /><path d="M 158 33 Q 171 31 188 27 Q 204 18 210 21 Q 220 24 227 30 L 204 35 Q 202 33 197 34 Q 184 37 170 40 Q 167 41 166 41" fill="#620000" /><path d="M 227 30 Q 230 33 227 38 Q 223 46 223 63 Q 224 159 228 218 Q 229 234 217 248 Q 215 251 213 250 Q 208 248 204 243 L 207 221 Q 213 210 210 92 L 210 87 Q 208 39 204 35" fill="#620000" /><path d="M 204 243 Q 195 233 179 219 Q 179 216 185 218 Q 192 220 200 221 Q 205 223 207 221" fill="#620000" /><path d="M 165 60 Q 178 54 188 55 Q 195 56 197 60 Q 199 63 194 64 Q 181 65 166 68" fill="#750000" /><path d="M 209 92 L 208 92 Q 182 93 170 95 Q 168 95 167 95 L 167 87 Q 175 86 184 84 Q 202 79 210 87 L 210 92" fill="#890000" /><path d="M 105 133 Q 89 149 81 151 Q 75 152 79 149 Q 108 117 110 103 Q 110 99 112 99 Q 114 99 120 100 Q 126 101 127 103 Q 127 105 126 108 Q 123 110 120 115 L 115 121 Q 112 125 108 130" fill="#9c0000" /><path d="M 140 120 Q 138 119 135 119 Q 122 123 115 121 L 120 115 Q 126 114 134 112 Q 140 110 143 108 Q 148 105 152 108 Q 165 113 165 115 Q 166 117 163 119" fill="#b00000" /><path d="M 95 184 Q 78 192 73 193 Q 69 193 73 191 Q 104 168 122 147 L 127 141 Q 133 133 137 126 Q 140 122 140 120 L 163 119 Q 155 125 137 146 L 131 154 Q 114 170 101 180" fill="#b00000" /><path d="M 122 147 Q 106 134 105 133 L 108 130 Q 113 132 124 139 Q 126 140 127 141 L 137 146 Q 155 155 203 165 Q 207 166 206 167 Q 206 168 202 169 Q 182 177 168 177 Q 160 176 131 154" fill="#c40000" /><path d="M 114 218 L 113 220 Q 112 224 108 219 Q 105 216 104 211 Q 99 188 95 184 L 101 180 Q 107 181 108 182 L 110 189 Q 111 194 113 207 L 114 215" fill="#d70000" /><path d="M 108 182 L 126 179 Q 148 172 151 173 Q 161 179 164 181 L 145 184 Q 143 183 140 184 Q 115 187 110 189" fill="#eb0000" /><path d="M 143 200 Q 146 186 145 184 L 164 181 Q 167 185 164 189 Q 159 192 154 202" fill="#eb0000" /><path d="M 113 207 Q 126 205 142 201 Q 142 200 143 200 L 154 202 Q 160 206 160 208 Q 160 210 157 210 Q 131 212 119 214 Q 116 215 114 215" fill="#ff0000" /></svg>