<svg xmlns="http://www.w3.org/2000/svg" xmlns:xlink="http://www.w3.org/1999/xlink" width="270" height="270"><path d="M 0 0 L 270 270 M 270 0 L 0 270 M 135 0 L 135 270 M 0 135 L 270 135" stroke="#CCCCCC" /><path d="M 67 130 L 67 153 Q 67 205 58 216 Q 55 220 52 216 Q 49 212 46 203 Q 45 197 47 190 Q 51 177 53 163 Q 63 84 48 46 Q 46 43 47 41 Q 49 39 52 39 Q 61 42 67 49 L 69 55 Q 68 61 68 74 L 67 82 Q 67 89 67 98 L 67 106" fill="#000000" /><path d="M 97 50 Q 93 48 69 55 Q 69 55 69 55 L 67 49 Q 83 45 97 39 Q 100 38 104 39 Q 111 43 116 46" fill="#120000" /><path d="M 95 96 Q 97 94 98 90 Q 99 75 99 57 Q 99 51 97 50 L 116 46 Q 119 49 116 54 Q 110 63 110 83 Q 109 99 106 103 Q 101 110 96 102 L 96 102" fill="#120000" /><path d="M 68 74 Q 77 70 85 70 Q 91 71 93 74 Q 95 77 90 78 Q 80 79 67 82" fill="#240000" /><path d="M 67 98 Q 74 97 83 94 Q 89 92 93 94 Q 94 95 95 96 L 96 102 Q 78 104 69 105 Q 68 106 67 106" fill="#360000" /><path d="M 164 88 L 164 88 Q 163 95 159 93 Q 152 89 152 72 Q 153 43 147 32 Q 146 30 147 29 Q 149 28 150 28 Q 155 30 160 34 L 164 42 Q 163 49 163 59 L 163 64 Q 164 73 164 81 L 164 87" fill="#480000" /><path d="M 160 34 Q 175 31 186 27 Q 199 20 205 22 Q 215 27 221 31 L 200 37 Q 197 34 193 35 Q 167 42 164 42" fill="#5b0000" /><path d="M 221 31 Q 224 34 221 39 Q 217 47 218 63 Q 218 158 222 218 Q 223 232 213 246 Q 210 249 208 248 Q 203 247 200 242 L 201 221 Q 208 210 204 83 L 204 77 Q 204 65 203 53 Q 203 40 200 37" fill="#5b0000" /><path d="M 200 242 Q 191 233 175 220 Q 174 218 180 219 Q 200 221 201 221" fill="#5b0000" /><path d="M 163 59 Q 181 52 188 53 Q 193 54 195 57 Q 197 59 192 60 Q 180 62 165 64 Q 164 64 163 64" fill="#6d0000" /><path d="M 164 81 Q 193 73 200 75 Q 202 76 204 77 L 204 83 Q 204 83 204 83 Q 188 84 166 87 Q 165 87 164 87" fill="#7f0000" /><path d="M 94 118 L 94 117 Q 94 114 95 114 Q 96 113 99 114 Q 113 118 114 123 Q 115 128 114 131 Q 113 133 111 133 Q 109 133 99 123" fill="#910000" /><path d="M 142 101 L 141 99 Q 140 95 143 95 Q 147 94 152 97 Q 156 101 157 103 Q 159 106 155 107 Q 147 113 131 128 Q 129 129 128 129 Q 127 128 128 126 Q 136 113 140 105" fill="#a30000" /><path d="M 111 171 L 105 174 Q 101 171 100 166 Q 96 151 91 142 Q 89 139 90 138 Q 91 137 93 137 Q 97 138 100 139 L 104 144 Q 105 149 108 164" fill="#b60000" /><path d="M 100 139 Q 118 135 132 131 Q 144 124 159 135 L 140 138 Q 139 137 109 143 Q 106 144 104 144" fill="#c80000" /><path d="M 137 158 Q 142 140 140 138 L 159 135 Q 161 139 158 142 Q 152 146 147 159" fill="#c80000" /><path d="M 113 171 L 111 171 L 108 164 Q 125 161 126 161 Q 132 159 137 158 L 147 159 Q 147 159 148 160 Q 152 162 152 163 Q 150 165 137 167 L 128 169" fill="#da0000" /><path d="M 111 171 Q 114 174 116 180 Q 117 183 115 184 Q 113 186 110 189 Q 88 211 74 211 Q 73 211 74 210 Q 74 209 75 208 Q 99 190 105 174" fill="#ec0000" /><path d="M 137 167 Q 136 167 136 167 Q 141 170 140 174 Q 137 192 139 198 Q 140 200 144 201 L 140 212 Q 129 206 130 183 Q 130 176 128 169" fill="#ff0000" /><path d="M 144 201 Q 152 205 163 203 Q 168 201 170 199 L 189 199 Q 192 204 188 207 Q 170 221 146 214 Q 142 212 140 212" fill="#ff0000" /><path d="M 170 199 Q 173 194 178 178 Q 179 175 180 175 Q 182 176 182 179 Q 186 194 189 199" fill="#ff0000" /></svg>