<svg xmlns="http://www.w3.org/2000/svg" xmlns:xlink="http://www.w3.org/1999/xlink" width="270" height="270"><path d="M 0 0 L 270 270 M 270 0 L 0 270 M 135 0 L 135 270 M 0 135 L 270 135" stroke="#CCCCCC" /><path d="M 59 53 L 70 44 Q 73 42 78 43 Q 87 48 90 52 Q 93 55 88 58 L 70 58 Q 67 56 64 59 Q 55 63 47 65 L 42 58" fill="#000000" /><path d="M 88 58 Q 82 62 73 77 Q 62 90 70 97 L 60 97 Q 57 93 59 87 Q 64 76 69 65 Q 72 60 70 58" fill="#000000" /><path d="M 70 97 Q 73 100 74 102 Q 89 118 87 131 Q 86 136 83 139 Q 80 142 77 139 L 71 121 Q 74 117 60 97" fill="#000000" /><path d="M 77 139 Q 65 132 52 127 Q 46 124 51 124 Q 58 124 64 124 Q 70 124 71 121" fill="#000000" /><path d="M 47 65 Q 46 119 45 172 Q 44 222 36 234 Q 34 237 30 234 Q 27 230 24 220 Q 24 219 24 218 Q 24 217 31 183 Q 42 98 25 58 Q 23 55 24 53 Q 26 51 29 51 Q 36 53 42 58" fill="#1f0000" /><path d="M 130 33 L 129 30 Q 128 26 130 25 Q 131 24 136 25 Q 159 31 161 38 Q 164 46 163 50 Q 161 54 158 54 Q 154 54 150 51 Q 143 44 137 39" fill="#3f0000" /><path d="M 107 84 L 107 85 Q 105 88 101 100 Q 96 111 93 112 Q 92 114 90 111 Q 87 107 87 102 Q 87 98 89 93 Q 97 77 96 70 Q 96 67 97 66 Q 99 65 100 66 Q 105 70 108 77 L 107 84" fill="#5f0000" /><path d="M 108 77 Q 150 66 177 61 Q 199 56 204 59 L 188 68 Q 185 68 178 69 Q 144 74 126 82 Q 113 86 107 84" fill="#7f0000" /><path d="M 204 59 Q 222 71 223 73 Q 223 75 215 79 Q 205 83 192 93 Q 189 96 187 95 Q 186 95 191 77 Q 192 74 191 73 Q 192 71 188 68" fill="#7f0000" /><path d="M 125 111 L 133 109 Q 140 107 147 105 Q 154 102 162 103 Q 170 104 172 107 Q 173 109 171 111 Q 170 112 164 114 Q 151 117 138 120 Q 125 124 113 118 Q 107 114 116 112" fill="#9f0000" /><path d="M 148 149 Q 124 153 104 157 Q 98 159 89 153 Q 83 149 91 148 Q 103 146 114 145 Q 125 143 157 136 Q 184 128 191 134 Q 197 136 196 139 Q 194 142 192 142 Q 163 146 159 147" fill="#bf0000" /><path d="M 114 160 L 117 160 Q 120 159 125 163 Q 131 168 133 170 Q 134 173 132 175 Q 129 179 126 184 Q 111 212 93 222 Q 74 235 67 232 Q 66 231 68 230 Q 84 218 91 211 Q 115 189 114 164" fill="#df0000" /><path d="M 164 234 Q 149 227 149 201 Q 149 170 151 169 Q 151 152 148 149 L 159 147 Q 167 151 165 158 Q 157 200 163 214" fill="#ff0000" /><path d="M 246 224 L 241 228 Q 231 234 222 237 Q 189 245 164 234 L 163 214 Q 165 218 171 221 Q 179 225 188 225 Q 211 226 219 218 L 242 217" fill="#ff0000" /><path d="M 219 218 Q 224 209 230 182 Q 231 178 232 178 Q 234 179 234 184 Q 239 209 242 217" fill="#ff0000" /></svg>