<svg xmlns="http://www.w3.org/2000/svg" xmlns:xlink="http://www.w3.org/1999/xlink" width="270" height="270"><path d="M 0 0 L 270 270 M 270 0 L 0 270 M 135 0 L 135 270 M 0 135 L 270 135" stroke="#CCCCCC" /><path d="M 68 95 L 65 96 Q 48 101 37 96 Q 30 92 40 89 Q 59 86 75 82 L 90 77 Q 110 68 118 69 Q 126 70 128 73 Q 129 76 127 78 Q 125 80 85 91 L 70 95" fill="#CCCCCC"/><path d="M 75 82 Q 78 69 81 45 Q 81 38 77 29 Q 75 23 79 22 Q 84 21 88 24 Q 94 26 100 33 Q 104 37 102 40 Q 99 47 90 77 L 85 91 Q 66 142 47 171 Q 46 172 46 173 Q 25 203 14 208 Q 12 209 12 207 Q 12 205 13 204 Q 53 146 70 95" fill="#CCCCCC"/><path d="M 70 195 Q 67 198 64 196 Q 58 192 56 188 Q 54 185 58 182 Q 65 175 69 169 Q 92 128 86 117 Q 84 112 87 110 Q 90 109 94 110 Q 106 115 108 117 Q 110 120 107 123 Q 102 130 79 172 Q 78 175 79 176" fill="#CCCCCC"/><path d="M 77 188 L 70 195 L 79 176 Q 79 177 81 176 Q 96 171 110 167 L 113 173" fill="#CCCCCC"/><path d="M 110 167 Q 104 153 105 152 Q 105 150 106 150 Q 108 150 110 152 Q 130 171 128 180 Q 127 186 126 187 Q 124 189 122 188 Q 120 187 113 173" fill="#CCCCCC"/><path d="M 132 102 Q 129 104 128 106 Q 122 112 119 112 Q 115 113 116 111 Q 116 109 119 106 Q 133 87 142 69 Q 152 51 158 32 Q 160 27 156 20 Q 154 15 159 14 Q 163 14 170 18 Q 178 23 179 26 Q 181 29 178 32 Q 174 37 169 47 Q 157 69 146 83 Q 142 88 140 92" fill="#CCCCCC"/><path d="M 151 204 Q 152 235 148 248 Q 144 255 139 251 Q 132 243 132 233 Q 131 230 137 199 Q 140 179 140 122 Q 139 120 132 102 L 140 92 Q 144 96 150 103 Q 154 107 152 115 Q 150 131 151 195" fill="#CCCCCC"/><path d="M 181 47 L 181 44 Q 181 41 182 41 Q 186 40 202 50 Q 209 55 209 60 Q 210 67 208 70 Q 207 73 204 72 Q 201 72 198 69 Q 192 60 186 52" fill="#CCCCCC"/><path d="M 188 99 Q 185 99 183 100 Q 170 104 160 99 Q 153 95 162 93 Q 176 91 199 85 Q 222 76 228 76 Q 235 78 237 80 Q 238 83 236 84 Q 235 86 225 89 Q 211 92 199 96" fill="#CCCCCC"/><path d="M 191 129 Q 170 133 168 132 Q 162 128 166 127 Q 178 123 191 119 L 205 115 Q 212 113 218 113 Q 225 114 228 118 Q 231 122 224 123 Q 215 124 204 127" fill="#CCCCCC"/><path d="M 191 161 Q 183 162 175 164 Q 169 165 166 163 Q 160 159 164 158 Q 177 154 191 150 L 203 147 Q 214 144 220 144 Q 227 145 230 149 Q 233 153 226 154 Q 215 156 203 158" fill="#CCCCCC"/><path d="M 191 173 L 191 161 L 191 150 Q 191 137 191 129 L 191 119 Q 191 110 188 99 L 199 96 Q 202 98 204 100 Q 207 103 205 108 Q 205 111 205 115 L 204 127 Q 204 137 203 147 L 203 158 Q 203 172 202 187 L 191 190" fill="#CCCCCC"/><path d="M 202 187 Q 215 185 224 183 Q 238 178 253 189 Q 257 193 256 196 Q 254 198 249 198 Q 191 198 164 205 Q 158 206 151 204 L 151 195 Q 173 192 191 190" fill="#CCCCCC"/><path d="M 68 95 L 65 96 Q 48 101 37 96 Q 30 92 40 89 Q 59 86 75 82 L 90 77 Q 110 68 118 69 Q 126 70 128 73 Q 129 76 127 78 Q 125 80 85 91 L 70 95" fill="#000000" /><path d="M 75 82 Q 78 69 81 45 Q 81 38 77 29 Q 75 23 79 22 Q 84 21 88 24 Q 94 26 100 33 Q 104 37 102 40 Q 99 47 90 77 L 85 91 Q 66 142 47 171 Q 46 172 46 173 Q 25 203 14 208 Q 12 209 12 207 Q 12 205 13 204 Q 53 146 70 95" fill="#170000" /><path d="M 70 195 Q 67 198 64 196 Q 58 192 56 188 Q 54 185 58 182 Q 65 175 69 169 Q 92 128 86 117 Q 84 112 87 110 Q 90 109 94 110 Q 106 115 108 117 Q 110 120 107 123 Q 102 130 79 172 Q 78 175 79 176" fill="#2e0000" /><path d="M 77 188 L 70 195 L 79 176 Q 79 177 81 176 Q 96 171 110 167 L 113 173" fill="#2e0000" /><path d="M 110 167 Q 104 153 105 152 Q 105 150 106 150 Q 108 150 110 152 Q 130 171 128 180 Q 127 186 126 187 Q 124 189 122 188 Q 120 187 113 173" fill="#450000" /><path d="M 132 102 Q 129 104 128 106 Q 122 112 119 112 Q 115 113 116 111 Q 116 109 119 106 Q 133 87 142 69 Q 152 51 158 32 Q 160 27 156 20 Q 154 15 159 14 Q 163 14 170 18 Q 178 23 179 26 Q 181 29 178 32 Q 174 37 169 47 Q 157 69 146 83 Q 142 88 140 92" fill="#5c0000" /><path d="M 151 204 Q 152 235 148 248 Q 144 255 139 251 Q 132 243 132 233 Q 131 230 137 199 Q 140 179 140 122 Q 139 120 132 102 L 140 92 Q 144 96 150 103 Q 154 107 152 115 Q 150 131 151 195" fill="#730000" /><path d="M 181 47 L 181 44 Q 181 41 182 41 Q 186 40 202 50 Q 209 55 209 60 Q 210 67 208 70 Q 207 73 204 72 Q 201 72 198 69 Q 192 60 186 52" fill="#8b0000" /><path d="M 188 99 Q 185 99 183 100 Q 170 104 160 99 Q 153 95 162 93 Q 176 91 199 85 Q 222 76 228 76 Q 235 78 237 80 Q 238 83 236 84 Q 235 86 225 89 Q 211 92 199 96" fill="#a20000" /><path d="M 191 129 Q 170 133 168 132 Q 162 128 166 127 Q 178 123 191 119 L 205 115 Q 212 113 218 113 Q 225 114 228 118 Q 231 122 224 123 Q 215 124 204 127" fill="#b90000" /><path d="M 191 161 Q 183 162 175 164 Q 169 165 166 163 Q 160 159 164 158 Q 177 154 191 150 L 203 147 Q 214 144 220 144 Q 227 145 230 149 Q 233 153 226 154 Q 215 156 203 158" fill="#d00000" /><path d="M 191 173 L 191 161 L 191 150 Q 191 137 191 129 L 191 119 Q 191 110 188 99 L 199 96 Q 202 98 204 100 Q 207 103 205 108 Q 205 111 205 115 L 204 127 Q 204 137 203 147 L 203 158 Q 203 172 202 187 L 191 190" fill="#e70000" /><path d="M 202 187 Q 215 185 224 183 Q 238 178 253 189 Q 257 193 256 196 Q 254 198 249 198 Q 191 198 164 205 Q 158 206 151 204 L 151 195 Q 173 192 191 190" fill="#ff0000" /></svg>