<svg xmlns="http://www.w3.org/2000/svg" xmlns:xlink="http://www.w3.org/1999/xlink" width="270" height="270"><path d="M 0 0 L 270 270 M 270 0 L 0 270 M 135 0 L 135 270 M 0 135 L 270 135" stroke="#CCCCCC" /><path d="M 117 42 Q 95 44 86 39 Q 79 34 89 33 Q 106 31 130 27 Q 159 19 166 21 Q 173 23 175 26 Q 176 28 174 30 Q 172 31 128 40" fill="#CCCCCC"/><path d="M 60 83 Q 58 90 54 101 Q 51 111 47 118 Q 43 125 38 119 Q 28 102 41 89 Q 49 76 48 68 Q 48 60 54 64 Q 57 67 61 73" fill="#CCCCCC"/><path d="M 109 73 L 83 80 Q 66 85 60 83 L 61 73 Q 91 69 121 64 L 135 62 Q 148 59 159 58 Q 185 54 207 51 Q 214 50 220 55 L 200 63 Q 189 61 135 70 L 122 72" fill="#CCCCCC"/><path d="M 220 55 Q 240 71 241 75 Q 241 78 230 79 Q 216 82 199 91 Q 193 94 191 93 Q 189 92 192 88 Q 202 68 202 67 Q 203 65 200 63" fill="#CCCCCC"/><path d="M 121 64 Q 121 46 117 42 L 128 40 Q 131 41 133 42 Q 138 45 136 51 Q 135 56 135 62 L 135 70 Q 135 72 135 73 Q 134 98 134 107 Q 134 119 129 128 Q 126 131 123 128 Q 116 119 118 110 Q 122 86 122 72" fill="#CCCCCC"/><path d="M 76 97 L 76 95 Q 75 92 77 92 Q 88 87 96 91 Q 100 94 102 97 Q 102 102 99 103 Q 93 106 79 98" fill="#CCCCCC"/><path d="M 72 122 L 71 120 Q 70 117 70 116 Q 72 116 75 116 Q 92 116 95 120 Q 98 126 98 130 Q 98 132 95 133 Q 92 134 89 132 Q 83 128 78 125" fill="#CCCCCC"/><path d="M 149 84 L 149 82 Q 148 79 150 79 Q 165 77 171 82 Q 175 85 176 89 Q 176 93 172 94 Q 166 96 151 85" fill="#CCCCCC"/><path d="M 146 109 L 146 107 Q 146 104 148 104 Q 163 102 170 108 Q 173 112 174 116 Q 173 121 170 121 Q 164 122 149 111" fill="#CCCCCC"/><path d="M 92 201 Q 91 203 91 205 Q 90 210 85 203 Q 80 198 79 191 Q 73 166 65 151 Q 63 146 65 145 Q 66 143 69 144 Q 78 145 81 147 L 85 155 Q 89 175 92 192" fill="#CCCCCC"/><path d="M 114 149 Q 97 152 85 155 L 81 147 Q 143 136 153 136 Q 173 131 178 134 Q 189 141 193 146 L 167 145 Q 161 141 126 147" fill="#CCCCCC"/><path d="M 157 187 Q 162 184 169 152 Q 170 147 167 145 L 193 146 Q 196 150 192 153 Q 186 160 183 168 Q 174 196 171 201 Q 166 207 163 204 Q 159 201 154 194" fill="#CCCCCC"/><path d="M 117 174 Q 112 174 108 176 Q 103 176 100 174 Q 95 171 99 170 Q 108 168 117 165 L 130 161 Q 137 160 142 160 Q 148 161 151 165 Q 153 168 147 169 Q 139 170 129 172" fill="#CCCCCC"/><path d="M 104 199 L 96 200 Q 93 201 92 201 L 92 192 Q 103 190 116 188 L 127 186 Q 128 186 128 186 Q 147 179 157 187 L 154 194 Q 139 194 127 196 L 116 197" fill="#CCCCCC"/><path d="M 116 188 Q 116 181 117 174 L 117 165 Q 117 158 114 150 Q 114 149 114 149 L 126 147 Q 128 149 129 150 Q 132 152 131 157 Q 131 159 130 161 L 129 172 Q 128 179 127 186 L 127 196 Q 127 211 131 218 L 126 234 Q 115 226 116 197" fill="#CCCCCC"/><path d="M 131 218 Q 133 222 140 225 Q 149 228 160 228 Q 177 228 191 222 L 225 220 Q 227 227 222 230 Q 211 238 200 241 Q 196 242 191 243 Q 146 250 126 234" fill="#CCCCCC"/><path d="M 191 222 Q 200 217 215 193 Q 217 188 218 189 Q 220 191 220 196 Q 222 214 225 220" fill="#CCCCCC"/><path d="M 117 42 Q 95 44 86 39 Q 79 34 89 33 Q 106 31 130 27 Q 159 19 166 21 Q 173 23 175 26 Q 176 28 174 30 Q 172 31 128 40" fill="#000000" /><path d="M 60 83 Q 58 90 54 101 Q 51 111 47 118 Q 43 125 38 119 Q 28 102 41 89 Q 49 76 48 68 Q 48 60 54 64 Q 57 67 61 73" fill="#150000" /><path d="M 109 73 L 83 80 Q 66 85 60 83 L 61 73 Q 91 69 121 64 L 135 62 Q 148 59 159 58 Q 185 54 207 51 Q 214 50 220 55 L 200 63 Q 189 61 135 70 L 122 72" fill="#2a0000" /><path d="M 220 55 Q 240 71 241 75 Q 241 78 230 79 Q 216 82 199 91 Q 193 94 191 93 Q 189 92 192 88 Q 202 68 202 67 Q 203 65 200 63" fill="#2a0000" /><path d="M 121 64 Q 121 46 117 42 L 128 40 Q 131 41 133 42 Q 138 45 136 51 Q 135 56 135 62 L 135 70 Q 135 72 135 73 Q 134 98 134 107 Q 134 119 129 128 Q 126 131 123 128 Q 116 119 118 110 Q 122 86 122 72" fill="#3f0000" /><path d="M 76 97 L 76 95 Q 75 92 77 92 Q 88 87 96 91 Q 100 94 102 97 Q 102 102 99 103 Q 93 106 79 98" fill="#550000" /><path d="M 72 122 L 71 120 Q 70 117 70 116 Q 72 116 75 116 Q 92 116 95 120 Q 98 126 98 130 Q 98 132 95 133 Q 92 134 89 132 Q 83 128 78 125" fill="#6a0000" /><path d="M 149 84 L 149 82 Q 148 79 150 79 Q 165 77 171 82 Q 175 85 176 89 Q 176 93 172 94 Q 166 96 151 85" fill="#7f0000" /><path d="M 146 109 L 146 107 Q 146 104 148 104 Q 163 102 170 108 Q 173 112 174 116 Q 173 121 170 121 Q 164 122 149 111" fill="#940000" /><path d="M 92 201 Q 91 203 91 205 Q 90 210 85 203 Q 80 198 79 191 Q 73 166 65 151 Q 63 146 65 145 Q 66 143 69 144 Q 78 145 81 147 L 85 155 Q 89 175 92 192" fill="#aa0000" /><path d="M 114 149 Q 97 152 85 155 L 81 147 Q 143 136 153 136 Q 173 131 178 134 Q 189 141 193 146 L 167 145 Q 161 141 126 147" fill="#bf0000" /><path d="M 157 187 Q 162 184 169 152 Q 170 147 167 145 L 193 146 Q 196 150 192 153 Q 186 160 183 168 Q 174 196 171 201 Q 166 207 163 204 Q 159 201 154 194" fill="#bf0000" /><path d="M 117 174 Q 112 174 108 176 Q 103 176 100 174 Q 95 171 99 170 Q 108 168 117 165 L 130 161 Q 137 160 142 160 Q 148 161 151 165 Q 153 168 147 169 Q 139 170 129 172" fill="#d40000" /><path d="M 104 199 L 96 200 Q 93 201 92 201 L 92 192 Q 103 190 116 188 L 127 186 Q 128 186 128 186 Q 147 179 157 187 L 154 194 Q 139 194 127 196 L 116 197" fill="#e90000" /><path d="M 116 188 Q 116 181 117 174 L 117 165 Q 117 158 114 150 Q 114 149 114 149 L 126 147 Q 128 149 129 150 Q 132 152 131 157 Q 131 159 130 161 L 129 172 Q 128 179 127 186 L 127 196 Q 127 211 131 218 L 126 234 Q 115 226 116 197" fill="#ff0000" /><path d="M 131 218 Q 133 222 140 225 Q 149 228 160 228 Q 177 228 191 222 L 225 220 Q 227 227 222 230 Q 211 238 200 241 Q 196 242 191 243 Q 146 250 126 234" fill="#ff0000" /><path d="M 191 222 Q 200 217 215 193 Q 217 188 218 189 Q 220 191 220 196 Q 222 214 225 220" fill="#ff0000" /></svg>