<svg xmlns="http://www.w3.org/2000/svg" xmlns:xlink="http://www.w3.org/1999/xlink" width="270" height="270"><path d="M 0 0 L 270 270 M 270 0 L 0 270 M 135 0 L 135 270 M 0 135 L 270 135" stroke="#CCCCCC" /><path d="M 114 66 Q 109 66 106 67 Q 85 70 75 64 Q 68 59 78 58 Q 113 55 150 46 Q 177 38 185 39 Q 193 42 195 45 Q 196 47 194 50 Q 191 52 174 55 Q 148 59 124 64" fill="#000000" /><path d="M 93 113 Q 93 109 96 105 Q 114 75 114 66 L 124 64 Q 130 69 132 74 Q 134 77 129 80 Q 124 85 120 89 Q 108 106 102 112" fill="#1f0000" /><path d="M 69 222 L 69 222 Q 69 231 63 230 L 63 230 Q 51 221 51 202 Q 49 145 35 121 Q 32 118 34 116 Q 35 114 38 115 Q 45 116 51 121 L 59 132 Q 60 149 66 201 Q 68 207 68 212 L 69 222" fill="#3f0000" /><path d="M 206 112 Q 203 108 196 108 Q 177 109 156 112 L 143 114 Q 128 115 105 120 L 93 122 Q 62 129 59 132 L 51 121 Q 61 119 78 116 Q 85 114 93 113 L 102 112 Q 130 106 175 101 Q 194 98 200 97 Q 201 97 202 97 Q 211 92 225 105 Q 237 114 237 119" fill="#5f0000" /><path d="M 194 203 L 194 203 Q 196 203 197 201 Q 199 198 203 173 Q 214 119 206 112 L 237 119 Q 237 121 234 125 Q 229 132 227 150 Q 218 210 208 224 Q 204 230 201 231 Q 194 231 189 214 Q 189 213 189 212" fill="#5f0000" /><path d="M 100 210 Q 99 180 98 162 Q 97 128 93 122 L 105 120 Q 108 122 110 125 Q 110 125 110 143 L 110 151 Q 110 163 110 176 L 110 183 Q 110 196 110 209" fill="#7f0000" /><path d="M 145 205 Q 146 173 146 155 Q 146 121 143 114 L 156 112 L 157 113 Q 163 118 161 124 Q 160 129 157 203" fill="#9f0000" /><path d="M 110 143 Q 112 142 114 142 Q 124 138 129 138 Q 136 139 139 142 Q 141 145 135 147 Q 125 149 110 151" fill="#bf0000" /><path d="M 110 176 Q 119 170 129 170 Q 136 171 139 174 Q 141 177 135 179 Q 125 181 110 183" fill="#df0000" /><path d="M 68 212 Q 83 211 100 210 L 110 209 Q 127 207 145 205 L 157 203 Q 186 198 191 201 Q 193 202 194 203 L 189 212 Q 111 215 74 222 Q 71 222 69 222" fill="#ff0000" /></svg>