<svg xmlns="http://www.w3.org/2000/svg" xmlns:xlink="http://www.w3.org/1999/xlink" width="270" height="270"><path d="M 0 0 L 270 270 M 270 0 L 0 270 M 135 0 L 135 270 M 0 135 L 270 135" stroke="#CCCCCC" /><path d="M 62 62 L 61 63 Q 45 68 34 62 Q 27 58 36 56 Q 45 54 79 46 Q 105 36 113 37 Q 121 39 123 42 Q 124 44 122 46 Q 120 47 76 60 L 66 62" fill="#CCCCCC"/><path d="M 76 60 Q 83 62 88 67 Q 93 71 91 76 Q 88 85 88 98 Q 89 177 90 189 Q 90 208 81 218 Q 77 222 73 217 L 70 188 Q 73 186 73 181 Q 76 149 73 87 Q 74 75 67 65 Q 66 63 66 62" fill="#CCCCCC"/><path d="M 73 217 Q 66 207 44 189 Q 42 187 41 186 Q 41 183 44 184 Q 54 187 64 189 Q 68 190 70 188" fill="#CCCCCC"/><path d="M 167 49 Q 157 51 147 54 Q 138 57 130 50 Q 126 46 131 46 Q 188 35 212 29 Q 223 24 238 34 Q 242 37 241 40 Q 239 42 227 42 Q 183 44 177 47" fill="#CCCCCC"/><path d="M 155 85 Q 155 81 158 77 Q 169 55 167 49 L 177 47 Q 183 53 185 57 Q 186 60 182 62 Q 178 65 177 68 Q 164 83 163 83" fill="#CCCCCC"/><path d="M 148 183 L 147 185 Q 144 188 142 185 Q 135 177 135 172 Q 135 171 138 146 Q 138 95 135 89 Q 133 87 133 85 Q 132 82 133 81 Q 136 80 139 81 Q 145 83 148 86 L 151 94 Q 150 95 150 113 L 150 119 Q 150 128 150 140 L 150 147 Q 150 170 150 174 L 149 181" fill="#CCCCCC"/><path d="M 203 85 Q 201 81 194 83 Q 176 87 151 93 Q 151 93 151 94 L 148 86 Q 151 85 154 85 Q 154 85 155 85 L 163 83 Q 167 82 172 81 Q 187 78 198 73 Q 204 71 208 72 Q 220 77 228 83" fill="#CCCCCC"/><path d="M 205 168 Q 207 156 207 108 Q 207 90 203 85 L 228 83 Q 230 86 227 90 Q 217 106 224 167 Q 224 173 220 180 Q 216 188 212 189 Q 210 189 206 181 Q 205 179 204 176" fill="#CCCCCC"/><path d="M 150 113 Q 157 111 163 110 Q 170 109 176 106 Q 182 104 188 105 Q 194 106 196 108 Q 197 110 195 112 Q 195 112 195 112 Q 165 122 150 119" fill="#CCCCCC"/><path d="M 150 140 Q 158 139 165 138 Q 186 133 190 134 Q 196 135 198 137 Q 199 139 197 141 Q 195 142 183 144 Q 160 148 150 147" fill="#CCCCCC"/><path d="M 150 174 Q 196 166 201 167 Q 203 167 205 168 L 204 176 Q 182 178 152 181 Q 150 181 149 181" fill="#CCCCCC"/><path d="M 150 189 L 152 189 Q 155 188 162 192 Q 169 194 170 198 Q 170 200 167 203 Q 163 206 156 214 Q 125 241 107 241 Q 100 241 105 238 Q 144 210 149 193" fill="#CCCCCC"/><path d="M 192 196 L 192 193 Q 193 190 195 192 Q 237 213 238 227 Q 240 239 237 243 Q 235 245 233 244 Q 229 243 225 237 Q 208 215 194 200" fill="#CCCCCC"/><path d="M 62 62 L 61 63 Q 45 68 34 62 Q 27 58 36 56 Q 45 54 79 46 Q 105 36 113 37 Q 121 39 123 42 Q 124 44 122 46 Q 120 47 76 60 L 66 62" fill="#000000" /><path d="M 76 60 Q 83 62 88 67 Q 93 71 91 76 Q 88 85 88 98 Q 89 177 90 189 Q 90 208 81 218 Q 77 222 73 217 L 70 188 Q 73 186 73 181 Q 76 149 73 87 Q 74 75 67 65 Q 66 63 66 62" fill="#190000" /><path d="M 73 217 Q 66 207 44 189 Q 42 187 41 186 Q 41 183 44 184 Q 54 187 64 189 Q 68 190 70 188" fill="#190000" /><path d="M 167 49 Q 157 51 147 54 Q 138 57 130 50 Q 126 46 131 46 Q 188 35 212 29 Q 223 24 238 34 Q 242 37 241 40 Q 239 42 227 42 Q 183 44 177 47" fill="#330000" /><path d="M 155 85 Q 155 81 158 77 Q 169 55 167 49 L 177 47 Q 183 53 185 57 Q 186 60 182 62 Q 178 65 177 68 Q 164 83 163 83" fill="#4c0000" /><path d="M 148 183 L 147 185 Q 144 188 142 185 Q 135 177 135 172 Q 135 171 138 146 Q 138 95 135 89 Q 133 87 133 85 Q 132 82 133 81 Q 136 80 139 81 Q 145 83 148 86 L 151 94 Q 150 95 150 113 L 150 119 Q 150 128 150 140 L 150 147 Q 150 170 150 174 L 149 181" fill="#660000" /><path d="M 203 85 Q 201 81 194 83 Q 176 87 151 93 Q 151 93 151 94 L 148 86 Q 151 85 154 85 Q 154 85 155 85 L 163 83 Q 167 82 172 81 Q 187 78 198 73 Q 204 71 208 72 Q 220 77 228 83" fill="#7f0000" /><path d="M 205 168 Q 207 156 207 108 Q 207 90 203 85 L 228 83 Q 230 86 227 90 Q 217 106 224 167 Q 224 173 220 180 Q 216 188 212 189 Q 210 189 206 181 Q 205 179 204 176" fill="#7f0000" /><path d="M 150 113 Q 157 111 163 110 Q 170 109 176 106 Q 182 104 188 105 Q 194 106 196 108 Q 197 110 195 112 Q 195 112 195 112 Q 165 122 150 119" fill="#990000" /><path d="M 150 140 Q 158 139 165 138 Q 186 133 190 134 Q 196 135 198 137 Q 199 139 197 141 Q 195 142 183 144 Q 160 148 150 147" fill="#b20000" /><path d="M 150 174 Q 196 166 201 167 Q 203 167 205 168 L 204 176 Q 182 178 152 181 Q 150 181 149 181" fill="#cc0000" /><path d="M 150 189 L 152 189 Q 155 188 162 192 Q 169 194 170 198 Q 170 200 167 203 Q 163 206 156 214 Q 125 241 107 241 Q 100 241 105 238 Q 144 210 149 193" fill="#e50000" /><path d="M 192 196 L 192 193 Q 193 190 195 192 Q 237 213 238 227 Q 240 239 237 243 Q 235 245 233 244 Q 229 243 225 237 Q 208 215 194 200" fill="#ff0000" /></svg>