<svg xmlns="http://www.w3.org/2000/svg" xmlns:xlink="http://www.w3.org/1999/xlink" width="270" height="270"><path d="M 0 0 L 270 270 M 270 0 L 0 270 M 135 0 L 135 270 M 0 135 L 270 135" stroke="#CCCCCC" /><path d="M 107 49 Q 104 47 100 48 Q 80 58 76 59 Q 68 64 60 60 Q 55 57 53 54 Q 51 49 57 49 Q 69 49 74 48 Q 94 42 106 37 Q 112 35 117 37 Q 133 46 134 50" fill="#000000" /><path d="M 102 65 L 108 55 Q 110 51 107 49 L 134 50 Q 136 54 131 56 Q 122 59 99 80 L 95 77" fill="#000000" /><path d="M 99 80 Q 100 81 101 83 Q 103 89 102 92 Q 101 95 99 95 Q 96 95 92 93 Q 86 87 81 82 Q 75 78 74 75 Q 74 73 75 72 Q 76 71 79 72 Q 94 75 95 77" fill="#150000" /><path d="M 61 118 L 42 124 Q 31 128 26 123 Q 21 118 28 117 Q 69 108 94 101 Q 121 92 127 94 Q 147 102 147 106 L 117 108 Q 117 104 109 106 Q 98 108 89 111 L 78 114" fill="#2a0000" /><path d="M 147 106 Q 148 110 141 112 Q 133 115 114 132 Q 111 135 109 134 Q 107 133 109 129 Q 117 112 117 108" fill="#2a0000" /><path d="M 89 111 Q 96 115 99 118 Q 100 121 98 128 Q 97 156 98 188 Q 100 217 90 232 Q 86 237 83 234 L 80 208 Q 83 201 82 134 Q 82 126 78 114" fill="#3f0000" /><path d="M 83 234 Q 73 224 56 211 Q 54 208 53 207 Q 53 205 56 206 Q 63 207 69 208 Q 77 210 80 209 Q 80 208 80 208" fill="#3f0000" /><path d="M 175 51 Q 167 52 160 54 Q 156 55 151 54 Q 147 53 144 50 Q 140 46 145 46 Q 202 35 214 33 Q 231 27 244 36 Q 248 40 247 42 Q 246 44 241 45 Q 198 45 186 48" fill="#550000" /><path d="M 191 52 L 193 55 Q 194 58 191 60 Q 188 64 186 67 Q 176 82 175 83 L 167 85 Q 167 82 170 78 Q 176 57 175 51 L 186 48" fill="#6a0000" /><path d="M 164 93 Q 164 95 164 98 Q 163 99 163 116 L 163 122 Q 163 131 163 142 L 163 150 Q 163 155 163 161 Q 163 166 163 170 L 162 179 Q 161 182 159 185 Q 157 188 154 184 Q 146 174 149 161 Q 150 157 152 126 Q 151 98 147 87 Q 146 84 147 83 Q 151 81 158 86 Q 159 86 159 86" fill="#7f0000" /><path d="M 175 83 Q 178 82 183 81 Q 196 79 206 74 Q 212 72 216 73 Q 228 78 236 84 L 210 86 Q 207 82 168 93 Q 166 94 164 93 L 159 86 Q 163 85 167 85" fill="#940000" /><path d="M 236 84 Q 238 86 235 90 Q 231 99 231 109 Q 232 142 236 163 Q 237 169 233 177 Q 229 186 225 186 Q 222 187 218 179 Q 216 176 215 174 L 216 167 Q 218 157 215 108 Q 214 91 210 86" fill="#940000" /><path d="M 163 116 Q 185 107 194 107 Q 201 108 204 112 Q 206 115 200 116 Q 186 119 167 122 Q 164 123 163 122" fill="#aa0000" /><path d="M 163 142 Q 189 134 198 135 Q 204 136 207 140 Q 209 143 203 144 Q 186 146 164 150 Q 163 150 163 150" fill="#bf0000" /><path d="M 215 174 Q 182 176 167 179 Q 164 179 162 179 L 163 170 Q 175 168 189 166 Q 210 161 216 167" fill="#d40000" /><path d="M 159 191 L 161 191 Q 165 190 173 194 Q 180 196 180 200 Q 181 202 178 206 Q 167 214 166 216 Q 138 241 122 241 Q 114 241 120 237 Q 153 212 158 195" fill="#e90000" /><path d="M 197 194 L 197 191 Q 198 187 200 189 Q 240 208 244 223 Q 246 236 242 239 Q 240 242 238 241 Q 234 240 230 234 Q 213 213 199 198" fill="#ff0000" /></svg>