<svg xmlns="http://www.w3.org/2000/svg" xmlns:xlink="http://www.w3.org/1999/xlink" width="270" height="270"><path d="M 0 0 L 270 270 M 270 0 L 0 270 M 135 0 L 135 270 M 0 135 L 270 135" stroke="#CCCCCC" /><path d="M 72 52 L 79 50 Q 99 42 108 42 Q 116 43 119 47 Q 120 49 118 52 Q 117 52 112 54 Q 101 57 91 61 Q 75 66 62 61 Q 54 57 64 54" fill="#000000" /><path d="M 78 101 L 67 106 L 59 109 Q 54 111 49 113 Q 35 118 25 112 Q 21 110 22 107 Q 22 105 25 104 Q 52 100 110 83 Q 115 81 122 84 Q 126 85 126 89 Q 126 90 122 91 Q 105 95 91 99 L 82 101" fill="#150000" /><path d="M 67 106 Q 76 116 77 117 Q 77 120 75 123 Q 73 125 73 127 Q 61 156 48 172 Q 47 172 47 173 Q 28 191 22 190 Q 19 190 21 188 Q 21 186 23 185 Q 38 168 43 160 Q 62 128 59 109" fill="#2a0000" /><path d="M 91 99 Q 95 100 99 105 Q 102 108 101 113 Q 98 124 96 169 Q 96 173 98 174 L 92 203 Q 89 207 86 206 Q 84 204 83 203 Q 74 192 80 183 Q 88 172 87 120 Q 88 107 82 101" fill="#3f0000" /><path d="M 98 174 Q 100 174 124 160 Q 129 157 129 160 Q 128 162 124 166 Q 99 192 92 203" fill="#3f0000" /><path d="M 166 50 Q 147 54 144 54 Q 140 53 137 50 Q 133 46 138 45 Q 196 34 216 29 Q 231 23 246 32 Q 250 35 248 38 Q 247 40 235 41 Q 195 42 176 48" fill="#550000" /><path d="M 163 81 Q 163 79 163 78 Q 168 55 166 50 L 176 48 Q 182 51 184 55 Q 186 57 183 60 Q 180 63 179 65 Q 176 72 171 79" fill="#6a0000" /><path d="M 151 177 L 150 178 Q 148 181 145 178 L 145 178 Q 137 169 141 146 Q 143 98 137 88 Q 136 86 136 84 Q 134 81 136 80 Q 139 79 141 80 Q 146 82 148 83 L 153 90 Q 152 102 152 112 L 152 119 Q 152 127 153 138 L 153 146 Q 153 150 153 155 Q 153 162 153 166 L 152 175" fill="#7f0000" /><path d="M 148 83 Q 154 82 163 81 L 171 79 Q 188 75 200 70 Q 206 68 210 69 Q 223 74 230 79 L 205 82 Q 203 78 197 80 Q 180 83 157 90 Q 155 90 153 90" fill="#940000" /><path d="M 230 79 Q 232 82 229 86 Q 219 101 227 160 Q 227 165 223 172 Q 219 181 215 181 Q 213 181 209 174 Q 207 171 207 169 L 207 162 Q 207 162 208 162 Q 210 152 209 104 Q 209 86 205 82" fill="#940000" /><path d="M 152 112 Q 159 111 166 110 Q 186 104 190 105 Q 196 107 198 109 Q 199 111 197 113 Q 196 113 175 118 Q 157 121 152 119" fill="#aa0000" /><path d="M 153 138 Q 159 138 165 137 Q 187 131 190 132 Q 196 134 198 136 Q 199 138 197 140 Q 196 140 191 142 Q 189 142 188 142 Q 158 147 153 146" fill="#bf0000" /><path d="M 207 169 Q 172 171 156 174 Q 153 175 152 175 L 153 166 Q 171 164 193 159 Q 201 157 205 160 Q 206 161 207 162" fill="#d40000" /><path d="M 154 185 L 156 185 Q 160 185 167 188 Q 175 191 175 195 Q 175 198 172 200 L 158 212 Q 126 238 108 238 Q 100 238 107 234 Q 149 204 153 189" fill="#e90000" /><path d="M 195 192 L 196 189 Q 197 185 199 187 Q 241 210 242 228 Q 243 240 239 243 Q 237 246 234 245 Q 230 243 227 237 Q 211 213 198 196" fill="#ff0000" /></svg>