<svg xmlns="http://www.w3.org/2000/svg" xmlns:xlink="http://www.w3.org/1999/xlink" width="270" height="270"><path d="M 0 0 L 270 270 M 270 0 L 0 270 M 135 0 L 135 270 M 0 135 L 270 135" stroke="#CCCCCC" /><path d="M 86 107 L 85 110 Q 84 114 80 108 Q 75 102 74 93 Q 71 63 64 44 Q 62 40 63 39 Q 64 37 67 38 Q 74 40 77 41 L 80 49 Q 81 55 83 70 L 83 76 Q 84 77 86 96 L 87 102" fill="#000000" /><path d="M 77 41 Q 83 40 90 38 Q 111 32 113 32 Q 128 27 132 29 Q 142 35 146 38 L 123 40 Q 121 39 116 40 Q 93 45 80 49" fill="#0f0000" /><path d="M 117 92 Q 122 89 127 48 Q 127 43 123 40 L 146 38 Q 149 41 146 45 Q 141 51 139 58 Q 134 95 130 102 Q 127 108 124 106 Q 120 104 115 97" fill="#0f0000" /><path d="M 83 70 Q 101 62 107 63 Q 112 63 115 66 Q 117 69 112 70 Q 84 75 83 76" fill="#1e0000" /><path d="M 86 96 Q 95 93 105 90 Q 111 88 114 90 Q 116 91 117 92 L 115 97 Q 92 100 87 102" fill="#2d0000" /><path d="M 96 130 Q 90 130 54 143 Q 45 146 35 140 Q 32 137 32 135 Q 33 133 35 132 Q 63 129 128 113 Q 134 111 140 114 Q 144 116 144 119 Q 144 121 140 121 Q 121 124 105 128" fill="#3c0000" /><path d="M 99 181 Q 99 174 99 168 Q 98 134 96 130 L 105 128 Q 115 135 113 141 Q 112 146 112 154 L 112 160 Q 111 173 110 188" fill="#4b0000" /><path d="M 112 154 Q 127 147 135 148 Q 140 148 143 151 Q 145 154 140 155 Q 128 157 113 160 Q 112 160 112 160" fill="#5a0000" /><path d="M 65 185 L 60 192 Q 59 192 59 193 Q 35 216 27 216 Q 25 216 26 215 Q 48 191 55 177 Q 65 161 61 153 Q 61 150 63 150 Q 70 149 78 154 Q 81 157 81 159 Q 81 160 77 167 L 73 173" fill="#690000" /><path d="M 77 167 Q 88 174 99 181 L 110 188 Q 110 188 111 189 Q 162 218 203 219 Q 217 219 240 220 Q 244 220 243 223 Q 242 226 234 228 Q 215 234 199 239 Q 188 242 180 239 Q 113 205 73 173" fill="#780000" /><path d="M 183 55 Q 182 55 182 55 Q 170 58 159 53 Q 153 49 161 48 Q 181 45 198 40 Q 221 32 227 33 Q 234 35 236 37 Q 237 39 235 41 Q 234 43 224 45 Q 209 48 195 52" fill="#870000" /><path d="M 176 80 Q 177 77 178 75 Q 183 59 183 55 L 195 52 Q 198 54 199 57 Q 201 59 197 62 Q 189 71 185 78" fill="#960000" /><path d="M 169 160 L 167 163 Q 165 166 162 163 Q 155 153 159 136 Q 161 97 156 86 Q 155 85 155 83 Q 154 81 155 80 Q 158 79 160 80 Q 163 81 165 83 L 170 89 Q 169 98 169 106 L 169 111 Q 169 118 169 126 L 169 132 Q 170 141 170 149 L 169 157" fill="#a50000" /><path d="M 165 83 Q 170 81 176 80 L 185 78 Q 194 74 204 70 Q 208 67 215 69 Q 228 72 229 75 L 210 81 Q 206 78 195 81 Q 183 85 174 88 Q 172 89 170 89" fill="#b40000" /><path d="M 229 75 Q 232 78 229 83 Q 226 88 227 125 Q 228 155 226 159 Q 224 165 222 165 Q 220 166 216 160 Q 212 156 210 151 L 211 144 Q 215 144 214 139 Q 215 86 210 81" fill="#b40000" /><path d="M 169 106 Q 186 98 193 99 Q 198 99 201 103 Q 203 105 198 106 Q 187 108 173 111 Q 170 111 169 111" fill="#c30000" /><path d="M 169 126 Q 187 119 194 120 Q 200 121 202 124 Q 204 127 199 128 Q 187 130 172 132 Q 170 132 169 132" fill="#d20000" /><path d="M 210 151 Q 192 153 169 157 L 170 149 Q 200 141 207 143 Q 210 143 211 144" fill="#e10000" /><path d="M 172 166 L 174 166 Q 176 166 182 168 Q 188 170 188 173 Q 189 175 187 177 Q 179 184 179 184 Q 159 201 149 201 Q 143 201 148 198 Q 170 178 171 169" fill="#f00000" /><path d="M 203 171 L 203 168 Q 204 166 206 167 Q 210 169 218 174 Q 231 180 232 190 Q 233 199 230 201 Q 228 203 227 203 Q 223 201 221 197 Q 212 183 205 173" fill="#ff0000" /></svg>