<svg xmlns="http://www.w3.org/2000/svg" xmlns:xlink="http://www.w3.org/1999/xlink" width="270" height="270"><path d="M 0 0 L 270 270 M 270 0 L 0 270 M 135 0 L 135 270 M 0 135 L 270 135" stroke="#CCCCCC" /><path d="M 78 65 L 77 68 Q 79 108 76 134 Q 72 177 50 204 Q 31 228 19 229 Q 16 229 17 227 Q 18 225 22 221 Q 46 194 53 174 Q 63 147 64 124 Q 65 68 56 54 Q 51 48 56 47 Q 60 46 74 52 L 78 62" fill="#000000" /><path d="M 74 52 Q 163 36 174 33 Q 189 27 195 31 Q 204 38 207 44 L 172 45 Q 122 51 81 61 Q 79 62 78 62" fill="#1f0000" /><path d="M 207 44 Q 210 48 205 51 Q 197 59 195 71 Q 189 105 191 131 Q 193 157 201 176 L 201 208 Q 165 164 180 61 Q 181 48 180 46 Q 177 45 172 45" fill="#1f0000" /><path d="M 201 176 Q 211 199 224 205 L 252 231 Q 253 236 251 238 Q 248 242 242 239 Q 220 232 201 208" fill="#1f0000" /><path d="M 224 205 Q 229 208 233 206 Q 236 202 242 179 Q 243 175 245 176 Q 247 177 247 181 Q 249 213 252 231" fill="#1f0000" /><path d="M 113 107 Q 105 110 93 114 Q 89 114 92 111 Q 104 103 114 95 Q 134 80 134 73 Q 133 70 137 70 Q 140 70 145 75 Q 151 79 153 84 Q 155 89 149 91 Q 143 92 123 102" fill="#3f0000" /><path d="M 100 174 Q 100 176 100 178 Q 99 182 95 177 Q 91 174 90 168 Q 86 150 80 139 Q 78 136 79 135 Q 80 133 83 134 Q 90 135 92 136 L 95 143 Q 96 149 100 166" fill="#5f0000" /><path d="M 116 138 Q 108 140 102 142 Q 98 143 95 143 L 92 136 Q 104 133 116 131 L 128 127 Q 133 124 139 123 Q 153 115 170 129 L 148 132 Q 146 130 141 131 Q 134 133 128 135" fill="#7f0000" /><path d="M 170 129 Q 173 133 169 137 Q 161 142 154 159 L 143 157 Q 146 148 149 138 Q 150 134 148 132" fill="#7f0000" /><path d="M 127 160 Q 139 157 143 157 L 154 159 Q 159 162 159 164 Q 158 166 156 166 Q 139 168 127 170 L 116 172 Q 110 173 106 174 Q 103 174 100 174 L 100 166 Q 107 165 116 163" fill="#9f0000" /><path d="M 116 147 L 116 138 L 116 131 Q 115 108 113 107 L 123 102 Q 125 103 128 106 Q 130 108 129 112 Q 128 120 128 127 L 128 135 Q 127 147 127 160 L 127 170 Q 127 183 127 198 L 116 201 Q 116 185 116 172 L 116 163" fill="#bf0000" /><path d="M 149 199 L 144 201 Q 96 218 88 224 Q 85 226 83 225 Q 75 220 70 216 Q 68 214 69 211 Q 69 208 73 208 Q 80 208 85 207 Q 101 204 116 201 L 127 198 Q 138 195 150 192 L 153 197" fill="#df0000" /><path d="M 150 192 Q 146 186 146 183 Q 147 180 149 180 Q 152 180 169 193 Q 175 200 175 206 Q 175 213 172 217 Q 170 219 168 218 Q 164 217 153 197" fill="#ff0000" /></svg>