<svg xmlns="http://www.w3.org/2000/svg" xmlns:xlink="http://www.w3.org/1999/xlink" width="270" height="270"><path d="M 0 0 L 270 270 M 270 0 L 0 270 M 135 0 L 135 270 M 0 135 L 270 135" stroke="#CCCCCC" /><path d="M 47 125 Q 45 128 42 130 Q 32 140 21 147 Q 14 153 11 153 Q 8 153 10 151 Q 37 122 52 100 Q 85 49 77 28 Q 76 25 78 24 Q 81 23 87 24 Q 98 27 101 34 Q 102 37 100 38 Q 98 40 96 45 Q 96 45 96 45 L 93 51 Q 86 65 80 76 L 77 82 Q 66 103 53 119" fill="#000000" /><path d="M 96 45 Q 104 46 112 47 Q 121 49 123 54 Q 126 59 126 62 Q 125 65 124 65 Q 121 66 118 64 Q 107 58 98 54 Q 95 52 93 51" fill="#170000" /><path d="M 80 76 Q 96 76 101 81 Q 105 85 105 88 Q 105 93 102 93 Q 97 94 78 82 L 77 82" fill="#2e0000" /><path d="M 100 118 Q 98 117 95 118 Q 77 123 68 128 Q 66 128 65 129 L 61 121 Q 81 113 91 110 Q 103 105 108 107 Q 118 112 122 116" fill="#450000" /><path d="M 93 165 Q 97 161 103 125 Q 103 120 100 118 L 122 116 Q 125 119 122 122 Q 117 128 115 136 Q 109 169 106 175 Q 102 181 100 179 Q 95 176 90 169" fill="#450000" /><path d="M 64 141 Q 70 136 82 135 Q 88 135 92 139 Q 95 142 89 143 Q 65 149 64 149" fill="#5c0000" /><path d="M 64 167 Q 70 165 77 162 Q 83 159 87 161 Q 92 163 93 165 L 90 169 Q 76 171 69 174 Q 66 175 64 174" fill="#730000" /><path d="M 52 243 Q 48 246 46 244 Q 42 241 40 235 Q 38 229 41 227 Q 49 217 50 209 Q 54 196 55 173 Q 54 146 52 138 Q 50 131 47 125 L 53 119 Q 58 120 61 121 L 65 129 Q 64 132 64 141 L 64 149 Q 64 157 64 167 L 64 174 Q 63 189 63 208 Q 63 211 65 212" fill="#8b0000" /><path d="M 63 228 L 52 243 L 65 212 Q 66 213 68 212 Q 85 200 93 196 L 96 200" fill="#8b0000" /><path d="M 93 196 Q 86 188 87 185 Q 88 182 90 183 Q 105 188 108 195 Q 110 200 109 203 Q 107 207 104 207 Q 99 206 96 200" fill="#a20000" /><path d="M 152 74 Q 152 73 154 73 Q 166 71 181 66 Q 200 58 207 59 Q 215 60 218 63 Q 220 65 217 68 Q 215 69 179 80 Q 167 85 154 81" fill="#b90000" /><path d="M 152 135 Q 151 145 150 152 L 149 157 Q 145 189 126 211 Q 107 232 97 233 Q 95 233 95 231 Q 96 230 99 226 Q 122 203 129 184 Q 137 164 138 147 Q 143 92 133 75 Q 129 69 134 68 Q 138 68 152 74 L 154 81 Q 154 84 153 89 Q 153 112 152 130" fill="#d00000" /><path d="M 187 128 Q 185 128 174 133 Q 162 137 153 135 Q 153 135 152 135 L 152 130 Q 153 129 154 129 Q 168 127 177 123 Q 185 120 191 117 Q 197 113 204 114 Q 212 116 215 119 Q 219 122 215 127" fill="#e70000" /><path d="M 166 221 L 143 224 Q 134 224 132 223 Q 129 222 132 220 Q 161 208 176 184 L 181 174 Q 189 157 192 135 Q 194 128 187 128 L 215 127 Q 210 132 208 139 Q 200 166 192 183 L 185 195" fill="#e70000" /><path d="M 176 184 Q 157 161 150 157 L 149 157 L 150 152 Q 153 151 158 151 Q 162 152 164 155 Q 173 166 181 174 L 192 183 Q 192 184 193 185 Q 217 208 258 222 Q 261 223 260 224 Q 258 228 223 231 Q 217 231 213 227 Q 199 213 185 195" fill="#ff0000" /></svg>