<svg xmlns="http://www.w3.org/2000/svg" xmlns:xlink="http://www.w3.org/1999/xlink" width="270" height="270"><path d="M 0 0 L 270 270 M 270 0 L 0 270 M 135 0 L 135 270 M 0 135 L 270 135" stroke="#CCCCCC" /><path d="M 47 144 L 42 158 Q 39 165 37 171 Q 21 203 13 206 Q 11 207 11 204 Q 11 203 12 201 Q 28 171 36 143 Q 37 136 39 128 Q 48 55 35 41 Q 33 38 36 36 Q 39 35 43 37 Q 48 38 51 40 L 55 47 Q 54 64 53 81 L 53 89 Q 53 105 51 120 Q 51 120 51 120 L 49 128" fill="#CCCCCC"/><path d="M 51 40 Q 52 40 64 36 Q 74 30 79 32 Q 88 35 93 40 Q 95 42 93 47 L 75 44 Q 73 42 69 43 Q 62 45 55 47" fill="#CCCCCC"/><path d="M 93 47 Q 89 53 90 66 Q 89 148 90 199 Q 91 210 81 223 Q 79 225 77 224 Q 73 223 70 219 L 72 201 Q 74 198 75 192 Q 79 141 78 57 Q 78 47 75 44" fill="#CCCCCC"/><path d="M 70 219 Q 63 211 51 200 Q 51 198 55 199 Q 71 202 72 201" fill="#CCCCCC"/><path d="M 53 81 Q 59 79 63 80 Q 69 80 72 84 Q 74 86 69 87 Q 62 88 53 89" fill="#CCCCCC"/><path d="M 51 120 Q 58 118 63 118 Q 69 119 72 122 Q 74 125 69 126 Q 61 127 51 128 Q 50 128 49 128" fill="#CCCCCC"/><path d="M 113 40 L 113 38 Q 113 36 114 35 Q 115 35 118 36 Q 133 42 134 47 Q 134 52 133 54 Q 132 57 130 57 Q 127 56 118 45" fill="#CCCCCC"/><path d="M 189 24 L 188 21 Q 187 18 189 18 Q 192 17 197 20 Q 202 22 205 26 Q 207 30 203 31 Q 202 32 202 32 Q 191 37 174 50 Q 171 51 173 48 Q 183 34 186 28" fill="#CCCCCC"/><path d="M 137 78 Q 136 78 136 78 Q 125 81 116 76 Q 110 72 118 71 Q 129 69 140 68 L 151 65 Q 162 62 173 59 Q 179 56 185 57 Q 191 59 193 61 Q 194 63 192 65 Q 190 66 148 75" fill="#CCCCCC"/><path d="M 127 102 Q 118 105 110 108 Q 107 109 102 108 Q 99 107 96 105 Q 92 102 96 101 Q 114 97 131 94 L 143 91 Q 146 91 194 79 Q 207 74 220 81 Q 223 84 222 87 Q 222 88 217 89 Q 179 92 175 93 L 168 94 Q 154 95 140 99" fill="#CCCCCC"/><path d="M 117 138 Q 108 148 98 156 Q 95 158 94 157 Q 92 157 93 154 Q 115 127 127 102 L 131 94 Q 134 86 137 78 L 140 68 Q 143 55 146 43 Q 148 26 142 20 Q 140 17 142 15 Q 146 13 149 14 Q 154 15 159 18 Q 166 24 163 28 Q 161 31 160 35 Q 153 53 151 65 L 148 75 Q 145 84 143 91 L 140 99 Q 127 124 122 132" fill="#CCCCCC"/><path d="M 175 93 Q 179 96 184 101 Q 186 103 189 105 Q 208 122 255 141 Q 258 142 258 144 Q 257 145 253 146 Q 231 148 216 146 Q 205 142 169 95 Q 169 94 168 94" fill="#CCCCCC"/><path d="M 152 128 Q 142 131 134 127 Q 129 124 136 123 Q 144 121 152 119 Q 169 113 174 114 Q 179 115 180 117 Q 181 118 180 120 Q 179 120 160 126" fill="#CCCCCC"/><path d="M 123 193 Q 119 196 117 194 Q 109 189 109 187 Q 109 187 116 175 Q 120 153 117 138 L 122 132 Q 125 133 128 135 Q 131 137 130 140 Q 126 152 125 178" fill="#CCCCCC"/><path d="M 154 147 Q 146 149 139 146 Q 134 143 140 142 Q 147 141 154 140 L 167 136 Q 167 136 167 136 Q 172 134 177 135 Q 182 136 183 137 Q 184 139 182 140 Q 182 141 166 145" fill="#CCCCCC"/><path d="M 154 165 Q 154 165 154 165 Q 144 167 137 163 Q 133 161 139 160 Q 147 159 154 158 L 165 155 Q 166 154 167 154 Q 172 152 177 153 Q 182 154 183 156 Q 184 158 182 159 Q 181 160 176 161 Q 170 162 164 163" fill="#CCCCCC"/><path d="M 154 170 L 154 165 L 154 158 Q 154 152 154 147 L 154 140 Q 154 135 152 128 L 160 126 Q 163 128 166 131 Q 168 133 167 136 L 166 145 Q 165 149 165 155 L 164 163 Q 164 169 164 175 L 154 176" fill="#CCCCCC"/><path d="M 164 175 Q 171 173 186 172 Q 205 168 210 171 Q 220 176 223 179 Q 224 181 221 185 L 201 181 Q 198 179 193 180 Q 141 183 123 193 L 125 178 Q 125 182 131 181 Q 142 178 154 176" fill="#CCCCCC"/><path d="M 221 185 Q 220 185 220 186 Q 217 189 208 234 Q 203 246 192 253 L 191 233 Q 195 231 196 227 Q 206 187 201 181" fill="#CCCCCC"/><path d="M 192 253 Q 188 256 184 250 Q 181 243 172 236 Q 168 233 168 231 Q 168 229 171 230 Q 190 234 191 233" fill="#CCCCCC"/><path d="M 106 202 L 107 201 Q 109 201 110 203 Q 112 208 111 215 Q 112 229 102 237 Q 98 239 96 236 Q 92 230 96 222 Q 101 213 105 203" fill="#CCCCCC"/><path d="M 124 204 L 125 203 Q 127 202 128 203 Q 130 204 134 211 Q 137 215 137 218 Q 137 222 135 224 Q 132 226 130 225 Q 127 223 124 206" fill="#CCCCCC"/><path d="M 143 200 L 144 199 Q 145 197 147 198 Q 149 200 155 204 Q 158 207 159 211 Q 160 215 159 217 Q 156 220 154 219 Q 149 217 144 203" fill="#CCCCCC"/><path d="M 166 198 L 166 196 Q 166 194 167 193 Q 169 193 181 201 Q 186 205 186 209 Q 186 214 184 216 Q 183 218 181 218 Q 179 217 169 203" fill="#CCCCCC"/><path d="M 47 144 L 42 158 Q 39 165 37 171 Q 21 203 13 206 Q 11 207 11 204 Q 11 203 12 201 Q 28 171 36 143 Q 37 136 39 128 Q 48 55 35 41 Q 33 38 36 36 Q 39 35 43 37 Q 48 38 51 40 L 55 47 Q 54 64 53 81 L 53 89 Q 53 105 51 120 Q 51 120 51 120 L 49 128" fill="#000000" /><path d="M 51 40 Q 52 40 64 36 Q 74 30 79 32 Q 88 35 93 40 Q 95 42 93 47 L 75 44 Q 73 42 69 43 Q 62 45 55 47" fill="#0d0000" /><path d="M 93 47 Q 89 53 90 66 Q 89 148 90 199 Q 91 210 81 223 Q 79 225 77 224 Q 73 223 70 219 L 72 201 Q 74 198 75 192 Q 79 141 78 57 Q 78 47 75 44" fill="#0d0000" /><path d="M 70 219 Q 63 211 51 200 Q 51 198 55 199 Q 71 202 72 201" fill="#0d0000" /><path d="M 53 81 Q 59 79 63 80 Q 69 80 72 84 Q 74 86 69 87 Q 62 88 53 89" fill="#1a0000" /><path d="M 51 120 Q 58 118 63 118 Q 69 119 72 122 Q 74 125 69 126 Q 61 127 51 128 Q 50 128 49 128" fill="#280000" /><path d="M 113 40 L 113 38 Q 113 36 114 35 Q 115 35 118 36 Q 133 42 134 47 Q 134 52 133 54 Q 132 57 130 57 Q 127 56 118 45" fill="#350000" /><path d="M 189 24 L 188 21 Q 187 18 189 18 Q 192 17 197 20 Q 202 22 205 26 Q 207 30 203 31 Q 202 32 202 32 Q 191 37 174 50 Q 171 51 173 48 Q 183 34 186 28" fill="#430000" /><path d="M 137 78 Q 136 78 136 78 Q 125 81 116 76 Q 110 72 118 71 Q 129 69 140 68 L 151 65 Q 162 62 173 59 Q 179 56 185 57 Q 191 59 193 61 Q 194 63 192 65 Q 190 66 148 75" fill="#500000" /><path d="M 127 102 Q 118 105 110 108 Q 107 109 102 108 Q 99 107 96 105 Q 92 102 96 101 Q 114 97 131 94 L 143 91 Q 146 91 194 79 Q 207 74 220 81 Q 223 84 222 87 Q 222 88 217 89 Q 179 92 175 93 L 168 94 Q 154 95 140 99" fill="#5d0000" /><path d="M 117 138 Q 108 148 98 156 Q 95 158 94 157 Q 92 157 93 154 Q 115 127 127 102 L 131 94 Q 134 86 137 78 L 140 68 Q 143 55 146 43 Q 148 26 142 20 Q 140 17 142 15 Q 146 13 149 14 Q 154 15 159 18 Q 166 24 163 28 Q 161 31 160 35 Q 153 53 151 65 L 148 75 Q 145 84 143 91 L 140 99 Q 127 124 122 132" fill="#6b0000" /><path d="M 175 93 Q 179 96 184 101 Q 186 103 189 105 Q 208 122 255 141 Q 258 142 258 144 Q 257 145 253 146 Q 231 148 216 146 Q 205 142 169 95 Q 169 94 168 94" fill="#780000" /><path d="M 152 128 Q 142 131 134 127 Q 129 124 136 123 Q 144 121 152 119 Q 169 113 174 114 Q 179 115 180 117 Q 181 118 180 120 Q 179 120 160 126" fill="#860000" /><path d="M 123 193 Q 119 196 117 194 Q 109 189 109 187 Q 109 187 116 175 Q 120 153 117 138 L 122 132 Q 125 133 128 135 Q 131 137 130 140 Q 126 152 125 178" fill="#930000" /><path d="M 154 147 Q 146 149 139 146 Q 134 143 140 142 Q 147 141 154 140 L 167 136 Q 167 136 167 136 Q 172 134 177 135 Q 182 136 183 137 Q 184 139 182 140 Q 182 141 166 145" fill="#a10000" /><path d="M 154 165 Q 154 165 154 165 Q 144 167 137 163 Q 133 161 139 160 Q 147 159 154 158 L 165 155 Q 166 154 167 154 Q 172 152 177 153 Q 182 154 183 156 Q 184 158 182 159 Q 181 160 176 161 Q 170 162 164 163" fill="#ae0000" /><path d="M 154 170 L 154 165 L 154 158 Q 154 152 154 147 L 154 140 Q 154 135 152 128 L 160 126 Q 163 128 166 131 Q 168 133 167 136 L 166 145 Q 165 149 165 155 L 164 163 Q 164 169 164 175 L 154 176" fill="#bb0000" /><path d="M 164 175 Q 171 173 186 172 Q 205 168 210 171 Q 220 176 223 179 Q 224 181 221 185 L 201 181 Q 198 179 193 180 Q 141 183 123 193 L 125 178 Q 125 182 131 181 Q 142 178 154 176" fill="#c90000" /><path d="M 221 185 Q 220 185 220 186 Q 217 189 208 234 Q 203 246 192 253 L 191 233 Q 195 231 196 227 Q 206 187 201 181" fill="#c90000" /><path d="M 192 253 Q 188 256 184 250 Q 181 243 172 236 Q 168 233 168 231 Q 168 229 171 230 Q 190 234 191 233" fill="#c90000" /><path d="M 106 202 L 107 201 Q 109 201 110 203 Q 112 208 111 215 Q 112 229 102 237 Q 98 239 96 236 Q 92 230 96 222 Q 101 213 105 203" fill="#d60000" /><path d="M 124 204 L 125 203 Q 127 202 128 203 Q 130 204 134 211 Q 137 215 137 218 Q 137 222 135 224 Q 132 226 130 225 Q 127 223 124 206" fill="#e40000" /><path d="M 143 200 L 144 199 Q 145 197 147 198 Q 149 200 155 204 Q 158 207 159 211 Q 160 215 159 217 Q 156 220 154 219 Q 149 217 144 203" fill="#f10000" /><path d="M 166 198 L 166 196 Q 166 194 167 193 Q 169 193 181 201 Q 186 205 186 209 Q 186 214 184 216 Q 183 218 181 218 Q 179 217 169 203" fill="#ff0000" /></svg>