<svg xmlns="http://www.w3.org/2000/svg" xmlns:xlink="http://www.w3.org/1999/xlink" width="270" height="270"><path d="M 0 0 L 270 270 M 270 0 L 0 270 M 135 0 L 135 270 M 0 135 L 270 135" stroke="#CCCCCC" /><path d="M 108 20 L 107 16 Q 106 13 108 13 Q 111 11 121 14 Q 137 17 141 28 Q 142 32 141 36 Q 139 39 135 39 Q 124 35 112 23" fill="#CCCCCC"/><path d="M 155 46 L 185 40 Q 195 37 207 48 Q 211 51 210 54 Q 209 56 204 56 Q 117 56 70 69 Q 65 70 61 69 Q 56 67 52 64 Q 49 59 54 59" fill="#CCCCCC"/><path d="M 106 119 L 106 120 Q 105 125 100 119 Q 97 116 96 112 Q 91 96 85 87 Q 83 83 84 81 Q 85 80 88 81 Q 97 81 100 83 L 103 90 Q 104 95 106 110 L 107 118" fill="#CCCCCC"/><path d="M 100 83 Q 126 78 141 73 Q 152 66 170 81 L 148 83 Q 146 81 142 82 Q 105 89 103 90" fill="#CCCCCC"/><path d="M 145 102 Q 147 96 149 88 Q 150 85 148 83 L 170 81 Q 173 85 169 89 Q 163 93 157 104" fill="#CCCCCC"/><path d="M 106 110 Q 123 107 144 102 Q 144 102 145 102 L 157 104 Q 163 107 163 109 Q 162 111 160 111 Q 126 114 111 118 Q 108 118 107 118" fill="#CCCCCC"/><path d="M 64 163 L 64 204 Q 63 229 55 237 Q 52 238 50 234 Q 40 223 47 205 Q 55 166 44 144 Q 42 141 46 139 Q 56 139 61 144 L 65 153" fill="#CCCCCC"/><path d="M 61 144 Q 79 141 99 137 Q 126 132 166 129 Q 187 127 196 124 Q 203 122 210 126 Q 221 131 225 135 Q 229 136 224 143 L 199 140 Q 197 138 193 138 Q 162 140 145 141 Q 81 149 65 153" fill="#CCCCCC"/><path d="M 224 143 Q 221 148 220 172 Q 216 233 206 250 Q 203 256 199 257 Q 197 258 194 254 L 199 216 Q 204 193 201 151 Q 201 141 199 140" fill="#CCCCCC"/><path d="M 194 254 Q 190 245 170 228 Q 167 224 167 222 Q 167 220 172 222 Q 180 223 189 225 Q 197 226 199 216" fill="#CCCCCC"/><path d="M 108 208 L 107 211 Q 106 214 102 210 Q 98 206 97 200 Q 91 182 84 171 Q 82 167 84 165 Q 84 164 87 165 Q 94 165 97 166 L 102 174 Q 103 180 106 196 L 108 204" fill="#CCCCCC"/><path d="M 97 166 Q 125 163 144 156 Q 149 155 153 157 Q 165 163 169 167 L 146 169 Q 143 166 102 174" fill="#CCCCCC"/><path d="M 143 189 Q 149 172 146 169 L 169 167 Q 172 171 168 175 Q 162 179 155 192" fill="#CCCCCC"/><path d="M 106 196 Q 121 194 140 190 Q 141 189 143 189 L 155 192 Q 159 196 159 198 Q 159 200 156 200 Q 126 202 113 204 Q 110 205 108 204" fill="#CCCCCC"/><path d="M 108 20 L 107 16 Q 106 13 108 13 Q 111 11 121 14 Q 137 17 141 28 Q 142 32 141 36 Q 139 39 135 39 Q 124 35 112 23" fill="#000000" /><path d="M 155 46 L 185 40 Q 195 37 207 48 Q 211 51 210 54 Q 209 56 204 56 Q 117 56 70 69 Q 65 70 61 69 Q 56 67 52 64 Q 49 59 54 59" fill="#1c0000" /><path d="M 106 119 L 106 120 Q 105 125 100 119 Q 97 116 96 112 Q 91 96 85 87 Q 83 83 84 81 Q 85 80 88 81 Q 97 81 100 83 L 103 90 Q 104 95 106 110 L 107 118" fill="#380000" /><path d="M 100 83 Q 126 78 141 73 Q 152 66 170 81 L 148 83 Q 146 81 142 82 Q 105 89 103 90" fill="#550000" /><path d="M 145 102 Q 147 96 149 88 Q 150 85 148 83 L 170 81 Q 173 85 169 89 Q 163 93 157 104" fill="#550000" /><path d="M 106 110 Q 123 107 144 102 Q 144 102 145 102 L 157 104 Q 163 107 163 109 Q 162 111 160 111 Q 126 114 111 118 Q 108 118 107 118" fill="#710000" /><path d="M 64 163 L 64 204 Q 63 229 55 237 Q 52 238 50 234 Q 40 223 47 205 Q 55 166 44 144 Q 42 141 46 139 Q 56 139 61 144 L 65 153" fill="#8d0000" /><path d="M 61 144 Q 79 141 99 137 Q 126 132 166 129 Q 187 127 196 124 Q 203 122 210 126 Q 221 131 225 135 Q 229 136 224 143 L 199 140 Q 197 138 193 138 Q 162 140 145 141 Q 81 149 65 153" fill="#aa0000" /><path d="M 224 143 Q 221 148 220 172 Q 216 233 206 250 Q 203 256 199 257 Q 197 258 194 254 L 199 216 Q 204 193 201 151 Q 201 141 199 140" fill="#aa0000" /><path d="M 194 254 Q 190 245 170 228 Q 167 224 167 222 Q 167 220 172 222 Q 180 223 189 225 Q 197 226 199 216" fill="#aa0000" /><path d="M 108 208 L 107 211 Q 106 214 102 210 Q 98 206 97 200 Q 91 182 84 171 Q 82 167 84 165 Q 84 164 87 165 Q 94 165 97 166 L 102 174 Q 103 180 106 196 L 108 204" fill="#c60000" /><path d="M 97 166 Q 125 163 144 156 Q 149 155 153 157 Q 165 163 169 167 L 146 169 Q 143 166 102 174" fill="#e20000" /><path d="M 143 189 Q 149 172 146 169 L 169 167 Q 172 171 168 175 Q 162 179 155 192" fill="#e20000" /><path d="M 106 196 Q 121 194 140 190 Q 141 189 143 189 L 155 192 Q 159 196 159 198 Q 159 200 156 200 Q 126 202 113 204 Q 110 205 108 204" fill="#ff0000" /></svg>