<svg xmlns="http://www.w3.org/2000/svg" xmlns:xlink="http://www.w3.org/1999/xlink" width="270" height="270"><path d="M 0 0 L 270 270 M 270 0 L 0 270 M 135 0 L 135 270 M 0 135 L 270 135" stroke="#CCCCCC" /><path d="M 62 111 Q 61 136 60 179 Q 58 220 49 229 Q 46 233 43 229 Q 41 225 38 215 Q 37 210 39 203 Q 48 179 50 155 Q 58 82 46 46 Q 44 43 45 42 Q 46 40 49 40 Q 56 42 63 48 Q 67 51 66 56 Q 64 67 62 105" fill="#000000" /><path d="M 88 53 Q 78 53 73 52 Q 67 49 75 47 Q 83 45 91 42 Q 108 34 115 34 Q 121 35 123 37 Q 124 39 122 41 Q 121 42 116 44 Q 105 47 97 50" fill="#120000" /><path d="M 91 80 Q 82 81 75 79 Q 70 76 76 75 Q 83 73 90 72 L 102 67 Q 102 67 103 67 Q 108 64 113 64 Q 119 65 120 67 Q 121 68 120 70 Q 119 71 114 73 Q 107 74 102 77" fill="#240000" /><path d="M 91 88 L 91 80 L 90 72 Q 89 54 88 53 L 97 50 Q 99 52 102 55 Q 104 57 103 61 Q 102 63 102 67 L 102 77 Q 100 86 100 97 L 91 100" fill="#360000" /><path d="M 100 97 Q 119 91 122 91 Q 124 91 123 93 Q 122 94 118 96 Q 86 112 80 116 Q 76 118 72 117 Q 69 116 62 111 L 62 105 Q 63 105 64 105 Q 70 105 91 100" fill="#480000" /><path d="M 164 46 Q 152 49 145 46 Q 139 43 146 41 Q 156 40 164 37 Q 172 34 178 32 Q 184 29 190 30 Q 196 31 197 33 Q 198 34 197 36 Q 195 37 190 39 Q 180 41 172 44" fill="#5b0000" /><path d="M 166 71 Q 154 75 147 71 Q 142 68 148 67 Q 157 65 166 63 L 178 59 Q 186 55 191 56 Q 197 57 198 59 Q 199 60 197 62 Q 197 62 178 68" fill="#6d0000" /><path d="M 166 78 L 166 71 L 166 63 Q 165 48 164 46 L 172 44 Q 173 45 175 46 Q 178 48 178 59 L 178 68 Q 177 76 177 86 L 167 88" fill="#7f0000" /><path d="M 177 86 Q 194 80 201 84 Q 205 86 205 88 Q 203 91 201 90 Q 172 95 154 100 Q 148 102 142 97 Q 137 94 143 93 Q 150 92 156 91 Q 160 89 167 88" fill="#910000" /><path d="M 208 37 L 203 30 Q 198 23 203 21 Q 208 19 217 24 Q 232 30 228 38 Q 225 51 224 74 Q 224 141 230 208 Q 231 228 226 240 Q 222 250 218 249 Q 214 249 209 240 L 210 215 Q 213 213 213 207 Q 211 55 209 46" fill="#a30000" /><path d="M 209 240 Q 205 232 188 217 Q 183 213 183 211 Q 182 209 191 212 Q 208 216 210 215" fill="#a30000" /><path d="M 133 129 Q 133 128 132 128 Q 128 122 124 118 Q 119 113 118 111 Q 118 108 119 107 Q 121 107 124 108 Q 140 113 142 119 Q 143 124 142 127" fill="#b60000" /><path d="M 118 140 Q 105 142 94 146 Q 91 147 87 146 Q 83 145 80 142 Q 77 139 81 139 Q 133 129 133 129 L 142 127 Q 152 125 161 123 Q 174 118 186 126 Q 190 128 189 131 Q 187 133 176 133 Q 147 134 129 138" fill="#c80000" /><path d="M 101 170 Q 101 175 102 193 Q 102 205 97 210 Q 95 212 93 209 Q 86 201 89 193 Q 93 174 87 163 Q 85 161 88 160 Q 92 160 97 162" fill="#da0000" /><path d="M 101 170 L 97 162 Q 112 160 123 159 L 136 156 Q 149 153 156 150 Q 160 148 164 150 Q 172 153 176 156 Q 178 158 176 161 L 159 161 Q 156 158 136 162 L 123 165" fill="#ec0000" /><path d="M 176 161 Q 174 169 175 192 Q 175 202 171 210 Q 169 215 167 216 Q 163 217 160 215 L 160 195 Q 162 192 162 186 Q 161 177 162 170 Q 162 163 159 161" fill="#ec0000" /><path d="M 160 215 Q 155 208 146 199 Q 143 197 144 196 Q 145 194 149 195 Q 151 196 154 196 Q 159 197 160 195" fill="#ec0000" /><path d="M 123 159 Q 123 148 121 144 Q 118 140 118 140 L 129 138 Q 132 139 135 141 Q 138 143 138 147 Q 137 150 137 153 Q 136 154 136 156 L 136 162 Q 136 174 136 183 Q 136 233 133 241 Q 132 244 130 245 Q 129 246 128 244 L 127 244 Q 124 239 123 165" fill="#ff0000" /></svg>