<svg xmlns="http://www.w3.org/2000/svg" xmlns:xlink="http://www.w3.org/1999/xlink" width="270" height="270"><path d="M 0 0 L 270 270 M 270 0 L 0 270 M 135 0 L 135 270 M 0 135 L 270 135" stroke="#CCCCCC" /><path d="M 77 75 Q 78 73 78 73 Q 102 34 100 26 Q 98 22 102 21 Q 105 19 113 23 Q 121 26 126 30 Q 130 34 124 38 Q 116 43 101 60 Q 95 65 87 73" fill="#CCCCCC"/><path d="M 82 148 Q 82 151 81 153 Q 80 158 75 152 Q 68 145 67 135 Q 60 102 50 82 Q 47 77 49 76 Q 50 74 54 75 Q 60 76 64 77 L 70 86 Q 72 96 80 131 Q 82 136 82 140" fill="#CCCCCC"/><path d="M 166 70 Q 160 67 120 75 L 106 77 Q 77 83 70 86 L 64 77 Q 70 76 77 75 L 87 73 Q 95 70 153 60 Q 172 56 176 58 Q 191 66 196 71" fill="#CCCCCC"/><path d="M 156 129 Q 159 126 168 82 Q 170 72 166 70 L 196 71 Q 201 76 195 80 Q 185 89 180 104 Q 172 131 168 137 Q 166 142 162 142 Q 158 143 156 138 Q 156 137 156 137" fill="#CCCCCC"/><path d="M 108 112 Q 92 114 90 113 Q 85 110 89 109 Q 98 105 109 103 L 125 97 Q 134 95 139 95 Q 146 96 148 100 Q 151 103 145 104 Q 134 106 122 109" fill="#CCCCCC"/><path d="M 94 146 L 88 148 Q 85 148 82 148 L 82 140 Q 92 138 103 136 L 117 133 Q 148 126 156 129 L 156 137 Q 136 139 115 143 L 101 145" fill="#CCCCCC"/><path d="M 103 136 Q 107 123 108 112 L 109 103 Q 109 99 109 96 Q 110 86 106 77 L 120 75 Q 124 76 128 80 Q 132 82 130 87 Q 127 92 125 97 L 122 109 Q 122 110 117 133 Q 117 133 117 133 L 115 143 Q 111 160 103 174 Q 99 181 96 188 Q 87 203 70 217 Q 56 230 37 238 Q 27 242 23 241 Q 20 241 23 238 Q 28 235 32 232 Q 84 201 101 145" fill="#CCCCCC"/><path d="M 136 241 Q 122 233 122 181 Q 123 165 118 155 Q 116 150 120 149 Q 124 147 138 158 Q 143 163 140 171 Q 136 180 135 198 Q 135 216 136 222" fill="#CCCCCC"/><path d="M 249 235 L 241 240 Q 231 246 206 247 Q 177 250 160 247 Q 142 245 136 241 L 136 222 Q 138 227 146 231 Q 155 235 176 235 Q 213 234 223 223 L 245 226" fill="#CCCCCC"/><path d="M 223 223 Q 227 218 229 191 Q 229 185 232 186 Q 234 187 235 192 Q 239 214 245 226" fill="#CCCCCC"/><path d="M 151 212 Q 145 208 143 205 Q 142 202 145 200 Q 150 195 154 191 Q 174 166 169 151 Q 167 146 169 145 Q 171 144 175 145 Q 186 149 187 152 Q 189 154 187 157 Q 183 162 165 192" fill="#CCCCCC"/><path d="M 202 193 Q 200 193 199 194 Q 162 206 156 212 Q 153 214 151 212 L 165 192 Q 164 195 164 195 Q 165 195 166 195 Q 183 191 199 188" fill="#CCCCCC"/><path d="M 189 170 L 189 170 Q 190 167 191 167 Q 193 167 195 169 Q 216 184 216 193 Q 216 199 214 202 Q 211 204 210 204 Q 205 202 202 193 L 199 188" fill="#CCCCCC"/><path d="M 77 75 Q 78 73 78 73 Q 102 34 100 26 Q 98 22 102 21 Q 105 19 113 23 Q 121 26 126 30 Q 130 34 124 38 Q 116 43 101 60 Q 95 65 87 73" fill="#000000" /><path d="M 82 148 Q 82 151 81 153 Q 80 158 75 152 Q 68 145 67 135 Q 60 102 50 82 Q 47 77 49 76 Q 50 74 54 75 Q 60 76 64 77 L 70 86 Q 72 96 80 131 Q 82 136 82 140" fill="#1f0000" /><path d="M 166 70 Q 160 67 120 75 L 106 77 Q 77 83 70 86 L 64 77 Q 70 76 77 75 L 87 73 Q 95 70 153 60 Q 172 56 176 58 Q 191 66 196 71" fill="#3f0000" /><path d="M 156 129 Q 159 126 168 82 Q 170 72 166 70 L 196 71 Q 201 76 195 80 Q 185 89 180 104 Q 172 131 168 137 Q 166 142 162 142 Q 158 143 156 138 Q 156 137 156 137" fill="#3f0000" /><path d="M 108 112 Q 92 114 90 113 Q 85 110 89 109 Q 98 105 109 103 L 125 97 Q 134 95 139 95 Q 146 96 148 100 Q 151 103 145 104 Q 134 106 122 109" fill="#5f0000" /><path d="M 94 146 L 88 148 Q 85 148 82 148 L 82 140 Q 92 138 103 136 L 117 133 Q 148 126 156 129 L 156 137 Q 136 139 115 143 L 101 145" fill="#7f0000" /><path d="M 103 136 Q 107 123 108 112 L 109 103 Q 109 99 109 96 Q 110 86 106 77 L 120 75 Q 124 76 128 80 Q 132 82 130 87 Q 127 92 125 97 L 122 109 Q 122 110 117 133 Q 117 133 117 133 L 115 143 Q 111 160 103 174 Q 99 181 96 188 Q 87 203 70 217 Q 56 230 37 238 Q 27 242 23 241 Q 20 241 23 238 Q 28 235 32 232 Q 84 201 101 145" fill="#9f0000" /><path d="M 136 241 Q 122 233 122 181 Q 123 165 118 155 Q 116 150 120 149 Q 124 147 138 158 Q 143 163 140 171 Q 136 180 135 198 Q 135 216 136 222" fill="#bf0000" /><path d="M 249 235 L 241 240 Q 231 246 206 247 Q 177 250 160 247 Q 142 245 136 241 L 136 222 Q 138 227 146 231 Q 155 235 176 235 Q 213 234 223 223 L 245 226" fill="#bf0000" /><path d="M 223 223 Q 227 218 229 191 Q 229 185 232 186 Q 234 187 235 192 Q 239 214 245 226" fill="#bf0000" /><path d="M 151 212 Q 145 208 143 205 Q 142 202 145 200 Q 150 195 154 191 Q 174 166 169 151 Q 167 146 169 145 Q 171 144 175 145 Q 186 149 187 152 Q 189 154 187 157 Q 183 162 165 192" fill="#df0000" /><path d="M 202 193 Q 200 193 199 194 Q 162 206 156 212 Q 153 214 151 212 L 165 192 Q 164 195 164 195 Q 165 195 166 195 Q 183 191 199 188" fill="#df0000" /><path d="M 189 170 L 189 170 Q 190 167 191 167 Q 193 167 195 169 Q 216 184 216 193 Q 216 199 214 202 Q 211 204 210 204 Q 205 202 202 193 L 199 188" fill="#ff0000" /></svg>