<svg xmlns="http://www.w3.org/2000/svg" xmlns:xlink="http://www.w3.org/1999/xlink" width="270" height="270"><path d="M 0 0 L 270 270 M 270 0 L 0 270 M 135 0 L 135 270 M 0 135 L 270 135" stroke="#CCCCCC" /><path d="M 78 56 Q 76 57 74 58 Q 53 66 49 66 Q 47 65 49 63 Q 97 39 97 29 Q 97 27 98 26 Q 108 25 119 33 Q 122 36 122 38 Q 121 40 117 40 Q 108 42 88 52" fill="#CCCCCC"/><path d="M 78 89 Q 68 91 42 100 Q 34 103 24 97 Q 21 94 22 92 Q 22 90 25 90 Q 50 86 82 79 L 94 76 Q 104 72 112 75 Q 116 77 116 80 Q 115 82 112 82 Q 101 84 93 85" fill="#CCCCCC"/><path d="M 91 104 L 91 105 Q 91 137 88 139 Q 85 141 83 137 Q 83 137 83 136 Q 80 131 82 102 L 82 79 Q 81 63 78 56 L 88 52 Q 93 54 97 58 Q 99 61 98 63 Q 94 70 94 76 L 93 85 Q 92 90 92 96 L 91 102" fill="#CCCCCC"/><path d="M 82 102 Q 51 135 32 133 Q 30 132 33 130 Q 69 108 78 89 L 82 79" fill="#CCCCCC"/><path d="M 92 96 Q 105 99 109 105 Q 111 109 111 111 Q 110 114 108 114 Q 104 114 91 102" fill="#CCCCCC"/><path d="M 73 165 Q 70 171 68 179 L 60 189 Q 56 188 55 186 Q 55 184 57 180 Q 59 175 62 169 L 65 158 Q 68 142 66 137 Q 64 134 66 133 Q 69 132 71 134 Q 80 139 82 142 Q 83 144 81 146 Q 79 150 77 155 Q 77 155 76 156" fill="#CCCCCC"/><path d="M 93 199 Q 108 207 110 213 Q 115 224 114 229 Q 113 233 108 232 Q 105 232 100 226 Q 92 216 85 209 L 77 202 Q 69 194 60 189 L 68 179 Q 64 185 70 186 Q 76 189 83 193" fill="#CCCCCC"/><path d="M 95 149 L 95 147 Q 94 143 97 143 Q 103 142 112 152 Q 115 155 113 158 Q 108 163 101 182 Q 98 191 93 199 L 85 209 Q 84 210 84 211 Q 78 219 67 224 Q 47 237 35 234 Q 32 233 35 231 Q 59 222 77 202 L 83 193 Q 93 174 95 159 L 96 153" fill="#CCCCCC"/><path d="M 95 159 Q 91 160 89 161 Q 80 163 73 165 L 62 169 Q 42 173 31 180 Q 28 181 25 180 Q 19 175 14 171 Q 12 169 13 165 Q 13 163 17 163 Q 25 165 30 164 Q 48 161 65 158 L 76 156 Q 86 154 96 153" fill="#CCCCCC"/><path d="M 138 84 Q 143 73 148 62 Q 158 42 155 34 Q 153 31 156 30 Q 160 28 167 30 Q 174 32 179 36 Q 183 39 178 44 Q 173 48 169 53 Q 151 76 145 82" fill="#CCCCCC"/><path d="M 134 93 Q 134 96 139 136 L 139 142 Q 138 144 138 146 Q 136 150 132 144 Q 128 139 128 131 Q 124 106 118 90 Q 116 86 117 85 Q 118 84 121 85 Q 124 85 126 86" fill="#CCCCCC"/><path d="M 197 82 Q 190 79 162 86 L 153 88 Q 141 91 134 93 L 126 86 Q 131 85 138 84 L 145 82 Q 165 75 188 73 Q 203 70 206 72 Q 218 78 223 82" fill="#CCCCCC"/><path d="M 192 127 Q 194 119 199 92 Q 200 84 197 82 L 223 82 Q 227 86 222 90 Q 213 98 210 111 Q 205 132 201 136 Q 200 140 196 141 Q 193 141 191 137 Q 191 136 191 135" fill="#CCCCCC"/><path d="M 155 114 Q 143 115 143 115 Q 138 112 142 111 Q 148 108 156 106 L 169 102 Q 174 101 177 102 Q 182 102 185 105 Q 187 108 182 109 Q 175 110 167 112" fill="#CCCCCC"/><path d="M 151 140 Q 140 142 139 142 L 139 136 Q 145 134 153 133 L 164 131 Q 183 126 190 127 Q 191 127 192 127 L 191 135 Q 177 136 162 139" fill="#CCCCCC"/><path d="M 158 155 Q 153 167 142 190 Q 126 214 118 217 Q 116 217 116 215 Q 117 214 118 213 Q 142 177 151 143 Q 151 141 151 140 L 153 133 Q 154 124 155 114 L 156 106 Q 157 96 153 88 L 162 86 Q 167 89 170 93 Q 172 95 170 98 Q 169 100 169 102 L 167 112 Q 165 126 164 131 L 162 139 Q 161 142 160 145" fill="#CCCCCC"/><path d="M 165 229 Q 160 225 159 219 Q 156 208 159 169 Q 160 162 158 155 L 160 145 Q 161 145 162 146 Q 174 150 172 157 Q 164 200 170 214" fill="#CCCCCC"/><path d="M 257 224 L 253 227 Q 243 234 233 237 Q 230 237 228 238 Q 183 244 165 229 L 170 214 Q 172 219 179 223 Q 198 229 220 225 Q 230 222 234 218 L 254 218" fill="#CCCCCC"/><path d="M 234 218 Q 238 212 244 193 Q 245 189 246 190 Q 248 191 248 195 Q 252 213 254 218" fill="#CCCCCC"/><path d="M 185 203 Q 183 205 181 203 Q 176 200 175 197 Q 174 195 176 193 Q 176 192 177 191 Q 199 170 193 154 Q 192 150 194 149 Q 195 148 199 149 Q 208 153 210 155 Q 211 157 209 159 Q 206 163 193 186 Q 192 188 192 188" fill="#CCCCCC"/><path d="M 190 198 L 185 203 L 192 188 Q 193 189 194 188 Q 205 185 216 184 L 218 188" fill="#CCCCCC"/><path d="M 216 184 Q 211 176 211 173 Q 212 171 213 171 Q 215 171 217 172 Q 232 184 232 191 Q 231 197 229 199 Q 228 200 226 200 Q 224 199 218 188" fill="#CCCCCC"/><path d="M 78 56 Q 76 57 74 58 Q 53 66 49 66 Q 47 65 49 63 Q 97 39 97 29 Q 97 27 98 26 Q 108 25 119 33 Q 122 36 122 38 Q 121 40 117 40 Q 108 42 88 52" fill="#000000" /><path d="M 78 89 Q 68 91 42 100 Q 34 103 24 97 Q 21 94 22 92 Q 22 90 25 90 Q 50 86 82 79 L 94 76 Q 104 72 112 75 Q 116 77 116 80 Q 115 82 112 82 Q 101 84 93 85" fill="#0f0000" /><path d="M 91 104 L 91 105 Q 91 137 88 139 Q 85 141 83 137 Q 83 137 83 136 Q 80 131 82 102 L 82 79 Q 81 63 78 56 L 88 52 Q 93 54 97 58 Q 99 61 98 63 Q 94 70 94 76 L 93 85 Q 92 90 92 96 L 91 102" fill="#1f0000" /><path d="M 82 102 Q 51 135 32 133 Q 30 132 33 130 Q 69 108 78 89 L 82 79" fill="#2f0000" /><path d="M 92 96 Q 105 99 109 105 Q 111 109 111 111 Q 110 114 108 114 Q 104 114 91 102" fill="#3f0000" /><path d="M 73 165 Q 70 171 68 179 L 60 189 Q 56 188 55 186 Q 55 184 57 180 Q 59 175 62 169 L 65 158 Q 68 142 66 137 Q 64 134 66 133 Q 69 132 71 134 Q 80 139 82 142 Q 83 144 81 146 Q 79 150 77 155 Q 77 155 76 156" fill="#4f0000" /><path d="M 93 199 Q 108 207 110 213 Q 115 224 114 229 Q 113 233 108 232 Q 105 232 100 226 Q 92 216 85 209 L 77 202 Q 69 194 60 189 L 68 179 Q 64 185 70 186 Q 76 189 83 193" fill="#4f0000" /><path d="M 95 149 L 95 147 Q 94 143 97 143 Q 103 142 112 152 Q 115 155 113 158 Q 108 163 101 182 Q 98 191 93 199 L 85 209 Q 84 210 84 211 Q 78 219 67 224 Q 47 237 35 234 Q 32 233 35 231 Q 59 222 77 202 L 83 193 Q 93 174 95 159 L 96 153" fill="#5f0000" /><path d="M 95 159 Q 91 160 89 161 Q 80 163 73 165 L 62 169 Q 42 173 31 180 Q 28 181 25 180 Q 19 175 14 171 Q 12 169 13 165 Q 13 163 17 163 Q 25 165 30 164 Q 48 161 65 158 L 76 156 Q 86 154 96 153" fill="#6f0000" /><path d="M 138 84 Q 143 73 148 62 Q 158 42 155 34 Q 153 31 156 30 Q 160 28 167 30 Q 174 32 179 36 Q 183 39 178 44 Q 173 48 169 53 Q 151 76 145 82" fill="#7f0000" /><path d="M 134 93 Q 134 96 139 136 L 139 142 Q 138 144 138 146 Q 136 150 132 144 Q 128 139 128 131 Q 124 106 118 90 Q 116 86 117 85 Q 118 84 121 85 Q 124 85 126 86" fill="#8f0000" /><path d="M 197 82 Q 190 79 162 86 L 153 88 Q 141 91 134 93 L 126 86 Q 131 85 138 84 L 145 82 Q 165 75 188 73 Q 203 70 206 72 Q 218 78 223 82" fill="#9f0000" /><path d="M 192 127 Q 194 119 199 92 Q 200 84 197 82 L 223 82 Q 227 86 222 90 Q 213 98 210 111 Q 205 132 201 136 Q 200 140 196 141 Q 193 141 191 137 Q 191 136 191 135" fill="#9f0000" /><path d="M 155 114 Q 143 115 143 115 Q 138 112 142 111 Q 148 108 156 106 L 169 102 Q 174 101 177 102 Q 182 102 185 105 Q 187 108 182 109 Q 175 110 167 112" fill="#af0000" /><path d="M 151 140 Q 140 142 139 142 L 139 136 Q 145 134 153 133 L 164 131 Q 183 126 190 127 Q 191 127 192 127 L 191 135 Q 177 136 162 139" fill="#bf0000" /><path d="M 158 155 Q 153 167 142 190 Q 126 214 118 217 Q 116 217 116 215 Q 117 214 118 213 Q 142 177 151 143 Q 151 141 151 140 L 153 133 Q 154 124 155 114 L 156 106 Q 157 96 153 88 L 162 86 Q 167 89 170 93 Q 172 95 170 98 Q 169 100 169 102 L 167 112 Q 165 126 164 131 L 162 139 Q 161 142 160 145" fill="#cf0000" /><path d="M 165 229 Q 160 225 159 219 Q 156 208 159 169 Q 160 162 158 155 L 160 145 Q 161 145 162 146 Q 174 150 172 157 Q 164 200 170 214" fill="#df0000" /><path d="M 257 224 L 253 227 Q 243 234 233 237 Q 230 237 228 238 Q 183 244 165 229 L 170 214 Q 172 219 179 223 Q 198 229 220 225 Q 230 222 234 218 L 254 218" fill="#df0000" /><path d="M 234 218 Q 238 212 244 193 Q 245 189 246 190 Q 248 191 248 195 Q 252 213 254 218" fill="#df0000" /><path d="M 185 203 Q 183 205 181 203 Q 176 200 175 197 Q 174 195 176 193 Q 176 192 177 191 Q 199 170 193 154 Q 192 150 194 149 Q 195 148 199 149 Q 208 153 210 155 Q 211 157 209 159 Q 206 163 193 186 Q 192 188 192 188" fill="#ef0000" /><path d="M 190 198 L 185 203 L 192 188 Q 193 189 194 188 Q 205 185 216 184 L 218 188" fill="#ef0000" /><path d="M 216 184 Q 211 176 211 173 Q 212 171 213 171 Q 215 171 217 172 Q 232 184 232 191 Q 231 197 229 199 Q 228 200 226 200 Q 224 199 218 188" fill="#ff0000" /></svg>