<svg xmlns="http://www.w3.org/2000/svg" xmlns:xlink="http://www.w3.org/1999/xlink" width="270" height="270"><path d="M 0 0 L 270 270 M 270 0 L 0 270 M 135 0 L 135 270 M 0 135 L 270 135" stroke="#CCCCCC" /><path d="M 95 114 Q 95 116 94 118 Q 93 123 88 116 Q 82 110 80 100 Q 73 66 62 46 Q 59 41 61 40 Q 62 38 65 39 Q 79 40 80 42 L 82 52 Q 85 64 93 95 Q 94 101 95 106" fill="#000000" /><path d="M 187 41 Q 180 36 134 44 L 121 45 Q 99 48 86 52 Q 84 53 82 52 L 80 42 Q 93 41 113 38 Q 146 32 173 30 Q 192 26 197 29 Q 211 39 216 44" fill="#170000" /><path d="M 170 101 Q 171 100 171 99 Q 175 92 187 53 Q 190 43 187 41 L 216 44 Q 221 49 215 54 Q 203 61 197 76 Q 186 105 181 110 Q 179 114 175 114 Q 170 114 169 109 Q 169 108 169 106" fill="#170000" /><path d="M 96 71 L 96 69 Q 96 66 97 66 Q 100 66 106 69 Q 116 75 117 83 Q 117 86 115 88 Q 113 90 111 89 Q 105 86 98 74" fill="#2e0000" /><path d="M 159 61 L 158 58 Q 157 54 160 54 Q 165 54 170 57 Q 175 60 176 64 Q 178 66 174 68 Q 167 73 152 85 Q 150 86 148 86 Q 147 84 148 82 Q 155 72 157 65" fill="#450000" /><path d="M 127 110 Q 110 111 99 114 Q 96 114 95 114 L 95 106 Q 109 104 127 101 L 140 99 Q 140 99 141 99 Q 162 92 170 101 L 169 106 Q 152 107 139 108" fill="#5c0000" /><path d="M 126 143 Q 116 144 105 146 Q 97 147 94 144 Q 88 139 93 138 Q 108 135 126 132 L 139 129 Q 157 125 163 126 Q 170 128 174 132 Q 176 136 169 137 Q 155 139 138 141" fill="#730000" /><path d="M 126 152 L 126 143 L 126 132 Q 126 119 127 110 L 127 101 Q 127 59 124 52 Q 123 48 121 45 L 134 44 Q 137 46 140 49 Q 143 52 141 57 Q 141 61 141 67 Q 140 82 140 99 L 139 108 Q 139 118 139 129 L 138 141 Q 138 151 138 161 L 126 163" fill="#8b0000" /><path d="M 138 161 Q 156 158 168 156 Q 185 151 199 161 Q 202 165 201 168 Q 200 170 195 170 Q 124 170 89 180 Q 85 181 80 180 Q 76 178 72 175 Q 69 171 74 170 Q 102 167 126 163" fill="#a20000" /><path d="M 49 192 L 52 192 Q 53 192 55 195 Q 56 202 55 211 Q 54 230 41 240 Q 35 243 33 238 Q 28 229 34 220 Q 42 208 48 195" fill="#b90000" /><path d="M 87 203 L 87 200 Q 87 197 89 197 Q 93 196 100 201 Q 114 208 115 219 Q 114 223 112 226 Q 109 229 106 227 Q 99 222 90 207" fill="#d00000" /><path d="M 134 196 L 134 193 Q 134 189 136 189 Q 138 189 142 191 L 142 191 Q 163 200 164 213 Q 164 217 162 220 Q 159 223 155 221 Q 148 217 137 200" fill="#e70000" /><path d="M 191 190 L 191 187 Q 192 183 194 185 Q 235 204 238 220 Q 241 232 237 235 Q 235 237 233 237 Q 229 236 225 230 Q 208 208 193 193" fill="#ff0000" /></svg>