<svg xmlns="http://www.w3.org/2000/svg" xmlns:xlink="http://www.w3.org/1999/xlink" width="270" height="270"><path d="M 0 0 L 270 270 M 270 0 L 0 270 M 135 0 L 135 270 M 0 135 L 270 135" stroke="#CCCCCC" /><path d="M 97 41 Q 112 18 111 13 Q 110 10 112 10 Q 114 9 119 11 Q 124 13 127 16 Q 130 19 126 21 Q 122 23 102 41" fill="#000000" /><path d="M 106 109 L 103 108 L 103 108 Q 94 103 93 86 Q 92 56 84 42 Q 82 39 84 38 Q 85 36 87 37 Q 92 38 97 41 L 103 49 Q 103 55 103 59 L 104 66 Q 104 68 104 71 Q 104 74 105 77 L 105 83 Q 105 84 105 85 Q 107 91 107 97 L 107 103" fill="#130000" /><path d="M 97 41 L 102 41 Q 144 32 147 32 Q 168 27 172 29 Q 183 35 187 39 L 163 40 Q 159 38 153 39 Q 121 44 103 49" fill="#270000" /><path d="M 187 39 Q 190 43 187 46 Q 181 52 179 60 Q 172 96 168 103 Q 164 108 161 106 Q 157 104 153 98 L 154 91 Q 159 88 166 49 Q 167 43 163 40" fill="#270000" /><path d="M 103 59 Q 143 51 146 52 Q 151 53 153 56 Q 154 59 150 59 Q 131 62 105 66 Q 104 66 104 66" fill="#3a0000" /><path d="M 105 77 Q 140 69 145 71 Q 151 72 153 75 Q 154 78 149 79 Q 132 80 107 83 Q 106 83 105 83" fill="#4e0000" /><path d="M 107 97 Q 147 89 151 90 Q 153 91 154 91 L 153 98 Q 132 100 107 103" fill="#620000" /><path d="M 96 171 L 92 170 Q 83 166 81 150 Q 77 128 70 119 Q 67 117 69 116 Q 70 114 72 115 Q 78 116 83 119 L 89 127 Q 89 129 92 148 Q 94 154 95 159 L 96 166" fill="#750000" /><path d="M 83 119 Q 95 117 112 115 Q 136 110 165 108 Q 182 104 186 107 Q 198 114 203 118 L 177 117 Q 171 114 132 119 L 122 120 Q 101 123 89 127" fill="#890000" /><path d="M 203 118 Q 206 122 202 126 Q 192 133 188 146 Q 183 157 181 160 Q 179 163 176 163 Q 172 164 171 160 Q 171 160 171 159 L 172 151 Q 174 147 178 124 Q 179 118 177 117" fill="#890000" /><path d="M 136 132 Q 145 129 153 130 Q 159 132 161 135 Q 163 139 157 139 Q 147 140 135 141 L 124 143 Q 106 143 104 142 Q 100 139 104 138 Q 113 136 124 134" fill="#9c0000" /><path d="M 132 119 Q 136 122 136 131 Q 136 131 136 132 L 135 141 Q 135 147 135 155 L 125 156 Q 124 148 124 143 L 124 134 Q 123 123 122 120" fill="#b00000" /><path d="M 171 159 Q 141 162 101 166 Q 98 166 96 166 L 95 159 Q 109 157 125 156 L 135 155 Q 146 153 159 152 Q 167 150 172 151" fill="#c40000" /><path d="M 125 183 L 99 187 L 89 188 Q 65 190 45 195 Q 40 196 35 195 Q 29 193 26 189 Q 22 184 28 184 Q 166 173 218 164 Q 228 162 243 174 Q 247 178 246 181 Q 244 183 239 183 Q 193 181 166 182 L 155 182" fill="#d70000" /><path d="M 99 187 Q 104 189 108 193 Q 111 196 109 200 Q 106 203 105 208 Q 99 224 92 234 Q 89 239 82 243 Q 69 252 57 251 Q 54 250 57 248 Q 75 238 84 224 Q 94 196 89 189 Q 88 188 89 188" fill="#eb0000" /><path d="M 166 182 Q 168 183 171 186 Q 172 187 172 190 Q 171 201 172 231 Q 172 252 170 257 Q 169 260 166 260 Q 165 259 165 259 Q 153 247 156 227 Q 159 190 155 183 Q 155 182 155 182" fill="#ff0000" /></svg>