<svg xmlns="http://www.w3.org/2000/svg" xmlns:xlink="http://www.w3.org/1999/xlink" width="270" height="270"><defs><clipPath id="clip-mask-1"><use xlink:href="#rect-1" /></clipPath></defs><path d="M 0 0 L 270 270 M 270 0 L 0 270 M 135 0 L 135 270 M 0 135 L 270 135" stroke="#CCCCCC" /><path d="M 46 134 L 71 131 Q 112 126 180 120 Q 195 118 206 115 Q 214 113 219 115 Q 233 121 243 130 Q 246 134 244 138 Q 242 141 234 140 Q 198 135 170 137 Q 85 142 54 153 Q 42 156 29 146 Q 23 142 23 137 Q 23 134 28 134" fill="#CCCCCC"/><path d="M 46 134 L 71 131 Q 112 126 180 120 Q 195 118 206 115 Q 214 113 219 115 Q 233 121 243 130 Q 246 134 244 138 Q 242 141 234 140 Q 198 135 170 137 Q 85 142 54 153 Q 42 156 29 146 Q 23 142 23 137 Q 23 134 28 134" fill="#0000ff" clip-path="url(#clip-mask-1)" /><rect x="23" y="113" width="223" height="43" id="rect-1" fill="transparent" stroke="#000000"><animate attributeName="x" from="-200" to="23" dur="0.826" begin="0; animate1.end + 1s" id="animate1" fill="freeze"/></rect></svg>