<svg xmlns="http://www.w3.org/2000/svg" xmlns:xlink="http://www.w3.org/1999/xlink" width="270" height="270"><defs><clipPath id="clip-mask-1"><use xlink:href="#rect-1" /></clipPath><clipPath id="clip-mask-2"><use xlink:href="#rect-2" /></clipPath><clipPath id="clip-mask-3"><use xlink:href="#rect-3" /></clipPath></defs><path d="M 0 0 L 270 270 M 270 0 L 0 270 M 135 0 L 135 270 M 0 135 L 270 135" stroke="#CCCCCC" /><path d="M 116 109 Q 95 112 74 117 Q 58 121 43 113 Q 35 107 46 105 Q 81 102 110 96 Q 114 95 117 94 L 132 90 Q 147 86 161 81 Q 171 77 181 79 Q 190 82 192 86 Q 194 88 191 91 Q 187 94 166 99 Q 148 102 131 106" fill="#CCCCCC"/><path d="M 104 201 L 93 210 Q 75 226 49 231 Q 34 235 27 233 Q 24 232 23 231 Q 24 230 28 228 Q 86 207 102 178 L 107 167 Q 112 150 116 109 L 117 94 Q 118 75 118 56 Q 117 41 111 30 Q 109 26 111 24 Q 114 22 122 24 Q 134 28 140 34 Q 144 37 142 41 Q 135 56 132 90 L 131 106 Q 130 111 130 116 Q 126 158 118 177 L 112 189" fill="#CCCCCC"/><path d="M 102 178 Q 76 148 60 138 Q 55 135 56 133 Q 57 131 63 131 Q 74 131 85 144 Q 96 156 107 167 L 118 177 Q 145 201 163 211 Q 182 221 232 234 Q 244 238 245 239 Q 246 243 233 244 Q 212 247 177 247 Q 162 245 117 196 Q 115 192 112 189" fill="#CCCCCC"/><path d="M 116 109 Q 95 112 74 117 Q 58 121 43 113 Q 35 107 46 105 Q 81 102 110 96 Q 114 95 117 94 L 132 90 Q 147 86 161 81 Q 171 77 181 79 Q 190 82 192 86 Q 194 88 191 91 Q 187 94 166 99 Q 148 102 131 106" fill="#0000ff" clip-path="url(#clip-mask-1)" /><path d="M 104 201 L 93 210 Q 75 226 49 231 Q 34 235 27 233 Q 24 232 23 231 Q 24 230 28 228 Q 86 207 102 178 L 107 167 Q 112 150 116 109 L 117 94 Q 118 75 118 56 Q 117 41 111 30 Q 109 26 111 24 Q 114 22 122 24 Q 134 28 140 34 Q 144 37 142 41 Q 135 56 132 90 L 131 106 Q 130 111 130 116 Q 126 158 118 177 L 112 189" fill="#000080" clip-path="url(#clip-mask-2)" /><path d="M 102 178 Q 76 148 60 138 Q 55 135 56 133 Q 57 131 63 131 Q 74 131 85 144 Q 96 156 107 167 L 118 177 Q 145 201 163 211 Q 182 221 232 234 Q 244 238 245 239 Q 246 243 233 244 Q 212 247 177 247 Q 162 245 117 196 Q 115 192 112 189" fill="#000080" clip-path="url(#clip-mask-3)" /><rect x="35" y="77" width="159" height="44" id="rect-1" fill="transparent" stroke="#000000"><animate attributeName="x" from="-124" to="35" dur="0.589" begin="0; animate3.end + 1s" id="animate1" fill="freeze"/></rect><rect x="23" y="22" width="121" height="213" id="rect-2" fill="transparent" stroke="#000000"><set attributeName="y" to="-191" begin="0; animate3.end + 1s" /><animate attributeName="y" from="-191" to="22" dur="0.789" begin="animate1.end + 0.5" id="animate2" fill="freeze"/></rect><rect x="55" y="131" width="191" height="116" id="rect-3" fill="transparent" stroke="#000000"><set attributeName="x" to="-136" begin="0; animate3.end + 1s" /><animate attributeName="x" from="-136" to="55" dur="0.707" begin="animate2.end + 0.5" id="animate3" fill="freeze"/></rect></svg>