<svg xmlns="http://www.w3.org/2000/svg" xmlns:xlink="http://www.w3.org/1999/xlink" width="270" height="270"><defs><clipPath id="clip-mask-1"><use xlink:href="#rect-1" /></clipPath><clipPath id="clip-mask-2"><use xlink:href="#rect-2" /></clipPath><clipPath id="clip-mask-3"><use xlink:href="#rect-3" /></clipPath><clipPath id="clip-mask-4"><use xlink:href="#rect-4" /></clipPath><clipPath id="clip-mask-5"><use xlink:href="#rect-5" /></clipPath></defs><path d="M 0 0 L 270 270 M 270 0 L 0 270 M 135 0 L 135 270 M 0 135 L 270 135" stroke="#CCCCCC" /><path d="M 80 147 Q 79 150 79 153 Q 78 158 72 151 Q 66 145 64 136 Q 57 103 46 84 Q 43 79 45 77 Q 47 75 59 77 L 68 88 Q 70 99 78 132 Q 79 134 79 136" fill="#CCCCCC"/><path d="M 122 78 Q 112 79 101 81 Q 71 86 68 88 L 59 77 Q 63 78 96 73 Q 110 71 122 70 L 139 68 Q 176 62 180 62 Q 197 56 201 60 Q 210 65 217 72 Q 226 78 219 84 L 191 75 Q 190 72 184 72 Q 158 74 139 76" fill="#CCCCCC"/><path d="M 179 123 Q 195 82 191 75 L 219 84 Q 208 93 203 106 Q 200 116 196 126" fill="#CCCCCC"/><path d="M 99 145 L 84 147 Q 82 147 80 147 L 79 136 Q 99 135 122 132 L 138 130 Q 157 126 179 123 L 196 126 Q 203 132 203 135 Q 203 137 199 138 Q 164 139 138 141 L 122 143" fill="#CCCCCC"/><path d="M 122 132 Q 122 132 122 132 Q 122 101 122 78 L 122 70 Q 122 52 122 39 Q 122 29 113 22 Q 110 19 113 16 Q 116 12 122 14 Q 135 17 142 23 Q 147 27 145 32 Q 140 40 139 68 L 139 76 Q 138 98 138 130 L 138 141 Q 137 239 132 251 Q 130 257 126 252 Q 125 251 125 250 Q 121 242 122 143" fill="#CCCCCC"/><path d="M 80 147 Q 79 150 79 153 Q 78 158 72 151 Q 66 145 64 136 Q 57 103 46 84 Q 43 79 45 77 Q 47 75 59 77 L 68 88 Q 70 99 78 132 Q 79 134 79 136" fill="#000080" clip-path="url(#clip-mask-1)" /><path d="M 122 78 Q 112 79 101 81 Q 71 86 68 88 L 59 77 Q 63 78 96 73 Q 110 71 122 70 L 139 68 Q 176 62 180 62 Q 197 56 201 60 Q 210 65 217 72 Q 226 78 219 84 L 191 75 Q 190 72 184 72 Q 158 74 139 76" fill="#000080" clip-path="url(#clip-mask-2)" /><path d="M 179 123 Q 195 82 191 75 L 219 84 Q 208 93 203 106 Q 200 116 196 126" fill="#000080" clip-path="url(#clip-mask-3)" /><path d="M 99 145 L 84 147 Q 82 147 80 147 L 79 136 Q 99 135 122 132 L 138 130 Q 157 126 179 123 L 196 126 Q 203 132 203 135 Q 203 137 199 138 Q 164 139 138 141 L 122 143" fill="#000080" clip-path="url(#clip-mask-4)" /><path d="M 122 132 Q 122 132 122 132 Q 122 101 122 78 L 122 70 Q 122 52 122 39 Q 122 29 113 22 Q 110 19 113 16 Q 116 12 122 14 Q 135 17 142 23 Q 147 27 145 32 Q 140 40 139 68 L 139 76 Q 138 98 138 130 L 138 141 Q 137 239 132 251 Q 130 257 126 252 Q 125 251 125 250 Q 121 242 122 143" fill="#0000ff" clip-path="url(#clip-mask-5)" /><rect x="43" y="75" width="37" height="83" id="rect-1" fill="transparent" stroke="#000000"><animate attributeName="y" from="-8" to="75" dur="0.307" begin="0; animate5.end + 1s" id="animate1" fill="freeze"/></rect><rect x="59" y="56" width="167" height="32" id="rect-2" fill="transparent" stroke="#000000"><set attributeName="x" to="-108" begin="0; animate5.end + 1s" /><animate attributeName="x" from="-108" to="59" dur="0.619" begin="animate1.end + 0.5" id="animate2" fill="freeze"/></rect><rect x="179" y="75" width="40" height="51" id="rect-3" fill="transparent" stroke="#000000"><set attributeName="y" to="24" begin="0; animate5.end + 1s" /><animate attributeName="y" from="24" to="75" dur="0.189" begin="animate2.end" id="animate3" fill="freeze"/></rect><rect x="79" y="123" width="124" height="24" id="rect-4" fill="transparent" stroke="#000000"><set attributeName="x" to="-45" begin="0; animate5.end + 1s" /><animate attributeName="x" from="-45" to="79" dur="0.459" begin="animate3.end + 0.5" id="animate4" fill="freeze"/></rect><rect x="110" y="12" width="37" height="245" id="rect-5" fill="transparent" stroke="#000000"><set attributeName="y" to="-233" begin="0; animate5.end + 1s" /><animate attributeName="y" from="-233" to="12" dur="0.907" begin="animate4.end + 0.5" id="animate5" fill="freeze"/></rect></svg>