<svg xmlns="http://www.w3.org/2000/svg" xmlns:xlink="http://www.w3.org/1999/xlink" width="270" height="270"><defs><clipPath id="clip-mask-1"><use xlink:href="#rect-1" /></clipPath><clipPath id="clip-mask-2"><use xlink:href="#rect-2" /></clipPath><clipPath id="clip-mask-3"><use xlink:href="#rect-3" /></clipPath><clipPath id="clip-mask-4"><use xlink:href="#rect-4" /></clipPath></defs><path d="M 0 0 L 270 270 M 270 0 L 0 270 M 135 0 L 135 270 M 0 135 L 270 135" stroke="#CCCCCC" /><path d="M 77 59 L 96 55 Q 109 52 132 42 Q 136 39 139 41 Q 151 45 161 52 Q 166 56 164 61 L 124 59 Q 122 55 78 71 Q 65 76 57 73 Q 52 72 47 68 Q 43 65 44 62 Q 45 60 49 60" fill="#CCCCCC"/><path d="M 164 61 Q 163 63 158 65 Q 147 69 137 77 Q 99 106 84 124 Q 49 164 54 186 L 51 208 Q 43 202 41 194 Q 38 184 42 170 Q 48 146 70 120 Q 76 111 122 64 Q 125 61 124 59" fill="#CCCCCC"/><path d="M 54 186 Q 56 194 66 200 Q 74 205 87 206 Q 161 212 193 197 L 228 194 Q 231 205 221 209 Q 193 222 169 225 Q 156 227 144 227 Q 73 230 51 208" fill="#CCCCCC"/><path d="M 193 197 Q 200 193 204 186 Q 209 170 212 146 Q 214 138 216 141 Q 218 144 219 149 Q 222 176 228 194" fill="#CCCCCC"/><path d="M 77 59 L 96 55 Q 109 52 132 42 Q 136 39 139 41 Q 151 45 161 52 Q 166 56 164 61 L 124 59 Q 122 55 78 71 Q 65 76 57 73 Q 52 72 47 68 Q 43 65 44 62 Q 45 60 49 60" fill="#0000ff" clip-path="url(#clip-mask-1)" /><path d="M 164 61 Q 163 63 158 65 Q 147 69 137 77 Q 99 106 84 124 Q 49 164 54 186 L 51 208 Q 43 202 41 194 Q 38 184 42 170 Q 48 146 70 120 Q 76 111 122 64 Q 125 61 124 59" fill="#0000ff" clip-path="url(#clip-mask-2)" /><path d="M 54 186 Q 56 194 66 200 Q 74 205 87 206 Q 161 212 193 197 L 228 194 Q 231 205 221 209 Q 193 222 169 225 Q 156 227 144 227 Q 73 230 51 208" fill="#0000ff" clip-path="url(#clip-mask-3)" /><path d="M 193 197 Q 200 193 204 186 Q 209 170 212 146 Q 214 138 216 141 Q 218 144 219 149 Q 222 176 228 194" fill="#0000ff" clip-path="url(#clip-mask-4)" /><rect x="43" y="39" width="123" height="37" id="rect-1" fill="transparent" stroke="#000000"><animate attributeName="x" from="-80" to="43" dur="0.456" begin="0; animate4.end + 1s" id="animate1" fill="freeze"/></rect><rect x="38" y="59" width="126" height="149" id="rect-2" fill="transparent" stroke="#000000"><set attributeName="y" to="-90" begin="0; animate4.end + 1s" /><animate attributeName="y" from="-90" to="59" dur="0.552" begin="animate1.end" id="animate2" fill="freeze"/></rect><rect x="51" y="186" width="180" height="44" id="rect-3" fill="transparent" stroke="#000000"><set attributeName="x" to="-129" begin="0; animate4.end + 1s" /><animate attributeName="x" from="-129" to="51" dur="0.667" begin="animate2.end" id="animate3" fill="freeze"/></rect><rect x="193" y="138" width="35" height="59" id="rect-4" fill="transparent" stroke="#000000"><set attributeName="y" to="197" begin="0; animate4.end + 1s" /><animate attributeName="y" from="197" to="138" dur="0.219" begin="animate3.end" id="animate4" fill="freeze"/></rect></svg>