<svg xmlns="http://www.w3.org/2000/svg" xmlns:xlink="http://www.w3.org/1999/xlink" width="270" height="270"><defs><clipPath id="clip-mask-1"><use xlink:href="#rect-1" /></clipPath><clipPath id="clip-mask-2"><use xlink:href="#rect-2" /></clipPath><clipPath id="clip-mask-3"><use xlink:href="#rect-3" /></clipPath><clipPath id="clip-mask-4"><use xlink:href="#rect-4" /></clipPath><clipPath id="clip-mask-5"><use xlink:href="#rect-5" /></clipPath></defs><path d="M 0 0 L 270 270 M 270 0 L 0 270 M 135 0 L 135 270 M 0 135 L 270 135" stroke="#CCCCCC" /><path d="M 101 106 Q 102 99 105 62 Q 105 43 99 33 Q 97 28 101 27 Q 110 24 126 34 Q 131 37 128 43 Q 125 51 123 59 Q 117 88 117 102 L 115 111 Q 112 128 97 164 Q 88 183 70 200 Q 54 217 31 228 Q 21 233 16 233 Q 12 232 16 229 Q 80 185 99 116" fill="#CCCCCC"/><path d="M 81 122 L 60 129 Q 50 133 42 129 Q 35 124 34 121 Q 34 117 37 117 Q 58 117 70 114 Q 85 110 101 107 L 117 102 Q 146 94 158 86 Q 163 82 167 84 Q 185 93 185 96 Q 186 99 181 103 L 154 104 Q 152 102 147 103 Q 133 105 115 111 L 99 116" fill="#CCCCCC"/><path d="M 181 103 Q 174 109 169 122 Q 158 152 155 176 Q 153 199 159 209 L 165 235 Q 126 215 154 110 Q 155 105 154 104" fill="#CCCCCC"/><path d="M 159 209 Q 163 217 175 221 Q 190 226 207 223 Q 223 222 228 217 L 255 221 Q 257 227 252 230 Q 228 245 192 242 Q 175 240 165 235" fill="#CCCCCC"/><path d="M 228 217 Q 234 211 237 201 Q 240 189 243 178 Q 244 173 246 173 Q 248 172 248 177 Q 250 203 255 221" fill="#CCCCCC"/><path d="M 101 106 Q 102 99 105 62 Q 105 43 99 33 Q 97 28 101 27 Q 110 24 126 34 Q 131 37 128 43 Q 125 51 123 59 Q 117 88 117 102 L 115 111 Q 112 128 97 164 Q 88 183 70 200 Q 54 217 31 228 Q 21 233 16 233 Q 12 232 16 229 Q 80 185 99 116" fill="#000080" clip-path="url(#clip-mask-1)" /><path d="M 81 122 L 60 129 Q 50 133 42 129 Q 35 124 34 121 Q 34 117 37 117 Q 58 117 70 114 Q 85 110 101 107 L 117 102 Q 146 94 158 86 Q 163 82 167 84 Q 185 93 185 96 Q 186 99 181 103 L 154 104 Q 152 102 147 103 Q 133 105 115 111 L 99 116" fill="#0000ff" clip-path="url(#clip-mask-2)" /><path d="M 181 103 Q 174 109 169 122 Q 158 152 155 176 Q 153 199 159 209 L 165 235 Q 126 215 154 110 Q 155 105 154 104" fill="#0000ff" clip-path="url(#clip-mask-3)" /><path d="M 159 209 Q 163 217 175 221 Q 190 226 207 223 Q 223 222 228 217 L 255 221 Q 257 227 252 230 Q 228 245 192 242 Q 175 240 165 235" fill="#0000ff" clip-path="url(#clip-mask-4)" /><path d="M 228 217 Q 234 211 237 201 Q 240 189 243 178 Q 244 173 246 173 Q 248 172 248 177 Q 250 203 255 221" fill="#0000ff" clip-path="url(#clip-mask-5)" /><rect x="12" y="24" width="119" height="209" id="rect-1" fill="transparent" stroke="#000000"><animate attributeName="y" from="-185" to="24" dur="0.774" begin="0; animate5.end + 1s" id="animate1" fill="freeze"/></rect><rect x="34" y="82" width="152" height="51" id="rect-2" fill="transparent" stroke="#000000"><set attributeName="x" to="-118" begin="0; animate5.end + 1s" /><animate attributeName="x" from="-118" to="34" dur="0.563" begin="animate1.end + 0.5" id="animate2" fill="freeze"/></rect><rect x="126" y="103" width="55" height="132" id="rect-3" fill="transparent" stroke="#000000"><set attributeName="y" to="-29" begin="0; animate5.end + 1s" /><animate attributeName="y" from="-29" to="103" dur="0.489" begin="animate2.end" id="animate3" fill="freeze"/></rect><rect x="159" y="209" width="98" height="36" id="rect-4" fill="transparent" stroke="#000000"><set attributeName="x" to="61" begin="0; animate5.end + 1s" /><animate attributeName="x" from="61" to="159" dur="0.363" begin="animate3.end" id="animate4" fill="freeze"/></rect><rect x="228" y="172" width="27" height="49" id="rect-5" fill="transparent" stroke="#000000"><set attributeName="y" to="221" begin="0; animate5.end + 1s" /><animate attributeName="y" from="221" to="172" dur="0.181" begin="animate4.end" id="animate5" fill="freeze"/></rect></svg>