<svg xmlns="http://www.w3.org/2000/svg" xmlns:xlink="http://www.w3.org/1999/xlink" width="270" height="270"><defs><clipPath id="clip-mask-1"><use xlink:href="#rect-1" /></clipPath><clipPath id="clip-mask-2"><use xlink:href="#rect-2" /></clipPath><clipPath id="clip-mask-3"><use xlink:href="#rect-3" /></clipPath><clipPath id="clip-mask-4"><use xlink:href="#rect-4" /></clipPath></defs><path d="M 0 0 L 270 270 M 270 0 L 0 270 M 135 0 L 135 270 M 0 135 L 270 135" stroke="#CCCCCC" /><path d="M 150 83 Q 129 86 110 89 L 95 92 Q 93 92 91 92 Q 74 95 62 87 Q 55 82 66 81 Q 80 80 95 79 L 110 77 Q 137 72 150 70 L 165 65 Q 186 59 194 62 Q 202 64 204 68 Q 205 70 203 73 Q 200 75 165 81" fill="#CCCCCC"/><path d="M 123 140 L 105 143 L 91 145 Q 70 147 52 155 Q 43 158 31 149 Q 26 145 26 142 Q 26 139 30 139 Q 40 138 93 133 L 107 131 Q 126 129 150 126 L 164 125 Q 203 119 209 118 Q 216 116 220 117 Q 232 123 240 130 Q 243 133 241 137 Q 240 139 233 138 Q 185 133 164 137 L 149 138" fill="#CCCCCC"/><path d="M 105 143 Q 100 178 79 204 Q 70 214 56 225 Q 50 230 45 230 Q 42 230 42 228 Q 43 227 60 209 Q 81 185 91 145 L 93 133 Q 94 127 95 92 L 95 79 Q 93 52 87 42 Q 82 36 88 35 Q 92 34 106 40 Q 112 42 111 49 Q 110 57 110 77 L 110 89 Q 109 123 107 131" fill="#CCCCCC"/><path d="M 150 126 Q 150 102 150 83 L 150 70 Q 149 50 149 38 Q 149 28 140 21 Q 137 18 140 15 Q 143 11 149 13 Q 161 16 168 21 Q 173 26 171 30 Q 165 40 165 65 L 165 81 Q 164 100 164 125 L 164 137 Q 164 242 160 252 Q 157 258 153 253 Q 150 247 150 235 Q 149 232 149 138" fill="#CCCCCC"/><path d="M 150 83 Q 129 86 110 89 L 95 92 Q 93 92 91 92 Q 74 95 62 87 Q 55 82 66 81 Q 80 80 95 79 L 110 77 Q 137 72 150 70 L 165 65 Q 186 59 194 62 Q 202 64 204 68 Q 205 70 203 73 Q 200 75 165 81" fill="#0000ff" clip-path="url(#clip-mask-1)" /><path d="M 123 140 L 105 143 L 91 145 Q 70 147 52 155 Q 43 158 31 149 Q 26 145 26 142 Q 26 139 30 139 Q 40 138 93 133 L 107 131 Q 126 129 150 126 L 164 125 Q 203 119 209 118 Q 216 116 220 117 Q 232 123 240 130 Q 243 133 241 137 Q 240 139 233 138 Q 185 133 164 137 L 149 138" fill="#0000ff" clip-path="url(#clip-mask-2)" /><path d="M 105 143 Q 100 178 79 204 Q 70 214 56 225 Q 50 230 45 230 Q 42 230 42 228 Q 43 227 60 209 Q 81 185 91 145 L 93 133 Q 94 127 95 92 L 95 79 Q 93 52 87 42 Q 82 36 88 35 Q 92 34 106 40 Q 112 42 111 49 Q 110 57 110 77 L 110 89 Q 109 123 107 131" fill="#000080" clip-path="url(#clip-mask-3)" /><path d="M 150 126 Q 150 102 150 83 L 150 70 Q 149 50 149 38 Q 149 28 140 21 Q 137 18 140 15 Q 143 11 149 13 Q 161 16 168 21 Q 173 26 171 30 Q 165 40 165 65 L 165 81 Q 164 100 164 125 L 164 137 Q 164 242 160 252 Q 157 258 153 253 Q 150 247 150 235 Q 149 232 149 138" fill="#000080" clip-path="url(#clip-mask-4)" /><rect x="55" y="59" width="150" height="36" id="rect-1" fill="transparent" stroke="#000000"><animate attributeName="x" from="-95" to="55" dur="0.556" begin="0; animate4.end + 1s" id="animate1" fill="freeze"/></rect><rect x="26" y="116" width="217" height="42" id="rect-2" fill="transparent" stroke="#000000"><set attributeName="x" to="-191" begin="0; animate4.end + 1s" /><animate attributeName="x" from="-191" to="26" dur="0.804" begin="animate1.end + 0.5" id="animate2" fill="freeze"/></rect><rect x="42" y="34" width="70" height="196" id="rect-3" fill="transparent" stroke="#000000"><set attributeName="y" to="-162" begin="0; animate4.end + 1s" /><animate attributeName="y" from="-162" to="34" dur="0.726" begin="animate2.end + 0.5" id="animate3" fill="freeze"/></rect><rect x="137" y="11" width="36" height="247" id="rect-4" fill="transparent" stroke="#000000"><set attributeName="y" to="-236" begin="0; animate4.end + 1s" /><animate attributeName="y" from="-236" to="11" dur="0.915" begin="animate3.end + 0.5" id="animate4" fill="freeze"/></rect></svg>