<svg xmlns="http://www.w3.org/2000/svg" xmlns:xlink="http://www.w3.org/1999/xlink" width="270" height="270"><defs><clipPath id="clip-mask-1"><use xlink:href="#rect-1" /></clipPath><clipPath id="clip-mask-2"><use xlink:href="#rect-2" /></clipPath><clipPath id="clip-mask-3"><use xlink:href="#rect-3" /></clipPath><clipPath id="clip-mask-4"><use xlink:href="#rect-4" /></clipPath></defs><path d="M 0 0 L 270 270 M 270 0 L 0 270 M 135 0 L 135 270 M 0 135 L 270 135" stroke="#CCCCCC" /><path d="M 64 113 L 64 113 Q 32 153 20 156 Q 16 156 17 153 Q 17 151 21 148 Q 44 122 60 98 Q 78 73 90 46 Q 93 39 89 29 Q 87 22 93 22 Q 98 22 106 27 Q 115 34 116 38 Q 117 42 114 46 Q 107 52 99 67 Q 85 88 72 104 L 65 113" fill="#CCCCCC"/><path d="M 72 104 Q 75 107 86 119 Q 89 122 87 129 Q 84 145 83 215 Q 84 228 79 239 Q 76 247 71 242 Q 70 241 69 240 Q 60 227 64 214 Q 72 182 72 135 Q 72 134 72 134 Q 71 131 65 113" fill="#CCCCCC"/><path d="M 139 94 L 173 87 Q 197 78 207 79 Q 217 81 219 85 Q 220 88 218 90 Q 216 92 206 95 Q 184 100 163 105 Q 141 110 128 103 Q 119 98 131 95" fill="#CCCCCC"/><path d="M 190 169 L 221 162 Q 232 161 248 172 Q 253 176 251 180 Q 250 182 244 182 Q 239 182 235 182 Q 161 182 118 192 Q 114 194 107 192 Q 102 190 98 186 Q 93 180 99 180" fill="#CCCCCC"/><path d="M 64 113 L 64 113 Q 32 153 20 156 Q 16 156 17 153 Q 17 151 21 148 Q 44 122 60 98 Q 78 73 90 46 Q 93 39 89 29 Q 87 22 93 22 Q 98 22 106 27 Q 115 34 116 38 Q 117 42 114 46 Q 107 52 99 67 Q 85 88 72 104 L 65 113" fill="#0000ff" clip-path="url(#clip-mask-1)" /><path d="M 72 104 Q 75 107 86 119 Q 89 122 87 129 Q 84 145 83 215 Q 84 228 79 239 Q 76 247 71 242 Q 70 241 69 240 Q 60 227 64 214 Q 72 182 72 135 Q 72 134 72 134 Q 71 131 65 113" fill="#0000ff" clip-path="url(#clip-mask-2)" /><path d="M 139 94 L 173 87 Q 197 78 207 79 Q 217 81 219 85 Q 220 88 218 90 Q 216 92 206 95 Q 184 100 163 105 Q 141 110 128 103 Q 119 98 131 95" fill="#000080" clip-path="url(#clip-mask-3)" /><path d="M 190 169 L 221 162 Q 232 161 248 172 Q 253 176 251 180 Q 250 182 244 182 Q 239 182 235 182 Q 161 182 118 192 Q 114 194 107 192 Q 102 190 98 186 Q 93 180 99 180" fill="#000080" clip-path="url(#clip-mask-4)" /><rect x="16" y="22" width="101" height="134" id="rect-1" fill="transparent" stroke="#000000"><animate attributeName="y" from="-112" to="22" dur="0.496" begin="0; animate4.end + 1s" id="animate1" fill="freeze"/></rect><rect x="60" y="104" width="29" height="143" id="rect-2" fill="transparent" stroke="#000000"><set attributeName="y" to="-39" begin="0; animate4.end + 1s" /><animate attributeName="y" from="-39" to="104" dur="0.530" begin="animate1.end + 0.5" id="animate2" fill="freeze"/></rect><rect x="119" y="78" width="101" height="32" id="rect-3" fill="transparent" stroke="#000000"><set attributeName="x" to="18" begin="0; animate4.end + 1s" /><animate attributeName="x" from="18" to="119" dur="0.374" begin="animate2.end + 0.5" id="animate3" fill="freeze"/></rect><rect x="93" y="161" width="160" height="33" id="rect-4" fill="transparent" stroke="#000000"><set attributeName="x" to="-67" begin="0; animate4.end + 1s" /><animate attributeName="x" from="-67" to="93" dur="0.593" begin="animate3.end + 0.5" id="animate4" fill="freeze"/></rect></svg>