<svg xmlns="http://www.w3.org/2000/svg" xmlns:xlink="http://www.w3.org/1999/xlink" width="270" height="270"><defs><clipPath id="clip-mask-1"><use xlink:href="#rect-1" /></clipPath><clipPath id="clip-mask-2"><use xlink:href="#rect-2" /></clipPath><clipPath id="clip-mask-3"><use xlink:href="#rect-3" /></clipPath><clipPath id="clip-mask-4"><use xlink:href="#rect-4" /></clipPath><clipPath id="clip-mask-5"><use xlink:href="#rect-5" /></clipPath><clipPath id="clip-mask-6"><use xlink:href="#rect-6" /></clipPath><clipPath id="clip-mask-7"><use xlink:href="#rect-7" /></clipPath><clipPath id="clip-mask-8"><use xlink:href="#rect-8" /></clipPath><clipPath id="clip-mask-9"><use xlink:href="#rect-9" /></clipPath></defs><path d="M 0 0 L 270 270 M 270 0 L 0 270 M 135 0 L 135 270 M 0 135 L 270 135" stroke="#CCCCCC" /><path d="M 56 101 L 54 104 Q 26 138 16 139 Q 12 140 13 137 Q 14 135 16 132 Q 37 109 52 87 Q 69 64 79 40 Q 82 33 79 24 Q 77 18 82 17 Q 87 18 95 22 Q 102 29 103 33 Q 105 37 102 39 Q 96 46 88 59 Q 77 75 68 88 L 60 97" fill="#CCCCCC"/><path d="M 68 88 Q 69 89 70 90 Q 74 94 78 99 Q 81 102 79 109 Q 77 126 75 200 Q 75 212 71 223 Q 68 230 63 226 Q 62 225 62 224 Q 52 212 56 199 Q 65 169 65 139 Q 65 134 65 130 Q 65 106 60 97" fill="#CCCCCC"/><path d="M 147 77 L 116 86 Q 106 88 98 81 Q 94 76 99 76 Q 201 60 230 54 Q 239 52 253 61 Q 257 65 256 68 Q 255 70 250 71 Q 218 71 202 72 L 187 73" fill="#CCCCCC"/><path d="M 125 163 L 124 166 Q 123 170 118 163 Q 114 159 113 152 Q 109 128 103 114 Q 100 109 102 108 Q 103 106 107 107 Q 113 108 116 110 L 121 117 Q 121 124 125 150 L 125 159" fill="#CCCCCC"/><path d="M 151 113 Q 150 111 143 112 Q 124 116 121 117 L 116 110 Q 127 108 143 102 Q 153 95 159 99 Q 166 103 171 106" fill="#CCCCCC"/><path d="M 145 145 Q 148 134 150 125 Q 153 115 151 113 L 171 106 Q 178 111 171 117 Q 165 124 159 145" fill="#CCCCCC"/><path d="M 125 150 Q 134 147 145 145 L 159 145 Q 166 149 166 152 Q 165 154 163 154 Q 135 156 125 159" fill="#CCCCCC"/><path d="M 202 72 Q 209 76 212 79 Q 213 82 212 91 Q 209 130 212 208 Q 214 230 201 247 Q 197 252 193 249 L 190 219 Q 193 215 194 206 Q 194 130 193 97 Q 193 85 190 78 Q 188 75 187 73" fill="#CCCCCC"/><path d="M 193 249 Q 182 237 165 221 Q 162 218 162 216 Q 162 214 165 215 Q 187 220 190 219" fill="#CCCCCC"/><path d="M 56 101 L 54 104 Q 26 138 16 139 Q 12 140 13 137 Q 14 135 16 132 Q 37 109 52 87 Q 69 64 79 40 Q 82 33 79 24 Q 77 18 82 17 Q 87 18 95 22 Q 102 29 103 33 Q 105 37 102 39 Q 96 46 88 59 Q 77 75 68 88 L 60 97" fill="#0000ff" clip-path="url(#clip-mask-1)" /><path d="M 68 88 Q 69 89 70 90 Q 74 94 78 99 Q 81 102 79 109 Q 77 126 75 200 Q 75 212 71 223 Q 68 230 63 226 Q 62 225 62 224 Q 52 212 56 199 Q 65 169 65 139 Q 65 134 65 130 Q 65 106 60 97" fill="#0000ff" clip-path="url(#clip-mask-2)" /><path d="M 147 77 L 116 86 Q 106 88 98 81 Q 94 76 99 76 Q 201 60 230 54 Q 239 52 253 61 Q 257 65 256 68 Q 255 70 250 71 Q 218 71 202 72 L 187 73" fill="#000080" clip-path="url(#clip-mask-3)" /><path d="M 125 163 L 124 166 Q 123 170 118 163 Q 114 159 113 152 Q 109 128 103 114 Q 100 109 102 108 Q 103 106 107 107 Q 113 108 116 110 L 121 117 Q 121 124 125 150 L 125 159" fill="#000080" clip-path="url(#clip-mask-4)" /><path d="M 151 113 Q 150 111 143 112 Q 124 116 121 117 L 116 110 Q 127 108 143 102 Q 153 95 159 99 Q 166 103 171 106" fill="#000080" clip-path="url(#clip-mask-5)" /><path d="M 145 145 Q 148 134 150 125 Q 153 115 151 113 L 171 106 Q 178 111 171 117 Q 165 124 159 145" fill="#000080" clip-path="url(#clip-mask-6)" /><path d="M 125 150 Q 134 147 145 145 L 159 145 Q 166 149 166 152 Q 165 154 163 154 Q 135 156 125 159" fill="#000080" clip-path="url(#clip-mask-7)" /><path d="M 202 72 Q 209 76 212 79 Q 213 82 212 91 Q 209 130 212 208 Q 214 230 201 247 Q 197 252 193 249 L 190 219 Q 193 215 194 206 Q 194 130 193 97 Q 193 85 190 78 Q 188 75 187 73" fill="#000080" clip-path="url(#clip-mask-8)" /><path d="M 193 249 Q 182 237 165 221 Q 162 218 162 216 Q 162 214 165 215 Q 187 220 190 219" fill="#000080" clip-path="url(#clip-mask-9)" /><rect x="12" y="17" width="93" height="123" id="rect-1" fill="transparent" stroke="#000000"><animate attributeName="y" from="-106" to="17" dur="0.456" begin="0; animate9.end + 1s" id="animate1" fill="freeze"/></rect><rect x="52" y="88" width="29" height="142" id="rect-2" fill="transparent" stroke="#000000"><set attributeName="y" to="-54" begin="0; animate9.end + 1s" /><animate attributeName="y" from="-54" to="88" dur="0.526" begin="animate1.end + 0.5" id="animate2" fill="freeze"/></rect><rect x="94" y="52" width="163" height="36" id="rect-3" fill="transparent" stroke="#000000"><set attributeName="x" to="-69" begin="0; animate9.end + 1s" /><animate attributeName="x" from="-69" to="94" dur="0.604" begin="animate2.end + 0.5" id="animate3" fill="freeze"/></rect><rect x="100" y="106" width="25" height="64" id="rect-4" fill="transparent" stroke="#000000"><set attributeName="y" to="42" begin="0; animate9.end + 1s" /><animate attributeName="y" from="42" to="106" dur="0.237" begin="animate3.end + 0.5" id="animate4" fill="freeze"/></rect><rect x="116" y="95" width="55" height="22" id="rect-5" fill="transparent" stroke="#000000"><set attributeName="x" to="61" begin="0; animate9.end + 1s" /><animate attributeName="x" from="61" to="116" dur="0.204" begin="animate4.end + 0.5" id="animate5" fill="freeze"/></rect><rect x="145" y="106" width="33" height="39" id="rect-6" fill="transparent" stroke="#000000"><set attributeName="y" to="67" begin="0; animate9.end + 1s" /><animate attributeName="y" from="67" to="106" dur="0.144" begin="animate5.end" id="animate6" fill="freeze"/></rect><rect x="125" y="145" width="41" height="14" id="rect-7" fill="transparent" stroke="#000000"><set attributeName="x" to="84" begin="0; animate9.end + 1s" /><animate attributeName="x" from="84" to="125" dur="0.152" begin="animate6.end + 0.5" id="animate7" fill="freeze"/></rect><rect x="187" y="72" width="27" height="180" id="rect-8" fill="transparent" stroke="#000000"><set attributeName="y" to="-108" begin="0; animate9.end + 1s" /><animate attributeName="y" from="-108" to="72" dur="0.667" begin="animate7.end + 0.5" id="animate8" fill="freeze"/></rect><rect x="162" y="214" width="31" height="35" id="rect-9" fill="transparent" stroke="#000000"><set attributeName="x" to="193" begin="0; animate9.end + 1s" /><animate attributeName="x" from="193" to="162" dur="0.115" begin="animate8.end" id="animate9" fill="freeze"/></rect></svg>