<svg xmlns="http://www.w3.org/2000/svg" xmlns:xlink="http://www.w3.org/1999/xlink" width="270" height="270"><defs><clipPath id="clip-mask-1"><use xlink:href="#rect-1" /></clipPath><clipPath id="clip-mask-2"><use xlink:href="#rect-2" /></clipPath><clipPath id="clip-mask-3"><use xlink:href="#rect-3" /></clipPath><clipPath id="clip-mask-4"><use xlink:href="#rect-4" /></clipPath><clipPath id="clip-mask-5"><use xlink:href="#rect-5" /></clipPath><clipPath id="clip-mask-6"><use xlink:href="#rect-6" /></clipPath><clipPath id="clip-mask-7"><use xlink:href="#rect-7" /></clipPath><clipPath id="clip-mask-8"><use xlink:href="#rect-8" /></clipPath></defs><path d="M 0 0 L 270 270 M 270 0 L 0 270 M 135 0 L 135 270 M 0 135 L 270 135" stroke="#CCCCCC" /><path d="M 89 105 L 58 126 Q 57 127 56 127 Q 29 145 19 146 Q 16 145 19 144 Q 54 116 68 102 Q 69 100 72 98 Q 118 46 115 19 Q 115 14 117 14 Q 127 13 137 22 Q 140 26 140 29 Q 141 32 139 33 Q 133 39 130 44 L 126 50" fill="#CCCCCC"/><path d="M 130 44 Q 131 45 132 46 Q 178 88 216 103 Q 234 110 249 116 Q 253 118 253 120 Q 252 121 247 122 Q 220 126 202 123 Q 187 120 126 50" fill="#CCCCCC"/><path d="M 115 125 Q 113 125 111 125 Q 96 128 86 122 Q 80 118 89 116 Q 97 116 121 112 Q 149 105 154 106 Q 162 108 163 111 Q 164 113 162 115 Q 161 116 151 118 Q 138 120 126 123" fill="#CCCCCC"/><path d="M 118 160 L 117 160 Q 92 163 70 168 Q 66 170 61 168 Q 57 167 53 163 Q 50 159 55 159 Q 90 154 119 151 L 135 149 Q 156 145 171 142 Q 188 139 201 149 Q 205 153 204 155 Q 203 157 198 157 Q 149 158 135 159 L 120 160" fill="#CCCCCC"/><path d="M 119 151 Q 119 148 119 145 Q 119 135 117 128 Q 115 126 115 125 L 126 123 Q 133 127 136 130 Q 136 131 135 149 L 135 159 Q 134 179 136 213 Q 136 239 127 252 Q 123 256 120 254 L 118 228 Q 120 224 120 216 Q 120 181 120 160" fill="#CCCCCC"/><path d="M 120 254 Q 110 242 93 228 Q 90 225 90 223 Q 90 222 93 223 Q 102 225 108 227 Q 115 229 118 228" fill="#CCCCCC"/><path d="M 72 180 L 74 180 Q 76 180 77 183 Q 78 190 75 199 Q 70 220 55 228 Q 48 231 47 225 Q 43 214 51 207 Q 61 195 70 182" fill="#CCCCCC"/><path d="M 155 186 L 155 182 Q 156 178 159 179 Q 205 197 208 212 Q 212 225 208 230 Q 206 232 204 232 Q 199 231 194 225 Q 175 204 158 189" fill="#CCCCCC"/><path d="M 89 105 L 58 126 Q 57 127 56 127 Q 29 145 19 146 Q 16 145 19 144 Q 54 116 68 102 Q 69 100 72 98 Q 118 46 115 19 Q 115 14 117 14 Q 127 13 137 22 Q 140 26 140 29 Q 141 32 139 33 Q 133 39 130 44 L 126 50" fill="#0000ff" clip-path="url(#clip-mask-1)" /><path d="M 130 44 Q 131 45 132 46 Q 178 88 216 103 Q 234 110 249 116 Q 253 118 253 120 Q 252 121 247 122 Q 220 126 202 123 Q 187 120 126 50" fill="#0000ff" clip-path="url(#clip-mask-2)" /><path d="M 115 125 Q 113 125 111 125 Q 96 128 86 122 Q 80 118 89 116 Q 97 116 121 112 Q 149 105 154 106 Q 162 108 163 111 Q 164 113 162 115 Q 161 116 151 118 Q 138 120 126 123" fill="#000080" clip-path="url(#clip-mask-3)" /><path d="M 118 160 L 117 160 Q 92 163 70 168 Q 66 170 61 168 Q 57 167 53 163 Q 50 159 55 159 Q 90 154 119 151 L 135 149 Q 156 145 171 142 Q 188 139 201 149 Q 205 153 204 155 Q 203 157 198 157 Q 149 158 135 159 L 120 160" fill="#000080" clip-path="url(#clip-mask-4)" /><path d="M 119 151 Q 119 148 119 145 Q 119 135 117 128 Q 115 126 115 125 L 126 123 Q 133 127 136 130 Q 136 131 135 149 L 135 159 Q 134 179 136 213 Q 136 239 127 252 Q 123 256 120 254 L 118 228 Q 120 224 120 216 Q 120 181 120 160" fill="#000080" clip-path="url(#clip-mask-5)" /><path d="M 120 254 Q 110 242 93 228 Q 90 225 90 223 Q 90 222 93 223 Q 102 225 108 227 Q 115 229 118 228" fill="#000080" clip-path="url(#clip-mask-6)" /><path d="M 72 180 L 74 180 Q 76 180 77 183 Q 78 190 75 199 Q 70 220 55 228 Q 48 231 47 225 Q 43 214 51 207 Q 61 195 70 182" fill="#000080" clip-path="url(#clip-mask-7)" /><path d="M 155 186 L 155 182 Q 156 178 159 179 Q 205 197 208 212 Q 212 225 208 230 Q 206 232 204 232 Q 199 231 194 225 Q 175 204 158 189" fill="#000080" clip-path="url(#clip-mask-8)" /><rect x="16" y="13" width="125" height="133" id="rect-1" fill="transparent" stroke="#000000"><animate attributeName="y" from="-120" to="13" dur="0.493" begin="0; animate8.end + 1s" id="animate1" fill="freeze"/></rect><rect x="126" y="44" width="127" height="82" id="rect-2" fill="transparent" stroke="#000000"><set attributeName="x" to="-1" begin="0; animate8.end + 1s" /><animate attributeName="x" from="-1" to="126" dur="0.470" begin="animate1.end + 0.5" id="animate2" fill="freeze"/></rect><rect x="80" y="105" width="84" height="23" id="rect-3" fill="transparent" stroke="#000000"><set attributeName="x" to="-4" begin="0; animate8.end + 1s" /><animate attributeName="x" from="-4" to="80" dur="0.311" begin="animate2.end + 0.5" id="animate3" fill="freeze"/></rect><rect x="50" y="139" width="155" height="31" id="rect-4" fill="transparent" stroke="#000000"><set attributeName="x" to="-105" begin="0; animate8.end + 1s" /><animate attributeName="x" from="-105" to="50" dur="0.574" begin="animate3.end + 0.5" id="animate4" fill="freeze"/></rect><rect x="115" y="123" width="21" height="133" id="rect-5" fill="transparent" stroke="#000000"><set attributeName="y" to="-10" begin="0; animate8.end + 1s" /><animate attributeName="y" from="-10" to="123" dur="0.493" begin="animate4.end + 0.5" id="animate5" fill="freeze"/></rect><rect x="90" y="222" width="30" height="32" id="rect-6" fill="transparent" stroke="#000000"><set attributeName="x" to="120" begin="0; animate8.end + 1s" /><animate attributeName="x" from="120" to="90" dur="0.111" begin="animate5.end" id="animate6" fill="freeze"/></rect><rect x="43" y="180" width="35" height="51" id="rect-7" fill="transparent" stroke="#000000"><set attributeName="y" to="129" begin="0; animate8.end + 1s" /><animate attributeName="y" from="129" to="180" dur="0.189" begin="animate6.end + 0.5" id="animate7" fill="freeze"/></rect><rect x="155" y="178" width="57" height="54" id="rect-8" fill="transparent" stroke="#000000"><set attributeName="x" to="98" begin="0; animate8.end + 1s" /><animate attributeName="x" from="98" to="155" dur="0.211" begin="animate7.end + 0.5" id="animate8" fill="freeze"/></rect></svg>