<svg xmlns="http://www.w3.org/2000/svg" xmlns:xlink="http://www.w3.org/1999/xlink" width="270" height="270"><defs><clipPath id="clip-mask-1"><use xlink:href="#rect-1" /></clipPath><clipPath id="clip-mask-2"><use xlink:href="#rect-2" /></clipPath><clipPath id="clip-mask-3"><use xlink:href="#rect-3" /></clipPath><clipPath id="clip-mask-4"><use xlink:href="#rect-4" /></clipPath><clipPath id="clip-mask-5"><use xlink:href="#rect-5" /></clipPath><clipPath id="clip-mask-6"><use xlink:href="#rect-6" /></clipPath><clipPath id="clip-mask-7"><use xlink:href="#rect-7" /></clipPath><clipPath id="clip-mask-8"><use xlink:href="#rect-8" /></clipPath><clipPath id="clip-mask-9"><use xlink:href="#rect-9" /></clipPath><clipPath id="clip-mask-10"><use xlink:href="#rect-10" /></clipPath><clipPath id="clip-mask-11"><use xlink:href="#rect-11" /></clipPath></defs><path d="M 0 0 L 270 270 M 270 0 L 0 270 M 135 0 L 135 270 M 0 135 L 270 135" stroke="#CCCCCC" /><path d="M 67 113 L 64 118 Q 39 154 28 157 Q 24 158 25 155 Q 26 153 28 150 Q 48 124 61 100 Q 75 76 84 50 Q 86 42 82 34 Q 79 28 84 27 Q 90 26 98 31 Q 106 37 108 41 Q 110 44 107 48 Q 101 54 95 68 Q 85 85 77 98 L 71 108" fill="#CCCCCC"/><path d="M 77 98 Q 78 98 88 109 Q 90 112 89 119 Q 86 136 88 213 Q 88 225 84 236 Q 81 243 76 238 Q 76 238 75 238 Q 66 224 69 213 Q 77 181 77 150 Q 78 115 71 108" fill="#CCCCCC"/><path d="M 152 113 Q 152 116 151 117 Q 150 122 145 116 Q 141 111 140 104 Q 135 79 127 64 Q 124 60 126 59 Q 127 57 130 58 Q 136 59 139 60 L 145 69 Q 147 88 151 105" fill="#CCCCCC"/><path d="M 203 62 Q 200 60 195 61 Q 148 68 145 69 L 139 60 Q 177 56 200 47 Q 206 45 211 48 Q 226 56 231 60" fill="#CCCCCC"/><path d="M 196 96 Q 200 85 204 71 Q 205 65 203 62 L 231 60 Q 235 66 230 71 Q 220 77 212 97" fill="#CCCCCC"/><path d="M 159 113 Q 158 113 157 113 Q 154 114 152 113 L 151 105 Q 171 102 196 96 L 212 97 Q 219 101 219 104 Q 218 106 216 106 Q 187 108 170 111" fill="#CCCCCC"/><path d="M 152 154 Q 153 150 154 147 Q 159 132 160 121 Q 161 116 159 113 L 170 111 Q 177 115 179 119 Q 181 121 178 125 Q 177 125 164 147 Q 163 150 161 153" fill="#CCCCCC"/><path d="M 147 223 L 146 228 Q 145 232 140 226 Q 135 220 134 210 Q 129 179 120 159 Q 118 154 120 153 Q 121 151 124 152 Q 133 153 136 155 L 139 167 Q 140 178 146 210 L 148 217" fill="#CCCCCC"/><path d="M 210 160 Q 207 157 200 158 Q 174 162 146 166 Q 143 167 139 167 L 136 155 Q 144 154 152 154 L 161 153 Q 193 146 208 141 Q 214 139 219 142 Q 236 150 240 155" fill="#CCCCCC"/><path d="M 201 202 Q 206 188 211 170 Q 212 163 210 160 L 240 155 Q 245 161 239 166 Q 228 174 218 201" fill="#CCCCCC"/><path d="M 146 210 Q 170 207 201 202 L 218 201 Q 226 207 226 209 Q 225 212 222 212 Q 174 213 151 217 Q 149 217 148 217" fill="#CCCCCC"/><path d="M 67 113 L 64 118 Q 39 154 28 157 Q 24 158 25 155 Q 26 153 28 150 Q 48 124 61 100 Q 75 76 84 50 Q 86 42 82 34 Q 79 28 84 27 Q 90 26 98 31 Q 106 37 108 41 Q 110 44 107 48 Q 101 54 95 68 Q 85 85 77 98 L 71 108" fill="#0000ff" clip-path="url(#clip-mask-1)" /><path d="M 77 98 Q 78 98 88 109 Q 90 112 89 119 Q 86 136 88 213 Q 88 225 84 236 Q 81 243 76 238 Q 76 238 75 238 Q 66 224 69 213 Q 77 181 77 150 Q 78 115 71 108" fill="#0000ff" clip-path="url(#clip-mask-2)" /><path d="M 152 113 Q 152 116 151 117 Q 150 122 145 116 Q 141 111 140 104 Q 135 79 127 64 Q 124 60 126 59 Q 127 57 130 58 Q 136 59 139 60 L 145 69 Q 147 88 151 105" fill="#000080" clip-path="url(#clip-mask-3)" /><path d="M 203 62 Q 200 60 195 61 Q 148 68 145 69 L 139 60 Q 177 56 200 47 Q 206 45 211 48 Q 226 56 231 60" fill="#000080" clip-path="url(#clip-mask-4)" /><path d="M 196 96 Q 200 85 204 71 Q 205 65 203 62 L 231 60 Q 235 66 230 71 Q 220 77 212 97" fill="#000080" clip-path="url(#clip-mask-5)" /><path d="M 159 113 Q 158 113 157 113 Q 154 114 152 113 L 151 105 Q 171 102 196 96 L 212 97 Q 219 101 219 104 Q 218 106 216 106 Q 187 108 170 111" fill="#000080" clip-path="url(#clip-mask-6)" /><path d="M 152 154 Q 153 150 154 147 Q 159 132 160 121 Q 161 116 159 113 L 170 111 Q 177 115 179 119 Q 181 121 178 125 Q 177 125 164 147 Q 163 150 161 153" fill="#000080" clip-path="url(#clip-mask-7)" /><path d="M 147 223 L 146 228 Q 145 232 140 226 Q 135 220 134 210 Q 129 179 120 159 Q 118 154 120 153 Q 121 151 124 152 Q 133 153 136 155 L 139 167 Q 140 178 146 210 L 148 217" fill="#000080" clip-path="url(#clip-mask-8)" /><path d="M 210 160 Q 207 157 200 158 Q 174 162 146 166 Q 143 167 139 167 L 136 155 Q 144 154 152 154 L 161 153 Q 193 146 208 141 Q 214 139 219 142 Q 236 150 240 155" fill="#000080" clip-path="url(#clip-mask-9)" /><path d="M 201 202 Q 206 188 211 170 Q 212 163 210 160 L 240 155 Q 245 161 239 166 Q 228 174 218 201" fill="#000080" clip-path="url(#clip-mask-10)" /><path d="M 146 210 Q 170 207 201 202 L 218 201 Q 226 207 226 209 Q 225 212 222 212 Q 174 213 151 217 Q 149 217 148 217" fill="#000080" clip-path="url(#clip-mask-11)" /><rect x="24" y="26" width="86" height="132" id="rect-1" fill="transparent" stroke="#000000"><animate attributeName="y" from="-106" to="26" dur="0.489" begin="0; animate11.end + 1s" id="animate1" fill="freeze"/></rect><rect x="66" y="98" width="24" height="145" id="rect-2" fill="transparent" stroke="#000000"><set attributeName="y" to="-47" begin="0; animate11.end + 1s" /><animate attributeName="y" from="-47" to="98" dur="0.537" begin="animate1.end + 0.5" id="animate2" fill="freeze"/></rect><rect x="124" y="57" width="28" height="65" id="rect-3" fill="transparent" stroke="#000000"><set attributeName="y" to="-8" begin="0; animate11.end + 1s" /><animate attributeName="y" from="-8" to="57" dur="0.241" begin="animate2.end + 0.5" id="animate3" fill="freeze"/></rect><rect x="139" y="45" width="92" height="24" id="rect-4" fill="transparent" stroke="#000000"><set attributeName="x" to="47" begin="0; animate11.end + 1s" /><animate attributeName="x" from="47" to="139" dur="0.341" begin="animate3.end + 0.5" id="animate4" fill="freeze"/></rect><rect x="196" y="60" width="39" height="37" id="rect-5" fill="transparent" stroke="#000000"><set attributeName="y" to="23" begin="0; animate11.end + 1s" /><animate attributeName="y" from="23" to="60" dur="0.137" begin="animate4.end" id="animate5" fill="freeze"/></rect><rect x="151" y="96" width="68" height="18" id="rect-6" fill="transparent" stroke="#000000"><set attributeName="x" to="83" begin="0; animate11.end + 1s" /><animate attributeName="x" from="83" to="151" dur="0.252" begin="animate5.end + 0.5" id="animate6" fill="freeze"/></rect><rect x="152" y="111" width="29" height="43" id="rect-7" fill="transparent" stroke="#000000"><set attributeName="y" to="68" begin="0; animate11.end + 1s" /><animate attributeName="y" from="68" to="111" dur="0.159" begin="animate6.end + 0.5" id="animate7" fill="freeze"/></rect><rect x="118" y="151" width="30" height="81" id="rect-8" fill="transparent" stroke="#000000"><set attributeName="y" to="70" begin="0; animate11.end + 1s" /><animate attributeName="y" from="70" to="151" dur="0.300" begin="animate7.end + 0.5" id="animate8" fill="freeze"/></rect><rect x="136" y="139" width="104" height="28" id="rect-9" fill="transparent" stroke="#000000"><set attributeName="x" to="32" begin="0; animate11.end + 1s" /><animate attributeName="x" from="32" to="136" dur="0.385" begin="animate8.end + 0.5" id="animate9" fill="freeze"/></rect><rect x="201" y="155" width="44" height="47" id="rect-10" fill="transparent" stroke="#000000"><set attributeName="y" to="108" begin="0; animate11.end + 1s" /><animate attributeName="y" from="108" to="155" dur="0.174" begin="animate9.end" id="animate10" fill="freeze"/></rect><rect x="146" y="201" width="80" height="16" id="rect-11" fill="transparent" stroke="#000000"><set attributeName="x" to="66" begin="0; animate11.end + 1s" /><animate attributeName="x" from="66" to="146" dur="0.296" begin="animate10.end + 0.5" id="animate11" fill="freeze"/></rect></svg>