<svg xmlns="http://www.w3.org/2000/svg" xmlns:xlink="http://www.w3.org/1999/xlink" width="270" height="270"><defs><clipPath id="clip-mask-1"><use xlink:href="#rect-1" /></clipPath><clipPath id="clip-mask-2"><use xlink:href="#rect-2" /></clipPath><clipPath id="clip-mask-3"><use xlink:href="#rect-3" /></clipPath><clipPath id="clip-mask-4"><use xlink:href="#rect-4" /></clipPath><clipPath id="clip-mask-5"><use xlink:href="#rect-5" /></clipPath><clipPath id="clip-mask-6"><use xlink:href="#rect-6" /></clipPath><clipPath id="clip-mask-7"><use xlink:href="#rect-7" /></clipPath><clipPath id="clip-mask-8"><use xlink:href="#rect-8" /></clipPath><clipPath id="clip-mask-9"><use xlink:href="#rect-9" /></clipPath><clipPath id="clip-mask-10"><use xlink:href="#rect-10" /></clipPath></defs><path d="M 0 0 L 270 270 M 270 0 L 0 270 M 135 0 L 135 270 M 0 135 L 270 135" stroke="#CCCCCC" /><path d="M 26 136 L 17 138 Q 13 139 14 136 Q 15 134 17 132 Q 52 84 66 46 Q 68 40 64 32 Q 62 26 67 26 Q 72 25 80 30 Q 88 36 89 39 Q 90 43 88 46 Q 82 52 76 63 Q 66 82 56 96 L 48 106" fill="#CCCCCC"/><path d="M 56 96 Q 56 96 66 107 Q 69 110 67 117 Q 65 133 64 203 Q 64 215 60 225 Q 57 232 52 228 Q 52 227 52 227 Q 43 214 45 202 Q 53 173 53 145 Q 53 139 54 135 Q 53 117 48 106" fill="#CCCCCC"/><path d="M 81 94 L 83 93 Q 85 92 88 93 Q 91 95 95 98 Q 100 100 98 105 Q 96 117 96 147 Q 96 170 92 178 Q 89 180 88 178 Q 80 169 83 161 Q 89 117 82 98" fill="#CCCCCC"/><path d="M 127 73 Q 113 84 110 84 Q 107 86 108 82 Q 115 71 118 70 Q 143 39 138 17 Q 137 14 140 13 Q 147 12 158 20 Q 162 23 159 27 Q 154 35 147 46 Q 147 47 147 47 L 143 53 Q 137 61 130 69" fill="#CCCCCC"/><path d="M 175 53 Q 171 53 168 54 Q 155 56 143 53 L 147 47 Q 159 46 169 43 Q 179 41 189 38 Q 196 35 203 36 Q 210 38 212 41 Q 213 43 211 45 Q 210 45 183 52" fill="#CCCCCC"/><path d="M 157 105 L 151 110 Q 121 134 106 134 Q 104 133 106 132 Q 138 110 154 93 L 159 86 Q 159 86 159 86 Q 175 67 175 53 L 183 52 Q 183 52 184 52 Q 193 56 194 63 Q 194 64 168 93 L 162 100" fill="#CCCCCC"/><path d="M 154 93 Q 135 76 130 75 Q 129 74 127 73 L 130 69 Q 138 69 143 74 Q 152 81 159 86 L 168 93 Q 197 113 217 115 Q 249 120 253 121 Q 256 123 254 125 Q 251 127 248 128 Q 233 132 219 137 Q 202 138 165 103 Q 163 101 162 100" fill="#CCCCCC"/><path d="M 152 120 L 154 120 Q 157 119 163 122 Q 169 123 170 127 Q 170 129 168 132 Q 165 134 159 140 Q 137 161 120 164 Q 114 164 119 161 Q 150 136 152 123" fill="#CCCCCC"/><path d="M 164 146 L 166 146 Q 168 145 175 148 Q 181 149 181 153 Q 182 155 180 157 Q 168 169 167 171 Q 137 203 118 205 Q 112 206 116 202 Q 160 167 163 149" fill="#CCCCCC"/><path d="M 179 171 L 181 171 Q 190 171 198 181 Q 201 185 201 187 Q 201 190 198 191 Q 196 193 194 195 Q 172 218 160 229 Q 159 230 158 231 Q 123 257 103 257 Q 100 256 103 255 Q 129 238 140 229 Q 140 229 141 228 Q 180 194 179 175" fill="#CCCCCC"/><path d="M 26 136 L 17 138 Q 13 139 14 136 Q 15 134 17 132 Q 52 84 66 46 Q 68 40 64 32 Q 62 26 67 26 Q 72 25 80 30 Q 88 36 89 39 Q 90 43 88 46 Q 82 52 76 63 Q 66 82 56 96 L 48 106" fill="#0000ff" clip-path="url(#clip-mask-1)" /><path d="M 56 96 Q 56 96 66 107 Q 69 110 67 117 Q 65 133 64 203 Q 64 215 60 225 Q 57 232 52 228 Q 52 227 52 227 Q 43 214 45 202 Q 53 173 53 145 Q 53 139 54 135 Q 53 117 48 106" fill="#0000ff" clip-path="url(#clip-mask-2)" /><path d="M 81 94 L 83 93 Q 85 92 88 93 Q 91 95 95 98 Q 100 100 98 105 Q 96 117 96 147 Q 96 170 92 178 Q 89 180 88 178 Q 80 169 83 161 Q 89 117 82 98" fill="#000080" clip-path="url(#clip-mask-3)" /><path d="M 127 73 Q 113 84 110 84 Q 107 86 108 82 Q 115 71 118 70 Q 143 39 138 17 Q 137 14 140 13 Q 147 12 158 20 Q 162 23 159 27 Q 154 35 147 46 Q 147 47 147 47 L 143 53 Q 137 61 130 69" fill="#000080" clip-path="url(#clip-mask-4)" /><path d="M 175 53 Q 171 53 168 54 Q 155 56 143 53 L 147 47 Q 159 46 169 43 Q 179 41 189 38 Q 196 35 203 36 Q 210 38 212 41 Q 213 43 211 45 Q 210 45 183 52" fill="#000080" clip-path="url(#clip-mask-5)" /><path d="M 157 105 L 151 110 Q 121 134 106 134 Q 104 133 106 132 Q 138 110 154 93 L 159 86 Q 159 86 159 86 Q 175 67 175 53 L 183 52 Q 183 52 184 52 Q 193 56 194 63 Q 194 64 168 93 L 162 100" fill="#000080" clip-path="url(#clip-mask-6)" /><path d="M 154 93 Q 135 76 130 75 Q 129 74 127 73 L 130 69 Q 138 69 143 74 Q 152 81 159 86 L 168 93 Q 197 113 217 115 Q 249 120 253 121 Q 256 123 254 125 Q 251 127 248 128 Q 233 132 219 137 Q 202 138 165 103 Q 163 101 162 100" fill="#000080" clip-path="url(#clip-mask-7)" /><path d="M 152 120 L 154 120 Q 157 119 163 122 Q 169 123 170 127 Q 170 129 168 132 Q 165 134 159 140 Q 137 161 120 164 Q 114 164 119 161 Q 150 136 152 123" fill="#000080" clip-path="url(#clip-mask-8)" /><path d="M 164 146 L 166 146 Q 168 145 175 148 Q 181 149 181 153 Q 182 155 180 157 Q 168 169 167 171 Q 137 203 118 205 Q 112 206 116 202 Q 160 167 163 149" fill="#000080" clip-path="url(#clip-mask-9)" /><path d="M 179 171 L 181 171 Q 190 171 198 181 Q 201 185 201 187 Q 201 190 198 191 Q 196 193 194 195 Q 172 218 160 229 Q 159 230 158 231 Q 123 257 103 257 Q 100 256 103 255 Q 129 238 140 229 Q 140 229 141 228 Q 180 194 179 175" fill="#000080" clip-path="url(#clip-mask-10)" /><rect x="13" y="25" width="77" height="114" id="rect-1" fill="transparent" stroke="#000000"><animate attributeName="y" from="-89" to="25" dur="0.422" begin="0; animate10.end + 1s" id="animate1" fill="freeze"/></rect><rect x="43" y="96" width="26" height="136" id="rect-2" fill="transparent" stroke="#000000"><set attributeName="y" to="-40" begin="0; animate10.end + 1s" /><animate attributeName="y" from="-40" to="96" dur="0.504" begin="animate1.end + 0.5" id="animate2" fill="freeze"/></rect><rect x="80" y="92" width="20" height="88" id="rect-3" fill="transparent" stroke="#000000"><set attributeName="y" to="4" begin="0; animate10.end + 1s" /><animate attributeName="y" from="4" to="92" dur="0.326" begin="animate2.end + 0.5" id="animate3" fill="freeze"/></rect><rect x="107" y="12" width="55" height="74" id="rect-4" fill="transparent" stroke="#000000"><set attributeName="y" to="-62" begin="0; animate10.end + 1s" /><animate attributeName="y" from="-62" to="12" dur="0.274" begin="animate3.end + 0.5" id="animate4" fill="freeze"/></rect><rect x="143" y="35" width="70" height="21" id="rect-5" fill="transparent" stroke="#000000"><set attributeName="x" to="73" begin="0; animate10.end + 1s" /><animate attributeName="x" from="73" to="143" dur="0.259" begin="animate4.end + 0.5" id="animate5" fill="freeze"/></rect><rect x="104" y="52" width="90" height="82" id="rect-6" fill="transparent" stroke="#000000"><set attributeName="y" to="-30" begin="0; animate10.end + 1s" /><animate attributeName="y" from="-30" to="52" dur="0.304" begin="animate5.end + 0.5" id="animate6" fill="freeze"/></rect><rect x="127" y="69" width="129" height="69" id="rect-7" fill="transparent" stroke="#000000"><set attributeName="x" to="-2" begin="0; animate10.end + 1s" /><animate attributeName="x" from="-2" to="127" dur="0.478" begin="animate6.end + 0.5" id="animate7" fill="freeze"/></rect><rect x="114" y="119" width="56" height="45" id="rect-8" fill="transparent" stroke="#000000"><set attributeName="y" to="74" begin="0; animate10.end + 1s" /><animate attributeName="y" from="74" to="119" dur="0.167" begin="animate7.end + 0.5" id="animate8" fill="freeze"/></rect><rect x="112" y="145" width="70" height="61" id="rect-9" fill="transparent" stroke="#000000"><set attributeName="y" to="84" begin="0; animate10.end + 1s" /><animate attributeName="y" from="84" to="145" dur="0.226" begin="animate8.end + 0.5" id="animate9" fill="freeze"/></rect><rect x="100" y="171" width="101" height="86" id="rect-10" fill="transparent" stroke="#000000"><set attributeName="y" to="85" begin="0; animate10.end + 1s" /><animate attributeName="y" from="85" to="171" dur="0.319" begin="animate9.end + 0.5" id="animate10" fill="freeze"/></rect></svg>