<svg xmlns="http://www.w3.org/2000/svg" xmlns:xlink="http://www.w3.org/1999/xlink" width="270" height="270"><defs><clipPath id="clip-mask-1"><use xlink:href="#rect-1" /></clipPath><clipPath id="clip-mask-2"><use xlink:href="#rect-2" /></clipPath><clipPath id="clip-mask-3"><use xlink:href="#rect-3" /></clipPath><clipPath id="clip-mask-4"><use xlink:href="#rect-4" /></clipPath><clipPath id="clip-mask-5"><use xlink:href="#rect-5" /></clipPath><clipPath id="clip-mask-6"><use xlink:href="#rect-6" /></clipPath><clipPath id="clip-mask-7"><use xlink:href="#rect-7" /></clipPath><clipPath id="clip-mask-8"><use xlink:href="#rect-8" /></clipPath><clipPath id="clip-mask-9"><use xlink:href="#rect-9" /></clipPath><clipPath id="clip-mask-10"><use xlink:href="#rect-10" /></clipPath><clipPath id="clip-mask-11"><use xlink:href="#rect-11" /></clipPath><clipPath id="clip-mask-12"><use xlink:href="#rect-12" /></clipPath><clipPath id="clip-mask-13"><use xlink:href="#rect-13" /></clipPath><clipPath id="clip-mask-14"><use xlink:href="#rect-14" /></clipPath><clipPath id="clip-mask-15"><use xlink:href="#rect-15" /></clipPath><clipPath id="clip-mask-16"><use xlink:href="#rect-16" /></clipPath><clipPath id="clip-mask-17"><use xlink:href="#rect-17" /></clipPath></defs><path d="M 0 0 L 270 270 M 270 0 L 0 270 M 135 0 L 135 270 M 0 135 L 270 135" stroke="#CCCCCC" /><path d="M 39 145 L 26 150 Q 22 151 23 148 Q 23 146 26 143 Q 43 119 56 97 Q 69 74 77 50 Q 79 42 75 34 Q 73 29 78 28 Q 83 28 91 32 Q 99 37 100 41 Q 102 44 99 48 Q 93 54 88 67 Q 79 83 71 96 L 63 107" fill="#CCCCCC"/><path d="M 71 96 Q 73 97 82 108 Q 85 111 83 118 Q 80 136 79 215 Q 79 228 75 239 Q 72 247 67 242 Q 66 241 65 240 Q 56 226 60 214 Q 64 198 66 182 Q 73 117 63 107" fill="#CCCCCC"/><path d="M 147 27 L 146 24 Q 146 21 147 20 Q 149 20 153 20 Q 173 23 176 30 Q 179 37 178 41 Q 177 44 174 44 Q 170 45 166 42 Q 160 36 155 32" fill="#CCCCCC"/><path d="M 177 59 Q 161 63 146 66 Q 133 69 123 63 Q 117 59 125 58 Q 140 57 160 52 Q 183 44 190 45 Q 197 47 199 50 Q 200 52 198 54 Q 191 56 185 58" fill="#CCCCCC"/><path d="M 126 73 L 127 71 Q 127 68 128 68 Q 130 68 133 70 Q 144 76 145 84 Q 145 88 143 89 Q 141 91 138 90 Q 133 86 129 76" fill="#CCCCCC"/><path d="M 169 86 L 171 83 Q 178 66 177 59 L 185 58 Q 191 63 193 66 Q 194 69 191 71 Q 187 75 177 87 L 168 89" fill="#CCCCCC"/><path d="M 177 87 Q 199 82 215 78 Q 230 73 243 83 Q 247 86 246 88 Q 245 90 240 91 Q 240 91 240 91 Q 170 91 114 109 Q 110 111 105 110 Q 101 109 98 105 Q 94 102 99 101 Q 168 89 168 89" fill="#CCCCCC"/><path d="M 138 170 L 138 171 Q 139 178 135 177 Q 125 172 124 157 Q 119 132 112 123 Q 110 121 111 119 Q 112 118 114 118 Q 118 119 122 121 L 131 128 Q 131 129 131 129 Q 131 135 132 142 L 133 148 Q 134 152 135 155 Q 136 158 137 162 L 138 169" fill="#CCCCCC"/><path d="M 122 121 Q 122 121 123 121 Q 133 119 147 116 Q 163 112 177 110 Q 194 106 198 108 Q 208 115 212 119 L 187 119 Q 185 117 179 118 Q 133 125 131 128" fill="#CCCCCC"/><path d="M 178 155 Q 180 156 181 157 Q 185 153 190 125 Q 190 120 187 119 L 212 119 Q 214 122 211 125 Q 205 131 203 139 Q 197 164 193 169 Q 190 174 187 172 Q 183 170 178 163" fill="#CCCCCC"/><path d="M 132 142 Q 159 133 166 134 Q 172 135 174 138 Q 177 141 171 142 Q 157 144 137 148 Q 134 148 133 148" fill="#CCCCCC"/><path d="M 137 162 Q 151 159 167 155 Q 174 153 178 155 L 178 163 Q 152 166 140 169 Q 139 169 138 169" fill="#CCCCCC"/><path d="M 106 187 L 108 187 Q 110 188 111 190 Q 112 195 112 203 Q 111 223 99 233 Q 94 236 92 232 Q 88 224 92 216 Q 100 204 105 190" fill="#CCCCCC"/><path d="M 125 195 L 127 195 Q 129 194 132 196 Q 135 197 137 203 Q 140 213 146 219 Q 160 232 195 231 L 230 226 Q 240 232 239 234 Q 239 238 233 240 Q 226 243 219 245 Q 173 249 149 234 Q 131 223 126 199" fill="#CCCCCC"/><path d="M 195 231 Q 208 231 206 222 Q 200 203 200 202 Q 201 200 205 204 Q 216 215 230 226" fill="#CCCCCC"/><path d="M 153 191 L 152 189 Q 151 185 152 185 Q 155 184 159 184 Q 173 187 174 187 Q 178 190 181 195 Q 182 199 181 203 Q 179 206 176 206 Q 166 203 157 194" fill="#CCCCCC"/><path d="M 205 180 L 204 178 Q 203 174 204 173 Q 208 170 228 175 Q 237 178 239 183 Q 243 190 242 194 Q 241 198 238 199 Q 234 200 230 197 Q 221 190 213 185" fill="#CCCCCC"/><path d="M 39 145 L 26 150 Q 22 151 23 148 Q 23 146 26 143 Q 43 119 56 97 Q 69 74 77 50 Q 79 42 75 34 Q 73 29 78 28 Q 83 28 91 32 Q 99 37 100 41 Q 102 44 99 48 Q 93 54 88 67 Q 79 83 71 96 L 63 107" fill="#0000ff" clip-path="url(#clip-mask-1)" /><path d="M 71 96 Q 73 97 82 108 Q 85 111 83 118 Q 80 136 79 215 Q 79 228 75 239 Q 72 247 67 242 Q 66 241 65 240 Q 56 226 60 214 Q 64 198 66 182 Q 73 117 63 107" fill="#0000ff" clip-path="url(#clip-mask-2)" /><path d="M 147 27 L 146 24 Q 146 21 147 20 Q 149 20 153 20 Q 173 23 176 30 Q 179 37 178 41 Q 177 44 174 44 Q 170 45 166 42 Q 160 36 155 32" fill="#000080" clip-path="url(#clip-mask-3)" /><path d="M 177 59 Q 161 63 146 66 Q 133 69 123 63 Q 117 59 125 58 Q 140 57 160 52 Q 183 44 190 45 Q 197 47 199 50 Q 200 52 198 54 Q 191 56 185 58" fill="#000080" clip-path="url(#clip-mask-4)" /><path d="M 126 73 L 127 71 Q 127 68 128 68 Q 130 68 133 70 Q 144 76 145 84 Q 145 88 143 89 Q 141 91 138 90 Q 133 86 129 76" fill="#000080" clip-path="url(#clip-mask-5)" /><path d="M 169 86 L 171 83 Q 178 66 177 59 L 185 58 Q 191 63 193 66 Q 194 69 191 71 Q 187 75 177 87 L 168 89" fill="#000080" clip-path="url(#clip-mask-6)" /><path d="M 177 87 Q 199 82 215 78 Q 230 73 243 83 Q 247 86 246 88 Q 245 90 240 91 Q 240 91 240 91 Q 170 91 114 109 Q 110 111 105 110 Q 101 109 98 105 Q 94 102 99 101 Q 168 89 168 89" fill="#000080" clip-path="url(#clip-mask-7)" /><path d="M 138 170 L 138 171 Q 139 178 135 177 Q 125 172 124 157 Q 119 132 112 123 Q 110 121 111 119 Q 112 118 114 118 Q 118 119 122 121 L 131 128 Q 131 129 131 129 Q 131 135 132 142 L 133 148 Q 134 152 135 155 Q 136 158 137 162 L 138 169" fill="#000080" clip-path="url(#clip-mask-8)" /><path d="M 122 121 Q 122 121 123 121 Q 133 119 147 116 Q 163 112 177 110 Q 194 106 198 108 Q 208 115 212 119 L 187 119 Q 185 117 179 118 Q 133 125 131 128" fill="#000080" clip-path="url(#clip-mask-9)" /><path d="M 178 155 Q 180 156 181 157 Q 185 153 190 125 Q 190 120 187 119 L 212 119 Q 214 122 211 125 Q 205 131 203 139 Q 197 164 193 169 Q 190 174 187 172 Q 183 170 178 163" fill="#000080" clip-path="url(#clip-mask-10)" /><path d="M 132 142 Q 159 133 166 134 Q 172 135 174 138 Q 177 141 171 142 Q 157 144 137 148 Q 134 148 133 148" fill="#000080" clip-path="url(#clip-mask-11)" /><path d="M 137 162 Q 151 159 167 155 Q 174 153 178 155 L 178 163 Q 152 166 140 169 Q 139 169 138 169" fill="#000080" clip-path="url(#clip-mask-12)" /><path d="M 106 187 L 108 187 Q 110 188 111 190 Q 112 195 112 203 Q 111 223 99 233 Q 94 236 92 232 Q 88 224 92 216 Q 100 204 105 190" fill="#000080" clip-path="url(#clip-mask-13)" /><path d="M 125 195 L 127 195 Q 129 194 132 196 Q 135 197 137 203 Q 140 213 146 219 Q 160 232 195 231 L 230 226 Q 240 232 239 234 Q 239 238 233 240 Q 226 243 219 245 Q 173 249 149 234 Q 131 223 126 199" fill="#000080" clip-path="url(#clip-mask-14)" /><path d="M 195 231 Q 208 231 206 222 Q 200 203 200 202 Q 201 200 205 204 Q 216 215 230 226" fill="#000080" clip-path="url(#clip-mask-15)" /><path d="M 153 191 L 152 189 Q 151 185 152 185 Q 155 184 159 184 Q 173 187 174 187 Q 178 190 181 195 Q 182 199 181 203 Q 179 206 176 206 Q 166 203 157 194" fill="#000080" clip-path="url(#clip-mask-16)" /><path d="M 205 180 L 204 178 Q 203 174 204 173 Q 208 170 228 175 Q 237 178 239 183 Q 243 190 242 194 Q 241 198 238 199 Q 234 200 230 197 Q 221 190 213 185" fill="#000080" clip-path="url(#clip-mask-17)" /><rect x="22" y="28" width="80" height="123" id="rect-1" fill="transparent" stroke="#000000"><animate attributeName="y" from="-95" to="28" dur="0.456" begin="0; animate17.end + 1s" id="animate1" fill="freeze"/></rect><rect x="56" y="96" width="29" height="151" id="rect-2" fill="transparent" stroke="#000000"><set attributeName="y" to="-55" begin="0; animate17.end + 1s" /><animate attributeName="y" from="-55" to="96" dur="0.559" begin="animate1.end + 0.5" id="animate2" fill="freeze"/></rect><rect x="146" y="20" width="33" height="25" id="rect-3" fill="transparent" stroke="#000000"><set attributeName="x" to="113" begin="0; animate17.end + 1s" /><animate attributeName="x" from="113" to="146" dur="0.122" begin="animate2.end + 0.5" id="animate3" fill="freeze"/></rect><rect x="117" y="44" width="83" height="25" id="rect-4" fill="transparent" stroke="#000000"><set attributeName="x" to="34" begin="0; animate17.end + 1s" /><animate attributeName="x" from="34" to="117" dur="0.307" begin="animate3.end + 0.5" id="animate4" fill="freeze"/></rect><rect x="126" y="68" width="19" height="23" id="rect-5" fill="transparent" stroke="#000000"><set attributeName="y" to="45" begin="0; animate17.end + 1s" /><animate attributeName="y" from="45" to="68" dur="0.085" begin="animate4.end + 0.5" id="animate5" fill="freeze"/></rect><rect x="168" y="58" width="26" height="31" id="rect-6" fill="transparent" stroke="#000000"><set attributeName="y" to="27" begin="0; animate17.end + 1s" /><animate attributeName="y" from="27" to="58" dur="0.115" begin="animate5.end + 0.5" id="animate6" fill="freeze"/></rect><rect x="94" y="73" width="153" height="38" id="rect-7" fill="transparent" stroke="#000000"><set attributeName="x" to="-59" begin="0; animate17.end + 1s" /><animate attributeName="x" from="-59" to="94" dur="0.567" begin="animate6.end + 0.5" id="animate7" fill="freeze"/></rect><rect x="110" y="118" width="29" height="60" id="rect-8" fill="transparent" stroke="#000000"><set attributeName="y" to="58" begin="0; animate17.end + 1s" /><animate attributeName="y" from="58" to="118" dur="0.222" begin="animate7.end + 0.5" id="animate8" fill="freeze"/></rect><rect x="122" y="106" width="90" height="22" id="rect-9" fill="transparent" stroke="#000000"><set attributeName="x" to="32" begin="0; animate17.end + 1s" /><animate attributeName="x" from="32" to="122" dur="0.333" begin="animate8.end + 0.5" id="animate9" fill="freeze"/></rect><rect x="178" y="119" width="36" height="55" id="rect-10" fill="transparent" stroke="#000000"><set attributeName="y" to="64" begin="0; animate17.end + 1s" /><animate attributeName="y" from="64" to="119" dur="0.204" begin="animate9.end" id="animate10" fill="freeze"/></rect><rect x="132" y="133" width="45" height="15" id="rect-11" fill="transparent" stroke="#000000"><set attributeName="x" to="87" begin="0; animate17.end + 1s" /><animate attributeName="x" from="87" to="132" dur="0.167" begin="animate10.end + 0.5" id="animate11" fill="freeze"/></rect><rect x="137" y="153" width="41" height="16" id="rect-12" fill="transparent" stroke="#000000"><set attributeName="x" to="96" begin="0; animate17.end + 1s" /><animate attributeName="x" from="96" to="137" dur="0.152" begin="animate11.end + 0.5" id="animate12" fill="freeze"/></rect><rect x="88" y="187" width="24" height="49" id="rect-13" fill="transparent" stroke="#000000"><set attributeName="y" to="138" begin="0; animate17.end + 1s" /><animate attributeName="y" from="138" to="187" dur="0.181" begin="animate12.end + 0.5" id="animate13" fill="freeze"/></rect><rect x="125" y="194" width="115" height="55" id="rect-14" fill="transparent" stroke="#000000"><set attributeName="x" to="10" begin="0; animate17.end + 1s" /><animate attributeName="x" from="10" to="125" dur="0.426" begin="animate13.end + 0.5" id="animate14" fill="freeze"/></rect><rect x="195" y="200" width="35" height="31" id="rect-15" fill="transparent" stroke="#000000"><set attributeName="y" to="231" begin="0; animate17.end + 1s" /><animate attributeName="y" from="231" to="200" dur="0.115" begin="animate14.end" id="animate15" fill="freeze"/></rect><rect x="151" y="184" width="31" height="22" id="rect-16" fill="transparent" stroke="#000000"><set attributeName="x" to="120" begin="0; animate17.end + 1s" /><animate attributeName="x" from="120" to="151" dur="0.115" begin="animate15.end + 0.5" id="animate16" fill="freeze"/></rect><rect x="203" y="170" width="40" height="30" id="rect-17" fill="transparent" stroke="#000000"><set attributeName="x" to="163" begin="0; animate17.end + 1s" /><animate attributeName="x" from="163" to="203" dur="0.148" begin="animate16.end + 0.5" id="animate17" fill="freeze"/></rect></svg>