<svg xmlns="http://www.w3.org/2000/svg" xmlns:xlink="http://www.w3.org/1999/xlink" width="270" height="270"><defs><clipPath id="clip-mask-1"><use xlink:href="#rect-1" /></clipPath><clipPath id="clip-mask-2"><use xlink:href="#rect-2" /></clipPath><clipPath id="clip-mask-3"><use xlink:href="#rect-3" /></clipPath><clipPath id="clip-mask-4"><use xlink:href="#rect-4" /></clipPath><clipPath id="clip-mask-5"><use xlink:href="#rect-5" /></clipPath><clipPath id="clip-mask-6"><use xlink:href="#rect-6" /></clipPath><clipPath id="clip-mask-7"><use xlink:href="#rect-7" /></clipPath><clipPath id="clip-mask-8"><use xlink:href="#rect-8" /></clipPath><clipPath id="clip-mask-9"><use xlink:href="#rect-9" /></clipPath><clipPath id="clip-mask-10"><use xlink:href="#rect-10" /></clipPath><clipPath id="clip-mask-11"><use xlink:href="#rect-11" /></clipPath><clipPath id="clip-mask-12"><use xlink:href="#rect-12" /></clipPath><clipPath id="clip-mask-13"><use xlink:href="#rect-13" /></clipPath><clipPath id="clip-mask-14"><use xlink:href="#rect-14" /></clipPath><clipPath id="clip-mask-15"><use xlink:href="#rect-15" /></clipPath><clipPath id="clip-mask-16"><use xlink:href="#rect-16" /></clipPath><clipPath id="clip-mask-17"><use xlink:href="#rect-17" /></clipPath><clipPath id="clip-mask-18"><use xlink:href="#rect-18" /></clipPath><clipPath id="clip-mask-19"><use xlink:href="#rect-19" /></clipPath></defs><path d="M 0 0 L 270 270 M 270 0 L 0 270 M 135 0 L 135 270 M 0 135 L 270 135" stroke="#CCCCCC" /><path d="M 57 108 L 56 109 Q 34 140 24 142 Q 20 143 21 140 Q 22 138 24 135 Q 58 91 72 53 Q 75 41 72 36 Q 70 30 75 29 Q 80 29 88 34 Q 96 40 97 43 Q 98 47 96 49 Q 90 55 84 67 Q 74 84 65 97 L 58 106" fill="#CCCCCC"/><path d="M 65 97 Q 66 98 76 109 Q 79 112 77 119 Q 75 134 74 204 Q 74 216 70 227 Q 67 234 62 230 Q 60 227 56 218 Q 54 209 55 204 Q 63 175 63 146 Q 64 136 64 126 Q 64 117 60 109 Q 59 107 58 106" fill="#CCCCCC"/><path d="M 149 43 Q 138 44 131 40 Q 124 36 134 34 Q 147 32 158 29 Q 168 26 177 22 Q 184 19 193 20 Q 201 21 202 24 Q 203 26 202 28 Q 199 31 157 41 Q 157 41 157 41" fill="#CCCCCC"/><path d="M 110 79 Q 106 86 103 97 Q 101 105 100 106 Q 98 110 96 110 Q 94 113 93 110 Q 90 106 89 101 Q 89 97 91 93 Q 99 76 98 67 Q 98 64 99 63 Q 100 62 101 63 Q 106 66 109 72" fill="#CCCCCC"/><path d="M 128 78 L 124 80 Q 115 82 110 79 L 109 72 Q 109 72 109 72 Q 122 71 134 68 Q 144 65 153 64 L 166 62 Q 191 57 199 56 Q 223 50 230 55 L 214 62 Q 205 61 165 69 L 154 72" fill="#CCCCCC"/><path d="M 230 55 Q 248 67 249 69 Q 249 72 240 74 Q 229 76 217 85 Q 213 88 210 87 L 210 87 Q 214 76 217 66 Q 218 64 214 62" fill="#CCCCCC"/><path d="M 153 64 Q 153 54 149 46 Q 149 44 149 43 L 157 41 Q 160 43 164 45 Q 169 48 167 53 Q 166 58 166 62 L 165 69 Q 165 85 165 100 Q 165 119 160 125 Q 158 128 156 125 Q 148 117 151 108 Q 154 80 154 72" fill="#CCCCCC"/><path d="M 122 93 L 122 92 Q 122 89 124 89 Q 134 88 140 93 Q 142 96 143 99 Q 142 103 140 103 Q 134 104 124 95" fill="#CCCCCC"/><path d="M 119 115 L 119 113 Q 119 111 121 111 Q 133 112 137 117 Q 140 121 140 123 Q 139 127 136 127 Q 132 127 120 116" fill="#CCCCCC"/><path d="M 176 84 L 176 82 Q 176 80 178 80 Q 181 79 189 81 Q 194 81 196 84 Q 200 88 200 90 Q 200 95 196 95 Q 192 96 178 86" fill="#CCCCCC"/><path d="M 175 109 L 175 107 Q 175 105 177 105 Q 180 104 188 106 Q 193 106 195 109 Q 198 113 199 115 Q 198 120 195 120 Q 191 121 177 110" fill="#CCCCCC"/><path d="M 140 147 Q 139 147 139 147 Q 125 150 116 144 Q 110 140 119 139 Q 137 137 168 130 Q 188 123 195 125 Q 201 127 203 130 Q 204 132 202 134 Q 200 135 189 138 Q 168 141 148 146" fill="#CCCCCC"/><path d="M 132 171 Q 132 169 134 167 Q 141 152 140 147 L 148 146 Q 152 150 154 153 Q 155 156 152 157 Q 146 164 141 169" fill="#CCCCCC"/><path d="M 113 185 Q 113 200 114 211 Q 115 220 114 223 Q 114 228 113 229 Q 112 231 109 230 Q 105 227 102 223 Q 100 218 101 213 Q 102 189 96 179 Q 95 176 96 174 Q 98 173 99 174 Q 102 174 105 176" fill="#CCCCCC"/><path d="M 165 173 Q 148 175 137 178 L 131 180 Q 127 181 113 185 L 105 176 Q 114 175 128 172 Q 129 171 132 171 L 141 169 Q 159 166 194 163 Q 206 161 213 158 Q 217 157 221 160 Q 233 168 235 171 L 214 172 Q 212 170 207 169 Q 189 170 175 172" fill="#CCCCCC"/><path d="M 235 171 Q 236 173 232 178 Q 227 185 226 214 Q 222 242 216 248 Q 213 250 210 247 L 209 223 Q 212 217 215 177 Q 216 174 214 172" fill="#CCCCCC"/><path d="M 210 247 Q 204 238 190 225 Q 185 221 191 222 Q 199 223 205 224 Q 208 225 209 223" fill="#CCCCCC"/><path d="M 137 178 Q 143 180 145 182 Q 146 183 146 186 Q 144 191 144 214 Q 144 222 142 226 Q 140 229 137 223 Q 134 219 135 213 Q 135 194 131 182 Q 131 181 131 180" fill="#CCCCCC"/><path d="M 178 174 L 182 176 Q 184 178 183 182 Q 183 183 182 188 Q 179 220 178 223 Q 176 236 173 237 Q 171 238 170 236 Q 166 229 168 196 Q 167 181 165 173 L 175 172" fill="#CCCCCC"/><path d="M 57 108 L 56 109 Q 34 140 24 142 Q 20 143 21 140 Q 22 138 24 135 Q 58 91 72 53 Q 75 41 72 36 Q 70 30 75 29 Q 80 29 88 34 Q 96 40 97 43 Q 98 47 96 49 Q 90 55 84 67 Q 74 84 65 97 L 58 106" fill="#0000ff" clip-path="url(#clip-mask-1)" /><path d="M 65 97 Q 66 98 76 109 Q 79 112 77 119 Q 75 134 74 204 Q 74 216 70 227 Q 67 234 62 230 Q 60 227 56 218 Q 54 209 55 204 Q 63 175 63 146 Q 64 136 64 126 Q 64 117 60 109 Q 59 107 58 106" fill="#0000ff" clip-path="url(#clip-mask-2)" /><path d="M 149 43 Q 138 44 131 40 Q 124 36 134 34 Q 147 32 158 29 Q 168 26 177 22 Q 184 19 193 20 Q 201 21 202 24 Q 203 26 202 28 Q 199 31 157 41 Q 157 41 157 41" fill="#000080" clip-path="url(#clip-mask-3)" /><path d="M 110 79 Q 106 86 103 97 Q 101 105 100 106 Q 98 110 96 110 Q 94 113 93 110 Q 90 106 89 101 Q 89 97 91 93 Q 99 76 98 67 Q 98 64 99 63 Q 100 62 101 63 Q 106 66 109 72" fill="#000080" clip-path="url(#clip-mask-4)" /><path d="M 128 78 L 124 80 Q 115 82 110 79 L 109 72 Q 109 72 109 72 Q 122 71 134 68 Q 144 65 153 64 L 166 62 Q 191 57 199 56 Q 223 50 230 55 L 214 62 Q 205 61 165 69 L 154 72" fill="#000080" clip-path="url(#clip-mask-5)" /><path d="M 230 55 Q 248 67 249 69 Q 249 72 240 74 Q 229 76 217 85 Q 213 88 210 87 L 210 87 Q 214 76 217 66 Q 218 64 214 62" fill="#000080" clip-path="url(#clip-mask-6)" /><path d="M 153 64 Q 153 54 149 46 Q 149 44 149 43 L 157 41 Q 160 43 164 45 Q 169 48 167 53 Q 166 58 166 62 L 165 69 Q 165 85 165 100 Q 165 119 160 125 Q 158 128 156 125 Q 148 117 151 108 Q 154 80 154 72" fill="#000080" clip-path="url(#clip-mask-7)" /><path d="M 122 93 L 122 92 Q 122 89 124 89 Q 134 88 140 93 Q 142 96 143 99 Q 142 103 140 103 Q 134 104 124 95" fill="#000080" clip-path="url(#clip-mask-8)" /><path d="M 119 115 L 119 113 Q 119 111 121 111 Q 133 112 137 117 Q 140 121 140 123 Q 139 127 136 127 Q 132 127 120 116" fill="#000080" clip-path="url(#clip-mask-9)" /><path d="M 176 84 L 176 82 Q 176 80 178 80 Q 181 79 189 81 Q 194 81 196 84 Q 200 88 200 90 Q 200 95 196 95 Q 192 96 178 86" fill="#000080" clip-path="url(#clip-mask-10)" /><path d="M 175 109 L 175 107 Q 175 105 177 105 Q 180 104 188 106 Q 193 106 195 109 Q 198 113 199 115 Q 198 120 195 120 Q 191 121 177 110" fill="#000080" clip-path="url(#clip-mask-11)" /><path d="M 140 147 Q 139 147 139 147 Q 125 150 116 144 Q 110 140 119 139 Q 137 137 168 130 Q 188 123 195 125 Q 201 127 203 130 Q 204 132 202 134 Q 200 135 189 138 Q 168 141 148 146" fill="#000080" clip-path="url(#clip-mask-12)" /><path d="M 132 171 Q 132 169 134 167 Q 141 152 140 147 L 148 146 Q 152 150 154 153 Q 155 156 152 157 Q 146 164 141 169" fill="#000080" clip-path="url(#clip-mask-13)" /><path d="M 113 185 Q 113 200 114 211 Q 115 220 114 223 Q 114 228 113 229 Q 112 231 109 230 Q 105 227 102 223 Q 100 218 101 213 Q 102 189 96 179 Q 95 176 96 174 Q 98 173 99 174 Q 102 174 105 176" fill="#000080" clip-path="url(#clip-mask-14)" /><path d="M 165 173 Q 148 175 137 178 L 131 180 Q 127 181 113 185 L 105 176 Q 114 175 128 172 Q 129 171 132 171 L 141 169 Q 159 166 194 163 Q 206 161 213 158 Q 217 157 221 160 Q 233 168 235 171 L 214 172 Q 212 170 207 169 Q 189 170 175 172" fill="#000080" clip-path="url(#clip-mask-15)" /><path d="M 235 171 Q 236 173 232 178 Q 227 185 226 214 Q 222 242 216 248 Q 213 250 210 247 L 209 223 Q 212 217 215 177 Q 216 174 214 172" fill="#000080" clip-path="url(#clip-mask-16)" /><path d="M 210 247 Q 204 238 190 225 Q 185 221 191 222 Q 199 223 205 224 Q 208 225 209 223" fill="#000080" clip-path="url(#clip-mask-17)" /><path d="M 137 178 Q 143 180 145 182 Q 146 183 146 186 Q 144 191 144 214 Q 144 222 142 226 Q 140 229 137 223 Q 134 219 135 213 Q 135 194 131 182 Q 131 181 131 180" fill="#000080" clip-path="url(#clip-mask-18)" /><path d="M 178 174 L 182 176 Q 184 178 183 182 Q 183 183 182 188 Q 179 220 178 223 Q 176 236 173 237 Q 171 238 170 236 Q 166 229 168 196 Q 167 181 165 173 L 175 172" fill="#000080" clip-path="url(#clip-mask-19)" /><rect x="20" y="29" width="78" height="114" id="rect-1" fill="transparent" stroke="#000000"><animate attributeName="y" from="-85" to="29" dur="0.422" begin="0; animate19.end + 1s" id="animate1" fill="freeze"/></rect><rect x="54" y="97" width="25" height="137" id="rect-2" fill="transparent" stroke="#000000"><set attributeName="y" to="-40" begin="0; animate19.end + 1s" /><animate attributeName="y" from="-40" to="97" dur="0.507" begin="animate1.end + 0.5" id="animate2" fill="freeze"/></rect><rect x="124" y="19" width="79" height="25" id="rect-3" fill="transparent" stroke="#000000"><set attributeName="x" to="45" begin="0; animate19.end + 1s" /><animate attributeName="x" from="45" to="124" dur="0.293" begin="animate2.end + 0.5" id="animate3" fill="freeze"/></rect><rect x="89" y="62" width="21" height="51" id="rect-4" fill="transparent" stroke="#000000"><set attributeName="y" to="11" begin="0; animate19.end + 1s" /><animate attributeName="y" from="11" to="62" dur="0.189" begin="animate3.end + 0.5" id="animate4" fill="freeze"/></rect><rect x="109" y="50" width="121" height="32" id="rect-5" fill="transparent" stroke="#000000"><set attributeName="x" to="-12" begin="0; animate19.end + 1s" /><animate attributeName="x" from="-12" to="109" dur="0.448" begin="animate4.end + 0.5" id="animate5" fill="freeze"/></rect><rect x="210" y="55" width="39" height="33" id="rect-6" fill="transparent" stroke="#000000"><set attributeName="y" to="22" begin="0; animate19.end + 1s" /><animate attributeName="y" from="22" to="55" dur="0.122" begin="animate5.end" id="animate6" fill="freeze"/></rect><rect x="148" y="41" width="21" height="87" id="rect-7" fill="transparent" stroke="#000000"><set attributeName="y" to="-46" begin="0; animate19.end + 1s" /><animate attributeName="y" from="-46" to="41" dur="0.322" begin="animate6.end + 0.5" id="animate7" fill="freeze"/></rect><rect x="122" y="88" width="21" height="16" id="rect-8" fill="transparent" stroke="#000000"><set attributeName="x" to="101" begin="0; animate19.end + 1s" /><animate attributeName="x" from="101" to="122" dur="0.078" begin="animate7.end + 0.5" id="animate8" fill="freeze"/></rect><rect x="119" y="111" width="21" height="16" id="rect-9" fill="transparent" stroke="#000000"><set attributeName="x" to="98" begin="0; animate19.end + 1s" /><animate attributeName="x" from="98" to="119" dur="0.078" begin="animate8.end + 0.5" id="animate9" fill="freeze"/></rect><rect x="176" y="79" width="24" height="17" id="rect-10" fill="transparent" stroke="#000000"><set attributeName="x" to="152" begin="0; animate19.end + 1s" /><animate attributeName="x" from="152" to="176" dur="0.089" begin="animate9.end + 0.5" id="animate10" fill="freeze"/></rect><rect x="175" y="104" width="24" height="17" id="rect-11" fill="transparent" stroke="#000000"><set attributeName="x" to="151" begin="0; animate19.end + 1s" /><animate attributeName="x" from="151" to="175" dur="0.089" begin="animate10.end + 0.5" id="animate11" fill="freeze"/></rect><rect x="110" y="123" width="94" height="27" id="rect-12" fill="transparent" stroke="#000000"><set attributeName="x" to="16" begin="0; animate19.end + 1s" /><animate attributeName="x" from="16" to="110" dur="0.348" begin="animate11.end + 0.5" id="animate12" fill="freeze"/></rect><rect x="132" y="146" width="23" height="25" id="rect-13" fill="transparent" stroke="#000000"><set attributeName="y" to="121" begin="0; animate19.end + 1s" /><animate attributeName="y" from="121" to="146" dur="0.093" begin="animate12.end + 0.5" id="animate13" fill="freeze"/></rect><rect x="95" y="173" width="20" height="58" id="rect-14" fill="transparent" stroke="#000000"><set attributeName="y" to="115" begin="0; animate19.end + 1s" /><animate attributeName="y" from="115" to="173" dur="0.215" begin="animate13.end + 0.5" id="animate14" fill="freeze"/></rect><rect x="105" y="157" width="130" height="28" id="rect-15" fill="transparent" stroke="#000000"><set attributeName="x" to="-25" begin="0; animate19.end + 1s" /><animate attributeName="x" from="-25" to="105" dur="0.481" begin="animate14.end + 0.5" id="animate15" fill="freeze"/></rect><rect x="209" y="171" width="27" height="79" id="rect-16" fill="transparent" stroke="#000000"><set attributeName="y" to="92" begin="0; animate19.end + 1s" /><animate attributeName="y" from="92" to="171" dur="0.293" begin="animate15.end" id="animate16" fill="freeze"/></rect><rect x="185" y="221" width="25" height="26" id="rect-17" fill="transparent" stroke="#000000"><set attributeName="x" to="210" begin="0; animate19.end + 1s" /><animate attributeName="x" from="210" to="185" dur="0.093" begin="animate16.end" id="animate17" fill="freeze"/></rect><rect x="131" y="178" width="15" height="51" id="rect-18" fill="transparent" stroke="#000000"><set attributeName="y" to="127" begin="0; animate19.end + 1s" /><animate attributeName="y" from="127" to="178" dur="0.189" begin="animate17.end + 0.5" id="animate18" fill="freeze"/></rect><rect x="165" y="172" width="19" height="66" id="rect-19" fill="transparent" stroke="#000000"><set attributeName="y" to="106" begin="0; animate19.end + 1s" /><animate attributeName="y" from="106" to="172" dur="0.244" begin="animate18.end + 0.5" id="animate19" fill="freeze"/></rect></svg>