<svg xmlns="http://www.w3.org/2000/svg" xmlns:xlink="http://www.w3.org/1999/xlink" width="270" height="270"><defs><clipPath id="clip-mask-1"><use xlink:href="#rect-1" /></clipPath><clipPath id="clip-mask-2"><use xlink:href="#rect-2" /></clipPath><clipPath id="clip-mask-3"><use xlink:href="#rect-3" /></clipPath><clipPath id="clip-mask-4"><use xlink:href="#rect-4" /></clipPath><clipPath id="clip-mask-5"><use xlink:href="#rect-5" /></clipPath><clipPath id="clip-mask-6"><use xlink:href="#rect-6" /></clipPath><clipPath id="clip-mask-7"><use xlink:href="#rect-7" /></clipPath><clipPath id="clip-mask-8"><use xlink:href="#rect-8" /></clipPath><clipPath id="clip-mask-9"><use xlink:href="#rect-9" /></clipPath><clipPath id="clip-mask-10"><use xlink:href="#rect-10" /></clipPath><clipPath id="clip-mask-11"><use xlink:href="#rect-11" /></clipPath></defs><path d="M 0 0 L 270 270 M 270 0 L 0 270 M 135 0 L 135 270 M 0 135 L 270 135" stroke="#CCCCCC" /><path d="M 40 83 L 39 79 Q 38 75 40 74 Q 42 73 46 74 Q 70 78 73 86 Q 76 94 75 99 Q 74 103 71 103 Q 66 103 62 100 Q 55 93 48 88" fill="#CCCCCC"/><path d="M 77 120 L 77 125 Q 77 127 75 133 Q 64 158 51 185 Q 47 194 44 206 Q 43 209 41 210 Q 38 211 34 208 Q 30 205 25 197 Q 21 192 22 184 Q 24 179 28 180 Q 32 181 35 177 Q 51 158 73 125" fill="#CCCCCC"/><path d="M 145 77 Q 125 80 114 75 Q 108 70 117 68 Q 132 67 144 65 L 159 62 Q 175 56 184 57 Q 191 59 193 63 Q 195 65 192 67 Q 191 69 181 70 Q 169 72 158 75" fill="#CCCCCC"/><path d="M 145 89 L 145 77 L 144 65 Q 143 49 142 35 Q 142 30 137 23 Q 135 19 137 17 Q 139 15 143 16 Q 149 17 159 22 Q 164 26 163 29 Q 159 44 159 62 L 158 75 Q 156 87 156 100 L 145 102" fill="#CCCCCC"/><path d="M 156 100 Q 181 95 197 91 Q 209 88 223 97 Q 227 100 225 103 Q 225 105 220 105 Q 149 105 101 119 Q 98 120 93 119 Q 88 118 85 115 Q 81 111 86 110 Q 117 106 145 102" fill="#CCCCCC"/><path d="M 117 127 L 116 123 Q 115 120 118 120 Q 120 119 126 122 Q 132 125 135 129 Q 138 133 133 135 Q 129 137 88 170 Q 84 171 86 167 Q 107 144 114 132" fill="#CCCCCC"/><path d="M 169 127 L 168 124 Q 168 122 171 123 Q 206 129 210 142 Q 215 151 213 155 Q 211 157 209 157 Q 205 156 201 152 Q 185 138 171 130" fill="#CCCCCC"/><path d="M 133 174 Q 128 181 127 183 L 123 188 Q 86 232 65 235 Q 59 237 64 233 Q 122 181 127 153 Q 127 150 129 149 Q 132 149 139 150 Q 145 152 146 155 Q 147 157 145 160 Q 142 163 139 167" fill="#CCCCCC"/><path d="M 164 170 Q 162 170 148 174 Q 140 176 133 174 L 139 167 Q 152 165 160 163 Q 176 158 182 160 Q 189 164 192 167" fill="#CCCCCC"/><path d="M 137 245 L 107 247 Q 96 248 94 247 Q 92 245 95 244 Q 132 234 150 213 L 156 205 Q 162 193 167 177 Q 170 172 164 170 L 192 167 Q 195 171 190 174 Q 184 178 181 185 Q 174 200 167 212 L 159 221" fill="#CCCCCC"/><path d="M 150 213 Q 133 197 123 188 L 127 183 Q 133 187 145 197 Q 151 201 156 205 L 167 212 Q 168 212 188 223 Q 189 224 244 242 Q 248 243 248 245 Q 247 246 242 247 Q 216 254 198 252 Q 190 250 159 221" fill="#CCCCCC"/><path d="M 40 83 L 39 79 Q 38 75 40 74 Q 42 73 46 74 Q 70 78 73 86 Q 76 94 75 99 Q 74 103 71 103 Q 66 103 62 100 Q 55 93 48 88" fill="#0000ff" clip-path="url(#clip-mask-1)" /><path d="M 77 120 L 77 125 Q 77 127 75 133 Q 64 158 51 185 Q 47 194 44 206 Q 43 209 41 210 Q 38 211 34 208 Q 30 205 25 197 Q 21 192 22 184 Q 24 179 28 180 Q 32 181 35 177 Q 51 158 73 125" fill="#0000ff" clip-path="url(#clip-mask-2)" /><path d="M 145 77 Q 125 80 114 75 Q 108 70 117 68 Q 132 67 144 65 L 159 62 Q 175 56 184 57 Q 191 59 193 63 Q 195 65 192 67 Q 191 69 181 70 Q 169 72 158 75" fill="#000080" clip-path="url(#clip-mask-3)" /><path d="M 145 89 L 145 77 L 144 65 Q 143 49 142 35 Q 142 30 137 23 Q 135 19 137 17 Q 139 15 143 16 Q 149 17 159 22 Q 164 26 163 29 Q 159 44 159 62 L 158 75 Q 156 87 156 100 L 145 102" fill="#000080" clip-path="url(#clip-mask-4)" /><path d="M 156 100 Q 181 95 197 91 Q 209 88 223 97 Q 227 100 225 103 Q 225 105 220 105 Q 149 105 101 119 Q 98 120 93 119 Q 88 118 85 115 Q 81 111 86 110 Q 117 106 145 102" fill="#000080" clip-path="url(#clip-mask-5)" /><path d="M 117 127 L 116 123 Q 115 120 118 120 Q 120 119 126 122 Q 132 125 135 129 Q 138 133 133 135 Q 129 137 88 170 Q 84 171 86 167 Q 107 144 114 132" fill="#000080" clip-path="url(#clip-mask-6)" /><path d="M 169 127 L 168 124 Q 168 122 171 123 Q 206 129 210 142 Q 215 151 213 155 Q 211 157 209 157 Q 205 156 201 152 Q 185 138 171 130" fill="#000080" clip-path="url(#clip-mask-7)" /><path d="M 133 174 Q 128 181 127 183 L 123 188 Q 86 232 65 235 Q 59 237 64 233 Q 122 181 127 153 Q 127 150 129 149 Q 132 149 139 150 Q 145 152 146 155 Q 147 157 145 160 Q 142 163 139 167" fill="#000080" clip-path="url(#clip-mask-8)" /><path d="M 164 170 Q 162 170 148 174 Q 140 176 133 174 L 139 167 Q 152 165 160 163 Q 176 158 182 160 Q 189 164 192 167" fill="#000080" clip-path="url(#clip-mask-9)" /><path d="M 137 245 L 107 247 Q 96 248 94 247 Q 92 245 95 244 Q 132 234 150 213 L 156 205 Q 162 193 167 177 Q 170 172 164 170 L 192 167 Q 195 171 190 174 Q 184 178 181 185 Q 174 200 167 212 L 159 221" fill="#000080" clip-path="url(#clip-mask-10)" /><path d="M 150 213 Q 133 197 123 188 L 127 183 Q 133 187 145 197 Q 151 201 156 205 L 167 212 Q 168 212 188 223 Q 189 224 244 242 Q 248 243 248 245 Q 247 246 242 247 Q 216 254 198 252 Q 190 250 159 221" fill="#000080" clip-path="url(#clip-mask-11)" /><rect x="38" y="73" width="38" height="30" id="rect-1" fill="transparent" stroke="#000000"><animate attributeName="x" from="0" to="38" dur="0.141" begin="0; animate11.end + 1s" id="animate1" fill="freeze"/></rect><rect x="21" y="120" width="56" height="91" id="rect-2" fill="transparent" stroke="#000000"><set attributeName="y" to="211" begin="0; animate11.end + 1s" /><animate attributeName="y" from="211" to="120" dur="0.337" begin="animate1.end + 0.5" id="animate2" fill="freeze"/></rect><rect x="108" y="56" width="87" height="24" id="rect-3" fill="transparent" stroke="#000000"><set attributeName="x" to="21" begin="0; animate11.end + 1s" /><animate attributeName="x" from="21" to="108" dur="0.322" begin="animate2.end + 0.5" id="animate3" fill="freeze"/></rect><rect x="135" y="15" width="29" height="87" id="rect-4" fill="transparent" stroke="#000000"><set attributeName="y" to="-72" begin="0; animate11.end + 1s" /><animate attributeName="y" from="-72" to="15" dur="0.322" begin="animate3.end + 0.5" id="animate4" fill="freeze"/></rect><rect x="81" y="88" width="146" height="32" id="rect-5" fill="transparent" stroke="#000000"><set attributeName="x" to="-65" begin="0; animate11.end + 1s" /><animate attributeName="x" from="-65" to="81" dur="0.541" begin="animate4.end + 0.5" id="animate5" fill="freeze"/></rect><rect x="84" y="119" width="54" height="52" id="rect-6" fill="transparent" stroke="#000000"><set attributeName="y" to="67" begin="0; animate11.end + 1s" /><animate attributeName="y" from="67" to="119" dur="0.193" begin="animate5.end + 0.5" id="animate6" fill="freeze"/></rect><rect x="168" y="122" width="47" height="35" id="rect-7" fill="transparent" stroke="#000000"><set attributeName="x" to="121" begin="0; animate11.end + 1s" /><animate attributeName="x" from="121" to="168" dur="0.174" begin="animate6.end + 0.5" id="animate7" fill="freeze"/></rect><rect x="59" y="149" width="88" height="88" id="rect-8" fill="transparent" stroke="#000000"><set attributeName="y" to="61" begin="0; animate11.end + 1s" /><animate attributeName="y" from="61" to="149" dur="0.326" begin="animate7.end + 0.5" id="animate8" fill="freeze"/></rect><rect x="133" y="158" width="59" height="18" id="rect-9" fill="transparent" stroke="#000000"><set attributeName="x" to="74" begin="0; animate11.end + 1s" /><animate attributeName="x" from="74" to="133" dur="0.219" begin="animate8.end + 0.5" id="animate9" fill="freeze"/></rect><rect x="92" y="167" width="103" height="81" id="rect-10" fill="transparent" stroke="#000000"><set attributeName="y" to="86" begin="0; animate11.end + 1s" /><animate attributeName="y" from="86" to="167" dur="0.300" begin="animate9.end" id="animate10" fill="freeze"/></rect><rect x="123" y="183" width="125" height="71" id="rect-11" fill="transparent" stroke="#000000"><set attributeName="x" to="-2" begin="0; animate11.end + 1s" /><animate attributeName="x" from="-2" to="123" dur="0.463" begin="animate10.end + 0.5" id="animate11" fill="freeze"/></rect></svg>