<svg xmlns="http://www.w3.org/2000/svg" xmlns:xlink="http://www.w3.org/1999/xlink" width="270" height="270"><defs><clipPath id="clip-mask-1"><use xlink:href="#rect-1" /></clipPath><clipPath id="clip-mask-2"><use xlink:href="#rect-2" /></clipPath><clipPath id="clip-mask-3"><use xlink:href="#rect-3" /></clipPath><clipPath id="clip-mask-4"><use xlink:href="#rect-4" /></clipPath><clipPath id="clip-mask-5"><use xlink:href="#rect-5" /></clipPath><clipPath id="clip-mask-6"><use xlink:href="#rect-6" /></clipPath><clipPath id="clip-mask-7"><use xlink:href="#rect-7" /></clipPath><clipPath id="clip-mask-8"><use xlink:href="#rect-8" /></clipPath><clipPath id="clip-mask-9"><use xlink:href="#rect-9" /></clipPath><clipPath id="clip-mask-10"><use xlink:href="#rect-10" /></clipPath><clipPath id="clip-mask-11"><use xlink:href="#rect-11" /></clipPath><clipPath id="clip-mask-12"><use xlink:href="#rect-12" /></clipPath><clipPath id="clip-mask-13"><use xlink:href="#rect-13" /></clipPath><clipPath id="clip-mask-14"><use xlink:href="#rect-14" /></clipPath><clipPath id="clip-mask-15"><use xlink:href="#rect-15" /></clipPath><clipPath id="clip-mask-16"><use xlink:href="#rect-16" /></clipPath><clipPath id="clip-mask-17"><use xlink:href="#rect-17" /></clipPath></defs><path d="M 0 0 L 270 270 M 270 0 L 0 270 M 135 0 L 135 270 M 0 135 L 270 135" stroke="#CCCCCC" /><path d="M 30 59 L 30 56 Q 29 52 31 52 Q 34 51 39 53 L 39 53 Q 60 59 63 73 Q 64 78 62 81 Q 59 84 55 83 Q 45 78 34 63" fill="#CCCCCC"/><path d="M 68 122 L 69 127 Q 70 129 67 134 Q 44 188 42 201 Q 41 204 39 205 Q 35 206 32 203 Q 28 201 23 193 Q 19 188 20 181 Q 21 176 26 176 Q 29 177 33 173 Q 46 157 65 127" fill="#CCCCCC"/><path d="M 128 21 L 127 19 Q 126 15 127 14 Q 130 12 148 15 Q 155 17 157 20 Q 160 28 160 32 Q 159 36 156 37 Q 152 38 148 34 Q 142 30 136 26" fill="#CCCCCC"/><path d="M 171 38 L 198 31 Q 206 29 219 37 Q 223 40 222 42 Q 221 45 216 45 Q 211 45 207 45 Q 141 49 99 63 Q 95 65 90 64 Q 86 63 82 60 Q 78 56 83 55" fill="#CCCCCC"/><path d="M 113 136 L 113 137 Q 113 141 108 136 Q 102 131 101 123 Q 94 98 85 83 Q 82 79 83 77 Q 84 76 87 76 Q 89 77 91 77 Q 92 77 93 77 L 102 85 Q 103 93 112 120 Q 113 124 113 128 L 114 135" fill="#CCCCCC"/><path d="M 186 70 Q 182 67 172 69 Q 127 77 102 85 L 93 77 Q 132 68 170 61 Q 191 55 195 58 Q 207 65 211 69" fill="#CCCCCC"/><path d="M 174 115 Q 176 115 177 116 Q 181 111 188 78 Q 189 73 186 70 L 211 69 Q 214 73 210 76 Q 204 83 202 91 Q 193 124 189 129 Q 185 135 182 133 Q 179 131 174 124" fill="#CCCCCC"/><path d="M 134 113 L 134 114 Q 133 117 129 114 Q 127 112 126 109 Q 122 98 117 92 Q 115 89 116 88 Q 117 87 119 87 Q 124 87 126 87 L 129 93 Q 130 96 132 105 L 134 112" fill="#CCCCCC"/><path d="M 156 89 Q 154 87 149 88 Q 136 91 129 93 L 126 87 Q 136 86 147 83 Q 159 77 162 79 Q 167 82 170 85" fill="#CCCCCC"/><path d="M 154 99 Q 155 96 156 94 Q 157 90 156 89 L 170 85 Q 174 88 170 92 Q 167 94 164 102" fill="#CCCCCC"/><path d="M 132 105 Q 141 103 151 100 Q 153 99 154 99 L 164 102 Q 166 104 166 105 Q 166 106 164 107 Q 144 109 135 111 Q 134 112 134 112" fill="#CCCCCC"/><path d="M 113 128 Q 135 123 160 117 Q 169 115 174 115 L 174 124 Q 150 128 120 134 Q 116 135 114 135" fill="#CCCCCC"/><path d="M 137 155 Q 134 156 131 156 Q 109 161 108 160 Q 107 159 108 158 Q 152 143 154 134 Q 154 132 156 132 Q 162 132 174 141 Q 176 144 175 146 Q 174 147 170 147 Q 159 148 145 153" fill="#CCCCCC"/><path d="M 131 179 Q 112 182 96 187 Q 93 188 88 187 Q 83 186 80 183 Q 76 180 81 179 Q 113 173 140 169 L 153 166 Q 175 162 189 158 Q 201 154 215 163 Q 219 167 218 169 Q 216 172 202 172 Q 173 172 153 176" fill="#CCCCCC"/><path d="M 152 221 L 152 239 Q 153 247 150 254 Q 148 257 146 257 Q 144 256 141 252 Q 133 240 136 230 Q 139 219 139 187 L 140 169 Q 140 159 137 155 L 145 153 Q 148 156 153 159 Q 154 160 154 163 Q 153 164 153 166 L 152 183" fill="#CCCCCC"/><path d="M 139 187 Q 133 196 122 207 Q 110 218 100 224 Q 88 232 75 235 Q 67 238 64 237 Q 60 237 65 234 Q 119 204 131 179 L 146 176" fill="#CCCCCC"/><path d="M 152 174 Q 158 179 166 185 Q 185 199 198 204 Q 203 207 246 220 Q 250 221 250 222 Q 249 224 244 224 Q 226 229 209 229 Q 199 229 193 224 Q 172 204 152 183" fill="#CCCCCC"/><path d="M 30 59 L 30 56 Q 29 52 31 52 Q 34 51 39 53 L 39 53 Q 60 59 63 73 Q 64 78 62 81 Q 59 84 55 83 Q 45 78 34 63" fill="#0000ff" clip-path="url(#clip-mask-1)" /><path d="M 68 122 L 69 127 Q 70 129 67 134 Q 44 188 42 201 Q 41 204 39 205 Q 35 206 32 203 Q 28 201 23 193 Q 19 188 20 181 Q 21 176 26 176 Q 29 177 33 173 Q 46 157 65 127" fill="#0000ff" clip-path="url(#clip-mask-2)" /><path d="M 128 21 L 127 19 Q 126 15 127 14 Q 130 12 148 15 Q 155 17 157 20 Q 160 28 160 32 Q 159 36 156 37 Q 152 38 148 34 Q 142 30 136 26" fill="#000080" clip-path="url(#clip-mask-3)" /><path d="M 171 38 L 198 31 Q 206 29 219 37 Q 223 40 222 42 Q 221 45 216 45 Q 211 45 207 45 Q 141 49 99 63 Q 95 65 90 64 Q 86 63 82 60 Q 78 56 83 55" fill="#000080" clip-path="url(#clip-mask-4)" /><path d="M 113 136 L 113 137 Q 113 141 108 136 Q 102 131 101 123 Q 94 98 85 83 Q 82 79 83 77 Q 84 76 87 76 Q 89 77 91 77 Q 92 77 93 77 L 102 85 Q 103 93 112 120 Q 113 124 113 128 L 114 135" fill="#000080" clip-path="url(#clip-mask-5)" /><path d="M 186 70 Q 182 67 172 69 Q 127 77 102 85 L 93 77 Q 132 68 170 61 Q 191 55 195 58 Q 207 65 211 69" fill="#000080" clip-path="url(#clip-mask-6)" /><path d="M 174 115 Q 176 115 177 116 Q 181 111 188 78 Q 189 73 186 70 L 211 69 Q 214 73 210 76 Q 204 83 202 91 Q 193 124 189 129 Q 185 135 182 133 Q 179 131 174 124" fill="#000080" clip-path="url(#clip-mask-7)" /><path d="M 134 113 L 134 114 Q 133 117 129 114 Q 127 112 126 109 Q 122 98 117 92 Q 115 89 116 88 Q 117 87 119 87 Q 124 87 126 87 L 129 93 Q 130 96 132 105 L 134 112" fill="#000080" clip-path="url(#clip-mask-8)" /><path d="M 156 89 Q 154 87 149 88 Q 136 91 129 93 L 126 87 Q 136 86 147 83 Q 159 77 162 79 Q 167 82 170 85" fill="#000080" clip-path="url(#clip-mask-9)" /><path d="M 154 99 Q 155 96 156 94 Q 157 90 156 89 L 170 85 Q 174 88 170 92 Q 167 94 164 102" fill="#000080" clip-path="url(#clip-mask-10)" /><path d="M 132 105 Q 141 103 151 100 Q 153 99 154 99 L 164 102 Q 166 104 166 105 Q 166 106 164 107 Q 144 109 135 111 Q 134 112 134 112" fill="#000080" clip-path="url(#clip-mask-11)" /><path d="M 113 128 Q 135 123 160 117 Q 169 115 174 115 L 174 124 Q 150 128 120 134 Q 116 135 114 135" fill="#000080" clip-path="url(#clip-mask-12)" /><path d="M 137 155 Q 134 156 131 156 Q 109 161 108 160 Q 107 159 108 158 Q 152 143 154 134 Q 154 132 156 132 Q 162 132 174 141 Q 176 144 175 146 Q 174 147 170 147 Q 159 148 145 153" fill="#000080" clip-path="url(#clip-mask-13)" /><path d="M 131 179 Q 112 182 96 187 Q 93 188 88 187 Q 83 186 80 183 Q 76 180 81 179 Q 113 173 140 169 L 153 166 Q 175 162 189 158 Q 201 154 215 163 Q 219 167 218 169 Q 216 172 202 172 Q 173 172 153 176" fill="#000080" clip-path="url(#clip-mask-14)" /><path d="M 152 221 L 152 239 Q 153 247 150 254 Q 148 257 146 257 Q 144 256 141 252 Q 133 240 136 230 Q 139 219 139 187 L 140 169 Q 140 159 137 155 L 145 153 Q 148 156 153 159 Q 154 160 154 163 Q 153 164 153 166 L 152 183" fill="#000080" clip-path="url(#clip-mask-15)" /><path d="M 139 187 Q 133 196 122 207 Q 110 218 100 224 Q 88 232 75 235 Q 67 238 64 237 Q 60 237 65 234 Q 119 204 131 179 L 146 176" fill="#000080" clip-path="url(#clip-mask-16)" /><path d="M 152 174 Q 158 179 166 185 Q 185 199 198 204 Q 203 207 246 220 Q 250 221 250 222 Q 249 224 244 224 Q 226 229 209 229 Q 199 229 193 224 Q 172 204 152 183" fill="#000080" clip-path="url(#clip-mask-17)" /><rect x="29" y="51" width="35" height="33" id="rect-1" fill="transparent" stroke="#000000"><animate attributeName="x" from="-6" to="29" dur="0.130" begin="0; animate17.end + 1s" id="animate1" fill="freeze"/></rect><rect x="19" y="122" width="51" height="84" id="rect-2" fill="transparent" stroke="#000000"><set attributeName="y" to="206" begin="0; animate17.end + 1s" /><animate attributeName="y" from="206" to="122" dur="0.311" begin="animate1.end + 0.5" id="animate2" fill="freeze"/></rect><rect x="126" y="12" width="34" height="26" id="rect-3" fill="transparent" stroke="#000000"><set attributeName="x" to="92" begin="0; animate17.end + 1s" /><animate attributeName="x" from="92" to="126" dur="0.126" begin="animate2.end + 0.5" id="animate3" fill="freeze"/></rect><rect x="78" y="29" width="145" height="36" id="rect-4" fill="transparent" stroke="#000000"><set attributeName="x" to="-67" begin="0; animate17.end + 1s" /><animate attributeName="x" from="-67" to="78" dur="0.537" begin="animate3.end + 0.5" id="animate4" fill="freeze"/></rect><rect x="82" y="76" width="32" height="65" id="rect-5" fill="transparent" stroke="#000000"><set attributeName="y" to="11" begin="0; animate17.end + 1s" /><animate attributeName="y" from="11" to="76" dur="0.241" begin="animate4.end + 0.5" id="animate5" fill="freeze"/></rect><rect x="93" y="55" width="118" height="30" id="rect-6" fill="transparent" stroke="#000000"><set attributeName="x" to="-25" begin="0; animate17.end + 1s" /><animate attributeName="x" from="-25" to="93" dur="0.437" begin="animate5.end + 0.5" id="animate6" fill="freeze"/></rect><rect x="174" y="69" width="40" height="66" id="rect-7" fill="transparent" stroke="#000000"><set attributeName="y" to="3" begin="0; animate17.end + 1s" /><animate attributeName="y" from="3" to="69" dur="0.244" begin="animate6.end" id="animate7" fill="freeze"/></rect><rect x="115" y="87" width="19" height="30" id="rect-8" fill="transparent" stroke="#000000"><set attributeName="y" to="57" begin="0; animate17.end + 1s" /><animate attributeName="y" from="57" to="87" dur="0.111" begin="animate7.end + 0.5" id="animate8" fill="freeze"/></rect><rect x="126" y="77" width="44" height="16" id="rect-9" fill="transparent" stroke="#000000"><set attributeName="x" to="82" begin="0; animate17.end + 1s" /><animate attributeName="x" from="82" to="126" dur="0.163" begin="animate8.end + 0.5" id="animate9" fill="freeze"/></rect><rect x="154" y="85" width="20" height="17" id="rect-10" fill="transparent" stroke="#000000"><set attributeName="y" to="68" begin="0; animate17.end + 1s" /><animate attributeName="y" from="68" to="85" dur="0.063" begin="animate9.end" id="animate10" fill="freeze"/></rect><rect x="132" y="99" width="34" height="13" id="rect-11" fill="transparent" stroke="#000000"><set attributeName="x" to="98" begin="0; animate17.end + 1s" /><animate attributeName="x" from="98" to="132" dur="0.126" begin="animate10.end + 0.5" id="animate11" fill="freeze"/></rect><rect x="113" y="115" width="61" height="20" id="rect-12" fill="transparent" stroke="#000000"><set attributeName="x" to="52" begin="0; animate17.end + 1s" /><animate attributeName="x" from="52" to="113" dur="0.226" begin="animate11.end + 0.5" id="animate12" fill="freeze"/></rect><rect x="107" y="132" width="69" height="29" id="rect-13" fill="transparent" stroke="#000000"><set attributeName="x" to="176" begin="0; animate17.end + 1s" /><animate attributeName="x" from="176" to="107" dur="0.256" begin="animate12.end + 0.5" id="animate13" fill="freeze"/></rect><rect x="76" y="154" width="143" height="34" id="rect-14" fill="transparent" stroke="#000000"><set attributeName="x" to="-67" begin="0; animate17.end + 1s" /><animate attributeName="x" from="-67" to="76" dur="0.530" begin="animate13.end + 0.5" id="animate14" fill="freeze"/></rect><rect x="133" y="153" width="21" height="104" id="rect-15" fill="transparent" stroke="#000000"><set attributeName="y" to="49" begin="0; animate17.end + 1s" /><animate attributeName="y" from="49" to="153" dur="0.385" begin="animate14.end + 0.5" id="animate15" fill="freeze"/></rect><rect x="60" y="176" width="86" height="62" id="rect-16" fill="transparent" stroke="#000000"><set attributeName="x" to="146" begin="0; animate17.end + 1s" /><animate attributeName="x" from="146" to="60" dur="0.319" begin="animate15.end + 0.5" id="animate16" fill="freeze"/></rect><rect x="152" y="174" width="98" height="55" id="rect-17" fill="transparent" stroke="#000000"><set attributeName="x" to="54" begin="0; animate17.end + 1s" /><animate attributeName="x" from="54" to="152" dur="0.363" begin="animate16.end + 0.5" id="animate17" fill="freeze"/></rect></svg>