<svg xmlns="http://www.w3.org/2000/svg" xmlns:xlink="http://www.w3.org/1999/xlink" width="270" height="270"><defs><clipPath id="clip-mask-1"><use xlink:href="#rect-1" /></clipPath><clipPath id="clip-mask-2"><use xlink:href="#rect-2" /></clipPath><clipPath id="clip-mask-3"><use xlink:href="#rect-3" /></clipPath><clipPath id="clip-mask-4"><use xlink:href="#rect-4" /></clipPath><clipPath id="clip-mask-5"><use xlink:href="#rect-5" /></clipPath></defs><path d="M 0 0 L 270 270 M 270 0 L 0 270 M 135 0 L 135 270 M 0 135 L 270 135" stroke="#CCCCCC" /><path d="M 133 99 Q 134 96 136 93 Q 152 62 148 46 Q 147 42 149 41 Q 159 39 169 47 Q 173 50 174 53 Q 174 54 168 64 Q 154 91 144 107 L 134 122 Q 122 137 111 148 Q 100 157 88 165 Q 81 170 78 170 Q 75 170 77 168 Q 109 135 125 112" fill="#CCCCCC"/><path d="M 102 91 L 83 73 Q 80 71 80 67 Q 81 64 83 65 Q 101 76 133 99 L 144 107 Q 177 133 179 145 Q 182 156 179 159 Q 177 162 175 162 Q 171 160 167 155 Q 150 137 134 122 L 125 112" fill="#CCCCCC"/><path d="M 53 220 Q 49 223 45 221 Q 39 217 35 212 Q 33 207 39 201 Q 47 191 48 169 Q 51 147 39 125 Q 36 118 40 117 Q 43 116 47 117 Q 55 121 61 127 Q 65 132 64 140 Q 63 164 62 187" fill="#CCCCCC"/><path d="M 207 192 Q 197 188 157 194 Q 67 205 53 220 L 62 187 Q 60 198 69 196 Q 129 182 209 179" fill="#CCCCCC"/><path d="M 209 178 L 209 177 Q 215 114 204 99 Q 203 94 206 93 Q 210 90 214 93 Q 225 99 233 104 Q 236 109 234 113 Q 233 116 232 118 Q 228 129 226 188 Q 226 217 218 226 Q 214 230 210 225 Q 201 207 207 192 L 209 179" fill="#CCCCCC"/><path d="M 133 99 Q 134 96 136 93 Q 152 62 148 46 Q 147 42 149 41 Q 159 39 169 47 Q 173 50 174 53 Q 174 54 168 64 Q 154 91 144 107 L 134 122 Q 122 137 111 148 Q 100 157 88 165 Q 81 170 78 170 Q 75 170 77 168 Q 109 135 125 112" fill="#000080" clip-path="url(#clip-mask-1)" /><path d="M 102 91 L 83 73 Q 80 71 80 67 Q 81 64 83 65 Q 101 76 133 99 L 144 107 Q 177 133 179 145 Q 182 156 179 159 Q 177 162 175 162 Q 171 160 167 155 Q 150 137 134 122 L 125 112" fill="#000080" clip-path="url(#clip-mask-2)" /><path d="M 53 220 Q 49 223 45 221 Q 39 217 35 212 Q 33 207 39 201 Q 47 191 48 169 Q 51 147 39 125 Q 36 118 40 117 Q 43 116 47 117 Q 55 121 61 127 Q 65 132 64 140 Q 63 164 62 187" fill="#0000ff" clip-path="url(#clip-mask-3)" /><path d="M 207 192 Q 197 188 157 194 Q 67 205 53 220 L 62 187 Q 60 198 69 196 Q 129 182 209 179" fill="#0000ff" clip-path="url(#clip-mask-4)" /><path d="M 209 178 L 209 177 Q 215 114 204 99 Q 203 94 206 93 Q 210 90 214 93 Q 225 99 233 104 Q 236 109 234 113 Q 233 116 232 118 Q 228 129 226 188 Q 226 217 218 226 Q 214 230 210 225 Q 201 207 207 192 L 209 179" fill="#0000ff" clip-path="url(#clip-mask-5)" /><rect x="75" y="39" width="99" height="131" id="rect-1" fill="transparent" stroke="#000000"><animate attributeName="y" from="-92" to="39" dur="0.485" begin="0; animate5.end + 1s" id="animate1" fill="freeze"/></rect><rect x="80" y="64" width="102" height="98" id="rect-2" fill="transparent" stroke="#000000"><set attributeName="x" to="-22" begin="0; animate5.end + 1s" /><animate attributeName="x" from="-22" to="80" dur="0.378" begin="animate1.end + 0.5" id="animate2" fill="freeze"/></rect><rect x="33" y="116" width="32" height="107" id="rect-3" fill="transparent" stroke="#000000"><set attributeName="y" to="9" begin="0; animate5.end + 1s" /><animate attributeName="y" from="9" to="116" dur="0.396" begin="animate2.end + 0.5" id="animate3" fill="freeze"/></rect><rect x="53" y="179" width="156" height="41" id="rect-4" fill="transparent" stroke="#000000"><set attributeName="x" to="-103" begin="0; animate5.end + 1s" /><animate attributeName="x" from="-103" to="53" dur="0.578" begin="animate3.end" id="animate4" fill="freeze"/></rect><rect x="201" y="90" width="35" height="140" id="rect-5" fill="transparent" stroke="#000000"><set attributeName="y" to="-50" begin="0; animate5.end + 1s" /><animate attributeName="y" from="-50" to="90" dur="0.519" begin="animate4.end + 0.5" id="animate5" fill="freeze"/></rect></svg>