<svg xmlns="http://www.w3.org/2000/svg" xmlns:xlink="http://www.w3.org/1999/xlink" width="270" height="270"><defs><clipPath id="clip-mask-1"><use xlink:href="#rect-1" /></clipPath><clipPath id="clip-mask-2"><use xlink:href="#rect-2" /></clipPath><clipPath id="clip-mask-3"><use xlink:href="#rect-3" /></clipPath><clipPath id="clip-mask-4"><use xlink:href="#rect-4" /></clipPath><clipPath id="clip-mask-5"><use xlink:href="#rect-5" /></clipPath><clipPath id="clip-mask-6"><use xlink:href="#rect-6" /></clipPath></defs><path d="M 0 0 L 270 270 M 270 0 L 0 270 M 135 0 L 135 270 M 0 135 L 270 135" stroke="#CCCCCC" /><path d="M 86 52 L 88 52 Q 97 51 106 59 Q 109 63 109 66 Q 109 69 108 70 Q 106 71 103 74 Q 85 99 73 111 Q 70 113 68 115 Q 36 143 20 143 Q 17 142 19 141 Q 44 122 54 112 Q 54 111 55 111 Q 88 78 86 55" fill="#CCCCCC"/><path d="M 102 24 L 103 22 Q 104 20 112 20 Q 124 20 131 30 Q 164 78 180 89 Q 197 105 245 119 Q 252 121 252 123 Q 252 125 245 126 Q 209 130 198 130 Q 175 126 131 52 Q 120 34 104 25" fill="#CCCCCC"/><path d="M 87 147 L 78 150 Q 72 152 65 147 Q 58 144 58 141 Q 59 139 64 139 Q 87 137 113 130 Q 140 125 147 120 Q 153 117 159 119 Q 175 127 178 130 Q 179 133 176 137 L 150 136 Q 149 134 143 135 Q 127 137 108 142 L 96 145" fill="#CCCCCC"/><path d="M 176 137 Q 169 145 167 162 Q 159 209 150 224 Q 142 237 132 244 L 132 212 Q 143 195 150 156 Q 153 142 150 136" fill="#CCCCCC"/><path d="M 132 244 Q 126 249 119 242 Q 115 232 104 218 Q 99 211 107 214 Q 112 216 118 219 Q 126 221 132 212" fill="#CCCCCC"/><path d="M 108 142 Q 115 148 116 150 Q 117 153 115 155 Q 110 161 107 167 Q 86 203 62 215 Q 36 231 28 228 Q 27 227 29 225 Q 92 185 96 145" fill="#CCCCCC"/><path d="M 86 52 L 88 52 Q 97 51 106 59 Q 109 63 109 66 Q 109 69 108 70 Q 106 71 103 74 Q 85 99 73 111 Q 70 113 68 115 Q 36 143 20 143 Q 17 142 19 141 Q 44 122 54 112 Q 54 111 55 111 Q 88 78 86 55" fill="#000080" clip-path="url(#clip-mask-1)" /><path d="M 102 24 L 103 22 Q 104 20 112 20 Q 124 20 131 30 Q 164 78 180 89 Q 197 105 245 119 Q 252 121 252 123 Q 252 125 245 126 Q 209 130 198 130 Q 175 126 131 52 Q 120 34 104 25" fill="#000080" clip-path="url(#clip-mask-2)" /><path d="M 87 147 L 78 150 Q 72 152 65 147 Q 58 144 58 141 Q 59 139 64 139 Q 87 137 113 130 Q 140 125 147 120 Q 153 117 159 119 Q 175 127 178 130 Q 179 133 176 137 L 150 136 Q 149 134 143 135 Q 127 137 108 142 L 96 145" fill="#0000ff" clip-path="url(#clip-mask-3)" /><path d="M 176 137 Q 169 145 167 162 Q 159 209 150 224 Q 142 237 132 244 L 132 212 Q 143 195 150 156 Q 153 142 150 136" fill="#0000ff" clip-path="url(#clip-mask-4)" /><path d="M 132 244 Q 126 249 119 242 Q 115 232 104 218 Q 99 211 107 214 Q 112 216 118 219 Q 126 221 132 212" fill="#0000ff" clip-path="url(#clip-mask-5)" /><path d="M 108 142 Q 115 148 116 150 Q 117 153 115 155 Q 110 161 107 167 Q 86 203 62 215 Q 36 231 28 228 Q 27 227 29 225 Q 92 185 96 145" fill="#0000ff" clip-path="url(#clip-mask-6)" /><rect x="17" y="51" width="92" height="92" id="rect-1" fill="transparent" stroke="#000000"><animate attributeName="y" from="-41" to="51" dur="0.341" begin="0; animate6.end + 1s" id="animate1" fill="freeze"/></rect><rect x="102" y="20" width="150" height="110" id="rect-2" fill="transparent" stroke="#000000"><set attributeName="x" to="-48" begin="0; animate6.end + 1s" /><animate attributeName="x" from="-48" to="102" dur="0.556" begin="animate1.end + 0.5" id="animate2" fill="freeze"/></rect><rect x="58" y="117" width="121" height="35" id="rect-3" fill="transparent" stroke="#000000"><set attributeName="x" to="-63" begin="0; animate6.end + 1s" /><animate attributeName="x" from="-63" to="58" dur="0.448" begin="animate2.end + 0.5" id="animate3" fill="freeze"/></rect><rect x="132" y="136" width="44" height="108" id="rect-4" fill="transparent" stroke="#000000"><set attributeName="y" to="28" begin="0; animate6.end + 1s" /><animate attributeName="y" from="28" to="136" dur="0.400" begin="animate3.end" id="animate4" fill="freeze"/></rect><rect x="99" y="211" width="33" height="38" id="rect-5" fill="transparent" stroke="#000000"><set attributeName="x" to="132" begin="0; animate6.end + 1s" /><animate attributeName="x" from="132" to="99" dur="0.122" begin="animate4.end" id="animate5" fill="freeze"/></rect><rect x="27" y="142" width="90" height="89" id="rect-6" fill="transparent" stroke="#000000"><set attributeName="y" to="53" begin="0; animate6.end + 1s" /><animate attributeName="y" from="53" to="142" dur="0.330" begin="animate5.end + 0.5" id="animate6" fill="freeze"/></rect></svg>