<svg xmlns="http://www.w3.org/2000/svg" xmlns:xlink="http://www.w3.org/1999/xlink" width="270" height="270"><defs><clipPath id="clip-mask-1"><use xlink:href="#rect-1" /></clipPath><clipPath id="clip-mask-2"><use xlink:href="#rect-2" /></clipPath><clipPath id="clip-mask-3"><use xlink:href="#rect-3" /></clipPath><clipPath id="clip-mask-4"><use xlink:href="#rect-4" /></clipPath><clipPath id="clip-mask-5"><use xlink:href="#rect-5" /></clipPath><clipPath id="clip-mask-6"><use xlink:href="#rect-6" /></clipPath><clipPath id="clip-mask-7"><use xlink:href="#rect-7" /></clipPath><clipPath id="clip-mask-8"><use xlink:href="#rect-8" /></clipPath><clipPath id="clip-mask-9"><use xlink:href="#rect-9" /></clipPath><clipPath id="clip-mask-10"><use xlink:href="#rect-10" /></clipPath></defs><path d="M 0 0 L 270 270 M 270 0 L 0 270 M 135 0 L 135 270 M 0 135 L 270 135" stroke="#CCCCCC" /><path d="M 85 62 L 84 62 Q 69 64 59 59 Q 52 54 62 53 Q 71 51 97 46 Q 128 37 135 38 Q 142 40 144 43 Q 146 45 143 47 Q 140 49 98 59" fill="#CCCCCC"/><path d="M 62 129 Q 58 131 55 129 Q 49 123 48 119 Q 47 116 51 113 Q 64 104 70 95 Q 88 74 85 62 L 98 59 Q 106 64 107 67 Q 109 70 106 72 Q 100 77 75 107" fill="#CCCCCC"/><path d="M 89 116 Q 73 120 62 129 L 75 107 Q 73 109 74 110 Q 74 111 77 110 Q 102 102 127 98 L 130 104 Q 128 105 126 105 Q 110 109 99 113" fill="#CCCCCC"/><path d="M 127 98 Q 120 86 120 85 Q 121 82 122 81 Q 123 81 126 83 Q 147 97 147 105 Q 147 113 145 115 Q 143 117 141 117 Q 137 116 130 104" fill="#CCCCCC"/><path d="M 94 157 Q 91 157 89 158 Q 75 161 65 157 Q 59 153 67 151 Q 81 149 93 146 L 108 142 Q 122 137 128 138 Q 135 140 137 142 Q 138 144 136 146 Q 135 147 107 154" fill="#CCCCCC"/><path d="M 94 169 L 94 157 L 93 146 Q 92 121 89 116 L 99 113 Q 103 115 108 120 Q 109 122 108 142 L 107 154 Q 106 168 106 184 L 94 187" fill="#CCCCCC"/><path d="M 106 184 Q 125 179 142 174 Q 146 174 147 175 Q 147 179 143 180 Q 135 185 126 189 Q 72 209 59 218 Q 56 220 53 219 Q 43 213 36 208 Q 33 205 34 201 Q 35 198 39 198 Q 49 199 55 197 Q 75 192 94 187" fill="#CCCCCC"/><path d="M 160 72 L 162 70 Q 164 69 168 70 Q 172 72 177 75 Q 182 78 181 84 Q 179 97 179 139 Q 178 159 173 168 Q 171 171 168 168 Q 161 158 162 148 Q 169 96 161 76" fill="#CCCCCC"/><path d="M 210 41 L 203 33 Q 199 26 204 25 Q 210 23 219 28 Q 236 34 231 43 Q 220 83 229 202 Q 230 223 224 236 Q 220 246 216 246 Q 211 245 206 236 L 211 201 Q 211 60 210 51" fill="#CCCCCC"/><path d="M 206 236 Q 202 227 184 212 Q 179 208 179 206 Q 178 203 187 207 Q 193 208 200 210 Q 205 211 208 210 Q 211 207 211 201" fill="#CCCCCC"/><path d="M 85 62 L 84 62 Q 69 64 59 59 Q 52 54 62 53 Q 71 51 97 46 Q 128 37 135 38 Q 142 40 144 43 Q 146 45 143 47 Q 140 49 98 59" fill="#000080" clip-path="url(#clip-mask-1)" /><path d="M 62 129 Q 58 131 55 129 Q 49 123 48 119 Q 47 116 51 113 Q 64 104 70 95 Q 88 74 85 62 L 98 59 Q 106 64 107 67 Q 109 70 106 72 Q 100 77 75 107" fill="#000080" clip-path="url(#clip-mask-2)" /><path d="M 89 116 Q 73 120 62 129 L 75 107 Q 73 109 74 110 Q 74 111 77 110 Q 102 102 127 98 L 130 104 Q 128 105 126 105 Q 110 109 99 113" fill="#000080" clip-path="url(#clip-mask-3)" /><path d="M 127 98 Q 120 86 120 85 Q 121 82 122 81 Q 123 81 126 83 Q 147 97 147 105 Q 147 113 145 115 Q 143 117 141 117 Q 137 116 130 104" fill="#000080" clip-path="url(#clip-mask-4)" /><path d="M 94 157 Q 91 157 89 158 Q 75 161 65 157 Q 59 153 67 151 Q 81 149 93 146 L 108 142 Q 122 137 128 138 Q 135 140 137 142 Q 138 144 136 146 Q 135 147 107 154" fill="#000080" clip-path="url(#clip-mask-5)" /><path d="M 94 169 L 94 157 L 93 146 Q 92 121 89 116 L 99 113 Q 103 115 108 120 Q 109 122 108 142 L 107 154 Q 106 168 106 184 L 94 187" fill="#000080" clip-path="url(#clip-mask-6)" /><path d="M 106 184 Q 125 179 142 174 Q 146 174 147 175 Q 147 179 143 180 Q 135 185 126 189 Q 72 209 59 218 Q 56 220 53 219 Q 43 213 36 208 Q 33 205 34 201 Q 35 198 39 198 Q 49 199 55 197 Q 75 192 94 187" fill="#000080" clip-path="url(#clip-mask-7)" /><path d="M 160 72 L 162 70 Q 164 69 168 70 Q 172 72 177 75 Q 182 78 181 84 Q 179 97 179 139 Q 178 159 173 168 Q 171 171 168 168 Q 161 158 162 148 Q 169 96 161 76" fill="#0000ff" clip-path="url(#clip-mask-8)" /><path d="M 210 41 L 203 33 Q 199 26 204 25 Q 210 23 219 28 Q 236 34 231 43 Q 220 83 229 202 Q 230 223 224 236 Q 220 246 216 246 Q 211 245 206 236 L 211 201 Q 211 60 210 51" fill="#0000ff" clip-path="url(#clip-mask-9)" /><path d="M 206 236 Q 202 227 184 212 Q 179 208 179 206 Q 178 203 187 207 Q 193 208 200 210 Q 205 211 208 210 Q 211 207 211 201" fill="#0000ff" clip-path="url(#clip-mask-10)" /><rect x="52" y="37" width="94" height="27" id="rect-1" fill="transparent" stroke="#000000"><animate attributeName="x" from="-42" to="52" dur="0.348" begin="0; animate10.end + 1s" id="animate1" fill="freeze"/></rect><rect x="47" y="59" width="62" height="72" id="rect-2" fill="transparent" stroke="#000000"><set attributeName="y" to="-13" begin="0; animate10.end + 1s" /><animate attributeName="y" from="-13" to="59" dur="0.267" begin="animate1.end + 0.5" id="animate2" fill="freeze"/></rect><rect x="62" y="98" width="68" height="31" id="rect-3" fill="transparent" stroke="#000000"><set attributeName="x" to="-6" begin="0; animate10.end + 1s" /><animate attributeName="x" from="-6" to="62" dur="0.252" begin="animate2.end" id="animate3" fill="freeze"/></rect><rect x="120" y="81" width="27" height="36" id="rect-4" fill="transparent" stroke="#000000"><set attributeName="y" to="45" begin="0; animate10.end + 1s" /><animate attributeName="y" from="45" to="81" dur="0.133" begin="animate3.end + 0.5" id="animate4" fill="freeze"/></rect><rect x="59" y="137" width="79" height="24" id="rect-5" fill="transparent" stroke="#000000"><set attributeName="x" to="-20" begin="0; animate10.end + 1s" /><animate attributeName="x" from="-20" to="59" dur="0.293" begin="animate4.end + 0.5" id="animate5" fill="freeze"/></rect><rect x="89" y="113" width="20" height="74" id="rect-6" fill="transparent" stroke="#000000"><set attributeName="y" to="39" begin="0; animate10.end + 1s" /><animate attributeName="y" from="39" to="113" dur="0.274" begin="animate5.end + 0.5" id="animate6" fill="freeze"/></rect><rect x="33" y="174" width="114" height="46" id="rect-7" fill="transparent" stroke="#000000"><set attributeName="x" to="-81" begin="0; animate10.end + 1s" /><animate attributeName="x" from="-81" to="33" dur="0.422" begin="animate6.end + 0.5" id="animate7" fill="freeze"/></rect><rect x="160" y="69" width="22" height="102" id="rect-8" fill="transparent" stroke="#000000"><set attributeName="y" to="-33" begin="0; animate10.end + 1s" /><animate attributeName="y" from="-33" to="69" dur="0.378" begin="animate7.end + 0.5" id="animate8" fill="freeze"/></rect><rect x="199" y="23" width="37" height="223" id="rect-9" fill="transparent" stroke="#000000"><set attributeName="y" to="-200" begin="0; animate10.end + 1s" /><animate attributeName="y" from="-200" to="23" dur="0.826" begin="animate8.end + 0.5" id="animate9" fill="freeze"/></rect><rect x="178" y="201" width="33" height="35" id="rect-10" fill="transparent" stroke="#000000"><set attributeName="x" to="211" begin="0; animate10.end + 1s" /><animate attributeName="x" from="211" to="178" dur="0.122" begin="animate9.end" id="animate10" fill="freeze"/></rect></svg>