<svg xmlns="http://www.w3.org/2000/svg" xmlns:xlink="http://www.w3.org/1999/xlink" width="270" height="270"><defs><clipPath id="clip-mask-1"><use xlink:href="#rect-1" /></clipPath><clipPath id="clip-mask-2"><use xlink:href="#rect-2" /></clipPath><clipPath id="clip-mask-3"><use xlink:href="#rect-3" /></clipPath><clipPath id="clip-mask-4"><use xlink:href="#rect-4" /></clipPath><clipPath id="clip-mask-5"><use xlink:href="#rect-5" /></clipPath><clipPath id="clip-mask-6"><use xlink:href="#rect-6" /></clipPath><clipPath id="clip-mask-7"><use xlink:href="#rect-7" /></clipPath><clipPath id="clip-mask-8"><use xlink:href="#rect-8" /></clipPath><clipPath id="clip-mask-9"><use xlink:href="#rect-9" /></clipPath><clipPath id="clip-mask-10"><use xlink:href="#rect-10" /></clipPath><clipPath id="clip-mask-11"><use xlink:href="#rect-11" /></clipPath><clipPath id="clip-mask-12"><use xlink:href="#rect-12" /></clipPath></defs><path d="M 0 0 L 270 270 M 270 0 L 0 270 M 135 0 L 135 270 M 0 135 L 270 135" stroke="#CCCCCC" /><path d="M 92 34 L 91 31 Q 91 27 92 26 Q 95 24 115 29 Q 123 32 125 37 Q 128 45 127 49 Q 126 53 123 53 Q 119 54 115 50 Q 107 44 100 39" fill="#CCCCCC"/><path d="M 123 81 Q 106 84 91 86 Q 78 89 68 83 Q 62 79 70 78 Q 80 77 113 71 Q 138 64 145 65 Q 152 68 154 70 Q 155 72 153 74 Q 151 76 140 78 Q 136 78 132 79" fill="#CCCCCC"/><path d="M 75 98 L 75 95 Q 76 93 77 93 Q 79 93 86 98 Q 95 106 95 115 Q 94 118 92 120 Q 89 122 87 120 Q 81 115 77 102" fill="#CCCCCC"/><path d="M 114 122 L 116 119 Q 126 91 124 82 Q 123 81 123 81 L 132 79 Q 132 79 132 80 Q 139 84 141 88 Q 143 91 140 93 Q 136 98 122 123 L 113 124" fill="#CCCCCC"/><path d="M 122 123 Q 134 121 150 118 Q 156 117 163 121 Q 167 123 167 126 Q 166 129 162 129 Q 104 133 51 146 Q 41 150 31 142 Q 27 138 28 136 Q 29 134 32 133 Q 62 132 113 124" fill="#CCCCCC"/><path d="M 85 214 L 84 218 Q 83 222 78 216 Q 74 212 73 205 Q 68 183 61 170 Q 58 165 60 164 Q 61 162 64 163 Q 70 164 73 165 L 78 172 Q 79 178 83 199 L 85 208" fill="#CCCCCC"/><path d="M 122 167 Q 120 163 111 165 Q 98 168 82 172 Q 80 172 78 172 L 73 165 Q 99 162 115 155 Q 126 150 131 153 Q 138 158 143 162 Q 150 166 143 173" fill="#CCCCCC"/><path d="M 116 192 Q 123 168 122 167 L 143 173 Q 137 177 131 193" fill="#CCCCCC"/><path d="M 83 199 Q 98 196 116 192 L 131 193 Q 137 198 137 199 Q 136 202 133 202 Q 89 206 85 208" fill="#CCCCCC"/><path d="M 171 73 L 174 71 Q 176 70 180 71 Q 185 73 189 76 Q 194 79 193 85 Q 189 108 191 140 Q 191 161 186 170 Q 184 173 181 170 Q 173 159 175 150 Q 181 98 173 77" fill="#CCCCCC"/><path d="M 217 40 L 211 33 Q 206 27 211 25 Q 216 23 226 28 Q 242 34 237 42 Q 227 78 237 203 Q 238 224 232 237 Q 228 246 224 246 Q 220 246 217 237 L 216 211 Q 219 209 219 203 Q 219 59 218 50" fill="#CCCCCC"/><path d="M 217 237 Q 214 230 200 216 Q 194 212 194 210 Q 194 207 203 211 Q 215 212 216 211" fill="#CCCCCC"/><path d="M 92 34 L 91 31 Q 91 27 92 26 Q 95 24 115 29 Q 123 32 125 37 Q 128 45 127 49 Q 126 53 123 53 Q 119 54 115 50 Q 107 44 100 39" fill="#000080" clip-path="url(#clip-mask-1)" /><path d="M 123 81 Q 106 84 91 86 Q 78 89 68 83 Q 62 79 70 78 Q 80 77 113 71 Q 138 64 145 65 Q 152 68 154 70 Q 155 72 153 74 Q 151 76 140 78 Q 136 78 132 79" fill="#000080" clip-path="url(#clip-mask-2)" /><path d="M 75 98 L 75 95 Q 76 93 77 93 Q 79 93 86 98 Q 95 106 95 115 Q 94 118 92 120 Q 89 122 87 120 Q 81 115 77 102" fill="#000080" clip-path="url(#clip-mask-3)" /><path d="M 114 122 L 116 119 Q 126 91 124 82 Q 123 81 123 81 L 132 79 Q 132 79 132 80 Q 139 84 141 88 Q 143 91 140 93 Q 136 98 122 123 L 113 124" fill="#000080" clip-path="url(#clip-mask-4)" /><path d="M 122 123 Q 134 121 150 118 Q 156 117 163 121 Q 167 123 167 126 Q 166 129 162 129 Q 104 133 51 146 Q 41 150 31 142 Q 27 138 28 136 Q 29 134 32 133 Q 62 132 113 124" fill="#000080" clip-path="url(#clip-mask-5)" /><path d="M 85 214 L 84 218 Q 83 222 78 216 Q 74 212 73 205 Q 68 183 61 170 Q 58 165 60 164 Q 61 162 64 163 Q 70 164 73 165 L 78 172 Q 79 178 83 199 L 85 208" fill="#000080" clip-path="url(#clip-mask-6)" /><path d="M 122 167 Q 120 163 111 165 Q 98 168 82 172 Q 80 172 78 172 L 73 165 Q 99 162 115 155 Q 126 150 131 153 Q 138 158 143 162 Q 150 166 143 173" fill="#000080" clip-path="url(#clip-mask-7)" /><path d="M 116 192 Q 123 168 122 167 L 143 173 Q 137 177 131 193" fill="#000080" clip-path="url(#clip-mask-8)" /><path d="M 83 199 Q 98 196 116 192 L 131 193 Q 137 198 137 199 Q 136 202 133 202 Q 89 206 85 208" fill="#000080" clip-path="url(#clip-mask-9)" /><path d="M 171 73 L 174 71 Q 176 70 180 71 Q 185 73 189 76 Q 194 79 193 85 Q 189 108 191 140 Q 191 161 186 170 Q 184 173 181 170 Q 173 159 175 150 Q 181 98 173 77" fill="#0000ff" clip-path="url(#clip-mask-10)" /><path d="M 217 40 L 211 33 Q 206 27 211 25 Q 216 23 226 28 Q 242 34 237 42 Q 227 78 237 203 Q 238 224 232 237 Q 228 246 224 246 Q 220 246 217 237 L 216 211 Q 219 209 219 203 Q 219 59 218 50" fill="#0000ff" clip-path="url(#clip-mask-11)" /><path d="M 217 237 Q 214 230 200 216 Q 194 212 194 210 Q 194 207 203 211 Q 215 212 216 211" fill="#0000ff" clip-path="url(#clip-mask-12)" /><rect x="91" y="24" width="37" height="30" id="rect-1" fill="transparent" stroke="#000000"><animate attributeName="x" from="54" to="91" dur="0.137" begin="0; animate12.end + 1s" id="animate1" fill="freeze"/></rect><rect x="62" y="64" width="93" height="25" id="rect-2" fill="transparent" stroke="#000000"><set attributeName="x" to="-31" begin="0; animate12.end + 1s" /><animate attributeName="x" from="-31" to="62" dur="0.344" begin="animate1.end + 0.5" id="animate2" fill="freeze"/></rect><rect x="75" y="93" width="20" height="29" id="rect-3" fill="transparent" stroke="#000000"><set attributeName="y" to="64" begin="0; animate12.end + 1s" /><animate attributeName="y" from="64" to="93" dur="0.107" begin="animate2.end + 0.5" id="animate3" fill="freeze"/></rect><rect x="113" y="79" width="30" height="45" id="rect-4" fill="transparent" stroke="#000000"><set attributeName="y" to="34" begin="0; animate12.end + 1s" /><animate attributeName="y" from="34" to="79" dur="0.167" begin="animate3.end + 0.5" id="animate4" fill="freeze"/></rect><rect x="27" y="117" width="140" height="33" id="rect-5" fill="transparent" stroke="#000000"><set attributeName="x" to="-113" begin="0; animate12.end + 1s" /><animate attributeName="x" from="-113" to="27" dur="0.519" begin="animate4.end + 0.5" id="animate5" fill="freeze"/></rect><rect x="58" y="162" width="27" height="60" id="rect-6" fill="transparent" stroke="#000000"><set attributeName="y" to="102" begin="0; animate12.end + 1s" /><animate attributeName="y" from="102" to="162" dur="0.222" begin="animate5.end + 0.5" id="animate6" fill="freeze"/></rect><rect x="73" y="150" width="77" height="23" id="rect-7" fill="transparent" stroke="#000000"><set attributeName="x" to="-4" begin="0; animate12.end + 1s" /><animate attributeName="x" from="-4" to="73" dur="0.285" begin="animate6.end + 0.5" id="animate7" fill="freeze"/></rect><rect x="116" y="167" width="27" height="26" id="rect-8" fill="transparent" stroke="#000000"><set attributeName="y" to="141" begin="0; animate12.end + 1s" /><animate attributeName="y" from="141" to="167" dur="0.096" begin="animate7.end" id="animate8" fill="freeze"/></rect><rect x="83" y="192" width="54" height="16" id="rect-9" fill="transparent" stroke="#000000"><set attributeName="x" to="29" begin="0; animate12.end + 1s" /><animate attributeName="x" from="29" to="83" dur="0.200" begin="animate8.end + 0.5" id="animate9" fill="freeze"/></rect><rect x="171" y="70" width="23" height="103" id="rect-10" fill="transparent" stroke="#000000"><set attributeName="y" to="-33" begin="0; animate12.end + 1s" /><animate attributeName="y" from="-33" to="70" dur="0.381" begin="animate9.end + 0.5" id="animate10" fill="freeze"/></rect><rect x="206" y="23" width="36" height="223" id="rect-11" fill="transparent" stroke="#000000"><set attributeName="y" to="-200" begin="0; animate12.end + 1s" /><animate attributeName="y" from="-200" to="23" dur="0.826" begin="animate10.end + 0.5" id="animate11" fill="freeze"/></rect><rect x="194" y="207" width="23" height="30" id="rect-12" fill="transparent" stroke="#000000"><set attributeName="x" to="217" begin="0; animate12.end + 1s" /><animate attributeName="x" from="217" to="194" dur="0.085" begin="animate11.end" id="animate12" fill="freeze"/></rect></svg>