<svg xmlns="http://www.w3.org/2000/svg" xmlns:xlink="http://www.w3.org/1999/xlink" width="270" height="270"><defs><clipPath id="clip-mask-1"><use xlink:href="#rect-1" /></clipPath><clipPath id="clip-mask-2"><use xlink:href="#rect-2" /></clipPath><clipPath id="clip-mask-3"><use xlink:href="#rect-3" /></clipPath><clipPath id="clip-mask-4"><use xlink:href="#rect-4" /></clipPath><clipPath id="clip-mask-5"><use xlink:href="#rect-5" /></clipPath><clipPath id="clip-mask-6"><use xlink:href="#rect-6" /></clipPath><clipPath id="clip-mask-7"><use xlink:href="#rect-7" /></clipPath><clipPath id="clip-mask-8"><use xlink:href="#rect-8" /></clipPath><clipPath id="clip-mask-9"><use xlink:href="#rect-9" /></clipPath><clipPath id="clip-mask-10"><use xlink:href="#rect-10" /></clipPath><clipPath id="clip-mask-11"><use xlink:href="#rect-11" /></clipPath><clipPath id="clip-mask-12"><use xlink:href="#rect-12" /></clipPath><clipPath id="clip-mask-13"><use xlink:href="#rect-13" /></clipPath><clipPath id="clip-mask-14"><use xlink:href="#rect-14" /></clipPath></defs><path d="M 0 0 L 270 270 M 270 0 L 0 270 M 135 0 L 135 270 M 0 135 L 270 135" stroke="#CCCCCC" /><path d="M 57 87 L 55 160 Q 55 199 45 209 Q 43 213 39 209 Q 36 205 34 196 Q 33 190 35 183 Q 46 151 45 86 Q 46 69 40 54 Q 38 51 39 49 Q 41 47 43 47 Q 50 49 56 55 L 60 65" fill="#CCCCCC"/><path d="M 56 55 Q 80 51 122 42 Q 137 37 142 40 Q 153 46 156 49 L 134 52 Q 131 49 126 50 Q 91 56 62 64 Q 60 65 60 65" fill="#CCCCCC"/><path d="M 156 49 Q 158 52 155 57 Q 150 69 154 189 Q 153 205 149 216 Q 146 223 143 224 Q 140 224 135 219 L 134 196 Q 137 193 137 185 Q 141 124 139 70 Q 138 54 134 52" fill="#CCCCCC"/><path d="M 135 219 Q 127 211 113 199 Q 110 197 110 195 Q 110 193 114 194 Q 130 198 134 196" fill="#CCCCCC"/><path d="M 72 70 L 73 69 Q 74 66 76 67 Q 79 68 84 73 Q 89 76 90 79 Q 90 84 89 86 Q 87 90 85 89 Q 80 87 73 72" fill="#CCCCCC"/><path d="M 106 63 L 105 61 Q 104 58 106 57 Q 111 56 115 58 Q 120 60 122 62 Q 123 64 120 66 Q 114 73 101 92 Q 100 93 99 93 Q 98 93 98 91 Q 104 76 106 67" fill="#CCCCCC"/><path d="M 89 108 Q 83 109 79 111 Q 75 112 72 111 Q 70 110 67 108 Q 63 105 68 104 Q 84 101 95 97 Q 96 97 97 97 Q 116 90 120 93 Q 125 95 125 97 Q 123 99 122 99 Q 104 103 95 106" fill="#CCCCCC"/><path d="M 91 150 Q 91 115 89 108 L 95 106 Q 98 108 102 111 Q 103 113 102 117 Q 101 119 99 148" fill="#CCCCCC"/><path d="M 71 168 Q 69 169 66 168 Q 63 166 61 164 Q 60 161 63 158 Q 67 155 68 147 Q 70 138 66 130 Q 65 126 67 126 Q 69 125 71 126 Q 75 129 77 132 Q 78 135 76 152" fill="#CCCCCC"/><path d="M 109 152 L 104 153 Q 77 160 71 168 L 76 152 Q 75 155 78 155 Q 84 152 91 150 L 99 148 Q 106 146 113 145 L 112 152" fill="#CCCCCC"/><path d="M 113 145 Q 113 144 114 144 Q 120 129 115 121 Q 115 118 116 118 Q 119 117 120 118 Q 126 122 129 125 Q 131 128 129 130 Q 127 132 124 143 Q 122 158 117 162 Q 115 163 114 160 Q 112 157 112 152" fill="#CCCCCC"/><path d="M 171 68 L 173 67 Q 177 65 187 71 Q 192 74 190 79 Q 188 92 188 126 Q 188 148 184 156 Q 181 159 179 156 L 179 156 Q 172 146 174 138 Q 179 88 172 72" fill="#CCCCCC"/><path d="M 212 40 L 207 32 Q 202 26 207 24 Q 212 23 221 28 Q 236 34 232 42 Q 229 54 228 78 Q 227 142 232 205 Q 231 225 226 237 Q 222 246 218 246 Q 214 246 210 236 L 211 212 Q 214 210 214 204 Q 214 58 213 49" fill="#CCCCCC"/><path d="M 210 236 Q 206 228 191 214 Q 186 209 186 207 Q 185 204 194 209 Q 211 212 211 212" fill="#CCCCCC"/><path d="M 57 87 L 55 160 Q 55 199 45 209 Q 43 213 39 209 Q 36 205 34 196 Q 33 190 35 183 Q 46 151 45 86 Q 46 69 40 54 Q 38 51 39 49 Q 41 47 43 47 Q 50 49 56 55 L 60 65" fill="#000080" clip-path="url(#clip-mask-1)" /><path d="M 56 55 Q 80 51 122 42 Q 137 37 142 40 Q 153 46 156 49 L 134 52 Q 131 49 126 50 Q 91 56 62 64 Q 60 65 60 65" fill="#000080" clip-path="url(#clip-mask-2)" /><path d="M 156 49 Q 158 52 155 57 Q 150 69 154 189 Q 153 205 149 216 Q 146 223 143 224 Q 140 224 135 219 L 134 196 Q 137 193 137 185 Q 141 124 139 70 Q 138 54 134 52" fill="#000080" clip-path="url(#clip-mask-3)" /><path d="M 135 219 Q 127 211 113 199 Q 110 197 110 195 Q 110 193 114 194 Q 130 198 134 196" fill="#000080" clip-path="url(#clip-mask-4)" /><path d="M 72 70 L 73 69 Q 74 66 76 67 Q 79 68 84 73 Q 89 76 90 79 Q 90 84 89 86 Q 87 90 85 89 Q 80 87 73 72" fill="#000080" clip-path="url(#clip-mask-5)" /><path d="M 106 63 L 105 61 Q 104 58 106 57 Q 111 56 115 58 Q 120 60 122 62 Q 123 64 120 66 Q 114 73 101 92 Q 100 93 99 93 Q 98 93 98 91 Q 104 76 106 67" fill="#000080" clip-path="url(#clip-mask-6)" /><path d="M 89 108 Q 83 109 79 111 Q 75 112 72 111 Q 70 110 67 108 Q 63 105 68 104 Q 84 101 95 97 Q 96 97 97 97 Q 116 90 120 93 Q 125 95 125 97 Q 123 99 122 99 Q 104 103 95 106" fill="#000080" clip-path="url(#clip-mask-7)" /><path d="M 91 150 Q 91 115 89 108 L 95 106 Q 98 108 102 111 Q 103 113 102 117 Q 101 119 99 148" fill="#000080" clip-path="url(#clip-mask-8)" /><path d="M 71 168 Q 69 169 66 168 Q 63 166 61 164 Q 60 161 63 158 Q 67 155 68 147 Q 70 138 66 130 Q 65 126 67 126 Q 69 125 71 126 Q 75 129 77 132 Q 78 135 76 152" fill="#000080" clip-path="url(#clip-mask-9)" /><path d="M 109 152 L 104 153 Q 77 160 71 168 L 76 152 Q 75 155 78 155 Q 84 152 91 150 L 99 148 Q 106 146 113 145 L 112 152" fill="#000080" clip-path="url(#clip-mask-10)" /><path d="M 113 145 Q 113 144 114 144 Q 120 129 115 121 Q 115 118 116 118 Q 119 117 120 118 Q 126 122 129 125 Q 131 128 129 130 Q 127 132 124 143 Q 122 158 117 162 Q 115 163 114 160 Q 112 157 112 152" fill="#000080" clip-path="url(#clip-mask-11)" /><path d="M 171 68 L 173 67 Q 177 65 187 71 Q 192 74 190 79 Q 188 92 188 126 Q 188 148 184 156 Q 181 159 179 156 L 179 156 Q 172 146 174 138 Q 179 88 172 72" fill="#0000ff" clip-path="url(#clip-mask-12)" /><path d="M 212 40 L 207 32 Q 202 26 207 24 Q 212 23 221 28 Q 236 34 232 42 Q 229 54 228 78 Q 227 142 232 205 Q 231 225 226 237 Q 222 246 218 246 Q 214 246 210 236 L 211 212 Q 214 210 214 204 Q 214 58 213 49" fill="#0000ff" clip-path="url(#clip-mask-13)" /><path d="M 210 236 Q 206 228 191 214 Q 186 209 186 207 Q 185 204 194 209 Q 211 212 211 212" fill="#0000ff" clip-path="url(#clip-mask-14)" /><rect x="33" y="47" width="27" height="166" id="rect-1" fill="transparent" stroke="#000000"><animate attributeName="y" from="-119" to="47" dur="0.615" begin="0; animate14.end + 1s" id="animate1" fill="freeze"/></rect><rect x="56" y="37" width="100" height="28" id="rect-2" fill="transparent" stroke="#000000"><set attributeName="x" to="-44" begin="0; animate14.end + 1s" /><animate attributeName="x" from="-44" to="56" dur="0.370" begin="animate1.end + 0.5" id="animate2" fill="freeze"/></rect><rect x="134" y="49" width="24" height="175" id="rect-3" fill="transparent" stroke="#000000"><set attributeName="y" to="-126" begin="0; animate14.end + 1s" /><animate attributeName="y" from="-126" to="49" dur="0.648" begin="animate2.end" id="animate3" fill="freeze"/></rect><rect x="110" y="193" width="25" height="26" id="rect-4" fill="transparent" stroke="#000000"><set attributeName="x" to="135" begin="0; animate14.end + 1s" /><animate attributeName="x" from="135" to="110" dur="0.093" begin="animate3.end" id="animate4" fill="freeze"/></rect><rect x="72" y="66" width="18" height="24" id="rect-5" fill="transparent" stroke="#000000"><set attributeName="y" to="42" begin="0; animate14.end + 1s" /><animate attributeName="y" from="42" to="66" dur="0.089" begin="animate4.end + 0.5" id="animate5" fill="freeze"/></rect><rect x="98" y="56" width="25" height="37" id="rect-6" fill="transparent" stroke="#000000"><set attributeName="y" to="19" begin="0; animate14.end + 1s" /><animate attributeName="y" from="19" to="56" dur="0.137" begin="animate5.end + 0.5" id="animate6" fill="freeze"/></rect><rect x="63" y="90" width="62" height="22" id="rect-7" fill="transparent" stroke="#000000"><set attributeName="x" to="1" begin="0; animate14.end + 1s" /><animate attributeName="x" from="1" to="63" dur="0.230" begin="animate6.end + 0.5" id="animate7" fill="freeze"/></rect><rect x="89" y="106" width="14" height="44" id="rect-8" fill="transparent" stroke="#000000"><set attributeName="y" to="62" begin="0; animate14.end + 1s" /><animate attributeName="y" from="62" to="106" dur="0.163" begin="animate7.end + 0.5" id="animate8" fill="freeze"/></rect><rect x="60" y="125" width="18" height="44" id="rect-9" fill="transparent" stroke="#000000"><set attributeName="y" to="81" begin="0; animate14.end + 1s" /><animate attributeName="y" from="81" to="125" dur="0.163" begin="animate8.end + 0.5" id="animate9" fill="freeze"/></rect><rect x="71" y="145" width="42" height="23" id="rect-10" fill="transparent" stroke="#000000"><set attributeName="x" to="29" begin="0; animate14.end + 1s" /><animate attributeName="x" from="29" to="71" dur="0.156" begin="animate9.end" id="animate10" fill="freeze"/></rect><rect x="112" y="117" width="19" height="46" id="rect-11" fill="transparent" stroke="#000000"><set attributeName="y" to="71" begin="0; animate14.end + 1s" /><animate attributeName="y" from="71" to="117" dur="0.170" begin="animate10.end + 0.5" id="animate11" fill="freeze"/></rect><rect x="171" y="65" width="21" height="94" id="rect-12" fill="transparent" stroke="#000000"><set attributeName="y" to="-29" begin="0; animate14.end + 1s" /><animate attributeName="y" from="-29" to="65" dur="0.348" begin="animate11.end + 0.5" id="animate12" fill="freeze"/></rect><rect x="202" y="23" width="34" height="223" id="rect-13" fill="transparent" stroke="#000000"><set attributeName="y" to="-200" begin="0; animate14.end + 1s" /><animate attributeName="y" from="-200" to="23" dur="0.826" begin="animate12.end + 0.5" id="animate13" fill="freeze"/></rect><rect x="185" y="204" width="26" height="32" id="rect-14" fill="transparent" stroke="#000000"><set attributeName="x" to="211" begin="0; animate14.end + 1s" /><animate attributeName="x" from="211" to="185" dur="0.096" begin="animate13.end" id="animate14" fill="freeze"/></rect></svg>