<svg xmlns="http://www.w3.org/2000/svg" xmlns:xlink="http://www.w3.org/1999/xlink" width="270" height="270"><defs><clipPath id="clip-mask-1"><use xlink:href="#rect-1" /></clipPath><clipPath id="clip-mask-2"><use xlink:href="#rect-2" /></clipPath><clipPath id="clip-mask-3"><use xlink:href="#rect-3" /></clipPath><clipPath id="clip-mask-4"><use xlink:href="#rect-4" /></clipPath><clipPath id="clip-mask-5"><use xlink:href="#rect-5" /></clipPath><clipPath id="clip-mask-6"><use xlink:href="#rect-6" /></clipPath><clipPath id="clip-mask-7"><use xlink:href="#rect-7" /></clipPath><clipPath id="clip-mask-8"><use xlink:href="#rect-8" /></clipPath><clipPath id="clip-mask-9"><use xlink:href="#rect-9" /></clipPath><clipPath id="clip-mask-10"><use xlink:href="#rect-10" /></clipPath><clipPath id="clip-mask-11"><use xlink:href="#rect-11" /></clipPath><clipPath id="clip-mask-12"><use xlink:href="#rect-12" /></clipPath><clipPath id="clip-mask-13"><use xlink:href="#rect-13" /></clipPath><clipPath id="clip-mask-14"><use xlink:href="#rect-14" /></clipPath><clipPath id="clip-mask-15"><use xlink:href="#rect-15" /></clipPath></defs><path d="M 0 0 L 270 270 M 270 0 L 0 270 M 135 0 L 135 270 M 0 135 L 270 135" stroke="#CCCCCC" /><path d="M 90 53 Q 69 60 64 60 Q 62 59 64 57 Q 114 33 114 23 Q 114 20 116 19 Q 125 18 140 29 Q 143 31 142 34 Q 141 36 137 36 Q 131 38 101 49" fill="#CCCCCC"/><path d="M 98 83 Q 76 88 59 92 Q 53 93 45 88 Q 40 84 46 83 Q 59 81 71 80 Q 84 78 98 75 L 111 72 Q 114 70 117 70 Q 141 63 148 68 Q 153 70 153 72 Q 151 75 149 75 Q 114 80 110 80" fill="#CCCCCC"/><path d="M 108 212 L 108 220 Q 108 227 106 232 Q 104 237 102 238 Q 100 240 99 239 Q 97 238 95 234 Q 90 219 92 211 Q 97 190 97 163 L 98 138 Q 99 108 98 83 L 98 75 Q 97 64 90 53 L 101 49 Q 113 56 114 58 Q 115 62 113 65 Q 112 68 111 72 L 110 80 Q 109 86 108 163 L 108 168" fill="#CCCCCC"/><path d="M 68 140 L 68 140 Q 69 131 69 124 Q 69 124 69 124 L 69 115 Q 67 106 66 103 Q 65 100 67 99 Q 69 98 71 98 Q 75 101 78 102 Q 82 105 81 109 Q 78 123 80 139 Q 80 146 76 152 Q 74 155 72 152 Q 70 150 69 146 L 68 141" fill="#CCCCCC"/><path d="M 69 124 Q 63 124 58 126 Q 48 129 40 125 Q 35 122 42 121 Q 51 120 59 117 Q 64 115 69 115" fill="#CCCCCC"/><path d="M 69 146 Q 55 154 50 159 Q 48 160 46 160 Q 40 157 36 155 Q 34 153 35 151 Q 35 149 37 149 Q 41 149 68 141" fill="#CCCCCC"/><path d="M 151 97 L 152 93 Q 153 89 156 90 Q 160 91 163 96 Q 165 101 165 104 Q 165 106 162 106 Q 151 109 130 117 L 130 111" fill="#CCCCCC"/><path d="M 130 117 Q 128 127 131 133 L 125 143 Q 120 137 122 108 Q 122 101 120 93 Q 119 90 120 89 Q 122 88 124 89 Q 128 91 131 93 Q 133 95 132 98 Q 131 105 130 111" fill="#CCCCCC"/><path d="M 131 133 Q 132 135 134 136 Q 140 139 147 138 L 167 138 Q 169 142 165 144 Q 161 147 156 149 Q 137 152 125 143" fill="#CCCCCC"/><path d="M 147 138 Q 152 137 161 120 Q 162 117 163 118 Q 164 119 164 122 Q 165 134 167 138" fill="#CCCCCC"/><path d="M 97 163 Q 97 164 97 164 Q 73 192 52 204 Q 32 215 27 213 Q 25 212 28 209 Q 78 175 96 141 Q 97 139 98 138" fill="#CCCCCC"/><path d="M 108 163 Q 108 162 109 163 Q 150 169 155 182 Q 160 191 158 194 Q 157 197 155 197 Q 151 197 147 193 Q 126 179 110 169 Q 109 169 108 168" fill="#CCCCCC"/><path d="M 174 78 L 176 76 Q 180 75 190 81 Q 195 83 193 89 Q 191 102 191 135 Q 191 158 186 166 Q 184 168 182 166 L 181 165 Q 175 156 177 147 Q 182 97 175 82" fill="#CCCCCC"/><path d="M 219 45 L 213 38 Q 209 32 214 30 Q 219 28 228 33 Q 244 39 239 48 Q 236 61 235 85 Q 233 146 238 207 Q 238 228 233 241 Q 228 251 224 250 Q 221 250 217 241 L 217 215 Q 220 212 220 207 Q 221 65 220 55" fill="#CCCCCC"/><path d="M 217 241 Q 214 233 199 219 Q 194 215 194 213 Q 193 210 202 214 Q 217 215 217 215" fill="#CCCCCC"/><path d="M 90 53 Q 69 60 64 60 Q 62 59 64 57 Q 114 33 114 23 Q 114 20 116 19 Q 125 18 140 29 Q 143 31 142 34 Q 141 36 137 36 Q 131 38 101 49" fill="#000080" clip-path="url(#clip-mask-1)" /><path d="M 98 83 Q 76 88 59 92 Q 53 93 45 88 Q 40 84 46 83 Q 59 81 71 80 Q 84 78 98 75 L 111 72 Q 114 70 117 70 Q 141 63 148 68 Q 153 70 153 72 Q 151 75 149 75 Q 114 80 110 80" fill="#000080" clip-path="url(#clip-mask-2)" /><path d="M 108 212 L 108 220 Q 108 227 106 232 Q 104 237 102 238 Q 100 240 99 239 Q 97 238 95 234 Q 90 219 92 211 Q 97 190 97 163 L 98 138 Q 99 108 98 83 L 98 75 Q 97 64 90 53 L 101 49 Q 113 56 114 58 Q 115 62 113 65 Q 112 68 111 72 L 110 80 Q 109 86 108 163 L 108 168" fill="#000080" clip-path="url(#clip-mask-3)" /><path d="M 68 140 L 68 140 Q 69 131 69 124 Q 69 124 69 124 L 69 115 Q 67 106 66 103 Q 65 100 67 99 Q 69 98 71 98 Q 75 101 78 102 Q 82 105 81 109 Q 78 123 80 139 Q 80 146 76 152 Q 74 155 72 152 Q 70 150 69 146 L 68 141" fill="#000080" clip-path="url(#clip-mask-4)" /><path d="M 69 124 Q 63 124 58 126 Q 48 129 40 125 Q 35 122 42 121 Q 51 120 59 117 Q 64 115 69 115" fill="#000080" clip-path="url(#clip-mask-5)" /><path d="M 69 146 Q 55 154 50 159 Q 48 160 46 160 Q 40 157 36 155 Q 34 153 35 151 Q 35 149 37 149 Q 41 149 68 141" fill="#000080" clip-path="url(#clip-mask-6)" /><path d="M 151 97 L 152 93 Q 153 89 156 90 Q 160 91 163 96 Q 165 101 165 104 Q 165 106 162 106 Q 151 109 130 117 L 130 111" fill="#000080" clip-path="url(#clip-mask-7)" /><path d="M 130 117 Q 128 127 131 133 L 125 143 Q 120 137 122 108 Q 122 101 120 93 Q 119 90 120 89 Q 122 88 124 89 Q 128 91 131 93 Q 133 95 132 98 Q 131 105 130 111" fill="#000080" clip-path="url(#clip-mask-8)" /><path d="M 131 133 Q 132 135 134 136 Q 140 139 147 138 L 167 138 Q 169 142 165 144 Q 161 147 156 149 Q 137 152 125 143" fill="#000080" clip-path="url(#clip-mask-9)" /><path d="M 147 138 Q 152 137 161 120 Q 162 117 163 118 Q 164 119 164 122 Q 165 134 167 138" fill="#000080" clip-path="url(#clip-mask-10)" /><path d="M 97 163 Q 97 164 97 164 Q 73 192 52 204 Q 32 215 27 213 Q 25 212 28 209 Q 78 175 96 141 Q 97 139 98 138" fill="#000080" clip-path="url(#clip-mask-11)" /><path d="M 108 163 Q 108 162 109 163 Q 150 169 155 182 Q 160 191 158 194 Q 157 197 155 197 Q 151 197 147 193 Q 126 179 110 169 Q 109 169 108 168" fill="#000080" clip-path="url(#clip-mask-12)" /><path d="M 174 78 L 176 76 Q 180 75 190 81 Q 195 83 193 89 Q 191 102 191 135 Q 191 158 186 166 Q 184 168 182 166 L 181 165 Q 175 156 177 147 Q 182 97 175 82" fill="#0000ff" clip-path="url(#clip-mask-13)" /><path d="M 219 45 L 213 38 Q 209 32 214 30 Q 219 28 228 33 Q 244 39 239 48 Q 236 61 235 85 Q 233 146 238 207 Q 238 228 233 241 Q 228 251 224 250 Q 221 250 217 241 L 217 215 Q 220 212 220 207 Q 221 65 220 55" fill="#0000ff" clip-path="url(#clip-mask-14)" /><path d="M 217 241 Q 214 233 199 219 Q 194 215 194 213 Q 193 210 202 214 Q 217 215 217 215" fill="#0000ff" clip-path="url(#clip-mask-15)" /><rect x="62" y="18" width="81" height="42" id="rect-1" fill="transparent" stroke="#000000"><animate attributeName="x" from="143" to="62" dur="0.300" begin="0; animate15.end + 1s" id="animate1" fill="freeze"/></rect><rect x="40" y="63" width="113" height="30" id="rect-2" fill="transparent" stroke="#000000"><set attributeName="x" to="-73" begin="0; animate15.end + 1s" /><animate attributeName="x" from="-73" to="40" dur="0.419" begin="animate1.end + 0.5" id="animate2" fill="freeze"/></rect><rect x="90" y="49" width="25" height="191" id="rect-3" fill="transparent" stroke="#000000"><set attributeName="y" to="-142" begin="0; animate15.end + 1s" /><animate attributeName="y" from="-142" to="49" dur="0.707" begin="animate2.end + 0.5" id="animate3" fill="freeze"/></rect><rect x="65" y="98" width="17" height="57" id="rect-4" fill="transparent" stroke="#000000"><set attributeName="y" to="41" begin="0; animate15.end + 1s" /><animate attributeName="y" from="41" to="98" dur="0.211" begin="animate3.end + 0.5" id="animate4" fill="freeze"/></rect><rect x="35" y="115" width="34" height="14" id="rect-5" fill="transparent" stroke="#000000"><set attributeName="x" to="1" begin="0; animate15.end + 1s" /><animate attributeName="x" from="1" to="35" dur="0.126" begin="animate4.end + 0.5" id="animate5" fill="freeze"/></rect><rect x="34" y="141" width="35" height="19" id="rect-6" fill="transparent" stroke="#000000"><set attributeName="x" to="-1" begin="0; animate15.end + 1s" /><animate attributeName="x" from="-1" to="34" dur="0.130" begin="animate5.end + 0.5" id="animate6" fill="freeze"/></rect><rect x="130" y="89" width="35" height="28" id="rect-7" fill="transparent" stroke="#000000"><set attributeName="x" to="165" begin="0; animate15.end + 1s" /><animate attributeName="x" from="165" to="130" dur="0.130" begin="animate6.end + 0.5" id="animate7" fill="freeze"/></rect><rect x="119" y="88" width="14" height="55" id="rect-8" fill="transparent" stroke="#000000"><set attributeName="y" to="33" begin="0; animate15.end + 1s" /><animate attributeName="y" from="33" to="88" dur="0.204" begin="animate7.end + 0.5" id="animate8" fill="freeze"/></rect><rect x="125" y="133" width="44" height="19" id="rect-9" fill="transparent" stroke="#000000"><set attributeName="x" to="81" begin="0; animate15.end + 1s" /><animate attributeName="x" from="81" to="125" dur="0.163" begin="animate8.end" id="animate9" fill="freeze"/></rect><rect x="147" y="117" width="20" height="21" id="rect-10" fill="transparent" stroke="#000000"><set attributeName="y" to="138" begin="0; animate15.end + 1s" /><animate attributeName="y" from="138" to="117" dur="0.078" begin="animate9.end" id="animate10" fill="freeze"/></rect><rect x="25" y="138" width="73" height="77" id="rect-11" fill="transparent" stroke="#000000"><set attributeName="x" to="98" begin="0; animate15.end + 1s" /><animate attributeName="x" from="98" to="25" dur="0.270" begin="animate10.end + 0.5" id="animate11" fill="freeze"/></rect><rect x="108" y="162" width="52" height="35" id="rect-12" fill="transparent" stroke="#000000"><set attributeName="x" to="56" begin="0; animate15.end + 1s" /><animate attributeName="x" from="56" to="108" dur="0.193" begin="animate11.end + 0.5" id="animate12" fill="freeze"/></rect><rect x="174" y="75" width="21" height="93" id="rect-13" fill="transparent" stroke="#000000"><set attributeName="y" to="-18" begin="0; animate15.end + 1s" /><animate attributeName="y" from="-18" to="75" dur="0.344" begin="animate12.end + 0.5" id="animate13" fill="freeze"/></rect><rect x="209" y="28" width="35" height="223" id="rect-14" fill="transparent" stroke="#000000"><set attributeName="y" to="-195" begin="0; animate15.end + 1s" /><animate attributeName="y" from="-195" to="28" dur="0.826" begin="animate13.end + 0.5" id="animate14" fill="freeze"/></rect><rect x="193" y="210" width="24" height="31" id="rect-15" fill="transparent" stroke="#000000"><set attributeName="x" to="217" begin="0; animate15.end + 1s" /><animate attributeName="x" from="217" to="193" dur="0.089" begin="animate14.end" id="animate15" fill="freeze"/></rect></svg>