<svg xmlns="http://www.w3.org/2000/svg" xmlns:xlink="http://www.w3.org/1999/xlink" width="270" height="270"><defs><clipPath id="clip-mask-1"><use xlink:href="#rect-1" /></clipPath><clipPath id="clip-mask-2"><use xlink:href="#rect-2" /></clipPath><clipPath id="clip-mask-3"><use xlink:href="#rect-3" /></clipPath><clipPath id="clip-mask-4"><use xlink:href="#rect-4" /></clipPath><clipPath id="clip-mask-5"><use xlink:href="#rect-5" /></clipPath><clipPath id="clip-mask-6"><use xlink:href="#rect-6" /></clipPath><clipPath id="clip-mask-7"><use xlink:href="#rect-7" /></clipPath><clipPath id="clip-mask-8"><use xlink:href="#rect-8" /></clipPath><clipPath id="clip-mask-9"><use xlink:href="#rect-9" /></clipPath><clipPath id="clip-mask-10"><use xlink:href="#rect-10" /></clipPath><clipPath id="clip-mask-11"><use xlink:href="#rect-11" /></clipPath><clipPath id="clip-mask-12"><use xlink:href="#rect-12" /></clipPath><clipPath id="clip-mask-13"><use xlink:href="#rect-13" /></clipPath><clipPath id="clip-mask-14"><use xlink:href="#rect-14" /></clipPath><clipPath id="clip-mask-15"><use xlink:href="#rect-15" /></clipPath><clipPath id="clip-mask-16"><use xlink:href="#rect-16" /></clipPath><clipPath id="clip-mask-17"><use xlink:href="#rect-17" /></clipPath><clipPath id="clip-mask-18"><use xlink:href="#rect-18" /></clipPath><clipPath id="clip-mask-19"><use xlink:href="#rect-19" /></clipPath></defs><path d="M 0 0 L 270 270 M 270 0 L 0 270 M 135 0 L 135 270 M 0 135 L 270 135" stroke="#CCCCCC" /><path d="M 118 43 Q 117 41 113 42 Q 99 45 84 48 Q 83 48 83 41 Q 112 33 116 31 Q 120 29 124 31 Q 135 37 139 39" fill="#CCCCCC"/><path d="M 116 62 Q 118 55 119 47 Q 120 44 118 43 L 139 39 Q 142 43 138 47 Q 132 51 127 63" fill="#CCCCCC"/><path d="M 78 71 Q 95 68 116 62 L 127 63 Q 132 67 132 68 Q 132 70 130 71 Q 98 74 84 78 Q 80 79 77 77" fill="#CCCCCC"/><path d="M 68 105 Q 56 135 27 156 Q 24 158 23 158 Q 21 157 22 155 Q 78 87 64 41 Q 63 38 66 36 Q 68 35 73 37 Q 81 40 83 41 Q 83 48 83 49 Q 81 55 80 61 Q 79 66 78 71 L 77 77 Q 74 89 71 99" fill="#CCCCCC"/><path d="M 87 143 L 86 147 Q 85 150 81 145 Q 78 141 77 136 Q 74 116 68 105 L 71 99 Q 78 101 80 101 L 83 107 Q 83 107 83 107 Q 83 113 86 129 L 87 137" fill="#CCCCCC"/><path d="M 116 103 Q 114 100 106 102 Q 96 104 83 107 L 80 101 Q 104 97 114 91 Q 118 88 123 91 Q 129 95 133 97" fill="#CCCCCC"/><path d="M 112 122 Q 114 116 115 111 Q 117 104 116 103 L 133 97 Q 138 101 133 106 Q 128 110 124 123" fill="#CCCCCC"/><path d="M 86 129 Q 97 127 112 122 Q 112 122 112 122 L 124 123 Q 130 127 130 129 Q 130 131 127 132 Q 91 135 87 137" fill="#CCCCCC"/><path d="M 172 20 L 171 17 Q 171 14 172 13 Q 176 12 189 17 Q 195 19 196 22 Q 198 29 197 32 Q 196 35 194 36 Q 190 36 178 24" fill="#CCCCCC"/><path d="M 201 49 Q 192 51 184 53 Q 163 56 154 51 Q 148 47 156 46 Q 173 45 195 40 Q 221 32 227 34 Q 233 36 235 38 Q 235 40 234 42 Q 232 44 221 46 Q 214 47 209 48" fill="#CCCCCC"/><path d="M 158 64 L 159 62 Q 159 60 161 60 Q 164 61 171 66 Q 175 68 176 72 Q 177 76 177 79 Q 175 82 172 81 Q 167 80 159 66" fill="#CCCCCC"/><path d="M 192 83 Q 192 80 194 76 Q 203 56 201 50 Q 201 50 201 49 L 209 48 Q 209 48 210 48 Q 215 53 217 57 Q 219 60 215 62 Q 212 65 211 67 Q 203 77 199 82" fill="#CCCCCC"/><path d="M 179 95 Q 167 96 157 100 Q 149 102 142 96 Q 139 93 143 92 Q 167 88 188 84 Q 190 83 192 83 L 199 82 Q 210 79 219 77 Q 231 73 244 81 Q 248 84 247 87 Q 245 89 234 89 Q 207 90 191 93" fill="#CCCCCC"/><path d="M 152 129 L 150 127 Q 145 122 149 122 Q 163 119 179 116 L 192 113 Q 214 108 220 109 Q 227 111 229 115 Q 231 118 225 119 Q 210 120 192 123 L 179 126" fill="#CCCCCC"/><path d="M 179 116 Q 179 105 179 95 L 191 93 Q 192 111 192 113 L 192 123 Q 191 135 188 143 Q 186 148 184 146 Q 180 141 179 126" fill="#CCCCCC"/><path d="M 111 175 L 100 178 Q 95 180 88 175 Q 81 171 82 169 Q 83 166 88 166 Q 112 166 142 160 Q 171 155 179 151 Q 184 147 190 150 Q 204 157 207 161 Q 209 164 205 167 L 181 166 Q 180 164 173 165 Q 155 166 133 171 L 122 173" fill="#CCCCCC"/><path d="M 205 167 Q 200 174 197 187 Q 191 225 184 237 Q 177 247 169 252 Q 163 257 158 251 L 157 230 Q 165 232 170 223 Q 177 211 182 181 Q 184 170 181 166" fill="#CCCCCC"/><path d="M 158 251 Q 154 242 143 230 Q 138 223 145 226 Q 151 228 157 230" fill="#CCCCCC"/><path d="M 133 171 Q 133 171 134 171 Q 141 177 142 180 Q 143 183 140 186 Q 136 190 132 195 Q 111 227 87 237 Q 74 243 59 246 Q 56 247 55 246 Q 53 244 55 243 Q 117 210 122 173" fill="#CCCCCC"/><path d="M 118 43 Q 117 41 113 42 Q 99 45 84 48 Q 83 48 83 41 Q 112 33 116 31 Q 120 29 124 31 Q 135 37 139 39" fill="#000080" clip-path="url(#clip-mask-1)" /><path d="M 116 62 Q 118 55 119 47 Q 120 44 118 43 L 139 39 Q 142 43 138 47 Q 132 51 127 63" fill="#000080" clip-path="url(#clip-mask-2)" /><path d="M 78 71 Q 95 68 116 62 L 127 63 Q 132 67 132 68 Q 132 70 130 71 Q 98 74 84 78 Q 80 79 77 77" fill="#000080" clip-path="url(#clip-mask-3)" /><path d="M 68 105 Q 56 135 27 156 Q 24 158 23 158 Q 21 157 22 155 Q 78 87 64 41 Q 63 38 66 36 Q 68 35 73 37 Q 81 40 83 41 Q 83 48 83 49 Q 81 55 80 61 Q 79 66 78 71 L 77 77 Q 74 89 71 99" fill="#000080" clip-path="url(#clip-mask-4)" /><path d="M 87 143 L 86 147 Q 85 150 81 145 Q 78 141 77 136 Q 74 116 68 105 L 71 99 Q 78 101 80 101 L 83 107 Q 83 107 83 107 Q 83 113 86 129 L 87 137" fill="#000080" clip-path="url(#clip-mask-5)" /><path d="M 116 103 Q 114 100 106 102 Q 96 104 83 107 L 80 101 Q 104 97 114 91 Q 118 88 123 91 Q 129 95 133 97" fill="#000080" clip-path="url(#clip-mask-6)" /><path d="M 112 122 Q 114 116 115 111 Q 117 104 116 103 L 133 97 Q 138 101 133 106 Q 128 110 124 123" fill="#000080" clip-path="url(#clip-mask-7)" /><path d="M 86 129 Q 97 127 112 122 Q 112 122 112 122 L 124 123 Q 130 127 130 129 Q 130 131 127 132 Q 91 135 87 137" fill="#000080" clip-path="url(#clip-mask-8)" /><path d="M 172 20 L 171 17 Q 171 14 172 13 Q 176 12 189 17 Q 195 19 196 22 Q 198 29 197 32 Q 196 35 194 36 Q 190 36 178 24" fill="#000080" clip-path="url(#clip-mask-9)" /><path d="M 201 49 Q 192 51 184 53 Q 163 56 154 51 Q 148 47 156 46 Q 173 45 195 40 Q 221 32 227 34 Q 233 36 235 38 Q 235 40 234 42 Q 232 44 221 46 Q 214 47 209 48" fill="#000080" clip-path="url(#clip-mask-10)" /><path d="M 158 64 L 159 62 Q 159 60 161 60 Q 164 61 171 66 Q 175 68 176 72 Q 177 76 177 79 Q 175 82 172 81 Q 167 80 159 66" fill="#000080" clip-path="url(#clip-mask-11)" /><path d="M 192 83 Q 192 80 194 76 Q 203 56 201 50 Q 201 50 201 49 L 209 48 Q 209 48 210 48 Q 215 53 217 57 Q 219 60 215 62 Q 212 65 211 67 Q 203 77 199 82" fill="#000080" clip-path="url(#clip-mask-12)" /><path d="M 179 95 Q 167 96 157 100 Q 149 102 142 96 Q 139 93 143 92 Q 167 88 188 84 Q 190 83 192 83 L 199 82 Q 210 79 219 77 Q 231 73 244 81 Q 248 84 247 87 Q 245 89 234 89 Q 207 90 191 93" fill="#000080" clip-path="url(#clip-mask-13)" /><path d="M 152 129 L 150 127 Q 145 122 149 122 Q 163 119 179 116 L 192 113 Q 214 108 220 109 Q 227 111 229 115 Q 231 118 225 119 Q 210 120 192 123 L 179 126" fill="#000080" clip-path="url(#clip-mask-14)" /><path d="M 179 116 Q 179 105 179 95 L 191 93 Q 192 111 192 113 L 192 123 Q 191 135 188 143 Q 186 148 184 146 Q 180 141 179 126" fill="#000080" clip-path="url(#clip-mask-15)" /><path d="M 111 175 L 100 178 Q 95 180 88 175 Q 81 171 82 169 Q 83 166 88 166 Q 112 166 142 160 Q 171 155 179 151 Q 184 147 190 150 Q 204 157 207 161 Q 209 164 205 167 L 181 166 Q 180 164 173 165 Q 155 166 133 171 L 122 173" fill="#0000ff" clip-path="url(#clip-mask-16)" /><path d="M 205 167 Q 200 174 197 187 Q 191 225 184 237 Q 177 247 169 252 Q 163 257 158 251 L 157 230 Q 165 232 170 223 Q 177 211 182 181 Q 184 170 181 166" fill="#0000ff" clip-path="url(#clip-mask-17)" /><path d="M 158 251 Q 154 242 143 230 Q 138 223 145 226 Q 151 228 157 230" fill="#0000ff" clip-path="url(#clip-mask-18)" /><path d="M 133 171 Q 133 171 134 171 Q 141 177 142 180 Q 143 183 140 186 Q 136 190 132 195 Q 111 227 87 237 Q 74 243 59 246 Q 56 247 55 246 Q 53 244 55 243 Q 117 210 122 173" fill="#0000ff" clip-path="url(#clip-mask-19)" /><rect x="83" y="29" width="56" height="19" id="rect-1" fill="transparent" stroke="#000000"><animate attributeName="x" from="27" to="83" dur="0.207" begin="0; animate19.end + 1s" id="animate1" fill="freeze"/></rect><rect x="116" y="39" width="26" height="24" id="rect-2" fill="transparent" stroke="#000000"><set attributeName="y" to="15" begin="0; animate19.end + 1s" /><animate attributeName="y" from="15" to="39" dur="0.089" begin="animate1.end" id="animate2" fill="freeze"/></rect><rect x="77" y="62" width="55" height="17" id="rect-3" fill="transparent" stroke="#000000"><set attributeName="x" to="22" begin="0; animate19.end + 1s" /><animate attributeName="x" from="22" to="77" dur="0.204" begin="animate2.end + 0.5" id="animate3" fill="freeze"/></rect><rect x="21" y="35" width="62" height="123" id="rect-4" fill="transparent" stroke="#000000"><set attributeName="y" to="-88" begin="0; animate19.end + 1s" /><animate attributeName="y" from="-88" to="35" dur="0.456" begin="animate3.end + 0.5" id="animate4" fill="freeze"/></rect><rect x="68" y="99" width="19" height="51" id="rect-5" fill="transparent" stroke="#000000"><set attributeName="y" to="48" begin="0; animate19.end + 1s" /><animate attributeName="y" from="48" to="99" dur="0.189" begin="animate4.end + 0.5" id="animate5" fill="freeze"/></rect><rect x="80" y="88" width="53" height="19" id="rect-6" fill="transparent" stroke="#000000"><set attributeName="x" to="27" begin="0; animate19.end + 1s" /><animate attributeName="x" from="27" to="80" dur="0.196" begin="animate5.end + 0.5" id="animate6" fill="freeze"/></rect><rect x="112" y="97" width="26" height="26" id="rect-7" fill="transparent" stroke="#000000"><set attributeName="y" to="71" begin="0; animate19.end + 1s" /><animate attributeName="y" from="71" to="97" dur="0.096" begin="animate6.end" id="animate7" fill="freeze"/></rect><rect x="86" y="122" width="44" height="15" id="rect-8" fill="transparent" stroke="#000000"><set attributeName="x" to="42" begin="0; animate19.end + 1s" /><animate attributeName="x" from="42" to="86" dur="0.163" begin="animate7.end + 0.5" id="animate8" fill="freeze"/></rect><rect x="171" y="12" width="27" height="24" id="rect-9" fill="transparent" stroke="#000000"><set attributeName="x" to="144" begin="0; animate19.end + 1s" /><animate attributeName="x" from="144" to="171" dur="0.100" begin="animate8.end + 0.5" id="animate9" fill="freeze"/></rect><rect x="148" y="32" width="87" height="24" id="rect-10" fill="transparent" stroke="#000000"><set attributeName="x" to="61" begin="0; animate19.end + 1s" /><animate attributeName="x" from="61" to="148" dur="0.322" begin="animate9.end + 0.5" id="animate10" fill="freeze"/></rect><rect x="158" y="60" width="19" height="22" id="rect-11" fill="transparent" stroke="#000000"><set attributeName="y" to="38" begin="0; animate19.end + 1s" /><animate attributeName="y" from="38" to="60" dur="0.081" begin="animate10.end + 0.5" id="animate11" fill="freeze"/></rect><rect x="192" y="48" width="27" height="35" id="rect-12" fill="transparent" stroke="#000000"><set attributeName="y" to="13" begin="0; animate19.end + 1s" /><animate attributeName="y" from="13" to="48" dur="0.130" begin="animate11.end + 0.5" id="animate12" fill="freeze"/></rect><rect x="139" y="73" width="109" height="29" id="rect-13" fill="transparent" stroke="#000000"><set attributeName="x" to="30" begin="0; animate19.end + 1s" /><animate attributeName="x" from="30" to="139" dur="0.404" begin="animate12.end + 0.5" id="animate13" fill="freeze"/></rect><rect x="145" y="108" width="86" height="21" id="rect-14" fill="transparent" stroke="#000000"><set attributeName="x" to="59" begin="0; animate19.end + 1s" /><animate attributeName="x" from="59" to="145" dur="0.319" begin="animate13.end + 0.5" id="animate14" fill="freeze"/></rect><rect x="179" y="93" width="13" height="55" id="rect-15" fill="transparent" stroke="#000000"><set attributeName="y" to="38" begin="0; animate19.end + 1s" /><animate attributeName="y" from="38" to="93" dur="0.204" begin="animate14.end + 0.5" id="animate15" fill="freeze"/></rect><rect x="81" y="147" width="128" height="33" id="rect-16" fill="transparent" stroke="#000000"><set attributeName="x" to="-47" begin="0; animate19.end + 1s" /><animate attributeName="x" from="-47" to="81" dur="0.474" begin="animate15.end + 0.5" id="animate16" fill="freeze"/></rect><rect x="157" y="166" width="48" height="91" id="rect-17" fill="transparent" stroke="#000000"><set attributeName="y" to="75" begin="0; animate19.end + 1s" /><animate attributeName="y" from="75" to="166" dur="0.337" begin="animate16.end" id="animate17" fill="freeze"/></rect><rect x="138" y="223" width="20" height="28" id="rect-18" fill="transparent" stroke="#000000"><set attributeName="x" to="158" begin="0; animate19.end + 1s" /><animate attributeName="x" from="158" to="138" dur="0.074" begin="animate17.end" id="animate18" fill="freeze"/></rect><rect x="53" y="171" width="90" height="76" id="rect-19" fill="transparent" stroke="#000000"><set attributeName="y" to="95" begin="0; animate19.end + 1s" /><animate attributeName="y" from="95" to="171" dur="0.281" begin="animate18.end + 0.5" id="animate19" fill="freeze"/></rect></svg>