<svg xmlns="http://www.w3.org/2000/svg" xmlns:xlink="http://www.w3.org/1999/xlink" width="270" height="270"><defs><clipPath id="clip-mask-1"><use xlink:href="#rect-1" /></clipPath><clipPath id="clip-mask-2"><use xlink:href="#rect-2" /></clipPath><clipPath id="clip-mask-3"><use xlink:href="#rect-3" /></clipPath><clipPath id="clip-mask-4"><use xlink:href="#rect-4" /></clipPath><clipPath id="clip-mask-5"><use xlink:href="#rect-5" /></clipPath><clipPath id="clip-mask-6"><use xlink:href="#rect-6" /></clipPath><clipPath id="clip-mask-7"><use xlink:href="#rect-7" /></clipPath><clipPath id="clip-mask-8"><use xlink:href="#rect-8" /></clipPath><clipPath id="clip-mask-9"><use xlink:href="#rect-9" /></clipPath><clipPath id="clip-mask-10"><use xlink:href="#rect-10" /></clipPath><clipPath id="clip-mask-11"><use xlink:href="#rect-11" /></clipPath><clipPath id="clip-mask-12"><use xlink:href="#rect-12" /></clipPath><clipPath id="clip-mask-13"><use xlink:href="#rect-13" /></clipPath><clipPath id="clip-mask-14"><use xlink:href="#rect-14" /></clipPath><clipPath id="clip-mask-15"><use xlink:href="#rect-15" /></clipPath><clipPath id="clip-mask-16"><use xlink:href="#rect-16" /></clipPath><clipPath id="clip-mask-17"><use xlink:href="#rect-17" /></clipPath><clipPath id="clip-mask-18"><use xlink:href="#rect-18" /></clipPath><clipPath id="clip-mask-19"><use xlink:href="#rect-19" /></clipPath><clipPath id="clip-mask-20"><use xlink:href="#rect-20" /></clipPath><clipPath id="clip-mask-21"><use xlink:href="#rect-21" /></clipPath><clipPath id="clip-mask-22"><use xlink:href="#rect-22" /></clipPath><clipPath id="clip-mask-23"><use xlink:href="#rect-23" /></clipPath><clipPath id="clip-mask-24"><use xlink:href="#rect-24" /></clipPath></defs><path d="M 0 0 L 270 270 M 270 0 L 0 270 M 135 0 L 135 270 M 0 135 L 270 135" stroke="#CCCCCC" /><path d="M 93 75 L 93 75 Q 93 78 90 76 Q 85 72 83 61 L 81 54 Q 80 53 80 52 Q 77 43 70 35 Q 66 31 70 28 Q 75 26 84 30 Q 89 31 89 35 Q 89 42 91 52 L 92 58" fill="#CCCCCC"/><path d="M 83 61 Q 71 65 59 68 Q 56 70 52 68 Q 47 65 44 63 Q 43 61 43 59 Q 43 58 57 58 Q 70 55 81 54 L 91 52 Q 97 51 102 50 Q 105 50 105 51 Q 105 53 104 54 Q 101 56 98 57 Q 95 57 92 58" fill="#CCCCCC"/><path d="M 119 71 L 117 73 Q 113 75 113 72 Q 112 68 114 63 Q 123 29 118 20 Q 117 18 119 16 Q 123 15 126 16 Q 135 20 137 23 Q 140 26 137 29 Q 130 41 130 45 L 127 53" fill="#CCCCCC"/><path d="M 130 45 Q 135 43 140 42 Q 158 36 167 43 Q 169 45 169 47 Q 168 49 165 49 Q 151 47 138 52 Q 135 53 127 53" fill="#CCCCCC"/><path d="M 58 120 Q 59 122 58 123 Q 58 125 54 122 Q 51 120 50 117 Q 45 105 40 98 Q 38 95 39 94 Q 40 93 42 93 Q 48 93 51 95 L 54 99 Q 54 103 57 115" fill="#CCCCCC"/><path d="M 76 95 Q 75 93 70 95 Q 54 99 54 99 L 51 95 Q 58 92 71 87 Q 76 81 90 89 Q 94 91 90 96" fill="#CCCCCC"/><path d="M 75 109 Q 76 104 76 99 Q 77 96 76 95 L 90 96 Q 87 99 84 109" fill="#CCCCCC"/><path d="M 62 119 Q 60 120 58 120 L 57 115 Q 65 112 75 109 L 84 109 Q 89 112 89 113 Q 89 114 87 115 Q 76 116 69 118" fill="#CCCCCC"/><path d="M 123 111 L 123 112 Q 122 115 118 112 Q 116 109 115 105 Q 110 92 105 85 Q 103 82 104 81 Q 104 79 106 80 Q 114 80 116 81 L 118 86 Q 119 91 122 104 L 123 109" fill="#CCCCCC"/><path d="M 142 82 Q 140 80 136 82 Q 128 83 118 86 Q 118 86 118 86 L 116 81 Q 123 79 128 78 Q 136 75 140 72 Q 145 70 148 72 Q 153 75 157 78 Q 162 81 157 85" fill="#CCCCCC"/><path d="M 139 100 Q 142 83 142 82 L 157 85 Q 153 89 150 100" fill="#CCCCCC"/><path d="M 122 104 Q 130 102 139 100 L 150 100 Q 154 102 154 103 Q 154 105 152 105 Q 136 108 128 109 Q 126 110 124 110 Q 123 109 123 109" fill="#CCCCCC"/><path d="M 60 156 Q 59 156 59 157 Q 30 193 17 196 Q 14 196 15 194 Q 15 192 18 191 Q 32 175 43 162 Q 66 132 63 121 Q 63 120 62 119 L 69 118 Q 78 121 80 128 Q 80 131 79 133 Q 71 139 67 146" fill="#CCCCCC"/><path d="M 71 214 Q 71 241 68 248 Q 66 254 62 251 Q 51 241 58 217 Q 66 171 60 156 L 67 146 Q 70 149 74 153 Q 76 156 74 162 Q 72 172 72 209" fill="#CCCCCC"/><path d="M 107 128 Q 97 117 97 112 Q 97 110 98 110 Q 100 110 102 111 Q 112 118 113 124 Q 113 125 112 127" fill="#CCCCCC"/><path d="M 104 138 Q 92 139 86 136 Q 81 132 88 131 Q 98 130 107 128 L 112 127 Q 131 121 136 122 Q 142 123 143 125 Q 144 127 142 128 Q 142 129 116 135" fill="#CCCCCC"/><path d="M 106 160 Q 105 159 105 160 Q 94 162 87 158 Q 82 155 89 153 Q 98 152 106 151 L 120 148 Q 126 144 135 145 Q 140 147 141 149 Q 142 150 140 152 Q 139 153 133 154 Q 125 155 119 157" fill="#CCCCCC"/><path d="M 105 185 Q 92 187 85 184 Q 80 180 87 179 Q 97 178 105 177 L 118 174 Q 130 169 137 170 Q 142 172 143 174 Q 144 175 142 177 Q 141 178 134 179 Q 125 181 117 183" fill="#CCCCCC"/><path d="M 105 192 L 105 185 L 105 177 Q 106 166 106 160 L 106 151 Q 105 141 105 139 Q 104 138 104 138 L 116 135 Q 122 141 120 146 Q 120 147 120 148 L 119 157 Q 118 165 118 174 L 117 183 Q 116 191 116 200 L 105 203" fill="#CCCCCC"/><path d="M 116 200 Q 121 199 125 198 Q 137 194 149 201 Q 153 204 152 206 Q 151 208 147 208 Q 109 208 84 216 Q 78 218 71 214 L 72 209 Q 89 205 104 203 Q 105 202 105 203" fill="#CCCCCC"/><path d="M 177 125 L 170 127 Q 165 129 159 126 Q 155 123 155 121 Q 155 119 159 119 Q 169 119 186 116 L 200 112 Q 217 108 228 103 Q 235 100 241 103 Q 249 107 253 112 Q 255 114 251 119 L 228 117 Q 227 116 224 116 Q 211 117 199 120 L 185 123" fill="#CCCCCC"/><path d="M 251 119 Q 245 129 244 145 Q 237 215 219 235 Q 213 242 208 243 L 210 215 Q 214 211 218 197 Q 226 175 229 133 Q 230 122 228 117" fill="#CCCCCC"/><path d="M 208 243 Q 203 243 201 237 Q 197 226 187 212 Q 185 206 190 209 Q 196 212 203 215 Q 207 217 210 215" fill="#CCCCCC"/><path d="M 186 116 Q 190 97 192 74 Q 193 66 186 58 Q 183 53 188 52 Q 192 51 197 54 Q 206 58 210 63 Q 213 65 211 68 Q 205 82 203 94 Q 201 110 200 112 L 199 120 Q 190 171 171 204 Q 168 207 166 211 Q 139 245 125 245 Q 121 246 122 244 Q 123 242 126 241 Q 132 235 137 230 Q 169 196 185 123" fill="#CCCCCC"/><path d="M 93 75 L 93 75 Q 93 78 90 76 Q 85 72 83 61 L 81 54 Q 80 53 80 52 Q 77 43 70 35 Q 66 31 70 28 Q 75 26 84 30 Q 89 31 89 35 Q 89 42 91 52 L 92 58" fill="#000080" clip-path="url(#clip-mask-1)" /><path d="M 83 61 Q 71 65 59 68 Q 56 70 52 68 Q 47 65 44 63 Q 43 61 43 59 Q 43 58 57 58 Q 70 55 81 54 L 91 52 Q 97 51 102 50 Q 105 50 105 51 Q 105 53 104 54 Q 101 56 98 57 Q 95 57 92 58" fill="#000080" clip-path="url(#clip-mask-2)" /><path d="M 119 71 L 117 73 Q 113 75 113 72 Q 112 68 114 63 Q 123 29 118 20 Q 117 18 119 16 Q 123 15 126 16 Q 135 20 137 23 Q 140 26 137 29 Q 130 41 130 45 L 127 53" fill="#000080" clip-path="url(#clip-mask-3)" /><path d="M 130 45 Q 135 43 140 42 Q 158 36 167 43 Q 169 45 169 47 Q 168 49 165 49 Q 151 47 138 52 Q 135 53 127 53" fill="#000080" clip-path="url(#clip-mask-4)" /><path d="M 58 120 Q 59 122 58 123 Q 58 125 54 122 Q 51 120 50 117 Q 45 105 40 98 Q 38 95 39 94 Q 40 93 42 93 Q 48 93 51 95 L 54 99 Q 54 103 57 115" fill="#000080" clip-path="url(#clip-mask-5)" /><path d="M 76 95 Q 75 93 70 95 Q 54 99 54 99 L 51 95 Q 58 92 71 87 Q 76 81 90 89 Q 94 91 90 96" fill="#000080" clip-path="url(#clip-mask-6)" /><path d="M 75 109 Q 76 104 76 99 Q 77 96 76 95 L 90 96 Q 87 99 84 109" fill="#000080" clip-path="url(#clip-mask-7)" /><path d="M 62 119 Q 60 120 58 120 L 57 115 Q 65 112 75 109 L 84 109 Q 89 112 89 113 Q 89 114 87 115 Q 76 116 69 118" fill="#000080" clip-path="url(#clip-mask-8)" /><path d="M 123 111 L 123 112 Q 122 115 118 112 Q 116 109 115 105 Q 110 92 105 85 Q 103 82 104 81 Q 104 79 106 80 Q 114 80 116 81 L 118 86 Q 119 91 122 104 L 123 109" fill="#000080" clip-path="url(#clip-mask-9)" /><path d="M 142 82 Q 140 80 136 82 Q 128 83 118 86 Q 118 86 118 86 L 116 81 Q 123 79 128 78 Q 136 75 140 72 Q 145 70 148 72 Q 153 75 157 78 Q 162 81 157 85" fill="#000080" clip-path="url(#clip-mask-10)" /><path d="M 139 100 Q 142 83 142 82 L 157 85 Q 153 89 150 100" fill="#000080" clip-path="url(#clip-mask-11)" /><path d="M 122 104 Q 130 102 139 100 L 150 100 Q 154 102 154 103 Q 154 105 152 105 Q 136 108 128 109 Q 126 110 124 110 Q 123 109 123 109" fill="#000080" clip-path="url(#clip-mask-12)" /><path d="M 60 156 Q 59 156 59 157 Q 30 193 17 196 Q 14 196 15 194 Q 15 192 18 191 Q 32 175 43 162 Q 66 132 63 121 Q 63 120 62 119 L 69 118 Q 78 121 80 128 Q 80 131 79 133 Q 71 139 67 146" fill="#000080" clip-path="url(#clip-mask-13)" /><path d="M 71 214 Q 71 241 68 248 Q 66 254 62 251 Q 51 241 58 217 Q 66 171 60 156 L 67 146 Q 70 149 74 153 Q 76 156 74 162 Q 72 172 72 209" fill="#000080" clip-path="url(#clip-mask-14)" /><path d="M 107 128 Q 97 117 97 112 Q 97 110 98 110 Q 100 110 102 111 Q 112 118 113 124 Q 113 125 112 127" fill="#000080" clip-path="url(#clip-mask-15)" /><path d="M 104 138 Q 92 139 86 136 Q 81 132 88 131 Q 98 130 107 128 L 112 127 Q 131 121 136 122 Q 142 123 143 125 Q 144 127 142 128 Q 142 129 116 135" fill="#000080" clip-path="url(#clip-mask-16)" /><path d="M 106 160 Q 105 159 105 160 Q 94 162 87 158 Q 82 155 89 153 Q 98 152 106 151 L 120 148 Q 126 144 135 145 Q 140 147 141 149 Q 142 150 140 152 Q 139 153 133 154 Q 125 155 119 157" fill="#000080" clip-path="url(#clip-mask-17)" /><path d="M 105 185 Q 92 187 85 184 Q 80 180 87 179 Q 97 178 105 177 L 118 174 Q 130 169 137 170 Q 142 172 143 174 Q 144 175 142 177 Q 141 178 134 179 Q 125 181 117 183" fill="#000080" clip-path="url(#clip-mask-18)" /><path d="M 105 192 L 105 185 L 105 177 Q 106 166 106 160 L 106 151 Q 105 141 105 139 Q 104 138 104 138 L 116 135 Q 122 141 120 146 Q 120 147 120 148 L 119 157 Q 118 165 118 174 L 117 183 Q 116 191 116 200 L 105 203" fill="#000080" clip-path="url(#clip-mask-19)" /><path d="M 116 200 Q 121 199 125 198 Q 137 194 149 201 Q 153 204 152 206 Q 151 208 147 208 Q 109 208 84 216 Q 78 218 71 214 L 72 209 Q 89 205 104 203 Q 105 202 105 203" fill="#000080" clip-path="url(#clip-mask-20)" /><path d="M 177 125 L 170 127 Q 165 129 159 126 Q 155 123 155 121 Q 155 119 159 119 Q 169 119 186 116 L 200 112 Q 217 108 228 103 Q 235 100 241 103 Q 249 107 253 112 Q 255 114 251 119 L 228 117 Q 227 116 224 116 Q 211 117 199 120 L 185 123" fill="#0000ff" clip-path="url(#clip-mask-21)" /><path d="M 251 119 Q 245 129 244 145 Q 237 215 219 235 Q 213 242 208 243 L 210 215 Q 214 211 218 197 Q 226 175 229 133 Q 230 122 228 117" fill="#0000ff" clip-path="url(#clip-mask-22)" /><path d="M 208 243 Q 203 243 201 237 Q 197 226 187 212 Q 185 206 190 209 Q 196 212 203 215 Q 207 217 210 215" fill="#0000ff" clip-path="url(#clip-mask-23)" /><path d="M 186 116 Q 190 97 192 74 Q 193 66 186 58 Q 183 53 188 52 Q 192 51 197 54 Q 206 58 210 63 Q 213 65 211 68 Q 205 82 203 94 Q 201 110 200 112 L 199 120 Q 190 171 171 204 Q 168 207 166 211 Q 139 245 125 245 Q 121 246 122 244 Q 123 242 126 241 Q 132 235 137 230 Q 169 196 185 123" fill="#0000ff" clip-path="url(#clip-mask-24)" /><rect x="66" y="26" width="27" height="52" id="rect-1" fill="transparent" stroke="#000000"><animate attributeName="y" from="-26" to="26" dur="0.193" begin="0; animate24.end + 1s" id="animate1" fill="freeze"/></rect><rect x="43" y="50" width="62" height="20" id="rect-2" fill="transparent" stroke="#000000"><set attributeName="x" to="-19" begin="0; animate24.end + 1s" /><animate attributeName="x" from="-19" to="43" dur="0.230" begin="animate1.end + 0.5" id="animate2" fill="freeze"/></rect><rect x="112" y="15" width="28" height="60" id="rect-3" fill="transparent" stroke="#000000"><set attributeName="y" to="-45" begin="0; animate24.end + 1s" /><animate attributeName="y" from="-45" to="15" dur="0.222" begin="animate2.end + 0.5" id="animate3" fill="freeze"/></rect><rect x="127" y="36" width="42" height="17" id="rect-4" fill="transparent" stroke="#000000"><set attributeName="x" to="85" begin="0; animate24.end + 1s" /><animate attributeName="x" from="85" to="127" dur="0.156" begin="animate3.end + 0.5" id="animate4" fill="freeze"/></rect><rect x="38" y="93" width="21" height="32" id="rect-5" fill="transparent" stroke="#000000"><set attributeName="y" to="61" begin="0; animate24.end + 1s" /><animate attributeName="y" from="61" to="93" dur="0.119" begin="animate4.end + 0.5" id="animate5" fill="freeze"/></rect><rect x="51" y="81" width="43" height="18" id="rect-6" fill="transparent" stroke="#000000"><set attributeName="x" to="8" begin="0; animate24.end + 1s" /><animate attributeName="x" from="8" to="51" dur="0.159" begin="animate5.end + 0.5" id="animate6" fill="freeze"/></rect><rect x="75" y="95" width="15" height="14" id="rect-7" fill="transparent" stroke="#000000"><set attributeName="y" to="81" begin="0; animate24.end + 1s" /><animate attributeName="y" from="81" to="95" dur="0.052" begin="animate6.end" id="animate7" fill="freeze"/></rect><rect x="57" y="109" width="32" height="11" id="rect-8" fill="transparent" stroke="#000000"><set attributeName="x" to="25" begin="0; animate24.end + 1s" /><animate attributeName="x" from="25" to="57" dur="0.119" begin="animate7.end + 0.5" id="animate8" fill="freeze"/></rect><rect x="103" y="79" width="20" height="36" id="rect-9" fill="transparent" stroke="#000000"><set attributeName="y" to="43" begin="0; animate24.end + 1s" /><animate attributeName="y" from="43" to="79" dur="0.133" begin="animate8.end + 0.5" id="animate9" fill="freeze"/></rect><rect x="116" y="70" width="46" height="16" id="rect-10" fill="transparent" stroke="#000000"><set attributeName="x" to="70" begin="0; animate24.end + 1s" /><animate attributeName="x" from="70" to="116" dur="0.170" begin="animate9.end + 0.5" id="animate10" fill="freeze"/></rect><rect x="139" y="82" width="18" height="18" id="rect-11" fill="transparent" stroke="#000000"><set attributeName="y" to="64" begin="0; animate24.end + 1s" /><animate attributeName="y" from="64" to="82" dur="0.067" begin="animate10.end" id="animate11" fill="freeze"/></rect><rect x="122" y="100" width="32" height="10" id="rect-12" fill="transparent" stroke="#000000"><set attributeName="x" to="90" begin="0; animate24.end + 1s" /><animate attributeName="x" from="90" to="122" dur="0.119" begin="animate11.end + 0.5" id="animate12" fill="freeze"/></rect><rect x="14" y="118" width="66" height="78" id="rect-13" fill="transparent" stroke="#000000"><set attributeName="y" to="40" begin="0; animate24.end + 1s" /><animate attributeName="y" from="40" to="118" dur="0.289" begin="animate12.end + 0.5" id="animate13" fill="freeze"/></rect><rect x="51" y="146" width="25" height="108" id="rect-14" fill="transparent" stroke="#000000"><set attributeName="y" to="38" begin="0; animate24.end + 1s" /><animate attributeName="y" from="38" to="146" dur="0.400" begin="animate13.end + 0.5" id="animate14" fill="freeze"/></rect><rect x="97" y="110" width="16" height="18" id="rect-15" fill="transparent" stroke="#000000"><set attributeName="y" to="92" begin="0; animate24.end + 1s" /><animate attributeName="y" from="92" to="110" dur="0.067" begin="animate14.end + 0.5" id="animate15" fill="freeze"/></rect><rect x="81" y="121" width="63" height="18" id="rect-16" fill="transparent" stroke="#000000"><set attributeName="x" to="18" begin="0; animate24.end + 1s" /><animate attributeName="x" from="18" to="81" dur="0.233" begin="animate15.end + 0.5" id="animate16" fill="freeze"/></rect><rect x="82" y="144" width="60" height="18" id="rect-17" fill="transparent" stroke="#000000"><set attributeName="x" to="22" begin="0; animate24.end + 1s" /><animate attributeName="x" from="22" to="82" dur="0.222" begin="animate16.end + 0.5" id="animate17" fill="freeze"/></rect><rect x="80" y="169" width="64" height="18" id="rect-18" fill="transparent" stroke="#000000"><set attributeName="x" to="16" begin="0; animate24.end + 1s" /><animate attributeName="x" from="16" to="80" dur="0.237" begin="animate17.end + 0.5" id="animate18" fill="freeze"/></rect><rect x="104" y="135" width="18" height="68" id="rect-19" fill="transparent" stroke="#000000"><set attributeName="y" to="67" begin="0; animate24.end + 1s" /><animate attributeName="y" from="67" to="135" dur="0.252" begin="animate18.end + 0.5" id="animate19" fill="freeze"/></rect><rect x="71" y="194" width="82" height="24" id="rect-20" fill="transparent" stroke="#000000"><set attributeName="x" to="-11" begin="0; animate24.end + 1s" /><animate attributeName="x" from="-11" to="71" dur="0.304" begin="animate19.end + 0.5" id="animate20" fill="freeze"/></rect><rect x="155" y="100" width="100" height="29" id="rect-21" fill="transparent" stroke="#000000"><set attributeName="x" to="55" begin="0; animate24.end + 1s" /><animate attributeName="x" from="55" to="155" dur="0.370" begin="animate20.end + 0.5" id="animate21" fill="freeze"/></rect><rect x="208" y="117" width="43" height="126" id="rect-22" fill="transparent" stroke="#000000"><set attributeName="y" to="-9" begin="0; animate24.end + 1s" /><animate attributeName="y" from="-9" to="117" dur="0.467" begin="animate21.end" id="animate22" fill="freeze"/></rect><rect x="185" y="206" width="25" height="37" id="rect-23" fill="transparent" stroke="#000000"><set attributeName="x" to="210" begin="0; animate24.end + 1s" /><animate attributeName="x" from="210" to="185" dur="0.093" begin="animate22.end" id="animate23" fill="freeze"/></rect><rect x="121" y="51" width="92" height="195" id="rect-24" fill="transparent" stroke="#000000"><set attributeName="y" to="-144" begin="0; animate24.end + 1s" /><animate attributeName="y" from="-144" to="51" dur="0.722" begin="animate23.end + 0.5" id="animate24" fill="freeze"/></rect></svg>