<svg xmlns="http://www.w3.org/2000/svg" xmlns:xlink="http://www.w3.org/1999/xlink" width="270" height="270"><defs><clipPath id="clip-mask-1"><use xlink:href="#rect-1" /></clipPath><clipPath id="clip-mask-2"><use xlink:href="#rect-2" /></clipPath><clipPath id="clip-mask-3"><use xlink:href="#rect-3" /></clipPath><clipPath id="clip-mask-4"><use xlink:href="#rect-4" /></clipPath><clipPath id="clip-mask-5"><use xlink:href="#rect-5" /></clipPath><clipPath id="clip-mask-6"><use xlink:href="#rect-6" /></clipPath></defs><path d="M 0 0 L 270 270 M 270 0 L 0 270 M 135 0 L 135 270 M 0 135 L 270 135" stroke="#CCCCCC" /><path d="M 66 105 Q 49 130 29.5 144.5 Q 10 159 26 141 Q 42 123 56 97 Q 70 71 75 56 Q 80 41 78 32 Q 76 23 83 26 Q 90 29 97.5 36 Q 105 43 99.5 47.5 Q 94 52 87 67.5 Q 80 83 72 99" fill="#CCCCCC"/><path d="M 88 109 Q 83 138 83.5 170.5 Q 84 203 80 224.5 Q 76 246 69 230 Q 62 214 66 204.5 Q 70 195 72 174.5 Q 74 154 73.5 130.5 Q 73 107 66 105 L 72 99" fill="#CCCCCC"/><path d="M 163 110 Q 191 72 190 63.5 Q 189 55 196 58 Q 203 61 210 68.5 Q 217 76 210.5 80 Q 204 84 190 100 Q 176 116 150 141 L 137 153 Q 130 159 119 165 Q 108 171 98.5 174 Q 89 177 97 171 Q 105 165 117 155 Q 129 145 137 133 L 150 122" fill="#CCCCCC"/><path d="M 150 141 Q 149 161 152 177 L 153 214 Q 141 203 138.5 185.5 Q 136 168 137 153 L 137 133 Q 139 106 139 88 Q 139 69 137.5 56.5 Q 136 44 131.5 34 Q 127 24 136 26.5 Q 145 29 153 33.5 Q 161 38 158 44.5 Q 155 51 153 75.5 Q 151 100 150 122" fill="#CCCCCC"/><path d="M 152 177 Q 155 193 166 200.5 Q 177 208 200.5 206.5 Q 224 205 233 198 L 255 201 Q 259 212 241.5 219 Q 224 226 194 225 Q 164 224 153 214" fill="#CCCCCC"/><path d="M 233 198 Q 242 190 246.5 169 Q 251 148 251 169 Q 251 190 255 201" fill="#CCCCCC"/><path d="M 66 105 Q 49 130 29.5 144.5 Q 10 159 26 141 Q 42 123 56 97 Q 70 71 75 56 Q 80 41 78 32 Q 76 23 83 26 Q 90 29 97.5 36 Q 105 43 99.5 47.5 Q 94 52 87 67.5 Q 80 83 72 99" fill="#000080" clip-path="url(#clip-mask-1)" /><path d="M 88 109 Q 83 138 83.5 170.5 Q 84 203 80 224.5 Q 76 246 69 230 Q 62 214 66 204.5 Q 70 195 72 174.5 Q 74 154 73.5 130.5 Q 73 107 66 105 L 72 99" fill="#000080" clip-path="url(#clip-mask-2)" /><path d="M 163 110 Q 191 72 190 63.5 Q 189 55 196 58 Q 203 61 210 68.5 Q 217 76 210.5 80 Q 204 84 190 100 Q 176 116 150 141 L 137 153 Q 130 159 119 165 Q 108 171 98.5 174 Q 89 177 97 171 Q 105 165 117 155 Q 129 145 137 133 L 150 122" fill="#0000ff" clip-path="url(#clip-mask-3)" /><path d="M 150 141 Q 149 161 152 177 L 153 214 Q 141 203 138.5 185.5 Q 136 168 137 153 L 137 133 Q 139 106 139 88 Q 139 69 137.5 56.5 Q 136 44 131.5 34 Q 127 24 136 26.5 Q 145 29 153 33.5 Q 161 38 158 44.5 Q 155 51 153 75.5 Q 151 100 150 122" fill="#0000ff" clip-path="url(#clip-mask-4)" /><path d="M 152 177 Q 155 193 166 200.5 Q 177 208 200.5 206.5 Q 224 205 233 198 L 255 201 Q 259 212 241.5 219 Q 224 226 194 225 Q 164 224 153 214" fill="#0000ff" clip-path="url(#clip-mask-5)" /><path d="M 233 198 Q 242 190 246.5 169 Q 251 148 251 169 Q 251 190 255 201" fill="#0000ff" clip-path="url(#clip-mask-6)" /><rect x="5" y="23" width="100" height="136" id="rect-1" fill="transparent" stroke="#000000"><animate attributeName="y" from="-113" to="23" dur="0.504" begin="0; animate6.end + 1s" id="animate1" fill="freeze"/></rect><rect x="5" y="99" width="83" height="147" id="rect-2" fill="transparent" stroke="#000000"><set attributeName="y" to="-48" begin="0; animate6.end + 1s" /><animate attributeName="y" from="-48" to="99" dur="0.544" begin="animate1.end + 0.5" id="animate2" fill="freeze"/></rect><rect x="5" y="55" width="212" height="122" id="rect-3" fill="transparent" stroke="#000000"><set attributeName="y" to="-67" begin="0; animate6.end + 1s" /><animate attributeName="y" from="-67" to="55" dur="0.452" begin="animate2.end + 0.5" id="animate3" fill="freeze"/></rect><rect x="5" y="24" width="156" height="190" id="rect-4" fill="transparent" stroke="#000000"><set attributeName="y" to="-166" begin="0; animate6.end + 1s" /><animate attributeName="y" from="-166" to="24" dur="0.704" begin="animate3.end + 0.5" id="animate4" fill="freeze"/></rect><rect x="5" y="177" width="254" height="49" id="rect-5" fill="transparent" stroke="#000000"><set attributeName="x" to="-249" begin="0; animate6.end + 1s" /><animate attributeName="x" from="-249" to="5" dur="0.941" begin="animate4.end" id="animate5" fill="freeze"/></rect><rect x="5" y="148" width="250" height="53" id="rect-6" fill="transparent" stroke="#000000"><set attributeName="y" to="201" begin="0; animate6.end + 1s" /><animate attributeName="y" from="201" to="148" dur="0.196" begin="animate5.end" id="animate6" fill="freeze"/></rect></svg>