<svg xmlns="http://www.w3.org/2000/svg" xmlns:xlink="http://www.w3.org/1999/xlink" width="270" height="270"><defs><clipPath id="clip-mask-1"><use xlink:href="#rect-1" /></clipPath><clipPath id="clip-mask-2"><use xlink:href="#rect-2" /></clipPath><clipPath id="clip-mask-3"><use xlink:href="#rect-3" /></clipPath><clipPath id="clip-mask-4"><use xlink:href="#rect-4" /></clipPath><clipPath id="clip-mask-5"><use xlink:href="#rect-5" /></clipPath><clipPath id="clip-mask-6"><use xlink:href="#rect-6" /></clipPath><clipPath id="clip-mask-7"><use xlink:href="#rect-7" /></clipPath><clipPath id="clip-mask-8"><use xlink:href="#rect-8" /></clipPath><clipPath id="clip-mask-9"><use xlink:href="#rect-9" /></clipPath><clipPath id="clip-mask-10"><use xlink:href="#rect-10" /></clipPath><clipPath id="clip-mask-11"><use xlink:href="#rect-11" /></clipPath></defs><path d="M 0 0 L 270 270 M 270 0 L 0 270 M 135 0 L 135 270 M 0 135 L 270 135" stroke="#CCCCCC" /><path d="M 124 55 Q 112 71 92 83 Q 86 88 81 88 Q 77 89 79 85 Q 90 74 92 73 Q 121 45 121 19 Q 120 15 124 14 Q 130 14 142 24 Q 145 28 142 32 Q 135 39 129 49" fill="#CCCCCC"/><path d="M 161 54 Q 160 53 158 54 Q 130 57 124 55 L 129 49 Q 132 48 160 42 Q 174 38 178 39 Q 188 46 192 51 Q 195 55 190 58" fill="#CCCCCC"/><path d="M 130 97 Q 131 95 134 93 Q 144 82 160 58 Q 163 55 161 54 L 190 58 Q 176 65 161 78 Q 148 90 141 95" fill="#CCCCCC"/><path d="M 110 101 L 130 97 L 141 95 Q 171 89 189 84 Q 197 82 210 90 Q 214 93 213 95 Q 212 97 198 98 Q 136 102 97 115 Q 95 116 92 116 L 87 106" fill="#CCCCCC"/><path d="M 92 116 Q 91 119 90 122 Q 86 140 86 159 Q 85 164 75 194 Q 70 206 58 218 Q 48 229 34 237 Q 25 242 21 242 Q 18 241 21 239 Q 25 235 29 231 Q 59 206 69 170 Q 69 169 69 167 Q 77 124 67 107 Q 65 103 69 102 Q 74 99 80 103 Q 84 103 87 106" fill="#CCCCCC"/><path d="M 136 133 L 160 126 Q 172 120 175 122 Q 188 128 190 131 Q 192 133 189 137 L 166 135 Q 165 134 162 135 Q 146 138 124 146 Q 123 146 123 146 L 119 137" fill="#CCCCCC"/><path d="M 189 137 Q 184 141 179 163 Q 169 189 158 196 Q 154 199 150 194 L 149 174 Q 157 176 162 168 Q 166 160 167 144 Q 168 138 166 135" fill="#CCCCCC"/><path d="M 150 194 Q 146 186 138 175 Q 133 169 140 171 Q 144 173 149 174" fill="#CCCCCC"/><path d="M 123 146 Q 116 198 123 213 L 120 235 Q 112 228 110 219 Q 106 206 108 160 Q 109 149 105 138 Q 103 133 105 132 Q 108 131 111 132 Q 116 134 119 137" fill="#CCCCCC"/><path d="M 123 213 Q 126 220 138 226 Q 168 237 203 228 Q 218 224 223 218 L 248 219 Q 251 225 246 229 Q 232 240 218 244 Q 211 246 204 247 Q 146 255 120 235" fill="#CCCCCC"/><path d="M 223 218 Q 228 209 237 182 Q 238 177 240 178 Q 242 180 242 184 Q 245 210 248 219" fill="#CCCCCC"/><path d="M 124 55 Q 112 71 92 83 Q 86 88 81 88 Q 77 89 79 85 Q 90 74 92 73 Q 121 45 121 19 Q 120 15 124 14 Q 130 14 142 24 Q 145 28 142 32 Q 135 39 129 49" fill="#000080" clip-path="url(#clip-mask-1)" /><path d="M 161 54 Q 160 53 158 54 Q 130 57 124 55 L 129 49 Q 132 48 160 42 Q 174 38 178 39 Q 188 46 192 51 Q 195 55 190 58" fill="#000080" clip-path="url(#clip-mask-2)" /><path d="M 130 97 Q 131 95 134 93 Q 144 82 160 58 Q 163 55 161 54 L 190 58 Q 176 65 161 78 Q 148 90 141 95" fill="#000080" clip-path="url(#clip-mask-3)" /><path d="M 110 101 L 130 97 L 141 95 Q 171 89 189 84 Q 197 82 210 90 Q 214 93 213 95 Q 212 97 198 98 Q 136 102 97 115 Q 95 116 92 116 L 87 106" fill="#000080" clip-path="url(#clip-mask-4)" /><path d="M 92 116 Q 91 119 90 122 Q 86 140 86 159 Q 85 164 75 194 Q 70 206 58 218 Q 48 229 34 237 Q 25 242 21 242 Q 18 241 21 239 Q 25 235 29 231 Q 59 206 69 170 Q 69 169 69 167 Q 77 124 67 107 Q 65 103 69 102 Q 74 99 80 103 Q 84 103 87 106" fill="#000080" clip-path="url(#clip-mask-5)" /><path d="M 136 133 L 160 126 Q 172 120 175 122 Q 188 128 190 131 Q 192 133 189 137 L 166 135 Q 165 134 162 135 Q 146 138 124 146 Q 123 146 123 146 L 119 137" fill="#0000ff" clip-path="url(#clip-mask-6)" /><path d="M 189 137 Q 184 141 179 163 Q 169 189 158 196 Q 154 199 150 194 L 149 174 Q 157 176 162 168 Q 166 160 167 144 Q 168 138 166 135" fill="#0000ff" clip-path="url(#clip-mask-7)" /><path d="M 150 194 Q 146 186 138 175 Q 133 169 140 171 Q 144 173 149 174" fill="#0000ff" clip-path="url(#clip-mask-8)" /><path d="M 123 146 Q 116 198 123 213 L 120 235 Q 112 228 110 219 Q 106 206 108 160 Q 109 149 105 138 Q 103 133 105 132 Q 108 131 111 132 Q 116 134 119 137" fill="#0000ff" clip-path="url(#clip-mask-9)" /><path d="M 123 213 Q 126 220 138 226 Q 168 237 203 228 Q 218 224 223 218 L 248 219 Q 251 225 246 229 Q 232 240 218 244 Q 211 246 204 247 Q 146 255 120 235" fill="#0000ff" clip-path="url(#clip-mask-10)" /><path d="M 223 218 Q 228 209 237 182 Q 238 177 240 178 Q 242 180 242 184 Q 245 210 248 219" fill="#0000ff" clip-path="url(#clip-mask-11)" /><rect x="77" y="14" width="68" height="75" id="rect-1" fill="transparent" stroke="#000000"><animate attributeName="y" from="-61" to="14" dur="0.278" begin="0; animate11.end + 1s" id="animate1" fill="freeze"/></rect><rect x="124" y="38" width="71" height="20" id="rect-2" fill="transparent" stroke="#000000"><set attributeName="x" to="53" begin="0; animate11.end + 1s" /><animate attributeName="x" from="53" to="124" dur="0.263" begin="animate1.end + 0.5" id="animate2" fill="freeze"/></rect><rect x="130" y="54" width="60" height="43" id="rect-3" fill="transparent" stroke="#000000"><set attributeName="y" to="11" begin="0; animate11.end + 1s" /><animate attributeName="y" from="11" to="54" dur="0.159" begin="animate2.end" id="animate3" fill="freeze"/></rect><rect x="87" y="82" width="127" height="34" id="rect-4" fill="transparent" stroke="#000000"><set attributeName="x" to="-40" begin="0; animate11.end + 1s" /><animate attributeName="x" from="-40" to="87" dur="0.470" begin="animate3.end + 0.5" id="animate4" fill="freeze"/></rect><rect x="18" y="99" width="74" height="143" id="rect-5" fill="transparent" stroke="#000000"><set attributeName="y" to="-44" begin="0; animate11.end + 1s" /><animate attributeName="y" from="-44" to="99" dur="0.530" begin="animate4.end + 0.5" id="animate5" fill="freeze"/></rect><rect x="119" y="120" width="73" height="26" id="rect-6" fill="transparent" stroke="#000000"><set attributeName="x" to="46" begin="0; animate11.end + 1s" /><animate attributeName="x" from="46" to="119" dur="0.270" begin="animate5.end + 0.5" id="animate6" fill="freeze"/></rect><rect x="149" y="135" width="40" height="64" id="rect-7" fill="transparent" stroke="#000000"><set attributeName="y" to="71" begin="0; animate11.end + 1s" /><animate attributeName="y" from="71" to="135" dur="0.237" begin="animate6.end" id="animate7" fill="freeze"/></rect><rect x="133" y="169" width="17" height="25" id="rect-8" fill="transparent" stroke="#000000"><set attributeName="x" to="150" begin="0; animate11.end + 1s" /><animate attributeName="x" from="150" to="133" dur="0.063" begin="animate7.end" id="animate8" fill="freeze"/></rect><rect x="103" y="131" width="20" height="104" id="rect-9" fill="transparent" stroke="#000000"><set attributeName="y" to="27" begin="0; animate11.end + 1s" /><animate attributeName="y" from="27" to="131" dur="0.385" begin="animate8.end + 0.5" id="animate9" fill="freeze"/></rect><rect x="120" y="213" width="131" height="42" id="rect-10" fill="transparent" stroke="#000000"><set attributeName="x" to="-11" begin="0; animate11.end + 1s" /><animate attributeName="x" from="-11" to="120" dur="0.485" begin="animate9.end" id="animate10" fill="freeze"/></rect><rect x="223" y="177" width="25" height="42" id="rect-11" fill="transparent" stroke="#000000"><set attributeName="y" to="219" begin="0; animate11.end + 1s" /><animate attributeName="y" from="219" to="177" dur="0.156" begin="animate10.end" id="animate11" fill="freeze"/></rect></svg>