<svg xmlns="http://www.w3.org/2000/svg" xmlns:xlink="http://www.w3.org/1999/xlink" width="270" height="270"><defs><clipPath id="clip-mask-1"><use xlink:href="#rect-1" /></clipPath><clipPath id="clip-mask-2"><use xlink:href="#rect-2" /></clipPath><clipPath id="clip-mask-3"><use xlink:href="#rect-3" /></clipPath><clipPath id="clip-mask-4"><use xlink:href="#rect-4" /></clipPath><clipPath id="clip-mask-5"><use xlink:href="#rect-5" /></clipPath><clipPath id="clip-mask-6"><use xlink:href="#rect-6" /></clipPath><clipPath id="clip-mask-7"><use xlink:href="#rect-7" /></clipPath><clipPath id="clip-mask-8"><use xlink:href="#rect-8" /></clipPath><clipPath id="clip-mask-9"><use xlink:href="#rect-9" /></clipPath><clipPath id="clip-mask-10"><use xlink:href="#rect-10" /></clipPath><clipPath id="clip-mask-11"><use xlink:href="#rect-11" /></clipPath><clipPath id="clip-mask-12"><use xlink:href="#rect-12" /></clipPath></defs><path d="M 0 0 L 270 270 M 270 0 L 0 270 M 135 0 L 135 270 M 0 135 L 270 135" stroke="#CCCCCC" /><path d="M 77 22 L 79 21 Q 86 22 95 32 Q 98 36 95 39 Q 86 48 77 59 Q 55 79 42 79 Q 38 80 41 76 Q 51 68 51 68 Q 77 46 76 25" fill="#CCCCCC"/><path d="M 129 25 L 128 23 Q 127 19 129 18 Q 132 16 150 22 Q 158 26 159 30 Q 162 38 161 42 Q 159 45 157 46 Q 153 46 149 43 Q 142 36 136 31" fill="#CCCCCC"/><path d="M 100 54 L 103 54 Q 111 53 120 62 Q 123 65 123 68 Q 123 71 121 72 Q 119 73 117 77 Q 90 113 69 133 Q 36 161 19 161 Q 17 160 19 159 Q 48 137 60 126 Q 63 123 65 121 Q 103 80 101 58" fill="#CCCCCC"/><path d="M 118 97 L 118 94 Q 118 92 120 92 Q 127 93 139 96 Q 158 100 161 108 Q 166 117 164 120 Q 163 123 161 123 Q 157 123 153 119 Q 136 107 121 99" fill="#CCCCCC"/><path d="M 91 211 L 88 217 Q 86 221 82 215 Q 77 208 77 199 Q 74 167 67 146 Q 65 142 66 140 Q 68 139 71 140 Q 78 142 81 143 L 84 152 Q 85 160 88 186 L 89 196" fill="#CCCCCC"/><path d="M 124 147 Q 123 144 114 146 Q 90 149 84 152 L 81 143 Q 103 140 116 135 Q 129 128 134 132 Q 142 137 147 141 Q 154 145 147 152" fill="#CCCCCC"/><path d="M 119 178 Q 122 168 124 159 Q 127 149 124 147 L 147 152 Q 140 159 134 180" fill="#CCCCCC"/><path d="M 88 186 Q 102 183 118 178 Q 118 178 119 178 L 134 180 Q 141 184 141 186 Q 141 189 138 189 Q 108 192 94 196 Q 91 196 89 196" fill="#CCCCCC"/><path d="M 185 72 Q 217 66 226 60 Q 230 57 235 58 Q 248 63 251 66 Q 252 68 249 71 L 228 74 Q 227 73 224 73 Q 210 75 192 80" fill="#CCCCCC"/><path d="M 249 71 Q 245 79 245 93 Q 245 133 239 147 Q 234 158 227 165 Q 222 171 216 166 L 222 139 Q 230 124 231 90 Q 232 78 228 74" fill="#CCCCCC"/><path d="M 216 166 Q 211 157 200 146 Q 196 139 202 142 Q 207 144 213 146 Q 219 146 222 139" fill="#CCCCCC"/><path d="M 190 92 L 189 103 Q 189 188 189 192 Q 190 214 188 235 Q 187 249 182 252 Q 180 253 179 251 Q 174 245 175 193 Q 177 133 176 95 Q 176 94 176 93 Q 175 88 169 74 Q 167 72 170 69 Q 173 67 177 68 Q 180 69 185 72 L 192 80" fill="#CCCCCC"/><path d="M 77 22 L 79 21 Q 86 22 95 32 Q 98 36 95 39 Q 86 48 77 59 Q 55 79 42 79 Q 38 80 41 76 Q 51 68 51 68 Q 77 46 76 25" fill="#000080" clip-path="url(#clip-mask-1)" /><path d="M 129 25 L 128 23 Q 127 19 129 18 Q 132 16 150 22 Q 158 26 159 30 Q 162 38 161 42 Q 159 45 157 46 Q 153 46 149 43 Q 142 36 136 31" fill="#000080" clip-path="url(#clip-mask-2)" /><path d="M 100 54 L 103 54 Q 111 53 120 62 Q 123 65 123 68 Q 123 71 121 72 Q 119 73 117 77 Q 90 113 69 133 Q 36 161 19 161 Q 17 160 19 159 Q 48 137 60 126 Q 63 123 65 121 Q 103 80 101 58" fill="#000080" clip-path="url(#clip-mask-3)" /><path d="M 118 97 L 118 94 Q 118 92 120 92 Q 127 93 139 96 Q 158 100 161 108 Q 166 117 164 120 Q 163 123 161 123 Q 157 123 153 119 Q 136 107 121 99" fill="#000080" clip-path="url(#clip-mask-4)" /><path d="M 91 211 L 88 217 Q 86 221 82 215 Q 77 208 77 199 Q 74 167 67 146 Q 65 142 66 140 Q 68 139 71 140 Q 78 142 81 143 L 84 152 Q 85 160 88 186 L 89 196" fill="#000080" clip-path="url(#clip-mask-5)" /><path d="M 124 147 Q 123 144 114 146 Q 90 149 84 152 L 81 143 Q 103 140 116 135 Q 129 128 134 132 Q 142 137 147 141 Q 154 145 147 152" fill="#000080" clip-path="url(#clip-mask-6)" /><path d="M 119 178 Q 122 168 124 159 Q 127 149 124 147 L 147 152 Q 140 159 134 180" fill="#000080" clip-path="url(#clip-mask-7)" /><path d="M 88 186 Q 102 183 118 178 Q 118 178 119 178 L 134 180 Q 141 184 141 186 Q 141 189 138 189 Q 108 192 94 196 Q 91 196 89 196" fill="#000080" clip-path="url(#clip-mask-8)" /><path d="M 185 72 Q 217 66 226 60 Q 230 57 235 58 Q 248 63 251 66 Q 252 68 249 71 L 228 74 Q 227 73 224 73 Q 210 75 192 80" fill="#0000ff" clip-path="url(#clip-mask-9)" /><path d="M 249 71 Q 245 79 245 93 Q 245 133 239 147 Q 234 158 227 165 Q 222 171 216 166 L 222 139 Q 230 124 231 90 Q 232 78 228 74" fill="#0000ff" clip-path="url(#clip-mask-10)" /><path d="M 216 166 Q 211 157 200 146 Q 196 139 202 142 Q 207 144 213 146 Q 219 146 222 139" fill="#0000ff" clip-path="url(#clip-mask-11)" /><path d="M 190 92 L 189 103 Q 189 188 189 192 Q 190 214 188 235 Q 187 249 182 252 Q 180 253 179 251 Q 174 245 175 193 Q 177 133 176 95 Q 176 94 176 93 Q 175 88 169 74 Q 167 72 170 69 Q 173 67 177 68 Q 180 69 185 72 L 192 80" fill="#0000ff" clip-path="url(#clip-mask-12)" /><rect x="38" y="21" width="60" height="59" id="rect-1" fill="transparent" stroke="#000000"><animate attributeName="y" from="-38" to="21" dur="0.219" begin="0; animate12.end + 1s" id="animate1" fill="freeze"/></rect><rect x="127" y="16" width="35" height="30" id="rect-2" fill="transparent" stroke="#000000"><set attributeName="x" to="92" begin="0; animate12.end + 1s" /><animate attributeName="x" from="92" to="127" dur="0.130" begin="animate1.end + 0.5" id="animate2" fill="freeze"/></rect><rect x="17" y="53" width="106" height="108" id="rect-3" fill="transparent" stroke="#000000"><set attributeName="y" to="-55" begin="0; animate12.end + 1s" /><animate attributeName="y" from="-55" to="53" dur="0.400" begin="animate2.end + 0.5" id="animate3" fill="freeze"/></rect><rect x="118" y="92" width="48" height="31" id="rect-4" fill="transparent" stroke="#000000"><set attributeName="x" to="70" begin="0; animate12.end + 1s" /><animate attributeName="x" from="70" to="118" dur="0.178" begin="animate3.end + 0.5" id="animate4" fill="freeze"/></rect><rect x="65" y="139" width="26" height="82" id="rect-5" fill="transparent" stroke="#000000"><set attributeName="y" to="57" begin="0; animate12.end + 1s" /><animate attributeName="y" from="57" to="139" dur="0.304" begin="animate4.end + 0.5" id="animate5" fill="freeze"/></rect><rect x="81" y="128" width="73" height="24" id="rect-6" fill="transparent" stroke="#000000"><set attributeName="x" to="8" begin="0; animate12.end + 1s" /><animate attributeName="x" from="8" to="81" dur="0.270" begin="animate5.end + 0.5" id="animate6" fill="freeze"/></rect><rect x="119" y="147" width="28" height="33" id="rect-7" fill="transparent" stroke="#000000"><set attributeName="y" to="114" begin="0; animate12.end + 1s" /><animate attributeName="y" from="114" to="147" dur="0.122" begin="animate6.end" id="animate7" fill="freeze"/></rect><rect x="88" y="178" width="53" height="18" id="rect-8" fill="transparent" stroke="#000000"><set attributeName="x" to="35" begin="0; animate12.end + 1s" /><animate attributeName="x" from="35" to="88" dur="0.196" begin="animate7.end + 0.5" id="animate8" fill="freeze"/></rect><rect x="185" y="57" width="67" height="23" id="rect-9" fill="transparent" stroke="#000000"><set attributeName="x" to="118" begin="0; animate12.end + 1s" /><animate attributeName="x" from="118" to="185" dur="0.248" begin="animate8.end + 0.5" id="animate9" fill="freeze"/></rect><rect x="216" y="71" width="33" height="100" id="rect-10" fill="transparent" stroke="#000000"><set attributeName="y" to="-29" begin="0; animate12.end + 1s" /><animate attributeName="y" from="-29" to="71" dur="0.370" begin="animate9.end" id="animate10" fill="freeze"/></rect><rect x="196" y="139" width="26" height="27" id="rect-11" fill="transparent" stroke="#000000"><set attributeName="x" to="222" begin="0; animate12.end + 1s" /><animate attributeName="x" from="222" to="196" dur="0.096" begin="animate10.end" id="animate11" fill="freeze"/></rect><rect x="167" y="67" width="25" height="186" id="rect-12" fill="transparent" stroke="#000000"><set attributeName="y" to="-119" begin="0; animate12.end + 1s" /><animate attributeName="y" from="-119" to="67" dur="0.689" begin="animate11.end + 0.5" id="animate12" fill="freeze"/></rect></svg>