<svg xmlns="http://www.w3.org/2000/svg" xmlns:xlink="http://www.w3.org/1999/xlink" width="270" height="270"><defs><clipPath id="clip-mask-1"><use xlink:href="#rect-1" /></clipPath><clipPath id="clip-mask-2"><use xlink:href="#rect-2" /></clipPath><clipPath id="clip-mask-3"><use xlink:href="#rect-3" /></clipPath><clipPath id="clip-mask-4"><use xlink:href="#rect-4" /></clipPath><clipPath id="clip-mask-5"><use xlink:href="#rect-5" /></clipPath><clipPath id="clip-mask-6"><use xlink:href="#rect-6" /></clipPath><clipPath id="clip-mask-7"><use xlink:href="#rect-7" /></clipPath><clipPath id="clip-mask-8"><use xlink:href="#rect-8" /></clipPath><clipPath id="clip-mask-9"><use xlink:href="#rect-9" /></clipPath><clipPath id="clip-mask-10"><use xlink:href="#rect-10" /></clipPath><clipPath id="clip-mask-11"><use xlink:href="#rect-11" /></clipPath><clipPath id="clip-mask-12"><use xlink:href="#rect-12" /></clipPath><clipPath id="clip-mask-13"><use xlink:href="#rect-13" /></clipPath><clipPath id="clip-mask-14"><use xlink:href="#rect-14" /></clipPath><clipPath id="clip-mask-15"><use xlink:href="#rect-15" /></clipPath></defs><path d="M 0 0 L 270 270 M 270 0 L 0 270 M 135 0 L 135 270 M 0 135 L 270 135" stroke="#CCCCCC" /><path d="M 50 61 Q 76 24 74 17 Q 73 13 76 12 Q 80 11 86 15 Q 94 18 98 22 Q 101 27 96 30 Q 90 34 85 38 Q 65 55 53 65" fill="#CCCCCC"/><path d="M 38 166 Q 35 170 32 167 Q 28 164 26 157 Q 24 152 27 149 Q 36 139 37 130 Q 38 128 38 126 Q 46 80 32 62 Q 30 58 31 56 Q 33 55 37 56 Q 46 58 50 61 L 53 65 Q 53 66 53 68 Q 52 74 52 130 Q 52 133 53 134" fill="#CCCCCC"/><path d="M 48 154 L 38 166 L 53 134 Q 54 135 55 134 Q 69 126 76 124 L 75 129" fill="#CCCCCC"/><path d="M 76 124 Q 77 91 71 81 Q 67 76 72 75 Q 75 74 87 80 Q 92 82 90 87 Q 90 90 89 94 Q 89 127 85 149 Q 80 185 61 207 Q 43 226 34 226 Q 31 226 31 225 Q 32 223 35 220 Q 54 201 65 178 Q 73 159 75 129" fill="#CCCCCC"/><path d="M 115 50 Q 132 46 148 39 Q 152 37 156 38 Q 164 43 169 47 L 148 50 Q 144 47 121 57 Q 119 57 118 57" fill="#CCCCCC"/><path d="M 169 47 Q 173 51 169 56 Q 162 65 160 97 Q 158 109 154 112 Q 149 119 143 111 Q 142 109 142 109 L 144 102 Q 146 99 150 58 Q 151 51 148 50" fill="#CCCCCC"/><path d="M 116 78 Q 126 73 132 73 Q 137 74 140 76 Q 142 79 137 80 Q 128 82 116 85" fill="#CCCCCC"/><path d="M 142 109 Q 117 113 115 115 L 115 109 Q 133 100 141 101 Q 143 101 144 102" fill="#CCCCCC"/><path d="M 116 97 L 115 109 L 115 115 Q 115 133 114 150 L 110 175 Q 107 179 105 178 Q 101 176 98 172 Q 95 167 98 163 Q 102 157 103 147 Q 103 144 104 141 Q 109 63 97 53 Q 94 50 96 47 Q 98 44 105 46 Q 110 47 115 50 L 118 57 Q 116 60 116 78 L 116 85" fill="#CCCCCC"/><path d="M 113 171 L 110 175 L 114 150 Q 115 155 118 152 Q 130 144 140 137 Q 140 136 141 136 L 143 140" fill="#CCCCCC"/><path d="M 141 136 Q 138 132 138 129 Q 138 126 139 126 Q 144 126 156 135 Q 160 139 160 144 Q 160 151 158 153 Q 157 156 154 155 Q 151 155 143 140" fill="#CCCCCC"/><path d="M 194 78 L 213 73 Q 224 68 228 69 Q 241 75 243 77 Q 245 80 242 83 L 220 84 Q 219 84 217 84 Q 202 86 190 90 L 185 80" fill="#CCCCCC"/><path d="M 242 83 Q 238 89 235 113 Q 230 149 216 159 Q 212 163 207 158 L 216 131 Q 220 120 221 96 Q 222 88 220 84" fill="#CCCCCC"/><path d="M 207 158 Q 204 150 196 137 Q 193 130 198 133 Q 202 135 206 137 Q 212 137 216 131" fill="#CCCCCC"/><path d="M 190 90 Q 188 101 188 112 Q 187 180 188 197 Q 189 218 186 239 Q 185 254 181 257 Q 179 258 177 256 Q 172 249 173 198 Q 174 139 174 102 Q 173 101 174 100 Q 173 95 167 81 Q 165 78 167 77 Q 172 74 175 75 Q 178 76 185 80" fill="#CCCCCC"/><path d="M 50 61 Q 76 24 74 17 Q 73 13 76 12 Q 80 11 86 15 Q 94 18 98 22 Q 101 27 96 30 Q 90 34 85 38 Q 65 55 53 65" fill="#000080" clip-path="url(#clip-mask-1)" /><path d="M 38 166 Q 35 170 32 167 Q 28 164 26 157 Q 24 152 27 149 Q 36 139 37 130 Q 38 128 38 126 Q 46 80 32 62 Q 30 58 31 56 Q 33 55 37 56 Q 46 58 50 61 L 53 65 Q 53 66 53 68 Q 52 74 52 130 Q 52 133 53 134" fill="#000080" clip-path="url(#clip-mask-2)" /><path d="M 48 154 L 38 166 L 53 134 Q 54 135 55 134 Q 69 126 76 124 L 75 129" fill="#000080" clip-path="url(#clip-mask-3)" /><path d="M 76 124 Q 77 91 71 81 Q 67 76 72 75 Q 75 74 87 80 Q 92 82 90 87 Q 90 90 89 94 Q 89 127 85 149 Q 80 185 61 207 Q 43 226 34 226 Q 31 226 31 225 Q 32 223 35 220 Q 54 201 65 178 Q 73 159 75 129" fill="#000080" clip-path="url(#clip-mask-4)" /><path d="M 115 50 Q 132 46 148 39 Q 152 37 156 38 Q 164 43 169 47 L 148 50 Q 144 47 121 57 Q 119 57 118 57" fill="#000080" clip-path="url(#clip-mask-5)" /><path d="M 169 47 Q 173 51 169 56 Q 162 65 160 97 Q 158 109 154 112 Q 149 119 143 111 Q 142 109 142 109 L 144 102 Q 146 99 150 58 Q 151 51 148 50" fill="#000080" clip-path="url(#clip-mask-6)" /><path d="M 116 78 Q 126 73 132 73 Q 137 74 140 76 Q 142 79 137 80 Q 128 82 116 85" fill="#000080" clip-path="url(#clip-mask-7)" /><path d="M 142 109 Q 117 113 115 115 L 115 109 Q 133 100 141 101 Q 143 101 144 102" fill="#000080" clip-path="url(#clip-mask-8)" /><path d="M 116 97 L 115 109 L 115 115 Q 115 133 114 150 L 110 175 Q 107 179 105 178 Q 101 176 98 172 Q 95 167 98 163 Q 102 157 103 147 Q 103 144 104 141 Q 109 63 97 53 Q 94 50 96 47 Q 98 44 105 46 Q 110 47 115 50 L 118 57 Q 116 60 116 78 L 116 85" fill="#000080" clip-path="url(#clip-mask-9)" /><path d="M 113 171 L 110 175 L 114 150 Q 115 155 118 152 Q 130 144 140 137 Q 140 136 141 136 L 143 140" fill="#000080" clip-path="url(#clip-mask-10)" /><path d="M 141 136 Q 138 132 138 129 Q 138 126 139 126 Q 144 126 156 135 Q 160 139 160 144 Q 160 151 158 153 Q 157 156 154 155 Q 151 155 143 140" fill="#000080" clip-path="url(#clip-mask-11)" /><path d="M 194 78 L 213 73 Q 224 68 228 69 Q 241 75 243 77 Q 245 80 242 83 L 220 84 Q 219 84 217 84 Q 202 86 190 90 L 185 80" fill="#0000ff" clip-path="url(#clip-mask-12)" /><path d="M 242 83 Q 238 89 235 113 Q 230 149 216 159 Q 212 163 207 158 L 216 131 Q 220 120 221 96 Q 222 88 220 84" fill="#0000ff" clip-path="url(#clip-mask-13)" /><path d="M 207 158 Q 204 150 196 137 Q 193 130 198 133 Q 202 135 206 137 Q 212 137 216 131" fill="#0000ff" clip-path="url(#clip-mask-14)" /><path d="M 190 90 Q 188 101 188 112 Q 187 180 188 197 Q 189 218 186 239 Q 185 254 181 257 Q 179 258 177 256 Q 172 249 173 198 Q 174 139 174 102 Q 173 101 174 100 Q 173 95 167 81 Q 165 78 167 77 Q 172 74 175 75 Q 178 76 185 80" fill="#0000ff" clip-path="url(#clip-mask-15)" /><rect x="50" y="11" width="51" height="54" id="rect-1" fill="transparent" stroke="#000000"><animate attributeName="y" from="-43" to="11" dur="0.200" begin="0; animate15.end + 1s" id="animate1" fill="freeze"/></rect><rect x="24" y="55" width="29" height="115" id="rect-2" fill="transparent" stroke="#000000"><set attributeName="y" to="-60" begin="0; animate15.end + 1s" /><animate attributeName="y" from="-60" to="55" dur="0.426" begin="animate1.end + 0.5" id="animate2" fill="freeze"/></rect><rect x="38" y="124" width="38" height="42" id="rect-3" fill="transparent" stroke="#000000"><set attributeName="x" to="0" begin="0; animate15.end + 1s" /><animate attributeName="x" from="0" to="38" dur="0.141" begin="animate2.end" id="animate3" fill="freeze"/></rect><rect x="31" y="74" width="61" height="152" id="rect-4" fill="transparent" stroke="#000000"><set attributeName="y" to="-78" begin="0; animate15.end + 1s" /><animate attributeName="y" from="-78" to="74" dur="0.563" begin="animate3.end + 0.5" id="animate4" fill="freeze"/></rect><rect x="115" y="37" width="54" height="20" id="rect-5" fill="transparent" stroke="#000000"><set attributeName="x" to="61" begin="0; animate15.end + 1s" /><animate attributeName="x" from="61" to="115" dur="0.200" begin="animate4.end + 0.5" id="animate5" fill="freeze"/></rect><rect x="142" y="47" width="31" height="72" id="rect-6" fill="transparent" stroke="#000000"><set attributeName="y" to="-25" begin="0; animate15.end + 1s" /><animate attributeName="y" from="-25" to="47" dur="0.267" begin="animate5.end" id="animate6" fill="freeze"/></rect><rect x="116" y="73" width="26" height="12" id="rect-7" fill="transparent" stroke="#000000"><set attributeName="x" to="90" begin="0; animate15.end + 1s" /><animate attributeName="x" from="90" to="116" dur="0.096" begin="animate6.end + 0.5" id="animate7" fill="freeze"/></rect><rect x="115" y="100" width="29" height="15" id="rect-8" fill="transparent" stroke="#000000"><set attributeName="x" to="86" begin="0; animate15.end + 1s" /><animate attributeName="x" from="86" to="115" dur="0.107" begin="animate7.end + 0.5" id="animate8" fill="freeze"/></rect><rect x="94" y="44" width="24" height="135" id="rect-9" fill="transparent" stroke="#000000"><set attributeName="y" to="-91" begin="0; animate15.end + 1s" /><animate attributeName="y" from="-91" to="44" dur="0.500" begin="animate8.end + 0.5" id="animate9" fill="freeze"/></rect><rect x="110" y="136" width="33" height="39" id="rect-10" fill="transparent" stroke="#000000"><set attributeName="x" to="77" begin="0; animate15.end + 1s" /><animate attributeName="x" from="77" to="110" dur="0.122" begin="animate9.end" id="animate10" fill="freeze"/></rect><rect x="138" y="126" width="22" height="30" id="rect-11" fill="transparent" stroke="#000000"><set attributeName="y" to="96" begin="0; animate15.end + 1s" /><animate attributeName="y" from="96" to="126" dur="0.111" begin="animate10.end + 0.5" id="animate11" fill="freeze"/></rect><rect x="185" y="68" width="60" height="22" id="rect-12" fill="transparent" stroke="#000000"><set attributeName="x" to="125" begin="0; animate15.end + 1s" /><animate attributeName="x" from="125" to="185" dur="0.222" begin="animate11.end + 0.5" id="animate12" fill="freeze"/></rect><rect x="207" y="83" width="35" height="80" id="rect-13" fill="transparent" stroke="#000000"><set attributeName="y" to="3" begin="0; animate15.end + 1s" /><animate attributeName="y" from="3" to="83" dur="0.296" begin="animate12.end" id="animate13" fill="freeze"/></rect><rect x="193" y="130" width="23" height="28" id="rect-14" fill="transparent" stroke="#000000"><set attributeName="x" to="216" begin="0; animate15.end + 1s" /><animate attributeName="x" from="216" to="193" dur="0.085" begin="animate13.end" id="animate14" fill="freeze"/></rect><rect x="165" y="74" width="25" height="184" id="rect-15" fill="transparent" stroke="#000000"><set attributeName="y" to="-110" begin="0; animate15.end + 1s" /><animate attributeName="y" from="-110" to="74" dur="0.681" begin="animate14.end + 0.5" id="animate15" fill="freeze"/></rect></svg>