<svg xmlns="http://www.w3.org/2000/svg" xmlns:xlink="http://www.w3.org/1999/xlink" width="270" height="270"><defs><clipPath id="clip-mask-1"><use xlink:href="#rect-1" /></clipPath><clipPath id="clip-mask-2"><use xlink:href="#rect-2" /></clipPath><clipPath id="clip-mask-3"><use xlink:href="#rect-3" /></clipPath><clipPath id="clip-mask-4"><use xlink:href="#rect-4" /></clipPath><clipPath id="clip-mask-5"><use xlink:href="#rect-5" /></clipPath><clipPath id="clip-mask-6"><use xlink:href="#rect-6" /></clipPath><clipPath id="clip-mask-7"><use xlink:href="#rect-7" /></clipPath><clipPath id="clip-mask-8"><use xlink:href="#rect-8" /></clipPath><clipPath id="clip-mask-9"><use xlink:href="#rect-9" /></clipPath><clipPath id="clip-mask-10"><use xlink:href="#rect-10" /></clipPath><clipPath id="clip-mask-11"><use xlink:href="#rect-11" /></clipPath><clipPath id="clip-mask-12"><use xlink:href="#rect-12" /></clipPath><clipPath id="clip-mask-13"><use xlink:href="#rect-13" /></clipPath><clipPath id="clip-mask-14"><use xlink:href="#rect-14" /></clipPath><clipPath id="clip-mask-15"><use xlink:href="#rect-15" /></clipPath><clipPath id="clip-mask-16"><use xlink:href="#rect-16" /></clipPath><clipPath id="clip-mask-17"><use xlink:href="#rect-17" /></clipPath></defs><path d="M 0 0 L 270 270 M 270 0 L 0 270 M 135 0 L 135 270 M 0 135 L 270 135" stroke="#CCCCCC" /><path d="M 77 44 L 108 42 Q 120 40 155 33 Q 183 25 191 27 Q 198 29 200 33 Q 201 35 198 37 Q 196 39 179 43 Q 140 48 103 54 Q 90 57 80 51 L 77 45" fill="#CCCCCC"/><path d="M 80 51 Q 77 59 76 73 Q 71 142 53 183 Q 49 191 46 198 Q 24 235 14 237 Q 12 237 12 235 Q 13 233 14 231 Q 37 192 47 164 Q 60 125 61 77 Q 61 72 62 67 Q 61 50 56 42 Q 54 39 58 37 Q 61 36 66 38 Q 73 41 77 45" fill="#CCCCCC"/><path d="M 94 128 L 93 129 Q 91 132 88 128 Q 85 123 85 116 Q 84 92 79 77 Q 78 74 79 73 Q 80 72 82 73 Q 88 75 90 76 L 92 83 Q 92 87 93 97 L 93 103 Q 94 116 94 119 L 94 124" fill="#CCCCCC"/><path d="M 125 76 Q 123 75 120 75 Q 102 79 92 83 L 90 76 Q 93 75 98 74 Q 130 65 133 65 Q 142 70 145 74" fill="#CCCCCC"/><path d="M 122 114 Q 124 110 128 82 Q 128 77 125 76 L 145 74 Q 148 77 145 79 Q 141 85 139 91 Q 135 119 132 124 Q 129 129 127 128 Q 123 126 120 121" fill="#CCCCCC"/><path d="M 93 97 Q 106 90 113 90 Q 118 91 121 93 Q 123 96 118 97 Q 94 102 93 103" fill="#CCCCCC"/><path d="M 94 119 Q 113 112 120 113 Q 121 114 122 114 L 120 121 Q 110 122 97 124 Q 95 124 94 124" fill="#CCCCCC"/><path d="M 83 197 L 83 198 Q 83 226 74 233 Q 72 234 70 231 Q 64 222 71 206 Q 82 167 73 143 Q 72 140 75 139 Q 81 139 86 143 L 88 150 Q 88 150 88 151 Q 87 155 86 169 L 86 175 Q 85 181 84 189 L 84 196" fill="#CCCCCC"/><path d="M 86 143 Q 103 141 114 135 Q 117 134 121 136 Q 130 139 134 144 Q 136 146 134 150 L 117 147 Q 115 145 112 145 Q 91 150 88 150" fill="#CCCCCC"/><path d="M 134 150 Q 128 159 132 219 Q 132 230 122 241 Q 120 244 119 243 L 117 211 Q 119 189 118 153 Q 118 148 117 147" fill="#CCCCCC"/><path d="M 119 243 Q 115 241 112 237 Q 106 230 95 220 Q 94 218 99 219 Q 114 221 114 220 Q 117 218 117 211" fill="#CCCCCC"/><path d="M 86 169 Q 91 164 102 164 Q 108 165 110 167 Q 113 170 108 171 Q 99 173 87 175 Q 86 175 86 175" fill="#CCCCCC"/><path d="M 84 189 Q 94 184 102 184 Q 108 185 110 188 Q 112 191 107 192 Q 97 194 84 196" fill="#CCCCCC"/><path d="M 169 137 Q 155 139 145 134 Q 137 129 148 127 Q 159 126 170 124 L 181 120 Q 188 118 194 116 Q 202 113 211 114 Q 219 116 221 119 Q 222 121 220 124 Q 219 125 180 134" fill="#CCCCCC"/><path d="M 177 169 L 175 177 Q 167 209 146 217 Q 140 221 137 220 Q 134 220 134 219 Q 134 218 136 216 Q 147 208 153 200 Q 166 183 169 137 L 170 124 Q 170 105 169 86 Q 169 75 163 66 Q 162 63 163 61 Q 166 59 172 61 Q 181 64 187 68 Q 189 71 188 74 Q 181 88 181 120 L 180 134 Q 180 139 180 144 Q 180 144 180 145 L 179 157" fill="#CCCCCC"/><path d="M 180 145 Q 192 168 208 187 Q 220 204 251 222 Q 257 226 256 228 Q 256 229 251 229 Q 237 228 222 228 Q 217 228 213 221 Q 199 200 179 157" fill="#CCCCCC"/><path d="M 200 78 L 199 75 Q 199 71 200 70 Q 202 70 206 71 Q 228 78 230 86 Q 231 94 230 98 Q 228 102 225 101 Q 221 101 217 97 Q 212 90 206 84" fill="#CCCCCC"/><path d="M 77 44 L 108 42 Q 120 40 155 33 Q 183 25 191 27 Q 198 29 200 33 Q 201 35 198 37 Q 196 39 179 43 Q 140 48 103 54 Q 90 57 80 51 L 77 45" fill="#0000ff" clip-path="url(#clip-mask-1)" /><path d="M 80 51 Q 77 59 76 73 Q 71 142 53 183 Q 49 191 46 198 Q 24 235 14 237 Q 12 237 12 235 Q 13 233 14 231 Q 37 192 47 164 Q 60 125 61 77 Q 61 72 62 67 Q 61 50 56 42 Q 54 39 58 37 Q 61 36 66 38 Q 73 41 77 45" fill="#0000ff" clip-path="url(#clip-mask-2)" /><path d="M 94 128 L 93 129 Q 91 132 88 128 Q 85 123 85 116 Q 84 92 79 77 Q 78 74 79 73 Q 80 72 82 73 Q 88 75 90 76 L 92 83 Q 92 87 93 97 L 93 103 Q 94 116 94 119 L 94 124" fill="#000080" clip-path="url(#clip-mask-3)" /><path d="M 125 76 Q 123 75 120 75 Q 102 79 92 83 L 90 76 Q 93 75 98 74 Q 130 65 133 65 Q 142 70 145 74" fill="#000080" clip-path="url(#clip-mask-4)" /><path d="M 122 114 Q 124 110 128 82 Q 128 77 125 76 L 145 74 Q 148 77 145 79 Q 141 85 139 91 Q 135 119 132 124 Q 129 129 127 128 Q 123 126 120 121" fill="#000080" clip-path="url(#clip-mask-5)" /><path d="M 93 97 Q 106 90 113 90 Q 118 91 121 93 Q 123 96 118 97 Q 94 102 93 103" fill="#000080" clip-path="url(#clip-mask-6)" /><path d="M 94 119 Q 113 112 120 113 Q 121 114 122 114 L 120 121 Q 110 122 97 124 Q 95 124 94 124" fill="#000080" clip-path="url(#clip-mask-7)" /><path d="M 83 197 L 83 198 Q 83 226 74 233 Q 72 234 70 231 Q 64 222 71 206 Q 82 167 73 143 Q 72 140 75 139 Q 81 139 86 143 L 88 150 Q 88 150 88 151 Q 87 155 86 169 L 86 175 Q 85 181 84 189 L 84 196" fill="#000080" clip-path="url(#clip-mask-8)" /><path d="M 86 143 Q 103 141 114 135 Q 117 134 121 136 Q 130 139 134 144 Q 136 146 134 150 L 117 147 Q 115 145 112 145 Q 91 150 88 150" fill="#000080" clip-path="url(#clip-mask-9)" /><path d="M 134 150 Q 128 159 132 219 Q 132 230 122 241 Q 120 244 119 243 L 117 211 Q 119 189 118 153 Q 118 148 117 147" fill="#000080" clip-path="url(#clip-mask-10)" /><path d="M 119 243 Q 115 241 112 237 Q 106 230 95 220 Q 94 218 99 219 Q 114 221 114 220 Q 117 218 117 211" fill="#000080" clip-path="url(#clip-mask-11)" /><path d="M 86 169 Q 91 164 102 164 Q 108 165 110 167 Q 113 170 108 171 Q 99 173 87 175 Q 86 175 86 175" fill="#000080" clip-path="url(#clip-mask-12)" /><path d="M 84 189 Q 94 184 102 184 Q 108 185 110 188 Q 112 191 107 192 Q 97 194 84 196" fill="#000080" clip-path="url(#clip-mask-13)" /><path d="M 169 137 Q 155 139 145 134 Q 137 129 148 127 Q 159 126 170 124 L 181 120 Q 188 118 194 116 Q 202 113 211 114 Q 219 116 221 119 Q 222 121 220 124 Q 219 125 180 134" fill="#000080" clip-path="url(#clip-mask-14)" /><path d="M 177 169 L 175 177 Q 167 209 146 217 Q 140 221 137 220 Q 134 220 134 219 Q 134 218 136 216 Q 147 208 153 200 Q 166 183 169 137 L 170 124 Q 170 105 169 86 Q 169 75 163 66 Q 162 63 163 61 Q 166 59 172 61 Q 181 64 187 68 Q 189 71 188 74 Q 181 88 181 120 L 180 134 Q 180 139 180 144 Q 180 144 180 145 L 179 157" fill="#000080" clip-path="url(#clip-mask-15)" /><path d="M 180 145 Q 192 168 208 187 Q 220 204 251 222 Q 257 226 256 228 Q 256 229 251 229 Q 237 228 222 228 Q 217 228 213 221 Q 199 200 179 157" fill="#000080" clip-path="url(#clip-mask-16)" /><path d="M 200 78 L 199 75 Q 199 71 200 70 Q 202 70 206 71 Q 228 78 230 86 Q 231 94 230 98 Q 228 102 225 101 Q 221 101 217 97 Q 212 90 206 84" fill="#000080" clip-path="url(#clip-mask-17)" /><rect x="77" y="25" width="124" height="32" id="rect-1" fill="transparent" stroke="#000000"><animate attributeName="x" from="-47" to="77" dur="0.459" begin="0; animate17.end + 1s" id="animate1" fill="freeze"/></rect><rect x="12" y="36" width="68" height="201" id="rect-2" fill="transparent" stroke="#000000"><set attributeName="y" to="-165" begin="0; animate17.end + 1s" /><animate attributeName="y" from="-165" to="36" dur="0.744" begin="animate1.end + 0.5" id="animate2" fill="freeze"/></rect><rect x="78" y="72" width="16" height="60" id="rect-3" fill="transparent" stroke="#000000"><set attributeName="y" to="12" begin="0; animate17.end + 1s" /><animate attributeName="y" from="12" to="72" dur="0.222" begin="animate2.end + 0.5" id="animate3" fill="freeze"/></rect><rect x="90" y="65" width="55" height="18" id="rect-4" fill="transparent" stroke="#000000"><set attributeName="x" to="35" begin="0; animate17.end + 1s" /><animate attributeName="x" from="35" to="90" dur="0.204" begin="animate3.end + 0.5" id="animate4" fill="freeze"/></rect><rect x="120" y="74" width="28" height="55" id="rect-5" fill="transparent" stroke="#000000"><set attributeName="y" to="19" begin="0; animate17.end + 1s" /><animate attributeName="y" from="19" to="74" dur="0.204" begin="animate4.end" id="animate5" fill="freeze"/></rect><rect x="93" y="90" width="30" height="13" id="rect-6" fill="transparent" stroke="#000000"><set attributeName="x" to="63" begin="0; animate17.end + 1s" /><animate attributeName="x" from="63" to="93" dur="0.111" begin="animate5.end + 0.5" id="animate6" fill="freeze"/></rect><rect x="94" y="112" width="28" height="12" id="rect-7" fill="transparent" stroke="#000000"><set attributeName="x" to="66" begin="0; animate17.end + 1s" /><animate attributeName="x" from="66" to="94" dur="0.104" begin="animate6.end + 0.5" id="animate7" fill="freeze"/></rect><rect x="64" y="139" width="24" height="95" id="rect-8" fill="transparent" stroke="#000000"><set attributeName="y" to="44" begin="0; animate17.end + 1s" /><animate attributeName="y" from="44" to="139" dur="0.352" begin="animate7.end + 0.5" id="animate8" fill="freeze"/></rect><rect x="86" y="134" width="50" height="16" id="rect-9" fill="transparent" stroke="#000000"><set attributeName="x" to="36" begin="0; animate17.end + 1s" /><animate attributeName="x" from="36" to="86" dur="0.185" begin="animate8.end + 0.5" id="animate9" fill="freeze"/></rect><rect x="117" y="147" width="17" height="97" id="rect-10" fill="transparent" stroke="#000000"><set attributeName="y" to="50" begin="0; animate17.end + 1s" /><animate attributeName="y" from="50" to="147" dur="0.359" begin="animate9.end" id="animate10" fill="freeze"/></rect><rect x="94" y="211" width="25" height="32" id="rect-11" fill="transparent" stroke="#000000"><set attributeName="x" to="119" begin="0; animate17.end + 1s" /><animate attributeName="x" from="119" to="94" dur="0.093" begin="animate10.end" id="animate11" fill="freeze"/></rect><rect x="86" y="164" width="27" height="11" id="rect-12" fill="transparent" stroke="#000000"><set attributeName="x" to="59" begin="0; animate17.end + 1s" /><animate attributeName="x" from="59" to="86" dur="0.100" begin="animate11.end + 0.5" id="animate12" fill="freeze"/></rect><rect x="84" y="184" width="28" height="12" id="rect-13" fill="transparent" stroke="#000000"><set attributeName="x" to="56" begin="0; animate17.end + 1s" /><animate attributeName="x" from="56" to="84" dur="0.104" begin="animate12.end + 0.5" id="animate13" fill="freeze"/></rect><rect x="137" y="113" width="85" height="26" id="rect-14" fill="transparent" stroke="#000000"><set attributeName="x" to="52" begin="0; animate17.end + 1s" /><animate attributeName="x" from="52" to="137" dur="0.315" begin="animate13.end + 0.5" id="animate14" fill="freeze"/></rect><rect x="134" y="59" width="55" height="162" id="rect-15" fill="transparent" stroke="#000000"><set attributeName="y" to="-103" begin="0; animate17.end + 1s" /><animate attributeName="y" from="-103" to="59" dur="0.600" begin="animate14.end + 0.5" id="animate15" fill="freeze"/></rect><rect x="179" y="145" width="78" height="84" id="rect-16" fill="transparent" stroke="#000000"><set attributeName="x" to="101" begin="0; animate17.end + 1s" /><animate attributeName="x" from="101" to="179" dur="0.289" begin="animate15.end + 0.5" id="animate16" fill="freeze"/></rect><rect x="199" y="70" width="32" height="32" id="rect-17" fill="transparent" stroke="#000000"><set attributeName="x" to="167" begin="0; animate17.end + 1s" /><animate attributeName="x" from="167" to="199" dur="0.119" begin="animate16.end + 0.5" id="animate17" fill="freeze"/></rect></svg>