<svg xmlns="http://www.w3.org/2000/svg" xmlns:xlink="http://www.w3.org/1999/xlink" width="270" height="270"><defs><clipPath id="clip-mask-1"><use xlink:href="#rect-1" /></clipPath><clipPath id="clip-mask-2"><use xlink:href="#rect-2" /></clipPath><clipPath id="clip-mask-3"><use xlink:href="#rect-3" /></clipPath><clipPath id="clip-mask-4"><use xlink:href="#rect-4" /></clipPath><clipPath id="clip-mask-5"><use xlink:href="#rect-5" /></clipPath><clipPath id="clip-mask-6"><use xlink:href="#rect-6" /></clipPath><clipPath id="clip-mask-7"><use xlink:href="#rect-7" /></clipPath><clipPath id="clip-mask-8"><use xlink:href="#rect-8" /></clipPath><clipPath id="clip-mask-9"><use xlink:href="#rect-9" /></clipPath><clipPath id="clip-mask-10"><use xlink:href="#rect-10" /></clipPath></defs><path d="M 0 0 L 270 270 M 270 0 L 0 270 M 135 0 L 135 270 M 0 135 L 270 135" stroke="#CCCCCC" /><path d="M 37 75 L 37 73 Q 38 69 39 69 Q 41 68 57 77 Q 64 81 64 86 Q 65 93 63 96 Q 61 99 59 99 Q 55 98 52 95 Q 48 87 43 81" fill="#CCCCCC"/><path d="M 116 59 L 114 55 Q 113 53 116 52 Q 118 51 124 53 Q 130 55 133 58 Q 136 61 132 64 Q 127 67 124 72 Q 113 82 103 91 Q 99 92 101 88 Q 112 68 113 64" fill="#CCCCCC"/><path d="M 77 125 Q 72 126 69 127 Q 50 132 40 127 Q 34 124 42 122 Q 58 120 71 116 Q 75 115 78 114 L 90 109 Q 99 104 109 106 Q 116 107 117 110 Q 118 112 117 114 Q 116 114 89 122" fill="#CCCCCC"/><path d="M 58 166 L 40 174 Q 29 178 18 171 Q 14 168 15 166 Q 15 163 19 163 Q 33 161 74 150 L 87 146 Q 94 144 101 142 Q 107 140 114 143 Q 119 145 119 148 Q 119 150 115 151 Q 99 155 86 158 L 72 162" fill="#CCCCCC"/><path d="M 74 150 Q 77 132 77 125 L 78 114 Q 80 85 79 54 Q 79 42 73 32 Q 71 29 73 27 Q 76 25 82 27 Q 93 30 98 35 Q 101 38 99 42 Q 93 55 90 109 L 89 122 Q 88 135 87 146 L 86 158 Q 85 162 84 166 Q 74 222 46 239 Q 38 244 35 243 Q 32 243 31 242 Q 31 241 34 239 Q 45 226 53 214 Q 62 199 72 162" fill="#CCCCCC"/><path d="M 153 83 Q 154 82 155 81 Q 191 55 191 46 Q 191 42 194 43 Q 198 43 204 48 Q 210 53 212 58 Q 214 64 208 65 Q 201 66 195 70 Q 159 87 155 89" fill="#CCCCCC"/><path d="M 144 159 L 143 164 Q 140 169 138 176 Q 133 190 121 202 Q 100 227 84 228 Q 81 228 84 225 Q 87 222 91 219 Q 123 195 134 152 Q 134 149 135 146 Q 143 98 132 83 Q 130 80 133 78 Q 140 75 152 82 Q 152 82 153 83 L 155 89 Q 152 98 150 128 Q 149 128 149 128 L 149 135 Q 148 142 147 149 L 146 154" fill="#CCCCCC"/><path d="M 149 128 Q 165 125 174 122 Q 184 119 191 116 Q 198 112 204 113 Q 213 115 216 118 Q 220 122 215 126 L 187 127 Q 184 127 169 133 Q 158 136 149 135" fill="#CCCCCC"/><path d="M 215 126 Q 210 131 208 139 Q 199 169 189 188 L 182 199 Q 174 209 165 216 Q 149 229 136 230 Q 125 231 123 229 Q 120 228 124 226 Q 158 213 173 188 L 179 177 Q 187 160 192 134 Q 194 127 187 127" fill="#CCCCCC"/><path d="M 189 188 Q 190 189 191 190 Q 210 209 253 226 Q 255 227 254 229 Q 251 232 216 234 Q 209 234 205 229 Q 194 215 182 199 L 173 188 Q 166 178 158 167 Q 153 159 146 154 L 147 149 Q 149 148 150 149 Q 155 149 157 153 Q 169 167 179 177" fill="#CCCCCC"/><path d="M 37 75 L 37 73 Q 38 69 39 69 Q 41 68 57 77 Q 64 81 64 86 Q 65 93 63 96 Q 61 99 59 99 Q 55 98 52 95 Q 48 87 43 81" fill="#000080" clip-path="url(#clip-mask-1)" /><path d="M 116 59 L 114 55 Q 113 53 116 52 Q 118 51 124 53 Q 130 55 133 58 Q 136 61 132 64 Q 127 67 124 72 Q 113 82 103 91 Q 99 92 101 88 Q 112 68 113 64" fill="#000080" clip-path="url(#clip-mask-2)" /><path d="M 77 125 Q 72 126 69 127 Q 50 132 40 127 Q 34 124 42 122 Q 58 120 71 116 Q 75 115 78 114 L 90 109 Q 99 104 109 106 Q 116 107 117 110 Q 118 112 117 114 Q 116 114 89 122" fill="#000080" clip-path="url(#clip-mask-3)" /><path d="M 58 166 L 40 174 Q 29 178 18 171 Q 14 168 15 166 Q 15 163 19 163 Q 33 161 74 150 L 87 146 Q 94 144 101 142 Q 107 140 114 143 Q 119 145 119 148 Q 119 150 115 151 Q 99 155 86 158 L 72 162" fill="#000080" clip-path="url(#clip-mask-4)" /><path d="M 74 150 Q 77 132 77 125 L 78 114 Q 80 85 79 54 Q 79 42 73 32 Q 71 29 73 27 Q 76 25 82 27 Q 93 30 98 35 Q 101 38 99 42 Q 93 55 90 109 L 89 122 Q 88 135 87 146 L 86 158 Q 85 162 84 166 Q 74 222 46 239 Q 38 244 35 243 Q 32 243 31 242 Q 31 241 34 239 Q 45 226 53 214 Q 62 199 72 162" fill="#000080" clip-path="url(#clip-mask-5)" /><path d="M 153 83 Q 154 82 155 81 Q 191 55 191 46 Q 191 42 194 43 Q 198 43 204 48 Q 210 53 212 58 Q 214 64 208 65 Q 201 66 195 70 Q 159 87 155 89" fill="#000080" clip-path="url(#clip-mask-6)" /><path d="M 144 159 L 143 164 Q 140 169 138 176 Q 133 190 121 202 Q 100 227 84 228 Q 81 228 84 225 Q 87 222 91 219 Q 123 195 134 152 Q 134 149 135 146 Q 143 98 132 83 Q 130 80 133 78 Q 140 75 152 82 Q 152 82 153 83 L 155 89 Q 152 98 150 128 Q 149 128 149 128 L 149 135 Q 148 142 147 149 L 146 154" fill="#000080" clip-path="url(#clip-mask-7)" /><path d="M 149 128 Q 165 125 174 122 Q 184 119 191 116 Q 198 112 204 113 Q 213 115 216 118 Q 220 122 215 126 L 187 127 Q 184 127 169 133 Q 158 136 149 135" fill="#0000ff" clip-path="url(#clip-mask-8)" /><path d="M 215 126 Q 210 131 208 139 Q 199 169 189 188 L 182 199 Q 174 209 165 216 Q 149 229 136 230 Q 125 231 123 229 Q 120 228 124 226 Q 158 213 173 188 L 179 177 Q 187 160 192 134 Q 194 127 187 127" fill="#0000ff" clip-path="url(#clip-mask-9)" /><path d="M 189 188 Q 190 189 191 190 Q 210 209 253 226 Q 255 227 254 229 Q 251 232 216 234 Q 209 234 205 229 Q 194 215 182 199 L 173 188 Q 166 178 158 167 Q 153 159 146 154 L 147 149 Q 149 148 150 149 Q 155 149 157 153 Q 169 167 179 177" fill="#0000ff" clip-path="url(#clip-mask-10)" /><rect x="37" y="68" width="28" height="31" id="rect-1" fill="transparent" stroke="#000000"><animate attributeName="y" from="37" to="68" dur="0.115" begin="0; animate10.end + 1s" id="animate1" fill="freeze"/></rect><rect x="99" y="51" width="37" height="41" id="rect-2" fill="transparent" stroke="#000000"><set attributeName="y" to="10" begin="0; animate10.end + 1s" /><animate attributeName="y" from="10" to="51" dur="0.152" begin="animate1.end + 0.5" id="animate2" fill="freeze"/></rect><rect x="34" y="104" width="84" height="28" id="rect-3" fill="transparent" stroke="#000000"><set attributeName="x" to="-50" begin="0; animate10.end + 1s" /><animate attributeName="x" from="-50" to="34" dur="0.311" begin="animate2.end + 0.5" id="animate3" fill="freeze"/></rect><rect x="14" y="140" width="105" height="38" id="rect-4" fill="transparent" stroke="#000000"><set attributeName="x" to="-91" begin="0; animate10.end + 1s" /><animate attributeName="x" from="-91" to="14" dur="0.389" begin="animate3.end + 0.5" id="animate4" fill="freeze"/></rect><rect x="31" y="25" width="70" height="219" id="rect-5" fill="transparent" stroke="#000000"><set attributeName="y" to="-194" begin="0; animate10.end + 1s" /><animate attributeName="y" from="-194" to="25" dur="0.811" begin="animate4.end + 0.5" id="animate5" fill="freeze"/></rect><rect x="153" y="42" width="61" height="47" id="rect-6" fill="transparent" stroke="#000000"><set attributeName="x" to="214" begin="0; animate10.end + 1s" /><animate attributeName="x" from="214" to="153" dur="0.226" begin="animate5.end + 0.5" id="animate6" fill="freeze"/></rect><rect x="81" y="75" width="74" height="153" id="rect-7" fill="transparent" stroke="#000000"><set attributeName="y" to="-78" begin="0; animate10.end + 1s" /><animate attributeName="y" from="-78" to="75" dur="0.567" begin="animate6.end + 0.5" id="animate7" fill="freeze"/></rect><rect x="149" y="112" width="71" height="24" id="rect-8" fill="transparent" stroke="#000000"><set attributeName="x" to="78" begin="0; animate10.end + 1s" /><animate attributeName="x" from="78" to="149" dur="0.263" begin="animate7.end + 0.5" id="animate8" fill="freeze"/></rect><rect x="120" y="126" width="95" height="105" id="rect-9" fill="transparent" stroke="#000000"><set attributeName="y" to="21" begin="0; animate10.end + 1s" /><animate attributeName="y" from="21" to="126" dur="0.389" begin="animate8.end" id="animate9" fill="freeze"/></rect><rect x="146" y="148" width="109" height="86" id="rect-10" fill="transparent" stroke="#000000"><set attributeName="x" to="37" begin="0; animate10.end + 1s" /><animate attributeName="x" from="37" to="146" dur="0.404" begin="animate9.end + 0.5" id="animate10" fill="freeze"/></rect></svg>