<svg xmlns="http://www.w3.org/2000/svg" xmlns:xlink="http://www.w3.org/1999/xlink" width="270" height="270"><defs><clipPath id="clip-mask-1"><use xlink:href="#rect-1" /></clipPath><clipPath id="clip-mask-2"><use xlink:href="#rect-2" /></clipPath><clipPath id="clip-mask-3"><use xlink:href="#rect-3" /></clipPath><clipPath id="clip-mask-4"><use xlink:href="#rect-4" /></clipPath><clipPath id="clip-mask-5"><use xlink:href="#rect-5" /></clipPath><clipPath id="clip-mask-6"><use xlink:href="#rect-6" /></clipPath><clipPath id="clip-mask-7"><use xlink:href="#rect-7" /></clipPath><clipPath id="clip-mask-8"><use xlink:href="#rect-8" /></clipPath><clipPath id="clip-mask-9"><use xlink:href="#rect-9" /></clipPath><clipPath id="clip-mask-10"><use xlink:href="#rect-10" /></clipPath></defs><path d="M 0 0 L 270 270 M 270 0 L 0 270 M 135 0 L 135 270 M 0 135 L 270 135" stroke="#CCCCCC" /><path d="M 38 161 L 36 168 Q 34 172 30 166 Q 25 159 25 149 Q 22 115 14 95 Q 12 90 13 89 Q 14 88 18 89 Q 27 91 29 93 L 31 101 Q 32 110 36 140 L 37 149" fill="#CCCCCC"/><path d="M 62 95 Q 60 92 54 94 Q 41 97 31 101 L 29 93 Q 38 90 45 88 Q 53 85 59 81 Q 64 77 69 80 Q 77 84 82 87 Q 88 91 83 98" fill="#CCCCCC"/><path d="M 57 132 Q 60 119 62 108 Q 64 97 62 95 L 83 98 Q 75 106 71 133" fill="#CCCCCC"/><path d="M 36 140 Q 45 137 56 133 Q 57 132 57 132 L 71 133 Q 77 136 77 138 Q 77 140 74 141 Q 59 143 37 149" fill="#CCCCCC"/><path d="M 110 69 L 115 68 Q 120 68 126 72 Q 133 77 134 80 Q 136 83 133 86 Q 126 93 124 99 Q 95 146 83 148 Q 79 149 80 146 Q 81 144 83 142 Q 94 126 101 112 Q 117 82 113 74" fill="#CCCCCC"/><path d="M 135 31 L 136 28 Q 137 27 145 27 Q 155 28 161 37 Q 183 72 197 85 Q 212 101 251 114 Q 257 116 257 118 Q 257 120 250 120 Q 229 122 219 122 Q 205 121 199 115 Q 177 90 160 56 Q 150 39 137 31" fill="#CCCCCC"/><path d="M 118 154 L 114 155 Q 109 157 102 153 Q 96 151 97 149 Q 98 146 102 146 Q 121 144 145 138 Q 168 132 174 129 Q 179 125 184 128 Q 198 134 200 136 Q 202 139 199 143 L 175 142 Q 174 140 169 141 Q 153 143 132 150 L 123 152" fill="#CCCCCC"/><path d="M 199 143 Q 193 150 191 164 Q 184 206 177 220 Q 170 231 161 237 L 160 208 Q 170 193 176 159 Q 179 147 175 142" fill="#CCCCCC"/><path d="M 161 237 Q 155 242 149 236 Q 145 227 134 215 Q 129 208 136 211 Q 141 213 148 215 Q 155 217 160 208" fill="#CCCCCC"/><path d="M 132 150 Q 137 151 140 154 Q 144 157 144 159 Q 145 162 143 163 Q 141 164 140 167 Q 126 190 116 201 Q 115 202 115 203 Q 91 230 74 233 Q 72 233 74 232 Q 93 213 100 204 Q 100 203 101 203 Q 128 167 123 152" fill="#CCCCCC"/><path d="M 38 161 L 36 168 Q 34 172 30 166 Q 25 159 25 149 Q 22 115 14 95 Q 12 90 13 89 Q 14 88 18 89 Q 27 91 29 93 L 31 101 Q 32 110 36 140 L 37 149" fill="#0000ff" clip-path="url(#clip-mask-1)" /><path d="M 62 95 Q 60 92 54 94 Q 41 97 31 101 L 29 93 Q 38 90 45 88 Q 53 85 59 81 Q 64 77 69 80 Q 77 84 82 87 Q 88 91 83 98" fill="#0000ff" clip-path="url(#clip-mask-2)" /><path d="M 57 132 Q 60 119 62 108 Q 64 97 62 95 L 83 98 Q 75 106 71 133" fill="#0000ff" clip-path="url(#clip-mask-3)" /><path d="M 36 140 Q 45 137 56 133 Q 57 132 57 132 L 71 133 Q 77 136 77 138 Q 77 140 74 141 Q 59 143 37 149" fill="#0000ff" clip-path="url(#clip-mask-4)" /><path d="M 110 69 L 115 68 Q 120 68 126 72 Q 133 77 134 80 Q 136 83 133 86 Q 126 93 124 99 Q 95 146 83 148 Q 79 149 80 146 Q 81 144 83 142 Q 94 126 101 112 Q 117 82 113 74" fill="#000080" clip-path="url(#clip-mask-5)" /><path d="M 135 31 L 136 28 Q 137 27 145 27 Q 155 28 161 37 Q 183 72 197 85 Q 212 101 251 114 Q 257 116 257 118 Q 257 120 250 120 Q 229 122 219 122 Q 205 121 199 115 Q 177 90 160 56 Q 150 39 137 31" fill="#000080" clip-path="url(#clip-mask-6)" /><path d="M 118 154 L 114 155 Q 109 157 102 153 Q 96 151 97 149 Q 98 146 102 146 Q 121 144 145 138 Q 168 132 174 129 Q 179 125 184 128 Q 198 134 200 136 Q 202 139 199 143 L 175 142 Q 174 140 169 141 Q 153 143 132 150 L 123 152" fill="#000080" clip-path="url(#clip-mask-7)" /><path d="M 199 143 Q 193 150 191 164 Q 184 206 177 220 Q 170 231 161 237 L 160 208 Q 170 193 176 159 Q 179 147 175 142" fill="#000080" clip-path="url(#clip-mask-8)" /><path d="M 161 237 Q 155 242 149 236 Q 145 227 134 215 Q 129 208 136 211 Q 141 213 148 215 Q 155 217 160 208" fill="#000080" clip-path="url(#clip-mask-9)" /><path d="M 132 150 Q 137 151 140 154 Q 144 157 144 159 Q 145 162 143 163 Q 141 164 140 167 Q 126 190 116 201 Q 115 202 115 203 Q 91 230 74 233 Q 72 233 74 232 Q 93 213 100 204 Q 100 203 101 203 Q 128 167 123 152" fill="#000080" clip-path="url(#clip-mask-10)" /><rect x="12" y="88" width="26" height="84" id="rect-1" fill="transparent" stroke="#000000"><animate attributeName="y" from="4" to="88" dur="0.311" begin="0; animate10.end + 1s" id="animate1" fill="freeze"/></rect><rect x="29" y="77" width="59" height="24" id="rect-2" fill="transparent" stroke="#000000"><set attributeName="x" to="-30" begin="0; animate10.end + 1s" /><animate attributeName="x" from="-30" to="29" dur="0.219" begin="animate1.end + 0.5" id="animate2" fill="freeze"/></rect><rect x="57" y="95" width="26" height="38" id="rect-3" fill="transparent" stroke="#000000"><set attributeName="y" to="57" begin="0; animate10.end + 1s" /><animate attributeName="y" from="57" to="95" dur="0.141" begin="animate2.end" id="animate3" fill="freeze"/></rect><rect x="36" y="132" width="41" height="17" id="rect-4" fill="transparent" stroke="#000000"><set attributeName="x" to="-5" begin="0; animate10.end + 1s" /><animate attributeName="x" from="-5" to="36" dur="0.152" begin="animate3.end + 0.5" id="animate4" fill="freeze"/></rect><rect x="79" y="68" width="57" height="81" id="rect-5" fill="transparent" stroke="#000000"><set attributeName="y" to="-13" begin="0; animate10.end + 1s" /><animate attributeName="y" from="-13" to="68" dur="0.300" begin="animate4.end + 0.5" id="animate5" fill="freeze"/></rect><rect x="135" y="27" width="122" height="95" id="rect-6" fill="transparent" stroke="#000000"><set attributeName="x" to="13" begin="0; animate10.end + 1s" /><animate attributeName="x" from="13" to="135" dur="0.452" begin="animate5.end + 0.5" id="animate6" fill="freeze"/></rect><rect x="96" y="125" width="106" height="32" id="rect-7" fill="transparent" stroke="#000000"><set attributeName="x" to="-10" begin="0; animate10.end + 1s" /><animate attributeName="x" from="-10" to="96" dur="0.393" begin="animate6.end + 0.5" id="animate7" fill="freeze"/></rect><rect x="160" y="142" width="39" height="95" id="rect-8" fill="transparent" stroke="#000000"><set attributeName="y" to="47" begin="0; animate10.end + 1s" /><animate attributeName="y" from="47" to="142" dur="0.352" begin="animate7.end" id="animate8" fill="freeze"/></rect><rect x="129" y="208" width="32" height="34" id="rect-9" fill="transparent" stroke="#000000"><set attributeName="x" to="161" begin="0; animate10.end + 1s" /><animate attributeName="x" from="161" to="129" dur="0.119" begin="animate8.end" id="animate9" fill="freeze"/></rect><rect x="72" y="150" width="73" height="83" id="rect-10" fill="transparent" stroke="#000000"><set attributeName="y" to="67" begin="0; animate10.end + 1s" /><animate attributeName="y" from="67" to="150" dur="0.307" begin="animate9.end + 0.5" id="animate10" fill="freeze"/></rect></svg>