<svg xmlns="http://www.w3.org/2000/svg" xmlns:xlink="http://www.w3.org/1999/xlink" width="270" height="270"><defs><clipPath id="clip-mask-1"><use xlink:href="#rect-1" /></clipPath><clipPath id="clip-mask-2"><use xlink:href="#rect-2" /></clipPath><clipPath id="clip-mask-3"><use xlink:href="#rect-3" /></clipPath><clipPath id="clip-mask-4"><use xlink:href="#rect-4" /></clipPath><clipPath id="clip-mask-5"><use xlink:href="#rect-5" /></clipPath><clipPath id="clip-mask-6"><use xlink:href="#rect-6" /></clipPath><clipPath id="clip-mask-7"><use xlink:href="#rect-7" /></clipPath><clipPath id="clip-mask-8"><use xlink:href="#rect-8" /></clipPath><clipPath id="clip-mask-9"><use xlink:href="#rect-9" /></clipPath><clipPath id="clip-mask-10"><use xlink:href="#rect-10" /></clipPath><clipPath id="clip-mask-11"><use xlink:href="#rect-11" /></clipPath><clipPath id="clip-mask-12"><use xlink:href="#rect-12" /></clipPath></defs><path d="M 0 0 L 270 270 M 270 0 L 0 270 M 135 0 L 135 270 M 0 135 L 270 135" stroke="#CCCCCC" /><path d="M 59 168 L 57 174 Q 55 178 51 172 Q 46 165 46 156 Q 42 125 35 106 Q 33 102 34 100 Q 35 99 39 100 Q 46 101 49 103 L 52 110 Q 53 118 57 149 L 58 158" fill="#CCCCCC"/><path d="M 86 106 Q 84 104 78 105 Q 54 110 52 110 L 49 103 Q 61 101 77 95 Q 88 88 94 91 Q 101 95 106 98 Q 113 102 107 109" fill="#CCCCCC"/><path d="M 81 143 Q 84 130 86 118 Q 88 108 86 106 L 107 109 Q 99 117 95 143" fill="#CCCCCC"/><path d="M 57 149 Q 67 147 81 143 L 95 143 Q 102 147 102 149 Q 101 152 99 152 Q 81 154 58 158" fill="#CCCCCC"/><path d="M 141 96 Q 149 81 156 67 Q 171 41 167 32 Q 165 28 168 27 Q 172 25 180 27 Q 189 30 194 34 Q 198 38 193 43 Q 188 46 148 95" fill="#CCCCCC"/><path d="M 141 222 Q 141 227 138 232 Q 135 235 132 232 Q 122 219 126 204 Q 133 175 130 120 Q 130 118 130 117 Q 129 114 124 96 Q 123 92 125 91 Q 128 90 131 91 Q 136 93 139 96 L 144 105 Q 144 106 144 108 Q 143 111 143 134 L 143 141 Q 142 153 142 171 L 142 178 Q 142 209 142 212" fill="#CCCCCC"/><path d="M 209 96 Q 205 93 198 94 Q 179 98 158 102 Q 149 104 144 105 L 139 96 Q 140 96 141 96 L 148 95 Q 187 87 203 80 Q 208 77 213 80 Q 228 87 234 92 Q 236 95 234 99" fill="#CCCCCC"/><path d="M 211 207 Q 214 201 214 180 Q 215 148 214 124 Q 212 98 209 96 L 234 99 Q 229 106 229 115 Q 230 175 233 208 Q 234 222 229 233 Q 224 244 219 244 Q 216 244 213 239" fill="#CCCCCC"/><path d="M 208 211 Q 210 211 211 207 L 213 239 Q 207 228 198 217" fill="#CCCCCC"/><path d="M 143 134 Q 178 123 186 124 Q 193 125 195 129 Q 198 133 191 134 Q 173 137 148 141 Q 144 142 143 141" fill="#CCCCCC"/><path d="M 142 171 Q 181 160 188 161 Q 195 163 197 167 Q 200 170 193 171 Q 174 173 147 178 Q 144 178 142 178" fill="#CCCCCC"/><path d="M 162 218 L 144 222 Q 142 222 141 222 L 142 212 Q 163 210 188 205 Q 197 203 201 206 Q 206 209 208 211 L 198 217" fill="#CCCCCC"/><path d="M 59 168 L 57 174 Q 55 178 51 172 Q 46 165 46 156 Q 42 125 35 106 Q 33 102 34 100 Q 35 99 39 100 Q 46 101 49 103 L 52 110 Q 53 118 57 149 L 58 158" fill="#0000ff" clip-path="url(#clip-mask-1)" /><path d="M 86 106 Q 84 104 78 105 Q 54 110 52 110 L 49 103 Q 61 101 77 95 Q 88 88 94 91 Q 101 95 106 98 Q 113 102 107 109" fill="#0000ff" clip-path="url(#clip-mask-2)" /><path d="M 81 143 Q 84 130 86 118 Q 88 108 86 106 L 107 109 Q 99 117 95 143" fill="#0000ff" clip-path="url(#clip-mask-3)" /><path d="M 57 149 Q 67 147 81 143 L 95 143 Q 102 147 102 149 Q 101 152 99 152 Q 81 154 58 158" fill="#0000ff" clip-path="url(#clip-mask-4)" /><path d="M 141 96 Q 149 81 156 67 Q 171 41 167 32 Q 165 28 168 27 Q 172 25 180 27 Q 189 30 194 34 Q 198 38 193 43 Q 188 46 148 95" fill="#000080" clip-path="url(#clip-mask-5)" /><path d="M 141 222 Q 141 227 138 232 Q 135 235 132 232 Q 122 219 126 204 Q 133 175 130 120 Q 130 118 130 117 Q 129 114 124 96 Q 123 92 125 91 Q 128 90 131 91 Q 136 93 139 96 L 144 105 Q 144 106 144 108 Q 143 111 143 134 L 143 141 Q 142 153 142 171 L 142 178 Q 142 209 142 212" fill="#000080" clip-path="url(#clip-mask-6)" /><path d="M 209 96 Q 205 93 198 94 Q 179 98 158 102 Q 149 104 144 105 L 139 96 Q 140 96 141 96 L 148 95 Q 187 87 203 80 Q 208 77 213 80 Q 228 87 234 92 Q 236 95 234 99" fill="#000080" clip-path="url(#clip-mask-7)" /><path d="M 211 207 Q 214 201 214 180 Q 215 148 214 124 Q 212 98 209 96 L 234 99 Q 229 106 229 115 Q 230 175 233 208 Q 234 222 229 233 Q 224 244 219 244 Q 216 244 213 239" fill="#000080" clip-path="url(#clip-mask-8)" /><path d="M 208 211 Q 210 211 211 207 L 213 239 Q 207 228 198 217" fill="#000080" clip-path="url(#clip-mask-9)" /><path d="M 143 134 Q 178 123 186 124 Q 193 125 195 129 Q 198 133 191 134 Q 173 137 148 141 Q 144 142 143 141" fill="#000080" clip-path="url(#clip-mask-10)" /><path d="M 142 171 Q 181 160 188 161 Q 195 163 197 167 Q 200 170 193 171 Q 174 173 147 178 Q 144 178 142 178" fill="#000080" clip-path="url(#clip-mask-11)" /><path d="M 162 218 L 144 222 Q 142 222 141 222 L 142 212 Q 163 210 188 205 Q 197 203 201 206 Q 206 209 208 211 L 198 217" fill="#000080" clip-path="url(#clip-mask-12)" /><rect x="33" y="99" width="26" height="79" id="rect-1" fill="transparent" stroke="#000000"><animate attributeName="y" from="20" to="99" dur="0.293" begin="0; animate12.end + 1s" id="animate1" fill="freeze"/></rect><rect x="49" y="88" width="64" height="22" id="rect-2" fill="transparent" stroke="#000000"><set attributeName="x" to="-15" begin="0; animate12.end + 1s" /><animate attributeName="x" from="-15" to="49" dur="0.237" begin="animate1.end + 0.5" id="animate2" fill="freeze"/></rect><rect x="81" y="106" width="26" height="37" id="rect-3" fill="transparent" stroke="#000000"><set attributeName="y" to="69" begin="0; animate12.end + 1s" /><animate attributeName="y" from="69" to="106" dur="0.137" begin="animate2.end" id="animate3" fill="freeze"/></rect><rect x="57" y="143" width="45" height="15" id="rect-4" fill="transparent" stroke="#000000"><set attributeName="x" to="12" begin="0; animate12.end + 1s" /><animate attributeName="x" from="12" to="57" dur="0.167" begin="animate3.end + 0.5" id="animate4" fill="freeze"/></rect><rect x="141" y="25" width="57" height="71" id="rect-5" fill="transparent" stroke="#000000"><set attributeName="y" to="-46" begin="0; animate12.end + 1s" /><animate attributeName="y" from="-46" to="25" dur="0.263" begin="animate4.end + 0.5" id="animate5" fill="freeze"/></rect><rect x="122" y="90" width="22" height="145" id="rect-6" fill="transparent" stroke="#000000"><set attributeName="y" to="-55" begin="0; animate12.end + 1s" /><animate attributeName="y" from="-55" to="90" dur="0.537" begin="animate5.end + 0.5" id="animate6" fill="freeze"/></rect><rect x="139" y="77" width="97" height="28" id="rect-7" fill="transparent" stroke="#000000"><set attributeName="x" to="42" begin="0; animate12.end + 1s" /><animate attributeName="x" from="42" to="139" dur="0.359" begin="animate6.end + 0.5" id="animate7" fill="freeze"/></rect><rect x="209" y="96" width="25" height="148" id="rect-8" fill="transparent" stroke="#000000"><set attributeName="y" to="-52" begin="0; animate12.end + 1s" /><animate attributeName="y" from="-52" to="96" dur="0.548" begin="animate7.end" id="animate8" fill="freeze"/></rect><rect x="198" y="207" width="15" height="32" id="rect-9" fill="transparent" stroke="#000000"><set attributeName="x" to="213" begin="0; animate12.end + 1s" /><animate attributeName="x" from="213" to="198" dur="0.056" begin="animate8.end" id="animate9" fill="freeze"/></rect><rect x="143" y="123" width="55" height="19" id="rect-10" fill="transparent" stroke="#000000"><set attributeName="x" to="88" begin="0; animate12.end + 1s" /><animate attributeName="x" from="88" to="143" dur="0.204" begin="animate9.end + 0.5" id="animate10" fill="freeze"/></rect><rect x="142" y="160" width="58" height="18" id="rect-11" fill="transparent" stroke="#000000"><set attributeName="x" to="84" begin="0; animate12.end + 1s" /><animate attributeName="x" from="84" to="142" dur="0.215" begin="animate10.end + 0.5" id="animate11" fill="freeze"/></rect><rect x="141" y="203" width="67" height="19" id="rect-12" fill="transparent" stroke="#000000"><set attributeName="x" to="74" begin="0; animate12.end + 1s" /><animate attributeName="x" from="74" to="141" dur="0.248" begin="animate11.end + 0.5" id="animate12" fill="freeze"/></rect></svg>