<svg xmlns="http://www.w3.org/2000/svg" xmlns:xlink="http://www.w3.org/1999/xlink" width="270" height="270"><defs><clipPath id="clip-mask-1"><use xlink:href="#rect-1" /></clipPath><clipPath id="clip-mask-2"><use xlink:href="#rect-2" /></clipPath><clipPath id="clip-mask-3"><use xlink:href="#rect-3" /></clipPath><clipPath id="clip-mask-4"><use xlink:href="#rect-4" /></clipPath><clipPath id="clip-mask-5"><use xlink:href="#rect-5" /></clipPath><clipPath id="clip-mask-6"><use xlink:href="#rect-6" /></clipPath><clipPath id="clip-mask-7"><use xlink:href="#rect-7" /></clipPath><clipPath id="clip-mask-8"><use xlink:href="#rect-8" /></clipPath><clipPath id="clip-mask-9"><use xlink:href="#rect-9" /></clipPath><clipPath id="clip-mask-10"><use xlink:href="#rect-10" /></clipPath><clipPath id="clip-mask-11"><use xlink:href="#rect-11" /></clipPath><clipPath id="clip-mask-12"><use xlink:href="#rect-12" /></clipPath><clipPath id="clip-mask-13"><use xlink:href="#rect-13" /></clipPath><clipPath id="clip-mask-14"><use xlink:href="#rect-14" /></clipPath><clipPath id="clip-mask-15"><use xlink:href="#rect-15" /></clipPath><clipPath id="clip-mask-16"><use xlink:href="#rect-16" /></clipPath></defs><path d="M 0 0 L 270 270 M 270 0 L 0 270 M 135 0 L 135 270 M 0 135 L 270 135" stroke="#CCCCCC" /><path d="M 48 152 L 46 156 Q 45 160 40 154 Q 35 148 35 140 Q 31 112 23 94 Q 21 90 23 89 Q 24 87 27 88 Q 34 89 37 91 L 41 98 Q 41 106 46 136 L 47 145" fill="#CCCCCC"/><path d="M 71 92 Q 69 90 64 92 Q 56 94 46 96 Q 44 98 41 98 L 37 91 Q 46 88 62 82 Q 72 74 78 78 Q 85 82 90 85 Q 97 88 91 95" fill="#CCCCCC"/><path d="M 67 129 Q 69 116 71 105 Q 73 94 71 92 L 91 95 Q 84 103 80 128" fill="#CCCCCC"/><path d="M 46 136 Q 55 133 67 129 L 80 128 Q 87 131 87 133 Q 87 135 85 135 Q 61 140 47 145" fill="#CCCCCC"/><path d="M 168 63 Q 154 66 141 69 L 131 70 Q 120 71 113 66 Q 106 62 115 61 Q 130 60 169 52 Q 199 42 206 44 Q 213 46 214 49 Q 215 51 213 53 Q 212 53 180 61" fill="#CCCCCC"/><path d="M 135 120 Q 138 88 131 72 Q 131 71 131 70 L 141 69 Q 143 70 145 71 Q 149 73 148 78 Q 147 89 148 111 Q 148 128 145 134 Q 142 137 140 135 Q 138 132 137 130" fill="#CCCCCC"/><path d="M 106 127 Q 116 125 128 121 Q 132 120 135 120 L 137 130 Q 114 132 112 135" fill="#CCCCCC"/><path d="M 108 177 Q 106 179 102 175 Q 99 170 100 167 Q 104 162 101 150 Q 100 137 94 131 Q 91 127 93 126 Q 96 124 100 125 Q 104 126 106 127 L 112 135 Q 112 147 113 160" fill="#CCCCCC"/><path d="M 129 169 Q 127 167 121 169 Q 111 174 108 177 L 113 160 Q 113 165 118 164 Q 123 161 127 159 Q 132 156 135 157 Q 146 161 149 165 Q 151 168 148 171" fill="#CCCCCC"/><path d="M 133 173 L 129 169 L 148 171 Q 142 177 143 208 L 129 209" fill="#CCCCCC"/><path d="M 180 128 Q 176 131 172 127 Q 166 121 169 116 Q 172 109 172 98 Q 172 73 168 63 L 180 61 Q 183 62 186 65 Q 190 67 188 74 Q 186 80 184 109" fill="#CCCCCC"/><path d="M 208 122 Q 206 118 201 119 Q 186 122 180 128 L 184 109 Q 184 115 190 113 Q 201 109 205 107 Q 210 106 215 108 Q 227 113 233 120" fill="#CCCCCC"/><path d="M 200 154 Q 201 149 203 145 Q 210 126 208 122 L 233 120 Q 237 124 230 129 Q 220 138 215 150 Q 215 151 215 152" fill="#CCCCCC"/><path d="M 182 158 Q 184 157 188 157 Q 193 155 200 154 L 215 152 Q 217 153 219 154 Q 223 157 223 159 Q 223 161 220 161 Q 199 163 185 166" fill="#CCCCCC"/><path d="M 170 204 Q 169 193 169 184 Q 168 160 165 156 Q 164 153 167 152 Q 169 150 172 152 Q 177 154 182 158 L 185 166 Q 184 169 182 203" fill="#CCCCCC"/><path d="M 143 208 Q 150 207 157 206 Q 164 205 170 204 L 182 203 Q 200 200 213 198 Q 229 194 243 206 Q 248 209 246 212 Q 245 215 240 215 Q 239 214 239 215 Q 163 210 98 225 Q 94 227 88 225 Q 83 223 79 220 Q 75 215 81 214 Q 106 212 129 209" fill="#CCCCCC"/><path d="M 48 152 L 46 156 Q 45 160 40 154 Q 35 148 35 140 Q 31 112 23 94 Q 21 90 23 89 Q 24 87 27 88 Q 34 89 37 91 L 41 98 Q 41 106 46 136 L 47 145" fill="#0000ff" clip-path="url(#clip-mask-1)" /><path d="M 71 92 Q 69 90 64 92 Q 56 94 46 96 Q 44 98 41 98 L 37 91 Q 46 88 62 82 Q 72 74 78 78 Q 85 82 90 85 Q 97 88 91 95" fill="#0000ff" clip-path="url(#clip-mask-2)" /><path d="M 67 129 Q 69 116 71 105 Q 73 94 71 92 L 91 95 Q 84 103 80 128" fill="#0000ff" clip-path="url(#clip-mask-3)" /><path d="M 46 136 Q 55 133 67 129 L 80 128 Q 87 131 87 133 Q 87 135 85 135 Q 61 140 47 145" fill="#0000ff" clip-path="url(#clip-mask-4)" /><path d="M 168 63 Q 154 66 141 69 L 131 70 Q 120 71 113 66 Q 106 62 115 61 Q 130 60 169 52 Q 199 42 206 44 Q 213 46 214 49 Q 215 51 213 53 Q 212 53 180 61" fill="#000080" clip-path="url(#clip-mask-5)" /><path d="M 135 120 Q 138 88 131 72 Q 131 71 131 70 L 141 69 Q 143 70 145 71 Q 149 73 148 78 Q 147 89 148 111 Q 148 128 145 134 Q 142 137 140 135 Q 138 132 137 130" fill="#000080" clip-path="url(#clip-mask-6)" /><path d="M 106 127 Q 116 125 128 121 Q 132 120 135 120 L 137 130 Q 114 132 112 135" fill="#000080" clip-path="url(#clip-mask-7)" /><path d="M 108 177 Q 106 179 102 175 Q 99 170 100 167 Q 104 162 101 150 Q 100 137 94 131 Q 91 127 93 126 Q 96 124 100 125 Q 104 126 106 127 L 112 135 Q 112 147 113 160" fill="#000080" clip-path="url(#clip-mask-8)" /><path d="M 129 169 Q 127 167 121 169 Q 111 174 108 177 L 113 160 Q 113 165 118 164 Q 123 161 127 159 Q 132 156 135 157 Q 146 161 149 165 Q 151 168 148 171" fill="#000080" clip-path="url(#clip-mask-9)" /><path d="M 133 173 L 129 169 L 148 171 Q 142 177 143 208 L 129 209" fill="#000080" clip-path="url(#clip-mask-10)" /><path d="M 180 128 Q 176 131 172 127 Q 166 121 169 116 Q 172 109 172 98 Q 172 73 168 63 L 180 61 Q 183 62 186 65 Q 190 67 188 74 Q 186 80 184 109" fill="#000080" clip-path="url(#clip-mask-11)" /><path d="M 208 122 Q 206 118 201 119 Q 186 122 180 128 L 184 109 Q 184 115 190 113 Q 201 109 205 107 Q 210 106 215 108 Q 227 113 233 120" fill="#000080" clip-path="url(#clip-mask-12)" /><path d="M 200 154 Q 201 149 203 145 Q 210 126 208 122 L 233 120 Q 237 124 230 129 Q 220 138 215 150 Q 215 151 215 152" fill="#000080" clip-path="url(#clip-mask-13)" /><path d="M 182 158 Q 184 157 188 157 Q 193 155 200 154 L 215 152 Q 217 153 219 154 Q 223 157 223 159 Q 223 161 220 161 Q 199 163 185 166" fill="#000080" clip-path="url(#clip-mask-14)" /><path d="M 170 204 Q 169 193 169 184 Q 168 160 165 156 Q 164 153 167 152 Q 169 150 172 152 Q 177 154 182 158 L 185 166 Q 184 169 182 203" fill="#000080" clip-path="url(#clip-mask-15)" /><path d="M 143 208 Q 150 207 157 206 Q 164 205 170 204 L 182 203 Q 200 200 213 198 Q 229 194 243 206 Q 248 209 246 212 Q 245 215 240 215 Q 239 214 239 215 Q 163 210 98 225 Q 94 227 88 225 Q 83 223 79 220 Q 75 215 81 214 Q 106 212 129 209" fill="#000080" clip-path="url(#clip-mask-16)" /><rect x="21" y="87" width="27" height="73" id="rect-1" fill="transparent" stroke="#000000"><animate attributeName="y" from="14" to="87" dur="0.270" begin="0; animate16.end + 1s" id="animate1" fill="freeze"/></rect><rect x="37" y="74" width="60" height="24" id="rect-2" fill="transparent" stroke="#000000"><set attributeName="x" to="-23" begin="0; animate16.end + 1s" /><animate attributeName="x" from="-23" to="37" dur="0.222" begin="animate1.end + 0.5" id="animate2" fill="freeze"/></rect><rect x="67" y="92" width="24" height="37" id="rect-3" fill="transparent" stroke="#000000"><set attributeName="y" to="55" begin="0; animate16.end + 1s" /><animate attributeName="y" from="55" to="92" dur="0.137" begin="animate2.end" id="animate3" fill="freeze"/></rect><rect x="46" y="128" width="41" height="17" id="rect-4" fill="transparent" stroke="#000000"><set attributeName="x" to="5" begin="0; animate16.end + 1s" /><animate attributeName="x" from="5" to="46" dur="0.152" begin="animate3.end + 0.5" id="animate4" fill="freeze"/></rect><rect x="106" y="42" width="109" height="29" id="rect-5" fill="transparent" stroke="#000000"><set attributeName="x" to="-3" begin="0; animate16.end + 1s" /><animate attributeName="x" from="-3" to="106" dur="0.404" begin="animate4.end + 0.5" id="animate5" fill="freeze"/></rect><rect x="131" y="69" width="18" height="68" id="rect-6" fill="transparent" stroke="#000000"><set attributeName="y" to="1" begin="0; animate16.end + 1s" /><animate attributeName="y" from="1" to="69" dur="0.252" begin="animate5.end + 0.5" id="animate6" fill="freeze"/></rect><rect x="106" y="120" width="31" height="15" id="rect-7" fill="transparent" stroke="#000000"><set attributeName="x" to="75" begin="0; animate16.end + 1s" /><animate attributeName="x" from="75" to="106" dur="0.115" begin="animate6.end + 0.5" id="animate7" fill="freeze"/></rect><rect x="91" y="124" width="22" height="55" id="rect-8" fill="transparent" stroke="#000000"><set attributeName="y" to="69" begin="0; animate16.end + 1s" /><animate attributeName="y" from="69" to="124" dur="0.204" begin="animate7.end + 0.5" id="animate8" fill="freeze"/></rect><rect x="108" y="156" width="43" height="21" id="rect-9" fill="transparent" stroke="#000000"><set attributeName="x" to="65" begin="0; animate16.end + 1s" /><animate attributeName="x" from="65" to="108" dur="0.159" begin="animate8.end" id="animate9" fill="freeze"/></rect><rect x="129" y="169" width="19" height="40" id="rect-10" fill="transparent" stroke="#000000"><set attributeName="y" to="129" begin="0; animate16.end + 1s" /><animate attributeName="y" from="129" to="169" dur="0.148" begin="animate9.end" id="animate10" fill="freeze"/></rect><rect x="166" y="61" width="24" height="70" id="rect-11" fill="transparent" stroke="#000000"><set attributeName="y" to="-9" begin="0; animate16.end + 1s" /><animate attributeName="y" from="-9" to="61" dur="0.259" begin="animate10.end + 0.5" id="animate11" fill="freeze"/></rect><rect x="180" y="106" width="53" height="22" id="rect-12" fill="transparent" stroke="#000000"><set attributeName="x" to="127" begin="0; animate16.end + 1s" /><animate attributeName="x" from="127" to="180" dur="0.196" begin="animate11.end" id="animate12" fill="freeze"/></rect><rect x="200" y="120" width="37" height="34" id="rect-13" fill="transparent" stroke="#000000"><set attributeName="y" to="86" begin="0; animate16.end + 1s" /><animate attributeName="y" from="86" to="120" dur="0.126" begin="animate12.end" id="animate13" fill="freeze"/></rect><rect x="182" y="152" width="41" height="14" id="rect-14" fill="transparent" stroke="#000000"><set attributeName="x" to="141" begin="0; animate16.end + 1s" /><animate attributeName="x" from="141" to="182" dur="0.152" begin="animate13.end + 0.5" id="animate14" fill="freeze"/></rect><rect x="164" y="150" width="21" height="54" id="rect-15" fill="transparent" stroke="#000000"><set attributeName="y" to="96" begin="0; animate16.end + 1s" /><animate attributeName="y" from="96" to="150" dur="0.200" begin="animate14.end + 0.5" id="animate15" fill="freeze"/></rect><rect x="75" y="194" width="173" height="33" id="rect-16" fill="transparent" stroke="#000000"><set attributeName="x" to="-98" begin="0; animate16.end + 1s" /><animate attributeName="x" from="-98" to="75" dur="0.641" begin="animate15.end + 0.5" id="animate16" fill="freeze"/></rect></svg>