<svg xmlns="http://www.w3.org/2000/svg" xmlns:xlink="http://www.w3.org/1999/xlink" width="270" height="270"><defs><clipPath id="clip-mask-1"><use xlink:href="#rect-1" /></clipPath><clipPath id="clip-mask-2"><use xlink:href="#rect-2" /></clipPath><clipPath id="clip-mask-3"><use xlink:href="#rect-3" /></clipPath><clipPath id="clip-mask-4"><use xlink:href="#rect-4" /></clipPath><clipPath id="clip-mask-5"><use xlink:href="#rect-5" /></clipPath><clipPath id="clip-mask-6"><use xlink:href="#rect-6" /></clipPath><clipPath id="clip-mask-7"><use xlink:href="#rect-7" /></clipPath><clipPath id="clip-mask-8"><use xlink:href="#rect-8" /></clipPath><clipPath id="clip-mask-9"><use xlink:href="#rect-9" /></clipPath><clipPath id="clip-mask-10"><use xlink:href="#rect-10" /></clipPath><clipPath id="clip-mask-11"><use xlink:href="#rect-11" /></clipPath><clipPath id="clip-mask-12"><use xlink:href="#rect-12" /></clipPath><clipPath id="clip-mask-13"><use xlink:href="#rect-13" /></clipPath></defs><path d="M 0 0 L 270 270 M 270 0 L 0 270 M 135 0 L 135 270 M 0 135 L 270 135" stroke="#CCCCCC" /><path d="M 45 140 L 43 146 Q 41 150 37 144 Q 31 137 31 128 Q 27 95 19 75 Q 17 71 18 69 Q 19 68 22 69 Q 30 70 33 72 L 36 79 Q 37 88 42 120 L 44 129" fill="#CCCCCC"/><path d="M 70 76 Q 69 73 61 74 Q 37 79 36 79 L 33 72 Q 59 67 69 61 Q 74 58 79 61 Q 87 66 92 69 Q 98 74 92 80" fill="#CCCCCC"/><path d="M 66 113 Q 69 100 71 88 Q 72 78 70 76 L 92 80 Q 84 88 79 115" fill="#CCCCCC"/><path d="M 42 120 Q 52 117 64 113 Q 65 113 66 113 L 79 115 Q 86 119 86 120 Q 85 123 83 123 Q 55 126 44 129" fill="#CCCCCC"/><path d="M 122 57 Q 122 56 122 56 Q 141 24 139 17 Q 137 13 140 12 Q 143 11 150 14 Q 157 16 162 20 Q 165 24 160 28 Q 154 31 150 36 Q 141 45 129 55" fill="#CCCCCC"/><path d="M 126 124 Q 126 131 122 130 Q 121 129 121 129 Q 111 121 111 108 Q 107 74 98 60 Q 96 57 98 56 Q 99 55 100 55 Q 105 56 109 58 L 118 66 Q 118 67 118 68 Q 119 78 121 90 Q 122 99 123 106 Q 125 112 126 117" fill="#CCCCCC"/><path d="M 196 56 Q 190 52 152 59 L 142 61 Q 128 63 118 66 L 109 58 Q 115 57 122 57 L 129 55 Q 131 54 134 54 Q 174 45 183 45 Q 201 41 206 43 Q 217 50 222 55" fill="#CCCCCC"/><path d="M 186 110 Q 191 106 199 65 Q 200 59 196 56 L 222 55 Q 224 59 221 62 Q 215 69 212 77 Q 204 115 200 122 Q 195 128 193 126 Q 189 124 184 117" fill="#CCCCCC"/><path d="M 145 92 Q 133 93 132 92 Q 127 89 131 88 Q 137 86 146 83 L 157 80 Q 166 77 171 78 Q 178 79 180 82 Q 182 85 177 86 Q 167 88 156 90" fill="#CCCCCC"/><path d="M 140 123 Q 135 123 130 124 Q 128 124 126 124 L 126 117 Q 133 115 142 113 L 153 111 Q 158 109 163 109 Q 181 105 186 110 L 184 117 Q 168 119 151 121" fill="#CCCCCC"/><path d="M 109 165 Q 109 164 109 164 Q 110 163 114 160 Q 133 141 140 123 L 142 113 Q 144 105 145 92 L 146 83 Q 147 69 143 62 Q 142 61 142 61 L 152 59 Q 154 61 157 62 Q 161 64 160 68 Q 159 71 158 75 Q 158 77 157 80 L 156 90 Q 155 102 153 111 L 151 121 Q 149 127 142 142 Q 135 151 117 164" fill="#CCCCCC"/><path d="M 127 169 L 87 180 Q 82 181 77 179 Q 72 178 69 174 Q 65 170 70 169 Q 90 167 109 165 L 117 164 Q 135 162 162 159 L 177 157 Q 206 152 225 149 Q 235 147 249 157 Q 253 160 251 164 Q 250 166 245 166 Q 189 166 177 167 L 162 168" fill="#CCCCCC"/><path d="M 162 159 Q 162 140 157 132 Q 155 129 158 128 Q 162 125 165 127 Q 169 127 177 133 Q 181 135 180 140 Q 177 150 177 157 L 177 167 Q 176 202 176 212 Q 175 252 168 258 Q 167 258 165 256 Q 164 255 164 254 Q 162 249 162 168" fill="#CCCCCC"/><path d="M 45 140 L 43 146 Q 41 150 37 144 Q 31 137 31 128 Q 27 95 19 75 Q 17 71 18 69 Q 19 68 22 69 Q 30 70 33 72 L 36 79 Q 37 88 42 120 L 44 129" fill="#0000ff" clip-path="url(#clip-mask-1)" /><path d="M 70 76 Q 69 73 61 74 Q 37 79 36 79 L 33 72 Q 59 67 69 61 Q 74 58 79 61 Q 87 66 92 69 Q 98 74 92 80" fill="#0000ff" clip-path="url(#clip-mask-2)" /><path d="M 66 113 Q 69 100 71 88 Q 72 78 70 76 L 92 80 Q 84 88 79 115" fill="#0000ff" clip-path="url(#clip-mask-3)" /><path d="M 42 120 Q 52 117 64 113 Q 65 113 66 113 L 79 115 Q 86 119 86 120 Q 85 123 83 123 Q 55 126 44 129" fill="#0000ff" clip-path="url(#clip-mask-4)" /><path d="M 122 57 Q 122 56 122 56 Q 141 24 139 17 Q 137 13 140 12 Q 143 11 150 14 Q 157 16 162 20 Q 165 24 160 28 Q 154 31 150 36 Q 141 45 129 55" fill="#000080" clip-path="url(#clip-mask-5)" /><path d="M 126 124 Q 126 131 122 130 Q 121 129 121 129 Q 111 121 111 108 Q 107 74 98 60 Q 96 57 98 56 Q 99 55 100 55 Q 105 56 109 58 L 118 66 Q 118 67 118 68 Q 119 78 121 90 Q 122 99 123 106 Q 125 112 126 117" fill="#000080" clip-path="url(#clip-mask-6)" /><path d="M 196 56 Q 190 52 152 59 L 142 61 Q 128 63 118 66 L 109 58 Q 115 57 122 57 L 129 55 Q 131 54 134 54 Q 174 45 183 45 Q 201 41 206 43 Q 217 50 222 55" fill="#000080" clip-path="url(#clip-mask-7)" /><path d="M 186 110 Q 191 106 199 65 Q 200 59 196 56 L 222 55 Q 224 59 221 62 Q 215 69 212 77 Q 204 115 200 122 Q 195 128 193 126 Q 189 124 184 117" fill="#000080" clip-path="url(#clip-mask-8)" /><path d="M 145 92 Q 133 93 132 92 Q 127 89 131 88 Q 137 86 146 83 L 157 80 Q 166 77 171 78 Q 178 79 180 82 Q 182 85 177 86 Q 167 88 156 90" fill="#000080" clip-path="url(#clip-mask-9)" /><path d="M 140 123 Q 135 123 130 124 Q 128 124 126 124 L 126 117 Q 133 115 142 113 L 153 111 Q 158 109 163 109 Q 181 105 186 110 L 184 117 Q 168 119 151 121" fill="#000080" clip-path="url(#clip-mask-10)" /><path d="M 109 165 Q 109 164 109 164 Q 110 163 114 160 Q 133 141 140 123 L 142 113 Q 144 105 145 92 L 146 83 Q 147 69 143 62 Q 142 61 142 61 L 152 59 Q 154 61 157 62 Q 161 64 160 68 Q 159 71 158 75 Q 158 77 157 80 L 156 90 Q 155 102 153 111 L 151 121 Q 149 127 142 142 Q 135 151 117 164" fill="#000080" clip-path="url(#clip-mask-11)" /><path d="M 127 169 L 87 180 Q 82 181 77 179 Q 72 178 69 174 Q 65 170 70 169 Q 90 167 109 165 L 117 164 Q 135 162 162 159 L 177 157 Q 206 152 225 149 Q 235 147 249 157 Q 253 160 251 164 Q 250 166 245 166 Q 189 166 177 167 L 162 168" fill="#000080" clip-path="url(#clip-mask-12)" /><path d="M 162 159 Q 162 140 157 132 Q 155 129 158 128 Q 162 125 165 127 Q 169 127 177 133 Q 181 135 180 140 Q 177 150 177 157 L 177 167 Q 176 202 176 212 Q 175 252 168 258 Q 167 258 165 256 Q 164 255 164 254 Q 162 249 162 168" fill="#000080" clip-path="url(#clip-mask-13)" /><rect x="17" y="68" width="28" height="82" id="rect-1" fill="transparent" stroke="#000000"><animate attributeName="y" from="-14" to="68" dur="0.304" begin="0; animate13.end + 1s" id="animate1" fill="freeze"/></rect><rect x="33" y="58" width="65" height="22" id="rect-2" fill="transparent" stroke="#000000"><set attributeName="x" to="-32" begin="0; animate13.end + 1s" /><animate attributeName="x" from="-32" to="33" dur="0.241" begin="animate1.end + 0.5" id="animate2" fill="freeze"/></rect><rect x="66" y="76" width="26" height="39" id="rect-3" fill="transparent" stroke="#000000"><set attributeName="y" to="37" begin="0; animate13.end + 1s" /><animate attributeName="y" from="37" to="76" dur="0.144" begin="animate2.end" id="animate3" fill="freeze"/></rect><rect x="42" y="113" width="44" height="16" id="rect-4" fill="transparent" stroke="#000000"><set attributeName="x" to="-2" begin="0; animate13.end + 1s" /><animate attributeName="x" from="-2" to="42" dur="0.163" begin="animate3.end + 0.5" id="animate4" fill="freeze"/></rect><rect x="122" y="11" width="43" height="46" id="rect-5" fill="transparent" stroke="#000000"><set attributeName="y" to="-35" begin="0; animate13.end + 1s" /><animate attributeName="y" from="-35" to="11" dur="0.170" begin="animate4.end + 0.5" id="animate5" fill="freeze"/></rect><rect x="96" y="55" width="30" height="76" id="rect-6" fill="transparent" stroke="#000000"><set attributeName="y" to="-21" begin="0; animate13.end + 1s" /><animate attributeName="y" from="-21" to="55" dur="0.281" begin="animate5.end + 0.5" id="animate6" fill="freeze"/></rect><rect x="109" y="41" width="113" height="25" id="rect-7" fill="transparent" stroke="#000000"><set attributeName="x" to="-4" begin="0; animate13.end + 1s" /><animate attributeName="x" from="-4" to="109" dur="0.419" begin="animate6.end + 0.5" id="animate7" fill="freeze"/></rect><rect x="184" y="55" width="40" height="73" id="rect-8" fill="transparent" stroke="#000000"><set attributeName="y" to="-18" begin="0; animate13.end + 1s" /><animate attributeName="y" from="-18" to="55" dur="0.270" begin="animate7.end" id="animate8" fill="freeze"/></rect><rect x="127" y="77" width="55" height="16" id="rect-9" fill="transparent" stroke="#000000"><set attributeName="x" to="72" begin="0; animate13.end + 1s" /><animate attributeName="x" from="72" to="127" dur="0.204" begin="animate8.end + 0.5" id="animate9" fill="freeze"/></rect><rect x="126" y="105" width="60" height="19" id="rect-10" fill="transparent" stroke="#000000"><set attributeName="x" to="66" begin="0; animate13.end + 1s" /><animate attributeName="x" from="66" to="126" dur="0.222" begin="animate9.end + 0.5" id="animate10" fill="freeze"/></rect><rect x="109" y="59" width="52" height="106" id="rect-11" fill="transparent" stroke="#000000"><set attributeName="y" to="-47" begin="0; animate13.end + 1s" /><animate attributeName="y" from="-47" to="59" dur="0.393" begin="animate10.end + 0.5" id="animate11" fill="freeze"/></rect><rect x="65" y="147" width="188" height="34" id="rect-12" fill="transparent" stroke="#000000"><set attributeName="x" to="-123" begin="0; animate13.end + 1s" /><animate attributeName="x" from="-123" to="65" dur="0.696" begin="animate11.end + 0.5" id="animate12" fill="freeze"/></rect><rect x="155" y="125" width="26" height="133" id="rect-13" fill="transparent" stroke="#000000"><set attributeName="y" to="-8" begin="0; animate13.end + 1s" /><animate attributeName="y" from="-8" to="125" dur="0.493" begin="animate12.end + 0.5" id="animate13" fill="freeze"/></rect></svg>