<svg xmlns="http://www.w3.org/2000/svg" xmlns:xlink="http://www.w3.org/1999/xlink" width="270" height="270"><defs><clipPath id="clip-mask-1"><use xlink:href="#rect-1" /></clipPath><clipPath id="clip-mask-2"><use xlink:href="#rect-2" /></clipPath><clipPath id="clip-mask-3"><use xlink:href="#rect-3" /></clipPath><clipPath id="clip-mask-4"><use xlink:href="#rect-4" /></clipPath><clipPath id="clip-mask-5"><use xlink:href="#rect-5" /></clipPath><clipPath id="clip-mask-6"><use xlink:href="#rect-6" /></clipPath><clipPath id="clip-mask-7"><use xlink:href="#rect-7" /></clipPath><clipPath id="clip-mask-8"><use xlink:href="#rect-8" /></clipPath><clipPath id="clip-mask-9"><use xlink:href="#rect-9" /></clipPath><clipPath id="clip-mask-10"><use xlink:href="#rect-10" /></clipPath><clipPath id="clip-mask-11"><use xlink:href="#rect-11" /></clipPath><clipPath id="clip-mask-12"><use xlink:href="#rect-12" /></clipPath><clipPath id="clip-mask-13"><use xlink:href="#rect-13" /></clipPath><clipPath id="clip-mask-14"><use xlink:href="#rect-14" /></clipPath><clipPath id="clip-mask-15"><use xlink:href="#rect-15" /></clipPath><clipPath id="clip-mask-16"><use xlink:href="#rect-16" /></clipPath></defs><path d="M 0 0 L 270 270 M 270 0 L 0 270 M 135 0 L 135 270 M 0 135 L 270 135" stroke="#CCCCCC" /><path d="M 41 163 L 39 168 Q 37 172 33 166 Q 29 160 28 151 Q 26 121 19 102 Q 17 98 19 96 Q 20 95 23 96 Q 32 99 35 100 L 36 107 Q 36 116 40 144 L 41 153" fill="#CCCCCC"/><path d="M 66 103 Q 65 100 58 102 Q 48 104 36 107 L 35 100 Q 54 95 64 89 Q 66 87 68 87 Q 70 87 86 95 Q 92 99 86 106" fill="#CCCCCC"/><path d="M 63 137 Q 69 105 66 103 L 86 106 Q 80 113 75 138" fill="#CCCCCC"/><path d="M 40 144 Q 50 142 62 137 Q 62 137 63 137 L 75 138 Q 82 141 82 143 Q 82 146 79 146 Q 55 149 44 153 Q 42 153 41 153" fill="#CCCCCC"/><path d="M 136 66 Q 113 93 106 95 Q 102 96 103 93 Q 104 92 106 89 Q 140 40 133 29 Q 131 24 136 23 Q 140 23 147 27 Q 154 32 155 35 Q 155 36 156 37 Q 155 38 140 60" fill="#CCCCCC"/><path d="M 168 66 Q 167 65 165 65 Q 142 68 136 66 L 140 60 Q 144 60 164 56 Q 180 51 183 52 Q 192 59 196 62 Q 199 66 194 68" fill="#CCCCCC"/><path d="M 149 104 Q 149 103 150 102 Q 157 91 167 69 Q 169 67 168 66 L 194 68 Q 183 74 158 102" fill="#CCCCCC"/><path d="M 110 171 Q 105 138 103 129 Q 101 121 96 113 Q 94 110 96 108 Q 97 107 101 108 Q 105 109 108 111 L 116 119 Q 116 140 117 152 L 117 153 Q 118 160 119 170" fill="#CCCCCC"/><path d="M 108 111 Q 128 107 149 104 L 158 102 Q 178 98 196 94 Q 199 93 204 95 Q 219 102 221 106 L 196 105 Q 190 102 162 109 L 155 110 Q 122 116 116 119" fill="#CCCCCC"/><path d="M 189 161 Q 191 152 192 145 L 194 137 Q 196 123 198 113 Q 198 107 196 105 L 221 106 Q 222 109 219 112 Q 211 125 204 158" fill="#CCCCCC"/><path d="M 117 152 Q 134 129 131 120 Q 131 118 132 118 Q 137 117 143 121 Q 145 122 145 124 Q 146 126 145 127 Q 144 127 143 128 Q 127 153 117 153" fill="#CCCCCC"/><path d="M 164 146 Q 156 143 156 130 Q 157 113 155 110 L 162 109 Q 165 110 167 112 Q 170 115 168 118 Q 165 123 165 131 Q 165 135 167 137" fill="#CCCCCC"/><path d="M 192 145 Q 192 145 192 145 Q 177 148 164 146 L 167 137 Q 175 140 182 135 Q 185 133 189 134 Q 192 135 194 137" fill="#CCCCCC"/><path d="M 139 175 Q 111 179 86 185 Q 82 186 77 185 Q 72 183 69 180 Q 65 175 70 175 Q 91 173 110 171 L 119 170 Q 130 168 140 167 L 156 166 Q 156 165 156 165 Q 174 163 189 161 L 204 158 Q 211 157 218 156 Q 233 151 248 162 Q 252 166 251 169 Q 249 172 230 171 Q 184 170 153 174" fill="#CCCCCC"/><path d="M 140 213 L 123 227 Q 98 246 67 244 Q 62 244 66 242 Q 77 237 87 234 Q 130 214 139 175 L 140 167 Q 140 158 138 155 Q 136 152 139 151 Q 144 150 149 152 Q 155 154 158 157 Q 160 160 158 162 Q 157 163 156 166 L 153 174 Q 153 174 152 175 L 151 182" fill="#CCCCCC"/><path d="M 152 175 Q 168 191 183 203 Q 199 218 239 235 Q 243 237 243 238 Q 243 240 240 240 Q 232 242 205 243 Q 197 243 192 238 Q 169 210 151 182" fill="#CCCCCC"/><path d="M 41 163 L 39 168 Q 37 172 33 166 Q 29 160 28 151 Q 26 121 19 102 Q 17 98 19 96 Q 20 95 23 96 Q 32 99 35 100 L 36 107 Q 36 116 40 144 L 41 153" fill="#0000ff" clip-path="url(#clip-mask-1)" /><path d="M 66 103 Q 65 100 58 102 Q 48 104 36 107 L 35 100 Q 54 95 64 89 Q 66 87 68 87 Q 70 87 86 95 Q 92 99 86 106" fill="#0000ff" clip-path="url(#clip-mask-2)" /><path d="M 63 137 Q 69 105 66 103 L 86 106 Q 80 113 75 138" fill="#0000ff" clip-path="url(#clip-mask-3)" /><path d="M 40 144 Q 50 142 62 137 Q 62 137 63 137 L 75 138 Q 82 141 82 143 Q 82 146 79 146 Q 55 149 44 153 Q 42 153 41 153" fill="#0000ff" clip-path="url(#clip-mask-4)" /><path d="M 136 66 Q 113 93 106 95 Q 102 96 103 93 Q 104 92 106 89 Q 140 40 133 29 Q 131 24 136 23 Q 140 23 147 27 Q 154 32 155 35 Q 155 36 156 37 Q 155 38 140 60" fill="#000080" clip-path="url(#clip-mask-5)" /><path d="M 168 66 Q 167 65 165 65 Q 142 68 136 66 L 140 60 Q 144 60 164 56 Q 180 51 183 52 Q 192 59 196 62 Q 199 66 194 68" fill="#000080" clip-path="url(#clip-mask-6)" /><path d="M 149 104 Q 149 103 150 102 Q 157 91 167 69 Q 169 67 168 66 L 194 68 Q 183 74 158 102" fill="#000080" clip-path="url(#clip-mask-7)" /><path d="M 110 171 Q 105 138 103 129 Q 101 121 96 113 Q 94 110 96 108 Q 97 107 101 108 Q 105 109 108 111 L 116 119 Q 116 140 117 152 L 117 153 Q 118 160 119 170" fill="#000080" clip-path="url(#clip-mask-8)" /><path d="M 108 111 Q 128 107 149 104 L 158 102 Q 178 98 196 94 Q 199 93 204 95 Q 219 102 221 106 L 196 105 Q 190 102 162 109 L 155 110 Q 122 116 116 119" fill="#000080" clip-path="url(#clip-mask-9)" /><path d="M 189 161 Q 191 152 192 145 L 194 137 Q 196 123 198 113 Q 198 107 196 105 L 221 106 Q 222 109 219 112 Q 211 125 204 158" fill="#000080" clip-path="url(#clip-mask-10)" /><path d="M 117 152 Q 134 129 131 120 Q 131 118 132 118 Q 137 117 143 121 Q 145 122 145 124 Q 146 126 145 127 Q 144 127 143 128 Q 127 153 117 153" fill="#000080" clip-path="url(#clip-mask-11)" /><path d="M 164 146 Q 156 143 156 130 Q 157 113 155 110 L 162 109 Q 165 110 167 112 Q 170 115 168 118 Q 165 123 165 131 Q 165 135 167 137" fill="#000080" clip-path="url(#clip-mask-12)" /><path d="M 192 145 Q 192 145 192 145 Q 177 148 164 146 L 167 137 Q 175 140 182 135 Q 185 133 189 134 Q 192 135 194 137" fill="#000080" clip-path="url(#clip-mask-13)" /><path d="M 139 175 Q 111 179 86 185 Q 82 186 77 185 Q 72 183 69 180 Q 65 175 70 175 Q 91 173 110 171 L 119 170 Q 130 168 140 167 L 156 166 Q 156 165 156 165 Q 174 163 189 161 L 204 158 Q 211 157 218 156 Q 233 151 248 162 Q 252 166 251 169 Q 249 172 230 171 Q 184 170 153 174" fill="#000080" clip-path="url(#clip-mask-14)" /><path d="M 140 213 L 123 227 Q 98 246 67 244 Q 62 244 66 242 Q 77 237 87 234 Q 130 214 139 175 L 140 167 Q 140 158 138 155 Q 136 152 139 151 Q 144 150 149 152 Q 155 154 158 157 Q 160 160 158 162 Q 157 163 156 166 L 153 174 Q 153 174 152 175 L 151 182" fill="#000080" clip-path="url(#clip-mask-15)" /><path d="M 152 175 Q 168 191 183 203 Q 199 218 239 235 Q 243 237 243 238 Q 243 240 240 240 Q 232 242 205 243 Q 197 243 192 238 Q 169 210 151 182" fill="#000080" clip-path="url(#clip-mask-16)" /><rect x="17" y="95" width="24" height="77" id="rect-1" fill="transparent" stroke="#000000"><animate attributeName="y" from="18" to="95" dur="0.285" begin="0; animate16.end + 1s" id="animate1" fill="freeze"/></rect><rect x="35" y="87" width="57" height="20" id="rect-2" fill="transparent" stroke="#000000"><set attributeName="x" to="-22" begin="0; animate16.end + 1s" /><animate attributeName="x" from="-22" to="35" dur="0.211" begin="animate1.end + 0.5" id="animate2" fill="freeze"/></rect><rect x="63" y="103" width="23" height="35" id="rect-3" fill="transparent" stroke="#000000"><set attributeName="y" to="68" begin="0; animate16.end + 1s" /><animate attributeName="y" from="68" to="103" dur="0.130" begin="animate2.end" id="animate3" fill="freeze"/></rect><rect x="40" y="137" width="42" height="16" id="rect-4" fill="transparent" stroke="#000000"><set attributeName="x" to="-2" begin="0; animate16.end + 1s" /><animate attributeName="x" from="-2" to="40" dur="0.156" begin="animate3.end + 0.5" id="animate4" fill="freeze"/></rect><rect x="102" y="23" width="54" height="73" id="rect-5" fill="transparent" stroke="#000000"><set attributeName="y" to="-50" begin="0; animate16.end + 1s" /><animate attributeName="y" from="-50" to="23" dur="0.270" begin="animate4.end + 0.5" id="animate5" fill="freeze"/></rect><rect x="136" y="51" width="63" height="17" id="rect-6" fill="transparent" stroke="#000000"><set attributeName="x" to="73" begin="0; animate16.end + 1s" /><animate attributeName="x" from="73" to="136" dur="0.233" begin="animate5.end + 0.5" id="animate6" fill="freeze"/></rect><rect x="149" y="66" width="45" height="38" id="rect-7" fill="transparent" stroke="#000000"><set attributeName="y" to="28" begin="0; animate16.end + 1s" /><animate attributeName="y" from="28" to="66" dur="0.141" begin="animate6.end" id="animate7" fill="freeze"/></rect><rect x="94" y="107" width="25" height="64" id="rect-8" fill="transparent" stroke="#000000"><set attributeName="y" to="43" begin="0; animate16.end + 1s" /><animate attributeName="y" from="43" to="107" dur="0.237" begin="animate7.end + 0.5" id="animate8" fill="freeze"/></rect><rect x="108" y="93" width="113" height="26" id="rect-9" fill="transparent" stroke="#000000"><set attributeName="x" to="-5" begin="0; animate16.end + 1s" /><animate attributeName="x" from="-5" to="108" dur="0.419" begin="animate8.end + 0.5" id="animate9" fill="freeze"/></rect><rect x="189" y="105" width="33" height="56" id="rect-10" fill="transparent" stroke="#000000"><set attributeName="y" to="49" begin="0; animate16.end + 1s" /><animate attributeName="y" from="49" to="105" dur="0.207" begin="animate9.end" id="animate10" fill="freeze"/></rect><rect x="117" y="117" width="29" height="36" id="rect-11" fill="transparent" stroke="#000000"><set attributeName="y" to="81" begin="0; animate16.end + 1s" /><animate attributeName="y" from="81" to="117" dur="0.133" begin="animate10.end + 0.5" id="animate11" fill="freeze"/></rect><rect x="155" y="109" width="15" height="37" id="rect-12" fill="transparent" stroke="#000000"><set attributeName="y" to="72" begin="0; animate16.end + 1s" /><animate attributeName="y" from="72" to="109" dur="0.137" begin="animate11.end + 0.5" id="animate12" fill="freeze"/></rect><rect x="164" y="133" width="30" height="15" id="rect-13" fill="transparent" stroke="#000000"><set attributeName="x" to="134" begin="0; animate16.end + 1s" /><animate attributeName="x" from="134" to="164" dur="0.111" begin="animate12.end" id="animate13" fill="freeze"/></rect><rect x="65" y="151" width="187" height="35" id="rect-14" fill="transparent" stroke="#000000"><set attributeName="x" to="-122" begin="0; animate16.end + 1s" /><animate attributeName="x" from="-122" to="65" dur="0.693" begin="animate13.end + 0.5" id="animate14" fill="freeze"/></rect><rect x="62" y="150" width="98" height="96" id="rect-15" fill="transparent" stroke="#000000"><set attributeName="y" to="54" begin="0; animate16.end + 1s" /><animate attributeName="y" from="54" to="150" dur="0.356" begin="animate14.end + 0.5" id="animate15" fill="freeze"/></rect><rect x="151" y="175" width="92" height="68" id="rect-16" fill="transparent" stroke="#000000"><set attributeName="x" to="59" begin="0; animate16.end + 1s" /><animate attributeName="x" from="59" to="151" dur="0.341" begin="animate15.end + 0.5" id="animate16" fill="freeze"/></rect></svg>