<svg xmlns="http://www.w3.org/2000/svg" xmlns:xlink="http://www.w3.org/1999/xlink" width="270" height="270"><defs><clipPath id="clip-mask-1"><use xlink:href="#rect-1" /></clipPath><clipPath id="clip-mask-2"><use xlink:href="#rect-2" /></clipPath><clipPath id="clip-mask-3"><use xlink:href="#rect-3" /></clipPath><clipPath id="clip-mask-4"><use xlink:href="#rect-4" /></clipPath><clipPath id="clip-mask-5"><use xlink:href="#rect-5" /></clipPath><clipPath id="clip-mask-6"><use xlink:href="#rect-6" /></clipPath><clipPath id="clip-mask-7"><use xlink:href="#rect-7" /></clipPath><clipPath id="clip-mask-8"><use xlink:href="#rect-8" /></clipPath><clipPath id="clip-mask-9"><use xlink:href="#rect-9" /></clipPath><clipPath id="clip-mask-10"><use xlink:href="#rect-10" /></clipPath><clipPath id="clip-mask-11"><use xlink:href="#rect-11" /></clipPath><clipPath id="clip-mask-12"><use xlink:href="#rect-12" /></clipPath><clipPath id="clip-mask-13"><use xlink:href="#rect-13" /></clipPath><clipPath id="clip-mask-14"><use xlink:href="#rect-14" /></clipPath><clipPath id="clip-mask-15"><use xlink:href="#rect-15" /></clipPath></defs><path d="M 0 0 L 270 270 M 270 0 L 0 270 M 135 0 L 135 270 M 0 135 L 270 135" stroke="#CCCCCC" /><path d="M 79 76 L 78 78 Q 78 82 73 77 Q 69 74 68 68 Q 63 50 56 38 Q 53 35 55 33 Q 55 32 58 32 Q 66 33 69 34 L 72 40 Q 73 46 78 65 L 79 73" fill="#CCCCCC"/><path d="M 104 35 Q 102 32 96 34 Q 74 39 72 40 L 69 34 Q 72 33 95 27 Q 108 21 111 22 Q 117 26 122 29" fill="#CCCCCC"/><path d="M 101 59 Q 103 51 104 44 Q 106 37 104 35 L 122 29 Q 127 32 122 38 Q 117 43 113 61" fill="#CCCCCC"/><path d="M 78 65 Q 87 63 99 59 Q 100 59 101 59 L 113 61 Q 117 63 117 65 Q 116 67 114 67 Q 92 70 82 72 Q 80 73 79 73" fill="#CCCCCC"/><path d="M 151 64 L 151 66 Q 150 70 146 64 Q 144 62 132 25 Q 130 21 132 20 Q 133 18 135 19 Q 143 21 146 22 L 149 29 Q 150 35 152 54 L 152 62" fill="#CCCCCC"/><path d="M 182 26 Q 181 23 173 24 Q 161 27 149 29 L 146 22 Q 168 19 181 12 Q 183 11 186 11 Q 186 11 202 21" fill="#CCCCCC"/><path d="M 178 49 Q 180 41 182 34 Q 184 28 182 26 L 202 21 Q 208 24 202 31 Q 197 35 192 48" fill="#CCCCCC"/><path d="M 152 54 Q 163 52 178 49 L 192 48 L 192 48 Q 199 53 199 55 Q 199 57 197 57 Q 169 59 157 62 Q 154 62 152 62" fill="#CCCCCC"/><path d="M 94 153 Q 93 154 93 156 Q 92 160 87 155 Q 82 150 80 141 Q 74 114 65 97 Q 62 93 64 91 Q 65 89 68 90 Q 78 91 81 93 L 84 101 Q 93 144 93 145" fill="#CCCCCC"/><path d="M 177 87 Q 171 84 133 91 L 117 93 Q 96 97 84 101 L 81 93 Q 163 78 166 78 Q 181 74 186 76 Q 199 84 204 89" fill="#CCCCCC"/><path d="M 168 135 Q 168 135 168 135 Q 171 128 178 97 Q 179 89 177 87 L 204 89 Q 208 93 203 97 Q 193 105 188 119 Q 182 139 178 144 Q 176 148 172 148 Q 169 148 167 144 Q 167 143 167 143" fill="#CCCCCC"/><path d="M 123 122 Q 104 124 102 123 Q 97 119 102 118 Q 111 115 123 113 L 139 108 Q 146 106 151 107 Q 158 108 160 112 Q 162 115 157 116 Q 148 117 138 119" fill="#CCCCCC"/><path d="M 123 149 Q 110 151 98 153 Q 96 153 94 153 L 93 145 Q 107 142 123 140 L 137 137 Q 163 132 168 135 L 167 143 Q 153 144 137 147" fill="#CCCCCC"/><path d="M 98 180 L 52 191 Q 34 194 26 186 Q 21 181 28 180 Q 78 175 122 170 L 137 169 Q 180 163 207 158 Q 225 153 243 166 Q 248 171 246 174 Q 244 177 238 177 Q 230 176 221 176 Q 171 175 137 178 L 122 180" fill="#CCCCCC"/><path d="M 122 170 Q 123 159 123 149 L 123 140 Q 123 130 123 122 L 123 113 Q 123 104 120 98 Q 118 96 117 93 L 133 91 Q 135 92 138 94 Q 141 96 140 101 Q 140 104 139 108 L 138 119 Q 138 120 138 122 Q 137 130 137 137 L 137 147 Q 137 159 137 169 L 137 178 Q 136 227 135 240 Q 134 255 130 258 Q 128 258 126 257 Q 120 249 122 180" fill="#CCCCCC"/><path d="M 79 76 L 78 78 Q 78 82 73 77 Q 69 74 68 68 Q 63 50 56 38 Q 53 35 55 33 Q 55 32 58 32 Q 66 33 69 34 L 72 40 Q 73 46 78 65 L 79 73" fill="#0000ff" clip-path="url(#clip-mask-1)" /><path d="M 104 35 Q 102 32 96 34 Q 74 39 72 40 L 69 34 Q 72 33 95 27 Q 108 21 111 22 Q 117 26 122 29" fill="#0000ff" clip-path="url(#clip-mask-2)" /><path d="M 101 59 Q 103 51 104 44 Q 106 37 104 35 L 122 29 Q 127 32 122 38 Q 117 43 113 61" fill="#0000ff" clip-path="url(#clip-mask-3)" /><path d="M 78 65 Q 87 63 99 59 Q 100 59 101 59 L 113 61 Q 117 63 117 65 Q 116 67 114 67 Q 92 70 82 72 Q 80 73 79 73" fill="#0000ff" clip-path="url(#clip-mask-4)" /><path d="M 151 64 L 151 66 Q 150 70 146 64 Q 144 62 132 25 Q 130 21 132 20 Q 133 18 135 19 Q 143 21 146 22 L 149 29 Q 150 35 152 54 L 152 62" fill="#000080" clip-path="url(#clip-mask-5)" /><path d="M 182 26 Q 181 23 173 24 Q 161 27 149 29 L 146 22 Q 168 19 181 12 Q 183 11 186 11 Q 186 11 202 21" fill="#000080" clip-path="url(#clip-mask-6)" /><path d="M 178 49 Q 180 41 182 34 Q 184 28 182 26 L 202 21 Q 208 24 202 31 Q 197 35 192 48" fill="#000080" clip-path="url(#clip-mask-7)" /><path d="M 152 54 Q 163 52 178 49 L 192 48 L 192 48 Q 199 53 199 55 Q 199 57 197 57 Q 169 59 157 62 Q 154 62 152 62" fill="#000080" clip-path="url(#clip-mask-8)" /><path d="M 94 153 Q 93 154 93 156 Q 92 160 87 155 Q 82 150 80 141 Q 74 114 65 97 Q 62 93 64 91 Q 65 89 68 90 Q 78 91 81 93 L 84 101 Q 93 144 93 145" fill="#000080" clip-path="url(#clip-mask-9)" /><path d="M 177 87 Q 171 84 133 91 L 117 93 Q 96 97 84 101 L 81 93 Q 163 78 166 78 Q 181 74 186 76 Q 199 84 204 89" fill="#000080" clip-path="url(#clip-mask-10)" /><path d="M 168 135 Q 168 135 168 135 Q 171 128 178 97 Q 179 89 177 87 L 204 89 Q 208 93 203 97 Q 193 105 188 119 Q 182 139 178 144 Q 176 148 172 148 Q 169 148 167 144 Q 167 143 167 143" fill="#000080" clip-path="url(#clip-mask-11)" /><path d="M 123 122 Q 104 124 102 123 Q 97 119 102 118 Q 111 115 123 113 L 139 108 Q 146 106 151 107 Q 158 108 160 112 Q 162 115 157 116 Q 148 117 138 119" fill="#000080" clip-path="url(#clip-mask-12)" /><path d="M 123 149 Q 110 151 98 153 Q 96 153 94 153 L 93 145 Q 107 142 123 140 L 137 137 Q 163 132 168 135 L 167 143 Q 153 144 137 147" fill="#000080" clip-path="url(#clip-mask-13)" /><path d="M 98 180 L 52 191 Q 34 194 26 186 Q 21 181 28 180 Q 78 175 122 170 L 137 169 Q 180 163 207 158 Q 225 153 243 166 Q 248 171 246 174 Q 244 177 238 177 Q 230 176 221 176 Q 171 175 137 178 L 122 180" fill="#000080" clip-path="url(#clip-mask-14)" /><path d="M 122 170 Q 123 159 123 149 L 123 140 Q 123 130 123 122 L 123 113 Q 123 104 120 98 Q 118 96 117 93 L 133 91 Q 135 92 138 94 Q 141 96 140 101 Q 140 104 139 108 L 138 119 Q 138 120 138 122 Q 137 130 137 137 L 137 147 Q 137 159 137 169 L 137 178 Q 136 227 135 240 Q 134 255 130 258 Q 128 258 126 257 Q 120 249 122 180" fill="#000080" clip-path="url(#clip-mask-15)" /><rect x="53" y="32" width="26" height="50" id="rect-1" fill="transparent" stroke="#000000"><animate attributeName="y" from="-18" to="32" dur="0.185" begin="0; animate15.end + 1s" id="animate1" fill="freeze"/></rect><rect x="69" y="21" width="53" height="19" id="rect-2" fill="transparent" stroke="#000000"><set attributeName="x" to="16" begin="0; animate15.end + 1s" /><animate attributeName="x" from="16" to="69" dur="0.196" begin="animate1.end + 0.5" id="animate2" fill="freeze"/></rect><rect x="101" y="29" width="26" height="32" id="rect-3" fill="transparent" stroke="#000000"><set attributeName="y" to="-3" begin="0; animate15.end + 1s" /><animate attributeName="y" from="-3" to="29" dur="0.119" begin="animate2.end" id="animate3" fill="freeze"/></rect><rect x="78" y="59" width="39" height="14" id="rect-4" fill="transparent" stroke="#000000"><set attributeName="x" to="39" begin="0; animate15.end + 1s" /><animate attributeName="x" from="39" to="78" dur="0.144" begin="animate3.end + 0.5" id="animate4" fill="freeze"/></rect><rect x="130" y="18" width="22" height="52" id="rect-5" fill="transparent" stroke="#000000"><set attributeName="y" to="-34" begin="0; animate15.end + 1s" /><animate attributeName="y" from="-34" to="18" dur="0.193" begin="animate4.end + 0.5" id="animate5" fill="freeze"/></rect><rect x="146" y="11" width="56" height="18" id="rect-6" fill="transparent" stroke="#000000"><set attributeName="x" to="90" begin="0; animate15.end + 1s" /><animate attributeName="x" from="90" to="146" dur="0.207" begin="animate5.end + 0.5" id="animate6" fill="freeze"/></rect><rect x="178" y="21" width="30" height="28" id="rect-7" fill="transparent" stroke="#000000"><set attributeName="y" to="-7" begin="0; animate15.end + 1s" /><animate attributeName="y" from="-7" to="21" dur="0.104" begin="animate6.end" id="animate7" fill="freeze"/></rect><rect x="152" y="48" width="47" height="14" id="rect-8" fill="transparent" stroke="#000000"><set attributeName="x" to="105" begin="0; animate15.end + 1s" /><animate attributeName="x" from="105" to="152" dur="0.174" begin="animate7.end + 0.5" id="animate8" fill="freeze"/></rect><rect x="62" y="89" width="32" height="71" id="rect-9" fill="transparent" stroke="#000000"><set attributeName="y" to="18" begin="0; animate15.end + 1s" /><animate attributeName="y" from="18" to="89" dur="0.263" begin="animate8.end + 0.5" id="animate9" fill="freeze"/></rect><rect x="81" y="74" width="123" height="27" id="rect-10" fill="transparent" stroke="#000000"><set attributeName="x" to="-42" begin="0; animate15.end + 1s" /><animate attributeName="x" from="-42" to="81" dur="0.456" begin="animate9.end + 0.5" id="animate10" fill="freeze"/></rect><rect x="167" y="87" width="41" height="61" id="rect-11" fill="transparent" stroke="#000000"><set attributeName="y" to="26" begin="0; animate15.end + 1s" /><animate attributeName="y" from="26" to="87" dur="0.226" begin="animate10.end" id="animate11" fill="freeze"/></rect><rect x="97" y="106" width="65" height="18" id="rect-12" fill="transparent" stroke="#000000"><set attributeName="x" to="32" begin="0; animate15.end + 1s" /><animate attributeName="x" from="32" to="97" dur="0.241" begin="animate11.end + 0.5" id="animate12" fill="freeze"/></rect><rect x="93" y="132" width="75" height="21" id="rect-13" fill="transparent" stroke="#000000"><set attributeName="x" to="18" begin="0; animate15.end + 1s" /><animate attributeName="x" from="18" to="93" dur="0.278" begin="animate12.end + 0.5" id="animate13" fill="freeze"/></rect><rect x="21" y="153" width="227" height="41" id="rect-14" fill="transparent" stroke="#000000"><set attributeName="x" to="-206" begin="0; animate15.end + 1s" /><animate attributeName="x" from="-206" to="21" dur="0.841" begin="animate13.end + 0.5" id="animate14" fill="freeze"/></rect><rect x="117" y="91" width="24" height="167" id="rect-15" fill="transparent" stroke="#000000"><set attributeName="y" to="-76" begin="0; animate15.end + 1s" /><animate attributeName="y" from="-76" to="91" dur="0.619" begin="animate14.end + 0.5" id="animate15" fill="freeze"/></rect></svg>