<svg xmlns="http://www.w3.org/2000/svg" xmlns:xlink="http://www.w3.org/1999/xlink" width="270" height="270"><defs><clipPath id="clip-mask-1"><use xlink:href="#rect-1" /></clipPath><clipPath id="clip-mask-2"><use xlink:href="#rect-2" /></clipPath><clipPath id="clip-mask-3"><use xlink:href="#rect-3" /></clipPath><clipPath id="clip-mask-4"><use xlink:href="#rect-4" /></clipPath><clipPath id="clip-mask-5"><use xlink:href="#rect-5" /></clipPath><clipPath id="clip-mask-6"><use xlink:href="#rect-6" /></clipPath><clipPath id="clip-mask-7"><use xlink:href="#rect-7" /></clipPath><clipPath id="clip-mask-8"><use xlink:href="#rect-8" /></clipPath><clipPath id="clip-mask-9"><use xlink:href="#rect-9" /></clipPath><clipPath id="clip-mask-10"><use xlink:href="#rect-10" /></clipPath><clipPath id="clip-mask-11"><use xlink:href="#rect-11" /></clipPath><clipPath id="clip-mask-12"><use xlink:href="#rect-12" /></clipPath><clipPath id="clip-mask-13"><use xlink:href="#rect-13" /></clipPath><clipPath id="clip-mask-14"><use xlink:href="#rect-14" /></clipPath><clipPath id="clip-mask-15"><use xlink:href="#rect-15" /></clipPath><clipPath id="clip-mask-16"><use xlink:href="#rect-16" /></clipPath><clipPath id="clip-mask-17"><use xlink:href="#rect-17" /></clipPath></defs><path d="M 0 0 L 270 270 M 270 0 L 0 270 M 135 0 L 135 270 M 0 135 L 270 135" stroke="#CCCCCC" /><path d="M 43 151 L 40 157 Q 38 161 34 155 Q 29 149 29 139 Q 26 109 18 89 Q 16 85 18 84 Q 19 82 22 83 Q 30 85 33 87 L 36 95 Q 37 103 40 131 L 41 139" fill="#CCCCCC"/><path d="M 64 90 Q 63 88 58 89 Q 50 91 41 93 Q 38 94 36 95 L 33 87 Q 46 84 55 79 Q 67 73 72 75 Q 79 80 85 83 Q 91 86 85 93" fill="#CCCCCC"/><path d="M 60 124 Q 62 112 64 102 Q 66 92 64 90 L 85 93 Q 78 101 73 125" fill="#CCCCCC"/><path d="M 40 131 Q 49 128 60 124 L 73 125 Q 80 129 80 130 Q 80 133 77 133 Q 55 136 46 139 Q 43 139 41 139" fill="#CCCCCC"/><path d="M 168 30 Q 167 29 164 30 Q 127 42 117 34 Q 115 33 115 32 Q 116 30 124 30 Q 129 30 147 26 Q 166 21 172 19 Q 174 17 177 17 Q 180 18 186 23 Q 192 27 192 30" fill="#CCCCCC"/><path d="M 131 83 L 111 78 Q 110 78 110 77 Q 110 76 112 76 Q 130 71 145 60 L 155 52 Q 161 45 165 38 Q 169 31 168 30 L 192 30 Q 191 32 188 33 Q 187 33 167 56 L 156 65" fill="#CCCCCC"/><path d="M 145 60 Q 123 49 123 48 Q 122 47 124 46 Q 131 45 155 52 L 167 56 Q 178 59 183 67 Q 186 72 185 74 Q 184 75 181 76 Q 179 76 156 65" fill="#CCCCCC"/><path d="M 126 97 Q 125 95 122 96 Q 105 102 100 98 Q 97 95 101 94 Q 111 92 121 89 Q 135 83 137 84 Q 150 89 150 91 Q 151 93 148 95" fill="#CCCCCC"/><path d="M 94 146 L 86 146 Q 83 146 86 144 Q 97 136 111 121 L 117 114 Q 121 108 125 102 Q 127 98 126 97 L 148 95 Q 146 97 127 118 L 119 126" fill="#CCCCCC"/><path d="M 111 121 L 95 110 Q 94 108 96 108 Q 101 107 117 114 L 127 118 Q 134 121 137 128 Q 139 132 138 135 Q 137 135 135 136 Q 132 135 119 126" fill="#CCCCCC"/><path d="M 191 91 Q 189 89 179 92 Q 165 96 159 93 Q 156 89 160 89 Q 169 87 185 82 Q 200 75 203 76 Q 217 82 218 84 Q 219 86 215 88" fill="#CCCCCC"/><path d="M 181 122 L 181 122 Q 163 136 153 137 Q 150 137 153 134 Q 166 124 174 116 L 179 110 Q 192 94 191 91 L 215 88 Q 215 89 191 115" fill="#CCCCCC"/><path d="M 181 122 L 174 116 Q 158 106 158 105 Q 158 103 160 103 Q 167 105 179 110 L 191 115 Q 205 120 208 128 Q 212 135 210 137 Q 209 139 207 139 Q 206 139 182 122" fill="#CCCCCC"/><path d="M 125 169 Q 108 171 92 176 Q 88 177 83 176 Q 78 174 75 171 Q 70 167 76 166 Q 110 162 140 158 L 153 156 Q 187 150 208 145 Q 217 143 231 153 Q 235 156 233 159 Q 232 161 227 161 Q 178 161 153 165" fill="#CCCCCC"/><path d="M 152 174 L 152 177 Q 152 202 152 233 Q 153 240 150 248 Q 148 252 145 251 Q 143 250 140 246 Q 132 232 135 223 Q 136 218 139 172 L 140 158 Q 138 143 137 142 Q 136 139 137 138 Q 139 137 143 138 Q 147 140 153 145 Q 154 146 153 156 L 153 165 L 153 172 L 152 172" fill="#CCCCCC"/><path d="M 139 172 Q 119 195 119 196 Q 106 207 92 217 Q 67 230 59 228 Q 55 227 60 224 Q 110 196 125 169 L 140 158" fill="#CCCCCC"/><path d="M 153 165 Q 158 168 169 177 Q 176 183 184 188 Q 199 199 249 215 Q 253 217 253 219 Q 252 220 247 220 Q 228 225 209 224 Q 199 224 193 217 Q 172 196 153 172" fill="#CCCCCC"/><path d="M 43 151 L 40 157 Q 38 161 34 155 Q 29 149 29 139 Q 26 109 18 89 Q 16 85 18 84 Q 19 82 22 83 Q 30 85 33 87 L 36 95 Q 37 103 40 131 L 41 139" fill="#0000ff" clip-path="url(#clip-mask-1)" /><path d="M 64 90 Q 63 88 58 89 Q 50 91 41 93 Q 38 94 36 95 L 33 87 Q 46 84 55 79 Q 67 73 72 75 Q 79 80 85 83 Q 91 86 85 93" fill="#0000ff" clip-path="url(#clip-mask-2)" /><path d="M 60 124 Q 62 112 64 102 Q 66 92 64 90 L 85 93 Q 78 101 73 125" fill="#0000ff" clip-path="url(#clip-mask-3)" /><path d="M 40 131 Q 49 128 60 124 L 73 125 Q 80 129 80 130 Q 80 133 77 133 Q 55 136 46 139 Q 43 139 41 139" fill="#0000ff" clip-path="url(#clip-mask-4)" /><path d="M 168 30 Q 167 29 164 30 Q 127 42 117 34 Q 115 33 115 32 Q 116 30 124 30 Q 129 30 147 26 Q 166 21 172 19 Q 174 17 177 17 Q 180 18 186 23 Q 192 27 192 30" fill="#000080" clip-path="url(#clip-mask-5)" /><path d="M 131 83 L 111 78 Q 110 78 110 77 Q 110 76 112 76 Q 130 71 145 60 L 155 52 Q 161 45 165 38 Q 169 31 168 30 L 192 30 Q 191 32 188 33 Q 187 33 167 56 L 156 65" fill="#000080" clip-path="url(#clip-mask-6)" /><path d="M 145 60 Q 123 49 123 48 Q 122 47 124 46 Q 131 45 155 52 L 167 56 Q 178 59 183 67 Q 186 72 185 74 Q 184 75 181 76 Q 179 76 156 65" fill="#000080" clip-path="url(#clip-mask-7)" /><path d="M 126 97 Q 125 95 122 96 Q 105 102 100 98 Q 97 95 101 94 Q 111 92 121 89 Q 135 83 137 84 Q 150 89 150 91 Q 151 93 148 95" fill="#000080" clip-path="url(#clip-mask-8)" /><path d="M 94 146 L 86 146 Q 83 146 86 144 Q 97 136 111 121 L 117 114 Q 121 108 125 102 Q 127 98 126 97 L 148 95 Q 146 97 127 118 L 119 126" fill="#000080" clip-path="url(#clip-mask-9)" /><path d="M 111 121 L 95 110 Q 94 108 96 108 Q 101 107 117 114 L 127 118 Q 134 121 137 128 Q 139 132 138 135 Q 137 135 135 136 Q 132 135 119 126" fill="#000080" clip-path="url(#clip-mask-10)" /><path d="M 191 91 Q 189 89 179 92 Q 165 96 159 93 Q 156 89 160 89 Q 169 87 185 82 Q 200 75 203 76 Q 217 82 218 84 Q 219 86 215 88" fill="#000080" clip-path="url(#clip-mask-11)" /><path d="M 181 122 L 181 122 Q 163 136 153 137 Q 150 137 153 134 Q 166 124 174 116 L 179 110 Q 192 94 191 91 L 215 88 Q 215 89 191 115" fill="#000080" clip-path="url(#clip-mask-12)" /><path d="M 181 122 L 174 116 Q 158 106 158 105 Q 158 103 160 103 Q 167 105 179 110 L 191 115 Q 205 120 208 128 Q 212 135 210 137 Q 209 139 207 139 Q 206 139 182 122" fill="#000080" clip-path="url(#clip-mask-13)" /><path d="M 125 169 Q 108 171 92 176 Q 88 177 83 176 Q 78 174 75 171 Q 70 167 76 166 Q 110 162 140 158 L 153 156 Q 187 150 208 145 Q 217 143 231 153 Q 235 156 233 159 Q 232 161 227 161 Q 178 161 153 165" fill="#000080" clip-path="url(#clip-mask-14)" /><path d="M 152 174 L 152 177 Q 152 202 152 233 Q 153 240 150 248 Q 148 252 145 251 Q 143 250 140 246 Q 132 232 135 223 Q 136 218 139 172 L 140 158 Q 138 143 137 142 Q 136 139 137 138 Q 139 137 143 138 Q 147 140 153 145 Q 154 146 153 156 L 153 165 L 153 172 L 152 172" fill="#000080" clip-path="url(#clip-mask-15)" /><path d="M 139 172 Q 119 195 119 196 Q 106 207 92 217 Q 67 230 59 228 Q 55 227 60 224 Q 110 196 125 169 L 140 158" fill="#000080" clip-path="url(#clip-mask-16)" /><path d="M 153 165 Q 158 168 169 177 Q 176 183 184 188 Q 199 199 249 215 Q 253 217 253 219 Q 252 220 247 220 Q 228 225 209 224 Q 199 224 193 217 Q 172 196 153 172" fill="#000080" clip-path="url(#clip-mask-17)" /><rect x="16" y="82" width="27" height="79" id="rect-1" fill="transparent" stroke="#000000"><animate attributeName="y" from="3" to="82" dur="0.293" begin="0; animate17.end + 1s" id="animate1" fill="freeze"/></rect><rect x="33" y="73" width="58" height="22" id="rect-2" fill="transparent" stroke="#000000"><set attributeName="x" to="-25" begin="0; animate17.end + 1s" /><animate attributeName="x" from="-25" to="33" dur="0.215" begin="animate1.end + 0.5" id="animate2" fill="freeze"/></rect><rect x="60" y="90" width="25" height="35" id="rect-3" fill="transparent" stroke="#000000"><set attributeName="y" to="55" begin="0; animate17.end + 1s" /><animate attributeName="y" from="55" to="90" dur="0.130" begin="animate2.end" id="animate3" fill="freeze"/></rect><rect x="40" y="124" width="40" height="15" id="rect-4" fill="transparent" stroke="#000000"><set attributeName="x" to="0" begin="0; animate17.end + 1s" /><animate attributeName="x" from="0" to="40" dur="0.148" begin="animate3.end + 0.5" id="animate4" fill="freeze"/></rect><rect x="115" y="17" width="77" height="25" id="rect-5" fill="transparent" stroke="#000000"><set attributeName="x" to="38" begin="0; animate17.end + 1s" /><animate attributeName="x" from="38" to="115" dur="0.285" begin="animate4.end + 0.5" id="animate5" fill="freeze"/></rect><rect x="110" y="30" width="82" height="53" id="rect-6" fill="transparent" stroke="#000000"><set attributeName="y" to="-23" begin="0; animate17.end + 1s" /><animate attributeName="y" from="-23" to="30" dur="0.196" begin="animate5.end" id="animate6" fill="freeze"/></rect><rect x="122" y="45" width="64" height="31" id="rect-7" fill="transparent" stroke="#000000"><set attributeName="x" to="58" begin="0; animate17.end + 1s" /><animate attributeName="x" from="58" to="122" dur="0.237" begin="animate6.end + 0.5" id="animate7" fill="freeze"/></rect><rect x="97" y="83" width="54" height="19" id="rect-8" fill="transparent" stroke="#000000"><set attributeName="x" to="43" begin="0; animate17.end + 1s" /><animate attributeName="x" from="43" to="97" dur="0.200" begin="animate7.end + 0.5" id="animate8" fill="freeze"/></rect><rect x="83" y="95" width="65" height="51" id="rect-9" fill="transparent" stroke="#000000"><set attributeName="y" to="44" begin="0; animate17.end + 1s" /><animate attributeName="y" from="44" to="95" dur="0.189" begin="animate8.end" id="animate9" fill="freeze"/></rect><rect x="94" y="107" width="45" height="29" id="rect-10" fill="transparent" stroke="#000000"><set attributeName="x" to="49" begin="0; animate17.end + 1s" /><animate attributeName="x" from="49" to="94" dur="0.167" begin="animate9.end + 0.5" id="animate10" fill="freeze"/></rect><rect x="156" y="75" width="63" height="21" id="rect-11" fill="transparent" stroke="#000000"><set attributeName="x" to="93" begin="0; animate17.end + 1s" /><animate attributeName="x" from="93" to="156" dur="0.233" begin="animate10.end + 0.5" id="animate11" fill="freeze"/></rect><rect x="150" y="88" width="65" height="49" id="rect-12" fill="transparent" stroke="#000000"><set attributeName="y" to="39" begin="0; animate17.end + 1s" /><animate attributeName="y" from="39" to="88" dur="0.181" begin="animate11.end" id="animate12" fill="freeze"/></rect><rect x="158" y="103" width="54" height="36" id="rect-13" fill="transparent" stroke="#000000"><set attributeName="x" to="104" begin="0; animate17.end + 1s" /><animate attributeName="x" from="104" to="158" dur="0.200" begin="animate12.end + 0.5" id="animate13" fill="freeze"/></rect><rect x="70" y="143" width="165" height="34" id="rect-14" fill="transparent" stroke="#000000"><set attributeName="x" to="-95" begin="0; animate17.end + 1s" /><animate attributeName="x" from="-95" to="70" dur="0.611" begin="animate13.end + 0.5" id="animate14" fill="freeze"/></rect><rect x="132" y="137" width="22" height="115" id="rect-15" fill="transparent" stroke="#000000"><set attributeName="y" to="22" begin="0; animate17.end + 1s" /><animate attributeName="y" from="22" to="137" dur="0.426" begin="animate14.end + 0.5" id="animate15" fill="freeze"/></rect><rect x="55" y="158" width="85" height="72" id="rect-16" fill="transparent" stroke="#000000"><set attributeName="x" to="140" begin="0; animate17.end + 1s" /><animate attributeName="x" from="140" to="55" dur="0.315" begin="animate15.end + 0.5" id="animate16" fill="freeze"/></rect><rect x="153" y="165" width="100" height="60" id="rect-17" fill="transparent" stroke="#000000"><set attributeName="x" to="53" begin="0; animate17.end + 1s" /><animate attributeName="x" from="53" to="153" dur="0.370" begin="animate16.end + 0.5" id="animate17" fill="freeze"/></rect></svg>