<svg xmlns="http://www.w3.org/2000/svg" xmlns:xlink="http://www.w3.org/1999/xlink" width="270" height="270"><defs><clipPath id="clip-mask-1"><use xlink:href="#rect-1" /></clipPath><clipPath id="clip-mask-2"><use xlink:href="#rect-2" /></clipPath><clipPath id="clip-mask-3"><use xlink:href="#rect-3" /></clipPath><clipPath id="clip-mask-4"><use xlink:href="#rect-4" /></clipPath><clipPath id="clip-mask-5"><use xlink:href="#rect-5" /></clipPath><clipPath id="clip-mask-6"><use xlink:href="#rect-6" /></clipPath><clipPath id="clip-mask-7"><use xlink:href="#rect-7" /></clipPath><clipPath id="clip-mask-8"><use xlink:href="#rect-8" /></clipPath><clipPath id="clip-mask-9"><use xlink:href="#rect-9" /></clipPath><clipPath id="clip-mask-10"><use xlink:href="#rect-10" /></clipPath><clipPath id="clip-mask-11"><use xlink:href="#rect-11" /></clipPath><clipPath id="clip-mask-12"><use xlink:href="#rect-12" /></clipPath><clipPath id="clip-mask-13"><use xlink:href="#rect-13" /></clipPath><clipPath id="clip-mask-14"><use xlink:href="#rect-14" /></clipPath><clipPath id="clip-mask-15"><use xlink:href="#rect-15" /></clipPath><clipPath id="clip-mask-16"><use xlink:href="#rect-16" /></clipPath><clipPath id="clip-mask-17"><use xlink:href="#rect-17" /></clipPath><clipPath id="clip-mask-18"><use xlink:href="#rect-18" /></clipPath><clipPath id="clip-mask-19"><use xlink:href="#rect-19" /></clipPath><clipPath id="clip-mask-20"><use xlink:href="#rect-20" /></clipPath><clipPath id="clip-mask-21"><use xlink:href="#rect-21" /></clipPath><clipPath id="clip-mask-22"><use xlink:href="#rect-22" /></clipPath><clipPath id="clip-mask-23"><use xlink:href="#rect-23" /></clipPath><clipPath id="clip-mask-24"><use xlink:href="#rect-24" /></clipPath><clipPath id="clip-mask-25"><use xlink:href="#rect-25" /></clipPath></defs><path d="M 0 0 L 270 270 M 270 0 L 0 270 M 135 0 L 135 270 M 0 135 L 270 135" stroke="#CCCCCC" /><path d="M 45 136 L 43 140 Q 41 144 38 139 Q 33 133 33 125 Q 30 97 24 80 Q 22 76 24 75 Q 25 74 27 75 Q 34 76 37 78 L 40 85 Q 40 93 44 121 L 44 129" fill="#CCCCCC"/><path d="M 69 81 Q 67 78 61 80 Q 53 82 42 84 Q 41 84 40 85 L 37 78 Q 44 76 60 71 Q 72 65 76 67 Q 83 72 87 74 Q 93 78 88 84" fill="#CCCCCC"/><path d="M 64 115 Q 67 103 69 92 Q 71 83 69 81 L 88 84 Q 81 91 76 115" fill="#CCCCCC"/><path d="M 44 121 Q 52 119 64 115 L 76 115 Q 82 118 82 120 Q 82 122 79 123 Q 58 125 49 128 Q 46 129 44 129" fill="#CCCCCC"/><path d="M 171 23 L 171 20 Q 171 17 173 16 Q 181 15 195 27 Q 197 30 196 32 Q 196 34 192 34 Q 173 36 170 39 Q 129 53 121 51 Q 120 50 121 48 Q 156 35 167 25" fill="#CCCCCC"/><path d="M 114 61 L 114 59 Q 114 57 115 57 Q 122 56 132 65 Q 135 68 135 72 Q 135 76 134 78 Q 132 80 129 79 Q 122 75 117 65" fill="#CCCCCC"/><path d="M 147 56 L 147 54 Q 148 52 149 52 Q 150 52 153 53 Q 164 59 164 66 Q 164 69 163 71 Q 161 72 159 71 Q 154 69 149 59" fill="#CCCCCC"/><path d="M 201 45 L 200 42 Q 201 38 204 38 Q 210 39 213 44 Q 217 49 217 53 Q 218 56 214 56 Q 203 60 181 71 Q 179 71 177 71 Q 176 69 177 68 Q 191 57 198 49" fill="#CCCCCC"/><path d="M 120 125 L 119 127 Q 119 130 114 126 Q 111 123 110 118 Q 104 103 98 94 Q 96 90 97 89 Q 98 88 100 88 L 113 97 Q 117 116 119 117 L 120 124" fill="#CCCCCC"/><path d="M 205 83 Q 198 79 174 84 L 166 85 Q 151 88 140 90 L 135 91 Q 124 93 116 96 Q 115 97 113 97 L 100 88 Q 116 88 139 83 Q 160 79 184 76 Q 186 75 188 75 Q 208 71 211 74 Q 221 80 224 84" fill="#CCCCCC"/><path d="M 196 108 Q 198 104 204 88 Q 206 84 205 83 L 224 84 Q 227 88 223 91 Q 214 96 210 107 Q 202 118 198 118 Q 195 117 195 114" fill="#CCCCCC"/><path d="M 142 114 Q 137 109 135 91 L 140 90 Q 142 92 142 95 Q 148 101 148 112" fill="#CCCCCC"/><path d="M 164 110 Q 164 107 166 105 Q 168 90 166 85 L 174 84 Q 178 86 180 89 Q 182 90 179 93 Q 177 95 176 97 Q 174 101 173 105 Q 172 106 171 108" fill="#CCCCCC"/><path d="M 119 117 Q 130 115 142 114 L 148 112 Q 148 113 147 113 Q 156 111 164 110 L 171 108 Q 189 103 193 106 Q 195 107 196 108 L 195 114 Q 147 118 125 124 Q 121 124 120 124" fill="#CCCCCC"/><path d="M 132 142 Q 127 139 101 149 L 100 142 Q 103 141 107 140 Q 137 132 140 133 Q 148 138 151 141" fill="#CCCCCC"/><path d="M 127 177 Q 130 174 134 148 Q 135 144 132 142 L 151 141 Q 154 144 151 146 Q 147 151 145 158 Q 141 181 138 186 Q 135 190 133 189 Q 130 187 127 183" fill="#CCCCCC"/><path d="M 100 162 Q 111 156 118 157 Q 122 157 125 159 Q 126 162 122 163 L 100 167" fill="#CCCCCC"/><path d="M 100 180 Q 122 174 124 175 Q 126 176 127 177 L 127 183 Q 111 185 104 187 Q 101 188 100 187" fill="#CCCCCC"/><path d="M 87 241 Q 84 244 82 242 Q 79 240 77 234 Q 76 229 78 227 Q 86 218 90 202 Q 94 154 85 142 Q 82 138 83 137 Q 85 136 88 136 Q 97 139 100 142 L 101 149 Q 100 153 100 162 L 100 167 Q 100 172 100 180 L 100 187 Q 99 198 99 211 Q 99 215 100 215" fill="#CCCCCC"/><path d="M 96 231 L 87 241 L 100 215 Q 101 216 103 215 Q 116 208 122 206 L 124 209" fill="#CCCCCC"/><path d="M 122 206 Q 120 200 120 199 Q 121 196 122 196 Q 123 196 126 198 Q 141 211 140 218 Q 139 224 137 226 Q 135 228 133 227 Q 131 226 124 209" fill="#CCCCCC"/><path d="M 179 159 L 166 164 Q 162 165 158 164 Q 155 163 152 160 Q 148 157 153 157 Q 174 152 193 149 L 207 145 Q 212 143 217 143 Q 230 137 243 145 Q 247 148 246 151 Q 245 152 241 153 Q 238 153 234 153 Q 218 154 206 155 L 193 157" fill="#CCCCCC"/><path d="M 193 149 Q 193 138 187 128 Q 184 124 186 123 Q 188 120 193 122 Q 201 125 207 130 Q 211 134 209 139 Q 208 142 207 145 L 206 155 Q 206 198 209 223 Q 209 241 200 251 Q 196 254 192 250 L 190 222 Q 195 218 193 157" fill="#CCCCCC"/><path d="M 192 250 Q 186 240 167 224 Q 165 222 164 220 Q 164 218 167 219 Q 188 224 190 222" fill="#CCCCCC"/><path d="M 152 181 L 152 179 Q 152 176 153 175 Q 157 174 173 183 Q 180 187 180 192 Q 181 199 180 203 Q 178 205 176 205 Q 172 205 169 201 Q 163 193 158 187" fill="#CCCCCC"/><path d="M 45 136 L 43 140 Q 41 144 38 139 Q 33 133 33 125 Q 30 97 24 80 Q 22 76 24 75 Q 25 74 27 75 Q 34 76 37 78 L 40 85 Q 40 93 44 121 L 44 129" fill="#0000ff" clip-path="url(#clip-mask-1)" /><path d="M 69 81 Q 67 78 61 80 Q 53 82 42 84 Q 41 84 40 85 L 37 78 Q 44 76 60 71 Q 72 65 76 67 Q 83 72 87 74 Q 93 78 88 84" fill="#0000ff" clip-path="url(#clip-mask-2)" /><path d="M 64 115 Q 67 103 69 92 Q 71 83 69 81 L 88 84 Q 81 91 76 115" fill="#0000ff" clip-path="url(#clip-mask-3)" /><path d="M 44 121 Q 52 119 64 115 L 76 115 Q 82 118 82 120 Q 82 122 79 123 Q 58 125 49 128 Q 46 129 44 129" fill="#0000ff" clip-path="url(#clip-mask-4)" /><path d="M 171 23 L 171 20 Q 171 17 173 16 Q 181 15 195 27 Q 197 30 196 32 Q 196 34 192 34 Q 173 36 170 39 Q 129 53 121 51 Q 120 50 121 48 Q 156 35 167 25" fill="#000080" clip-path="url(#clip-mask-5)" /><path d="M 114 61 L 114 59 Q 114 57 115 57 Q 122 56 132 65 Q 135 68 135 72 Q 135 76 134 78 Q 132 80 129 79 Q 122 75 117 65" fill="#000080" clip-path="url(#clip-mask-6)" /><path d="M 147 56 L 147 54 Q 148 52 149 52 Q 150 52 153 53 Q 164 59 164 66 Q 164 69 163 71 Q 161 72 159 71 Q 154 69 149 59" fill="#000080" clip-path="url(#clip-mask-7)" /><path d="M 201 45 L 200 42 Q 201 38 204 38 Q 210 39 213 44 Q 217 49 217 53 Q 218 56 214 56 Q 203 60 181 71 Q 179 71 177 71 Q 176 69 177 68 Q 191 57 198 49" fill="#000080" clip-path="url(#clip-mask-8)" /><path d="M 120 125 L 119 127 Q 119 130 114 126 Q 111 123 110 118 Q 104 103 98 94 Q 96 90 97 89 Q 98 88 100 88 L 113 97 Q 117 116 119 117 L 120 124" fill="#000080" clip-path="url(#clip-mask-9)" /><path d="M 205 83 Q 198 79 174 84 L 166 85 Q 151 88 140 90 L 135 91 Q 124 93 116 96 Q 115 97 113 97 L 100 88 Q 116 88 139 83 Q 160 79 184 76 Q 186 75 188 75 Q 208 71 211 74 Q 221 80 224 84" fill="#000080" clip-path="url(#clip-mask-10)" /><path d="M 196 108 Q 198 104 204 88 Q 206 84 205 83 L 224 84 Q 227 88 223 91 Q 214 96 210 107 Q 202 118 198 118 Q 195 117 195 114" fill="#000080" clip-path="url(#clip-mask-11)" /><path d="M 142 114 Q 137 109 135 91 L 140 90 Q 142 92 142 95 Q 148 101 148 112" fill="#000080" clip-path="url(#clip-mask-12)" /><path d="M 164 110 Q 164 107 166 105 Q 168 90 166 85 L 174 84 Q 178 86 180 89 Q 182 90 179 93 Q 177 95 176 97 Q 174 101 173 105 Q 172 106 171 108" fill="#000080" clip-path="url(#clip-mask-13)" /><path d="M 119 117 Q 130 115 142 114 L 148 112 Q 148 113 147 113 Q 156 111 164 110 L 171 108 Q 189 103 193 106 Q 195 107 196 108 L 195 114 Q 147 118 125 124 Q 121 124 120 124" fill="#000080" clip-path="url(#clip-mask-14)" /><path d="M 132 142 Q 127 139 101 149 L 100 142 Q 103 141 107 140 Q 137 132 140 133 Q 148 138 151 141" fill="#000080" clip-path="url(#clip-mask-15)" /><path d="M 127 177 Q 130 174 134 148 Q 135 144 132 142 L 151 141 Q 154 144 151 146 Q 147 151 145 158 Q 141 181 138 186 Q 135 190 133 189 Q 130 187 127 183" fill="#000080" clip-path="url(#clip-mask-16)" /><path d="M 100 162 Q 111 156 118 157 Q 122 157 125 159 Q 126 162 122 163 L 100 167" fill="#000080" clip-path="url(#clip-mask-17)" /><path d="M 100 180 Q 122 174 124 175 Q 126 176 127 177 L 127 183 Q 111 185 104 187 Q 101 188 100 187" fill="#000080" clip-path="url(#clip-mask-18)" /><path d="M 87 241 Q 84 244 82 242 Q 79 240 77 234 Q 76 229 78 227 Q 86 218 90 202 Q 94 154 85 142 Q 82 138 83 137 Q 85 136 88 136 Q 97 139 100 142 L 101 149 Q 100 153 100 162 L 100 167 Q 100 172 100 180 L 100 187 Q 99 198 99 211 Q 99 215 100 215" fill="#000080" clip-path="url(#clip-mask-19)" /><path d="M 96 231 L 87 241 L 100 215 Q 101 216 103 215 Q 116 208 122 206 L 124 209" fill="#000080" clip-path="url(#clip-mask-20)" /><path d="M 122 206 Q 120 200 120 199 Q 121 196 122 196 Q 123 196 126 198 Q 141 211 140 218 Q 139 224 137 226 Q 135 228 133 227 Q 131 226 124 209" fill="#000080" clip-path="url(#clip-mask-21)" /><path d="M 179 159 L 166 164 Q 162 165 158 164 Q 155 163 152 160 Q 148 157 153 157 Q 174 152 193 149 L 207 145 Q 212 143 217 143 Q 230 137 243 145 Q 247 148 246 151 Q 245 152 241 153 Q 238 153 234 153 Q 218 154 206 155 L 193 157" fill="#000080" clip-path="url(#clip-mask-22)" /><path d="M 193 149 Q 193 138 187 128 Q 184 124 186 123 Q 188 120 193 122 Q 201 125 207 130 Q 211 134 209 139 Q 208 142 207 145 L 206 155 Q 206 198 209 223 Q 209 241 200 251 Q 196 254 192 250 L 190 222 Q 195 218 193 157" fill="#000080" clip-path="url(#clip-mask-23)" /><path d="M 192 250 Q 186 240 167 224 Q 165 222 164 220 Q 164 218 167 219 Q 188 224 190 222" fill="#000080" clip-path="url(#clip-mask-24)" /><path d="M 152 181 L 152 179 Q 152 176 153 175 Q 157 174 173 183 Q 180 187 180 192 Q 181 199 180 203 Q 178 205 176 205 Q 172 205 169 201 Q 163 193 158 187" fill="#000080" clip-path="url(#clip-mask-25)" /><rect x="22" y="74" width="23" height="70" id="rect-1" fill="transparent" stroke="#000000"><animate attributeName="y" from="4" to="74" dur="0.259" begin="0; animate25.end + 1s" id="animate1" fill="freeze"/></rect><rect x="37" y="65" width="56" height="20" id="rect-2" fill="transparent" stroke="#000000"><set attributeName="x" to="-19" begin="0; animate25.end + 1s" /><animate attributeName="x" from="-19" to="37" dur="0.207" begin="animate1.end + 0.5" id="animate2" fill="freeze"/></rect><rect x="64" y="81" width="24" height="34" id="rect-3" fill="transparent" stroke="#000000"><set attributeName="y" to="47" begin="0; animate25.end + 1s" /><animate attributeName="y" from="47" to="81" dur="0.126" begin="animate2.end" id="animate3" fill="freeze"/></rect><rect x="44" y="115" width="38" height="14" id="rect-4" fill="transparent" stroke="#000000"><set attributeName="x" to="6" begin="0; animate25.end + 1s" /><animate attributeName="x" from="6" to="44" dur="0.141" begin="animate3.end + 0.5" id="animate4" fill="freeze"/></rect><rect x="120" y="15" width="77" height="38" id="rect-5" fill="transparent" stroke="#000000"><set attributeName="x" to="197" begin="0; animate25.end + 1s" /><animate attributeName="x" from="197" to="120" dur="0.285" begin="animate4.end + 0.5" id="animate5" fill="freeze"/></rect><rect x="114" y="56" width="21" height="24" id="rect-6" fill="transparent" stroke="#000000"><set attributeName="y" to="32" begin="0; animate25.end + 1s" /><animate attributeName="y" from="32" to="56" dur="0.089" begin="animate5.end + 0.5" id="animate6" fill="freeze"/></rect><rect x="147" y="52" width="17" height="20" id="rect-7" fill="transparent" stroke="#000000"><set attributeName="x" to="130" begin="0; animate25.end + 1s" /><animate attributeName="x" from="130" to="147" dur="0.063" begin="animate6.end + 0.5" id="animate7" fill="freeze"/></rect><rect x="176" y="38" width="42" height="33" id="rect-8" fill="transparent" stroke="#000000"><set attributeName="y" to="5" begin="0; animate25.end + 1s" /><animate attributeName="y" from="5" to="38" dur="0.122" begin="animate7.end + 0.5" id="animate8" fill="freeze"/></rect><rect x="96" y="88" width="24" height="42" id="rect-9" fill="transparent" stroke="#000000"><set attributeName="y" to="46" begin="0; animate25.end + 1s" /><animate attributeName="y" from="46" to="88" dur="0.156" begin="animate8.end + 0.5" id="animate9" fill="freeze"/></rect><rect x="100" y="71" width="124" height="26" id="rect-10" fill="transparent" stroke="#000000"><set attributeName="x" to="-24" begin="0; animate25.end + 1s" /><animate attributeName="x" from="-24" to="100" dur="0.459" begin="animate9.end + 0.5" id="animate10" fill="freeze"/></rect><rect x="195" y="83" width="32" height="35" id="rect-11" fill="transparent" stroke="#000000"><set attributeName="y" to="48" begin="0; animate25.end + 1s" /><animate attributeName="y" from="48" to="83" dur="0.130" begin="animate10.end" id="animate11" fill="freeze"/></rect><rect x="135" y="90" width="13" height="24" id="rect-12" fill="transparent" stroke="#000000"><set attributeName="y" to="66" begin="0; animate25.end + 1s" /><animate attributeName="y" from="66" to="90" dur="0.089" begin="animate11.end + 0.5" id="animate12" fill="freeze"/></rect><rect x="164" y="84" width="18" height="26" id="rect-13" fill="transparent" stroke="#000000"><set attributeName="y" to="58" begin="0; animate25.end + 1s" /><animate attributeName="y" from="58" to="84" dur="0.096" begin="animate12.end + 0.5" id="animate13" fill="freeze"/></rect><rect x="119" y="103" width="77" height="21" id="rect-14" fill="transparent" stroke="#000000"><set attributeName="x" to="42" begin="0; animate25.end + 1s" /><animate attributeName="x" from="42" to="119" dur="0.285" begin="animate13.end + 0.5" id="animate14" fill="freeze"/></rect><rect x="100" y="132" width="51" height="17" id="rect-15" fill="transparent" stroke="#000000"><set attributeName="x" to="49" begin="0; animate25.end + 1s" /><animate attributeName="x" from="49" to="100" dur="0.189" begin="animate14.end + 0.5" id="animate15" fill="freeze"/></rect><rect x="127" y="141" width="27" height="49" id="rect-16" fill="transparent" stroke="#000000"><set attributeName="y" to="92" begin="0; animate25.end + 1s" /><animate attributeName="y" from="92" to="141" dur="0.181" begin="animate15.end" id="animate16" fill="freeze"/></rect><rect x="100" y="156" width="26" height="11" id="rect-17" fill="transparent" stroke="#000000"><set attributeName="x" to="74" begin="0; animate25.end + 1s" /><animate attributeName="x" from="74" to="100" dur="0.096" begin="animate16.end + 0.5" id="animate17" fill="freeze"/></rect><rect x="100" y="174" width="27" height="14" id="rect-18" fill="transparent" stroke="#000000"><set attributeName="x" to="73" begin="0; animate25.end + 1s" /><animate attributeName="x" from="73" to="100" dur="0.100" begin="animate17.end + 0.5" id="animate18" fill="freeze"/></rect><rect x="76" y="136" width="25" height="108" id="rect-19" fill="transparent" stroke="#000000"><set attributeName="y" to="28" begin="0; animate25.end + 1s" /><animate attributeName="y" from="28" to="136" dur="0.400" begin="animate18.end + 0.5" id="animate19" fill="freeze"/></rect><rect x="87" y="206" width="37" height="35" id="rect-20" fill="transparent" stroke="#000000"><set attributeName="x" to="50" begin="0; animate25.end + 1s" /><animate attributeName="x" from="50" to="87" dur="0.137" begin="animate19.end" id="animate20" fill="freeze"/></rect><rect x="120" y="196" width="21" height="32" id="rect-21" fill="transparent" stroke="#000000"><set attributeName="y" to="164" begin="0; animate25.end + 1s" /><animate attributeName="y" from="164" to="196" dur="0.119" begin="animate20.end + 0.5" id="animate21" fill="freeze"/></rect><rect x="148" y="137" width="99" height="28" id="rect-22" fill="transparent" stroke="#000000"><set attributeName="x" to="49" begin="0; animate25.end + 1s" /><animate attributeName="x" from="49" to="148" dur="0.367" begin="animate21.end + 0.5" id="animate22" fill="freeze"/></rect><rect x="184" y="120" width="27" height="134" id="rect-23" fill="transparent" stroke="#000000"><set attributeName="y" to="-14" begin="0; animate25.end + 1s" /><animate attributeName="y" from="-14" to="120" dur="0.496" begin="animate22.end + 0.5" id="animate23" fill="freeze"/></rect><rect x="164" y="218" width="28" height="32" id="rect-24" fill="transparent" stroke="#000000"><set attributeName="x" to="192" begin="0; animate25.end + 1s" /><animate attributeName="x" from="192" to="164" dur="0.104" begin="animate23.end" id="animate24" fill="freeze"/></rect><rect x="152" y="174" width="29" height="31" id="rect-25" fill="transparent" stroke="#000000"><set attributeName="x" to="123" begin="0; animate25.end + 1s" /><animate attributeName="x" from="123" to="152" dur="0.107" begin="animate24.end + 0.5" id="animate25" fill="freeze"/></rect></svg>