<svg xmlns="http://www.w3.org/2000/svg" xmlns:xlink="http://www.w3.org/1999/xlink" width="270" height="270"><defs><clipPath id="clip-mask-1"><use xlink:href="#rect-1" /></clipPath><clipPath id="clip-mask-2"><use xlink:href="#rect-2" /></clipPath><clipPath id="clip-mask-3"><use xlink:href="#rect-3" /></clipPath><clipPath id="clip-mask-4"><use xlink:href="#rect-4" /></clipPath><clipPath id="clip-mask-5"><use xlink:href="#rect-5" /></clipPath><clipPath id="clip-mask-6"><use xlink:href="#rect-6" /></clipPath><clipPath id="clip-mask-7"><use xlink:href="#rect-7" /></clipPath></defs><path d="M 0 0 L 270 270 M 270 0 L 0 270 M 135 0 L 135 270 M 0 135 L 270 135" stroke="#CCCCCC" /><path d="M 66 220 L 64 222 Q 61 226 58 222 Q 47 209 52 194 Q 59 164 59 109 Q 59 77 52 55 Q 50 52 52 50 Q 56 49 58 51 Q 62 52 65 54 L 72 66 Q 72 67 72 68 Q 71 75 69 184 Q 69 197 68 206 L 67 216" fill="#CCCCCC"/><path d="M 193 55 Q 186 49 171 52 Q 79 66 72 66 L 65 54 Q 81 55 122 50 Q 160 45 185 35 Q 190 32 196 35 Q 213 43 219 49" fill="#CCCCCC"/><path d="M 196 200 Q 199 192 199 164 Q 201 123 200 92 Q 197 59 193 55 L 219 49 Q 222 53 219 57 Q 214 64 214 74 Q 215 156 218 201 Q 219 215 214 226 Q 209 236 204 236 Q 201 237 198 231" fill="#CCCCCC"/><path d="M 188 198 Q 192 201 194 204 Q 195 203 196 200 L 198 231" fill="#CCCCCC"/><path d="M 119 144 L 110 154 Q 109 155 108 157 Q 87 180 79 179 Q 76 179 77 176 Q 78 175 79 174 Q 95 157 106 140 Q 106 139 106 138 Q 129 92 124 72 Q 123 68 126 67 Q 130 66 134 70 Q 141 76 145 81 Q 146 85 143 88 Q 133 111 129 123 L 127 127" fill="#CCCCCC"/><path d="M 129 123 L 129 123 Q 130 123 132 124 Q 172 140 175 154 Q 179 163 176 166 Q 174 168 173 168 Q 169 167 166 163 Q 146 143 129 130 Q 127 128 127 127" fill="#CCCCCC"/><path d="M 68 206 Q 115 204 173 196 Q 183 194 188 198 L 198 231 Q 194 216 187 210 Q 109 211 73 216 Q 70 216 67 216" fill="#CCCCCC"/><path d="M 66 220 L 64 222 Q 61 226 58 222 Q 47 209 52 194 Q 59 164 59 109 Q 59 77 52 55 Q 50 52 52 50 Q 56 49 58 51 Q 62 52 65 54 L 72 66 Q 72 67 72 68 Q 71 75 69 184 Q 69 197 68 206 L 67 216" fill="#0000ff" clip-path="url(#clip-mask-1)" /><path d="M 193 55 Q 186 49 171 52 Q 79 66 72 66 L 65 54 Q 81 55 122 50 Q 160 45 185 35 Q 190 32 196 35 Q 213 43 219 49" fill="#0000ff" clip-path="url(#clip-mask-2)" /><path d="M 196 200 Q 199 192 199 164 Q 201 123 200 92 Q 197 59 193 55 L 219 49 Q 222 53 219 57 Q 214 64 214 74 Q 215 156 218 201 Q 219 215 214 226 Q 209 236 204 236 Q 201 237 198 231" fill="#0000ff" clip-path="url(#clip-mask-3)" /><path d="M 188 198 Q 192 201 194 204 Q 195 203 196 200 L 198 231" fill="#0000ff" clip-path="url(#clip-mask-4)" /><path d="M 119 144 L 110 154 Q 109 155 108 157 Q 87 180 79 179 Q 76 179 77 176 Q 78 175 79 174 Q 95 157 106 140 Q 106 139 106 138 Q 129 92 124 72 Q 123 68 126 67 Q 130 66 134 70 Q 141 76 145 81 Q 146 85 143 88 Q 133 111 129 123 L 127 127" fill="#000080" clip-path="url(#clip-mask-5)" /><path d="M 129 123 L 129 123 Q 130 123 132 124 Q 172 140 175 154 Q 179 163 176 166 Q 174 168 173 168 Q 169 167 166 163 Q 146 143 129 130 Q 127 128 127 127" fill="#000080" clip-path="url(#clip-mask-6)" /><path d="M 68 206 Q 115 204 173 196 Q 183 194 188 198 L 198 231 Q 194 216 187 210 Q 109 211 73 216 Q 70 216 67 216" fill="#0000ff" clip-path="url(#clip-mask-7)" /><rect x="47" y="49" width="25" height="177" id="rect-1" fill="transparent" stroke="#000000"><animate attributeName="y" from="-128" to="49" dur="0.656" begin="0; animate7.end + 1s" id="animate1" fill="freeze"/></rect><rect x="65" y="32" width="154" height="34" id="rect-2" fill="transparent" stroke="#000000"><set attributeName="x" to="-89" begin="0; animate7.end + 1s" /><animate attributeName="x" from="-89" to="65" dur="0.570" begin="animate1.end + 0.5" id="animate2" fill="freeze"/></rect><rect x="193" y="49" width="29" height="188" id="rect-3" fill="transparent" stroke="#000000"><set attributeName="y" to="-139" begin="0; animate7.end + 1s" /><animate attributeName="y" from="-139" to="49" dur="0.696" begin="animate2.end" id="animate3" fill="freeze"/></rect><rect x="188" y="198" width="10" height="33" id="rect-4" fill="transparent" stroke="#000000"><set attributeName="x" to="198" begin="0; animate7.end + 1s" /><animate attributeName="x" from="198" to="188" dur="0.037" begin="animate3.end" id="animate4" fill="freeze"/></rect><rect x="76" y="66" width="70" height="114" id="rect-5" fill="transparent" stroke="#000000"><set attributeName="y" to="-48" begin="0; animate7.end + 1s" /><animate attributeName="y" from="-48" to="66" dur="0.422" begin="animate4.end + 0.5" id="animate5" fill="freeze"/></rect><rect x="127" y="123" width="52" height="45" id="rect-6" fill="transparent" stroke="#000000"><set attributeName="x" to="75" begin="0; animate7.end + 1s" /><animate attributeName="x" from="75" to="127" dur="0.193" begin="animate5.end + 0.5" id="animate6" fill="freeze"/></rect><rect x="67" y="194" width="131" height="37" id="rect-7" fill="transparent" stroke="#000000"><set attributeName="x" to="-64" begin="0; animate7.end + 1s" /><animate attributeName="x" from="-64" to="67" dur="0.485" begin="animate6.end + 0.5" id="animate7" fill="freeze"/></rect></svg>