<svg xmlns="http://www.w3.org/2000/svg" xmlns:xlink="http://www.w3.org/1999/xlink" width="270" height="270"><defs><clipPath id="clip-mask-1"><use xlink:href="#rect-1" /></clipPath><clipPath id="clip-mask-2"><use xlink:href="#rect-2" /></clipPath><clipPath id="clip-mask-3"><use xlink:href="#rect-3" /></clipPath><clipPath id="clip-mask-4"><use xlink:href="#rect-4" /></clipPath><clipPath id="clip-mask-5"><use xlink:href="#rect-5" /></clipPath><clipPath id="clip-mask-6"><use xlink:href="#rect-6" /></clipPath><clipPath id="clip-mask-7"><use xlink:href="#rect-7" /></clipPath><clipPath id="clip-mask-8"><use xlink:href="#rect-8" /></clipPath><clipPath id="clip-mask-9"><use xlink:href="#rect-9" /></clipPath><clipPath id="clip-mask-10"><use xlink:href="#rect-10" /></clipPath><clipPath id="clip-mask-11"><use xlink:href="#rect-11" /></clipPath></defs><path d="M 0 0 L 270 270 M 270 0 L 0 270 M 135 0 L 135 270 M 0 135 L 270 135" stroke="#CCCCCC" /><path d="M 69 105 Q 46 111 35 106 Q 28 103 37 100 Q 49 98 69 92 L 82 87 Q 87 85 92 86 Q 100 87 102 90 Q 103 93 101 95 Q 100 96 93 98 Q 87 100 82 101" fill="#CCCCCC"/><path d="M 69 130 L 69 105 L 69 92 Q 69 73 68 54 Q 67 47 60 36 Q 58 32 60 30 Q 62 28 66 28 Q 73 30 83 35 Q 89 39 88 42 Q 82 72 82 87 L 82 101 Q 81 126 80 152 L 68 157" fill="#CCCCCC"/><path d="M 80 152 Q 94 145 106 140 Q 110 139 112 140 Q 112 143 108 145 Q 104 149 97 154 Q 52 180 42 190 Q 39 193 36 192 Q 26 188 19 184 Q 16 182 16 178 Q 16 175 20 174 Q 29 174 34 171 Q 51 163 68 157" fill="#CCCCCC"/><path d="M 121 101 Q 105 116 102 117 Q 98 118 99 115 Q 100 113 102 110 Q 117 90 127 73 Q 138 55 144 35 Q 146 30 143 23 Q 141 17 146 17 Q 151 16 158 21 Q 166 27 167 31 Q 169 34 166 37 Q 162 42 156 52 Q 142 75 128 92" fill="#CCCCCC"/><path d="M 139 203 Q 138 235 135 245 Q 131 253 126 248 Q 125 247 125 246 Q 116 233 119 221 Q 129 182 129 127 Q 129 125 129 123 Q 128 121 121 101 L 128 92 Q 131 94 140 105 Q 144 108 142 116 Q 139 132 139 195" fill="#CCCCCC"/><path d="M 177 43 L 176 40 Q 176 37 178 36 Q 182 34 198 41 Q 204 44 205 48 Q 207 56 206 60 Q 204 64 201 64 Q 197 64 193 60 Q 189 54 184 49" fill="#CCCCCC"/><path d="M 177 93 Q 163 97 152 91 Q 146 87 155 85 Q 171 83 190 79 Q 216 70 221 71 Q 228 73 230 76 Q 231 78 230 80 Q 228 80 189 90" fill="#CCCCCC"/><path d="M 181 126 Q 160 128 159 127 Q 153 123 158 122 Q 169 119 181 116 L 195 112 Q 195 112 196 112 Q 208 109 214 110 Q 221 112 225 116 Q 227 119 220 120 Q 208 122 195 124" fill="#CCCCCC"/><path d="M 181 158 Q 173 159 166 161 Q 159 162 156 160 Q 150 155 155 154 Q 167 151 181 148 L 194 144 Q 207 140 215 141 Q 223 143 226 147 Q 228 150 221 152 Q 208 153 194 156" fill="#CCCCCC"/><path d="M 181 171 L 181 158 L 181 148 Q 181 135 181 126 L 181 116 Q 180 97 177 93 L 189 90 Q 193 93 195 95 Q 196 97 195 111 Q 195 112 195 112 L 195 124 Q 194 134 194 144 L 194 156 Q 193 170 193 186 L 181 188" fill="#CCCCCC"/><path d="M 193 186 Q 210 183 221 181 Q 235 176 250 187 Q 253 190 252 193 Q 251 195 246 195 Q 186 195 152 204 Q 146 206 139 203 L 139 195 Q 161 191 181 188" fill="#CCCCCC"/><path d="M 69 105 Q 46 111 35 106 Q 28 103 37 100 Q 49 98 69 92 L 82 87 Q 87 85 92 86 Q 100 87 102 90 Q 103 93 101 95 Q 100 96 93 98 Q 87 100 82 101" fill="#0000ff" clip-path="url(#clip-mask-1)" /><path d="M 69 130 L 69 105 L 69 92 Q 69 73 68 54 Q 67 47 60 36 Q 58 32 60 30 Q 62 28 66 28 Q 73 30 83 35 Q 89 39 88 42 Q 82 72 82 87 L 82 101 Q 81 126 80 152 L 68 157" fill="#0000ff" clip-path="url(#clip-mask-2)" /><path d="M 80 152 Q 94 145 106 140 Q 110 139 112 140 Q 112 143 108 145 Q 104 149 97 154 Q 52 180 42 190 Q 39 193 36 192 Q 26 188 19 184 Q 16 182 16 178 Q 16 175 20 174 Q 29 174 34 171 Q 51 163 68 157" fill="#0000ff" clip-path="url(#clip-mask-3)" /><path d="M 121 101 Q 105 116 102 117 Q 98 118 99 115 Q 100 113 102 110 Q 117 90 127 73 Q 138 55 144 35 Q 146 30 143 23 Q 141 17 146 17 Q 151 16 158 21 Q 166 27 167 31 Q 169 34 166 37 Q 162 42 156 52 Q 142 75 128 92" fill="#000080" clip-path="url(#clip-mask-4)" /><path d="M 139 203 Q 138 235 135 245 Q 131 253 126 248 Q 125 247 125 246 Q 116 233 119 221 Q 129 182 129 127 Q 129 125 129 123 Q 128 121 121 101 L 128 92 Q 131 94 140 105 Q 144 108 142 116 Q 139 132 139 195" fill="#000080" clip-path="url(#clip-mask-5)" /><path d="M 177 43 L 176 40 Q 176 37 178 36 Q 182 34 198 41 Q 204 44 205 48 Q 207 56 206 60 Q 204 64 201 64 Q 197 64 193 60 Q 189 54 184 49" fill="#000080" clip-path="url(#clip-mask-6)" /><path d="M 177 93 Q 163 97 152 91 Q 146 87 155 85 Q 171 83 190 79 Q 216 70 221 71 Q 228 73 230 76 Q 231 78 230 80 Q 228 80 189 90" fill="#000080" clip-path="url(#clip-mask-7)" /><path d="M 181 126 Q 160 128 159 127 Q 153 123 158 122 Q 169 119 181 116 L 195 112 Q 195 112 196 112 Q 208 109 214 110 Q 221 112 225 116 Q 227 119 220 120 Q 208 122 195 124" fill="#000080" clip-path="url(#clip-mask-8)" /><path d="M 181 158 Q 173 159 166 161 Q 159 162 156 160 Q 150 155 155 154 Q 167 151 181 148 L 194 144 Q 207 140 215 141 Q 223 143 226 147 Q 228 150 221 152 Q 208 153 194 156" fill="#000080" clip-path="url(#clip-mask-9)" /><path d="M 181 171 L 181 158 L 181 148 Q 181 135 181 126 L 181 116 Q 180 97 177 93 L 189 90 Q 193 93 195 95 Q 196 97 195 111 Q 195 112 195 112 L 195 124 Q 194 134 194 144 L 194 156 Q 193 170 193 186 L 181 188" fill="#000080" clip-path="url(#clip-mask-10)" /><path d="M 193 186 Q 210 183 221 181 Q 235 176 250 187 Q 253 190 252 193 Q 251 195 246 195 Q 186 195 152 204 Q 146 206 139 203 L 139 195 Q 161 191 181 188" fill="#000080" clip-path="url(#clip-mask-11)" /><rect x="28" y="85" width="75" height="26" id="rect-1" fill="transparent" stroke="#000000"><animate attributeName="x" from="-47" to="28" dur="0.278" begin="0; animate11.end + 1s" id="animate1" fill="freeze"/></rect><rect x="58" y="28" width="31" height="129" id="rect-2" fill="transparent" stroke="#000000"><set attributeName="y" to="-101" begin="0; animate11.end + 1s" /><animate attributeName="y" from="-101" to="28" dur="0.478" begin="animate1.end + 0.5" id="animate2" fill="freeze"/></rect><rect x="16" y="139" width="96" height="54" id="rect-3" fill="transparent" stroke="#000000"><set attributeName="x" to="-80" begin="0; animate11.end + 1s" /><animate attributeName="x" from="-80" to="16" dur="0.356" begin="animate2.end + 0.5" id="animate3" fill="freeze"/></rect><rect x="98" y="16" width="71" height="102" id="rect-4" fill="transparent" stroke="#000000"><set attributeName="y" to="-86" begin="0; animate11.end + 1s" /><animate attributeName="y" from="-86" to="16" dur="0.378" begin="animate3.end + 0.5" id="animate4" fill="freeze"/></rect><rect x="116" y="92" width="28" height="161" id="rect-5" fill="transparent" stroke="#000000"><set attributeName="y" to="-69" begin="0; animate11.end + 1s" /><animate attributeName="y" from="-69" to="92" dur="0.596" begin="animate4.end + 0.5" id="animate5" fill="freeze"/></rect><rect x="176" y="34" width="31" height="30" id="rect-6" fill="transparent" stroke="#000000"><set attributeName="x" to="145" begin="0; animate11.end + 1s" /><animate attributeName="x" from="145" to="176" dur="0.115" begin="animate5.end + 0.5" id="animate6" fill="freeze"/></rect><rect x="146" y="70" width="85" height="27" id="rect-7" fill="transparent" stroke="#000000"><set attributeName="x" to="61" begin="0; animate11.end + 1s" /><animate attributeName="x" from="61" to="146" dur="0.315" begin="animate6.end + 0.5" id="animate7" fill="freeze"/></rect><rect x="153" y="109" width="74" height="19" id="rect-8" fill="transparent" stroke="#000000"><set attributeName="x" to="79" begin="0; animate11.end + 1s" /><animate attributeName="x" from="79" to="153" dur="0.274" begin="animate7.end + 0.5" id="animate8" fill="freeze"/></rect><rect x="150" y="140" width="78" height="22" id="rect-9" fill="transparent" stroke="#000000"><set attributeName="x" to="72" begin="0; animate11.end + 1s" /><animate attributeName="x" from="72" to="150" dur="0.289" begin="animate8.end + 0.5" id="animate9" fill="freeze"/></rect><rect x="177" y="90" width="19" height="98" id="rect-10" fill="transparent" stroke="#000000"><set attributeName="y" to="-8" begin="0; animate11.end + 1s" /><animate attributeName="y" from="-8" to="90" dur="0.363" begin="animate9.end + 0.5" id="animate10" fill="freeze"/></rect><rect x="139" y="176" width="114" height="30" id="rect-11" fill="transparent" stroke="#000000"><set attributeName="x" to="25" begin="0; animate11.end + 1s" /><animate attributeName="x" from="25" to="139" dur="0.422" begin="animate10.end + 0.5" id="animate11" fill="freeze"/></rect></svg>