<svg xmlns="http://www.w3.org/2000/svg" xmlns:xlink="http://www.w3.org/1999/xlink" width="270" height="270"><defs><clipPath id="clip-mask-1"><use xlink:href="#rect-1" /></clipPath><clipPath id="clip-mask-2"><use xlink:href="#rect-2" /></clipPath><clipPath id="clip-mask-3"><use xlink:href="#rect-3" /></clipPath><clipPath id="clip-mask-4"><use xlink:href="#rect-4" /></clipPath><clipPath id="clip-mask-5"><use xlink:href="#rect-5" /></clipPath><clipPath id="clip-mask-6"><use xlink:href="#rect-6" /></clipPath><clipPath id="clip-mask-7"><use xlink:href="#rect-7" /></clipPath><clipPath id="clip-mask-8"><use xlink:href="#rect-8" /></clipPath><clipPath id="clip-mask-9"><use xlink:href="#rect-9" /></clipPath><clipPath id="clip-mask-10"><use xlink:href="#rect-10" /></clipPath><clipPath id="clip-mask-11"><use xlink:href="#rect-11" /></clipPath><clipPath id="clip-mask-12"><use xlink:href="#rect-12" /></clipPath><clipPath id="clip-mask-13"><use xlink:href="#rect-13" /></clipPath><clipPath id="clip-mask-14"><use xlink:href="#rect-14" /></clipPath><clipPath id="clip-mask-15"><use xlink:href="#rect-15" /></clipPath><clipPath id="clip-mask-16"><use xlink:href="#rect-16" /></clipPath><clipPath id="clip-mask-17"><use xlink:href="#rect-17" /></clipPath><clipPath id="clip-mask-18"><use xlink:href="#rect-18" /></clipPath></defs><path d="M 0 0 L 270 270 M 270 0 L 0 270 M 135 0 L 135 270 M 0 135 L 270 135" stroke="#CCCCCC" /><path d="M 61 49 L 73 39 Q 76 36 81 38 Q 90 44 93 48 Q 96 52 91 54 L 73 54 Q 71 51 67 54 Q 57 59 48 60 L 45 53" fill="#CCCCCC"/><path d="M 91 54 Q 85 57 75 69 Q 63 79 76 88 L 65 88 Q 59 79 62 73 Q 67 66 71 59 Q 74 55 73 54" fill="#CCCCCC"/><path d="M 76 88 Q 93 107 91 120 Q 90 126 86 129 Q 84 132 80 129 L 74 110 Q 77 106 65 88" fill="#CCCCCC"/><path d="M 80 129 Q 70 121 59 114 Q 53 111 59 111 Q 64 111 69 112 Q 73 113 74 110" fill="#CCCCCC"/><path d="M 48 60 Q 46 80 47 134 Q 47 175 41 183 Q 39 187 36 183 Q 33 180 31 172 Q 29 167 34 147 Q 43 86 29 52 Q 27 49 28 48 Q 29 46 32 46 Q 39 48 45 53" fill="#CCCCCC"/><path d="M 112 38 L 112 36 Q 112 33 113 32 Q 114 32 118 33 Q 135 38 138 45 Q 139 52 138 55 Q 136 58 134 58 Q 130 58 128 55 Q 122 48 118 44" fill="#CCCCCC"/><path d="M 169 25 L 168 22 Q 168 17 171 17 Q 177 17 183 21 Q 188 25 190 29 Q 191 32 187 33 Q 177 40 157 57 Q 155 58 153 58 Q 152 56 153 54 Q 163 39 168 30" fill="#CCCCCC"/><path d="M 130 75 Q 110 79 106 77 Q 101 73 105 72 Q 135 66 169 58 Q 179 55 185 56 Q 191 57 194 60 Q 196 64 190 65 Q 169 68 143 73" fill="#CCCCCC"/><path d="M 133 92 Q 112 111 100 111 Q 95 111 99 108 Q 123 90 130 75 L 143 73 Q 147 75 148 77 Q 148 79 146 82 Q 143 83 138 88" fill="#CCCCCC"/><path d="M 169 122 L 170 127 Q 173 137 171 154 Q 169 166 166 174 Q 162 180 159 181 Q 155 182 152 178 L 155 157 Q 156 156 158 149 Q 161 134 160 125 L 154 111 Q 152 107 149 105 L 138 95 L 133 92 L 138 88 Q 146 91 163 107 L 168 119" fill="#CCCCCC"/><path d="M 152 178 Q 147 171 136 162 Q 133 159 133 157 Q 134 155 149 158 Q 153 158 155 157" fill="#CCCCCC"/><path d="M 149 105 Q 146 107 140 113 Q 113 134 99 133 Q 94 133 98 131 Q 133 110 138 97 Q 138 96 138 95" fill="#CCCCCC"/><path d="M 160 125 Q 159 126 158 127 Q 158 128 148 135 Q 121 159 94 163 Q 90 164 89 162 Q 87 161 90 159 Q 134 137 154 112 Q 154 111 154 111" fill="#CCCCCC"/><path d="M 163 107 Q 163 107 163 107 Q 182 86 182 80 Q 182 76 185 76 Q 190 77 194 81 Q 198 86 199 89 Q 200 91 196 92 Q 186 97 167 110" fill="#CCCCCC"/><path d="M 163 107 L 167 110 Q 179 119 191 126 Q 208 136 240 145 Q 242 146 242 147 Q 242 148 241 148 Q 234 151 214 155 Q 208 157 203 153 Q 184 136 168 119" fill="#CCCCCC"/><path d="M 109 207 Q 105 207 102 208 Q 82 211 72 204 Q 66 200 75 199 Q 93 198 109 195 L 125 192 Q 147 185 155 187 Q 162 189 164 193 Q 165 195 163 197 Q 160 199 123 205" fill="#CCCCCC"/><path d="M 109 220 L 109 207 L 109 195 Q 108 178 104 173 Q 102 170 104 168 Q 106 166 110 167 Q 115 168 124 173 Q 129 176 128 179 Q 126 184 125 192 L 123 205 Q 122 218 120 233 L 109 234" fill="#CCCCCC"/><path d="M 120 233 Q 159 228 184 225 Q 201 221 216 234 Q 221 238 219 241 Q 217 243 212 243 Q 114 237 49 251 Q 45 252 39 251 Q 34 249 31 245 Q 27 240 32 240 Q 73 236 109 234" fill="#CCCCCC"/><path d="M 61 49 L 73 39 Q 76 36 81 38 Q 90 44 93 48 Q 96 52 91 54 L 73 54 Q 71 51 67 54 Q 57 59 48 60 L 45 53" fill="#000080" clip-path="url(#clip-mask-1)" /><path d="M 91 54 Q 85 57 75 69 Q 63 79 76 88 L 65 88 Q 59 79 62 73 Q 67 66 71 59 Q 74 55 73 54" fill="#000080" clip-path="url(#clip-mask-2)" /><path d="M 76 88 Q 93 107 91 120 Q 90 126 86 129 Q 84 132 80 129 L 74 110 Q 77 106 65 88" fill="#000080" clip-path="url(#clip-mask-3)" /><path d="M 80 129 Q 70 121 59 114 Q 53 111 59 111 Q 64 111 69 112 Q 73 113 74 110" fill="#000080" clip-path="url(#clip-mask-4)" /><path d="M 48 60 Q 46 80 47 134 Q 47 175 41 183 Q 39 187 36 183 Q 33 180 31 172 Q 29 167 34 147 Q 43 86 29 52 Q 27 49 28 48 Q 29 46 32 46 Q 39 48 45 53" fill="#000080" clip-path="url(#clip-mask-5)" /><path d="M 112 38 L 112 36 Q 112 33 113 32 Q 114 32 118 33 Q 135 38 138 45 Q 139 52 138 55 Q 136 58 134 58 Q 130 58 128 55 Q 122 48 118 44" fill="#000080" clip-path="url(#clip-mask-6)" /><path d="M 169 25 L 168 22 Q 168 17 171 17 Q 177 17 183 21 Q 188 25 190 29 Q 191 32 187 33 Q 177 40 157 57 Q 155 58 153 58 Q 152 56 153 54 Q 163 39 168 30" fill="#000080" clip-path="url(#clip-mask-7)" /><path d="M 130 75 Q 110 79 106 77 Q 101 73 105 72 Q 135 66 169 58 Q 179 55 185 56 Q 191 57 194 60 Q 196 64 190 65 Q 169 68 143 73" fill="#000080" clip-path="url(#clip-mask-8)" /><path d="M 133 92 Q 112 111 100 111 Q 95 111 99 108 Q 123 90 130 75 L 143 73 Q 147 75 148 77 Q 148 79 146 82 Q 143 83 138 88" fill="#000080" clip-path="url(#clip-mask-9)" /><path d="M 169 122 L 170 127 Q 173 137 171 154 Q 169 166 166 174 Q 162 180 159 181 Q 155 182 152 178 L 155 157 Q 156 156 158 149 Q 161 134 160 125 L 154 111 Q 152 107 149 105 L 138 95 L 133 92 L 138 88 Q 146 91 163 107 L 168 119" fill="#000080" clip-path="url(#clip-mask-10)" /><path d="M 152 178 Q 147 171 136 162 Q 133 159 133 157 Q 134 155 149 158 Q 153 158 155 157" fill="#000080" clip-path="url(#clip-mask-11)" /><path d="M 149 105 Q 146 107 140 113 Q 113 134 99 133 Q 94 133 98 131 Q 133 110 138 97 Q 138 96 138 95" fill="#000080" clip-path="url(#clip-mask-12)" /><path d="M 160 125 Q 159 126 158 127 Q 158 128 148 135 Q 121 159 94 163 Q 90 164 89 162 Q 87 161 90 159 Q 134 137 154 112 Q 154 111 154 111" fill="#000080" clip-path="url(#clip-mask-13)" /><path d="M 163 107 Q 163 107 163 107 Q 182 86 182 80 Q 182 76 185 76 Q 190 77 194 81 Q 198 86 199 89 Q 200 91 196 92 Q 186 97 167 110" fill="#000080" clip-path="url(#clip-mask-14)" /><path d="M 163 107 L 167 110 Q 179 119 191 126 Q 208 136 240 145 Q 242 146 242 147 Q 242 148 241 148 Q 234 151 214 155 Q 208 157 203 153 Q 184 136 168 119" fill="#000080" clip-path="url(#clip-mask-15)" /><path d="M 109 207 Q 105 207 102 208 Q 82 211 72 204 Q 66 200 75 199 Q 93 198 109 195 L 125 192 Q 147 185 155 187 Q 162 189 164 193 Q 165 195 163 197 Q 160 199 123 205" fill="#0000ff" clip-path="url(#clip-mask-16)" /><path d="M 109 220 L 109 207 L 109 195 Q 108 178 104 173 Q 102 170 104 168 Q 106 166 110 167 Q 115 168 124 173 Q 129 176 128 179 Q 126 184 125 192 L 123 205 Q 122 218 120 233 L 109 234" fill="#0000ff" clip-path="url(#clip-mask-17)" /><path d="M 120 233 Q 159 228 184 225 Q 201 221 216 234 Q 221 238 219 241 Q 217 243 212 243 Q 114 237 49 251 Q 45 252 39 251 Q 34 249 31 245 Q 27 240 32 240 Q 73 236 109 234" fill="#0000ff" clip-path="url(#clip-mask-18)" /><rect x="45" y="36" width="51" height="24" id="rect-1" fill="transparent" stroke="#000000"><animate attributeName="x" from="-6" to="45" dur="0.189" begin="0; animate18.end + 1s" id="animate1" fill="freeze"/></rect><rect x="59" y="54" width="32" height="34" id="rect-2" fill="transparent" stroke="#000000"><set attributeName="y" to="20" begin="0; animate18.end + 1s" /><animate attributeName="y" from="20" to="54" dur="0.126" begin="animate1.end" id="animate2" fill="freeze"/></rect><rect x="65" y="88" width="28" height="44" id="rect-3" fill="transparent" stroke="#000000"><set attributeName="y" to="44" begin="0; animate18.end + 1s" /><animate attributeName="y" from="44" to="88" dur="0.163" begin="animate2.end + 0.5" id="animate3" fill="freeze"/></rect><rect x="53" y="110" width="27" height="19" id="rect-4" fill="transparent" stroke="#000000"><set attributeName="x" to="80" begin="0; animate18.end + 1s" /><animate attributeName="x" from="80" to="53" dur="0.100" begin="animate3.end" id="animate4" fill="freeze"/></rect><rect x="27" y="46" width="21" height="141" id="rect-5" fill="transparent" stroke="#000000"><set attributeName="y" to="-95" begin="0; animate18.end + 1s" /><animate attributeName="y" from="-95" to="46" dur="0.522" begin="animate4.end + 0.5" id="animate5" fill="freeze"/></rect><rect x="112" y="32" width="27" height="26" id="rect-6" fill="transparent" stroke="#000000"><set attributeName="y" to="6" begin="0; animate18.end + 1s" /><animate attributeName="y" from="6" to="32" dur="0.096" begin="animate5.end + 0.5" id="animate6" fill="freeze"/></rect><rect x="152" y="17" width="39" height="41" id="rect-7" fill="transparent" stroke="#000000"><set attributeName="y" to="-24" begin="0; animate18.end + 1s" /><animate attributeName="y" from="-24" to="17" dur="0.152" begin="animate6.end + 0.5" id="animate7" fill="freeze"/></rect><rect x="101" y="55" width="95" height="24" id="rect-8" fill="transparent" stroke="#000000"><set attributeName="x" to="6" begin="0; animate18.end + 1s" /><animate attributeName="x" from="6" to="101" dur="0.352" begin="animate7.end + 0.5" id="animate8" fill="freeze"/></rect><rect x="95" y="73" width="53" height="38" id="rect-9" fill="transparent" stroke="#000000"><set attributeName="x" to="148" begin="0; animate18.end + 1s" /><animate attributeName="x" from="148" to="95" dur="0.196" begin="animate8.end + 0.5" id="animate9" fill="freeze"/></rect><rect x="133" y="88" width="40" height="94" id="rect-10" fill="transparent" stroke="#000000"><set attributeName="y" to="-6" begin="0; animate18.end + 1s" /><animate attributeName="y" from="-6" to="88" dur="0.348" begin="animate9.end + 0.5" id="animate10" fill="freeze"/></rect><rect x="133" y="155" width="22" height="23" id="rect-11" fill="transparent" stroke="#000000"><set attributeName="x" to="155" begin="0; animate18.end + 1s" /><animate attributeName="x" from="155" to="133" dur="0.081" begin="animate10.end" id="animate11" fill="freeze"/></rect><rect x="94" y="95" width="55" height="39" id="rect-12" fill="transparent" stroke="#000000"><set attributeName="x" to="149" begin="0; animate18.end + 1s" /><animate attributeName="x" from="149" to="94" dur="0.204" begin="animate11.end + 0.5" id="animate12" fill="freeze"/></rect><rect x="87" y="111" width="73" height="53" id="rect-13" fill="transparent" stroke="#000000"><set attributeName="x" to="160" begin="0; animate18.end + 1s" /><animate attributeName="x" from="160" to="87" dur="0.270" begin="animate12.end + 0.5" id="animate13" fill="freeze"/></rect><rect x="163" y="76" width="37" height="34" id="rect-14" fill="transparent" stroke="#000000"><set attributeName="y" to="42" begin="0; animate18.end + 1s" /><animate attributeName="y" from="42" to="76" dur="0.126" begin="animate13.end + 0.5" id="animate14" fill="freeze"/></rect><rect x="163" y="107" width="79" height="50" id="rect-15" fill="transparent" stroke="#000000"><set attributeName="x" to="84" begin="0; animate18.end + 1s" /><animate attributeName="x" from="84" to="163" dur="0.293" begin="animate14.end + 0.5" id="animate15" fill="freeze"/></rect><rect x="66" y="185" width="99" height="26" id="rect-16" fill="transparent" stroke="#000000"><set attributeName="x" to="-33" begin="0; animate18.end + 1s" /><animate attributeName="x" from="-33" to="66" dur="0.367" begin="animate15.end + 0.5" id="animate16" fill="freeze"/></rect><rect x="102" y="166" width="27" height="68" id="rect-17" fill="transparent" stroke="#000000"><set attributeName="y" to="98" begin="0; animate18.end + 1s" /><animate attributeName="y" from="98" to="166" dur="0.252" begin="animate16.end + 0.5" id="animate17" fill="freeze"/></rect><rect x="27" y="221" width="194" height="31" id="rect-18" fill="transparent" stroke="#000000"><set attributeName="x" to="-167" begin="0; animate18.end + 1s" /><animate attributeName="x" from="-167" to="27" dur="0.719" begin="animate17.end + 0.5" id="animate18" fill="freeze"/></rect></svg>