<svg xmlns="http://www.w3.org/2000/svg" xmlns:xlink="http://www.w3.org/1999/xlink" width="270" height="270"><defs><clipPath id="clip-mask-1"><use xlink:href="#rect-1" /></clipPath><clipPath id="clip-mask-2"><use xlink:href="#rect-2" /></clipPath><clipPath id="clip-mask-3"><use xlink:href="#rect-3" /></clipPath><clipPath id="clip-mask-4"><use xlink:href="#rect-4" /></clipPath><clipPath id="clip-mask-5"><use xlink:href="#rect-5" /></clipPath><clipPath id="clip-mask-6"><use xlink:href="#rect-6" /></clipPath><clipPath id="clip-mask-7"><use xlink:href="#rect-7" /></clipPath><clipPath id="clip-mask-8"><use xlink:href="#rect-8" /></clipPath><clipPath id="clip-mask-9"><use xlink:href="#rect-9" /></clipPath><clipPath id="clip-mask-10"><use xlink:href="#rect-10" /></clipPath><clipPath id="clip-mask-11"><use xlink:href="#rect-11" /></clipPath><clipPath id="clip-mask-12"><use xlink:href="#rect-12" /></clipPath><clipPath id="clip-mask-13"><use xlink:href="#rect-13" /></clipPath><clipPath id="clip-mask-14"><use xlink:href="#rect-14" /></clipPath><clipPath id="clip-mask-15"><use xlink:href="#rect-15" /></clipPath><clipPath id="clip-mask-16"><use xlink:href="#rect-16" /></clipPath><clipPath id="clip-mask-17"><use xlink:href="#rect-17" /></clipPath><clipPath id="clip-mask-18"><use xlink:href="#rect-18" /></clipPath><clipPath id="clip-mask-19"><use xlink:href="#rect-19" /></clipPath><clipPath id="clip-mask-20"><use xlink:href="#rect-20" /></clipPath><clipPath id="clip-mask-21"><use xlink:href="#rect-21" /></clipPath><clipPath id="clip-mask-22"><use xlink:href="#rect-22" /></clipPath><clipPath id="clip-mask-23"><use xlink:href="#rect-23" /></clipPath><clipPath id="clip-mask-24"><use xlink:href="#rect-24" /></clipPath><clipPath id="clip-mask-25"><use xlink:href="#rect-25" /></clipPath><clipPath id="clip-mask-26"><use xlink:href="#rect-26" /></clipPath><clipPath id="clip-mask-27"><use xlink:href="#rect-27" /></clipPath><clipPath id="clip-mask-28"><use xlink:href="#rect-28" /></clipPath></defs><path d="M 0 0 L 270 270 M 270 0 L 0 270 M 135 0 L 135 270 M 0 135 L 270 135" stroke="#CCCCCC" /><path d="M 61 108 Q 42 114 31 110 Q 24 107 33 105 Q 44 102 53 99 Q 56 97 60 96 L 73 91 Q 77 89 83 89 Q 90 90 92 92 Q 93 94 91 97 Q 91 98 84 100 Q 77 102 72 104" fill="#CCCCCC"/><path d="M 61 130 L 61 108 L 60 96 Q 60 80 59 65 Q 59 59 53 50 Q 51 46 52 45 Q 55 43 59 43 Q 65 44 74 49 Q 79 53 78 56 Q 73 74 73 91 L 72 104 Q 71 125 70 149 L 60 154" fill="#CCCCCC"/><path d="M 70 149 Q 80 144 90 139 Q 92 138 94 139 Q 94 141 92 143 Q 88 146 83 150 Q 49 173 43 180 Q 40 182 38 182 Q 29 179 23 176 Q 21 174 21 171 Q 21 169 24 168 Q 32 167 60 154" fill="#CCCCCC"/><path d="M 156 40 Q 142 42 134 37 Q 128 33 137 31 Q 142 30 171 25 Q 190 19 197 21 Q 204 23 206 25 Q 207 27 205 29 Q 204 30 164 38" fill="#CCCCCC"/><path d="M 117 70 Q 116 71 111 85 Q 107 97 105 97 Q 103 99 102 97 Q 99 93 98 89 Q 98 84 100 80 Q 107 65 106 57 Q 106 55 107 54 Q 109 53 110 54 Q 114 57 118 64" fill="#CCCCCC"/><path d="M 148 66 L 136 69 Q 123 72 117 70 L 118 64 Q 129 62 140 60 Q 150 58 159 57 L 171 55 Q 183 51 204 49 Q 226 44 231 49 Q 247 59 248 62 L 216 55 Q 207 54 171 61 L 160 63" fill="#CCCCCC"/><path d="M 248 62 Q 248 64 240 67 Q 230 70 217 78 Q 213 81 211 81 Q 210 79 212 76 Q 218 59 218 59 Q 219 57 216 55" fill="#CCCCCC"/><path d="M 159 57 Q 158 46 156 42 Q 156 41 156 40 L 164 38 Q 167 39 169 41 Q 173 43 172 48 Q 171 51 171 55 L 171 61 Q 171 63 171 65 Q 170 85 170 91 Q 171 101 166 108 Q 164 110 162 108 Q 156 99 157 93 Q 160 78 160 63" fill="#CCCCCC"/><path d="M 128 80 L 128 78 Q 127 76 129 76 Q 140 74 144 77 Q 147 80 147 82 Q 147 86 145 86 Q 140 88 130 81" fill="#CCCCCC"/><path d="M 126 94 L 126 93 Q 125 91 127 91 Q 138 91 142 94 Q 144 97 144 100 Q 144 103 142 104 Q 137 104 127 96" fill="#CCCCCC"/><path d="M 179 72 L 179 71 Q 178 69 180 69 Q 193 67 198 71 Q 201 74 201 76 Q 201 80 199 80 Q 195 81 181 74" fill="#CCCCCC"/><path d="M 179 90 L 179 89 Q 178 86 180 86 Q 183 86 191 88 Q 195 88 198 91 Q 200 94 200 97 Q 200 100 198 101 Q 193 101 180 92" fill="#CCCCCC"/><path d="M 145 129 Q 132 131 122 134 L 113 136 Q 110 136 107 137 Q 99 138 93 134 Q 89 131 95 130 Q 103 129 111 128 L 122 126 Q 130 124 146 120 L 158 118 Q 161 117 165 120 Q 170 122 169 124 Q 167 126 166 126 Q 160 126 155 128" fill="#CCCCCC"/><path d="M 122 134 Q 122 146 122 148 L 122 153 Q 122 155 122 156 Q 122 159 121 160 Q 119 161 118 159 Q 117 158 113 136 L 111 128 Q 110 123 107 117 Q 104 115 106 113 Q 110 111 113 112 Q 119 114 121 116 Q 124 118 123 121 Q 122 123 122 126" fill="#CCCCCC"/><path d="M 143 142 Q 144 135 145 129 L 146 120 Q 146 110 145 107 Q 144 105 145 104 Q 147 103 149 103 Q 153 105 158 109 Q 161 111 160 113 Q 159 115 158 118 L 155 128 Q 152 134 151 142" fill="#CCCCCC"/><path d="M 126 153 Q 124 153 123 153 Q 123 153 122 153 L 122 148 Q 131 146 143 142 L 151 142 Q 151 142 152 142 Q 157 145 157 146 Q 157 148 156 148 Q 141 150 133 152" fill="#CCCCCC"/><path d="M 110 195 Q 110 197 110 199 Q 109 202 105 198 Q 103 196 102 191 Q 99 178 94 171 Q 92 167 93 166 Q 94 166 96 166 Q 100 166 103 167 L 107 173 Q 107 177 110 189" fill="#CCCCCC"/><path d="M 128 169 Q 123 170 107 173 L 103 167 Q 116 165 128 164 L 139 161 Q 146 159 154 156 Q 158 155 161 156 Q 170 161 173 164 L 156 166 Q 153 164 138 167" fill="#CCCCCC"/><path d="M 153 180 Q 155 175 156 170 Q 157 167 156 166 L 173 164 Q 175 167 172 170 Q 167 173 163 182" fill="#CCCCCC"/><path d="M 127 193 Q 120 194 116 195 Q 113 196 111 196 Q 111 195 110 195 L 110 189 Q 118 188 127 186 L 137 184 Q 144 182 152 180 Q 152 180 153 180 L 163 182 Q 168 185 168 186 Q 167 188 165 189 Q 149 190 137 192" fill="#CCCCCC"/><path d="M 125 214 Q 125 214 124 214 Q 111 218 92 224 Q 84 227 74 221 Q 71 219 72 216 Q 72 214 75 214 Q 86 213 126 205 L 137 203 Q 156 197 163 200 Q 167 202 167 205 Q 167 207 163 207 Q 149 210 137 212" fill="#CCCCCC"/><path d="M 138 240 L 135 246 Q 134 248 132 248 Q 131 247 128 244 Q 122 235 124 226 Q 125 224 125 219 Q 125 216 125 214 L 126 205 Q 127 200 127 193 L 127 186 Q 128 177 128 169 L 128 164 Q 127 157 126 153 L 133 152 Q 136 153 138 156 Q 139 157 139 160 Q 139 160 139 161 L 138 167 Q 138 174 137 184 Q 137 184 137 184 L 137 192 Q 137 197 137 203 L 137 212" fill="#CCCCCC"/><path d="M 183 194 L 180 203 Q 178 207 177 211 Q 164 235 158 237 Q 156 238 156 235 Q 156 234 157 233 Q 169 210 174 192 Q 179 168 178 139 Q 177 124 174 120 Q 172 117 175 116 Q 177 114 181 116 Q 185 118 188 119 L 191 127 Q 190 133 190 150 L 189 157 Q 188 166 187 177 L 185 183" fill="#CCCCCC"/><path d="M 188 119 Q 201 117 207 114 Q 218 108 223 110 Q 232 113 238 118 Q 241 120 238 125 L 219 123 Q 217 120 212 122 Q 197 126 191 127" fill="#CCCCCC"/><path d="M 238 125 Q 232 135 239 214 Q 241 234 231 247 Q 229 250 227 249 Q 223 248 219 244 L 221 225 Q 223 221 223 214 Q 224 183 221 131 Q 220 125 219 123" fill="#CCCCCC"/><path d="M 219 244 Q 211 235 196 224 Q 196 222 201 223 Q 208 224 214 225 Q 220 226 221 225" fill="#CCCCCC"/><path d="M 190 150 Q 190 149 191 149 Q 200 146 205 146 Q 210 147 213 150 Q 215 152 210 153 Q 201 155 189 157" fill="#CCCCCC"/><path d="M 187 177 Q 196 171 206 172 Q 212 173 215 177 Q 217 180 211 181 Q 201 181 188 183 Q 186 183 185 183" fill="#CCCCCC"/><path d="M 61 108 Q 42 114 31 110 Q 24 107 33 105 Q 44 102 53 99 Q 56 97 60 96 L 73 91 Q 77 89 83 89 Q 90 90 92 92 Q 93 94 91 97 Q 91 98 84 100 Q 77 102 72 104" fill="#0000ff" clip-path="url(#clip-mask-1)" /><path d="M 61 130 L 61 108 L 60 96 Q 60 80 59 65 Q 59 59 53 50 Q 51 46 52 45 Q 55 43 59 43 Q 65 44 74 49 Q 79 53 78 56 Q 73 74 73 91 L 72 104 Q 71 125 70 149 L 60 154" fill="#0000ff" clip-path="url(#clip-mask-2)" /><path d="M 70 149 Q 80 144 90 139 Q 92 138 94 139 Q 94 141 92 143 Q 88 146 83 150 Q 49 173 43 180 Q 40 182 38 182 Q 29 179 23 176 Q 21 174 21 171 Q 21 169 24 168 Q 32 167 60 154" fill="#0000ff" clip-path="url(#clip-mask-3)" /><path d="M 156 40 Q 142 42 134 37 Q 128 33 137 31 Q 142 30 171 25 Q 190 19 197 21 Q 204 23 206 25 Q 207 27 205 29 Q 204 30 164 38" fill="#000080" clip-path="url(#clip-mask-4)" /><path d="M 117 70 Q 116 71 111 85 Q 107 97 105 97 Q 103 99 102 97 Q 99 93 98 89 Q 98 84 100 80 Q 107 65 106 57 Q 106 55 107 54 Q 109 53 110 54 Q 114 57 118 64" fill="#000080" clip-path="url(#clip-mask-5)" /><path d="M 148 66 L 136 69 Q 123 72 117 70 L 118 64 Q 129 62 140 60 Q 150 58 159 57 L 171 55 Q 183 51 204 49 Q 226 44 231 49 Q 247 59 248 62 L 216 55 Q 207 54 171 61 L 160 63" fill="#000080" clip-path="url(#clip-mask-6)" /><path d="M 248 62 Q 248 64 240 67 Q 230 70 217 78 Q 213 81 211 81 Q 210 79 212 76 Q 218 59 218 59 Q 219 57 216 55" fill="#000080" clip-path="url(#clip-mask-7)" /><path d="M 159 57 Q 158 46 156 42 Q 156 41 156 40 L 164 38 Q 167 39 169 41 Q 173 43 172 48 Q 171 51 171 55 L 171 61 Q 171 63 171 65 Q 170 85 170 91 Q 171 101 166 108 Q 164 110 162 108 Q 156 99 157 93 Q 160 78 160 63" fill="#000080" clip-path="url(#clip-mask-8)" /><path d="M 128 80 L 128 78 Q 127 76 129 76 Q 140 74 144 77 Q 147 80 147 82 Q 147 86 145 86 Q 140 88 130 81" fill="#000080" clip-path="url(#clip-mask-9)" /><path d="M 126 94 L 126 93 Q 125 91 127 91 Q 138 91 142 94 Q 144 97 144 100 Q 144 103 142 104 Q 137 104 127 96" fill="#000080" clip-path="url(#clip-mask-10)" /><path d="M 179 72 L 179 71 Q 178 69 180 69 Q 193 67 198 71 Q 201 74 201 76 Q 201 80 199 80 Q 195 81 181 74" fill="#000080" clip-path="url(#clip-mask-11)" /><path d="M 179 90 L 179 89 Q 178 86 180 86 Q 183 86 191 88 Q 195 88 198 91 Q 200 94 200 97 Q 200 100 198 101 Q 193 101 180 92" fill="#000080" clip-path="url(#clip-mask-12)" /><path d="M 145 129 Q 132 131 122 134 L 113 136 Q 110 136 107 137 Q 99 138 93 134 Q 89 131 95 130 Q 103 129 111 128 L 122 126 Q 130 124 146 120 L 158 118 Q 161 117 165 120 Q 170 122 169 124 Q 167 126 166 126 Q 160 126 155 128" fill="#000080" clip-path="url(#clip-mask-13)" /><path d="M 122 134 Q 122 146 122 148 L 122 153 Q 122 155 122 156 Q 122 159 121 160 Q 119 161 118 159 Q 117 158 113 136 L 111 128 Q 110 123 107 117 Q 104 115 106 113 Q 110 111 113 112 Q 119 114 121 116 Q 124 118 123 121 Q 122 123 122 126" fill="#000080" clip-path="url(#clip-mask-14)" /><path d="M 143 142 Q 144 135 145 129 L 146 120 Q 146 110 145 107 Q 144 105 145 104 Q 147 103 149 103 Q 153 105 158 109 Q 161 111 160 113 Q 159 115 158 118 L 155 128 Q 152 134 151 142" fill="#000080" clip-path="url(#clip-mask-15)" /><path d="M 126 153 Q 124 153 123 153 Q 123 153 122 153 L 122 148 Q 131 146 143 142 L 151 142 Q 151 142 152 142 Q 157 145 157 146 Q 157 148 156 148 Q 141 150 133 152" fill="#000080" clip-path="url(#clip-mask-16)" /><path d="M 110 195 Q 110 197 110 199 Q 109 202 105 198 Q 103 196 102 191 Q 99 178 94 171 Q 92 167 93 166 Q 94 166 96 166 Q 100 166 103 167 L 107 173 Q 107 177 110 189" fill="#000080" clip-path="url(#clip-mask-17)" /><path d="M 128 169 Q 123 170 107 173 L 103 167 Q 116 165 128 164 L 139 161 Q 146 159 154 156 Q 158 155 161 156 Q 170 161 173 164 L 156 166 Q 153 164 138 167" fill="#000080" clip-path="url(#clip-mask-18)" /><path d="M 153 180 Q 155 175 156 170 Q 157 167 156 166 L 173 164 Q 175 167 172 170 Q 167 173 163 182" fill="#000080" clip-path="url(#clip-mask-19)" /><path d="M 127 193 Q 120 194 116 195 Q 113 196 111 196 Q 111 195 110 195 L 110 189 Q 118 188 127 186 L 137 184 Q 144 182 152 180 Q 152 180 153 180 L 163 182 Q 168 185 168 186 Q 167 188 165 189 Q 149 190 137 192" fill="#000080" clip-path="url(#clip-mask-20)" /><path d="M 125 214 Q 125 214 124 214 Q 111 218 92 224 Q 84 227 74 221 Q 71 219 72 216 Q 72 214 75 214 Q 86 213 126 205 L 137 203 Q 156 197 163 200 Q 167 202 167 205 Q 167 207 163 207 Q 149 210 137 212" fill="#000080" clip-path="url(#clip-mask-21)" /><path d="M 138 240 L 135 246 Q 134 248 132 248 Q 131 247 128 244 Q 122 235 124 226 Q 125 224 125 219 Q 125 216 125 214 L 126 205 Q 127 200 127 193 L 127 186 Q 128 177 128 169 L 128 164 Q 127 157 126 153 L 133 152 Q 136 153 138 156 Q 139 157 139 160 Q 139 160 139 161 L 138 167 Q 138 174 137 184 Q 137 184 137 184 L 137 192 Q 137 197 137 203 L 137 212" fill="#000080" clip-path="url(#clip-mask-22)" /><path d="M 183 194 L 180 203 Q 178 207 177 211 Q 164 235 158 237 Q 156 238 156 235 Q 156 234 157 233 Q 169 210 174 192 Q 179 168 178 139 Q 177 124 174 120 Q 172 117 175 116 Q 177 114 181 116 Q 185 118 188 119 L 191 127 Q 190 133 190 150 L 189 157 Q 188 166 187 177 L 185 183" fill="#000080" clip-path="url(#clip-mask-23)" /><path d="M 188 119 Q 201 117 207 114 Q 218 108 223 110 Q 232 113 238 118 Q 241 120 238 125 L 219 123 Q 217 120 212 122 Q 197 126 191 127" fill="#000080" clip-path="url(#clip-mask-24)" /><path d="M 238 125 Q 232 135 239 214 Q 241 234 231 247 Q 229 250 227 249 Q 223 248 219 244 L 221 225 Q 223 221 223 214 Q 224 183 221 131 Q 220 125 219 123" fill="#000080" clip-path="url(#clip-mask-25)" /><path d="M 219 244 Q 211 235 196 224 Q 196 222 201 223 Q 208 224 214 225 Q 220 226 221 225" fill="#000080" clip-path="url(#clip-mask-26)" /><path d="M 190 150 Q 190 149 191 149 Q 200 146 205 146 Q 210 147 213 150 Q 215 152 210 153 Q 201 155 189 157" fill="#000080" clip-path="url(#clip-mask-27)" /><path d="M 187 177 Q 196 171 206 172 Q 212 173 215 177 Q 217 180 211 181 Q 201 181 188 183 Q 186 183 185 183" fill="#000080" clip-path="url(#clip-mask-28)" /><rect x="24" y="89" width="69" height="25" id="rect-1" fill="transparent" stroke="#000000"><animate attributeName="x" from="-45" to="24" dur="0.256" begin="0; animate28.end + 1s" id="animate1" fill="freeze"/></rect><rect x="51" y="43" width="28" height="111" id="rect-2" fill="transparent" stroke="#000000"><set attributeName="y" to="-68" begin="0; animate28.end + 1s" /><animate attributeName="y" from="-68" to="43" dur="0.411" begin="animate1.end + 0.5" id="animate2" fill="freeze"/></rect><rect x="21" y="138" width="73" height="44" id="rect-3" fill="transparent" stroke="#000000"><set attributeName="x" to="-52" begin="0; animate28.end + 1s" /><animate attributeName="x" from="-52" to="21" dur="0.270" begin="animate2.end + 0.5" id="animate3" fill="freeze"/></rect><rect x="128" y="19" width="79" height="23" id="rect-4" fill="transparent" stroke="#000000"><set attributeName="x" to="49" begin="0; animate28.end + 1s" /><animate attributeName="x" from="49" to="128" dur="0.293" begin="animate3.end + 0.5" id="animate4" fill="freeze"/></rect><rect x="98" y="53" width="20" height="46" id="rect-5" fill="transparent" stroke="#000000"><set attributeName="y" to="7" begin="0; animate28.end + 1s" /><animate attributeName="y" from="7" to="53" dur="0.170" begin="animate4.end + 0.5" id="animate5" fill="freeze"/></rect><rect x="117" y="44" width="131" height="28" id="rect-6" fill="transparent" stroke="#000000"><set attributeName="x" to="-14" begin="0; animate28.end + 1s" /><animate attributeName="x" from="-14" to="117" dur="0.485" begin="animate5.end + 0.5" id="animate6" fill="freeze"/></rect><rect x="210" y="55" width="38" height="26" id="rect-7" fill="transparent" stroke="#000000"><set attributeName="y" to="29" begin="0; animate28.end + 1s" /><animate attributeName="y" from="29" to="55" dur="0.096" begin="animate6.end" id="animate7" fill="freeze"/></rect><rect x="156" y="38" width="17" height="72" id="rect-8" fill="transparent" stroke="#000000"><set attributeName="y" to="-34" begin="0; animate28.end + 1s" /><animate attributeName="y" from="-34" to="38" dur="0.267" begin="animate7.end + 0.5" id="animate8" fill="freeze"/></rect><rect x="127" y="74" width="20" height="14" id="rect-9" fill="transparent" stroke="#000000"><set attributeName="x" to="107" begin="0; animate28.end + 1s" /><animate attributeName="x" from="107" to="127" dur="0.074" begin="animate8.end + 0.5" id="animate9" fill="freeze"/></rect><rect x="125" y="91" width="19" height="13" id="rect-10" fill="transparent" stroke="#000000"><set attributeName="x" to="106" begin="0; animate28.end + 1s" /><animate attributeName="x" from="106" to="125" dur="0.070" begin="animate9.end + 0.5" id="animate10" fill="freeze"/></rect><rect x="178" y="67" width="23" height="14" id="rect-11" fill="transparent" stroke="#000000"><set attributeName="x" to="155" begin="0; animate28.end + 1s" /><animate attributeName="x" from="155" to="178" dur="0.085" begin="animate10.end + 0.5" id="animate11" fill="freeze"/></rect><rect x="178" y="86" width="22" height="15" id="rect-12" fill="transparent" stroke="#000000"><set attributeName="x" to="156" begin="0; animate28.end + 1s" /><animate attributeName="x" from="156" to="178" dur="0.081" begin="animate11.end + 0.5" id="animate12" fill="freeze"/></rect><rect x="89" y="117" width="81" height="21" id="rect-13" fill="transparent" stroke="#000000"><set attributeName="x" to="8" begin="0; animate28.end + 1s" /><animate attributeName="x" from="8" to="89" dur="0.300" begin="animate12.end + 0.5" id="animate13" fill="freeze"/></rect><rect x="104" y="111" width="20" height="50" id="rect-14" fill="transparent" stroke="#000000"><set attributeName="y" to="61" begin="0; animate28.end + 1s" /><animate attributeName="y" from="61" to="111" dur="0.185" begin="animate13.end + 0.5" id="animate14" fill="freeze"/></rect><rect x="143" y="103" width="18" height="39" id="rect-15" fill="transparent" stroke="#000000"><set attributeName="y" to="64" begin="0; animate28.end + 1s" /><animate attributeName="y" from="64" to="103" dur="0.144" begin="animate14.end + 0.5" id="animate15" fill="freeze"/></rect><rect x="122" y="142" width="35" height="11" id="rect-16" fill="transparent" stroke="#000000"><set attributeName="x" to="87" begin="0; animate28.end + 1s" /><animate attributeName="x" from="87" to="122" dur="0.130" begin="animate15.end + 0.5" id="animate16" fill="freeze"/></rect><rect x="92" y="166" width="18" height="36" id="rect-17" fill="transparent" stroke="#000000"><set attributeName="y" to="130" begin="0; animate28.end + 1s" /><animate attributeName="y" from="130" to="166" dur="0.133" begin="animate16.end + 0.5" id="animate17" fill="freeze"/></rect><rect x="103" y="155" width="70" height="18" id="rect-18" fill="transparent" stroke="#000000"><set attributeName="x" to="33" begin="0; animate28.end + 1s" /><animate attributeName="x" from="33" to="103" dur="0.259" begin="animate17.end + 0.5" id="animate18" fill="freeze"/></rect><rect x="153" y="164" width="22" height="18" id="rect-19" fill="transparent" stroke="#000000"><set attributeName="y" to="146" begin="0; animate28.end + 1s" /><animate attributeName="y" from="146" to="164" dur="0.067" begin="animate18.end" id="animate19" fill="freeze"/></rect><rect x="110" y="180" width="58" height="16" id="rect-20" fill="transparent" stroke="#000000"><set attributeName="x" to="52" begin="0; animate28.end + 1s" /><animate attributeName="x" from="52" to="110" dur="0.215" begin="animate19.end + 0.5" id="animate20" fill="freeze"/></rect><rect x="71" y="197" width="96" height="30" id="rect-21" fill="transparent" stroke="#000000"><set attributeName="x" to="-25" begin="0; animate28.end + 1s" /><animate attributeName="x" from="-25" to="71" dur="0.356" begin="animate20.end + 0.5" id="animate21" fill="freeze"/></rect><rect x="122" y="152" width="17" height="96" id="rect-22" fill="transparent" stroke="#000000"><set attributeName="y" to="56" begin="0; animate28.end + 1s" /><animate attributeName="y" from="56" to="152" dur="0.356" begin="animate21.end + 0.5" id="animate22" fill="freeze"/></rect><rect x="156" y="114" width="35" height="124" id="rect-23" fill="transparent" stroke="#000000"><set attributeName="y" to="-10" begin="0; animate28.end + 1s" /><animate attributeName="y" from="-10" to="114" dur="0.459" begin="animate22.end + 0.5" id="animate23" fill="freeze"/></rect><rect x="188" y="108" width="53" height="19" id="rect-24" fill="transparent" stroke="#000000"><set attributeName="x" to="135" begin="0; animate28.end + 1s" /><animate attributeName="x" from="135" to="188" dur="0.196" begin="animate23.end + 0.5" id="animate24" fill="freeze"/></rect><rect x="219" y="123" width="22" height="127" id="rect-25" fill="transparent" stroke="#000000"><set attributeName="y" to="-4" begin="0; animate28.end + 1s" /><animate attributeName="y" from="-4" to="123" dur="0.470" begin="animate24.end" id="animate25" fill="freeze"/></rect><rect x="196" y="222" width="25" height="22" id="rect-26" fill="transparent" stroke="#000000"><set attributeName="x" to="221" begin="0; animate28.end + 1s" /><animate attributeName="x" from="221" to="196" dur="0.093" begin="animate25.end" id="animate26" fill="freeze"/></rect><rect x="189" y="146" width="26" height="11" id="rect-27" fill="transparent" stroke="#000000"><set attributeName="x" to="163" begin="0; animate28.end + 1s" /><animate attributeName="x" from="163" to="189" dur="0.096" begin="animate26.end + 0.5" id="animate27" fill="freeze"/></rect><rect x="185" y="171" width="32" height="12" id="rect-28" fill="transparent" stroke="#000000"><set attributeName="x" to="153" begin="0; animate28.end + 1s" /><animate attributeName="x" from="153" to="185" dur="0.119" begin="animate27.end + 0.5" id="animate28" fill="freeze"/></rect></svg>