<svg xmlns="http://www.w3.org/2000/svg" xmlns:xlink="http://www.w3.org/1999/xlink" width="270" height="270"><defs><clipPath id="clip-mask-1"><use xlink:href="#rect-1" /></clipPath><clipPath id="clip-mask-2"><use xlink:href="#rect-2" /></clipPath><clipPath id="clip-mask-3"><use xlink:href="#rect-3" /></clipPath><clipPath id="clip-mask-4"><use xlink:href="#rect-4" /></clipPath><clipPath id="clip-mask-5"><use xlink:href="#rect-5" /></clipPath><clipPath id="clip-mask-6"><use xlink:href="#rect-6" /></clipPath><clipPath id="clip-mask-7"><use xlink:href="#rect-7" /></clipPath><clipPath id="clip-mask-8"><use xlink:href="#rect-8" /></clipPath><clipPath id="clip-mask-9"><use xlink:href="#rect-9" /></clipPath><clipPath id="clip-mask-10"><use xlink:href="#rect-10" /></clipPath><clipPath id="clip-mask-11"><use xlink:href="#rect-11" /></clipPath><clipPath id="clip-mask-12"><use xlink:href="#rect-12" /></clipPath><clipPath id="clip-mask-13"><use xlink:href="#rect-13" /></clipPath><clipPath id="clip-mask-14"><use xlink:href="#rect-14" /></clipPath><clipPath id="clip-mask-15"><use xlink:href="#rect-15" /></clipPath><clipPath id="clip-mask-16"><use xlink:href="#rect-16" /></clipPath><clipPath id="clip-mask-17"><use xlink:href="#rect-17" /></clipPath></defs><path d="M 0 0 L 270 270 M 270 0 L 0 270 M 135 0 L 135 270 M 0 135 L 270 135" stroke="#CCCCCC" /><path d="M 114 62 L 113 67 Q 112 71 108 68 Q 103 63 102 52 L 100 44 Q 98 33 91 25 Q 87 20 92 18 Q 98 16 108 22 Q 113 24 113 28 Q 113 34 113 42 L 113 49" fill="#CCCCCC"/><path d="M 102 52 Q 85 57 68 62 Q 64 64 60 61 Q 53 58 49 54 Q 47 52 48 50 Q 48 49 51 49 Q 56 48 66 49 Q 85 45 100 44 L 113 42 Q 118 40 123 40 Q 127 40 127 42 Q 127 44 126 45 Q 121 48 117 48 Q 115 48 113 49" fill="#CCCCCC"/><path d="M 151 63 L 149 65 Q 145 66 145 63 Q 145 62 150 42 L 151 35 Q 155 19 152 13 Q 150 10 153 9 Q 158 7 162 9 Q 170 14 174 19 Q 176 22 172 25 Q 169 30 167 34 L 161 46" fill="#CCCCCC"/><path d="M 150 42 Q 148 41 147 40 Q 142 36 149 35 Q 150 35 151 35 L 167 34 Q 176 32 184 32 Q 209 26 221 37 Q 224 41 223 43 Q 222 45 218 45 Q 196 41 171 45 Q 165 46 161 46" fill="#CCCCCC"/><path d="M 90 119 L 90 120 Q 89 124 84 120 Q 79 117 77 111 Q 68 93 59 83 Q 56 79 57 78 Q 58 76 61 76 Q 70 75 73 76 L 73 76 L 78 85 Q 80 92 87 107 Q 88 109 88 110 L 90 118" fill="#CCCCCC"/><path d="M 177 73 Q 171 69 149 73 L 137 75 Q 120 76 107 79 L 101 80 Q 87 82 78 85 Q 78 85 78 85 L 73 76 Q 86 75 105 72 Q 146 65 159 65 Q 181 61 185 64 Q 197 72 201 76" fill="#CCCCCC"/><path d="M 167 104 Q 168 102 169 101 Q 171 97 177 79 Q 179 74 177 73 L 201 76 Q 204 81 199 84 Q 190 90 184 103 Q 175 113 171 113 Q 168 113 167 110" fill="#CCCCCC"/><path d="M 110 108 Q 104 102 102 85 Q 102 83 101 81 Q 101 80 101 80 L 107 79 Q 109 82 110 86 Q 116 99 116 106 Q 116 107 116 107" fill="#CCCCCC"/><path d="M 149 73 Q 152 75 153 78 Q 155 80 152 83 Q 150 86 148 89 Q 143 99 140 103 L 133 105 Q 133 102 135 99 Q 139 79 137 75" fill="#CCCCCC"/><path d="M 166 102 L 167 104 L 167 110 Q 117 113 94 118 Q 91 118 90 118 L 88 110 Q 98 109 110 108 L 116 107 Q 124 106 133 105 L 140 103 Q 160 99 164 101" fill="#CCCCCC"/><path d="M 51 146 Q 38 176 38 177 Q 34 184 28 177 Q 20 158 28 153 Q 41 138 40 128 Q 40 121 46 125 Q 49 127 52 134 Q 52 135 53 135" fill="#CCCCCC"/><path d="M 106 135 Q 82 139 60 146 Q 55 147 51 146 L 53 135 Q 150 122 217 114 Q 224 114 229 119 Q 249 136 249 140 L 210 126 Q 193 123 117 134" fill="#CCCCCC"/><path d="M 249 140 Q 249 143 237 143 Q 223 145 205 152 Q 200 154 197 153 Q 196 152 199 147 Q 211 129 211 128 Q 212 127 210 126" fill="#CCCCCC"/><path d="M 115 158 Q 105 170 98 178 Q 96 178 96 179 Q 70 202 57 202 Q 55 201 57 200 Q 75 185 82 178 Q 82 177 83 177 Q 107 150 106 135 L 117 134 Q 125 138 126 143 Q 126 146 125 147 Q 119 153 118 154" fill="#CCCCCC"/><path d="M 150 161 Q 149 158 128 161 Q 119 162 115 158 L 118 154 Q 141 152 151 148 Q 158 146 162 147 Q 177 156 178 159" fill="#CCCCCC"/><path d="M 139 190 L 144 179 Q 151 165 150 161 L 178 159 Q 180 163 176 165 Q 170 169 162 182 Q 153 197 142 209 Q 97 262 65 262 Q 59 261 66 258 Q 97 238 117 216 Q 120 212 123 208 L 129 202" fill="#CCCCCC"/><path d="M 123 208 Q 120 208 118 205 Q 112 198 105 192 Q 99 187 99 184 Q 99 181 100 180 Q 103 179 120 187 Q 129 192 129 202" fill="#CCCCCC"/><path d="M 114 62 L 113 67 Q 112 71 108 68 Q 103 63 102 52 L 100 44 Q 98 33 91 25 Q 87 20 92 18 Q 98 16 108 22 Q 113 24 113 28 Q 113 34 113 42 L 113 49" fill="#000080" clip-path="url(#clip-mask-1)" /><path d="M 102 52 Q 85 57 68 62 Q 64 64 60 61 Q 53 58 49 54 Q 47 52 48 50 Q 48 49 51 49 Q 56 48 66 49 Q 85 45 100 44 L 113 42 Q 118 40 123 40 Q 127 40 127 42 Q 127 44 126 45 Q 121 48 117 48 Q 115 48 113 49" fill="#000080" clip-path="url(#clip-mask-2)" /><path d="M 151 63 L 149 65 Q 145 66 145 63 Q 145 62 150 42 L 151 35 Q 155 19 152 13 Q 150 10 153 9 Q 158 7 162 9 Q 170 14 174 19 Q 176 22 172 25 Q 169 30 167 34 L 161 46" fill="#000080" clip-path="url(#clip-mask-3)" /><path d="M 150 42 Q 148 41 147 40 Q 142 36 149 35 Q 150 35 151 35 L 167 34 Q 176 32 184 32 Q 209 26 221 37 Q 224 41 223 43 Q 222 45 218 45 Q 196 41 171 45 Q 165 46 161 46" fill="#000080" clip-path="url(#clip-mask-4)" /><path d="M 90 119 L 90 120 Q 89 124 84 120 Q 79 117 77 111 Q 68 93 59 83 Q 56 79 57 78 Q 58 76 61 76 Q 70 75 73 76 L 73 76 L 78 85 Q 80 92 87 107 Q 88 109 88 110 L 90 118" fill="#000080" clip-path="url(#clip-mask-5)" /><path d="M 177 73 Q 171 69 149 73 L 137 75 Q 120 76 107 79 L 101 80 Q 87 82 78 85 Q 78 85 78 85 L 73 76 Q 86 75 105 72 Q 146 65 159 65 Q 181 61 185 64 Q 197 72 201 76" fill="#000080" clip-path="url(#clip-mask-6)" /><path d="M 167 104 Q 168 102 169 101 Q 171 97 177 79 Q 179 74 177 73 L 201 76 Q 204 81 199 84 Q 190 90 184 103 Q 175 113 171 113 Q 168 113 167 110" fill="#000080" clip-path="url(#clip-mask-7)" /><path d="M 110 108 Q 104 102 102 85 Q 102 83 101 81 Q 101 80 101 80 L 107 79 Q 109 82 110 86 Q 116 99 116 106 Q 116 107 116 107" fill="#000080" clip-path="url(#clip-mask-8)" /><path d="M 149 73 Q 152 75 153 78 Q 155 80 152 83 Q 150 86 148 89 Q 143 99 140 103 L 133 105 Q 133 102 135 99 Q 139 79 137 75" fill="#000080" clip-path="url(#clip-mask-9)" /><path d="M 166 102 L 167 104 L 167 110 Q 117 113 94 118 Q 91 118 90 118 L 88 110 Q 98 109 110 108 L 116 107 Q 124 106 133 105 L 140 103 Q 160 99 164 101" fill="#000080" clip-path="url(#clip-mask-10)" /><path d="M 51 146 Q 38 176 38 177 Q 34 184 28 177 Q 20 158 28 153 Q 41 138 40 128 Q 40 121 46 125 Q 49 127 52 134 Q 52 135 53 135" fill="#000080" clip-path="url(#clip-mask-11)" /><path d="M 106 135 Q 82 139 60 146 Q 55 147 51 146 L 53 135 Q 150 122 217 114 Q 224 114 229 119 Q 249 136 249 140 L 210 126 Q 193 123 117 134" fill="#000080" clip-path="url(#clip-mask-12)" /><path d="M 249 140 Q 249 143 237 143 Q 223 145 205 152 Q 200 154 197 153 Q 196 152 199 147 Q 211 129 211 128 Q 212 127 210 126" fill="#000080" clip-path="url(#clip-mask-13)" /><path d="M 115 158 Q 105 170 98 178 Q 96 178 96 179 Q 70 202 57 202 Q 55 201 57 200 Q 75 185 82 178 Q 82 177 83 177 Q 107 150 106 135 L 117 134 Q 125 138 126 143 Q 126 146 125 147 Q 119 153 118 154" fill="#0000ff" clip-path="url(#clip-mask-14)" /><path d="M 150 161 Q 149 158 128 161 Q 119 162 115 158 L 118 154 Q 141 152 151 148 Q 158 146 162 147 Q 177 156 178 159" fill="#0000ff" clip-path="url(#clip-mask-15)" /><path d="M 139 190 L 144 179 Q 151 165 150 161 L 178 159 Q 180 163 176 165 Q 170 169 162 182 Q 153 197 142 209 Q 97 262 65 262 Q 59 261 66 258 Q 97 238 117 216 Q 120 212 123 208 L 129 202" fill="#0000ff" clip-path="url(#clip-mask-16)" /><path d="M 123 208 Q 120 208 118 205 Q 112 198 105 192 Q 99 187 99 184 Q 99 181 100 180 Q 103 179 120 187 Q 129 192 129 202" fill="#0000ff" clip-path="url(#clip-mask-17)" /><rect x="87" y="16" width="27" height="55" id="rect-1" fill="transparent" stroke="#000000"><animate attributeName="y" from="-39" to="16" dur="0.204" begin="0; animate17.end + 1s" id="animate1" fill="freeze"/></rect><rect x="47" y="40" width="80" height="24" id="rect-2" fill="transparent" stroke="#000000"><set attributeName="x" to="-33" begin="0; animate17.end + 1s" /><animate attributeName="x" from="-33" to="47" dur="0.296" begin="animate1.end + 0.5" id="animate2" fill="freeze"/></rect><rect x="145" y="7" width="31" height="59" id="rect-3" fill="transparent" stroke="#000000"><set attributeName="y" to="-52" begin="0; animate17.end + 1s" /><animate attributeName="y" from="-52" to="7" dur="0.219" begin="animate2.end + 0.5" id="animate3" fill="freeze"/></rect><rect x="142" y="26" width="82" height="20" id="rect-4" fill="transparent" stroke="#000000"><set attributeName="x" to="60" begin="0; animate17.end + 1s" /><animate attributeName="x" from="60" to="142" dur="0.304" begin="animate3.end + 0.5" id="animate4" fill="freeze"/></rect><rect x="56" y="75" width="34" height="49" id="rect-5" fill="transparent" stroke="#000000"><set attributeName="y" to="26" begin="0; animate17.end + 1s" /><animate attributeName="y" from="26" to="75" dur="0.181" begin="animate4.end + 0.5" id="animate5" fill="freeze"/></rect><rect x="73" y="61" width="128" height="24" id="rect-6" fill="transparent" stroke="#000000"><set attributeName="x" to="-55" begin="0; animate17.end + 1s" /><animate attributeName="x" from="-55" to="73" dur="0.474" begin="animate5.end + 0.5" id="animate6" fill="freeze"/></rect><rect x="167" y="73" width="37" height="40" id="rect-7" fill="transparent" stroke="#000000"><set attributeName="y" to="33" begin="0; animate17.end + 1s" /><animate attributeName="y" from="33" to="73" dur="0.148" begin="animate6.end" id="animate7" fill="freeze"/></rect><rect x="101" y="79" width="15" height="29" id="rect-8" fill="transparent" stroke="#000000"><set attributeName="y" to="50" begin="0; animate17.end + 1s" /><animate attributeName="y" from="50" to="79" dur="0.107" begin="animate7.end + 0.5" id="animate8" fill="freeze"/></rect><rect x="133" y="73" width="22" height="32" id="rect-9" fill="transparent" stroke="#000000"><set attributeName="y" to="41" begin="0; animate17.end + 1s" /><animate attributeName="y" from="41" to="73" dur="0.119" begin="animate8.end + 0.5" id="animate9" fill="freeze"/></rect><rect x="88" y="99" width="79" height="19" id="rect-10" fill="transparent" stroke="#000000"><set attributeName="x" to="9" begin="0; animate17.end + 1s" /><animate attributeName="x" from="9" to="88" dur="0.293" begin="animate9.end + 0.5" id="animate10" fill="freeze"/></rect><rect x="20" y="121" width="33" height="63" id="rect-11" fill="transparent" stroke="#000000"><set attributeName="y" to="58" begin="0; animate17.end + 1s" /><animate attributeName="y" from="58" to="121" dur="0.233" begin="animate10.end + 0.5" id="animate11" fill="freeze"/></rect><rect x="51" y="114" width="198" height="33" id="rect-12" fill="transparent" stroke="#000000"><set attributeName="x" to="-147" begin="0; animate17.end + 1s" /><animate attributeName="x" from="-147" to="51" dur="0.733" begin="animate11.end + 0.5" id="animate12" fill="freeze"/></rect><rect x="196" y="126" width="53" height="28" id="rect-13" fill="transparent" stroke="#000000"><set attributeName="y" to="98" begin="0; animate17.end + 1s" /><animate attributeName="y" from="98" to="126" dur="0.104" begin="animate12.end" id="animate13" fill="freeze"/></rect><rect x="55" y="134" width="71" height="68" id="rect-14" fill="transparent" stroke="#000000"><set attributeName="y" to="66" begin="0; animate17.end + 1s" /><animate attributeName="y" from="66" to="134" dur="0.252" begin="animate13.end + 0.5" id="animate14" fill="freeze"/></rect><rect x="115" y="146" width="63" height="16" id="rect-15" fill="transparent" stroke="#000000"><set attributeName="x" to="52" begin="0; animate17.end + 1s" /><animate attributeName="x" from="52" to="115" dur="0.233" begin="animate14.end + 0.5" id="animate15" fill="freeze"/></rect><rect x="59" y="159" width="121" height="103" id="rect-16" fill="transparent" stroke="#000000"><set attributeName="y" to="56" begin="0; animate17.end + 1s" /><animate attributeName="y" from="56" to="159" dur="0.381" begin="animate15.end" id="animate16" fill="freeze"/></rect><rect x="99" y="179" width="30" height="29" id="rect-17" fill="transparent" stroke="#000000"><set attributeName="x" to="69" begin="0; animate17.end + 1s" /><animate attributeName="x" from="69" to="99" dur="0.111" begin="animate16.end + 0.5" id="animate17" fill="freeze"/></rect></svg>