<svg xmlns="http://www.w3.org/2000/svg" xmlns:xlink="http://www.w3.org/1999/xlink" width="270" height="270"><defs><clipPath id="clip-mask-1"><use xlink:href="#rect-1" /></clipPath><clipPath id="clip-mask-2"><use xlink:href="#rect-2" /></clipPath><clipPath id="clip-mask-3"><use xlink:href="#rect-3" /></clipPath><clipPath id="clip-mask-4"><use xlink:href="#rect-4" /></clipPath></defs><path d="M 0 0 L 270 270 M 270 0 L 0 270 M 135 0 L 135 270 M 0 135 L 270 135" stroke="#CCCCCC" /><path d="M 102 64 Q 87 66 76 60 Q 68 55 79 53 Q 106 51 138 43 Q 165 35 173 37 Q 182 39 184 43 Q 185 45 182 47 Q 180 49 166 52 Q 143 56 121 61" fill="#CCCCCC"/><path d="M 106 125 Q 84 128 65 134 Q 60 135 54 134 Q 49 132 45 129 Q 40 124 46 123 Q 78 118 108 114 L 124 111 Q 162 104 184 99 Q 194 97 210 108 Q 214 111 213 115 Q 211 118 193 118 Q 150 118 122 123" fill="#CCCCCC"/><path d="M 108 170 L 99 182 Q 90 194 71 207 Q 42 223 28 223 Q 23 222 25 220 Q 25 219 29 217 Q 57 203 70 192 Q 73 189 77 186 Q 106 157 106 125 L 108 114 Q 109 99 109 81 Q 109 72 102 64 L 121 61 Q 127 63 130 67 Q 133 69 131 73 Q 127 81 125 103 Q 124 107 124 111 L 122 123 Q 121 127 120 132 L 117 143" fill="#CCCCCC"/><path d="M 120 132 Q 144 163 178 191 Q 191 203 237 220 Q 246 223 246 226 Q 246 228 238 228 Q 220 231 199 234 Q 192 234 184 226 Q 167 209 144 179 Q 124 153 117 143" fill="#CCCCCC"/><path d="M 102 64 Q 87 66 76 60 Q 68 55 79 53 Q 106 51 138 43 Q 165 35 173 37 Q 182 39 184 43 Q 185 45 182 47 Q 180 49 166 52 Q 143 56 121 61" fill="#000080" clip-path="url(#clip-mask-1)" /><path d="M 106 125 Q 84 128 65 134 Q 60 135 54 134 Q 49 132 45 129 Q 40 124 46 123 Q 78 118 108 114 L 124 111 Q 162 104 184 99 Q 194 97 210 108 Q 214 111 213 115 Q 211 118 193 118 Q 150 118 122 123" fill="#0000ff" clip-path="url(#clip-mask-2)" /><path d="M 108 170 L 99 182 Q 90 194 71 207 Q 42 223 28 223 Q 23 222 25 220 Q 25 219 29 217 Q 57 203 70 192 Q 73 189 77 186 Q 106 157 106 125 L 108 114 Q 109 99 109 81 Q 109 72 102 64 L 121 61 Q 127 63 130 67 Q 133 69 131 73 Q 127 81 125 103 Q 124 107 124 111 L 122 123 Q 121 127 120 132 L 117 143" fill="#0000ff" clip-path="url(#clip-mask-3)" /><path d="M 120 132 Q 144 163 178 191 Q 191 203 237 220 Q 246 223 246 226 Q 246 228 238 228 Q 220 231 199 234 Q 192 234 184 226 Q 167 209 144 179 Q 124 153 117 143" fill="#0000ff" clip-path="url(#clip-mask-4)" /><rect x="68" y="35" width="117" height="31" id="rect-1" fill="transparent" stroke="#000000"><animate attributeName="x" from="-49" to="68" dur="0.433" begin="0; animate4.end + 1s" id="animate1" fill="freeze"/></rect><rect x="40" y="97" width="174" height="38" id="rect-2" fill="transparent" stroke="#000000"><set attributeName="x" to="-134" begin="0; animate4.end + 1s" /><animate attributeName="x" from="-134" to="40" dur="0.644" begin="animate1.end + 0.5" id="animate2" fill="freeze"/></rect><rect x="23" y="61" width="110" height="162" id="rect-3" fill="transparent" stroke="#000000"><set attributeName="y" to="-101" begin="0; animate4.end + 1s" /><animate attributeName="y" from="-101" to="61" dur="0.600" begin="animate2.end + 0.5" id="animate3" fill="freeze"/></rect><rect x="117" y="132" width="129" height="102" id="rect-4" fill="transparent" stroke="#000000"><set attributeName="x" to="-12" begin="0; animate4.end + 1s" /><animate attributeName="x" from="-12" to="117" dur="0.478" begin="animate3.end + 0.5" id="animate4" fill="freeze"/></rect></svg>