<svg xmlns="http://www.w3.org/2000/svg" xmlns:xlink="http://www.w3.org/1999/xlink" width="270" height="270"><defs><clipPath id="clip-mask-1"><use xlink:href="#rect-1" /></clipPath><clipPath id="clip-mask-2"><use xlink:href="#rect-2" /></clipPath><clipPath id="clip-mask-3"><use xlink:href="#rect-3" /></clipPath><clipPath id="clip-mask-4"><use xlink:href="#rect-4" /></clipPath><clipPath id="clip-mask-5"><use xlink:href="#rect-5" /></clipPath><clipPath id="clip-mask-6"><use xlink:href="#rect-6" /></clipPath><clipPath id="clip-mask-7"><use xlink:href="#rect-7" /></clipPath><clipPath id="clip-mask-8"><use xlink:href="#rect-8" /></clipPath><clipPath id="clip-mask-9"><use xlink:href="#rect-9" /></clipPath><clipPath id="clip-mask-10"><use xlink:href="#rect-10" /></clipPath><clipPath id="clip-mask-11"><use xlink:href="#rect-11" /></clipPath></defs><path d="M 0 0 L 270 270 M 270 0 L 0 270 M 135 0 L 135 270 M 0 135 L 270 135" stroke="#CCCCCC" /><path d="M 100 75 Q 95 75 92 76 Q 78 79 66 72 Q 60 67 69 66 Q 88 64 105 62 L 121 60 Q 121 60 123 59 Q 146 55 166 49 Q 174 46 182 48 Q 190 50 192 53 Q 193 56 190 58 Q 188 59 144 68 L 136 69 Q 126 71 115 72" fill="#CCCCCC"/><path d="M 90 115 Q 81 127 69 136 Q 50 153 27 163 Q 24 164 22 163 Q 20 163 22 160 Q 27 157 31 154 Q 77 116 100 75 L 105 62 Q 114 36 112 19 Q 111 15 115 14 Q 118 13 124 17 Q 133 21 135 25 Q 136 28 134 30 Q 126 44 121 60 L 115 72 Q 108 90 100 102 Q 97 105 95 108" fill="#CCCCCC"/><path d="M 144 68 Q 170 92 192 109 Q 203 117 245 130 Q 249 132 249 133 Q 249 134 246 135 Q 227 139 204 139 Q 190 136 137 70 Q 136 69 136 69" fill="#CCCCCC"/><path d="M 103 113 Q 103 113 103 113 Q 113 112 122 110 Q 130 108 137 105 Q 143 103 149 104 Q 155 105 157 108 Q 158 109 156 111 Q 155 112 149 114 Q 145 114 141 115 Q 112 122 106 120" fill="#CCCCCC"/><path d="M 95 187 Q 92 120 90 115 L 95 108 Q 99 110 103 113 L 106 120 Q 106 131 106 141 L 106 147 Q 106 155 106 164 L 106 170 Q 106 178 106 186" fill="#CCCCCC"/><path d="M 106 141 Q 140 132 145 133 Q 151 134 154 137 Q 156 140 150 141 Q 133 144 110 147 Q 107 147 106 147" fill="#CCCCCC"/><path d="M 106 164 Q 141 155 146 156 Q 152 158 155 161 Q 156 164 151 165 Q 134 167 110 170 Q 107 170 106 170" fill="#CCCCCC"/><path d="M 101 195 Q 74 197 50 203 Q 46 204 40 203 Q 36 201 33 198 Q 29 194 34 193 Q 66 190 95 187 L 106 186 Q 114 185 122 184 Q 165 178 191 174 Q 200 169 217 181 Q 221 185 219 188 Q 218 190 213 190 Q 139 190 115 193" fill="#CCCCCC"/><path d="M 76 254 Q 73 256 71 255 Q 68 253 65 248 Q 63 242 64 238 Q 64 235 71 233 Q 80 229 85 224 Q 101 209 101 195 L 115 193 Q 120 194 121 197 Q 123 199 120 202 Q 113 208 94 229 Q 93 230 93 230" fill="#CCCCCC"/><path d="M 160 228 Q 157 228 154 229 Q 93 244 76 254 L 93 230 Q 94 231 96 231 Q 127 226 156 222" fill="#CCCCCC"/><path d="M 152 216 L 147 210 Q 145 207 146 204 Q 147 201 149 202 Q 186 224 187 238 Q 189 250 185 253 Q 182 256 180 255 Q 179 254 160 228 L 156 222" fill="#CCCCCC"/><path d="M 100 75 Q 95 75 92 76 Q 78 79 66 72 Q 60 67 69 66 Q 88 64 105 62 L 121 60 Q 121 60 123 59 Q 146 55 166 49 Q 174 46 182 48 Q 190 50 192 53 Q 193 56 190 58 Q 188 59 144 68 L 136 69 Q 126 71 115 72" fill="#0000ff" clip-path="url(#clip-mask-1)" /><path d="M 90 115 Q 81 127 69 136 Q 50 153 27 163 Q 24 164 22 163 Q 20 163 22 160 Q 27 157 31 154 Q 77 116 100 75 L 105 62 Q 114 36 112 19 Q 111 15 115 14 Q 118 13 124 17 Q 133 21 135 25 Q 136 28 134 30 Q 126 44 121 60 L 115 72 Q 108 90 100 102 Q 97 105 95 108" fill="#0000ff" clip-path="url(#clip-mask-2)" /><path d="M 144 68 Q 170 92 192 109 Q 203 117 245 130 Q 249 132 249 133 Q 249 134 246 135 Q 227 139 204 139 Q 190 136 137 70 Q 136 69 136 69" fill="#0000ff" clip-path="url(#clip-mask-3)" /><path d="M 103 113 Q 103 113 103 113 Q 113 112 122 110 Q 130 108 137 105 Q 143 103 149 104 Q 155 105 157 108 Q 158 109 156 111 Q 155 112 149 114 Q 145 114 141 115 Q 112 122 106 120" fill="#000080" clip-path="url(#clip-mask-4)" /><path d="M 95 187 Q 92 120 90 115 L 95 108 Q 99 110 103 113 L 106 120 Q 106 131 106 141 L 106 147 Q 106 155 106 164 L 106 170 Q 106 178 106 186" fill="#000080" clip-path="url(#clip-mask-5)" /><path d="M 106 141 Q 140 132 145 133 Q 151 134 154 137 Q 156 140 150 141 Q 133 144 110 147 Q 107 147 106 147" fill="#000080" clip-path="url(#clip-mask-6)" /><path d="M 106 164 Q 141 155 146 156 Q 152 158 155 161 Q 156 164 151 165 Q 134 167 110 170 Q 107 170 106 170" fill="#000080" clip-path="url(#clip-mask-7)" /><path d="M 101 195 Q 74 197 50 203 Q 46 204 40 203 Q 36 201 33 198 Q 29 194 34 193 Q 66 190 95 187 L 106 186 Q 114 185 122 184 Q 165 178 191 174 Q 200 169 217 181 Q 221 185 219 188 Q 218 190 213 190 Q 139 190 115 193" fill="#000080" clip-path="url(#clip-mask-8)" /><path d="M 76 254 Q 73 256 71 255 Q 68 253 65 248 Q 63 242 64 238 Q 64 235 71 233 Q 80 229 85 224 Q 101 209 101 195 L 115 193 Q 120 194 121 197 Q 123 199 120 202 Q 113 208 94 229 Q 93 230 93 230" fill="#000080" clip-path="url(#clip-mask-9)" /><path d="M 160 228 Q 157 228 154 229 Q 93 244 76 254 L 93 230 Q 94 231 96 231 Q 127 226 156 222" fill="#000080" clip-path="url(#clip-mask-10)" /><path d="M 152 216 L 147 210 Q 145 207 146 204 Q 147 201 149 202 Q 186 224 187 238 Q 189 250 185 253 Q 182 256 180 255 Q 179 254 160 228 L 156 222" fill="#000080" clip-path="url(#clip-mask-11)" /><rect x="60" y="46" width="133" height="33" id="rect-1" fill="transparent" stroke="#000000"><animate attributeName="x" from="-73" to="60" dur="0.493" begin="0; animate11.end + 1s" id="animate1" fill="freeze"/></rect><rect x="20" y="13" width="116" height="151" id="rect-2" fill="transparent" stroke="#000000"><set attributeName="y" to="-138" begin="0; animate11.end + 1s" /><animate attributeName="y" from="-138" to="13" dur="0.559" begin="animate1.end + 0.5" id="animate2" fill="freeze"/></rect><rect x="136" y="68" width="113" height="71" id="rect-3" fill="transparent" stroke="#000000"><set attributeName="x" to="23" begin="0; animate11.end + 1s" /><animate attributeName="x" from="23" to="136" dur="0.419" begin="animate2.end + 0.5" id="animate3" fill="freeze"/></rect><rect x="103" y="103" width="55" height="19" id="rect-4" fill="transparent" stroke="#000000"><set attributeName="x" to="48" begin="0; animate11.end + 1s" /><animate attributeName="x" from="48" to="103" dur="0.204" begin="animate3.end + 0.5" id="animate4" fill="freeze"/></rect><rect x="90" y="108" width="16" height="79" id="rect-5" fill="transparent" stroke="#000000"><set attributeName="y" to="29" begin="0; animate11.end + 1s" /><animate attributeName="y" from="29" to="108" dur="0.293" begin="animate4.end + 0.5" id="animate5" fill="freeze"/></rect><rect x="106" y="132" width="50" height="15" id="rect-6" fill="transparent" stroke="#000000"><set attributeName="x" to="56" begin="0; animate11.end + 1s" /><animate attributeName="x" from="56" to="106" dur="0.185" begin="animate5.end + 0.5" id="animate6" fill="freeze"/></rect><rect x="106" y="155" width="50" height="15" id="rect-7" fill="transparent" stroke="#000000"><set attributeName="x" to="56" begin="0; animate11.end + 1s" /><animate attributeName="x" from="56" to="106" dur="0.185" begin="animate6.end + 0.5" id="animate7" fill="freeze"/></rect><rect x="29" y="169" width="192" height="35" id="rect-8" fill="transparent" stroke="#000000"><set attributeName="x" to="-163" begin="0; animate11.end + 1s" /><animate attributeName="x" from="-163" to="29" dur="0.711" begin="animate7.end + 0.5" id="animate8" fill="freeze"/></rect><rect x="63" y="193" width="60" height="63" id="rect-9" fill="transparent" stroke="#000000"><set attributeName="y" to="130" begin="0; animate11.end + 1s" /><animate attributeName="y" from="130" to="193" dur="0.233" begin="animate8.end + 0.5" id="animate9" fill="freeze"/></rect><rect x="76" y="222" width="84" height="32" id="rect-10" fill="transparent" stroke="#000000"><set attributeName="x" to="-8" begin="0; animate11.end + 1s" /><animate attributeName="x" from="-8" to="76" dur="0.311" begin="animate9.end" id="animate10" fill="freeze"/></rect><rect x="145" y="201" width="44" height="55" id="rect-11" fill="transparent" stroke="#000000"><set attributeName="y" to="146" begin="0; animate11.end + 1s" /><animate attributeName="y" from="146" to="201" dur="0.204" begin="animate10.end + 0.5" id="animate11" fill="freeze"/></rect></svg>