<svg xmlns="http://www.w3.org/2000/svg" xmlns:xlink="http://www.w3.org/1999/xlink" width="270" height="270"><defs><clipPath id="clip-mask-1"><use xlink:href="#rect-1" /></clipPath><clipPath id="clip-mask-2"><use xlink:href="#rect-2" /></clipPath><clipPath id="clip-mask-3"><use xlink:href="#rect-3" /></clipPath><clipPath id="clip-mask-4"><use xlink:href="#rect-4" /></clipPath><clipPath id="clip-mask-5"><use xlink:href="#rect-5" /></clipPath><clipPath id="clip-mask-6"><use xlink:href="#rect-6" /></clipPath><clipPath id="clip-mask-7"><use xlink:href="#rect-7" /></clipPath><clipPath id="clip-mask-8"><use xlink:href="#rect-8" /></clipPath><clipPath id="clip-mask-9"><use xlink:href="#rect-9" /></clipPath><clipPath id="clip-mask-10"><use xlink:href="#rect-10" /></clipPath></defs><path d="M 0 0 L 270 270 M 270 0 L 0 270 M 135 0 L 135 270 M 0 135 L 270 135" stroke="#CCCCCC" /><path d="M 72 165 Q 66 160 68 154 Q 73 145 75 132 Q 75 131 75 130 L 78 118 Q 89 49 79 36 Q 76 32 79 30 Q 83 27 89 30 Q 102 37 106 42 Q 109 45 106 51 Q 101 58 99 71 Q 95 93 90 116 L 87 126 Q 83 140 80 153" fill="#CCCCCC"/><path d="M 109 170 Q 123 175 126 184 Q 128 192 126 196 Q 125 199 122 199 Q 120 198 115 195 Q 108 189 102 184 L 92 176 Q 82 170 72 165 L 80 153 Q 80 159 86 161 Q 93 163 98 166" fill="#CCCCCC"/><path d="M 115 104 L 114 100 Q 111 93 116 94 Q 120 94 130 103 Q 134 106 132 111 Q 131 113 128 118 Q 122 141 109 170 L 102 184 Q 91 198 78 206 Q 71 211 59 216 Q 53 218 49 217 Q 46 216 47 215 Q 48 213 53 211 Q 76 198 92 176 L 98 166 Q 109 140 113 118 L 115 110" fill="#CCCCCC"/><path d="M 75 130 Q 53 136 40 144 Q 37 146 34 145 Q 26 139 21 135 Q 19 132 20 129 Q 20 126 24 126 Q 33 127 40 126 Q 59 122 78 118 L 90 116 Q 103 112 115 110 L 113 118 Q 112 118 112 118 Q 99 122 87 126" fill="#CCCCCC"/><path d="M 167 88 Q 175 92 179 98 Q 181 101 178 105 Q 177 108 174 118 Q 164 166 148 191 Q 145 195 143 199 Q 124 224 114 225 Q 112 226 113 223 Q 113 221 115 220 Q 143 185 153 149 Q 166 98 158 91" fill="#CCCCCC"/><path d="M 152 92 L 147 91 Q 138 88 137 86 Q 135 82 141 82 Q 151 83 163 79 Q 204 68 213 63 Q 220 61 224 62 Q 238 69 241 73 Q 242 78 236 82 L 214 78 Q 212 75 207 76 Q 191 80 167 88 L 158 91" fill="#CCCCCC"/><path d="M 236 82 Q 231 85 220 103 Q 210 121 209 125 L 202 138 Q 199 140 196 138 Q 194 136 193 133 Q 193 131 195 127 Q 204 119 212 93 Q 216 79 214 78" fill="#CCCCCC"/><path d="M 209 125 Q 209 128 213 127 Q 228 124 231 125 Q 243 130 247 134 L 223 133 Q 214 131 202 138" fill="#CCCCCC"/><path d="M 247 134 Q 250 138 247 143 Q 244 147 243 154 Q 237 189 232 205 Q 224 228 206 238 Q 200 242 197 235 L 198 214 Q 206 216 212 207 Q 228 184 228 148 Q 228 136 223 133" fill="#CCCCCC"/><path d="M 197 235 Q 190 225 179 213 Q 175 207 181 208 Q 190 211 198 214" fill="#CCCCCC"/><path d="M 72 165 Q 66 160 68 154 Q 73 145 75 132 Q 75 131 75 130 L 78 118 Q 89 49 79 36 Q 76 32 79 30 Q 83 27 89 30 Q 102 37 106 42 Q 109 45 106 51 Q 101 58 99 71 Q 95 93 90 116 L 87 126 Q 83 140 80 153" fill="#0000ff" clip-path="url(#clip-mask-1)" /><path d="M 109 170 Q 123 175 126 184 Q 128 192 126 196 Q 125 199 122 199 Q 120 198 115 195 Q 108 189 102 184 L 92 176 Q 82 170 72 165 L 80 153 Q 80 159 86 161 Q 93 163 98 166" fill="#0000ff" clip-path="url(#clip-mask-2)" /><path d="M 115 104 L 114 100 Q 111 93 116 94 Q 120 94 130 103 Q 134 106 132 111 Q 131 113 128 118 Q 122 141 109 170 L 102 184 Q 91 198 78 206 Q 71 211 59 216 Q 53 218 49 217 Q 46 216 47 215 Q 48 213 53 211 Q 76 198 92 176 L 98 166 Q 109 140 113 118 L 115 110" fill="#0000ff" clip-path="url(#clip-mask-3)" /><path d="M 75 130 Q 53 136 40 144 Q 37 146 34 145 Q 26 139 21 135 Q 19 132 20 129 Q 20 126 24 126 Q 33 127 40 126 Q 59 122 78 118 L 90 116 Q 103 112 115 110 L 113 118 Q 112 118 112 118 Q 99 122 87 126" fill="#0000ff" clip-path="url(#clip-mask-4)" /><path d="M 167 88 Q 175 92 179 98 Q 181 101 178 105 Q 177 108 174 118 Q 164 166 148 191 Q 145 195 143 199 Q 124 224 114 225 Q 112 226 113 223 Q 113 221 115 220 Q 143 185 153 149 Q 166 98 158 91" fill="#000080" clip-path="url(#clip-mask-5)" /><path d="M 152 92 L 147 91 Q 138 88 137 86 Q 135 82 141 82 Q 151 83 163 79 Q 204 68 213 63 Q 220 61 224 62 Q 238 69 241 73 Q 242 78 236 82 L 214 78 Q 212 75 207 76 Q 191 80 167 88 L 158 91" fill="#000080" clip-path="url(#clip-mask-6)" /><path d="M 236 82 Q 231 85 220 103 Q 210 121 209 125 L 202 138 Q 199 140 196 138 Q 194 136 193 133 Q 193 131 195 127 Q 204 119 212 93 Q 216 79 214 78" fill="#000080" clip-path="url(#clip-mask-7)" /><path d="M 209 125 Q 209 128 213 127 Q 228 124 231 125 Q 243 130 247 134 L 223 133 Q 214 131 202 138" fill="#000080" clip-path="url(#clip-mask-8)" /><path d="M 247 134 Q 250 138 247 143 Q 244 147 243 154 Q 237 189 232 205 Q 224 228 206 238 Q 200 242 197 235 L 198 214 Q 206 216 212 207 Q 228 184 228 148 Q 228 136 223 133" fill="#000080" clip-path="url(#clip-mask-9)" /><path d="M 197 235 Q 190 225 179 213 Q 175 207 181 208 Q 190 211 198 214" fill="#000080" clip-path="url(#clip-mask-10)" /><rect x="66" y="27" width="43" height="138" id="rect-1" fill="transparent" stroke="#000000"><animate attributeName="y" from="-111" to="27" dur="0.511" begin="0; animate10.end + 1s" id="animate1" fill="freeze"/></rect><rect x="72" y="153" width="56" height="46" id="rect-2" fill="transparent" stroke="#000000"><set attributeName="x" to="16" begin="0; animate10.end + 1s" /><animate attributeName="x" from="16" to="72" dur="0.207" begin="animate1.end" id="animate2" fill="freeze"/></rect><rect x="46" y="93" width="88" height="125" id="rect-3" fill="transparent" stroke="#000000"><set attributeName="y" to="-32" begin="0; animate10.end + 1s" /><animate attributeName="y" from="-32" to="93" dur="0.463" begin="animate2.end + 0.5" id="animate3" fill="freeze"/></rect><rect x="19" y="110" width="96" height="36" id="rect-4" fill="transparent" stroke="#000000"><set attributeName="x" to="-77" begin="0; animate10.end + 1s" /><animate attributeName="x" from="-77" to="19" dur="0.356" begin="animate3.end + 0.5" id="animate4" fill="freeze"/></rect><rect x="112" y="88" width="69" height="138" id="rect-5" fill="transparent" stroke="#000000"><set attributeName="y" to="-50" begin="0; animate10.end + 1s" /><animate attributeName="y" from="-50" to="88" dur="0.511" begin="animate4.end + 0.5" id="animate5" fill="freeze"/></rect><rect x="135" y="61" width="107" height="31" id="rect-6" fill="transparent" stroke="#000000"><set attributeName="x" to="28" begin="0; animate10.end + 1s" /><animate attributeName="x" from="28" to="135" dur="0.396" begin="animate5.end + 0.5" id="animate6" fill="freeze"/></rect><rect x="193" y="78" width="43" height="62" id="rect-7" fill="transparent" stroke="#000000"><set attributeName="y" to="16" begin="0; animate10.end + 1s" /><animate attributeName="y" from="16" to="78" dur="0.230" begin="animate6.end" id="animate7" fill="freeze"/></rect><rect x="202" y="124" width="45" height="14" id="rect-8" fill="transparent" stroke="#000000"><set attributeName="x" to="157" begin="0; animate10.end + 1s" /><animate attributeName="x" from="157" to="202" dur="0.167" begin="animate7.end" id="animate8" fill="freeze"/></rect><rect x="197" y="133" width="53" height="109" id="rect-9" fill="transparent" stroke="#000000"><set attributeName="y" to="24" begin="0; animate10.end + 1s" /><animate attributeName="y" from="24" to="133" dur="0.404" begin="animate8.end" id="animate9" fill="freeze"/></rect><rect x="175" y="207" width="23" height="28" id="rect-10" fill="transparent" stroke="#000000"><set attributeName="x" to="198" begin="0; animate10.end + 1s" /><animate attributeName="x" from="198" to="175" dur="0.085" begin="animate9.end" id="animate10" fill="freeze"/></rect></svg>