<svg xmlns="http://www.w3.org/2000/svg" xmlns:xlink="http://www.w3.org/1999/xlink" width="270" height="270"><defs><clipPath id="clip-mask-1"><use xlink:href="#rect-1" /></clipPath><clipPath id="clip-mask-2"><use xlink:href="#rect-2" /></clipPath><clipPath id="clip-mask-3"><use xlink:href="#rect-3" /></clipPath><clipPath id="clip-mask-4"><use xlink:href="#rect-4" /></clipPath><clipPath id="clip-mask-5"><use xlink:href="#rect-5" /></clipPath><clipPath id="clip-mask-6"><use xlink:href="#rect-6" /></clipPath><clipPath id="clip-mask-7"><use xlink:href="#rect-7" /></clipPath><clipPath id="clip-mask-8"><use xlink:href="#rect-8" /></clipPath><clipPath id="clip-mask-9"><use xlink:href="#rect-9" /></clipPath><clipPath id="clip-mask-10"><use xlink:href="#rect-10" /></clipPath><clipPath id="clip-mask-11"><use xlink:href="#rect-11" /></clipPath></defs><path d="M 0 0 L 270 270 M 270 0 L 0 270 M 135 0 L 135 270 M 0 135 L 270 135" stroke="#CCCCCC" /><path d="M 53 178 Q 47 174 50 169 Q 52 164 60 137 L 62 126 Q 75 60 67 48 Q 65 44 68 43 Q 72 40 77 43 Q 89 50 92 55 Q 94 58 91 63 Q 86 69 84 81 Q 79 103 74 124 L 71 134 Q 66 151 61 168" fill="#CCCCCC"/><path d="M 91 183 Q 105 188 109 197 Q 111 204 110 207 Q 109 210 106 210 Q 104 210 99 207 Q 90 200 83 195 L 73 189 Q 64 183 53 178 L 61 168 Q 61 173 66 174 Q 73 177 79 179" fill="#CCCCCC"/><path d="M 90 117 L 89 114 Q 88 110 91 109 Q 98 107 109 116 Q 113 119 111 123 Q 107 130 106 138 Q 98 169 91 183 L 83 195 Q 78 202 70 209 Q 60 217 47 222 Q 38 225 35 225 Q 32 225 35 222 Q 39 219 43 217 Q 47 214 50 212 Q 63 203 70 194 Q 71 191 73 189 L 79 179 Q 89 159 92 127 L 91 120" fill="#CCCCCC"/><path d="M 60 137 Q 45 142 33 149 Q 30 151 28 150 Q 20 145 15 141 Q 13 139 14 136 Q 15 133 18 133 Q 25 134 30 133 Q 47 129 62 126 L 74 124 Q 83 122 91 120 L 92 127 Q 90 127 89 128 Q 79 131 71 134" fill="#CCCCCC"/><path d="M 123 161 L 116 159 Q 105 157 105 155 Q 105 152 109 151 Q 117 148 129 143 L 143 136 Q 146 135 166 125 L 178 118 Q 196 107 204 99 Q 207 96 212 97 Q 226 98 231 102 Q 235 105 232 109 L 207 115 Q 205 112 201 114 Q 187 122 176 129 L 164 136 Q 150 143 141 149 L 128 157" fill="#CCCCCC"/><path d="M 232 109 Q 224 117 222 126 Q 220 140 217 155 Q 213 171 203 182 L 199 157 Q 210 118 207 115" fill="#CCCCCC"/><path d="M 203 182 Q 198 187 193 180 Q 181 163 180 161 Q 180 159 183 160 Q 187 162 191 163 Q 198 166 199 157" fill="#CCCCCC"/><path d="M 166 125 Q 165 124 166 123 Q 170 89 169 64 Q 168 52 164 40 Q 160 35 163 34 Q 170 31 176 34 Q 183 38 187 43 Q 190 46 187 51 Q 184 63 178 118 L 176 129 Q 175 137 174 147 Q 170 176 165 180 Q 163 182 161 178 Q 159 169 164 136" fill="#CCCCCC"/><path d="M 129 143 Q 130 118 125 108 Q 123 103 127 102 Q 131 100 145 111 Q 150 116 147 124 Q 144 129 143 136 L 141 149 Q 138 185 144 203 L 140 219 Q 134 213 131 204 Q 128 195 128 157" fill="#CCCCCC"/><path d="M 144 203 Q 146 209 155 213 Q 164 217 186 217 Q 205 217 218 215 Q 228 212 231 207 L 253 211 Q 256 220 248 224 Q 239 230 214 233 Q 161 238 140 219" fill="#CCCCCC"/><path d="M 231 207 Q 235 201 239 171 Q 240 165 242 166 Q 244 168 245 172 Q 248 197 253 211" fill="#CCCCCC"/><path d="M 53 178 Q 47 174 50 169 Q 52 164 60 137 L 62 126 Q 75 60 67 48 Q 65 44 68 43 Q 72 40 77 43 Q 89 50 92 55 Q 94 58 91 63 Q 86 69 84 81 Q 79 103 74 124 L 71 134 Q 66 151 61 168" fill="#0000ff" clip-path="url(#clip-mask-1)" /><path d="M 91 183 Q 105 188 109 197 Q 111 204 110 207 Q 109 210 106 210 Q 104 210 99 207 Q 90 200 83 195 L 73 189 Q 64 183 53 178 L 61 168 Q 61 173 66 174 Q 73 177 79 179" fill="#0000ff" clip-path="url(#clip-mask-2)" /><path d="M 90 117 L 89 114 Q 88 110 91 109 Q 98 107 109 116 Q 113 119 111 123 Q 107 130 106 138 Q 98 169 91 183 L 83 195 Q 78 202 70 209 Q 60 217 47 222 Q 38 225 35 225 Q 32 225 35 222 Q 39 219 43 217 Q 47 214 50 212 Q 63 203 70 194 Q 71 191 73 189 L 79 179 Q 89 159 92 127 L 91 120" fill="#0000ff" clip-path="url(#clip-mask-3)" /><path d="M 60 137 Q 45 142 33 149 Q 30 151 28 150 Q 20 145 15 141 Q 13 139 14 136 Q 15 133 18 133 Q 25 134 30 133 Q 47 129 62 126 L 74 124 Q 83 122 91 120 L 92 127 Q 90 127 89 128 Q 79 131 71 134" fill="#0000ff" clip-path="url(#clip-mask-4)" /><path d="M 123 161 L 116 159 Q 105 157 105 155 Q 105 152 109 151 Q 117 148 129 143 L 143 136 Q 146 135 166 125 L 178 118 Q 196 107 204 99 Q 207 96 212 97 Q 226 98 231 102 Q 235 105 232 109 L 207 115 Q 205 112 201 114 Q 187 122 176 129 L 164 136 Q 150 143 141 149 L 128 157" fill="#000080" clip-path="url(#clip-mask-5)" /><path d="M 232 109 Q 224 117 222 126 Q 220 140 217 155 Q 213 171 203 182 L 199 157 Q 210 118 207 115" fill="#000080" clip-path="url(#clip-mask-6)" /><path d="M 203 182 Q 198 187 193 180 Q 181 163 180 161 Q 180 159 183 160 Q 187 162 191 163 Q 198 166 199 157" fill="#000080" clip-path="url(#clip-mask-7)" /><path d="M 166 125 Q 165 124 166 123 Q 170 89 169 64 Q 168 52 164 40 Q 160 35 163 34 Q 170 31 176 34 Q 183 38 187 43 Q 190 46 187 51 Q 184 63 178 118 L 176 129 Q 175 137 174 147 Q 170 176 165 180 Q 163 182 161 178 Q 159 169 164 136" fill="#000080" clip-path="url(#clip-mask-8)" /><path d="M 129 143 Q 130 118 125 108 Q 123 103 127 102 Q 131 100 145 111 Q 150 116 147 124 Q 144 129 143 136 L 141 149 Q 138 185 144 203 L 140 219 Q 134 213 131 204 Q 128 195 128 157" fill="#000080" clip-path="url(#clip-mask-9)" /><path d="M 144 203 Q 146 209 155 213 Q 164 217 186 217 Q 205 217 218 215 Q 228 212 231 207 L 253 211 Q 256 220 248 224 Q 239 230 214 233 Q 161 238 140 219" fill="#000080" clip-path="url(#clip-mask-10)" /><path d="M 231 207 Q 235 201 239 171 Q 240 165 242 166 Q 244 168 245 172 Q 248 197 253 211" fill="#000080" clip-path="url(#clip-mask-11)" /><rect x="47" y="40" width="47" height="138" id="rect-1" fill="transparent" stroke="#000000"><animate attributeName="y" from="-98" to="40" dur="0.511" begin="0; animate11.end + 1s" id="animate1" fill="freeze"/></rect><rect x="53" y="168" width="58" height="42" id="rect-2" fill="transparent" stroke="#000000"><set attributeName="x" to="-5" begin="0; animate11.end + 1s" /><animate attributeName="x" from="-5" to="53" dur="0.215" begin="animate1.end" id="animate2" fill="freeze"/></rect><rect x="32" y="107" width="81" height="118" id="rect-3" fill="transparent" stroke="#000000"><set attributeName="y" to="-11" begin="0; animate11.end + 1s" /><animate attributeName="y" from="-11" to="107" dur="0.437" begin="animate2.end + 0.5" id="animate3" fill="freeze"/></rect><rect x="13" y="120" width="79" height="31" id="rect-4" fill="transparent" stroke="#000000"><set attributeName="x" to="-66" begin="0; animate11.end + 1s" /><animate attributeName="x" from="-66" to="13" dur="0.293" begin="animate3.end + 0.5" id="animate4" fill="freeze"/></rect><rect x="105" y="96" width="130" height="65" id="rect-5" fill="transparent" stroke="#000000"><set attributeName="x" to="-25" begin="0; animate11.end + 1s" /><animate attributeName="x" from="-25" to="105" dur="0.481" begin="animate4.end + 0.5" id="animate5" fill="freeze"/></rect><rect x="199" y="109" width="33" height="73" id="rect-6" fill="transparent" stroke="#000000"><set attributeName="y" to="36" begin="0; animate11.end + 1s" /><animate attributeName="y" from="36" to="109" dur="0.270" begin="animate5.end" id="animate6" fill="freeze"/></rect><rect x="180" y="157" width="23" height="30" id="rect-7" fill="transparent" stroke="#000000"><set attributeName="x" to="203" begin="0; animate11.end + 1s" /><animate attributeName="x" from="203" to="180" dur="0.085" begin="animate6.end" id="animate7" fill="freeze"/></rect><rect x="159" y="31" width="31" height="151" id="rect-8" fill="transparent" stroke="#000000"><set attributeName="y" to="-120" begin="0; animate11.end + 1s" /><animate attributeName="y" from="-120" to="31" dur="0.559" begin="animate7.end + 0.5" id="animate8" fill="freeze"/></rect><rect x="123" y="100" width="27" height="119" id="rect-9" fill="transparent" stroke="#000000"><set attributeName="y" to="-19" begin="0; animate11.end + 1s" /><animate attributeName="y" from="-19" to="100" dur="0.441" begin="animate8.end + 0.5" id="animate9" fill="freeze"/></rect><rect x="140" y="203" width="116" height="35" id="rect-10" fill="transparent" stroke="#000000"><set attributeName="x" to="24" begin="0; animate11.end + 1s" /><animate attributeName="x" from="24" to="140" dur="0.430" begin="animate9.end" id="animate10" fill="freeze"/></rect><rect x="231" y="165" width="22" height="46" id="rect-11" fill="transparent" stroke="#000000"><set attributeName="y" to="211" begin="0; animate11.end + 1s" /><animate attributeName="y" from="211" to="165" dur="0.170" begin="animate10.end" id="animate11" fill="freeze"/></rect></svg>