<svg xmlns="http://www.w3.org/2000/svg" xmlns:xlink="http://www.w3.org/1999/xlink" width="270" height="270"><defs><clipPath id="clip-mask-1"><use xlink:href="#rect-1" /></clipPath><clipPath id="clip-mask-2"><use xlink:href="#rect-2" /></clipPath><clipPath id="clip-mask-3"><use xlink:href="#rect-3" /></clipPath><clipPath id="clip-mask-4"><use xlink:href="#rect-4" /></clipPath><clipPath id="clip-mask-5"><use xlink:href="#rect-5" /></clipPath><clipPath id="clip-mask-6"><use xlink:href="#rect-6" /></clipPath><clipPath id="clip-mask-7"><use xlink:href="#rect-7" /></clipPath><clipPath id="clip-mask-8"><use xlink:href="#rect-8" /></clipPath><clipPath id="clip-mask-9"><use xlink:href="#rect-9" /></clipPath><clipPath id="clip-mask-10"><use xlink:href="#rect-10" /></clipPath><clipPath id="clip-mask-11"><use xlink:href="#rect-11" /></clipPath><clipPath id="clip-mask-12"><use xlink:href="#rect-12" /></clipPath></defs><path d="M 0 0 L 270 270 M 270 0 L 0 270 M 135 0 L 135 270 M 0 135 L 270 135" stroke="#CCCCCC" /><path d="M 48 175 Q 43 171 45 165 Q 47 161 54 140 L 57 129 Q 71 59 62 46 Q 60 42 63 40 Q 67 38 73 41 Q 85 48 89 53 Q 90 56 87 62 Q 82 68 80 81 Q 75 103 69 126 L 65 136 Q 61 151 57 165" fill="#CCCCCC"/><path d="M 86 183 Q 96 188 98 196 Q 99 204 97 207 Q 96 210 94 210 Q 91 209 77 197 L 68 189 Q 59 181 48 175 L 57 165 Q 57 170 62 172 Q 70 176 75 178" fill="#CCCCCC"/><path d="M 88 117 L 86 113 Q 85 110 88 109 Q 95 107 106 116 Q 110 119 108 123 Q 105 128 99 152 Q 95 168 86 183 L 77 197 Q 73 202 67 207 Q 57 215 44 220 Q 35 223 32 223 Q 29 222 32 220 Q 58 204 66 192 Q 67 190 68 189 L 75 178 Q 85 159 88 128 L 88 122" fill="#CCCCCC"/><path d="M 54 140 Q 44 142 29 151 Q 26 153 24 152 Q 16 147 11 143 Q 9 141 10 138 Q 10 135 14 135 Q 21 136 26 135 Q 42 131 57 129 L 69 126 Q 79 123 88 122 L 88 128 Q 86 129 83 130 Q 74 133 65 136" fill="#CCCCCC"/><path d="M 141 143 Q 144 119 142 83 Q 141 76 134 69 Q 129 65 134 63 Q 142 59 158 70 Q 160 72 159 75 Q 156 86 156 96 Q 155 160 143 188 Q 140 193 138 197 Q 116 225 104 228 Q 100 228 101 226 Q 101 225 104 223 Q 134 192 140 152" fill="#CCCCCC"/><path d="M 111 108 L 111 106 Q 112 103 114 104 Q 117 105 125 109 Q 130 111 132 115 Q 134 120 133 124 Q 131 128 128 128 Q 121 127 112 110" fill="#CCCCCC"/><path d="M 125 166 L 121 173 Q 119 175 117 175 Q 109 173 103 171 Q 101 170 100 167 Q 100 165 103 164 Q 107 163 110 162 Q 126 151 141 143 L 140 152" fill="#CCCCCC"/><path d="M 182 170 L 184 193 Q 185 210 193 214 L 184 225 Q 175 218 173 205 Q 166 180 172 96 Q 173 75 173 63 Q 173 44 166 38 Q 164 35 167 33 Q 169 30 174 31 Q 184 34 192 41 Q 197 45 195 51 Q 187 62 183 137 L 183 143" fill="#CCCCCC"/><path d="M 193 214 Q 198 217 205 218 Q 219 219 226 218 Q 227 217 228 217 L 255 216 Q 260 224 255 227 Q 251 232 241 234 Q 239 235 236 235 Q 201 239 184 225" fill="#CCCCCC"/><path d="M 228 217 Q 231 215 245 183 Q 246 177 248 178 Q 251 181 251 184 Q 251 202 255 216" fill="#CCCCCC"/><path d="M 209 88 L 207 84 Q 206 81 208 80 Q 211 79 217 81 Q 224 82 228 86 Q 231 89 227 92 Q 222 96 219 101 Q 207 113 197 122 Q 194 124 195 120 Q 205 99 207 93" fill="#CCCCCC"/><path d="M 183 137 L 184 137 Q 223 146 228 157 Q 233 167 230 170 Q 229 173 227 173 Q 223 172 219 169 Q 200 154 184 144 L 183 143" fill="#CCCCCC"/><path d="M 48 175 Q 43 171 45 165 Q 47 161 54 140 L 57 129 Q 71 59 62 46 Q 60 42 63 40 Q 67 38 73 41 Q 85 48 89 53 Q 90 56 87 62 Q 82 68 80 81 Q 75 103 69 126 L 65 136 Q 61 151 57 165" fill="#0000ff" clip-path="url(#clip-mask-1)" /><path d="M 86 183 Q 96 188 98 196 Q 99 204 97 207 Q 96 210 94 210 Q 91 209 77 197 L 68 189 Q 59 181 48 175 L 57 165 Q 57 170 62 172 Q 70 176 75 178" fill="#0000ff" clip-path="url(#clip-mask-2)" /><path d="M 88 117 L 86 113 Q 85 110 88 109 Q 95 107 106 116 Q 110 119 108 123 Q 105 128 99 152 Q 95 168 86 183 L 77 197 Q 73 202 67 207 Q 57 215 44 220 Q 35 223 32 223 Q 29 222 32 220 Q 58 204 66 192 Q 67 190 68 189 L 75 178 Q 85 159 88 128 L 88 122" fill="#0000ff" clip-path="url(#clip-mask-3)" /><path d="M 54 140 Q 44 142 29 151 Q 26 153 24 152 Q 16 147 11 143 Q 9 141 10 138 Q 10 135 14 135 Q 21 136 26 135 Q 42 131 57 129 L 69 126 Q 79 123 88 122 L 88 128 Q 86 129 83 130 Q 74 133 65 136" fill="#0000ff" clip-path="url(#clip-mask-4)" /><path d="M 141 143 Q 144 119 142 83 Q 141 76 134 69 Q 129 65 134 63 Q 142 59 158 70 Q 160 72 159 75 Q 156 86 156 96 Q 155 160 143 188 Q 140 193 138 197 Q 116 225 104 228 Q 100 228 101 226 Q 101 225 104 223 Q 134 192 140 152" fill="#000080" clip-path="url(#clip-mask-5)" /><path d="M 111 108 L 111 106 Q 112 103 114 104 Q 117 105 125 109 Q 130 111 132 115 Q 134 120 133 124 Q 131 128 128 128 Q 121 127 112 110" fill="#000080" clip-path="url(#clip-mask-6)" /><path d="M 125 166 L 121 173 Q 119 175 117 175 Q 109 173 103 171 Q 101 170 100 167 Q 100 165 103 164 Q 107 163 110 162 Q 126 151 141 143 L 140 152" fill="#000080" clip-path="url(#clip-mask-7)" /><path d="M 182 170 L 184 193 Q 185 210 193 214 L 184 225 Q 175 218 173 205 Q 166 180 172 96 Q 173 75 173 63 Q 173 44 166 38 Q 164 35 167 33 Q 169 30 174 31 Q 184 34 192 41 Q 197 45 195 51 Q 187 62 183 137 L 183 143" fill="#000080" clip-path="url(#clip-mask-8)" /><path d="M 193 214 Q 198 217 205 218 Q 219 219 226 218 Q 227 217 228 217 L 255 216 Q 260 224 255 227 Q 251 232 241 234 Q 239 235 236 235 Q 201 239 184 225" fill="#000080" clip-path="url(#clip-mask-9)" /><path d="M 228 217 Q 231 215 245 183 Q 246 177 248 178 Q 251 181 251 184 Q 251 202 255 216" fill="#000080" clip-path="url(#clip-mask-10)" /><path d="M 209 88 L 207 84 Q 206 81 208 80 Q 211 79 217 81 Q 224 82 228 86 Q 231 89 227 92 Q 222 96 219 101 Q 207 113 197 122 Q 194 124 195 120 Q 205 99 207 93" fill="#000080" clip-path="url(#clip-mask-11)" /><path d="M 183 137 L 184 137 Q 223 146 228 157 Q 233 167 230 170 Q 229 173 227 173 Q 223 172 219 169 Q 200 154 184 144 L 183 143" fill="#000080" clip-path="url(#clip-mask-12)" /><rect x="43" y="38" width="47" height="137" id="rect-1" fill="transparent" stroke="#000000"><animate attributeName="y" from="-99" to="38" dur="0.507" begin="0; animate12.end + 1s" id="animate1" fill="freeze"/></rect><rect x="48" y="165" width="51" height="45" id="rect-2" fill="transparent" stroke="#000000"><set attributeName="x" to="-3" begin="0; animate12.end + 1s" /><animate attributeName="x" from="-3" to="48" dur="0.189" begin="animate1.end" id="animate2" fill="freeze"/></rect><rect x="29" y="107" width="81" height="116" id="rect-3" fill="transparent" stroke="#000000"><set attributeName="y" to="-9" begin="0; animate12.end + 1s" /><animate attributeName="y" from="-9" to="107" dur="0.430" begin="animate2.end + 0.5" id="animate3" fill="freeze"/></rect><rect x="9" y="122" width="79" height="31" id="rect-4" fill="transparent" stroke="#000000"><set attributeName="x" to="-70" begin="0; animate12.end + 1s" /><animate attributeName="x" from="-70" to="9" dur="0.293" begin="animate3.end + 0.5" id="animate4" fill="freeze"/></rect><rect x="100" y="59" width="60" height="169" id="rect-5" fill="transparent" stroke="#000000"><set attributeName="y" to="-110" begin="0; animate12.end + 1s" /><animate attributeName="y" from="-110" to="59" dur="0.626" begin="animate4.end + 0.5" id="animate5" fill="freeze"/></rect><rect x="111" y="103" width="23" height="25" id="rect-6" fill="transparent" stroke="#000000"><set attributeName="x" to="88" begin="0; animate12.end + 1s" /><animate attributeName="x" from="88" to="111" dur="0.085" begin="animate5.end + 0.5" id="animate6" fill="freeze"/></rect><rect x="100" y="143" width="41" height="32" id="rect-7" fill="transparent" stroke="#000000"><set attributeName="x" to="59" begin="0; animate12.end + 1s" /><animate attributeName="x" from="59" to="100" dur="0.152" begin="animate6.end + 0.5" id="animate7" fill="freeze"/></rect><rect x="164" y="30" width="33" height="195" id="rect-8" fill="transparent" stroke="#000000"><set attributeName="y" to="-165" begin="0; animate12.end + 1s" /><animate attributeName="y" from="-165" to="30" dur="0.722" begin="animate7.end + 0.5" id="animate8" fill="freeze"/></rect><rect x="184" y="214" width="76" height="25" id="rect-9" fill="transparent" stroke="#000000"><set attributeName="x" to="108" begin="0; animate12.end + 1s" /><animate attributeName="x" from="108" to="184" dur="0.281" begin="animate8.end" id="animate9" fill="freeze"/></rect><rect x="228" y="177" width="27" height="40" id="rect-10" fill="transparent" stroke="#000000"><set attributeName="y" to="217" begin="0; animate12.end + 1s" /><animate attributeName="y" from="217" to="177" dur="0.148" begin="animate9.end" id="animate10" fill="freeze"/></rect><rect x="194" y="79" width="37" height="45" id="rect-11" fill="transparent" stroke="#000000"><set attributeName="y" to="34" begin="0; animate12.end + 1s" /><animate attributeName="y" from="34" to="79" dur="0.167" begin="animate10.end + 0.5" id="animate11" fill="freeze"/></rect><rect x="183" y="137" width="50" height="36" id="rect-12" fill="transparent" stroke="#000000"><set attributeName="x" to="133" begin="0; animate12.end + 1s" /><animate attributeName="x" from="133" to="183" dur="0.185" begin="animate11.end + 0.5" id="animate12" fill="freeze"/></rect></svg>