<svg xmlns="http://www.w3.org/2000/svg" xmlns:xlink="http://www.w3.org/1999/xlink" width="270" height="270"><defs><clipPath id="clip-mask-1"><use xlink:href="#rect-1" /></clipPath><clipPath id="clip-mask-2"><use xlink:href="#rect-2" /></clipPath><clipPath id="clip-mask-3"><use xlink:href="#rect-3" /></clipPath><clipPath id="clip-mask-4"><use xlink:href="#rect-4" /></clipPath><clipPath id="clip-mask-5"><use xlink:href="#rect-5" /></clipPath><clipPath id="clip-mask-6"><use xlink:href="#rect-6" /></clipPath><clipPath id="clip-mask-7"><use xlink:href="#rect-7" /></clipPath><clipPath id="clip-mask-8"><use xlink:href="#rect-8" /></clipPath></defs><path d="M 0 0 L 270 270 M 270 0 L 0 270 M 135 0 L 135 270 M 0 135 L 270 135" stroke="#CCCCCC" /><path d="M 104 60 Q 98 56 65 73 Q 55 79 46 75 Q 41 72 39 69 Q 36 64 43 64 Q 58 64 64 61 Q 88 53 103 46 Q 110 44 115 46 Q 133 55 134 60" fill="#CCCCCC"/><path d="M 86 97 Q 97 80 106 65 Q 107 61 104 60 L 134 60 Q 136 64 131 66 Q 121 70 91 99" fill="#CCCCCC"/><path d="M 100 105 L 105 129 L 107 139 Q 116 202 96 222 Q 89 229 86 229 L 89 201 Q 97 180 93 146 L 91 135 Q 88 110 77 101 Q 73 98 77 96 Q 79 95 85 96 Q 86 97 86 97 L 91 99" fill="#CCCCCC"/><path d="M 86 229 Q 81 230 79 225 Q 75 218 64 210 Q 58 206 57 204 Q 56 202 59 202 Q 67 204 76 206 Q 85 207 89 201" fill="#CCCCCC"/><path d="M 105 129 Q 116 124 126 120 Q 129 119 131 121 Q 131 126 113 135 Q 110 137 107 139 L 93 146 Q 54 165 41 177 Q 38 180 35 179 Q 25 175 19 171 Q 16 169 16 165 Q 17 161 23 161 Q 34 160 91 135" fill="#CCCCCC"/><path d="M 149 48 L 145 44 Q 143 41 145 39 Q 147 36 153 37 Q 164 40 172 47 Q 177 52 175 58 Q 173 60 171 67 Q 160 123 164 188 Q 166 205 175 210 Q 180 213 190 214 L 180 228 Q 167 224 159 214 Q 144 197 151 99 Q 153 61 151 54" fill="#CCCCCC"/><path d="M 190 214 Q 206 215 215 213 Q 221 212 223 208 L 248 208 Q 253 218 247 222 Q 243 227 232 230 Q 221 233 202 231 Q 190 230 180 228" fill="#CCCCCC"/><path d="M 223 208 Q 227 203 230 190 Q 234 176 236 167 Q 238 161 240 163 Q 242 165 242 168 Q 243 190 248 208" fill="#CCCCCC"/><path d="M 104 60 Q 98 56 65 73 Q 55 79 46 75 Q 41 72 39 69 Q 36 64 43 64 Q 58 64 64 61 Q 88 53 103 46 Q 110 44 115 46 Q 133 55 134 60" fill="#0000ff" clip-path="url(#clip-mask-1)" /><path d="M 86 97 Q 97 80 106 65 Q 107 61 104 60 L 134 60 Q 136 64 131 66 Q 121 70 91 99" fill="#0000ff" clip-path="url(#clip-mask-2)" /><path d="M 100 105 L 105 129 L 107 139 Q 116 202 96 222 Q 89 229 86 229 L 89 201 Q 97 180 93 146 L 91 135 Q 88 110 77 101 Q 73 98 77 96 Q 79 95 85 96 Q 86 97 86 97 L 91 99" fill="#0000ff" clip-path="url(#clip-mask-3)" /><path d="M 86 229 Q 81 230 79 225 Q 75 218 64 210 Q 58 206 57 204 Q 56 202 59 202 Q 67 204 76 206 Q 85 207 89 201" fill="#0000ff" clip-path="url(#clip-mask-4)" /><path d="M 105 129 Q 116 124 126 120 Q 129 119 131 121 Q 131 126 113 135 Q 110 137 107 139 L 93 146 Q 54 165 41 177 Q 38 180 35 179 Q 25 175 19 171 Q 16 169 16 165 Q 17 161 23 161 Q 34 160 91 135" fill="#0000ff" clip-path="url(#clip-mask-5)" /><path d="M 149 48 L 145 44 Q 143 41 145 39 Q 147 36 153 37 Q 164 40 172 47 Q 177 52 175 58 Q 173 60 171 67 Q 160 123 164 188 Q 166 205 175 210 Q 180 213 190 214 L 180 228 Q 167 224 159 214 Q 144 197 151 99 Q 153 61 151 54" fill="#000080" clip-path="url(#clip-mask-6)" /><path d="M 190 214 Q 206 215 215 213 Q 221 212 223 208 L 248 208 Q 253 218 247 222 Q 243 227 232 230 Q 221 233 202 231 Q 190 230 180 228" fill="#000080" clip-path="url(#clip-mask-7)" /><path d="M 223 208 Q 227 203 230 190 Q 234 176 236 167 Q 238 161 240 163 Q 242 165 242 168 Q 243 190 248 208" fill="#000080" clip-path="url(#clip-mask-8)" /><rect x="36" y="44" width="98" height="35" id="rect-1" fill="transparent" stroke="#000000"><animate attributeName="x" from="-62" to="36" dur="0.363" begin="0; animate8.end + 1s" id="animate1" fill="freeze"/></rect><rect x="86" y="60" width="50" height="39" id="rect-2" fill="transparent" stroke="#000000"><set attributeName="y" to="21" begin="0; animate8.end + 1s" /><animate attributeName="y" from="21" to="60" dur="0.144" begin="animate1.end" id="animate2" fill="freeze"/></rect><rect x="73" y="95" width="43" height="134" id="rect-3" fill="transparent" stroke="#000000"><set attributeName="y" to="-39" begin="0; animate8.end + 1s" /><animate attributeName="y" from="-39" to="95" dur="0.496" begin="animate2.end + 0.5" id="animate3" fill="freeze"/></rect><rect x="56" y="201" width="33" height="29" id="rect-4" fill="transparent" stroke="#000000"><set attributeName="x" to="89" begin="0; animate8.end + 1s" /><animate attributeName="x" from="89" to="56" dur="0.122" begin="animate3.end" id="animate4" fill="freeze"/></rect><rect x="16" y="119" width="115" height="61" id="rect-5" fill="transparent" stroke="#000000"><set attributeName="x" to="-99" begin="0; animate8.end + 1s" /><animate attributeName="x" from="-99" to="16" dur="0.426" begin="animate4.end + 0.5" id="animate5" fill="freeze"/></rect><rect x="143" y="36" width="47" height="192" id="rect-6" fill="transparent" stroke="#000000"><set attributeName="y" to="-156" begin="0; animate8.end + 1s" /><animate attributeName="y" from="-156" to="36" dur="0.711" begin="animate5.end + 0.5" id="animate6" fill="freeze"/></rect><rect x="180" y="208" width="73" height="25" id="rect-7" fill="transparent" stroke="#000000"><set attributeName="x" to="107" begin="0; animate8.end + 1s" /><animate attributeName="x" from="107" to="180" dur="0.270" begin="animate6.end" id="animate7" fill="freeze"/></rect><rect x="223" y="161" width="25" height="47" id="rect-8" fill="transparent" stroke="#000000"><set attributeName="y" to="208" begin="0; animate8.end + 1s" /><animate attributeName="y" from="208" to="161" dur="0.174" begin="animate7.end" id="animate8" fill="freeze"/></rect></svg>