<svg xmlns="http://www.w3.org/2000/svg" xmlns:xlink="http://www.w3.org/1999/xlink" width="270" height="270"><defs><clipPath id="clip-mask-1"><use xlink:href="#rect-1" /></clipPath><clipPath id="clip-mask-2"><use xlink:href="#rect-2" /></clipPath><clipPath id="clip-mask-3"><use xlink:href="#rect-3" /></clipPath><clipPath id="clip-mask-4"><use xlink:href="#rect-4" /></clipPath><clipPath id="clip-mask-5"><use xlink:href="#rect-5" /></clipPath><clipPath id="clip-mask-6"><use xlink:href="#rect-6" /></clipPath><clipPath id="clip-mask-7"><use xlink:href="#rect-7" /></clipPath><clipPath id="clip-mask-8"><use xlink:href="#rect-8" /></clipPath><clipPath id="clip-mask-9"><use xlink:href="#rect-9" /></clipPath><clipPath id="clip-mask-10"><use xlink:href="#rect-10" /></clipPath></defs><path d="M 0 0 L 270 270 M 270 0 L 0 270 M 135 0 L 135 270 M 0 135 L 270 135" stroke="#CCCCCC" /><path d="M 120 41 Q 89 46 84 45 Q 83 45 85 43 Q 88 42 91 41 Q 149 24 151 15 Q 151 12 153 12 Q 161 12 173 24 Q 175 27 174 29 Q 173 31 169 31 Q 156 31 131 39" fill="#CCCCCC"/><path d="M 115 74 Q 90 77 67 83 Q 63 85 58 83 Q 54 82 50 79 Q 47 75 52 74 Q 91 69 124 64 L 137 62 Q 160 58 177 54 Q 190 50 204 60 Q 207 64 206 66 Q 205 69 189 69 Q 161 69 140 71" fill="#CCCCCC"/><path d="M 134 85 L 134 95 Q 134 114 131 116 Q 127 118 125 114 Q 122 106 122 103 Q 124 96 124 82 L 124 64 Q 124 47 120 41 L 131 39 Q 136 41 140 44 Q 143 47 141 49 Q 138 55 137 60 Q 137 61 137 62 L 135 75" fill="#CCCCCC"/><path d="M 124 82 Q 124 83 115 92 Q 95 111 76 120 Q 58 127 53 125 Q 51 124 54 122 Q 97 98 115 74 L 124 64" fill="#CCCCCC"/><path d="M 135 71 L 140 71 Q 144 73 147 76 Q 152 79 157 82 Q 181 95 230 106 Q 234 107 233 108 Q 233 110 229 111 Q 208 117 193 117 Q 181 116 135 75" fill="#CCCCCC"/><path d="M 150 132 Q 151 129 149 127 Q 145 125 101 140 Q 93 145 85 141 Q 81 138 79 135 Q 77 130 83 130 Q 99 131 106 129 Q 132 122 149 116 Q 154 114 159 117 Q 174 125 175 129" fill="#CCCCCC"/><path d="M 134 154 Q 143 142 150 132 L 175 129 Q 176 133 172 135 Q 164 137 138 157" fill="#CCCCCC"/><path d="M 150 183 L 151 196 Q 154 235 140 249 Q 133 256 130 256 L 132 228 Q 136 219 136 204 Q 137 190 133 175 L 129 165 Q 126 160 121 156 Q 117 153 120 151 Q 123 149 129 151 Q 132 152 134 154 L 138 157 Q 142 160 143 163 L 147 173" fill="#CCCCCC"/><path d="M 130 256 Q 125 257 123 252 Q 119 246 108 237 Q 103 234 102 232 Q 101 229 104 230 Q 112 231 120 233 Q 129 235 132 228" fill="#CCCCCC"/><path d="M 133 175 L 132 174 Q 84 179 50 188 Q 38 190 29 182 Q 24 176 31 176 Q 84 170 129 165 L 143 163 Q 186 157 213 152 Q 224 150 240 162 Q 245 166 243 169 Q 241 172 235 172 Q 164 172 147 173" fill="#CCCCCC"/><path d="M 120 41 Q 89 46 84 45 Q 83 45 85 43 Q 88 42 91 41 Q 149 24 151 15 Q 151 12 153 12 Q 161 12 173 24 Q 175 27 174 29 Q 173 31 169 31 Q 156 31 131 39" fill="#000080" clip-path="url(#clip-mask-1)" /><path d="M 115 74 Q 90 77 67 83 Q 63 85 58 83 Q 54 82 50 79 Q 47 75 52 74 Q 91 69 124 64 L 137 62 Q 160 58 177 54 Q 190 50 204 60 Q 207 64 206 66 Q 205 69 189 69 Q 161 69 140 71" fill="#000080" clip-path="url(#clip-mask-2)" /><path d="M 134 85 L 134 95 Q 134 114 131 116 Q 127 118 125 114 Q 122 106 122 103 Q 124 96 124 82 L 124 64 Q 124 47 120 41 L 131 39 Q 136 41 140 44 Q 143 47 141 49 Q 138 55 137 60 Q 137 61 137 62 L 135 75" fill="#000080" clip-path="url(#clip-mask-3)" /><path d="M 124 82 Q 124 83 115 92 Q 95 111 76 120 Q 58 127 53 125 Q 51 124 54 122 Q 97 98 115 74 L 124 64" fill="#000080" clip-path="url(#clip-mask-4)" /><path d="M 135 71 L 140 71 Q 144 73 147 76 Q 152 79 157 82 Q 181 95 230 106 Q 234 107 233 108 Q 233 110 229 111 Q 208 117 193 117 Q 181 116 135 75" fill="#000080" clip-path="url(#clip-mask-5)" /><path d="M 150 132 Q 151 129 149 127 Q 145 125 101 140 Q 93 145 85 141 Q 81 138 79 135 Q 77 130 83 130 Q 99 131 106 129 Q 132 122 149 116 Q 154 114 159 117 Q 174 125 175 129" fill="#0000ff" clip-path="url(#clip-mask-6)" /><path d="M 134 154 Q 143 142 150 132 L 175 129 Q 176 133 172 135 Q 164 137 138 157" fill="#0000ff" clip-path="url(#clip-mask-7)" /><path d="M 150 183 L 151 196 Q 154 235 140 249 Q 133 256 130 256 L 132 228 Q 136 219 136 204 Q 137 190 133 175 L 129 165 Q 126 160 121 156 Q 117 153 120 151 Q 123 149 129 151 Q 132 152 134 154 L 138 157 Q 142 160 143 163 L 147 173" fill="#0000ff" clip-path="url(#clip-mask-8)" /><path d="M 130 256 Q 125 257 123 252 Q 119 246 108 237 Q 103 234 102 232 Q 101 229 104 230 Q 112 231 120 233 Q 129 235 132 228" fill="#0000ff" clip-path="url(#clip-mask-9)" /><path d="M 133 175 L 132 174 Q 84 179 50 188 Q 38 190 29 182 Q 24 176 31 176 Q 84 170 129 165 L 143 163 Q 186 157 213 152 Q 224 150 240 162 Q 245 166 243 169 Q 241 172 235 172 Q 164 172 147 173" fill="#0000ff" clip-path="url(#clip-mask-10)" /><rect x="83" y="12" width="92" height="34" id="rect-1" fill="transparent" stroke="#000000"><animate attributeName="x" from="175" to="83" dur="0.341" begin="0; animate10.end + 1s" id="animate1" fill="freeze"/></rect><rect x="47" y="50" width="160" height="35" id="rect-2" fill="transparent" stroke="#000000"><set attributeName="x" to="-113" begin="0; animate10.end + 1s" /><animate attributeName="x" from="-113" to="47" dur="0.593" begin="animate1.end + 0.5" id="animate2" fill="freeze"/></rect><rect x="120" y="39" width="23" height="79" id="rect-3" fill="transparent" stroke="#000000"><set attributeName="y" to="-40" begin="0; animate10.end + 1s" /><animate attributeName="y" from="-40" to="39" dur="0.293" begin="animate2.end + 0.5" id="animate3" fill="freeze"/></rect><rect x="51" y="64" width="73" height="63" id="rect-4" fill="transparent" stroke="#000000"><set attributeName="x" to="124" begin="0; animate10.end + 1s" /><animate attributeName="x" from="124" to="51" dur="0.270" begin="animate3.end + 0.5" id="animate4" fill="freeze"/></rect><rect x="135" y="71" width="99" height="46" id="rect-5" fill="transparent" stroke="#000000"><set attributeName="x" to="36" begin="0; animate10.end + 1s" /><animate attributeName="x" from="36" to="135" dur="0.367" begin="animate4.end + 0.5" id="animate5" fill="freeze"/></rect><rect x="77" y="114" width="98" height="31" id="rect-6" fill="transparent" stroke="#000000"><set attributeName="x" to="-21" begin="0; animate10.end + 1s" /><animate attributeName="x" from="-21" to="77" dur="0.363" begin="animate5.end + 0.5" id="animate6" fill="freeze"/></rect><rect x="134" y="129" width="42" height="28" id="rect-7" fill="transparent" stroke="#000000"><set attributeName="y" to="101" begin="0; animate10.end + 1s" /><animate attributeName="y" from="101" to="129" dur="0.104" begin="animate6.end" id="animate7" fill="freeze"/></rect><rect x="117" y="149" width="37" height="107" id="rect-8" fill="transparent" stroke="#000000"><set attributeName="y" to="42" begin="0; animate10.end + 1s" /><animate attributeName="y" from="42" to="149" dur="0.396" begin="animate7.end + 0.5" id="animate8" fill="freeze"/></rect><rect x="101" y="228" width="31" height="29" id="rect-9" fill="transparent" stroke="#000000"><set attributeName="x" to="132" begin="0; animate10.end + 1s" /><animate attributeName="x" from="132" to="101" dur="0.115" begin="animate8.end" id="animate9" fill="freeze"/></rect><rect x="24" y="150" width="221" height="40" id="rect-10" fill="transparent" stroke="#000000"><set attributeName="x" to="-197" begin="0; animate10.end + 1s" /><animate attributeName="x" from="-197" to="24" dur="0.819" begin="animate9.end + 0.5" id="animate10" fill="freeze"/></rect></svg>