<svg xmlns="http://www.w3.org/2000/svg" xmlns:xlink="http://www.w3.org/1999/xlink" width="270" height="270"><defs><clipPath id="clip-mask-1"><use xlink:href="#rect-1" /></clipPath><clipPath id="clip-mask-2"><use xlink:href="#rect-2" /></clipPath><clipPath id="clip-mask-3"><use xlink:href="#rect-3" /></clipPath><clipPath id="clip-mask-4"><use xlink:href="#rect-4" /></clipPath><clipPath id="clip-mask-5"><use xlink:href="#rect-5" /></clipPath><clipPath id="clip-mask-6"><use xlink:href="#rect-6" /></clipPath><clipPath id="clip-mask-7"><use xlink:href="#rect-7" /></clipPath><clipPath id="clip-mask-8"><use xlink:href="#rect-8" /></clipPath></defs><path d="M 0 0 L 270 270 M 270 0 L 0 270 M 135 0 L 135 270 M 0 135 L 270 135" stroke="#CCCCCC" /><path d="M 107 27 L 106 24 Q 105 20 107 18 Q 109 18 114 19 Q 138 24 141 32 Q 144 41 142 45 Q 141 49 137 50 Q 133 50 128 46 Q 122 39 115 34" fill="#CCCCCC"/><path d="M 60 84 L 56 96 Q 53 106 49 113 Q 45 120 40 113 L 39 113 Q 32 98 37 92 Q 52 74 50 63 Q 51 55 56 59 Q 59 62 63 68 L 62 77" fill="#CCCCCC"/><path d="M 63 68 Q 63 68 63 69 Q 77 67 91 64 Q 134 57 175 52 Q 198 47 206 54 L 187 61 Q 183 60 172 61 Q 116 67 78 78 Q 69 80 62 77" fill="#CCCCCC"/><path d="M 206 54 Q 224 69 225 71 Q 225 75 214 77 Q 200 80 183 90 Q 179 93 176 92 Q 175 91 177 87 Q 190 65 190 65 Q 191 62 187 61" fill="#CCCCCC"/><path d="M 106 139 Q 90 143 76 146 Q 69 148 59 141 Q 53 136 61 135 Q 101 130 113 127 L 127 124 Q 135 122 142 120 Q 166 113 175 118 Q 181 121 181 124 Q 178 128 176 128 Q 137 133 127 135" fill="#CCCCCC"/><path d="M 126 221 L 126 230 Q 126 237 124 243 Q 121 248 119 250 Q 117 251 116 250 Q 114 249 112 245 Q 111 243 111 241 Q 107 231 112 207 Q 113 199 113 155 L 113 127 Q 113 118 113 109 Q 113 100 107 91 Q 105 88 106 86 Q 111 83 117 87 Q 131 95 132 97 Q 133 101 131 104 Q 128 113 127 124 L 127 135 Q 127 138 127 142 L 127 152" fill="#CCCCCC"/><path d="M 113 155 Q 108 164 100 174 Q 84 196 69 207 Q 44 224 35 224 Q 31 223 36 220 Q 62 199 74 186 Q 89 170 102 149 Q 105 144 106 139 L 113 127" fill="#CCCCCC"/><path d="M 127 142 Q 144 156 159 169 Q 184 188 212 199 Q 238 209 238 210 Q 237 212 235 213 Q 225 215 195 218 Q 186 220 180 214 Q 150 182 127 152" fill="#CCCCCC"/><path d="M 107 27 L 106 24 Q 105 20 107 18 Q 109 18 114 19 Q 138 24 141 32 Q 144 41 142 45 Q 141 49 137 50 Q 133 50 128 46 Q 122 39 115 34" fill="#0000ff" clip-path="url(#clip-mask-1)" /><path d="M 60 84 L 56 96 Q 53 106 49 113 Q 45 120 40 113 L 39 113 Q 32 98 37 92 Q 52 74 50 63 Q 51 55 56 59 Q 59 62 63 68 L 62 77" fill="#0000ff" clip-path="url(#clip-mask-2)" /><path d="M 63 68 Q 63 68 63 69 Q 77 67 91 64 Q 134 57 175 52 Q 198 47 206 54 L 187 61 Q 183 60 172 61 Q 116 67 78 78 Q 69 80 62 77" fill="#0000ff" clip-path="url(#clip-mask-3)" /><path d="M 206 54 Q 224 69 225 71 Q 225 75 214 77 Q 200 80 183 90 Q 179 93 176 92 Q 175 91 177 87 Q 190 65 190 65 Q 191 62 187 61" fill="#0000ff" clip-path="url(#clip-mask-4)" /><path d="M 106 139 Q 90 143 76 146 Q 69 148 59 141 Q 53 136 61 135 Q 101 130 113 127 L 127 124 Q 135 122 142 120 Q 166 113 175 118 Q 181 121 181 124 Q 178 128 176 128 Q 137 133 127 135" fill="#000080" clip-path="url(#clip-mask-5)" /><path d="M 126 221 L 126 230 Q 126 237 124 243 Q 121 248 119 250 Q 117 251 116 250 Q 114 249 112 245 Q 111 243 111 241 Q 107 231 112 207 Q 113 199 113 155 L 113 127 Q 113 118 113 109 Q 113 100 107 91 Q 105 88 106 86 Q 111 83 117 87 Q 131 95 132 97 Q 133 101 131 104 Q 128 113 127 124 L 127 135 Q 127 138 127 142 L 127 152" fill="#000080" clip-path="url(#clip-mask-6)" /><path d="M 113 155 Q 108 164 100 174 Q 84 196 69 207 Q 44 224 35 224 Q 31 223 36 220 Q 62 199 74 186 Q 89 170 102 149 Q 105 144 106 139 L 113 127" fill="#000080" clip-path="url(#clip-mask-7)" /><path d="M 127 142 Q 144 156 159 169 Q 184 188 212 199 Q 238 209 238 210 Q 237 212 235 213 Q 225 215 195 218 Q 186 220 180 214 Q 150 182 127 152" fill="#000080" clip-path="url(#clip-mask-8)" /><rect x="105" y="18" width="39" height="32" id="rect-1" fill="transparent" stroke="#000000"><animate attributeName="x" from="66" to="105" dur="0.144" begin="0; animate8.end + 1s" id="animate1" fill="freeze"/></rect><rect x="32" y="55" width="31" height="65" id="rect-2" fill="transparent" stroke="#000000"><set attributeName="y" to="-10" begin="0; animate8.end + 1s" /><animate attributeName="y" from="-10" to="55" dur="0.241" begin="animate1.end + 0.5" id="animate2" fill="freeze"/></rect><rect x="62" y="47" width="144" height="33" id="rect-3" fill="transparent" stroke="#000000"><set attributeName="x" to="-82" begin="0; animate8.end + 1s" /><animate attributeName="x" from="-82" to="62" dur="0.533" begin="animate2.end + 0.5" id="animate3" fill="freeze"/></rect><rect x="175" y="54" width="50" height="39" id="rect-4" fill="transparent" stroke="#000000"><set attributeName="y" to="15" begin="0; animate8.end + 1s" /><animate attributeName="y" from="15" to="54" dur="0.144" begin="animate3.end" id="animate4" fill="freeze"/></rect><rect x="53" y="113" width="128" height="35" id="rect-5" fill="transparent" stroke="#000000"><set attributeName="x" to="-75" begin="0; animate8.end + 1s" /><animate attributeName="x" from="-75" to="53" dur="0.474" begin="animate4.end + 0.5" id="animate5" fill="freeze"/></rect><rect x="105" y="83" width="28" height="168" id="rect-6" fill="transparent" stroke="#000000"><set attributeName="y" to="-85" begin="0; animate8.end + 1s" /><animate attributeName="y" from="-85" to="83" dur="0.622" begin="animate5.end + 0.5" id="animate6" fill="freeze"/></rect><rect x="31" y="127" width="82" height="97" id="rect-7" fill="transparent" stroke="#000000"><set attributeName="x" to="113" begin="0; animate8.end + 1s" /><animate attributeName="x" from="113" to="31" dur="0.304" begin="animate6.end + 0.5" id="animate7" fill="freeze"/></rect><rect x="127" y="142" width="111" height="78" id="rect-8" fill="transparent" stroke="#000000"><set attributeName="x" to="16" begin="0; animate8.end + 1s" /><animate attributeName="x" from="16" to="127" dur="0.411" begin="animate7.end + 0.5" id="animate8" fill="freeze"/></rect></svg>