<svg xmlns="http://www.w3.org/2000/svg" xmlns:xlink="http://www.w3.org/1999/xlink" width="270" height="270"><defs><clipPath id="clip-mask-1"><use xlink:href="#rect-1" /></clipPath><clipPath id="clip-mask-2"><use xlink:href="#rect-2" /></clipPath><clipPath id="clip-mask-3"><use xlink:href="#rect-3" /></clipPath><clipPath id="clip-mask-4"><use xlink:href="#rect-4" /></clipPath><clipPath id="clip-mask-5"><use xlink:href="#rect-5" /></clipPath><clipPath id="clip-mask-6"><use xlink:href="#rect-6" /></clipPath><clipPath id="clip-mask-7"><use xlink:href="#rect-7" /></clipPath><clipPath id="clip-mask-8"><use xlink:href="#rect-8" /></clipPath><clipPath id="clip-mask-9"><use xlink:href="#rect-9" /></clipPath><clipPath id="clip-mask-10"><use xlink:href="#rect-10" /></clipPath><clipPath id="clip-mask-11"><use xlink:href="#rect-11" /></clipPath></defs><path d="M 0 0 L 270 270 M 270 0 L 0 270 M 135 0 L 135 270 M 0 135 L 270 135" stroke="#CCCCCC" /><path d="M 115 24 L 114 21 Q 113 17 115 16 Q 118 15 123 16 Q 124 16 125 17 Q 147 20 152 33 Q 153 39 151 43 Q 149 47 144 46 Q 134 43 120 28" fill="#CCCCCC"/><path d="M 63 90 L 59 104 Q 55 115 50 123 Q 46 131 40 124 Q 32 108 37 101 Q 56 79 54 66 Q 54 58 60 62 Q 63 65 67 72 L 66 82" fill="#CCCCCC"/><path d="M 67 72 Q 80 70 93 67 Q 136 60 186 53 Q 210 49 216 54 L 196 62 Q 191 62 178 63 Q 114 69 77 82 Q 72 83 66 82" fill="#CCCCCC"/><path d="M 216 54 Q 237 70 237 73 Q 237 76 226 78 Q 213 81 197 90 Q 192 94 189 93 Q 187 92 190 87 Q 198 68 198 67 Q 200 65 196 62" fill="#CCCCCC"/><path d="M 100 245 L 96 250 Q 94 254 91 250 Q 88 247 85 238 Q 83 233 86 225 Q 95 195 92 134 Q 92 119 86 104 Q 84 101 85 100 Q 86 98 89 98 Q 98 100 104 106 L 106 115 Q 105 123 104 142 L 104 151 Q 104 165 104 178 L 104 186 Q 104 213 104 222 L 102 232" fill="#CCCCCC"/><path d="M 154 106 Q 152 104 147 105 Q 110 114 106 115 L 104 106 Q 135 99 150 92 Q 151 92 153 92 Q 162 89 178 103" fill="#CCCCCC"/><path d="M 149 132 Q 152 123 155 112 Q 156 108 154 106 L 178 103 Q 182 107 178 112 Q 170 116 163 134" fill="#CCCCCC"/><path d="M 104 142 Q 124 139 149 132 L 163 134 Q 169 137 169 139 Q 168 142 165 142 Q 127 146 109 151 Q 106 151 104 151" fill="#CCCCCC"/><path d="M 104 178 Q 135 173 154 166 Q 169 159 191 175 L 163 179 Q 161 177 156 178 Q 138 182 119 185 Q 111 188 104 186" fill="#CCCCCC"/><path d="M 158 213 Q 161 201 164 187 Q 165 181 163 179 L 191 175 Q 195 181 190 186 Q 181 192 173 214" fill="#CCCCCC"/><path d="M 104 222 Q 128 219 158 213 L 173 214 Q 182 220 182 222 Q 181 225 178 225 Q 129 228 106 232 Q 104 232 102 232" fill="#CCCCCC"/><path d="M 115 24 L 114 21 Q 113 17 115 16 Q 118 15 123 16 Q 124 16 125 17 Q 147 20 152 33 Q 153 39 151 43 Q 149 47 144 46 Q 134 43 120 28" fill="#0000ff" clip-path="url(#clip-mask-1)" /><path d="M 63 90 L 59 104 Q 55 115 50 123 Q 46 131 40 124 Q 32 108 37 101 Q 56 79 54 66 Q 54 58 60 62 Q 63 65 67 72 L 66 82" fill="#0000ff" clip-path="url(#clip-mask-2)" /><path d="M 67 72 Q 80 70 93 67 Q 136 60 186 53 Q 210 49 216 54 L 196 62 Q 191 62 178 63 Q 114 69 77 82 Q 72 83 66 82" fill="#0000ff" clip-path="url(#clip-mask-3)" /><path d="M 216 54 Q 237 70 237 73 Q 237 76 226 78 Q 213 81 197 90 Q 192 94 189 93 Q 187 92 190 87 Q 198 68 198 67 Q 200 65 196 62" fill="#0000ff" clip-path="url(#clip-mask-4)" /><path d="M 100 245 L 96 250 Q 94 254 91 250 Q 88 247 85 238 Q 83 233 86 225 Q 95 195 92 134 Q 92 119 86 104 Q 84 101 85 100 Q 86 98 89 98 Q 98 100 104 106 L 106 115 Q 105 123 104 142 L 104 151 Q 104 165 104 178 L 104 186 Q 104 213 104 222 L 102 232" fill="#000080" clip-path="url(#clip-mask-5)" /><path d="M 154 106 Q 152 104 147 105 Q 110 114 106 115 L 104 106 Q 135 99 150 92 Q 151 92 153 92 Q 162 89 178 103" fill="#000080" clip-path="url(#clip-mask-6)" /><path d="M 149 132 Q 152 123 155 112 Q 156 108 154 106 L 178 103 Q 182 107 178 112 Q 170 116 163 134" fill="#000080" clip-path="url(#clip-mask-7)" /><path d="M 104 142 Q 124 139 149 132 L 163 134 Q 169 137 169 139 Q 168 142 165 142 Q 127 146 109 151 Q 106 151 104 151" fill="#000080" clip-path="url(#clip-mask-8)" /><path d="M 104 178 Q 135 173 154 166 Q 169 159 191 175 L 163 179 Q 161 177 156 178 Q 138 182 119 185 Q 111 188 104 186" fill="#000080" clip-path="url(#clip-mask-9)" /><path d="M 158 213 Q 161 201 164 187 Q 165 181 163 179 L 191 175 Q 195 181 190 186 Q 181 192 173 214" fill="#000080" clip-path="url(#clip-mask-10)" /><path d="M 104 222 Q 128 219 158 213 L 173 214 Q 182 220 182 222 Q 181 225 178 225 Q 129 228 106 232 Q 104 232 102 232" fill="#000080" clip-path="url(#clip-mask-11)" /><rect x="113" y="15" width="40" height="32" id="rect-1" fill="transparent" stroke="#000000"><animate attributeName="x" from="73" to="113" dur="0.148" begin="0; animate11.end + 1s" id="animate1" fill="freeze"/></rect><rect x="32" y="58" width="35" height="73" id="rect-2" fill="transparent" stroke="#000000"><set attributeName="y" to="-15" begin="0; animate11.end + 1s" /><animate attributeName="y" from="-15" to="58" dur="0.270" begin="animate1.end + 0.5" id="animate2" fill="freeze"/></rect><rect x="66" y="49" width="150" height="34" id="rect-3" fill="transparent" stroke="#000000"><set attributeName="x" to="-84" begin="0; animate11.end + 1s" /><animate attributeName="x" from="-84" to="66" dur="0.556" begin="animate2.end + 0.5" id="animate3" fill="freeze"/></rect><rect x="187" y="54" width="50" height="40" id="rect-4" fill="transparent" stroke="#000000"><set attributeName="y" to="14" begin="0; animate11.end + 1s" /><animate attributeName="y" from="14" to="54" dur="0.148" begin="animate3.end" id="animate4" fill="freeze"/></rect><rect x="83" y="98" width="23" height="156" id="rect-5" fill="transparent" stroke="#000000"><set attributeName="y" to="-58" begin="0; animate11.end + 1s" /><animate attributeName="y" from="-58" to="98" dur="0.578" begin="animate4.end + 0.5" id="animate5" fill="freeze"/></rect><rect x="104" y="89" width="74" height="26" id="rect-6" fill="transparent" stroke="#000000"><set attributeName="x" to="30" begin="0; animate11.end + 1s" /><animate attributeName="x" from="30" to="104" dur="0.274" begin="animate5.end + 0.5" id="animate6" fill="freeze"/></rect><rect x="149" y="103" width="33" height="31" id="rect-7" fill="transparent" stroke="#000000"><set attributeName="y" to="72" begin="0; animate11.end + 1s" /><animate attributeName="y" from="72" to="103" dur="0.115" begin="animate6.end" id="animate7" fill="freeze"/></rect><rect x="104" y="132" width="65" height="19" id="rect-8" fill="transparent" stroke="#000000"><set attributeName="x" to="39" begin="0; animate11.end + 1s" /><animate attributeName="x" from="39" to="104" dur="0.241" begin="animate7.end + 0.5" id="animate8" fill="freeze"/></rect><rect x="104" y="159" width="87" height="29" id="rect-9" fill="transparent" stroke="#000000"><set attributeName="x" to="17" begin="0; animate11.end + 1s" /><animate attributeName="x" from="17" to="104" dur="0.322" begin="animate8.end + 0.5" id="animate9" fill="freeze"/></rect><rect x="158" y="175" width="37" height="39" id="rect-10" fill="transparent" stroke="#000000"><set attributeName="y" to="136" begin="0; animate11.end + 1s" /><animate attributeName="y" from="136" to="175" dur="0.144" begin="animate9.end" id="animate10" fill="freeze"/></rect><rect x="102" y="213" width="80" height="19" id="rect-11" fill="transparent" stroke="#000000"><set attributeName="x" to="22" begin="0; animate11.end + 1s" /><animate attributeName="x" from="22" to="102" dur="0.296" begin="animate10.end + 0.5" id="animate11" fill="freeze"/></rect></svg>