<svg xmlns="http://www.w3.org/2000/svg" xmlns:xlink="http://www.w3.org/1999/xlink" width="270" height="270"><defs><clipPath id="clip-mask-1"><use xlink:href="#rect-1" /></clipPath><clipPath id="clip-mask-2"><use xlink:href="#rect-2" /></clipPath><clipPath id="clip-mask-3"><use xlink:href="#rect-3" /></clipPath><clipPath id="clip-mask-4"><use xlink:href="#rect-4" /></clipPath><clipPath id="clip-mask-5"><use xlink:href="#rect-5" /></clipPath><clipPath id="clip-mask-6"><use xlink:href="#rect-6" /></clipPath><clipPath id="clip-mask-7"><use xlink:href="#rect-7" /></clipPath><clipPath id="clip-mask-8"><use xlink:href="#rect-8" /></clipPath><clipPath id="clip-mask-9"><use xlink:href="#rect-9" /></clipPath><clipPath id="clip-mask-10"><use xlink:href="#rect-10" /></clipPath><clipPath id="clip-mask-11"><use xlink:href="#rect-11" /></clipPath></defs><path d="M 0 0 L 270 270 M 270 0 L 0 270 M 135 0 L 135 270 M 0 135 L 270 135" stroke="#CCCCCC" /><path d="M 115 17 L 115 14 Q 114 10 116 10 Q 117 9 118 9 Q 130 9 141 17 Q 146 20 148 27 Q 148 32 147 36 Q 143 40 139 39 Q 131 35 120 21" fill="#CCCCCC"/><path d="M 67 73 L 64 83 Q 61 93 56 99 Q 53 106 47 100 Q 40 85 45 79 Q 60 63 58 52 Q 58 45 64 48 Q 67 51 70 57 L 70 67" fill="#CCCCCC"/><path d="M 70 57 Q 83 55 97 53 Q 156 45 190 41 Q 213 37 219 43 L 200 50 Q 196 49 184 51 Q 124 56 90 65 Q 74 68 70 67" fill="#CCCCCC"/><path d="M 219 43 Q 239 59 240 62 Q 240 65 229 66 Q 216 69 199 78 Q 194 81 191 80 Q 189 78 192 74 Q 202 56 202 54 Q 203 53 200 50" fill="#CCCCCC"/><path d="M 133 87 Q 132 86 131 85 Q 119 67 119 67 Q 119 64 120 63 Q 122 63 125 64 Q 141 69 142 75 Q 143 82 142 85" fill="#CCCCCC"/><path d="M 151 95 Q 117 96 90 105 Q 83 107 76 101 Q 72 97 76 96 Q 103 92 125 88 Q 129 87 133 87 L 142 85 Q 151 83 158 81 Q 171 77 184 86 Q 187 88 186 91 Q 184 93 173 93 Q 167 94 162 94" fill="#CCCCCC"/><path d="M 97 114 L 97 112 Q 98 109 99 109 Q 100 109 101 110 Q 110 114 114 119 Q 116 123 115 128 Q 115 132 113 134 Q 109 136 107 134 Q 102 129 99 118" fill="#CCCCCC"/><path d="M 137 136 Q 139 133 140 130 Q 153 103 151 95 L 162 94 Q 167 98 169 102 Q 171 105 167 108 Q 163 112 160 116 Q 155 125 150 131 Q 148 133 147 135" fill="#CCCCCC"/><path d="M 125 147 Q 88 150 53 159 Q 48 161 42 159 Q 38 157 34 154 Q 29 149 35 148 Q 86 142 129 137 Q 133 136 137 136 L 147 135 Q 183 129 206 125 Q 217 122 231 133 Q 235 137 234 141 Q 233 143 227 143 Q 162 143 139 145" fill="#CCCCCC"/><path d="M 101 190 L 81 195 Q 77 196 71 195 Q 67 193 64 190 Q 60 186 65 185 Q 96 181 124 179 L 139 177 Q 161 173 176 170 Q 190 168 203 178 Q 207 181 206 184 Q 204 186 199 186 Q 147 186 139 187 L 124 188" fill="#CCCCCC"/><path d="M 124 179 Q 124 162 125 147 L 139 145 Q 139 161 139 177 L 139 187 Q 139 243 135 253 Q 132 260 129 257 Q 123 250 124 188" fill="#CCCCCC"/><path d="M 115 17 L 115 14 Q 114 10 116 10 Q 117 9 118 9 Q 130 9 141 17 Q 146 20 148 27 Q 148 32 147 36 Q 143 40 139 39 Q 131 35 120 21" fill="#0000ff" clip-path="url(#clip-mask-1)" /><path d="M 67 73 L 64 83 Q 61 93 56 99 Q 53 106 47 100 Q 40 85 45 79 Q 60 63 58 52 Q 58 45 64 48 Q 67 51 70 57 L 70 67" fill="#0000ff" clip-path="url(#clip-mask-2)" /><path d="M 70 57 Q 83 55 97 53 Q 156 45 190 41 Q 213 37 219 43 L 200 50 Q 196 49 184 51 Q 124 56 90 65 Q 74 68 70 67" fill="#0000ff" clip-path="url(#clip-mask-3)" /><path d="M 219 43 Q 239 59 240 62 Q 240 65 229 66 Q 216 69 199 78 Q 194 81 191 80 Q 189 78 192 74 Q 202 56 202 54 Q 203 53 200 50" fill="#0000ff" clip-path="url(#clip-mask-4)" /><path d="M 133 87 Q 132 86 131 85 Q 119 67 119 67 Q 119 64 120 63 Q 122 63 125 64 Q 141 69 142 75 Q 143 82 142 85" fill="#000080" clip-path="url(#clip-mask-5)" /><path d="M 151 95 Q 117 96 90 105 Q 83 107 76 101 Q 72 97 76 96 Q 103 92 125 88 Q 129 87 133 87 L 142 85 Q 151 83 158 81 Q 171 77 184 86 Q 187 88 186 91 Q 184 93 173 93 Q 167 94 162 94" fill="#000080" clip-path="url(#clip-mask-6)" /><path d="M 97 114 L 97 112 Q 98 109 99 109 Q 100 109 101 110 Q 110 114 114 119 Q 116 123 115 128 Q 115 132 113 134 Q 109 136 107 134 Q 102 129 99 118" fill="#000080" clip-path="url(#clip-mask-7)" /><path d="M 137 136 Q 139 133 140 130 Q 153 103 151 95 L 162 94 Q 167 98 169 102 Q 171 105 167 108 Q 163 112 160 116 Q 155 125 150 131 Q 148 133 147 135" fill="#000080" clip-path="url(#clip-mask-8)" /><path d="M 125 147 Q 88 150 53 159 Q 48 161 42 159 Q 38 157 34 154 Q 29 149 35 148 Q 86 142 129 137 Q 133 136 137 136 L 147 135 Q 183 129 206 125 Q 217 122 231 133 Q 235 137 234 141 Q 233 143 227 143 Q 162 143 139 145" fill="#000080" clip-path="url(#clip-mask-9)" /><path d="M 101 190 L 81 195 Q 77 196 71 195 Q 67 193 64 190 Q 60 186 65 185 Q 96 181 124 179 L 139 177 Q 161 173 176 170 Q 190 168 203 178 Q 207 181 206 184 Q 204 186 199 186 Q 147 186 139 187 L 124 188" fill="#000080" clip-path="url(#clip-mask-10)" /><path d="M 124 179 Q 124 162 125 147 L 139 145 Q 139 161 139 177 L 139 187 Q 139 243 135 253 Q 132 260 129 257 Q 123 250 124 188" fill="#000080" clip-path="url(#clip-mask-11)" /><rect x="114" y="9" width="34" height="31" id="rect-1" fill="transparent" stroke="#000000"><animate attributeName="x" from="80" to="114" dur="0.126" begin="0; animate11.end + 1s" id="animate1" fill="freeze"/></rect><rect x="40" y="45" width="30" height="61" id="rect-2" fill="transparent" stroke="#000000"><set attributeName="y" to="-16" begin="0; animate11.end + 1s" /><animate attributeName="y" from="-16" to="45" dur="0.226" begin="animate1.end + 0.5" id="animate2" fill="freeze"/></rect><rect x="70" y="37" width="149" height="31" id="rect-3" fill="transparent" stroke="#000000"><set attributeName="x" to="-79" begin="0; animate11.end + 1s" /><animate attributeName="x" from="-79" to="70" dur="0.552" begin="animate2.end + 0.5" id="animate3" fill="freeze"/></rect><rect x="189" y="43" width="51" height="38" id="rect-4" fill="transparent" stroke="#000000"><set attributeName="y" to="5" begin="0; animate11.end + 1s" /><animate attributeName="y" from="5" to="43" dur="0.141" begin="animate3.end" id="animate4" fill="freeze"/></rect><rect x="119" y="63" width="24" height="24" id="rect-5" fill="transparent" stroke="#000000"><set attributeName="x" to="95" begin="0; animate11.end + 1s" /><animate attributeName="x" from="95" to="119" dur="0.089" begin="animate4.end + 0.5" id="animate5" fill="freeze"/></rect><rect x="72" y="77" width="115" height="30" id="rect-6" fill="transparent" stroke="#000000"><set attributeName="x" to="-43" begin="0; animate11.end + 1s" /><animate attributeName="x" from="-43" to="72" dur="0.426" begin="animate5.end + 0.5" id="animate6" fill="freeze"/></rect><rect x="97" y="109" width="19" height="27" id="rect-7" fill="transparent" stroke="#000000"><set attributeName="y" to="82" begin="0; animate11.end + 1s" /><animate attributeName="y" from="82" to="109" dur="0.100" begin="animate6.end + 0.5" id="animate7" fill="freeze"/></rect><rect x="137" y="94" width="34" height="42" id="rect-8" fill="transparent" stroke="#000000"><set attributeName="y" to="52" begin="0; animate11.end + 1s" /><animate attributeName="y" from="52" to="94" dur="0.156" begin="animate7.end + 0.5" id="animate8" fill="freeze"/></rect><rect x="29" y="122" width="206" height="39" id="rect-9" fill="transparent" stroke="#000000"><set attributeName="x" to="-177" begin="0; animate11.end + 1s" /><animate attributeName="x" from="-177" to="29" dur="0.763" begin="animate8.end + 0.5" id="animate9" fill="freeze"/></rect><rect x="60" y="168" width="147" height="28" id="rect-10" fill="transparent" stroke="#000000"><set attributeName="x" to="-87" begin="0; animate11.end + 1s" /><animate attributeName="x" from="-87" to="60" dur="0.544" begin="animate9.end + 0.5" id="animate10" fill="freeze"/></rect><rect x="123" y="145" width="16" height="115" id="rect-11" fill="transparent" stroke="#000000"><set attributeName="y" to="30" begin="0; animate11.end + 1s" /><animate attributeName="y" from="30" to="145" dur="0.426" begin="animate10.end + 0.5" id="animate11" fill="freeze"/></rect></svg>