<svg xmlns="http://www.w3.org/2000/svg" xmlns:xlink="http://www.w3.org/1999/xlink" width="270" height="270"><defs><clipPath id="clip-mask-1"><use xlink:href="#rect-1" /></clipPath><clipPath id="clip-mask-2"><use xlink:href="#rect-2" /></clipPath><clipPath id="clip-mask-3"><use xlink:href="#rect-3" /></clipPath><clipPath id="clip-mask-4"><use xlink:href="#rect-4" /></clipPath><clipPath id="clip-mask-5"><use xlink:href="#rect-5" /></clipPath><clipPath id="clip-mask-6"><use xlink:href="#rect-6" /></clipPath><clipPath id="clip-mask-7"><use xlink:href="#rect-7" /></clipPath><clipPath id="clip-mask-8"><use xlink:href="#rect-8" /></clipPath><clipPath id="clip-mask-9"><use xlink:href="#rect-9" /></clipPath><clipPath id="clip-mask-10"><use xlink:href="#rect-10" /></clipPath><clipPath id="clip-mask-11"><use xlink:href="#rect-11" /></clipPath><clipPath id="clip-mask-12"><use xlink:href="#rect-12" /></clipPath></defs><path d="M 0 0 L 270 270 M 270 0 L 0 270 M 135 0 L 135 270 M 0 135 L 270 135" stroke="#CCCCCC" /><path d="M 111 24 L 110 21 Q 110 17 111 17 Q 114 16 117 17 Q 125 17 137 24 Q 142 27 144 34 Q 145 39 143 43 Q 140 47 136 46 Q 127 42 116 28" fill="#CCCCCC"/><path d="M 61 81 L 57 92 Q 55 101 51 107 Q 47 114 42 108 Q 41 106 41 105 Q 35 93 39 87 Q 54 73 52 62 Q 52 55 57 59 Q 60 61 63 67 L 64 75" fill="#CCCCCC"/><path d="M 63 67 Q 64 67 64 67 Q 79 65 93 63 Q 151 53 177 50 Q 200 45 207 52 L 189 59 Q 184 59 172 60 Q 112 67 81 76 Q 70 79 64 75" fill="#CCCCCC"/><path d="M 207 52 Q 226 67 226 69 Q 226 72 217 74 Q 205 76 191 85 Q 186 88 184 87 Q 182 86 185 82 Q 193 64 193 64 Q 193 60 189 59" fill="#CCCCCC"/><path d="M 88 88 L 90 87 Q 93 87 98 89 Q 107 94 108 100 Q 108 103 106 104 Q 105 105 104 106 Q 77 134 61 134 Q 59 133 61 132 Q 90 106 88 91" fill="#CCCCCC"/><path d="M 137 93 L 137 89 Q 137 86 139 87 Q 146 89 158 92 Q 177 98 180 107 Q 185 118 182 121 Q 180 124 178 124 Q 174 123 170 119 Q 153 105 140 95" fill="#CCCCCC"/><path d="M 74 187 Q 73 187 73 188 Q 37 213 20 213 Q 17 211 19 210 Q 51 191 64 180 Q 65 179 67 178 Q 111 139 111 117 Q 110 113 113 113 Q 122 113 129 122 Q 132 126 132 129 Q 132 130 131 132 L 126 136 Q 125 136 124 137 Q 102 163 79 183" fill="#CCCCCC"/><path d="M 131 132 Q 136 135 146 142 Q 156 148 165 154 Q 191 168 248 181 Q 252 182 252 184 Q 252 186 247 187 Q 224 194 204 194 Q 191 193 126 136" fill="#CCCCCC"/><path d="M 100 244 L 98 249 Q 97 253 92 248 Q 88 243 84 220 Q 83 214 74 187 L 79 183 Q 88 185 91 187 L 94 195 Q 95 203 98 227 L 99 236" fill="#CCCCCC"/><path d="M 91 187 Q 129 181 149 175 Q 156 173 160 175 Q 174 183 179 187 L 152 190 Q 151 189 151 189 Q 148 188 94 195" fill="#CCCCCC"/><path d="M 148 220 Q 151 209 153 196 Q 154 192 152 190 L 179 187 Q 183 192 178 197 Q 170 201 163 220" fill="#CCCCCC"/><path d="M 98 227 Q 120 225 148 220 L 163 220 Q 163 220 163 220 Q 171 226 171 228 Q 171 231 167 231 Q 123 233 102 236 Q 100 236 99 236" fill="#CCCCCC"/><path d="M 111 24 L 110 21 Q 110 17 111 17 Q 114 16 117 17 Q 125 17 137 24 Q 142 27 144 34 Q 145 39 143 43 Q 140 47 136 46 Q 127 42 116 28" fill="#0000ff" clip-path="url(#clip-mask-1)" /><path d="M 61 81 L 57 92 Q 55 101 51 107 Q 47 114 42 108 Q 41 106 41 105 Q 35 93 39 87 Q 54 73 52 62 Q 52 55 57 59 Q 60 61 63 67 L 64 75" fill="#0000ff" clip-path="url(#clip-mask-2)" /><path d="M 63 67 Q 64 67 64 67 Q 79 65 93 63 Q 151 53 177 50 Q 200 45 207 52 L 189 59 Q 184 59 172 60 Q 112 67 81 76 Q 70 79 64 75" fill="#0000ff" clip-path="url(#clip-mask-3)" /><path d="M 207 52 Q 226 67 226 69 Q 226 72 217 74 Q 205 76 191 85 Q 186 88 184 87 Q 182 86 185 82 Q 193 64 193 64 Q 193 60 189 59" fill="#0000ff" clip-path="url(#clip-mask-4)" /><path d="M 88 88 L 90 87 Q 93 87 98 89 Q 107 94 108 100 Q 108 103 106 104 Q 105 105 104 106 Q 77 134 61 134 Q 59 133 61 132 Q 90 106 88 91" fill="#000080" clip-path="url(#clip-mask-5)" /><path d="M 137 93 L 137 89 Q 137 86 139 87 Q 146 89 158 92 Q 177 98 180 107 Q 185 118 182 121 Q 180 124 178 124 Q 174 123 170 119 Q 153 105 140 95" fill="#000080" clip-path="url(#clip-mask-6)" /><path d="M 74 187 Q 73 187 73 188 Q 37 213 20 213 Q 17 211 19 210 Q 51 191 64 180 Q 65 179 67 178 Q 111 139 111 117 Q 110 113 113 113 Q 122 113 129 122 Q 132 126 132 129 Q 132 130 131 132 L 126 136 Q 125 136 124 137 Q 102 163 79 183" fill="#000080" clip-path="url(#clip-mask-7)" /><path d="M 131 132 Q 136 135 146 142 Q 156 148 165 154 Q 191 168 248 181 Q 252 182 252 184 Q 252 186 247 187 Q 224 194 204 194 Q 191 193 126 136" fill="#000080" clip-path="url(#clip-mask-8)" /><path d="M 100 244 L 98 249 Q 97 253 92 248 Q 88 243 84 220 Q 83 214 74 187 L 79 183 Q 88 185 91 187 L 94 195 Q 95 203 98 227 L 99 236" fill="#000080" clip-path="url(#clip-mask-9)" /><path d="M 91 187 Q 129 181 149 175 Q 156 173 160 175 Q 174 183 179 187 L 152 190 Q 151 189 151 189 Q 148 188 94 195" fill="#000080" clip-path="url(#clip-mask-10)" /><path d="M 148 220 Q 151 209 153 196 Q 154 192 152 190 L 179 187 Q 183 192 178 197 Q 170 201 163 220" fill="#000080" clip-path="url(#clip-mask-11)" /><path d="M 98 227 Q 120 225 148 220 L 163 220 Q 163 220 163 220 Q 171 226 171 228 Q 171 231 167 231 Q 123 233 102 236 Q 100 236 99 236" fill="#000080" clip-path="url(#clip-mask-12)" /><rect x="110" y="16" width="35" height="31" id="rect-1" fill="transparent" stroke="#000000"><animate attributeName="x" from="75" to="110" dur="0.130" begin="0; animate12.end + 1s" id="animate1" fill="freeze"/></rect><rect x="35" y="55" width="29" height="59" id="rect-2" fill="transparent" stroke="#000000"><set attributeName="y" to="-4" begin="0; animate12.end + 1s" /><animate attributeName="y" from="-4" to="55" dur="0.219" begin="animate1.end + 0.5" id="animate2" fill="freeze"/></rect><rect x="63" y="45" width="144" height="34" id="rect-3" fill="transparent" stroke="#000000"><set attributeName="x" to="-81" begin="0; animate12.end + 1s" /><animate attributeName="x" from="-81" to="63" dur="0.533" begin="animate2.end + 0.5" id="animate3" fill="freeze"/></rect><rect x="182" y="52" width="44" height="36" id="rect-4" fill="transparent" stroke="#000000"><set attributeName="y" to="16" begin="0; animate12.end + 1s" /><animate attributeName="y" from="16" to="52" dur="0.133" begin="animate3.end" id="animate4" fill="freeze"/></rect><rect x="59" y="87" width="49" height="47" id="rect-5" fill="transparent" stroke="#000000"><set attributeName="y" to="40" begin="0; animate12.end + 1s" /><animate attributeName="y" from="40" to="87" dur="0.174" begin="animate4.end + 0.5" id="animate5" fill="freeze"/></rect><rect x="137" y="86" width="48" height="38" id="rect-6" fill="transparent" stroke="#000000"><set attributeName="x" to="89" begin="0; animate12.end + 1s" /><animate attributeName="x" from="89" to="137" dur="0.178" begin="animate5.end + 0.5" id="animate6" fill="freeze"/></rect><rect x="17" y="113" width="115" height="100" id="rect-7" fill="transparent" stroke="#000000"><set attributeName="y" to="13" begin="0; animate12.end + 1s" /><animate attributeName="y" from="13" to="113" dur="0.370" begin="animate6.end + 0.5" id="animate7" fill="freeze"/></rect><rect x="126" y="132" width="126" height="62" id="rect-8" fill="transparent" stroke="#000000"><set attributeName="x" to="0" begin="0; animate12.end + 1s" /><animate attributeName="x" from="0" to="126" dur="0.467" begin="animate7.end + 0.5" id="animate8" fill="freeze"/></rect><rect x="74" y="183" width="26" height="70" id="rect-9" fill="transparent" stroke="#000000"><set attributeName="y" to="113" begin="0; animate12.end + 1s" /><animate attributeName="y" from="113" to="183" dur="0.259" begin="animate8.end + 0.5" id="animate9" fill="freeze"/></rect><rect x="91" y="173" width="88" height="22" id="rect-10" fill="transparent" stroke="#000000"><set attributeName="x" to="3" begin="0; animate12.end + 1s" /><animate attributeName="x" from="3" to="91" dur="0.326" begin="animate9.end + 0.5" id="animate10" fill="freeze"/></rect><rect x="148" y="187" width="35" height="33" id="rect-11" fill="transparent" stroke="#000000"><set attributeName="y" to="154" begin="0; animate12.end + 1s" /><animate attributeName="y" from="154" to="187" dur="0.122" begin="animate10.end" id="animate11" fill="freeze"/></rect><rect x="98" y="220" width="73" height="16" id="rect-12" fill="transparent" stroke="#000000"><set attributeName="x" to="25" begin="0; animate12.end + 1s" /><animate attributeName="x" from="25" to="98" dur="0.270" begin="animate11.end + 0.5" id="animate12" fill="freeze"/></rect></svg>