<svg xmlns="http://www.w3.org/2000/svg" xmlns:xlink="http://www.w3.org/1999/xlink" width="270" height="270"><defs><clipPath id="clip-mask-1"><use xlink:href="#rect-1" /></clipPath><clipPath id="clip-mask-2"><use xlink:href="#rect-2" /></clipPath><clipPath id="clip-mask-3"><use xlink:href="#rect-3" /></clipPath><clipPath id="clip-mask-4"><use xlink:href="#rect-4" /></clipPath><clipPath id="clip-mask-5"><use xlink:href="#rect-5" /></clipPath><clipPath id="clip-mask-6"><use xlink:href="#rect-6" /></clipPath><clipPath id="clip-mask-7"><use xlink:href="#rect-7" /></clipPath><clipPath id="clip-mask-8"><use xlink:href="#rect-8" /></clipPath><clipPath id="clip-mask-9"><use xlink:href="#rect-9" /></clipPath><clipPath id="clip-mask-10"><use xlink:href="#rect-10" /></clipPath><clipPath id="clip-mask-11"><use xlink:href="#rect-11" /></clipPath><clipPath id="clip-mask-12"><use xlink:href="#rect-12" /></clipPath><clipPath id="clip-mask-13"><use xlink:href="#rect-13" /></clipPath></defs><path d="M 0 0 L 270 270 M 270 0 L 0 270 M 135 0 L 135 270 M 0 135 L 270 135" stroke="#CCCCCC" /><path d="M 125 47 Q 122 47 120 47 Q 101 51 93 45 Q 86 41 95 40 Q 111 39 124 36 L 140 33 Q 161 26 167 28 Q 174 30 175 33 Q 177 35 174 36 Q 173 38 162 40 Q 150 42 138 45" fill="#CCCCCC"/><path d="M 97 124 Q 97 125 96 127 Q 95 131 90 126 Q 86 121 84 114 Q 78 90 69 76 Q 67 72 68 71 Q 69 69 72 69 Q 79 70 82 71 L 87 79 Q 89 87 95 111 Q 96 114 96 117" fill="#CCCCCC"/><path d="M 125 72 Q 102 75 90 79 Q 88 79 87 79 L 82 71 Q 94 69 112 66 Q 119 65 125 64 L 137 62 Q 153 59 160 59 Q 183 55 186 58 Q 199 65 203 70 L 177 68 Q 171 65 136 70" fill="#CCCCCC"/><path d="M 168 107 Q 171 101 177 76 Q 179 70 177 68 L 203 70 Q 207 74 202 78 Q 192 85 187 99 Q 181 112 179 115 Q 176 119 173 119 Q 169 119 168 116" fill="#CCCCCC"/><path d="M 125 95 Q 121 96 117 97 Q 112 97 110 96 Q 105 92 109 91 Q 117 89 125 87 L 136 84 Q 144 82 149 83 Q 156 84 158 88 Q 160 91 155 92 Q 146 92 136 94" fill="#CCCCCC"/><path d="M 125 121 Q 98 124 97 124 L 96 117 Q 110 114 125 112 L 135 110 Q 165 104 168 107 L 168 116 Q 153 117 135 120" fill="#CCCCCC"/><path d="M 124 142 Q 124 131 125 121 L 125 112 Q 125 103 125 95 L 125 87 Q 125 79 125 72 L 125 64 Q 125 55 125 47 L 124 36 Q 124 28 117 18 Q 115 14 117 12 Q 119 10 123 10 Q 129 11 138 16 Q 143 20 142 22 Q 141 27 140 33 L 138 45 Q 138 47 137 51 Q 137 57 137 62 L 136 70 Q 136 77 136 84 L 136 94 Q 136 102 135 110 L 135 120 Q 135 130 134 141" fill="#CCCCCC"/><path d="M 144 146 Q 106 154 89 162 Q 86 163 84 162 Q 77 157 73 153 Q 72 150 73 148 Q 74 146 76 146 Q 85 148 91 147 Q 108 144 124 142 L 134 141 Q 150 138 165 135 L 169 140 Q 164 142 159 143 Q 155 143 152 145" fill="#CCCCCC"/><path d="M 165 135 Q 159 129 160 126 Q 160 123 162 123 Q 179 129 182 136 Q 184 141 183 144 Q 182 148 179 147 Q 175 147 169 140" fill="#CCCCCC"/><path d="M 97 177 L 48 190 Q 43 192 37 190 Q 32 189 28 185 Q 24 180 30 179 Q 85 174 132 168 Q 140 167 148 165 L 163 163 Q 194 159 215 155 Q 226 153 240 163 Q 245 167 243 171 Q 242 173 236 173 Q 179 173 163 174 L 149 175" fill="#CCCCCC"/><path d="M 148 165 Q 147 154 145 149 Q 144 147 144 146 L 152 145 Q 155 146 160 150 Q 164 155 163 163 L 163 174 Q 162 190 163 223 Q 165 240 161 248 Q 159 257 155 258 Q 153 259 149 256 L 147 229 Q 151 217 149 175" fill="#CCCCCC"/><path d="M 149 256 Q 143 249 127 238 Q 123 236 124 234 Q 124 232 127 232 Q 133 232 139 233 Q 147 233 147 229" fill="#CCCCCC"/><path d="M 90 195 L 89 192 Q 90 189 91 188 Q 92 188 96 189 Q 117 196 119 203 Q 121 211 119 214 Q 117 217 115 217 Q 111 217 108 214 Q 102 206 96 201" fill="#CCCCCC"/><path d="M 125 47 Q 122 47 120 47 Q 101 51 93 45 Q 86 41 95 40 Q 111 39 124 36 L 140 33 Q 161 26 167 28 Q 174 30 175 33 Q 177 35 174 36 Q 173 38 162 40 Q 150 42 138 45" fill="#000080" clip-path="url(#clip-mask-1)" /><path d="M 97 124 Q 97 125 96 127 Q 95 131 90 126 Q 86 121 84 114 Q 78 90 69 76 Q 67 72 68 71 Q 69 69 72 69 Q 79 70 82 71 L 87 79 Q 89 87 95 111 Q 96 114 96 117" fill="#000080" clip-path="url(#clip-mask-2)" /><path d="M 125 72 Q 102 75 90 79 Q 88 79 87 79 L 82 71 Q 94 69 112 66 Q 119 65 125 64 L 137 62 Q 153 59 160 59 Q 183 55 186 58 Q 199 65 203 70 L 177 68 Q 171 65 136 70" fill="#000080" clip-path="url(#clip-mask-3)" /><path d="M 168 107 Q 171 101 177 76 Q 179 70 177 68 L 203 70 Q 207 74 202 78 Q 192 85 187 99 Q 181 112 179 115 Q 176 119 173 119 Q 169 119 168 116" fill="#000080" clip-path="url(#clip-mask-4)" /><path d="M 125 95 Q 121 96 117 97 Q 112 97 110 96 Q 105 92 109 91 Q 117 89 125 87 L 136 84 Q 144 82 149 83 Q 156 84 158 88 Q 160 91 155 92 Q 146 92 136 94" fill="#000080" clip-path="url(#clip-mask-5)" /><path d="M 125 121 Q 98 124 97 124 L 96 117 Q 110 114 125 112 L 135 110 Q 165 104 168 107 L 168 116 Q 153 117 135 120" fill="#000080" clip-path="url(#clip-mask-6)" /><path d="M 124 142 Q 124 131 125 121 L 125 112 Q 125 103 125 95 L 125 87 Q 125 79 125 72 L 125 64 Q 125 55 125 47 L 124 36 Q 124 28 117 18 Q 115 14 117 12 Q 119 10 123 10 Q 129 11 138 16 Q 143 20 142 22 Q 141 27 140 33 L 138 45 Q 138 47 137 51 Q 137 57 137 62 L 136 70 Q 136 77 136 84 L 136 94 Q 136 102 135 110 L 135 120 Q 135 130 134 141" fill="#000080" clip-path="url(#clip-mask-7)" /><path d="M 144 146 Q 106 154 89 162 Q 86 163 84 162 Q 77 157 73 153 Q 72 150 73 148 Q 74 146 76 146 Q 85 148 91 147 Q 108 144 124 142 L 134 141 Q 150 138 165 135 L 169 140 Q 164 142 159 143 Q 155 143 152 145" fill="#000080" clip-path="url(#clip-mask-8)" /><path d="M 165 135 Q 159 129 160 126 Q 160 123 162 123 Q 179 129 182 136 Q 184 141 183 144 Q 182 148 179 147 Q 175 147 169 140" fill="#000080" clip-path="url(#clip-mask-9)" /><path d="M 97 177 L 48 190 Q 43 192 37 190 Q 32 189 28 185 Q 24 180 30 179 Q 85 174 132 168 Q 140 167 148 165 L 163 163 Q 194 159 215 155 Q 226 153 240 163 Q 245 167 243 171 Q 242 173 236 173 Q 179 173 163 174 L 149 175" fill="#0000ff" clip-path="url(#clip-mask-10)" /><path d="M 148 165 Q 147 154 145 149 Q 144 147 144 146 L 152 145 Q 155 146 160 150 Q 164 155 163 163 L 163 174 Q 162 190 163 223 Q 165 240 161 248 Q 159 257 155 258 Q 153 259 149 256 L 147 229 Q 151 217 149 175" fill="#0000ff" clip-path="url(#clip-mask-11)" /><path d="M 149 256 Q 143 249 127 238 Q 123 236 124 234 Q 124 232 127 232 Q 133 232 139 233 Q 147 233 147 229" fill="#0000ff" clip-path="url(#clip-mask-12)" /><path d="M 90 195 L 89 192 Q 90 189 91 188 Q 92 188 96 189 Q 117 196 119 203 Q 121 211 119 214 Q 117 217 115 217 Q 111 217 108 214 Q 102 206 96 201" fill="#0000ff" clip-path="url(#clip-mask-13)" /><rect x="86" y="26" width="91" height="25" id="rect-1" fill="transparent" stroke="#000000"><animate attributeName="x" from="-5" to="86" dur="0.337" begin="0; animate13.end + 1s" id="animate1" fill="freeze"/></rect><rect x="67" y="69" width="30" height="62" id="rect-2" fill="transparent" stroke="#000000"><set attributeName="y" to="7" begin="0; animate13.end + 1s" /><animate attributeName="y" from="7" to="69" dur="0.230" begin="animate1.end + 0.5" id="animate2" fill="freeze"/></rect><rect x="82" y="55" width="121" height="24" id="rect-3" fill="transparent" stroke="#000000"><set attributeName="x" to="-39" begin="0; animate13.end + 1s" /><animate attributeName="x" from="-39" to="82" dur="0.448" begin="animate2.end + 0.5" id="animate3" fill="freeze"/></rect><rect x="168" y="68" width="39" height="51" id="rect-4" fill="transparent" stroke="#000000"><set attributeName="y" to="17" begin="0; animate13.end + 1s" /><animate attributeName="y" from="17" to="68" dur="0.189" begin="animate3.end" id="animate4" fill="freeze"/></rect><rect x="105" y="82" width="55" height="15" id="rect-5" fill="transparent" stroke="#000000"><set attributeName="x" to="50" begin="0; animate13.end + 1s" /><animate attributeName="x" from="50" to="105" dur="0.204" begin="animate4.end + 0.5" id="animate5" fill="freeze"/></rect><rect x="96" y="104" width="72" height="20" id="rect-6" fill="transparent" stroke="#000000"><set attributeName="x" to="24" begin="0; animate13.end + 1s" /><animate attributeName="x" from="24" to="96" dur="0.267" begin="animate5.end + 0.5" id="animate6" fill="freeze"/></rect><rect x="115" y="10" width="28" height="132" id="rect-7" fill="transparent" stroke="#000000"><set attributeName="y" to="-122" begin="0; animate13.end + 1s" /><animate attributeName="y" from="-122" to="10" dur="0.489" begin="animate6.end + 0.5" id="animate7" fill="freeze"/></rect><rect x="72" y="135" width="97" height="28" id="rect-8" fill="transparent" stroke="#000000"><set attributeName="x" to="-25" begin="0; animate13.end + 1s" /><animate attributeName="x" from="-25" to="72" dur="0.359" begin="animate7.end + 0.5" id="animate8" fill="freeze"/></rect><rect x="159" y="123" width="25" height="25" id="rect-9" fill="transparent" stroke="#000000"><set attributeName="y" to="98" begin="0; animate13.end + 1s" /><animate attributeName="y" from="98" to="123" dur="0.093" begin="animate8.end + 0.5" id="animate9" fill="freeze"/></rect><rect x="24" y="153" width="221" height="39" id="rect-10" fill="transparent" stroke="#000000"><set attributeName="x" to="-197" begin="0; animate13.end + 1s" /><animate attributeName="x" from="-197" to="24" dur="0.819" begin="animate9.end + 0.5" id="animate10" fill="freeze"/></rect><rect x="144" y="145" width="21" height="114" id="rect-11" fill="transparent" stroke="#000000"><set attributeName="y" to="31" begin="0; animate13.end + 1s" /><animate attributeName="y" from="31" to="145" dur="0.422" begin="animate10.end + 0.5" id="animate11" fill="freeze"/></rect><rect x="123" y="229" width="26" height="27" id="rect-12" fill="transparent" stroke="#000000"><set attributeName="x" to="149" begin="0; animate13.end + 1s" /><animate attributeName="x" from="149" to="123" dur="0.096" begin="animate11.end" id="animate12" fill="freeze"/></rect><rect x="89" y="188" width="32" height="29" id="rect-13" fill="transparent" stroke="#000000"><set attributeName="x" to="57" begin="0; animate13.end + 1s" /><animate attributeName="x" from="57" to="89" dur="0.119" begin="animate12.end + 0.5" id="animate13" fill="freeze"/></rect></svg>