<svg xmlns="http://www.w3.org/2000/svg" xmlns:xlink="http://www.w3.org/1999/xlink" width="270" height="270"><defs><clipPath id="clip-mask-1"><use xlink:href="#rect-1" /></clipPath><clipPath id="clip-mask-2"><use xlink:href="#rect-2" /></clipPath><clipPath id="clip-mask-3"><use xlink:href="#rect-3" /></clipPath><clipPath id="clip-mask-4"><use xlink:href="#rect-4" /></clipPath></defs><path d="M 0 0 L 270 270 M 270 0 L 0 270 M 135 0 L 135 270 M 0 135 L 270 135" stroke="#CCCCCC" /><path d="M 125 49 L 116 39 Q 113 36 115 33 Q 117 30 123 31 Q 134 32 145 39 Q 151 43 149 49 Q 143 64 144 78 Q 142 161 144 201 Q 146 217 142 226 Q 137 235 133 237 Q 129 239 125 235 L 123 206 Q 126 204 126 198 Q 129 107 126 63" fill="#CCCCCC"/><path d="M 125 235 Q 117 225 100 213 Q 93 207 93 206 Q 92 202 96 203 Q 105 204 113 206 Q 119 208 123 206" fill="#CCCCCC"/><path d="M 69 110 L 72 110 Q 73 111 74 113 Q 75 121 72 130 Q 69 144 59 158 Q 52 167 45 170 Q 38 173 37 167 Q 33 155 41 148 Q 55 131 67 112" fill="#CCCCCC"/><path d="M 180 109 L 180 105 Q 181 101 183 103 Q 230 122 233 140 Q 236 154 232 157 Q 229 160 227 160 Q 222 158 217 152 Q 198 129 182 113" fill="#CCCCCC"/><path d="M 125 49 L 116 39 Q 113 36 115 33 Q 117 30 123 31 Q 134 32 145 39 Q 151 43 149 49 Q 143 64 144 78 Q 142 161 144 201 Q 146 217 142 226 Q 137 235 133 237 Q 129 239 125 235 L 123 206 Q 126 204 126 198 Q 129 107 126 63" fill="#0000ff" clip-path="url(#clip-mask-1)" /><path d="M 125 235 Q 117 225 100 213 Q 93 207 93 206 Q 92 202 96 203 Q 105 204 113 206 Q 119 208 123 206" fill="#0000ff" clip-path="url(#clip-mask-2)" /><path d="M 69 110 L 72 110 Q 73 111 74 113 Q 75 121 72 130 Q 69 144 59 158 Q 52 167 45 170 Q 38 173 37 167 Q 33 155 41 148 Q 55 131 67 112" fill="#0000ff" clip-path="url(#clip-mask-3)" /><path d="M 180 109 L 180 105 Q 181 101 183 103 Q 230 122 233 140 Q 236 154 232 157 Q 229 160 227 160 Q 222 158 217 152 Q 198 129 182 113" fill="#0000ff" clip-path="url(#clip-mask-4)" /><rect x="113" y="30" width="38" height="209" id="rect-1" fill="transparent" stroke="#000000"><animate attributeName="y" from="-179" to="30" dur="0.774" begin="0; animate4.end + 1s" id="animate1" fill="freeze"/></rect><rect x="92" y="202" width="33" height="33" id="rect-2" fill="transparent" stroke="#000000"><set attributeName="x" to="125" begin="0; animate4.end + 1s" /><animate attributeName="x" from="125" to="92" dur="0.122" begin="animate1.end" id="animate2" fill="freeze"/></rect><rect x="33" y="110" width="42" height="63" id="rect-3" fill="transparent" stroke="#000000"><set attributeName="y" to="47" begin="0; animate4.end + 1s" /><animate attributeName="y" from="47" to="110" dur="0.233" begin="animate2.end + 0.5" id="animate3" fill="freeze"/></rect><rect x="180" y="101" width="56" height="59" id="rect-4" fill="transparent" stroke="#000000"><set attributeName="x" to="124" begin="0; animate4.end + 1s" /><animate attributeName="x" from="124" to="180" dur="0.207" begin="animate3.end + 0.5" id="animate4" fill="freeze"/></rect></svg>