<svg xmlns="http://www.w3.org/2000/svg" xmlns:xlink="http://www.w3.org/1999/xlink" width="270" height="270"><defs><clipPath id="clip-mask-1"><use xlink:href="#rect-1" /></clipPath><clipPath id="clip-mask-2"><use xlink:href="#rect-2" /></clipPath><clipPath id="clip-mask-3"><use xlink:href="#rect-3" /></clipPath><clipPath id="clip-mask-4"><use xlink:href="#rect-4" /></clipPath><clipPath id="clip-mask-5"><use xlink:href="#rect-5" /></clipPath><clipPath id="clip-mask-6"><use xlink:href="#rect-6" /></clipPath><clipPath id="clip-mask-7"><use xlink:href="#rect-7" /></clipPath><clipPath id="clip-mask-8"><use xlink:href="#rect-8" /></clipPath><clipPath id="clip-mask-9"><use xlink:href="#rect-9" /></clipPath><clipPath id="clip-mask-10"><use xlink:href="#rect-10" /></clipPath><clipPath id="clip-mask-11"><use xlink:href="#rect-11" /></clipPath></defs><path d="M 0 0 L 270 270 M 270 0 L 0 270 M 135 0 L 135 270 M 0 135 L 270 135" stroke="#CCCCCC" /><path d="M 116 115 Q 117 76 114 41 Q 114 36 108 28 Q 106 24 108 22 Q 110 19 115 20 Q 122 21 132 27 Q 138 31 137 34 Q 133 47 129 114" fill="#CCCCCC"/><path d="M 60 69 L 60 66 Q 60 62 62 62 Q 66 61 76 66 Q 93 73 95 87 Q 95 92 93 95 Q 89 99 85 98 Q 76 92 64 75" fill="#CCCCCC"/><path d="M 177 49 L 177 44 Q 176 40 180 39 Q 183 39 190 43 Q 197 48 201 53 Q 204 58 197 61 Q 190 64 171 76 Q 163 82 147 90 Q 142 91 145 86 Q 167 64 173 54" fill="#CCCCCC"/><path d="M 58 149 L 59 190 Q 59 219 51 226 Q 48 228 45 224 Q 35 213 41 194 Q 50 150 37 126 Q 35 123 39 121 Q 49 120 55 126 L 58 137" fill="#CCCCCC"/><path d="M 55 126 Q 75 123 96 119 Q 105 116 116 115 L 129 114 Q 146 111 167 109 Q 190 106 199 104 Q 207 101 214 106 Q 225 111 230 116 L 202 121 Q 200 118 196 119 Q 94 125 62 136 Q 60 137 58 137" fill="#CCCCCC"/><path d="M 230 116 Q 234 118 229 124 Q 225 130 224 141 Q 219 201 215 218 Q 212 231 205 242 Q 201 249 197 249 Q 194 250 191 245 L 198 205 Q 204 179 204 133 Q 204 122 202 121" fill="#CCCCCC"/><path d="M 191 245 Q 187 236 170 217 Q 167 213 167 210 Q 168 209 172 210 Q 179 212 187 214 Q 196 215 198 205" fill="#CCCCCC"/><path d="M 103 202 L 102 204 Q 101 208 96 203 Q 93 199 92 192 Q 89 170 82 158 Q 80 154 82 152 Q 83 150 86 152 Q 94 153 97 155 L 100 162 Q 100 169 103 188 L 103 197" fill="#CCCCCC"/><path d="M 143 157 Q 141 155 139 156 Q 127 156 100 162 L 97 155 Q 127 149 140 144 Q 145 142 149 144 Q 162 151 167 154" fill="#CCCCCC"/><path d="M 139 181 Q 142 173 143 163 Q 144 159 143 157 L 167 154 Q 170 159 166 163 Q 158 168 152 184" fill="#CCCCCC"/><path d="M 103 188 Q 118 186 137 181 Q 138 181 139 181 L 152 184 Q 156 187 156 189 Q 156 192 153 192 Q 123 194 109 197 Q 106 197 103 197" fill="#CCCCCC"/><path d="M 116 115 Q 117 76 114 41 Q 114 36 108 28 Q 106 24 108 22 Q 110 19 115 20 Q 122 21 132 27 Q 138 31 137 34 Q 133 47 129 114" fill="#0000ff" clip-path="url(#clip-mask-1)" /><path d="M 60 69 L 60 66 Q 60 62 62 62 Q 66 61 76 66 Q 93 73 95 87 Q 95 92 93 95 Q 89 99 85 98 Q 76 92 64 75" fill="#0000ff" clip-path="url(#clip-mask-2)" /><path d="M 177 49 L 177 44 Q 176 40 180 39 Q 183 39 190 43 Q 197 48 201 53 Q 204 58 197 61 Q 190 64 171 76 Q 163 82 147 90 Q 142 91 145 86 Q 167 64 173 54" fill="#0000ff" clip-path="url(#clip-mask-3)" /><path d="M 58 149 L 59 190 Q 59 219 51 226 Q 48 228 45 224 Q 35 213 41 194 Q 50 150 37 126 Q 35 123 39 121 Q 49 120 55 126 L 58 137" fill="#000080" clip-path="url(#clip-mask-4)" /><path d="M 55 126 Q 75 123 96 119 Q 105 116 116 115 L 129 114 Q 146 111 167 109 Q 190 106 199 104 Q 207 101 214 106 Q 225 111 230 116 L 202 121 Q 200 118 196 119 Q 94 125 62 136 Q 60 137 58 137" fill="#000080" clip-path="url(#clip-mask-5)" /><path d="M 230 116 Q 234 118 229 124 Q 225 130 224 141 Q 219 201 215 218 Q 212 231 205 242 Q 201 249 197 249 Q 194 250 191 245 L 198 205 Q 204 179 204 133 Q 204 122 202 121" fill="#000080" clip-path="url(#clip-mask-6)" /><path d="M 191 245 Q 187 236 170 217 Q 167 213 167 210 Q 168 209 172 210 Q 179 212 187 214 Q 196 215 198 205" fill="#000080" clip-path="url(#clip-mask-7)" /><path d="M 103 202 L 102 204 Q 101 208 96 203 Q 93 199 92 192 Q 89 170 82 158 Q 80 154 82 152 Q 83 150 86 152 Q 94 153 97 155 L 100 162 Q 100 169 103 188 L 103 197" fill="#000080" clip-path="url(#clip-mask-8)" /><path d="M 143 157 Q 141 155 139 156 Q 127 156 100 162 L 97 155 Q 127 149 140 144 Q 145 142 149 144 Q 162 151 167 154" fill="#000080" clip-path="url(#clip-mask-9)" /><path d="M 139 181 Q 142 173 143 163 Q 144 159 143 157 L 167 154 Q 170 159 166 163 Q 158 168 152 184" fill="#000080" clip-path="url(#clip-mask-10)" /><path d="M 103 188 Q 118 186 137 181 Q 138 181 139 181 L 152 184 Q 156 187 156 189 Q 156 192 153 192 Q 123 194 109 197 Q 106 197 103 197" fill="#000080" clip-path="url(#clip-mask-11)" /><rect x="106" y="19" width="32" height="96" id="rect-1" fill="transparent" stroke="#000000"><animate attributeName="y" from="-77" to="19" dur="0.356" begin="0; animate11.end + 1s" id="animate1" fill="freeze"/></rect><rect x="60" y="61" width="35" height="38" id="rect-2" fill="transparent" stroke="#000000"><set attributeName="x" to="25" begin="0; animate11.end + 1s" /><animate attributeName="x" from="25" to="60" dur="0.130" begin="animate1.end + 0.5" id="animate2" fill="freeze"/></rect><rect x="142" y="39" width="62" height="52" id="rect-3" fill="transparent" stroke="#000000"><set attributeName="y" to="-13" begin="0; animate11.end + 1s" /><animate attributeName="y" from="-13" to="39" dur="0.193" begin="animate2.end + 0.5" id="animate3" fill="freeze"/></rect><rect x="35" y="120" width="24" height="108" id="rect-4" fill="transparent" stroke="#000000"><set attributeName="y" to="12" begin="0; animate11.end + 1s" /><animate attributeName="y" from="12" to="120" dur="0.400" begin="animate3.end + 0.5" id="animate4" fill="freeze"/></rect><rect x="55" y="101" width="175" height="36" id="rect-5" fill="transparent" stroke="#000000"><set attributeName="x" to="-120" begin="0; animate11.end + 1s" /><animate attributeName="x" from="-120" to="55" dur="0.648" begin="animate4.end + 0.5" id="animate5" fill="freeze"/></rect><rect x="191" y="116" width="43" height="134" id="rect-6" fill="transparent" stroke="#000000"><set attributeName="y" to="-18" begin="0; animate11.end + 1s" /><animate attributeName="y" from="-18" to="116" dur="0.496" begin="animate5.end" id="animate6" fill="freeze"/></rect><rect x="167" y="205" width="31" height="40" id="rect-7" fill="transparent" stroke="#000000"><set attributeName="x" to="198" begin="0; animate11.end + 1s" /><animate attributeName="x" from="198" to="167" dur="0.115" begin="animate6.end" id="animate7" fill="freeze"/></rect><rect x="80" y="150" width="23" height="58" id="rect-8" fill="transparent" stroke="#000000"><set attributeName="y" to="92" begin="0; animate11.end + 1s" /><animate attributeName="y" from="92" to="150" dur="0.215" begin="animate7.end + 0.5" id="animate8" fill="freeze"/></rect><rect x="97" y="142" width="70" height="20" id="rect-9" fill="transparent" stroke="#000000"><set attributeName="x" to="27" begin="0; animate11.end + 1s" /><animate attributeName="x" from="27" to="97" dur="0.259" begin="animate8.end + 0.5" id="animate9" fill="freeze"/></rect><rect x="139" y="154" width="31" height="30" id="rect-10" fill="transparent" stroke="#000000"><set attributeName="y" to="124" begin="0; animate11.end + 1s" /><animate attributeName="y" from="124" to="154" dur="0.111" begin="animate9.end" id="animate10" fill="freeze"/></rect><rect x="103" y="181" width="53" height="16" id="rect-11" fill="transparent" stroke="#000000"><set attributeName="x" to="50" begin="0; animate11.end + 1s" /><animate attributeName="x" from="50" to="103" dur="0.196" begin="animate10.end + 0.5" id="animate11" fill="freeze"/></rect></svg>