<svg xmlns="http://www.w3.org/2000/svg" xmlns:xlink="http://www.w3.org/1999/xlink" width="270" height="270"><defs><clipPath id="clip-mask-1"><use xlink:href="#rect-1" /></clipPath><clipPath id="clip-mask-2"><use xlink:href="#rect-2" /></clipPath><clipPath id="clip-mask-3"><use xlink:href="#rect-3" /></clipPath><clipPath id="clip-mask-4"><use xlink:href="#rect-4" /></clipPath><clipPath id="clip-mask-5"><use xlink:href="#rect-5" /></clipPath><clipPath id="clip-mask-6"><use xlink:href="#rect-6" /></clipPath><clipPath id="clip-mask-7"><use xlink:href="#rect-7" /></clipPath><clipPath id="clip-mask-8"><use xlink:href="#rect-8" /></clipPath></defs><path d="M 0 0 L 270 270 M 270 0 L 0 270 M 135 0 L 135 270 M 0 135 L 270 135" stroke="#CCCCCC" /><path d="M 145 46 L 169 37 Q 186 28 207 48 L 179 49 Q 176 46 170 48 Q 116 59 112 60 L 109 51" fill="#CCCCCC"/><path d="M 207 48 Q 212 53 206 58 Q 197 63 187 84 L 170 83 Q 182 54 179 49" fill="#CCCCCC"/><path d="M 106 94 Q 135 91 170 83 L 187 84 Q 194 90 194 91 Q 194 94 190 94 Q 137 98 112 104 Q 109 104 105 104" fill="#CCCCCC"/><path d="M 112 60 Q 112 63 110 69 Q 108 82 106 94 L 105 104 Q 102 120 99 134 Q 85 187 58 213 Q 48 222 31 231 Q 25 235 20 234 Q 16 234 17 232 Q 18 230 23 227 Q 53 205 66 180 Q 91 133 93 73 Q 94 60 89 50 Q 85 43 91 43 Q 95 42 109 51 L 109 51" fill="#CCCCCC"/><path d="M 150 159 L 159 153 Q 185 135 185 126 Q 185 122 188 122 Q 192 122 198 127 Q 205 133 207 139 Q 209 145 203 146 Q 195 148 189 151 Q 148 170 140 174 L 141 166" fill="#CCCCCC"/><path d="M 140 174 Q 138 205 142 213 L 133 223 Q 126 212 127 180 Q 127 165 127 150 Q 129 131 124 120 Q 122 115 125 113 Q 129 112 141 121 Q 147 125 145 131 Q 143 143 141 166" fill="#CCCCCC"/><path d="M 142 213 Q 151 224 169 225 Q 185 226 211 221 Q 220 220 221 217 L 251 225 Q 253 229 251 232 Q 246 240 197 241 Q 165 241 150 236 Q 139 232 133 223" fill="#CCCCCC"/><path d="M 221 217 Q 227 214 240 179 Q 242 173 244 175 Q 247 176 247 182 Q 247 207 251 225" fill="#CCCCCC"/><path d="M 145 46 L 169 37 Q 186 28 207 48 L 179 49 Q 176 46 170 48 Q 116 59 112 60 L 109 51" fill="#0000ff" clip-path="url(#clip-mask-1)" /><path d="M 207 48 Q 212 53 206 58 Q 197 63 187 84 L 170 83 Q 182 54 179 49" fill="#0000ff" clip-path="url(#clip-mask-2)" /><path d="M 106 94 Q 135 91 170 83 L 187 84 Q 194 90 194 91 Q 194 94 190 94 Q 137 98 112 104 Q 109 104 105 104" fill="#0000ff" clip-path="url(#clip-mask-3)" /><path d="M 112 60 Q 112 63 110 69 Q 108 82 106 94 L 105 104 Q 102 120 99 134 Q 85 187 58 213 Q 48 222 31 231 Q 25 235 20 234 Q 16 234 17 232 Q 18 230 23 227 Q 53 205 66 180 Q 91 133 93 73 Q 94 60 89 50 Q 85 43 91 43 Q 95 42 109 51 L 109 51" fill="#0000ff" clip-path="url(#clip-mask-4)" /><path d="M 150 159 L 159 153 Q 185 135 185 126 Q 185 122 188 122 Q 192 122 198 127 Q 205 133 207 139 Q 209 145 203 146 Q 195 148 189 151 Q 148 170 140 174 L 141 166" fill="#000080" clip-path="url(#clip-mask-5)" /><path d="M 140 174 Q 138 205 142 213 L 133 223 Q 126 212 127 180 Q 127 165 127 150 Q 129 131 124 120 Q 122 115 125 113 Q 129 112 141 121 Q 147 125 145 131 Q 143 143 141 166" fill="#000080" clip-path="url(#clip-mask-6)" /><path d="M 142 213 Q 151 224 169 225 Q 185 226 211 221 Q 220 220 221 217 L 251 225 Q 253 229 251 232 Q 246 240 197 241 Q 165 241 150 236 Q 139 232 133 223" fill="#000080" clip-path="url(#clip-mask-7)" /><path d="M 221 217 Q 227 214 240 179 Q 242 173 244 175 Q 247 176 247 182 Q 247 207 251 225" fill="#000080" clip-path="url(#clip-mask-8)" /><rect x="109" y="28" width="98" height="32" id="rect-1" fill="transparent" stroke="#000000"><animate attributeName="x" from="11" to="109" dur="0.363" begin="0; animate8.end + 1s" id="animate1" fill="freeze"/></rect><rect x="170" y="48" width="42" height="36" id="rect-2" fill="transparent" stroke="#000000"><set attributeName="y" to="12" begin="0; animate8.end + 1s" /><animate attributeName="y" from="12" to="48" dur="0.133" begin="animate1.end" id="animate2" fill="freeze"/></rect><rect x="105" y="83" width="89" height="21" id="rect-3" fill="transparent" stroke="#000000"><set attributeName="x" to="16" begin="0; animate8.end + 1s" /><animate attributeName="x" from="16" to="105" dur="0.330" begin="animate2.end + 0.5" id="animate3" fill="freeze"/></rect><rect x="16" y="42" width="96" height="193" id="rect-4" fill="transparent" stroke="#000000"><set attributeName="y" to="-151" begin="0; animate8.end + 1s" /><animate attributeName="y" from="-151" to="42" dur="0.715" begin="animate3.end + 0.5" id="animate4" fill="freeze"/></rect><rect x="140" y="122" width="69" height="52" id="rect-5" fill="transparent" stroke="#000000"><set attributeName="x" to="209" begin="0; animate8.end + 1s" /><animate attributeName="x" from="209" to="140" dur="0.256" begin="animate4.end + 0.5" id="animate5" fill="freeze"/></rect><rect x="122" y="112" width="25" height="111" id="rect-6" fill="transparent" stroke="#000000"><set attributeName="y" to="1" begin="0; animate8.end + 1s" /><animate attributeName="y" from="1" to="112" dur="0.411" begin="animate5.end + 0.5" id="animate6" fill="freeze"/></rect><rect x="133" y="213" width="120" height="28" id="rect-7" fill="transparent" stroke="#000000"><set attributeName="x" to="13" begin="0; animate8.end + 1s" /><animate attributeName="x" from="13" to="133" dur="0.444" begin="animate6.end" id="animate7" fill="freeze"/></rect><rect x="221" y="173" width="30" height="52" id="rect-8" fill="transparent" stroke="#000000"><set attributeName="y" to="225" begin="0; animate8.end + 1s" /><animate attributeName="y" from="225" to="173" dur="0.193" begin="animate7.end" id="animate8" fill="freeze"/></rect></svg>