<svg xmlns="http://www.w3.org/2000/svg" xmlns:xlink="http://www.w3.org/1999/xlink" width="270" height="270"><defs><clipPath id="clip-mask-1"><use xlink:href="#rect-1" /></clipPath><clipPath id="clip-mask-2"><use xlink:href="#rect-2" /></clipPath><clipPath id="clip-mask-3"><use xlink:href="#rect-3" /></clipPath><clipPath id="clip-mask-4"><use xlink:href="#rect-4" /></clipPath><clipPath id="clip-mask-5"><use xlink:href="#rect-5" /></clipPath><clipPath id="clip-mask-6"><use xlink:href="#rect-6" /></clipPath><clipPath id="clip-mask-7"><use xlink:href="#rect-7" /></clipPath><clipPath id="clip-mask-8"><use xlink:href="#rect-8" /></clipPath><clipPath id="clip-mask-9"><use xlink:href="#rect-9" /></clipPath><clipPath id="clip-mask-10"><use xlink:href="#rect-10" /></clipPath></defs><path d="M 0 0 L 270 270 M 270 0 L 0 270 M 135 0 L 135 270 M 0 135 L 270 135" stroke="#CCCCCC" /><path d="M 148 25 L 178 14 Q 184 12 189 15 Q 203 22 207 27 L 181 29 Q 178 26 170 28 Q 140 33 108 39 Q 106 39 105 40 L 102 31" fill="#CCCCCC"/><path d="M 207 27 Q 211 31 206 36 Q 199 40 192 54 L 177 51 Q 179 43 182 35 Q 183 31 181 29" fill="#CCCCCC"/><path d="M 192 54 Q 197 57 197 59 Q 196 61 194 62 Q 134 68 106 74 Q 101 75 97 73 L 99 65 Q 133 61 176 51 Q 177 51 177 51" fill="#CCCCCC"/><path d="M 97 73 Q 89 127 67 169 Q 62 178 57 186 Q 32 218 23 220 Q 20 221 21 218 Q 21 216 23 214 Q 51 173 62 150 Q 78 112 83 63 Q 84 58 85 53 Q 86 35 81 28 Q 80 24 83 22 Q 87 21 92 24 Q 98 27 102 31 L 105 40 Q 103 42 101 52 Q 100 58 99 65" fill="#CCCCCC"/><path d="M 115 86 L 115 84 Q 115 81 117 81 Q 121 80 127 84 Q 132 86 136 89 Q 140 93 140 99 Q 140 103 138 106 Q 135 108 132 107 Q 126 104 118 90" fill="#CCCCCC"/><path d="M 156 112 Q 159 106 162 101 Q 174 77 173 72 Q 171 69 174 68 Q 177 67 183 69 Q 190 71 194 74 Q 198 78 193 81 Q 189 84 165 110" fill="#CCCCCC"/><path d="M 166 120 Q 147 123 132 126 L 118 129 Q 116 130 114 130 Q 104 132 96 126 Q 90 122 98 121 Q 147 114 156 112 L 165 110 Q 172 108 179 107 Q 203 100 210 105 Q 215 108 215 111 Q 213 114 210 113 Q 175 118 175 118" fill="#CCCCCC"/><path d="M 146 166 L 132 170 L 118 172 Q 107 174 96 177 Q 86 180 78 172 Q 73 167 79 167 Q 100 164 120 162 L 134 159 Q 163 154 170 154 L 183 152 Q 201 148 214 146 Q 231 142 245 153 Q 249 156 248 159 Q 246 163 228 162 Q 203 162 183 164 L 170 165" fill="#CCCCCC"/><path d="M 132 170 Q 125 210 106 227 Q 90 242 81 241 Q 78 241 79 239 Q 79 238 83 234 Q 113 209 118 174 Q 118 173 118 172 L 120 162 Q 122 136 118 129 L 132 126 Q 133 127 135 129 Q 140 132 138 137 Q 138 139 136 144 Q 135 152 134 159" fill="#CCCCCC"/><path d="M 170 154 Q 170 126 167 121 Q 166 120 166 120 L 175 118 Q 179 121 184 125 Q 186 126 185 130 Q 184 137 183 152 L 183 164 Q 184 201 184 236 Q 186 244 182 253 Q 181 257 177 257 Q 175 255 172 250 Q 163 237 165 226 Q 169 216 170 176 Q 170 170 170 165" fill="#CCCCCC"/><path d="M 148 25 L 178 14 Q 184 12 189 15 Q 203 22 207 27 L 181 29 Q 178 26 170 28 Q 140 33 108 39 Q 106 39 105 40 L 102 31" fill="#0000ff" clip-path="url(#clip-mask-1)" /><path d="M 207 27 Q 211 31 206 36 Q 199 40 192 54 L 177 51 Q 179 43 182 35 Q 183 31 181 29" fill="#0000ff" clip-path="url(#clip-mask-2)" /><path d="M 192 54 Q 197 57 197 59 Q 196 61 194 62 Q 134 68 106 74 Q 101 75 97 73 L 99 65 Q 133 61 176 51 Q 177 51 177 51" fill="#0000ff" clip-path="url(#clip-mask-3)" /><path d="M 97 73 Q 89 127 67 169 Q 62 178 57 186 Q 32 218 23 220 Q 20 221 21 218 Q 21 216 23 214 Q 51 173 62 150 Q 78 112 83 63 Q 84 58 85 53 Q 86 35 81 28 Q 80 24 83 22 Q 87 21 92 24 Q 98 27 102 31 L 105 40 Q 103 42 101 52 Q 100 58 99 65" fill="#0000ff" clip-path="url(#clip-mask-4)" /><path d="M 115 86 L 115 84 Q 115 81 117 81 Q 121 80 127 84 Q 132 86 136 89 Q 140 93 140 99 Q 140 103 138 106 Q 135 108 132 107 Q 126 104 118 90" fill="#000080" clip-path="url(#clip-mask-5)" /><path d="M 156 112 Q 159 106 162 101 Q 174 77 173 72 Q 171 69 174 68 Q 177 67 183 69 Q 190 71 194 74 Q 198 78 193 81 Q 189 84 165 110" fill="#000080" clip-path="url(#clip-mask-6)" /><path d="M 166 120 Q 147 123 132 126 L 118 129 Q 116 130 114 130 Q 104 132 96 126 Q 90 122 98 121 Q 147 114 156 112 L 165 110 Q 172 108 179 107 Q 203 100 210 105 Q 215 108 215 111 Q 213 114 210 113 Q 175 118 175 118" fill="#000080" clip-path="url(#clip-mask-7)" /><path d="M 146 166 L 132 170 L 118 172 Q 107 174 96 177 Q 86 180 78 172 Q 73 167 79 167 Q 100 164 120 162 L 134 159 Q 163 154 170 154 L 183 152 Q 201 148 214 146 Q 231 142 245 153 Q 249 156 248 159 Q 246 163 228 162 Q 203 162 183 164 L 170 165" fill="#000080" clip-path="url(#clip-mask-8)" /><path d="M 132 170 Q 125 210 106 227 Q 90 242 81 241 Q 78 241 79 239 Q 79 238 83 234 Q 113 209 118 174 Q 118 173 118 172 L 120 162 Q 122 136 118 129 L 132 126 Q 133 127 135 129 Q 140 132 138 137 Q 138 139 136 144 Q 135 152 134 159" fill="#000080" clip-path="url(#clip-mask-9)" /><path d="M 170 154 Q 170 126 167 121 Q 166 120 166 120 L 175 118 Q 179 121 184 125 Q 186 126 185 130 Q 184 137 183 152 L 183 164 Q 184 201 184 236 Q 186 244 182 253 Q 181 257 177 257 Q 175 255 172 250 Q 163 237 165 226 Q 169 216 170 176 Q 170 170 170 165" fill="#000080" clip-path="url(#clip-mask-10)" /><rect x="102" y="12" width="105" height="28" id="rect-1" fill="transparent" stroke="#000000"><animate attributeName="x" from="-3" to="102" dur="0.389" begin="0; animate10.end + 1s" id="animate1" fill="freeze"/></rect><rect x="177" y="27" width="34" height="27" id="rect-2" fill="transparent" stroke="#000000"><set attributeName="y" to="0" begin="0; animate10.end + 1s" /><animate attributeName="y" from="0" to="27" dur="0.100" begin="animate1.end" id="animate2" fill="freeze"/></rect><rect x="97" y="51" width="100" height="24" id="rect-3" fill="transparent" stroke="#000000"><set attributeName="x" to="-3" begin="0; animate10.end + 1s" /><animate attributeName="x" from="-3" to="97" dur="0.370" begin="animate2.end + 0.5" id="animate3" fill="freeze"/></rect><rect x="20" y="21" width="85" height="200" id="rect-4" fill="transparent" stroke="#000000"><set attributeName="y" to="-179" begin="0; animate10.end + 1s" /><animate attributeName="y" from="-179" to="21" dur="0.741" begin="animate3.end + 0.5" id="animate4" fill="freeze"/></rect><rect x="115" y="80" width="25" height="28" id="rect-5" fill="transparent" stroke="#000000"><set attributeName="x" to="90" begin="0; animate10.end + 1s" /><animate attributeName="x" from="90" to="115" dur="0.093" begin="animate4.end + 0.5" id="animate5" fill="freeze"/></rect><rect x="156" y="67" width="42" height="45" id="rect-6" fill="transparent" stroke="#000000"><set attributeName="y" to="22" begin="0; animate10.end + 1s" /><animate attributeName="y" from="22" to="67" dur="0.167" begin="animate5.end + 0.5" id="animate6" fill="freeze"/></rect><rect x="90" y="100" width="125" height="32" id="rect-7" fill="transparent" stroke="#000000"><set attributeName="x" to="-35" begin="0; animate10.end + 1s" /><animate attributeName="x" from="-35" to="90" dur="0.463" begin="animate6.end + 0.5" id="animate7" fill="freeze"/></rect><rect x="73" y="142" width="176" height="38" id="rect-8" fill="transparent" stroke="#000000"><set attributeName="x" to="-103" begin="0; animate10.end + 1s" /><animate attributeName="x" from="-103" to="73" dur="0.652" begin="animate7.end + 0.5" id="animate8" fill="freeze"/></rect><rect x="78" y="126" width="62" height="116" id="rect-9" fill="transparent" stroke="#000000"><set attributeName="y" to="10" begin="0; animate10.end + 1s" /><animate attributeName="y" from="10" to="126" dur="0.430" begin="animate8.end + 0.5" id="animate9" fill="freeze"/></rect><rect x="163" y="118" width="23" height="139" id="rect-10" fill="transparent" stroke="#000000"><set attributeName="y" to="-21" begin="0; animate10.end + 1s" /><animate attributeName="y" from="-21" to="118" dur="0.515" begin="animate9.end + 0.5" id="animate10" fill="freeze"/></rect></svg>