<svg xmlns="http://www.w3.org/2000/svg" xmlns:xlink="http://www.w3.org/1999/xlink" width="270" height="270"><defs><clipPath id="clip-mask-1"><use xlink:href="#rect-1" /></clipPath><clipPath id="clip-mask-2"><use xlink:href="#rect-2" /></clipPath><clipPath id="clip-mask-3"><use xlink:href="#rect-3" /></clipPath><clipPath id="clip-mask-4"><use xlink:href="#rect-4" /></clipPath><clipPath id="clip-mask-5"><use xlink:href="#rect-5" /></clipPath><clipPath id="clip-mask-6"><use xlink:href="#rect-6" /></clipPath><clipPath id="clip-mask-7"><use xlink:href="#rect-7" /></clipPath><clipPath id="clip-mask-8"><use xlink:href="#rect-8" /></clipPath><clipPath id="clip-mask-9"><use xlink:href="#rect-9" /></clipPath><clipPath id="clip-mask-10"><use xlink:href="#rect-10" /></clipPath><clipPath id="clip-mask-11"><use xlink:href="#rect-11" /></clipPath><clipPath id="clip-mask-12"><use xlink:href="#rect-12" /></clipPath><clipPath id="clip-mask-13"><use xlink:href="#rect-13" /></clipPath><clipPath id="clip-mask-14"><use xlink:href="#rect-14" /></clipPath></defs><path d="M 0 0 L 270 270 M 270 0 L 0 270 M 135 0 L 135 270 M 0 135 L 270 135" stroke="#CCCCCC" /><path d="M 125 59 Q 125 24 121 18 Q 119 15 121 13 Q 123 11 127 12 Q 132 13 140 18 Q 144 21 144 24 Q 141 32 136 58" fill="#CCCCCC"/><path d="M 80 82 Q 78 84 75 82 Q 71 79 68 75 Q 66 72 71 68 Q 75 64 77 55 Q 79 46 76 36 Q 74 32 77 31 Q 79 30 82 32 Q 87 36 91 40 Q 92 43 89 60" fill="#CCCCCC"/><path d="M 171 63 L 171 64 Q 166 61 142 65 Q 88 73 80 82 L 89 60 Q 87 66 92 65 Q 107 61 125 59 L 136 58 Q 154 55 174 54 L 172 64" fill="#CCCCCC"/><path d="M 174 54 Q 175 53 175 53 Q 183 34 179 23 Q 179 20 180 20 Q 183 19 186 21 Q 193 26 197 31 Q 198 34 196 37 Q 195 38 189 52 Q 184 71 178 76 Q 174 78 173 74 Q 172 70 172 64" fill="#CCCCCC"/><path d="M 118 82 L 117 79 Q 117 76 118 76 Q 120 74 129 77 Q 144 79 147 89 Q 148 92 147 95 Q 145 99 141 98 Q 134 96 122 85" fill="#CCCCCC"/><path d="M 47 152 L 46 154 Q 42 161 37 154 Q 30 140 35 133 Q 51 118 50 107 Q 50 99 55 104 Q 58 106 62 113 L 61 121" fill="#CCCCCC"/><path d="M 62 113 Q 129 104 195 95 Q 212 91 219 97 L 200 105 Q 194 104 172 106 Q 109 114 82 121 Q 68 125 61 121" fill="#CCCCCC"/><path d="M 219 97 Q 239 114 239 116 Q 239 119 228 121 Q 216 122 199 131 Q 194 134 191 133 Q 189 132 192 127 Q 202 109 202 108 Q 203 107 200 105" fill="#CCCCCC"/><path d="M 107 137 L 118 135 Q 128 132 138 129 Q 146 126 153 128 Q 160 130 162 133 Q 163 135 161 137 Q 160 138 151 140 Q 133 143 115 147 Q 101 150 90 144 Q 84 140 93 138" fill="#CCCCCC"/><path d="M 98 177 L 79 182 Q 74 183 69 182 Q 65 180 61 177 Q 57 172 63 172 Q 139 162 173 155 Q 182 153 196 162 Q 200 166 198 169 Q 197 171 192 171 Q 146 171 129 173 L 119 174" fill="#CCCCCC"/><path d="M 129 173 Q 132 176 135 179 Q 140 185 138 196 Q 137 203 138 221 Q 138 238 133 247 Q 130 256 127 257 Q 124 258 120 255 L 120 226 Q 122 224 122 217 Q 123 187 120 177 Q 119 175 119 174" fill="#CCCCCC"/><path d="M 120 255 Q 115 247 99 234 Q 96 231 97 229 Q 97 228 100 228 Q 106 228 112 229 Q 119 230 120 226" fill="#CCCCCC"/><path d="M 75 192 L 78 192 Q 80 193 81 196 Q 82 203 79 212 Q 77 229 62 237 Q 55 240 54 235 Q 50 224 57 215 Q 66 206 74 195" fill="#CCCCCC"/><path d="M 162 196 L 162 192 Q 163 188 165 190 Q 172 192 186 197 Q 197 202 202 206 Q 207 210 209 217 Q 213 229 209 233 Q 207 236 205 235 Q 200 234 196 229 Q 179 211 165 199" fill="#CCCCCC"/><path d="M 125 59 Q 125 24 121 18 Q 119 15 121 13 Q 123 11 127 12 Q 132 13 140 18 Q 144 21 144 24 Q 141 32 136 58" fill="#0000ff" clip-path="url(#clip-mask-1)" /><path d="M 80 82 Q 78 84 75 82 Q 71 79 68 75 Q 66 72 71 68 Q 75 64 77 55 Q 79 46 76 36 Q 74 32 77 31 Q 79 30 82 32 Q 87 36 91 40 Q 92 43 89 60" fill="#0000ff" clip-path="url(#clip-mask-2)" /><path d="M 171 63 L 171 64 Q 166 61 142 65 Q 88 73 80 82 L 89 60 Q 87 66 92 65 Q 107 61 125 59 L 136 58 Q 154 55 174 54 L 172 64" fill="#0000ff" clip-path="url(#clip-mask-3)" /><path d="M 174 54 Q 175 53 175 53 Q 183 34 179 23 Q 179 20 180 20 Q 183 19 186 21 Q 193 26 197 31 Q 198 34 196 37 Q 195 38 189 52 Q 184 71 178 76 Q 174 78 173 74 Q 172 70 172 64" fill="#0000ff" clip-path="url(#clip-mask-4)" /><path d="M 118 82 L 117 79 Q 117 76 118 76 Q 120 74 129 77 Q 144 79 147 89 Q 148 92 147 95 Q 145 99 141 98 Q 134 96 122 85" fill="#000080" clip-path="url(#clip-mask-5)" /><path d="M 47 152 L 46 154 Q 42 161 37 154 Q 30 140 35 133 Q 51 118 50 107 Q 50 99 55 104 Q 58 106 62 113 L 61 121" fill="#000080" clip-path="url(#clip-mask-6)" /><path d="M 62 113 Q 129 104 195 95 Q 212 91 219 97 L 200 105 Q 194 104 172 106 Q 109 114 82 121 Q 68 125 61 121" fill="#000080" clip-path="url(#clip-mask-7)" /><path d="M 219 97 Q 239 114 239 116 Q 239 119 228 121 Q 216 122 199 131 Q 194 134 191 133 Q 189 132 192 127 Q 202 109 202 108 Q 203 107 200 105" fill="#000080" clip-path="url(#clip-mask-8)" /><path d="M 107 137 L 118 135 Q 128 132 138 129 Q 146 126 153 128 Q 160 130 162 133 Q 163 135 161 137 Q 160 138 151 140 Q 133 143 115 147 Q 101 150 90 144 Q 84 140 93 138" fill="#000080" clip-path="url(#clip-mask-9)" /><path d="M 98 177 L 79 182 Q 74 183 69 182 Q 65 180 61 177 Q 57 172 63 172 Q 139 162 173 155 Q 182 153 196 162 Q 200 166 198 169 Q 197 171 192 171 Q 146 171 129 173 L 119 174" fill="#000080" clip-path="url(#clip-mask-10)" /><path d="M 129 173 Q 132 176 135 179 Q 140 185 138 196 Q 137 203 138 221 Q 138 238 133 247 Q 130 256 127 257 Q 124 258 120 255 L 120 226 Q 122 224 122 217 Q 123 187 120 177 Q 119 175 119 174" fill="#000080" clip-path="url(#clip-mask-11)" /><path d="M 120 255 Q 115 247 99 234 Q 96 231 97 229 Q 97 228 100 228 Q 106 228 112 229 Q 119 230 120 226" fill="#000080" clip-path="url(#clip-mask-12)" /><path d="M 75 192 L 78 192 Q 80 193 81 196 Q 82 203 79 212 Q 77 229 62 237 Q 55 240 54 235 Q 50 224 57 215 Q 66 206 74 195" fill="#000080" clip-path="url(#clip-mask-13)" /><path d="M 162 196 L 162 192 Q 163 188 165 190 Q 172 192 186 197 Q 197 202 202 206 Q 207 210 209 217 Q 213 229 209 233 Q 207 236 205 235 Q 200 234 196 229 Q 179 211 165 199" fill="#000080" clip-path="url(#clip-mask-14)" /><rect x="119" y="11" width="25" height="48" id="rect-1" fill="transparent" stroke="#000000"><animate attributeName="y" from="-37" to="11" dur="0.178" begin="0; animate14.end + 1s" id="animate1" fill="freeze"/></rect><rect x="66" y="30" width="26" height="54" id="rect-2" fill="transparent" stroke="#000000"><set attributeName="y" to="-24" begin="0; animate14.end + 1s" /><animate attributeName="y" from="-24" to="30" dur="0.200" begin="animate1.end + 0.5" id="animate2" fill="freeze"/></rect><rect x="80" y="54" width="94" height="28" id="rect-3" fill="transparent" stroke="#000000"><set attributeName="x" to="-14" begin="0; animate14.end + 1s" /><animate attributeName="x" from="-14" to="80" dur="0.348" begin="animate2.end" id="animate3" fill="freeze"/></rect><rect x="172" y="19" width="26" height="59" id="rect-4" fill="transparent" stroke="#000000"><set attributeName="y" to="-40" begin="0; animate14.end + 1s" /><animate attributeName="y" from="-40" to="19" dur="0.219" begin="animate3.end + 0.5" id="animate4" fill="freeze"/></rect><rect x="117" y="74" width="31" height="25" id="rect-5" fill="transparent" stroke="#000000"><set attributeName="x" to="86" begin="0; animate14.end + 1s" /><animate attributeName="x" from="86" to="117" dur="0.115" begin="animate4.end + 0.5" id="animate5" fill="freeze"/></rect><rect x="30" y="99" width="32" height="62" id="rect-6" fill="transparent" stroke="#000000"><set attributeName="y" to="37" begin="0; animate14.end + 1s" /><animate attributeName="y" from="37" to="99" dur="0.230" begin="animate5.end + 0.5" id="animate6" fill="freeze"/></rect><rect x="61" y="91" width="158" height="34" id="rect-7" fill="transparent" stroke="#000000"><set attributeName="x" to="-97" begin="0; animate14.end + 1s" /><animate attributeName="x" from="-97" to="61" dur="0.585" begin="animate6.end + 0.5" id="animate7" fill="freeze"/></rect><rect x="189" y="97" width="50" height="37" id="rect-8" fill="transparent" stroke="#000000"><set attributeName="y" to="60" begin="0; animate14.end + 1s" /><animate attributeName="y" from="60" to="97" dur="0.137" begin="animate7.end" id="animate8" fill="freeze"/></rect><rect x="84" y="126" width="79" height="24" id="rect-9" fill="transparent" stroke="#000000"><set attributeName="x" to="5" begin="0; animate14.end + 1s" /><animate attributeName="x" from="5" to="84" dur="0.293" begin="animate8.end + 0.5" id="animate9" fill="freeze"/></rect><rect x="57" y="153" width="143" height="30" id="rect-10" fill="transparent" stroke="#000000"><set attributeName="x" to="-86" begin="0; animate14.end + 1s" /><animate attributeName="x" from="-86" to="57" dur="0.530" begin="animate9.end + 0.5" id="animate10" fill="freeze"/></rect><rect x="119" y="173" width="21" height="85" id="rect-11" fill="transparent" stroke="#000000"><set attributeName="y" to="88" begin="0; animate14.end + 1s" /><animate attributeName="y" from="88" to="173" dur="0.315" begin="animate10.end + 0.5" id="animate11" fill="freeze"/></rect><rect x="96" y="226" width="24" height="29" id="rect-12" fill="transparent" stroke="#000000"><set attributeName="x" to="120" begin="0; animate14.end + 1s" /><animate attributeName="x" from="120" to="96" dur="0.089" begin="animate11.end" id="animate12" fill="freeze"/></rect><rect x="50" y="192" width="32" height="48" id="rect-13" fill="transparent" stroke="#000000"><set attributeName="y" to="144" begin="0; animate14.end + 1s" /><animate attributeName="y" from="144" to="192" dur="0.178" begin="animate12.end + 0.5" id="animate13" fill="freeze"/></rect><rect x="162" y="188" width="51" height="48" id="rect-14" fill="transparent" stroke="#000000"><set attributeName="x" to="111" begin="0; animate14.end + 1s" /><animate attributeName="x" from="111" to="162" dur="0.189" begin="animate13.end + 0.5" id="animate14" fill="freeze"/></rect></svg>