<svg xmlns="http://www.w3.org/2000/svg" xmlns:xlink="http://www.w3.org/1999/xlink" width="270" height="270"><defs><clipPath id="clip-mask-1"><use xlink:href="#rect-1" /></clipPath><clipPath id="clip-mask-2"><use xlink:href="#rect-2" /></clipPath><clipPath id="clip-mask-3"><use xlink:href="#rect-3" /></clipPath><clipPath id="clip-mask-4"><use xlink:href="#rect-4" /></clipPath><clipPath id="clip-mask-5"><use xlink:href="#rect-5" /></clipPath><clipPath id="clip-mask-6"><use xlink:href="#rect-6" /></clipPath><clipPath id="clip-mask-7"><use xlink:href="#rect-7" /></clipPath><clipPath id="clip-mask-8"><use xlink:href="#rect-8" /></clipPath><clipPath id="clip-mask-9"><use xlink:href="#rect-9" /></clipPath><clipPath id="clip-mask-10"><use xlink:href="#rect-10" /></clipPath><clipPath id="clip-mask-11"><use xlink:href="#rect-11" /></clipPath><clipPath id="clip-mask-12"><use xlink:href="#rect-12" /></clipPath></defs><path d="M 0 0 L 270 270 M 270 0 L 0 270 M 135 0 L 135 270 M 0 135 L 270 135" stroke="#CCCCCC" /><path d="M 146 64 Q 146 30 142 24 Q 140 21 142 20 Q 144 17 148 18 Q 153 20 161 24 Q 165 28 164 30 Q 164 32 163 34 Q 162 36 161 40 Q 160 50 157 62" fill="#CCCCCC"/><path d="M 99 87 Q 96 89 93 87 Q 89 84 86 80 Q 85 76 89 72 Q 93 68 95 60 Q 96 51 93 42 Q 92 37 94 36 Q 97 35 99 37 Q 105 41 109 45 Q 110 49 108 64" fill="#CCCCCC"/><path d="M 191 67 L 176 69 Q 110 75 99 87 L 108 64 Q 106 70 112 69 Q 128 65 146 64 L 157 62 Q 177 60 199 59 L 197 68" fill="#CCCCCC"/><path d="M 199 59 Q 206 44 206 44 Q 208 30 206 28 Q 206 24 208 24 Q 211 23 214 26 Q 221 32 224 37 Q 226 41 223 44 Q 222 44 216 55 Q 210 75 203 79 Q 200 81 198 77 Q 197 73 197 68" fill="#CCCCCC"/><path d="M 148 110 Q 132 112 114 115 Q 110 116 107 116 L 104 107 Q 141 100 183 92 Q 194 90 201 91 Q 208 92 210 97 Q 213 100 206 101 Q 183 104 156 109" fill="#CCCCCC"/><path d="M 107 116 Q 107 117 106 118 Q 104 122 103 126 Q 80 212 39 241 Q 28 252 24 251 Q 21 251 22 249 Q 22 247 24 246 Q 47 222 61 198 Q 77 169 85 131 Q 86 126 87 123 Q 89 110 86 102 Q 85 98 89 97 Q 93 96 97 100 Q 101 103 104 107" fill="#CCCCCC"/><path d="M 151 141 Q 148 141 146 142 Q 130 144 123 139 Q 117 136 125 135 Q 139 134 151 132 L 165 129 Q 180 123 187 125 Q 193 127 194 129 Q 195 131 193 133 Q 192 134 182 136 Q 173 137 164 139" fill="#CCCCCC"/><path d="M 151 160 Q 151 149 151 141 L 151 132 Q 150 117 150 114 Q 148 111 148 110 L 156 109 Q 160 111 165 116 Q 166 118 165 127 Q 165 128 165 129 L 164 139 Q 163 148 162 158" fill="#CCCCCC"/><path d="M 146 170 Q 130 173 116 177 Q 112 178 107 177 Q 103 176 100 173 Q 96 169 101 168 Q 127 164 151 160 L 162 158 Q 181 155 194 152 Q 207 148 221 157 Q 225 160 224 163 Q 223 165 218 165 Q 176 165 156 169" fill="#CCCCCC"/><path d="M 149 205 Q 141 205 132 207 Q 125 208 121 205 Q 115 200 120 199 Q 134 197 149 193 L 164 190 Q 177 185 189 187 Q 197 189 200 193 Q 203 197 195 198 Q 181 200 163 203" fill="#CCCCCC"/><path d="M 149 213 L 149 205 L 149 193 Q 148 175 146 171 Q 146 170 146 170 L 156 169 Q 168 177 165 184 Q 164 187 164 190 L 163 203 Q 162 212 161 224 L 149 225" fill="#CCCCCC"/><path d="M 161 224 Q 200 219 222 216 Q 231 214 244 225 Q 248 228 247 231 Q 245 233 241 233 Q 154 227 97 240 Q 93 241 88 239 Q 83 238 80 234 Q 77 230 82 229 Q 118 226 149 225" fill="#CCCCCC"/><path d="M 146 64 Q 146 30 142 24 Q 140 21 142 20 Q 144 17 148 18 Q 153 20 161 24 Q 165 28 164 30 Q 164 32 163 34 Q 162 36 161 40 Q 160 50 157 62" fill="#0000ff" clip-path="url(#clip-mask-1)" /><path d="M 99 87 Q 96 89 93 87 Q 89 84 86 80 Q 85 76 89 72 Q 93 68 95 60 Q 96 51 93 42 Q 92 37 94 36 Q 97 35 99 37 Q 105 41 109 45 Q 110 49 108 64" fill="#0000ff" clip-path="url(#clip-mask-2)" /><path d="M 191 67 L 176 69 Q 110 75 99 87 L 108 64 Q 106 70 112 69 Q 128 65 146 64 L 157 62 Q 177 60 199 59 L 197 68" fill="#0000ff" clip-path="url(#clip-mask-3)" /><path d="M 199 59 Q 206 44 206 44 Q 208 30 206 28 Q 206 24 208 24 Q 211 23 214 26 Q 221 32 224 37 Q 226 41 223 44 Q 222 44 216 55 Q 210 75 203 79 Q 200 81 198 77 Q 197 73 197 68" fill="#0000ff" clip-path="url(#clip-mask-4)" /><path d="M 148 110 Q 132 112 114 115 Q 110 116 107 116 L 104 107 Q 141 100 183 92 Q 194 90 201 91 Q 208 92 210 97 Q 213 100 206 101 Q 183 104 156 109" fill="#000080" clip-path="url(#clip-mask-5)" /><path d="M 107 116 Q 107 117 106 118 Q 104 122 103 126 Q 80 212 39 241 Q 28 252 24 251 Q 21 251 22 249 Q 22 247 24 246 Q 47 222 61 198 Q 77 169 85 131 Q 86 126 87 123 Q 89 110 86 102 Q 85 98 89 97 Q 93 96 97 100 Q 101 103 104 107" fill="#000080" clip-path="url(#clip-mask-6)" /><path d="M 151 141 Q 148 141 146 142 Q 130 144 123 139 Q 117 136 125 135 Q 139 134 151 132 L 165 129 Q 180 123 187 125 Q 193 127 194 129 Q 195 131 193 133 Q 192 134 182 136 Q 173 137 164 139" fill="#000080" clip-path="url(#clip-mask-7)" /><path d="M 151 160 Q 151 149 151 141 L 151 132 Q 150 117 150 114 Q 148 111 148 110 L 156 109 Q 160 111 165 116 Q 166 118 165 127 Q 165 128 165 129 L 164 139 Q 163 148 162 158" fill="#000080" clip-path="url(#clip-mask-8)" /><path d="M 146 170 Q 130 173 116 177 Q 112 178 107 177 Q 103 176 100 173 Q 96 169 101 168 Q 127 164 151 160 L 162 158 Q 181 155 194 152 Q 207 148 221 157 Q 225 160 224 163 Q 223 165 218 165 Q 176 165 156 169" fill="#000080" clip-path="url(#clip-mask-9)" /><path d="M 149 205 Q 141 205 132 207 Q 125 208 121 205 Q 115 200 120 199 Q 134 197 149 193 L 164 190 Q 177 185 189 187 Q 197 189 200 193 Q 203 197 195 198 Q 181 200 163 203" fill="#000080" clip-path="url(#clip-mask-10)" /><path d="M 149 213 L 149 205 L 149 193 Q 148 175 146 171 Q 146 170 146 170 L 156 169 Q 168 177 165 184 Q 164 187 164 190 L 163 203 Q 162 212 161 224 L 149 225" fill="#000080" clip-path="url(#clip-mask-11)" /><path d="M 161 224 Q 200 219 222 216 Q 231 214 244 225 Q 248 228 247 231 Q 245 233 241 233 Q 154 227 97 240 Q 93 241 88 239 Q 83 238 80 234 Q 77 230 82 229 Q 118 226 149 225" fill="#000080" clip-path="url(#clip-mask-12)" /><rect x="140" y="17" width="25" height="47" id="rect-1" fill="transparent" stroke="#000000"><animate attributeName="y" from="-30" to="17" dur="0.174" begin="0; animate12.end + 1s" id="animate1" fill="freeze"/></rect><rect x="85" y="35" width="25" height="54" id="rect-2" fill="transparent" stroke="#000000"><set attributeName="y" to="-19" begin="0; animate12.end + 1s" /><animate attributeName="y" from="-19" to="35" dur="0.200" begin="animate1.end + 0.5" id="animate2" fill="freeze"/></rect><rect x="99" y="59" width="100" height="28" id="rect-3" fill="transparent" stroke="#000000"><set attributeName="x" to="-1" begin="0; animate12.end + 1s" /><animate attributeName="x" from="-1" to="99" dur="0.370" begin="animate2.end" id="animate3" fill="freeze"/></rect><rect x="197" y="23" width="29" height="58" id="rect-4" fill="transparent" stroke="#000000"><set attributeName="y" to="-35" begin="0; animate12.end + 1s" /><animate attributeName="y" from="-35" to="23" dur="0.215" begin="animate3.end + 0.5" id="animate4" fill="freeze"/></rect><rect x="104" y="90" width="109" height="26" id="rect-5" fill="transparent" stroke="#000000"><set attributeName="x" to="-5" begin="0; animate12.end + 1s" /><animate attributeName="x" from="-5" to="104" dur="0.404" begin="animate4.end + 0.5" id="animate5" fill="freeze"/></rect><rect x="21" y="96" width="86" height="156" id="rect-6" fill="transparent" stroke="#000000"><set attributeName="y" to="-60" begin="0; animate12.end + 1s" /><animate attributeName="y" from="-60" to="96" dur="0.578" begin="animate5.end + 0.5" id="animate6" fill="freeze"/></rect><rect x="117" y="123" width="78" height="21" id="rect-7" fill="transparent" stroke="#000000"><set attributeName="x" to="39" begin="0; animate12.end + 1s" /><animate attributeName="x" from="39" to="117" dur="0.289" begin="animate6.end + 0.5" id="animate7" fill="freeze"/></rect><rect x="148" y="109" width="18" height="51" id="rect-8" fill="transparent" stroke="#000000"><set attributeName="y" to="58" begin="0; animate12.end + 1s" /><animate attributeName="y" from="58" to="109" dur="0.189" begin="animate7.end + 0.5" id="animate8" fill="freeze"/></rect><rect x="96" y="148" width="129" height="30" id="rect-9" fill="transparent" stroke="#000000"><set attributeName="x" to="-33" begin="0; animate12.end + 1s" /><animate attributeName="x" from="-33" to="96" dur="0.478" begin="animate8.end + 0.5" id="animate9" fill="freeze"/></rect><rect x="115" y="185" width="88" height="23" id="rect-10" fill="transparent" stroke="#000000"><set attributeName="x" to="27" begin="0; animate12.end + 1s" /><animate attributeName="x" from="27" to="115" dur="0.326" begin="animate9.end + 0.5" id="animate10" fill="freeze"/></rect><rect x="146" y="169" width="22" height="56" id="rect-11" fill="transparent" stroke="#000000"><set attributeName="y" to="113" begin="0; animate12.end + 1s" /><animate attributeName="y" from="113" to="169" dur="0.207" begin="animate10.end + 0.5" id="animate11" fill="freeze"/></rect><rect x="77" y="214" width="171" height="27" id="rect-12" fill="transparent" stroke="#000000"><set attributeName="x" to="-94" begin="0; animate12.end + 1s" /><animate attributeName="x" from="-94" to="77" dur="0.633" begin="animate11.end + 0.5" id="animate12" fill="freeze"/></rect></svg>