<svg xmlns="http://www.w3.org/2000/svg" xmlns:xlink="http://www.w3.org/1999/xlink" width="270" height="270"><defs><clipPath id="clip-mask-1"><use xlink:href="#rect-1" /></clipPath><clipPath id="clip-mask-2"><use xlink:href="#rect-2" /></clipPath><clipPath id="clip-mask-3"><use xlink:href="#rect-3" /></clipPath><clipPath id="clip-mask-4"><use xlink:href="#rect-4" /></clipPath><clipPath id="clip-mask-5"><use xlink:href="#rect-5" /></clipPath><clipPath id="clip-mask-6"><use xlink:href="#rect-6" /></clipPath><clipPath id="clip-mask-7"><use xlink:href="#rect-7" /></clipPath><clipPath id="clip-mask-8"><use xlink:href="#rect-8" /></clipPath></defs><path d="M 0 0 L 270 270 M 270 0 L 0 270 M 135 0 L 135 270 M 0 135 L 270 135" stroke="#CCCCCC" /><path d="M 70 74 Q 54 78 42 72 Q 34 68 44 65 Q 58 63 79 57 Q 103 48 110 49 Q 119 51 122 54 Q 123 56 120 59 Q 118 61 81 71" fill="#CCCCCC"/><path d="M 72 114 L 72 101 Q 71 79 70 74 L 81 71 Q 92 79 89 86 Q 87 92 84 132 L 71 138" fill="#CCCCCC"/><path d="M 84 132 Q 101 124 116 117 Q 120 116 122 117 Q 122 120 118 123 Q 111 128 105 133 Q 60 159 50 169 Q 47 172 44 172 Q 33 168 26 164 Q 23 162 23 157 Q 23 154 27 154 Q 36 153 41 150 Q 57 143 71 138" fill="#CCCCCC"/><path d="M 156 63 L 151 65 Q 138 67 130 61 Q 124 56 132 55 Q 162 50 209 40 Q 230 33 240 38 Q 246 41 246 45 Q 244 48 241 48 Q 203 53 175 60 L 163 62" fill="#CCCCCC"/><path d="M 175 60 Q 181 62 185 65 Q 188 69 184 73 Q 178 80 164 110 Q 161 116 167 115 L 147 135 Q 143 137 140 134 Q 135 130 135 126 Q 134 122 139 118 Q 151 108 155 101 Q 160 90 164 76 Q 166 69 165 65 Q 164 63 163 62" fill="#CCCCCC"/><path d="M 167 115 Q 190 109 204 105 Q 210 103 216 105 Q 228 111 233 115 L 205 117 Q 198 113 185 118 Q 161 126 147 135" fill="#CCCCCC"/><path d="M 233 115 Q 236 119 233 123 Q 228 128 227 138 Q 223 177 215 196 Q 208 216 191 233 Q 185 236 180 236 L 184 209 Q 188 207 192 200 Q 209 170 212 132 Q 213 121 205 117" fill="#CCCCCC"/><path d="M 180 236 Q 177 236 174 232 Q 167 222 157 209 Q 154 206 154 204 Q 154 201 159 204 Q 177 210 184 209" fill="#CCCCCC"/><path d="M 70 74 Q 54 78 42 72 Q 34 68 44 65 Q 58 63 79 57 Q 103 48 110 49 Q 119 51 122 54 Q 123 56 120 59 Q 118 61 81 71" fill="#0000ff" clip-path="url(#clip-mask-1)" /><path d="M 72 114 L 72 101 Q 71 79 70 74 L 81 71 Q 92 79 89 86 Q 87 92 84 132 L 71 138" fill="#0000ff" clip-path="url(#clip-mask-2)" /><path d="M 84 132 Q 101 124 116 117 Q 120 116 122 117 Q 122 120 118 123 Q 111 128 105 133 Q 60 159 50 169 Q 47 172 44 172 Q 33 168 26 164 Q 23 162 23 157 Q 23 154 27 154 Q 36 153 41 150 Q 57 143 71 138" fill="#0000ff" clip-path="url(#clip-mask-3)" /><path d="M 156 63 L 151 65 Q 138 67 130 61 Q 124 56 132 55 Q 162 50 209 40 Q 230 33 240 38 Q 246 41 246 45 Q 244 48 241 48 Q 203 53 175 60 L 163 62" fill="#000080" clip-path="url(#clip-mask-4)" /><path d="M 175 60 Q 181 62 185 65 Q 188 69 184 73 Q 178 80 164 110 Q 161 116 167 115 L 147 135 Q 143 137 140 134 Q 135 130 135 126 Q 134 122 139 118 Q 151 108 155 101 Q 160 90 164 76 Q 166 69 165 65 Q 164 63 163 62" fill="#000080" clip-path="url(#clip-mask-5)" /><path d="M 167 115 Q 190 109 204 105 Q 210 103 216 105 Q 228 111 233 115 L 205 117 Q 198 113 185 118 Q 161 126 147 135" fill="#000080" clip-path="url(#clip-mask-6)" /><path d="M 233 115 Q 236 119 233 123 Q 228 128 227 138 Q 223 177 215 196 Q 208 216 191 233 Q 185 236 180 236 L 184 209 Q 188 207 192 200 Q 209 170 212 132 Q 213 121 205 117" fill="#000080" clip-path="url(#clip-mask-7)" /><path d="M 180 236 Q 177 236 174 232 Q 167 222 157 209 Q 154 206 154 204 Q 154 201 159 204 Q 177 210 184 209" fill="#000080" clip-path="url(#clip-mask-8)" /><rect x="34" y="48" width="89" height="30" id="rect-1" fill="transparent" stroke="#000000"><animate attributeName="x" from="-55" to="34" dur="0.330" begin="0; animate8.end + 1s" id="animate1" fill="freeze"/></rect><rect x="70" y="71" width="22" height="67" id="rect-2" fill="transparent" stroke="#000000"><set attributeName="y" to="4" begin="0; animate8.end + 1s" /><animate attributeName="y" from="4" to="71" dur="0.248" begin="animate1.end + 0.5" id="animate2" fill="freeze"/></rect><rect x="23" y="116" width="99" height="56" id="rect-3" fill="transparent" stroke="#000000"><set attributeName="x" to="-76" begin="0; animate8.end + 1s" /><animate attributeName="x" from="-76" to="23" dur="0.367" begin="animate2.end + 0.5" id="animate3" fill="freeze"/></rect><rect x="124" y="33" width="122" height="34" id="rect-4" fill="transparent" stroke="#000000"><set attributeName="x" to="2" begin="0; animate8.end + 1s" /><animate attributeName="x" from="2" to="124" dur="0.452" begin="animate3.end + 0.5" id="animate4" fill="freeze"/></rect><rect x="134" y="60" width="54" height="77" id="rect-5" fill="transparent" stroke="#000000"><set attributeName="y" to="-17" begin="0; animate8.end + 1s" /><animate attributeName="y" from="-17" to="60" dur="0.285" begin="animate4.end + 0.5" id="animate5" fill="freeze"/></rect><rect x="147" y="103" width="86" height="32" id="rect-6" fill="transparent" stroke="#000000"><set attributeName="x" to="61" begin="0; animate8.end + 1s" /><animate attributeName="x" from="61" to="147" dur="0.319" begin="animate5.end" id="animate6" fill="freeze"/></rect><rect x="180" y="115" width="56" height="121" id="rect-7" fill="transparent" stroke="#000000"><set attributeName="y" to="-6" begin="0; animate8.end + 1s" /><animate attributeName="y" from="-6" to="115" dur="0.448" begin="animate6.end" id="animate7" fill="freeze"/></rect><rect x="154" y="201" width="30" height="35" id="rect-8" fill="transparent" stroke="#000000"><set attributeName="x" to="184" begin="0; animate8.end + 1s" /><animate attributeName="x" from="184" to="154" dur="0.111" begin="animate7.end" id="animate8" fill="freeze"/></rect></svg>