<svg xmlns="http://www.w3.org/2000/svg" xmlns:xlink="http://www.w3.org/1999/xlink" width="270" height="270"><defs><clipPath id="clip-mask-1"><use xlink:href="#rect-1" /></clipPath><clipPath id="clip-mask-2"><use xlink:href="#rect-2" /></clipPath><clipPath id="clip-mask-3"><use xlink:href="#rect-3" /></clipPath><clipPath id="clip-mask-4"><use xlink:href="#rect-4" /></clipPath><clipPath id="clip-mask-5"><use xlink:href="#rect-5" /></clipPath><clipPath id="clip-mask-6"><use xlink:href="#rect-6" /></clipPath><clipPath id="clip-mask-7"><use xlink:href="#rect-7" /></clipPath><clipPath id="clip-mask-8"><use xlink:href="#rect-8" /></clipPath><clipPath id="clip-mask-9"><use xlink:href="#rect-9" /></clipPath><clipPath id="clip-mask-10"><use xlink:href="#rect-10" /></clipPath><clipPath id="clip-mask-11"><use xlink:href="#rect-11" /></clipPath><clipPath id="clip-mask-12"><use xlink:href="#rect-12" /></clipPath></defs><path d="M 0 0 L 270 270 M 270 0 L 0 270 M 135 0 L 135 270 M 0 135 L 270 135" stroke="#CCCCCC" /><path d="M 144 67 Q 125 69 107 73 L 96 74 Q 93 75 91 75 Q 78 78 66 71 Q 60 66 69 65 Q 82 65 95 64 L 107 62 Q 121 60 146 54 L 162 50 Q 173 46 180 48 Q 187 50 189 54 Q 190 56 187 58 Q 185 59 158 65" fill="#CCCCCC"/><path d="M 107 73 Q 108 86 110 105 L 100 106 Q 98 86 96 74 L 95 64 Q 92 47 85 35 Q 83 32 85 30 Q 88 28 91 30 Q 98 31 104 35 Q 107 38 107 44 Q 106 48 107 62" fill="#CCCCCC"/><path d="M 138 100 Q 142 82 144 67 L 146 54 Q 147 43 149 32 Q 149 27 146 20 Q 144 16 146 14 Q 149 12 153 14 Q 158 16 166 22 Q 171 27 170 29 Q 162 46 162 50 L 158 65 Q 154 81 150 99" fill="#CCCCCC"/><path d="M 85 118 L 85 118 Q 72 120 61 123 Q 46 126 39 119 Q 35 115 41 114 Q 72 110 100 106 L 110 105 Q 118 103 126 102 Q 132 101 138 100 L 150 99 Q 174 94 191 90 Q 204 86 219 97 Q 223 100 222 103 Q 220 107 202 106 Q 172 106 150 108 L 141 109 Q 116 111 96 115" fill="#CCCCCC"/><path d="M 85 150 Q 35 201 13 201 Q 11 201 12 200 Q 12 197 19 194 Q 85 143 85 118 L 96 115 Q 99 119 102 126 Q 103 130 100 133 Q 97 135 92 142" fill="#CCCCCC"/><path d="M 150 108 Q 177 133 200 150 Q 213 159 253 171 Q 258 172 258 174 Q 257 175 255 176 Q 245 178 216 181 Q 208 182 202 176 Q 154 128 141 109" fill="#CCCCCC"/><path d="M 118 142 L 132 137 Q 143 131 148 135 Q 154 140 159 143 L 139 149 Q 137 146 129 147 Q 103 152 101 153 L 98 146" fill="#CCCCCC"/><path d="M 135 170 Q 137 163 139 157 Q 141 150 139 149 L 159 143 Q 165 147 159 153 Q 153 157 148 172" fill="#CCCCCC"/><path d="M 98 179 Q 113 176 133 170 Q 134 170 135 170 L 148 172 Q 153 176 153 177 Q 152 180 150 180 Q 120 183 106 186 Q 100 187 97 185" fill="#CCCCCC"/><path d="M 101 153 Q 101 154 101 154 Q 99 167 98 179 L 97 185 Q 95 210 100 222 L 93 236 Q 83 226 87 167 Q 87 158 85 150 L 92 142 Q 95 144 98 146" fill="#CCCCCC"/><path d="M 100 222 Q 103 227 112 231 Q 136 239 164 231 Q 177 228 181 223 L 205 222 Q 209 228 204 233 Q 166 257 116 247 Q 99 242 93 236" fill="#CCCCCC"/><path d="M 181 223 Q 185 216 191 195 Q 192 190 193 191 Q 196 192 196 196 Q 201 216 205 222" fill="#CCCCCC"/><path d="M 144 67 Q 125 69 107 73 L 96 74 Q 93 75 91 75 Q 78 78 66 71 Q 60 66 69 65 Q 82 65 95 64 L 107 62 Q 121 60 146 54 L 162 50 Q 173 46 180 48 Q 187 50 189 54 Q 190 56 187 58 Q 185 59 158 65" fill="#000080" clip-path="url(#clip-mask-1)" /><path d="M 107 73 Q 108 86 110 105 L 100 106 Q 98 86 96 74 L 95 64 Q 92 47 85 35 Q 83 32 85 30 Q 88 28 91 30 Q 98 31 104 35 Q 107 38 107 44 Q 106 48 107 62" fill="#000080" clip-path="url(#clip-mask-2)" /><path d="M 138 100 Q 142 82 144 67 L 146 54 Q 147 43 149 32 Q 149 27 146 20 Q 144 16 146 14 Q 149 12 153 14 Q 158 16 166 22 Q 171 27 170 29 Q 162 46 162 50 L 158 65 Q 154 81 150 99" fill="#000080" clip-path="url(#clip-mask-3)" /><path d="M 85 118 L 85 118 Q 72 120 61 123 Q 46 126 39 119 Q 35 115 41 114 Q 72 110 100 106 L 110 105 Q 118 103 126 102 Q 132 101 138 100 L 150 99 Q 174 94 191 90 Q 204 86 219 97 Q 223 100 222 103 Q 220 107 202 106 Q 172 106 150 108 L 141 109 Q 116 111 96 115" fill="#000080" clip-path="url(#clip-mask-4)" /><path d="M 85 150 Q 35 201 13 201 Q 11 201 12 200 Q 12 197 19 194 Q 85 143 85 118 L 96 115 Q 99 119 102 126 Q 103 130 100 133 Q 97 135 92 142" fill="#000080" clip-path="url(#clip-mask-5)" /><path d="M 150 108 Q 177 133 200 150 Q 213 159 253 171 Q 258 172 258 174 Q 257 175 255 176 Q 245 178 216 181 Q 208 182 202 176 Q 154 128 141 109" fill="#000080" clip-path="url(#clip-mask-6)" /><path d="M 118 142 L 132 137 Q 143 131 148 135 Q 154 140 159 143 L 139 149 Q 137 146 129 147 Q 103 152 101 153 L 98 146" fill="#0000ff" clip-path="url(#clip-mask-7)" /><path d="M 135 170 Q 137 163 139 157 Q 141 150 139 149 L 159 143 Q 165 147 159 153 Q 153 157 148 172" fill="#0000ff" clip-path="url(#clip-mask-8)" /><path d="M 98 179 Q 113 176 133 170 Q 134 170 135 170 L 148 172 Q 153 176 153 177 Q 152 180 150 180 Q 120 183 106 186 Q 100 187 97 185" fill="#0000ff" clip-path="url(#clip-mask-9)" /><path d="M 101 153 Q 101 154 101 154 Q 99 167 98 179 L 97 185 Q 95 210 100 222 L 93 236 Q 83 226 87 167 Q 87 158 85 150 L 92 142 Q 95 144 98 146" fill="#0000ff" clip-path="url(#clip-mask-10)" /><path d="M 100 222 Q 103 227 112 231 Q 136 239 164 231 Q 177 228 181 223 L 205 222 Q 209 228 204 233 Q 166 257 116 247 Q 99 242 93 236" fill="#0000ff" clip-path="url(#clip-mask-11)" /><path d="M 181 223 Q 185 216 191 195 Q 192 190 193 191 Q 196 192 196 196 Q 201 216 205 222" fill="#0000ff" clip-path="url(#clip-mask-12)" /><rect x="60" y="46" width="130" height="32" id="rect-1" fill="transparent" stroke="#000000"><animate attributeName="x" from="-70" to="60" dur="0.481" begin="0; animate12.end + 1s" id="animate1" fill="freeze"/></rect><rect x="83" y="28" width="27" height="78" id="rect-2" fill="transparent" stroke="#000000"><set attributeName="y" to="-50" begin="0; animate12.end + 1s" /><animate attributeName="y" from="-50" to="28" dur="0.289" begin="animate1.end + 0.5" id="animate2" fill="freeze"/></rect><rect x="138" y="12" width="33" height="88" id="rect-3" fill="transparent" stroke="#000000"><set attributeName="y" to="-76" begin="0; animate12.end + 1s" /><animate attributeName="y" from="-76" to="12" dur="0.326" begin="animate2.end + 0.5" id="animate3" fill="freeze"/></rect><rect x="35" y="86" width="188" height="40" id="rect-4" fill="transparent" stroke="#000000"><set attributeName="x" to="-153" begin="0; animate12.end + 1s" /><animate attributeName="x" from="-153" to="35" dur="0.696" begin="animate3.end + 0.5" id="animate4" fill="freeze"/></rect><rect x="11" y="115" width="92" height="86" id="rect-5" fill="transparent" stroke="#000000"><set attributeName="y" to="29" begin="0; animate12.end + 1s" /><animate attributeName="y" from="29" to="115" dur="0.319" begin="animate4.end + 0.5" id="animate5" fill="freeze"/></rect><rect x="141" y="108" width="117" height="74" id="rect-6" fill="transparent" stroke="#000000"><set attributeName="x" to="24" begin="0; animate12.end + 1s" /><animate attributeName="x" from="24" to="141" dur="0.433" begin="animate5.end + 0.5" id="animate6" fill="freeze"/></rect><rect x="98" y="131" width="61" height="22" id="rect-7" fill="transparent" stroke="#000000"><set attributeName="x" to="37" begin="0; animate12.end + 1s" /><animate attributeName="x" from="37" to="98" dur="0.226" begin="animate6.end + 0.5" id="animate7" fill="freeze"/></rect><rect x="135" y="143" width="30" height="29" id="rect-8" fill="transparent" stroke="#000000"><set attributeName="y" to="114" begin="0; animate12.end + 1s" /><animate attributeName="y" from="114" to="143" dur="0.107" begin="animate7.end" id="animate8" fill="freeze"/></rect><rect x="97" y="170" width="56" height="17" id="rect-9" fill="transparent" stroke="#000000"><set attributeName="x" to="41" begin="0; animate12.end + 1s" /><animate attributeName="x" from="41" to="97" dur="0.207" begin="animate8.end + 0.5" id="animate9" fill="freeze"/></rect><rect x="83" y="142" width="18" height="94" id="rect-10" fill="transparent" stroke="#000000"><set attributeName="y" to="48" begin="0; animate12.end + 1s" /><animate attributeName="y" from="48" to="142" dur="0.348" begin="animate9.end + 0.5" id="animate10" fill="freeze"/></rect><rect x="93" y="222" width="116" height="35" id="rect-11" fill="transparent" stroke="#000000"><set attributeName="x" to="-23" begin="0; animate12.end + 1s" /><animate attributeName="x" from="-23" to="93" dur="0.430" begin="animate10.end" id="animate11" fill="freeze"/></rect><rect x="181" y="190" width="24" height="33" id="rect-12" fill="transparent" stroke="#000000"><set attributeName="y" to="223" begin="0; animate12.end + 1s" /><animate attributeName="y" from="223" to="190" dur="0.122" begin="animate11.end" id="animate12" fill="freeze"/></rect></svg>