<svg xmlns="http://www.w3.org/2000/svg" xmlns:xlink="http://www.w3.org/1999/xlink" width="270" height="270"><defs><clipPath id="clip-mask-1"><use xlink:href="#rect-1" /></clipPath><clipPath id="clip-mask-2"><use xlink:href="#rect-2" /></clipPath><clipPath id="clip-mask-3"><use xlink:href="#rect-3" /></clipPath><clipPath id="clip-mask-4"><use xlink:href="#rect-4" /></clipPath><clipPath id="clip-mask-5"><use xlink:href="#rect-5" /></clipPath><clipPath id="clip-mask-6"><use xlink:href="#rect-6" /></clipPath></defs><path d="M 0 0 L 270 270 M 270 0 L 0 270 M 135 0 L 135 270 M 0 135 L 270 135" stroke="#CCCCCC" /><path d="M 100 54 Q 88 71 69 85 Q 62 89 57 90 Q 53 91 56 87 Q 64 76 68 74 Q 97 41 96 17 Q 95 12 98 12 Q 106 11 117 21 Q 122 25 118 29 Q 111 38 104 49" fill="#CCCCCC"/><path d="M 127 59 Q 108 62 100 54 L 104 49 Q 104 49 105 49 Q 119 47 148 42 Q 179 33 186 34 Q 194 37 196 40 Q 197 42 195 45 Q 194 45 143 56" fill="#CCCCCC"/><path d="M 135 102 Q 114 106 98 109 L 87 98 Q 129 93 135 92 L 151 88 Q 153 88 157 87 Q 180 81 190 86 Q 196 89 195 93 Q 193 96 190 95 Q 152 100 150 100" fill="#CCCCCC"/><path d="M 89 146 Q 83 121 80 114 Q 77 108 73 102 Q 71 98 72 96 Q 75 94 79 95 Q 83 96 87 98 L 98 109 Q 98 110 98 110 Q 97 116 101 145" fill="#CCCCCC"/><path d="M 70 158 L 46 167 Q 37 171 25 161 Q 20 157 20 154 Q 20 151 24 151 Q 44 151 70 148 Q 79 147 89 146 L 101 145 Q 116 142 135 141 L 149 140 Q 202 134 209 132 Q 226 127 246 144 Q 249 147 247 151 Q 245 154 239 153 Q 191 147 149 152 L 134 153" fill="#CCCCCC"/><path d="M 135 141 Q 135 120 135 102 L 135 92 Q 135 86 135 80 Q 134 75 128 60 Q 127 60 127 59 L 143 56 Q 146 58 151 61 Q 155 64 154 69 Q 151 80 151 88 L 150 100 Q 149 122 149 140 L 149 152 Q 149 180 150 191 Q 150 214 147 237 Q 146 255 141 257 Q 139 258 137 256 Q 136 255 136 254 Q 132 246 134 153" fill="#CCCCCC"/><path d="M 100 54 Q 88 71 69 85 Q 62 89 57 90 Q 53 91 56 87 Q 64 76 68 74 Q 97 41 96 17 Q 95 12 98 12 Q 106 11 117 21 Q 122 25 118 29 Q 111 38 104 49" fill="#000080" clip-path="url(#clip-mask-1)" /><path d="M 127 59 Q 108 62 100 54 L 104 49 Q 104 49 105 49 Q 119 47 148 42 Q 179 33 186 34 Q 194 37 196 40 Q 197 42 195 45 Q 194 45 143 56" fill="#0000ff" clip-path="url(#clip-mask-2)" /><path d="M 135 102 Q 114 106 98 109 L 87 98 Q 129 93 135 92 L 151 88 Q 153 88 157 87 Q 180 81 190 86 Q 196 89 195 93 Q 193 96 190 95 Q 152 100 150 100" fill="#000080" clip-path="url(#clip-mask-3)" /><path d="M 89 146 Q 83 121 80 114 Q 77 108 73 102 Q 71 98 72 96 Q 75 94 79 95 Q 83 96 87 98 L 98 109 Q 98 110 98 110 Q 97 116 101 145" fill="#000080" clip-path="url(#clip-mask-4)" /><path d="M 70 158 L 46 167 Q 37 171 25 161 Q 20 157 20 154 Q 20 151 24 151 Q 44 151 70 148 Q 79 147 89 146 L 101 145 Q 116 142 135 141 L 149 140 Q 202 134 209 132 Q 226 127 246 144 Q 249 147 247 151 Q 245 154 239 153 Q 191 147 149 152 L 134 153" fill="#0000ff" clip-path="url(#clip-mask-5)" /><path d="M 135 141 Q 135 120 135 102 L 135 92 Q 135 86 135 80 Q 134 75 128 60 Q 127 60 127 59 L 143 56 Q 146 58 151 61 Q 155 64 154 69 Q 151 80 151 88 L 150 100 Q 149 122 149 140 L 149 152 Q 149 180 150 191 Q 150 214 147 237 Q 146 255 141 257 Q 139 258 137 256 Q 136 255 136 254 Q 132 246 134 153" fill="#0000ff" clip-path="url(#clip-mask-6)" /><rect x="53" y="11" width="69" height="80" id="rect-1" fill="transparent" stroke="#000000"><animate attributeName="y" from="-69" to="11" dur="0.296" begin="0; animate6.end + 1s" id="animate1" fill="freeze"/></rect><rect x="100" y="33" width="97" height="29" id="rect-2" fill="transparent" stroke="#000000"><set attributeName="x" to="3" begin="0; animate6.end + 1s" /><animate attributeName="x" from="3" to="100" dur="0.359" begin="animate1.end + 0.5" id="animate2" fill="freeze"/></rect><rect x="87" y="81" width="109" height="28" id="rect-3" fill="transparent" stroke="#000000"><set attributeName="x" to="-22" begin="0; animate6.end + 1s" /><animate attributeName="x" from="-22" to="87" dur="0.404" begin="animate2.end + 0.5" id="animate3" fill="freeze"/></rect><rect x="71" y="94" width="30" height="52" id="rect-4" fill="transparent" stroke="#000000"><set attributeName="y" to="42" begin="0; animate6.end + 1s" /><animate attributeName="y" from="42" to="94" dur="0.193" begin="animate3.end + 0.5" id="animate4" fill="freeze"/></rect><rect x="20" y="127" width="229" height="44" id="rect-5" fill="transparent" stroke="#000000"><set attributeName="x" to="-209" begin="0; animate6.end + 1s" /><animate attributeName="x" from="-209" to="20" dur="0.848" begin="animate4.end + 0.5" id="animate5" fill="freeze"/></rect><rect x="127" y="56" width="28" height="202" id="rect-6" fill="transparent" stroke="#000000"><set attributeName="y" to="-146" begin="0; animate6.end + 1s" /><animate attributeName="y" from="-146" to="56" dur="0.748" begin="animate5.end + 0.5" id="animate6" fill="freeze"/></rect></svg>