<svg xmlns="http://www.w3.org/2000/svg" xmlns:xlink="http://www.w3.org/1999/xlink" width="270" height="270"><defs><clipPath id="clip-mask-1"><use xlink:href="#rect-1" /></clipPath><clipPath id="clip-mask-2"><use xlink:href="#rect-2" /></clipPath><clipPath id="clip-mask-3"><use xlink:href="#rect-3" /></clipPath><clipPath id="clip-mask-4"><use xlink:href="#rect-4" /></clipPath><clipPath id="clip-mask-5"><use xlink:href="#rect-5" /></clipPath><clipPath id="clip-mask-6"><use xlink:href="#rect-6" /></clipPath><clipPath id="clip-mask-7"><use xlink:href="#rect-7" /></clipPath><clipPath id="clip-mask-8"><use xlink:href="#rect-8" /></clipPath><clipPath id="clip-mask-9"><use xlink:href="#rect-9" /></clipPath><clipPath id="clip-mask-10"><use xlink:href="#rect-10" /></clipPath></defs><path d="M 0 0 L 270 270 M 270 0 L 0 270 M 135 0 L 135 270 M 0 135 L 270 135" stroke="#CCCCCC" /><path d="M 119 29 L 118 27 Q 118 23 119 22 Q 122 20 142 25 Q 151 28 152 33 Q 156 41 155 45 Q 154 49 151 49 Q 146 50 142 46 Q 135 40 127 35" fill="#CCCCCC"/><path d="M 85 73 L 85 73 Q 113 70 137 65 Q 158 59 178 53 Q 186 50 194 51 Q 202 53 204 56 Q 205 59 203 61 Q 200 63 183 67 Q 145 75 109 82 Q 96 85 86 81 L 85 73" fill="#CCCCCC"/><path d="M 86 81 Q 84 83 82 109 Q 77 158 59 195 Q 55 203 51 210 Q 29 242 22 243 Q 19 243 20 240 Q 20 238 22 237 Q 42 205 52 177 Q 64 147 66 100 Q 66 95 66 91 Q 68 78 62 69 Q 60 65 64 63 Q 67 62 73 65 Q 81 69 85 73" fill="#CCCCCC"/><path d="M 138 117 Q 135 118 131 119 Q 121 123 114 125 L 111 121 Q 156 97 155 89 Q 155 86 157 85 Q 165 84 180 94 Q 183 96 182 99 Q 182 101 177 101 Q 163 104 148 113" fill="#CCCCCC"/><path d="M 114 125 Q 115 126 115 129 Q 113 135 112 196 L 96 232 Q 92 236 89 233 Q 86 230 84 223 Q 82 217 85 214 Q 95 205 97 196 Q 101 182 101 161 Q 101 133 94 123 Q 92 118 93 117 Q 95 115 99 116 Q 108 118 111 121" fill="#CCCCCC"/><path d="M 112 196 Q 111 200 113 201 Q 113 202 116 201 Q 146 186 148 186 Q 150 186 149 188 Q 149 190 145 193 Q 108 219 96 232" fill="#CCCCCC"/><path d="M 154 157 L 153 157 Q 132 164 122 160 Q 116 156 124 154 Q 139 151 152 147 L 165 143 Q 175 138 186 133 Q 193 130 200 130 Q 208 131 209 134 Q 211 136 209 138 Q 208 139 167 153 L 155 157" fill="#CCCCCC"/><path d="M 152 147 Q 146 125 139 118 Q 138 117 138 117 L 148 113 Q 151 114 155 116 Q 166 121 165 126 Q 163 134 165 143 L 167 153 Q 174 173 191 195 Q 201 207 211 214 Q 221 221 226 221 L 248 239 Q 250 248 243 249 Q 234 248 218 240 Q 213 237 211 235 Q 174 207 155 157" fill="#CCCCCC"/><path d="M 226 221 Q 229 221 233 211 Q 235 203 237 195 Q 238 191 239 191 Q 241 191 241 195 Q 245 231 248 239" fill="#CCCCCC"/><path d="M 138 214 L 138 212 Q 138 209 139 208 Q 143 206 160 214 Q 167 217 168 222 Q 170 230 169 233 Q 167 237 164 237 Q 160 237 157 233 Q 151 226 145 220" fill="#CCCCCC"/><path d="M 119 29 L 118 27 Q 118 23 119 22 Q 122 20 142 25 Q 151 28 152 33 Q 156 41 155 45 Q 154 49 151 49 Q 146 50 142 46 Q 135 40 127 35" fill="#0000ff" clip-path="url(#clip-mask-1)" /><path d="M 85 73 L 85 73 Q 113 70 137 65 Q 158 59 178 53 Q 186 50 194 51 Q 202 53 204 56 Q 205 59 203 61 Q 200 63 183 67 Q 145 75 109 82 Q 96 85 86 81 L 85 73" fill="#0000ff" clip-path="url(#clip-mask-2)" /><path d="M 86 81 Q 84 83 82 109 Q 77 158 59 195 Q 55 203 51 210 Q 29 242 22 243 Q 19 243 20 240 Q 20 238 22 237 Q 42 205 52 177 Q 64 147 66 100 Q 66 95 66 91 Q 68 78 62 69 Q 60 65 64 63 Q 67 62 73 65 Q 81 69 85 73" fill="#0000ff" clip-path="url(#clip-mask-3)" /><path d="M 138 117 Q 135 118 131 119 Q 121 123 114 125 L 111 121 Q 156 97 155 89 Q 155 86 157 85 Q 165 84 180 94 Q 183 96 182 99 Q 182 101 177 101 Q 163 104 148 113" fill="#000080" clip-path="url(#clip-mask-4)" /><path d="M 114 125 Q 115 126 115 129 Q 113 135 112 196 L 96 232 Q 92 236 89 233 Q 86 230 84 223 Q 82 217 85 214 Q 95 205 97 196 Q 101 182 101 161 Q 101 133 94 123 Q 92 118 93 117 Q 95 115 99 116 Q 108 118 111 121" fill="#000080" clip-path="url(#clip-mask-5)" /><path d="M 112 196 Q 111 200 113 201 Q 113 202 116 201 Q 146 186 148 186 Q 150 186 149 188 Q 149 190 145 193 Q 108 219 96 232" fill="#000080" clip-path="url(#clip-mask-6)" /><path d="M 154 157 L 153 157 Q 132 164 122 160 Q 116 156 124 154 Q 139 151 152 147 L 165 143 Q 175 138 186 133 Q 193 130 200 130 Q 208 131 209 134 Q 211 136 209 138 Q 208 139 167 153 L 155 157" fill="#000080" clip-path="url(#clip-mask-7)" /><path d="M 152 147 Q 146 125 139 118 Q 138 117 138 117 L 148 113 Q 151 114 155 116 Q 166 121 165 126 Q 163 134 165 143 L 167 153 Q 174 173 191 195 Q 201 207 211 214 Q 221 221 226 221 L 248 239 Q 250 248 243 249 Q 234 248 218 240 Q 213 237 211 235 Q 174 207 155 157" fill="#000080" clip-path="url(#clip-mask-8)" /><path d="M 226 221 Q 229 221 233 211 Q 235 203 237 195 Q 238 191 239 191 Q 241 191 241 195 Q 245 231 248 239" fill="#000080" clip-path="url(#clip-mask-9)" /><path d="M 138 214 L 138 212 Q 138 209 139 208 Q 143 206 160 214 Q 167 217 168 222 Q 170 230 169 233 Q 167 237 164 237 Q 160 237 157 233 Q 151 226 145 220" fill="#000080" clip-path="url(#clip-mask-10)" /><rect x="118" y="20" width="38" height="30" id="rect-1" fill="transparent" stroke="#000000"><animate attributeName="x" from="80" to="118" dur="0.141" begin="0; animate10.end + 1s" id="animate1" fill="freeze"/></rect><rect x="85" y="50" width="120" height="35" id="rect-2" fill="transparent" stroke="#000000"><set attributeName="x" to="-35" begin="0; animate10.end + 1s" /><animate attributeName="x" from="-35" to="85" dur="0.444" begin="animate1.end + 0.5" id="animate2" fill="freeze"/></rect><rect x="19" y="62" width="67" height="181" id="rect-3" fill="transparent" stroke="#000000"><set attributeName="y" to="-119" begin="0; animate10.end + 1s" /><animate attributeName="y" from="-119" to="62" dur="0.670" begin="animate2.end + 0.5" id="animate3" fill="freeze"/></rect><rect x="111" y="84" width="72" height="41" id="rect-4" fill="transparent" stroke="#000000"><set attributeName="x" to="183" begin="0; animate10.end + 1s" /><animate attributeName="x" from="183" to="111" dur="0.267" begin="animate3.end + 0.5" id="animate4" fill="freeze"/></rect><rect x="82" y="115" width="33" height="121" id="rect-5" fill="transparent" stroke="#000000"><set attributeName="y" to="-6" begin="0; animate10.end + 1s" /><animate attributeName="y" from="-6" to="115" dur="0.448" begin="animate4.end + 0.5" id="animate5" fill="freeze"/></rect><rect x="96" y="186" width="54" height="46" id="rect-6" fill="transparent" stroke="#000000"><set attributeName="x" to="42" begin="0; animate10.end + 1s" /><animate attributeName="x" from="42" to="96" dur="0.200" begin="animate5.end" id="animate6" fill="freeze"/></rect><rect x="116" y="130" width="95" height="34" id="rect-7" fill="transparent" stroke="#000000"><set attributeName="x" to="21" begin="0; animate10.end + 1s" /><animate attributeName="x" from="21" to="116" dur="0.352" begin="animate6.end + 0.5" id="animate7" fill="freeze"/></rect><rect x="138" y="113" width="112" height="136" id="rect-8" fill="transparent" stroke="#000000"><set attributeName="y" to="-23" begin="0; animate10.end + 1s" /><animate attributeName="y" from="-23" to="113" dur="0.504" begin="animate7.end + 0.5" id="animate8" fill="freeze"/></rect><rect x="226" y="191" width="22" height="48" id="rect-9" fill="transparent" stroke="#000000"><set attributeName="y" to="239" begin="0; animate10.end + 1s" /><animate attributeName="y" from="239" to="191" dur="0.178" begin="animate8.end" id="animate9" fill="freeze"/></rect><rect x="138" y="206" width="32" height="31" id="rect-10" fill="transparent" stroke="#000000"><set attributeName="x" to="106" begin="0; animate10.end + 1s" /><animate attributeName="x" from="106" to="138" dur="0.119" begin="animate9.end + 0.5" id="animate10" fill="freeze"/></rect></svg>