<svg xmlns="http://www.w3.org/2000/svg" xmlns:xlink="http://www.w3.org/1999/xlink" width="270" height="270"><defs><clipPath id="clip-mask-1"><use xlink:href="#rect-1" /></clipPath><clipPath id="clip-mask-2"><use xlink:href="#rect-2" /></clipPath><clipPath id="clip-mask-3"><use xlink:href="#rect-3" /></clipPath><clipPath id="clip-mask-4"><use xlink:href="#rect-4" /></clipPath><clipPath id="clip-mask-5"><use xlink:href="#rect-5" /></clipPath><clipPath id="clip-mask-6"><use xlink:href="#rect-6" /></clipPath><clipPath id="clip-mask-7"><use xlink:href="#rect-7" /></clipPath><clipPath id="clip-mask-8"><use xlink:href="#rect-8" /></clipPath><clipPath id="clip-mask-9"><use xlink:href="#rect-9" /></clipPath><clipPath id="clip-mask-10"><use xlink:href="#rect-10" /></clipPath><clipPath id="clip-mask-11"><use xlink:href="#rect-11" /></clipPath><clipPath id="clip-mask-12"><use xlink:href="#rect-12" /></clipPath><clipPath id="clip-mask-13"><use xlink:href="#rect-13" /></clipPath><clipPath id="clip-mask-14"><use xlink:href="#rect-14" /></clipPath></defs><path d="M 0 0 L 270 270 M 270 0 L 0 270 M 135 0 L 135 270 M 0 135 L 270 135" stroke="#CCCCCC" /><path d="M 132 20 L 130 18 Q 130 14 131 13 Q 133 12 137 13 Q 157 16 161 22 Q 164 31 163 35 Q 161 38 159 39 Q 154 39 150 36 Q 145 31 139 26" fill="#CCCCCC"/><path d="M 92 59 L 93 59 Q 133 57 178 46 Q 204 38 212 40 Q 220 42 221 45 Q 222 48 220 49 Q 216 53 115 69 Q 106 71 94 68 L 91 60" fill="#CCCCCC"/><path d="M 94 68 Q 91 73 90 87 Q 85 142 67 183 Q 64 190 61 196 Q 40 229 31 230 Q 28 231 28 228 Q 29 227 30 225 Q 50 195 61 166 Q 63 158 66 150 Q 71 130 75 80 Q 76 65 71 58 Q 69 54 72 52 Q 76 51 81 54 Q 87 57 91 60" fill="#CCCCCC"/><path d="M 112 179 L 110 181 Q 108 184 105 181 Q 98 171 101 160 Q 103 150 103 139 Q 104 112 100 95 Q 99 92 100 91 Q 103 90 105 91 Q 110 93 112 96 L 115 102 Q 114 103 114 119 L 114 126 Q 113 134 113 145 L 113 152 Q 113 166 113 168 L 112 176" fill="#CCCCCC"/><path d="M 149 96 Q 148 95 146 95 Q 130 99 115 102 L 112 96 Q 127 93 144 85 Q 148 83 154 85 Q 166 89 168 91" fill="#CCCCCC"/><path d="M 150 164 Q 150 163 150 162 Q 154 101 149 96 L 168 91 Q 170 94 167 98 Q 163 105 163 144 Q 163 176 161 181 Q 158 187 156 187 Q 155 188 151 182" fill="#CCCCCC"/><path d="M 114 119 Q 126 115 133 115 Q 138 116 141 120 Q 143 122 138 123 Q 128 125 114 126" fill="#CCCCCC"/><path d="M 113 145 Q 122 140 133 140 Q 138 141 141 145 Q 143 147 138 148 Q 127 150 113 152" fill="#CCCCCC"/><path d="M 113 168 Q 141 161 147 162 Q 149 163 150 164 L 151 182 Q 151 174 148 172 Q 130 173 112 176" fill="#CCCCCC"/><path d="M 110 189 L 112 189 Q 115 188 121 191 Q 127 193 128 196 Q 128 198 126 201 Q 122 204 115 210 Q 90 235 73 237 Q 66 238 71 234 Q 106 207 109 192" fill="#CCCCCC"/><path d="M 139 199 L 139 196 Q 140 194 141 193 Q 142 193 145 194 Q 163 204 164 211 Q 164 218 163 221 Q 161 224 159 223 Q 155 222 153 219 Q 148 211 144 205" fill="#CCCCCC"/><path d="M 178 107 L 180 106 Q 182 104 185 105 Q 189 107 193 110 Q 198 112 197 118 Q 195 133 196 162 Q 196 183 192 189 Q 190 192 187 189 Q 180 181 182 172 Q 187 127 179 111" fill="#CCCCCC"/><path d="M 218 88 L 213 82 Q 208 76 213 74 Q 218 72 227 77 Q 241 82 237 90 Q 229 121 237 217 Q 237 236 233 248 Q 228 257 225 257 Q 221 256 217 247 L 220 217 Q 220 105 219 98" fill="#CCCCCC"/><path d="M 217 247 Q 214 240 200 227 Q 195 222 195 220 Q 195 218 203 221 Q 216 224 218 224 Q 220 222 220 217" fill="#CCCCCC"/><path d="M 132 20 L 130 18 Q 130 14 131 13 Q 133 12 137 13 Q 157 16 161 22 Q 164 31 163 35 Q 161 38 159 39 Q 154 39 150 36 Q 145 31 139 26" fill="#0000ff" clip-path="url(#clip-mask-1)" /><path d="M 92 59 L 93 59 Q 133 57 178 46 Q 204 38 212 40 Q 220 42 221 45 Q 222 48 220 49 Q 216 53 115 69 Q 106 71 94 68 L 91 60" fill="#0000ff" clip-path="url(#clip-mask-2)" /><path d="M 94 68 Q 91 73 90 87 Q 85 142 67 183 Q 64 190 61 196 Q 40 229 31 230 Q 28 231 28 228 Q 29 227 30 225 Q 50 195 61 166 Q 63 158 66 150 Q 71 130 75 80 Q 76 65 71 58 Q 69 54 72 52 Q 76 51 81 54 Q 87 57 91 60" fill="#0000ff" clip-path="url(#clip-mask-3)" /><path d="M 112 179 L 110 181 Q 108 184 105 181 Q 98 171 101 160 Q 103 150 103 139 Q 104 112 100 95 Q 99 92 100 91 Q 103 90 105 91 Q 110 93 112 96 L 115 102 Q 114 103 114 119 L 114 126 Q 113 134 113 145 L 113 152 Q 113 166 113 168 L 112 176" fill="#000080" clip-path="url(#clip-mask-4)" /><path d="M 149 96 Q 148 95 146 95 Q 130 99 115 102 L 112 96 Q 127 93 144 85 Q 148 83 154 85 Q 166 89 168 91" fill="#000080" clip-path="url(#clip-mask-5)" /><path d="M 150 164 Q 150 163 150 162 Q 154 101 149 96 L 168 91 Q 170 94 167 98 Q 163 105 163 144 Q 163 176 161 181 Q 158 187 156 187 Q 155 188 151 182" fill="#000080" clip-path="url(#clip-mask-6)" /><path d="M 114 119 Q 126 115 133 115 Q 138 116 141 120 Q 143 122 138 123 Q 128 125 114 126" fill="#000080" clip-path="url(#clip-mask-7)" /><path d="M 113 145 Q 122 140 133 140 Q 138 141 141 145 Q 143 147 138 148 Q 127 150 113 152" fill="#000080" clip-path="url(#clip-mask-8)" /><path d="M 113 168 Q 141 161 147 162 Q 149 163 150 164 L 151 182 Q 151 174 148 172 Q 130 173 112 176" fill="#000080" clip-path="url(#clip-mask-9)" /><path d="M 110 189 L 112 189 Q 115 188 121 191 Q 127 193 128 196 Q 128 198 126 201 Q 122 204 115 210 Q 90 235 73 237 Q 66 238 71 234 Q 106 207 109 192" fill="#000080" clip-path="url(#clip-mask-10)" /><path d="M 139 199 L 139 196 Q 140 194 141 193 Q 142 193 145 194 Q 163 204 164 211 Q 164 218 163 221 Q 161 224 159 223 Q 155 222 153 219 Q 148 211 144 205" fill="#000080" clip-path="url(#clip-mask-11)" /><path d="M 178 107 L 180 106 Q 182 104 185 105 Q 189 107 193 110 Q 198 112 197 118 Q 195 133 196 162 Q 196 183 192 189 Q 190 192 187 189 Q 180 181 182 172 Q 187 127 179 111" fill="#000080" clip-path="url(#clip-mask-12)" /><path d="M 218 88 L 213 82 Q 208 76 213 74 Q 218 72 227 77 Q 241 82 237 90 Q 229 121 237 217 Q 237 236 233 248 Q 228 257 225 257 Q 221 256 217 247 L 220 217 Q 220 105 219 98" fill="#000080" clip-path="url(#clip-mask-13)" /><path d="M 217 247 Q 214 240 200 227 Q 195 222 195 220 Q 195 218 203 221 Q 216 224 218 224 Q 220 222 220 217" fill="#000080" clip-path="url(#clip-mask-14)" /><rect x="130" y="12" width="34" height="27" id="rect-1" fill="transparent" stroke="#000000"><animate attributeName="x" from="96" to="130" dur="0.126" begin="0; animate14.end + 1s" id="animate1" fill="freeze"/></rect><rect x="91" y="38" width="131" height="33" id="rect-2" fill="transparent" stroke="#000000"><set attributeName="x" to="-40" begin="0; animate14.end + 1s" /><animate attributeName="x" from="-40" to="91" dur="0.485" begin="animate1.end + 0.5" id="animate2" fill="freeze"/></rect><rect x="28" y="51" width="66" height="180" id="rect-3" fill="transparent" stroke="#000000"><set attributeName="y" to="-129" begin="0; animate14.end + 1s" /><animate attributeName="y" from="-129" to="51" dur="0.667" begin="animate2.end + 0.5" id="animate3" fill="freeze"/></rect><rect x="98" y="90" width="17" height="94" id="rect-4" fill="transparent" stroke="#000000"><set attributeName="y" to="-4" begin="0; animate14.end + 1s" /><animate attributeName="y" from="-4" to="90" dur="0.348" begin="animate3.end + 0.5" id="animate4" fill="freeze"/></rect><rect x="112" y="83" width="56" height="19" id="rect-5" fill="transparent" stroke="#000000"><set attributeName="x" to="56" begin="0; animate14.end + 1s" /><animate attributeName="x" from="56" to="112" dur="0.207" begin="animate4.end + 0.5" id="animate5" fill="freeze"/></rect><rect x="149" y="91" width="21" height="97" id="rect-6" fill="transparent" stroke="#000000"><set attributeName="y" to="-6" begin="0; animate14.end + 1s" /><animate attributeName="y" from="-6" to="91" dur="0.359" begin="animate5.end" id="animate6" fill="freeze"/></rect><rect x="114" y="115" width="29" height="11" id="rect-7" fill="transparent" stroke="#000000"><set attributeName="x" to="85" begin="0; animate14.end + 1s" /><animate attributeName="x" from="85" to="114" dur="0.107" begin="animate6.end + 0.5" id="animate7" fill="freeze"/></rect><rect x="113" y="140" width="30" height="12" id="rect-8" fill="transparent" stroke="#000000"><set attributeName="x" to="83" begin="0; animate14.end + 1s" /><animate attributeName="x" from="83" to="113" dur="0.111" begin="animate7.end + 0.5" id="animate8" fill="freeze"/></rect><rect x="112" y="161" width="39" height="21" id="rect-9" fill="transparent" stroke="#000000"><set attributeName="x" to="73" begin="0; animate14.end + 1s" /><animate attributeName="x" from="73" to="112" dur="0.144" begin="animate8.end + 0.5" id="animate9" fill="freeze"/></rect><rect x="66" y="188" width="62" height="50" id="rect-10" fill="transparent" stroke="#000000"><set attributeName="y" to="138" begin="0; animate14.end + 1s" /><animate attributeName="y" from="138" to="188" dur="0.185" begin="animate9.end + 0.5" id="animate10" fill="freeze"/></rect><rect x="139" y="193" width="25" height="31" id="rect-11" fill="transparent" stroke="#000000"><set attributeName="x" to="114" begin="0; animate14.end + 1s" /><animate attributeName="x" from="114" to="139" dur="0.093" begin="animate10.end + 0.5" id="animate11" fill="freeze"/></rect><rect x="178" y="104" width="20" height="88" id="rect-12" fill="transparent" stroke="#000000"><set attributeName="y" to="16" begin="0; animate14.end + 1s" /><animate attributeName="y" from="16" to="104" dur="0.326" begin="animate11.end + 0.5" id="animate12" fill="freeze"/></rect><rect x="208" y="72" width="33" height="185" id="rect-13" fill="transparent" stroke="#000000"><set attributeName="y" to="-113" begin="0; animate14.end + 1s" /><animate attributeName="y" from="-113" to="72" dur="0.685" begin="animate12.end + 0.5" id="animate13" fill="freeze"/></rect><rect x="195" y="217" width="25" height="30" id="rect-14" fill="transparent" stroke="#000000"><set attributeName="x" to="220" begin="0; animate14.end + 1s" /><animate attributeName="x" from="220" to="195" dur="0.093" begin="animate13.end" id="animate14" fill="freeze"/></rect></svg>