<svg xmlns="http://www.w3.org/2000/svg" xmlns:xlink="http://www.w3.org/1999/xlink" width="270" height="270"><defs><clipPath id="clip-mask-1"><use xlink:href="#rect-1" /></clipPath><clipPath id="clip-mask-2"><use xlink:href="#rect-2" /></clipPath><clipPath id="clip-mask-3"><use xlink:href="#rect-3" /></clipPath><clipPath id="clip-mask-4"><use xlink:href="#rect-4" /></clipPath><clipPath id="clip-mask-5"><use xlink:href="#rect-5" /></clipPath><clipPath id="clip-mask-6"><use xlink:href="#rect-6" /></clipPath><clipPath id="clip-mask-7"><use xlink:href="#rect-7" /></clipPath><clipPath id="clip-mask-8"><use xlink:href="#rect-8" /></clipPath><clipPath id="clip-mask-9"><use xlink:href="#rect-9" /></clipPath><clipPath id="clip-mask-10"><use xlink:href="#rect-10" /></clipPath></defs><path d="M 0 0 L 270 270 M 270 0 L 0 270 M 135 0 L 135 270 M 0 135 L 270 135" stroke="#CCCCCC" /><path d="M 158 65 Q 155 65 154 66 Q 129 76 125 76 Q 123 76 124 73 Q 179 43 178 31 Q 178 29 180 27 Q 189 26 206 36 Q 210 39 209 42 Q 208 44 204 45 Q 197 46 167 61" fill="#CCCCCC"/><path d="M 163 120 L 163 101 Q 162 73 158 65 L 167 61 Q 172 63 177 68 Q 177 68 177 69 Q 177 69 176 103 L 176 111 Q 176 131 175 154 L 163 156" fill="#CCCCCC"/><path d="M 176 103 Q 182 102 187 101 Q 192 100 196 98 Q 204 94 212 95 Q 221 96 222 99 Q 224 102 222 104 Q 221 104 217 105 Q 214 106 211 107 Q 187 113 176 111" fill="#CCCCCC"/><path d="M 134 178 Q 130 181 127 179 Q 122 176 120 171 Q 119 169 121 165 Q 129 151 126 126 Q 125 116 120 109 Q 117 105 119 104 Q 121 102 124 102 Q 132 104 138 109 Q 141 112 140 116 Q 138 124 138 153" fill="#CCCCCC"/><path d="M 175 154 Q 189 151 191 152 Q 211 149 216 152 Q 225 157 226 160 Q 228 163 226 165 Q 224 166 218 165 Q 208 164 200 165 Q 153 165 134 178 L 138 153 Q 137 158 139 160 Q 140 161 143 160 Q 152 157 163 156" fill="#CCCCCC"/><path d="M 77 71 Q 76 70 73 71 Q 62 76 53 78 Q 46 81 36 75 Q 33 73 34 71 Q 35 69 39 70 Q 44 70 58 66 Q 71 62 76 58 Q 81 53 85 54 Q 93 56 101 62 Q 105 66 99 70" fill="#CCCCCC"/><path d="M 64 131 Q 59 135 56 131 Q 54 129 53 127 Q 52 123 56 121 Q 61 116 63 110 Q 79 75 77 71 L 99 70 Q 90 75 75 107" fill="#CCCCCC"/><path d="M 85 130 Q 81 123 64 131 L 75 107 Q 70 118 72 121 Q 73 122 76 121 Q 92 118 94 120 Q 104 126 106 128" fill="#CCCCCC"/><path d="M 76 189 L 70 195 Q 55 211 30 222 Q 22 226 19 225 Q 17 224 20 222 Q 57 199 71 174 L 75 165 Q 79 156 83 141 Q 85 133 85 130 L 106 128 Q 108 132 106 134 Q 102 137 101 139 Q 100 139 86 171 L 81 180" fill="#CCCCCC"/><path d="M 71 174 L 71 174 Q 55 164 41 164 Q 38 164 36 161 Q 35 159 37 157 Q 55 152 75 165 L 86 171 Q 87 172 89 173 Q 150 214 203 218 Q 226 218 246 221 Q 252 221 252 223 Q 251 226 247 228 Q 196 243 183 239 Q 124 210 91 186 Q 86 182 81 180" fill="#CCCCCC"/><path d="M 158 65 Q 155 65 154 66 Q 129 76 125 76 Q 123 76 124 73 Q 179 43 178 31 Q 178 29 180 27 Q 189 26 206 36 Q 210 39 209 42 Q 208 44 204 45 Q 197 46 167 61" fill="#000080" clip-path="url(#clip-mask-1)" /><path d="M 163 120 L 163 101 Q 162 73 158 65 L 167 61 Q 172 63 177 68 Q 177 68 177 69 Q 177 69 176 103 L 176 111 Q 176 131 175 154 L 163 156" fill="#000080" clip-path="url(#clip-mask-2)" /><path d="M 176 103 Q 182 102 187 101 Q 192 100 196 98 Q 204 94 212 95 Q 221 96 222 99 Q 224 102 222 104 Q 221 104 217 105 Q 214 106 211 107 Q 187 113 176 111" fill="#000080" clip-path="url(#clip-mask-3)" /><path d="M 134 178 Q 130 181 127 179 Q 122 176 120 171 Q 119 169 121 165 Q 129 151 126 126 Q 125 116 120 109 Q 117 105 119 104 Q 121 102 124 102 Q 132 104 138 109 Q 141 112 140 116 Q 138 124 138 153" fill="#000080" clip-path="url(#clip-mask-4)" /><path d="M 175 154 Q 189 151 191 152 Q 211 149 216 152 Q 225 157 226 160 Q 228 163 226 165 Q 224 166 218 165 Q 208 164 200 165 Q 153 165 134 178 L 138 153 Q 137 158 139 160 Q 140 161 143 160 Q 152 157 163 156" fill="#000080" clip-path="url(#clip-mask-5)" /><path d="M 77 71 Q 76 70 73 71 Q 62 76 53 78 Q 46 81 36 75 Q 33 73 34 71 Q 35 69 39 70 Q 44 70 58 66 Q 71 62 76 58 Q 81 53 85 54 Q 93 56 101 62 Q 105 66 99 70" fill="#0000ff" clip-path="url(#clip-mask-6)" /><path d="M 64 131 Q 59 135 56 131 Q 54 129 53 127 Q 52 123 56 121 Q 61 116 63 110 Q 79 75 77 71 L 99 70 Q 90 75 75 107" fill="#0000ff" clip-path="url(#clip-mask-7)" /><path d="M 85 130 Q 81 123 64 131 L 75 107 Q 70 118 72 121 Q 73 122 76 121 Q 92 118 94 120 Q 104 126 106 128" fill="#0000ff" clip-path="url(#clip-mask-8)" /><path d="M 76 189 L 70 195 Q 55 211 30 222 Q 22 226 19 225 Q 17 224 20 222 Q 57 199 71 174 L 75 165 Q 79 156 83 141 Q 85 133 85 130 L 106 128 Q 108 132 106 134 Q 102 137 101 139 Q 100 139 86 171 L 81 180" fill="#0000ff" clip-path="url(#clip-mask-9)" /><path d="M 71 174 L 71 174 Q 55 164 41 164 Q 38 164 36 161 Q 35 159 37 157 Q 55 152 75 165 L 86 171 Q 87 172 89 173 Q 150 214 203 218 Q 226 218 246 221 Q 252 221 252 223 Q 251 226 247 228 Q 196 243 183 239 Q 124 210 91 186 Q 86 182 81 180" fill="#0000ff" clip-path="url(#clip-mask-10)" /><rect x="123" y="26" width="87" height="50" id="rect-1" fill="transparent" stroke="#000000"><animate attributeName="x" from="210" to="123" dur="0.322" begin="0; animate10.end + 1s" id="animate1" fill="freeze"/></rect><rect x="158" y="61" width="19" height="95" id="rect-2" fill="transparent" stroke="#000000"><set attributeName="y" to="-34" begin="0; animate10.end + 1s" /><animate attributeName="y" from="-34" to="61" dur="0.352" begin="animate1.end + 0.5" id="animate2" fill="freeze"/></rect><rect x="176" y="94" width="48" height="19" id="rect-3" fill="transparent" stroke="#000000"><set attributeName="x" to="128" begin="0; animate10.end + 1s" /><animate attributeName="x" from="128" to="176" dur="0.178" begin="animate2.end + 0.5" id="animate3" fill="freeze"/></rect><rect x="117" y="102" width="24" height="79" id="rect-4" fill="transparent" stroke="#000000"><set attributeName="y" to="23" begin="0; animate10.end + 1s" /><animate attributeName="y" from="23" to="102" dur="0.293" begin="animate3.end + 0.5" id="animate4" fill="freeze"/></rect><rect x="134" y="149" width="94" height="29" id="rect-5" fill="transparent" stroke="#000000"><set attributeName="x" to="40" begin="0; animate10.end + 1s" /><animate attributeName="x" from="40" to="134" dur="0.348" begin="animate4.end" id="animate5" fill="freeze"/></rect><rect x="33" y="53" width="72" height="28" id="rect-6" fill="transparent" stroke="#000000"><set attributeName="x" to="-39" begin="0; animate10.end + 1s" /><animate attributeName="x" from="-39" to="33" dur="0.267" begin="animate5.end + 0.5" id="animate6" fill="freeze"/></rect><rect x="52" y="70" width="47" height="65" id="rect-7" fill="transparent" stroke="#000000"><set attributeName="y" to="5" begin="0; animate10.end + 1s" /><animate attributeName="y" from="5" to="70" dur="0.241" begin="animate6.end" id="animate7" fill="freeze"/></rect><rect x="64" y="107" width="42" height="24" id="rect-8" fill="transparent" stroke="#000000"><set attributeName="x" to="22" begin="0; animate10.end + 1s" /><animate attributeName="x" from="22" to="64" dur="0.156" begin="animate7.end" id="animate8" fill="freeze"/></rect><rect x="17" y="128" width="91" height="98" id="rect-9" fill="transparent" stroke="#000000"><set attributeName="y" to="30" begin="0; animate10.end + 1s" /><animate attributeName="y" from="30" to="128" dur="0.363" begin="animate8.end" id="animate9" fill="freeze"/></rect><rect x="35" y="152" width="217" height="91" id="rect-10" fill="transparent" stroke="#000000"><set attributeName="x" to="-182" begin="0; animate10.end + 1s" /><animate attributeName="x" from="-182" to="35" dur="0.804" begin="animate9.end + 0.5" id="animate10" fill="freeze"/></rect></svg>