<svg xmlns="http://www.w3.org/2000/svg" xmlns:xlink="http://www.w3.org/1999/xlink" width="270" height="270"><defs><clipPath id="clip-mask-1"><use xlink:href="#rect-1" /></clipPath><clipPath id="clip-mask-2"><use xlink:href="#rect-2" /></clipPath><clipPath id="clip-mask-3"><use xlink:href="#rect-3" /></clipPath><clipPath id="clip-mask-4"><use xlink:href="#rect-4" /></clipPath><clipPath id="clip-mask-5"><use xlink:href="#rect-5" /></clipPath><clipPath id="clip-mask-6"><use xlink:href="#rect-6" /></clipPath><clipPath id="clip-mask-7"><use xlink:href="#rect-7" /></clipPath></defs><path d="M 0 0 L 270 270 M 270 0 L 0 270 M 135 0 L 135 270 M 0 135 L 270 135" stroke="#CCCCCC" /><path d="M 167 37 Q 165 34 159 36 Q 137 40 114 45 Q 104 49 97 45 Q 91 44 90 41 Q 90 38 95 38 Q 121 34 150 26 Q 169 18 175 21 Q 190 29 194 33" fill="#CCCCCC"/><path d="M 159 69 Q 159 69 159 69 Q 170 41 167 37 L 194 33 Q 198 38 193 43 Q 183 49 174 71" fill="#CCCCCC"/><path d="M 125 79 L 159 69 L 174 71 Q 181 75 181 77 Q 181 80 178 80 Q 124 87 100 93 Q 98 93 98 94 L 96 84" fill="#CCCCCC"/><path d="M 98 94 Q 93 104 87 127 L 82 147 Q 77 150 74 148 Q 68 143 65 139 Q 62 136 66 132 Q 75 122 76 117 Q 82 89 79 81 Q 77 77 80 76 Q 82 74 89 78 Q 93 79 96 84" fill="#CCCCCC"/><path d="M 87 127 Q 87 131 93 129 Q 102 127 159 115 Q 179 109 187 114 Q 201 121 204 125 L 175 127 Q 172 125 165 126 Q 106 134 82 147" fill="#CCCCCC"/><path d="M 204 125 Q 207 128 202 133 Q 196 138 193 152 Q 180 210 176 222 Q 168 236 153 245 Q 145 251 140 241 L 151 216 Q 157 213 160 205 Q 172 171 177 146 Q 180 134 175 127" fill="#CCCCCC"/><path d="M 140 241 Q 135 231 124 220 Q 119 215 119 212 Q 119 209 124 212 Q 149 217 151 216" fill="#CCCCCC"/><path d="M 167 37 Q 165 34 159 36 Q 137 40 114 45 Q 104 49 97 45 Q 91 44 90 41 Q 90 38 95 38 Q 121 34 150 26 Q 169 18 175 21 Q 190 29 194 33" fill="#0000ff" clip-path="url(#clip-mask-1)" /><path d="M 159 69 Q 159 69 159 69 Q 170 41 167 37 L 194 33 Q 198 38 193 43 Q 183 49 174 71" fill="#0000ff" clip-path="url(#clip-mask-2)" /><path d="M 125 79 L 159 69 L 174 71 Q 181 75 181 77 Q 181 80 178 80 Q 124 87 100 93 Q 98 93 98 94 L 96 84" fill="#0000ff" clip-path="url(#clip-mask-3)" /><path d="M 98 94 Q 93 104 87 127 L 82 147 Q 77 150 74 148 Q 68 143 65 139 Q 62 136 66 132 Q 75 122 76 117 Q 82 89 79 81 Q 77 77 80 76 Q 82 74 89 78 Q 93 79 96 84" fill="#0000ff" clip-path="url(#clip-mask-4)" /><path d="M 87 127 Q 87 131 93 129 Q 102 127 159 115 Q 179 109 187 114 Q 201 121 204 125 L 175 127 Q 172 125 165 126 Q 106 134 82 147" fill="#0000ff" clip-path="url(#clip-mask-5)" /><path d="M 204 125 Q 207 128 202 133 Q 196 138 193 152 Q 180 210 176 222 Q 168 236 153 245 Q 145 251 140 241 L 151 216 Q 157 213 160 205 Q 172 171 177 146 Q 180 134 175 127" fill="#0000ff" clip-path="url(#clip-mask-6)" /><path d="M 140 241 Q 135 231 124 220 Q 119 215 119 212 Q 119 209 124 212 Q 149 217 151 216" fill="#0000ff" clip-path="url(#clip-mask-7)" /><rect x="90" y="18" width="104" height="31" id="rect-1" fill="transparent" stroke="#000000"><animate attributeName="x" from="-14" to="90" dur="0.385" begin="0; animate7.end + 1s" id="animate1" fill="freeze"/></rect><rect x="159" y="33" width="39" height="38" id="rect-2" fill="transparent" stroke="#000000"><set attributeName="y" to="-5" begin="0; animate7.end + 1s" /><animate attributeName="y" from="-5" to="33" dur="0.141" begin="animate1.end" id="animate2" fill="freeze"/></rect><rect x="96" y="69" width="85" height="25" id="rect-3" fill="transparent" stroke="#000000"><set attributeName="x" to="11" begin="0; animate7.end + 1s" /><animate attributeName="x" from="11" to="96" dur="0.315" begin="animate2.end + 0.5" id="animate3" fill="freeze"/></rect><rect x="62" y="74" width="36" height="76" id="rect-4" fill="transparent" stroke="#000000"><set attributeName="y" to="-2" begin="0; animate7.end + 1s" /><animate attributeName="y" from="-2" to="74" dur="0.281" begin="animate3.end + 0.5" id="animate4" fill="freeze"/></rect><rect x="82" y="109" width="122" height="38" id="rect-5" fill="transparent" stroke="#000000"><set attributeName="x" to="-40" begin="0; animate7.end + 1s" /><animate attributeName="x" from="-40" to="82" dur="0.452" begin="animate4.end" id="animate5" fill="freeze"/></rect><rect x="140" y="125" width="67" height="126" id="rect-6" fill="transparent" stroke="#000000"><set attributeName="y" to="-1" begin="0; animate7.end + 1s" /><animate attributeName="y" from="-1" to="125" dur="0.467" begin="animate5.end" id="animate6" fill="freeze"/></rect><rect x="119" y="209" width="32" height="32" id="rect-7" fill="transparent" stroke="#000000"><set attributeName="x" to="151" begin="0; animate7.end + 1s" /><animate attributeName="x" from="151" to="119" dur="0.119" begin="animate6.end" id="animate7" fill="freeze"/></rect></svg>