<svg xmlns="http://www.w3.org/2000/svg" xmlns:xlink="http://www.w3.org/1999/xlink" width="270" height="270"><defs><clipPath id="clip-mask-1"><use xlink:href="#rect-1" /></clipPath><clipPath id="clip-mask-2"><use xlink:href="#rect-2" /></clipPath><clipPath id="clip-mask-3"><use xlink:href="#rect-3" /></clipPath><clipPath id="clip-mask-4"><use xlink:href="#rect-4" /></clipPath><clipPath id="clip-mask-5"><use xlink:href="#rect-5" /></clipPath><clipPath id="clip-mask-6"><use xlink:href="#rect-6" /></clipPath><clipPath id="clip-mask-7"><use xlink:href="#rect-7" /></clipPath><clipPath id="clip-mask-8"><use xlink:href="#rect-8" /></clipPath><clipPath id="clip-mask-9"><use xlink:href="#rect-9" /></clipPath><clipPath id="clip-mask-10"><use xlink:href="#rect-10" /></clipPath></defs><path d="M 0 0 L 270 270 M 270 0 L 0 270 M 135 0 L 135 270 M 0 135 L 270 135" stroke="#CCCCCC" /><path d="M 89 134 Q 90 140 89 143 Q 87 148 82 142 Q 76 136 75 127 Q 69 99 59 83 Q 56 78 58 76 Q 59 74 63 75 Q 72 76 76 78 L 80 87 Q 82 97 88 125" fill="#CCCCCC"/><path d="M 120 81 Q 104 83 87 86 Q 83 87 80 87 L 76 78 Q 98 76 120 73 L 137 69 Q 149 66 163 62 Q 181 54 202 74 L 172 76 Q 169 72 160 74 Q 148 76 136 78" fill="#CCCCCC"/><path d="M 163 113 Q 169 100 173 84 Q 175 79 172 76 L 202 74 Q 206 80 200 85 Q 190 91 179 115" fill="#CCCCCC"/><path d="M 104 131 L 93 134 Q 91 134 89 134 L 88 125 Q 103 123 121 121 L 134 119 Q 148 116 163 113 L 179 115 Q 186 119 186 121 Q 185 124 183 124 Q 154 126 133 128 L 121 130" fill="#CCCCCC"/><path d="M 121 121 Q 121 109 121 89 Q 120 85 120 81 L 120 73 Q 120 50 119 38 Q 119 32 115 29 Q 111 25 114 23 Q 117 20 122 21 Q 133 24 139 29 Q 144 33 142 37 Q 139 41 137 69 L 136 78 Q 135 87 135 98 Q 134 110 134 119 L 133 128 Q 132 150 130 155 Q 127 160 124 156 Q 122 153 121 130" fill="#CCCCCC"/><path d="M 48 170 L 50 169 Q 52 170 54 172 Q 56 180 55 190 Q 55 200 51 212 Q 46 222 40 227 Q 34 232 31 226 Q 24 216 31 205 Q 40 190 46 172" fill="#CCCCCC"/><path d="M 76 178 L 78 178 Q 80 177 84 179 Q 87 181 89 188 Q 92 202 100 210 Q 118 229 165 231 Q 177 231 180 227 L 207 227 Q 216 235 215 238 Q 214 242 207 245 Q 197 248 187 249 Q 129 249 103 229 Q 81 213 77 182" fill="#CCCCCC"/><path d="M 180 227 Q 182 225 180 218 Q 179 196 179 195 Q 180 193 184 199 Q 193 213 207 227" fill="#CCCCCC"/><path d="M 117 171 L 117 168 Q 117 164 118 164 Q 121 163 126 166 Q 149 176 152 190 Q 152 195 150 198 Q 146 202 142 200 Q 133 194 120 176" fill="#CCCCCC"/><path d="M 184 154 L 184 150 Q 184 146 187 147 Q 233 156 239 171 Q 245 184 241 189 Q 239 192 237 192 Q 232 191 226 186 Q 205 168 188 156" fill="#CCCCCC"/><path d="M 89 134 Q 90 140 89 143 Q 87 148 82 142 Q 76 136 75 127 Q 69 99 59 83 Q 56 78 58 76 Q 59 74 63 75 Q 72 76 76 78 L 80 87 Q 82 97 88 125" fill="#000080" clip-path="url(#clip-mask-1)" /><path d="M 120 81 Q 104 83 87 86 Q 83 87 80 87 L 76 78 Q 98 76 120 73 L 137 69 Q 149 66 163 62 Q 181 54 202 74 L 172 76 Q 169 72 160 74 Q 148 76 136 78" fill="#000080" clip-path="url(#clip-mask-2)" /><path d="M 163 113 Q 169 100 173 84 Q 175 79 172 76 L 202 74 Q 206 80 200 85 Q 190 91 179 115" fill="#000080" clip-path="url(#clip-mask-3)" /><path d="M 104 131 L 93 134 Q 91 134 89 134 L 88 125 Q 103 123 121 121 L 134 119 Q 148 116 163 113 L 179 115 Q 186 119 186 121 Q 185 124 183 124 Q 154 126 133 128 L 121 130" fill="#000080" clip-path="url(#clip-mask-4)" /><path d="M 121 121 Q 121 109 121 89 Q 120 85 120 81 L 120 73 Q 120 50 119 38 Q 119 32 115 29 Q 111 25 114 23 Q 117 20 122 21 Q 133 24 139 29 Q 144 33 142 37 Q 139 41 137 69 L 136 78 Q 135 87 135 98 Q 134 110 134 119 L 133 128 Q 132 150 130 155 Q 127 160 124 156 Q 122 153 121 130" fill="#000080" clip-path="url(#clip-mask-5)" /><path d="M 48 170 L 50 169 Q 52 170 54 172 Q 56 180 55 190 Q 55 200 51 212 Q 46 222 40 227 Q 34 232 31 226 Q 24 216 31 205 Q 40 190 46 172" fill="#0000ff" clip-path="url(#clip-mask-6)" /><path d="M 76 178 L 78 178 Q 80 177 84 179 Q 87 181 89 188 Q 92 202 100 210 Q 118 229 165 231 Q 177 231 180 227 L 207 227 Q 216 235 215 238 Q 214 242 207 245 Q 197 248 187 249 Q 129 249 103 229 Q 81 213 77 182" fill="#0000ff" clip-path="url(#clip-mask-7)" /><path d="M 180 227 Q 182 225 180 218 Q 179 196 179 195 Q 180 193 184 199 Q 193 213 207 227" fill="#0000ff" clip-path="url(#clip-mask-8)" /><path d="M 117 171 L 117 168 Q 117 164 118 164 Q 121 163 126 166 Q 149 176 152 190 Q 152 195 150 198 Q 146 202 142 200 Q 133 194 120 176" fill="#0000ff" clip-path="url(#clip-mask-9)" /><path d="M 184 154 L 184 150 Q 184 146 187 147 Q 233 156 239 171 Q 245 184 241 189 Q 239 192 237 192 Q 232 191 226 186 Q 205 168 188 156" fill="#0000ff" clip-path="url(#clip-mask-10)" /><rect x="56" y="74" width="34" height="74" id="rect-1" fill="transparent" stroke="#000000"><animate attributeName="y" from="0" to="74" dur="0.274" begin="0; animate10.end + 1s" id="animate1" fill="freeze"/></rect><rect x="76" y="54" width="126" height="33" id="rect-2" fill="transparent" stroke="#000000"><set attributeName="x" to="-50" begin="0; animate10.end + 1s" /><animate attributeName="x" from="-50" to="76" dur="0.467" begin="animate1.end + 0.5" id="animate2" fill="freeze"/></rect><rect x="163" y="74" width="43" height="41" id="rect-3" fill="transparent" stroke="#000000"><set attributeName="y" to="33" begin="0; animate10.end + 1s" /><animate attributeName="y" from="33" to="74" dur="0.152" begin="animate2.end" id="animate3" fill="freeze"/></rect><rect x="88" y="113" width="98" height="21" id="rect-4" fill="transparent" stroke="#000000"><set attributeName="x" to="-10" begin="0; animate10.end + 1s" /><animate attributeName="x" from="-10" to="88" dur="0.363" begin="animate3.end + 0.5" id="animate4" fill="freeze"/></rect><rect x="111" y="20" width="33" height="140" id="rect-5" fill="transparent" stroke="#000000"><set attributeName="y" to="-120" begin="0; animate10.end + 1s" /><animate attributeName="y" from="-120" to="20" dur="0.519" begin="animate4.end + 0.5" id="animate5" fill="freeze"/></rect><rect x="24" y="169" width="32" height="63" id="rect-6" fill="transparent" stroke="#000000"><set attributeName="y" to="106" begin="0; animate10.end + 1s" /><animate attributeName="y" from="106" to="169" dur="0.233" begin="animate5.end + 0.5" id="animate6" fill="freeze"/></rect><rect x="76" y="177" width="140" height="72" id="rect-7" fill="transparent" stroke="#000000"><set attributeName="x" to="-64" begin="0; animate10.end + 1s" /><animate attributeName="x" from="-64" to="76" dur="0.519" begin="animate6.end + 0.5" id="animate7" fill="freeze"/></rect><rect x="179" y="193" width="28" height="34" id="rect-8" fill="transparent" stroke="#000000"><set attributeName="y" to="227" begin="0; animate10.end + 1s" /><animate attributeName="y" from="227" to="193" dur="0.126" begin="animate7.end" id="animate8" fill="freeze"/></rect><rect x="117" y="163" width="35" height="39" id="rect-9" fill="transparent" stroke="#000000"><set attributeName="x" to="82" begin="0; animate10.end + 1s" /><animate attributeName="x" from="82" to="117" dur="0.130" begin="animate8.end + 0.5" id="animate9" fill="freeze"/></rect><rect x="184" y="146" width="61" height="46" id="rect-10" fill="transparent" stroke="#000000"><set attributeName="x" to="123" begin="0; animate10.end + 1s" /><animate attributeName="x" from="123" to="184" dur="0.226" begin="animate9.end + 0.5" id="animate10" fill="freeze"/></rect></svg>