<svg xmlns="http://www.w3.org/2000/svg" xmlns:xlink="http://www.w3.org/1999/xlink" width="270" height="270"><defs><clipPath id="clip-mask-1"><use xlink:href="#rect-1" /></clipPath><clipPath id="clip-mask-2"><use xlink:href="#rect-2" /></clipPath><clipPath id="clip-mask-3"><use xlink:href="#rect-3" /></clipPath><clipPath id="clip-mask-4"><use xlink:href="#rect-4" /></clipPath><clipPath id="clip-mask-5"><use xlink:href="#rect-5" /></clipPath><clipPath id="clip-mask-6"><use xlink:href="#rect-6" /></clipPath><clipPath id="clip-mask-7"><use xlink:href="#rect-7" /></clipPath><clipPath id="clip-mask-8"><use xlink:href="#rect-8" /></clipPath><clipPath id="clip-mask-9"><use xlink:href="#rect-9" /></clipPath><clipPath id="clip-mask-10"><use xlink:href="#rect-10" /></clipPath></defs><path d="M 0 0 L 270 270 M 270 0 L 0 270 M 135 0 L 135 270 M 0 135 L 270 135" stroke="#CCCCCC" /><path d="M 95 72 Q 88 80 82 86 Q 70 100 60 106 Q 53 112 50 113 Q 46 113 47 110 Q 47 108 51 106 Q 81 71 97 38 Q 100 28 98 24 Q 96 17 101 17 Q 107 17 114 23 Q 121 30 122 33 Q 123 34 123 36 Q 122 37 101 65" fill="#CCCCCC"/><path d="M 109 77 Q 98 73 95 72 L 101 65 Q 125 62 150 57 Q 179 48 186 50 Q 195 52 196 56 Q 198 58 195 60 Q 193 62 180 65 Q 126 75 121 76" fill="#CCCCCC"/><path d="M 126 155 L 123 164 Q 121 170 116 166 Q 116 166 115 165 Q 108 154 110 143 Q 120 101 109 77 L 121 76 Q 124 79 128 84 Q 128 84 127 100 L 127 108 Q 126 117 127 130 L 127 137" fill="#CCCCCC"/><path d="M 127 100 Q 156 90 165 90 Q 173 92 176 96 Q 179 100 172 101 Q 154 104 130 108 Q 128 108 127 108" fill="#CCCCCC"/><path d="M 127 130 Q 161 120 168 121 Q 176 123 179 127 Q 182 131 175 132 Q 157 134 133 138 Q 129 138 127 137" fill="#CCCCCC"/><path d="M 48 170 L 51 170 Q 53 170 54 173 Q 56 180 55 190 Q 55 200 50 211 Q 46 220 40 225 Q 34 229 31 224 Q 26 214 32 204 Q 41 190 47 173" fill="#CCCCCC"/><path d="M 79 177 L 80 177 Q 82 176 86 178 Q 90 180 91 187 Q 94 201 103 210 Q 121 231 170 233 Q 180 234 182 231 L 212 230 Q 223 238 222 241 Q 221 245 213 248 Q 204 251 193 252 Q 134 252 105 230 Q 82 212 79 181" fill="#CCCCCC"/><path d="M 182 231 Q 184 229 183 223 Q 176 199 177 198 Q 178 196 182 201 Q 195 216 212 230" fill="#CCCCCC"/><path d="M 123 180 L 123 177 Q 123 173 125 173 Q 126 172 129 173 Q 146 178 149 181 Q 154 185 155 192 Q 155 197 154 200 Q 151 204 147 203 Q 137 198 128 185" fill="#CCCCCC"/><path d="M 185 164 L 184 160 Q 184 157 187 158 Q 230 162 237 177 Q 243 188 241 192 Q 239 196 236 196 Q 232 195 226 191 Q 205 176 189 166" fill="#CCCCCC"/><path d="M 95 72 Q 88 80 82 86 Q 70 100 60 106 Q 53 112 50 113 Q 46 113 47 110 Q 47 108 51 106 Q 81 71 97 38 Q 100 28 98 24 Q 96 17 101 17 Q 107 17 114 23 Q 121 30 122 33 Q 123 34 123 36 Q 122 37 101 65" fill="#000080" clip-path="url(#clip-mask-1)" /><path d="M 109 77 Q 98 73 95 72 L 101 65 Q 125 62 150 57 Q 179 48 186 50 Q 195 52 196 56 Q 198 58 195 60 Q 193 62 180 65 Q 126 75 121 76" fill="#000080" clip-path="url(#clip-mask-2)" /><path d="M 126 155 L 123 164 Q 121 170 116 166 Q 116 166 115 165 Q 108 154 110 143 Q 120 101 109 77 L 121 76 Q 124 79 128 84 Q 128 84 127 100 L 127 108 Q 126 117 127 130 L 127 137" fill="#000080" clip-path="url(#clip-mask-3)" /><path d="M 127 100 Q 156 90 165 90 Q 173 92 176 96 Q 179 100 172 101 Q 154 104 130 108 Q 128 108 127 108" fill="#000080" clip-path="url(#clip-mask-4)" /><path d="M 127 130 Q 161 120 168 121 Q 176 123 179 127 Q 182 131 175 132 Q 157 134 133 138 Q 129 138 127 137" fill="#000080" clip-path="url(#clip-mask-5)" /><path d="M 48 170 L 51 170 Q 53 170 54 173 Q 56 180 55 190 Q 55 200 50 211 Q 46 220 40 225 Q 34 229 31 224 Q 26 214 32 204 Q 41 190 47 173" fill="#0000ff" clip-path="url(#clip-mask-6)" /><path d="M 79 177 L 80 177 Q 82 176 86 178 Q 90 180 91 187 Q 94 201 103 210 Q 121 231 170 233 Q 180 234 182 231 L 212 230 Q 223 238 222 241 Q 221 245 213 248 Q 204 251 193 252 Q 134 252 105 230 Q 82 212 79 181" fill="#0000ff" clip-path="url(#clip-mask-7)" /><path d="M 182 231 Q 184 229 183 223 Q 176 199 177 198 Q 178 196 182 201 Q 195 216 212 230" fill="#0000ff" clip-path="url(#clip-mask-8)" /><path d="M 123 180 L 123 177 Q 123 173 125 173 Q 126 172 129 173 Q 146 178 149 181 Q 154 185 155 192 Q 155 197 154 200 Q 151 204 147 203 Q 137 198 128 185" fill="#0000ff" clip-path="url(#clip-mask-9)" /><path d="M 185 164 L 184 160 Q 184 157 187 158 Q 230 162 237 177 Q 243 188 241 192 Q 239 196 236 196 Q 232 195 226 191 Q 205 176 189 166" fill="#0000ff" clip-path="url(#clip-mask-10)" /><rect x="46" y="17" width="77" height="96" id="rect-1" fill="transparent" stroke="#000000"><animate attributeName="y" from="-79" to="17" dur="0.356" begin="0; animate10.end + 1s" id="animate1" fill="freeze"/></rect><rect x="95" y="48" width="103" height="29" id="rect-2" fill="transparent" stroke="#000000"><set attributeName="x" to="-8" begin="0; animate10.end + 1s" /><animate attributeName="x" from="-8" to="95" dur="0.381" begin="animate1.end + 0.5" id="animate2" fill="freeze"/></rect><rect x="108" y="76" width="20" height="94" id="rect-3" fill="transparent" stroke="#000000"><set attributeName="y" to="-18" begin="0; animate10.end + 1s" /><animate attributeName="y" from="-18" to="76" dur="0.348" begin="animate2.end + 0.5" id="animate3" fill="freeze"/></rect><rect x="127" y="90" width="52" height="18" id="rect-4" fill="transparent" stroke="#000000"><set attributeName="x" to="75" begin="0; animate10.end + 1s" /><animate attributeName="x" from="75" to="127" dur="0.193" begin="animate3.end + 0.5" id="animate4" fill="freeze"/></rect><rect x="127" y="120" width="55" height="18" id="rect-5" fill="transparent" stroke="#000000"><set attributeName="x" to="72" begin="0; animate10.end + 1s" /><animate attributeName="x" from="72" to="127" dur="0.204" begin="animate4.end + 0.5" id="animate5" fill="freeze"/></rect><rect x="26" y="170" width="30" height="59" id="rect-6" fill="transparent" stroke="#000000"><set attributeName="y" to="111" begin="0; animate10.end + 1s" /><animate attributeName="y" from="111" to="170" dur="0.219" begin="animate5.end + 0.5" id="animate6" fill="freeze"/></rect><rect x="79" y="176" width="144" height="76" id="rect-7" fill="transparent" stroke="#000000"><set attributeName="x" to="-65" begin="0; animate10.end + 1s" /><animate attributeName="x" from="-65" to="79" dur="0.533" begin="animate6.end + 0.5" id="animate7" fill="freeze"/></rect><rect x="176" y="196" width="36" height="35" id="rect-8" fill="transparent" stroke="#000000"><set attributeName="y" to="231" begin="0; animate10.end + 1s" /><animate attributeName="y" from="231" to="196" dur="0.130" begin="animate7.end" id="animate8" fill="freeze"/></rect><rect x="123" y="172" width="32" height="32" id="rect-9" fill="transparent" stroke="#000000"><set attributeName="x" to="91" begin="0; animate10.end + 1s" /><animate attributeName="x" from="91" to="123" dur="0.119" begin="animate8.end + 0.5" id="animate9" fill="freeze"/></rect><rect x="184" y="157" width="59" height="39" id="rect-10" fill="transparent" stroke="#000000"><set attributeName="x" to="125" begin="0; animate10.end + 1s" /><animate attributeName="x" from="125" to="184" dur="0.219" begin="animate9.end + 0.5" id="animate10" fill="freeze"/></rect></svg>