<svg xmlns="http://www.w3.org/2000/svg" xmlns:xlink="http://www.w3.org/1999/xlink" width="270" height="270"><defs><clipPath id="clip-mask-1"><use xlink:href="#rect-1" /></clipPath><clipPath id="clip-mask-2"><use xlink:href="#rect-2" /></clipPath><clipPath id="clip-mask-3"><use xlink:href="#rect-3" /></clipPath><clipPath id="clip-mask-4"><use xlink:href="#rect-4" /></clipPath><clipPath id="clip-mask-5"><use xlink:href="#rect-5" /></clipPath><clipPath id="clip-mask-6"><use xlink:href="#rect-6" /></clipPath><clipPath id="clip-mask-7"><use xlink:href="#rect-7" /></clipPath><clipPath id="clip-mask-8"><use xlink:href="#rect-8" /></clipPath><clipPath id="clip-mask-9"><use xlink:href="#rect-9" /></clipPath><clipPath id="clip-mask-10"><use xlink:href="#rect-10" /></clipPath></defs><path d="M 0 0 L 270 270 M 270 0 L 0 270 M 135 0 L 135 270 M 0 135 L 270 135" stroke="#CCCCCC" /><path d="M 41 96 L 43 95 Q 44 95 46 97 Q 49 103 49 112 Q 52 138 39 152 Q 34 156 31 152 Q 25 144 29 134 Q 36 116 40 98" fill="#CCCCCC"/><path d="M 82 79 Q 86 79 99 85 Q 107 89 108 94 Q 110 100 109 104 Q 108 107 105 107 L 105 107 Q 102 107 81 88" fill="#CCCCCC"/><path d="M 80 200 L 80 213 Q 80 221 78 227 Q 75 233 73 234 Q 71 236 70 234 Q 68 234 66 229 Q 59 213 62 202 Q 64 196 65 190 Q 69 167 69 55 Q 69 38 60 25 Q 59 21 60 20 Q 65 16 72 21 Q 86 29 88 32 Q 89 36 86 39 Q 82 56 82 79 L 81 88" fill="#CCCCCC"/><path d="M 142 76 Q 135 78 130 79 Q 126 81 120 79 Q 116 78 112 75 Q 109 71 113 70 Q 131 67 146 65 L 162 62 Q 166 61 171 61 Q 196 55 212 52 Q 225 48 240 58 Q 244 61 242 64 Q 241 66 227 66 Q 180 68 158 73" fill="#CCCCCC"/><path d="M 126 131 Q 124 133 123 135 Q 96 163 87 163 Q 83 163 84 162 Q 84 161 96 151 Q 120 123 142 76 L 146 65 Q 151 51 156 35 Q 158 27 153 18 Q 150 12 155 12 Q 160 11 165 15 Q 173 22 176 27 Q 178 30 176 32 Q 170 41 162 62 L 158 73 Q 152 91 142 107 Q 135 117 130 125" fill="#CCCCCC"/><path d="M 142 138 Q 141 145 140 164 Q 140 184 133 189 Q 131 190 130 187 Q 127 185 127 183 Q 122 170 126 167 Q 133 146 126 131 L 130 125 Q 137 126 139 129" fill="#CCCCCC"/><path d="M 158 134 L 148 137 Q 144 138 142 138 L 139 129 Q 154 126 167 124 L 182 120 Q 183 119 183 119 Q 197 116 206 112 Q 217 106 235 118 L 213 124 Q 211 122 205 123 Q 196 124 182 128 L 167 132" fill="#CCCCCC"/><path d="M 235 118 Q 237 120 235 125 Q 232 134 232 163 Q 232 177 227 187 Q 224 193 221 194 Q 216 196 213 192 L 213 166 Q 215 163 215 155 Q 216 144 216 135 Q 216 126 213 124" fill="#CCCCCC"/><path d="M 213 192 Q 206 182 193 170 Q 189 166 190 165 Q 192 163 196 165 Q 201 166 205 167 Q 211 169 213 166" fill="#CCCCCC"/><path d="M 167 124 Q 167 116 167 109 Q 166 105 161 92 Q 159 89 161 87 Q 165 85 169 86 Q 173 87 182 92 Q 186 95 185 100 Q 183 111 182 120 L 182 128 Q 180 238 180 238 Q 179 254 175 257 Q 173 258 171 256 Q 170 254 169 252 Q 167 247 167 132" fill="#CCCCCC"/><path d="M 41 96 L 43 95 Q 44 95 46 97 Q 49 103 49 112 Q 52 138 39 152 Q 34 156 31 152 Q 25 144 29 134 Q 36 116 40 98" fill="#0000ff" clip-path="url(#clip-mask-1)" /><path d="M 82 79 Q 86 79 99 85 Q 107 89 108 94 Q 110 100 109 104 Q 108 107 105 107 L 105 107 Q 102 107 81 88" fill="#0000ff" clip-path="url(#clip-mask-2)" /><path d="M 80 200 L 80 213 Q 80 221 78 227 Q 75 233 73 234 Q 71 236 70 234 Q 68 234 66 229 Q 59 213 62 202 Q 64 196 65 190 Q 69 167 69 55 Q 69 38 60 25 Q 59 21 60 20 Q 65 16 72 21 Q 86 29 88 32 Q 89 36 86 39 Q 82 56 82 79 L 81 88" fill="#0000ff" clip-path="url(#clip-mask-3)" /><path d="M 142 76 Q 135 78 130 79 Q 126 81 120 79 Q 116 78 112 75 Q 109 71 113 70 Q 131 67 146 65 L 162 62 Q 166 61 171 61 Q 196 55 212 52 Q 225 48 240 58 Q 244 61 242 64 Q 241 66 227 66 Q 180 68 158 73" fill="#000080" clip-path="url(#clip-mask-4)" /><path d="M 126 131 Q 124 133 123 135 Q 96 163 87 163 Q 83 163 84 162 Q 84 161 96 151 Q 120 123 142 76 L 146 65 Q 151 51 156 35 Q 158 27 153 18 Q 150 12 155 12 Q 160 11 165 15 Q 173 22 176 27 Q 178 30 176 32 Q 170 41 162 62 L 158 73 Q 152 91 142 107 Q 135 117 130 125" fill="#000080" clip-path="url(#clip-mask-5)" /><path d="M 142 138 Q 141 145 140 164 Q 140 184 133 189 Q 131 190 130 187 Q 127 185 127 183 Q 122 170 126 167 Q 133 146 126 131 L 130 125 Q 137 126 139 129" fill="#000080" clip-path="url(#clip-mask-6)" /><path d="M 158 134 L 148 137 Q 144 138 142 138 L 139 129 Q 154 126 167 124 L 182 120 Q 183 119 183 119 Q 197 116 206 112 Q 217 106 235 118 L 213 124 Q 211 122 205 123 Q 196 124 182 128 L 167 132" fill="#000080" clip-path="url(#clip-mask-7)" /><path d="M 235 118 Q 237 120 235 125 Q 232 134 232 163 Q 232 177 227 187 Q 224 193 221 194 Q 216 196 213 192 L 213 166 Q 215 163 215 155 Q 216 144 216 135 Q 216 126 213 124" fill="#000080" clip-path="url(#clip-mask-8)" /><path d="M 213 192 Q 206 182 193 170 Q 189 166 190 165 Q 192 163 196 165 Q 201 166 205 167 Q 211 169 213 166" fill="#000080" clip-path="url(#clip-mask-9)" /><path d="M 167 124 Q 167 116 167 109 Q 166 105 161 92 Q 159 89 161 87 Q 165 85 169 86 Q 173 87 182 92 Q 186 95 185 100 Q 183 111 182 120 L 182 128 Q 180 238 180 238 Q 179 254 175 257 Q 173 258 171 256 Q 170 254 169 252 Q 167 247 167 132" fill="#000080" clip-path="url(#clip-mask-10)" /><rect x="25" y="95" width="27" height="61" id="rect-1" fill="transparent" stroke="#000000"><animate attributeName="y" from="34" to="95" dur="0.226" begin="0; animate10.end + 1s" id="animate1" fill="freeze"/></rect><rect x="81" y="79" width="29" height="28" id="rect-2" fill="transparent" stroke="#000000"><set attributeName="x" to="52" begin="0; animate10.end + 1s" /><animate attributeName="x" from="52" to="81" dur="0.107" begin="animate1.end + 0.5" id="animate2" fill="freeze"/></rect><rect x="59" y="16" width="30" height="220" id="rect-3" fill="transparent" stroke="#000000"><set attributeName="y" to="-204" begin="0; animate10.end + 1s" /><animate attributeName="y" from="-204" to="16" dur="0.815" begin="animate2.end + 0.5" id="animate3" fill="freeze"/></rect><rect x="109" y="48" width="135" height="33" id="rect-4" fill="transparent" stroke="#000000"><set attributeName="x" to="-26" begin="0; animate10.end + 1s" /><animate attributeName="x" from="-26" to="109" dur="0.500" begin="animate3.end + 0.5" id="animate4" fill="freeze"/></rect><rect x="83" y="11" width="95" height="152" id="rect-5" fill="transparent" stroke="#000000"><set attributeName="y" to="-141" begin="0; animate10.end + 1s" /><animate attributeName="y" from="-141" to="11" dur="0.563" begin="animate4.end + 0.5" id="animate5" fill="freeze"/></rect><rect x="122" y="125" width="20" height="65" id="rect-6" fill="transparent" stroke="#000000"><set attributeName="y" to="60" begin="0; animate10.end + 1s" /><animate attributeName="y" from="60" to="125" dur="0.241" begin="animate5.end + 0.5" id="animate6" fill="freeze"/></rect><rect x="139" y="106" width="96" height="32" id="rect-7" fill="transparent" stroke="#000000"><set attributeName="x" to="43" begin="0; animate10.end + 1s" /><animate attributeName="x" from="43" to="139" dur="0.356" begin="animate6.end + 0.5" id="animate7" fill="freeze"/></rect><rect x="213" y="118" width="24" height="78" id="rect-8" fill="transparent" stroke="#000000"><set attributeName="y" to="40" begin="0; animate10.end + 1s" /><animate attributeName="y" from="40" to="118" dur="0.289" begin="animate7.end" id="animate8" fill="freeze"/></rect><rect x="189" y="163" width="24" height="29" id="rect-9" fill="transparent" stroke="#000000"><set attributeName="x" to="213" begin="0; animate10.end + 1s" /><animate attributeName="x" from="213" to="189" dur="0.089" begin="animate8.end" id="animate9" fill="freeze"/></rect><rect x="159" y="85" width="27" height="173" id="rect-10" fill="transparent" stroke="#000000"><set attributeName="y" to="-88" begin="0; animate10.end + 1s" /><animate attributeName="y" from="-88" to="85" dur="0.641" begin="animate9.end + 0.5" id="animate10" fill="freeze"/></rect></svg>