<svg xmlns="http://www.w3.org/2000/svg" xmlns:xlink="http://www.w3.org/1999/xlink" width="270" height="270"><defs><clipPath id="clip-mask-1"><use xlink:href="#rect-1" /></clipPath><clipPath id="clip-mask-2"><use xlink:href="#rect-2" /></clipPath><clipPath id="clip-mask-3"><use xlink:href="#rect-3" /></clipPath><clipPath id="clip-mask-4"><use xlink:href="#rect-4" /></clipPath><clipPath id="clip-mask-5"><use xlink:href="#rect-5" /></clipPath><clipPath id="clip-mask-6"><use xlink:href="#rect-6" /></clipPath><clipPath id="clip-mask-7"><use xlink:href="#rect-7" /></clipPath><clipPath id="clip-mask-8"><use xlink:href="#rect-8" /></clipPath><clipPath id="clip-mask-9"><use xlink:href="#rect-9" /></clipPath><clipPath id="clip-mask-10"><use xlink:href="#rect-10" /></clipPath><clipPath id="clip-mask-11"><use xlink:href="#rect-11" /></clipPath><clipPath id="clip-mask-12"><use xlink:href="#rect-12" /></clipPath><clipPath id="clip-mask-13"><use xlink:href="#rect-13" /></clipPath><clipPath id="clip-mask-14"><use xlink:href="#rect-14" /></clipPath></defs><path d="M 0 0 L 270 270 M 270 0 L 0 270 M 135 0 L 135 270 M 0 135 L 270 135" stroke="#CCCCCC" /><path d="M 71 66 Q 59 68 49 64 Q 42 60 51 58 Q 60 56 76 52 Q 96 44 102 45 Q 110 46 112 49 Q 114 51 111 54 Q 111 54 82 63" fill="#CCCCCC"/><path d="M 71 68 L 71 66 L 82 63 Q 90 69 87 74 Q 86 77 83 111 L 71 116" fill="#CCCCCC"/><path d="M 83 111 Q 99 104 112 98 Q 115 97 116 98 Q 116 100 114 102 Q 110 106 104 109 Q 64 133 57 140 Q 54 142 52 142 Q 43 138 38 135 Q 35 134 35 130 Q 35 128 38 127 Q 45 126 71 116" fill="#CCCCCC"/><path d="M 139 101 L 136 108 Q 134 112 133 117 Q 129 127 120 137 Q 104 155 91 156 Q 88 156 91 154 Q 94 151 97 148 Q 120 130 128 98 Q 128 97 128 96 Q 133 60 125 48 Q 123 44 126 43 Q 130 41 135 44 Q 137 44 139 45 L 145 52 Q 142 60 141 81 Q 141 84 141 88 L 140 95" fill="#CCCCCC"/><path d="M 139 45 Q 156 40 168 35 Q 180 29 183 31 Q 196 36 197 40 Q 198 43 192 47 L 172 45 Q 170 44 165 45 Q 149 51 145 52" fill="#CCCCCC"/><path d="M 192 47 Q 188 52 186 63 Q 182 86 186 106 L 185 136 Q 168 117 172 51 Q 173 47 172 45" fill="#CCCCCC"/><path d="M 186 106 Q 187 121 203 132 Q 208 135 210 133 L 226 149 Q 227 154 223 155 Q 219 156 211 154 Q 196 149 185 136" fill="#CCCCCC"/><path d="M 210 133 Q 214 131 216 124 Q 220 115 222 109 Q 224 106 225 106 Q 226 106 226 110 Q 223 135 226 149" fill="#CCCCCC"/><path d="M 141 88 Q 146 88 156 91 Q 162 93 163 97 Q 165 104 164 107 Q 163 110 161 110 L 160 110 Q 156 110 140 95" fill="#CCCCCC"/><path d="M 48 170 L 51 170 Q 52 170 54 172 Q 56 179 55 187 Q 53 212 40 224 Q 34 227 32 222 Q 26 212 32 204 Q 41 189 47 172" fill="#CCCCCC"/><path d="M 76 175 L 78 175 Q 80 174 84 176 Q 87 178 89 185 Q 92 198 100 205 Q 117 222 161 222 Q 170 223 172 220 L 203 219 Q 214 224 213 227 Q 213 232 206 235 Q 195 239 182 240 Q 127 240 103 224 Q 81 209 77 179" fill="#CCCCCC"/><path d="M 172 220 Q 173 219 173 218 Q 169 205 166 192 Q 167 190 172 194 Q 185 207 203 219" fill="#CCCCCC"/><path d="M 117 166 L 117 163 Q 116 159 118 159 Q 120 158 124 159 Q 145 165 148 176 Q 149 180 147 183 Q 145 186 141 186 Q 133 182 121 169" fill="#CCCCCC"/><path d="M 192 170 L 192 167 Q 192 164 195 165 Q 231 169 237 182 Q 243 193 240 197 Q 238 200 236 200 Q 232 200 227 195 Q 210 181 196 173" fill="#CCCCCC"/><path d="M 71 66 Q 59 68 49 64 Q 42 60 51 58 Q 60 56 76 52 Q 96 44 102 45 Q 110 46 112 49 Q 114 51 111 54 Q 111 54 82 63" fill="#000080" clip-path="url(#clip-mask-1)" /><path d="M 71 68 L 71 66 L 82 63 Q 90 69 87 74 Q 86 77 83 111 L 71 116" fill="#000080" clip-path="url(#clip-mask-2)" /><path d="M 83 111 Q 99 104 112 98 Q 115 97 116 98 Q 116 100 114 102 Q 110 106 104 109 Q 64 133 57 140 Q 54 142 52 142 Q 43 138 38 135 Q 35 134 35 130 Q 35 128 38 127 Q 45 126 71 116" fill="#000080" clip-path="url(#clip-mask-3)" /><path d="M 139 101 L 136 108 Q 134 112 133 117 Q 129 127 120 137 Q 104 155 91 156 Q 88 156 91 154 Q 94 151 97 148 Q 120 130 128 98 Q 128 97 128 96 Q 133 60 125 48 Q 123 44 126 43 Q 130 41 135 44 Q 137 44 139 45 L 145 52 Q 142 60 141 81 Q 141 84 141 88 L 140 95" fill="#000080" clip-path="url(#clip-mask-4)" /><path d="M 139 45 Q 156 40 168 35 Q 180 29 183 31 Q 196 36 197 40 Q 198 43 192 47 L 172 45 Q 170 44 165 45 Q 149 51 145 52" fill="#000080" clip-path="url(#clip-mask-5)" /><path d="M 192 47 Q 188 52 186 63 Q 182 86 186 106 L 185 136 Q 168 117 172 51 Q 173 47 172 45" fill="#000080" clip-path="url(#clip-mask-6)" /><path d="M 186 106 Q 187 121 203 132 Q 208 135 210 133 L 226 149 Q 227 154 223 155 Q 219 156 211 154 Q 196 149 185 136" fill="#000080" clip-path="url(#clip-mask-7)" /><path d="M 210 133 Q 214 131 216 124 Q 220 115 222 109 Q 224 106 225 106 Q 226 106 226 110 Q 223 135 226 149" fill="#000080" clip-path="url(#clip-mask-8)" /><path d="M 141 88 Q 146 88 156 91 Q 162 93 163 97 Q 165 104 164 107 Q 163 110 161 110 L 160 110 Q 156 110 140 95" fill="#000080" clip-path="url(#clip-mask-9)" /><path d="M 48 170 L 51 170 Q 52 170 54 172 Q 56 179 55 187 Q 53 212 40 224 Q 34 227 32 222 Q 26 212 32 204 Q 41 189 47 172" fill="#0000ff" clip-path="url(#clip-mask-10)" /><path d="M 76 175 L 78 175 Q 80 174 84 176 Q 87 178 89 185 Q 92 198 100 205 Q 117 222 161 222 Q 170 223 172 220 L 203 219 Q 214 224 213 227 Q 213 232 206 235 Q 195 239 182 240 Q 127 240 103 224 Q 81 209 77 179" fill="#0000ff" clip-path="url(#clip-mask-11)" /><path d="M 172 220 Q 173 219 173 218 Q 169 205 166 192 Q 167 190 172 194 Q 185 207 203 219" fill="#0000ff" clip-path="url(#clip-mask-12)" /><path d="M 117 166 L 117 163 Q 116 159 118 159 Q 120 158 124 159 Q 145 165 148 176 Q 149 180 147 183 Q 145 186 141 186 Q 133 182 121 169" fill="#0000ff" clip-path="url(#clip-mask-13)" /><path d="M 192 170 L 192 167 Q 192 164 195 165 Q 231 169 237 182 Q 243 193 240 197 Q 238 200 236 200 Q 232 200 227 195 Q 210 181 196 173" fill="#0000ff" clip-path="url(#clip-mask-14)" /><rect x="42" y="44" width="72" height="24" id="rect-1" fill="transparent" stroke="#000000"><animate attributeName="x" from="-30" to="42" dur="0.267" begin="0; animate14.end + 1s" id="animate1" fill="freeze"/></rect><rect x="71" y="63" width="19" height="53" id="rect-2" fill="transparent" stroke="#000000"><set attributeName="y" to="10" begin="0; animate14.end + 1s" /><animate attributeName="y" from="10" to="63" dur="0.196" begin="animate1.end + 0.5" id="animate2" fill="freeze"/></rect><rect x="35" y="97" width="81" height="45" id="rect-3" fill="transparent" stroke="#000000"><set attributeName="x" to="-46" begin="0; animate14.end + 1s" /><animate attributeName="x" from="-46" to="35" dur="0.300" begin="animate2.end + 0.5" id="animate3" fill="freeze"/></rect><rect x="88" y="41" width="57" height="115" id="rect-4" fill="transparent" stroke="#000000"><set attributeName="y" to="-74" begin="0; animate14.end + 1s" /><animate attributeName="y" from="-74" to="41" dur="0.426" begin="animate3.end + 0.5" id="animate4" fill="freeze"/></rect><rect x="139" y="29" width="59" height="23" id="rect-5" fill="transparent" stroke="#000000"><set attributeName="x" to="80" begin="0; animate14.end + 1s" /><animate attributeName="x" from="80" to="139" dur="0.219" begin="animate4.end + 0.5" id="animate5" fill="freeze"/></rect><rect x="168" y="45" width="24" height="91" id="rect-6" fill="transparent" stroke="#000000"><set attributeName="y" to="-46" begin="0; animate14.end + 1s" /><animate attributeName="y" from="-46" to="45" dur="0.337" begin="animate5.end" id="animate6" fill="freeze"/></rect><rect x="185" y="106" width="42" height="50" id="rect-7" fill="transparent" stroke="#000000"><set attributeName="x" to="143" begin="0; animate14.end + 1s" /><animate attributeName="x" from="143" to="185" dur="0.156" begin="animate6.end" id="animate7" fill="freeze"/></rect><rect x="210" y="106" width="16" height="43" id="rect-8" fill="transparent" stroke="#000000"><set attributeName="y" to="149" begin="0; animate14.end + 1s" /><animate attributeName="y" from="149" to="106" dur="0.159" begin="animate7.end" id="animate8" fill="freeze"/></rect><rect x="140" y="88" width="25" height="22" id="rect-9" fill="transparent" stroke="#000000"><set attributeName="x" to="115" begin="0; animate14.end + 1s" /><animate attributeName="x" from="115" to="140" dur="0.093" begin="animate8.end + 0.5" id="animate9" fill="freeze"/></rect><rect x="26" y="170" width="30" height="57" id="rect-10" fill="transparent" stroke="#000000"><set attributeName="y" to="113" begin="0; animate14.end + 1s" /><animate attributeName="y" from="113" to="170" dur="0.211" begin="animate9.end + 0.5" id="animate10" fill="freeze"/></rect><rect x="76" y="174" width="138" height="66" id="rect-11" fill="transparent" stroke="#000000"><set attributeName="x" to="-62" begin="0; animate14.end + 1s" /><animate attributeName="x" from="-62" to="76" dur="0.511" begin="animate10.end + 0.5" id="animate11" fill="freeze"/></rect><rect x="166" y="190" width="37" height="30" id="rect-12" fill="transparent" stroke="#000000"><set attributeName="y" to="220" begin="0; animate14.end + 1s" /><animate attributeName="y" from="220" to="190" dur="0.111" begin="animate11.end" id="animate12" fill="freeze"/></rect><rect x="116" y="158" width="33" height="28" id="rect-13" fill="transparent" stroke="#000000"><set attributeName="x" to="83" begin="0; animate14.end + 1s" /><animate attributeName="x" from="83" to="116" dur="0.122" begin="animate12.end + 0.5" id="animate13" fill="freeze"/></rect><rect x="192" y="164" width="51" height="36" id="rect-14" fill="transparent" stroke="#000000"><set attributeName="x" to="141" begin="0; animate14.end + 1s" /><animate attributeName="x" from="141" to="192" dur="0.189" begin="animate13.end + 0.5" id="animate14" fill="freeze"/></rect></svg>