<svg xmlns="http://www.w3.org/2000/svg" xmlns:xlink="http://www.w3.org/1999/xlink" width="270" height="270"><defs><clipPath id="clip-mask-1"><use xlink:href="#rect-1" /></clipPath><clipPath id="clip-mask-2"><use xlink:href="#rect-2" /></clipPath><clipPath id="clip-mask-3"><use xlink:href="#rect-3" /></clipPath><clipPath id="clip-mask-4"><use xlink:href="#rect-4" /></clipPath><clipPath id="clip-mask-5"><use xlink:href="#rect-5" /></clipPath><clipPath id="clip-mask-6"><use xlink:href="#rect-6" /></clipPath><clipPath id="clip-mask-7"><use xlink:href="#rect-7" /></clipPath><clipPath id="clip-mask-8"><use xlink:href="#rect-8" /></clipPath><clipPath id="clip-mask-9"><use xlink:href="#rect-9" /></clipPath></defs><path d="M 0 0 L 270 270 M 270 0 L 0 270 M 135 0 L 135 270 M 0 135 L 270 135" stroke="#CCCCCC" /><path d="M 32 106 L 34 106 Q 36 106 37 108 Q 40 114 39 122 Q 41 143 29 155 Q 24 159 22 155 Q 16 147 20 138 Q 27 124 31 109" fill="#CCCCCC"/><path d="M 72 85 Q 74 84 90 91 Q 96 94 97 99 Q 99 105 98 108 Q 97 112 94 112 Q 90 112 88 108 Q 82 102 76 96 Q 73 94 72 92" fill="#CCCCCC"/><path d="M 69 210 L 69 222 Q 70 230 67 237 Q 64 242 62 243 Q 61 245 59 243 Q 57 243 55 238 Q 49 223 52 212 Q 57 194 58 175 Q 60 135 61 99 Q 61 78 60 60 Q 60 48 52 35 Q 51 31 52 30 Q 57 26 63 31 Q 77 39 79 42 Q 79 45 77 49 Q 73 64 72 85 L 72 92" fill="#CCCCCC"/><path d="M 125 94 L 121 95 Q 113 97 104 91 Q 99 87 106 86 Q 119 83 131 82 Q 132 82 133 82 L 147 79 Q 167 74 187 69 Q 207 63 215 68 Q 221 71 220 74 Q 218 77 215 77 Q 177 82 145 90 L 130 94" fill="#CCCCCC"/><path d="M 133 82 Q 136 66 139 47 Q 140 39 134 31 Q 130 26 136 25 Q 140 24 145 27 Q 154 32 158 37 Q 160 39 158 42 Q 152 53 147 79 L 145 90 Q 132 141 104 176 Q 84 199 79 199 Q 75 199 76 197 Q 76 197 83 190 Q 113 152 130 94" fill="#CCCCCC"/><path d="M 126 149 L 127 147 Q 127 144 129 145 Q 135 145 144 156 Q 146 160 145 165 Q 145 169 142 170 Q 139 172 137 170 Q 132 166 128 154" fill="#CCCCCC"/><path d="M 195 133 L 194 129 Q 194 124 198 124 Q 204 124 209 129 Q 214 134 216 138 Q 217 141 212 142 Q 203 148 183 161 Q 180 162 178 162 Q 177 160 178 158 Q 188 145 193 137" fill="#CCCCCC"/><path d="M 160 181 L 160 182 Q 158 187 156 192 Q 150 203 138 213 Q 116 233 102 233 Q 98 233 102 230 Q 104 228 107 226 Q 139 204 152 169 Q 152 168 152 167 Q 163 126 154 109 Q 153 106 156 105 Q 163 102 176 111 Q 180 113 178 118 Q 170 147 163 175 L 161 181" fill="#CCCCCC"/><path d="M 163 175 Q 164 176 166 177 Q 199 209 226 221 Q 239 226 250 231 Q 253 232 252 234 Q 252 235 247 235 Q 229 237 213 235 Q 203 234 198 228 Q 179 206 161 181" fill="#CCCCCC"/><path d="M 32 106 L 34 106 Q 36 106 37 108 Q 40 114 39 122 Q 41 143 29 155 Q 24 159 22 155 Q 16 147 20 138 Q 27 124 31 109" fill="#0000ff" clip-path="url(#clip-mask-1)" /><path d="M 72 85 Q 74 84 90 91 Q 96 94 97 99 Q 99 105 98 108 Q 97 112 94 112 Q 90 112 88 108 Q 82 102 76 96 Q 73 94 72 92" fill="#0000ff" clip-path="url(#clip-mask-2)" /><path d="M 69 210 L 69 222 Q 70 230 67 237 Q 64 242 62 243 Q 61 245 59 243 Q 57 243 55 238 Q 49 223 52 212 Q 57 194 58 175 Q 60 135 61 99 Q 61 78 60 60 Q 60 48 52 35 Q 51 31 52 30 Q 57 26 63 31 Q 77 39 79 42 Q 79 45 77 49 Q 73 64 72 85 L 72 92" fill="#0000ff" clip-path="url(#clip-mask-3)" /><path d="M 125 94 L 121 95 Q 113 97 104 91 Q 99 87 106 86 Q 119 83 131 82 Q 132 82 133 82 L 147 79 Q 167 74 187 69 Q 207 63 215 68 Q 221 71 220 74 Q 218 77 215 77 Q 177 82 145 90 L 130 94" fill="#000080" clip-path="url(#clip-mask-4)" /><path d="M 133 82 Q 136 66 139 47 Q 140 39 134 31 Q 130 26 136 25 Q 140 24 145 27 Q 154 32 158 37 Q 160 39 158 42 Q 152 53 147 79 L 145 90 Q 132 141 104 176 Q 84 199 79 199 Q 75 199 76 197 Q 76 197 83 190 Q 113 152 130 94" fill="#000080" clip-path="url(#clip-mask-5)" /><path d="M 126 149 L 127 147 Q 127 144 129 145 Q 135 145 144 156 Q 146 160 145 165 Q 145 169 142 170 Q 139 172 137 170 Q 132 166 128 154" fill="#000080" clip-path="url(#clip-mask-6)" /><path d="M 195 133 L 194 129 Q 194 124 198 124 Q 204 124 209 129 Q 214 134 216 138 Q 217 141 212 142 Q 203 148 183 161 Q 180 162 178 162 Q 177 160 178 158 Q 188 145 193 137" fill="#000080" clip-path="url(#clip-mask-7)" /><path d="M 160 181 L 160 182 Q 158 187 156 192 Q 150 203 138 213 Q 116 233 102 233 Q 98 233 102 230 Q 104 228 107 226 Q 139 204 152 169 Q 152 168 152 167 Q 163 126 154 109 Q 153 106 156 105 Q 163 102 176 111 Q 180 113 178 118 Q 170 147 163 175 L 161 181" fill="#000080" clip-path="url(#clip-mask-8)" /><path d="M 163 175 Q 164 176 166 177 Q 199 209 226 221 Q 239 226 250 231 Q 253 232 252 234 Q 252 235 247 235 Q 229 237 213 235 Q 203 234 198 228 Q 179 206 161 181" fill="#000080" clip-path="url(#clip-mask-9)" /><rect x="16" y="106" width="25" height="53" id="rect-1" fill="transparent" stroke="#000000"><animate attributeName="y" from="53" to="106" dur="0.196" begin="0; animate9.end + 1s" id="animate1" fill="freeze"/></rect><rect x="72" y="84" width="27" height="28" id="rect-2" fill="transparent" stroke="#000000"><set attributeName="x" to="45" begin="0; animate9.end + 1s" /><animate attributeName="x" from="45" to="72" dur="0.100" begin="animate1.end + 0.5" id="animate2" fill="freeze"/></rect><rect x="49" y="26" width="30" height="219" id="rect-3" fill="transparent" stroke="#000000"><set attributeName="y" to="-193" begin="0; animate9.end + 1s" /><animate attributeName="y" from="-193" to="26" dur="0.811" begin="animate2.end + 0.5" id="animate3" fill="freeze"/></rect><rect x="99" y="63" width="122" height="34" id="rect-4" fill="transparent" stroke="#000000"><set attributeName="x" to="-23" begin="0; animate9.end + 1s" /><animate attributeName="x" from="-23" to="99" dur="0.452" begin="animate3.end + 0.5" id="animate4" fill="freeze"/></rect><rect x="75" y="24" width="85" height="175" id="rect-5" fill="transparent" stroke="#000000"><set attributeName="y" to="-151" begin="0; animate9.end + 1s" /><animate attributeName="y" from="-151" to="24" dur="0.648" begin="animate4.end + 0.5" id="animate5" fill="freeze"/></rect><rect x="126" y="144" width="20" height="28" id="rect-6" fill="transparent" stroke="#000000"><set attributeName="y" to="116" begin="0; animate9.end + 1s" /><animate attributeName="y" from="116" to="144" dur="0.104" begin="animate5.end + 0.5" id="animate6" fill="freeze"/></rect><rect x="177" y="124" width="40" height="38" id="rect-7" fill="transparent" stroke="#000000"><set attributeName="y" to="86" begin="0; animate9.end + 1s" /><animate attributeName="y" from="86" to="124" dur="0.141" begin="animate6.end + 0.5" id="animate7" fill="freeze"/></rect><rect x="98" y="102" width="82" height="131" id="rect-8" fill="transparent" stroke="#000000"><set attributeName="y" to="-29" begin="0; animate9.end + 1s" /><animate attributeName="y" from="-29" to="102" dur="0.485" begin="animate7.end + 0.5" id="animate8" fill="freeze"/></rect><rect x="161" y="175" width="92" height="62" id="rect-9" fill="transparent" stroke="#000000"><set attributeName="x" to="69" begin="0; animate9.end + 1s" /><animate attributeName="x" from="69" to="161" dur="0.341" begin="animate8.end + 0.5" id="animate9" fill="freeze"/></rect></svg>