<svg xmlns="http://www.w3.org/2000/svg" xmlns:xlink="http://www.w3.org/1999/xlink" width="270" height="270"><defs><clipPath id="clip-mask-1"><use xlink:href="#rect-1" /></clipPath><clipPath id="clip-mask-2"><use xlink:href="#rect-2" /></clipPath><clipPath id="clip-mask-3"><use xlink:href="#rect-3" /></clipPath><clipPath id="clip-mask-4"><use xlink:href="#rect-4" /></clipPath><clipPath id="clip-mask-5"><use xlink:href="#rect-5" /></clipPath><clipPath id="clip-mask-6"><use xlink:href="#rect-6" /></clipPath><clipPath id="clip-mask-7"><use xlink:href="#rect-7" /></clipPath><clipPath id="clip-mask-8"><use xlink:href="#rect-8" /></clipPath><clipPath id="clip-mask-9"><use xlink:href="#rect-9" /></clipPath><clipPath id="clip-mask-10"><use xlink:href="#rect-10" /></clipPath><clipPath id="clip-mask-11"><use xlink:href="#rect-11" /></clipPath></defs><path d="M 0 0 L 270 270 M 270 0 L 0 270 M 135 0 L 135 270 M 0 135 L 270 135" stroke="#CCCCCC" /><path d="M 31 98 L 32 98 Q 34 98 36 100 Q 39 106 39 115 Q 41 140 28 153 Q 24 157 21 153 Q 15 145 19 136 Q 26 119 29 101" fill="#CCCCCC"/><path d="M 73 76 Q 76 75 90 79 Q 97 82 99 86 Q 101 93 100 96 Q 100 99 97 99 Q 94 100 90 97 Q 78 85 73 83" fill="#CCCCCC"/><path d="M 72 203 L 72 215 Q 72 224 69 230 Q 67 236 65 237 Q 63 239 61 237 Q 59 237 57 232 Q 50 216 53 205 Q 56 197 57 188 Q 61 169 61 57 Q 60 40 52 27 Q 51 23 52 22 Q 57 18 63 22 Q 78 31 80 34 Q 80 37 78 41 Q 74 55 73 76 L 73 83" fill="#CCCCCC"/><path d="M 175 42 Q 173 41 168 42 Q 143 48 132 53 L 126 45 Q 159 34 165 34 Q 180 29 184 31 Q 199 38 204 43" fill="#CCCCCC"/><path d="M 166 111 Q 170 103 177 56 Q 179 44 175 42 L 204 43 Q 208 47 203 52 Q 193 60 189 75 Q 183 111 178 118 Q 176 122 172 123 Q 168 124 166 119 Q 166 118 166 117" fill="#CCCCCC"/><path d="M 129 80 Q 142 72 153 72 Q 160 73 163 76 Q 165 79 160 81 Q 148 84 132 87 Q 130 88 130 88" fill="#CCCCCC"/><path d="M 130 114 Q 139 112 148 108 Q 156 106 161 108 Q 164 109 166 111 L 166 117 Q 145 120 136 122 Q 133 123 130 123" fill="#CCCCCC"/><path d="M 130 137 Q 129 172 127 213 L 115 246 Q 112 251 108 249 Q 105 246 102 239 Q 100 233 103 229 Q 114 215 114 202 Q 127 79 110 46 Q 108 42 110 40 Q 113 39 118 41 Q 122 42 126 45 L 132 53 Q 130 67 129 80 L 130 88 Q 130 100 130 114 L 130 123 Q 130 126 130 130" fill="#CCCCCC"/><path d="M 127 213 Q 127 216 130 214 Q 164 195 168 195 Q 171 195 170 198 Q 168 200 163 204 Q 120 238 115 246" fill="#CCCCCC"/><path d="M 190 125 L 189 116 Q 188 112 191 112 Q 195 111 201 115 Q 208 119 212 123 Q 215 128 209 130 Q 201 133 186 146 Q 179 151 168 157 L 164 154" fill="#CCCCCC"/><path d="M 168 157 Q 178 165 187 170 Q 207 183 251 193 Q 254 194 253 196 Q 252 198 248 199 Q 238 202 214 207 Q 207 208 202 204 Q 176 181 142 147 Q 136 141 130 137 L 130 130 Q 130 130 131 130 Q 135 130 139 133 Q 152 145 164 154" fill="#CCCCCC"/><path d="M 31 98 L 32 98 Q 34 98 36 100 Q 39 106 39 115 Q 41 140 28 153 Q 24 157 21 153 Q 15 145 19 136 Q 26 119 29 101" fill="#0000ff" clip-path="url(#clip-mask-1)" /><path d="M 73 76 Q 76 75 90 79 Q 97 82 99 86 Q 101 93 100 96 Q 100 99 97 99 Q 94 100 90 97 Q 78 85 73 83" fill="#0000ff" clip-path="url(#clip-mask-2)" /><path d="M 72 203 L 72 215 Q 72 224 69 230 Q 67 236 65 237 Q 63 239 61 237 Q 59 237 57 232 Q 50 216 53 205 Q 56 197 57 188 Q 61 169 61 57 Q 60 40 52 27 Q 51 23 52 22 Q 57 18 63 22 Q 78 31 80 34 Q 80 37 78 41 Q 74 55 73 76 L 73 83" fill="#0000ff" clip-path="url(#clip-mask-3)" /><path d="M 175 42 Q 173 41 168 42 Q 143 48 132 53 L 126 45 Q 159 34 165 34 Q 180 29 184 31 Q 199 38 204 43" fill="#000080" clip-path="url(#clip-mask-4)" /><path d="M 166 111 Q 170 103 177 56 Q 179 44 175 42 L 204 43 Q 208 47 203 52 Q 193 60 189 75 Q 183 111 178 118 Q 176 122 172 123 Q 168 124 166 119 Q 166 118 166 117" fill="#000080" clip-path="url(#clip-mask-5)" /><path d="M 129 80 Q 142 72 153 72 Q 160 73 163 76 Q 165 79 160 81 Q 148 84 132 87 Q 130 88 130 88" fill="#000080" clip-path="url(#clip-mask-6)" /><path d="M 130 114 Q 139 112 148 108 Q 156 106 161 108 Q 164 109 166 111 L 166 117 Q 145 120 136 122 Q 133 123 130 123" fill="#000080" clip-path="url(#clip-mask-7)" /><path d="M 130 137 Q 129 172 127 213 L 115 246 Q 112 251 108 249 Q 105 246 102 239 Q 100 233 103 229 Q 114 215 114 202 Q 127 79 110 46 Q 108 42 110 40 Q 113 39 118 41 Q 122 42 126 45 L 132 53 Q 130 67 129 80 L 130 88 Q 130 100 130 114 L 130 123 Q 130 126 130 130" fill="#000080" clip-path="url(#clip-mask-8)" /><path d="M 127 213 Q 127 216 130 214 Q 164 195 168 195 Q 171 195 170 198 Q 168 200 163 204 Q 120 238 115 246" fill="#000080" clip-path="url(#clip-mask-9)" /><path d="M 190 125 L 189 116 Q 188 112 191 112 Q 195 111 201 115 Q 208 119 212 123 Q 215 128 209 130 Q 201 133 186 146 Q 179 151 168 157 L 164 154" fill="#000080" clip-path="url(#clip-mask-10)" /><path d="M 168 157 Q 178 165 187 170 Q 207 183 251 193 Q 254 194 253 196 Q 252 198 248 199 Q 238 202 214 207 Q 207 208 202 204 Q 176 181 142 147 Q 136 141 130 137 L 130 130 Q 130 130 131 130 Q 135 130 139 133 Q 152 145 164 154" fill="#000080" clip-path="url(#clip-mask-11)" /><rect x="15" y="98" width="26" height="59" id="rect-1" fill="transparent" stroke="#000000"><animate attributeName="y" from="39" to="98" dur="0.219" begin="0; animate11.end + 1s" id="animate1" fill="freeze"/></rect><rect x="73" y="75" width="28" height="25" id="rect-2" fill="transparent" stroke="#000000"><set attributeName="x" to="45" begin="0; animate11.end + 1s" /><animate attributeName="x" from="45" to="73" dur="0.104" begin="animate1.end + 0.5" id="animate2" fill="freeze"/></rect><rect x="50" y="18" width="30" height="221" id="rect-3" fill="transparent" stroke="#000000"><set attributeName="y" to="-203" begin="0; animate11.end + 1s" /><animate attributeName="y" from="-203" to="18" dur="0.819" begin="animate2.end + 0.5" id="animate3" fill="freeze"/></rect><rect x="126" y="29" width="78" height="24" id="rect-4" fill="transparent" stroke="#000000"><set attributeName="x" to="48" begin="0; animate11.end + 1s" /><animate attributeName="x" from="48" to="126" dur="0.289" begin="animate3.end + 0.5" id="animate4" fill="freeze"/></rect><rect x="166" y="42" width="42" height="82" id="rect-5" fill="transparent" stroke="#000000"><set attributeName="y" to="-40" begin="0; animate11.end + 1s" /><animate attributeName="y" from="-40" to="42" dur="0.304" begin="animate4.end" id="animate5" fill="freeze"/></rect><rect x="129" y="72" width="36" height="16" id="rect-6" fill="transparent" stroke="#000000"><set attributeName="x" to="93" begin="0; animate11.end + 1s" /><animate attributeName="x" from="93" to="129" dur="0.133" begin="animate5.end + 0.5" id="animate6" fill="freeze"/></rect><rect x="130" y="106" width="36" height="17" id="rect-7" fill="transparent" stroke="#000000"><set attributeName="x" to="94" begin="0; animate11.end + 1s" /><animate attributeName="x" from="94" to="130" dur="0.133" begin="animate6.end + 0.5" id="animate7" fill="freeze"/></rect><rect x="100" y="39" width="32" height="212" id="rect-8" fill="transparent" stroke="#000000"><set attributeName="y" to="-173" begin="0; animate11.end + 1s" /><animate attributeName="y" from="-173" to="39" dur="0.785" begin="animate7.end + 0.5" id="animate8" fill="freeze"/></rect><rect x="115" y="195" width="56" height="51" id="rect-9" fill="transparent" stroke="#000000"><set attributeName="x" to="59" begin="0; animate11.end + 1s" /><animate attributeName="x" from="59" to="115" dur="0.207" begin="animate8.end" id="animate9" fill="freeze"/></rect><rect x="164" y="111" width="51" height="46" id="rect-10" fill="transparent" stroke="#000000"><set attributeName="y" to="65" begin="0; animate11.end + 1s" /><animate attributeName="y" from="65" to="111" dur="0.170" begin="animate9.end + 0.5" id="animate10" fill="freeze"/></rect><rect x="130" y="130" width="124" height="78" id="rect-11" fill="transparent" stroke="#000000"><set attributeName="x" to="6" begin="0; animate11.end + 1s" /><animate attributeName="x" from="6" to="130" dur="0.459" begin="animate10.end + 0.5" id="animate11" fill="freeze"/></rect></svg>