<svg xmlns="http://www.w3.org/2000/svg" xmlns:xlink="http://www.w3.org/1999/xlink" width="270" height="270"><defs><clipPath id="clip-mask-1"><use xlink:href="#rect-1" /></clipPath><clipPath id="clip-mask-2"><use xlink:href="#rect-2" /></clipPath><clipPath id="clip-mask-3"><use xlink:href="#rect-3" /></clipPath><clipPath id="clip-mask-4"><use xlink:href="#rect-4" /></clipPath><clipPath id="clip-mask-5"><use xlink:href="#rect-5" /></clipPath><clipPath id="clip-mask-6"><use xlink:href="#rect-6" /></clipPath><clipPath id="clip-mask-7"><use xlink:href="#rect-7" /></clipPath><clipPath id="clip-mask-8"><use xlink:href="#rect-8" /></clipPath><clipPath id="clip-mask-9"><use xlink:href="#rect-9" /></clipPath><clipPath id="clip-mask-10"><use xlink:href="#rect-10" /></clipPath><clipPath id="clip-mask-11"><use xlink:href="#rect-11" /></clipPath><clipPath id="clip-mask-12"><use xlink:href="#rect-12" /></clipPath></defs><path d="M 0 0 L 270 270 M 270 0 L 0 270 M 135 0 L 135 270 M 0 135 L 270 135" stroke="#CCCCCC" /><path d="M 44 97 L 45 96 Q 47 96 49 98 Q 52 104 52 112 Q 54 124 50 138 Q 48 146 44 152 Q 39 156 36 152 Q 30 143 33 135 Q 39 117 43 99" fill="#CCCCCC"/><path d="M 85 82 Q 85 82 85 82 Q 86 82 90 83 Q 111 90 112 98 Q 113 104 112 107 Q 111 109 109 109 Q 106 109 103 106 Q 96 99 90 93 Q 86 89 85 87" fill="#CCCCCC"/><path d="M 82 202 L 82 215 Q 82 232 75 237 Q 73 239 71 237 Q 69 236 67 232 Q 60 215 63 204 Q 65 199 66 195 Q 71 170 71 63 Q 71 43 63 32 Q 62 27 63 26 Q 69 22 75 27 Q 90 36 92 39 Q 93 42 90 46 Q 86 61 85 82 L 85 87" fill="#CCCCCC"/><path d="M 167 110 Q 168 72 165 40 Q 165 35 160 28 Q 158 24 160 22 Q 162 20 166 21 Q 172 22 181 27 Q 186 31 185 33 Q 183 42 182 51 Q 180 78 178 108" fill="#CCCCCC"/><path d="M 121 74 L 121 72 Q 121 69 122 69 Q 124 68 127 69 Q 140 74 140 75 Q 144 78 145 83 Q 146 87 144 90 Q 142 93 139 92 Q 132 89 124 78" fill="#CCCCCC"/><path d="M 215 49 L 214 44 Q 213 40 216 40 Q 219 39 226 42 Q 233 46 237 50 Q 239 55 234 58 Q 232 59 212 73 Q 205 79 193 87 Q 188 88 191 83 Q 206 64 211 54" fill="#CCCCCC"/><path d="M 144 225 L 135 231 Q 132 232 130 229 Q 129 227 128 225 Q 123 213 127 206 Q 130 201 131 195 Q 145 141 133 111 Q 132 107 135 106 Q 144 106 149 112 L 152 120 Q 152 120 152 121 Q 151 126 150 140 L 150 147 Q 149 157 148 170 L 148 177" fill="#CCCCCC"/><path d="M 149 112 Q 159 110 167 110 L 178 108 Q 194 102 202 99 Q 206 97 211 99 Q 221 103 227 108 L 205 113 Q 203 110 198 112 Q 152 120 152 120" fill="#CCCCCC"/><path d="M 227 108 Q 230 111 227 116 Q 219 129 227 214 Q 227 234 216 246 Q 213 249 211 248 Q 207 247 203 241 L 207 220 Q 208 217 209 210 Q 210 177 208 122 Q 208 115 205 113" fill="#CCCCCC"/><path d="M 203 241 Q 196 231 183 217 Q 183 214 188 217 Q 194 218 201 220 Q 206 221 207 220" fill="#CCCCCC"/><path d="M 150 140 Q 156 140 161 139 Q 181 134 185 135 Q 191 137 193 140 Q 194 141 192 143 Q 191 144 186 145 Q 184 145 183 145 Q 156 149 150 147" fill="#CCCCCC"/><path d="M 148 170 Q 155 169 162 169 Q 182 165 187 166 Q 193 168 195 171 Q 196 173 194 174 Q 193 175 188 176 Q 155 180 148 177" fill="#CCCCCC"/><path d="M 44 97 L 45 96 Q 47 96 49 98 Q 52 104 52 112 Q 54 124 50 138 Q 48 146 44 152 Q 39 156 36 152 Q 30 143 33 135 Q 39 117 43 99" fill="#0000ff" clip-path="url(#clip-mask-1)" /><path d="M 85 82 Q 85 82 85 82 Q 86 82 90 83 Q 111 90 112 98 Q 113 104 112 107 Q 111 109 109 109 Q 106 109 103 106 Q 96 99 90 93 Q 86 89 85 87" fill="#0000ff" clip-path="url(#clip-mask-2)" /><path d="M 82 202 L 82 215 Q 82 232 75 237 Q 73 239 71 237 Q 69 236 67 232 Q 60 215 63 204 Q 65 199 66 195 Q 71 170 71 63 Q 71 43 63 32 Q 62 27 63 26 Q 69 22 75 27 Q 90 36 92 39 Q 93 42 90 46 Q 86 61 85 82 L 85 87" fill="#0000ff" clip-path="url(#clip-mask-3)" /><path d="M 167 110 Q 168 72 165 40 Q 165 35 160 28 Q 158 24 160 22 Q 162 20 166 21 Q 172 22 181 27 Q 186 31 185 33 Q 183 42 182 51 Q 180 78 178 108" fill="#000080" clip-path="url(#clip-mask-4)" /><path d="M 121 74 L 121 72 Q 121 69 122 69 Q 124 68 127 69 Q 140 74 140 75 Q 144 78 145 83 Q 146 87 144 90 Q 142 93 139 92 Q 132 89 124 78" fill="#000080" clip-path="url(#clip-mask-5)" /><path d="M 215 49 L 214 44 Q 213 40 216 40 Q 219 39 226 42 Q 233 46 237 50 Q 239 55 234 58 Q 232 59 212 73 Q 205 79 193 87 Q 188 88 191 83 Q 206 64 211 54" fill="#000080" clip-path="url(#clip-mask-6)" /><path d="M 144 225 L 135 231 Q 132 232 130 229 Q 129 227 128 225 Q 123 213 127 206 Q 130 201 131 195 Q 145 141 133 111 Q 132 107 135 106 Q 144 106 149 112 L 152 120 Q 152 120 152 121 Q 151 126 150 140 L 150 147 Q 149 157 148 170 L 148 177" fill="#000080" clip-path="url(#clip-mask-7)" /><path d="M 149 112 Q 159 110 167 110 L 178 108 Q 194 102 202 99 Q 206 97 211 99 Q 221 103 227 108 L 205 113 Q 203 110 198 112 Q 152 120 152 120" fill="#000080" clip-path="url(#clip-mask-8)" /><path d="M 227 108 Q 230 111 227 116 Q 219 129 227 214 Q 227 234 216 246 Q 213 249 211 248 Q 207 247 203 241 L 207 220 Q 208 217 209 210 Q 210 177 208 122 Q 208 115 205 113" fill="#000080" clip-path="url(#clip-mask-9)" /><path d="M 203 241 Q 196 231 183 217 Q 183 214 188 217 Q 194 218 201 220 Q 206 221 207 220" fill="#000080" clip-path="url(#clip-mask-10)" /><path d="M 150 140 Q 156 140 161 139 Q 181 134 185 135 Q 191 137 193 140 Q 194 141 192 143 Q 191 144 186 145 Q 184 145 183 145 Q 156 149 150 147" fill="#000080" clip-path="url(#clip-mask-11)" /><path d="M 148 170 Q 155 169 162 169 Q 182 165 187 166 Q 193 168 195 171 Q 196 173 194 174 Q 193 175 188 176 Q 155 180 148 177" fill="#000080" clip-path="url(#clip-mask-12)" /><rect x="30" y="96" width="24" height="60" id="rect-1" fill="transparent" stroke="#000000"><animate attributeName="y" from="36" to="96" dur="0.222" begin="0; animate12.end + 1s" id="animate1" fill="freeze"/></rect><rect x="85" y="82" width="28" height="27" id="rect-2" fill="transparent" stroke="#000000"><set attributeName="x" to="57" begin="0; animate12.end + 1s" /><animate attributeName="x" from="57" to="85" dur="0.104" begin="animate1.end + 0.5" id="animate2" fill="freeze"/></rect><rect x="60" y="22" width="33" height="217" id="rect-3" fill="transparent" stroke="#000000"><set attributeName="y" to="-195" begin="0; animate12.end + 1s" /><animate attributeName="y" from="-195" to="22" dur="0.804" begin="animate2.end + 0.5" id="animate3" fill="freeze"/></rect><rect x="158" y="20" width="28" height="90" id="rect-4" fill="transparent" stroke="#000000"><set attributeName="y" to="-70" begin="0; animate12.end + 1s" /><animate attributeName="y" from="-70" to="20" dur="0.333" begin="animate3.end + 0.5" id="animate4" fill="freeze"/></rect><rect x="121" y="68" width="25" height="25" id="rect-5" fill="transparent" stroke="#000000"><set attributeName="y" to="43" begin="0; animate12.end + 1s" /><animate attributeName="y" from="43" to="68" dur="0.093" begin="animate4.end + 0.5" id="animate5" fill="freeze"/></rect><rect x="188" y="39" width="51" height="49" id="rect-6" fill="transparent" stroke="#000000"><set attributeName="y" to="-10" begin="0; animate12.end + 1s" /><animate attributeName="y" from="-10" to="39" dur="0.181" begin="animate5.end + 0.5" id="animate6" fill="freeze"/></rect><rect x="123" y="106" width="29" height="126" id="rect-7" fill="transparent" stroke="#000000"><set attributeName="y" to="-20" begin="0; animate12.end + 1s" /><animate attributeName="y" from="-20" to="106" dur="0.467" begin="animate6.end + 0.5" id="animate7" fill="freeze"/></rect><rect x="149" y="97" width="78" height="23" id="rect-8" fill="transparent" stroke="#000000"><set attributeName="x" to="71" begin="0; animate12.end + 1s" /><animate attributeName="x" from="71" to="149" dur="0.289" begin="animate7.end + 0.5" id="animate8" fill="freeze"/></rect><rect x="203" y="108" width="27" height="141" id="rect-9" fill="transparent" stroke="#000000"><set attributeName="y" to="-33" begin="0; animate12.end + 1s" /><animate attributeName="y" from="-33" to="108" dur="0.522" begin="animate8.end" id="animate9" fill="freeze"/></rect><rect x="183" y="214" width="24" height="27" id="rect-10" fill="transparent" stroke="#000000"><set attributeName="x" to="207" begin="0; animate12.end + 1s" /><animate attributeName="x" from="207" to="183" dur="0.089" begin="animate9.end" id="animate10" fill="freeze"/></rect><rect x="150" y="134" width="44" height="15" id="rect-11" fill="transparent" stroke="#000000"><set attributeName="x" to="106" begin="0; animate12.end + 1s" /><animate attributeName="x" from="106" to="150" dur="0.163" begin="animate10.end + 0.5" id="animate11" fill="freeze"/></rect><rect x="148" y="165" width="48" height="15" id="rect-12" fill="transparent" stroke="#000000"><set attributeName="x" to="100" begin="0; animate12.end + 1s" /><animate attributeName="x" from="100" to="148" dur="0.178" begin="animate11.end + 0.5" id="animate12" fill="freeze"/></rect></svg>