<svg xmlns="http://www.w3.org/2000/svg" xmlns:xlink="http://www.w3.org/1999/xlink" width="270" height="270"><defs><clipPath id="clip-mask-1"><use xlink:href="#rect-1" /></clipPath><clipPath id="clip-mask-2"><use xlink:href="#rect-2" /></clipPath><clipPath id="clip-mask-3"><use xlink:href="#rect-3" /></clipPath><clipPath id="clip-mask-4"><use xlink:href="#rect-4" /></clipPath><clipPath id="clip-mask-5"><use xlink:href="#rect-5" /></clipPath><clipPath id="clip-mask-6"><use xlink:href="#rect-6" /></clipPath><clipPath id="clip-mask-7"><use xlink:href="#rect-7" /></clipPath><clipPath id="clip-mask-8"><use xlink:href="#rect-8" /></clipPath><clipPath id="clip-mask-9"><use xlink:href="#rect-9" /></clipPath><clipPath id="clip-mask-10"><use xlink:href="#rect-10" /></clipPath><clipPath id="clip-mask-11"><use xlink:href="#rect-11" /></clipPath></defs><path d="M 0 0 L 270 270 M 270 0 L 0 270 M 135 0 L 135 270 M 0 135 L 270 135" stroke="#CCCCCC" /><path d="M 35 91 L 37 91 Q 38 91 40 93 Q 43 99 43 107 Q 44 119 40 134 Q 37 142 33 147 Q 28 151 25 147 Q 20 140 23 130 Q 30 113 34 94" fill="#CCCCCC"/><path d="M 78 72 Q 86 73 93 75 Q 101 79 103 83 Q 106 89 105 92 Q 104 95 102 95 Q 99 96 96 93 Q 81 82 77 80" fill="#CCCCCC"/><path d="M 77 82 L 77 84 Q 74 201 74 214 Q 74 231 67 235 Q 65 237 63 235 Q 61 235 60 230 Q 53 213 56 203 Q 58 197 59 191 Q 65 162 65 64 Q 64 41 56 29 Q 55 25 56 24 Q 61 20 68 25 Q 82 34 84 36 Q 85 40 82 44 Q 79 55 78 72 L 77 80" fill="#CCCCCC"/><path d="M 117 107 Q 100 130 93 132 Q 90 133 90 130 Q 91 128 93 126 Q 94 124 95 123 Q 148 45 137 27 Q 135 21 140 20 Q 144 20 152 24 Q 160 29 161 33 Q 162 36 160 39 Q 155 45 149 56 Q 136 82 123 99" fill="#CCCCCC"/><path d="M 136 201 Q 136 209 136 218 Q 136 231 132 242 Q 129 249 124 245 Q 123 244 123 243 Q 113 231 117 218 Q 121 202 123 186 Q 129 133 121 114 Q 119 110 117 107 L 123 99 Q 127 101 129 104 Q 133 107 137 113 Q 140 116 138 123 Q 136 137 136 193" fill="#CCCCCC"/><path d="M 171 43 L 170 40 Q 169 36 171 35 Q 173 35 177 35 Q 200 41 202 48 Q 204 56 203 60 Q 202 64 199 64 Q 195 64 191 61 Q 184 54 179 49" fill="#CCCCCC"/><path d="M 172 96 Q 171 96 171 96 Q 157 100 148 94 Q 141 90 150 89 Q 169 86 193 80 Q 215 72 222 73 Q 229 75 231 78 Q 232 80 230 81 Q 228 82 184 93" fill="#CCCCCC"/><path d="M 176 129 Q 171 130 166 131 Q 160 132 157 130 Q 152 126 156 125 Q 166 122 176 119 L 190 114 Q 202 111 208 111 Q 215 112 218 116 Q 221 120 214 121 Q 203 123 190 126" fill="#CCCCCC"/><path d="M 176 160 Q 170 160 164 161 Q 158 162 155 160 Q 150 156 154 155 Q 164 152 176 150 L 189 146 Q 189 146 190 146 Q 202 142 208 143 Q 215 144 218 148 Q 221 152 214 153 Q 202 155 189 157" fill="#CCCCCC"/><path d="M 176 171 L 176 160 L 176 150 Q 176 137 176 129 L 176 119 Q 176 102 172 96 L 184 93 Q 187 96 190 99 Q 193 102 191 107 Q 191 110 190 114 L 190 126 Q 189 136 189 146 L 189 157 Q 188 170 188 185 L 176 187" fill="#CCCCCC"/><path d="M 188 185 Q 203 182 215 180 Q 231 175 245 186 Q 249 190 248 193 Q 246 195 241 195 Q 181 195 154 201 Q 141 203 136 201 L 136 193 Q 157 189 176 187" fill="#CCCCCC"/><path d="M 35 91 L 37 91 Q 38 91 40 93 Q 43 99 43 107 Q 44 119 40 134 Q 37 142 33 147 Q 28 151 25 147 Q 20 140 23 130 Q 30 113 34 94" fill="#0000ff" clip-path="url(#clip-mask-1)" /><path d="M 78 72 Q 86 73 93 75 Q 101 79 103 83 Q 106 89 105 92 Q 104 95 102 95 Q 99 96 96 93 Q 81 82 77 80" fill="#0000ff" clip-path="url(#clip-mask-2)" /><path d="M 77 82 L 77 84 Q 74 201 74 214 Q 74 231 67 235 Q 65 237 63 235 Q 61 235 60 230 Q 53 213 56 203 Q 58 197 59 191 Q 65 162 65 64 Q 64 41 56 29 Q 55 25 56 24 Q 61 20 68 25 Q 82 34 84 36 Q 85 40 82 44 Q 79 55 78 72 L 77 80" fill="#0000ff" clip-path="url(#clip-mask-3)" /><path d="M 117 107 Q 100 130 93 132 Q 90 133 90 130 Q 91 128 93 126 Q 94 124 95 123 Q 148 45 137 27 Q 135 21 140 20 Q 144 20 152 24 Q 160 29 161 33 Q 162 36 160 39 Q 155 45 149 56 Q 136 82 123 99" fill="#000080" clip-path="url(#clip-mask-4)" /><path d="M 136 201 Q 136 209 136 218 Q 136 231 132 242 Q 129 249 124 245 Q 123 244 123 243 Q 113 231 117 218 Q 121 202 123 186 Q 129 133 121 114 Q 119 110 117 107 L 123 99 Q 127 101 129 104 Q 133 107 137 113 Q 140 116 138 123 Q 136 137 136 193" fill="#000080" clip-path="url(#clip-mask-5)" /><path d="M 171 43 L 170 40 Q 169 36 171 35 Q 173 35 177 35 Q 200 41 202 48 Q 204 56 203 60 Q 202 64 199 64 Q 195 64 191 61 Q 184 54 179 49" fill="#000080" clip-path="url(#clip-mask-6)" /><path d="M 172 96 Q 171 96 171 96 Q 157 100 148 94 Q 141 90 150 89 Q 169 86 193 80 Q 215 72 222 73 Q 229 75 231 78 Q 232 80 230 81 Q 228 82 184 93" fill="#000080" clip-path="url(#clip-mask-7)" /><path d="M 176 129 Q 171 130 166 131 Q 160 132 157 130 Q 152 126 156 125 Q 166 122 176 119 L 190 114 Q 202 111 208 111 Q 215 112 218 116 Q 221 120 214 121 Q 203 123 190 126" fill="#000080" clip-path="url(#clip-mask-8)" /><path d="M 176 160 Q 170 160 164 161 Q 158 162 155 160 Q 150 156 154 155 Q 164 152 176 150 L 189 146 Q 189 146 190 146 Q 202 142 208 143 Q 215 144 218 148 Q 221 152 214 153 Q 202 155 189 157" fill="#000080" clip-path="url(#clip-mask-9)" /><path d="M 176 171 L 176 160 L 176 150 Q 176 137 176 129 L 176 119 Q 176 102 172 96 L 184 93 Q 187 96 190 99 Q 193 102 191 107 Q 191 110 190 114 L 190 126 Q 189 136 189 146 L 189 157 Q 188 170 188 185 L 176 187" fill="#000080" clip-path="url(#clip-mask-10)" /><path d="M 188 185 Q 203 182 215 180 Q 231 175 245 186 Q 249 190 248 193 Q 246 195 241 195 Q 181 195 154 201 Q 141 203 136 201 L 136 193 Q 157 189 176 187" fill="#000080" clip-path="url(#clip-mask-11)" /><rect x="20" y="91" width="24" height="60" id="rect-1" fill="transparent" stroke="#000000"><animate attributeName="y" from="31" to="91" dur="0.222" begin="0; animate11.end + 1s" id="animate1" fill="freeze"/></rect><rect x="77" y="72" width="29" height="24" id="rect-2" fill="transparent" stroke="#000000"><set attributeName="x" to="48" begin="0; animate11.end + 1s" /><animate attributeName="x" from="48" to="77" dur="0.107" begin="animate1.end + 0.5" id="animate2" fill="freeze"/></rect><rect x="53" y="20" width="32" height="217" id="rect-3" fill="transparent" stroke="#000000"><set attributeName="y" to="-197" begin="0; animate11.end + 1s" /><animate attributeName="y" from="-197" to="20" dur="0.804" begin="animate2.end + 0.5" id="animate3" fill="freeze"/></rect><rect x="90" y="20" width="72" height="113" id="rect-4" fill="transparent" stroke="#000000"><set attributeName="y" to="-93" begin="0; animate11.end + 1s" /><animate attributeName="y" from="-93" to="20" dur="0.419" begin="animate3.end + 0.5" id="animate4" fill="freeze"/></rect><rect x="113" y="99" width="27" height="150" id="rect-5" fill="transparent" stroke="#000000"><set attributeName="y" to="-51" begin="0; animate11.end + 1s" /><animate attributeName="y" from="-51" to="99" dur="0.556" begin="animate4.end + 0.5" id="animate5" fill="freeze"/></rect><rect x="169" y="35" width="35" height="29" id="rect-6" fill="transparent" stroke="#000000"><set attributeName="x" to="134" begin="0; animate11.end + 1s" /><animate attributeName="x" from="134" to="169" dur="0.130" begin="animate5.end + 0.5" id="animate6" fill="freeze"/></rect><rect x="141" y="72" width="91" height="28" id="rect-7" fill="transparent" stroke="#000000"><set attributeName="x" to="50" begin="0; animate11.end + 1s" /><animate attributeName="x" from="50" to="141" dur="0.337" begin="animate6.end + 0.5" id="animate7" fill="freeze"/></rect><rect x="152" y="111" width="69" height="21" id="rect-8" fill="transparent" stroke="#000000"><set attributeName="x" to="83" begin="0; animate11.end + 1s" /><animate attributeName="x" from="83" to="152" dur="0.256" begin="animate7.end + 0.5" id="animate8" fill="freeze"/></rect><rect x="150" y="142" width="71" height="20" id="rect-9" fill="transparent" stroke="#000000"><set attributeName="x" to="79" begin="0; animate11.end + 1s" /><animate attributeName="x" from="79" to="150" dur="0.263" begin="animate8.end + 0.5" id="animate9" fill="freeze"/></rect><rect x="172" y="93" width="21" height="94" id="rect-10" fill="transparent" stroke="#000000"><set attributeName="y" to="-1" begin="0; animate11.end + 1s" /><animate attributeName="y" from="-1" to="93" dur="0.348" begin="animate9.end + 0.5" id="animate10" fill="freeze"/></rect><rect x="136" y="175" width="113" height="28" id="rect-11" fill="transparent" stroke="#000000"><set attributeName="x" to="23" begin="0; animate11.end + 1s" /><animate attributeName="x" from="23" to="136" dur="0.419" begin="animate10.end + 0.5" id="animate11" fill="freeze"/></rect></svg>