<svg xmlns="http://www.w3.org/2000/svg" xmlns:xlink="http://www.w3.org/1999/xlink" width="270" height="270"><defs><clipPath id="clip-mask-1"><use xlink:href="#rect-1" /></clipPath><clipPath id="clip-mask-2"><use xlink:href="#rect-2" /></clipPath><clipPath id="clip-mask-3"><use xlink:href="#rect-3" /></clipPath><clipPath id="clip-mask-4"><use xlink:href="#rect-4" /></clipPath><clipPath id="clip-mask-5"><use xlink:href="#rect-5" /></clipPath><clipPath id="clip-mask-6"><use xlink:href="#rect-6" /></clipPath><clipPath id="clip-mask-7"><use xlink:href="#rect-7" /></clipPath><clipPath id="clip-mask-8"><use xlink:href="#rect-8" /></clipPath><clipPath id="clip-mask-9"><use xlink:href="#rect-9" /></clipPath><clipPath id="clip-mask-10"><use xlink:href="#rect-10" /></clipPath><clipPath id="clip-mask-11"><use xlink:href="#rect-11" /></clipPath><clipPath id="clip-mask-12"><use xlink:href="#rect-12" /></clipPath><clipPath id="clip-mask-13"><use xlink:href="#rect-13" /></clipPath><clipPath id="clip-mask-14"><use xlink:href="#rect-14" /></clipPath></defs><path d="M 0 0 L 270 270 M 270 0 L 0 270 M 135 0 L 135 270 M 0 135 L 270 135" stroke="#CCCCCC" /><path d="M 84 53 Q 81 54 79 55 Q 60 63 56 63 Q 55 62 56 59 Q 98 34 97 25 Q 97 22 99 21 Q 102 20 107 22 Q 118 26 124 29 Q 127 31 127 35 Q 126 37 121 37 Q 109 41 93 49" fill="#CCCCCC"/><path d="M 68 95 L 48 102 Q 38 105 28 99 Q 24 96 25 94 Q 25 92 29 91 Q 46 90 89 79 L 101 77 Q 108 73 118 77 Q 122 79 122 82 Q 122 84 118 84 Q 108 86 100 88 L 82 91" fill="#CCCCCC"/><path d="M 89 79 Q 88 71 88 65 Q 88 59 84 53 L 93 49 Q 103 55 104 57 Q 105 60 103 63 Q 101 69 101 77 L 100 88 Q 99 145 100 151 Q 99 163 94 167 Q 93 168 92 167 Q 90 167 89 163 Q 83 151 86 144 Q 89 133 89 105" fill="#CCCCCC"/><path d="M 89 79 L 89 105 Q 89 105 89 105 Q 64 137 42 146 Q 39 147 37 146 Q 35 146 38 143 Q 72 114 82 91" fill="#CCCCCC"/><path d="M 107 109 L 106 107 Q 106 104 107 104 Q 109 102 123 107 Q 129 110 130 113 Q 132 119 131 122 Q 130 124 128 124 Q 125 125 122 122 Q 117 117 112 113" fill="#CCCCCC"/><path d="M 126 73 L 127 71 Q 127 69 129 69 Q 145 75 149 83 Q 150 88 150 91 Q 148 94 145 94 Q 139 93 127 75" fill="#CCCCCC"/><path d="M 201 56 L 200 51 Q 199 48 202 47 Q 206 47 211 50 Q 217 54 221 58 Q 223 62 218 65 Q 212 67 208 71 Q 193 81 183 85 Q 179 86 181 82 Q 194 65 197 60" fill="#CCCCCC"/><path d="M 166 110 L 165 115 Q 156 143 132 150 Q 124 152 121 151 Q 119 151 118 150 Q 118 149 121 147 Q 130 142 137 138 Q 153 125 157 103 Q 164 45 152 27 Q 150 24 153 23 Q 155 21 161 22 Q 170 25 176 30 L 177 30 Q 178 32 175 41 Q 175 41 169 98 L 167 105" fill="#CCCCCC"/><path d="M 169 98 Q 170 99 171 100 Q 199 128 222 138 Q 233 142 242 146 Q 245 147 244 149 Q 244 150 240 150 Q 223 152 207 150 Q 198 148 193 143 Q 179 124 167 105" fill="#CCCCCC"/><path d="M 59 172 L 62 172 Q 63 172 65 174 Q 67 181 67 190 Q 66 214 53 226 Q 48 230 45 226 Q 43 221 43 215 Q 43 211 45 207 Q 53 192 58 174" fill="#CCCCCC"/><path d="M 85 183 L 86 183 Q 88 181 92 183 Q 95 184 96 191 Q 101 205 110 213 Q 131 230 179 228 Q 188 228 190 225 L 215 222 Q 226 228 225 231 Q 225 235 217 239 Q 209 242 198 244 Q 143 249 114 231 Q 91 216 86 186" fill="#CCCCCC"/><path d="M 190 225 Q 192 222 189 216 Q 181 197 181 196 Q 182 193 186 198 Q 199 210 215 222" fill="#CCCCCC"/><path d="M 124 174 L 124 171 Q 123 168 125 167 Q 127 167 131 168 Q 156 176 159 187 Q 160 191 158 194 Q 156 198 152 197 Q 142 193 128 177" fill="#CCCCCC"/><path d="M 190 170 L 190 167 Q 189 164 192 165 Q 230 172 234 184 Q 239 194 237 198 Q 235 201 233 201 Q 229 200 224 196 Q 207 182 193 173" fill="#CCCCCC"/><path d="M 84 53 Q 81 54 79 55 Q 60 63 56 63 Q 55 62 56 59 Q 98 34 97 25 Q 97 22 99 21 Q 102 20 107 22 Q 118 26 124 29 Q 127 31 127 35 Q 126 37 121 37 Q 109 41 93 49" fill="#000080" clip-path="url(#clip-mask-1)" /><path d="M 68 95 L 48 102 Q 38 105 28 99 Q 24 96 25 94 Q 25 92 29 91 Q 46 90 89 79 L 101 77 Q 108 73 118 77 Q 122 79 122 82 Q 122 84 118 84 Q 108 86 100 88 L 82 91" fill="#000080" clip-path="url(#clip-mask-2)" /><path d="M 89 79 Q 88 71 88 65 Q 88 59 84 53 L 93 49 Q 103 55 104 57 Q 105 60 103 63 Q 101 69 101 77 L 100 88 Q 99 145 100 151 Q 99 163 94 167 Q 93 168 92 167 Q 90 167 89 163 Q 83 151 86 144 Q 89 133 89 105" fill="#000080" clip-path="url(#clip-mask-3)" /><path d="M 89 79 L 89 105 Q 89 105 89 105 Q 64 137 42 146 Q 39 147 37 146 Q 35 146 38 143 Q 72 114 82 91" fill="#000080" clip-path="url(#clip-mask-4)" /><path d="M 107 109 L 106 107 Q 106 104 107 104 Q 109 102 123 107 Q 129 110 130 113 Q 132 119 131 122 Q 130 124 128 124 Q 125 125 122 122 Q 117 117 112 113" fill="#000080" clip-path="url(#clip-mask-5)" /><path d="M 126 73 L 127 71 Q 127 69 129 69 Q 145 75 149 83 Q 150 88 150 91 Q 148 94 145 94 Q 139 93 127 75" fill="#000080" clip-path="url(#clip-mask-6)" /><path d="M 201 56 L 200 51 Q 199 48 202 47 Q 206 47 211 50 Q 217 54 221 58 Q 223 62 218 65 Q 212 67 208 71 Q 193 81 183 85 Q 179 86 181 82 Q 194 65 197 60" fill="#000080" clip-path="url(#clip-mask-7)" /><path d="M 166 110 L 165 115 Q 156 143 132 150 Q 124 152 121 151 Q 119 151 118 150 Q 118 149 121 147 Q 130 142 137 138 Q 153 125 157 103 Q 164 45 152 27 Q 150 24 153 23 Q 155 21 161 22 Q 170 25 176 30 L 177 30 Q 178 32 175 41 Q 175 41 169 98 L 167 105" fill="#000080" clip-path="url(#clip-mask-8)" /><path d="M 169 98 Q 170 99 171 100 Q 199 128 222 138 Q 233 142 242 146 Q 245 147 244 149 Q 244 150 240 150 Q 223 152 207 150 Q 198 148 193 143 Q 179 124 167 105" fill="#000080" clip-path="url(#clip-mask-9)" /><path d="M 59 172 L 62 172 Q 63 172 65 174 Q 67 181 67 190 Q 66 214 53 226 Q 48 230 45 226 Q 43 221 43 215 Q 43 211 45 207 Q 53 192 58 174" fill="#0000ff" clip-path="url(#clip-mask-10)" /><path d="M 85 183 L 86 183 Q 88 181 92 183 Q 95 184 96 191 Q 101 205 110 213 Q 131 230 179 228 Q 188 228 190 225 L 215 222 Q 226 228 225 231 Q 225 235 217 239 Q 209 242 198 244 Q 143 249 114 231 Q 91 216 86 186" fill="#0000ff" clip-path="url(#clip-mask-11)" /><path d="M 190 225 Q 192 222 189 216 Q 181 197 181 196 Q 182 193 186 198 Q 199 210 215 222" fill="#0000ff" clip-path="url(#clip-mask-12)" /><path d="M 124 174 L 124 171 Q 123 168 125 167 Q 127 167 131 168 Q 156 176 159 187 Q 160 191 158 194 Q 156 198 152 197 Q 142 193 128 177" fill="#0000ff" clip-path="url(#clip-mask-13)" /><path d="M 190 170 L 190 167 Q 189 164 192 165 Q 230 172 234 184 Q 239 194 237 198 Q 235 201 233 201 Q 229 200 224 196 Q 207 182 193 173" fill="#0000ff" clip-path="url(#clip-mask-14)" /><rect x="55" y="20" width="72" height="43" id="rect-1" fill="transparent" stroke="#000000"><animate attributeName="x" from="127" to="55" dur="0.267" begin="0; animate14.end + 1s" id="animate1" fill="freeze"/></rect><rect x="24" y="73" width="98" height="32" id="rect-2" fill="transparent" stroke="#000000"><set attributeName="x" to="-74" begin="0; animate14.end + 1s" /><animate attributeName="x" from="-74" to="24" dur="0.363" begin="animate1.end + 0.5" id="animate2" fill="freeze"/></rect><rect x="83" y="49" width="22" height="119" id="rect-3" fill="transparent" stroke="#000000"><set attributeName="y" to="-70" begin="0; animate14.end + 1s" /><animate attributeName="y" from="-70" to="49" dur="0.441" begin="animate2.end + 0.5" id="animate3" fill="freeze"/></rect><rect x="35" y="79" width="54" height="68" id="rect-4" fill="transparent" stroke="#000000"><set attributeName="x" to="89" begin="0; animate14.end + 1s" /><animate attributeName="x" from="89" to="35" dur="0.200" begin="animate3.end + 0.5" id="animate4" fill="freeze"/></rect><rect x="106" y="102" width="26" height="23" id="rect-5" fill="transparent" stroke="#000000"><set attributeName="x" to="80" begin="0; animate14.end + 1s" /><animate attributeName="x" from="80" to="106" dur="0.096" begin="animate4.end + 0.5" id="animate5" fill="freeze"/></rect><rect x="126" y="69" width="24" height="25" id="rect-6" fill="transparent" stroke="#000000"><set attributeName="x" to="102" begin="0; animate14.end + 1s" /><animate attributeName="x" from="102" to="126" dur="0.089" begin="animate5.end + 0.5" id="animate6" fill="freeze"/></rect><rect x="179" y="47" width="44" height="39" id="rect-7" fill="transparent" stroke="#000000"><set attributeName="y" to="8" begin="0; animate14.end + 1s" /><animate attributeName="y" from="8" to="47" dur="0.144" begin="animate6.end + 0.5" id="animate7" fill="freeze"/></rect><rect x="118" y="21" width="60" height="131" id="rect-8" fill="transparent" stroke="#000000"><set attributeName="y" to="-110" begin="0; animate14.end + 1s" /><animate attributeName="y" from="-110" to="21" dur="0.485" begin="animate7.end + 0.5" id="animate8" fill="freeze"/></rect><rect x="167" y="98" width="78" height="54" id="rect-9" fill="transparent" stroke="#000000"><set attributeName="x" to="89" begin="0; animate14.end + 1s" /><animate attributeName="x" from="89" to="167" dur="0.289" begin="animate8.end + 0.5" id="animate9" fill="freeze"/></rect><rect x="43" y="172" width="24" height="58" id="rect-10" fill="transparent" stroke="#000000"><set attributeName="y" to="114" begin="0; animate14.end + 1s" /><animate attributeName="y" from="114" to="172" dur="0.215" begin="animate9.end + 0.5" id="animate10" fill="freeze"/></rect><rect x="85" y="181" width="141" height="68" id="rect-11" fill="transparent" stroke="#000000"><set attributeName="x" to="-56" begin="0; animate14.end + 1s" /><animate attributeName="x" from="-56" to="85" dur="0.522" begin="animate10.end + 0.5" id="animate11" fill="freeze"/></rect><rect x="181" y="193" width="34" height="32" id="rect-12" fill="transparent" stroke="#000000"><set attributeName="y" to="225" begin="0; animate14.end + 1s" /><animate attributeName="y" from="225" to="193" dur="0.119" begin="animate11.end" id="animate12" fill="freeze"/></rect><rect x="123" y="167" width="37" height="31" id="rect-13" fill="transparent" stroke="#000000"><set attributeName="x" to="86" begin="0; animate14.end + 1s" /><animate attributeName="x" from="86" to="123" dur="0.137" begin="animate12.end + 0.5" id="animate13" fill="freeze"/></rect><rect x="189" y="164" width="50" height="37" id="rect-14" fill="transparent" stroke="#000000"><set attributeName="x" to="139" begin="0; animate14.end + 1s" /><animate attributeName="x" from="139" to="189" dur="0.185" begin="animate13.end + 0.5" id="animate14" fill="freeze"/></rect></svg>