<svg xmlns="http://www.w3.org/2000/svg" xmlns:xlink="http://www.w3.org/1999/xlink" width="270" height="270"><defs><clipPath id="clip-mask-1"><use xlink:href="#rect-1" /></clipPath><clipPath id="clip-mask-2"><use xlink:href="#rect-2" /></clipPath><clipPath id="clip-mask-3"><use xlink:href="#rect-3" /></clipPath><clipPath id="clip-mask-4"><use xlink:href="#rect-4" /></clipPath><clipPath id="clip-mask-5"><use xlink:href="#rect-5" /></clipPath><clipPath id="clip-mask-6"><use xlink:href="#rect-6" /></clipPath><clipPath id="clip-mask-7"><use xlink:href="#rect-7" /></clipPath><clipPath id="clip-mask-8"><use xlink:href="#rect-8" /></clipPath><clipPath id="clip-mask-9"><use xlink:href="#rect-9" /></clipPath><clipPath id="clip-mask-10"><use xlink:href="#rect-10" /></clipPath><clipPath id="clip-mask-11"><use xlink:href="#rect-11" /></clipPath><clipPath id="clip-mask-12"><use xlink:href="#rect-12" /></clipPath><clipPath id="clip-mask-13"><use xlink:href="#rect-13" /></clipPath><clipPath id="clip-mask-14"><use xlink:href="#rect-14" /></clipPath><clipPath id="clip-mask-15"><use xlink:href="#rect-15" /></clipPath><clipPath id="clip-mask-16"><use xlink:href="#rect-16" /></clipPath><clipPath id="clip-mask-17"><use xlink:href="#rect-17" /></clipPath><clipPath id="clip-mask-18"><use xlink:href="#rect-18" /></clipPath><clipPath id="clip-mask-19"><use xlink:href="#rect-19" /></clipPath><clipPath id="clip-mask-20"><use xlink:href="#rect-20" /></clipPath><clipPath id="clip-mask-21"><use xlink:href="#rect-21" /></clipPath></defs><path d="M 0 0 L 270 270 M 270 0 L 0 270 M 135 0 L 135 270 M 0 135 L 270 135" stroke="#CCCCCC" /><path d="M 75 27 L 79 27 Q 82 28 87 32 Q 92 37 92 39 Q 93 42 91 44 Q 88 46 84 51 Q 59 81 46 83 Q 43 83 44 81 Q 45 80 47 78 Q 57 68 64 59 Q 78 39 76 32" fill="#CCCCCC"/><path d="M 39 147 L 22 150 Q 17 151 21 148 Q 72 101 77 76 Q 77 73 78 72 Q 81 72 87 73 Q 92 74 93 77 Q 94 79 92 81 Q 88 87 79 99 Q 76 103 73 108 L 68 114" fill="#CCCCCC"/><path d="M 73 108 Q 74 108 80 116 Q 82 118 81 123 Q 79 129 79 155 Q 79 164 77 171 Q 74 176 71 173 Q 70 172 70 172 Q 63 162 66 155 Q 72 126 68 114" fill="#CCCCCC"/><path d="M 129 61 Q 129 29 125 25 Q 123 21 125 20 Q 126 19 129 20 Q 133 20 139 24 Q 143 27 142 28 Q 139 36 137 59" fill="#CCCCCC"/><path d="M 106 79 Q 104 80 102 79 Q 99 77 97 75 Q 96 72 99 69 Q 107 59 101 44 Q 99 41 101 40 Q 103 39 105 40 Q 109 43 112 46 Q 113 48 111 63" fill="#CCCCCC"/><path d="M 153 63 L 152 63 Q 150 62 138 66 Q 111 73 106 79 L 111 63 Q 110 66 113 66 Q 120 63 129 61 L 137 59 Q 145 57 154 56 L 153 63" fill="#CCCCCC"/><path d="M 154 56 Q 156 52 157 46 Q 158 36 156 32 Q 156 30 157 29 Q 160 29 161 30 Q 167 34 169 37 Q 171 39 169 41 Q 168 43 165 53 Q 162 66 158 70 Q 156 72 155 69 Q 153 67 153 63" fill="#CCCCCC"/><path d="M 114 87 L 122 84 Q 129 81 135 78 Q 140 76 146 76 Q 151 77 153 79 Q 154 80 152 82 Q 152 83 146 85 Q 133 89 121 93 Q 112 96 104 93 Q 98 90 105 88" fill="#CCCCCC"/><path d="M 120 112 Q 107 115 100 112 Q 96 109 102 107 Q 112 106 120 103 Q 128 101 134 98 Q 139 96 145 96 Q 150 98 152 100 Q 153 101 151 103 Q 150 103 144 105 Q 136 107 129 110" fill="#CCCCCC"/><path d="M 123 134 Q 120 134 119 135 Q 111 138 103 135 Q 98 132 104 131 Q 113 129 120 127 Q 121 127 122 127 L 133 122 Q 138 120 143 121 Q 149 121 150 123 Q 151 125 149 126 Q 148 127 143 129 Q 138 130 133 132" fill="#CCCCCC"/><path d="M 123 141 L 123 134 L 122 127 Q 121 113 120 112 L 129 110 Q 131 111 133 114 Q 134 115 133 122 L 133 132 Q 132 139 132 149 L 123 151" fill="#CCCCCC"/><path d="M 132 149 Q 156 142 158 144 Q 157 146 155 147 Q 129 158 104 169 Q 102 171 100 170 Q 94 166 90 163 Q 88 161 89 159 Q 89 156 91 156 Q 97 156 123 151" fill="#CCCCCC"/><path d="M 178 85 Q 168 97 167 97 Q 165 98 165 96 Q 165 94 167 92 Q 174 78 179 65 Q 188 38 183 32 Q 180 27 184 26 Q 188 26 195 28 Q 201 32 203 34 Q 205 37 203 40 Q 200 44 198 50 Q 191 65 185 75 Q 183 78 181 81" fill="#CCCCCC"/><path d="M 194 88 Q 182 89 178 85 L 181 81 Q 195 78 208 74 Q 224 68 229 68 Q 235 69 237 72 Q 238 74 237 75 Q 235 76 202 86" fill="#CCCCCC"/><path d="M 191 150 L 184 154 Q 168 163 160 162 Q 154 162 159 160 Q 181 147 188 136 Q 189 134 190 132 L 194 123 Q 198 103 195 90 Q 194 89 194 88 L 202 86 Q 209 88 212 91 Q 213 94 212 95 Q 211 97 210 101 Q 207 118 202 131 L 197 141" fill="#CCCCCC"/><path d="M 190 132 Q 174 112 169 110 Q 167 109 168 108 Q 169 106 175 106 Q 177 106 194 123 L 202 131 Q 222 149 250 159 Q 252 159 251 161 Q 248 163 224 166 Q 219 166 216 162 Q 207 153 197 141" fill="#CCCCCC"/><path d="M 66 190 L 68 190 Q 70 190 71 192 Q 72 199 70 207 Q 67 230 53 239 Q 47 242 46 237 Q 42 229 48 221 Q 58 207 65 192" fill="#CCCCCC"/><path d="M 89 189 L 90 188 Q 92 187 96 189 Q 99 190 100 196 Q 104 209 113 216 Q 132 232 177 231 Q 186 230 188 227 L 211 223 Q 222 230 221 232 Q 220 237 214 240 Q 205 243 196 245 Q 144 250 117 234 Q 95 220 90 192" fill="#CCCCCC"/><path d="M 188 227 Q 190 224 178 199 Q 176 196 177 194 Q 178 192 182 196 Q 194 210 211 223" fill="#CCCCCC"/><path d="M 127 184 L 126 182 Q 126 179 127 178 Q 129 177 132 178 Q 155 183 157 191 Q 160 198 159 201 Q 158 204 155 204 Q 151 204 148 202 Q 141 195 134 189" fill="#CCCCCC"/><path d="M 190 178 L 189 175 Q 189 172 192 173 Q 231 181 235 193 Q 240 202 237 206 Q 236 208 234 208 Q 230 208 226 204 Q 207 189 192 180" fill="#CCCCCC"/><path d="M 75 27 L 79 27 Q 82 28 87 32 Q 92 37 92 39 Q 93 42 91 44 Q 88 46 84 51 Q 59 81 46 83 Q 43 83 44 81 Q 45 80 47 78 Q 57 68 64 59 Q 78 39 76 32" fill="#000080" clip-path="url(#clip-mask-1)" /><path d="M 39 147 L 22 150 Q 17 151 21 148 Q 72 101 77 76 Q 77 73 78 72 Q 81 72 87 73 Q 92 74 93 77 Q 94 79 92 81 Q 88 87 79 99 Q 76 103 73 108 L 68 114" fill="#000080" clip-path="url(#clip-mask-2)" /><path d="M 73 108 Q 74 108 80 116 Q 82 118 81 123 Q 79 129 79 155 Q 79 164 77 171 Q 74 176 71 173 Q 70 172 70 172 Q 63 162 66 155 Q 72 126 68 114" fill="#000080" clip-path="url(#clip-mask-3)" /><path d="M 129 61 Q 129 29 125 25 Q 123 21 125 20 Q 126 19 129 20 Q 133 20 139 24 Q 143 27 142 28 Q 139 36 137 59" fill="#000080" clip-path="url(#clip-mask-4)" /><path d="M 106 79 Q 104 80 102 79 Q 99 77 97 75 Q 96 72 99 69 Q 107 59 101 44 Q 99 41 101 40 Q 103 39 105 40 Q 109 43 112 46 Q 113 48 111 63" fill="#000080" clip-path="url(#clip-mask-5)" /><path d="M 153 63 L 152 63 Q 150 62 138 66 Q 111 73 106 79 L 111 63 Q 110 66 113 66 Q 120 63 129 61 L 137 59 Q 145 57 154 56 L 153 63" fill="#000080" clip-path="url(#clip-mask-6)" /><path d="M 154 56 Q 156 52 157 46 Q 158 36 156 32 Q 156 30 157 29 Q 160 29 161 30 Q 167 34 169 37 Q 171 39 169 41 Q 168 43 165 53 Q 162 66 158 70 Q 156 72 155 69 Q 153 67 153 63" fill="#000080" clip-path="url(#clip-mask-7)" /><path d="M 114 87 L 122 84 Q 129 81 135 78 Q 140 76 146 76 Q 151 77 153 79 Q 154 80 152 82 Q 152 83 146 85 Q 133 89 121 93 Q 112 96 104 93 Q 98 90 105 88" fill="#000080" clip-path="url(#clip-mask-8)" /><path d="M 120 112 Q 107 115 100 112 Q 96 109 102 107 Q 112 106 120 103 Q 128 101 134 98 Q 139 96 145 96 Q 150 98 152 100 Q 153 101 151 103 Q 150 103 144 105 Q 136 107 129 110" fill="#000080" clip-path="url(#clip-mask-9)" /><path d="M 123 134 Q 120 134 119 135 Q 111 138 103 135 Q 98 132 104 131 Q 113 129 120 127 Q 121 127 122 127 L 133 122 Q 138 120 143 121 Q 149 121 150 123 Q 151 125 149 126 Q 148 127 143 129 Q 138 130 133 132" fill="#000080" clip-path="url(#clip-mask-10)" /><path d="M 123 141 L 123 134 L 122 127 Q 121 113 120 112 L 129 110 Q 131 111 133 114 Q 134 115 133 122 L 133 132 Q 132 139 132 149 L 123 151" fill="#000080" clip-path="url(#clip-mask-11)" /><path d="M 132 149 Q 156 142 158 144 Q 157 146 155 147 Q 129 158 104 169 Q 102 171 100 170 Q 94 166 90 163 Q 88 161 89 159 Q 89 156 91 156 Q 97 156 123 151" fill="#000080" clip-path="url(#clip-mask-12)" /><path d="M 178 85 Q 168 97 167 97 Q 165 98 165 96 Q 165 94 167 92 Q 174 78 179 65 Q 188 38 183 32 Q 180 27 184 26 Q 188 26 195 28 Q 201 32 203 34 Q 205 37 203 40 Q 200 44 198 50 Q 191 65 185 75 Q 183 78 181 81" fill="#000080" clip-path="url(#clip-mask-13)" /><path d="M 194 88 Q 182 89 178 85 L 181 81 Q 195 78 208 74 Q 224 68 229 68 Q 235 69 237 72 Q 238 74 237 75 Q 235 76 202 86" fill="#000080" clip-path="url(#clip-mask-14)" /><path d="M 191 150 L 184 154 Q 168 163 160 162 Q 154 162 159 160 Q 181 147 188 136 Q 189 134 190 132 L 194 123 Q 198 103 195 90 Q 194 89 194 88 L 202 86 Q 209 88 212 91 Q 213 94 212 95 Q 211 97 210 101 Q 207 118 202 131 L 197 141" fill="#000080" clip-path="url(#clip-mask-15)" /><path d="M 190 132 Q 174 112 169 110 Q 167 109 168 108 Q 169 106 175 106 Q 177 106 194 123 L 202 131 Q 222 149 250 159 Q 252 159 251 161 Q 248 163 224 166 Q 219 166 216 162 Q 207 153 197 141" fill="#000080" clip-path="url(#clip-mask-16)" /><path d="M 66 190 L 68 190 Q 70 190 71 192 Q 72 199 70 207 Q 67 230 53 239 Q 47 242 46 237 Q 42 229 48 221 Q 58 207 65 192" fill="#0000ff" clip-path="url(#clip-mask-17)" /><path d="M 89 189 L 90 188 Q 92 187 96 189 Q 99 190 100 196 Q 104 209 113 216 Q 132 232 177 231 Q 186 230 188 227 L 211 223 Q 222 230 221 232 Q 220 237 214 240 Q 205 243 196 245 Q 144 250 117 234 Q 95 220 90 192" fill="#0000ff" clip-path="url(#clip-mask-18)" /><path d="M 188 227 Q 190 224 178 199 Q 176 196 177 194 Q 178 192 182 196 Q 194 210 211 223" fill="#0000ff" clip-path="url(#clip-mask-19)" /><path d="M 127 184 L 126 182 Q 126 179 127 178 Q 129 177 132 178 Q 155 183 157 191 Q 160 198 159 201 Q 158 204 155 204 Q 151 204 148 202 Q 141 195 134 189" fill="#0000ff" clip-path="url(#clip-mask-20)" /><path d="M 190 178 L 189 175 Q 189 172 192 173 Q 231 181 235 193 Q 240 202 237 206 Q 236 208 234 208 Q 230 208 226 204 Q 207 189 192 180" fill="#0000ff" clip-path="url(#clip-mask-21)" /><rect x="43" y="27" width="50" height="56" id="rect-1" fill="transparent" stroke="#000000"><animate attributeName="y" from="-29" to="27" dur="0.207" begin="0; animate21.end + 1s" id="animate1" fill="freeze"/></rect><rect x="17" y="72" width="77" height="79" id="rect-2" fill="transparent" stroke="#000000"><set attributeName="y" to="-7" begin="0; animate21.end + 1s" /><animate attributeName="y" from="-7" to="72" dur="0.293" begin="animate1.end + 0.5" id="animate2" fill="freeze"/></rect><rect x="63" y="108" width="19" height="68" id="rect-3" fill="transparent" stroke="#000000"><set attributeName="y" to="40" begin="0; animate21.end + 1s" /><animate attributeName="y" from="40" to="108" dur="0.252" begin="animate2.end + 0.5" id="animate3" fill="freeze"/></rect><rect x="123" y="19" width="20" height="42" id="rect-4" fill="transparent" stroke="#000000"><set attributeName="y" to="-23" begin="0; animate21.end + 1s" /><animate attributeName="y" from="-23" to="19" dur="0.156" begin="animate3.end + 0.5" id="animate4" fill="freeze"/></rect><rect x="96" y="39" width="17" height="41" id="rect-5" fill="transparent" stroke="#000000"><set attributeName="y" to="-2" begin="0; animate21.end + 1s" /><animate attributeName="y" from="-2" to="39" dur="0.152" begin="animate4.end + 0.5" id="animate5" fill="freeze"/></rect><rect x="106" y="56" width="48" height="23" id="rect-6" fill="transparent" stroke="#000000"><set attributeName="x" to="58" begin="0; animate21.end + 1s" /><animate attributeName="x" from="58" to="106" dur="0.178" begin="animate5.end" id="animate6" fill="freeze"/></rect><rect x="153" y="29" width="18" height="43" id="rect-7" fill="transparent" stroke="#000000"><set attributeName="y" to="-14" begin="0; animate21.end + 1s" /><animate attributeName="y" from="-14" to="29" dur="0.159" begin="animate6.end + 0.5" id="animate7" fill="freeze"/></rect><rect x="98" y="76" width="56" height="20" id="rect-8" fill="transparent" stroke="#000000"><set attributeName="x" to="42" begin="0; animate21.end + 1s" /><animate attributeName="x" from="42" to="98" dur="0.207" begin="animate7.end + 0.5" id="animate8" fill="freeze"/></rect><rect x="96" y="96" width="57" height="19" id="rect-9" fill="transparent" stroke="#000000"><set attributeName="x" to="39" begin="0; animate21.end + 1s" /><animate attributeName="x" from="39" to="96" dur="0.211" begin="animate8.end + 0.5" id="animate9" fill="freeze"/></rect><rect x="98" y="120" width="53" height="18" id="rect-10" fill="transparent" stroke="#000000"><set attributeName="x" to="45" begin="0; animate21.end + 1s" /><animate attributeName="x" from="45" to="98" dur="0.196" begin="animate9.end + 0.5" id="animate10" fill="freeze"/></rect><rect x="120" y="110" width="14" height="41" id="rect-11" fill="transparent" stroke="#000000"><set attributeName="y" to="69" begin="0; animate21.end + 1s" /><animate attributeName="y" from="69" to="110" dur="0.152" begin="animate10.end + 0.5" id="animate11" fill="freeze"/></rect><rect x="88" y="142" width="70" height="29" id="rect-12" fill="transparent" stroke="#000000"><set attributeName="x" to="18" begin="0; animate21.end + 1s" /><animate attributeName="x" from="18" to="88" dur="0.259" begin="animate11.end + 0.5" id="animate12" fill="freeze"/></rect><rect x="165" y="26" width="40" height="72" id="rect-13" fill="transparent" stroke="#000000"><set attributeName="y" to="-46" begin="0; animate21.end + 1s" /><animate attributeName="y" from="-46" to="26" dur="0.267" begin="animate12.end + 0.5" id="animate13" fill="freeze"/></rect><rect x="178" y="68" width="60" height="21" id="rect-14" fill="transparent" stroke="#000000"><set attributeName="x" to="118" begin="0; animate21.end + 1s" /><animate attributeName="x" from="118" to="178" dur="0.222" begin="animate13.end + 0.5" id="animate14" fill="freeze"/></rect><rect x="154" y="86" width="59" height="77" id="rect-15" fill="transparent" stroke="#000000"><set attributeName="y" to="9" begin="0; animate21.end + 1s" /><animate attributeName="y" from="9" to="86" dur="0.285" begin="animate14.end + 0.5" id="animate15" fill="freeze"/></rect><rect x="167" y="106" width="85" height="60" id="rect-16" fill="transparent" stroke="#000000"><set attributeName="x" to="82" begin="0; animate21.end + 1s" /><animate attributeName="x" from="82" to="167" dur="0.315" begin="animate15.end + 0.5" id="animate16" fill="freeze"/></rect><rect x="42" y="190" width="30" height="52" id="rect-17" fill="transparent" stroke="#000000"><set attributeName="y" to="138" begin="0; animate21.end + 1s" /><animate attributeName="y" from="138" to="190" dur="0.193" begin="animate16.end + 0.5" id="animate17" fill="freeze"/></rect><rect x="89" y="187" width="133" height="63" id="rect-18" fill="transparent" stroke="#000000"><set attributeName="x" to="-44" begin="0; animate21.end + 1s" /><animate attributeName="x" from="-44" to="89" dur="0.493" begin="animate17.end + 0.5" id="animate18" fill="freeze"/></rect><rect x="176" y="192" width="35" height="35" id="rect-19" fill="transparent" stroke="#000000"><set attributeName="y" to="227" begin="0; animate21.end + 1s" /><animate attributeName="y" from="227" to="192" dur="0.130" begin="animate18.end" id="animate19" fill="freeze"/></rect><rect x="126" y="177" width="34" height="27" id="rect-20" fill="transparent" stroke="#000000"><set attributeName="x" to="92" begin="0; animate21.end + 1s" /><animate attributeName="x" from="92" to="126" dur="0.126" begin="animate19.end + 0.5" id="animate20" fill="freeze"/></rect><rect x="189" y="172" width="51" height="36" id="rect-21" fill="transparent" stroke="#000000"><set attributeName="x" to="138" begin="0; animate21.end + 1s" /><animate attributeName="x" from="138" to="189" dur="0.189" begin="animate20.end + 0.5" id="animate21" fill="freeze"/></rect></svg>