<svg xmlns="http://www.w3.org/2000/svg" xmlns:xlink="http://www.w3.org/1999/xlink" width="270" height="270"><defs><clipPath id="clip-mask-1"><use xlink:href="#rect-1" /></clipPath><clipPath id="clip-mask-2"><use xlink:href="#rect-2" /></clipPath><clipPath id="clip-mask-3"><use xlink:href="#rect-3" /></clipPath><clipPath id="clip-mask-4"><use xlink:href="#rect-4" /></clipPath><clipPath id="clip-mask-5"><use xlink:href="#rect-5" /></clipPath><clipPath id="clip-mask-6"><use xlink:href="#rect-6" /></clipPath><clipPath id="clip-mask-7"><use xlink:href="#rect-7" /></clipPath><clipPath id="clip-mask-8"><use xlink:href="#rect-8" /></clipPath><clipPath id="clip-mask-9"><use xlink:href="#rect-9" /></clipPath></defs><path d="M 0 0 L 270 270 M 270 0 L 0 270 M 135 0 L 135 270 M 0 135 L 270 135" stroke="#CCCCCC" /><path d="M 78 108 Q 73 109 68 111 Q 53 116 39 110 Q 32 106 42 103 Q 51 102 78 95 L 92 90 Q 102 85 111 86 Q 119 87 121 90 Q 123 92 120 95 Q 119 96 109 99 Q 100 102 92 104" fill="#CCCCCC"/><path d="M 78 125 L 78 108 L 78 95 Q 78 57 78 53 Q 78 44 72 36 Q 68 30 72 29 Q 78 27 87 32 Q 102 38 97 46 Q 95 52 92 90 L 92 104 Q 91 123 91 142 L 91 150 Q 92 178 94 205 Q 94 225 89 237 Q 85 247 82 246 Q 77 246 73 237 L 74 213 Q 77 210 77 204 Q 77 180 78 160 L 78 149" fill="#CCCCCC"/><path d="M 73 237 Q 69 229 52 215 Q 47 211 47 210 Q 46 207 55 210 Q 72 213 74 213" fill="#CCCCCC"/><path d="M 91 142 Q 105 133 110 132 Q 112 132 111 136 Q 108 139 103 143 Q 97 146 91 150 L 78 160 Q 55 177 40 191 Q 37 194 33 193 Q 27 191 22 186 Q 19 183 19 180 Q 20 176 24 176 Q 25 176 78 149" fill="#CCCCCC"/><path d="M 152 114 Q 147 116 142 117 Q 128 123 116 118 Q 109 115 118 112 Q 135 108 150 102 L 161 97 Q 171 93 179 88 Q 187 84 195 84 Q 203 85 205 88 Q 207 90 205 92 Q 204 94 192 99 Q 177 104 163 110" fill="#CCCCCC"/><path d="M 159 144 L 152 114 L 150 102 Q 145 79 143 54 Q 142 41 135 29 Q 132 21 138 21 Q 143 20 153 27 Q 165 34 162 41 Q 155 62 161 97 L 163 110 Q 167 131 176 152 L 182 166 Q 185 173 191 181 Q 211 210 225 214 L 249 232 Q 250 242 245 245 Q 238 249 217 235 Q 187 211 172 175 L 166 161" fill="#CCCCCC"/><path d="M 225 214 Q 232 216 243 187 Q 245 181 246 182 Q 247 183 247 189 Q 247 222 249 232" fill="#CCCCCC"/><path d="M 176 152 Q 192 132 194 118 Q 195 113 199 113 Q 202 113 207 118 Q 213 125 214 129 Q 215 132 212 134 Q 207 138 202 144 Q 191 157 182 166 L 172 175 Q 161 183 148 188 Q 132 194 116 196 Q 113 196 111 195 Q 109 193 112 192 Q 150 176 166 161" fill="#CCCCCC"/><path d="M 178 50 L 177 47 Q 176 44 177 43 Q 179 42 183 42 Q 208 44 213 52 Q 216 60 216 64 Q 214 68 212 69 Q 207 70 203 66 Q 194 60 187 55" fill="#CCCCCC"/><path d="M 78 108 Q 73 109 68 111 Q 53 116 39 110 Q 32 106 42 103 Q 51 102 78 95 L 92 90 Q 102 85 111 86 Q 119 87 121 90 Q 123 92 120 95 Q 119 96 109 99 Q 100 102 92 104" fill="#0000ff" clip-path="url(#clip-mask-1)" /><path d="M 78 125 L 78 108 L 78 95 Q 78 57 78 53 Q 78 44 72 36 Q 68 30 72 29 Q 78 27 87 32 Q 102 38 97 46 Q 95 52 92 90 L 92 104 Q 91 123 91 142 L 91 150 Q 92 178 94 205 Q 94 225 89 237 Q 85 247 82 246 Q 77 246 73 237 L 74 213 Q 77 210 77 204 Q 77 180 78 160 L 78 149" fill="#0000ff" clip-path="url(#clip-mask-2)" /><path d="M 73 237 Q 69 229 52 215 Q 47 211 47 210 Q 46 207 55 210 Q 72 213 74 213" fill="#0000ff" clip-path="url(#clip-mask-3)" /><path d="M 91 142 Q 105 133 110 132 Q 112 132 111 136 Q 108 139 103 143 Q 97 146 91 150 L 78 160 Q 55 177 40 191 Q 37 194 33 193 Q 27 191 22 186 Q 19 183 19 180 Q 20 176 24 176 Q 25 176 78 149" fill="#0000ff" clip-path="url(#clip-mask-4)" /><path d="M 152 114 Q 147 116 142 117 Q 128 123 116 118 Q 109 115 118 112 Q 135 108 150 102 L 161 97 Q 171 93 179 88 Q 187 84 195 84 Q 203 85 205 88 Q 207 90 205 92 Q 204 94 192 99 Q 177 104 163 110" fill="#000080" clip-path="url(#clip-mask-5)" /><path d="M 159 144 L 152 114 L 150 102 Q 145 79 143 54 Q 142 41 135 29 Q 132 21 138 21 Q 143 20 153 27 Q 165 34 162 41 Q 155 62 161 97 L 163 110 Q 167 131 176 152 L 182 166 Q 185 173 191 181 Q 211 210 225 214 L 249 232 Q 250 242 245 245 Q 238 249 217 235 Q 187 211 172 175 L 166 161" fill="#000080" clip-path="url(#clip-mask-6)" /><path d="M 225 214 Q 232 216 243 187 Q 245 181 246 182 Q 247 183 247 189 Q 247 222 249 232" fill="#000080" clip-path="url(#clip-mask-7)" /><path d="M 176 152 Q 192 132 194 118 Q 195 113 199 113 Q 202 113 207 118 Q 213 125 214 129 Q 215 132 212 134 Q 207 138 202 144 Q 191 157 182 166 L 172 175 Q 161 183 148 188 Q 132 194 116 196 Q 113 196 111 195 Q 109 193 112 192 Q 150 176 166 161" fill="#000080" clip-path="url(#clip-mask-8)" /><path d="M 178 50 L 177 47 Q 176 44 177 43 Q 179 42 183 42 Q 208 44 213 52 Q 216 60 216 64 Q 214 68 212 69 Q 207 70 203 66 Q 194 60 187 55" fill="#000080" clip-path="url(#clip-mask-9)" /><rect x="32" y="85" width="91" height="31" id="rect-1" fill="transparent" stroke="#000000"><animate attributeName="x" from="-59" to="32" dur="0.337" begin="0; animate9.end + 1s" id="animate1" fill="freeze"/></rect><rect x="68" y="27" width="34" height="220" id="rect-2" fill="transparent" stroke="#000000"><set attributeName="y" to="-193" begin="0; animate9.end + 1s" /><animate attributeName="y" from="-193" to="27" dur="0.815" begin="animate1.end + 0.5" id="animate2" fill="freeze"/></rect><rect x="46" y="207" width="28" height="30" id="rect-3" fill="transparent" stroke="#000000"><set attributeName="x" to="74" begin="0; animate9.end + 1s" /><animate attributeName="x" from="74" to="46" dur="0.104" begin="animate2.end" id="animate3" fill="freeze"/></rect><rect x="19" y="132" width="93" height="62" id="rect-4" fill="transparent" stroke="#000000"><set attributeName="x" to="-74" begin="0; animate9.end + 1s" /><animate attributeName="x" from="-74" to="19" dur="0.344" begin="animate3.end + 0.5" id="animate4" fill="freeze"/></rect><rect x="109" y="84" width="98" height="39" id="rect-5" fill="transparent" stroke="#000000"><set attributeName="x" to="11" begin="0; animate9.end + 1s" /><animate attributeName="x" from="11" to="109" dur="0.363" begin="animate4.end + 0.5" id="animate5" fill="freeze"/></rect><rect x="132" y="20" width="118" height="229" id="rect-6" fill="transparent" stroke="#000000"><set attributeName="y" to="-209" begin="0; animate9.end + 1s" /><animate attributeName="y" from="-209" to="20" dur="0.848" begin="animate5.end + 0.5" id="animate6" fill="freeze"/></rect><rect x="225" y="181" width="24" height="51" id="rect-7" fill="transparent" stroke="#000000"><set attributeName="y" to="232" begin="0; animate9.end + 1s" /><animate attributeName="y" from="232" to="181" dur="0.189" begin="animate6.end" id="animate7" fill="freeze"/></rect><rect x="109" y="113" width="106" height="83" id="rect-8" fill="transparent" stroke="#000000"><set attributeName="y" to="30" begin="0; animate9.end + 1s" /><animate attributeName="y" from="30" to="113" dur="0.307" begin="animate7.end + 0.5" id="animate8" fill="freeze"/></rect><rect x="176" y="42" width="40" height="28" id="rect-9" fill="transparent" stroke="#000000"><set attributeName="x" to="136" begin="0; animate9.end + 1s" /><animate attributeName="x" from="136" to="176" dur="0.148" begin="animate8.end + 0.5" id="animate9" fill="freeze"/></rect></svg>