<svg xmlns="http://www.w3.org/2000/svg" xmlns:xlink="http://www.w3.org/1999/xlink" width="270" height="270"><defs><clipPath id="clip-mask-1"><use xlink:href="#rect-1" /></clipPath><clipPath id="clip-mask-2"><use xlink:href="#rect-2" /></clipPath><clipPath id="clip-mask-3"><use xlink:href="#rect-3" /></clipPath><clipPath id="clip-mask-4"><use xlink:href="#rect-4" /></clipPath><clipPath id="clip-mask-5"><use xlink:href="#rect-5" /></clipPath><clipPath id="clip-mask-6"><use xlink:href="#rect-6" /></clipPath><clipPath id="clip-mask-7"><use xlink:href="#rect-7" /></clipPath><clipPath id="clip-mask-8"><use xlink:href="#rect-8" /></clipPath><clipPath id="clip-mask-9"><use xlink:href="#rect-9" /></clipPath><clipPath id="clip-mask-10"><use xlink:href="#rect-10" /></clipPath><clipPath id="clip-mask-11"><use xlink:href="#rect-11" /></clipPath></defs><path d="M 0 0 L 270 270 M 270 0 L 0 270 M 135 0 L 135 270 M 0 135 L 270 135" stroke="#CCCCCC" /><path d="M 77 98 Q 72 99 69 100 Q 46 106 35 101 Q 27 96 38 93 Q 50 91 77 84 L 91 79 Q 98 75 107 76 Q 115 78 118 81 Q 119 83 117 86 Q 116 86 90 95" fill="#CCCCCC"/><path d="M 77 117 L 77 98 L 77 84 Q 77 43 77 38 Q 76 29 71 22 Q 66 16 71 14 Q 77 12 85 17 Q 100 23 96 31 Q 93 41 91 79 L 90 95 Q 90 115 90 136 L 90 144 Q 91 172 93 200 Q 92 220 87 232 Q 83 241 79 241 Q 75 240 71 232 L 72 207 Q 75 204 76 198 Q 76 174 76 153 L 76 143" fill="#CCCCCC"/><path d="M 71 232 Q 68 224 55 210 Q 50 205 50 203 Q 50 200 58 205 Q 71 207 72 207" fill="#CCCCCC"/><path d="M 90 136 Q 105 127 108 127 Q 111 127 109 131 Q 109 131 90 144 L 76 153 Q 58 165 37 183 Q 31 188 28 187 Q 22 184 17 180 Q 13 176 14 174 Q 14 172 18 171 Q 24 169 33 164 Q 53 154 76 143" fill="#CCCCCC"/><path d="M 196 60 Q 198 56 194 54 Q 191 52 187 53 Q 155 64 148 66 Q 139 71 131 67 Q 125 63 124 60 Q 121 54 128 55 Q 144 55 151 54 Q 177 47 194 41 Q 200 38 205 41 Q 223 51 224 55 Q 226 60 221 62" fill="#CCCCCC"/><path d="M 187 74 L 196 60 L 221 62 Q 210 65 182 92 L 177 89" fill="#CCCCCC"/><path d="M 182 92 Q 183 93 184 95 Q 186 103 185 107 Q 184 110 181 110 Q 177 111 173 108 Q 167 102 162 97 Q 154 91 153 89 Q 153 85 154 84 Q 156 83 160 84 Q 174 86 177 89" fill="#CCCCCC"/><path d="M 151 131 L 139 134 Q 126 138 122 133 Q 117 127 124 126 Q 156 121 178 116 Q 198 111 222 105 Q 229 103 235 105 Q 255 116 255 119 L 224 120 Q 223 116 214 117 Q 195 121 177 125 L 164 128" fill="#CCCCCC"/><path d="M 255 119 Q 256 123 249 124 Q 241 128 220 144 Q 217 147 215 146 Q 213 145 215 141 Q 224 124 224 120" fill="#CCCCCC"/><path d="M 177 125 Q 184 129 186 132 Q 188 135 186 143 Q 185 177 187 204 Q 190 237 179 252 Q 175 257 171 254 L 167 226 Q 172 219 168 149 Q 168 149 168 148 Q 168 142 164 128" fill="#CCCCCC"/><path d="M 171 254 Q 159 242 139 228 Q 136 225 136 223 Q 135 221 139 222 Q 148 224 156 226 Q 164 228 167 226" fill="#CCCCCC"/><path d="M 77 98 Q 72 99 69 100 Q 46 106 35 101 Q 27 96 38 93 Q 50 91 77 84 L 91 79 Q 98 75 107 76 Q 115 78 118 81 Q 119 83 117 86 Q 116 86 90 95" fill="#0000ff" clip-path="url(#clip-mask-1)" /><path d="M 77 117 L 77 98 L 77 84 Q 77 43 77 38 Q 76 29 71 22 Q 66 16 71 14 Q 77 12 85 17 Q 100 23 96 31 Q 93 41 91 79 L 90 95 Q 90 115 90 136 L 90 144 Q 91 172 93 200 Q 92 220 87 232 Q 83 241 79 241 Q 75 240 71 232 L 72 207 Q 75 204 76 198 Q 76 174 76 153 L 76 143" fill="#0000ff" clip-path="url(#clip-mask-2)" /><path d="M 71 232 Q 68 224 55 210 Q 50 205 50 203 Q 50 200 58 205 Q 71 207 72 207" fill="#0000ff" clip-path="url(#clip-mask-3)" /><path d="M 90 136 Q 105 127 108 127 Q 111 127 109 131 Q 109 131 90 144 L 76 153 Q 58 165 37 183 Q 31 188 28 187 Q 22 184 17 180 Q 13 176 14 174 Q 14 172 18 171 Q 24 169 33 164 Q 53 154 76 143" fill="#0000ff" clip-path="url(#clip-mask-4)" /><path d="M 196 60 Q 198 56 194 54 Q 191 52 187 53 Q 155 64 148 66 Q 139 71 131 67 Q 125 63 124 60 Q 121 54 128 55 Q 144 55 151 54 Q 177 47 194 41 Q 200 38 205 41 Q 223 51 224 55 Q 226 60 221 62" fill="#000080" clip-path="url(#clip-mask-5)" /><path d="M 187 74 L 196 60 L 221 62 Q 210 65 182 92 L 177 89" fill="#000080" clip-path="url(#clip-mask-6)" /><path d="M 182 92 Q 183 93 184 95 Q 186 103 185 107 Q 184 110 181 110 Q 177 111 173 108 Q 167 102 162 97 Q 154 91 153 89 Q 153 85 154 84 Q 156 83 160 84 Q 174 86 177 89" fill="#000080" clip-path="url(#clip-mask-7)" /><path d="M 151 131 L 139 134 Q 126 138 122 133 Q 117 127 124 126 Q 156 121 178 116 Q 198 111 222 105 Q 229 103 235 105 Q 255 116 255 119 L 224 120 Q 223 116 214 117 Q 195 121 177 125 L 164 128" fill="#000080" clip-path="url(#clip-mask-8)" /><path d="M 255 119 Q 256 123 249 124 Q 241 128 220 144 Q 217 147 215 146 Q 213 145 215 141 Q 224 124 224 120" fill="#000080" clip-path="url(#clip-mask-9)" /><path d="M 177 125 Q 184 129 186 132 Q 188 135 186 143 Q 185 177 187 204 Q 190 237 179 252 Q 175 257 171 254 L 167 226 Q 172 219 168 149 Q 168 149 168 148 Q 168 142 164 128" fill="#000080" clip-path="url(#clip-mask-10)" /><path d="M 171 254 Q 159 242 139 228 Q 136 225 136 223 Q 135 221 139 222 Q 148 224 156 226 Q 164 228 167 226" fill="#000080" clip-path="url(#clip-mask-11)" /><rect x="27" y="75" width="92" height="31" id="rect-1" fill="transparent" stroke="#000000"><animate attributeName="x" from="-65" to="27" dur="0.341" begin="0; animate11.end + 1s" id="animate1" fill="freeze"/></rect><rect x="66" y="12" width="34" height="229" id="rect-2" fill="transparent" stroke="#000000"><set attributeName="y" to="-217" begin="0; animate11.end + 1s" /><animate attributeName="y" from="-217" to="12" dur="0.848" begin="animate1.end + 0.5" id="animate2" fill="freeze"/></rect><rect x="50" y="200" width="22" height="32" id="rect-3" fill="transparent" stroke="#000000"><set attributeName="x" to="72" begin="0; animate11.end + 1s" /><animate attributeName="x" from="72" to="50" dur="0.081" begin="animate2.end" id="animate3" fill="freeze"/></rect><rect x="13" y="127" width="98" height="61" id="rect-4" fill="transparent" stroke="#000000"><set attributeName="x" to="-85" begin="0; animate11.end + 1s" /><animate attributeName="x" from="-85" to="13" dur="0.363" begin="animate3.end + 0.5" id="animate4" fill="freeze"/></rect><rect x="121" y="38" width="105" height="33" id="rect-5" fill="transparent" stroke="#000000"><set attributeName="x" to="16" begin="0; animate11.end + 1s" /><animate attributeName="x" from="16" to="121" dur="0.389" begin="animate4.end + 0.5" id="animate5" fill="freeze"/></rect><rect x="177" y="60" width="44" height="32" id="rect-6" fill="transparent" stroke="#000000"><set attributeName="y" to="28" begin="0; animate11.end + 1s" /><animate attributeName="y" from="28" to="60" dur="0.119" begin="animate5.end" id="animate6" fill="freeze"/></rect><rect x="153" y="83" width="33" height="28" id="rect-7" fill="transparent" stroke="#000000"><set attributeName="y" to="55" begin="0; animate11.end + 1s" /><animate attributeName="y" from="55" to="83" dur="0.104" begin="animate6.end + 0.5" id="animate7" fill="freeze"/></rect><rect x="117" y="103" width="138" height="35" id="rect-8" fill="transparent" stroke="#000000"><set attributeName="x" to="-21" begin="0; animate11.end + 1s" /><animate attributeName="x" from="-21" to="117" dur="0.511" begin="animate7.end + 0.5" id="animate8" fill="freeze"/></rect><rect x="213" y="119" width="43" height="28" id="rect-9" fill="transparent" stroke="#000000"><set attributeName="y" to="91" begin="0; animate11.end + 1s" /><animate attributeName="y" from="91" to="119" dur="0.104" begin="animate8.end" id="animate9" fill="freeze"/></rect><rect x="164" y="125" width="26" height="132" id="rect-10" fill="transparent" stroke="#000000"><set attributeName="y" to="-7" begin="0; animate11.end + 1s" /><animate attributeName="y" from="-7" to="125" dur="0.489" begin="animate9.end + 0.5" id="animate10" fill="freeze"/></rect><rect x="135" y="221" width="36" height="33" id="rect-11" fill="transparent" stroke="#000000"><set attributeName="x" to="171" begin="0; animate11.end + 1s" /><animate attributeName="x" from="171" to="135" dur="0.133" begin="animate10.end" id="animate11" fill="freeze"/></rect></svg>