<svg xmlns="http://www.w3.org/2000/svg" xmlns:xlink="http://www.w3.org/1999/xlink" width="270" height="270"><defs><clipPath id="clip-mask-1"><use xlink:href="#rect-1" /></clipPath><clipPath id="clip-mask-2"><use xlink:href="#rect-2" /></clipPath><clipPath id="clip-mask-3"><use xlink:href="#rect-3" /></clipPath><clipPath id="clip-mask-4"><use xlink:href="#rect-4" /></clipPath><clipPath id="clip-mask-5"><use xlink:href="#rect-5" /></clipPath><clipPath id="clip-mask-6"><use xlink:href="#rect-6" /></clipPath><clipPath id="clip-mask-7"><use xlink:href="#rect-7" /></clipPath><clipPath id="clip-mask-8"><use xlink:href="#rect-8" /></clipPath><clipPath id="clip-mask-9"><use xlink:href="#rect-9" /></clipPath><clipPath id="clip-mask-10"><use xlink:href="#rect-10" /></clipPath><clipPath id="clip-mask-11"><use xlink:href="#rect-11" /></clipPath><clipPath id="clip-mask-12"><use xlink:href="#rect-12" /></clipPath></defs><path d="M 0 0 L 270 270 M 270 0 L 0 270 M 135 0 L 135 270 M 0 135 L 270 135" stroke="#CCCCCC" /><path d="M 69 105 Q 64 106 62 107 Q 48 112 36 107 Q 28 104 37 101 Q 48 99 69 91 L 82 85 Q 88 82 95 82 Q 103 83 105 86 Q 106 88 105 91 Q 104 92 96 95 Q 88 98 81 100" fill="#CCCCCC"/><path d="M 68 121 L 69 105 L 69 91 Q 70 51 69 46 Q 69 37 64 30 Q 60 24 64 22 Q 69 21 78 26 Q 92 32 88 40 Q 84 52 82 85 L 81 100 Q 80 118 80 136 L 80 145 Q 80 175 82 206 Q 82 225 76 236 Q 72 245 68 245 Q 65 244 61 236 L 62 212 Q 65 210 66 203 Q 66 176 67 155 L 67 143" fill="#CCCCCC"/><path d="M 61 236 Q 58 228 45 215 Q 40 210 40 209 Q 40 206 48 210 Q 61 212 62 212" fill="#CCCCCC"/><path d="M 80 136 Q 98 126 101 126 Q 104 126 102 129 Q 99 132 94 135 Q 87 140 80 145 L 67 155 Q 56 161 38 178 Q 28 185 26 184 Q 20 182 16 178 Q 12 174 12 172 Q 13 170 16 168 Q 22 167 31 162 Q 48 153 67 143" fill="#CCCCCC"/><path d="M 139 55 Q 152 53 163 49 Q 173 46 183 42 Q 191 38 199 39 Q 207 40 209 43 Q 210 45 208 47 Q 206 49 166 61 Q 151 65 140 64" fill="#CCCCCC"/><path d="M 131 133 Q 127 149 121 164 Q 119 169 117 174 Q 99 206 90 208 Q 88 208 88 206 Q 89 204 90 202 Q 106 176 115 149 Q 124 117 124 81 Q 124 78 124 75 Q 124 59 120 53 Q 118 50 121 48 Q 124 47 129 49 Q 135 52 139 55 L 140 64 Q 139 68 138 92 L 138 96 L 137 96 Q 136 112 133 127" fill="#CCCCCC"/><path d="M 138 92 Q 138 91 139 91 Q 151 88 167 83 Q 184 76 190 77 Q 198 78 199 81 Q 200 83 199 85 Q 198 86 191 88 Q 176 93 161 97 Q 148 101 138 96" fill="#CCCCCC"/><path d="M 135 135 Q 133 134 131 133 L 133 127 Q 159 120 188 111 Q 200 107 207 107 Q 215 108 219 113 Q 221 116 214 118 Q 186 124 149 133" fill="#CCCCCC"/><path d="M 154 146 Q 151 159 149 206 Q 149 210 151 211 L 144 243 Q 140 248 137 246 Q 132 243 129 234 Q 127 227 131 221 Q 134 217 136 208 Q 139 195 139 154 Q 140 145 135 135 L 149 133 Q 153 136 154 140" fill="#CCCCCC"/><path d="M 151 211 Q 153 213 158 209 Q 170 202 181 196 Q 187 192 187 196 Q 186 199 181 203 Q 152 232 144 243" fill="#CCCCCC"/><path d="M 201 139 L 201 134 Q 201 129 205 129 Q 210 130 214 135 Q 219 139 220 143 Q 221 146 217 147 Q 207 152 188 163 L 184 160" fill="#CCCCCC"/><path d="M 188 163 Q 190 164 192 166 Q 214 183 254 195 Q 257 195 256 197 Q 255 199 252 200 Q 232 207 221 207 Q 213 206 165 155 Q 160 149 154 146 L 154 140 Q 156 140 157 140 Q 161 140 164 143 Q 175 152 184 160" fill="#CCCCCC"/><path d="M 69 105 Q 64 106 62 107 Q 48 112 36 107 Q 28 104 37 101 Q 48 99 69 91 L 82 85 Q 88 82 95 82 Q 103 83 105 86 Q 106 88 105 91 Q 104 92 96 95 Q 88 98 81 100" fill="#0000ff" clip-path="url(#clip-mask-1)" /><path d="M 68 121 L 69 105 L 69 91 Q 70 51 69 46 Q 69 37 64 30 Q 60 24 64 22 Q 69 21 78 26 Q 92 32 88 40 Q 84 52 82 85 L 81 100 Q 80 118 80 136 L 80 145 Q 80 175 82 206 Q 82 225 76 236 Q 72 245 68 245 Q 65 244 61 236 L 62 212 Q 65 210 66 203 Q 66 176 67 155 L 67 143" fill="#0000ff" clip-path="url(#clip-mask-2)" /><path d="M 61 236 Q 58 228 45 215 Q 40 210 40 209 Q 40 206 48 210 Q 61 212 62 212" fill="#0000ff" clip-path="url(#clip-mask-3)" /><path d="M 80 136 Q 98 126 101 126 Q 104 126 102 129 Q 99 132 94 135 Q 87 140 80 145 L 67 155 Q 56 161 38 178 Q 28 185 26 184 Q 20 182 16 178 Q 12 174 12 172 Q 13 170 16 168 Q 22 167 31 162 Q 48 153 67 143" fill="#0000ff" clip-path="url(#clip-mask-4)" /><path d="M 139 55 Q 152 53 163 49 Q 173 46 183 42 Q 191 38 199 39 Q 207 40 209 43 Q 210 45 208 47 Q 206 49 166 61 Q 151 65 140 64" fill="#000080" clip-path="url(#clip-mask-5)" /><path d="M 131 133 Q 127 149 121 164 Q 119 169 117 174 Q 99 206 90 208 Q 88 208 88 206 Q 89 204 90 202 Q 106 176 115 149 Q 124 117 124 81 Q 124 78 124 75 Q 124 59 120 53 Q 118 50 121 48 Q 124 47 129 49 Q 135 52 139 55 L 140 64 Q 139 68 138 92 L 138 96 L 137 96 Q 136 112 133 127" fill="#000080" clip-path="url(#clip-mask-6)" /><path d="M 138 92 Q 138 91 139 91 Q 151 88 167 83 Q 184 76 190 77 Q 198 78 199 81 Q 200 83 199 85 Q 198 86 191 88 Q 176 93 161 97 Q 148 101 138 96" fill="#000080" clip-path="url(#clip-mask-7)" /><path d="M 135 135 Q 133 134 131 133 L 133 127 Q 159 120 188 111 Q 200 107 207 107 Q 215 108 219 113 Q 221 116 214 118 Q 186 124 149 133" fill="#000080" clip-path="url(#clip-mask-8)" /><path d="M 154 146 Q 151 159 149 206 Q 149 210 151 211 L 144 243 Q 140 248 137 246 Q 132 243 129 234 Q 127 227 131 221 Q 134 217 136 208 Q 139 195 139 154 Q 140 145 135 135 L 149 133 Q 153 136 154 140" fill="#000080" clip-path="url(#clip-mask-9)" /><path d="M 151 211 Q 153 213 158 209 Q 170 202 181 196 Q 187 192 187 196 Q 186 199 181 203 Q 152 232 144 243" fill="#000080" clip-path="url(#clip-mask-10)" /><path d="M 201 139 L 201 134 Q 201 129 205 129 Q 210 130 214 135 Q 219 139 220 143 Q 221 146 217 147 Q 207 152 188 163 L 184 160" fill="#000080" clip-path="url(#clip-mask-11)" /><path d="M 188 163 Q 190 164 192 166 Q 214 183 254 195 Q 257 195 256 197 Q 255 199 252 200 Q 232 207 221 207 Q 213 206 165 155 Q 160 149 154 146 L 154 140 Q 156 140 157 140 Q 161 140 164 143 Q 175 152 184 160" fill="#000080" clip-path="url(#clip-mask-12)" /><rect x="28" y="82" width="78" height="30" id="rect-1" fill="transparent" stroke="#000000"><animate attributeName="x" from="-50" to="28" dur="0.289" begin="0; animate12.end + 1s" id="animate1" fill="freeze"/></rect><rect x="60" y="21" width="32" height="224" id="rect-2" fill="transparent" stroke="#000000"><set attributeName="y" to="-203" begin="0; animate12.end + 1s" /><animate attributeName="y" from="-203" to="21" dur="0.830" begin="animate1.end + 0.5" id="animate2" fill="freeze"/></rect><rect x="40" y="206" width="22" height="30" id="rect-3" fill="transparent" stroke="#000000"><set attributeName="x" to="62" begin="0; animate12.end + 1s" /><animate attributeName="x" from="62" to="40" dur="0.081" begin="animate2.end" id="animate3" fill="freeze"/></rect><rect x="12" y="126" width="92" height="59" id="rect-4" fill="transparent" stroke="#000000"><set attributeName="x" to="-80" begin="0; animate12.end + 1s" /><animate attributeName="x" from="-80" to="12" dur="0.341" begin="animate3.end + 0.5" id="animate4" fill="freeze"/></rect><rect x="139" y="38" width="71" height="27" id="rect-5" fill="transparent" stroke="#000000"><set attributeName="x" to="68" begin="0; animate12.end + 1s" /><animate attributeName="x" from="68" to="139" dur="0.263" begin="animate4.end + 0.5" id="animate5" fill="freeze"/></rect><rect x="88" y="47" width="52" height="161" id="rect-6" fill="transparent" stroke="#000000"><set attributeName="y" to="-114" begin="0; animate12.end + 1s" /><animate attributeName="y" from="-114" to="47" dur="0.596" begin="animate5.end + 0.5" id="animate6" fill="freeze"/></rect><rect x="138" y="76" width="62" height="25" id="rect-7" fill="transparent" stroke="#000000"><set attributeName="x" to="76" begin="0; animate12.end + 1s" /><animate attributeName="x" from="76" to="138" dur="0.230" begin="animate6.end + 0.5" id="animate7" fill="freeze"/></rect><rect x="131" y="107" width="90" height="28" id="rect-8" fill="transparent" stroke="#000000"><set attributeName="x" to="41" begin="0; animate12.end + 1s" /><animate attributeName="x" from="41" to="131" dur="0.333" begin="animate7.end + 0.5" id="animate8" fill="freeze"/></rect><rect x="127" y="133" width="27" height="115" id="rect-9" fill="transparent" stroke="#000000"><set attributeName="y" to="18" begin="0; animate12.end + 1s" /><animate attributeName="y" from="18" to="133" dur="0.426" begin="animate8.end + 0.5" id="animate9" fill="freeze"/></rect><rect x="144" y="192" width="43" height="51" id="rect-10" fill="transparent" stroke="#000000"><set attributeName="x" to="101" begin="0; animate12.end + 1s" /><animate attributeName="x" from="101" to="144" dur="0.159" begin="animate9.end" id="animate10" fill="freeze"/></rect><rect x="184" y="129" width="37" height="34" id="rect-11" fill="transparent" stroke="#000000"><set attributeName="y" to="95" begin="0; animate12.end + 1s" /><animate attributeName="y" from="95" to="129" dur="0.126" begin="animate10.end + 0.5" id="animate11" fill="freeze"/></rect><rect x="154" y="140" width="103" height="67" id="rect-12" fill="transparent" stroke="#000000"><set attributeName="x" to="51" begin="0; animate12.end + 1s" /><animate attributeName="x" from="51" to="154" dur="0.381" begin="animate11.end + 0.5" id="animate12" fill="freeze"/></rect></svg>