<svg xmlns="http://www.w3.org/2000/svg" xmlns:xlink="http://www.w3.org/1999/xlink" width="270" height="270"><defs><clipPath id="clip-mask-1"><use xlink:href="#rect-1" /></clipPath><clipPath id="clip-mask-2"><use xlink:href="#rect-2" /></clipPath><clipPath id="clip-mask-3"><use xlink:href="#rect-3" /></clipPath><clipPath id="clip-mask-4"><use xlink:href="#rect-4" /></clipPath><clipPath id="clip-mask-5"><use xlink:href="#rect-5" /></clipPath><clipPath id="clip-mask-6"><use xlink:href="#rect-6" /></clipPath><clipPath id="clip-mask-7"><use xlink:href="#rect-7" /></clipPath><clipPath id="clip-mask-8"><use xlink:href="#rect-8" /></clipPath><clipPath id="clip-mask-9"><use xlink:href="#rect-9" /></clipPath><clipPath id="clip-mask-10"><use xlink:href="#rect-10" /></clipPath><clipPath id="clip-mask-11"><use xlink:href="#rect-11" /></clipPath><clipPath id="clip-mask-12"><use xlink:href="#rect-12" /></clipPath><clipPath id="clip-mask-13"><use xlink:href="#rect-13" /></clipPath><clipPath id="clip-mask-14"><use xlink:href="#rect-14" /></clipPath><clipPath id="clip-mask-15"><use xlink:href="#rect-15" /></clipPath></defs><path d="M 0 0 L 270 270 M 270 0 L 0 270 M 135 0 L 135 270 M 0 135 L 270 135" stroke="#CCCCCC" /><path d="M 123 61 Q 122 23 117 16 Q 115 13 117 11 Q 119 9 123 10 Q 129 11 137 16 Q 141 19 141 22 Q 137 34 134 60" fill="#CCCCCC"/><path d="M 78 34 L 78 31 Q 78 28 79 28 Q 80 27 81 28 Q 90 27 100 36 Q 104 39 105 45 Q 105 50 103 52 Q 101 55 97 54 Q 90 51 81 37" fill="#CCCCCC"/><path d="M 171 22 L 171 18 Q 170 14 174 15 Q 177 14 182 18 Q 187 23 189 28 Q 191 32 186 34 Q 180 35 175 38 Q 151 46 150 46 Q 147 46 149 43 Q 164 29 167 26" fill="#CCCCCC"/><path d="M 42 113 L 42 113 Q 39 120 34 114 L 34 114 Q 26 101 31 95 Q 46 74 44 65 Q 44 58 49 61 Q 52 64 55 69 Q 55 70 56 70 L 55 79" fill="#CCCCCC"/><path d="M 56 70 Q 72 69 88 66 Q 107 63 123 61 L 134 60 Q 149 57 212 49 Q 219 48 224 53 Q 242 68 243 70 L 209 65 Q 210 62 206 61 Q 200 59 175 62 Q 104 70 67 81 Q 61 82 55 79" fill="#CCCCCC"/><path d="M 243 70 Q 243 74 232 76 Q 220 79 204 89 Q 199 92 197 91 Q 195 90 198 86 Q 209 65 209 65" fill="#CCCCCC"/><path d="M 105 120 L 105 121 Q 104 124 100 120 Q 97 117 96 113 Q 91 98 86 90 Q 84 86 85 85 Q 86 84 88 84 Q 96 84 99 86 L 102 93 Q 103 99 105 111 L 105 119" fill="#CCCCCC"/><path d="M 149 87 Q 147 85 142 86 Q 108 93 102 93 L 99 86 Q 127 82 146 75 Q 152 74 155 76 Q 167 82 171 85" fill="#CCCCCC"/><path d="M 145 104 Q 148 98 149 91 Q 150 89 149 87 L 171 85 Q 174 90 169 94 Q 163 97 157 107" fill="#CCCCCC"/><path d="M 105 111 Q 122 109 143 104 Q 144 104 145 104 L 157 107 Q 161 110 161 111 Q 161 113 159 114 Q 126 116 111 119 Q 108 119 105 119" fill="#CCCCCC"/><path d="M 118 145 Q 78 147 76 147 Q 74 146 76 144 Q 78 144 80 144 Q 140 132 142 122 Q 143 119 145 119 Q 152 120 164 133 Q 166 136 164 138 Q 163 139 160 139 Q 145 138 128 143" fill="#CCCCCC"/><path d="M 126 170 Q 112 171 98 173 Q 89 174 85 171 Q 81 167 85 167 Q 103 164 124 160 L 138 158 Q 155 153 164 155 Q 170 157 172 160 Q 174 164 168 164 Q 154 165 139 168" fill="#CCCCCC"/><path d="M 89 194 L 50 204 Q 45 205 40 203 Q 36 202 33 198 Q 29 194 34 193 Q 84 189 126 185 Q 126 185 127 185 L 141 184 Q 177 179 201 175 Q 210 173 223 184 Q 227 187 225 190 Q 224 192 219 192 Q 177 190 141 192 L 128 193" fill="#CCCCCC"/><path d="M 127 185 Q 127 177 126 170 L 124 160 Q 122 149 118 145 L 128 143 Q 132 144 135 147 Q 138 149 138 158 L 139 168 Q 140 172 141 184 L 141 192 Q 141 193 141 194 Q 142 207 142 217 Q 142 246 132 255 Q 128 259 126 259 Q 124 260 121 257 L 122 232 Q 124 231 124 230 Q 129 221 128 193" fill="#CCCCCC"/><path d="M 121 257 Q 111 247 95 234 Q 92 232 93 231 Q 93 230 95 230 Q 120 233 122 232" fill="#CCCCCC"/><path d="M 123 61 Q 122 23 117 16 Q 115 13 117 11 Q 119 9 123 10 Q 129 11 137 16 Q 141 19 141 22 Q 137 34 134 60" fill="#000080" clip-path="url(#clip-mask-1)" /><path d="M 78 34 L 78 31 Q 78 28 79 28 Q 80 27 81 28 Q 90 27 100 36 Q 104 39 105 45 Q 105 50 103 52 Q 101 55 97 54 Q 90 51 81 37" fill="#000080" clip-path="url(#clip-mask-2)" /><path d="M 171 22 L 171 18 Q 170 14 174 15 Q 177 14 182 18 Q 187 23 189 28 Q 191 32 186 34 Q 180 35 175 38 Q 151 46 150 46 Q 147 46 149 43 Q 164 29 167 26" fill="#000080" clip-path="url(#clip-mask-3)" /><path d="M 42 113 L 42 113 Q 39 120 34 114 L 34 114 Q 26 101 31 95 Q 46 74 44 65 Q 44 58 49 61 Q 52 64 55 69 Q 55 70 56 70 L 55 79" fill="#000080" clip-path="url(#clip-mask-4)" /><path d="M 56 70 Q 72 69 88 66 Q 107 63 123 61 L 134 60 Q 149 57 212 49 Q 219 48 224 53 Q 242 68 243 70 L 209 65 Q 210 62 206 61 Q 200 59 175 62 Q 104 70 67 81 Q 61 82 55 79" fill="#000080" clip-path="url(#clip-mask-5)" /><path d="M 243 70 Q 243 74 232 76 Q 220 79 204 89 Q 199 92 197 91 Q 195 90 198 86 Q 209 65 209 65" fill="#000080" clip-path="url(#clip-mask-6)" /><path d="M 105 120 L 105 121 Q 104 124 100 120 Q 97 117 96 113 Q 91 98 86 90 Q 84 86 85 85 Q 86 84 88 84 Q 96 84 99 86 L 102 93 Q 103 99 105 111 L 105 119" fill="#000080" clip-path="url(#clip-mask-7)" /><path d="M 149 87 Q 147 85 142 86 Q 108 93 102 93 L 99 86 Q 127 82 146 75 Q 152 74 155 76 Q 167 82 171 85" fill="#000080" clip-path="url(#clip-mask-8)" /><path d="M 145 104 Q 148 98 149 91 Q 150 89 149 87 L 171 85 Q 174 90 169 94 Q 163 97 157 107" fill="#000080" clip-path="url(#clip-mask-9)" /><path d="M 105 111 Q 122 109 143 104 Q 144 104 145 104 L 157 107 Q 161 110 161 111 Q 161 113 159 114 Q 126 116 111 119 Q 108 119 105 119" fill="#000080" clip-path="url(#clip-mask-10)" /><path d="M 118 145 Q 78 147 76 147 Q 74 146 76 144 Q 78 144 80 144 Q 140 132 142 122 Q 143 119 145 119 Q 152 120 164 133 Q 166 136 164 138 Q 163 139 160 139 Q 145 138 128 143" fill="#0000ff" clip-path="url(#clip-mask-11)" /><path d="M 126 170 Q 112 171 98 173 Q 89 174 85 171 Q 81 167 85 167 Q 103 164 124 160 L 138 158 Q 155 153 164 155 Q 170 157 172 160 Q 174 164 168 164 Q 154 165 139 168" fill="#0000ff" clip-path="url(#clip-mask-12)" /><path d="M 89 194 L 50 204 Q 45 205 40 203 Q 36 202 33 198 Q 29 194 34 193 Q 84 189 126 185 Q 126 185 127 185 L 141 184 Q 177 179 201 175 Q 210 173 223 184 Q 227 187 225 190 Q 224 192 219 192 Q 177 190 141 192 L 128 193" fill="#0000ff" clip-path="url(#clip-mask-13)" /><path d="M 127 185 Q 127 177 126 170 L 124 160 Q 122 149 118 145 L 128 143 Q 132 144 135 147 Q 138 149 138 158 L 139 168 Q 140 172 141 184 L 141 192 Q 141 193 141 194 Q 142 207 142 217 Q 142 246 132 255 Q 128 259 126 259 Q 124 260 121 257 L 122 232 Q 124 231 124 230 Q 129 221 128 193" fill="#0000ff" clip-path="url(#clip-mask-14)" /><path d="M 121 257 Q 111 247 95 234 Q 92 232 93 231 Q 93 230 95 230 Q 120 233 122 232" fill="#0000ff" clip-path="url(#clip-mask-15)" /><rect x="115" y="9" width="26" height="52" id="rect-1" fill="transparent" stroke="#000000"><animate attributeName="y" from="-43" to="9" dur="0.193" begin="0; animate15.end + 1s" id="animate1" fill="freeze"/></rect><rect x="78" y="27" width="27" height="28" id="rect-2" fill="transparent" stroke="#000000"><set attributeName="y" to="-1" begin="0; animate15.end + 1s" /><animate attributeName="y" from="-1" to="27" dur="0.104" begin="animate1.end + 0.5" id="animate2" fill="freeze"/></rect><rect x="147" y="14" width="44" height="32" id="rect-3" fill="transparent" stroke="#000000"><set attributeName="y" to="-18" begin="0; animate15.end + 1s" /><animate attributeName="y" from="-18" to="14" dur="0.119" begin="animate2.end + 0.5" id="animate3" fill="freeze"/></rect><rect x="26" y="58" width="30" height="62" id="rect-4" fill="transparent" stroke="#000000"><set attributeName="y" to="-4" begin="0; animate15.end + 1s" /><animate attributeName="y" from="-4" to="58" dur="0.230" begin="animate3.end + 0.5" id="animate4" fill="freeze"/></rect><rect x="55" y="48" width="188" height="34" id="rect-5" fill="transparent" stroke="#000000"><set attributeName="x" to="-133" begin="0; animate15.end + 1s" /><animate attributeName="x" from="-133" to="55" dur="0.696" begin="animate4.end + 0.5" id="animate5" fill="freeze"/></rect><rect x="195" y="65" width="48" height="27" id="rect-6" fill="transparent" stroke="#000000"><set attributeName="y" to="38" begin="0; animate15.end + 1s" /><animate attributeName="y" from="38" to="65" dur="0.100" begin="animate5.end" id="animate6" fill="freeze"/></rect><rect x="84" y="84" width="21" height="40" id="rect-7" fill="transparent" stroke="#000000"><set attributeName="y" to="44" begin="0; animate15.end + 1s" /><animate attributeName="y" from="44" to="84" dur="0.148" begin="animate6.end + 0.5" id="animate7" fill="freeze"/></rect><rect x="99" y="74" width="72" height="19" id="rect-8" fill="transparent" stroke="#000000"><set attributeName="x" to="27" begin="0; animate15.end + 1s" /><animate attributeName="x" from="27" to="99" dur="0.267" begin="animate7.end + 0.5" id="animate8" fill="freeze"/></rect><rect x="145" y="85" width="29" height="22" id="rect-9" fill="transparent" stroke="#000000"><set attributeName="y" to="63" begin="0; animate15.end + 1s" /><animate attributeName="y" from="63" to="85" dur="0.081" begin="animate8.end" id="animate9" fill="freeze"/></rect><rect x="105" y="104" width="56" height="15" id="rect-10" fill="transparent" stroke="#000000"><set attributeName="x" to="49" begin="0; animate15.end + 1s" /><animate attributeName="x" from="49" to="105" dur="0.207" begin="animate9.end + 0.5" id="animate10" fill="freeze"/></rect><rect x="74" y="119" width="92" height="28" id="rect-11" fill="transparent" stroke="#000000"><set attributeName="x" to="166" begin="0; animate15.end + 1s" /><animate attributeName="x" from="166" to="74" dur="0.341" begin="animate10.end + 0.5" id="animate11" fill="freeze"/></rect><rect x="81" y="153" width="93" height="21" id="rect-12" fill="transparent" stroke="#000000"><set attributeName="x" to="-12" begin="0; animate15.end + 1s" /><animate attributeName="x" from="-12" to="81" dur="0.344" begin="animate11.end + 0.5" id="animate12" fill="freeze"/></rect><rect x="29" y="173" width="198" height="32" id="rect-13" fill="transparent" stroke="#000000"><set attributeName="x" to="-169" begin="0; animate15.end + 1s" /><animate attributeName="x" from="-169" to="29" dur="0.733" begin="animate12.end + 0.5" id="animate13" fill="freeze"/></rect><rect x="118" y="143" width="24" height="117" id="rect-14" fill="transparent" stroke="#000000"><set attributeName="y" to="26" begin="0; animate15.end + 1s" /><animate attributeName="y" from="26" to="143" dur="0.433" begin="animate13.end + 0.5" id="animate14" fill="freeze"/></rect><rect x="92" y="230" width="30" height="27" id="rect-15" fill="transparent" stroke="#000000"><set attributeName="x" to="122" begin="0; animate15.end + 1s" /><animate attributeName="x" from="122" to="92" dur="0.111" begin="animate14.end" id="animate15" fill="freeze"/></rect></svg>