<svg xmlns="http://www.w3.org/2000/svg" xmlns:xlink="http://www.w3.org/1999/xlink" width="270" height="270"><defs><clipPath id="clip-mask-1"><use xlink:href="#rect-1" /></clipPath><clipPath id="clip-mask-2"><use xlink:href="#rect-2" /></clipPath><clipPath id="clip-mask-3"><use xlink:href="#rect-3" /></clipPath><clipPath id="clip-mask-4"><use xlink:href="#rect-4" /></clipPath><clipPath id="clip-mask-5"><use xlink:href="#rect-5" /></clipPath><clipPath id="clip-mask-6"><use xlink:href="#rect-6" /></clipPath><clipPath id="clip-mask-7"><use xlink:href="#rect-7" /></clipPath><clipPath id="clip-mask-8"><use xlink:href="#rect-8" /></clipPath><clipPath id="clip-mask-9"><use xlink:href="#rect-9" /></clipPath><clipPath id="clip-mask-10"><use xlink:href="#rect-10" /></clipPath><clipPath id="clip-mask-11"><use xlink:href="#rect-11" /></clipPath><clipPath id="clip-mask-12"><use xlink:href="#rect-12" /></clipPath><clipPath id="clip-mask-13"><use xlink:href="#rect-13" /></clipPath><clipPath id="clip-mask-14"><use xlink:href="#rect-14" /></clipPath><clipPath id="clip-mask-15"><use xlink:href="#rect-15" /></clipPath><clipPath id="clip-mask-16"><use xlink:href="#rect-16" /></clipPath><clipPath id="clip-mask-17"><use xlink:href="#rect-17" /></clipPath><clipPath id="clip-mask-18"><use xlink:href="#rect-18" /></clipPath><clipPath id="clip-mask-19"><use xlink:href="#rect-19" /></clipPath><clipPath id="clip-mask-20"><use xlink:href="#rect-20" /></clipPath><clipPath id="clip-mask-21"><use xlink:href="#rect-21" /></clipPath></defs><path d="M 0 0 L 270 270 M 270 0 L 0 270 M 135 0 L 135 270 M 0 135 L 270 135" stroke="#CCCCCC" /><path d="M 64 95 Q 57 97 50 99 Q 37 103 27 98 Q 20 95 29 92 Q 40 90 64 83 L 76 78 Q 83 75 90 75 Q 97 76 99 79 Q 100 81 98 83 Q 97 85 88 87 Q 81 89 76 91" fill="#CCCCCC"/><path d="M 64 111 L 64 95 L 64 83 Q 65 49 64 45 Q 64 37 59 31 Q 55 25 59 24 Q 64 22 72 26 Q 85 32 81 39 Q 79 45 76 78 L 76 91 Q 75 107 75 123 L 75 131 Q 75 166 77 201 Q 76 219 72 230 Q 68 238 64 238 Q 61 237 58 229 L 59 207 Q 62 205 62 199 Q 62 167 63 142 L 63 132" fill="#CCCCCC"/><path d="M 58 229 Q 55 222 42 209 Q 38 205 37 203 Q 37 200 45 204 Q 58 207 59 207" fill="#CCCCCC"/><path d="M 75 123 Q 76 123 76 122 Q 82 118 85 117 Q 87 117 86 120 Q 85 121 75 131 L 63 142 Q 44 160 31 176 Q 26 181 24 180 Q 18 179 13 176 Q 9 173 9 170 Q 9 168 12 166 Q 18 164 26 159 Q 43 145 63 132" fill="#CCCCCC"/><path d="M 148 21 L 147 19 Q 147 15 148 14 Q 150 13 168 18 Q 174 21 176 25 Q 178 32 177 36 Q 176 39 173 39 Q 169 40 166 37 Q 160 31 155 26" fill="#CCCCCC"/><path d="M 142 52 L 197 40 Q 214 35 226 43 Q 230 46 229 48 Q 228 50 224 51 Q 222 51 221 51 Q 168 51 125 64 Q 112 68 106 62 Q 102 59 107 58" fill="#CCCCCC"/><path d="M 136 70 L 137 68 Q 137 66 139 67 Q 149 68 153 74 Q 154 78 153 81 Q 152 84 149 84 Q 144 83 137 72" fill="#CCCCCC"/><path d="M 163 86 L 166 81 Q 173 69 171 64 Q 170 61 172 61 Q 174 60 179 61 Q 184 62 187 65 Q 189 68 186 70 Q 180 74 173 84 Q 169 88 162 95 L 159 93" fill="#CCCCCC"/><path d="M 162 95 Q 162 95 163 96 Q 167 98 166 102 Q 163 119 164 136 Q 164 146 161 150 Q 159 153 157 151 Q 152 145 153 138 Q 157 109 152 96 Q 151 93 153 92 Q 154 91 157 92 Q 158 92 159 93" fill="#CCCCCC"/><path d="M 103 109 L 102 110 Q 99 112 94 110 Q 89 108 89 107 Q 89 105 93 105 Q 113 100 124 92 Q 127 89 131 90 Q 141 93 143 95 Q 144 97 142 100 L 126 101 Q 126 101 124 101 Q 117 103 109 107 L 105 109" fill="#CCCCCC"/><path d="M 142 100 Q 140 103 139 111 Q 137 140 128 148 Q 125 151 122 148 L 127 128 Q 129 121 128 108 Q 128 103 126 101" fill="#CCCCCC"/><path d="M 122 148 Q 119 142 113 135 Q 110 131 114 132 Q 117 133 120 133 Q 124 134 127 128" fill="#CCCCCC"/><path d="M 109 107 Q 113 109 115 113 Q 116 115 115 117 Q 114 118 111 122 Q 96 147 83 151 Q 83 151 83 150 Q 83 149 84 148 Q 106 122 105 110 Q 105 109 105 109" fill="#CCCCCC"/><path d="M 191 95 L 190 96 L 188 92 Q 205 72 205 67 Q 205 64 207 64 Q 210 63 215 66 Q 220 70 223 73 Q 225 77 220 79 Q 219 79 198 92 L 193 95" fill="#CCCCCC"/><path d="M 190 96 Q 190 97 190 98 Q 190 100 190 123 Q 190 124 190 124 L 180 146 Q 177 148 176 147 Q 173 145 172 140 Q 171 136 173 134 Q 175 131 177 129 Q 188 110 176 94 Q 175 91 176 90 Q 177 89 179 89 Q 185 91 188 92" fill="#CCCCCC"/><path d="M 190 124 Q 191 125 192 124 Q 206 118 207 118 Q 208 117 208 118 Q 208 120 205 122 Q 186 138 180 146" fill="#CCCCCC"/><path d="M 198 92 Q 200 92 201 93 Q 209 102 216 108 Q 231 122 259 134 Q 260 134 259 135 Q 259 137 256 137 Q 251 139 239 140 Q 230 140 201 102 Q 197 98 193 95" fill="#CCCCCC"/><path d="M 109 161 L 112 160 Q 115 159 120 161 Q 123 162 127 165 Q 131 166 129 170 Q 128 172 126 189 Q 123 210 110 224 Q 105 229 97 233 Q 90 237 87 237 Q 85 236 87 234 Q 108 216 113 197 Q 117 172 110 165" fill="#CCCCCC"/><path d="M 185 149 L 186 148 Q 189 146 192 147 Q 196 149 203 154 Q 204 156 204 159 Q 202 171 205 237 Q 205 244 203 252 Q 201 256 199 256 Q 198 255 198 256 Q 187 249 188 220 Q 188 219 188 219 Q 193 160 187 152" fill="#CCCCCC"/><path d="M 146 166 L 156 162 Q 166 159 171 160 Q 178 161 180 165 Q 183 168 177 169 Q 163 171 144 174 Q 140 175 138 173 Q 133 170 137 169" fill="#CCCCCC"/><path d="M 144 190 L 158 186 Q 168 183 174 184 Q 180 185 182 188 Q 184 192 179 193 Q 162 195 140 198 Q 135 199 133 197 Q 128 194 132 193" fill="#CCCCCC"/><path d="M 64 95 Q 57 97 50 99 Q 37 103 27 98 Q 20 95 29 92 Q 40 90 64 83 L 76 78 Q 83 75 90 75 Q 97 76 99 79 Q 100 81 98 83 Q 97 85 88 87 Q 81 89 76 91" fill="#0000ff" clip-path="url(#clip-mask-1)" /><path d="M 64 111 L 64 95 L 64 83 Q 65 49 64 45 Q 64 37 59 31 Q 55 25 59 24 Q 64 22 72 26 Q 85 32 81 39 Q 79 45 76 78 L 76 91 Q 75 107 75 123 L 75 131 Q 75 166 77 201 Q 76 219 72 230 Q 68 238 64 238 Q 61 237 58 229 L 59 207 Q 62 205 62 199 Q 62 167 63 142 L 63 132" fill="#0000ff" clip-path="url(#clip-mask-2)" /><path d="M 58 229 Q 55 222 42 209 Q 38 205 37 203 Q 37 200 45 204 Q 58 207 59 207" fill="#0000ff" clip-path="url(#clip-mask-3)" /><path d="M 75 123 Q 76 123 76 122 Q 82 118 85 117 Q 87 117 86 120 Q 85 121 75 131 L 63 142 Q 44 160 31 176 Q 26 181 24 180 Q 18 179 13 176 Q 9 173 9 170 Q 9 168 12 166 Q 18 164 26 159 Q 43 145 63 132" fill="#0000ff" clip-path="url(#clip-mask-4)" /><path d="M 148 21 L 147 19 Q 147 15 148 14 Q 150 13 168 18 Q 174 21 176 25 Q 178 32 177 36 Q 176 39 173 39 Q 169 40 166 37 Q 160 31 155 26" fill="#000080" clip-path="url(#clip-mask-5)" /><path d="M 142 52 L 197 40 Q 214 35 226 43 Q 230 46 229 48 Q 228 50 224 51 Q 222 51 221 51 Q 168 51 125 64 Q 112 68 106 62 Q 102 59 107 58" fill="#000080" clip-path="url(#clip-mask-6)" /><path d="M 136 70 L 137 68 Q 137 66 139 67 Q 149 68 153 74 Q 154 78 153 81 Q 152 84 149 84 Q 144 83 137 72" fill="#000080" clip-path="url(#clip-mask-7)" /><path d="M 163 86 L 166 81 Q 173 69 171 64 Q 170 61 172 61 Q 174 60 179 61 Q 184 62 187 65 Q 189 68 186 70 Q 180 74 173 84 Q 169 88 162 95 L 159 93" fill="#000080" clip-path="url(#clip-mask-8)" /><path d="M 162 95 Q 162 95 163 96 Q 167 98 166 102 Q 163 119 164 136 Q 164 146 161 150 Q 159 153 157 151 Q 152 145 153 138 Q 157 109 152 96 Q 151 93 153 92 Q 154 91 157 92 Q 158 92 159 93" fill="#000080" clip-path="url(#clip-mask-9)" /><path d="M 103 109 L 102 110 Q 99 112 94 110 Q 89 108 89 107 Q 89 105 93 105 Q 113 100 124 92 Q 127 89 131 90 Q 141 93 143 95 Q 144 97 142 100 L 126 101 Q 126 101 124 101 Q 117 103 109 107 L 105 109" fill="#000080" clip-path="url(#clip-mask-10)" /><path d="M 142 100 Q 140 103 139 111 Q 137 140 128 148 Q 125 151 122 148 L 127 128 Q 129 121 128 108 Q 128 103 126 101" fill="#000080" clip-path="url(#clip-mask-11)" /><path d="M 122 148 Q 119 142 113 135 Q 110 131 114 132 Q 117 133 120 133 Q 124 134 127 128" fill="#000080" clip-path="url(#clip-mask-12)" /><path d="M 109 107 Q 113 109 115 113 Q 116 115 115 117 Q 114 118 111 122 Q 96 147 83 151 Q 83 151 83 150 Q 83 149 84 148 Q 106 122 105 110 Q 105 109 105 109" fill="#000080" clip-path="url(#clip-mask-13)" /><path d="M 191 95 L 190 96 L 188 92 Q 205 72 205 67 Q 205 64 207 64 Q 210 63 215 66 Q 220 70 223 73 Q 225 77 220 79 Q 219 79 198 92 L 193 95" fill="#000080" clip-path="url(#clip-mask-14)" /><path d="M 190 96 Q 190 97 190 98 Q 190 100 190 123 Q 190 124 190 124 L 180 146 Q 177 148 176 147 Q 173 145 172 140 Q 171 136 173 134 Q 175 131 177 129 Q 188 110 176 94 Q 175 91 176 90 Q 177 89 179 89 Q 185 91 188 92" fill="#000080" clip-path="url(#clip-mask-15)" /><path d="M 190 124 Q 191 125 192 124 Q 206 118 207 118 Q 208 117 208 118 Q 208 120 205 122 Q 186 138 180 146" fill="#000080" clip-path="url(#clip-mask-16)" /><path d="M 198 92 Q 200 92 201 93 Q 209 102 216 108 Q 231 122 259 134 Q 260 134 259 135 Q 259 137 256 137 Q 251 139 239 140 Q 230 140 201 102 Q 197 98 193 95" fill="#000080" clip-path="url(#clip-mask-17)" /><path d="M 109 161 L 112 160 Q 115 159 120 161 Q 123 162 127 165 Q 131 166 129 170 Q 128 172 126 189 Q 123 210 110 224 Q 105 229 97 233 Q 90 237 87 237 Q 85 236 87 234 Q 108 216 113 197 Q 117 172 110 165" fill="#000080" clip-path="url(#clip-mask-18)" /><path d="M 185 149 L 186 148 Q 189 146 192 147 Q 196 149 203 154 Q 204 156 204 159 Q 202 171 205 237 Q 205 244 203 252 Q 201 256 199 256 Q 198 255 198 256 Q 187 249 188 220 Q 188 219 188 219 Q 193 160 187 152" fill="#000080" clip-path="url(#clip-mask-19)" /><path d="M 146 166 L 156 162 Q 166 159 171 160 Q 178 161 180 165 Q 183 168 177 169 Q 163 171 144 174 Q 140 175 138 173 Q 133 170 137 169" fill="#000080" clip-path="url(#clip-mask-20)" /><path d="M 144 190 L 158 186 Q 168 183 174 184 Q 180 185 182 188 Q 184 192 179 193 Q 162 195 140 198 Q 135 199 133 197 Q 128 194 132 193" fill="#000080" clip-path="url(#clip-mask-21)" /><rect x="20" y="75" width="80" height="28" id="rect-1" fill="transparent" stroke="#000000"><animate attributeName="x" from="-60" to="20" dur="0.296" begin="0; animate21.end + 1s" id="animate1" fill="freeze"/></rect><rect x="55" y="22" width="30" height="216" id="rect-2" fill="transparent" stroke="#000000"><set attributeName="y" to="-194" begin="0; animate21.end + 1s" /><animate attributeName="y" from="-194" to="22" dur="0.800" begin="animate1.end + 0.5" id="animate2" fill="freeze"/></rect><rect x="37" y="200" width="22" height="29" id="rect-3" fill="transparent" stroke="#000000"><set attributeName="x" to="59" begin="0; animate21.end + 1s" /><animate attributeName="x" from="59" to="37" dur="0.081" begin="animate2.end" id="animate3" fill="freeze"/></rect><rect x="9" y="117" width="78" height="64" id="rect-4" fill="transparent" stroke="#000000"><set attributeName="x" to="-69" begin="0; animate21.end + 1s" /><animate attributeName="x" from="-69" to="9" dur="0.289" begin="animate3.end + 0.5" id="animate4" fill="freeze"/></rect><rect x="147" y="13" width="31" height="27" id="rect-5" fill="transparent" stroke="#000000"><set attributeName="x" to="116" begin="0; animate21.end + 1s" /><animate attributeName="x" from="116" to="147" dur="0.115" begin="animate4.end + 0.5" id="animate5" fill="freeze"/></rect><rect x="102" y="35" width="128" height="33" id="rect-6" fill="transparent" stroke="#000000"><set attributeName="x" to="-26" begin="0; animate21.end + 1s" /><animate attributeName="x" from="-26" to="102" dur="0.474" begin="animate5.end + 0.5" id="animate6" fill="freeze"/></rect><rect x="136" y="66" width="18" height="18" id="rect-7" fill="transparent" stroke="#000000"><set attributeName="y" to="48" begin="0; animate21.end + 1s" /><animate attributeName="y" from="48" to="66" dur="0.067" begin="animate6.end + 0.5" id="animate7" fill="freeze"/></rect><rect x="159" y="60" width="30" height="35" id="rect-8" fill="transparent" stroke="#000000"><set attributeName="y" to="25" begin="0; animate21.end + 1s" /><animate attributeName="y" from="25" to="60" dur="0.130" begin="animate7.end + 0.5" id="animate8" fill="freeze"/></rect><rect x="151" y="91" width="16" height="62" id="rect-9" fill="transparent" stroke="#000000"><set attributeName="y" to="29" begin="0; animate21.end + 1s" /><animate attributeName="y" from="29" to="91" dur="0.230" begin="animate8.end + 0.5" id="animate9" fill="freeze"/></rect><rect x="89" y="89" width="55" height="23" id="rect-10" fill="transparent" stroke="#000000"><set attributeName="x" to="34" begin="0; animate21.end + 1s" /><animate attributeName="x" from="34" to="89" dur="0.204" begin="animate9.end + 0.5" id="animate10" fill="freeze"/></rect><rect x="122" y="100" width="20" height="51" id="rect-11" fill="transparent" stroke="#000000"><set attributeName="y" to="49" begin="0; animate21.end + 1s" /><animate attributeName="y" from="49" to="100" dur="0.189" begin="animate10.end" id="animate11" fill="freeze"/></rect><rect x="110" y="128" width="17" height="20" id="rect-12" fill="transparent" stroke="#000000"><set attributeName="x" to="127" begin="0; animate21.end + 1s" /><animate attributeName="x" from="127" to="110" dur="0.063" begin="animate11.end" id="animate12" fill="freeze"/></rect><rect x="83" y="107" width="33" height="44" id="rect-13" fill="transparent" stroke="#000000"><set attributeName="y" to="63" begin="0; animate21.end + 1s" /><animate attributeName="y" from="63" to="107" dur="0.163" begin="animate12.end + 0.5" id="animate13" fill="freeze"/></rect><rect x="188" y="63" width="37" height="33" id="rect-14" fill="transparent" stroke="#000000"><set attributeName="y" to="30" begin="0; animate21.end + 1s" /><animate attributeName="y" from="30" to="63" dur="0.122" begin="animate13.end + 0.5" id="animate14" fill="freeze"/></rect><rect x="171" y="89" width="19" height="59" id="rect-15" fill="transparent" stroke="#000000"><set attributeName="y" to="30" begin="0; animate21.end + 1s" /><animate attributeName="y" from="30" to="89" dur="0.219" begin="animate14.end + 0.5" id="animate15" fill="freeze"/></rect><rect x="180" y="117" width="28" height="29" id="rect-16" fill="transparent" stroke="#000000"><set attributeName="x" to="152" begin="0; animate21.end + 1s" /><animate attributeName="x" from="152" to="180" dur="0.104" begin="animate15.end" id="animate16" fill="freeze"/></rect><rect x="193" y="92" width="67" height="48" id="rect-17" fill="transparent" stroke="#000000"><set attributeName="x" to="126" begin="0; animate21.end + 1s" /><animate attributeName="x" from="126" to="193" dur="0.248" begin="animate16.end + 0.5" id="animate17" fill="freeze"/></rect><rect x="85" y="159" width="46" height="78" id="rect-18" fill="transparent" stroke="#000000"><set attributeName="y" to="81" begin="0; animate21.end + 1s" /><animate attributeName="y" from="81" to="159" dur="0.289" begin="animate17.end + 0.5" id="animate18" fill="freeze"/></rect><rect x="185" y="146" width="20" height="110" id="rect-19" fill="transparent" stroke="#000000"><set attributeName="y" to="36" begin="0; animate21.end + 1s" /><animate attributeName="y" from="36" to="146" dur="0.407" begin="animate18.end + 0.5" id="animate19" fill="freeze"/></rect><rect x="133" y="159" width="50" height="16" id="rect-20" fill="transparent" stroke="#000000"><set attributeName="x" to="83" begin="0; animate21.end + 1s" /><animate attributeName="x" from="83" to="133" dur="0.185" begin="animate19.end + 0.5" id="animate20" fill="freeze"/></rect><rect x="128" y="183" width="56" height="16" id="rect-21" fill="transparent" stroke="#000000"><set attributeName="x" to="72" begin="0; animate21.end + 1s" /><animate attributeName="x" from="72" to="128" dur="0.207" begin="animate20.end + 0.5" id="animate21" fill="freeze"/></rect></svg>