<svg xmlns="http://www.w3.org/2000/svg" xmlns:xlink="http://www.w3.org/1999/xlink" width="270" height="270"><defs><clipPath id="clip-mask-1"><use xlink:href="#rect-1" /></clipPath><clipPath id="clip-mask-2"><use xlink:href="#rect-2" /></clipPath><clipPath id="clip-mask-3"><use xlink:href="#rect-3" /></clipPath><clipPath id="clip-mask-4"><use xlink:href="#rect-4" /></clipPath><clipPath id="clip-mask-5"><use xlink:href="#rect-5" /></clipPath><clipPath id="clip-mask-6"><use xlink:href="#rect-6" /></clipPath><clipPath id="clip-mask-7"><use xlink:href="#rect-7" /></clipPath><clipPath id="clip-mask-8"><use xlink:href="#rect-8" /></clipPath><clipPath id="clip-mask-9"><use xlink:href="#rect-9" /></clipPath><clipPath id="clip-mask-10"><use xlink:href="#rect-10" /></clipPath><clipPath id="clip-mask-11"><use xlink:href="#rect-11" /></clipPath><clipPath id="clip-mask-12"><use xlink:href="#rect-12" /></clipPath><clipPath id="clip-mask-13"><use xlink:href="#rect-13" /></clipPath><clipPath id="clip-mask-14"><use xlink:href="#rect-14" /></clipPath><clipPath id="clip-mask-15"><use xlink:href="#rect-15" /></clipPath><clipPath id="clip-mask-16"><use xlink:href="#rect-16" /></clipPath><clipPath id="clip-mask-17"><use xlink:href="#rect-17" /></clipPath><clipPath id="clip-mask-18"><use xlink:href="#rect-18" /></clipPath><clipPath id="clip-mask-19"><use xlink:href="#rect-19" /></clipPath><clipPath id="clip-mask-20"><use xlink:href="#rect-20" /></clipPath></defs><path d="M 0 0 L 270 270 M 270 0 L 0 270 M 135 0 L 135 270 M 0 135 L 270 135" stroke="#CCCCCC" /><path d="M 67 99 Q 62 100 57 102 Q 44 106 32 101 Q 26 97 34 95 Q 40 94 68 86 L 81 81 Q 88 78 95 79 Q 103 80 105 83 Q 106 85 104 87 Q 103 88 94 91 Q 87 92 80 95" fill="#CCCCCC"/><path d="M 67 115 L 67 99 L 68 86 Q 68 58 68 54 Q 68 45 63 39 Q 59 33 63 32 Q 68 30 76 35 Q 90 41 86 48 Q 82 59 81 81 L 80 95 Q 79 113 78 131 L 78 140 Q 78 174 79 208 Q 80 226 75 238 Q 71 246 68 246 Q 64 245 59 237 L 61 215 Q 64 212 64 207 Q 65 175 66 150 L 66 138" fill="#CCCCCC"/><path d="M 59 237 Q 55 230 39 218 Q 34 214 34 212 Q 33 210 41 213 Q 58 216 61 215" fill="#CCCCCC"/><path d="M 78 131 Q 83 128 88 125 Q 94 122 96 121 Q 99 121 98 124 Q 95 128 90 131 Q 84 135 78 140 L 66 150 Q 58 156 35 177 Q 32 180 28 179 Q 23 177 19 173 Q 15 170 15 168 Q 16 164 20 164 Q 20 164 66 138" fill="#CCCCCC"/><path d="M 160 25 L 159 22 Q 159 20 160 19 Q 161 18 164 18 Q 185 22 188 29 Q 191 35 190 38 Q 189 41 187 41 Q 184 42 180 39 Q 173 34 166 29" fill="#CCCCCC"/><path d="M 137 56 L 138 56 Q 157 55 188 47 Q 213 38 220 39 Q 227 42 229 44 Q 230 46 228 48 Q 225 50 159 64 Q 153 65 139 64 L 137 57" fill="#CCCCCC"/><path d="M 139 64 Q 137 70 136 92 Q 133 141 117 180 Q 113 189 109 196 Q 89 228 82 229 Q 80 230 80 227 Q 81 226 82 224 Q 103 189 112 164 Q 123 128 123 86 Q 123 81 124 77 Q 123 61 119 55 Q 117 52 120 50 Q 123 49 128 51 Q 134 53 137 57" fill="#CCCCCC"/><path d="M 164 98 Q 158 99 153 100 Q 147 102 140 97 Q 136 93 142 93 Q 153 91 163 90 L 172 88 Q 182 86 193 84 Q 194 83 195 83 L 207 80 Q 225 74 231 78 Q 236 81 236 83 Q 234 85 232 85 Q 205 89 204 89 L 194 91 Q 183 93 173 96" fill="#CCCCCC"/><path d="M 173 120 L 172 122 Q 170 123 169 121 Q 167 118 167 113 Q 165 100 164 98 L 163 90 Q 160 75 157 73 Q 154 70 156 69 Q 160 67 163 68 Q 169 70 171 71 L 171 72 Q 172 72 172 88 L 173 96 Q 173 101 173 105 Q 173 108 173 110 L 173 116" fill="#CCCCCC"/><path d="M 195 83 Q 197 68 195 63 Q 194 60 195 59 Q 197 58 200 59 Q 204 61 209 65 Q 212 68 211 70 Q 209 73 208 79 Q 207 79 207 80 L 204 89 Q 202 97 200 105 L 192 105 Q 193 98 194 91" fill="#CCCCCC"/><path d="M 200 105 L 200 105 Q 207 109 206 111 Q 206 113 204 113 Q 187 115 179 116 Q 176 117 174 117 Q 173 116 173 116 L 173 110 Q 181 108 190 105 Q 191 105 192 105" fill="#CCCCCC"/><path d="M 175 136 Q 163 138 153 141 Q 150 142 146 141 Q 142 140 139 137 Q 136 134 140 133 Q 146 132 223 119 Q 239 113 250 122 Q 254 125 253 127 Q 251 129 240 129 Q 193 130 183 134" fill="#CCCCCC"/><path d="M 157 202 L 157 203 Q 155 207 152 202 Q 148 198 148 191 Q 144 170 139 158 Q 137 154 138 153 Q 139 152 142 152 Q 148 154 151 155 L 154 163 Q 154 171 158 195 L 157 200" fill="#CCCCCC"/><path d="M 177 156 Q 164 159 154 162 Q 154 162 154 163 L 151 155 Q 159 153 170 151 Q 174 150 177 150 L 189 147 Q 198 145 201 145 Q 218 140 222 142 Q 232 148 235 151 L 213 152 Q 208 149 189 154" fill="#CCCCCC"/><path d="M 208 188 Q 211 185 215 158 Q 216 154 213 152 L 235 151 Q 237 155 235 157 Q 230 163 228 170 Q 222 194 220 199 Q 216 204 214 202 Q 210 200 205 193" fill="#CCCCCC"/><path d="M 178 177 Q 162 179 162 179 Q 157 176 161 175 Q 169 172 177 170 L 188 166 Q 194 165 197 165 Q 202 166 204 169 Q 206 171 202 172 Q 195 173 188 175" fill="#CCCCCC"/><path d="M 178 190 Q 178 183 178 177 L 177 170 Q 177 161 177 156 L 177 150 Q 177 140 175 136 L 183 134 Q 186 136 189 139 Q 191 141 189 145 Q 189 146 189 147 L 189 154 Q 188 160 188 166 L 188 175 Q 187 181 187 188" fill="#CCCCCC"/><path d="M 158 195 Q 167 192 178 190 L 187 188 Q 194 184 202 185 Q 206 186 208 188 L 205 193 Q 187 196 162 200 Q 159 201 157 200" fill="#CCCCCC"/><path d="M 154 206 L 156 206 Q 159 205 165 208 Q 171 210 171 213 Q 171 216 169 218 Q 158 227 157 228 Q 128 251 115 250 Q 109 250 114 247 Q 147 224 153 209" fill="#CCCCCC"/><path d="M 197 208 L 197 205 Q 198 202 200 204 Q 234 219 236 233 Q 238 244 235 246 Q 232 248 230 248 Q 227 246 224 241 Q 210 224 199 211" fill="#CCCCCC"/><path d="M 67 99 Q 62 100 57 102 Q 44 106 32 101 Q 26 97 34 95 Q 40 94 68 86 L 81 81 Q 88 78 95 79 Q 103 80 105 83 Q 106 85 104 87 Q 103 88 94 91 Q 87 92 80 95" fill="#0000ff" clip-path="url(#clip-mask-1)" /><path d="M 67 115 L 67 99 L 68 86 Q 68 58 68 54 Q 68 45 63 39 Q 59 33 63 32 Q 68 30 76 35 Q 90 41 86 48 Q 82 59 81 81 L 80 95 Q 79 113 78 131 L 78 140 Q 78 174 79 208 Q 80 226 75 238 Q 71 246 68 246 Q 64 245 59 237 L 61 215 Q 64 212 64 207 Q 65 175 66 150 L 66 138" fill="#0000ff" clip-path="url(#clip-mask-2)" /><path d="M 59 237 Q 55 230 39 218 Q 34 214 34 212 Q 33 210 41 213 Q 58 216 61 215" fill="#0000ff" clip-path="url(#clip-mask-3)" /><path d="M 78 131 Q 83 128 88 125 Q 94 122 96 121 Q 99 121 98 124 Q 95 128 90 131 Q 84 135 78 140 L 66 150 Q 58 156 35 177 Q 32 180 28 179 Q 23 177 19 173 Q 15 170 15 168 Q 16 164 20 164 Q 20 164 66 138" fill="#0000ff" clip-path="url(#clip-mask-4)" /><path d="M 160 25 L 159 22 Q 159 20 160 19 Q 161 18 164 18 Q 185 22 188 29 Q 191 35 190 38 Q 189 41 187 41 Q 184 42 180 39 Q 173 34 166 29" fill="#000080" clip-path="url(#clip-mask-5)" /><path d="M 137 56 L 138 56 Q 157 55 188 47 Q 213 38 220 39 Q 227 42 229 44 Q 230 46 228 48 Q 225 50 159 64 Q 153 65 139 64 L 137 57" fill="#000080" clip-path="url(#clip-mask-6)" /><path d="M 139 64 Q 137 70 136 92 Q 133 141 117 180 Q 113 189 109 196 Q 89 228 82 229 Q 80 230 80 227 Q 81 226 82 224 Q 103 189 112 164 Q 123 128 123 86 Q 123 81 124 77 Q 123 61 119 55 Q 117 52 120 50 Q 123 49 128 51 Q 134 53 137 57" fill="#000080" clip-path="url(#clip-mask-7)" /><path d="M 164 98 Q 158 99 153 100 Q 147 102 140 97 Q 136 93 142 93 Q 153 91 163 90 L 172 88 Q 182 86 193 84 Q 194 83 195 83 L 207 80 Q 225 74 231 78 Q 236 81 236 83 Q 234 85 232 85 Q 205 89 204 89 L 194 91 Q 183 93 173 96" fill="#000080" clip-path="url(#clip-mask-8)" /><path d="M 173 120 L 172 122 Q 170 123 169 121 Q 167 118 167 113 Q 165 100 164 98 L 163 90 Q 160 75 157 73 Q 154 70 156 69 Q 160 67 163 68 Q 169 70 171 71 L 171 72 Q 172 72 172 88 L 173 96 Q 173 101 173 105 Q 173 108 173 110 L 173 116" fill="#000080" clip-path="url(#clip-mask-9)" /><path d="M 195 83 Q 197 68 195 63 Q 194 60 195 59 Q 197 58 200 59 Q 204 61 209 65 Q 212 68 211 70 Q 209 73 208 79 Q 207 79 207 80 L 204 89 Q 202 97 200 105 L 192 105 Q 193 98 194 91" fill="#000080" clip-path="url(#clip-mask-10)" /><path d="M 200 105 L 200 105 Q 207 109 206 111 Q 206 113 204 113 Q 187 115 179 116 Q 176 117 174 117 Q 173 116 173 116 L 173 110 Q 181 108 190 105 Q 191 105 192 105" fill="#000080" clip-path="url(#clip-mask-11)" /><path d="M 175 136 Q 163 138 153 141 Q 150 142 146 141 Q 142 140 139 137 Q 136 134 140 133 Q 146 132 223 119 Q 239 113 250 122 Q 254 125 253 127 Q 251 129 240 129 Q 193 130 183 134" fill="#000080" clip-path="url(#clip-mask-12)" /><path d="M 157 202 L 157 203 Q 155 207 152 202 Q 148 198 148 191 Q 144 170 139 158 Q 137 154 138 153 Q 139 152 142 152 Q 148 154 151 155 L 154 163 Q 154 171 158 195 L 157 200" fill="#000080" clip-path="url(#clip-mask-13)" /><path d="M 177 156 Q 164 159 154 162 Q 154 162 154 163 L 151 155 Q 159 153 170 151 Q 174 150 177 150 L 189 147 Q 198 145 201 145 Q 218 140 222 142 Q 232 148 235 151 L 213 152 Q 208 149 189 154" fill="#000080" clip-path="url(#clip-mask-14)" /><path d="M 208 188 Q 211 185 215 158 Q 216 154 213 152 L 235 151 Q 237 155 235 157 Q 230 163 228 170 Q 222 194 220 199 Q 216 204 214 202 Q 210 200 205 193" fill="#000080" clip-path="url(#clip-mask-15)" /><path d="M 178 177 Q 162 179 162 179 Q 157 176 161 175 Q 169 172 177 170 L 188 166 Q 194 165 197 165 Q 202 166 204 169 Q 206 171 202 172 Q 195 173 188 175" fill="#000080" clip-path="url(#clip-mask-16)" /><path d="M 178 190 Q 178 183 178 177 L 177 170 Q 177 161 177 156 L 177 150 Q 177 140 175 136 L 183 134 Q 186 136 189 139 Q 191 141 189 145 Q 189 146 189 147 L 189 154 Q 188 160 188 166 L 188 175 Q 187 181 187 188" fill="#000080" clip-path="url(#clip-mask-17)" /><path d="M 158 195 Q 167 192 178 190 L 187 188 Q 194 184 202 185 Q 206 186 208 188 L 205 193 Q 187 196 162 200 Q 159 201 157 200" fill="#000080" clip-path="url(#clip-mask-18)" /><path d="M 154 206 L 156 206 Q 159 205 165 208 Q 171 210 171 213 Q 171 216 169 218 Q 158 227 157 228 Q 128 251 115 250 Q 109 250 114 247 Q 147 224 153 209" fill="#000080" clip-path="url(#clip-mask-19)" /><path d="M 197 208 L 197 205 Q 198 202 200 204 Q 234 219 236 233 Q 238 244 235 246 Q 232 248 230 248 Q 227 246 224 241 Q 210 224 199 211" fill="#000080" clip-path="url(#clip-mask-20)" /><rect x="26" y="78" width="80" height="28" id="rect-1" fill="transparent" stroke="#000000"><animate attributeName="x" from="-54" to="26" dur="0.296" begin="0; animate20.end + 1s" id="animate1" fill="freeze"/></rect><rect x="59" y="30" width="31" height="216" id="rect-2" fill="transparent" stroke="#000000"><set attributeName="y" to="-186" begin="0; animate20.end + 1s" /><animate attributeName="y" from="-186" to="30" dur="0.800" begin="animate1.end + 0.5" id="animate2" fill="freeze"/></rect><rect x="33" y="210" width="28" height="27" id="rect-3" fill="transparent" stroke="#000000"><set attributeName="x" to="61" begin="0; animate20.end + 1s" /><animate attributeName="x" from="61" to="33" dur="0.104" begin="animate2.end" id="animate3" fill="freeze"/></rect><rect x="15" y="121" width="84" height="59" id="rect-4" fill="transparent" stroke="#000000"><set attributeName="x" to="-69" begin="0; animate20.end + 1s" /><animate attributeName="x" from="-69" to="15" dur="0.311" begin="animate3.end + 0.5" id="animate4" fill="freeze"/></rect><rect x="159" y="18" width="32" height="24" id="rect-5" fill="transparent" stroke="#000000"><set attributeName="x" to="127" begin="0; animate20.end + 1s" /><animate attributeName="x" from="127" to="159" dur="0.119" begin="animate4.end + 0.5" id="animate5" fill="freeze"/></rect><rect x="137" y="38" width="93" height="27" id="rect-6" fill="transparent" stroke="#000000"><set attributeName="x" to="44" begin="0; animate20.end + 1s" /><animate attributeName="x" from="44" to="137" dur="0.344" begin="animate5.end + 0.5" id="animate6" fill="freeze"/></rect><rect x="80" y="49" width="59" height="181" id="rect-7" fill="transparent" stroke="#000000"><set attributeName="y" to="-132" begin="0; animate20.end + 1s" /><animate attributeName="y" from="-132" to="49" dur="0.670" begin="animate6.end + 0.5" id="animate7" fill="freeze"/></rect><rect x="136" y="74" width="100" height="28" id="rect-8" fill="transparent" stroke="#000000"><set attributeName="x" to="36" begin="0; animate20.end + 1s" /><animate attributeName="x" from="36" to="136" dur="0.370" begin="animate7.end + 0.5" id="animate8" fill="freeze"/></rect><rect x="154" y="67" width="19" height="56" id="rect-9" fill="transparent" stroke="#000000"><set attributeName="y" to="11" begin="0; animate20.end + 1s" /><animate attributeName="y" from="11" to="67" dur="0.207" begin="animate8.end + 0.5" id="animate9" fill="freeze"/></rect><rect x="192" y="58" width="20" height="47" id="rect-10" fill="transparent" stroke="#000000"><set attributeName="y" to="11" begin="0; animate20.end + 1s" /><animate attributeName="y" from="11" to="58" dur="0.174" begin="animate9.end + 0.5" id="animate10" fill="freeze"/></rect><rect x="173" y="105" width="34" height="12" id="rect-11" fill="transparent" stroke="#000000"><set attributeName="x" to="139" begin="0; animate20.end + 1s" /><animate attributeName="x" from="139" to="173" dur="0.126" begin="animate10.end + 0.5" id="animate11" fill="freeze"/></rect><rect x="136" y="113" width="118" height="29" id="rect-12" fill="transparent" stroke="#000000"><set attributeName="x" to="18" begin="0; animate20.end + 1s" /><animate attributeName="x" from="18" to="136" dur="0.437" begin="animate11.end + 0.5" id="animate12" fill="freeze"/></rect><rect x="137" y="152" width="21" height="55" id="rect-13" fill="transparent" stroke="#000000"><set attributeName="y" to="97" begin="0; animate20.end + 1s" /><animate attributeName="y" from="97" to="152" dur="0.204" begin="animate12.end + 0.5" id="animate13" fill="freeze"/></rect><rect x="151" y="140" width="84" height="23" id="rect-14" fill="transparent" stroke="#000000"><set attributeName="x" to="67" begin="0; animate20.end + 1s" /><animate attributeName="x" from="67" to="151" dur="0.311" begin="animate13.end + 0.5" id="animate14" fill="freeze"/></rect><rect x="205" y="151" width="32" height="53" id="rect-15" fill="transparent" stroke="#000000"><set attributeName="y" to="98" begin="0; animate20.end + 1s" /><animate attributeName="y" from="98" to="151" dur="0.196" begin="animate14.end" id="animate15" fill="freeze"/></rect><rect x="157" y="165" width="49" height="14" id="rect-16" fill="transparent" stroke="#000000"><set attributeName="x" to="108" begin="0; animate20.end + 1s" /><animate attributeName="x" from="108" to="157" dur="0.181" begin="animate15.end + 0.5" id="animate16" fill="freeze"/></rect><rect x="175" y="134" width="16" height="56" id="rect-17" fill="transparent" stroke="#000000"><set attributeName="y" to="78" begin="0; animate20.end + 1s" /><animate attributeName="y" from="78" to="134" dur="0.207" begin="animate16.end + 0.5" id="animate17" fill="freeze"/></rect><rect x="157" y="184" width="51" height="17" id="rect-18" fill="transparent" stroke="#000000"><set attributeName="x" to="106" begin="0; animate20.end + 1s" /><animate attributeName="x" from="106" to="157" dur="0.189" begin="animate17.end + 0.5" id="animate18" fill="freeze"/></rect><rect x="109" y="205" width="62" height="46" id="rect-19" fill="transparent" stroke="#000000"><set attributeName="y" to="159" begin="0; animate20.end + 1s" /><animate attributeName="y" from="159" to="205" dur="0.170" begin="animate18.end + 0.5" id="animate19" fill="freeze"/></rect><rect x="197" y="202" width="41" height="46" id="rect-20" fill="transparent" stroke="#000000"><set attributeName="x" to="156" begin="0; animate20.end + 1s" /><animate attributeName="x" from="156" to="197" dur="0.152" begin="animate19.end + 0.5" id="animate20" fill="freeze"/></rect></svg>