<svg xmlns="http://www.w3.org/2000/svg" xmlns:xlink="http://www.w3.org/1999/xlink" width="270" height="270"><defs><clipPath id="clip-mask-1"><use xlink:href="#rect-1" /></clipPath><clipPath id="clip-mask-2"><use xlink:href="#rect-2" /></clipPath><clipPath id="clip-mask-3"><use xlink:href="#rect-3" /></clipPath><clipPath id="clip-mask-4"><use xlink:href="#rect-4" /></clipPath><clipPath id="clip-mask-5"><use xlink:href="#rect-5" /></clipPath><clipPath id="clip-mask-6"><use xlink:href="#rect-6" /></clipPath><clipPath id="clip-mask-7"><use xlink:href="#rect-7" /></clipPath></defs><path d="M 0 0 L 270 270 M 270 0 L 0 270 M 135 0 L 135 270 M 0 135 L 270 135" stroke="#CCCCCC" /><path d="M 34 197 Q 30 201 27 198 Q 23 195 21 187 Q 19 181 22 178 Q 23 177 23 176 Q 29 169 36 153 Q 44 119 33 101 Q 30 96 32 95 Q 34 93 38 94 Q 50 98 53 102 Q 56 104 55 109 Q 54 114 49 159 Q 49 162 50 162" fill="#CCCCCC"/><path d="M 45 182 L 34 197 L 50 162 Q 51 163 53 162 Q 72 150 79 146 L 79 152" fill="#CCCCCC"/><path d="M 79 146 Q 79 131 79 71 Q 79 54 71 42 Q 70 38 71 37 Q 76 33 83 37 Q 97 46 99 49 Q 100 52 97 56 Q 93 72 93 95 Q 91 209 91 221 Q 91 229 89 236 Q 86 241 84 242 Q 82 245 80 243 Q 78 242 77 237 Q 69 220 75 204 Q 78 189 79 152" fill="#CCCCCC"/><path d="M 133 108 Q 131 111 129 113 Q 124 120 120 121 Q 117 122 117 119 Q 118 118 120 114 Q 154 46 144 32 Q 140 27 145 25 Q 150 24 158 28 Q 167 32 169 36 Q 171 39 169 42 Q 165 47 162 57 Q 153 75 138 101" fill="#CCCCCC"/><path d="M 157 110 Q 143 113 133 108 L 138 101 Q 154 98 168 94 Q 181 89 194 84 Q 202 80 211 81 Q 219 82 221 85 Q 223 88 220 90 Q 219 91 169 107" fill="#CCCCCC"/><path d="M 149 190 L 135 199 Q 106 211 95 209 Q 93 208 94 207 Q 96 205 98 205 Q 129 192 146 175 L 153 166 Q 165 137 157 110 L 169 107 Q 174 109 179 114 Q 181 116 180 119 Q 179 123 178 130 Q 174 158 163 175 L 154 186" fill="#CCCCCC"/><path d="M 146 175 Q 121 142 110 135 Q 106 131 106 129 Q 108 128 112 129 Q 122 130 131 141 Q 142 154 153 166 L 163 175 Q 182 193 201 203 Q 249 221 250 223 Q 250 225 240 226 Q 220 228 196 225 Q 187 225 183 219 Q 166 202 154 186" fill="#CCCCCC"/><path d="M 34 197 Q 30 201 27 198 Q 23 195 21 187 Q 19 181 22 178 Q 23 177 23 176 Q 29 169 36 153 Q 44 119 33 101 Q 30 96 32 95 Q 34 93 38 94 Q 50 98 53 102 Q 56 104 55 109 Q 54 114 49 159 Q 49 162 50 162" fill="#000080" clip-path="url(#clip-mask-1)" /><path d="M 45 182 L 34 197 L 50 162 Q 51 163 53 162 Q 72 150 79 146 L 79 152" fill="#000080" clip-path="url(#clip-mask-2)" /><path d="M 79 146 Q 79 131 79 71 Q 79 54 71 42 Q 70 38 71 37 Q 76 33 83 37 Q 97 46 99 49 Q 100 52 97 56 Q 93 72 93 95 Q 91 209 91 221 Q 91 229 89 236 Q 86 241 84 242 Q 82 245 80 243 Q 78 242 77 237 Q 69 220 75 204 Q 78 189 79 152" fill="#000080" clip-path="url(#clip-mask-3)" /><path d="M 133 108 Q 131 111 129 113 Q 124 120 120 121 Q 117 122 117 119 Q 118 118 120 114 Q 154 46 144 32 Q 140 27 145 25 Q 150 24 158 28 Q 167 32 169 36 Q 171 39 169 42 Q 165 47 162 57 Q 153 75 138 101" fill="#0000ff" clip-path="url(#clip-mask-4)" /><path d="M 157 110 Q 143 113 133 108 L 138 101 Q 154 98 168 94 Q 181 89 194 84 Q 202 80 211 81 Q 219 82 221 85 Q 223 88 220 90 Q 219 91 169 107" fill="#0000ff" clip-path="url(#clip-mask-5)" /><path d="M 149 190 L 135 199 Q 106 211 95 209 Q 93 208 94 207 Q 96 205 98 205 Q 129 192 146 175 L 153 166 Q 165 137 157 110 L 169 107 Q 174 109 179 114 Q 181 116 180 119 Q 179 123 178 130 Q 174 158 163 175 L 154 186" fill="#0000ff" clip-path="url(#clip-mask-6)" /><path d="M 146 175 Q 121 142 110 135 Q 106 131 106 129 Q 108 128 112 129 Q 122 130 131 141 Q 142 154 153 166 L 163 175 Q 182 193 201 203 Q 249 221 250 223 Q 250 225 240 226 Q 220 228 196 225 Q 187 225 183 219 Q 166 202 154 186" fill="#0000ff" clip-path="url(#clip-mask-7)" /><rect x="19" y="93" width="37" height="108" id="rect-1" fill="transparent" stroke="#000000"><animate attributeName="y" from="-15" to="93" dur="0.400" begin="0; animate7.end + 1s" id="animate1" fill="freeze"/></rect><rect x="34" y="146" width="45" height="51" id="rect-2" fill="transparent" stroke="#000000"><set attributeName="x" to="-11" begin="0; animate7.end + 1s" /><animate attributeName="x" from="-11" to="34" dur="0.167" begin="animate1.end" id="animate2" fill="freeze"/></rect><rect x="69" y="33" width="31" height="212" id="rect-3" fill="transparent" stroke="#000000"><set attributeName="y" to="-179" begin="0; animate7.end + 1s" /><animate attributeName="y" from="-179" to="33" dur="0.785" begin="animate2.end + 0.5" id="animate3" fill="freeze"/></rect><rect x="117" y="24" width="54" height="98" id="rect-4" fill="transparent" stroke="#000000"><set attributeName="y" to="-74" begin="0; animate7.end + 1s" /><animate attributeName="y" from="-74" to="24" dur="0.363" begin="animate3.end + 0.5" id="animate4" fill="freeze"/></rect><rect x="133" y="80" width="90" height="33" id="rect-5" fill="transparent" stroke="#000000"><set attributeName="x" to="43" begin="0; animate7.end + 1s" /><animate attributeName="x" from="43" to="133" dur="0.333" begin="animate4.end + 0.5" id="animate5" fill="freeze"/></rect><rect x="93" y="107" width="88" height="104" id="rect-6" fill="transparent" stroke="#000000"><set attributeName="y" to="3" begin="0; animate7.end + 1s" /><animate attributeName="y" from="3" to="107" dur="0.385" begin="animate5.end + 0.5" id="animate6" fill="freeze"/></rect><rect x="106" y="128" width="144" height="100" id="rect-7" fill="transparent" stroke="#000000"><set attributeName="x" to="-38" begin="0; animate7.end + 1s" /><animate attributeName="x" from="-38" to="106" dur="0.533" begin="animate6.end + 0.5" id="animate7" fill="freeze"/></rect></svg>