<svg xmlns="http://www.w3.org/2000/svg" xmlns:xlink="http://www.w3.org/1999/xlink" width="270" height="270"><defs><clipPath id="clip-mask-1"><use xlink:href="#rect-1" /></clipPath><clipPath id="clip-mask-2"><use xlink:href="#rect-2" /></clipPath><clipPath id="clip-mask-3"><use xlink:href="#rect-3" /></clipPath><clipPath id="clip-mask-4"><use xlink:href="#rect-4" /></clipPath><clipPath id="clip-mask-5"><use xlink:href="#rect-5" /></clipPath><clipPath id="clip-mask-6"><use xlink:href="#rect-6" /></clipPath><clipPath id="clip-mask-7"><use xlink:href="#rect-7" /></clipPath><clipPath id="clip-mask-8"><use xlink:href="#rect-8" /></clipPath><clipPath id="clip-mask-9"><use xlink:href="#rect-9" /></clipPath><clipPath id="clip-mask-10"><use xlink:href="#rect-10" /></clipPath></defs><path d="M 0 0 L 270 270 M 270 0 L 0 270 M 135 0 L 135 270 M 0 135 L 270 135" stroke="#CCCCCC" /><path d="M 70 49 L 70 45 Q 69 42 71 41 Q 72 41 74 41 Q 86 44 96 52 Q 101 56 102 63 Q 102 68 100 72 Q 97 75 93 74 Q 84 69 74 53" fill="#CCCCCC"/><path d="M 25 103 L 26 103 Q 56 98 96 88 Q 117 81 125 87 Q 132 89 131 92 Q 129 96 126 95 Q 84 102 39 114 Q 33 115 23 109 Q 17 105 25 104" fill="#CCCCCC"/><path d="M 53 119 L 56 119 Q 62 119 70 128 Q 73 131 70 134 Q 56 149 55 151 Q 34 173 21 173 Q 18 173 20 170 Q 26 163 30 161 Q 53 140 53 122" fill="#CCCCCC"/><path d="M 90 121 L 89 119 Q 89 116 90 115 Q 92 113 109 118 Q 115 121 116 125 Q 119 132 117 135 Q 116 138 114 138 Q 110 139 107 136 Q 102 130 97 126" fill="#CCCCCC"/><path d="M 68 213 L 54 221 Q 27 237 19 234 Q 18 233 20 231 Q 29 226 36 221 Q 52 209 74 185 L 80 176 Q 88 162 88 147 Q 88 143 92 143 Q 94 143 99 146 Q 106 152 107 154 Q 108 157 106 159 Q 103 162 91 182 L 83 194" fill="#CCCCCC"/><path d="M 74 185 Q 56 169 57 166 Q 57 163 59 164 Q 67 168 80 176 L 91 182 Q 104 191 106 199 Q 109 208 106 211 Q 104 214 102 213 Q 101 213 83 194" fill="#CCCCCC"/><path d="M 148 114 Q 136 130 133 131 Q 129 133 129 130 Q 130 128 132 125 Q 153 82 157 51 Q 159 45 154 40 Q 151 34 156 33 Q 161 32 169 35 Q 177 39 179 42 Q 181 46 179 49 Q 176 54 172 64 Q 165 83 152 107" fill="#CCCCCC"/><path d="M 167 117 Q 153 119 148 114 L 152 107 Q 165 105 176 101 Q 186 98 196 94 Q 204 89 213 90 Q 222 92 224 95 Q 226 97 224 100 Q 221 102 179 115" fill="#CCCCCC"/><path d="M 163 199 L 157 206 Q 133 225 112 224 Q 105 224 111 221 Q 146 203 160 181 L 165 169 Q 170 154 171 134 Q 171 128 168 118 Q 167 118 167 117 L 179 115 L 189 120 Q 191 123 189 125 Q 187 127 186 134 Q 184 152 174 180 L 168 192" fill="#CCCCCC"/><path d="M 160 181 Q 153 170 146 160 Q 140 150 131 144 Q 129 142 129 141 Q 131 140 137 140 Q 142 140 145 145 Q 155 158 165 169 L 174 180 Q 180 186 186 191 Q 206 212 249 230 Q 252 231 251 233 Q 247 237 208 237 Q 201 237 196 231 Q 183 213 168 192" fill="#CCCCCC"/><path d="M 70 49 L 70 45 Q 69 42 71 41 Q 72 41 74 41 Q 86 44 96 52 Q 101 56 102 63 Q 102 68 100 72 Q 97 75 93 74 Q 84 69 74 53" fill="#000080" clip-path="url(#clip-mask-1)" /><path d="M 25 103 L 26 103 Q 56 98 96 88 Q 117 81 125 87 Q 132 89 131 92 Q 129 96 126 95 Q 84 102 39 114 Q 33 115 23 109 Q 17 105 25 104" fill="#000080" clip-path="url(#clip-mask-2)" /><path d="M 53 119 L 56 119 Q 62 119 70 128 Q 73 131 70 134 Q 56 149 55 151 Q 34 173 21 173 Q 18 173 20 170 Q 26 163 30 161 Q 53 140 53 122" fill="#000080" clip-path="url(#clip-mask-3)" /><path d="M 90 121 L 89 119 Q 89 116 90 115 Q 92 113 109 118 Q 115 121 116 125 Q 119 132 117 135 Q 116 138 114 138 Q 110 139 107 136 Q 102 130 97 126" fill="#000080" clip-path="url(#clip-mask-4)" /><path d="M 68 213 L 54 221 Q 27 237 19 234 Q 18 233 20 231 Q 29 226 36 221 Q 52 209 74 185 L 80 176 Q 88 162 88 147 Q 88 143 92 143 Q 94 143 99 146 Q 106 152 107 154 Q 108 157 106 159 Q 103 162 91 182 L 83 194" fill="#000080" clip-path="url(#clip-mask-5)" /><path d="M 74 185 Q 56 169 57 166 Q 57 163 59 164 Q 67 168 80 176 L 91 182 Q 104 191 106 199 Q 109 208 106 211 Q 104 214 102 213 Q 101 213 83 194" fill="#000080" clip-path="url(#clip-mask-6)" /><path d="M 148 114 Q 136 130 133 131 Q 129 133 129 130 Q 130 128 132 125 Q 153 82 157 51 Q 159 45 154 40 Q 151 34 156 33 Q 161 32 169 35 Q 177 39 179 42 Q 181 46 179 49 Q 176 54 172 64 Q 165 83 152 107" fill="#0000ff" clip-path="url(#clip-mask-7)" /><path d="M 167 117 Q 153 119 148 114 L 152 107 Q 165 105 176 101 Q 186 98 196 94 Q 204 89 213 90 Q 222 92 224 95 Q 226 97 224 100 Q 221 102 179 115" fill="#0000ff" clip-path="url(#clip-mask-8)" /><path d="M 163 199 L 157 206 Q 133 225 112 224 Q 105 224 111 221 Q 146 203 160 181 L 165 169 Q 170 154 171 134 Q 171 128 168 118 Q 167 118 167 117 L 179 115 L 189 120 Q 191 123 189 125 Q 187 127 186 134 Q 184 152 174 180 L 168 192" fill="#0000ff" clip-path="url(#clip-mask-9)" /><path d="M 160 181 Q 153 170 146 160 Q 140 150 131 144 Q 129 142 129 141 Q 131 140 137 140 Q 142 140 145 145 Q 155 158 165 169 L 174 180 Q 180 186 186 191 Q 206 212 249 230 Q 252 231 251 233 Q 247 237 208 237 Q 201 237 196 231 Q 183 213 168 192" fill="#0000ff" clip-path="url(#clip-mask-10)" /><rect x="69" y="41" width="33" height="34" id="rect-1" fill="transparent" stroke="#000000"><animate attributeName="x" from="36" to="69" dur="0.122" begin="0; animate10.end + 1s" id="animate1" fill="freeze"/></rect><rect x="17" y="81" width="115" height="34" id="rect-2" fill="transparent" stroke="#000000"><set attributeName="x" to="-98" begin="0; animate10.end + 1s" /><animate attributeName="x" from="-98" to="17" dur="0.426" begin="animate1.end + 0.5" id="animate2" fill="freeze"/></rect><rect x="18" y="119" width="55" height="54" id="rect-3" fill="transparent" stroke="#000000"><set attributeName="y" to="65" begin="0; animate10.end + 1s" /><animate attributeName="y" from="65" to="119" dur="0.200" begin="animate2.end + 0.5" id="animate3" fill="freeze"/></rect><rect x="89" y="113" width="30" height="26" id="rect-4" fill="transparent" stroke="#000000"><set attributeName="x" to="59" begin="0; animate10.end + 1s" /><animate attributeName="x" from="59" to="89" dur="0.111" begin="animate3.end + 0.5" id="animate4" fill="freeze"/></rect><rect x="18" y="143" width="90" height="94" id="rect-5" fill="transparent" stroke="#000000"><set attributeName="y" to="49" begin="0; animate10.end + 1s" /><animate attributeName="y" from="49" to="143" dur="0.348" begin="animate4.end + 0.5" id="animate5" fill="freeze"/></rect><rect x="56" y="163" width="53" height="51" id="rect-6" fill="transparent" stroke="#000000"><set attributeName="x" to="3" begin="0; animate10.end + 1s" /><animate attributeName="x" from="3" to="56" dur="0.196" begin="animate5.end + 0.5" id="animate6" fill="freeze"/></rect><rect x="129" y="32" width="52" height="101" id="rect-7" fill="transparent" stroke="#000000"><set attributeName="y" to="-69" begin="0; animate10.end + 1s" /><animate attributeName="y" from="-69" to="32" dur="0.374" begin="animate6.end + 0.5" id="animate7" fill="freeze"/></rect><rect x="148" y="89" width="78" height="30" id="rect-8" fill="transparent" stroke="#000000"><set attributeName="x" to="70" begin="0; animate10.end + 1s" /><animate attributeName="x" from="70" to="148" dur="0.289" begin="animate7.end + 0.5" id="animate8" fill="freeze"/></rect><rect x="105" y="115" width="86" height="110" id="rect-9" fill="transparent" stroke="#000000"><set attributeName="y" to="5" begin="0; animate10.end + 1s" /><animate attributeName="y" from="5" to="115" dur="0.407" begin="animate8.end + 0.5" id="animate9" fill="freeze"/></rect><rect x="129" y="140" width="123" height="97" id="rect-10" fill="transparent" stroke="#000000"><set attributeName="x" to="6" begin="0; animate10.end + 1s" /><animate attributeName="x" from="6" to="129" dur="0.456" begin="animate9.end + 0.5" id="animate10" fill="freeze"/></rect></svg>