<svg xmlns="http://www.w3.org/2000/svg" xmlns:xlink="http://www.w3.org/1999/xlink" width="270" height="270"><defs><clipPath id="clip-mask-1"><use xlink:href="#rect-1" /></clipPath><clipPath id="clip-mask-2"><use xlink:href="#rect-2" /></clipPath><clipPath id="clip-mask-3"><use xlink:href="#rect-3" /></clipPath><clipPath id="clip-mask-4"><use xlink:href="#rect-4" /></clipPath></defs><path d="M 0 0 L 270 270 M 270 0 L 0 270 M 135 0 L 135 270 M 0 135 L 270 135" stroke="#CCCCCC" /><path d="M 88 52 L 87 50 Q 87 46 88 45 Q 90 44 94 45 Q 121 49 124 58 Q 127 65 126 70 Q 125 73 122 74 Q 118 74 114 71 Q 105 64 96 57" fill="#CCCCCC"/><path d="M 80 98 L 79 95 Q 78 92 79 91 Q 81 90 85 90 Q 111 96 114 104 Q 117 111 116 115 Q 115 119 112 119 Q 108 119 104 116 Q 95 109 87 103" fill="#CCCCCC"/><path d="M 79 149 L 50 160 Q 37 163 25 155 Q 20 151 20 147 Q 20 144 24 144 Q 44 144 70 140 Q 100 135 145 130 L 160 129 Q 212 120 213 120 Q 220 117 224 119 Q 237 125 246 133 Q 249 136 247 140 Q 246 143 239 142 Q 185 136 160 142 L 145 143" fill="#CCCCCC"/><path d="M 145 130 Q 145 68 144 37 Q 144 27 136 20 Q 132 17 135 15 Q 138 10 144 12 Q 157 15 164 21 Q 170 25 168 30 Q 163 38 162 47 Q 160 72 160 129 L 160 142 Q 160 242 156 253 Q 153 259 149 254 Q 145 248 145 233 Q 145 230 145 143" fill="#CCCCCC"/><path d="M 88 52 L 87 50 Q 87 46 88 45 Q 90 44 94 45 Q 121 49 124 58 Q 127 65 126 70 Q 125 73 122 74 Q 118 74 114 71 Q 105 64 96 57" fill="#0000ff" clip-path="url(#clip-mask-1)" /><path d="M 80 98 L 79 95 Q 78 92 79 91 Q 81 90 85 90 Q 111 96 114 104 Q 117 111 116 115 Q 115 119 112 119 Q 108 119 104 116 Q 95 109 87 103" fill="#0000ff" clip-path="url(#clip-mask-2)" /><path d="M 79 149 L 50 160 Q 37 163 25 155 Q 20 151 20 147 Q 20 144 24 144 Q 44 144 70 140 Q 100 135 145 130 L 160 129 Q 212 120 213 120 Q 220 117 224 119 Q 237 125 246 133 Q 249 136 247 140 Q 246 143 239 142 Q 185 136 160 142 L 145 143" fill="#0000ff" clip-path="url(#clip-mask-3)" /><path d="M 145 130 Q 145 68 144 37 Q 144 27 136 20 Q 132 17 135 15 Q 138 10 144 12 Q 157 15 164 21 Q 170 25 168 30 Q 163 38 162 47 Q 160 72 160 129 L 160 142 Q 160 242 156 253 Q 153 259 149 254 Q 145 248 145 233 Q 145 230 145 143" fill="#0000ff" clip-path="url(#clip-mask-4)" /><rect x="87" y="44" width="40" height="30" id="rect-1" fill="transparent" stroke="#000000"><animate attributeName="x" from="47" to="87" dur="0.148" begin="0; animate4.end + 1s" id="animate1" fill="freeze"/></rect><rect x="78" y="90" width="39" height="29" id="rect-2" fill="transparent" stroke="#000000"><set attributeName="x" to="39" begin="0; animate4.end + 1s" /><animate attributeName="x" from="39" to="78" dur="0.144" begin="animate1.end + 0.5" id="animate2" fill="freeze"/></rect><rect x="20" y="117" width="229" height="46" id="rect-3" fill="transparent" stroke="#000000"><set attributeName="x" to="-209" begin="0; animate4.end + 1s" /><animate attributeName="x" from="-209" to="20" dur="0.848" begin="animate2.end + 0.5" id="animate3" fill="freeze"/></rect><rect x="132" y="10" width="38" height="249" id="rect-4" fill="transparent" stroke="#000000"><set attributeName="y" to="-239" begin="0; animate4.end + 1s" /><animate attributeName="y" from="-239" to="10" dur="0.922" begin="animate3.end + 0.5" id="animate4" fill="freeze"/></rect></svg>