<svg xmlns="http://www.w3.org/2000/svg" xmlns:xlink="http://www.w3.org/1999/xlink" width="270" height="270"><defs><clipPath id="clip-mask-1"><use xlink:href="#rect-1" /></clipPath><clipPath id="clip-mask-2"><use xlink:href="#rect-2" /></clipPath><clipPath id="clip-mask-3"><use xlink:href="#rect-3" /></clipPath><clipPath id="clip-mask-4"><use xlink:href="#rect-4" /></clipPath><clipPath id="clip-mask-5"><use xlink:href="#rect-5" /></clipPath><clipPath id="clip-mask-6"><use xlink:href="#rect-6" /></clipPath><clipPath id="clip-mask-7"><use xlink:href="#rect-7" /></clipPath><clipPath id="clip-mask-8"><use xlink:href="#rect-8" /></clipPath><clipPath id="clip-mask-9"><use xlink:href="#rect-9" /></clipPath><clipPath id="clip-mask-10"><use xlink:href="#rect-10" /></clipPath><clipPath id="clip-mask-11"><use xlink:href="#rect-11" /></clipPath><clipPath id="clip-mask-12"><use xlink:href="#rect-12" /></clipPath><clipPath id="clip-mask-13"><use xlink:href="#rect-13" /></clipPath><clipPath id="clip-mask-14"><use xlink:href="#rect-14" /></clipPath><clipPath id="clip-mask-15"><use xlink:href="#rect-15" /></clipPath><clipPath id="clip-mask-16"><use xlink:href="#rect-16" /></clipPath><clipPath id="clip-mask-17"><use xlink:href="#rect-17" /></clipPath><clipPath id="clip-mask-18"><use xlink:href="#rect-18" /></clipPath><clipPath id="clip-mask-19"><use xlink:href="#rect-19" /></clipPath><clipPath id="clip-mask-20"><use xlink:href="#rect-20" /></clipPath><clipPath id="clip-mask-21"><use xlink:href="#rect-21" /></clipPath><clipPath id="clip-mask-22"><use xlink:href="#rect-22" /></clipPath><clipPath id="clip-mask-23"><use xlink:href="#rect-23" /></clipPath><clipPath id="clip-mask-24"><use xlink:href="#rect-24" /></clipPath><clipPath id="clip-mask-25"><use xlink:href="#rect-25" /></clipPath><clipPath id="clip-mask-26"><use xlink:href="#rect-26" /></clipPath><clipPath id="clip-mask-27"><use xlink:href="#rect-27" /></clipPath></defs><path d="M 0 0 L 270 270 M 270 0 L 0 270 M 135 0 L 135 270 M 0 135 L 270 135" stroke="#CCCCCC" /><path d="M 56 77 Q 54 78 52 76 Q 49 73 48 70 Q 48 68 51 65 Q 56 60 59 55 Q 69 31 66 24 Q 65 22 67 21 Q 70 21 73 22 Q 80 28 81 30 Q 82 31 79 35 Q 71 46 62 62" fill="#CCCCCC"/><path d="M 73 71 Q 63 71 56 77 L 62 62 Q 60 66 66 66 Q 71 66 76 67" fill="#CCCCCC"/><path d="M 59 106 Q 57 108 55 106 Q 51 103 51 101 Q 50 99 52 97 Q 57 95 73 71 L 76 67 Q 82 54 82 50 Q 82 47 83 46 Q 85 46 88 48 Q 93 50 95 54 Q 96 55 94 57 Q 83 65 65 92" fill="#CCCCCC"/><path d="M 69 100 L 59 106 L 65 92 Q 63 97 67 95 Q 75 93 82 93 L 83 96" fill="#CCCCCC"/><path d="M 82 93 Q 82 92 82 91 Q 79 86 79 84 Q 80 82 81 82 Q 83 81 91 88 Q 94 91 94 94 Q 93 100 92 102 Q 90 103 88 103 Q 86 101 83 96" fill="#CCCCCC"/><path d="M 104 66 Q 102 68 100 66 Q 97 63 96 59 Q 96 57 99 55 Q 104 50 106 46 Q 118 25 115 19 Q 114 16 116 15 Q 120 15 122 17 Q 129 23 129 25 Q 130 27 127 30 Q 119 39 111 52" fill="#CCCCCC"/><path d="M 122 60 Q 108 64 104 66 L 111 52 Q 109 56 113 55 Q 119 55 125 55" fill="#CCCCCC"/><path d="M 108 97 Q 105 99 103 97 Q 99 93 99 91 Q 98 88 101 86 Q 106 83 121 62 Q 122 60 122 60 L 125 55 Q 130 45 130 40 Q 129 37 131 37 Q 133 36 136 38 Q 142 42 144 45 Q 146 47 143 49 Q 130 61 115 81" fill="#CCCCCC"/><path d="M 133 86 L 132 86 Q 118 91 108 97 L 115 81 Q 112 87 118 84 Q 125 83 131 83 L 133 86" fill="#CCCCCC"/><path d="M 131 83 Q 130 81 130 80 Q 127 76 127 74 Q 128 72 128 72 Q 129 72 131 73 Q 144 82 144 87 Q 143 91 142 93 Q 141 95 140 94 Q 138 94 133 86" fill="#CCCCCC"/><path d="M 106 115 Q 87 118 63 123 L 58 123 Q 53 123 50 121 Q 45 117 49 117 Q 79 111 114 103 Q 125 100 130 101 Q 136 103 139 106 Q 141 109 135 110 Q 124 111 112 114" fill="#CCCCCC"/><path d="M 63 123 Q 71 130 71 131 Q 71 131 58 146 L 51 158 Q 49 159 48 158 Q 43 151 49 147 Q 61 132 58 125 Q 58 123 58 123" fill="#CCCCCC"/><path d="M 58 146 Q 56 150 61 150 Q 66 150 72 150 L 70 154 Q 69 154 68 154 Q 55 156 51 158" fill="#CCCCCC"/><path d="M 72 150 Q 79 136 79 132 Q 79 130 80 129 Q 82 129 85 130 Q 90 133 92 137 Q 93 138 91 140 Q 87 144 82 150 Q 67 167 61 175 L 55 189 Q 53 190 51 189 Q 47 185 47 183 Q 46 180 48 179 Q 52 177 70 154" fill="#CCCCCC"/><path d="M 61 175 Q 60 179 63 177 Q 71 175 78 174 L 79 178 Q 63 183 55 189" fill="#CCCCCC"/><path d="M 78 174 Q 77 173 77 171 Q 75 166 75 165 Q 75 163 76 163 Q 79 163 86 170 Q 89 173 89 176 Q 88 181 86 183 Q 85 184 83 183 Q 82 183 79 178" fill="#CCCCCC"/><path d="M 99 151 Q 97 152 95 150 Q 90 143 96 140 Q 109 123 107 116 Q 106 115 106 115 L 112 114 Q 120 122 120 123 Q 120 124 118 126 Q 112 132 106 139" fill="#CCCCCC"/><path d="M 114 147 Q 105 148 99 151 L 106 139 Q 103 142 108 143 Q 112 143 117 144" fill="#CCCCCC"/><path d="M 102 179 Q 99 181 97 178 Q 93 175 93 172 Q 92 170 95 168 Q 97 167 114 147 L 117 144 Q 124 130 124 126 Q 124 123 126 123 Q 128 123 130 124 Q 136 128 138 131 Q 139 133 136 135 Q 128 141 109 164" fill="#CCCCCC"/><path d="M 110 173 L 102 179 L 109 164 Q 107 168 111 167 Q 120 165 127 164 L 129 168" fill="#CCCCCC"/><path d="M 127 164 Q 123 158 124 156 Q 124 154 125 153 Q 127 153 129 155 Q 141 164 141 169 Q 140 174 138 176 Q 137 178 135 177 Q 132 176 129 168" fill="#CCCCCC"/><path d="M 44 60 L 44 75 Q 42 144 38 198 Q 39 203 40 203 L 32 224 Q 27 227 24 225 Q 22 223 19 217 Q 17 212 19 208 Q 26 199 26 189 Q 32 131 31 68 Q 31 51 26 42 Q 24 38 26 36 Q 28 34 34 37 Q 41 42 44 44 Q 47 48 46 51" fill="#CCCCCC"/><path d="M 40 203 Q 41 204 44 203 Q 56 200 88 194 Q 110 187 114 191 Q 122 195 122 199 Q 122 201 116 202 Q 52 207 32 224" fill="#CCCCCC"/><path d="M 166 69 Q 199 46 199 39 Q 199 36 200 35 Q 203 34 207 36 Q 218 39 224 42 Q 227 44 226 47 Q 226 49 222 49 Q 213 52 202 58 Q 191 64 168 73" fill="#CCCCCC"/><path d="M 167 112 Q 166 173 142 201 Q 125 221 115 222 Q 112 222 112 220 Q 113 219 116 215 Q 139 191 145 174 Q 151 157 154 142 Q 157 84 148 70 Q 144 65 148 64 Q 152 63 164 68 Q 166 69 166 69 L 168 73 Q 169 75 168 76 Q 167 86 168 103" fill="#CCCCCC"/><path d="M 182 109 L 176 111 Q 173 113 168 112 Q 168 111 167 112 L 168 103 Q 184 99 199 96 Q 211 92 221 90 Q 236 85 248 92 Q 252 95 251 98 Q 250 100 240 100 Q 217 102 205 104 L 190 107" fill="#CCCCCC"/><path d="M 205 104 Q 207 106 210 108 Q 213 110 213 115 Q 208 135 210 203 Q 210 219 208 237 Q 208 251 203 254 Q 201 254 200 253 Q 195 245 195 203 Q 196 158 195 128 Q 195 121 190 107" fill="#CCCCCC"/><path d="M 56 77 Q 54 78 52 76 Q 49 73 48 70 Q 48 68 51 65 Q 56 60 59 55 Q 69 31 66 24 Q 65 22 67 21 Q 70 21 73 22 Q 80 28 81 30 Q 82 31 79 35 Q 71 46 62 62" fill="#000080" clip-path="url(#clip-mask-1)" /><path d="M 73 71 Q 63 71 56 77 L 62 62 Q 60 66 66 66 Q 71 66 76 67" fill="#000080" clip-path="url(#clip-mask-2)" /><path d="M 59 106 Q 57 108 55 106 Q 51 103 51 101 Q 50 99 52 97 Q 57 95 73 71 L 76 67 Q 82 54 82 50 Q 82 47 83 46 Q 85 46 88 48 Q 93 50 95 54 Q 96 55 94 57 Q 83 65 65 92" fill="#000080" clip-path="url(#clip-mask-3)" /><path d="M 69 100 L 59 106 L 65 92 Q 63 97 67 95 Q 75 93 82 93 L 83 96" fill="#000080" clip-path="url(#clip-mask-4)" /><path d="M 82 93 Q 82 92 82 91 Q 79 86 79 84 Q 80 82 81 82 Q 83 81 91 88 Q 94 91 94 94 Q 93 100 92 102 Q 90 103 88 103 Q 86 101 83 96" fill="#000080" clip-path="url(#clip-mask-5)" /><path d="M 104 66 Q 102 68 100 66 Q 97 63 96 59 Q 96 57 99 55 Q 104 50 106 46 Q 118 25 115 19 Q 114 16 116 15 Q 120 15 122 17 Q 129 23 129 25 Q 130 27 127 30 Q 119 39 111 52" fill="#000080" clip-path="url(#clip-mask-6)" /><path d="M 122 60 Q 108 64 104 66 L 111 52 Q 109 56 113 55 Q 119 55 125 55" fill="#000080" clip-path="url(#clip-mask-7)" /><path d="M 108 97 Q 105 99 103 97 Q 99 93 99 91 Q 98 88 101 86 Q 106 83 121 62 Q 122 60 122 60 L 125 55 Q 130 45 130 40 Q 129 37 131 37 Q 133 36 136 38 Q 142 42 144 45 Q 146 47 143 49 Q 130 61 115 81" fill="#000080" clip-path="url(#clip-mask-8)" /><path d="M 133 86 L 132 86 Q 118 91 108 97 L 115 81 Q 112 87 118 84 Q 125 83 131 83 L 133 86" fill="#000080" clip-path="url(#clip-mask-9)" /><path d="M 131 83 Q 130 81 130 80 Q 127 76 127 74 Q 128 72 128 72 Q 129 72 131 73 Q 144 82 144 87 Q 143 91 142 93 Q 141 95 140 94 Q 138 94 133 86" fill="#000080" clip-path="url(#clip-mask-10)" /><path d="M 106 115 Q 87 118 63 123 L 58 123 Q 53 123 50 121 Q 45 117 49 117 Q 79 111 114 103 Q 125 100 130 101 Q 136 103 139 106 Q 141 109 135 110 Q 124 111 112 114" fill="#000080" clip-path="url(#clip-mask-11)" /><path d="M 63 123 Q 71 130 71 131 Q 71 131 58 146 L 51 158 Q 49 159 48 158 Q 43 151 49 147 Q 61 132 58 125 Q 58 123 58 123" fill="#000080" clip-path="url(#clip-mask-12)" /><path d="M 58 146 Q 56 150 61 150 Q 66 150 72 150 L 70 154 Q 69 154 68 154 Q 55 156 51 158" fill="#000080" clip-path="url(#clip-mask-13)" /><path d="M 72 150 Q 79 136 79 132 Q 79 130 80 129 Q 82 129 85 130 Q 90 133 92 137 Q 93 138 91 140 Q 87 144 82 150 Q 67 167 61 175 L 55 189 Q 53 190 51 189 Q 47 185 47 183 Q 46 180 48 179 Q 52 177 70 154" fill="#000080" clip-path="url(#clip-mask-14)" /><path d="M 61 175 Q 60 179 63 177 Q 71 175 78 174 L 79 178 Q 63 183 55 189" fill="#000080" clip-path="url(#clip-mask-15)" /><path d="M 78 174 Q 77 173 77 171 Q 75 166 75 165 Q 75 163 76 163 Q 79 163 86 170 Q 89 173 89 176 Q 88 181 86 183 Q 85 184 83 183 Q 82 183 79 178" fill="#000080" clip-path="url(#clip-mask-16)" /><path d="M 99 151 Q 97 152 95 150 Q 90 143 96 140 Q 109 123 107 116 Q 106 115 106 115 L 112 114 Q 120 122 120 123 Q 120 124 118 126 Q 112 132 106 139" fill="#000080" clip-path="url(#clip-mask-17)" /><path d="M 114 147 Q 105 148 99 151 L 106 139 Q 103 142 108 143 Q 112 143 117 144" fill="#000080" clip-path="url(#clip-mask-18)" /><path d="M 102 179 Q 99 181 97 178 Q 93 175 93 172 Q 92 170 95 168 Q 97 167 114 147 L 117 144 Q 124 130 124 126 Q 124 123 126 123 Q 128 123 130 124 Q 136 128 138 131 Q 139 133 136 135 Q 128 141 109 164" fill="#000080" clip-path="url(#clip-mask-19)" /><path d="M 110 173 L 102 179 L 109 164 Q 107 168 111 167 Q 120 165 127 164 L 129 168" fill="#000080" clip-path="url(#clip-mask-20)" /><path d="M 127 164 Q 123 158 124 156 Q 124 154 125 153 Q 127 153 129 155 Q 141 164 141 169 Q 140 174 138 176 Q 137 178 135 177 Q 132 176 129 168" fill="#000080" clip-path="url(#clip-mask-21)" /><path d="M 44 60 L 44 75 Q 42 144 38 198 Q 39 203 40 203 L 32 224 Q 27 227 24 225 Q 22 223 19 217 Q 17 212 19 208 Q 26 199 26 189 Q 32 131 31 68 Q 31 51 26 42 Q 24 38 26 36 Q 28 34 34 37 Q 41 42 44 44 Q 47 48 46 51" fill="#000080" clip-path="url(#clip-mask-22)" /><path d="M 40 203 Q 41 204 44 203 Q 56 200 88 194 Q 110 187 114 191 Q 122 195 122 199 Q 122 201 116 202 Q 52 207 32 224" fill="#000080" clip-path="url(#clip-mask-23)" /><path d="M 166 69 Q 199 46 199 39 Q 199 36 200 35 Q 203 34 207 36 Q 218 39 224 42 Q 227 44 226 47 Q 226 49 222 49 Q 213 52 202 58 Q 191 64 168 73" fill="#0000ff" clip-path="url(#clip-mask-24)" /><path d="M 167 112 Q 166 173 142 201 Q 125 221 115 222 Q 112 222 112 220 Q 113 219 116 215 Q 139 191 145 174 Q 151 157 154 142 Q 157 84 148 70 Q 144 65 148 64 Q 152 63 164 68 Q 166 69 166 69 L 168 73 Q 169 75 168 76 Q 167 86 168 103" fill="#0000ff" clip-path="url(#clip-mask-25)" /><path d="M 182 109 L 176 111 Q 173 113 168 112 Q 168 111 167 112 L 168 103 Q 184 99 199 96 Q 211 92 221 90 Q 236 85 248 92 Q 252 95 251 98 Q 250 100 240 100 Q 217 102 205 104 L 190 107" fill="#0000ff" clip-path="url(#clip-mask-26)" /><path d="M 205 104 Q 207 106 210 108 Q 213 110 213 115 Q 208 135 210 203 Q 210 219 208 237 Q 208 251 203 254 Q 201 254 200 253 Q 195 245 195 203 Q 196 158 195 128 Q 195 121 190 107" fill="#0000ff" clip-path="url(#clip-mask-27)" /><rect x="48" y="21" width="34" height="57" id="rect-1" fill="transparent" stroke="#000000"><animate attributeName="y" from="-36" to="21" dur="0.211" begin="0; animate27.end + 1s" id="animate1" fill="freeze"/></rect><rect x="56" y="62" width="20" height="15" id="rect-2" fill="transparent" stroke="#000000"><set attributeName="x" to="36" begin="0; animate27.end + 1s" /><animate attributeName="x" from="36" to="56" dur="0.074" begin="animate1.end" id="animate2" fill="freeze"/></rect><rect x="50" y="46" width="46" height="62" id="rect-3" fill="transparent" stroke="#000000"><set attributeName="y" to="-16" begin="0; animate27.end + 1s" /><animate attributeName="y" from="-16" to="46" dur="0.230" begin="animate2.end + 0.5" id="animate3" fill="freeze"/></rect><rect x="59" y="92" width="24" height="14" id="rect-4" fill="transparent" stroke="#000000"><set attributeName="x" to="35" begin="0; animate27.end + 1s" /><animate attributeName="x" from="35" to="59" dur="0.089" begin="animate3.end" id="animate4" fill="freeze"/></rect><rect x="79" y="81" width="15" height="22" id="rect-5" fill="transparent" stroke="#000000"><set attributeName="y" to="59" begin="0; animate27.end + 1s" /><animate attributeName="y" from="59" to="81" dur="0.081" begin="animate4.end + 0.5" id="animate5" fill="freeze"/></rect><rect x="96" y="15" width="34" height="53" id="rect-6" fill="transparent" stroke="#000000"><set attributeName="y" to="-38" begin="0; animate27.end + 1s" /><animate attributeName="y" from="-38" to="15" dur="0.196" begin="animate5.end + 0.5" id="animate6" fill="freeze"/></rect><rect x="104" y="52" width="21" height="14" id="rect-7" fill="transparent" stroke="#000000"><set attributeName="x" to="83" begin="0; animate27.end + 1s" /><animate attributeName="x" from="83" to="104" dur="0.078" begin="animate6.end" id="animate7" fill="freeze"/></rect><rect x="98" y="36" width="48" height="63" id="rect-8" fill="transparent" stroke="#000000"><set attributeName="y" to="-27" begin="0; animate27.end + 1s" /><animate attributeName="y" from="-27" to="36" dur="0.233" begin="animate7.end + 0.5" id="animate8" fill="freeze"/></rect><rect x="108" y="81" width="25" height="16" id="rect-9" fill="transparent" stroke="#000000"><set attributeName="x" to="83" begin="0; animate27.end + 1s" /><animate attributeName="x" from="83" to="108" dur="0.093" begin="animate8.end" id="animate9" fill="freeze"/></rect><rect x="127" y="72" width="17" height="23" id="rect-10" fill="transparent" stroke="#000000"><set attributeName="y" to="49" begin="0; animate27.end + 1s" /><animate attributeName="y" from="49" to="72" dur="0.085" begin="animate9.end + 0.5" id="animate10" fill="freeze"/></rect><rect x="45" y="100" width="96" height="23" id="rect-11" fill="transparent" stroke="#000000"><set attributeName="x" to="-51" begin="0; animate27.end + 1s" /><animate attributeName="x" from="-51" to="45" dur="0.356" begin="animate10.end + 0.5" id="animate11" fill="freeze"/></rect><rect x="43" y="123" width="28" height="36" id="rect-12" fill="transparent" stroke="#000000"><set attributeName="y" to="87" begin="0; animate27.end + 1s" /><animate attributeName="y" from="87" to="123" dur="0.133" begin="animate11.end + 0.5" id="animate12" fill="freeze"/></rect><rect x="51" y="146" width="21" height="12" id="rect-13" fill="transparent" stroke="#000000"><set attributeName="x" to="30" begin="0; animate27.end + 1s" /><animate attributeName="x" from="30" to="51" dur="0.078" begin="animate12.end" id="animate13" fill="freeze"/></rect><rect x="46" y="129" width="47" height="61" id="rect-14" fill="transparent" stroke="#000000"><set attributeName="y" to="68" begin="0; animate27.end + 1s" /><animate attributeName="y" from="68" to="129" dur="0.226" begin="animate13.end + 0.5" id="animate14" fill="freeze"/></rect><rect x="55" y="174" width="24" height="15" id="rect-15" fill="transparent" stroke="#000000"><set attributeName="x" to="31" begin="0; animate27.end + 1s" /><animate attributeName="x" from="31" to="55" dur="0.089" begin="animate14.end" id="animate15" fill="freeze"/></rect><rect x="75" y="163" width="14" height="21" id="rect-16" fill="transparent" stroke="#000000"><set attributeName="y" to="142" begin="0; animate27.end + 1s" /><animate attributeName="y" from="142" to="163" dur="0.078" begin="animate15.end + 0.5" id="animate16" fill="freeze"/></rect><rect x="90" y="114" width="30" height="38" id="rect-17" fill="transparent" stroke="#000000"><set attributeName="y" to="76" begin="0; animate27.end + 1s" /><animate attributeName="y" from="76" to="114" dur="0.141" begin="animate16.end + 0.5" id="animate17" fill="freeze"/></rect><rect x="99" y="139" width="18" height="12" id="rect-18" fill="transparent" stroke="#000000"><set attributeName="x" to="81" begin="0; animate27.end + 1s" /><animate attributeName="x" from="81" to="99" dur="0.067" begin="animate17.end" id="animate18" fill="freeze"/></rect><rect x="92" y="123" width="47" height="58" id="rect-19" fill="transparent" stroke="#000000"><set attributeName="y" to="65" begin="0; animate27.end + 1s" /><animate attributeName="y" from="65" to="123" dur="0.215" begin="animate18.end + 0.5" id="animate19" fill="freeze"/></rect><rect x="102" y="164" width="27" height="15" id="rect-20" fill="transparent" stroke="#000000"><set attributeName="x" to="75" begin="0; animate27.end + 1s" /><animate attributeName="x" from="75" to="102" dur="0.100" begin="animate19.end" id="animate20" fill="freeze"/></rect><rect x="123" y="153" width="18" height="25" id="rect-21" fill="transparent" stroke="#000000"><set attributeName="y" to="128" begin="0; animate27.end + 1s" /><animate attributeName="y" from="128" to="153" dur="0.093" begin="animate20.end + 0.5" id="animate21" fill="freeze"/></rect><rect x="17" y="34" width="30" height="193" id="rect-22" fill="transparent" stroke="#000000"><set attributeName="y" to="-159" begin="0; animate27.end + 1s" /><animate attributeName="y" from="-159" to="34" dur="0.715" begin="animate21.end + 0.5" id="animate22" fill="freeze"/></rect><rect x="32" y="187" width="90" height="37" id="rect-23" fill="transparent" stroke="#000000"><set attributeName="x" to="-58" begin="0; animate27.end + 1s" /><animate attributeName="x" from="-58" to="32" dur="0.333" begin="animate22.end" id="animate23" fill="freeze"/></rect><rect x="166" y="34" width="61" height="39" id="rect-24" fill="transparent" stroke="#000000"><set attributeName="x" to="227" begin="0; animate27.end + 1s" /><animate attributeName="x" from="227" to="166" dur="0.226" begin="animate23.end + 0.5" id="animate24" fill="freeze"/></rect><rect x="112" y="63" width="57" height="159" id="rect-25" fill="transparent" stroke="#000000"><set attributeName="y" to="-96" begin="0; animate27.end + 1s" /><animate attributeName="y" from="-96" to="63" dur="0.589" begin="animate24.end + 0.5" id="animate25" fill="freeze"/></rect><rect x="167" y="85" width="85" height="28" id="rect-26" fill="transparent" stroke="#000000"><set attributeName="x" to="82" begin="0; animate27.end + 1s" /><animate attributeName="x" from="82" to="167" dur="0.315" begin="animate25.end + 0.5" id="animate26" fill="freeze"/></rect><rect x="190" y="104" width="23" height="150" id="rect-27" fill="transparent" stroke="#000000"><set attributeName="y" to="-46" begin="0; animate27.end + 1s" /><animate attributeName="y" from="-46" to="104" dur="0.556" begin="animate26.end + 0.5" id="animate27" fill="freeze"/></rect></svg>