<svg xmlns="http://www.w3.org/2000/svg" xmlns:xlink="http://www.w3.org/1999/xlink" width="270" height="270"><defs><clipPath id="clip-mask-1"><use xlink:href="#rect-1" /></clipPath><clipPath id="clip-mask-2"><use xlink:href="#rect-2" /></clipPath><clipPath id="clip-mask-3"><use xlink:href="#rect-3" /></clipPath><clipPath id="clip-mask-4"><use xlink:href="#rect-4" /></clipPath><clipPath id="clip-mask-5"><use xlink:href="#rect-5" /></clipPath><clipPath id="clip-mask-6"><use xlink:href="#rect-6" /></clipPath><clipPath id="clip-mask-7"><use xlink:href="#rect-7" /></clipPath><clipPath id="clip-mask-8"><use xlink:href="#rect-8" /></clipPath><clipPath id="clip-mask-9"><use xlink:href="#rect-9" /></clipPath><clipPath id="clip-mask-10"><use xlink:href="#rect-10" /></clipPath><clipPath id="clip-mask-11"><use xlink:href="#rect-11" /></clipPath><clipPath id="clip-mask-12"><use xlink:href="#rect-12" /></clipPath><clipPath id="clip-mask-13"><use xlink:href="#rect-13" /></clipPath><clipPath id="clip-mask-14"><use xlink:href="#rect-14" /></clipPath><clipPath id="clip-mask-15"><use xlink:href="#rect-15" /></clipPath><clipPath id="clip-mask-16"><use xlink:href="#rect-16" /></clipPath></defs><path d="M 0 0 L 270 270 M 270 0 L 0 270 M 135 0 L 135 270 M 0 135 L 270 135" stroke="#CCCCCC" /><path d="M 72 45 L 71 42 Q 70 39 72 38 Q 76 36 95 42 Q 103 46 105 51 Q 107 59 106 63 Q 105 67 102 67 Q 98 67 94 64 Q 86 57 79 51" fill="#CCCCCC"/><path d="M 71 107 Q 59 110 45 115 Q 33 119 23 113 Q 19 111 20 108 Q 21 106 24 106 Q 49 102 102 88 Q 107 87 114 90 Q 118 92 118 95 Q 118 97 114 98 Q 96 100 81 104" fill="#CCCCCC"/><path d="M 81 132 L 80 133 Q 72 147 60 163 Q 59 164 59 165 Q 31 197 18 200 Q 17 199 17 198 Q 17 196 18 195 Q 35 179 47 162 Q 76 123 71 108 Q 71 107 71 107 L 81 104 Q 85 107 89 113 Q 91 117 89 120 Q 87 121 85 124 L 81 132" fill="#CCCCCC"/><path d="M 85 124 Q 86 124 87 125 Q 89 125 90 125 Q 106 127 111 133 Q 116 139 116 142 L 96 138 Q 93 134 81 132" fill="#CCCCCC"/><path d="M 116 142 Q 116 144 113 145 Q 107 149 103 170 Q 97 190 93 203 Q 86 217 79 223 Q 72 228 69 226 L 72 204 Q 76 203 78 200 Q 82 195 87 181 Q 98 144 96 138" fill="#CCCCCC"/><path d="M 69 226 Q 66 225 65 221 Q 63 212 54 204 Q 51 201 52 199 Q 53 197 61 202 Q 69 205 72 204" fill="#CCCCCC"/><path d="M 130 84 L 126 85 Q 123 86 124 83 Q 124 82 126 79 Q 134 67 139 56 Q 151 33 147 26 Q 145 21 149 21 Q 153 21 159 24 Q 165 28 166 31 Q 168 34 166 36 Q 161 41 155 52 L 151 58" fill="#CCCCCC"/><path d="M 155 52 Q 173 48 185 45 Q 203 39 211 40 Q 218 42 220 44 Q 221 47 219 48 Q 218 50 210 52 Q 192 56 175 60 Q 161 64 151 58" fill="#CCCCCC"/><path d="M 145 114 Q 137 114 129 110 Q 123 106 131 105 Q 138 104 145 104 L 158 102 Q 172 99 191 94 L 207 89 Q 213 86 220 87 Q 226 89 228 92 Q 229 94 227 95 Q 227 96 205 102 L 191 105 Q 173 108 157 111" fill="#CCCCCC"/><path d="M 145 132 L 145 114 L 145 104 Q 145 96 140 86 Q 139 83 141 82 Q 144 81 146 82 Q 152 84 157 90 Q 159 92 158 102 L 157 111 Q 157 119 157 127 L 157 135 Q 157 143 156 152 L 156 159 Q 156 168 156 178 L 145 179" fill="#CCCCCC"/><path d="M 191 94 Q 191 79 185 70 Q 183 66 185 65 Q 187 62 191 63 Q 197 65 206 69 Q 211 73 210 76 Q 207 83 207 89 L 205 102 Q 203 135 200 171 L 189 173 Q 191 136 191 105" fill="#CCCCCC"/><path d="M 157 127 Q 166 122 176 122 Q 181 123 184 126 Q 186 129 181 130 Q 170 132 157 135" fill="#CCCCCC"/><path d="M 156 152 Q 168 146 177 146 Q 183 147 185 150 Q 187 153 182 154 Q 171 156 156 159" fill="#CCCCCC"/><path d="M 200 171 Q 210 169 219 167 Q 235 162 248 173 Q 252 176 251 179 Q 250 181 245 181 Q 172 181 130 193 Q 126 194 121 193 Q 116 192 113 188 Q 109 184 114 183 Q 130 181 145 179 L 156 178 Q 166 176 176 175 Q 183 174 189 173" fill="#CCCCCC"/><path d="M 143 195 L 145 195 Q 148 195 155 198 Q 161 200 162 203 Q 163 206 160 209 Q 148 217 147 220 Q 117 246 101 246 Q 94 246 99 243 Q 138 215 142 199" fill="#CCCCCC"/><path d="M 190 201 L 190 197 Q 191 194 193 196 Q 230 216 231 232 Q 233 244 229 247 Q 226 248 225 248 Q 221 246 218 241 Q 204 219 191 203" fill="#CCCCCC"/><path d="M 72 45 L 71 42 Q 70 39 72 38 Q 76 36 95 42 Q 103 46 105 51 Q 107 59 106 63 Q 105 67 102 67 Q 98 67 94 64 Q 86 57 79 51" fill="#0000ff" clip-path="url(#clip-mask-1)" /><path d="M 71 107 Q 59 110 45 115 Q 33 119 23 113 Q 19 111 20 108 Q 21 106 24 106 Q 49 102 102 88 Q 107 87 114 90 Q 118 92 118 95 Q 118 97 114 98 Q 96 100 81 104" fill="#0000ff" clip-path="url(#clip-mask-2)" /><path d="M 81 132 L 80 133 Q 72 147 60 163 Q 59 164 59 165 Q 31 197 18 200 Q 17 199 17 198 Q 17 196 18 195 Q 35 179 47 162 Q 76 123 71 108 Q 71 107 71 107 L 81 104 Q 85 107 89 113 Q 91 117 89 120 Q 87 121 85 124 L 81 132" fill="#0000ff" clip-path="url(#clip-mask-3)" /><path d="M 85 124 Q 86 124 87 125 Q 89 125 90 125 Q 106 127 111 133 Q 116 139 116 142 L 96 138 Q 93 134 81 132" fill="#0000ff" clip-path="url(#clip-mask-4)" /><path d="M 116 142 Q 116 144 113 145 Q 107 149 103 170 Q 97 190 93 203 Q 86 217 79 223 Q 72 228 69 226 L 72 204 Q 76 203 78 200 Q 82 195 87 181 Q 98 144 96 138" fill="#0000ff" clip-path="url(#clip-mask-5)" /><path d="M 69 226 Q 66 225 65 221 Q 63 212 54 204 Q 51 201 52 199 Q 53 197 61 202 Q 69 205 72 204" fill="#0000ff" clip-path="url(#clip-mask-6)" /><path d="M 130 84 L 126 85 Q 123 86 124 83 Q 124 82 126 79 Q 134 67 139 56 Q 151 33 147 26 Q 145 21 149 21 Q 153 21 159 24 Q 165 28 166 31 Q 168 34 166 36 Q 161 41 155 52 L 151 58" fill="#000080" clip-path="url(#clip-mask-7)" /><path d="M 155 52 Q 173 48 185 45 Q 203 39 211 40 Q 218 42 220 44 Q 221 47 219 48 Q 218 50 210 52 Q 192 56 175 60 Q 161 64 151 58" fill="#000080" clip-path="url(#clip-mask-8)" /><path d="M 145 114 Q 137 114 129 110 Q 123 106 131 105 Q 138 104 145 104 L 158 102 Q 172 99 191 94 L 207 89 Q 213 86 220 87 Q 226 89 228 92 Q 229 94 227 95 Q 227 96 205 102 L 191 105 Q 173 108 157 111" fill="#000080" clip-path="url(#clip-mask-9)" /><path d="M 145 132 L 145 114 L 145 104 Q 145 96 140 86 Q 139 83 141 82 Q 144 81 146 82 Q 152 84 157 90 Q 159 92 158 102 L 157 111 Q 157 119 157 127 L 157 135 Q 157 143 156 152 L 156 159 Q 156 168 156 178 L 145 179" fill="#000080" clip-path="url(#clip-mask-10)" /><path d="M 191 94 Q 191 79 185 70 Q 183 66 185 65 Q 187 62 191 63 Q 197 65 206 69 Q 211 73 210 76 Q 207 83 207 89 L 205 102 Q 203 135 200 171 L 189 173 Q 191 136 191 105" fill="#000080" clip-path="url(#clip-mask-11)" /><path d="M 157 127 Q 166 122 176 122 Q 181 123 184 126 Q 186 129 181 130 Q 170 132 157 135" fill="#000080" clip-path="url(#clip-mask-12)" /><path d="M 156 152 Q 168 146 177 146 Q 183 147 185 150 Q 187 153 182 154 Q 171 156 156 159" fill="#000080" clip-path="url(#clip-mask-13)" /><path d="M 200 171 Q 210 169 219 167 Q 235 162 248 173 Q 252 176 251 179 Q 250 181 245 181 Q 172 181 130 193 Q 126 194 121 193 Q 116 192 113 188 Q 109 184 114 183 Q 130 181 145 179 L 156 178 Q 166 176 176 175 Q 183 174 189 173" fill="#000080" clip-path="url(#clip-mask-14)" /><path d="M 143 195 L 145 195 Q 148 195 155 198 Q 161 200 162 203 Q 163 206 160 209 Q 148 217 147 220 Q 117 246 101 246 Q 94 246 99 243 Q 138 215 142 199" fill="#000080" clip-path="url(#clip-mask-15)" /><path d="M 190 201 L 190 197 Q 191 194 193 196 Q 230 216 231 232 Q 233 244 229 247 Q 226 248 225 248 Q 221 246 218 241 Q 204 219 191 203" fill="#000080" clip-path="url(#clip-mask-16)" /><rect x="70" y="36" width="37" height="31" id="rect-1" fill="transparent" stroke="#000000"><animate attributeName="x" from="33" to="70" dur="0.137" begin="0; animate16.end + 1s" id="animate1" fill="freeze"/></rect><rect x="19" y="87" width="99" height="32" id="rect-2" fill="transparent" stroke="#000000"><set attributeName="x" to="-80" begin="0; animate16.end + 1s" /><animate attributeName="x" from="-80" to="19" dur="0.367" begin="animate1.end + 0.5" id="animate2" fill="freeze"/></rect><rect x="17" y="104" width="74" height="96" id="rect-3" fill="transparent" stroke="#000000"><set attributeName="y" to="8" begin="0; animate16.end + 1s" /><animate attributeName="y" from="8" to="104" dur="0.356" begin="animate2.end + 0.5" id="animate3" fill="freeze"/></rect><rect x="81" y="124" width="35" height="18" id="rect-4" fill="transparent" stroke="#000000"><set attributeName="x" to="46" begin="0; animate16.end + 1s" /><animate attributeName="x" from="46" to="81" dur="0.130" begin="animate3.end + 0.5" id="animate4" fill="freeze"/></rect><rect x="69" y="138" width="47" height="90" id="rect-5" fill="transparent" stroke="#000000"><set attributeName="y" to="48" begin="0; animate16.end + 1s" /><animate attributeName="y" from="48" to="138" dur="0.333" begin="animate4.end" id="animate5" fill="freeze"/></rect><rect x="51" y="197" width="21" height="29" id="rect-6" fill="transparent" stroke="#000000"><set attributeName="x" to="72" begin="0; animate16.end + 1s" /><animate attributeName="x" from="72" to="51" dur="0.078" begin="animate5.end" id="animate6" fill="freeze"/></rect><rect x="123" y="21" width="45" height="65" id="rect-7" fill="transparent" stroke="#000000"><set attributeName="y" to="-44" begin="0; animate16.end + 1s" /><animate attributeName="y" from="-44" to="21" dur="0.241" begin="animate6.end + 0.5" id="animate7" fill="freeze"/></rect><rect x="151" y="39" width="70" height="25" id="rect-8" fill="transparent" stroke="#000000"><set attributeName="x" to="81" begin="0; animate16.end + 1s" /><animate attributeName="x" from="81" to="151" dur="0.259" begin="animate7.end + 0.5" id="animate8" fill="freeze"/></rect><rect x="123" y="86" width="106" height="28" id="rect-9" fill="transparent" stroke="#000000"><set attributeName="x" to="17" begin="0; animate16.end + 1s" /><animate attributeName="x" from="17" to="123" dur="0.393" begin="animate8.end + 0.5" id="animate9" fill="freeze"/></rect><rect x="139" y="81" width="20" height="98" id="rect-10" fill="transparent" stroke="#000000"><set attributeName="y" to="-17" begin="0; animate16.end + 1s" /><animate attributeName="y" from="-17" to="81" dur="0.363" begin="animate9.end + 0.5" id="animate10" fill="freeze"/></rect><rect x="183" y="62" width="28" height="111" id="rect-11" fill="transparent" stroke="#000000"><set attributeName="y" to="-49" begin="0; animate16.end + 1s" /><animate attributeName="y" from="-49" to="62" dur="0.411" begin="animate10.end + 0.5" id="animate11" fill="freeze"/></rect><rect x="157" y="122" width="29" height="13" id="rect-12" fill="transparent" stroke="#000000"><set attributeName="x" to="128" begin="0; animate16.end + 1s" /><animate attributeName="x" from="128" to="157" dur="0.107" begin="animate11.end + 0.5" id="animate12" fill="freeze"/></rect><rect x="156" y="146" width="31" height="13" id="rect-13" fill="transparent" stroke="#000000"><set attributeName="x" to="125" begin="0; animate16.end + 1s" /><animate attributeName="x" from="125" to="156" dur="0.115" begin="animate12.end + 0.5" id="animate13" fill="freeze"/></rect><rect x="109" y="162" width="143" height="32" id="rect-14" fill="transparent" stroke="#000000"><set attributeName="x" to="-34" begin="0; animate16.end + 1s" /><animate attributeName="x" from="-34" to="109" dur="0.530" begin="animate13.end + 0.5" id="animate14" fill="freeze"/></rect><rect x="94" y="195" width="69" height="51" id="rect-15" fill="transparent" stroke="#000000"><set attributeName="y" to="144" begin="0; animate16.end + 1s" /><animate attributeName="y" from="144" to="195" dur="0.189" begin="animate14.end + 0.5" id="animate15" fill="freeze"/></rect><rect x="190" y="194" width="43" height="54" id="rect-16" fill="transparent" stroke="#000000"><set attributeName="x" to="147" begin="0; animate16.end + 1s" /><animate attributeName="x" from="147" to="190" dur="0.159" begin="animate15.end + 0.5" id="animate16" fill="freeze"/></rect></svg>