<svg xmlns="http://www.w3.org/2000/svg" xmlns:xlink="http://www.w3.org/1999/xlink" width="270" height="270"><defs><clipPath id="clip-mask-1"><use xlink:href="#rect-1" /></clipPath><clipPath id="clip-mask-2"><use xlink:href="#rect-2" /></clipPath><clipPath id="clip-mask-3"><use xlink:href="#rect-3" /></clipPath><clipPath id="clip-mask-4"><use xlink:href="#rect-4" /></clipPath><clipPath id="clip-mask-5"><use xlink:href="#rect-5" /></clipPath><clipPath id="clip-mask-6"><use xlink:href="#rect-6" /></clipPath><clipPath id="clip-mask-7"><use xlink:href="#rect-7" /></clipPath></defs><path d="M 0 0 L 270 270 M 270 0 L 0 270 M 135 0 L 135 270 M 0 135 L 270 135" stroke="#CCCCCC" /><path d="M 105 106 Q 104 111 101 111 Q 100 110 100 110 Q 89 104 87 86 Q 83 51 72 35 Q 69 32 71 30 Q 72 29 74 29 Q 81 31 88 35 L 95 43 Q 96 54 98 68 L 99 75 Q 100 80 101 84 Q 104 91 105 98" fill="#CCCCCC"/><path d="M 172 32 Q 169 30 161 31 Q 115 37 95 43 L 88 35 Q 157 22 163 21 Q 179 17 184 21 Q 199 30 204 35" fill="#CCCCCC"/><path d="M 159 92 Q 159 90 160 89 Q 164 82 173 44 Q 175 34 172 32 L 204 35 Q 208 41 202 45 Q 191 54 184 69 Q 176 95 171 100 Q 169 105 164 105 Q 161 105 159 100" fill="#CCCCCC"/><path d="M 98 68 Q 112 64 128 59 Q 139 56 145 57 Q 153 58 155 63 Q 157 66 151 67 Q 131 70 104 75 Q 101 75 99 75" fill="#CCCCCC"/><path d="M 120 104 Q 111 105 106 106 Q 105 106 105 106 L 105 98 Q 123 95 146 90 Q 153 89 157 91 Q 158 91 159 92 L 159 100 Q 146 101 135 102" fill="#CCCCCC"/><path d="M 71 148 L 44 158 Q 35 161 23 152 Q 18 148 18 145 Q 19 142 22 142 Q 43 142 69 139 Q 93 136 124 133 L 139 132 Q 162 129 189 127 Q 202 126 212 123 Q 229 118 248 135 Q 251 138 249 142 Q 247 144 241 143 Q 187 136 139 143 L 124 144" fill="#CCCCCC"/><path d="M 124 133 Q 124 132 124 132 Q 124 114 120 104 L 135 102 Q 137 103 140 105 Q 143 108 142 112 Q 140 124 140 131 Q 139 131 139 132 L 139 143 Q 136 231 136 233 Q 134 248 130 251 Q 128 252 126 250 Q 125 248 125 247 Q 122 241 124 144" fill="#CCCCCC"/><path d="M 105 106 Q 104 111 101 111 Q 100 110 100 110 Q 89 104 87 86 Q 83 51 72 35 Q 69 32 71 30 Q 72 29 74 29 Q 81 31 88 35 L 95 43 Q 96 54 98 68 L 99 75 Q 100 80 101 84 Q 104 91 105 98" fill="#0000ff" clip-path="url(#clip-mask-1)" /><path d="M 172 32 Q 169 30 161 31 Q 115 37 95 43 L 88 35 Q 157 22 163 21 Q 179 17 184 21 Q 199 30 204 35" fill="#0000ff" clip-path="url(#clip-mask-2)" /><path d="M 159 92 Q 159 90 160 89 Q 164 82 173 44 Q 175 34 172 32 L 204 35 Q 208 41 202 45 Q 191 54 184 69 Q 176 95 171 100 Q 169 105 164 105 Q 161 105 159 100" fill="#0000ff" clip-path="url(#clip-mask-3)" /><path d="M 98 68 Q 112 64 128 59 Q 139 56 145 57 Q 153 58 155 63 Q 157 66 151 67 Q 131 70 104 75 Q 101 75 99 75" fill="#0000ff" clip-path="url(#clip-mask-4)" /><path d="M 120 104 Q 111 105 106 106 Q 105 106 105 106 L 105 98 Q 123 95 146 90 Q 153 89 157 91 Q 158 91 159 92 L 159 100 Q 146 101 135 102" fill="#0000ff" clip-path="url(#clip-mask-5)" /><path d="M 71 148 L 44 158 Q 35 161 23 152 Q 18 148 18 145 Q 19 142 22 142 Q 43 142 69 139 Q 93 136 124 133 L 139 132 Q 162 129 189 127 Q 202 126 212 123 Q 229 118 248 135 Q 251 138 249 142 Q 247 144 241 143 Q 187 136 139 143 L 124 144" fill="#000080" clip-path="url(#clip-mask-6)" /><path d="M 124 133 Q 124 132 124 132 Q 124 114 120 104 L 135 102 Q 137 103 140 105 Q 143 108 142 112 Q 140 124 140 131 Q 139 131 139 132 L 139 143 Q 136 231 136 233 Q 134 248 130 251 Q 128 252 126 250 Q 125 248 125 247 Q 122 241 124 144" fill="#000080" clip-path="url(#clip-mask-7)" /><rect x="69" y="29" width="36" height="82" id="rect-1" fill="transparent" stroke="#000000"><animate attributeName="y" from="-53" to="29" dur="0.304" begin="0; animate7.end + 1s" id="animate1" fill="freeze"/></rect><rect x="88" y="17" width="116" height="26" id="rect-2" fill="transparent" stroke="#000000"><set attributeName="x" to="-28" begin="0; animate7.end + 1s" /><animate attributeName="x" from="-28" to="88" dur="0.430" begin="animate1.end + 0.5" id="animate2" fill="freeze"/></rect><rect x="159" y="32" width="49" height="73" id="rect-3" fill="transparent" stroke="#000000"><set attributeName="y" to="-41" begin="0; animate7.end + 1s" /><animate attributeName="y" from="-41" to="32" dur="0.270" begin="animate2.end" id="animate3" fill="freeze"/></rect><rect x="98" y="56" width="59" height="19" id="rect-4" fill="transparent" stroke="#000000"><set attributeName="x" to="39" begin="0; animate7.end + 1s" /><animate attributeName="x" from="39" to="98" dur="0.219" begin="animate3.end + 0.5" id="animate4" fill="freeze"/></rect><rect x="105" y="89" width="54" height="17" id="rect-5" fill="transparent" stroke="#000000"><set attributeName="x" to="51" begin="0; animate7.end + 1s" /><animate attributeName="x" from="51" to="105" dur="0.200" begin="animate4.end + 0.5" id="animate5" fill="freeze"/></rect><rect x="18" y="118" width="233" height="43" id="rect-6" fill="transparent" stroke="#000000"><set attributeName="x" to="-215" begin="0; animate7.end + 1s" /><animate attributeName="x" from="-215" to="18" dur="0.863" begin="animate5.end + 0.5" id="animate6" fill="freeze"/></rect><rect x="120" y="102" width="23" height="150" id="rect-7" fill="transparent" stroke="#000000"><set attributeName="y" to="-48" begin="0; animate7.end + 1s" /><animate attributeName="y" from="-48" to="102" dur="0.556" begin="animate6.end + 0.5" id="animate7" fill="freeze"/></rect></svg>