<svg xmlns="http://www.w3.org/2000/svg" xmlns:xlink="http://www.w3.org/1999/xlink" width="270" height="270"><defs><clipPath id="clip-mask-1"><use xlink:href="#rect-1" /></clipPath><clipPath id="clip-mask-2"><use xlink:href="#rect-2" /></clipPath><clipPath id="clip-mask-3"><use xlink:href="#rect-3" /></clipPath><clipPath id="clip-mask-4"><use xlink:href="#rect-4" /></clipPath><clipPath id="clip-mask-5"><use xlink:href="#rect-5" /></clipPath><clipPath id="clip-mask-6"><use xlink:href="#rect-6" /></clipPath><clipPath id="clip-mask-7"><use xlink:href="#rect-7" /></clipPath><clipPath id="clip-mask-8"><use xlink:href="#rect-8" /></clipPath><clipPath id="clip-mask-9"><use xlink:href="#rect-9" /></clipPath><clipPath id="clip-mask-10"><use xlink:href="#rect-10" /></clipPath><clipPath id="clip-mask-11"><use xlink:href="#rect-11" /></clipPath><clipPath id="clip-mask-12"><use xlink:href="#rect-12" /></clipPath><clipPath id="clip-mask-13"><use xlink:href="#rect-13" /></clipPath><clipPath id="clip-mask-14"><use xlink:href="#rect-14" /></clipPath><clipPath id="clip-mask-15"><use xlink:href="#rect-15" /></clipPath><clipPath id="clip-mask-16"><use xlink:href="#rect-16" /></clipPath></defs><path d="M 0 0 L 270 270 M 270 0 L 0 270 M 135 0 L 135 270 M 0 135 L 270 135" stroke="#CCCCCC" /><path d="M 39 193 Q 39 193 39 193 Q 39 199 35 203 Q 33 206 30 203 Q 26 199 24 192 Q 22 186 24 178 Q 29 160 29 145 Q 30 108 29 88 Q 28 75 25 68 Q 24 65 23 62 Q 21 59 23 58 Q 26 57 29 58 Q 32 59 35 61 Q 36 62 37 62 L 41 69 Q 41 71 41 74 Q 40 77 40 119 L 40 128 Q 40 128 40 128 Q 40 146 40 171 Q 40 179 39 185" fill="#CCCCCC"/><path d="M 65 66 Q 63 64 57 65 Q 51 67 45 68 Q 43 69 41 69 L 37 62 Q 47 60 60 54 Q 65 51 71 54 Q 83 58 85 61" fill="#CCCCCC"/><path d="M 84 184 L 80 194 Q 77 203 73 203 Q 72 204 67 198 L 67 176 Q 69 143 69 84 Q 69 69 65 66 L 85 61 Q 87 63 85 68 Q 81 75 81 90 Q 81 145 83 171" fill="#CCCCCC"/><path d="M 67 198 Q 65 194 62 190 L 65 181 Q 66 181 66 181 Q 67 180 67 176" fill="#CCCCCC"/><path d="M 40 119 Q 48 116 54 116 Q 61 116 64 120 Q 67 123 61 125 Q 52 126 40 128" fill="#CCCCCC"/><path d="M 62 190 Q 51 191 39 193 L 39 185 Q 44 183 50 182 Q 60 180 65 181" fill="#CCCCCC"/><path d="M 166 27 L 166 24 Q 167 21 168 20 Q 171 20 175 22 Q 185 26 189 30 Q 192 33 191 35 Q 190 37 186 37 Q 177 38 167 42 Q 156 48 141 51 Q 126 55 119 56 Q 116 57 115 57 Q 114 56 115 54 Q 135 46 148 39 Q 158 33 163 29" fill="#CCCCCC"/><path d="M 104 76 L 104 73 Q 104 70 105 70 Q 107 70 110 71 Q 115 75 120 78 Q 125 82 125 86 Q 125 92 123 95 Q 121 97 119 97 Q 116 96 114 92 Q 111 86 108 81" fill="#CCCCCC"/><path d="M 136 66 L 136 64 Q 137 62 139 63 Q 142 65 149 70 Q 154 74 155 78 Q 156 83 155 85 Q 153 89 150 88 Q 147 86 144 82 Q 140 76 137 68" fill="#CCCCCC"/><path d="M 196 55 L 196 50 Q 195 47 198 47 Q 201 47 207 50 Q 213 55 216 59 Q 218 63 213 65 Q 207 68 202 71 Q 197 73 192 76 Q 185 80 174 85 Q 170 85 173 82 Q 179 75 184 69 Q 189 65 193 59" fill="#CCCCCC"/><path d="M 128 118 Q 124 118 120 118 Q 114 117 111 115 Q 105 111 113 110 Q 130 108 145 104 Q 159 101 171 96 Q 177 94 184 95 Q 190 96 192 99 Q 193 101 191 103 Q 189 104 179 107 Q 159 111 140 116" fill="#CCCCCC"/><path d="M 143 140 L 138 142 L 122 145 Q 115 146 109 148 Q 105 150 101 149 Q 97 148 93 144 Q 90 140 94 140 Q 110 137 125 135 L 142 132 Q 147 131 153 130 Q 183 125 201 120 Q 205 119 209 120 Q 215 122 221 126 Q 225 130 224 132 Q 222 134 218 134 Q 213 135 208 135 Q 171 136 149 140" fill="#CCCCCC"/><path d="M 120 182 Q 111 197 102 209 Q 90 223 78 230 Q 75 233 71 235 Q 66 238 64 238 Q 61 238 62 235 Q 63 234 65 233 Q 71 227 78 220 Q 89 209 99 194 Q 107 183 113 169 Q 118 157 122 145 L 125 135 Q 127 130 128 125 Q 129 122 128 119 Q 128 118 128 118 L 140 116 Q 144 119 146 122 Q 146 126 144 129 Q 142 131 142 132 L 138 142 Q 136 145 135 148 Q 132 155 130 162 L 128 167 L 127 167 Q 125 172 123 176" fill="#CCCCCC"/><path d="M 168 166 Q 167 162 163 163 Q 153 165 143 168 Q 134 171 128 167 L 130 162 Q 132 162 135 161 Q 152 158 165 152 Q 170 150 175 151 Q 183 155 188 159 Q 192 163 188 166" fill="#CCCCCC"/><path d="M 168 173 L 168 166 L 188 166 Q 183 171 181 179 Q 175 197 166 209 L 158 217 Q 150 224 141 228 Q 128 234 107 236 Q 100 237 98 235 Q 95 233 99 232 Q 133 223 146 213 Q 148 211 149 209 L 155 201 Q 160 194 163 186" fill="#CCCCCC"/><path d="M 166 209 Q 171 213 177 217 Q 187 223 203 228 Q 210 230 222 233 Q 230 234 238 236 Q 247 239 247 240 Q 248 242 239 244 Q 222 247 201 248 Q 194 249 189 245 Q 171 231 158 217 L 149 209 Q 138 197 128 189 Q 125 185 120 182 L 123 176 Q 129 178 135 183 Q 145 193 155 201" fill="#CCCCCC"/><path d="M 39 193 Q 39 193 39 193 Q 39 199 35 203 Q 33 206 30 203 Q 26 199 24 192 Q 22 186 24 178 Q 29 160 29 145 Q 30 108 29 88 Q 28 75 25 68 Q 24 65 23 62 Q 21 59 23 58 Q 26 57 29 58 Q 32 59 35 61 Q 36 62 37 62 L 41 69 Q 41 71 41 74 Q 40 77 40 119 L 40 128 Q 40 128 40 128 Q 40 146 40 171 Q 40 179 39 185" fill="#0000ff" clip-path="url(#clip-mask-1)" /><path d="M 65 66 Q 63 64 57 65 Q 51 67 45 68 Q 43 69 41 69 L 37 62 Q 47 60 60 54 Q 65 51 71 54 Q 83 58 85 61" fill="#0000ff" clip-path="url(#clip-mask-2)" /><path d="M 84 184 L 80 194 Q 77 203 73 203 Q 72 204 67 198 L 67 176 Q 69 143 69 84 Q 69 69 65 66 L 85 61 Q 87 63 85 68 Q 81 75 81 90 Q 81 145 83 171" fill="#0000ff" clip-path="url(#clip-mask-3)" /><path d="M 67 198 Q 65 194 62 190 L 65 181 Q 66 181 66 181 Q 67 180 67 176" fill="#0000ff" clip-path="url(#clip-mask-4)" /><path d="M 40 119 Q 48 116 54 116 Q 61 116 64 120 Q 67 123 61 125 Q 52 126 40 128" fill="#0000ff" clip-path="url(#clip-mask-5)" /><path d="M 62 190 Q 51 191 39 193 L 39 185 Q 44 183 50 182 Q 60 180 65 181" fill="#0000ff" clip-path="url(#clip-mask-6)" /><path d="M 166 27 L 166 24 Q 167 21 168 20 Q 171 20 175 22 Q 185 26 189 30 Q 192 33 191 35 Q 190 37 186 37 Q 177 38 167 42 Q 156 48 141 51 Q 126 55 119 56 Q 116 57 115 57 Q 114 56 115 54 Q 135 46 148 39 Q 158 33 163 29" fill="#000080" clip-path="url(#clip-mask-7)" /><path d="M 104 76 L 104 73 Q 104 70 105 70 Q 107 70 110 71 Q 115 75 120 78 Q 125 82 125 86 Q 125 92 123 95 Q 121 97 119 97 Q 116 96 114 92 Q 111 86 108 81" fill="#000080" clip-path="url(#clip-mask-8)" /><path d="M 136 66 L 136 64 Q 137 62 139 63 Q 142 65 149 70 Q 154 74 155 78 Q 156 83 155 85 Q 153 89 150 88 Q 147 86 144 82 Q 140 76 137 68" fill="#000080" clip-path="url(#clip-mask-9)" /><path d="M 196 55 L 196 50 Q 195 47 198 47 Q 201 47 207 50 Q 213 55 216 59 Q 218 63 213 65 Q 207 68 202 71 Q 197 73 192 76 Q 185 80 174 85 Q 170 85 173 82 Q 179 75 184 69 Q 189 65 193 59" fill="#000080" clip-path="url(#clip-mask-10)" /><path d="M 128 118 Q 124 118 120 118 Q 114 117 111 115 Q 105 111 113 110 Q 130 108 145 104 Q 159 101 171 96 Q 177 94 184 95 Q 190 96 192 99 Q 193 101 191 103 Q 189 104 179 107 Q 159 111 140 116" fill="#000080" clip-path="url(#clip-mask-11)" /><path d="M 143 140 L 138 142 L 122 145 Q 115 146 109 148 Q 105 150 101 149 Q 97 148 93 144 Q 90 140 94 140 Q 110 137 125 135 L 142 132 Q 147 131 153 130 Q 183 125 201 120 Q 205 119 209 120 Q 215 122 221 126 Q 225 130 224 132 Q 222 134 218 134 Q 213 135 208 135 Q 171 136 149 140" fill="#000080" clip-path="url(#clip-mask-12)" /><path d="M 120 182 Q 111 197 102 209 Q 90 223 78 230 Q 75 233 71 235 Q 66 238 64 238 Q 61 238 62 235 Q 63 234 65 233 Q 71 227 78 220 Q 89 209 99 194 Q 107 183 113 169 Q 118 157 122 145 L 125 135 Q 127 130 128 125 Q 129 122 128 119 Q 128 118 128 118 L 140 116 Q 144 119 146 122 Q 146 126 144 129 Q 142 131 142 132 L 138 142 Q 136 145 135 148 Q 132 155 130 162 L 128 167 L 127 167 Q 125 172 123 176" fill="#000080" clip-path="url(#clip-mask-13)" /><path d="M 168 166 Q 167 162 163 163 Q 153 165 143 168 Q 134 171 128 167 L 130 162 Q 132 162 135 161 Q 152 158 165 152 Q 170 150 175 151 Q 183 155 188 159 Q 192 163 188 166" fill="#000080" clip-path="url(#clip-mask-14)" /><path d="M 168 173 L 168 166 L 188 166 Q 183 171 181 179 Q 175 197 166 209 L 158 217 Q 150 224 141 228 Q 128 234 107 236 Q 100 237 98 235 Q 95 233 99 232 Q 133 223 146 213 Q 148 211 149 209 L 155 201 Q 160 194 163 186" fill="#000080" clip-path="url(#clip-mask-15)" /><path d="M 166 209 Q 171 213 177 217 Q 187 223 203 228 Q 210 230 222 233 Q 230 234 238 236 Q 247 239 247 240 Q 248 242 239 244 Q 222 247 201 248 Q 194 249 189 245 Q 171 231 158 217 L 149 209 Q 138 197 128 189 Q 125 185 120 182 L 123 176 Q 129 178 135 183 Q 145 193 155 201" fill="#000080" clip-path="url(#clip-mask-16)" /><rect x="21" y="57" width="20" height="149" id="rect-1" fill="transparent" stroke="#000000"><animate attributeName="y" from="-92" to="57" dur="0.552" begin="0; animate16.end + 1s" id="animate1" fill="freeze"/></rect><rect x="37" y="51" width="48" height="18" id="rect-2" fill="transparent" stroke="#000000"><set attributeName="x" to="-11" begin="0; animate16.end + 1s" /><animate attributeName="x" from="-11" to="37" dur="0.178" begin="animate1.end + 0.5" id="animate2" fill="freeze"/></rect><rect x="65" y="61" width="22" height="143" id="rect-3" fill="transparent" stroke="#000000"><set attributeName="y" to="-82" begin="0; animate16.end + 1s" /><animate attributeName="y" from="-82" to="61" dur="0.530" begin="animate2.end" id="animate3" fill="freeze"/></rect><rect x="62" y="176" width="5" height="22" id="rect-4" fill="transparent" stroke="#000000"><set attributeName="x" to="67" begin="0; animate16.end + 1s" /><animate attributeName="x" from="67" to="62" dur="0.019" begin="animate3.end" id="animate4" fill="freeze"/></rect><rect x="40" y="116" width="27" height="12" id="rect-5" fill="transparent" stroke="#000000"><set attributeName="x" to="13" begin="0; animate16.end + 1s" /><animate attributeName="x" from="13" to="40" dur="0.100" begin="animate4.end + 0.5" id="animate5" fill="freeze"/></rect><rect x="39" y="180" width="26" height="13" id="rect-6" fill="transparent" stroke="#000000"><set attributeName="x" to="13" begin="0; animate16.end + 1s" /><animate attributeName="x" from="13" to="39" dur="0.096" begin="animate5.end + 0.5" id="animate6" fill="freeze"/></rect><rect x="114" y="20" width="78" height="37" id="rect-7" fill="transparent" stroke="#000000"><set attributeName="x" to="192" begin="0; animate16.end + 1s" /><animate attributeName="x" from="192" to="114" dur="0.289" begin="animate6.end + 0.5" id="animate7" fill="freeze"/></rect><rect x="104" y="70" width="21" height="27" id="rect-8" fill="transparent" stroke="#000000"><set attributeName="y" to="43" begin="0; animate16.end + 1s" /><animate attributeName="y" from="43" to="70" dur="0.100" begin="animate7.end + 0.5" id="animate8" fill="freeze"/></rect><rect x="136" y="62" width="20" height="27" id="rect-9" fill="transparent" stroke="#000000"><set attributeName="y" to="35" begin="0; animate16.end + 1s" /><animate attributeName="y" from="35" to="62" dur="0.100" begin="animate8.end + 0.5" id="animate9" fill="freeze"/></rect><rect x="170" y="47" width="48" height="38" id="rect-10" fill="transparent" stroke="#000000"><set attributeName="y" to="9" begin="0; animate16.end + 1s" /><animate attributeName="y" from="9" to="47" dur="0.141" begin="animate9.end + 0.5" id="animate10" fill="freeze"/></rect><rect x="105" y="94" width="88" height="24" id="rect-11" fill="transparent" stroke="#000000"><set attributeName="x" to="17" begin="0; animate16.end + 1s" /><animate attributeName="x" from="17" to="105" dur="0.326" begin="animate10.end + 0.5" id="animate11" fill="freeze"/></rect><rect x="90" y="119" width="135" height="31" id="rect-12" fill="transparent" stroke="#000000"><set attributeName="x" to="-45" begin="0; animate16.end + 1s" /><animate attributeName="x" from="-45" to="90" dur="0.500" begin="animate11.end + 0.5" id="animate12" fill="freeze"/></rect><rect x="61" y="116" width="85" height="122" id="rect-13" fill="transparent" stroke="#000000"><set attributeName="y" to="-6" begin="0; animate16.end + 1s" /><animate attributeName="y" from="-6" to="116" dur="0.452" begin="animate12.end + 0.5" id="animate13" fill="freeze"/></rect><rect x="128" y="150" width="64" height="21" id="rect-14" fill="transparent" stroke="#000000"><set attributeName="x" to="64" begin="0; animate16.end + 1s" /><animate attributeName="x" from="64" to="128" dur="0.237" begin="animate13.end + 0.5" id="animate14" fill="freeze"/></rect><rect x="95" y="166" width="93" height="71" id="rect-15" fill="transparent" stroke="#000000"><set attributeName="y" to="95" begin="0; animate16.end + 1s" /><animate attributeName="y" from="95" to="166" dur="0.263" begin="animate14.end" id="animate15" fill="freeze"/></rect><rect x="120" y="176" width="128" height="73" id="rect-16" fill="transparent" stroke="#000000"><set attributeName="x" to="-8" begin="0; animate16.end + 1s" /><animate attributeName="x" from="-8" to="120" dur="0.474" begin="animate15.end + 0.5" id="animate16" fill="freeze"/></rect></svg>