<svg xmlns="http://www.w3.org/2000/svg" xmlns:xlink="http://www.w3.org/1999/xlink" width="270" height="270"><defs><clipPath id="clip-mask-1"><use xlink:href="#rect-1" /></clipPath><clipPath id="clip-mask-2"><use xlink:href="#rect-2" /></clipPath><clipPath id="clip-mask-3"><use xlink:href="#rect-3" /></clipPath><clipPath id="clip-mask-4"><use xlink:href="#rect-4" /></clipPath><clipPath id="clip-mask-5"><use xlink:href="#rect-5" /></clipPath><clipPath id="clip-mask-6"><use xlink:href="#rect-6" /></clipPath><clipPath id="clip-mask-7"><use xlink:href="#rect-7" /></clipPath><clipPath id="clip-mask-8"><use xlink:href="#rect-8" /></clipPath><clipPath id="clip-mask-9"><use xlink:href="#rect-9" /></clipPath><clipPath id="clip-mask-10"><use xlink:href="#rect-10" /></clipPath><clipPath id="clip-mask-11"><use xlink:href="#rect-11" /></clipPath><clipPath id="clip-mask-12"><use xlink:href="#rect-12" /></clipPath><clipPath id="clip-mask-13"><use xlink:href="#rect-13" /></clipPath><clipPath id="clip-mask-14"><use xlink:href="#rect-14" /></clipPath><clipPath id="clip-mask-15"><use xlink:href="#rect-15" /></clipPath><clipPath id="clip-mask-16"><use xlink:href="#rect-16" /></clipPath></defs><path d="M 0 0 L 270 270 M 270 0 L 0 270 M 135 0 L 135 270 M 0 135 L 270 135" stroke="#CCCCCC" /><path d="M 106 69 L 90 84 Q 78 94 68 102 L 62 106 Q 59 108 57 109 Q 45 117 31 121 Q 23 125 20 125 Q 17 124 20 123 Q 53 100 67 88 Q 81 77 94 61 Q 106 48 114 30 Q 117 22 117 16 Q 116 13 119 12 Q 122 12 127 15 Q 133 17 136 21 Q 139 25 139 28 Q 139 31 137 32 Q 136 32 135 34 L 130 38" fill="#CCCCCC"/><path d="M 135 34 Q 140 38 147 44 Q 165 58 183 67 Q 197 76 216 82 Q 233 86 248 91 Q 252 93 251 95 Q 251 96 246 97 Q 228 101 210 101 Q 201 102 195 96 Q 161 69 130 38" fill="#CCCCCC"/><path d="M 111 77 L 118 75 Q 125 73 131 72 Q 138 69 145 70 Q 152 72 154 75 Q 155 77 153 78 Q 152 79 147 81 Q 135 83 123 85 Q 116 87 109 86 Q 103 85 100 83 Q 93 79 102 77" fill="#CCCCCC"/><path d="M 68 102 Q 74 103 77 104 L 81 113 Q 82 121 86 143 Q 87 146 87 148 L 87 153 Q 87 156 86 158 Q 85 163 80 157 Q 76 153 75 145 Q 70 122 63 108 Q 62 107 62 106" fill="#CCCCCC"/><path d="M 77 104 Q 91 103 109 99 Q 130 96 148 94 Q 162 92 171 90 Q 175 89 181 91 Q 191 98 195 103 L 169 103 Q 166 99 156 101 Q 140 102 128 104 L 119 105 Q 97 109 83 112 Q 82 113 81 113" fill="#CCCCCC"/><path d="M 159 139 Q 163 139 164 136 Q 167 132 171 109 Q 172 105 169 103 L 195 103 Q 198 107 195 110 Q 188 116 186 124 Q 178 148 175 152 Q 170 158 168 156 Q 164 153 160 148" fill="#CCCCCC"/><path d="M 128 104 Q 130 106 132 108 Q 134 111 132 114 Q 132 115 132 117 Q 131 128 130 142 L 120 143 Q 120 115 120 112 Q 120 108 119 106 Q 119 106 119 105" fill="#CCCCCC"/><path d="M 93 122 L 93 120 Q 94 117 95 118 Q 98 118 105 121 Q 109 123 110 126 Q 112 130 112 133 Q 110 137 107 136 Q 104 136 100 132 Q 97 128 94 123" fill="#CCCCCC"/><path d="M 147 111 L 147 109 Q 147 106 149 105 Q 153 106 157 109 Q 160 112 161 115 Q 162 116 159 117 Q 153 120 141 128 Q 139 129 138 129 Q 137 127 138 126 Q 144 119 146 114" fill="#CCCCCC"/><path d="M 87 148 Q 102 146 120 143 L 130 142 Q 137 140 145 139 Q 154 138 159 139 Q 159 139 159 139 L 160 148 Q 133 150 97 154 Q 90 155 87 153" fill="#CCCCCC"/><path d="M 97 237 Q 95 244 93 246 Q 91 249 88 246 Q 85 244 83 236 Q 82 231 84 225 Q 86 218 87 210 Q 87 202 86 188 Q 86 184 86 181 Q 85 178 84 176 Q 82 173 83 172 Q 84 170 86 170 Q 92 171 96 175 L 101 183 Q 100 187 99 200 L 99 208 Q 99 216 99 223 Q 99 226 98 229" fill="#CCCCCC"/><path d="M 96 175 Q 103 174 119 171 Q 136 168 147 163 Q 151 160 155 163 Q 169 170 174 174 L 152 177 Q 149 175 143 176 Q 128 179 111 181 Q 105 183 101 183" fill="#CCCCCC"/><path d="M 173 238 L 168 248 Q 163 257 159 257 Q 157 257 154 252 L 153 225 Q 154 222 154 213 Q 155 200 154 189 Q 153 178 152 177 L 174 174 Q 176 177 173 180 Q 169 186 169 194 Q 171 215 172 226" fill="#CCCCCC"/><path d="M 154 252 L 142 223 Q 143 224 146 227 Q 147 227 147 227 Q 152 230 153 225" fill="#CCCCCC"/><path d="M 99 200 Q 105 198 112 196 Q 123 193 130 194 Q 137 195 140 199 Q 142 203 136 204 Q 121 206 101 208 Q 100 208 99 208" fill="#CCCCCC"/><path d="M 154 252 Q 150 241 143 233 Q 114 234 100 237 Q 99 237 97 237 L 98 229 Q 113 227 130 223 Q 138 221 142 223" fill="#CCCCCC"/><path d="M 106 69 L 90 84 Q 78 94 68 102 L 62 106 Q 59 108 57 109 Q 45 117 31 121 Q 23 125 20 125 Q 17 124 20 123 Q 53 100 67 88 Q 81 77 94 61 Q 106 48 114 30 Q 117 22 117 16 Q 116 13 119 12 Q 122 12 127 15 Q 133 17 136 21 Q 139 25 139 28 Q 139 31 137 32 Q 136 32 135 34 L 130 38" fill="#000080" clip-path="url(#clip-mask-1)" /><path d="M 135 34 Q 140 38 147 44 Q 165 58 183 67 Q 197 76 216 82 Q 233 86 248 91 Q 252 93 251 95 Q 251 96 246 97 Q 228 101 210 101 Q 201 102 195 96 Q 161 69 130 38" fill="#000080" clip-path="url(#clip-mask-2)" /><path d="M 111 77 L 118 75 Q 125 73 131 72 Q 138 69 145 70 Q 152 72 154 75 Q 155 77 153 78 Q 152 79 147 81 Q 135 83 123 85 Q 116 87 109 86 Q 103 85 100 83 Q 93 79 102 77" fill="#000080" clip-path="url(#clip-mask-3)" /><path d="M 68 102 Q 74 103 77 104 L 81 113 Q 82 121 86 143 Q 87 146 87 148 L 87 153 Q 87 156 86 158 Q 85 163 80 157 Q 76 153 75 145 Q 70 122 63 108 Q 62 107 62 106" fill="#000080" clip-path="url(#clip-mask-4)" /><path d="M 77 104 Q 91 103 109 99 Q 130 96 148 94 Q 162 92 171 90 Q 175 89 181 91 Q 191 98 195 103 L 169 103 Q 166 99 156 101 Q 140 102 128 104 L 119 105 Q 97 109 83 112 Q 82 113 81 113" fill="#000080" clip-path="url(#clip-mask-5)" /><path d="M 159 139 Q 163 139 164 136 Q 167 132 171 109 Q 172 105 169 103 L 195 103 Q 198 107 195 110 Q 188 116 186 124 Q 178 148 175 152 Q 170 158 168 156 Q 164 153 160 148" fill="#000080" clip-path="url(#clip-mask-6)" /><path d="M 128 104 Q 130 106 132 108 Q 134 111 132 114 Q 132 115 132 117 Q 131 128 130 142 L 120 143 Q 120 115 120 112 Q 120 108 119 106 Q 119 106 119 105" fill="#000080" clip-path="url(#clip-mask-7)" /><path d="M 93 122 L 93 120 Q 94 117 95 118 Q 98 118 105 121 Q 109 123 110 126 Q 112 130 112 133 Q 110 137 107 136 Q 104 136 100 132 Q 97 128 94 123" fill="#000080" clip-path="url(#clip-mask-8)" /><path d="M 147 111 L 147 109 Q 147 106 149 105 Q 153 106 157 109 Q 160 112 161 115 Q 162 116 159 117 Q 153 120 141 128 Q 139 129 138 129 Q 137 127 138 126 Q 144 119 146 114" fill="#000080" clip-path="url(#clip-mask-9)" /><path d="M 87 148 Q 102 146 120 143 L 130 142 Q 137 140 145 139 Q 154 138 159 139 Q 159 139 159 139 L 160 148 Q 133 150 97 154 Q 90 155 87 153" fill="#000080" clip-path="url(#clip-mask-10)" /><path d="M 97 237 Q 95 244 93 246 Q 91 249 88 246 Q 85 244 83 236 Q 82 231 84 225 Q 86 218 87 210 Q 87 202 86 188 Q 86 184 86 181 Q 85 178 84 176 Q 82 173 83 172 Q 84 170 86 170 Q 92 171 96 175 L 101 183 Q 100 187 99 200 L 99 208 Q 99 216 99 223 Q 99 226 98 229" fill="#0000ff" clip-path="url(#clip-mask-11)" /><path d="M 96 175 Q 103 174 119 171 Q 136 168 147 163 Q 151 160 155 163 Q 169 170 174 174 L 152 177 Q 149 175 143 176 Q 128 179 111 181 Q 105 183 101 183" fill="#0000ff" clip-path="url(#clip-mask-12)" /><path d="M 173 238 L 168 248 Q 163 257 159 257 Q 157 257 154 252 L 153 225 Q 154 222 154 213 Q 155 200 154 189 Q 153 178 152 177 L 174 174 Q 176 177 173 180 Q 169 186 169 194 Q 171 215 172 226" fill="#0000ff" clip-path="url(#clip-mask-13)" /><path d="M 154 252 L 142 223 Q 143 224 146 227 Q 147 227 147 227 Q 152 230 153 225" fill="#0000ff" clip-path="url(#clip-mask-14)" /><path d="M 99 200 Q 105 198 112 196 Q 123 193 130 194 Q 137 195 140 199 Q 142 203 136 204 Q 121 206 101 208 Q 100 208 99 208" fill="#0000ff" clip-path="url(#clip-mask-15)" /><path d="M 154 252 Q 150 241 143 233 Q 114 234 100 237 Q 99 237 97 237 L 98 229 Q 113 227 130 223 Q 138 221 142 223" fill="#0000ff" clip-path="url(#clip-mask-16)" /><rect x="17" y="12" width="122" height="113" id="rect-1" fill="transparent" stroke="#000000"><animate attributeName="y" from="-101" to="12" dur="0.419" begin="0; animate16.end + 1s" id="animate1" fill="freeze"/></rect><rect x="130" y="34" width="122" height="68" id="rect-2" fill="transparent" stroke="#000000"><set attributeName="x" to="8" begin="0; animate16.end + 1s" /><animate attributeName="x" from="8" to="130" dur="0.452" begin="animate1.end + 0.5" id="animate2" fill="freeze"/></rect><rect x="93" y="69" width="62" height="18" id="rect-3" fill="transparent" stroke="#000000"><set attributeName="x" to="31" begin="0; animate16.end + 1s" /><animate attributeName="x" from="31" to="93" dur="0.230" begin="animate2.end + 0.5" id="animate3" fill="freeze"/></rect><rect x="62" y="102" width="25" height="61" id="rect-4" fill="transparent" stroke="#000000"><set attributeName="y" to="41" begin="0; animate16.end + 1s" /><animate attributeName="y" from="41" to="102" dur="0.226" begin="animate3.end + 0.5" id="animate4" fill="freeze"/></rect><rect x="77" y="89" width="118" height="24" id="rect-5" fill="transparent" stroke="#000000"><set attributeName="x" to="-41" begin="0; animate16.end + 1s" /><animate attributeName="x" from="-41" to="77" dur="0.437" begin="animate4.end + 0.5" id="animate5" fill="freeze"/></rect><rect x="159" y="103" width="39" height="55" id="rect-6" fill="transparent" stroke="#000000"><set attributeName="y" to="48" begin="0; animate16.end + 1s" /><animate attributeName="y" from="48" to="103" dur="0.204" begin="animate5.end" id="animate6" fill="freeze"/></rect><rect x="119" y="104" width="15" height="39" id="rect-7" fill="transparent" stroke="#000000"><set attributeName="y" to="65" begin="0; animate16.end + 1s" /><animate attributeName="y" from="65" to="104" dur="0.144" begin="animate6.end + 0.5" id="animate7" fill="freeze"/></rect><rect x="93" y="117" width="19" height="20" id="rect-8" fill="transparent" stroke="#000000"><set attributeName="x" to="74" begin="0; animate16.end + 1s" /><animate attributeName="x" from="74" to="93" dur="0.070" begin="animate7.end + 0.5" id="animate8" fill="freeze"/></rect><rect x="137" y="105" width="25" height="24" id="rect-9" fill="transparent" stroke="#000000"><set attributeName="y" to="81" begin="0; animate16.end + 1s" /><animate attributeName="y" from="81" to="105" dur="0.089" begin="animate8.end + 0.5" id="animate9" fill="freeze"/></rect><rect x="87" y="138" width="73" height="17" id="rect-10" fill="transparent" stroke="#000000"><set attributeName="x" to="14" begin="0; animate16.end + 1s" /><animate attributeName="x" from="14" to="87" dur="0.270" begin="animate9.end + 0.5" id="animate10" fill="freeze"/></rect><rect x="82" y="170" width="19" height="79" id="rect-11" fill="transparent" stroke="#000000"><set attributeName="y" to="91" begin="0; animate16.end + 1s" /><animate attributeName="y" from="91" to="170" dur="0.293" begin="animate10.end + 0.5" id="animate11" fill="freeze"/></rect><rect x="96" y="160" width="78" height="23" id="rect-12" fill="transparent" stroke="#000000"><set attributeName="x" to="18" begin="0; animate16.end + 1s" /><animate attributeName="x" from="18" to="96" dur="0.289" begin="animate11.end + 0.5" id="animate12" fill="freeze"/></rect><rect x="152" y="174" width="24" height="83" id="rect-13" fill="transparent" stroke="#000000"><set attributeName="y" to="91" begin="0; animate16.end + 1s" /><animate attributeName="y" from="91" to="174" dur="0.307" begin="animate12.end" id="animate13" fill="freeze"/></rect><rect x="142" y="223" width="12" height="29" id="rect-14" fill="transparent" stroke="#000000"><set attributeName="x" to="154" begin="0; animate16.end + 1s" /><animate attributeName="x" from="154" to="142" dur="0.044" begin="animate13.end" id="animate14" fill="freeze"/></rect><rect x="99" y="193" width="43" height="15" id="rect-15" fill="transparent" stroke="#000000"><set attributeName="x" to="56" begin="0; animate16.end + 1s" /><animate attributeName="x" from="56" to="99" dur="0.159" begin="animate14.end + 0.5" id="animate15" fill="freeze"/></rect><rect x="97" y="221" width="57" height="31" id="rect-16" fill="transparent" stroke="#000000"><set attributeName="x" to="40" begin="0; animate16.end + 1s" /><animate attributeName="x" from="40" to="97" dur="0.211" begin="animate15.end + 0.5" id="animate16" fill="freeze"/></rect></svg>