<svg xmlns="http://www.w3.org/2000/svg" xmlns:xlink="http://www.w3.org/1999/xlink" width="270" height="270"><defs><clipPath id="clip-mask-1"><use xlink:href="#rect-1" /></clipPath><clipPath id="clip-mask-2"><use xlink:href="#rect-2" /></clipPath><clipPath id="clip-mask-3"><use xlink:href="#rect-3" /></clipPath><clipPath id="clip-mask-4"><use xlink:href="#rect-4" /></clipPath><clipPath id="clip-mask-5"><use xlink:href="#rect-5" /></clipPath><clipPath id="clip-mask-6"><use xlink:href="#rect-6" /></clipPath><clipPath id="clip-mask-7"><use xlink:href="#rect-7" /></clipPath><clipPath id="clip-mask-8"><use xlink:href="#rect-8" /></clipPath><clipPath id="clip-mask-9"><use xlink:href="#rect-9" /></clipPath><clipPath id="clip-mask-10"><use xlink:href="#rect-10" /></clipPath><clipPath id="clip-mask-11"><use xlink:href="#rect-11" /></clipPath><clipPath id="clip-mask-12"><use xlink:href="#rect-12" /></clipPath></defs><path d="M 0 0 L 270 270 M 270 0 L 0 270 M 135 0 L 135 270 M 0 135 L 270 135" stroke="#CCCCCC" /><path d="M 66 187 L 48 213 Q 40 226 35 227 Q 33 228 33 225 Q 33 224 34 222 Q 53 186 60 160 Q 61 154 63 147 Q 66 126 66 73 Q 65 58 60 52 Q 58 49 61 47 Q 65 44 77 51 L 82 59 Q 81 60 80 70 Q 80 91 80 97 L 80 107 Q 79 122 77 136 Q 76 136 76 137 L 75 146" fill="#CCCCCC"/><path d="M 77 51 Q 89 48 97 45 Q 109 38 114 40 Q 123 44 129 49 L 109 53 Q 109 52 108 52 Q 95 56 82 59" fill="#CCCCCC"/><path d="M 129 49 Q 132 51 129 56 Q 126 63 126 78 Q 126 147 127 190 Q 128 204 116 216 Q 114 219 112 218 Q 108 216 105 211 L 107 191 Q 110 188 110 182 Q 114 137 112 65 Q 112 55 109 53" fill="#CCCCCC"/><path d="M 105 211 Q 98 203 85 190 Q 85 188 90 190 Q 96 191 101 191 Q 106 193 107 191" fill="#CCCCCC"/><path d="M 80 97 Q 90 95 96 95 Q 103 96 106 100 Q 109 103 102 104 Q 92 105 80 107" fill="#CCCCCC"/><path d="M 76 137 Q 87 132 97 133 Q 104 134 106 138 Q 108 141 103 142 Q 91 144 75 146" fill="#CCCCCC"/><path d="M 167 159 L 162 173 Q 160 180 157 187 Q 140 222 131 225 Q 128 225 128 223 Q 129 221 130 219 Q 148 183 155 157 Q 163 123 161 77 Q 161 74 161 71 Q 160 52 154 46 Q 152 42 155 41 Q 158 39 163 41 Q 168 43 171 45 L 177 53 Q 175 55 175 94 L 175 103 Q 174 117 172 131 Q 172 133 172 134 L 170 143" fill="#CCCCCC"/><path d="M 171 45 Q 194 40 207 32 Q 211 30 216 32 Q 227 36 233 41 L 211 46 Q 208 44 204 45 L 177 53" fill="#CCCCCC"/><path d="M 233 41 Q 236 44 233 50 Q 229 57 230 74 Q 230 156 232 208 Q 232 221 220 237 Q 217 239 215 238 Q 210 236 207 231 L 211 208 Q 213 205 213 199 Q 217 147 214 60 Q 215 49 211 46" fill="#CCCCCC"/><path d="M 207 231 Q 199 220 185 204 Q 185 201 190 204 Q 198 206 205 209 Q 210 210 211 208" fill="#CCCCCC"/><path d="M 175 94 Q 177 93 179 92 Q 190 89 195 89 Q 202 90 205 93 Q 207 97 202 98 Q 190 99 175 103" fill="#CCCCCC"/><path d="M 172 134 Q 184 127 196 129 Q 203 130 206 134 Q 209 138 202 139 Q 190 140 173 143 Q 171 143 170 143" fill="#CCCCCC"/><path d="M 66 187 L 48 213 Q 40 226 35 227 Q 33 228 33 225 Q 33 224 34 222 Q 53 186 60 160 Q 61 154 63 147 Q 66 126 66 73 Q 65 58 60 52 Q 58 49 61 47 Q 65 44 77 51 L 82 59 Q 81 60 80 70 Q 80 91 80 97 L 80 107 Q 79 122 77 136 Q 76 136 76 137 L 75 146" fill="#0000ff" clip-path="url(#clip-mask-1)" /><path d="M 77 51 Q 89 48 97 45 Q 109 38 114 40 Q 123 44 129 49 L 109 53 Q 109 52 108 52 Q 95 56 82 59" fill="#0000ff" clip-path="url(#clip-mask-2)" /><path d="M 129 49 Q 132 51 129 56 Q 126 63 126 78 Q 126 147 127 190 Q 128 204 116 216 Q 114 219 112 218 Q 108 216 105 211 L 107 191 Q 110 188 110 182 Q 114 137 112 65 Q 112 55 109 53" fill="#0000ff" clip-path="url(#clip-mask-3)" /><path d="M 105 211 Q 98 203 85 190 Q 85 188 90 190 Q 96 191 101 191 Q 106 193 107 191" fill="#0000ff" clip-path="url(#clip-mask-4)" /><path d="M 80 97 Q 90 95 96 95 Q 103 96 106 100 Q 109 103 102 104 Q 92 105 80 107" fill="#0000ff" clip-path="url(#clip-mask-5)" /><path d="M 76 137 Q 87 132 97 133 Q 104 134 106 138 Q 108 141 103 142 Q 91 144 75 146" fill="#0000ff" clip-path="url(#clip-mask-6)" /><path d="M 167 159 L 162 173 Q 160 180 157 187 Q 140 222 131 225 Q 128 225 128 223 Q 129 221 130 219 Q 148 183 155 157 Q 163 123 161 77 Q 161 74 161 71 Q 160 52 154 46 Q 152 42 155 41 Q 158 39 163 41 Q 168 43 171 45 L 177 53 Q 175 55 175 94 L 175 103 Q 174 117 172 131 Q 172 133 172 134 L 170 143" fill="#000080" clip-path="url(#clip-mask-7)" /><path d="M 171 45 Q 194 40 207 32 Q 211 30 216 32 Q 227 36 233 41 L 211 46 Q 208 44 204 45 L 177 53" fill="#000080" clip-path="url(#clip-mask-8)" /><path d="M 233 41 Q 236 44 233 50 Q 229 57 230 74 Q 230 156 232 208 Q 232 221 220 237 Q 217 239 215 238 Q 210 236 207 231 L 211 208 Q 213 205 213 199 Q 217 147 214 60 Q 215 49 211 46" fill="#000080" clip-path="url(#clip-mask-9)" /><path d="M 207 231 Q 199 220 185 204 Q 185 201 190 204 Q 198 206 205 209 Q 210 210 211 208" fill="#000080" clip-path="url(#clip-mask-10)" /><path d="M 175 94 Q 177 93 179 92 Q 190 89 195 89 Q 202 90 205 93 Q 207 97 202 98 Q 190 99 175 103" fill="#000080" clip-path="url(#clip-mask-11)" /><path d="M 172 134 Q 184 127 196 129 Q 203 130 206 134 Q 209 138 202 139 Q 190 140 173 143 Q 171 143 170 143" fill="#000080" clip-path="url(#clip-mask-12)" /><rect x="33" y="44" width="49" height="184" id="rect-1" fill="transparent" stroke="#000000"><animate attributeName="y" from="-140" to="44" dur="0.681" begin="0; animate12.end + 1s" id="animate1" fill="freeze"/></rect><rect x="77" y="38" width="52" height="21" id="rect-2" fill="transparent" stroke="#000000"><set attributeName="x" to="25" begin="0; animate12.end + 1s" /><animate attributeName="x" from="25" to="77" dur="0.193" begin="animate1.end + 0.5" id="animate2" fill="freeze"/></rect><rect x="105" y="49" width="27" height="170" id="rect-3" fill="transparent" stroke="#000000"><set attributeName="y" to="-121" begin="0; animate12.end + 1s" /><animate attributeName="y" from="-121" to="49" dur="0.630" begin="animate2.end" id="animate3" fill="freeze"/></rect><rect x="85" y="188" width="22" height="23" id="rect-4" fill="transparent" stroke="#000000"><set attributeName="x" to="107" begin="0; animate12.end + 1s" /><animate attributeName="x" from="107" to="85" dur="0.081" begin="animate3.end" id="animate4" fill="freeze"/></rect><rect x="80" y="95" width="29" height="12" id="rect-5" fill="transparent" stroke="#000000"><set attributeName="x" to="51" begin="0; animate12.end + 1s" /><animate attributeName="x" from="51" to="80" dur="0.107" begin="animate4.end + 0.5" id="animate5" fill="freeze"/></rect><rect x="75" y="132" width="33" height="14" id="rect-6" fill="transparent" stroke="#000000"><set attributeName="x" to="42" begin="0; animate12.end + 1s" /><animate attributeName="x" from="42" to="75" dur="0.122" begin="animate5.end + 0.5" id="animate6" fill="freeze"/></rect><rect x="128" y="39" width="49" height="186" id="rect-7" fill="transparent" stroke="#000000"><set attributeName="y" to="-147" begin="0; animate12.end + 1s" /><animate attributeName="y" from="-147" to="39" dur="0.689" begin="animate6.end + 0.5" id="animate7" fill="freeze"/></rect><rect x="171" y="30" width="62" height="23" id="rect-8" fill="transparent" stroke="#000000"><set attributeName="x" to="109" begin="0; animate12.end + 1s" /><animate attributeName="x" from="109" to="171" dur="0.230" begin="animate7.end + 0.5" id="animate8" fill="freeze"/></rect><rect x="207" y="41" width="29" height="198" id="rect-9" fill="transparent" stroke="#000000"><set attributeName="y" to="-157" begin="0; animate12.end + 1s" /><animate attributeName="y" from="-157" to="41" dur="0.733" begin="animate8.end" id="animate9" fill="freeze"/></rect><rect x="185" y="201" width="26" height="30" id="rect-10" fill="transparent" stroke="#000000"><set attributeName="x" to="211" begin="0; animate12.end + 1s" /><animate attributeName="x" from="211" to="185" dur="0.096" begin="animate9.end" id="animate10" fill="freeze"/></rect><rect x="175" y="89" width="32" height="14" id="rect-11" fill="transparent" stroke="#000000"><set attributeName="x" to="143" begin="0; animate12.end + 1s" /><animate attributeName="x" from="143" to="175" dur="0.119" begin="animate10.end + 0.5" id="animate11" fill="freeze"/></rect><rect x="170" y="127" width="39" height="16" id="rect-12" fill="transparent" stroke="#000000"><set attributeName="x" to="131" begin="0; animate12.end + 1s" /><animate attributeName="x" from="131" to="170" dur="0.144" begin="animate11.end + 0.5" id="animate12" fill="freeze"/></rect></svg>