<svg xmlns="http://www.w3.org/2000/svg" xmlns:xlink="http://www.w3.org/1999/xlink" width="270" height="270"><defs><clipPath id="clip-mask-1"><use xlink:href="#rect-1" /></clipPath><clipPath id="clip-mask-2"><use xlink:href="#rect-2" /></clipPath><clipPath id="clip-mask-3"><use xlink:href="#rect-3" /></clipPath><clipPath id="clip-mask-4"><use xlink:href="#rect-4" /></clipPath><clipPath id="clip-mask-5"><use xlink:href="#rect-5" /></clipPath><clipPath id="clip-mask-6"><use xlink:href="#rect-6" /></clipPath><clipPath id="clip-mask-7"><use xlink:href="#rect-7" /></clipPath><clipPath id="clip-mask-8"><use xlink:href="#rect-8" /></clipPath><clipPath id="clip-mask-9"><use xlink:href="#rect-9" /></clipPath><clipPath id="clip-mask-10"><use xlink:href="#rect-10" /></clipPath><clipPath id="clip-mask-11"><use xlink:href="#rect-11" /></clipPath><clipPath id="clip-mask-12"><use xlink:href="#rect-12" /></clipPath><clipPath id="clip-mask-13"><use xlink:href="#rect-13" /></clipPath><clipPath id="clip-mask-14"><use xlink:href="#rect-14" /></clipPath></defs><path d="M 0 0 L 270 270 M 270 0 L 0 270 M 135 0 L 135 270 M 0 135 L 270 135" stroke="#CCCCCC" /><path d="M 85 27 L 85 23 Q 84 20 86 19 Q 87 19 88 19 Q 98 19 110 28 Q 115 32 117 38 Q 117 43 115 46 Q 112 50 108 49 Q 99 43 89 31" fill="#CCCCCC"/><path d="M 66 75 Q 69 73 73 72 Q 95 65 96 65 Q 111 59 116 61 Q 127 66 131 70 L 108 72 Q 101 69 69 82" fill="#CCCCCC"/><path d="M 102 129 Q 106 125 111 81 Q 112 75 108 72 L 131 70 Q 135 73 131 77 Q 126 83 125 91 Q 120 132 116 140 Q 113 146 110 144 Q 106 142 102 137" fill="#CCCCCC"/><path d="M 68 107 Q 77 100 89 101 Q 95 101 98 105 Q 101 108 95 109 Q 84 111 69 115 Q 68 115 68 115" fill="#CCCCCC"/><path d="M 68 136 Q 78 133 92 129 Q 99 127 102 128 L 102 129 L 102 137 Q 80 140 70 143 Q 69 144 68 144" fill="#CCCCCC"/><path d="M 53 223 Q 50 227 46 224 Q 42 221 40 213 Q 38 207 41 204 Q 44 200 46 197 Q 57 180 57 125 Q 56 89 47 78 Q 44 73 45 71 Q 47 69 52 70 Q 62 72 66 75 L 69 82 Q 69 82 69 83 Q 69 87 68 107 L 68 115 Q 68 124 68 136 L 68 144 Q 68 160 68 181 Q 68 187 69 188" fill="#CCCCCC"/><path d="M 66 207 L 53 223 L 69 188 Q 71 188 73 187 Q 94 175 104 170 L 106 174" fill="#CCCCCC"/><path d="M 104 170 Q 103 169 102 168 Q 97 160 97 158 Q 98 155 99 154 Q 101 154 104 156 Q 125 168 125 177 Q 125 184 123 188 Q 121 190 118 190 Q 115 189 112 185 Q 109 179 106 174" fill="#CCCCCC"/><path d="M 157 177 L 151 190 Q 144 207 131 221 Q 122 230 108 241 Q 102 244 98 244 Q 95 244 95 243 Q 96 241 100 237 Q 127 212 136 190 Q 156 146 152 89 Q 151 76 146 67 Q 142 61 147 60 Q 151 59 163 65 L 168 74 Q 166 85 165 113 L 165 121 Q 163 146 161 152 L 160 160" fill="#CCCCCC"/><path d="M 163 65 Q 180 63 193 58 Q 205 51 211 53 Q 222 58 228 63 L 206 68 Q 204 65 199 66 Q 171 74 168 74" fill="#CCCCCC"/><path d="M 228 63 Q 231 66 228 71 Q 220 86 226 218 Q 227 232 215 247 Q 212 250 210 249 Q 205 248 201 242 L 204 220 Q 207 216 207 209 Q 211 161 209 81 Q 209 71 206 68" fill="#CCCCCC"/><path d="M 201 242 Q 193 232 177 217 Q 177 215 182 216 Q 203 222 204 220" fill="#CCCCCC"/><path d="M 165 113 Q 176 107 187 109 Q 193 110 196 114 Q 198 117 192 118 Q 180 119 165 121" fill="#CCCCCC"/><path d="M 161 152 Q 179 146 189 148 Q 195 149 198 154 Q 200 157 194 157 Q 177 159 160 160" fill="#CCCCCC"/><path d="M 85 27 L 85 23 Q 84 20 86 19 Q 87 19 88 19 Q 98 19 110 28 Q 115 32 117 38 Q 117 43 115 46 Q 112 50 108 49 Q 99 43 89 31" fill="#000080" clip-path="url(#clip-mask-1)" /><path d="M 66 75 Q 69 73 73 72 Q 95 65 96 65 Q 111 59 116 61 Q 127 66 131 70 L 108 72 Q 101 69 69 82" fill="#000080" clip-path="url(#clip-mask-2)" /><path d="M 102 129 Q 106 125 111 81 Q 112 75 108 72 L 131 70 Q 135 73 131 77 Q 126 83 125 91 Q 120 132 116 140 Q 113 146 110 144 Q 106 142 102 137" fill="#000080" clip-path="url(#clip-mask-3)" /><path d="M 68 107 Q 77 100 89 101 Q 95 101 98 105 Q 101 108 95 109 Q 84 111 69 115 Q 68 115 68 115" fill="#000080" clip-path="url(#clip-mask-4)" /><path d="M 68 136 Q 78 133 92 129 Q 99 127 102 128 L 102 129 L 102 137 Q 80 140 70 143 Q 69 144 68 144" fill="#000080" clip-path="url(#clip-mask-5)" /><path d="M 53 223 Q 50 227 46 224 Q 42 221 40 213 Q 38 207 41 204 Q 44 200 46 197 Q 57 180 57 125 Q 56 89 47 78 Q 44 73 45 71 Q 47 69 52 70 Q 62 72 66 75 L 69 82 Q 69 82 69 83 Q 69 87 68 107 L 68 115 Q 68 124 68 136 L 68 144 Q 68 160 68 181 Q 68 187 69 188" fill="#000080" clip-path="url(#clip-mask-6)" /><path d="M 66 207 L 53 223 L 69 188 Q 71 188 73 187 Q 94 175 104 170 L 106 174" fill="#000080" clip-path="url(#clip-mask-7)" /><path d="M 104 170 Q 103 169 102 168 Q 97 160 97 158 Q 98 155 99 154 Q 101 154 104 156 Q 125 168 125 177 Q 125 184 123 188 Q 121 190 118 190 Q 115 189 112 185 Q 109 179 106 174" fill="#000080" clip-path="url(#clip-mask-8)" /><path d="M 157 177 L 151 190 Q 144 207 131 221 Q 122 230 108 241 Q 102 244 98 244 Q 95 244 95 243 Q 96 241 100 237 Q 127 212 136 190 Q 156 146 152 89 Q 151 76 146 67 Q 142 61 147 60 Q 151 59 163 65 L 168 74 Q 166 85 165 113 L 165 121 Q 163 146 161 152 L 160 160" fill="#0000ff" clip-path="url(#clip-mask-9)" /><path d="M 163 65 Q 180 63 193 58 Q 205 51 211 53 Q 222 58 228 63 L 206 68 Q 204 65 199 66 Q 171 74 168 74" fill="#0000ff" clip-path="url(#clip-mask-10)" /><path d="M 228 63 Q 231 66 228 71 Q 220 86 226 218 Q 227 232 215 247 Q 212 250 210 249 Q 205 248 201 242 L 204 220 Q 207 216 207 209 Q 211 161 209 81 Q 209 71 206 68" fill="#0000ff" clip-path="url(#clip-mask-11)" /><path d="M 201 242 Q 193 232 177 217 Q 177 215 182 216 Q 203 222 204 220" fill="#0000ff" clip-path="url(#clip-mask-12)" /><path d="M 165 113 Q 176 107 187 109 Q 193 110 196 114 Q 198 117 192 118 Q 180 119 165 121" fill="#0000ff" clip-path="url(#clip-mask-13)" /><path d="M 161 152 Q 179 146 189 148 Q 195 149 198 154 Q 200 157 194 157 Q 177 159 160 160" fill="#0000ff" clip-path="url(#clip-mask-14)" /><rect x="84" y="19" width="33" height="31" id="rect-1" fill="transparent" stroke="#000000"><animate attributeName="x" from="51" to="84" dur="0.122" begin="0; animate14.end + 1s" id="animate1" fill="freeze"/></rect><rect x="66" y="59" width="65" height="23" id="rect-2" fill="transparent" stroke="#000000"><set attributeName="x" to="1" begin="0; animate14.end + 1s" /><animate attributeName="x" from="1" to="66" dur="0.241" begin="animate1.end + 0.5" id="animate2" fill="freeze"/></rect><rect x="102" y="70" width="33" height="76" id="rect-3" fill="transparent" stroke="#000000"><set attributeName="y" to="-6" begin="0; animate14.end + 1s" /><animate attributeName="y" from="-6" to="70" dur="0.281" begin="animate2.end" id="animate3" fill="freeze"/></rect><rect x="68" y="100" width="33" height="15" id="rect-4" fill="transparent" stroke="#000000"><set attributeName="x" to="35" begin="0; animate14.end + 1s" /><animate attributeName="x" from="35" to="68" dur="0.122" begin="animate3.end + 0.5" id="animate4" fill="freeze"/></rect><rect x="68" y="127" width="34" height="17" id="rect-5" fill="transparent" stroke="#000000"><set attributeName="x" to="34" begin="0; animate14.end + 1s" /><animate attributeName="x" from="34" to="68" dur="0.126" begin="animate4.end + 0.5" id="animate5" fill="freeze"/></rect><rect x="38" y="69" width="31" height="158" id="rect-6" fill="transparent" stroke="#000000"><set attributeName="y" to="-89" begin="0; animate14.end + 1s" /><animate attributeName="y" from="-89" to="69" dur="0.585" begin="animate5.end + 0.5" id="animate6" fill="freeze"/></rect><rect x="53" y="170" width="53" height="53" id="rect-7" fill="transparent" stroke="#000000"><set attributeName="x" to="0" begin="0; animate14.end + 1s" /><animate attributeName="x" from="0" to="53" dur="0.196" begin="animate6.end" id="animate7" fill="freeze"/></rect><rect x="97" y="154" width="28" height="36" id="rect-8" fill="transparent" stroke="#000000"><set attributeName="y" to="118" begin="0; animate14.end + 1s" /><animate attributeName="y" from="118" to="154" dur="0.133" begin="animate7.end + 0.5" id="animate8" fill="freeze"/></rect><rect x="95" y="59" width="73" height="185" id="rect-9" fill="transparent" stroke="#000000"><set attributeName="y" to="-126" begin="0; animate14.end + 1s" /><animate attributeName="y" from="-126" to="59" dur="0.685" begin="animate8.end + 0.5" id="animate9" fill="freeze"/></rect><rect x="163" y="51" width="65" height="23" id="rect-10" fill="transparent" stroke="#000000"><set attributeName="x" to="98" begin="0; animate14.end + 1s" /><animate attributeName="x" from="98" to="163" dur="0.241" begin="animate9.end + 0.5" id="animate10" fill="freeze"/></rect><rect x="201" y="63" width="30" height="187" id="rect-11" fill="transparent" stroke="#000000"><set attributeName="y" to="-124" begin="0; animate14.end + 1s" /><animate attributeName="y" from="-124" to="63" dur="0.693" begin="animate10.end" id="animate11" fill="freeze"/></rect><rect x="177" y="215" width="27" height="27" id="rect-12" fill="transparent" stroke="#000000"><set attributeName="x" to="204" begin="0; animate14.end + 1s" /><animate attributeName="x" from="204" to="177" dur="0.100" begin="animate11.end" id="animate12" fill="freeze"/></rect><rect x="165" y="107" width="33" height="14" id="rect-13" fill="transparent" stroke="#000000"><set attributeName="x" to="132" begin="0; animate14.end + 1s" /><animate attributeName="x" from="132" to="165" dur="0.122" begin="animate12.end + 0.5" id="animate13" fill="freeze"/></rect><rect x="160" y="146" width="40" height="14" id="rect-14" fill="transparent" stroke="#000000"><set attributeName="x" to="120" begin="0; animate14.end + 1s" /><animate attributeName="x" from="120" to="160" dur="0.148" begin="animate13.end + 0.5" id="animate14" fill="freeze"/></rect></svg>