<svg xmlns="http://www.w3.org/2000/svg" xmlns:xlink="http://www.w3.org/1999/xlink" width="270" height="270"><defs><clipPath id="clip-mask-1"><use xlink:href="#rect-1" /></clipPath><clipPath id="clip-mask-2"><use xlink:href="#rect-2" /></clipPath><clipPath id="clip-mask-3"><use xlink:href="#rect-3" /></clipPath><clipPath id="clip-mask-4"><use xlink:href="#rect-4" /></clipPath><clipPath id="clip-mask-5"><use xlink:href="#rect-5" /></clipPath><clipPath id="clip-mask-6"><use xlink:href="#rect-6" /></clipPath><clipPath id="clip-mask-7"><use xlink:href="#rect-7" /></clipPath><clipPath id="clip-mask-8"><use xlink:href="#rect-8" /></clipPath><clipPath id="clip-mask-9"><use xlink:href="#rect-9" /></clipPath><clipPath id="clip-mask-10"><use xlink:href="#rect-10" /></clipPath><clipPath id="clip-mask-11"><use xlink:href="#rect-11" /></clipPath><clipPath id="clip-mask-12"><use xlink:href="#rect-12" /></clipPath><clipPath id="clip-mask-13"><use xlink:href="#rect-13" /></clipPath><clipPath id="clip-mask-14"><use xlink:href="#rect-14" /></clipPath><clipPath id="clip-mask-15"><use xlink:href="#rect-15" /></clipPath><clipPath id="clip-mask-16"><use xlink:href="#rect-16" /></clipPath><clipPath id="clip-mask-17"><use xlink:href="#rect-17" /></clipPath><clipPath id="clip-mask-18"><use xlink:href="#rect-18" /></clipPath><clipPath id="clip-mask-19"><use xlink:href="#rect-19" /></clipPath><clipPath id="clip-mask-20"><use xlink:href="#rect-20" /></clipPath><clipPath id="clip-mask-21"><use xlink:href="#rect-21" /></clipPath></defs><path d="M 0 0 L 270 270 M 270 0 L 0 270 M 135 0 L 135 270 M 0 135 L 270 135" stroke="#CCCCCC" /><path d="M 49 161 L 45 174 Q 41 184 37 193 Q 21 223 14 225 Q 11 226 12 223 Q 12 222 13 220 Q 29 188 37 157 Q 39 149 41 141 Q 49 64 35 48 Q 33 45 36 42 Q 39 41 44 43 Q 49 44 53 47 L 58 54 Q 57 56 57 95 L 56 104 Q 55 124 53 136 L 52 146" fill="#CCCCCC"/><path d="M 53 47 Q 60 45 64 44 Q 69 42 75 38 Q 79 36 83 38 Q 92 42 97 46 L 79 50 Q 78 48 73 49 Q 58 53 58 54" fill="#CCCCCC"/><path d="M 97 46 Q 100 48 97 53 Q 94 59 95 73 Q 95 152 98 201 Q 98 214 89 226 Q 87 228 85 228 Q 81 226 78 222 L 79 204 Q 83 199 83 137 Q 83 61 79 50" fill="#CCCCCC"/><path d="M 78 222 Q 70 214 56 204 Q 55 202 60 203 Q 78 206 79 204" fill="#CCCCCC"/><path d="M 57 95 Q 64 93 68 93 Q 75 93 77 97 Q 80 100 74 101 Q 66 102 56 104" fill="#CCCCCC"/><path d="M 53 136 Q 62 132 67 132 Q 74 133 77 136 Q 80 139 74 141 Q 64 143 52 146" fill="#CCCCCC"/><path d="M 172 53 Q 160 54 150 56 L 141 58 Q 138 58 137 59 Q 121 61 112 57 Q 108 53 114 52 Q 127 50 139 49 L 150 47 Q 162 45 173 43 L 186 41 Q 202 35 213 44 Q 216 48 215 50 Q 214 52 210 52 Q 192 51 182 53" fill="#CCCCCC"/><path d="M 150 56 Q 150 68 149 70 Q 148 73 145 70 Q 142 66 141 58 L 139 49 Q 137 42 132 36 Q 129 31 133 30 Q 138 28 146 33 Q 151 35 150 39 Q 150 43 150 47" fill="#CCCCCC"/><path d="M 178 66 L 174 71 Q 170 74 170 71 Q 170 66 172 53 L 173 43 Q 174 28 172 24 Q 170 22 172 20 Q 176 18 180 20 Q 188 23 190 27 Q 193 29 190 32 Q 187 37 186 41 L 182 53" fill="#CCCCCC"/><path d="M 121 90 L 117 102 Q 116 108 115 109 Q 113 113 112 113 Q 110 115 109 113 Q 106 110 105 105 Q 105 101 107 97 Q 112 83 111 77 Q 112 75 113 74 Q 114 73 115 74 Q 118 75 122 82 L 123 89" fill="#CCCCCC"/><path d="M 122 82 Q 130 81 139 79 Q 177 72 179 72 Q 207 65 213 69 L 197 77 Q 196 76 194 77 Q 167 79 139 88 Q 128 91 123 89" fill="#CCCCCC"/><path d="M 213 69 Q 230 80 230 83 Q 230 84 223 87 Q 214 89 203 96 Q 200 99 198 98 Q 197 97 198 94 Q 201 81 201 81 Q 202 79 197 77" fill="#CCCCCC"/><path d="M 149 96 L 162 92 Q 169 89 175 90 Q 181 92 183 94 Q 184 96 182 98 Q 180 99 153 105 Q 141 107 132 103 Q 127 99 134 98" fill="#CCCCCC"/><path d="M 137 128 Q 122 131 115 126 Q 110 123 116 122 Q 137 119 155 115 Q 155 114 156 114 Q 180 106 187 111 Q 192 113 192 115 Q 190 118 188 118 Q 162 121 143 126" fill="#CCCCCC"/><path d="M 139 147 Q 114 166 107 165 Q 105 165 106 163 Q 107 162 109 161 Q 117 154 124 148 Q 138 133 137 128 Q 137 128 137 128 L 143 126 Q 150 133 150 137 Q 150 138 145 143" fill="#CCCCCC"/><path d="M 181 188 L 177 215 Q 172 246 160 250 L 162 212 Q 167 195 165 179 L 159 164 Q 158 162 156 160 L 144 150 Q 142 148 139 147 L 145 143 Q 147 143 149 144 Q 161 150 168 159 L 171 163 Q 172 164 172 165 L 177 180" fill="#CCCCCC"/><path d="M 160 250 Q 157 251 153 247 Q 148 239 133 227 Q 130 225 130 223 Q 131 221 134 222 Q 155 224 157 223 Q 160 221 162 212" fill="#CCCCCC"/><path d="M 156 160 L 155 160 Q 153 162 146 167 Q 145 168 145 168 Q 121 188 108 187 Q 103 187 107 185 Q 139 164 143 152 Q 143 150 144 150" fill="#CCCCCC"/><path d="M 165 179 Q 165 180 164 181 Q 164 181 156 189 Q 136 209 123 215 Q 106 223 102 220 Q 100 220 103 217 Q 143 192 158 166 Q 159 164 159 164" fill="#CCCCCC"/><path d="M 168 159 Q 182 145 188 135 Q 190 131 190 128 Q 190 123 193 123 Q 199 124 204 128 Q 208 133 210 137 Q 210 140 206 141 Q 194 147 171 163" fill="#CCCCCC"/><path d="M 172 165 Q 194 183 208 189 Q 213 192 254 205 Q 258 206 257 208 Q 257 210 252 210 Q 236 214 220 213 Q 211 213 205 208 Q 191 194 177 180" fill="#CCCCCC"/><path d="M 49 161 L 45 174 Q 41 184 37 193 Q 21 223 14 225 Q 11 226 12 223 Q 12 222 13 220 Q 29 188 37 157 Q 39 149 41 141 Q 49 64 35 48 Q 33 45 36 42 Q 39 41 44 43 Q 49 44 53 47 L 58 54 Q 57 56 57 95 L 56 104 Q 55 124 53 136 L 52 146" fill="#0000ff" clip-path="url(#clip-mask-1)" /><path d="M 53 47 Q 60 45 64 44 Q 69 42 75 38 Q 79 36 83 38 Q 92 42 97 46 L 79 50 Q 78 48 73 49 Q 58 53 58 54" fill="#0000ff" clip-path="url(#clip-mask-2)" /><path d="M 97 46 Q 100 48 97 53 Q 94 59 95 73 Q 95 152 98 201 Q 98 214 89 226 Q 87 228 85 228 Q 81 226 78 222 L 79 204 Q 83 199 83 137 Q 83 61 79 50" fill="#0000ff" clip-path="url(#clip-mask-3)" /><path d="M 78 222 Q 70 214 56 204 Q 55 202 60 203 Q 78 206 79 204" fill="#0000ff" clip-path="url(#clip-mask-4)" /><path d="M 57 95 Q 64 93 68 93 Q 75 93 77 97 Q 80 100 74 101 Q 66 102 56 104" fill="#0000ff" clip-path="url(#clip-mask-5)" /><path d="M 53 136 Q 62 132 67 132 Q 74 133 77 136 Q 80 139 74 141 Q 64 143 52 146" fill="#0000ff" clip-path="url(#clip-mask-6)" /><path d="M 172 53 Q 160 54 150 56 L 141 58 Q 138 58 137 59 Q 121 61 112 57 Q 108 53 114 52 Q 127 50 139 49 L 150 47 Q 162 45 173 43 L 186 41 Q 202 35 213 44 Q 216 48 215 50 Q 214 52 210 52 Q 192 51 182 53" fill="#000080" clip-path="url(#clip-mask-7)" /><path d="M 150 56 Q 150 68 149 70 Q 148 73 145 70 Q 142 66 141 58 L 139 49 Q 137 42 132 36 Q 129 31 133 30 Q 138 28 146 33 Q 151 35 150 39 Q 150 43 150 47" fill="#000080" clip-path="url(#clip-mask-8)" /><path d="M 178 66 L 174 71 Q 170 74 170 71 Q 170 66 172 53 L 173 43 Q 174 28 172 24 Q 170 22 172 20 Q 176 18 180 20 Q 188 23 190 27 Q 193 29 190 32 Q 187 37 186 41 L 182 53" fill="#000080" clip-path="url(#clip-mask-9)" /><path d="M 121 90 L 117 102 Q 116 108 115 109 Q 113 113 112 113 Q 110 115 109 113 Q 106 110 105 105 Q 105 101 107 97 Q 112 83 111 77 Q 112 75 113 74 Q 114 73 115 74 Q 118 75 122 82 L 123 89" fill="#000080" clip-path="url(#clip-mask-10)" /><path d="M 122 82 Q 130 81 139 79 Q 177 72 179 72 Q 207 65 213 69 L 197 77 Q 196 76 194 77 Q 167 79 139 88 Q 128 91 123 89" fill="#000080" clip-path="url(#clip-mask-11)" /><path d="M 213 69 Q 230 80 230 83 Q 230 84 223 87 Q 214 89 203 96 Q 200 99 198 98 Q 197 97 198 94 Q 201 81 201 81 Q 202 79 197 77" fill="#000080" clip-path="url(#clip-mask-12)" /><path d="M 149 96 L 162 92 Q 169 89 175 90 Q 181 92 183 94 Q 184 96 182 98 Q 180 99 153 105 Q 141 107 132 103 Q 127 99 134 98" fill="#000080" clip-path="url(#clip-mask-13)" /><path d="M 137 128 Q 122 131 115 126 Q 110 123 116 122 Q 137 119 155 115 Q 155 114 156 114 Q 180 106 187 111 Q 192 113 192 115 Q 190 118 188 118 Q 162 121 143 126" fill="#000080" clip-path="url(#clip-mask-14)" /><path d="M 139 147 Q 114 166 107 165 Q 105 165 106 163 Q 107 162 109 161 Q 117 154 124 148 Q 138 133 137 128 Q 137 128 137 128 L 143 126 Q 150 133 150 137 Q 150 138 145 143" fill="#000080" clip-path="url(#clip-mask-15)" /><path d="M 181 188 L 177 215 Q 172 246 160 250 L 162 212 Q 167 195 165 179 L 159 164 Q 158 162 156 160 L 144 150 Q 142 148 139 147 L 145 143 Q 147 143 149 144 Q 161 150 168 159 L 171 163 Q 172 164 172 165 L 177 180" fill="#000080" clip-path="url(#clip-mask-16)" /><path d="M 160 250 Q 157 251 153 247 Q 148 239 133 227 Q 130 225 130 223 Q 131 221 134 222 Q 155 224 157 223 Q 160 221 162 212" fill="#000080" clip-path="url(#clip-mask-17)" /><path d="M 156 160 L 155 160 Q 153 162 146 167 Q 145 168 145 168 Q 121 188 108 187 Q 103 187 107 185 Q 139 164 143 152 Q 143 150 144 150" fill="#000080" clip-path="url(#clip-mask-18)" /><path d="M 165 179 Q 165 180 164 181 Q 164 181 156 189 Q 136 209 123 215 Q 106 223 102 220 Q 100 220 103 217 Q 143 192 158 166 Q 159 164 159 164" fill="#000080" clip-path="url(#clip-mask-19)" /><path d="M 168 159 Q 182 145 188 135 Q 190 131 190 128 Q 190 123 193 123 Q 199 124 204 128 Q 208 133 210 137 Q 210 140 206 141 Q 194 147 171 163" fill="#000080" clip-path="url(#clip-mask-20)" /><path d="M 172 165 Q 194 183 208 189 Q 213 192 254 205 Q 258 206 257 208 Q 257 210 252 210 Q 236 214 220 213 Q 211 213 205 208 Q 191 194 177 180" fill="#000080" clip-path="url(#clip-mask-21)" /><rect x="11" y="41" width="47" height="185" id="rect-1" fill="transparent" stroke="#000000"><animate attributeName="y" from="-144" to="41" dur="0.685" begin="0; animate21.end + 1s" id="animate1" fill="freeze"/></rect><rect x="53" y="36" width="44" height="18" id="rect-2" fill="transparent" stroke="#000000"><set attributeName="x" to="9" begin="0; animate21.end + 1s" /><animate attributeName="x" from="9" to="53" dur="0.163" begin="animate1.end + 0.5" id="animate2" fill="freeze"/></rect><rect x="78" y="46" width="22" height="182" id="rect-3" fill="transparent" stroke="#000000"><set attributeName="y" to="-136" begin="0; animate21.end + 1s" /><animate attributeName="y" from="-136" to="46" dur="0.674" begin="animate2.end" id="animate3" fill="freeze"/></rect><rect x="55" y="202" width="24" height="20" id="rect-4" fill="transparent" stroke="#000000"><set attributeName="x" to="79" begin="0; animate21.end + 1s" /><animate attributeName="x" from="79" to="55" dur="0.089" begin="animate3.end" id="animate4" fill="freeze"/></rect><rect x="56" y="93" width="24" height="11" id="rect-5" fill="transparent" stroke="#000000"><set attributeName="x" to="32" begin="0; animate21.end + 1s" /><animate attributeName="x" from="32" to="56" dur="0.089" begin="animate4.end + 0.5" id="animate5" fill="freeze"/></rect><rect x="52" y="132" width="28" height="14" id="rect-6" fill="transparent" stroke="#000000"><set attributeName="x" to="24" begin="0; animate21.end + 1s" /><animate attributeName="x" from="24" to="52" dur="0.104" begin="animate5.end + 0.5" id="animate6" fill="freeze"/></rect><rect x="108" y="35" width="108" height="26" id="rect-7" fill="transparent" stroke="#000000"><set attributeName="x" to="0" begin="0; animate21.end + 1s" /><animate attributeName="x" from="0" to="108" dur="0.400" begin="animate6.end + 0.5" id="animate7" fill="freeze"/></rect><rect x="129" y="28" width="22" height="45" id="rect-8" fill="transparent" stroke="#000000"><set attributeName="y" to="-17" begin="0; animate21.end + 1s" /><animate attributeName="y" from="-17" to="28" dur="0.167" begin="animate7.end + 0.5" id="animate8" fill="freeze"/></rect><rect x="170" y="18" width="23" height="56" id="rect-9" fill="transparent" stroke="#000000"><set attributeName="y" to="-38" begin="0; animate21.end + 1s" /><animate attributeName="y" from="-38" to="18" dur="0.207" begin="animate8.end + 0.5" id="animate9" fill="freeze"/></rect><rect x="105" y="73" width="18" height="42" id="rect-10" fill="transparent" stroke="#000000"><set attributeName="y" to="31" begin="0; animate21.end + 1s" /><animate attributeName="y" from="31" to="73" dur="0.156" begin="animate9.end + 0.5" id="animate10" fill="freeze"/></rect><rect x="122" y="65" width="91" height="26" id="rect-11" fill="transparent" stroke="#000000"><set attributeName="x" to="31" begin="0; animate21.end + 1s" /><animate attributeName="x" from="31" to="122" dur="0.337" begin="animate10.end + 0.5" id="animate11" fill="freeze"/></rect><rect x="197" y="69" width="33" height="30" id="rect-12" fill="transparent" stroke="#000000"><set attributeName="y" to="39" begin="0; animate21.end + 1s" /><animate attributeName="y" from="39" to="69" dur="0.111" begin="animate11.end" id="animate12" fill="freeze"/></rect><rect x="127" y="89" width="57" height="18" id="rect-13" fill="transparent" stroke="#000000"><set attributeName="x" to="70" begin="0; animate21.end + 1s" /><animate attributeName="x" from="70" to="127" dur="0.211" begin="animate12.end + 0.5" id="animate13" fill="freeze"/></rect><rect x="110" y="106" width="82" height="25" id="rect-14" fill="transparent" stroke="#000000"><set attributeName="x" to="28" begin="0; animate21.end + 1s" /><animate attributeName="x" from="28" to="110" dur="0.304" begin="animate13.end + 0.5" id="animate14" fill="freeze"/></rect><rect x="105" y="126" width="45" height="40" id="rect-15" fill="transparent" stroke="#000000"><set attributeName="x" to="150" begin="0; animate21.end + 1s" /><animate attributeName="x" from="150" to="105" dur="0.167" begin="animate14.end + 0.5" id="animate15" fill="freeze"/></rect><rect x="139" y="143" width="42" height="107" id="rect-16" fill="transparent" stroke="#000000"><set attributeName="y" to="36" begin="0; animate21.end + 1s" /><animate attributeName="y" from="36" to="143" dur="0.396" begin="animate15.end + 0.5" id="animate16" fill="freeze"/></rect><rect x="130" y="212" width="32" height="39" id="rect-17" fill="transparent" stroke="#000000"><set attributeName="x" to="162" begin="0; animate21.end + 1s" /><animate attributeName="x" from="162" to="130" dur="0.119" begin="animate16.end" id="animate17" fill="freeze"/></rect><rect x="103" y="150" width="53" height="38" id="rect-18" fill="transparent" stroke="#000000"><set attributeName="x" to="156" begin="0; animate21.end + 1s" /><animate attributeName="x" from="156" to="103" dur="0.196" begin="animate17.end + 0.5" id="animate18" fill="freeze"/></rect><rect x="100" y="164" width="65" height="59" id="rect-19" fill="transparent" stroke="#000000"><set attributeName="x" to="165" begin="0; animate21.end + 1s" /><animate attributeName="x" from="165" to="100" dur="0.241" begin="animate18.end + 0.5" id="animate19" fill="freeze"/></rect><rect x="168" y="123" width="42" height="40" id="rect-20" fill="transparent" stroke="#000000"><set attributeName="x" to="210" begin="0; animate21.end + 1s" /><animate attributeName="x" from="210" to="168" dur="0.156" begin="animate19.end + 0.5" id="animate20" fill="freeze"/></rect><rect x="172" y="165" width="86" height="49" id="rect-21" fill="transparent" stroke="#000000"><set attributeName="x" to="86" begin="0; animate21.end + 1s" /><animate attributeName="x" from="86" to="172" dur="0.319" begin="animate20.end + 0.5" id="animate21" fill="freeze"/></rect></svg>