<svg xmlns="http://www.w3.org/2000/svg" xmlns:xlink="http://www.w3.org/1999/xlink" width="270" height="270"><defs><clipPath id="clip-mask-1"><use xlink:href="#rect-1" /></clipPath><clipPath id="clip-mask-2"><use xlink:href="#rect-2" /></clipPath><clipPath id="clip-mask-3"><use xlink:href="#rect-3" /></clipPath><clipPath id="clip-mask-4"><use xlink:href="#rect-4" /></clipPath><clipPath id="clip-mask-5"><use xlink:href="#rect-5" /></clipPath><clipPath id="clip-mask-6"><use xlink:href="#rect-6" /></clipPath></defs><path d="M 0 0 L 270 270 M 270 0 L 0 270 M 135 0 L 135 270 M 0 135 L 270 135" stroke="#CCCCCC" /><path d="M 86 107 Q 68 110 54 114 Q 47 116 38 110 Q 32 106 39 105 Q 74 98 88 94 Q 89 94 90 94 L 102 90 Q 120 84 129 89 Q 135 91 135 94 Q 132 98 130 98 Q 105 102 102 103" fill="#CCCCCC"/><path d="M 99 202 L 99 212 Q 99 220 96 227 Q 93 232 92 233 Q 90 235 88 234 Q 86 233 84 228 Q 77 212 81 201 Q 84 191 86 180 Q 86 177 88 131 L 90 94 Q 90 79 90 64 Q 90 42 82 31 Q 80 26 82 25 Q 87 21 93 26 Q 101 31 105 34 Q 111 38 107 45 Q 102 64 102 90 L 102 103 Q 101 116 101 127 L 100 133" fill="#CCCCCC"/><path d="M 88 131 Q 76 153 63 168 Q 32 201 26 201 Q 23 201 25 198 Q 70 144 86 107 L 90 94" fill="#CCCCCC"/><path d="M 101 127 Q 104 126 121 132 Q 130 135 132 140 Q 134 146 133 150 Q 133 153 130 153 Q 127 153 124 151 Q 114 143 105 137 Q 102 135 100 133" fill="#CCCCCC"/><path d="M 156 25 L 157 24 Q 163 19 170 24 Q 185 33 187 36 Q 188 40 186 44 Q 181 61 181 87 Q 181 211 181 225 Q 181 234 179 241 Q 176 247 173 248 Q 172 250 170 248 Q 165 246 163 235 Q 159 226 165 199 Q 167 183 168 96 Q 167 77 167 60 Q 167 43 158 29" fill="#CCCCCC"/><path d="M 187 115 L 187 112 Q 185 110 188 109 Q 193 109 202 113 Q 223 118 230 121 Q 239 128 243 137 Q 246 145 243 149 Q 241 150 237 150 Q 232 150 225 145 Q 210 132 192 117" fill="#CCCCCC"/><path d="M 86 107 Q 68 110 54 114 Q 47 116 38 110 Q 32 106 39 105 Q 74 98 88 94 Q 89 94 90 94 L 102 90 Q 120 84 129 89 Q 135 91 135 94 Q 132 98 130 98 Q 105 102 102 103" fill="#0000ff" clip-path="url(#clip-mask-1)" /><path d="M 99 202 L 99 212 Q 99 220 96 227 Q 93 232 92 233 Q 90 235 88 234 Q 86 233 84 228 Q 77 212 81 201 Q 84 191 86 180 Q 86 177 88 131 L 90 94 Q 90 79 90 64 Q 90 42 82 31 Q 80 26 82 25 Q 87 21 93 26 Q 101 31 105 34 Q 111 38 107 45 Q 102 64 102 90 L 102 103 Q 101 116 101 127 L 100 133" fill="#0000ff" clip-path="url(#clip-mask-2)" /><path d="M 88 131 Q 76 153 63 168 Q 32 201 26 201 Q 23 201 25 198 Q 70 144 86 107 L 90 94" fill="#0000ff" clip-path="url(#clip-mask-3)" /><path d="M 101 127 Q 104 126 121 132 Q 130 135 132 140 Q 134 146 133 150 Q 133 153 130 153 Q 127 153 124 151 Q 114 143 105 137 Q 102 135 100 133" fill="#0000ff" clip-path="url(#clip-mask-4)" /><path d="M 156 25 L 157 24 Q 163 19 170 24 Q 185 33 187 36 Q 188 40 186 44 Q 181 61 181 87 Q 181 211 181 225 Q 181 234 179 241 Q 176 247 173 248 Q 172 250 170 248 Q 165 246 163 235 Q 159 226 165 199 Q 167 183 168 96 Q 167 77 167 60 Q 167 43 158 29" fill="#000080" clip-path="url(#clip-mask-5)" /><path d="M 187 115 L 187 112 Q 185 110 188 109 Q 193 109 202 113 Q 223 118 230 121 Q 239 128 243 137 Q 246 145 243 149 Q 241 150 237 150 Q 232 150 225 145 Q 210 132 192 117" fill="#000080" clip-path="url(#clip-mask-6)" /><rect x="32" y="84" width="103" height="32" id="rect-1" fill="transparent" stroke="#000000"><animate attributeName="x" from="-71" to="32" dur="0.381" begin="0; animate6.end + 1s" id="animate1" fill="freeze"/></rect><rect x="77" y="21" width="34" height="214" id="rect-2" fill="transparent" stroke="#000000"><set attributeName="y" to="-193" begin="0; animate6.end + 1s" /><animate attributeName="y" from="-193" to="21" dur="0.793" begin="animate1.end + 0.5" id="animate2" fill="freeze"/></rect><rect x="23" y="94" width="67" height="107" id="rect-3" fill="transparent" stroke="#000000"><set attributeName="y" to="-13" begin="0; animate6.end + 1s" /><animate attributeName="y" from="-13" to="94" dur="0.396" begin="animate2.end + 0.5" id="animate3" fill="freeze"/></rect><rect x="100" y="126" width="34" height="27" id="rect-4" fill="transparent" stroke="#000000"><set attributeName="x" to="66" begin="0; animate6.end + 1s" /><animate attributeName="x" from="66" to="100" dur="0.126" begin="animate3.end + 0.5" id="animate4" fill="freeze"/></rect><rect x="156" y="19" width="32" height="231" id="rect-5" fill="transparent" stroke="#000000"><set attributeName="y" to="-212" begin="0; animate6.end + 1s" /><animate attributeName="y" from="-212" to="19" dur="0.856" begin="animate4.end + 0.5" id="animate5" fill="freeze"/></rect><rect x="185" y="109" width="61" height="41" id="rect-6" fill="transparent" stroke="#000000"><set attributeName="x" to="124" begin="0; animate6.end + 1s" /><animate attributeName="x" from="124" to="185" dur="0.226" begin="animate5.end + 0.5" id="animate6" fill="freeze"/></rect></svg>