<svg xmlns="http://www.w3.org/2000/svg" xmlns:xlink="http://www.w3.org/1999/xlink" width="270" height="270"><defs><clipPath id="clip-mask-1"><use xlink:href="#rect-1" /></clipPath><clipPath id="clip-mask-2"><use xlink:href="#rect-2" /></clipPath><clipPath id="clip-mask-3"><use xlink:href="#rect-3" /></clipPath><clipPath id="clip-mask-4"><use xlink:href="#rect-4" /></clipPath><clipPath id="clip-mask-5"><use xlink:href="#rect-5" /></clipPath><clipPath id="clip-mask-6"><use xlink:href="#rect-6" /></clipPath><clipPath id="clip-mask-7"><use xlink:href="#rect-7" /></clipPath><clipPath id="clip-mask-8"><use xlink:href="#rect-8" /></clipPath></defs><path d="M 0 0 L 270 270 M 270 0 L 0 270 M 135 0 L 135 270 M 0 135 L 270 135" stroke="#CCCCCC" /><path d="M 67 116 Q 62 116 57 118 Q 36 122 26 116 Q 20 112 29 111 Q 45 109 72 103 L 84 99 Q 93 94 103 95 Q 111 98 113 100 Q 114 102 112 104 Q 110 105 83 112" fill="#CCCCCC"/><path d="M 81 208 L 81 217 Q 82 232 74 238 Q 73 240 71 238 Q 69 237 67 233 Q 61 218 64 207 Q 67 196 69 186 Q 69 186 71 136 L 72 103 Q 72 86 72 69 Q 72 50 64 38 Q 63 34 64 33 Q 69 29 75 34 Q 81 37 85 40 Q 93 46 89 52 Q 84 71 84 99 L 83 112 Q 83 122 83 132 L 82 139" fill="#CCCCCC"/><path d="M 71 136 Q 61 157 49 172 Q 21 205 15 205 Q 13 204 14 202 Q 53 151 67 116 L 72 103" fill="#CCCCCC"/><path d="M 83 132 Q 87 132 96 135 Q 102 137 104 141 Q 107 146 107 149 Q 105 153 102 153 Q 97 153 82 139" fill="#CCCCCC"/><path d="M 154 108 Q 152 108 151 108 Q 135 113 123 107 Q 115 102 126 100 Q 142 98 158 94 L 170 91 Q 180 87 190 83 Q 199 80 207 81 Q 215 83 218 86 Q 219 88 217 91 Q 215 92 170 104" fill="#CCCCCC"/><path d="M 169 214 L 169 226 Q 169 235 166 241 Q 163 247 162 248 Q 160 250 158 249 Q 156 248 154 243 Q 153 241 152 239 Q 147 228 153 205 Q 156 188 157 128 L 158 94 Q 157 73 157 55 Q 157 41 148 28 Q 146 24 148 23 Q 153 19 160 23 Q 168 28 172 31 Q 179 36 175 43 Q 170 62 170 91 L 170 104 Q 169 109 169 115 L 169 127" fill="#CCCCCC"/><path d="M 157 128 Q 136 167 103 194 Q 101 196 99 195 Q 96 195 98 193 Q 125 159 137 141 Q 147 125 154 108 L 158 94" fill="#CCCCCC"/><path d="M 169 115 Q 184 133 199 147 Q 214 164 253 184 Q 256 186 256 187 Q 256 189 253 189 Q 244 190 218 189 Q 210 189 206 183 Q 185 154 169 127" fill="#CCCCCC"/><path d="M 67 116 Q 62 116 57 118 Q 36 122 26 116 Q 20 112 29 111 Q 45 109 72 103 L 84 99 Q 93 94 103 95 Q 111 98 113 100 Q 114 102 112 104 Q 110 105 83 112" fill="#0000ff" clip-path="url(#clip-mask-1)" /><path d="M 81 208 L 81 217 Q 82 232 74 238 Q 73 240 71 238 Q 69 237 67 233 Q 61 218 64 207 Q 67 196 69 186 Q 69 186 71 136 L 72 103 Q 72 86 72 69 Q 72 50 64 38 Q 63 34 64 33 Q 69 29 75 34 Q 81 37 85 40 Q 93 46 89 52 Q 84 71 84 99 L 83 112 Q 83 122 83 132 L 82 139" fill="#0000ff" clip-path="url(#clip-mask-2)" /><path d="M 71 136 Q 61 157 49 172 Q 21 205 15 205 Q 13 204 14 202 Q 53 151 67 116 L 72 103" fill="#0000ff" clip-path="url(#clip-mask-3)" /><path d="M 83 132 Q 87 132 96 135 Q 102 137 104 141 Q 107 146 107 149 Q 105 153 102 153 Q 97 153 82 139" fill="#0000ff" clip-path="url(#clip-mask-4)" /><path d="M 154 108 Q 152 108 151 108 Q 135 113 123 107 Q 115 102 126 100 Q 142 98 158 94 L 170 91 Q 180 87 190 83 Q 199 80 207 81 Q 215 83 218 86 Q 219 88 217 91 Q 215 92 170 104" fill="#000080" clip-path="url(#clip-mask-5)" /><path d="M 169 214 L 169 226 Q 169 235 166 241 Q 163 247 162 248 Q 160 250 158 249 Q 156 248 154 243 Q 153 241 152 239 Q 147 228 153 205 Q 156 188 157 128 L 158 94 Q 157 73 157 55 Q 157 41 148 28 Q 146 24 148 23 Q 153 19 160 23 Q 168 28 172 31 Q 179 36 175 43 Q 170 62 170 91 L 170 104 Q 169 109 169 115 L 169 127" fill="#000080" clip-path="url(#clip-mask-6)" /><path d="M 157 128 Q 136 167 103 194 Q 101 196 99 195 Q 96 195 98 193 Q 125 159 137 141 Q 147 125 154 108 L 158 94" fill="#000080" clip-path="url(#clip-mask-7)" /><path d="M 169 115 Q 184 133 199 147 Q 214 164 253 184 Q 256 186 256 187 Q 256 189 253 189 Q 244 190 218 189 Q 210 189 206 183 Q 185 154 169 127" fill="#000080" clip-path="url(#clip-mask-8)" /><rect x="20" y="94" width="94" height="28" id="rect-1" fill="transparent" stroke="#000000"><animate attributeName="x" from="-74" to="20" dur="0.348" begin="0; animate8.end + 1s" id="animate1" fill="freeze"/></rect><rect x="61" y="29" width="32" height="211" id="rect-2" fill="transparent" stroke="#000000"><set attributeName="y" to="-182" begin="0; animate8.end + 1s" /><animate attributeName="y" from="-182" to="29" dur="0.781" begin="animate1.end + 0.5" id="animate2" fill="freeze"/></rect><rect x="13" y="103" width="59" height="102" id="rect-3" fill="transparent" stroke="#000000"><set attributeName="y" to="1" begin="0; animate8.end + 1s" /><animate attributeName="y" from="1" to="103" dur="0.378" begin="animate2.end + 0.5" id="animate3" fill="freeze"/></rect><rect x="82" y="132" width="25" height="21" id="rect-4" fill="transparent" stroke="#000000"><set attributeName="x" to="57" begin="0; animate8.end + 1s" /><animate attributeName="x" from="57" to="82" dur="0.093" begin="animate3.end + 0.5" id="animate4" fill="freeze"/></rect><rect x="115" y="80" width="104" height="33" id="rect-5" fill="transparent" stroke="#000000"><set attributeName="x" to="11" begin="0; animate8.end + 1s" /><animate attributeName="x" from="11" to="115" dur="0.385" begin="animate4.end + 0.5" id="animate5" fill="freeze"/></rect><rect x="146" y="19" width="33" height="231" id="rect-6" fill="transparent" stroke="#000000"><set attributeName="y" to="-212" begin="0; animate8.end + 1s" /><animate attributeName="y" from="-212" to="19" dur="0.856" begin="animate5.end + 0.5" id="animate6" fill="freeze"/></rect><rect x="96" y="94" width="62" height="102" id="rect-7" fill="transparent" stroke="#000000"><set attributeName="x" to="158" begin="0; animate8.end + 1s" /><animate attributeName="x" from="158" to="96" dur="0.230" begin="animate6.end + 0.5" id="animate7" fill="freeze"/></rect><rect x="169" y="115" width="87" height="75" id="rect-8" fill="transparent" stroke="#000000"><set attributeName="x" to="82" begin="0; animate8.end + 1s" /><animate attributeName="x" from="82" to="169" dur="0.322" begin="animate7.end + 0.5" id="animate8" fill="freeze"/></rect></svg>