<svg xmlns="http://www.w3.org/2000/svg" xmlns:xlink="http://www.w3.org/1999/xlink" width="270" height="270"><defs><clipPath id="clip-mask-1"><use xlink:href="#rect-1" /></clipPath><clipPath id="clip-mask-2"><use xlink:href="#rect-2" /></clipPath><clipPath id="clip-mask-3"><use xlink:href="#rect-3" /></clipPath><clipPath id="clip-mask-4"><use xlink:href="#rect-4" /></clipPath><clipPath id="clip-mask-5"><use xlink:href="#rect-5" /></clipPath><clipPath id="clip-mask-6"><use xlink:href="#rect-6" /></clipPath><clipPath id="clip-mask-7"><use xlink:href="#rect-7" /></clipPath><clipPath id="clip-mask-8"><use xlink:href="#rect-8" /></clipPath><clipPath id="clip-mask-9"><use xlink:href="#rect-9" /></clipPath></defs><path d="M 0 0 L 270 270 M 270 0 L 0 270 M 135 0 L 135 270 M 0 135 L 270 135" stroke="#CCCCCC" /><path d="M 70 117 Q 64 117 60 119 Q 40 123 31 118 Q 24 115 33 112 Q 48 110 76 102 L 87 97 Q 95 94 103 95 Q 111 96 113 99 Q 114 102 112 104 Q 111 104 87 112" fill="#CCCCCC"/><path d="M 84 216 L 85 226 Q 85 234 82 241 Q 79 246 77 247 Q 75 250 74 248 Q 72 247 70 242 Q 63 226 66 216 Q 72 197 73 176 Q 73 156 74 137 L 76 102 Q 76 83 76 65 Q 76 44 67 31 Q 66 27 67 26 Q 73 22 79 27 Q 93 36 95 38 Q 96 42 93 46 Q 88 63 88 89 Q 87 93 87 97 L 87 112 Q 86 126 86 140 L 86 148" fill="#CCCCCC"/><path d="M 74 137 Q 63 157 52 170 Q 23 200 18 199 Q 15 199 17 196 Q 56 149 70 117 L 76 102" fill="#CCCCCC"/><path d="M 86 140 Q 86 139 87 140 Q 106 140 109 147 Q 112 153 112 157 Q 111 160 109 160 Q 105 161 102 158 Q 90 150 86 148" fill="#CCCCCC"/><path d="M 157 102 Q 143 107 130 102 Q 122 98 132 95 Q 145 92 157 89 L 171 84 Q 180 80 188 76 Q 196 72 205 72 Q 213 74 216 77 Q 217 79 215 81 Q 213 83 203 87 Q 186 92 170 97" fill="#CCCCCC"/><path d="M 156 133 Q 156 117 157 102 L 157 89 Q 158 64 157 43 Q 157 37 151 28 Q 149 24 151 22 Q 153 20 157 21 Q 164 22 173 27 Q 179 31 178 34 Q 172 59 171 84 L 170 97 Q 168 113 167 129" fill="#CCCCCC"/><path d="M 176 135 Q 172 135 151 144 Q 138 149 128 145 Q 123 144 124 142 Q 125 139 129 139 Q 145 137 156 133 L 167 129 Q 174 126 180 124 Q 187 120 194 122 Q 202 125 206 128 Q 209 132 204 136" fill="#CCCCCC"/><path d="M 143 218 L 119 220 Q 107 220 106 219 Q 103 217 106 216 Q 139 206 157 188 L 164 180 Q 173 170 180 142 Q 181 136 176 135 L 204 136 Q 199 141 196 149 Q 186 173 174 189 L 166 198" fill="#CCCCCC"/><path d="M 157 188 Q 138 165 129 161 Q 127 159 128 157 Q 130 155 133 156 Q 142 157 147 162 Q 155 172 164 180 L 174 189 Q 198 208 216 214 Q 247 223 251 225 Q 254 227 252 229 Q 250 230 228 234 Q 208 238 201 233 Q 178 213 166 198" fill="#CCCCCC"/><path d="M 70 117 Q 64 117 60 119 Q 40 123 31 118 Q 24 115 33 112 Q 48 110 76 102 L 87 97 Q 95 94 103 95 Q 111 96 113 99 Q 114 102 112 104 Q 111 104 87 112" fill="#0000ff" clip-path="url(#clip-mask-1)" /><path d="M 84 216 L 85 226 Q 85 234 82 241 Q 79 246 77 247 Q 75 250 74 248 Q 72 247 70 242 Q 63 226 66 216 Q 72 197 73 176 Q 73 156 74 137 L 76 102 Q 76 83 76 65 Q 76 44 67 31 Q 66 27 67 26 Q 73 22 79 27 Q 93 36 95 38 Q 96 42 93 46 Q 88 63 88 89 Q 87 93 87 97 L 87 112 Q 86 126 86 140 L 86 148" fill="#0000ff" clip-path="url(#clip-mask-2)" /><path d="M 74 137 Q 63 157 52 170 Q 23 200 18 199 Q 15 199 17 196 Q 56 149 70 117 L 76 102" fill="#0000ff" clip-path="url(#clip-mask-3)" /><path d="M 86 140 Q 86 139 87 140 Q 106 140 109 147 Q 112 153 112 157 Q 111 160 109 160 Q 105 161 102 158 Q 90 150 86 148" fill="#0000ff" clip-path="url(#clip-mask-4)" /><path d="M 157 102 Q 143 107 130 102 Q 122 98 132 95 Q 145 92 157 89 L 171 84 Q 180 80 188 76 Q 196 72 205 72 Q 213 74 216 77 Q 217 79 215 81 Q 213 83 203 87 Q 186 92 170 97" fill="#000080" clip-path="url(#clip-mask-5)" /><path d="M 156 133 Q 156 117 157 102 L 157 89 Q 158 64 157 43 Q 157 37 151 28 Q 149 24 151 22 Q 153 20 157 21 Q 164 22 173 27 Q 179 31 178 34 Q 172 59 171 84 L 170 97 Q 168 113 167 129" fill="#000080" clip-path="url(#clip-mask-6)" /><path d="M 176 135 Q 172 135 151 144 Q 138 149 128 145 Q 123 144 124 142 Q 125 139 129 139 Q 145 137 156 133 L 167 129 Q 174 126 180 124 Q 187 120 194 122 Q 202 125 206 128 Q 209 132 204 136" fill="#000080" clip-path="url(#clip-mask-7)" /><path d="M 143 218 L 119 220 Q 107 220 106 219 Q 103 217 106 216 Q 139 206 157 188 L 164 180 Q 173 170 180 142 Q 181 136 176 135 L 204 136 Q 199 141 196 149 Q 186 173 174 189 L 166 198" fill="#000080" clip-path="url(#clip-mask-8)" /><path d="M 157 188 Q 138 165 129 161 Q 127 159 128 157 Q 130 155 133 156 Q 142 157 147 162 Q 155 172 164 180 L 174 189 Q 198 208 216 214 Q 247 223 251 225 Q 254 227 252 229 Q 250 230 228 234 Q 208 238 201 233 Q 178 213 166 198" fill="#000080" clip-path="url(#clip-mask-9)" /><rect x="24" y="94" width="90" height="29" id="rect-1" fill="transparent" stroke="#000000"><animate attributeName="x" from="-66" to="24" dur="0.333" begin="0; animate9.end + 1s" id="animate1" fill="freeze"/></rect><rect x="63" y="22" width="33" height="228" id="rect-2" fill="transparent" stroke="#000000"><set attributeName="y" to="-206" begin="0; animate9.end + 1s" /><animate attributeName="y" from="-206" to="22" dur="0.844" begin="animate1.end + 0.5" id="animate2" fill="freeze"/></rect><rect x="15" y="102" width="61" height="98" id="rect-3" fill="transparent" stroke="#000000"><set attributeName="y" to="4" begin="0; animate9.end + 1s" /><animate attributeName="y" from="4" to="102" dur="0.363" begin="animate2.end + 0.5" id="animate3" fill="freeze"/></rect><rect x="86" y="139" width="26" height="22" id="rect-4" fill="transparent" stroke="#000000"><set attributeName="x" to="60" begin="0; animate9.end + 1s" /><animate attributeName="x" from="60" to="86" dur="0.096" begin="animate3.end + 0.5" id="animate4" fill="freeze"/></rect><rect x="122" y="72" width="95" height="35" id="rect-5" fill="transparent" stroke="#000000"><set attributeName="x" to="27" begin="0; animate9.end + 1s" /><animate attributeName="x" from="27" to="122" dur="0.352" begin="animate4.end + 0.5" id="animate5" fill="freeze"/></rect><rect x="149" y="20" width="30" height="113" id="rect-6" fill="transparent" stroke="#000000"><set attributeName="y" to="-93" begin="0; animate9.end + 1s" /><animate attributeName="y" from="-93" to="20" dur="0.419" begin="animate5.end + 0.5" id="animate6" fill="freeze"/></rect><rect x="123" y="120" width="86" height="29" id="rect-7" fill="transparent" stroke="#000000"><set attributeName="x" to="37" begin="0; animate9.end + 1s" /><animate attributeName="x" from="37" to="123" dur="0.319" begin="animate6.end + 0.5" id="animate7" fill="freeze"/></rect><rect x="103" y="135" width="101" height="85" id="rect-8" fill="transparent" stroke="#000000"><set attributeName="y" to="50" begin="0; animate9.end + 1s" /><animate attributeName="y" from="50" to="135" dur="0.315" begin="animate7.end" id="animate8" fill="freeze"/></rect><rect x="127" y="155" width="127" height="83" id="rect-9" fill="transparent" stroke="#000000"><set attributeName="x" to="0" begin="0; animate9.end + 1s" /><animate attributeName="x" from="0" to="127" dur="0.470" begin="animate8.end + 0.5" id="animate9" fill="freeze"/></rect></svg>