<svg xmlns="http://www.w3.org/2000/svg" xmlns:xlink="http://www.w3.org/1999/xlink" width="270" height="270"><defs><clipPath id="clip-mask-1"><use xlink:href="#rect-1" /></clipPath><clipPath id="clip-mask-2"><use xlink:href="#rect-2" /></clipPath><clipPath id="clip-mask-3"><use xlink:href="#rect-3" /></clipPath><clipPath id="clip-mask-4"><use xlink:href="#rect-4" /></clipPath><clipPath id="clip-mask-5"><use xlink:href="#rect-5" /></clipPath><clipPath id="clip-mask-6"><use xlink:href="#rect-6" /></clipPath><clipPath id="clip-mask-7"><use xlink:href="#rect-7" /></clipPath><clipPath id="clip-mask-8"><use xlink:href="#rect-8" /></clipPath><clipPath id="clip-mask-9"><use xlink:href="#rect-9" /></clipPath><clipPath id="clip-mask-10"><use xlink:href="#rect-10" /></clipPath><clipPath id="clip-mask-11"><use xlink:href="#rect-11" /></clipPath></defs><path d="M 0 0 L 270 270 M 270 0 L 0 270 M 135 0 L 135 270 M 0 135 L 270 135" stroke="#CCCCCC" /><path d="M 69 115 Q 63 117 58 119 Q 40 123 29 118 Q 22 114 32 112 Q 51 109 66 104 Q 70 102 75 101 L 87 96 Q 100 89 109 91 Q 117 92 119 95 Q 121 97 119 100 Q 117 101 87 110" fill="#CCCCCC"/><path d="M 85 215 L 85 225 Q 85 234 83 240 Q 80 246 78 247 Q 76 249 74 248 Q 72 247 70 242 Q 63 225 66 214 Q 72 195 73 175 Q 73 155 74 136 L 75 101 Q 75 82 75 63 Q 75 42 66 29 Q 65 25 66 24 Q 72 20 78 24 Q 86 29 90 32 Q 97 38 93 44 Q 87 64 87 96 L 87 110 Q 87 126 86 139 L 86 145" fill="#CCCCCC"/><path d="M 74 136 Q 65 157 53 171 Q 28 203 23 203 Q 20 202 21 200 Q 59 148 69 115 L 75 101" fill="#CCCCCC"/><path d="M 86 139 Q 87 139 90 139 Q 109 141 112 148 Q 114 154 113 157 Q 113 160 110 161 Q 107 161 92 149 Q 88 147 86 145" fill="#CCCCCC"/><path d="M 159 93 Q 158 93 157 94 Q 143 98 132 92 Q 124 87 134 85 Q 166 82 196 71 Q 204 67 212 68 Q 220 70 222 73 Q 223 75 221 78 Q 219 79 208 82 Q 188 87 169 91" fill="#CCCCCC"/><path d="M 132 141 Q 132 142 132 143 Q 132 149 133 175 Q 135 212 128 218 Q 125 220 123 217 Q 114 208 119 193 Q 125 154 114 136 Q 112 134 115 132 Q 120 132 126 134" fill="#CCCCCC"/><path d="M 160 135 Q 143 137 132 141 L 126 134 Q 160 127 161 127 L 175 124 Q 194 121 214 118 Q 229 114 233 118 Q 242 122 246 126 L 223 129 Q 222 127 219 128 Q 186 130 173 133" fill="#CCCCCC"/><path d="M 246 126 Q 249 127 245 132 Q 242 137 239 184 Q 235 224 226 238 Q 222 244 219 244 L 220 207 Q 225 183 225 141 Q 225 130 223 129" fill="#CCCCCC"/><path d="M 219 244 Q 216 245 214 241 Q 209 233 191 218 Q 188 215 188 213 Q 189 212 192 213 Q 200 214 209 215 Q 217 217 220 207" fill="#CCCCCC"/><path d="M 165 159 L 164 161 Q 163 162 163 164 Q 148 186 143 186 Q 140 187 141 184 Q 142 183 143 182 Q 157 155 160 135 L 161 127 Q 165 99 159 93 L 169 91 Q 175 94 178 97 Q 180 100 178 103 Q 176 111 176 117 Q 175 120 175 124 L 173 133 Q 171 139 168 151 L 166 156" fill="#CCCCCC"/><path d="M 168 151 Q 199 157 204 168 Q 208 177 206 181 Q 204 183 202 183 Q 199 183 195 179 Q 180 166 168 158 Q 167 157 166 156" fill="#CCCCCC"/><path d="M 69 115 Q 63 117 58 119 Q 40 123 29 118 Q 22 114 32 112 Q 51 109 66 104 Q 70 102 75 101 L 87 96 Q 100 89 109 91 Q 117 92 119 95 Q 121 97 119 100 Q 117 101 87 110" fill="#0000ff" clip-path="url(#clip-mask-1)" /><path d="M 85 215 L 85 225 Q 85 234 83 240 Q 80 246 78 247 Q 76 249 74 248 Q 72 247 70 242 Q 63 225 66 214 Q 72 195 73 175 Q 73 155 74 136 L 75 101 Q 75 82 75 63 Q 75 42 66 29 Q 65 25 66 24 Q 72 20 78 24 Q 86 29 90 32 Q 97 38 93 44 Q 87 64 87 96 L 87 110 Q 87 126 86 139 L 86 145" fill="#0000ff" clip-path="url(#clip-mask-2)" /><path d="M 74 136 Q 65 157 53 171 Q 28 203 23 203 Q 20 202 21 200 Q 59 148 69 115 L 75 101" fill="#0000ff" clip-path="url(#clip-mask-3)" /><path d="M 86 139 Q 87 139 90 139 Q 109 141 112 148 Q 114 154 113 157 Q 113 160 110 161 Q 107 161 92 149 Q 88 147 86 145" fill="#0000ff" clip-path="url(#clip-mask-4)" /><path d="M 159 93 Q 158 93 157 94 Q 143 98 132 92 Q 124 87 134 85 Q 166 82 196 71 Q 204 67 212 68 Q 220 70 222 73 Q 223 75 221 78 Q 219 79 208 82 Q 188 87 169 91" fill="#000080" clip-path="url(#clip-mask-5)" /><path d="M 132 141 Q 132 142 132 143 Q 132 149 133 175 Q 135 212 128 218 Q 125 220 123 217 Q 114 208 119 193 Q 125 154 114 136 Q 112 134 115 132 Q 120 132 126 134" fill="#000080" clip-path="url(#clip-mask-6)" /><path d="M 160 135 Q 143 137 132 141 L 126 134 Q 160 127 161 127 L 175 124 Q 194 121 214 118 Q 229 114 233 118 Q 242 122 246 126 L 223 129 Q 222 127 219 128 Q 186 130 173 133" fill="#000080" clip-path="url(#clip-mask-7)" /><path d="M 246 126 Q 249 127 245 132 Q 242 137 239 184 Q 235 224 226 238 Q 222 244 219 244 L 220 207 Q 225 183 225 141 Q 225 130 223 129" fill="#000080" clip-path="url(#clip-mask-8)" /><path d="M 219 244 Q 216 245 214 241 Q 209 233 191 218 Q 188 215 188 213 Q 189 212 192 213 Q 200 214 209 215 Q 217 217 220 207" fill="#000080" clip-path="url(#clip-mask-9)" /><path d="M 165 159 L 164 161 Q 163 162 163 164 Q 148 186 143 186 Q 140 187 141 184 Q 142 183 143 182 Q 157 155 160 135 L 161 127 Q 165 99 159 93 L 169 91 Q 175 94 178 97 Q 180 100 178 103 Q 176 111 176 117 Q 175 120 175 124 L 173 133 Q 171 139 168 151 L 166 156" fill="#000080" clip-path="url(#clip-mask-10)" /><path d="M 168 151 Q 199 157 204 168 Q 208 177 206 181 Q 204 183 202 183 Q 199 183 195 179 Q 180 166 168 158 Q 167 157 166 156" fill="#000080" clip-path="url(#clip-mask-11)" /><rect x="22" y="89" width="99" height="34" id="rect-1" fill="transparent" stroke="#000000"><animate attributeName="x" from="-77" to="22" dur="0.367" begin="0; animate11.end + 1s" id="animate1" fill="freeze"/></rect><rect x="63" y="20" width="34" height="229" id="rect-2" fill="transparent" stroke="#000000"><set attributeName="y" to="-209" begin="0; animate11.end + 1s" /><animate attributeName="y" from="-209" to="20" dur="0.848" begin="animate1.end + 0.5" id="animate2" fill="freeze"/></rect><rect x="20" y="101" width="55" height="102" id="rect-3" fill="transparent" stroke="#000000"><set attributeName="y" to="-1" begin="0; animate11.end + 1s" /><animate attributeName="y" from="-1" to="101" dur="0.378" begin="animate2.end + 0.5" id="animate3" fill="freeze"/></rect><rect x="86" y="139" width="28" height="22" id="rect-4" fill="transparent" stroke="#000000"><set attributeName="x" to="58" begin="0; animate11.end + 1s" /><animate attributeName="x" from="58" to="86" dur="0.104" begin="animate3.end + 0.5" id="animate4" fill="freeze"/></rect><rect x="124" y="67" width="99" height="31" id="rect-5" fill="transparent" stroke="#000000"><set attributeName="x" to="25" begin="0; animate11.end + 1s" /><animate attributeName="x" from="25" to="124" dur="0.367" begin="animate4.end + 0.5" id="animate5" fill="freeze"/></rect><rect x="112" y="132" width="23" height="88" id="rect-6" fill="transparent" stroke="#000000"><set attributeName="y" to="44" begin="0; animate11.end + 1s" /><animate attributeName="y" from="44" to="132" dur="0.326" begin="animate5.end + 0.5" id="animate6" fill="freeze"/></rect><rect x="126" y="114" width="120" height="27" id="rect-7" fill="transparent" stroke="#000000"><set attributeName="x" to="6" begin="0; animate11.end + 1s" /><animate attributeName="x" from="6" to="126" dur="0.444" begin="animate6.end + 0.5" id="animate7" fill="freeze"/></rect><rect x="219" y="126" width="30" height="118" id="rect-8" fill="transparent" stroke="#000000"><set attributeName="y" to="8" begin="0; animate11.end + 1s" /><animate attributeName="y" from="8" to="126" dur="0.437" begin="animate7.end" id="animate8" fill="freeze"/></rect><rect x="188" y="207" width="32" height="38" id="rect-9" fill="transparent" stroke="#000000"><set attributeName="x" to="220" begin="0; animate11.end + 1s" /><animate attributeName="x" from="220" to="188" dur="0.119" begin="animate8.end" id="animate9" fill="freeze"/></rect><rect x="140" y="91" width="40" height="96" id="rect-10" fill="transparent" stroke="#000000"><set attributeName="y" to="-5" begin="0; animate11.end + 1s" /><animate attributeName="y" from="-5" to="91" dur="0.356" begin="animate9.end + 0.5" id="animate10" fill="freeze"/></rect><rect x="166" y="151" width="42" height="32" id="rect-11" fill="transparent" stroke="#000000"><set attributeName="x" to="124" begin="0; animate11.end + 1s" /><animate attributeName="x" from="124" to="166" dur="0.156" begin="animate10.end + 0.5" id="animate11" fill="freeze"/></rect></svg>