<svg xmlns="http://www.w3.org/2000/svg" xmlns:xlink="http://www.w3.org/1999/xlink" width="270" height="270"><defs><clipPath id="clip-mask-1"><use xlink:href="#rect-1" /></clipPath><clipPath id="clip-mask-2"><use xlink:href="#rect-2" /></clipPath><clipPath id="clip-mask-3"><use xlink:href="#rect-3" /></clipPath><clipPath id="clip-mask-4"><use xlink:href="#rect-4" /></clipPath><clipPath id="clip-mask-5"><use xlink:href="#rect-5" /></clipPath><clipPath id="clip-mask-6"><use xlink:href="#rect-6" /></clipPath><clipPath id="clip-mask-7"><use xlink:href="#rect-7" /></clipPath><clipPath id="clip-mask-8"><use xlink:href="#rect-8" /></clipPath><clipPath id="clip-mask-9"><use xlink:href="#rect-9" /></clipPath><clipPath id="clip-mask-10"><use xlink:href="#rect-10" /></clipPath><clipPath id="clip-mask-11"><use xlink:href="#rect-11" /></clipPath></defs><path d="M 0 0 L 270 270 M 270 0 L 0 270 M 135 0 L 135 270 M 0 135 L 270 135" stroke="#CCCCCC" /><path d="M 82 117 Q 76 118 70 119 Q 52 123 41 118 Q 34 114 44 112 Q 59 110 88 103 L 100 99 Q 101 98 102 98 Q 110 95 118 96 Q 126 98 128 101 Q 129 103 127 105 Q 126 106 100 113" fill="#CCCCCC"/><path d="M 98 213 L 98 223 Q 98 231 95 238 Q 92 243 90 244 Q 88 247 87 245 Q 85 244 83 239 Q 76 223 79 212 Q 82 203 83 194 Q 86 183 86 139 L 88 103 Q 88 83 88 65 Q 87 45 79 32 Q 77 28 79 26 Q 84 22 91 27 Q 106 36 107 39 Q 108 42 106 47 Q 101 64 101 88 Q 100 94 100 99 L 100 113 Q 99 128 99 142 L 99 149" fill="#CCCCCC"/><path d="M 86 139 Q 67 176 32 205 Q 30 207 28 207 Q 25 207 27 204 Q 67 154 82 117 L 88 103" fill="#CCCCCC"/><path d="M 99 142 Q 100 141 100 142 Q 123 146 127 154 Q 129 160 128 163 Q 127 166 125 166 Q 122 167 119 164 Q 110 157 102 152 Q 100 150 99 149" fill="#CCCCCC"/><path d="M 165 109 Q 165 108 165 108 Q 167 104 168 100 Q 182 51 176 44 Q 173 41 176 38 Q 180 36 188 36 Q 197 37 203 40 Q 209 44 204 49 Q 198 55 187 80 Q 181 91 171 108" fill="#CCCCCC"/><path d="M 159 208 L 159 209 Q 158 217 154 215 Q 153 215 153 215 Q 144 206 145 190 Q 150 133 139 108 Q 136 105 139 104 Q 140 102 142 103 Q 148 106 154 110 L 159 120 Q 158 134 158 153 L 158 160 Q 159 190 160 197 L 160 206" fill="#CCCCCC"/><path d="M 213 110 Q 211 109 206 109 Q 160 120 159 120 L 154 110 Q 159 109 165 109 L 171 108 Q 181 105 196 100 Q 217 92 222 95 Q 234 100 241 105" fill="#CCCCCC"/><path d="M 215 192 Q 219 156 216 120 Q 216 112 213 110 L 241 105 Q 244 108 240 114 Q 234 122 233 135 Q 233 155 233 172 Q 234 199 226 220 Q 224 227 220 228 Q 217 229 215 224" fill="#CCCCCC"/><path d="M 213 198 Q 215 197 215 192 L 215 224 Q 206 211 203 204" fill="#CCCCCC"/><path d="M 158 153 Q 187 143 196 145 Q 203 147 206 151 Q 208 155 202 156 Q 185 157 163 160 Q 160 160 158 160" fill="#CCCCCC"/><path d="M 160 197 Q 175 195 194 192 Q 203 190 207 193 Q 211 196 213 198 L 203 204 Q 177 204 165 206 Q 162 206 160 206" fill="#CCCCCC"/><path d="M 82 117 Q 76 118 70 119 Q 52 123 41 118 Q 34 114 44 112 Q 59 110 88 103 L 100 99 Q 101 98 102 98 Q 110 95 118 96 Q 126 98 128 101 Q 129 103 127 105 Q 126 106 100 113" fill="#0000ff" clip-path="url(#clip-mask-1)" /><path d="M 98 213 L 98 223 Q 98 231 95 238 Q 92 243 90 244 Q 88 247 87 245 Q 85 244 83 239 Q 76 223 79 212 Q 82 203 83 194 Q 86 183 86 139 L 88 103 Q 88 83 88 65 Q 87 45 79 32 Q 77 28 79 26 Q 84 22 91 27 Q 106 36 107 39 Q 108 42 106 47 Q 101 64 101 88 Q 100 94 100 99 L 100 113 Q 99 128 99 142 L 99 149" fill="#0000ff" clip-path="url(#clip-mask-2)" /><path d="M 86 139 Q 67 176 32 205 Q 30 207 28 207 Q 25 207 27 204 Q 67 154 82 117 L 88 103" fill="#0000ff" clip-path="url(#clip-mask-3)" /><path d="M 99 142 Q 100 141 100 142 Q 123 146 127 154 Q 129 160 128 163 Q 127 166 125 166 Q 122 167 119 164 Q 110 157 102 152 Q 100 150 99 149" fill="#0000ff" clip-path="url(#clip-mask-4)" /><path d="M 165 109 Q 165 108 165 108 Q 167 104 168 100 Q 182 51 176 44 Q 173 41 176 38 Q 180 36 188 36 Q 197 37 203 40 Q 209 44 204 49 Q 198 55 187 80 Q 181 91 171 108" fill="#000080" clip-path="url(#clip-mask-5)" /><path d="M 159 208 L 159 209 Q 158 217 154 215 Q 153 215 153 215 Q 144 206 145 190 Q 150 133 139 108 Q 136 105 139 104 Q 140 102 142 103 Q 148 106 154 110 L 159 120 Q 158 134 158 153 L 158 160 Q 159 190 160 197 L 160 206" fill="#000080" clip-path="url(#clip-mask-6)" /><path d="M 213 110 Q 211 109 206 109 Q 160 120 159 120 L 154 110 Q 159 109 165 109 L 171 108 Q 181 105 196 100 Q 217 92 222 95 Q 234 100 241 105" fill="#000080" clip-path="url(#clip-mask-7)" /><path d="M 215 192 Q 219 156 216 120 Q 216 112 213 110 L 241 105 Q 244 108 240 114 Q 234 122 233 135 Q 233 155 233 172 Q 234 199 226 220 Q 224 227 220 228 Q 217 229 215 224" fill="#000080" clip-path="url(#clip-mask-8)" /><path d="M 213 198 Q 215 197 215 192 L 215 224 Q 206 211 203 204" fill="#000080" clip-path="url(#clip-mask-9)" /><path d="M 158 153 Q 187 143 196 145 Q 203 147 206 151 Q 208 155 202 156 Q 185 157 163 160 Q 160 160 158 160" fill="#000080" clip-path="url(#clip-mask-10)" /><path d="M 160 197 Q 175 195 194 192 Q 203 190 207 193 Q 211 196 213 198 L 203 204 Q 177 204 165 206 Q 162 206 160 206" fill="#000080" clip-path="url(#clip-mask-11)" /><rect x="34" y="95" width="95" height="28" id="rect-1" fill="transparent" stroke="#000000"><animate attributeName="x" from="-61" to="34" dur="0.352" begin="0; animate11.end + 1s" id="animate1" fill="freeze"/></rect><rect x="76" y="22" width="32" height="225" id="rect-2" fill="transparent" stroke="#000000"><set attributeName="y" to="-203" begin="0; animate11.end + 1s" /><animate attributeName="y" from="-203" to="22" dur="0.833" begin="animate1.end + 0.5" id="animate2" fill="freeze"/></rect><rect x="25" y="103" width="63" height="104" id="rect-3" fill="transparent" stroke="#000000"><set attributeName="y" to="-1" begin="0; animate11.end + 1s" /><animate attributeName="y" from="-1" to="103" dur="0.385" begin="animate2.end + 0.5" id="animate3" fill="freeze"/></rect><rect x="99" y="141" width="30" height="26" id="rect-4" fill="transparent" stroke="#000000"><set attributeName="x" to="69" begin="0; animate11.end + 1s" /><animate attributeName="x" from="69" to="99" dur="0.111" begin="animate3.end + 0.5" id="animate4" fill="freeze"/></rect><rect x="165" y="36" width="44" height="73" id="rect-5" fill="transparent" stroke="#000000"><set attributeName="y" to="-37" begin="0; animate11.end + 1s" /><animate attributeName="y" from="-37" to="36" dur="0.270" begin="animate4.end + 0.5" id="animate5" fill="freeze"/></rect><rect x="136" y="102" width="24" height="115" id="rect-6" fill="transparent" stroke="#000000"><set attributeName="y" to="-13" begin="0; animate11.end + 1s" /><animate attributeName="y" from="-13" to="102" dur="0.426" begin="animate5.end + 0.5" id="animate6" fill="freeze"/></rect><rect x="154" y="92" width="87" height="28" id="rect-7" fill="transparent" stroke="#000000"><set attributeName="x" to="67" begin="0; animate11.end + 1s" /><animate attributeName="x" from="67" to="154" dur="0.322" begin="animate6.end + 0.5" id="animate7" fill="freeze"/></rect><rect x="213" y="105" width="31" height="124" id="rect-8" fill="transparent" stroke="#000000"><set attributeName="y" to="-19" begin="0; animate11.end + 1s" /><animate attributeName="y" from="-19" to="105" dur="0.459" begin="animate7.end" id="animate8" fill="freeze"/></rect><rect x="203" y="192" width="12" height="32" id="rect-9" fill="transparent" stroke="#000000"><set attributeName="x" to="215" begin="0; animate11.end + 1s" /><animate attributeName="x" from="215" to="203" dur="0.044" begin="animate8.end" id="animate9" fill="freeze"/></rect><rect x="158" y="143" width="50" height="17" id="rect-10" fill="transparent" stroke="#000000"><set attributeName="x" to="108" begin="0; animate11.end + 1s" /><animate attributeName="x" from="108" to="158" dur="0.185" begin="animate9.end + 0.5" id="animate10" fill="freeze"/></rect><rect x="160" y="190" width="53" height="16" id="rect-11" fill="transparent" stroke="#000000"><set attributeName="x" to="107" begin="0; animate11.end + 1s" /><animate attributeName="x" from="107" to="160" dur="0.196" begin="animate10.end + 0.5" id="animate11" fill="freeze"/></rect></svg>