<svg xmlns="http://www.w3.org/2000/svg" xmlns:xlink="http://www.w3.org/1999/xlink" width="270" height="270"><defs><clipPath id="clip-mask-1"><use xlink:href="#rect-1" /></clipPath><clipPath id="clip-mask-2"><use xlink:href="#rect-2" /></clipPath><clipPath id="clip-mask-3"><use xlink:href="#rect-3" /></clipPath><clipPath id="clip-mask-4"><use xlink:href="#rect-4" /></clipPath><clipPath id="clip-mask-5"><use xlink:href="#rect-5" /></clipPath><clipPath id="clip-mask-6"><use xlink:href="#rect-6" /></clipPath><clipPath id="clip-mask-7"><use xlink:href="#rect-7" /></clipPath><clipPath id="clip-mask-8"><use xlink:href="#rect-8" /></clipPath><clipPath id="clip-mask-9"><use xlink:href="#rect-9" /></clipPath><clipPath id="clip-mask-10"><use xlink:href="#rect-10" /></clipPath><clipPath id="clip-mask-11"><use xlink:href="#rect-11" /></clipPath></defs><path d="M 0 0 L 270 270 M 270 0 L 0 270 M 135 0 L 135 270 M 0 135 L 270 135" stroke="#CCCCCC" /><path d="M 68 105 Q 61 105 55 107 Q 33 111 22 106 Q 14 101 25 99 Q 46 97 75 89 L 87 85 Q 93 82 101 84 Q 109 86 112 89 Q 113 92 110 94 Q 109 96 97 98 Q 92 99 86 101" fill="#CCCCCC"/><path d="M 83 211 L 84 222 Q 83 239 76 244 Q 74 246 72 245 Q 70 244 68 239 Q 62 222 65 211 Q 68 201 70 190 Q 70 187 73 124 L 75 89 Q 75 68 75 50 Q 75 36 66 23 Q 64 19 66 18 Q 71 13 77 18 Q 85 23 89 26 Q 96 31 93 38 Q 87 59 87 85 L 86 101 Q 86 115 86 128 L 85 136" fill="#CCCCCC"/><path d="M 73 124 Q 62 146 50 161 Q 23 192 17 192 Q 14 192 15 189 Q 41 156 52 138 Q 62 122 68 105 L 75 89" fill="#CCCCCC"/><path d="M 86 128 Q 86 128 87 128 Q 94 130 100 132 Q 107 135 108 139 Q 110 145 109 148 Q 108 151 105 151 Q 102 151 99 149 Q 91 139 85 136" fill="#CCCCCC"/><path d="M 160 83 L 139 90 Q 135 91 129 90 Q 124 89 121 85 Q 116 81 122 80 Q 197 68 227 60 Q 237 57 251 67 Q 255 70 254 74 Q 252 76 238 76 Q 214 77 197 79 L 184 80" fill="#CCCCCC"/><path d="M 134 165 L 133 167 Q 132 170 127 165 Q 124 161 123 156 Q 119 136 113 124 Q 112 120 113 119 Q 114 117 116 118 Q 123 119 125 120 L 129 127 Q 129 133 133 153 L 134 162" fill="#CCCCCC"/><path d="M 155 124 Q 154 122 148 123 Q 130 126 129 127 L 125 120 Q 136 118 147 115 Q 159 108 163 111 Q 170 116 174 119" fill="#CCCCCC"/><path d="M 151 149 Q 156 125 155 124 L 174 119 Q 180 122 174 129 Q 168 133 163 151" fill="#CCCCCC"/><path d="M 133 153 Q 140 152 149 149 Q 150 149 151 149 L 163 151 Q 168 154 168 155 Q 168 158 165 158 Q 146 159 137 161 Q 135 162 134 162" fill="#CCCCCC"/><path d="M 197 79 Q 206 83 208 87 Q 210 90 208 98 Q 206 140 210 212 Q 211 235 199 251 Q 195 256 191 253 L 189 222 Q 191 219 192 210 Q 191 137 190 105 Q 190 93 186 85 Q 184 82 184 80" fill="#CCCCCC"/><path d="M 191 253 Q 182 241 167 225 Q 163 222 163 220 Q 164 218 167 219 Q 186 223 189 222" fill="#CCCCCC"/><path d="M 68 105 Q 61 105 55 107 Q 33 111 22 106 Q 14 101 25 99 Q 46 97 75 89 L 87 85 Q 93 82 101 84 Q 109 86 112 89 Q 113 92 110 94 Q 109 96 97 98 Q 92 99 86 101" fill="#0000ff" clip-path="url(#clip-mask-1)" /><path d="M 83 211 L 84 222 Q 83 239 76 244 Q 74 246 72 245 Q 70 244 68 239 Q 62 222 65 211 Q 68 201 70 190 Q 70 187 73 124 L 75 89 Q 75 68 75 50 Q 75 36 66 23 Q 64 19 66 18 Q 71 13 77 18 Q 85 23 89 26 Q 96 31 93 38 Q 87 59 87 85 L 86 101 Q 86 115 86 128 L 85 136" fill="#0000ff" clip-path="url(#clip-mask-2)" /><path d="M 73 124 Q 62 146 50 161 Q 23 192 17 192 Q 14 192 15 189 Q 41 156 52 138 Q 62 122 68 105 L 75 89" fill="#0000ff" clip-path="url(#clip-mask-3)" /><path d="M 86 128 Q 86 128 87 128 Q 94 130 100 132 Q 107 135 108 139 Q 110 145 109 148 Q 108 151 105 151 Q 102 151 99 149 Q 91 139 85 136" fill="#0000ff" clip-path="url(#clip-mask-4)" /><path d="M 160 83 L 139 90 Q 135 91 129 90 Q 124 89 121 85 Q 116 81 122 80 Q 197 68 227 60 Q 237 57 251 67 Q 255 70 254 74 Q 252 76 238 76 Q 214 77 197 79 L 184 80" fill="#000080" clip-path="url(#clip-mask-5)" /><path d="M 134 165 L 133 167 Q 132 170 127 165 Q 124 161 123 156 Q 119 136 113 124 Q 112 120 113 119 Q 114 117 116 118 Q 123 119 125 120 L 129 127 Q 129 133 133 153 L 134 162" fill="#000080" clip-path="url(#clip-mask-6)" /><path d="M 155 124 Q 154 122 148 123 Q 130 126 129 127 L 125 120 Q 136 118 147 115 Q 159 108 163 111 Q 170 116 174 119" fill="#000080" clip-path="url(#clip-mask-7)" /><path d="M 151 149 Q 156 125 155 124 L 174 119 Q 180 122 174 129 Q 168 133 163 151" fill="#000080" clip-path="url(#clip-mask-8)" /><path d="M 133 153 Q 140 152 149 149 Q 150 149 151 149 L 163 151 Q 168 154 168 155 Q 168 158 165 158 Q 146 159 137 161 Q 135 162 134 162" fill="#000080" clip-path="url(#clip-mask-9)" /><path d="M 197 79 Q 206 83 208 87 Q 210 90 208 98 Q 206 140 210 212 Q 211 235 199 251 Q 195 256 191 253 L 189 222 Q 191 219 192 210 Q 191 137 190 105 Q 190 93 186 85 Q 184 82 184 80" fill="#000080" clip-path="url(#clip-mask-10)" /><path d="M 191 253 Q 182 241 167 225 Q 163 222 163 220 Q 164 218 167 219 Q 186 223 189 222" fill="#000080" clip-path="url(#clip-mask-11)" /><rect x="14" y="82" width="99" height="29" id="rect-1" fill="transparent" stroke="#000000"><animate attributeName="x" from="-85" to="14" dur="0.367" begin="0; animate11.end + 1s" id="animate1" fill="freeze"/></rect><rect x="62" y="13" width="34" height="233" id="rect-2" fill="transparent" stroke="#000000"><set attributeName="y" to="-220" begin="0; animate11.end + 1s" /><animate attributeName="y" from="-220" to="13" dur="0.863" begin="animate1.end + 0.5" id="animate2" fill="freeze"/></rect><rect x="14" y="89" width="61" height="103" id="rect-3" fill="transparent" stroke="#000000"><set attributeName="y" to="-14" begin="0; animate11.end + 1s" /><animate attributeName="y" from="-14" to="89" dur="0.381" begin="animate2.end + 0.5" id="animate3" fill="freeze"/></rect><rect x="85" y="128" width="25" height="23" id="rect-4" fill="transparent" stroke="#000000"><set attributeName="x" to="60" begin="0; animate11.end + 1s" /><animate attributeName="x" from="60" to="85" dur="0.093" begin="animate3.end + 0.5" id="animate4" fill="freeze"/></rect><rect x="116" y="57" width="139" height="34" id="rect-5" fill="transparent" stroke="#000000"><set attributeName="x" to="-23" begin="0; animate11.end + 1s" /><animate attributeName="x" from="-23" to="116" dur="0.515" begin="animate4.end + 0.5" id="animate5" fill="freeze"/></rect><rect x="112" y="117" width="22" height="53" id="rect-6" fill="transparent" stroke="#000000"><set attributeName="y" to="64" begin="0; animate11.end + 1s" /><animate attributeName="y" from="64" to="117" dur="0.196" begin="animate5.end + 0.5" id="animate6" fill="freeze"/></rect><rect x="125" y="108" width="49" height="19" id="rect-7" fill="transparent" stroke="#000000"><set attributeName="x" to="76" begin="0; animate11.end + 1s" /><animate attributeName="x" from="76" to="125" dur="0.181" begin="animate6.end + 0.5" id="animate7" fill="freeze"/></rect><rect x="151" y="119" width="29" height="32" id="rect-8" fill="transparent" stroke="#000000"><set attributeName="y" to="87" begin="0; animate11.end + 1s" /><animate attributeName="y" from="87" to="119" dur="0.119" begin="animate7.end" id="animate8" fill="freeze"/></rect><rect x="133" y="149" width="35" height="13" id="rect-9" fill="transparent" stroke="#000000"><set attributeName="x" to="98" begin="0; animate11.end + 1s" /><animate attributeName="x" from="98" to="133" dur="0.130" begin="animate8.end + 0.5" id="animate9" fill="freeze"/></rect><rect x="184" y="79" width="27" height="177" id="rect-10" fill="transparent" stroke="#000000"><set attributeName="y" to="-98" begin="0; animate11.end + 1s" /><animate attributeName="y" from="-98" to="79" dur="0.656" begin="animate9.end + 0.5" id="animate10" fill="freeze"/></rect><rect x="163" y="218" width="28" height="35" id="rect-11" fill="transparent" stroke="#000000"><set attributeName="x" to="191" begin="0; animate11.end + 1s" /><animate attributeName="x" from="191" to="163" dur="0.104" begin="animate10.end" id="animate11" fill="freeze"/></rect></svg>