<svg xmlns="http://www.w3.org/2000/svg" xmlns:xlink="http://www.w3.org/1999/xlink" width="270" height="270"><defs><clipPath id="clip-mask-1"><use xlink:href="#rect-1" /></clipPath><clipPath id="clip-mask-2"><use xlink:href="#rect-2" /></clipPath><clipPath id="clip-mask-3"><use xlink:href="#rect-3" /></clipPath><clipPath id="clip-mask-4"><use xlink:href="#rect-4" /></clipPath><clipPath id="clip-mask-5"><use xlink:href="#rect-5" /></clipPath><clipPath id="clip-mask-6"><use xlink:href="#rect-6" /></clipPath><clipPath id="clip-mask-7"><use xlink:href="#rect-7" /></clipPath><clipPath id="clip-mask-8"><use xlink:href="#rect-8" /></clipPath><clipPath id="clip-mask-9"><use xlink:href="#rect-9" /></clipPath><clipPath id="clip-mask-10"><use xlink:href="#rect-10" /></clipPath><clipPath id="clip-mask-11"><use xlink:href="#rect-11" /></clipPath><clipPath id="clip-mask-12"><use xlink:href="#rect-12" /></clipPath></defs><path d="M 0 0 L 270 270 M 270 0 L 0 270 M 135 0 L 135 270 M 0 135 L 270 135" stroke="#CCCCCC" /><path d="M 64 111 Q 60 112 57 113 Q 39 116 28 111 Q 21 107 31 105 Q 47 103 70 97 L 81 93 Q 92 88 103 89 Q 111 91 112 94 Q 114 96 111 99 Q 110 99 80 107" fill="#CCCCCC"/><path d="M 78 214 L 78 225 Q 78 233 76 240 Q 73 245 71 246 Q 69 248 67 247 Q 65 246 63 241 Q 57 224 60 214 Q 64 203 65 191 Q 66 184 68 133 L 70 97 Q 70 96 70 96 Q 70 75 70 56 Q 70 43 61 30 Q 60 26 61 25 Q 66 21 72 25 Q 80 30 84 33 Q 90 38 87 45 Q 81 65 81 93 L 80 107 Q 80 118 80 128 L 80 136" fill="#CCCCCC"/><path d="M 68 133 Q 50 169 17 197 Q 15 200 13 199 Q 10 199 11 196 Q 52 143 64 111 L 70 97" fill="#CCCCCC"/><path d="M 80 128 Q 80 128 80 128 Q 101 132 104 138 Q 106 144 105 147 Q 104 150 103 150 Q 102 150 101 150 Q 100 150 80 136" fill="#CCCCCC"/><path d="M 145 79 Q 139 88 134 95 L 130 100 Q 117 115 112 116 Q 109 117 110 115 Q 110 113 112 111 Q 136 76 146 46 Q 148 37 145 32 Q 143 27 147 26 Q 152 26 159 30 Q 166 35 167 38 Q 169 41 167 44 Q 161 50 150 72" fill="#CCCCCC"/><path d="M 180 79 Q 178 76 172 78 Q 151 82 145 79 L 150 72 Q 158 71 176 67 Q 190 60 194 63 Q 211 69 211 72 Q 213 75 209 78" fill="#CCCCCC"/><path d="M 119 179 L 94 183 Q 90 183 94 180 Q 133 149 153 123 L 160 115 Q 170 101 177 87 Q 181 81 180 79 L 209 78 Q 199 85 193 93 Q 182 109 171 122 L 163 132" fill="#CCCCCC"/><path d="M 153 123 Q 143 114 130 100 L 134 95 Q 139 99 152 109 Q 156 112 160 115 L 171 122 Q 203 140 223 146 Q 240 151 255 155 Q 259 157 259 159 Q 259 160 254 161 Q 221 169 206 166 Q 198 163 163 132" fill="#CCCCCC"/><path d="M 139 235 L 138 238 Q 137 242 132 236 Q 127 231 127 224 Q 123 199 117 183 Q 115 179 116 177 Q 117 176 121 177 Q 127 178 131 180 L 135 188 Q 136 195 139 222 L 139 231" fill="#CCCCCC"/><path d="M 185 181 Q 184 179 178 180 Q 158 184 137 187 Q 136 187 135 188 L 131 180 Q 161 176 183 168 Q 189 166 194 168 Q 208 175 212 178" fill="#CCCCCC"/><path d="M 181 216 Q 185 203 187 189 Q 188 184 185 181 L 212 178 Q 215 183 211 188 Q 203 194 196 216" fill="#CCCCCC"/><path d="M 139 222 Q 158 220 181 216 L 196 216 Q 204 222 203 224 Q 203 227 200 227 Q 163 228 145 231 Q 142 231 139 231" fill="#CCCCCC"/><path d="M 64 111 Q 60 112 57 113 Q 39 116 28 111 Q 21 107 31 105 Q 47 103 70 97 L 81 93 Q 92 88 103 89 Q 111 91 112 94 Q 114 96 111 99 Q 110 99 80 107" fill="#0000ff" clip-path="url(#clip-mask-1)" /><path d="M 78 214 L 78 225 Q 78 233 76 240 Q 73 245 71 246 Q 69 248 67 247 Q 65 246 63 241 Q 57 224 60 214 Q 64 203 65 191 Q 66 184 68 133 L 70 97 Q 70 96 70 96 Q 70 75 70 56 Q 70 43 61 30 Q 60 26 61 25 Q 66 21 72 25 Q 80 30 84 33 Q 90 38 87 45 Q 81 65 81 93 L 80 107 Q 80 118 80 128 L 80 136" fill="#0000ff" clip-path="url(#clip-mask-2)" /><path d="M 68 133 Q 50 169 17 197 Q 15 200 13 199 Q 10 199 11 196 Q 52 143 64 111 L 70 97" fill="#0000ff" clip-path="url(#clip-mask-3)" /><path d="M 80 128 Q 80 128 80 128 Q 101 132 104 138 Q 106 144 105 147 Q 104 150 103 150 Q 102 150 101 150 Q 100 150 80 136" fill="#0000ff" clip-path="url(#clip-mask-4)" /><path d="M 145 79 Q 139 88 134 95 L 130 100 Q 117 115 112 116 Q 109 117 110 115 Q 110 113 112 111 Q 136 76 146 46 Q 148 37 145 32 Q 143 27 147 26 Q 152 26 159 30 Q 166 35 167 38 Q 169 41 167 44 Q 161 50 150 72" fill="#000080" clip-path="url(#clip-mask-5)" /><path d="M 180 79 Q 178 76 172 78 Q 151 82 145 79 L 150 72 Q 158 71 176 67 Q 190 60 194 63 Q 211 69 211 72 Q 213 75 209 78" fill="#000080" clip-path="url(#clip-mask-6)" /><path d="M 119 179 L 94 183 Q 90 183 94 180 Q 133 149 153 123 L 160 115 Q 170 101 177 87 Q 181 81 180 79 L 209 78 Q 199 85 193 93 Q 182 109 171 122 L 163 132" fill="#000080" clip-path="url(#clip-mask-7)" /><path d="M 153 123 Q 143 114 130 100 L 134 95 Q 139 99 152 109 Q 156 112 160 115 L 171 122 Q 203 140 223 146 Q 240 151 255 155 Q 259 157 259 159 Q 259 160 254 161 Q 221 169 206 166 Q 198 163 163 132" fill="#000080" clip-path="url(#clip-mask-8)" /><path d="M 139 235 L 138 238 Q 137 242 132 236 Q 127 231 127 224 Q 123 199 117 183 Q 115 179 116 177 Q 117 176 121 177 Q 127 178 131 180 L 135 188 Q 136 195 139 222 L 139 231" fill="#000080" clip-path="url(#clip-mask-9)" /><path d="M 185 181 Q 184 179 178 180 Q 158 184 137 187 Q 136 187 135 188 L 131 180 Q 161 176 183 168 Q 189 166 194 168 Q 208 175 212 178" fill="#000080" clip-path="url(#clip-mask-10)" /><path d="M 181 216 Q 185 203 187 189 Q 188 184 185 181 L 212 178 Q 215 183 211 188 Q 203 194 196 216" fill="#000080" clip-path="url(#clip-mask-11)" /><path d="M 139 222 Q 158 220 181 216 L 196 216 Q 204 222 203 224 Q 203 227 200 227 Q 163 228 145 231 Q 142 231 139 231" fill="#000080" clip-path="url(#clip-mask-12)" /><rect x="21" y="88" width="93" height="28" id="rect-1" fill="transparent" stroke="#000000"><animate attributeName="x" from="-72" to="21" dur="0.344" begin="0; animate12.end + 1s" id="animate1" fill="freeze"/></rect><rect x="57" y="21" width="33" height="227" id="rect-2" fill="transparent" stroke="#000000"><set attributeName="y" to="-206" begin="0; animate12.end + 1s" /><animate attributeName="y" from="-206" to="21" dur="0.841" begin="animate1.end + 0.5" id="animate2" fill="freeze"/></rect><rect x="10" y="97" width="60" height="103" id="rect-3" fill="transparent" stroke="#000000"><set attributeName="y" to="-6" begin="0; animate12.end + 1s" /><animate attributeName="y" from="-6" to="97" dur="0.381" begin="animate2.end + 0.5" id="animate3" fill="freeze"/></rect><rect x="80" y="128" width="26" height="22" id="rect-4" fill="transparent" stroke="#000000"><set attributeName="x" to="54" begin="0; animate12.end + 1s" /><animate attributeName="x" from="54" to="80" dur="0.096" begin="animate3.end + 0.5" id="animate4" fill="freeze"/></rect><rect x="109" y="26" width="60" height="91" id="rect-5" fill="transparent" stroke="#000000"><set attributeName="y" to="-65" begin="0; animate12.end + 1s" /><animate attributeName="y" from="-65" to="26" dur="0.337" begin="animate4.end + 0.5" id="animate5" fill="freeze"/></rect><rect x="145" y="60" width="68" height="22" id="rect-6" fill="transparent" stroke="#000000"><set attributeName="x" to="77" begin="0; animate12.end + 1s" /><animate attributeName="x" from="77" to="145" dur="0.252" begin="animate5.end + 0.5" id="animate6" fill="freeze"/></rect><rect x="90" y="78" width="119" height="105" id="rect-7" fill="transparent" stroke="#000000"><set attributeName="y" to="-27" begin="0; animate12.end + 1s" /><animate attributeName="y" from="-27" to="78" dur="0.389" begin="animate6.end" id="animate7" fill="freeze"/></rect><rect x="130" y="95" width="129" height="74" id="rect-8" fill="transparent" stroke="#000000"><set attributeName="x" to="1" begin="0; animate12.end + 1s" /><animate attributeName="x" from="1" to="130" dur="0.478" begin="animate7.end + 0.5" id="animate8" fill="freeze"/></rect><rect x="115" y="176" width="24" height="66" id="rect-9" fill="transparent" stroke="#000000"><set attributeName="y" to="110" begin="0; animate12.end + 1s" /><animate attributeName="y" from="110" to="176" dur="0.244" begin="animate8.end + 0.5" id="animate9" fill="freeze"/></rect><rect x="131" y="166" width="81" height="22" id="rect-10" fill="transparent" stroke="#000000"><set attributeName="x" to="50" begin="0; animate12.end + 1s" /><animate attributeName="x" from="50" to="131" dur="0.300" begin="animate9.end + 0.5" id="animate10" fill="freeze"/></rect><rect x="181" y="178" width="34" height="38" id="rect-11" fill="transparent" stroke="#000000"><set attributeName="y" to="140" begin="0; animate12.end + 1s" /><animate attributeName="y" from="140" to="178" dur="0.141" begin="animate10.end" id="animate11" fill="freeze"/></rect><rect x="139" y="216" width="65" height="15" id="rect-12" fill="transparent" stroke="#000000"><set attributeName="x" to="74" begin="0; animate12.end + 1s" /><animate attributeName="x" from="74" to="139" dur="0.241" begin="animate11.end + 0.5" id="animate12" fill="freeze"/></rect></svg>