<svg xmlns="http://www.w3.org/2000/svg" xmlns:xlink="http://www.w3.org/1999/xlink" width="270" height="270"><defs><clipPath id="clip-mask-1"><use xlink:href="#rect-1" /></clipPath><clipPath id="clip-mask-2"><use xlink:href="#rect-2" /></clipPath><clipPath id="clip-mask-3"><use xlink:href="#rect-3" /></clipPath><clipPath id="clip-mask-4"><use xlink:href="#rect-4" /></clipPath><clipPath id="clip-mask-5"><use xlink:href="#rect-5" /></clipPath><clipPath id="clip-mask-6"><use xlink:href="#rect-6" /></clipPath><clipPath id="clip-mask-7"><use xlink:href="#rect-7" /></clipPath><clipPath id="clip-mask-8"><use xlink:href="#rect-8" /></clipPath><clipPath id="clip-mask-9"><use xlink:href="#rect-9" /></clipPath><clipPath id="clip-mask-10"><use xlink:href="#rect-10" /></clipPath><clipPath id="clip-mask-11"><use xlink:href="#rect-11" /></clipPath><clipPath id="clip-mask-12"><use xlink:href="#rect-12" /></clipPath><clipPath id="clip-mask-13"><use xlink:href="#rect-13" /></clipPath></defs><path d="M 0 0 L 270 270 M 270 0 L 0 270 M 135 0 L 135 270 M 0 135 L 270 135" stroke="#CCCCCC" /><path d="M 60 28 L 60 25 Q 59 22 60 21 Q 65 19 80 25 Q 86 28 88 32 Q 90 39 89 42 Q 88 45 85 45 Q 81 45 78 43 Q 72 37 67 32" fill="#CCCCCC"/><path d="M 46 68 L 45 65 Q 45 63 46 62 Q 47 62 49 62 Q 57 62 64 66 Q 68 68 70 73 Q 71 77 70 80 Q 68 82 65 82 Q 58 79 49 71" fill="#CCCCCC"/><path d="M 43 119 L 45 119 Q 51 117 85 84 Q 87 83 88 83 Q 89 85 87 87 Q 68 115 61 129 Q 60 135 57 136 Q 53 136 46 133 Q 38 130 36 126 Q 35 122 39 121" fill="#CCCCCC"/><path d="M 174 42 Q 174 41 169 41 Q 157 43 144 46 L 130 50 Q 126 51 122 52 Q 117 54 111 50 Q 106 47 106 45 Q 107 43 111 43 Q 128 42 147 37 Q 167 33 172 30 Q 177 27 182 29 Q 194 35 196 38 Q 197 40 194 43" fill="#CCCCCC"/><path d="M 180 100 L 174 110 Q 168 119 160 124 L 160 99 Q 169 87 174 57 Q 177 46 174 42 L 194 43 Q 190 48 186 69 L 185 74" fill="#CCCCCC"/><path d="M 160 124 Q 155 129 150 123 Q 147 116 139 106 Q 135 100 141 103 Q 145 104 149 105 Q 156 106 160 99" fill="#CCCCCC"/><path d="M 144 46 Q 147 48 148 49 Q 150 51 148 54 Q 145 59 143 64 Q 131 98 112 113 Q 92 130 85 129 Q 83 128 93 119 Q 132 82 130 50" fill="#CCCCCC"/><path d="M 110 61 L 111 61 Q 113 61 113 63 Q 113 68 111 73 Q 108 85 99 89 Q 95 91 94 87 Q 92 81 97 76 Q 103 69 109 62" fill="#CCCCCC"/><path d="M 186 69 Q 191 70 202 72 Q 218 76 221 84 Q 225 92 223 96 Q 222 98 221 98 Q 217 98 213 94 Q 199 83 187 75 Q 185 75 185 74" fill="#CCCCCC"/><path d="M 106 160 Q 76 163 48 169 Q 44 170 39 169 Q 34 167 30 163 Q 26 158 32 158 Q 77 154 116 151 L 130 150 Q 168 144 193 141 Q 209 137 224 149 Q 229 153 227 156 Q 226 158 220 158 Q 213 158 205 157 Q 160 156 129 158" fill="#CCCCCC"/><path d="M 129 198 L 129 230 Q 130 238 127 246 Q 126 250 123 250 Q 122 249 122 249 Q 108 234 111 220 Q 115 210 115 171 L 116 151 Q 114 135 113 133 Q 111 130 113 129 Q 115 128 119 129 Q 123 131 130 136 Q 130 137 130 150 L 129 158 Q 129 160 129 162 L 129 171" fill="#CCCCCC"/><path d="M 115 171 Q 114 172 114 174 Q 99 196 72 216 Q 60 225 46 229 Q 35 233 33 232 Q 28 231 33 228 Q 53 217 75 199 Q 102 175 106 160 L 116 151" fill="#CCCCCC"/><path d="M 129 162 Q 129 162 130 162 Q 173 198 209 210 Q 225 215 239 220 Q 243 222 243 224 Q 242 225 237 226 Q 205 232 191 228 Q 178 225 129 171" fill="#CCCCCC"/><path d="M 60 28 L 60 25 Q 59 22 60 21 Q 65 19 80 25 Q 86 28 88 32 Q 90 39 89 42 Q 88 45 85 45 Q 81 45 78 43 Q 72 37 67 32" fill="#000080" clip-path="url(#clip-mask-1)" /><path d="M 46 68 L 45 65 Q 45 63 46 62 Q 47 62 49 62 Q 57 62 64 66 Q 68 68 70 73 Q 71 77 70 80 Q 68 82 65 82 Q 58 79 49 71" fill="#000080" clip-path="url(#clip-mask-2)" /><path d="M 43 119 L 45 119 Q 51 117 85 84 Q 87 83 88 83 Q 89 85 87 87 Q 68 115 61 129 Q 60 135 57 136 Q 53 136 46 133 Q 38 130 36 126 Q 35 122 39 121" fill="#000080" clip-path="url(#clip-mask-3)" /><path d="M 174 42 Q 174 41 169 41 Q 157 43 144 46 L 130 50 Q 126 51 122 52 Q 117 54 111 50 Q 106 47 106 45 Q 107 43 111 43 Q 128 42 147 37 Q 167 33 172 30 Q 177 27 182 29 Q 194 35 196 38 Q 197 40 194 43" fill="#000080" clip-path="url(#clip-mask-4)" /><path d="M 180 100 L 174 110 Q 168 119 160 124 L 160 99 Q 169 87 174 57 Q 177 46 174 42 L 194 43 Q 190 48 186 69 L 185 74" fill="#000080" clip-path="url(#clip-mask-5)" /><path d="M 160 124 Q 155 129 150 123 Q 147 116 139 106 Q 135 100 141 103 Q 145 104 149 105 Q 156 106 160 99" fill="#000080" clip-path="url(#clip-mask-6)" /><path d="M 144 46 Q 147 48 148 49 Q 150 51 148 54 Q 145 59 143 64 Q 131 98 112 113 Q 92 130 85 129 Q 83 128 93 119 Q 132 82 130 50" fill="#000080" clip-path="url(#clip-mask-7)" /><path d="M 110 61 L 111 61 Q 113 61 113 63 Q 113 68 111 73 Q 108 85 99 89 Q 95 91 94 87 Q 92 81 97 76 Q 103 69 109 62" fill="#000080" clip-path="url(#clip-mask-8)" /><path d="M 186 69 Q 191 70 202 72 Q 218 76 221 84 Q 225 92 223 96 Q 222 98 221 98 Q 217 98 213 94 Q 199 83 187 75 Q 185 75 185 74" fill="#000080" clip-path="url(#clip-mask-9)" /><path d="M 106 160 Q 76 163 48 169 Q 44 170 39 169 Q 34 167 30 163 Q 26 158 32 158 Q 77 154 116 151 L 130 150 Q 168 144 193 141 Q 209 137 224 149 Q 229 153 227 156 Q 226 158 220 158 Q 213 158 205 157 Q 160 156 129 158" fill="#0000ff" clip-path="url(#clip-mask-10)" /><path d="M 129 198 L 129 230 Q 130 238 127 246 Q 126 250 123 250 Q 122 249 122 249 Q 108 234 111 220 Q 115 210 115 171 L 116 151 Q 114 135 113 133 Q 111 130 113 129 Q 115 128 119 129 Q 123 131 130 136 Q 130 137 130 150 L 129 158 Q 129 160 129 162 L 129 171" fill="#0000ff" clip-path="url(#clip-mask-11)" /><path d="M 115 171 Q 114 172 114 174 Q 99 196 72 216 Q 60 225 46 229 Q 35 233 33 232 Q 28 231 33 228 Q 53 217 75 199 Q 102 175 106 160 L 116 151" fill="#0000ff" clip-path="url(#clip-mask-12)" /><path d="M 129 162 Q 129 162 130 162 Q 173 198 209 210 Q 225 215 239 220 Q 243 222 243 224 Q 242 225 237 226 Q 205 232 191 228 Q 178 225 129 171" fill="#0000ff" clip-path="url(#clip-mask-13)" /><rect x="59" y="19" width="31" height="26" id="rect-1" fill="transparent" stroke="#000000"><animate attributeName="x" from="28" to="59" dur="0.115" begin="0; animate13.end + 1s" id="animate1" fill="freeze"/></rect><rect x="45" y="62" width="26" height="20" id="rect-2" fill="transparent" stroke="#000000"><set attributeName="x" to="19" begin="0; animate13.end + 1s" /><animate attributeName="x" from="19" to="45" dur="0.096" begin="animate1.end + 0.5" id="animate2" fill="freeze"/></rect><rect x="35" y="83" width="54" height="53" id="rect-3" fill="transparent" stroke="#000000"><set attributeName="x" to="-19" begin="0; animate13.end + 1s" /><animate attributeName="x" from="-19" to="35" dur="0.200" begin="animate2.end + 0.5" id="animate3" fill="freeze"/></rect><rect x="106" y="27" width="91" height="27" id="rect-4" fill="transparent" stroke="#000000"><set attributeName="x" to="15" begin="0; animate13.end + 1s" /><animate attributeName="x" from="15" to="106" dur="0.337" begin="animate3.end + 0.5" id="animate4" fill="freeze"/></rect><rect x="160" y="42" width="34" height="82" id="rect-5" fill="transparent" stroke="#000000"><set attributeName="y" to="-40" begin="0; animate13.end + 1s" /><animate attributeName="y" from="-40" to="42" dur="0.304" begin="animate4.end" id="animate5" fill="freeze"/></rect><rect x="135" y="99" width="25" height="30" id="rect-6" fill="transparent" stroke="#000000"><set attributeName="x" to="160" begin="0; animate13.end + 1s" /><animate attributeName="x" from="160" to="135" dur="0.093" begin="animate5.end" id="animate6" fill="freeze"/></rect><rect x="83" y="46" width="67" height="84" id="rect-7" fill="transparent" stroke="#000000"><set attributeName="y" to="-38" begin="0; animate13.end + 1s" /><animate attributeName="y" from="-38" to="46" dur="0.311" begin="animate6.end + 0.5" id="animate7" fill="freeze"/></rect><rect x="92" y="61" width="21" height="30" id="rect-8" fill="transparent" stroke="#000000"><set attributeName="y" to="31" begin="0; animate13.end + 1s" /><animate attributeName="y" from="31" to="61" dur="0.111" begin="animate7.end + 0.5" id="animate8" fill="freeze"/></rect><rect x="185" y="69" width="40" height="29" id="rect-9" fill="transparent" stroke="#000000"><set attributeName="x" to="145" begin="0; animate13.end + 1s" /><animate attributeName="x" from="145" to="185" dur="0.148" begin="animate8.end + 0.5" id="animate9" fill="freeze"/></rect><rect x="26" y="137" width="203" height="33" id="rect-10" fill="transparent" stroke="#000000"><set attributeName="x" to="-177" begin="0; animate13.end + 1s" /><animate attributeName="x" from="-177" to="26" dur="0.752" begin="animate9.end + 0.5" id="animate10" fill="freeze"/></rect><rect x="108" y="128" width="22" height="122" id="rect-11" fill="transparent" stroke="#000000"><set attributeName="y" to="6" begin="0; animate13.end + 1s" /><animate attributeName="y" from="6" to="128" dur="0.452" begin="animate10.end + 0.5" id="animate11" fill="freeze"/></rect><rect x="28" y="151" width="88" height="82" id="rect-12" fill="transparent" stroke="#000000"><set attributeName="x" to="116" begin="0; animate13.end + 1s" /><animate attributeName="x" from="116" to="28" dur="0.326" begin="animate11.end + 0.5" id="animate12" fill="freeze"/></rect><rect x="129" y="162" width="114" height="70" id="rect-13" fill="transparent" stroke="#000000"><set attributeName="x" to="15" begin="0; animate13.end + 1s" /><animate attributeName="x" from="15" to="129" dur="0.422" begin="animate12.end + 0.5" id="animate13" fill="freeze"/></rect></svg>