<svg xmlns="http://www.w3.org/2000/svg" xmlns:xlink="http://www.w3.org/1999/xlink" width="270" height="270"><defs><clipPath id="clip-mask-1"><use xlink:href="#rect-1" /></clipPath><clipPath id="clip-mask-2"><use xlink:href="#rect-2" /></clipPath><clipPath id="clip-mask-3"><use xlink:href="#rect-3" /></clipPath><clipPath id="clip-mask-4"><use xlink:href="#rect-4" /></clipPath><clipPath id="clip-mask-5"><use xlink:href="#rect-5" /></clipPath><clipPath id="clip-mask-6"><use xlink:href="#rect-6" /></clipPath><clipPath id="clip-mask-7"><use xlink:href="#rect-7" /></clipPath><clipPath id="clip-mask-8"><use xlink:href="#rect-8" /></clipPath><clipPath id="clip-mask-9"><use xlink:href="#rect-9" /></clipPath><clipPath id="clip-mask-10"><use xlink:href="#rect-10" /></clipPath><clipPath id="clip-mask-11"><use xlink:href="#rect-11" /></clipPath><clipPath id="clip-mask-12"><use xlink:href="#rect-12" /></clipPath><clipPath id="clip-mask-13"><use xlink:href="#rect-13" /></clipPath><clipPath id="clip-mask-14"><use xlink:href="#rect-14" /></clipPath><clipPath id="clip-mask-15"><use xlink:href="#rect-15" /></clipPath><clipPath id="clip-mask-16"><use xlink:href="#rect-16" /></clipPath><clipPath id="clip-mask-17"><use xlink:href="#rect-17" /></clipPath><clipPath id="clip-mask-18"><use xlink:href="#rect-18" /></clipPath><clipPath id="clip-mask-19"><use xlink:href="#rect-19" /></clipPath><clipPath id="clip-mask-20"><use xlink:href="#rect-20" /></clipPath><clipPath id="clip-mask-21"><use xlink:href="#rect-21" /></clipPath></defs><path d="M 0 0 L 270 270 M 270 0 L 0 270 M 135 0 L 135 270 M 0 135 L 270 135" stroke="#CCCCCC" /><path d="M 65 112 Q 59 113 55 115 Q 41 119 30 114 Q 24 111 32 108 Q 43 107 69 98 L 80 94 Q 84 93 89 93 Q 96 94 98 97 Q 99 99 98 101 Q 97 101 79 108" fill="#CCCCCC"/><path d="M 78 210 L 78 221 Q 78 229 76 235 Q 73 240 71 241 Q 69 243 68 241 Q 66 240 64 236 Q 63 234 63 232 Q 58 220 64 199 Q 67 184 68 136 L 69 98 Q 69 77 69 59 Q 69 46 61 34 Q 59 30 60 29 Q 65 25 71 30 Q 85 38 86 40 Q 87 44 85 47 Q 80 66 80 94 L 79 108 Q 79 114 79 120 L 79 128" fill="#CCCCCC"/><path d="M 68 136 Q 59 155 49 169 Q 25 203 19 203 Q 17 203 18 200 Q 53 149 65 112 L 69 98" fill="#CCCCCC"/><path d="M 79 120 Q 95 125 97 130 Q 99 135 98 137 Q 97 140 95 140 Q 93 140 79 128" fill="#CCCCCC"/><path d="M 110 115 Q 107 117 106 115 Q 103 112 102 108 Q 101 106 105 103 Q 107 100 109 98 Q 126 66 121 58 Q 120 55 121 54 Q 125 53 128 55 Q 136 60 136 63 Q 137 65 135 68 Q 126 82 116 100" fill="#CCCCCC"/><path d="M 130 109 Q 129 109 127 109 Q 114 113 110 115 L 116 100 Q 115 104 120 104 Q 126 104 133 104" fill="#CCCCCC"/><path d="M 114 150 Q 111 153 109 150 Q 105 147 104 145 Q 103 142 106 140 Q 115 136 130 109 L 133 104 Q 137 94 137 91 Q 137 87 139 87 Q 140 86 143 88 Q 150 92 152 95 Q 153 97 150 99 Q 137 111 121 135" fill="#CCCCCC"/><path d="M 127 140 L 114 150 L 121 135 Q 119 139 122 137 Q 133 133 143 131 L 145 134" fill="#CCCCCC"/><path d="M 143 131 Q 139 122 139 121 Q 140 118 141 119 Q 145 121 151 126 Q 156 128 157 133 Q 158 137 157 139 Q 155 143 153 142 Q 149 141 145 134" fill="#CCCCCC"/><path d="M 181 96 Q 178 97 176 95 Q 173 92 172 88 Q 172 86 175 83 Q 181 78 183 72 Q 194 47 191 40 Q 189 37 191 36 Q 195 35 198 37 Q 207 43 207 46 Q 208 47 205 51 Q 196 63 188 80" fill="#CCCCCC"/><path d="M 200 89 Q 186 92 181 96 L 188 80 Q 184 84 191 84 Q 197 84 204 84" fill="#CCCCCC"/><path d="M 186 126 Q 183 128 180 126 Q 175 122 175 119 Q 175 116 177 114 Q 182 113 200 89 L 204 84 Q 213 69 212 64 Q 212 61 214 60 Q 216 60 219 62 Q 226 66 228 70 Q 229 72 226 74 Q 216 82 193 110" fill="#CCCCCC"/><path d="M 200 117 L 186 126 L 193 110 Q 191 114 195 113 Q 206 110 216 108 L 219 112" fill="#CCCCCC"/><path d="M 216 108 Q 211 104 211 101 Q 211 98 213 98 Q 214 98 216 99 Q 231 106 232 112 Q 232 118 231 120 Q 229 122 227 122 Q 225 121 219 112" fill="#CCCCCC"/><path d="M 171 157 Q 152 162 136 167 L 127 170 Q 120 172 113 174 Q 106 177 99 171 Q 93 168 100 167 Q 148 156 165 150 Q 167 149 169 149 L 179 146 Q 179 146 180 146 Q 202 135 211 140 Q 216 142 216 145 Q 215 148 212 148 Q 198 150 181 155" fill="#CCCCCC"/><path d="M 136 167 Q 139 168 141 170 Q 144 172 144 174 Q 144 176 143 177 Q 140 181 140 181 L 137 186 Q 115 223 97 228 Q 95 228 96 227 Q 129 190 127 170" fill="#CCCCCC"/><path d="M 140 181 L 141 181 Q 161 189 163 195 Q 164 200 163 203 Q 162 205 160 205 Q 157 205 155 203 Q 148 195 141 190 Q 139 188 137 186" fill="#CCCCCC"/><path d="M 179 181 L 171 157 L 169 149 Q 158 117 148 40 Q 148 32 136 22 Q 134 17 139 15 Q 143 13 152 17 Q 166 22 163 33 Q 158 74 179 146 L 181 155 Q 189 178 197 190 L 203 199 Q 211 210 220 219 Q 222 221 225 223 L 251 247 Q 252 255 247 256 Q 245 256 244 256 Q 218 247 194 208 L 189 199" fill="#CCCCCC"/><path d="M 225 223 Q 233 228 236 218 Q 245 197 245 197 Q 248 198 248 203 Q 249 236 251 247" fill="#CCCCCC"/><path d="M 197 190 Q 210 175 211 160 Q 212 156 214 156 Q 221 157 229 167 Q 231 171 228 174 Q 216 187 203 199 L 194 208 Q 166 229 154 228 Q 150 229 153 225 Q 182 205 189 199" fill="#CCCCCC"/><path d="M 220 134 L 220 132 Q 220 129 221 129 Q 223 128 227 129 Q 245 139 247 147 Q 247 150 246 153 Q 243 156 240 155 Q 234 152 223 137" fill="#CCCCCC"/><path d="M 65 112 Q 59 113 55 115 Q 41 119 30 114 Q 24 111 32 108 Q 43 107 69 98 L 80 94 Q 84 93 89 93 Q 96 94 98 97 Q 99 99 98 101 Q 97 101 79 108" fill="#0000ff" clip-path="url(#clip-mask-1)" /><path d="M 78 210 L 78 221 Q 78 229 76 235 Q 73 240 71 241 Q 69 243 68 241 Q 66 240 64 236 Q 63 234 63 232 Q 58 220 64 199 Q 67 184 68 136 L 69 98 Q 69 77 69 59 Q 69 46 61 34 Q 59 30 60 29 Q 65 25 71 30 Q 85 38 86 40 Q 87 44 85 47 Q 80 66 80 94 L 79 108 Q 79 114 79 120 L 79 128" fill="#0000ff" clip-path="url(#clip-mask-2)" /><path d="M 68 136 Q 59 155 49 169 Q 25 203 19 203 Q 17 203 18 200 Q 53 149 65 112 L 69 98" fill="#0000ff" clip-path="url(#clip-mask-3)" /><path d="M 79 120 Q 95 125 97 130 Q 99 135 98 137 Q 97 140 95 140 Q 93 140 79 128" fill="#0000ff" clip-path="url(#clip-mask-4)" /><path d="M 110 115 Q 107 117 106 115 Q 103 112 102 108 Q 101 106 105 103 Q 107 100 109 98 Q 126 66 121 58 Q 120 55 121 54 Q 125 53 128 55 Q 136 60 136 63 Q 137 65 135 68 Q 126 82 116 100" fill="#000080" clip-path="url(#clip-mask-5)" /><path d="M 130 109 Q 129 109 127 109 Q 114 113 110 115 L 116 100 Q 115 104 120 104 Q 126 104 133 104" fill="#000080" clip-path="url(#clip-mask-6)" /><path d="M 114 150 Q 111 153 109 150 Q 105 147 104 145 Q 103 142 106 140 Q 115 136 130 109 L 133 104 Q 137 94 137 91 Q 137 87 139 87 Q 140 86 143 88 Q 150 92 152 95 Q 153 97 150 99 Q 137 111 121 135" fill="#000080" clip-path="url(#clip-mask-7)" /><path d="M 127 140 L 114 150 L 121 135 Q 119 139 122 137 Q 133 133 143 131 L 145 134" fill="#000080" clip-path="url(#clip-mask-8)" /><path d="M 143 131 Q 139 122 139 121 Q 140 118 141 119 Q 145 121 151 126 Q 156 128 157 133 Q 158 137 157 139 Q 155 143 153 142 Q 149 141 145 134" fill="#000080" clip-path="url(#clip-mask-9)" /><path d="M 181 96 Q 178 97 176 95 Q 173 92 172 88 Q 172 86 175 83 Q 181 78 183 72 Q 194 47 191 40 Q 189 37 191 36 Q 195 35 198 37 Q 207 43 207 46 Q 208 47 205 51 Q 196 63 188 80" fill="#000080" clip-path="url(#clip-mask-10)" /><path d="M 200 89 Q 186 92 181 96 L 188 80 Q 184 84 191 84 Q 197 84 204 84" fill="#000080" clip-path="url(#clip-mask-11)" /><path d="M 186 126 Q 183 128 180 126 Q 175 122 175 119 Q 175 116 177 114 Q 182 113 200 89 L 204 84 Q 213 69 212 64 Q 212 61 214 60 Q 216 60 219 62 Q 226 66 228 70 Q 229 72 226 74 Q 216 82 193 110" fill="#000080" clip-path="url(#clip-mask-12)" /><path d="M 200 117 L 186 126 L 193 110 Q 191 114 195 113 Q 206 110 216 108 L 219 112" fill="#000080" clip-path="url(#clip-mask-13)" /><path d="M 216 108 Q 211 104 211 101 Q 211 98 213 98 Q 214 98 216 99 Q 231 106 232 112 Q 232 118 231 120 Q 229 122 227 122 Q 225 121 219 112" fill="#000080" clip-path="url(#clip-mask-14)" /><path d="M 171 157 Q 152 162 136 167 L 127 170 Q 120 172 113 174 Q 106 177 99 171 Q 93 168 100 167 Q 148 156 165 150 Q 167 149 169 149 L 179 146 Q 179 146 180 146 Q 202 135 211 140 Q 216 142 216 145 Q 215 148 212 148 Q 198 150 181 155" fill="#000080" clip-path="url(#clip-mask-15)" /><path d="M 136 167 Q 139 168 141 170 Q 144 172 144 174 Q 144 176 143 177 Q 140 181 140 181 L 137 186 Q 115 223 97 228 Q 95 228 96 227 Q 129 190 127 170" fill="#000080" clip-path="url(#clip-mask-16)" /><path d="M 140 181 L 141 181 Q 161 189 163 195 Q 164 200 163 203 Q 162 205 160 205 Q 157 205 155 203 Q 148 195 141 190 Q 139 188 137 186" fill="#000080" clip-path="url(#clip-mask-17)" /><path d="M 179 181 L 171 157 L 169 149 Q 158 117 148 40 Q 148 32 136 22 Q 134 17 139 15 Q 143 13 152 17 Q 166 22 163 33 Q 158 74 179 146 L 181 155 Q 189 178 197 190 L 203 199 Q 211 210 220 219 Q 222 221 225 223 L 251 247 Q 252 255 247 256 Q 245 256 244 256 Q 218 247 194 208 L 189 199" fill="#000080" clip-path="url(#clip-mask-18)" /><path d="M 225 223 Q 233 228 236 218 Q 245 197 245 197 Q 248 198 248 203 Q 249 236 251 247" fill="#000080" clip-path="url(#clip-mask-19)" /><path d="M 197 190 Q 210 175 211 160 Q 212 156 214 156 Q 221 157 229 167 Q 231 171 228 174 Q 216 187 203 199 L 194 208 Q 166 229 154 228 Q 150 229 153 225 Q 182 205 189 199" fill="#000080" clip-path="url(#clip-mask-20)" /><path d="M 220 134 L 220 132 Q 220 129 221 129 Q 223 128 227 129 Q 245 139 247 147 Q 247 150 246 153 Q 243 156 240 155 Q 234 152 223 137" fill="#000080" clip-path="url(#clip-mask-21)" /><rect x="24" y="93" width="75" height="26" id="rect-1" fill="transparent" stroke="#000000"><animate attributeName="x" from="-51" to="24" dur="0.278" begin="0; animate21.end + 1s" id="animate1" fill="freeze"/></rect><rect x="58" y="25" width="29" height="218" id="rect-2" fill="transparent" stroke="#000000"><set attributeName="y" to="-193" begin="0; animate21.end + 1s" /><animate attributeName="y" from="-193" to="25" dur="0.807" begin="animate1.end + 0.5" id="animate2" fill="freeze"/></rect><rect x="17" y="98" width="52" height="105" id="rect-3" fill="transparent" stroke="#000000"><set attributeName="y" to="-7" begin="0; animate21.end + 1s" /><animate attributeName="y" from="-7" to="98" dur="0.389" begin="animate2.end + 0.5" id="animate3" fill="freeze"/></rect><rect x="79" y="120" width="20" height="20" id="rect-4" fill="transparent" stroke="#000000"><set attributeName="x" to="59" begin="0; animate21.end + 1s" /><animate attributeName="x" from="59" to="79" dur="0.074" begin="animate3.end + 0.5" id="animate4" fill="freeze"/></rect><rect x="101" y="53" width="36" height="64" id="rect-5" fill="transparent" stroke="#000000"><set attributeName="y" to="-11" begin="0; animate21.end + 1s" /><animate attributeName="y" from="-11" to="53" dur="0.237" begin="animate4.end + 0.5" id="animate5" fill="freeze"/></rect><rect x="110" y="100" width="23" height="15" id="rect-6" fill="transparent" stroke="#000000"><set attributeName="x" to="87" begin="0; animate21.end + 1s" /><animate attributeName="x" from="87" to="110" dur="0.085" begin="animate5.end" id="animate6" fill="freeze"/></rect><rect x="103" y="86" width="50" height="67" id="rect-7" fill="transparent" stroke="#000000"><set attributeName="y" to="19" begin="0; animate21.end + 1s" /><animate attributeName="y" from="19" to="86" dur="0.248" begin="animate6.end + 0.5" id="animate7" fill="freeze"/></rect><rect x="114" y="131" width="31" height="19" id="rect-8" fill="transparent" stroke="#000000"><set attributeName="x" to="83" begin="0; animate21.end + 1s" /><animate attributeName="x" from="83" to="114" dur="0.115" begin="animate7.end" id="animate8" fill="freeze"/></rect><rect x="139" y="118" width="19" height="25" id="rect-9" fill="transparent" stroke="#000000"><set attributeName="y" to="93" begin="0; animate21.end + 1s" /><animate attributeName="y" from="93" to="118" dur="0.093" begin="animate8.end + 0.5" id="animate9" fill="freeze"/></rect><rect x="172" y="35" width="36" height="62" id="rect-10" fill="transparent" stroke="#000000"><set attributeName="y" to="-27" begin="0; animate21.end + 1s" /><animate attributeName="y" from="-27" to="35" dur="0.230" begin="animate9.end + 0.5" id="animate10" fill="freeze"/></rect><rect x="181" y="80" width="23" height="16" id="rect-11" fill="transparent" stroke="#000000"><set attributeName="x" to="158" begin="0; animate21.end + 1s" /><animate attributeName="x" from="158" to="181" dur="0.085" begin="animate10.end" id="animate11" fill="freeze"/></rect><rect x="175" y="60" width="54" height="68" id="rect-12" fill="transparent" stroke="#000000"><set attributeName="y" to="-8" begin="0; animate21.end + 1s" /><animate attributeName="y" from="-8" to="60" dur="0.252" begin="animate11.end + 0.5" id="animate12" fill="freeze"/></rect><rect x="186" y="108" width="33" height="18" id="rect-13" fill="transparent" stroke="#000000"><set attributeName="x" to="153" begin="0; animate21.end + 1s" /><animate attributeName="x" from="153" to="186" dur="0.122" begin="animate12.end" id="animate13" fill="freeze"/></rect><rect x="211" y="98" width="21" height="24" id="rect-14" fill="transparent" stroke="#000000"><set attributeName="y" to="74" begin="0; animate21.end + 1s" /><animate attributeName="y" from="74" to="98" dur="0.089" begin="animate13.end + 0.5" id="animate14" fill="freeze"/></rect><rect x="93" y="135" width="123" height="42" id="rect-15" fill="transparent" stroke="#000000"><set attributeName="x" to="-30" begin="0; animate21.end + 1s" /><animate attributeName="x" from="-30" to="93" dur="0.456" begin="animate14.end + 0.5" id="animate15" fill="freeze"/></rect><rect x="95" y="167" width="49" height="61" id="rect-16" fill="transparent" stroke="#000000"><set attributeName="y" to="106" begin="0; animate21.end + 1s" /><animate attributeName="y" from="106" to="167" dur="0.226" begin="animate15.end + 0.5" id="animate16" fill="freeze"/></rect><rect x="137" y="181" width="27" height="24" id="rect-17" fill="transparent" stroke="#000000"><set attributeName="x" to="110" begin="0; animate21.end + 1s" /><animate attributeName="x" from="110" to="137" dur="0.100" begin="animate16.end + 0.5" id="animate17" fill="freeze"/></rect><rect x="134" y="13" width="118" height="243" id="rect-18" fill="transparent" stroke="#000000"><set attributeName="y" to="-230" begin="0; animate21.end + 1s" /><animate attributeName="y" from="-230" to="13" dur="0.900" begin="animate17.end + 0.5" id="animate18" fill="freeze"/></rect><rect x="225" y="197" width="26" height="50" id="rect-19" fill="transparent" stroke="#000000"><set attributeName="y" to="247" begin="0; animate21.end + 1s" /><animate attributeName="y" from="247" to="197" dur="0.185" begin="animate18.end" id="animate19" fill="freeze"/></rect><rect x="150" y="156" width="81" height="73" id="rect-20" fill="transparent" stroke="#000000"><set attributeName="x" to="231" begin="0; animate21.end + 1s" /><animate attributeName="x" from="231" to="150" dur="0.300" begin="animate19.end + 0.5" id="animate20" fill="freeze"/></rect><rect x="220" y="128" width="27" height="28" id="rect-21" fill="transparent" stroke="#000000"><set attributeName="x" to="193" begin="0; animate21.end + 1s" /><animate attributeName="x" from="193" to="220" dur="0.100" begin="animate20.end + 0.5" id="animate21" fill="freeze"/></rect></svg>