<svg xmlns="http://www.w3.org/2000/svg" xmlns:xlink="http://www.w3.org/1999/xlink" width="270" height="270"><defs><clipPath id="clip-mask-1"><use xlink:href="#rect-1" /></clipPath><clipPath id="clip-mask-2"><use xlink:href="#rect-2" /></clipPath><clipPath id="clip-mask-3"><use xlink:href="#rect-3" /></clipPath><clipPath id="clip-mask-4"><use xlink:href="#rect-4" /></clipPath><clipPath id="clip-mask-5"><use xlink:href="#rect-5" /></clipPath><clipPath id="clip-mask-6"><use xlink:href="#rect-6" /></clipPath><clipPath id="clip-mask-7"><use xlink:href="#rect-7" /></clipPath><clipPath id="clip-mask-8"><use xlink:href="#rect-8" /></clipPath><clipPath id="clip-mask-9"><use xlink:href="#rect-9" /></clipPath><clipPath id="clip-mask-10"><use xlink:href="#rect-10" /></clipPath><clipPath id="clip-mask-11"><use xlink:href="#rect-11" /></clipPath><clipPath id="clip-mask-12"><use xlink:href="#rect-12" /></clipPath><clipPath id="clip-mask-13"><use xlink:href="#rect-13" /></clipPath><clipPath id="clip-mask-14"><use xlink:href="#rect-14" /></clipPath><clipPath id="clip-mask-15"><use xlink:href="#rect-15" /></clipPath><clipPath id="clip-mask-16"><use xlink:href="#rect-16" /></clipPath><clipPath id="clip-mask-17"><use xlink:href="#rect-17" /></clipPath><clipPath id="clip-mask-18"><use xlink:href="#rect-18" /></clipPath><clipPath id="clip-mask-19"><use xlink:href="#rect-19" /></clipPath></defs><path d="M 0 0 L 270 270 M 270 0 L 0 270 M 135 0 L 135 270 M 0 135 L 270 135" stroke="#CCCCCC" /><path d="M 62 115 Q 52 117 42 120 Q 29 125 18 120 Q 11 116 20 114 Q 41 110 67 101 L 78 96 Q 85 92 92 93 Q 100 95 101 97 Q 102 99 101 101 Q 99 103 88 106 Q 82 108 78 110" fill="#CCCCCC"/><path d="M 74 216 L 74 225 Q 74 233 72 240 Q 69 245 67 246 Q 65 248 63 247 Q 61 246 60 241 Q 53 226 56 214 Q 62 196 64 175 Q 64 157 65 139 L 67 101 Q 67 81 67 61 Q 66 43 58 30 Q 57 26 58 25 Q 63 21 70 25 Q 84 35 86 37 Q 87 41 84 45 Q 82 52 78 96 L 78 110 Q 76 130 76 147 L 76 156" fill="#CCCCCC"/><path d="M 65 139 Q 55 160 44 175 Q 17 210 11 210 Q 8 210 9 207 Q 50 151 62 115 L 67 101" fill="#CCCCCC"/><path d="M 76 147 Q 83 149 89 150 Q 95 153 97 157 Q 99 163 98 166 Q 96 168 95 169 Q 92 169 89 166 Q 82 160 76 156" fill="#CCCCCC"/><path d="M 142 86 L 134 98 Q 107 134 93 137 Q 90 136 92 135 Q 113 109 121 95 Q 123 92 125 90 Q 151 45 143 26 Q 142 23 144 22 Q 147 21 153 21 Q 165 23 168 30 Q 169 33 167 35 Q 162 41 159 52 L 156 58" fill="#CCCCCC"/><path d="M 159 52 Q 160 53 161 54 Q 186 77 207 88 Q 213 92 257 108 Q 261 110 260 112 Q 260 113 255 113 Q 236 117 219 116 Q 209 116 203 109 Q 179 85 156 58" fill="#CCCCCC"/><path d="M 141 110 L 147 108 Q 169 101 172 101 Q 180 102 181 104 Q 183 106 181 108 Q 180 109 175 111 Q 164 114 154 117 Q 141 122 131 117 Q 124 113 133 111" fill="#CCCCCC"/><path d="M 116 177 L 116 178 Q 115 182 112 177 Q 109 174 108 170 Q 104 155 99 146 Q 98 143 99 142 Q 99 141 102 141 Q 108 142 110 143 L 112 149 Q 113 153 116 169 L 116 176" fill="#CCCCCC"/><path d="M 110 143 Q 117 142 122 140 Q 128 138 133 135 Q 136 133 140 135 Q 145 138 149 140 L 134 145 Q 133 143 129 144 Q 119 146 112 149" fill="#CCCCCC"/><path d="M 131 164 Q 135 146 134 145 L 149 140 Q 153 143 149 148 Q 144 152 141 165" fill="#CCCCCC"/><path d="M 116 169 Q 122 167 130 164 Q 131 164 131 164 L 141 165 Q 145 167 145 169 Q 145 171 143 171 Q 118 174 116 176" fill="#CCCCCC"/><path d="M 170 171 L 170 172 Q 169 175 166 171 Q 162 168 162 163 Q 159 147 154 138 Q 152 134 153 133 Q 154 132 156 133 Q 162 134 164 135 L 168 140 Q 168 145 171 162 L 171 169" fill="#CCCCCC"/><path d="M 193 137 Q 191 135 186 136 Q 168 139 168 140 L 164 135 Q 176 132 183 130 Q 196 124 200 126 Q 205 130 210 132" fill="#CCCCCC"/><path d="M 190 157 Q 194 138 193 137 L 210 132 Q 215 136 210 141 Q 205 145 202 158" fill="#CCCCCC"/><path d="M 171 162 Q 179 160 190 157 L 202 158 Q 205 160 205 162 Q 205 163 203 163 Q 182 166 173 168 Q 171 169 171 169" fill="#CCCCCC"/><path d="M 96 236 L 82 236 Q 80 235 82 234 Q 95 224 100 218 Q 119 198 118 186 Q 117 184 119 184 Q 125 183 131 189 Q 134 191 134 193 Q 134 195 132 196 Q 130 197 124 205 L 121 209" fill="#CCCCCC"/><path d="M 124 205 Q 130 206 134 207 Q 139 209 140 212 Q 142 216 141 219 Q 141 221 139 221 Q 137 221 134 220 Q 129 215 125 212 Q 122 210 121 209" fill="#CCCCCC"/><path d="M 157 229 L 137 236 Q 135 235 137 234 Q 150 221 156 215 Q 156 214 157 214 Q 175 189 173 179 Q 172 176 174 176 Q 181 174 188 181 Q 190 183 191 185 Q 190 185 183 197 L 179 202" fill="#CCCCCC"/><path d="M 183 197 Q 222 213 226 227 Q 229 237 226 240 Q 224 243 222 242 Q 219 241 215 237 Q 196 217 180 203 Q 179 202 179 202" fill="#CCCCCC"/><path d="M 62 115 Q 52 117 42 120 Q 29 125 18 120 Q 11 116 20 114 Q 41 110 67 101 L 78 96 Q 85 92 92 93 Q 100 95 101 97 Q 102 99 101 101 Q 99 103 88 106 Q 82 108 78 110" fill="#0000ff" clip-path="url(#clip-mask-1)" /><path d="M 74 216 L 74 225 Q 74 233 72 240 Q 69 245 67 246 Q 65 248 63 247 Q 61 246 60 241 Q 53 226 56 214 Q 62 196 64 175 Q 64 157 65 139 L 67 101 Q 67 81 67 61 Q 66 43 58 30 Q 57 26 58 25 Q 63 21 70 25 Q 84 35 86 37 Q 87 41 84 45 Q 82 52 78 96 L 78 110 Q 76 130 76 147 L 76 156" fill="#0000ff" clip-path="url(#clip-mask-2)" /><path d="M 65 139 Q 55 160 44 175 Q 17 210 11 210 Q 8 210 9 207 Q 50 151 62 115 L 67 101" fill="#0000ff" clip-path="url(#clip-mask-3)" /><path d="M 76 147 Q 83 149 89 150 Q 95 153 97 157 Q 99 163 98 166 Q 96 168 95 169 Q 92 169 89 166 Q 82 160 76 156" fill="#0000ff" clip-path="url(#clip-mask-4)" /><path d="M 142 86 L 134 98 Q 107 134 93 137 Q 90 136 92 135 Q 113 109 121 95 Q 123 92 125 90 Q 151 45 143 26 Q 142 23 144 22 Q 147 21 153 21 Q 165 23 168 30 Q 169 33 167 35 Q 162 41 159 52 L 156 58" fill="#000080" clip-path="url(#clip-mask-5)" /><path d="M 159 52 Q 160 53 161 54 Q 186 77 207 88 Q 213 92 257 108 Q 261 110 260 112 Q 260 113 255 113 Q 236 117 219 116 Q 209 116 203 109 Q 179 85 156 58" fill="#000080" clip-path="url(#clip-mask-6)" /><path d="M 141 110 L 147 108 Q 169 101 172 101 Q 180 102 181 104 Q 183 106 181 108 Q 180 109 175 111 Q 164 114 154 117 Q 141 122 131 117 Q 124 113 133 111" fill="#000080" clip-path="url(#clip-mask-7)" /><path d="M 116 177 L 116 178 Q 115 182 112 177 Q 109 174 108 170 Q 104 155 99 146 Q 98 143 99 142 Q 99 141 102 141 Q 108 142 110 143 L 112 149 Q 113 153 116 169 L 116 176" fill="#000080" clip-path="url(#clip-mask-8)" /><path d="M 110 143 Q 117 142 122 140 Q 128 138 133 135 Q 136 133 140 135 Q 145 138 149 140 L 134 145 Q 133 143 129 144 Q 119 146 112 149" fill="#000080" clip-path="url(#clip-mask-9)" /><path d="M 131 164 Q 135 146 134 145 L 149 140 Q 153 143 149 148 Q 144 152 141 165" fill="#000080" clip-path="url(#clip-mask-10)" /><path d="M 116 169 Q 122 167 130 164 Q 131 164 131 164 L 141 165 Q 145 167 145 169 Q 145 171 143 171 Q 118 174 116 176" fill="#000080" clip-path="url(#clip-mask-11)" /><path d="M 170 171 L 170 172 Q 169 175 166 171 Q 162 168 162 163 Q 159 147 154 138 Q 152 134 153 133 Q 154 132 156 133 Q 162 134 164 135 L 168 140 Q 168 145 171 162 L 171 169" fill="#000080" clip-path="url(#clip-mask-12)" /><path d="M 193 137 Q 191 135 186 136 Q 168 139 168 140 L 164 135 Q 176 132 183 130 Q 196 124 200 126 Q 205 130 210 132" fill="#000080" clip-path="url(#clip-mask-13)" /><path d="M 190 157 Q 194 138 193 137 L 210 132 Q 215 136 210 141 Q 205 145 202 158" fill="#000080" clip-path="url(#clip-mask-14)" /><path d="M 171 162 Q 179 160 190 157 L 202 158 Q 205 160 205 162 Q 205 163 203 163 Q 182 166 173 168 Q 171 169 171 169" fill="#000080" clip-path="url(#clip-mask-15)" /><path d="M 96 236 L 82 236 Q 80 235 82 234 Q 95 224 100 218 Q 119 198 118 186 Q 117 184 119 184 Q 125 183 131 189 Q 134 191 134 193 Q 134 195 132 196 Q 130 197 124 205 L 121 209" fill="#000080" clip-path="url(#clip-mask-16)" /><path d="M 124 205 Q 130 206 134 207 Q 139 209 140 212 Q 142 216 141 219 Q 141 221 139 221 Q 137 221 134 220 Q 129 215 125 212 Q 122 210 121 209" fill="#000080" clip-path="url(#clip-mask-17)" /><path d="M 157 229 L 137 236 Q 135 235 137 234 Q 150 221 156 215 Q 156 214 157 214 Q 175 189 173 179 Q 172 176 174 176 Q 181 174 188 181 Q 190 183 191 185 Q 190 185 183 197 L 179 202" fill="#000080" clip-path="url(#clip-mask-18)" /><path d="M 183 197 Q 222 213 226 227 Q 229 237 226 240 Q 224 243 222 242 Q 219 241 215 237 Q 196 217 180 203 Q 179 202 179 202" fill="#000080" clip-path="url(#clip-mask-19)" /><rect x="11" y="92" width="91" height="33" id="rect-1" fill="transparent" stroke="#000000"><animate attributeName="x" from="-80" to="11" dur="0.337" begin="0; animate19.end + 1s" id="animate1" fill="freeze"/></rect><rect x="53" y="21" width="34" height="227" id="rect-2" fill="transparent" stroke="#000000"><set attributeName="y" to="-206" begin="0; animate19.end + 1s" /><animate attributeName="y" from="-206" to="21" dur="0.841" begin="animate1.end + 0.5" id="animate2" fill="freeze"/></rect><rect x="8" y="101" width="59" height="109" id="rect-3" fill="transparent" stroke="#000000"><set attributeName="y" to="-8" begin="0; animate19.end + 1s" /><animate attributeName="y" from="-8" to="101" dur="0.404" begin="animate2.end + 0.5" id="animate3" fill="freeze"/></rect><rect x="76" y="147" width="23" height="22" id="rect-4" fill="transparent" stroke="#000000"><set attributeName="x" to="53" begin="0; animate19.end + 1s" /><animate attributeName="x" from="53" to="76" dur="0.085" begin="animate3.end + 0.5" id="animate4" fill="freeze"/></rect><rect x="90" y="21" width="79" height="116" id="rect-5" fill="transparent" stroke="#000000"><set attributeName="y" to="-95" begin="0; animate19.end + 1s" /><animate attributeName="y" from="-95" to="21" dur="0.430" begin="animate4.end + 0.5" id="animate5" fill="freeze"/></rect><rect x="156" y="52" width="105" height="65" id="rect-6" fill="transparent" stroke="#000000"><set attributeName="x" to="51" begin="0; animate19.end + 1s" /><animate attributeName="x" from="51" to="156" dur="0.389" begin="animate5.end + 0.5" id="animate6" fill="freeze"/></rect><rect x="124" y="101" width="59" height="21" id="rect-7" fill="transparent" stroke="#000000"><set attributeName="x" to="65" begin="0; animate19.end + 1s" /><animate attributeName="x" from="65" to="124" dur="0.219" begin="animate6.end + 0.5" id="animate7" fill="freeze"/></rect><rect x="98" y="141" width="18" height="41" id="rect-8" fill="transparent" stroke="#000000"><set attributeName="y" to="100" begin="0; animate19.end + 1s" /><animate attributeName="y" from="100" to="141" dur="0.152" begin="animate7.end + 0.5" id="animate8" fill="freeze"/></rect><rect x="110" y="133" width="39" height="16" id="rect-9" fill="transparent" stroke="#000000"><set attributeName="x" to="71" begin="0; animate19.end + 1s" /><animate attributeName="x" from="71" to="110" dur="0.144" begin="animate8.end + 0.5" id="animate9" fill="freeze"/></rect><rect x="131" y="140" width="22" height="25" id="rect-10" fill="transparent" stroke="#000000"><set attributeName="y" to="115" begin="0; animate19.end + 1s" /><animate attributeName="y" from="115" to="140" dur="0.093" begin="animate9.end" id="animate10" fill="freeze"/></rect><rect x="116" y="164" width="29" height="12" id="rect-11" fill="transparent" stroke="#000000"><set attributeName="x" to="87" begin="0; animate19.end + 1s" /><animate attributeName="x" from="87" to="116" dur="0.107" begin="animate10.end + 0.5" id="animate11" fill="freeze"/></rect><rect x="152" y="132" width="19" height="43" id="rect-12" fill="transparent" stroke="#000000"><set attributeName="y" to="89" begin="0; animate19.end + 1s" /><animate attributeName="y" from="89" to="132" dur="0.159" begin="animate11.end + 0.5" id="animate12" fill="freeze"/></rect><rect x="164" y="124" width="46" height="16" id="rect-13" fill="transparent" stroke="#000000"><set attributeName="x" to="118" begin="0; animate19.end + 1s" /><animate attributeName="x" from="118" to="164" dur="0.170" begin="animate12.end + 0.5" id="animate13" fill="freeze"/></rect><rect x="190" y="132" width="25" height="26" id="rect-14" fill="transparent" stroke="#000000"><set attributeName="y" to="106" begin="0; animate19.end + 1s" /><animate attributeName="y" from="106" to="132" dur="0.096" begin="animate13.end" id="animate14" fill="freeze"/></rect><rect x="171" y="157" width="34" height="12" id="rect-15" fill="transparent" stroke="#000000"><set attributeName="x" to="137" begin="0; animate19.end + 1s" /><animate attributeName="x" from="137" to="171" dur="0.126" begin="animate14.end + 0.5" id="animate15" fill="freeze"/></rect><rect x="80" y="183" width="54" height="53" id="rect-16" fill="transparent" stroke="#000000"><set attributeName="y" to="130" begin="0; animate19.end + 1s" /><animate attributeName="y" from="130" to="183" dur="0.196" begin="animate15.end + 0.5" id="animate16" fill="freeze"/></rect><rect x="121" y="205" width="21" height="16" id="rect-17" fill="transparent" stroke="#000000"><set attributeName="x" to="100" begin="0; animate19.end + 1s" /><animate attributeName="x" from="100" to="121" dur="0.078" begin="animate16.end + 0.5" id="animate17" fill="freeze"/></rect><rect x="135" y="174" width="56" height="62" id="rect-18" fill="transparent" stroke="#000000"><set attributeName="y" to="112" begin="0; animate19.end + 1s" /><animate attributeName="y" from="112" to="174" dur="0.230" begin="animate17.end + 0.5" id="animate18" fill="freeze"/></rect><rect x="179" y="197" width="50" height="46" id="rect-19" fill="transparent" stroke="#000000"><set attributeName="x" to="129" begin="0; animate19.end + 1s" /><animate attributeName="x" from="129" to="179" dur="0.185" begin="animate18.end + 0.5" id="animate19" fill="freeze"/></rect></svg>