<svg xmlns="http://www.w3.org/2000/svg" xmlns:xlink="http://www.w3.org/1999/xlink" width="270" height="270"><defs><clipPath id="clip-mask-1"><use xlink:href="#rect-1" /></clipPath><clipPath id="clip-mask-2"><use xlink:href="#rect-2" /></clipPath><clipPath id="clip-mask-3"><use xlink:href="#rect-3" /></clipPath><clipPath id="clip-mask-4"><use xlink:href="#rect-4" /></clipPath><clipPath id="clip-mask-5"><use xlink:href="#rect-5" /></clipPath></defs><path d="M 0 0 L 270 270 M 270 0 L 0 270 M 135 0 L 135 270 M 0 135 L 270 135" stroke="#CCCCCC" /><path d="M 83 115 L 68 130 Q 60 139 54 141 Q 49 143 51 138 Q 58 128 70 112 Q 100 65 92 33 Q 90 29 94 28 Q 101 25 116 34 Q 121 38 119 42 Q 112 57 104 75 Q 101 83 96 91 L 93 98" fill="#CCCCCC"/><path d="M 96 91 Q 127 85 156 78 Q 179 70 187 73 Q 209 84 209 87 L 175 89 Q 175 85 164 86 Q 140 92 113 100 Q 99 105 94 99 Q 93 98 93 98" fill="#CCCCCC"/><path d="M 209 87 Q 210 91 203 94 Q 193 98 170 118 Q 166 122 164 120 Q 163 119 164 115 Q 175 95 175 89" fill="#CCCCCC"/><path d="M 126 164 Q 117 187 108 199 Q 95 216 82 224 Q 70 232 55 235 Q 44 238 40 237 Q 37 235 41 233 Q 46 231 51 228 Q 83 214 102 181 Q 104 177 105 173 Q 121 137 115 122 Q 114 117 118 117 Q 124 116 130 121 Q 134 123 138 128 Q 143 131 139 136 Q 135 142 130 156" fill="#CCCCCC"/><path d="M 148 179 L 174 202 Q 185 213 225 230 Q 232 234 232 236 Q 232 237 226 238 Q 211 241 193 243 Q 187 244 181 236 Q 167 221 148 196 Q 131 173 126 164 L 130 156" fill="#CCCCCC"/><path d="M 83 115 L 68 130 Q 60 139 54 141 Q 49 143 51 138 Q 58 128 70 112 Q 100 65 92 33 Q 90 29 94 28 Q 101 25 116 34 Q 121 38 119 42 Q 112 57 104 75 Q 101 83 96 91 L 93 98" fill="#0000ff" clip-path="url(#clip-mask-1)" /><path d="M 96 91 Q 127 85 156 78 Q 179 70 187 73 Q 209 84 209 87 L 175 89 Q 175 85 164 86 Q 140 92 113 100 Q 99 105 94 99 Q 93 98 93 98" fill="#0000ff" clip-path="url(#clip-mask-2)" /><path d="M 209 87 Q 210 91 203 94 Q 193 98 170 118 Q 166 122 164 120 Q 163 119 164 115 Q 175 95 175 89" fill="#0000ff" clip-path="url(#clip-mask-3)" /><path d="M 126 164 Q 117 187 108 199 Q 95 216 82 224 Q 70 232 55 235 Q 44 238 40 237 Q 37 235 41 233 Q 46 231 51 228 Q 83 214 102 181 Q 104 177 105 173 Q 121 137 115 122 Q 114 117 118 117 Q 124 116 130 121 Q 134 123 138 128 Q 143 131 139 136 Q 135 142 130 156" fill="#0000ff" clip-path="url(#clip-mask-4)" /><path d="M 148 179 L 174 202 Q 185 213 225 230 Q 232 234 232 236 Q 232 237 226 238 Q 211 241 193 243 Q 187 244 181 236 Q 167 221 148 196 Q 131 173 126 164 L 130 156" fill="#0000ff" clip-path="url(#clip-mask-5)" /><rect x="49" y="25" width="72" height="118" id="rect-1" fill="transparent" stroke="#000000"><animate attributeName="y" from="-93" to="25" dur="0.437" begin="0; animate5.end + 1s" id="animate1" fill="freeze"/></rect><rect x="93" y="70" width="116" height="35" id="rect-2" fill="transparent" stroke="#000000"><set attributeName="x" to="-23" begin="0; animate5.end + 1s" /><animate attributeName="x" from="-23" to="93" dur="0.430" begin="animate1.end + 0.5" id="animate2" fill="freeze"/></rect><rect x="163" y="87" width="47" height="35" id="rect-3" fill="transparent" stroke="#000000"><set attributeName="y" to="52" begin="0; animate5.end + 1s" /><animate attributeName="y" from="52" to="87" dur="0.130" begin="animate2.end" id="animate3" fill="freeze"/></rect><rect x="37" y="116" width="106" height="122" id="rect-4" fill="transparent" stroke="#000000"><set attributeName="y" to="-6" begin="0; animate5.end + 1s" /><animate attributeName="y" from="-6" to="116" dur="0.452" begin="animate3.end + 0.5" id="animate4" fill="freeze"/></rect><rect x="126" y="156" width="106" height="88" id="rect-5" fill="transparent" stroke="#000000"><set attributeName="x" to="20" begin="0; animate5.end + 1s" /><animate attributeName="x" from="20" to="126" dur="0.393" begin="animate4.end + 0.5" id="animate5" fill="freeze"/></rect></svg>