<svg xmlns="http://www.w3.org/2000/svg" xmlns:xlink="http://www.w3.org/1999/xlink" width="270" height="270"><defs><clipPath id="clip-mask-1"><use xlink:href="#rect-1" /></clipPath><clipPath id="clip-mask-2"><use xlink:href="#rect-2" /></clipPath><clipPath id="clip-mask-3"><use xlink:href="#rect-3" /></clipPath><clipPath id="clip-mask-4"><use xlink:href="#rect-4" /></clipPath><clipPath id="clip-mask-5"><use xlink:href="#rect-5" /></clipPath><clipPath id="clip-mask-6"><use xlink:href="#rect-6" /></clipPath><clipPath id="clip-mask-7"><use xlink:href="#rect-7" /></clipPath><clipPath id="clip-mask-8"><use xlink:href="#rect-8" /></clipPath><clipPath id="clip-mask-9"><use xlink:href="#rect-9" /></clipPath></defs><path d="M 0 0 L 270 270 M 270 0 L 0 270 M 135 0 L 135 270 M 0 135 L 270 135" stroke="#CCCCCC" /><path d="M 60 84 Q 68 76 76 69 Q 93 53 93 46 Q 93 42 96 42 Q 99 42 106 46 Q 112 51 115 56 Q 118 61 112 63 Q 108 64 63 88" fill="#CCCCCC"/><path d="M 60 123 Q 58 156 49 183 Q 47 186 46 190 Q 31 221 22 224 Q 19 224 20 222 Q 20 220 21 218 Q 35 189 40 169 Q 47 141 45 107 Q 45 107 45 106 Q 44 89 39 83 Q 38 80 40 78 Q 44 76 49 78 Q 56 81 60 84 L 63 88 Q 63 90 62 93 Q 61 99 61 114 Q 61 115 61 116" fill="#CCCCCC"/><path d="M 71 126 L 60 123 L 61 116 Q 73 114 84 111 Q 93 109 102 106 Q 110 102 118 103 Q 126 105 128 108 Q 129 110 127 112 Q 126 114 118 115 Q 104 119 92 122 L 83 124" fill="#CCCCCC"/><path d="M 92 122 Q 95 124 98 127 Q 100 128 99 132 Q 96 152 98 220 Q 99 227 96 235 Q 94 238 92 238 Q 90 237 89 236 Q 77 220 81 210 Q 82 207 82 201 Q 82 200 82 198 Q 89 135 83 124" fill="#CCCCCC"/><path d="M 134 133 L 127 136 Q 123 138 123 135 Q 124 133 126 130 Q 136 108 143 89 Q 151 70 154 50 Q 155 44 151 38 Q 147 33 152 32 Q 157 31 165 34 Q 173 38 175 41 Q 177 44 175 48 Q 171 53 168 64 Q 160 84 152 99 L 148 107" fill="#CCCCCC"/><path d="M 152 99 Q 183 92 202 83 Q 206 81 213 85 Q 219 88 224 91 Q 232 95 232 98 L 198 96 Q 195 95 187 98 Q 172 102 158 108 Q 153 110 148 107" fill="#CCCCCC"/><path d="M 232 98 Q 232 101 229 101 Q 219 105 195 123 Q 193 126 191 124 Q 190 123 192 120 Q 200 102 200 101 Q 201 99 198 96" fill="#CCCCCC"/><path d="M 166 165 Q 159 194 139 211 Q 130 218 119 223 Q 110 227 107 226 Q 104 226 107 223 Q 111 220 116 217 Q 140 200 149 174 Q 159 141 152 126 Q 150 122 154 121 Q 161 119 172 128 Q 176 130 174 135 Q 170 142 168 156" fill="#CCCCCC"/><path d="M 182 176 L 195 188 Q 209 205 244 223 Q 250 227 249 228 Q 249 230 244 230 Q 231 231 217 233 Q 211 233 207 227 Q 183 200 166 165 L 168 156" fill="#CCCCCC"/><path d="M 60 84 Q 68 76 76 69 Q 93 53 93 46 Q 93 42 96 42 Q 99 42 106 46 Q 112 51 115 56 Q 118 61 112 63 Q 108 64 63 88" fill="#000080" clip-path="url(#clip-mask-1)" /><path d="M 60 123 Q 58 156 49 183 Q 47 186 46 190 Q 31 221 22 224 Q 19 224 20 222 Q 20 220 21 218 Q 35 189 40 169 Q 47 141 45 107 Q 45 107 45 106 Q 44 89 39 83 Q 38 80 40 78 Q 44 76 49 78 Q 56 81 60 84 L 63 88 Q 63 90 62 93 Q 61 99 61 114 Q 61 115 61 116" fill="#000080" clip-path="url(#clip-mask-2)" /><path d="M 71 126 L 60 123 L 61 116 Q 73 114 84 111 Q 93 109 102 106 Q 110 102 118 103 Q 126 105 128 108 Q 129 110 127 112 Q 126 114 118 115 Q 104 119 92 122 L 83 124" fill="#000080" clip-path="url(#clip-mask-3)" /><path d="M 92 122 Q 95 124 98 127 Q 100 128 99 132 Q 96 152 98 220 Q 99 227 96 235 Q 94 238 92 238 Q 90 237 89 236 Q 77 220 81 210 Q 82 207 82 201 Q 82 200 82 198 Q 89 135 83 124" fill="#000080" clip-path="url(#clip-mask-4)" /><path d="M 134 133 L 127 136 Q 123 138 123 135 Q 124 133 126 130 Q 136 108 143 89 Q 151 70 154 50 Q 155 44 151 38 Q 147 33 152 32 Q 157 31 165 34 Q 173 38 175 41 Q 177 44 175 48 Q 171 53 168 64 Q 160 84 152 99 L 148 107" fill="#0000ff" clip-path="url(#clip-mask-5)" /><path d="M 152 99 Q 183 92 202 83 Q 206 81 213 85 Q 219 88 224 91 Q 232 95 232 98 L 198 96 Q 195 95 187 98 Q 172 102 158 108 Q 153 110 148 107" fill="#0000ff" clip-path="url(#clip-mask-6)" /><path d="M 232 98 Q 232 101 229 101 Q 219 105 195 123 Q 193 126 191 124 Q 190 123 192 120 Q 200 102 200 101 Q 201 99 198 96" fill="#0000ff" clip-path="url(#clip-mask-7)" /><path d="M 166 165 Q 159 194 139 211 Q 130 218 119 223 Q 110 227 107 226 Q 104 226 107 223 Q 111 220 116 217 Q 140 200 149 174 Q 159 141 152 126 Q 150 122 154 121 Q 161 119 172 128 Q 176 130 174 135 Q 170 142 168 156" fill="#0000ff" clip-path="url(#clip-mask-8)" /><path d="M 182 176 L 195 188 Q 209 205 244 223 Q 250 227 249 228 Q 249 230 244 230 Q 231 231 217 233 Q 211 233 207 227 Q 183 200 166 165 L 168 156" fill="#0000ff" clip-path="url(#clip-mask-9)" /><rect x="60" y="42" width="58" height="46" id="rect-1" fill="transparent" stroke="#000000"><animate attributeName="y" from="-4" to="42" dur="0.170" begin="0; animate9.end + 1s" id="animate1" fill="freeze"/></rect><rect x="19" y="76" width="44" height="148" id="rect-2" fill="transparent" stroke="#000000"><set attributeName="y" to="-72" begin="0; animate9.end + 1s" /><animate attributeName="y" from="-72" to="76" dur="0.548" begin="animate1.end + 0.5" id="animate2" fill="freeze"/></rect><rect x="60" y="102" width="69" height="24" id="rect-3" fill="transparent" stroke="#000000"><set attributeName="x" to="-9" begin="0; animate9.end + 1s" /><animate attributeName="x" from="-9" to="60" dur="0.256" begin="animate2.end + 0.5" id="animate3" fill="freeze"/></rect><rect x="77" y="122" width="23" height="116" id="rect-4" fill="transparent" stroke="#000000"><set attributeName="y" to="6" begin="0; animate9.end + 1s" /><animate attributeName="y" from="6" to="122" dur="0.430" begin="animate3.end + 0.5" id="animate4" fill="freeze"/></rect><rect x="123" y="31" width="54" height="107" id="rect-5" fill="transparent" stroke="#000000"><set attributeName="y" to="-76" begin="0; animate9.end + 1s" /><animate attributeName="y" from="-76" to="31" dur="0.396" begin="animate4.end + 0.5" id="animate5" fill="freeze"/></rect><rect x="148" y="81" width="84" height="29" id="rect-6" fill="transparent" stroke="#000000"><set attributeName="x" to="64" begin="0; animate9.end + 1s" /><animate attributeName="x" from="64" to="148" dur="0.311" begin="animate5.end + 0.5" id="animate6" fill="freeze"/></rect><rect x="190" y="96" width="42" height="30" id="rect-7" fill="transparent" stroke="#000000"><set attributeName="y" to="66" begin="0; animate9.end + 1s" /><animate attributeName="y" from="66" to="96" dur="0.111" begin="animate6.end" id="animate7" fill="freeze"/></rect><rect x="104" y="119" width="72" height="108" id="rect-8" fill="transparent" stroke="#000000"><set attributeName="y" to="11" begin="0; animate9.end + 1s" /><animate attributeName="y" from="11" to="119" dur="0.400" begin="animate7.end + 0.5" id="animate8" fill="freeze"/></rect><rect x="166" y="156" width="84" height="77" id="rect-9" fill="transparent" stroke="#000000"><set attributeName="x" to="82" begin="0; animate9.end + 1s" /><animate attributeName="x" from="82" to="166" dur="0.311" begin="animate8.end + 0.5" id="animate9" fill="freeze"/></rect></svg>