<svg xmlns="http://www.w3.org/2000/svg" xmlns:xlink="http://www.w3.org/1999/xlink" width="270" height="270"><defs><clipPath id="clip-mask-1"><use xlink:href="#rect-1" /></clipPath><clipPath id="clip-mask-2"><use xlink:href="#rect-2" /></clipPath><clipPath id="clip-mask-3"><use xlink:href="#rect-3" /></clipPath><clipPath id="clip-mask-4"><use xlink:href="#rect-4" /></clipPath><clipPath id="clip-mask-5"><use xlink:href="#rect-5" /></clipPath><clipPath id="clip-mask-6"><use xlink:href="#rect-6" /></clipPath><clipPath id="clip-mask-7"><use xlink:href="#rect-7" /></clipPath><clipPath id="clip-mask-8"><use xlink:href="#rect-8" /></clipPath><clipPath id="clip-mask-9"><use xlink:href="#rect-9" /></clipPath><clipPath id="clip-mask-10"><use xlink:href="#rect-10" /></clipPath><clipPath id="clip-mask-11"><use xlink:href="#rect-11" /></clipPath><clipPath id="clip-mask-12"><use xlink:href="#rect-12" /></clipPath><clipPath id="clip-mask-13"><use xlink:href="#rect-13" /></clipPath><clipPath id="clip-mask-14"><use xlink:href="#rect-14" /></clipPath><clipPath id="clip-mask-15"><use xlink:href="#rect-15" /></clipPath><clipPath id="clip-mask-16"><use xlink:href="#rect-16" /></clipPath><clipPath id="clip-mask-17"><use xlink:href="#rect-17" /></clipPath><clipPath id="clip-mask-18"><use xlink:href="#rect-18" /></clipPath><clipPath id="clip-mask-19"><use xlink:href="#rect-19" /></clipPath><clipPath id="clip-mask-20"><use xlink:href="#rect-20" /></clipPath><clipPath id="clip-mask-21"><use xlink:href="#rect-21" /></clipPath><clipPath id="clip-mask-22"><use xlink:href="#rect-22" /></clipPath><clipPath id="clip-mask-23"><use xlink:href="#rect-23" /></clipPath><clipPath id="clip-mask-24"><use xlink:href="#rect-24" /></clipPath><clipPath id="clip-mask-25"><use xlink:href="#rect-25" /></clipPath></defs><path d="M 0 0 L 270 270 M 270 0 L 0 270 M 135 0 L 135 270 M 0 135 L 270 135" stroke="#CCCCCC" /><path d="M 87 75 L 86 77 Q 85 80 82 77 Q 78 74 75 59 L 73 51 Q 70 43 64 37 Q 61 32 65 30 Q 70 28 80 33 Q 84 34 84 39 Q 85 44 85 50 L 86 56" fill="#CCCCCC"/><path d="M 75 59 Q 61 63 49 67 Q 46 68 42 66 Q 35 64 32 60 Q 31 58 31 56 Q 32 55 34 55 Q 38 55 46 55 Q 61 53 73 51 L 85 50 Q 89 49 92 49 Q 95 49 95 50 Q 96 55 87 56 Q 86 56 86 56" fill="#CCCCCC"/><path d="M 112 70 L 109 73 Q 106 75 105 72 Q 105 68 106 63 Q 115 29 111 19 Q 109 17 111 15 Q 115 14 119 15 Q 127 19 129 22 Q 132 25 129 28 Q 127 32 122 45 L 119 52" fill="#CCCCCC"/><path d="M 122 45 Q 123 44 125 44 Q 145 37 155 45 Q 158 48 157 50 Q 156 52 153 51 Q 146 50 138 51 Q 123 53 119 52" fill="#CCCCCC"/><path d="M 60 124 L 59 126 Q 59 129 54 125 Q 52 122 51 118 Q 46 103 40 95 Q 38 92 39 91 Q 40 90 42 90 Q 50 91 52 92 L 54 97 Q 55 102 58 114 L 60 121" fill="#CCCCCC"/><path d="M 52 92 Q 59 90 65 88 Q 72 86 77 83 Q 81 81 84 83 Q 89 87 93 89 L 78 93 Q 77 92 72 93 Q 55 96 54 97" fill="#CCCCCC"/><path d="M 93 89 Q 97 92 93 97 Q 89 100 85 111 L 75 109 Q 77 104 78 100 Q 79 95 78 93" fill="#CCCCCC"/><path d="M 58 114 Q 65 112 73 110 Q 74 109 75 109 L 85 111 Q 88 113 88 114 Q 88 116 86 116 Q 61 119 60 121" fill="#CCCCCC"/><path d="M 115 115 L 115 116 Q 114 118 111 115 Q 108 112 108 108 Q 104 95 99 87 Q 98 84 99 83 Q 99 83 101 83 Q 107 83 109 84 L 112 90 Q 112 94 115 107 L 115 113" fill="#CCCCCC"/><path d="M 109 84 Q 126 80 132 76 Q 133 75 134 75 Q 135 75 148 82 L 133 86 Q 132 85 128 86 Q 121 87 113 89 Q 112 89 112 90" fill="#CCCCCC"/><path d="M 148 82 Q 152 84 148 89 Q 144 92 140 103 L 130 103 Q 132 97 133 92 Q 134 88 133 86" fill="#CCCCCC"/><path d="M 140 103 Q 145 105 145 107 Q 145 109 143 109 Q 127 111 120 112 Q 117 113 115 113 L 115 107 Q 121 105 130 103" fill="#CCCCCC"/><path d="M 54 165 Q 29 189 17 192 Q 11 193 15 190 Q 38 169 46 160 Q 48 157 51 154 Q 51 153 51 152 Q 51 152 52 151 Q 63 136 64 128 Q 65 125 66 125 Q 69 124 75 125 Q 80 127 81 129 Q 81 131 80 134 Q 70 145 62 157" fill="#CCCCCC"/><path d="M 68 213 Q 68 221 68 230 Q 68 241 65 250 Q 62 255 58 252 Q 56 251 56 248 Q 47 234 53 227 Q 61 184 54 165 L 62 157 Q 64 160 68 164 Q 71 166 69 172 Q 67 180 68 207" fill="#CCCCCC"/><path d="M 94 117 L 94 116 Q 93 113 94 113 Q 95 112 98 113 Q 110 117 112 122 Q 113 126 112 129 Q 110 131 109 131 Q 105 131 98 121" fill="#CCCCCC"/><path d="M 99 144 Q 98 144 97 144 Q 88 146 80 143 Q 76 140 82 139 Q 93 138 102 136 Q 110 134 117 131 Q 122 129 127 130 Q 132 131 133 133 Q 134 135 133 136 Q 132 137 108 142" fill="#CCCCCC"/><path d="M 102 167 Q 101 167 101 167 Q 89 171 81 168 Q 76 166 83 164 Q 92 163 100 160 Q 101 160 102 160 L 114 155 Q 114 155 114 155 Q 119 152 124 153 Q 129 154 130 156 Q 131 157 130 159 Q 129 160 123 162 Q 118 163 113 164" fill="#CCCCCC"/><path d="M 102 186 Q 101 186 100 187 Q 86 189 80 187 Q 76 184 82 183 Q 86 182 102 178 L 113 175 Q 113 174 113 174 Q 118 172 123 173 Q 128 174 129 176 Q 130 177 129 178 Q 128 179 122 181 Q 117 182 113 184" fill="#CCCCCC"/><path d="M 102 193 L 102 186 L 102 178 Q 102 172 102 167 L 102 160 Q 101 149 99 144 L 108 142 Q 110 144 114 147 Q 116 149 114 153 Q 114 154 114 155 L 113 164 Q 113 169 113 175 L 113 184 Q 112 192 112 200 L 102 203" fill="#CCCCCC"/><path d="M 112 200 Q 127 196 134 200 Q 139 203 138 205 Q 136 208 134 207 Q 108 210 79 216 Q 73 217 68 213 L 68 207 Q 75 206 82 206 Q 91 204 102 203" fill="#CCCCCC"/><path d="M 157 117 L 152 119 Q 148 120 148 118 Q 148 116 150 113 Q 151 111 152 110 Q 182 39 171 24 Q 168 20 172 18 Q 177 17 184 20 Q 193 24 195 26 Q 196 29 195 32 Q 191 38 188 48 Q 181 70 173 86 L 170 92" fill="#CCCCCC"/><path d="M 173 86 Q 193 81 206 76 Q 214 71 232 81 Q 239 84 239 87 L 206 86 Q 202 85 185 92 Q 174 96 170 92" fill="#CCCCCC"/><path d="M 239 87 Q 239 89 237 90 Q 226 96 203 115 Q 201 118 200 117 Q 198 116 200 113 Q 208 94 208 92 Q 210 90 206 86" fill="#CCCCCC"/><path d="M 169 199 L 153 212 Q 144 219 134 224 Q 124 227 121 227 Q 118 226 121 224 Q 125 220 129 218 Q 150 206 161 176 Q 171 144 164 131 Q 162 127 166 126 Q 171 125 176 129 Q 180 130 184 134 Q 189 136 186 141 Q 183 146 179 165 L 177 174" fill="#CCCCCC"/><path d="M 179 165 Q 180 166 181 167 Q 190 178 197 187 Q 221 212 256 228 Q 258 229 257 230 Q 254 233 226 235 Q 221 235 218 231 Q 201 210 180 179 Q 179 176 177 174" fill="#CCCCCC"/><path d="M 87 75 L 86 77 Q 85 80 82 77 Q 78 74 75 59 L 73 51 Q 70 43 64 37 Q 61 32 65 30 Q 70 28 80 33 Q 84 34 84 39 Q 85 44 85 50 L 86 56" fill="#000080" clip-path="url(#clip-mask-1)" /><path d="M 75 59 Q 61 63 49 67 Q 46 68 42 66 Q 35 64 32 60 Q 31 58 31 56 Q 32 55 34 55 Q 38 55 46 55 Q 61 53 73 51 L 85 50 Q 89 49 92 49 Q 95 49 95 50 Q 96 55 87 56 Q 86 56 86 56" fill="#000080" clip-path="url(#clip-mask-2)" /><path d="M 112 70 L 109 73 Q 106 75 105 72 Q 105 68 106 63 Q 115 29 111 19 Q 109 17 111 15 Q 115 14 119 15 Q 127 19 129 22 Q 132 25 129 28 Q 127 32 122 45 L 119 52" fill="#000080" clip-path="url(#clip-mask-3)" /><path d="M 122 45 Q 123 44 125 44 Q 145 37 155 45 Q 158 48 157 50 Q 156 52 153 51 Q 146 50 138 51 Q 123 53 119 52" fill="#000080" clip-path="url(#clip-mask-4)" /><path d="M 60 124 L 59 126 Q 59 129 54 125 Q 52 122 51 118 Q 46 103 40 95 Q 38 92 39 91 Q 40 90 42 90 Q 50 91 52 92 L 54 97 Q 55 102 58 114 L 60 121" fill="#000080" clip-path="url(#clip-mask-5)" /><path d="M 52 92 Q 59 90 65 88 Q 72 86 77 83 Q 81 81 84 83 Q 89 87 93 89 L 78 93 Q 77 92 72 93 Q 55 96 54 97" fill="#000080" clip-path="url(#clip-mask-6)" /><path d="M 93 89 Q 97 92 93 97 Q 89 100 85 111 L 75 109 Q 77 104 78 100 Q 79 95 78 93" fill="#000080" clip-path="url(#clip-mask-7)" /><path d="M 58 114 Q 65 112 73 110 Q 74 109 75 109 L 85 111 Q 88 113 88 114 Q 88 116 86 116 Q 61 119 60 121" fill="#000080" clip-path="url(#clip-mask-8)" /><path d="M 115 115 L 115 116 Q 114 118 111 115 Q 108 112 108 108 Q 104 95 99 87 Q 98 84 99 83 Q 99 83 101 83 Q 107 83 109 84 L 112 90 Q 112 94 115 107 L 115 113" fill="#000080" clip-path="url(#clip-mask-9)" /><path d="M 109 84 Q 126 80 132 76 Q 133 75 134 75 Q 135 75 148 82 L 133 86 Q 132 85 128 86 Q 121 87 113 89 Q 112 89 112 90" fill="#000080" clip-path="url(#clip-mask-10)" /><path d="M 148 82 Q 152 84 148 89 Q 144 92 140 103 L 130 103 Q 132 97 133 92 Q 134 88 133 86" fill="#000080" clip-path="url(#clip-mask-11)" /><path d="M 140 103 Q 145 105 145 107 Q 145 109 143 109 Q 127 111 120 112 Q 117 113 115 113 L 115 107 Q 121 105 130 103" fill="#000080" clip-path="url(#clip-mask-12)" /><path d="M 54 165 Q 29 189 17 192 Q 11 193 15 190 Q 38 169 46 160 Q 48 157 51 154 Q 51 153 51 152 Q 51 152 52 151 Q 63 136 64 128 Q 65 125 66 125 Q 69 124 75 125 Q 80 127 81 129 Q 81 131 80 134 Q 70 145 62 157" fill="#000080" clip-path="url(#clip-mask-13)" /><path d="M 68 213 Q 68 221 68 230 Q 68 241 65 250 Q 62 255 58 252 Q 56 251 56 248 Q 47 234 53 227 Q 61 184 54 165 L 62 157 Q 64 160 68 164 Q 71 166 69 172 Q 67 180 68 207" fill="#000080" clip-path="url(#clip-mask-14)" /><path d="M 94 117 L 94 116 Q 93 113 94 113 Q 95 112 98 113 Q 110 117 112 122 Q 113 126 112 129 Q 110 131 109 131 Q 105 131 98 121" fill="#000080" clip-path="url(#clip-mask-15)" /><path d="M 99 144 Q 98 144 97 144 Q 88 146 80 143 Q 76 140 82 139 Q 93 138 102 136 Q 110 134 117 131 Q 122 129 127 130 Q 132 131 133 133 Q 134 135 133 136 Q 132 137 108 142" fill="#000080" clip-path="url(#clip-mask-16)" /><path d="M 102 167 Q 101 167 101 167 Q 89 171 81 168 Q 76 166 83 164 Q 92 163 100 160 Q 101 160 102 160 L 114 155 Q 114 155 114 155 Q 119 152 124 153 Q 129 154 130 156 Q 131 157 130 159 Q 129 160 123 162 Q 118 163 113 164" fill="#000080" clip-path="url(#clip-mask-17)" /><path d="M 102 186 Q 101 186 100 187 Q 86 189 80 187 Q 76 184 82 183 Q 86 182 102 178 L 113 175 Q 113 174 113 174 Q 118 172 123 173 Q 128 174 129 176 Q 130 177 129 178 Q 128 179 122 181 Q 117 182 113 184" fill="#000080" clip-path="url(#clip-mask-18)" /><path d="M 102 193 L 102 186 L 102 178 Q 102 172 102 167 L 102 160 Q 101 149 99 144 L 108 142 Q 110 144 114 147 Q 116 149 114 153 Q 114 154 114 155 L 113 164 Q 113 169 113 175 L 113 184 Q 112 192 112 200 L 102 203" fill="#000080" clip-path="url(#clip-mask-19)" /><path d="M 112 200 Q 127 196 134 200 Q 139 203 138 205 Q 136 208 134 207 Q 108 210 79 216 Q 73 217 68 213 L 68 207 Q 75 206 82 206 Q 91 204 102 203" fill="#000080" clip-path="url(#clip-mask-20)" /><path d="M 157 117 L 152 119 Q 148 120 148 118 Q 148 116 150 113 Q 151 111 152 110 Q 182 39 171 24 Q 168 20 172 18 Q 177 17 184 20 Q 193 24 195 26 Q 196 29 195 32 Q 191 38 188 48 Q 181 70 173 86 L 170 92" fill="#0000ff" clip-path="url(#clip-mask-21)" /><path d="M 173 86 Q 193 81 206 76 Q 214 71 232 81 Q 239 84 239 87 L 206 86 Q 202 85 185 92 Q 174 96 170 92" fill="#0000ff" clip-path="url(#clip-mask-22)" /><path d="M 239 87 Q 239 89 237 90 Q 226 96 203 115 Q 201 118 200 117 Q 198 116 200 113 Q 208 94 208 92 Q 210 90 206 86" fill="#0000ff" clip-path="url(#clip-mask-23)" /><path d="M 169 199 L 153 212 Q 144 219 134 224 Q 124 227 121 227 Q 118 226 121 224 Q 125 220 129 218 Q 150 206 161 176 Q 171 144 164 131 Q 162 127 166 126 Q 171 125 176 129 Q 180 130 184 134 Q 189 136 186 141 Q 183 146 179 165 L 177 174" fill="#0000ff" clip-path="url(#clip-mask-24)" /><path d="M 179 165 Q 180 166 181 167 Q 190 178 197 187 Q 221 212 256 228 Q 258 229 257 230 Q 254 233 226 235 Q 221 235 218 231 Q 201 210 180 179 Q 179 176 177 174" fill="#0000ff" clip-path="url(#clip-mask-25)" /><rect x="61" y="28" width="26" height="52" id="rect-1" fill="transparent" stroke="#000000"><animate attributeName="y" from="-24" to="28" dur="0.193" begin="0; animate25.end + 1s" id="animate1" fill="freeze"/></rect><rect x="31" y="49" width="65" height="19" id="rect-2" fill="transparent" stroke="#000000"><set attributeName="x" to="-34" begin="0; animate25.end + 1s" /><animate attributeName="x" from="-34" to="31" dur="0.241" begin="animate1.end + 0.5" id="animate2" fill="freeze"/></rect><rect x="105" y="14" width="27" height="61" id="rect-3" fill="transparent" stroke="#000000"><set attributeName="y" to="-47" begin="0; animate25.end + 1s" /><animate attributeName="y" from="-47" to="14" dur="0.226" begin="animate2.end + 0.5" id="animate3" fill="freeze"/></rect><rect x="119" y="37" width="39" height="16" id="rect-4" fill="transparent" stroke="#000000"><set attributeName="x" to="80" begin="0; animate25.end + 1s" /><animate attributeName="x" from="80" to="119" dur="0.144" begin="animate3.end + 0.5" id="animate4" fill="freeze"/></rect><rect x="38" y="90" width="22" height="39" id="rect-5" fill="transparent" stroke="#000000"><set attributeName="y" to="51" begin="0; animate25.end + 1s" /><animate attributeName="y" from="51" to="90" dur="0.144" begin="animate4.end + 0.5" id="animate5" fill="freeze"/></rect><rect x="52" y="81" width="41" height="16" id="rect-6" fill="transparent" stroke="#000000"><set attributeName="x" to="11" begin="0; animate25.end + 1s" /><animate attributeName="x" from="11" to="52" dur="0.152" begin="animate5.end + 0.5" id="animate6" fill="freeze"/></rect><rect x="75" y="89" width="22" height="22" id="rect-7" fill="transparent" stroke="#000000"><set attributeName="y" to="67" begin="0; animate25.end + 1s" /><animate attributeName="y" from="67" to="89" dur="0.081" begin="animate6.end" id="animate7" fill="freeze"/></rect><rect x="58" y="109" width="30" height="12" id="rect-8" fill="transparent" stroke="#000000"><set attributeName="x" to="28" begin="0; animate25.end + 1s" /><animate attributeName="x" from="28" to="58" dur="0.111" begin="animate7.end + 0.5" id="animate8" fill="freeze"/></rect><rect x="98" y="83" width="17" height="35" id="rect-9" fill="transparent" stroke="#000000"><set attributeName="y" to="48" begin="0; animate25.end + 1s" /><animate attributeName="y" from="48" to="83" dur="0.130" begin="animate8.end + 0.5" id="animate9" fill="freeze"/></rect><rect x="109" y="75" width="39" height="15" id="rect-10" fill="transparent" stroke="#000000"><set attributeName="x" to="70" begin="0; animate25.end + 1s" /><animate attributeName="x" from="70" to="109" dur="0.144" begin="animate9.end + 0.5" id="animate10" fill="freeze"/></rect><rect x="130" y="82" width="22" height="21" id="rect-11" fill="transparent" stroke="#000000"><set attributeName="y" to="61" begin="0; animate25.end + 1s" /><animate attributeName="y" from="61" to="82" dur="0.078" begin="animate10.end" id="animate11" fill="freeze"/></rect><rect x="115" y="103" width="30" height="10" id="rect-12" fill="transparent" stroke="#000000"><set attributeName="x" to="85" begin="0; animate25.end + 1s" /><animate attributeName="x" from="85" to="115" dur="0.111" begin="animate11.end + 0.5" id="animate12" fill="freeze"/></rect><rect x="11" y="124" width="70" height="69" id="rect-13" fill="transparent" stroke="#000000"><set attributeName="y" to="55" begin="0; animate25.end + 1s" /><animate attributeName="y" from="55" to="124" dur="0.256" begin="animate12.end + 0.5" id="animate13" fill="freeze"/></rect><rect x="47" y="157" width="24" height="98" id="rect-14" fill="transparent" stroke="#000000"><set attributeName="y" to="59" begin="0; animate25.end + 1s" /><animate attributeName="y" from="59" to="157" dur="0.363" begin="animate13.end + 0.5" id="animate14" fill="freeze"/></rect><rect x="93" y="112" width="20" height="19" id="rect-15" fill="transparent" stroke="#000000"><set attributeName="x" to="73" begin="0; animate25.end + 1s" /><animate attributeName="x" from="73" to="93" dur="0.074" begin="animate14.end + 0.5" id="animate15" fill="freeze"/></rect><rect x="76" y="129" width="58" height="17" id="rect-16" fill="transparent" stroke="#000000"><set attributeName="x" to="18" begin="0; animate25.end + 1s" /><animate attributeName="x" from="18" to="76" dur="0.215" begin="animate15.end + 0.5" id="animate16" fill="freeze"/></rect><rect x="76" y="152" width="55" height="19" id="rect-17" fill="transparent" stroke="#000000"><set attributeName="x" to="21" begin="0; animate25.end + 1s" /><animate attributeName="x" from="21" to="76" dur="0.204" begin="animate16.end + 0.5" id="animate17" fill="freeze"/></rect><rect x="76" y="172" width="54" height="17" id="rect-18" fill="transparent" stroke="#000000"><set attributeName="x" to="22" begin="0; animate25.end + 1s" /><animate attributeName="x" from="22" to="76" dur="0.200" begin="animate17.end + 0.5" id="animate18" fill="freeze"/></rect><rect x="99" y="142" width="17" height="61" id="rect-19" fill="transparent" stroke="#000000"><set attributeName="y" to="81" begin="0; animate25.end + 1s" /><animate attributeName="y" from="81" to="142" dur="0.226" begin="animate18.end + 0.5" id="animate19" fill="freeze"/></rect><rect x="68" y="196" width="71" height="21" id="rect-20" fill="transparent" stroke="#000000"><set attributeName="x" to="-3" begin="0; animate25.end + 1s" /><animate attributeName="x" from="-3" to="68" dur="0.263" begin="animate19.end + 0.5" id="animate20" fill="freeze"/></rect><rect x="148" y="17" width="48" height="103" id="rect-21" fill="transparent" stroke="#000000"><set attributeName="y" to="-86" begin="0; animate25.end + 1s" /><animate attributeName="y" from="-86" to="17" dur="0.381" begin="animate20.end + 0.5" id="animate21" fill="freeze"/></rect><rect x="170" y="71" width="69" height="25" id="rect-22" fill="transparent" stroke="#000000"><set attributeName="x" to="101" begin="0; animate25.end + 1s" /><animate attributeName="x" from="101" to="170" dur="0.256" begin="animate21.end + 0.5" id="animate22" fill="freeze"/></rect><rect x="198" y="86" width="41" height="32" id="rect-23" fill="transparent" stroke="#000000"><set attributeName="y" to="54" begin="0; animate25.end + 1s" /><animate attributeName="y" from="54" to="86" dur="0.119" begin="animate22.end" id="animate23" fill="freeze"/></rect><rect x="118" y="125" width="71" height="102" id="rect-24" fill="transparent" stroke="#000000"><set attributeName="y" to="23" begin="0; animate25.end + 1s" /><animate attributeName="y" from="23" to="125" dur="0.378" begin="animate23.end + 0.5" id="animate24" fill="freeze"/></rect><rect x="177" y="165" width="81" height="70" id="rect-25" fill="transparent" stroke="#000000"><set attributeName="x" to="96" begin="0; animate25.end + 1s" /><animate attributeName="x" from="96" to="177" dur="0.300" begin="animate24.end + 0.5" id="animate25" fill="freeze"/></rect></svg>