<svg xmlns="http://www.w3.org/2000/svg" xmlns:xlink="http://www.w3.org/1999/xlink" width="270" height="270"><defs><clipPath id="clip-mask-1"><use xlink:href="#rect-1" /></clipPath><clipPath id="clip-mask-2"><use xlink:href="#rect-2" /></clipPath><clipPath id="clip-mask-3"><use xlink:href="#rect-3" /></clipPath><clipPath id="clip-mask-4"><use xlink:href="#rect-4" /></clipPath><clipPath id="clip-mask-5"><use xlink:href="#rect-5" /></clipPath><clipPath id="clip-mask-6"><use xlink:href="#rect-6" /></clipPath><clipPath id="clip-mask-7"><use xlink:href="#rect-7" /></clipPath><clipPath id="clip-mask-8"><use xlink:href="#rect-8" /></clipPath><clipPath id="clip-mask-9"><use xlink:href="#rect-9" /></clipPath></defs><path d="M 0 0 L 270 270 M 270 0 L 0 270 M 135 0 L 135 270 M 0 135 L 270 135" stroke="#CCCCCC" /><path d="M 140 49 Q 107 51 78 58 Q 73 59 68 58 Q 63 56 60 53 Q 56 48 61 48 Q 156 37 194 30 Q 204 28 218 38 Q 222 42 220 45 Q 219 47 214 47 Q 160 48 154 48" fill="#CCCCCC"/><path d="M 73 125 L 49 124 Q 42 124 48 121 Q 96 95 121 73 L 128 66 Q 128 65 128 65 Q 136 56 140 49 L 154 48 Q 160 51 160 54 Q 160 57 157 59 Q 151 64 139 75 L 123 88" fill="#CCCCCC"/><path d="M 121 73 Q 120 72 120 71 Q 119 67 121 65 Q 123 64 126 65 Q 127 66 128 66 L 139 75 Q 138 89 137 103 Q 137 123 133 129 Q 131 132 128 129 Q 122 122 123 114 Q 124 99 123 88" fill="#CCCCCC"/><path d="M 160 86 L 160 83 Q 159 80 162 81 Q 208 87 215 101 Q 221 112 219 116 Q 218 119 215 119 Q 211 119 205 115 Q 182 99 163 89" fill="#CCCCCC"/><path d="M 121 145 Q 112 146 105 148 Q 94 149 86 143 Q 82 138 88 138 Q 100 137 110 137 Q 111 136 153 131 Q 176 125 183 131 Q 188 134 188 137 Q 185 139 183 139 Q 150 141 133 144" fill="#CCCCCC"/><path d="M 126 215 Q 125 189 125 176 Q 124 150 121 145 L 133 144 Q 137 146 141 150 Q 141 150 141 151 Q 141 151 140 174 L 140 182 Q 139 197 138 214" fill="#CCCCCC"/><path d="M 140 174 Q 167 165 178 167 Q 186 169 189 173 Q 191 177 184 178 Q 168 179 145 182 Q 142 182 140 182" fill="#CCCCCC"/><path d="M 78 178 L 71 169 Q 69 165 71 163 Q 74 161 78 162 Q 85 164 91 169 Q 95 172 95 178 Q 93 188 95 217 L 84 218" fill="#CCCCCC"/><path d="M 95 217 Q 109 216 126 215 L 138 214 Q 160 212 186 210 Q 202 209 214 206 Q 221 204 224 206 Q 236 211 244 219 Q 247 223 245 226 Q 243 228 237 227 Q 199 222 170 223 Q 79 227 47 238 Q 39 241 27 231 Q 22 227 22 224 Q 22 221 26 221 Q 29 221 84 218" fill="#CCCCCC"/><path d="M 140 49 Q 107 51 78 58 Q 73 59 68 58 Q 63 56 60 53 Q 56 48 61 48 Q 156 37 194 30 Q 204 28 218 38 Q 222 42 220 45 Q 219 47 214 47 Q 160 48 154 48" fill="#000080" clip-path="url(#clip-mask-1)" /><path d="M 73 125 L 49 124 Q 42 124 48 121 Q 96 95 121 73 L 128 66 Q 128 65 128 65 Q 136 56 140 49 L 154 48 Q 160 51 160 54 Q 160 57 157 59 Q 151 64 139 75 L 123 88" fill="#000080" clip-path="url(#clip-mask-2)" /><path d="M 121 73 Q 120 72 120 71 Q 119 67 121 65 Q 123 64 126 65 Q 127 66 128 66 L 139 75 Q 138 89 137 103 Q 137 123 133 129 Q 131 132 128 129 Q 122 122 123 114 Q 124 99 123 88" fill="#000080" clip-path="url(#clip-mask-3)" /><path d="M 160 86 L 160 83 Q 159 80 162 81 Q 208 87 215 101 Q 221 112 219 116 Q 218 119 215 119 Q 211 119 205 115 Q 182 99 163 89" fill="#000080" clip-path="url(#clip-mask-4)" /><path d="M 121 145 Q 112 146 105 148 Q 94 149 86 143 Q 82 138 88 138 Q 100 137 110 137 Q 111 136 153 131 Q 176 125 183 131 Q 188 134 188 137 Q 185 139 183 139 Q 150 141 133 144" fill="#000080" clip-path="url(#clip-mask-5)" /><path d="M 126 215 Q 125 189 125 176 Q 124 150 121 145 L 133 144 Q 137 146 141 150 Q 141 150 141 151 Q 141 151 140 174 L 140 182 Q 139 197 138 214" fill="#0000ff" clip-path="url(#clip-mask-6)" /><path d="M 140 174 Q 167 165 178 167 Q 186 169 189 173 Q 191 177 184 178 Q 168 179 145 182 Q 142 182 140 182" fill="#0000ff" clip-path="url(#clip-mask-7)" /><path d="M 78 178 L 71 169 Q 69 165 71 163 Q 74 161 78 162 Q 85 164 91 169 Q 95 172 95 178 Q 93 188 95 217 L 84 218" fill="#0000ff" clip-path="url(#clip-mask-8)" /><path d="M 95 217 Q 109 216 126 215 L 138 214 Q 160 212 186 210 Q 202 209 214 206 Q 221 204 224 206 Q 236 211 244 219 Q 247 223 245 226 Q 243 228 237 227 Q 199 222 170 223 Q 79 227 47 238 Q 39 241 27 231 Q 22 227 22 224 Q 22 221 26 221 Q 29 221 84 218" fill="#0000ff" clip-path="url(#clip-mask-9)" /><rect x="56" y="28" width="166" height="31" id="rect-1" fill="transparent" stroke="#000000"><animate attributeName="x" from="-110" to="56" dur="0.615" begin="0; animate9.end + 1s" id="animate1" fill="freeze"/></rect><rect x="42" y="48" width="118" height="77" id="rect-2" fill="transparent" stroke="#000000"><set attributeName="y" to="-29" begin="0; animate9.end + 1s" /><animate attributeName="y" from="-29" to="48" dur="0.285" begin="animate1.end + 0.5" id="animate2" fill="freeze"/></rect><rect x="119" y="64" width="20" height="68" id="rect-3" fill="transparent" stroke="#000000"><set attributeName="y" to="-4" begin="0; animate9.end + 1s" /><animate attributeName="y" from="-4" to="64" dur="0.252" begin="animate2.end + 0.5" id="animate3" fill="freeze"/></rect><rect x="159" y="80" width="62" height="39" id="rect-4" fill="transparent" stroke="#000000"><set attributeName="x" to="97" begin="0; animate9.end + 1s" /><animate attributeName="x" from="97" to="159" dur="0.230" begin="animate3.end + 0.5" id="animate4" fill="freeze"/></rect><rect x="82" y="125" width="106" height="24" id="rect-5" fill="transparent" stroke="#000000"><set attributeName="x" to="-24" begin="0; animate9.end + 1s" /><animate attributeName="x" from="-24" to="82" dur="0.393" begin="animate4.end + 0.5" id="animate5" fill="freeze"/></rect><rect x="121" y="144" width="20" height="71" id="rect-6" fill="transparent" stroke="#000000"><set attributeName="y" to="73" begin="0; animate9.end + 1s" /><animate attributeName="y" from="73" to="144" dur="0.263" begin="animate5.end + 0.5" id="animate6" fill="freeze"/></rect><rect x="140" y="165" width="51" height="17" id="rect-7" fill="transparent" stroke="#000000"><set attributeName="x" to="89" begin="0; animate9.end + 1s" /><animate attributeName="x" from="89" to="140" dur="0.189" begin="animate6.end + 0.5" id="animate7" fill="freeze"/></rect><rect x="69" y="161" width="26" height="57" id="rect-8" fill="transparent" stroke="#000000"><set attributeName="y" to="104" begin="0; animate9.end + 1s" /><animate attributeName="y" from="104" to="161" dur="0.211" begin="animate7.end + 0.5" id="animate8" fill="freeze"/></rect><rect x="22" y="204" width="225" height="37" id="rect-9" fill="transparent" stroke="#000000"><set attributeName="x" to="-203" begin="0; animate9.end + 1s" /><animate attributeName="x" from="-203" to="22" dur="0.833" begin="animate8.end + 0.5" id="animate9" fill="freeze"/></rect></svg>