<svg xmlns="http://www.w3.org/2000/svg" xmlns:xlink="http://www.w3.org/1999/xlink" width="270" height="270"><defs><clipPath id="clip-mask-1"><use xlink:href="#rect-1" /></clipPath><clipPath id="clip-mask-2"><use xlink:href="#rect-2" /></clipPath><clipPath id="clip-mask-3"><use xlink:href="#rect-3" /></clipPath><clipPath id="clip-mask-4"><use xlink:href="#rect-4" /></clipPath><clipPath id="clip-mask-5"><use xlink:href="#rect-5" /></clipPath><clipPath id="clip-mask-6"><use xlink:href="#rect-6" /></clipPath></defs><path d="M 0 0 L 270 270 M 270 0 L 0 270 M 135 0 L 135 270 M 0 135 L 270 135" stroke="#CCCCCC" /><path d="M 129 116 Q 128 161 131 205 Q 131 227 126 240 Q 121 250 117 249 Q 113 249 108 240 L 109 213 Q 112 211 113 205 Q 116 58 115 48 Q 115 38 108 30 Q 104 23 109 21 Q 115 19 124 25 Q 140 32 135 40 Q 129 62 129 106" fill="#CCCCCC"/><path d="M 108 240 Q 104 232 87 218 Q 81 214 80 211 Q 80 208 89 212 Q 108 214 109 213" fill="#CCCCCC"/><path d="M 58 103 L 75 97 Q 86 92 92 94 Q 103 98 106 101 Q 108 104 104 107 L 78 108 Q 76 108 52 116 Q 45 120 32 113 Q 28 111 28 109 Q 28 107 32 107" fill="#CCCCCC"/><path d="M 104 107 Q 101 110 98 117 Q 79 160 63 177 Q 47 195 27 206 Q 21 209 19 208 Q 16 208 20 204 Q 42 186 54 167 Q 66 150 79 116 Q 82 109 78 108" fill="#CCCCCC"/><path d="M 150 105 L 160 94 Q 179 71 177 62 Q 176 58 180 57 Q 184 56 191 60 Q 200 65 204 70 Q 207 75 201 79 Q 193 82 188 87 Q 160 109 143 121 L 139 118" fill="#CCCCCC"/><path d="M 143 121 Q 169 146 188 160 Q 200 169 244 183 Q 253 186 253 188 Q 253 190 245 191 Q 227 194 207 197 Q 191 198 129 116 L 129 106 Q 134 112 139 118" fill="#CCCCCC"/><path d="M 129 116 Q 128 161 131 205 Q 131 227 126 240 Q 121 250 117 249 Q 113 249 108 240 L 109 213 Q 112 211 113 205 Q 116 58 115 48 Q 115 38 108 30 Q 104 23 109 21 Q 115 19 124 25 Q 140 32 135 40 Q 129 62 129 106" fill="#0000ff" clip-path="url(#clip-mask-1)" /><path d="M 108 240 Q 104 232 87 218 Q 81 214 80 211 Q 80 208 89 212 Q 108 214 109 213" fill="#0000ff" clip-path="url(#clip-mask-2)" /><path d="M 58 103 L 75 97 Q 86 92 92 94 Q 103 98 106 101 Q 108 104 104 107 L 78 108 Q 76 108 52 116 Q 45 120 32 113 Q 28 111 28 109 Q 28 107 32 107" fill="#0000ff" clip-path="url(#clip-mask-3)" /><path d="M 104 107 Q 101 110 98 117 Q 79 160 63 177 Q 47 195 27 206 Q 21 209 19 208 Q 16 208 20 204 Q 42 186 54 167 Q 66 150 79 116 Q 82 109 78 108" fill="#0000ff" clip-path="url(#clip-mask-4)" /><path d="M 150 105 L 160 94 Q 179 71 177 62 Q 176 58 180 57 Q 184 56 191 60 Q 200 65 204 70 Q 207 75 201 79 Q 193 82 188 87 Q 160 109 143 121 L 139 118" fill="#0000ff" clip-path="url(#clip-mask-5)" /><path d="M 143 121 Q 169 146 188 160 Q 200 169 244 183 Q 253 186 253 188 Q 253 190 245 191 Q 227 194 207 197 Q 191 198 129 116 L 129 106 Q 134 112 139 118" fill="#0000ff" clip-path="url(#clip-mask-6)" /><rect x="104" y="19" width="36" height="231" id="rect-1" fill="transparent" stroke="#000000"><animate attributeName="y" from="-212" to="19" dur="0.856" begin="0; animate6.end + 1s" id="animate1" fill="freeze"/></rect><rect x="80" y="208" width="29" height="32" id="rect-2" fill="transparent" stroke="#000000"><set attributeName="x" to="109" begin="0; animate6.end + 1s" /><animate attributeName="x" from="109" to="80" dur="0.107" begin="animate1.end" id="animate2" fill="freeze"/></rect><rect x="28" y="92" width="80" height="28" id="rect-3" fill="transparent" stroke="#000000"><set attributeName="x" to="-52" begin="0; animate6.end + 1s" /><animate attributeName="x" from="-52" to="28" dur="0.296" begin="animate2.end + 0.5" id="animate3" fill="freeze"/></rect><rect x="16" y="107" width="88" height="102" id="rect-4" fill="transparent" stroke="#000000"><set attributeName="y" to="5" begin="0; animate6.end + 1s" /><animate attributeName="y" from="5" to="107" dur="0.378" begin="animate3.end" id="animate4" fill="freeze"/></rect><rect x="139" y="56" width="68" height="65" id="rect-5" fill="transparent" stroke="#000000"><set attributeName="y" to="-9" begin="0; animate6.end + 1s" /><animate attributeName="y" from="-9" to="56" dur="0.241" begin="animate4.end + 0.5" id="animate5" fill="freeze"/></rect><rect x="129" y="106" width="124" height="92" id="rect-6" fill="transparent" stroke="#000000"><set attributeName="x" to="5" begin="0; animate6.end + 1s" /><animate attributeName="x" from="5" to="129" dur="0.459" begin="animate5.end + 0.5" id="animate6" fill="freeze"/></rect></svg>