<svg xmlns="http://www.w3.org/2000/svg" xmlns:xlink="http://www.w3.org/1999/xlink" width="270" height="270"><defs><clipPath id="clip-mask-1"><use xlink:href="#rect-1" /></clipPath><clipPath id="clip-mask-2"><use xlink:href="#rect-2" /></clipPath><clipPath id="clip-mask-3"><use xlink:href="#rect-3" /></clipPath><clipPath id="clip-mask-4"><use xlink:href="#rect-4" /></clipPath><clipPath id="clip-mask-5"><use xlink:href="#rect-5" /></clipPath><clipPath id="clip-mask-6"><use xlink:href="#rect-6" /></clipPath><clipPath id="clip-mask-7"><use xlink:href="#rect-7" /></clipPath><clipPath id="clip-mask-8"><use xlink:href="#rect-8" /></clipPath></defs><path d="M 0 0 L 270 270 M 270 0 L 0 270 M 135 0 L 135 270 M 0 135 L 270 135" stroke="#CCCCCC" /><path d="M 56 61 L 55 58 Q 54 54 56 53 Q 57 52 62 53 Q 86 58 89 66 Q 91 75 90 79 Q 89 83 85 83 Q 81 84 77 80 Q 70 73 64 67" fill="#CCCCCC"/><path d="M 31 116 L 31 112 Q 30 109 32 108 Q 33 108 35 108 Q 47 108 57 114 Q 62 117 64 124 Q 65 129 64 132 Q 61 136 57 136 Q 47 132 36 120" fill="#CCCCCC"/><path d="M 37 204 L 41 198 Q 73 146 76 145 Q 78 143 78 146 Q 78 147 77 152 Q 49 224 47 235 Q 47 242 45 242 Q 42 243 40 241 Q 32 236 27 216 Q 27 211 30 210" fill="#CCCCCC"/><path d="M 138 110 Q 130 112 123 114 Q 113 117 106 114 Q 101 112 100 110 Q 99 107 104 107 Q 122 104 139 101 L 152 98 Q 162 95 172 91 Q 187 83 208 99 L 181 104 Q 179 101 172 103 Q 162 105 151 108" fill="#CCCCCC"/><path d="M 176 141 Q 180 128 183 112 Q 184 107 181 104 L 208 99 Q 212 104 207 109 Q 199 116 191 137" fill="#CCCCCC"/><path d="M 131 158 Q 118 161 108 163 Q 93 166 86 160 Q 82 155 88 155 Q 111 150 133 148 L 147 146 Q 152 144 176 141 L 191 137 Q 196 136 201 135 Q 217 129 233 140 Q 238 144 236 147 Q 234 150 219 150 Q 165 151 145 156" fill="#CCCCCC"/><path d="M 131 222 L 91 235 Q 81 239 77 238 Q 73 238 73 237 Q 73 236 91 223 Q 123 198 131 158 L 133 148 Q 136 132 138 110 L 139 101 Q 141 79 141 56 Q 141 43 135 33 Q 133 29 136 27 Q 138 25 145 28 Q 156 31 162 37 Q 165 40 163 44 Q 156 60 152 98 L 151 108 Q 150 120 149 132 Q 148 139 147 146 L 145 156 L 143 165" fill="#CCCCCC"/><path d="M 145 156 Q 159 173 181 196 Q 197 212 236 231 Q 243 235 242 237 Q 243 239 236 239 Q 221 241 204 244 Q 189 243 143 165" fill="#CCCCCC"/><path d="M 56 61 L 55 58 Q 54 54 56 53 Q 57 52 62 53 Q 86 58 89 66 Q 91 75 90 79 Q 89 83 85 83 Q 81 84 77 80 Q 70 73 64 67" fill="#0000ff" clip-path="url(#clip-mask-1)" /><path d="M 31 116 L 31 112 Q 30 109 32 108 Q 33 108 35 108 Q 47 108 57 114 Q 62 117 64 124 Q 65 129 64 132 Q 61 136 57 136 Q 47 132 36 120" fill="#0000ff" clip-path="url(#clip-mask-2)" /><path d="M 37 204 L 41 198 Q 73 146 76 145 Q 78 143 78 146 Q 78 147 77 152 Q 49 224 47 235 Q 47 242 45 242 Q 42 243 40 241 Q 32 236 27 216 Q 27 211 30 210" fill="#0000ff" clip-path="url(#clip-mask-3)" /><path d="M 138 110 Q 130 112 123 114 Q 113 117 106 114 Q 101 112 100 110 Q 99 107 104 107 Q 122 104 139 101 L 152 98 Q 162 95 172 91 Q 187 83 208 99 L 181 104 Q 179 101 172 103 Q 162 105 151 108" fill="#000080" clip-path="url(#clip-mask-4)" /><path d="M 176 141 Q 180 128 183 112 Q 184 107 181 104 L 208 99 Q 212 104 207 109 Q 199 116 191 137" fill="#000080" clip-path="url(#clip-mask-5)" /><path d="M 131 158 Q 118 161 108 163 Q 93 166 86 160 Q 82 155 88 155 Q 111 150 133 148 L 147 146 Q 152 144 176 141 L 191 137 Q 196 136 201 135 Q 217 129 233 140 Q 238 144 236 147 Q 234 150 219 150 Q 165 151 145 156" fill="#000080" clip-path="url(#clip-mask-6)" /><path d="M 131 222 L 91 235 Q 81 239 77 238 Q 73 238 73 237 Q 73 236 91 223 Q 123 198 131 158 L 133 148 Q 136 132 138 110 L 139 101 Q 141 79 141 56 Q 141 43 135 33 Q 133 29 136 27 Q 138 25 145 28 Q 156 31 162 37 Q 165 40 163 44 Q 156 60 152 98 L 151 108 Q 150 120 149 132 Q 148 139 147 146 L 145 156 L 143 165" fill="#000080" clip-path="url(#clip-mask-7)" /><path d="M 145 156 Q 159 173 181 196 Q 197 212 236 231 Q 243 235 242 237 Q 243 239 236 239 Q 221 241 204 244 Q 189 243 143 165" fill="#000080" clip-path="url(#clip-mask-8)" /><rect x="54" y="52" width="37" height="32" id="rect-1" fill="transparent" stroke="#000000"><animate attributeName="x" from="17" to="54" dur="0.137" begin="0; animate8.end + 1s" id="animate1" fill="freeze"/></rect><rect x="30" y="108" width="35" height="28" id="rect-2" fill="transparent" stroke="#000000"><set attributeName="x" to="-5" begin="0; animate8.end + 1s" /><animate attributeName="x" from="-5" to="30" dur="0.130" begin="animate1.end + 0.5" id="animate2" fill="freeze"/></rect><rect x="27" y="143" width="51" height="100" id="rect-3" fill="transparent" stroke="#000000"><set attributeName="y" to="243" begin="0; animate8.end + 1s" /><animate attributeName="y" from="243" to="143" dur="0.370" begin="animate2.end + 0.5" id="animate3" fill="freeze"/></rect><rect x="99" y="83" width="109" height="34" id="rect-4" fill="transparent" stroke="#000000"><set attributeName="x" to="-10" begin="0; animate8.end + 1s" /><animate attributeName="x" from="-10" to="99" dur="0.404" begin="animate3.end + 0.5" id="animate4" fill="freeze"/></rect><rect x="176" y="99" width="36" height="42" id="rect-5" fill="transparent" stroke="#000000"><set attributeName="y" to="57" begin="0; animate8.end + 1s" /><animate attributeName="y" from="57" to="99" dur="0.156" begin="animate4.end" id="animate5" fill="freeze"/></rect><rect x="82" y="129" width="156" height="37" id="rect-6" fill="transparent" stroke="#000000"><set attributeName="x" to="-74" begin="0; animate8.end + 1s" /><animate attributeName="x" from="-74" to="82" dur="0.578" begin="animate5.end + 0.5" id="animate6" fill="freeze"/></rect><rect x="73" y="25" width="92" height="214" id="rect-7" fill="transparent" stroke="#000000"><set attributeName="y" to="-189" begin="0; animate8.end + 1s" /><animate attributeName="y" from="-189" to="25" dur="0.793" begin="animate6.end + 0.5" id="animate7" fill="freeze"/></rect><rect x="143" y="156" width="100" height="88" id="rect-8" fill="transparent" stroke="#000000"><set attributeName="x" to="43" begin="0; animate8.end + 1s" /><animate attributeName="x" from="43" to="143" dur="0.370" begin="animate7.end + 0.5" id="animate8" fill="freeze"/></rect></svg>