<svg xmlns="http://www.w3.org/2000/svg" xmlns:xlink="http://www.w3.org/1999/xlink" width="270" height="270"><defs><clipPath id="clip-mask-1"><use xlink:href="#rect-1" /></clipPath><clipPath id="clip-mask-2"><use xlink:href="#rect-2" /></clipPath><clipPath id="clip-mask-3"><use xlink:href="#rect-3" /></clipPath><clipPath id="clip-mask-4"><use xlink:href="#rect-4" /></clipPath><clipPath id="clip-mask-5"><use xlink:href="#rect-5" /></clipPath><clipPath id="clip-mask-6"><use xlink:href="#rect-6" /></clipPath><clipPath id="clip-mask-7"><use xlink:href="#rect-7" /></clipPath><clipPath id="clip-mask-8"><use xlink:href="#rect-8" /></clipPath><clipPath id="clip-mask-9"><use xlink:href="#rect-9" /></clipPath><clipPath id="clip-mask-10"><use xlink:href="#rect-10" /></clipPath></defs><path d="M 0 0 L 270 270 M 270 0 L 0 270 M 135 0 L 135 270 M 0 135 L 270 135" stroke="#CCCCCC" /><path d="M 53 47 L 52 43 Q 51 39 53 38 Q 56 37 76 44 Q 84 47 86 52 Q 89 62 87 66 Q 85 70 82 70 Q 77 70 73 66 Q 66 59 61 54" fill="#CCCCCC"/><path d="M 25 97 L 25 94 Q 24 90 26 90 Q 28 89 32 90 Q 40 90 51 97 Q 57 100 58 107 Q 59 112 57 116 Q 55 120 50 119 Q 42 116 30 101" fill="#CCCCCC"/><path d="M 38 192 L 41 187 Q 74 139 78 136 Q 80 135 80 138 Q 80 139 79 144 Q 49 213 47 224 Q 46 231 44 231 Q 41 232 39 230 Q 30 224 27 203 Q 27 198 30 198" fill="#CCCCCC"/><path d="M 133 65 L 132 68 Q 122 91 101 111 Q 95 117 89 119 Q 85 120 87 116 Q 97 101 99 101 Q 127 62 121 34 Q 120 30 123 29 Q 129 27 143 35 Q 147 39 144 43 Q 141 49 137 56 L 134 63" fill="#CCCCCC"/><path d="M 137 56 Q 169 51 177 45 Q 182 42 187 44 Q 199 50 202 53 Q 203 56 200 59 L 178 57 Q 176 54 146 64 Q 138 66 134 63" fill="#CCCCCC"/><path d="M 200 59 Q 194 65 190 82 Q 180 111 168 116 Q 164 119 160 115 L 159 95 Q 167 97 173 89 Q 177 82 178 65 Q 179 59 178 57" fill="#CCCCCC"/><path d="M 160 115 Q 157 106 147 96 Q 143 90 149 92 Q 154 94 159 95" fill="#CCCCCC"/><path d="M 157 142 Q 156 136 152 138 Q 141 141 130 144 Q 119 147 112 144 Q 107 141 110 139 Q 113 138 120 137 Q 139 133 153 125 Q 159 123 165 125 Q 173 128 179 133 Q 183 137 179 141" fill="#CCCCCC"/><path d="M 124 220 L 86 224 Q 78 225 76 224 Q 74 221 78 220 Q 113 211 135 194 L 142 185 Q 157 164 157 142 L 179 141 Q 174 145 172 155 Q 164 178 153 193 Q 152 193 152 194 L 143 204" fill="#CCCCCC"/><path d="M 135 194 Q 111 166 98 158 Q 93 155 94 153 Q 95 152 99 152 Q 109 152 119 163 Q 130 175 142 185 L 152 194 Q 153 194 154 195 Q 177 213 216 226 Q 243 233 244 235 Q 245 238 234 239 Q 216 242 187 242 Q 176 240 143 204" fill="#CCCCCC"/><path d="M 53 47 L 52 43 Q 51 39 53 38 Q 56 37 76 44 Q 84 47 86 52 Q 89 62 87 66 Q 85 70 82 70 Q 77 70 73 66 Q 66 59 61 54" fill="#0000ff" clip-path="url(#clip-mask-1)" /><path d="M 25 97 L 25 94 Q 24 90 26 90 Q 28 89 32 90 Q 40 90 51 97 Q 57 100 58 107 Q 59 112 57 116 Q 55 120 50 119 Q 42 116 30 101" fill="#0000ff" clip-path="url(#clip-mask-2)" /><path d="M 38 192 L 41 187 Q 74 139 78 136 Q 80 135 80 138 Q 80 139 79 144 Q 49 213 47 224 Q 46 231 44 231 Q 41 232 39 230 Q 30 224 27 203 Q 27 198 30 198" fill="#0000ff" clip-path="url(#clip-mask-3)" /><path d="M 133 65 L 132 68 Q 122 91 101 111 Q 95 117 89 119 Q 85 120 87 116 Q 97 101 99 101 Q 127 62 121 34 Q 120 30 123 29 Q 129 27 143 35 Q 147 39 144 43 Q 141 49 137 56 L 134 63" fill="#000080" clip-path="url(#clip-mask-4)" /><path d="M 137 56 Q 169 51 177 45 Q 182 42 187 44 Q 199 50 202 53 Q 203 56 200 59 L 178 57 Q 176 54 146 64 Q 138 66 134 63" fill="#000080" clip-path="url(#clip-mask-5)" /><path d="M 200 59 Q 194 65 190 82 Q 180 111 168 116 Q 164 119 160 115 L 159 95 Q 167 97 173 89 Q 177 82 178 65 Q 179 59 178 57" fill="#000080" clip-path="url(#clip-mask-6)" /><path d="M 160 115 Q 157 106 147 96 Q 143 90 149 92 Q 154 94 159 95" fill="#000080" clip-path="url(#clip-mask-7)" /><path d="M 157 142 Q 156 136 152 138 Q 141 141 130 144 Q 119 147 112 144 Q 107 141 110 139 Q 113 138 120 137 Q 139 133 153 125 Q 159 123 165 125 Q 173 128 179 133 Q 183 137 179 141" fill="#000080" clip-path="url(#clip-mask-8)" /><path d="M 124 220 L 86 224 Q 78 225 76 224 Q 74 221 78 220 Q 113 211 135 194 L 142 185 Q 157 164 157 142 L 179 141 Q 174 145 172 155 Q 164 178 153 193 Q 152 193 152 194 L 143 204" fill="#000080" clip-path="url(#clip-mask-9)" /><path d="M 135 194 Q 111 166 98 158 Q 93 155 94 153 Q 95 152 99 152 Q 109 152 119 163 Q 130 175 142 185 L 152 194 Q 153 194 154 195 Q 177 213 216 226 Q 243 233 244 235 Q 245 238 234 239 Q 216 242 187 242 Q 176 240 143 204" fill="#000080" clip-path="url(#clip-mask-10)" /><rect x="51" y="37" width="38" height="33" id="rect-1" fill="transparent" stroke="#000000"><animate attributeName="x" from="13" to="51" dur="0.141" begin="0; animate10.end + 1s" id="animate1" fill="freeze"/></rect><rect x="24" y="89" width="35" height="31" id="rect-2" fill="transparent" stroke="#000000"><set attributeName="x" to="-11" begin="0; animate10.end + 1s" /><animate attributeName="x" from="-11" to="24" dur="0.130" begin="animate1.end + 0.5" id="animate2" fill="freeze"/></rect><rect x="27" y="135" width="53" height="97" id="rect-3" fill="transparent" stroke="#000000"><set attributeName="y" to="232" begin="0; animate10.end + 1s" /><animate attributeName="y" from="232" to="135" dur="0.359" begin="animate2.end + 0.5" id="animate3" fill="freeze"/></rect><rect x="85" y="27" width="62" height="93" id="rect-4" fill="transparent" stroke="#000000"><set attributeName="y" to="-66" begin="0; animate10.end + 1s" /><animate attributeName="y" from="-66" to="27" dur="0.344" begin="animate3.end + 0.5" id="animate4" fill="freeze"/></rect><rect x="134" y="42" width="69" height="24" id="rect-5" fill="transparent" stroke="#000000"><set attributeName="x" to="65" begin="0; animate10.end + 1s" /><animate attributeName="x" from="65" to="134" dur="0.256" begin="animate4.end + 0.5" id="animate5" fill="freeze"/></rect><rect x="159" y="57" width="41" height="62" id="rect-6" fill="transparent" stroke="#000000"><set attributeName="y" to="-5" begin="0; animate10.end + 1s" /><animate attributeName="y" from="-5" to="57" dur="0.230" begin="animate5.end" id="animate6" fill="freeze"/></rect><rect x="143" y="90" width="17" height="25" id="rect-7" fill="transparent" stroke="#000000"><set attributeName="x" to="160" begin="0; animate10.end + 1s" /><animate attributeName="x" from="160" to="143" dur="0.063" begin="animate6.end" id="animate7" fill="freeze"/></rect><rect x="107" y="123" width="76" height="24" id="rect-8" fill="transparent" stroke="#000000"><set attributeName="x" to="31" begin="0; animate10.end + 1s" /><animate attributeName="x" from="31" to="107" dur="0.281" begin="animate7.end + 0.5" id="animate8" fill="freeze"/></rect><rect x="74" y="141" width="105" height="84" id="rect-9" fill="transparent" stroke="#000000"><set attributeName="y" to="57" begin="0; animate10.end + 1s" /><animate attributeName="y" from="57" to="141" dur="0.311" begin="animate8.end" id="animate9" fill="freeze"/></rect><rect x="93" y="152" width="152" height="90" id="rect-10" fill="transparent" stroke="#000000"><set attributeName="x" to="-59" begin="0; animate10.end + 1s" /><animate attributeName="x" from="-59" to="93" dur="0.563" begin="animate9.end + 0.5" id="animate10" fill="freeze"/></rect></svg>