<svg xmlns="http://www.w3.org/2000/svg" xmlns:xlink="http://www.w3.org/1999/xlink" width="270" height="270"><defs><clipPath id="clip-mask-1"><use xlink:href="#rect-1" /></clipPath><clipPath id="clip-mask-2"><use xlink:href="#rect-2" /></clipPath><clipPath id="clip-mask-3"><use xlink:href="#rect-3" /></clipPath><clipPath id="clip-mask-4"><use xlink:href="#rect-4" /></clipPath><clipPath id="clip-mask-5"><use xlink:href="#rect-5" /></clipPath><clipPath id="clip-mask-6"><use xlink:href="#rect-6" /></clipPath><clipPath id="clip-mask-7"><use xlink:href="#rect-7" /></clipPath><clipPath id="clip-mask-8"><use xlink:href="#rect-8" /></clipPath><clipPath id="clip-mask-9"><use xlink:href="#rect-9" /></clipPath><clipPath id="clip-mask-10"><use xlink:href="#rect-10" /></clipPath></defs><path d="M 0 0 L 270 270 M 270 0 L 0 270 M 135 0 L 135 270 M 0 135 L 270 135" stroke="#CCCCCC" /><path d="M 49 59 L 48 56 Q 48 51 49 50 Q 51 50 56 51 Q 79 57 81 64 Q 83 74 81 78 Q 80 82 76 82 Q 72 82 68 78 Q 62 71 57 66" fill="#CCCCCC"/><path d="M 25 107 L 25 104 Q 24 100 26 100 Q 26 99 28 99 Q 39 99 51 108 Q 56 111 57 118 Q 58 124 56 127 Q 53 131 49 130 Q 39 125 29 112" fill="#CCCCCC"/><path d="M 33 194 L 36 188 Q 69 138 73 136 Q 76 135 76 137 Q 76 139 74 143 Q 44 209 41 225 Q 40 232 38 232 Q 35 232 34 231 Q 25 225 22 205 Q 21 200 25 199" fill="#CCCCCC"/><path d="M 142 94 Q 139 94 113 102 L 110 91 Q 128 87 142 85 L 156 81 Q 170 77 187 72 Q 195 70 201 72 Q 221 82 221 86 L 189 86 Q 188 83 180 84 Q 167 87 155 91" fill="#CCCCCC"/><path d="M 221 86 Q 222 90 215 91 Q 207 93 187 107 Q 184 110 182 109 Q 180 108 182 104 Q 189 90 189 86" fill="#CCCCCC"/><path d="M 113 102 Q 112 103 111 115 Q 106 167 93 196 Q 90 201 88 207 Q 70 236 63 237 Q 60 237 60 235 Q 61 233 62 232 Q 79 205 86 181 Q 95 154 96 116 Q 96 114 96 112 Q 96 96 92 90 Q 90 86 93 85 Q 98 83 110 91" fill="#CCCCCC"/><path d="M 141 141 Q 142 116 142 94 L 142 85 Q 142 65 141 46 Q 141 39 135 30 Q 133 26 134 24 Q 137 22 141 23 Q 147 24 157 29 Q 162 33 161 36 Q 156 58 156 81 L 155 91 Q 154 113 153 138" fill="#CCCCCC"/><path d="M 162 144 Q 151 147 140 150 Q 129 153 122 150 Q 118 147 120 145 Q 121 145 141 141 L 153 138 Q 159 135 164 132 Q 170 130 176 131 Q 185 135 190 139" fill="#CCCCCC"/><path d="M 156 188 Q 168 167 168 149 Q 168 143 162 144 L 190 139 Q 195 144 191 148 Q 185 152 183 161 Q 177 183 167 197 L 159 207 Q 151 216 141 221 Q 127 227 103 230 Q 95 231 94 230 Q 91 227 95 226 Q 130 216 145 203 Q 147 200 150 197" fill="#CCCCCC"/><path d="M 142 187 L 133 178 Q 127 169 116 164 Q 114 163 115 162 Q 116 159 122 159 Q 127 159 131 164 Q 145 177 156 188 L 167 197 Q 171 200 175 203 Q 202 223 245 235 Q 248 236 247 238 Q 244 241 205 247 Q 197 247 193 243 Q 177 227 159 207 L 150 197" fill="#CCCCCC"/><path d="M 49 59 L 48 56 Q 48 51 49 50 Q 51 50 56 51 Q 79 57 81 64 Q 83 74 81 78 Q 80 82 76 82 Q 72 82 68 78 Q 62 71 57 66" fill="#0000ff" clip-path="url(#clip-mask-1)" /><path d="M 25 107 L 25 104 Q 24 100 26 100 Q 26 99 28 99 Q 39 99 51 108 Q 56 111 57 118 Q 58 124 56 127 Q 53 131 49 130 Q 39 125 29 112" fill="#0000ff" clip-path="url(#clip-mask-2)" /><path d="M 33 194 L 36 188 Q 69 138 73 136 Q 76 135 76 137 Q 76 139 74 143 Q 44 209 41 225 Q 40 232 38 232 Q 35 232 34 231 Q 25 225 22 205 Q 21 200 25 199" fill="#0000ff" clip-path="url(#clip-mask-3)" /><path d="M 142 94 Q 139 94 113 102 L 110 91 Q 128 87 142 85 L 156 81 Q 170 77 187 72 Q 195 70 201 72 Q 221 82 221 86 L 189 86 Q 188 83 180 84 Q 167 87 155 91" fill="#000080" clip-path="url(#clip-mask-4)" /><path d="M 221 86 Q 222 90 215 91 Q 207 93 187 107 Q 184 110 182 109 Q 180 108 182 104 Q 189 90 189 86" fill="#000080" clip-path="url(#clip-mask-5)" /><path d="M 113 102 Q 112 103 111 115 Q 106 167 93 196 Q 90 201 88 207 Q 70 236 63 237 Q 60 237 60 235 Q 61 233 62 232 Q 79 205 86 181 Q 95 154 96 116 Q 96 114 96 112 Q 96 96 92 90 Q 90 86 93 85 Q 98 83 110 91" fill="#000080" clip-path="url(#clip-mask-6)" /><path d="M 141 141 Q 142 116 142 94 L 142 85 Q 142 65 141 46 Q 141 39 135 30 Q 133 26 134 24 Q 137 22 141 23 Q 147 24 157 29 Q 162 33 161 36 Q 156 58 156 81 L 155 91 Q 154 113 153 138" fill="#000080" clip-path="url(#clip-mask-7)" /><path d="M 162 144 Q 151 147 140 150 Q 129 153 122 150 Q 118 147 120 145 Q 121 145 141 141 L 153 138 Q 159 135 164 132 Q 170 130 176 131 Q 185 135 190 139" fill="#000080" clip-path="url(#clip-mask-8)" /><path d="M 156 188 Q 168 167 168 149 Q 168 143 162 144 L 190 139 Q 195 144 191 148 Q 185 152 183 161 Q 177 183 167 197 L 159 207 Q 151 216 141 221 Q 127 227 103 230 Q 95 231 94 230 Q 91 227 95 226 Q 130 216 145 203 Q 147 200 150 197" fill="#000080" clip-path="url(#clip-mask-9)" /><path d="M 142 187 L 133 178 Q 127 169 116 164 Q 114 163 115 162 Q 116 159 122 159 Q 127 159 131 164 Q 145 177 156 188 L 167 197 Q 171 200 175 203 Q 202 223 245 235 Q 248 236 247 238 Q 244 241 205 247 Q 197 247 193 243 Q 177 227 159 207 L 150 197" fill="#000080" clip-path="url(#clip-mask-10)" /><rect x="48" y="50" width="35" height="32" id="rect-1" fill="transparent" stroke="#000000"><animate attributeName="x" from="13" to="48" dur="0.130" begin="0; animate10.end + 1s" id="animate1" fill="freeze"/></rect><rect x="24" y="99" width="34" height="32" id="rect-2" fill="transparent" stroke="#000000"><set attributeName="x" to="-10" begin="0; animate10.end + 1s" /><animate attributeName="x" from="-10" to="24" dur="0.126" begin="animate1.end + 0.5" id="animate2" fill="freeze"/></rect><rect x="21" y="135" width="55" height="97" id="rect-3" fill="transparent" stroke="#000000"><set attributeName="y" to="232" begin="0; animate10.end + 1s" /><animate attributeName="y" from="232" to="135" dur="0.359" begin="animate2.end + 0.5" id="animate3" fill="freeze"/></rect><rect x="110" y="70" width="111" height="32" id="rect-4" fill="transparent" stroke="#000000"><set attributeName="x" to="-1" begin="0; animate10.end + 1s" /><animate attributeName="x" from="-1" to="110" dur="0.411" begin="animate3.end + 0.5" id="animate4" fill="freeze"/></rect><rect x="180" y="86" width="42" height="24" id="rect-5" fill="transparent" stroke="#000000"><set attributeName="y" to="62" begin="0; animate10.end + 1s" /><animate attributeName="y" from="62" to="86" dur="0.089" begin="animate4.end" id="animate5" fill="freeze"/></rect><rect x="60" y="83" width="53" height="154" id="rect-6" fill="transparent" stroke="#000000"><set attributeName="y" to="-71" begin="0; animate10.end + 1s" /><animate attributeName="y" from="-71" to="83" dur="0.570" begin="animate5.end + 0.5" id="animate6" fill="freeze"/></rect><rect x="133" y="22" width="29" height="119" id="rect-7" fill="transparent" stroke="#000000"><set attributeName="y" to="-97" begin="0; animate10.end + 1s" /><animate attributeName="y" from="-97" to="22" dur="0.441" begin="animate6.end + 0.5" id="animate7" fill="freeze"/></rect><rect x="118" y="130" width="72" height="23" id="rect-8" fill="transparent" stroke="#000000"><set attributeName="x" to="46" begin="0; animate10.end + 1s" /><animate attributeName="x" from="46" to="118" dur="0.267" begin="animate7.end + 0.5" id="animate8" fill="freeze"/></rect><rect x="91" y="139" width="104" height="92" id="rect-9" fill="transparent" stroke="#000000"><set attributeName="y" to="47" begin="0; animate10.end + 1s" /><animate attributeName="y" from="47" to="139" dur="0.341" begin="animate8.end" id="animate9" fill="freeze"/></rect><rect x="114" y="159" width="134" height="88" id="rect-10" fill="transparent" stroke="#000000"><set attributeName="x" to="-20" begin="0; animate10.end + 1s" /><animate attributeName="x" from="-20" to="114" dur="0.496" begin="animate9.end + 0.5" id="animate10" fill="freeze"/></rect></svg>