<svg xmlns="http://www.w3.org/2000/svg" xmlns:xlink="http://www.w3.org/1999/xlink" width="270" height="270"><defs><clipPath id="clip-mask-1"><use xlink:href="#rect-1" /></clipPath><clipPath id="clip-mask-2"><use xlink:href="#rect-2" /></clipPath><clipPath id="clip-mask-3"><use xlink:href="#rect-3" /></clipPath><clipPath id="clip-mask-4"><use xlink:href="#rect-4" /></clipPath><clipPath id="clip-mask-5"><use xlink:href="#rect-5" /></clipPath><clipPath id="clip-mask-6"><use xlink:href="#rect-6" /></clipPath><clipPath id="clip-mask-7"><use xlink:href="#rect-7" /></clipPath><clipPath id="clip-mask-8"><use xlink:href="#rect-8" /></clipPath><clipPath id="clip-mask-9"><use xlink:href="#rect-9" /></clipPath></defs><path d="M 0 0 L 270 270 M 270 0 L 0 270 M 135 0 L 135 270 M 0 135 L 270 135" stroke="#CCCCCC" /><path d="M 61 49 L 60 46 Q 60 42 62 41 Q 64 41 68 42 Q 90 50 92 58 Q 94 67 92 71 Q 90 75 87 75 Q 82 74 79 70 Q 73 62 68 57" fill="#CCCCCC"/><path d="M 35 98 L 35 94 Q 34 91 36 91 Q 39 90 42 91 Q 57 97 59 100 Q 64 103 65 110 Q 65 114 64 118 Q 61 121 57 120 Q 50 116 39 102" fill="#CCCCCC"/><path d="M 46 191 L 48 186 Q 70 139 72 138 Q 74 137 74 139 Q 74 140 73 144 Q 58 211 58 215 Q 59 222 57 222 Q 54 223 53 221 Q 45 219 39 201 Q 38 197 40 196" fill="#CCCCCC"/><path d="M 95 112 L 97 111 Q 99 111 100 113 Q 102 118 102 126 Q 103 140 94 149 Q 90 152 88 149 Q 83 141 86 133 Q 91 124 95 113" fill="#CCCCCC"/><path d="M 105 62 L 110 61 Q 114 60 127 66 Q 133 68 132 74 Q 131 77 130 82 Q 131 115 128 137 Q 125 173 106 196 Q 89 216 78 217 Q 75 217 75 215 Q 76 214 80 210 Q 102 186 107 170 Q 114 153 115 138 Q 119 82 109 68" fill="#CCCCCC"/><path d="M 139 114 L 139 112 Q 139 109 140 109 Q 142 109 145 111 Q 158 118 159 126 Q 158 130 156 132 Q 154 134 151 133 Q 146 129 141 117" fill="#CCCCCC"/><path d="M 157 60 L 159 58 Q 164 56 174 63 Q 180 66 178 72 Q 175 90 175 107 Q 175 148 176 162 Q 177 172 173 183 Q 171 189 169 191 Q 167 194 164 191 Q 155 179 158 167 Q 170 95 158 64" fill="#CCCCCC"/><path d="M 183 110 L 183 107 Q 183 104 184 104 Q 188 103 202 112 Q 208 117 208 121 Q 208 128 206 131 Q 204 133 202 133 Q 199 132 196 129 Q 192 122 188 116" fill="#CCCCCC"/><path d="M 203 30 L 205 28 Q 210 24 217 29 Q 232 37 234 40 Q 235 44 232 48 Q 228 65 228 89 Q 229 208 229 221 Q 230 238 222 243 Q 221 245 219 243 Q 217 242 216 240 Q 209 230 209 223 Q 207 212 211 208 Q 219 174 214 61 Q 214 46 205 34" fill="#CCCCCC"/><path d="M 61 49 L 60 46 Q 60 42 62 41 Q 64 41 68 42 Q 90 50 92 58 Q 94 67 92 71 Q 90 75 87 75 Q 82 74 79 70 Q 73 62 68 57" fill="#0000ff" clip-path="url(#clip-mask-1)" /><path d="M 35 98 L 35 94 Q 34 91 36 91 Q 39 90 42 91 Q 57 97 59 100 Q 64 103 65 110 Q 65 114 64 118 Q 61 121 57 120 Q 50 116 39 102" fill="#0000ff" clip-path="url(#clip-mask-2)" /><path d="M 46 191 L 48 186 Q 70 139 72 138 Q 74 137 74 139 Q 74 140 73 144 Q 58 211 58 215 Q 59 222 57 222 Q 54 223 53 221 Q 45 219 39 201 Q 38 197 40 196" fill="#0000ff" clip-path="url(#clip-mask-3)" /><path d="M 95 112 L 97 111 Q 99 111 100 113 Q 102 118 102 126 Q 103 140 94 149 Q 90 152 88 149 Q 83 141 86 133 Q 91 124 95 113" fill="#000080" clip-path="url(#clip-mask-4)" /><path d="M 105 62 L 110 61 Q 114 60 127 66 Q 133 68 132 74 Q 131 77 130 82 Q 131 115 128 137 Q 125 173 106 196 Q 89 216 78 217 Q 75 217 75 215 Q 76 214 80 210 Q 102 186 107 170 Q 114 153 115 138 Q 119 82 109 68" fill="#000080" clip-path="url(#clip-mask-5)" /><path d="M 139 114 L 139 112 Q 139 109 140 109 Q 142 109 145 111 Q 158 118 159 126 Q 158 130 156 132 Q 154 134 151 133 Q 146 129 141 117" fill="#000080" clip-path="url(#clip-mask-6)" /><path d="M 157 60 L 159 58 Q 164 56 174 63 Q 180 66 178 72 Q 175 90 175 107 Q 175 148 176 162 Q 177 172 173 183 Q 171 189 169 191 Q 167 194 164 191 Q 155 179 158 167 Q 170 95 158 64" fill="#000080" clip-path="url(#clip-mask-7)" /><path d="M 183 110 L 183 107 Q 183 104 184 104 Q 188 103 202 112 Q 208 117 208 121 Q 208 128 206 131 Q 204 133 202 133 Q 199 132 196 129 Q 192 122 188 116" fill="#000080" clip-path="url(#clip-mask-8)" /><path d="M 203 30 L 205 28 Q 210 24 217 29 Q 232 37 234 40 Q 235 44 232 48 Q 228 65 228 89 Q 229 208 229 221 Q 230 238 222 243 Q 221 245 219 243 Q 217 242 216 240 Q 209 230 209 223 Q 207 212 211 208 Q 219 174 214 61 Q 214 46 205 34" fill="#000080" clip-path="url(#clip-mask-9)" /><rect x="60" y="41" width="34" height="34" id="rect-1" fill="transparent" stroke="#000000"><animate attributeName="x" from="26" to="60" dur="0.126" begin="0; animate9.end + 1s" id="animate1" fill="freeze"/></rect><rect x="34" y="90" width="31" height="31" id="rect-2" fill="transparent" stroke="#000000"><set attributeName="x" to="3" begin="0; animate9.end + 1s" /><animate attributeName="x" from="3" to="34" dur="0.115" begin="animate1.end + 0.5" id="animate2" fill="freeze"/></rect><rect x="38" y="137" width="36" height="86" id="rect-3" fill="transparent" stroke="#000000"><set attributeName="y" to="223" begin="0; animate9.end + 1s" /><animate attributeName="y" from="223" to="137" dur="0.319" begin="animate2.end + 0.5" id="animate3" fill="freeze"/></rect><rect x="83" y="111" width="20" height="41" id="rect-4" fill="transparent" stroke="#000000"><set attributeName="y" to="70" begin="0; animate9.end + 1s" /><animate attributeName="y" from="70" to="111" dur="0.152" begin="animate3.end + 0.5" id="animate4" fill="freeze"/></rect><rect x="75" y="60" width="58" height="157" id="rect-5" fill="transparent" stroke="#000000"><set attributeName="y" to="-97" begin="0; animate9.end + 1s" /><animate attributeName="y" from="-97" to="60" dur="0.581" begin="animate4.end + 0.5" id="animate5" fill="freeze"/></rect><rect x="139" y="109" width="20" height="25" id="rect-6" fill="transparent" stroke="#000000"><set attributeName="x" to="119" begin="0; animate9.end + 1s" /><animate attributeName="x" from="119" to="139" dur="0.074" begin="animate5.end + 0.5" id="animate6" fill="freeze"/></rect><rect x="155" y="56" width="25" height="138" id="rect-7" fill="transparent" stroke="#000000"><set attributeName="y" to="-82" begin="0; animate9.end + 1s" /><animate attributeName="y" from="-82" to="56" dur="0.511" begin="animate6.end + 0.5" id="animate7" fill="freeze"/></rect><rect x="183" y="103" width="25" height="30" id="rect-8" fill="transparent" stroke="#000000"><set attributeName="x" to="158" begin="0; animate9.end + 1s" /><animate attributeName="x" from="158" to="183" dur="0.093" begin="animate7.end + 0.5" id="animate8" fill="freeze"/></rect><rect x="203" y="24" width="32" height="221" id="rect-9" fill="transparent" stroke="#000000"><set attributeName="y" to="-197" begin="0; animate9.end + 1s" /><animate attributeName="y" from="-197" to="24" dur="0.819" begin="animate8.end + 0.5" id="animate9" fill="freeze"/></rect></svg>