<svg xmlns="http://www.w3.org/2000/svg" xmlns:xlink="http://www.w3.org/1999/xlink" width="270" height="270"><defs><clipPath id="clip-mask-1"><use xlink:href="#rect-1" /></clipPath><clipPath id="clip-mask-2"><use xlink:href="#rect-2" /></clipPath><clipPath id="clip-mask-3"><use xlink:href="#rect-3" /></clipPath><clipPath id="clip-mask-4"><use xlink:href="#rect-4" /></clipPath><clipPath id="clip-mask-5"><use xlink:href="#rect-5" /></clipPath><clipPath id="clip-mask-6"><use xlink:href="#rect-6" /></clipPath><clipPath id="clip-mask-7"><use xlink:href="#rect-7" /></clipPath><clipPath id="clip-mask-8"><use xlink:href="#rect-8" /></clipPath><clipPath id="clip-mask-9"><use xlink:href="#rect-9" /></clipPath><clipPath id="clip-mask-10"><use xlink:href="#rect-10" /></clipPath><clipPath id="clip-mask-11"><use xlink:href="#rect-11" /></clipPath><clipPath id="clip-mask-12"><use xlink:href="#rect-12" /></clipPath><clipPath id="clip-mask-13"><use xlink:href="#rect-13" /></clipPath></defs><path d="M 0 0 L 270 270 M 270 0 L 0 270 M 135 0 L 135 270 M 0 135 L 270 135" stroke="#CCCCCC" /><path d="M 47 44 L 47 40 Q 47 37 49 36 Q 51 35 55 37 Q 78 46 79 54 Q 81 63 79 67 Q 77 71 73 71 Q 69 70 65 66 Q 60 58 54 51" fill="#CCCCCC"/><path d="M 26 91 L 26 88 Q 25 84 27 84 Q 28 83 29 84 Q 39 84 52 92 Q 56 96 58 103 Q 58 108 57 111 Q 54 115 50 114 Q 40 108 30 95" fill="#CCCCCC"/><path d="M 30 181 L 33 176 Q 61 128 65 126 Q 68 124 68 126 Q 68 128 66 132 Q 42 199 40 211 Q 40 218 38 218 Q 35 219 33 217 Q 24 213 20 192 Q 19 188 22 187" fill="#CCCCCC"/><path d="M 99 91 L 89 92 Q 86 93 87 90 Q 87 89 90 86 Q 101 72 109 59 Q 127 30 123 21 Q 121 16 125 15 Q 130 16 137 20 Q 143 26 144 29 Q 144 29 145 30 Q 144 31 125 58 L 120 64" fill="#CCCCCC"/><path d="M 125 58 Q 141 56 162 52 Q 190 43 197 45 Q 204 47 206 50 Q 207 53 205 54 Q 203 56 192 58 Q 169 63 146 67 Q 133 70 120 64" fill="#CCCCCC"/><path d="M 111 147 Q 104 164 93 187 L 84 204 Q 81 206 79 204 Q 75 199 74 194 Q 73 191 75 188 Q 88 179 99 149 L 103 139 Q 110 121 113 106 Q 115 97 112 88 Q 112 86 114 83 Q 117 81 126 91 L 130 99 Q 130 100 129 102 Q 126 107 124 116 Q 120 125 115 138" fill="#CCCCCC"/><path d="M 139 193 L 116 197 Q 95 200 84 204 L 93 187 Q 92 190 95 189 Q 131 186 171 186 L 188 186 Q 210 183 214 187 Q 226 195 229 200 Q 231 205 228 206 Q 225 207 220 205 Q 204 199 186 197 L 168 195" fill="#CCCCCC"/><path d="M 126 91 Q 143 89 154 87 Q 164 85 177 80 Q 183 78 187 81 Q 197 85 203 90 L 178 92 Q 174 89 169 90 Q 139 99 133 99 Q 131 99 130 99" fill="#CCCCCC"/><path d="M 171 186 Q 174 169 178 141 L 179 132 Q 182 95 178 92 L 203 90 Q 206 93 201 100 Q 196 105 194 129 L 193 141 Q 191 161 188 186 L 186 197 Q 186 199 185 202 Q 180 239 159 250 L 159 222 Q 164 215 168 195" fill="#CCCCCC"/><path d="M 159 250 Q 154 254 148 245 Q 142 234 133 223 Q 127 215 135 218 Q 134 219 151 224 Q 157 226 159 222" fill="#CCCCCC"/><path d="M 140 107 L 141 106 Q 142 103 144 104 Q 155 109 158 117 Q 158 123 157 126 Q 154 129 151 128 Q 145 125 141 110" fill="#CCCCCC"/><path d="M 178 141 Q 136 142 111 147 L 99 149 Q 83 152 79 151 Q 75 149 71 146 Q 67 141 73 141 Q 88 140 103 139 L 115 138 Q 136 136 156 134 Q 168 132 179 132 L 194 129 Q 206 127 217 126 Q 232 122 246 133 Q 250 137 248 140 Q 247 142 242 142 Q 216 140 193 141" fill="#CCCCCC"/><path d="M 132 156 L 132 154 Q 132 151 133 151 Q 136 151 139 153 Q 146 156 149 160 Q 152 164 152 169 Q 151 173 149 175 Q 147 177 144 176 Q 138 170 134 160" fill="#CCCCCC"/><path d="M 47 44 L 47 40 Q 47 37 49 36 Q 51 35 55 37 Q 78 46 79 54 Q 81 63 79 67 Q 77 71 73 71 Q 69 70 65 66 Q 60 58 54 51" fill="#0000ff" clip-path="url(#clip-mask-1)" /><path d="M 26 91 L 26 88 Q 25 84 27 84 Q 28 83 29 84 Q 39 84 52 92 Q 56 96 58 103 Q 58 108 57 111 Q 54 115 50 114 Q 40 108 30 95" fill="#0000ff" clip-path="url(#clip-mask-2)" /><path d="M 30 181 L 33 176 Q 61 128 65 126 Q 68 124 68 126 Q 68 128 66 132 Q 42 199 40 211 Q 40 218 38 218 Q 35 219 33 217 Q 24 213 20 192 Q 19 188 22 187" fill="#0000ff" clip-path="url(#clip-mask-3)" /><path d="M 99 91 L 89 92 Q 86 93 87 90 Q 87 89 90 86 Q 101 72 109 59 Q 127 30 123 21 Q 121 16 125 15 Q 130 16 137 20 Q 143 26 144 29 Q 144 29 145 30 Q 144 31 125 58 L 120 64" fill="#000080" clip-path="url(#clip-mask-4)" /><path d="M 125 58 Q 141 56 162 52 Q 190 43 197 45 Q 204 47 206 50 Q 207 53 205 54 Q 203 56 192 58 Q 169 63 146 67 Q 133 70 120 64" fill="#000080" clip-path="url(#clip-mask-5)" /><path d="M 111 147 Q 104 164 93 187 L 84 204 Q 81 206 79 204 Q 75 199 74 194 Q 73 191 75 188 Q 88 179 99 149 L 103 139 Q 110 121 113 106 Q 115 97 112 88 Q 112 86 114 83 Q 117 81 126 91 L 130 99 Q 130 100 129 102 Q 126 107 124 116 Q 120 125 115 138" fill="#000080" clip-path="url(#clip-mask-6)" /><path d="M 139 193 L 116 197 Q 95 200 84 204 L 93 187 Q 92 190 95 189 Q 131 186 171 186 L 188 186 Q 210 183 214 187 Q 226 195 229 200 Q 231 205 228 206 Q 225 207 220 205 Q 204 199 186 197 L 168 195" fill="#000080" clip-path="url(#clip-mask-7)" /><path d="M 126 91 Q 143 89 154 87 Q 164 85 177 80 Q 183 78 187 81 Q 197 85 203 90 L 178 92 Q 174 89 169 90 Q 139 99 133 99 Q 131 99 130 99" fill="#000080" clip-path="url(#clip-mask-8)" /><path d="M 171 186 Q 174 169 178 141 L 179 132 Q 182 95 178 92 L 203 90 Q 206 93 201 100 Q 196 105 194 129 L 193 141 Q 191 161 188 186 L 186 197 Q 186 199 185 202 Q 180 239 159 250 L 159 222 Q 164 215 168 195" fill="#000080" clip-path="url(#clip-mask-9)" /><path d="M 159 250 Q 154 254 148 245 Q 142 234 133 223 Q 127 215 135 218 Q 134 219 151 224 Q 157 226 159 222" fill="#000080" clip-path="url(#clip-mask-10)" /><path d="M 140 107 L 141 106 Q 142 103 144 104 Q 155 109 158 117 Q 158 123 157 126 Q 154 129 151 128 Q 145 125 141 110" fill="#000080" clip-path="url(#clip-mask-11)" /><path d="M 178 141 Q 136 142 111 147 L 99 149 Q 83 152 79 151 Q 75 149 71 146 Q 67 141 73 141 Q 88 140 103 139 L 115 138 Q 136 136 156 134 Q 168 132 179 132 L 194 129 Q 206 127 217 126 Q 232 122 246 133 Q 250 137 248 140 Q 247 142 242 142 Q 216 140 193 141" fill="#000080" clip-path="url(#clip-mask-12)" /><path d="M 132 156 L 132 154 Q 132 151 133 151 Q 136 151 139 153 Q 146 156 149 160 Q 152 164 152 169 Q 151 173 149 175 Q 147 177 144 176 Q 138 170 134 160" fill="#000080" clip-path="url(#clip-mask-13)" /><rect x="47" y="35" width="34" height="36" id="rect-1" fill="transparent" stroke="#000000"><animate attributeName="x" from="13" to="47" dur="0.126" begin="0; animate13.end + 1s" id="animate1" fill="freeze"/></rect><rect x="25" y="83" width="33" height="32" id="rect-2" fill="transparent" stroke="#000000"><set attributeName="x" to="-8" begin="0; animate13.end + 1s" /><animate attributeName="x" from="-8" to="25" dur="0.122" begin="animate1.end + 0.5" id="animate2" fill="freeze"/></rect><rect x="19" y="124" width="49" height="95" id="rect-3" fill="transparent" stroke="#000000"><set attributeName="y" to="219" begin="0; animate13.end + 1s" /><animate attributeName="y" from="219" to="124" dur="0.352" begin="animate2.end + 0.5" id="animate3" fill="freeze"/></rect><rect x="86" y="15" width="59" height="78" id="rect-4" fill="transparent" stroke="#000000"><set attributeName="y" to="-63" begin="0; animate13.end + 1s" /><animate attributeName="y" from="-63" to="15" dur="0.289" begin="animate3.end + 0.5" id="animate4" fill="freeze"/></rect><rect x="120" y="43" width="87" height="27" id="rect-5" fill="transparent" stroke="#000000"><set attributeName="x" to="33" begin="0; animate13.end + 1s" /><animate attributeName="x" from="33" to="120" dur="0.322" begin="animate4.end + 0.5" id="animate5" fill="freeze"/></rect><rect x="73" y="81" width="57" height="125" id="rect-6" fill="transparent" stroke="#000000"><set attributeName="y" to="-44" begin="0; animate13.end + 1s" /><animate attributeName="y" from="-44" to="81" dur="0.463" begin="animate5.end + 0.5" id="animate6" fill="freeze"/></rect><rect x="84" y="183" width="147" height="24" id="rect-7" fill="transparent" stroke="#000000"><set attributeName="x" to="-63" begin="0; animate13.end + 1s" /><animate attributeName="x" from="-63" to="84" dur="0.544" begin="animate6.end" id="animate7" fill="freeze"/></rect><rect x="126" y="78" width="77" height="21" id="rect-8" fill="transparent" stroke="#000000"><set attributeName="x" to="49" begin="0; animate13.end + 1s" /><animate attributeName="x" from="49" to="126" dur="0.285" begin="animate7.end + 0.5" id="animate8" fill="freeze"/></rect><rect x="159" y="90" width="47" height="160" id="rect-9" fill="transparent" stroke="#000000"><set attributeName="y" to="-70" begin="0; animate13.end + 1s" /><animate attributeName="y" from="-70" to="90" dur="0.593" begin="animate8.end" id="animate9" fill="freeze"/></rect><rect x="127" y="215" width="32" height="39" id="rect-10" fill="transparent" stroke="#000000"><set attributeName="x" to="159" begin="0; animate13.end + 1s" /><animate attributeName="x" from="159" to="127" dur="0.119" begin="animate9.end" id="animate10" fill="freeze"/></rect><rect x="140" y="103" width="18" height="26" id="rect-11" fill="transparent" stroke="#000000"><set attributeName="x" to="122" begin="0; animate13.end + 1s" /><animate attributeName="x" from="122" to="140" dur="0.067" begin="animate10.end + 0.5" id="animate11" fill="freeze"/></rect><rect x="67" y="122" width="183" height="30" id="rect-12" fill="transparent" stroke="#000000"><set attributeName="x" to="-116" begin="0; animate13.end + 1s" /><animate attributeName="x" from="-116" to="67" dur="0.678" begin="animate11.end + 0.5" id="animate12" fill="freeze"/></rect><rect x="132" y="151" width="20" height="26" id="rect-13" fill="transparent" stroke="#000000"><set attributeName="x" to="112" begin="0; animate13.end + 1s" /><animate attributeName="x" from="112" to="132" dur="0.074" begin="animate12.end + 0.5" id="animate13" fill="freeze"/></rect></svg>