<svg xmlns="http://www.w3.org/2000/svg" xmlns:xlink="http://www.w3.org/1999/xlink" width="270" height="270"><defs><clipPath id="clip-mask-1"><use xlink:href="#rect-1" /></clipPath><clipPath id="clip-mask-2"><use xlink:href="#rect-2" /></clipPath><clipPath id="clip-mask-3"><use xlink:href="#rect-3" /></clipPath><clipPath id="clip-mask-4"><use xlink:href="#rect-4" /></clipPath><clipPath id="clip-mask-5"><use xlink:href="#rect-5" /></clipPath><clipPath id="clip-mask-6"><use xlink:href="#rect-6" /></clipPath><clipPath id="clip-mask-7"><use xlink:href="#rect-7" /></clipPath><clipPath id="clip-mask-8"><use xlink:href="#rect-8" /></clipPath><clipPath id="clip-mask-9"><use xlink:href="#rect-9" /></clipPath><clipPath id="clip-mask-10"><use xlink:href="#rect-10" /></clipPath><clipPath id="clip-mask-11"><use xlink:href="#rect-11" /></clipPath><clipPath id="clip-mask-12"><use xlink:href="#rect-12" /></clipPath><clipPath id="clip-mask-13"><use xlink:href="#rect-13" /></clipPath></defs><path d="M 0 0 L 270 270 M 270 0 L 0 270 M 135 0 L 135 270 M 0 135 L 270 135" stroke="#CCCCCC" /><path d="M 44 58 L 43 54 Q 42 50 44 49 Q 48 48 64 54 Q 71 57 72 62 Q 74 71 72 75 Q 71 79 67 79 Q 63 78 59 74 Q 55 69 51 64" fill="#CCCCCC"/><path d="M 18 110 L 17 107 Q 17 103 19 103 Q 19 102 21 102 Q 32 103 40 108 Q 45 112 47 119 Q 47 124 46 128 Q 43 132 39 131 Q 30 126 22 115" fill="#CCCCCC"/><path d="M 27 184 L 29 180 Q 52 145 55 143 Q 57 142 57 144 Q 57 145 44 189 Q 39 202 39 210 Q 38 217 36 217 Q 34 218 32 216 Q 24 212 19 193 Q 19 189 22 187" fill="#CCCCCC"/><path d="M 98 116 Q 98 80 95 49 Q 95 44 90 38 Q 88 34 90 32 Q 92 30 96 31 Q 102 32 111 36 Q 116 40 115 43 Q 111 71 111 74 L 110 82 Q 109 97 109 113" fill="#CCCCCC"/><path d="M 111 74 Q 130 65 138 65 Q 145 66 148 70 Q 151 73 145 75 Q 112 81 110 82" fill="#CCCCCC"/><path d="M 87 129 L 78 132 Q 69 136 60 129 Q 56 127 57 125 Q 58 123 60 123 Q 80 119 98 116 L 109 113 Q 136 106 143 109 Q 148 111 147 114 Q 147 116 143 116 Q 110 121 105 124 L 96 126" fill="#CCCCCC"/><path d="M 105 124 Q 107 126 110 128 Q 115 133 113 144 Q 112 160 112 205 Q 112 221 108 229 Q 105 238 102 239 Q 99 239 96 236 L 97 210 Q 98 206 99 198 Q 102 144 96 126" fill="#CCCCCC"/><path d="M 96 236 Q 91 228 77 214 Q 75 211 75 210 Q 75 208 78 209 Q 85 210 90 212 Q 96 213 97 210" fill="#CCCCCC"/><path d="M 76 152 L 78 152 Q 80 152 81 154 Q 82 160 81 169 Q 78 188 65 197 Q 60 200 58 195 Q 54 187 60 179 Q 69 167 75 154" fill="#CCCCCC"/><path d="M 122 159 L 122 157 Q 122 154 123 153 Q 124 153 128 154 Q 146 162 147 167 Q 148 173 146 177 Q 145 179 142 179 Q 139 179 136 176 Q 132 169 127 164" fill="#CCCCCC"/><path d="M 184 92 Q 182 93 170 99 Q 158 105 149 102 Q 144 101 145 99 Q 146 97 149 96 Q 164 92 173 89 Q 181 85 187 81 Q 194 76 200 77 Q 209 78 213 81 Q 216 84 212 89" fill="#CCCCCC"/><path d="M 160 205 L 138 209 Q 128 210 127 208 Q 123 207 126 205 Q 154 191 171 165 L 176 155 Q 186 129 190 99 Q 191 92 184 92 L 212 89 Q 208 94 206 102 Q 198 139 188 162 Q 187 164 186 166 L 179 178" fill="#CCCCCC"/><path d="M 171 165 Q 153 136 145 130 Q 143 129 143 128 Q 145 126 152 126 Q 156 127 158 132 Q 168 144 176 155 L 186 166 Q 189 169 192 172 Q 212 193 250 211 Q 252 212 251 214 Q 248 217 212 217 Q 206 216 202 211 Q 191 196 179 178" fill="#CCCCCC"/><path d="M 44 58 L 43 54 Q 42 50 44 49 Q 48 48 64 54 Q 71 57 72 62 Q 74 71 72 75 Q 71 79 67 79 Q 63 78 59 74 Q 55 69 51 64" fill="#0000ff" clip-path="url(#clip-mask-1)" /><path d="M 18 110 L 17 107 Q 17 103 19 103 Q 19 102 21 102 Q 32 103 40 108 Q 45 112 47 119 Q 47 124 46 128 Q 43 132 39 131 Q 30 126 22 115" fill="#0000ff" clip-path="url(#clip-mask-2)" /><path d="M 27 184 L 29 180 Q 52 145 55 143 Q 57 142 57 144 Q 57 145 44 189 Q 39 202 39 210 Q 38 217 36 217 Q 34 218 32 216 Q 24 212 19 193 Q 19 189 22 187" fill="#0000ff" clip-path="url(#clip-mask-3)" /><path d="M 98 116 Q 98 80 95 49 Q 95 44 90 38 Q 88 34 90 32 Q 92 30 96 31 Q 102 32 111 36 Q 116 40 115 43 Q 111 71 111 74 L 110 82 Q 109 97 109 113" fill="#000080" clip-path="url(#clip-mask-4)" /><path d="M 111 74 Q 130 65 138 65 Q 145 66 148 70 Q 151 73 145 75 Q 112 81 110 82" fill="#000080" clip-path="url(#clip-mask-5)" /><path d="M 87 129 L 78 132 Q 69 136 60 129 Q 56 127 57 125 Q 58 123 60 123 Q 80 119 98 116 L 109 113 Q 136 106 143 109 Q 148 111 147 114 Q 147 116 143 116 Q 110 121 105 124 L 96 126" fill="#000080" clip-path="url(#clip-mask-6)" /><path d="M 105 124 Q 107 126 110 128 Q 115 133 113 144 Q 112 160 112 205 Q 112 221 108 229 Q 105 238 102 239 Q 99 239 96 236 L 97 210 Q 98 206 99 198 Q 102 144 96 126" fill="#000080" clip-path="url(#clip-mask-7)" /><path d="M 96 236 Q 91 228 77 214 Q 75 211 75 210 Q 75 208 78 209 Q 85 210 90 212 Q 96 213 97 210" fill="#000080" clip-path="url(#clip-mask-8)" /><path d="M 76 152 L 78 152 Q 80 152 81 154 Q 82 160 81 169 Q 78 188 65 197 Q 60 200 58 195 Q 54 187 60 179 Q 69 167 75 154" fill="#000080" clip-path="url(#clip-mask-9)" /><path d="M 122 159 L 122 157 Q 122 154 123 153 Q 124 153 128 154 Q 146 162 147 167 Q 148 173 146 177 Q 145 179 142 179 Q 139 179 136 176 Q 132 169 127 164" fill="#000080" clip-path="url(#clip-mask-10)" /><path d="M 184 92 Q 182 93 170 99 Q 158 105 149 102 Q 144 101 145 99 Q 146 97 149 96 Q 164 92 173 89 Q 181 85 187 81 Q 194 76 200 77 Q 209 78 213 81 Q 216 84 212 89" fill="#000080" clip-path="url(#clip-mask-11)" /><path d="M 160 205 L 138 209 Q 128 210 127 208 Q 123 207 126 205 Q 154 191 171 165 L 176 155 Q 186 129 190 99 Q 191 92 184 92 L 212 89 Q 208 94 206 102 Q 198 139 188 162 Q 187 164 186 166 L 179 178" fill="#000080" clip-path="url(#clip-mask-12)" /><path d="M 171 165 Q 153 136 145 130 Q 143 129 143 128 Q 145 126 152 126 Q 156 127 158 132 Q 168 144 176 155 L 186 166 Q 189 169 192 172 Q 212 193 250 211 Q 252 212 251 214 Q 248 217 212 217 Q 206 216 202 211 Q 191 196 179 178" fill="#000080" clip-path="url(#clip-mask-13)" /><rect x="42" y="48" width="32" height="31" id="rect-1" fill="transparent" stroke="#000000"><animate attributeName="x" from="10" to="42" dur="0.119" begin="0; animate13.end + 1s" id="animate1" fill="freeze"/></rect><rect x="17" y="102" width="30" height="30" id="rect-2" fill="transparent" stroke="#000000"><set attributeName="x" to="-13" begin="0; animate13.end + 1s" /><animate attributeName="x" from="-13" to="17" dur="0.111" begin="animate1.end + 0.5" id="animate2" fill="freeze"/></rect><rect x="19" y="142" width="38" height="76" id="rect-3" fill="transparent" stroke="#000000"><set attributeName="y" to="218" begin="0; animate13.end + 1s" /><animate attributeName="y" from="218" to="142" dur="0.281" begin="animate2.end + 0.5" id="animate3" fill="freeze"/></rect><rect x="88" y="30" width="28" height="86" id="rect-4" fill="transparent" stroke="#000000"><set attributeName="y" to="-56" begin="0; animate13.end + 1s" /><animate attributeName="y" from="-56" to="30" dur="0.319" begin="animate3.end + 0.5" id="animate4" fill="freeze"/></rect><rect x="110" y="65" width="41" height="17" id="rect-5" fill="transparent" stroke="#000000"><set attributeName="x" to="69" begin="0; animate13.end + 1s" /><animate attributeName="x" from="69" to="110" dur="0.152" begin="animate4.end + 0.5" id="animate5" fill="freeze"/></rect><rect x="56" y="106" width="92" height="30" id="rect-6" fill="transparent" stroke="#000000"><set attributeName="x" to="-36" begin="0; animate13.end + 1s" /><animate attributeName="x" from="-36" to="56" dur="0.341" begin="animate5.end + 0.5" id="animate6" fill="freeze"/></rect><rect x="96" y="124" width="19" height="115" id="rect-7" fill="transparent" stroke="#000000"><set attributeName="y" to="9" begin="0; animate13.end + 1s" /><animate attributeName="y" from="9" to="124" dur="0.426" begin="animate6.end + 0.5" id="animate7" fill="freeze"/></rect><rect x="75" y="208" width="22" height="28" id="rect-8" fill="transparent" stroke="#000000"><set attributeName="x" to="97" begin="0; animate13.end + 1s" /><animate attributeName="x" from="97" to="75" dur="0.081" begin="animate7.end" id="animate8" fill="freeze"/></rect><rect x="54" y="152" width="28" height="48" id="rect-9" fill="transparent" stroke="#000000"><set attributeName="y" to="104" begin="0; animate13.end + 1s" /><animate attributeName="y" from="104" to="152" dur="0.178" begin="animate8.end + 0.5" id="animate9" fill="freeze"/></rect><rect x="122" y="153" width="26" height="26" id="rect-10" fill="transparent" stroke="#000000"><set attributeName="x" to="96" begin="0; animate13.end + 1s" /><animate attributeName="x" from="96" to="122" dur="0.096" begin="animate9.end + 0.5" id="animate10" fill="freeze"/></rect><rect x="144" y="76" width="72" height="29" id="rect-11" fill="transparent" stroke="#000000"><set attributeName="x" to="72" begin="0; animate13.end + 1s" /><animate attributeName="x" from="72" to="144" dur="0.267" begin="animate10.end + 0.5" id="animate11" fill="freeze"/></rect><rect x="123" y="89" width="89" height="121" id="rect-12" fill="transparent" stroke="#000000"><set attributeName="y" to="-32" begin="0; animate13.end + 1s" /><animate attributeName="y" from="-32" to="89" dur="0.448" begin="animate11.end" id="animate12" fill="freeze"/></rect><rect x="143" y="126" width="109" height="91" id="rect-13" fill="transparent" stroke="#000000"><set attributeName="x" to="34" begin="0; animate13.end + 1s" /><animate attributeName="x" from="34" to="143" dur="0.404" begin="animate12.end + 0.5" id="animate13" fill="freeze"/></rect></svg>