<svg xmlns="http://www.w3.org/2000/svg" xmlns:xlink="http://www.w3.org/1999/xlink" width="270" height="270"><defs><clipPath id="clip-mask-1"><use xlink:href="#rect-1" /></clipPath><clipPath id="clip-mask-2"><use xlink:href="#rect-2" /></clipPath><clipPath id="clip-mask-3"><use xlink:href="#rect-3" /></clipPath><clipPath id="clip-mask-4"><use xlink:href="#rect-4" /></clipPath><clipPath id="clip-mask-5"><use xlink:href="#rect-5" /></clipPath><clipPath id="clip-mask-6"><use xlink:href="#rect-6" /></clipPath><clipPath id="clip-mask-7"><use xlink:href="#rect-7" /></clipPath><clipPath id="clip-mask-8"><use xlink:href="#rect-8" /></clipPath><clipPath id="clip-mask-9"><use xlink:href="#rect-9" /></clipPath><clipPath id="clip-mask-10"><use xlink:href="#rect-10" /></clipPath><clipPath id="clip-mask-11"><use xlink:href="#rect-11" /></clipPath></defs><path d="M 0 0 L 270 270 M 270 0 L 0 270 M 135 0 L 135 270 M 0 135 L 270 135" stroke="#CCCCCC" /><path d="M 54 48 L 54 45 Q 53 41 55 40 Q 59 38 79 47 Q 87 51 88 56 Q 90 65 88 70 Q 87 74 83 74 Q 79 73 75 69 Q 68 61 62 55" fill="#CCCCCC"/><path d="M 32 105 L 32 102 Q 32 98 34 98 Q 36 97 38 98 Q 51 102 57 108 Q 62 112 63 119 Q 63 123 61 127 Q 58 130 54 129 Q 45 123 36 109" fill="#CCCCCC"/><path d="M 39 201 L 42 195 Q 57 172 73 145 Q 76 141 79 139 Q 81 137 82 140 Q 82 142 80 146 Q 50 219 47 232 Q 47 239 45 240 Q 42 240 40 238 Q 31 233 28 213 Q 27 208 31 207" fill="#CCCCCC"/><path d="M 168 37 L 169 33 Q 169 30 171 29 Q 175 29 179 31 Q 191 36 196 41 Q 200 44 198 47 Q 197 49 193 49 Q 176 52 164 58 Q 123 72 115 70 Q 113 69 114 66 Q 150 52 164 40" fill="#CCCCCC"/><path d="M 102 96 L 101 94 Q 102 91 103 90 Q 106 89 122 98 Q 129 102 129 107 Q 131 114 129 117 Q 127 120 125 120 Q 121 119 118 116 Q 113 109 107 102" fill="#CCCCCC"/><path d="M 136 83 L 136 80 Q 136 78 137 78 Q 140 77 143 79 Q 143 79 143 79 Q 160 87 160 96 Q 161 99 159 102 Q 156 104 153 103 Q 147 100 139 86" fill="#CCCCCC"/><path d="M 203 74 L 203 69 Q 202 65 205 65 Q 208 65 214 69 Q 220 74 222 78 Q 224 83 219 85 Q 213 86 208 90 Q 177 106 171 108 Q 167 109 170 105 Q 194 85 199 78" fill="#CCCCCC"/><path d="M 146 145 Q 130 149 108 152 Q 104 151 108 148 Q 117 145 127 142 Q 181 124 184 115 Q 185 111 188 112 Q 191 113 195 119 Q 199 125 200 131 Q 201 136 195 136 Q 186 135 157 143" fill="#CCCCCC"/><path d="M 149 184 Q 130 186 115 190 Q 107 192 98 184 Q 92 179 100 178 Q 138 173 149 172 L 163 169 Q 167 168 170 167 Q 198 159 208 166 Q 214 169 214 172 Q 211 175 208 175 Q 172 179 163 181" fill="#CCCCCC"/><path d="M 149 196 L 149 184 L 149 172 Q 148 155 146 145 L 157 143 Q 160 145 164 148 Q 165 150 164 162 Q 163 165 163 169 L 163 181 Q 162 197 161 215 L 149 217" fill="#CCCCCC"/><path d="M 161 215 Q 194 211 214 208 Q 223 206 237 217 Q 242 221 240 224 Q 239 226 234 226 Q 233 226 233 226 Q 157 221 98 234 Q 94 235 88 233 Q 83 232 80 228 Q 76 223 81 223 Q 117 219 149 217" fill="#CCCCCC"/><path d="M 54 48 L 54 45 Q 53 41 55 40 Q 59 38 79 47 Q 87 51 88 56 Q 90 65 88 70 Q 87 74 83 74 Q 79 73 75 69 Q 68 61 62 55" fill="#0000ff" clip-path="url(#clip-mask-1)" /><path d="M 32 105 L 32 102 Q 32 98 34 98 Q 36 97 38 98 Q 51 102 57 108 Q 62 112 63 119 Q 63 123 61 127 Q 58 130 54 129 Q 45 123 36 109" fill="#0000ff" clip-path="url(#clip-mask-2)" /><path d="M 39 201 L 42 195 Q 57 172 73 145 Q 76 141 79 139 Q 81 137 82 140 Q 82 142 80 146 Q 50 219 47 232 Q 47 239 45 240 Q 42 240 40 238 Q 31 233 28 213 Q 27 208 31 207" fill="#0000ff" clip-path="url(#clip-mask-3)" /><path d="M 168 37 L 169 33 Q 169 30 171 29 Q 175 29 179 31 Q 191 36 196 41 Q 200 44 198 47 Q 197 49 193 49 Q 176 52 164 58 Q 123 72 115 70 Q 113 69 114 66 Q 150 52 164 40" fill="#000080" clip-path="url(#clip-mask-4)" /><path d="M 102 96 L 101 94 Q 102 91 103 90 Q 106 89 122 98 Q 129 102 129 107 Q 131 114 129 117 Q 127 120 125 120 Q 121 119 118 116 Q 113 109 107 102" fill="#000080" clip-path="url(#clip-mask-5)" /><path d="M 136 83 L 136 80 Q 136 78 137 78 Q 140 77 143 79 Q 143 79 143 79 Q 160 87 160 96 Q 161 99 159 102 Q 156 104 153 103 Q 147 100 139 86" fill="#000080" clip-path="url(#clip-mask-6)" /><path d="M 203 74 L 203 69 Q 202 65 205 65 Q 208 65 214 69 Q 220 74 222 78 Q 224 83 219 85 Q 213 86 208 90 Q 177 106 171 108 Q 167 109 170 105 Q 194 85 199 78" fill="#000080" clip-path="url(#clip-mask-7)" /><path d="M 146 145 Q 130 149 108 152 Q 104 151 108 148 Q 117 145 127 142 Q 181 124 184 115 Q 185 111 188 112 Q 191 113 195 119 Q 199 125 200 131 Q 201 136 195 136 Q 186 135 157 143" fill="#000080" clip-path="url(#clip-mask-8)" /><path d="M 149 184 Q 130 186 115 190 Q 107 192 98 184 Q 92 179 100 178 Q 138 173 149 172 L 163 169 Q 167 168 170 167 Q 198 159 208 166 Q 214 169 214 172 Q 211 175 208 175 Q 172 179 163 181" fill="#000080" clip-path="url(#clip-mask-9)" /><path d="M 149 196 L 149 184 L 149 172 Q 148 155 146 145 L 157 143 Q 160 145 164 148 Q 165 150 164 162 Q 163 165 163 169 L 163 181 Q 162 197 161 215 L 149 217" fill="#000080" clip-path="url(#clip-mask-10)" /><path d="M 161 215 Q 194 211 214 208 Q 223 206 237 217 Q 242 221 240 224 Q 239 226 234 226 Q 233 226 233 226 Q 157 221 98 234 Q 94 235 88 233 Q 83 232 80 228 Q 76 223 81 223 Q 117 219 149 217" fill="#000080" clip-path="url(#clip-mask-11)" /><rect x="53" y="38" width="37" height="36" id="rect-1" fill="transparent" stroke="#000000"><animate attributeName="x" from="16" to="53" dur="0.137" begin="0; animate11.end + 1s" id="animate1" fill="freeze"/></rect><rect x="32" y="97" width="31" height="33" id="rect-2" fill="transparent" stroke="#000000"><set attributeName="x" to="1" begin="0; animate11.end + 1s" /><animate attributeName="x" from="1" to="32" dur="0.115" begin="animate1.end + 0.5" id="animate2" fill="freeze"/></rect><rect x="27" y="137" width="55" height="103" id="rect-3" fill="transparent" stroke="#000000"><set attributeName="y" to="240" begin="0; animate11.end + 1s" /><animate attributeName="y" from="240" to="137" dur="0.381" begin="animate2.end + 0.5" id="animate3" fill="freeze"/></rect><rect x="113" y="29" width="87" height="43" id="rect-4" fill="transparent" stroke="#000000"><set attributeName="x" to="200" begin="0; animate11.end + 1s" /><animate attributeName="x" from="200" to="113" dur="0.322" begin="animate3.end + 0.5" id="animate4" fill="freeze"/></rect><rect x="101" y="89" width="30" height="31" id="rect-5" fill="transparent" stroke="#000000"><set attributeName="y" to="58" begin="0; animate11.end + 1s" /><animate attributeName="y" from="58" to="89" dur="0.115" begin="animate4.end + 0.5" id="animate5" fill="freeze"/></rect><rect x="136" y="77" width="25" height="27" id="rect-6" fill="transparent" stroke="#000000"><set attributeName="y" to="50" begin="0; animate11.end + 1s" /><animate attributeName="y" from="50" to="77" dur="0.100" begin="animate5.end + 0.5" id="animate6" fill="freeze"/></rect><rect x="167" y="65" width="57" height="44" id="rect-7" fill="transparent" stroke="#000000"><set attributeName="x" to="224" begin="0; animate11.end + 1s" /><animate attributeName="x" from="224" to="167" dur="0.211" begin="animate6.end + 0.5" id="animate7" fill="freeze"/></rect><rect x="104" y="111" width="97" height="41" id="rect-8" fill="transparent" stroke="#000000"><set attributeName="x" to="201" begin="0; animate11.end + 1s" /><animate attributeName="x" from="201" to="104" dur="0.359" begin="animate7.end + 0.5" id="animate8" fill="freeze"/></rect><rect x="92" y="159" width="122" height="33" id="rect-9" fill="transparent" stroke="#000000"><set attributeName="x" to="-30" begin="0; animate11.end + 1s" /><animate attributeName="x" from="-30" to="92" dur="0.452" begin="animate8.end + 0.5" id="animate9" fill="freeze"/></rect><rect x="146" y="143" width="19" height="74" id="rect-10" fill="transparent" stroke="#000000"><set attributeName="y" to="69" begin="0; animate11.end + 1s" /><animate attributeName="y" from="69" to="143" dur="0.274" begin="animate9.end + 0.5" id="animate10" fill="freeze"/></rect><rect x="76" y="206" width="166" height="29" id="rect-11" fill="transparent" stroke="#000000"><set attributeName="x" to="-90" begin="0; animate11.end + 1s" /><animate attributeName="x" from="-90" to="76" dur="0.615" begin="animate10.end + 0.5" id="animate11" fill="freeze"/></rect></svg>