<svg xmlns="http://www.w3.org/2000/svg" xmlns:xlink="http://www.w3.org/1999/xlink" width="270" height="270"><defs><clipPath id="clip-mask-1"><use xlink:href="#rect-1" /></clipPath><clipPath id="clip-mask-2"><use xlink:href="#rect-2" /></clipPath><clipPath id="clip-mask-3"><use xlink:href="#rect-3" /></clipPath><clipPath id="clip-mask-4"><use xlink:href="#rect-4" /></clipPath><clipPath id="clip-mask-5"><use xlink:href="#rect-5" /></clipPath><clipPath id="clip-mask-6"><use xlink:href="#rect-6" /></clipPath><clipPath id="clip-mask-7"><use xlink:href="#rect-7" /></clipPath><clipPath id="clip-mask-8"><use xlink:href="#rect-8" /></clipPath><clipPath id="clip-mask-9"><use xlink:href="#rect-9" /></clipPath><clipPath id="clip-mask-10"><use xlink:href="#rect-10" /></clipPath><clipPath id="clip-mask-11"><use xlink:href="#rect-11" /></clipPath><clipPath id="clip-mask-12"><use xlink:href="#rect-12" /></clipPath><clipPath id="clip-mask-13"><use xlink:href="#rect-13" /></clipPath><clipPath id="clip-mask-14"><use xlink:href="#rect-14" /></clipPath><clipPath id="clip-mask-15"><use xlink:href="#rect-15" /></clipPath><clipPath id="clip-mask-16"><use xlink:href="#rect-16" /></clipPath></defs><path d="M 0 0 L 270 270 M 270 0 L 0 270 M 135 0 L 135 270 M 0 135 L 270 135" stroke="#CCCCCC" /><path d="M 55 39 L 54 36 Q 53 32 55 31 Q 58 30 76 35 Q 83 38 84 42 Q 87 50 86 54 Q 85 58 82 58 Q 78 58 74 55 Q 68 49 63 44" fill="#CCCCCC"/><path d="M 36 91 L 36 88 Q 35 84 36 84 Q 40 83 49 85 Q 63 88 67 98 Q 68 103 67 106 Q 65 109 61 109 Q 52 105 41 94" fill="#CCCCCC"/><path d="M 42 181 L 45 174 Q 58 150 73 122 Q 76 118 79 116 Q 81 114 82 117 Q 82 118 80 123 Q 53 198 51 211 Q 51 218 49 218 Q 46 219 44 217 Q 35 212 31 193 Q 30 189 34 187" fill="#CCCCCC"/><path d="M 165 36 Q 151 38 138 41 L 127 41 Q 118 39 115 37 Q 109 33 117 32 Q 137 31 153 27 Q 168 24 181 20 Q 188 17 196 19 Q 202 21 204 24 Q 205 26 203 28 Q 201 29 189 31 Q 183 32 177 34" fill="#CCCCCC"/><path d="M 119 112 L 119 113 Q 118 117 113 112 Q 109 108 108 103 Q 103 83 95 72 Q 93 68 94 67 Q 95 65 98 66 Q 107 67 110 68 L 112 77 Q 113 84 118 100 Q 118 102 118 104 L 119 111" fill="#CCCCCC"/><path d="M 110 68 Q 120 67 133 65 L 145 63 Q 156 61 166 59 L 178 58 Q 192 56 202 54 Q 205 52 210 55 Q 221 62 224 66 L 201 66 Q 196 62 177 65 L 165 67 Q 154 68 145 70 L 134 72 Q 122 74 112 77" fill="#CCCCCC"/><path d="M 193 96 Q 197 95 203 71 Q 203 68 201 66 L 224 66 Q 227 70 223 72 Q 217 78 215 86 Q 207 105 205 109 Q 201 113 198 112 Q 194 109 190 102" fill="#CCCCCC"/><path d="M 133 65 Q 131 48 127 41 L 138 41 Q 140 42 143 44 Q 143 44 145 63 L 145 70 Q 146 83 147 99 L 138 101 Q 135 83 134 72" fill="#CCCCCC"/><path d="M 166 59 Q 167 52 167 45 Q 167 41 165 36 L 177 34 Q 179 35 181 36 Q 185 40 184 42 Q 182 45 178 58 L 177 65 Q 174 80 171 95 L 162 97 Q 164 81 165 67" fill="#CCCCCC"/><path d="M 118 104 Q 127 102 138 101 L 147 99 Q 154 98 162 97 L 171 95 Q 172 95 173 95 Q 183 92 188 93 Q 192 95 193 96 L 190 102 Q 163 105 126 110 Q 122 111 119 111" fill="#CCCCCC"/><path d="M 136 128 L 148 126 Q 158 124 169 121 Q 176 119 184 120 Q 191 123 192 126 Q 194 128 191 130 Q 190 131 181 132 Q 162 135 143 138 Q 129 142 119 135 Q 113 130 122 129" fill="#CCCCCC"/><path d="M 122 169 L 102 174 Q 98 176 93 174 Q 88 173 85 170 Q 80 165 86 165 Q 180 152 212 145 Q 221 143 234 152 Q 239 156 237 158 Q 236 161 231 161 Q 181 160 156 164 L 145 166" fill="#CCCCCC"/><path d="M 156 164 Q 158 166 160 169 Q 165 174 163 185 Q 163 193 163 217 Q 164 233 159 242 Q 156 251 152 252 Q 150 252 146 248 L 147 222 Q 148 219 149 205 Q 149 176 146 167 Q 145 166 145 166" fill="#CCCCCC"/><path d="M 146 248 Q 141 240 126 226 Q 124 224 124 222 Q 124 220 127 221 Q 134 222 140 224 Q 146 225 147 222" fill="#CCCCCC"/><path d="M 108 185 L 110 185 Q 112 186 112 188 Q 113 194 110 202 Q 109 208 104 216 Q 99 223 93 225 Q 88 227 87 223 Q 85 214 90 207 Q 99 198 107 187" fill="#CCCCCC"/><path d="M 188 186 L 189 183 Q 189 179 191 181 Q 208 188 211 191 Q 227 199 229 210 Q 232 221 228 224 Q 226 226 224 226 Q 220 224 217 219 Q 203 201 191 189" fill="#CCCCCC"/><path d="M 55 39 L 54 36 Q 53 32 55 31 Q 58 30 76 35 Q 83 38 84 42 Q 87 50 86 54 Q 85 58 82 58 Q 78 58 74 55 Q 68 49 63 44" fill="#0000ff" clip-path="url(#clip-mask-1)" /><path d="M 36 91 L 36 88 Q 35 84 36 84 Q 40 83 49 85 Q 63 88 67 98 Q 68 103 67 106 Q 65 109 61 109 Q 52 105 41 94" fill="#0000ff" clip-path="url(#clip-mask-2)" /><path d="M 42 181 L 45 174 Q 58 150 73 122 Q 76 118 79 116 Q 81 114 82 117 Q 82 118 80 123 Q 53 198 51 211 Q 51 218 49 218 Q 46 219 44 217 Q 35 212 31 193 Q 30 189 34 187" fill="#0000ff" clip-path="url(#clip-mask-3)" /><path d="M 165 36 Q 151 38 138 41 L 127 41 Q 118 39 115 37 Q 109 33 117 32 Q 137 31 153 27 Q 168 24 181 20 Q 188 17 196 19 Q 202 21 204 24 Q 205 26 203 28 Q 201 29 189 31 Q 183 32 177 34" fill="#000080" clip-path="url(#clip-mask-4)" /><path d="M 119 112 L 119 113 Q 118 117 113 112 Q 109 108 108 103 Q 103 83 95 72 Q 93 68 94 67 Q 95 65 98 66 Q 107 67 110 68 L 112 77 Q 113 84 118 100 Q 118 102 118 104 L 119 111" fill="#000080" clip-path="url(#clip-mask-5)" /><path d="M 110 68 Q 120 67 133 65 L 145 63 Q 156 61 166 59 L 178 58 Q 192 56 202 54 Q 205 52 210 55 Q 221 62 224 66 L 201 66 Q 196 62 177 65 L 165 67 Q 154 68 145 70 L 134 72 Q 122 74 112 77" fill="#000080" clip-path="url(#clip-mask-6)" /><path d="M 193 96 Q 197 95 203 71 Q 203 68 201 66 L 224 66 Q 227 70 223 72 Q 217 78 215 86 Q 207 105 205 109 Q 201 113 198 112 Q 194 109 190 102" fill="#000080" clip-path="url(#clip-mask-7)" /><path d="M 133 65 Q 131 48 127 41 L 138 41 Q 140 42 143 44 Q 143 44 145 63 L 145 70 Q 146 83 147 99 L 138 101 Q 135 83 134 72" fill="#000080" clip-path="url(#clip-mask-8)" /><path d="M 166 59 Q 167 52 167 45 Q 167 41 165 36 L 177 34 Q 179 35 181 36 Q 185 40 184 42 Q 182 45 178 58 L 177 65 Q 174 80 171 95 L 162 97 Q 164 81 165 67" fill="#000080" clip-path="url(#clip-mask-9)" /><path d="M 118 104 Q 127 102 138 101 L 147 99 Q 154 98 162 97 L 171 95 Q 172 95 173 95 Q 183 92 188 93 Q 192 95 193 96 L 190 102 Q 163 105 126 110 Q 122 111 119 111" fill="#000080" clip-path="url(#clip-mask-10)" /><path d="M 136 128 L 148 126 Q 158 124 169 121 Q 176 119 184 120 Q 191 123 192 126 Q 194 128 191 130 Q 190 131 181 132 Q 162 135 143 138 Q 129 142 119 135 Q 113 130 122 129" fill="#000080" clip-path="url(#clip-mask-11)" /><path d="M 122 169 L 102 174 Q 98 176 93 174 Q 88 173 85 170 Q 80 165 86 165 Q 180 152 212 145 Q 221 143 234 152 Q 239 156 237 158 Q 236 161 231 161 Q 181 160 156 164 L 145 166" fill="#000080" clip-path="url(#clip-mask-12)" /><path d="M 156 164 Q 158 166 160 169 Q 165 174 163 185 Q 163 193 163 217 Q 164 233 159 242 Q 156 251 152 252 Q 150 252 146 248 L 147 222 Q 148 219 149 205 Q 149 176 146 167 Q 145 166 145 166" fill="#000080" clip-path="url(#clip-mask-13)" /><path d="M 146 248 Q 141 240 126 226 Q 124 224 124 222 Q 124 220 127 221 Q 134 222 140 224 Q 146 225 147 222" fill="#000080" clip-path="url(#clip-mask-14)" /><path d="M 108 185 L 110 185 Q 112 186 112 188 Q 113 194 110 202 Q 109 208 104 216 Q 99 223 93 225 Q 88 227 87 223 Q 85 214 90 207 Q 99 198 107 187" fill="#000080" clip-path="url(#clip-mask-15)" /><path d="M 188 186 L 189 183 Q 189 179 191 181 Q 208 188 211 191 Q 227 199 229 210 Q 232 221 228 224 Q 226 226 224 226 Q 220 224 217 219 Q 203 201 191 189" fill="#000080" clip-path="url(#clip-mask-16)" /><rect x="53" y="30" width="34" height="28" id="rect-1" fill="transparent" stroke="#000000"><animate attributeName="x" from="19" to="53" dur="0.126" begin="0; animate16.end + 1s" id="animate1" fill="freeze"/></rect><rect x="35" y="83" width="33" height="26" id="rect-2" fill="transparent" stroke="#000000"><set attributeName="x" to="2" begin="0; animate16.end + 1s" /><animate attributeName="x" from="2" to="35" dur="0.122" begin="animate1.end + 0.5" id="animate2" fill="freeze"/></rect><rect x="30" y="114" width="52" height="105" id="rect-3" fill="transparent" stroke="#000000"><set attributeName="y" to="219" begin="0; animate16.end + 1s" /><animate attributeName="y" from="219" to="114" dur="0.389" begin="animate2.end + 0.5" id="animate3" fill="freeze"/></rect><rect x="109" y="17" width="96" height="24" id="rect-4" fill="transparent" stroke="#000000"><set attributeName="x" to="13" begin="0; animate16.end + 1s" /><animate attributeName="x" from="13" to="109" dur="0.356" begin="animate3.end + 0.5" id="animate4" fill="freeze"/></rect><rect x="93" y="65" width="26" height="52" id="rect-5" fill="transparent" stroke="#000000"><set attributeName="y" to="13" begin="0; animate16.end + 1s" /><animate attributeName="y" from="13" to="65" dur="0.193" begin="animate4.end + 0.5" id="animate5" fill="freeze"/></rect><rect x="110" y="52" width="114" height="25" id="rect-6" fill="transparent" stroke="#000000"><set attributeName="x" to="-4" begin="0; animate16.end + 1s" /><animate attributeName="x" from="-4" to="110" dur="0.422" begin="animate5.end + 0.5" id="animate6" fill="freeze"/></rect><rect x="190" y="66" width="37" height="47" id="rect-7" fill="transparent" stroke="#000000"><set attributeName="y" to="19" begin="0; animate16.end + 1s" /><animate attributeName="y" from="19" to="66" dur="0.174" begin="animate6.end" id="animate7" fill="freeze"/></rect><rect x="127" y="41" width="20" height="60" id="rect-8" fill="transparent" stroke="#000000"><set attributeName="y" to="-19" begin="0; animate16.end + 1s" /><animate attributeName="y" from="-19" to="41" dur="0.222" begin="animate7.end + 0.5" id="animate8" fill="freeze"/></rect><rect x="162" y="34" width="23" height="63" id="rect-9" fill="transparent" stroke="#000000"><set attributeName="y" to="-29" begin="0; animate16.end + 1s" /><animate attributeName="y" from="-29" to="34" dur="0.233" begin="animate8.end + 0.5" id="animate9" fill="freeze"/></rect><rect x="118" y="92" width="75" height="19" id="rect-10" fill="transparent" stroke="#000000"><set attributeName="x" to="43" begin="0; animate16.end + 1s" /><animate attributeName="x" from="43" to="118" dur="0.278" begin="animate9.end + 0.5" id="animate10" fill="freeze"/></rect><rect x="113" y="119" width="81" height="23" id="rect-11" fill="transparent" stroke="#000000"><set attributeName="x" to="32" begin="0; animate16.end + 1s" /><animate attributeName="x" from="32" to="113" dur="0.300" begin="animate10.end + 0.5" id="animate11" fill="freeze"/></rect><rect x="80" y="143" width="159" height="33" id="rect-12" fill="transparent" stroke="#000000"><set attributeName="x" to="-79" begin="0; animate16.end + 1s" /><animate attributeName="x" from="-79" to="80" dur="0.589" begin="animate11.end + 0.5" id="animate12" fill="freeze"/></rect><rect x="145" y="164" width="20" height="88" id="rect-13" fill="transparent" stroke="#000000"><set attributeName="y" to="76" begin="0; animate16.end + 1s" /><animate attributeName="y" from="76" to="164" dur="0.326" begin="animate12.end + 0.5" id="animate13" fill="freeze"/></rect><rect x="124" y="220" width="23" height="28" id="rect-14" fill="transparent" stroke="#000000"><set attributeName="x" to="147" begin="0; animate16.end + 1s" /><animate attributeName="x" from="147" to="124" dur="0.085" begin="animate13.end" id="animate14" fill="freeze"/></rect><rect x="85" y="185" width="28" height="42" id="rect-15" fill="transparent" stroke="#000000"><set attributeName="y" to="143" begin="0; animate16.end + 1s" /><animate attributeName="y" from="143" to="185" dur="0.156" begin="animate14.end + 0.5" id="animate15" fill="freeze"/></rect><rect x="188" y="179" width="44" height="47" id="rect-16" fill="transparent" stroke="#000000"><set attributeName="x" to="144" begin="0; animate16.end + 1s" /><animate attributeName="x" from="144" to="188" dur="0.163" begin="animate15.end + 0.5" id="animate16" fill="freeze"/></rect></svg>