<svg xmlns="http://www.w3.org/2000/svg" xmlns:xlink="http://www.w3.org/1999/xlink" width="270" height="270"><defs><clipPath id="clip-mask-1"><use xlink:href="#rect-1" /></clipPath><clipPath id="clip-mask-2"><use xlink:href="#rect-2" /></clipPath><clipPath id="clip-mask-3"><use xlink:href="#rect-3" /></clipPath><clipPath id="clip-mask-4"><use xlink:href="#rect-4" /></clipPath><clipPath id="clip-mask-5"><use xlink:href="#rect-5" /></clipPath><clipPath id="clip-mask-6"><use xlink:href="#rect-6" /></clipPath><clipPath id="clip-mask-7"><use xlink:href="#rect-7" /></clipPath><clipPath id="clip-mask-8"><use xlink:href="#rect-8" /></clipPath><clipPath id="clip-mask-9"><use xlink:href="#rect-9" /></clipPath><clipPath id="clip-mask-10"><use xlink:href="#rect-10" /></clipPath><clipPath id="clip-mask-11"><use xlink:href="#rect-11" /></clipPath><clipPath id="clip-mask-12"><use xlink:href="#rect-12" /></clipPath><clipPath id="clip-mask-13"><use xlink:href="#rect-13" /></clipPath><clipPath id="clip-mask-14"><use xlink:href="#rect-14" /></clipPath><clipPath id="clip-mask-15"><use xlink:href="#rect-15" /></clipPath><clipPath id="clip-mask-16"><use xlink:href="#rect-16" /></clipPath><clipPath id="clip-mask-17"><use xlink:href="#rect-17" /></clipPath></defs><path d="M 0 0 L 270 270 M 270 0 L 0 270 M 135 0 L 135 270 M 0 135 L 270 135" stroke="#CCCCCC" /><path d="M 50 34 L 50 30 Q 49 26 51 25 Q 53 25 57 26 Q 81 34 83 41 Q 85 50 83 54 Q 82 58 78 58 Q 74 58 70 54 Q 64 46 58 40" fill="#CCCCCC"/><path d="M 32 83 L 31 80 Q 31 76 33 76 Q 35 75 40 77 L 40 77 Q 61 83 64 97 Q 64 101 62 105 Q 59 108 55 107 Q 46 103 36 87" fill="#CCCCCC"/><path d="M 38 180 L 41 173 Q 73 117 76 115 Q 78 113 79 116 Q 79 118 77 122 Q 50 196 48 211 Q 47 218 45 218 Q 43 219 41 217 Q 32 212 27 192 Q 26 188 30 187" fill="#CCCCCC"/><path d="M 161 30 Q 138 34 135 35 L 123 35 Q 117 34 114 32 Q 108 28 116 27 Q 134 25 149 22 Q 162 18 174 14 Q 181 11 189 13 Q 195 15 197 18 Q 198 20 196 21 Q 194 23 184 25 Q 177 26 171 28" fill="#CCCCCC"/><path d="M 113 96 L 113 97 Q 112 101 107 96 Q 104 93 103 89 Q 98 73 92 64 Q 90 60 91 58 Q 92 57 95 58 Q 102 58 105 59 L 109 68 Q 110 74 113 87 Q 113 88 113 88 L 113 96" fill="#CCCCCC"/><path d="M 200 53 Q 194 49 175 53 L 162 56 Q 150 58 140 60 L 130 63 Q 118 65 109 68 L 105 59 Q 116 57 129 55 L 140 52 Q 152 50 163 48 L 177 46 Q 190 43 200 40 Q 204 40 208 43 Q 218 51 221 56" fill="#CCCCCC"/><path d="M 186 78 Q 190 77 191 75 Q 193 73 200 57 Q 201 55 200 53 L 221 56 Q 224 60 220 62 Q 213 68 210 75 Q 200 90 197 92 Q 192 97 190 94 Q 187 91 184 85" fill="#CCCCCC"/><path d="M 140 60 Q 141 71 142 83 L 133 85 Q 131 71 130 63 L 129 55 Q 127 41 123 35 L 135 35 Q 140 40 140 44 Q 140 49 140 52" fill="#CCCCCC"/><path d="M 175 53 Q 172 65 169 76 L 159 79 Q 161 67 162 56 L 163 48 Q 163 43 164 39 Q 164 36 161 31 Q 161 30 161 30 L 171 28 Q 174 29 178 33 Q 181 37 180 38 Q 178 43 177 46" fill="#CCCCCC"/><path d="M 185 76 L 186 78 L 184 85 Q 138 90 117 95 Q 115 96 113 96 L 113 88 Q 122 86 133 85 L 142 83 Q 150 81 159 79 L 169 76 Q 177 72 183 75" fill="#CCCCCC"/><path d="M 127 157 Q 126 161 123 161 Q 114 156 113 142 Q 109 121 103 113 Q 100 111 102 110 Q 103 108 105 109 Q 109 110 113 112 L 120 119 Q 120 123 122 130 L 123 135 Q 123 138 124 141 Q 125 146 126 151" fill="#CCCCCC"/><path d="M 113 112 Q 122 110 136 107 Q 164 101 173 101 Q 188 98 192 100 Q 204 107 208 111 L 184 109 Q 181 108 175 108 Q 129 114 120 119" fill="#CCCCCC"/><path d="M 208 111 Q 212 115 207 119 Q 198 126 193 138 Q 185 155 180 156 Q 176 156 175 152 Q 175 151 175 150 L 176 145 Q 176 144 176 143 Q 178 139 184 116 Q 185 110 184 109" fill="#CCCCCC"/><path d="M 122 130 Q 154 120 161 121 Q 167 122 170 126 Q 172 129 166 130 Q 150 132 128 135 Q 125 136 123 135" fill="#CCCCCC"/><path d="M 139 155 Q 129 156 127 157 L 126 151 Q 166 141 172 143 Q 174 143 176 145 L 175 150 Q 164 152 152 153" fill="#CCCCCC"/><path d="M 124 186 L 87 195 Q 83 196 78 195 Q 73 193 69 189 Q 65 185 71 184 Q 110 180 144 176 L 160 174 Q 194 169 215 165 Q 225 163 239 173 Q 243 177 242 180 Q 240 182 235 182 Q 176 182 159 184 L 144 185" fill="#CCCCCC"/><path d="M 144 176 Q 143 163 142 159 Q 139 157 139 155 L 152 153 Q 156 155 159 157 Q 162 160 161 164 Q 161 166 160 170 Q 160 172 160 174 L 159 184 Q 158 211 158 219 Q 158 253 151 257 Q 150 258 148 256 Q 144 250 144 221 Q 144 200 144 185" fill="#CCCCCC"/><path d="M 50 34 L 50 30 Q 49 26 51 25 Q 53 25 57 26 Q 81 34 83 41 Q 85 50 83 54 Q 82 58 78 58 Q 74 58 70 54 Q 64 46 58 40" fill="#0000ff" clip-path="url(#clip-mask-1)" /><path d="M 32 83 L 31 80 Q 31 76 33 76 Q 35 75 40 77 L 40 77 Q 61 83 64 97 Q 64 101 62 105 Q 59 108 55 107 Q 46 103 36 87" fill="#0000ff" clip-path="url(#clip-mask-2)" /><path d="M 38 180 L 41 173 Q 73 117 76 115 Q 78 113 79 116 Q 79 118 77 122 Q 50 196 48 211 Q 47 218 45 218 Q 43 219 41 217 Q 32 212 27 192 Q 26 188 30 187" fill="#0000ff" clip-path="url(#clip-mask-3)" /><path d="M 161 30 Q 138 34 135 35 L 123 35 Q 117 34 114 32 Q 108 28 116 27 Q 134 25 149 22 Q 162 18 174 14 Q 181 11 189 13 Q 195 15 197 18 Q 198 20 196 21 Q 194 23 184 25 Q 177 26 171 28" fill="#000080" clip-path="url(#clip-mask-4)" /><path d="M 113 96 L 113 97 Q 112 101 107 96 Q 104 93 103 89 Q 98 73 92 64 Q 90 60 91 58 Q 92 57 95 58 Q 102 58 105 59 L 109 68 Q 110 74 113 87 Q 113 88 113 88 L 113 96" fill="#000080" clip-path="url(#clip-mask-5)" /><path d="M 200 53 Q 194 49 175 53 L 162 56 Q 150 58 140 60 L 130 63 Q 118 65 109 68 L 105 59 Q 116 57 129 55 L 140 52 Q 152 50 163 48 L 177 46 Q 190 43 200 40 Q 204 40 208 43 Q 218 51 221 56" fill="#000080" clip-path="url(#clip-mask-6)" /><path d="M 186 78 Q 190 77 191 75 Q 193 73 200 57 Q 201 55 200 53 L 221 56 Q 224 60 220 62 Q 213 68 210 75 Q 200 90 197 92 Q 192 97 190 94 Q 187 91 184 85" fill="#000080" clip-path="url(#clip-mask-7)" /><path d="M 140 60 Q 141 71 142 83 L 133 85 Q 131 71 130 63 L 129 55 Q 127 41 123 35 L 135 35 Q 140 40 140 44 Q 140 49 140 52" fill="#000080" clip-path="url(#clip-mask-8)" /><path d="M 175 53 Q 172 65 169 76 L 159 79 Q 161 67 162 56 L 163 48 Q 163 43 164 39 Q 164 36 161 31 Q 161 30 161 30 L 171 28 Q 174 29 178 33 Q 181 37 180 38 Q 178 43 177 46" fill="#000080" clip-path="url(#clip-mask-9)" /><path d="M 185 76 L 186 78 L 184 85 Q 138 90 117 95 Q 115 96 113 96 L 113 88 Q 122 86 133 85 L 142 83 Q 150 81 159 79 L 169 76 Q 177 72 183 75" fill="#000080" clip-path="url(#clip-mask-10)" /><path d="M 127 157 Q 126 161 123 161 Q 114 156 113 142 Q 109 121 103 113 Q 100 111 102 110 Q 103 108 105 109 Q 109 110 113 112 L 120 119 Q 120 123 122 130 L 123 135 Q 123 138 124 141 Q 125 146 126 151" fill="#000080" clip-path="url(#clip-mask-11)" /><path d="M 113 112 Q 122 110 136 107 Q 164 101 173 101 Q 188 98 192 100 Q 204 107 208 111 L 184 109 Q 181 108 175 108 Q 129 114 120 119" fill="#000080" clip-path="url(#clip-mask-12)" /><path d="M 208 111 Q 212 115 207 119 Q 198 126 193 138 Q 185 155 180 156 Q 176 156 175 152 Q 175 151 175 150 L 176 145 Q 176 144 176 143 Q 178 139 184 116 Q 185 110 184 109" fill="#000080" clip-path="url(#clip-mask-13)" /><path d="M 122 130 Q 154 120 161 121 Q 167 122 170 126 Q 172 129 166 130 Q 150 132 128 135 Q 125 136 123 135" fill="#000080" clip-path="url(#clip-mask-14)" /><path d="M 139 155 Q 129 156 127 157 L 126 151 Q 166 141 172 143 Q 174 143 176 145 L 175 150 Q 164 152 152 153" fill="#000080" clip-path="url(#clip-mask-15)" /><path d="M 124 186 L 87 195 Q 83 196 78 195 Q 73 193 69 189 Q 65 185 71 184 Q 110 180 144 176 L 160 174 Q 194 169 215 165 Q 225 163 239 173 Q 243 177 242 180 Q 240 182 235 182 Q 176 182 159 184 L 144 185" fill="#000080" clip-path="url(#clip-mask-16)" /><path d="M 144 176 Q 143 163 142 159 Q 139 157 139 155 L 152 153 Q 156 155 159 157 Q 162 160 161 164 Q 161 166 160 170 Q 160 172 160 174 L 159 184 Q 158 211 158 219 Q 158 253 151 257 Q 150 258 148 256 Q 144 250 144 221 Q 144 200 144 185" fill="#000080" clip-path="url(#clip-mask-17)" /><rect x="49" y="25" width="36" height="33" id="rect-1" fill="transparent" stroke="#000000"><animate attributeName="x" from="13" to="49" dur="0.133" begin="0; animate17.end + 1s" id="animate1" fill="freeze"/></rect><rect x="31" y="75" width="33" height="33" id="rect-2" fill="transparent" stroke="#000000"><set attributeName="x" to="-2" begin="0; animate17.end + 1s" /><animate attributeName="x" from="-2" to="31" dur="0.122" begin="animate1.end + 0.5" id="animate2" fill="freeze"/></rect><rect x="26" y="113" width="53" height="106" id="rect-3" fill="transparent" stroke="#000000"><set attributeName="y" to="219" begin="0; animate17.end + 1s" /><animate attributeName="y" from="219" to="113" dur="0.393" begin="animate2.end + 0.5" id="animate3" fill="freeze"/></rect><rect x="108" y="11" width="90" height="24" id="rect-4" fill="transparent" stroke="#000000"><set attributeName="x" to="18" begin="0; animate17.end + 1s" /><animate attributeName="x" from="18" to="108" dur="0.333" begin="animate3.end + 0.5" id="animate4" fill="freeze"/></rect><rect x="90" y="57" width="23" height="44" id="rect-5" fill="transparent" stroke="#000000"><set attributeName="y" to="13" begin="0; animate17.end + 1s" /><animate attributeName="y" from="13" to="57" dur="0.163" begin="animate4.end + 0.5" id="animate5" fill="freeze"/></rect><rect x="105" y="40" width="116" height="28" id="rect-6" fill="transparent" stroke="#000000"><set attributeName="x" to="-11" begin="0; animate17.end + 1s" /><animate attributeName="x" from="-11" to="105" dur="0.430" begin="animate5.end + 0.5" id="animate6" fill="freeze"/></rect><rect x="184" y="53" width="40" height="44" id="rect-7" fill="transparent" stroke="#000000"><set attributeName="y" to="9" begin="0; animate17.end + 1s" /><animate attributeName="y" from="9" to="53" dur="0.163" begin="animate6.end" id="animate7" fill="freeze"/></rect><rect x="123" y="35" width="19" height="50" id="rect-8" fill="transparent" stroke="#000000"><set attributeName="y" to="-15" begin="0; animate17.end + 1s" /><animate attributeName="y" from="-15" to="35" dur="0.185" begin="animate7.end + 0.5" id="animate8" fill="freeze"/></rect><rect x="159" y="28" width="22" height="51" id="rect-9" fill="transparent" stroke="#000000"><set attributeName="y" to="-23" begin="0; animate17.end + 1s" /><animate attributeName="y" from="-23" to="28" dur="0.189" begin="animate8.end + 0.5" id="animate9" fill="freeze"/></rect><rect x="113" y="72" width="73" height="24" id="rect-10" fill="transparent" stroke="#000000"><set attributeName="x" to="40" begin="0; animate17.end + 1s" /><animate attributeName="x" from="40" to="113" dur="0.270" begin="animate9.end + 0.5" id="animate10" fill="freeze"/></rect><rect x="100" y="108" width="27" height="53" id="rect-11" fill="transparent" stroke="#000000"><set attributeName="y" to="55" begin="0; animate17.end + 1s" /><animate attributeName="y" from="55" to="108" dur="0.196" begin="animate10.end + 0.5" id="animate11" fill="freeze"/></rect><rect x="113" y="98" width="95" height="21" id="rect-12" fill="transparent" stroke="#000000"><set attributeName="x" to="18" begin="0; animate17.end + 1s" /><animate attributeName="x" from="18" to="113" dur="0.352" begin="animate11.end + 0.5" id="animate12" fill="freeze"/></rect><rect x="175" y="109" width="37" height="47" id="rect-13" fill="transparent" stroke="#000000"><set attributeName="y" to="62" begin="0; animate17.end + 1s" /><animate attributeName="y" from="62" to="109" dur="0.174" begin="animate12.end" id="animate13" fill="freeze"/></rect><rect x="122" y="120" width="50" height="16" id="rect-14" fill="transparent" stroke="#000000"><set attributeName="x" to="72" begin="0; animate17.end + 1s" /><animate attributeName="x" from="72" to="122" dur="0.185" begin="animate13.end + 0.5" id="animate14" fill="freeze"/></rect><rect x="126" y="141" width="50" height="16" id="rect-15" fill="transparent" stroke="#000000"><set attributeName="x" to="76" begin="0; animate17.end + 1s" /><animate attributeName="x" from="76" to="126" dur="0.185" begin="animate14.end + 0.5" id="animate15" fill="freeze"/></rect><rect x="65" y="163" width="178" height="33" id="rect-16" fill="transparent" stroke="#000000"><set attributeName="x" to="-113" begin="0; animate17.end + 1s" /><animate attributeName="x" from="-113" to="65" dur="0.659" begin="animate15.end + 0.5" id="animate16" fill="freeze"/></rect><rect x="139" y="153" width="23" height="105" id="rect-17" fill="transparent" stroke="#000000"><set attributeName="y" to="48" begin="0; animate17.end + 1s" /><animate attributeName="y" from="48" to="153" dur="0.389" begin="animate16.end + 0.5" id="animate17" fill="freeze"/></rect></svg>