<svg xmlns="http://www.w3.org/2000/svg" xmlns:xlink="http://www.w3.org/1999/xlink" width="270" height="270"><defs><clipPath id="clip-mask-1"><use xlink:href="#rect-1" /></clipPath><clipPath id="clip-mask-2"><use xlink:href="#rect-2" /></clipPath><clipPath id="clip-mask-3"><use xlink:href="#rect-3" /></clipPath><clipPath id="clip-mask-4"><use xlink:href="#rect-4" /></clipPath><clipPath id="clip-mask-5"><use xlink:href="#rect-5" /></clipPath><clipPath id="clip-mask-6"><use xlink:href="#rect-6" /></clipPath><clipPath id="clip-mask-7"><use xlink:href="#rect-7" /></clipPath><clipPath id="clip-mask-8"><use xlink:href="#rect-8" /></clipPath><clipPath id="clip-mask-9"><use xlink:href="#rect-9" /></clipPath><clipPath id="clip-mask-10"><use xlink:href="#rect-10" /></clipPath><clipPath id="clip-mask-11"><use xlink:href="#rect-11" /></clipPath><clipPath id="clip-mask-12"><use xlink:href="#rect-12" /></clipPath><clipPath id="clip-mask-13"><use xlink:href="#rect-13" /></clipPath><clipPath id="clip-mask-14"><use xlink:href="#rect-14" /></clipPath><clipPath id="clip-mask-15"><use xlink:href="#rect-15" /></clipPath><clipPath id="clip-mask-16"><use xlink:href="#rect-16" /></clipPath><clipPath id="clip-mask-17"><use xlink:href="#rect-17" /></clipPath><clipPath id="clip-mask-18"><use xlink:href="#rect-18" /></clipPath><clipPath id="clip-mask-19"><use xlink:href="#rect-19" /></clipPath></defs><path d="M 0 0 L 270 270 M 270 0 L 0 270 M 135 0 L 135 270 M 0 135 L 270 135" stroke="#CCCCCC" /><path d="M 36 54 L 35 51 Q 34 48 36 46 Q 39 44 58 51 Q 65 55 67 60 Q 69 68 68 72 Q 66 76 64 76 Q 59 76 56 72 Q 49 65 43 60" fill="#CCCCCC"/><path d="M 21 103 L 20 99 Q 20 96 21 96 Q 24 96 28 97 L 28 97 Q 49 103 52 115 Q 53 119 51 122 Q 49 125 45 124 Q 37 121 24 106" fill="#CCCCCC"/><path d="M 28 191 L 30 185 Q 57 135 60 132 Q 62 130 62 133 Q 63 134 61 138 Q 39 207 38 219 Q 38 226 37 226 Q 34 227 32 225 Q 24 222 18 203 Q 18 198 21 197" fill="#CCCCCC"/><path d="M 93 81 Q 93 81 93 81 Q 98 70 103 59 Q 112 39 108 32 Q 106 29 109 28 Q 112 26 119 28 Q 126 29 131 32 Q 135 36 130 40 Q 129 41 100 79" fill="#CCCCCC"/><path d="M 93 131 L 93 132 Q 92 136 88 131 Q 84 127 84 120 Q 79 100 73 87 Q 71 84 72 82 Q 73 81 76 82 Q 81 82 83 83 L 88 90 Q 88 93 90 103 L 91 108 Q 93 120 93 122 L 94 129" fill="#CCCCCC"/><path d="M 132 81 Q 130 81 126 81 Q 91 87 88 90 L 83 83 Q 88 82 93 81 L 100 79 Q 110 76 122 75 Q 135 70 139 73 Q 150 78 154 82" fill="#CCCCCC"/><path d="M 126 120 Q 129 114 133 89 Q 134 82 132 81 L 154 82 Q 158 85 153 89 Q 146 95 143 106 Q 138 123 136 126 Q 134 130 131 130 Q 128 130 127 127 Q 126 126 126 125" fill="#CCCCCC"/><path d="M 90 103 Q 108 96 115 97 Q 120 98 122 101 Q 124 103 119 104 Q 108 106 92 108 Q 91 108 91 108" fill="#CCCCCC"/><path d="M 93 122 Q 103 120 115 117 Q 120 116 123 118 Q 125 119 126 120 L 126 125 Q 105 126 95 129 Q 94 129 94 129" fill="#CCCCCC"/><path d="M 108 149 Q 107 148 106 146 Q 101 135 101 134 Q 102 131 103 132 Q 113 135 116 142 Q 117 145 116 146" fill="#CCCCCC"/><path d="M 96 160 Q 88 162 82 163 Q 73 165 67 161 Q 63 158 68 157 Q 102 150 106 149 Q 107 149 108 149 L 116 146 Q 131 141 138 145 Q 142 147 142 149 Q 140 152 138 151 Q 112 156 104 158" fill="#CCCCCC"/><path d="M 100 178 L 100 180 Q 68 220 52 220 Q 51 220 51 219 Q 52 216 55 216 Q 96 178 96 160 L 104 158 Q 106 160 108 165 Q 108 166 109 166 L 105 173" fill="#CCCCCC"/><path d="M 109 166 Q 110 167 116 167 Q 129 168 135 174 Q 140 180 140 181 L 120 179 Q 118 175 105 173" fill="#CCCCCC"/><path d="M 140 181 Q 139 184 137 185 Q 131 190 129 202 Q 123 228 111 238 Q 103 243 101 242 L 104 221 Q 109 218 113 209 Q 123 185 120 179" fill="#CCCCCC"/><path d="M 101 242 Q 98 240 97 237 Q 95 229 85 221 Q 82 218 83 216 Q 84 215 92 218 Q 101 221 104 221" fill="#CCCCCC"/><path d="M 166 115 Q 155 130 151 132 Q 147 133 148 130 Q 148 129 150 126 Q 160 107 167 90 Q 174 73 177 55 Q 179 49 175 44 Q 172 39 176 38 Q 181 37 188 41 Q 196 45 197 48 Q 199 51 197 54 Q 194 58 190 68 Q 185 79 169 109" fill="#CCCCCC"/><path d="M 179 118 Q 172 117 166 115 L 166 115 L 169 109 Q 180 108 190 105 Q 199 103 207 100 Q 214 97 221 98 Q 228 99 230 102 Q 231 104 229 106 Q 227 107 190 116" fill="#CCCCCC"/><path d="M 172 205 L 164 210 Q 146 222 135 221 Q 128 222 134 219 Q 161 202 170 185 L 175 175 Q 189 139 179 118 L 190 116 Q 196 116 199 121 Q 201 123 199 125 Q 198 128 197 134 Q 192 167 184 185 L 178 196" fill="#CCCCCC"/><path d="M 170 185 Q 165 178 159 170 Q 154 162 146 157 Q 144 156 145 155 Q 146 153 152 153 Q 156 154 158 158 Q 167 167 175 175 L 184 185 Q 186 187 189 189 Q 213 211 248 225 Q 251 226 250 227 Q 248 230 214 233 Q 208 234 204 229 Q 192 214 178 196" fill="#CCCCCC"/><path d="M 36 54 L 35 51 Q 34 48 36 46 Q 39 44 58 51 Q 65 55 67 60 Q 69 68 68 72 Q 66 76 64 76 Q 59 76 56 72 Q 49 65 43 60" fill="#0000ff" clip-path="url(#clip-mask-1)" /><path d="M 21 103 L 20 99 Q 20 96 21 96 Q 24 96 28 97 L 28 97 Q 49 103 52 115 Q 53 119 51 122 Q 49 125 45 124 Q 37 121 24 106" fill="#0000ff" clip-path="url(#clip-mask-2)" /><path d="M 28 191 L 30 185 Q 57 135 60 132 Q 62 130 62 133 Q 63 134 61 138 Q 39 207 38 219 Q 38 226 37 226 Q 34 227 32 225 Q 24 222 18 203 Q 18 198 21 197" fill="#0000ff" clip-path="url(#clip-mask-3)" /><path d="M 93 81 Q 93 81 93 81 Q 98 70 103 59 Q 112 39 108 32 Q 106 29 109 28 Q 112 26 119 28 Q 126 29 131 32 Q 135 36 130 40 Q 129 41 100 79" fill="#000080" clip-path="url(#clip-mask-4)" /><path d="M 93 131 L 93 132 Q 92 136 88 131 Q 84 127 84 120 Q 79 100 73 87 Q 71 84 72 82 Q 73 81 76 82 Q 81 82 83 83 L 88 90 Q 88 93 90 103 L 91 108 Q 93 120 93 122 L 94 129" fill="#000080" clip-path="url(#clip-mask-5)" /><path d="M 132 81 Q 130 81 126 81 Q 91 87 88 90 L 83 83 Q 88 82 93 81 L 100 79 Q 110 76 122 75 Q 135 70 139 73 Q 150 78 154 82" fill="#000080" clip-path="url(#clip-mask-6)" /><path d="M 126 120 Q 129 114 133 89 Q 134 82 132 81 L 154 82 Q 158 85 153 89 Q 146 95 143 106 Q 138 123 136 126 Q 134 130 131 130 Q 128 130 127 127 Q 126 126 126 125" fill="#000080" clip-path="url(#clip-mask-7)" /><path d="M 90 103 Q 108 96 115 97 Q 120 98 122 101 Q 124 103 119 104 Q 108 106 92 108 Q 91 108 91 108" fill="#000080" clip-path="url(#clip-mask-8)" /><path d="M 93 122 Q 103 120 115 117 Q 120 116 123 118 Q 125 119 126 120 L 126 125 Q 105 126 95 129 Q 94 129 94 129" fill="#000080" clip-path="url(#clip-mask-9)" /><path d="M 108 149 Q 107 148 106 146 Q 101 135 101 134 Q 102 131 103 132 Q 113 135 116 142 Q 117 145 116 146" fill="#000080" clip-path="url(#clip-mask-10)" /><path d="M 96 160 Q 88 162 82 163 Q 73 165 67 161 Q 63 158 68 157 Q 102 150 106 149 Q 107 149 108 149 L 116 146 Q 131 141 138 145 Q 142 147 142 149 Q 140 152 138 151 Q 112 156 104 158" fill="#000080" clip-path="url(#clip-mask-11)" /><path d="M 100 178 L 100 180 Q 68 220 52 220 Q 51 220 51 219 Q 52 216 55 216 Q 96 178 96 160 L 104 158 Q 106 160 108 165 Q 108 166 109 166 L 105 173" fill="#000080" clip-path="url(#clip-mask-12)" /><path d="M 109 166 Q 110 167 116 167 Q 129 168 135 174 Q 140 180 140 181 L 120 179 Q 118 175 105 173" fill="#000080" clip-path="url(#clip-mask-13)" /><path d="M 140 181 Q 139 184 137 185 Q 131 190 129 202 Q 123 228 111 238 Q 103 243 101 242 L 104 221 Q 109 218 113 209 Q 123 185 120 179" fill="#000080" clip-path="url(#clip-mask-14)" /><path d="M 101 242 Q 98 240 97 237 Q 95 229 85 221 Q 82 218 83 216 Q 84 215 92 218 Q 101 221 104 221" fill="#000080" clip-path="url(#clip-mask-15)" /><path d="M 166 115 Q 155 130 151 132 Q 147 133 148 130 Q 148 129 150 126 Q 160 107 167 90 Q 174 73 177 55 Q 179 49 175 44 Q 172 39 176 38 Q 181 37 188 41 Q 196 45 197 48 Q 199 51 197 54 Q 194 58 190 68 Q 185 79 169 109" fill="#000080" clip-path="url(#clip-mask-16)" /><path d="M 179 118 Q 172 117 166 115 L 166 115 L 169 109 Q 180 108 190 105 Q 199 103 207 100 Q 214 97 221 98 Q 228 99 230 102 Q 231 104 229 106 Q 227 107 190 116" fill="#000080" clip-path="url(#clip-mask-17)" /><path d="M 172 205 L 164 210 Q 146 222 135 221 Q 128 222 134 219 Q 161 202 170 185 L 175 175 Q 189 139 179 118 L 190 116 Q 196 116 199 121 Q 201 123 199 125 Q 198 128 197 134 Q 192 167 184 185 L 178 196" fill="#000080" clip-path="url(#clip-mask-18)" /><path d="M 170 185 Q 165 178 159 170 Q 154 162 146 157 Q 144 156 145 155 Q 146 153 152 153 Q 156 154 158 158 Q 167 167 175 175 L 184 185 Q 186 187 189 189 Q 213 211 248 225 Q 251 226 250 227 Q 248 230 214 233 Q 208 234 204 229 Q 192 214 178 196" fill="#000080" clip-path="url(#clip-mask-19)" /><rect x="34" y="44" width="35" height="32" id="rect-1" fill="transparent" stroke="#000000"><animate attributeName="x" from="-1" to="34" dur="0.130" begin="0; animate19.end + 1s" id="animate1" fill="freeze"/></rect><rect x="20" y="96" width="33" height="29" id="rect-2" fill="transparent" stroke="#000000"><set attributeName="x" to="-13" begin="0; animate19.end + 1s" /><animate attributeName="x" from="-13" to="20" dur="0.122" begin="animate1.end + 0.5" id="animate2" fill="freeze"/></rect><rect x="18" y="130" width="45" height="97" id="rect-3" fill="transparent" stroke="#000000"><set attributeName="y" to="227" begin="0; animate19.end + 1s" /><animate attributeName="y" from="227" to="130" dur="0.359" begin="animate2.end + 0.5" id="animate3" fill="freeze"/></rect><rect x="93" y="26" width="42" height="55" id="rect-4" fill="transparent" stroke="#000000"><set attributeName="y" to="-29" begin="0; animate19.end + 1s" /><animate attributeName="y" from="-29" to="26" dur="0.204" begin="animate3.end + 0.5" id="animate4" fill="freeze"/></rect><rect x="71" y="81" width="23" height="55" id="rect-5" fill="transparent" stroke="#000000"><set attributeName="y" to="26" begin="0; animate19.end + 1s" /><animate attributeName="y" from="26" to="81" dur="0.204" begin="animate4.end + 0.5" id="animate5" fill="freeze"/></rect><rect x="83" y="70" width="71" height="20" id="rect-6" fill="transparent" stroke="#000000"><set attributeName="x" to="12" begin="0; animate19.end + 1s" /><animate attributeName="x" from="12" to="83" dur="0.263" begin="animate5.end + 0.5" id="animate6" fill="freeze"/></rect><rect x="126" y="81" width="32" height="49" id="rect-7" fill="transparent" stroke="#000000"><set attributeName="y" to="32" begin="0; animate19.end + 1s" /><animate attributeName="y" from="32" to="81" dur="0.181" begin="animate6.end" id="animate7" fill="freeze"/></rect><rect x="90" y="96" width="34" height="12" id="rect-8" fill="transparent" stroke="#000000"><set attributeName="x" to="56" begin="0; animate19.end + 1s" /><animate attributeName="x" from="56" to="90" dur="0.126" begin="animate7.end + 0.5" id="animate8" fill="freeze"/></rect><rect x="93" y="116" width="33" height="13" id="rect-9" fill="transparent" stroke="#000000"><set attributeName="x" to="60" begin="0; animate19.end + 1s" /><animate attributeName="x" from="60" to="93" dur="0.122" begin="animate8.end + 0.5" id="animate9" fill="freeze"/></rect><rect x="101" y="131" width="16" height="18" id="rect-10" fill="transparent" stroke="#000000"><set attributeName="y" to="113" begin="0; animate19.end + 1s" /><animate attributeName="y" from="113" to="131" dur="0.067" begin="animate9.end + 0.5" id="animate10" fill="freeze"/></rect><rect x="63" y="141" width="79" height="24" id="rect-11" fill="transparent" stroke="#000000"><set attributeName="x" to="-16" begin="0; animate19.end + 1s" /><animate attributeName="x" from="-16" to="63" dur="0.293" begin="animate10.end + 0.5" id="animate11" fill="freeze"/></rect><rect x="51" y="158" width="58" height="62" id="rect-12" fill="transparent" stroke="#000000"><set attributeName="y" to="96" begin="0; animate19.end + 1s" /><animate attributeName="y" from="96" to="158" dur="0.230" begin="animate11.end + 0.5" id="animate12" fill="freeze"/></rect><rect x="105" y="166" width="35" height="15" id="rect-13" fill="transparent" stroke="#000000"><set attributeName="x" to="70" begin="0; animate19.end + 1s" /><animate attributeName="x" from="70" to="105" dur="0.130" begin="animate12.end + 0.5" id="animate13" fill="freeze"/></rect><rect x="101" y="179" width="39" height="64" id="rect-14" fill="transparent" stroke="#000000"><set attributeName="y" to="115" begin="0; animate19.end + 1s" /><animate attributeName="y" from="115" to="179" dur="0.237" begin="animate13.end" id="animate14" fill="freeze"/></rect><rect x="82" y="215" width="22" height="27" id="rect-15" fill="transparent" stroke="#000000"><set attributeName="x" to="104" begin="0; animate19.end + 1s" /><animate attributeName="x" from="104" to="82" dur="0.081" begin="animate14.end" id="animate15" fill="freeze"/></rect><rect x="147" y="37" width="52" height="96" id="rect-16" fill="transparent" stroke="#000000"><set attributeName="y" to="-59" begin="0; animate19.end + 1s" /><animate attributeName="y" from="-59" to="37" dur="0.356" begin="animate15.end + 0.5" id="animate16" fill="freeze"/></rect><rect x="166" y="97" width="65" height="21" id="rect-17" fill="transparent" stroke="#000000"><set attributeName="x" to="101" begin="0; animate19.end + 1s" /><animate attributeName="x" from="101" to="166" dur="0.241" begin="animate16.end + 0.5" id="animate17" fill="freeze"/></rect><rect x="128" y="116" width="73" height="106" id="rect-18" fill="transparent" stroke="#000000"><set attributeName="y" to="10" begin="0; animate19.end + 1s" /><animate attributeName="y" from="10" to="116" dur="0.393" begin="animate17.end + 0.5" id="animate18" fill="freeze"/></rect><rect x="144" y="153" width="107" height="81" id="rect-19" fill="transparent" stroke="#000000"><set attributeName="x" to="37" begin="0; animate19.end + 1s" /><animate attributeName="x" from="37" to="144" dur="0.396" begin="animate18.end + 0.5" id="animate19" fill="freeze"/></rect></svg>