<svg xmlns="http://www.w3.org/2000/svg" xmlns:xlink="http://www.w3.org/1999/xlink" width="270" height="270"><defs><clipPath id="clip-mask-1"><use xlink:href="#rect-1" /></clipPath><clipPath id="clip-mask-2"><use xlink:href="#rect-2" /></clipPath><clipPath id="clip-mask-3"><use xlink:href="#rect-3" /></clipPath><clipPath id="clip-mask-4"><use xlink:href="#rect-4" /></clipPath><clipPath id="clip-mask-5"><use xlink:href="#rect-5" /></clipPath><clipPath id="clip-mask-6"><use xlink:href="#rect-6" /></clipPath><clipPath id="clip-mask-7"><use xlink:href="#rect-7" /></clipPath><clipPath id="clip-mask-8"><use xlink:href="#rect-8" /></clipPath><clipPath id="clip-mask-9"><use xlink:href="#rect-9" /></clipPath><clipPath id="clip-mask-10"><use xlink:href="#rect-10" /></clipPath><clipPath id="clip-mask-11"><use xlink:href="#rect-11" /></clipPath><clipPath id="clip-mask-12"><use xlink:href="#rect-12" /></clipPath><clipPath id="clip-mask-13"><use xlink:href="#rect-13" /></clipPath><clipPath id="clip-mask-14"><use xlink:href="#rect-14" /></clipPath><clipPath id="clip-mask-15"><use xlink:href="#rect-15" /></clipPath><clipPath id="clip-mask-16"><use xlink:href="#rect-16" /></clipPath><clipPath id="clip-mask-17"><use xlink:href="#rect-17" /></clipPath><clipPath id="clip-mask-18"><use xlink:href="#rect-18" /></clipPath><clipPath id="clip-mask-19"><use xlink:href="#rect-19" /></clipPath><clipPath id="clip-mask-20"><use xlink:href="#rect-20" /></clipPath><clipPath id="clip-mask-21"><use xlink:href="#rect-21" /></clipPath><clipPath id="clip-mask-22"><use xlink:href="#rect-22" /></clipPath></defs><path d="M 0 0 L 270 270 M 270 0 L 0 270 M 135 0 L 135 270 M 0 135 L 270 135" stroke="#CCCCCC" /><path d="M 50 47 L 49 44 Q 49 41 51 40 Q 55 39 72 46 Q 79 50 80 55 Q 82 63 80 66 Q 78 70 76 70 Q 71 70 68 66 Q 62 59 57 53" fill="#CCCCCC"/><path d="M 32 100 L 31 97 Q 30 94 32 94 Q 36 92 44 95 Q 59 97 63 107 Q 64 111 63 115 Q 61 118 57 118 Q 49 115 36 103" fill="#CCCCCC"/><path d="M 40 192 L 43 186 Q 70 136 73 134 Q 75 132 75 135 Q 76 136 74 140 Q 51 208 50 220 Q 50 227 49 227 Q 46 228 44 226 Q 36 223 31 203 Q 30 199 33 198" fill="#CCCCCC"/><path d="M 137 22 L 136 19 Q 136 16 137 15 Q 138 14 142 15 Q 163 18 166 25 Q 168 32 167 36 Q 166 38 164 39 Q 160 39 157 37 Q 150 31 144 26" fill="#CCCCCC"/><path d="M 108 66 L 107 67 Q 105 71 99 83 Q 94 95 90 96 Q 89 97 87 94 Q 85 90 85 85 Q 85 81 88 77 Q 98 61 97 52 Q 98 49 99 48 Q 101 48 102 49 Q 103 50 108 58 L 109 64" fill="#CCCCCC"/><path d="M 108 58 Q 108 57 108 57 Q 119 56 130 53 Q 177 43 184 43 Q 210 36 217 41 Q 234 53 234 56 L 205 52 Q 205 50 201 49 Q 198 48 187 50 Q 136 60 124 65 Q 113 67 109 64" fill="#CCCCCC"/><path d="M 234 56 Q 235 58 226 61 Q 215 63 203 72 Q 199 75 197 74 Q 196 73 197 70 Q 205 53 205 52" fill="#CCCCCC"/><path d="M 112 100 Q 127 79 125 75 Q 125 72 127 72 Q 129 71 133 74 Q 138 76 141 79 Q 143 82 139 84 Q 139 84 138 84 Q 127 90 115 103" fill="#CCCCCC"/><path d="M 119 150 Q 113 143 112 137 Q 107 117 99 104 Q 97 101 98 99 Q 99 98 102 98 Q 109 99 112 100 L 115 103 Q 115 104 115 105 Q 116 108 118 117 L 119 124 Q 122 134 123 139 L 123 146 Q 123 147 123 149 Q 123 149 123 149" fill="#CCCCCC"/><path d="M 118 117 Q 126 111 135 112 Q 141 112 144 115 Q 146 118 141 119 Q 131 121 119 124" fill="#CCCCCC"/><path d="M 190 88 Q 187 87 176 90 Q 164 92 159 90 Q 156 88 157 86 Q 157 85 160 85 Q 164 85 171 83 Q 193 76 198 80 Q 209 86 213 90" fill="#CCCCCC"/><path d="M 179 134 Q 181 129 186 114 L 188 107 Q 189 103 191 98 Q 193 90 190 88 L 213 90 Q 216 94 212 98 Q 203 104 199 115 Q 192 138 188 143 Q 186 146 182 146 Q 179 147 178 143 Q 178 141 178 140" fill="#CCCCCC"/><path d="M 186 114 Q 175 114 160 116 Q 156 116 155 115 Q 151 112 154 111 Q 182 103 188 107" fill="#CCCCCC"/><path d="M 123 139 Q 138 137 156 133 Q 171 128 179 134 L 178 140 Q 145 143 130 146 Q 127 147 124 146 Q 123 146 123 146" fill="#CCCCCC"/><path d="M 112 181 L 105 184 Q 94 189 93 189 Q 91 188 93 187 Q 121 163 119 151 Q 119 150 119 150 L 123 149 Q 124 149 127 150 Q 133 153 135 158 Q 134 160 131 163 Q 129 165 127 167 L 122 172" fill="#CCCCCC"/><path d="M 127 167 Q 146 164 195 153 Q 212 147 218 150 Q 227 153 234 158 Q 239 162 239 164 L 212 164 Q 209 160 184 165 Q 166 169 143 173 Q 129 176 122 172" fill="#CCCCCC"/><path d="M 239 164 Q 239 166 236 170 Q 232 173 231 178 Q 222 227 213 241 Q 204 254 195 254 L 196 231 Q 199 230 202 226 Q 206 219 209 206 Q 215 173 212 164" fill="#CCCCCC"/><path d="M 195 254 Q 192 255 190 250 Q 185 242 176 232 Q 173 230 173 229 Q 173 227 176 228 Q 193 232 196 231" fill="#CCCCCC"/><path d="M 90 193 L 91 192 Q 93 193 94 194 Q 96 200 95 208 Q 96 223 85 231 Q 80 234 78 230 Q 74 222 78 215 Q 84 205 89 195" fill="#CCCCCC"/><path d="M 112 194 L 113 193 Q 114 191 116 192 Q 128 200 129 207 Q 129 212 128 215 Q 125 218 122 216 Q 117 214 112 197" fill="#CCCCCC"/><path d="M 137 188 L 138 187 Q 139 184 141 185 Q 144 186 151 192 Q 156 195 157 199 Q 158 204 157 207 Q 154 211 151 210 Q 146 208 138 191" fill="#CCCCCC"/><path d="M 164 186 L 164 184 Q 164 181 165 180 Q 168 179 183 188 Q 189 192 190 197 Q 191 203 189 206 Q 187 208 186 208 Q 182 207 169 191" fill="#CCCCCC"/><path d="M 50 47 L 49 44 Q 49 41 51 40 Q 55 39 72 46 Q 79 50 80 55 Q 82 63 80 66 Q 78 70 76 70 Q 71 70 68 66 Q 62 59 57 53" fill="#0000ff" clip-path="url(#clip-mask-1)" /><path d="M 32 100 L 31 97 Q 30 94 32 94 Q 36 92 44 95 Q 59 97 63 107 Q 64 111 63 115 Q 61 118 57 118 Q 49 115 36 103" fill="#0000ff" clip-path="url(#clip-mask-2)" /><path d="M 40 192 L 43 186 Q 70 136 73 134 Q 75 132 75 135 Q 76 136 74 140 Q 51 208 50 220 Q 50 227 49 227 Q 46 228 44 226 Q 36 223 31 203 Q 30 199 33 198" fill="#0000ff" clip-path="url(#clip-mask-3)" /><path d="M 137 22 L 136 19 Q 136 16 137 15 Q 138 14 142 15 Q 163 18 166 25 Q 168 32 167 36 Q 166 38 164 39 Q 160 39 157 37 Q 150 31 144 26" fill="#000080" clip-path="url(#clip-mask-4)" /><path d="M 108 66 L 107 67 Q 105 71 99 83 Q 94 95 90 96 Q 89 97 87 94 Q 85 90 85 85 Q 85 81 88 77 Q 98 61 97 52 Q 98 49 99 48 Q 101 48 102 49 Q 103 50 108 58 L 109 64" fill="#000080" clip-path="url(#clip-mask-5)" /><path d="M 108 58 Q 108 57 108 57 Q 119 56 130 53 Q 177 43 184 43 Q 210 36 217 41 Q 234 53 234 56 L 205 52 Q 205 50 201 49 Q 198 48 187 50 Q 136 60 124 65 Q 113 67 109 64" fill="#000080" clip-path="url(#clip-mask-6)" /><path d="M 234 56 Q 235 58 226 61 Q 215 63 203 72 Q 199 75 197 74 Q 196 73 197 70 Q 205 53 205 52" fill="#000080" clip-path="url(#clip-mask-7)" /><path d="M 112 100 Q 127 79 125 75 Q 125 72 127 72 Q 129 71 133 74 Q 138 76 141 79 Q 143 82 139 84 Q 139 84 138 84 Q 127 90 115 103" fill="#000080" clip-path="url(#clip-mask-8)" /><path d="M 119 150 Q 113 143 112 137 Q 107 117 99 104 Q 97 101 98 99 Q 99 98 102 98 Q 109 99 112 100 L 115 103 Q 115 104 115 105 Q 116 108 118 117 L 119 124 Q 122 134 123 139 L 123 146 Q 123 147 123 149 Q 123 149 123 149" fill="#000080" clip-path="url(#clip-mask-9)" /><path d="M 118 117 Q 126 111 135 112 Q 141 112 144 115 Q 146 118 141 119 Q 131 121 119 124" fill="#000080" clip-path="url(#clip-mask-10)" /><path d="M 190 88 Q 187 87 176 90 Q 164 92 159 90 Q 156 88 157 86 Q 157 85 160 85 Q 164 85 171 83 Q 193 76 198 80 Q 209 86 213 90" fill="#000080" clip-path="url(#clip-mask-11)" /><path d="M 179 134 Q 181 129 186 114 L 188 107 Q 189 103 191 98 Q 193 90 190 88 L 213 90 Q 216 94 212 98 Q 203 104 199 115 Q 192 138 188 143 Q 186 146 182 146 Q 179 147 178 143 Q 178 141 178 140" fill="#000080" clip-path="url(#clip-mask-12)" /><path d="M 186 114 Q 175 114 160 116 Q 156 116 155 115 Q 151 112 154 111 Q 182 103 188 107" fill="#000080" clip-path="url(#clip-mask-13)" /><path d="M 123 139 Q 138 137 156 133 Q 171 128 179 134 L 178 140 Q 145 143 130 146 Q 127 147 124 146 Q 123 146 123 146" fill="#000080" clip-path="url(#clip-mask-14)" /><path d="M 112 181 L 105 184 Q 94 189 93 189 Q 91 188 93 187 Q 121 163 119 151 Q 119 150 119 150 L 123 149 Q 124 149 127 150 Q 133 153 135 158 Q 134 160 131 163 Q 129 165 127 167 L 122 172" fill="#000080" clip-path="url(#clip-mask-15)" /><path d="M 127 167 Q 146 164 195 153 Q 212 147 218 150 Q 227 153 234 158 Q 239 162 239 164 L 212 164 Q 209 160 184 165 Q 166 169 143 173 Q 129 176 122 172" fill="#000080" clip-path="url(#clip-mask-16)" /><path d="M 239 164 Q 239 166 236 170 Q 232 173 231 178 Q 222 227 213 241 Q 204 254 195 254 L 196 231 Q 199 230 202 226 Q 206 219 209 206 Q 215 173 212 164" fill="#000080" clip-path="url(#clip-mask-17)" /><path d="M 195 254 Q 192 255 190 250 Q 185 242 176 232 Q 173 230 173 229 Q 173 227 176 228 Q 193 232 196 231" fill="#000080" clip-path="url(#clip-mask-18)" /><path d="M 90 193 L 91 192 Q 93 193 94 194 Q 96 200 95 208 Q 96 223 85 231 Q 80 234 78 230 Q 74 222 78 215 Q 84 205 89 195" fill="#000080" clip-path="url(#clip-mask-19)" /><path d="M 112 194 L 113 193 Q 114 191 116 192 Q 128 200 129 207 Q 129 212 128 215 Q 125 218 122 216 Q 117 214 112 197" fill="#000080" clip-path="url(#clip-mask-20)" /><path d="M 137 188 L 138 187 Q 139 184 141 185 Q 144 186 151 192 Q 156 195 157 199 Q 158 204 157 207 Q 154 211 151 210 Q 146 208 138 191" fill="#000080" clip-path="url(#clip-mask-21)" /><path d="M 164 186 L 164 184 Q 164 181 165 180 Q 168 179 183 188 Q 189 192 190 197 Q 191 203 189 206 Q 187 208 186 208 Q 182 207 169 191" fill="#000080" clip-path="url(#clip-mask-22)" /><rect x="49" y="39" width="33" height="31" id="rect-1" fill="transparent" stroke="#000000"><animate attributeName="x" from="16" to="49" dur="0.122" begin="0; animate22.end + 1s" id="animate1" fill="freeze"/></rect><rect x="30" y="92" width="34" height="26" id="rect-2" fill="transparent" stroke="#000000"><set attributeName="x" to="-4" begin="0; animate22.end + 1s" /><animate attributeName="x" from="-4" to="30" dur="0.126" begin="animate1.end + 0.5" id="animate2" fill="freeze"/></rect><rect x="30" y="132" width="46" height="96" id="rect-3" fill="transparent" stroke="#000000"><set attributeName="y" to="228" begin="0; animate22.end + 1s" /><animate attributeName="y" from="228" to="132" dur="0.356" begin="animate2.end + 0.5" id="animate3" fill="freeze"/></rect><rect x="136" y="14" width="32" height="25" id="rect-4" fill="transparent" stroke="#000000"><set attributeName="x" to="104" begin="0; animate22.end + 1s" /><animate attributeName="x" from="104" to="136" dur="0.119" begin="animate3.end + 0.5" id="animate4" fill="freeze"/></rect><rect x="85" y="48" width="24" height="49" id="rect-5" fill="transparent" stroke="#000000"><set attributeName="y" to="-1" begin="0; animate22.end + 1s" /><animate attributeName="y" from="-1" to="48" dur="0.181" begin="animate4.end + 0.5" id="animate5" fill="freeze"/></rect><rect x="108" y="36" width="126" height="31" id="rect-6" fill="transparent" stroke="#000000"><set attributeName="x" to="-18" begin="0; animate22.end + 1s" /><animate attributeName="x" from="-18" to="108" dur="0.467" begin="animate5.end + 0.5" id="animate6" fill="freeze"/></rect><rect x="196" y="52" width="39" height="23" id="rect-7" fill="transparent" stroke="#000000"><set attributeName="y" to="29" begin="0; animate22.end + 1s" /><animate attributeName="y" from="29" to="52" dur="0.085" begin="animate6.end" id="animate7" fill="freeze"/></rect><rect x="112" y="71" width="31" height="32" id="rect-8" fill="transparent" stroke="#000000"><set attributeName="y" to="39" begin="0; animate22.end + 1s" /><animate attributeName="y" from="39" to="71" dur="0.119" begin="animate7.end + 0.5" id="animate8" fill="freeze"/></rect><rect x="97" y="98" width="26" height="52" id="rect-9" fill="transparent" stroke="#000000"><set attributeName="y" to="46" begin="0; animate22.end + 1s" /><animate attributeName="y" from="46" to="98" dur="0.193" begin="animate8.end + 0.5" id="animate9" fill="freeze"/></rect><rect x="118" y="111" width="28" height="13" id="rect-10" fill="transparent" stroke="#000000"><set attributeName="x" to="90" begin="0; animate22.end + 1s" /><animate attributeName="x" from="90" to="118" dur="0.104" begin="animate9.end + 0.5" id="animate10" fill="freeze"/></rect><rect x="156" y="76" width="57" height="16" id="rect-11" fill="transparent" stroke="#000000"><set attributeName="x" to="99" begin="0; animate22.end + 1s" /><animate attributeName="x" from="99" to="156" dur="0.211" begin="animate10.end + 0.5" id="animate11" fill="freeze"/></rect><rect x="178" y="88" width="38" height="59" id="rect-12" fill="transparent" stroke="#000000"><set attributeName="y" to="29" begin="0; animate22.end + 1s" /><animate attributeName="y" from="29" to="88" dur="0.219" begin="animate11.end" id="animate12" fill="freeze"/></rect><rect x="151" y="103" width="37" height="13" id="rect-13" fill="transparent" stroke="#000000"><set attributeName="x" to="114" begin="0; animate22.end + 1s" /><animate attributeName="x" from="114" to="151" dur="0.137" begin="animate12.end + 0.5" id="animate13" fill="freeze"/></rect><rect x="123" y="128" width="56" height="19" id="rect-14" fill="transparent" stroke="#000000"><set attributeName="x" to="67" begin="0; animate22.end + 1s" /><animate attributeName="x" from="67" to="123" dur="0.207" begin="animate13.end + 0.5" id="animate14" fill="freeze"/></rect><rect x="91" y="149" width="44" height="40" id="rect-15" fill="transparent" stroke="#000000"><set attributeName="y" to="109" begin="0; animate22.end + 1s" /><animate attributeName="y" from="109" to="149" dur="0.148" begin="animate14.end + 0.5" id="animate15" fill="freeze"/></rect><rect x="122" y="147" width="117" height="29" id="rect-16" fill="transparent" stroke="#000000"><set attributeName="x" to="5" begin="0; animate22.end + 1s" /><animate attributeName="x" from="5" to="122" dur="0.433" begin="animate15.end + 0.5" id="animate16" fill="freeze"/></rect><rect x="195" y="164" width="44" height="90" id="rect-17" fill="transparent" stroke="#000000"><set attributeName="y" to="74" begin="0; animate22.end + 1s" /><animate attributeName="y" from="74" to="164" dur="0.333" begin="animate16.end" id="animate17" fill="freeze"/></rect><rect x="173" y="227" width="23" height="28" id="rect-18" fill="transparent" stroke="#000000"><set attributeName="x" to="196" begin="0; animate22.end + 1s" /><animate attributeName="x" from="196" to="173" dur="0.085" begin="animate17.end" id="animate18" fill="freeze"/></rect><rect x="74" y="192" width="22" height="42" id="rect-19" fill="transparent" stroke="#000000"><set attributeName="y" to="150" begin="0; animate22.end + 1s" /><animate attributeName="y" from="150" to="192" dur="0.156" begin="animate18.end + 0.5" id="animate19" fill="freeze"/></rect><rect x="112" y="191" width="17" height="27" id="rect-20" fill="transparent" stroke="#000000"><set attributeName="y" to="164" begin="0; animate22.end + 1s" /><animate attributeName="y" from="164" to="191" dur="0.100" begin="animate19.end + 0.5" id="animate20" fill="freeze"/></rect><rect x="137" y="184" width="21" height="27" id="rect-21" fill="transparent" stroke="#000000"><set attributeName="x" to="116" begin="0; animate22.end + 1s" /><animate attributeName="x" from="116" to="137" dur="0.078" begin="animate20.end + 0.5" id="animate21" fill="freeze"/></rect><rect x="164" y="179" width="27" height="29" id="rect-22" fill="transparent" stroke="#000000"><set attributeName="x" to="137" begin="0; animate22.end + 1s" /><animate attributeName="x" from="137" to="164" dur="0.100" begin="animate21.end + 0.5" id="animate22" fill="freeze"/></rect></svg>