<svg xmlns="http://www.w3.org/2000/svg" xmlns:xlink="http://www.w3.org/1999/xlink" width="270" height="270"><defs><clipPath id="clip-mask-1"><use xlink:href="#rect-1" /></clipPath><clipPath id="clip-mask-2"><use xlink:href="#rect-2" /></clipPath><clipPath id="clip-mask-3"><use xlink:href="#rect-3" /></clipPath><clipPath id="clip-mask-4"><use xlink:href="#rect-4" /></clipPath><clipPath id="clip-mask-5"><use xlink:href="#rect-5" /></clipPath><clipPath id="clip-mask-6"><use xlink:href="#rect-6" /></clipPath><clipPath id="clip-mask-7"><use xlink:href="#rect-7" /></clipPath><clipPath id="clip-mask-8"><use xlink:href="#rect-8" /></clipPath><clipPath id="clip-mask-9"><use xlink:href="#rect-9" /></clipPath><clipPath id="clip-mask-10"><use xlink:href="#rect-10" /></clipPath><clipPath id="clip-mask-11"><use xlink:href="#rect-11" /></clipPath><clipPath id="clip-mask-12"><use xlink:href="#rect-12" /></clipPath><clipPath id="clip-mask-13"><use xlink:href="#rect-13" /></clipPath><clipPath id="clip-mask-14"><use xlink:href="#rect-14" /></clipPath><clipPath id="clip-mask-15"><use xlink:href="#rect-15" /></clipPath><clipPath id="clip-mask-16"><use xlink:href="#rect-16" /></clipPath><clipPath id="clip-mask-17"><use xlink:href="#rect-17" /></clipPath><clipPath id="clip-mask-18"><use xlink:href="#rect-18" /></clipPath><clipPath id="clip-mask-19"><use xlink:href="#rect-19" /></clipPath><clipPath id="clip-mask-20"><use xlink:href="#rect-20" /></clipPath><clipPath id="clip-mask-21"><use xlink:href="#rect-21" /></clipPath><clipPath id="clip-mask-22"><use xlink:href="#rect-22" /></clipPath><clipPath id="clip-mask-23"><use xlink:href="#rect-23" /></clipPath></defs><path d="M 0 0 L 270 270 M 270 0 L 0 270 M 135 0 L 135 270 M 0 135 L 270 135" stroke="#CCCCCC" /><path d="M 31 58 L 30 56 Q 30 53 31 52 Q 35 51 51 57 Q 58 60 59 65 Q 61 72 60 75 Q 58 78 56 78 Q 52 78 49 75 Q 43 69 37 64" fill="#CCCCCC"/><path d="M 19 111 L 18 109 Q 18 106 19 105 Q 19 105 20 105 Q 29 103 40 111 Q 45 114 46 120 Q 47 124 46 127 Q 43 130 40 130 Q 32 126 22 115" fill="#CCCCCC"/><path d="M 26 197 L 29 192 Q 52 149 55 148 Q 57 146 57 148 Q 58 150 56 154 Q 38 214 38 223 Q 38 229 36 229 Q 34 230 32 228 Q 23 224 19 207 Q 18 203 21 201" fill="#CCCCCC"/><path d="M 116 74 Q 104 77 94 79 L 85 81 Q 72 83 71 83 Q 68 82 66 80 Q 62 77 67 76 Q 75 75 84 74 L 94 72 Q 102 70 111 68 Q 114 67 117 66 L 128 63 Q 138 59 144 63 Q 148 64 148 67 Q 147 69 145 69 Q 136 70 126 72" fill="#CCCCCC"/><path d="M 94 79 Q 95 89 95 97 L 93 107 Q 92 108 90 106 Q 88 103 86 82 Q 85 82 85 81 L 84 74 Q 81 57 77 52 Q 74 50 76 48 Q 80 46 84 47 Q 89 49 93 51 Q 95 52 94 56 Q 94 60 94 67 Q 94 69 94 72" fill="#CCCCCC"/><path d="M 113 91 Q 115 82 116 74 L 117 66 Q 119 52 120 40 Q 120 36 117 30 Q 116 27 117 26 Q 119 24 122 25 Q 127 27 134 32 Q 137 35 136 38 Q 131 46 128 63 L 126 72 Q 123 82 122 92" fill="#CCCCCC"/><path d="M 112 91 L 113 91 L 122 92 Q 127 95 127 96 Q 127 98 125 98 Q 100 102 98 104 L 93 107 L 95 97 Q 102 95 111 92" fill="#CCCCCC"/><path d="M 82 153 Q 82 155 81 157 Q 81 160 77 156 Q 74 153 73 149 Q 69 133 63 124 Q 61 121 62 120 Q 63 119 66 119 Q 72 120 75 121 L 78 128 Q 78 132 81 147" fill="#CCCCCC"/><path d="M 98 123 Q 81 126 78 128 L 75 121 Q 86 119 98 117 L 112 113 Q 119 111 126 108 Q 130 106 133 108 Q 143 113 147 116 L 128 119 Q 126 117 121 118 Q 116 119 111 120" fill="#CCCCCC"/><path d="M 126 138 Q 128 131 129 124 Q 129 120 128 119 L 147 116 Q 150 119 146 123 Q 140 127 136 137" fill="#CCCCCC"/><path d="M 98 150 Q 90 151 85 153 Q 83 153 82 153 L 81 147 Q 88 145 98 144 L 109 142 Q 117 140 126 138 L 136 137 L 137 137 Q 142 141 142 143 Q 142 144 140 144 Q 121 146 109 148" fill="#CCCCCC"/><path d="M 95 172 Q 74 176 72 175 Q 68 172 71 171 Q 83 168 96 164 L 107 160 Q 116 158 121 158 Q 127 159 129 162 Q 131 165 126 166 Q 116 167 106 170" fill="#CCCCCC"/><path d="M 81 198 L 75 200 Q 61 204 54 199 Q 51 197 52 195 Q 52 193 55 193 Q 65 192 91 187 L 103 184 Q 114 181 128 178 Q 133 176 138 179 Q 142 180 142 183 Q 142 185 138 185 Q 117 188 101 192 L 88 196" fill="#CCCCCC"/><path d="M 91 187 Q 94 179 95 172 L 96 164 Q 96 163 97 162 Q 98 156 98 150 L 98 144 Q 99 132 99 125 Q 99 124 98 123 L 98 117 Q 96 113 94 110 Q 93 108 93 107 L 98 104 Q 102 105 109 109 Q 112 110 112 113 L 111 120 Q 111 121 111 122 Q 110 132 109 142 L 109 148 Q 108 155 107 160 L 106 170 Q 105 178 103 184 L 101 192 Q 94 210 83 221 Q 67 238 58 238 Q 56 238 56 237 Q 57 235 60 233 Q 81 211 87 199 Q 87 197 88 196" fill="#CCCCCC"/><path d="M 111 204 L 112 202 Q 112 200 114 200 Q 130 206 134 214 Q 135 219 135 222 Q 133 225 130 225 Q 124 224 112 206" fill="#CCCCCC"/><path d="M 152 106 Q 148 109 147 110 Q 143 111 144 109 Q 145 105 147 102 Q 177 49 169 37 Q 167 32 171 31 Q 175 31 182 34 Q 189 39 190 41 Q 191 44 190 47 Q 187 51 183 58 Q 170 84 157 100" fill="#CCCCCC"/><path d="M 168 205 Q 168 237 164 241 Q 161 245 159 241 Q 150 230 153 217 Q 156 204 157 195 Q 162 124 154 110 Q 153 108 152 106 L 157 100 L 157 100 Q 167 104 169 108 Q 170 110 169 115 Q 169 121 168 201" fill="#CCCCCC"/><path d="M 192 64 L 191 61 Q 191 59 192 58 Q 195 57 210 63 Q 217 66 218 70 Q 220 77 218 79 Q 217 82 215 82 Q 212 82 209 79 Q 203 73 197 68" fill="#CCCCCC"/><path d="M 194 110 Q 184 111 178 108 Q 173 104 180 103 Q 190 101 199 99 Q 207 96 214 94 Q 220 91 227 92 Q 233 93 235 95 Q 236 97 234 99 Q 233 100 227 102 Q 215 104 204 108" fill="#CCCCCC"/><path d="M 198 143 Q 188 144 181 141 Q 176 138 183 137 Q 191 135 198 134 L 210 130 Q 219 126 225 127 Q 231 128 233 131 Q 234 132 232 134 Q 231 135 210 140" fill="#CCCCCC"/><path d="M 199 171 Q 188 172 181 169 Q 176 166 183 164 Q 191 163 199 161 L 209 157 Q 221 153 225 154 Q 231 155 233 158 Q 234 159 232 161 Q 231 162 225 164 Q 217 166 209 168" fill="#CCCCCC"/><path d="M 199 182 L 199 171 L 199 161 Q 198 150 198 143 L 198 134 Q 197 115 194 110 L 204 108 Q 212 113 210 119 Q 210 125 210 130 L 210 140 Q 210 148 209 157 L 209 168 Q 209 180 209 194 L 199 196" fill="#CCCCCC"/><path d="M 209 194 Q 215 192 220 191 Q 235 186 248 195 Q 251 197 250 200 Q 249 202 245 202 Q 243 202 240 202 Q 203 203 183 209 Q 175 211 168 205 L 168 201 Q 168 201 169 201 Q 185 198 199 196" fill="#CCCCCC"/><path d="M 31 58 L 30 56 Q 30 53 31 52 Q 35 51 51 57 Q 58 60 59 65 Q 61 72 60 75 Q 58 78 56 78 Q 52 78 49 75 Q 43 69 37 64" fill="#0000ff" clip-path="url(#clip-mask-1)" /><path d="M 19 111 L 18 109 Q 18 106 19 105 Q 19 105 20 105 Q 29 103 40 111 Q 45 114 46 120 Q 47 124 46 127 Q 43 130 40 130 Q 32 126 22 115" fill="#0000ff" clip-path="url(#clip-mask-2)" /><path d="M 26 197 L 29 192 Q 52 149 55 148 Q 57 146 57 148 Q 58 150 56 154 Q 38 214 38 223 Q 38 229 36 229 Q 34 230 32 228 Q 23 224 19 207 Q 18 203 21 201" fill="#0000ff" clip-path="url(#clip-mask-3)" /><path d="M 116 74 Q 104 77 94 79 L 85 81 Q 72 83 71 83 Q 68 82 66 80 Q 62 77 67 76 Q 75 75 84 74 L 94 72 Q 102 70 111 68 Q 114 67 117 66 L 128 63 Q 138 59 144 63 Q 148 64 148 67 Q 147 69 145 69 Q 136 70 126 72" fill="#000080" clip-path="url(#clip-mask-4)" /><path d="M 94 79 Q 95 89 95 97 L 93 107 Q 92 108 90 106 Q 88 103 86 82 Q 85 82 85 81 L 84 74 Q 81 57 77 52 Q 74 50 76 48 Q 80 46 84 47 Q 89 49 93 51 Q 95 52 94 56 Q 94 60 94 67 Q 94 69 94 72" fill="#000080" clip-path="url(#clip-mask-5)" /><path d="M 113 91 Q 115 82 116 74 L 117 66 Q 119 52 120 40 Q 120 36 117 30 Q 116 27 117 26 Q 119 24 122 25 Q 127 27 134 32 Q 137 35 136 38 Q 131 46 128 63 L 126 72 Q 123 82 122 92" fill="#000080" clip-path="url(#clip-mask-6)" /><path d="M 112 91 L 113 91 L 122 92 Q 127 95 127 96 Q 127 98 125 98 Q 100 102 98 104 L 93 107 L 95 97 Q 102 95 111 92" fill="#000080" clip-path="url(#clip-mask-7)" /><path d="M 82 153 Q 82 155 81 157 Q 81 160 77 156 Q 74 153 73 149 Q 69 133 63 124 Q 61 121 62 120 Q 63 119 66 119 Q 72 120 75 121 L 78 128 Q 78 132 81 147" fill="#000080" clip-path="url(#clip-mask-8)" /><path d="M 98 123 Q 81 126 78 128 L 75 121 Q 86 119 98 117 L 112 113 Q 119 111 126 108 Q 130 106 133 108 Q 143 113 147 116 L 128 119 Q 126 117 121 118 Q 116 119 111 120" fill="#000080" clip-path="url(#clip-mask-9)" /><path d="M 126 138 Q 128 131 129 124 Q 129 120 128 119 L 147 116 Q 150 119 146 123 Q 140 127 136 137" fill="#000080" clip-path="url(#clip-mask-10)" /><path d="M 98 150 Q 90 151 85 153 Q 83 153 82 153 L 81 147 Q 88 145 98 144 L 109 142 Q 117 140 126 138 L 136 137 L 137 137 Q 142 141 142 143 Q 142 144 140 144 Q 121 146 109 148" fill="#000080" clip-path="url(#clip-mask-11)" /><path d="M 95 172 Q 74 176 72 175 Q 68 172 71 171 Q 83 168 96 164 L 107 160 Q 116 158 121 158 Q 127 159 129 162 Q 131 165 126 166 Q 116 167 106 170" fill="#000080" clip-path="url(#clip-mask-12)" /><path d="M 81 198 L 75 200 Q 61 204 54 199 Q 51 197 52 195 Q 52 193 55 193 Q 65 192 91 187 L 103 184 Q 114 181 128 178 Q 133 176 138 179 Q 142 180 142 183 Q 142 185 138 185 Q 117 188 101 192 L 88 196" fill="#000080" clip-path="url(#clip-mask-13)" /><path d="M 91 187 Q 94 179 95 172 L 96 164 Q 96 163 97 162 Q 98 156 98 150 L 98 144 Q 99 132 99 125 Q 99 124 98 123 L 98 117 Q 96 113 94 110 Q 93 108 93 107 L 98 104 Q 102 105 109 109 Q 112 110 112 113 L 111 120 Q 111 121 111 122 Q 110 132 109 142 L 109 148 Q 108 155 107 160 L 106 170 Q 105 178 103 184 L 101 192 Q 94 210 83 221 Q 67 238 58 238 Q 56 238 56 237 Q 57 235 60 233 Q 81 211 87 199 Q 87 197 88 196" fill="#000080" clip-path="url(#clip-mask-14)" /><path d="M 111 204 L 112 202 Q 112 200 114 200 Q 130 206 134 214 Q 135 219 135 222 Q 133 225 130 225 Q 124 224 112 206" fill="#000080" clip-path="url(#clip-mask-15)" /><path d="M 152 106 Q 148 109 147 110 Q 143 111 144 109 Q 145 105 147 102 Q 177 49 169 37 Q 167 32 171 31 Q 175 31 182 34 Q 189 39 190 41 Q 191 44 190 47 Q 187 51 183 58 Q 170 84 157 100" fill="#000080" clip-path="url(#clip-mask-16)" /><path d="M 168 205 Q 168 237 164 241 Q 161 245 159 241 Q 150 230 153 217 Q 156 204 157 195 Q 162 124 154 110 Q 153 108 152 106 L 157 100 L 157 100 Q 167 104 169 108 Q 170 110 169 115 Q 169 121 168 201" fill="#000080" clip-path="url(#clip-mask-17)" /><path d="M 192 64 L 191 61 Q 191 59 192 58 Q 195 57 210 63 Q 217 66 218 70 Q 220 77 218 79 Q 217 82 215 82 Q 212 82 209 79 Q 203 73 197 68" fill="#000080" clip-path="url(#clip-mask-18)" /><path d="M 194 110 Q 184 111 178 108 Q 173 104 180 103 Q 190 101 199 99 Q 207 96 214 94 Q 220 91 227 92 Q 233 93 235 95 Q 236 97 234 99 Q 233 100 227 102 Q 215 104 204 108" fill="#000080" clip-path="url(#clip-mask-19)" /><path d="M 198 143 Q 188 144 181 141 Q 176 138 183 137 Q 191 135 198 134 L 210 130 Q 219 126 225 127 Q 231 128 233 131 Q 234 132 232 134 Q 231 135 210 140" fill="#000080" clip-path="url(#clip-mask-20)" /><path d="M 199 171 Q 188 172 181 169 Q 176 166 183 164 Q 191 163 199 161 L 209 157 Q 221 153 225 154 Q 231 155 233 158 Q 234 159 232 161 Q 231 162 225 164 Q 217 166 209 168" fill="#000080" clip-path="url(#clip-mask-21)" /><path d="M 199 182 L 199 171 L 199 161 Q 198 150 198 143 L 198 134 Q 197 115 194 110 L 204 108 Q 212 113 210 119 Q 210 125 210 130 L 210 140 Q 210 148 209 157 L 209 168 Q 209 180 209 194 L 199 196" fill="#000080" clip-path="url(#clip-mask-22)" /><path d="M 209 194 Q 215 192 220 191 Q 235 186 248 195 Q 251 197 250 200 Q 249 202 245 202 Q 243 202 240 202 Q 203 203 183 209 Q 175 211 168 205 L 168 201 Q 168 201 169 201 Q 185 198 199 196" fill="#000080" clip-path="url(#clip-mask-23)" /><rect x="30" y="51" width="31" height="27" id="rect-1" fill="transparent" stroke="#000000"><animate attributeName="x" from="-1" to="30" dur="0.115" begin="0; animate23.end + 1s" id="animate1" fill="freeze"/></rect><rect x="18" y="103" width="29" height="27" id="rect-2" fill="transparent" stroke="#000000"><set attributeName="x" to="-11" begin="0; animate23.end + 1s" /><animate attributeName="x" from="-11" to="18" dur="0.107" begin="animate1.end + 0.5" id="animate2" fill="freeze"/></rect><rect x="18" y="146" width="40" height="84" id="rect-3" fill="transparent" stroke="#000000"><set attributeName="y" to="230" begin="0; animate23.end + 1s" /><animate attributeName="y" from="230" to="146" dur="0.311" begin="animate2.end + 0.5" id="animate3" fill="freeze"/></rect><rect x="62" y="59" width="86" height="24" id="rect-4" fill="transparent" stroke="#000000"><set attributeName="x" to="-24" begin="0; animate23.end + 1s" /><animate attributeName="x" from="-24" to="62" dur="0.319" begin="animate3.end + 0.5" id="animate4" fill="freeze"/></rect><rect x="74" y="46" width="21" height="62" id="rect-5" fill="transparent" stroke="#000000"><set attributeName="y" to="-16" begin="0; animate23.end + 1s" /><animate attributeName="y" from="-16" to="46" dur="0.230" begin="animate4.end + 0.5" id="animate5" fill="freeze"/></rect><rect x="113" y="24" width="24" height="68" id="rect-6" fill="transparent" stroke="#000000"><set attributeName="y" to="-44" begin="0; animate23.end + 1s" /><animate attributeName="y" from="-44" to="24" dur="0.252" begin="animate5.end + 0.5" id="animate6" fill="freeze"/></rect><rect x="93" y="91" width="34" height="16" id="rect-7" fill="transparent" stroke="#000000"><set attributeName="x" to="59" begin="0; animate23.end + 1s" /><animate attributeName="x" from="59" to="93" dur="0.126" begin="animate6.end + 0.5" id="animate7" fill="freeze"/></rect><rect x="61" y="119" width="21" height="41" id="rect-8" fill="transparent" stroke="#000000"><set attributeName="y" to="78" begin="0; animate23.end + 1s" /><animate attributeName="y" from="78" to="119" dur="0.152" begin="animate7.end + 0.5" id="animate8" fill="freeze"/></rect><rect x="75" y="106" width="72" height="22" id="rect-9" fill="transparent" stroke="#000000"><set attributeName="x" to="3" begin="0; animate23.end + 1s" /><animate attributeName="x" from="3" to="75" dur="0.267" begin="animate8.end + 0.5" id="animate9" fill="freeze"/></rect><rect x="126" y="116" width="24" height="22" id="rect-10" fill="transparent" stroke="#000000"><set attributeName="y" to="94" begin="0; animate23.end + 1s" /><animate attributeName="y" from="94" to="116" dur="0.081" begin="animate9.end" id="animate10" fill="freeze"/></rect><rect x="81" y="137" width="61" height="16" id="rect-11" fill="transparent" stroke="#000000"><set attributeName="x" to="20" begin="0; animate23.end + 1s" /><animate attributeName="x" from="20" to="81" dur="0.226" begin="animate10.end + 0.5" id="animate11" fill="freeze"/></rect><rect x="68" y="158" width="63" height="18" id="rect-12" fill="transparent" stroke="#000000"><set attributeName="x" to="5" begin="0; animate23.end + 1s" /><animate attributeName="x" from="5" to="68" dur="0.233" begin="animate11.end + 0.5" id="animate12" fill="freeze"/></rect><rect x="51" y="176" width="91" height="28" id="rect-13" fill="transparent" stroke="#000000"><set attributeName="x" to="-40" begin="0; animate23.end + 1s" /><animate attributeName="x" from="-40" to="51" dur="0.337" begin="animate12.end + 0.5" id="animate13" fill="freeze"/></rect><rect x="56" y="104" width="56" height="134" id="rect-14" fill="transparent" stroke="#000000"><set attributeName="y" to="-30" begin="0; animate23.end + 1s" /><animate attributeName="y" from="-30" to="104" dur="0.496" begin="animate13.end + 0.5" id="animate14" fill="freeze"/></rect><rect x="111" y="200" width="24" height="25" id="rect-15" fill="transparent" stroke="#000000"><set attributeName="x" to="87" begin="0; animate23.end + 1s" /><animate attributeName="x" from="87" to="111" dur="0.089" begin="animate14.end + 0.5" id="animate15" fill="freeze"/></rect><rect x="143" y="31" width="48" height="80" id="rect-16" fill="transparent" stroke="#000000"><set attributeName="y" to="-49" begin="0; animate23.end + 1s" /><animate attributeName="y" from="-49" to="31" dur="0.296" begin="animate15.end + 0.5" id="animate16" fill="freeze"/></rect><rect x="150" y="100" width="20" height="145" id="rect-17" fill="transparent" stroke="#000000"><set attributeName="y" to="-45" begin="0; animate23.end + 1s" /><animate attributeName="y" from="-45" to="100" dur="0.537" begin="animate16.end + 0.5" id="animate17" fill="freeze"/></rect><rect x="191" y="57" width="29" height="25" id="rect-18" fill="transparent" stroke="#000000"><set attributeName="x" to="162" begin="0; animate23.end + 1s" /><animate attributeName="x" from="162" to="191" dur="0.107" begin="animate17.end + 0.5" id="animate18" fill="freeze"/></rect><rect x="173" y="91" width="63" height="20" id="rect-19" fill="transparent" stroke="#000000"><set attributeName="x" to="110" begin="0; animate23.end + 1s" /><animate attributeName="x" from="110" to="173" dur="0.233" begin="animate18.end + 0.5" id="animate19" fill="freeze"/></rect><rect x="176" y="126" width="58" height="18" id="rect-20" fill="transparent" stroke="#000000"><set attributeName="x" to="118" begin="0; animate23.end + 1s" /><animate attributeName="x" from="118" to="176" dur="0.215" begin="animate19.end + 0.5" id="animate20" fill="freeze"/></rect><rect x="176" y="153" width="58" height="19" id="rect-21" fill="transparent" stroke="#000000"><set attributeName="x" to="118" begin="0; animate23.end + 1s" /><animate attributeName="x" from="118" to="176" dur="0.215" begin="animate20.end + 0.5" id="animate21" fill="freeze"/></rect><rect x="194" y="108" width="18" height="88" id="rect-22" fill="transparent" stroke="#000000"><set attributeName="y" to="20" begin="0; animate23.end + 1s" /><animate attributeName="y" from="20" to="108" dur="0.326" begin="animate21.end + 0.5" id="animate22" fill="freeze"/></rect><rect x="168" y="186" width="83" height="25" id="rect-23" fill="transparent" stroke="#000000"><set attributeName="x" to="85" begin="0; animate23.end + 1s" /><animate attributeName="x" from="85" to="168" dur="0.307" begin="animate22.end + 0.5" id="animate23" fill="freeze"/></rect></svg>