<svg xmlns="http://www.w3.org/2000/svg" xmlns:xlink="http://www.w3.org/1999/xlink" width="270" height="270"><defs><clipPath id="clip-mask-1"><use xlink:href="#rect-1" /></clipPath><clipPath id="clip-mask-2"><use xlink:href="#rect-2" /></clipPath><clipPath id="clip-mask-3"><use xlink:href="#rect-3" /></clipPath><clipPath id="clip-mask-4"><use xlink:href="#rect-4" /></clipPath></defs><path d="M 0 0 L 270 270 M 270 0 L 0 270 M 135 0 L 135 270 M 0 135 L 270 135" stroke="#CCCCCC" /><path d="M 44 112 L 44 109 Q 45 105 47 104 Q 51 104 69 118 Q 76 125 76 131 Q 75 141 73 144 Q 70 147 67 146 Q 62 145 60 140 Q 54 130 49 121" fill="#CCCCCC"/><path d="M 171 85 L 170 79 Q 169 75 174 75 Q 177 74 184 79 Q 192 84 196 90 Q 199 96 192 98 Q 184 101 177 105 Q 146 122 139 125 Q 134 125 137 120 Q 160 99 166 90" fill="#CCCCCC"/><path d="M 115 149 Q 106 196 78 217 Q 62 228 51 233 Q 35 239 31 239 Q 26 238 27 236 Q 28 235 33 233 Q 46 225 55 218 Q 94 188 101 138 Q 107 106 106 57 Q 106 47 97 38 Q 92 32 98 30 Q 103 28 110 31 Q 122 35 128 41 Q 131 43 129 47 Q 124 62 124 76 Q 122 113 117 139" fill="#CCCCCC"/><path d="M 148 178 L 177 204 Q 191 215 234 231 Q 243 234 243 237 Q 242 239 234 239 Q 215 240 192 241 Q 184 241 177 232 Q 147 200 115 149 L 117 139" fill="#CCCCCC"/><path d="M 44 112 L 44 109 Q 45 105 47 104 Q 51 104 69 118 Q 76 125 76 131 Q 75 141 73 144 Q 70 147 67 146 Q 62 145 60 140 Q 54 130 49 121" fill="#0000ff" clip-path="url(#clip-mask-1)" /><path d="M 171 85 L 170 79 Q 169 75 174 75 Q 177 74 184 79 Q 192 84 196 90 Q 199 96 192 98 Q 184 101 177 105 Q 146 122 139 125 Q 134 125 137 120 Q 160 99 166 90" fill="#0000ff" clip-path="url(#clip-mask-2)" /><path d="M 115 149 Q 106 196 78 217 Q 62 228 51 233 Q 35 239 31 239 Q 26 238 27 236 Q 28 235 33 233 Q 46 225 55 218 Q 94 188 101 138 Q 107 106 106 57 Q 106 47 97 38 Q 92 32 98 30 Q 103 28 110 31 Q 122 35 128 41 Q 131 43 129 47 Q 124 62 124 76 Q 122 113 117 139" fill="#0000ff" clip-path="url(#clip-mask-3)" /><path d="M 148 178 L 177 204 Q 191 215 234 231 Q 243 234 243 237 Q 242 239 234 239 Q 215 240 192 241 Q 184 241 177 232 Q 147 200 115 149 L 117 139" fill="#0000ff" clip-path="url(#clip-mask-4)" /><rect x="44" y="104" width="32" height="43" id="rect-1" fill="transparent" stroke="#000000"><animate attributeName="x" from="12" to="44" dur="0.119" begin="0; animate4.end + 1s" id="animate1" fill="freeze"/></rect><rect x="134" y="74" width="65" height="51" id="rect-2" fill="transparent" stroke="#000000"><set attributeName="y" to="23" begin="0; animate4.end + 1s" /><animate attributeName="y" from="23" to="74" dur="0.189" begin="animate1.end + 0.5" id="animate2" fill="freeze"/></rect><rect x="26" y="28" width="105" height="211" id="rect-3" fill="transparent" stroke="#000000"><set attributeName="y" to="-183" begin="0; animate4.end + 1s" /><animate attributeName="y" from="-183" to="28" dur="0.781" begin="animate2.end + 0.5" id="animate3" fill="freeze"/></rect><rect x="115" y="139" width="128" height="102" id="rect-4" fill="transparent" stroke="#000000"><set attributeName="x" to="-13" begin="0; animate4.end + 1s" /><animate attributeName="x" from="-13" to="115" dur="0.474" begin="animate3.end + 0.5" id="animate4" fill="freeze"/></rect></svg>