<svg xmlns="http://www.w3.org/2000/svg" xmlns:xlink="http://www.w3.org/1999/xlink" width="270" height="270"><defs><clipPath id="clip-mask-1"><use xlink:href="#rect-1" /></clipPath><clipPath id="clip-mask-2"><use xlink:href="#rect-2" /></clipPath><clipPath id="clip-mask-3"><use xlink:href="#rect-3" /></clipPath><clipPath id="clip-mask-4"><use xlink:href="#rect-4" /></clipPath><clipPath id="clip-mask-5"><use xlink:href="#rect-5" /></clipPath><clipPath id="clip-mask-6"><use xlink:href="#rect-6" /></clipPath><clipPath id="clip-mask-7"><use xlink:href="#rect-7" /></clipPath><clipPath id="clip-mask-8"><use xlink:href="#rect-8" /></clipPath></defs><path d="M 0 0 L 270 270 M 270 0 L 0 270 M 135 0 L 135 270 M 0 135 L 270 135" stroke="#CCCCCC" /><path d="M 63 58 L 63 55 Q 63 51 64 51 Q 68 50 77 54 Q 93 60 95 72 Q 95 77 92 80 Q 89 84 85 82 Q 77 78 67 63" fill="#CCCCCC"/><path d="M 169 37 L 169 32 Q 169 29 172 29 Q 175 29 181 33 Q 187 38 190 43 Q 192 48 186 50 Q 180 51 174 55 Q 161 61 149 65 Q 144 65 147 61 Q 162 46 165 42" fill="#CCCCCC"/><path d="M 109 19 L 113 18 Q 119 16 133 25 Q 137 27 135 32 Q 131 40 128 60 Q 124 92 102 113 Q 83 130 69 130 Q 65 130 69 127 Q 101 105 110 74 Q 111 72 111 71 Q 119 35 111 24" fill="#CCCCCC"/><path d="M 135 86 L 134 83 Q 134 80 137 81 Q 142 82 152 83 Q 169 87 172 96 Q 177 105 174 109 Q 172 112 171 112 Q 167 111 162 107 Q 149 96 138 88" fill="#CCCCCC"/><path d="M 51 155 L 51 152 Q 50 148 52 148 Q 55 147 60 149 Q 60 149 60 149 Q 83 156 86 169 Q 86 174 84 178 Q 81 181 77 180 Q 67 176 55 160" fill="#CCCCCC"/><path d="M 176 130 L 177 124 Q 176 120 180 120 Q 184 120 189 126 Q 196 131 198 137 Q 200 143 193 144 Q 190 145 168 153 Q 160 156 146 160 Q 142 160 145 156 Q 167 138 171 134" fill="#CCCCCC"/><path d="M 113 199 L 99 214 Q 91 224 76 232 Q 48 245 32 244 Q 23 244 31 240 Q 48 233 59 227 Q 94 207 104 175 Q 114 143 105 125 Q 103 120 106 118 Q 111 117 121 122 Q 130 125 131 127 Q 133 131 131 132 Q 130 134 124 162 L 122 171" fill="#CCCCCC"/><path d="M 124 162 Q 149 190 179 213 Q 195 225 237 238 Q 246 241 245 243 Q 245 245 238 246 Q 221 249 201 253 Q 194 253 186 246 Q 155 218 122 171" fill="#CCCCCC"/><path d="M 63 58 L 63 55 Q 63 51 64 51 Q 68 50 77 54 Q 93 60 95 72 Q 95 77 92 80 Q 89 84 85 82 Q 77 78 67 63" fill="#0000ff" clip-path="url(#clip-mask-1)" /><path d="M 169 37 L 169 32 Q 169 29 172 29 Q 175 29 181 33 Q 187 38 190 43 Q 192 48 186 50 Q 180 51 174 55 Q 161 61 149 65 Q 144 65 147 61 Q 162 46 165 42" fill="#0000ff" clip-path="url(#clip-mask-2)" /><path d="M 109 19 L 113 18 Q 119 16 133 25 Q 137 27 135 32 Q 131 40 128 60 Q 124 92 102 113 Q 83 130 69 130 Q 65 130 69 127 Q 101 105 110 74 Q 111 72 111 71 Q 119 35 111 24" fill="#0000ff" clip-path="url(#clip-mask-3)" /><path d="M 135 86 L 134 83 Q 134 80 137 81 Q 142 82 152 83 Q 169 87 172 96 Q 177 105 174 109 Q 172 112 171 112 Q 167 111 162 107 Q 149 96 138 88" fill="#0000ff" clip-path="url(#clip-mask-4)" /><path d="M 51 155 L 51 152 Q 50 148 52 148 Q 55 147 60 149 Q 60 149 60 149 Q 83 156 86 169 Q 86 174 84 178 Q 81 181 77 180 Q 67 176 55 160" fill="#000080" clip-path="url(#clip-mask-5)" /><path d="M 176 130 L 177 124 Q 176 120 180 120 Q 184 120 189 126 Q 196 131 198 137 Q 200 143 193 144 Q 190 145 168 153 Q 160 156 146 160 Q 142 160 145 156 Q 167 138 171 134" fill="#000080" clip-path="url(#clip-mask-6)" /><path d="M 113 199 L 99 214 Q 91 224 76 232 Q 48 245 32 244 Q 23 244 31 240 Q 48 233 59 227 Q 94 207 104 175 Q 114 143 105 125 Q 103 120 106 118 Q 111 117 121 122 Q 130 125 131 127 Q 133 131 131 132 Q 130 134 124 162 L 122 171" fill="#000080" clip-path="url(#clip-mask-7)" /><path d="M 124 162 Q 149 190 179 213 Q 195 225 237 238 Q 246 241 245 243 Q 245 245 238 246 Q 221 249 201 253 Q 194 253 186 246 Q 155 218 122 171" fill="#000080" clip-path="url(#clip-mask-8)" /><rect x="63" y="50" width="32" height="34" id="rect-1" fill="transparent" stroke="#000000"><animate attributeName="x" from="31" to="63" dur="0.119" begin="0; animate8.end + 1s" id="animate1" fill="freeze"/></rect><rect x="144" y="29" width="48" height="36" id="rect-2" fill="transparent" stroke="#000000"><set attributeName="y" to="-7" begin="0; animate8.end + 1s" /><animate attributeName="y" from="-7" to="29" dur="0.133" begin="animate1.end + 0.5" id="animate2" fill="freeze"/></rect><rect x="65" y="16" width="72" height="114" id="rect-3" fill="transparent" stroke="#000000"><set attributeName="y" to="-98" begin="0; animate8.end + 1s" /><animate attributeName="y" from="-98" to="16" dur="0.422" begin="animate2.end + 0.5" id="animate3" fill="freeze"/></rect><rect x="134" y="80" width="43" height="32" id="rect-4" fill="transparent" stroke="#000000"><set attributeName="x" to="91" begin="0; animate8.end + 1s" /><animate attributeName="x" from="91" to="134" dur="0.159" begin="animate3.end + 0.5" id="animate4" fill="freeze"/></rect><rect x="50" y="147" width="36" height="34" id="rect-5" fill="transparent" stroke="#000000"><set attributeName="x" to="14" begin="0; animate8.end + 1s" /><animate attributeName="x" from="14" to="50" dur="0.133" begin="animate4.end + 0.5" id="animate5" fill="freeze"/></rect><rect x="142" y="120" width="58" height="40" id="rect-6" fill="transparent" stroke="#000000"><set attributeName="y" to="80" begin="0; animate8.end + 1s" /><animate attributeName="y" from="80" to="120" dur="0.148" begin="animate5.end + 0.5" id="animate6" fill="freeze"/></rect><rect x="23" y="117" width="110" height="128" id="rect-7" fill="transparent" stroke="#000000"><set attributeName="y" to="-11" begin="0; animate8.end + 1s" /><animate attributeName="y" from="-11" to="117" dur="0.474" begin="animate6.end + 0.5" id="animate7" fill="freeze"/></rect><rect x="122" y="162" width="124" height="91" id="rect-8" fill="transparent" stroke="#000000"><set attributeName="x" to="-2" begin="0; animate8.end + 1s" /><animate attributeName="x" from="-2" to="122" dur="0.459" begin="animate7.end + 0.5" id="animate8" fill="freeze"/></rect></svg>