<svg xmlns="http://www.w3.org/2000/svg" xmlns:xlink="http://www.w3.org/1999/xlink" width="270" height="270"><defs><clipPath id="clip-mask-1"><use xlink:href="#rect-1" /></clipPath><clipPath id="clip-mask-2"><use xlink:href="#rect-2" /></clipPath><clipPath id="clip-mask-3"><use xlink:href="#rect-3" /></clipPath><clipPath id="clip-mask-4"><use xlink:href="#rect-4" /></clipPath><clipPath id="clip-mask-5"><use xlink:href="#rect-5" /></clipPath><clipPath id="clip-mask-6"><use xlink:href="#rect-6" /></clipPath><clipPath id="clip-mask-7"><use xlink:href="#rect-7" /></clipPath><clipPath id="clip-mask-8"><use xlink:href="#rect-8" /></clipPath><clipPath id="clip-mask-9"><use xlink:href="#rect-9" /></clipPath></defs><path d="M 0 0 L 270 270 M 270 0 L 0 270 M 135 0 L 135 270 M 0 135 L 270 135" stroke="#CCCCCC" /><path d="M 41 85 L 43 84 Q 44 84 46 86 Q 49 91 51 99 Q 55 120 46 132 Q 41 137 38 133 Q 31 125 34 117 Q 39 102 40 87" fill="#CCCCCC"/><path d="M 86 91 Q 86 90 87 90 Q 103 73 103 68 Q 102 65 105 65 Q 108 65 113 69 Q 118 72 121 77 Q 123 81 118 83 Q 111 84 99 92 Q 93 95 86 98" fill="#CCCCCC"/><path d="M 71 212 L 40 227 Q 32 232 29 231 Q 26 231 25 230 Q 25 229 28 227 Q 45 212 58 188 Q 59 185 68 152 Q 82 59 67 34 Q 65 30 67 29 Q 70 27 76 29 Q 87 31 92 36 Q 95 39 93 43 Q 86 61 86 91 L 86 98 Q 82 139 81 150 L 81 156" fill="#CCCCCC"/><path d="M 81 150 Q 83 150 85 151 Q 114 162 116 174 Q 117 181 116 184 Q 115 187 112 187 Q 108 186 106 183 Q 95 171 85 162 Q 82 158 81 156" fill="#CCCCCC"/><path d="M 147 89 Q 146 91 144 92 Q 124 124 115 126 Q 111 127 112 124 Q 112 123 115 119 Q 129 97 139 77 Q 150 57 156 35 Q 158 28 154 22 Q 150 16 156 15 Q 161 14 169 18 Q 177 24 179 27 Q 181 31 179 34 Q 174 40 169 51 Q 159 69 150 83" fill="#CCCCCC"/><path d="M 160 95 Q 159 93 158 93 Q 152 92 148 90 Q 147 89 147 89 L 150 83 Q 164 81 196 74 Q 223 64 232 66 Q 240 68 242 71 Q 244 74 241 76 Q 239 77 227 81 Q 174 92 172 93" fill="#CCCCCC"/><path d="M 176 203 L 177 233 Q 178 242 175 251 Q 173 255 170 254 Q 169 254 169 253 Q 154 239 157 222 Q 159 217 162 189 Q 167 105 160 95 L 172 93 Q 180 99 179 103 Q 177 111 177 127 L 177 134 Q 176 151 176 167 L 176 176" fill="#CCCCCC"/><path d="M 177 127 Q 204 117 214 118 Q 222 119 225 123 Q 228 127 221 128 Q 205 131 183 135 Q 179 135 177 134" fill="#CCCCCC"/><path d="M 176 167 Q 212 157 219 158 Q 227 160 230 165 Q 233 169 225 170 Q 206 172 181 176 Q 178 176 176 176" fill="#CCCCCC"/><path d="M 41 85 L 43 84 Q 44 84 46 86 Q 49 91 51 99 Q 55 120 46 132 Q 41 137 38 133 Q 31 125 34 117 Q 39 102 40 87" fill="#0000ff" clip-path="url(#clip-mask-1)" /><path d="M 86 91 Q 86 90 87 90 Q 103 73 103 68 Q 102 65 105 65 Q 108 65 113 69 Q 118 72 121 77 Q 123 81 118 83 Q 111 84 99 92 Q 93 95 86 98" fill="#0000ff" clip-path="url(#clip-mask-2)" /><path d="M 71 212 L 40 227 Q 32 232 29 231 Q 26 231 25 230 Q 25 229 28 227 Q 45 212 58 188 Q 59 185 68 152 Q 82 59 67 34 Q 65 30 67 29 Q 70 27 76 29 Q 87 31 92 36 Q 95 39 93 43 Q 86 61 86 91 L 86 98 Q 82 139 81 150 L 81 156" fill="#0000ff" clip-path="url(#clip-mask-3)" /><path d="M 81 150 Q 83 150 85 151 Q 114 162 116 174 Q 117 181 116 184 Q 115 187 112 187 Q 108 186 106 183 Q 95 171 85 162 Q 82 158 81 156" fill="#0000ff" clip-path="url(#clip-mask-4)" /><path d="M 147 89 Q 146 91 144 92 Q 124 124 115 126 Q 111 127 112 124 Q 112 123 115 119 Q 129 97 139 77 Q 150 57 156 35 Q 158 28 154 22 Q 150 16 156 15 Q 161 14 169 18 Q 177 24 179 27 Q 181 31 179 34 Q 174 40 169 51 Q 159 69 150 83" fill="#000080" clip-path="url(#clip-mask-5)" /><path d="M 160 95 Q 159 93 158 93 Q 152 92 148 90 Q 147 89 147 89 L 150 83 Q 164 81 196 74 Q 223 64 232 66 Q 240 68 242 71 Q 244 74 241 76 Q 239 77 227 81 Q 174 92 172 93" fill="#000080" clip-path="url(#clip-mask-6)" /><path d="M 176 203 L 177 233 Q 178 242 175 251 Q 173 255 170 254 Q 169 254 169 253 Q 154 239 157 222 Q 159 217 162 189 Q 167 105 160 95 L 172 93 Q 180 99 179 103 Q 177 111 177 127 L 177 134 Q 176 151 176 167 L 176 176" fill="#000080" clip-path="url(#clip-mask-7)" /><path d="M 177 127 Q 204 117 214 118 Q 222 119 225 123 Q 228 127 221 128 Q 205 131 183 135 Q 179 135 177 134" fill="#000080" clip-path="url(#clip-mask-8)" /><path d="M 176 167 Q 212 157 219 158 Q 227 160 230 165 Q 233 169 225 170 Q 206 172 181 176 Q 178 176 176 176" fill="#000080" clip-path="url(#clip-mask-9)" /><rect x="31" y="84" width="24" height="53" id="rect-1" fill="transparent" stroke="#000000"><animate attributeName="y" from="31" to="84" dur="0.196" begin="0; animate9.end + 1s" id="animate1" fill="freeze"/></rect><rect x="86" y="65" width="37" height="33" id="rect-2" fill="transparent" stroke="#000000"><set attributeName="y" to="32" begin="0; animate9.end + 1s" /><animate attributeName="y" from="32" to="65" dur="0.122" begin="animate1.end + 0.5" id="animate2" fill="freeze"/></rect><rect x="25" y="27" width="70" height="205" id="rect-3" fill="transparent" stroke="#000000"><set attributeName="y" to="-178" begin="0; animate9.end + 1s" /><animate attributeName="y" from="-178" to="27" dur="0.759" begin="animate2.end + 0.5" id="animate3" fill="freeze"/></rect><rect x="81" y="150" width="36" height="37" id="rect-4" fill="transparent" stroke="#000000"><set attributeName="x" to="45" begin="0; animate9.end + 1s" /><animate attributeName="x" from="45" to="81" dur="0.133" begin="animate3.end + 0.5" id="animate4" fill="freeze"/></rect><rect x="111" y="14" width="70" height="113" id="rect-5" fill="transparent" stroke="#000000"><set attributeName="y" to="-99" begin="0; animate9.end + 1s" /><animate attributeName="y" from="-99" to="14" dur="0.419" begin="animate4.end + 0.5" id="animate5" fill="freeze"/></rect><rect x="147" y="64" width="97" height="31" id="rect-6" fill="transparent" stroke="#000000"><set attributeName="x" to="50" begin="0; animate9.end + 1s" /><animate attributeName="x" from="50" to="147" dur="0.359" begin="animate5.end + 0.5" id="animate6" fill="freeze"/></rect><rect x="154" y="93" width="26" height="162" id="rect-7" fill="transparent" stroke="#000000"><set attributeName="y" to="-69" begin="0; animate9.end + 1s" /><animate attributeName="y" from="-69" to="93" dur="0.600" begin="animate6.end + 0.5" id="animate7" fill="freeze"/></rect><rect x="177" y="117" width="51" height="18" id="rect-8" fill="transparent" stroke="#000000"><set attributeName="x" to="126" begin="0; animate9.end + 1s" /><animate attributeName="x" from="126" to="177" dur="0.189" begin="animate7.end + 0.5" id="animate8" fill="freeze"/></rect><rect x="176" y="157" width="57" height="19" id="rect-9" fill="transparent" stroke="#000000"><set attributeName="x" to="119" begin="0; animate9.end + 1s" /><animate attributeName="x" from="119" to="176" dur="0.211" begin="animate8.end + 0.5" id="animate9" fill="freeze"/></rect></svg>