<svg xmlns="http://www.w3.org/2000/svg" xmlns:xlink="http://www.w3.org/1999/xlink" width="270" height="270"><defs><clipPath id="clip-mask-1"><use xlink:href="#rect-1" /></clipPath><clipPath id="clip-mask-2"><use xlink:href="#rect-2" /></clipPath><clipPath id="clip-mask-3"><use xlink:href="#rect-3" /></clipPath><clipPath id="clip-mask-4"><use xlink:href="#rect-4" /></clipPath><clipPath id="clip-mask-5"><use xlink:href="#rect-5" /></clipPath><clipPath id="clip-mask-6"><use xlink:href="#rect-6" /></clipPath><clipPath id="clip-mask-7"><use xlink:href="#rect-7" /></clipPath><clipPath id="clip-mask-8"><use xlink:href="#rect-8" /></clipPath><clipPath id="clip-mask-9"><use xlink:href="#rect-9" /></clipPath><clipPath id="clip-mask-10"><use xlink:href="#rect-10" /></clipPath><clipPath id="clip-mask-11"><use xlink:href="#rect-11" /></clipPath><clipPath id="clip-mask-12"><use xlink:href="#rect-12" /></clipPath><clipPath id="clip-mask-13"><use xlink:href="#rect-13" /></clipPath><clipPath id="clip-mask-14"><use xlink:href="#rect-14" /></clipPath><clipPath id="clip-mask-15"><use xlink:href="#rect-15" /></clipPath></defs><path d="M 0 0 L 270 270 M 270 0 L 0 270 M 135 0 L 135 270 M 0 135 L 270 135" stroke="#CCCCCC" /><path d="M 34 95 L 36 94 Q 37 94 39 95 Q 43 101 44 110 Q 49 128 40 141 Q 36 146 32 142 Q 25 134 28 125 Q 32 112 33 97" fill="#CCCCCC"/><path d="M 77 92 Q 93 75 93 71 Q 93 67 96 67 Q 101 68 104 72 Q 108 76 109 80 Q 110 82 106 82 Q 96 87 77 98" fill="#CCCCCC"/><path d="M 72 172 L 71 173 Q 62 221 35 235 Q 27 240 24 239 Q 21 240 20 239 Q 20 237 23 235 Q 52 204 59 165 Q 59 163 60 162 Q 72 63 55 36 Q 53 33 55 31 Q 58 29 65 30 Q 76 33 82 38 Q 85 41 83 45 Q 78 59 77 92 L 77 98 Q 75 147 73 164 L 72 170" fill="#CCCCCC"/><path d="M 73 164 Q 75 164 76 165 Q 99 172 100 180 Q 102 186 101 189 Q 99 193 97 192 Q 93 193 91 189 Q 83 182 77 175 Q 73 172 72 170" fill="#CCCCCC"/><path d="M 165 61 Q 156 63 148 65 L 136 67 Q 126 67 118 62 Q 111 58 121 57 Q 146 54 182 46 Q 205 38 213 39 Q 220 41 222 44 Q 223 46 220 48 Q 218 50 178 59" fill="#CCCCCC"/><path d="M 115 108 Q 117 117 123 141 Q 124 145 124 148 L 124 155 Q 124 156 124 158 Q 123 162 118 157 Q 113 152 112 144 Q 106 118 98 102 Q 96 99 97 97 Q 98 96 101 96 Q 108 97 111 98" fill="#CCCCCC"/><path d="M 161 88 L 170 87 L 179 85 Q 185 83 200 81 Q 215 77 220 80 Q 232 87 236 92 L 211 92 Q 205 88 179 93 L 170 95 Q 160 97 151 99 L 140 101 Q 126 104 116 108 Q 115 108 115 108 L 111 98 Q 124 96 140 93 L 152 91" fill="#CCCCCC"/><path d="M 236 92 Q 239 95 235 99 Q 229 105 226 114 Q 217 146 212 152 Q 208 157 205 155 Q 201 153 197 146 L 199 139 Q 202 138 203 135 Q 206 130 213 100 Q 214 95 211 92" fill="#CCCCCC"/><path d="M 151 99 Q 149 106 147 113 Q 139 131 133 132 Q 131 133 131 131 Q 131 130 132 128 Q 137 119 140 101 L 140 93 Q 140 92 140 92 Q 140 71 136 67 L 148 65 Q 151 66 153 67 Q 154 70 153 73 Q 152 76 152 82 Q 152 86 152 91" fill="#CCCCCC"/><path d="M 170 87 Q 170 85 170 85 Q 169 66 165 61 L 178 59 Q 180 59 181 60 Q 184 62 183 66 Q 180 76 179 85 L 179 93 Q 179 103 180 107 L 176 120 Q 170 115 170 102 Q 170 98 170 95" fill="#CCCCCC"/><path d="M 180 107 Q 182 110 202 115 Q 203 116 201 119 Q 198 122 191 122 Q 179 122 176 120" fill="#CCCCCC"/><path d="M 149 152 Q 140 153 132 154 Q 127 155 124 155 L 124 148 Q 150 143 179 138 Q 189 136 194 137 Q 197 137 199 139 L 197 146 Q 179 147 159 150" fill="#CCCCCC"/><path d="M 153 187 Q 149 187 147 187 Q 134 191 125 186 Q 119 182 127 180 Q 141 179 153 176 L 167 173 Q 185 166 192 167 Q 198 169 200 172 Q 201 173 199 175 Q 198 175 166 184" fill="#CCCCCC"/><path d="M 153 199 L 153 187 L 153 176 Q 152 159 149 152 L 159 150 Q 170 158 168 165 Q 167 169 167 173 L 166 184 Q 165 199 165 216 L 153 217" fill="#CCCCCC"/><path d="M 165 216 Q 200 212 222 208 Q 231 206 245 217 Q 249 221 247 224 Q 246 226 241 226 Q 164 221 105 233 Q 100 234 95 233 Q 90 231 87 227 Q 83 223 88 222 Q 123 220 153 217" fill="#CCCCCC"/><path d="M 34 95 L 36 94 Q 37 94 39 95 Q 43 101 44 110 Q 49 128 40 141 Q 36 146 32 142 Q 25 134 28 125 Q 32 112 33 97" fill="#0000ff" clip-path="url(#clip-mask-1)" /><path d="M 77 92 Q 93 75 93 71 Q 93 67 96 67 Q 101 68 104 72 Q 108 76 109 80 Q 110 82 106 82 Q 96 87 77 98" fill="#0000ff" clip-path="url(#clip-mask-2)" /><path d="M 72 172 L 71 173 Q 62 221 35 235 Q 27 240 24 239 Q 21 240 20 239 Q 20 237 23 235 Q 52 204 59 165 Q 59 163 60 162 Q 72 63 55 36 Q 53 33 55 31 Q 58 29 65 30 Q 76 33 82 38 Q 85 41 83 45 Q 78 59 77 92 L 77 98 Q 75 147 73 164 L 72 170" fill="#0000ff" clip-path="url(#clip-mask-3)" /><path d="M 73 164 Q 75 164 76 165 Q 99 172 100 180 Q 102 186 101 189 Q 99 193 97 192 Q 93 193 91 189 Q 83 182 77 175 Q 73 172 72 170" fill="#0000ff" clip-path="url(#clip-mask-4)" /><path d="M 165 61 Q 156 63 148 65 L 136 67 Q 126 67 118 62 Q 111 58 121 57 Q 146 54 182 46 Q 205 38 213 39 Q 220 41 222 44 Q 223 46 220 48 Q 218 50 178 59" fill="#000080" clip-path="url(#clip-mask-5)" /><path d="M 115 108 Q 117 117 123 141 Q 124 145 124 148 L 124 155 Q 124 156 124 158 Q 123 162 118 157 Q 113 152 112 144 Q 106 118 98 102 Q 96 99 97 97 Q 98 96 101 96 Q 108 97 111 98" fill="#000080" clip-path="url(#clip-mask-6)" /><path d="M 161 88 L 170 87 L 179 85 Q 185 83 200 81 Q 215 77 220 80 Q 232 87 236 92 L 211 92 Q 205 88 179 93 L 170 95 Q 160 97 151 99 L 140 101 Q 126 104 116 108 Q 115 108 115 108 L 111 98 Q 124 96 140 93 L 152 91" fill="#000080" clip-path="url(#clip-mask-7)" /><path d="M 236 92 Q 239 95 235 99 Q 229 105 226 114 Q 217 146 212 152 Q 208 157 205 155 Q 201 153 197 146 L 199 139 Q 202 138 203 135 Q 206 130 213 100 Q 214 95 211 92" fill="#000080" clip-path="url(#clip-mask-8)" /><path d="M 151 99 Q 149 106 147 113 Q 139 131 133 132 Q 131 133 131 131 Q 131 130 132 128 Q 137 119 140 101 L 140 93 Q 140 92 140 92 Q 140 71 136 67 L 148 65 Q 151 66 153 67 Q 154 70 153 73 Q 152 76 152 82 Q 152 86 152 91" fill="#000080" clip-path="url(#clip-mask-9)" /><path d="M 170 87 Q 170 85 170 85 Q 169 66 165 61 L 178 59 Q 180 59 181 60 Q 184 62 183 66 Q 180 76 179 85 L 179 93 Q 179 103 180 107 L 176 120 Q 170 115 170 102 Q 170 98 170 95" fill="#000080" clip-path="url(#clip-mask-10)" /><path d="M 180 107 Q 182 110 202 115 Q 203 116 201 119 Q 198 122 191 122 Q 179 122 176 120" fill="#000080" clip-path="url(#clip-mask-11)" /><path d="M 149 152 Q 140 153 132 154 Q 127 155 124 155 L 124 148 Q 150 143 179 138 Q 189 136 194 137 Q 197 137 199 139 L 197 146 Q 179 147 159 150" fill="#000080" clip-path="url(#clip-mask-12)" /><path d="M 153 187 Q 149 187 147 187 Q 134 191 125 186 Q 119 182 127 180 Q 141 179 153 176 L 167 173 Q 185 166 192 167 Q 198 169 200 172 Q 201 173 199 175 Q 198 175 166 184" fill="#000080" clip-path="url(#clip-mask-13)" /><path d="M 153 199 L 153 187 L 153 176 Q 152 159 149 152 L 159 150 Q 170 158 168 165 Q 167 169 167 173 L 166 184 Q 165 199 165 216 L 153 217" fill="#000080" clip-path="url(#clip-mask-14)" /><path d="M 165 216 Q 200 212 222 208 Q 231 206 245 217 Q 249 221 247 224 Q 246 226 241 226 Q 164 221 105 233 Q 100 234 95 233 Q 90 231 87 227 Q 83 223 88 222 Q 123 220 153 217" fill="#000080" clip-path="url(#clip-mask-15)" /><rect x="25" y="94" width="24" height="52" id="rect-1" fill="transparent" stroke="#000000"><animate attributeName="y" from="42" to="94" dur="0.193" begin="0; animate15.end + 1s" id="animate1" fill="freeze"/></rect><rect x="77" y="67" width="33" height="31" id="rect-2" fill="transparent" stroke="#000000"><set attributeName="y" to="36" begin="0; animate15.end + 1s" /><animate attributeName="y" from="36" to="67" dur="0.115" begin="animate1.end + 0.5" id="animate2" fill="freeze"/></rect><rect x="20" y="29" width="65" height="211" id="rect-3" fill="transparent" stroke="#000000"><set attributeName="y" to="-182" begin="0; animate15.end + 1s" /><animate attributeName="y" from="-182" to="29" dur="0.781" begin="animate2.end + 0.5" id="animate3" fill="freeze"/></rect><rect x="72" y="164" width="30" height="29" id="rect-4" fill="transparent" stroke="#000000"><set attributeName="x" to="42" begin="0; animate15.end + 1s" /><animate attributeName="x" from="42" to="72" dur="0.111" begin="animate3.end + 0.5" id="animate4" fill="freeze"/></rect><rect x="111" y="38" width="112" height="29" id="rect-5" fill="transparent" stroke="#000000"><set attributeName="x" to="-1" begin="0; animate15.end + 1s" /><animate attributeName="x" from="-1" to="111" dur="0.415" begin="animate4.end + 0.5" id="animate5" fill="freeze"/></rect><rect x="96" y="96" width="28" height="66" id="rect-6" fill="transparent" stroke="#000000"><set attributeName="y" to="30" begin="0; animate15.end + 1s" /><animate attributeName="y" from="30" to="96" dur="0.244" begin="animate5.end + 0.5" id="animate6" fill="freeze"/></rect><rect x="111" y="77" width="125" height="31" id="rect-7" fill="transparent" stroke="#000000"><set attributeName="x" to="-14" begin="0; animate15.end + 1s" /><animate attributeName="x" from="-14" to="111" dur="0.463" begin="animate6.end + 0.5" id="animate7" fill="freeze"/></rect><rect x="197" y="92" width="42" height="65" id="rect-8" fill="transparent" stroke="#000000"><set attributeName="y" to="27" begin="0; animate15.end + 1s" /><animate attributeName="y" from="27" to="92" dur="0.241" begin="animate7.end" id="animate8" fill="freeze"/></rect><rect x="131" y="65" width="23" height="68" id="rect-9" fill="transparent" stroke="#000000"><set attributeName="y" to="-3" begin="0; animate15.end + 1s" /><animate attributeName="y" from="-3" to="65" dur="0.252" begin="animate8.end + 0.5" id="animate9" fill="freeze"/></rect><rect x="165" y="59" width="19" height="61" id="rect-10" fill="transparent" stroke="#000000"><set attributeName="y" to="-2" begin="0; animate15.end + 1s" /><animate attributeName="y" from="-2" to="59" dur="0.226" begin="animate9.end + 0.5" id="animate10" fill="freeze"/></rect><rect x="176" y="107" width="27" height="15" id="rect-11" fill="transparent" stroke="#000000"><set attributeName="x" to="149" begin="0; animate15.end + 1s" /><animate attributeName="x" from="149" to="176" dur="0.100" begin="animate10.end" id="animate11" fill="freeze"/></rect><rect x="124" y="136" width="75" height="19" id="rect-12" fill="transparent" stroke="#000000"><set attributeName="x" to="49" begin="0; animate15.end + 1s" /><animate attributeName="x" from="49" to="124" dur="0.278" begin="animate11.end + 0.5" id="animate12" fill="freeze"/></rect><rect x="119" y="166" width="82" height="25" id="rect-13" fill="transparent" stroke="#000000"><set attributeName="x" to="37" begin="0; animate15.end + 1s" /><animate attributeName="x" from="37" to="119" dur="0.304" begin="animate12.end + 0.5" id="animate13" fill="freeze"/></rect><rect x="149" y="150" width="21" height="67" id="rect-14" fill="transparent" stroke="#000000"><set attributeName="y" to="83" begin="0; animate15.end + 1s" /><animate attributeName="y" from="83" to="150" dur="0.248" begin="animate13.end + 0.5" id="animate14" fill="freeze"/></rect><rect x="83" y="206" width="166" height="28" id="rect-15" fill="transparent" stroke="#000000"><set attributeName="x" to="-83" begin="0; animate15.end + 1s" /><animate attributeName="x" from="-83" to="83" dur="0.615" begin="animate14.end + 0.5" id="animate15" fill="freeze"/></rect></svg>