<svg xmlns="http://www.w3.org/2000/svg" xmlns:xlink="http://www.w3.org/1999/xlink" width="270" height="270"><defs><clipPath id="clip-mask-1"><use xlink:href="#rect-1" /></clipPath><clipPath id="clip-mask-2"><use xlink:href="#rect-2" /></clipPath><clipPath id="clip-mask-3"><use xlink:href="#rect-3" /></clipPath><clipPath id="clip-mask-4"><use xlink:href="#rect-4" /></clipPath><clipPath id="clip-mask-5"><use xlink:href="#rect-5" /></clipPath><clipPath id="clip-mask-6"><use xlink:href="#rect-6" /></clipPath><clipPath id="clip-mask-7"><use xlink:href="#rect-7" /></clipPath><clipPath id="clip-mask-8"><use xlink:href="#rect-8" /></clipPath><clipPath id="clip-mask-9"><use xlink:href="#rect-9" /></clipPath><clipPath id="clip-mask-10"><use xlink:href="#rect-10" /></clipPath><clipPath id="clip-mask-11"><use xlink:href="#rect-11" /></clipPath><clipPath id="clip-mask-12"><use xlink:href="#rect-12" /></clipPath><clipPath id="clip-mask-13"><use xlink:href="#rect-13" /></clipPath><clipPath id="clip-mask-14"><use xlink:href="#rect-14" /></clipPath><clipPath id="clip-mask-15"><use xlink:href="#rect-15" /></clipPath><clipPath id="clip-mask-16"><use xlink:href="#rect-16" /></clipPath><clipPath id="clip-mask-17"><use xlink:href="#rect-17" /></clipPath><clipPath id="clip-mask-18"><use xlink:href="#rect-18" /></clipPath><clipPath id="clip-mask-19"><use xlink:href="#rect-19" /></clipPath><clipPath id="clip-mask-20"><use xlink:href="#rect-20" /></clipPath><clipPath id="clip-mask-21"><use xlink:href="#rect-21" /></clipPath></defs><path d="M 0 0 L 270 270 M 270 0 L 0 270 M 135 0 L 135 270 M 0 135 L 270 135" stroke="#CCCCCC" /><path d="M 58 97 Q 55 99 52 96 Q 46 91 45 87 Q 44 84 47 81 Q 55 76 60 71 Q 90 37 86 24 Q 85 18 89 17 Q 91 16 95 18 Q 107 25 108 28 Q 110 32 107 34 Q 100 40 71 75 Q 69 78 69 79" fill="#CCCCCC"/><path d="M 115 74 L 112 75 Q 66 89 58 97 L 69 79 Q 70 79 72 78 Q 93 71 113 67 L 117 72" fill="#CCCCCC"/><path d="M 113 67 Q 107 59 107 57 Q 107 54 108 54 Q 110 54 113 55 Q 134 66 135 76 Q 135 82 134 84 Q 132 87 130 86 Q 127 86 117 72" fill="#CCCCCC"/><path d="M 69 165 L 69 167 Q 67 191 59 197 Q 56 198 55 194 Q 47 185 55 168 Q 67 132 58 110 Q 56 107 60 106 Q 64 106 71 110 Q 72 111 73 112 L 75 118 Q 75 118 75 119 Q 74 123 73 132 L 72 140 Q 71 147 70 156 L 69 164" fill="#CCCCCC"/><path d="M 73 112 Q 81 109 96 105 Q 110 99 114 101 Q 122 103 126 107 Q 129 110 127 113 L 108 112 Q 105 111 80 116 Q 77 118 75 118" fill="#CCCCCC"/><path d="M 127 113 Q 123 120 124 128 Q 125 149 126 171 Q 126 180 121 189 Q 117 198 114 198 Q 111 198 108 195 L 108 179 Q 111 178 111 173 Q 113 149 111 118 Q 111 113 108 112" fill="#CCCCCC"/><path d="M 108 195 Q 103 188 96 182 Q 93 180 92 178 Q 92 176 95 177 Q 106 180 108 179" fill="#CCCCCC"/><path d="M 73 132 Q 82 127 90 128 Q 97 129 99 132 Q 102 136 96 137 Q 86 138 72 140" fill="#CCCCCC"/><path d="M 70 156 Q 80 150 90 152 Q 97 153 99 156 Q 101 159 96 160 Q 85 162 69 164" fill="#CCCCCC"/><path d="M 162 56 Q 190 42 191 35 Q 191 33 193 32 Q 200 31 213 41 Q 216 44 215 46 Q 214 48 210 48 Q 202 49 192 53 Q 177 59 162 60" fill="#CCCCCC"/><path d="M 162 72 L 165 78 L 158 92 Q 149 84 151 42 Q 151 32 148 22 Q 146 18 148 17 Q 150 16 154 17 Q 160 18 163 22 Q 166 24 165 29 Q 162 44 162 56 L 162 60" fill="#CCCCCC"/><path d="M 165 78 Q 166 81 170 83 Q 181 88 194 84 L 221 79 Q 225 85 221 89 Q 214 94 207 96 Q 174 104 158 92" fill="#CCCCCC"/><path d="M 194 84 Q 199 83 201 81 Q 204 77 209 65 Q 210 61 211 61 Q 213 62 213 66 Q 219 76 221 79" fill="#CCCCCC"/><path d="M 171 139 L 180 135 Q 200 123 201 117 Q 201 114 204 115 Q 207 115 211 120 Q 216 125 217 130 Q 218 135 213 135 Q 207 136 201 138 Q 173 146 162 149 L 162 144" fill="#CCCCCC"/><path d="M 162 149 Q 162 164 165 170 L 159 185 Q 154 180 153 175 Q 150 166 151 131 Q 151 122 148 112 Q 146 107 148 106 Q 150 105 154 106 Q 160 108 163 111 Q 166 114 165 118 Q 162 132 162 144" fill="#CCCCCC"/><path d="M 165 170 Q 167 173 172 176 Q 186 182 201 179 L 230 175 Q 233 180 229 183 Q 221 189 213 192 Q 211 192 209 193 Q 176 199 159 185" fill="#CCCCCC"/><path d="M 201 179 Q 208 177 210 174 Q 214 169 221 153 Q 222 149 223 150 Q 224 151 224 154 Q 228 170 230 175" fill="#CCCCCC"/><path d="M 51 204 L 54 204 Q 56 204 57 207 Q 59 214 57 224 Q 58 240 44 250 Q 38 253 35 248 Q 31 238 37 228 Q 45 218 50 206" fill="#CCCCCC"/><path d="M 92 214 L 93 212 Q 94 209 96 210 Q 100 212 108 218 Q 114 222 116 227 Q 117 233 116 236 Q 113 240 109 239 Q 104 237 93 217" fill="#CCCCCC"/><path d="M 136 210 L 137 207 Q 136 204 138 204 Q 140 204 144 206 Q 164 217 165 227 Q 165 231 163 234 Q 161 236 157 235 Q 151 231 140 214" fill="#CCCCCC"/><path d="M 190 213 L 190 209 Q 191 206 193 207 Q 200 209 212 214 Q 223 218 228 221 Q 233 226 234 232 Q 238 245 234 248 Q 232 251 230 251 Q 226 250 221 244 Q 206 227 193 216" fill="#CCCCCC"/><path d="M 58 97 Q 55 99 52 96 Q 46 91 45 87 Q 44 84 47 81 Q 55 76 60 71 Q 90 37 86 24 Q 85 18 89 17 Q 91 16 95 18 Q 107 25 108 28 Q 110 32 107 34 Q 100 40 71 75 Q 69 78 69 79" fill="#000080" clip-path="url(#clip-mask-1)" /><path d="M 115 74 L 112 75 Q 66 89 58 97 L 69 79 Q 70 79 72 78 Q 93 71 113 67 L 117 72" fill="#000080" clip-path="url(#clip-mask-2)" /><path d="M 113 67 Q 107 59 107 57 Q 107 54 108 54 Q 110 54 113 55 Q 134 66 135 76 Q 135 82 134 84 Q 132 87 130 86 Q 127 86 117 72" fill="#000080" clip-path="url(#clip-mask-3)" /><path d="M 69 165 L 69 167 Q 67 191 59 197 Q 56 198 55 194 Q 47 185 55 168 Q 67 132 58 110 Q 56 107 60 106 Q 64 106 71 110 Q 72 111 73 112 L 75 118 Q 75 118 75 119 Q 74 123 73 132 L 72 140 Q 71 147 70 156 L 69 164" fill="#000080" clip-path="url(#clip-mask-4)" /><path d="M 73 112 Q 81 109 96 105 Q 110 99 114 101 Q 122 103 126 107 Q 129 110 127 113 L 108 112 Q 105 111 80 116 Q 77 118 75 118" fill="#000080" clip-path="url(#clip-mask-5)" /><path d="M 127 113 Q 123 120 124 128 Q 125 149 126 171 Q 126 180 121 189 Q 117 198 114 198 Q 111 198 108 195 L 108 179 Q 111 178 111 173 Q 113 149 111 118 Q 111 113 108 112" fill="#000080" clip-path="url(#clip-mask-6)" /><path d="M 108 195 Q 103 188 96 182 Q 93 180 92 178 Q 92 176 95 177 Q 106 180 108 179" fill="#000080" clip-path="url(#clip-mask-7)" /><path d="M 73 132 Q 82 127 90 128 Q 97 129 99 132 Q 102 136 96 137 Q 86 138 72 140" fill="#000080" clip-path="url(#clip-mask-8)" /><path d="M 70 156 Q 80 150 90 152 Q 97 153 99 156 Q 101 159 96 160 Q 85 162 69 164" fill="#000080" clip-path="url(#clip-mask-9)" /><path d="M 162 56 Q 190 42 191 35 Q 191 33 193 32 Q 200 31 213 41 Q 216 44 215 46 Q 214 48 210 48 Q 202 49 192 53 Q 177 59 162 60" fill="#000080" clip-path="url(#clip-mask-10)" /><path d="M 162 72 L 165 78 L 158 92 Q 149 84 151 42 Q 151 32 148 22 Q 146 18 148 17 Q 150 16 154 17 Q 160 18 163 22 Q 166 24 165 29 Q 162 44 162 56 L 162 60" fill="#000080" clip-path="url(#clip-mask-11)" /><path d="M 165 78 Q 166 81 170 83 Q 181 88 194 84 L 221 79 Q 225 85 221 89 Q 214 94 207 96 Q 174 104 158 92" fill="#000080" clip-path="url(#clip-mask-12)" /><path d="M 194 84 Q 199 83 201 81 Q 204 77 209 65 Q 210 61 211 61 Q 213 62 213 66 Q 219 76 221 79" fill="#000080" clip-path="url(#clip-mask-13)" /><path d="M 171 139 L 180 135 Q 200 123 201 117 Q 201 114 204 115 Q 207 115 211 120 Q 216 125 217 130 Q 218 135 213 135 Q 207 136 201 138 Q 173 146 162 149 L 162 144" fill="#000080" clip-path="url(#clip-mask-14)" /><path d="M 162 149 Q 162 164 165 170 L 159 185 Q 154 180 153 175 Q 150 166 151 131 Q 151 122 148 112 Q 146 107 148 106 Q 150 105 154 106 Q 160 108 163 111 Q 166 114 165 118 Q 162 132 162 144" fill="#000080" clip-path="url(#clip-mask-15)" /><path d="M 165 170 Q 167 173 172 176 Q 186 182 201 179 L 230 175 Q 233 180 229 183 Q 221 189 213 192 Q 211 192 209 193 Q 176 199 159 185" fill="#000080" clip-path="url(#clip-mask-16)" /><path d="M 201 179 Q 208 177 210 174 Q 214 169 221 153 Q 222 149 223 150 Q 224 151 224 154 Q 228 170 230 175" fill="#000080" clip-path="url(#clip-mask-17)" /><path d="M 51 204 L 54 204 Q 56 204 57 207 Q 59 214 57 224 Q 58 240 44 250 Q 38 253 35 248 Q 31 238 37 228 Q 45 218 50 206" fill="#0000ff" clip-path="url(#clip-mask-18)" /><path d="M 92 214 L 93 212 Q 94 209 96 210 Q 100 212 108 218 Q 114 222 116 227 Q 117 233 116 236 Q 113 240 109 239 Q 104 237 93 217" fill="#0000ff" clip-path="url(#clip-mask-19)" /><path d="M 136 210 L 137 207 Q 136 204 138 204 Q 140 204 144 206 Q 164 217 165 227 Q 165 231 163 234 Q 161 236 157 235 Q 151 231 140 214" fill="#0000ff" clip-path="url(#clip-mask-20)" /><path d="M 190 213 L 190 209 Q 191 206 193 207 Q 200 209 212 214 Q 223 218 228 221 Q 233 226 234 232 Q 238 245 234 248 Q 232 251 230 251 Q 226 250 221 244 Q 206 227 193 216" fill="#0000ff" clip-path="url(#clip-mask-21)" /><rect x="44" y="16" width="66" height="83" id="rect-1" fill="transparent" stroke="#000000"><animate attributeName="y" from="-67" to="16" dur="0.307" begin="0; animate21.end + 1s" id="animate1" fill="freeze"/></rect><rect x="58" y="67" width="59" height="30" id="rect-2" fill="transparent" stroke="#000000"><set attributeName="x" to="-1" begin="0; animate21.end + 1s" /><animate attributeName="x" from="-1" to="58" dur="0.219" begin="animate1.end" id="animate2" fill="freeze"/></rect><rect x="107" y="54" width="28" height="33" id="rect-3" fill="transparent" stroke="#000000"><set attributeName="y" to="21" begin="0; animate21.end + 1s" /><animate attributeName="y" from="21" to="54" dur="0.122" begin="animate2.end + 0.5" id="animate3" fill="freeze"/></rect><rect x="47" y="106" width="28" height="92" id="rect-4" fill="transparent" stroke="#000000"><set attributeName="y" to="14" begin="0; animate21.end + 1s" /><animate attributeName="y" from="14" to="106" dur="0.341" begin="animate3.end + 0.5" id="animate4" fill="freeze"/></rect><rect x="73" y="99" width="56" height="19" id="rect-5" fill="transparent" stroke="#000000"><set attributeName="x" to="17" begin="0; animate21.end + 1s" /><animate attributeName="x" from="17" to="73" dur="0.207" begin="animate4.end + 0.5" id="animate5" fill="freeze"/></rect><rect x="108" y="112" width="19" height="86" id="rect-6" fill="transparent" stroke="#000000"><set attributeName="y" to="26" begin="0; animate21.end + 1s" /><animate attributeName="y" from="26" to="112" dur="0.319" begin="animate5.end" id="animate6" fill="freeze"/></rect><rect x="92" y="176" width="16" height="19" id="rect-7" fill="transparent" stroke="#000000"><set attributeName="x" to="108" begin="0; animate21.end + 1s" /><animate attributeName="x" from="108" to="92" dur="0.059" begin="animate6.end" id="animate7" fill="freeze"/></rect><rect x="72" y="127" width="30" height="13" id="rect-8" fill="transparent" stroke="#000000"><set attributeName="x" to="42" begin="0; animate21.end + 1s" /><animate attributeName="x" from="42" to="72" dur="0.111" begin="animate7.end + 0.5" id="animate8" fill="freeze"/></rect><rect x="69" y="150" width="32" height="14" id="rect-9" fill="transparent" stroke="#000000"><set attributeName="x" to="37" begin="0; animate21.end + 1s" /><animate attributeName="x" from="37" to="69" dur="0.119" begin="animate8.end + 0.5" id="animate9" fill="freeze"/></rect><rect x="162" y="31" width="54" height="29" id="rect-10" fill="transparent" stroke="#000000"><set attributeName="x" to="216" begin="0; animate21.end + 1s" /><animate attributeName="x" from="216" to="162" dur="0.200" begin="animate9.end + 0.5" id="animate10" fill="freeze"/></rect><rect x="146" y="16" width="20" height="76" id="rect-11" fill="transparent" stroke="#000000"><set attributeName="y" to="-60" begin="0; animate21.end + 1s" /><animate attributeName="y" from="-60" to="16" dur="0.281" begin="animate10.end + 0.5" id="animate11" fill="freeze"/></rect><rect x="158" y="78" width="67" height="26" id="rect-12" fill="transparent" stroke="#000000"><set attributeName="x" to="91" begin="0; animate21.end + 1s" /><animate attributeName="x" from="91" to="158" dur="0.248" begin="animate11.end" id="animate12" fill="freeze"/></rect><rect x="194" y="61" width="27" height="23" id="rect-13" fill="transparent" stroke="#000000"><set attributeName="y" to="84" begin="0; animate21.end + 1s" /><animate attributeName="y" from="84" to="61" dur="0.085" begin="animate12.end" id="animate13" fill="freeze"/></rect><rect x="162" y="114" width="56" height="35" id="rect-14" fill="transparent" stroke="#000000"><set attributeName="x" to="218" begin="0; animate21.end + 1s" /><animate attributeName="x" from="218" to="162" dur="0.207" begin="animate13.end + 0.5" id="animate14" fill="freeze"/></rect><rect x="146" y="105" width="20" height="80" id="rect-15" fill="transparent" stroke="#000000"><set attributeName="y" to="25" begin="0; animate21.end + 1s" /><animate attributeName="y" from="25" to="105" dur="0.296" begin="animate14.end + 0.5" id="animate15" fill="freeze"/></rect><rect x="159" y="170" width="74" height="29" id="rect-16" fill="transparent" stroke="#000000"><set attributeName="x" to="85" begin="0; animate21.end + 1s" /><animate attributeName="x" from="85" to="159" dur="0.274" begin="animate15.end" id="animate16" fill="freeze"/></rect><rect x="201" y="149" width="29" height="30" id="rect-17" fill="transparent" stroke="#000000"><set attributeName="y" to="179" begin="0; animate21.end + 1s" /><animate attributeName="y" from="179" to="149" dur="0.111" begin="animate16.end" id="animate17" fill="freeze"/></rect><rect x="31" y="204" width="28" height="49" id="rect-18" fill="transparent" stroke="#000000"><set attributeName="y" to="155" begin="0; animate21.end + 1s" /><animate attributeName="y" from="155" to="204" dur="0.181" begin="animate17.end + 0.5" id="animate18" fill="freeze"/></rect><rect x="92" y="209" width="25" height="31" id="rect-19" fill="transparent" stroke="#000000"><set attributeName="x" to="67" begin="0; animate21.end + 1s" /><animate attributeName="x" from="67" to="92" dur="0.093" begin="animate18.end + 0.5" id="animate19" fill="freeze"/></rect><rect x="136" y="204" width="29" height="32" id="rect-20" fill="transparent" stroke="#000000"><set attributeName="x" to="107" begin="0; animate21.end + 1s" /><animate attributeName="x" from="107" to="136" dur="0.107" begin="animate19.end + 0.5" id="animate20" fill="freeze"/></rect><rect x="190" y="206" width="48" height="45" id="rect-21" fill="transparent" stroke="#000000"><set attributeName="x" to="142" begin="0; animate21.end + 1s" /><animate attributeName="x" from="142" to="190" dur="0.178" begin="animate20.end + 0.5" id="animate21" fill="freeze"/></rect></svg>