<svg xmlns="http://www.w3.org/2000/svg" xmlns:xlink="http://www.w3.org/1999/xlink" width="270" height="270"><defs><clipPath id="clip-mask-1"><use xlink:href="#rect-1" /></clipPath><clipPath id="clip-mask-2"><use xlink:href="#rect-2" /></clipPath><clipPath id="clip-mask-3"><use xlink:href="#rect-3" /></clipPath><clipPath id="clip-mask-4"><use xlink:href="#rect-4" /></clipPath><clipPath id="clip-mask-5"><use xlink:href="#rect-5" /></clipPath><clipPath id="clip-mask-6"><use xlink:href="#rect-6" /></clipPath><clipPath id="clip-mask-7"><use xlink:href="#rect-7" /></clipPath><clipPath id="clip-mask-8"><use xlink:href="#rect-8" /></clipPath><clipPath id="clip-mask-9"><use xlink:href="#rect-9" /></clipPath><clipPath id="clip-mask-10"><use xlink:href="#rect-10" /></clipPath><clipPath id="clip-mask-11"><use xlink:href="#rect-11" /></clipPath><clipPath id="clip-mask-12"><use xlink:href="#rect-12" /></clipPath><clipPath id="clip-mask-13"><use xlink:href="#rect-13" /></clipPath><clipPath id="clip-mask-14"><use xlink:href="#rect-14" /></clipPath><clipPath id="clip-mask-15"><use xlink:href="#rect-15" /></clipPath><clipPath id="clip-mask-16"><use xlink:href="#rect-16" /></clipPath><clipPath id="clip-mask-17"><use xlink:href="#rect-17" /></clipPath><clipPath id="clip-mask-18"><use xlink:href="#rect-18" /></clipPath><clipPath id="clip-mask-19"><use xlink:href="#rect-19" /></clipPath></defs><path d="M 0 0 L 270 270 M 270 0 L 0 270 M 135 0 L 135 270 M 0 135 L 270 135" stroke="#CCCCCC" /><path d="M 67 43 Q 67 43 67 43 Q 81 41 93 38 Q 104 35 114 32 Q 121 29 128 30 Q 135 32 137 35 Q 138 37 136 39 Q 135 39 108 46 L 99 48 Q 75 53 68 50" fill="#CCCCCC"/><path d="M 108 46 Q 109 48 111 50 Q 112 51 110 58 Q 109 66 107 76 L 97 78 Q 99 51 99 48" fill="#CCCCCC"/><path d="M 88 118 Q 88 120 87 121 Q 86 124 83 120 Q 80 116 79 111 Q 77 94 72 83 Q 71 80 72 79 Q 72 78 75 79 Q 80 79 81 80 L 86 87 Q 87 92 88 110" fill="#CCCCCC"/><path d="M 81 80 Q 90 79 97 78 L 107 76 Q 113 73 118 71 Q 122 69 126 71 Q 132 76 136 78 L 119 83 Q 117 81 111 82 Q 102 84 86 87" fill="#CCCCCC"/><path d="M 136 78 Q 141 82 136 87 Q 130 91 126 104 L 114 104 Q 116 97 118 91 Q 120 84 119 83" fill="#CCCCCC"/><path d="M 114 104 L 114 104 L 126 104 Q 131 108 131 109 Q 131 111 128 112 Q 116 113 107 115 L 98 116 Q 89 118 88 118 L 88 110 Q 100 108 113 104" fill="#CCCCCC"/><path d="M 99 146 Q 99 118 99 117 Q 98 117 98 116 L 107 115 Q 109 117 112 120 Q 114 122 112 125 Q 112 126 109 144" fill="#CCCCCC"/><path d="M 57 168 Q 53 171 51 169 Q 48 167 47 163 Q 45 158 47 154 Q 50 149 52 143 Q 62 61 51 41 Q 49 37 51 36 Q 53 34 57 37 Q 64 40 67 43 L 68 50 Q 67 55 67 64 Q 66 110 64 147 Q 65 150 66 150" fill="#CCCCCC"/><path d="M 128 140 L 132 143 Q 138 147 138 150 Q 138 153 133 153 Q 75 154 57 168 L 66 150 Q 67 151 69 150 Q 89 146 99 146 L 109 144" fill="#CCCCCC"/><path d="M 184 48 L 192 42 Q 195 41 197 41 Q 198 41 214 50 L 194 56 Q 193 53 186 55 Q 176 58 164 61 Q 161 62 159 63 L 159 55" fill="#CCCCCC"/><path d="M 214 50 Q 219 54 214 61 Q 207 66 201 86 L 187 83 Q 190 74 193 66 Q 196 58 194 56" fill="#CCCCCC"/><path d="M 201 86 Q 205 88 205 90 Q 204 92 202 92 Q 175 96 163 99 Q 158 100 156 99 L 156 92 Q 169 89 186 84 Q 186 83 187 83" fill="#CCCCCC"/><path d="M 159 63 Q 157 78 156 92 L 156 99 Q 154 121 160 132 L 155 147 Q 143 136 147 72 Q 147 64 144 54 Q 143 50 144 49 Q 146 48 149 49 Q 157 52 159 55" fill="#CCCCCC"/><path d="M 160 132 Q 161 136 167 138 Q 181 144 196 140 Q 203 138 206 135 L 228 134 Q 232 140 227 144 Q 219 150 211 153 Q 210 153 209 153 Q 173 162 155 147" fill="#CCCCCC"/><path d="M 206 135 Q 209 130 216 115 Q 217 111 218 111 Q 220 112 220 116 Q 225 130 228 134" fill="#CCCCCC"/><path d="M 56 187 L 59 187 Q 61 187 62 190 Q 63 198 61 206 Q 58 227 42 237 Q 36 240 34 235 Q 30 225 37 216 Q 47 204 55 190" fill="#CCCCCC"/><path d="M 91 192 L 91 189 Q 92 186 93 186 Q 96 186 99 188 Q 117 201 117 213 Q 116 217 114 219 Q 111 222 107 220 Q 100 214 93 197" fill="#CCCCCC"/><path d="M 139 186 L 139 183 Q 139 180 141 180 Q 143 179 147 181 Q 170 194 171 207 Q 171 212 169 214 Q 166 217 162 215 Q 155 211 142 190" fill="#CCCCCC"/><path d="M 189 181 L 190 177 Q 191 174 193 176 Q 237 203 237 219 Q 239 232 235 235 Q 233 237 230 237 Q 226 235 222 228 Q 206 203 191 184" fill="#CCCCCC"/><path d="M 67 43 Q 67 43 67 43 Q 81 41 93 38 Q 104 35 114 32 Q 121 29 128 30 Q 135 32 137 35 Q 138 37 136 39 Q 135 39 108 46 L 99 48 Q 75 53 68 50" fill="#000080" clip-path="url(#clip-mask-1)" /><path d="M 108 46 Q 109 48 111 50 Q 112 51 110 58 Q 109 66 107 76 L 97 78 Q 99 51 99 48" fill="#000080" clip-path="url(#clip-mask-2)" /><path d="M 88 118 Q 88 120 87 121 Q 86 124 83 120 Q 80 116 79 111 Q 77 94 72 83 Q 71 80 72 79 Q 72 78 75 79 Q 80 79 81 80 L 86 87 Q 87 92 88 110" fill="#000080" clip-path="url(#clip-mask-3)" /><path d="M 81 80 Q 90 79 97 78 L 107 76 Q 113 73 118 71 Q 122 69 126 71 Q 132 76 136 78 L 119 83 Q 117 81 111 82 Q 102 84 86 87" fill="#000080" clip-path="url(#clip-mask-4)" /><path d="M 136 78 Q 141 82 136 87 Q 130 91 126 104 L 114 104 Q 116 97 118 91 Q 120 84 119 83" fill="#000080" clip-path="url(#clip-mask-5)" /><path d="M 114 104 L 114 104 L 126 104 Q 131 108 131 109 Q 131 111 128 112 Q 116 113 107 115 L 98 116 Q 89 118 88 118 L 88 110 Q 100 108 113 104" fill="#000080" clip-path="url(#clip-mask-6)" /><path d="M 99 146 Q 99 118 99 117 Q 98 117 98 116 L 107 115 Q 109 117 112 120 Q 114 122 112 125 Q 112 126 109 144" fill="#000080" clip-path="url(#clip-mask-7)" /><path d="M 57 168 Q 53 171 51 169 Q 48 167 47 163 Q 45 158 47 154 Q 50 149 52 143 Q 62 61 51 41 Q 49 37 51 36 Q 53 34 57 37 Q 64 40 67 43 L 68 50 Q 67 55 67 64 Q 66 110 64 147 Q 65 150 66 150" fill="#000080" clip-path="url(#clip-mask-8)" /><path d="M 128 140 L 132 143 Q 138 147 138 150 Q 138 153 133 153 Q 75 154 57 168 L 66 150 Q 67 151 69 150 Q 89 146 99 146 L 109 144" fill="#000080" clip-path="url(#clip-mask-9)" /><path d="M 184 48 L 192 42 Q 195 41 197 41 Q 198 41 214 50 L 194 56 Q 193 53 186 55 Q 176 58 164 61 Q 161 62 159 63 L 159 55" fill="#000080" clip-path="url(#clip-mask-10)" /><path d="M 214 50 Q 219 54 214 61 Q 207 66 201 86 L 187 83 Q 190 74 193 66 Q 196 58 194 56" fill="#000080" clip-path="url(#clip-mask-11)" /><path d="M 201 86 Q 205 88 205 90 Q 204 92 202 92 Q 175 96 163 99 Q 158 100 156 99 L 156 92 Q 169 89 186 84 Q 186 83 187 83" fill="#000080" clip-path="url(#clip-mask-12)" /><path d="M 159 63 Q 157 78 156 92 L 156 99 Q 154 121 160 132 L 155 147 Q 143 136 147 72 Q 147 64 144 54 Q 143 50 144 49 Q 146 48 149 49 Q 157 52 159 55" fill="#000080" clip-path="url(#clip-mask-13)" /><path d="M 160 132 Q 161 136 167 138 Q 181 144 196 140 Q 203 138 206 135 L 228 134 Q 232 140 227 144 Q 219 150 211 153 Q 210 153 209 153 Q 173 162 155 147" fill="#000080" clip-path="url(#clip-mask-14)" /><path d="M 206 135 Q 209 130 216 115 Q 217 111 218 111 Q 220 112 220 116 Q 225 130 228 134" fill="#000080" clip-path="url(#clip-mask-15)" /><path d="M 56 187 L 59 187 Q 61 187 62 190 Q 63 198 61 206 Q 58 227 42 237 Q 36 240 34 235 Q 30 225 37 216 Q 47 204 55 190" fill="#0000ff" clip-path="url(#clip-mask-16)" /><path d="M 91 192 L 91 189 Q 92 186 93 186 Q 96 186 99 188 Q 117 201 117 213 Q 116 217 114 219 Q 111 222 107 220 Q 100 214 93 197" fill="#0000ff" clip-path="url(#clip-mask-17)" /><path d="M 139 186 L 139 183 Q 139 180 141 180 Q 143 179 147 181 Q 170 194 171 207 Q 171 212 169 214 Q 166 217 162 215 Q 155 211 142 190" fill="#0000ff" clip-path="url(#clip-mask-18)" /><path d="M 189 181 L 190 177 Q 191 174 193 176 Q 237 203 237 219 Q 239 232 235 235 Q 233 237 230 237 Q 226 235 222 228 Q 206 203 191 184" fill="#0000ff" clip-path="url(#clip-mask-19)" /><rect x="67" y="29" width="71" height="24" id="rect-1" fill="transparent" stroke="#000000"><animate attributeName="x" from="-4" to="67" dur="0.263" begin="0; animate19.end + 1s" id="animate1" fill="freeze"/></rect><rect x="97" y="46" width="15" height="32" id="rect-2" fill="transparent" stroke="#000000"><set attributeName="y" to="14" begin="0; animate19.end + 1s" /><animate attributeName="y" from="14" to="46" dur="0.119" begin="animate1.end + 0.5" id="animate2" fill="freeze"/></rect><rect x="71" y="78" width="17" height="46" id="rect-3" fill="transparent" stroke="#000000"><set attributeName="y" to="32" begin="0; animate19.end + 1s" /><animate attributeName="y" from="32" to="78" dur="0.170" begin="animate2.end + 0.5" id="animate3" fill="freeze"/></rect><rect x="81" y="69" width="55" height="18" id="rect-4" fill="transparent" stroke="#000000"><set attributeName="x" to="26" begin="0; animate19.end + 1s" /><animate attributeName="x" from="26" to="81" dur="0.204" begin="animate3.end + 0.5" id="animate4" fill="freeze"/></rect><rect x="114" y="78" width="27" height="26" id="rect-5" fill="transparent" stroke="#000000"><set attributeName="y" to="52" begin="0; animate19.end + 1s" /><animate attributeName="y" from="52" to="78" dur="0.096" begin="animate4.end" id="animate5" fill="freeze"/></rect><rect x="88" y="104" width="43" height="14" id="rect-6" fill="transparent" stroke="#000000"><set attributeName="x" to="45" begin="0; animate19.end + 1s" /><animate attributeName="x" from="45" to="88" dur="0.159" begin="animate5.end + 0.5" id="animate6" fill="freeze"/></rect><rect x="98" y="115" width="16" height="31" id="rect-7" fill="transparent" stroke="#000000"><set attributeName="y" to="84" begin="0; animate19.end + 1s" /><animate attributeName="y" from="84" to="115" dur="0.115" begin="animate6.end + 0.5" id="animate7" fill="freeze"/></rect><rect x="45" y="34" width="23" height="137" id="rect-8" fill="transparent" stroke="#000000"><set attributeName="y" to="-103" begin="0; animate19.end + 1s" /><animate attributeName="y" from="-103" to="34" dur="0.507" begin="animate7.end + 0.5" id="animate8" fill="freeze"/></rect><rect x="57" y="140" width="81" height="28" id="rect-9" fill="transparent" stroke="#000000"><set attributeName="x" to="-24" begin="0; animate19.end + 1s" /><animate attributeName="x" from="-24" to="57" dur="0.300" begin="animate8.end" id="animate9" fill="freeze"/></rect><rect x="159" y="41" width="55" height="22" id="rect-10" fill="transparent" stroke="#000000"><set attributeName="x" to="104" begin="0; animate19.end + 1s" /><animate attributeName="x" from="104" to="159" dur="0.204" begin="animate9.end + 0.5" id="animate10" fill="freeze"/></rect><rect x="187" y="50" width="32" height="36" id="rect-11" fill="transparent" stroke="#000000"><set attributeName="y" to="14" begin="0; animate19.end + 1s" /><animate attributeName="y" from="14" to="50" dur="0.133" begin="animate10.end" id="animate11" fill="freeze"/></rect><rect x="156" y="83" width="49" height="17" id="rect-12" fill="transparent" stroke="#000000"><set attributeName="x" to="107" begin="0; animate19.end + 1s" /><animate attributeName="x" from="107" to="156" dur="0.181" begin="animate11.end + 0.5" id="animate12" fill="freeze"/></rect><rect x="143" y="48" width="17" height="99" id="rect-13" fill="transparent" stroke="#000000"><set attributeName="y" to="-51" begin="0; animate19.end + 1s" /><animate attributeName="y" from="-51" to="48" dur="0.367" begin="animate12.end + 0.5" id="animate13" fill="freeze"/></rect><rect x="155" y="132" width="77" height="30" id="rect-14" fill="transparent" stroke="#000000"><set attributeName="x" to="78" begin="0; animate19.end + 1s" /><animate attributeName="x" from="78" to="155" dur="0.285" begin="animate13.end" id="animate14" fill="freeze"/></rect><rect x="206" y="111" width="22" height="24" id="rect-15" fill="transparent" stroke="#000000"><set attributeName="y" to="135" begin="0; animate19.end + 1s" /><animate attributeName="y" from="135" to="111" dur="0.089" begin="animate14.end" id="animate15" fill="freeze"/></rect><rect x="30" y="187" width="33" height="53" id="rect-16" fill="transparent" stroke="#000000"><set attributeName="y" to="134" begin="0; animate19.end + 1s" /><animate attributeName="y" from="134" to="187" dur="0.196" begin="animate15.end + 0.5" id="animate16" fill="freeze"/></rect><rect x="91" y="186" width="26" height="36" id="rect-17" fill="transparent" stroke="#000000"><set attributeName="y" to="150" begin="0; animate19.end + 1s" /><animate attributeName="y" from="150" to="186" dur="0.133" begin="animate16.end + 0.5" id="animate17" fill="freeze"/></rect><rect x="139" y="179" width="32" height="38" id="rect-18" fill="transparent" stroke="#000000"><set attributeName="y" to="141" begin="0; animate19.end + 1s" /><animate attributeName="y" from="141" to="179" dur="0.141" begin="animate17.end + 0.5" id="animate18" fill="freeze"/></rect><rect x="189" y="174" width="50" height="63" id="rect-19" fill="transparent" stroke="#000000"><set attributeName="x" to="139" begin="0; animate19.end + 1s" /><animate attributeName="x" from="139" to="189" dur="0.185" begin="animate18.end + 0.5" id="animate19" fill="freeze"/></rect></svg>