<svg xmlns="http://www.w3.org/2000/svg" xmlns:xlink="http://www.w3.org/1999/xlink" width="270" height="270"><defs><clipPath id="clip-mask-1"><use xlink:href="#rect-1" /></clipPath><clipPath id="clip-mask-2"><use xlink:href="#rect-2" /></clipPath><clipPath id="clip-mask-3"><use xlink:href="#rect-3" /></clipPath><clipPath id="clip-mask-4"><use xlink:href="#rect-4" /></clipPath><clipPath id="clip-mask-5"><use xlink:href="#rect-5" /></clipPath><clipPath id="clip-mask-6"><use xlink:href="#rect-6" /></clipPath><clipPath id="clip-mask-7"><use xlink:href="#rect-7" /></clipPath><clipPath id="clip-mask-8"><use xlink:href="#rect-8" /></clipPath><clipPath id="clip-mask-9"><use xlink:href="#rect-9" /></clipPath><clipPath id="clip-mask-10"><use xlink:href="#rect-10" /></clipPath><clipPath id="clip-mask-11"><use xlink:href="#rect-11" /></clipPath><clipPath id="clip-mask-12"><use xlink:href="#rect-12" /></clipPath><clipPath id="clip-mask-13"><use xlink:href="#rect-13" /></clipPath><clipPath id="clip-mask-14"><use xlink:href="#rect-14" /></clipPath><clipPath id="clip-mask-15"><use xlink:href="#rect-15" /></clipPath><clipPath id="clip-mask-16"><use xlink:href="#rect-16" /></clipPath><clipPath id="clip-mask-17"><use xlink:href="#rect-17" /></clipPath><clipPath id="clip-mask-18"><use xlink:href="#rect-18" /></clipPath><clipPath id="clip-mask-19"><use xlink:href="#rect-19" /></clipPath><clipPath id="clip-mask-20"><use xlink:href="#rect-20" /></clipPath></defs><path d="M 0 0 L 270 270 M 270 0 L 0 270 M 135 0 L 135 270 M 0 135 L 270 135" stroke="#CCCCCC" /><path d="M 26 87 L 28 86 Q 29 86 31 87 Q 34 93 35 100 Q 40 119 31 131 Q 28 135 24 132 Q 18 125 21 118 Q 25 104 26 89" fill="#CCCCCC"/><path d="M 70 90 Q 86 71 85 65 Q 85 60 89 60 Q 94 61 99 65 Q 103 70 105 74 Q 106 76 102 78 Q 91 83 70 97" fill="#CCCCCC"/><path d="M 54 211 L 28 226 Q 19 231 16 230 Q 13 231 12 230 Q 12 229 15 226 Q 16 225 17 224 Q 48 192 54 153 Q 54 150 55 148 Q 63 54 47 31 Q 45 27 48 25 Q 50 23 57 25 Q 67 27 74 32 Q 77 35 75 39 Q 70 50 70 90 L 70 97 Q 70 103 70 109 Q 70 139 66 160 L 64 168" fill="#CCCCCC"/><path d="M 66 160 Q 74 163 82 168 Q 89 173 90 178 Q 90 184 89 187 Q 88 189 86 189 Q 83 189 81 186 Q 71 176 64 168" fill="#CCCCCC"/><path d="M 142 71 L 142 72 Q 141 76 136 72 Q 132 68 131 63 Q 125 45 118 35 Q 115 31 117 29 Q 117 28 120 29 Q 129 29 132 30 L 135 38 Q 136 44 140 60 L 142 68" fill="#CCCCCC"/><path d="M 132 30 Q 149 28 167 24 Q 184 18 188 20 Q 200 27 204 30 L 181 32 Q 179 30 174 31 Q 137 37 135 38" fill="#CCCCCC"/><path d="M 204 30 Q 207 35 203 39 Q 196 43 189 57 L 176 54 Q 183 34 181 32" fill="#CCCCCC"/><path d="M 140 60 Q 156 58 176 54 Q 176 54 176 54 L 189 57 Q 193 59 193 61 Q 192 63 190 63 Q 159 65 145 68 Q 144 68 142 68" fill="#CCCCCC"/><path d="M 112 127 L 112 128 Q 111 131 108 127 Q 105 124 104 120 Q 99 106 94 98 Q 92 95 93 94 Q 94 93 96 93 Q 102 93 104 94 L 108 100 Q 108 100 108 100 Q 109 104 112 118 L 112 125" fill="#CCCCCC"/><path d="M 104 94 Q 123 90 131 86 Q 135 83 139 86 Q 144 89 149 92 L 133 97 Q 131 95 126 96 Q 118 97 108 100" fill="#CCCCCC"/><path d="M 131 113 Q 134 98 133 97 L 149 92 Q 153 95 149 100 Q 145 103 142 114" fill="#CCCCCC"/><path d="M 112 118 Q 120 116 130 113 Q 131 113 131 113 L 142 114 Q 145 116 145 117 Q 145 119 143 119 Q 119 123 112 125" fill="#CCCCCC"/><path d="M 173 120 L 172 121 Q 172 125 168 120 Q 165 118 164 113 Q 160 98 155 89 Q 153 86 155 85 Q 155 84 158 85 Q 164 86 167 87 L 169 93 Q 170 98 172 112 L 173 118" fill="#CCCCCC"/><path d="M 167 87 Q 174 85 192 79 Q 204 73 208 76 Q 214 80 219 83 L 201 89 Q 199 86 193 88 Q 180 91 169 93" fill="#CCCCCC"/><path d="M 219 83 Q 224 87 219 93 Q 215 95 211 104 L 197 105 Q 199 100 200 95 Q 202 90 201 89" fill="#CCCCCC"/><path d="M 211 104 Q 217 108 217 109 Q 217 111 214 112 Q 189 115 178 118 Q 175 118 173 118 L 172 112 Q 183 109 197 105" fill="#CCCCCC"/><path d="M 143 155 Q 125 157 111 162 Q 107 163 102 162 Q 97 161 94 157 Q 90 153 95 153 Q 124 148 149 145 L 163 142 Q 194 137 213 133 Q 223 131 235 140 Q 239 143 238 146 Q 236 148 221 148 Q 185 148 162 152" fill="#CCCCCC"/><path d="M 162 221 L 162 232 Q 163 240 160 248 Q 158 251 156 251 Q 153 250 151 245 Q 142 231 145 223 Q 148 216 149 179 Q 149 173 149 168 L 149 145 Q 149 134 146 130 Q 145 128 146 127 Q 149 125 152 126 Q 157 128 163 133 Q 163 134 163 142 L 162 152 Q 162 152 162 153 L 162 164" fill="#CCCCCC"/><path d="M 149 168 Q 114 208 84 216 Q 81 217 79 216 Q 76 215 80 213 Q 125 184 143 155 L 149 145" fill="#CCCCCC"/><path d="M 162 153 Q 163 153 163 154 Q 187 176 205 186 Q 210 189 254 207 Q 257 208 257 210 Q 257 212 252 212 Q 232 215 213 213 Q 203 213 198 206 Q 179 186 162 164" fill="#CCCCCC"/><path d="M 26 87 L 28 86 Q 29 86 31 87 Q 34 93 35 100 Q 40 119 31 131 Q 28 135 24 132 Q 18 125 21 118 Q 25 104 26 89" fill="#0000ff" clip-path="url(#clip-mask-1)" /><path d="M 70 90 Q 86 71 85 65 Q 85 60 89 60 Q 94 61 99 65 Q 103 70 105 74 Q 106 76 102 78 Q 91 83 70 97" fill="#0000ff" clip-path="url(#clip-mask-2)" /><path d="M 54 211 L 28 226 Q 19 231 16 230 Q 13 231 12 230 Q 12 229 15 226 Q 16 225 17 224 Q 48 192 54 153 Q 54 150 55 148 Q 63 54 47 31 Q 45 27 48 25 Q 50 23 57 25 Q 67 27 74 32 Q 77 35 75 39 Q 70 50 70 90 L 70 97 Q 70 103 70 109 Q 70 139 66 160 L 64 168" fill="#0000ff" clip-path="url(#clip-mask-3)" /><path d="M 66 160 Q 74 163 82 168 Q 89 173 90 178 Q 90 184 89 187 Q 88 189 86 189 Q 83 189 81 186 Q 71 176 64 168" fill="#0000ff" clip-path="url(#clip-mask-4)" /><path d="M 142 71 L 142 72 Q 141 76 136 72 Q 132 68 131 63 Q 125 45 118 35 Q 115 31 117 29 Q 117 28 120 29 Q 129 29 132 30 L 135 38 Q 136 44 140 60 L 142 68" fill="#000080" clip-path="url(#clip-mask-5)" /><path d="M 132 30 Q 149 28 167 24 Q 184 18 188 20 Q 200 27 204 30 L 181 32 Q 179 30 174 31 Q 137 37 135 38" fill="#000080" clip-path="url(#clip-mask-6)" /><path d="M 204 30 Q 207 35 203 39 Q 196 43 189 57 L 176 54 Q 183 34 181 32" fill="#000080" clip-path="url(#clip-mask-7)" /><path d="M 140 60 Q 156 58 176 54 Q 176 54 176 54 L 189 57 Q 193 59 193 61 Q 192 63 190 63 Q 159 65 145 68 Q 144 68 142 68" fill="#000080" clip-path="url(#clip-mask-8)" /><path d="M 112 127 L 112 128 Q 111 131 108 127 Q 105 124 104 120 Q 99 106 94 98 Q 92 95 93 94 Q 94 93 96 93 Q 102 93 104 94 L 108 100 Q 108 100 108 100 Q 109 104 112 118 L 112 125" fill="#000080" clip-path="url(#clip-mask-9)" /><path d="M 104 94 Q 123 90 131 86 Q 135 83 139 86 Q 144 89 149 92 L 133 97 Q 131 95 126 96 Q 118 97 108 100" fill="#000080" clip-path="url(#clip-mask-10)" /><path d="M 131 113 Q 134 98 133 97 L 149 92 Q 153 95 149 100 Q 145 103 142 114" fill="#000080" clip-path="url(#clip-mask-11)" /><path d="M 112 118 Q 120 116 130 113 Q 131 113 131 113 L 142 114 Q 145 116 145 117 Q 145 119 143 119 Q 119 123 112 125" fill="#000080" clip-path="url(#clip-mask-12)" /><path d="M 173 120 L 172 121 Q 172 125 168 120 Q 165 118 164 113 Q 160 98 155 89 Q 153 86 155 85 Q 155 84 158 85 Q 164 86 167 87 L 169 93 Q 170 98 172 112 L 173 118" fill="#000080" clip-path="url(#clip-mask-13)" /><path d="M 167 87 Q 174 85 192 79 Q 204 73 208 76 Q 214 80 219 83 L 201 89 Q 199 86 193 88 Q 180 91 169 93" fill="#000080" clip-path="url(#clip-mask-14)" /><path d="M 219 83 Q 224 87 219 93 Q 215 95 211 104 L 197 105 Q 199 100 200 95 Q 202 90 201 89" fill="#000080" clip-path="url(#clip-mask-15)" /><path d="M 211 104 Q 217 108 217 109 Q 217 111 214 112 Q 189 115 178 118 Q 175 118 173 118 L 172 112 Q 183 109 197 105" fill="#000080" clip-path="url(#clip-mask-16)" /><path d="M 143 155 Q 125 157 111 162 Q 107 163 102 162 Q 97 161 94 157 Q 90 153 95 153 Q 124 148 149 145 L 163 142 Q 194 137 213 133 Q 223 131 235 140 Q 239 143 238 146 Q 236 148 221 148 Q 185 148 162 152" fill="#000080" clip-path="url(#clip-mask-17)" /><path d="M 162 221 L 162 232 Q 163 240 160 248 Q 158 251 156 251 Q 153 250 151 245 Q 142 231 145 223 Q 148 216 149 179 Q 149 173 149 168 L 149 145 Q 149 134 146 130 Q 145 128 146 127 Q 149 125 152 126 Q 157 128 163 133 Q 163 134 163 142 L 162 152 Q 162 152 162 153 L 162 164" fill="#000080" clip-path="url(#clip-mask-18)" /><path d="M 149 168 Q 114 208 84 216 Q 81 217 79 216 Q 76 215 80 213 Q 125 184 143 155 L 149 145" fill="#000080" clip-path="url(#clip-mask-19)" /><path d="M 162 153 Q 163 153 163 154 Q 187 176 205 186 Q 210 189 254 207 Q 257 208 257 210 Q 257 212 252 212 Q 232 215 213 213 Q 203 213 198 206 Q 179 186 162 164" fill="#000080" clip-path="url(#clip-mask-20)" /><rect x="18" y="86" width="22" height="49" id="rect-1" fill="transparent" stroke="#000000"><animate attributeName="y" from="37" to="86" dur="0.181" begin="0; animate20.end + 1s" id="animate1" fill="freeze"/></rect><rect x="70" y="60" width="36" height="37" id="rect-2" fill="transparent" stroke="#000000"><set attributeName="y" to="23" begin="0; animate20.end + 1s" /><animate attributeName="y" from="23" to="60" dur="0.137" begin="animate1.end + 0.5" id="animate2" fill="freeze"/></rect><rect x="12" y="23" width="65" height="208" id="rect-3" fill="transparent" stroke="#000000"><set attributeName="y" to="-185" begin="0; animate20.end + 1s" /><animate attributeName="y" from="-185" to="23" dur="0.770" begin="animate2.end + 0.5" id="animate3" fill="freeze"/></rect><rect x="64" y="160" width="26" height="29" id="rect-4" fill="transparent" stroke="#000000"><set attributeName="x" to="38" begin="0; animate20.end + 1s" /><animate attributeName="x" from="38" to="64" dur="0.096" begin="animate3.end + 0.5" id="animate4" fill="freeze"/></rect><rect x="115" y="28" width="27" height="48" id="rect-5" fill="transparent" stroke="#000000"><set attributeName="y" to="-20" begin="0; animate20.end + 1s" /><animate attributeName="y" from="-20" to="28" dur="0.178" begin="animate4.end + 0.5" id="animate5" fill="freeze"/></rect><rect x="132" y="18" width="72" height="20" id="rect-6" fill="transparent" stroke="#000000"><set attributeName="x" to="60" begin="0; animate20.end + 1s" /><animate attributeName="x" from="60" to="132" dur="0.267" begin="animate5.end + 0.5" id="animate6" fill="freeze"/></rect><rect x="176" y="30" width="31" height="27" id="rect-7" fill="transparent" stroke="#000000"><set attributeName="y" to="3" begin="0; animate20.end + 1s" /><animate attributeName="y" from="3" to="30" dur="0.100" begin="animate6.end" id="animate7" fill="freeze"/></rect><rect x="140" y="54" width="53" height="14" id="rect-8" fill="transparent" stroke="#000000"><set attributeName="x" to="87" begin="0; animate20.end + 1s" /><animate attributeName="x" from="87" to="140" dur="0.196" begin="animate7.end + 0.5" id="animate8" fill="freeze"/></rect><rect x="92" y="93" width="20" height="38" id="rect-9" fill="transparent" stroke="#000000"><set attributeName="y" to="55" begin="0; animate20.end + 1s" /><animate attributeName="y" from="55" to="93" dur="0.141" begin="animate8.end + 0.5" id="animate9" fill="freeze"/></rect><rect x="104" y="83" width="45" height="17" id="rect-10" fill="transparent" stroke="#000000"><set attributeName="x" to="59" begin="0; animate20.end + 1s" /><animate attributeName="x" from="59" to="104" dur="0.167" begin="animate9.end + 0.5" id="animate10" fill="freeze"/></rect><rect x="131" y="92" width="22" height="22" id="rect-11" fill="transparent" stroke="#000000"><set attributeName="y" to="70" begin="0; animate20.end + 1s" /><animate attributeName="y" from="70" to="92" dur="0.081" begin="animate10.end" id="animate11" fill="freeze"/></rect><rect x="112" y="113" width="33" height="12" id="rect-12" fill="transparent" stroke="#000000"><set attributeName="x" to="79" begin="0; animate20.end + 1s" /><animate attributeName="x" from="79" to="112" dur="0.122" begin="animate11.end + 0.5" id="animate12" fill="freeze"/></rect><rect x="153" y="84" width="20" height="41" id="rect-13" fill="transparent" stroke="#000000"><set attributeName="y" to="43" begin="0; animate20.end + 1s" /><animate attributeName="y" from="43" to="84" dur="0.152" begin="animate12.end + 0.5" id="animate13" fill="freeze"/></rect><rect x="167" y="73" width="52" height="20" id="rect-14" fill="transparent" stroke="#000000"><set attributeName="x" to="115" begin="0; animate20.end + 1s" /><animate attributeName="x" from="115" to="167" dur="0.193" begin="animate13.end + 0.5" id="animate14" fill="freeze"/></rect><rect x="197" y="83" width="27" height="22" id="rect-15" fill="transparent" stroke="#000000"><set attributeName="y" to="61" begin="0; animate20.end + 1s" /><animate attributeName="y" from="61" to="83" dur="0.081" begin="animate14.end" id="animate15" fill="freeze"/></rect><rect x="172" y="104" width="45" height="14" id="rect-16" fill="transparent" stroke="#000000"><set attributeName="x" to="127" begin="0; animate20.end + 1s" /><animate attributeName="x" from="127" to="172" dur="0.167" begin="animate15.end + 0.5" id="animate16" fill="freeze"/></rect><rect x="90" y="131" width="149" height="32" id="rect-17" fill="transparent" stroke="#000000"><set attributeName="x" to="-59" begin="0; animate20.end + 1s" /><animate attributeName="x" from="-59" to="90" dur="0.552" begin="animate16.end + 0.5" id="animate17" fill="freeze"/></rect><rect x="142" y="125" width="21" height="126" id="rect-18" fill="transparent" stroke="#000000"><set attributeName="y" to="-1" begin="0; animate20.end + 1s" /><animate attributeName="y" from="-1" to="125" dur="0.467" begin="animate17.end + 0.5" id="animate18" fill="freeze"/></rect><rect x="76" y="145" width="73" height="72" id="rect-19" fill="transparent" stroke="#000000"><set attributeName="x" to="149" begin="0; animate20.end + 1s" /><animate attributeName="x" from="149" to="76" dur="0.270" begin="animate18.end + 0.5" id="animate19" fill="freeze"/></rect><rect x="162" y="153" width="95" height="62" id="rect-20" fill="transparent" stroke="#000000"><set attributeName="x" to="67" begin="0; animate20.end + 1s" /><animate attributeName="x" from="67" to="162" dur="0.352" begin="animate19.end + 0.5" id="animate20" fill="freeze"/></rect></svg>