<svg xmlns="http://www.w3.org/2000/svg" xmlns:xlink="http://www.w3.org/1999/xlink" width="270" height="270"><defs><clipPath id="clip-mask-1"><use xlink:href="#rect-1" /></clipPath><clipPath id="clip-mask-2"><use xlink:href="#rect-2" /></clipPath><clipPath id="clip-mask-3"><use xlink:href="#rect-3" /></clipPath><clipPath id="clip-mask-4"><use xlink:href="#rect-4" /></clipPath><clipPath id="clip-mask-5"><use xlink:href="#rect-5" /></clipPath><clipPath id="clip-mask-6"><use xlink:href="#rect-6" /></clipPath><clipPath id="clip-mask-7"><use xlink:href="#rect-7" /></clipPath><clipPath id="clip-mask-8"><use xlink:href="#rect-8" /></clipPath><clipPath id="clip-mask-9"><use xlink:href="#rect-9" /></clipPath><clipPath id="clip-mask-10"><use xlink:href="#rect-10" /></clipPath><clipPath id="clip-mask-11"><use xlink:href="#rect-11" /></clipPath></defs><path d="M 0 0 L 270 270 M 270 0 L 0 270 M 135 0 L 135 270 M 0 135 L 270 135" stroke="#CCCCCC" /><path d="M 80 22 L 83 22 Q 90 22 100 34 Q 103 38 99 41 Q 92 47 85 55 Q 72 68 53 76 Q 47 79 43 78 Q 39 79 42 75 Q 50 68 53 67 Q 79 46 80 25" fill="#CCCCCC"/><path d="M 152 29 L 151 26 Q 151 23 152 22 Q 156 20 183 29 Q 195 34 197 42 Q 200 49 199 54 Q 197 57 195 57 Q 191 58 187 55 Q 173 43 159 34" fill="#CCCCCC"/><path d="M 63 134 Q 30 150 13 148 Q 10 147 13 146 Q 33 136 47 129 Q 91 105 116 79 L 123 71 Q 135 56 136 46 Q 136 43 139 43 Q 142 43 147 46 Q 157 54 157 61 Q 157 64 154 65 Q 152 66 137 80 L 128 88 Q 99 113 71 130" fill="#CCCCCC"/><path d="M 116 79 Q 102 68 89 68 Q 84 68 84 65 Q 84 63 88 62 Q 96 60 105 61 Q 115 63 123 71 L 137 80 Q 190 117 210 120 Q 247 126 254 129 Q 259 130 254 133 Q 250 135 240 137 Q 216 142 208 143 Q 196 143 163 116 Q 151 105 128 88" fill="#CCCCCC"/><path d="M 113 132 L 139 124 Q 153 116 173 132 L 147 136 Q 145 134 139 135 Q 128 137 117 139 L 107 141 Q 100 142 93 143 Q 88 144 85 144 L 82 136" fill="#CCCCCC"/><path d="M 143 166 Q 144 166 144 166 Q 147 156 149 143 Q 150 138 147 136 L 173 132 Q 177 137 172 142 Q 164 148 157 168" fill="#CCCCCC"/><path d="M 117 139 Q 120 141 122 143 Q 122 144 118 172 L 108 174 Q 108 143 107 141" fill="#CCCCCC"/><path d="M 118 172 Q 130 169 143 166 L 157 168 Q 163 172 163 174 Q 162 176 160 177 Q 114 180 92 185 Q 83 187 79 183 L 79 178 Q 80 177 108 174" fill="#CCCCCC"/><path d="M 79 183 Q 80 206 83 214 L 73 221 Q 67 211 67 158 Q 68 143 63 134 L 71 130 Q 75 132 82 136 L 85 144 Q 85 146 84 148 Q 80 158 79 178" fill="#CCCCCC"/><path d="M 83 214 Q 86 221 96 226 Q 108 231 135 232 Q 158 232 175 229 L 211 222 Q 214 230 206 235 Q 196 242 168 246 Q 135 250 115 246 Q 83 240 73 221" fill="#CCCCCC"/><path d="M 175 229 Q 187 226 190 219 Q 193 214 195 187 Q 196 182 198 183 Q 200 184 201 188 Q 205 209 211 222" fill="#CCCCCC"/><path d="M 80 22 L 83 22 Q 90 22 100 34 Q 103 38 99 41 Q 92 47 85 55 Q 72 68 53 76 Q 47 79 43 78 Q 39 79 42 75 Q 50 68 53 67 Q 79 46 80 25" fill="#0000ff" clip-path="url(#clip-mask-1)" /><path d="M 152 29 L 151 26 Q 151 23 152 22 Q 156 20 183 29 Q 195 34 197 42 Q 200 49 199 54 Q 197 57 195 57 Q 191 58 187 55 Q 173 43 159 34" fill="#0000ff" clip-path="url(#clip-mask-2)" /><path d="M 63 134 Q 30 150 13 148 Q 10 147 13 146 Q 33 136 47 129 Q 91 105 116 79 L 123 71 Q 135 56 136 46 Q 136 43 139 43 Q 142 43 147 46 Q 157 54 157 61 Q 157 64 154 65 Q 152 66 137 80 L 128 88 Q 99 113 71 130" fill="#0000ff" clip-path="url(#clip-mask-3)" /><path d="M 116 79 Q 102 68 89 68 Q 84 68 84 65 Q 84 63 88 62 Q 96 60 105 61 Q 115 63 123 71 L 137 80 Q 190 117 210 120 Q 247 126 254 129 Q 259 130 254 133 Q 250 135 240 137 Q 216 142 208 143 Q 196 143 163 116 Q 151 105 128 88" fill="#0000ff" clip-path="url(#clip-mask-4)" /><path d="M 113 132 L 139 124 Q 153 116 173 132 L 147 136 Q 145 134 139 135 Q 128 137 117 139 L 107 141 Q 100 142 93 143 Q 88 144 85 144 L 82 136" fill="#000080" clip-path="url(#clip-mask-5)" /><path d="M 143 166 Q 144 166 144 166 Q 147 156 149 143 Q 150 138 147 136 L 173 132 Q 177 137 172 142 Q 164 148 157 168" fill="#000080" clip-path="url(#clip-mask-6)" /><path d="M 117 139 Q 120 141 122 143 Q 122 144 118 172 L 108 174 Q 108 143 107 141" fill="#000080" clip-path="url(#clip-mask-7)" /><path d="M 118 172 Q 130 169 143 166 L 157 168 Q 163 172 163 174 Q 162 176 160 177 Q 114 180 92 185 Q 83 187 79 183 L 79 178 Q 80 177 108 174" fill="#000080" clip-path="url(#clip-mask-8)" /><path d="M 79 183 Q 80 206 83 214 L 73 221 Q 67 211 67 158 Q 68 143 63 134 L 71 130 Q 75 132 82 136 L 85 144 Q 85 146 84 148 Q 80 158 79 178" fill="#000080" clip-path="url(#clip-mask-9)" /><path d="M 83 214 Q 86 221 96 226 Q 108 231 135 232 Q 158 232 175 229 L 211 222 Q 214 230 206 235 Q 196 242 168 246 Q 135 250 115 246 Q 83 240 73 221" fill="#000080" clip-path="url(#clip-mask-10)" /><path d="M 175 229 Q 187 226 190 219 Q 193 214 195 187 Q 196 182 198 183 Q 200 184 201 188 Q 205 209 211 222" fill="#000080" clip-path="url(#clip-mask-11)" /><rect x="39" y="22" width="64" height="57" id="rect-1" fill="transparent" stroke="#000000"><animate attributeName="y" from="-35" to="22" dur="0.211" begin="0; animate11.end + 1s" id="animate1" fill="freeze"/></rect><rect x="151" y="20" width="49" height="38" id="rect-2" fill="transparent" stroke="#000000"><set attributeName="x" to="102" begin="0; animate11.end + 1s" /><animate attributeName="x" from="102" to="151" dur="0.181" begin="animate1.end + 0.5" id="animate2" fill="freeze"/></rect><rect x="10" y="43" width="147" height="107" id="rect-3" fill="transparent" stroke="#000000"><set attributeName="x" to="157" begin="0; animate11.end + 1s" /><animate attributeName="x" from="157" to="10" dur="0.544" begin="animate2.end + 0.5" id="animate3" fill="freeze"/></rect><rect x="84" y="60" width="175" height="83" id="rect-4" fill="transparent" stroke="#000000"><set attributeName="x" to="-91" begin="0; animate11.end + 1s" /><animate attributeName="x" from="-91" to="84" dur="0.648" begin="animate3.end + 0.5" id="animate4" fill="freeze"/></rect><rect x="82" y="116" width="91" height="28" id="rect-5" fill="transparent" stroke="#000000"><set attributeName="x" to="-9" begin="0; animate11.end + 1s" /><animate attributeName="x" from="-9" to="82" dur="0.337" begin="animate4.end + 0.5" id="animate5" fill="freeze"/></rect><rect x="143" y="132" width="34" height="36" id="rect-6" fill="transparent" stroke="#000000"><set attributeName="y" to="96" begin="0; animate11.end + 1s" /><animate attributeName="y" from="96" to="132" dur="0.133" begin="animate5.end" id="animate6" fill="freeze"/></rect><rect x="107" y="139" width="15" height="35" id="rect-7" fill="transparent" stroke="#000000"><set attributeName="y" to="104" begin="0; animate11.end + 1s" /><animate attributeName="y" from="104" to="139" dur="0.130" begin="animate6.end + 0.5" id="animate7" fill="freeze"/></rect><rect x="79" y="166" width="84" height="21" id="rect-8" fill="transparent" stroke="#000000"><set attributeName="x" to="-5" begin="0; animate11.end + 1s" /><animate attributeName="x" from="-5" to="79" dur="0.311" begin="animate7.end + 0.5" id="animate8" fill="freeze"/></rect><rect x="63" y="130" width="22" height="91" id="rect-9" fill="transparent" stroke="#000000"><set attributeName="y" to="39" begin="0; animate11.end + 1s" /><animate attributeName="y" from="39" to="130" dur="0.337" begin="animate8.end + 0.5" id="animate9" fill="freeze"/></rect><rect x="73" y="214" width="141" height="36" id="rect-10" fill="transparent" stroke="#000000"><set attributeName="x" to="-68" begin="0; animate11.end + 1s" /><animate attributeName="x" from="-68" to="73" dur="0.522" begin="animate9.end" id="animate10" fill="freeze"/></rect><rect x="175" y="182" width="36" height="47" id="rect-11" fill="transparent" stroke="#000000"><set attributeName="y" to="229" begin="0; animate11.end + 1s" /><animate attributeName="y" from="229" to="182" dur="0.174" begin="animate10.end" id="animate11" fill="freeze"/></rect></svg>