<svg xmlns="http://www.w3.org/2000/svg" xmlns:xlink="http://www.w3.org/1999/xlink" width="270" height="270"><defs><clipPath id="clip-mask-1"><use xlink:href="#rect-1" /></clipPath><clipPath id="clip-mask-2"><use xlink:href="#rect-2" /></clipPath><clipPath id="clip-mask-3"><use xlink:href="#rect-3" /></clipPath><clipPath id="clip-mask-4"><use xlink:href="#rect-4" /></clipPath><clipPath id="clip-mask-5"><use xlink:href="#rect-5" /></clipPath><clipPath id="clip-mask-6"><use xlink:href="#rect-6" /></clipPath><clipPath id="clip-mask-7"><use xlink:href="#rect-7" /></clipPath><clipPath id="clip-mask-8"><use xlink:href="#rect-8" /></clipPath></defs><path d="M 0 0 L 270 270 M 270 0 L 0 270 M 135 0 L 135 270 M 0 135 L 270 135" stroke="#CCCCCC" /><path d="M 113 20 L 112 17 Q 112 13 113 12 Q 115 11 120 12 Q 144 17 147 25 Q 150 33 149 38 Q 147 42 144 42 Q 139 42 135 39 Q 128 32 122 26" fill="#CCCCCC"/><path d="M 67 81 L 64 92 Q 61 102 56 108 Q 52 115 47 109 Q 40 94 45 88 Q 60 71 59 59 Q 59 52 64 55 Q 71 61 71 66 L 70 75" fill="#CCCCCC"/><path d="M 71 66 Q 84 65 97 62 Q 173 52 187 51 Q 206 47 212 53 L 193 60 Q 190 60 184 60 Q 125 64 89 74 Q 75 77 70 75" fill="#CCCCCC"/><path d="M 212 53 Q 231 68 232 71 Q 232 74 221 76 Q 207 79 191 89 Q 186 92 184 91 Q 182 90 185 86 Q 196 66 196 64 Q 197 62 193 60" fill="#CCCCCC"/><path d="M 99 125 Q 90 136 77 145 Q 72 148 69 149 Q 65 150 67 146 Q 69 142 74 137 Q 94 115 92 96 Q 91 92 95 92 Q 102 91 112 100 Q 115 103 113 107 Q 108 113 103 119" fill="#CCCCCC"/><path d="M 131 128 Q 128 129 126 129 Q 110 132 99 125 L 103 119 Q 117 118 131 116 L 146 112 Q 167 105 176 107 Q 184 109 186 113 Q 187 115 184 118 Q 183 119 172 121 Q 158 123 146 126" fill="#CCCCCC"/><path d="M 96 172 L 58 182 Q 53 184 46 182 Q 41 180 36 176 Q 32 171 38 170 Q 88 164 130 159 L 145 156 Q 181 151 205 146 Q 216 143 232 155 Q 237 160 236 163 Q 233 167 213 166 Q 173 166 145 168 L 130 169" fill="#CCCCCC"/><path d="M 130 159 Q 130 142 131 128 L 131 116 Q 131 114 131 112 Q 130 90 124 79 Q 122 76 125 74 Q 129 71 133 73 Q 137 73 146 80 Q 150 82 149 87 Q 146 101 146 112 L 146 126 Q 145 143 145 156 L 145 168 Q 145 188 145 196 Q 146 217 143 238 Q 142 255 137 257 Q 135 258 133 256 Q 127 248 130 169" fill="#CCCCCC"/><path d="M 113 20 L 112 17 Q 112 13 113 12 Q 115 11 120 12 Q 144 17 147 25 Q 150 33 149 38 Q 147 42 144 42 Q 139 42 135 39 Q 128 32 122 26" fill="#000080" clip-path="url(#clip-mask-1)" /><path d="M 67 81 L 64 92 Q 61 102 56 108 Q 52 115 47 109 Q 40 94 45 88 Q 60 71 59 59 Q 59 52 64 55 Q 71 61 71 66 L 70 75" fill="#000080" clip-path="url(#clip-mask-2)" /><path d="M 71 66 Q 84 65 97 62 Q 173 52 187 51 Q 206 47 212 53 L 193 60 Q 190 60 184 60 Q 125 64 89 74 Q 75 77 70 75" fill="#000080" clip-path="url(#clip-mask-3)" /><path d="M 212 53 Q 231 68 232 71 Q 232 74 221 76 Q 207 79 191 89 Q 186 92 184 91 Q 182 90 185 86 Q 196 66 196 64 Q 197 62 193 60" fill="#000080" clip-path="url(#clip-mask-4)" /><path d="M 99 125 Q 90 136 77 145 Q 72 148 69 149 Q 65 150 67 146 Q 69 142 74 137 Q 94 115 92 96 Q 91 92 95 92 Q 102 91 112 100 Q 115 103 113 107 Q 108 113 103 119" fill="#0000ff" clip-path="url(#clip-mask-5)" /><path d="M 131 128 Q 128 129 126 129 Q 110 132 99 125 L 103 119 Q 117 118 131 116 L 146 112 Q 167 105 176 107 Q 184 109 186 113 Q 187 115 184 118 Q 183 119 172 121 Q 158 123 146 126" fill="#0000ff" clip-path="url(#clip-mask-6)" /><path d="M 96 172 L 58 182 Q 53 184 46 182 Q 41 180 36 176 Q 32 171 38 170 Q 88 164 130 159 L 145 156 Q 181 151 205 146 Q 216 143 232 155 Q 237 160 236 163 Q 233 167 213 166 Q 173 166 145 168 L 130 169" fill="#0000ff" clip-path="url(#clip-mask-7)" /><path d="M 130 159 Q 130 142 131 128 L 131 116 Q 131 114 131 112 Q 130 90 124 79 Q 122 76 125 74 Q 129 71 133 73 Q 137 73 146 80 Q 150 82 149 87 Q 146 101 146 112 L 146 126 Q 145 143 145 156 L 145 168 Q 145 188 145 196 Q 146 217 143 238 Q 142 255 137 257 Q 135 258 133 256 Q 127 248 130 169" fill="#0000ff" clip-path="url(#clip-mask-8)" /><rect x="112" y="11" width="38" height="31" id="rect-1" fill="transparent" stroke="#000000"><animate attributeName="x" from="74" to="112" dur="0.141" begin="0; animate8.end + 1s" id="animate1" fill="freeze"/></rect><rect x="40" y="52" width="31" height="63" id="rect-2" fill="transparent" stroke="#000000"><set attributeName="y" to="-11" begin="0; animate8.end + 1s" /><animate attributeName="y" from="-11" to="52" dur="0.233" begin="animate1.end + 0.5" id="animate2" fill="freeze"/></rect><rect x="70" y="47" width="142" height="30" id="rect-3" fill="transparent" stroke="#000000"><set attributeName="x" to="-72" begin="0; animate8.end + 1s" /><animate attributeName="x" from="-72" to="70" dur="0.526" begin="animate2.end + 0.5" id="animate3" fill="freeze"/></rect><rect x="182" y="53" width="50" height="39" id="rect-4" fill="transparent" stroke="#000000"><set attributeName="y" to="14" begin="0; animate8.end + 1s" /><animate attributeName="y" from="14" to="53" dur="0.144" begin="animate3.end" id="animate4" fill="freeze"/></rect><rect x="65" y="91" width="50" height="59" id="rect-5" fill="transparent" stroke="#000000"><set attributeName="y" to="32" begin="0; animate8.end + 1s" /><animate attributeName="y" from="32" to="91" dur="0.219" begin="animate4.end + 0.5" id="animate5" fill="freeze"/></rect><rect x="99" y="105" width="88" height="27" id="rect-6" fill="transparent" stroke="#000000"><set attributeName="x" to="11" begin="0; animate8.end + 1s" /><animate attributeName="x" from="11" to="99" dur="0.326" begin="animate5.end + 0.5" id="animate6" fill="freeze"/></rect><rect x="32" y="143" width="205" height="41" id="rect-7" fill="transparent" stroke="#000000"><set attributeName="x" to="-173" begin="0; animate8.end + 1s" /><animate attributeName="x" from="-173" to="32" dur="0.759" begin="animate6.end + 0.5" id="animate7" fill="freeze"/></rect><rect x="122" y="71" width="28" height="187" id="rect-8" fill="transparent" stroke="#000000"><set attributeName="y" to="-116" begin="0; animate8.end + 1s" /><animate attributeName="y" from="-116" to="71" dur="0.693" begin="animate7.end + 0.5" id="animate8" fill="freeze"/></rect></svg>