<svg xmlns="http://www.w3.org/2000/svg" xmlns:xlink="http://www.w3.org/1999/xlink" width="270" height="270"><defs><clipPath id="clip-mask-1"><use xlink:href="#rect-1" /></clipPath><clipPath id="clip-mask-2"><use xlink:href="#rect-2" /></clipPath><clipPath id="clip-mask-3"><use xlink:href="#rect-3" /></clipPath><clipPath id="clip-mask-4"><use xlink:href="#rect-4" /></clipPath><clipPath id="clip-mask-5"><use xlink:href="#rect-5" /></clipPath><clipPath id="clip-mask-6"><use xlink:href="#rect-6" /></clipPath><clipPath id="clip-mask-7"><use xlink:href="#rect-7" /></clipPath><clipPath id="clip-mask-8"><use xlink:href="#rect-8" /></clipPath><clipPath id="clip-mask-9"><use xlink:href="#rect-9" /></clipPath><clipPath id="clip-mask-10"><use xlink:href="#rect-10" /></clipPath><clipPath id="clip-mask-11"><use xlink:href="#rect-11" /></clipPath><clipPath id="clip-mask-12"><use xlink:href="#rect-12" /></clipPath><clipPath id="clip-mask-13"><use xlink:href="#rect-13" /></clipPath><clipPath id="clip-mask-14"><use xlink:href="#rect-14" /></clipPath><clipPath id="clip-mask-15"><use xlink:href="#rect-15" /></clipPath><clipPath id="clip-mask-16"><use xlink:href="#rect-16" /></clipPath><clipPath id="clip-mask-17"><use xlink:href="#rect-17" /></clipPath><clipPath id="clip-mask-18"><use xlink:href="#rect-18" /></clipPath><clipPath id="clip-mask-19"><use xlink:href="#rect-19" /></clipPath><clipPath id="clip-mask-20"><use xlink:href="#rect-20" /></clipPath><clipPath id="clip-mask-21"><use xlink:href="#rect-21" /></clipPath><clipPath id="clip-mask-22"><use xlink:href="#rect-22" /></clipPath><clipPath id="clip-mask-23"><use xlink:href="#rect-23" /></clipPath><clipPath id="clip-mask-24"><use xlink:href="#rect-24" /></clipPath></defs><path d="M 0 0 L 270 270 M 270 0 L 0 270 M 135 0 L 135 270 M 0 135 L 270 135" stroke="#CCCCCC" /><path d="M 53 110 Q 39 138 25 142 Q 22 144 23 140 Q 29 129 31 129 Q 49 100 42 81 Q 41 78 44 77 Q 50 75 61 81 Q 65 84 63 88 Q 59 96 55 105" fill="#CCCCCC"/><path d="M 79 111 Q 78 111 77 111 Q 70 113 63 113 Q 55 112 53 110 L 55 105 Q 55 105 56 105 Q 66 103 75 101 Q 77 99 79 99 L 91 94 Q 97 91 104 92 Q 111 93 113 96 Q 114 98 112 100 Q 111 101 105 103 Q 97 105 91 107" fill="#CCCCCC"/><path d="M 79 127 L 79 111 L 79 99 Q 79 79 79 61 Q 79 48 71 36 Q 70 31 71 30 Q 76 26 82 31 Q 90 35 94 38 Q 101 43 97 50 Q 91 68 91 94 L 91 107 Q 91 124 90 138 L 90 145 Q 89 216 89 226 Q 89 243 82 247 Q 80 250 78 248 Q 76 247 75 242 Q 68 226 71 216 Q 76 195 78 155 L 78 145" fill="#CCCCCC"/><path d="M 90 138 Q 95 135 97 135 Q 100 135 99 138 Q 96 141 92 144 Q 91 144 90 145 L 78 155 Q 52 174 40 188 Q 35 192 32 191 Q 26 190 22 186 Q 18 182 18 180 Q 18 178 22 177 Q 28 175 36 170 Q 56 158 78 145" fill="#CCCCCC"/><path d="M 130 32 L 129 30 Q 129 27 130 26 Q 133 25 146 29 Q 152 31 153 35 Q 155 41 154 44 Q 153 47 150 47 Q 147 47 144 45 Q 140 40 136 36" fill="#CCCCCC"/><path d="M 187 20 L 187 16 Q 186 14 189 13 Q 192 13 197 16 Q 202 19 205 22 Q 207 26 202 28 Q 197 30 193 33 Q 180 42 172 46 Q 169 47 171 43 Q 183 27 185 24" fill="#CCCCCC"/><path d="M 156 65 Q 154 65 152 65 Q 138 68 129 64 Q 123 61 131 59 Q 147 57 162 54 Q 174 50 186 46 Q 192 43 198 44 Q 204 45 206 48 Q 207 50 205 51 Q 205 52 166 62" fill="#CCCCCC"/><path d="M 157 86 Q 150 88 143 90 Q 137 91 133 89 Q 128 86 132 85 Q 144 81 157 78 L 170 74 Q 183 70 188 70 Q 195 71 197 74 Q 200 77 194 78 Q 182 81 169 84" fill="#CCCCCC"/><path d="M 157 92 L 157 86 L 157 78 Q 156 66 156 65 L 166 62 Q 168 63 170 65 Q 171 67 170 74 L 169 84 Q 168 90 168 98 L 158 101" fill="#CCCCCC"/><path d="M 168 98 Q 178 95 186 93 Q 199 88 211 95 Q 215 97 214 100 Q 213 102 209 102 Q 208 102 207 102 Q 166 102 130 116 Q 127 117 123 116 Q 119 116 116 113 Q 113 110 117 109 Q 139 104 158 101" fill="#CCCCCC"/><path d="M 127 135 Q 125 136 123 136 Q 112 140 108 140 Q 107 139 108 138 Q 135 125 137 119 Q 137 118 138 117 Q 144 117 152 123 Q 154 125 153 126 Q 153 128 150 128 Q 138 130 133 133" fill="#CCCCCC"/><path d="M 172 145 Q 153 148 138 152 L 124 156 Q 117 158 110 160 Q 107 162 103 161 Q 99 160 96 158 Q 92 155 96 154 Q 114 150 130 146 L 140 144 Q 144 143 171 137 L 182 133 Q 187 131 191 131 Q 206 125 219 132 Q 222 135 221 138 Q 220 139 217 140 Q 191 142 183 144" fill="#CCCCCC"/><path d="M 138 152 Q 138 158 138 166 Q 137 176 136 178 Q 133 179 132 177 Q 131 175 130 174 Q 130 171 130 162 L 130 146 Q 130 138 127 135 L 133 133 Q 137 135 141 137 Q 143 140 142 141 Q 140 142 140 144" fill="#CCCCCC"/><path d="M 130 162 Q 128 165 124 170 Q 104 190 92 188 Q 90 188 92 186 Q 112 173 124 156 L 130 146" fill="#CCCCCC"/><path d="M 140 161 L 139 159 Q 138 158 139 157 Q 141 156 156 158 Q 163 160 165 164 Q 167 168 166 170 Q 166 172 165 172 Q 163 173 160 172 Q 152 167 144 163" fill="#CCCCCC"/><path d="M 113 194 L 108 192 Q 103 190 110 188 Q 119 186 127 184 Q 145 177 149 178 Q 155 179 156 180 Q 157 182 156 184 Q 155 184 127 192 L 118 194" fill="#CCCCCC"/><path d="M 127 192 Q 128 194 129 195 Q 129 197 125 206 Q 125 207 125 207 L 119 218 Q 115 221 113 219 Q 107 214 111 210 Q 118 204 118 194" fill="#CCCCCC"/><path d="M 125 207 Q 125 207 133 205 Q 147 199 152 202 Q 158 205 159 209 L 145 210 Q 144 209 140 209 Q 126 209 119 218" fill="#CCCCCC"/><path d="M 159 209 Q 161 210 159 213 Q 158 214 150 235 Q 144 247 136 252 L 136 236 Q 139 233 144 226 Q 148 215 145 210" fill="#CCCCCC"/><path d="M 136 252 Q 132 254 130 251 Q 126 245 121 239 Q 118 236 118 234 Q 117 232 120 233 Q 135 237 136 236" fill="#CCCCCC"/><path d="M 178 176 L 172 145 L 171 137 Q 166 120 163 116 Q 161 110 165 110 Q 169 109 176 113 Q 185 117 184 123 Q 183 127 182 133 L 183 144 Q 185 167 195 188 L 201 201 Q 208 214 225 227 Q 231 232 233 231 L 250 243 Q 251 251 247 253 Q 242 256 226 247 Q 206 232 194 209 L 188 198" fill="#CCCCCC"/><path d="M 233 231 Q 238 227 244 205 Q 246 200 246 201 Q 248 202 247 206 Q 248 235 250 243" fill="#CCCCCC"/><path d="M 195 188 Q 204 171 202 158 Q 202 155 205 154 Q 207 154 212 157 Q 219 160 220 163 Q 221 165 220 167 Q 217 172 215 176 Q 208 192 201 201 L 194 209 Q 193 210 193 210 Q 170 230 160 229 Q 159 228 161 226 Q 176 213 188 198" fill="#CCCCCC"/><path d="M 212 115 L 212 112 Q 212 109 213 108 Q 216 107 232 113 Q 239 117 240 122 Q 242 128 241 131 Q 240 135 237 135 Q 233 134 218 119" fill="#CCCCCC"/><path d="M 53 110 Q 39 138 25 142 Q 22 144 23 140 Q 29 129 31 129 Q 49 100 42 81 Q 41 78 44 77 Q 50 75 61 81 Q 65 84 63 88 Q 59 96 55 105" fill="#0000ff" clip-path="url(#clip-mask-1)" /><path d="M 79 111 Q 78 111 77 111 Q 70 113 63 113 Q 55 112 53 110 L 55 105 Q 55 105 56 105 Q 66 103 75 101 Q 77 99 79 99 L 91 94 Q 97 91 104 92 Q 111 93 113 96 Q 114 98 112 100 Q 111 101 105 103 Q 97 105 91 107" fill="#0000ff" clip-path="url(#clip-mask-2)" /><path d="M 79 127 L 79 111 L 79 99 Q 79 79 79 61 Q 79 48 71 36 Q 70 31 71 30 Q 76 26 82 31 Q 90 35 94 38 Q 101 43 97 50 Q 91 68 91 94 L 91 107 Q 91 124 90 138 L 90 145 Q 89 216 89 226 Q 89 243 82 247 Q 80 250 78 248 Q 76 247 75 242 Q 68 226 71 216 Q 76 195 78 155 L 78 145" fill="#0000ff" clip-path="url(#clip-mask-3)" /><path d="M 90 138 Q 95 135 97 135 Q 100 135 99 138 Q 96 141 92 144 Q 91 144 90 145 L 78 155 Q 52 174 40 188 Q 35 192 32 191 Q 26 190 22 186 Q 18 182 18 180 Q 18 178 22 177 Q 28 175 36 170 Q 56 158 78 145" fill="#0000ff" clip-path="url(#clip-mask-4)" /><path d="M 130 32 L 129 30 Q 129 27 130 26 Q 133 25 146 29 Q 152 31 153 35 Q 155 41 154 44 Q 153 47 150 47 Q 147 47 144 45 Q 140 40 136 36" fill="#000080" clip-path="url(#clip-mask-5)" /><path d="M 187 20 L 187 16 Q 186 14 189 13 Q 192 13 197 16 Q 202 19 205 22 Q 207 26 202 28 Q 197 30 193 33 Q 180 42 172 46 Q 169 47 171 43 Q 183 27 185 24" fill="#000080" clip-path="url(#clip-mask-6)" /><path d="M 156 65 Q 154 65 152 65 Q 138 68 129 64 Q 123 61 131 59 Q 147 57 162 54 Q 174 50 186 46 Q 192 43 198 44 Q 204 45 206 48 Q 207 50 205 51 Q 205 52 166 62" fill="#000080" clip-path="url(#clip-mask-7)" /><path d="M 157 86 Q 150 88 143 90 Q 137 91 133 89 Q 128 86 132 85 Q 144 81 157 78 L 170 74 Q 183 70 188 70 Q 195 71 197 74 Q 200 77 194 78 Q 182 81 169 84" fill="#000080" clip-path="url(#clip-mask-8)" /><path d="M 157 92 L 157 86 L 157 78 Q 156 66 156 65 L 166 62 Q 168 63 170 65 Q 171 67 170 74 L 169 84 Q 168 90 168 98 L 158 101" fill="#000080" clip-path="url(#clip-mask-9)" /><path d="M 168 98 Q 178 95 186 93 Q 199 88 211 95 Q 215 97 214 100 Q 213 102 209 102 Q 208 102 207 102 Q 166 102 130 116 Q 127 117 123 116 Q 119 116 116 113 Q 113 110 117 109 Q 139 104 158 101" fill="#000080" clip-path="url(#clip-mask-10)" /><path d="M 127 135 Q 125 136 123 136 Q 112 140 108 140 Q 107 139 108 138 Q 135 125 137 119 Q 137 118 138 117 Q 144 117 152 123 Q 154 125 153 126 Q 153 128 150 128 Q 138 130 133 133" fill="#000080" clip-path="url(#clip-mask-11)" /><path d="M 172 145 Q 153 148 138 152 L 124 156 Q 117 158 110 160 Q 107 162 103 161 Q 99 160 96 158 Q 92 155 96 154 Q 114 150 130 146 L 140 144 Q 144 143 171 137 L 182 133 Q 187 131 191 131 Q 206 125 219 132 Q 222 135 221 138 Q 220 139 217 140 Q 191 142 183 144" fill="#000080" clip-path="url(#clip-mask-12)" /><path d="M 138 152 Q 138 158 138 166 Q 137 176 136 178 Q 133 179 132 177 Q 131 175 130 174 Q 130 171 130 162 L 130 146 Q 130 138 127 135 L 133 133 Q 137 135 141 137 Q 143 140 142 141 Q 140 142 140 144" fill="#000080" clip-path="url(#clip-mask-13)" /><path d="M 130 162 Q 128 165 124 170 Q 104 190 92 188 Q 90 188 92 186 Q 112 173 124 156 L 130 146" fill="#000080" clip-path="url(#clip-mask-14)" /><path d="M 140 161 L 139 159 Q 138 158 139 157 Q 141 156 156 158 Q 163 160 165 164 Q 167 168 166 170 Q 166 172 165 172 Q 163 173 160 172 Q 152 167 144 163" fill="#000080" clip-path="url(#clip-mask-15)" /><path d="M 113 194 L 108 192 Q 103 190 110 188 Q 119 186 127 184 Q 145 177 149 178 Q 155 179 156 180 Q 157 182 156 184 Q 155 184 127 192 L 118 194" fill="#000080" clip-path="url(#clip-mask-16)" /><path d="M 127 192 Q 128 194 129 195 Q 129 197 125 206 Q 125 207 125 207 L 119 218 Q 115 221 113 219 Q 107 214 111 210 Q 118 204 118 194" fill="#000080" clip-path="url(#clip-mask-17)" /><path d="M 125 207 Q 125 207 133 205 Q 147 199 152 202 Q 158 205 159 209 L 145 210 Q 144 209 140 209 Q 126 209 119 218" fill="#000080" clip-path="url(#clip-mask-18)" /><path d="M 159 209 Q 161 210 159 213 Q 158 214 150 235 Q 144 247 136 252 L 136 236 Q 139 233 144 226 Q 148 215 145 210" fill="#000080" clip-path="url(#clip-mask-19)" /><path d="M 136 252 Q 132 254 130 251 Q 126 245 121 239 Q 118 236 118 234 Q 117 232 120 233 Q 135 237 136 236" fill="#000080" clip-path="url(#clip-mask-20)" /><path d="M 178 176 L 172 145 L 171 137 Q 166 120 163 116 Q 161 110 165 110 Q 169 109 176 113 Q 185 117 184 123 Q 183 127 182 133 L 183 144 Q 185 167 195 188 L 201 201 Q 208 214 225 227 Q 231 232 233 231 L 250 243 Q 251 251 247 253 Q 242 256 226 247 Q 206 232 194 209 L 188 198" fill="#000080" clip-path="url(#clip-mask-21)" /><path d="M 233 231 Q 238 227 244 205 Q 246 200 246 201 Q 248 202 247 206 Q 248 235 250 243" fill="#000080" clip-path="url(#clip-mask-22)" /><path d="M 195 188 Q 204 171 202 158 Q 202 155 205 154 Q 207 154 212 157 Q 219 160 220 163 Q 221 165 220 167 Q 217 172 215 176 Q 208 192 201 201 L 194 209 Q 193 210 193 210 Q 170 230 160 229 Q 159 228 161 226 Q 176 213 188 198" fill="#000080" clip-path="url(#clip-mask-23)" /><path d="M 212 115 L 212 112 Q 212 109 213 108 Q 216 107 232 113 Q 239 117 240 122 Q 242 128 241 131 Q 240 135 237 135 Q 233 134 218 119" fill="#000080" clip-path="url(#clip-mask-24)" /><rect x="22" y="75" width="43" height="69" id="rect-1" fill="transparent" stroke="#000000"><animate attributeName="y" from="6" to="75" dur="0.256" begin="0; animate24.end + 1s" id="animate1" fill="freeze"/></rect><rect x="53" y="91" width="61" height="22" id="rect-2" fill="transparent" stroke="#000000"><set attributeName="x" to="-8" begin="0; animate24.end + 1s" /><animate attributeName="x" from="-8" to="53" dur="0.226" begin="animate1.end + 0.5" id="animate2" fill="freeze"/></rect><rect x="68" y="26" width="33" height="224" id="rect-3" fill="transparent" stroke="#000000"><set attributeName="y" to="-198" begin="0; animate24.end + 1s" /><animate attributeName="y" from="-198" to="26" dur="0.830" begin="animate2.end + 0.5" id="animate3" fill="freeze"/></rect><rect x="18" y="135" width="82" height="57" id="rect-4" fill="transparent" stroke="#000000"><set attributeName="x" to="-64" begin="0; animate24.end + 1s" /><animate attributeName="x" from="-64" to="18" dur="0.304" begin="animate3.end + 0.5" id="animate4" fill="freeze"/></rect><rect x="129" y="25" width="26" height="22" id="rect-5" fill="transparent" stroke="#000000"><set attributeName="x" to="103" begin="0; animate24.end + 1s" /><animate attributeName="x" from="103" to="129" dur="0.096" begin="animate4.end + 0.5" id="animate5" fill="freeze"/></rect><rect x="169" y="13" width="38" height="34" id="rect-6" fill="transparent" stroke="#000000"><set attributeName="y" to="-21" begin="0; animate24.end + 1s" /><animate attributeName="y" from="-21" to="13" dur="0.126" begin="animate5.end + 0.5" id="animate6" fill="freeze"/></rect><rect x="123" y="43" width="84" height="25" id="rect-7" fill="transparent" stroke="#000000"><set attributeName="x" to="39" begin="0; animate24.end + 1s" /><animate attributeName="x" from="39" to="123" dur="0.311" begin="animate6.end + 0.5" id="animate7" fill="freeze"/></rect><rect x="128" y="70" width="72" height="21" id="rect-8" fill="transparent" stroke="#000000"><set attributeName="x" to="56" begin="0; animate24.end + 1s" /><animate attributeName="x" from="56" to="128" dur="0.267" begin="animate7.end + 0.5" id="animate8" fill="freeze"/></rect><rect x="156" y="62" width="15" height="39" id="rect-9" fill="transparent" stroke="#000000"><set attributeName="y" to="23" begin="0; animate24.end + 1s" /><animate attributeName="y" from="23" to="62" dur="0.144" begin="animate8.end + 0.5" id="animate9" fill="freeze"/></rect><rect x="113" y="88" width="102" height="29" id="rect-10" fill="transparent" stroke="#000000"><set attributeName="x" to="11" begin="0; animate24.end + 1s" /><animate attributeName="x" from="11" to="113" dur="0.378" begin="animate9.end + 0.5" id="animate10" fill="freeze"/></rect><rect x="107" y="117" width="47" height="23" id="rect-11" fill="transparent" stroke="#000000"><set attributeName="x" to="154" begin="0; animate24.end + 1s" /><animate attributeName="x" from="154" to="107" dur="0.174" begin="animate10.end + 0.5" id="animate11" fill="freeze"/></rect><rect x="92" y="125" width="130" height="37" id="rect-12" fill="transparent" stroke="#000000"><set attributeName="x" to="-38" begin="0; animate24.end + 1s" /><animate attributeName="x" from="-38" to="92" dur="0.481" begin="animate11.end + 0.5" id="animate12" fill="freeze"/></rect><rect x="127" y="133" width="16" height="46" id="rect-13" fill="transparent" stroke="#000000"><set attributeName="y" to="87" begin="0; animate24.end + 1s" /><animate attributeName="y" from="87" to="133" dur="0.170" begin="animate12.end + 0.5" id="animate13" fill="freeze"/></rect><rect x="90" y="146" width="40" height="44" id="rect-14" fill="transparent" stroke="#000000"><set attributeName="x" to="130" begin="0; animate24.end + 1s" /><animate attributeName="x" from="130" to="90" dur="0.148" begin="animate13.end + 0.5" id="animate14" fill="freeze"/></rect><rect x="138" y="156" width="29" height="17" id="rect-15" fill="transparent" stroke="#000000"><set attributeName="x" to="109" begin="0; animate24.end + 1s" /><animate attributeName="x" from="109" to="138" dur="0.107" begin="animate14.end + 0.5" id="animate15" fill="freeze"/></rect><rect x="103" y="177" width="54" height="17" id="rect-16" fill="transparent" stroke="#000000"><set attributeName="x" to="49" begin="0; animate24.end + 1s" /><animate attributeName="x" from="49" to="103" dur="0.200" begin="animate15.end + 0.5" id="animate16" fill="freeze"/></rect><rect x="107" y="192" width="22" height="29" id="rect-17" fill="transparent" stroke="#000000"><set attributeName="y" to="163" begin="0; animate24.end + 1s" /><animate attributeName="y" from="163" to="192" dur="0.107" begin="animate16.end + 0.5" id="animate17" fill="freeze"/></rect><rect x="119" y="199" width="40" height="19" id="rect-18" fill="transparent" stroke="#000000"><set attributeName="x" to="79" begin="0; animate24.end + 1s" /><animate attributeName="x" from="79" to="119" dur="0.148" begin="animate17.end" id="animate18" fill="freeze"/></rect><rect x="136" y="209" width="25" height="43" id="rect-19" fill="transparent" stroke="#000000"><set attributeName="y" to="166" begin="0; animate24.end + 1s" /><animate attributeName="y" from="166" to="209" dur="0.159" begin="animate18.end" id="animate19" fill="freeze"/></rect><rect x="117" y="232" width="19" height="22" id="rect-20" fill="transparent" stroke="#000000"><set attributeName="x" to="136" begin="0; animate24.end + 1s" /><animate attributeName="x" from="136" to="117" dur="0.070" begin="animate19.end" id="animate20" fill="freeze"/></rect><rect x="161" y="109" width="90" height="147" id="rect-21" fill="transparent" stroke="#000000"><set attributeName="y" to="-38" begin="0; animate24.end + 1s" /><animate attributeName="y" from="-38" to="109" dur="0.544" begin="animate20.end + 0.5" id="animate21" fill="freeze"/></rect><rect x="233" y="200" width="17" height="43" id="rect-22" fill="transparent" stroke="#000000"><set attributeName="y" to="243" begin="0; animate24.end + 1s" /><animate attributeName="y" from="243" to="200" dur="0.159" begin="animate21.end" id="animate22" fill="freeze"/></rect><rect x="159" y="154" width="62" height="76" id="rect-23" fill="transparent" stroke="#000000"><set attributeName="y" to="78" begin="0; animate24.end + 1s" /><animate attributeName="y" from="78" to="154" dur="0.281" begin="animate22.end + 0.5" id="animate23" fill="freeze"/></rect><rect x="212" y="107" width="30" height="28" id="rect-24" fill="transparent" stroke="#000000"><set attributeName="x" to="182" begin="0; animate24.end + 1s" /><animate attributeName="x" from="182" to="212" dur="0.111" begin="animate23.end + 0.5" id="animate24" fill="freeze"/></rect></svg>