<svg xmlns="http://www.w3.org/2000/svg" xmlns:xlink="http://www.w3.org/1999/xlink" width="270" height="270"><defs><clipPath id="clip-mask-1"><use xlink:href="#rect-1" /></clipPath><clipPath id="clip-mask-2"><use xlink:href="#rect-2" /></clipPath><clipPath id="clip-mask-3"><use xlink:href="#rect-3" /></clipPath><clipPath id="clip-mask-4"><use xlink:href="#rect-4" /></clipPath><clipPath id="clip-mask-5"><use xlink:href="#rect-5" /></clipPath><clipPath id="clip-mask-6"><use xlink:href="#rect-6" /></clipPath><clipPath id="clip-mask-7"><use xlink:href="#rect-7" /></clipPath><clipPath id="clip-mask-8"><use xlink:href="#rect-8" /></clipPath><clipPath id="clip-mask-9"><use xlink:href="#rect-9" /></clipPath><clipPath id="clip-mask-10"><use xlink:href="#rect-10" /></clipPath></defs><path d="M 0 0 L 270 270 M 270 0 L 0 270 M 135 0 L 135 270 M 0 135 L 270 135" stroke="#CCCCCC" /><path d="M 75 97 Q 46 124 29 125 Q 25 126 28 122 Q 33 117 44 109 Q 58 99 68 86 Q 69 85 70 84 L 80 72 Q 82 67 85 63 Q 91 51 92 38 Q 91 34 95 34 Q 101 33 113 45 Q 116 49 113 53 Q 101 66 86 85" fill="#CCCCCC"/><path d="M 77 104 L 75 97 L 70 84 Q 69 83 69 82 Q 61 68 52 65 Q 47 64 44 58 Q 42 52 43 48 Q 44 45 48 47 Q 68 54 80 72 L 86 85 Q 90 95 93 114 Q 104 201 82 231 Q 78 236 76 235 L 76 201 Q 83 174 81 137 L 78 111" fill="#CCCCCC"/><path d="M 76 235 Q 72 236 67 227 Q 62 218 53 209 Q 50 205 51 203 Q 53 201 61 204 Q 70 206 72 206 Q 74 205 76 201" fill="#CCCCCC"/><path d="M 81 137 Q 64 166 40 181 Q 21 195 15 192 Q 13 192 16 189 Q 62 151 78 113 Q 78 112 78 111" fill="#CCCCCC"/><path d="M 173 63 L 182 57 Q 187 54 192 56 Q 206 61 209 64 Q 210 66 207 70 L 183 71 Q 182 70 179 71 Q 165 73 146 79 Q 144 79 143 79 L 140 70" fill="#CCCCCC"/><path d="M 207 70 Q 202 78 200 103 Q 193 134 180 144 L 180 113 Q 184 103 185 82 Q 185 74 183 71" fill="#CCCCCC"/><path d="M 180 144 Q 176 148 171 143 Q 167 134 156 121 Q 152 114 159 117 Q 164 119 169 120 Q 176 121 180 113" fill="#CCCCCC"/><path d="M 143 79 Q 133 155 144 176 L 140 197 Q 133 190 131 182 Q 125 163 128 93 Q 129 83 125 72 Q 123 66 125 65 Q 128 64 131 65 Q 136 67 140 70" fill="#CCCCCC"/><path d="M 144 176 Q 147 183 157 187 Q 182 198 209 191 Q 221 188 225 183 L 252 183 Q 256 191 250 195 Q 238 204 226 208 Q 217 211 210 212 Q 161 216 140 197" fill="#CCCCCC"/><path d="M 225 183 Q 230 176 238 153 Q 239 148 241 149 Q 243 150 243 155 Q 249 176 252 183" fill="#CCCCCC"/><path d="M 75 97 Q 46 124 29 125 Q 25 126 28 122 Q 33 117 44 109 Q 58 99 68 86 Q 69 85 70 84 L 80 72 Q 82 67 85 63 Q 91 51 92 38 Q 91 34 95 34 Q 101 33 113 45 Q 116 49 113 53 Q 101 66 86 85" fill="#0000ff" clip-path="url(#clip-mask-1)" /><path d="M 77 104 L 75 97 L 70 84 Q 69 83 69 82 Q 61 68 52 65 Q 47 64 44 58 Q 42 52 43 48 Q 44 45 48 47 Q 68 54 80 72 L 86 85 Q 90 95 93 114 Q 104 201 82 231 Q 78 236 76 235 L 76 201 Q 83 174 81 137 L 78 111" fill="#0000ff" clip-path="url(#clip-mask-2)" /><path d="M 76 235 Q 72 236 67 227 Q 62 218 53 209 Q 50 205 51 203 Q 53 201 61 204 Q 70 206 72 206 Q 74 205 76 201" fill="#0000ff" clip-path="url(#clip-mask-3)" /><path d="M 81 137 Q 64 166 40 181 Q 21 195 15 192 Q 13 192 16 189 Q 62 151 78 113 Q 78 112 78 111" fill="#0000ff" clip-path="url(#clip-mask-4)" /><path d="M 173 63 L 182 57 Q 187 54 192 56 Q 206 61 209 64 Q 210 66 207 70 L 183 71 Q 182 70 179 71 Q 165 73 146 79 Q 144 79 143 79 L 140 70" fill="#000080" clip-path="url(#clip-mask-5)" /><path d="M 207 70 Q 202 78 200 103 Q 193 134 180 144 L 180 113 Q 184 103 185 82 Q 185 74 183 71" fill="#000080" clip-path="url(#clip-mask-6)" /><path d="M 180 144 Q 176 148 171 143 Q 167 134 156 121 Q 152 114 159 117 Q 164 119 169 120 Q 176 121 180 113" fill="#000080" clip-path="url(#clip-mask-7)" /><path d="M 143 79 Q 133 155 144 176 L 140 197 Q 133 190 131 182 Q 125 163 128 93 Q 129 83 125 72 Q 123 66 125 65 Q 128 64 131 65 Q 136 67 140 70" fill="#000080" clip-path="url(#clip-mask-8)" /><path d="M 144 176 Q 147 183 157 187 Q 182 198 209 191 Q 221 188 225 183 L 252 183 Q 256 191 250 195 Q 238 204 226 208 Q 217 211 210 212 Q 161 216 140 197" fill="#000080" clip-path="url(#clip-mask-9)" /><path d="M 225 183 Q 230 176 238 153 Q 239 148 241 149 Q 243 150 243 155 Q 249 176 252 183" fill="#000080" clip-path="url(#clip-mask-10)" /><rect x="25" y="33" width="91" height="93" id="rect-1" fill="transparent" stroke="#000000"><animate attributeName="y" from="-60" to="33" dur="0.344" begin="0; animate10.end + 1s" id="animate1" fill="freeze"/></rect><rect x="42" y="45" width="62" height="191" id="rect-2" fill="transparent" stroke="#000000"><set attributeName="y" to="-146" begin="0; animate10.end + 1s" /><animate attributeName="y" from="-146" to="45" dur="0.707" begin="animate1.end + 0.5" id="animate2" fill="freeze"/></rect><rect x="50" y="201" width="26" height="35" id="rect-3" fill="transparent" stroke="#000000"><set attributeName="x" to="76" begin="0; animate10.end + 1s" /><animate attributeName="x" from="76" to="50" dur="0.096" begin="animate2.end" id="animate3" fill="freeze"/></rect><rect x="13" y="111" width="68" height="84" id="rect-4" fill="transparent" stroke="#000000"><set attributeName="y" to="27" begin="0; animate10.end + 1s" /><animate attributeName="y" from="27" to="111" dur="0.311" begin="animate3.end + 0.5" id="animate4" fill="freeze"/></rect><rect x="140" y="54" width="70" height="25" id="rect-5" fill="transparent" stroke="#000000"><set attributeName="x" to="70" begin="0; animate10.end + 1s" /><animate attributeName="x" from="70" to="140" dur="0.259" begin="animate4.end + 0.5" id="animate5" fill="freeze"/></rect><rect x="180" y="70" width="27" height="74" id="rect-6" fill="transparent" stroke="#000000"><set attributeName="y" to="-4" begin="0; animate10.end + 1s" /><animate attributeName="y" from="-4" to="70" dur="0.274" begin="animate5.end" id="animate6" fill="freeze"/></rect><rect x="152" y="113" width="28" height="35" id="rect-7" fill="transparent" stroke="#000000"><set attributeName="x" to="180" begin="0; animate10.end + 1s" /><animate attributeName="x" from="180" to="152" dur="0.104" begin="animate6.end" id="animate7" fill="freeze"/></rect><rect x="123" y="64" width="21" height="133" id="rect-8" fill="transparent" stroke="#000000"><set attributeName="y" to="-69" begin="0; animate10.end + 1s" /><animate attributeName="y" from="-69" to="64" dur="0.493" begin="animate7.end + 0.5" id="animate8" fill="freeze"/></rect><rect x="140" y="176" width="116" height="40" id="rect-9" fill="transparent" stroke="#000000"><set attributeName="x" to="24" begin="0; animate10.end + 1s" /><animate attributeName="x" from="24" to="140" dur="0.430" begin="animate8.end" id="animate9" fill="freeze"/></rect><rect x="225" y="148" width="27" height="35" id="rect-10" fill="transparent" stroke="#000000"><set attributeName="y" to="183" begin="0; animate10.end + 1s" /><animate attributeName="y" from="183" to="148" dur="0.130" begin="animate9.end" id="animate10" fill="freeze"/></rect></svg>