<svg xmlns="http://www.w3.org/2000/svg" xmlns:xlink="http://www.w3.org/1999/xlink" width="270" height="270"><defs><clipPath id="clip-mask-1"><use xlink:href="#rect-1" /></clipPath><clipPath id="clip-mask-2"><use xlink:href="#rect-2" /></clipPath><clipPath id="clip-mask-3"><use xlink:href="#rect-3" /></clipPath><clipPath id="clip-mask-4"><use xlink:href="#rect-4" /></clipPath><clipPath id="clip-mask-5"><use xlink:href="#rect-5" /></clipPath><clipPath id="clip-mask-6"><use xlink:href="#rect-6" /></clipPath><clipPath id="clip-mask-7"><use xlink:href="#rect-7" /></clipPath><clipPath id="clip-mask-8"><use xlink:href="#rect-8" /></clipPath><clipPath id="clip-mask-9"><use xlink:href="#rect-9" /></clipPath><clipPath id="clip-mask-10"><use xlink:href="#rect-10" /></clipPath><clipPath id="clip-mask-11"><use xlink:href="#rect-11" /></clipPath><clipPath id="clip-mask-12"><use xlink:href="#rect-12" /></clipPath><clipPath id="clip-mask-13"><use xlink:href="#rect-13" /></clipPath><clipPath id="clip-mask-14"><use xlink:href="#rect-14" /></clipPath><clipPath id="clip-mask-15"><use xlink:href="#rect-15" /></clipPath><clipPath id="clip-mask-16"><use xlink:href="#rect-16" /></clipPath><clipPath id="clip-mask-17"><use xlink:href="#rect-17" /></clipPath><clipPath id="clip-mask-18"><use xlink:href="#rect-18" /></clipPath></defs><path d="M 0 0 L 270 270 M 270 0 L 0 270 M 135 0 L 135 270 M 0 135 L 270 135" stroke="#CCCCCC" /><path d="M 68 79 Q 45 103 31 105 Q 27 106 30 102 Q 34 98 44 90 Q 54 80 63 68 L 71 58 Q 82 37 81 24 Q 81 20 84 20 Q 90 19 100 28 Q 103 32 101 35 Q 92 46 83 59 Q 80 64 77 68" fill="#CCCCCC"/><path d="M 70 86 L 68 79 L 63 68 Q 54 55 49 52 Q 45 50 43 45 Q 41 40 43 36 Q 44 33 48 36 Q 61 43 71 58 L 77 68 Q 80 76 83 87 Q 85 96 86 106 Q 96 200 74 226 Q 71 231 69 230 Q 66 230 61 222 L 67 204 Q 69 204 70 200 Q 71 195 73 189 Q 80 152 76 121 L 73 99" fill="#CCCCCC"/><path d="M 61 222 Q 56 214 48 205 Q 45 201 46 200 Q 47 198 55 201 Q 63 204 67 204" fill="#CCCCCC"/><path d="M 76 121 Q 57 156 24 181 Q 21 183 20 183 Q 17 182 19 180 Q 59 132 73 100 Q 73 99 73 99" fill="#CCCCCC"/><path d="M 110 69 Q 136 28 133 21 Q 132 18 135 17 Q 137 16 143 18 Q 150 20 153 23 Q 156 27 152 30 Q 147 33 144 38 Q 125 60 114 71" fill="#CCCCCC"/><path d="M 114 197 L 111 203 Q 108 206 106 203 Q 97 193 101 179 Q 108 149 105 95 Q 105 93 105 92 Q 104 89 99 71 Q 98 68 100 67 Q 102 66 105 67 Q 108 68 110 69 L 114 71 L 116 78 Q 116 79 116 81 Q 115 84 115 105 L 115 112 Q 115 120 115 132 L 115 138 Q 115 149 115 163 L 115 172" fill="#CCCCCC"/><path d="M 114 71 Q 116 70 134 63 Q 143 56 149 59 Q 155 63 160 66 L 142 72 Q 141 70 136 72 Q 128 74 116 78" fill="#CCCCCC"/><path d="M 160 66 Q 166 69 160 75 Q 154 80 149 98 L 137 98 Q 139 89 142 82 Q 144 74 142 72" fill="#CCCCCC"/><path d="M 149 98 Q 154 101 154 103 Q 154 105 152 105 Q 130 109 121 111 Q 118 112 115 112 L 115 105 Q 125 102 136 98 Q 137 98 137 98" fill="#CCCCCC"/><path d="M 115 132 Q 124 129 132 126 Q 142 120 146 122 Q 153 126 157 129 L 140 135 L 139 134 Q 127 136 115 138" fill="#CCCCCC"/><path d="M 157 129 Q 162 132 157 138 Q 152 142 148 158 L 136 157 Q 141 136 140 135" fill="#CCCCCC"/><path d="M 148 158 Q 154 161 154 163 Q 154 166 151 166 Q 129 168 119 171 Q 116 172 115 172 L 115 163 Q 124 161 135 157 Q 136 157 136 157" fill="#CCCCCC"/><path d="M 192 75 Q 179 76 171 72 Q 164 68 173 66 Q 191 63 211 57 Q 233 48 241 49 Q 249 50 250 53 Q 252 55 250 58 Q 248 59 207 71" fill="#CCCCCC"/><path d="M 181 117 Q 180 123 180 148 Q 178 164 173 168 Q 170 169 169 167 Q 161 158 166 148 Q 173 126 166 111 Q 165 108 168 107 Q 171 107 177 110" fill="#CCCCCC"/><path d="M 191 115 L 184 117 Q 182 117 181 117 L 177 110 Q 188 108 197 106 L 210 102 Q 221 99 228 96 Q 231 94 236 96 Q 244 99 249 102 Q 251 104 249 107 L 231 107 Q 229 106 223 106 Q 218 107 210 110 L 197 113" fill="#CCCCCC"/><path d="M 249 107 Q 247 116 249 143 Q 250 155 246 166 Q 244 172 241 173 Q 237 175 234 172 L 232 150 Q 235 147 234 139 Q 234 128 234 119 Q 234 110 231 107" fill="#CCCCCC"/><path d="M 234 172 Q 228 164 217 153 Q 214 151 215 150 Q 216 148 220 150 Q 231 152 232 150" fill="#CCCCCC"/><path d="M 197 106 Q 197 83 192 75 L 207 71 Q 213 75 213 80 Q 210 91 210 102 L 210 110 Q 209 174 210 192 Q 210 213 208 235 Q 207 249 202 252 Q 201 253 199 251 Q 198 249 197 247 Q 195 241 197 113" fill="#CCCCCC"/><path d="M 68 79 Q 45 103 31 105 Q 27 106 30 102 Q 34 98 44 90 Q 54 80 63 68 L 71 58 Q 82 37 81 24 Q 81 20 84 20 Q 90 19 100 28 Q 103 32 101 35 Q 92 46 83 59 Q 80 64 77 68" fill="#0000ff" clip-path="url(#clip-mask-1)" /><path d="M 70 86 L 68 79 L 63 68 Q 54 55 49 52 Q 45 50 43 45 Q 41 40 43 36 Q 44 33 48 36 Q 61 43 71 58 L 77 68 Q 80 76 83 87 Q 85 96 86 106 Q 96 200 74 226 Q 71 231 69 230 Q 66 230 61 222 L 67 204 Q 69 204 70 200 Q 71 195 73 189 Q 80 152 76 121 L 73 99" fill="#0000ff" clip-path="url(#clip-mask-2)" /><path d="M 61 222 Q 56 214 48 205 Q 45 201 46 200 Q 47 198 55 201 Q 63 204 67 204" fill="#0000ff" clip-path="url(#clip-mask-3)" /><path d="M 76 121 Q 57 156 24 181 Q 21 183 20 183 Q 17 182 19 180 Q 59 132 73 100 Q 73 99 73 99" fill="#0000ff" clip-path="url(#clip-mask-4)" /><path d="M 110 69 Q 136 28 133 21 Q 132 18 135 17 Q 137 16 143 18 Q 150 20 153 23 Q 156 27 152 30 Q 147 33 144 38 Q 125 60 114 71" fill="#000080" clip-path="url(#clip-mask-5)" /><path d="M 114 197 L 111 203 Q 108 206 106 203 Q 97 193 101 179 Q 108 149 105 95 Q 105 93 105 92 Q 104 89 99 71 Q 98 68 100 67 Q 102 66 105 67 Q 108 68 110 69 L 114 71 L 116 78 Q 116 79 116 81 Q 115 84 115 105 L 115 112 Q 115 120 115 132 L 115 138 Q 115 149 115 163 L 115 172" fill="#000080" clip-path="url(#clip-mask-6)" /><path d="M 114 71 Q 116 70 134 63 Q 143 56 149 59 Q 155 63 160 66 L 142 72 Q 141 70 136 72 Q 128 74 116 78" fill="#000080" clip-path="url(#clip-mask-7)" /><path d="M 160 66 Q 166 69 160 75 Q 154 80 149 98 L 137 98 Q 139 89 142 82 Q 144 74 142 72" fill="#000080" clip-path="url(#clip-mask-8)" /><path d="M 149 98 Q 154 101 154 103 Q 154 105 152 105 Q 130 109 121 111 Q 118 112 115 112 L 115 105 Q 125 102 136 98 Q 137 98 137 98" fill="#000080" clip-path="url(#clip-mask-9)" /><path d="M 115 132 Q 124 129 132 126 Q 142 120 146 122 Q 153 126 157 129 L 140 135 L 139 134 Q 127 136 115 138" fill="#000080" clip-path="url(#clip-mask-10)" /><path d="M 157 129 Q 162 132 157 138 Q 152 142 148 158 L 136 157 Q 141 136 140 135" fill="#000080" clip-path="url(#clip-mask-11)" /><path d="M 148 158 Q 154 161 154 163 Q 154 166 151 166 Q 129 168 119 171 Q 116 172 115 172 L 115 163 Q 124 161 135 157 Q 136 157 136 157" fill="#000080" clip-path="url(#clip-mask-12)" /><path d="M 192 75 Q 179 76 171 72 Q 164 68 173 66 Q 191 63 211 57 Q 233 48 241 49 Q 249 50 250 53 Q 252 55 250 58 Q 248 59 207 71" fill="#000080" clip-path="url(#clip-mask-13)" /><path d="M 181 117 Q 180 123 180 148 Q 178 164 173 168 Q 170 169 169 167 Q 161 158 166 148 Q 173 126 166 111 Q 165 108 168 107 Q 171 107 177 110" fill="#000080" clip-path="url(#clip-mask-14)" /><path d="M 191 115 L 184 117 Q 182 117 181 117 L 177 110 Q 188 108 197 106 L 210 102 Q 221 99 228 96 Q 231 94 236 96 Q 244 99 249 102 Q 251 104 249 107 L 231 107 Q 229 106 223 106 Q 218 107 210 110 L 197 113" fill="#000080" clip-path="url(#clip-mask-15)" /><path d="M 249 107 Q 247 116 249 143 Q 250 155 246 166 Q 244 172 241 173 Q 237 175 234 172 L 232 150 Q 235 147 234 139 Q 234 128 234 119 Q 234 110 231 107" fill="#000080" clip-path="url(#clip-mask-16)" /><path d="M 234 172 Q 228 164 217 153 Q 214 151 215 150 Q 216 148 220 150 Q 231 152 232 150" fill="#000080" clip-path="url(#clip-mask-17)" /><path d="M 197 106 Q 197 83 192 75 L 207 71 Q 213 75 213 80 Q 210 91 210 102 L 210 110 Q 209 174 210 192 Q 210 213 208 235 Q 207 249 202 252 Q 201 253 199 251 Q 198 249 197 247 Q 195 241 197 113" fill="#000080" clip-path="url(#clip-mask-18)" /><rect x="27" y="19" width="76" height="87" id="rect-1" fill="transparent" stroke="#000000"><animate attributeName="y" from="-68" to="19" dur="0.322" begin="0; animate18.end + 1s" id="animate1" fill="freeze"/></rect><rect x="41" y="33" width="55" height="198" id="rect-2" fill="transparent" stroke="#000000"><set attributeName="y" to="-165" begin="0; animate18.end + 1s" /><animate attributeName="y" from="-165" to="33" dur="0.733" begin="animate1.end + 0.5" id="animate2" fill="freeze"/></rect><rect x="45" y="198" width="22" height="24" id="rect-3" fill="transparent" stroke="#000000"><set attributeName="x" to="67" begin="0; animate18.end + 1s" /><animate attributeName="x" from="67" to="45" dur="0.081" begin="animate2.end" id="animate3" fill="freeze"/></rect><rect x="17" y="99" width="59" height="84" id="rect-4" fill="transparent" stroke="#000000"><set attributeName="y" to="15" begin="0; animate18.end + 1s" /><animate attributeName="y" from="15" to="99" dur="0.311" begin="animate3.end + 0.5" id="animate4" fill="freeze"/></rect><rect x="110" y="16" width="46" height="55" id="rect-5" fill="transparent" stroke="#000000"><set attributeName="y" to="-39" begin="0; animate18.end + 1s" /><animate attributeName="y" from="-39" to="16" dur="0.204" begin="animate4.end + 0.5" id="animate5" fill="freeze"/></rect><rect x="97" y="66" width="19" height="140" id="rect-6" fill="transparent" stroke="#000000"><set attributeName="y" to="-74" begin="0; animate18.end + 1s" /><animate attributeName="y" from="-74" to="66" dur="0.519" begin="animate5.end + 0.5" id="animate6" fill="freeze"/></rect><rect x="114" y="56" width="46" height="22" id="rect-7" fill="transparent" stroke="#000000"><set attributeName="x" to="68" begin="0; animate18.end + 1s" /><animate attributeName="x" from="68" to="114" dur="0.170" begin="animate6.end + 0.5" id="animate7" fill="freeze"/></rect><rect x="137" y="66" width="29" height="32" id="rect-8" fill="transparent" stroke="#000000"><set attributeName="y" to="34" begin="0; animate18.end + 1s" /><animate attributeName="y" from="34" to="66" dur="0.119" begin="animate7.end" id="animate8" fill="freeze"/></rect><rect x="115" y="98" width="39" height="14" id="rect-9" fill="transparent" stroke="#000000"><set attributeName="x" to="76" begin="0; animate18.end + 1s" /><animate attributeName="x" from="76" to="115" dur="0.144" begin="animate8.end + 0.5" id="animate9" fill="freeze"/></rect><rect x="115" y="120" width="42" height="18" id="rect-10" fill="transparent" stroke="#000000"><set attributeName="x" to="73" begin="0; animate18.end + 1s" /><animate attributeName="x" from="73" to="115" dur="0.156" begin="animate9.end + 0.5" id="animate10" fill="freeze"/></rect><rect x="136" y="129" width="26" height="29" id="rect-11" fill="transparent" stroke="#000000"><set attributeName="y" to="100" begin="0; animate18.end + 1s" /><animate attributeName="y" from="100" to="129" dur="0.107" begin="animate10.end" id="animate11" fill="freeze"/></rect><rect x="115" y="157" width="39" height="15" id="rect-12" fill="transparent" stroke="#000000"><set attributeName="x" to="76" begin="0; animate18.end + 1s" /><animate attributeName="x" from="76" to="115" dur="0.144" begin="animate11.end + 0.5" id="animate12" fill="freeze"/></rect><rect x="164" y="48" width="88" height="28" id="rect-13" fill="transparent" stroke="#000000"><set attributeName="x" to="76" begin="0; animate18.end + 1s" /><animate attributeName="x" from="76" to="164" dur="0.326" begin="animate12.end + 0.5" id="animate13" fill="freeze"/></rect><rect x="161" y="107" width="20" height="62" id="rect-14" fill="transparent" stroke="#000000"><set attributeName="y" to="45" begin="0; animate18.end + 1s" /><animate attributeName="y" from="45" to="107" dur="0.230" begin="animate13.end + 0.5" id="animate14" fill="freeze"/></rect><rect x="177" y="94" width="74" height="23" id="rect-15" fill="transparent" stroke="#000000"><set attributeName="x" to="103" begin="0; animate18.end + 1s" /><animate attributeName="x" from="103" to="177" dur="0.274" begin="animate14.end + 0.5" id="animate15" fill="freeze"/></rect><rect x="231" y="107" width="19" height="68" id="rect-16" fill="transparent" stroke="#000000"><set attributeName="y" to="39" begin="0; animate18.end + 1s" /><animate attributeName="y" from="39" to="107" dur="0.252" begin="animate15.end" id="animate16" fill="freeze"/></rect><rect x="214" y="148" width="20" height="24" id="rect-17" fill="transparent" stroke="#000000"><set attributeName="x" to="234" begin="0; animate18.end + 1s" /><animate attributeName="x" from="234" to="214" dur="0.074" begin="animate16.end" id="animate17" fill="freeze"/></rect><rect x="192" y="71" width="21" height="182" id="rect-18" fill="transparent" stroke="#000000"><set attributeName="y" to="-111" begin="0; animate18.end + 1s" /><animate attributeName="y" from="-111" to="71" dur="0.674" begin="animate17.end + 0.5" id="animate18" fill="freeze"/></rect></svg>