<svg xmlns="http://www.w3.org/2000/svg" xmlns:xlink="http://www.w3.org/1999/xlink" width="270" height="270"><defs><clipPath id="clip-mask-1"><use xlink:href="#rect-1" /></clipPath><clipPath id="clip-mask-2"><use xlink:href="#rect-2" /></clipPath><clipPath id="clip-mask-3"><use xlink:href="#rect-3" /></clipPath><clipPath id="clip-mask-4"><use xlink:href="#rect-4" /></clipPath><clipPath id="clip-mask-5"><use xlink:href="#rect-5" /></clipPath><clipPath id="clip-mask-6"><use xlink:href="#rect-6" /></clipPath><clipPath id="clip-mask-7"><use xlink:href="#rect-7" /></clipPath><clipPath id="clip-mask-8"><use xlink:href="#rect-8" /></clipPath><clipPath id="clip-mask-9"><use xlink:href="#rect-9" /></clipPath><clipPath id="clip-mask-10"><use xlink:href="#rect-10" /></clipPath><clipPath id="clip-mask-11"><use xlink:href="#rect-11" /></clipPath><clipPath id="clip-mask-12"><use xlink:href="#rect-12" /></clipPath><clipPath id="clip-mask-13"><use xlink:href="#rect-13" /></clipPath><clipPath id="clip-mask-14"><use xlink:href="#rect-14" /></clipPath><clipPath id="clip-mask-15"><use xlink:href="#rect-15" /></clipPath><clipPath id="clip-mask-16"><use xlink:href="#rect-16" /></clipPath><clipPath id="clip-mask-17"><use xlink:href="#rect-17" /></clipPath><clipPath id="clip-mask-18"><use xlink:href="#rect-18" /></clipPath><clipPath id="clip-mask-19"><use xlink:href="#rect-19" /></clipPath><clipPath id="clip-mask-20"><use xlink:href="#rect-20" /></clipPath><clipPath id="clip-mask-21"><use xlink:href="#rect-21" /></clipPath><clipPath id="clip-mask-22"><use xlink:href="#rect-22" /></clipPath><clipPath id="clip-mask-23"><use xlink:href="#rect-23" /></clipPath><clipPath id="clip-mask-24"><use xlink:href="#rect-24" /></clipPath><clipPath id="clip-mask-25"><use xlink:href="#rect-25" /></clipPath><clipPath id="clip-mask-26"><use xlink:href="#rect-26" /></clipPath><clipPath id="clip-mask-27"><use xlink:href="#rect-27" /></clipPath></defs><path d="M 0 0 L 270 270 M 270 0 L 0 270 M 135 0 L 135 270 M 0 135 L 270 135" stroke="#CCCCCC" /><path d="M 58 97 Q 35 118 24 119 Q 20 120 23 116 Q 27 111 37 103 Q 46 96 53 87 L 62 76 Q 76 53 76 38 Q 75 34 79 34 Q 85 33 95 43 Q 99 47 96 50 Q 87 61 78 74 Q 73 80 68 87" fill="#CCCCCC"/><path d="M 61 104 L 58 97 L 53 87 Q 46 74 37 71 Q 32 69 30 64 Q 28 59 29 55 Q 31 52 34 54 Q 51 61 62 76 L 68 87 Q 72 94 74 103 Q 77 113 79 125 Q 88 213 67 243 Q 63 248 61 247 Q 58 248 53 240 L 58 220 Q 60 220 61 216 Q 72 182 67 136 L 64 115" fill="#CCCCCC"/><path d="M 53 240 Q 47 232 37 222 Q 34 219 35 217 Q 36 216 45 218 Q 55 221 58 220" fill="#CCCCCC"/><path d="M 67 136 Q 56 154 44 166 Q 18 190 14 189 Q 11 188 13 186 Q 49 145 64 115" fill="#CCCCCC"/><path d="M 118 40 L 117 34 Q 116 29 118 29 Q 121 28 125 31 Q 130 34 134 43 Q 135 48 131 50 Q 130 50 109 73 L 98 79 Q 98 76 99 73 Q 108 62 113 49" fill="#CCCCCC"/><path d="M 109 73 Q 107 77 108 79 Q 110 81 114 82 Q 121 82 123 83 Q 126 87 127 93 Q 127 98 123 99 Q 120 99 115 95 L 98 79" fill="#CCCCCC"/><path d="M 152 37 L 150 31 Q 149 27 152 27 Q 155 26 158 28 Q 163 31 167 40 Q 168 44 165 46 Q 161 48 156 54 Q 150 61 147 64 Q 144 67 146 69 L 141 75 Q 137 72 136 70 Q 136 67 138 64 Q 145 55 148 46" fill="#CCCCCC"/><path d="M 146 69 Q 148 72 152 73 Q 161 75 162 77 Q 165 81 165 86 Q 164 92 161 92 Q 158 92 154 88 Q 148 81 141 75" fill="#CCCCCC"/><path d="M 194 32 L 193 26 Q 191 21 194 21 Q 197 20 201 22 Q 206 26 209 35 Q 211 40 207 41 Q 203 44 198 50 Q 192 55 189 58 Q 187 61 188 63 L 183 69 Q 179 66 178 64 Q 177 61 180 58 Q 186 49 189 41" fill="#CCCCCC"/><path d="M 188 63 Q 198 67 207 71 Q 211 74 211 80 Q 210 86 207 86 Q 204 87 200 83 Q 192 76 183 69" fill="#CCCCCC"/><path d="M 115 144 Q 115 147 115 148 Q 114 153 109 148 Q 105 144 104 139 Q 99 120 92 110 Q 89 106 90 105 Q 91 103 94 104 Q 103 105 106 106 L 109 114 Q 110 120 114 136" fill="#CCCCCC"/><path d="M 106 106 Q 116 103 130 100 Q 167 90 177 90 Q 196 86 200 88 Q 211 95 215 100 L 193 98 Q 187 95 162 101 L 154 102 Q 124 108 109 114 Q 109 114 109 114" fill="#CCCCCC"/><path d="M 215 100 Q 218 103 214 107 Q 205 113 200 125 Q 195 132 194 133 Q 191 136 188 136 Q 185 136 184 133 L 184 128 Q 184 126 186 125 Q 188 121 193 103 Q 194 99 193 98" fill="#CCCCCC"/><path d="M 162 101 Q 163 101 164 103 Q 166 105 166 106 Q 165 108 164 108 Q 163 109 162 110 Q 159 113 156 115 L 148 121 Q 142 125 136 127 Q 126 130 125 130 Q 123 129 125 129 Q 135 123 139 119 Q 140 119 141 118 L 147 113 Q 151 108 154 103 Q 154 102 154 102" fill="#CCCCCC"/><path d="M 156 115 Q 167 117 169 124 L 160 127 Q 153 124 148 121 L 141 118 Q 125 112 125 111 Q 124 109 126 109 Q 145 111 147 113" fill="#CCCCCC"/><path d="M 125 142 L 118 143 Q 116 144 115 144 L 114 136 Q 135 133 160 127 L 169 124 Q 176 123 180 125 Q 183 127 184 128 L 184 133 Q 184 133 184 133 Q 160 135 143 139 L 134 140" fill="#CCCCCC"/><path d="M 110 173 L 110 181 Q 109 193 107 214 Q 106 219 108 220 L 104 241 Q 101 245 97 243 Q 91 241 89 238 Q 87 235 90 231 Q 93 225 95 221 Q 105 176 95 160 Q 92 155 95 154 Q 97 153 101 154 Q 106 157 111 161 Q 113 163 112 167" fill="#CCCCCC"/><path d="M 108 220 Q 109 220 111 219 Q 128 207 130 207 Q 132 207 130 210 Q 128 214 122 219 Q 106 234 104 241" fill="#CCCCCC"/><path d="M 116 159 L 116 157 Q 116 155 118 155 Q 130 155 134 160 Q 137 163 137 165 Q 137 169 134 169 Q 130 169 118 160" fill="#CCCCCC"/><path d="M 115 183 L 115 182 Q 115 180 117 180 Q 129 180 133 184 Q 135 188 135 190 Q 135 193 132 194 Q 128 194 117 185" fill="#CCCCCC"/><path d="M 143 139 Q 147 140 151 145 Q 154 147 153 152 Q 151 164 150 211 Q 150 215 152 216 L 147 244 Q 145 249 142 247 Q 140 246 140 245 Q 129 235 135 226 Q 142 214 140 160 Q 141 152 136 143 Q 134 141 134 140" fill="#CCCCCC"/><path d="M 152 216 Q 154 216 177 198 Q 182 195 182 198 Q 182 200 178 204 Q 154 233 147 244" fill="#CCCCCC"/><path d="M 158 150 L 158 149 Q 157 147 159 147 Q 171 146 177 152 Q 180 155 180 158 Q 179 161 177 162 Q 171 162 160 152" fill="#CCCCCC"/><path d="M 157 175 L 157 174 Q 156 172 158 172 Q 174 173 178 179 Q 181 182 181 185 Q 180 188 177 188 Q 173 189 158 177" fill="#CCCCCC"/><path d="M 177 139 L 182 137 Q 186 136 195 145 Q 203 152 200 157 Q 198 160 198 167 Q 197 183 199 194 Q 205 219 223 224 L 223 243 Q 185 226 184 164 Q 184 155 180 146" fill="#CCCCCC"/><path d="M 223 224 Q 228 226 229 225 L 255 237 Q 258 244 254 245 Q 249 249 240 247 Q 231 246 223 243" fill="#CCCCCC"/><path d="M 229 225 Q 234 223 240 196 Q 241 194 243 195 Q 245 197 245 201 Q 249 222 255 237" fill="#CCCCCC"/><path d="M 58 97 Q 35 118 24 119 Q 20 120 23 116 Q 27 111 37 103 Q 46 96 53 87 L 62 76 Q 76 53 76 38 Q 75 34 79 34 Q 85 33 95 43 Q 99 47 96 50 Q 87 61 78 74 Q 73 80 68 87" fill="#0000ff" clip-path="url(#clip-mask-1)" /><path d="M 61 104 L 58 97 L 53 87 Q 46 74 37 71 Q 32 69 30 64 Q 28 59 29 55 Q 31 52 34 54 Q 51 61 62 76 L 68 87 Q 72 94 74 103 Q 77 113 79 125 Q 88 213 67 243 Q 63 248 61 247 Q 58 248 53 240 L 58 220 Q 60 220 61 216 Q 72 182 67 136 L 64 115" fill="#0000ff" clip-path="url(#clip-mask-2)" /><path d="M 53 240 Q 47 232 37 222 Q 34 219 35 217 Q 36 216 45 218 Q 55 221 58 220" fill="#0000ff" clip-path="url(#clip-mask-3)" /><path d="M 67 136 Q 56 154 44 166 Q 18 190 14 189 Q 11 188 13 186 Q 49 145 64 115" fill="#0000ff" clip-path="url(#clip-mask-4)" /><path d="M 118 40 L 117 34 Q 116 29 118 29 Q 121 28 125 31 Q 130 34 134 43 Q 135 48 131 50 Q 130 50 109 73 L 98 79 Q 98 76 99 73 Q 108 62 113 49" fill="#000080" clip-path="url(#clip-mask-5)" /><path d="M 109 73 Q 107 77 108 79 Q 110 81 114 82 Q 121 82 123 83 Q 126 87 127 93 Q 127 98 123 99 Q 120 99 115 95 L 98 79" fill="#000080" clip-path="url(#clip-mask-6)" /><path d="M 152 37 L 150 31 Q 149 27 152 27 Q 155 26 158 28 Q 163 31 167 40 Q 168 44 165 46 Q 161 48 156 54 Q 150 61 147 64 Q 144 67 146 69 L 141 75 Q 137 72 136 70 Q 136 67 138 64 Q 145 55 148 46" fill="#000080" clip-path="url(#clip-mask-7)" /><path d="M 146 69 Q 148 72 152 73 Q 161 75 162 77 Q 165 81 165 86 Q 164 92 161 92 Q 158 92 154 88 Q 148 81 141 75" fill="#000080" clip-path="url(#clip-mask-8)" /><path d="M 194 32 L 193 26 Q 191 21 194 21 Q 197 20 201 22 Q 206 26 209 35 Q 211 40 207 41 Q 203 44 198 50 Q 192 55 189 58 Q 187 61 188 63 L 183 69 Q 179 66 178 64 Q 177 61 180 58 Q 186 49 189 41" fill="#000080" clip-path="url(#clip-mask-9)" /><path d="M 188 63 Q 198 67 207 71 Q 211 74 211 80 Q 210 86 207 86 Q 204 87 200 83 Q 192 76 183 69" fill="#000080" clip-path="url(#clip-mask-10)" /><path d="M 115 144 Q 115 147 115 148 Q 114 153 109 148 Q 105 144 104 139 Q 99 120 92 110 Q 89 106 90 105 Q 91 103 94 104 Q 103 105 106 106 L 109 114 Q 110 120 114 136" fill="#000080" clip-path="url(#clip-mask-11)" /><path d="M 106 106 Q 116 103 130 100 Q 167 90 177 90 Q 196 86 200 88 Q 211 95 215 100 L 193 98 Q 187 95 162 101 L 154 102 Q 124 108 109 114 Q 109 114 109 114" fill="#000080" clip-path="url(#clip-mask-12)" /><path d="M 215 100 Q 218 103 214 107 Q 205 113 200 125 Q 195 132 194 133 Q 191 136 188 136 Q 185 136 184 133 L 184 128 Q 184 126 186 125 Q 188 121 193 103 Q 194 99 193 98" fill="#000080" clip-path="url(#clip-mask-13)" /><path d="M 162 101 Q 163 101 164 103 Q 166 105 166 106 Q 165 108 164 108 Q 163 109 162 110 Q 159 113 156 115 L 148 121 Q 142 125 136 127 Q 126 130 125 130 Q 123 129 125 129 Q 135 123 139 119 Q 140 119 141 118 L 147 113 Q 151 108 154 103 Q 154 102 154 102" fill="#000080" clip-path="url(#clip-mask-14)" /><path d="M 156 115 Q 167 117 169 124 L 160 127 Q 153 124 148 121 L 141 118 Q 125 112 125 111 Q 124 109 126 109 Q 145 111 147 113" fill="#000080" clip-path="url(#clip-mask-15)" /><path d="M 125 142 L 118 143 Q 116 144 115 144 L 114 136 Q 135 133 160 127 L 169 124 Q 176 123 180 125 Q 183 127 184 128 L 184 133 Q 184 133 184 133 Q 160 135 143 139 L 134 140" fill="#000080" clip-path="url(#clip-mask-16)" /><path d="M 110 173 L 110 181 Q 109 193 107 214 Q 106 219 108 220 L 104 241 Q 101 245 97 243 Q 91 241 89 238 Q 87 235 90 231 Q 93 225 95 221 Q 105 176 95 160 Q 92 155 95 154 Q 97 153 101 154 Q 106 157 111 161 Q 113 163 112 167" fill="#000080" clip-path="url(#clip-mask-17)" /><path d="M 108 220 Q 109 220 111 219 Q 128 207 130 207 Q 132 207 130 210 Q 128 214 122 219 Q 106 234 104 241" fill="#000080" clip-path="url(#clip-mask-18)" /><path d="M 116 159 L 116 157 Q 116 155 118 155 Q 130 155 134 160 Q 137 163 137 165 Q 137 169 134 169 Q 130 169 118 160" fill="#000080" clip-path="url(#clip-mask-19)" /><path d="M 115 183 L 115 182 Q 115 180 117 180 Q 129 180 133 184 Q 135 188 135 190 Q 135 193 132 194 Q 128 194 117 185" fill="#000080" clip-path="url(#clip-mask-20)" /><path d="M 143 139 Q 147 140 151 145 Q 154 147 153 152 Q 151 164 150 211 Q 150 215 152 216 L 147 244 Q 145 249 142 247 Q 140 246 140 245 Q 129 235 135 226 Q 142 214 140 160 Q 141 152 136 143 Q 134 141 134 140" fill="#000080" clip-path="url(#clip-mask-21)" /><path d="M 152 216 Q 154 216 177 198 Q 182 195 182 198 Q 182 200 178 204 Q 154 233 147 244" fill="#000080" clip-path="url(#clip-mask-22)" /><path d="M 158 150 L 158 149 Q 157 147 159 147 Q 171 146 177 152 Q 180 155 180 158 Q 179 161 177 162 Q 171 162 160 152" fill="#000080" clip-path="url(#clip-mask-23)" /><path d="M 157 175 L 157 174 Q 156 172 158 172 Q 174 173 178 179 Q 181 182 181 185 Q 180 188 177 188 Q 173 189 158 177" fill="#000080" clip-path="url(#clip-mask-24)" /><path d="M 177 139 L 182 137 Q 186 136 195 145 Q 203 152 200 157 Q 198 160 198 167 Q 197 183 199 194 Q 205 219 223 224 L 223 243 Q 185 226 184 164 Q 184 155 180 146" fill="#000080" clip-path="url(#clip-mask-25)" /><path d="M 223 224 Q 228 226 229 225 L 255 237 Q 258 244 254 245 Q 249 249 240 247 Q 231 246 223 243" fill="#000080" clip-path="url(#clip-mask-26)" /><path d="M 229 225 Q 234 223 240 196 Q 241 194 243 195 Q 245 197 245 201 Q 249 222 255 237" fill="#000080" clip-path="url(#clip-mask-27)" /><rect x="20" y="33" width="79" height="87" id="rect-1" fill="transparent" stroke="#000000"><animate attributeName="y" from="-54" to="33" dur="0.322" begin="0; animate27.end + 1s" id="animate1" fill="freeze"/></rect><rect x="28" y="52" width="60" height="196" id="rect-2" fill="transparent" stroke="#000000"><set attributeName="y" to="-144" begin="0; animate27.end + 1s" /><animate attributeName="y" from="-144" to="52" dur="0.726" begin="animate1.end + 0.5" id="animate2" fill="freeze"/></rect><rect x="34" y="216" width="24" height="24" id="rect-3" fill="transparent" stroke="#000000"><set attributeName="x" to="58" begin="0; animate27.end + 1s" /><animate attributeName="x" from="58" to="34" dur="0.089" begin="animate2.end" id="animate3" fill="freeze"/></rect><rect x="11" y="115" width="56" height="75" id="rect-4" fill="transparent" stroke="#000000"><set attributeName="y" to="40" begin="0; animate27.end + 1s" /><animate attributeName="y" from="40" to="115" dur="0.278" begin="animate3.end + 0.5" id="animate4" fill="freeze"/></rect><rect x="98" y="28" width="37" height="51" id="rect-5" fill="transparent" stroke="#000000"><set attributeName="y" to="-23" begin="0; animate27.end + 1s" /><animate attributeName="y" from="-23" to="28" dur="0.189" begin="animate4.end + 0.5" id="animate5" fill="freeze"/></rect><rect x="98" y="73" width="29" height="26" id="rect-6" fill="transparent" stroke="#000000"><set attributeName="x" to="69" begin="0; animate27.end + 1s" /><animate attributeName="x" from="69" to="98" dur="0.107" begin="animate5.end" id="animate6" fill="freeze"/></rect><rect x="136" y="26" width="32" height="49" id="rect-7" fill="transparent" stroke="#000000"><set attributeName="y" to="-23" begin="0; animate27.end + 1s" /><animate attributeName="y" from="-23" to="26" dur="0.181" begin="animate6.end + 0.5" id="animate7" fill="freeze"/></rect><rect x="141" y="69" width="24" height="23" id="rect-8" fill="transparent" stroke="#000000"><set attributeName="x" to="117" begin="0; animate27.end + 1s" /><animate attributeName="x" from="117" to="141" dur="0.089" begin="animate7.end" id="animate8" fill="freeze"/></rect><rect x="177" y="20" width="34" height="49" id="rect-9" fill="transparent" stroke="#000000"><set attributeName="y" to="-29" begin="0; animate27.end + 1s" /><animate attributeName="y" from="-29" to="20" dur="0.181" begin="animate8.end + 0.5" id="animate9" fill="freeze"/></rect><rect x="183" y="63" width="28" height="24" id="rect-10" fill="transparent" stroke="#000000"><set attributeName="x" to="155" begin="0; animate27.end + 1s" /><animate attributeName="x" from="155" to="183" dur="0.104" begin="animate9.end" id="animate10" fill="freeze"/></rect><rect x="89" y="103" width="26" height="50" id="rect-11" fill="transparent" stroke="#000000"><set attributeName="y" to="53" begin="0; animate27.end + 1s" /><animate attributeName="y" from="53" to="103" dur="0.185" begin="animate10.end + 0.5" id="animate11" fill="freeze"/></rect><rect x="106" y="86" width="109" height="28" id="rect-12" fill="transparent" stroke="#000000"><set attributeName="x" to="-3" begin="0; animate27.end + 1s" /><animate attributeName="x" from="-3" to="106" dur="0.404" begin="animate11.end + 0.5" id="animate12" fill="freeze"/></rect><rect x="184" y="98" width="34" height="38" id="rect-13" fill="transparent" stroke="#000000"><set attributeName="y" to="60" begin="0; animate27.end + 1s" /><animate attributeName="y" from="60" to="98" dur="0.141" begin="animate12.end" id="animate13" fill="freeze"/></rect><rect x="123" y="101" width="43" height="29" id="rect-14" fill="transparent" stroke="#000000"><set attributeName="x" to="166" begin="0; animate27.end + 1s" /><animate attributeName="x" from="166" to="123" dur="0.159" begin="animate13.end + 0.5" id="animate14" fill="freeze"/></rect><rect x="124" y="109" width="45" height="18" id="rect-15" fill="transparent" stroke="#000000"><set attributeName="x" to="79" begin="0; animate27.end + 1s" /><animate attributeName="x" from="79" to="124" dur="0.167" begin="animate14.end + 0.5" id="animate15" fill="freeze"/></rect><rect x="114" y="123" width="70" height="21" id="rect-16" fill="transparent" stroke="#000000"><set attributeName="x" to="44" begin="0; animate27.end + 1s" /><animate attributeName="x" from="44" to="114" dur="0.259" begin="animate15.end + 0.5" id="animate16" fill="freeze"/></rect><rect x="87" y="153" width="26" height="92" id="rect-17" fill="transparent" stroke="#000000"><set attributeName="y" to="61" begin="0; animate27.end + 1s" /><animate attributeName="y" from="61" to="153" dur="0.341" begin="animate16.end + 0.5" id="animate17" fill="freeze"/></rect><rect x="104" y="207" width="28" height="34" id="rect-18" fill="transparent" stroke="#000000"><set attributeName="x" to="76" begin="0; animate27.end + 1s" /><animate attributeName="x" from="76" to="104" dur="0.104" begin="animate17.end" id="animate18" fill="freeze"/></rect><rect x="116" y="155" width="21" height="14" id="rect-19" fill="transparent" stroke="#000000"><set attributeName="x" to="95" begin="0; animate27.end + 1s" /><animate attributeName="x" from="95" to="116" dur="0.078" begin="animate18.end + 0.5" id="animate19" fill="freeze"/></rect><rect x="115" y="180" width="20" height="14" id="rect-20" fill="transparent" stroke="#000000"><set attributeName="x" to="95" begin="0; animate27.end + 1s" /><animate attributeName="x" from="95" to="115" dur="0.074" begin="animate19.end + 0.5" id="animate20" fill="freeze"/></rect><rect x="129" y="139" width="25" height="110" id="rect-21" fill="transparent" stroke="#000000"><set attributeName="y" to="29" begin="0; animate27.end + 1s" /><animate attributeName="y" from="29" to="139" dur="0.407" begin="animate20.end + 0.5" id="animate21" fill="freeze"/></rect><rect x="147" y="195" width="35" height="49" id="rect-22" fill="transparent" stroke="#000000"><set attributeName="x" to="112" begin="0; animate27.end + 1s" /><animate attributeName="x" from="112" to="147" dur="0.130" begin="animate21.end" id="animate22" fill="freeze"/></rect><rect x="157" y="146" width="23" height="16" id="rect-23" fill="transparent" stroke="#000000"><set attributeName="x" to="134" begin="0; animate27.end + 1s" /><animate attributeName="x" from="134" to="157" dur="0.085" begin="animate22.end + 0.5" id="animate23" fill="freeze"/></rect><rect x="156" y="172" width="25" height="17" id="rect-24" fill="transparent" stroke="#000000"><set attributeName="x" to="131" begin="0; animate27.end + 1s" /><animate attributeName="x" from="131" to="156" dur="0.093" begin="animate23.end + 0.5" id="animate24" fill="freeze"/></rect><rect x="177" y="136" width="46" height="107" id="rect-25" fill="transparent" stroke="#000000"><set attributeName="y" to="29" begin="0; animate27.end + 1s" /><animate attributeName="y" from="29" to="136" dur="0.396" begin="animate24.end + 0.5" id="animate25" fill="freeze"/></rect><rect x="223" y="224" width="35" height="25" id="rect-26" fill="transparent" stroke="#000000"><set attributeName="x" to="188" begin="0; animate27.end + 1s" /><animate attributeName="x" from="188" to="223" dur="0.130" begin="animate25.end" id="animate26" fill="freeze"/></rect><rect x="229" y="194" width="26" height="43" id="rect-27" fill="transparent" stroke="#000000"><set attributeName="y" to="237" begin="0; animate27.end + 1s" /><animate attributeName="y" from="237" to="194" dur="0.159" begin="animate26.end" id="animate27" fill="freeze"/></rect></svg>