<svg xmlns="http://www.w3.org/2000/svg" xmlns:xlink="http://www.w3.org/1999/xlink" width="270" height="270"><defs><clipPath id="clip-mask-1"><use xlink:href="#rect-1" /></clipPath><clipPath id="clip-mask-2"><use xlink:href="#rect-2" /></clipPath><clipPath id="clip-mask-3"><use xlink:href="#rect-3" /></clipPath><clipPath id="clip-mask-4"><use xlink:href="#rect-4" /></clipPath><clipPath id="clip-mask-5"><use xlink:href="#rect-5" /></clipPath><clipPath id="clip-mask-6"><use xlink:href="#rect-6" /></clipPath><clipPath id="clip-mask-7"><use xlink:href="#rect-7" /></clipPath><clipPath id="clip-mask-8"><use xlink:href="#rect-8" /></clipPath><clipPath id="clip-mask-9"><use xlink:href="#rect-9" /></clipPath></defs><path d="M 0 0 L 270 270 M 270 0 L 0 270 M 135 0 L 135 270 M 0 135 L 270 135" stroke="#CCCCCC" /><path d="M 69 62 Q 68 70 68 74 Q 68 158 39 196 Q 32 209 27 209 Q 25 210 25 207 Q 25 205 26 204 Q 42 171 48 148 Q 49 142 50 136 Q 58 64 45 52 Q 43 48 46 46 Q 49 44 55 47 Q 61 49 65 51" fill="#CCCCCC"/><path d="M 94 57 Q 94 56 94 56 Q 76 60 69 62 L 65 51 Q 108 46 147 37 Q 164 32 171 35 Q 184 42 187 46 L 162 49 Q 159 45 153 47 Q 130 49 111 53" fill="#CCCCCC"/><path d="M 187 46 Q 189 50 186 56 Q 181 66 184 162 Q 184 180 179 193 Q 175 201 171 202 Q 168 202 162 196 L 162 170 Q 165 168 166 160 Q 169 109 166 64 Q 164 50 162 49" fill="#CCCCCC"/><path d="M 162 196 Q 156 186 142 172 Q 139 170 139 168 Q 139 165 144 167 Q 159 172 162 170" fill="#CCCCCC"/><path d="M 101 107 Q 88 109 81 105 Q 75 102 83 100 Q 93 99 102 97 L 118 92 Q 130 87 137 88 Q 144 90 146 92 Q 147 94 145 96 Q 144 97 136 99 Q 126 101 117 103" fill="#CCCCCC"/><path d="M 95 147 L 92 148 Q 82 150 75 145 Q 69 141 76 140 Q 83 139 91 138 Q 96 137 101 136 L 115 132 Q 116 132 117 132 Q 137 124 144 129 Q 150 132 149 134 Q 148 137 145 137 Q 130 139 115 143 L 101 146" fill="#CCCCCC"/><path d="M 101 136 Q 101 122 101 107 L 102 97 Q 102 71 100 66 Q 99 60 94 57 L 111 53 Q 116 56 120 60 Q 126 63 123 69 Q 120 74 118 92 L 117 103 Q 116 114 115 126 Q 115 130 115 132 L 115 143 Q 114 182 117 192 Q 120 207 134 213 L 130 226 Q 121 223 115 216 Q 101 202 101 146" fill="#CCCCCC"/><path d="M 134 213 Q 142 217 159 218 Q 187 219 204 214 L 240 208 Q 244 216 240 220 Q 234 226 218 231 Q 213 232 207 233 Q 151 237 130 226" fill="#CCCCCC"/><path d="M 204 214 Q 214 212 216 207 Q 217 206 226 177 Q 227 170 230 172 Q 232 174 232 177 Q 234 195 240 208" fill="#CCCCCC"/><path d="M 69 62 Q 68 70 68 74 Q 68 158 39 196 Q 32 209 27 209 Q 25 210 25 207 Q 25 205 26 204 Q 42 171 48 148 Q 49 142 50 136 Q 58 64 45 52 Q 43 48 46 46 Q 49 44 55 47 Q 61 49 65 51" fill="#0000ff" clip-path="url(#clip-mask-1)" /><path d="M 94 57 Q 94 56 94 56 Q 76 60 69 62 L 65 51 Q 108 46 147 37 Q 164 32 171 35 Q 184 42 187 46 L 162 49 Q 159 45 153 47 Q 130 49 111 53" fill="#0000ff" clip-path="url(#clip-mask-2)" /><path d="M 187 46 Q 189 50 186 56 Q 181 66 184 162 Q 184 180 179 193 Q 175 201 171 202 Q 168 202 162 196 L 162 170 Q 165 168 166 160 Q 169 109 166 64 Q 164 50 162 49" fill="#0000ff" clip-path="url(#clip-mask-3)" /><path d="M 162 196 Q 156 186 142 172 Q 139 170 139 168 Q 139 165 144 167 Q 159 172 162 170" fill="#0000ff" clip-path="url(#clip-mask-4)" /><path d="M 101 107 Q 88 109 81 105 Q 75 102 83 100 Q 93 99 102 97 L 118 92 Q 130 87 137 88 Q 144 90 146 92 Q 147 94 145 96 Q 144 97 136 99 Q 126 101 117 103" fill="#0000ff" clip-path="url(#clip-mask-5)" /><path d="M 95 147 L 92 148 Q 82 150 75 145 Q 69 141 76 140 Q 83 139 91 138 Q 96 137 101 136 L 115 132 Q 116 132 117 132 Q 137 124 144 129 Q 150 132 149 134 Q 148 137 145 137 Q 130 139 115 143 L 101 146" fill="#0000ff" clip-path="url(#clip-mask-6)" /><path d="M 101 136 Q 101 122 101 107 L 102 97 Q 102 71 100 66 Q 99 60 94 57 L 111 53 Q 116 56 120 60 Q 126 63 123 69 Q 120 74 118 92 L 117 103 Q 116 114 115 126 Q 115 130 115 132 L 115 143 Q 114 182 117 192 Q 120 207 134 213 L 130 226 Q 121 223 115 216 Q 101 202 101 146" fill="#0000ff" clip-path="url(#clip-mask-7)" /><path d="M 134 213 Q 142 217 159 218 Q 187 219 204 214 L 240 208 Q 244 216 240 220 Q 234 226 218 231 Q 213 232 207 233 Q 151 237 130 226" fill="#0000ff" clip-path="url(#clip-mask-8)" /><path d="M 204 214 Q 214 212 216 207 Q 217 206 226 177 Q 227 170 230 172 Q 232 174 232 177 Q 234 195 240 208" fill="#0000ff" clip-path="url(#clip-mask-9)" /><rect x="25" y="44" width="44" height="166" id="rect-1" fill="transparent" stroke="#000000"><animate attributeName="y" from="-122" to="44" dur="0.615" begin="0; animate9.end + 1s" id="animate1" fill="freeze"/></rect><rect x="65" y="32" width="122" height="30" id="rect-2" fill="transparent" stroke="#000000"><set attributeName="x" to="-57" begin="0; animate9.end + 1s" /><animate attributeName="x" from="-57" to="65" dur="0.452" begin="animate1.end + 0.5" id="animate2" fill="freeze"/></rect><rect x="162" y="46" width="27" height="156" id="rect-3" fill="transparent" stroke="#000000"><set attributeName="y" to="-110" begin="0; animate9.end + 1s" /><animate attributeName="y" from="-110" to="46" dur="0.578" begin="animate2.end" id="animate3" fill="freeze"/></rect><rect x="139" y="165" width="23" height="31" id="rect-4" fill="transparent" stroke="#000000"><set attributeName="x" to="162" begin="0; animate9.end + 1s" /><animate attributeName="x" from="162" to="139" dur="0.085" begin="animate3.end" id="animate4" fill="freeze"/></rect><rect x="75" y="87" width="72" height="22" id="rect-5" fill="transparent" stroke="#000000"><set attributeName="x" to="3" begin="0; animate9.end + 1s" /><animate attributeName="x" from="3" to="75" dur="0.267" begin="animate4.end + 0.5" id="animate5" fill="freeze"/></rect><rect x="69" y="124" width="81" height="26" id="rect-6" fill="transparent" stroke="#000000"><set attributeName="x" to="-12" begin="0; animate9.end + 1s" /><animate attributeName="x" from="-12" to="69" dur="0.300" begin="animate5.end + 0.5" id="animate6" fill="freeze"/></rect><rect x="94" y="53" width="40" height="173" id="rect-7" fill="transparent" stroke="#000000"><set attributeName="y" to="-120" begin="0; animate9.end + 1s" /><animate attributeName="y" from="-120" to="53" dur="0.641" begin="animate6.end + 0.5" id="animate7" fill="freeze"/></rect><rect x="130" y="208" width="114" height="29" id="rect-8" fill="transparent" stroke="#000000"><set attributeName="x" to="16" begin="0; animate9.end + 1s" /><animate attributeName="x" from="16" to="130" dur="0.422" begin="animate7.end" id="animate8" fill="freeze"/></rect><rect x="204" y="170" width="36" height="44" id="rect-9" fill="transparent" stroke="#000000"><set attributeName="y" to="214" begin="0; animate9.end + 1s" /><animate attributeName="y" from="214" to="170" dur="0.163" begin="animate8.end" id="animate9" fill="freeze"/></rect></svg>