<svg xmlns="http://www.w3.org/2000/svg" xmlns:xlink="http://www.w3.org/1999/xlink" width="270" height="270"><defs><clipPath id="clip-mask-1"><use xlink:href="#rect-1" /></clipPath><clipPath id="clip-mask-2"><use xlink:href="#rect-2" /></clipPath><clipPath id="clip-mask-3"><use xlink:href="#rect-3" /></clipPath><clipPath id="clip-mask-4"><use xlink:href="#rect-4" /></clipPath><clipPath id="clip-mask-5"><use xlink:href="#rect-5" /></clipPath><clipPath id="clip-mask-6"><use xlink:href="#rect-6" /></clipPath><clipPath id="clip-mask-7"><use xlink:href="#rect-7" /></clipPath><clipPath id="clip-mask-8"><use xlink:href="#rect-8" /></clipPath><clipPath id="clip-mask-9"><use xlink:href="#rect-9" /></clipPath><clipPath id="clip-mask-10"><use xlink:href="#rect-10" /></clipPath></defs><path d="M 0 0 L 270 270 M 270 0 L 0 270 M 135 0 L 135 270 M 0 135 L 270 135" stroke="#CCCCCC" /><path d="M 72 110 L 65 111 Q 60 111 61 108 Q 62 106 65 103 Q 80 85 91 68 Q 103 50 110 31 Q 113 26 109 19 Q 107 13 113 12 Q 118 12 126 18 Q 134 25 135 28 Q 136 32 133 35 Q 128 39 122 49 Q 110 66 100 79 L 95 84" fill="#CCCCCC"/><path d="M 100 79 Q 146 75 189 65 Q 199 62 221 77 L 191 82 Q 188 78 179 79 Q 129 85 118 88 Q 108 91 96 84 Q 96 84 95 84" fill="#CCCCCC"/><path d="M 221 77 Q 228 82 222 88 Q 217 95 216 115 Q 210 193 204 217 Q 197 236 189 246 Q 182 254 178 255 L 177 223 Q 181 221 184 214 Q 187 204 194 170 Q 201 95 191 82" fill="#CCCCCC"/><path d="M 178 255 Q 173 257 168 248 Q 163 238 152 225 Q 147 221 148 219 Q 150 218 154 219 Q 176 224 177 223" fill="#CCCCCC"/><path d="M 72 202 L 68 201 L 68 201 Q 58 194 57 179 Q 53 143 43 129 Q 41 127 43 125 Q 44 124 46 124 Q 51 125 57 129 L 63 137 Q 65 150 69 177 Q 71 183 72 187 L 72 196" fill="#CCCCCC"/><path d="M 57 129 Q 115 118 122 118 Q 140 114 144 116 Q 156 123 160 127 L 134 130 Q 129 126 101 130 L 90 132 Q 74 134 63 137" fill="#CCCCCC"/><path d="M 160 127 Q 163 131 160 135 Q 153 141 151 150 Q 144 189 141 196 Q 136 202 134 200 Q 129 198 123 190 L 128 183 Q 132 179 137 138 Q 138 132 134 130" fill="#CCCCCC"/><path d="M 92 163 Q 79 164 78 163 Q 73 160 77 159 Q 84 157 92 155 L 105 151 Q 112 149 116 150 Q 122 151 124 155 Q 127 157 121 158 Q 113 159 104 161" fill="#CCCCCC"/><path d="M 92 184 Q 92 171 92 163 L 92 155 Q 92 136 91 133 Q 91 132 90 132 L 101 130 Q 107 136 106 140 Q 105 144 105 151 L 104 161 Q 103 170 103 181" fill="#CCCCCC"/><path d="M 72 187 Q 81 186 92 184 L 103 181 Q 107 180 112 179 Q 121 177 128 183 L 123 190 Q 90 192 75 195 Q 74 196 72 196" fill="#CCCCCC"/><path d="M 72 110 L 65 111 Q 60 111 61 108 Q 62 106 65 103 Q 80 85 91 68 Q 103 50 110 31 Q 113 26 109 19 Q 107 13 113 12 Q 118 12 126 18 Q 134 25 135 28 Q 136 32 133 35 Q 128 39 122 49 Q 110 66 100 79 L 95 84" fill="#000080" clip-path="url(#clip-mask-1)" /><path d="M 100 79 Q 146 75 189 65 Q 199 62 221 77 L 191 82 Q 188 78 179 79 Q 129 85 118 88 Q 108 91 96 84 Q 96 84 95 84" fill="#000080" clip-path="url(#clip-mask-2)" /><path d="M 221 77 Q 228 82 222 88 Q 217 95 216 115 Q 210 193 204 217 Q 197 236 189 246 Q 182 254 178 255 L 177 223 Q 181 221 184 214 Q 187 204 194 170 Q 201 95 191 82" fill="#000080" clip-path="url(#clip-mask-3)" /><path d="M 178 255 Q 173 257 168 248 Q 163 238 152 225 Q 147 221 148 219 Q 150 218 154 219 Q 176 224 177 223" fill="#000080" clip-path="url(#clip-mask-4)" /><path d="M 72 202 L 68 201 L 68 201 Q 58 194 57 179 Q 53 143 43 129 Q 41 127 43 125 Q 44 124 46 124 Q 51 125 57 129 L 63 137 Q 65 150 69 177 Q 71 183 72 187 L 72 196" fill="#0000ff" clip-path="url(#clip-mask-5)" /><path d="M 57 129 Q 115 118 122 118 Q 140 114 144 116 Q 156 123 160 127 L 134 130 Q 129 126 101 130 L 90 132 Q 74 134 63 137" fill="#0000ff" clip-path="url(#clip-mask-6)" /><path d="M 160 127 Q 163 131 160 135 Q 153 141 151 150 Q 144 189 141 196 Q 136 202 134 200 Q 129 198 123 190 L 128 183 Q 132 179 137 138 Q 138 132 134 130" fill="#0000ff" clip-path="url(#clip-mask-7)" /><path d="M 92 163 Q 79 164 78 163 Q 73 160 77 159 Q 84 157 92 155 L 105 151 Q 112 149 116 150 Q 122 151 124 155 Q 127 157 121 158 Q 113 159 104 161" fill="#0000ff" clip-path="url(#clip-mask-8)" /><path d="M 92 184 Q 92 171 92 163 L 92 155 Q 92 136 91 133 Q 91 132 90 132 L 101 130 Q 107 136 106 140 Q 105 144 105 151 L 104 161 Q 103 170 103 181" fill="#0000ff" clip-path="url(#clip-mask-9)" /><path d="M 72 187 Q 81 186 92 184 L 103 181 Q 107 180 112 179 Q 121 177 128 183 L 123 190 Q 90 192 75 195 Q 74 196 72 196" fill="#0000ff" clip-path="url(#clip-mask-10)" /><rect x="60" y="12" width="76" height="99" id="rect-1" fill="transparent" stroke="#000000"><animate attributeName="y" from="-87" to="12" dur="0.367" begin="0; animate10.end + 1s" id="animate1" fill="freeze"/></rect><rect x="95" y="62" width="126" height="29" id="rect-2" fill="transparent" stroke="#000000"><set attributeName="x" to="-31" begin="0; animate10.end + 1s" /><animate attributeName="x" from="-31" to="95" dur="0.467" begin="animate1.end + 0.5" id="animate2" fill="freeze"/></rect><rect x="177" y="77" width="51" height="178" id="rect-3" fill="transparent" stroke="#000000"><set attributeName="y" to="-101" begin="0; animate10.end + 1s" /><animate attributeName="y" from="-101" to="77" dur="0.659" begin="animate2.end" id="animate3" fill="freeze"/></rect><rect x="147" y="218" width="31" height="39" id="rect-4" fill="transparent" stroke="#000000"><set attributeName="x" to="178" begin="0; animate10.end + 1s" /><animate attributeName="x" from="178" to="147" dur="0.115" begin="animate3.end" id="animate4" fill="freeze"/></rect><rect x="41" y="124" width="31" height="78" id="rect-5" fill="transparent" stroke="#000000"><set attributeName="y" to="46" begin="0; animate10.end + 1s" /><animate attributeName="y" from="46" to="124" dur="0.289" begin="animate4.end + 0.5" id="animate5" fill="freeze"/></rect><rect x="57" y="114" width="103" height="23" id="rect-6" fill="transparent" stroke="#000000"><set attributeName="x" to="-46" begin="0; animate10.end + 1s" /><animate attributeName="x" from="-46" to="57" dur="0.381" begin="animate5.end + 0.5" id="animate6" fill="freeze"/></rect><rect x="123" y="127" width="40" height="75" id="rect-7" fill="transparent" stroke="#000000"><set attributeName="y" to="52" begin="0; animate10.end + 1s" /><animate attributeName="y" from="52" to="127" dur="0.278" begin="animate6.end" id="animate7" fill="freeze"/></rect><rect x="73" y="149" width="54" height="15" id="rect-8" fill="transparent" stroke="#000000"><set attributeName="x" to="19" begin="0; animate10.end + 1s" /><animate attributeName="x" from="19" to="73" dur="0.200" begin="animate7.end + 0.5" id="animate8" fill="freeze"/></rect><rect x="90" y="130" width="17" height="54" id="rect-9" fill="transparent" stroke="#000000"><set attributeName="y" to="76" begin="0; animate10.end + 1s" /><animate attributeName="y" from="76" to="130" dur="0.200" begin="animate8.end + 0.5" id="animate9" fill="freeze"/></rect><rect x="72" y="177" width="56" height="19" id="rect-10" fill="transparent" stroke="#000000"><set attributeName="x" to="16" begin="0; animate10.end + 1s" /><animate attributeName="x" from="16" to="72" dur="0.207" begin="animate9.end + 0.5" id="animate10" fill="freeze"/></rect></svg>