<svg xmlns="http://www.w3.org/2000/svg" xmlns:xlink="http://www.w3.org/1999/xlink" width="270" height="270"><defs><clipPath id="clip-mask-1"><use xlink:href="#rect-1" /></clipPath><clipPath id="clip-mask-2"><use xlink:href="#rect-2" /></clipPath><clipPath id="clip-mask-3"><use xlink:href="#rect-3" /></clipPath><clipPath id="clip-mask-4"><use xlink:href="#rect-4" /></clipPath><clipPath id="clip-mask-5"><use xlink:href="#rect-5" /></clipPath><clipPath id="clip-mask-6"><use xlink:href="#rect-6" /></clipPath><clipPath id="clip-mask-7"><use xlink:href="#rect-7" /></clipPath><clipPath id="clip-mask-8"><use xlink:href="#rect-8" /></clipPath><clipPath id="clip-mask-9"><use xlink:href="#rect-9" /></clipPath><clipPath id="clip-mask-10"><use xlink:href="#rect-10" /></clipPath><clipPath id="clip-mask-11"><use xlink:href="#rect-11" /></clipPath><clipPath id="clip-mask-12"><use xlink:href="#rect-12" /></clipPath><clipPath id="clip-mask-13"><use xlink:href="#rect-13" /></clipPath><clipPath id="clip-mask-14"><use xlink:href="#rect-14" /></clipPath><clipPath id="clip-mask-15"><use xlink:href="#rect-15" /></clipPath><clipPath id="clip-mask-16"><use xlink:href="#rect-16" /></clipPath><clipPath id="clip-mask-17"><use xlink:href="#rect-17" /></clipPath><clipPath id="clip-mask-18"><use xlink:href="#rect-18" /></clipPath></defs><path d="M 0 0 L 270 270 M 270 0 L 0 270 M 135 0 L 135 270 M 0 135 L 270 135" stroke="#CCCCCC" /><path d="M 74 67 L 81 62 Q 98 51 99 44 Q 99 41 101 41 Q 105 41 109 45 Q 114 50 116 54 Q 117 59 112 60 Q 102 62 66 78 L 66 73" fill="#CCCCCC"/><path d="M 66 78 Q 66 86 68 90 L 62 99 Q 55 92 58 57 Q 59 45 55 37 Q 53 33 56 32 Q 60 32 70 40 Q 74 44 71 50 Q 68 57 67 72 Q 66 73 66 73" fill="#CCCCCC"/><path d="M 68 90 Q 68 93 72 94 Q 77 96 88 95 Q 108 94 111 90 L 128 95 Q 130 101 125 104 Q 119 107 105 108 Q 88 109 79 107 Q 68 105 62 99" fill="#CCCCCC"/><path d="M 111 90 Q 114 88 119 69 Q 119 65 121 66 Q 123 68 123 71 Q 125 86 128 95" fill="#CCCCCC"/><path d="M 60 135 Q 52 145 40 153 Q 36 155 33 155 Q 30 156 32 153 Q 33 150 35 149 Q 55 129 53 114 Q 53 111 56 111 Q 61 110 69 118 Q 72 121 70 124 Q 67 127 65 130" fill="#CCCCCC"/><path d="M 69 138 Q 64 137 60 135 L 65 130 Q 72 129 78 127 Q 85 126 91 123 Q 98 121 104 122 Q 110 123 112 126 Q 113 127 112 129 Q 96 133 81 137" fill="#CCCCCC"/><path d="M 57 178 L 39 184 Q 30 188 20 181 Q 17 179 18 176 Q 18 174 21 174 Q 44 171 72 165 L 85 162 Q 108 156 116 159 Q 121 161 120 164 Q 120 166 116 166 Q 98 169 83 172 L 70 175" fill="#CCCCCC"/><path d="M 72 165 Q 73 146 71 140 Q 70 138 69 138 L 81 137 Q 82 137 89 142 Q 92 145 90 148 Q 89 149 85 162 L 83 172 Q 78 200 57 217 Q 39 231 28 230 Q 25 229 28 228 Q 32 225 35 223 Q 60 207 70 175" fill="#CCCCCC"/><path d="M 85 188 L 85 186 Q 85 183 86 183 Q 89 182 102 188 Q 108 191 109 195 Q 110 201 109 204 Q 107 206 106 206 Q 103 206 100 203 Q 95 197 90 192" fill="#CCCCCC"/><path d="M 195 57 Q 192 56 189 57 Q 162 67 157 69 Q 148 74 140 69 Q 135 66 133 63 Q 131 58 137 58 Q 152 58 158 57 Q 181 51 196 45 Q 202 43 207 46 Q 223 56 224 60" fill="#CCCCCC"/><path d="M 187 75 L 197 63 Q 199 59 195 57 L 224 60 Q 226 64 221 66 Q 213 68 180 93 L 176 90 L 176 90" fill="#CCCCCC"/><path d="M 180 93 Q 183 95 183 98 Q 184 105 183 107 Q 182 110 180 110 Q 177 109 174 107 Q 168 100 162 94 Q 157 89 156 87 Q 156 84 157 84 Q 161 83 176 90" fill="#CCCCCC"/><path d="M 164 127 Q 163 126 163 127 Q 152 130 141 134 Q 133 137 125 131 Q 119 127 127 126 Q 137 124 147 122 Q 191 111 197 110 Q 221 103 228 108 Q 244 119 244 122 L 217 119 Q 217 116 212 116 Q 205 115 174 124" fill="#CCCCCC"/><path d="M 244 122 Q 244 124 236 127 Q 226 130 214 139 Q 211 141 209 141 Q 208 140 209 136 Q 217 120 217 119" fill="#CCCCCC"/><path d="M 167 197 Q 167 146 167 139 Q 167 131 164 127 L 174 124 Q 177 126 180 129 Q 181 129 181 130 Q 181 130 180 159 L 180 167 Q 179 183 178 202" fill="#CCCCCC"/><path d="M 180 159 Q 188 153 202 153 Q 208 154 211 158 Q 214 162 208 163 Q 196 164 181 167 Q 180 167 180 167" fill="#CCCCCC"/><path d="M 130 209 L 119 219 Q 100 236 93 235 Q 92 235 93 233 Q 137 189 131 154 Q 130 150 133 149 Q 135 149 141 151 Q 148 154 150 157 Q 152 159 150 161 Q 148 164 143 181 L 141 186" fill="#CCCCCC"/><path d="M 143 181 Q 148 184 158 191 Q 163 194 167 197 L 178 202 Q 194 210 196 210 Q 203 213 248 224 Q 252 225 252 227 Q 252 228 247 229 Q 229 235 211 236 Q 202 237 195 232 Q 167 211 141 186" fill="#CCCCCC"/><path d="M 74 67 L 81 62 Q 98 51 99 44 Q 99 41 101 41 Q 105 41 109 45 Q 114 50 116 54 Q 117 59 112 60 Q 102 62 66 78 L 66 73" fill="#000080" clip-path="url(#clip-mask-1)" /><path d="M 66 78 Q 66 86 68 90 L 62 99 Q 55 92 58 57 Q 59 45 55 37 Q 53 33 56 32 Q 60 32 70 40 Q 74 44 71 50 Q 68 57 67 72 Q 66 73 66 73" fill="#000080" clip-path="url(#clip-mask-2)" /><path d="M 68 90 Q 68 93 72 94 Q 77 96 88 95 Q 108 94 111 90 L 128 95 Q 130 101 125 104 Q 119 107 105 108 Q 88 109 79 107 Q 68 105 62 99" fill="#000080" clip-path="url(#clip-mask-3)" /><path d="M 111 90 Q 114 88 119 69 Q 119 65 121 66 Q 123 68 123 71 Q 125 86 128 95" fill="#000080" clip-path="url(#clip-mask-4)" /><path d="M 60 135 Q 52 145 40 153 Q 36 155 33 155 Q 30 156 32 153 Q 33 150 35 149 Q 55 129 53 114 Q 53 111 56 111 Q 61 110 69 118 Q 72 121 70 124 Q 67 127 65 130" fill="#000080" clip-path="url(#clip-mask-5)" /><path d="M 69 138 Q 64 137 60 135 L 65 130 Q 72 129 78 127 Q 85 126 91 123 Q 98 121 104 122 Q 110 123 112 126 Q 113 127 112 129 Q 96 133 81 137" fill="#000080" clip-path="url(#clip-mask-6)" /><path d="M 57 178 L 39 184 Q 30 188 20 181 Q 17 179 18 176 Q 18 174 21 174 Q 44 171 72 165 L 85 162 Q 108 156 116 159 Q 121 161 120 164 Q 120 166 116 166 Q 98 169 83 172 L 70 175" fill="#000080" clip-path="url(#clip-mask-7)" /><path d="M 72 165 Q 73 146 71 140 Q 70 138 69 138 L 81 137 Q 82 137 89 142 Q 92 145 90 148 Q 89 149 85 162 L 83 172 Q 78 200 57 217 Q 39 231 28 230 Q 25 229 28 228 Q 32 225 35 223 Q 60 207 70 175" fill="#000080" clip-path="url(#clip-mask-8)" /><path d="M 85 188 L 85 186 Q 85 183 86 183 Q 89 182 102 188 Q 108 191 109 195 Q 110 201 109 204 Q 107 206 106 206 Q 103 206 100 203 Q 95 197 90 192" fill="#000080" clip-path="url(#clip-mask-9)" /><path d="M 195 57 Q 192 56 189 57 Q 162 67 157 69 Q 148 74 140 69 Q 135 66 133 63 Q 131 58 137 58 Q 152 58 158 57 Q 181 51 196 45 Q 202 43 207 46 Q 223 56 224 60" fill="#000080" clip-path="url(#clip-mask-10)" /><path d="M 187 75 L 197 63 Q 199 59 195 57 L 224 60 Q 226 64 221 66 Q 213 68 180 93 L 176 90 L 176 90" fill="#000080" clip-path="url(#clip-mask-11)" /><path d="M 180 93 Q 183 95 183 98 Q 184 105 183 107 Q 182 110 180 110 Q 177 109 174 107 Q 168 100 162 94 Q 157 89 156 87 Q 156 84 157 84 Q 161 83 176 90" fill="#000080" clip-path="url(#clip-mask-12)" /><path d="M 164 127 Q 163 126 163 127 Q 152 130 141 134 Q 133 137 125 131 Q 119 127 127 126 Q 137 124 147 122 Q 191 111 197 110 Q 221 103 228 108 Q 244 119 244 122 L 217 119 Q 217 116 212 116 Q 205 115 174 124" fill="#0000ff" clip-path="url(#clip-mask-13)" /><path d="M 244 122 Q 244 124 236 127 Q 226 130 214 139 Q 211 141 209 141 Q 208 140 209 136 Q 217 120 217 119" fill="#0000ff" clip-path="url(#clip-mask-14)" /><path d="M 167 197 Q 167 146 167 139 Q 167 131 164 127 L 174 124 Q 177 126 180 129 Q 181 129 181 130 Q 181 130 180 159 L 180 167 Q 179 183 178 202" fill="#0000ff" clip-path="url(#clip-mask-15)" /><path d="M 180 159 Q 188 153 202 153 Q 208 154 211 158 Q 214 162 208 163 Q 196 164 181 167 Q 180 167 180 167" fill="#0000ff" clip-path="url(#clip-mask-16)" /><path d="M 130 209 L 119 219 Q 100 236 93 235 Q 92 235 93 233 Q 137 189 131 154 Q 130 150 133 149 Q 135 149 141 151 Q 148 154 150 157 Q 152 159 150 161 Q 148 164 143 181 L 141 186" fill="#0000ff" clip-path="url(#clip-mask-17)" /><path d="M 143 181 Q 148 184 158 191 Q 163 194 167 197 L 178 202 Q 194 210 196 210 Q 203 213 248 224 Q 252 225 252 227 Q 252 228 247 229 Q 229 235 211 236 Q 202 237 195 232 Q 167 211 141 186" fill="#0000ff" clip-path="url(#clip-mask-18)" /><rect x="66" y="41" width="51" height="37" id="rect-1" fill="transparent" stroke="#000000"><animate attributeName="x" from="117" to="66" dur="0.189" begin="0; animate18.end + 1s" id="animate1" fill="freeze"/></rect><rect x="53" y="32" width="21" height="67" id="rect-2" fill="transparent" stroke="#000000"><set attributeName="y" to="-35" begin="0; animate18.end + 1s" /><animate attributeName="y" from="-35" to="32" dur="0.248" begin="animate1.end + 0.5" id="animate2" fill="freeze"/></rect><rect x="62" y="90" width="68" height="19" id="rect-3" fill="transparent" stroke="#000000"><set attributeName="x" to="-6" begin="0; animate18.end + 1s" /><animate attributeName="x" from="-6" to="62" dur="0.252" begin="animate2.end" id="animate3" fill="freeze"/></rect><rect x="111" y="65" width="17" height="30" id="rect-4" fill="transparent" stroke="#000000"><set attributeName="y" to="95" begin="0; animate18.end + 1s" /><animate attributeName="y" from="95" to="65" dur="0.111" begin="animate3.end" id="animate4" fill="freeze"/></rect><rect x="30" y="110" width="42" height="46" id="rect-5" fill="transparent" stroke="#000000"><set attributeName="y" to="64" begin="0; animate18.end + 1s" /><animate attributeName="y" from="64" to="110" dur="0.170" begin="animate4.end + 0.5" id="animate5" fill="freeze"/></rect><rect x="60" y="121" width="53" height="17" id="rect-6" fill="transparent" stroke="#000000"><set attributeName="x" to="7" begin="0; animate18.end + 1s" /><animate attributeName="x" from="7" to="60" dur="0.196" begin="animate5.end + 0.5" id="animate6" fill="freeze"/></rect><rect x="17" y="156" width="104" height="32" id="rect-7" fill="transparent" stroke="#000000"><set attributeName="x" to="-87" begin="0; animate18.end + 1s" /><animate attributeName="x" from="-87" to="17" dur="0.385" begin="animate6.end + 0.5" id="animate7" fill="freeze"/></rect><rect x="25" y="137" width="67" height="94" id="rect-8" fill="transparent" stroke="#000000"><set attributeName="y" to="43" begin="0; animate18.end + 1s" /><animate attributeName="y" from="43" to="137" dur="0.348" begin="animate7.end + 0.5" id="animate8" fill="freeze"/></rect><rect x="85" y="182" width="25" height="24" id="rect-9" fill="transparent" stroke="#000000"><set attributeName="x" to="60" begin="0; animate18.end + 1s" /><animate attributeName="x" from="60" to="85" dur="0.093" begin="animate8.end + 0.5" id="animate9" fill="freeze"/></rect><rect x="131" y="43" width="93" height="31" id="rect-10" fill="transparent" stroke="#000000"><set attributeName="x" to="38" begin="0; animate18.end + 1s" /><animate attributeName="x" from="38" to="131" dur="0.344" begin="animate9.end + 0.5" id="animate10" fill="freeze"/></rect><rect x="176" y="57" width="50" height="36" id="rect-11" fill="transparent" stroke="#000000"><set attributeName="y" to="21" begin="0; animate18.end + 1s" /><animate attributeName="y" from="21" to="57" dur="0.133" begin="animate10.end" id="animate11" fill="freeze"/></rect><rect x="156" y="83" width="28" height="27" id="rect-12" fill="transparent" stroke="#000000"><set attributeName="x" to="128" begin="0; animate18.end + 1s" /><animate attributeName="x" from="128" to="156" dur="0.104" begin="animate11.end + 0.5" id="animate12" fill="freeze"/></rect><rect x="119" y="103" width="125" height="34" id="rect-13" fill="transparent" stroke="#000000"><set attributeName="x" to="-6" begin="0; animate18.end + 1s" /><animate attributeName="x" from="-6" to="119" dur="0.463" begin="animate12.end + 0.5" id="animate13" fill="freeze"/></rect><rect x="208" y="119" width="36" height="22" id="rect-14" fill="transparent" stroke="#000000"><set attributeName="y" to="97" begin="0; animate18.end + 1s" /><animate attributeName="y" from="97" to="119" dur="0.081" begin="animate13.end" id="animate14" fill="freeze"/></rect><rect x="164" y="124" width="17" height="78" id="rect-15" fill="transparent" stroke="#000000"><set attributeName="y" to="46" begin="0; animate18.end + 1s" /><animate attributeName="y" from="46" to="124" dur="0.289" begin="animate14.end + 0.5" id="animate15" fill="freeze"/></rect><rect x="180" y="153" width="34" height="14" id="rect-16" fill="transparent" stroke="#000000"><set attributeName="x" to="146" begin="0; animate18.end + 1s" /><animate attributeName="x" from="146" to="180" dur="0.126" begin="animate15.end + 0.5" id="animate16" fill="freeze"/></rect><rect x="92" y="149" width="60" height="87" id="rect-17" fill="transparent" stroke="#000000"><set attributeName="y" to="62" begin="0; animate18.end + 1s" /><animate attributeName="y" from="62" to="149" dur="0.322" begin="animate16.end + 0.5" id="animate17" fill="freeze"/></rect><rect x="141" y="181" width="111" height="56" id="rect-18" fill="transparent" stroke="#000000"><set attributeName="x" to="30" begin="0; animate18.end + 1s" /><animate attributeName="x" from="30" to="141" dur="0.411" begin="animate17.end + 0.5" id="animate18" fill="freeze"/></rect></svg>