<svg xmlns="http://www.w3.org/2000/svg" xmlns:xlink="http://www.w3.org/1999/xlink" width="270" height="270"><defs><clipPath id="clip-mask-1"><use xlink:href="#rect-1" /></clipPath><clipPath id="clip-mask-2"><use xlink:href="#rect-2" /></clipPath><clipPath id="clip-mask-3"><use xlink:href="#rect-3" /></clipPath><clipPath id="clip-mask-4"><use xlink:href="#rect-4" /></clipPath><clipPath id="clip-mask-5"><use xlink:href="#rect-5" /></clipPath><clipPath id="clip-mask-6"><use xlink:href="#rect-6" /></clipPath><clipPath id="clip-mask-7"><use xlink:href="#rect-7" /></clipPath><clipPath id="clip-mask-8"><use xlink:href="#rect-8" /></clipPath><clipPath id="clip-mask-9"><use xlink:href="#rect-9" /></clipPath><clipPath id="clip-mask-10"><use xlink:href="#rect-10" /></clipPath><clipPath id="clip-mask-11"><use xlink:href="#rect-11" /></clipPath></defs><path d="M 0 0 L 270 270 M 270 0 L 0 270 M 135 0 L 135 270 M 0 135 L 270 135" stroke="#CCCCCC" /><path d="M 128 22 L 127 19 Q 126 15 128 14 Q 130 13 149 18 Q 157 21 159 25 Q 161 34 160 38 Q 159 42 156 42 Q 152 42 147 39 Q 142 33 136 28" fill="#CCCCCC"/><path d="M 92 64 Q 128 60 164 50 Q 193 42 199 43 Q 207 45 209 48 Q 210 51 207 53 Q 207 53 207 53 Q 203 55 124 71 Q 103 74 94 73" fill="#CCCCCC"/><path d="M 67 142 L 67 141 Q 80 75 72 61 Q 70 57 73 55 Q 79 53 92 64 L 94 73 Q 91 80 89 101 Q 83 148 64 188 Q 61 193 58 198 Q 36 233 25 235 Q 22 236 23 233 Q 24 231 25 229 Q 52 190 64 153 L 66 143" fill="#CCCCCC"/><path d="M 32 94 L 33 91 Q 32 88 34 88 Q 36 88 40 89 Q 59 98 60 109 Q 60 114 58 117 Q 55 120 52 118 Q 44 114 36 99" fill="#CCCCCC"/><path d="M 64 153 Q 38 170 33 176 Q 30 179 27 179 Q 19 175 13 172 Q 10 170 10 167 Q 10 164 13 163 Q 23 163 66 143" fill="#CCCCCC"/><path d="M 129 104 Q 124 110 119 116 L 114 122 Q 102 136 92 138 Q 86 140 90 136 Q 122 99 124 81 Q 124 77 126 77 Q 129 76 135 77 Q 142 78 143 81 Q 143 83 142 86 Q 139 89 133 98" fill="#CCCCCC"/><path d="M 166 104 Q 164 102 160 103 Q 135 107 129 104 L 133 98 Q 144 96 156 94 Q 165 92 171 90 Q 176 86 181 89 Q 196 97 196 99 Q 197 102 193 104" fill="#CCCCCC"/><path d="M 148 150 L 147 152 Q 98 197 76 197 Q 73 196 76 194 Q 111 170 129 153 Q 135 146 141 140 L 147 134 Q 156 122 163 111 Q 167 106 166 104 L 193 104 Q 184 111 179 118 Q 168 130 157 142 L 150 149" fill="#CCCCCC"/><path d="M 141 140 Q 122 125 114 122 L 119 116 Q 126 117 134 124 Q 140 129 147 134 L 157 142 Q 175 155 186 160 Q 199 166 231 173 Q 240 174 248 175 Q 257 177 258 178 Q 259 181 249 183 Q 232 188 209 190 Q 203 190 199 188 Q 172 170 150 149" fill="#CCCCCC"/><path d="M 134 184 L 133 182 Q 132 179 133 178 Q 135 177 140 178 Q 163 180 168 193 Q 169 197 168 200 Q 166 204 162 203 Q 154 201 138 188" fill="#CCCCCC"/><path d="M 128 224 L 127 221 Q 127 218 128 217 Q 134 215 158 227 Q 169 234 171 242 Q 173 249 172 253 Q 170 256 168 256 Q 164 256 161 253 Q 147 240 134 229" fill="#CCCCCC"/><path d="M 128 22 L 127 19 Q 126 15 128 14 Q 130 13 149 18 Q 157 21 159 25 Q 161 34 160 38 Q 159 42 156 42 Q 152 42 147 39 Q 142 33 136 28" fill="#0000ff" clip-path="url(#clip-mask-1)" /><path d="M 92 64 Q 128 60 164 50 Q 193 42 199 43 Q 207 45 209 48 Q 210 51 207 53 Q 207 53 207 53 Q 203 55 124 71 Q 103 74 94 73" fill="#0000ff" clip-path="url(#clip-mask-2)" /><path d="M 67 142 L 67 141 Q 80 75 72 61 Q 70 57 73 55 Q 79 53 92 64 L 94 73 Q 91 80 89 101 Q 83 148 64 188 Q 61 193 58 198 Q 36 233 25 235 Q 22 236 23 233 Q 24 231 25 229 Q 52 190 64 153 L 66 143" fill="#0000ff" clip-path="url(#clip-mask-3)" /><path d="M 32 94 L 33 91 Q 32 88 34 88 Q 36 88 40 89 Q 59 98 60 109 Q 60 114 58 117 Q 55 120 52 118 Q 44 114 36 99" fill="#0000ff" clip-path="url(#clip-mask-4)" /><path d="M 64 153 Q 38 170 33 176 Q 30 179 27 179 Q 19 175 13 172 Q 10 170 10 167 Q 10 164 13 163 Q 23 163 66 143" fill="#0000ff" clip-path="url(#clip-mask-5)" /><path d="M 129 104 Q 124 110 119 116 L 114 122 Q 102 136 92 138 Q 86 140 90 136 Q 122 99 124 81 Q 124 77 126 77 Q 129 76 135 77 Q 142 78 143 81 Q 143 83 142 86 Q 139 89 133 98" fill="#000080" clip-path="url(#clip-mask-6)" /><path d="M 166 104 Q 164 102 160 103 Q 135 107 129 104 L 133 98 Q 144 96 156 94 Q 165 92 171 90 Q 176 86 181 89 Q 196 97 196 99 Q 197 102 193 104" fill="#000080" clip-path="url(#clip-mask-7)" /><path d="M 148 150 L 147 152 Q 98 197 76 197 Q 73 196 76 194 Q 111 170 129 153 Q 135 146 141 140 L 147 134 Q 156 122 163 111 Q 167 106 166 104 L 193 104 Q 184 111 179 118 Q 168 130 157 142 L 150 149" fill="#000080" clip-path="url(#clip-mask-8)" /><path d="M 141 140 Q 122 125 114 122 L 119 116 Q 126 117 134 124 Q 140 129 147 134 L 157 142 Q 175 155 186 160 Q 199 166 231 173 Q 240 174 248 175 Q 257 177 258 178 Q 259 181 249 183 Q 232 188 209 190 Q 203 190 199 188 Q 172 170 150 149" fill="#000080" clip-path="url(#clip-mask-9)" /><path d="M 134 184 L 133 182 Q 132 179 133 178 Q 135 177 140 178 Q 163 180 168 193 Q 169 197 168 200 Q 166 204 162 203 Q 154 201 138 188" fill="#000080" clip-path="url(#clip-mask-10)" /><path d="M 128 224 L 127 221 Q 127 218 128 217 Q 134 215 158 227 Q 169 234 171 242 Q 173 249 172 253 Q 170 256 168 256 Q 164 256 161 253 Q 147 240 134 229" fill="#000080" clip-path="url(#clip-mask-11)" /><rect x="126" y="13" width="35" height="29" id="rect-1" fill="transparent" stroke="#000000"><animate attributeName="x" from="91" to="126" dur="0.130" begin="0; animate11.end + 1s" id="animate1" fill="freeze"/></rect><rect x="92" y="42" width="118" height="32" id="rect-2" fill="transparent" stroke="#000000"><set attributeName="x" to="-26" begin="0; animate11.end + 1s" /><animate attributeName="x" from="-26" to="92" dur="0.437" begin="animate1.end + 0.5" id="animate2" fill="freeze"/></rect><rect x="22" y="53" width="72" height="183" id="rect-3" fill="transparent" stroke="#000000"><set attributeName="y" to="-130" begin="0; animate11.end + 1s" /><animate attributeName="y" from="-130" to="53" dur="0.678" begin="animate2.end + 0.5" id="animate3" fill="freeze"/></rect><rect x="32" y="88" width="28" height="32" id="rect-4" fill="transparent" stroke="#000000"><set attributeName="x" to="4" begin="0; animate11.end + 1s" /><animate attributeName="x" from="4" to="32" dur="0.104" begin="animate3.end + 0.5" id="animate4" fill="freeze"/></rect><rect x="10" y="143" width="56" height="36" id="rect-5" fill="transparent" stroke="#000000"><set attributeName="x" to="-46" begin="0; animate11.end + 1s" /><animate attributeName="x" from="-46" to="10" dur="0.207" begin="animate4.end + 0.5" id="animate5" fill="freeze"/></rect><rect x="86" y="76" width="57" height="64" id="rect-6" fill="transparent" stroke="#000000"><set attributeName="y" to="12" begin="0; animate11.end + 1s" /><animate attributeName="y" from="12" to="76" dur="0.237" begin="animate5.end + 0.5" id="animate6" fill="freeze"/></rect><rect x="129" y="86" width="68" height="21" id="rect-7" fill="transparent" stroke="#000000"><set attributeName="x" to="61" begin="0; animate11.end + 1s" /><animate attributeName="x" from="61" to="129" dur="0.252" begin="animate6.end + 0.5" id="animate7" fill="freeze"/></rect><rect x="73" y="104" width="120" height="93" id="rect-8" fill="transparent" stroke="#000000"><set attributeName="y" to="11" begin="0; animate11.end + 1s" /><animate attributeName="y" from="11" to="104" dur="0.344" begin="animate7.end" id="animate8" fill="freeze"/></rect><rect x="114" y="116" width="145" height="74" id="rect-9" fill="transparent" stroke="#000000"><set attributeName="x" to="-31" begin="0; animate11.end + 1s" /><animate attributeName="x" from="-31" to="114" dur="0.537" begin="animate8.end + 0.5" id="animate9" fill="freeze"/></rect><rect x="132" y="177" width="37" height="27" id="rect-10" fill="transparent" stroke="#000000"><set attributeName="x" to="95" begin="0; animate11.end + 1s" /><animate attributeName="x" from="95" to="132" dur="0.137" begin="animate9.end + 0.5" id="animate10" fill="freeze"/></rect><rect x="127" y="215" width="46" height="41" id="rect-11" fill="transparent" stroke="#000000"><set attributeName="x" to="81" begin="0; animate11.end + 1s" /><animate attributeName="x" from="81" to="127" dur="0.170" begin="animate10.end + 0.5" id="animate11" fill="freeze"/></rect></svg>