<svg xmlns="http://www.w3.org/2000/svg" xmlns:xlink="http://www.w3.org/1999/xlink" width="270" height="270"><defs><clipPath id="clip-mask-1"><use xlink:href="#rect-1" /></clipPath><clipPath id="clip-mask-2"><use xlink:href="#rect-2" /></clipPath><clipPath id="clip-mask-3"><use xlink:href="#rect-3" /></clipPath><clipPath id="clip-mask-4"><use xlink:href="#rect-4" /></clipPath><clipPath id="clip-mask-5"><use xlink:href="#rect-5" /></clipPath><clipPath id="clip-mask-6"><use xlink:href="#rect-6" /></clipPath><clipPath id="clip-mask-7"><use xlink:href="#rect-7" /></clipPath><clipPath id="clip-mask-8"><use xlink:href="#rect-8" /></clipPath><clipPath id="clip-mask-9"><use xlink:href="#rect-9" /></clipPath><clipPath id="clip-mask-10"><use xlink:href="#rect-10" /></clipPath><clipPath id="clip-mask-11"><use xlink:href="#rect-11" /></clipPath><clipPath id="clip-mask-12"><use xlink:href="#rect-12" /></clipPath><clipPath id="clip-mask-13"><use xlink:href="#rect-13" /></clipPath><clipPath id="clip-mask-14"><use xlink:href="#rect-14" /></clipPath><clipPath id="clip-mask-15"><use xlink:href="#rect-15" /></clipPath><clipPath id="clip-mask-16"><use xlink:href="#rect-16" /></clipPath><clipPath id="clip-mask-17"><use xlink:href="#rect-17" /></clipPath><clipPath id="clip-mask-18"><use xlink:href="#rect-18" /></clipPath></defs><path d="M 0 0 L 270 270 M 270 0 L 0 270 M 135 0 L 135 270 M 0 135 L 270 135" stroke="#CCCCCC" /><path d="M 127 25 L 126 23 Q 126 19 127 18 Q 129 17 133 18 Q 155 21 158 28 Q 161 35 160 39 Q 159 43 156 44 Q 152 44 148 41 Q 141 35 135 30" fill="#CCCCCC"/><path d="M 86 63 Q 87 64 87 64 Q 88 64 88 64 Q 118 62 154 52 Q 183 43 190 45 Q 197 47 199 50 Q 201 52 198 54 Q 196 57 180 60 Q 110 73 110 73 Q 104 74 90 72" fill="#CCCCCC"/><path d="M 74 135 L 74 135 Q 78 78 69 65 Q 65 59 70 58 Q 73 58 86 63 L 90 72 Q 89 75 89 79 Q 89 114 85 150 Q 79 188 58 212 Q 38 235 27 235 Q 24 235 25 234 Q 26 230 37 220 Q 64 193 73 147 L 74 136" fill="#CCCCCC"/><path d="M 35 108 L 35 104 Q 34 101 36 101 Q 37 100 39 101 Q 47 101 59 109 Q 63 113 64 120 Q 64 124 62 127 Q 59 131 55 130 Q 48 125 39 112" fill="#CCCCCC"/><path d="M 73 147 Q 48 172 41 182 Q 39 185 36 185 Q 27 184 20 182 Q 17 180 17 177 Q 16 174 19 173 Q 31 169 74 136" fill="#CCCCCC"/><path d="M 115 111 L 115 129 Q 113 169 101 200 Q 99 204 97 208 Q 81 238 73 240 Q 71 240 72 238 Q 72 237 73 235 Q 89 206 95 186 Q 95 183 96 181 Q 110 113 98 99 Q 96 96 98 94 Q 101 93 106 95 Q 110 97 113 99 L 117 106" fill="#CCCCCC"/><path d="M 113 99 Q 175 89 190 79 Q 195 74 200 77 Q 214 84 218 88 L 193 93 Q 190 91 187 92 Q 119 106 117 106" fill="#CCCCCC"/><path d="M 218 88 Q 222 91 218 95 Q 208 106 207 117 Q 199 200 227 222 L 227 242 Q 187 219 195 102 Q 195 97 193 93" fill="#CCCCCC"/><path d="M 227 222 L 251 242 Q 253 247 250 249 Q 245 252 235 247 Q 230 245 227 242" fill="#CCCCCC"/><path d="M 227 222 Q 233 227 236 220 Q 239 212 244 196 Q 245 191 247 193 Q 248 195 248 198 Q 248 221 251 242" fill="#CCCCCC"/><path d="M 143 130 Q 126 136 123 136 Q 122 136 123 134 Q 156 116 156 108 Q 157 106 158 105 Q 165 104 177 112 Q 180 114 179 116 Q 178 118 175 118 Q 161 122 152 127" fill="#CCCCCC"/><path d="M 134 189 Q 134 190 133 191 Q 132 194 129 190 Q 126 187 125 182 Q 121 167 116 158 Q 115 155 116 153 Q 116 153 119 153 Q 125 154 127 155 L 130 161 Q 131 167 133 181" fill="#CCCCCC"/><path d="M 147 157 Q 140 158 134 160 Q 132 161 130 161 L 127 155 Q 137 152 147 151 L 157 148 Q 173 142 176 143 Q 186 147 189 150 L 170 154 Q 169 152 165 153 Q 161 154 157 155" fill="#CCCCCC"/><path d="M 189 150 Q 193 153 189 157 Q 183 162 179 174 L 170 172 Q 172 156 170 154" fill="#CCCCCC"/><path d="M 147 186 Q 135 189 134 189 L 133 181 Q 140 180 147 178 L 157 175 Q 166 172 170 172 L 179 174 Q 183 177 183 178 Q 183 180 181 180 Q 166 183 156 184" fill="#CCCCCC"/><path d="M 147 210 Q 147 197 147 186 L 147 178 Q 147 165 147 157 L 147 151 Q 146 138 143 130 L 152 127 Q 158 132 157 137 Q 157 142 157 148 L 157 155 Q 157 165 157 175 L 156 184 Q 156 195 156 208" fill="#CCCCCC"/><path d="M 168 212 L 167 213 Q 132 227 124 232 Q 121 234 119 233 Q 111 228 106 224 Q 104 222 105 219 Q 105 217 108 217 Q 115 217 119 216 Q 134 213 147 210 L 156 208 Q 164 206 171 204 L 175 210" fill="#CCCCCC"/><path d="M 171 204 L 171 204 Q 168 198 168 197 Q 168 194 169 194 Q 171 193 173 195 Q 196 212 196 221 Q 195 227 194 229 Q 192 231 190 231 Q 187 230 186 227 Q 180 218 175 210" fill="#CCCCCC"/><path d="M 127 25 L 126 23 Q 126 19 127 18 Q 129 17 133 18 Q 155 21 158 28 Q 161 35 160 39 Q 159 43 156 44 Q 152 44 148 41 Q 141 35 135 30" fill="#0000ff" clip-path="url(#clip-mask-1)" /><path d="M 86 63 Q 87 64 87 64 Q 88 64 88 64 Q 118 62 154 52 Q 183 43 190 45 Q 197 47 199 50 Q 201 52 198 54 Q 196 57 180 60 Q 110 73 110 73 Q 104 74 90 72" fill="#0000ff" clip-path="url(#clip-mask-2)" /><path d="M 74 135 L 74 135 Q 78 78 69 65 Q 65 59 70 58 Q 73 58 86 63 L 90 72 Q 89 75 89 79 Q 89 114 85 150 Q 79 188 58 212 Q 38 235 27 235 Q 24 235 25 234 Q 26 230 37 220 Q 64 193 73 147 L 74 136" fill="#0000ff" clip-path="url(#clip-mask-3)" /><path d="M 35 108 L 35 104 Q 34 101 36 101 Q 37 100 39 101 Q 47 101 59 109 Q 63 113 64 120 Q 64 124 62 127 Q 59 131 55 130 Q 48 125 39 112" fill="#0000ff" clip-path="url(#clip-mask-4)" /><path d="M 73 147 Q 48 172 41 182 Q 39 185 36 185 Q 27 184 20 182 Q 17 180 17 177 Q 16 174 19 173 Q 31 169 74 136" fill="#0000ff" clip-path="url(#clip-mask-5)" /><path d="M 115 111 L 115 129 Q 113 169 101 200 Q 99 204 97 208 Q 81 238 73 240 Q 71 240 72 238 Q 72 237 73 235 Q 89 206 95 186 Q 95 183 96 181 Q 110 113 98 99 Q 96 96 98 94 Q 101 93 106 95 Q 110 97 113 99 L 117 106" fill="#000080" clip-path="url(#clip-mask-6)" /><path d="M 113 99 Q 175 89 190 79 Q 195 74 200 77 Q 214 84 218 88 L 193 93 Q 190 91 187 92 Q 119 106 117 106" fill="#000080" clip-path="url(#clip-mask-7)" /><path d="M 218 88 Q 222 91 218 95 Q 208 106 207 117 Q 199 200 227 222 L 227 242 Q 187 219 195 102 Q 195 97 193 93" fill="#000080" clip-path="url(#clip-mask-8)" /><path d="M 227 222 L 251 242 Q 253 247 250 249 Q 245 252 235 247 Q 230 245 227 242" fill="#000080" clip-path="url(#clip-mask-9)" /><path d="M 227 222 Q 233 227 236 220 Q 239 212 244 196 Q 245 191 247 193 Q 248 195 248 198 Q 248 221 251 242" fill="#000080" clip-path="url(#clip-mask-10)" /><path d="M 143 130 Q 126 136 123 136 Q 122 136 123 134 Q 156 116 156 108 Q 157 106 158 105 Q 165 104 177 112 Q 180 114 179 116 Q 178 118 175 118 Q 161 122 152 127" fill="#000080" clip-path="url(#clip-mask-11)" /><path d="M 134 189 Q 134 190 133 191 Q 132 194 129 190 Q 126 187 125 182 Q 121 167 116 158 Q 115 155 116 153 Q 116 153 119 153 Q 125 154 127 155 L 130 161 Q 131 167 133 181" fill="#000080" clip-path="url(#clip-mask-12)" /><path d="M 147 157 Q 140 158 134 160 Q 132 161 130 161 L 127 155 Q 137 152 147 151 L 157 148 Q 173 142 176 143 Q 186 147 189 150 L 170 154 Q 169 152 165 153 Q 161 154 157 155" fill="#000080" clip-path="url(#clip-mask-13)" /><path d="M 189 150 Q 193 153 189 157 Q 183 162 179 174 L 170 172 Q 172 156 170 154" fill="#000080" clip-path="url(#clip-mask-14)" /><path d="M 147 186 Q 135 189 134 189 L 133 181 Q 140 180 147 178 L 157 175 Q 166 172 170 172 L 179 174 Q 183 177 183 178 Q 183 180 181 180 Q 166 183 156 184" fill="#000080" clip-path="url(#clip-mask-15)" /><path d="M 147 210 Q 147 197 147 186 L 147 178 Q 147 165 147 157 L 147 151 Q 146 138 143 130 L 152 127 Q 158 132 157 137 Q 157 142 157 148 L 157 155 Q 157 165 157 175 L 156 184 Q 156 195 156 208" fill="#000080" clip-path="url(#clip-mask-16)" /><path d="M 168 212 L 167 213 Q 132 227 124 232 Q 121 234 119 233 Q 111 228 106 224 Q 104 222 105 219 Q 105 217 108 217 Q 115 217 119 216 Q 134 213 147 210 L 156 208 Q 164 206 171 204 L 175 210" fill="#000080" clip-path="url(#clip-mask-17)" /><path d="M 171 204 L 171 204 Q 168 198 168 197 Q 168 194 169 194 Q 171 193 173 195 Q 196 212 196 221 Q 195 227 194 229 Q 192 231 190 231 Q 187 230 186 227 Q 180 218 175 210" fill="#000080" clip-path="url(#clip-mask-18)" /><rect x="126" y="17" width="35" height="27" id="rect-1" fill="transparent" stroke="#000000"><animate attributeName="x" from="91" to="126" dur="0.130" begin="0; animate18.end + 1s" id="animate1" fill="freeze"/></rect><rect x="86" y="43" width="115" height="31" id="rect-2" fill="transparent" stroke="#000000"><set attributeName="x" to="-29" begin="0; animate18.end + 1s" /><animate attributeName="x" from="-29" to="86" dur="0.426" begin="animate1.end + 0.5" id="animate2" fill="freeze"/></rect><rect x="24" y="58" width="66" height="177" id="rect-3" fill="transparent" stroke="#000000"><set attributeName="y" to="-119" begin="0; animate18.end + 1s" /><animate attributeName="y" from="-119" to="58" dur="0.656" begin="animate2.end + 0.5" id="animate3" fill="freeze"/></rect><rect x="34" y="100" width="30" height="31" id="rect-4" fill="transparent" stroke="#000000"><set attributeName="x" to="4" begin="0; animate18.end + 1s" /><animate attributeName="x" from="4" to="34" dur="0.111" begin="animate3.end + 0.5" id="animate4" fill="freeze"/></rect><rect x="16" y="136" width="58" height="49" id="rect-5" fill="transparent" stroke="#000000"><set attributeName="x" to="-42" begin="0; animate18.end + 1s" /><animate attributeName="x" from="-42" to="16" dur="0.215" begin="animate4.end + 0.5" id="animate5" fill="freeze"/></rect><rect x="71" y="93" width="46" height="147" id="rect-6" fill="transparent" stroke="#000000"><set attributeName="y" to="-54" begin="0; animate18.end + 1s" /><animate attributeName="y" from="-54" to="93" dur="0.544" begin="animate5.end + 0.5" id="animate6" fill="freeze"/></rect><rect x="113" y="74" width="105" height="32" id="rect-7" fill="transparent" stroke="#000000"><set attributeName="x" to="8" begin="0; animate18.end + 1s" /><animate attributeName="x" from="8" to="113" dur="0.389" begin="animate6.end + 0.5" id="animate7" fill="freeze"/></rect><rect x="187" y="88" width="40" height="154" id="rect-8" fill="transparent" stroke="#000000"><set attributeName="y" to="-66" begin="0; animate18.end + 1s" /><animate attributeName="y" from="-66" to="88" dur="0.570" begin="animate7.end" id="animate8" fill="freeze"/></rect><rect x="227" y="222" width="26" height="30" id="rect-9" fill="transparent" stroke="#000000"><set attributeName="x" to="201" begin="0; animate18.end + 1s" /><animate attributeName="x" from="201" to="227" dur="0.096" begin="animate8.end" id="animate9" fill="freeze"/></rect><rect x="227" y="191" width="24" height="51" id="rect-10" fill="transparent" stroke="#000000"><set attributeName="y" to="242" begin="0; animate18.end + 1s" /><animate attributeName="y" from="242" to="191" dur="0.189" begin="animate9.end" id="animate10" fill="freeze"/></rect><rect x="122" y="104" width="58" height="32" id="rect-11" fill="transparent" stroke="#000000"><set attributeName="x" to="180" begin="0; animate18.end + 1s" /><animate attributeName="x" from="180" to="122" dur="0.215" begin="animate10.end + 0.5" id="animate11" fill="freeze"/></rect><rect x="115" y="153" width="19" height="41" id="rect-12" fill="transparent" stroke="#000000"><set attributeName="y" to="112" begin="0; animate18.end + 1s" /><animate attributeName="y" from="112" to="153" dur="0.152" begin="animate11.end + 0.5" id="animate12" fill="freeze"/></rect><rect x="127" y="142" width="62" height="19" id="rect-13" fill="transparent" stroke="#000000"><set attributeName="x" to="65" begin="0; animate18.end + 1s" /><animate attributeName="x" from="65" to="127" dur="0.230" begin="animate12.end + 0.5" id="animate13" fill="freeze"/></rect><rect x="170" y="150" width="23" height="24" id="rect-14" fill="transparent" stroke="#000000"><set attributeName="y" to="126" begin="0; animate18.end + 1s" /><animate attributeName="y" from="126" to="150" dur="0.089" begin="animate13.end" id="animate14" fill="freeze"/></rect><rect x="133" y="172" width="50" height="17" id="rect-15" fill="transparent" stroke="#000000"><set attributeName="x" to="83" begin="0; animate18.end + 1s" /><animate attributeName="x" from="83" to="133" dur="0.185" begin="animate14.end + 0.5" id="animate15" fill="freeze"/></rect><rect x="143" y="127" width="15" height="83" id="rect-16" fill="transparent" stroke="#000000"><set attributeName="y" to="44" begin="0; animate18.end + 1s" /><animate attributeName="y" from="44" to="127" dur="0.307" begin="animate15.end + 0.5" id="animate16" fill="freeze"/></rect><rect x="104" y="204" width="71" height="30" id="rect-17" fill="transparent" stroke="#000000"><set attributeName="x" to="33" begin="0; animate18.end + 1s" /><animate attributeName="x" from="33" to="104" dur="0.263" begin="animate16.end + 0.5" id="animate17" fill="freeze"/></rect><rect x="168" y="193" width="28" height="38" id="rect-18" fill="transparent" stroke="#000000"><set attributeName="y" to="155" begin="0; animate18.end + 1s" /><animate attributeName="y" from="155" to="193" dur="0.141" begin="animate17.end + 0.5" id="animate18" fill="freeze"/></rect></svg>