<svg xmlns="http://www.w3.org/2000/svg" xmlns:xlink="http://www.w3.org/1999/xlink" width="270" height="270"><defs><clipPath id="clip-mask-1"><use xlink:href="#rect-1" /></clipPath><clipPath id="clip-mask-2"><use xlink:href="#rect-2" /></clipPath><clipPath id="clip-mask-3"><use xlink:href="#rect-3" /></clipPath><clipPath id="clip-mask-4"><use xlink:href="#rect-4" /></clipPath><clipPath id="clip-mask-5"><use xlink:href="#rect-5" /></clipPath><clipPath id="clip-mask-6"><use xlink:href="#rect-6" /></clipPath><clipPath id="clip-mask-7"><use xlink:href="#rect-7" /></clipPath><clipPath id="clip-mask-8"><use xlink:href="#rect-8" /></clipPath><clipPath id="clip-mask-9"><use xlink:href="#rect-9" /></clipPath><clipPath id="clip-mask-10"><use xlink:href="#rect-10" /></clipPath></defs><path d="M 0 0 L 270 270 M 270 0 L 0 270 M 135 0 L 135 270 M 0 135 L 270 135" stroke="#CCCCCC" /><path d="M 98 71 Q 99 70 99 70 Q 125 30 123 22 Q 121 19 125 18 Q 129 16 136 20 Q 144 23 148 27 Q 152 32 146 36 Q 138 40 123 56 Q 117 61 106 70" fill="#CCCCCC"/><path d="M 101 138 L 100 140 Q 99 145 94 139 Q 88 133 86 124 Q 79 95 69 78 Q 66 73 68 71 Q 69 70 72 70 Q 83 71 86 73 L 90 84 Q 91 90 94 102 L 96 108 Q 97 113 99 120 Q 100 123 100 125 L 101 134" fill="#CCCCCC"/><path d="M 180 72 Q 176 69 166 70 Q 119 76 92 83 Q 90 83 90 84 L 86 73 Q 92 72 98 71 L 106 70 Q 125 65 169 60 Q 185 56 191 59 Q 202 68 206 74" fill="#CCCCCC"/><path d="M 164 118 Q 169 116 181 80 Q 183 75 180 72 L 206 74 Q 209 78 205 81 Q 197 88 194 97 Q 181 129 176 135 Q 171 140 168 137 Q 164 135 160 127" fill="#CCCCCC"/><path d="M 94 102 Q 110 98 128 93 Q 140 90 146 91 Q 153 92 156 96 Q 158 100 152 101 Q 131 103 103 108 Q 98 109 96 108" fill="#CCCCCC"/><path d="M 100 125 Q 122 123 149 116 Q 157 114 161 117 Q 163 118 164 118 L 160 127 Q 123 130 105 134 Q 103 134 101 134" fill="#CCCCCC"/><path d="M 124 167 Q 118 167 113 168 Q 92 171 83 164 Q 77 159 86 159 Q 127 158 164 148 Q 171 146 179 148 Q 186 150 187 153 Q 189 155 186 157 Q 184 159 169 161 Q 154 163 139 165" fill="#CCCCCC"/><path d="M 123 201 Q 110 203 99 205 Q 89 205 84 200 Q 79 196 85 195 Q 96 194 105 194 Q 114 193 124 192 L 139 189 Q 149 186 159 184 Q 168 183 173 187 Q 178 190 178 193 Q 176 195 173 195 Q 140 199 138 199" fill="#CCCCCC"/><path d="M 123 201 L 124 192 L 124 167 L 139 165 L 139 189 L 138 199 L 138 226 L 123 227" fill="#CCCCCC"/><path d="M 138 226 Q 202 220 214 217 Q 220 215 224 217 Q 235 222 243 229 Q 246 232 244 236 Q 242 238 236 237 Q 199 232 170 234 Q 81 238 48 250 Q 39 253 28 244 Q 23 240 24 237 Q 24 234 28 234 Q 47 235 73 232 Q 94 229 123 227" fill="#CCCCCC"/><path d="M 98 71 Q 99 70 99 70 Q 125 30 123 22 Q 121 19 125 18 Q 129 16 136 20 Q 144 23 148 27 Q 152 32 146 36 Q 138 40 123 56 Q 117 61 106 70" fill="#0000ff" clip-path="url(#clip-mask-1)" /><path d="M 101 138 L 100 140 Q 99 145 94 139 Q 88 133 86 124 Q 79 95 69 78 Q 66 73 68 71 Q 69 70 72 70 Q 83 71 86 73 L 90 84 Q 91 90 94 102 L 96 108 Q 97 113 99 120 Q 100 123 100 125 L 101 134" fill="#0000ff" clip-path="url(#clip-mask-2)" /><path d="M 180 72 Q 176 69 166 70 Q 119 76 92 83 Q 90 83 90 84 L 86 73 Q 92 72 98 71 L 106 70 Q 125 65 169 60 Q 185 56 191 59 Q 202 68 206 74" fill="#0000ff" clip-path="url(#clip-mask-3)" /><path d="M 164 118 Q 169 116 181 80 Q 183 75 180 72 L 206 74 Q 209 78 205 81 Q 197 88 194 97 Q 181 129 176 135 Q 171 140 168 137 Q 164 135 160 127" fill="#0000ff" clip-path="url(#clip-mask-4)" /><path d="M 94 102 Q 110 98 128 93 Q 140 90 146 91 Q 153 92 156 96 Q 158 100 152 101 Q 131 103 103 108 Q 98 109 96 108" fill="#0000ff" clip-path="url(#clip-mask-5)" /><path d="M 100 125 Q 122 123 149 116 Q 157 114 161 117 Q 163 118 164 118 L 160 127 Q 123 130 105 134 Q 103 134 101 134" fill="#0000ff" clip-path="url(#clip-mask-6)" /><path d="M 124 167 Q 118 167 113 168 Q 92 171 83 164 Q 77 159 86 159 Q 127 158 164 148 Q 171 146 179 148 Q 186 150 187 153 Q 189 155 186 157 Q 184 159 169 161 Q 154 163 139 165" fill="#000080" clip-path="url(#clip-mask-7)" /><path d="M 123 201 Q 110 203 99 205 Q 89 205 84 200 Q 79 196 85 195 Q 96 194 105 194 Q 114 193 124 192 L 139 189 Q 149 186 159 184 Q 168 183 173 187 Q 178 190 178 193 Q 176 195 173 195 Q 140 199 138 199" fill="#000080" clip-path="url(#clip-mask-8)" /><path d="M 123 201 L 124 192 L 124 167 L 139 165 L 139 189 L 138 199 L 138 226 L 123 227" fill="#000080" clip-path="url(#clip-mask-9)" /><path d="M 138 226 Q 202 220 214 217 Q 220 215 224 217 Q 235 222 243 229 Q 246 232 244 236 Q 242 238 236 237 Q 199 232 170 234 Q 81 238 48 250 Q 39 253 28 244 Q 23 240 24 237 Q 24 234 28 234 Q 47 235 73 232 Q 94 229 123 227" fill="#000080" clip-path="url(#clip-mask-10)" /><rect x="98" y="16" width="54" height="55" id="rect-1" fill="transparent" stroke="#000000"><animate attributeName="y" from="-39" to="16" dur="0.204" begin="0; animate10.end + 1s" id="animate1" fill="freeze"/></rect><rect x="66" y="70" width="35" height="75" id="rect-2" fill="transparent" stroke="#000000"><set attributeName="y" to="-5" begin="0; animate10.end + 1s" /><animate attributeName="y" from="-5" to="70" dur="0.278" begin="animate1.end + 0.5" id="animate2" fill="freeze"/></rect><rect x="86" y="56" width="120" height="28" id="rect-3" fill="transparent" stroke="#000000"><set attributeName="x" to="-34" begin="0; animate10.end + 1s" /><animate attributeName="x" from="-34" to="86" dur="0.444" begin="animate2.end + 0.5" id="animate3" fill="freeze"/></rect><rect x="160" y="72" width="49" height="68" id="rect-4" fill="transparent" stroke="#000000"><set attributeName="y" to="4" begin="0; animate10.end + 1s" /><animate attributeName="y" from="4" to="72" dur="0.252" begin="animate3.end" id="animate4" fill="freeze"/></rect><rect x="94" y="90" width="64" height="19" id="rect-5" fill="transparent" stroke="#000000"><set attributeName="x" to="30" begin="0; animate10.end + 1s" /><animate attributeName="x" from="30" to="94" dur="0.237" begin="animate4.end + 0.5" id="animate5" fill="freeze"/></rect><rect x="100" y="114" width="64" height="20" id="rect-6" fill="transparent" stroke="#000000"><set attributeName="x" to="36" begin="0; animate10.end + 1s" /><animate attributeName="x" from="36" to="100" dur="0.237" begin="animate5.end + 0.5" id="animate6" fill="freeze"/></rect><rect x="77" y="146" width="112" height="25" id="rect-7" fill="transparent" stroke="#000000"><set attributeName="x" to="-35" begin="0; animate10.end + 1s" /><animate attributeName="x" from="-35" to="77" dur="0.415" begin="animate6.end + 0.5" id="animate7" fill="freeze"/></rect><rect x="79" y="183" width="99" height="22" id="rect-8" fill="transparent" stroke="#000000"><set attributeName="x" to="-20" begin="0; animate10.end + 1s" /><animate attributeName="x" from="-20" to="79" dur="0.367" begin="animate7.end + 0.5" id="animate8" fill="freeze"/></rect><rect x="123" y="165" width="16" height="62" id="rect-9" fill="transparent" stroke="#000000"><set attributeName="y" to="103" begin="0; animate10.end + 1s" /><animate attributeName="y" from="103" to="165" dur="0.230" begin="animate8.end + 0.5" id="animate9" fill="freeze"/></rect><rect x="23" y="215" width="223" height="38" id="rect-10" fill="transparent" stroke="#000000"><set attributeName="x" to="-200" begin="0; animate10.end + 1s" /><animate attributeName="x" from="-200" to="23" dur="0.826" begin="animate9.end + 0.5" id="animate10" fill="freeze"/></rect></svg>