<svg xmlns="http://www.w3.org/2000/svg" xmlns:xlink="http://www.w3.org/1999/xlink" width="270" height="270"><defs><clipPath id="clip-mask-1"><use xlink:href="#rect-1" /></clipPath><clipPath id="clip-mask-2"><use xlink:href="#rect-2" /></clipPath><clipPath id="clip-mask-3"><use xlink:href="#rect-3" /></clipPath><clipPath id="clip-mask-4"><use xlink:href="#rect-4" /></clipPath><clipPath id="clip-mask-5"><use xlink:href="#rect-5" /></clipPath><clipPath id="clip-mask-6"><use xlink:href="#rect-6" /></clipPath><clipPath id="clip-mask-7"><use xlink:href="#rect-7" /></clipPath><clipPath id="clip-mask-8"><use xlink:href="#rect-8" /></clipPath><clipPath id="clip-mask-9"><use xlink:href="#rect-9" /></clipPath><clipPath id="clip-mask-10"><use xlink:href="#rect-10" /></clipPath><clipPath id="clip-mask-11"><use xlink:href="#rect-11" /></clipPath></defs><path d="M 0 0 L 270 270 M 270 0 L 0 270 M 135 0 L 135 270 M 0 135 L 270 135" stroke="#CCCCCC" /><path d="M 121 21 L 120 18 Q 119 15 120 14 Q 123 12 128 13 Q 144 15 149 18 Q 155 20 158 27 Q 159 31 158 35 Q 156 40 152 40 Q 142 37 126 25" fill="#CCCCCC"/><path d="M 68 77 L 52 82 Q 39 85 30 77 Q 25 72 32 71 Q 149 58 208 46 Q 224 43 239 54 Q 244 58 242 61 Q 240 64 235 64 Q 141 64 99 72 L 85 75" fill="#CCCCCC"/><path d="M 99 72 Q 103 74 104 76 Q 106 79 104 81 Q 102 85 99 95 L 91 115 Q 88 118 84 116 Q 75 109 81 103 Q 87 98 88 92 Q 89 80 86 75 Q 86 75 85 75" fill="#CCCCCC"/><path d="M 99 95 Q 96 103 105 100 Q 125 96 172 89 Q 189 84 203 96 Q 208 99 207 102 Q 204 105 199 104 Q 193 103 188 103 Q 124 100 91 115" fill="#CCCCCC"/><path d="M 99 237 L 99 238 Q 99 244 96 248 Q 93 251 91 248 Q 89 245 87 242 Q 83 234 88 207 Q 92 153 85 140 Q 84 137 84 135 Q 82 132 84 130 Q 87 130 90 131 Q 96 133 98 135 L 102 145 Q 102 146 102 147 Q 101 148 101 162 L 101 169 Q 100 178 100 191 L 100 198 Q 100 213 100 227 L 100 236" fill="#CCCCCC"/><path d="M 170 135 Q 166 132 158 134 Q 103 145 102 145 L 98 135 Q 140 130 164 119 Q 169 117 174 119 Q 189 126 194 132" fill="#CCCCCC"/><path d="M 173 222 Q 174 217 174 200 Q 176 141 170 135 L 194 132 Q 197 135 194 138 Q 189 145 190 153 Q 191 198 193 223 Q 194 236 189 247 Q 184 256 180 257 Q 177 257 174 252" fill="#CCCCCC"/><path d="M 168 225 Q 172 226 173 222 L 174 252 Q 168 242 160 231" fill="#CCCCCC"/><path d="M 101 162 Q 111 161 119 159 Q 127 158 134 155 Q 141 153 147 154 Q 154 156 156 158 Q 156 160 154 162 Q 153 163 124 169 Q 110 171 101 169" fill="#CCCCCC"/><path d="M 100 191 Q 111 190 119 189 Q 128 187 136 185 Q 143 182 150 184 Q 156 186 157 188 Q 158 190 156 192 Q 155 193 148 194 Q 136 196 124 198 Q 109 200 100 198" fill="#CCCCCC"/><path d="M 100 227 Q 123 224 151 220 Q 158 218 163 221 Q 166 223 168 225 L 160 231 Q 121 232 102 235 Q 101 236 100 236" fill="#CCCCCC"/><path d="M 121 21 L 120 18 Q 119 15 120 14 Q 123 12 128 13 Q 144 15 149 18 Q 155 20 158 27 Q 159 31 158 35 Q 156 40 152 40 Q 142 37 126 25" fill="#000080" clip-path="url(#clip-mask-1)" /><path d="M 68 77 L 52 82 Q 39 85 30 77 Q 25 72 32 71 Q 149 58 208 46 Q 224 43 239 54 Q 244 58 242 61 Q 240 64 235 64 Q 141 64 99 72 L 85 75" fill="#000080" clip-path="url(#clip-mask-2)" /><path d="M 99 72 Q 103 74 104 76 Q 106 79 104 81 Q 102 85 99 95 L 91 115 Q 88 118 84 116 Q 75 109 81 103 Q 87 98 88 92 Q 89 80 86 75 Q 86 75 85 75" fill="#000080" clip-path="url(#clip-mask-3)" /><path d="M 99 95 Q 96 103 105 100 Q 125 96 172 89 Q 189 84 203 96 Q 208 99 207 102 Q 204 105 199 104 Q 193 103 188 103 Q 124 100 91 115" fill="#000080" clip-path="url(#clip-mask-4)" /><path d="M 99 237 L 99 238 Q 99 244 96 248 Q 93 251 91 248 Q 89 245 87 242 Q 83 234 88 207 Q 92 153 85 140 Q 84 137 84 135 Q 82 132 84 130 Q 87 130 90 131 Q 96 133 98 135 L 102 145 Q 102 146 102 147 Q 101 148 101 162 L 101 169 Q 100 178 100 191 L 100 198 Q 100 213 100 227 L 100 236" fill="#0000ff" clip-path="url(#clip-mask-5)" /><path d="M 170 135 Q 166 132 158 134 Q 103 145 102 145 L 98 135 Q 140 130 164 119 Q 169 117 174 119 Q 189 126 194 132" fill="#0000ff" clip-path="url(#clip-mask-6)" /><path d="M 173 222 Q 174 217 174 200 Q 176 141 170 135 L 194 132 Q 197 135 194 138 Q 189 145 190 153 Q 191 198 193 223 Q 194 236 189 247 Q 184 256 180 257 Q 177 257 174 252" fill="#0000ff" clip-path="url(#clip-mask-7)" /><path d="M 168 225 Q 172 226 173 222 L 174 252 Q 168 242 160 231" fill="#0000ff" clip-path="url(#clip-mask-8)" /><path d="M 101 162 Q 111 161 119 159 Q 127 158 134 155 Q 141 153 147 154 Q 154 156 156 158 Q 156 160 154 162 Q 153 163 124 169 Q 110 171 101 169" fill="#0000ff" clip-path="url(#clip-mask-9)" /><path d="M 100 191 Q 111 190 119 189 Q 128 187 136 185 Q 143 182 150 184 Q 156 186 157 188 Q 158 190 156 192 Q 155 193 148 194 Q 136 196 124 198 Q 109 200 100 198" fill="#0000ff" clip-path="url(#clip-mask-10)" /><path d="M 100 227 Q 123 224 151 220 Q 158 218 163 221 Q 166 223 168 225 L 160 231 Q 121 232 102 235 Q 101 236 100 236" fill="#0000ff" clip-path="url(#clip-mask-11)" /><rect x="119" y="12" width="40" height="28" id="rect-1" fill="transparent" stroke="#000000"><animate attributeName="x" from="79" to="119" dur="0.148" begin="0; animate11.end + 1s" id="animate1" fill="freeze"/></rect><rect x="25" y="43" width="219" height="42" id="rect-2" fill="transparent" stroke="#000000"><set attributeName="x" to="-194" begin="0; animate11.end + 1s" /><animate attributeName="x" from="-194" to="25" dur="0.811" begin="animate1.end + 0.5" id="animate2" fill="freeze"/></rect><rect x="75" y="72" width="31" height="46" id="rect-3" fill="transparent" stroke="#000000"><set attributeName="y" to="26" begin="0; animate11.end + 1s" /><animate attributeName="y" from="26" to="72" dur="0.170" begin="animate2.end + 0.5" id="animate3" fill="freeze"/></rect><rect x="91" y="84" width="117" height="31" id="rect-4" fill="transparent" stroke="#000000"><set attributeName="x" to="-26" begin="0; animate11.end + 1s" /><animate attributeName="x" from="-26" to="91" dur="0.433" begin="animate3.end" id="animate4" fill="freeze"/></rect><rect x="82" y="130" width="20" height="121" id="rect-5" fill="transparent" stroke="#000000"><set attributeName="y" to="9" begin="0; animate11.end + 1s" /><animate attributeName="y" from="9" to="130" dur="0.448" begin="animate4.end + 0.5" id="animate5" fill="freeze"/></rect><rect x="98" y="117" width="96" height="28" id="rect-6" fill="transparent" stroke="#000000"><set attributeName="x" to="2" begin="0; animate11.end + 1s" /><animate attributeName="x" from="2" to="98" dur="0.356" begin="animate5.end + 0.5" id="animate6" fill="freeze"/></rect><rect x="170" y="132" width="27" height="125" id="rect-7" fill="transparent" stroke="#000000"><set attributeName="y" to="7" begin="0; animate11.end + 1s" /><animate attributeName="y" from="7" to="132" dur="0.463" begin="animate6.end" id="animate7" fill="freeze"/></rect><rect x="160" y="222" width="14" height="30" id="rect-8" fill="transparent" stroke="#000000"><set attributeName="x" to="174" begin="0; animate11.end + 1s" /><animate attributeName="x" from="174" to="160" dur="0.052" begin="animate7.end" id="animate8" fill="freeze"/></rect><rect x="101" y="153" width="55" height="18" id="rect-9" fill="transparent" stroke="#000000"><set attributeName="x" to="46" begin="0; animate11.end + 1s" /><animate attributeName="x" from="46" to="101" dur="0.204" begin="animate8.end + 0.5" id="animate9" fill="freeze"/></rect><rect x="100" y="182" width="58" height="18" id="rect-10" fill="transparent" stroke="#000000"><set attributeName="x" to="42" begin="0; animate11.end + 1s" /><animate attributeName="x" from="42" to="100" dur="0.215" begin="animate9.end + 0.5" id="animate10" fill="freeze"/></rect><rect x="100" y="218" width="68" height="18" id="rect-11" fill="transparent" stroke="#000000"><set attributeName="x" to="32" begin="0; animate11.end + 1s" /><animate attributeName="x" from="32" to="100" dur="0.252" begin="animate10.end + 0.5" id="animate11" fill="freeze"/></rect></svg>