<svg xmlns="http://www.w3.org/2000/svg" xmlns:xlink="http://www.w3.org/1999/xlink" width="270" height="270"><defs><clipPath id="clip-mask-1"><use xlink:href="#rect-1" /></clipPath><clipPath id="clip-mask-2"><use xlink:href="#rect-2" /></clipPath><clipPath id="clip-mask-3"><use xlink:href="#rect-3" /></clipPath><clipPath id="clip-mask-4"><use xlink:href="#rect-4" /></clipPath><clipPath id="clip-mask-5"><use xlink:href="#rect-5" /></clipPath><clipPath id="clip-mask-6"><use xlink:href="#rect-6" /></clipPath><clipPath id="clip-mask-7"><use xlink:href="#rect-7" /></clipPath><clipPath id="clip-mask-8"><use xlink:href="#rect-8" /></clipPath><clipPath id="clip-mask-9"><use xlink:href="#rect-9" /></clipPath><clipPath id="clip-mask-10"><use xlink:href="#rect-10" /></clipPath><clipPath id="clip-mask-11"><use xlink:href="#rect-11" /></clipPath></defs><path d="M 0 0 L 270 270 M 270 0 L 0 270 M 135 0 L 135 270 M 0 135 L 270 135" stroke="#CCCCCC" /><path d="M 126 62 Q 114 64 103 65 Q 81 68 70 61 Q 63 55 73 55 Q 102 54 127 50 L 142 47 Q 160 43 177 39 Q 186 36 194 39 Q 202 41 204 45 Q 205 47 203 49 Q 199 52 140 60" fill="#CCCCCC"/><path d="M 124 88 Q 125 74 126 62 L 127 50 Q 127 41 127 32 Q 127 28 124 22 Q 123 19 124 17 Q 126 15 130 16 Q 136 18 144 23 Q 148 27 147 30 Q 142 44 142 47 L 140 60 Q 137 73 135 85" fill="#CCCCCC"/><path d="M 92 185 Q 91 139 91 120 Q 89 99 85 90 Q 84 87 87 86 Q 89 85 92 86 Q 95 87 99 90 L 106 99 Q 105 108 105 118 L 105 122 L 105 122 Q 104 131 104 141 L 104 146 Q 104 154 104 163 L 104 169 Q 104 176 104 184" fill="#CCCCCC"/><path d="M 161 92 Q 160 89 154 90 Q 141 92 106 99 L 99 90 Q 112 89 124 88 L 135 85 Q 149 82 158 79 Q 164 76 168 79 Q 181 87 183 90" fill="#CCCCCC"/><path d="M 161 179 Q 164 96 161 92 L 183 90 Q 187 95 183 99 Q 177 106 175 177" fill="#CCCCCC"/><path d="M 105 118 Q 116 115 129 111 Q 139 108 145 109 Q 151 111 153 114 Q 155 117 150 118 Q 133 119 112 123 Q 107 124 105 122" fill="#CCCCCC"/><path d="M 104 141 Q 138 132 144 133 Q 150 135 152 138 Q 154 141 148 142 Q 132 144 111 146 Q 107 147 104 146" fill="#CCCCCC"/><path d="M 104 163 Q 116 160 131 156 Q 141 154 146 155 Q 152 157 154 160 Q 156 163 151 164 Q 133 166 109 169 Q 106 169 104 169" fill="#CCCCCC"/><path d="M 99 195 L 73 200 Q 54 203 49 205 Q 44 207 41 206 Q 33 203 29 199 Q 24 195 24 192 Q 24 189 28 189 Q 56 189 75 187 Q 82 185 92 185 L 104 184 Q 114 183 126 182 Q 138 181 161 179 L 175 177 Q 194 175 213 171 Q 219 169 223 171 Q 235 176 242 184 Q 245 187 243 191 Q 242 193 235 192 Q 198 187 160 191 Q 146 192 131 193" fill="#CCCCCC"/><path d="M 99 204 L 101 204 Q 105 203 112 208 Q 119 211 119 215 Q 119 218 116 220 Q 112 223 103 229 Q 70 254 51 253 Q 43 252 49 249 Q 92 223 98 207" fill="#CCCCCC"/><path d="M 155 208 L 155 204 Q 156 200 158 202 Q 166 205 180 211 Q 201 222 203 234 Q 207 247 203 251 Q 200 253 198 253 Q 194 252 189 245 Q 172 225 158 211" fill="#CCCCCC"/><path d="M 126 62 Q 114 64 103 65 Q 81 68 70 61 Q 63 55 73 55 Q 102 54 127 50 L 142 47 Q 160 43 177 39 Q 186 36 194 39 Q 202 41 204 45 Q 205 47 203 49 Q 199 52 140 60" fill="#000080" clip-path="url(#clip-mask-1)" /><path d="M 124 88 Q 125 74 126 62 L 127 50 Q 127 41 127 32 Q 127 28 124 22 Q 123 19 124 17 Q 126 15 130 16 Q 136 18 144 23 Q 148 27 147 30 Q 142 44 142 47 L 140 60 Q 137 73 135 85" fill="#000080" clip-path="url(#clip-mask-2)" /><path d="M 92 185 Q 91 139 91 120 Q 89 99 85 90 Q 84 87 87 86 Q 89 85 92 86 Q 95 87 99 90 L 106 99 Q 105 108 105 118 L 105 122 L 105 122 Q 104 131 104 141 L 104 146 Q 104 154 104 163 L 104 169 Q 104 176 104 184" fill="#0000ff" clip-path="url(#clip-mask-3)" /><path d="M 161 92 Q 160 89 154 90 Q 141 92 106 99 L 99 90 Q 112 89 124 88 L 135 85 Q 149 82 158 79 Q 164 76 168 79 Q 181 87 183 90" fill="#0000ff" clip-path="url(#clip-mask-4)" /><path d="M 161 179 Q 164 96 161 92 L 183 90 Q 187 95 183 99 Q 177 106 175 177" fill="#0000ff" clip-path="url(#clip-mask-5)" /><path d="M 105 118 Q 116 115 129 111 Q 139 108 145 109 Q 151 111 153 114 Q 155 117 150 118 Q 133 119 112 123 Q 107 124 105 122" fill="#0000ff" clip-path="url(#clip-mask-6)" /><path d="M 104 141 Q 138 132 144 133 Q 150 135 152 138 Q 154 141 148 142 Q 132 144 111 146 Q 107 147 104 146" fill="#0000ff" clip-path="url(#clip-mask-7)" /><path d="M 104 163 Q 116 160 131 156 Q 141 154 146 155 Q 152 157 154 160 Q 156 163 151 164 Q 133 166 109 169 Q 106 169 104 169" fill="#0000ff" clip-path="url(#clip-mask-8)" /><path d="M 99 195 L 73 200 Q 54 203 49 205 Q 44 207 41 206 Q 33 203 29 199 Q 24 195 24 192 Q 24 189 28 189 Q 56 189 75 187 Q 82 185 92 185 L 104 184 Q 114 183 126 182 Q 138 181 161 179 L 175 177 Q 194 175 213 171 Q 219 169 223 171 Q 235 176 242 184 Q 245 187 243 191 Q 242 193 235 192 Q 198 187 160 191 Q 146 192 131 193" fill="#000080" clip-path="url(#clip-mask-9)" /><path d="M 99 204 L 101 204 Q 105 203 112 208 Q 119 211 119 215 Q 119 218 116 220 Q 112 223 103 229 Q 70 254 51 253 Q 43 252 49 249 Q 92 223 98 207" fill="#000080" clip-path="url(#clip-mask-10)" /><path d="M 155 208 L 155 204 Q 156 200 158 202 Q 166 205 180 211 Q 201 222 203 234 Q 207 247 203 251 Q 200 253 198 253 Q 194 252 189 245 Q 172 225 158 211" fill="#000080" clip-path="url(#clip-mask-11)" /><rect x="63" y="36" width="142" height="32" id="rect-1" fill="transparent" stroke="#000000"><animate attributeName="x" from="-79" to="63" dur="0.526" begin="0; animate11.end + 1s" id="animate1" fill="freeze"/></rect><rect x="123" y="15" width="25" height="73" id="rect-2" fill="transparent" stroke="#000000"><set attributeName="y" to="-58" begin="0; animate11.end + 1s" /><animate attributeName="y" from="-58" to="15" dur="0.270" begin="animate1.end + 0.5" id="animate2" fill="freeze"/></rect><rect x="84" y="85" width="22" height="100" id="rect-3" fill="transparent" stroke="#000000"><set attributeName="y" to="-15" begin="0; animate11.end + 1s" /><animate attributeName="y" from="-15" to="85" dur="0.370" begin="animate2.end + 0.5" id="animate3" fill="freeze"/></rect><rect x="99" y="76" width="84" height="23" id="rect-4" fill="transparent" stroke="#000000"><set attributeName="x" to="15" begin="0; animate11.end + 1s" /><animate attributeName="x" from="15" to="99" dur="0.311" begin="animate3.end + 0.5" id="animate4" fill="freeze"/></rect><rect x="161" y="90" width="26" height="89" id="rect-5" fill="transparent" stroke="#000000"><set attributeName="y" to="1" begin="0; animate11.end + 1s" /><animate attributeName="y" from="1" to="90" dur="0.330" begin="animate4.end" id="animate5" fill="freeze"/></rect><rect x="105" y="108" width="50" height="16" id="rect-6" fill="transparent" stroke="#000000"><set attributeName="x" to="55" begin="0; animate11.end + 1s" /><animate attributeName="x" from="55" to="105" dur="0.185" begin="animate5.end + 0.5" id="animate6" fill="freeze"/></rect><rect x="104" y="132" width="50" height="15" id="rect-7" fill="transparent" stroke="#000000"><set attributeName="x" to="54" begin="0; animate11.end + 1s" /><animate attributeName="x" from="54" to="104" dur="0.185" begin="animate6.end + 0.5" id="animate7" fill="freeze"/></rect><rect x="104" y="154" width="52" height="15" id="rect-8" fill="transparent" stroke="#000000"><set attributeName="x" to="52" begin="0; animate11.end + 1s" /><animate attributeName="x" from="52" to="104" dur="0.193" begin="animate7.end + 0.5" id="animate8" fill="freeze"/></rect><rect x="24" y="169" width="221" height="38" id="rect-9" fill="transparent" stroke="#000000"><set attributeName="x" to="-197" begin="0; animate11.end + 1s" /><animate attributeName="x" from="-197" to="24" dur="0.819" begin="animate8.end + 0.5" id="animate9" fill="freeze"/></rect><rect x="43" y="203" width="76" height="51" id="rect-10" fill="transparent" stroke="#000000"><set attributeName="y" to="152" begin="0; animate11.end + 1s" /><animate attributeName="y" from="152" to="203" dur="0.189" begin="animate9.end + 0.5" id="animate10" fill="freeze"/></rect><rect x="155" y="200" width="52" height="53" id="rect-11" fill="transparent" stroke="#000000"><set attributeName="x" to="103" begin="0; animate11.end + 1s" /><animate attributeName="x" from="103" to="155" dur="0.193" begin="animate10.end + 0.5" id="animate11" fill="freeze"/></rect></svg>