<svg xmlns="http://www.w3.org/2000/svg" xmlns:xlink="http://www.w3.org/1999/xlink" width="270" height="270"><defs><clipPath id="clip-mask-1"><use xlink:href="#rect-1" /></clipPath><clipPath id="clip-mask-2"><use xlink:href="#rect-2" /></clipPath><clipPath id="clip-mask-3"><use xlink:href="#rect-3" /></clipPath><clipPath id="clip-mask-4"><use xlink:href="#rect-4" /></clipPath><clipPath id="clip-mask-5"><use xlink:href="#rect-5" /></clipPath><clipPath id="clip-mask-6"><use xlink:href="#rect-6" /></clipPath><clipPath id="clip-mask-7"><use xlink:href="#rect-7" /></clipPath><clipPath id="clip-mask-8"><use xlink:href="#rect-8" /></clipPath><clipPath id="clip-mask-9"><use xlink:href="#rect-9" /></clipPath><clipPath id="clip-mask-10"><use xlink:href="#rect-10" /></clipPath><clipPath id="clip-mask-11"><use xlink:href="#rect-11" /></clipPath><clipPath id="clip-mask-12"><use xlink:href="#rect-12" /></clipPath><clipPath id="clip-mask-13"><use xlink:href="#rect-13" /></clipPath><clipPath id="clip-mask-14"><use xlink:href="#rect-14" /></clipPath><clipPath id="clip-mask-15"><use xlink:href="#rect-15" /></clipPath></defs><path d="M 0 0 L 270 270 M 270 0 L 0 270 M 135 0 L 135 270 M 0 135 L 270 135" stroke="#CCCCCC" /><path d="M 38 195 L 34 199 Q 32 202 29 199 Q 20 187 24 173 Q 27 160 28 149 Q 32 69 24 55 Q 23 52 22 48 Q 21 45 22 44 Q 25 43 28 44 Q 32 46 38 49 L 40 56 Q 40 58 40 60 Q 40 63 39 95 L 39 104 Q 39 117 39 134 L 39 142 Q 39 176 39 180 L 38 188" fill="#CCCCCC"/><path d="M 38 49 Q 49 47 64 40 Q 68 38 74 40 Q 87 44 88 47 L 68 52 Q 66 49 59 51 Q 50 54 40 56" fill="#CCCCCC"/><path d="M 68 173 Q 72 137 72 72 Q 73 56 68 52 L 88 47 Q 90 49 88 54 Q 80 68 85 165 Q 87 179 82 189 Q 78 199 75 200 Q 73 201 69 194" fill="#CCCCCC"/><path d="M 68 177 Q 69 176 68 173 L 69 194 Q 66 190 63 186" fill="#CCCCCC"/><path d="M 39 95 Q 44 91 57 91 Q 63 91 67 95 Q 69 98 63 100 Q 54 101 41 104 Q 40 104 39 104" fill="#CCCCCC"/><path d="M 39 134 Q 39 133 40 133 Q 51 129 57 129 Q 64 130 67 133 Q 69 136 63 138 Q 53 140 40 142 Q 39 142 39 142" fill="#CCCCCC"/><path d="M 39 180 Q 55 174 64 176 Q 66 176 68 177 L 63 186 Q 52 186 38 188" fill="#CCCCCC"/><path d="M 172 40 Q 164 36 129 47 L 123 40 Q 149 35 172 27 Q 176 26 181 27 Q 189 32 195 37" fill="#CCCCCC"/><path d="M 166 98 Q 168 96 168 92 Q 170 73 173 50 Q 174 42 172 40 L 195 37 Q 199 41 195 47 Q 188 57 184 91 Q 182 103 177 109 Q 171 117 165 107 Q 163 106 163 105" fill="#CCCCCC"/><path d="M 126 74 Q 142 67 151 68 Q 157 68 160 72 Q 162 75 156 76 Q 145 78 128 81 Q 127 81 127 81" fill="#CCCCCC"/><path d="M 127 103 Q 159 93 166 98 L 163 105 Q 148 106 128 111 Q 128 111 127 111" fill="#CCCCCC"/><path d="M 127 119 Q 127 157 124 203 L 114 239 Q 111 243 107 242 Q 103 238 100 231 Q 98 225 101 221 Q 111 206 111 192 Q 122 74 106 40 Q 103 35 106 34 Q 109 32 114 34 Q 119 36 123 40 L 129 47 Q 129 48 128 49 Q 126 61 126 74 L 127 81 Q 127 92 127 103" fill="#CCCCCC"/><path d="M 124 203 Q 125 205 126 204 Q 156 183 159 183 Q 162 183 161 186 Q 160 189 155 193 Q 118 230 114 239" fill="#CCCCCC"/><path d="M 189 121 L 188 115 Q 187 110 191 110 Q 197 110 203 114 Q 208 119 210 123 Q 211 126 207 127 Q 196 135 174 153 L 170 149" fill="#CCCCCC"/><path d="M 174 153 Q 176 154 178 156 Q 199 174 245 188 Q 249 190 249 191 Q 249 193 246 194 Q 244 194 244 194 Q 210 199 199 197 Q 185 194 127 119 L 127 103 L 128 111 Q 129 111 130 113 Q 151 133 170 149" fill="#CCCCCC"/><path d="M 38 195 L 34 199 Q 32 202 29 199 Q 20 187 24 173 Q 27 160 28 149 Q 32 69 24 55 Q 23 52 22 48 Q 21 45 22 44 Q 25 43 28 44 Q 32 46 38 49 L 40 56 Q 40 58 40 60 Q 40 63 39 95 L 39 104 Q 39 117 39 134 L 39 142 Q 39 176 39 180 L 38 188" fill="#0000ff" clip-path="url(#clip-mask-1)" /><path d="M 38 49 Q 49 47 64 40 Q 68 38 74 40 Q 87 44 88 47 L 68 52 Q 66 49 59 51 Q 50 54 40 56" fill="#0000ff" clip-path="url(#clip-mask-2)" /><path d="M 68 173 Q 72 137 72 72 Q 73 56 68 52 L 88 47 Q 90 49 88 54 Q 80 68 85 165 Q 87 179 82 189 Q 78 199 75 200 Q 73 201 69 194" fill="#0000ff" clip-path="url(#clip-mask-3)" /><path d="M 68 177 Q 69 176 68 173 L 69 194 Q 66 190 63 186" fill="#0000ff" clip-path="url(#clip-mask-4)" /><path d="M 39 95 Q 44 91 57 91 Q 63 91 67 95 Q 69 98 63 100 Q 54 101 41 104 Q 40 104 39 104" fill="#0000ff" clip-path="url(#clip-mask-5)" /><path d="M 39 134 Q 39 133 40 133 Q 51 129 57 129 Q 64 130 67 133 Q 69 136 63 138 Q 53 140 40 142 Q 39 142 39 142" fill="#0000ff" clip-path="url(#clip-mask-6)" /><path d="M 39 180 Q 55 174 64 176 Q 66 176 68 177 L 63 186 Q 52 186 38 188" fill="#0000ff" clip-path="url(#clip-mask-7)" /><path d="M 172 40 Q 164 36 129 47 L 123 40 Q 149 35 172 27 Q 176 26 181 27 Q 189 32 195 37" fill="#000080" clip-path="url(#clip-mask-8)" /><path d="M 166 98 Q 168 96 168 92 Q 170 73 173 50 Q 174 42 172 40 L 195 37 Q 199 41 195 47 Q 188 57 184 91 Q 182 103 177 109 Q 171 117 165 107 Q 163 106 163 105" fill="#000080" clip-path="url(#clip-mask-9)" /><path d="M 126 74 Q 142 67 151 68 Q 157 68 160 72 Q 162 75 156 76 Q 145 78 128 81 Q 127 81 127 81" fill="#000080" clip-path="url(#clip-mask-10)" /><path d="M 127 103 Q 159 93 166 98 L 163 105 Q 148 106 128 111 Q 128 111 127 111" fill="#000080" clip-path="url(#clip-mask-11)" /><path d="M 127 119 Q 127 157 124 203 L 114 239 Q 111 243 107 242 Q 103 238 100 231 Q 98 225 101 221 Q 111 206 111 192 Q 122 74 106 40 Q 103 35 106 34 Q 109 32 114 34 Q 119 36 123 40 L 129 47 Q 129 48 128 49 Q 126 61 126 74 L 127 81 Q 127 92 127 103" fill="#000080" clip-path="url(#clip-mask-12)" /><path d="M 124 203 Q 125 205 126 204 Q 156 183 159 183 Q 162 183 161 186 Q 160 189 155 193 Q 118 230 114 239" fill="#000080" clip-path="url(#clip-mask-13)" /><path d="M 189 121 L 188 115 Q 187 110 191 110 Q 197 110 203 114 Q 208 119 210 123 Q 211 126 207 127 Q 196 135 174 153 L 170 149" fill="#000080" clip-path="url(#clip-mask-14)" /><path d="M 174 153 Q 176 154 178 156 Q 199 174 245 188 Q 249 190 249 191 Q 249 193 246 194 Q 244 194 244 194 Q 210 199 199 197 Q 185 194 127 119 L 127 103 L 128 111 Q 129 111 130 113 Q 151 133 170 149" fill="#000080" clip-path="url(#clip-mask-15)" /><rect x="20" y="43" width="20" height="159" id="rect-1" fill="transparent" stroke="#000000"><animate attributeName="y" from="-116" to="43" dur="0.589" begin="0; animate15.end + 1s" id="animate1" fill="freeze"/></rect><rect x="38" y="38" width="50" height="18" id="rect-2" fill="transparent" stroke="#000000"><set attributeName="x" to="-12" begin="0; animate15.end + 1s" /><animate attributeName="x" from="-12" to="38" dur="0.185" begin="animate1.end + 0.5" id="animate2" fill="freeze"/></rect><rect x="68" y="47" width="22" height="154" id="rect-3" fill="transparent" stroke="#000000"><set attributeName="y" to="-107" begin="0; animate15.end + 1s" /><animate attributeName="y" from="-107" to="47" dur="0.570" begin="animate2.end" id="animate3" fill="freeze"/></rect><rect x="63" y="173" width="6" height="21" id="rect-4" fill="transparent" stroke="#000000"><set attributeName="x" to="69" begin="0; animate15.end + 1s" /><animate attributeName="x" from="69" to="63" dur="0.022" begin="animate3.end" id="animate4" fill="freeze"/></rect><rect x="39" y="91" width="30" height="13" id="rect-5" fill="transparent" stroke="#000000"><set attributeName="x" to="9" begin="0; animate15.end + 1s" /><animate attributeName="x" from="9" to="39" dur="0.111" begin="animate4.end + 0.5" id="animate5" fill="freeze"/></rect><rect x="39" y="129" width="30" height="13" id="rect-6" fill="transparent" stroke="#000000"><set attributeName="x" to="9" begin="0; animate15.end + 1s" /><animate attributeName="x" from="9" to="39" dur="0.111" begin="animate5.end + 0.5" id="animate6" fill="freeze"/></rect><rect x="38" y="174" width="30" height="14" id="rect-7" fill="transparent" stroke="#000000"><set attributeName="x" to="8" begin="0; animate15.end + 1s" /><animate attributeName="x" from="8" to="38" dur="0.111" begin="animate6.end + 0.5" id="animate7" fill="freeze"/></rect><rect x="123" y="26" width="72" height="21" id="rect-8" fill="transparent" stroke="#000000"><set attributeName="x" to="51" begin="0; animate15.end + 1s" /><animate attributeName="x" from="51" to="123" dur="0.267" begin="animate7.end + 0.5" id="animate8" fill="freeze"/></rect><rect x="163" y="37" width="36" height="80" id="rect-9" fill="transparent" stroke="#000000"><set attributeName="y" to="-43" begin="0; animate15.end + 1s" /><animate attributeName="y" from="-43" to="37" dur="0.296" begin="animate8.end" id="animate9" fill="freeze"/></rect><rect x="126" y="67" width="36" height="14" id="rect-10" fill="transparent" stroke="#000000"><set attributeName="x" to="90" begin="0; animate15.end + 1s" /><animate attributeName="x" from="90" to="126" dur="0.133" begin="animate9.end + 0.5" id="animate10" fill="freeze"/></rect><rect x="127" y="93" width="39" height="18" id="rect-11" fill="transparent" stroke="#000000"><set attributeName="x" to="88" begin="0; animate15.end + 1s" /><animate attributeName="x" from="88" to="127" dur="0.144" begin="animate10.end + 0.5" id="animate11" fill="freeze"/></rect><rect x="98" y="32" width="31" height="211" id="rect-12" fill="transparent" stroke="#000000"><set attributeName="y" to="-179" begin="0; animate15.end + 1s" /><animate attributeName="y" from="-179" to="32" dur="0.781" begin="animate11.end + 0.5" id="animate12" fill="freeze"/></rect><rect x="114" y="183" width="48" height="56" id="rect-13" fill="transparent" stroke="#000000"><set attributeName="x" to="66" begin="0; animate15.end + 1s" /><animate attributeName="x" from="66" to="114" dur="0.178" begin="animate12.end" id="animate13" fill="freeze"/></rect><rect x="170" y="110" width="41" height="43" id="rect-14" fill="transparent" stroke="#000000"><set attributeName="y" to="67" begin="0; animate15.end + 1s" /><animate attributeName="y" from="67" to="110" dur="0.159" begin="animate13.end + 0.5" id="animate14" fill="freeze"/></rect><rect x="127" y="103" width="122" height="96" id="rect-15" fill="transparent" stroke="#000000"><set attributeName="x" to="5" begin="0; animate15.end + 1s" /><animate attributeName="x" from="5" to="127" dur="0.452" begin="animate14.end + 0.5" id="animate15" fill="freeze"/></rect></svg>