<svg xmlns="http://www.w3.org/2000/svg" xmlns:xlink="http://www.w3.org/1999/xlink" width="270" height="270"><defs><clipPath id="clip-mask-1"><use xlink:href="#rect-1" /></clipPath><clipPath id="clip-mask-2"><use xlink:href="#rect-2" /></clipPath><clipPath id="clip-mask-3"><use xlink:href="#rect-3" /></clipPath><clipPath id="clip-mask-4"><use xlink:href="#rect-4" /></clipPath><clipPath id="clip-mask-5"><use xlink:href="#rect-5" /></clipPath><clipPath id="clip-mask-6"><use xlink:href="#rect-6" /></clipPath><clipPath id="clip-mask-7"><use xlink:href="#rect-7" /></clipPath><clipPath id="clip-mask-8"><use xlink:href="#rect-8" /></clipPath><clipPath id="clip-mask-9"><use xlink:href="#rect-9" /></clipPath><clipPath id="clip-mask-10"><use xlink:href="#rect-10" /></clipPath><clipPath id="clip-mask-11"><use xlink:href="#rect-11" /></clipPath><clipPath id="clip-mask-12"><use xlink:href="#rect-12" /></clipPath><clipPath id="clip-mask-13"><use xlink:href="#rect-13" /></clipPath><clipPath id="clip-mask-14"><use xlink:href="#rect-14" /></clipPath></defs><path d="M 0 0 L 270 270 M 270 0 L 0 270 M 135 0 L 135 270 M 0 135 L 270 135" stroke="#CCCCCC" /><path d="M 65 74 Q 51 76 42 72 Q 35 69 44 66 Q 45 66 72 59 Q 99 49 104 50 Q 112 51 114 54 Q 116 57 113 59 Q 113 59 76 71" fill="#CCCCCC"/><path d="M 54 152 Q 53 152 53 153 Q 30 187 13 195 Q 10 194 12 193 Q 39 158 50 136 L 56 123 Q 70 88 65 74 L 76 71 Q 83 72 86 78 Q 88 80 86 82 Q 84 83 83 88 Q 74 111 67 126" fill="#CCCCCC"/><path d="M 69 185 L 67 189 Q 66 193 62 187 Q 57 181 57 173 Q 56 161 54 152 L 50 136 Q 49 132 47 127 Q 45 123 47 122 Q 48 120 51 121 Q 55 122 56 123 L 65 135 Q 65 145 68 170 L 69 179" fill="#CCCCCC"/><path d="M 91 132 Q 90 130 85 131 Q 79 132 71 134 Q 67 135 65 135 L 56 123 L 67 126 Q 70 125 83 121 Q 93 114 99 117 Q 106 121 111 125" fill="#CCCCCC"/><path d="M 86 164 Q 89 152 91 142 Q 93 133 91 132 L 111 125 Q 118 128 112 135 Q 105 141 100 162" fill="#CCCCCC"/><path d="M 68 170 Q 77 167 86 164 L 100 162 Q 109 167 109 169 Q 108 171 106 172 Q 83 175 73 178 Q 71 179 69 179" fill="#CCCCCC"/><path d="M 155 55 Q 144 55 137 52 Q 129 48 139 45 Q 152 44 162 40 Q 172 37 181 34 Q 189 30 197 31 Q 205 33 207 36 Q 208 38 206 40 Q 204 41 167 52" fill="#CCCCCC"/><path d="M 137 95 Q 137 103 142 133 Q 142 137 143 141 L 142 149 Q 142 149 141 150 Q 139 155 135 149 Q 130 143 129 135 Q 125 109 117 92 Q 115 88 117 86 Q 118 84 121 85 Q 127 86 130 87" fill="#CCCCCC"/><path d="M 162 89 Q 149 92 140 95 Q 138 95 137 95 L 130 87 Q 140 85 155 82 Q 158 81 162 80 L 175 78 Q 190 74 193 74 Q 211 69 215 72 Q 228 79 233 83 L 206 83 Q 201 81 174 87" fill="#CCCCCC"/><path d="M 197 137 Q 201 123 207 94 Q 209 85 206 83 L 233 83 Q 238 88 233 92 Q 223 100 218 114 Q 212 139 208 144 Q 206 148 203 149 Q 199 149 198 145 Q 196 142 197 139" fill="#CCCCCC"/><path d="M 163 118 Q 149 119 149 118 Q 143 114 147 113 Q 154 110 163 107 L 174 104 Q 180 102 185 103 Q 191 103 194 107 Q 197 111 191 112 Q 182 113 173 115" fill="#CCCCCC"/><path d="M 161 145 Q 143 148 142 149 L 143 141 Q 151 139 162 137 L 172 134 Q 186 129 191 132 Q 196 135 197 137 L 197 139 Q 196 140 195 140 Q 182 141 172 143" fill="#CCCCCC"/><path d="M 152 201 L 146 206 Q 131 217 109 222 Q 96 225 91 224 Q 88 224 88 223 Q 88 222 91 221 Q 134 206 150 187 L 155 178 Q 155 177 155 177 Q 161 159 161 145 L 162 137 Q 162 127 163 118 L 163 107 Q 163 98 162 89 L 162 80 Q 162 80 162 80 Q 159 61 155 55 L 167 52 Q 174 54 178 58 Q 181 60 179 64 Q 175 75 175 78 L 174 87 Q 174 95 174 104 L 173 115 Q 173 125 172 134 L 172 143 Q 172 166 164 185 L 157 195" fill="#CCCCCC"/><path d="M 150 187 Q 124 161 119 159 Q 117 158 115 157 Q 112 155 113 154 Q 115 152 118 152 Q 128 153 134 159 Q 145 169 155 178 L 164 185 Q 193 207 215 212 Q 251 220 255 221 Q 259 223 257 226 Q 253 228 250 229 Q 238 231 222 235 Q 210 239 201 233 Q 173 212 157 195" fill="#CCCCCC"/><path d="M 65 74 Q 51 76 42 72 Q 35 69 44 66 Q 45 66 72 59 Q 99 49 104 50 Q 112 51 114 54 Q 116 57 113 59 Q 113 59 76 71" fill="#0000ff" clip-path="url(#clip-mask-1)" /><path d="M 54 152 Q 53 152 53 153 Q 30 187 13 195 Q 10 194 12 193 Q 39 158 50 136 L 56 123 Q 70 88 65 74 L 76 71 Q 83 72 86 78 Q 88 80 86 82 Q 84 83 83 88 Q 74 111 67 126" fill="#0000ff" clip-path="url(#clip-mask-2)" /><path d="M 69 185 L 67 189 Q 66 193 62 187 Q 57 181 57 173 Q 56 161 54 152 L 50 136 Q 49 132 47 127 Q 45 123 47 122 Q 48 120 51 121 Q 55 122 56 123 L 65 135 Q 65 145 68 170 L 69 179" fill="#0000ff" clip-path="url(#clip-mask-3)" /><path d="M 91 132 Q 90 130 85 131 Q 79 132 71 134 Q 67 135 65 135 L 56 123 L 67 126 Q 70 125 83 121 Q 93 114 99 117 Q 106 121 111 125" fill="#0000ff" clip-path="url(#clip-mask-4)" /><path d="M 86 164 Q 89 152 91 142 Q 93 133 91 132 L 111 125 Q 118 128 112 135 Q 105 141 100 162" fill="#0000ff" clip-path="url(#clip-mask-5)" /><path d="M 68 170 Q 77 167 86 164 L 100 162 Q 109 167 109 169 Q 108 171 106 172 Q 83 175 73 178 Q 71 179 69 179" fill="#0000ff" clip-path="url(#clip-mask-6)" /><path d="M 155 55 Q 144 55 137 52 Q 129 48 139 45 Q 152 44 162 40 Q 172 37 181 34 Q 189 30 197 31 Q 205 33 207 36 Q 208 38 206 40 Q 204 41 167 52" fill="#000080" clip-path="url(#clip-mask-7)" /><path d="M 137 95 Q 137 103 142 133 Q 142 137 143 141 L 142 149 Q 142 149 141 150 Q 139 155 135 149 Q 130 143 129 135 Q 125 109 117 92 Q 115 88 117 86 Q 118 84 121 85 Q 127 86 130 87" fill="#000080" clip-path="url(#clip-mask-8)" /><path d="M 162 89 Q 149 92 140 95 Q 138 95 137 95 L 130 87 Q 140 85 155 82 Q 158 81 162 80 L 175 78 Q 190 74 193 74 Q 211 69 215 72 Q 228 79 233 83 L 206 83 Q 201 81 174 87" fill="#000080" clip-path="url(#clip-mask-9)" /><path d="M 197 137 Q 201 123 207 94 Q 209 85 206 83 L 233 83 Q 238 88 233 92 Q 223 100 218 114 Q 212 139 208 144 Q 206 148 203 149 Q 199 149 198 145 Q 196 142 197 139" fill="#000080" clip-path="url(#clip-mask-10)" /><path d="M 163 118 Q 149 119 149 118 Q 143 114 147 113 Q 154 110 163 107 L 174 104 Q 180 102 185 103 Q 191 103 194 107 Q 197 111 191 112 Q 182 113 173 115" fill="#000080" clip-path="url(#clip-mask-11)" /><path d="M 161 145 Q 143 148 142 149 L 143 141 Q 151 139 162 137 L 172 134 Q 186 129 191 132 Q 196 135 197 137 L 197 139 Q 196 140 195 140 Q 182 141 172 143" fill="#000080" clip-path="url(#clip-mask-12)" /><path d="M 152 201 L 146 206 Q 131 217 109 222 Q 96 225 91 224 Q 88 224 88 223 Q 88 222 91 221 Q 134 206 150 187 L 155 178 Q 155 177 155 177 Q 161 159 161 145 L 162 137 Q 162 127 163 118 L 163 107 Q 163 98 162 89 L 162 80 Q 162 80 162 80 Q 159 61 155 55 L 167 52 Q 174 54 178 58 Q 181 60 179 64 Q 175 75 175 78 L 174 87 Q 174 95 174 104 L 173 115 Q 173 125 172 134 L 172 143 Q 172 166 164 185 L 157 195" fill="#000080" clip-path="url(#clip-mask-13)" /><path d="M 150 187 Q 124 161 119 159 Q 117 158 115 157 Q 112 155 113 154 Q 115 152 118 152 Q 128 153 134 159 Q 145 169 155 178 L 164 185 Q 193 207 215 212 Q 251 220 255 221 Q 259 223 257 226 Q 253 228 250 229 Q 238 231 222 235 Q 210 239 201 233 Q 173 212 157 195" fill="#000080" clip-path="url(#clip-mask-14)" /><rect x="35" y="49" width="81" height="27" id="rect-1" fill="transparent" stroke="#000000"><animate attributeName="x" from="-46" to="35" dur="0.300" begin="0; animate14.end + 1s" id="animate1" fill="freeze"/></rect><rect x="10" y="71" width="78" height="124" id="rect-2" fill="transparent" stroke="#000000"><set attributeName="y" to="-53" begin="0; animate14.end + 1s" /><animate attributeName="y" from="-53" to="71" dur="0.459" begin="animate1.end + 0.5" id="animate2" fill="freeze"/></rect><rect x="45" y="120" width="24" height="73" id="rect-3" fill="transparent" stroke="#000000"><set attributeName="y" to="47" begin="0; animate14.end + 1s" /><animate attributeName="y" from="47" to="120" dur="0.270" begin="animate2.end + 0.5" id="animate3" fill="freeze"/></rect><rect x="56" y="114" width="55" height="21" id="rect-4" fill="transparent" stroke="#000000"><set attributeName="x" to="1" begin="0; animate14.end + 1s" /><animate attributeName="x" from="1" to="56" dur="0.204" begin="animate3.end + 0.5" id="animate4" fill="freeze"/></rect><rect x="86" y="125" width="32" height="39" id="rect-5" fill="transparent" stroke="#000000"><set attributeName="y" to="86" begin="0; animate14.end + 1s" /><animate attributeName="y" from="86" to="125" dur="0.144" begin="animate4.end" id="animate5" fill="freeze"/></rect><rect x="68" y="162" width="41" height="17" id="rect-6" fill="transparent" stroke="#000000"><set attributeName="x" to="27" begin="0; animate14.end + 1s" /><animate attributeName="x" from="27" to="68" dur="0.152" begin="animate5.end + 0.5" id="animate6" fill="freeze"/></rect><rect x="129" y="30" width="79" height="25" id="rect-7" fill="transparent" stroke="#000000"><set attributeName="x" to="50" begin="0; animate14.end + 1s" /><animate attributeName="x" from="50" to="129" dur="0.293" begin="animate6.end + 0.5" id="animate7" fill="freeze"/></rect><rect x="115" y="84" width="28" height="71" id="rect-8" fill="transparent" stroke="#000000"><set attributeName="y" to="13" begin="0; animate14.end + 1s" /><animate attributeName="y" from="13" to="84" dur="0.263" begin="animate7.end + 0.5" id="animate8" fill="freeze"/></rect><rect x="130" y="69" width="103" height="26" id="rect-9" fill="transparent" stroke="#000000"><set attributeName="x" to="27" begin="0; animate14.end + 1s" /><animate attributeName="x" from="27" to="130" dur="0.381" begin="animate8.end + 0.5" id="animate9" fill="freeze"/></rect><rect x="196" y="83" width="42" height="66" id="rect-10" fill="transparent" stroke="#000000"><set attributeName="y" to="17" begin="0; animate14.end + 1s" /><animate attributeName="y" from="17" to="83" dur="0.244" begin="animate9.end" id="animate10" fill="freeze"/></rect><rect x="143" y="102" width="54" height="17" id="rect-11" fill="transparent" stroke="#000000"><set attributeName="x" to="89" begin="0; animate14.end + 1s" /><animate attributeName="x" from="89" to="143" dur="0.200" begin="animate10.end + 0.5" id="animate11" fill="freeze"/></rect><rect x="142" y="129" width="55" height="20" id="rect-12" fill="transparent" stroke="#000000"><set attributeName="x" to="87" begin="0; animate14.end + 1s" /><animate attributeName="x" from="87" to="142" dur="0.204" begin="animate11.end + 0.5" id="animate12" fill="freeze"/></rect><rect x="88" y="52" width="93" height="173" id="rect-13" fill="transparent" stroke="#000000"><set attributeName="y" to="-121" begin="0; animate14.end + 1s" /><animate attributeName="y" from="-121" to="52" dur="0.641" begin="animate12.end + 0.5" id="animate13" fill="freeze"/></rect><rect x="112" y="152" width="147" height="87" id="rect-14" fill="transparent" stroke="#000000"><set attributeName="x" to="-35" begin="0; animate14.end + 1s" /><animate attributeName="x" from="-35" to="112" dur="0.544" begin="animate13.end + 0.5" id="animate14" fill="freeze"/></rect></svg>