<svg xmlns="http://www.w3.org/2000/svg" xmlns:xlink="http://www.w3.org/1999/xlink" width="270" height="270"><defs><clipPath id="clip-mask-1"><use xlink:href="#rect-1" /></clipPath><clipPath id="clip-mask-2"><use xlink:href="#rect-2" /></clipPath><clipPath id="clip-mask-3"><use xlink:href="#rect-3" /></clipPath><clipPath id="clip-mask-4"><use xlink:href="#rect-4" /></clipPath><clipPath id="clip-mask-5"><use xlink:href="#rect-5" /></clipPath><clipPath id="clip-mask-6"><use xlink:href="#rect-6" /></clipPath><clipPath id="clip-mask-7"><use xlink:href="#rect-7" /></clipPath><clipPath id="clip-mask-8"><use xlink:href="#rect-8" /></clipPath><clipPath id="clip-mask-9"><use xlink:href="#rect-9" /></clipPath><clipPath id="clip-mask-10"><use xlink:href="#rect-10" /></clipPath><clipPath id="clip-mask-11"><use xlink:href="#rect-11" /></clipPath><clipPath id="clip-mask-12"><use xlink:href="#rect-12" /></clipPath><clipPath id="clip-mask-13"><use xlink:href="#rect-13" /></clipPath><clipPath id="clip-mask-14"><use xlink:href="#rect-14" /></clipPath><clipPath id="clip-mask-15"><use xlink:href="#rect-15" /></clipPath><clipPath id="clip-mask-16"><use xlink:href="#rect-16" /></clipPath><clipPath id="clip-mask-17"><use xlink:href="#rect-17" /></clipPath><clipPath id="clip-mask-18"><use xlink:href="#rect-18" /></clipPath><clipPath id="clip-mask-19"><use xlink:href="#rect-19" /></clipPath><clipPath id="clip-mask-20"><use xlink:href="#rect-20" /></clipPath></defs><path d="M 0 0 L 270 270 M 270 0 L 0 270 M 135 0 L 135 270 M 0 135 L 270 135" stroke="#CCCCCC" /><path d="M 57 82 Q 46 82 38 79 Q 31 75 41 73 Q 54 71 64 68 Q 74 65 83 61 Q 90 57 98 58 Q 106 59 108 62 Q 110 64 108 67 Q 106 68 69 79" fill="#CCCCCC"/><path d="M 44 153 Q 24 179 11 184 Q 9 184 10 182 Q 16 175 41 140 L 47 129 Q 63 94 57 82 L 69 79 Q 71 79 74 81 Q 77 83 78 85 Q 77 86 74 94 Q 65 116 58 130" fill="#CCCCCC"/><path d="M 60 188 L 58 193 Q 57 197 53 191 Q 49 186 48 177 Q 47 163 44 153 L 41 140 Q 40 136 39 134 Q 37 130 39 129 Q 40 127 43 128 Q 45 129 47 129 L 55 138 Q 55 146 58 170 L 59 179" fill="#CCCCCC"/><path d="M 83 133 Q 81 131 76 133 Q 65 136 55 138 L 47 129 L 58 130 Q 70 126 74 125 Q 85 118 89 120 Q 95 124 100 127" fill="#CCCCCC"/><path d="M 79 163 Q 81 154 83 145 Q 85 135 83 133 L 100 127 Q 105 129 100 136 Q 95 142 91 164" fill="#CCCCCC"/><path d="M 58 170 Q 67 168 78 164 Q 78 163 79 163 L 91 164 Q 97 167 97 169 Q 97 171 95 171 Q 72 175 63 178 Q 61 179 59 179" fill="#CCCCCC"/><path d="M 151 33 L 150 31 Q 149 27 151 26 Q 153 25 157 26 Q 179 29 183 38 Q 185 46 184 50 Q 183 53 180 54 Q 176 54 172 51 Q 165 44 159 39" fill="#CCCCCC"/><path d="M 128 87 L 128 87 Q 125 91 120 102 Q 115 114 112 115 Q 110 117 109 114 Q 106 109 106 105 Q 106 100 109 95 Q 117 79 117 72 Q 118 69 119 68 Q 121 67 122 68 Q 126 71 129 78 L 129 86" fill="#CCCCCC"/><path d="M 129 78 Q 169 68 200 64 Q 219 59 224 64 L 208 71 Q 206 71 203 72 Q 175 74 146 84 Q 133 87 129 86" fill="#CCCCCC"/><path d="M 224 64 Q 241 76 242 79 Q 242 81 233 83 Q 223 86 210 94 Q 205 97 204 96 Q 202 95 204 92 Q 211 76 211 75 Q 212 73 208 71" fill="#CCCCCC"/><path d="M 106 161 L 104 161 Q 101 161 102 159 Q 102 158 104 156 Q 111 146 116 137 Q 127 117 124 111 Q 123 107 126 107 Q 130 107 135 110 Q 140 114 140 116 Q 142 119 140 121 Q 136 125 128 137 L 124 142 Q 118 148 113 154 L 110 156" fill="#CCCCCC"/><path d="M 128 137 Q 139 135 144 133 Q 149 130 151 131 Q 163 136 164 139 Q 165 141 163 143 L 144 142 Q 143 140 132 143 Q 126 144 124 142" fill="#CCCCCC"/><path d="M 163 143 Q 159 147 153 159 Q 141 184 125 203 Q 99 234 82 235 Q 77 235 82 232 Q 106 212 121 191 Q 136 173 140 158 Q 145 145 144 142" fill="#CCCCCC"/><path d="M 113 154 Q 117 155 124 160 Q 129 162 131 166 Q 132 170 131 173 Q 130 176 127 176 Q 124 175 121 171 Q 110 158 110 156" fill="#CCCCCC"/><path d="M 203 122 L 208 118 Q 212 115 216 117 Q 226 121 228 123 Q 230 125 227 128 L 209 129 Q 209 128 206 129 Q 197 130 184 134 L 180 127" fill="#CCCCCC"/><path d="M 227 128 Q 224 132 224 141 Q 221 176 209 184 L 208 162 Q 211 154 211 137 Q 211 131 209 129" fill="#CCCCCC"/><path d="M 209 184 Q 206 188 202 184 Q 197 177 188 167 Q 184 162 189 164 Q 194 166 200 168 Q 205 168 208 162" fill="#CCCCCC"/><path d="M 184 134 Q 177 195 185 211 L 180 227 Q 176 222 174 216 Q 169 201 171 146 Q 172 137 168 128 Q 167 124 169 123 Q 170 122 173 123 Q 178 124 180 127" fill="#CCCCCC"/><path d="M 185 211 Q 187 215 193 218 Q 207 225 225 221 Q 232 219 234 215 L 257 216 Q 260 222 255 226 Q 247 232 239 235 Q 238 235 238 235 Q 201 244 180 227" fill="#CCCCCC"/><path d="M 234 215 Q 239 210 245 190 Q 246 186 248 186 Q 250 187 250 191 Q 254 210 257 216" fill="#CCCCCC"/><path d="M 57 82 Q 46 82 38 79 Q 31 75 41 73 Q 54 71 64 68 Q 74 65 83 61 Q 90 57 98 58 Q 106 59 108 62 Q 110 64 108 67 Q 106 68 69 79" fill="#0000ff" clip-path="url(#clip-mask-1)" /><path d="M 44 153 Q 24 179 11 184 Q 9 184 10 182 Q 16 175 41 140 L 47 129 Q 63 94 57 82 L 69 79 Q 71 79 74 81 Q 77 83 78 85 Q 77 86 74 94 Q 65 116 58 130" fill="#0000ff" clip-path="url(#clip-mask-2)" /><path d="M 60 188 L 58 193 Q 57 197 53 191 Q 49 186 48 177 Q 47 163 44 153 L 41 140 Q 40 136 39 134 Q 37 130 39 129 Q 40 127 43 128 Q 45 129 47 129 L 55 138 Q 55 146 58 170 L 59 179" fill="#0000ff" clip-path="url(#clip-mask-3)" /><path d="M 83 133 Q 81 131 76 133 Q 65 136 55 138 L 47 129 L 58 130 Q 70 126 74 125 Q 85 118 89 120 Q 95 124 100 127" fill="#0000ff" clip-path="url(#clip-mask-4)" /><path d="M 79 163 Q 81 154 83 145 Q 85 135 83 133 L 100 127 Q 105 129 100 136 Q 95 142 91 164" fill="#0000ff" clip-path="url(#clip-mask-5)" /><path d="M 58 170 Q 67 168 78 164 Q 78 163 79 163 L 91 164 Q 97 167 97 169 Q 97 171 95 171 Q 72 175 63 178 Q 61 179 59 179" fill="#0000ff" clip-path="url(#clip-mask-6)" /><path d="M 151 33 L 150 31 Q 149 27 151 26 Q 153 25 157 26 Q 179 29 183 38 Q 185 46 184 50 Q 183 53 180 54 Q 176 54 172 51 Q 165 44 159 39" fill="#000080" clip-path="url(#clip-mask-7)" /><path d="M 128 87 L 128 87 Q 125 91 120 102 Q 115 114 112 115 Q 110 117 109 114 Q 106 109 106 105 Q 106 100 109 95 Q 117 79 117 72 Q 118 69 119 68 Q 121 67 122 68 Q 126 71 129 78 L 129 86" fill="#000080" clip-path="url(#clip-mask-8)" /><path d="M 129 78 Q 169 68 200 64 Q 219 59 224 64 L 208 71 Q 206 71 203 72 Q 175 74 146 84 Q 133 87 129 86" fill="#000080" clip-path="url(#clip-mask-9)" /><path d="M 224 64 Q 241 76 242 79 Q 242 81 233 83 Q 223 86 210 94 Q 205 97 204 96 Q 202 95 204 92 Q 211 76 211 75 Q 212 73 208 71" fill="#000080" clip-path="url(#clip-mask-10)" /><path d="M 106 161 L 104 161 Q 101 161 102 159 Q 102 158 104 156 Q 111 146 116 137 Q 127 117 124 111 Q 123 107 126 107 Q 130 107 135 110 Q 140 114 140 116 Q 142 119 140 121 Q 136 125 128 137 L 124 142 Q 118 148 113 154 L 110 156" fill="#000080" clip-path="url(#clip-mask-11)" /><path d="M 128 137 Q 139 135 144 133 Q 149 130 151 131 Q 163 136 164 139 Q 165 141 163 143 L 144 142 Q 143 140 132 143 Q 126 144 124 142" fill="#000080" clip-path="url(#clip-mask-12)" /><path d="M 163 143 Q 159 147 153 159 Q 141 184 125 203 Q 99 234 82 235 Q 77 235 82 232 Q 106 212 121 191 Q 136 173 140 158 Q 145 145 144 142" fill="#000080" clip-path="url(#clip-mask-13)" /><path d="M 113 154 Q 117 155 124 160 Q 129 162 131 166 Q 132 170 131 173 Q 130 176 127 176 Q 124 175 121 171 Q 110 158 110 156" fill="#000080" clip-path="url(#clip-mask-14)" /><path d="M 203 122 L 208 118 Q 212 115 216 117 Q 226 121 228 123 Q 230 125 227 128 L 209 129 Q 209 128 206 129 Q 197 130 184 134 L 180 127" fill="#000080" clip-path="url(#clip-mask-15)" /><path d="M 227 128 Q 224 132 224 141 Q 221 176 209 184 L 208 162 Q 211 154 211 137 Q 211 131 209 129" fill="#000080" clip-path="url(#clip-mask-16)" /><path d="M 209 184 Q 206 188 202 184 Q 197 177 188 167 Q 184 162 189 164 Q 194 166 200 168 Q 205 168 208 162" fill="#000080" clip-path="url(#clip-mask-17)" /><path d="M 184 134 Q 177 195 185 211 L 180 227 Q 176 222 174 216 Q 169 201 171 146 Q 172 137 168 128 Q 167 124 169 123 Q 170 122 173 123 Q 178 124 180 127" fill="#000080" clip-path="url(#clip-mask-18)" /><path d="M 185 211 Q 187 215 193 218 Q 207 225 225 221 Q 232 219 234 215 L 257 216 Q 260 222 255 226 Q 247 232 239 235 Q 238 235 238 235 Q 201 244 180 227" fill="#000080" clip-path="url(#clip-mask-19)" /><path d="M 234 215 Q 239 210 245 190 Q 246 186 248 186 Q 250 187 250 191 Q 254 210 257 216" fill="#000080" clip-path="url(#clip-mask-20)" /><rect x="31" y="57" width="79" height="25" id="rect-1" fill="transparent" stroke="#000000"><animate attributeName="x" from="-48" to="31" dur="0.293" begin="0; animate20.end + 1s" id="animate1" fill="freeze"/></rect><rect x="9" y="79" width="69" height="105" id="rect-2" fill="transparent" stroke="#000000"><set attributeName="y" to="-26" begin="0; animate20.end + 1s" /><animate attributeName="y" from="-26" to="79" dur="0.389" begin="animate1.end + 0.5" id="animate2" fill="freeze"/></rect><rect x="37" y="127" width="23" height="70" id="rect-3" fill="transparent" stroke="#000000"><set attributeName="y" to="57" begin="0; animate20.end + 1s" /><animate attributeName="y" from="57" to="127" dur="0.259" begin="animate2.end + 0.5" id="animate3" fill="freeze"/></rect><rect x="47" y="118" width="53" height="20" id="rect-4" fill="transparent" stroke="#000000"><set attributeName="x" to="-6" begin="0; animate20.end + 1s" /><animate attributeName="x" from="-6" to="47" dur="0.196" begin="animate3.end + 0.5" id="animate4" fill="freeze"/></rect><rect x="79" y="127" width="26" height="37" id="rect-5" fill="transparent" stroke="#000000"><set attributeName="y" to="90" begin="0; animate20.end + 1s" /><animate attributeName="y" from="90" to="127" dur="0.137" begin="animate4.end" id="animate5" fill="freeze"/></rect><rect x="58" y="163" width="39" height="16" id="rect-6" fill="transparent" stroke="#000000"><set attributeName="x" to="19" begin="0; animate20.end + 1s" /><animate attributeName="x" from="19" to="58" dur="0.144" begin="animate5.end + 0.5" id="animate6" fill="freeze"/></rect><rect x="149" y="25" width="36" height="29" id="rect-7" fill="transparent" stroke="#000000"><set attributeName="x" to="113" begin="0; animate20.end + 1s" /><animate attributeName="x" from="113" to="149" dur="0.133" begin="animate6.end + 0.5" id="animate7" fill="freeze"/></rect><rect x="106" y="67" width="23" height="50" id="rect-8" fill="transparent" stroke="#000000"><set attributeName="y" to="17" begin="0; animate20.end + 1s" /><animate attributeName="y" from="17" to="67" dur="0.185" begin="animate7.end + 0.5" id="animate8" fill="freeze"/></rect><rect x="129" y="59" width="95" height="28" id="rect-9" fill="transparent" stroke="#000000"><set attributeName="x" to="34" begin="0; animate20.end + 1s" /><animate attributeName="x" from="34" to="129" dur="0.352" begin="animate8.end + 0.5" id="animate9" fill="freeze"/></rect><rect x="202" y="64" width="40" height="33" id="rect-10" fill="transparent" stroke="#000000"><set attributeName="y" to="31" begin="0; animate20.end + 1s" /><animate attributeName="y" from="31" to="64" dur="0.122" begin="animate9.end" id="animate10" fill="freeze"/></rect><rect x="101" y="107" width="41" height="54" id="rect-11" fill="transparent" stroke="#000000"><set attributeName="y" to="53" begin="0; animate20.end + 1s" /><animate attributeName="y" from="53" to="107" dur="0.200" begin="animate10.end + 0.5" id="animate11" fill="freeze"/></rect><rect x="124" y="130" width="41" height="14" id="rect-12" fill="transparent" stroke="#000000"><set attributeName="x" to="83" begin="0; animate20.end + 1s" /><animate attributeName="x" from="83" to="124" dur="0.152" begin="animate11.end + 0.5" id="animate12" fill="freeze"/></rect><rect x="77" y="142" width="86" height="93" id="rect-13" fill="transparent" stroke="#000000"><set attributeName="y" to="49" begin="0; animate20.end + 1s" /><animate attributeName="y" from="49" to="142" dur="0.344" begin="animate12.end" id="animate13" fill="freeze"/></rect><rect x="110" y="154" width="22" height="22" id="rect-14" fill="transparent" stroke="#000000"><set attributeName="x" to="88" begin="0; animate20.end + 1s" /><animate attributeName="x" from="88" to="110" dur="0.081" begin="animate13.end + 0.5" id="animate14" fill="freeze"/></rect><rect x="180" y="115" width="50" height="19" id="rect-15" fill="transparent" stroke="#000000"><set attributeName="x" to="130" begin="0; animate20.end + 1s" /><animate attributeName="x" from="130" to="180" dur="0.185" begin="animate14.end + 0.5" id="animate15" fill="freeze"/></rect><rect x="208" y="128" width="19" height="56" id="rect-16" fill="transparent" stroke="#000000"><set attributeName="y" to="72" begin="0; animate20.end + 1s" /><animate attributeName="y" from="72" to="128" dur="0.207" begin="animate15.end" id="animate16" fill="freeze"/></rect><rect x="184" y="162" width="25" height="26" id="rect-17" fill="transparent" stroke="#000000"><set attributeName="x" to="209" begin="0; animate20.end + 1s" /><animate attributeName="x" from="209" to="184" dur="0.093" begin="animate16.end" id="animate17" fill="freeze"/></rect><rect x="167" y="122" width="18" height="105" id="rect-18" fill="transparent" stroke="#000000"><set attributeName="y" to="17" begin="0; animate20.end + 1s" /><animate attributeName="y" from="17" to="122" dur="0.389" begin="animate17.end + 0.5" id="animate18" fill="freeze"/></rect><rect x="180" y="211" width="80" height="33" id="rect-19" fill="transparent" stroke="#000000"><set attributeName="x" to="100" begin="0; animate20.end + 1s" /><animate attributeName="x" from="100" to="180" dur="0.296" begin="animate18.end" id="animate19" fill="freeze"/></rect><rect x="234" y="186" width="23" height="30" id="rect-20" fill="transparent" stroke="#000000"><set attributeName="y" to="216" begin="0; animate20.end + 1s" /><animate attributeName="y" from="216" to="186" dur="0.111" begin="animate19.end" id="animate20" fill="freeze"/></rect></svg>