<svg xmlns="http://www.w3.org/2000/svg" xmlns:xlink="http://www.w3.org/1999/xlink" width="270" height="270"><defs><clipPath id="clip-mask-1"><use xlink:href="#rect-1" /></clipPath><clipPath id="clip-mask-2"><use xlink:href="#rect-2" /></clipPath><clipPath id="clip-mask-3"><use xlink:href="#rect-3" /></clipPath><clipPath id="clip-mask-4"><use xlink:href="#rect-4" /></clipPath><clipPath id="clip-mask-5"><use xlink:href="#rect-5" /></clipPath><clipPath id="clip-mask-6"><use xlink:href="#rect-6" /></clipPath><clipPath id="clip-mask-7"><use xlink:href="#rect-7" /></clipPath><clipPath id="clip-mask-8"><use xlink:href="#rect-8" /></clipPath><clipPath id="clip-mask-9"><use xlink:href="#rect-9" /></clipPath><clipPath id="clip-mask-10"><use xlink:href="#rect-10" /></clipPath><clipPath id="clip-mask-11"><use xlink:href="#rect-11" /></clipPath><clipPath id="clip-mask-12"><use xlink:href="#rect-12" /></clipPath><clipPath id="clip-mask-13"><use xlink:href="#rect-13" /></clipPath><clipPath id="clip-mask-14"><use xlink:href="#rect-14" /></clipPath><clipPath id="clip-mask-15"><use xlink:href="#rect-15" /></clipPath><clipPath id="clip-mask-16"><use xlink:href="#rect-16" /></clipPath><clipPath id="clip-mask-17"><use xlink:href="#rect-17" /></clipPath><clipPath id="clip-mask-18"><use xlink:href="#rect-18" /></clipPath></defs><path d="M 0 0 L 270 270 M 270 0 L 0 270 M 135 0 L 135 270 M 0 135 L 270 135" stroke="#CCCCCC" /><path d="M 61 85 Q 48 87 39 82 Q 32 79 41 76 Q 56 74 74 68 Q 97 59 103 60 Q 111 61 113 65 Q 115 67 112 69 Q 111 70 72 82" fill="#CCCCCC"/><path d="M 47 157 Q 24 186 10 190 Q 7 190 9 188 Q 31 164 39 151 Q 40 148 42 145 L 48 135 Q 67 100 61 85 L 72 82 Q 75 82 79 85 Q 82 87 83 89 Q 83 90 79 99 Q 69 121 61 135" fill="#CCCCCC"/><path d="M 63 191 L 62 195 Q 60 199 56 194 Q 52 188 51 181 Q 49 168 47 157 L 42 145 Q 41 142 40 140 Q 38 136 40 134 Q 41 133 44 134 Q 46 134 48 135 L 57 144 Q 58 151 61 175 L 63 184" fill="#CCCCCC"/><path d="M 87 139 Q 86 137 81 138 Q 60 144 57 144 L 48 135 L 61 135 Q 79 128 84 125 Q 87 123 90 123 Q 90 123 107 131 Q 113 135 108 142" fill="#CCCCCC"/><path d="M 84 167 Q 89 141 87 139 L 108 142 Q 102 148 98 167" fill="#CCCCCC"/><path d="M 61 175 Q 71 171 83 167 L 84 167 L 98 167 Q 104 171 104 173 Q 104 175 101 176 Q 65 182 63 184" fill="#CCCCCC"/><path d="M 166 83 Q 163 84 161 84 Q 143 87 134 82 Q 127 78 136 76 Q 152 75 166 72 L 180 68 Q 200 62 206 64 Q 213 66 215 68 Q 215 71 214 73 Q 212 74 202 76 Q 190 78 179 81" fill="#CCCCCC"/><path d="M 166 103 Q 166 93 166 83 L 166 72 Q 165 57 164 43 Q 164 39 159 32 Q 157 28 159 27 Q 161 24 166 25 Q 172 26 181 31 Q 181 32 182 32 Q 186 36 183 44 Q 180 59 180 68 L 179 81 Q 178 90 177 101" fill="#CCCCCC"/><path d="M 153 115 Q 140 117 129 120 Q 126 122 121 121 Q 117 120 114 117 Q 110 113 115 112 Q 142 107 166 103 L 177 101 Q 192 98 204 95 Q 219 90 232 99 Q 236 102 235 105 Q 234 107 220 107 Q 187 108 166 112" fill="#CCCCCC"/><path d="M 135 171 Q 133 173 131 172 Q 128 171 125 167 Q 123 162 123 159 Q 123 156 129 153 Q 136 149 140 145 Q 141 144 141 144 Q 153 129 153 115 L 166 112 Q 172 113 174 116 Q 176 118 173 122 Q 167 127 151 149 Q 150 150 150 151" fill="#CCCCCC"/><path d="M 197 149 Q 155 159 135 171 L 150 151 Q 150 150 194 145 L 198 149" fill="#CCCCCC"/><path d="M 194 145 Q 182 129 182 128 Q 183 125 185 126 Q 190 128 199 132 Q 213 138 215 148 Q 217 158 214 161 Q 212 162 210 162 Q 209 162 198 149" fill="#CCCCCC"/><path d="M 120 226 L 120 223 Q 114 202 108 189 Q 106 185 107 184 Q 108 182 111 183 Q 117 184 121 185 L 126 194 Q 127 201 130 221 Q 131 225 131 228 L 121 229" fill="#CCCCCC"/><path d="M 121 185 Q 130 184 143 182 Q 170 178 197 175 Q 213 169 217 173 Q 224 177 231 182 L 208 185 Q 206 183 203 184 Q 192 184 183 186 L 171 186 Q 154 188 151 189 L 144 190 Q 127 193 126 194" fill="#CCCCCC"/><path d="M 231 182 Q 238 187 233 193 Q 225 200 218 220 L 202 222 Q 211 191 208 185" fill="#CCCCCC"/><path d="M 151 189 Q 152 191 152 194 Q 152 194 153 195 Q 157 217 156 226 L 150 227 Q 146 221 146 205 Q 145 198 144 190" fill="#CCCCCC"/><path d="M 183 186 Q 188 188 189 190 Q 192 192 189 195 Q 186 201 185 205 Q 182 215 179 223 Q 178 223 178 224 L 170 225 Q 170 224 170 224 Q 173 214 174 206 Q 174 197 171 186" fill="#CCCCCC"/><path d="M 131 228 Q 141 227 150 227 L 156 226 Q 160 226 163 226 Q 167 225 170 225 L 178 224 Q 190 223 202 222 L 218 220 Q 222 219 227 219 Q 242 215 257 227 Q 262 231 260 234 Q 258 236 253 236 Q 156 230 93 244 Q 88 245 83 243 Q 78 241 74 237 Q 71 233 76 232 Q 100 230 121 229" fill="#CCCCCC"/><path d="M 61 85 Q 48 87 39 82 Q 32 79 41 76 Q 56 74 74 68 Q 97 59 103 60 Q 111 61 113 65 Q 115 67 112 69 Q 111 70 72 82" fill="#0000ff" clip-path="url(#clip-mask-1)" /><path d="M 47 157 Q 24 186 10 190 Q 7 190 9 188 Q 31 164 39 151 Q 40 148 42 145 L 48 135 Q 67 100 61 85 L 72 82 Q 75 82 79 85 Q 82 87 83 89 Q 83 90 79 99 Q 69 121 61 135" fill="#0000ff" clip-path="url(#clip-mask-2)" /><path d="M 63 191 L 62 195 Q 60 199 56 194 Q 52 188 51 181 Q 49 168 47 157 L 42 145 Q 41 142 40 140 Q 38 136 40 134 Q 41 133 44 134 Q 46 134 48 135 L 57 144 Q 58 151 61 175 L 63 184" fill="#0000ff" clip-path="url(#clip-mask-3)" /><path d="M 87 139 Q 86 137 81 138 Q 60 144 57 144 L 48 135 L 61 135 Q 79 128 84 125 Q 87 123 90 123 Q 90 123 107 131 Q 113 135 108 142" fill="#0000ff" clip-path="url(#clip-mask-4)" /><path d="M 84 167 Q 89 141 87 139 L 108 142 Q 102 148 98 167" fill="#0000ff" clip-path="url(#clip-mask-5)" /><path d="M 61 175 Q 71 171 83 167 L 84 167 L 98 167 Q 104 171 104 173 Q 104 175 101 176 Q 65 182 63 184" fill="#0000ff" clip-path="url(#clip-mask-6)" /><path d="M 166 83 Q 163 84 161 84 Q 143 87 134 82 Q 127 78 136 76 Q 152 75 166 72 L 180 68 Q 200 62 206 64 Q 213 66 215 68 Q 215 71 214 73 Q 212 74 202 76 Q 190 78 179 81" fill="#000080" clip-path="url(#clip-mask-7)" /><path d="M 166 103 Q 166 93 166 83 L 166 72 Q 165 57 164 43 Q 164 39 159 32 Q 157 28 159 27 Q 161 24 166 25 Q 172 26 181 31 Q 181 32 182 32 Q 186 36 183 44 Q 180 59 180 68 L 179 81 Q 178 90 177 101" fill="#000080" clip-path="url(#clip-mask-8)" /><path d="M 153 115 Q 140 117 129 120 Q 126 122 121 121 Q 117 120 114 117 Q 110 113 115 112 Q 142 107 166 103 L 177 101 Q 192 98 204 95 Q 219 90 232 99 Q 236 102 235 105 Q 234 107 220 107 Q 187 108 166 112" fill="#000080" clip-path="url(#clip-mask-9)" /><path d="M 135 171 Q 133 173 131 172 Q 128 171 125 167 Q 123 162 123 159 Q 123 156 129 153 Q 136 149 140 145 Q 141 144 141 144 Q 153 129 153 115 L 166 112 Q 172 113 174 116 Q 176 118 173 122 Q 167 127 151 149 Q 150 150 150 151" fill="#000080" clip-path="url(#clip-mask-10)" /><path d="M 197 149 Q 155 159 135 171 L 150 151 Q 150 150 194 145 L 198 149" fill="#000080" clip-path="url(#clip-mask-11)" /><path d="M 194 145 Q 182 129 182 128 Q 183 125 185 126 Q 190 128 199 132 Q 213 138 215 148 Q 217 158 214 161 Q 212 162 210 162 Q 209 162 198 149" fill="#000080" clip-path="url(#clip-mask-12)" /><path d="M 120 226 L 120 223 Q 114 202 108 189 Q 106 185 107 184 Q 108 182 111 183 Q 117 184 121 185 L 126 194 Q 127 201 130 221 Q 131 225 131 228 L 121 229" fill="#000080" clip-path="url(#clip-mask-13)" /><path d="M 121 185 Q 130 184 143 182 Q 170 178 197 175 Q 213 169 217 173 Q 224 177 231 182 L 208 185 Q 206 183 203 184 Q 192 184 183 186 L 171 186 Q 154 188 151 189 L 144 190 Q 127 193 126 194" fill="#000080" clip-path="url(#clip-mask-14)" /><path d="M 231 182 Q 238 187 233 193 Q 225 200 218 220 L 202 222 Q 211 191 208 185" fill="#000080" clip-path="url(#clip-mask-15)" /><path d="M 151 189 Q 152 191 152 194 Q 152 194 153 195 Q 157 217 156 226 L 150 227 Q 146 221 146 205 Q 145 198 144 190" fill="#000080" clip-path="url(#clip-mask-16)" /><path d="M 183 186 Q 188 188 189 190 Q 192 192 189 195 Q 186 201 185 205 Q 182 215 179 223 Q 178 223 178 224 L 170 225 Q 170 224 170 224 Q 173 214 174 206 Q 174 197 171 186" fill="#000080" clip-path="url(#clip-mask-17)" /><path d="M 131 228 Q 141 227 150 227 L 156 226 Q 160 226 163 226 Q 167 225 170 225 L 178 224 Q 190 223 202 222 L 218 220 Q 222 219 227 219 Q 242 215 257 227 Q 262 231 260 234 Q 258 236 253 236 Q 156 230 93 244 Q 88 245 83 243 Q 78 241 74 237 Q 71 233 76 232 Q 100 230 121 229" fill="#000080" clip-path="url(#clip-mask-18)" /><rect x="32" y="59" width="83" height="28" id="rect-1" fill="transparent" stroke="#000000"><animate attributeName="x" from="-51" to="32" dur="0.307" begin="0; animate18.end + 1s" id="animate1" fill="freeze"/></rect><rect x="7" y="82" width="76" height="108" id="rect-2" fill="transparent" stroke="#000000"><set attributeName="y" to="-26" begin="0; animate18.end + 1s" /><animate attributeName="y" from="-26" to="82" dur="0.400" begin="animate1.end + 0.5" id="animate2" fill="freeze"/></rect><rect x="38" y="133" width="25" height="66" id="rect-3" fill="transparent" stroke="#000000"><set attributeName="y" to="67" begin="0; animate18.end + 1s" /><animate attributeName="y" from="67" to="133" dur="0.244" begin="animate2.end + 0.5" id="animate3" fill="freeze"/></rect><rect x="48" y="123" width="65" height="21" id="rect-4" fill="transparent" stroke="#000000"><set attributeName="x" to="-17" begin="0; animate18.end + 1s" /><animate attributeName="x" from="-17" to="48" dur="0.241" begin="animate3.end + 0.5" id="animate4" fill="freeze"/></rect><rect x="84" y="139" width="24" height="28" id="rect-5" fill="transparent" stroke="#000000"><set attributeName="y" to="111" begin="0; animate18.end + 1s" /><animate attributeName="y" from="111" to="139" dur="0.104" begin="animate4.end" id="animate5" fill="freeze"/></rect><rect x="61" y="167" width="43" height="17" id="rect-6" fill="transparent" stroke="#000000"><set attributeName="x" to="18" begin="0; animate18.end + 1s" /><animate attributeName="x" from="18" to="61" dur="0.159" begin="animate5.end + 0.5" id="animate6" fill="freeze"/></rect><rect x="127" y="62" width="88" height="25" id="rect-7" fill="transparent" stroke="#000000"><set attributeName="x" to="39" begin="0; animate18.end + 1s" /><animate attributeName="x" from="39" to="127" dur="0.326" begin="animate6.end + 0.5" id="animate7" fill="freeze"/></rect><rect x="157" y="24" width="29" height="79" id="rect-8" fill="transparent" stroke="#000000"><set attributeName="y" to="-55" begin="0; animate18.end + 1s" /><animate attributeName="y" from="-55" to="24" dur="0.293" begin="animate7.end + 0.5" id="animate8" fill="freeze"/></rect><rect x="110" y="90" width="126" height="32" id="rect-9" fill="transparent" stroke="#000000"><set attributeName="x" to="-16" begin="0; animate18.end + 1s" /><animate attributeName="x" from="-16" to="110" dur="0.467" begin="animate8.end + 0.5" id="animate9" fill="freeze"/></rect><rect x="123" y="112" width="53" height="61" id="rect-10" fill="transparent" stroke="#000000"><set attributeName="y" to="51" begin="0; animate18.end + 1s" /><animate attributeName="y" from="51" to="112" dur="0.226" begin="animate9.end + 0.5" id="animate10" fill="freeze"/></rect><rect x="135" y="145" width="63" height="26" id="rect-11" fill="transparent" stroke="#000000"><set attributeName="x" to="72" begin="0; animate18.end + 1s" /><animate attributeName="x" from="72" to="135" dur="0.233" begin="animate10.end" id="animate11" fill="freeze"/></rect><rect x="182" y="125" width="35" height="37" id="rect-12" fill="transparent" stroke="#000000"><set attributeName="y" to="88" begin="0; animate18.end + 1s" /><animate attributeName="y" from="88" to="125" dur="0.137" begin="animate11.end + 0.5" id="animate12" fill="freeze"/></rect><rect x="106" y="182" width="25" height="47" id="rect-13" fill="transparent" stroke="#000000"><set attributeName="y" to="135" begin="0; animate18.end + 1s" /><animate attributeName="y" from="135" to="182" dur="0.174" begin="animate12.end + 0.5" id="animate13" fill="freeze"/></rect><rect x="121" y="169" width="110" height="25" id="rect-14" fill="transparent" stroke="#000000"><set attributeName="x" to="11" begin="0; animate18.end + 1s" /><animate attributeName="x" from="11" to="121" dur="0.407" begin="animate13.end + 0.5" id="animate14" fill="freeze"/></rect><rect x="202" y="182" width="36" height="40" id="rect-15" fill="transparent" stroke="#000000"><set attributeName="y" to="142" begin="0; animate18.end + 1s" /><animate attributeName="y" from="142" to="182" dur="0.148" begin="animate14.end" id="animate15" fill="freeze"/></rect><rect x="144" y="189" width="13" height="38" id="rect-16" fill="transparent" stroke="#000000"><set attributeName="y" to="151" begin="0; animate18.end + 1s" /><animate attributeName="y" from="151" to="189" dur="0.141" begin="animate15.end + 0.5" id="animate16" fill="freeze"/></rect><rect x="170" y="186" width="22" height="39" id="rect-17" fill="transparent" stroke="#000000"><set attributeName="y" to="147" begin="0; animate18.end + 1s" /><animate attributeName="y" from="147" to="186" dur="0.144" begin="animate16.end + 0.5" id="animate17" fill="freeze"/></rect><rect x="71" y="215" width="191" height="30" id="rect-18" fill="transparent" stroke="#000000"><set attributeName="x" to="-120" begin="0; animate18.end + 1s" /><animate attributeName="x" from="-120" to="71" dur="0.707" begin="animate17.end + 0.5" id="animate18" fill="freeze"/></rect></svg>