<svg xmlns="http://www.w3.org/2000/svg" xmlns:xlink="http://www.w3.org/1999/xlink" width="270" height="270"><defs><clipPath id="clip-mask-1"><use xlink:href="#rect-1" /></clipPath><clipPath id="clip-mask-2"><use xlink:href="#rect-2" /></clipPath><clipPath id="clip-mask-3"><use xlink:href="#rect-3" /></clipPath><clipPath id="clip-mask-4"><use xlink:href="#rect-4" /></clipPath><clipPath id="clip-mask-5"><use xlink:href="#rect-5" /></clipPath><clipPath id="clip-mask-6"><use xlink:href="#rect-6" /></clipPath><clipPath id="clip-mask-7"><use xlink:href="#rect-7" /></clipPath><clipPath id="clip-mask-8"><use xlink:href="#rect-8" /></clipPath><clipPath id="clip-mask-9"><use xlink:href="#rect-9" /></clipPath><clipPath id="clip-mask-10"><use xlink:href="#rect-10" /></clipPath><clipPath id="clip-mask-11"><use xlink:href="#rect-11" /></clipPath><clipPath id="clip-mask-12"><use xlink:href="#rect-12" /></clipPath><clipPath id="clip-mask-13"><use xlink:href="#rect-13" /></clipPath><clipPath id="clip-mask-14"><use xlink:href="#rect-14" /></clipPath><clipPath id="clip-mask-15"><use xlink:href="#rect-15" /></clipPath><clipPath id="clip-mask-16"><use xlink:href="#rect-16" /></clipPath><clipPath id="clip-mask-17"><use xlink:href="#rect-17" /></clipPath></defs><path d="M 0 0 L 270 270 M 270 0 L 0 270 M 135 0 L 135 270 M 0 135 L 270 135" stroke="#CCCCCC" /><path d="M 76 60 Q 73 61 72 62 Q 51 70 48 70 Q 47 69 48 67 Q 49 66 50 65 Q 92 41 92 34 Q 92 31 94 30 Q 103 29 116 38 Q 119 40 118 42 Q 117 44 113 45 Q 104 47 85 57" fill="#CCCCCC"/><path d="M 76 103 Q 75 103 74 104 Q 60 108 40 115 Q 30 119 20 112 Q 16 110 17 107 Q 17 105 21 105 Q 35 103 80 92 L 91 89 Q 108 84 116 87 Q 120 89 120 92 Q 120 94 116 95 Q 102 97 90 100" fill="#CCCCCC"/><path d="M 89 165 L 89 212 Q 90 220 86 228 Q 85 232 82 231 Q 80 230 77 225 L 77 224 Q 68 210 71 201 Q 72 198 79 124 L 80 92 Q 79 66 76 60 L 85 57 Q 89 59 92 62 Q 94 63 93 67 Q 92 74 91 89 L 90 100 Q 90 113 90 121 L 89 125" fill="#CCCCCC"/><path d="M 79 124 Q 67 144 54 157 Q 25 186 21 185 Q 18 185 19 183 Q 47 152 58 135 Q 68 120 76 103 L 80 92" fill="#CCCCCC"/><path d="M 90 121 Q 92 119 106 124 Q 112 127 113 130 Q 116 136 115 139 Q 113 142 112 142 Q 109 142 105 140 Q 100 135 95 131 Q 90 127 89 125" fill="#CCCCCC"/><path d="M 149 54 Q 150 51 152 48 Q 165 21 163 16 Q 161 13 164 12 Q 167 11 173 12 Q 180 14 184 18 Q 187 21 183 24 Q 177 29 166 43 Q 162 46 157 52" fill="#CCCCCC"/><path d="M 150 102 Q 150 103 150 105 Q 149 108 145 104 Q 140 99 139 94 Q 134 73 127 61 Q 125 58 126 56 Q 127 55 129 55 Q 134 56 137 57 L 143 64 Q 143 67 145 74 L 146 81 Q 149 90 150 95" fill="#CCCCCC"/><path d="M 137 57 Q 143 55 149 54 L 157 52 Q 185 44 191 44 Q 210 39 214 42 Q 227 49 231 53 L 205 51 Q 203 50 196 51 Q 159 58 143 64" fill="#CCCCCC"/><path d="M 198 89 Q 202 75 206 58 Q 207 52 205 51 L 231 53 Q 235 57 230 61 Q 220 69 216 81 Q 211 93 208 95 Q 206 99 203 99 Q 199 100 198 96" fill="#CCCCCC"/><path d="M 145 74 Q 153 73 161 71 Q 169 70 175 68 Q 181 65 186 66 Q 192 68 193 70 Q 194 71 192 73 Q 191 74 185 75 Q 183 75 181 76 Q 157 81 146 81" fill="#CCCCCC"/><path d="M 160 100 Q 156 100 152 101 Q 151 102 150 102 L 150 95 Q 167 92 188 88 Q 194 86 197 88 Q 198 88 198 89 L 198 96 Q 180 97 168 99" fill="#CCCCCC"/><path d="M 165 142 L 163 137 Q 162 135 163 132 Q 163 109 160 102 Q 160 101 160 100 L 168 99 Q 170 100 173 101 Q 177 104 176 108 Q 175 113 174 117 Q 173 135 172 140 L 167 145" fill="#CCCCCC"/><path d="M 134 112 L 136 111 Q 137 111 138 113 Q 140 118 139 126 Q 140 137 130 145 Q 126 147 124 144 Q 120 137 124 129 Q 129 122 133 113" fill="#CCCCCC"/><path d="M 217 106 L 216 103 Q 215 100 216 99 Q 217 98 221 98 Q 245 99 249 106 Q 253 112 253 116 Q 252 120 250 120 Q 246 122 242 119 Q 233 113 225 109" fill="#CCCCCC"/><path d="M 172 140 Q 191 121 191 113 Q 191 111 193 111 Q 200 111 205 119 Q 207 123 207 124 Q 206 126 205 127 Q 203 128 201 130 Q 182 147 171 154 Q 170 154 170 155 Q 139 174 124 172 Q 123 171 124 170 Q 146 159 167 145" fill="#CCCCCC"/><path d="M 198 140 L 199 140 Q 202 140 206 143 Q 213 148 213 153 Q 213 156 211 156 Q 210 157 207 159 Q 190 175 173 188 Q 140 208 126 206 Q 125 205 126 204 Q 150 192 160 186 Q 160 185 161 185 Q 197 159 197 143" fill="#CCCCCC"/><path d="M 202 172 L 204 172 Q 213 172 220 183 Q 223 187 223 189 Q 222 192 220 193 Q 218 194 214 197 Q 190 220 175 231 Q 172 232 170 234 Q 131 258 111 257 Q 109 255 111 254 Q 141 239 154 230 Q 155 230 156 229 Q 200 198 202 175" fill="#CCCCCC"/><path d="M 76 60 Q 73 61 72 62 Q 51 70 48 70 Q 47 69 48 67 Q 49 66 50 65 Q 92 41 92 34 Q 92 31 94 30 Q 103 29 116 38 Q 119 40 118 42 Q 117 44 113 45 Q 104 47 85 57" fill="#0000ff" clip-path="url(#clip-mask-1)" /><path d="M 76 103 Q 75 103 74 104 Q 60 108 40 115 Q 30 119 20 112 Q 16 110 17 107 Q 17 105 21 105 Q 35 103 80 92 L 91 89 Q 108 84 116 87 Q 120 89 120 92 Q 120 94 116 95 Q 102 97 90 100" fill="#0000ff" clip-path="url(#clip-mask-2)" /><path d="M 89 165 L 89 212 Q 90 220 86 228 Q 85 232 82 231 Q 80 230 77 225 L 77 224 Q 68 210 71 201 Q 72 198 79 124 L 80 92 Q 79 66 76 60 L 85 57 Q 89 59 92 62 Q 94 63 93 67 Q 92 74 91 89 L 90 100 Q 90 113 90 121 L 89 125" fill="#0000ff" clip-path="url(#clip-mask-3)" /><path d="M 79 124 Q 67 144 54 157 Q 25 186 21 185 Q 18 185 19 183 Q 47 152 58 135 Q 68 120 76 103 L 80 92" fill="#0000ff" clip-path="url(#clip-mask-4)" /><path d="M 90 121 Q 92 119 106 124 Q 112 127 113 130 Q 116 136 115 139 Q 113 142 112 142 Q 109 142 105 140 Q 100 135 95 131 Q 90 127 89 125" fill="#0000ff" clip-path="url(#clip-mask-5)" /><path d="M 149 54 Q 150 51 152 48 Q 165 21 163 16 Q 161 13 164 12 Q 167 11 173 12 Q 180 14 184 18 Q 187 21 183 24 Q 177 29 166 43 Q 162 46 157 52" fill="#000080" clip-path="url(#clip-mask-6)" /><path d="M 150 102 Q 150 103 150 105 Q 149 108 145 104 Q 140 99 139 94 Q 134 73 127 61 Q 125 58 126 56 Q 127 55 129 55 Q 134 56 137 57 L 143 64 Q 143 67 145 74 L 146 81 Q 149 90 150 95" fill="#000080" clip-path="url(#clip-mask-7)" /><path d="M 137 57 Q 143 55 149 54 L 157 52 Q 185 44 191 44 Q 210 39 214 42 Q 227 49 231 53 L 205 51 Q 203 50 196 51 Q 159 58 143 64" fill="#000080" clip-path="url(#clip-mask-8)" /><path d="M 198 89 Q 202 75 206 58 Q 207 52 205 51 L 231 53 Q 235 57 230 61 Q 220 69 216 81 Q 211 93 208 95 Q 206 99 203 99 Q 199 100 198 96" fill="#000080" clip-path="url(#clip-mask-9)" /><path d="M 145 74 Q 153 73 161 71 Q 169 70 175 68 Q 181 65 186 66 Q 192 68 193 70 Q 194 71 192 73 Q 191 74 185 75 Q 183 75 181 76 Q 157 81 146 81" fill="#000080" clip-path="url(#clip-mask-10)" /><path d="M 160 100 Q 156 100 152 101 Q 151 102 150 102 L 150 95 Q 167 92 188 88 Q 194 86 197 88 Q 198 88 198 89 L 198 96 Q 180 97 168 99" fill="#000080" clip-path="url(#clip-mask-11)" /><path d="M 165 142 L 163 137 Q 162 135 163 132 Q 163 109 160 102 Q 160 101 160 100 L 168 99 Q 170 100 173 101 Q 177 104 176 108 Q 175 113 174 117 Q 173 135 172 140 L 167 145" fill="#000080" clip-path="url(#clip-mask-12)" /><path d="M 134 112 L 136 111 Q 137 111 138 113 Q 140 118 139 126 Q 140 137 130 145 Q 126 147 124 144 Q 120 137 124 129 Q 129 122 133 113" fill="#000080" clip-path="url(#clip-mask-13)" /><path d="M 217 106 L 216 103 Q 215 100 216 99 Q 217 98 221 98 Q 245 99 249 106 Q 253 112 253 116 Q 252 120 250 120 Q 246 122 242 119 Q 233 113 225 109" fill="#000080" clip-path="url(#clip-mask-14)" /><path d="M 172 140 Q 191 121 191 113 Q 191 111 193 111 Q 200 111 205 119 Q 207 123 207 124 Q 206 126 205 127 Q 203 128 201 130 Q 182 147 171 154 Q 170 154 170 155 Q 139 174 124 172 Q 123 171 124 170 Q 146 159 167 145" fill="#000080" clip-path="url(#clip-mask-15)" /><path d="M 198 140 L 199 140 Q 202 140 206 143 Q 213 148 213 153 Q 213 156 211 156 Q 210 157 207 159 Q 190 175 173 188 Q 140 208 126 206 Q 125 205 126 204 Q 150 192 160 186 Q 160 185 161 185 Q 197 159 197 143" fill="#000080" clip-path="url(#clip-mask-16)" /><path d="M 202 172 L 204 172 Q 213 172 220 183 Q 223 187 223 189 Q 222 192 220 193 Q 218 194 214 197 Q 190 220 175 231 Q 172 232 170 234 Q 131 258 111 257 Q 109 255 111 254 Q 141 239 154 230 Q 155 230 156 229 Q 200 198 202 175" fill="#000080" clip-path="url(#clip-mask-17)" /><rect x="47" y="29" width="72" height="41" id="rect-1" fill="transparent" stroke="#000000"><animate attributeName="x" from="119" to="47" dur="0.267" begin="0; animate17.end + 1s" id="animate1" fill="freeze"/></rect><rect x="16" y="84" width="104" height="35" id="rect-2" fill="transparent" stroke="#000000"><set attributeName="x" to="-88" begin="0; animate17.end + 1s" /><animate attributeName="x" from="-88" to="16" dur="0.385" begin="animate1.end + 0.5" id="animate2" fill="freeze"/></rect><rect x="68" y="57" width="26" height="175" id="rect-3" fill="transparent" stroke="#000000"><set attributeName="y" to="-118" begin="0; animate17.end + 1s" /><animate attributeName="y" from="-118" to="57" dur="0.648" begin="animate2.end + 0.5" id="animate3" fill="freeze"/></rect><rect x="18" y="92" width="62" height="94" id="rect-4" fill="transparent" stroke="#000000"><set attributeName="x" to="80" begin="0; animate17.end + 1s" /><animate attributeName="x" from="80" to="18" dur="0.230" begin="animate3.end + 0.5" id="animate4" fill="freeze"/></rect><rect x="89" y="119" width="27" height="23" id="rect-5" fill="transparent" stroke="#000000"><set attributeName="x" to="62" begin="0; animate17.end + 1s" /><animate attributeName="x" from="62" to="89" dur="0.100" begin="animate4.end + 0.5" id="animate5" fill="freeze"/></rect><rect x="149" y="11" width="38" height="43" id="rect-6" fill="transparent" stroke="#000000"><set attributeName="y" to="-32" begin="0; animate17.end + 1s" /><animate attributeName="y" from="-32" to="11" dur="0.159" begin="animate5.end + 0.5" id="animate6" fill="freeze"/></rect><rect x="125" y="55" width="25" height="53" id="rect-7" fill="transparent" stroke="#000000"><set attributeName="y" to="2" begin="0; animate17.end + 1s" /><animate attributeName="y" from="2" to="55" dur="0.196" begin="animate6.end + 0.5" id="animate7" fill="freeze"/></rect><rect x="137" y="39" width="94" height="25" id="rect-8" fill="transparent" stroke="#000000"><set attributeName="x" to="43" begin="0; animate17.end + 1s" /><animate attributeName="x" from="43" to="137" dur="0.348" begin="animate7.end + 0.5" id="animate8" fill="freeze"/></rect><rect x="198" y="51" width="37" height="49" id="rect-9" fill="transparent" stroke="#000000"><set attributeName="y" to="2" begin="0; animate17.end + 1s" /><animate attributeName="y" from="2" to="51" dur="0.181" begin="animate8.end" id="animate9" fill="freeze"/></rect><rect x="145" y="65" width="49" height="16" id="rect-10" fill="transparent" stroke="#000000"><set attributeName="x" to="96" begin="0; animate17.end + 1s" /><animate attributeName="x" from="96" to="145" dur="0.181" begin="animate9.end + 0.5" id="animate10" fill="freeze"/></rect><rect x="150" y="86" width="48" height="16" id="rect-11" fill="transparent" stroke="#000000"><set attributeName="x" to="102" begin="0; animate17.end + 1s" /><animate attributeName="x" from="102" to="150" dur="0.178" begin="animate10.end + 0.5" id="animate11" fill="freeze"/></rect><rect x="160" y="99" width="17" height="46" id="rect-12" fill="transparent" stroke="#000000"><set attributeName="y" to="53" begin="0; animate17.end + 1s" /><animate attributeName="y" from="53" to="99" dur="0.170" begin="animate11.end + 0.5" id="animate12" fill="freeze"/></rect><rect x="120" y="111" width="20" height="36" id="rect-13" fill="transparent" stroke="#000000"><set attributeName="y" to="75" begin="0; animate17.end + 1s" /><animate attributeName="y" from="75" to="111" dur="0.133" begin="animate12.end + 0.5" id="animate13" fill="freeze"/></rect><rect x="215" y="98" width="38" height="24" id="rect-14" fill="transparent" stroke="#000000"><set attributeName="x" to="177" begin="0; animate17.end + 1s" /><animate attributeName="x" from="177" to="215" dur="0.141" begin="animate13.end + 0.5" id="animate14" fill="freeze"/></rect><rect x="123" y="111" width="84" height="63" id="rect-15" fill="transparent" stroke="#000000"><set attributeName="y" to="48" begin="0; animate17.end + 1s" /><animate attributeName="y" from="48" to="111" dur="0.233" begin="animate14.end + 0.5" id="animate15" fill="freeze"/></rect><rect x="125" y="140" width="88" height="68" id="rect-16" fill="transparent" stroke="#000000"><set attributeName="y" to="72" begin="0; animate17.end + 1s" /><animate attributeName="y" from="72" to="140" dur="0.252" begin="animate15.end + 0.5" id="animate16" fill="freeze"/></rect><rect x="109" y="172" width="114" height="86" id="rect-17" fill="transparent" stroke="#000000"><set attributeName="y" to="86" begin="0; animate17.end + 1s" /><animate attributeName="y" from="86" to="172" dur="0.319" begin="animate16.end + 0.5" id="animate17" fill="freeze"/></rect></svg>