<svg xmlns="http://www.w3.org/2000/svg" xmlns:xlink="http://www.w3.org/1999/xlink" width="270" height="270"><defs><clipPath id="clip-mask-1"><use xlink:href="#rect-1" /></clipPath><clipPath id="clip-mask-2"><use xlink:href="#rect-2" /></clipPath><clipPath id="clip-mask-3"><use xlink:href="#rect-3" /></clipPath><clipPath id="clip-mask-4"><use xlink:href="#rect-4" /></clipPath><clipPath id="clip-mask-5"><use xlink:href="#rect-5" /></clipPath><clipPath id="clip-mask-6"><use xlink:href="#rect-6" /></clipPath><clipPath id="clip-mask-7"><use xlink:href="#rect-7" /></clipPath><clipPath id="clip-mask-8"><use xlink:href="#rect-8" /></clipPath><clipPath id="clip-mask-9"><use xlink:href="#rect-9" /></clipPath><clipPath id="clip-mask-10"><use xlink:href="#rect-10" /></clipPath></defs><path d="M 0 0 L 270 270 M 270 0 L 0 270 M 135 0 L 135 270 M 0 135 L 270 135" stroke="#CCCCCC" /><path d="M 63 90 L 44 105 Q 38 110 33 111 Q 30 112 31 108 Q 41 96 43 95 Q 71 64 68 38 Q 68 35 70 34 Q 77 34 88 42 Q 91 45 89 49 Q 83 56 78 66 L 74 72" fill="#CCCCCC"/><path d="M 78 66 Q 85 64 91 62 Q 114 56 118 56 Q 125 57 127 60 Q 128 62 126 64 Q 126 65 120 66 Q 107 70 95 73 Q 84 76 74 72" fill="#CCCCCC"/><path d="M 78 88 L 78 86 Q 78 83 81 84 Q 84 85 92 89 Q 98 91 100 95 Q 102 100 101 103 Q 99 107 96 107 Q 90 106 79 90" fill="#CCCCCC"/><path d="M 142 75 L 129 87 Q 124 92 119 93 Q 116 95 118 91 Q 120 87 126 80 Q 148 50 143 27 Q 142 24 145 23 Q 150 21 162 28 Q 166 32 163 35 Q 158 44 153 54 L 150 61" fill="#CCCCCC"/><path d="M 153 54 Q 162 53 170 52 Q 177 49 184 47 Q 192 44 200 45 Q 209 47 210 50 Q 212 52 209 54 Q 208 55 202 57 Q 188 60 175 63 Q 161 67 150 61" fill="#CCCCCC"/><path d="M 153 85 L 152 83 Q 151 80 152 78 Q 154 78 158 78 Q 179 83 182 90 Q 184 97 183 100 Q 182 104 180 104 Q 176 104 172 101 Q 166 95 159 90" fill="#CCCCCC"/><path d="M 109 134 Q 106 134 105 134 Q 90 138 79 131 Q 73 127 82 126 Q 93 124 120 119 Q 152 110 159 111 Q 166 113 168 116 Q 169 118 167 120 Q 166 120 123 131" fill="#CCCCCC"/><path d="M 109 173 Q 89 175 71 180 Q 56 184 48 177 Q 44 172 49 172 Q 82 167 111 163 L 126 161 Q 161 155 181 150 Q 191 148 205 158 Q 209 162 208 165 Q 207 167 202 167 Q 151 167 127 170" fill="#CCCCCC"/><path d="M 111 205 L 98 217 Q 73 240 37 241 Q 32 241 36 238 Q 48 232 59 227 Q 97 206 109 173 L 111 163 Q 114 152 113 145 Q 112 137 109 134 L 123 131 Q 129 133 131 135 Q 133 138 132 141 Q 128 146 126 161 L 122 176" fill="#CCCCCC"/><path d="M 126 161 L 127 170 Q 127 171 128 171 Q 157 200 182 216 Q 182 216 235 240 Q 239 242 239 244 Q 238 245 233 245 Q 212 248 193 246 Q 181 245 176 238 Q 147 208 122 176" fill="#CCCCCC"/><path d="M 63 90 L 44 105 Q 38 110 33 111 Q 30 112 31 108 Q 41 96 43 95 Q 71 64 68 38 Q 68 35 70 34 Q 77 34 88 42 Q 91 45 89 49 Q 83 56 78 66 L 74 72" fill="#0000ff" clip-path="url(#clip-mask-1)" /><path d="M 78 66 Q 85 64 91 62 Q 114 56 118 56 Q 125 57 127 60 Q 128 62 126 64 Q 126 65 120 66 Q 107 70 95 73 Q 84 76 74 72" fill="#0000ff" clip-path="url(#clip-mask-2)" /><path d="M 78 88 L 78 86 Q 78 83 81 84 Q 84 85 92 89 Q 98 91 100 95 Q 102 100 101 103 Q 99 107 96 107 Q 90 106 79 90" fill="#0000ff" clip-path="url(#clip-mask-3)" /><path d="M 142 75 L 129 87 Q 124 92 119 93 Q 116 95 118 91 Q 120 87 126 80 Q 148 50 143 27 Q 142 24 145 23 Q 150 21 162 28 Q 166 32 163 35 Q 158 44 153 54 L 150 61" fill="#0000ff" clip-path="url(#clip-mask-4)" /><path d="M 153 54 Q 162 53 170 52 Q 177 49 184 47 Q 192 44 200 45 Q 209 47 210 50 Q 212 52 209 54 Q 208 55 202 57 Q 188 60 175 63 Q 161 67 150 61" fill="#0000ff" clip-path="url(#clip-mask-5)" /><path d="M 153 85 L 152 83 Q 151 80 152 78 Q 154 78 158 78 Q 179 83 182 90 Q 184 97 183 100 Q 182 104 180 104 Q 176 104 172 101 Q 166 95 159 90" fill="#0000ff" clip-path="url(#clip-mask-6)" /><path d="M 109 134 Q 106 134 105 134 Q 90 138 79 131 Q 73 127 82 126 Q 93 124 120 119 Q 152 110 159 111 Q 166 113 168 116 Q 169 118 167 120 Q 166 120 123 131" fill="#000080" clip-path="url(#clip-mask-7)" /><path d="M 109 173 Q 89 175 71 180 Q 56 184 48 177 Q 44 172 49 172 Q 82 167 111 163 L 126 161 Q 161 155 181 150 Q 191 148 205 158 Q 209 162 208 165 Q 207 167 202 167 Q 151 167 127 170" fill="#000080" clip-path="url(#clip-mask-8)" /><path d="M 111 205 L 98 217 Q 73 240 37 241 Q 32 241 36 238 Q 48 232 59 227 Q 97 206 109 173 L 111 163 Q 114 152 113 145 Q 112 137 109 134 L 123 131 Q 129 133 131 135 Q 133 138 132 141 Q 128 146 126 161 L 122 176" fill="#000080" clip-path="url(#clip-mask-9)" /><path d="M 126 161 L 127 170 Q 127 171 128 171 Q 157 200 182 216 Q 182 216 235 240 Q 239 242 239 244 Q 238 245 233 245 Q 212 248 193 246 Q 181 245 176 238 Q 147 208 122 176" fill="#000080" clip-path="url(#clip-mask-10)" /><rect x="30" y="34" width="61" height="78" id="rect-1" fill="transparent" stroke="#000000"><animate attributeName="y" from="-44" to="34" dur="0.289" begin="0; animate10.end + 1s" id="animate1" fill="freeze"/></rect><rect x="74" y="56" width="54" height="20" id="rect-2" fill="transparent" stroke="#000000"><set attributeName="x" to="20" begin="0; animate10.end + 1s" /><animate attributeName="x" from="20" to="74" dur="0.200" begin="animate1.end + 0.5" id="animate2" fill="freeze"/></rect><rect x="78" y="83" width="24" height="24" id="rect-3" fill="transparent" stroke="#000000"><set attributeName="x" to="54" begin="0; animate10.end + 1s" /><animate attributeName="x" from="54" to="78" dur="0.089" begin="animate2.end + 0.5" id="animate3" fill="freeze"/></rect><rect x="116" y="21" width="50" height="74" id="rect-4" fill="transparent" stroke="#000000"><set attributeName="y" to="-53" begin="0; animate10.end + 1s" /><animate attributeName="y" from="-53" to="21" dur="0.274" begin="animate3.end + 0.5" id="animate4" fill="freeze"/></rect><rect x="150" y="44" width="62" height="23" id="rect-5" fill="transparent" stroke="#000000"><set attributeName="x" to="88" begin="0; animate10.end + 1s" /><animate attributeName="x" from="88" to="150" dur="0.230" begin="animate4.end + 0.5" id="animate5" fill="freeze"/></rect><rect x="151" y="78" width="33" height="26" id="rect-6" fill="transparent" stroke="#000000"><set attributeName="x" to="118" begin="0; animate10.end + 1s" /><animate attributeName="x" from="118" to="151" dur="0.122" begin="animate5.end + 0.5" id="animate6" fill="freeze"/></rect><rect x="73" y="110" width="96" height="28" id="rect-7" fill="transparent" stroke="#000000"><set attributeName="x" to="-23" begin="0; animate10.end + 1s" /><animate attributeName="x" from="-23" to="73" dur="0.356" begin="animate6.end + 0.5" id="animate7" fill="freeze"/></rect><rect x="44" y="148" width="165" height="36" id="rect-8" fill="transparent" stroke="#000000"><set attributeName="x" to="-121" begin="0; animate10.end + 1s" /><animate attributeName="x" from="-121" to="44" dur="0.611" begin="animate7.end + 0.5" id="animate8" fill="freeze"/></rect><rect x="32" y="131" width="101" height="110" id="rect-9" fill="transparent" stroke="#000000"><set attributeName="y" to="21" begin="0; animate10.end + 1s" /><animate attributeName="y" from="21" to="131" dur="0.407" begin="animate8.end + 0.5" id="animate9" fill="freeze"/></rect><rect x="122" y="161" width="117" height="87" id="rect-10" fill="transparent" stroke="#000000"><set attributeName="x" to="5" begin="0; animate10.end + 1s" /><animate attributeName="x" from="5" to="122" dur="0.433" begin="animate9.end + 0.5" id="animate10" fill="freeze"/></rect></svg>