<svg xmlns="http://www.w3.org/2000/svg" xmlns:xlink="http://www.w3.org/1999/xlink" width="270" height="270"><defs><clipPath id="clip-mask-1"><use xlink:href="#rect-1" /></clipPath><clipPath id="clip-mask-2"><use xlink:href="#rect-2" /></clipPath><clipPath id="clip-mask-3"><use xlink:href="#rect-3" /></clipPath><clipPath id="clip-mask-4"><use xlink:href="#rect-4" /></clipPath><clipPath id="clip-mask-5"><use xlink:href="#rect-5" /></clipPath><clipPath id="clip-mask-6"><use xlink:href="#rect-6" /></clipPath><clipPath id="clip-mask-7"><use xlink:href="#rect-7" /></clipPath><clipPath id="clip-mask-8"><use xlink:href="#rect-8" /></clipPath><clipPath id="clip-mask-9"><use xlink:href="#rect-9" /></clipPath><clipPath id="clip-mask-10"><use xlink:href="#rect-10" /></clipPath><clipPath id="clip-mask-11"><use xlink:href="#rect-11" /></clipPath><clipPath id="clip-mask-12"><use xlink:href="#rect-12" /></clipPath><clipPath id="clip-mask-13"><use xlink:href="#rect-13" /></clipPath><clipPath id="clip-mask-14"><use xlink:href="#rect-14" /></clipPath><clipPath id="clip-mask-15"><use xlink:href="#rect-15" /></clipPath><clipPath id="clip-mask-16"><use xlink:href="#rect-16" /></clipPath><clipPath id="clip-mask-17"><use xlink:href="#rect-17" /></clipPath></defs><path d="M 0 0 L 270 270 M 270 0 L 0 270 M 135 0 L 135 270 M 0 135 L 270 135" stroke="#CCCCCC" /><path d="M 98 58 L 95 64 Q 75 92 63 93 Q 59 94 61 90 Q 65 83 70 79 Q 93 51 89 30 Q 89 25 91 25 Q 97 24 109 32 Q 113 36 110 39 Q 107 43 105 48 L 101 54" fill="#CCCCCC"/><path d="M 105 48 Q 111 47 116 46 Q 137 41 141 42 Q 148 44 150 46 Q 151 48 149 50 Q 148 51 143 52 Q 139 52 135 53 Q 111 57 101 54" fill="#CCCCCC"/><path d="M 99 75 L 98 72 Q 98 69 99 68 Q 103 67 116 72 Q 122 74 123 78 Q 125 84 124 88 Q 123 91 121 91 Q 117 91 105 79" fill="#CCCCCC"/><path d="M 178 49 L 175 57 Q 158 86 146 89 Q 142 91 144 87 Q 149 78 152 74 Q 171 42 166 23 Q 165 19 167 18 Q 174 16 186 24 Q 191 27 189 31 Q 185 36 182 42 L 179 49" fill="#CCCCCC"/><path d="M 182 42 Q 190 41 197 39 Q 218 32 224 33 Q 232 34 234 37 Q 235 39 233 41 Q 232 42 227 44 Q 218 46 208 49 Q 190 53 179 49" fill="#CCCCCC"/><path d="M 177 74 L 176 71 Q 176 68 177 67 Q 178 67 182 67 Q 201 71 203 76 Q 206 82 205 86 Q 204 89 202 89 Q 199 89 184 78" fill="#CCCCCC"/><path d="M 86 144 Q 75 146 66 148 Q 52 152 41 146 Q 34 141 43 139 Q 56 138 93 129 L 106 125 Q 114 119 125 121 Q 133 123 135 126 Q 137 128 134 131 Q 133 132 105 139" fill="#CCCCCC"/><path d="M 103 226 L 103 234 Q 103 248 97 251 Q 95 253 94 252 Q 92 251 91 247 Q 85 234 90 215 Q 91 210 93 156 L 93 129 Q 92 111 87 102 Q 86 99 87 98 Q 91 94 96 98 Q 108 105 110 108 Q 110 111 109 114 Q 107 119 106 125 L 105 139 Q 104 151 104 162 L 104 168" fill="#CCCCCC"/><path d="M 93 156 Q 73 193 42 217 Q 39 220 38 219 Q 35 219 36 216 Q 72 173 86 144 L 93 129" fill="#CCCCCC"/><path d="M 104 162 Q 107 161 123 164 Q 130 166 132 170 Q 135 177 135 180 Q 134 183 131 184 Q 128 184 125 182 Q 117 176 110 172 Q 106 169 104 168" fill="#CCCCCC"/><path d="M 159 228 L 157 231 Q 154 234 151 231 Q 150 228 148 226 Q 144 218 149 191 Q 153 136 146 123 Q 145 121 145 119 Q 143 116 145 115 Q 148 114 150 115 Q 156 116 158 119 L 162 127 Q 161 129 161 148 L 161 154 Q 161 163 160 177 L 160 184 Q 160 212 160 215 L 159 224" fill="#CCCCCC"/><path d="M 208 120 Q 206 118 200 119 Q 187 122 171 125 Q 166 127 162 127 L 158 119 Q 186 114 204 106 Q 207 103 212 106 Q 226 112 231 118" fill="#CCCCCC"/><path d="M 211 214 Q 212 208 212 191 Q 215 126 208 120 L 231 118 Q 233 120 231 123 Q 226 129 227 137 Q 228 187 230 215 Q 231 227 226 238 Q 222 247 217 247 Q 214 247 212 242" fill="#CCCCCC"/><path d="M 206 217 Q 210 218 211 214 L 212 242 Q 206 232 197 221" fill="#CCCCCC"/><path d="M 161 148 Q 167 147 173 146 Q 191 141 194 142 Q 200 143 201 145 Q 203 147 201 149 Q 200 149 196 150 Q 171 156 161 154" fill="#CCCCCC"/><path d="M 160 177 Q 167 177 172 176 Q 191 172 194 173 Q 200 174 201 176 Q 202 178 200 180 Q 200 181 196 181 Q 190 182 185 183 Q 168 186 160 184" fill="#CCCCCC"/><path d="M 160 215 Q 173 213 187 210 Q 195 208 199 210 Q 206 215 206 217 L 197 221 Q 172 222 159 224" fill="#CCCCCC"/><path d="M 98 58 L 95 64 Q 75 92 63 93 Q 59 94 61 90 Q 65 83 70 79 Q 93 51 89 30 Q 89 25 91 25 Q 97 24 109 32 Q 113 36 110 39 Q 107 43 105 48 L 101 54" fill="#0000ff" clip-path="url(#clip-mask-1)" /><path d="M 105 48 Q 111 47 116 46 Q 137 41 141 42 Q 148 44 150 46 Q 151 48 149 50 Q 148 51 143 52 Q 139 52 135 53 Q 111 57 101 54" fill="#0000ff" clip-path="url(#clip-mask-2)" /><path d="M 99 75 L 98 72 Q 98 69 99 68 Q 103 67 116 72 Q 122 74 123 78 Q 125 84 124 88 Q 123 91 121 91 Q 117 91 105 79" fill="#0000ff" clip-path="url(#clip-mask-3)" /><path d="M 178 49 L 175 57 Q 158 86 146 89 Q 142 91 144 87 Q 149 78 152 74 Q 171 42 166 23 Q 165 19 167 18 Q 174 16 186 24 Q 191 27 189 31 Q 185 36 182 42 L 179 49" fill="#0000ff" clip-path="url(#clip-mask-4)" /><path d="M 182 42 Q 190 41 197 39 Q 218 32 224 33 Q 232 34 234 37 Q 235 39 233 41 Q 232 42 227 44 Q 218 46 208 49 Q 190 53 179 49" fill="#0000ff" clip-path="url(#clip-mask-5)" /><path d="M 177 74 L 176 71 Q 176 68 177 67 Q 178 67 182 67 Q 201 71 203 76 Q 206 82 205 86 Q 204 89 202 89 Q 199 89 184 78" fill="#0000ff" clip-path="url(#clip-mask-6)" /><path d="M 86 144 Q 75 146 66 148 Q 52 152 41 146 Q 34 141 43 139 Q 56 138 93 129 L 106 125 Q 114 119 125 121 Q 133 123 135 126 Q 137 128 134 131 Q 133 132 105 139" fill="#000080" clip-path="url(#clip-mask-7)" /><path d="M 103 226 L 103 234 Q 103 248 97 251 Q 95 253 94 252 Q 92 251 91 247 Q 85 234 90 215 Q 91 210 93 156 L 93 129 Q 92 111 87 102 Q 86 99 87 98 Q 91 94 96 98 Q 108 105 110 108 Q 110 111 109 114 Q 107 119 106 125 L 105 139 Q 104 151 104 162 L 104 168" fill="#000080" clip-path="url(#clip-mask-8)" /><path d="M 93 156 Q 73 193 42 217 Q 39 220 38 219 Q 35 219 36 216 Q 72 173 86 144 L 93 129" fill="#000080" clip-path="url(#clip-mask-9)" /><path d="M 104 162 Q 107 161 123 164 Q 130 166 132 170 Q 135 177 135 180 Q 134 183 131 184 Q 128 184 125 182 Q 117 176 110 172 Q 106 169 104 168" fill="#000080" clip-path="url(#clip-mask-10)" /><path d="M 159 228 L 157 231 Q 154 234 151 231 Q 150 228 148 226 Q 144 218 149 191 Q 153 136 146 123 Q 145 121 145 119 Q 143 116 145 115 Q 148 114 150 115 Q 156 116 158 119 L 162 127 Q 161 129 161 148 L 161 154 Q 161 163 160 177 L 160 184 Q 160 212 160 215 L 159 224" fill="#000080" clip-path="url(#clip-mask-11)" /><path d="M 208 120 Q 206 118 200 119 Q 187 122 171 125 Q 166 127 162 127 L 158 119 Q 186 114 204 106 Q 207 103 212 106 Q 226 112 231 118" fill="#000080" clip-path="url(#clip-mask-12)" /><path d="M 211 214 Q 212 208 212 191 Q 215 126 208 120 L 231 118 Q 233 120 231 123 Q 226 129 227 137 Q 228 187 230 215 Q 231 227 226 238 Q 222 247 217 247 Q 214 247 212 242" fill="#000080" clip-path="url(#clip-mask-13)" /><path d="M 206 217 Q 210 218 211 214 L 212 242 Q 206 232 197 221" fill="#000080" clip-path="url(#clip-mask-14)" /><path d="M 161 148 Q 167 147 173 146 Q 191 141 194 142 Q 200 143 201 145 Q 203 147 201 149 Q 200 149 196 150 Q 171 156 161 154" fill="#000080" clip-path="url(#clip-mask-15)" /><path d="M 160 177 Q 167 177 172 176 Q 191 172 194 173 Q 200 174 201 176 Q 202 178 200 180 Q 200 181 196 181 Q 190 182 185 183 Q 168 186 160 184" fill="#000080" clip-path="url(#clip-mask-16)" /><path d="M 160 215 Q 173 213 187 210 Q 195 208 199 210 Q 206 215 206 217 L 197 221 Q 172 222 159 224" fill="#000080" clip-path="url(#clip-mask-17)" /><rect x="59" y="24" width="54" height="70" id="rect-1" fill="transparent" stroke="#000000"><animate attributeName="y" from="-46" to="24" dur="0.259" begin="0; animate17.end + 1s" id="animate1" fill="freeze"/></rect><rect x="101" y="41" width="50" height="16" id="rect-2" fill="transparent" stroke="#000000"><set attributeName="x" to="51" begin="0; animate17.end + 1s" /><animate attributeName="x" from="51" to="101" dur="0.185" begin="animate1.end + 0.5" id="animate2" fill="freeze"/></rect><rect x="98" y="67" width="27" height="24" id="rect-3" fill="transparent" stroke="#000000"><set attributeName="x" to="71" begin="0; animate17.end + 1s" /><animate attributeName="x" from="71" to="98" dur="0.100" begin="animate2.end + 0.5" id="animate3" fill="freeze"/></rect><rect x="142" y="16" width="49" height="75" id="rect-4" fill="transparent" stroke="#000000"><set attributeName="y" to="-59" begin="0; animate17.end + 1s" /><animate attributeName="y" from="-59" to="16" dur="0.278" begin="animate3.end + 0.5" id="animate4" fill="freeze"/></rect><rect x="179" y="32" width="56" height="21" id="rect-5" fill="transparent" stroke="#000000"><set attributeName="x" to="123" begin="0; animate17.end + 1s" /><animate attributeName="x" from="123" to="179" dur="0.207" begin="animate4.end + 0.5" id="animate5" fill="freeze"/></rect><rect x="176" y="67" width="30" height="22" id="rect-6" fill="transparent" stroke="#000000"><set attributeName="x" to="146" begin="0; animate17.end + 1s" /><animate attributeName="x" from="146" to="176" dur="0.111" begin="animate5.end + 0.5" id="animate6" fill="freeze"/></rect><rect x="34" y="119" width="103" height="33" id="rect-7" fill="transparent" stroke="#000000"><set attributeName="x" to="-69" begin="0; animate17.end + 1s" /><animate attributeName="x" from="-69" to="34" dur="0.381" begin="animate6.end + 0.5" id="animate7" fill="freeze"/></rect><rect x="85" y="94" width="25" height="159" id="rect-8" fill="transparent" stroke="#000000"><set attributeName="y" to="-65" begin="0; animate17.end + 1s" /><animate attributeName="y" from="-65" to="94" dur="0.589" begin="animate7.end + 0.5" id="animate8" fill="freeze"/></rect><rect x="35" y="129" width="58" height="91" id="rect-9" fill="transparent" stroke="#000000"><set attributeName="y" to="38" begin="0; animate17.end + 1s" /><animate attributeName="y" from="38" to="129" dur="0.337" begin="animate8.end + 0.5" id="animate9" fill="freeze"/></rect><rect x="104" y="161" width="31" height="23" id="rect-10" fill="transparent" stroke="#000000"><set attributeName="x" to="73" begin="0; animate17.end + 1s" /><animate attributeName="x" from="73" to="104" dur="0.115" begin="animate9.end + 0.5" id="animate10" fill="freeze"/></rect><rect x="143" y="114" width="19" height="120" id="rect-11" fill="transparent" stroke="#000000"><set attributeName="y" to="-6" begin="0; animate17.end + 1s" /><animate attributeName="y" from="-6" to="114" dur="0.444" begin="animate10.end + 0.5" id="animate11" fill="freeze"/></rect><rect x="158" y="103" width="73" height="24" id="rect-12" fill="transparent" stroke="#000000"><set attributeName="x" to="85" begin="0; animate17.end + 1s" /><animate attributeName="x" from="85" to="158" dur="0.270" begin="animate11.end + 0.5" id="animate12" fill="freeze"/></rect><rect x="208" y="118" width="25" height="129" id="rect-13" fill="transparent" stroke="#000000"><set attributeName="y" to="-11" begin="0; animate17.end + 1s" /><animate attributeName="y" from="-11" to="118" dur="0.478" begin="animate12.end" id="animate13" fill="freeze"/></rect><rect x="197" y="214" width="15" height="28" id="rect-14" fill="transparent" stroke="#000000"><set attributeName="x" to="212" begin="0; animate17.end + 1s" /><animate attributeName="x" from="212" to="197" dur="0.056" begin="animate13.end" id="animate14" fill="freeze"/></rect><rect x="161" y="141" width="42" height="15" id="rect-15" fill="transparent" stroke="#000000"><set attributeName="x" to="119" begin="0; animate17.end + 1s" /><animate attributeName="x" from="119" to="161" dur="0.156" begin="animate14.end + 0.5" id="animate15" fill="freeze"/></rect><rect x="160" y="172" width="42" height="14" id="rect-16" fill="transparent" stroke="#000000"><set attributeName="x" to="118" begin="0; animate17.end + 1s" /><animate attributeName="x" from="118" to="160" dur="0.156" begin="animate15.end + 0.5" id="animate16" fill="freeze"/></rect><rect x="159" y="208" width="47" height="16" id="rect-17" fill="transparent" stroke="#000000"><set attributeName="x" to="112" begin="0; animate17.end + 1s" /><animate attributeName="x" from="112" to="159" dur="0.174" begin="animate16.end + 0.5" id="animate17" fill="freeze"/></rect></svg>