<svg xmlns="http://www.w3.org/2000/svg" xmlns:xlink="http://www.w3.org/1999/xlink" width="270" height="270"><defs><clipPath id="clip-mask-1"><use xlink:href="#rect-1" /></clipPath><clipPath id="clip-mask-2"><use xlink:href="#rect-2" /></clipPath><clipPath id="clip-mask-3"><use xlink:href="#rect-3" /></clipPath><clipPath id="clip-mask-4"><use xlink:href="#rect-4" /></clipPath><clipPath id="clip-mask-5"><use xlink:href="#rect-5" /></clipPath><clipPath id="clip-mask-6"><use xlink:href="#rect-6" /></clipPath><clipPath id="clip-mask-7"><use xlink:href="#rect-7" /></clipPath><clipPath id="clip-mask-8"><use xlink:href="#rect-8" /></clipPath><clipPath id="clip-mask-9"><use xlink:href="#rect-9" /></clipPath><clipPath id="clip-mask-10"><use xlink:href="#rect-10" /></clipPath><clipPath id="clip-mask-11"><use xlink:href="#rect-11" /></clipPath><clipPath id="clip-mask-12"><use xlink:href="#rect-12" /></clipPath><clipPath id="clip-mask-13"><use xlink:href="#rect-13" /></clipPath><clipPath id="clip-mask-14"><use xlink:href="#rect-14" /></clipPath><clipPath id="clip-mask-15"><use xlink:href="#rect-15" /></clipPath><clipPath id="clip-mask-16"><use xlink:href="#rect-16" /></clipPath><clipPath id="clip-mask-17"><use xlink:href="#rect-17" /></clipPath><clipPath id="clip-mask-18"><use xlink:href="#rect-18" /></clipPath><clipPath id="clip-mask-19"><use xlink:href="#rect-19" /></clipPath><clipPath id="clip-mask-20"><use xlink:href="#rect-20" /></clipPath></defs><path d="M 0 0 L 270 270 M 270 0 L 0 270 M 135 0 L 135 270 M 0 135 L 270 135" stroke="#CCCCCC" /><path d="M 41 75 L 41 74 Q 42 70 44 71 Q 48 72 56 76 Q 61 78 64 81 Q 65 87 65 91 Q 63 95 59 95 Q 52 94 43 78" fill="#CCCCCC"/><path d="M 108 59 L 108 57 Q 107 53 110 53 Q 114 53 117 56 Q 121 59 122 61 Q 123 63 120 64 Q 113 69 99 81 Q 98 82 97 82 Q 96 81 96 80 Q 104 69 107 62" fill="#CCCCCC"/><path d="M 74 117 Q 73 117 73 117 Q 62 121 45 128 Q 36 132 26 126 Q 22 124 23 121 Q 23 119 27 119 Q 47 114 79 105 L 90 102 Q 99 98 106 101 Q 110 102 110 105 Q 110 107 106 108 Q 97 110 89 112" fill="#CCCCCC"/><path d="M 88 211 L 88 221 Q 88 237 81 241 Q 79 244 78 242 Q 76 241 74 236 Q 68 220 70 211 Q 73 202 75 193 Q 77 181 78 136 L 79 105 Q 79 99 79 94 Q 79 72 79 53 Q 79 40 70 27 Q 69 23 70 22 Q 75 19 81 23 Q 87 26 91 29 Q 99 35 95 41 Q 90 61 90 102 L 89 112 Q 89 128 89 142 L 89 147" fill="#CCCCCC"/><path d="M 78 136 Q 58 174 27 200 Q 25 202 23 202 Q 20 202 22 200 Q 47 167 58 149 Q 68 134 74 117 L 79 105" fill="#CCCCCC"/><path d="M 89 142 Q 90 141 92 142 Q 110 145 112 150 Q 115 156 114 159 Q 113 162 111 162 Q 108 162 105 160 Q 99 155 93 151 Q 90 149 89 147" fill="#CCCCCC"/><path d="M 189 63 Q 175 65 164 68 L 153 70 Q 151 71 149 71 Q 138 72 132 68 Q 127 65 133 64 Q 143 62 152 61 L 164 60 Q 175 58 188 55 Q 189 55 189 55 L 201 52 Q 222 45 229 50 Q 233 52 233 54 Q 231 57 200 61" fill="#CCCCCC"/><path d="M 143 151 Q 142 153 142 155 Q 141 158 137 154 Q 132 148 131 140 Q 126 113 118 96 Q 116 92 117 91 Q 118 90 120 91 Q 129 92 131 93 L 133 102 Q 135 112 141 137 Q 142 141 142 145" fill="#CCCCCC"/><path d="M 199 81 L 199 81 Q 213 79 223 76 Q 227 75 232 78 Q 242 85 246 89 L 222 89 Q 216 84 198 89 L 187 90 Q 175 92 165 94 L 156 96 Q 143 99 133 102 L 131 93 Q 142 91 155 89 L 165 87 Q 177 85 187 83 L 198 82" fill="#CCCCCC"/><path d="M 246 89 Q 249 93 245 96 Q 239 102 237 110 Q 227 143 223 149 Q 219 154 216 153 Q 212 150 208 143 L 211 136 Q 215 133 224 97 Q 225 92 222 89" fill="#CCCCCC"/><path d="M 196 105 Q 200 104 204 105 Q 209 106 211 109 Q 213 112 208 112 Q 201 113 195 114 L 185 116 Q 176 118 167 120 L 158 121 Q 156 122 154 122 Q 148 123 145 121 Q 141 118 144 117 Q 150 115 157 114 L 167 112 Q 176 109 186 107" fill="#CCCCCC"/><path d="M 167 120 Q 168 129 169 140 L 159 142 Q 159 130 158 121 L 157 114 Q 157 104 156 96 L 155 89 Q 154 77 153 70 L 152 61 Q 148 49 143 38 Q 141 34 143 32 Q 145 31 148 32 Q 155 34 161 38 Q 164 41 164 47 Q 163 50 164 60 L 164 68 Q 164 72 164 78 Q 165 82 165 87 L 165 94 Q 166 102 167 112" fill="#CCCCCC"/><path d="M 198 89 Q 197 97 196 105 L 195 114 Q 194 125 193 135 L 183 137 Q 184 126 185 116 L 186 107 Q 186 99 187 90 L 187 83 Q 188 73 189 63 L 189 55 Q 189 46 189 38 Q 190 31 183 21 Q 182 17 184 15 Q 185 13 190 14 Q 196 16 204 21 Q 208 25 207 27 Q 202 44 201 52 L 200 61 Q 199 71 198 82" fill="#CCCCCC"/><path d="M 208 143 Q 183 146 150 151 Q 146 151 143 151 L 142 145 Q 151 143 159 142 L 169 140 Q 176 139 183 137 L 193 135 Q 206 133 211 136" fill="#CCCCCC"/><path d="M 150 239 L 148 241 Q 146 244 144 241 Q 135 231 138 220 Q 139 212 139 206 Q 139 205 139 204 Q 138 185 135 173 Q 133 170 135 169 Q 138 168 140 169 Q 143 170 145 172 Q 145 172 145 172 L 151 179 Q 150 190 150 200 L 150 206 Q 151 217 151 228 L 150 236" fill="#CCCCCC"/><path d="M 145 172 Q 172 171 196 161 Q 199 159 204 161 Q 215 167 220 172 L 199 173 Q 196 170 190 172 Q 176 174 159 178 Q 153 179 151 179" fill="#CCCCCC"/><path d="M 200 225 Q 201 223 201 213 Q 203 176 199 173 L 220 172 Q 222 174 219 177 Q 213 184 218 221 Q 217 240 214 248 Q 210 255 206 256 Q 203 256 201 251" fill="#CCCCCC"/><path d="M 196 229 Q 199 230 200 225 L 201 251 Q 196 243 189 233" fill="#CCCCCC"/><path d="M 150 200 Q 173 192 181 193 Q 187 194 190 197 Q 192 200 186 201 Q 172 203 154 206 Q 151 206 150 206" fill="#CCCCCC"/><path d="M 151 228 Q 163 226 178 223 Q 185 221 189 223 Q 194 226 196 229 L 189 233 Q 158 234 150 236" fill="#CCCCCC"/><path d="M 41 75 L 41 74 Q 42 70 44 71 Q 48 72 56 76 Q 61 78 64 81 Q 65 87 65 91 Q 63 95 59 95 Q 52 94 43 78" fill="#0000ff" clip-path="url(#clip-mask-1)" /><path d="M 108 59 L 108 57 Q 107 53 110 53 Q 114 53 117 56 Q 121 59 122 61 Q 123 63 120 64 Q 113 69 99 81 Q 98 82 97 82 Q 96 81 96 80 Q 104 69 107 62" fill="#0000ff" clip-path="url(#clip-mask-2)" /><path d="M 74 117 Q 73 117 73 117 Q 62 121 45 128 Q 36 132 26 126 Q 22 124 23 121 Q 23 119 27 119 Q 47 114 79 105 L 90 102 Q 99 98 106 101 Q 110 102 110 105 Q 110 107 106 108 Q 97 110 89 112" fill="#0000ff" clip-path="url(#clip-mask-3)" /><path d="M 88 211 L 88 221 Q 88 237 81 241 Q 79 244 78 242 Q 76 241 74 236 Q 68 220 70 211 Q 73 202 75 193 Q 77 181 78 136 L 79 105 Q 79 99 79 94 Q 79 72 79 53 Q 79 40 70 27 Q 69 23 70 22 Q 75 19 81 23 Q 87 26 91 29 Q 99 35 95 41 Q 90 61 90 102 L 89 112 Q 89 128 89 142 L 89 147" fill="#0000ff" clip-path="url(#clip-mask-4)" /><path d="M 78 136 Q 58 174 27 200 Q 25 202 23 202 Q 20 202 22 200 Q 47 167 58 149 Q 68 134 74 117 L 79 105" fill="#0000ff" clip-path="url(#clip-mask-5)" /><path d="M 89 142 Q 90 141 92 142 Q 110 145 112 150 Q 115 156 114 159 Q 113 162 111 162 Q 108 162 105 160 Q 99 155 93 151 Q 90 149 89 147" fill="#0000ff" clip-path="url(#clip-mask-6)" /><path d="M 189 63 Q 175 65 164 68 L 153 70 Q 151 71 149 71 Q 138 72 132 68 Q 127 65 133 64 Q 143 62 152 61 L 164 60 Q 175 58 188 55 Q 189 55 189 55 L 201 52 Q 222 45 229 50 Q 233 52 233 54 Q 231 57 200 61" fill="#000080" clip-path="url(#clip-mask-7)" /><path d="M 143 151 Q 142 153 142 155 Q 141 158 137 154 Q 132 148 131 140 Q 126 113 118 96 Q 116 92 117 91 Q 118 90 120 91 Q 129 92 131 93 L 133 102 Q 135 112 141 137 Q 142 141 142 145" fill="#000080" clip-path="url(#clip-mask-8)" /><path d="M 199 81 L 199 81 Q 213 79 223 76 Q 227 75 232 78 Q 242 85 246 89 L 222 89 Q 216 84 198 89 L 187 90 Q 175 92 165 94 L 156 96 Q 143 99 133 102 L 131 93 Q 142 91 155 89 L 165 87 Q 177 85 187 83 L 198 82" fill="#000080" clip-path="url(#clip-mask-9)" /><path d="M 246 89 Q 249 93 245 96 Q 239 102 237 110 Q 227 143 223 149 Q 219 154 216 153 Q 212 150 208 143 L 211 136 Q 215 133 224 97 Q 225 92 222 89" fill="#000080" clip-path="url(#clip-mask-10)" /><path d="M 196 105 Q 200 104 204 105 Q 209 106 211 109 Q 213 112 208 112 Q 201 113 195 114 L 185 116 Q 176 118 167 120 L 158 121 Q 156 122 154 122 Q 148 123 145 121 Q 141 118 144 117 Q 150 115 157 114 L 167 112 Q 176 109 186 107" fill="#000080" clip-path="url(#clip-mask-11)" /><path d="M 167 120 Q 168 129 169 140 L 159 142 Q 159 130 158 121 L 157 114 Q 157 104 156 96 L 155 89 Q 154 77 153 70 L 152 61 Q 148 49 143 38 Q 141 34 143 32 Q 145 31 148 32 Q 155 34 161 38 Q 164 41 164 47 Q 163 50 164 60 L 164 68 Q 164 72 164 78 Q 165 82 165 87 L 165 94 Q 166 102 167 112" fill="#000080" clip-path="url(#clip-mask-12)" /><path d="M 198 89 Q 197 97 196 105 L 195 114 Q 194 125 193 135 L 183 137 Q 184 126 185 116 L 186 107 Q 186 99 187 90 L 187 83 Q 188 73 189 63 L 189 55 Q 189 46 189 38 Q 190 31 183 21 Q 182 17 184 15 Q 185 13 190 14 Q 196 16 204 21 Q 208 25 207 27 Q 202 44 201 52 L 200 61 Q 199 71 198 82" fill="#000080" clip-path="url(#clip-mask-13)" /><path d="M 208 143 Q 183 146 150 151 Q 146 151 143 151 L 142 145 Q 151 143 159 142 L 169 140 Q 176 139 183 137 L 193 135 Q 206 133 211 136" fill="#000080" clip-path="url(#clip-mask-14)" /><path d="M 150 239 L 148 241 Q 146 244 144 241 Q 135 231 138 220 Q 139 212 139 206 Q 139 205 139 204 Q 138 185 135 173 Q 133 170 135 169 Q 138 168 140 169 Q 143 170 145 172 Q 145 172 145 172 L 151 179 Q 150 190 150 200 L 150 206 Q 151 217 151 228 L 150 236" fill="#000080" clip-path="url(#clip-mask-15)" /><path d="M 145 172 Q 172 171 196 161 Q 199 159 204 161 Q 215 167 220 172 L 199 173 Q 196 170 190 172 Q 176 174 159 178 Q 153 179 151 179" fill="#000080" clip-path="url(#clip-mask-16)" /><path d="M 200 225 Q 201 223 201 213 Q 203 176 199 173 L 220 172 Q 222 174 219 177 Q 213 184 218 221 Q 217 240 214 248 Q 210 255 206 256 Q 203 256 201 251" fill="#000080" clip-path="url(#clip-mask-17)" /><path d="M 196 229 Q 199 230 200 225 L 201 251 Q 196 243 189 233" fill="#000080" clip-path="url(#clip-mask-18)" /><path d="M 150 200 Q 173 192 181 193 Q 187 194 190 197 Q 192 200 186 201 Q 172 203 154 206 Q 151 206 150 206" fill="#000080" clip-path="url(#clip-mask-19)" /><path d="M 151 228 Q 163 226 178 223 Q 185 221 189 223 Q 194 226 196 229 L 189 233 Q 158 234 150 236" fill="#000080" clip-path="url(#clip-mask-20)" /><rect x="41" y="70" width="24" height="25" id="rect-1" fill="transparent" stroke="#000000"><animate attributeName="x" from="17" to="41" dur="0.089" begin="0; animate20.end + 1s" id="animate1" fill="freeze"/></rect><rect x="96" y="53" width="27" height="29" id="rect-2" fill="transparent" stroke="#000000"><set attributeName="y" to="24" begin="0; animate20.end + 1s" /><animate attributeName="y" from="24" to="53" dur="0.107" begin="animate1.end + 0.5" id="animate2" fill="freeze"/></rect><rect x="22" y="98" width="88" height="34" id="rect-3" fill="transparent" stroke="#000000"><set attributeName="x" to="-66" begin="0; animate20.end + 1s" /><animate attributeName="x" from="-66" to="22" dur="0.326" begin="animate2.end + 0.5" id="animate3" fill="freeze"/></rect><rect x="68" y="19" width="31" height="225" id="rect-4" fill="transparent" stroke="#000000"><set attributeName="y" to="-206" begin="0; animate20.end + 1s" /><animate attributeName="y" from="-206" to="19" dur="0.833" begin="animate3.end + 0.5" id="animate4" fill="freeze"/></rect><rect x="20" y="105" width="59" height="97" id="rect-5" fill="transparent" stroke="#000000"><set attributeName="y" to="8" begin="0; animate20.end + 1s" /><animate attributeName="y" from="8" to="105" dur="0.359" begin="animate4.end + 0.5" id="animate5" fill="freeze"/></rect><rect x="89" y="141" width="26" height="21" id="rect-6" fill="transparent" stroke="#000000"><set attributeName="x" to="63" begin="0; animate20.end + 1s" /><animate attributeName="x" from="63" to="89" dur="0.096" begin="animate5.end + 0.5" id="animate6" fill="freeze"/></rect><rect x="127" y="45" width="106" height="27" id="rect-7" fill="transparent" stroke="#000000"><set attributeName="x" to="21" begin="0; animate20.end + 1s" /><animate attributeName="x" from="21" to="127" dur="0.393" begin="animate6.end + 0.5" id="animate7" fill="freeze"/></rect><rect x="116" y="90" width="27" height="68" id="rect-8" fill="transparent" stroke="#000000"><set attributeName="y" to="22" begin="0; animate20.end + 1s" /><animate attributeName="y" from="22" to="90" dur="0.252" begin="animate7.end + 0.5" id="animate8" fill="freeze"/></rect><rect x="131" y="75" width="115" height="27" id="rect-9" fill="transparent" stroke="#000000"><set attributeName="x" to="16" begin="0; animate20.end + 1s" /><animate attributeName="x" from="16" to="131" dur="0.426" begin="animate8.end + 0.5" id="animate9" fill="freeze"/></rect><rect x="208" y="89" width="41" height="65" id="rect-10" fill="transparent" stroke="#000000"><set attributeName="y" to="24" begin="0; animate20.end + 1s" /><animate attributeName="y" from="24" to="89" dur="0.241" begin="animate9.end" id="animate10" fill="freeze"/></rect><rect x="141" y="104" width="72" height="19" id="rect-11" fill="transparent" stroke="#000000"><set attributeName="x" to="69" begin="0; animate20.end + 1s" /><animate attributeName="x" from="69" to="141" dur="0.267" begin="animate10.end + 0.5" id="animate11" fill="freeze"/></rect><rect x="141" y="31" width="28" height="111" id="rect-12" fill="transparent" stroke="#000000"><set attributeName="y" to="-80" begin="0; animate20.end + 1s" /><animate attributeName="y" from="-80" to="31" dur="0.411" begin="animate11.end + 0.5" id="animate12" fill="freeze"/></rect><rect x="182" y="13" width="26" height="124" id="rect-13" fill="transparent" stroke="#000000"><set attributeName="y" to="-111" begin="0; animate20.end + 1s" /><animate attributeName="y" from="-111" to="13" dur="0.459" begin="animate12.end + 0.5" id="animate13" fill="freeze"/></rect><rect x="142" y="133" width="69" height="18" id="rect-14" fill="transparent" stroke="#000000"><set attributeName="x" to="73" begin="0; animate20.end + 1s" /><animate attributeName="x" from="73" to="142" dur="0.256" begin="animate13.end + 0.5" id="animate14" fill="freeze"/></rect><rect x="133" y="168" width="18" height="76" id="rect-15" fill="transparent" stroke="#000000"><set attributeName="y" to="92" begin="0; animate20.end + 1s" /><animate attributeName="y" from="92" to="168" dur="0.281" begin="animate14.end + 0.5" id="animate15" fill="freeze"/></rect><rect x="145" y="159" width="75" height="20" id="rect-16" fill="transparent" stroke="#000000"><set attributeName="x" to="70" begin="0; animate20.end + 1s" /><animate attributeName="x" from="70" to="145" dur="0.278" begin="animate15.end + 0.5" id="animate16" fill="freeze"/></rect><rect x="199" y="172" width="23" height="84" id="rect-17" fill="transparent" stroke="#000000"><set attributeName="y" to="88" begin="0; animate20.end + 1s" /><animate attributeName="y" from="88" to="172" dur="0.311" begin="animate16.end" id="animate17" fill="freeze"/></rect><rect x="189" y="225" width="12" height="26" id="rect-18" fill="transparent" stroke="#000000"><set attributeName="x" to="201" begin="0; animate20.end + 1s" /><animate attributeName="x" from="201" to="189" dur="0.044" begin="animate17.end" id="animate18" fill="freeze"/></rect><rect x="150" y="192" width="42" height="14" id="rect-19" fill="transparent" stroke="#000000"><set attributeName="x" to="108" begin="0; animate20.end + 1s" /><animate attributeName="x" from="108" to="150" dur="0.156" begin="animate18.end + 0.5" id="animate19" fill="freeze"/></rect><rect x="150" y="221" width="46" height="15" id="rect-20" fill="transparent" stroke="#000000"><set attributeName="x" to="104" begin="0; animate20.end + 1s" /><animate attributeName="x" from="104" to="150" dur="0.170" begin="animate19.end + 0.5" id="animate20" fill="freeze"/></rect></svg>