<svg xmlns="http://www.w3.org/2000/svg" xmlns:xlink="http://www.w3.org/1999/xlink" width="270" height="270"><defs><clipPath id="clip-mask-1"><use xlink:href="#rect-1" /></clipPath><clipPath id="clip-mask-2"><use xlink:href="#rect-2" /></clipPath><clipPath id="clip-mask-3"><use xlink:href="#rect-3" /></clipPath><clipPath id="clip-mask-4"><use xlink:href="#rect-4" /></clipPath><clipPath id="clip-mask-5"><use xlink:href="#rect-5" /></clipPath><clipPath id="clip-mask-6"><use xlink:href="#rect-6" /></clipPath><clipPath id="clip-mask-7"><use xlink:href="#rect-7" /></clipPath><clipPath id="clip-mask-8"><use xlink:href="#rect-8" /></clipPath><clipPath id="clip-mask-9"><use xlink:href="#rect-9" /></clipPath><clipPath id="clip-mask-10"><use xlink:href="#rect-10" /></clipPath><clipPath id="clip-mask-11"><use xlink:href="#rect-11" /></clipPath></defs><path d="M 0 0 L 270 270 M 270 0 L 0 270 M 135 0 L 135 270 M 0 135 L 270 135" stroke="#CCCCCC" /><path d="M 41 130 Q 37 132 34 129 Q 30 124 29 119 Q 28 116 33 111 Q 44 102 50 92 Q 74 48 70 36 Q 68 32 71 31 Q 76 30 81 34 Q 92 43 92 47 Q 93 49 89 54 Q 71 77 51 108" fill="#CCCCCC"/><path d="M 76 119 Q 51 124 41 130 L 51 108 Q 47 113 55 113 Q 67 112 81 111" fill="#CCCCCC"/><path d="M 53 173 Q 49 176 46 173 Q 39 167 39 164 Q 38 160 42 158 Q 48 155 76 119 L 81 111 Q 92 92 92 84 Q 92 80 94 79 Q 97 78 101 81 Q 110 86 112 91 Q 114 94 111 97 Q 95 109 62 151" fill="#CCCCCC"/><path d="M 101 149 Q 72 159 53 173 L 62 151 Q 60 156 64 154 Q 83 147 99 144 L 102 149" fill="#CCCCCC"/><path d="M 99 144 Q 94 133 95 131 Q 96 129 98 130 Q 113 136 116 146 Q 117 151 116 154 Q 113 158 110 157 Q 103 155 102 149" fill="#CCCCCC"/><path d="M 18 197 L 18 194 Q 19 190 21 190 Q 25 190 44 208 Q 51 217 50 224 Q 49 233 46 236 Q 43 239 41 238 Q 36 236 34 231 Q 28 218 23 206" fill="#CCCCCC"/><path d="M 58 188 L 58 185 Q 58 183 59 182 Q 61 182 65 183 Q 83 193 83 200 Q 83 207 82 210 Q 80 213 77 212 Q 73 212 71 208 Q 67 200 63 195" fill="#CCCCCC"/><path d="M 88 175 L 89 173 Q 90 171 91 172 Q 103 176 106 182 Q 108 187 107 190 Q 105 194 102 193 Q 97 192 89 178" fill="#CCCCCC"/><path d="M 161 124 Q 144 128 132 121 Q 124 116 135 115 Q 152 112 178 106 Q 206 97 213 98 Q 221 101 224 104 Q 225 106 222 109 Q 220 110 171 122" fill="#CCCCCC"/><path d="M 176 125 L 181 131 Q 184 134 181 139 Q 178 152 174 186 L 160 188 Q 162 165 163 152 Q 164 129 161 124 L 171 122" fill="#CCCCCC"/><path d="M 174 186 Q 174 186 175 186 Q 205 182 222 178 Q 232 176 246 186 Q 251 190 249 193 Q 248 196 243 196 Q 167 195 134 204 Q 130 205 124 204 Q 119 202 115 198 Q 111 193 117 193 Q 139 190 160 188" fill="#CCCCCC"/><path d="M 41 130 Q 37 132 34 129 Q 30 124 29 119 Q 28 116 33 111 Q 44 102 50 92 Q 74 48 70 36 Q 68 32 71 31 Q 76 30 81 34 Q 92 43 92 47 Q 93 49 89 54 Q 71 77 51 108" fill="#0000ff" clip-path="url(#clip-mask-1)" /><path d="M 76 119 Q 51 124 41 130 L 51 108 Q 47 113 55 113 Q 67 112 81 111" fill="#0000ff" clip-path="url(#clip-mask-2)" /><path d="M 53 173 Q 49 176 46 173 Q 39 167 39 164 Q 38 160 42 158 Q 48 155 76 119 L 81 111 Q 92 92 92 84 Q 92 80 94 79 Q 97 78 101 81 Q 110 86 112 91 Q 114 94 111 97 Q 95 109 62 151" fill="#0000ff" clip-path="url(#clip-mask-3)" /><path d="M 101 149 Q 72 159 53 173 L 62 151 Q 60 156 64 154 Q 83 147 99 144 L 102 149" fill="#0000ff" clip-path="url(#clip-mask-4)" /><path d="M 99 144 Q 94 133 95 131 Q 96 129 98 130 Q 113 136 116 146 Q 117 151 116 154 Q 113 158 110 157 Q 103 155 102 149" fill="#0000ff" clip-path="url(#clip-mask-5)" /><path d="M 18 197 L 18 194 Q 19 190 21 190 Q 25 190 44 208 Q 51 217 50 224 Q 49 233 46 236 Q 43 239 41 238 Q 36 236 34 231 Q 28 218 23 206" fill="#0000ff" clip-path="url(#clip-mask-6)" /><path d="M 58 188 L 58 185 Q 58 183 59 182 Q 61 182 65 183 Q 83 193 83 200 Q 83 207 82 210 Q 80 213 77 212 Q 73 212 71 208 Q 67 200 63 195" fill="#0000ff" clip-path="url(#clip-mask-7)" /><path d="M 88 175 L 89 173 Q 90 171 91 172 Q 103 176 106 182 Q 108 187 107 190 Q 105 194 102 193 Q 97 192 89 178" fill="#0000ff" clip-path="url(#clip-mask-8)" /><path d="M 161 124 Q 144 128 132 121 Q 124 116 135 115 Q 152 112 178 106 Q 206 97 213 98 Q 221 101 224 104 Q 225 106 222 109 Q 220 110 171 122" fill="#000080" clip-path="url(#clip-mask-9)" /><path d="M 176 125 L 181 131 Q 184 134 181 139 Q 178 152 174 186 L 160 188 Q 162 165 163 152 Q 164 129 161 124 L 171 122" fill="#000080" clip-path="url(#clip-mask-10)" /><path d="M 174 186 Q 174 186 175 186 Q 205 182 222 178 Q 232 176 246 186 Q 251 190 249 193 Q 248 196 243 196 Q 167 195 134 204 Q 130 205 124 204 Q 119 202 115 198 Q 111 193 117 193 Q 139 190 160 188" fill="#000080" clip-path="url(#clip-mask-11)" /><rect x="28" y="30" width="65" height="102" id="rect-1" fill="transparent" stroke="#000000"><animate attributeName="y" from="-72" to="30" dur="0.378" begin="0; animate11.end + 1s" id="animate1" fill="freeze"/></rect><rect x="41" y="108" width="40" height="22" id="rect-2" fill="transparent" stroke="#000000"><set attributeName="x" to="1" begin="0; animate11.end + 1s" /><animate attributeName="x" from="1" to="41" dur="0.148" begin="animate1.end" id="animate2" fill="freeze"/></rect><rect x="38" y="78" width="76" height="98" id="rect-3" fill="transparent" stroke="#000000"><set attributeName="y" to="-20" begin="0; animate11.end + 1s" /><animate attributeName="y" from="-20" to="78" dur="0.363" begin="animate2.end + 0.5" id="animate3" fill="freeze"/></rect><rect x="53" y="144" width="49" height="29" id="rect-4" fill="transparent" stroke="#000000"><set attributeName="x" to="4" begin="0; animate11.end + 1s" /><animate attributeName="x" from="4" to="53" dur="0.181" begin="animate3.end" id="animate4" fill="freeze"/></rect><rect x="94" y="129" width="23" height="29" id="rect-5" fill="transparent" stroke="#000000"><set attributeName="y" to="100" begin="0; animate11.end + 1s" /><animate attributeName="y" from="100" to="129" dur="0.107" begin="animate4.end + 0.5" id="animate5" fill="freeze"/></rect><rect x="18" y="190" width="33" height="49" id="rect-6" fill="transparent" stroke="#000000"><set attributeName="y" to="141" begin="0; animate11.end + 1s" /><animate attributeName="y" from="141" to="190" dur="0.181" begin="animate5.end + 0.5" id="animate6" fill="freeze"/></rect><rect x="58" y="182" width="25" height="31" id="rect-7" fill="transparent" stroke="#000000"><set attributeName="y" to="151" begin="0; animate11.end + 1s" /><animate attributeName="y" from="151" to="182" dur="0.115" begin="animate6.end + 0.5" id="animate7" fill="freeze"/></rect><rect x="88" y="171" width="20" height="23" id="rect-8" fill="transparent" stroke="#000000"><set attributeName="y" to="148" begin="0; animate11.end + 1s" /><animate attributeName="y" from="148" to="171" dur="0.085" begin="animate7.end + 0.5" id="animate8" fill="freeze"/></rect><rect x="124" y="97" width="101" height="31" id="rect-9" fill="transparent" stroke="#000000"><set attributeName="x" to="23" begin="0; animate11.end + 1s" /><animate attributeName="x" from="23" to="124" dur="0.374" begin="animate8.end + 0.5" id="animate9" fill="freeze"/></rect><rect x="160" y="122" width="24" height="66" id="rect-10" fill="transparent" stroke="#000000"><set attributeName="y" to="56" begin="0; animate11.end + 1s" /><animate attributeName="y" from="56" to="122" dur="0.244" begin="animate9.end + 0.5" id="animate10" fill="freeze"/></rect><rect x="111" y="176" width="140" height="29" id="rect-11" fill="transparent" stroke="#000000"><set attributeName="x" to="-29" begin="0; animate11.end + 1s" /><animate attributeName="x" from="-29" to="111" dur="0.519" begin="animate10.end + 0.5" id="animate11" fill="freeze"/></rect></svg>