<svg xmlns="http://www.w3.org/2000/svg" xmlns:xlink="http://www.w3.org/1999/xlink" width="270" height="270"><defs><clipPath id="clip-mask-1"><use xlink:href="#rect-1" /></clipPath><clipPath id="clip-mask-2"><use xlink:href="#rect-2" /></clipPath><clipPath id="clip-mask-3"><use xlink:href="#rect-3" /></clipPath><clipPath id="clip-mask-4"><use xlink:href="#rect-4" /></clipPath><clipPath id="clip-mask-5"><use xlink:href="#rect-5" /></clipPath><clipPath id="clip-mask-6"><use xlink:href="#rect-6" /></clipPath><clipPath id="clip-mask-7"><use xlink:href="#rect-7" /></clipPath><clipPath id="clip-mask-8"><use xlink:href="#rect-8" /></clipPath><clipPath id="clip-mask-9"><use xlink:href="#rect-9" /></clipPath><clipPath id="clip-mask-10"><use xlink:href="#rect-10" /></clipPath><clipPath id="clip-mask-11"><use xlink:href="#rect-11" /></clipPath><clipPath id="clip-mask-12"><use xlink:href="#rect-12" /></clipPath><clipPath id="clip-mask-13"><use xlink:href="#rect-13" /></clipPath><clipPath id="clip-mask-14"><use xlink:href="#rect-14" /></clipPath></defs><path d="M 0 0 L 270 270 M 270 0 L 0 270 M 135 0 L 135 270 M 0 135 L 270 135" stroke="#CCCCCC" /><path d="M 122 63 Q 117 64 114 64 Q 95 68 86 62 Q 79 57 89 56 Q 106 55 122 52 L 138 49 Q 166 41 172 42 Q 179 44 181 48 Q 182 50 180 51 Q 178 53 136 61" fill="#CCCCCC"/><path d="M 119 88 Q 120 75 122 63 L 122 52 Q 123 40 123 29 Q 123 24 119 18 Q 117 14 120 12 Q 122 10 126 11 Q 132 13 141 19 Q 146 24 145 26 Q 140 35 138 49 L 136 61 Q 133 73 131 86" fill="#CCCCCC"/><path d="M 62 104 Q 59 112 56 123 Q 54 132 50 137 Q 46 145 41 138 L 40 138 Q 33 123 38 117 Q 51 102 49 92 Q 49 84 55 88 Q 57 90 61 96" fill="#CCCCCC"/><path d="M 110 97 Q 91 100 74 105 Q 68 107 62 104 L 61 96 Q 76 94 91 91 Q 106 89 119 88 L 131 86 Q 135 85 187 78 Q 210 73 216 79 L 197 87 Q 184 84 121 95" fill="#CCCCCC"/><path d="M 216 79 Q 235 94 236 96 Q 236 99 226 102 Q 213 105 198 115 Q 193 118 191 117 Q 189 116 199 96 Q 200 93 200.5 91 Q 201 89 197 87" fill="#CCCCCC"/><path d="M 88 146 Q 84 149 83 144 L 82 144 Q 80 132 91 129 Q 96 129 103 118 Q 111 103 110 97 L 121 95 Q 124 98 126 102 Q 130 108 124 111 Q 105 129 105 130" fill="#CCCCCC"/><path d="M 126 139 Q 92 142 88 146 L 105 130 Q 105 131 106 132 Q 114 132 128 132 Q 130 132 132 132" fill="#CCCCCC"/><path d="M 91 189 Q 86 191 84 187 Q 79 181 79 178 Q 79 174 83 173 Q 95 168 126 139 L 132 132 Q 146 116 146 109 Q 147 105 150 105 Q 152 105 156 108 Q 163 115 164 120 Q 165 123 162 125 Q 143 135 103 170" fill="#CCCCCC"/><path d="M 105 181 L 91 189 L 103 170 Q 101 173 104 172 Q 134 165 159 162 L 163 166 Q 147 170 131 174 L 120 177" fill="#CCCCCC"/><path d="M 159 162 Q 150 150 150 150 Q 150 146 151 145 Q 153 145 157 146 Q 182 158 183 167 Q 185 175 183 178 Q 181 181 178 181 Q 174 181 172 177 Q 167 171 163 166" fill="#CCCCCC"/><path d="M 131 174 Q 133 175 136 178 Q 140 184 139 195 Q 138 202 139 221 Q 140 239 136 248 Q 132 257 129 258 Q 126 259 123 255 L 123 227 Q 123 225 124 216 Q 124 187 120 177" fill="#CCCCCC"/><path d="M 123 255 Q 119 248 105 234 Q 102 232 102 230 Q 103 228 106 228 Q 111 229 115 229 Q 122 230 123 227" fill="#CCCCCC"/><path d="M 78 196 L 81 196 Q 82 197 83 199 Q 84 206 81 215 Q 78 232 64 239 Q 57 242 56 237 Q 53 226 60 219 Q 70 210 77 198" fill="#CCCCCC"/><path d="M 157 198 L 157 194 Q 158 191 160 192 Q 176 196 180 198 Q 198 205 201 216 Q 205 228 201 232 Q 199 234 197 234 Q 193 233 188 228 Q 173 211 160 200" fill="#CCCCCC"/><path d="M 122 63 Q 117 64 114 64 Q 95 68 86 62 Q 79 57 89 56 Q 106 55 122 52 L 138 49 Q 166 41 172 42 Q 179 44 181 48 Q 182 50 180 51 Q 178 53 136 61" fill="#000080" clip-path="url(#clip-mask-1)" /><path d="M 119 88 Q 120 75 122 63 L 122 52 Q 123 40 123 29 Q 123 24 119 18 Q 117 14 120 12 Q 122 10 126 11 Q 132 13 141 19 Q 146 24 145 26 Q 140 35 138 49 L 136 61 Q 133 73 131 86" fill="#000080" clip-path="url(#clip-mask-2)" /><path d="M 62 104 Q 59 112 56 123 Q 54 132 50 137 Q 46 145 41 138 L 40 138 Q 33 123 38 117 Q 51 102 49 92 Q 49 84 55 88 Q 57 90 61 96" fill="#000080" clip-path="url(#clip-mask-3)" /><path d="M 110 97 Q 91 100 74 105 Q 68 107 62 104 L 61 96 Q 76 94 91 91 Q 106 89 119 88 L 131 86 Q 135 85 187 78 Q 210 73 216 79 L 197 87 Q 184 84 121 95" fill="#000080" clip-path="url(#clip-mask-4)" /><path d="M 216 79 Q 235 94 236 96 Q 236 99 226 102 Q 213 105 198 115 Q 193 118 191 117 Q 189 116 199 96 Q 200 93 200.5 91 Q 201 89 197 87" fill="#000080" clip-path="url(#clip-mask-5)" /><path d="M 88 146 Q 84 149 83 144 L 82 144 Q 80 132 91 129 Q 96 129 103 118 Q 111 103 110 97 L 121 95 Q 124 98 126 102 Q 130 108 124 111 Q 105 129 105 130" fill="#0000ff" clip-path="url(#clip-mask-6)" /><path d="M 126 139 Q 92 142 88 146 L 105 130 Q 105 131 106 132 Q 114 132 128 132 Q 130 132 132 132" fill="#0000ff" clip-path="url(#clip-mask-7)" /><path d="M 91 189 Q 86 191 84 187 Q 79 181 79 178 Q 79 174 83 173 Q 95 168 126 139 L 132 132 Q 146 116 146 109 Q 147 105 150 105 Q 152 105 156 108 Q 163 115 164 120 Q 165 123 162 125 Q 143 135 103 170" fill="#0000ff" clip-path="url(#clip-mask-8)" /><path d="M 105 181 L 91 189 L 103 170 Q 101 173 104 172 Q 134 165 159 162 L 163 166 Q 147 170 131 174 L 120 177" fill="#0000ff" clip-path="url(#clip-mask-9)" /><path d="M 159 162 Q 150 150 150 150 Q 150 146 151 145 Q 153 145 157 146 Q 182 158 183 167 Q 185 175 183 178 Q 181 181 178 181 Q 174 181 172 177 Q 167 171 163 166" fill="#0000ff" clip-path="url(#clip-mask-10)" /><path d="M 131 174 Q 133 175 136 178 Q 140 184 139 195 Q 138 202 139 221 Q 140 239 136 248 Q 132 257 129 258 Q 126 259 123 255 L 123 227 Q 123 225 124 216 Q 124 187 120 177" fill="#0000ff" clip-path="url(#clip-mask-11)" /><path d="M 123 255 Q 119 248 105 234 Q 102 232 102 230 Q 103 228 106 228 Q 111 229 115 229 Q 122 230 123 227" fill="#0000ff" clip-path="url(#clip-mask-12)" /><path d="M 78 196 L 81 196 Q 82 197 83 199 Q 84 206 81 215 Q 78 232 64 239 Q 57 242 56 237 Q 53 226 60 219 Q 70 210 77 198" fill="#0000ff" clip-path="url(#clip-mask-13)" /><path d="M 157 198 L 157 194 Q 158 191 160 192 Q 176 196 180 198 Q 198 205 201 216 Q 205 228 201 232 Q 199 234 197 234 Q 193 233 188 228 Q 173 211 160 200" fill="#0000ff" clip-path="url(#clip-mask-14)" /><rect x="79" y="41" width="103" height="27" id="rect-1" fill="transparent" stroke="#000000"><animate attributeName="x" from="-24" to="79" dur="0.381" begin="0; animate14.end + 1s" id="animate1" fill="freeze"/></rect><rect x="117" y="10" width="29" height="78" id="rect-2" fill="transparent" stroke="#000000"><set attributeName="y" to="-68" begin="0; animate14.end + 1s" /><animate attributeName="y" from="-68" to="10" dur="0.289" begin="animate1.end + 0.5" id="animate2" fill="freeze"/></rect><rect x="33" y="84" width="29" height="61" id="rect-3" fill="transparent" stroke="#000000"><set attributeName="y" to="23" begin="0; animate14.end + 1s" /><animate attributeName="y" from="23" to="84" dur="0.226" begin="animate2.end + 0.5" id="animate3" fill="freeze"/></rect><rect x="61" y="73" width="155" height="34" id="rect-4" fill="transparent" stroke="#000000"><set attributeName="x" to="-94" begin="0; animate14.end + 1s" /><animate attributeName="x" from="-94" to="61" dur="0.574" begin="animate3.end + 0.5" id="animate4" fill="freeze"/></rect><rect x="5" y="79" width="231" height="39" id="rect-5" fill="transparent" stroke="#000000"><set attributeName="y" to="40" begin="0; animate14.end + 1s" /><animate attributeName="y" from="40" to="79" dur="0.144" begin="animate4.end" id="animate5" fill="freeze"/></rect><rect x="80" y="95" width="50" height="54" id="rect-6" fill="transparent" stroke="#000000"><set attributeName="y" to="41" begin="0; animate14.end + 1s" /><animate attributeName="y" from="41" to="95" dur="0.200" begin="animate5.end + 0.5" id="animate6" fill="freeze"/></rect><rect x="88" y="130" width="44" height="16" id="rect-7" fill="transparent" stroke="#000000"><set attributeName="x" to="44" begin="0; animate14.end + 1s" /><animate attributeName="x" from="44" to="88" dur="0.163" begin="animate6.end" id="animate7" fill="freeze"/></rect><rect x="79" y="105" width="86" height="86" id="rect-8" fill="transparent" stroke="#000000"><set attributeName="y" to="19" begin="0; animate14.end + 1s" /><animate attributeName="y" from="19" to="105" dur="0.319" begin="animate7.end + 0.5" id="animate8" fill="freeze"/></rect><rect x="91" y="162" width="72" height="27" id="rect-9" fill="transparent" stroke="#000000"><set attributeName="x" to="19" begin="0; animate14.end + 1s" /><animate attributeName="x" from="19" to="91" dur="0.267" begin="animate8.end" id="animate9" fill="freeze"/></rect><rect x="150" y="145" width="35" height="36" id="rect-10" fill="transparent" stroke="#000000"><set attributeName="y" to="109" begin="0; animate14.end + 1s" /><animate attributeName="y" from="109" to="145" dur="0.133" begin="animate9.end + 0.5" id="animate10" fill="freeze"/></rect><rect x="120" y="174" width="20" height="85" id="rect-11" fill="transparent" stroke="#000000"><set attributeName="y" to="89" begin="0; animate14.end + 1s" /><animate attributeName="y" from="89" to="174" dur="0.315" begin="animate10.end + 0.5" id="animate11" fill="freeze"/></rect><rect x="102" y="227" width="21" height="28" id="rect-12" fill="transparent" stroke="#000000"><set attributeName="x" to="123" begin="0; animate14.end + 1s" /><animate attributeName="x" from="123" to="102" dur="0.078" begin="animate11.end" id="animate12" fill="freeze"/></rect><rect x="53" y="196" width="31" height="46" id="rect-13" fill="transparent" stroke="#000000"><set attributeName="y" to="150" begin="0; animate14.end + 1s" /><animate attributeName="y" from="150" to="196" dur="0.170" begin="animate12.end + 0.5" id="animate13" fill="freeze"/></rect><rect x="157" y="191" width="48" height="43" id="rect-14" fill="transparent" stroke="#000000"><set attributeName="x" to="109" begin="0; animate14.end + 1s" /><animate attributeName="x" from="109" to="157" dur="0.178" begin="animate13.end + 0.5" id="animate14" fill="freeze"/></rect></svg>