<svg xmlns="http://www.w3.org/2000/svg" xmlns:xlink="http://www.w3.org/1999/xlink" width="270" height="270"><defs><clipPath id="clip-mask-1"><use xlink:href="#rect-1" /></clipPath><clipPath id="clip-mask-2"><use xlink:href="#rect-2" /></clipPath><clipPath id="clip-mask-3"><use xlink:href="#rect-3" /></clipPath><clipPath id="clip-mask-4"><use xlink:href="#rect-4" /></clipPath><clipPath id="clip-mask-5"><use xlink:href="#rect-5" /></clipPath><clipPath id="clip-mask-6"><use xlink:href="#rect-6" /></clipPath><clipPath id="clip-mask-7"><use xlink:href="#rect-7" /></clipPath><clipPath id="clip-mask-8"><use xlink:href="#rect-8" /></clipPath><clipPath id="clip-mask-9"><use xlink:href="#rect-9" /></clipPath><clipPath id="clip-mask-10"><use xlink:href="#rect-10" /></clipPath><clipPath id="clip-mask-11"><use xlink:href="#rect-11" /></clipPath><clipPath id="clip-mask-12"><use xlink:href="#rect-12" /></clipPath><clipPath id="clip-mask-13"><use xlink:href="#rect-13" /></clipPath><clipPath id="clip-mask-14"><use xlink:href="#rect-14" /></clipPath><clipPath id="clip-mask-15"><use xlink:href="#rect-15" /></clipPath></defs><path d="M 0 0 L 270 270 M 270 0 L 0 270 M 135 0 L 135 270 M 0 135 L 270 135" stroke="#CCCCCC" /><path d="M 93 93 Q 93 95 93 96 Q 92 100 87 95 Q 81 90 79 82 Q 72 55 61 38 Q 59 35 60 33 Q 61 32 64 32 Q 70 32 73 33 L 80 42 Q 82 51 90 78 Q 92 82 92 85" fill="#CCCCCC"/><path d="M 122 36 Q 97 38 80 42 L 73 33 Q 91 32 112 29 Q 139 26 161 24 Q 179 23 191 20 Q 195 19 200 22 Q 211 31 215 36 L 189 34 Q 184 30 172 30 Q 150 32 133 34" fill="#CCCCCC"/><path d="M 175 76 Q 180 74 190 41 Q 192 37 189 34 L 215 36 Q 218 40 214 43 Q 207 50 203 58 Q 191 87 187 92 Q 182 97 179 95 Q 175 92 171 84" fill="#CCCCCC"/><path d="M 125 62 Q 116 63 109 64 Q 102 65 100 63 Q 95 59 99 59 Q 111 56 125 54 L 139 51 Q 154 48 158 49 Q 164 51 166 54 Q 168 57 162 58 Q 150 59 138 61" fill="#CCCCCC"/><path d="M 125 80 Q 125 70 125 62 L 125 54 Q 123 39 122 36 L 133 34 Q 136 36 139 39 Q 140 42 139 50 Q 139 50 139 51 L 138 61 Q 137 69 136 79" fill="#CCCCCC"/><path d="M 113 91 L 93 93 L 92 85 Q 108 82 125 80 L 136 79 Q 164 73 172 75 Q 174 75 175 76 L 171 84 Q 149 86 123 89" fill="#CCCCCC"/><path d="M 78 138 Q 74 140 73 136 Q 73 132 76 126 Q 78 123 85 123 Q 88 123 93 117 Q 94 117 94 117 Q 113 103 113 91 L 123 89 Q 126 92 128 98 Q 131 104 124 106 Q 98 124 98 125" fill="#CCCCCC"/><path d="M 120 137 L 119 137 Q 80 137 78 138 L 98 125 Q 97 126 98 127 Q 125 132 126 132" fill="#CCCCCC"/><path d="M 85 178 Q 81 180 79 177 Q 74 170 74 167 Q 74 163 78 162 Q 83 160 120 137 L 126 132 Q 154 114 157 101 Q 157 97 161 97 Q 163 97 166 101 Q 173 109 174 114 Q 175 118 170 119 Q 162 122 152 129 Q 116 150 99 161 Q 99 162 100 161" fill="#CCCCCC"/><path d="M 105 170 L 85 178 L 100 161 Q 136 154 167 152 L 172 157 Q 152 159 134 163 L 124 165" fill="#CCCCCC"/><path d="M 167 152 Q 159 144 159 141 Q 160 138 161 138 Q 166 137 183 147 Q 192 153 193 159 Q 194 166 192 169 Q 190 172 188 172 Q 184 171 172 157" fill="#CCCCCC"/><path d="M 134 163 Q 136 165 140 168 Q 145 174 142 185 Q 142 192 142 213 Q 143 230 138 239 Q 135 248 131 250 Q 128 250 125 247 L 125 218 Q 126 217 126 216 Q 129 181 124 165" fill="#CCCCCC"/><path d="M 125 247 Q 120 239 105 226 Q 102 223 102 221 Q 102 219 106 220 Q 111 220 117 221 Q 124 222 125 218" fill="#CCCCCC"/><path d="M 80 185 L 82 185 Q 83 186 84 189 Q 84 196 80 204 Q 75 222 59 228 Q 52 230 52 225 Q 49 214 57 207 Q 68 198 78 187" fill="#CCCCCC"/><path d="M 168 185 L 169 181 Q 169 177 172 179 Q 215 198 217 212 Q 220 225 217 228 Q 215 231 213 230 Q 208 229 204 223 Q 186 202 171 187" fill="#CCCCCC"/><path d="M 93 93 Q 93 95 93 96 Q 92 100 87 95 Q 81 90 79 82 Q 72 55 61 38 Q 59 35 60 33 Q 61 32 64 32 Q 70 32 73 33 L 80 42 Q 82 51 90 78 Q 92 82 92 85" fill="#000080" clip-path="url(#clip-mask-1)" /><path d="M 122 36 Q 97 38 80 42 L 73 33 Q 91 32 112 29 Q 139 26 161 24 Q 179 23 191 20 Q 195 19 200 22 Q 211 31 215 36 L 189 34 Q 184 30 172 30 Q 150 32 133 34" fill="#000080" clip-path="url(#clip-mask-2)" /><path d="M 175 76 Q 180 74 190 41 Q 192 37 189 34 L 215 36 Q 218 40 214 43 Q 207 50 203 58 Q 191 87 187 92 Q 182 97 179 95 Q 175 92 171 84" fill="#000080" clip-path="url(#clip-mask-3)" /><path d="M 125 62 Q 116 63 109 64 Q 102 65 100 63 Q 95 59 99 59 Q 111 56 125 54 L 139 51 Q 154 48 158 49 Q 164 51 166 54 Q 168 57 162 58 Q 150 59 138 61" fill="#000080" clip-path="url(#clip-mask-4)" /><path d="M 125 80 Q 125 70 125 62 L 125 54 Q 123 39 122 36 L 133 34 Q 136 36 139 39 Q 140 42 139 50 Q 139 50 139 51 L 138 61 Q 137 69 136 79" fill="#000080" clip-path="url(#clip-mask-5)" /><path d="M 113 91 L 93 93 L 92 85 Q 108 82 125 80 L 136 79 Q 164 73 172 75 Q 174 75 175 76 L 171 84 Q 149 86 123 89" fill="#000080" clip-path="url(#clip-mask-6)" /><path d="M 78 138 Q 74 140 73 136 Q 73 132 76 126 Q 78 123 85 123 Q 88 123 93 117 Q 94 117 94 117 Q 113 103 113 91 L 123 89 Q 126 92 128 98 Q 131 104 124 106 Q 98 124 98 125" fill="#0000ff" clip-path="url(#clip-mask-7)" /><path d="M 120 137 L 119 137 Q 80 137 78 138 L 98 125 Q 97 126 98 127 Q 125 132 126 132" fill="#0000ff" clip-path="url(#clip-mask-8)" /><path d="M 85 178 Q 81 180 79 177 Q 74 170 74 167 Q 74 163 78 162 Q 83 160 120 137 L 126 132 Q 154 114 157 101 Q 157 97 161 97 Q 163 97 166 101 Q 173 109 174 114 Q 175 118 170 119 Q 162 122 152 129 Q 116 150 99 161 Q 99 162 100 161" fill="#0000ff" clip-path="url(#clip-mask-9)" /><path d="M 105 170 L 85 178 L 100 161 Q 136 154 167 152 L 172 157 Q 152 159 134 163 L 124 165" fill="#0000ff" clip-path="url(#clip-mask-10)" /><path d="M 167 152 Q 159 144 159 141 Q 160 138 161 138 Q 166 137 183 147 Q 192 153 193 159 Q 194 166 192 169 Q 190 172 188 172 Q 184 171 172 157" fill="#0000ff" clip-path="url(#clip-mask-11)" /><path d="M 134 163 Q 136 165 140 168 Q 145 174 142 185 Q 142 192 142 213 Q 143 230 138 239 Q 135 248 131 250 Q 128 250 125 247 L 125 218 Q 126 217 126 216 Q 129 181 124 165" fill="#0000ff" clip-path="url(#clip-mask-12)" /><path d="M 125 247 Q 120 239 105 226 Q 102 223 102 221 Q 102 219 106 220 Q 111 220 117 221 Q 124 222 125 218" fill="#0000ff" clip-path="url(#clip-mask-13)" /><path d="M 80 185 L 82 185 Q 83 186 84 189 Q 84 196 80 204 Q 75 222 59 228 Q 52 230 52 225 Q 49 214 57 207 Q 68 198 78 187" fill="#0000ff" clip-path="url(#clip-mask-14)" /><path d="M 168 185 L 169 181 Q 169 177 172 179 Q 215 198 217 212 Q 220 225 217 228 Q 215 231 213 230 Q 208 229 204 223 Q 186 202 171 187" fill="#0000ff" clip-path="url(#clip-mask-15)" /><rect x="59" y="32" width="34" height="68" id="rect-1" fill="transparent" stroke="#000000"><animate attributeName="y" from="-36" to="32" dur="0.252" begin="0; animate15.end + 1s" id="animate1" fill="freeze"/></rect><rect x="73" y="19" width="142" height="23" id="rect-2" fill="transparent" stroke="#000000"><set attributeName="x" to="-69" begin="0; animate15.end + 1s" /><animate attributeName="x" from="-69" to="73" dur="0.526" begin="animate1.end + 0.5" id="animate2" fill="freeze"/></rect><rect x="171" y="34" width="47" height="63" id="rect-3" fill="transparent" stroke="#000000"><set attributeName="y" to="-29" begin="0; animate15.end + 1s" /><animate attributeName="y" from="-29" to="34" dur="0.233" begin="animate2.end" id="animate3" fill="freeze"/></rect><rect x="95" y="48" width="73" height="17" id="rect-4" fill="transparent" stroke="#000000"><set attributeName="x" to="22" begin="0; animate15.end + 1s" /><animate attributeName="x" from="22" to="95" dur="0.270" begin="animate3.end + 0.5" id="animate4" fill="freeze"/></rect><rect x="122" y="34" width="18" height="46" id="rect-5" fill="transparent" stroke="#000000"><set attributeName="y" to="-12" begin="0; animate15.end + 1s" /><animate attributeName="y" from="-12" to="34" dur="0.170" begin="animate4.end + 0.5" id="animate5" fill="freeze"/></rect><rect x="92" y="73" width="83" height="20" id="rect-6" fill="transparent" stroke="#000000"><set attributeName="x" to="9" begin="0; animate15.end + 1s" /><animate attributeName="x" from="9" to="92" dur="0.307" begin="animate5.end + 0.5" id="animate6" fill="freeze"/></rect><rect x="73" y="89" width="58" height="51" id="rect-7" fill="transparent" stroke="#000000"><set attributeName="y" to="38" begin="0; animate15.end + 1s" /><animate attributeName="y" from="38" to="89" dur="0.189" begin="animate6.end + 0.5" id="animate7" fill="freeze"/></rect><rect x="78" y="125" width="48" height="13" id="rect-8" fill="transparent" stroke="#000000"><set attributeName="x" to="30" begin="0; animate15.end + 1s" /><animate attributeName="x" from="30" to="78" dur="0.178" begin="animate7.end" id="animate8" fill="freeze"/></rect><rect x="74" y="97" width="101" height="83" id="rect-9" fill="transparent" stroke="#000000"><set attributeName="y" to="14" begin="0; animate15.end + 1s" /><animate attributeName="y" from="14" to="97" dur="0.307" begin="animate8.end + 0.5" id="animate9" fill="freeze"/></rect><rect x="85" y="152" width="87" height="26" id="rect-10" fill="transparent" stroke="#000000"><set attributeName="x" to="-2" begin="0; animate15.end + 1s" /><animate attributeName="x" from="-2" to="85" dur="0.322" begin="animate9.end" id="animate10" fill="freeze"/></rect><rect x="159" y="137" width="35" height="35" id="rect-11" fill="transparent" stroke="#000000"><set attributeName="x" to="124" begin="0; animate15.end + 1s" /><animate attributeName="x" from="124" to="159" dur="0.130" begin="animate10.end + 0.5" id="animate11" fill="freeze"/></rect><rect x="124" y="163" width="21" height="87" id="rect-12" fill="transparent" stroke="#000000"><set attributeName="y" to="76" begin="0; animate15.end + 1s" /><animate attributeName="y" from="76" to="163" dur="0.322" begin="animate11.end + 0.5" id="animate12" fill="freeze"/></rect><rect x="102" y="218" width="23" height="29" id="rect-13" fill="transparent" stroke="#000000"><set attributeName="x" to="125" begin="0; animate15.end + 1s" /><animate attributeName="x" from="125" to="102" dur="0.085" begin="animate12.end" id="animate13" fill="freeze"/></rect><rect x="49" y="185" width="35" height="45" id="rect-14" fill="transparent" stroke="#000000"><set attributeName="y" to="140" begin="0; animate15.end + 1s" /><animate attributeName="y" from="140" to="185" dur="0.167" begin="animate13.end + 0.5" id="animate14" fill="freeze"/></rect><rect x="168" y="177" width="52" height="54" id="rect-15" fill="transparent" stroke="#000000"><set attributeName="x" to="116" begin="0; animate15.end + 1s" /><animate attributeName="x" from="116" to="168" dur="0.193" begin="animate14.end + 0.5" id="animate15" fill="freeze"/></rect></svg>