<svg xmlns="http://www.w3.org/2000/svg" xmlns:xlink="http://www.w3.org/1999/xlink" width="270" height="270"><defs><clipPath id="clip-mask-1"><use xlink:href="#rect-1" /></clipPath><clipPath id="clip-mask-2"><use xlink:href="#rect-2" /></clipPath><clipPath id="clip-mask-3"><use xlink:href="#rect-3" /></clipPath><clipPath id="clip-mask-4"><use xlink:href="#rect-4" /></clipPath><clipPath id="clip-mask-5"><use xlink:href="#rect-5" /></clipPath><clipPath id="clip-mask-6"><use xlink:href="#rect-6" /></clipPath><clipPath id="clip-mask-7"><use xlink:href="#rect-7" /></clipPath><clipPath id="clip-mask-8"><use xlink:href="#rect-8" /></clipPath><clipPath id="clip-mask-9"><use xlink:href="#rect-9" /></clipPath><clipPath id="clip-mask-10"><use xlink:href="#rect-10" /></clipPath><clipPath id="clip-mask-11"><use xlink:href="#rect-11" /></clipPath><clipPath id="clip-mask-12"><use xlink:href="#rect-12" /></clipPath><clipPath id="clip-mask-13"><use xlink:href="#rect-13" /></clipPath><clipPath id="clip-mask-14"><use xlink:href="#rect-14" /></clipPath><clipPath id="clip-mask-15"><use xlink:href="#rect-15" /></clipPath><clipPath id="clip-mask-16"><use xlink:href="#rect-16" /></clipPath><clipPath id="clip-mask-17"><use xlink:href="#rect-17" /></clipPath></defs><path d="M 0 0 L 270 270 M 270 0 L 0 270 M 135 0 L 135 270 M 0 135 L 270 135" stroke="#CCCCCC" /><path d="M 54 113 Q 51 115 48 112 Q 45 108 44 103 Q 44 99 48 96 Q 55 90 60 85 Q 87 41 83 29 Q 82 25 85 25 Q 90 24 94 27 Q 103 36 104 40 Q 105 42 101 46 Q 83 66 66 93" fill="#CCCCCC"/><path d="M 88 105 Q 86 105 85 105 Q 62 109 54 113 L 66 93 Q 62 98 69 98 Q 80 98 93 98" fill="#CCCCCC"/><path d="M 67 160 Q 62 163 60 160 Q 52 154 52 151 Q 51 147 55 144 Q 62 140 88 105 L 93 98 Q 109 75 108 63 Q 108 59 110 58 Q 113 57 117 60 Q 127 65 129 70 Q 131 73 128 76 Q 121 82 113 92 Q 87 122 76 137" fill="#CCCCCC"/><path d="M 83 146 L 67 160 L 76 137 Q 74 142 79 140 Q 94 135 106 133 L 108 137" fill="#CCCCCC"/><path d="M 106 133 Q 104 129 103 126 Q 102 123 103 122 Q 104 119 106 120 Q 109 122 116 128 Q 120 131 121 135 Q 122 141 121 143 Q 118 147 115 146 Q 112 144 108 137" fill="#CCCCCC"/><path d="M 29 179 L 29 176 Q 30 172 32 172 Q 33 172 37 174 Q 59 191 59 201 Q 58 209 56 212 Q 53 215 51 214 Q 47 212 45 208 Q 39 196 34 186" fill="#CCCCCC"/><path d="M 64 173 L 63 170 Q 64 168 65 167 Q 66 167 70 168 Q 85 176 85 181 Q 86 188 84 191 Q 82 194 80 193 Q 76 193 68 179" fill="#CCCCCC"/><path d="M 91 160 L 91 158 Q 92 155 94 156 Q 107 159 111 167 Q 113 172 112 175 Q 110 179 107 178 Q 101 177 92 162" fill="#CCCCCC"/><path d="M 141 116 Q 137 118 135 115 Q 131 110 130 105 Q 130 102 135 98 Q 141 92 146 86 Q 174 41 170 30 Q 168 26 171 25 Q 177 25 181 28 Q 191 37 191 41 Q 192 44 188 48 Q 171 68 152 95" fill="#CCCCCC"/><path d="M 178 105 Q 154 108 141 116 L 152 95 Q 149 100 156 99 Q 168 99 182 98 Q 183 98 184 98" fill="#CCCCCC"/><path d="M 144 165 Q 140 168 137 164 Q 130 158 130 155 Q 130 151 134 149 Q 140 146 178 105 L 184 98 Q 203 73 203 62 Q 203 57 206 57 Q 208 57 213 59 Q 221 65 223 71 Q 225 74 221 76 Q 214 81 205 91 Q 170 126 155 143" fill="#CCCCCC"/><path d="M 155 158 L 144 165 L 155 143 Q 153 147 157 146 Q 181 139 202 135 L 205 140 Q 190 145 173 151 L 166 154" fill="#CCCCCC"/><path d="M 202 135 L 192 121 Q 193 118 194 117 Q 195 117 199 119 Q 222 131 222 141 Q 223 148 221 151 Q 219 153 217 153 Q 214 152 205 140" fill="#CCCCCC"/><path d="M 173 151 Q 177 153 181 156 Q 186 162 184 173 Q 183 183 184 209 Q 185 226 180 235 Q 177 244 174 245 Q 171 245 168 242 L 168 215 Q 170 211 170 194 Q 169 164 166 155 Q 166 154 166 154" fill="#CCCCCC"/><path d="M 168 242 Q 163 234 148 219 Q 145 217 146 215 Q 146 214 149 214 Q 156 215 161 217 Q 167 218 168 215" fill="#CCCCCC"/><path d="M 131 174 L 134 174 Q 135 174 136 176 Q 137 182 135 190 Q 134 207 122 214 Q 117 217 115 212 Q 111 203 117 195 Q 125 186 130 176" fill="#CCCCCC"/><path d="M 198 172 L 198 168 Q 199 166 201 167 Q 202 167 203 168 Q 235 182 238 197 Q 240 208 236 211 Q 234 213 232 212 Q 229 211 225 206 Q 212 187 200 174" fill="#CCCCCC"/><path d="M 54 113 Q 51 115 48 112 Q 45 108 44 103 Q 44 99 48 96 Q 55 90 60 85 Q 87 41 83 29 Q 82 25 85 25 Q 90 24 94 27 Q 103 36 104 40 Q 105 42 101 46 Q 83 66 66 93" fill="#0000ff" clip-path="url(#clip-mask-1)" /><path d="M 88 105 Q 86 105 85 105 Q 62 109 54 113 L 66 93 Q 62 98 69 98 Q 80 98 93 98" fill="#0000ff" clip-path="url(#clip-mask-2)" /><path d="M 67 160 Q 62 163 60 160 Q 52 154 52 151 Q 51 147 55 144 Q 62 140 88 105 L 93 98 Q 109 75 108 63 Q 108 59 110 58 Q 113 57 117 60 Q 127 65 129 70 Q 131 73 128 76 Q 121 82 113 92 Q 87 122 76 137" fill="#0000ff" clip-path="url(#clip-mask-3)" /><path d="M 83 146 L 67 160 L 76 137 Q 74 142 79 140 Q 94 135 106 133 L 108 137" fill="#0000ff" clip-path="url(#clip-mask-4)" /><path d="M 106 133 Q 104 129 103 126 Q 102 123 103 122 Q 104 119 106 120 Q 109 122 116 128 Q 120 131 121 135 Q 122 141 121 143 Q 118 147 115 146 Q 112 144 108 137" fill="#0000ff" clip-path="url(#clip-mask-5)" /><path d="M 29 179 L 29 176 Q 30 172 32 172 Q 33 172 37 174 Q 59 191 59 201 Q 58 209 56 212 Q 53 215 51 214 Q 47 212 45 208 Q 39 196 34 186" fill="#0000ff" clip-path="url(#clip-mask-6)" /><path d="M 64 173 L 63 170 Q 64 168 65 167 Q 66 167 70 168 Q 85 176 85 181 Q 86 188 84 191 Q 82 194 80 193 Q 76 193 68 179" fill="#0000ff" clip-path="url(#clip-mask-7)" /><path d="M 91 160 L 91 158 Q 92 155 94 156 Q 107 159 111 167 Q 113 172 112 175 Q 110 179 107 178 Q 101 177 92 162" fill="#0000ff" clip-path="url(#clip-mask-8)" /><path d="M 141 116 Q 137 118 135 115 Q 131 110 130 105 Q 130 102 135 98 Q 141 92 146 86 Q 174 41 170 30 Q 168 26 171 25 Q 177 25 181 28 Q 191 37 191 41 Q 192 44 188 48 Q 171 68 152 95" fill="#000080" clip-path="url(#clip-mask-9)" /><path d="M 178 105 Q 154 108 141 116 L 152 95 Q 149 100 156 99 Q 168 99 182 98 Q 183 98 184 98" fill="#000080" clip-path="url(#clip-mask-10)" /><path d="M 144 165 Q 140 168 137 164 Q 130 158 130 155 Q 130 151 134 149 Q 140 146 178 105 L 184 98 Q 203 73 203 62 Q 203 57 206 57 Q 208 57 213 59 Q 221 65 223 71 Q 225 74 221 76 Q 214 81 205 91 Q 170 126 155 143" fill="#000080" clip-path="url(#clip-mask-11)" /><path d="M 155 158 L 144 165 L 155 143 Q 153 147 157 146 Q 181 139 202 135 L 205 140 Q 190 145 173 151 L 166 154" fill="#000080" clip-path="url(#clip-mask-12)" /><path d="M 202 135 L 192 121 Q 193 118 194 117 Q 195 117 199 119 Q 222 131 222 141 Q 223 148 221 151 Q 219 153 217 153 Q 214 152 205 140" fill="#000080" clip-path="url(#clip-mask-13)" /><path d="M 173 151 Q 177 153 181 156 Q 186 162 184 173 Q 183 183 184 209 Q 185 226 180 235 Q 177 244 174 245 Q 171 245 168 242 L 168 215 Q 170 211 170 194 Q 169 164 166 155 Q 166 154 166 154" fill="#000080" clip-path="url(#clip-mask-14)" /><path d="M 168 242 Q 163 234 148 219 Q 145 217 146 215 Q 146 214 149 214 Q 156 215 161 217 Q 167 218 168 215" fill="#000080" clip-path="url(#clip-mask-15)" /><path d="M 131 174 L 134 174 Q 135 174 136 176 Q 137 182 135 190 Q 134 207 122 214 Q 117 217 115 212 Q 111 203 117 195 Q 125 186 130 176" fill="#000080" clip-path="url(#clip-mask-16)" /><path d="M 198 172 L 198 168 Q 199 166 201 167 Q 202 167 203 168 Q 235 182 238 197 Q 240 208 236 211 Q 234 213 232 212 Q 229 211 225 206 Q 212 187 200 174" fill="#000080" clip-path="url(#clip-mask-17)" /><rect x="44" y="24" width="61" height="91" id="rect-1" fill="transparent" stroke="#000000"><animate attributeName="y" from="-67" to="24" dur="0.337" begin="0; animate17.end + 1s" id="animate1" fill="freeze"/></rect><rect x="54" y="93" width="39" height="20" id="rect-2" fill="transparent" stroke="#000000"><set attributeName="x" to="15" begin="0; animate17.end + 1s" /><animate attributeName="x" from="15" to="54" dur="0.144" begin="animate1.end" id="animate2" fill="freeze"/></rect><rect x="51" y="57" width="80" height="106" id="rect-3" fill="transparent" stroke="#000000"><set attributeName="y" to="-49" begin="0; animate17.end + 1s" /><animate attributeName="y" from="-49" to="57" dur="0.393" begin="animate2.end + 0.5" id="animate3" fill="freeze"/></rect><rect x="67" y="133" width="41" height="27" id="rect-4" fill="transparent" stroke="#000000"><set attributeName="x" to="26" begin="0; animate17.end + 1s" /><animate attributeName="x" from="26" to="67" dur="0.152" begin="animate3.end" id="animate4" fill="freeze"/></rect><rect x="102" y="119" width="20" height="28" id="rect-5" fill="transparent" stroke="#000000"><set attributeName="y" to="91" begin="0; animate17.end + 1s" /><animate attributeName="y" from="91" to="119" dur="0.104" begin="animate4.end + 0.5" id="animate5" fill="freeze"/></rect><rect x="29" y="172" width="30" height="43" id="rect-6" fill="transparent" stroke="#000000"><set attributeName="y" to="129" begin="0; animate17.end + 1s" /><animate attributeName="y" from="129" to="172" dur="0.159" begin="animate5.end + 0.5" id="animate6" fill="freeze"/></rect><rect x="63" y="167" width="23" height="27" id="rect-7" fill="transparent" stroke="#000000"><set attributeName="y" to="140" begin="0; animate17.end + 1s" /><animate attributeName="y" from="140" to="167" dur="0.100" begin="animate6.end + 0.5" id="animate7" fill="freeze"/></rect><rect x="91" y="155" width="22" height="24" id="rect-8" fill="transparent" stroke="#000000"><set attributeName="y" to="131" begin="0; animate17.end + 1s" /><animate attributeName="y" from="131" to="155" dur="0.089" begin="animate7.end + 0.5" id="animate8" fill="freeze"/></rect><rect x="130" y="25" width="62" height="93" id="rect-9" fill="transparent" stroke="#000000"><set attributeName="y" to="-68" begin="0; animate17.end + 1s" /><animate attributeName="y" from="-68" to="25" dur="0.344" begin="animate8.end + 0.5" id="animate9" fill="freeze"/></rect><rect x="141" y="95" width="43" height="21" id="rect-10" fill="transparent" stroke="#000000"><set attributeName="x" to="98" begin="0; animate17.end + 1s" /><animate attributeName="x" from="98" to="141" dur="0.159" begin="animate9.end" id="animate10" fill="freeze"/></rect><rect x="130" y="57" width="95" height="111" id="rect-11" fill="transparent" stroke="#000000"><set attributeName="y" to="-54" begin="0; animate17.end + 1s" /><animate attributeName="y" from="-54" to="57" dur="0.411" begin="animate10.end + 0.5" id="animate11" fill="freeze"/></rect><rect x="144" y="135" width="61" height="30" id="rect-12" fill="transparent" stroke="#000000"><set attributeName="x" to="83" begin="0; animate17.end + 1s" /><animate attributeName="x" from="83" to="144" dur="0.226" begin="animate11.end" id="animate12" fill="freeze"/></rect><rect x="192" y="117" width="31" height="36" id="rect-13" fill="transparent" stroke="#000000"><set attributeName="y" to="81" begin="0; animate17.end + 1s" /><animate attributeName="y" from="81" to="117" dur="0.133" begin="animate12.end + 0.5" id="animate13" fill="freeze"/></rect><rect x="166" y="151" width="20" height="94" id="rect-14" fill="transparent" stroke="#000000"><set attributeName="y" to="57" begin="0; animate17.end + 1s" /><animate attributeName="y" from="57" to="151" dur="0.348" begin="animate13.end + 0.5" id="animate14" fill="freeze"/></rect><rect x="145" y="214" width="23" height="28" id="rect-15" fill="transparent" stroke="#000000"><set attributeName="x" to="168" begin="0; animate17.end + 1s" /><animate attributeName="x" from="168" to="145" dur="0.085" begin="animate14.end" id="animate15" fill="freeze"/></rect><rect x="111" y="174" width="26" height="43" id="rect-16" fill="transparent" stroke="#000000"><set attributeName="y" to="131" begin="0; animate17.end + 1s" /><animate attributeName="y" from="131" to="174" dur="0.159" begin="animate15.end + 0.5" id="animate16" fill="freeze"/></rect><rect x="198" y="166" width="42" height="47" id="rect-17" fill="transparent" stroke="#000000"><set attributeName="x" to="156" begin="0; animate17.end + 1s" /><animate attributeName="x" from="156" to="198" dur="0.156" begin="animate16.end + 0.5" id="animate17" fill="freeze"/></rect></svg>