<svg xmlns="http://www.w3.org/2000/svg" xmlns:xlink="http://www.w3.org/1999/xlink" width="270" height="270"><defs><clipPath id="clip-mask-1"><use xlink:href="#rect-1" /></clipPath><clipPath id="clip-mask-2"><use xlink:href="#rect-2" /></clipPath><clipPath id="clip-mask-3"><use xlink:href="#rect-3" /></clipPath><clipPath id="clip-mask-4"><use xlink:href="#rect-4" /></clipPath><clipPath id="clip-mask-5"><use xlink:href="#rect-5" /></clipPath><clipPath id="clip-mask-6"><use xlink:href="#rect-6" /></clipPath><clipPath id="clip-mask-7"><use xlink:href="#rect-7" /></clipPath><clipPath id="clip-mask-8"><use xlink:href="#rect-8" /></clipPath><clipPath id="clip-mask-9"><use xlink:href="#rect-9" /></clipPath><clipPath id="clip-mask-10"><use xlink:href="#rect-10" /></clipPath><clipPath id="clip-mask-11"><use xlink:href="#rect-11" /></clipPath><clipPath id="clip-mask-12"><use xlink:href="#rect-12" /></clipPath><clipPath id="clip-mask-13"><use xlink:href="#rect-13" /></clipPath><clipPath id="clip-mask-14"><use xlink:href="#rect-14" /></clipPath><clipPath id="clip-mask-15"><use xlink:href="#rect-15" /></clipPath><clipPath id="clip-mask-16"><use xlink:href="#rect-16" /></clipPath><clipPath id="clip-mask-17"><use xlink:href="#rect-17" /></clipPath><clipPath id="clip-mask-18"><use xlink:href="#rect-18" /></clipPath><clipPath id="clip-mask-19"><use xlink:href="#rect-19" /></clipPath></defs><path d="M 0 0 L 270 270 M 270 0 L 0 270 M 135 0 L 135 270 M 0 135 L 270 135" stroke="#CCCCCC" /><path d="M 28 124 Q 24 126 22 123 Q 18 120 17 115 Q 16 112 20 108 Q 25 103 29 98 Q 51 53 46 42 Q 44 39 47 38 Q 51 37 55 39 Q 65 46 66 49 Q 66 52 63 56 Q 49 77 35 104" fill="#CCCCCC"/><path d="M 55 112 Q 54 112 54 113 Q 33 120 28 124 L 35 104 Q 32 109 39 108 Q 48 107 59 105" fill="#CCCCCC"/><path d="M 36 166 Q 33 170 30 167 Q 24 163 23 160 Q 22 157 25 154 Q 32 151 54 114 Q 55 113 55 112 L 59 105 Q 66 88 66 81 Q 65 78 67 77 Q 69 76 73 78 Q 82 82 84 86 Q 86 88 83 91 Q 78 96 71 106 Q 51 133 43 147" fill="#CCCCCC"/><path d="M 53 152 L 36 166 L 43 147 Q 41 152 45 149 Q 57 144 68 141 L 70 146" fill="#CCCCCC"/><path d="M 68 141 Q 65 129 66 128 Q 68 126 69 127 Q 80 135 81 143 Q 81 148 79 150 Q 77 153 74 152 Q 71 150 70 146" fill="#CCCCCC"/><path d="M 14 189 L 14 186 Q 16 183 17 183 Q 21 184 32 201 Q 37 209 35 214 Q 32 221 30 223 Q 27 224 25 223 Q 22 222 21 217 Q 18 206 16 196" fill="#CCCCCC"/><path d="M 38 180 L 38 178 Q 39 175 40 175 Q 41 175 44 176 Q 57 185 57 190 Q 57 196 56 198 Q 54 200 52 200 Q 50 199 42 186" fill="#CCCCCC"/><path d="M 65 167 L 66 166 Q 66 163 68 164 Q 81 169 83 176 Q 84 181 83 183 Q 81 187 78 186 Q 73 184 66 169" fill="#CCCCCC"/><path d="M 110 33 L 113 33 Q 117 32 122 36 Q 127 40 129 42 Q 130 45 128 47 Q 125 49 122 55 Q 100 92 90 93 Q 88 94 88 92 Q 89 90 90 89 Q 98 77 104 67 Q 115 44 111 37" fill="#CCCCCC"/><path d="M 89 155 L 83 156 Q 81 156 81 154 Q 81 153 83 151 Q 103 122 110 101 Q 111 98 109 93 Q 107 89 110 89 Q 114 89 119 92 Q 124 95 125 98 Q 126 101 125 102 Q 122 106 118 112 Q 113 120 109 127 L 103 135" fill="#CCCCCC"/><path d="M 109 127 Q 110 128 111 129 Q 114 132 118 137 Q 121 139 119 145 Q 117 157 115 211 Q 115 222 112 231 Q 109 237 105 233 Q 96 223 101 205 Q 104 192 107 155 Q 106 152 103 135" fill="#CCCCCC"/><path d="M 135 104 L 131 106 Q 128 107 129 104 Q 129 103 131 101 Q 154 59 148 51 Q 146 46 150 46 Q 153 45 159 48 Q 165 52 166 54 Q 168 57 166 59 Q 163 62 161 68 Q 155 78 150 86 L 147 89" fill="#CCCCCC"/><path d="M 150 86 Q 163 90 164 94 Q 165 99 164 101 Q 163 102 162 102 Q 159 102 147 89" fill="#CCCCCC"/><path d="M 189 83 L 188 84 Q 175 103 169 105 Q 167 106 167 103 Q 167 102 169 100 Q 178 86 183 74 Q 196 47 191 40 Q 189 36 192 35 Q 196 35 202 38 Q 208 42 209 44 Q 210 47 209 49 Q 205 53 203 59 Q 197 70 192 78 L 189 83" fill="#CCCCCC"/><path d="M 192 78 Q 214 85 216 94 Q 218 99 217 102 Q 215 104 214 104 Q 211 104 209 102 Q 200 93 192 86 Q 190 84 189 83" fill="#CCCCCC"/><path d="M 167 181 Q 167 157 167 145 Q 166 122 163 115 Q 162 112 164 111 Q 166 110 169 111 Q 174 114 180 119 Q 183 122 181 126 Q 180 131 180 135 L 180 143 Q 179 163 178 186" fill="#CCCCCC"/><path d="M 180 135 Q 190 129 204 129 Q 210 130 214 134 Q 216 138 210 139 Q 198 141 182 143 Q 181 143 180 143" fill="#CCCCCC"/><path d="M 131 199 L 120 204 Q 117 206 118 202 Q 120 198 124 191 Q 140 162 133 142 Q 131 140 134 139 Q 139 136 149 141 Q 153 143 152 147 Q 145 161 144 169 L 142 174" fill="#CCCCCC"/><path d="M 144 169 Q 149 171 162 179 Q 165 180 167 181 L 178 186 Q 187 190 195 192 Q 208 197 224 199 Q 239 201 251 202 Q 255 203 255 205 Q 255 206 251 208 Q 233 215 216 218 Q 207 218 201 216 Q 150 182 142 174" fill="#CCCCCC"/><path d="M 28 124 Q 24 126 22 123 Q 18 120 17 115 Q 16 112 20 108 Q 25 103 29 98 Q 51 53 46 42 Q 44 39 47 38 Q 51 37 55 39 Q 65 46 66 49 Q 66 52 63 56 Q 49 77 35 104" fill="#0000ff" clip-path="url(#clip-mask-1)" /><path d="M 55 112 Q 54 112 54 113 Q 33 120 28 124 L 35 104 Q 32 109 39 108 Q 48 107 59 105" fill="#0000ff" clip-path="url(#clip-mask-2)" /><path d="M 36 166 Q 33 170 30 167 Q 24 163 23 160 Q 22 157 25 154 Q 32 151 54 114 Q 55 113 55 112 L 59 105 Q 66 88 66 81 Q 65 78 67 77 Q 69 76 73 78 Q 82 82 84 86 Q 86 88 83 91 Q 78 96 71 106 Q 51 133 43 147" fill="#0000ff" clip-path="url(#clip-mask-3)" /><path d="M 53 152 L 36 166 L 43 147 Q 41 152 45 149 Q 57 144 68 141 L 70 146" fill="#0000ff" clip-path="url(#clip-mask-4)" /><path d="M 68 141 Q 65 129 66 128 Q 68 126 69 127 Q 80 135 81 143 Q 81 148 79 150 Q 77 153 74 152 Q 71 150 70 146" fill="#0000ff" clip-path="url(#clip-mask-5)" /><path d="M 14 189 L 14 186 Q 16 183 17 183 Q 21 184 32 201 Q 37 209 35 214 Q 32 221 30 223 Q 27 224 25 223 Q 22 222 21 217 Q 18 206 16 196" fill="#0000ff" clip-path="url(#clip-mask-6)" /><path d="M 38 180 L 38 178 Q 39 175 40 175 Q 41 175 44 176 Q 57 185 57 190 Q 57 196 56 198 Q 54 200 52 200 Q 50 199 42 186" fill="#0000ff" clip-path="url(#clip-mask-7)" /><path d="M 65 167 L 66 166 Q 66 163 68 164 Q 81 169 83 176 Q 84 181 83 183 Q 81 187 78 186 Q 73 184 66 169" fill="#0000ff" clip-path="url(#clip-mask-8)" /><path d="M 110 33 L 113 33 Q 117 32 122 36 Q 127 40 129 42 Q 130 45 128 47 Q 125 49 122 55 Q 100 92 90 93 Q 88 94 88 92 Q 89 90 90 89 Q 98 77 104 67 Q 115 44 111 37" fill="#000080" clip-path="url(#clip-mask-9)" /><path d="M 89 155 L 83 156 Q 81 156 81 154 Q 81 153 83 151 Q 103 122 110 101 Q 111 98 109 93 Q 107 89 110 89 Q 114 89 119 92 Q 124 95 125 98 Q 126 101 125 102 Q 122 106 118 112 Q 113 120 109 127 L 103 135" fill="#000080" clip-path="url(#clip-mask-10)" /><path d="M 109 127 Q 110 128 111 129 Q 114 132 118 137 Q 121 139 119 145 Q 117 157 115 211 Q 115 222 112 231 Q 109 237 105 233 Q 96 223 101 205 Q 104 192 107 155 Q 106 152 103 135" fill="#000080" clip-path="url(#clip-mask-11)" /><path d="M 135 104 L 131 106 Q 128 107 129 104 Q 129 103 131 101 Q 154 59 148 51 Q 146 46 150 46 Q 153 45 159 48 Q 165 52 166 54 Q 168 57 166 59 Q 163 62 161 68 Q 155 78 150 86 L 147 89" fill="#000080" clip-path="url(#clip-mask-12)" /><path d="M 150 86 Q 163 90 164 94 Q 165 99 164 101 Q 163 102 162 102 Q 159 102 147 89" fill="#000080" clip-path="url(#clip-mask-13)" /><path d="M 189 83 L 188 84 Q 175 103 169 105 Q 167 106 167 103 Q 167 102 169 100 Q 178 86 183 74 Q 196 47 191 40 Q 189 36 192 35 Q 196 35 202 38 Q 208 42 209 44 Q 210 47 209 49 Q 205 53 203 59 Q 197 70 192 78 L 189 83" fill="#000080" clip-path="url(#clip-mask-14)" /><path d="M 192 78 Q 214 85 216 94 Q 218 99 217 102 Q 215 104 214 104 Q 211 104 209 102 Q 200 93 192 86 Q 190 84 189 83" fill="#000080" clip-path="url(#clip-mask-15)" /><path d="M 167 181 Q 167 157 167 145 Q 166 122 163 115 Q 162 112 164 111 Q 166 110 169 111 Q 174 114 180 119 Q 183 122 181 126 Q 180 131 180 135 L 180 143 Q 179 163 178 186" fill="#000080" clip-path="url(#clip-mask-16)" /><path d="M 180 135 Q 190 129 204 129 Q 210 130 214 134 Q 216 138 210 139 Q 198 141 182 143 Q 181 143 180 143" fill="#000080" clip-path="url(#clip-mask-17)" /><path d="M 131 199 L 120 204 Q 117 206 118 202 Q 120 198 124 191 Q 140 162 133 142 Q 131 140 134 139 Q 139 136 149 141 Q 153 143 152 147 Q 145 161 144 169 L 142 174" fill="#000080" clip-path="url(#clip-mask-18)" /><path d="M 144 169 Q 149 171 162 179 Q 165 180 167 181 L 178 186 Q 187 190 195 192 Q 208 197 224 199 Q 239 201 251 202 Q 255 203 255 205 Q 255 206 251 208 Q 233 215 216 218 Q 207 218 201 216 Q 150 182 142 174" fill="#000080" clip-path="url(#clip-mask-19)" /><rect x="16" y="37" width="50" height="89" id="rect-1" fill="transparent" stroke="#000000"><animate attributeName="y" from="-52" to="37" dur="0.330" begin="0; animate19.end + 1s" id="animate1" fill="freeze"/></rect><rect x="28" y="104" width="31" height="20" id="rect-2" fill="transparent" stroke="#000000"><set attributeName="x" to="-3" begin="0; animate19.end + 1s" /><animate attributeName="x" from="-3" to="28" dur="0.115" begin="animate1.end" id="animate2" fill="freeze"/></rect><rect x="22" y="76" width="64" height="94" id="rect-3" fill="transparent" stroke="#000000"><set attributeName="y" to="-18" begin="0; animate19.end + 1s" /><animate attributeName="y" from="-18" to="76" dur="0.348" begin="animate2.end + 0.5" id="animate3" fill="freeze"/></rect><rect x="36" y="141" width="34" height="25" id="rect-4" fill="transparent" stroke="#000000"><set attributeName="x" to="2" begin="0; animate19.end + 1s" /><animate attributeName="x" from="2" to="36" dur="0.126" begin="animate3.end" id="animate4" fill="freeze"/></rect><rect x="65" y="126" width="16" height="27" id="rect-5" fill="transparent" stroke="#000000"><set attributeName="y" to="99" begin="0; animate19.end + 1s" /><animate attributeName="y" from="99" to="126" dur="0.100" begin="animate4.end + 0.5" id="animate5" fill="freeze"/></rect><rect x="14" y="183" width="23" height="41" id="rect-6" fill="transparent" stroke="#000000"><set attributeName="y" to="142" begin="0; animate19.end + 1s" /><animate attributeName="y" from="142" to="183" dur="0.152" begin="animate5.end + 0.5" id="animate6" fill="freeze"/></rect><rect x="38" y="175" width="19" height="25" id="rect-7" fill="transparent" stroke="#000000"><set attributeName="y" to="150" begin="0; animate19.end + 1s" /><animate attributeName="y" from="150" to="175" dur="0.093" begin="animate6.end + 0.5" id="animate7" fill="freeze"/></rect><rect x="65" y="163" width="19" height="24" id="rect-8" fill="transparent" stroke="#000000"><set attributeName="y" to="139" begin="0; animate19.end + 1s" /><animate attributeName="y" from="139" to="163" dur="0.089" begin="animate7.end + 0.5" id="animate8" fill="freeze"/></rect><rect x="88" y="32" width="42" height="62" id="rect-9" fill="transparent" stroke="#000000"><set attributeName="y" to="-30" begin="0; animate19.end + 1s" /><animate attributeName="y" from="-30" to="32" dur="0.230" begin="animate8.end + 0.5" id="animate9" fill="freeze"/></rect><rect x="81" y="89" width="45" height="67" id="rect-10" fill="transparent" stroke="#000000"><set attributeName="y" to="22" begin="0; animate19.end + 1s" /><animate attributeName="y" from="22" to="89" dur="0.248" begin="animate9.end + 0.5" id="animate10" fill="freeze"/></rect><rect x="96" y="127" width="25" height="110" id="rect-11" fill="transparent" stroke="#000000"><set attributeName="y" to="17" begin="0; animate19.end + 1s" /><animate attributeName="y" from="17" to="127" dur="0.407" begin="animate10.end + 0.5" id="animate11" fill="freeze"/></rect><rect x="128" y="45" width="40" height="62" id="rect-12" fill="transparent" stroke="#000000"><set attributeName="y" to="-17" begin="0; animate19.end + 1s" /><animate attributeName="y" from="-17" to="45" dur="0.230" begin="animate11.end + 0.5" id="animate12" fill="freeze"/></rect><rect x="147" y="86" width="18" height="16" id="rect-13" fill="transparent" stroke="#000000"><set attributeName="x" to="129" begin="0; animate19.end + 1s" /><animate attributeName="x" from="129" to="147" dur="0.067" begin="animate12.end + 0.5" id="animate13" fill="freeze"/></rect><rect x="167" y="35" width="43" height="71" id="rect-14" fill="transparent" stroke="#000000"><set attributeName="y" to="-36" begin="0; animate19.end + 1s" /><animate attributeName="y" from="-36" to="35" dur="0.263" begin="animate13.end + 0.5" id="animate14" fill="freeze"/></rect><rect x="189" y="78" width="29" height="26" id="rect-15" fill="transparent" stroke="#000000"><set attributeName="x" to="160" begin="0; animate19.end + 1s" /><animate attributeName="x" from="160" to="189" dur="0.107" begin="animate14.end + 0.5" id="animate15" fill="freeze"/></rect><rect x="162" y="110" width="21" height="76" id="rect-16" fill="transparent" stroke="#000000"><set attributeName="y" to="34" begin="0; animate19.end + 1s" /><animate attributeName="y" from="34" to="110" dur="0.281" begin="animate15.end + 0.5" id="animate16" fill="freeze"/></rect><rect x="180" y="129" width="36" height="14" id="rect-17" fill="transparent" stroke="#000000"><set attributeName="x" to="144" begin="0; animate19.end + 1s" /><animate attributeName="x" from="144" to="180" dur="0.133" begin="animate16.end + 0.5" id="animate17" fill="freeze"/></rect><rect x="117" y="136" width="36" height="70" id="rect-18" fill="transparent" stroke="#000000"><set attributeName="y" to="66" begin="0; animate19.end + 1s" /><animate attributeName="y" from="66" to="136" dur="0.259" begin="animate17.end + 0.5" id="animate18" fill="freeze"/></rect><rect x="142" y="169" width="113" height="49" id="rect-19" fill="transparent" stroke="#000000"><set attributeName="x" to="29" begin="0; animate19.end + 1s" /><animate attributeName="x" from="29" to="142" dur="0.419" begin="animate18.end + 0.5" id="animate19" fill="freeze"/></rect></svg>