<svg xmlns="http://www.w3.org/2000/svg" xmlns:xlink="http://www.w3.org/1999/xlink" width="270" height="270"><defs><clipPath id="clip-mask-1"><use xlink:href="#rect-1" /></clipPath><clipPath id="clip-mask-2"><use xlink:href="#rect-2" /></clipPath><clipPath id="clip-mask-3"><use xlink:href="#rect-3" /></clipPath><clipPath id="clip-mask-4"><use xlink:href="#rect-4" /></clipPath><clipPath id="clip-mask-5"><use xlink:href="#rect-5" /></clipPath><clipPath id="clip-mask-6"><use xlink:href="#rect-6" /></clipPath><clipPath id="clip-mask-7"><use xlink:href="#rect-7" /></clipPath><clipPath id="clip-mask-8"><use xlink:href="#rect-8" /></clipPath><clipPath id="clip-mask-9"><use xlink:href="#rect-9" /></clipPath><clipPath id="clip-mask-10"><use xlink:href="#rect-10" /></clipPath><clipPath id="clip-mask-11"><use xlink:href="#rect-11" /></clipPath><clipPath id="clip-mask-12"><use xlink:href="#rect-12" /></clipPath><clipPath id="clip-mask-13"><use xlink:href="#rect-13" /></clipPath><clipPath id="clip-mask-14"><use xlink:href="#rect-14" /></clipPath><clipPath id="clip-mask-15"><use xlink:href="#rect-15" /></clipPath><clipPath id="clip-mask-16"><use xlink:href="#rect-16" /></clipPath><clipPath id="clip-mask-17"><use xlink:href="#rect-17" /></clipPath><clipPath id="clip-mask-18"><use xlink:href="#rect-18" /></clipPath><clipPath id="clip-mask-19"><use xlink:href="#rect-19" /></clipPath><clipPath id="clip-mask-20"><use xlink:href="#rect-20" /></clipPath><clipPath id="clip-mask-21"><use xlink:href="#rect-21" /></clipPath><clipPath id="clip-mask-22"><use xlink:href="#rect-22" /></clipPath><clipPath id="clip-mask-23"><use xlink:href="#rect-23" /></clipPath></defs><path d="M 0 0 L 270 270 M 270 0 L 0 270 M 135 0 L 135 270 M 0 135 L 270 135" stroke="#CCCCCC" /><path d="M 35 119 Q 32 120 30 118 Q 26 114 25 109 Q 25 106 29 102 Q 39 93 44 84 Q 67 44 64 34 Q 62 30 65 29 Q 69 28 73 31 Q 83 40 83 43 Q 84 45 80 49 Q 63 70 45 99" fill="#CCCCCC"/><path d="M 67 108 Q 64 109 59 110 Q 40 116 35 119 L 45 99 Q 43 104 49 104 Q 71 103 71 103" fill="#CCCCCC"/><path d="M 43 166 Q 39 169 37 166 Q 30 162 29 158 Q 29 155 32 153 Q 39 149 67 109 Q 67 109 67 108 L 71 103 Q 82 81 82 73 Q 82 70 84 69 Q 86 68 90 70 Q 99 75 101 79 Q 103 82 100 84 Q 84 97 51 146" fill="#CCCCCC"/><path d="M 58 153 L 43 166 L 51 146 Q 48 151 53 148 Q 67 144 79 142 L 81 145" fill="#CCCCCC"/><path d="M 79 142 Q 75 133 76 131 Q 76 128 77 129 Q 79 129 81 130 Q 94 143 94 150 Q 93 153 91 154 Q 89 156 87 154 Q 83 151 81 145" fill="#CCCCCC"/><path d="M 17 187 L 17 184 Q 18 181 20 181 Q 21 181 24 184 Q 31 190 37 196 Q 42 202 41 207 Q 40 215 37 218 Q 35 220 32 219 Q 29 218 27 213 Q 24 203 20 195" fill="#CCCCCC"/><path d="M 49 178 L 49 177 Q 49 174 51 174 Q 53 174 63 181 Q 67 185 66 188 Q 66 194 65 196 Q 63 198 61 197 Q 58 196 52 184" fill="#CCCCCC"/><path d="M 73 167 L 73 165 Q 73 163 74 163 Q 76 162 78 164 Q 90 171 91 176 Q 91 181 89 184 Q 88 185 86 185 Q 83 184 82 181 Q 79 176 76 172" fill="#CCCCCC"/><path d="M 150 47 L 147 54 Q 108 110 93 115 Q 90 116 91 113 Q 91 111 94 109 Q 110 89 122 71 Q 147 31 141 19 Q 139 14 144 14 Q 149 14 155 18 Q 162 23 163 26 Q 164 30 162 32 Q 159 34 157 38 L 154 43" fill="#CCCCCC"/><path d="M 157 38 Q 170 50 181 57 Q 203 72 248 88 Q 252 89 251 91 Q 251 92 247 93 Q 234 95 209 95 Q 196 93 154 43" fill="#CCCCCC"/><path d="M 146 86 L 159 82 Q 165 80 171 81 Q 177 82 179 84 Q 180 86 178 88 Q 177 89 172 90 Q 166 91 160 92 Q 139 97 130 92 Q 125 89 132 88" fill="#CCCCCC"/><path d="M 123 160 L 122 161 Q 122 164 118 160 Q 114 156 113 150 Q 108 131 102 119 Q 100 116 101 114 Q 102 113 104 113 Q 110 114 113 115 L 117 122 Q 121 144 123 151 L 123 158" fill="#CCCCCC"/><path d="M 193 111 Q 187 107 154 114 L 146 116 Q 130 118 120 122 Q 119 122 117 122 L 113 115 Q 123 114 139 110 Q 174 103 182 103 Q 198 100 201 102 Q 211 108 215 112" fill="#CCCCCC"/><path d="M 185 146 Q 187 144 194 118 Q 195 112 193 111 L 215 112 Q 218 116 214 119 Q 206 125 201 136 Q 196 150 193 152 Q 192 156 188 156 Q 186 156 185 152 L 184 152" fill="#CCCCCC"/><path d="M 154 114 Q 156 116 158 118 Q 160 120 159 123 Q 158 125 157 146 L 148 148 Q 147 119 146 116" fill="#CCCCCC"/><path d="M 124 129 L 124 127 Q 124 126 125 126 Q 126 125 128 126 Q 139 132 139 138 Q 139 140 138 142 Q 136 144 135 143 Q 130 139 125 131" fill="#CCCCCC"/><path d="M 172 122 L 172 120 Q 172 117 173 117 Q 177 117 180 119 Q 183 122 184 124 Q 185 125 182 126 Q 177 129 168 137 Q 167 137 166 137 Q 165 136 166 135 Q 169 129 171 124" fill="#CCCCCC"/><path d="M 184 145 L 185 146 L 184 152 Q 145 154 127 158 Q 125 158 123 158 L 123 151 Q 134 150 148 148 L 157 146 Q 178 141 182 144" fill="#CCCCCC"/><path d="M 127 244 L 124 246 Q 122 247 121 244 Q 119 243 119 242 Q 112 230 118 224 Q 125 196 117 181 L 116 179 Q 115 177 118 176 Q 122 176 129 178 L 133 185 Q 133 186 133 186 Q 132 190 132 204 L 132 211 Q 131 216 131 222 Q 131 226 130 230 L 129 238" fill="#CCCCCC"/><path d="M 129 178 Q 151 175 167 170 Q 176 167 180 169 Q 190 173 192 176 L 174 181 Q 172 179 167 179 Q 140 181 133 185" fill="#CCCCCC"/><path d="M 175 228 Q 176 225 176 214 Q 175 182 174 181 L 192 176 Q 195 178 192 184 Q 189 192 192 217 Q 193 238 189 249 Q 187 255 184 255 Q 182 255 179 250 Q 175 242 170 235" fill="#CCCCCC"/><path d="M 132 204 Q 135 203 138 202 Q 143 201 148 200 Q 154 198 159 199 Q 165 200 166 203 Q 167 204 166 206 L 165 206 Q 149 211 132 211" fill="#CCCCCC"/><path d="M 130 230 Q 145 228 161 225 Q 168 224 172 225 Q 174 227 175 228 L 170 235 Q 144 235 132 238 Q 130 238 129 238" fill="#CCCCCC"/><path d="M 35 119 Q 32 120 30 118 Q 26 114 25 109 Q 25 106 29 102 Q 39 93 44 84 Q 67 44 64 34 Q 62 30 65 29 Q 69 28 73 31 Q 83 40 83 43 Q 84 45 80 49 Q 63 70 45 99" fill="#0000ff" clip-path="url(#clip-mask-1)" /><path d="M 67 108 Q 64 109 59 110 Q 40 116 35 119 L 45 99 Q 43 104 49 104 Q 71 103 71 103" fill="#0000ff" clip-path="url(#clip-mask-2)" /><path d="M 43 166 Q 39 169 37 166 Q 30 162 29 158 Q 29 155 32 153 Q 39 149 67 109 Q 67 109 67 108 L 71 103 Q 82 81 82 73 Q 82 70 84 69 Q 86 68 90 70 Q 99 75 101 79 Q 103 82 100 84 Q 84 97 51 146" fill="#0000ff" clip-path="url(#clip-mask-3)" /><path d="M 58 153 L 43 166 L 51 146 Q 48 151 53 148 Q 67 144 79 142 L 81 145" fill="#0000ff" clip-path="url(#clip-mask-4)" /><path d="M 79 142 Q 75 133 76 131 Q 76 128 77 129 Q 79 129 81 130 Q 94 143 94 150 Q 93 153 91 154 Q 89 156 87 154 Q 83 151 81 145" fill="#0000ff" clip-path="url(#clip-mask-5)" /><path d="M 17 187 L 17 184 Q 18 181 20 181 Q 21 181 24 184 Q 31 190 37 196 Q 42 202 41 207 Q 40 215 37 218 Q 35 220 32 219 Q 29 218 27 213 Q 24 203 20 195" fill="#0000ff" clip-path="url(#clip-mask-6)" /><path d="M 49 178 L 49 177 Q 49 174 51 174 Q 53 174 63 181 Q 67 185 66 188 Q 66 194 65 196 Q 63 198 61 197 Q 58 196 52 184" fill="#0000ff" clip-path="url(#clip-mask-7)" /><path d="M 73 167 L 73 165 Q 73 163 74 163 Q 76 162 78 164 Q 90 171 91 176 Q 91 181 89 184 Q 88 185 86 185 Q 83 184 82 181 Q 79 176 76 172" fill="#0000ff" clip-path="url(#clip-mask-8)" /><path d="M 150 47 L 147 54 Q 108 110 93 115 Q 90 116 91 113 Q 91 111 94 109 Q 110 89 122 71 Q 147 31 141 19 Q 139 14 144 14 Q 149 14 155 18 Q 162 23 163 26 Q 164 30 162 32 Q 159 34 157 38 L 154 43" fill="#000080" clip-path="url(#clip-mask-9)" /><path d="M 157 38 Q 170 50 181 57 Q 203 72 248 88 Q 252 89 251 91 Q 251 92 247 93 Q 234 95 209 95 Q 196 93 154 43" fill="#000080" clip-path="url(#clip-mask-10)" /><path d="M 146 86 L 159 82 Q 165 80 171 81 Q 177 82 179 84 Q 180 86 178 88 Q 177 89 172 90 Q 166 91 160 92 Q 139 97 130 92 Q 125 89 132 88" fill="#000080" clip-path="url(#clip-mask-11)" /><path d="M 123 160 L 122 161 Q 122 164 118 160 Q 114 156 113 150 Q 108 131 102 119 Q 100 116 101 114 Q 102 113 104 113 Q 110 114 113 115 L 117 122 Q 121 144 123 151 L 123 158" fill="#000080" clip-path="url(#clip-mask-12)" /><path d="M 193 111 Q 187 107 154 114 L 146 116 Q 130 118 120 122 Q 119 122 117 122 L 113 115 Q 123 114 139 110 Q 174 103 182 103 Q 198 100 201 102 Q 211 108 215 112" fill="#000080" clip-path="url(#clip-mask-13)" /><path d="M 185 146 Q 187 144 194 118 Q 195 112 193 111 L 215 112 Q 218 116 214 119 Q 206 125 201 136 Q 196 150 193 152 Q 192 156 188 156 Q 186 156 185 152 L 184 152" fill="#000080" clip-path="url(#clip-mask-14)" /><path d="M 154 114 Q 156 116 158 118 Q 160 120 159 123 Q 158 125 157 146 L 148 148 Q 147 119 146 116" fill="#000080" clip-path="url(#clip-mask-15)" /><path d="M 124 129 L 124 127 Q 124 126 125 126 Q 126 125 128 126 Q 139 132 139 138 Q 139 140 138 142 Q 136 144 135 143 Q 130 139 125 131" fill="#000080" clip-path="url(#clip-mask-16)" /><path d="M 172 122 L 172 120 Q 172 117 173 117 Q 177 117 180 119 Q 183 122 184 124 Q 185 125 182 126 Q 177 129 168 137 Q 167 137 166 137 Q 165 136 166 135 Q 169 129 171 124" fill="#000080" clip-path="url(#clip-mask-17)" /><path d="M 184 145 L 185 146 L 184 152 Q 145 154 127 158 Q 125 158 123 158 L 123 151 Q 134 150 148 148 L 157 146 Q 178 141 182 144" fill="#000080" clip-path="url(#clip-mask-18)" /><path d="M 127 244 L 124 246 Q 122 247 121 244 Q 119 243 119 242 Q 112 230 118 224 Q 125 196 117 181 L 116 179 Q 115 177 118 176 Q 122 176 129 178 L 133 185 Q 133 186 133 186 Q 132 190 132 204 L 132 211 Q 131 216 131 222 Q 131 226 130 230 L 129 238" fill="#000080" clip-path="url(#clip-mask-19)" /><path d="M 129 178 Q 151 175 167 170 Q 176 167 180 169 Q 190 173 192 176 L 174 181 Q 172 179 167 179 Q 140 181 133 185" fill="#000080" clip-path="url(#clip-mask-20)" /><path d="M 175 228 Q 176 225 176 214 Q 175 182 174 181 L 192 176 Q 195 178 192 184 Q 189 192 192 217 Q 193 238 189 249 Q 187 255 184 255 Q 182 255 179 250 Q 175 242 170 235" fill="#000080" clip-path="url(#clip-mask-21)" /><path d="M 132 204 Q 135 203 138 202 Q 143 201 148 200 Q 154 198 159 199 Q 165 200 166 203 Q 167 204 166 206 L 165 206 Q 149 211 132 211" fill="#000080" clip-path="url(#clip-mask-22)" /><path d="M 130 230 Q 145 228 161 225 Q 168 224 172 225 Q 174 227 175 228 L 170 235 Q 144 235 132 238 Q 130 238 129 238" fill="#000080" clip-path="url(#clip-mask-23)" /><rect x="25" y="28" width="59" height="92" id="rect-1" fill="transparent" stroke="#000000"><animate attributeName="y" from="-64" to="28" dur="0.341" begin="0; animate23.end + 1s" id="animate1" fill="freeze"/></rect><rect x="35" y="99" width="36" height="20" id="rect-2" fill="transparent" stroke="#000000"><set attributeName="x" to="-1" begin="0; animate23.end + 1s" /><animate attributeName="x" from="-1" to="35" dur="0.133" begin="animate1.end" id="animate2" fill="freeze"/></rect><rect x="29" y="68" width="74" height="101" id="rect-3" fill="transparent" stroke="#000000"><set attributeName="y" to="-33" begin="0; animate23.end + 1s" /><animate attributeName="y" from="-33" to="68" dur="0.374" begin="animate2.end + 0.5" id="animate3" fill="freeze"/></rect><rect x="43" y="142" width="38" height="24" id="rect-4" fill="transparent" stroke="#000000"><set attributeName="x" to="5" begin="0; animate23.end + 1s" /><animate attributeName="x" from="5" to="43" dur="0.141" begin="animate3.end" id="animate4" fill="freeze"/></rect><rect x="75" y="128" width="19" height="28" id="rect-5" fill="transparent" stroke="#000000"><set attributeName="y" to="100" begin="0; animate23.end + 1s" /><animate attributeName="y" from="100" to="128" dur="0.104" begin="animate4.end + 0.5" id="animate5" fill="freeze"/></rect><rect x="17" y="181" width="25" height="39" id="rect-6" fill="transparent" stroke="#000000"><set attributeName="y" to="142" begin="0; animate23.end + 1s" /><animate attributeName="y" from="142" to="181" dur="0.144" begin="animate5.end + 0.5" id="animate6" fill="freeze"/></rect><rect x="49" y="174" width="18" height="24" id="rect-7" fill="transparent" stroke="#000000"><set attributeName="y" to="150" begin="0; animate23.end + 1s" /><animate attributeName="y" from="150" to="174" dur="0.089" begin="animate6.end + 0.5" id="animate7" fill="freeze"/></rect><rect x="73" y="162" width="18" height="23" id="rect-8" fill="transparent" stroke="#000000"><set attributeName="y" to="139" begin="0; animate23.end + 1s" /><animate attributeName="y" from="139" to="162" dur="0.085" begin="animate7.end + 0.5" id="animate8" fill="freeze"/></rect><rect x="90" y="14" width="74" height="102" id="rect-9" fill="transparent" stroke="#000000"><set attributeName="y" to="-88" begin="0; animate23.end + 1s" /><animate attributeName="y" from="-88" to="14" dur="0.378" begin="animate8.end + 0.5" id="animate9" fill="freeze"/></rect><rect x="154" y="38" width="98" height="57" id="rect-10" fill="transparent" stroke="#000000"><set attributeName="x" to="56" begin="0; animate23.end + 1s" /><animate attributeName="x" from="56" to="154" dur="0.363" begin="animate9.end + 0.5" id="animate10" fill="freeze"/></rect><rect x="125" y="80" width="55" height="17" id="rect-11" fill="transparent" stroke="#000000"><set attributeName="x" to="70" begin="0; animate23.end + 1s" /><animate attributeName="x" from="70" to="125" dur="0.204" begin="animate10.end + 0.5" id="animate11" fill="freeze"/></rect><rect x="100" y="113" width="23" height="51" id="rect-12" fill="transparent" stroke="#000000"><set attributeName="y" to="62" begin="0; animate23.end + 1s" /><animate attributeName="y" from="62" to="113" dur="0.189" begin="animate11.end + 0.5" id="animate12" fill="freeze"/></rect><rect x="113" y="100" width="102" height="22" id="rect-13" fill="transparent" stroke="#000000"><set attributeName="x" to="11" begin="0; animate23.end + 1s" /><animate attributeName="x" from="11" to="113" dur="0.378" begin="animate12.end + 0.5" id="animate13" fill="freeze"/></rect><rect x="184" y="111" width="34" height="45" id="rect-14" fill="transparent" stroke="#000000"><set attributeName="y" to="66" begin="0; animate23.end + 1s" /><animate attributeName="y" from="66" to="111" dur="0.167" begin="animate13.end" id="animate14" fill="freeze"/></rect><rect x="146" y="114" width="14" height="34" id="rect-15" fill="transparent" stroke="#000000"><set attributeName="y" to="80" begin="0; animate23.end + 1s" /><animate attributeName="y" from="80" to="114" dur="0.126" begin="animate14.end + 0.5" id="animate15" fill="freeze"/></rect><rect x="124" y="125" width="15" height="19" id="rect-16" fill="transparent" stroke="#000000"><set attributeName="y" to="106" begin="0; animate23.end + 1s" /><animate attributeName="y" from="106" to="125" dur="0.070" begin="animate15.end + 0.5" id="animate16" fill="freeze"/></rect><rect x="165" y="117" width="20" height="20" id="rect-17" fill="transparent" stroke="#000000"><set attributeName="y" to="97" begin="0; animate23.end + 1s" /><animate attributeName="y" from="97" to="117" dur="0.074" begin="animate16.end + 0.5" id="animate17" fill="freeze"/></rect><rect x="123" y="141" width="62" height="17" id="rect-18" fill="transparent" stroke="#000000"><set attributeName="x" to="61" begin="0; animate23.end + 1s" /><animate attributeName="x" from="61" to="123" dur="0.230" begin="animate17.end + 0.5" id="animate18" fill="freeze"/></rect><rect x="112" y="176" width="21" height="71" id="rect-19" fill="transparent" stroke="#000000"><set attributeName="y" to="105" begin="0; animate23.end + 1s" /><animate attributeName="y" from="105" to="176" dur="0.263" begin="animate18.end + 0.5" id="animate19" fill="freeze"/></rect><rect x="129" y="167" width="63" height="18" id="rect-20" fill="transparent" stroke="#000000"><set attributeName="x" to="66" begin="0; animate23.end + 1s" /><animate attributeName="x" from="66" to="129" dur="0.233" begin="animate19.end + 0.5" id="animate20" fill="freeze"/></rect><rect x="170" y="176" width="25" height="79" id="rect-21" fill="transparent" stroke="#000000"><set attributeName="y" to="97" begin="0; animate23.end + 1s" /><animate attributeName="y" from="97" to="176" dur="0.293" begin="animate20.end" id="animate21" fill="freeze"/></rect><rect x="132" y="198" width="35" height="13" id="rect-22" fill="transparent" stroke="#000000"><set attributeName="x" to="97" begin="0; animate23.end + 1s" /><animate attributeName="x" from="97" to="132" dur="0.130" begin="animate21.end + 0.5" id="animate22" fill="freeze"/></rect><rect x="129" y="224" width="46" height="14" id="rect-23" fill="transparent" stroke="#000000"><set attributeName="x" to="83" begin="0; animate23.end + 1s" /><animate attributeName="x" from="83" to="129" dur="0.170" begin="animate22.end + 0.5" id="animate23" fill="freeze"/></rect></svg>