<svg xmlns="http://www.w3.org/2000/svg" xmlns:xlink="http://www.w3.org/1999/xlink" width="270" height="270"><defs><clipPath id="clip-mask-1"><use xlink:href="#rect-1" /></clipPath><clipPath id="clip-mask-2"><use xlink:href="#rect-2" /></clipPath><clipPath id="clip-mask-3"><use xlink:href="#rect-3" /></clipPath><clipPath id="clip-mask-4"><use xlink:href="#rect-4" /></clipPath><clipPath id="clip-mask-5"><use xlink:href="#rect-5" /></clipPath><clipPath id="clip-mask-6"><use xlink:href="#rect-6" /></clipPath></defs><path d="M 0 0 L 270 270 M 270 0 L 0 270 M 135 0 L 135 270 M 0 135 L 270 135" stroke="#CCCCCC" /><path d="M 86 35 L 85 32 Q 85 28 86 27 Q 88 26 93 27 Q 117 34 120 42 Q 122 51 120 55 Q 119 59 116 59 Q 111 59 107 55 Q 100 48 94 42" fill="#CCCCCC"/><path d="M 169 21 L 169 15 Q 168 11 171 11 Q 175 10 182 15 Q 189 19 193 24 Q 196 30 190 32 Q 182 35 177 39 Q 150 55 143 58 Q 138 59 141 55 Q 159 34 165 26" fill="#CCCCCC"/><path d="M 123 87 Q 118 87 114 88 Q 92 91 81 85 Q 73 79 84 78 Q 116 76 152 67 Q 176 59 185 62 Q 193 64 195 68 Q 196 70 194 72 Q 191 74 176 77 Q 156 81 138 84" fill="#CCCCCC"/><path d="M 122 126 Q 118 126 116 127 Q 98 131 87 125 Q 80 120 90 119 Q 107 117 123 115 L 138 111 Q 165 103 172 104 Q 180 106 181 110 Q 183 112 180 114 Q 178 116 166 118 Q 151 120 138 123" fill="#CCCCCC"/><path d="M 70 168 L 47 177 Q 37 180 26 171 Q 21 167 22 164 Q 22 161 26 161 Q 45 161 71 158 Q 93 155 122 152 L 138 151 Q 200 144 207 143 Q 225 136 244 153 Q 248 157 245 160 Q 244 163 237 162 Q 190 156 138 162 L 122 163" fill="#CCCCCC"/><path d="M 122 152 Q 122 139 122 126 L 123 115 Q 123 100 123 87 L 138 84 Q 138 97 138 111 L 138 123 Q 138 137 138 151 L 138 162 Q 138 175 138 187 Q 138 242 133 252 Q 131 259 127 255 Q 122 250 122 163" fill="#CCCCCC"/><path d="M 86 35 L 85 32 Q 85 28 86 27 Q 88 26 93 27 Q 117 34 120 42 Q 122 51 120 55 Q 119 59 116 59 Q 111 59 107 55 Q 100 48 94 42" fill="#0000ff" clip-path="url(#clip-mask-1)" /><path d="M 169 21 L 169 15 Q 168 11 171 11 Q 175 10 182 15 Q 189 19 193 24 Q 196 30 190 32 Q 182 35 177 39 Q 150 55 143 58 Q 138 59 141 55 Q 159 34 165 26" fill="#0000ff" clip-path="url(#clip-mask-2)" /><path d="M 123 87 Q 118 87 114 88 Q 92 91 81 85 Q 73 79 84 78 Q 116 76 152 67 Q 176 59 185 62 Q 193 64 195 68 Q 196 70 194 72 Q 191 74 176 77 Q 156 81 138 84" fill="#0000ff" clip-path="url(#clip-mask-3)" /><path d="M 122 126 Q 118 126 116 127 Q 98 131 87 125 Q 80 120 90 119 Q 107 117 123 115 L 138 111 Q 165 103 172 104 Q 180 106 181 110 Q 183 112 180 114 Q 178 116 166 118 Q 151 120 138 123" fill="#0000ff" clip-path="url(#clip-mask-4)" /><path d="M 70 168 L 47 177 Q 37 180 26 171 Q 21 167 22 164 Q 22 161 26 161 Q 45 161 71 158 Q 93 155 122 152 L 138 151 Q 200 144 207 143 Q 225 136 244 153 Q 248 157 245 160 Q 244 163 237 162 Q 190 156 138 162 L 122 163" fill="#0000ff" clip-path="url(#clip-mask-5)" /><path d="M 122 152 Q 122 139 122 126 L 123 115 Q 123 100 123 87 L 138 84 Q 138 97 138 111 L 138 123 Q 138 137 138 151 L 138 162 Q 138 175 138 187 Q 138 242 133 252 Q 131 259 127 255 Q 122 250 122 163" fill="#0000ff" clip-path="url(#clip-mask-6)" /><rect x="85" y="26" width="37" height="33" id="rect-1" fill="transparent" stroke="#000000"><animate attributeName="x" from="48" to="85" dur="0.137" begin="0; animate6.end + 1s" id="animate1" fill="freeze"/></rect><rect x="138" y="10" width="58" height="49" id="rect-2" fill="transparent" stroke="#000000"><set attributeName="y" to="-39" begin="0; animate6.end + 1s" /><animate attributeName="y" from="-39" to="10" dur="0.181" begin="animate1.end + 0.5" id="animate2" fill="freeze"/></rect><rect x="73" y="59" width="123" height="32" id="rect-3" fill="transparent" stroke="#000000"><set attributeName="x" to="-50" begin="0; animate6.end + 1s" /><animate attributeName="x" from="-50" to="73" dur="0.456" begin="animate2.end + 0.5" id="animate3" fill="freeze"/></rect><rect x="80" y="103" width="103" height="28" id="rect-4" fill="transparent" stroke="#000000"><set attributeName="x" to="-23" begin="0; animate6.end + 1s" /><animate attributeName="x" from="-23" to="80" dur="0.381" begin="animate3.end + 0.5" id="animate4" fill="freeze"/></rect><rect x="21" y="136" width="227" height="44" id="rect-5" fill="transparent" stroke="#000000"><set attributeName="x" to="-206" begin="0; animate6.end + 1s" /><animate attributeName="x" from="-206" to="21" dur="0.841" begin="animate4.end + 0.5" id="animate5" fill="freeze"/></rect><rect x="122" y="84" width="16" height="175" id="rect-6" fill="transparent" stroke="#000000"><set attributeName="y" to="-91" begin="0; animate6.end + 1s" /><animate attributeName="y" from="-91" to="84" dur="0.648" begin="animate5.end + 0.5" id="animate6" fill="freeze"/></rect></svg>