<svg xmlns="http://www.w3.org/2000/svg" xmlns:xlink="http://www.w3.org/1999/xlink" width="270" height="270"><defs><clipPath id="clip-mask-1"><use xlink:href="#rect-1" /></clipPath><clipPath id="clip-mask-2"><use xlink:href="#rect-2" /></clipPath><clipPath id="clip-mask-3"><use xlink:href="#rect-3" /></clipPath><clipPath id="clip-mask-4"><use xlink:href="#rect-4" /></clipPath><clipPath id="clip-mask-5"><use xlink:href="#rect-5" /></clipPath><clipPath id="clip-mask-6"><use xlink:href="#rect-6" /></clipPath><clipPath id="clip-mask-7"><use xlink:href="#rect-7" /></clipPath><clipPath id="clip-mask-8"><use xlink:href="#rect-8" /></clipPath><clipPath id="clip-mask-9"><use xlink:href="#rect-9" /></clipPath><clipPath id="clip-mask-10"><use xlink:href="#rect-10" /></clipPath><clipPath id="clip-mask-11"><use xlink:href="#rect-11" /></clipPath><clipPath id="clip-mask-12"><use xlink:href="#rect-12" /></clipPath><clipPath id="clip-mask-13"><use xlink:href="#rect-13" /></clipPath><clipPath id="clip-mask-14"><use xlink:href="#rect-14" /></clipPath><clipPath id="clip-mask-15"><use xlink:href="#rect-15" /></clipPath><clipPath id="clip-mask-16"><use xlink:href="#rect-16" /></clipPath><clipPath id="clip-mask-17"><use xlink:href="#rect-17" /></clipPath><clipPath id="clip-mask-18"><use xlink:href="#rect-18" /></clipPath><clipPath id="clip-mask-19"><use xlink:href="#rect-19" /></clipPath><clipPath id="clip-mask-20"><use xlink:href="#rect-20" /></clipPath><clipPath id="clip-mask-21"><use xlink:href="#rect-21" /></clipPath><clipPath id="clip-mask-22"><use xlink:href="#rect-22" /></clipPath><clipPath id="clip-mask-23"><use xlink:href="#rect-23" /></clipPath></defs><path d="M 0 0 L 270 270 M 270 0 L 0 270 M 135 0 L 135 270 M 0 135 L 270 135" stroke="#CCCCCC" /><path d="M 75 110 Q 76 75 75 46 Q 74 41 70 34 Q 68 31 70 29 Q 72 27 75 28 Q 81 29 89 34 Q 94 37 93 40 Q 90 49 90 56 Q 88 81 85 108" fill="#CCCCCC"/><path d="M 39 78 L 38 75 Q 39 73 40 72 Q 42 71 56 79 Q 62 82 62 86 Q 63 93 62 96 Q 60 99 58 99 Q 54 98 52 95 Q 48 89 44 84" fill="#CCCCCC"/><path d="M 107 65 L 106 62 Q 105 59 108 58 Q 112 58 116 61 Q 120 64 121 67 Q 123 69 119 70 Q 112 75 97 89 Q 96 90 94 90 Q 93 89 94 88 Q 102 76 105 68" fill="#CCCCCC"/><path d="M 68 122 Q 58 125 45 129 Q 34 133 24 127 Q 21 124 21 122 Q 22 120 25 120 Q 38 118 75 110 L 85 108 Q 103 103 110 106 Q 114 108 114 111 Q 114 113 110 114 Q 92 116 79 119" fill="#CCCCCC"/><path d="M 77 143 L 77 145 Q 76 145 76 146 Q 40 207 19 210 Q 18 210 18 209 Q 18 207 19 206 Q 35 190 46 174 Q 46 173 47 172 Q 73 135 69 122 L 68 122 L 79 119 Q 82 122 84 126 Q 86 129 85 132 Q 83 134 81 137 L 78 142" fill="#CCCCCC"/><path d="M 81 137 Q 81 137 82 137 Q 86 138 92 144 Q 95 147 94 151 Q 92 159 90 190 Q 90 193 91 194 L 87 221 Q 84 225 82 224 Q 77 221 75 214 Q 73 208 75 203 Q 78 200 79 192 Q 81 184 81 158 Q 81 150 78 142" fill="#CCCCCC"/><path d="M 91 194 Q 92 194 118 174 Q 122 170 122 174 Q 122 175 119 180 Q 94 209 87 221" fill="#CCCCCC"/><path d="M 130 41 L 136 38 Q 156 28 161 30 Q 172 34 176 37 Q 180 40 176 44 L 155 40 Q 153 39 141 44 Q 131 47 126 46 Q 123 44 123 43 Q 124 42 127 42" fill="#CCCCCC"/><path d="M 176 44 Q 170 51 168 62 Q 167 94 164 101 Q 162 105 160 106 Q 157 106 156 103 Q 154 100 155 96 Q 157 88 159 51 Q 159 41 155 40" fill="#CCCCCC"/><path d="M 128 59 L 128 57 Q 128 55 130 55 Q 133 56 140 58 Q 145 60 147 62 Q 149 66 149 69 Q 148 72 145 72 Q 140 72 130 60" fill="#CCCCCC"/><path d="M 121 97 L 123 96 Q 152 79 152 79 Q 153 81 151 83 Q 150 85 148 87 Q 136 100 133 105 Q 132 107 130 107 Q 123 105 118 104 Q 116 103 116 101 Q 115 99 118 98" fill="#CCCCCC"/><path d="M 191 32 L 197 30 Q 219 23 223 25 Q 234 29 238 33 Q 242 36 238 40 L 216 35 Q 213 33 200 38 Q 193 40 187 38 Q 183 35 184 34 Q 184 33 188 33" fill="#CCCCCC"/><path d="M 238 40 Q 231 47 229 59 Q 225 94 221 101 Q 220 105 217 106 Q 214 106 213 103 Q 211 99 212 95 Q 215 87 218 47 Q 219 36 216 35" fill="#CCCCCC"/><path d="M 182 51 L 182 50 Q 182 48 184 48 Q 187 48 194 52 Q 198 53 200 56 Q 202 60 202 63 Q 201 66 198 66 Q 193 66 183 53" fill="#CCCCCC"/><path d="M 181 85 L 208 70 Q 209 69 210 70 Q 211 71 209 73 Q 208 75 206 77 Q 190 91 189 93 Q 188 95 186 95 Q 180 93 176 92 Q 174 90 174 89 Q 174 87 176 86" fill="#CCCCCC"/><path d="M 132 144 L 131 145 Q 118 156 108 157 Q 102 158 107 155 Q 139 126 140 114 Q 140 110 142 110 Q 145 110 151 112 Q 156 113 157 116 Q 158 118 156 121 Q 148 129 140 137 L 133 143" fill="#CCCCCC"/><path d="M 140 137 Q 142 139 143 140 Q 147 143 151 148 Q 153 151 151 157 Q 149 168 148 213 L 148 220 Q 148 230 145 240 Q 142 246 138 242 Q 137 242 137 241 Q 129 230 132 219 Q 138 197 138 175 Q 138 171 138 167 Q 138 159 133 143" fill="#CCCCCC"/><path d="M 175 106 L 175 104 Q 175 102 176 101 Q 179 100 191 104 Q 197 107 198 110 Q 200 116 199 118 Q 198 121 196 121 Q 194 121 191 119 Q 186 114 181 110" fill="#CCCCCC"/><path d="M 183 139 Q 171 142 164 137 Q 159 134 166 133 Q 178 131 197 127 Q 218 119 224 120 Q 230 121 231 124 Q 232 125 230 127 Q 229 128 193 137" fill="#CCCCCC"/><path d="M 186 164 Q 184 164 184 164 Q 173 167 165 162 Q 160 159 167 158 Q 176 157 186 155 L 200 152 Q 210 148 216 149 Q 222 150 223 153 Q 224 154 222 156 Q 221 157 214 159 Q 206 160 198 162" fill="#CCCCCC"/><path d="M 185 188 Q 184 188 183 188 Q 172 191 164 186 Q 159 183 166 182 Q 176 181 186 180 L 197 177 Q 213 171 220 173 Q 226 174 227 177 Q 228 178 226 180 Q 225 181 197 186" fill="#CCCCCC"/><path d="M 185 207 Q 185 196 185 188 L 186 180 Q 186 170 186 164 L 186 155 Q 186 146 183 139 L 193 137 Q 196 139 199 143 Q 202 145 200 149 Q 200 150 200 152 L 198 162 Q 198 169 197 177 L 197 186 Q 196 195 196 206" fill="#CCCCCC"/><path d="M 148 213 Q 168 209 185 207 L 196 206 Q 210 202 221 201 Q 234 196 248 206 Q 251 209 250 211 Q 249 213 245 213 Q 188 213 159 222 Q 157 222 148 220" fill="#CCCCCC"/><path d="M 75 110 Q 76 75 75 46 Q 74 41 70 34 Q 68 31 70 29 Q 72 27 75 28 Q 81 29 89 34 Q 94 37 93 40 Q 90 49 90 56 Q 88 81 85 108" fill="#000080" clip-path="url(#clip-mask-1)" /><path d="M 39 78 L 38 75 Q 39 73 40 72 Q 42 71 56 79 Q 62 82 62 86 Q 63 93 62 96 Q 60 99 58 99 Q 54 98 52 95 Q 48 89 44 84" fill="#000080" clip-path="url(#clip-mask-2)" /><path d="M 107 65 L 106 62 Q 105 59 108 58 Q 112 58 116 61 Q 120 64 121 67 Q 123 69 119 70 Q 112 75 97 89 Q 96 90 94 90 Q 93 89 94 88 Q 102 76 105 68" fill="#000080" clip-path="url(#clip-mask-3)" /><path d="M 68 122 Q 58 125 45 129 Q 34 133 24 127 Q 21 124 21 122 Q 22 120 25 120 Q 38 118 75 110 L 85 108 Q 103 103 110 106 Q 114 108 114 111 Q 114 113 110 114 Q 92 116 79 119" fill="#000080" clip-path="url(#clip-mask-4)" /><path d="M 77 143 L 77 145 Q 76 145 76 146 Q 40 207 19 210 Q 18 210 18 209 Q 18 207 19 206 Q 35 190 46 174 Q 46 173 47 172 Q 73 135 69 122 L 68 122 L 79 119 Q 82 122 84 126 Q 86 129 85 132 Q 83 134 81 137 L 78 142" fill="#000080" clip-path="url(#clip-mask-5)" /><path d="M 81 137 Q 81 137 82 137 Q 86 138 92 144 Q 95 147 94 151 Q 92 159 90 190 Q 90 193 91 194 L 87 221 Q 84 225 82 224 Q 77 221 75 214 Q 73 208 75 203 Q 78 200 79 192 Q 81 184 81 158 Q 81 150 78 142" fill="#000080" clip-path="url(#clip-mask-6)" /><path d="M 91 194 Q 92 194 118 174 Q 122 170 122 174 Q 122 175 119 180 Q 94 209 87 221" fill="#000080" clip-path="url(#clip-mask-7)" /><path d="M 130 41 L 136 38 Q 156 28 161 30 Q 172 34 176 37 Q 180 40 176 44 L 155 40 Q 153 39 141 44 Q 131 47 126 46 Q 123 44 123 43 Q 124 42 127 42" fill="#0000ff" clip-path="url(#clip-mask-8)" /><path d="M 176 44 Q 170 51 168 62 Q 167 94 164 101 Q 162 105 160 106 Q 157 106 156 103 Q 154 100 155 96 Q 157 88 159 51 Q 159 41 155 40" fill="#0000ff" clip-path="url(#clip-mask-9)" /><path d="M 128 59 L 128 57 Q 128 55 130 55 Q 133 56 140 58 Q 145 60 147 62 Q 149 66 149 69 Q 148 72 145 72 Q 140 72 130 60" fill="#0000ff" clip-path="url(#clip-mask-10)" /><path d="M 121 97 L 123 96 Q 152 79 152 79 Q 153 81 151 83 Q 150 85 148 87 Q 136 100 133 105 Q 132 107 130 107 Q 123 105 118 104 Q 116 103 116 101 Q 115 99 118 98" fill="#0000ff" clip-path="url(#clip-mask-11)" /><path d="M 191 32 L 197 30 Q 219 23 223 25 Q 234 29 238 33 Q 242 36 238 40 L 216 35 Q 213 33 200 38 Q 193 40 187 38 Q 183 35 184 34 Q 184 33 188 33" fill="#0000ff" clip-path="url(#clip-mask-12)" /><path d="M 238 40 Q 231 47 229 59 Q 225 94 221 101 Q 220 105 217 106 Q 214 106 213 103 Q 211 99 212 95 Q 215 87 218 47 Q 219 36 216 35" fill="#0000ff" clip-path="url(#clip-mask-13)" /><path d="M 182 51 L 182 50 Q 182 48 184 48 Q 187 48 194 52 Q 198 53 200 56 Q 202 60 202 63 Q 201 66 198 66 Q 193 66 183 53" fill="#0000ff" clip-path="url(#clip-mask-14)" /><path d="M 181 85 L 208 70 Q 209 69 210 70 Q 211 71 209 73 Q 208 75 206 77 Q 190 91 189 93 Q 188 95 186 95 Q 180 93 176 92 Q 174 90 174 89 Q 174 87 176 86" fill="#0000ff" clip-path="url(#clip-mask-15)" /><path d="M 132 144 L 131 145 Q 118 156 108 157 Q 102 158 107 155 Q 139 126 140 114 Q 140 110 142 110 Q 145 110 151 112 Q 156 113 157 116 Q 158 118 156 121 Q 148 129 140 137 L 133 143" fill="#000080" clip-path="url(#clip-mask-16)" /><path d="M 140 137 Q 142 139 143 140 Q 147 143 151 148 Q 153 151 151 157 Q 149 168 148 213 L 148 220 Q 148 230 145 240 Q 142 246 138 242 Q 137 242 137 241 Q 129 230 132 219 Q 138 197 138 175 Q 138 171 138 167 Q 138 159 133 143" fill="#000080" clip-path="url(#clip-mask-17)" /><path d="M 175 106 L 175 104 Q 175 102 176 101 Q 179 100 191 104 Q 197 107 198 110 Q 200 116 199 118 Q 198 121 196 121 Q 194 121 191 119 Q 186 114 181 110" fill="#000080" clip-path="url(#clip-mask-18)" /><path d="M 183 139 Q 171 142 164 137 Q 159 134 166 133 Q 178 131 197 127 Q 218 119 224 120 Q 230 121 231 124 Q 232 125 230 127 Q 229 128 193 137" fill="#000080" clip-path="url(#clip-mask-19)" /><path d="M 186 164 Q 184 164 184 164 Q 173 167 165 162 Q 160 159 167 158 Q 176 157 186 155 L 200 152 Q 210 148 216 149 Q 222 150 223 153 Q 224 154 222 156 Q 221 157 214 159 Q 206 160 198 162" fill="#000080" clip-path="url(#clip-mask-20)" /><path d="M 185 188 Q 184 188 183 188 Q 172 191 164 186 Q 159 183 166 182 Q 176 181 186 180 L 197 177 Q 213 171 220 173 Q 226 174 227 177 Q 228 178 226 180 Q 225 181 197 186" fill="#000080" clip-path="url(#clip-mask-21)" /><path d="M 185 207 Q 185 196 185 188 L 186 180 Q 186 170 186 164 L 186 155 Q 186 146 183 139 L 193 137 Q 196 139 199 143 Q 202 145 200 149 Q 200 150 200 152 L 198 162 Q 198 169 197 177 L 197 186 Q 196 195 196 206" fill="#000080" clip-path="url(#clip-mask-22)" /><path d="M 148 213 Q 168 209 185 207 L 196 206 Q 210 202 221 201 Q 234 196 248 206 Q 251 209 250 211 Q 249 213 245 213 Q 188 213 159 222 Q 157 222 148 220" fill="#000080" clip-path="url(#clip-mask-23)" /><rect x="68" y="27" width="26" height="83" id="rect-1" fill="transparent" stroke="#000000"><animate attributeName="y" from="-56" to="27" dur="0.307" begin="0; animate23.end + 1s" id="animate1" fill="freeze"/></rect><rect x="38" y="71" width="25" height="28" id="rect-2" fill="transparent" stroke="#000000"><set attributeName="y" to="43" begin="0; animate23.end + 1s" /><animate attributeName="y" from="43" to="71" dur="0.104" begin="animate1.end + 0.5" id="animate2" fill="freeze"/></rect><rect x="93" y="58" width="30" height="32" id="rect-3" fill="transparent" stroke="#000000"><set attributeName="y" to="26" begin="0; animate23.end + 1s" /><animate attributeName="y" from="26" to="58" dur="0.119" begin="animate2.end + 0.5" id="animate3" fill="freeze"/></rect><rect x="21" y="103" width="93" height="30" id="rect-4" fill="transparent" stroke="#000000"><set attributeName="x" to="-72" begin="0; animate23.end + 1s" /><animate attributeName="x" from="-72" to="21" dur="0.344" begin="animate3.end + 0.5" id="animate4" fill="freeze"/></rect><rect x="18" y="119" width="68" height="91" id="rect-5" fill="transparent" stroke="#000000"><set attributeName="y" to="28" begin="0; animate23.end + 1s" /><animate attributeName="y" from="28" to="119" dur="0.337" begin="animate4.end + 0.5" id="animate5" fill="freeze"/></rect><rect x="73" y="137" width="22" height="88" id="rect-6" fill="transparent" stroke="#000000"><set attributeName="y" to="49" begin="0; animate23.end + 1s" /><animate attributeName="y" from="49" to="137" dur="0.326" begin="animate5.end + 0.5" id="animate6" fill="freeze"/></rect><rect x="87" y="170" width="35" height="51" id="rect-7" fill="transparent" stroke="#000000"><set attributeName="x" to="52" begin="0; animate23.end + 1s" /><animate attributeName="x" from="52" to="87" dur="0.130" begin="animate6.end" id="animate7" fill="freeze"/></rect><rect x="123" y="28" width="57" height="19" id="rect-8" fill="transparent" stroke="#000000"><set attributeName="x" to="66" begin="0; animate23.end + 1s" /><animate attributeName="x" from="66" to="123" dur="0.211" begin="animate7.end + 0.5" id="animate8" fill="freeze"/></rect><rect x="154" y="40" width="22" height="66" id="rect-9" fill="transparent" stroke="#000000"><set attributeName="y" to="-26" begin="0; animate23.end + 1s" /><animate attributeName="y" from="-26" to="40" dur="0.244" begin="animate8.end" id="animate9" fill="freeze"/></rect><rect x="128" y="55" width="21" height="17" id="rect-10" fill="transparent" stroke="#000000"><set attributeName="x" to="107" begin="0; animate23.end + 1s" /><animate attributeName="x" from="107" to="128" dur="0.078" begin="animate9.end + 0.5" id="animate10" fill="freeze"/></rect><rect x="115" y="79" width="38" height="28" id="rect-11" fill="transparent" stroke="#000000"><set attributeName="x" to="77" begin="0; animate23.end + 1s" /><animate attributeName="x" from="77" to="115" dur="0.141" begin="animate10.end + 0.5" id="animate11" fill="freeze"/></rect><rect x="183" y="23" width="59" height="17" id="rect-12" fill="transparent" stroke="#000000"><set attributeName="x" to="124" begin="0; animate23.end + 1s" /><animate attributeName="x" from="124" to="183" dur="0.219" begin="animate11.end + 0.5" id="animate12" fill="freeze"/></rect><rect x="211" y="35" width="27" height="71" id="rect-13" fill="transparent" stroke="#000000"><set attributeName="y" to="-36" begin="0; animate23.end + 1s" /><animate attributeName="y" from="-36" to="35" dur="0.263" begin="animate12.end" id="animate13" fill="freeze"/></rect><rect x="182" y="48" width="20" height="18" id="rect-14" fill="transparent" stroke="#000000"><set attributeName="x" to="162" begin="0; animate23.end + 1s" /><animate attributeName="x" from="162" to="182" dur="0.074" begin="animate13.end + 0.5" id="animate14" fill="freeze"/></rect><rect x="174" y="69" width="37" height="26" id="rect-15" fill="transparent" stroke="#000000"><set attributeName="x" to="137" begin="0; animate23.end + 1s" /><animate attributeName="x" from="137" to="174" dur="0.137" begin="animate14.end + 0.5" id="animate15" fill="freeze"/></rect><rect x="102" y="110" width="56" height="48" id="rect-16" fill="transparent" stroke="#000000"><set attributeName="y" to="62" begin="0; animate23.end + 1s" /><animate attributeName="y" from="62" to="110" dur="0.178" begin="animate15.end + 0.5" id="animate16" fill="freeze"/></rect><rect x="129" y="137" width="24" height="109" id="rect-17" fill="transparent" stroke="#000000"><set attributeName="y" to="28" begin="0; animate23.end + 1s" /><animate attributeName="y" from="28" to="137" dur="0.404" begin="animate16.end + 0.5" id="animate17" fill="freeze"/></rect><rect x="175" y="100" width="25" height="21" id="rect-18" fill="transparent" stroke="#000000"><set attributeName="x" to="150" begin="0; animate23.end + 1s" /><animate attributeName="x" from="150" to="175" dur="0.093" begin="animate17.end + 0.5" id="animate18" fill="freeze"/></rect><rect x="159" y="119" width="73" height="23" id="rect-19" fill="transparent" stroke="#000000"><set attributeName="x" to="86" begin="0; animate23.end + 1s" /><animate attributeName="x" from="86" to="159" dur="0.270" begin="animate18.end + 0.5" id="animate19" fill="freeze"/></rect><rect x="160" y="148" width="64" height="19" id="rect-20" fill="transparent" stroke="#000000"><set attributeName="x" to="96" begin="0; animate23.end + 1s" /><animate attributeName="x" from="96" to="160" dur="0.237" begin="animate19.end + 0.5" id="animate20" fill="freeze"/></rect><rect x="159" y="171" width="69" height="20" id="rect-21" fill="transparent" stroke="#000000"><set attributeName="x" to="90" begin="0; animate23.end + 1s" /><animate attributeName="x" from="90" to="159" dur="0.256" begin="animate20.end + 0.5" id="animate21" fill="freeze"/></rect><rect x="183" y="137" width="19" height="70" id="rect-22" fill="transparent" stroke="#000000"><set attributeName="y" to="67" begin="0; animate23.end + 1s" /><animate attributeName="y" from="67" to="137" dur="0.259" begin="animate21.end + 0.5" id="animate22" fill="freeze"/></rect><rect x="148" y="196" width="103" height="26" id="rect-23" fill="transparent" stroke="#000000"><set attributeName="x" to="45" begin="0; animate23.end + 1s" /><animate attributeName="x" from="45" to="148" dur="0.381" begin="animate22.end + 0.5" id="animate23" fill="freeze"/></rect></svg>