<svg xmlns="http://www.w3.org/2000/svg" xmlns:xlink="http://www.w3.org/1999/xlink" width="270" height="270"><defs><clipPath id="clip-mask-1"><use xlink:href="#rect-1" /></clipPath><clipPath id="clip-mask-2"><use xlink:href="#rect-2" /></clipPath><clipPath id="clip-mask-3"><use xlink:href="#rect-3" /></clipPath><clipPath id="clip-mask-4"><use xlink:href="#rect-4" /></clipPath><clipPath id="clip-mask-5"><use xlink:href="#rect-5" /></clipPath><clipPath id="clip-mask-6"><use xlink:href="#rect-6" /></clipPath><clipPath id="clip-mask-7"><use xlink:href="#rect-7" /></clipPath><clipPath id="clip-mask-8"><use xlink:href="#rect-8" /></clipPath><clipPath id="clip-mask-9"><use xlink:href="#rect-9" /></clipPath><clipPath id="clip-mask-10"><use xlink:href="#rect-10" /></clipPath><clipPath id="clip-mask-11"><use xlink:href="#rect-11" /></clipPath></defs><path d="M 0 0 L 270 270 M 270 0 L 0 270 M 135 0 L 135 270 M 0 135 L 270 135" stroke="#CCCCCC" /><path d="M 46 199 L 28 222 Q 20 235 16 236 Q 13 237 14 234 Q 14 233 15 231 Q 32 200 41 171 Q 48 142 48 83 Q 46 69 42 64 Q 41 61 43 59 Q 46 57 51 60 Q 56 61 60 64 L 64 72 Q 62 74 62 107 L 61 117 Q 60 132 58 147 Q 58 148 58 148 L 56 157" fill="#CCCCCC"/><path d="M 60 64 Q 69 61 76 58 Q 86 51 92 53 Q 101 56 107 61 Q 110 64 107 69 L 88 65 Q 85 63 82 65 Q 75 68 68 71 Q 66 71 64 72" fill="#CCCCCC"/><path d="M 107 69 Q 101 80 105 202 Q 105 223 94 234 Q 92 237 90 236 Q 86 234 83 229 L 86 209 Q 88 206 88 200 Q 92 154 90 78 Q 90 68 88 65" fill="#CCCCCC"/><path d="M 83 229 Q 77 220 66 208 Q 66 205 71 207 Q 75 208 80 209 Q 85 210 86 209" fill="#CCCCCC"/><path d="M 62 107 Q 68 105 72 105 Q 79 106 83 109 Q 86 112 80 114 Q 72 116 61 117" fill="#CCCCCC"/><path d="M 58 148 Q 67 145 73 145 Q 80 146 83 149 Q 85 152 79 154 Q 70 155 57 157 Q 56 157 56 157" fill="#CCCCCC"/><path d="M 159 100 Q 156 100 153 101 Q 138 106 126 100 Q 119 96 129 94 Q 145 91 159 88 L 172 84 Q 201 73 207 74 Q 215 76 217 79 Q 219 81 216 83 Q 215 84 171 97" fill="#CCCCCC"/><path d="M 158 134 Q 159 116 159 100 L 159 88 Q 159 66 158 46 Q 159 40 152 31 Q 151 27 152 25 Q 154 23 159 24 Q 165 25 174 30 Q 179 34 178 37 Q 173 59 172 84 L 171 97 Q 170 114 169 131" fill="#CCCCCC"/><path d="M 177 138 Q 173 138 154 144 Q 140 148 131 145 Q 126 142 127 141 Q 128 139 132 138 Q 147 136 158 134 L 169 131 Q 189 123 196 124 Q 204 127 208 131 Q 212 134 207 139" fill="#CCCCCC"/><path d="M 149 229 L 123 231 Q 112 232 110 231 Q 106 229 110 227 Q 145 216 162 193 L 168 184 Q 176 169 181 146 Q 183 139 177 138 L 207 139 Q 201 144 198 152 Q 189 178 178 195 L 171 205" fill="#CCCCCC"/><path d="M 162 193 Q 146 170 134 161 Q 132 160 133 158 Q 136 156 138 157 Q 146 159 151 165 Q 160 175 168 184 L 178 195 Q 203 216 218 222 Q 249 233 253 235 Q 256 237 254 239 Q 251 241 247 241 Q 236 242 221 244 Q 210 246 203 240 Q 183 220 171 205" fill="#CCCCCC"/><path d="M 46 199 L 28 222 Q 20 235 16 236 Q 13 237 14 234 Q 14 233 15 231 Q 32 200 41 171 Q 48 142 48 83 Q 46 69 42 64 Q 41 61 43 59 Q 46 57 51 60 Q 56 61 60 64 L 64 72 Q 62 74 62 107 L 61 117 Q 60 132 58 147 Q 58 148 58 148 L 56 157" fill="#0000ff" clip-path="url(#clip-mask-1)" /><path d="M 60 64 Q 69 61 76 58 Q 86 51 92 53 Q 101 56 107 61 Q 110 64 107 69 L 88 65 Q 85 63 82 65 Q 75 68 68 71 Q 66 71 64 72" fill="#0000ff" clip-path="url(#clip-mask-2)" /><path d="M 107 69 Q 101 80 105 202 Q 105 223 94 234 Q 92 237 90 236 Q 86 234 83 229 L 86 209 Q 88 206 88 200 Q 92 154 90 78 Q 90 68 88 65" fill="#0000ff" clip-path="url(#clip-mask-3)" /><path d="M 83 229 Q 77 220 66 208 Q 66 205 71 207 Q 75 208 80 209 Q 85 210 86 209" fill="#0000ff" clip-path="url(#clip-mask-4)" /><path d="M 62 107 Q 68 105 72 105 Q 79 106 83 109 Q 86 112 80 114 Q 72 116 61 117" fill="#0000ff" clip-path="url(#clip-mask-5)" /><path d="M 58 148 Q 67 145 73 145 Q 80 146 83 149 Q 85 152 79 154 Q 70 155 57 157 Q 56 157 56 157" fill="#0000ff" clip-path="url(#clip-mask-6)" /><path d="M 159 100 Q 156 100 153 101 Q 138 106 126 100 Q 119 96 129 94 Q 145 91 159 88 L 172 84 Q 201 73 207 74 Q 215 76 217 79 Q 219 81 216 83 Q 215 84 171 97" fill="#000080" clip-path="url(#clip-mask-7)" /><path d="M 158 134 Q 159 116 159 100 L 159 88 Q 159 66 158 46 Q 159 40 152 31 Q 151 27 152 25 Q 154 23 159 24 Q 165 25 174 30 Q 179 34 178 37 Q 173 59 172 84 L 171 97 Q 170 114 169 131" fill="#000080" clip-path="url(#clip-mask-8)" /><path d="M 177 138 Q 173 138 154 144 Q 140 148 131 145 Q 126 142 127 141 Q 128 139 132 138 Q 147 136 158 134 L 169 131 Q 189 123 196 124 Q 204 127 208 131 Q 212 134 207 139" fill="#000080" clip-path="url(#clip-mask-9)" /><path d="M 149 229 L 123 231 Q 112 232 110 231 Q 106 229 110 227 Q 145 216 162 193 L 168 184 Q 176 169 181 146 Q 183 139 177 138 L 207 139 Q 201 144 198 152 Q 189 178 178 195 L 171 205" fill="#000080" clip-path="url(#clip-mask-10)" /><path d="M 162 193 Q 146 170 134 161 Q 132 160 133 158 Q 136 156 138 157 Q 146 159 151 165 Q 160 175 168 184 L 178 195 Q 203 216 218 222 Q 249 233 253 235 Q 256 237 254 239 Q 251 241 247 241 Q 236 242 221 244 Q 210 246 203 240 Q 183 220 171 205" fill="#000080" clip-path="url(#clip-mask-11)" /><rect x="13" y="57" width="51" height="180" id="rect-1" fill="transparent" stroke="#000000"><animate attributeName="y" from="-123" to="57" dur="0.667" begin="0; animate11.end + 1s" id="animate1" fill="freeze"/></rect><rect x="60" y="51" width="50" height="21" id="rect-2" fill="transparent" stroke="#000000"><set attributeName="x" to="10" begin="0; animate11.end + 1s" /><animate attributeName="x" from="10" to="60" dur="0.185" begin="animate1.end + 0.5" id="animate2" fill="freeze"/></rect><rect x="83" y="65" width="24" height="172" id="rect-3" fill="transparent" stroke="#000000"><set attributeName="y" to="-107" begin="0; animate11.end + 1s" /><animate attributeName="y" from="-107" to="65" dur="0.637" begin="animate2.end" id="animate3" fill="freeze"/></rect><rect x="66" y="205" width="20" height="24" id="rect-4" fill="transparent" stroke="#000000"><set attributeName="x" to="86" begin="0; animate11.end + 1s" /><animate attributeName="x" from="86" to="66" dur="0.074" begin="animate3.end" id="animate4" fill="freeze"/></rect><rect x="61" y="105" width="25" height="12" id="rect-5" fill="transparent" stroke="#000000"><set attributeName="x" to="36" begin="0; animate11.end + 1s" /><animate attributeName="x" from="36" to="61" dur="0.093" begin="animate4.end + 0.5" id="animate5" fill="freeze"/></rect><rect x="56" y="145" width="29" height="12" id="rect-6" fill="transparent" stroke="#000000"><set attributeName="x" to="27" begin="0; animate11.end + 1s" /><animate attributeName="x" from="27" to="56" dur="0.107" begin="animate5.end + 0.5" id="animate6" fill="freeze"/></rect><rect x="119" y="73" width="100" height="33" id="rect-7" fill="transparent" stroke="#000000"><set attributeName="x" to="19" begin="0; animate11.end + 1s" /><animate attributeName="x" from="19" to="119" dur="0.370" begin="animate6.end + 0.5" id="animate7" fill="freeze"/></rect><rect x="151" y="23" width="28" height="111" id="rect-8" fill="transparent" stroke="#000000"><set attributeName="y" to="-88" begin="0; animate11.end + 1s" /><animate attributeName="y" from="-88" to="23" dur="0.411" begin="animate7.end + 0.5" id="animate8" fill="freeze"/></rect><rect x="126" y="123" width="86" height="25" id="rect-9" fill="transparent" stroke="#000000"><set attributeName="x" to="40" begin="0; animate11.end + 1s" /><animate attributeName="x" from="40" to="126" dur="0.319" begin="animate8.end + 0.5" id="animate9" fill="freeze"/></rect><rect x="106" y="138" width="101" height="94" id="rect-10" fill="transparent" stroke="#000000"><set attributeName="y" to="44" begin="0; animate11.end + 1s" /><animate attributeName="y" from="44" to="138" dur="0.348" begin="animate9.end" id="animate10" fill="freeze"/></rect><rect x="132" y="156" width="124" height="90" id="rect-11" fill="transparent" stroke="#000000"><set attributeName="x" to="8" begin="0; animate11.end + 1s" /><animate attributeName="x" from="8" to="132" dur="0.459" begin="animate10.end + 0.5" id="animate11" fill="freeze"/></rect></svg>