<svg xmlns="http://www.w3.org/2000/svg" xmlns:xlink="http://www.w3.org/1999/xlink" width="270" height="270"><defs><clipPath id="clip-mask-1"><use xlink:href="#rect-1" /></clipPath><clipPath id="clip-mask-2"><use xlink:href="#rect-2" /></clipPath><clipPath id="clip-mask-3"><use xlink:href="#rect-3" /></clipPath><clipPath id="clip-mask-4"><use xlink:href="#rect-4" /></clipPath><clipPath id="clip-mask-5"><use xlink:href="#rect-5" /></clipPath><clipPath id="clip-mask-6"><use xlink:href="#rect-6" /></clipPath><clipPath id="clip-mask-7"><use xlink:href="#rect-7" /></clipPath><clipPath id="clip-mask-8"><use xlink:href="#rect-8" /></clipPath><clipPath id="clip-mask-9"><use xlink:href="#rect-9" /></clipPath><clipPath id="clip-mask-10"><use xlink:href="#rect-10" /></clipPath><clipPath id="clip-mask-11"><use xlink:href="#rect-11" /></clipPath><clipPath id="clip-mask-12"><use xlink:href="#rect-12" /></clipPath><clipPath id="clip-mask-13"><use xlink:href="#rect-13" /></clipPath></defs><path d="M 0 0 L 270 270 M 270 0 L 0 270 M 135 0 L 135 270 M 0 135 L 270 135" stroke="#CCCCCC" /><path d="M 48 190 L 31 213 Q 22 227 18 228 Q 16 228 16 226 Q 16 224 17 223 Q 36 186 43 160 Q 51 126 49 81 Q 49 75 49 69 Q 47 57 42 50 Q 40 46 43 44 Q 46 43 51 45 Q 56 46 59 49 L 64 56 Q 62 60 62 96 L 62 105 Q 61 126 59 139 L 57 149" fill="#CCCCCC"/><path d="M 59 49 Q 72 46 77 44 Q 89 38 93 40 Q 102 43 108 48 Q 111 50 108 55 L 89 52 Q 87 50 83 51 Q 74 54 66 56 Q 65 56 64 56" fill="#CCCCCC"/><path d="M 108 55 Q 104 62 105 76 Q 104 155 106 204 Q 107 217 96 229 Q 94 231 92 230 Q 88 229 85 224 L 88 205 Q 90 202 90 196 Q 93 147 92 66 Q 92 55 89 52" fill="#CCCCCC"/><path d="M 85 224 Q 77 215 63 202 Q 63 200 68 202 Q 75 204 82 205 Q 86 207 88 205" fill="#CCCCCC"/><path d="M 62 96 Q 69 93 74 93 Q 81 93 85 96 Q 88 99 81 102 Q 73 103 63 105 Q 62 105 62 105" fill="#CCCCCC"/><path d="M 59 139 Q 69 135 75 136 Q 82 136 85 140 Q 88 143 82 145 Q 71 146 58 149 Q 57 149 57 149" fill="#CCCCCC"/><path d="M 168 66 L 193 54 Q 199 52 204 54 Q 219 61 223 64 Q 228 69 223 74 L 197 69 Q 194 66 189 68 Q 178 71 169 73 L 159 76 Q 151 77 144 79 Q 139 81 136 81 L 133 72" fill="#CCCCCC"/><path d="M 223 74 Q 213 82 206 106 L 192 105 Q 196 93 199 78 Q 199 72 197 69" fill="#CCCCCC"/><path d="M 169 73 Q 171 76 173 78 Q 173 78 168 113 L 157 116 Q 159 80 159 76" fill="#CCCCCC"/><path d="M 132 121 Q 131 121 132 121 Q 144 118 157 116 L 168 113 Q 179 110 191 106 Q 191 105 192 105 L 206 106 Q 213 111 213 112 Q 212 115 210 115 Q 169 122 148 127 Q 135 130 131 127" fill="#CCCCCC"/><path d="M 136 81 Q 133 102 132 121 L 131 127 Q 129 168 137 185 L 134 204 Q 127 198 125 190 Q 119 169 122 93 Q 123 84 119 73 Q 118 69 119 68 Q 122 66 125 68 Q 130 69 133 72" fill="#CCCCCC"/><path d="M 137 185 Q 140 191 150 195 Q 176 205 206 197 Q 219 193 224 187 L 250 188 Q 253 195 248 199 Q 235 208 222 212 Q 216 214 210 215 Q 158 223 134 204" fill="#CCCCCC"/><path d="M 224 187 Q 229 180 238 155 Q 239 150 241 151 Q 243 152 243 157 Q 247 180 250 188" fill="#CCCCCC"/><path d="M 48 190 L 31 213 Q 22 227 18 228 Q 16 228 16 226 Q 16 224 17 223 Q 36 186 43 160 Q 51 126 49 81 Q 49 75 49 69 Q 47 57 42 50 Q 40 46 43 44 Q 46 43 51 45 Q 56 46 59 49 L 64 56 Q 62 60 62 96 L 62 105 Q 61 126 59 139 L 57 149" fill="#0000ff" clip-path="url(#clip-mask-1)" /><path d="M 59 49 Q 72 46 77 44 Q 89 38 93 40 Q 102 43 108 48 Q 111 50 108 55 L 89 52 Q 87 50 83 51 Q 74 54 66 56 Q 65 56 64 56" fill="#0000ff" clip-path="url(#clip-mask-2)" /><path d="M 108 55 Q 104 62 105 76 Q 104 155 106 204 Q 107 217 96 229 Q 94 231 92 230 Q 88 229 85 224 L 88 205 Q 90 202 90 196 Q 93 147 92 66 Q 92 55 89 52" fill="#0000ff" clip-path="url(#clip-mask-3)" /><path d="M 85 224 Q 77 215 63 202 Q 63 200 68 202 Q 75 204 82 205 Q 86 207 88 205" fill="#0000ff" clip-path="url(#clip-mask-4)" /><path d="M 62 96 Q 69 93 74 93 Q 81 93 85 96 Q 88 99 81 102 Q 73 103 63 105 Q 62 105 62 105" fill="#0000ff" clip-path="url(#clip-mask-5)" /><path d="M 59 139 Q 69 135 75 136 Q 82 136 85 140 Q 88 143 82 145 Q 71 146 58 149 Q 57 149 57 149" fill="#0000ff" clip-path="url(#clip-mask-6)" /><path d="M 168 66 L 193 54 Q 199 52 204 54 Q 219 61 223 64 Q 228 69 223 74 L 197 69 Q 194 66 189 68 Q 178 71 169 73 L 159 76 Q 151 77 144 79 Q 139 81 136 81 L 133 72" fill="#000080" clip-path="url(#clip-mask-7)" /><path d="M 223 74 Q 213 82 206 106 L 192 105 Q 196 93 199 78 Q 199 72 197 69" fill="#000080" clip-path="url(#clip-mask-8)" /><path d="M 169 73 Q 171 76 173 78 Q 173 78 168 113 L 157 116 Q 159 80 159 76" fill="#000080" clip-path="url(#clip-mask-9)" /><path d="M 132 121 Q 131 121 132 121 Q 144 118 157 116 L 168 113 Q 179 110 191 106 Q 191 105 192 105 L 206 106 Q 213 111 213 112 Q 212 115 210 115 Q 169 122 148 127 Q 135 130 131 127" fill="#000080" clip-path="url(#clip-mask-10)" /><path d="M 136 81 Q 133 102 132 121 L 131 127 Q 129 168 137 185 L 134 204 Q 127 198 125 190 Q 119 169 122 93 Q 123 84 119 73 Q 118 69 119 68 Q 122 66 125 68 Q 130 69 133 72" fill="#000080" clip-path="url(#clip-mask-11)" /><path d="M 137 185 Q 140 191 150 195 Q 176 205 206 197 Q 219 193 224 187 L 250 188 Q 253 195 248 199 Q 235 208 222 212 Q 216 214 210 215 Q 158 223 134 204" fill="#000080" clip-path="url(#clip-mask-12)" /><path d="M 224 187 Q 229 180 238 155 Q 239 150 241 151 Q 243 152 243 157 Q 247 180 250 188" fill="#000080" clip-path="url(#clip-mask-13)" /><rect x="16" y="43" width="48" height="185" id="rect-1" fill="transparent" stroke="#000000"><animate attributeName="y" from="-142" to="43" dur="0.685" begin="0; animate13.end + 1s" id="animate1" fill="freeze"/></rect><rect x="59" y="38" width="52" height="18" id="rect-2" fill="transparent" stroke="#000000"><set attributeName="x" to="7" begin="0; animate13.end + 1s" /><animate attributeName="x" from="7" to="59" dur="0.193" begin="animate1.end + 0.5" id="animate2" fill="freeze"/></rect><rect x="85" y="52" width="23" height="179" id="rect-3" fill="transparent" stroke="#000000"><set attributeName="y" to="-127" begin="0; animate13.end + 1s" /><animate attributeName="y" from="-127" to="52" dur="0.663" begin="animate2.end" id="animate3" fill="freeze"/></rect><rect x="63" y="200" width="25" height="24" id="rect-4" fill="transparent" stroke="#000000"><set attributeName="x" to="88" begin="0; animate13.end + 1s" /><animate attributeName="x" from="88" to="63" dur="0.093" begin="animate3.end" id="animate4" fill="freeze"/></rect><rect x="62" y="93" width="26" height="12" id="rect-5" fill="transparent" stroke="#000000"><set attributeName="x" to="36" begin="0; animate13.end + 1s" /><animate attributeName="x" from="36" to="62" dur="0.096" begin="animate4.end + 0.5" id="animate5" fill="freeze"/></rect><rect x="57" y="135" width="31" height="14" id="rect-6" fill="transparent" stroke="#000000"><set attributeName="x" to="26" begin="0; animate13.end + 1s" /><animate attributeName="x" from="26" to="57" dur="0.115" begin="animate5.end + 0.5" id="animate6" fill="freeze"/></rect><rect x="133" y="52" width="95" height="29" id="rect-7" fill="transparent" stroke="#000000"><set attributeName="x" to="38" begin="0; animate13.end + 1s" /><animate attributeName="x" from="38" to="133" dur="0.352" begin="animate6.end + 0.5" id="animate7" fill="freeze"/></rect><rect x="192" y="69" width="31" height="37" id="rect-8" fill="transparent" stroke="#000000"><set attributeName="y" to="32" begin="0; animate13.end + 1s" /><animate attributeName="y" from="32" to="69" dur="0.137" begin="animate7.end" id="animate8" fill="freeze"/></rect><rect x="157" y="73" width="16" height="43" id="rect-9" fill="transparent" stroke="#000000"><set attributeName="y" to="30" begin="0; animate13.end + 1s" /><animate attributeName="y" from="30" to="73" dur="0.159" begin="animate8.end + 0.5" id="animate9" fill="freeze"/></rect><rect x="131" y="105" width="82" height="25" id="rect-10" fill="transparent" stroke="#000000"><set attributeName="x" to="49" begin="0; animate13.end + 1s" /><animate attributeName="x" from="49" to="131" dur="0.304" begin="animate9.end + 0.5" id="animate10" fill="freeze"/></rect><rect x="118" y="66" width="19" height="138" id="rect-11" fill="transparent" stroke="#000000"><set attributeName="y" to="-72" begin="0; animate13.end + 1s" /><animate attributeName="y" from="-72" to="66" dur="0.511" begin="animate10.end + 0.5" id="animate11" fill="freeze"/></rect><rect x="134" y="185" width="119" height="38" id="rect-12" fill="transparent" stroke="#000000"><set attributeName="x" to="15" begin="0; animate13.end + 1s" /><animate attributeName="x" from="15" to="134" dur="0.441" begin="animate11.end" id="animate12" fill="freeze"/></rect><rect x="224" y="150" width="26" height="38" id="rect-13" fill="transparent" stroke="#000000"><set attributeName="y" to="188" begin="0; animate13.end + 1s" /><animate attributeName="y" from="188" to="150" dur="0.141" begin="animate12.end" id="animate13" fill="freeze"/></rect></svg>