<svg xmlns="http://www.w3.org/2000/svg" xmlns:xlink="http://www.w3.org/1999/xlink" width="270" height="270"><defs><clipPath id="clip-mask-1"><use xlink:href="#rect-1" /></clipPath><clipPath id="clip-mask-2"><use xlink:href="#rect-2" /></clipPath><clipPath id="clip-mask-3"><use xlink:href="#rect-3" /></clipPath><clipPath id="clip-mask-4"><use xlink:href="#rect-4" /></clipPath><clipPath id="clip-mask-5"><use xlink:href="#rect-5" /></clipPath><clipPath id="clip-mask-6"><use xlink:href="#rect-6" /></clipPath><clipPath id="clip-mask-7"><use xlink:href="#rect-7" /></clipPath><clipPath id="clip-mask-8"><use xlink:href="#rect-8" /></clipPath><clipPath id="clip-mask-9"><use xlink:href="#rect-9" /></clipPath><clipPath id="clip-mask-10"><use xlink:href="#rect-10" /></clipPath><clipPath id="clip-mask-11"><use xlink:href="#rect-11" /></clipPath></defs><path d="M 0 0 L 270 270 M 270 0 L 0 270 M 135 0 L 135 270 M 0 135 L 270 135" stroke="#CCCCCC" /><path d="M 119 20 L 117 17 Q 117 13 118 12 Q 120 11 124 12 Q 145 14 148 21 Q 152 30 150 34 Q 149 38 146 38 Q 142 38 138 35 Q 132 30 127 25" fill="#CCCCCC"/><path d="M 114 63 Q 80 67 50 75 Q 46 76 40 75 Q 35 73 31 69 Q 27 65 33 64 Q 159 49 208 39 Q 223 36 237 47 Q 242 51 241 54 Q 239 57 234 57 Q 163 57 127 61" fill="#CCCCCC"/><path d="M 85 124 Q 82 125 80 124 Q 76 122 74 117 Q 72 111 73 107 Q 73 104 80 102 Q 90 98 95 93 Q 114 77 114 63 L 127 61 Q 133 64 135 66 Q 137 69 133 72 Q 124 77 103 98 Q 102 100 102 100" fill="#CCCCCC"/><path d="M 113 106 L 85 124 L 102 100 Q 102 101 105 100 Q 136 94 166 89 L 170 94" fill="#CCCCCC"/><path d="M 166 89 Q 162 84 158 81 Q 155 78 155 75 Q 156 72 158 73 Q 164 75 175 80 Q 193 88 195 98 Q 197 109 194 112 Q 193 114 190 114 Q 187 113 183 108 Q 176 100 170 94" fill="#CCCCCC"/><path d="M 102 200 L 102 201 Q 102 235 90 242 Q 88 243 86 240 Q 84 238 84 237 Q 80 229 81 224 Q 81 224 87 208 Q 100 160 88 133 Q 87 130 91 129 Q 99 128 105 134 L 107 142 Q 107 142 107 143 Q 106 148 105 161 L 105 167 Q 103 177 103 191 L 102 199" fill="#CCCCCC"/><path d="M 105 134 Q 116 132 139 126 Q 149 123 154 121 Q 159 118 165 120 Q 175 124 180 128 Q 184 132 181 136 L 158 134 Q 152 131 113 140 Q 110 141 107 142" fill="#CCCCCC"/><path d="M 181 136 Q 177 145 178 157 Q 181 186 183 217 Q 185 231 178 243 Q 173 256 168 257 Q 164 258 161 254 L 160 233 Q 164 232 164 225 Q 167 189 162 142 Q 161 135 158 134" fill="#CCCCCC"/><path d="M 161 254 Q 154 246 144 239 Q 140 237 140 235 Q 139 233 142 233 Q 157 234 160 233" fill="#CCCCCC"/><path d="M 105 161 Q 113 159 121 158 Q 139 153 146 154 Q 152 155 153 158 Q 154 159 152 161 Q 152 162 131 166 Q 114 169 105 167" fill="#CCCCCC"/><path d="M 103 191 Q 127 187 134 185 Q 141 183 147 184 Q 154 186 155 189 Q 156 191 154 193 Q 153 193 152 193 Q 110 200 103 199 Q 103 199 102 199" fill="#CCCCCC"/><path d="M 119 20 L 117 17 Q 117 13 118 12 Q 120 11 124 12 Q 145 14 148 21 Q 152 30 150 34 Q 149 38 146 38 Q 142 38 138 35 Q 132 30 127 25" fill="#000080" clip-path="url(#clip-mask-1)" /><path d="M 114 63 Q 80 67 50 75 Q 46 76 40 75 Q 35 73 31 69 Q 27 65 33 64 Q 159 49 208 39 Q 223 36 237 47 Q 242 51 241 54 Q 239 57 234 57 Q 163 57 127 61" fill="#000080" clip-path="url(#clip-mask-2)" /><path d="M 85 124 Q 82 125 80 124 Q 76 122 74 117 Q 72 111 73 107 Q 73 104 80 102 Q 90 98 95 93 Q 114 77 114 63 L 127 61 Q 133 64 135 66 Q 137 69 133 72 Q 124 77 103 98 Q 102 100 102 100" fill="#000080" clip-path="url(#clip-mask-3)" /><path d="M 113 106 L 85 124 L 102 100 Q 102 101 105 100 Q 136 94 166 89 L 170 94" fill="#000080" clip-path="url(#clip-mask-4)" /><path d="M 166 89 Q 162 84 158 81 Q 155 78 155 75 Q 156 72 158 73 Q 164 75 175 80 Q 193 88 195 98 Q 197 109 194 112 Q 193 114 190 114 Q 187 113 183 108 Q 176 100 170 94" fill="#000080" clip-path="url(#clip-mask-5)" /><path d="M 102 200 L 102 201 Q 102 235 90 242 Q 88 243 86 240 Q 84 238 84 237 Q 80 229 81 224 Q 81 224 87 208 Q 100 160 88 133 Q 87 130 91 129 Q 99 128 105 134 L 107 142 Q 107 142 107 143 Q 106 148 105 161 L 105 167 Q 103 177 103 191 L 102 199" fill="#0000ff" clip-path="url(#clip-mask-6)" /><path d="M 105 134 Q 116 132 139 126 Q 149 123 154 121 Q 159 118 165 120 Q 175 124 180 128 Q 184 132 181 136 L 158 134 Q 152 131 113 140 Q 110 141 107 142" fill="#0000ff" clip-path="url(#clip-mask-7)" /><path d="M 181 136 Q 177 145 178 157 Q 181 186 183 217 Q 185 231 178 243 Q 173 256 168 257 Q 164 258 161 254 L 160 233 Q 164 232 164 225 Q 167 189 162 142 Q 161 135 158 134" fill="#0000ff" clip-path="url(#clip-mask-8)" /><path d="M 161 254 Q 154 246 144 239 Q 140 237 140 235 Q 139 233 142 233 Q 157 234 160 233" fill="#0000ff" clip-path="url(#clip-mask-9)" /><path d="M 105 161 Q 113 159 121 158 Q 139 153 146 154 Q 152 155 153 158 Q 154 159 152 161 Q 152 162 131 166 Q 114 169 105 167" fill="#0000ff" clip-path="url(#clip-mask-10)" /><path d="M 103 191 Q 127 187 134 185 Q 141 183 147 184 Q 154 186 155 189 Q 156 191 154 193 Q 153 193 152 193 Q 110 200 103 199 Q 103 199 102 199" fill="#0000ff" clip-path="url(#clip-mask-11)" /><rect x="117" y="11" width="35" height="27" id="rect-1" fill="transparent" stroke="#000000"><animate attributeName="x" from="82" to="117" dur="0.130" begin="0; animate11.end + 1s" id="animate1" fill="freeze"/></rect><rect x="27" y="36" width="215" height="40" id="rect-2" fill="transparent" stroke="#000000"><set attributeName="x" to="-188" begin="0; animate11.end + 1s" /><animate attributeName="x" from="-188" to="27" dur="0.796" begin="animate1.end + 0.5" id="animate2" fill="freeze"/></rect><rect x="72" y="61" width="65" height="64" id="rect-3" fill="transparent" stroke="#000000"><set attributeName="y" to="-3" begin="0; animate11.end + 1s" /><animate attributeName="y" from="-3" to="61" dur="0.237" begin="animate2.end + 0.5" id="animate3" fill="freeze"/></rect><rect x="85" y="89" width="85" height="35" id="rect-4" fill="transparent" stroke="#000000"><set attributeName="x" to="0" begin="0; animate11.end + 1s" /><animate attributeName="x" from="0" to="85" dur="0.315" begin="animate3.end" id="animate4" fill="freeze"/></rect><rect x="155" y="72" width="42" height="42" id="rect-5" fill="transparent" stroke="#000000"><set attributeName="y" to="30" begin="0; animate11.end + 1s" /><animate attributeName="y" from="30" to="72" dur="0.156" begin="animate4.end + 0.5" id="animate5" fill="freeze"/></rect><rect x="80" y="128" width="27" height="115" id="rect-6" fill="transparent" stroke="#000000"><set attributeName="y" to="13" begin="0; animate11.end + 1s" /><animate attributeName="y" from="13" to="128" dur="0.426" begin="animate5.end + 0.5" id="animate6" fill="freeze"/></rect><rect x="105" y="118" width="79" height="24" id="rect-7" fill="transparent" stroke="#000000"><set attributeName="x" to="26" begin="0; animate11.end + 1s" /><animate attributeName="x" from="26" to="105" dur="0.293" begin="animate6.end + 0.5" id="animate7" fill="freeze"/></rect><rect x="158" y="134" width="27" height="124" id="rect-8" fill="transparent" stroke="#000000"><set attributeName="y" to="10" begin="0; animate11.end + 1s" /><animate attributeName="y" from="10" to="134" dur="0.459" begin="animate7.end" id="animate8" fill="freeze"/></rect><rect x="139" y="233" width="22" height="21" id="rect-9" fill="transparent" stroke="#000000"><set attributeName="x" to="161" begin="0; animate11.end + 1s" /><animate attributeName="x" from="161" to="139" dur="0.081" begin="animate8.end" id="animate9" fill="freeze"/></rect><rect x="105" y="153" width="49" height="16" id="rect-10" fill="transparent" stroke="#000000"><set attributeName="x" to="56" begin="0; animate11.end + 1s" /><animate attributeName="x" from="56" to="105" dur="0.181" begin="animate9.end + 0.5" id="animate10" fill="freeze"/></rect><rect x="102" y="183" width="54" height="17" id="rect-11" fill="transparent" stroke="#000000"><set attributeName="x" to="48" begin="0; animate11.end + 1s" /><animate attributeName="x" from="48" to="102" dur="0.200" begin="animate10.end + 0.5" id="animate11" fill="freeze"/></rect></svg>