<svg xmlns="http://www.w3.org/2000/svg" xmlns:xlink="http://www.w3.org/1999/xlink" width="270" height="270"><defs><clipPath id="clip-mask-1"><use xlink:href="#rect-1" /></clipPath><clipPath id="clip-mask-2"><use xlink:href="#rect-2" /></clipPath><clipPath id="clip-mask-3"><use xlink:href="#rect-3" /></clipPath><clipPath id="clip-mask-4"><use xlink:href="#rect-4" /></clipPath><clipPath id="clip-mask-5"><use xlink:href="#rect-5" /></clipPath><clipPath id="clip-mask-6"><use xlink:href="#rect-6" /></clipPath><clipPath id="clip-mask-7"><use xlink:href="#rect-7" /></clipPath><clipPath id="clip-mask-8"><use xlink:href="#rect-8" /></clipPath><clipPath id="clip-mask-9"><use xlink:href="#rect-9" /></clipPath><clipPath id="clip-mask-10"><use xlink:href="#rect-10" /></clipPath><clipPath id="clip-mask-11"><use xlink:href="#rect-11" /></clipPath><clipPath id="clip-mask-12"><use xlink:href="#rect-12" /></clipPath><clipPath id="clip-mask-13"><use xlink:href="#rect-13" /></clipPath><clipPath id="clip-mask-14"><use xlink:href="#rect-14" /></clipPath><clipPath id="clip-mask-15"><use xlink:href="#rect-15" /></clipPath></defs><path d="M 0 0 L 270 270 M 270 0 L 0 270 M 135 0 L 135 270 M 0 135 L 270 135" stroke="#CCCCCC" /><path d="M 51 156 L 46 170 Q 44 178 41 186 Q 25 217 18 220 Q 15 220 15 218 Q 16 216 17 214 Q 33 181 39 155 Q 39 151 40 148 Q 51 70 35 50 Q 33 47 36 45 Q 42 42 51 48 L 58 55 Q 57 59 57 91 L 57 100 Q 57 116 55 131 Q 55 131 55 132 L 53 140" fill="#CCCCCC"/><path d="M 51 48 Q 68 44 77 39 Q 80 37 85 39 Q 93 43 99 47 L 80 52 Q 78 49 74 50 Q 67 53 59 55 Q 58 55 58 55" fill="#CCCCCC"/><path d="M 99 47 Q 102 50 99 55 Q 96 61 96 75 Q 96 151 99 198 Q 99 212 89 224 Q 87 226 85 226 Q 81 225 78 220 L 79 201 Q 82 198 82 191 Q 85 143 83 64 Q 83 54 80 52" fill="#CCCCCC"/><path d="M 78 220 Q 70 212 58 201 Q 57 198 62 200 Q 79 202 79 201" fill="#CCCCCC"/><path d="M 57 91 Q 64 89 69 89 Q 76 89 79 92 Q 81 95 76 97 Q 67 98 57 100" fill="#CCCCCC"/><path d="M 55 132 Q 64 128 69 129 Q 76 129 78 133 Q 81 136 75 137 L 53 140" fill="#CCCCCC"/><path d="M 125 60 Q 126 59 126 58 Q 132 49 137 41 Q 149 23 146 16 Q 144 12 148 11 Q 151 10 158 13 Q 166 16 170 20 Q 174 24 168 28 Q 164 30 147 46 Q 142 51 133 58" fill="#CCCCCC"/><path d="M 125 69 Q 125 70 132 116 L 133 124 Q 133 128 132 132 Q 131 136 126 130 Q 121 124 120 114 Q 116 83 107 64 Q 105 60 106 58 Q 107 57 110 58 Q 117 59 120 60" fill="#CCCCCC"/><path d="M 154 63 Q 137 65 125 69 Q 125 69 125 69 L 120 60 Q 123 60 125 60 L 133 58 Q 183 49 193 49 Q 208 45 214 48 Q 225 55 229 60 L 203 59 Q 197 55 162 62" fill="#CCCCCC"/><path d="M 229 60 Q 232 64 228 67 Q 222 74 219 82 Q 208 120 204 126 Q 199 132 197 130 Q 191 127 186 116 L 188 113 Q 192 112 194 109 Q 197 103 205 68 Q 206 63 203 59" fill="#CCCCCC"/><path d="M 154 93 Q 151 93 146 95 Q 142 96 139 94 Q 134 90 138 89 Q 146 87 156 84 L 169 80 Q 177 78 183 78 Q 189 79 192 83 Q 194 86 188 87 Q 178 88 167 91" fill="#CCCCCC"/><path d="M 163 110 Q 177 105 181 108 Q 187 111 188 113 L 186 116 Q 171 117 159 119 L 148 121 Q 140 122 136 123 Q 134 124 133 124 L 132 116 Q 140 114 151 112" fill="#CCCCCC"/><path d="M 165 100 L 163 110 L 159 119 Q 150 144 133 160 Q 132 160 131 161 L 126 162 Q 126 162 126 161 Q 126 160 127 159 Q 141 141 148 121 L 151 112 Q 152 105 154 93 L 156 84 Q 155 66 154 64 Q 154 63 154 63 L 162 62 Q 168 65 171 68 Q 172 71 171 74 Q 170 76 169 79 Q 169 79 169 80 L 167 91" fill="#CCCCCC"/><path d="M 153 165 L 119 174 Q 115 176 110 174 Q 105 173 102 170 Q 98 165 103 165 Q 115 163 126 162 L 131 161 Q 151 158 170 156 L 185 153 Q 205 150 220 147 Q 235 142 250 153 Q 254 157 252 159 Q 251 162 246 162 Q 206 162 184 164 L 170 165" fill="#CCCCCC"/><path d="M 170 156 Q 170 142 165 134 Q 163 131 165 129 Q 169 127 172 128 Q 176 129 184 134 Q 188 137 187 141 Q 186 144 185 148 Q 185 150 185 153 L 184 164 Q 183 203 184 213 Q 184 253 177 258 Q 175 259 173 257 Q 172 256 172 254 Q 170 250 170 165" fill="#CCCCCC"/><path d="M 51 156 L 46 170 Q 44 178 41 186 Q 25 217 18 220 Q 15 220 15 218 Q 16 216 17 214 Q 33 181 39 155 Q 39 151 40 148 Q 51 70 35 50 Q 33 47 36 45 Q 42 42 51 48 L 58 55 Q 57 59 57 91 L 57 100 Q 57 116 55 131 Q 55 131 55 132 L 53 140" fill="#0000ff" clip-path="url(#clip-mask-1)" /><path d="M 51 48 Q 68 44 77 39 Q 80 37 85 39 Q 93 43 99 47 L 80 52 Q 78 49 74 50 Q 67 53 59 55 Q 58 55 58 55" fill="#0000ff" clip-path="url(#clip-mask-2)" /><path d="M 99 47 Q 102 50 99 55 Q 96 61 96 75 Q 96 151 99 198 Q 99 212 89 224 Q 87 226 85 226 Q 81 225 78 220 L 79 201 Q 82 198 82 191 Q 85 143 83 64 Q 83 54 80 52" fill="#0000ff" clip-path="url(#clip-mask-3)" /><path d="M 78 220 Q 70 212 58 201 Q 57 198 62 200 Q 79 202 79 201" fill="#0000ff" clip-path="url(#clip-mask-4)" /><path d="M 57 91 Q 64 89 69 89 Q 76 89 79 92 Q 81 95 76 97 Q 67 98 57 100" fill="#0000ff" clip-path="url(#clip-mask-5)" /><path d="M 55 132 Q 64 128 69 129 Q 76 129 78 133 Q 81 136 75 137 L 53 140" fill="#0000ff" clip-path="url(#clip-mask-6)" /><path d="M 125 60 Q 126 59 126 58 Q 132 49 137 41 Q 149 23 146 16 Q 144 12 148 11 Q 151 10 158 13 Q 166 16 170 20 Q 174 24 168 28 Q 164 30 147 46 Q 142 51 133 58" fill="#000080" clip-path="url(#clip-mask-7)" /><path d="M 125 69 Q 125 70 132 116 L 133 124 Q 133 128 132 132 Q 131 136 126 130 Q 121 124 120 114 Q 116 83 107 64 Q 105 60 106 58 Q 107 57 110 58 Q 117 59 120 60" fill="#000080" clip-path="url(#clip-mask-8)" /><path d="M 154 63 Q 137 65 125 69 Q 125 69 125 69 L 120 60 Q 123 60 125 60 L 133 58 Q 183 49 193 49 Q 208 45 214 48 Q 225 55 229 60 L 203 59 Q 197 55 162 62" fill="#000080" clip-path="url(#clip-mask-9)" /><path d="M 229 60 Q 232 64 228 67 Q 222 74 219 82 Q 208 120 204 126 Q 199 132 197 130 Q 191 127 186 116 L 188 113 Q 192 112 194 109 Q 197 103 205 68 Q 206 63 203 59" fill="#000080" clip-path="url(#clip-mask-10)" /><path d="M 154 93 Q 151 93 146 95 Q 142 96 139 94 Q 134 90 138 89 Q 146 87 156 84 L 169 80 Q 177 78 183 78 Q 189 79 192 83 Q 194 86 188 87 Q 178 88 167 91" fill="#000080" clip-path="url(#clip-mask-11)" /><path d="M 163 110 Q 177 105 181 108 Q 187 111 188 113 L 186 116 Q 171 117 159 119 L 148 121 Q 140 122 136 123 Q 134 124 133 124 L 132 116 Q 140 114 151 112" fill="#000080" clip-path="url(#clip-mask-12)" /><path d="M 165 100 L 163 110 L 159 119 Q 150 144 133 160 Q 132 160 131 161 L 126 162 Q 126 162 126 161 Q 126 160 127 159 Q 141 141 148 121 L 151 112 Q 152 105 154 93 L 156 84 Q 155 66 154 64 Q 154 63 154 63 L 162 62 Q 168 65 171 68 Q 172 71 171 74 Q 170 76 169 79 Q 169 79 169 80 L 167 91" fill="#000080" clip-path="url(#clip-mask-13)" /><path d="M 153 165 L 119 174 Q 115 176 110 174 Q 105 173 102 170 Q 98 165 103 165 Q 115 163 126 162 L 131 161 Q 151 158 170 156 L 185 153 Q 205 150 220 147 Q 235 142 250 153 Q 254 157 252 159 Q 251 162 246 162 Q 206 162 184 164 L 170 165" fill="#000080" clip-path="url(#clip-mask-14)" /><path d="M 170 156 Q 170 142 165 134 Q 163 131 165 129 Q 169 127 172 128 Q 176 129 184 134 Q 188 137 187 141 Q 186 144 185 148 Q 185 150 185 153 L 184 164 Q 183 203 184 213 Q 184 253 177 258 Q 175 259 173 257 Q 172 256 172 254 Q 170 250 170 165" fill="#000080" clip-path="url(#clip-mask-15)" /><rect x="15" y="42" width="43" height="178" id="rect-1" fill="transparent" stroke="#000000"><animate attributeName="y" from="-136" to="42" dur="0.659" begin="0; animate15.end + 1s" id="animate1" fill="freeze"/></rect><rect x="51" y="37" width="48" height="18" id="rect-2" fill="transparent" stroke="#000000"><set attributeName="x" to="3" begin="0; animate15.end + 1s" /><animate attributeName="x" from="3" to="51" dur="0.178" begin="animate1.end + 0.5" id="animate2" fill="freeze"/></rect><rect x="78" y="47" width="24" height="179" id="rect-3" fill="transparent" stroke="#000000"><set attributeName="y" to="-132" begin="0; animate15.end + 1s" /><animate attributeName="y" from="-132" to="47" dur="0.663" begin="animate2.end" id="animate3" fill="freeze"/></rect><rect x="57" y="198" width="22" height="22" id="rect-4" fill="transparent" stroke="#000000"><set attributeName="x" to="79" begin="0; animate15.end + 1s" /><animate attributeName="x" from="79" to="57" dur="0.081" begin="animate3.end" id="animate4" fill="freeze"/></rect><rect x="57" y="89" width="24" height="11" id="rect-5" fill="transparent" stroke="#000000"><set attributeName="x" to="33" begin="0; animate15.end + 1s" /><animate attributeName="x" from="33" to="57" dur="0.089" begin="animate4.end + 0.5" id="animate5" fill="freeze"/></rect><rect x="53" y="128" width="28" height="12" id="rect-6" fill="transparent" stroke="#000000"><set attributeName="x" to="25" begin="0; animate15.end + 1s" /><animate attributeName="x" from="25" to="53" dur="0.104" begin="animate5.end + 0.5" id="animate6" fill="freeze"/></rect><rect x="125" y="10" width="49" height="50" id="rect-7" fill="transparent" stroke="#000000"><set attributeName="y" to="-40" begin="0; animate15.end + 1s" /><animate attributeName="y" from="-40" to="10" dur="0.185" begin="animate6.end + 0.5" id="animate7" fill="freeze"/></rect><rect x="105" y="57" width="28" height="79" id="rect-8" fill="transparent" stroke="#000000"><set attributeName="y" to="-22" begin="0; animate15.end + 1s" /><animate attributeName="y" from="-22" to="57" dur="0.293" begin="animate7.end + 0.5" id="animate8" fill="freeze"/></rect><rect x="120" y="45" width="109" height="24" id="rect-9" fill="transparent" stroke="#000000"><set attributeName="x" to="11" begin="0; animate15.end + 1s" /><animate attributeName="x" from="11" to="120" dur="0.404" begin="animate8.end + 0.5" id="animate9" fill="freeze"/></rect><rect x="186" y="59" width="46" height="73" id="rect-10" fill="transparent" stroke="#000000"><set attributeName="y" to="-14" begin="0; animate15.end + 1s" /><animate attributeName="y" from="-14" to="59" dur="0.270" begin="animate9.end" id="animate10" fill="freeze"/></rect><rect x="134" y="78" width="60" height="18" id="rect-11" fill="transparent" stroke="#000000"><set attributeName="x" to="74" begin="0; animate15.end + 1s" /><animate attributeName="x" from="74" to="134" dur="0.222" begin="animate10.end + 0.5" id="animate11" fill="freeze"/></rect><rect x="132" y="105" width="56" height="19" id="rect-12" fill="transparent" stroke="#000000"><set attributeName="x" to="76" begin="0; animate15.end + 1s" /><animate attributeName="x" from="76" to="132" dur="0.207" begin="animate11.end + 0.5" id="animate12" fill="freeze"/></rect><rect x="126" y="62" width="46" height="100" id="rect-13" fill="transparent" stroke="#000000"><set attributeName="y" to="-38" begin="0; animate15.end + 1s" /><animate attributeName="y" from="-38" to="62" dur="0.370" begin="animate12.end + 0.5" id="animate13" fill="freeze"/></rect><rect x="98" y="142" width="156" height="34" id="rect-14" fill="transparent" stroke="#000000"><set attributeName="x" to="-58" begin="0; animate15.end + 1s" /><animate attributeName="x" from="-58" to="98" dur="0.578" begin="animate13.end + 0.5" id="animate14" fill="freeze"/></rect><rect x="163" y="127" width="25" height="132" id="rect-15" fill="transparent" stroke="#000000"><set attributeName="y" to="-5" begin="0; animate15.end + 1s" /><animate attributeName="y" from="-5" to="127" dur="0.489" begin="animate14.end + 0.5" id="animate15" fill="freeze"/></rect></svg>