<svg xmlns="http://www.w3.org/2000/svg" xmlns:xlink="http://www.w3.org/1999/xlink" width="270" height="270"><defs><clipPath id="clip-mask-1"><use xlink:href="#rect-1" /></clipPath><clipPath id="clip-mask-2"><use xlink:href="#rect-2" /></clipPath><clipPath id="clip-mask-3"><use xlink:href="#rect-3" /></clipPath><clipPath id="clip-mask-4"><use xlink:href="#rect-4" /></clipPath><clipPath id="clip-mask-5"><use xlink:href="#rect-5" /></clipPath><clipPath id="clip-mask-6"><use xlink:href="#rect-6" /></clipPath><clipPath id="clip-mask-7"><use xlink:href="#rect-7" /></clipPath><clipPath id="clip-mask-8"><use xlink:href="#rect-8" /></clipPath><clipPath id="clip-mask-9"><use xlink:href="#rect-9" /></clipPath><clipPath id="clip-mask-10"><use xlink:href="#rect-10" /></clipPath><clipPath id="clip-mask-11"><use xlink:href="#rect-11" /></clipPath><clipPath id="clip-mask-12"><use xlink:href="#rect-12" /></clipPath><clipPath id="clip-mask-13"><use xlink:href="#rect-13" /></clipPath><clipPath id="clip-mask-14"><use xlink:href="#rect-14" /></clipPath><clipPath id="clip-mask-15"><use xlink:href="#rect-15" /></clipPath><clipPath id="clip-mask-16"><use xlink:href="#rect-16" /></clipPath></defs><path d="M 0 0 L 270 270 M 270 0 L 0 270 M 135 0 L 135 270 M 0 135 L 270 135" stroke="#CCCCCC" /><path d="M 56 159 L 52 174 Q 49 182 46 188 Q 30 222 22 225 Q 19 225 20 223 Q 20 221 21 219 Q 38 187 44 159 Q 51 126 49 83 Q 48 79 48 76 Q 47 59 42 53 Q 40 50 42 48 Q 45 46 50 48 Q 57 50 61 53 L 64 60 Q 63 61 63 94 L 63 103 Q 62 118 60 133 L 59 143" fill="#CCCCCC"/><path d="M 61 53 Q 69 51 73 50 Q 77 48 82 44 Q 86 42 90 44 Q 99 47 103 51 Q 106 54 103 58 L 86 55 Q 84 54 80 55 Q 67 60 64 60" fill="#CCCCCC"/><path d="M 103 58 Q 101 62 101 71 Q 101 145 104 205 Q 105 218 95 230 Q 94 232 91 231 Q 88 230 85 225 L 86 208 Q 88 205 88 198 Q 92 150 89 69 Q 89 58 86 55" fill="#CCCCCC"/><path d="M 85 225 Q 77 218 63 206 Q 62 204 67 206 Q 85 209 86 208" fill="#CCCCCC"/><path d="M 63 94 Q 70 92 75 92 Q 81 93 84 96 Q 86 99 81 101 Q 73 101 63 103" fill="#CCCCCC"/><path d="M 60 133 Q 69 130 75 131 Q 82 131 85 135 Q 87 138 82 139 Q 72 141 60 143 Q 59 143 59 143" fill="#CCCCCC"/><path d="M 151 112 L 151 114 Q 149 118 145 112 Q 140 106 140 98 Q 136 70 128 52 Q 126 48 128 47 Q 129 45 132 46 Q 140 48 143 50 L 145 58 Q 146 64 148 77 L 149 84 Q 152 100 152 104 L 152 110" fill="#CCCCCC"/><path d="M 143 50 Q 161 45 187 40 Q 190 39 194 38 Q 208 35 212 37 Q 223 44 227 48 L 203 49 Q 195 44 145 58" fill="#CCCCCC"/><path d="M 227 48 Q 230 51 226 55 Q 220 61 218 69 Q 210 106 206 112 Q 202 118 199 116 Q 194 113 189 105 L 194 99 Q 198 95 205 57 Q 207 52 203 49" fill="#CCCCCC"/><path d="M 148 77 Q 173 68 180 68 Q 187 69 190 72 Q 192 76 186 77 Q 171 79 152 84 Q 150 84 149 84" fill="#CCCCCC"/><path d="M 152 104 Q 183 96 188 97 Q 192 97 194 99 L 189 105 Q 174 107 155 110 Q 153 110 152 110" fill="#CCCCCC"/><path d="M 140 153 Q 133 164 122 173 Q 118 177 115 177 Q 112 178 114 175 Q 115 173 116 172 Q 133 150 130 132 Q 130 128 132 128 Q 137 126 147 133 Q 150 137 148 139 Q 145 143 142 148" fill="#CCCCCC"/><path d="M 169 155 L 169 155 Q 149 159 140 153 L 142 148 Q 142 148 143 148 Q 156 146 169 144 L 183 141 Q 189 139 196 136 Q 203 133 211 135 Q 217 137 219 140 Q 220 142 218 144 Q 217 145 207 147 Q 194 150 183 152" fill="#CCCCCC"/><path d="M 169 191 Q 168 191 167 191 Q 153 195 143 189 Q 137 184 146 183 Q 159 182 169 180 L 182 177 Q 197 172 206 173 Q 212 176 214 178 Q 215 180 213 182 Q 212 183 203 185 Q 192 186 182 189" fill="#CCCCCC"/><path d="M 169 202 L 169 191 L 169 180 Q 169 164 169 155 L 169 144 Q 169 129 164 119 Q 163 116 165 115 Q 168 114 171 115 Q 177 118 183 124 Q 186 126 184 131 Q 183 135 183 140 Q 183 140 183 141 L 183 152 Q 182 164 182 177 L 182 189 Q 181 202 181 215 L 169 217" fill="#CCCCCC"/><path d="M 181 215 Q 203 212 218 210 Q 232 206 245 217 Q 250 221 248 224 Q 247 226 242 226 Q 182 221 128 233 Q 124 234 119 233 Q 114 231 110 227 Q 106 223 112 223 Q 143 219 169 217" fill="#CCCCCC"/><path d="M 56 159 L 52 174 Q 49 182 46 188 Q 30 222 22 225 Q 19 225 20 223 Q 20 221 21 219 Q 38 187 44 159 Q 51 126 49 83 Q 48 79 48 76 Q 47 59 42 53 Q 40 50 42 48 Q 45 46 50 48 Q 57 50 61 53 L 64 60 Q 63 61 63 94 L 63 103 Q 62 118 60 133 L 59 143" fill="#0000ff" clip-path="url(#clip-mask-1)" /><path d="M 61 53 Q 69 51 73 50 Q 77 48 82 44 Q 86 42 90 44 Q 99 47 103 51 Q 106 54 103 58 L 86 55 Q 84 54 80 55 Q 67 60 64 60" fill="#0000ff" clip-path="url(#clip-mask-2)" /><path d="M 103 58 Q 101 62 101 71 Q 101 145 104 205 Q 105 218 95 230 Q 94 232 91 231 Q 88 230 85 225 L 86 208 Q 88 205 88 198 Q 92 150 89 69 Q 89 58 86 55" fill="#0000ff" clip-path="url(#clip-mask-3)" /><path d="M 85 225 Q 77 218 63 206 Q 62 204 67 206 Q 85 209 86 208" fill="#0000ff" clip-path="url(#clip-mask-4)" /><path d="M 63 94 Q 70 92 75 92 Q 81 93 84 96 Q 86 99 81 101 Q 73 101 63 103" fill="#0000ff" clip-path="url(#clip-mask-5)" /><path d="M 60 133 Q 69 130 75 131 Q 82 131 85 135 Q 87 138 82 139 Q 72 141 60 143 Q 59 143 59 143" fill="#0000ff" clip-path="url(#clip-mask-6)" /><path d="M 151 112 L 151 114 Q 149 118 145 112 Q 140 106 140 98 Q 136 70 128 52 Q 126 48 128 47 Q 129 45 132 46 Q 140 48 143 50 L 145 58 Q 146 64 148 77 L 149 84 Q 152 100 152 104 L 152 110" fill="#000080" clip-path="url(#clip-mask-7)" /><path d="M 143 50 Q 161 45 187 40 Q 190 39 194 38 Q 208 35 212 37 Q 223 44 227 48 L 203 49 Q 195 44 145 58" fill="#000080" clip-path="url(#clip-mask-8)" /><path d="M 227 48 Q 230 51 226 55 Q 220 61 218 69 Q 210 106 206 112 Q 202 118 199 116 Q 194 113 189 105 L 194 99 Q 198 95 205 57 Q 207 52 203 49" fill="#000080" clip-path="url(#clip-mask-9)" /><path d="M 148 77 Q 173 68 180 68 Q 187 69 190 72 Q 192 76 186 77 Q 171 79 152 84 Q 150 84 149 84" fill="#000080" clip-path="url(#clip-mask-10)" /><path d="M 152 104 Q 183 96 188 97 Q 192 97 194 99 L 189 105 Q 174 107 155 110 Q 153 110 152 110" fill="#000080" clip-path="url(#clip-mask-11)" /><path d="M 140 153 Q 133 164 122 173 Q 118 177 115 177 Q 112 178 114 175 Q 115 173 116 172 Q 133 150 130 132 Q 130 128 132 128 Q 137 126 147 133 Q 150 137 148 139 Q 145 143 142 148" fill="#000080" clip-path="url(#clip-mask-12)" /><path d="M 169 155 L 169 155 Q 149 159 140 153 L 142 148 Q 142 148 143 148 Q 156 146 169 144 L 183 141 Q 189 139 196 136 Q 203 133 211 135 Q 217 137 219 140 Q 220 142 218 144 Q 217 145 207 147 Q 194 150 183 152" fill="#000080" clip-path="url(#clip-mask-13)" /><path d="M 169 191 Q 168 191 167 191 Q 153 195 143 189 Q 137 184 146 183 Q 159 182 169 180 L 182 177 Q 197 172 206 173 Q 212 176 214 178 Q 215 180 213 182 Q 212 183 203 185 Q 192 186 182 189" fill="#000080" clip-path="url(#clip-mask-14)" /><path d="M 169 202 L 169 191 L 169 180 Q 169 164 169 155 L 169 144 Q 169 129 164 119 Q 163 116 165 115 Q 168 114 171 115 Q 177 118 183 124 Q 186 126 184 131 Q 183 135 183 140 Q 183 140 183 141 L 183 152 Q 182 164 182 177 L 182 189 Q 181 202 181 215 L 169 217" fill="#000080" clip-path="url(#clip-mask-15)" /><path d="M 181 215 Q 203 212 218 210 Q 232 206 245 217 Q 250 221 248 224 Q 247 226 242 226 Q 182 221 128 233 Q 124 234 119 233 Q 114 231 110 227 Q 106 223 112 223 Q 143 219 169 217" fill="#000080" clip-path="url(#clip-mask-16)" /><rect x="19" y="46" width="45" height="179" id="rect-1" fill="transparent" stroke="#000000"><animate attributeName="y" from="-133" to="46" dur="0.663" begin="0; animate16.end + 1s" id="animate1" fill="freeze"/></rect><rect x="61" y="42" width="45" height="18" id="rect-2" fill="transparent" stroke="#000000"><set attributeName="x" to="16" begin="0; animate16.end + 1s" /><animate attributeName="x" from="16" to="61" dur="0.167" begin="animate1.end + 0.5" id="animate2" fill="freeze"/></rect><rect x="85" y="55" width="20" height="177" id="rect-3" fill="transparent" stroke="#000000"><set attributeName="y" to="-122" begin="0; animate16.end + 1s" /><animate attributeName="y" from="-122" to="55" dur="0.656" begin="animate2.end" id="animate3" fill="freeze"/></rect><rect x="62" y="204" width="24" height="21" id="rect-4" fill="transparent" stroke="#000000"><set attributeName="x" to="86" begin="0; animate16.end + 1s" /><animate attributeName="x" from="86" to="62" dur="0.089" begin="animate3.end" id="animate4" fill="freeze"/></rect><rect x="63" y="92" width="23" height="11" id="rect-5" fill="transparent" stroke="#000000"><set attributeName="x" to="40" begin="0; animate16.end + 1s" /><animate attributeName="x" from="40" to="63" dur="0.085" begin="animate4.end + 0.5" id="animate5" fill="freeze"/></rect><rect x="59" y="130" width="28" height="13" id="rect-6" fill="transparent" stroke="#000000"><set attributeName="x" to="31" begin="0; animate16.end + 1s" /><animate attributeName="x" from="31" to="59" dur="0.104" begin="animate5.end + 0.5" id="animate6" fill="freeze"/></rect><rect x="126" y="45" width="26" height="73" id="rect-7" fill="transparent" stroke="#000000"><set attributeName="y" to="-28" begin="0; animate16.end + 1s" /><animate attributeName="y" from="-28" to="45" dur="0.270" begin="animate6.end + 0.5" id="animate7" fill="freeze"/></rect><rect x="143" y="35" width="84" height="23" id="rect-8" fill="transparent" stroke="#000000"><set attributeName="x" to="59" begin="0; animate16.end + 1s" /><animate attributeName="x" from="59" to="143" dur="0.311" begin="animate7.end + 0.5" id="animate8" fill="freeze"/></rect><rect x="189" y="48" width="41" height="70" id="rect-9" fill="transparent" stroke="#000000"><set attributeName="y" to="-22" begin="0; animate16.end + 1s" /><animate attributeName="y" from="-22" to="48" dur="0.259" begin="animate8.end" id="animate9" fill="freeze"/></rect><rect x="148" y="68" width="44" height="16" id="rect-10" fill="transparent" stroke="#000000"><set attributeName="x" to="104" begin="0; animate16.end + 1s" /><animate attributeName="x" from="104" to="148" dur="0.163" begin="animate9.end + 0.5" id="animate10" fill="freeze"/></rect><rect x="152" y="96" width="42" height="14" id="rect-11" fill="transparent" stroke="#000000"><set attributeName="x" to="110" begin="0; animate16.end + 1s" /><animate attributeName="x" from="110" to="152" dur="0.156" begin="animate10.end + 0.5" id="animate11" fill="freeze"/></rect><rect x="112" y="126" width="38" height="52" id="rect-12" fill="transparent" stroke="#000000"><set attributeName="y" to="74" begin="0; animate16.end + 1s" /><animate attributeName="y" from="74" to="126" dur="0.193" begin="animate11.end + 0.5" id="animate12" fill="freeze"/></rect><rect x="140" y="133" width="80" height="26" id="rect-13" fill="transparent" stroke="#000000"><set attributeName="x" to="60" begin="0; animate16.end + 1s" /><animate attributeName="x" from="60" to="140" dur="0.296" begin="animate12.end + 0.5" id="animate13" fill="freeze"/></rect><rect x="137" y="172" width="78" height="23" id="rect-14" fill="transparent" stroke="#000000"><set attributeName="x" to="59" begin="0; animate16.end + 1s" /><animate attributeName="x" from="59" to="137" dur="0.289" begin="animate13.end + 0.5" id="animate14" fill="freeze"/></rect><rect x="163" y="114" width="23" height="103" id="rect-15" fill="transparent" stroke="#000000"><set attributeName="y" to="11" begin="0; animate16.end + 1s" /><animate attributeName="y" from="11" to="114" dur="0.381" begin="animate14.end + 0.5" id="animate15" fill="freeze"/></rect><rect x="106" y="206" width="144" height="28" id="rect-16" fill="transparent" stroke="#000000"><set attributeName="x" to="-38" begin="0; animate16.end + 1s" /><animate attributeName="x" from="-38" to="106" dur="0.533" begin="animate15.end + 0.5" id="animate16" fill="freeze"/></rect></svg>