<svg xmlns="http://www.w3.org/2000/svg" xmlns:xlink="http://www.w3.org/1999/xlink" width="270" height="270"><defs><clipPath id="clip-mask-1"><use xlink:href="#rect-1" /></clipPath><clipPath id="clip-mask-2"><use xlink:href="#rect-2" /></clipPath><clipPath id="clip-mask-3"><use xlink:href="#rect-3" /></clipPath><clipPath id="clip-mask-4"><use xlink:href="#rect-4" /></clipPath><clipPath id="clip-mask-5"><use xlink:href="#rect-5" /></clipPath><clipPath id="clip-mask-6"><use xlink:href="#rect-6" /></clipPath><clipPath id="clip-mask-7"><use xlink:href="#rect-7" /></clipPath><clipPath id="clip-mask-8"><use xlink:href="#rect-8" /></clipPath><clipPath id="clip-mask-9"><use xlink:href="#rect-9" /></clipPath><clipPath id="clip-mask-10"><use xlink:href="#rect-10" /></clipPath><clipPath id="clip-mask-11"><use xlink:href="#rect-11" /></clipPath><clipPath id="clip-mask-12"><use xlink:href="#rect-12" /></clipPath><clipPath id="clip-mask-13"><use xlink:href="#rect-13" /></clipPath><clipPath id="clip-mask-14"><use xlink:href="#rect-14" /></clipPath><clipPath id="clip-mask-15"><use xlink:href="#rect-15" /></clipPath><clipPath id="clip-mask-16"><use xlink:href="#rect-16" /></clipPath><clipPath id="clip-mask-17"><use xlink:href="#rect-17" /></clipPath><clipPath id="clip-mask-18"><use xlink:href="#rect-18" /></clipPath><clipPath id="clip-mask-19"><use xlink:href="#rect-19" /></clipPath></defs><path d="M 0 0 L 270 270 M 270 0 L 0 270 M 135 0 L 135 270 M 0 135 L 270 135" stroke="#CCCCCC" /><path d="M 111 18 L 110 16 Q 109 13 110 12 Q 113 10 129 13 Q 136 15 138 19 Q 141 25 140 28 Q 140 32 138 32 Q 134 33 131 30 Q 124 26 118 22" fill="#CCCCCC"/><path d="M 153 31 L 182 25 Q 189 23 201 31 Q 204 34 203 37 Q 202 38 198 39 Q 126 39 78 52 Q 74 53 70 52 Q 66 51 63 48 Q 59 45 64 44" fill="#CCCCCC"/><path d="M 108 92 L 107 93 Q 107 97 102 93 Q 99 90 98 86 Q 92 71 86 62 Q 84 59 85 58 Q 85 57 88 57 Q 93 57 97 58 L 102 65 Q 102 69 106 81 L 108 88" fill="#CCCCCC"/><path d="M 97 58 Q 130 53 151 45 Q 156 44 159 46 Q 170 51 173 54 L 153 57 Q 151 55 146 56 Q 102 64 102 65" fill="#CCCCCC"/><path d="M 149 73 Q 152 67 153 61 Q 154 58 153 57 L 173 54 Q 176 58 172 62 Q 166 66 161 74" fill="#CCCCCC"/><path d="M 106 81 Q 125 79 149 73 Q 149 73 149 73 L 161 74 Q 166 78 166 80 Q 166 81 163 82 Q 128 85 112 88 Q 110 89 108 88" fill="#CCCCCC"/><path d="M 57 113 Q 55 119 52 130 Q 49 139 45 145 Q 42 152 37 146 Q 29 133 34 126 Q 48 110 46 100 Q 46 94 51 97 Q 54 99 58 105" fill="#CCCCCC"/><path d="M 74 103 L 90 101 Q 103 99 209 84 Q 216 83 221 88 L 203 96 Q 198 95 183 96 Q 114 102 73 114 Q 63 116 57 113 L 58 105" fill="#CCCCCC"/><path d="M 221 88 Q 239 102 239 105 Q 240 108 230 110 Q 218 112 204 121 Q 199 124 197 123 Q 195 121 198 118 Q 207 100 207 100 Q 207 97 203 96" fill="#CCCCCC"/><path d="M 103 147 L 103 148 Q 103 152 98 148 Q 95 146 94 142 Q 90 129 85 122 Q 83 119 84 118 Q 84 117 87 117 Q 93 117 96 118 L 100 125 Q 100 129 102 138 L 103 146" fill="#CCCCCC"/><path d="M 96 118 Q 129 114 150 107 Q 164 101 179 115 L 158 117 Q 156 114 150 115 Q 101 125 100 125" fill="#CCCCCC"/><path d="M 155 129 Q 157 125 159 120 Q 159 118 158 117 L 179 115 Q 181 119 178 123 Q 174 124 167 132" fill="#CCCCCC"/><path d="M 102 138 Q 126 136 155 129 L 155 129 L 167 132 Q 172 135 172 137 Q 172 139 169 139 Q 127 142 108 146 Q 106 146 103 146" fill="#CCCCCC"/><path d="M 97 214 L 97 215 Q 97 243 87 249 Q 85 250 83 247 Q 76 237 83 221 Q 94 184 84 161 Q 83 159 86 157 Q 91 157 98 161 Q 99 161 99 162 L 102 169 Q 102 169 102 170 Q 101 174 100 185 L 99 191 Q 98 197 98 207 L 97 214" fill="#CCCCCC"/><path d="M 99 162 Q 111 160 136 154 Q 146 151 152 148 Q 157 145 163 148 Q 173 152 178 156 Q 182 160 179 164 L 155 161 Q 148 159 108 168 Q 104 169 102 169" fill="#CCCCCC"/><path d="M 179 164 Q 176 171 176 180 Q 178 203 181 227 Q 182 237 177 248 Q 173 258 169 258 Q 165 259 160 255 L 160 234 Q 163 233 163 228 Q 163 202 159 171 Q 159 163 155 161" fill="#CCCCCC"/><path d="M 160 255 Q 151 246 139 238 Q 135 236 135 234 Q 134 232 138 232 Q 156 235 160 234" fill="#CCCCCC"/><path d="M 100 185 Q 108 184 115 182 Q 122 180 128 178 Q 134 175 140 176 Q 146 178 147 180 Q 148 182 146 183 Q 146 183 123 189 Q 106 192 99 191" fill="#CCCCCC"/><path d="M 98 207 Q 106 206 114 205 Q 121 203 128 201 Q 135 199 141 200 Q 147 202 149 204 Q 150 206 148 208 Q 146 209 124 213 Q 104 216 97 214" fill="#CCCCCC"/><path d="M 111 18 L 110 16 Q 109 13 110 12 Q 113 10 129 13 Q 136 15 138 19 Q 141 25 140 28 Q 140 32 138 32 Q 134 33 131 30 Q 124 26 118 22" fill="#000080" clip-path="url(#clip-mask-1)" /><path d="M 153 31 L 182 25 Q 189 23 201 31 Q 204 34 203 37 Q 202 38 198 39 Q 126 39 78 52 Q 74 53 70 52 Q 66 51 63 48 Q 59 45 64 44" fill="#000080" clip-path="url(#clip-mask-2)" /><path d="M 108 92 L 107 93 Q 107 97 102 93 Q 99 90 98 86 Q 92 71 86 62 Q 84 59 85 58 Q 85 57 88 57 Q 93 57 97 58 L 102 65 Q 102 69 106 81 L 108 88" fill="#000080" clip-path="url(#clip-mask-3)" /><path d="M 97 58 Q 130 53 151 45 Q 156 44 159 46 Q 170 51 173 54 L 153 57 Q 151 55 146 56 Q 102 64 102 65" fill="#000080" clip-path="url(#clip-mask-4)" /><path d="M 149 73 Q 152 67 153 61 Q 154 58 153 57 L 173 54 Q 176 58 172 62 Q 166 66 161 74" fill="#000080" clip-path="url(#clip-mask-5)" /><path d="M 106 81 Q 125 79 149 73 Q 149 73 149 73 L 161 74 Q 166 78 166 80 Q 166 81 163 82 Q 128 85 112 88 Q 110 89 108 88" fill="#000080" clip-path="url(#clip-mask-6)" /><path d="M 57 113 Q 55 119 52 130 Q 49 139 45 145 Q 42 152 37 146 Q 29 133 34 126 Q 48 110 46 100 Q 46 94 51 97 Q 54 99 58 105" fill="#000080" clip-path="url(#clip-mask-7)" /><path d="M 74 103 L 90 101 Q 103 99 209 84 Q 216 83 221 88 L 203 96 Q 198 95 183 96 Q 114 102 73 114 Q 63 116 57 113 L 58 105" fill="#000080" clip-path="url(#clip-mask-8)" /><path d="M 221 88 Q 239 102 239 105 Q 240 108 230 110 Q 218 112 204 121 Q 199 124 197 123 Q 195 121 198 118 Q 207 100 207 100 Q 207 97 203 96" fill="#000080" clip-path="url(#clip-mask-9)" /><path d="M 103 147 L 103 148 Q 103 152 98 148 Q 95 146 94 142 Q 90 129 85 122 Q 83 119 84 118 Q 84 117 87 117 Q 93 117 96 118 L 100 125 Q 100 129 102 138 L 103 146" fill="#000080" clip-path="url(#clip-mask-10)" /><path d="M 96 118 Q 129 114 150 107 Q 164 101 179 115 L 158 117 Q 156 114 150 115 Q 101 125 100 125" fill="#000080" clip-path="url(#clip-mask-11)" /><path d="M 155 129 Q 157 125 159 120 Q 159 118 158 117 L 179 115 Q 181 119 178 123 Q 174 124 167 132" fill="#000080" clip-path="url(#clip-mask-12)" /><path d="M 102 138 Q 126 136 155 129 L 155 129 L 167 132 Q 172 135 172 137 Q 172 139 169 139 Q 127 142 108 146 Q 106 146 103 146" fill="#000080" clip-path="url(#clip-mask-13)" /><path d="M 97 214 L 97 215 Q 97 243 87 249 Q 85 250 83 247 Q 76 237 83 221 Q 94 184 84 161 Q 83 159 86 157 Q 91 157 98 161 Q 99 161 99 162 L 102 169 Q 102 169 102 170 Q 101 174 100 185 L 99 191 Q 98 197 98 207 L 97 214" fill="#0000ff" clip-path="url(#clip-mask-14)" /><path d="M 99 162 Q 111 160 136 154 Q 146 151 152 148 Q 157 145 163 148 Q 173 152 178 156 Q 182 160 179 164 L 155 161 Q 148 159 108 168 Q 104 169 102 169" fill="#0000ff" clip-path="url(#clip-mask-15)" /><path d="M 179 164 Q 176 171 176 180 Q 178 203 181 227 Q 182 237 177 248 Q 173 258 169 258 Q 165 259 160 255 L 160 234 Q 163 233 163 228 Q 163 202 159 171 Q 159 163 155 161" fill="#0000ff" clip-path="url(#clip-mask-16)" /><path d="M 160 255 Q 151 246 139 238 Q 135 236 135 234 Q 134 232 138 232 Q 156 235 160 234" fill="#0000ff" clip-path="url(#clip-mask-17)" /><path d="M 100 185 Q 108 184 115 182 Q 122 180 128 178 Q 134 175 140 176 Q 146 178 147 180 Q 148 182 146 183 Q 146 183 123 189 Q 106 192 99 191" fill="#0000ff" clip-path="url(#clip-mask-18)" /><path d="M 98 207 Q 106 206 114 205 Q 121 203 128 201 Q 135 199 141 200 Q 147 202 149 204 Q 150 206 148 208 Q 146 209 124 213 Q 104 216 97 214" fill="#0000ff" clip-path="url(#clip-mask-19)" /><rect x="109" y="10" width="32" height="23" id="rect-1" fill="transparent" stroke="#000000"><animate attributeName="x" from="77" to="109" dur="0.119" begin="0; animate19.end + 1s" id="animate1" fill="freeze"/></rect><rect x="59" y="23" width="145" height="30" id="rect-2" fill="transparent" stroke="#000000"><set attributeName="x" to="-86" begin="0; animate19.end + 1s" /><animate attributeName="x" from="-86" to="59" dur="0.537" begin="animate1.end + 0.5" id="animate2" fill="freeze"/></rect><rect x="84" y="57" width="24" height="40" id="rect-3" fill="transparent" stroke="#000000"><set attributeName="y" to="17" begin="0; animate19.end + 1s" /><animate attributeName="y" from="17" to="57" dur="0.148" begin="animate2.end + 0.5" id="animate3" fill="freeze"/></rect><rect x="97" y="44" width="76" height="21" id="rect-4" fill="transparent" stroke="#000000"><set attributeName="x" to="21" begin="0; animate19.end + 1s" /><animate attributeName="x" from="21" to="97" dur="0.281" begin="animate3.end + 0.5" id="animate4" fill="freeze"/></rect><rect x="149" y="54" width="27" height="20" id="rect-5" fill="transparent" stroke="#000000"><set attributeName="y" to="34" begin="0; animate19.end + 1s" /><animate attributeName="y" from="34" to="54" dur="0.074" begin="animate4.end" id="animate5" fill="freeze"/></rect><rect x="106" y="73" width="60" height="16" id="rect-6" fill="transparent" stroke="#000000"><set attributeName="x" to="46" begin="0; animate19.end + 1s" /><animate attributeName="x" from="46" to="106" dur="0.222" begin="animate5.end + 0.5" id="animate6" fill="freeze"/></rect><rect x="29" y="94" width="29" height="58" id="rect-7" fill="transparent" stroke="#000000"><set attributeName="y" to="36" begin="0; animate19.end + 1s" /><animate attributeName="y" from="36" to="94" dur="0.215" begin="animate6.end + 0.5" id="animate7" fill="freeze"/></rect><rect x="57" y="83" width="164" height="33" id="rect-8" fill="transparent" stroke="#000000"><set attributeName="x" to="-107" begin="0; animate19.end + 1s" /><animate attributeName="x" from="-107" to="57" dur="0.607" begin="animate7.end + 0.5" id="animate8" fill="freeze"/></rect><rect x="195" y="88" width="45" height="36" id="rect-9" fill="transparent" stroke="#000000"><set attributeName="y" to="52" begin="0; animate19.end + 1s" /><animate attributeName="y" from="52" to="88" dur="0.133" begin="animate8.end" id="animate9" fill="freeze"/></rect><rect x="83" y="117" width="20" height="35" id="rect-10" fill="transparent" stroke="#000000"><set attributeName="y" to="82" begin="0; animate19.end + 1s" /><animate attributeName="y" from="82" to="117" dur="0.130" begin="animate9.end + 0.5" id="animate10" fill="freeze"/></rect><rect x="96" y="101" width="83" height="24" id="rect-11" fill="transparent" stroke="#000000"><set attributeName="x" to="13" begin="0; animate19.end + 1s" /><animate attributeName="x" from="13" to="96" dur="0.307" begin="animate10.end + 0.5" id="animate11" fill="freeze"/></rect><rect x="155" y="115" width="26" height="17" id="rect-12" fill="transparent" stroke="#000000"><set attributeName="y" to="98" begin="0; animate19.end + 1s" /><animate attributeName="y" from="98" to="115" dur="0.063" begin="animate11.end" id="animate12" fill="freeze"/></rect><rect x="102" y="129" width="70" height="17" id="rect-13" fill="transparent" stroke="#000000"><set attributeName="x" to="32" begin="0; animate19.end + 1s" /><animate attributeName="x" from="32" to="102" dur="0.259" begin="animate12.end + 0.5" id="animate13" fill="freeze"/></rect><rect x="76" y="157" width="26" height="93" id="rect-14" fill="transparent" stroke="#000000"><set attributeName="y" to="64" begin="0; animate19.end + 1s" /><animate attributeName="y" from="64" to="157" dur="0.344" begin="animate13.end + 0.5" id="animate14" fill="freeze"/></rect><rect x="99" y="145" width="83" height="24" id="rect-15" fill="transparent" stroke="#000000"><set attributeName="x" to="16" begin="0; animate19.end + 1s" /><animate attributeName="x" from="16" to="99" dur="0.307" begin="animate14.end + 0.5" id="animate15" fill="freeze"/></rect><rect x="155" y="161" width="27" height="98" id="rect-16" fill="transparent" stroke="#000000"><set attributeName="y" to="63" begin="0; animate19.end + 1s" /><animate attributeName="y" from="63" to="161" dur="0.363" begin="animate15.end" id="animate16" fill="freeze"/></rect><rect x="134" y="232" width="26" height="23" id="rect-17" fill="transparent" stroke="#000000"><set attributeName="x" to="160" begin="0; animate19.end + 1s" /><animate attributeName="x" from="160" to="134" dur="0.096" begin="animate16.end" id="animate17" fill="freeze"/></rect><rect x="99" y="175" width="49" height="17" id="rect-18" fill="transparent" stroke="#000000"><set attributeName="x" to="50" begin="0; animate19.end + 1s" /><animate attributeName="x" from="50" to="99" dur="0.181" begin="animate17.end + 0.5" id="animate18" fill="freeze"/></rect><rect x="97" y="199" width="53" height="17" id="rect-19" fill="transparent" stroke="#000000"><set attributeName="x" to="44" begin="0; animate19.end + 1s" /><animate attributeName="x" from="44" to="97" dur="0.196" begin="animate18.end + 0.5" id="animate19" fill="freeze"/></rect></svg>