<svg xmlns="http://www.w3.org/2000/svg" xmlns:xlink="http://www.w3.org/1999/xlink" width="270" height="270"><defs><clipPath id="clip-mask-1"><use xlink:href="#rect-1" /></clipPath><clipPath id="clip-mask-2"><use xlink:href="#rect-2" /></clipPath><clipPath id="clip-mask-3"><use xlink:href="#rect-3" /></clipPath><clipPath id="clip-mask-4"><use xlink:href="#rect-4" /></clipPath><clipPath id="clip-mask-5"><use xlink:href="#rect-5" /></clipPath><clipPath id="clip-mask-6"><use xlink:href="#rect-6" /></clipPath><clipPath id="clip-mask-7"><use xlink:href="#rect-7" /></clipPath><clipPath id="clip-mask-8"><use xlink:href="#rect-8" /></clipPath><clipPath id="clip-mask-9"><use xlink:href="#rect-9" /></clipPath><clipPath id="clip-mask-10"><use xlink:href="#rect-10" /></clipPath><clipPath id="clip-mask-11"><use xlink:href="#rect-11" /></clipPath><clipPath id="clip-mask-12"><use xlink:href="#rect-12" /></clipPath><clipPath id="clip-mask-13"><use xlink:href="#rect-13" /></clipPath><clipPath id="clip-mask-14"><use xlink:href="#rect-14" /></clipPath><clipPath id="clip-mask-15"><use xlink:href="#rect-15" /></clipPath><clipPath id="clip-mask-16"><use xlink:href="#rect-16" /></clipPath><clipPath id="clip-mask-17"><use xlink:href="#rect-17" /></clipPath><clipPath id="clip-mask-18"><use xlink:href="#rect-18" /></clipPath></defs><path d="M 0 0 L 270 270 M 270 0 L 0 270 M 135 0 L 135 270 M 0 135 L 270 135" stroke="#CCCCCC" /><path d="M 48 163 L 43 178 Q 39 189 35 198 Q 18 230 11 232 Q 8 233 8 230 Q 9 229 10 227 Q 30 185 36 162 Q 44 128 42 79 Q 42 75 42 72 Q 40 54 34 47 Q 32 43 35 42 Q 39 39 51 46 L 57 53 Q 55 56 55 93 L 55 103 Q 54 119 52 135 L 51 145" fill="#CCCCCC"/><path d="M 51 46 Q 58 44 62 43 Q 66 41 72 37 Q 76 35 80 37 Q 90 41 95 45 Q 98 48 95 52 L 76 49 Q 74 48 70 49 L 57 53" fill="#CCCCCC"/><path d="M 95 52 Q 92 59 92 73 Q 91 153 94 201 Q 94 214 84 227 Q 82 230 80 229 Q 76 228 73 223 L 75 204 Q 77 201 77 194 Q 81 145 79 63 Q 79 52 76 49" fill="#CCCCCC"/><path d="M 73 223 Q 66 215 54 205 Q 53 202 58 204 Q 74 205 75 204" fill="#CCCCCC"/><path d="M 55 93 Q 61 91 65 91 Q 71 92 75 95 Q 77 98 71 100 Q 64 101 55 103" fill="#CCCCCC"/><path d="M 52 135 Q 59 132 64 133 Q 71 133 75 137 Q 78 140 71 142 Q 63 143 51 145" fill="#CCCCCC"/><path d="M 146 62 L 143 62 Q 127 66 118 60 Q 111 56 120 55 Q 140 53 157 50 L 170 47 Q 193 39 200 41 Q 207 43 209 45 Q 210 48 208 49 Q 207 50 169 58 L 149 62" fill="#CCCCCC"/><path d="M 157 50 Q 154 24 151 18 Q 149 14 153 13 Q 160 11 173 21 Q 176 24 174 27 Q 170 34 170 47 L 169 58 Q 168 66 168 75 Q 168 95 166 97 Q 162 99 160 95 Q 159 94 159 93 Q 157 89 157 70" fill="#CCCCCC"/><path d="M 157 50 L 157 70 Q 155 72 151 76 Q 129 100 110 106 Q 107 107 105 106 Q 104 105 106 103 Q 137 82 149 62" fill="#CCCCCC"/><path d="M 178 75 L 177 73 Q 176 71 177 70 Q 178 69 181 70 Q 210 75 214 85 Q 216 90 216 92 Q 215 95 213 95 Q 211 96 208 94 Q 195 85 183 78" fill="#CCCCCC"/><path d="M 151 127 L 150 130 Q 116 167 97 168 Q 90 169 95 165 Q 144 126 149 104 Q 150 101 151 101 Q 154 100 161 102 Q 166 104 167 107 Q 168 109 166 111 L 162 116" fill="#CCCCCC"/><path d="M 166 111 Q 188 125 191 126 Q 210 137 257 149 Q 261 150 261 152 Q 260 153 256 154 Q 238 159 220 160 Q 210 160 204 155 Q 182 136 162 116" fill="#CCCCCC"/><path d="M 155 158 L 149 149 Q 146 145 148 143 Q 150 141 154 143 Q 162 146 168 151 Q 172 154 170 159 Q 167 166 167 178 Q 169 222 170 229 Q 170 245 161 255 Q 157 258 153 254 L 152 227 Q 154 226 155 221 Q 156 203 154 169" fill="#CCCCCC"/><path d="M 153 254 Q 148 245 131 228 Q 128 226 128 225 Q 128 223 131 224 Q 139 226 147 228 Q 150 229 152 227" fill="#CCCCCC"/><path d="M 119 169 L 118 167 Q 118 164 119 163 Q 122 163 133 165 Q 139 167 140 170 Q 142 176 141 179 Q 140 181 138 181 Q 135 182 132 179 Q 128 176 125 173" fill="#CCCCCC"/><path d="M 112 205 L 145 189 Q 148 188 149 189 Q 149 191 147 193 Q 145 195 143 197 Q 123 213 121 216 Q 119 218 117 218 Q 109 215 104 212 Q 102 211 102 208 Q 102 206 105 206" fill="#CCCCCC"/><path d="M 188 162 L 187 159 Q 186 156 189 156 Q 191 155 196 157 Q 202 160 204 163 Q 207 166 203 169 Q 198 171 194 174 Q 186 181 178 185 Q 174 185 176 182 Q 179 177 182 173 Q 184 170 186 166" fill="#CCCCCC"/><path d="M 182 197 L 182 194 Q 182 191 184 192 Q 221 203 226 215 Q 230 225 227 228 Q 225 230 224 230 Q 220 230 216 225 Q 199 209 185 199" fill="#CCCCCC"/><path d="M 48 163 L 43 178 Q 39 189 35 198 Q 18 230 11 232 Q 8 233 8 230 Q 9 229 10 227 Q 30 185 36 162 Q 44 128 42 79 Q 42 75 42 72 Q 40 54 34 47 Q 32 43 35 42 Q 39 39 51 46 L 57 53 Q 55 56 55 93 L 55 103 Q 54 119 52 135 L 51 145" fill="#0000ff" clip-path="url(#clip-mask-1)" /><path d="M 51 46 Q 58 44 62 43 Q 66 41 72 37 Q 76 35 80 37 Q 90 41 95 45 Q 98 48 95 52 L 76 49 Q 74 48 70 49 L 57 53" fill="#0000ff" clip-path="url(#clip-mask-2)" /><path d="M 95 52 Q 92 59 92 73 Q 91 153 94 201 Q 94 214 84 227 Q 82 230 80 229 Q 76 228 73 223 L 75 204 Q 77 201 77 194 Q 81 145 79 63 Q 79 52 76 49" fill="#0000ff" clip-path="url(#clip-mask-3)" /><path d="M 73 223 Q 66 215 54 205 Q 53 202 58 204 Q 74 205 75 204" fill="#0000ff" clip-path="url(#clip-mask-4)" /><path d="M 55 93 Q 61 91 65 91 Q 71 92 75 95 Q 77 98 71 100 Q 64 101 55 103" fill="#0000ff" clip-path="url(#clip-mask-5)" /><path d="M 52 135 Q 59 132 64 133 Q 71 133 75 137 Q 78 140 71 142 Q 63 143 51 145" fill="#0000ff" clip-path="url(#clip-mask-6)" /><path d="M 146 62 L 143 62 Q 127 66 118 60 Q 111 56 120 55 Q 140 53 157 50 L 170 47 Q 193 39 200 41 Q 207 43 209 45 Q 210 48 208 49 Q 207 50 169 58 L 149 62" fill="#000080" clip-path="url(#clip-mask-7)" /><path d="M 157 50 Q 154 24 151 18 Q 149 14 153 13 Q 160 11 173 21 Q 176 24 174 27 Q 170 34 170 47 L 169 58 Q 168 66 168 75 Q 168 95 166 97 Q 162 99 160 95 Q 159 94 159 93 Q 157 89 157 70" fill="#000080" clip-path="url(#clip-mask-8)" /><path d="M 157 50 L 157 70 Q 155 72 151 76 Q 129 100 110 106 Q 107 107 105 106 Q 104 105 106 103 Q 137 82 149 62" fill="#000080" clip-path="url(#clip-mask-9)" /><path d="M 178 75 L 177 73 Q 176 71 177 70 Q 178 69 181 70 Q 210 75 214 85 Q 216 90 216 92 Q 215 95 213 95 Q 211 96 208 94 Q 195 85 183 78" fill="#000080" clip-path="url(#clip-mask-10)" /><path d="M 151 127 L 150 130 Q 116 167 97 168 Q 90 169 95 165 Q 144 126 149 104 Q 150 101 151 101 Q 154 100 161 102 Q 166 104 167 107 Q 168 109 166 111 L 162 116" fill="#000080" clip-path="url(#clip-mask-11)" /><path d="M 166 111 Q 188 125 191 126 Q 210 137 257 149 Q 261 150 261 152 Q 260 153 256 154 Q 238 159 220 160 Q 210 160 204 155 Q 182 136 162 116" fill="#000080" clip-path="url(#clip-mask-12)" /><path d="M 155 158 L 149 149 Q 146 145 148 143 Q 150 141 154 143 Q 162 146 168 151 Q 172 154 170 159 Q 167 166 167 178 Q 169 222 170 229 Q 170 245 161 255 Q 157 258 153 254 L 152 227 Q 154 226 155 221 Q 156 203 154 169" fill="#000080" clip-path="url(#clip-mask-13)" /><path d="M 153 254 Q 148 245 131 228 Q 128 226 128 225 Q 128 223 131 224 Q 139 226 147 228 Q 150 229 152 227" fill="#000080" clip-path="url(#clip-mask-14)" /><path d="M 119 169 L 118 167 Q 118 164 119 163 Q 122 163 133 165 Q 139 167 140 170 Q 142 176 141 179 Q 140 181 138 181 Q 135 182 132 179 Q 128 176 125 173" fill="#000080" clip-path="url(#clip-mask-15)" /><path d="M 112 205 L 145 189 Q 148 188 149 189 Q 149 191 147 193 Q 145 195 143 197 Q 123 213 121 216 Q 119 218 117 218 Q 109 215 104 212 Q 102 211 102 208 Q 102 206 105 206" fill="#000080" clip-path="url(#clip-mask-16)" /><path d="M 188 162 L 187 159 Q 186 156 189 156 Q 191 155 196 157 Q 202 160 204 163 Q 207 166 203 169 Q 198 171 194 174 Q 186 181 178 185 Q 174 185 176 182 Q 179 177 182 173 Q 184 170 186 166" fill="#000080" clip-path="url(#clip-mask-17)" /><path d="M 182 197 L 182 194 Q 182 191 184 192 Q 221 203 226 215 Q 230 225 227 228 Q 225 230 224 230 Q 220 230 216 225 Q 199 209 185 199" fill="#000080" clip-path="url(#clip-mask-18)" /><rect x="8" y="39" width="49" height="194" id="rect-1" fill="transparent" stroke="#000000"><animate attributeName="y" from="-155" to="39" dur="0.719" begin="0; animate18.end + 1s" id="animate1" fill="freeze"/></rect><rect x="51" y="35" width="47" height="18" id="rect-2" fill="transparent" stroke="#000000"><set attributeName="x" to="4" begin="0; animate18.end + 1s" /><animate attributeName="x" from="4" to="51" dur="0.174" begin="animate1.end + 0.5" id="animate2" fill="freeze"/></rect><rect x="73" y="49" width="22" height="181" id="rect-3" fill="transparent" stroke="#000000"><set attributeName="y" to="-132" begin="0; animate18.end + 1s" /><animate attributeName="y" from="-132" to="49" dur="0.670" begin="animate2.end" id="animate3" fill="freeze"/></rect><rect x="53" y="202" width="22" height="21" id="rect-4" fill="transparent" stroke="#000000"><set attributeName="x" to="75" begin="0; animate18.end + 1s" /><animate attributeName="x" from="75" to="53" dur="0.081" begin="animate3.end" id="animate4" fill="freeze"/></rect><rect x="55" y="91" width="22" height="12" id="rect-5" fill="transparent" stroke="#000000"><set attributeName="x" to="33" begin="0; animate18.end + 1s" /><animate attributeName="x" from="33" to="55" dur="0.081" begin="animate4.end + 0.5" id="animate5" fill="freeze"/></rect><rect x="51" y="132" width="27" height="13" id="rect-6" fill="transparent" stroke="#000000"><set attributeName="x" to="24" begin="0; animate18.end + 1s" /><animate attributeName="x" from="24" to="51" dur="0.100" begin="animate5.end + 0.5" id="animate6" fill="freeze"/></rect><rect x="111" y="39" width="99" height="27" id="rect-7" fill="transparent" stroke="#000000"><set attributeName="x" to="12" begin="0; animate18.end + 1s" /><animate attributeName="x" from="12" to="111" dur="0.367" begin="animate6.end + 0.5" id="animate7" fill="freeze"/></rect><rect x="149" y="11" width="27" height="88" id="rect-8" fill="transparent" stroke="#000000"><set attributeName="y" to="-77" begin="0; animate18.end + 1s" /><animate attributeName="y" from="-77" to="11" dur="0.326" begin="animate7.end + 0.5" id="animate8" fill="freeze"/></rect><rect x="104" y="50" width="53" height="57" id="rect-9" fill="transparent" stroke="#000000"><set attributeName="x" to="157" begin="0; animate18.end + 1s" /><animate attributeName="x" from="157" to="104" dur="0.196" begin="animate8.end + 0.5" id="animate9" fill="freeze"/></rect><rect x="176" y="69" width="40" height="27" id="rect-10" fill="transparent" stroke="#000000"><set attributeName="x" to="136" begin="0; animate18.end + 1s" /><animate attributeName="x" from="136" to="176" dur="0.148" begin="animate9.end + 0.5" id="animate10" fill="freeze"/></rect><rect x="90" y="100" width="78" height="69" id="rect-11" fill="transparent" stroke="#000000"><set attributeName="y" to="31" begin="0; animate18.end + 1s" /><animate attributeName="y" from="31" to="100" dur="0.256" begin="animate10.end + 0.5" id="animate11" fill="freeze"/></rect><rect x="162" y="111" width="99" height="49" id="rect-12" fill="transparent" stroke="#000000"><set attributeName="x" to="63" begin="0; animate18.end + 1s" /><animate attributeName="x" from="63" to="162" dur="0.367" begin="animate11.end + 0.5" id="animate12" fill="freeze"/></rect><rect x="146" y="141" width="26" height="117" id="rect-13" fill="transparent" stroke="#000000"><set attributeName="y" to="24" begin="0; animate18.end + 1s" /><animate attributeName="y" from="24" to="141" dur="0.433" begin="animate12.end + 0.5" id="animate13" fill="freeze"/></rect><rect x="128" y="223" width="25" height="31" id="rect-14" fill="transparent" stroke="#000000"><set attributeName="x" to="153" begin="0; animate18.end + 1s" /><animate attributeName="x" from="153" to="128" dur="0.093" begin="animate13.end" id="animate14" fill="freeze"/></rect><rect x="118" y="163" width="24" height="19" id="rect-15" fill="transparent" stroke="#000000"><set attributeName="x" to="94" begin="0; animate18.end + 1s" /><animate attributeName="x" from="94" to="118" dur="0.089" begin="animate14.end + 0.5" id="animate15" fill="freeze"/></rect><rect x="102" y="188" width="47" height="30" id="rect-16" fill="transparent" stroke="#000000"><set attributeName="x" to="55" begin="0; animate18.end + 1s" /><animate attributeName="x" from="55" to="102" dur="0.174" begin="animate15.end + 0.5" id="animate16" fill="freeze"/></rect><rect x="174" y="155" width="33" height="30" id="rect-17" fill="transparent" stroke="#000000"><set attributeName="y" to="125" begin="0; animate18.end + 1s" /><animate attributeName="y" from="125" to="155" dur="0.111" begin="animate16.end + 0.5" id="animate17" fill="freeze"/></rect><rect x="182" y="191" width="48" height="39" id="rect-18" fill="transparent" stroke="#000000"><set attributeName="x" to="134" begin="0; animate18.end + 1s" /><animate attributeName="x" from="134" to="182" dur="0.178" begin="animate17.end + 0.5" id="animate18" fill="freeze"/></rect></svg>