<svg xmlns="http://www.w3.org/2000/svg" xmlns:xlink="http://www.w3.org/1999/xlink" width="270" height="270"><defs><clipPath id="clip-mask-1"><use xlink:href="#rect-1" /></clipPath><clipPath id="clip-mask-2"><use xlink:href="#rect-2" /></clipPath><clipPath id="clip-mask-3"><use xlink:href="#rect-3" /></clipPath><clipPath id="clip-mask-4"><use xlink:href="#rect-4" /></clipPath><clipPath id="clip-mask-5"><use xlink:href="#rect-5" /></clipPath><clipPath id="clip-mask-6"><use xlink:href="#rect-6" /></clipPath><clipPath id="clip-mask-7"><use xlink:href="#rect-7" /></clipPath><clipPath id="clip-mask-8"><use xlink:href="#rect-8" /></clipPath><clipPath id="clip-mask-9"><use xlink:href="#rect-9" /></clipPath><clipPath id="clip-mask-10"><use xlink:href="#rect-10" /></clipPath><clipPath id="clip-mask-11"><use xlink:href="#rect-11" /></clipPath><clipPath id="clip-mask-12"><use xlink:href="#rect-12" /></clipPath><clipPath id="clip-mask-13"><use xlink:href="#rect-13" /></clipPath><clipPath id="clip-mask-14"><use xlink:href="#rect-14" /></clipPath><clipPath id="clip-mask-15"><use xlink:href="#rect-15" /></clipPath><clipPath id="clip-mask-16"><use xlink:href="#rect-16" /></clipPath><clipPath id="clip-mask-17"><use xlink:href="#rect-17" /></clipPath></defs><path d="M 0 0 L 270 270 M 270 0 L 0 270 M 135 0 L 135 270 M 0 135 L 270 135" stroke="#CCCCCC" /><path d="M 61 76 Q 63 70 65 66 Q 80 34 78 27 Q 76 24 78 23 Q 81 21 88 23 Q 96 25 100 28 Q 103 31 99 35 Q 91 41 81 58 Q 75 65 66 76" fill="#CCCCCC"/><path d="M 62 156 Q 53 202 34 228 Q 26 240 23 241 Q 21 242 21 239 Q 21 238 22 236 Q 43 199 51 159 L 52 147 Q 53 122 53 98 Q 51 82 47 78 Q 46 75 48 73 Q 51 72 56 74 Q 59 75 61 76 L 67 84 Q 63 88 63 145" fill="#CCCCCC"/><path d="M 90 80 Q 89 78 84 79 Q 78 81 67 84 L 61 76 L 66 76 Q 72 75 76 74 Q 80 72 86 68 Q 90 66 95 68 Q 103 71 108 76" fill="#CCCCCC"/><path d="M 109 219 Q 109 234 101 245 Q 99 248 97 247 L 91 223 Q 95 218 95 145 L 94 138 Q 93 88 90 80 L 108 76 Q 111 78 109 83 Q 105 89 106 103 Q 106 172 109 216" fill="#CCCCCC"/><path d="M 97 247 Q 93 246 90 241 Q 82 233 69 222 Q 68 220 73 221 Q 90 224 91 223" fill="#CCCCCC"/><path d="M 70 104 L 71 102 Q 72 100 73 101 Q 76 103 82 108 Q 86 112 87 115 Q 87 120 86 122 Q 83 125 81 124 Q 75 122 71 106" fill="#CCCCCC"/><path d="M 95 145 Q 91 146 88 147 Q 75 151 62 156 L 51 159 Q 39 163 30 169 Q 27 170 24 169 Q 17 164 12 160 Q 10 158 10 155 Q 11 152 14 152 Q 23 153 28 152 Q 40 149 52 147 L 63 145 Q 80 141 94 138" fill="#CCCCCC"/><path d="M 67 166 L 68 164 Q 69 162 71 162 Q 85 167 88 175 Q 89 180 88 183 Q 86 187 83 186 Q 77 185 68 169" fill="#CCCCCC"/><path d="M 189 91 Q 165 100 161 100 Q 159 99 160 97 Q 202 74 201 65 Q 201 62 203 61 Q 206 61 210 63 Q 221 66 226 69 Q 230 72 229 75 Q 228 77 224 77 Q 210 80 198 88" fill="#CCCCCC"/><path d="M 192 135 Q 184 137 177 138 Q 167 141 160 136 Q 155 132 161 131 Q 170 129 177 128 Q 184 127 192 126 L 204 122 Q 226 114 233 119 Q 238 121 238 124 Q 236 127 234 126 Q 210 131 203 132" fill="#CCCCCC"/><path d="M 192 150 L 192 135 L 192 126 Q 192 98 189 91 L 198 88 Q 201 90 205 93 L 205 94 Q 205 94 204 122 L 203 132 Q 202 149 202 169 L 192 171" fill="#CCCCCC"/><path d="M 202 169 Q 202 169 203 169 Q 224 163 231 168 Q 237 171 237 174 Q 234 177 232 177 Q 214 177 184 183 Q 172 185 165 179 Q 160 175 167 174 Q 189 171 192 171" fill="#CCCCCC"/><path d="M 130 94 Q 116 99 111 96 Q 109 94 113 93 Q 121 90 131 82 Q 135 78 141 81 Q 149 84 152 86" fill="#CCCCCC"/><path d="M 127 138 Q 122 139 121 137 Q 120 134 122 130 Q 127 125 132 107 Q 135 97 133 94 Q 132 93 130 94 L 152 86 Q 155 89 151 93 Q 147 97 143 105 Q 138 118 132 129" fill="#CCCCCC"/><path d="M 127 138 L 132 129 Q 131 132 132 133 Q 133 134 138 132 Q 144 130 147 131 Q 151 132 154 135" fill="#CCCCCC"/><path d="M 136 137 L 127 138 L 154 135 Q 156 137 154 139 Q 151 143 148 158 Q 144 169 141 178 L 137 187 Q 128 205 112 218 Q 110 220 109 219 L 109 216 Q 117 208 129 182 L 132 174 Q 141 150 138 141" fill="#CCCCCC"/><path d="M 141 178 Q 141 179 143 179 Q 145 180 146 182 Q 198 213 226 215 Q 241 216 254 218 Q 259 218 259 220 Q 258 223 255 224 Q 216 235 204 232 Q 179 222 148 194 Q 142 190 137 187 L 129 182 Q 123 179 118 179 Q 116 179 114 177 Q 113 175 115 174 Q 125 171 132 174" fill="#CCCCCC"/><path d="M 61 76 Q 63 70 65 66 Q 80 34 78 27 Q 76 24 78 23 Q 81 21 88 23 Q 96 25 100 28 Q 103 31 99 35 Q 91 41 81 58 Q 75 65 66 76" fill="#0000ff" clip-path="url(#clip-mask-1)" /><path d="M 62 156 Q 53 202 34 228 Q 26 240 23 241 Q 21 242 21 239 Q 21 238 22 236 Q 43 199 51 159 L 52 147 Q 53 122 53 98 Q 51 82 47 78 Q 46 75 48 73 Q 51 72 56 74 Q 59 75 61 76 L 67 84 Q 63 88 63 145" fill="#0000ff" clip-path="url(#clip-mask-2)" /><path d="M 90 80 Q 89 78 84 79 Q 78 81 67 84 L 61 76 L 66 76 Q 72 75 76 74 Q 80 72 86 68 Q 90 66 95 68 Q 103 71 108 76" fill="#0000ff" clip-path="url(#clip-mask-3)" /><path d="M 109 219 Q 109 234 101 245 Q 99 248 97 247 L 91 223 Q 95 218 95 145 L 94 138 Q 93 88 90 80 L 108 76 Q 111 78 109 83 Q 105 89 106 103 Q 106 172 109 216" fill="#0000ff" clip-path="url(#clip-mask-4)" /><path d="M 97 247 Q 93 246 90 241 Q 82 233 69 222 Q 68 220 73 221 Q 90 224 91 223" fill="#0000ff" clip-path="url(#clip-mask-5)" /><path d="M 70 104 L 71 102 Q 72 100 73 101 Q 76 103 82 108 Q 86 112 87 115 Q 87 120 86 122 Q 83 125 81 124 Q 75 122 71 106" fill="#0000ff" clip-path="url(#clip-mask-6)" /><path d="M 95 145 Q 91 146 88 147 Q 75 151 62 156 L 51 159 Q 39 163 30 169 Q 27 170 24 169 Q 17 164 12 160 Q 10 158 10 155 Q 11 152 14 152 Q 23 153 28 152 Q 40 149 52 147 L 63 145 Q 80 141 94 138" fill="#0000ff" clip-path="url(#clip-mask-7)" /><path d="M 67 166 L 68 164 Q 69 162 71 162 Q 85 167 88 175 Q 89 180 88 183 Q 86 187 83 186 Q 77 185 68 169" fill="#0000ff" clip-path="url(#clip-mask-8)" /><path d="M 189 91 Q 165 100 161 100 Q 159 99 160 97 Q 202 74 201 65 Q 201 62 203 61 Q 206 61 210 63 Q 221 66 226 69 Q 230 72 229 75 Q 228 77 224 77 Q 210 80 198 88" fill="#000080" clip-path="url(#clip-mask-9)" /><path d="M 192 135 Q 184 137 177 138 Q 167 141 160 136 Q 155 132 161 131 Q 170 129 177 128 Q 184 127 192 126 L 204 122 Q 226 114 233 119 Q 238 121 238 124 Q 236 127 234 126 Q 210 131 203 132" fill="#000080" clip-path="url(#clip-mask-10)" /><path d="M 192 150 L 192 135 L 192 126 Q 192 98 189 91 L 198 88 Q 201 90 205 93 L 205 94 Q 205 94 204 122 L 203 132 Q 202 149 202 169 L 192 171" fill="#000080" clip-path="url(#clip-mask-11)" /><path d="M 202 169 Q 202 169 203 169 Q 224 163 231 168 Q 237 171 237 174 Q 234 177 232 177 Q 214 177 184 183 Q 172 185 165 179 Q 160 175 167 174 Q 189 171 192 171" fill="#000080" clip-path="url(#clip-mask-12)" /><path d="M 130 94 Q 116 99 111 96 Q 109 94 113 93 Q 121 90 131 82 Q 135 78 141 81 Q 149 84 152 86" fill="#000080" clip-path="url(#clip-mask-13)" /><path d="M 127 138 Q 122 139 121 137 Q 120 134 122 130 Q 127 125 132 107 Q 135 97 133 94 Q 132 93 130 94 L 152 86 Q 155 89 151 93 Q 147 97 143 105 Q 138 118 132 129" fill="#000080" clip-path="url(#clip-mask-14)" /><path d="M 127 138 L 132 129 Q 131 132 132 133 Q 133 134 138 132 Q 144 130 147 131 Q 151 132 154 135" fill="#000080" clip-path="url(#clip-mask-15)" /><path d="M 136 137 L 127 138 L 154 135 Q 156 137 154 139 Q 151 143 148 158 Q 144 169 141 178 L 137 187 Q 128 205 112 218 Q 110 220 109 219 L 109 216 Q 117 208 129 182 L 132 174 Q 141 150 138 141" fill="#000080" clip-path="url(#clip-mask-16)" /><path d="M 141 178 Q 141 179 143 179 Q 145 180 146 182 Q 198 213 226 215 Q 241 216 254 218 Q 259 218 259 220 Q 258 223 255 224 Q 216 235 204 232 Q 179 222 148 194 Q 142 190 137 187 L 129 182 Q 123 179 118 179 Q 116 179 114 177 Q 113 175 115 174 Q 125 171 132 174" fill="#000080" clip-path="url(#clip-mask-17)" /><rect x="61" y="21" width="42" height="55" id="rect-1" fill="transparent" stroke="#000000"><animate attributeName="y" from="-34" to="21" dur="0.204" begin="0; animate17.end + 1s" id="animate1" fill="freeze"/></rect><rect x="21" y="72" width="46" height="170" id="rect-2" fill="transparent" stroke="#000000"><set attributeName="y" to="-98" begin="0; animate17.end + 1s" /><animate attributeName="y" from="-98" to="72" dur="0.630" begin="animate1.end + 0.5" id="animate2" fill="freeze"/></rect><rect x="61" y="66" width="47" height="18" id="rect-3" fill="transparent" stroke="#000000"><set attributeName="x" to="14" begin="0; animate17.end + 1s" /><animate attributeName="x" from="14" to="61" dur="0.174" begin="animate2.end + 0.5" id="animate3" fill="freeze"/></rect><rect x="90" y="76" width="21" height="172" id="rect-4" fill="transparent" stroke="#000000"><set attributeName="y" to="-96" begin="0; animate17.end + 1s" /><animate attributeName="y" from="-96" to="76" dur="0.637" begin="animate3.end" id="animate4" fill="freeze"/></rect><rect x="68" y="220" width="29" height="27" id="rect-5" fill="transparent" stroke="#000000"><set attributeName="x" to="97" begin="0; animate17.end + 1s" /><animate attributeName="x" from="97" to="68" dur="0.107" begin="animate4.end" id="animate5" fill="freeze"/></rect><rect x="70" y="100" width="17" height="25" id="rect-6" fill="transparent" stroke="#000000"><set attributeName="y" to="75" begin="0; animate17.end + 1s" /><animate attributeName="y" from="75" to="100" dur="0.093" begin="animate5.end + 0.5" id="animate6" fill="freeze"/></rect><rect x="10" y="138" width="85" height="32" id="rect-7" fill="transparent" stroke="#000000"><set attributeName="x" to="-75" begin="0; animate17.end + 1s" /><animate attributeName="x" from="-75" to="10" dur="0.315" begin="animate6.end + 0.5" id="animate7" fill="freeze"/></rect><rect x="67" y="162" width="22" height="25" id="rect-8" fill="transparent" stroke="#000000"><set attributeName="y" to="137" begin="0; animate17.end + 1s" /><animate attributeName="y" from="137" to="162" dur="0.093" begin="animate7.end + 0.5" id="animate8" fill="freeze"/></rect><rect x="159" y="61" width="71" height="39" id="rect-9" fill="transparent" stroke="#000000"><set attributeName="x" to="230" begin="0; animate17.end + 1s" /><animate attributeName="x" from="230" to="159" dur="0.263" begin="animate8.end + 0.5" id="animate9" fill="freeze"/></rect><rect x="155" y="114" width="83" height="27" id="rect-10" fill="transparent" stroke="#000000"><set attributeName="x" to="72" begin="0; animate17.end + 1s" /><animate attributeName="x" from="72" to="155" dur="0.307" begin="animate9.end + 0.5" id="animate10" fill="freeze"/></rect><rect x="189" y="88" width="16" height="83" id="rect-11" fill="transparent" stroke="#000000"><set attributeName="y" to="5" begin="0; animate17.end + 1s" /><animate attributeName="y" from="5" to="88" dur="0.307" begin="animate10.end + 0.5" id="animate11" fill="freeze"/></rect><rect x="160" y="163" width="77" height="22" id="rect-12" fill="transparent" stroke="#000000"><set attributeName="x" to="83" begin="0; animate17.end + 1s" /><animate attributeName="x" from="83" to="160" dur="0.285" begin="animate11.end + 0.5" id="animate12" fill="freeze"/></rect><rect x="109" y="78" width="43" height="21" id="rect-13" fill="transparent" stroke="#000000"><set attributeName="x" to="66" begin="0; animate17.end + 1s" /><animate attributeName="x" from="66" to="109" dur="0.159" begin="animate12.end + 0.5" id="animate13" fill="freeze"/></rect><rect x="120" y="86" width="35" height="53" id="rect-14" fill="transparent" stroke="#000000"><set attributeName="y" to="33" begin="0; animate17.end + 1s" /><animate attributeName="y" from="33" to="86" dur="0.196" begin="animate13.end" id="animate14" fill="freeze"/></rect><rect x="127" y="129" width="27" height="9" id="rect-15" fill="transparent" stroke="#000000"><set attributeName="x" to="100" begin="0; animate17.end + 1s" /><animate attributeName="x" from="100" to="127" dur="0.100" begin="animate14.end" id="animate15" fill="freeze"/></rect><rect x="109" y="135" width="47" height="85" id="rect-16" fill="transparent" stroke="#000000"><set attributeName="y" to="50" begin="0; animate17.end + 1s" /><animate attributeName="y" from="50" to="135" dur="0.315" begin="animate15.end" id="animate16" fill="freeze"/></rect><rect x="113" y="171" width="146" height="64" id="rect-17" fill="transparent" stroke="#000000"><set attributeName="x" to="-33" begin="0; animate17.end + 1s" /><animate attributeName="x" from="-33" to="113" dur="0.541" begin="animate16.end + 0.5" id="animate17" fill="freeze"/></rect></svg>