<svg xmlns="http://www.w3.org/2000/svg" xmlns:xlink="http://www.w3.org/1999/xlink" width="270" height="270"><defs><clipPath id="clip-mask-1"><use xlink:href="#rect-1" /></clipPath><clipPath id="clip-mask-2"><use xlink:href="#rect-2" /></clipPath><clipPath id="clip-mask-3"><use xlink:href="#rect-3" /></clipPath><clipPath id="clip-mask-4"><use xlink:href="#rect-4" /></clipPath><clipPath id="clip-mask-5"><use xlink:href="#rect-5" /></clipPath><clipPath id="clip-mask-6"><use xlink:href="#rect-6" /></clipPath><clipPath id="clip-mask-7"><use xlink:href="#rect-7" /></clipPath><clipPath id="clip-mask-8"><use xlink:href="#rect-8" /></clipPath><clipPath id="clip-mask-9"><use xlink:href="#rect-9" /></clipPath></defs><path d="M 0 0 L 270 270 M 270 0 L 0 270 M 135 0 L 135 270 M 0 135 L 270 135" stroke="#CCCCCC" /><path d="M 154 59 Q 116 60 108 64 L 95 66 Q 89 67 83 68 Q 64 71 52 65 Q 47 60 55 60 Q 75 58 93 56 L 107 54 Q 133 51 157 47 L 174 45 Q 176 44 177 44 Q 203 38 216 49 Q 219 53 218 56 Q 217 59 212 58 Q 181 56 168 59" fill="#CCCCCC"/><path d="M 108 64 Q 108 70 108 77 Q 109 83 107 88 Q 106 92 102 89 Q 99 85 98 79 Q 97 72 95 66 L 93 56 Q 90 47 85 40 Q 81 34 86 32 Q 92 30 102 36 Q 108 38 107 43 Q 107 48 107 54" fill="#CCCCCC"/><path d="M 157 83 L 152 87 Q 147 90 147 87 Q 147 85 154 59 L 157 47 Q 161 30 158 22 Q 156 19 158 17 Q 163 15 168 18 Q 177 23 181 28 Q 184 31 180 35 Q 176 40 174 45 L 168 59" fill="#CCCCCC"/><path d="M 116 88 L 116 85 Q 115 82 116 81 Q 124 78 140 88 Q 145 91 146 97 Q 147 102 145 105 Q 143 109 139 108 Q 130 104 120 92" fill="#CCCCCC"/><path d="M 120 128 Q 96 128 47 141 Q 35 143 26 134 Q 22 129 28 128 Q 167 113 215 104 Q 227 103 242 114 Q 247 118 246 122 Q 244 124 238 124 Q 158 124 135 127" fill="#CCCCCC"/><path d="M 131 151 L 130 153 Q 102 197 72 211 Q 54 221 35 225 Q 31 226 30 225 Q 28 224 30 222 Q 60 206 72 197 Q 73 196 73 196 Q 116 162 120 128 L 135 127 Q 141 132 142 135 Q 143 138 140 140 Q 139 141 138 142 L 133 148" fill="#CCCCCC"/><path d="M 138 142 Q 151 147 160 148 Q 174 148 183 158 L 154 157 Q 138 153 133 148" fill="#CCCCCC"/><path d="M 183 158 Q 189 165 188 168 Q 188 170 185 171 Q 178 175 173 196 Q 161 236 146 248 Q 136 254 133 252 L 137 226 Q 152 220 162 177 Q 164 171 164 168 Q 164 159 154 157" fill="#CCCCCC"/><path d="M 133 252 Q 129 250 128 246 Q 126 236 114 227 Q 109 224 110 221 Q 111 219 122 223 Q 133 227 137 226" fill="#CCCCCC"/><path d="M 154 59 Q 116 60 108 64 L 95 66 Q 89 67 83 68 Q 64 71 52 65 Q 47 60 55 60 Q 75 58 93 56 L 107 54 Q 133 51 157 47 L 174 45 Q 176 44 177 44 Q 203 38 216 49 Q 219 53 218 56 Q 217 59 212 58 Q 181 56 168 59" fill="#0000ff" clip-path="url(#clip-mask-1)" /><path d="M 108 64 Q 108 70 108 77 Q 109 83 107 88 Q 106 92 102 89 Q 99 85 98 79 Q 97 72 95 66 L 93 56 Q 90 47 85 40 Q 81 34 86 32 Q 92 30 102 36 Q 108 38 107 43 Q 107 48 107 54" fill="#0000ff" clip-path="url(#clip-mask-2)" /><path d="M 157 83 L 152 87 Q 147 90 147 87 Q 147 85 154 59 L 157 47 Q 161 30 158 22 Q 156 19 158 17 Q 163 15 168 18 Q 177 23 181 28 Q 184 31 180 35 Q 176 40 174 45 L 168 59" fill="#0000ff" clip-path="url(#clip-mask-3)" /><path d="M 116 88 L 116 85 Q 115 82 116 81 Q 124 78 140 88 Q 145 91 146 97 Q 147 102 145 105 Q 143 109 139 108 Q 130 104 120 92" fill="#000080" clip-path="url(#clip-mask-4)" /><path d="M 120 128 Q 96 128 47 141 Q 35 143 26 134 Q 22 129 28 128 Q 167 113 215 104 Q 227 103 242 114 Q 247 118 246 122 Q 244 124 238 124 Q 158 124 135 127" fill="#000080" clip-path="url(#clip-mask-5)" /><path d="M 131 151 L 130 153 Q 102 197 72 211 Q 54 221 35 225 Q 31 226 30 225 Q 28 224 30 222 Q 60 206 72 197 Q 73 196 73 196 Q 116 162 120 128 L 135 127 Q 141 132 142 135 Q 143 138 140 140 Q 139 141 138 142 L 133 148" fill="#000080" clip-path="url(#clip-mask-6)" /><path d="M 138 142 Q 151 147 160 148 Q 174 148 183 158 L 154 157 Q 138 153 133 148" fill="#000080" clip-path="url(#clip-mask-7)" /><path d="M 183 158 Q 189 165 188 168 Q 188 170 185 171 Q 178 175 173 196 Q 161 236 146 248 Q 136 254 133 252 L 137 226 Q 152 220 162 177 Q 164 171 164 168 Q 164 159 154 157" fill="#000080" clip-path="url(#clip-mask-8)" /><path d="M 133 252 Q 129 250 128 246 Q 126 236 114 227 Q 109 224 110 221 Q 111 219 122 223 Q 133 227 137 226" fill="#000080" clip-path="url(#clip-mask-9)" /><rect x="47" y="38" width="172" height="33" id="rect-1" fill="transparent" stroke="#000000"><animate attributeName="x" from="-125" to="47" dur="0.637" begin="0; animate9.end + 1s" id="animate1" fill="freeze"/></rect><rect x="81" y="30" width="28" height="62" id="rect-2" fill="transparent" stroke="#000000"><set attributeName="y" to="-32" begin="0; animate9.end + 1s" /><animate attributeName="y" from="-32" to="30" dur="0.230" begin="animate1.end + 0.5" id="animate2" fill="freeze"/></rect><rect x="147" y="15" width="37" height="75" id="rect-3" fill="transparent" stroke="#000000"><set attributeName="y" to="-60" begin="0; animate9.end + 1s" /><animate attributeName="y" from="-60" to="15" dur="0.278" begin="animate2.end + 0.5" id="animate3" fill="freeze"/></rect><rect x="115" y="78" width="32" height="31" id="rect-4" fill="transparent" stroke="#000000"><set attributeName="x" to="83" begin="0; animate9.end + 1s" /><animate attributeName="x" from="83" to="115" dur="0.119" begin="animate3.end + 0.5" id="animate4" fill="freeze"/></rect><rect x="22" y="103" width="225" height="40" id="rect-5" fill="transparent" stroke="#000000"><set attributeName="x" to="-203" begin="0; animate9.end + 1s" /><animate attributeName="x" from="-203" to="22" dur="0.833" begin="animate4.end + 0.5" id="animate5" fill="freeze"/></rect><rect x="28" y="127" width="115" height="99" id="rect-6" fill="transparent" stroke="#000000"><set attributeName="y" to="28" begin="0; animate9.end + 1s" /><animate attributeName="y" from="28" to="127" dur="0.367" begin="animate5.end + 0.5" id="animate6" fill="freeze"/></rect><rect x="133" y="142" width="50" height="16" id="rect-7" fill="transparent" stroke="#000000"><set attributeName="x" to="83" begin="0; animate9.end + 1s" /><animate attributeName="x" from="83" to="133" dur="0.185" begin="animate6.end + 0.5" id="animate7" fill="freeze"/></rect><rect x="133" y="157" width="56" height="97" id="rect-8" fill="transparent" stroke="#000000"><set attributeName="y" to="60" begin="0; animate9.end + 1s" /><animate attributeName="y" from="60" to="157" dur="0.359" begin="animate7.end" id="animate8" fill="freeze"/></rect><rect x="109" y="219" width="28" height="33" id="rect-9" fill="transparent" stroke="#000000"><set attributeName="x" to="137" begin="0; animate9.end + 1s" /><animate attributeName="x" from="137" to="109" dur="0.104" begin="animate8.end" id="animate9" fill="freeze"/></rect></svg>