<svg xmlns="http://www.w3.org/2000/svg" xmlns:xlink="http://www.w3.org/1999/xlink" width="270" height="270"><defs><clipPath id="clip-mask-1"><use xlink:href="#rect-1" /></clipPath><clipPath id="clip-mask-2"><use xlink:href="#rect-2" /></clipPath><clipPath id="clip-mask-3"><use xlink:href="#rect-3" /></clipPath><clipPath id="clip-mask-4"><use xlink:href="#rect-4" /></clipPath><clipPath id="clip-mask-5"><use xlink:href="#rect-5" /></clipPath><clipPath id="clip-mask-6"><use xlink:href="#rect-6" /></clipPath><clipPath id="clip-mask-7"><use xlink:href="#rect-7" /></clipPath><clipPath id="clip-mask-8"><use xlink:href="#rect-8" /></clipPath><clipPath id="clip-mask-9"><use xlink:href="#rect-9" /></clipPath><clipPath id="clip-mask-10"><use xlink:href="#rect-10" /></clipPath><clipPath id="clip-mask-11"><use xlink:href="#rect-11" /></clipPath><clipPath id="clip-mask-12"><use xlink:href="#rect-12" /></clipPath></defs><path d="M 0 0 L 270 270 M 270 0 L 0 270 M 135 0 L 135 270 M 0 135 L 270 135" stroke="#CCCCCC" /><path d="M 123 81 L 122 86 Q 120 89 117 86 Q 112 82 109 67 L 107 58 Q 104 46 95 37 Q 91 32 96 29 Q 102 27 112 32 Q 118 33 118 38 Q 118 46 119 56 L 120 64" fill="#CCCCCC"/><path d="M 109 67 Q 88 72 68 77 Q 64 79 59 76 Q 52 74 49 70 Q 48 67 48 65 Q 49 64 51 65 Q 57 64 68 64 Q 90 60 107 58 L 119 56 Q 126 55 131 54 Q 135 55 135 56 Q 136 58 134 59 Q 130 61 126 62 Q 122 63 120 64" fill="#CCCCCC"/><path d="M 165 71 L 161 80 Q 157 89 151 92 Q 147 94 147 90 Q 147 87 158 58 L 160 52 Q 167 28 164 19 Q 162 16 165 14 Q 171 12 175 15 Q 184 20 187 25 Q 190 28 185 32 Q 179 42 176 49 Q 176 50 175 51 L 170 61" fill="#CCCCCC"/><path d="M 158 58 Q 157 57 156 56 Q 152 53 158 52 Q 159 52 160 52 L 175 51 Q 192 48 206 46 Q 222 42 234 51 Q 237 54 235 57 Q 234 59 230 58 Q 203 55 178 61 Q 174 61 170 61" fill="#CCCCCC"/><path d="M 63 153 Q 59 156 55 150 Q 53 145 55 140 Q 63 119 54 103 Q 52 100 55 99 Q 57 98 61 100 Q 68 104 71 108 Q 72 110 71 112 Q 71 114 68 133" fill="#CCCCCC"/><path d="M 102 135 Q 75 147 63 153 L 68 133 Q 68 136 69 137 Q 70 137 102 129" fill="#CCCCCC"/><path d="M 102 164 Q 102 156 102 135 L 102 129 Q 101 120 101 113 Q 101 103 95 94 Q 93 91 94 90 Q 99 86 104 90 Q 117 98 118 100 Q 119 103 117 106 Q 113 121 113 221 Q 112 246 111 249 Q 109 254 107 255 Q 105 257 104 255 Q 102 255 100 250 Q 95 237 97 227 Q 102 210 102 173" fill="#CCCCCC"/><path d="M 55 185 L 51 188 Q 39 191 30 186 Q 27 184 27 181 Q 28 179 31 179 Q 55 175 93 164 Q 97 163 102 164 L 102 173 Q 75 177 70 181 L 61 184" fill="#CCCCCC"/><path d="M 70 181 Q 74 183 78 190 Q 80 193 79 195 Q 75 200 72 206 Q 48 247 31 250 Q 30 250 30 249 Q 30 248 31 247 Q 55 217 62 192 Q 63 186 61 184" fill="#CCCCCC"/><path d="M 170 162 Q 154 165 141 169 Q 137 171 131 170 Q 127 169 123 165 Q 119 161 124 160 Q 148 156 170 152 L 185 149 Q 198 146 208 143 Q 223 138 238 148 Q 242 151 241 154 Q 240 156 235 157 Q 207 157 184 160" fill="#CCCCCC"/><path d="M 170 186 L 170 162 L 170 152 Q 169 139 169 126 Q 169 109 164 101 Q 162 98 163 96 Q 167 93 171 94 Q 178 96 187 103 Q 190 106 188 111 Q 185 117 185 149 L 184 160 Q 184 184 183 210 L 171 212" fill="#CCCCCC"/><path d="M 183 210 Q 193 208 201 207 Q 216 202 230 213 Q 233 217 232 220 Q 231 222 226 222 Q 225 222 224 222 Q 169 222 146 228 Q 142 228 137 227 Q 132 226 129 222 Q 125 218 130 218 Q 152 215 171 212" fill="#CCCCCC"/><path d="M 123 81 L 122 86 Q 120 89 117 86 Q 112 82 109 67 L 107 58 Q 104 46 95 37 Q 91 32 96 29 Q 102 27 112 32 Q 118 33 118 38 Q 118 46 119 56 L 120 64" fill="#0000ff" clip-path="url(#clip-mask-1)" /><path d="M 109 67 Q 88 72 68 77 Q 64 79 59 76 Q 52 74 49 70 Q 48 67 48 65 Q 49 64 51 65 Q 57 64 68 64 Q 90 60 107 58 L 119 56 Q 126 55 131 54 Q 135 55 135 56 Q 136 58 134 59 Q 130 61 126 62 Q 122 63 120 64" fill="#0000ff" clip-path="url(#clip-mask-2)" /><path d="M 165 71 L 161 80 Q 157 89 151 92 Q 147 94 147 90 Q 147 87 158 58 L 160 52 Q 167 28 164 19 Q 162 16 165 14 Q 171 12 175 15 Q 184 20 187 25 Q 190 28 185 32 Q 179 42 176 49 Q 176 50 175 51 L 170 61" fill="#0000ff" clip-path="url(#clip-mask-3)" /><path d="M 158 58 Q 157 57 156 56 Q 152 53 158 52 Q 159 52 160 52 L 175 51 Q 192 48 206 46 Q 222 42 234 51 Q 237 54 235 57 Q 234 59 230 58 Q 203 55 178 61 Q 174 61 170 61" fill="#0000ff" clip-path="url(#clip-mask-4)" /><path d="M 63 153 Q 59 156 55 150 Q 53 145 55 140 Q 63 119 54 103 Q 52 100 55 99 Q 57 98 61 100 Q 68 104 71 108 Q 72 110 71 112 Q 71 114 68 133" fill="#000080" clip-path="url(#clip-mask-5)" /><path d="M 102 135 Q 75 147 63 153 L 68 133 Q 68 136 69 137 Q 70 137 102 129" fill="#000080" clip-path="url(#clip-mask-6)" /><path d="M 102 164 Q 102 156 102 135 L 102 129 Q 101 120 101 113 Q 101 103 95 94 Q 93 91 94 90 Q 99 86 104 90 Q 117 98 118 100 Q 119 103 117 106 Q 113 121 113 221 Q 112 246 111 249 Q 109 254 107 255 Q 105 257 104 255 Q 102 255 100 250 Q 95 237 97 227 Q 102 210 102 173" fill="#000080" clip-path="url(#clip-mask-7)" /><path d="M 55 185 L 51 188 Q 39 191 30 186 Q 27 184 27 181 Q 28 179 31 179 Q 55 175 93 164 Q 97 163 102 164 L 102 173 Q 75 177 70 181 L 61 184" fill="#000080" clip-path="url(#clip-mask-8)" /><path d="M 70 181 Q 74 183 78 190 Q 80 193 79 195 Q 75 200 72 206 Q 48 247 31 250 Q 30 250 30 249 Q 30 248 31 247 Q 55 217 62 192 Q 63 186 61 184" fill="#000080" clip-path="url(#clip-mask-9)" /><path d="M 170 162 Q 154 165 141 169 Q 137 171 131 170 Q 127 169 123 165 Q 119 161 124 160 Q 148 156 170 152 L 185 149 Q 198 146 208 143 Q 223 138 238 148 Q 242 151 241 154 Q 240 156 235 157 Q 207 157 184 160" fill="#000080" clip-path="url(#clip-mask-10)" /><path d="M 170 186 L 170 162 L 170 152 Q 169 139 169 126 Q 169 109 164 101 Q 162 98 163 96 Q 167 93 171 94 Q 178 96 187 103 Q 190 106 188 111 Q 185 117 185 149 L 184 160 Q 184 184 183 210 L 171 212" fill="#000080" clip-path="url(#clip-mask-11)" /><path d="M 183 210 Q 193 208 201 207 Q 216 202 230 213 Q 233 217 232 220 Q 231 222 226 222 Q 225 222 224 222 Q 169 222 146 228 Q 142 228 137 227 Q 132 226 129 222 Q 125 218 130 218 Q 152 215 171 212" fill="#000080" clip-path="url(#clip-mask-12)" /><rect x="91" y="27" width="32" height="62" id="rect-1" fill="transparent" stroke="#000000"><animate attributeName="y" from="-35" to="27" dur="0.230" begin="0; animate12.end + 1s" id="animate1" fill="freeze"/></rect><rect x="48" y="54" width="88" height="25" id="rect-2" fill="transparent" stroke="#000000"><set attributeName="x" to="-40" begin="0; animate12.end + 1s" /><animate attributeName="x" from="-40" to="48" dur="0.326" begin="animate1.end + 0.5" id="animate2" fill="freeze"/></rect><rect x="147" y="12" width="43" height="82" id="rect-3" fill="transparent" stroke="#000000"><set attributeName="y" to="-70" begin="0; animate12.end + 1s" /><animate attributeName="y" from="-70" to="12" dur="0.304" begin="animate2.end + 0.5" id="animate3" fill="freeze"/></rect><rect x="152" y="42" width="85" height="19" id="rect-4" fill="transparent" stroke="#000000"><set attributeName="x" to="67" begin="0; animate12.end + 1s" /><animate attributeName="x" from="67" to="152" dur="0.315" begin="animate3.end + 0.5" id="animate4" fill="freeze"/></rect><rect x="52" y="98" width="20" height="58" id="rect-5" fill="transparent" stroke="#000000"><set attributeName="y" to="40" begin="0; animate12.end + 1s" /><animate attributeName="y" from="40" to="98" dur="0.215" begin="animate4.end + 0.5" id="animate5" fill="freeze"/></rect><rect x="63" y="129" width="39" height="24" id="rect-6" fill="transparent" stroke="#000000"><set attributeName="x" to="24" begin="0; animate12.end + 1s" /><animate attributeName="x" from="24" to="63" dur="0.144" begin="animate5.end" id="animate6" fill="freeze"/></rect><rect x="93" y="86" width="26" height="171" id="rect-7" fill="transparent" stroke="#000000"><set attributeName="y" to="-85" begin="0; animate12.end + 1s" /><animate attributeName="y" from="-85" to="86" dur="0.633" begin="animate6.end + 0.5" id="animate7" fill="freeze"/></rect><rect x="27" y="163" width="75" height="28" id="rect-8" fill="transparent" stroke="#000000"><set attributeName="x" to="-48" begin="0; animate12.end + 1s" /><animate attributeName="x" from="-48" to="27" dur="0.278" begin="animate7.end + 0.5" id="animate8" fill="freeze"/></rect><rect x="30" y="181" width="50" height="69" id="rect-9" fill="transparent" stroke="#000000"><set attributeName="y" to="112" begin="0; animate12.end + 1s" /><animate attributeName="y" from="112" to="181" dur="0.256" begin="animate8.end + 0.5" id="animate9" fill="freeze"/></rect><rect x="119" y="138" width="123" height="33" id="rect-10" fill="transparent" stroke="#000000"><set attributeName="x" to="-4" begin="0; animate12.end + 1s" /><animate attributeName="x" from="-4" to="119" dur="0.456" begin="animate9.end + 0.5" id="animate10" fill="freeze"/></rect><rect x="162" y="93" width="28" height="119" id="rect-11" fill="transparent" stroke="#000000"><set attributeName="y" to="-26" begin="0; animate12.end + 1s" /><animate attributeName="y" from="-26" to="93" dur="0.441" begin="animate10.end + 0.5" id="animate11" fill="freeze"/></rect><rect x="125" y="202" width="108" height="26" id="rect-12" fill="transparent" stroke="#000000"><set attributeName="x" to="17" begin="0; animate12.end + 1s" /><animate attributeName="x" from="17" to="125" dur="0.400" begin="animate11.end + 0.5" id="animate12" fill="freeze"/></rect></svg>