<svg xmlns="http://www.w3.org/2000/svg" xmlns:xlink="http://www.w3.org/1999/xlink" width="270" height="270"><defs><clipPath id="clip-mask-1"><use xlink:href="#rect-1" /></clipPath><clipPath id="clip-mask-2"><use xlink:href="#rect-2" /></clipPath><clipPath id="clip-mask-3"><use xlink:href="#rect-3" /></clipPath><clipPath id="clip-mask-4"><use xlink:href="#rect-4" /></clipPath><clipPath id="clip-mask-5"><use xlink:href="#rect-5" /></clipPath><clipPath id="clip-mask-6"><use xlink:href="#rect-6" /></clipPath><clipPath id="clip-mask-7"><use xlink:href="#rect-7" /></clipPath><clipPath id="clip-mask-8"><use xlink:href="#rect-8" /></clipPath><clipPath id="clip-mask-9"><use xlink:href="#rect-9" /></clipPath><clipPath id="clip-mask-10"><use xlink:href="#rect-10" /></clipPath><clipPath id="clip-mask-11"><use xlink:href="#rect-11" /></clipPath><clipPath id="clip-mask-12"><use xlink:href="#rect-12" /></clipPath><clipPath id="clip-mask-13"><use xlink:href="#rect-13" /></clipPath><clipPath id="clip-mask-14"><use xlink:href="#rect-14" /></clipPath></defs><path d="M 0 0 L 270 270 M 270 0 L 0 270 M 135 0 L 135 270 M 0 135 L 270 135" stroke="#CCCCCC" /><path d="M 120 60 L 118 65 Q 117 68 114 66 Q 110 61 108 54 L 106 44 Q 101 31 96 25 Q 93 20 97 18 Q 102 16 112 21 Q 116 22 116 27 Q 116 34 117 43 L 118 51" fill="#CCCCCC"/><path d="M 108 54 Q 89 58 72 62 Q 67 64 63 61 Q 56 58 53 54 Q 51 52 52 50 Q 52 49 55 49 Q 61 49 72 49 Q 91 46 106 44 L 117 43 Q 126 41 133 41 Q 136 41 137 43 Q 137 45 135 46 Q 131 48 127 49 Q 122 50 118 51" fill="#CCCCCC"/><path d="M 157 63 L 153 66 Q 149 68 149 65 Q 149 61 151 56 Q 154 48 156 42 L 157 37 Q 161 22 159 15 Q 157 12 160 11 Q 164 10 168 12 Q 176 17 179 21 Q 181 24 177 27 Q 174 31 172 35 L 167 46" fill="#CCCCCC"/><path d="M 156 42 Q 155 41 155 41 Q 150 37 157 37 L 157 37 L 172 35 Q 184 33 195 31 Q 213 27 224 37 Q 227 40 226 42 Q 224 44 221 44 Q 199 41 176 45 Q 171 46 167 46" fill="#CCCCCC"/><path d="M 85 102 Q 64 105 45 111 Q 41 112 35 110 Q 30 109 26 105 Q 22 100 28 100 Q 57 96 84 94 L 99 92 Q 111 91 123 90 L 135 88 Q 151 85 165 84 L 179 82 Q 194 79 205 77 Q 223 72 238 84 Q 242 88 241 91 Q 239 93 234 93 Q 183 93 175 93 L 163 94 Q 148 95 135 96 L 124 97 Q 109 98 98 100" fill="#CCCCCC"/><path d="M 123 90 Q 121 80 119 77 Q 118 76 117 75 Q 114 72 116 70 Q 120 68 125 69 Q 130 71 134 73 Q 136 75 135 79 Q 135 82 135 88 L 135 96 Q 135 105 135 115 L 134 123 Q 134 125 133 126 Q 131 127 130 126 Q 128 122 125 102 Q 125 99 124 97" fill="#CCCCCC"/><path d="M 165 84 Q 167 68 165 62 Q 164 59 166 58 Q 168 57 171 58 Q 175 59 182 65 Q 185 69 184 71 Q 180 79 179 82 L 175 93 Q 173 102 169 111 L 160 110 Q 161 102 163 94" fill="#CCCCCC"/><path d="M 169 111 Q 176 116 176 118 Q 176 120 173 120 Q 150 121 140 123 Q 137 123 134 123 L 135 115 Q 146 113 157 111 Q 159 110 160 110" fill="#CCCCCC"/><path d="M 95 155 Q 92 159 88 157 Q 79 150 82 144 Q 89 129 85 102 L 84 94 Q 82 86 78 81 Q 75 77 76 75 Q 78 73 82 73 Q 90 76 97 81 Q 100 83 99 87 Q 99 89 99 92 L 98 100 Q 98 111 99 130" fill="#CCCCCC"/><path d="M 126 145 Q 105 148 95 155 L 99 130 Q 98 136 101 137 Q 101 138 105 137 Q 131 132 159 130 Q 168 129 175 128 Q 181 127 186 130 Q 194 134 195 137 Q 196 140 195 141 Q 193 142 188 142 Q 155 139 132 144" fill="#CCCCCC"/><path d="M 115 177 Q 93 180 74 186 Q 70 187 65 186 Q 60 184 57 181 Q 52 177 58 176 Q 96 171 129 166 L 143 164 Q 173 159 191 155 Q 201 153 214 163 Q 218 166 217 169 Q 215 171 210 171 Q 168 171 145 174" fill="#CCCCCC"/><path d="M 142 230 L 142 240 Q 143 248 140 256 Q 138 259 136 259 Q 133 258 131 253 Q 122 239 125 231 Q 127 223 129 191 Q 129 186 129 181 L 129 166 Q 128 149 127 147 Q 125 146 126 145 L 132 144 Q 137 146 143 151 Q 143 152 143 164 L 142 180" fill="#CCCCCC"/><path d="M 129 181 Q 126 184 123 189 Q 116 197 106 206 Q 99 212 77 226 Q 51 238 43 235 Q 39 234 44 232 Q 99 205 115 177 L 129 166" fill="#CCCCCC"/><path d="M 143 164 L 145 174 Q 187 202 192 205 Q 198 208 243 223 Q 247 224 246 226 Q 246 227 241 228 Q 222 232 203 232 Q 193 232 187 226 Q 163 204 142 180" fill="#CCCCCC"/><path d="M 120 60 L 118 65 Q 117 68 114 66 Q 110 61 108 54 L 106 44 Q 101 31 96 25 Q 93 20 97 18 Q 102 16 112 21 Q 116 22 116 27 Q 116 34 117 43 L 118 51" fill="#0000ff" clip-path="url(#clip-mask-1)" /><path d="M 108 54 Q 89 58 72 62 Q 67 64 63 61 Q 56 58 53 54 Q 51 52 52 50 Q 52 49 55 49 Q 61 49 72 49 Q 91 46 106 44 L 117 43 Q 126 41 133 41 Q 136 41 137 43 Q 137 45 135 46 Q 131 48 127 49 Q 122 50 118 51" fill="#0000ff" clip-path="url(#clip-mask-2)" /><path d="M 157 63 L 153 66 Q 149 68 149 65 Q 149 61 151 56 Q 154 48 156 42 L 157 37 Q 161 22 159 15 Q 157 12 160 11 Q 164 10 168 12 Q 176 17 179 21 Q 181 24 177 27 Q 174 31 172 35 L 167 46" fill="#0000ff" clip-path="url(#clip-mask-3)" /><path d="M 156 42 Q 155 41 155 41 Q 150 37 157 37 L 157 37 L 172 35 Q 184 33 195 31 Q 213 27 224 37 Q 227 40 226 42 Q 224 44 221 44 Q 199 41 176 45 Q 171 46 167 46" fill="#0000ff" clip-path="url(#clip-mask-4)" /><path d="M 85 102 Q 64 105 45 111 Q 41 112 35 110 Q 30 109 26 105 Q 22 100 28 100 Q 57 96 84 94 L 99 92 Q 111 91 123 90 L 135 88 Q 151 85 165 84 L 179 82 Q 194 79 205 77 Q 223 72 238 84 Q 242 88 241 91 Q 239 93 234 93 Q 183 93 175 93 L 163 94 Q 148 95 135 96 L 124 97 Q 109 98 98 100" fill="#000080" clip-path="url(#clip-mask-5)" /><path d="M 123 90 Q 121 80 119 77 Q 118 76 117 75 Q 114 72 116 70 Q 120 68 125 69 Q 130 71 134 73 Q 136 75 135 79 Q 135 82 135 88 L 135 96 Q 135 105 135 115 L 134 123 Q 134 125 133 126 Q 131 127 130 126 Q 128 122 125 102 Q 125 99 124 97" fill="#000080" clip-path="url(#clip-mask-6)" /><path d="M 165 84 Q 167 68 165 62 Q 164 59 166 58 Q 168 57 171 58 Q 175 59 182 65 Q 185 69 184 71 Q 180 79 179 82 L 175 93 Q 173 102 169 111 L 160 110 Q 161 102 163 94" fill="#000080" clip-path="url(#clip-mask-7)" /><path d="M 169 111 Q 176 116 176 118 Q 176 120 173 120 Q 150 121 140 123 Q 137 123 134 123 L 135 115 Q 146 113 157 111 Q 159 110 160 110" fill="#000080" clip-path="url(#clip-mask-8)" /><path d="M 95 155 Q 92 159 88 157 Q 79 150 82 144 Q 89 129 85 102 L 84 94 Q 82 86 78 81 Q 75 77 76 75 Q 78 73 82 73 Q 90 76 97 81 Q 100 83 99 87 Q 99 89 99 92 L 98 100 Q 98 111 99 130" fill="#000080" clip-path="url(#clip-mask-9)" /><path d="M 126 145 Q 105 148 95 155 L 99 130 Q 98 136 101 137 Q 101 138 105 137 Q 131 132 159 130 Q 168 129 175 128 Q 181 127 186 130 Q 194 134 195 137 Q 196 140 195 141 Q 193 142 188 142 Q 155 139 132 144" fill="#000080" clip-path="url(#clip-mask-10)" /><path d="M 115 177 Q 93 180 74 186 Q 70 187 65 186 Q 60 184 57 181 Q 52 177 58 176 Q 96 171 129 166 L 143 164 Q 173 159 191 155 Q 201 153 214 163 Q 218 166 217 169 Q 215 171 210 171 Q 168 171 145 174" fill="#000080" clip-path="url(#clip-mask-11)" /><path d="M 142 230 L 142 240 Q 143 248 140 256 Q 138 259 136 259 Q 133 258 131 253 Q 122 239 125 231 Q 127 223 129 191 Q 129 186 129 181 L 129 166 Q 128 149 127 147 Q 125 146 126 145 L 132 144 Q 137 146 143 151 Q 143 152 143 164 L 142 180" fill="#000080" clip-path="url(#clip-mask-12)" /><path d="M 129 181 Q 126 184 123 189 Q 116 197 106 206 Q 99 212 77 226 Q 51 238 43 235 Q 39 234 44 232 Q 99 205 115 177 L 129 166" fill="#000080" clip-path="url(#clip-mask-13)" /><path d="M 143 164 L 145 174 Q 187 202 192 205 Q 198 208 243 223 Q 247 224 246 226 Q 246 227 241 228 Q 222 232 203 232 Q 193 232 187 226 Q 163 204 142 180" fill="#000080" clip-path="url(#clip-mask-14)" /><rect x="93" y="16" width="27" height="52" id="rect-1" fill="transparent" stroke="#000000"><animate attributeName="y" from="-36" to="16" dur="0.193" begin="0; animate14.end + 1s" id="animate1" fill="freeze"/></rect><rect x="51" y="41" width="86" height="23" id="rect-2" fill="transparent" stroke="#000000"><set attributeName="x" to="-35" begin="0; animate14.end + 1s" /><animate attributeName="x" from="-35" to="51" dur="0.319" begin="animate1.end + 0.5" id="animate2" fill="freeze"/></rect><rect x="149" y="10" width="32" height="58" id="rect-3" fill="transparent" stroke="#000000"><set attributeName="y" to="-48" begin="0; animate14.end + 1s" /><animate attributeName="y" from="-48" to="10" dur="0.215" begin="animate2.end + 0.5" id="animate3" fill="freeze"/></rect><rect x="150" y="27" width="77" height="19" id="rect-4" fill="transparent" stroke="#000000"><set attributeName="x" to="73" begin="0; animate14.end + 1s" /><animate attributeName="x" from="73" to="150" dur="0.285" begin="animate3.end + 0.5" id="animate4" fill="freeze"/></rect><rect x="22" y="72" width="220" height="40" id="rect-5" fill="transparent" stroke="#000000"><set attributeName="x" to="-198" begin="0; animate14.end + 1s" /><animate attributeName="x" from="-198" to="22" dur="0.815" begin="animate4.end + 0.5" id="animate5" fill="freeze"/></rect><rect x="114" y="68" width="22" height="59" id="rect-6" fill="transparent" stroke="#000000"><set attributeName="y" to="9" begin="0; animate14.end + 1s" /><animate attributeName="y" from="9" to="68" dur="0.219" begin="animate5.end + 0.5" id="animate6" fill="freeze"/></rect><rect x="160" y="57" width="25" height="54" id="rect-7" fill="transparent" stroke="#000000"><set attributeName="y" to="3" begin="0; animate14.end + 1s" /><animate attributeName="y" from="3" to="57" dur="0.200" begin="animate6.end + 0.5" id="animate7" fill="freeze"/></rect><rect x="134" y="110" width="42" height="13" id="rect-8" fill="transparent" stroke="#000000"><set attributeName="x" to="92" begin="0; animate14.end + 1s" /><animate attributeName="x" from="92" to="134" dur="0.156" begin="animate7.end + 0.5" id="animate8" fill="freeze"/></rect><rect x="75" y="73" width="25" height="86" id="rect-9" fill="transparent" stroke="#000000"><set attributeName="y" to="-13" begin="0; animate14.end + 1s" /><animate attributeName="y" from="-13" to="73" dur="0.319" begin="animate8.end + 0.5" id="animate9" fill="freeze"/></rect><rect x="95" y="127" width="101" height="28" id="rect-10" fill="transparent" stroke="#000000"><set attributeName="x" to="-6" begin="0; animate14.end + 1s" /><animate attributeName="x" from="-6" to="95" dur="0.374" begin="animate9.end" id="animate10" fill="freeze"/></rect><rect x="52" y="153" width="166" height="34" id="rect-11" fill="transparent" stroke="#000000"><set attributeName="x" to="-114" begin="0; animate14.end + 1s" /><animate attributeName="x" from="-114" to="52" dur="0.615" begin="animate10.end + 0.5" id="animate11" fill="freeze"/></rect><rect x="122" y="144" width="21" height="115" id="rect-12" fill="transparent" stroke="#000000"><set attributeName="y" to="29" begin="0; animate14.end + 1s" /><animate attributeName="y" from="29" to="144" dur="0.426" begin="animate11.end + 0.5" id="animate12" fill="freeze"/></rect><rect x="39" y="166" width="90" height="72" id="rect-13" fill="transparent" stroke="#000000"><set attributeName="x" to="129" begin="0; animate14.end + 1s" /><animate attributeName="x" from="129" to="39" dur="0.333" begin="animate12.end + 0.5" id="animate13" fill="freeze"/></rect><rect x="142" y="164" width="105" height="68" id="rect-14" fill="transparent" stroke="#000000"><set attributeName="x" to="37" begin="0; animate14.end + 1s" /><animate attributeName="x" from="37" to="142" dur="0.389" begin="animate13.end + 0.5" id="animate14" fill="freeze"/></rect></svg>