<svg xmlns="http://www.w3.org/2000/svg" xmlns:xlink="http://www.w3.org/1999/xlink" width="270" height="270"><defs><clipPath id="clip-mask-1"><use xlink:href="#rect-1" /></clipPath><clipPath id="clip-mask-2"><use xlink:href="#rect-2" /></clipPath><clipPath id="clip-mask-3"><use xlink:href="#rect-3" /></clipPath><clipPath id="clip-mask-4"><use xlink:href="#rect-4" /></clipPath><clipPath id="clip-mask-5"><use xlink:href="#rect-5" /></clipPath><clipPath id="clip-mask-6"><use xlink:href="#rect-6" /></clipPath><clipPath id="clip-mask-7"><use xlink:href="#rect-7" /></clipPath><clipPath id="clip-mask-8"><use xlink:href="#rect-8" /></clipPath><clipPath id="clip-mask-9"><use xlink:href="#rect-9" /></clipPath><clipPath id="clip-mask-10"><use xlink:href="#rect-10" /></clipPath><clipPath id="clip-mask-11"><use xlink:href="#rect-11" /></clipPath><clipPath id="clip-mask-12"><use xlink:href="#rect-12" /></clipPath><clipPath id="clip-mask-13"><use xlink:href="#rect-13" /></clipPath><clipPath id="clip-mask-14"><use xlink:href="#rect-14" /></clipPath><clipPath id="clip-mask-15"><use xlink:href="#rect-15" /></clipPath><clipPath id="clip-mask-16"><use xlink:href="#rect-16" /></clipPath><clipPath id="clip-mask-17"><use xlink:href="#rect-17" /></clipPath><clipPath id="clip-mask-18"><use xlink:href="#rect-18" /></clipPath><clipPath id="clip-mask-19"><use xlink:href="#rect-19" /></clipPath><clipPath id="clip-mask-20"><use xlink:href="#rect-20" /></clipPath></defs><path d="M 0 0 L 270 270 M 270 0 L 0 270 M 135 0 L 135 270 M 0 135 L 270 135" stroke="#CCCCCC" /><path d="M 116 69 L 115 72 Q 114 76 111 73 Q 109 71 104 58 L 102 50 Q 99 41 93 35 Q 89 30 93 28 Q 98 26 109 31 Q 114 32 113 37 Q 114 41 114 48 L 115 55" fill="#CCCCCC"/><path d="M 104 58 Q 83 63 63 68 Q 58 70 54 67 Q 47 64 44 61 Q 42 58 43 56 Q 43 55 46 55 Q 51 55 63 55 Q 84 51 102 50 L 114 48 Q 120 46 126 46 Q 129 46 130 48 Q 130 50 128 51 Q 124 54 120 54 Q 117 54 115 55" fill="#CCCCCC"/><path d="M 157 69 L 155 72 Q 154 72 154 72 L 151 71 Q 151 66 155 54 L 157 44 Q 161 26 159 20 Q 157 17 160 16 Q 164 14 168 17 Q 176 21 179 25 Q 181 28 178 31 Q 173 37 172 42 L 166 54" fill="#CCCCCC"/><path d="M 155 54 Q 151 52 146 49 Q 142 46 148 45 Q 153 44 157 44 L 172 42 Q 180 41 189 39 Q 210 35 221 44 Q 224 47 223 50 Q 222 51 214 51 Q 177 48 166 54" fill="#CCCCCC"/><path d="M 70 94 L 84 83 Q 87 81 92 82 Q 101 87 105 92 Q 107 95 102 98 L 84 98 Q 81 95 77 98 Q 66 103 57 105 L 53 98" fill="#CCCCCC"/><path d="M 102 98 Q 98 101 91 110 Q 79 122 88 131 L 76 129 Q 72 124 76 118 Q 79 110 83 103 Q 85 99 84 98" fill="#CCCCCC"/><path d="M 88 131 Q 103 148 101 161 Q 99 166 96 168 Q 93 171 90 169 L 85 150 Q 89 146 76 129" fill="#CCCCCC"/><path d="M 90 169 Q 81 161 70 154 Q 64 151 69 151 Q 75 151 80 151 Q 84 151 85 150" fill="#CCCCCC"/><path d="M 57 105 Q 54 126 54 200 Q 54 242 46 251 Q 43 255 40 251 Q 37 248 35 239 Q 34 234 36 227 Q 40 215 42 203 Q 52 132 38 97 Q 36 95 37 93 Q 38 91 41 91 Q 48 93 53 98" fill="#CCCCCC"/><path d="M 154 72 Q 157 72 159 73 Q 164 75 165 79 Q 166 82 166 84 L 158 86 Q 153 81 149 78 Q 144 75 144 73 Q 143 71 144 70 Q 145 69 151 71" fill="#CCCCCC"/><path d="M 166 84 Q 175 81 184 79 Q 190 76 196 77 Q 202 79 204 81 Q 205 83 203 85 Q 203 85 178 92 L 170 93 Q 158 96 147 98 Q 131 101 123 97 Q 117 93 125 92 Q 143 90 158 86" fill="#CCCCCC"/><path d="M 178 92 Q 183 96 184 97 Q 184 98 184 98 Q 183 99 173 113 L 165 122 Q 153 133 137 136 Q 135 137 134 136 Q 132 135 134 134 Q 144 128 156 118 L 163 111 Q 169 102 170 93" fill="#CCCCCC"/><path d="M 173 113 Q 184 116 187 120 Q 192 126 191 128 Q 190 130 189 130 Q 188 130 165 122 L 156 118 Q 145 114 135 111 Q 133 110 132 108 Q 132 106 133 106 Q 151 108 163 111" fill="#CCCCCC"/><path d="M 124 146 L 124 146 Q 143 145 160 142 Q 174 138 188 134 Q 195 132 201 133 Q 207 135 209 138 Q 210 139 208 141 Q 206 143 194 145 Q 169 150 144 154 Q 134 157 124 153 L 123 147" fill="#CCCCCC"/><path d="M 124 153 Q 122 155 122 164 Q 116 197 105 219 Q 105 219 105 220 Q 90 245 81 246 Q 79 247 80 244 Q 80 243 81 241 Q 95 220 100 207 Q 101 204 102 201 Q 115 154 106 144 Q 105 141 108 140 Q 111 139 115 141 Q 120 144 123 147" fill="#CCCCCC"/><path d="M 140 186 Q 129 204 120 205 Q 118 206 119 204 Q 120 201 124 197 Q 135 180 133 167 Q 132 164 134 164 Q 137 163 146 168 Q 149 171 148 173 Q 145 177 142 183" fill="#CCCCCC"/><path d="M 163 189 Q 162 189 162 189 Q 146 192 140 186 L 142 183 Q 142 182 144 182 Q 154 181 163 179 L 176 175 Q 176 176 176 176 Q 191 171 197 172 Q 203 173 205 176 Q 206 178 204 179 Q 204 179 176 186" fill="#CCCCCC"/><path d="M 163 214 Q 160 215 158 215 Q 146 218 139 212 Q 133 209 141 208 Q 153 207 163 205 L 175 203 Q 190 199 195 200 Q 201 201 202 204 Q 203 205 201 207 Q 200 207 174 212" fill="#CCCCCC"/><path d="M 163 222 L 163 214 L 163 205 Q 163 196 163 189 L 163 179 Q 163 166 159 158 Q 159 156 161 154 Q 163 153 166 154 Q 171 157 176 162 Q 177 164 176 175 L 176 186 Q 175 194 175 203 L 174 212 Q 174 221 173 230 L 163 232" fill="#CCCCCC"/><path d="M 173 230 Q 190 227 203 226 Q 218 221 231 232 Q 235 235 234 238 Q 233 240 228 240 Q 224 239 220 239 Q 163 237 125 246 Q 117 248 109 241 Q 106 237 111 237 Q 139 234 163 232" fill="#CCCCCC"/><path d="M 116 69 L 115 72 Q 114 76 111 73 Q 109 71 104 58 L 102 50 Q 99 41 93 35 Q 89 30 93 28 Q 98 26 109 31 Q 114 32 113 37 Q 114 41 114 48 L 115 55" fill="#0000ff" clip-path="url(#clip-mask-1)" /><path d="M 104 58 Q 83 63 63 68 Q 58 70 54 67 Q 47 64 44 61 Q 42 58 43 56 Q 43 55 46 55 Q 51 55 63 55 Q 84 51 102 50 L 114 48 Q 120 46 126 46 Q 129 46 130 48 Q 130 50 128 51 Q 124 54 120 54 Q 117 54 115 55" fill="#0000ff" clip-path="url(#clip-mask-2)" /><path d="M 157 69 L 155 72 Q 154 72 154 72 L 151 71 Q 151 66 155 54 L 157 44 Q 161 26 159 20 Q 157 17 160 16 Q 164 14 168 17 Q 176 21 179 25 Q 181 28 178 31 Q 173 37 172 42 L 166 54" fill="#0000ff" clip-path="url(#clip-mask-3)" /><path d="M 155 54 Q 151 52 146 49 Q 142 46 148 45 Q 153 44 157 44 L 172 42 Q 180 41 189 39 Q 210 35 221 44 Q 224 47 223 50 Q 222 51 214 51 Q 177 48 166 54" fill="#0000ff" clip-path="url(#clip-mask-4)" /><path d="M 70 94 L 84 83 Q 87 81 92 82 Q 101 87 105 92 Q 107 95 102 98 L 84 98 Q 81 95 77 98 Q 66 103 57 105 L 53 98" fill="#000080" clip-path="url(#clip-mask-5)" /><path d="M 102 98 Q 98 101 91 110 Q 79 122 88 131 L 76 129 Q 72 124 76 118 Q 79 110 83 103 Q 85 99 84 98" fill="#000080" clip-path="url(#clip-mask-6)" /><path d="M 88 131 Q 103 148 101 161 Q 99 166 96 168 Q 93 171 90 169 L 85 150 Q 89 146 76 129" fill="#000080" clip-path="url(#clip-mask-7)" /><path d="M 90 169 Q 81 161 70 154 Q 64 151 69 151 Q 75 151 80 151 Q 84 151 85 150" fill="#000080" clip-path="url(#clip-mask-8)" /><path d="M 57 105 Q 54 126 54 200 Q 54 242 46 251 Q 43 255 40 251 Q 37 248 35 239 Q 34 234 36 227 Q 40 215 42 203 Q 52 132 38 97 Q 36 95 37 93 Q 38 91 41 91 Q 48 93 53 98" fill="#000080" clip-path="url(#clip-mask-9)" /><path d="M 154 72 Q 157 72 159 73 Q 164 75 165 79 Q 166 82 166 84 L 158 86 Q 153 81 149 78 Q 144 75 144 73 Q 143 71 144 70 Q 145 69 151 71" fill="#000080" clip-path="url(#clip-mask-10)" /><path d="M 166 84 Q 175 81 184 79 Q 190 76 196 77 Q 202 79 204 81 Q 205 83 203 85 Q 203 85 178 92 L 170 93 Q 158 96 147 98 Q 131 101 123 97 Q 117 93 125 92 Q 143 90 158 86" fill="#000080" clip-path="url(#clip-mask-11)" /><path d="M 178 92 Q 183 96 184 97 Q 184 98 184 98 Q 183 99 173 113 L 165 122 Q 153 133 137 136 Q 135 137 134 136 Q 132 135 134 134 Q 144 128 156 118 L 163 111 Q 169 102 170 93" fill="#000080" clip-path="url(#clip-mask-12)" /><path d="M 173 113 Q 184 116 187 120 Q 192 126 191 128 Q 190 130 189 130 Q 188 130 165 122 L 156 118 Q 145 114 135 111 Q 133 110 132 108 Q 132 106 133 106 Q 151 108 163 111" fill="#000080" clip-path="url(#clip-mask-13)" /><path d="M 124 146 L 124 146 Q 143 145 160 142 Q 174 138 188 134 Q 195 132 201 133 Q 207 135 209 138 Q 210 139 208 141 Q 206 143 194 145 Q 169 150 144 154 Q 134 157 124 153 L 123 147" fill="#000080" clip-path="url(#clip-mask-14)" /><path d="M 124 153 Q 122 155 122 164 Q 116 197 105 219 Q 105 219 105 220 Q 90 245 81 246 Q 79 247 80 244 Q 80 243 81 241 Q 95 220 100 207 Q 101 204 102 201 Q 115 154 106 144 Q 105 141 108 140 Q 111 139 115 141 Q 120 144 123 147" fill="#000080" clip-path="url(#clip-mask-15)" /><path d="M 140 186 Q 129 204 120 205 Q 118 206 119 204 Q 120 201 124 197 Q 135 180 133 167 Q 132 164 134 164 Q 137 163 146 168 Q 149 171 148 173 Q 145 177 142 183" fill="#000080" clip-path="url(#clip-mask-16)" /><path d="M 163 189 Q 162 189 162 189 Q 146 192 140 186 L 142 183 Q 142 182 144 182 Q 154 181 163 179 L 176 175 Q 176 176 176 176 Q 191 171 197 172 Q 203 173 205 176 Q 206 178 204 179 Q 204 179 176 186" fill="#000080" clip-path="url(#clip-mask-17)" /><path d="M 163 214 Q 160 215 158 215 Q 146 218 139 212 Q 133 209 141 208 Q 153 207 163 205 L 175 203 Q 190 199 195 200 Q 201 201 202 204 Q 203 205 201 207 Q 200 207 174 212" fill="#000080" clip-path="url(#clip-mask-18)" /><path d="M 163 222 L 163 214 L 163 205 Q 163 196 163 189 L 163 179 Q 163 166 159 158 Q 159 156 161 154 Q 163 153 166 154 Q 171 157 176 162 Q 177 164 176 175 L 176 186 Q 175 194 175 203 L 174 212 Q 174 221 173 230 L 163 232" fill="#000080" clip-path="url(#clip-mask-19)" /><path d="M 173 230 Q 190 227 203 226 Q 218 221 231 232 Q 235 235 234 238 Q 233 240 228 240 Q 224 239 220 239 Q 163 237 125 246 Q 117 248 109 241 Q 106 237 111 237 Q 139 234 163 232" fill="#000080" clip-path="url(#clip-mask-20)" /><rect x="89" y="26" width="27" height="50" id="rect-1" fill="transparent" stroke="#000000"><animate attributeName="y" from="-24" to="26" dur="0.185" begin="0; animate20.end + 1s" id="animate1" fill="freeze"/></rect><rect x="42" y="46" width="88" height="24" id="rect-2" fill="transparent" stroke="#000000"><set attributeName="x" to="-46" begin="0; animate20.end + 1s" /><animate attributeName="x" from="-46" to="42" dur="0.326" begin="animate1.end + 0.5" id="animate2" fill="freeze"/></rect><rect x="151" y="14" width="30" height="58" id="rect-3" fill="transparent" stroke="#000000"><set attributeName="y" to="-44" begin="0; animate20.end + 1s" /><animate attributeName="y" from="-44" to="14" dur="0.215" begin="animate2.end + 0.5" id="animate3" fill="freeze"/></rect><rect x="142" y="35" width="82" height="19" id="rect-4" fill="transparent" stroke="#000000"><set attributeName="x" to="60" begin="0; animate20.end + 1s" /><animate attributeName="x" from="60" to="142" dur="0.304" begin="animate3.end + 0.5" id="animate4" fill="freeze"/></rect><rect x="53" y="81" width="54" height="24" id="rect-5" fill="transparent" stroke="#000000"><set attributeName="x" to="-1" begin="0; animate20.end + 1s" /><animate attributeName="x" from="-1" to="53" dur="0.200" begin="animate4.end + 0.5" id="animate5" fill="freeze"/></rect><rect x="72" y="98" width="30" height="33" id="rect-6" fill="transparent" stroke="#000000"><set attributeName="y" to="65" begin="0; animate20.end + 1s" /><animate attributeName="y" from="65" to="98" dur="0.122" begin="animate5.end" id="animate6" fill="freeze"/></rect><rect x="76" y="129" width="27" height="42" id="rect-7" fill="transparent" stroke="#000000"><set attributeName="y" to="87" begin="0; animate20.end + 1s" /><animate attributeName="y" from="87" to="129" dur="0.156" begin="animate6.end + 0.5" id="animate7" fill="freeze"/></rect><rect x="64" y="150" width="26" height="19" id="rect-8" fill="transparent" stroke="#000000"><set attributeName="x" to="90" begin="0; animate20.end + 1s" /><animate attributeName="x" from="90" to="64" dur="0.096" begin="animate7.end" id="animate8" fill="freeze"/></rect><rect x="34" y="91" width="23" height="164" id="rect-9" fill="transparent" stroke="#000000"><set attributeName="y" to="-73" begin="0; animate20.end + 1s" /><animate attributeName="y" from="-73" to="91" dur="0.607" begin="animate8.end + 0.5" id="animate9" fill="freeze"/></rect><rect x="143" y="69" width="23" height="17" id="rect-10" fill="transparent" stroke="#000000"><set attributeName="x" to="120" begin="0; animate20.end + 1s" /><animate attributeName="x" from="120" to="143" dur="0.085" begin="animate9.end + 0.5" id="animate10" fill="freeze"/></rect><rect x="117" y="76" width="88" height="25" id="rect-11" fill="transparent" stroke="#000000"><set attributeName="x" to="29" begin="0; animate20.end + 1s" /><animate attributeName="x" from="29" to="117" dur="0.326" begin="animate10.end + 0.5" id="animate11" fill="freeze"/></rect><rect x="132" y="92" width="52" height="45" id="rect-12" fill="transparent" stroke="#000000"><set attributeName="x" to="184" begin="0; animate20.end + 1s" /><animate attributeName="x" from="184" to="132" dur="0.193" begin="animate11.end + 0.5" id="animate12" fill="freeze"/></rect><rect x="132" y="106" width="60" height="24" id="rect-13" fill="transparent" stroke="#000000"><set attributeName="x" to="72" begin="0; animate20.end + 1s" /><animate attributeName="x" from="72" to="132" dur="0.222" begin="animate12.end + 0.5" id="animate13" fill="freeze"/></rect><rect x="123" y="132" width="87" height="25" id="rect-14" fill="transparent" stroke="#000000"><set attributeName="x" to="36" begin="0; animate20.end + 1s" /><animate attributeName="x" from="36" to="123" dur="0.322" begin="animate13.end + 0.5" id="animate14" fill="freeze"/></rect><rect x="79" y="139" width="45" height="108" id="rect-15" fill="transparent" stroke="#000000"><set attributeName="y" to="31" begin="0; animate20.end + 1s" /><animate attributeName="y" from="31" to="139" dur="0.400" begin="animate14.end + 0.5" id="animate15" fill="freeze"/></rect><rect x="118" y="163" width="31" height="43" id="rect-16" fill="transparent" stroke="#000000"><set attributeName="y" to="120" begin="0; animate20.end + 1s" /><animate attributeName="y" from="120" to="163" dur="0.159" begin="animate15.end + 0.5" id="animate16" fill="freeze"/></rect><rect x="140" y="171" width="66" height="21" id="rect-17" fill="transparent" stroke="#000000"><set attributeName="x" to="74" begin="0; animate20.end + 1s" /><animate attributeName="x" from="74" to="140" dur="0.244" begin="animate16.end + 0.5" id="animate17" fill="freeze"/></rect><rect x="133" y="199" width="70" height="19" id="rect-18" fill="transparent" stroke="#000000"><set attributeName="x" to="63" begin="0; animate20.end + 1s" /><animate attributeName="x" from="63" to="133" dur="0.259" begin="animate17.end + 0.5" id="animate18" fill="freeze"/></rect><rect x="159" y="153" width="18" height="79" id="rect-19" fill="transparent" stroke="#000000"><set attributeName="y" to="74" begin="0; animate20.end + 1s" /><animate attributeName="y" from="74" to="153" dur="0.293" begin="animate18.end + 0.5" id="animate19" fill="freeze"/></rect><rect x="106" y="221" width="129" height="27" id="rect-20" fill="transparent" stroke="#000000"><set attributeName="x" to="-23" begin="0; animate20.end + 1s" /><animate attributeName="x" from="-23" to="106" dur="0.478" begin="animate19.end + 0.5" id="animate20" fill="freeze"/></rect></svg>