<svg xmlns="http://www.w3.org/2000/svg" xmlns:xlink="http://www.w3.org/1999/xlink" width="270" height="270"><defs><clipPath id="clip-mask-1"><use xlink:href="#rect-1" /></clipPath><clipPath id="clip-mask-2"><use xlink:href="#rect-2" /></clipPath><clipPath id="clip-mask-3"><use xlink:href="#rect-3" /></clipPath><clipPath id="clip-mask-4"><use xlink:href="#rect-4" /></clipPath><clipPath id="clip-mask-5"><use xlink:href="#rect-5" /></clipPath><clipPath id="clip-mask-6"><use xlink:href="#rect-6" /></clipPath><clipPath id="clip-mask-7"><use xlink:href="#rect-7" /></clipPath><clipPath id="clip-mask-8"><use xlink:href="#rect-8" /></clipPath><clipPath id="clip-mask-9"><use xlink:href="#rect-9" /></clipPath><clipPath id="clip-mask-10"><use xlink:href="#rect-10" /></clipPath><clipPath id="clip-mask-11"><use xlink:href="#rect-11" /></clipPath><clipPath id="clip-mask-12"><use xlink:href="#rect-12" /></clipPath><clipPath id="clip-mask-13"><use xlink:href="#rect-13" /></clipPath><clipPath id="clip-mask-14"><use xlink:href="#rect-14" /></clipPath><clipPath id="clip-mask-15"><use xlink:href="#rect-15" /></clipPath><clipPath id="clip-mask-16"><use xlink:href="#rect-16" /></clipPath><clipPath id="clip-mask-17"><use xlink:href="#rect-17" /></clipPath><clipPath id="clip-mask-18"><use xlink:href="#rect-18" /></clipPath><clipPath id="clip-mask-19"><use xlink:href="#rect-19" /></clipPath><clipPath id="clip-mask-20"><use xlink:href="#rect-20" /></clipPath><clipPath id="clip-mask-21"><use xlink:href="#rect-21" /></clipPath><clipPath id="clip-mask-22"><use xlink:href="#rect-22" /></clipPath><clipPath id="clip-mask-23"><use xlink:href="#rect-23" /></clipPath><clipPath id="clip-mask-24"><use xlink:href="#rect-24" /></clipPath><clipPath id="clip-mask-25"><use xlink:href="#rect-25" /></clipPath></defs><path d="M 0 0 L 270 270 M 270 0 L 0 270 M 135 0 L 135 270 M 0 135 L 270 135" stroke="#CCCCCC" /><path d="M 123 61 L 123 64 Q 122 66 119 64 Q 116 61 113 51 L 110 43 Q 107 35 102 29 Q 98 25 102 23 Q 107 21 115 25 Q 120 26 120 30 Q 120 35 121 41 L 122 48" fill="#CCCCCC"/><path d="M 113 51 Q 95 56 79 61 Q 75 62 71 60 Q 64 57 61 54 Q 59 51 60 49 Q 60 48 63 48 Q 68 48 76 48 Q 96 45 110 43 L 121 41 Q 124 40 127 40 Q 130 40 130 42 Q 131 44 129 45 Q 125 47 122 48" fill="#CCCCCC"/><path d="M 166 59 L 163 61 Q 159 63 159 60 Q 159 56 161 51 Q 167 25 164 19 Q 162 17 164 15 Q 168 13 172 16 Q 180 20 183 24 Q 185 26 182 30 Q 180 33 179 35 L 175 41" fill="#CCCCCC"/><path d="M 179 35 Q 190 33 200 32 Q 219 27 228 35 Q 231 38 230 41 Q 229 42 226 42 Q 212 41 201 42 Q 180 44 175 41" fill="#CCCCCC"/><path d="M 136 89 Q 135 62 131 58 Q 129 55 131 54 Q 133 52 136 53 Q 141 54 147 58 Q 151 61 150 63 Q 148 66 148 69 L 147 76 Q 146 82 145 87" fill="#CCCCCC"/><path d="M 148 69 Q 154 68 159 67 Q 177 61 182 62 Q 188 64 189 66 Q 190 67 189 69 Q 188 70 183 71 Q 175 73 168 74 Q 149 77 147 76" fill="#CCCCCC"/><path d="M 124 90 L 136 89 L 145 87 Q 166 83 182 81 Q 207 75 214 81 L 197 88 Q 194 87 181 89 Q 128 95 92 106 L 87 97" fill="#CCCCCC"/><path d="M 214 81 Q 231 93 231 96 Q 231 98 223 101 Q 211 103 198 112 Q 194 115 191 114 Q 190 114 192 110 Q 200 93 200 92 Q 201 90 197 88" fill="#CCCCCC"/><path d="M 92 106 Q 90 113 87 132 Q 83 171 67 206 Q 64 211 62 215 Q 42 245 34 247 Q 31 247 32 245 Q 33 243 34 241 Q 51 214 61 190 Q 73 158 73 122 Q 74 104 69 96 Q 68 93 71 91 Q 76 90 87 97" fill="#CCCCCC"/><path d="M 109 126 Q 106 125 104 123 Q 100 120 105 119 Q 109 118 130 114 L 140 112 Q 162 105 168 108 Q 172 110 172 112 Q 170 114 168 114 Q 149 118 139 120 L 130 122" fill="#CCCCCC"/><path d="M 130 114 Q 130 108 129 102 Q 128 98 129 98 Q 130 97 133 98 Q 137 99 140 102 Q 142 103 141 107 Q 140 109 140 112 L 139 120 Q 139 125 140 127 L 135 137 Q 130 133 130 122" fill="#CCCCCC"/><path d="M 140 127 Q 141 129 145 130 Q 154 134 167 130 Q 173 129 175 127 L 189 127 Q 191 131 189 133 Q 182 137 176 139 Q 152 146 135 137" fill="#CCCCCC"/><path d="M 175 127 Q 178 123 183 112 Q 184 109 184 110 Q 186 111 186 113 Q 188 124 189 127" fill="#CCCCCC"/><path d="M 122 197 L 121 198 Q 121 202 116 197 Q 113 193 112 188 Q 106 168 100 156 Q 98 153 99 152 Q 100 151 102 151 Q 111 152 113 153 L 115 161 Q 117 167 121 185 Q 121 187 122 189 L 122 195" fill="#CCCCCC"/><path d="M 141 155 Q 117 158 115 161 L 113 153 Q 121 152 133 150 Q 162 145 169 145 Q 186 141 189 143 Q 200 149 203 152 L 182 153 Q 177 149 150 154" fill="#CCCCCC"/><path d="M 177 186 Q 180 177 183 159 Q 184 154 182 153 L 203 152 Q 207 155 203 159 Q 195 165 192 176 Q 187 188 186 191 Q 184 194 181 194 Q 178 194 177 191" fill="#CCCCCC"/><path d="M 143 175 Q 128 176 127 175 Q 123 171 127 171 Q 134 169 143 167 L 154 164 Q 160 163 164 164 Q 169 165 171 168 Q 173 171 168 171 Q 161 172 154 173" fill="#CCCCCC"/><path d="M 144 187 Q 143 180 143 175 L 143 167 Q 142 157 141 155 L 150 154 Q 153 156 154 158 Q 156 160 155 163 Q 155 164 154 164 L 154 173 Q 153 179 153 185" fill="#CCCCCC"/><path d="M 122 189 Q 132 188 144 187 L 153 185 Q 170 181 174 183 Q 176 185 177 186 L 177 191 Q 177 191 177 191 Q 141 192 126 195 Q 124 195 122 195" fill="#CCCCCC"/><path d="M 102 241 L 102 238 Q 98 222 92 213 Q 90 209 91 208 Q 92 206 95 207 Q 101 208 104 209 L 108 218 Q 109 224 111 237 Q 112 240 112 242 L 103 243" fill="#CCCCCC"/><path d="M 157 210 Q 146 211 135 213 L 130 214 Q 121 215 113 217 Q 111 218 108 218 L 104 209 Q 154 204 194 196 Q 198 196 201 198 Q 215 206 216 210 L 193 208 Q 189 205 166 209" fill="#CCCCCC"/><path d="M 187 237 Q 191 222 194 212 Q 194 209 193 208 L 216 210 Q 217 213 214 215 Q 209 220 202 235" fill="#CCCCCC"/><path d="M 135 213 Q 135 214 136 214 Q 142 227 141 241 L 135 241 Q 131 235 131 224 Q 130 218 130 214" fill="#CCCCCC"/><path d="M 156 240 Q 156 238 157 237 Q 161 214 157 210 L 166 209 Q 170 210 172 213 Q 173 214 171 217 Q 169 221 168 224 Q 164 234 162 239" fill="#CCCCCC"/><path d="M 154 239 L 156 240 L 162 239 Q 176 237 187 237 L 202 235 Q 204 235 205 235 Q 222 231 234 242 Q 238 246 236 249 Q 235 250 230 250 Q 140 244 88 255 Q 84 256 79 254 Q 75 252 72 249 Q 69 244 74 244 Q 89 243 103 243 L 112 242 Q 123 241 135 241 L 141 241 Q 146 240 150 240" fill="#CCCCCC"/><path d="M 123 61 L 123 64 Q 122 66 119 64 Q 116 61 113 51 L 110 43 Q 107 35 102 29 Q 98 25 102 23 Q 107 21 115 25 Q 120 26 120 30 Q 120 35 121 41 L 122 48" fill="#0000ff" clip-path="url(#clip-mask-1)" /><path d="M 113 51 Q 95 56 79 61 Q 75 62 71 60 Q 64 57 61 54 Q 59 51 60 49 Q 60 48 63 48 Q 68 48 76 48 Q 96 45 110 43 L 121 41 Q 124 40 127 40 Q 130 40 130 42 Q 131 44 129 45 Q 125 47 122 48" fill="#0000ff" clip-path="url(#clip-mask-2)" /><path d="M 166 59 L 163 61 Q 159 63 159 60 Q 159 56 161 51 Q 167 25 164 19 Q 162 17 164 15 Q 168 13 172 16 Q 180 20 183 24 Q 185 26 182 30 Q 180 33 179 35 L 175 41" fill="#0000ff" clip-path="url(#clip-mask-3)" /><path d="M 179 35 Q 190 33 200 32 Q 219 27 228 35 Q 231 38 230 41 Q 229 42 226 42 Q 212 41 201 42 Q 180 44 175 41" fill="#0000ff" clip-path="url(#clip-mask-4)" /><path d="M 136 89 Q 135 62 131 58 Q 129 55 131 54 Q 133 52 136 53 Q 141 54 147 58 Q 151 61 150 63 Q 148 66 148 69 L 147 76 Q 146 82 145 87" fill="#000080" clip-path="url(#clip-mask-5)" /><path d="M 148 69 Q 154 68 159 67 Q 177 61 182 62 Q 188 64 189 66 Q 190 67 189 69 Q 188 70 183 71 Q 175 73 168 74 Q 149 77 147 76" fill="#000080" clip-path="url(#clip-mask-6)" /><path d="M 124 90 L 136 89 L 145 87 Q 166 83 182 81 Q 207 75 214 81 L 197 88 Q 194 87 181 89 Q 128 95 92 106 L 87 97" fill="#000080" clip-path="url(#clip-mask-7)" /><path d="M 214 81 Q 231 93 231 96 Q 231 98 223 101 Q 211 103 198 112 Q 194 115 191 114 Q 190 114 192 110 Q 200 93 200 92 Q 201 90 197 88" fill="#000080" clip-path="url(#clip-mask-8)" /><path d="M 92 106 Q 90 113 87 132 Q 83 171 67 206 Q 64 211 62 215 Q 42 245 34 247 Q 31 247 32 245 Q 33 243 34 241 Q 51 214 61 190 Q 73 158 73 122 Q 74 104 69 96 Q 68 93 71 91 Q 76 90 87 97" fill="#000080" clip-path="url(#clip-mask-9)" /><path d="M 109 126 Q 106 125 104 123 Q 100 120 105 119 Q 109 118 130 114 L 140 112 Q 162 105 168 108 Q 172 110 172 112 Q 170 114 168 114 Q 149 118 139 120 L 130 122" fill="#000080" clip-path="url(#clip-mask-10)" /><path d="M 130 114 Q 130 108 129 102 Q 128 98 129 98 Q 130 97 133 98 Q 137 99 140 102 Q 142 103 141 107 Q 140 109 140 112 L 139 120 Q 139 125 140 127 L 135 137 Q 130 133 130 122" fill="#000080" clip-path="url(#clip-mask-11)" /><path d="M 140 127 Q 141 129 145 130 Q 154 134 167 130 Q 173 129 175 127 L 189 127 Q 191 131 189 133 Q 182 137 176 139 Q 152 146 135 137" fill="#000080" clip-path="url(#clip-mask-12)" /><path d="M 175 127 Q 178 123 183 112 Q 184 109 184 110 Q 186 111 186 113 Q 188 124 189 127" fill="#000080" clip-path="url(#clip-mask-13)" /><path d="M 122 197 L 121 198 Q 121 202 116 197 Q 113 193 112 188 Q 106 168 100 156 Q 98 153 99 152 Q 100 151 102 151 Q 111 152 113 153 L 115 161 Q 117 167 121 185 Q 121 187 122 189 L 122 195" fill="#000080" clip-path="url(#clip-mask-14)" /><path d="M 141 155 Q 117 158 115 161 L 113 153 Q 121 152 133 150 Q 162 145 169 145 Q 186 141 189 143 Q 200 149 203 152 L 182 153 Q 177 149 150 154" fill="#000080" clip-path="url(#clip-mask-15)" /><path d="M 177 186 Q 180 177 183 159 Q 184 154 182 153 L 203 152 Q 207 155 203 159 Q 195 165 192 176 Q 187 188 186 191 Q 184 194 181 194 Q 178 194 177 191" fill="#000080" clip-path="url(#clip-mask-16)" /><path d="M 143 175 Q 128 176 127 175 Q 123 171 127 171 Q 134 169 143 167 L 154 164 Q 160 163 164 164 Q 169 165 171 168 Q 173 171 168 171 Q 161 172 154 173" fill="#000080" clip-path="url(#clip-mask-17)" /><path d="M 144 187 Q 143 180 143 175 L 143 167 Q 142 157 141 155 L 150 154 Q 153 156 154 158 Q 156 160 155 163 Q 155 164 154 164 L 154 173 Q 153 179 153 185" fill="#000080" clip-path="url(#clip-mask-18)" /><path d="M 122 189 Q 132 188 144 187 L 153 185 Q 170 181 174 183 Q 176 185 177 186 L 177 191 Q 177 191 177 191 Q 141 192 126 195 Q 124 195 122 195" fill="#000080" clip-path="url(#clip-mask-19)" /><path d="M 102 241 L 102 238 Q 98 222 92 213 Q 90 209 91 208 Q 92 206 95 207 Q 101 208 104 209 L 108 218 Q 109 224 111 237 Q 112 240 112 242 L 103 243" fill="#000080" clip-path="url(#clip-mask-20)" /><path d="M 157 210 Q 146 211 135 213 L 130 214 Q 121 215 113 217 Q 111 218 108 218 L 104 209 Q 154 204 194 196 Q 198 196 201 198 Q 215 206 216 210 L 193 208 Q 189 205 166 209" fill="#000080" clip-path="url(#clip-mask-21)" /><path d="M 187 237 Q 191 222 194 212 Q 194 209 193 208 L 216 210 Q 217 213 214 215 Q 209 220 202 235" fill="#000080" clip-path="url(#clip-mask-22)" /><path d="M 135 213 Q 135 214 136 214 Q 142 227 141 241 L 135 241 Q 131 235 131 224 Q 130 218 130 214" fill="#000080" clip-path="url(#clip-mask-23)" /><path d="M 156 240 Q 156 238 157 237 Q 161 214 157 210 L 166 209 Q 170 210 172 213 Q 173 214 171 217 Q 169 221 168 224 Q 164 234 162 239" fill="#000080" clip-path="url(#clip-mask-24)" /><path d="M 154 239 L 156 240 L 162 239 Q 176 237 187 237 L 202 235 Q 204 235 205 235 Q 222 231 234 242 Q 238 246 236 249 Q 235 250 230 250 Q 140 244 88 255 Q 84 256 79 254 Q 75 252 72 249 Q 69 244 74 244 Q 89 243 103 243 L 112 242 Q 123 241 135 241 L 141 241 Q 146 240 150 240" fill="#000080" clip-path="url(#clip-mask-25)" /><rect x="98" y="21" width="25" height="45" id="rect-1" fill="transparent" stroke="#000000"><animate attributeName="y" from="-24" to="21" dur="0.167" begin="0; animate25.end + 1s" id="animate1" fill="freeze"/></rect><rect x="59" y="40" width="72" height="22" id="rect-2" fill="transparent" stroke="#000000"><set attributeName="x" to="-13" begin="0; animate25.end + 1s" /><animate attributeName="x" from="-13" to="59" dur="0.267" begin="animate1.end + 0.5" id="animate2" fill="freeze"/></rect><rect x="159" y="13" width="26" height="50" id="rect-3" fill="transparent" stroke="#000000"><set attributeName="y" to="-37" begin="0; animate25.end + 1s" /><animate attributeName="y" from="-37" to="13" dur="0.185" begin="animate2.end + 0.5" id="animate3" fill="freeze"/></rect><rect x="175" y="27" width="56" height="17" id="rect-4" fill="transparent" stroke="#000000"><set attributeName="x" to="119" begin="0; animate25.end + 1s" /><animate attributeName="x" from="119" to="175" dur="0.207" begin="animate3.end + 0.5" id="animate4" fill="freeze"/></rect><rect x="129" y="52" width="22" height="37" id="rect-5" fill="transparent" stroke="#000000"><set attributeName="y" to="15" begin="0; animate25.end + 1s" /><animate attributeName="y" from="15" to="52" dur="0.137" begin="animate4.end + 0.5" id="animate5" fill="freeze"/></rect><rect x="147" y="61" width="43" height="16" id="rect-6" fill="transparent" stroke="#000000"><set attributeName="x" to="104" begin="0; animate25.end + 1s" /><animate attributeName="x" from="104" to="147" dur="0.159" begin="animate5.end + 0.5" id="animate6" fill="freeze"/></rect><rect x="87" y="75" width="127" height="31" id="rect-7" fill="transparent" stroke="#000000"><set attributeName="x" to="-40" begin="0; animate25.end + 1s" /><animate attributeName="x" from="-40" to="87" dur="0.470" begin="animate6.end + 0.5" id="animate7" fill="freeze"/></rect><rect x="190" y="81" width="41" height="34" id="rect-8" fill="transparent" stroke="#000000"><set attributeName="y" to="47" begin="0; animate25.end + 1s" /><animate attributeName="y" from="47" to="81" dur="0.126" begin="animate7.end" id="animate8" fill="freeze"/></rect><rect x="31" y="90" width="61" height="157" id="rect-9" fill="transparent" stroke="#000000"><set attributeName="y" to="-67" begin="0; animate25.end + 1s" /><animate attributeName="y" from="-67" to="90" dur="0.581" begin="animate8.end + 0.5" id="animate9" fill="freeze"/></rect><rect x="100" y="105" width="72" height="21" id="rect-10" fill="transparent" stroke="#000000"><set attributeName="x" to="28" begin="0; animate25.end + 1s" /><animate attributeName="x" from="28" to="100" dur="0.267" begin="animate9.end + 0.5" id="animate10" fill="freeze"/></rect><rect x="128" y="97" width="14" height="40" id="rect-11" fill="transparent" stroke="#000000"><set attributeName="y" to="57" begin="0; animate25.end + 1s" /><animate attributeName="y" from="57" to="97" dur="0.148" begin="animate10.end + 0.5" id="animate11" fill="freeze"/></rect><rect x="135" y="127" width="56" height="19" id="rect-12" fill="transparent" stroke="#000000"><set attributeName="x" to="79" begin="0; animate25.end + 1s" /><animate attributeName="x" from="79" to="135" dur="0.207" begin="animate11.end" id="animate12" fill="freeze"/></rect><rect x="175" y="109" width="14" height="18" id="rect-13" fill="transparent" stroke="#000000"><set attributeName="y" to="127" begin="0; animate25.end + 1s" /><animate attributeName="y" from="127" to="109" dur="0.067" begin="animate12.end" id="animate13" fill="freeze"/></rect><rect x="98" y="151" width="24" height="51" id="rect-14" fill="transparent" stroke="#000000"><set attributeName="y" to="100" begin="0; animate25.end + 1s" /><animate attributeName="y" from="100" to="151" dur="0.189" begin="animate13.end + 0.5" id="animate14" fill="freeze"/></rect><rect x="113" y="141" width="90" height="20" id="rect-15" fill="transparent" stroke="#000000"><set attributeName="x" to="23" begin="0; animate25.end + 1s" /><animate attributeName="x" from="23" to="113" dur="0.333" begin="animate14.end + 0.5" id="animate15" fill="freeze"/></rect><rect x="177" y="152" width="30" height="42" id="rect-16" fill="transparent" stroke="#000000"><set attributeName="y" to="110" begin="0; animate25.end + 1s" /><animate attributeName="y" from="110" to="152" dur="0.156" begin="animate15.end" id="animate16" fill="freeze"/></rect><rect x="123" y="163" width="50" height="13" id="rect-17" fill="transparent" stroke="#000000"><set attributeName="x" to="73" begin="0; animate25.end + 1s" /><animate attributeName="x" from="73" to="123" dur="0.185" begin="animate16.end + 0.5" id="animate17" fill="freeze"/></rect><rect x="141" y="154" width="15" height="33" id="rect-18" fill="transparent" stroke="#000000"><set attributeName="y" to="121" begin="0; animate25.end + 1s" /><animate attributeName="y" from="121" to="154" dur="0.122" begin="animate17.end + 0.5" id="animate18" fill="freeze"/></rect><rect x="122" y="181" width="55" height="14" id="rect-19" fill="transparent" stroke="#000000"><set attributeName="x" to="67" begin="0; animate25.end + 1s" /><animate attributeName="x" from="67" to="122" dur="0.204" begin="animate18.end + 0.5" id="animate19" fill="freeze"/></rect><rect x="90" y="206" width="22" height="37" id="rect-20" fill="transparent" stroke="#000000"><set attributeName="y" to="169" begin="0; animate25.end + 1s" /><animate attributeName="y" from="169" to="206" dur="0.137" begin="animate19.end + 0.5" id="animate20" fill="freeze"/></rect><rect x="104" y="196" width="112" height="22" id="rect-21" fill="transparent" stroke="#000000"><set attributeName="x" to="-8" begin="0; animate25.end + 1s" /><animate attributeName="x" from="-8" to="104" dur="0.415" begin="animate20.end + 0.5" id="animate21" fill="freeze"/></rect><rect x="187" y="208" width="30" height="29" id="rect-22" fill="transparent" stroke="#000000"><set attributeName="y" to="179" begin="0; animate25.end + 1s" /><animate attributeName="y" from="179" to="208" dur="0.107" begin="animate21.end" id="animate22" fill="freeze"/></rect><rect x="130" y="213" width="12" height="28" id="rect-23" fill="transparent" stroke="#000000"><set attributeName="y" to="185" begin="0; animate25.end + 1s" /><animate attributeName="y" from="185" to="213" dur="0.104" begin="animate22.end + 0.5" id="animate23" fill="freeze"/></rect><rect x="156" y="209" width="17" height="31" id="rect-24" fill="transparent" stroke="#000000"><set attributeName="y" to="178" begin="0; animate25.end + 1s" /><animate attributeName="y" from="178" to="209" dur="0.115" begin="animate23.end + 0.5" id="animate24" fill="freeze"/></rect><rect x="69" y="231" width="169" height="25" id="rect-25" fill="transparent" stroke="#000000"><set attributeName="x" to="-100" begin="0; animate25.end + 1s" /><animate attributeName="x" from="-100" to="69" dur="0.626" begin="animate24.end + 0.5" id="animate25" fill="freeze"/></rect></svg>