<svg xmlns="http://www.w3.org/2000/svg" xmlns:xlink="http://www.w3.org/1999/xlink" width="270" height="270"><defs><clipPath id="clip-mask-1"><use xlink:href="#rect-1" /></clipPath><clipPath id="clip-mask-2"><use xlink:href="#rect-2" /></clipPath><clipPath id="clip-mask-3"><use xlink:href="#rect-3" /></clipPath><clipPath id="clip-mask-4"><use xlink:href="#rect-4" /></clipPath><clipPath id="clip-mask-5"><use xlink:href="#rect-5" /></clipPath><clipPath id="clip-mask-6"><use xlink:href="#rect-6" /></clipPath><clipPath id="clip-mask-7"><use xlink:href="#rect-7" /></clipPath><clipPath id="clip-mask-8"><use xlink:href="#rect-8" /></clipPath><clipPath id="clip-mask-9"><use xlink:href="#rect-9" /></clipPath><clipPath id="clip-mask-10"><use xlink:href="#rect-10" /></clipPath><clipPath id="clip-mask-11"><use xlink:href="#rect-11" /></clipPath><clipPath id="clip-mask-12"><use xlink:href="#rect-12" /></clipPath><clipPath id="clip-mask-13"><use xlink:href="#rect-13" /></clipPath><clipPath id="clip-mask-14"><use xlink:href="#rect-14" /></clipPath><clipPath id="clip-mask-15"><use xlink:href="#rect-15" /></clipPath><clipPath id="clip-mask-16"><use xlink:href="#rect-16" /></clipPath><clipPath id="clip-mask-17"><use xlink:href="#rect-17" /></clipPath><clipPath id="clip-mask-18"><use xlink:href="#rect-18" /></clipPath><clipPath id="clip-mask-19"><use xlink:href="#rect-19" /></clipPath><clipPath id="clip-mask-20"><use xlink:href="#rect-20" /></clipPath><clipPath id="clip-mask-21"><use xlink:href="#rect-21" /></clipPath></defs><path d="M 0 0 L 270 270 M 270 0 L 0 270 M 135 0 L 135 270 M 0 135 L 270 135" stroke="#CCCCCC" /><path d="M 74 24 L 73 21 Q 72 18 73 17 Q 75 15 79 17 Q 102 19 105 28 Q 108 36 107 40 Q 105 44 103 44 Q 99 44 94 41 Q 88 34 81 30" fill="#CCCCCC"/><path d="M 95 67 Q 83 69 72 72 Q 51 78 43 73 Q 37 70 45 68 Q 59 66 71 63 Q 82 59 92 55 Q 99 52 105 53 Q 112 55 114 57 Q 115 59 113 61 Q 112 62 103 65 Q 101 65 100 66" fill="#CCCCCC"/><path d="M 49 87 L 50 85 Q 50 82 51 82 Q 53 82 56 84 Q 69 90 70 100 Q 70 103 68 105 Q 66 107 63 106 Q 57 101 52 91" fill="#CCCCCC"/><path d="M 86 109 Q 86 106 88 102 Q 98 76 96 69 Q 95 68 95 67 L 100 66 Q 102 66 103 67 Q 110 71 112 75 Q 114 77 111 80 Q 107 85 105 88 Q 100 96 96 102 Q 94 105 93 107" fill="#CCCCCC"/><path d="M 71 122 Q 51 127 35 131 Q 29 133 21 128 Q 16 124 22 123 Q 59 116 78 112 Q 82 110 86 109 L 93 107 Q 94 107 94 107 Q 113 100 120 105 Q 125 107 125 109 Q 123 112 121 112 Q 85 119 80 120" fill="#CCCCCC"/><path d="M 65 158 L 57 160 Q 38 163 31 160 Q 26 156 34 154 Q 41 153 75 146 L 88 141 Q 100 137 104 138 Q 111 140 113 142 Q 114 144 112 146 Q 110 148 99 150 Q 93 152 88 153 L 75 156" fill="#CCCCCC"/><path d="M 75 146 Q 75 134 71 122 L 80 120 Q 87 124 89 127 Q 90 129 88 141 L 88 153 Q 87 163 89 202 Q 90 220 80 232 Q 77 236 75 234 L 72 210 Q 74 207 75 200 Q 75 173 75 156" fill="#CCCCCC"/><path d="M 75 234 Q 67 224 54 213 Q 52 211 52 209 Q 52 208 55 209 Q 59 209 63 210 Q 69 212 72 210" fill="#CCCCCC"/><path d="M 42 173 L 44 173 Q 45 173 46 175 Q 47 181 46 189 Q 43 209 31 217 Q 26 220 24 216 Q 20 208 26 200 Q 34 188 40 175" fill="#CCCCCC"/><path d="M 96 173 L 96 171 Q 95 169 96 168 Q 97 168 98 168 Q 107 168 114 174 Q 117 177 118 181 Q 118 185 117 187 Q 115 190 112 189 Q 106 186 99 176" fill="#CCCCCC"/><path d="M 143 60 Q 142 61 142 85 L 142 92 Q 142 102 142 116 L 142 123 Q 142 128 142 134 Q 142 142 142 147 L 141 155 Q 141 157 140 159 L 136 161 Q 135 160 135 160 Q 127 149 129 137 Q 132 123 132 99 Q 132 69 126 52 Q 125 49 127 48 Q 129 47 132 48 Q 137 50 139 52" fill="#CCCCCC"/><path d="M 184 54 Q 181 50 169 53 Q 154 58 143 60 L 139 52 Q 157 49 179 40 Q 183 38 190 40 Q 205 45 207 48 Q 210 51 207 56" fill="#CCCCCC"/><path d="M 187 137 Q 188 112 187 67 Q 187 56 184 54 L 207 56 Q 200 67 203 135 Q 203 155 200 160 Q 197 168 194 168 Q 192 169 187 162" fill="#CCCCCC"/><path d="M 183 143 Q 187 142 187 137 L 187 162 Q 184 156 180 149" fill="#CCCCCC"/><path d="M 142 85 Q 146 83 151 83 Q 169 78 171 79 Q 177 80 178 82 Q 179 83 177 85 Q 177 85 177 85 Q 147 92 142 92" fill="#CCCCCC"/><path d="M 142 116 Q 147 115 152 114 Q 170 110 172 111 Q 178 112 179 114 Q 180 115 178 117 Q 177 117 177 117 Q 149 124 143 123 Q 142 123 142 123" fill="#CCCCCC"/><path d="M 148 153 L 141 155 L 142 147 Q 154 145 169 140 Q 176 139 180 140 Q 182 142 183 143 L 180 149 Q 175 150 170 151 L 163 152" fill="#CCCCCC"/><path d="M 140 159 Q 143 159 145 161 Q 149 163 152 169 Q 154 172 152 174 Q 144 183 144 186 Q 113 233 94 237 Q 93 237 93 236 Q 94 233 96 231 Q 142 183 137 165 Q 136 161 136 161" fill="#CCCCCC"/><path d="M 170 151 Q 181 154 179 161 Q 172 209 179 224 L 173 238 Q 163 228 166 173 Q 167 164 163 155 Q 163 153 163 152" fill="#CCCCCC"/><path d="M 179 224 Q 180 227 185 229 Q 198 234 215 230 Q 222 228 225 225 L 250 225 Q 253 232 248 236 Q 240 242 231 245 Q 230 245 230 245 Q 192 254 173 238" fill="#CCCCCC"/><path d="M 225 225 Q 230 218 238 197 Q 239 192 241 193 Q 243 195 243 199 Q 247 219 250 225" fill="#CCCCCC"/><path d="M 74 24 L 73 21 Q 72 18 73 17 Q 75 15 79 17 Q 102 19 105 28 Q 108 36 107 40 Q 105 44 103 44 Q 99 44 94 41 Q 88 34 81 30" fill="#000080" clip-path="url(#clip-mask-1)" /><path d="M 95 67 Q 83 69 72 72 Q 51 78 43 73 Q 37 70 45 68 Q 59 66 71 63 Q 82 59 92 55 Q 99 52 105 53 Q 112 55 114 57 Q 115 59 113 61 Q 112 62 103 65 Q 101 65 100 66" fill="#000080" clip-path="url(#clip-mask-2)" /><path d="M 49 87 L 50 85 Q 50 82 51 82 Q 53 82 56 84 Q 69 90 70 100 Q 70 103 68 105 Q 66 107 63 106 Q 57 101 52 91" fill="#000080" clip-path="url(#clip-mask-3)" /><path d="M 86 109 Q 86 106 88 102 Q 98 76 96 69 Q 95 68 95 67 L 100 66 Q 102 66 103 67 Q 110 71 112 75 Q 114 77 111 80 Q 107 85 105 88 Q 100 96 96 102 Q 94 105 93 107" fill="#000080" clip-path="url(#clip-mask-4)" /><path d="M 71 122 Q 51 127 35 131 Q 29 133 21 128 Q 16 124 22 123 Q 59 116 78 112 Q 82 110 86 109 L 93 107 Q 94 107 94 107 Q 113 100 120 105 Q 125 107 125 109 Q 123 112 121 112 Q 85 119 80 120" fill="#000080" clip-path="url(#clip-mask-5)" /><path d="M 65 158 L 57 160 Q 38 163 31 160 Q 26 156 34 154 Q 41 153 75 146 L 88 141 Q 100 137 104 138 Q 111 140 113 142 Q 114 144 112 146 Q 110 148 99 150 Q 93 152 88 153 L 75 156" fill="#000080" clip-path="url(#clip-mask-6)" /><path d="M 75 146 Q 75 134 71 122 L 80 120 Q 87 124 89 127 Q 90 129 88 141 L 88 153 Q 87 163 89 202 Q 90 220 80 232 Q 77 236 75 234 L 72 210 Q 74 207 75 200 Q 75 173 75 156" fill="#000080" clip-path="url(#clip-mask-7)" /><path d="M 75 234 Q 67 224 54 213 Q 52 211 52 209 Q 52 208 55 209 Q 59 209 63 210 Q 69 212 72 210" fill="#000080" clip-path="url(#clip-mask-8)" /><path d="M 42 173 L 44 173 Q 45 173 46 175 Q 47 181 46 189 Q 43 209 31 217 Q 26 220 24 216 Q 20 208 26 200 Q 34 188 40 175" fill="#000080" clip-path="url(#clip-mask-9)" /><path d="M 96 173 L 96 171 Q 95 169 96 168 Q 97 168 98 168 Q 107 168 114 174 Q 117 177 118 181 Q 118 185 117 187 Q 115 190 112 189 Q 106 186 99 176" fill="#000080" clip-path="url(#clip-mask-10)" /><path d="M 143 60 Q 142 61 142 85 L 142 92 Q 142 102 142 116 L 142 123 Q 142 128 142 134 Q 142 142 142 147 L 141 155 Q 141 157 140 159 L 136 161 Q 135 160 135 160 Q 127 149 129 137 Q 132 123 132 99 Q 132 69 126 52 Q 125 49 127 48 Q 129 47 132 48 Q 137 50 139 52" fill="#0000ff" clip-path="url(#clip-mask-11)" /><path d="M 184 54 Q 181 50 169 53 Q 154 58 143 60 L 139 52 Q 157 49 179 40 Q 183 38 190 40 Q 205 45 207 48 Q 210 51 207 56" fill="#0000ff" clip-path="url(#clip-mask-12)" /><path d="M 187 137 Q 188 112 187 67 Q 187 56 184 54 L 207 56 Q 200 67 203 135 Q 203 155 200 160 Q 197 168 194 168 Q 192 169 187 162" fill="#0000ff" clip-path="url(#clip-mask-13)" /><path d="M 183 143 Q 187 142 187 137 L 187 162 Q 184 156 180 149" fill="#0000ff" clip-path="url(#clip-mask-14)" /><path d="M 142 85 Q 146 83 151 83 Q 169 78 171 79 Q 177 80 178 82 Q 179 83 177 85 Q 177 85 177 85 Q 147 92 142 92" fill="#0000ff" clip-path="url(#clip-mask-15)" /><path d="M 142 116 Q 147 115 152 114 Q 170 110 172 111 Q 178 112 179 114 Q 180 115 178 117 Q 177 117 177 117 Q 149 124 143 123 Q 142 123 142 123" fill="#0000ff" clip-path="url(#clip-mask-16)" /><path d="M 148 153 L 141 155 L 142 147 Q 154 145 169 140 Q 176 139 180 140 Q 182 142 183 143 L 180 149 Q 175 150 170 151 L 163 152" fill="#0000ff" clip-path="url(#clip-mask-17)" /><path d="M 140 159 Q 143 159 145 161 Q 149 163 152 169 Q 154 172 152 174 Q 144 183 144 186 Q 113 233 94 237 Q 93 237 93 236 Q 94 233 96 231 Q 142 183 137 165 Q 136 161 136 161" fill="#0000ff" clip-path="url(#clip-mask-18)" /><path d="M 170 151 Q 181 154 179 161 Q 172 209 179 224 L 173 238 Q 163 228 166 173 Q 167 164 163 155 Q 163 153 163 152" fill="#0000ff" clip-path="url(#clip-mask-19)" /><path d="M 179 224 Q 180 227 185 229 Q 198 234 215 230 Q 222 228 225 225 L 250 225 Q 253 232 248 236 Q 240 242 231 245 Q 230 245 230 245 Q 192 254 173 238" fill="#0000ff" clip-path="url(#clip-mask-20)" /><path d="M 225 225 Q 230 218 238 197 Q 239 192 241 193 Q 243 195 243 199 Q 247 219 250 225" fill="#0000ff" clip-path="url(#clip-mask-21)" /><rect x="72" y="15" width="36" height="29" id="rect-1" fill="transparent" stroke="#000000"><animate attributeName="x" from="36" to="72" dur="0.133" begin="0; animate21.end + 1s" id="animate1" fill="freeze"/></rect><rect x="37" y="52" width="78" height="26" id="rect-2" fill="transparent" stroke="#000000"><set attributeName="x" to="-41" begin="0; animate21.end + 1s" /><animate attributeName="x" from="-41" to="37" dur="0.289" begin="animate1.end + 0.5" id="animate2" fill="freeze"/></rect><rect x="49" y="82" width="21" height="25" id="rect-3" fill="transparent" stroke="#000000"><set attributeName="y" to="57" begin="0; animate21.end + 1s" /><animate attributeName="y" from="57" to="82" dur="0.093" begin="animate2.end + 0.5" id="animate3" fill="freeze"/></rect><rect x="86" y="66" width="28" height="43" id="rect-4" fill="transparent" stroke="#000000"><set attributeName="y" to="23" begin="0; animate21.end + 1s" /><animate attributeName="y" from="23" to="66" dur="0.159" begin="animate3.end + 0.5" id="animate4" fill="freeze"/></rect><rect x="16" y="100" width="109" height="33" id="rect-5" fill="transparent" stroke="#000000"><set attributeName="x" to="-93" begin="0; animate21.end + 1s" /><animate attributeName="x" from="-93" to="16" dur="0.404" begin="animate4.end + 0.5" id="animate5" fill="freeze"/></rect><rect x="26" y="137" width="88" height="26" id="rect-6" fill="transparent" stroke="#000000"><set attributeName="x" to="-62" begin="0; animate21.end + 1s" /><animate attributeName="x" from="-62" to="26" dur="0.326" begin="animate5.end + 0.5" id="animate6" fill="freeze"/></rect><rect x="71" y="120" width="19" height="116" id="rect-7" fill="transparent" stroke="#000000"><set attributeName="y" to="4" begin="0; animate21.end + 1s" /><animate attributeName="y" from="4" to="120" dur="0.430" begin="animate6.end + 0.5" id="animate7" fill="freeze"/></rect><rect x="52" y="208" width="23" height="26" id="rect-8" fill="transparent" stroke="#000000"><set attributeName="x" to="75" begin="0; animate21.end + 1s" /><animate attributeName="x" from="75" to="52" dur="0.085" begin="animate7.end" id="animate8" fill="freeze"/></rect><rect x="20" y="173" width="27" height="47" id="rect-9" fill="transparent" stroke="#000000"><set attributeName="y" to="126" begin="0; animate21.end + 1s" /><animate attributeName="y" from="126" to="173" dur="0.174" begin="animate8.end + 0.5" id="animate9" fill="freeze"/></rect><rect x="95" y="168" width="23" height="22" id="rect-10" fill="transparent" stroke="#000000"><set attributeName="x" to="72" begin="0; animate21.end + 1s" /><animate attributeName="x" from="72" to="95" dur="0.085" begin="animate9.end + 0.5" id="animate10" fill="freeze"/></rect><rect x="125" y="47" width="18" height="114" id="rect-11" fill="transparent" stroke="#000000"><set attributeName="y" to="-67" begin="0; animate21.end + 1s" /><animate attributeName="y" from="-67" to="47" dur="0.422" begin="animate10.end + 0.5" id="animate11" fill="freeze"/></rect><rect x="139" y="38" width="71" height="22" id="rect-12" fill="transparent" stroke="#000000"><set attributeName="x" to="68" begin="0; animate21.end + 1s" /><animate attributeName="x" from="68" to="139" dur="0.263" begin="animate11.end + 0.5" id="animate12" fill="freeze"/></rect><rect x="184" y="54" width="23" height="115" id="rect-13" fill="transparent" stroke="#000000"><set attributeName="y" to="-61" begin="0; animate21.end + 1s" /><animate attributeName="y" from="-61" to="54" dur="0.426" begin="animate12.end" id="animate13" fill="freeze"/></rect><rect x="180" y="137" width="7" height="25" id="rect-14" fill="transparent" stroke="#000000"><set attributeName="x" to="187" begin="0; animate21.end + 1s" /><animate attributeName="x" from="187" to="180" dur="0.026" begin="animate13.end" id="animate14" fill="freeze"/></rect><rect x="142" y="78" width="37" height="14" id="rect-15" fill="transparent" stroke="#000000"><set attributeName="x" to="105" begin="0; animate21.end + 1s" /><animate attributeName="x" from="105" to="142" dur="0.137" begin="animate14.end + 0.5" id="animate15" fill="freeze"/></rect><rect x="142" y="110" width="38" height="14" id="rect-16" fill="transparent" stroke="#000000"><set attributeName="x" to="104" begin="0; animate21.end + 1s" /><animate attributeName="x" from="104" to="142" dur="0.141" begin="animate15.end + 0.5" id="animate16" fill="freeze"/></rect><rect x="141" y="139" width="42" height="16" id="rect-17" fill="transparent" stroke="#000000"><set attributeName="x" to="99" begin="0; animate21.end + 1s" /><animate attributeName="x" from="99" to="141" dur="0.156" begin="animate16.end + 0.5" id="animate17" fill="freeze"/></rect><rect x="93" y="159" width="61" height="78" id="rect-18" fill="transparent" stroke="#000000"><set attributeName="y" to="81" begin="0; animate21.end + 1s" /><animate attributeName="y" from="81" to="159" dur="0.289" begin="animate17.end + 0.5" id="animate18" fill="freeze"/></rect><rect x="163" y="151" width="18" height="87" id="rect-19" fill="transparent" stroke="#000000"><set attributeName="y" to="64" begin="0; animate21.end + 1s" /><animate attributeName="y" from="64" to="151" dur="0.322" begin="animate18.end + 0.5" id="animate19" fill="freeze"/></rect><rect x="173" y="224" width="80" height="30" id="rect-20" fill="transparent" stroke="#000000"><set attributeName="x" to="93" begin="0; animate21.end + 1s" /><animate attributeName="x" from="93" to="173" dur="0.296" begin="animate19.end" id="animate20" fill="freeze"/></rect><rect x="225" y="192" width="25" height="33" id="rect-21" fill="transparent" stroke="#000000"><set attributeName="y" to="225" begin="0; animate21.end + 1s" /><animate attributeName="y" from="225" to="192" dur="0.122" begin="animate20.end" id="animate21" fill="freeze"/></rect></svg>