<svg xmlns="http://www.w3.org/2000/svg" xmlns:xlink="http://www.w3.org/1999/xlink" width="270" height="270"><defs><clipPath id="clip-mask-1"><use xlink:href="#rect-1" /></clipPath><clipPath id="clip-mask-2"><use xlink:href="#rect-2" /></clipPath><clipPath id="clip-mask-3"><use xlink:href="#rect-3" /></clipPath><clipPath id="clip-mask-4"><use xlink:href="#rect-4" /></clipPath><clipPath id="clip-mask-5"><use xlink:href="#rect-5" /></clipPath><clipPath id="clip-mask-6"><use xlink:href="#rect-6" /></clipPath><clipPath id="clip-mask-7"><use xlink:href="#rect-7" /></clipPath><clipPath id="clip-mask-8"><use xlink:href="#rect-8" /></clipPath></defs><path d="M 0 0 L 270 270 M 270 0 L 0 270 M 135 0 L 135 270 M 0 135 L 270 135" stroke="#CCCCCC" /><path d="M 118 31 L 118 27 Q 117 23 119 22 Q 121 21 127 22 Q 145 26 150 30 Q 156 34 159 42 Q 160 48 158 52 Q 156 57 150 56 Q 138 51 124 36" fill="#CCCCCC"/><path d="M 144 70 L 202 60 Q 220 55 238 68 Q 243 72 241 76 Q 239 78 233 78 Q 227 78 220 78 Q 115 78 52 95 Q 48 97 41 95 Q 35 93 31 89 Q 26 84 33 83" fill="#CCCCCC"/><path d="M 105 112 L 134 108 Q 161 101 168 102 Q 176 104 177 107 Q 179 110 176 112 Q 175 113 165 115 Q 144 118 124 122 Q 109 125 99 118 Q 92 113 102 112" fill="#CCCCCC"/><path d="M 114 144 L 137 140 Q 164 133 170 135 Q 177 137 179 140 Q 180 143 178 145 Q 176 146 166 148 Q 142 151 120 155 Q 106 157 95 150 Q 88 145 98 144" fill="#CCCCCC"/><path d="M 108 240 L 107 244 Q 105 248 100 242 Q 95 237 93 228 Q 88 202 79 185 Q 76 180 78 178 Q 79 177 83 178 Q 92 179 96 180 L 101 189 Q 102 197 106 223 L 108 233" fill="#CCCCCC"/><path d="M 96 180 Q 131 178 163 170 Q 178 162 199 181 L 170 183 Q 167 180 160 181 Q 101 189 101 189" fill="#CCCCCC"/><path d="M 164 216 Q 168 204 172 191 Q 173 186 170 183 L 199 181 Q 204 187 198 192 Q 189 198 180 218" fill="#CCCCCC"/><path d="M 106 223 Q 132 221 164 216 L 180 218 Q 187 223 187 225 Q 187 228 184 228 Q 119 230 108 233" fill="#CCCCCC"/><path d="M 118 31 L 118 27 Q 117 23 119 22 Q 121 21 127 22 Q 145 26 150 30 Q 156 34 159 42 Q 160 48 158 52 Q 156 57 150 56 Q 138 51 124 36" fill="#0000ff" clip-path="url(#clip-mask-1)" /><path d="M 144 70 L 202 60 Q 220 55 238 68 Q 243 72 241 76 Q 239 78 233 78 Q 227 78 220 78 Q 115 78 52 95 Q 48 97 41 95 Q 35 93 31 89 Q 26 84 33 83" fill="#0000ff" clip-path="url(#clip-mask-2)" /><path d="M 105 112 L 134 108 Q 161 101 168 102 Q 176 104 177 107 Q 179 110 176 112 Q 175 113 165 115 Q 144 118 124 122 Q 109 125 99 118 Q 92 113 102 112" fill="#0000ff" clip-path="url(#clip-mask-3)" /><path d="M 114 144 L 137 140 Q 164 133 170 135 Q 177 137 179 140 Q 180 143 178 145 Q 176 146 166 148 Q 142 151 120 155 Q 106 157 95 150 Q 88 145 98 144" fill="#0000ff" clip-path="url(#clip-mask-4)" /><path d="M 108 240 L 107 244 Q 105 248 100 242 Q 95 237 93 228 Q 88 202 79 185 Q 76 180 78 178 Q 79 177 83 178 Q 92 179 96 180 L 101 189 Q 102 197 106 223 L 108 233" fill="#0000ff" clip-path="url(#clip-mask-5)" /><path d="M 96 180 Q 131 178 163 170 Q 178 162 199 181 L 170 183 Q 167 180 160 181 Q 101 189 101 189" fill="#0000ff" clip-path="url(#clip-mask-6)" /><path d="M 164 216 Q 168 204 172 191 Q 173 186 170 183 L 199 181 Q 204 187 198 192 Q 189 198 180 218" fill="#0000ff" clip-path="url(#clip-mask-7)" /><path d="M 106 223 Q 132 221 164 216 L 180 218 Q 187 223 187 225 Q 187 228 184 228 Q 119 230 108 233" fill="#0000ff" clip-path="url(#clip-mask-8)" /><rect x="117" y="21" width="43" height="36" id="rect-1" fill="transparent" stroke="#000000"><animate attributeName="x" from="74" to="117" dur="0.159" begin="0; animate8.end + 1s" id="animate1" fill="freeze"/></rect><rect x="26" y="55" width="217" height="42" id="rect-2" fill="transparent" stroke="#000000"><set attributeName="x" to="-191" begin="0; animate8.end + 1s" /><animate attributeName="x" from="-191" to="26" dur="0.804" begin="animate1.end + 0.5" id="animate2" fill="freeze"/></rect><rect x="92" y="101" width="87" height="24" id="rect-3" fill="transparent" stroke="#000000"><set attributeName="x" to="5" begin="0; animate8.end + 1s" /><animate attributeName="x" from="5" to="92" dur="0.322" begin="animate2.end + 0.5" id="animate3" fill="freeze"/></rect><rect x="88" y="133" width="92" height="24" id="rect-4" fill="transparent" stroke="#000000"><set attributeName="x" to="-4" begin="0; animate8.end + 1s" /><animate attributeName="x" from="-4" to="88" dur="0.341" begin="animate3.end + 0.5" id="animate4" fill="freeze"/></rect><rect x="76" y="177" width="32" height="71" id="rect-5" fill="transparent" stroke="#000000"><set attributeName="y" to="106" begin="0; animate8.end + 1s" /><animate attributeName="y" from="106" to="177" dur="0.263" begin="animate4.end + 0.5" id="animate5" fill="freeze"/></rect><rect x="96" y="162" width="103" height="27" id="rect-6" fill="transparent" stroke="#000000"><set attributeName="x" to="-7" begin="0; animate8.end + 1s" /><animate attributeName="x" from="-7" to="96" dur="0.381" begin="animate5.end + 0.5" id="animate6" fill="freeze"/></rect><rect x="164" y="181" width="40" height="37" id="rect-7" fill="transparent" stroke="#000000"><set attributeName="y" to="144" begin="0; animate8.end + 1s" /><animate attributeName="y" from="144" to="181" dur="0.137" begin="animate6.end" id="animate7" fill="freeze"/></rect><rect x="106" y="216" width="81" height="17" id="rect-8" fill="transparent" stroke="#000000"><set attributeName="x" to="25" begin="0; animate8.end + 1s" /><animate attributeName="x" from="25" to="106" dur="0.300" begin="animate7.end + 0.5" id="animate8" fill="freeze"/></rect></svg>