<svg xmlns="http://www.w3.org/2000/svg" xmlns:xlink="http://www.w3.org/1999/xlink" width="270" height="270"><defs><clipPath id="clip-mask-1"><use xlink:href="#rect-1" /></clipPath><clipPath id="clip-mask-2"><use xlink:href="#rect-2" /></clipPath><clipPath id="clip-mask-3"><use xlink:href="#rect-3" /></clipPath><clipPath id="clip-mask-4"><use xlink:href="#rect-4" /></clipPath><clipPath id="clip-mask-5"><use xlink:href="#rect-5" /></clipPath><clipPath id="clip-mask-6"><use xlink:href="#rect-6" /></clipPath><clipPath id="clip-mask-7"><use xlink:href="#rect-7" /></clipPath><clipPath id="clip-mask-8"><use xlink:href="#rect-8" /></clipPath><clipPath id="clip-mask-9"><use xlink:href="#rect-9" /></clipPath><clipPath id="clip-mask-10"><use xlink:href="#rect-10" /></clipPath><clipPath id="clip-mask-11"><use xlink:href="#rect-11" /></clipPath><clipPath id="clip-mask-12"><use xlink:href="#rect-12" /></clipPath><clipPath id="clip-mask-13"><use xlink:href="#rect-13" /></clipPath></defs><path d="M 0 0 L 270 270 M 270 0 L 0 270 M 135 0 L 135 270 M 0 135 L 270 135" stroke="#CCCCCC" /><path d="M 75 22 L 74 19 Q 74 15 75 14 Q 78 12 99 18 Q 107 21 109 26 Q 112 34 112 38 Q 110 42 107 42 Q 103 43 99 39 Q 91 32 83 27" fill="#CCCCCC"/><path d="M 48 76 L 101 63 Q 107 61 115 64 Q 121 67 120 71 Q 120 73 115 74 Q 79 79 44 92 Q 32 97 20 89 Q 16 85 17 82 Q 17 80 21 79" fill="#CCCCCC"/><path d="M 90 95 L 97 95 Q 104 96 108 99 Q 110 102 104 104 Q 88 108 67 114 Q 63 115 60 114 Q 54 110 59 109" fill="#CCCCCC"/><path d="M 71 136 L 83 130 Q 94 125 100 125 Q 107 126 111 129 Q 114 132 107 134 Q 90 139 68 145 Q 64 146 61 145 Q 55 142 60 140" fill="#CCCCCC"/><path d="M 68 216 L 67 219 Q 66 224 61 218 Q 58 214 56 207 Q 51 186 45 173 Q 42 169 44 167 Q 45 166 48 167 Q 55 167 58 169 L 62 176 Q 63 182 67 201 L 68 210" fill="#CCCCCC"/><path d="M 58 169 Q 80 164 90 156 Q 95 153 100 156 Q 107 160 112 163 L 93 170 Q 92 168 85 169 Q 64 175 62 176" fill="#CCCCCC"/><path d="M 89 194 Q 95 172 93 170 L 112 163 Q 118 167 112 173 Q 107 178 102 196" fill="#CCCCCC"/><path d="M 67 201 Q 76 199 87 195 Q 88 194 89 194 L 102 196 Q 107 199 107 201 Q 107 204 105 204 Q 82 207 73 210 Q 70 210 68 210" fill="#CCCCCC"/><path d="M 153 62 Q 189 36 189 28 Q 188 24 190 23 Q 200 21 217 31 Q 221 33 220 36 Q 220 38 215 39 Q 205 43 193 50 Q 176 59 155 66" fill="#CCCCCC"/><path d="M 154 106 Q 154 119 153 130 Q 148 177 128 201 Q 110 224 99 224 Q 96 225 96 223 Q 97 221 100 217 Q 123 194 130 173 Q 137 155 139 139 Q 143 77 133 63 Q 128 57 133 56 Q 139 55 153 62 L 155 66 Q 156 68 155 69 Q 154 77 154 98" fill="#CCCCCC"/><path d="M 182 108 Q 168 110 154 106 L 154 98 Q 154 98 155 98 Q 175 97 193 93 Q 209 89 224 84 Q 233 81 241 83 Q 249 85 251 88 Q 252 90 250 93 Q 248 95 235 97 Q 215 101 197 105" fill="#CCCCCC"/><path d="M 202 234 L 202 239 Q 200 254 196 257 Q 194 257 193 255 Q 188 249 188 205 Q 189 159 188 129 Q 186 115 182 108 L 197 105 Q 200 106 203 108 Q 207 111 206 115 Q 203 130 203 142 L 203 150" fill="#CCCCCC"/><path d="M 203 142 Q 244 152 249 165 Q 253 173 251 177 Q 250 179 249 179 Q 245 179 241 175 Q 221 160 203 150" fill="#CCCCCC"/><path d="M 75 22 L 74 19 Q 74 15 75 14 Q 78 12 99 18 Q 107 21 109 26 Q 112 34 112 38 Q 110 42 107 42 Q 103 43 99 39 Q 91 32 83 27" fill="#0000ff" clip-path="url(#clip-mask-1)" /><path d="M 48 76 L 101 63 Q 107 61 115 64 Q 121 67 120 71 Q 120 73 115 74 Q 79 79 44 92 Q 32 97 20 89 Q 16 85 17 82 Q 17 80 21 79" fill="#0000ff" clip-path="url(#clip-mask-2)" /><path d="M 90 95 L 97 95 Q 104 96 108 99 Q 110 102 104 104 Q 88 108 67 114 Q 63 115 60 114 Q 54 110 59 109" fill="#0000ff" clip-path="url(#clip-mask-3)" /><path d="M 71 136 L 83 130 Q 94 125 100 125 Q 107 126 111 129 Q 114 132 107 134 Q 90 139 68 145 Q 64 146 61 145 Q 55 142 60 140" fill="#0000ff" clip-path="url(#clip-mask-4)" /><path d="M 68 216 L 67 219 Q 66 224 61 218 Q 58 214 56 207 Q 51 186 45 173 Q 42 169 44 167 Q 45 166 48 167 Q 55 167 58 169 L 62 176 Q 63 182 67 201 L 68 210" fill="#0000ff" clip-path="url(#clip-mask-5)" /><path d="M 58 169 Q 80 164 90 156 Q 95 153 100 156 Q 107 160 112 163 L 93 170 Q 92 168 85 169 Q 64 175 62 176" fill="#0000ff" clip-path="url(#clip-mask-6)" /><path d="M 89 194 Q 95 172 93 170 L 112 163 Q 118 167 112 173 Q 107 178 102 196" fill="#0000ff" clip-path="url(#clip-mask-7)" /><path d="M 67 201 Q 76 199 87 195 Q 88 194 89 194 L 102 196 Q 107 199 107 201 Q 107 204 105 204 Q 82 207 73 210 Q 70 210 68 210" fill="#0000ff" clip-path="url(#clip-mask-8)" /><path d="M 153 62 Q 189 36 189 28 Q 188 24 190 23 Q 200 21 217 31 Q 221 33 220 36 Q 220 38 215 39 Q 205 43 193 50 Q 176 59 155 66" fill="#000080" clip-path="url(#clip-mask-9)" /><path d="M 154 106 Q 154 119 153 130 Q 148 177 128 201 Q 110 224 99 224 Q 96 225 96 223 Q 97 221 100 217 Q 123 194 130 173 Q 137 155 139 139 Q 143 77 133 63 Q 128 57 133 56 Q 139 55 153 62 L 155 66 Q 156 68 155 69 Q 154 77 154 98" fill="#000080" clip-path="url(#clip-mask-10)" /><path d="M 182 108 Q 168 110 154 106 L 154 98 Q 154 98 155 98 Q 175 97 193 93 Q 209 89 224 84 Q 233 81 241 83 Q 249 85 251 88 Q 252 90 250 93 Q 248 95 235 97 Q 215 101 197 105" fill="#000080" clip-path="url(#clip-mask-11)" /><path d="M 202 234 L 202 239 Q 200 254 196 257 Q 194 257 193 255 Q 188 249 188 205 Q 189 159 188 129 Q 186 115 182 108 L 197 105 Q 200 106 203 108 Q 207 111 206 115 Q 203 130 203 142 L 203 150" fill="#000080" clip-path="url(#clip-mask-12)" /><path d="M 203 142 Q 244 152 249 165 Q 253 173 251 177 Q 250 179 249 179 Q 245 179 241 175 Q 221 160 203 150" fill="#000080" clip-path="url(#clip-mask-13)" /><rect x="74" y="12" width="38" height="31" id="rect-1" fill="transparent" stroke="#000000"><animate attributeName="x" from="36" to="74" dur="0.141" begin="0; animate13.end + 1s" id="animate1" fill="freeze"/></rect><rect x="16" y="61" width="105" height="36" id="rect-2" fill="transparent" stroke="#000000"><set attributeName="x" to="-89" begin="0; animate13.end + 1s" /><animate attributeName="x" from="-89" to="16" dur="0.389" begin="animate1.end + 0.5" id="animate2" fill="freeze"/></rect><rect x="54" y="95" width="56" height="20" id="rect-3" fill="transparent" stroke="#000000"><set attributeName="x" to="-2" begin="0; animate13.end + 1s" /><animate attributeName="x" from="-2" to="54" dur="0.207" begin="animate2.end + 0.5" id="animate3" fill="freeze"/></rect><rect x="55" y="125" width="59" height="21" id="rect-4" fill="transparent" stroke="#000000"><set attributeName="x" to="-4" begin="0; animate13.end + 1s" /><animate attributeName="x" from="-4" to="55" dur="0.219" begin="animate3.end + 0.5" id="animate4" fill="freeze"/></rect><rect x="42" y="166" width="26" height="58" id="rect-5" fill="transparent" stroke="#000000"><set attributeName="y" to="108" begin="0; animate13.end + 1s" /><animate attributeName="y" from="108" to="166" dur="0.215" begin="animate4.end + 0.5" id="animate5" fill="freeze"/></rect><rect x="58" y="153" width="54" height="23" id="rect-6" fill="transparent" stroke="#000000"><set attributeName="x" to="4" begin="0; animate13.end + 1s" /><animate attributeName="x" from="4" to="58" dur="0.200" begin="animate5.end + 0.5" id="animate6" fill="freeze"/></rect><rect x="89" y="163" width="29" height="33" id="rect-7" fill="transparent" stroke="#000000"><set attributeName="y" to="130" begin="0; animate13.end + 1s" /><animate attributeName="y" from="130" to="163" dur="0.122" begin="animate6.end" id="animate7" fill="freeze"/></rect><rect x="67" y="194" width="40" height="16" id="rect-8" fill="transparent" stroke="#000000"><set attributeName="x" to="27" begin="0; animate13.end + 1s" /><animate attributeName="x" from="27" to="67" dur="0.148" begin="animate7.end + 0.5" id="animate8" fill="freeze"/></rect><rect x="153" y="21" width="68" height="45" id="rect-9" fill="transparent" stroke="#000000"><set attributeName="x" to="221" begin="0; animate13.end + 1s" /><animate attributeName="x" from="221" to="153" dur="0.252" begin="animate8.end + 0.5" id="animate9" fill="freeze"/></rect><rect x="96" y="55" width="60" height="170" id="rect-10" fill="transparent" stroke="#000000"><set attributeName="y" to="-115" begin="0; animate13.end + 1s" /><animate attributeName="y" from="-115" to="55" dur="0.630" begin="animate9.end + 0.5" id="animate10" fill="freeze"/></rect><rect x="154" y="81" width="98" height="29" id="rect-11" fill="transparent" stroke="#000000"><set attributeName="x" to="56" begin="0; animate13.end + 1s" /><animate attributeName="x" from="56" to="154" dur="0.363" begin="animate10.end + 0.5" id="animate11" fill="freeze"/></rect><rect x="182" y="105" width="25" height="152" id="rect-12" fill="transparent" stroke="#000000"><set attributeName="y" to="-47" begin="0; animate13.end + 1s" /><animate attributeName="y" from="-47" to="105" dur="0.563" begin="animate11.end + 0.5" id="animate12" fill="freeze"/></rect><rect x="203" y="142" width="50" height="37" id="rect-13" fill="transparent" stroke="#000000"><set attributeName="x" to="153" begin="0; animate13.end + 1s" /><animate attributeName="x" from="153" to="203" dur="0.185" begin="animate12.end + 0.5" id="animate13" fill="freeze"/></rect></svg>