<svg xmlns="http://www.w3.org/2000/svg" xmlns:xlink="http://www.w3.org/1999/xlink" width="270" height="270"><defs><clipPath id="clip-mask-1"><use xlink:href="#rect-1" /></clipPath><clipPath id="clip-mask-2"><use xlink:href="#rect-2" /></clipPath><clipPath id="clip-mask-3"><use xlink:href="#rect-3" /></clipPath><clipPath id="clip-mask-4"><use xlink:href="#rect-4" /></clipPath><clipPath id="clip-mask-5"><use xlink:href="#rect-5" /></clipPath><clipPath id="clip-mask-6"><use xlink:href="#rect-6" /></clipPath><clipPath id="clip-mask-7"><use xlink:href="#rect-7" /></clipPath><clipPath id="clip-mask-8"><use xlink:href="#rect-8" /></clipPath><clipPath id="clip-mask-9"><use xlink:href="#rect-9" /></clipPath><clipPath id="clip-mask-10"><use xlink:href="#rect-10" /></clipPath><clipPath id="clip-mask-11"><use xlink:href="#rect-11" /></clipPath><clipPath id="clip-mask-12"><use xlink:href="#rect-12" /></clipPath><clipPath id="clip-mask-13"><use xlink:href="#rect-13" /></clipPath></defs><path d="M 0 0 L 270 270 M 270 0 L 0 270 M 135 0 L 135 270 M 0 135 L 270 135" stroke="#CCCCCC" /><path d="M 65 24 L 64 21 Q 63 18 65 17 Q 66 16 71 17 Q 94 22 96 29 Q 99 37 98 41 Q 97 45 94 45 Q 89 45 86 42 Q 79 35 72 30" fill="#CCCCCC"/><path d="M 34 75 L 91 59 Q 97 58 105 61 Q 110 63 110 67 Q 110 69 105 69 Q 68 77 36 90 Q 25 94 13 87 Q 8 84 9 81 Q 10 78 13 78" fill="#CCCCCC"/><path d="M 55 100 L 64 96 Q 75 91 82 91 Q 89 92 92 95 Q 95 98 89 100 Q 74 104 54 109 Q 50 110 48 109 Q 42 105 46 104" fill="#CCCCCC"/><path d="M 71 120 L 79 120 Q 86 121 89 124 Q 92 128 86 129 Q 72 132 53 137 Q 49 138 47 137 Q 41 133 45 132" fill="#CCCCCC"/><path d="M 56 210 L 55 214 Q 54 219 49 213 Q 45 209 44 202 Q 39 179 32 165 Q 30 161 32 159 Q 32 158 35 159 Q 43 159 46 161 L 50 168 Q 51 174 54 193 L 55 202" fill="#CCCCCC"/><path d="M 46 161 Q 58 157 69 152 Q 81 145 85 148 Q 93 152 98 155 L 78 163 Q 77 160 71 162 Q 51 167 50 168" fill="#CCCCCC"/><path d="M 76 185 Q 78 178 79 171 Q 80 164 78 163 L 98 155 Q 105 158 99 165 Q 94 170 90 186" fill="#CCCCCC"/><path d="M 54 193 Q 63 191 75 186 Q 76 185 76 185 L 90 186 Q 96 189 96 191 Q 96 193 93 194 Q 71 198 60 201 Q 58 202 55 202" fill="#CCCCCC"/><path d="M 146 67 L 131 88 Q 106 116 95 118 Q 93 118 95 116 Q 115 92 122 81 Q 122 80 123 79 Q 149 37 143 17 Q 142 14 144 13 Q 147 12 153 13 Q 158 14 162 17 Q 166 20 167 22 Q 168 25 166 27 Q 162 30 160 38 L 157 44" fill="#CCCCCC"/><path d="M 160 38 Q 164 42 171 49 Q 190 64 206 74 Q 207 74 257 94 Q 261 96 260 97 Q 260 99 255 99 Q 236 102 218 101 Q 209 101 203 95 Q 179 70 157 44" fill="#CCCCCC"/><path d="M 150 81 L 153 81 Q 160 80 170 90 Q 173 94 170 97 Q 159 110 151 123 Q 127 149 113 150 Q 109 151 112 147 Q 122 137 123 136 Q 152 109 150 85" fill="#CCCCCC"/><path d="M 165 122 L 168 122 Q 175 122 182 132 Q 185 136 182 138 Q 170 151 159 163 Q 134 185 120 185 Q 117 185 119 182 Q 131 172 132 172 Q 164 148 165 125" fill="#CCCCCC"/><path d="M 175 159 L 179 159 Q 186 159 197 171 Q 201 176 197 179 Q 186 191 174 206 Q 155 232 123 250 Q 113 256 106 256 Q 102 257 105 253 Q 122 239 127 237 Q 174 198 175 164" fill="#CCCCCC"/><path d="M 65 24 L 64 21 Q 63 18 65 17 Q 66 16 71 17 Q 94 22 96 29 Q 99 37 98 41 Q 97 45 94 45 Q 89 45 86 42 Q 79 35 72 30" fill="#0000ff" clip-path="url(#clip-mask-1)" /><path d="M 34 75 L 91 59 Q 97 58 105 61 Q 110 63 110 67 Q 110 69 105 69 Q 68 77 36 90 Q 25 94 13 87 Q 8 84 9 81 Q 10 78 13 78" fill="#0000ff" clip-path="url(#clip-mask-2)" /><path d="M 55 100 L 64 96 Q 75 91 82 91 Q 89 92 92 95 Q 95 98 89 100 Q 74 104 54 109 Q 50 110 48 109 Q 42 105 46 104" fill="#0000ff" clip-path="url(#clip-mask-3)" /><path d="M 71 120 L 79 120 Q 86 121 89 124 Q 92 128 86 129 Q 72 132 53 137 Q 49 138 47 137 Q 41 133 45 132" fill="#0000ff" clip-path="url(#clip-mask-4)" /><path d="M 56 210 L 55 214 Q 54 219 49 213 Q 45 209 44 202 Q 39 179 32 165 Q 30 161 32 159 Q 32 158 35 159 Q 43 159 46 161 L 50 168 Q 51 174 54 193 L 55 202" fill="#0000ff" clip-path="url(#clip-mask-5)" /><path d="M 46 161 Q 58 157 69 152 Q 81 145 85 148 Q 93 152 98 155 L 78 163 Q 77 160 71 162 Q 51 167 50 168" fill="#0000ff" clip-path="url(#clip-mask-6)" /><path d="M 76 185 Q 78 178 79 171 Q 80 164 78 163 L 98 155 Q 105 158 99 165 Q 94 170 90 186" fill="#0000ff" clip-path="url(#clip-mask-7)" /><path d="M 54 193 Q 63 191 75 186 Q 76 185 76 185 L 90 186 Q 96 189 96 191 Q 96 193 93 194 Q 71 198 60 201 Q 58 202 55 202" fill="#0000ff" clip-path="url(#clip-mask-8)" /><path d="M 146 67 L 131 88 Q 106 116 95 118 Q 93 118 95 116 Q 115 92 122 81 Q 122 80 123 79 Q 149 37 143 17 Q 142 14 144 13 Q 147 12 153 13 Q 158 14 162 17 Q 166 20 167 22 Q 168 25 166 27 Q 162 30 160 38 L 157 44" fill="#000080" clip-path="url(#clip-mask-9)" /><path d="M 160 38 Q 164 42 171 49 Q 190 64 206 74 Q 207 74 257 94 Q 261 96 260 97 Q 260 99 255 99 Q 236 102 218 101 Q 209 101 203 95 Q 179 70 157 44" fill="#000080" clip-path="url(#clip-mask-10)" /><path d="M 150 81 L 153 81 Q 160 80 170 90 Q 173 94 170 97 Q 159 110 151 123 Q 127 149 113 150 Q 109 151 112 147 Q 122 137 123 136 Q 152 109 150 85" fill="#000080" clip-path="url(#clip-mask-11)" /><path d="M 165 122 L 168 122 Q 175 122 182 132 Q 185 136 182 138 Q 170 151 159 163 Q 134 185 120 185 Q 117 185 119 182 Q 131 172 132 172 Q 164 148 165 125" fill="#000080" clip-path="url(#clip-mask-12)" /><path d="M 175 159 L 179 159 Q 186 159 197 171 Q 201 176 197 179 Q 186 191 174 206 Q 155 232 123 250 Q 113 256 106 256 Q 102 257 105 253 Q 122 239 127 237 Q 174 198 175 164" fill="#000080" clip-path="url(#clip-mask-13)" /><rect x="63" y="16" width="36" height="29" id="rect-1" fill="transparent" stroke="#000000"><animate attributeName="x" from="27" to="63" dur="0.133" begin="0; animate13.end + 1s" id="animate1" fill="freeze"/></rect><rect x="8" y="58" width="102" height="36" id="rect-2" fill="transparent" stroke="#000000"><set attributeName="x" to="-94" begin="0; animate13.end + 1s" /><animate attributeName="x" from="-94" to="8" dur="0.378" begin="animate1.end + 0.5" id="animate2" fill="freeze"/></rect><rect x="42" y="91" width="53" height="19" id="rect-3" fill="transparent" stroke="#000000"><set attributeName="x" to="-11" begin="0; animate13.end + 1s" /><animate attributeName="x" from="-11" to="42" dur="0.196" begin="animate2.end + 0.5" id="animate3" fill="freeze"/></rect><rect x="41" y="120" width="51" height="18" id="rect-4" fill="transparent" stroke="#000000"><set attributeName="x" to="-10" begin="0; animate13.end + 1s" /><animate attributeName="x" from="-10" to="41" dur="0.189" begin="animate3.end + 0.5" id="animate4" fill="freeze"/></rect><rect x="30" y="158" width="26" height="61" id="rect-5" fill="transparent" stroke="#000000"><set attributeName="y" to="97" begin="0; animate13.end + 1s" /><animate attributeName="y" from="97" to="158" dur="0.226" begin="animate4.end + 0.5" id="animate5" fill="freeze"/></rect><rect x="46" y="145" width="52" height="23" id="rect-6" fill="transparent" stroke="#000000"><set attributeName="x" to="-6" begin="0; animate13.end + 1s" /><animate attributeName="x" from="-6" to="46" dur="0.193" begin="animate5.end + 0.5" id="animate6" fill="freeze"/></rect><rect x="76" y="155" width="29" height="31" id="rect-7" fill="transparent" stroke="#000000"><set attributeName="y" to="124" begin="0; animate13.end + 1s" /><animate attributeName="y" from="124" to="155" dur="0.115" begin="animate6.end" id="animate7" fill="freeze"/></rect><rect x="54" y="185" width="42" height="17" id="rect-8" fill="transparent" stroke="#000000"><set attributeName="x" to="12" begin="0; animate13.end + 1s" /><animate attributeName="x" from="12" to="54" dur="0.156" begin="animate7.end + 0.5" id="animate8" fill="freeze"/></rect><rect x="93" y="12" width="75" height="106" id="rect-9" fill="transparent" stroke="#000000"><set attributeName="y" to="-94" begin="0; animate13.end + 1s" /><animate attributeName="y" from="-94" to="12" dur="0.393" begin="animate8.end + 0.5" id="animate9" fill="freeze"/></rect><rect x="157" y="38" width="104" height="64" id="rect-10" fill="transparent" stroke="#000000"><set attributeName="x" to="53" begin="0; animate13.end + 1s" /><animate attributeName="x" from="53" to="157" dur="0.385" begin="animate9.end + 0.5" id="animate10" fill="freeze"/></rect><rect x="109" y="80" width="64" height="71" id="rect-11" fill="transparent" stroke="#000000"><set attributeName="y" to="9" begin="0; animate13.end + 1s" /><animate attributeName="y" from="9" to="80" dur="0.263" begin="animate10.end + 0.5" id="animate11" fill="freeze"/></rect><rect x="117" y="122" width="68" height="63" id="rect-12" fill="transparent" stroke="#000000"><set attributeName="y" to="59" begin="0; animate13.end + 1s" /><animate attributeName="y" from="59" to="122" dur="0.233" begin="animate11.end + 0.5" id="animate12" fill="freeze"/></rect><rect x="102" y="159" width="99" height="98" id="rect-13" fill="transparent" stroke="#000000"><set attributeName="y" to="61" begin="0; animate13.end + 1s" /><animate attributeName="y" from="61" to="159" dur="0.363" begin="animate12.end + 0.5" id="animate13" fill="freeze"/></rect></svg>