<svg xmlns="http://www.w3.org/2000/svg" xmlns:xlink="http://www.w3.org/1999/xlink" width="270" height="270"><defs><clipPath id="clip-mask-1"><use xlink:href="#rect-1" /></clipPath><clipPath id="clip-mask-2"><use xlink:href="#rect-2" /></clipPath><clipPath id="clip-mask-3"><use xlink:href="#rect-3" /></clipPath><clipPath id="clip-mask-4"><use xlink:href="#rect-4" /></clipPath><clipPath id="clip-mask-5"><use xlink:href="#rect-5" /></clipPath><clipPath id="clip-mask-6"><use xlink:href="#rect-6" /></clipPath><clipPath id="clip-mask-7"><use xlink:href="#rect-7" /></clipPath><clipPath id="clip-mask-8"><use xlink:href="#rect-8" /></clipPath><clipPath id="clip-mask-9"><use xlink:href="#rect-9" /></clipPath><clipPath id="clip-mask-10"><use xlink:href="#rect-10" /></clipPath><clipPath id="clip-mask-11"><use xlink:href="#rect-11" /></clipPath><clipPath id="clip-mask-12"><use xlink:href="#rect-12" /></clipPath><clipPath id="clip-mask-13"><use xlink:href="#rect-13" /></clipPath><clipPath id="clip-mask-14"><use xlink:href="#rect-14" /></clipPath><clipPath id="clip-mask-15"><use xlink:href="#rect-15" /></clipPath><clipPath id="clip-mask-16"><use xlink:href="#rect-16" /></clipPath><clipPath id="clip-mask-17"><use xlink:href="#rect-17" /></clipPath><clipPath id="clip-mask-18"><use xlink:href="#rect-18" /></clipPath></defs><path d="M 0 0 L 270 270 M 270 0 L 0 270 M 135 0 L 135 270 M 0 135 L 270 135" stroke="#CCCCCC" /><path d="M 69 37 L 68 34 Q 68 31 69 30 Q 73 28 92 37 Q 100 41 101 46 Q 103 54 102 58 Q 100 62 97 62 Q 92 62 89 58 Q 82 50 76 44" fill="#CCCCCC"/><path d="M 42 89 L 91 78 Q 97 76 104 79 Q 108 81 108 84 Q 108 86 104 87 Q 68 93 39 103 Q 28 107 18 100 Q 15 97 15 95 Q 16 92 19 92" fill="#CCCCCC"/><path d="M 59 118 L 64 117 Q 69 116 73 114 Q 80 111 87 112 Q 94 113 96 115 Q 97 118 95 119 Q 95 120 91 121 Q 82 123 74 125 Q 61 130 51 125 Q 44 121 53 119" fill="#CCCCCC"/><path d="M 57 146 L 62 145 Q 67 143 71 142 Q 78 138 85 139 Q 92 140 94 142 Q 95 144 93 146 Q 93 147 89 148 Q 84 149 80 150 Q 61 156 50 153 Q 43 149 51 147" fill="#CCCCCC"/><path d="M 56 223 L 55 228 Q 54 231 49 226 Q 45 222 44 215 Q 39 193 32 180 Q 30 176 31 175 Q 32 174 35 174 Q 41 175 44 176 L 49 182 Q 49 186 53 207 L 55 216" fill="#CCCCCC"/><path d="M 44 176 Q 56 172 67 168 Q 80 161 84 163 Q 91 167 96 170 Q 101 173 96 180 L 77 177 Q 76 174 69 176 Q 60 179 49 182" fill="#CCCCCC"/><path d="M 75 201 Q 76 192 77 186 Q 79 178 77 177 L 96 180 Q 91 184 87 202" fill="#CCCCCC"/><path d="M 53 207 Q 62 205 73 201 Q 73 201 75 201 L 87 202 Q 93 205 93 207 Q 93 210 90 210 Q 68 213 59 216 Q 57 216 55 216" fill="#CCCCCC"/><path d="M 187 90 Q 163 100 161 100 Q 159 100 160 97 Q 201 72 200 63 Q 200 60 201 59 Q 204 58 208 60 Q 219 63 225 66 Q 227 68 227 71 Q 226 73 223 73 Q 209 77 195 86" fill="#CCCCCC"/><path d="M 192 171 Q 191 135 191 119 Q 190 96 187 90 L 195 86 Q 199 89 203 93 L 204 93 Q 204 94 203 126 L 203 133 Q 202 150 202 169" fill="#CCCCCC"/><path d="M 203 126 Q 206 125 209 124 Q 213 123 217 121 Q 223 118 229 118 Q 236 119 238 121 Q 239 123 237 125 Q 237 125 236 125 Q 204 133 203 133" fill="#CCCCCC"/><path d="M 167 154 L 166 148 Q 164 142 161 137 Q 159 133 161 132 Q 162 131 165 132 Q 171 134 176 138 Q 179 140 178 145 Q 178 150 178 174 L 169 175" fill="#CCCCCC"/><path d="M 178 174 Q 189 171 192 171 L 202 169 Q 208 167 213 166 Q 226 162 239 170 Q 243 173 242 176 Q 240 178 236 178 Q 194 178 164 186 Q 160 188 156 187 Q 152 186 149 183 Q 145 179 150 179 Q 160 177 169 175" fill="#CCCCCC"/><path d="M 126 100 Q 125 98 122 99 Q 108 105 103 101 Q 101 100 104 99 Q 113 96 125 88 Q 129 84 134 87 Q 142 89 145 92 Q 148 95 144 99" fill="#CCCCCC"/><path d="M 119 144 Q 114 145 113 143 Q 112 140 114 136 Q 119 130 124 113 Q 128 103 126 100 L 144 99 Q 140 103 136 111 Q 130 124 124 135" fill="#CCCCCC"/><path d="M 147 148 L 131 148 Q 130 143 119 144 L 124 135 Q 123 138 124 139 Q 126 141 132 140 Q 137 138 141 139 Q 145 141 147 143 Q 149 145 147 148" fill="#CCCCCC"/><path d="M 147 148 Q 144 152 138 169 Q 137 173 135 178 L 131 186 Q 126 199 120 209 Q 111 221 94 233 Q 92 235 91 234 Q 90 234 92 230 Q 110 209 124 180 L 127 172 Q 133 154 131 148" fill="#CCCCCC"/><path d="M 115 173 L 105 170 Q 103 170 103 168 Q 104 166 110 164 Q 114 163 127 172 L 135 178 Q 168 200 191 209 Q 192 209 193 210 Q 209 216 252 220 Q 254 220 254 222 Q 252 227 212 238 Q 204 241 199 236 Q 169 216 131 186 L 124 180" fill="#CCCCCC"/><path d="M 69 37 L 68 34 Q 68 31 69 30 Q 73 28 92 37 Q 100 41 101 46 Q 103 54 102 58 Q 100 62 97 62 Q 92 62 89 58 Q 82 50 76 44" fill="#0000ff" clip-path="url(#clip-mask-1)" /><path d="M 42 89 L 91 78 Q 97 76 104 79 Q 108 81 108 84 Q 108 86 104 87 Q 68 93 39 103 Q 28 107 18 100 Q 15 97 15 95 Q 16 92 19 92" fill="#0000ff" clip-path="url(#clip-mask-2)" /><path d="M 59 118 L 64 117 Q 69 116 73 114 Q 80 111 87 112 Q 94 113 96 115 Q 97 118 95 119 Q 95 120 91 121 Q 82 123 74 125 Q 61 130 51 125 Q 44 121 53 119" fill="#0000ff" clip-path="url(#clip-mask-3)" /><path d="M 57 146 L 62 145 Q 67 143 71 142 Q 78 138 85 139 Q 92 140 94 142 Q 95 144 93 146 Q 93 147 89 148 Q 84 149 80 150 Q 61 156 50 153 Q 43 149 51 147" fill="#0000ff" clip-path="url(#clip-mask-4)" /><path d="M 56 223 L 55 228 Q 54 231 49 226 Q 45 222 44 215 Q 39 193 32 180 Q 30 176 31 175 Q 32 174 35 174 Q 41 175 44 176 L 49 182 Q 49 186 53 207 L 55 216" fill="#0000ff" clip-path="url(#clip-mask-5)" /><path d="M 44 176 Q 56 172 67 168 Q 80 161 84 163 Q 91 167 96 170 Q 101 173 96 180 L 77 177 Q 76 174 69 176 Q 60 179 49 182" fill="#0000ff" clip-path="url(#clip-mask-6)" /><path d="M 75 201 Q 76 192 77 186 Q 79 178 77 177 L 96 180 Q 91 184 87 202" fill="#0000ff" clip-path="url(#clip-mask-7)" /><path d="M 53 207 Q 62 205 73 201 Q 73 201 75 201 L 87 202 Q 93 205 93 207 Q 93 210 90 210 Q 68 213 59 216 Q 57 216 55 216" fill="#0000ff" clip-path="url(#clip-mask-8)" /><path d="M 187 90 Q 163 100 161 100 Q 159 100 160 97 Q 201 72 200 63 Q 200 60 201 59 Q 204 58 208 60 Q 219 63 225 66 Q 227 68 227 71 Q 226 73 223 73 Q 209 77 195 86" fill="#000080" clip-path="url(#clip-mask-9)" /><path d="M 192 171 Q 191 135 191 119 Q 190 96 187 90 L 195 86 Q 199 89 203 93 L 204 93 Q 204 94 203 126 L 203 133 Q 202 150 202 169" fill="#000080" clip-path="url(#clip-mask-10)" /><path d="M 203 126 Q 206 125 209 124 Q 213 123 217 121 Q 223 118 229 118 Q 236 119 238 121 Q 239 123 237 125 Q 237 125 236 125 Q 204 133 203 133" fill="#000080" clip-path="url(#clip-mask-11)" /><path d="M 167 154 L 166 148 Q 164 142 161 137 Q 159 133 161 132 Q 162 131 165 132 Q 171 134 176 138 Q 179 140 178 145 Q 178 150 178 174 L 169 175" fill="#000080" clip-path="url(#clip-mask-12)" /><path d="M 178 174 Q 189 171 192 171 L 202 169 Q 208 167 213 166 Q 226 162 239 170 Q 243 173 242 176 Q 240 178 236 178 Q 194 178 164 186 Q 160 188 156 187 Q 152 186 149 183 Q 145 179 150 179 Q 160 177 169 175" fill="#000080" clip-path="url(#clip-mask-13)" /><path d="M 126 100 Q 125 98 122 99 Q 108 105 103 101 Q 101 100 104 99 Q 113 96 125 88 Q 129 84 134 87 Q 142 89 145 92 Q 148 95 144 99" fill="#000080" clip-path="url(#clip-mask-14)" /><path d="M 119 144 Q 114 145 113 143 Q 112 140 114 136 Q 119 130 124 113 Q 128 103 126 100 L 144 99 Q 140 103 136 111 Q 130 124 124 135" fill="#000080" clip-path="url(#clip-mask-15)" /><path d="M 147 148 L 131 148 Q 130 143 119 144 L 124 135 Q 123 138 124 139 Q 126 141 132 140 Q 137 138 141 139 Q 145 141 147 143 Q 149 145 147 148" fill="#000080" clip-path="url(#clip-mask-16)" /><path d="M 147 148 Q 144 152 138 169 Q 137 173 135 178 L 131 186 Q 126 199 120 209 Q 111 221 94 233 Q 92 235 91 234 Q 90 234 92 230 Q 110 209 124 180 L 127 172 Q 133 154 131 148" fill="#000080" clip-path="url(#clip-mask-17)" /><path d="M 115 173 L 105 170 Q 103 170 103 168 Q 104 166 110 164 Q 114 163 127 172 L 135 178 Q 168 200 191 209 Q 192 209 193 210 Q 209 216 252 220 Q 254 220 254 222 Q 252 227 212 238 Q 204 241 199 236 Q 169 216 131 186 L 124 180" fill="#000080" clip-path="url(#clip-mask-18)" /><rect x="68" y="28" width="35" height="34" id="rect-1" fill="transparent" stroke="#000000"><animate attributeName="x" from="33" to="68" dur="0.130" begin="0; animate18.end + 1s" id="animate1" fill="freeze"/></rect><rect x="15" y="76" width="93" height="31" id="rect-2" fill="transparent" stroke="#000000"><set attributeName="x" to="-78" begin="0; animate18.end + 1s" /><animate attributeName="x" from="-78" to="15" dur="0.344" begin="animate1.end + 0.5" id="animate2" fill="freeze"/></rect><rect x="44" y="111" width="53" height="19" id="rect-3" fill="transparent" stroke="#000000"><set attributeName="x" to="-9" begin="0; animate18.end + 1s" /><animate attributeName="x" from="-9" to="44" dur="0.196" begin="animate2.end + 0.5" id="animate3" fill="freeze"/></rect><rect x="43" y="138" width="52" height="18" id="rect-4" fill="transparent" stroke="#000000"><set attributeName="x" to="-9" begin="0; animate18.end + 1s" /><animate attributeName="x" from="-9" to="43" dur="0.193" begin="animate3.end + 0.5" id="animate4" fill="freeze"/></rect><rect x="30" y="174" width="26" height="57" id="rect-5" fill="transparent" stroke="#000000"><set attributeName="y" to="117" begin="0; animate18.end + 1s" /><animate attributeName="y" from="117" to="174" dur="0.211" begin="animate4.end + 0.5" id="animate5" fill="freeze"/></rect><rect x="44" y="161" width="57" height="21" id="rect-6" fill="transparent" stroke="#000000"><set attributeName="x" to="-13" begin="0; animate18.end + 1s" /><animate attributeName="x" from="-13" to="44" dur="0.211" begin="animate5.end + 0.5" id="animate6" fill="freeze"/></rect><rect x="75" y="177" width="21" height="25" id="rect-7" fill="transparent" stroke="#000000"><set attributeName="y" to="152" begin="0; animate18.end + 1s" /><animate attributeName="y" from="152" to="177" dur="0.093" begin="animate6.end" id="animate7" fill="freeze"/></rect><rect x="53" y="201" width="40" height="15" id="rect-8" fill="transparent" stroke="#000000"><set attributeName="x" to="13" begin="0; animate18.end + 1s" /><animate attributeName="x" from="13" to="53" dur="0.148" begin="animate7.end + 0.5" id="animate8" fill="freeze"/></rect><rect x="159" y="58" width="68" height="42" id="rect-9" fill="transparent" stroke="#000000"><set attributeName="x" to="227" begin="0; animate18.end + 1s" /><animate attributeName="x" from="227" to="159" dur="0.252" begin="animate8.end + 0.5" id="animate9" fill="freeze"/></rect><rect x="187" y="86" width="17" height="85" id="rect-10" fill="transparent" stroke="#000000"><set attributeName="y" to="1" begin="0; animate18.end + 1s" /><animate attributeName="y" from="1" to="86" dur="0.315" begin="animate9.end + 0.5" id="animate10" fill="freeze"/></rect><rect x="203" y="118" width="36" height="15" id="rect-11" fill="transparent" stroke="#000000"><set attributeName="x" to="167" begin="0; animate18.end + 1s" /><animate attributeName="x" from="167" to="203" dur="0.133" begin="animate10.end + 0.5" id="animate11" fill="freeze"/></rect><rect x="159" y="131" width="20" height="44" id="rect-12" fill="transparent" stroke="#000000"><set attributeName="y" to="87" begin="0; animate18.end + 1s" /><animate attributeName="y" from="87" to="131" dur="0.163" begin="animate11.end + 0.5" id="animate12" fill="freeze"/></rect><rect x="145" y="162" width="98" height="26" id="rect-13" fill="transparent" stroke="#000000"><set attributeName="x" to="47" begin="0; animate18.end + 1s" /><animate attributeName="x" from="47" to="145" dur="0.363" begin="animate12.end + 0.5" id="animate13" fill="freeze"/></rect><rect x="101" y="84" width="47" height="21" id="rect-14" fill="transparent" stroke="#000000"><set attributeName="x" to="54" begin="0; animate18.end + 1s" /><animate attributeName="x" from="54" to="101" dur="0.174" begin="animate13.end + 0.5" id="animate14" fill="freeze"/></rect><rect x="112" y="99" width="32" height="46" id="rect-15" fill="transparent" stroke="#000000"><set attributeName="y" to="53" begin="0; animate18.end + 1s" /><animate attributeName="y" from="53" to="99" dur="0.170" begin="animate14.end" id="animate15" fill="freeze"/></rect><rect x="119" y="135" width="30" height="13" id="rect-16" fill="transparent" stroke="#000000"><set attributeName="x" to="89" begin="0; animate18.end + 1s" /><animate attributeName="x" from="89" to="119" dur="0.111" begin="animate15.end + 0.5" id="animate16" fill="freeze"/></rect><rect x="90" y="148" width="57" height="87" id="rect-17" fill="transparent" stroke="#000000"><set attributeName="y" to="61" begin="0; animate18.end + 1s" /><animate attributeName="y" from="61" to="148" dur="0.322" begin="animate16.end" id="animate17" fill="freeze"/></rect><rect x="103" y="163" width="151" height="78" id="rect-18" fill="transparent" stroke="#000000"><set attributeName="x" to="-48" begin="0; animate18.end + 1s" /><animate attributeName="x" from="-48" to="103" dur="0.559" begin="animate17.end + 0.5" id="animate18" fill="freeze"/></rect></svg>