<svg xmlns="http://www.w3.org/2000/svg" xmlns:xlink="http://www.w3.org/1999/xlink" width="270" height="270"><defs><clipPath id="clip-mask-1"><use xlink:href="#rect-1" /></clipPath><clipPath id="clip-mask-2"><use xlink:href="#rect-2" /></clipPath><clipPath id="clip-mask-3"><use xlink:href="#rect-3" /></clipPath><clipPath id="clip-mask-4"><use xlink:href="#rect-4" /></clipPath><clipPath id="clip-mask-5"><use xlink:href="#rect-5" /></clipPath><clipPath id="clip-mask-6"><use xlink:href="#rect-6" /></clipPath><clipPath id="clip-mask-7"><use xlink:href="#rect-7" /></clipPath><clipPath id="clip-mask-8"><use xlink:href="#rect-8" /></clipPath><clipPath id="clip-mask-9"><use xlink:href="#rect-9" /></clipPath><clipPath id="clip-mask-10"><use xlink:href="#rect-10" /></clipPath><clipPath id="clip-mask-11"><use xlink:href="#rect-11" /></clipPath><clipPath id="clip-mask-12"><use xlink:href="#rect-12" /></clipPath><clipPath id="clip-mask-13"><use xlink:href="#rect-13" /></clipPath><clipPath id="clip-mask-14"><use xlink:href="#rect-14" /></clipPath><clipPath id="clip-mask-15"><use xlink:href="#rect-15" /></clipPath><clipPath id="clip-mask-16"><use xlink:href="#rect-16" /></clipPath><clipPath id="clip-mask-17"><use xlink:href="#rect-17" /></clipPath><clipPath id="clip-mask-18"><use xlink:href="#rect-18" /></clipPath><clipPath id="clip-mask-19"><use xlink:href="#rect-19" /></clipPath></defs><path d="M 0 0 L 270 270 M 270 0 L 0 270 M 135 0 L 135 270 M 0 135 L 270 135" stroke="#CCCCCC" /><path d="M 72 32 L 71 29 Q 71 25 72 24 Q 74 23 79 24 Q 102 29 106 38 Q 108 46 107 50 Q 105 54 102 55 Q 98 55 94 51 Q 87 44 80 38" fill="#CCCCCC"/><path d="M 43 80 L 91 69 Q 97 68 105 71 Q 109 73 109 77 Q 109 78 105 79 Q 72 84 48 93 Q 32 98 22 91 Q 18 88 18 85 Q 19 83 23 83" fill="#CCCCCC"/><path d="M 62 108 L 68 106 Q 85 99 90 99 Q 98 99 99 102 Q 101 104 99 106 Q 99 107 94 108 Q 85 111 77 114 Q 65 119 54 115 Q 47 112 55 109" fill="#CCCCCC"/><path d="M 61 136 L 66 135 Q 85 128 88 128 Q 95 129 97 131 Q 99 133 97 135 Q 96 136 93 137 Q 84 140 76 142 Q 64 147 53 143 Q 46 140 55 137" fill="#CCCCCC"/><path d="M 59 214 L 58 219 Q 56 223 52 217 Q 48 212 47 206 Q 42 184 36 170 Q 33 166 35 164 Q 36 163 39 164 Q 46 165 49 166 L 53 173 Q 54 178 56 197 L 58 207" fill="#CCCCCC"/><path d="M 49 166 Q 70 161 81 154 Q 82 153 83 153 Q 86 152 103 162 Q 108 166 103 172 L 83 168 Q 81 165 75 167 Q 54 171 53 173" fill="#CCCCCC"/><path d="M 103 172 Q 98 177 93 192 L 79 190 Q 81 183 82 177 Q 85 170 83 168" fill="#CCCCCC"/><path d="M 56 197 Q 66 194 77 191 Q 78 190 79 190 L 93 192 Q 98 194 98 196 Q 98 199 95 199 Q 70 203 58 207" fill="#CCCCCC"/><path d="M 156 50 Q 132 58 127 58 Q 126 57 127 55 Q 180 31 180 21 Q 180 18 182 17 Q 186 17 189 18 Q 200 22 204 26 Q 207 29 207 31 Q 206 33 202 34 Q 190 36 166 46" fill="#CCCCCC"/><path d="M 153 79 Q 144 82 136 84 Q 132 86 127 85 Q 123 84 120 81 Q 116 77 120 76 Q 142 71 161 68 L 175 64 Q 187 61 196 58 Q 211 53 225 61 Q 230 64 229 67 Q 227 69 215 70 Q 190 72 174 75" fill="#CCCCCC"/><path d="M 172 94 L 172 104 Q 172 124 170 126 Q 167 127 164 124 Q 160 115 161 112 Q 162 105 161 90 L 161 68 Q 161 56 156 50 L 166 46 Q 172 48 176 52 Q 179 55 178 57 Q 176 61 175 64 L 174 75 Q 173 76 173 76 L 173 84" fill="#CCCCCC"/><path d="M 161 90 Q 160 91 155 97 Q 135 123 113 131 Q 110 132 109 131 Q 107 131 109 128 Q 141 103 153 79 L 161 68" fill="#CCCCCC"/><path d="M 173 76 Q 204 100 248 113 Q 251 114 251 116 Q 251 117 247 117 Q 230 120 214 120 Q 205 120 200 115 Q 185 100 173 84" fill="#CCCCCC"/><path d="M 157 151 L 160 156 Q 161 160 157 163 Q 156 165 155 167 Q 138 200 123 215 Q 123 216 122 217 Q 103 234 93 234 Q 90 234 92 231 Q 93 230 95 229 Q 112 213 120 202 Q 120 201 121 201 Q 143 163 142 150 Q 142 149 142 149 L 151 145" fill="#CCCCCC"/><path d="M 142 149 Q 137 150 131 152 Q 124 155 118 151 Q 112 147 112 145 Q 113 144 115 144 Q 174 132 189 124 Q 193 122 197 124 Q 209 130 210 133 Q 212 136 205 139 L 186 138 Q 185 136 182 137 Q 168 140 151 145" fill="#CCCCCC"/><path d="M 205 139 Q 198 143 189 157 L 178 176 Q 174 177 171 176 Q 169 173 169 168 Q 169 164 171 163 Q 179 157 186 142 Q 187 139 186 138" fill="#CCCCCC"/><path d="M 189 157 Q 187 163 192 163 Q 194 163 203 160 Q 209 159 215 161 Q 225 168 229 171 L 204 171 Q 203 170 198 170 Q 188 171 178 176" fill="#CCCCCC"/><path d="M 229 171 Q 231 174 227 179 Q 222 184 212 224 Q 204 242 190 249 Q 184 252 180 247 L 189 227 Q 193 225 196 219 Q 203 204 205 183 Q 207 176 204 171" fill="#CCCCCC"/><path d="M 180 247 Q 174 237 166 225 Q 161 217 168 221 Q 185 227 189 227" fill="#CCCCCC"/><path d="M 72 32 L 71 29 Q 71 25 72 24 Q 74 23 79 24 Q 102 29 106 38 Q 108 46 107 50 Q 105 54 102 55 Q 98 55 94 51 Q 87 44 80 38" fill="#0000ff" clip-path="url(#clip-mask-1)" /><path d="M 43 80 L 91 69 Q 97 68 105 71 Q 109 73 109 77 Q 109 78 105 79 Q 72 84 48 93 Q 32 98 22 91 Q 18 88 18 85 Q 19 83 23 83" fill="#0000ff" clip-path="url(#clip-mask-2)" /><path d="M 62 108 L 68 106 Q 85 99 90 99 Q 98 99 99 102 Q 101 104 99 106 Q 99 107 94 108 Q 85 111 77 114 Q 65 119 54 115 Q 47 112 55 109" fill="#0000ff" clip-path="url(#clip-mask-3)" /><path d="M 61 136 L 66 135 Q 85 128 88 128 Q 95 129 97 131 Q 99 133 97 135 Q 96 136 93 137 Q 84 140 76 142 Q 64 147 53 143 Q 46 140 55 137" fill="#0000ff" clip-path="url(#clip-mask-4)" /><path d="M 59 214 L 58 219 Q 56 223 52 217 Q 48 212 47 206 Q 42 184 36 170 Q 33 166 35 164 Q 36 163 39 164 Q 46 165 49 166 L 53 173 Q 54 178 56 197 L 58 207" fill="#0000ff" clip-path="url(#clip-mask-5)" /><path d="M 49 166 Q 70 161 81 154 Q 82 153 83 153 Q 86 152 103 162 Q 108 166 103 172 L 83 168 Q 81 165 75 167 Q 54 171 53 173" fill="#0000ff" clip-path="url(#clip-mask-6)" /><path d="M 103 172 Q 98 177 93 192 L 79 190 Q 81 183 82 177 Q 85 170 83 168" fill="#0000ff" clip-path="url(#clip-mask-7)" /><path d="M 56 197 Q 66 194 77 191 Q 78 190 79 190 L 93 192 Q 98 194 98 196 Q 98 199 95 199 Q 70 203 58 207" fill="#0000ff" clip-path="url(#clip-mask-8)" /><path d="M 156 50 Q 132 58 127 58 Q 126 57 127 55 Q 180 31 180 21 Q 180 18 182 17 Q 186 17 189 18 Q 200 22 204 26 Q 207 29 207 31 Q 206 33 202 34 Q 190 36 166 46" fill="#000080" clip-path="url(#clip-mask-9)" /><path d="M 153 79 Q 144 82 136 84 Q 132 86 127 85 Q 123 84 120 81 Q 116 77 120 76 Q 142 71 161 68 L 175 64 Q 187 61 196 58 Q 211 53 225 61 Q 230 64 229 67 Q 227 69 215 70 Q 190 72 174 75" fill="#000080" clip-path="url(#clip-mask-10)" /><path d="M 172 94 L 172 104 Q 172 124 170 126 Q 167 127 164 124 Q 160 115 161 112 Q 162 105 161 90 L 161 68 Q 161 56 156 50 L 166 46 Q 172 48 176 52 Q 179 55 178 57 Q 176 61 175 64 L 174 75 Q 173 76 173 76 L 173 84" fill="#000080" clip-path="url(#clip-mask-11)" /><path d="M 161 90 Q 160 91 155 97 Q 135 123 113 131 Q 110 132 109 131 Q 107 131 109 128 Q 141 103 153 79 L 161 68" fill="#000080" clip-path="url(#clip-mask-12)" /><path d="M 173 76 Q 204 100 248 113 Q 251 114 251 116 Q 251 117 247 117 Q 230 120 214 120 Q 205 120 200 115 Q 185 100 173 84" fill="#000080" clip-path="url(#clip-mask-13)" /><path d="M 157 151 L 160 156 Q 161 160 157 163 Q 156 165 155 167 Q 138 200 123 215 Q 123 216 122 217 Q 103 234 93 234 Q 90 234 92 231 Q 93 230 95 229 Q 112 213 120 202 Q 120 201 121 201 Q 143 163 142 150 Q 142 149 142 149 L 151 145" fill="#000080" clip-path="url(#clip-mask-14)" /><path d="M 142 149 Q 137 150 131 152 Q 124 155 118 151 Q 112 147 112 145 Q 113 144 115 144 Q 174 132 189 124 Q 193 122 197 124 Q 209 130 210 133 Q 212 136 205 139 L 186 138 Q 185 136 182 137 Q 168 140 151 145" fill="#000080" clip-path="url(#clip-mask-15)" /><path d="M 205 139 Q 198 143 189 157 L 178 176 Q 174 177 171 176 Q 169 173 169 168 Q 169 164 171 163 Q 179 157 186 142 Q 187 139 186 138" fill="#000080" clip-path="url(#clip-mask-16)" /><path d="M 189 157 Q 187 163 192 163 Q 194 163 203 160 Q 209 159 215 161 Q 225 168 229 171 L 204 171 Q 203 170 198 170 Q 188 171 178 176" fill="#000080" clip-path="url(#clip-mask-17)" /><path d="M 229 171 Q 231 174 227 179 Q 222 184 212 224 Q 204 242 190 249 Q 184 252 180 247 L 189 227 Q 193 225 196 219 Q 203 204 205 183 Q 207 176 204 171" fill="#000080" clip-path="url(#clip-mask-18)" /><path d="M 180 247 Q 174 237 166 225 Q 161 217 168 221 Q 185 227 189 227" fill="#000080" clip-path="url(#clip-mask-19)" /><rect x="71" y="23" width="37" height="32" id="rect-1" fill="transparent" stroke="#000000"><animate attributeName="x" from="34" to="71" dur="0.137" begin="0; animate19.end + 1s" id="animate1" fill="freeze"/></rect><rect x="18" y="68" width="91" height="30" id="rect-2" fill="transparent" stroke="#000000"><set attributeName="x" to="-73" begin="0; animate19.end + 1s" /><animate attributeName="x" from="-73" to="18" dur="0.337" begin="animate1.end + 0.5" id="animate2" fill="freeze"/></rect><rect x="47" y="99" width="54" height="20" id="rect-3" fill="transparent" stroke="#000000"><set attributeName="x" to="-7" begin="0; animate19.end + 1s" /><animate attributeName="x" from="-7" to="47" dur="0.200" begin="animate2.end + 0.5" id="animate3" fill="freeze"/></rect><rect x="46" y="128" width="53" height="19" id="rect-4" fill="transparent" stroke="#000000"><set attributeName="x" to="-7" begin="0; animate19.end + 1s" /><animate attributeName="x" from="-7" to="46" dur="0.196" begin="animate3.end + 0.5" id="animate4" fill="freeze"/></rect><rect x="33" y="163" width="26" height="60" id="rect-5" fill="transparent" stroke="#000000"><set attributeName="y" to="103" begin="0; animate19.end + 1s" /><animate attributeName="y" from="103" to="163" dur="0.222" begin="animate4.end + 0.5" id="animate5" fill="freeze"/></rect><rect x="49" y="152" width="59" height="21" id="rect-6" fill="transparent" stroke="#000000"><set attributeName="x" to="-10" begin="0; animate19.end + 1s" /><animate attributeName="x" from="-10" to="49" dur="0.219" begin="animate5.end + 0.5" id="animate6" fill="freeze"/></rect><rect x="79" y="168" width="24" height="24" id="rect-7" fill="transparent" stroke="#000000"><set attributeName="y" to="144" begin="0; animate19.end + 1s" /><animate attributeName="y" from="144" to="168" dur="0.089" begin="animate6.end" id="animate7" fill="freeze"/></rect><rect x="56" y="190" width="42" height="17" id="rect-8" fill="transparent" stroke="#000000"><set attributeName="x" to="14" begin="0; animate19.end + 1s" /><animate attributeName="x" from="14" to="56" dur="0.156" begin="animate7.end + 0.5" id="animate8" fill="freeze"/></rect><rect x="126" y="17" width="81" height="41" id="rect-9" fill="transparent" stroke="#000000"><set attributeName="x" to="207" begin="0; animate19.end + 1s" /><animate attributeName="x" from="207" to="126" dur="0.300" begin="animate8.end + 0.5" id="animate9" fill="freeze"/></rect><rect x="116" y="53" width="114" height="33" id="rect-10" fill="transparent" stroke="#000000"><set attributeName="x" to="2" begin="0; animate19.end + 1s" /><animate attributeName="x" from="2" to="116" dur="0.422" begin="animate9.end + 0.5" id="animate10" fill="freeze"/></rect><rect x="156" y="46" width="23" height="81" id="rect-11" fill="transparent" stroke="#000000"><set attributeName="y" to="-35" begin="0; animate19.end + 1s" /><animate attributeName="y" from="-35" to="46" dur="0.300" begin="animate10.end + 0.5" id="animate11" fill="freeze"/></rect><rect x="107" y="68" width="54" height="64" id="rect-12" fill="transparent" stroke="#000000"><set attributeName="x" to="161" begin="0; animate19.end + 1s" /><animate attributeName="x" from="161" to="107" dur="0.200" begin="animate11.end + 0.5" id="animate12" fill="freeze"/></rect><rect x="173" y="76" width="78" height="44" id="rect-13" fill="transparent" stroke="#000000"><set attributeName="x" to="95" begin="0; animate19.end + 1s" /><animate attributeName="x" from="95" to="173" dur="0.289" begin="animate12.end + 0.5" id="animate13" fill="freeze"/></rect><rect x="90" y="145" width="71" height="89" id="rect-14" fill="transparent" stroke="#000000"><set attributeName="y" to="56" begin="0; animate19.end + 1s" /><animate attributeName="y" from="56" to="145" dur="0.330" begin="animate13.end + 0.5" id="animate14" fill="freeze"/></rect><rect x="112" y="122" width="100" height="33" id="rect-15" fill="transparent" stroke="#000000"><set attributeName="x" to="12" begin="0; animate19.end + 1s" /><animate attributeName="x" from="12" to="112" dur="0.370" begin="animate14.end + 0.5" id="animate15" fill="freeze"/></rect><rect x="169" y="138" width="36" height="39" id="rect-16" fill="transparent" stroke="#000000"><set attributeName="y" to="99" begin="0; animate19.end + 1s" /><animate attributeName="y" from="99" to="138" dur="0.144" begin="animate15.end" id="animate16" fill="freeze"/></rect><rect x="178" y="157" width="51" height="19" id="rect-17" fill="transparent" stroke="#000000"><set attributeName="x" to="127" begin="0; animate19.end + 1s" /><animate attributeName="x" from="127" to="178" dur="0.189" begin="animate16.end" id="animate17" fill="freeze"/></rect><rect x="180" y="171" width="51" height="81" id="rect-18" fill="transparent" stroke="#000000"><set attributeName="y" to="90" begin="0; animate19.end + 1s" /><animate attributeName="y" from="90" to="171" dur="0.300" begin="animate17.end" id="animate18" fill="freeze"/></rect><rect x="161" y="217" width="28" height="30" id="rect-19" fill="transparent" stroke="#000000"><set attributeName="x" to="189" begin="0; animate19.end + 1s" /><animate attributeName="x" from="189" to="161" dur="0.104" begin="animate18.end" id="animate19" fill="freeze"/></rect></svg>