<svg xmlns="http://www.w3.org/2000/svg" xmlns:xlink="http://www.w3.org/1999/xlink" width="270" height="270"><defs><clipPath id="clip-mask-1"><use xlink:href="#rect-1" /></clipPath><clipPath id="clip-mask-2"><use xlink:href="#rect-2" /></clipPath><clipPath id="clip-mask-3"><use xlink:href="#rect-3" /></clipPath><clipPath id="clip-mask-4"><use xlink:href="#rect-4" /></clipPath><clipPath id="clip-mask-5"><use xlink:href="#rect-5" /></clipPath><clipPath id="clip-mask-6"><use xlink:href="#rect-6" /></clipPath><clipPath id="clip-mask-7"><use xlink:href="#rect-7" /></clipPath><clipPath id="clip-mask-8"><use xlink:href="#rect-8" /></clipPath><clipPath id="clip-mask-9"><use xlink:href="#rect-9" /></clipPath><clipPath id="clip-mask-10"><use xlink:href="#rect-10" /></clipPath><clipPath id="clip-mask-11"><use xlink:href="#rect-11" /></clipPath><clipPath id="clip-mask-12"><use xlink:href="#rect-12" /></clipPath><clipPath id="clip-mask-13"><use xlink:href="#rect-13" /></clipPath><clipPath id="clip-mask-14"><use xlink:href="#rect-14" /></clipPath><clipPath id="clip-mask-15"><use xlink:href="#rect-15" /></clipPath><clipPath id="clip-mask-16"><use xlink:href="#rect-16" /></clipPath><clipPath id="clip-mask-17"><use xlink:href="#rect-17" /></clipPath><clipPath id="clip-mask-18"><use xlink:href="#rect-18" /></clipPath></defs><path d="M 0 0 L 270 270 M 270 0 L 0 270 M 135 0 L 135 270 M 0 135 L 270 135" stroke="#CCCCCC" /><path d="M 75 47 L 74 44 Q 73 40 75 39 Q 77 38 81 39 Q 103 43 106 51 Q 109 59 108 63 Q 107 67 104 68 Q 99 68 95 64 Q 88 58 83 52" fill="#CCCCCC"/><path d="M 41 98 L 90 85 Q 96 83 104 86 Q 109 88 109 92 Q 109 93 104 95 Q 67 101 42 111 Q 25 117 16 110 Q 11 107 12 105 Q 13 102 16 102" fill="#CCCCCC"/><path d="M 62 124 L 68 123 Q 88 115 91 115 Q 99 116 101 118 Q 102 120 100 122 Q 99 123 95 125 Q 85 128 76 131 Q 64 136 53 132 Q 46 129 55 126" fill="#CCCCCC"/><path d="M 61 150 L 66 148 Q 86 141 90 141 Q 98 142 99 144 Q 101 146 99 148 Q 98 149 94 150 Q 86 153 80 155 Q 61 160 52 157 Q 45 154 54 151" fill="#CCCCCC"/><path d="M 55 221 L 55 221 Q 56 232 55 237 Q 53 241 49 235 Q 44 230 44 223 Q 41 199 34 184 Q 32 179 34 178 Q 35 177 38 178 Q 45 179 48 181 L 51 188 Q 51 194 54 211 L 55 220" fill="#CCCCCC"/><path d="M 48 181 Q 72 174 80 169 Q 83 167 85 167 Q 86 168 102 176 Q 108 180 102 187 L 82 183 Q 81 181 74 182 Q 51 188 51 188" fill="#CCCCCC"/><path d="M 102 187 Q 97 191 92 206 L 79 204 Q 81 197 82 191 Q 84 184 82 183" fill="#CCCCCC"/><path d="M 54 211 Q 64 209 77 205 Q 78 204 79 204 L 92 206 Q 98 209 98 211 Q 97 214 95 214 Q 60 217 55 220" fill="#CCCCCC"/><path d="M 152 36 L 151 32 Q 151 29 152 28 Q 154 27 159 28 Q 184 34 187 43 Q 189 52 188 56 Q 186 60 183 60 Q 178 60 174 56 Q 167 49 160 42" fill="#CCCCCC"/><path d="M 128 99 L 125 109 Q 121 120 119 121 Q 117 123 115 120 Q 113 117 112 112 Q 111 107 114 103 Q 120 88 119 80 Q 120 77 121 76 Q 122 76 123 77 Q 128 79 131 85 L 131 93" fill="#CCCCCC"/><path d="M 131 85 Q 131 85 131 85 Q 140 84 150 81 Q 190 71 200 70 Q 222 63 229 69 L 212 77 Q 209 77 200 78 Q 154 90 151 91 Q 138 95 131 93" fill="#CCCCCC"/><path d="M 229 69 Q 247 82 248 85 Q 248 88 238 90 Q 226 93 212 103 Q 207 106 205 105 Q 204 104 213 85 Q 215 82 215 81 Q 215 78 212 77" fill="#CCCCCC"/><path d="M 136 182 L 136 162 Q 135 137 131 127 Q 130 124 132 123 Q 134 122 137 123 Q 141 124 145 127 L 150 136 Q 149 141 149 159 L 148 166 Q 148 178 147 190 L 147 198 Q 147 210 147 224 L 136 226" fill="#CCCCCC"/><path d="M 145 127 Q 149 126 170 120 Q 190 112 194 114 Q 208 122 210 125 L 188 126 Q 186 125 183 126 Q 162 130 150 136" fill="#CCCCCC"/><path d="M 189 219 Q 189 130 188 126 L 210 125 Q 214 129 211 133 Q 204 142 204 217" fill="#CCCCCC"/><path d="M 149 159 Q 163 152 172 153 Q 178 153 181 157 Q 183 160 177 161 Q 165 163 148 166" fill="#CCCCCC"/><path d="M 147 190 Q 160 184 172 184 Q 179 185 182 189 Q 184 193 178 194 Q 166 195 149 198 Q 148 198 147 198" fill="#CCCCCC"/><path d="M 147 224 Q 158 223 169 222 Q 179 220 189 219 L 204 217 Q 214 214 223 213 Q 237 210 253 221 Q 258 225 256 228 Q 255 230 249 230 Q 244 230 240 230 Q 155 230 112 241 Q 107 242 102 241 Q 97 239 93 235 Q 89 230 95 230 Q 116 227 136 226" fill="#CCCCCC"/><path d="M 75 47 L 74 44 Q 73 40 75 39 Q 77 38 81 39 Q 103 43 106 51 Q 109 59 108 63 Q 107 67 104 68 Q 99 68 95 64 Q 88 58 83 52" fill="#0000ff" clip-path="url(#clip-mask-1)" /><path d="M 41 98 L 90 85 Q 96 83 104 86 Q 109 88 109 92 Q 109 93 104 95 Q 67 101 42 111 Q 25 117 16 110 Q 11 107 12 105 Q 13 102 16 102" fill="#0000ff" clip-path="url(#clip-mask-2)" /><path d="M 62 124 L 68 123 Q 88 115 91 115 Q 99 116 101 118 Q 102 120 100 122 Q 99 123 95 125 Q 85 128 76 131 Q 64 136 53 132 Q 46 129 55 126" fill="#0000ff" clip-path="url(#clip-mask-3)" /><path d="M 61 150 L 66 148 Q 86 141 90 141 Q 98 142 99 144 Q 101 146 99 148 Q 98 149 94 150 Q 86 153 80 155 Q 61 160 52 157 Q 45 154 54 151" fill="#0000ff" clip-path="url(#clip-mask-4)" /><path d="M 55 221 L 55 221 Q 56 232 55 237 Q 53 241 49 235 Q 44 230 44 223 Q 41 199 34 184 Q 32 179 34 178 Q 35 177 38 178 Q 45 179 48 181 L 51 188 Q 51 194 54 211 L 55 220" fill="#0000ff" clip-path="url(#clip-mask-5)" /><path d="M 48 181 Q 72 174 80 169 Q 83 167 85 167 Q 86 168 102 176 Q 108 180 102 187 L 82 183 Q 81 181 74 182 Q 51 188 51 188" fill="#0000ff" clip-path="url(#clip-mask-6)" /><path d="M 102 187 Q 97 191 92 206 L 79 204 Q 81 197 82 191 Q 84 184 82 183" fill="#0000ff" clip-path="url(#clip-mask-7)" /><path d="M 54 211 Q 64 209 77 205 Q 78 204 79 204 L 92 206 Q 98 209 98 211 Q 97 214 95 214 Q 60 217 55 220" fill="#0000ff" clip-path="url(#clip-mask-8)" /><path d="M 152 36 L 151 32 Q 151 29 152 28 Q 154 27 159 28 Q 184 34 187 43 Q 189 52 188 56 Q 186 60 183 60 Q 178 60 174 56 Q 167 49 160 42" fill="#000080" clip-path="url(#clip-mask-9)" /><path d="M 128 99 L 125 109 Q 121 120 119 121 Q 117 123 115 120 Q 113 117 112 112 Q 111 107 114 103 Q 120 88 119 80 Q 120 77 121 76 Q 122 76 123 77 Q 128 79 131 85 L 131 93" fill="#000080" clip-path="url(#clip-mask-10)" /><path d="M 131 85 Q 131 85 131 85 Q 140 84 150 81 Q 190 71 200 70 Q 222 63 229 69 L 212 77 Q 209 77 200 78 Q 154 90 151 91 Q 138 95 131 93" fill="#000080" clip-path="url(#clip-mask-11)" /><path d="M 229 69 Q 247 82 248 85 Q 248 88 238 90 Q 226 93 212 103 Q 207 106 205 105 Q 204 104 213 85 Q 215 82 215 81 Q 215 78 212 77" fill="#000080" clip-path="url(#clip-mask-12)" /><path d="M 136 182 L 136 162 Q 135 137 131 127 Q 130 124 132 123 Q 134 122 137 123 Q 141 124 145 127 L 150 136 Q 149 141 149 159 L 148 166 Q 148 178 147 190 L 147 198 Q 147 210 147 224 L 136 226" fill="#000080" clip-path="url(#clip-mask-13)" /><path d="M 145 127 Q 149 126 170 120 Q 190 112 194 114 Q 208 122 210 125 L 188 126 Q 186 125 183 126 Q 162 130 150 136" fill="#000080" clip-path="url(#clip-mask-14)" /><path d="M 189 219 Q 189 130 188 126 L 210 125 Q 214 129 211 133 Q 204 142 204 217" fill="#000080" clip-path="url(#clip-mask-15)" /><path d="M 149 159 Q 163 152 172 153 Q 178 153 181 157 Q 183 160 177 161 Q 165 163 148 166" fill="#000080" clip-path="url(#clip-mask-16)" /><path d="M 147 190 Q 160 184 172 184 Q 179 185 182 189 Q 184 193 178 194 Q 166 195 149 198 Q 148 198 147 198" fill="#000080" clip-path="url(#clip-mask-17)" /><path d="M 147 224 Q 158 223 169 222 Q 179 220 189 219 L 204 217 Q 214 214 223 213 Q 237 210 253 221 Q 258 225 256 228 Q 255 230 249 230 Q 244 230 240 230 Q 155 230 112 241 Q 107 242 102 241 Q 97 239 93 235 Q 89 230 95 230 Q 116 227 136 226" fill="#000080" clip-path="url(#clip-mask-18)" /><rect x="73" y="38" width="36" height="30" id="rect-1" fill="transparent" stroke="#000000"><animate attributeName="x" from="37" to="73" dur="0.133" begin="0; animate18.end + 1s" id="animate1" fill="freeze"/></rect><rect x="11" y="83" width="98" height="34" id="rect-2" fill="transparent" stroke="#000000"><set attributeName="x" to="-87" begin="0; animate18.end + 1s" /><animate attributeName="x" from="-87" to="11" dur="0.363" begin="animate1.end + 0.5" id="animate2" fill="freeze"/></rect><rect x="46" y="115" width="56" height="21" id="rect-3" fill="transparent" stroke="#000000"><set attributeName="x" to="-10" begin="0; animate18.end + 1s" /><animate attributeName="x" from="-10" to="46" dur="0.207" begin="animate2.end + 0.5" id="animate3" fill="freeze"/></rect><rect x="45" y="141" width="56" height="19" id="rect-4" fill="transparent" stroke="#000000"><set attributeName="x" to="-11" begin="0; animate18.end + 1s" /><animate attributeName="x" from="-11" to="45" dur="0.207" begin="animate3.end + 0.5" id="animate4" fill="freeze"/></rect><rect x="32" y="177" width="24" height="64" id="rect-5" fill="transparent" stroke="#000000"><set attributeName="y" to="113" begin="0; animate18.end + 1s" /><animate attributeName="y" from="113" to="177" dur="0.237" begin="animate4.end + 0.5" id="animate5" fill="freeze"/></rect><rect x="48" y="167" width="60" height="21" id="rect-6" fill="transparent" stroke="#000000"><set attributeName="x" to="-12" begin="0; animate18.end + 1s" /><animate attributeName="x" from="-12" to="48" dur="0.222" begin="animate5.end + 0.5" id="animate6" fill="freeze"/></rect><rect x="79" y="183" width="23" height="23" id="rect-7" fill="transparent" stroke="#000000"><set attributeName="y" to="160" begin="0; animate18.end + 1s" /><animate attributeName="y" from="160" to="183" dur="0.085" begin="animate6.end" id="animate7" fill="freeze"/></rect><rect x="54" y="204" width="44" height="16" id="rect-8" fill="transparent" stroke="#000000"><set attributeName="x" to="10" begin="0; animate18.end + 1s" /><animate attributeName="x" from="10" to="54" dur="0.163" begin="animate7.end + 0.5" id="animate8" fill="freeze"/></rect><rect x="151" y="27" width="38" height="33" id="rect-9" fill="transparent" stroke="#000000"><set attributeName="x" to="113" begin="0; animate18.end + 1s" /><animate attributeName="x" from="113" to="151" dur="0.141" begin="animate8.end + 0.5" id="animate9" fill="freeze"/></rect><rect x="111" y="76" width="20" height="47" id="rect-10" fill="transparent" stroke="#000000"><set attributeName="y" to="29" begin="0; animate18.end + 1s" /><animate attributeName="y" from="29" to="76" dur="0.174" begin="animate9.end + 0.5" id="animate10" fill="freeze"/></rect><rect x="131" y="63" width="98" height="32" id="rect-11" fill="transparent" stroke="#000000"><set attributeName="x" to="33" begin="0; animate18.end + 1s" /><animate attributeName="x" from="33" to="131" dur="0.363" begin="animate10.end + 0.5" id="animate11" fill="freeze"/></rect><rect x="204" y="69" width="44" height="37" id="rect-12" fill="transparent" stroke="#000000"><set attributeName="y" to="32" begin="0; animate18.end + 1s" /><animate attributeName="y" from="32" to="69" dur="0.137" begin="animate11.end" id="animate12" fill="freeze"/></rect><rect x="130" y="122" width="20" height="104" id="rect-13" fill="transparent" stroke="#000000"><set attributeName="y" to="18" begin="0; animate18.end + 1s" /><animate attributeName="y" from="18" to="122" dur="0.385" begin="animate12.end + 0.5" id="animate13" fill="freeze"/></rect><rect x="145" y="112" width="65" height="24" id="rect-14" fill="transparent" stroke="#000000"><set attributeName="x" to="80" begin="0; animate18.end + 1s" /><animate attributeName="x" from="80" to="145" dur="0.241" begin="animate13.end + 0.5" id="animate14" fill="freeze"/></rect><rect x="188" y="125" width="26" height="94" id="rect-15" fill="transparent" stroke="#000000"><set attributeName="y" to="31" begin="0; animate18.end + 1s" /><animate attributeName="y" from="31" to="125" dur="0.348" begin="animate14.end" id="animate15" fill="freeze"/></rect><rect x="148" y="152" width="35" height="14" id="rect-16" fill="transparent" stroke="#000000"><set attributeName="x" to="113" begin="0; animate18.end + 1s" /><animate attributeName="x" from="113" to="148" dur="0.130" begin="animate15.end + 0.5" id="animate16" fill="freeze"/></rect><rect x="147" y="184" width="37" height="14" id="rect-17" fill="transparent" stroke="#000000"><set attributeName="x" to="110" begin="0; animate18.end + 1s" /><animate attributeName="x" from="110" to="147" dur="0.137" begin="animate16.end + 0.5" id="animate17" fill="freeze"/></rect><rect x="89" y="210" width="169" height="32" id="rect-18" fill="transparent" stroke="#000000"><set attributeName="x" to="-80" begin="0; animate18.end + 1s" /><animate attributeName="x" from="-80" to="89" dur="0.626" begin="animate17.end + 0.5" id="animate18" fill="freeze"/></rect></svg>