<svg xmlns="http://www.w3.org/2000/svg" xmlns:xlink="http://www.w3.org/1999/xlink" width="270" height="270"><defs><clipPath id="clip-mask-1"><use xlink:href="#rect-1" /></clipPath><clipPath id="clip-mask-2"><use xlink:href="#rect-2" /></clipPath><clipPath id="clip-mask-3"><use xlink:href="#rect-3" /></clipPath><clipPath id="clip-mask-4"><use xlink:href="#rect-4" /></clipPath><clipPath id="clip-mask-5"><use xlink:href="#rect-5" /></clipPath><clipPath id="clip-mask-6"><use xlink:href="#rect-6" /></clipPath><clipPath id="clip-mask-7"><use xlink:href="#rect-7" /></clipPath><clipPath id="clip-mask-8"><use xlink:href="#rect-8" /></clipPath><clipPath id="clip-mask-9"><use xlink:href="#rect-9" /></clipPath><clipPath id="clip-mask-10"><use xlink:href="#rect-10" /></clipPath><clipPath id="clip-mask-11"><use xlink:href="#rect-11" /></clipPath><clipPath id="clip-mask-12"><use xlink:href="#rect-12" /></clipPath><clipPath id="clip-mask-13"><use xlink:href="#rect-13" /></clipPath><clipPath id="clip-mask-14"><use xlink:href="#rect-14" /></clipPath><clipPath id="clip-mask-15"><use xlink:href="#rect-15" /></clipPath><clipPath id="clip-mask-16"><use xlink:href="#rect-16" /></clipPath><clipPath id="clip-mask-17"><use xlink:href="#rect-17" /></clipPath><clipPath id="clip-mask-18"><use xlink:href="#rect-18" /></clipPath><clipPath id="clip-mask-19"><use xlink:href="#rect-19" /></clipPath><clipPath id="clip-mask-20"><use xlink:href="#rect-20" /></clipPath><clipPath id="clip-mask-21"><use xlink:href="#rect-21" /></clipPath><clipPath id="clip-mask-22"><use xlink:href="#rect-22" /></clipPath><clipPath id="clip-mask-23"><use xlink:href="#rect-23" /></clipPath><clipPath id="clip-mask-24"><use xlink:href="#rect-24" /></clipPath><clipPath id="clip-mask-25"><use xlink:href="#rect-25" /></clipPath></defs><path d="M 0 0 L 270 270 M 270 0 L 0 270 M 135 0 L 135 270 M 0 135 L 270 135" stroke="#CCCCCC" /><path d="M 67 45 L 66 42 Q 66 38 67 37 Q 71 36 89 41 Q 96 44 97 49 Q 100 57 99 61 Q 98 65 94 65 Q 90 65 86 62 Q 81 56 75 51" fill="#CCCCCC"/><path d="M 44 93 L 95 78 Q 101 76 107 78 Q 112 80 112 83 Q 112 85 108 86 Q 73 93 41 107 Q 27 111 19 106 Q 15 103 15 101 Q 16 98 19 98" fill="#CCCCCC"/><path d="M 60 117 L 64 116 Q 81 110 83 110 Q 89 111 91 113 Q 93 115 91 117 Q 90 117 87 118 Q 80 121 74 123 Q 62 127 53 123 Q 47 121 54 118" fill="#CCCCCC"/><path d="M 61 143 L 66 142 Q 81 136 84 136 Q 90 137 92 139 Q 94 141 92 143 Q 92 143 88 144 Q 86 145 84 146 Q 64 153 55 149 Q 49 147 56 144" fill="#CCCCCC"/><path d="M 55 224 L 54 228 Q 53 232 49 227 Q 45 223 45 216 Q 40 195 34 182 Q 32 178 33 177 Q 34 176 37 176 Q 42 177 46 178 L 50 185 Q 50 190 54 211 L 55 218" fill="#CCCCCC"/><path d="M 46 178 Q 57 174 67 170 Q 79 163 83 165 Q 90 169 95 171 L 77 179 Q 75 177 71 178 Q 57 182 50 185" fill="#CCCCCC"/><path d="M 95 171 Q 100 174 95 181 Q 90 186 87 203 L 74 203 Q 76 194 77 187 Q 79 180 77 179" fill="#CCCCCC"/><path d="M 54 211 Q 63 208 74 203 L 74 203 L 87 203 Q 92 205 92 207 Q 92 209 89 209 Q 69 214 59 217 Q 57 218 55 218" fill="#CCCCCC"/><path d="M 114 111 Q 112 113 109 111 Q 107 108 106 104 Q 105 102 108 99 Q 110 96 113 94 Q 130 65 125 55 Q 124 52 126 52 Q 129 51 133 53 Q 140 59 141 61 Q 141 63 139 66 Q 130 79 119 100" fill="#CCCCCC"/><path d="M 135 103 Q 133 103 132 103 Q 118 108 114 111 L 119 100 Q 130 98 138 97" fill="#CCCCCC"/><path d="M 119 144 Q 116 147 114 145 Q 109 141 108 138 Q 108 135 110 133 Q 114 131 133 107 Q 134 104 135 103 L 138 97 Q 142 85 142 84 Q 142 81 143 81 Q 145 80 149 82 Q 155 86 157 90 Q 159 92 156 93 Q 147 101 123 131" fill="#CCCCCC"/><path d="M 129 137 L 119 144 L 123 131 Q 138 127 147 125 L 148 129" fill="#CCCCCC"/><path d="M 147 125 Q 145 119 146 118 Q 147 116 148 117 Q 151 119 156 126 Q 159 130 159 135 Q 159 138 158 140 Q 155 142 154 141 Q 151 140 148 129" fill="#CCCCCC"/><path d="M 186 93 Q 184 95 182 93 Q 179 90 178 87 Q 177 85 181 82 Q 186 76 188 71 Q 198 45 195 39 Q 193 36 195 36 Q 198 35 202 37 Q 210 42 210 44 Q 211 46 209 49 Q 201 62 192 82" fill="#CCCCCC"/><path d="M 206 87 Q 205 86 205 87 Q 190 91 186 93 L 192 82 Q 202 82 209 82" fill="#CCCCCC"/><path d="M 192 124 Q 189 126 187 124 Q 182 120 181 117 Q 181 115 184 113 Q 188 111 206 87 L 209 82 Q 216 69 216 64 Q 215 61 217 60 Q 219 59 222 61 Q 229 65 231 69 Q 232 71 230 73 Q 221 80 197 112" fill="#CCCCCC"/><path d="M 221 112 L 221 112 Q 204 116 192 124 L 197 112 Q 213 108 221 108 L 222 112" fill="#CCCCCC"/><path d="M 221 108 Q 219 99 220 97 Q 221 96 222 97 Q 232 105 233 112 Q 233 116 231 118 Q 229 120 227 119 Q 225 119 222 112" fill="#CCCCCC"/><path d="M 175 156 Q 154 161 138 167 L 124 171 Q 122 171 121 172 Q 112 174 105 169 Q 100 166 106 165 Q 116 162 125 161 L 141 157 Q 155 153 172 149 Q 172 148 173 148 L 183 145 Q 186 144 189 143 Q 211 134 219 138 Q 224 140 224 143 Q 222 146 220 146 Q 186 153 185 153" fill="#CCCCCC"/><path d="M 138 167 Q 137 168 137 170 Q 136 174 135 179 L 134 184 Q 129 206 115 217 Q 102 230 91 230 Q 88 229 91 227 Q 98 223 102 219 Q 124 200 124 171 L 125 161 Q 124 157 123 153 Q 121 150 124 149 Q 128 148 132 151 Q 140 154 141 157" fill="#CCCCCC"/><path d="M 135 179 Q 136 179 138 179 Q 157 185 159 191 Q 160 196 159 199 Q 158 201 156 202 Q 154 202 139 187 Q 135 185 134 184" fill="#CCCCCC"/><path d="M 183 180 L 175 156 L 173 148 Q 173 148 173 147 Q 163 109 156 39 Q 156 31 144 21 Q 142 16 147 14 Q 152 12 161 16 Q 175 22 171 32 Q 165 75 183 145 L 185 153 Q 192 176 200 189 L 207 201 Q 224 227 233 227 L 251 249 Q 252 256 247 257 Q 240 257 225 244 Q 209 229 197 210 L 191 199" fill="#CCCCCC"/><path d="M 233 227 Q 236 227 240 219 Q 243 211 247 202 Q 249 197 251 197 Q 253 197 253 203 Q 250 237 251 249" fill="#CCCCCC"/><path d="M 200 189 Q 210 173 211 162 Q 211 159 215 159 Q 217 158 222 163 Q 228 168 229 171 Q 230 173 227 175 Q 223 179 220 184 Q 213 193 207 201 L 197 210 Q 180 224 155 229 Q 152 230 150 228 Q 149 228 151 226 Q 178 211 191 199" fill="#CCCCCC"/><path d="M 228 131 L 228 129 Q 228 126 229 126 Q 233 125 247 133 Q 253 137 253 141 Q 254 148 252 150 Q 251 153 249 152 Q 246 152 244 149 Q 238 142 233 136" fill="#CCCCCC"/><path d="M 67 45 L 66 42 Q 66 38 67 37 Q 71 36 89 41 Q 96 44 97 49 Q 100 57 99 61 Q 98 65 94 65 Q 90 65 86 62 Q 81 56 75 51" fill="#0000ff" clip-path="url(#clip-mask-1)" /><path d="M 44 93 L 95 78 Q 101 76 107 78 Q 112 80 112 83 Q 112 85 108 86 Q 73 93 41 107 Q 27 111 19 106 Q 15 103 15 101 Q 16 98 19 98" fill="#0000ff" clip-path="url(#clip-mask-2)" /><path d="M 60 117 L 64 116 Q 81 110 83 110 Q 89 111 91 113 Q 93 115 91 117 Q 90 117 87 118 Q 80 121 74 123 Q 62 127 53 123 Q 47 121 54 118" fill="#0000ff" clip-path="url(#clip-mask-3)" /><path d="M 61 143 L 66 142 Q 81 136 84 136 Q 90 137 92 139 Q 94 141 92 143 Q 92 143 88 144 Q 86 145 84 146 Q 64 153 55 149 Q 49 147 56 144" fill="#0000ff" clip-path="url(#clip-mask-4)" /><path d="M 55 224 L 54 228 Q 53 232 49 227 Q 45 223 45 216 Q 40 195 34 182 Q 32 178 33 177 Q 34 176 37 176 Q 42 177 46 178 L 50 185 Q 50 190 54 211 L 55 218" fill="#0000ff" clip-path="url(#clip-mask-5)" /><path d="M 46 178 Q 57 174 67 170 Q 79 163 83 165 Q 90 169 95 171 L 77 179 Q 75 177 71 178 Q 57 182 50 185" fill="#0000ff" clip-path="url(#clip-mask-6)" /><path d="M 95 171 Q 100 174 95 181 Q 90 186 87 203 L 74 203 Q 76 194 77 187 Q 79 180 77 179" fill="#0000ff" clip-path="url(#clip-mask-7)" /><path d="M 54 211 Q 63 208 74 203 L 74 203 L 87 203 Q 92 205 92 207 Q 92 209 89 209 Q 69 214 59 217 Q 57 218 55 218" fill="#0000ff" clip-path="url(#clip-mask-8)" /><path d="M 114 111 Q 112 113 109 111 Q 107 108 106 104 Q 105 102 108 99 Q 110 96 113 94 Q 130 65 125 55 Q 124 52 126 52 Q 129 51 133 53 Q 140 59 141 61 Q 141 63 139 66 Q 130 79 119 100" fill="#000080" clip-path="url(#clip-mask-9)" /><path d="M 135 103 Q 133 103 132 103 Q 118 108 114 111 L 119 100 Q 130 98 138 97" fill="#000080" clip-path="url(#clip-mask-10)" /><path d="M 119 144 Q 116 147 114 145 Q 109 141 108 138 Q 108 135 110 133 Q 114 131 133 107 Q 134 104 135 103 L 138 97 Q 142 85 142 84 Q 142 81 143 81 Q 145 80 149 82 Q 155 86 157 90 Q 159 92 156 93 Q 147 101 123 131" fill="#000080" clip-path="url(#clip-mask-11)" /><path d="M 129 137 L 119 144 L 123 131 Q 138 127 147 125 L 148 129" fill="#000080" clip-path="url(#clip-mask-12)" /><path d="M 147 125 Q 145 119 146 118 Q 147 116 148 117 Q 151 119 156 126 Q 159 130 159 135 Q 159 138 158 140 Q 155 142 154 141 Q 151 140 148 129" fill="#000080" clip-path="url(#clip-mask-13)" /><path d="M 186 93 Q 184 95 182 93 Q 179 90 178 87 Q 177 85 181 82 Q 186 76 188 71 Q 198 45 195 39 Q 193 36 195 36 Q 198 35 202 37 Q 210 42 210 44 Q 211 46 209 49 Q 201 62 192 82" fill="#000080" clip-path="url(#clip-mask-14)" /><path d="M 206 87 Q 205 86 205 87 Q 190 91 186 93 L 192 82 Q 202 82 209 82" fill="#000080" clip-path="url(#clip-mask-15)" /><path d="M 192 124 Q 189 126 187 124 Q 182 120 181 117 Q 181 115 184 113 Q 188 111 206 87 L 209 82 Q 216 69 216 64 Q 215 61 217 60 Q 219 59 222 61 Q 229 65 231 69 Q 232 71 230 73 Q 221 80 197 112" fill="#000080" clip-path="url(#clip-mask-16)" /><path d="M 221 112 L 221 112 Q 204 116 192 124 L 197 112 Q 213 108 221 108 L 222 112" fill="#000080" clip-path="url(#clip-mask-17)" /><path d="M 221 108 Q 219 99 220 97 Q 221 96 222 97 Q 232 105 233 112 Q 233 116 231 118 Q 229 120 227 119 Q 225 119 222 112" fill="#000080" clip-path="url(#clip-mask-18)" /><path d="M 175 156 Q 154 161 138 167 L 124 171 Q 122 171 121 172 Q 112 174 105 169 Q 100 166 106 165 Q 116 162 125 161 L 141 157 Q 155 153 172 149 Q 172 148 173 148 L 183 145 Q 186 144 189 143 Q 211 134 219 138 Q 224 140 224 143 Q 222 146 220 146 Q 186 153 185 153" fill="#000080" clip-path="url(#clip-mask-19)" /><path d="M 138 167 Q 137 168 137 170 Q 136 174 135 179 L 134 184 Q 129 206 115 217 Q 102 230 91 230 Q 88 229 91 227 Q 98 223 102 219 Q 124 200 124 171 L 125 161 Q 124 157 123 153 Q 121 150 124 149 Q 128 148 132 151 Q 140 154 141 157" fill="#000080" clip-path="url(#clip-mask-20)" /><path d="M 135 179 Q 136 179 138 179 Q 157 185 159 191 Q 160 196 159 199 Q 158 201 156 202 Q 154 202 139 187 Q 135 185 134 184" fill="#000080" clip-path="url(#clip-mask-21)" /><path d="M 183 180 L 175 156 L 173 148 Q 173 148 173 147 Q 163 109 156 39 Q 156 31 144 21 Q 142 16 147 14 Q 152 12 161 16 Q 175 22 171 32 Q 165 75 183 145 L 185 153 Q 192 176 200 189 L 207 201 Q 224 227 233 227 L 251 249 Q 252 256 247 257 Q 240 257 225 244 Q 209 229 197 210 L 191 199" fill="#000080" clip-path="url(#clip-mask-22)" /><path d="M 233 227 Q 236 227 240 219 Q 243 211 247 202 Q 249 197 251 197 Q 253 197 253 203 Q 250 237 251 249" fill="#000080" clip-path="url(#clip-mask-23)" /><path d="M 200 189 Q 210 173 211 162 Q 211 159 215 159 Q 217 158 222 163 Q 228 168 229 171 Q 230 173 227 175 Q 223 179 220 184 Q 213 193 207 201 L 197 210 Q 180 224 155 229 Q 152 230 150 228 Q 149 228 151 226 Q 178 211 191 199" fill="#000080" clip-path="url(#clip-mask-24)" /><path d="M 228 131 L 228 129 Q 228 126 229 126 Q 233 125 247 133 Q 253 137 253 141 Q 254 148 252 150 Q 251 153 249 152 Q 246 152 244 149 Q 238 142 233 136" fill="#000080" clip-path="url(#clip-mask-25)" /><rect x="66" y="36" width="34" height="29" id="rect-1" fill="transparent" stroke="#000000"><animate attributeName="x" from="32" to="66" dur="0.126" begin="0; animate25.end + 1s" id="animate1" fill="freeze"/></rect><rect x="15" y="76" width="97" height="35" id="rect-2" fill="transparent" stroke="#000000"><set attributeName="x" to="-82" begin="0; animate25.end + 1s" /><animate attributeName="x" from="-82" to="15" dur="0.359" begin="animate1.end + 0.5" id="animate2" fill="freeze"/></rect><rect x="47" y="110" width="46" height="17" id="rect-3" fill="transparent" stroke="#000000"><set attributeName="x" to="1" begin="0; animate25.end + 1s" /><animate attributeName="x" from="1" to="47" dur="0.170" begin="animate2.end + 0.5" id="animate3" fill="freeze"/></rect><rect x="49" y="136" width="45" height="17" id="rect-4" fill="transparent" stroke="#000000"><set attributeName="x" to="4" begin="0; animate25.end + 1s" /><animate attributeName="x" from="4" to="49" dur="0.167" begin="animate3.end + 0.5" id="animate4" fill="freeze"/></rect><rect x="32" y="176" width="23" height="56" id="rect-5" fill="transparent" stroke="#000000"><set attributeName="y" to="120" begin="0; animate25.end + 1s" /><animate attributeName="y" from="120" to="176" dur="0.207" begin="animate4.end + 0.5" id="animate5" fill="freeze"/></rect><rect x="46" y="163" width="49" height="22" id="rect-6" fill="transparent" stroke="#000000"><set attributeName="x" to="-3" begin="0; animate25.end + 1s" /><animate attributeName="x" from="-3" to="46" dur="0.181" begin="animate5.end + 0.5" id="animate6" fill="freeze"/></rect><rect x="74" y="171" width="26" height="32" id="rect-7" fill="transparent" stroke="#000000"><set attributeName="y" to="139" begin="0; animate25.end + 1s" /><animate attributeName="y" from="139" to="171" dur="0.119" begin="animate6.end" id="animate7" fill="freeze"/></rect><rect x="54" y="203" width="38" height="15" id="rect-8" fill="transparent" stroke="#000000"><set attributeName="x" to="16" begin="0; animate25.end + 1s" /><animate attributeName="x" from="16" to="54" dur="0.141" begin="animate7.end + 0.5" id="animate8" fill="freeze"/></rect><rect x="105" y="51" width="36" height="62" id="rect-9" fill="transparent" stroke="#000000"><set attributeName="y" to="-11" begin="0; animate25.end + 1s" /><animate attributeName="y" from="-11" to="51" dur="0.230" begin="animate8.end + 0.5" id="animate9" fill="freeze"/></rect><rect x="114" y="97" width="24" height="14" id="rect-10" fill="transparent" stroke="#000000"><set attributeName="x" to="90" begin="0; animate25.end + 1s" /><animate attributeName="x" from="90" to="114" dur="0.089" begin="animate9.end" id="animate10" fill="freeze"/></rect><rect x="108" y="80" width="51" height="67" id="rect-11" fill="transparent" stroke="#000000"><set attributeName="y" to="13" begin="0; animate25.end + 1s" /><animate attributeName="y" from="13" to="80" dur="0.248" begin="animate10.end + 0.5" id="animate11" fill="freeze"/></rect><rect x="119" y="125" width="29" height="19" id="rect-12" fill="transparent" stroke="#000000"><set attributeName="x" to="90" begin="0; animate25.end + 1s" /><animate attributeName="x" from="90" to="119" dur="0.107" begin="animate11.end" id="animate12" fill="freeze"/></rect><rect x="145" y="116" width="14" height="26" id="rect-13" fill="transparent" stroke="#000000"><set attributeName="y" to="90" begin="0; animate25.end + 1s" /><animate attributeName="y" from="90" to="116" dur="0.096" begin="animate12.end + 0.5" id="animate13" fill="freeze"/></rect><rect x="177" y="35" width="34" height="60" id="rect-14" fill="transparent" stroke="#000000"><set attributeName="y" to="-25" begin="0; animate25.end + 1s" /><animate attributeName="y" from="-25" to="35" dur="0.222" begin="animate13.end + 0.5" id="animate14" fill="freeze"/></rect><rect x="186" y="82" width="23" height="11" id="rect-15" fill="transparent" stroke="#000000"><set attributeName="x" to="163" begin="0; animate25.end + 1s" /><animate attributeName="x" from="163" to="186" dur="0.085" begin="animate14.end" id="animate15" fill="freeze"/></rect><rect x="181" y="59" width="51" height="67" id="rect-16" fill="transparent" stroke="#000000"><set attributeName="y" to="-8" begin="0; animate25.end + 1s" /><animate attributeName="y" from="-8" to="59" dur="0.248" begin="animate15.end + 0.5" id="animate16" fill="freeze"/></rect><rect x="192" y="108" width="30" height="16" id="rect-17" fill="transparent" stroke="#000000"><set attributeName="x" to="162" begin="0; animate25.end + 1s" /><animate attributeName="x" from="162" to="192" dur="0.111" begin="animate16.end" id="animate17" fill="freeze"/></rect><rect x="219" y="96" width="14" height="24" id="rect-18" fill="transparent" stroke="#000000"><set attributeName="y" to="72" begin="0; animate25.end + 1s" /><animate attributeName="y" from="72" to="96" dur="0.089" begin="animate17.end + 0.5" id="animate18" fill="freeze"/></rect><rect x="100" y="134" width="124" height="40" id="rect-19" fill="transparent" stroke="#000000"><set attributeName="x" to="-24" begin="0; animate25.end + 1s" /><animate attributeName="x" from="-24" to="100" dur="0.459" begin="animate18.end + 0.5" id="animate19" fill="freeze"/></rect><rect x="88" y="148" width="53" height="82" id="rect-20" fill="transparent" stroke="#000000"><set attributeName="y" to="66" begin="0; animate25.end + 1s" /><animate attributeName="y" from="66" to="148" dur="0.304" begin="animate19.end + 0.5" id="animate20" fill="freeze"/></rect><rect x="134" y="179" width="26" height="23" id="rect-21" fill="transparent" stroke="#000000"><set attributeName="x" to="108" begin="0; animate25.end + 1s" /><animate attributeName="x" from="108" to="134" dur="0.096" begin="animate20.end + 0.5" id="animate21" fill="freeze"/></rect><rect x="142" y="12" width="110" height="245" id="rect-22" fill="transparent" stroke="#000000"><set attributeName="y" to="-233" begin="0; animate25.end + 1s" /><animate attributeName="y" from="-233" to="12" dur="0.907" begin="animate21.end + 0.5" id="animate22" fill="freeze"/></rect><rect x="233" y="197" width="20" height="52" id="rect-23" fill="transparent" stroke="#000000"><set attributeName="y" to="249" begin="0; animate25.end + 1s" /><animate attributeName="y" from="249" to="197" dur="0.193" begin="animate22.end" id="animate23" fill="freeze"/></rect><rect x="149" y="158" width="81" height="72" id="rect-24" fill="transparent" stroke="#000000"><set attributeName="x" to="230" begin="0; animate25.end + 1s" /><animate attributeName="x" from="230" to="149" dur="0.300" begin="animate23.end + 0.5" id="animate24" fill="freeze"/></rect><rect x="228" y="125" width="26" height="28" id="rect-25" fill="transparent" stroke="#000000"><set attributeName="x" to="202" begin="0; animate25.end + 1s" /><animate attributeName="x" from="202" to="228" dur="0.096" begin="animate24.end + 0.5" id="animate25" fill="freeze"/></rect></svg>