<svg xmlns="http://www.w3.org/2000/svg" xmlns:xlink="http://www.w3.org/1999/xlink" width="270" height="270"><defs><clipPath id="clip-mask-1"><use xlink:href="#rect-1" /></clipPath><clipPath id="clip-mask-2"><use xlink:href="#rect-2" /></clipPath><clipPath id="clip-mask-3"><use xlink:href="#rect-3" /></clipPath><clipPath id="clip-mask-4"><use xlink:href="#rect-4" /></clipPath><clipPath id="clip-mask-5"><use xlink:href="#rect-5" /></clipPath><clipPath id="clip-mask-6"><use xlink:href="#rect-6" /></clipPath><clipPath id="clip-mask-7"><use xlink:href="#rect-7" /></clipPath><clipPath id="clip-mask-8"><use xlink:href="#rect-8" /></clipPath><clipPath id="clip-mask-9"><use xlink:href="#rect-9" /></clipPath></defs><path d="M 0 0 L 270 270 M 270 0 L 0 270 M 135 0 L 135 270 M 0 135 L 270 135" stroke="#CCCCCC" /><path d="M 103 172 L 100 177 Q 97 180 94 176 Q 83 163 88 148 Q 95 113 92 64 Q 91 62 91 61 Q 91 60 86 39 Q 85 36 86 35 Q 90 33 93 35 Q 99 37 102 40 L 106 50 Q 105 52 105 82 L 105 89 Q 105 101 105 117 L 105 126 Q 104 153 104 157 L 103 168" fill="#CCCCCC"/><path d="M 102 40 Q 151 35 178 24 Q 182 21 188 24 Q 204 31 209 37 L 184 41 Q 180 38 170 39 Q 112 50 106 50" fill="#CCCCCC"/><path d="M 186 150 Q 188 144 188 123 Q 192 48 184 41 L 209 37 Q 212 40 209 44 Q 204 51 205 61 Q 206 119 208 151 Q 209 165 203 176 Q 199 186 194 186 Q 190 187 188 181" fill="#CCCCCC"/><path d="M 183 154 Q 185 153 186 150 L 188 181 Q 182 171 174 161" fill="#CCCCCC"/><path d="M 105 82 Q 121 77 139 72 Q 152 69 159 70 Q 167 71 170 75 Q 173 79 166 81 Q 143 84 113 89 Q 108 90 105 89" fill="#CCCCCC"/><path d="M 105 117 Q 152 105 160 107 Q 168 108 171 113 Q 174 117 166 118 Q 142 121 108 126 Q 106 126 105 126" fill="#CCCCCC"/><path d="M 104 157 Q 130 154 161 147 Q 171 145 176 148 Q 180 151 183 154 L 174 161 Q 128 163 107 167 Q 105 168 103 168" fill="#CCCCCC"/><path d="M 113 177 L 115 177 Q 119 176 127 180 Q 135 184 135 188 Q 136 191 132 194 Q 120 203 116 207 Q 74 239 55 238 Q 46 238 53 235 Q 104 202 112 181" fill="#CCCCCC"/><path d="M 159 186 L 159 182 Q 160 178 163 180 Q 163 180 164 181 Q 217 207 220 227 Q 223 241 219 245 Q 216 248 214 247 Q 209 245 204 239 Q 181 210 162 190" fill="#CCCCCC"/><path d="M 103 172 L 100 177 Q 97 180 94 176 Q 83 163 88 148 Q 95 113 92 64 Q 91 62 91 61 Q 91 60 86 39 Q 85 36 86 35 Q 90 33 93 35 Q 99 37 102 40 L 106 50 Q 105 52 105 82 L 105 89 Q 105 101 105 117 L 105 126 Q 104 153 104 157 L 103 168" fill="#0000ff" clip-path="url(#clip-mask-1)" /><path d="M 102 40 Q 151 35 178 24 Q 182 21 188 24 Q 204 31 209 37 L 184 41 Q 180 38 170 39 Q 112 50 106 50" fill="#0000ff" clip-path="url(#clip-mask-2)" /><path d="M 186 150 Q 188 144 188 123 Q 192 48 184 41 L 209 37 Q 212 40 209 44 Q 204 51 205 61 Q 206 119 208 151 Q 209 165 203 176 Q 199 186 194 186 Q 190 187 188 181" fill="#0000ff" clip-path="url(#clip-mask-3)" /><path d="M 183 154 Q 185 153 186 150 L 188 181 Q 182 171 174 161" fill="#0000ff" clip-path="url(#clip-mask-4)" /><path d="M 105 82 Q 121 77 139 72 Q 152 69 159 70 Q 167 71 170 75 Q 173 79 166 81 Q 143 84 113 89 Q 108 90 105 89" fill="#0000ff" clip-path="url(#clip-mask-5)" /><path d="M 105 117 Q 152 105 160 107 Q 168 108 171 113 Q 174 117 166 118 Q 142 121 108 126 Q 106 126 105 126" fill="#0000ff" clip-path="url(#clip-mask-6)" /><path d="M 104 157 Q 130 154 161 147 Q 171 145 176 148 Q 180 151 183 154 L 174 161 Q 128 163 107 167 Q 105 168 103 168" fill="#0000ff" clip-path="url(#clip-mask-7)" /><path d="M 113 177 L 115 177 Q 119 176 127 180 Q 135 184 135 188 Q 136 191 132 194 Q 120 203 116 207 Q 74 239 55 238 Q 46 238 53 235 Q 104 202 112 181" fill="#0000ff" clip-path="url(#clip-mask-8)" /><path d="M 159 186 L 159 182 Q 160 178 163 180 Q 163 180 164 181 Q 217 207 220 227 Q 223 241 219 245 Q 216 248 214 247 Q 209 245 204 239 Q 181 210 162 190" fill="#0000ff" clip-path="url(#clip-mask-9)" /><rect x="83" y="33" width="23" height="147" id="rect-1" fill="transparent" stroke="#000000"><animate attributeName="y" from="-114" to="33" dur="0.544" begin="0; animate9.end + 1s" id="animate1" fill="freeze"/></rect><rect x="102" y="21" width="107" height="29" id="rect-2" fill="transparent" stroke="#000000"><set attributeName="x" to="-5" begin="0; animate9.end + 1s" /><animate attributeName="x" from="-5" to="102" dur="0.396" begin="animate1.end + 0.5" id="animate2" fill="freeze"/></rect><rect x="184" y="37" width="28" height="150" id="rect-3" fill="transparent" stroke="#000000"><set attributeName="y" to="-113" begin="0; animate9.end + 1s" /><animate attributeName="y" from="-113" to="37" dur="0.556" begin="animate2.end" id="animate3" fill="freeze"/></rect><rect x="174" y="150" width="14" height="31" id="rect-4" fill="transparent" stroke="#000000"><set attributeName="x" to="188" begin="0; animate9.end + 1s" /><animate attributeName="x" from="188" to="174" dur="0.052" begin="animate3.end" id="animate4" fill="freeze"/></rect><rect x="105" y="69" width="68" height="21" id="rect-5" fill="transparent" stroke="#000000"><set attributeName="x" to="37" begin="0; animate9.end + 1s" /><animate attributeName="x" from="37" to="105" dur="0.252" begin="animate4.end + 0.5" id="animate5" fill="freeze"/></rect><rect x="105" y="105" width="69" height="21" id="rect-6" fill="transparent" stroke="#000000"><set attributeName="x" to="36" begin="0; animate9.end + 1s" /><animate attributeName="x" from="36" to="105" dur="0.256" begin="animate5.end + 0.5" id="animate6" fill="freeze"/></rect><rect x="103" y="145" width="80" height="23" id="rect-7" fill="transparent" stroke="#000000"><set attributeName="x" to="23" begin="0; animate9.end + 1s" /><animate attributeName="x" from="23" to="103" dur="0.296" begin="animate6.end + 0.5" id="animate7" fill="freeze"/></rect><rect x="46" y="176" width="90" height="63" id="rect-8" fill="transparent" stroke="#000000"><set attributeName="y" to="113" begin="0; animate9.end + 1s" /><animate attributeName="y" from="113" to="176" dur="0.233" begin="animate7.end + 0.5" id="animate8" fill="freeze"/></rect><rect x="159" y="178" width="64" height="70" id="rect-9" fill="transparent" stroke="#000000"><set attributeName="x" to="95" begin="0; animate9.end + 1s" /><animate attributeName="x" from="95" to="159" dur="0.237" begin="animate8.end + 0.5" id="animate9" fill="freeze"/></rect></svg>