<svg xmlns="http://www.w3.org/2000/svg" xmlns:xlink="http://www.w3.org/1999/xlink" width="270" height="270"><defs><clipPath id="clip-mask-1"><use xlink:href="#rect-1" /></clipPath><clipPath id="clip-mask-2"><use xlink:href="#rect-2" /></clipPath><clipPath id="clip-mask-3"><use xlink:href="#rect-3" /></clipPath><clipPath id="clip-mask-4"><use xlink:href="#rect-4" /></clipPath><clipPath id="clip-mask-5"><use xlink:href="#rect-5" /></clipPath><clipPath id="clip-mask-6"><use xlink:href="#rect-6" /></clipPath><clipPath id="clip-mask-7"><use xlink:href="#rect-7" /></clipPath><clipPath id="clip-mask-8"><use xlink:href="#rect-8" /></clipPath><clipPath id="clip-mask-9"><use xlink:href="#rect-9" /></clipPath><clipPath id="clip-mask-10"><use xlink:href="#rect-10" /></clipPath><clipPath id="clip-mask-11"><use xlink:href="#rect-11" /></clipPath><clipPath id="clip-mask-12"><use xlink:href="#rect-12" /></clipPath><clipPath id="clip-mask-13"><use xlink:href="#rect-13" /></clipPath></defs><path d="M 0 0 L 270 270 M 270 0 L 0 270 M 135 0 L 135 270 M 0 135 L 270 135" stroke="#CCCCCC" /><path d="M 44 163 L 43 165 Q 41 168 38 165 Q 36 162 33 154 Q 33 153 33 153 Q 33 153 37 131 Q 44 81 33 53 Q 31 50 32 49 Q 33 47 35 47 Q 41 49 47 53 L 50 61 Q 49 68 49 90 L 49 97 Q 49 109 49 121 L 49 130 Q 51 134 47 152 L 46 160" fill="#CCCCCC"/><path d="M 47 53 Q 47 53 47 54 Q 61 51 78 44 Q 83 41 89 44 Q 103 48 105 51 L 83 56 Q 81 54 72 56 Q 59 59 50 61" fill="#CCCCCC"/><path d="M 86 147 Q 87 146 87 143 Q 88 117 87 71 Q 87 59 83 56 L 105 51 Q 106 54 104 59 Q 98 68 102 138 Q 102 158 100 163 Q 97 171 94 171 Q 92 172 88 166 Q 85 161 81 156" fill="#CCCCCC"/><path d="M 49 90 Q 50 89 51 88 Q 61 85 66 85 Q 73 85 76 89 Q 78 92 72 93 Q 63 94 51 97 Q 49 97 49 97" fill="#CCCCCC"/><path d="M 49 121 Q 49 121 50 120 Q 61 116 67 117 Q 74 118 77 121 Q 79 124 73 126 Q 63 127 49 130" fill="#CCCCCC"/><path d="M 47 152 Q 75 145 82 146 Q 85 146 86 147 L 81 156 Q 66 157 46 160" fill="#CCCCCC"/><path d="M 45 173 L 47 173 Q 49 172 56 174 Q 63 175 64 178 Q 65 180 63 183 Q 60 186 54 194 Q 33 223 15 227 Q 9 228 14 224 Q 43 193 45 177" fill="#CCCCCC"/><path d="M 71 177 L 71 176 Q 72 173 74 174 Q 78 175 86 180 Q 91 182 93 187 Q 94 191 93 195 Q 91 199 88 198 Q 83 197 72 180" fill="#CCCCCC"/><path d="M 140 55 Q 141 54 142 54 Q 172 49 194 39 Q 202 35 210 36 Q 218 37 220 40 Q 221 42 219 45 Q 217 47 177 58 Q 156 63 145 62" fill="#CCCCCC"/><path d="M 137 119 Q 131 154 118 184 Q 113 194 108 203 Q 87 232 80 234 Q 78 234 78 232 Q 79 230 80 228 Q 102 194 112 167 Q 114 161 116 155 Q 122 134 127 76 Q 127 60 122 54 Q 120 50 123 48 Q 129 46 140 55 L 145 62 Q 142 72 138 113" fill="#CCCCCC"/><path d="M 180 109 Q 170 112 162 115 Q 144 121 137 119 L 138 113 Q 141 112 145 111 Q 166 107 181 97 Q 186 94 192 95 Q 202 98 207 102" fill="#CCCCCC"/><path d="M 170 195 L 162 200 Q 149 208 126 211 Q 119 213 116 212 Q 114 210 117 209 Q 151 196 164 180 Q 166 177 168 174 L 174 164 Q 186 138 186 114 Q 185 107 180 109 L 207 102 Q 213 106 209 110 Q 204 115 203 124 Q 195 156 184 175 L 177 186" fill="#CCCCCC"/><path d="M 168 174 Q 150 149 143 143 Q 139 140 140 138 Q 141 137 145 138 Q 154 139 162 149 Q 168 157 174 164 L 184 175 Q 200 192 219 201 Q 259 218 260 221 Q 260 223 251 223 Q 233 224 211 221 Q 201 219 177 186" fill="#CCCCCC"/><path d="M 44 163 L 43 165 Q 41 168 38 165 Q 36 162 33 154 Q 33 153 33 153 Q 33 153 37 131 Q 44 81 33 53 Q 31 50 32 49 Q 33 47 35 47 Q 41 49 47 53 L 50 61 Q 49 68 49 90 L 49 97 Q 49 109 49 121 L 49 130 Q 51 134 47 152 L 46 160" fill="#0000ff" clip-path="url(#clip-mask-1)" /><path d="M 47 53 Q 47 53 47 54 Q 61 51 78 44 Q 83 41 89 44 Q 103 48 105 51 L 83 56 Q 81 54 72 56 Q 59 59 50 61" fill="#0000ff" clip-path="url(#clip-mask-2)" /><path d="M 86 147 Q 87 146 87 143 Q 88 117 87 71 Q 87 59 83 56 L 105 51 Q 106 54 104 59 Q 98 68 102 138 Q 102 158 100 163 Q 97 171 94 171 Q 92 172 88 166 Q 85 161 81 156" fill="#0000ff" clip-path="url(#clip-mask-3)" /><path d="M 49 90 Q 50 89 51 88 Q 61 85 66 85 Q 73 85 76 89 Q 78 92 72 93 Q 63 94 51 97 Q 49 97 49 97" fill="#0000ff" clip-path="url(#clip-mask-4)" /><path d="M 49 121 Q 49 121 50 120 Q 61 116 67 117 Q 74 118 77 121 Q 79 124 73 126 Q 63 127 49 130" fill="#0000ff" clip-path="url(#clip-mask-5)" /><path d="M 47 152 Q 75 145 82 146 Q 85 146 86 147 L 81 156 Q 66 157 46 160" fill="#0000ff" clip-path="url(#clip-mask-6)" /><path d="M 45 173 L 47 173 Q 49 172 56 174 Q 63 175 64 178 Q 65 180 63 183 Q 60 186 54 194 Q 33 223 15 227 Q 9 228 14 224 Q 43 193 45 177" fill="#0000ff" clip-path="url(#clip-mask-7)" /><path d="M 71 177 L 71 176 Q 72 173 74 174 Q 78 175 86 180 Q 91 182 93 187 Q 94 191 93 195 Q 91 199 88 198 Q 83 197 72 180" fill="#0000ff" clip-path="url(#clip-mask-8)" /><path d="M 140 55 Q 141 54 142 54 Q 172 49 194 39 Q 202 35 210 36 Q 218 37 220 40 Q 221 42 219 45 Q 217 47 177 58 Q 156 63 145 62" fill="#000080" clip-path="url(#clip-mask-9)" /><path d="M 137 119 Q 131 154 118 184 Q 113 194 108 203 Q 87 232 80 234 Q 78 234 78 232 Q 79 230 80 228 Q 102 194 112 167 Q 114 161 116 155 Q 122 134 127 76 Q 127 60 122 54 Q 120 50 123 48 Q 129 46 140 55 L 145 62 Q 142 72 138 113" fill="#000080" clip-path="url(#clip-mask-10)" /><path d="M 180 109 Q 170 112 162 115 Q 144 121 137 119 L 138 113 Q 141 112 145 111 Q 166 107 181 97 Q 186 94 192 95 Q 202 98 207 102" fill="#000080" clip-path="url(#clip-mask-11)" /><path d="M 170 195 L 162 200 Q 149 208 126 211 Q 119 213 116 212 Q 114 210 117 209 Q 151 196 164 180 Q 166 177 168 174 L 174 164 Q 186 138 186 114 Q 185 107 180 109 L 207 102 Q 213 106 209 110 Q 204 115 203 124 Q 195 156 184 175 L 177 186" fill="#000080" clip-path="url(#clip-mask-12)" /><path d="M 168 174 Q 150 149 143 143 Q 139 140 140 138 Q 141 137 145 138 Q 154 139 162 149 Q 168 157 174 164 L 184 175 Q 200 192 219 201 Q 259 218 260 221 Q 260 223 251 223 Q 233 224 211 221 Q 201 219 177 186" fill="#000080" clip-path="url(#clip-mask-13)" /><rect x="31" y="47" width="20" height="121" id="rect-1" fill="transparent" stroke="#000000"><animate attributeName="y" from="-74" to="47" dur="0.448" begin="0; animate13.end + 1s" id="animate1" fill="freeze"/></rect><rect x="47" y="41" width="58" height="20" id="rect-2" fill="transparent" stroke="#000000"><set attributeName="x" to="-11" begin="0; animate13.end + 1s" /><animate attributeName="x" from="-11" to="47" dur="0.215" begin="animate1.end + 0.5" id="animate2" fill="freeze"/></rect><rect x="81" y="51" width="25" height="121" id="rect-3" fill="transparent" stroke="#000000"><set attributeName="y" to="-70" begin="0; animate13.end + 1s" /><animate attributeName="y" from="-70" to="51" dur="0.448" begin="animate2.end" id="animate3" fill="freeze"/></rect><rect x="49" y="85" width="29" height="12" id="rect-4" fill="transparent" stroke="#000000"><set attributeName="x" to="20" begin="0; animate13.end + 1s" /><animate attributeName="x" from="20" to="49" dur="0.107" begin="animate3.end + 0.5" id="animate4" fill="freeze"/></rect><rect x="49" y="116" width="30" height="14" id="rect-5" fill="transparent" stroke="#000000"><set attributeName="x" to="19" begin="0; animate13.end + 1s" /><animate attributeName="x" from="19" to="49" dur="0.111" begin="animate4.end + 0.5" id="animate5" fill="freeze"/></rect><rect x="46" y="145" width="40" height="15" id="rect-6" fill="transparent" stroke="#000000"><set attributeName="x" to="6" begin="0; animate13.end + 1s" /><animate attributeName="x" from="6" to="46" dur="0.148" begin="animate5.end + 0.5" id="animate6" fill="freeze"/></rect><rect x="9" y="172" width="56" height="56" id="rect-7" fill="transparent" stroke="#000000"><set attributeName="y" to="116" begin="0; animate13.end + 1s" /><animate attributeName="y" from="116" to="172" dur="0.207" begin="animate6.end + 0.5" id="animate7" fill="freeze"/></rect><rect x="71" y="173" width="23" height="26" id="rect-8" fill="transparent" stroke="#000000"><set attributeName="x" to="48" begin="0; animate13.end + 1s" /><animate attributeName="x" from="48" to="71" dur="0.085" begin="animate7.end + 0.5" id="animate8" fill="freeze"/></rect><rect x="140" y="35" width="81" height="28" id="rect-9" fill="transparent" stroke="#000000"><set attributeName="x" to="59" begin="0; animate13.end + 1s" /><animate attributeName="x" from="59" to="140" dur="0.300" begin="animate8.end + 0.5" id="animate9" fill="freeze"/></rect><rect x="78" y="46" width="67" height="188" id="rect-10" fill="transparent" stroke="#000000"><set attributeName="y" to="-142" begin="0; animate13.end + 1s" /><animate attributeName="y" from="-142" to="46" dur="0.696" begin="animate9.end + 0.5" id="animate10" fill="freeze"/></rect><rect x="137" y="94" width="70" height="27" id="rect-11" fill="transparent" stroke="#000000"><set attributeName="x" to="67" begin="0; animate13.end + 1s" /><animate attributeName="x" from="67" to="137" dur="0.259" begin="animate10.end + 0.5" id="animate11" fill="freeze"/></rect><rect x="114" y="102" width="99" height="111" id="rect-12" fill="transparent" stroke="#000000"><set attributeName="y" to="-9" begin="0; animate13.end + 1s" /><animate attributeName="y" from="-9" to="102" dur="0.411" begin="animate11.end" id="animate12" fill="freeze"/></rect><rect x="139" y="137" width="121" height="87" id="rect-13" fill="transparent" stroke="#000000"><set attributeName="x" to="18" begin="0; animate13.end + 1s" /><animate attributeName="x" from="18" to="139" dur="0.448" begin="animate12.end + 0.5" id="animate13" fill="freeze"/></rect></svg>