<svg xmlns="http://www.w3.org/2000/svg" xmlns:xlink="http://www.w3.org/1999/xlink" width="270" height="270"><defs><clipPath id="clip-mask-1"><use xlink:href="#rect-1" /></clipPath><clipPath id="clip-mask-2"><use xlink:href="#rect-2" /></clipPath><clipPath id="clip-mask-3"><use xlink:href="#rect-3" /></clipPath><clipPath id="clip-mask-4"><use xlink:href="#rect-4" /></clipPath><clipPath id="clip-mask-5"><use xlink:href="#rect-5" /></clipPath><clipPath id="clip-mask-6"><use xlink:href="#rect-6" /></clipPath><clipPath id="clip-mask-7"><use xlink:href="#rect-7" /></clipPath><clipPath id="clip-mask-8"><use xlink:href="#rect-8" /></clipPath><clipPath id="clip-mask-9"><use xlink:href="#rect-9" /></clipPath><clipPath id="clip-mask-10"><use xlink:href="#rect-10" /></clipPath><clipPath id="clip-mask-11"><use xlink:href="#rect-11" /></clipPath><clipPath id="clip-mask-12"><use xlink:href="#rect-12" /></clipPath><clipPath id="clip-mask-13"><use xlink:href="#rect-13" /></clipPath><clipPath id="clip-mask-14"><use xlink:href="#rect-14" /></clipPath><clipPath id="clip-mask-15"><use xlink:href="#rect-15" /></clipPath><clipPath id="clip-mask-16"><use xlink:href="#rect-16" /></clipPath><clipPath id="clip-mask-17"><use xlink:href="#rect-17" /></clipPath><clipPath id="clip-mask-18"><use xlink:href="#rect-18" /></clipPath><clipPath id="clip-mask-19"><use xlink:href="#rect-19" /></clipPath></defs><path d="M 0 0 L 270 270 M 270 0 L 0 270 M 135 0 L 135 270 M 0 135 L 270 135" stroke="#CCCCCC" /><path d="M 79 32 Q 56 34 53 34 L 49 26 Q 62 24 72 23 Q 83 20 92 17 Q 99 15 106 16 Q 112 18 114 20 Q 115 22 113 24 Q 112 25 103 27 Q 95 28 88 30" fill="#CCCCCC"/><path d="M 80 54 Q 79 33 79 32 L 88 30 Q 90 32 92 34 L 92 35 Q 92 35 90 50" fill="#CCCCCC"/><path d="M 52 60 Q 64 58 76 55 Q 77 54 80 54 L 90 50 Q 100 46 104 48 Q 115 53 118 56 L 98 59 Q 97 57 93 58 Q 55 67 52 66" fill="#CCCCCC"/><path d="M 95 75 Q 100 61 98 59 L 118 56 Q 121 60 117 64 Q 112 66 106 77" fill="#CCCCCC"/><path d="M 51 85 Q 70 82 93 76 Q 93 75 95 75 L 106 77 Q 110 80 110 82 Q 110 84 108 84 Q 97 85 89 86 L 79 88 Q 66 90 58 92 Q 55 92 51 91" fill="#CCCCCC"/><path d="M 79 108 Q 79 91 79 89 Q 79 88 79 88 L 89 86 Q 93 91 91 97 Q 90 101 89 105" fill="#CCCCCC"/><path d="M 45 133 Q 41 136 39 135 Q 36 133 34 128 Q 32 123 34 120 Q 37 114 38 108 Q 46 46 36 27 Q 35 23 36 21 Q 38 20 43 22 Q 47 24 49 26 L 53 34 Q 52 39 52 46 Q 52 53 52 60 L 52 66 Q 51 76 51 85 L 51 91 Q 51 102 51 112 Q 51 115 52 115" fill="#CCCCCC"/><path d="M 107 99 L 111 102 Q 118 105 118 109 Q 118 111 113 112 Q 61 119 45 133 L 52 115 Q 53 115 55 115 Q 76 107 79 108 L 89 105" fill="#CCCCCC"/><path d="M 169 34 Q 166 34 154 39 Q 143 43 134 41 Q 129 39 130 37 Q 131 36 135 35 Q 149 32 158 29 Q 166 26 172 23 Q 179 20 185 21 Q 192 24 196 27 Q 199 30 194 34" fill="#CCCCCC"/><path d="M 144 97 L 130 98 Q 121 99 120 98 Q 117 96 120 95 Q 137 90 152 79 L 158 72 Q 168 60 173 39 Q 174 34 169 34 L 194 34 Q 190 38 187 45 Q 178 66 167 79 L 159 87" fill="#CCCCCC"/><path d="M 152 79 Q 134 61 125 56 Q 122 54 122 52 Q 123 51 127 51 Q 135 51 143 59 Q 151 66 158 72 L 167 79 Q 177 86 183 89 Q 209 98 236 107 Q 237 109 229 111 Q 213 114 194 114 Q 185 115 159 87" fill="#CCCCCC"/><path d="M 87 204 L 85 206 Q 83 209 81 206 Q 78 203 76 196 Q 74 189 78 182 Q 84 147 76 129 Q 75 126 76 125 Q 77 123 79 123 Q 84 125 88 128 L 92 136 Q 91 139 91 150 L 91 156 Q 91 164 91 172 L 91 178 Q 91 186 90 193 L 88 201" fill="#CCCCCC"/><path d="M 88 128 Q 126 124 144 117 Q 150 115 154 117 Q 167 122 174 129 L 149 130 Q 146 127 140 128 Q 103 132 92 136" fill="#CCCCCC"/><path d="M 150 188 Q 152 180 151 146 Q 151 134 149 130 L 174 129 Q 176 131 173 136 Q 166 145 169 183 Q 169 194 165 199 Q 161 208 157 208 Q 155 208 151 201 Q 150 198 150 197" fill="#CCCCCC"/><path d="M 91 150 Q 120 142 127 142 Q 134 144 136 147 Q 138 150 133 151 Q 117 153 95 156 Q 92 156 91 156" fill="#CCCCCC"/><path d="M 91 172 Q 122 163 129 163 Q 135 165 137 168 Q 139 171 134 172 Q 117 174 95 178 Q 93 178 91 178" fill="#CCCCCC"/><path d="M 90 193 Q 111 191 137 186 Q 145 184 149 187 Q 149 187 150 188 L 150 197 Q 110 198 91 201 Q 89 201 88 201" fill="#CCCCCC"/><path d="M 92 207 L 94 206 Q 98 206 105 210 Q 112 213 112 217 Q 112 220 109 223 Q 105 225 98 231 Q 69 252 51 251 Q 43 250 50 247 Q 87 224 91 210" fill="#CCCCCC"/><path d="M 141 213 L 141 210 Q 142 206 144 208 Q 151 210 163 216 Q 173 221 178 225 Q 182 230 183 236 Q 185 248 182 252 Q 180 254 177 254 Q 173 252 169 247 Q 155 229 143 216" fill="#CCCCCC"/><path d="M 79 32 Q 56 34 53 34 L 49 26 Q 62 24 72 23 Q 83 20 92 17 Q 99 15 106 16 Q 112 18 114 20 Q 115 22 113 24 Q 112 25 103 27 Q 95 28 88 30" fill="#000080" clip-path="url(#clip-mask-1)" /><path d="M 80 54 Q 79 33 79 32 L 88 30 Q 90 32 92 34 L 92 35 Q 92 35 90 50" fill="#000080" clip-path="url(#clip-mask-2)" /><path d="M 52 60 Q 64 58 76 55 Q 77 54 80 54 L 90 50 Q 100 46 104 48 Q 115 53 118 56 L 98 59 Q 97 57 93 58 Q 55 67 52 66" fill="#000080" clip-path="url(#clip-mask-3)" /><path d="M 95 75 Q 100 61 98 59 L 118 56 Q 121 60 117 64 Q 112 66 106 77" fill="#000080" clip-path="url(#clip-mask-4)" /><path d="M 51 85 Q 70 82 93 76 Q 93 75 95 75 L 106 77 Q 110 80 110 82 Q 110 84 108 84 Q 97 85 89 86 L 79 88 Q 66 90 58 92 Q 55 92 51 91" fill="#000080" clip-path="url(#clip-mask-5)" /><path d="M 79 108 Q 79 91 79 89 Q 79 88 79 88 L 89 86 Q 93 91 91 97 Q 90 101 89 105" fill="#000080" clip-path="url(#clip-mask-6)" /><path d="M 45 133 Q 41 136 39 135 Q 36 133 34 128 Q 32 123 34 120 Q 37 114 38 108 Q 46 46 36 27 Q 35 23 36 21 Q 38 20 43 22 Q 47 24 49 26 L 53 34 Q 52 39 52 46 Q 52 53 52 60 L 52 66 Q 51 76 51 85 L 51 91 Q 51 102 51 112 Q 51 115 52 115" fill="#000080" clip-path="url(#clip-mask-7)" /><path d="M 107 99 L 111 102 Q 118 105 118 109 Q 118 111 113 112 Q 61 119 45 133 L 52 115 Q 53 115 55 115 Q 76 107 79 108 L 89 105" fill="#000080" clip-path="url(#clip-mask-8)" /><path d="M 169 34 Q 166 34 154 39 Q 143 43 134 41 Q 129 39 130 37 Q 131 36 135 35 Q 149 32 158 29 Q 166 26 172 23 Q 179 20 185 21 Q 192 24 196 27 Q 199 30 194 34" fill="#000080" clip-path="url(#clip-mask-9)" /><path d="M 144 97 L 130 98 Q 121 99 120 98 Q 117 96 120 95 Q 137 90 152 79 L 158 72 Q 168 60 173 39 Q 174 34 169 34 L 194 34 Q 190 38 187 45 Q 178 66 167 79 L 159 87" fill="#000080" clip-path="url(#clip-mask-10)" /><path d="M 152 79 Q 134 61 125 56 Q 122 54 122 52 Q 123 51 127 51 Q 135 51 143 59 Q 151 66 158 72 L 167 79 Q 177 86 183 89 Q 209 98 236 107 Q 237 109 229 111 Q 213 114 194 114 Q 185 115 159 87" fill="#000080" clip-path="url(#clip-mask-11)" /><path d="M 87 204 L 85 206 Q 83 209 81 206 Q 78 203 76 196 Q 74 189 78 182 Q 84 147 76 129 Q 75 126 76 125 Q 77 123 79 123 Q 84 125 88 128 L 92 136 Q 91 139 91 150 L 91 156 Q 91 164 91 172 L 91 178 Q 91 186 90 193 L 88 201" fill="#0000ff" clip-path="url(#clip-mask-12)" /><path d="M 88 128 Q 126 124 144 117 Q 150 115 154 117 Q 167 122 174 129 L 149 130 Q 146 127 140 128 Q 103 132 92 136" fill="#0000ff" clip-path="url(#clip-mask-13)" /><path d="M 150 188 Q 152 180 151 146 Q 151 134 149 130 L 174 129 Q 176 131 173 136 Q 166 145 169 183 Q 169 194 165 199 Q 161 208 157 208 Q 155 208 151 201 Q 150 198 150 197" fill="#0000ff" clip-path="url(#clip-mask-14)" /><path d="M 91 150 Q 120 142 127 142 Q 134 144 136 147 Q 138 150 133 151 Q 117 153 95 156 Q 92 156 91 156" fill="#0000ff" clip-path="url(#clip-mask-15)" /><path d="M 91 172 Q 122 163 129 163 Q 135 165 137 168 Q 139 171 134 172 Q 117 174 95 178 Q 93 178 91 178" fill="#0000ff" clip-path="url(#clip-mask-16)" /><path d="M 90 193 Q 111 191 137 186 Q 145 184 149 187 Q 149 187 150 188 L 150 197 Q 110 198 91 201 Q 89 201 88 201" fill="#0000ff" clip-path="url(#clip-mask-17)" /><path d="M 92 207 L 94 206 Q 98 206 105 210 Q 112 213 112 217 Q 112 220 109 223 Q 105 225 98 231 Q 69 252 51 251 Q 43 250 50 247 Q 87 224 91 210" fill="#0000ff" clip-path="url(#clip-mask-18)" /><path d="M 141 213 L 141 210 Q 142 206 144 208 Q 151 210 163 216 Q 173 221 178 225 Q 182 230 183 236 Q 185 248 182 252 Q 180 254 177 254 Q 173 252 169 247 Q 155 229 143 216" fill="#0000ff" clip-path="url(#clip-mask-19)" /><rect x="49" y="15" width="66" height="19" id="rect-1" fill="transparent" stroke="#000000"><animate attributeName="x" from="-17" to="49" dur="0.244" begin="0; animate19.end + 1s" id="animate1" fill="freeze"/></rect><rect x="79" y="30" width="13" height="24" id="rect-2" fill="transparent" stroke="#000000"><set attributeName="y" to="6" begin="0; animate19.end + 1s" /><animate attributeName="y" from="6" to="30" dur="0.089" begin="animate1.end + 0.5" id="animate2" fill="freeze"/></rect><rect x="52" y="46" width="66" height="21" id="rect-3" fill="transparent" stroke="#000000"><set attributeName="x" to="-14" begin="0; animate19.end + 1s" /><animate attributeName="x" from="-14" to="52" dur="0.244" begin="animate2.end + 0.5" id="animate3" fill="freeze"/></rect><rect x="95" y="56" width="26" height="21" id="rect-4" fill="transparent" stroke="#000000"><set attributeName="y" to="35" begin="0; animate19.end + 1s" /><animate attributeName="y" from="35" to="56" dur="0.078" begin="animate3.end" id="animate4" fill="freeze"/></rect><rect x="51" y="75" width="59" height="17" id="rect-5" fill="transparent" stroke="#000000"><set attributeName="x" to="-8" begin="0; animate19.end + 1s" /><animate attributeName="x" from="-8" to="51" dur="0.219" begin="animate4.end + 0.5" id="animate5" fill="freeze"/></rect><rect x="79" y="86" width="14" height="22" id="rect-6" fill="transparent" stroke="#000000"><set attributeName="y" to="64" begin="0; animate19.end + 1s" /><animate attributeName="y" from="64" to="86" dur="0.081" begin="animate5.end + 0.5" id="animate6" fill="freeze"/></rect><rect x="32" y="20" width="21" height="116" id="rect-7" fill="transparent" stroke="#000000"><set attributeName="y" to="-96" begin="0; animate19.end + 1s" /><animate attributeName="y" from="-96" to="20" dur="0.430" begin="animate6.end + 0.5" id="animate7" fill="freeze"/></rect><rect x="45" y="99" width="73" height="34" id="rect-8" fill="transparent" stroke="#000000"><set attributeName="x" to="-28" begin="0; animate19.end + 1s" /><animate attributeName="x" from="-28" to="45" dur="0.270" begin="animate7.end" id="animate8" fill="freeze"/></rect><rect x="129" y="20" width="70" height="23" id="rect-9" fill="transparent" stroke="#000000"><set attributeName="x" to="59" begin="0; animate19.end + 1s" /><animate attributeName="x" from="59" to="129" dur="0.259" begin="animate8.end + 0.5" id="animate9" fill="freeze"/></rect><rect x="117" y="34" width="77" height="65" id="rect-10" fill="transparent" stroke="#000000"><set attributeName="y" to="-31" begin="0; animate19.end + 1s" /><animate attributeName="y" from="-31" to="34" dur="0.241" begin="animate9.end" id="animate10" fill="freeze"/></rect><rect x="122" y="51" width="115" height="64" id="rect-11" fill="transparent" stroke="#000000"><set attributeName="x" to="7" begin="0; animate19.end + 1s" /><animate attributeName="x" from="7" to="122" dur="0.426" begin="animate10.end + 0.5" id="animate11" fill="freeze"/></rect><rect x="74" y="123" width="18" height="86" id="rect-12" fill="transparent" stroke="#000000"><set attributeName="y" to="37" begin="0; animate19.end + 1s" /><animate attributeName="y" from="37" to="123" dur="0.319" begin="animate11.end + 0.5" id="animate12" fill="freeze"/></rect><rect x="88" y="115" width="86" height="21" id="rect-13" fill="transparent" stroke="#000000"><set attributeName="x" to="2" begin="0; animate19.end + 1s" /><animate attributeName="x" from="2" to="88" dur="0.319" begin="animate12.end + 0.5" id="animate13" fill="freeze"/></rect><rect x="149" y="129" width="27" height="79" id="rect-14" fill="transparent" stroke="#000000"><set attributeName="y" to="50" begin="0; animate19.end + 1s" /><animate attributeName="y" from="50" to="129" dur="0.293" begin="animate13.end" id="animate14" fill="freeze"/></rect><rect x="91" y="142" width="47" height="14" id="rect-15" fill="transparent" stroke="#000000"><set attributeName="x" to="44" begin="0; animate19.end + 1s" /><animate attributeName="x" from="44" to="91" dur="0.174" begin="animate14.end + 0.5" id="animate15" fill="freeze"/></rect><rect x="91" y="163" width="48" height="15" id="rect-16" fill="transparent" stroke="#000000"><set attributeName="x" to="43" begin="0; animate19.end + 1s" /><animate attributeName="x" from="43" to="91" dur="0.178" begin="animate15.end + 0.5" id="animate16" fill="freeze"/></rect><rect x="88" y="184" width="62" height="17" id="rect-17" fill="transparent" stroke="#000000"><set attributeName="x" to="26" begin="0; animate19.end + 1s" /><animate attributeName="x" from="26" to="88" dur="0.230" begin="animate16.end + 0.5" id="animate17" fill="freeze"/></rect><rect x="43" y="206" width="69" height="46" id="rect-18" fill="transparent" stroke="#000000"><set attributeName="y" to="160" begin="0; animate19.end + 1s" /><animate attributeName="y" from="160" to="206" dur="0.170" begin="animate17.end + 0.5" id="animate18" fill="freeze"/></rect><rect x="141" y="206" width="44" height="48" id="rect-19" fill="transparent" stroke="#000000"><set attributeName="x" to="97" begin="0; animate19.end + 1s" /><animate attributeName="x" from="97" to="141" dur="0.163" begin="animate18.end + 0.5" id="animate19" fill="freeze"/></rect></svg>