<svg xmlns="http://www.w3.org/2000/svg" xmlns:xlink="http://www.w3.org/1999/xlink" width="270" height="270"><defs><clipPath id="clip-mask-1"><use xlink:href="#rect-1" /></clipPath><clipPath id="clip-mask-2"><use xlink:href="#rect-2" /></clipPath><clipPath id="clip-mask-3"><use xlink:href="#rect-3" /></clipPath><clipPath id="clip-mask-4"><use xlink:href="#rect-4" /></clipPath><clipPath id="clip-mask-5"><use xlink:href="#rect-5" /></clipPath><clipPath id="clip-mask-6"><use xlink:href="#rect-6" /></clipPath><clipPath id="clip-mask-7"><use xlink:href="#rect-7" /></clipPath><clipPath id="clip-mask-8"><use xlink:href="#rect-8" /></clipPath><clipPath id="clip-mask-9"><use xlink:href="#rect-9" /></clipPath><clipPath id="clip-mask-10"><use xlink:href="#rect-10" /></clipPath><clipPath id="clip-mask-11"><use xlink:href="#rect-11" /></clipPath><clipPath id="clip-mask-12"><use xlink:href="#rect-12" /></clipPath><clipPath id="clip-mask-13"><use xlink:href="#rect-13" /></clipPath><clipPath id="clip-mask-14"><use xlink:href="#rect-14" /></clipPath><clipPath id="clip-mask-15"><use xlink:href="#rect-15" /></clipPath><clipPath id="clip-mask-16"><use xlink:href="#rect-16" /></clipPath><clipPath id="clip-mask-17"><use xlink:href="#rect-17" /></clipPath><clipPath id="clip-mask-18"><use xlink:href="#rect-18" /></clipPath><clipPath id="clip-mask-19"><use xlink:href="#rect-19" /></clipPath><clipPath id="clip-mask-20"><use xlink:href="#rect-20" /></clipPath></defs><path d="M 0 0 L 270 270 M 270 0 L 0 270 M 135 0 L 135 270 M 0 135 L 270 135" stroke="#CCCCCC" /><path d="M 86 74 Q 66 80 55 75 Q 48 71 57 70 Q 70 67 86 63 L 98 58 Q 103 54 114 56 Q 121 57 123 60 Q 124 62 122 64 Q 121 65 113 67 Q 104 69 97 72" fill="#CCCCCC"/><path d="M 59 110 Q 60 116 63 134 L 63 142 Q 63 143 63 145 Q 62 149 57 144 Q 54 140 53 135 Q 48 117 42 107 Q 40 103 41 101 Q 42 100 45 100 Q 52 102 55 103" fill="#CCCCCC"/><path d="M 86 103 Q 75 106 64 109 Q 62 110 59 110 L 55 103 Q 71 100 86 96 L 96 93 Q 102 91 109 89 Q 120 82 137 94 L 116 98 Q 112 96 96 101" fill="#CCCCCC"/><path d="M 114 122 Q 116 114 117 104 Q 118 100 116 98 L 137 94 Q 141 98 137 102 Q 130 107 125 123" fill="#CCCCCC"/><path d="M 72 140 L 66 142 Q 65 142 63 142 L 63 134 Q 74 132 86 129 L 96 127 Q 103 124 112 122 Q 113 122 114 122 L 125 123 Q 130 126 130 128 Q 130 130 127 130 Q 109 133 96 135 L 83 138" fill="#CCCCCC"/><path d="M 86 129 Q 86 116 86 103 L 86 96 Q 86 84 86 74 L 86 63 Q 85 45 77 32 Q 75 28 76 27 Q 81 23 87 28 Q 101 36 102 38 Q 103 42 101 45 Q 99 51 98 58 L 97 72 Q 96 82 96 93 L 96 101 Q 96 114 96 127 L 96 135 Q 96 213 96 223 Q 96 231 94 237 Q 91 242 89 243 Q 88 245 86 244 Q 84 242 82 238 Q 76 223 79 214 Q 85 190 85 158" fill="#CCCCCC"/><path d="M 86 129 L 85 158 Q 73 178 60 190 Q 33 216 27 215 Q 24 215 26 212 Q 68 167 83 138" fill="#CCCCCC"/><path d="M 104 159 L 103 157 Q 103 155 104 154 Q 107 152 122 159 Q 129 162 130 166 Q 131 172 130 175 Q 129 178 127 178 Q 124 178 121 175 Q 115 169 109 164" fill="#CCCCCC"/><path d="M 170 49 Q 166 50 161 52 Q 156 54 151 50 Q 145 47 146 45 Q 146 43 150 43 Q 167 42 186 37 Q 206 33 211 30 Q 215 27 220 29 Q 231 35 233 37 Q 235 40 231 43 L 214 42 Q 212 40 208 41 Q 194 42 178 47" fill="#CCCCCC"/><path d="M 231 43 Q 228 46 227 53 Q 218 82 207 87 L 211 65 Q 214 59 214 47 Q 215 43 214 42" fill="#CCCCCC"/><path d="M 207 87 Q 204 89 202 86 Q 198 80 192 72 Q 188 68 193 69 Q 197 70 200 70 Q 207 72 211 65" fill="#CCCCCC"/><path d="M 180 49 L 183 54 Q 184 57 183 59 Q 182 61 179 65 Q 157 92 149 92 Q 148 93 148 92 Q 148 90 149 90 Q 173 61 170 50 L 170 49 L 178 47" fill="#CCCCCC"/><path d="M 159 186 L 157 189 Q 155 191 153 189 L 152 188 Q 144 177 149 159 Q 151 116 146 105 Q 145 104 144 102 Q 143 99 145 98 Q 147 97 150 98 Q 156 100 157 102 L 161 109 Q 160 118 160 127 L 160 133 Q 160 140 160 150 L 160 157 Q 160 162 160 167 Q 161 172 160 176 L 160 184" fill="#CCCCCC"/><path d="M 157 102 Q 190 98 205 90 Q 211 88 214 89 Q 226 94 232 99 L 209 101 Q 207 98 202 99 Q 186 103 165 108 Q 163 109 161 109" fill="#CCCCCC"/><path d="M 211 172 Q 211 171 211 170 Q 214 162 212 120 Q 212 105 209 101 L 232 99 Q 234 102 232 105 Q 224 118 229 163 Q 229 175 226 180 Q 222 188 219 188 Q 216 189 213 181 Q 212 179 211 178" fill="#CCCCCC"/><path d="M 160 127 Q 186 119 192 119 Q 198 121 201 124 Q 203 127 197 128 Q 183 130 164 133 Q 162 133 160 133" fill="#CCCCCC"/><path d="M 160 150 Q 186 142 194 143 Q 200 145 203 148 Q 205 151 199 152 Q 184 154 163 157 Q 161 157 160 157" fill="#CCCCCC"/><path d="M 160 176 Q 176 173 195 169 Q 203 167 207 169 Q 209 171 211 172 L 211 178 Q 178 181 162 184 Q 161 184 160 184" fill="#CCCCCC"/><path d="M 162 191 L 164 191 Q 167 191 174 193 Q 180 196 181 199 Q 181 201 178 204 Q 175 207 168 214 Q 139 241 122 241 Q 115 241 121 238 Q 156 211 161 195" fill="#CCCCCC"/><path d="M 200 200 L 200 197 Q 201 194 203 195 Q 241 214 243 229 Q 245 240 241 243 Q 239 246 237 245 Q 233 244 230 238 Q 215 218 202 203" fill="#CCCCCC"/><path d="M 86 74 Q 66 80 55 75 Q 48 71 57 70 Q 70 67 86 63 L 98 58 Q 103 54 114 56 Q 121 57 123 60 Q 124 62 122 64 Q 121 65 113 67 Q 104 69 97 72" fill="#000080" clip-path="url(#clip-mask-1)" /><path d="M 59 110 Q 60 116 63 134 L 63 142 Q 63 143 63 145 Q 62 149 57 144 Q 54 140 53 135 Q 48 117 42 107 Q 40 103 41 101 Q 42 100 45 100 Q 52 102 55 103" fill="#000080" clip-path="url(#clip-mask-2)" /><path d="M 86 103 Q 75 106 64 109 Q 62 110 59 110 L 55 103 Q 71 100 86 96 L 96 93 Q 102 91 109 89 Q 120 82 137 94 L 116 98 Q 112 96 96 101" fill="#000080" clip-path="url(#clip-mask-3)" /><path d="M 114 122 Q 116 114 117 104 Q 118 100 116 98 L 137 94 Q 141 98 137 102 Q 130 107 125 123" fill="#000080" clip-path="url(#clip-mask-4)" /><path d="M 72 140 L 66 142 Q 65 142 63 142 L 63 134 Q 74 132 86 129 L 96 127 Q 103 124 112 122 Q 113 122 114 122 L 125 123 Q 130 126 130 128 Q 130 130 127 130 Q 109 133 96 135 L 83 138" fill="#000080" clip-path="url(#clip-mask-5)" /><path d="M 86 129 Q 86 116 86 103 L 86 96 Q 86 84 86 74 L 86 63 Q 85 45 77 32 Q 75 28 76 27 Q 81 23 87 28 Q 101 36 102 38 Q 103 42 101 45 Q 99 51 98 58 L 97 72 Q 96 82 96 93 L 96 101 Q 96 114 96 127 L 96 135 Q 96 213 96 223 Q 96 231 94 237 Q 91 242 89 243 Q 88 245 86 244 Q 84 242 82 238 Q 76 223 79 214 Q 85 190 85 158" fill="#000080" clip-path="url(#clip-mask-6)" /><path d="M 86 129 L 85 158 Q 73 178 60 190 Q 33 216 27 215 Q 24 215 26 212 Q 68 167 83 138" fill="#000080" clip-path="url(#clip-mask-7)" /><path d="M 104 159 L 103 157 Q 103 155 104 154 Q 107 152 122 159 Q 129 162 130 166 Q 131 172 130 175 Q 129 178 127 178 Q 124 178 121 175 Q 115 169 109 164" fill="#000080" clip-path="url(#clip-mask-8)" /><path d="M 170 49 Q 166 50 161 52 Q 156 54 151 50 Q 145 47 146 45 Q 146 43 150 43 Q 167 42 186 37 Q 206 33 211 30 Q 215 27 220 29 Q 231 35 233 37 Q 235 40 231 43 L 214 42 Q 212 40 208 41 Q 194 42 178 47" fill="#000080" clip-path="url(#clip-mask-9)" /><path d="M 231 43 Q 228 46 227 53 Q 218 82 207 87 L 211 65 Q 214 59 214 47 Q 215 43 214 42" fill="#000080" clip-path="url(#clip-mask-10)" /><path d="M 207 87 Q 204 89 202 86 Q 198 80 192 72 Q 188 68 193 69 Q 197 70 200 70 Q 207 72 211 65" fill="#000080" clip-path="url(#clip-mask-11)" /><path d="M 180 49 L 183 54 Q 184 57 183 59 Q 182 61 179 65 Q 157 92 149 92 Q 148 93 148 92 Q 148 90 149 90 Q 173 61 170 50 L 170 49 L 178 47" fill="#000080" clip-path="url(#clip-mask-12)" /><path d="M 159 186 L 157 189 Q 155 191 153 189 L 152 188 Q 144 177 149 159 Q 151 116 146 105 Q 145 104 144 102 Q 143 99 145 98 Q 147 97 150 98 Q 156 100 157 102 L 161 109 Q 160 118 160 127 L 160 133 Q 160 140 160 150 L 160 157 Q 160 162 160 167 Q 161 172 160 176 L 160 184" fill="#0000ff" clip-path="url(#clip-mask-13)" /><path d="M 157 102 Q 190 98 205 90 Q 211 88 214 89 Q 226 94 232 99 L 209 101 Q 207 98 202 99 Q 186 103 165 108 Q 163 109 161 109" fill="#0000ff" clip-path="url(#clip-mask-14)" /><path d="M 211 172 Q 211 171 211 170 Q 214 162 212 120 Q 212 105 209 101 L 232 99 Q 234 102 232 105 Q 224 118 229 163 Q 229 175 226 180 Q 222 188 219 188 Q 216 189 213 181 Q 212 179 211 178" fill="#0000ff" clip-path="url(#clip-mask-15)" /><path d="M 160 127 Q 186 119 192 119 Q 198 121 201 124 Q 203 127 197 128 Q 183 130 164 133 Q 162 133 160 133" fill="#0000ff" clip-path="url(#clip-mask-16)" /><path d="M 160 150 Q 186 142 194 143 Q 200 145 203 148 Q 205 151 199 152 Q 184 154 163 157 Q 161 157 160 157" fill="#0000ff" clip-path="url(#clip-mask-17)" /><path d="M 160 176 Q 176 173 195 169 Q 203 167 207 169 Q 209 171 211 172 L 211 178 Q 178 181 162 184 Q 161 184 160 184" fill="#0000ff" clip-path="url(#clip-mask-18)" /><path d="M 162 191 L 164 191 Q 167 191 174 193 Q 180 196 181 199 Q 181 201 178 204 Q 175 207 168 214 Q 139 241 122 241 Q 115 241 121 238 Q 156 211 161 195" fill="#0000ff" clip-path="url(#clip-mask-19)" /><path d="M 200 200 L 200 197 Q 201 194 203 195 Q 241 214 243 229 Q 245 240 241 243 Q 239 246 237 245 Q 233 244 230 238 Q 215 218 202 203" fill="#0000ff" clip-path="url(#clip-mask-20)" /><rect x="48" y="54" width="76" height="26" id="rect-1" fill="transparent" stroke="#000000"><animate attributeName="x" from="-28" to="48" dur="0.281" begin="0; animate20.end + 1s" id="animate1" fill="freeze"/></rect><rect x="40" y="100" width="23" height="49" id="rect-2" fill="transparent" stroke="#000000"><set attributeName="y" to="51" begin="0; animate20.end + 1s" /><animate attributeName="y" from="51" to="100" dur="0.181" begin="animate1.end + 0.5" id="animate2" fill="freeze"/></rect><rect x="55" y="82" width="82" height="28" id="rect-3" fill="transparent" stroke="#000000"><set attributeName="x" to="-27" begin="0; animate20.end + 1s" /><animate attributeName="x" from="-27" to="55" dur="0.304" begin="animate2.end + 0.5" id="animate3" fill="freeze"/></rect><rect x="114" y="94" width="27" height="29" id="rect-4" fill="transparent" stroke="#000000"><set attributeName="y" to="65" begin="0; animate20.end + 1s" /><animate attributeName="y" from="65" to="94" dur="0.107" begin="animate3.end" id="animate4" fill="freeze"/></rect><rect x="63" y="122" width="67" height="20" id="rect-5" fill="transparent" stroke="#000000"><set attributeName="x" to="-4" begin="0; animate20.end + 1s" /><animate attributeName="x" from="-4" to="63" dur="0.248" begin="animate4.end + 0.5" id="animate5" fill="freeze"/></rect><rect x="75" y="23" width="28" height="222" id="rect-6" fill="transparent" stroke="#000000"><set attributeName="y" to="-199" begin="0; animate20.end + 1s" /><animate attributeName="y" from="-199" to="23" dur="0.822" begin="animate5.end + 0.5" id="animate6" fill="freeze"/></rect><rect x="24" y="129" width="62" height="87" id="rect-7" fill="transparent" stroke="#000000"><set attributeName="x" to="86" begin="0; animate20.end + 1s" /><animate attributeName="x" from="86" to="24" dur="0.230" begin="animate6.end + 0.5" id="animate7" fill="freeze"/></rect><rect x="103" y="152" width="28" height="26" id="rect-8" fill="transparent" stroke="#000000"><set attributeName="x" to="75" begin="0; animate20.end + 1s" /><animate attributeName="x" from="75" to="103" dur="0.104" begin="animate7.end + 0.5" id="animate8" fill="freeze"/></rect><rect x="145" y="27" width="90" height="27" id="rect-9" fill="transparent" stroke="#000000"><set attributeName="x" to="55" begin="0; animate20.end + 1s" /><animate attributeName="x" from="55" to="145" dur="0.333" begin="animate8.end + 0.5" id="animate9" fill="freeze"/></rect><rect x="207" y="42" width="24" height="45" id="rect-10" fill="transparent" stroke="#000000"><set attributeName="y" to="-3" begin="0; animate20.end + 1s" /><animate attributeName="y" from="-3" to="42" dur="0.167" begin="animate9.end" id="animate10" fill="freeze"/></rect><rect x="188" y="65" width="23" height="24" id="rect-11" fill="transparent" stroke="#000000"><set attributeName="x" to="211" begin="0; animate20.end + 1s" /><animate attributeName="x" from="211" to="188" dur="0.085" begin="animate10.end" id="animate11" fill="freeze"/></rect><rect x="148" y="47" width="36" height="46" id="rect-12" fill="transparent" stroke="#000000"><set attributeName="y" to="1" begin="0; animate20.end + 1s" /><animate attributeName="y" from="1" to="47" dur="0.170" begin="animate11.end + 0.5" id="animate12" fill="freeze"/></rect><rect x="143" y="97" width="18" height="94" id="rect-13" fill="transparent" stroke="#000000"><set attributeName="y" to="3" begin="0; animate20.end + 1s" /><animate attributeName="y" from="3" to="97" dur="0.348" begin="animate12.end + 0.5" id="animate13" fill="freeze"/></rect><rect x="157" y="88" width="75" height="21" id="rect-14" fill="transparent" stroke="#000000"><set attributeName="x" to="82" begin="0; animate20.end + 1s" /><animate attributeName="x" from="82" to="157" dur="0.278" begin="animate13.end + 0.5" id="animate14" fill="freeze"/></rect><rect x="209" y="99" width="25" height="90" id="rect-15" fill="transparent" stroke="#000000"><set attributeName="y" to="9" begin="0; animate20.end + 1s" /><animate attributeName="y" from="9" to="99" dur="0.333" begin="animate14.end" id="animate15" fill="freeze"/></rect><rect x="160" y="119" width="43" height="14" id="rect-16" fill="transparent" stroke="#000000"><set attributeName="x" to="117" begin="0; animate20.end + 1s" /><animate attributeName="x" from="117" to="160" dur="0.159" begin="animate15.end + 0.5" id="animate16" fill="freeze"/></rect><rect x="160" y="142" width="45" height="15" id="rect-17" fill="transparent" stroke="#000000"><set attributeName="x" to="115" begin="0; animate20.end + 1s" /><animate attributeName="x" from="115" to="160" dur="0.167" begin="animate16.end + 0.5" id="animate17" fill="freeze"/></rect><rect x="160" y="167" width="51" height="17" id="rect-18" fill="transparent" stroke="#000000"><set attributeName="x" to="109" begin="0; animate20.end + 1s" /><animate attributeName="x" from="109" to="160" dur="0.189" begin="animate17.end + 0.5" id="animate18" fill="freeze"/></rect><rect x="115" y="191" width="66" height="50" id="rect-19" fill="transparent" stroke="#000000"><set attributeName="y" to="141" begin="0; animate20.end + 1s" /><animate attributeName="y" from="141" to="191" dur="0.185" begin="animate18.end + 0.5" id="animate19" fill="freeze"/></rect><rect x="200" y="194" width="45" height="52" id="rect-20" fill="transparent" stroke="#000000"><set attributeName="x" to="155" begin="0; animate20.end + 1s" /><animate attributeName="x" from="155" to="200" dur="0.167" begin="animate19.end + 0.5" id="animate20" fill="freeze"/></rect></svg>