<svg xmlns="http://www.w3.org/2000/svg" xmlns:xlink="http://www.w3.org/1999/xlink" width="270" height="270"><defs><clipPath id="clip-mask-1"><use xlink:href="#rect-1" /></clipPath><clipPath id="clip-mask-2"><use xlink:href="#rect-2" /></clipPath><clipPath id="clip-mask-3"><use xlink:href="#rect-3" /></clipPath><clipPath id="clip-mask-4"><use xlink:href="#rect-4" /></clipPath><clipPath id="clip-mask-5"><use xlink:href="#rect-5" /></clipPath><clipPath id="clip-mask-6"><use xlink:href="#rect-6" /></clipPath><clipPath id="clip-mask-7"><use xlink:href="#rect-7" /></clipPath><clipPath id="clip-mask-8"><use xlink:href="#rect-8" /></clipPath><clipPath id="clip-mask-9"><use xlink:href="#rect-9" /></clipPath><clipPath id="clip-mask-10"><use xlink:href="#rect-10" /></clipPath><clipPath id="clip-mask-11"><use xlink:href="#rect-11" /></clipPath><clipPath id="clip-mask-12"><use xlink:href="#rect-12" /></clipPath><clipPath id="clip-mask-13"><use xlink:href="#rect-13" /></clipPath><clipPath id="clip-mask-14"><use xlink:href="#rect-14" /></clipPath><clipPath id="clip-mask-15"><use xlink:href="#rect-15" /></clipPath><clipPath id="clip-mask-16"><use xlink:href="#rect-16" /></clipPath><clipPath id="clip-mask-17"><use xlink:href="#rect-17" /></clipPath><clipPath id="clip-mask-18"><use xlink:href="#rect-18" /></clipPath><clipPath id="clip-mask-19"><use xlink:href="#rect-19" /></clipPath><clipPath id="clip-mask-20"><use xlink:href="#rect-20" /></clipPath><clipPath id="clip-mask-21"><use xlink:href="#rect-21" /></clipPath><clipPath id="clip-mask-22"><use xlink:href="#rect-22" /></clipPath><clipPath id="clip-mask-23"><use xlink:href="#rect-23" /></clipPath></defs><path d="M 0 0 L 270 270 M 270 0 L 0 270 M 135 0 L 135 270 M 0 135 L 270 135" stroke="#CCCCCC" /><path d="M 56 169 L 54 172 Q 52 175 49 172 Q 41 163 47 139 Q 52 81 45 66 Q 44 64 43 62 Q 42 59 44 58 Q 46 57 49 58 Q 54 60 57 63 L 59 70 Q 58 71 58 98 L 58 104 Q 58 115 58 130 L 58 137 Q 58 155 58 158 L 57 166" fill="#CCCCCC"/><path d="M 57 63 Q 69 60 85 54 Q 89 51 95 54 Q 108 58 110 61 Q 111 63 109 68 L 89 66 Q 87 63 79 65 Q 69 68 62 69 Q 61 69 59 70" fill="#CCCCCC"/><path d="M 90 159 Q 91 157 91 154 Q 93 128 92 80 Q 92 69 89 66 L 109 68 Q 104 77 106 148 Q 106 167 104 173 Q 100 180 98 181 Q 96 181 92 175 Q 88 169 84 163" fill="#CCCCCC"/><path d="M 58 98 Q 73 92 78 93 Q 83 93 85 96 Q 87 98 83 99 Q 72 101 58 104" fill="#CCCCCC"/><path d="M 58 130 Q 66 124 77 125 Q 83 125 85 129 Q 87 131 82 132 Q 73 134 60 137 Q 58 137 58 137" fill="#CCCCCC"/><path d="M 58 158 Q 80 152 84 154 Q 88 157 90 159 L 84 163 Q 69 164 61 166 Q 59 166 57 166" fill="#CCCCCC"/><path d="M 57 182 L 58 181 Q 61 180 68 182 Q 75 183 76 187 Q 77 189 75 192 Q 40 236 24 237 Q 18 239 22 235 Q 55 201 56 185" fill="#CCCCCC"/><path d="M 86 195 L 86 193 Q 86 190 87 190 Q 91 189 106 198 Q 113 203 114 208 Q 115 214 113 217 Q 112 219 110 219 Q 107 219 104 216 Q 97 207 91 200" fill="#CCCCCC"/><path d="M 128 51 L 127 48 Q 127 45 129 44 Q 130 43 134 44 Q 158 52 159 59 Q 161 67 160 70 Q 158 74 156 74 Q 152 74 149 70 Q 141 63 135 56" fill="#CCCCCC"/><path d="M 205 28 L 204 23 Q 202 20 206 19 Q 209 18 215 21 Q 222 24 226 28 Q 229 32 224 35 Q 217 39 202 54 Q 195 61 181 72 Q 177 73 179 69 Q 198 41 202 33" fill="#CCCCCC"/><path d="M 139 143 L 139 144 Q 138 148 134 143 Q 130 138 129 132 Q 124 110 117 96 Q 115 93 116 91 Q 117 90 120 91 Q 124 91 127 92 L 133 99 Q 134 107 139 130 Q 139 132 140 135 L 140 143" fill="#CCCCCC"/><path d="M 223 84 Q 215 80 175 90 L 166 91 Q 145 95 133 99 L 127 92 Q 139 90 156 86 Q 189 78 209 76 Q 227 72 231 74 Q 243 81 247 85" fill="#CCCCCC"/><path d="M 214 129 Q 217 122 224 93 Q 225 86 223 84 L 247 85 Q 251 89 247 93 Q 238 100 233 113 Q 227 132 224 136 Q 222 140 219 140 Q 215 140 214 136 Q 214 135 214 133" fill="#CCCCCC"/><path d="M 175 90 Q 176 90 178 92 Q 182 95 181 104 Q 180 115 179 129 L 168 131 Q 167 94 166 91" fill="#CCCCCC"/><path d="M 143 108 L 143 106 Q 144 104 145 104 Q 158 110 161 116 Q 161 120 161 122 Q 160 125 157 125 Q 153 124 144 109" fill="#CCCCCC"/><path d="M 198 97 L 198 95 Q 198 91 200 91 Q 205 91 208 94 Q 212 98 213 100 Q 214 102 211 103 Q 204 108 189 118 Q 188 119 186 119 Q 185 117 186 116 Q 193 106 197 100" fill="#CCCCCC"/><path d="M 140 135 Q 153 132 168 131 L 179 129 Q 205 123 209 125 Q 213 127 214 129 L 214 133 Q 213 133 213 133 Q 143 139 140 143" fill="#CCCCCC"/><path d="M 151 237 L 149 241 Q 146 244 144 241 Q 134 228 140 216 Q 144 177 138 167 Q 138 166 137 164 Q 136 162 138 160 Q 140 160 142 161 Q 149 164 151 166 L 153 174 Q 152 176 152 194 L 152 201 Q 152 223 152 223 L 151 232" fill="#CCCCCC"/><path d="M 201 164 Q 198 162 192 163 Q 157 173 153 174 L 151 166 Q 182 159 196 151 Q 200 149 204 151 Q 217 157 221 161" fill="#CCCCCC"/><path d="M 203 220 Q 204 217 204 206 Q 205 167 201 164 L 221 161 Q 223 164 221 167 Q 217 172 217 179 Q 219 207 221 221 Q 222 232 218 242 Q 214 250 210 251 Q 207 251 205 246" fill="#CCCCCC"/><path d="M 198 223 Q 202 225 203 220 L 205 246 Q 199 237 191 226" fill="#CCCCCC"/><path d="M 152 194 Q 156 193 160 192 Q 166 191 171 189 Q 176 187 182 188 Q 187 189 188 191 Q 189 193 188 194 Q 187 194 187 194 Q 160 201 152 201" fill="#CCCCCC"/><path d="M 152 223 Q 164 221 180 217 Q 186 216 190 218 Q 194 220 196 222 Q 197 223 198 223 L 191 226 Q 164 228 152 231 Q 151 231 151 232" fill="#CCCCCC"/><path d="M 56 169 L 54 172 Q 52 175 49 172 Q 41 163 47 139 Q 52 81 45 66 Q 44 64 43 62 Q 42 59 44 58 Q 46 57 49 58 Q 54 60 57 63 L 59 70 Q 58 71 58 98 L 58 104 Q 58 115 58 130 L 58 137 Q 58 155 58 158 L 57 166" fill="#0000ff" clip-path="url(#clip-mask-1)" /><path d="M 57 63 Q 69 60 85 54 Q 89 51 95 54 Q 108 58 110 61 Q 111 63 109 68 L 89 66 Q 87 63 79 65 Q 69 68 62 69 Q 61 69 59 70" fill="#0000ff" clip-path="url(#clip-mask-2)" /><path d="M 90 159 Q 91 157 91 154 Q 93 128 92 80 Q 92 69 89 66 L 109 68 Q 104 77 106 148 Q 106 167 104 173 Q 100 180 98 181 Q 96 181 92 175 Q 88 169 84 163" fill="#0000ff" clip-path="url(#clip-mask-3)" /><path d="M 58 98 Q 73 92 78 93 Q 83 93 85 96 Q 87 98 83 99 Q 72 101 58 104" fill="#0000ff" clip-path="url(#clip-mask-4)" /><path d="M 58 130 Q 66 124 77 125 Q 83 125 85 129 Q 87 131 82 132 Q 73 134 60 137 Q 58 137 58 137" fill="#0000ff" clip-path="url(#clip-mask-5)" /><path d="M 58 158 Q 80 152 84 154 Q 88 157 90 159 L 84 163 Q 69 164 61 166 Q 59 166 57 166" fill="#0000ff" clip-path="url(#clip-mask-6)" /><path d="M 57 182 L 58 181 Q 61 180 68 182 Q 75 183 76 187 Q 77 189 75 192 Q 40 236 24 237 Q 18 239 22 235 Q 55 201 56 185" fill="#0000ff" clip-path="url(#clip-mask-7)" /><path d="M 86 195 L 86 193 Q 86 190 87 190 Q 91 189 106 198 Q 113 203 114 208 Q 115 214 113 217 Q 112 219 110 219 Q 107 219 104 216 Q 97 207 91 200" fill="#0000ff" clip-path="url(#clip-mask-8)" /><path d="M 128 51 L 127 48 Q 127 45 129 44 Q 130 43 134 44 Q 158 52 159 59 Q 161 67 160 70 Q 158 74 156 74 Q 152 74 149 70 Q 141 63 135 56" fill="#000080" clip-path="url(#clip-mask-9)" /><path d="M 205 28 L 204 23 Q 202 20 206 19 Q 209 18 215 21 Q 222 24 226 28 Q 229 32 224 35 Q 217 39 202 54 Q 195 61 181 72 Q 177 73 179 69 Q 198 41 202 33" fill="#000080" clip-path="url(#clip-mask-10)" /><path d="M 139 143 L 139 144 Q 138 148 134 143 Q 130 138 129 132 Q 124 110 117 96 Q 115 93 116 91 Q 117 90 120 91 Q 124 91 127 92 L 133 99 Q 134 107 139 130 Q 139 132 140 135 L 140 143" fill="#000080" clip-path="url(#clip-mask-11)" /><path d="M 223 84 Q 215 80 175 90 L 166 91 Q 145 95 133 99 L 127 92 Q 139 90 156 86 Q 189 78 209 76 Q 227 72 231 74 Q 243 81 247 85" fill="#000080" clip-path="url(#clip-mask-12)" /><path d="M 214 129 Q 217 122 224 93 Q 225 86 223 84 L 247 85 Q 251 89 247 93 Q 238 100 233 113 Q 227 132 224 136 Q 222 140 219 140 Q 215 140 214 136 Q 214 135 214 133" fill="#000080" clip-path="url(#clip-mask-13)" /><path d="M 175 90 Q 176 90 178 92 Q 182 95 181 104 Q 180 115 179 129 L 168 131 Q 167 94 166 91" fill="#000080" clip-path="url(#clip-mask-14)" /><path d="M 143 108 L 143 106 Q 144 104 145 104 Q 158 110 161 116 Q 161 120 161 122 Q 160 125 157 125 Q 153 124 144 109" fill="#000080" clip-path="url(#clip-mask-15)" /><path d="M 198 97 L 198 95 Q 198 91 200 91 Q 205 91 208 94 Q 212 98 213 100 Q 214 102 211 103 Q 204 108 189 118 Q 188 119 186 119 Q 185 117 186 116 Q 193 106 197 100" fill="#000080" clip-path="url(#clip-mask-16)" /><path d="M 140 135 Q 153 132 168 131 L 179 129 Q 205 123 209 125 Q 213 127 214 129 L 214 133 Q 213 133 213 133 Q 143 139 140 143" fill="#000080" clip-path="url(#clip-mask-17)" /><path d="M 151 237 L 149 241 Q 146 244 144 241 Q 134 228 140 216 Q 144 177 138 167 Q 138 166 137 164 Q 136 162 138 160 Q 140 160 142 161 Q 149 164 151 166 L 153 174 Q 152 176 152 194 L 152 201 Q 152 223 152 223 L 151 232" fill="#000080" clip-path="url(#clip-mask-18)" /><path d="M 201 164 Q 198 162 192 163 Q 157 173 153 174 L 151 166 Q 182 159 196 151 Q 200 149 204 151 Q 217 157 221 161" fill="#000080" clip-path="url(#clip-mask-19)" /><path d="M 203 220 Q 204 217 204 206 Q 205 167 201 164 L 221 161 Q 223 164 221 167 Q 217 172 217 179 Q 219 207 221 221 Q 222 232 218 242 Q 214 250 210 251 Q 207 251 205 246" fill="#000080" clip-path="url(#clip-mask-20)" /><path d="M 198 223 Q 202 225 203 220 L 205 246 Q 199 237 191 226" fill="#000080" clip-path="url(#clip-mask-21)" /><path d="M 152 194 Q 156 193 160 192 Q 166 191 171 189 Q 176 187 182 188 Q 187 189 188 191 Q 189 193 188 194 Q 187 194 187 194 Q 160 201 152 201" fill="#000080" clip-path="url(#clip-mask-22)" /><path d="M 152 223 Q 164 221 180 217 Q 186 216 190 218 Q 194 220 196 222 Q 197 223 198 223 L 191 226 Q 164 228 152 231 Q 151 231 151 232" fill="#000080" clip-path="url(#clip-mask-23)" /><rect x="41" y="57" width="18" height="118" id="rect-1" fill="transparent" stroke="#000000"><animate attributeName="y" from="-61" to="57" dur="0.437" begin="0; animate23.end + 1s" id="animate1" fill="freeze"/></rect><rect x="57" y="51" width="54" height="19" id="rect-2" fill="transparent" stroke="#000000"><set attributeName="x" to="3" begin="0; animate23.end + 1s" /><animate attributeName="x" from="3" to="57" dur="0.200" begin="animate1.end + 0.5" id="animate2" fill="freeze"/></rect><rect x="84" y="66" width="25" height="115" id="rect-3" fill="transparent" stroke="#000000"><set attributeName="y" to="-49" begin="0; animate23.end + 1s" /><animate attributeName="y" from="-49" to="66" dur="0.426" begin="animate2.end" id="animate3" fill="freeze"/></rect><rect x="58" y="92" width="29" height="12" id="rect-4" fill="transparent" stroke="#000000"><set attributeName="x" to="29" begin="0; animate23.end + 1s" /><animate attributeName="x" from="29" to="58" dur="0.107" begin="animate3.end + 0.5" id="animate4" fill="freeze"/></rect><rect x="58" y="124" width="29" height="13" id="rect-5" fill="transparent" stroke="#000000"><set attributeName="x" to="29" begin="0; animate23.end + 1s" /><animate attributeName="x" from="29" to="58" dur="0.107" begin="animate4.end + 0.5" id="animate5" fill="freeze"/></rect><rect x="57" y="152" width="33" height="14" id="rect-6" fill="transparent" stroke="#000000"><set attributeName="x" to="24" begin="0; animate23.end + 1s" /><animate attributeName="x" from="24" to="57" dur="0.122" begin="animate5.end + 0.5" id="animate6" fill="freeze"/></rect><rect x="18" y="180" width="59" height="59" id="rect-7" fill="transparent" stroke="#000000"><set attributeName="y" to="121" begin="0; animate23.end + 1s" /><animate attributeName="y" from="121" to="180" dur="0.219" begin="animate6.end + 0.5" id="animate7" fill="freeze"/></rect><rect x="86" y="189" width="29" height="30" id="rect-8" fill="transparent" stroke="#000000"><set attributeName="x" to="57" begin="0; animate23.end + 1s" /><animate attributeName="x" from="57" to="86" dur="0.107" begin="animate7.end + 0.5" id="animate8" fill="freeze"/></rect><rect x="127" y="43" width="34" height="31" id="rect-9" fill="transparent" stroke="#000000"><set attributeName="y" to="12" begin="0; animate23.end + 1s" /><animate attributeName="y" from="12" to="43" dur="0.115" begin="animate8.end + 0.5" id="animate9" fill="freeze"/></rect><rect x="177" y="18" width="52" height="55" id="rect-10" fill="transparent" stroke="#000000"><set attributeName="y" to="-37" begin="0; animate23.end + 1s" /><animate attributeName="y" from="-37" to="18" dur="0.204" begin="animate9.end + 0.5" id="animate10" fill="freeze"/></rect><rect x="115" y="90" width="25" height="58" id="rect-11" fill="transparent" stroke="#000000"><set attributeName="y" to="32" begin="0; animate23.end + 1s" /><animate attributeName="y" from="32" to="90" dur="0.215" begin="animate10.end + 0.5" id="animate11" fill="freeze"/></rect><rect x="127" y="72" width="120" height="27" id="rect-12" fill="transparent" stroke="#000000"><set attributeName="x" to="7" begin="0; animate23.end + 1s" /><animate attributeName="x" from="7" to="127" dur="0.444" begin="animate11.end + 0.5" id="animate12" fill="freeze"/></rect><rect x="214" y="84" width="37" height="56" id="rect-13" fill="transparent" stroke="#000000"><set attributeName="y" to="28" begin="0; animate23.end + 1s" /><animate attributeName="y" from="28" to="84" dur="0.207" begin="animate12.end" id="animate13" fill="freeze"/></rect><rect x="166" y="90" width="16" height="41" id="rect-14" fill="transparent" stroke="#000000"><set attributeName="y" to="49" begin="0; animate23.end + 1s" /><animate attributeName="y" from="49" to="90" dur="0.152" begin="animate13.end + 0.5" id="animate14" fill="freeze"/></rect><rect x="143" y="104" width="18" height="21" id="rect-15" fill="transparent" stroke="#000000"><set attributeName="y" to="83" begin="0; animate23.end + 1s" /><animate attributeName="y" from="83" to="104" dur="0.078" begin="animate14.end + 0.5" id="animate15" fill="freeze"/></rect><rect x="185" y="91" width="29" height="28" id="rect-16" fill="transparent" stroke="#000000"><set attributeName="y" to="63" begin="0; animate23.end + 1s" /><animate attributeName="y" from="63" to="91" dur="0.104" begin="animate15.end + 0.5" id="animate16" fill="freeze"/></rect><rect x="140" y="123" width="74" height="20" id="rect-17" fill="transparent" stroke="#000000"><set attributeName="x" to="66" begin="0; animate23.end + 1s" /><animate attributeName="x" from="66" to="140" dur="0.274" begin="animate16.end + 0.5" id="animate17" fill="freeze"/></rect><rect x="134" y="160" width="19" height="84" id="rect-18" fill="transparent" stroke="#000000"><set attributeName="y" to="76" begin="0; animate23.end + 1s" /><animate attributeName="y" from="76" to="160" dur="0.311" begin="animate17.end + 0.5" id="animate18" fill="freeze"/></rect><rect x="151" y="149" width="70" height="25" id="rect-19" fill="transparent" stroke="#000000"><set attributeName="x" to="81" begin="0; animate23.end + 1s" /><animate attributeName="x" from="81" to="151" dur="0.259" begin="animate18.end + 0.5" id="animate19" fill="freeze"/></rect><rect x="201" y="161" width="22" height="90" id="rect-20" fill="transparent" stroke="#000000"><set attributeName="y" to="71" begin="0; animate23.end + 1s" /><animate attributeName="y" from="71" to="161" dur="0.333" begin="animate19.end" id="animate20" fill="freeze"/></rect><rect x="191" y="220" width="14" height="26" id="rect-21" fill="transparent" stroke="#000000"><set attributeName="x" to="205" begin="0; animate23.end + 1s" /><animate attributeName="x" from="205" to="191" dur="0.052" begin="animate20.end" id="animate21" fill="freeze"/></rect><rect x="152" y="187" width="37" height="14" id="rect-22" fill="transparent" stroke="#000000"><set attributeName="x" to="115" begin="0; animate23.end + 1s" /><animate attributeName="x" from="115" to="152" dur="0.137" begin="animate21.end + 0.5" id="animate22" fill="freeze"/></rect><rect x="151" y="216" width="47" height="16" id="rect-23" fill="transparent" stroke="#000000"><set attributeName="x" to="104" begin="0; animate23.end + 1s" /><animate attributeName="x" from="104" to="151" dur="0.174" begin="animate22.end + 0.5" id="animate23" fill="freeze"/></rect></svg>