<svg xmlns="http://www.w3.org/2000/svg" xmlns:xlink="http://www.w3.org/1999/xlink" width="270" height="270"><defs><clipPath id="clip-mask-1"><use xlink:href="#rect-1" /></clipPath><clipPath id="clip-mask-2"><use xlink:href="#rect-2" /></clipPath><clipPath id="clip-mask-3"><use xlink:href="#rect-3" /></clipPath><clipPath id="clip-mask-4"><use xlink:href="#rect-4" /></clipPath><clipPath id="clip-mask-5"><use xlink:href="#rect-5" /></clipPath><clipPath id="clip-mask-6"><use xlink:href="#rect-6" /></clipPath><clipPath id="clip-mask-7"><use xlink:href="#rect-7" /></clipPath><clipPath id="clip-mask-8"><use xlink:href="#rect-8" /></clipPath><clipPath id="clip-mask-9"><use xlink:href="#rect-9" /></clipPath><clipPath id="clip-mask-10"><use xlink:href="#rect-10" /></clipPath><clipPath id="clip-mask-11"><use xlink:href="#rect-11" /></clipPath><clipPath id="clip-mask-12"><use xlink:href="#rect-12" /></clipPath><clipPath id="clip-mask-13"><use xlink:href="#rect-13" /></clipPath><clipPath id="clip-mask-14"><use xlink:href="#rect-14" /></clipPath><clipPath id="clip-mask-15"><use xlink:href="#rect-15" /></clipPath><clipPath id="clip-mask-16"><use xlink:href="#rect-16" /></clipPath><clipPath id="clip-mask-17"><use xlink:href="#rect-17" /></clipPath><clipPath id="clip-mask-18"><use xlink:href="#rect-18" /></clipPath></defs><path d="M 0 0 L 270 270 M 270 0 L 0 270 M 135 0 L 135 270 M 0 135 L 270 135" stroke="#CCCCCC" /><path d="M 62 112 Q 62 115 61 117 Q 60 121 56 115 Q 52 111 51 104 Q 47 82 40 69 Q 38 65 40 64 Q 41 62 43 63 Q 52 64 54 66 L 57 73 Q 58 80 61 103 Q 61 104 62 105" fill="#CCCCCC"/><path d="M 54 66 Q 71 63 82 58 Q 94 52 99 55 Q 105 59 110 62 L 91 68 Q 89 65 82 67 Q 59 72 57 73" fill="#CCCCCC"/><path d="M 85 98 Q 88 87 90 78 Q 93 69 91 68 L 110 62 Q 115 66 109 71 Q 103 78 97 99" fill="#CCCCCC"/><path d="M 68 112 Q 67 112 67 112 Q 64 113 62 112 L 62 105 Q 72 102 85 98 L 97 99 Q 102 101 102 103 Q 102 105 100 105 Q 87 107 78 110" fill="#CCCCCC"/><path d="M 73 186 Q 72 159 72 144 Q 72 117 68 112 L 78 110 Q 87 116 85 121 Q 84 129 84 140 L 84 149 Q 83 164 82 183" fill="#CCCCCC"/><path d="M 84 140 Q 90 135 102 135 Q 108 135 111 139 Q 114 142 108 143 Q 98 145 84 149 Q 83 149 84 149" fill="#CCCCCC"/><path d="M 42 164 L 40 156 Q 37 148 32 140 Q 31 137 32 135 Q 34 133 38 135 Q 44 136 50 140 Q 53 143 53 148 Q 52 156 56 192 L 47 195" fill="#CCCCCC"/><path d="M 56 192 Q 65 189 73 186 L 82 183 Q 93 179 104 175 Q 107 174 109 175 Q 109 178 106 180 Q 101 183 95 186 Q 49 210 42 216 Q 39 218 36 218 Q 27 213 22 209 Q 19 207 19 204 Q 20 201 23 200 Q 31 200 36 199 Q 41 197 47 195" fill="#CCCCCC"/><path d="M 122 116 L 115 119 Q 112 120 112 117 Q 112 115 115 112 Q 138 76 148 48 Q 152 34 149 29 Q 146 23 151 22 Q 156 22 163 26 Q 171 31 172 35 Q 173 38 171 41 Q 167 46 163 55 Q 153 74 143 87 L 141 91" fill="#CCCCCC"/><path d="M 143 87 Q 144 87 144 87 Q 162 86 196 75 Q 208 68 215 72 Q 224 76 228 80 Q 230 83 226 88 L 205 86 Q 204 84 201 85 Q 180 88 156 96 Q 151 98 145 94 Q 141 92 141 91" fill="#CCCCCC"/><path d="M 226 88 Q 221 94 220 105 Q 214 157 201 169 Q 196 174 192 174 L 194 150 Q 197 147 200 138 Q 204 123 206 96 Q 207 88 205 86" fill="#CCCCCC"/><path d="M 192 174 Q 188 175 187 171 Q 182 163 174 153 Q 170 148 175 149 Q 180 150 185 151 Q 191 152 194 150" fill="#CCCCCC"/><path d="M 149 124 L 156 118 Q 157 117 159 117 Q 161 117 175 124 Q 181 127 176 133 L 159 131 Q 158 129 153 130 Q 150 131 135 136 L 132 130" fill="#CCCCCC"/><path d="M 176 133 Q 170 138 165 157 L 154 156 Q 157 147 159 140 Q 161 132 159 131" fill="#CCCCCC"/><path d="M 165 157 Q 170 160 170 162 Q 170 164 167 164 Q 145 168 135 171 Q 132 172 130 172 L 131 163 Q 139 160 151 156 Q 152 156 154 156" fill="#CCCCCC"/><path d="M 130 172 Q 126 202 133 214 L 129 231 Q 122 226 121 219 Q 117 204 121 149 Q 122 140 120 131 Q 118 127 120 126 Q 122 125 125 126 Q 129 128 132 130 L 135 136 Q 135 137 135 138 Q 132 151 131 163" fill="#CCCCCC"/><path d="M 133 214 Q 135 220 145 224 Q 156 228 171 228 Q 209 227 222 215 L 247 215 Q 250 222 245 226 Q 231 234 218 238 Q 210 240 203 241 Q 150 247 129 231" fill="#CCCCCC"/><path d="M 222 215 Q 228 205 236 174 Q 237 170 238 171 Q 240 172 240 176 Q 244 206 247 215" fill="#CCCCCC"/><path d="M 62 112 Q 62 115 61 117 Q 60 121 56 115 Q 52 111 51 104 Q 47 82 40 69 Q 38 65 40 64 Q 41 62 43 63 Q 52 64 54 66 L 57 73 Q 58 80 61 103 Q 61 104 62 105" fill="#0000ff" clip-path="url(#clip-mask-1)" /><path d="M 54 66 Q 71 63 82 58 Q 94 52 99 55 Q 105 59 110 62 L 91 68 Q 89 65 82 67 Q 59 72 57 73" fill="#0000ff" clip-path="url(#clip-mask-2)" /><path d="M 85 98 Q 88 87 90 78 Q 93 69 91 68 L 110 62 Q 115 66 109 71 Q 103 78 97 99" fill="#0000ff" clip-path="url(#clip-mask-3)" /><path d="M 68 112 Q 67 112 67 112 Q 64 113 62 112 L 62 105 Q 72 102 85 98 L 97 99 Q 102 101 102 103 Q 102 105 100 105 Q 87 107 78 110" fill="#0000ff" clip-path="url(#clip-mask-4)" /><path d="M 73 186 Q 72 159 72 144 Q 72 117 68 112 L 78 110 Q 87 116 85 121 Q 84 129 84 140 L 84 149 Q 83 164 82 183" fill="#0000ff" clip-path="url(#clip-mask-5)" /><path d="M 84 140 Q 90 135 102 135 Q 108 135 111 139 Q 114 142 108 143 Q 98 145 84 149 Q 83 149 84 149" fill="#0000ff" clip-path="url(#clip-mask-6)" /><path d="M 42 164 L 40 156 Q 37 148 32 140 Q 31 137 32 135 Q 34 133 38 135 Q 44 136 50 140 Q 53 143 53 148 Q 52 156 56 192 L 47 195" fill="#0000ff" clip-path="url(#clip-mask-7)" /><path d="M 56 192 Q 65 189 73 186 L 82 183 Q 93 179 104 175 Q 107 174 109 175 Q 109 178 106 180 Q 101 183 95 186 Q 49 210 42 216 Q 39 218 36 218 Q 27 213 22 209 Q 19 207 19 204 Q 20 201 23 200 Q 31 200 36 199 Q 41 197 47 195" fill="#0000ff" clip-path="url(#clip-mask-8)" /><path d="M 122 116 L 115 119 Q 112 120 112 117 Q 112 115 115 112 Q 138 76 148 48 Q 152 34 149 29 Q 146 23 151 22 Q 156 22 163 26 Q 171 31 172 35 Q 173 38 171 41 Q 167 46 163 55 Q 153 74 143 87 L 141 91" fill="#000080" clip-path="url(#clip-mask-9)" /><path d="M 143 87 Q 144 87 144 87 Q 162 86 196 75 Q 208 68 215 72 Q 224 76 228 80 Q 230 83 226 88 L 205 86 Q 204 84 201 85 Q 180 88 156 96 Q 151 98 145 94 Q 141 92 141 91" fill="#000080" clip-path="url(#clip-mask-10)" /><path d="M 226 88 Q 221 94 220 105 Q 214 157 201 169 Q 196 174 192 174 L 194 150 Q 197 147 200 138 Q 204 123 206 96 Q 207 88 205 86" fill="#000080" clip-path="url(#clip-mask-11)" /><path d="M 192 174 Q 188 175 187 171 Q 182 163 174 153 Q 170 148 175 149 Q 180 150 185 151 Q 191 152 194 150" fill="#000080" clip-path="url(#clip-mask-12)" /><path d="M 149 124 L 156 118 Q 157 117 159 117 Q 161 117 175 124 Q 181 127 176 133 L 159 131 Q 158 129 153 130 Q 150 131 135 136 L 132 130" fill="#000080" clip-path="url(#clip-mask-13)" /><path d="M 176 133 Q 170 138 165 157 L 154 156 Q 157 147 159 140 Q 161 132 159 131" fill="#000080" clip-path="url(#clip-mask-14)" /><path d="M 165 157 Q 170 160 170 162 Q 170 164 167 164 Q 145 168 135 171 Q 132 172 130 172 L 131 163 Q 139 160 151 156 Q 152 156 154 156" fill="#000080" clip-path="url(#clip-mask-15)" /><path d="M 130 172 Q 126 202 133 214 L 129 231 Q 122 226 121 219 Q 117 204 121 149 Q 122 140 120 131 Q 118 127 120 126 Q 122 125 125 126 Q 129 128 132 130 L 135 136 Q 135 137 135 138 Q 132 151 131 163" fill="#000080" clip-path="url(#clip-mask-16)" /><path d="M 133 214 Q 135 220 145 224 Q 156 228 171 228 Q 209 227 222 215 L 247 215 Q 250 222 245 226 Q 231 234 218 238 Q 210 240 203 241 Q 150 247 129 231" fill="#000080" clip-path="url(#clip-mask-17)" /><path d="M 222 215 Q 228 205 236 174 Q 237 170 238 171 Q 240 172 240 176 Q 244 206 247 215" fill="#000080" clip-path="url(#clip-mask-18)" /><rect x="38" y="62" width="24" height="59" id="rect-1" fill="transparent" stroke="#000000"><animate attributeName="y" from="3" to="62" dur="0.219" begin="0; animate18.end + 1s" id="animate1" fill="freeze"/></rect><rect x="54" y="52" width="56" height="21" id="rect-2" fill="transparent" stroke="#000000"><set attributeName="x" to="-2" begin="0; animate18.end + 1s" /><animate attributeName="x" from="-2" to="54" dur="0.207" begin="animate1.end + 0.5" id="animate2" fill="freeze"/></rect><rect x="85" y="62" width="30" height="37" id="rect-3" fill="transparent" stroke="#000000"><set attributeName="y" to="25" begin="0; animate18.end + 1s" /><animate attributeName="y" from="25" to="62" dur="0.137" begin="animate2.end" id="animate3" fill="freeze"/></rect><rect x="62" y="98" width="40" height="15" id="rect-4" fill="transparent" stroke="#000000"><set attributeName="x" to="22" begin="0; animate18.end + 1s" /><animate attributeName="x" from="22" to="62" dur="0.148" begin="animate3.end + 0.5" id="animate4" fill="freeze"/></rect><rect x="68" y="110" width="19" height="76" id="rect-5" fill="transparent" stroke="#000000"><set attributeName="y" to="34" begin="0; animate18.end + 1s" /><animate attributeName="y" from="34" to="110" dur="0.281" begin="animate4.end + 0.5" id="animate5" fill="freeze"/></rect><rect x="83" y="135" width="31" height="14" id="rect-6" fill="transparent" stroke="#000000"><set attributeName="x" to="52" begin="0; animate18.end + 1s" /><animate attributeName="x" from="52" to="83" dur="0.115" begin="animate5.end + 0.5" id="animate6" fill="freeze"/></rect><rect x="31" y="133" width="25" height="62" id="rect-7" fill="transparent" stroke="#000000"><set attributeName="y" to="71" begin="0; animate18.end + 1s" /><animate attributeName="y" from="71" to="133" dur="0.230" begin="animate6.end + 0.5" id="animate7" fill="freeze"/></rect><rect x="19" y="174" width="90" height="44" id="rect-8" fill="transparent" stroke="#000000"><set attributeName="x" to="-71" begin="0; animate18.end + 1s" /><animate attributeName="x" from="-71" to="19" dur="0.333" begin="animate7.end + 0.5" id="animate8" fill="freeze"/></rect><rect x="112" y="22" width="61" height="98" id="rect-9" fill="transparent" stroke="#000000"><set attributeName="y" to="-76" begin="0; animate18.end + 1s" /><animate attributeName="y" from="-76" to="22" dur="0.363" begin="animate8.end + 0.5" id="animate9" fill="freeze"/></rect><rect x="141" y="68" width="89" height="30" id="rect-10" fill="transparent" stroke="#000000"><set attributeName="x" to="52" begin="0; animate18.end + 1s" /><animate attributeName="x" from="52" to="141" dur="0.330" begin="animate9.end + 0.5" id="animate10" fill="freeze"/></rect><rect x="192" y="86" width="34" height="88" id="rect-11" fill="transparent" stroke="#000000"><set attributeName="y" to="-2" begin="0; animate18.end + 1s" /><animate attributeName="y" from="-2" to="86" dur="0.326" begin="animate10.end" id="animate11" fill="freeze"/></rect><rect x="170" y="148" width="24" height="27" id="rect-12" fill="transparent" stroke="#000000"><set attributeName="x" to="194" begin="0; animate18.end + 1s" /><animate attributeName="x" from="194" to="170" dur="0.089" begin="animate11.end" id="animate12" fill="freeze"/></rect><rect x="132" y="117" width="49" height="19" id="rect-13" fill="transparent" stroke="#000000"><set attributeName="x" to="83" begin="0; animate18.end + 1s" /><animate attributeName="x" from="83" to="132" dur="0.181" begin="animate12.end + 0.5" id="animate13" fill="freeze"/></rect><rect x="154" y="131" width="22" height="26" id="rect-14" fill="transparent" stroke="#000000"><set attributeName="y" to="105" begin="0; animate18.end + 1s" /><animate attributeName="y" from="105" to="131" dur="0.096" begin="animate13.end" id="animate14" fill="freeze"/></rect><rect x="130" y="156" width="40" height="16" id="rect-15" fill="transparent" stroke="#000000"><set attributeName="x" to="90" begin="0; animate18.end + 1s" /><animate attributeName="x" from="90" to="130" dur="0.148" begin="animate14.end + 0.5" id="animate15" fill="freeze"/></rect><rect x="117" y="125" width="18" height="106" id="rect-16" fill="transparent" stroke="#000000"><set attributeName="y" to="19" begin="0; animate18.end + 1s" /><animate attributeName="y" from="19" to="125" dur="0.393" begin="animate15.end + 0.5" id="animate16" fill="freeze"/></rect><rect x="129" y="214" width="121" height="33" id="rect-17" fill="transparent" stroke="#000000"><set attributeName="x" to="8" begin="0; animate18.end + 1s" /><animate attributeName="x" from="8" to="129" dur="0.448" begin="animate16.end" id="animate17" fill="freeze"/></rect><rect x="222" y="170" width="25" height="45" id="rect-18" fill="transparent" stroke="#000000"><set attributeName="y" to="215" begin="0; animate18.end + 1s" /><animate attributeName="y" from="215" to="170" dur="0.167" begin="animate17.end" id="animate18" fill="freeze"/></rect></svg>