<svg xmlns="http://www.w3.org/2000/svg" xmlns:xlink="http://www.w3.org/1999/xlink" width="270" height="270"><defs><clipPath id="clip-mask-1"><use xlink:href="#rect-1" /></clipPath><clipPath id="clip-mask-2"><use xlink:href="#rect-2" /></clipPath><clipPath id="clip-mask-3"><use xlink:href="#rect-3" /></clipPath><clipPath id="clip-mask-4"><use xlink:href="#rect-4" /></clipPath><clipPath id="clip-mask-5"><use xlink:href="#rect-5" /></clipPath><clipPath id="clip-mask-6"><use xlink:href="#rect-6" /></clipPath><clipPath id="clip-mask-7"><use xlink:href="#rect-7" /></clipPath><clipPath id="clip-mask-8"><use xlink:href="#rect-8" /></clipPath><clipPath id="clip-mask-9"><use xlink:href="#rect-9" /></clipPath><clipPath id="clip-mask-10"><use xlink:href="#rect-10" /></clipPath><clipPath id="clip-mask-11"><use xlink:href="#rect-11" /></clipPath><clipPath id="clip-mask-12"><use xlink:href="#rect-12" /></clipPath><clipPath id="clip-mask-13"><use xlink:href="#rect-13" /></clipPath><clipPath id="clip-mask-14"><use xlink:href="#rect-14" /></clipPath><clipPath id="clip-mask-15"><use xlink:href="#rect-15" /></clipPath><clipPath id="clip-mask-16"><use xlink:href="#rect-16" /></clipPath><clipPath id="clip-mask-17"><use xlink:href="#rect-17" /></clipPath><clipPath id="clip-mask-18"><use xlink:href="#rect-18" /></clipPath><clipPath id="clip-mask-19"><use xlink:href="#rect-19" /></clipPath><clipPath id="clip-mask-20"><use xlink:href="#rect-20" /></clipPath></defs><path d="M 0 0 L 270 270 M 270 0 L 0 270 M 135 0 L 135 270 M 0 135 L 270 135" stroke="#CCCCCC" /><path d="M 71 112 Q 70 114 70 116 Q 69 120 64 115 Q 60 111 59 104 Q 53 83 45 70 Q 43 66 44 64 Q 45 63 48 64 Q 57 64 60 66 L 63 74 Q 65 91 70 104" fill="#CCCCCC"/><path d="M 60 66 Q 79 62 92 57 Q 103 51 109 54 Q 116 59 121 62 Q 127 67 120 73 L 100 69 Q 98 65 91 67 Q 78 70 63 74" fill="#CCCCCC"/><path d="M 94 97 Q 97 87 99 79 Q 102 70 100 69 L 120 73 Q 114 79 108 98" fill="#CCCCCC"/><path d="M 77 110 Q 75 111 73 111 Q 72 112 71 112 L 70 104 Q 80 101 94 97 L 108 98 Q 112 101 112 102 Q 112 104 110 105 Q 96 106 87 108" fill="#CCCCCC"/><path d="M 81 190 Q 81 131 80 124 Q 80 119 77 110 L 87 108 Q 90 111 94 114 Q 95 116 94 128 Q 94 131 93 135 L 93 144 Q 92 163 92 186" fill="#CCCCCC"/><path d="M 93 135 Q 104 130 113 131 Q 120 131 123 135 Q 125 138 119 139 Q 108 142 93 144" fill="#CCCCCC"/><path d="M 47 156 L 40 145 Q 38 141 40 140 Q 42 138 45 139 Q 52 141 58 145 Q 62 148 62 153 Q 61 160 64 195 L 54 198" fill="#CCCCCC"/><path d="M 64 195 Q 73 192 81 190 L 92 186 Q 106 180 118 176 Q 122 175 123 177 Q 123 179 120 181 Q 114 185 107 189 Q 53 213 44 221 Q 41 223 38 222 Q 29 218 23 213 Q 21 211 21 208 Q 22 205 25 205 Q 34 205 40 203 Q 47 200 54 198" fill="#CCCCCC"/><path d="M 185 42 L 185 38 Q 185 35 187 34 Q 195 32 212 42 Q 215 45 214 48 Q 213 50 209 50 Q 192 55 185 61 Q 156 74 147 74 Q 145 73 146 71 Q 170 56 182 45" fill="#CCCCCC"/><path d="M 126 93 L 125 90 Q 126 87 127 86 Q 130 86 143 93 Q 148 96 149 100 Q 150 107 148 110 Q 146 112 144 112 Q 140 112 138 109 Q 134 103 131 98" fill="#CCCCCC"/><path d="M 161 84 L 161 81 Q 161 78 163 78 Q 165 78 168 79 Q 183 85 184 94 Q 184 98 183 101 Q 180 103 177 102 Q 172 99 164 87" fill="#CCCCCC"/><path d="M 218 74 L 217 69 Q 216 66 219 65 Q 222 64 229 68 Q 236 71 240 75 Q 243 80 237 83 Q 231 86 215 100 Q 207 106 194 115 Q 189 116 192 111 Q 211 87 215 79" fill="#CCCCCC"/><path d="M 132 148 Q 133 146 135 144 Q 151 125 150 121 Q 150 118 152 118 Q 155 117 160 121 Q 166 124 169 128 Q 171 132 166 134 Q 160 136 147 145 Q 143 148 137 151" fill="#CCCCCC"/><path d="M 144 219 Q 143 224 142 228 Q 140 232 136 226 Q 131 219 131 208 Q 127 173 119 151 Q 117 147 119 145 Q 120 144 124 145 Q 129 146 132 148 L 137 151 Q 138 152 138 155 Q 138 159 139 171 L 140 179 L 144 210" fill="#CCCCCC"/><path d="M 139 171 Q 152 165 162 166 Q 168 167 171 170 Q 173 173 167 175 Q 155 176 140 179" fill="#CCCCCC"/><path d="M 221 136 Q 219 135 203 139 Q 191 141 184 137 Q 182 136 182 134 Q 183 133 184 133 Q 196 131 204 129 Q 212 127 219 124 Q 226 122 230 124 Q 241 130 245 135" fill="#CCCCCC"/><path d="M 211 209 Q 214 209 214 204 Q 218 188 220 173 L 221 164 Q 223 153 223 144 Q 224 137 221 136 L 245 135 Q 248 138 244 142 Q 238 149 237 160 Q 234 176 232 191 Q 230 213 221 230 Q 219 237 215 237 Q 212 237 210 233" fill="#CCCCCC"/><path d="M 211 209 Q 211 209 211 209 L 210 233 Q 205 221 203 214" fill="#CCCCCC"/><path d="M 220 173 Q 210 173 198 173 Q 194 173 193 172 Q 188 168 192 167 Q 214 162 221 164" fill="#CCCCCC"/><path d="M 167 216 L 150 219 Q 147 219 144 219 L 144 210 Q 165 207 191 202 Q 199 201 204 203 Q 209 207 211 209 L 203 214" fill="#CCCCCC"/><path d="M 71 112 Q 70 114 70 116 Q 69 120 64 115 Q 60 111 59 104 Q 53 83 45 70 Q 43 66 44 64 Q 45 63 48 64 Q 57 64 60 66 L 63 74 Q 65 91 70 104" fill="#0000ff" clip-path="url(#clip-mask-1)" /><path d="M 60 66 Q 79 62 92 57 Q 103 51 109 54 Q 116 59 121 62 Q 127 67 120 73 L 100 69 Q 98 65 91 67 Q 78 70 63 74" fill="#0000ff" clip-path="url(#clip-mask-2)" /><path d="M 94 97 Q 97 87 99 79 Q 102 70 100 69 L 120 73 Q 114 79 108 98" fill="#0000ff" clip-path="url(#clip-mask-3)" /><path d="M 77 110 Q 75 111 73 111 Q 72 112 71 112 L 70 104 Q 80 101 94 97 L 108 98 Q 112 101 112 102 Q 112 104 110 105 Q 96 106 87 108" fill="#0000ff" clip-path="url(#clip-mask-4)" /><path d="M 81 190 Q 81 131 80 124 Q 80 119 77 110 L 87 108 Q 90 111 94 114 Q 95 116 94 128 Q 94 131 93 135 L 93 144 Q 92 163 92 186" fill="#0000ff" clip-path="url(#clip-mask-5)" /><path d="M 93 135 Q 104 130 113 131 Q 120 131 123 135 Q 125 138 119 139 Q 108 142 93 144" fill="#0000ff" clip-path="url(#clip-mask-6)" /><path d="M 47 156 L 40 145 Q 38 141 40 140 Q 42 138 45 139 Q 52 141 58 145 Q 62 148 62 153 Q 61 160 64 195 L 54 198" fill="#0000ff" clip-path="url(#clip-mask-7)" /><path d="M 64 195 Q 73 192 81 190 L 92 186 Q 106 180 118 176 Q 122 175 123 177 Q 123 179 120 181 Q 114 185 107 189 Q 53 213 44 221 Q 41 223 38 222 Q 29 218 23 213 Q 21 211 21 208 Q 22 205 25 205 Q 34 205 40 203 Q 47 200 54 198" fill="#0000ff" clip-path="url(#clip-mask-8)" /><path d="M 185 42 L 185 38 Q 185 35 187 34 Q 195 32 212 42 Q 215 45 214 48 Q 213 50 209 50 Q 192 55 185 61 Q 156 74 147 74 Q 145 73 146 71 Q 170 56 182 45" fill="#000080" clip-path="url(#clip-mask-9)" /><path d="M 126 93 L 125 90 Q 126 87 127 86 Q 130 86 143 93 Q 148 96 149 100 Q 150 107 148 110 Q 146 112 144 112 Q 140 112 138 109 Q 134 103 131 98" fill="#000080" clip-path="url(#clip-mask-10)" /><path d="M 161 84 L 161 81 Q 161 78 163 78 Q 165 78 168 79 Q 183 85 184 94 Q 184 98 183 101 Q 180 103 177 102 Q 172 99 164 87" fill="#000080" clip-path="url(#clip-mask-11)" /><path d="M 218 74 L 217 69 Q 216 66 219 65 Q 222 64 229 68 Q 236 71 240 75 Q 243 80 237 83 Q 231 86 215 100 Q 207 106 194 115 Q 189 116 192 111 Q 211 87 215 79" fill="#000080" clip-path="url(#clip-mask-12)" /><path d="M 132 148 Q 133 146 135 144 Q 151 125 150 121 Q 150 118 152 118 Q 155 117 160 121 Q 166 124 169 128 Q 171 132 166 134 Q 160 136 147 145 Q 143 148 137 151" fill="#000080" clip-path="url(#clip-mask-13)" /><path d="M 144 219 Q 143 224 142 228 Q 140 232 136 226 Q 131 219 131 208 Q 127 173 119 151 Q 117 147 119 145 Q 120 144 124 145 Q 129 146 132 148 L 137 151 Q 138 152 138 155 Q 138 159 139 171 L 140 179 L 144 210" fill="#000080" clip-path="url(#clip-mask-14)" /><path d="M 139 171 Q 152 165 162 166 Q 168 167 171 170 Q 173 173 167 175 Q 155 176 140 179" fill="#000080" clip-path="url(#clip-mask-15)" /><path d="M 221 136 Q 219 135 203 139 Q 191 141 184 137 Q 182 136 182 134 Q 183 133 184 133 Q 196 131 204 129 Q 212 127 219 124 Q 226 122 230 124 Q 241 130 245 135" fill="#000080" clip-path="url(#clip-mask-16)" /><path d="M 211 209 Q 214 209 214 204 Q 218 188 220 173 L 221 164 Q 223 153 223 144 Q 224 137 221 136 L 245 135 Q 248 138 244 142 Q 238 149 237 160 Q 234 176 232 191 Q 230 213 221 230 Q 219 237 215 237 Q 212 237 210 233" fill="#000080" clip-path="url(#clip-mask-17)" /><path d="M 211 209 Q 211 209 211 209 L 210 233 Q 205 221 203 214" fill="#000080" clip-path="url(#clip-mask-18)" /><path d="M 220 173 Q 210 173 198 173 Q 194 173 193 172 Q 188 168 192 167 Q 214 162 221 164" fill="#000080" clip-path="url(#clip-mask-19)" /><path d="M 167 216 L 150 219 Q 147 219 144 219 L 144 210 Q 165 207 191 202 Q 199 201 204 203 Q 209 207 211 209 L 203 214" fill="#000080" clip-path="url(#clip-mask-20)" /><rect x="43" y="63" width="28" height="57" id="rect-1" fill="transparent" stroke="#000000"><animate attributeName="y" from="6" to="63" dur="0.211" begin="0; animate20.end + 1s" id="animate1" fill="freeze"/></rect><rect x="60" y="51" width="67" height="23" id="rect-2" fill="transparent" stroke="#000000"><set attributeName="x" to="-7" begin="0; animate20.end + 1s" /><animate attributeName="x" from="-7" to="60" dur="0.248" begin="animate1.end + 0.5" id="animate2" fill="freeze"/></rect><rect x="94" y="69" width="26" height="29" id="rect-3" fill="transparent" stroke="#000000"><set attributeName="y" to="40" begin="0; animate20.end + 1s" /><animate attributeName="y" from="40" to="69" dur="0.107" begin="animate2.end" id="animate3" fill="freeze"/></rect><rect x="70" y="97" width="42" height="15" id="rect-4" fill="transparent" stroke="#000000"><set attributeName="x" to="28" begin="0; animate20.end + 1s" /><animate attributeName="x" from="28" to="70" dur="0.156" begin="animate3.end + 0.5" id="animate4" fill="freeze"/></rect><rect x="77" y="108" width="18" height="82" id="rect-5" fill="transparent" stroke="#000000"><set attributeName="y" to="26" begin="0; animate20.end + 1s" /><animate attributeName="y" from="26" to="108" dur="0.304" begin="animate4.end + 0.5" id="animate5" fill="freeze"/></rect><rect x="93" y="130" width="32" height="14" id="rect-6" fill="transparent" stroke="#000000"><set attributeName="x" to="61" begin="0; animate20.end + 1s" /><animate attributeName="x" from="61" to="93" dur="0.119" begin="animate5.end + 0.5" id="animate6" fill="freeze"/></rect><rect x="38" y="138" width="26" height="60" id="rect-7" fill="transparent" stroke="#000000"><set attributeName="y" to="78" begin="0; animate20.end + 1s" /><animate attributeName="y" from="78" to="138" dur="0.222" begin="animate6.end + 0.5" id="animate7" fill="freeze"/></rect><rect x="21" y="175" width="102" height="48" id="rect-8" fill="transparent" stroke="#000000"><set attributeName="x" to="-81" begin="0; animate20.end + 1s" /><animate attributeName="x" from="-81" to="21" dur="0.378" begin="animate7.end + 0.5" id="animate8" fill="freeze"/></rect><rect x="145" y="32" width="70" height="42" id="rect-9" fill="transparent" stroke="#000000"><set attributeName="x" to="215" begin="0; animate20.end + 1s" /><animate attributeName="x" from="215" to="145" dur="0.259" begin="animate8.end + 0.5" id="animate9" fill="freeze"/></rect><rect x="125" y="86" width="25" height="26" id="rect-10" fill="transparent" stroke="#000000"><set attributeName="x" to="100" begin="0; animate20.end + 1s" /><animate attributeName="x" from="100" to="125" dur="0.093" begin="animate9.end + 0.5" id="animate10" fill="freeze"/></rect><rect x="161" y="78" width="23" height="25" id="rect-11" fill="transparent" stroke="#000000"><set attributeName="x" to="138" begin="0; animate20.end + 1s" /><animate attributeName="x" from="138" to="161" dur="0.085" begin="animate10.end + 0.5" id="animate11" fill="freeze"/></rect><rect x="189" y="64" width="54" height="52" id="rect-12" fill="transparent" stroke="#000000"><set attributeName="y" to="12" begin="0; animate20.end + 1s" /><animate attributeName="y" from="12" to="64" dur="0.193" begin="animate11.end + 0.5" id="animate12" fill="freeze"/></rect><rect x="132" y="117" width="39" height="34" id="rect-13" fill="transparent" stroke="#000000"><set attributeName="y" to="83" begin="0; animate20.end + 1s" /><animate attributeName="y" from="83" to="117" dur="0.126" begin="animate12.end + 0.5" id="animate13" fill="freeze"/></rect><rect x="117" y="144" width="27" height="88" id="rect-14" fill="transparent" stroke="#000000"><set attributeName="y" to="56" begin="0; animate20.end + 1s" /><animate attributeName="y" from="56" to="144" dur="0.326" begin="animate13.end + 0.5" id="animate14" fill="freeze"/></rect><rect x="139" y="165" width="34" height="14" id="rect-15" fill="transparent" stroke="#000000"><set attributeName="x" to="105" begin="0; animate20.end + 1s" /><animate attributeName="x" from="105" to="139" dur="0.126" begin="animate14.end + 0.5" id="animate15" fill="freeze"/></rect><rect x="182" y="122" width="63" height="19" id="rect-16" fill="transparent" stroke="#000000"><set attributeName="x" to="119" begin="0; animate20.end + 1s" /><animate attributeName="x" from="119" to="182" dur="0.233" begin="animate15.end + 0.5" id="animate16" fill="freeze"/></rect><rect x="210" y="135" width="38" height="102" id="rect-17" fill="transparent" stroke="#000000"><set attributeName="y" to="33" begin="0; animate20.end + 1s" /><animate attributeName="y" from="33" to="135" dur="0.378" begin="animate16.end" id="animate17" fill="freeze"/></rect><rect x="203" y="209" width="8" height="24" id="rect-18" fill="transparent" stroke="#000000"><set attributeName="x" to="211" begin="0; animate20.end + 1s" /><animate attributeName="x" from="211" to="203" dur="0.030" begin="animate17.end" id="animate18" fill="freeze"/></rect><rect x="188" y="162" width="33" height="11" id="rect-19" fill="transparent" stroke="#000000"><set attributeName="x" to="155" begin="0; animate20.end + 1s" /><animate attributeName="x" from="155" to="188" dur="0.122" begin="animate18.end + 0.5" id="animate19" fill="freeze"/></rect><rect x="144" y="201" width="67" height="18" id="rect-20" fill="transparent" stroke="#000000"><set attributeName="x" to="77" begin="0; animate20.end + 1s" /><animate attributeName="x" from="77" to="144" dur="0.248" begin="animate19.end + 0.5" id="animate20" fill="freeze"/></rect></svg>