<svg xmlns="http://www.w3.org/2000/svg" xmlns:xlink="http://www.w3.org/1999/xlink" width="270" height="270"><defs><clipPath id="clip-mask-1"><use xlink:href="#rect-1" /></clipPath><clipPath id="clip-mask-2"><use xlink:href="#rect-2" /></clipPath><clipPath id="clip-mask-3"><use xlink:href="#rect-3" /></clipPath><clipPath id="clip-mask-4"><use xlink:href="#rect-4" /></clipPath><clipPath id="clip-mask-5"><use xlink:href="#rect-5" /></clipPath><clipPath id="clip-mask-6"><use xlink:href="#rect-6" /></clipPath><clipPath id="clip-mask-7"><use xlink:href="#rect-7" /></clipPath><clipPath id="clip-mask-8"><use xlink:href="#rect-8" /></clipPath><clipPath id="clip-mask-9"><use xlink:href="#rect-9" /></clipPath><clipPath id="clip-mask-10"><use xlink:href="#rect-10" /></clipPath><clipPath id="clip-mask-11"><use xlink:href="#rect-11" /></clipPath><clipPath id="clip-mask-12"><use xlink:href="#rect-12" /></clipPath><clipPath id="clip-mask-13"><use xlink:href="#rect-13" /></clipPath><clipPath id="clip-mask-14"><use xlink:href="#rect-14" /></clipPath><clipPath id="clip-mask-15"><use xlink:href="#rect-15" /></clipPath><clipPath id="clip-mask-16"><use xlink:href="#rect-16" /></clipPath></defs><path d="M 0 0 L 270 270 M 270 0 L 0 270 M 135 0 L 135 270 M 0 135 L 270 135" stroke="#CCCCCC" /><path d="M 85 66 Q 86 64 87 62 Q 103 29 100 23 Q 98 20 101 18 Q 104 17 110 19 Q 118 21 122 24 Q 125 28 121 31 Q 114 36 91 65" fill="#CCCCCC"/><path d="M 72 148 Q 71 111 70 94 Q 69 71 65 64 Q 65 62 66 61 Q 68 59 72 60 Q 76 62 81 66 L 84 73 Q 83 84 83 94 L 83 101 Q 83 109 83 120 L 82 127 Q 82 136 82 145" fill="#CCCCCC"/><path d="M 119 68 Q 116 65 84 73 L 81 66 Q 83 66 85 66 L 91 65 Q 105 62 116 56 Q 119 54 123 56 Q 132 60 137 64 Q 139 66 137 71" fill="#CCCCCC"/><path d="M 122 134 Q 122 109 122 81 Q 122 71 119 68 L 137 71 Q 133 77 133 124 L 133 144 Q 133 183 134 212 Q 134 228 125 240 Q 123 242 121 242 Q 117 241 114 236 L 116 218 Q 120 213 121 157" fill="#CCCCCC"/><path d="M 114 236 Q 108 228 95 218 Q 95 218 95 218 Q 106 218 116 218" fill="#CCCCCC"/><path d="M 83 94 Q 96 88 105 89 Q 110 90 113 93 Q 114 96 109 97 Q 98 98 83 101" fill="#CCCCCC"/><path d="M 83 120 Q 95 113 104 114 Q 110 115 113 118 Q 115 121 109 122 Q 98 124 82 127" fill="#CCCCCC"/><path d="M 115 145 L 114 145 Q 94 152 74 159 Q 60 163 48 171 Q 45 172 42 171 Q 34 166 29 162 Q 27 160 28 156 Q 28 154 32 154 Q 41 155 47 153 Q 59 150 72 148 L 82 145 Q 102 140 121 136 Q 121 135 122 134 L 122 144" fill="#CCCCCC"/><path d="M 133 124 Q 135 124 136 125 Q 142 127 143 130 Q 143 132 133 144 L 121 157 Q 120 158 119 160 Q 66 217 37 220 Q 31 221 35 217 Q 46 209 55 203 Q 97 171 115 145" fill="#CCCCCC"/><path d="M 209 62 Q 208 61 186 65 Q 169 69 166 68 Q 162 67 161 65 Q 160 63 164 62 Q 182 59 200 52 Q 214 44 232 59 Q 235 63 231 68" fill="#CCCCCC"/><path d="M 202 95 Q 206 84 210 69 Q 211 64 209 62 L 231 68 Q 222 74 214 97" fill="#CCCCCC"/><path d="M 187 100 L 201 96 Q 201 95 202 95 L 214 97 Q 220 100 220 102 Q 219 104 217 104 Q 191 107 179 110 L 176 102" fill="#CCCCCC"/><path d="M 179 110 Q 179 111 171 140 Q 170 144 171 145 L 162 161 Q 157 166 154 164 Q 152 162 150 158 Q 148 155 152 151 Q 159 144 163 125 Q 167 110 161 101 Q 159 98 161 96 Q 163 94 167 97 Q 173 100 176 102" fill="#CCCCCC"/><path d="M 171 145 Q 173 146 178 145 Q 210 137 217 135 Q 221 133 227 136 Q 236 139 240 144 L 208 146 Q 179 146 162 161" fill="#CCCCCC"/><path d="M 240 144 Q 242 146 240 151 Q 239 152 239 153 Q 236 156 229 213 Q 225 233 206 248 Q 201 252 196 246 L 203 224 Q 208 220 211 210 Q 218 191 220 162 Q 222 144 208 146" fill="#CCCCCC"/><path d="M 196 246 Q 190 237 179 227 Q 175 224 174 220 Q 173 217 178 219 Q 186 221 194 224 Q 201 227 203 224" fill="#CCCCCC"/><path d="M 85 66 Q 86 64 87 62 Q 103 29 100 23 Q 98 20 101 18 Q 104 17 110 19 Q 118 21 122 24 Q 125 28 121 31 Q 114 36 91 65" fill="#0000ff" clip-path="url(#clip-mask-1)" /><path d="M 72 148 Q 71 111 70 94 Q 69 71 65 64 Q 65 62 66 61 Q 68 59 72 60 Q 76 62 81 66 L 84 73 Q 83 84 83 94 L 83 101 Q 83 109 83 120 L 82 127 Q 82 136 82 145" fill="#0000ff" clip-path="url(#clip-mask-2)" /><path d="M 119 68 Q 116 65 84 73 L 81 66 Q 83 66 85 66 L 91 65 Q 105 62 116 56 Q 119 54 123 56 Q 132 60 137 64 Q 139 66 137 71" fill="#0000ff" clip-path="url(#clip-mask-3)" /><path d="M 122 134 Q 122 109 122 81 Q 122 71 119 68 L 137 71 Q 133 77 133 124 L 133 144 Q 133 183 134 212 Q 134 228 125 240 Q 123 242 121 242 Q 117 241 114 236 L 116 218 Q 120 213 121 157" fill="#0000ff" clip-path="url(#clip-mask-4)" /><path d="M 114 236 Q 108 228 95 218 Q 95 218 95 218 Q 106 218 116 218" fill="#0000ff" clip-path="url(#clip-mask-5)" /><path d="M 83 94 Q 96 88 105 89 Q 110 90 113 93 Q 114 96 109 97 Q 98 98 83 101" fill="#0000ff" clip-path="url(#clip-mask-6)" /><path d="M 83 120 Q 95 113 104 114 Q 110 115 113 118 Q 115 121 109 122 Q 98 124 82 127" fill="#0000ff" clip-path="url(#clip-mask-7)" /><path d="M 115 145 L 114 145 Q 94 152 74 159 Q 60 163 48 171 Q 45 172 42 171 Q 34 166 29 162 Q 27 160 28 156 Q 28 154 32 154 Q 41 155 47 153 Q 59 150 72 148 L 82 145 Q 102 140 121 136 Q 121 135 122 134 L 122 144" fill="#0000ff" clip-path="url(#clip-mask-8)" /><path d="M 133 124 Q 135 124 136 125 Q 142 127 143 130 Q 143 132 133 144 L 121 157 Q 120 158 119 160 Q 66 217 37 220 Q 31 221 35 217 Q 46 209 55 203 Q 97 171 115 145" fill="#0000ff" clip-path="url(#clip-mask-9)" /><path d="M 209 62 Q 208 61 186 65 Q 169 69 166 68 Q 162 67 161 65 Q 160 63 164 62 Q 182 59 200 52 Q 214 44 232 59 Q 235 63 231 68" fill="#000080" clip-path="url(#clip-mask-10)" /><path d="M 202 95 Q 206 84 210 69 Q 211 64 209 62 L 231 68 Q 222 74 214 97" fill="#000080" clip-path="url(#clip-mask-11)" /><path d="M 187 100 L 201 96 Q 201 95 202 95 L 214 97 Q 220 100 220 102 Q 219 104 217 104 Q 191 107 179 110 L 176 102" fill="#000080" clip-path="url(#clip-mask-12)" /><path d="M 179 110 Q 179 111 171 140 Q 170 144 171 145 L 162 161 Q 157 166 154 164 Q 152 162 150 158 Q 148 155 152 151 Q 159 144 163 125 Q 167 110 161 101 Q 159 98 161 96 Q 163 94 167 97 Q 173 100 176 102" fill="#000080" clip-path="url(#clip-mask-13)" /><path d="M 171 145 Q 173 146 178 145 Q 210 137 217 135 Q 221 133 227 136 Q 236 139 240 144 L 208 146 Q 179 146 162 161" fill="#000080" clip-path="url(#clip-mask-14)" /><path d="M 240 144 Q 242 146 240 151 Q 239 152 239 153 Q 236 156 229 213 Q 225 233 206 248 Q 201 252 196 246 L 203 224 Q 208 220 211 210 Q 218 191 220 162 Q 222 144 208 146" fill="#000080" clip-path="url(#clip-mask-15)" /><path d="M 196 246 Q 190 237 179 227 Q 175 224 174 220 Q 173 217 178 219 Q 186 221 194 224 Q 201 227 203 224" fill="#000080" clip-path="url(#clip-mask-16)" /><rect x="85" y="17" width="40" height="49" id="rect-1" fill="transparent" stroke="#000000"><animate attributeName="y" from="-32" to="17" dur="0.181" begin="0; animate16.end + 1s" id="animate1" fill="freeze"/></rect><rect x="65" y="59" width="19" height="89" id="rect-2" fill="transparent" stroke="#000000"><set attributeName="y" to="-30" begin="0; animate16.end + 1s" /><animate attributeName="y" from="-30" to="59" dur="0.330" begin="animate1.end + 0.5" id="animate2" fill="freeze"/></rect><rect x="81" y="54" width="58" height="19" id="rect-3" fill="transparent" stroke="#000000"><set attributeName="x" to="23" begin="0; animate16.end + 1s" /><animate attributeName="x" from="23" to="81" dur="0.215" begin="animate2.end + 0.5" id="animate3" fill="freeze"/></rect><rect x="114" y="68" width="23" height="174" id="rect-4" fill="transparent" stroke="#000000"><set attributeName="y" to="-106" begin="0; animate16.end + 1s" /><animate attributeName="y" from="-106" to="68" dur="0.644" begin="animate3.end" id="animate4" fill="freeze"/></rect><rect x="95" y="218" width="21" height="18" id="rect-5" fill="transparent" stroke="#000000"><set attributeName="x" to="116" begin="0; animate16.end + 1s" /><animate attributeName="x" from="116" to="95" dur="0.078" begin="animate4.end" id="animate5" fill="freeze"/></rect><rect x="83" y="88" width="31" height="13" id="rect-6" fill="transparent" stroke="#000000"><set attributeName="x" to="52" begin="0; animate16.end + 1s" /><animate attributeName="x" from="52" to="83" dur="0.115" begin="animate5.end + 0.5" id="animate6" fill="freeze"/></rect><rect x="82" y="113" width="33" height="14" id="rect-7" fill="transparent" stroke="#000000"><set attributeName="x" to="49" begin="0; animate16.end + 1s" /><animate attributeName="x" from="49" to="82" dur="0.122" begin="animate6.end + 0.5" id="animate7" fill="freeze"/></rect><rect x="27" y="134" width="95" height="38" id="rect-8" fill="transparent" stroke="#000000"><set attributeName="x" to="-68" begin="0; animate16.end + 1s" /><animate attributeName="x" from="-68" to="27" dur="0.352" begin="animate7.end + 0.5" id="animate8" fill="freeze"/></rect><rect x="31" y="124" width="112" height="97" id="rect-9" fill="transparent" stroke="#000000"><set attributeName="x" to="143" begin="0; animate16.end + 1s" /><animate attributeName="x" from="143" to="31" dur="0.415" begin="animate8.end + 0.5" id="animate9" fill="freeze"/></rect><rect x="160" y="44" width="75" height="25" id="rect-10" fill="transparent" stroke="#000000"><set attributeName="x" to="85" begin="0; animate16.end + 1s" /><animate attributeName="x" from="85" to="160" dur="0.278" begin="animate9.end + 0.5" id="animate10" fill="freeze"/></rect><rect x="202" y="62" width="29" height="35" id="rect-11" fill="transparent" stroke="#000000"><set attributeName="y" to="27" begin="0; animate16.end + 1s" /><animate attributeName="y" from="27" to="62" dur="0.130" begin="animate10.end" id="animate11" fill="freeze"/></rect><rect x="176" y="95" width="44" height="15" id="rect-12" fill="transparent" stroke="#000000"><set attributeName="x" to="132" begin="0; animate16.end + 1s" /><animate attributeName="x" from="132" to="176" dur="0.163" begin="animate11.end + 0.5" id="animate12" fill="freeze"/></rect><rect x="148" y="94" width="31" height="72" id="rect-13" fill="transparent" stroke="#000000"><set attributeName="y" to="22" begin="0; animate16.end + 1s" /><animate attributeName="y" from="22" to="94" dur="0.267" begin="animate12.end + 0.5" id="animate13" fill="freeze"/></rect><rect x="162" y="133" width="78" height="28" id="rect-14" fill="transparent" stroke="#000000"><set attributeName="x" to="84" begin="0; animate16.end + 1s" /><animate attributeName="x" from="84" to="162" dur="0.289" begin="animate13.end" id="animate14" fill="freeze"/></rect><rect x="196" y="144" width="46" height="108" id="rect-15" fill="transparent" stroke="#000000"><set attributeName="y" to="36" begin="0; animate16.end + 1s" /><animate attributeName="y" from="36" to="144" dur="0.400" begin="animate14.end" id="animate15" fill="freeze"/></rect><rect x="173" y="217" width="30" height="29" id="rect-16" fill="transparent" stroke="#000000"><set attributeName="x" to="203" begin="0; animate16.end + 1s" /><animate attributeName="x" from="203" to="173" dur="0.111" begin="animate15.end" id="animate16" fill="freeze"/></rect></svg>