<svg xmlns="http://www.w3.org/2000/svg" xmlns:xlink="http://www.w3.org/1999/xlink" width="270" height="270"><defs><clipPath id="clip-mask-1"><use xlink:href="#rect-1" /></clipPath><clipPath id="clip-mask-2"><use xlink:href="#rect-2" /></clipPath><clipPath id="clip-mask-3"><use xlink:href="#rect-3" /></clipPath><clipPath id="clip-mask-4"><use xlink:href="#rect-4" /></clipPath><clipPath id="clip-mask-5"><use xlink:href="#rect-5" /></clipPath><clipPath id="clip-mask-6"><use xlink:href="#rect-6" /></clipPath><clipPath id="clip-mask-7"><use xlink:href="#rect-7" /></clipPath><clipPath id="clip-mask-8"><use xlink:href="#rect-8" /></clipPath><clipPath id="clip-mask-9"><use xlink:href="#rect-9" /></clipPath><clipPath id="clip-mask-10"><use xlink:href="#rect-10" /></clipPath><clipPath id="clip-mask-11"><use xlink:href="#rect-11" /></clipPath><clipPath id="clip-mask-12"><use xlink:href="#rect-12" /></clipPath><clipPath id="clip-mask-13"><use xlink:href="#rect-13" /></clipPath><clipPath id="clip-mask-14"><use xlink:href="#rect-14" /></clipPath><clipPath id="clip-mask-15"><use xlink:href="#rect-15" /></clipPath><clipPath id="clip-mask-16"><use xlink:href="#rect-16" /></clipPath><clipPath id="clip-mask-17"><use xlink:href="#rect-17" /></clipPath><clipPath id="clip-mask-18"><use xlink:href="#rect-18" /></clipPath><clipPath id="clip-mask-19"><use xlink:href="#rect-19" /></clipPath><clipPath id="clip-mask-20"><use xlink:href="#rect-20" /></clipPath><clipPath id="clip-mask-21"><use xlink:href="#rect-21" /></clipPath><clipPath id="clip-mask-22"><use xlink:href="#rect-22" /></clipPath><clipPath id="clip-mask-23"><use xlink:href="#rect-23" /></clipPath></defs><path d="M 0 0 L 270 270 M 270 0 L 0 270 M 135 0 L 135 270 M 0 135 L 270 135" stroke="#CCCCCC" /><path d="M 61 36 L 60 34 Q 59 31 60 30 Q 63 28 81 32 Q 89 34 91 39 Q 94 45 94 48 Q 93 52 91 52 Q 87 53 84 50 Q 76 45 68 40" fill="#CCCCCC"/><path d="M 59 72 L 76 68 Q 93 62 99 63 Q 105 64 107 66 Q 108 68 106 70 Q 105 71 97 73 Q 80 77 64 80 Q 52 83 43 79 Q 38 75 45 74" fill="#CCCCCC"/><path d="M 41 95 L 41 93 Q 42 90 43 89 Q 44 89 47 90 Q 62 99 63 105 Q 63 111 62 114 Q 60 116 58 115 Q 55 115 46 100" fill="#CCCCCC"/><path d="M 76 118 Q 86 89 85 84 Q 83 82 85 81 Q 88 80 91 82 Q 97 85 99 88 Q 100 90 98 93 Q 95 98 93 101 Q 89 109 85 116" fill="#CCCCCC"/><path d="M 63 130 Q 55 133 45 137 Q 32 142 24 137 Q 21 135 21 133 Q 22 131 24 131 Q 40 128 76 118 L 85 116 Q 94 112 101 115 Q 105 116 105 119 Q 105 120 101 121 Q 84 124 72 128" fill="#CCCCCC"/><path d="M 51 169 L 43 176 Q 40 178 38 177 Q 32 174 27 170 Q 25 169 25 166 Q 26 164 28 164 Q 35 164 68 154 L 81 150 Q 89 147 96 145 Q 99 145 100 146 Q 99 149 88 154 Q 83 156 80 158 L 68 163" fill="#CCCCCC"/><path d="M 68 154 Q 68 137 64 133 Q 63 131 63 130 L 72 128 Q 78 130 82 133 Q 85 134 83 138 Q 81 143 81 150 L 80 158 Q 80 160 79 162 Q 78 190 60 209 Q 44 225 33 225 Q 30 225 33 223 Q 36 220 39 217 Q 63 197 68 163" fill="#CCCCCC"/><path d="M 114 107 Q 109 108 108 107 Q 105 104 104 100 Q 103 98 107 94 Q 114 86 117 79 Q 131 44 127 36 Q 126 33 128 32 Q 132 31 135 33 Q 144 39 145 42 Q 146 43 143 47 Q 132 66 120 90" fill="#CCCCCC"/><path d="M 135 99 Q 124 101 114 107 L 120 90 Q 118 95 124 94 Q 130 94 138 94" fill="#CCCCCC"/><path d="M 118 146 Q 115 149 112 147 Q 106 142 106 139 Q 105 136 108 134 Q 114 131 135 99 L 138 94 Q 147 76 146 69 Q 146 66 148 65 Q 150 64 153 66 Q 161 70 163 74 Q 165 76 162 79 Q 157 83 151 92 Q 133 116 126 127" fill="#CCCCCC"/><path d="M 123 143 L 118 146 L 126 127 Q 122 134 128 131 Q 139 128 149 127 L 150 131 Q 142 134 135 137 L 128 140" fill="#CCCCCC"/><path d="M 149 127 Q 147 124 146 120 Q 145 118 146 117 Q 146 115 148 116 Q 151 117 156 123 Q 161 126 161 130 Q 162 134 161 136 Q 159 139 157 138 Q 152 136 150 131" fill="#CCCCCC"/><path d="M 135 137 Q 137 138 140 141 Q 143 145 142 154 Q 141 163 142 188 Q 142 201 139 208 Q 136 215 134 216 Q 132 216 129 214 L 129 192 Q 130 188 130 170 Q 130 148 128 140" fill="#CCCCCC"/><path d="M 129 214 Q 126 208 114 198 Q 112 196 112 195 Q 112 193 115 194 Q 119 194 123 194 Q 128 195 129 192" fill="#CCCCCC"/><path d="M 106 160 L 108 160 Q 109 160 110 161 Q 111 166 110 172 Q 108 190 98 197 Q 94 199 93 196 Q 90 189 93 183 Q 101 173 106 161" fill="#CCCCCC"/><path d="M 149 166 L 149 164 Q 150 161 151 161 Q 153 160 166 170 Q 171 174 171 179 Q 171 184 170 186 Q 168 188 167 188 Q 164 187 153 171" fill="#CCCCCC"/><path d="M 183 27 L 182 25 Q 182 22 183 21 Q 185 19 205 24 Q 213 26 214 31 Q 217 38 216 42 Q 215 46 213 46 Q 209 46 205 44 Q 198 37 190 32" fill="#CCCCCC"/><path d="M 186 64 L 196 61 Q 206 58 214 54 Q 220 52 227 52 Q 233 54 235 56 Q 236 58 234 60 Q 233 61 225 63 Q 212 66 200 69 Q 179 74 171 70 Q 166 67 173 66" fill="#CCCCCC"/><path d="M 173 86 L 174 84 Q 174 82 176 82 Q 189 88 191 95 Q 192 99 191 102 Q 189 105 186 104 Q 181 103 174 88" fill="#CCCCCC"/><path d="M 206 107 Q 207 105 208 103 Q 217 80 215 73 Q 215 71 216 70 Q 220 69 223 71 Q 229 75 230 79 Q 232 81 229 83 Q 225 87 224 90 Q 219 98 215 103 Q 215 104 215 105" fill="#CCCCCC"/><path d="M 187 121 Q 174 123 172 123 Q 169 123 166 120 Q 162 117 166 116 Q 185 112 200 109 Q 202 107 206 107 L 215 105 Q 217 104 219 103 Q 233 98 245 105 Q 248 108 247 110 Q 246 112 237 113 Q 206 115 198 118" fill="#CCCCCC"/><path d="M 186 155 L 179 156 Q 172 157 169 155 Q 164 151 168 150 Q 180 148 193 146 L 206 143 Q 224 137 232 139 Q 238 140 241 144 Q 243 147 237 148 Q 223 149 206 152 L 193 154" fill="#CCCCCC"/><path d="M 193 146 Q 193 140 193 135 Q 190 128 187 121 L 198 118 Q 201 119 205 122 Q 209 124 208 128 Q 207 134 206 143 L 206 152 Q 206 173 206 186 Q 206 238 203 245 Q 202 248 200 249 Q 198 250 197 248 Q 193 242 193 205 Q 193 176 193 154" fill="#CCCCCC"/><path d="M 61 36 L 60 34 Q 59 31 60 30 Q 63 28 81 32 Q 89 34 91 39 Q 94 45 94 48 Q 93 52 91 52 Q 87 53 84 50 Q 76 45 68 40" fill="#000080" clip-path="url(#clip-mask-1)" /><path d="M 59 72 L 76 68 Q 93 62 99 63 Q 105 64 107 66 Q 108 68 106 70 Q 105 71 97 73 Q 80 77 64 80 Q 52 83 43 79 Q 38 75 45 74" fill="#000080" clip-path="url(#clip-mask-2)" /><path d="M 41 95 L 41 93 Q 42 90 43 89 Q 44 89 47 90 Q 62 99 63 105 Q 63 111 62 114 Q 60 116 58 115 Q 55 115 46 100" fill="#000080" clip-path="url(#clip-mask-3)" /><path d="M 76 118 Q 86 89 85 84 Q 83 82 85 81 Q 88 80 91 82 Q 97 85 99 88 Q 100 90 98 93 Q 95 98 93 101 Q 89 109 85 116" fill="#000080" clip-path="url(#clip-mask-4)" /><path d="M 63 130 Q 55 133 45 137 Q 32 142 24 137 Q 21 135 21 133 Q 22 131 24 131 Q 40 128 76 118 L 85 116 Q 94 112 101 115 Q 105 116 105 119 Q 105 120 101 121 Q 84 124 72 128" fill="#000080" clip-path="url(#clip-mask-5)" /><path d="M 51 169 L 43 176 Q 40 178 38 177 Q 32 174 27 170 Q 25 169 25 166 Q 26 164 28 164 Q 35 164 68 154 L 81 150 Q 89 147 96 145 Q 99 145 100 146 Q 99 149 88 154 Q 83 156 80 158 L 68 163" fill="#000080" clip-path="url(#clip-mask-6)" /><path d="M 68 154 Q 68 137 64 133 Q 63 131 63 130 L 72 128 Q 78 130 82 133 Q 85 134 83 138 Q 81 143 81 150 L 80 158 Q 80 160 79 162 Q 78 190 60 209 Q 44 225 33 225 Q 30 225 33 223 Q 36 220 39 217 Q 63 197 68 163" fill="#000080" clip-path="url(#clip-mask-7)" /><path d="M 114 107 Q 109 108 108 107 Q 105 104 104 100 Q 103 98 107 94 Q 114 86 117 79 Q 131 44 127 36 Q 126 33 128 32 Q 132 31 135 33 Q 144 39 145 42 Q 146 43 143 47 Q 132 66 120 90" fill="#0000ff" clip-path="url(#clip-mask-8)" /><path d="M 135 99 Q 124 101 114 107 L 120 90 Q 118 95 124 94 Q 130 94 138 94" fill="#0000ff" clip-path="url(#clip-mask-9)" /><path d="M 118 146 Q 115 149 112 147 Q 106 142 106 139 Q 105 136 108 134 Q 114 131 135 99 L 138 94 Q 147 76 146 69 Q 146 66 148 65 Q 150 64 153 66 Q 161 70 163 74 Q 165 76 162 79 Q 157 83 151 92 Q 133 116 126 127" fill="#0000ff" clip-path="url(#clip-mask-10)" /><path d="M 123 143 L 118 146 L 126 127 Q 122 134 128 131 Q 139 128 149 127 L 150 131 Q 142 134 135 137 L 128 140" fill="#0000ff" clip-path="url(#clip-mask-11)" /><path d="M 149 127 Q 147 124 146 120 Q 145 118 146 117 Q 146 115 148 116 Q 151 117 156 123 Q 161 126 161 130 Q 162 134 161 136 Q 159 139 157 138 Q 152 136 150 131" fill="#0000ff" clip-path="url(#clip-mask-12)" /><path d="M 135 137 Q 137 138 140 141 Q 143 145 142 154 Q 141 163 142 188 Q 142 201 139 208 Q 136 215 134 216 Q 132 216 129 214 L 129 192 Q 130 188 130 170 Q 130 148 128 140" fill="#0000ff" clip-path="url(#clip-mask-13)" /><path d="M 129 214 Q 126 208 114 198 Q 112 196 112 195 Q 112 193 115 194 Q 119 194 123 194 Q 128 195 129 192" fill="#0000ff" clip-path="url(#clip-mask-14)" /><path d="M 106 160 L 108 160 Q 109 160 110 161 Q 111 166 110 172 Q 108 190 98 197 Q 94 199 93 196 Q 90 189 93 183 Q 101 173 106 161" fill="#0000ff" clip-path="url(#clip-mask-15)" /><path d="M 149 166 L 149 164 Q 150 161 151 161 Q 153 160 166 170 Q 171 174 171 179 Q 171 184 170 186 Q 168 188 167 188 Q 164 187 153 171" fill="#0000ff" clip-path="url(#clip-mask-16)" /><path d="M 183 27 L 182 25 Q 182 22 183 21 Q 185 19 205 24 Q 213 26 214 31 Q 217 38 216 42 Q 215 46 213 46 Q 209 46 205 44 Q 198 37 190 32" fill="#000080" clip-path="url(#clip-mask-17)" /><path d="M 186 64 L 196 61 Q 206 58 214 54 Q 220 52 227 52 Q 233 54 235 56 Q 236 58 234 60 Q 233 61 225 63 Q 212 66 200 69 Q 179 74 171 70 Q 166 67 173 66" fill="#000080" clip-path="url(#clip-mask-18)" /><path d="M 173 86 L 174 84 Q 174 82 176 82 Q 189 88 191 95 Q 192 99 191 102 Q 189 105 186 104 Q 181 103 174 88" fill="#000080" clip-path="url(#clip-mask-19)" /><path d="M 206 107 Q 207 105 208 103 Q 217 80 215 73 Q 215 71 216 70 Q 220 69 223 71 Q 229 75 230 79 Q 232 81 229 83 Q 225 87 224 90 Q 219 98 215 103 Q 215 104 215 105" fill="#000080" clip-path="url(#clip-mask-20)" /><path d="M 187 121 Q 174 123 172 123 Q 169 123 166 120 Q 162 117 166 116 Q 185 112 200 109 Q 202 107 206 107 L 215 105 Q 217 104 219 103 Q 233 98 245 105 Q 248 108 247 110 Q 246 112 237 113 Q 206 115 198 118" fill="#000080" clip-path="url(#clip-mask-21)" /><path d="M 186 155 L 179 156 Q 172 157 169 155 Q 164 151 168 150 Q 180 148 193 146 L 206 143 Q 224 137 232 139 Q 238 140 241 144 Q 243 147 237 148 Q 223 149 206 152 L 193 154" fill="#000080" clip-path="url(#clip-mask-22)" /><path d="M 193 146 Q 193 140 193 135 Q 190 128 187 121 L 198 118 Q 201 119 205 122 Q 209 124 208 128 Q 207 134 206 143 L 206 152 Q 206 173 206 186 Q 206 238 203 245 Q 202 248 200 249 Q 198 250 197 248 Q 193 242 193 205 Q 193 176 193 154" fill="#000080" clip-path="url(#clip-mask-23)" /><rect x="59" y="28" width="35" height="25" id="rect-1" fill="transparent" stroke="#000000"><animate attributeName="x" from="24" to="59" dur="0.130" begin="0; animate23.end + 1s" id="animate1" fill="freeze"/></rect><rect x="38" y="62" width="70" height="21" id="rect-2" fill="transparent" stroke="#000000"><set attributeName="x" to="-32" begin="0; animate23.end + 1s" /><animate attributeName="x" from="-32" to="38" dur="0.259" begin="animate1.end + 0.5" id="animate2" fill="freeze"/></rect><rect x="41" y="89" width="22" height="27" id="rect-3" fill="transparent" stroke="#000000"><set attributeName="y" to="62" begin="0; animate23.end + 1s" /><animate attributeName="y" from="62" to="89" dur="0.100" begin="animate2.end + 0.5" id="animate3" fill="freeze"/></rect><rect x="76" y="80" width="24" height="38" id="rect-4" fill="transparent" stroke="#000000"><set attributeName="y" to="42" begin="0; animate23.end + 1s" /><animate attributeName="y" from="42" to="80" dur="0.141" begin="animate3.end + 0.5" id="animate4" fill="freeze"/></rect><rect x="21" y="112" width="84" height="30" id="rect-5" fill="transparent" stroke="#000000"><set attributeName="x" to="-63" begin="0; animate23.end + 1s" /><animate attributeName="x" from="-63" to="21" dur="0.311" begin="animate4.end + 0.5" id="animate5" fill="freeze"/></rect><rect x="25" y="145" width="75" height="33" id="rect-6" fill="transparent" stroke="#000000"><set attributeName="x" to="-50" begin="0; animate23.end + 1s" /><animate attributeName="x" from="-50" to="25" dur="0.278" begin="animate5.end + 0.5" id="animate6" fill="freeze"/></rect><rect x="30" y="128" width="55" height="97" id="rect-7" fill="transparent" stroke="#000000"><set attributeName="y" to="31" begin="0; animate23.end + 1s" /><animate attributeName="y" from="31" to="128" dur="0.359" begin="animate6.end + 0.5" id="animate7" fill="freeze"/></rect><rect x="103" y="31" width="43" height="77" id="rect-8" fill="transparent" stroke="#000000"><set attributeName="y" to="-46" begin="0; animate23.end + 1s" /><animate attributeName="y" from="-46" to="31" dur="0.285" begin="animate7.end + 0.5" id="animate8" fill="freeze"/></rect><rect x="114" y="90" width="24" height="17" id="rect-9" fill="transparent" stroke="#000000"><set attributeName="x" to="90" begin="0; animate23.end + 1s" /><animate attributeName="x" from="90" to="114" dur="0.089" begin="animate8.end" id="animate9" fill="freeze"/></rect><rect x="105" y="64" width="60" height="85" id="rect-10" fill="transparent" stroke="#000000"><set attributeName="y" to="-21" begin="0; animate23.end + 1s" /><animate attributeName="y" from="-21" to="64" dur="0.315" begin="animate9.end + 0.5" id="animate10" fill="freeze"/></rect><rect x="118" y="127" width="32" height="19" id="rect-11" fill="transparent" stroke="#000000"><set attributeName="x" to="86" begin="0; animate23.end + 1s" /><animate attributeName="x" from="86" to="118" dur="0.119" begin="animate10.end" id="animate11" fill="freeze"/></rect><rect x="145" y="115" width="17" height="24" id="rect-12" fill="transparent" stroke="#000000"><set attributeName="y" to="91" begin="0; animate23.end + 1s" /><animate attributeName="y" from="91" to="115" dur="0.089" begin="animate11.end + 0.5" id="animate12" fill="freeze"/></rect><rect x="128" y="137" width="15" height="79" id="rect-13" fill="transparent" stroke="#000000"><set attributeName="y" to="58" begin="0; animate23.end + 1s" /><animate attributeName="y" from="58" to="137" dur="0.293" begin="animate12.end + 0.5" id="animate13" fill="freeze"/></rect><rect x="112" y="192" width="17" height="22" id="rect-14" fill="transparent" stroke="#000000"><set attributeName="x" to="129" begin="0; animate23.end + 1s" /><animate attributeName="x" from="129" to="112" dur="0.063" begin="animate13.end" id="animate14" fill="freeze"/></rect><rect x="90" y="160" width="21" height="39" id="rect-15" fill="transparent" stroke="#000000"><set attributeName="y" to="121" begin="0; animate23.end + 1s" /><animate attributeName="y" from="121" to="160" dur="0.144" begin="animate14.end + 0.5" id="animate15" fill="freeze"/></rect><rect x="149" y="160" width="22" height="28" id="rect-16" fill="transparent" stroke="#000000"><set attributeName="y" to="132" begin="0; animate23.end + 1s" /><animate attributeName="y" from="132" to="160" dur="0.104" begin="animate15.end + 0.5" id="animate16" fill="freeze"/></rect><rect x="182" y="19" width="35" height="27" id="rect-17" fill="transparent" stroke="#000000"><set attributeName="x" to="147" begin="0; animate23.end + 1s" /><animate attributeName="x" from="147" to="182" dur="0.130" begin="animate16.end + 0.5" id="animate17" fill="freeze"/></rect><rect x="166" y="52" width="70" height="22" id="rect-18" fill="transparent" stroke="#000000"><set attributeName="x" to="96" begin="0; animate23.end + 1s" /><animate attributeName="x" from="96" to="166" dur="0.259" begin="animate17.end + 0.5" id="animate18" fill="freeze"/></rect><rect x="173" y="82" width="19" height="23" id="rect-19" fill="transparent" stroke="#000000"><set attributeName="y" to="59" begin="0; animate23.end + 1s" /><animate attributeName="y" from="59" to="82" dur="0.085" begin="animate18.end + 0.5" id="animate19" fill="freeze"/></rect><rect x="206" y="69" width="26" height="38" id="rect-20" fill="transparent" stroke="#000000"><set attributeName="y" to="31" begin="0; animate23.end + 1s" /><animate attributeName="y" from="31" to="69" dur="0.141" begin="animate19.end + 0.5" id="animate20" fill="freeze"/></rect><rect x="162" y="98" width="86" height="25" id="rect-21" fill="transparent" stroke="#000000"><set attributeName="x" to="76" begin="0; animate23.end + 1s" /><animate attributeName="x" from="76" to="162" dur="0.319" begin="animate20.end + 0.5" id="animate21" fill="freeze"/></rect><rect x="164" y="137" width="79" height="20" id="rect-22" fill="transparent" stroke="#000000"><set attributeName="x" to="85" begin="0; animate23.end + 1s" /><animate attributeName="x" from="85" to="164" dur="0.293" begin="animate21.end + 0.5" id="animate22" fill="freeze"/></rect><rect x="187" y="118" width="22" height="132" id="rect-23" fill="transparent" stroke="#000000"><set attributeName="y" to="-14" begin="0; animate23.end + 1s" /><animate attributeName="y" from="-14" to="118" dur="0.489" begin="animate22.end + 0.5" id="animate23" fill="freeze"/></rect></svg>