<svg xmlns="http://www.w3.org/2000/svg" xmlns:xlink="http://www.w3.org/1999/xlink" width="270" height="270"><defs><clipPath id="clip-mask-1"><use xlink:href="#rect-1" /></clipPath><clipPath id="clip-mask-2"><use xlink:href="#rect-2" /></clipPath><clipPath id="clip-mask-3"><use xlink:href="#rect-3" /></clipPath><clipPath id="clip-mask-4"><use xlink:href="#rect-4" /></clipPath><clipPath id="clip-mask-5"><use xlink:href="#rect-5" /></clipPath><clipPath id="clip-mask-6"><use xlink:href="#rect-6" /></clipPath><clipPath id="clip-mask-7"><use xlink:href="#rect-7" /></clipPath><clipPath id="clip-mask-8"><use xlink:href="#rect-8" /></clipPath><clipPath id="clip-mask-9"><use xlink:href="#rect-9" /></clipPath><clipPath id="clip-mask-10"><use xlink:href="#rect-10" /></clipPath><clipPath id="clip-mask-11"><use xlink:href="#rect-11" /></clipPath><clipPath id="clip-mask-12"><use xlink:href="#rect-12" /></clipPath></defs><path d="M 0 0 L 270 270 M 270 0 L 0 270 M 135 0 L 135 270 M 0 135 L 270 135" stroke="#CCCCCC" /><path d="M 136 85 Q 142 72 148 61 Q 158 38 155 30 Q 153 27 156 25 Q 160 24 167 26 Q 176 28 181 32 Q 185 36 180 40 Q 178 42 176 43 Q 166 52 142 84" fill="#CCCCCC"/><path d="M 133 179 L 133 181 Q 132 189 128 187 Q 127 187 127 187 Q 118 179 118 162 Q 121 109 110 84 Q 108 81 110 80 Q 112 78 113 79 Q 120 81 126 86 L 131 96 Q 131 109 131 126 L 131 133 Q 132 151 133 169 L 133 178" fill="#CCCCCC"/><path d="M 126 86 Q 131 85 136 85 L 142 84 Q 171 77 186 71 Q 194 67 199 70 Q 211 75 217 80 L 184 84 Q 153 91 134 95 Q 132 96 131 96" fill="#CCCCCC"/><path d="M 217 80 Q 220 83 216 88 Q 209 98 209 139 Q 209 172 202 190 Q 200 197 196 197 Q 193 198 191 194 L 190 170 Q 192 169 192 163 Q 200 100 191 86 Q 189 83 184 84" fill="#CCCCCC"/><path d="M 191 194 Q 184 182 181 175 L 186 169 Q 189 170 190 170" fill="#CCCCCC"/><path d="M 131 126 Q 162 117 170 118 Q 177 120 180 124 Q 182 128 175 128 Q 158 130 136 133 Q 133 133 131 133" fill="#CCCCCC"/><path d="M 181 175 Q 157 177 133 178 L 133 169 Q 148 167 168 163 Q 176 162 180 165 Q 184 167 186 169" fill="#CCCCCC"/><path d="M 60 41 L 59 37 Q 59 33 60 32 Q 62 32 67 33 Q 91 39 93 47 Q 96 56 94 60 Q 92 64 89 64 Q 84 64 80 60 Q 74 53 68 47" fill="#CCCCCC"/><path d="M 62 115 Q 59 113 58 114 Q 32 124 21 120 Q 19 119 19 117 Q 20 116 22 116 Q 27 116 41 110 Q 51 105 59 99 Q 64 94 71 97 Q 72 98 73 99 Q 94 108 85 115" fill="#CCCCCC"/><path d="M 58 155 Q 51 141 62 129 Q 68 121 62 115 L 85 115 Q 63 141 71 155" fill="#CCCCCC"/><path d="M 70 179 L 58 155 L 71 155 Q 78 167 80 173 Q 83 184 77 192 L 68 191" fill="#CCCCCC"/><path d="M 77 192 Q 86 193 94 196 Q 127 207 152 212 Q 183 218 244 216 Q 250 216 244 220 Q 230 230 214 237 Q 193 245 130 220 Q 93 206 75 202 Q 58 199 41 212 Q 36 216 33 214 Q 26 211 22 206 Q 19 204 20 202 Q 21 199 23 199 Q 36 198 44 195 Q 56 191 68 191" fill="#CCCCCC"/><path d="M 136 85 Q 142 72 148 61 Q 158 38 155 30 Q 153 27 156 25 Q 160 24 167 26 Q 176 28 181 32 Q 185 36 180 40 Q 178 42 176 43 Q 166 52 142 84" fill="#000080" clip-path="url(#clip-mask-1)" /><path d="M 133 179 L 133 181 Q 132 189 128 187 Q 127 187 127 187 Q 118 179 118 162 Q 121 109 110 84 Q 108 81 110 80 Q 112 78 113 79 Q 120 81 126 86 L 131 96 Q 131 109 131 126 L 131 133 Q 132 151 133 169 L 133 178" fill="#000080" clip-path="url(#clip-mask-2)" /><path d="M 126 86 Q 131 85 136 85 L 142 84 Q 171 77 186 71 Q 194 67 199 70 Q 211 75 217 80 L 184 84 Q 153 91 134 95 Q 132 96 131 96" fill="#000080" clip-path="url(#clip-mask-3)" /><path d="M 217 80 Q 220 83 216 88 Q 209 98 209 139 Q 209 172 202 190 Q 200 197 196 197 Q 193 198 191 194 L 190 170 Q 192 169 192 163 Q 200 100 191 86 Q 189 83 184 84" fill="#000080" clip-path="url(#clip-mask-4)" /><path d="M 191 194 Q 184 182 181 175 L 186 169 Q 189 170 190 170" fill="#000080" clip-path="url(#clip-mask-5)" /><path d="M 131 126 Q 162 117 170 118 Q 177 120 180 124 Q 182 128 175 128 Q 158 130 136 133 Q 133 133 131 133" fill="#000080" clip-path="url(#clip-mask-6)" /><path d="M 181 175 Q 157 177 133 178 L 133 169 Q 148 167 168 163 Q 176 162 180 165 Q 184 167 186 169" fill="#000080" clip-path="url(#clip-mask-7)" /><path d="M 60 41 L 59 37 Q 59 33 60 32 Q 62 32 67 33 Q 91 39 93 47 Q 96 56 94 60 Q 92 64 89 64 Q 84 64 80 60 Q 74 53 68 47" fill="#0000ff" clip-path="url(#clip-mask-8)" /><path d="M 62 115 Q 59 113 58 114 Q 32 124 21 120 Q 19 119 19 117 Q 20 116 22 116 Q 27 116 41 110 Q 51 105 59 99 Q 64 94 71 97 Q 72 98 73 99 Q 94 108 85 115" fill="#0000ff" clip-path="url(#clip-mask-9)" /><path d="M 58 155 Q 51 141 62 129 Q 68 121 62 115 L 85 115 Q 63 141 71 155" fill="#0000ff" clip-path="url(#clip-mask-10)" /><path d="M 70 179 L 58 155 L 71 155 Q 78 167 80 173 Q 83 184 77 192 L 68 191" fill="#0000ff" clip-path="url(#clip-mask-11)" /><path d="M 77 192 Q 86 193 94 196 Q 127 207 152 212 Q 183 218 244 216 Q 250 216 244 220 Q 230 230 214 237 Q 193 245 130 220 Q 93 206 75 202 Q 58 199 41 212 Q 36 216 33 214 Q 26 211 22 206 Q 19 204 20 202 Q 21 199 23 199 Q 36 198 44 195 Q 56 191 68 191" fill="#0000ff" clip-path="url(#clip-mask-12)" /><rect x="136" y="24" width="49" height="61" id="rect-1" fill="transparent" stroke="#000000"><animate attributeName="y" from="-37" to="24" dur="0.226" begin="0; animate12.end + 1s" id="animate1" fill="freeze"/></rect><rect x="108" y="78" width="25" height="111" id="rect-2" fill="transparent" stroke="#000000"><set attributeName="y" to="-33" begin="0; animate12.end + 1s" /><animate attributeName="y" from="-33" to="78" dur="0.411" begin="animate1.end + 0.5" id="animate2" fill="freeze"/></rect><rect x="126" y="67" width="91" height="29" id="rect-3" fill="transparent" stroke="#000000"><set attributeName="x" to="35" begin="0; animate12.end + 1s" /><animate attributeName="x" from="35" to="126" dur="0.337" begin="animate2.end + 0.5" id="animate3" fill="freeze"/></rect><rect x="184" y="80" width="36" height="118" id="rect-4" fill="transparent" stroke="#000000"><set attributeName="y" to="-38" begin="0; animate12.end + 1s" /><animate attributeName="y" from="-38" to="80" dur="0.437" begin="animate3.end" id="animate4" fill="freeze"/></rect><rect x="181" y="169" width="10" height="25" id="rect-5" fill="transparent" stroke="#000000"><set attributeName="x" to="191" begin="0; animate12.end + 1s" /><animate attributeName="x" from="191" to="181" dur="0.037" begin="animate4.end" id="animate5" fill="freeze"/></rect><rect x="131" y="117" width="51" height="16" id="rect-6" fill="transparent" stroke="#000000"><set attributeName="x" to="80" begin="0; animate12.end + 1s" /><animate attributeName="x" from="80" to="131" dur="0.189" begin="animate5.end + 0.5" id="animate6" fill="freeze"/></rect><rect x="133" y="162" width="53" height="16" id="rect-7" fill="transparent" stroke="#000000"><set attributeName="x" to="80" begin="0; animate12.end + 1s" /><animate attributeName="x" from="80" to="133" dur="0.196" begin="animate6.end + 0.5" id="animate7" fill="freeze"/></rect><rect x="59" y="32" width="37" height="32" id="rect-8" fill="transparent" stroke="#000000"><set attributeName="x" to="22" begin="0; animate12.end + 1s" /><animate attributeName="x" from="22" to="59" dur="0.137" begin="animate7.end + 0.5" id="animate8" fill="freeze"/></rect><rect x="19" y="94" width="75" height="30" id="rect-9" fill="transparent" stroke="#000000"><set attributeName="x" to="-56" begin="0; animate12.end + 1s" /><animate attributeName="x" from="-56" to="19" dur="0.278" begin="animate8.end + 0.5" id="animate9" fill="freeze"/></rect><rect x="51" y="115" width="34" height="40" id="rect-10" fill="transparent" stroke="#000000"><set attributeName="y" to="75" begin="0; animate12.end + 1s" /><animate attributeName="y" from="75" to="115" dur="0.148" begin="animate9.end" id="animate10" fill="freeze"/></rect><rect x="58" y="155" width="25" height="37" id="rect-11" fill="transparent" stroke="#000000"><set attributeName="y" to="118" begin="0; animate12.end + 1s" /><animate attributeName="y" from="118" to="155" dur="0.137" begin="animate10.end" id="animate11" fill="freeze"/></rect><rect x="19" y="191" width="231" height="54" id="rect-12" fill="transparent" stroke="#000000"><set attributeName="x" to="-212" begin="0; animate12.end + 1s" /><animate attributeName="x" from="-212" to="19" dur="0.856" begin="animate11.end + 0.5" id="animate12" fill="freeze"/></rect></svg>