<svg xmlns="http://www.w3.org/2000/svg" xmlns:xlink="http://www.w3.org/1999/xlink" width="270" height="270"><defs><clipPath id="clip-mask-1"><use xlink:href="#rect-1" /></clipPath><clipPath id="clip-mask-2"><use xlink:href="#rect-2" /></clipPath><clipPath id="clip-mask-3"><use xlink:href="#rect-3" /></clipPath><clipPath id="clip-mask-4"><use xlink:href="#rect-4" /></clipPath><clipPath id="clip-mask-5"><use xlink:href="#rect-5" /></clipPath><clipPath id="clip-mask-6"><use xlink:href="#rect-6" /></clipPath><clipPath id="clip-mask-7"><use xlink:href="#rect-7" /></clipPath><clipPath id="clip-mask-8"><use xlink:href="#rect-8" /></clipPath><clipPath id="clip-mask-9"><use xlink:href="#rect-9" /></clipPath><clipPath id="clip-mask-10"><use xlink:href="#rect-10" /></clipPath><clipPath id="clip-mask-11"><use xlink:href="#rect-11" /></clipPath><clipPath id="clip-mask-12"><use xlink:href="#rect-12" /></clipPath><clipPath id="clip-mask-13"><use xlink:href="#rect-13" /></clipPath></defs><path d="M 0 0 L 270 270 M 270 0 L 0 270 M 135 0 L 135 270 M 0 135 L 270 135" stroke="#CCCCCC" /><path d="M 129 115 Q 129 115 129 114 Q 133 62 124 48 Q 120 43 125 42 Q 128 42 140 47 Q 145 49 144 54 Q 144 57 143 61 Q 143 77 143 90 Q 141 143 120 169 Q 104 188 94 189 Q 92 189 92 188 Q 93 185 104 174 Q 120 155 128 122" fill="#CCCCCC"/><path d="M 96 85 L 96 82 Q 96 79 97 79 Q 99 78 103 80 Q 103 80 104 80 Q 120 84 123 95 Q 123 99 122 102 Q 120 105 116 104 Q 108 100 99 88" fill="#CCCCCC"/><path d="M 112 138 L 104 146 Q 102 151 100 151 Q 97 150 91 146 Q 85 143 84 139 Q 85 135 87 135 Q 89 135 94 135 Q 96 134 129 115 L 128 122" fill="#CCCCCC"/><path d="M 187 188 Q 169 183 165 165 Q 160 146 162 80 Q 163 59 163 49 Q 162 37 157 32 Q 156 30 157 28 Q 160 25 164 27 Q 174 29 180 35 Q 182 36 183 38 Q 182 38 179 55 Q 171 103 175 156 Q 176 169 185 174" fill="#CCCCCC"/><path d="M 235 188 L 226 190 Q 209 196 187 188 L 185 174 Q 198 179 212 176 L 238 174 Q 242 181 238 184" fill="#CCCCCC"/><path d="M 212 176 Q 217 175 218 172 Q 220 169 222 160 Q 225 152 227 146 Q 228 141 230 142 Q 232 144 232 147 Q 234 162 238 174" fill="#CCCCCC"/><path d="M 201 66 L 200 62 Q 199 58 202 58 Q 205 57 210 60 Q 217 63 220 67 Q 223 71 218 73 Q 208 78 184 96 Q 180 97 182 93 Q 196 73 198 70" fill="#CCCCCC"/><path d="M 182 114 L 182 111 Q 182 108 184 109 Q 189 110 198 112 Q 213 116 216 124 Q 220 133 218 136 Q 217 139 215 138 Q 211 138 208 134 Q 195 123 184 116" fill="#CCCCCC"/><path d="M 50 41 L 49 37 Q 49 34 50 33 Q 52 32 56 33 Q 82 38 85 47 Q 88 56 86 60 Q 85 63 82 64 Q 77 64 73 60 Q 65 53 58 47" fill="#CCCCCC"/><path d="M 54 109 Q 33 118 23 114 Q 21 113 21 111 Q 22 110 23 110 Q 28 110 40 105 Q 49 101 56 95 Q 61 90 67 93 Q 68 94 68 94 Q 90 102 82 110" fill="#CCCCCC"/><path d="M 58 151 Q 49 138 60 125 Q 66 117 59 112 Q 57 109 54 109 L 82 110 Q 80 111 79 113 Q 61 137 70 151" fill="#CCCCCC"/><path d="M 70 179 L 66 168 Q 64 163 58 151 L 70 151 Q 78 163 80 169 Q 83 182 74 191 L 65 191" fill="#CCCCCC"/><path d="M 74 191 Q 84 192 95 196 Q 130 207 156 212 Q 191 216 242 214 Q 248 213 242 218 Q 229 228 213 235 Q 192 244 129 219 Q 112 212 98 208 Q 61 196 42 210 Q 37 213 34 212 Q 28 208 23 203 Q 21 200 22 198 Q 23 196 25 196 Q 37 196 45 194 Q 55 190 65 191" fill="#CCCCCC"/><path d="M 129 115 Q 129 115 129 114 Q 133 62 124 48 Q 120 43 125 42 Q 128 42 140 47 Q 145 49 144 54 Q 144 57 143 61 Q 143 77 143 90 Q 141 143 120 169 Q 104 188 94 189 Q 92 189 92 188 Q 93 185 104 174 Q 120 155 128 122" fill="#000080" clip-path="url(#clip-mask-1)" /><path d="M 96 85 L 96 82 Q 96 79 97 79 Q 99 78 103 80 Q 103 80 104 80 Q 120 84 123 95 Q 123 99 122 102 Q 120 105 116 104 Q 108 100 99 88" fill="#000080" clip-path="url(#clip-mask-2)" /><path d="M 112 138 L 104 146 Q 102 151 100 151 Q 97 150 91 146 Q 85 143 84 139 Q 85 135 87 135 Q 89 135 94 135 Q 96 134 129 115 L 128 122" fill="#000080" clip-path="url(#clip-mask-3)" /><path d="M 187 188 Q 169 183 165 165 Q 160 146 162 80 Q 163 59 163 49 Q 162 37 157 32 Q 156 30 157 28 Q 160 25 164 27 Q 174 29 180 35 Q 182 36 183 38 Q 182 38 179 55 Q 171 103 175 156 Q 176 169 185 174" fill="#000080" clip-path="url(#clip-mask-4)" /><path d="M 235 188 L 226 190 Q 209 196 187 188 L 185 174 Q 198 179 212 176 L 238 174 Q 242 181 238 184" fill="#000080" clip-path="url(#clip-mask-5)" /><path d="M 212 176 Q 217 175 218 172 Q 220 169 222 160 Q 225 152 227 146 Q 228 141 230 142 Q 232 144 232 147 Q 234 162 238 174" fill="#000080" clip-path="url(#clip-mask-6)" /><path d="M 201 66 L 200 62 Q 199 58 202 58 Q 205 57 210 60 Q 217 63 220 67 Q 223 71 218 73 Q 208 78 184 96 Q 180 97 182 93 Q 196 73 198 70" fill="#000080" clip-path="url(#clip-mask-7)" /><path d="M 182 114 L 182 111 Q 182 108 184 109 Q 189 110 198 112 Q 213 116 216 124 Q 220 133 218 136 Q 217 139 215 138 Q 211 138 208 134 Q 195 123 184 116" fill="#000080" clip-path="url(#clip-mask-8)" /><path d="M 50 41 L 49 37 Q 49 34 50 33 Q 52 32 56 33 Q 82 38 85 47 Q 88 56 86 60 Q 85 63 82 64 Q 77 64 73 60 Q 65 53 58 47" fill="#0000ff" clip-path="url(#clip-mask-9)" /><path d="M 54 109 Q 33 118 23 114 Q 21 113 21 111 Q 22 110 23 110 Q 28 110 40 105 Q 49 101 56 95 Q 61 90 67 93 Q 68 94 68 94 Q 90 102 82 110" fill="#0000ff" clip-path="url(#clip-mask-10)" /><path d="M 58 151 Q 49 138 60 125 Q 66 117 59 112 Q 57 109 54 109 L 82 110 Q 80 111 79 113 Q 61 137 70 151" fill="#0000ff" clip-path="url(#clip-mask-11)" /><path d="M 70 179 L 66 168 Q 64 163 58 151 L 70 151 Q 78 163 80 169 Q 83 182 74 191 L 65 191" fill="#0000ff" clip-path="url(#clip-mask-12)" /><path d="M 74 191 Q 84 192 95 196 Q 130 207 156 212 Q 191 216 242 214 Q 248 213 242 218 Q 229 228 213 235 Q 192 244 129 219 Q 112 212 98 208 Q 61 196 42 210 Q 37 213 34 212 Q 28 208 23 203 Q 21 200 22 198 Q 23 196 25 196 Q 37 196 45 194 Q 55 190 65 191" fill="#0000ff" clip-path="url(#clip-mask-13)" /><rect x="92" y="42" width="53" height="147" id="rect-1" fill="transparent" stroke="#000000"><animate attributeName="y" from="-105" to="42" dur="0.544" begin="0; animate13.end + 1s" id="animate1" fill="freeze"/></rect><rect x="96" y="78" width="27" height="27" id="rect-2" fill="transparent" stroke="#000000"><set attributeName="x" to="69" begin="0; animate13.end + 1s" /><animate attributeName="x" from="69" to="96" dur="0.100" begin="animate1.end + 0.5" id="animate2" fill="freeze"/></rect><rect x="84" y="115" width="45" height="36" id="rect-3" fill="transparent" stroke="#000000"><set attributeName="x" to="39" begin="0; animate13.end + 1s" /><animate attributeName="x" from="39" to="84" dur="0.167" begin="animate2.end + 0.5" id="animate3" fill="freeze"/></rect><rect x="156" y="25" width="31" height="163" id="rect-4" fill="transparent" stroke="#000000"><set attributeName="y" to="-138" begin="0; animate13.end + 1s" /><animate attributeName="y" from="-138" to="25" dur="0.604" begin="animate3.end + 0.5" id="animate4" fill="freeze"/></rect><rect x="185" y="174" width="57" height="22" id="rect-5" fill="transparent" stroke="#000000"><set attributeName="x" to="128" begin="0; animate13.end + 1s" /><animate attributeName="x" from="128" to="185" dur="0.211" begin="animate4.end" id="animate5" fill="freeze"/></rect><rect x="212" y="141" width="26" height="35" id="rect-6" fill="transparent" stroke="#000000"><set attributeName="y" to="176" begin="0; animate13.end + 1s" /><animate attributeName="y" from="176" to="141" dur="0.130" begin="animate5.end" id="animate6" fill="freeze"/></rect><rect x="180" y="57" width="43" height="40" id="rect-7" fill="transparent" stroke="#000000"><set attributeName="y" to="17" begin="0; animate13.end + 1s" /><animate attributeName="y" from="17" to="57" dur="0.148" begin="animate6.end + 0.5" id="animate7" fill="freeze"/></rect><rect x="182" y="108" width="38" height="31" id="rect-8" fill="transparent" stroke="#000000"><set attributeName="x" to="144" begin="0; animate13.end + 1s" /><animate attributeName="x" from="144" to="182" dur="0.141" begin="animate7.end + 0.5" id="animate8" fill="freeze"/></rect><rect x="49" y="32" width="39" height="32" id="rect-9" fill="transparent" stroke="#000000"><set attributeName="x" to="10" begin="0; animate13.end + 1s" /><animate attributeName="x" from="10" to="49" dur="0.144" begin="animate8.end + 0.5" id="animate9" fill="freeze"/></rect><rect x="21" y="90" width="69" height="28" id="rect-10" fill="transparent" stroke="#000000"><set attributeName="x" to="-48" begin="0; animate13.end + 1s" /><animate attributeName="x" from="-48" to="21" dur="0.256" begin="animate9.end + 0.5" id="animate10" fill="freeze"/></rect><rect x="49" y="109" width="33" height="42" id="rect-11" fill="transparent" stroke="#000000"><set attributeName="y" to="67" begin="0; animate13.end + 1s" /><animate attributeName="y" from="67" to="109" dur="0.156" begin="animate10.end" id="animate11" fill="freeze"/></rect><rect x="58" y="151" width="25" height="40" id="rect-12" fill="transparent" stroke="#000000"><set attributeName="y" to="111" begin="0; animate13.end + 1s" /><animate attributeName="y" from="111" to="151" dur="0.148" begin="animate11.end" id="animate12" fill="freeze"/></rect><rect x="21" y="190" width="227" height="54" id="rect-13" fill="transparent" stroke="#000000"><set attributeName="x" to="-206" begin="0; animate13.end + 1s" /><animate attributeName="x" from="-206" to="21" dur="0.841" begin="animate12.end + 0.5" id="animate13" fill="freeze"/></rect></svg>