<svg xmlns="http://www.w3.org/2000/svg" xmlns:xlink="http://www.w3.org/1999/xlink" width="270" height="270"><defs><clipPath id="clip-mask-1"><use xlink:href="#rect-1" /></clipPath><clipPath id="clip-mask-2"><use xlink:href="#rect-2" /></clipPath><clipPath id="clip-mask-3"><use xlink:href="#rect-3" /></clipPath><clipPath id="clip-mask-4"><use xlink:href="#rect-4" /></clipPath><clipPath id="clip-mask-5"><use xlink:href="#rect-5" /></clipPath><clipPath id="clip-mask-6"><use xlink:href="#rect-6" /></clipPath><clipPath id="clip-mask-7"><use xlink:href="#rect-7" /></clipPath><clipPath id="clip-mask-8"><use xlink:href="#rect-8" /></clipPath><clipPath id="clip-mask-9"><use xlink:href="#rect-9" /></clipPath><clipPath id="clip-mask-10"><use xlink:href="#rect-10" /></clipPath><clipPath id="clip-mask-11"><use xlink:href="#rect-11" /></clipPath><clipPath id="clip-mask-12"><use xlink:href="#rect-12" /></clipPath><clipPath id="clip-mask-13"><use xlink:href="#rect-13" /></clipPath><clipPath id="clip-mask-14"><use xlink:href="#rect-14" /></clipPath><clipPath id="clip-mask-15"><use xlink:href="#rect-15" /></clipPath><clipPath id="clip-mask-16"><use xlink:href="#rect-16" /></clipPath><clipPath id="clip-mask-17"><use xlink:href="#rect-17" /></clipPath></defs><path d="M 0 0 L 270 270 M 270 0 L 0 270 M 135 0 L 135 270 M 0 135 L 270 135" stroke="#CCCCCC" /><path d="M 139 28 L 137 25 Q 137 22 138 21 Q 141 18 163 23 Q 172 26 174 32 Q 178 39 177 44 Q 176 47 173 48 Q 169 49 165 45 Q 155 38 146 32" fill="#CCCCCC"/><path d="M 128 68 Q 164 60 183 52 Q 189 50 193 52 Q 206 58 210 62 L 186 65 Q 184 63 179 64 Q 138 74 132 75" fill="#CCCCCC"/><path d="M 210 62 Q 214 66 209 71 Q 203 74 196 88 L 183 88 Q 186 80 187 70 Q 188 67 186 65" fill="#CCCCCC"/><path d="M 127 101 Q 151 97 183 88 L 196 88 Q 203 92 203 94 Q 203 96 200 97 Q 155 103 135 108 Q 128 109 126 107" fill="#CCCCCC"/><path d="M 127 98 L 127 101 L 126 107 Q 121 125 119 131 L 116 142 Q 112 149 108 156 Q 93 179 86 181 Q 84 181 84 179 Q 84 177 85 176 Q 98 159 106 137 Q 108 131 109 126 Q 119 78 113 67 Q 112 64 114 62 Q 118 60 128 68 L 132 75 Q 130 78 130 83 Q 129 89 128 94" fill="#CCCCCC"/><path d="M 128 141 Q 127 145 127 162 Q 127 196 121 201 Q 119 202 117 199 Q 116 198 116 198 Q 109 189 113 182 Q 119 169 116 142 L 119 131 Q 120 131 120 131 Q 121 131 121 131" fill="#CCCCCC"/><path d="M 167 130 Q 158 131 146 135 L 141 137 Q 136 138 133 140 Q 130 141 128 141 L 121 131 Q 128 130 138 127 Q 151 124 185 119 Q 198 116 205 114 Q 209 112 213 115 Q 226 123 228 126 L 207 128 Q 204 125 199 125 Q 185 126 174 129" fill="#CCCCCC"/><path d="M 228 126 Q 229 128 226 133 Q 222 140 222 155 Q 223 194 220 201 Q 218 208 214 213 Q 211 215 208 212 L 205 188 Q 208 181 208 133 Q 209 130 207 128" fill="#CCCCCC"/><path d="M 208 212 Q 201 203 185 189 Q 180 184 187 185 Q 195 187 202 189 Q 205 190 205 188" fill="#CCCCCC"/><path d="M 170 162 Q 163 163 155 165 L 145 167 Q 134 167 133 166 Q 128 163 132 162 Q 138 160 145 159 L 155 157 Q 162 155 170 153 L 181 150 Q 187 148 192 149 Q 198 151 200 154 Q 202 157 197 158 Q 189 158 181 160" fill="#CCCCCC"/><path d="M 155 165 Q 154 187 152 191 Q 150 194 147 189 Q 146 187 145 167 L 145 159 Q 143 148 142 139 Q 141 137 141 137 L 146 135 Q 153 137 155 139 Q 156 141 155 143 Q 155 146 155 157" fill="#CCCCCC"/><path d="M 170 186 L 170 162 L 170 153 Q 169 135 169 134 Q 168 133 168 132 Q 167 130 167 130 L 174 129 Q 177 130 181 133 Q 184 134 183 137 Q 182 138 182 145 Q 181 147 181 150 L 181 160 Q 179 196 175 199 Q 174 199 173 198 Q 172 196 171 192" fill="#CCCCCC"/><path d="M 50 45 L 49 42 Q 49 39 50 37 Q 52 37 56 38 Q 83 46 85 55 Q 87 64 86 68 Q 85 71 82 71 Q 77 71 74 68 Q 65 59 57 51" fill="#CCCCCC"/><path d="M 62 112 Q 60 111 58 112 Q 34 123 24 119 Q 22 118 22 116 Q 22 115 24 115 Q 34 116 55 101 Q 64 93 70 96 Q 79 100 84 104" fill="#CCCCCC"/><path d="M 57 155 Q 50 141 61 127 Q 68 119 62 112 L 84 104 Q 90 108 84 113 Q 79 118 73 129 Q 62 145 68 155" fill="#CCCCCC"/><path d="M 68 181 L 57 155 L 68 155 Q 75 167 77 173 Q 80 186 74 193 L 66 192" fill="#CCCCCC"/><path d="M 74 193 Q 84 193 94 197 Q 121 208 143 214 Q 187 227 243 225 Q 249 225 243 229 Q 229 239 213 244 Q 212 244 211 245 Q 188 251 128 223 Q 92 207 74 203 Q 56 200 41 213 Q 37 217 34 216 Q 27 213 22 208 Q 20 206 20 204 Q 21 202 23 201 Q 36 200 44 196 Q 55 192 66 192" fill="#CCCCCC"/><path d="M 139 28 L 137 25 Q 137 22 138 21 Q 141 18 163 23 Q 172 26 174 32 Q 178 39 177 44 Q 176 47 173 48 Q 169 49 165 45 Q 155 38 146 32" fill="#000080" clip-path="url(#clip-mask-1)" /><path d="M 128 68 Q 164 60 183 52 Q 189 50 193 52 Q 206 58 210 62 L 186 65 Q 184 63 179 64 Q 138 74 132 75" fill="#000080" clip-path="url(#clip-mask-2)" /><path d="M 210 62 Q 214 66 209 71 Q 203 74 196 88 L 183 88 Q 186 80 187 70 Q 188 67 186 65" fill="#000080" clip-path="url(#clip-mask-3)" /><path d="M 127 101 Q 151 97 183 88 L 196 88 Q 203 92 203 94 Q 203 96 200 97 Q 155 103 135 108 Q 128 109 126 107" fill="#000080" clip-path="url(#clip-mask-4)" /><path d="M 127 98 L 127 101 L 126 107 Q 121 125 119 131 L 116 142 Q 112 149 108 156 Q 93 179 86 181 Q 84 181 84 179 Q 84 177 85 176 Q 98 159 106 137 Q 108 131 109 126 Q 119 78 113 67 Q 112 64 114 62 Q 118 60 128 68 L 132 75 Q 130 78 130 83 Q 129 89 128 94" fill="#000080" clip-path="url(#clip-mask-5)" /><path d="M 128 141 Q 127 145 127 162 Q 127 196 121 201 Q 119 202 117 199 Q 116 198 116 198 Q 109 189 113 182 Q 119 169 116 142 L 119 131 Q 120 131 120 131 Q 121 131 121 131" fill="#000080" clip-path="url(#clip-mask-6)" /><path d="M 167 130 Q 158 131 146 135 L 141 137 Q 136 138 133 140 Q 130 141 128 141 L 121 131 Q 128 130 138 127 Q 151 124 185 119 Q 198 116 205 114 Q 209 112 213 115 Q 226 123 228 126 L 207 128 Q 204 125 199 125 Q 185 126 174 129" fill="#000080" clip-path="url(#clip-mask-7)" /><path d="M 228 126 Q 229 128 226 133 Q 222 140 222 155 Q 223 194 220 201 Q 218 208 214 213 Q 211 215 208 212 L 205 188 Q 208 181 208 133 Q 209 130 207 128" fill="#000080" clip-path="url(#clip-mask-8)" /><path d="M 208 212 Q 201 203 185 189 Q 180 184 187 185 Q 195 187 202 189 Q 205 190 205 188" fill="#000080" clip-path="url(#clip-mask-9)" /><path d="M 170 162 Q 163 163 155 165 L 145 167 Q 134 167 133 166 Q 128 163 132 162 Q 138 160 145 159 L 155 157 Q 162 155 170 153 L 181 150 Q 187 148 192 149 Q 198 151 200 154 Q 202 157 197 158 Q 189 158 181 160" fill="#000080" clip-path="url(#clip-mask-10)" /><path d="M 155 165 Q 154 187 152 191 Q 150 194 147 189 Q 146 187 145 167 L 145 159 Q 143 148 142 139 Q 141 137 141 137 L 146 135 Q 153 137 155 139 Q 156 141 155 143 Q 155 146 155 157" fill="#000080" clip-path="url(#clip-mask-11)" /><path d="M 170 186 L 170 162 L 170 153 Q 169 135 169 134 Q 168 133 168 132 Q 167 130 167 130 L 174 129 Q 177 130 181 133 Q 184 134 183 137 Q 182 138 182 145 Q 181 147 181 150 L 181 160 Q 179 196 175 199 Q 174 199 173 198 Q 172 196 171 192" fill="#000080" clip-path="url(#clip-mask-12)" /><path d="M 50 45 L 49 42 Q 49 39 50 37 Q 52 37 56 38 Q 83 46 85 55 Q 87 64 86 68 Q 85 71 82 71 Q 77 71 74 68 Q 65 59 57 51" fill="#0000ff" clip-path="url(#clip-mask-13)" /><path d="M 62 112 Q 60 111 58 112 Q 34 123 24 119 Q 22 118 22 116 Q 22 115 24 115 Q 34 116 55 101 Q 64 93 70 96 Q 79 100 84 104" fill="#0000ff" clip-path="url(#clip-mask-14)" /><path d="M 57 155 Q 50 141 61 127 Q 68 119 62 112 L 84 104 Q 90 108 84 113 Q 79 118 73 129 Q 62 145 68 155" fill="#0000ff" clip-path="url(#clip-mask-15)" /><path d="M 68 181 L 57 155 L 68 155 Q 75 167 77 173 Q 80 186 74 193 L 66 192" fill="#0000ff" clip-path="url(#clip-mask-16)" /><path d="M 74 193 Q 84 193 94 197 Q 121 208 143 214 Q 187 227 243 225 Q 249 225 243 229 Q 229 239 213 244 Q 212 244 211 245 Q 188 251 128 223 Q 92 207 74 203 Q 56 200 41 213 Q 37 217 34 216 Q 27 213 22 208 Q 20 206 20 204 Q 21 202 23 201 Q 36 200 44 196 Q 55 192 66 192" fill="#0000ff" clip-path="url(#clip-mask-17)" /><rect x="137" y="18" width="41" height="31" id="rect-1" fill="transparent" stroke="#000000"><animate attributeName="x" from="96" to="137" dur="0.152" begin="0; animate17.end + 1s" id="animate1" fill="freeze"/></rect><rect x="128" y="50" width="82" height="25" id="rect-2" fill="transparent" stroke="#000000"><set attributeName="x" to="46" begin="0; animate17.end + 1s" /><animate attributeName="x" from="46" to="128" dur="0.304" begin="animate1.end + 0.5" id="animate2" fill="freeze"/></rect><rect x="183" y="62" width="31" height="26" id="rect-3" fill="transparent" stroke="#000000"><set attributeName="y" to="36" begin="0; animate17.end + 1s" /><animate attributeName="y" from="36" to="62" dur="0.096" begin="animate2.end" id="animate3" fill="freeze"/></rect><rect x="126" y="88" width="77" height="21" id="rect-4" fill="transparent" stroke="#000000"><set attributeName="x" to="49" begin="0; animate17.end + 1s" /><animate attributeName="x" from="49" to="126" dur="0.285" begin="animate3.end + 0.5" id="animate4" fill="freeze"/></rect><rect x="84" y="60" width="48" height="121" id="rect-5" fill="transparent" stroke="#000000"><set attributeName="y" to="-61" begin="0; animate17.end + 1s" /><animate attributeName="y" from="-61" to="60" dur="0.448" begin="animate4.end + 0.5" id="animate5" fill="freeze"/></rect><rect x="109" y="131" width="19" height="71" id="rect-6" fill="transparent" stroke="#000000"><set attributeName="y" to="60" begin="0; animate17.end + 1s" /><animate attributeName="y" from="60" to="131" dur="0.263" begin="animate5.end + 0.5" id="animate6" fill="freeze"/></rect><rect x="121" y="112" width="107" height="29" id="rect-7" fill="transparent" stroke="#000000"><set attributeName="x" to="14" begin="0; animate17.end + 1s" /><animate attributeName="x" from="14" to="121" dur="0.396" begin="animate6.end + 0.5" id="animate7" fill="freeze"/></rect><rect x="205" y="126" width="24" height="89" id="rect-8" fill="transparent" stroke="#000000"><set attributeName="y" to="37" begin="0; animate17.end + 1s" /><animate attributeName="y" from="37" to="126" dur="0.330" begin="animate7.end" id="animate8" fill="freeze"/></rect><rect x="180" y="184" width="28" height="28" id="rect-9" fill="transparent" stroke="#000000"><set attributeName="x" to="208" begin="0; animate17.end + 1s" /><animate attributeName="x" from="208" to="180" dur="0.104" begin="animate8.end" id="animate9" fill="freeze"/></rect><rect x="128" y="148" width="74" height="19" id="rect-10" fill="transparent" stroke="#000000"><set attributeName="x" to="54" begin="0; animate17.end + 1s" /><animate attributeName="x" from="54" to="128" dur="0.274" begin="animate9.end + 0.5" id="animate10" fill="freeze"/></rect><rect x="141" y="135" width="15" height="59" id="rect-11" fill="transparent" stroke="#000000"><set attributeName="y" to="76" begin="0; animate17.end + 1s" /><animate attributeName="y" from="76" to="135" dur="0.219" begin="animate10.end + 0.5" id="animate11" fill="freeze"/></rect><rect x="167" y="129" width="17" height="70" id="rect-12" fill="transparent" stroke="#000000"><set attributeName="y" to="59" begin="0; animate17.end + 1s" /><animate attributeName="y" from="59" to="129" dur="0.259" begin="animate11.end + 0.5" id="animate12" fill="freeze"/></rect><rect x="49" y="37" width="38" height="34" id="rect-13" fill="transparent" stroke="#000000"><set attributeName="x" to="11" begin="0; animate17.end + 1s" /><animate attributeName="x" from="11" to="49" dur="0.141" begin="animate12.end + 0.5" id="animate13" fill="freeze"/></rect><rect x="22" y="93" width="62" height="30" id="rect-14" fill="transparent" stroke="#000000"><set attributeName="x" to="-40" begin="0; animate17.end + 1s" /><animate attributeName="x" from="-40" to="22" dur="0.230" begin="animate13.end + 0.5" id="animate14" fill="freeze"/></rect><rect x="50" y="104" width="40" height="51" id="rect-15" fill="transparent" stroke="#000000"><set attributeName="y" to="53" begin="0; animate17.end + 1s" /><animate attributeName="y" from="53" to="104" dur="0.189" begin="animate14.end" id="animate15" fill="freeze"/></rect><rect x="57" y="155" width="23" height="38" id="rect-16" fill="transparent" stroke="#000000"><set attributeName="y" to="117" begin="0; animate17.end + 1s" /><animate attributeName="y" from="117" to="155" dur="0.141" begin="animate15.end" id="animate16" fill="freeze"/></rect><rect x="20" y="192" width="229" height="59" id="rect-17" fill="transparent" stroke="#000000"><set attributeName="x" to="-209" begin="0; animate17.end + 1s" /><animate attributeName="x" from="-209" to="20" dur="0.848" begin="animate16.end + 0.5" id="animate17" fill="freeze"/></rect></svg>