<svg xmlns="http://www.w3.org/2000/svg" xmlns:xlink="http://www.w3.org/1999/xlink" width="270" height="270"><defs><clipPath id="clip-mask-1"><use xlink:href="#rect-1" /></clipPath><clipPath id="clip-mask-2"><use xlink:href="#rect-2" /></clipPath><clipPath id="clip-mask-3"><use xlink:href="#rect-3" /></clipPath><clipPath id="clip-mask-4"><use xlink:href="#rect-4" /></clipPath><clipPath id="clip-mask-5"><use xlink:href="#rect-5" /></clipPath><clipPath id="clip-mask-6"><use xlink:href="#rect-6" /></clipPath><clipPath id="clip-mask-7"><use xlink:href="#rect-7" /></clipPath><clipPath id="clip-mask-8"><use xlink:href="#rect-8" /></clipPath><clipPath id="clip-mask-9"><use xlink:href="#rect-9" /></clipPath><clipPath id="clip-mask-10"><use xlink:href="#rect-10" /></clipPath><clipPath id="clip-mask-11"><use xlink:href="#rect-11" /></clipPath><clipPath id="clip-mask-12"><use xlink:href="#rect-12" /></clipPath><clipPath id="clip-mask-13"><use xlink:href="#rect-13" /></clipPath><clipPath id="clip-mask-14"><use xlink:href="#rect-14" /></clipPath><clipPath id="clip-mask-15"><use xlink:href="#rect-15" /></clipPath><clipPath id="clip-mask-16"><use xlink:href="#rect-16" /></clipPath><clipPath id="clip-mask-17"><use xlink:href="#rect-17" /></clipPath><clipPath id="clip-mask-18"><use xlink:href="#rect-18" /></clipPath><clipPath id="clip-mask-19"><use xlink:href="#rect-19" /></clipPath><clipPath id="clip-mask-20"><use xlink:href="#rect-20" /></clipPath><clipPath id="clip-mask-21"><use xlink:href="#rect-21" /></clipPath><clipPath id="clip-mask-22"><use xlink:href="#rect-22" /></clipPath><clipPath id="clip-mask-23"><use xlink:href="#rect-23" /></clipPath></defs><path d="M 0 0 L 270 270 M 270 0 L 0 270 M 135 0 L 135 270 M 0 135 L 270 135" stroke="#CCCCCC" /><path d="M 125 40 L 131 37 Q 141 30 145 32 Q 151 36 155 38 Q 161 41 156 47 L 140 44 Q 138 43 133 44 Q 120 48 114 50 L 114 44" fill="#CCCCCC"/><path d="M 137 61 Q 140 45 140 44 L 156 47 Q 152 50 148 62" fill="#CCCCCC"/><path d="M 113 69 Q 123 66 136 61 Q 137 61 137 61 L 148 62 Q 151 64 151 65 Q 151 66 149 67 Q 148 67 147 67 Q 126 72 116 75 Q 114 75 113 75" fill="#CCCCCC"/><path d="M 114 50 Q 113 60 113 69 L 113 75 Q 113 85 116 92 L 112 103 Q 105 97 105 58 Q 104 51 102 43 Q 101 40 102 39 Q 103 38 106 39 Q 112 41 114 44" fill="#CCCCCC"/><path d="M 116 92 Q 118 94 121 95 Q 129 98 139 96 L 161 92 Q 163 96 160 99 Q 155 104 150 106 Q 125 113 112 103" fill="#CCCCCC"/><path d="M 139 96 Q 145 94 152 80 Q 152 76 153 77 Q 155 78 155 81 Q 159 89 161 92" fill="#CCCCCC"/><path d="M 182 30 L 189 28 Q 195 25 200 22 Q 203 20 208 22 Q 213 26 217 28 Q 222 31 217 37 L 202 34 Q 200 32 196 33 Q 190 35 182 37 Q 179 38 177 38 L 174 32" fill="#CCCCCC"/><path d="M 217 37 Q 214 39 210 50 L 199 49 Q 200 44 201 40 Q 203 35 202 34" fill="#CCCCCC"/><path d="M 210 50 Q 215 52 215 54 Q 214 56 212 56 Q 190 59 181 62 Q 178 62 175 62 L 175 56 Q 186 53 199 49" fill="#CCCCCC"/><path d="M 177 38 L 177 38 Q 175 48 175 56 L 175 62 Q 175 73 179 78 L 175 89 Q 167 83 167 48 Q 167 41 164 34 Q 163 31 164 30 Q 166 29 168 30 Q 171 31 174 32" fill="#CCCCCC"/><path d="M 179 78 Q 180 81 184 82 Q 194 85 204 82 L 227 79 Q 229 83 225 86 Q 220 90 214 93 Q 214 93 214 93 Q 189 100 175 89" fill="#CCCCCC"/><path d="M 204 82 Q 210 80 219 66 Q 220 63 221 64 Q 222 65 222 67 Q 225 77 227 79" fill="#CCCCCC"/><path d="M 137 139 Q 134 139 131 140 Q 122 142 115 137 Q 111 133 116 133 Q 126 131 135 130 L 147 128 Q 172 122 172 122 L 186 119 Q 195 116 201 120 Q 206 122 206 124 Q 204 127 201 127 Q 192 128 183 130 L 171 132 Q 158 134 147 137" fill="#CCCCCC"/><path d="M 138 146 L 137 139 L 135 130 Q 133 123 129 118 Q 128 115 129 113 Q 131 112 134 113 Q 140 115 145 118 Q 147 120 147 128 L 147 137 Q 148 144 149 156 L 140 157" fill="#CCCCCC"/><path d="M 172 122 Q 173 108 171 104 Q 169 101 171 99 Q 173 98 176 99 Q 180 101 187 105 Q 190 109 189 111 Q 186 116 186 119 L 183 130 Q 180 140 177 151 L 168 152 Q 170 141 171 132" fill="#CCCCCC"/><path d="M 149 156 Q 155 155 160 154 Q 164 153 168 152 L 177 151 Q 191 148 202 145 Q 216 140 228 149 Q 232 152 231 154 Q 230 156 226 156 L 225 156 Q 164 157 117 171 Q 106 173 100 168 Q 96 165 100 164 Q 121 160 140 157" fill="#CCCCCC"/><path d="M 135 171 L 137 171 Q 140 170 146 172 Q 152 174 153 177 Q 153 180 150 182 Q 148 184 144 188 Q 126 204 116 203 Q 110 204 115 200 Q 133 183 134 174" fill="#CCCCCC"/><path d="M 177 176 L 176 173 Q 177 170 178 169 Q 180 169 183 170 Q 212 185 213 196 Q 213 204 211 207 Q 210 210 207 210 Q 203 209 201 205 Q 191 193 182 182" fill="#CCCCCC"/><path d="M 49 49 L 48 46 Q 48 42 49 41 Q 54 40 72 48 Q 80 52 81 57 Q 83 66 82 70 Q 80 74 77 74 Q 72 74 69 70 Q 62 62 56 56" fill="#CCCCCC"/><path d="M 58 125 Q 55 122 53 122 Q 37 129 27 124 Q 25 123 25 122 Q 26 120 27 120 Q 34 121 51 112 Q 61 105 66 108 Q 75 112 80 116 Q 85 120 80 125" fill="#CCCCCC"/><path d="M 56 160 Q 46 149 57 136 Q 62 129 58 125 L 80 125 Q 75 129 70 135 Q 61 150 67 157" fill="#CCCCCC"/><path d="M 65 191 L 65 191 Q 68 179 56 160 L 67 157 Q 79 171 77 182 Q 76 185 68 193 L 65 192" fill="#CCCCCC"/><path d="M 68 193 Q 82 194 98 202 Q 157 224 246 223 Q 250 223 250 224 Q 251 225 249 226 Q 219 243 198 247 Q 183 249 149 232 Q 123 219 71 202 Q 52 197 42 206 Q 34 211 29 208 Q 19 201 19 199 Q 18 196 22 196 Q 28 196 38 193 Q 50 191 65 192" fill="#CCCCCC"/><path d="M 125 40 L 131 37 Q 141 30 145 32 Q 151 36 155 38 Q 161 41 156 47 L 140 44 Q 138 43 133 44 Q 120 48 114 50 L 114 44" fill="#000080" clip-path="url(#clip-mask-1)" /><path d="M 137 61 Q 140 45 140 44 L 156 47 Q 152 50 148 62" fill="#000080" clip-path="url(#clip-mask-2)" /><path d="M 113 69 Q 123 66 136 61 Q 137 61 137 61 L 148 62 Q 151 64 151 65 Q 151 66 149 67 Q 148 67 147 67 Q 126 72 116 75 Q 114 75 113 75" fill="#000080" clip-path="url(#clip-mask-3)" /><path d="M 114 50 Q 113 60 113 69 L 113 75 Q 113 85 116 92 L 112 103 Q 105 97 105 58 Q 104 51 102 43 Q 101 40 102 39 Q 103 38 106 39 Q 112 41 114 44" fill="#000080" clip-path="url(#clip-mask-4)" /><path d="M 116 92 Q 118 94 121 95 Q 129 98 139 96 L 161 92 Q 163 96 160 99 Q 155 104 150 106 Q 125 113 112 103" fill="#000080" clip-path="url(#clip-mask-5)" /><path d="M 139 96 Q 145 94 152 80 Q 152 76 153 77 Q 155 78 155 81 Q 159 89 161 92" fill="#000080" clip-path="url(#clip-mask-6)" /><path d="M 182 30 L 189 28 Q 195 25 200 22 Q 203 20 208 22 Q 213 26 217 28 Q 222 31 217 37 L 202 34 Q 200 32 196 33 Q 190 35 182 37 Q 179 38 177 38 L 174 32" fill="#000080" clip-path="url(#clip-mask-7)" /><path d="M 217 37 Q 214 39 210 50 L 199 49 Q 200 44 201 40 Q 203 35 202 34" fill="#000080" clip-path="url(#clip-mask-8)" /><path d="M 210 50 Q 215 52 215 54 Q 214 56 212 56 Q 190 59 181 62 Q 178 62 175 62 L 175 56 Q 186 53 199 49" fill="#000080" clip-path="url(#clip-mask-9)" /><path d="M 177 38 L 177 38 Q 175 48 175 56 L 175 62 Q 175 73 179 78 L 175 89 Q 167 83 167 48 Q 167 41 164 34 Q 163 31 164 30 Q 166 29 168 30 Q 171 31 174 32" fill="#000080" clip-path="url(#clip-mask-10)" /><path d="M 179 78 Q 180 81 184 82 Q 194 85 204 82 L 227 79 Q 229 83 225 86 Q 220 90 214 93 Q 214 93 214 93 Q 189 100 175 89" fill="#000080" clip-path="url(#clip-mask-11)" /><path d="M 204 82 Q 210 80 219 66 Q 220 63 221 64 Q 222 65 222 67 Q 225 77 227 79" fill="#000080" clip-path="url(#clip-mask-12)" /><path d="M 137 139 Q 134 139 131 140 Q 122 142 115 137 Q 111 133 116 133 Q 126 131 135 130 L 147 128 Q 172 122 172 122 L 186 119 Q 195 116 201 120 Q 206 122 206 124 Q 204 127 201 127 Q 192 128 183 130 L 171 132 Q 158 134 147 137" fill="#000080" clip-path="url(#clip-mask-13)" /><path d="M 138 146 L 137 139 L 135 130 Q 133 123 129 118 Q 128 115 129 113 Q 131 112 134 113 Q 140 115 145 118 Q 147 120 147 128 L 147 137 Q 148 144 149 156 L 140 157" fill="#000080" clip-path="url(#clip-mask-14)" /><path d="M 172 122 Q 173 108 171 104 Q 169 101 171 99 Q 173 98 176 99 Q 180 101 187 105 Q 190 109 189 111 Q 186 116 186 119 L 183 130 Q 180 140 177 151 L 168 152 Q 170 141 171 132" fill="#000080" clip-path="url(#clip-mask-15)" /><path d="M 149 156 Q 155 155 160 154 Q 164 153 168 152 L 177 151 Q 191 148 202 145 Q 216 140 228 149 Q 232 152 231 154 Q 230 156 226 156 L 225 156 Q 164 157 117 171 Q 106 173 100 168 Q 96 165 100 164 Q 121 160 140 157" fill="#000080" clip-path="url(#clip-mask-16)" /><path d="M 135 171 L 137 171 Q 140 170 146 172 Q 152 174 153 177 Q 153 180 150 182 Q 148 184 144 188 Q 126 204 116 203 Q 110 204 115 200 Q 133 183 134 174" fill="#000080" clip-path="url(#clip-mask-17)" /><path d="M 177 176 L 176 173 Q 177 170 178 169 Q 180 169 183 170 Q 212 185 213 196 Q 213 204 211 207 Q 210 210 207 210 Q 203 209 201 205 Q 191 193 182 182" fill="#000080" clip-path="url(#clip-mask-18)" /><path d="M 49 49 L 48 46 Q 48 42 49 41 Q 54 40 72 48 Q 80 52 81 57 Q 83 66 82 70 Q 80 74 77 74 Q 72 74 69 70 Q 62 62 56 56" fill="#0000ff" clip-path="url(#clip-mask-19)" /><path d="M 58 125 Q 55 122 53 122 Q 37 129 27 124 Q 25 123 25 122 Q 26 120 27 120 Q 34 121 51 112 Q 61 105 66 108 Q 75 112 80 116 Q 85 120 80 125" fill="#0000ff" clip-path="url(#clip-mask-20)" /><path d="M 56 160 Q 46 149 57 136 Q 62 129 58 125 L 80 125 Q 75 129 70 135 Q 61 150 67 157" fill="#0000ff" clip-path="url(#clip-mask-21)" /><path d="M 65 191 L 65 191 Q 68 179 56 160 L 67 157 Q 79 171 77 182 Q 76 185 68 193 L 65 192" fill="#0000ff" clip-path="url(#clip-mask-22)" /><path d="M 68 193 Q 82 194 98 202 Q 157 224 246 223 Q 250 223 250 224 Q 251 225 249 226 Q 219 243 198 247 Q 183 249 149 232 Q 123 219 71 202 Q 52 197 42 206 Q 34 211 29 208 Q 19 201 19 199 Q 18 196 22 196 Q 28 196 38 193 Q 50 191 65 192" fill="#0000ff" clip-path="url(#clip-mask-23)" /><rect x="114" y="30" width="47" height="20" id="rect-1" fill="transparent" stroke="#000000"><animate attributeName="x" from="67" to="114" dur="0.174" begin="0; animate23.end + 1s" id="animate1" fill="freeze"/></rect><rect x="137" y="44" width="19" height="18" id="rect-2" fill="transparent" stroke="#000000"><set attributeName="y" to="26" begin="0; animate23.end + 1s" /><animate attributeName="y" from="26" to="44" dur="0.067" begin="animate1.end" id="animate2" fill="freeze"/></rect><rect x="113" y="61" width="38" height="14" id="rect-3" fill="transparent" stroke="#000000"><set attributeName="x" to="75" begin="0; animate23.end + 1s" /><animate attributeName="x" from="75" to="113" dur="0.141" begin="animate2.end + 0.5" id="animate3" fill="freeze"/></rect><rect x="101" y="38" width="15" height="65" id="rect-4" fill="transparent" stroke="#000000"><set attributeName="y" to="-27" begin="0; animate23.end + 1s" /><animate attributeName="y" from="-27" to="38" dur="0.241" begin="animate3.end + 0.5" id="animate4" fill="freeze"/></rect><rect x="112" y="92" width="51" height="21" id="rect-5" fill="transparent" stroke="#000000"><set attributeName="x" to="61" begin="0; animate23.end + 1s" /><animate attributeName="x" from="61" to="112" dur="0.189" begin="animate4.end" id="animate5" fill="freeze"/></rect><rect x="139" y="76" width="22" height="20" id="rect-6" fill="transparent" stroke="#000000"><set attributeName="y" to="96" begin="0; animate23.end + 1s" /><animate attributeName="y" from="96" to="76" dur="0.074" begin="animate5.end" id="animate6" fill="freeze"/></rect><rect x="174" y="20" width="48" height="18" id="rect-7" fill="transparent" stroke="#000000"><set attributeName="x" to="126" begin="0; animate23.end + 1s" /><animate attributeName="x" from="126" to="174" dur="0.178" begin="animate6.end + 0.5" id="animate7" fill="freeze"/></rect><rect x="199" y="34" width="18" height="16" id="rect-8" fill="transparent" stroke="#000000"><set attributeName="y" to="18" begin="0; animate23.end + 1s" /><animate attributeName="y" from="18" to="34" dur="0.059" begin="animate7.end" id="animate8" fill="freeze"/></rect><rect x="175" y="49" width="40" height="13" id="rect-9" fill="transparent" stroke="#000000"><set attributeName="x" to="135" begin="0; animate23.end + 1s" /><animate attributeName="x" from="135" to="175" dur="0.148" begin="animate8.end + 0.5" id="animate9" fill="freeze"/></rect><rect x="163" y="29" width="16" height="60" id="rect-10" fill="transparent" stroke="#000000"><set attributeName="y" to="-31" begin="0; animate23.end + 1s" /><animate attributeName="y" from="-31" to="29" dur="0.222" begin="animate9.end + 0.5" id="animate10" fill="freeze"/></rect><rect x="175" y="78" width="54" height="22" id="rect-11" fill="transparent" stroke="#000000"><set attributeName="x" to="121" begin="0; animate23.end + 1s" /><animate attributeName="x" from="121" to="175" dur="0.200" begin="animate10.end" id="animate11" fill="freeze"/></rect><rect x="204" y="63" width="23" height="19" id="rect-12" fill="transparent" stroke="#000000"><set attributeName="y" to="82" begin="0; animate23.end + 1s" /><animate attributeName="y" from="82" to="63" dur="0.070" begin="animate11.end" id="animate12" fill="freeze"/></rect><rect x="111" y="116" width="95" height="26" id="rect-13" fill="transparent" stroke="#000000"><set attributeName="x" to="16" begin="0; animate23.end + 1s" /><animate attributeName="x" from="16" to="111" dur="0.352" begin="animate12.end + 0.5" id="animate13" fill="freeze"/></rect><rect x="128" y="112" width="21" height="45" id="rect-14" fill="transparent" stroke="#000000"><set attributeName="y" to="67" begin="0; animate23.end + 1s" /><animate attributeName="y" from="67" to="112" dur="0.167" begin="animate13.end + 0.5" id="animate14" fill="freeze"/></rect><rect x="168" y="98" width="22" height="54" id="rect-15" fill="transparent" stroke="#000000"><set attributeName="y" to="44" begin="0; animate23.end + 1s" /><animate attributeName="y" from="44" to="98" dur="0.200" begin="animate14.end + 0.5" id="animate15" fill="freeze"/></rect><rect x="96" y="140" width="136" height="33" id="rect-16" fill="transparent" stroke="#000000"><set attributeName="x" to="-40" begin="0; animate23.end + 1s" /><animate attributeName="x" from="-40" to="96" dur="0.504" begin="animate15.end + 0.5" id="animate16" fill="freeze"/></rect><rect x="110" y="170" width="43" height="34" id="rect-17" fill="transparent" stroke="#000000"><set attributeName="y" to="136" begin="0; animate23.end + 1s" /><animate attributeName="y" from="136" to="170" dur="0.126" begin="animate16.end + 0.5" id="animate17" fill="freeze"/></rect><rect x="176" y="169" width="37" height="41" id="rect-18" fill="transparent" stroke="#000000"><set attributeName="x" to="139" begin="0; animate23.end + 1s" /><animate attributeName="x" from="139" to="176" dur="0.137" begin="animate17.end + 0.5" id="animate18" fill="freeze"/></rect><rect x="48" y="40" width="35" height="34" id="rect-19" fill="transparent" stroke="#000000"><set attributeName="x" to="13" begin="0; animate23.end + 1s" /><animate attributeName="x" from="13" to="48" dur="0.130" begin="animate18.end + 0.5" id="animate19" fill="freeze"/></rect><rect x="25" y="105" width="60" height="24" id="rect-20" fill="transparent" stroke="#000000"><set attributeName="x" to="-35" begin="0; animate23.end + 1s" /><animate attributeName="x" from="-35" to="25" dur="0.222" begin="animate19.end + 0.5" id="animate20" fill="freeze"/></rect><rect x="46" y="125" width="34" height="35" id="rect-21" fill="transparent" stroke="#000000"><set attributeName="y" to="90" begin="0; animate23.end + 1s" /><animate attributeName="y" from="90" to="125" dur="0.130" begin="animate20.end" id="animate21" fill="freeze"/></rect><rect x="56" y="157" width="23" height="36" id="rect-22" fill="transparent" stroke="#000000"><set attributeName="y" to="121" begin="0; animate23.end + 1s" /><animate attributeName="y" from="121" to="157" dur="0.133" begin="animate21.end + 0.5" id="animate22" fill="freeze"/></rect><rect x="18" y="191" width="233" height="58" id="rect-23" fill="transparent" stroke="#000000"><set attributeName="x" to="-215" begin="0; animate23.end + 1s" /><animate attributeName="x" from="-215" to="18" dur="0.863" begin="animate22.end + 0.5" id="animate23" fill="freeze"/></rect></svg>