<svg xmlns="http://www.w3.org/2000/svg" xmlns:xlink="http://www.w3.org/1999/xlink" width="270" height="270"><defs><clipPath id="clip-mask-1"><use xlink:href="#rect-1" /></clipPath><clipPath id="clip-mask-2"><use xlink:href="#rect-2" /></clipPath><clipPath id="clip-mask-3"><use xlink:href="#rect-3" /></clipPath><clipPath id="clip-mask-4"><use xlink:href="#rect-4" /></clipPath><clipPath id="clip-mask-5"><use xlink:href="#rect-5" /></clipPath><clipPath id="clip-mask-6"><use xlink:href="#rect-6" /></clipPath><clipPath id="clip-mask-7"><use xlink:href="#rect-7" /></clipPath><clipPath id="clip-mask-8"><use xlink:href="#rect-8" /></clipPath><clipPath id="clip-mask-9"><use xlink:href="#rect-9" /></clipPath><clipPath id="clip-mask-10"><use xlink:href="#rect-10" /></clipPath><clipPath id="clip-mask-11"><use xlink:href="#rect-11" /></clipPath><clipPath id="clip-mask-12"><use xlink:href="#rect-12" /></clipPath><clipPath id="clip-mask-13"><use xlink:href="#rect-13" /></clipPath></defs><path d="M 0 0 L 270 270 M 270 0 L 0 270 M 135 0 L 135 270 M 0 135 L 270 135" stroke="#CCCCCC" /><path d="M 85 74 Q 82 74 79 75 Q 61 79 51 72 Q 44 68 54 66 Q 72 64 90 62 L 102 59 Q 136 49 142 50 Q 149 52 151 56 Q 152 58 150 60 Q 148 62 134 64 Q 115 68 97 71" fill="#CCCCCC"/><path d="M 79 112 Q 78 113 77 115 Q 55 152 24 169 Q 21 171 20 171 Q 17 170 20 167 Q 48 139 61 121 Q 74 101 85 74 L 90 62 Q 99 36 99 29 Q 98 23 94 18 Q 92 16 95 14 Q 99 12 102 13 Q 115 18 117 24 Q 118 27 115 31 Q 110 37 102 59 L 97 71 Q 91 88 85 100" fill="#CCCCCC"/><path d="M 88 164 L 88 165 Q 88 196 78 203 Q 75 204 74 201 Q 66 192 73 176 Q 85 141 79 112 L 85 100 Q 86 100 87 101 L 92 108 Q 92 109 92 110 Q 91 114 90 127 L 90 135 Q 89 144 88 156 L 88 163" fill="#CCCCCC"/><path d="M 87 101 Q 100 99 107 97 Q 112 95 121 90 Q 124 88 128 90 Q 137 93 142 97 L 124 101 Q 123 99 118 101 Q 107 104 96 107 Q 94 108 92 108" fill="#CCCCCC"/><path d="M 142 97 Q 145 100 142 104 Q 137 114 143 190 Q 143 203 134 215 Q 132 218 130 217 Q 126 215 123 211 L 124 193 Q 126 190 127 184 Q 130 118 124 101" fill="#CCCCCC"/><path d="M 123 211 Q 114 203 100 192 Q 99 190 104 191 Q 112 192 118 193 Q 123 195 124 193" fill="#CCCCCC"/><path d="M 90 127 Q 101 123 107 123 Q 113 124 116 127 Q 118 130 113 132 Q 104 133 92 135 Q 90 135 90 135" fill="#CCCCCC"/><path d="M 88 156 Q 101 150 110 151 Q 116 152 119 156 Q 121 159 116 160 Q 104 161 90 163 Q 88 163 88 163" fill="#CCCCCC"/><path d="M 179 55 Q 185 53 185 53 Q 210 45 216 40 Q 220 37 225 39 Q 231 42 242 51 L 215 55 Q 212 54 210 54 Q 201 57 191 61 Q 186 63 182 63" fill="#CCCCCC"/><path d="M 242 51 Q 249 57 240 61 Q 233 65 228 73 Q 223 79 217 90 Q 212 97 216 100 L 201 100 Q 200 98 203 94 Q 204 92 215 64 Q 218 57 215 55" fill="#CCCCCC"/><path d="M 216 100 Q 252 129 251 153 Q 251 169 241 182 Q 237 185 234 185 L 234 145 Q 230 123 207 106 Q 201 104 201 100" fill="#CCCCCC"/><path d="M 234 185 Q 231 185 229 181 Q 224 174 204 164 Q 199 162 199 160 Q 198 158 200 158 Q 210 159 220 160 Q 228 160 231 158 Q 234 155 234 145" fill="#CCCCCC"/><path d="M 166 232 L 166 190 Q 168 122 167 78 Q 166 68 162 61 Q 161 58 159 55 Q 157 52 159 50 Q 163 48 167 49 Q 171 49 179 55 L 182 63 Q 179 75 179 83 Q 179 167 181 190 Q 181 214 180 239 Q 178 254 174 257 Q 172 257 171 255 Q 169 253 168 246" fill="#CCCCCC"/><path d="M 85 74 Q 82 74 79 75 Q 61 79 51 72 Q 44 68 54 66 Q 72 64 90 62 L 102 59 Q 136 49 142 50 Q 149 52 151 56 Q 152 58 150 60 Q 148 62 134 64 Q 115 68 97 71" fill="#000080" clip-path="url(#clip-mask-1)" /><path d="M 79 112 Q 78 113 77 115 Q 55 152 24 169 Q 21 171 20 171 Q 17 170 20 167 Q 48 139 61 121 Q 74 101 85 74 L 90 62 Q 99 36 99 29 Q 98 23 94 18 Q 92 16 95 14 Q 99 12 102 13 Q 115 18 117 24 Q 118 27 115 31 Q 110 37 102 59 L 97 71 Q 91 88 85 100" fill="#000080" clip-path="url(#clip-mask-2)" /><path d="M 88 164 L 88 165 Q 88 196 78 203 Q 75 204 74 201 Q 66 192 73 176 Q 85 141 79 112 L 85 100 Q 86 100 87 101 L 92 108 Q 92 109 92 110 Q 91 114 90 127 L 90 135 Q 89 144 88 156 L 88 163" fill="#000080" clip-path="url(#clip-mask-3)" /><path d="M 87 101 Q 100 99 107 97 Q 112 95 121 90 Q 124 88 128 90 Q 137 93 142 97 L 124 101 Q 123 99 118 101 Q 107 104 96 107 Q 94 108 92 108" fill="#000080" clip-path="url(#clip-mask-4)" /><path d="M 142 97 Q 145 100 142 104 Q 137 114 143 190 Q 143 203 134 215 Q 132 218 130 217 Q 126 215 123 211 L 124 193 Q 126 190 127 184 Q 130 118 124 101" fill="#000080" clip-path="url(#clip-mask-5)" /><path d="M 123 211 Q 114 203 100 192 Q 99 190 104 191 Q 112 192 118 193 Q 123 195 124 193" fill="#000080" clip-path="url(#clip-mask-6)" /><path d="M 90 127 Q 101 123 107 123 Q 113 124 116 127 Q 118 130 113 132 Q 104 133 92 135 Q 90 135 90 135" fill="#000080" clip-path="url(#clip-mask-7)" /><path d="M 88 156 Q 101 150 110 151 Q 116 152 119 156 Q 121 159 116 160 Q 104 161 90 163 Q 88 163 88 163" fill="#000080" clip-path="url(#clip-mask-8)" /><path d="M 179 55 Q 185 53 185 53 Q 210 45 216 40 Q 220 37 225 39 Q 231 42 242 51 L 215 55 Q 212 54 210 54 Q 201 57 191 61 Q 186 63 182 63" fill="#0000ff" clip-path="url(#clip-mask-9)" /><path d="M 242 51 Q 249 57 240 61 Q 233 65 228 73 Q 223 79 217 90 Q 212 97 216 100 L 201 100 Q 200 98 203 94 Q 204 92 215 64 Q 218 57 215 55" fill="#0000ff" clip-path="url(#clip-mask-10)" /><path d="M 216 100 Q 252 129 251 153 Q 251 169 241 182 Q 237 185 234 185 L 234 145 Q 230 123 207 106 Q 201 104 201 100" fill="#0000ff" clip-path="url(#clip-mask-11)" /><path d="M 234 185 Q 231 185 229 181 Q 224 174 204 164 Q 199 162 199 160 Q 198 158 200 158 Q 210 159 220 160 Q 228 160 231 158 Q 234 155 234 145" fill="#0000ff" clip-path="url(#clip-mask-12)" /><path d="M 166 232 L 166 190 Q 168 122 167 78 Q 166 68 162 61 Q 161 58 159 55 Q 157 52 159 50 Q 163 48 167 49 Q 171 49 179 55 L 182 63 Q 179 75 179 83 Q 179 167 181 190 Q 181 214 180 239 Q 178 254 174 257 Q 172 257 171 255 Q 169 253 168 246" fill="#0000ff" clip-path="url(#clip-mask-13)" /><rect x="44" y="49" width="108" height="30" id="rect-1" fill="transparent" stroke="#000000"><animate attributeName="x" from="-64" to="44" dur="0.400" begin="0; animate13.end + 1s" id="animate1" fill="freeze"/></rect><rect x="17" y="12" width="101" height="159" id="rect-2" fill="transparent" stroke="#000000"><set attributeName="y" to="-147" begin="0; animate13.end + 1s" /><animate attributeName="y" from="-147" to="12" dur="0.589" begin="animate1.end + 0.5" id="animate2" fill="freeze"/></rect><rect x="66" y="100" width="26" height="104" id="rect-3" fill="transparent" stroke="#000000"><set attributeName="y" to="-4" begin="0; animate13.end + 1s" /><animate attributeName="y" from="-4" to="100" dur="0.385" begin="animate2.end + 0.5" id="animate3" fill="freeze"/></rect><rect x="87" y="88" width="55" height="20" id="rect-4" fill="transparent" stroke="#000000"><set attributeName="x" to="32" begin="0; animate13.end + 1s" /><animate attributeName="x" from="32" to="87" dur="0.204" begin="animate3.end + 0.5" id="animate4" fill="freeze"/></rect><rect x="123" y="97" width="22" height="121" id="rect-5" fill="transparent" stroke="#000000"><set attributeName="y" to="-24" begin="0; animate13.end + 1s" /><animate attributeName="y" from="-24" to="97" dur="0.448" begin="animate4.end" id="animate5" fill="freeze"/></rect><rect x="99" y="190" width="25" height="21" id="rect-6" fill="transparent" stroke="#000000"><set attributeName="x" to="124" begin="0; animate13.end + 1s" /><animate attributeName="x" from="124" to="99" dur="0.093" begin="animate5.end" id="animate6" fill="freeze"/></rect><rect x="90" y="123" width="28" height="12" id="rect-7" fill="transparent" stroke="#000000"><set attributeName="x" to="62" begin="0; animate13.end + 1s" /><animate attributeName="x" from="62" to="90" dur="0.104" begin="animate6.end + 0.5" id="animate7" fill="freeze"/></rect><rect x="88" y="150" width="33" height="13" id="rect-8" fill="transparent" stroke="#000000"><set attributeName="x" to="55" begin="0; animate13.end + 1s" /><animate attributeName="x" from="55" to="88" dur="0.122" begin="animate7.end + 0.5" id="animate8" fill="freeze"/></rect><rect x="179" y="37" width="63" height="26" id="rect-9" fill="transparent" stroke="#000000"><set attributeName="x" to="116" begin="0; animate13.end + 1s" /><animate attributeName="x" from="116" to="179" dur="0.233" begin="animate8.end + 0.5" id="animate9" fill="freeze"/></rect><rect x="200" y="51" width="49" height="49" id="rect-10" fill="transparent" stroke="#000000"><set attributeName="y" to="2" begin="0; animate13.end + 1s" /><animate attributeName="y" from="2" to="51" dur="0.181" begin="animate9.end" id="animate10" fill="freeze"/></rect><rect x="201" y="100" width="51" height="85" id="rect-11" fill="transparent" stroke="#000000"><set attributeName="y" to="15" begin="0; animate13.end + 1s" /><animate attributeName="y" from="15" to="100" dur="0.315" begin="animate10.end" id="animate11" fill="freeze"/></rect><rect x="198" y="145" width="36" height="40" id="rect-12" fill="transparent" stroke="#000000"><set attributeName="x" to="234" begin="0; animate13.end + 1s" /><animate attributeName="x" from="234" to="198" dur="0.133" begin="animate11.end" id="animate12" fill="freeze"/></rect><rect x="157" y="48" width="25" height="209" id="rect-13" fill="transparent" stroke="#000000"><set attributeName="y" to="-161" begin="0; animate13.end + 1s" /><animate attributeName="y" from="-161" to="48" dur="0.774" begin="animate12.end + 0.5" id="animate13" fill="freeze"/></rect></svg>