<svg xmlns="http://www.w3.org/2000/svg" xmlns:xlink="http://www.w3.org/1999/xlink" width="270" height="270"><defs><clipPath id="clip-mask-1"><use xlink:href="#rect-1" /></clipPath><clipPath id="clip-mask-2"><use xlink:href="#rect-2" /></clipPath><clipPath id="clip-mask-3"><use xlink:href="#rect-3" /></clipPath><clipPath id="clip-mask-4"><use xlink:href="#rect-4" /></clipPath><clipPath id="clip-mask-5"><use xlink:href="#rect-5" /></clipPath><clipPath id="clip-mask-6"><use xlink:href="#rect-6" /></clipPath><clipPath id="clip-mask-7"><use xlink:href="#rect-7" /></clipPath><clipPath id="clip-mask-8"><use xlink:href="#rect-8" /></clipPath><clipPath id="clip-mask-9"><use xlink:href="#rect-9" /></clipPath><clipPath id="clip-mask-10"><use xlink:href="#rect-10" /></clipPath><clipPath id="clip-mask-11"><use xlink:href="#rect-11" /></clipPath><clipPath id="clip-mask-12"><use xlink:href="#rect-12" /></clipPath><clipPath id="clip-mask-13"><use xlink:href="#rect-13" /></clipPath><clipPath id="clip-mask-14"><use xlink:href="#rect-14" /></clipPath></defs><path d="M 0 0 L 270 270 M 270 0 L 0 270 M 135 0 L 135 270 M 0 135 L 270 135" stroke="#CCCCCC" /><path d="M 120 18 L 124 26 Q 125 30 125 34 Q 124 38 123 39 Q 122 40 120 40 Q 111 39 94 20 Q 92 18 93 16 Q 93 14 96 14" fill="#CCCCCC"/><path d="M 78 63 L 92 60 Q 105 56 116 52 Q 124 49 133 51 Q 140 52 142 56 Q 144 58 141 60 Q 140 61 129 64 Q 107 69 85 73 Q 71 77 59 71 Q 52 66 62 65" fill="#CCCCCC"/><path d="M 67 88 L 68 86 Q 69 83 71 84 Q 74 86 81 92 Q 86 95 87 99 Q 88 104 87 107 Q 84 111 81 110 Q 75 108 68 90" fill="#CCCCCC"/><path d="M 109 111 L 110 109 Q 120 81 118 73 Q 116 70 119 69 Q 123 68 126 70 Q 134 75 136 79 Q 138 82 134 84 Q 130 89 129 93 Q 123 102 119 109 Q 118 110 118 111 L 108 113" fill="#CCCCCC"/><path d="M 118 111 Q 128 109 140 107 Q 146 105 154 109 Q 159 112 159 115 Q 159 117 154 118 Q 102 123 52 139 Q 40 143 29 135 Q 25 132 26 128 Q 27 126 30 126 Q 55 124 108 113" fill="#CCCCCC"/><path d="M 80 205 L 79 208 Q 78 212 73 206 Q 69 202 68 195 Q 63 172 57 158 Q 54 154 56 152 Q 57 151 60 151 Q 66 153 70 154 L 75 161 Q 75 167 78 189 L 80 199" fill="#CCCCCC"/><path d="M 117 153 Q 115 152 111 153 Q 79 160 75 161 L 70 154 Q 86 150 108 143 Q 121 135 140 149" fill="#CCCCCC"/><path d="M 115 180 Q 120 156 117 153 L 140 149 Q 144 153 140 158 Q 133 163 127 183" fill="#CCCCCC"/><path d="M 78 189 Q 93 186 110 181 Q 112 180 115 180 L 127 183 Q 132 186 132 188 Q 132 191 129 191 Q 95 195 80 199" fill="#CCCCCC"/><path d="M 181 57 Q 206 47 212 43 Q 216 40 221 42 Q 228 45 237 54 L 211 58 Q 208 57 207 57 Q 185 64 183 66" fill="#CCCCCC"/><path d="M 237 54 Q 244 60 236 64 Q 227 68 222 77 Q 220 78 219 80 Q 201 101 208 105 L 192 105 Q 192 104 211 65 Q 213 60 211 58" fill="#CCCCCC"/><path d="M 208 105 Q 242 132 243 155 Q 243 170 234 183 Q 230 186 226 186 L 226 155 Q 230 132 198 111 Q 192 109 192 105" fill="#CCCCCC"/><path d="M 226 186 Q 223 185 221 182 Q 216 174 197 165 Q 193 162 192 160 Q 192 158 194 158 Q 203 159 213 161 Q 220 161 223 159 Q 225 157 226 155" fill="#CCCCCC"/><path d="M 166 230 L 166 188 Q 167 122 167 79 Q 166 68 159 56 Q 157 54 159 51 Q 164 49 167 50 Q 171 51 180 56 Q 180 56 181 57 L 183 66 Q 180 80 180 88 Q 180 175 181 188 Q 182 212 179 236 Q 178 252 174 254 Q 172 255 170 253 Q 169 251 167 244" fill="#CCCCCC"/><path d="M 120 18 L 124 26 Q 125 30 125 34 Q 124 38 123 39 Q 122 40 120 40 Q 111 39 94 20 Q 92 18 93 16 Q 93 14 96 14" fill="#000080" clip-path="url(#clip-mask-1)" /><path d="M 78 63 L 92 60 Q 105 56 116 52 Q 124 49 133 51 Q 140 52 142 56 Q 144 58 141 60 Q 140 61 129 64 Q 107 69 85 73 Q 71 77 59 71 Q 52 66 62 65" fill="#000080" clip-path="url(#clip-mask-2)" /><path d="M 67 88 L 68 86 Q 69 83 71 84 Q 74 86 81 92 Q 86 95 87 99 Q 88 104 87 107 Q 84 111 81 110 Q 75 108 68 90" fill="#000080" clip-path="url(#clip-mask-3)" /><path d="M 109 111 L 110 109 Q 120 81 118 73 Q 116 70 119 69 Q 123 68 126 70 Q 134 75 136 79 Q 138 82 134 84 Q 130 89 129 93 Q 123 102 119 109 Q 118 110 118 111 L 108 113" fill="#000080" clip-path="url(#clip-mask-4)" /><path d="M 118 111 Q 128 109 140 107 Q 146 105 154 109 Q 159 112 159 115 Q 159 117 154 118 Q 102 123 52 139 Q 40 143 29 135 Q 25 132 26 128 Q 27 126 30 126 Q 55 124 108 113" fill="#000080" clip-path="url(#clip-mask-5)" /><path d="M 80 205 L 79 208 Q 78 212 73 206 Q 69 202 68 195 Q 63 172 57 158 Q 54 154 56 152 Q 57 151 60 151 Q 66 153 70 154 L 75 161 Q 75 167 78 189 L 80 199" fill="#000080" clip-path="url(#clip-mask-6)" /><path d="M 117 153 Q 115 152 111 153 Q 79 160 75 161 L 70 154 Q 86 150 108 143 Q 121 135 140 149" fill="#000080" clip-path="url(#clip-mask-7)" /><path d="M 115 180 Q 120 156 117 153 L 140 149 Q 144 153 140 158 Q 133 163 127 183" fill="#000080" clip-path="url(#clip-mask-8)" /><path d="M 78 189 Q 93 186 110 181 Q 112 180 115 180 L 127 183 Q 132 186 132 188 Q 132 191 129 191 Q 95 195 80 199" fill="#000080" clip-path="url(#clip-mask-9)" /><path d="M 181 57 Q 206 47 212 43 Q 216 40 221 42 Q 228 45 237 54 L 211 58 Q 208 57 207 57 Q 185 64 183 66" fill="#0000ff" clip-path="url(#clip-mask-10)" /><path d="M 237 54 Q 244 60 236 64 Q 227 68 222 77 Q 220 78 219 80 Q 201 101 208 105 L 192 105 Q 192 104 211 65 Q 213 60 211 58" fill="#0000ff" clip-path="url(#clip-mask-11)" /><path d="M 208 105 Q 242 132 243 155 Q 243 170 234 183 Q 230 186 226 186 L 226 155 Q 230 132 198 111 Q 192 109 192 105" fill="#0000ff" clip-path="url(#clip-mask-12)" /><path d="M 226 186 Q 223 185 221 182 Q 216 174 197 165 Q 193 162 192 160 Q 192 158 194 158 Q 203 159 213 161 Q 220 161 223 159 Q 225 157 226 155" fill="#0000ff" clip-path="url(#clip-mask-13)" /><path d="M 166 230 L 166 188 Q 167 122 167 79 Q 166 68 159 56 Q 157 54 159 51 Q 164 49 167 50 Q 171 51 180 56 Q 180 56 181 57 L 183 66 Q 180 80 180 88 Q 180 175 181 188 Q 182 212 179 236 Q 178 252 174 254 Q 172 255 170 253 Q 169 251 167 244" fill="#0000ff" clip-path="url(#clip-mask-14)" /><rect x="92" y="14" width="33" height="26" id="rect-1" fill="transparent" stroke="#000000"><animate attributeName="x" from="59" to="92" dur="0.122" begin="0; animate14.end + 1s" id="animate1" fill="freeze"/></rect><rect x="52" y="49" width="92" height="28" id="rect-2" fill="transparent" stroke="#000000"><set attributeName="x" to="-40" begin="0; animate14.end + 1s" /><animate attributeName="x" from="-40" to="52" dur="0.341" begin="animate1.end + 0.5" id="animate2" fill="freeze"/></rect><rect x="67" y="83" width="21" height="28" id="rect-3" fill="transparent" stroke="#000000"><set attributeName="y" to="55" begin="0; animate14.end + 1s" /><animate attributeName="y" from="55" to="83" dur="0.104" begin="animate2.end + 0.5" id="animate3" fill="freeze"/></rect><rect x="108" y="68" width="30" height="45" id="rect-4" fill="transparent" stroke="#000000"><set attributeName="y" to="23" begin="0; animate14.end + 1s" /><animate attributeName="y" from="23" to="68" dur="0.167" begin="animate3.end + 0.5" id="animate4" fill="freeze"/></rect><rect x="25" y="105" width="134" height="38" id="rect-5" fill="transparent" stroke="#000000"><set attributeName="x" to="-109" begin="0; animate14.end + 1s" /><animate attributeName="x" from="-109" to="25" dur="0.496" begin="animate4.end + 0.5" id="animate5" fill="freeze"/></rect><rect x="54" y="151" width="26" height="61" id="rect-6" fill="transparent" stroke="#000000"><set attributeName="y" to="90" begin="0; animate14.end + 1s" /><animate attributeName="y" from="90" to="151" dur="0.226" begin="animate5.end + 0.5" id="animate6" fill="freeze"/></rect><rect x="70" y="135" width="70" height="26" id="rect-7" fill="transparent" stroke="#000000"><set attributeName="x" to="0" begin="0; animate14.end + 1s" /><animate attributeName="x" from="0" to="70" dur="0.259" begin="animate6.end + 0.5" id="animate7" fill="freeze"/></rect><rect x="115" y="149" width="29" height="34" id="rect-8" fill="transparent" stroke="#000000"><set attributeName="y" to="115" begin="0; animate14.end + 1s" /><animate attributeName="y" from="115" to="149" dur="0.126" begin="animate7.end" id="animate8" fill="freeze"/></rect><rect x="78" y="180" width="54" height="19" id="rect-9" fill="transparent" stroke="#000000"><set attributeName="x" to="24" begin="0; animate14.end + 1s" /><animate attributeName="x" from="24" to="78" dur="0.200" begin="animate8.end + 0.5" id="animate9" fill="freeze"/></rect><rect x="181" y="40" width="56" height="26" id="rect-10" fill="transparent" stroke="#000000"><set attributeName="x" to="125" begin="0; animate14.end + 1s" /><animate attributeName="x" from="125" to="181" dur="0.207" begin="animate9.end + 0.5" id="animate10" fill="freeze"/></rect><rect x="192" y="54" width="52" height="51" id="rect-11" fill="transparent" stroke="#000000"><set attributeName="y" to="3" begin="0; animate14.end + 1s" /><animate attributeName="y" from="3" to="54" dur="0.189" begin="animate10.end" id="animate11" fill="freeze"/></rect><rect x="192" y="105" width="51" height="81" id="rect-12" fill="transparent" stroke="#000000"><set attributeName="y" to="24" begin="0; animate14.end + 1s" /><animate attributeName="y" from="24" to="105" dur="0.300" begin="animate11.end" id="animate12" fill="freeze"/></rect><rect x="192" y="155" width="34" height="31" id="rect-13" fill="transparent" stroke="#000000"><set attributeName="x" to="226" begin="0; animate14.end + 1s" /><animate attributeName="x" from="226" to="192" dur="0.126" begin="animate12.end" id="animate13" fill="freeze"/></rect><rect x="157" y="49" width="26" height="206" id="rect-14" fill="transparent" stroke="#000000"><set attributeName="y" to="-157" begin="0; animate14.end + 1s" /><animate attributeName="y" from="-157" to="49" dur="0.763" begin="animate13.end + 0.5" id="animate14" fill="freeze"/></rect></svg>