<svg xmlns="http://www.w3.org/2000/svg" xmlns:xlink="http://www.w3.org/1999/xlink" width="270" height="270"><defs><clipPath id="clip-mask-1"><use xlink:href="#rect-1" /></clipPath><clipPath id="clip-mask-2"><use xlink:href="#rect-2" /></clipPath><clipPath id="clip-mask-3"><use xlink:href="#rect-3" /></clipPath><clipPath id="clip-mask-4"><use xlink:href="#rect-4" /></clipPath><clipPath id="clip-mask-5"><use xlink:href="#rect-5" /></clipPath><clipPath id="clip-mask-6"><use xlink:href="#rect-6" /></clipPath><clipPath id="clip-mask-7"><use xlink:href="#rect-7" /></clipPath><clipPath id="clip-mask-8"><use xlink:href="#rect-8" /></clipPath><clipPath id="clip-mask-9"><use xlink:href="#rect-9" /></clipPath><clipPath id="clip-mask-10"><use xlink:href="#rect-10" /></clipPath><clipPath id="clip-mask-11"><use xlink:href="#rect-11" /></clipPath><clipPath id="clip-mask-12"><use xlink:href="#rect-12" /></clipPath><clipPath id="clip-mask-13"><use xlink:href="#rect-13" /></clipPath><clipPath id="clip-mask-14"><use xlink:href="#rect-14" /></clipPath><clipPath id="clip-mask-15"><use xlink:href="#rect-15" /></clipPath><clipPath id="clip-mask-16"><use xlink:href="#rect-16" /></clipPath><clipPath id="clip-mask-17"><use xlink:href="#rect-17" /></clipPath><clipPath id="clip-mask-18"><use xlink:href="#rect-18" /></clipPath><clipPath id="clip-mask-19"><use xlink:href="#rect-19" /></clipPath></defs><path d="M 0 0 L 270 270 M 270 0 L 0 270 M 135 0 L 135 270 M 0 135 L 270 135" stroke="#CCCCCC" /><path d="M 60 43 L 60 41 Q 59 38 60 37 Q 62 36 65 37 Q 85 42 87 48 Q 89 55 88 58 Q 87 61 84 61 Q 81 61 78 59 Q 72 53 66 48" fill="#CCCCCC"/><path d="M 134 29 L 133 26 Q 132 22 136 22 Q 141 22 145 26 Q 149 30 151 33 Q 152 36 148 37 Q 141 41 126 51 Q 124 52 122 51 Q 121 50 122 48 Q 129 39 132 33" fill="#CCCCCC"/><path d="M 74 84 L 66 86 Q 57 88 49 83 Q 44 79 51 78 Q 87 72 92 72 Q 95 71 98 70 L 107 68 Q 110 67 114 66 Q 139 59 146 64 Q 151 66 151 69 Q 149 70 148 71 Q 127 75 107 78 L 85 82" fill="#CCCCCC"/><path d="M 98 70 Q 98 58 98 44 Q 98 27 91 16 Q 90 12 93 11 Q 97 10 101 12 Q 108 15 113 20 Q 116 23 115 25 Q 108 37 107 68 L 107 78 Q 106 88 107 98 Q 107 124 104 126 Q 101 128 98 124 Q 94 115 94 111 Q 96 103 97 84" fill="#CCCCCC"/><path d="M 98 70 L 97 84 Q 96 85 96 86 Q 92 93 85 101 Q 77 110 69 116 Q 61 123 52 126 Q 43 130 41 130 Q 37 129 41 126 Q 70 105 83 84 Q 84 83 85 82" fill="#CCCCCC"/><path d="M 115 91 L 114 89 Q 113 87 114 86 Q 115 85 118 86 Q 142 90 146 98 Q 147 104 147 106 Q 146 109 145 109 Q 142 109 139 107 Q 129 100 120 94" fill="#CCCCCC"/><path d="M 62 144 Q 61 145 61 145 Q 40 176 24 181 Q 19 183 22 179 Q 51 147 51 132 Q 52 129 53 129 Q 55 127 61 129 Q 67 129 68 132 Q 68 133 65 139" fill="#CCCCCC"/><path d="M 77 146 Q 77 145 68 145 Q 64 145 62 144 L 65 139 Q 74 138 78 137 Q 83 135 86 136 Q 96 141 97 143 Q 98 146 95 147" fill="#CCCCCC"/><path d="M 80 153 L 77 146 L 95 147 Q 89 153 84 167 Q 51 225 23 227 Q 19 227 24 224 Q 45 207 58 189 Q 59 186 61 184 L 66 177" fill="#CCCCCC"/><path d="M 61 184 Q 58 184 55 180 Q 47 170 48 168 Q 49 166 51 166 Q 53 166 59 170 Q 63 171 65 174 Q 66 176 66 177" fill="#CCCCCC"/><path d="M 127 150 Q 116 150 111 148 Q 105 145 113 143 Q 120 142 127 140 L 139 136 Q 144 133 150 134 Q 156 135 158 138 Q 159 139 157 141 Q 156 142 152 143 Q 144 145 138 147" fill="#CCCCCC"/><path d="M 100 192 Q 97 195 94 193 Q 91 191 90 189 Q 90 186 94 180 Q 101 167 96 158 Q 94 155 96 153 Q 98 152 102 153 Q 109 157 110 158 Q 111 161 109 163 Q 107 166 105 177" fill="#CCCCCC"/><path d="M 109 187 L 100 192 L 105 177 Q 104 182 109 180 Q 117 177 126 174 L 137 171 Q 149 166 162 173 Q 166 175 165 177 Q 163 179 159 179 Q 138 180 137 181 L 126 184" fill="#CCCCCC"/><path d="M 126 174 Q 126 169 127 150 L 127 140 Q 126 127 124 123 Q 122 120 124 119 Q 126 118 129 119 Q 133 121 138 125 Q 139 126 139 136 L 138 147 Q 137 155 137 171 L 137 181 Q 137 201 138 224 Q 138 231 136 238 Q 134 241 132 241 L 131 240 Q 119 227 122 215 Q 123 212 126 184" fill="#CCCCCC"/><path d="M 182 68 L 183 68 Q 208 59 213 54 Q 217 51 222 53 Q 228 56 238 64 L 211 69 Q 209 68 185 77 L 182 69" fill="#CCCCCC"/><path d="M 238 64 Q 245 69 238 74 Q 230 77 218 95 Q 211 103 217 108 L 202 108 Q 202 106 203 103 Q 208 94 213 77 Q 215 71 212 69 Q 211 69 211 69" fill="#CCCCCC"/><path d="M 217 108 Q 250 137 249 160 Q 247 177 236 190 Q 232 193 229 193 L 228 166 Q 232 161 232 152 Q 230 127 207 114 Q 202 111 202 108" fill="#CCCCCC"/><path d="M 229 193 Q 225 192 224 188 Q 220 181 204 170 Q 200 167 199 165 Q 199 163 201 164 Q 209 165 219 167 Q 225 168 228 166" fill="#CCCCCC"/><path d="M 185 77 Q 182 90 182 95 Q 183 191 183 195 Q 183 218 181 240 Q 180 255 175 258 Q 174 259 172 257 Q 167 250 168 195 Q 169 163 169 86 Q 168 85 162 68 Q 160 65 162 63 Q 166 61 170 62 Q 174 63 182 69" fill="#CCCCCC"/><path d="M 60 43 L 60 41 Q 59 38 60 37 Q 62 36 65 37 Q 85 42 87 48 Q 89 55 88 58 Q 87 61 84 61 Q 81 61 78 59 Q 72 53 66 48" fill="#000080" clip-path="url(#clip-mask-1)" /><path d="M 134 29 L 133 26 Q 132 22 136 22 Q 141 22 145 26 Q 149 30 151 33 Q 152 36 148 37 Q 141 41 126 51 Q 124 52 122 51 Q 121 50 122 48 Q 129 39 132 33" fill="#000080" clip-path="url(#clip-mask-2)" /><path d="M 74 84 L 66 86 Q 57 88 49 83 Q 44 79 51 78 Q 87 72 92 72 Q 95 71 98 70 L 107 68 Q 110 67 114 66 Q 139 59 146 64 Q 151 66 151 69 Q 149 70 148 71 Q 127 75 107 78 L 85 82" fill="#000080" clip-path="url(#clip-mask-3)" /><path d="M 98 70 Q 98 58 98 44 Q 98 27 91 16 Q 90 12 93 11 Q 97 10 101 12 Q 108 15 113 20 Q 116 23 115 25 Q 108 37 107 68 L 107 78 Q 106 88 107 98 Q 107 124 104 126 Q 101 128 98 124 Q 94 115 94 111 Q 96 103 97 84" fill="#000080" clip-path="url(#clip-mask-4)" /><path d="M 98 70 L 97 84 Q 96 85 96 86 Q 92 93 85 101 Q 77 110 69 116 Q 61 123 52 126 Q 43 130 41 130 Q 37 129 41 126 Q 70 105 83 84 Q 84 83 85 82" fill="#000080" clip-path="url(#clip-mask-5)" /><path d="M 115 91 L 114 89 Q 113 87 114 86 Q 115 85 118 86 Q 142 90 146 98 Q 147 104 147 106 Q 146 109 145 109 Q 142 109 139 107 Q 129 100 120 94" fill="#000080" clip-path="url(#clip-mask-6)" /><path d="M 62 144 Q 61 145 61 145 Q 40 176 24 181 Q 19 183 22 179 Q 51 147 51 132 Q 52 129 53 129 Q 55 127 61 129 Q 67 129 68 132 Q 68 133 65 139" fill="#000080" clip-path="url(#clip-mask-7)" /><path d="M 77 146 Q 77 145 68 145 Q 64 145 62 144 L 65 139 Q 74 138 78 137 Q 83 135 86 136 Q 96 141 97 143 Q 98 146 95 147" fill="#000080" clip-path="url(#clip-mask-8)" /><path d="M 80 153 L 77 146 L 95 147 Q 89 153 84 167 Q 51 225 23 227 Q 19 227 24 224 Q 45 207 58 189 Q 59 186 61 184 L 66 177" fill="#000080" clip-path="url(#clip-mask-9)" /><path d="M 61 184 Q 58 184 55 180 Q 47 170 48 168 Q 49 166 51 166 Q 53 166 59 170 Q 63 171 65 174 Q 66 176 66 177" fill="#000080" clip-path="url(#clip-mask-10)" /><path d="M 127 150 Q 116 150 111 148 Q 105 145 113 143 Q 120 142 127 140 L 139 136 Q 144 133 150 134 Q 156 135 158 138 Q 159 139 157 141 Q 156 142 152 143 Q 144 145 138 147" fill="#000080" clip-path="url(#clip-mask-11)" /><path d="M 100 192 Q 97 195 94 193 Q 91 191 90 189 Q 90 186 94 180 Q 101 167 96 158 Q 94 155 96 153 Q 98 152 102 153 Q 109 157 110 158 Q 111 161 109 163 Q 107 166 105 177" fill="#000080" clip-path="url(#clip-mask-12)" /><path d="M 109 187 L 100 192 L 105 177 Q 104 182 109 180 Q 117 177 126 174 L 137 171 Q 149 166 162 173 Q 166 175 165 177 Q 163 179 159 179 Q 138 180 137 181 L 126 184" fill="#000080" clip-path="url(#clip-mask-13)" /><path d="M 126 174 Q 126 169 127 150 L 127 140 Q 126 127 124 123 Q 122 120 124 119 Q 126 118 129 119 Q 133 121 138 125 Q 139 126 139 136 L 138 147 Q 137 155 137 171 L 137 181 Q 137 201 138 224 Q 138 231 136 238 Q 134 241 132 241 L 131 240 Q 119 227 122 215 Q 123 212 126 184" fill="#000080" clip-path="url(#clip-mask-14)" /><path d="M 182 68 L 183 68 Q 208 59 213 54 Q 217 51 222 53 Q 228 56 238 64 L 211 69 Q 209 68 185 77 L 182 69" fill="#0000ff" clip-path="url(#clip-mask-15)" /><path d="M 238 64 Q 245 69 238 74 Q 230 77 218 95 Q 211 103 217 108 L 202 108 Q 202 106 203 103 Q 208 94 213 77 Q 215 71 212 69 Q 211 69 211 69" fill="#0000ff" clip-path="url(#clip-mask-16)" /><path d="M 217 108 Q 250 137 249 160 Q 247 177 236 190 Q 232 193 229 193 L 228 166 Q 232 161 232 152 Q 230 127 207 114 Q 202 111 202 108" fill="#0000ff" clip-path="url(#clip-mask-17)" /><path d="M 229 193 Q 225 192 224 188 Q 220 181 204 170 Q 200 167 199 165 Q 199 163 201 164 Q 209 165 219 167 Q 225 168 228 166" fill="#0000ff" clip-path="url(#clip-mask-18)" /><path d="M 185 77 Q 182 90 182 95 Q 183 191 183 195 Q 183 218 181 240 Q 180 255 175 258 Q 174 259 172 257 Q 167 250 168 195 Q 169 163 169 86 Q 168 85 162 68 Q 160 65 162 63 Q 166 61 170 62 Q 174 63 182 69" fill="#0000ff" clip-path="url(#clip-mask-19)" /><rect x="59" y="36" width="30" height="25" id="rect-1" fill="transparent" stroke="#000000"><animate attributeName="x" from="29" to="59" dur="0.111" begin="0; animate19.end + 1s" id="animate1" fill="freeze"/></rect><rect x="121" y="22" width="31" height="30" id="rect-2" fill="transparent" stroke="#000000"><set attributeName="y" to="-8" begin="0; animate19.end + 1s" /><animate attributeName="y" from="-8" to="22" dur="0.111" begin="animate1.end + 0.5" id="animate2" fill="freeze"/></rect><rect x="44" y="59" width="107" height="29" id="rect-3" fill="transparent" stroke="#000000"><set attributeName="x" to="-63" begin="0; animate19.end + 1s" /><animate attributeName="x" from="-63" to="44" dur="0.396" begin="animate2.end + 0.5" id="animate3" fill="freeze"/></rect><rect x="90" y="10" width="26" height="118" id="rect-4" fill="transparent" stroke="#000000"><set attributeName="y" to="-108" begin="0; animate19.end + 1s" /><animate attributeName="y" from="-108" to="10" dur="0.437" begin="animate3.end + 0.5" id="animate4" fill="freeze"/></rect><rect x="37" y="70" width="61" height="60" id="rect-5" fill="transparent" stroke="#000000"><set attributeName="x" to="98" begin="0; animate19.end + 1s" /><animate attributeName="x" from="98" to="37" dur="0.226" begin="animate4.end + 0.5" id="animate5" fill="freeze"/></rect><rect x="113" y="85" width="34" height="24" id="rect-6" fill="transparent" stroke="#000000"><set attributeName="x" to="79" begin="0; animate19.end + 1s" /><animate attributeName="x" from="79" to="113" dur="0.126" begin="animate5.end + 0.5" id="animate6" fill="freeze"/></rect><rect x="19" y="127" width="49" height="56" id="rect-7" fill="transparent" stroke="#000000"><set attributeName="y" to="71" begin="0; animate19.end + 1s" /><animate attributeName="y" from="71" to="127" dur="0.207" begin="animate6.end + 0.5" id="animate7" fill="freeze"/></rect><rect x="62" y="135" width="36" height="12" id="rect-8" fill="transparent" stroke="#000000"><set attributeName="x" to="26" begin="0; animate19.end + 1s" /><animate attributeName="x" from="26" to="62" dur="0.133" begin="animate7.end + 0.5" id="animate8" fill="freeze"/></rect><rect x="19" y="146" width="76" height="81" id="rect-9" fill="transparent" stroke="#000000"><set attributeName="y" to="65" begin="0; animate19.end + 1s" /><animate attributeName="y" from="65" to="146" dur="0.300" begin="animate8.end" id="animate9" fill="freeze"/></rect><rect x="47" y="166" width="19" height="18" id="rect-10" fill="transparent" stroke="#000000"><set attributeName="x" to="28" begin="0; animate19.end + 1s" /><animate attributeName="x" from="28" to="47" dur="0.070" begin="animate9.end + 0.5" id="animate10" fill="freeze"/></rect><rect x="105" y="133" width="54" height="17" id="rect-11" fill="transparent" stroke="#000000"><set attributeName="x" to="51" begin="0; animate19.end + 1s" /><animate attributeName="x" from="51" to="105" dur="0.200" begin="animate10.end + 0.5" id="animate11" fill="freeze"/></rect><rect x="90" y="152" width="21" height="43" id="rect-12" fill="transparent" stroke="#000000"><set attributeName="y" to="109" begin="0; animate19.end + 1s" /><animate attributeName="y" from="109" to="152" dur="0.159" begin="animate11.end + 0.5" id="animate12" fill="freeze"/></rect><rect x="100" y="166" width="66" height="26" id="rect-13" fill="transparent" stroke="#000000"><set attributeName="x" to="34" begin="0; animate19.end + 1s" /><animate attributeName="x" from="34" to="100" dur="0.244" begin="animate12.end" id="animate13" fill="freeze"/></rect><rect x="119" y="118" width="20" height="123" id="rect-14" fill="transparent" stroke="#000000"><set attributeName="y" to="-5" begin="0; animate19.end + 1s" /><animate attributeName="y" from="-5" to="118" dur="0.456" begin="animate13.end + 0.5" id="animate14" fill="freeze"/></rect><rect x="182" y="51" width="56" height="26" id="rect-15" fill="transparent" stroke="#000000"><set attributeName="x" to="126" begin="0; animate19.end + 1s" /><animate attributeName="x" from="126" to="182" dur="0.207" begin="animate14.end + 0.5" id="animate15" fill="freeze"/></rect><rect x="202" y="64" width="43" height="44" id="rect-16" fill="transparent" stroke="#000000"><set attributeName="y" to="20" begin="0; animate19.end + 1s" /><animate attributeName="y" from="20" to="64" dur="0.163" begin="animate15.end" id="animate16" fill="freeze"/></rect><rect x="202" y="108" width="48" height="85" id="rect-17" fill="transparent" stroke="#000000"><set attributeName="y" to="23" begin="0; animate19.end + 1s" /><animate attributeName="y" from="23" to="108" dur="0.315" begin="animate16.end + 0.5" id="animate17" fill="freeze"/></rect><rect x="199" y="163" width="30" height="30" id="rect-18" fill="transparent" stroke="#000000"><set attributeName="x" to="229" begin="0; animate19.end + 1s" /><animate attributeName="x" from="229" to="199" dur="0.111" begin="animate17.end" id="animate18" fill="freeze"/></rect><rect x="160" y="61" width="25" height="198" id="rect-19" fill="transparent" stroke="#000000"><set attributeName="y" to="-137" begin="0; animate19.end + 1s" /><animate attributeName="y" from="-137" to="61" dur="0.733" begin="animate18.end + 0.5" id="animate19" fill="freeze"/></rect></svg>