<svg xmlns="http://www.w3.org/2000/svg" xmlns:xlink="http://www.w3.org/1999/xlink" width="270" height="270"><defs><clipPath id="clip-mask-1"><use xlink:href="#rect-1" /></clipPath><clipPath id="clip-mask-2"><use xlink:href="#rect-2" /></clipPath><clipPath id="clip-mask-3"><use xlink:href="#rect-3" /></clipPath><clipPath id="clip-mask-4"><use xlink:href="#rect-4" /></clipPath><clipPath id="clip-mask-5"><use xlink:href="#rect-5" /></clipPath><clipPath id="clip-mask-6"><use xlink:href="#rect-6" /></clipPath><clipPath id="clip-mask-7"><use xlink:href="#rect-7" /></clipPath><clipPath id="clip-mask-8"><use xlink:href="#rect-8" /></clipPath><clipPath id="clip-mask-9"><use xlink:href="#rect-9" /></clipPath><clipPath id="clip-mask-10"><use xlink:href="#rect-10" /></clipPath><clipPath id="clip-mask-11"><use xlink:href="#rect-11" /></clipPath><clipPath id="clip-mask-12"><use xlink:href="#rect-12" /></clipPath><clipPath id="clip-mask-13"><use xlink:href="#rect-13" /></clipPath><clipPath id="clip-mask-14"><use xlink:href="#rect-14" /></clipPath><clipPath id="clip-mask-15"><use xlink:href="#rect-15" /></clipPath><clipPath id="clip-mask-16"><use xlink:href="#rect-16" /></clipPath></defs><path d="M 0 0 L 270 270 M 270 0 L 0 270 M 135 0 L 135 270 M 0 135 L 270 135" stroke="#CCCCCC" /><path d="M 54 59 Q 46 59 40 55 Q 34 51 43 49 Q 62 48 78 45 Q 93 41 107 37 Q 114 35 121 36 Q 128 39 129 41 Q 130 43 128 45 Q 126 47 114 49 Q 102 51 91 53 L 79 55 Q 71 56 63 58" fill="#CCCCCC"/><path d="M 45 198 L 42 202 Q 39 206 37 202 Q 35 200 33 197 Q 29 189 34 165 Q 37 110 32 101 Q 31 99 30 96 Q 29 93 31 92 Q 35 90 44 97 L 48 104 Q 48 106 47 107 Q 47 112 46 177 Q 46 181 46 184 L 45 194" fill="#CCCCCC"/><path d="M 44 97 Q 51 95 62 94 L 71 92 Q 77 90 82 88 L 92 85 Q 104 80 108 82 Q 121 87 125 92 L 105 95 Q 100 91 90 95 L 82 97 Q 76 98 71 100 L 61 101 Q 59 102 58 102 Q 52 104 48 104" fill="#CCCCCC"/><path d="M 107 182 Q 109 177 109 161 Q 112 100 105 95 L 125 92 Q 127 94 125 97 Q 121 102 121 109 Q 122 157 124 183 Q 125 194 121 203 Q 117 210 113 211 Q 110 211 109 207" fill="#CCCCCC"/><path d="M 102 185 Q 106 187 107 182 L 109 207 Q 103 198 96 189" fill="#CCCCCC"/><path d="M 62 94 Q 60 66 55 61 Q 54 60 54 59 L 63 58 Q 63 58 63 58 Q 68 59 71 62 Q 71 62 71 71 Q 72 80 71 92 L 71 100 Q 68 121 60 133 Q 56 140 54 141 Q 52 141 52 140 Q 52 138 53 137 Q 60 122 61 101" fill="#CCCCCC"/><path d="M 82 88 Q 84 62 80 57 Q 79 56 79 55 L 91 53 Q 95 54 96 56 Q 98 58 97 61 Q 93 74 92 85 L 90 95 Q 88 113 91 120 L 88 135 Q 79 128 81 108 Q 81 102 82 97" fill="#CCCCCC"/><path d="M 91 120 Q 92 125 107 131 Q 108 132 106 135 Q 103 138 95 137 Q 89 137 88 135" fill="#CCCCCC"/><path d="M 81 150 L 86 150 Q 93 151 96 155 Q 99 157 92 159 Q 57 166 56 165 Q 50 162 54 160" fill="#CCCCCC"/><path d="M 46 184 Q 62 182 82 178 Q 90 176 94 179 Q 99 182 102 185 L 96 189 Q 62 190 46 194 Q 45 194 45 194" fill="#CCCCCC"/><path d="M 128 118 L 129 116 Q 131 114 132 116 Q 135 119 141 128 Q 145 133 145 138 Q 144 143 143 145 Q 140 148 137 146 Q 133 143 129 120" fill="#CCCCCC"/><path d="M 141 59 L 143 57 Q 146 56 151 58 Q 158 60 162 64 Q 164 66 163 70 Q 162 75 162 95 Q 165 170 135 213 Q 127 226 124 227 Q 122 228 122 225 Q 122 224 123 222 Q 139 189 145 164 Q 149 148 150 130 Q 150 128 150 127 Q 151 71 143 62" fill="#CCCCCC"/><path d="M 166 110 L 167 109 Q 168 107 170 108 Q 180 119 180 126 Q 180 131 178 133 Q 175 135 173 133 Q 169 131 166 113" fill="#CCCCCC"/><path d="M 177 68 L 178 67 Q 182 64 187 67 Q 198 73 199 75 Q 200 78 198 81 Q 194 95 196 173 Q 196 191 191 195 Q 189 196 188 195 Q 187 194 185 190 Q 181 180 184 163 Q 184 160 184 96 Q 183 77 179 71" fill="#CCCCCC"/><path d="M 200 106 L 200 104 Q 202 102 203 102 Q 205 103 214 117 Q 218 123 216 128 Q 215 133 212 134 Q 210 136 209 135 Q 206 133 206 130 Q 204 121 201 112" fill="#CCCCCC"/><path d="M 209 28 L 210 27 Q 216 22 222 27 Q 238 36 240 38 Q 240 42 238 46 Q 234 63 234 88 Q 234 209 234 222 Q 235 230 232 237 Q 229 243 227 244 Q 225 247 223 245 Q 222 244 220 241 Q 212 224 215 212 Q 224 177 220 60 Q 220 45 211 32" fill="#CCCCCC"/><path d="M 54 59 Q 46 59 40 55 Q 34 51 43 49 Q 62 48 78 45 Q 93 41 107 37 Q 114 35 121 36 Q 128 39 129 41 Q 130 43 128 45 Q 126 47 114 49 Q 102 51 91 53 L 79 55 Q 71 56 63 58" fill="#0000ff" clip-path="url(#clip-mask-1)" /><path d="M 45 198 L 42 202 Q 39 206 37 202 Q 35 200 33 197 Q 29 189 34 165 Q 37 110 32 101 Q 31 99 30 96 Q 29 93 31 92 Q 35 90 44 97 L 48 104 Q 48 106 47 107 Q 47 112 46 177 Q 46 181 46 184 L 45 194" fill="#0000ff" clip-path="url(#clip-mask-2)" /><path d="M 44 97 Q 51 95 62 94 L 71 92 Q 77 90 82 88 L 92 85 Q 104 80 108 82 Q 121 87 125 92 L 105 95 Q 100 91 90 95 L 82 97 Q 76 98 71 100 L 61 101 Q 59 102 58 102 Q 52 104 48 104" fill="#0000ff" clip-path="url(#clip-mask-3)" /><path d="M 107 182 Q 109 177 109 161 Q 112 100 105 95 L 125 92 Q 127 94 125 97 Q 121 102 121 109 Q 122 157 124 183 Q 125 194 121 203 Q 117 210 113 211 Q 110 211 109 207" fill="#0000ff" clip-path="url(#clip-mask-4)" /><path d="M 102 185 Q 106 187 107 182 L 109 207 Q 103 198 96 189" fill="#0000ff" clip-path="url(#clip-mask-5)" /><path d="M 62 94 Q 60 66 55 61 Q 54 60 54 59 L 63 58 Q 63 58 63 58 Q 68 59 71 62 Q 71 62 71 71 Q 72 80 71 92 L 71 100 Q 68 121 60 133 Q 56 140 54 141 Q 52 141 52 140 Q 52 138 53 137 Q 60 122 61 101" fill="#0000ff" clip-path="url(#clip-mask-6)" /><path d="M 82 88 Q 84 62 80 57 Q 79 56 79 55 L 91 53 Q 95 54 96 56 Q 98 58 97 61 Q 93 74 92 85 L 90 95 Q 88 113 91 120 L 88 135 Q 79 128 81 108 Q 81 102 82 97" fill="#0000ff" clip-path="url(#clip-mask-7)" /><path d="M 91 120 Q 92 125 107 131 Q 108 132 106 135 Q 103 138 95 137 Q 89 137 88 135" fill="#0000ff" clip-path="url(#clip-mask-8)" /><path d="M 81 150 L 86 150 Q 93 151 96 155 Q 99 157 92 159 Q 57 166 56 165 Q 50 162 54 160" fill="#0000ff" clip-path="url(#clip-mask-9)" /><path d="M 46 184 Q 62 182 82 178 Q 90 176 94 179 Q 99 182 102 185 L 96 189 Q 62 190 46 194 Q 45 194 45 194" fill="#0000ff" clip-path="url(#clip-mask-10)" /><path d="M 128 118 L 129 116 Q 131 114 132 116 Q 135 119 141 128 Q 145 133 145 138 Q 144 143 143 145 Q 140 148 137 146 Q 133 143 129 120" fill="#000080" clip-path="url(#clip-mask-11)" /><path d="M 141 59 L 143 57 Q 146 56 151 58 Q 158 60 162 64 Q 164 66 163 70 Q 162 75 162 95 Q 165 170 135 213 Q 127 226 124 227 Q 122 228 122 225 Q 122 224 123 222 Q 139 189 145 164 Q 149 148 150 130 Q 150 128 150 127 Q 151 71 143 62" fill="#000080" clip-path="url(#clip-mask-12)" /><path d="M 166 110 L 167 109 Q 168 107 170 108 Q 180 119 180 126 Q 180 131 178 133 Q 175 135 173 133 Q 169 131 166 113" fill="#000080" clip-path="url(#clip-mask-13)" /><path d="M 177 68 L 178 67 Q 182 64 187 67 Q 198 73 199 75 Q 200 78 198 81 Q 194 95 196 173 Q 196 191 191 195 Q 189 196 188 195 Q 187 194 185 190 Q 181 180 184 163 Q 184 160 184 96 Q 183 77 179 71" fill="#000080" clip-path="url(#clip-mask-14)" /><path d="M 200 106 L 200 104 Q 202 102 203 102 Q 205 103 214 117 Q 218 123 216 128 Q 215 133 212 134 Q 210 136 209 135 Q 206 133 206 130 Q 204 121 201 112" fill="#000080" clip-path="url(#clip-mask-15)" /><path d="M 209 28 L 210 27 Q 216 22 222 27 Q 238 36 240 38 Q 240 42 238 46 Q 234 63 234 88 Q 234 209 234 222 Q 235 230 232 237 Q 229 243 227 244 Q 225 247 223 245 Q 222 244 220 241 Q 212 224 215 212 Q 224 177 220 60 Q 220 45 211 32" fill="#000080" clip-path="url(#clip-mask-16)" /><rect x="34" y="35" width="96" height="24" id="rect-1" fill="transparent" stroke="#000000"><animate attributeName="x" from="-62" to="34" dur="0.356" begin="0; animate16.end + 1s" id="animate1" fill="freeze"/></rect><rect x="29" y="90" width="19" height="116" id="rect-2" fill="transparent" stroke="#000000"><set attributeName="y" to="-26" begin="0; animate16.end + 1s" /><animate attributeName="y" from="-26" to="90" dur="0.430" begin="animate1.end + 0.5" id="animate2" fill="freeze"/></rect><rect x="44" y="80" width="81" height="24" id="rect-3" fill="transparent" stroke="#000000"><set attributeName="x" to="-37" begin="0; animate16.end + 1s" /><animate attributeName="x" from="-37" to="44" dur="0.300" begin="animate2.end + 0.5" id="animate3" fill="freeze"/></rect><rect x="105" y="92" width="22" height="119" id="rect-4" fill="transparent" stroke="#000000"><set attributeName="y" to="-27" begin="0; animate16.end + 1s" /><animate attributeName="y" from="-27" to="92" dur="0.441" begin="animate3.end" id="animate4" fill="freeze"/></rect><rect x="96" y="182" width="13" height="25" id="rect-5" fill="transparent" stroke="#000000"><set attributeName="x" to="109" begin="0; animate16.end + 1s" /><animate attributeName="x" from="109" to="96" dur="0.048" begin="animate4.end" id="animate5" fill="freeze"/></rect><rect x="52" y="58" width="20" height="83" id="rect-6" fill="transparent" stroke="#000000"><set attributeName="y" to="-25" begin="0; animate16.end + 1s" /><animate attributeName="y" from="-25" to="58" dur="0.307" begin="animate5.end + 0.5" id="animate6" fill="freeze"/></rect><rect x="79" y="53" width="19" height="82" id="rect-7" fill="transparent" stroke="#000000"><set attributeName="y" to="-29" begin="0; animate16.end + 1s" /><animate attributeName="y" from="-29" to="53" dur="0.304" begin="animate6.end + 0.5" id="animate7" fill="freeze"/></rect><rect x="88" y="120" width="20" height="18" id="rect-8" fill="transparent" stroke="#000000"><set attributeName="x" to="68" begin="0; animate16.end + 1s" /><animate attributeName="x" from="68" to="88" dur="0.074" begin="animate7.end" id="animate8" fill="freeze"/></rect><rect x="50" y="150" width="49" height="16" id="rect-9" fill="transparent" stroke="#000000"><set attributeName="x" to="1" begin="0; animate16.end + 1s" /><animate attributeName="x" from="1" to="50" dur="0.181" begin="animate8.end + 0.5" id="animate9" fill="freeze"/></rect><rect x="45" y="176" width="57" height="18" id="rect-10" fill="transparent" stroke="#000000"><set attributeName="x" to="-12" begin="0; animate16.end + 1s" /><animate attributeName="x" from="-12" to="45" dur="0.211" begin="animate9.end + 0.5" id="animate10" fill="freeze"/></rect><rect x="128" y="114" width="17" height="34" id="rect-11" fill="transparent" stroke="#000000"><set attributeName="y" to="80" begin="0; animate16.end + 1s" /><animate attributeName="y" from="80" to="114" dur="0.126" begin="animate10.end + 0.5" id="animate11" fill="freeze"/></rect><rect x="122" y="56" width="43" height="172" id="rect-12" fill="transparent" stroke="#000000"><set attributeName="y" to="-116" begin="0; animate16.end + 1s" /><animate attributeName="y" from="-116" to="56" dur="0.637" begin="animate11.end + 0.5" id="animate12" fill="freeze"/></rect><rect x="166" y="107" width="14" height="28" id="rect-13" fill="transparent" stroke="#000000"><set attributeName="y" to="79" begin="0; animate16.end + 1s" /><animate attributeName="y" from="79" to="107" dur="0.104" begin="animate12.end + 0.5" id="animate13" fill="freeze"/></rect><rect x="177" y="64" width="23" height="132" id="rect-14" fill="transparent" stroke="#000000"><set attributeName="y" to="-68" begin="0; animate16.end + 1s" /><animate attributeName="y" from="-68" to="64" dur="0.489" begin="animate13.end + 0.5" id="animate14" fill="freeze"/></rect><rect x="200" y="102" width="18" height="34" id="rect-15" fill="transparent" stroke="#000000"><set attributeName="y" to="68" begin="0; animate16.end + 1s" /><animate attributeName="y" from="68" to="102" dur="0.126" begin="animate14.end + 0.5" id="animate15" fill="freeze"/></rect><rect x="209" y="22" width="31" height="225" id="rect-16" fill="transparent" stroke="#000000"><set attributeName="y" to="-203" begin="0; animate16.end + 1s" /><animate attributeName="y" from="-203" to="22" dur="0.833" begin="animate15.end + 0.5" id="animate16" fill="freeze"/></rect></svg>