<svg xmlns="http://www.w3.org/2000/svg" xmlns:xlink="http://www.w3.org/1999/xlink" width="270" height="270"><defs><clipPath id="clip-mask-1"><use xlink:href="#rect-1" /></clipPath><clipPath id="clip-mask-2"><use xlink:href="#rect-2" /></clipPath><clipPath id="clip-mask-3"><use xlink:href="#rect-3" /></clipPath><clipPath id="clip-mask-4"><use xlink:href="#rect-4" /></clipPath><clipPath id="clip-mask-5"><use xlink:href="#rect-5" /></clipPath><clipPath id="clip-mask-6"><use xlink:href="#rect-6" /></clipPath><clipPath id="clip-mask-7"><use xlink:href="#rect-7" /></clipPath><clipPath id="clip-mask-8"><use xlink:href="#rect-8" /></clipPath><clipPath id="clip-mask-9"><use xlink:href="#rect-9" /></clipPath><clipPath id="clip-mask-10"><use xlink:href="#rect-10" /></clipPath><clipPath id="clip-mask-11"><use xlink:href="#rect-11" /></clipPath><clipPath id="clip-mask-12"><use xlink:href="#rect-12" /></clipPath><clipPath id="clip-mask-13"><use xlink:href="#rect-13" /></clipPath><clipPath id="clip-mask-14"><use xlink:href="#rect-14" /></clipPath></defs><path d="M 0 0 L 270 270 M 270 0 L 0 270 M 135 0 L 135 270 M 0 135 L 270 135" stroke="#CCCCCC" /><path d="M 57 112 Q 31 145 12 150 Q 9 150 11 148 Q 36 121 46 108 Q 47 106 48 106 Q 82 57 75 33 Q 74 30 76 29 Q 79 28 85 29 Q 90 30 94 34 Q 98 36 99 39 Q 99 42 98 43 Q 93 48 93 52 L 90 57 Q 79 78 61 107" fill="#CCCCCC"/><path d="M 93 52 Q 93 52 95 52 Q 120 57 123 65 Q 126 72 125 76 Q 124 78 121 79 Q 118 79 115 76 Q 105 69 97 63 Q 92 59 90 57" fill="#CCCCCC"/><path d="M 75 115 Q 61 115 57 112 L 61 107 Q 61 107 61 107 Q 69 105 77 103 Q 95 95 102 96 Q 109 96 111 99 Q 112 101 110 103 Q 110 104 85 112" fill="#CCCCCC"/><path d="M 78 146 Q 77 146 76 146 Q 61 151 51 147 Q 44 144 53 141 Q 57 140 78 135 L 92 129 Q 97 126 104 127 Q 111 128 113 130 Q 114 132 112 134 Q 111 135 104 138 Q 97 139 91 142" fill="#CCCCCC"/><path d="M 78 161 L 78 146 L 78 135 Q 77 117 75 115 L 85 112 Q 88 114 91 117 Q 93 119 92 129 L 91 142 Q 90 162 89 187 L 78 190" fill="#CCCCCC"/><path d="M 43 165 L 43 163 Q 43 160 44 159 Q 46 158 61 166 Q 67 170 67 174 Q 68 181 66 183 Q 65 186 63 186 Q 59 185 57 182 Q 52 176 48 170" fill="#CCCCCC"/><path d="M 105 155 L 104 152 Q 103 148 106 148 Q 110 147 115 150 Q 119 153 120 156 Q 122 158 118 159 Q 112 164 100 174 Q 99 176 97 176 Q 96 174 97 173 Q 102 164 104 158" fill="#CCCCCC"/><path d="M 89 187 Q 104 183 116 179 Q 120 178 121 179 Q 121 182 117 184 Q 112 188 105 190 Q 57 210 45 218 Q 42 220 39 219 Q 31 214 25 210 Q 23 208 24 205 Q 24 202 28 202 Q 36 202 41 200 Q 61 195 78 190" fill="#CCCCCC"/><path d="M 139 135 L 123 142 Q 120 144 120 141 Q 121 139 123 136 Q 151 85 159 48 Q 160 41 156 35 Q 153 29 157 28 Q 162 27 170 30 Q 178 35 179 38 Q 181 41 179 44 Q 174 52 170 64 L 167 71" fill="#CCCCCC"/><path d="M 170 64 Q 186 80 197 90 Q 218 110 256 125 Q 260 127 259 128 Q 259 129 257 130 Q 230 135 219 133 Q 207 129 168 72 Q 168 71 167 71" fill="#CCCCCC"/><path d="M 155 124 L 154 122 Q 153 118 154 117 Q 157 116 174 121 Q 181 124 183 128 Q 185 135 184 139 Q 183 142 180 142 Q 176 143 173 139 Q 167 134 161 129" fill="#CCCCCC"/><path d="M 188 165 Q 185 163 181 164 Q 160 175 156 177 Q 148 183 140 178 Q 134 176 132 172 Q 130 167 136 167 Q 149 167 154 165 Q 174 158 187 152 Q 193 150 198 152 Q 216 160 217 165" fill="#CCCCCC"/><path d="M 180 185 L 190 171 Q 191 167 188 165 L 217 165 Q 219 169 214 171 Q 205 174 175 205 L 170 203" fill="#CCCCCC"/><path d="M 175 205 Q 191 215 191 226 Q 193 238 189 240 Q 186 242 185 242 Q 181 240 178 234 Q 166 216 156 202 Q 154 199 154 196 Q 155 193 157 194 Q 162 197 170 203" fill="#CCCCCC"/><path d="M 57 112 Q 31 145 12 150 Q 9 150 11 148 Q 36 121 46 108 Q 47 106 48 106 Q 82 57 75 33 Q 74 30 76 29 Q 79 28 85 29 Q 90 30 94 34 Q 98 36 99 39 Q 99 42 98 43 Q 93 48 93 52 L 90 57 Q 79 78 61 107" fill="#0000ff" clip-path="url(#clip-mask-1)" /><path d="M 93 52 Q 93 52 95 52 Q 120 57 123 65 Q 126 72 125 76 Q 124 78 121 79 Q 118 79 115 76 Q 105 69 97 63 Q 92 59 90 57" fill="#0000ff" clip-path="url(#clip-mask-2)" /><path d="M 75 115 Q 61 115 57 112 L 61 107 Q 61 107 61 107 Q 69 105 77 103 Q 95 95 102 96 Q 109 96 111 99 Q 112 101 110 103 Q 110 104 85 112" fill="#0000ff" clip-path="url(#clip-mask-3)" /><path d="M 78 146 Q 77 146 76 146 Q 61 151 51 147 Q 44 144 53 141 Q 57 140 78 135 L 92 129 Q 97 126 104 127 Q 111 128 113 130 Q 114 132 112 134 Q 111 135 104 138 Q 97 139 91 142" fill="#0000ff" clip-path="url(#clip-mask-4)" /><path d="M 78 161 L 78 146 L 78 135 Q 77 117 75 115 L 85 112 Q 88 114 91 117 Q 93 119 92 129 L 91 142 Q 90 162 89 187 L 78 190" fill="#0000ff" clip-path="url(#clip-mask-5)" /><path d="M 43 165 L 43 163 Q 43 160 44 159 Q 46 158 61 166 Q 67 170 67 174 Q 68 181 66 183 Q 65 186 63 186 Q 59 185 57 182 Q 52 176 48 170" fill="#0000ff" clip-path="url(#clip-mask-6)" /><path d="M 105 155 L 104 152 Q 103 148 106 148 Q 110 147 115 150 Q 119 153 120 156 Q 122 158 118 159 Q 112 164 100 174 Q 99 176 97 176 Q 96 174 97 173 Q 102 164 104 158" fill="#0000ff" clip-path="url(#clip-mask-7)" /><path d="M 89 187 Q 104 183 116 179 Q 120 178 121 179 Q 121 182 117 184 Q 112 188 105 190 Q 57 210 45 218 Q 42 220 39 219 Q 31 214 25 210 Q 23 208 24 205 Q 24 202 28 202 Q 36 202 41 200 Q 61 195 78 190" fill="#0000ff" clip-path="url(#clip-mask-8)" /><path d="M 139 135 L 123 142 Q 120 144 120 141 Q 121 139 123 136 Q 151 85 159 48 Q 160 41 156 35 Q 153 29 157 28 Q 162 27 170 30 Q 178 35 179 38 Q 181 41 179 44 Q 174 52 170 64 L 167 71" fill="#000080" clip-path="url(#clip-mask-9)" /><path d="M 170 64 Q 186 80 197 90 Q 218 110 256 125 Q 260 127 259 128 Q 259 129 257 130 Q 230 135 219 133 Q 207 129 168 72 Q 168 71 167 71" fill="#000080" clip-path="url(#clip-mask-10)" /><path d="M 155 124 L 154 122 Q 153 118 154 117 Q 157 116 174 121 Q 181 124 183 128 Q 185 135 184 139 Q 183 142 180 142 Q 176 143 173 139 Q 167 134 161 129" fill="#000080" clip-path="url(#clip-mask-11)" /><path d="M 188 165 Q 185 163 181 164 Q 160 175 156 177 Q 148 183 140 178 Q 134 176 132 172 Q 130 167 136 167 Q 149 167 154 165 Q 174 158 187 152 Q 193 150 198 152 Q 216 160 217 165" fill="#000080" clip-path="url(#clip-mask-12)" /><path d="M 180 185 L 190 171 Q 191 167 188 165 L 217 165 Q 219 169 214 171 Q 205 174 175 205 L 170 203" fill="#000080" clip-path="url(#clip-mask-13)" /><path d="M 175 205 Q 191 215 191 226 Q 193 238 189 240 Q 186 242 185 242 Q 181 240 178 234 Q 166 216 156 202 Q 154 199 154 196 Q 155 193 157 194 Q 162 197 170 203" fill="#000080" clip-path="url(#clip-mask-14)" /><rect x="9" y="28" width="90" height="122" id="rect-1" fill="transparent" stroke="#000000"><animate attributeName="y" from="-94" to="28" dur="0.452" begin="0; animate14.end + 1s" id="animate1" fill="freeze"/></rect><rect x="90" y="52" width="36" height="27" id="rect-2" fill="transparent" stroke="#000000"><set attributeName="x" to="54" begin="0; animate14.end + 1s" /><animate attributeName="x" from="54" to="90" dur="0.133" begin="animate1.end + 0.5" id="animate2" fill="freeze"/></rect><rect x="57" y="95" width="55" height="20" id="rect-3" fill="transparent" stroke="#000000"><set attributeName="x" to="2" begin="0; animate14.end + 1s" /><animate attributeName="x" from="2" to="57" dur="0.204" begin="animate2.end + 0.5" id="animate3" fill="freeze"/></rect><rect x="44" y="126" width="70" height="25" id="rect-4" fill="transparent" stroke="#000000"><set attributeName="x" to="-26" begin="0; animate14.end + 1s" /><animate attributeName="x" from="-26" to="44" dur="0.259" begin="animate3.end + 0.5" id="animate4" fill="freeze"/></rect><rect x="75" y="112" width="18" height="78" id="rect-5" fill="transparent" stroke="#000000"><set attributeName="y" to="34" begin="0; animate14.end + 1s" /><animate attributeName="y" from="34" to="112" dur="0.289" begin="animate4.end + 0.5" id="animate5" fill="freeze"/></rect><rect x="43" y="158" width="25" height="28" id="rect-6" fill="transparent" stroke="#000000"><set attributeName="y" to="130" begin="0; animate14.end + 1s" /><animate attributeName="y" from="130" to="158" dur="0.104" begin="animate5.end + 0.5" id="animate6" fill="freeze"/></rect><rect x="96" y="147" width="26" height="29" id="rect-7" fill="transparent" stroke="#000000"><set attributeName="y" to="118" begin="0; animate14.end + 1s" /><animate attributeName="y" from="118" to="147" dur="0.107" begin="animate6.end + 0.5" id="animate7" fill="freeze"/></rect><rect x="23" y="178" width="98" height="42" id="rect-8" fill="transparent" stroke="#000000"><set attributeName="x" to="-75" begin="0; animate14.end + 1s" /><animate attributeName="x" from="-75" to="23" dur="0.363" begin="animate7.end + 0.5" id="animate8" fill="freeze"/></rect><rect x="120" y="27" width="61" height="117" id="rect-9" fill="transparent" stroke="#000000"><set attributeName="y" to="-90" begin="0; animate14.end + 1s" /><animate attributeName="y" from="-90" to="27" dur="0.433" begin="animate8.end + 0.5" id="animate9" fill="freeze"/></rect><rect x="167" y="64" width="93" height="71" id="rect-10" fill="transparent" stroke="#000000"><set attributeName="x" to="74" begin="0; animate14.end + 1s" /><animate attributeName="x" from="74" to="167" dur="0.344" begin="animate9.end + 0.5" id="animate10" fill="freeze"/></rect><rect x="153" y="116" width="32" height="27" id="rect-11" fill="transparent" stroke="#000000"><set attributeName="x" to="121" begin="0; animate14.end + 1s" /><animate attributeName="x" from="121" to="153" dur="0.119" begin="animate10.end + 0.5" id="animate11" fill="freeze"/></rect><rect x="130" y="150" width="87" height="33" id="rect-12" fill="transparent" stroke="#000000"><set attributeName="x" to="43" begin="0; animate14.end + 1s" /><animate attributeName="x" from="43" to="130" dur="0.322" begin="animate11.end + 0.5" id="animate12" fill="freeze"/></rect><rect x="170" y="165" width="49" height="40" id="rect-13" fill="transparent" stroke="#000000"><set attributeName="y" to="125" begin="0; animate14.end + 1s" /><animate attributeName="y" from="125" to="165" dur="0.148" begin="animate12.end" id="animate13" fill="freeze"/></rect><rect x="154" y="193" width="39" height="49" id="rect-14" fill="transparent" stroke="#000000"><set attributeName="y" to="144" begin="0; animate14.end + 1s" /><animate attributeName="y" from="144" to="193" dur="0.181" begin="animate13.end + 0.5" id="animate14" fill="freeze"/></rect></svg>