<svg xmlns="http://www.w3.org/2000/svg" xmlns:xlink="http://www.w3.org/1999/xlink" width="270" height="270"><defs><clipPath id="clip-mask-1"><use xlink:href="#rect-1" /></clipPath><clipPath id="clip-mask-2"><use xlink:href="#rect-2" /></clipPath><clipPath id="clip-mask-3"><use xlink:href="#rect-3" /></clipPath><clipPath id="clip-mask-4"><use xlink:href="#rect-4" /></clipPath><clipPath id="clip-mask-5"><use xlink:href="#rect-5" /></clipPath><clipPath id="clip-mask-6"><use xlink:href="#rect-6" /></clipPath><clipPath id="clip-mask-7"><use xlink:href="#rect-7" /></clipPath><clipPath id="clip-mask-8"><use xlink:href="#rect-8" /></clipPath><clipPath id="clip-mask-9"><use xlink:href="#rect-9" /></clipPath><clipPath id="clip-mask-10"><use xlink:href="#rect-10" /></clipPath><clipPath id="clip-mask-11"><use xlink:href="#rect-11" /></clipPath><clipPath id="clip-mask-12"><use xlink:href="#rect-12" /></clipPath><clipPath id="clip-mask-13"><use xlink:href="#rect-13" /></clipPath><clipPath id="clip-mask-14"><use xlink:href="#rect-14" /></clipPath><clipPath id="clip-mask-15"><use xlink:href="#rect-15" /></clipPath><clipPath id="clip-mask-16"><use xlink:href="#rect-16" /></clipPath><clipPath id="clip-mask-17"><use xlink:href="#rect-17" /></clipPath><clipPath id="clip-mask-18"><use xlink:href="#rect-18" /></clipPath><clipPath id="clip-mask-19"><use xlink:href="#rect-19" /></clipPath><clipPath id="clip-mask-20"><use xlink:href="#rect-20" /></clipPath><clipPath id="clip-mask-21"><use xlink:href="#rect-21" /></clipPath></defs><path d="M 0 0 L 270 270 M 270 0 L 0 270 M 135 0 L 135 270 M 0 135 L 270 135" stroke="#CCCCCC" /><path d="M 53 110 Q 31 140 22 142 Q 18 143 19 140 Q 20 139 22 136 Q 40 113 54 91 Q 82 46 75 31 Q 72 25 77 25 Q 82 24 89 29 Q 97 34 98 38 Q 99 41 97 44 Q 93 48 89 55 L 86 60 Q 85 61 85 63 Q 70 87 58 105" fill="#CCCCCC"/><path d="M 89 55 Q 99 56 108 59 Q 117 62 119 68 Q 122 73 121 76 Q 120 79 118 80 Q 115 80 112 78 Q 101 70 92 64 Q 88 62 86 60" fill="#CCCCCC"/><path d="M 73 112 Q 62 114 54 110 L 53 110 L 58 105 Q 66 103 73 101 Q 81 98 88 96 Q 95 92 102 93 Q 109 94 111 97 Q 112 99 110 101 Q 109 102 83 109" fill="#CCCCCC"/><path d="M 76 146 Q 59 149 51 146 Q 45 142 53 141 Q 58 139 76 135 L 89 130 Q 93 128 98 128 Q 105 129 107 132 Q 108 134 106 136 Q 105 137 99 139 Q 93 140 88 142" fill="#CCCCCC"/><path d="M 76 161 L 76 146 L 76 135 Q 75 116 73 112 L 83 109 Q 91 116 89 121 Q 89 125 89 130 L 88 142 Q 88 162 88 187 L 77 191" fill="#CCCCCC"/><path d="M 39 166 L 38 163 Q 38 161 39 160 Q 42 159 57 166 Q 63 169 64 173 Q 65 180 64 182 Q 63 185 60 185 Q 57 184 55 182 Q 49 176 44 170" fill="#CCCCCC"/><path d="M 102 154 L 101 152 Q 100 148 103 148 Q 107 147 111 150 Q 115 153 116 155 Q 117 157 114 158 Q 109 162 98 171 Q 97 172 95 172 Q 94 171 95 170 Q 99 162 101 157" fill="#CCCCCC"/><path d="M 88 187 Q 100 183 111 179 Q 114 178 116 179 Q 116 182 112 184 Q 110 186 92 195 Q 54 214 46 221 Q 42 224 40 223 Q 31 218 24 214 Q 22 212 22 208 Q 23 205 26 205 Q 35 205 39 203 Q 59 197 77 191" fill="#CCCCCC"/><path d="M 150 58 Q 150 59 150 61 Q 149 71 153 129 L 144 131 Q 139 85 137 73 Q 135 62 129 52 Q 127 48 129 46 Q 131 45 135 46 Q 139 47 143 50" fill="#CCCCCC"/><path d="M 197 46 Q 195 45 190 46 Q 155 54 150 58 L 143 50 Q 173 43 197 36 Q 200 34 205 36 Q 220 41 222 45" fill="#CCCCCC"/><path d="M 199 78 Q 200 66 201 55 Q 200 48 197 46 L 222 45 Q 223 48 220 51 Q 212 71 208 121 L 194 122 Q 196 103 198 86" fill="#CCCCCC"/><path d="M 178 83 Q 192 77 199 78 L 198 86 Q 188 88 178 90" fill="#CCCCCC"/><path d="M 170 126 Q 168 106 165 89 Q 165 87 161 83 Q 160 81 161 79 Q 163 78 165 78 Q 169 79 175 81 Q 177 82 178 83 L 178 90 Q 177 93 177 125" fill="#CCCCCC"/><path d="M 132 150 L 133 191 Q 134 216 127 221 Q 125 222 123 219 Q 115 211 120 194 Q 127 154 116 134 Q 115 132 117 131 Q 121 130 128 133 Q 128 133 128 133 L 132 141" fill="#CCCCCC"/><path d="M 185 123 L 194 122 L 208 121 Q 218 119 223 118 Q 228 115 234 119 Q 243 122 247 126 Q 251 128 246 133 L 223 130 Q 222 129 219 129 Q 155 133 132 141 L 128 133 Q 136 132 144 131 L 153 129 Q 154 128 156 128 Q 162 127 170 126 L 177 125" fill="#CCCCCC"/><path d="M 246 133 Q 243 140 243 167 Q 240 221 232 237 Q 228 244 225 244 Q 223 245 220 241 L 224 205 Q 228 182 226 141 Q 225 132 223 130" fill="#CCCCCC"/><path d="M 220 241 Q 216 233 199 216 Q 197 213 197 211 Q 197 209 201 211 Q 207 212 214 213 Q 222 214 224 205" fill="#CCCCCC"/><path d="M 159 194 L 158 196 Q 157 199 153 194 Q 150 191 150 186 Q 147 168 143 158 Q 141 155 142 154 Q 143 153 146 153 Q 151 155 154 156 L 157 162 Q 157 167 159 183 L 159 190" fill="#CCCCCC"/><path d="M 154 156 Q 176 151 184 146 Q 188 143 192 146 Q 198 149 203 152 Q 207 155 203 161 L 186 158 Q 185 156 178 157 Q 170 159 160 161 Q 158 162 157 162" fill="#CCCCCC"/><path d="M 184 177 Q 187 159 186 158 L 203 161 Q 198 165 194 177" fill="#CCCCCC"/><path d="M 159 183 Q 170 181 184 177 L 194 177 L 195 177 Q 201 181 201 183 Q 201 185 199 185 Q 174 188 163 190 Q 161 191 159 190" fill="#CCCCCC"/><path d="M 53 110 Q 31 140 22 142 Q 18 143 19 140 Q 20 139 22 136 Q 40 113 54 91 Q 82 46 75 31 Q 72 25 77 25 Q 82 24 89 29 Q 97 34 98 38 Q 99 41 97 44 Q 93 48 89 55 L 86 60 Q 85 61 85 63 Q 70 87 58 105" fill="#0000ff" clip-path="url(#clip-mask-1)" /><path d="M 89 55 Q 99 56 108 59 Q 117 62 119 68 Q 122 73 121 76 Q 120 79 118 80 Q 115 80 112 78 Q 101 70 92 64 Q 88 62 86 60" fill="#0000ff" clip-path="url(#clip-mask-2)" /><path d="M 73 112 Q 62 114 54 110 L 53 110 L 58 105 Q 66 103 73 101 Q 81 98 88 96 Q 95 92 102 93 Q 109 94 111 97 Q 112 99 110 101 Q 109 102 83 109" fill="#0000ff" clip-path="url(#clip-mask-3)" /><path d="M 76 146 Q 59 149 51 146 Q 45 142 53 141 Q 58 139 76 135 L 89 130 Q 93 128 98 128 Q 105 129 107 132 Q 108 134 106 136 Q 105 137 99 139 Q 93 140 88 142" fill="#0000ff" clip-path="url(#clip-mask-4)" /><path d="M 76 161 L 76 146 L 76 135 Q 75 116 73 112 L 83 109 Q 91 116 89 121 Q 89 125 89 130 L 88 142 Q 88 162 88 187 L 77 191" fill="#0000ff" clip-path="url(#clip-mask-5)" /><path d="M 39 166 L 38 163 Q 38 161 39 160 Q 42 159 57 166 Q 63 169 64 173 Q 65 180 64 182 Q 63 185 60 185 Q 57 184 55 182 Q 49 176 44 170" fill="#0000ff" clip-path="url(#clip-mask-6)" /><path d="M 102 154 L 101 152 Q 100 148 103 148 Q 107 147 111 150 Q 115 153 116 155 Q 117 157 114 158 Q 109 162 98 171 Q 97 172 95 172 Q 94 171 95 170 Q 99 162 101 157" fill="#0000ff" clip-path="url(#clip-mask-7)" /><path d="M 88 187 Q 100 183 111 179 Q 114 178 116 179 Q 116 182 112 184 Q 110 186 92 195 Q 54 214 46 221 Q 42 224 40 223 Q 31 218 24 214 Q 22 212 22 208 Q 23 205 26 205 Q 35 205 39 203 Q 59 197 77 191" fill="#0000ff" clip-path="url(#clip-mask-8)" /><path d="M 150 58 Q 150 59 150 61 Q 149 71 153 129 L 144 131 Q 139 85 137 73 Q 135 62 129 52 Q 127 48 129 46 Q 131 45 135 46 Q 139 47 143 50" fill="#000080" clip-path="url(#clip-mask-9)" /><path d="M 197 46 Q 195 45 190 46 Q 155 54 150 58 L 143 50 Q 173 43 197 36 Q 200 34 205 36 Q 220 41 222 45" fill="#000080" clip-path="url(#clip-mask-10)" /><path d="M 199 78 Q 200 66 201 55 Q 200 48 197 46 L 222 45 Q 223 48 220 51 Q 212 71 208 121 L 194 122 Q 196 103 198 86" fill="#000080" clip-path="url(#clip-mask-11)" /><path d="M 178 83 Q 192 77 199 78 L 198 86 Q 188 88 178 90" fill="#000080" clip-path="url(#clip-mask-12)" /><path d="M 170 126 Q 168 106 165 89 Q 165 87 161 83 Q 160 81 161 79 Q 163 78 165 78 Q 169 79 175 81 Q 177 82 178 83 L 178 90 Q 177 93 177 125" fill="#000080" clip-path="url(#clip-mask-13)" /><path d="M 132 150 L 133 191 Q 134 216 127 221 Q 125 222 123 219 Q 115 211 120 194 Q 127 154 116 134 Q 115 132 117 131 Q 121 130 128 133 Q 128 133 128 133 L 132 141" fill="#000080" clip-path="url(#clip-mask-14)" /><path d="M 185 123 L 194 122 L 208 121 Q 218 119 223 118 Q 228 115 234 119 Q 243 122 247 126 Q 251 128 246 133 L 223 130 Q 222 129 219 129 Q 155 133 132 141 L 128 133 Q 136 132 144 131 L 153 129 Q 154 128 156 128 Q 162 127 170 126 L 177 125" fill="#000080" clip-path="url(#clip-mask-15)" /><path d="M 246 133 Q 243 140 243 167 Q 240 221 232 237 Q 228 244 225 244 Q 223 245 220 241 L 224 205 Q 228 182 226 141 Q 225 132 223 130" fill="#000080" clip-path="url(#clip-mask-16)" /><path d="M 220 241 Q 216 233 199 216 Q 197 213 197 211 Q 197 209 201 211 Q 207 212 214 213 Q 222 214 224 205" fill="#000080" clip-path="url(#clip-mask-17)" /><path d="M 159 194 L 158 196 Q 157 199 153 194 Q 150 191 150 186 Q 147 168 143 158 Q 141 155 142 154 Q 143 153 146 153 Q 151 155 154 156 L 157 162 Q 157 167 159 183 L 159 190" fill="#000080" clip-path="url(#clip-mask-18)" /><path d="M 154 156 Q 176 151 184 146 Q 188 143 192 146 Q 198 149 203 152 Q 207 155 203 161 L 186 158 Q 185 156 178 157 Q 170 159 160 161 Q 158 162 157 162" fill="#000080" clip-path="url(#clip-mask-19)" /><path d="M 184 177 Q 187 159 186 158 L 203 161 Q 198 165 194 177" fill="#000080" clip-path="url(#clip-mask-20)" /><path d="M 159 183 Q 170 181 184 177 L 194 177 L 195 177 Q 201 181 201 183 Q 201 185 199 185 Q 174 188 163 190 Q 161 191 159 190" fill="#000080" clip-path="url(#clip-mask-21)" /><rect x="18" y="24" width="81" height="119" id="rect-1" fill="transparent" stroke="#000000"><animate attributeName="y" from="-95" to="24" dur="0.441" begin="0; animate21.end + 1s" id="animate1" fill="freeze"/></rect><rect x="86" y="55" width="36" height="25" id="rect-2" fill="transparent" stroke="#000000"><set attributeName="x" to="50" begin="0; animate21.end + 1s" /><animate attributeName="x" from="50" to="86" dur="0.133" begin="animate1.end + 0.5" id="animate2" fill="freeze"/></rect><rect x="53" y="92" width="59" height="22" id="rect-3" fill="transparent" stroke="#000000"><set attributeName="x" to="-6" begin="0; animate21.end + 1s" /><animate attributeName="x" from="-6" to="53" dur="0.219" begin="animate2.end + 0.5" id="animate3" fill="freeze"/></rect><rect x="45" y="128" width="63" height="21" id="rect-4" fill="transparent" stroke="#000000"><set attributeName="x" to="-18" begin="0; animate21.end + 1s" /><animate attributeName="x" from="-18" to="45" dur="0.233" begin="animate3.end + 0.5" id="animate4" fill="freeze"/></rect><rect x="73" y="109" width="18" height="82" id="rect-5" fill="transparent" stroke="#000000"><set attributeName="y" to="27" begin="0; animate21.end + 1s" /><animate attributeName="y" from="27" to="109" dur="0.304" begin="animate4.end + 0.5" id="animate5" fill="freeze"/></rect><rect x="38" y="159" width="27" height="26" id="rect-6" fill="transparent" stroke="#000000"><set attributeName="y" to="133" begin="0; animate21.end + 1s" /><animate attributeName="y" from="133" to="159" dur="0.096" begin="animate5.end + 0.5" id="animate6" fill="freeze"/></rect><rect x="94" y="147" width="23" height="25" id="rect-7" fill="transparent" stroke="#000000"><set attributeName="y" to="122" begin="0; animate21.end + 1s" /><animate attributeName="y" from="122" to="147" dur="0.093" begin="animate6.end + 0.5" id="animate7" fill="freeze"/></rect><rect x="22" y="178" width="94" height="46" id="rect-8" fill="transparent" stroke="#000000"><set attributeName="x" to="-72" begin="0; animate21.end + 1s" /><animate attributeName="x" from="-72" to="22" dur="0.348" begin="animate7.end + 0.5" id="animate8" fill="freeze"/></rect><rect x="127" y="45" width="26" height="86" id="rect-9" fill="transparent" stroke="#000000"><set attributeName="y" to="-41" begin="0; animate21.end + 1s" /><animate attributeName="y" from="-41" to="45" dur="0.319" begin="animate8.end + 0.5" id="animate9" fill="freeze"/></rect><rect x="143" y="34" width="79" height="24" id="rect-10" fill="transparent" stroke="#000000"><set attributeName="x" to="64" begin="0; animate21.end + 1s" /><animate attributeName="x" from="64" to="143" dur="0.293" begin="animate9.end + 0.5" id="animate10" fill="freeze"/></rect><rect x="194" y="45" width="29" height="77" id="rect-11" fill="transparent" stroke="#000000"><set attributeName="y" to="-32" begin="0; animate21.end + 1s" /><animate attributeName="y" from="-32" to="45" dur="0.285" begin="animate10.end" id="animate11" fill="freeze"/></rect><rect x="178" y="77" width="21" height="13" id="rect-12" fill="transparent" stroke="#000000"><set attributeName="x" to="157" begin="0; animate21.end + 1s" /><animate attributeName="x" from="157" to="178" dur="0.078" begin="animate11.end + 0.5" id="animate12" fill="freeze"/></rect><rect x="160" y="78" width="18" height="48" id="rect-13" fill="transparent" stroke="#000000"><set attributeName="y" to="30" begin="0; animate21.end + 1s" /><animate attributeName="y" from="30" to="78" dur="0.178" begin="animate12.end + 0.5" id="animate13" fill="freeze"/></rect><rect x="115" y="130" width="19" height="92" id="rect-14" fill="transparent" stroke="#000000"><set attributeName="y" to="38" begin="0; animate21.end + 1s" /><animate attributeName="y" from="38" to="130" dur="0.341" begin="animate13.end + 0.5" id="animate14" fill="freeze"/></rect><rect x="128" y="115" width="123" height="26" id="rect-15" fill="transparent" stroke="#000000"><set attributeName="x" to="5" begin="0; animate21.end + 1s" /><animate attributeName="x" from="5" to="128" dur="0.456" begin="animate14.end + 0.5" id="animate15" fill="freeze"/></rect><rect x="220" y="130" width="26" height="115" id="rect-16" fill="transparent" stroke="#000000"><set attributeName="y" to="15" begin="0; animate21.end + 1s" /><animate attributeName="y" from="15" to="130" dur="0.426" begin="animate15.end" id="animate16" fill="freeze"/></rect><rect x="197" y="205" width="27" height="36" id="rect-17" fill="transparent" stroke="#000000"><set attributeName="x" to="224" begin="0; animate21.end + 1s" /><animate attributeName="x" from="224" to="197" dur="0.100" begin="animate16.end" id="animate17" fill="freeze"/></rect><rect x="141" y="153" width="18" height="46" id="rect-18" fill="transparent" stroke="#000000"><set attributeName="y" to="107" begin="0; animate21.end + 1s" /><animate attributeName="y" from="107" to="153" dur="0.170" begin="animate17.end + 0.5" id="animate18" fill="freeze"/></rect><rect x="154" y="143" width="53" height="19" id="rect-19" fill="transparent" stroke="#000000"><set attributeName="x" to="101" begin="0; animate21.end + 1s" /><animate attributeName="x" from="101" to="154" dur="0.196" begin="animate18.end + 0.5" id="animate19" fill="freeze"/></rect><rect x="184" y="158" width="19" height="19" id="rect-20" fill="transparent" stroke="#000000"><set attributeName="y" to="139" begin="0; animate21.end + 1s" /><animate attributeName="y" from="139" to="158" dur="0.070" begin="animate19.end" id="animate20" fill="freeze"/></rect><rect x="159" y="177" width="42" height="14" id="rect-21" fill="transparent" stroke="#000000"><set attributeName="x" to="117" begin="0; animate21.end + 1s" /><animate attributeName="x" from="117" to="159" dur="0.156" begin="animate20.end + 0.5" id="animate21" fill="freeze"/></rect></svg>