<svg xmlns="http://www.w3.org/2000/svg" xmlns:xlink="http://www.w3.org/1999/xlink" width="270" height="270"><defs><clipPath id="clip-mask-1"><use xlink:href="#rect-1" /></clipPath><clipPath id="clip-mask-2"><use xlink:href="#rect-2" /></clipPath><clipPath id="clip-mask-3"><use xlink:href="#rect-3" /></clipPath><clipPath id="clip-mask-4"><use xlink:href="#rect-4" /></clipPath><clipPath id="clip-mask-5"><use xlink:href="#rect-5" /></clipPath><clipPath id="clip-mask-6"><use xlink:href="#rect-6" /></clipPath><clipPath id="clip-mask-7"><use xlink:href="#rect-7" /></clipPath><clipPath id="clip-mask-8"><use xlink:href="#rect-8" /></clipPath><clipPath id="clip-mask-9"><use xlink:href="#rect-9" /></clipPath><clipPath id="clip-mask-10"><use xlink:href="#rect-10" /></clipPath><clipPath id="clip-mask-11"><use xlink:href="#rect-11" /></clipPath><clipPath id="clip-mask-12"><use xlink:href="#rect-12" /></clipPath><clipPath id="clip-mask-13"><use xlink:href="#rect-13" /></clipPath><clipPath id="clip-mask-14"><use xlink:href="#rect-14" /></clipPath><clipPath id="clip-mask-15"><use xlink:href="#rect-15" /></clipPath></defs><path d="M 0 0 L 270 270 M 270 0 L 0 270 M 135 0 L 135 270 M 0 135 L 270 135" stroke="#CCCCCC" /><path d="M 64 52 Q 64 53 64 54 Q 63 61 62 79 L 62 86 Q 62 98 62 114 L 62 122 Q 62 143 63 175 Q 62 214 54 225 Q 51 229 48 225 Q 45 222 42 212 Q 41 207 43 199 Q 49 179 52 142 Q 54 70 43 45 Q 41 42 42 41 Q 44 38 46 39 Q 53 41 59 45" fill="#CCCCCC"/><path d="M 59 45 L 60 45 Q 77 42 92 36 Q 95 34 100 35 Q 108 39 113 43 L 92 47 Q 89 46 69 51 Q 67 52 64 52 L 59 45" fill="#CCCCCC"/><path d="M 92 107 Q 93 104 94 57 Q 94 49 92 47 L 113 43 Q 116 46 113 51 Q 107 61 106 102 Q 106 111 102 116 Q 97 124 91 116" fill="#CCCCCC"/><path d="M 62 79 Q 72 74 78 74 Q 84 74 87 77 Q 90 80 85 82 L 62 86" fill="#CCCCCC"/><path d="M 62 114 Q 86 105 92 107 L 91 116 Q 78 117 63 121 Q 62 121 62 122" fill="#CCCCCC"/><path d="M 163 103 L 160 102 L 160 101 Q 152 95 153 79 Q 154 46 148 32 Q 146 29 148 28 Q 149 27 150 28 Q 155 29 159 32 L 166 40 Q 166 41 166 42 Q 165 51 165 62 L 165 70 Q 165 75 165 79 Q 166 86 166 92 L 164 99" fill="#CCCCCC"/><path d="M 159 32 Q 186 29 200 20 Q 204 19 209 21 Q 219 25 225 30 L 204 35 Q 202 32 197 33 Q 169 40 166 40" fill="#CCCCCC"/><path d="M 225 30 Q 228 32 225 38 Q 221 45 221 61 Q 221 159 224 220 Q 225 234 213 248 Q 211 250 208 249 Q 204 247 201 242 L 204 221 Q 210 212 208 95 L 208 87 Q 208 69 207 51 Q 208 38 204 35" fill="#CCCCCC"/><path d="M 201 242 Q 193 232 179 218 Q 179 215 184 217 Q 191 219 198 221 Q 203 223 204 221" fill="#CCCCCC"/><path d="M 165 62 Q 178 56 187 57 Q 193 58 196 61 Q 198 64 193 65 Q 181 67 165 70" fill="#CCCCCC"/><path d="M 166 92 Q 196 84 204 85 Q 206 86 208 87 L 208 95 Q 191 96 169 99 Q 167 99 164 99" fill="#CCCCCC"/><path d="M 135 138 Q 118 140 103 146 Q 93 149 86 144 Q 82 140 87 140 Q 110 135 129 130 Q 132 129 135 129 L 148 125 Q 150 124 153 124 Q 171 117 184 125 Q 188 127 187 130 Q 186 132 174 133 Q 159 134 148 136" fill="#CCCCCC"/><path d="M 135 142 L 135 138 L 135 129 Q 134 107 130 102 Q 127 98 131 96 Q 135 95 144 99 Q 150 103 152 106 Q 153 109 150 112 Q 149 114 148 125 L 148 136 Q 148 137 148 139 L 148 156 Q 147 172 147 187 Q 147 221 140 230 Q 139 231 137 230 Q 135 229 132 224 L 130 204 Q 133 205 134 199 Q 135 196 135 168 L 135 147" fill="#CCCCCC"/><path d="M 132 224 Q 130 218 118 207 Q 114 204 115 203 Q 115 201 119 203 Q 127 204 130 204" fill="#CCCCCC"/><path d="M 148 139 Q 149 139 150 140 Q 156 142 156 145 Q 156 147 148 156 L 135 168 Q 100 198 81 200 Q 75 200 80 197 Q 87 192 92 188 Q 120 169 135 147" fill="#CCCCCC"/><path d="M 64 52 Q 64 53 64 54 Q 63 61 62 79 L 62 86 Q 62 98 62 114 L 62 122 Q 62 143 63 175 Q 62 214 54 225 Q 51 229 48 225 Q 45 222 42 212 Q 41 207 43 199 Q 49 179 52 142 Q 54 70 43 45 Q 41 42 42 41 Q 44 38 46 39 Q 53 41 59 45" fill="#0000ff" clip-path="url(#clip-mask-1)" /><path d="M 59 45 L 60 45 Q 77 42 92 36 Q 95 34 100 35 Q 108 39 113 43 L 92 47 Q 89 46 69 51 Q 67 52 64 52 L 59 45" fill="#0000ff" clip-path="url(#clip-mask-2)" /><path d="M 92 107 Q 93 104 94 57 Q 94 49 92 47 L 113 43 Q 116 46 113 51 Q 107 61 106 102 Q 106 111 102 116 Q 97 124 91 116" fill="#0000ff" clip-path="url(#clip-mask-3)" /><path d="M 62 79 Q 72 74 78 74 Q 84 74 87 77 Q 90 80 85 82 L 62 86" fill="#0000ff" clip-path="url(#clip-mask-4)" /><path d="M 62 114 Q 86 105 92 107 L 91 116 Q 78 117 63 121 Q 62 121 62 122" fill="#0000ff" clip-path="url(#clip-mask-5)" /><path d="M 163 103 L 160 102 L 160 101 Q 152 95 153 79 Q 154 46 148 32 Q 146 29 148 28 Q 149 27 150 28 Q 155 29 159 32 L 166 40 Q 166 41 166 42 Q 165 51 165 62 L 165 70 Q 165 75 165 79 Q 166 86 166 92 L 164 99" fill="#0000ff" clip-path="url(#clip-mask-6)" /><path d="M 159 32 Q 186 29 200 20 Q 204 19 209 21 Q 219 25 225 30 L 204 35 Q 202 32 197 33 Q 169 40 166 40" fill="#0000ff" clip-path="url(#clip-mask-7)" /><path d="M 225 30 Q 228 32 225 38 Q 221 45 221 61 Q 221 159 224 220 Q 225 234 213 248 Q 211 250 208 249 Q 204 247 201 242 L 204 221 Q 210 212 208 95 L 208 87 Q 208 69 207 51 Q 208 38 204 35" fill="#0000ff" clip-path="url(#clip-mask-8)" /><path d="M 201 242 Q 193 232 179 218 Q 179 215 184 217 Q 191 219 198 221 Q 203 223 204 221" fill="#0000ff" clip-path="url(#clip-mask-9)" /><path d="M 165 62 Q 178 56 187 57 Q 193 58 196 61 Q 198 64 193 65 Q 181 67 165 70" fill="#0000ff" clip-path="url(#clip-mask-10)" /><path d="M 166 92 Q 196 84 204 85 Q 206 86 208 87 L 208 95 Q 191 96 169 99 Q 167 99 164 99" fill="#0000ff" clip-path="url(#clip-mask-11)" /><path d="M 135 138 Q 118 140 103 146 Q 93 149 86 144 Q 82 140 87 140 Q 110 135 129 130 Q 132 129 135 129 L 148 125 Q 150 124 153 124 Q 171 117 184 125 Q 188 127 187 130 Q 186 132 174 133 Q 159 134 148 136" fill="#000080" clip-path="url(#clip-mask-12)" /><path d="M 135 142 L 135 138 L 135 129 Q 134 107 130 102 Q 127 98 131 96 Q 135 95 144 99 Q 150 103 152 106 Q 153 109 150 112 Q 149 114 148 125 L 148 136 Q 148 137 148 139 L 148 156 Q 147 172 147 187 Q 147 221 140 230 Q 139 231 137 230 Q 135 229 132 224 L 130 204 Q 133 205 134 199 Q 135 196 135 168 L 135 147" fill="#000080" clip-path="url(#clip-mask-13)" /><path d="M 132 224 Q 130 218 118 207 Q 114 204 115 203 Q 115 201 119 203 Q 127 204 130 204" fill="#000080" clip-path="url(#clip-mask-14)" /><path d="M 148 139 Q 149 139 150 140 Q 156 142 156 145 Q 156 147 148 156 L 135 168 Q 100 198 81 200 Q 75 200 80 197 Q 87 192 92 188 Q 120 169 135 147" fill="#000080" clip-path="url(#clip-mask-15)" /><rect x="41" y="38" width="23" height="191" id="rect-1" fill="transparent" stroke="#000000"><animate attributeName="y" from="-153" to="38" dur="0.707" begin="0; animate15.end + 1s" id="animate1" fill="freeze"/></rect><rect x="59" y="34" width="54" height="18" id="rect-2" fill="transparent" stroke="#000000"><set attributeName="x" to="5" begin="0; animate15.end + 1s" /><animate attributeName="x" from="5" to="59" dur="0.200" begin="animate1.end + 0.5" id="animate2" fill="freeze"/></rect><rect x="91" y="43" width="25" height="81" id="rect-3" fill="transparent" stroke="#000000"><set attributeName="y" to="-38" begin="0; animate15.end + 1s" /><animate attributeName="y" from="-38" to="43" dur="0.300" begin="animate2.end" id="animate3" fill="freeze"/></rect><rect x="62" y="74" width="28" height="12" id="rect-4" fill="transparent" stroke="#000000"><set attributeName="x" to="34" begin="0; animate15.end + 1s" /><animate attributeName="x" from="34" to="62" dur="0.104" begin="animate3.end + 0.5" id="animate4" fill="freeze"/></rect><rect x="62" y="105" width="30" height="17" id="rect-5" fill="transparent" stroke="#000000"><set attributeName="x" to="32" begin="0; animate15.end + 1s" /><animate attributeName="x" from="32" to="62" dur="0.111" begin="animate4.end + 0.5" id="animate5" fill="freeze"/></rect><rect x="146" y="27" width="20" height="76" id="rect-6" fill="transparent" stroke="#000000"><set attributeName="y" to="-49" begin="0; animate15.end + 1s" /><animate attributeName="y" from="-49" to="27" dur="0.281" begin="animate5.end + 0.5" id="animate6" fill="freeze"/></rect><rect x="159" y="19" width="66" height="21" id="rect-7" fill="transparent" stroke="#000000"><set attributeName="x" to="93" begin="0; animate15.end + 1s" /><animate attributeName="x" from="93" to="159" dur="0.244" begin="animate6.end + 0.5" id="animate7" fill="freeze"/></rect><rect x="201" y="30" width="27" height="220" id="rect-8" fill="transparent" stroke="#000000"><set attributeName="y" to="-190" begin="0; animate15.end + 1s" /><animate attributeName="y" from="-190" to="30" dur="0.815" begin="animate7.end" id="animate8" fill="freeze"/></rect><rect x="179" y="215" width="25" height="27" id="rect-9" fill="transparent" stroke="#000000"><set attributeName="x" to="204" begin="0; animate15.end + 1s" /><animate attributeName="x" from="204" to="179" dur="0.093" begin="animate8.end" id="animate9" fill="freeze"/></rect><rect x="165" y="56" width="33" height="14" id="rect-10" fill="transparent" stroke="#000000"><set attributeName="x" to="132" begin="0; animate15.end + 1s" /><animate attributeName="x" from="132" to="165" dur="0.122" begin="animate9.end + 0.5" id="animate10" fill="freeze"/></rect><rect x="164" y="84" width="44" height="15" id="rect-11" fill="transparent" stroke="#000000"><set attributeName="x" to="120" begin="0; animate15.end + 1s" /><animate attributeName="x" from="120" to="164" dur="0.163" begin="animate10.end + 0.5" id="animate11" fill="freeze"/></rect><rect x="82" y="117" width="106" height="32" id="rect-12" fill="transparent" stroke="#000000"><set attributeName="x" to="-24" begin="0; animate15.end + 1s" /><animate attributeName="x" from="-24" to="82" dur="0.393" begin="animate11.end + 0.5" id="animate12" fill="freeze"/></rect><rect x="127" y="95" width="26" height="136" id="rect-13" fill="transparent" stroke="#000000"><set attributeName="y" to="-41" begin="0; animate15.end + 1s" /><animate attributeName="y" from="-41" to="95" dur="0.504" begin="animate12.end + 0.5" id="animate13" fill="freeze"/></rect><rect x="114" y="201" width="18" height="23" id="rect-14" fill="transparent" stroke="#000000"><set attributeName="x" to="132" begin="0; animate15.end + 1s" /><animate attributeName="x" from="132" to="114" dur="0.067" begin="animate13.end" id="animate14" fill="freeze"/></rect><rect x="75" y="139" width="81" height="61" id="rect-15" fill="transparent" stroke="#000000"><set attributeName="x" to="156" begin="0; animate15.end + 1s" /><animate attributeName="x" from="156" to="75" dur="0.300" begin="animate14.end + 0.5" id="animate15" fill="freeze"/></rect></svg>