<svg xmlns="http://www.w3.org/2000/svg" xmlns:xlink="http://www.w3.org/1999/xlink" width="270" height="270"><defs><clipPath id="clip-mask-1"><use xlink:href="#rect-1" /></clipPath><clipPath id="clip-mask-2"><use xlink:href="#rect-2" /></clipPath><clipPath id="clip-mask-3"><use xlink:href="#rect-3" /></clipPath><clipPath id="clip-mask-4"><use xlink:href="#rect-4" /></clipPath><clipPath id="clip-mask-5"><use xlink:href="#rect-5" /></clipPath><clipPath id="clip-mask-6"><use xlink:href="#rect-6" /></clipPath><clipPath id="clip-mask-7"><use xlink:href="#rect-7" /></clipPath><clipPath id="clip-mask-8"><use xlink:href="#rect-8" /></clipPath><clipPath id="clip-mask-9"><use xlink:href="#rect-9" /></clipPath><clipPath id="clip-mask-10"><use xlink:href="#rect-10" /></clipPath><clipPath id="clip-mask-11"><use xlink:href="#rect-11" /></clipPath><clipPath id="clip-mask-12"><use xlink:href="#rect-12" /></clipPath><clipPath id="clip-mask-13"><use xlink:href="#rect-13" /></clipPath><clipPath id="clip-mask-14"><use xlink:href="#rect-14" /></clipPath><clipPath id="clip-mask-15"><use xlink:href="#rect-15" /></clipPath><clipPath id="clip-mask-16"><use xlink:href="#rect-16" /></clipPath><clipPath id="clip-mask-17"><use xlink:href="#rect-17" /></clipPath></defs><path d="M 0 0 L 270 270 M 270 0 L 0 270 M 135 0 L 135 270 M 0 135 L 270 135" stroke="#CCCCCC" /><path d="M 68 126 L 67 174 Q 66 215 58 224 Q 55 227 52 224 Q 48 220 46 210 Q 45 205 47 197 Q 55 174 56 151 Q 56 149 57 148 Q 62 72 51 45 Q 49 42 50 41 Q 52 38 54 39 Q 61 41 68 46 Q 68 47 68 47 L 72 54 Q 70 60 70 74 L 69 83 Q 69 90 68 100 L 68 108" fill="#CCCCCC"/><path d="M 68 47 Q 85 44 99 38 Q 103 36 107 38 Q 114 42 119 46 L 99 49 Q 95 47 73 54 Q 72 54 72 54" fill="#CCCCCC"/><path d="M 97 99 Q 99 96 101 57 Q 101 50 99 49 L 119 46 Q 122 49 119 54 Q 112 63 112 92 Q 110 104 107 108 Q 102 114 96 106 Q 95 105 95 105" fill="#CCCCCC"/><path d="M 70 74 Q 78 70 82 70 Q 89 71 92 74 Q 94 77 89 78 Q 80 80 69 83" fill="#CCCCCC"/><path d="M 68 100 Q 88 94 92 96 Q 95 98 97 99 L 95 105 Q 80 106 73 108 Q 70 109 68 108" fill="#CCCCCC"/><path d="M 167 101 L 167 101 Q 166 109 162 107 Q 161 106 161 106 Q 153 99 153 84 Q 154 50 147 36 Q 145 33 147 32 Q 148 30 150 31 Q 156 34 162 38 L 166 46 Q 165 55 165 66 L 166 74 Q 166 79 167 92 L 167 100" fill="#CCCCCC"/><path d="M 162 38 Q 177 35 188 31 Q 200 24 205 26 Q 215 30 221 35 L 200 40 Q 197 38 193 39 Q 168 46 166 46" fill="#CCCCCC"/><path d="M 205 87 Q 204 72 204 56 Q 204 44 200 40 L 221 35 Q 224 38 221 43 Q 218 50 218 66 Q 219 158 223 214 Q 223 229 212 242 Q 210 245 207 244 Q 203 243 200 237 L 202 216 Q 208 206 205 96" fill="#CCCCCC"/><path d="M 200 237 Q 191 227 176 214 Q 176 211 182 213 Q 189 215 196 216 Q 201 218 202 216" fill="#CCCCCC"/><path d="M 165 66 Q 177 60 187 61 Q 194 61 197 65 Q 199 68 193 69 Q 181 71 166 74" fill="#CCCCCC"/><path d="M 167 92 Q 178 90 192 86 Q 199 84 203 86 Q 204 87 205 87 L 205 96 Q 182 97 171 100 Q 169 101 167 100" fill="#CCCCCC"/><path d="M 108 189 L 108 190 Q 106 196 104 198 Q 102 199 100 196 Q 99 195 98 193 Q 93 182 97 178 Q 106 148 95 127 Q 94 124 97 123 Q 100 123 107 126 Q 107 126 107 126 L 111 133 Q 110 138 110 154 L 110 161 Q 110 176 110 181 L 109 188" fill="#CCCCCC"/><path d="M 149 128 Q 147 127 119 132 Q 114 133 111 133 L 107 126 Q 137 119 146 116 Q 149 114 153 116 Q 164 122 169 127" fill="#CCCCCC"/><path d="M 149 180 Q 151 176 151 165 Q 153 132 149 128 L 169 127 Q 171 129 168 132 Q 164 137 164 144 Q 166 166 167 179 Q 167 190 162 198 Q 159 206 155 206 Q 152 206 150 202" fill="#CCCCCC"/><path d="M 149 180 L 150 202 Q 146 194 139 185" fill="#CCCCCC"/><path d="M 110 154 Q 116 148 129 149 Q 136 150 138 153 Q 141 156 135 157 Q 125 159 112 161 Q 110 161 110 161" fill="#CCCCCC"/><path d="M 110 181 Q 133 174 140 175 Q 146 177 149 180 L 139 185 Q 127 186 111 188 Q 110 188 109 188" fill="#CCCCCC"/><path d="M 68 126 L 67 174 Q 66 215 58 224 Q 55 227 52 224 Q 48 220 46 210 Q 45 205 47 197 Q 55 174 56 151 Q 56 149 57 148 Q 62 72 51 45 Q 49 42 50 41 Q 52 38 54 39 Q 61 41 68 46 Q 68 47 68 47 L 72 54 Q 70 60 70 74 L 69 83 Q 69 90 68 100 L 68 108" fill="#0000ff" clip-path="url(#clip-mask-1)" /><path d="M 68 47 Q 85 44 99 38 Q 103 36 107 38 Q 114 42 119 46 L 99 49 Q 95 47 73 54 Q 72 54 72 54" fill="#0000ff" clip-path="url(#clip-mask-2)" /><path d="M 97 99 Q 99 96 101 57 Q 101 50 99 49 L 119 46 Q 122 49 119 54 Q 112 63 112 92 Q 110 104 107 108 Q 102 114 96 106 Q 95 105 95 105" fill="#0000ff" clip-path="url(#clip-mask-3)" /><path d="M 70 74 Q 78 70 82 70 Q 89 71 92 74 Q 94 77 89 78 Q 80 80 69 83" fill="#0000ff" clip-path="url(#clip-mask-4)" /><path d="M 68 100 Q 88 94 92 96 Q 95 98 97 99 L 95 105 Q 80 106 73 108 Q 70 109 68 108" fill="#0000ff" clip-path="url(#clip-mask-5)" /><path d="M 167 101 L 167 101 Q 166 109 162 107 Q 161 106 161 106 Q 153 99 153 84 Q 154 50 147 36 Q 145 33 147 32 Q 148 30 150 31 Q 156 34 162 38 L 166 46 Q 165 55 165 66 L 166 74 Q 166 79 167 92 L 167 100" fill="#0000ff" clip-path="url(#clip-mask-6)" /><path d="M 162 38 Q 177 35 188 31 Q 200 24 205 26 Q 215 30 221 35 L 200 40 Q 197 38 193 39 Q 168 46 166 46" fill="#0000ff" clip-path="url(#clip-mask-7)" /><path d="M 205 87 Q 204 72 204 56 Q 204 44 200 40 L 221 35 Q 224 38 221 43 Q 218 50 218 66 Q 219 158 223 214 Q 223 229 212 242 Q 210 245 207 244 Q 203 243 200 237 L 202 216 Q 208 206 205 96" fill="#0000ff" clip-path="url(#clip-mask-8)" /><path d="M 200 237 Q 191 227 176 214 Q 176 211 182 213 Q 189 215 196 216 Q 201 218 202 216" fill="#0000ff" clip-path="url(#clip-mask-9)" /><path d="M 165 66 Q 177 60 187 61 Q 194 61 197 65 Q 199 68 193 69 Q 181 71 166 74" fill="#0000ff" clip-path="url(#clip-mask-10)" /><path d="M 167 92 Q 178 90 192 86 Q 199 84 203 86 Q 204 87 205 87 L 205 96 Q 182 97 171 100 Q 169 101 167 100" fill="#0000ff" clip-path="url(#clip-mask-11)" /><path d="M 108 189 L 108 190 Q 106 196 104 198 Q 102 199 100 196 Q 99 195 98 193 Q 93 182 97 178 Q 106 148 95 127 Q 94 124 97 123 Q 100 123 107 126 Q 107 126 107 126 L 111 133 Q 110 138 110 154 L 110 161 Q 110 176 110 181 L 109 188" fill="#000080" clip-path="url(#clip-mask-12)" /><path d="M 149 128 Q 147 127 119 132 Q 114 133 111 133 L 107 126 Q 137 119 146 116 Q 149 114 153 116 Q 164 122 169 127" fill="#000080" clip-path="url(#clip-mask-13)" /><path d="M 149 180 Q 151 176 151 165 Q 153 132 149 128 L 169 127 Q 171 129 168 132 Q 164 137 164 144 Q 166 166 167 179 Q 167 190 162 198 Q 159 206 155 206 Q 152 206 150 202" fill="#000080" clip-path="url(#clip-mask-14)" /><path d="M 149 180 L 150 202 Q 146 194 139 185" fill="#000080" clip-path="url(#clip-mask-15)" /><path d="M 110 154 Q 116 148 129 149 Q 136 150 138 153 Q 141 156 135 157 Q 125 159 112 161 Q 110 161 110 161" fill="#000080" clip-path="url(#clip-mask-16)" /><path d="M 110 181 Q 133 174 140 175 Q 146 177 149 180 L 139 185 Q 127 186 111 188 Q 110 188 109 188" fill="#000080" clip-path="url(#clip-mask-17)" /><rect x="45" y="38" width="27" height="189" id="rect-1" fill="transparent" stroke="#000000"><animate attributeName="y" from="-151" to="38" dur="0.700" begin="0; animate17.end + 1s" id="animate1" fill="freeze"/></rect><rect x="68" y="36" width="51" height="18" id="rect-2" fill="transparent" stroke="#000000"><set attributeName="x" to="17" begin="0; animate17.end + 1s" /><animate attributeName="x" from="17" to="68" dur="0.189" begin="animate1.end + 0.5" id="animate2" fill="freeze"/></rect><rect x="95" y="46" width="27" height="68" id="rect-3" fill="transparent" stroke="#000000"><set attributeName="y" to="-22" begin="0; animate17.end + 1s" /><animate attributeName="y" from="-22" to="46" dur="0.252" begin="animate2.end" id="animate3" fill="freeze"/></rect><rect x="69" y="70" width="25" height="13" id="rect-4" fill="transparent" stroke="#000000"><set attributeName="x" to="44" begin="0; animate17.end + 1s" /><animate attributeName="x" from="44" to="69" dur="0.093" begin="animate3.end + 0.5" id="animate4" fill="freeze"/></rect><rect x="68" y="94" width="29" height="15" id="rect-5" fill="transparent" stroke="#000000"><set attributeName="x" to="39" begin="0; animate17.end + 1s" /><animate attributeName="x" from="39" to="68" dur="0.107" begin="animate4.end + 0.5" id="animate5" fill="freeze"/></rect><rect x="145" y="30" width="22" height="79" id="rect-6" fill="transparent" stroke="#000000"><set attributeName="y" to="-49" begin="0; animate17.end + 1s" /><animate attributeName="y" from="-49" to="30" dur="0.293" begin="animate5.end + 0.5" id="animate6" fill="freeze"/></rect><rect x="162" y="24" width="59" height="22" id="rect-7" fill="transparent" stroke="#000000"><set attributeName="x" to="103" begin="0; animate17.end + 1s" /><animate attributeName="x" from="103" to="162" dur="0.219" begin="animate6.end + 0.5" id="animate7" fill="freeze"/></rect><rect x="200" y="35" width="24" height="210" id="rect-8" fill="transparent" stroke="#000000"><set attributeName="y" to="-175" begin="0; animate17.end + 1s" /><animate attributeName="y" from="-175" to="35" dur="0.778" begin="animate7.end" id="animate8" fill="freeze"/></rect><rect x="176" y="211" width="26" height="26" id="rect-9" fill="transparent" stroke="#000000"><set attributeName="x" to="202" begin="0; animate17.end + 1s" /><animate attributeName="x" from="202" to="176" dur="0.096" begin="animate8.end" id="animate9" fill="freeze"/></rect><rect x="165" y="60" width="34" height="14" id="rect-10" fill="transparent" stroke="#000000"><set attributeName="x" to="131" begin="0; animate17.end + 1s" /><animate attributeName="x" from="131" to="165" dur="0.126" begin="animate9.end + 0.5" id="animate10" fill="freeze"/></rect><rect x="167" y="84" width="38" height="17" id="rect-11" fill="transparent" stroke="#000000"><set attributeName="x" to="129" begin="0; animate17.end + 1s" /><animate attributeName="x" from="129" to="167" dur="0.141" begin="animate10.end + 0.5" id="animate11" fill="freeze"/></rect><rect x="93" y="123" width="18" height="76" id="rect-12" fill="transparent" stroke="#000000"><set attributeName="y" to="47" begin="0; animate17.end + 1s" /><animate attributeName="y" from="47" to="123" dur="0.281" begin="animate11.end + 0.5" id="animate12" fill="freeze"/></rect><rect x="107" y="114" width="62" height="19" id="rect-13" fill="transparent" stroke="#000000"><set attributeName="x" to="45" begin="0; animate17.end + 1s" /><animate attributeName="x" from="45" to="107" dur="0.230" begin="animate12.end + 0.5" id="animate13" fill="freeze"/></rect><rect x="149" y="127" width="22" height="79" id="rect-14" fill="transparent" stroke="#000000"><set attributeName="y" to="48" begin="0; animate17.end + 1s" /><animate attributeName="y" from="48" to="127" dur="0.293" begin="animate13.end" id="animate14" fill="freeze"/></rect><rect x="139" y="180" width="11" height="22" id="rect-15" fill="transparent" stroke="#000000"><set attributeName="x" to="150" begin="0; animate17.end + 1s" /><animate attributeName="x" from="150" to="139" dur="0.041" begin="animate14.end" id="animate15" fill="freeze"/></rect><rect x="110" y="148" width="31" height="13" id="rect-16" fill="transparent" stroke="#000000"><set attributeName="x" to="79" begin="0; animate17.end + 1s" /><animate attributeName="x" from="79" to="110" dur="0.115" begin="animate15.end + 0.5" id="animate16" fill="freeze"/></rect><rect x="109" y="174" width="40" height="14" id="rect-17" fill="transparent" stroke="#000000"><set attributeName="x" to="69" begin="0; animate17.end + 1s" /><animate attributeName="x" from="69" to="109" dur="0.148" begin="animate16.end + 0.5" id="animate17" fill="freeze"/></rect></svg>