<svg xmlns="http://www.w3.org/2000/svg" xmlns:xlink="http://www.w3.org/1999/xlink" width="270" height="270"><defs><clipPath id="clip-mask-1"><use xlink:href="#rect-1" /></clipPath><clipPath id="clip-mask-2"><use xlink:href="#rect-2" /></clipPath><clipPath id="clip-mask-3"><use xlink:href="#rect-3" /></clipPath><clipPath id="clip-mask-4"><use xlink:href="#rect-4" /></clipPath><clipPath id="clip-mask-5"><use xlink:href="#rect-5" /></clipPath><clipPath id="clip-mask-6"><use xlink:href="#rect-6" /></clipPath><clipPath id="clip-mask-7"><use xlink:href="#rect-7" /></clipPath><clipPath id="clip-mask-8"><use xlink:href="#rect-8" /></clipPath><clipPath id="clip-mask-9"><use xlink:href="#rect-9" /></clipPath><clipPath id="clip-mask-10"><use xlink:href="#rect-10" /></clipPath><clipPath id="clip-mask-11"><use xlink:href="#rect-11" /></clipPath><clipPath id="clip-mask-12"><use xlink:href="#rect-12" /></clipPath><clipPath id="clip-mask-13"><use xlink:href="#rect-13" /></clipPath><clipPath id="clip-mask-14"><use xlink:href="#rect-14" /></clipPath><clipPath id="clip-mask-15"><use xlink:href="#rect-15" /></clipPath><clipPath id="clip-mask-16"><use xlink:href="#rect-16" /></clipPath><clipPath id="clip-mask-17"><use xlink:href="#rect-17" /></clipPath><clipPath id="clip-mask-18"><use xlink:href="#rect-18" /></clipPath><clipPath id="clip-mask-19"><use xlink:href="#rect-19" /></clipPath><clipPath id="clip-mask-20"><use xlink:href="#rect-20" /></clipPath><clipPath id="clip-mask-21"><use xlink:href="#rect-21" /></clipPath></defs><path d="M 0 0 L 270 270 M 270 0 L 0 270 M 135 0 L 135 270 M 0 135 L 270 135" stroke="#CCCCCC" /><path d="M 67 130 L 67 153 Q 67 205 58 216 Q 55 220 52 216 Q 49 212 46 203 Q 45 197 47 190 Q 51 177 53 163 Q 63 84 48 46 Q 46 43 47 41 Q 49 39 52 39 Q 61 42 67 49 L 69 55 Q 68 61 68 74 L 67 82 Q 67 89 67 98 L 67 106" fill="#CCCCCC"/><path d="M 97 50 Q 93 48 69 55 Q 69 55 69 55 L 67 49 Q 83 45 97 39 Q 100 38 104 39 Q 111 43 116 46" fill="#CCCCCC"/><path d="M 95 96 Q 97 94 98 90 Q 99 75 99 57 Q 99 51 97 50 L 116 46 Q 119 49 116 54 Q 110 63 110 83 Q 109 99 106 103 Q 101 110 96 102 L 96 102" fill="#CCCCCC"/><path d="M 68 74 Q 77 70 85 70 Q 91 71 93 74 Q 95 77 90 78 Q 80 79 67 82" fill="#CCCCCC"/><path d="M 67 98 Q 74 97 83 94 Q 89 92 93 94 Q 94 95 95 96 L 96 102 Q 78 104 69 105 Q 68 106 67 106" fill="#CCCCCC"/><path d="M 164 88 L 164 88 Q 163 95 159 93 Q 152 89 152 72 Q 153 43 147 32 Q 146 30 147 29 Q 149 28 150 28 Q 155 30 160 34 L 164 42 Q 163 49 163 59 L 163 64 Q 164 73 164 81 L 164 87" fill="#CCCCCC"/><path d="M 160 34 Q 175 31 186 27 Q 199 20 205 22 Q 215 27 221 31 L 200 37 Q 197 34 193 35 Q 167 42 164 42" fill="#CCCCCC"/><path d="M 221 31 Q 224 34 221 39 Q 217 47 218 63 Q 218 158 222 218 Q 223 232 213 246 Q 210 249 208 248 Q 203 247 200 242 L 201 221 Q 208 210 204 83 L 204 77 Q 204 65 203 53 Q 203 40 200 37" fill="#CCCCCC"/><path d="M 200 242 Q 191 233 175 220 Q 174 218 180 219 Q 200 221 201 221" fill="#CCCCCC"/><path d="M 163 59 Q 181 52 188 53 Q 193 54 195 57 Q 197 59 192 60 Q 180 62 165 64 Q 164 64 163 64" fill="#CCCCCC"/><path d="M 164 81 Q 193 73 200 75 Q 202 76 204 77 L 204 83 Q 204 83 204 83 Q 188 84 166 87 Q 165 87 164 87" fill="#CCCCCC"/><path d="M 94 118 L 94 117 Q 94 114 95 114 Q 96 113 99 114 Q 113 118 114 123 Q 115 128 114 131 Q 113 133 111 133 Q 109 133 99 123" fill="#CCCCCC"/><path d="M 142 101 L 141 99 Q 140 95 143 95 Q 147 94 152 97 Q 156 101 157 103 Q 159 106 155 107 Q 147 113 131 128 Q 129 129 128 129 Q 127 128 128 126 Q 136 113 140 105" fill="#CCCCCC"/><path d="M 111 171 L 105 174 Q 101 171 100 166 Q 96 151 91 142 Q 89 139 90 138 Q 91 137 93 137 Q 97 138 100 139 L 104 144 Q 105 149 108 164" fill="#CCCCCC"/><path d="M 100 139 Q 118 135 132 131 Q 144 124 159 135 L 140 138 Q 139 137 109 143 Q 106 144 104 144" fill="#CCCCCC"/><path d="M 137 158 Q 142 140 140 138 L 159 135 Q 161 139 158 142 Q 152 146 147 159" fill="#CCCCCC"/><path d="M 113 171 L 111 171 L 108 164 Q 125 161 126 161 Q 132 159 137 158 L 147 159 Q 147 159 148 160 Q 152 162 152 163 Q 150 165 137 167 L 128 169" fill="#CCCCCC"/><path d="M 111 171 Q 114 174 116 180 Q 117 183 115 184 Q 113 186 110 189 Q 88 211 74 211 Q 73 211 74 210 Q 74 209 75 208 Q 99 190 105 174" fill="#CCCCCC"/><path d="M 137 167 Q 136 167 136 167 Q 141 170 140 174 Q 137 192 139 198 Q 140 200 144 201 L 140 212 Q 129 206 130 183 Q 130 176 128 169" fill="#CCCCCC"/><path d="M 144 201 Q 152 205 163 203 Q 168 201 170 199 L 189 199 Q 192 204 188 207 Q 170 221 146 214 Q 142 212 140 212" fill="#CCCCCC"/><path d="M 170 199 Q 173 194 178 178 Q 179 175 180 175 Q 182 176 182 179 Q 186 194 189 199" fill="#CCCCCC"/><path d="M 67 130 L 67 153 Q 67 205 58 216 Q 55 220 52 216 Q 49 212 46 203 Q 45 197 47 190 Q 51 177 53 163 Q 63 84 48 46 Q 46 43 47 41 Q 49 39 52 39 Q 61 42 67 49 L 69 55 Q 68 61 68 74 L 67 82 Q 67 89 67 98 L 67 106" fill="#0000ff" clip-path="url(#clip-mask-1)" /><path d="M 97 50 Q 93 48 69 55 Q 69 55 69 55 L 67 49 Q 83 45 97 39 Q 100 38 104 39 Q 111 43 116 46" fill="#0000ff" clip-path="url(#clip-mask-2)" /><path d="M 95 96 Q 97 94 98 90 Q 99 75 99 57 Q 99 51 97 50 L 116 46 Q 119 49 116 54 Q 110 63 110 83 Q 109 99 106 103 Q 101 110 96 102 L 96 102" fill="#0000ff" clip-path="url(#clip-mask-3)" /><path d="M 68 74 Q 77 70 85 70 Q 91 71 93 74 Q 95 77 90 78 Q 80 79 67 82" fill="#0000ff" clip-path="url(#clip-mask-4)" /><path d="M 67 98 Q 74 97 83 94 Q 89 92 93 94 Q 94 95 95 96 L 96 102 Q 78 104 69 105 Q 68 106 67 106" fill="#0000ff" clip-path="url(#clip-mask-5)" /><path d="M 164 88 L 164 88 Q 163 95 159 93 Q 152 89 152 72 Q 153 43 147 32 Q 146 30 147 29 Q 149 28 150 28 Q 155 30 160 34 L 164 42 Q 163 49 163 59 L 163 64 Q 164 73 164 81 L 164 87" fill="#0000ff" clip-path="url(#clip-mask-6)" /><path d="M 160 34 Q 175 31 186 27 Q 199 20 205 22 Q 215 27 221 31 L 200 37 Q 197 34 193 35 Q 167 42 164 42" fill="#0000ff" clip-path="url(#clip-mask-7)" /><path d="M 221 31 Q 224 34 221 39 Q 217 47 218 63 Q 218 158 222 218 Q 223 232 213 246 Q 210 249 208 248 Q 203 247 200 242 L 201 221 Q 208 210 204 83 L 204 77 Q 204 65 203 53 Q 203 40 200 37" fill="#0000ff" clip-path="url(#clip-mask-8)" /><path d="M 200 242 Q 191 233 175 220 Q 174 218 180 219 Q 200 221 201 221" fill="#0000ff" clip-path="url(#clip-mask-9)" /><path d="M 163 59 Q 181 52 188 53 Q 193 54 195 57 Q 197 59 192 60 Q 180 62 165 64 Q 164 64 163 64" fill="#0000ff" clip-path="url(#clip-mask-10)" /><path d="M 164 81 Q 193 73 200 75 Q 202 76 204 77 L 204 83 Q 204 83 204 83 Q 188 84 166 87 Q 165 87 164 87" fill="#0000ff" clip-path="url(#clip-mask-11)" /><path d="M 94 118 L 94 117 Q 94 114 95 114 Q 96 113 99 114 Q 113 118 114 123 Q 115 128 114 131 Q 113 133 111 133 Q 109 133 99 123" fill="#000080" clip-path="url(#clip-mask-12)" /><path d="M 142 101 L 141 99 Q 140 95 143 95 Q 147 94 152 97 Q 156 101 157 103 Q 159 106 155 107 Q 147 113 131 128 Q 129 129 128 129 Q 127 128 128 126 Q 136 113 140 105" fill="#000080" clip-path="url(#clip-mask-13)" /><path d="M 111 171 L 105 174 Q 101 171 100 166 Q 96 151 91 142 Q 89 139 90 138 Q 91 137 93 137 Q 97 138 100 139 L 104 144 Q 105 149 108 164" fill="#000080" clip-path="url(#clip-mask-14)" /><path d="M 100 139 Q 118 135 132 131 Q 144 124 159 135 L 140 138 Q 139 137 109 143 Q 106 144 104 144" fill="#000080" clip-path="url(#clip-mask-15)" /><path d="M 137 158 Q 142 140 140 138 L 159 135 Q 161 139 158 142 Q 152 146 147 159" fill="#000080" clip-path="url(#clip-mask-16)" /><path d="M 113 171 L 111 171 L 108 164 Q 125 161 126 161 Q 132 159 137 158 L 147 159 Q 147 159 148 160 Q 152 162 152 163 Q 150 165 137 167 L 128 169" fill="#000080" clip-path="url(#clip-mask-17)" /><path d="M 111 171 Q 114 174 116 180 Q 117 183 115 184 Q 113 186 110 189 Q 88 211 74 211 Q 73 211 74 210 Q 74 209 75 208 Q 99 190 105 174" fill="#000080" clip-path="url(#clip-mask-18)" /><path d="M 137 167 Q 136 167 136 167 Q 141 170 140 174 Q 137 192 139 198 Q 140 200 144 201 L 140 212 Q 129 206 130 183 Q 130 176 128 169" fill="#000080" clip-path="url(#clip-mask-19)" /><path d="M 144 201 Q 152 205 163 203 Q 168 201 170 199 L 189 199 Q 192 204 188 207 Q 170 221 146 214 Q 142 212 140 212" fill="#000080" clip-path="url(#clip-mask-20)" /><path d="M 170 199 Q 173 194 178 178 Q 179 175 180 175 Q 182 176 182 179 Q 186 194 189 199" fill="#000080" clip-path="url(#clip-mask-21)" /><rect x="45" y="39" width="24" height="181" id="rect-1" fill="transparent" stroke="#000000"><animate attributeName="y" from="-142" to="39" dur="0.670" begin="0; animate21.end + 1s" id="animate1" fill="freeze"/></rect><rect x="67" y="38" width="49" height="17" id="rect-2" fill="transparent" stroke="#000000"><set attributeName="x" to="18" begin="0; animate21.end + 1s" /><animate attributeName="x" from="18" to="67" dur="0.181" begin="animate1.end + 0.5" id="animate2" fill="freeze"/></rect><rect x="95" y="46" width="24" height="64" id="rect-3" fill="transparent" stroke="#000000"><set attributeName="y" to="-18" begin="0; animate21.end + 1s" /><animate attributeName="y" from="-18" to="46" dur="0.237" begin="animate2.end" id="animate3" fill="freeze"/></rect><rect x="67" y="70" width="28" height="12" id="rect-4" fill="transparent" stroke="#000000"><set attributeName="x" to="39" begin="0; animate21.end + 1s" /><animate attributeName="x" from="39" to="67" dur="0.104" begin="animate3.end + 0.5" id="animate4" fill="freeze"/></rect><rect x="67" y="92" width="29" height="14" id="rect-5" fill="transparent" stroke="#000000"><set attributeName="x" to="38" begin="0; animate21.end + 1s" /><animate attributeName="x" from="38" to="67" dur="0.107" begin="animate4.end + 0.5" id="animate5" fill="freeze"/></rect><rect x="146" y="28" width="18" height="67" id="rect-6" fill="transparent" stroke="#000000"><set attributeName="y" to="-39" begin="0; animate21.end + 1s" /><animate attributeName="y" from="-39" to="28" dur="0.248" begin="animate5.end + 0.5" id="animate6" fill="freeze"/></rect><rect x="160" y="20" width="61" height="22" id="rect-7" fill="transparent" stroke="#000000"><set attributeName="x" to="99" begin="0; animate21.end + 1s" /><animate attributeName="x" from="99" to="160" dur="0.226" begin="animate6.end + 0.5" id="animate7" fill="freeze"/></rect><rect x="200" y="31" width="24" height="218" id="rect-8" fill="transparent" stroke="#000000"><set attributeName="y" to="-187" begin="0; animate21.end + 1s" /><animate attributeName="y" from="-187" to="31" dur="0.807" begin="animate7.end" id="animate8" fill="freeze"/></rect><rect x="174" y="218" width="27" height="24" id="rect-9" fill="transparent" stroke="#000000"><set attributeName="x" to="201" begin="0; animate21.end + 1s" /><animate attributeName="x" from="201" to="174" dur="0.100" begin="animate8.end" id="animate9" fill="freeze"/></rect><rect x="163" y="52" width="34" height="12" id="rect-10" fill="transparent" stroke="#000000"><set attributeName="x" to="129" begin="0; animate21.end + 1s" /><animate attributeName="x" from="129" to="163" dur="0.126" begin="animate9.end + 0.5" id="animate10" fill="freeze"/></rect><rect x="164" y="73" width="40" height="14" id="rect-11" fill="transparent" stroke="#000000"><set attributeName="x" to="124" begin="0; animate21.end + 1s" /><animate attributeName="x" from="124" to="164" dur="0.148" begin="animate10.end + 0.5" id="animate11" fill="freeze"/></rect><rect x="94" y="113" width="21" height="20" id="rect-12" fill="transparent" stroke="#000000"><set attributeName="x" to="73" begin="0; animate21.end + 1s" /><animate attributeName="x" from="73" to="94" dur="0.078" begin="animate11.end + 0.5" id="animate12" fill="freeze"/></rect><rect x="127" y="94" width="32" height="35" id="rect-13" fill="transparent" stroke="#000000"><set attributeName="y" to="59" begin="0; animate21.end + 1s" /><animate attributeName="y" from="59" to="94" dur="0.130" begin="animate12.end + 0.5" id="animate13" fill="freeze"/></rect><rect x="89" y="137" width="22" height="37" id="rect-14" fill="transparent" stroke="#000000"><set attributeName="y" to="100" begin="0; animate21.end + 1s" /><animate attributeName="y" from="100" to="137" dur="0.137" begin="animate13.end + 0.5" id="animate14" fill="freeze"/></rect><rect x="100" y="124" width="59" height="20" id="rect-15" fill="transparent" stroke="#000000"><set attributeName="x" to="41" begin="0; animate21.end + 1s" /><animate attributeName="x" from="41" to="100" dur="0.219" begin="animate14.end + 0.5" id="animate15" fill="freeze"/></rect><rect x="137" y="135" width="24" height="24" id="rect-16" fill="transparent" stroke="#000000"><set attributeName="y" to="111" begin="0; animate21.end + 1s" /><animate attributeName="y" from="111" to="135" dur="0.089" begin="animate15.end" id="animate16" fill="freeze"/></rect><rect x="108" y="158" width="44" height="13" id="rect-17" fill="transparent" stroke="#000000"><set attributeName="x" to="64" begin="0; animate21.end + 1s" /><animate attributeName="x" from="64" to="108" dur="0.163" begin="animate16.end + 0.5" id="animate17" fill="freeze"/></rect><rect x="73" y="171" width="44" height="40" id="rect-18" fill="transparent" stroke="#000000"><set attributeName="y" to="131" begin="0; animate21.end + 1s" /><animate attributeName="y" from="131" to="171" dur="0.148" begin="animate17.end + 0.5" id="animate18" fill="freeze"/></rect><rect x="128" y="167" width="16" height="45" id="rect-19" fill="transparent" stroke="#000000"><set attributeName="y" to="122" begin="0; animate21.end + 1s" /><animate attributeName="y" from="122" to="167" dur="0.167" begin="animate18.end + 0.5" id="animate19" fill="freeze"/></rect><rect x="140" y="199" width="52" height="22" id="rect-20" fill="transparent" stroke="#000000"><set attributeName="x" to="88" begin="0; animate21.end + 1s" /><animate attributeName="x" from="88" to="140" dur="0.193" begin="animate19.end" id="animate20" fill="freeze"/></rect><rect x="170" y="175" width="19" height="24" id="rect-21" fill="transparent" stroke="#000000"><set attributeName="y" to="199" begin="0; animate21.end + 1s" /><animate attributeName="y" from="199" to="175" dur="0.089" begin="animate20.end" id="animate21" fill="freeze"/></rect></svg>