<svg xmlns="http://www.w3.org/2000/svg" xmlns:xlink="http://www.w3.org/1999/xlink" width="270" height="270"><defs><clipPath id="clip-mask-1"><use xlink:href="#rect-1" /></clipPath><clipPath id="clip-mask-2"><use xlink:href="#rect-2" /></clipPath><clipPath id="clip-mask-3"><use xlink:href="#rect-3" /></clipPath><clipPath id="clip-mask-4"><use xlink:href="#rect-4" /></clipPath><clipPath id="clip-mask-5"><use xlink:href="#rect-5" /></clipPath><clipPath id="clip-mask-6"><use xlink:href="#rect-6" /></clipPath><clipPath id="clip-mask-7"><use xlink:href="#rect-7" /></clipPath><clipPath id="clip-mask-8"><use xlink:href="#rect-8" /></clipPath><clipPath id="clip-mask-9"><use xlink:href="#rect-9" /></clipPath><clipPath id="clip-mask-10"><use xlink:href="#rect-10" /></clipPath><clipPath id="clip-mask-11"><use xlink:href="#rect-11" /></clipPath></defs><path d="M 0 0 L 270 270 M 270 0 L 0 270 M 135 0 L 135 270 M 0 135 L 270 135" stroke="#CCCCCC" /><path d="M 67 51 L 82 40 Q 85 37 91 40 Q 102 45 105 50 Q 108 54 102 58 L 82 57 Q 78 54 73 57 Q 62 62 50 65 L 47 56" fill="#CCCCCC"/><path d="M 102 58 Q 94 63 78 85 L 69 85 Q 74 74 80 64 Q 83 59 82 57" fill="#CCCCCC"/><path d="M 78 85 Q 76 88 77 92 Q 78 94 82 99 Q 92 108 97 120 Q 102 130 100 137 Q 98 144 95 146 Q 92 150 88 147 L 82 126 Q 85 121 69 97 Q 65 92 69 85" fill="#CCCCCC"/><path d="M 88 147 Q 73 139 57 133 Q 49 130 56 129 Q 65 128 73 129 Q 80 129 82 126" fill="#CCCCCC"/><path d="M 50 65 Q 47 83 47 171 Q 47 218 38 229 Q 36 233 32 229 Q 29 226 26 216 Q 25 210 27 203 Q 39 166 37 91 Q 37 72 29 55 Q 27 52 28 50 Q 30 48 33 48 Q 40 50 47 56 Q 47 56 47 56" fill="#CCCCCC"/><path d="M 144 36 L 143 33 Q 142 28 144 27 Q 151 26 171 36 Q 181 41 182 47 Q 184 57 182 62 Q 180 66 177 66 Q 172 65 167 61 Q 159 52 152 44" fill="#CCCCCC"/><path d="M 141 105 Q 127 108 114 112 Q 104 116 94 108 Q 90 103 96 102 Q 181 88 214 79 Q 224 76 239 86 Q 244 89 243 93 Q 241 96 225 96 Q 204 97 187 98 Q 157 101 156 102" fill="#CCCCCC"/><path d="M 134 179 L 105 200 Q 89 212 70 220 Q 67 221 65 220 Q 63 219 65 217 Q 93 196 103 184 Q 104 183 105 183 Q 143 143 141 105 L 156 102 Q 163 106 164 109 Q 166 112 164 115 Q 161 119 158 123 L 155 131" fill="#CCCCCC"/><path d="M 158 123 Q 178 127 185 127 Q 195 124 207 135 L 179 136 Q 160 134 155 131" fill="#CCCCCC"/><path d="M 207 135 Q 213 142 213 145 Q 213 148 209 149 Q 205 153 189 202 Q 179 229 168 236 Q 157 243 153 241 L 160 215 Q 168 213 176 192 Q 193 149 188 141 Q 186 137 179 136" fill="#CCCCCC"/><path d="M 153 241 Q 150 239 149 234 Q 148 225 137 212 Q 132 208 134 206 Q 136 204 145 210 Q 156 216 160 215" fill="#CCCCCC"/><path d="M 67 51 L 82 40 Q 85 37 91 40 Q 102 45 105 50 Q 108 54 102 58 L 82 57 Q 78 54 73 57 Q 62 62 50 65 L 47 56" fill="#0000ff" clip-path="url(#clip-mask-1)" /><path d="M 102 58 Q 94 63 78 85 L 69 85 Q 74 74 80 64 Q 83 59 82 57" fill="#0000ff" clip-path="url(#clip-mask-2)" /><path d="M 78 85 Q 76 88 77 92 Q 78 94 82 99 Q 92 108 97 120 Q 102 130 100 137 Q 98 144 95 146 Q 92 150 88 147 L 82 126 Q 85 121 69 97 Q 65 92 69 85" fill="#0000ff" clip-path="url(#clip-mask-3)" /><path d="M 88 147 Q 73 139 57 133 Q 49 130 56 129 Q 65 128 73 129 Q 80 129 82 126" fill="#0000ff" clip-path="url(#clip-mask-4)" /><path d="M 50 65 Q 47 83 47 171 Q 47 218 38 229 Q 36 233 32 229 Q 29 226 26 216 Q 25 210 27 203 Q 39 166 37 91 Q 37 72 29 55 Q 27 52 28 50 Q 30 48 33 48 Q 40 50 47 56 Q 47 56 47 56" fill="#0000ff" clip-path="url(#clip-mask-5)" /><path d="M 144 36 L 143 33 Q 142 28 144 27 Q 151 26 171 36 Q 181 41 182 47 Q 184 57 182 62 Q 180 66 177 66 Q 172 65 167 61 Q 159 52 152 44" fill="#000080" clip-path="url(#clip-mask-6)" /><path d="M 141 105 Q 127 108 114 112 Q 104 116 94 108 Q 90 103 96 102 Q 181 88 214 79 Q 224 76 239 86 Q 244 89 243 93 Q 241 96 225 96 Q 204 97 187 98 Q 157 101 156 102" fill="#000080" clip-path="url(#clip-mask-7)" /><path d="M 134 179 L 105 200 Q 89 212 70 220 Q 67 221 65 220 Q 63 219 65 217 Q 93 196 103 184 Q 104 183 105 183 Q 143 143 141 105 L 156 102 Q 163 106 164 109 Q 166 112 164 115 Q 161 119 158 123 L 155 131" fill="#000080" clip-path="url(#clip-mask-8)" /><path d="M 158 123 Q 178 127 185 127 Q 195 124 207 135 L 179 136 Q 160 134 155 131" fill="#000080" clip-path="url(#clip-mask-9)" /><path d="M 207 135 Q 213 142 213 145 Q 213 148 209 149 Q 205 153 189 202 Q 179 229 168 236 Q 157 243 153 241 L 160 215 Q 168 213 176 192 Q 193 149 188 141 Q 186 137 179 136" fill="#000080" clip-path="url(#clip-mask-10)" /><path d="M 153 241 Q 150 239 149 234 Q 148 225 137 212 Q 132 208 134 206 Q 136 204 145 210 Q 156 216 160 215" fill="#000080" clip-path="url(#clip-mask-11)" /><rect x="47" y="37" width="61" height="28" id="rect-1" fill="transparent" stroke="#000000"><animate attributeName="x" from="-14" to="47" dur="0.226" begin="0; animate11.end + 1s" id="animate1" fill="freeze"/></rect><rect x="69" y="57" width="33" height="28" id="rect-2" fill="transparent" stroke="#000000"><set attributeName="y" to="29" begin="0; animate11.end + 1s" /><animate attributeName="y" from="29" to="57" dur="0.104" begin="animate1.end" id="animate2" fill="freeze"/></rect><rect x="65" y="85" width="37" height="65" id="rect-3" fill="transparent" stroke="#000000"><set attributeName="y" to="20" begin="0; animate11.end + 1s" /><animate attributeName="y" from="20" to="85" dur="0.241" begin="animate2.end" id="animate3" fill="freeze"/></rect><rect x="49" y="126" width="39" height="21" id="rect-4" fill="transparent" stroke="#000000"><set attributeName="x" to="88" begin="0; animate11.end + 1s" /><animate attributeName="x" from="88" to="49" dur="0.144" begin="animate3.end" id="animate4" fill="freeze"/></rect><rect x="25" y="48" width="25" height="185" id="rect-5" fill="transparent" stroke="#000000"><set attributeName="y" to="-137" begin="0; animate11.end + 1s" /><animate attributeName="y" from="-137" to="48" dur="0.685" begin="animate4.end + 0.5" id="animate5" fill="freeze"/></rect><rect x="142" y="26" width="42" height="40" id="rect-6" fill="transparent" stroke="#000000"><set attributeName="x" to="100" begin="0; animate11.end + 1s" /><animate attributeName="x" from="100" to="142" dur="0.156" begin="animate5.end + 0.5" id="animate6" fill="freeze"/></rect><rect x="90" y="76" width="154" height="40" id="rect-7" fill="transparent" stroke="#000000"><set attributeName="x" to="-64" begin="0; animate11.end + 1s" /><animate attributeName="x" from="-64" to="90" dur="0.570" begin="animate6.end + 0.5" id="animate7" fill="freeze"/></rect><rect x="63" y="102" width="103" height="119" id="rect-8" fill="transparent" stroke="#000000"><set attributeName="y" to="-17" begin="0; animate11.end + 1s" /><animate attributeName="y" from="-17" to="102" dur="0.441" begin="animate7.end + 0.5" id="animate8" fill="freeze"/></rect><rect x="155" y="123" width="52" height="13" id="rect-9" fill="transparent" stroke="#000000"><set attributeName="x" to="103" begin="0; animate11.end + 1s" /><animate attributeName="x" from="103" to="155" dur="0.193" begin="animate8.end + 0.5" id="animate9" fill="freeze"/></rect><rect x="153" y="135" width="60" height="108" id="rect-10" fill="transparent" stroke="#000000"><set attributeName="y" to="27" begin="0; animate11.end + 1s" /><animate attributeName="y" from="27" to="135" dur="0.400" begin="animate9.end" id="animate10" fill="freeze"/></rect><rect x="132" y="204" width="28" height="37" id="rect-11" fill="transparent" stroke="#000000"><set attributeName="x" to="160" begin="0; animate11.end + 1s" /><animate attributeName="x" from="160" to="132" dur="0.104" begin="animate10.end" id="animate11" fill="freeze"/></rect></svg>