<svg xmlns="http://www.w3.org/2000/svg" xmlns:xlink="http://www.w3.org/1999/xlink" width="270" height="270"><defs><clipPath id="clip-mask-1"><use xlink:href="#rect-1" /></clipPath><clipPath id="clip-mask-2"><use xlink:href="#rect-2" /></clipPath><clipPath id="clip-mask-3"><use xlink:href="#rect-3" /></clipPath><clipPath id="clip-mask-4"><use xlink:href="#rect-4" /></clipPath><clipPath id="clip-mask-5"><use xlink:href="#rect-5" /></clipPath><clipPath id="clip-mask-6"><use xlink:href="#rect-6" /></clipPath><clipPath id="clip-mask-7"><use xlink:href="#rect-7" /></clipPath><clipPath id="clip-mask-8"><use xlink:href="#rect-8" /></clipPath><clipPath id="clip-mask-9"><use xlink:href="#rect-9" /></clipPath><clipPath id="clip-mask-10"><use xlink:href="#rect-10" /></clipPath><clipPath id="clip-mask-11"><use xlink:href="#rect-11" /></clipPath><clipPath id="clip-mask-12"><use xlink:href="#rect-12" /></clipPath><clipPath id="clip-mask-13"><use xlink:href="#rect-13" /></clipPath></defs><path d="M 0 0 L 270 270 M 270 0 L 0 270 M 135 0 L 135 270 M 0 135 L 270 135" stroke="#CCCCCC" /><path d="M 55 52 L 66 43 Q 70 40 75 42 Q 84 46 88 51 Q 90 54 86 58 L 66 58 Q 64 55 60 58 Q 50 63 42 65 L 40 57" fill="#CCCCCC"/><path d="M 86 58 Q 80 61 72 74 Q 62 87 69 93 L 58 93 Q 55 88 58 82 Q 61 73 66 64 Q 68 59 66 58" fill="#CCCCCC"/><path d="M 69 93 Q 87 115 83 130 Q 81 136 78 138 Q 75 141 71 138 L 67 118 Q 71 114 58 93" fill="#CCCCCC"/><path d="M 71 138 Q 60 130 47 124 Q 40 121 46 121 Q 54 121 60 121 Q 66 121 67 118" fill="#CCCCCC"/><path d="M 42 65 Q 40 80 40 148 Q 40 210 31 221 Q 29 225 25 221 Q 22 217 20 208 Q 18 203 20 195 Q 25 182 26 170 Q 37 90 22 55 Q 20 52 21 51 Q 22 49 25 49 Q 34 51 40 57" fill="#CCCCCC"/><path d="M 146 62 L 145 64 Q 108 127 91 132 Q 87 133 88 130 Q 88 128 91 125 Q 107 104 118 85 Q 129 65 136 44 Q 138 37 135 31 Q 132 25 137 24 Q 142 24 149 28 Q 157 34 158 37 Q 160 40 157 44 Q 154 47 150 54 L 147 61" fill="#CCCCCC"/><path d="M 150 54 Q 150 55 151 55 Q 182 84 194 91 Q 201 95 247 115 Q 251 117 250 118 Q 250 120 245 120 Q 226 123 208 121 Q 198 120 193 114 Q 168 88 147 61" fill="#CCCCCC"/><path d="M 135 127 Q 123 129 114 126 Q 108 122 117 119 Q 127 118 135 115 Q 143 113 149 110 Q 157 106 164 107 Q 172 108 174 111 Q 176 113 173 115 Q 172 116 166 118 Q 155 121 146 124" fill="#CCCCCC"/><path d="M 138 159 Q 119 161 104 166 Q 100 167 95 166 Q 92 165 88 162 Q 84 158 89 158 Q 116 153 138 150 L 153 147 Q 165 144 175 142 Q 190 137 204 146 Q 208 149 207 152 Q 205 154 193 154 Q 169 155 152 157" fill="#CCCCCC"/><path d="M 138 207 Q 138 177 138 159 L 138 150 Q 137 130 135 127 L 146 124 Q 152 127 153 130 Q 155 133 153 139 Q 153 143 153 147 L 152 157 Q 152 172 153 197 Q 155 226 144 241 Q 140 245 137 243" fill="#CCCCCC"/><path d="M 133 219 L 135 217 Q 138 214 138 207 L 137 243 Q 129 232 117 219 Q 114 217 114 215 Q 114 213 117 214 Q 122 215 127 217" fill="#CCCCCC"/><path d="M 98 176 L 100 176 Q 102 177 103 179 Q 104 185 102 194 Q 100 213 87 220 Q 81 223 80 219 Q 76 210 82 202 Q 90 191 97 179" fill="#CCCCCC"/><path d="M 169 181 L 170 177 Q 170 175 172 176 Q 209 189 212 202 Q 216 214 212 217 Q 210 220 208 219 Q 204 218 200 213 Q 185 196 172 184" fill="#CCCCCC"/><path d="M 55 52 L 66 43 Q 70 40 75 42 Q 84 46 88 51 Q 90 54 86 58 L 66 58 Q 64 55 60 58 Q 50 63 42 65 L 40 57" fill="#0000ff" clip-path="url(#clip-mask-1)" /><path d="M 86 58 Q 80 61 72 74 Q 62 87 69 93 L 58 93 Q 55 88 58 82 Q 61 73 66 64 Q 68 59 66 58" fill="#0000ff" clip-path="url(#clip-mask-2)" /><path d="M 69 93 Q 87 115 83 130 Q 81 136 78 138 Q 75 141 71 138 L 67 118 Q 71 114 58 93" fill="#0000ff" clip-path="url(#clip-mask-3)" /><path d="M 71 138 Q 60 130 47 124 Q 40 121 46 121 Q 54 121 60 121 Q 66 121 67 118" fill="#0000ff" clip-path="url(#clip-mask-4)" /><path d="M 42 65 Q 40 80 40 148 Q 40 210 31 221 Q 29 225 25 221 Q 22 217 20 208 Q 18 203 20 195 Q 25 182 26 170 Q 37 90 22 55 Q 20 52 21 51 Q 22 49 25 49 Q 34 51 40 57" fill="#0000ff" clip-path="url(#clip-mask-5)" /><path d="M 146 62 L 145 64 Q 108 127 91 132 Q 87 133 88 130 Q 88 128 91 125 Q 107 104 118 85 Q 129 65 136 44 Q 138 37 135 31 Q 132 25 137 24 Q 142 24 149 28 Q 157 34 158 37 Q 160 40 157 44 Q 154 47 150 54 L 147 61" fill="#000080" clip-path="url(#clip-mask-6)" /><path d="M 150 54 Q 150 55 151 55 Q 182 84 194 91 Q 201 95 247 115 Q 251 117 250 118 Q 250 120 245 120 Q 226 123 208 121 Q 198 120 193 114 Q 168 88 147 61" fill="#000080" clip-path="url(#clip-mask-7)" /><path d="M 135 127 Q 123 129 114 126 Q 108 122 117 119 Q 127 118 135 115 Q 143 113 149 110 Q 157 106 164 107 Q 172 108 174 111 Q 176 113 173 115 Q 172 116 166 118 Q 155 121 146 124" fill="#000080" clip-path="url(#clip-mask-8)" /><path d="M 138 159 Q 119 161 104 166 Q 100 167 95 166 Q 92 165 88 162 Q 84 158 89 158 Q 116 153 138 150 L 153 147 Q 165 144 175 142 Q 190 137 204 146 Q 208 149 207 152 Q 205 154 193 154 Q 169 155 152 157" fill="#000080" clip-path="url(#clip-mask-9)" /><path d="M 138 207 Q 138 177 138 159 L 138 150 Q 137 130 135 127 L 146 124 Q 152 127 153 130 Q 155 133 153 139 Q 153 143 153 147 L 152 157 Q 152 172 153 197 Q 155 226 144 241 Q 140 245 137 243" fill="#000080" clip-path="url(#clip-mask-10)" /><path d="M 133 219 L 135 217 Q 138 214 138 207 L 137 243 Q 129 232 117 219 Q 114 217 114 215 Q 114 213 117 214 Q 122 215 127 217" fill="#000080" clip-path="url(#clip-mask-11)" /><path d="M 98 176 L 100 176 Q 102 177 103 179 Q 104 185 102 194 Q 100 213 87 220 Q 81 223 80 219 Q 76 210 82 202 Q 90 191 97 179" fill="#000080" clip-path="url(#clip-mask-12)" /><path d="M 169 181 L 170 177 Q 170 175 172 176 Q 209 189 212 202 Q 216 214 212 217 Q 210 220 208 219 Q 204 218 200 213 Q 185 196 172 184" fill="#000080" clip-path="url(#clip-mask-13)" /><rect x="40" y="40" width="50" height="25" id="rect-1" fill="transparent" stroke="#000000"><animate attributeName="x" from="-10" to="40" dur="0.185" begin="0; animate13.end + 1s" id="animate1" fill="freeze"/></rect><rect x="55" y="58" width="31" height="35" id="rect-2" fill="transparent" stroke="#000000"><set attributeName="y" to="23" begin="0; animate13.end + 1s" /><animate attributeName="y" from="23" to="58" dur="0.130" begin="animate1.end" id="animate2" fill="freeze"/></rect><rect x="58" y="93" width="29" height="48" id="rect-3" fill="transparent" stroke="#000000"><set attributeName="y" to="45" begin="0; animate13.end + 1s" /><animate attributeName="y" from="45" to="93" dur="0.178" begin="animate2.end" id="animate3" fill="freeze"/></rect><rect x="40" y="118" width="31" height="20" id="rect-4" fill="transparent" stroke="#000000"><set attributeName="x" to="71" begin="0; animate13.end + 1s" /><animate attributeName="x" from="71" to="40" dur="0.115" begin="animate3.end" id="animate4" fill="freeze"/></rect><rect x="18" y="49" width="24" height="176" id="rect-5" fill="transparent" stroke="#000000"><set attributeName="y" to="-127" begin="0; animate13.end + 1s" /><animate attributeName="y" from="-127" to="49" dur="0.652" begin="animate4.end + 0.5" id="animate5" fill="freeze"/></rect><rect x="87" y="24" width="73" height="109" id="rect-6" fill="transparent" stroke="#000000"><set attributeName="y" to="-85" begin="0; animate13.end + 1s" /><animate attributeName="y" from="-85" to="24" dur="0.404" begin="animate5.end + 0.5" id="animate6" fill="freeze"/></rect><rect x="147" y="54" width="104" height="69" id="rect-7" fill="transparent" stroke="#000000"><set attributeName="x" to="43" begin="0; animate13.end + 1s" /><animate attributeName="x" from="43" to="147" dur="0.385" begin="animate6.end + 0.5" id="animate7" fill="freeze"/></rect><rect x="108" y="106" width="68" height="23" id="rect-8" fill="transparent" stroke="#000000"><set attributeName="x" to="40" begin="0; animate13.end + 1s" /><animate attributeName="x" from="40" to="108" dur="0.252" begin="animate7.end + 0.5" id="animate8" fill="freeze"/></rect><rect x="84" y="137" width="124" height="30" id="rect-9" fill="transparent" stroke="#000000"><set attributeName="x" to="-40" begin="0; animate13.end + 1s" /><animate attributeName="x" from="-40" to="84" dur="0.459" begin="animate8.end + 0.5" id="animate9" fill="freeze"/></rect><rect x="135" y="124" width="20" height="121" id="rect-10" fill="transparent" stroke="#000000"><set attributeName="y" to="3" begin="0; animate13.end + 1s" /><animate attributeName="y" from="3" to="124" dur="0.448" begin="animate9.end + 0.5" id="animate10" fill="freeze"/></rect><rect x="114" y="207" width="24" height="36" id="rect-11" fill="transparent" stroke="#000000"><set attributeName="x" to="138" begin="0; animate13.end + 1s" /><animate attributeName="x" from="138" to="114" dur="0.089" begin="animate10.end" id="animate11" fill="freeze"/></rect><rect x="76" y="176" width="28" height="47" id="rect-12" fill="transparent" stroke="#000000"><set attributeName="y" to="129" begin="0; animate13.end + 1s" /><animate attributeName="y" from="129" to="176" dur="0.174" begin="animate11.end + 0.5" id="animate12" fill="freeze"/></rect><rect x="169" y="175" width="47" height="45" id="rect-13" fill="transparent" stroke="#000000"><set attributeName="x" to="122" begin="0; animate13.end + 1s" /><animate attributeName="x" from="122" to="169" dur="0.174" begin="animate12.end + 0.5" id="animate13" fill="freeze"/></rect></svg>