<svg xmlns="http://www.w3.org/2000/svg" xmlns:xlink="http://www.w3.org/1999/xlink" width="270" height="270"><defs><clipPath id="clip-mask-1"><use xlink:href="#rect-1" /></clipPath><clipPath id="clip-mask-2"><use xlink:href="#rect-2" /></clipPath><clipPath id="clip-mask-3"><use xlink:href="#rect-3" /></clipPath><clipPath id="clip-mask-4"><use xlink:href="#rect-4" /></clipPath><clipPath id="clip-mask-5"><use xlink:href="#rect-5" /></clipPath><clipPath id="clip-mask-6"><use xlink:href="#rect-6" /></clipPath><clipPath id="clip-mask-7"><use xlink:href="#rect-7" /></clipPath><clipPath id="clip-mask-8"><use xlink:href="#rect-8" /></clipPath><clipPath id="clip-mask-9"><use xlink:href="#rect-9" /></clipPath><clipPath id="clip-mask-10"><use xlink:href="#rect-10" /></clipPath><clipPath id="clip-mask-11"><use xlink:href="#rect-11" /></clipPath><clipPath id="clip-mask-12"><use xlink:href="#rect-12" /></clipPath><clipPath id="clip-mask-13"><use xlink:href="#rect-13" /></clipPath><clipPath id="clip-mask-14"><use xlink:href="#rect-14" /></clipPath><clipPath id="clip-mask-15"><use xlink:href="#rect-15" /></clipPath><clipPath id="clip-mask-16"><use xlink:href="#rect-16" /></clipPath><clipPath id="clip-mask-17"><use xlink:href="#rect-17" /></clipPath><clipPath id="clip-mask-18"><use xlink:href="#rect-18" /></clipPath><clipPath id="clip-mask-19"><use xlink:href="#rect-19" /></clipPath><clipPath id="clip-mask-20"><use xlink:href="#rect-20" /></clipPath><clipPath id="clip-mask-21"><use xlink:href="#rect-21" /></clipPath><clipPath id="clip-mask-22"><use xlink:href="#rect-22" /></clipPath><clipPath id="clip-mask-23"><use xlink:href="#rect-23" /></clipPath><clipPath id="clip-mask-24"><use xlink:href="#rect-24" /></clipPath><clipPath id="clip-mask-25"><use xlink:href="#rect-25" /></clipPath><clipPath id="clip-mask-26"><use xlink:href="#rect-26" /></clipPath><clipPath id="clip-mask-27"><use xlink:href="#rect-27" /></clipPath><clipPath id="clip-mask-28"><use xlink:href="#rect-28" /></clipPath></defs><path d="M 0 0 L 270 270 M 270 0 L 0 270 M 135 0 L 135 270 M 0 135 L 270 135" stroke="#CCCCCC" /><path d="M 122 45 Q 121 45 121 45 Q 108 48 98 43 Q 91 39 100 37 Q 113 36 138 31 Q 166 23 171 24 Q 178 26 180 28 Q 180 30 179 32 Q 176 34 132 43" fill="#CCCCCC"/><path d="M 62 80 Q 59 86 56 97 Q 53 105 49 111 Q 46 117 41 111 Q 35 98 39 92 Q 53 78 52 68 Q 52 61 57 65 Q 59 67 62 72" fill="#CCCCCC"/><path d="M 107 72 L 77 81 Q 68 82 62 80 L 62 72 Q 78 71 93 68 Q 111 65 126 64 L 138 62 Q 157 59 190 55 Q 213 51 218 56 L 201 64 Q 193 62 138 69 L 126 71" fill="#CCCCCC"/><path d="M 218 56 Q 236 70 237 72 Q 237 75 228 77 Q 217 80 203 89 Q 198 92 196 91 Q 194 90 203 72 Q 204 70 204 68 Q 205 66 201 64" fill="#CCCCCC"/><path d="M 126 64 Q 125 52 122 46 Q 122 45 122 45 L 132 43 Q 134 44 136 45 Q 140 48 139 53 Q 138 57 138 62 L 138 69 Q 137 77 137 81 Q 137 106 134 113 Q 132 116 129 113 Q 123 105 124 98 Q 127 76 126 71" fill="#CCCCCC"/><path d="M 81 90 L 81 89 Q 80 86 82 86 Q 85 84 95 84 Q 100 83 104 85 Q 108 88 109 90 Q 110 94 107 95 Q 103 97 84 91" fill="#CCCCCC"/><path d="M 80 108 L 80 106 Q 79 104 81 104 Q 85 103 94 103 Q 100 103 103 105 Q 106 108 107 111 Q 107 115 105 116 Q 100 117 82 109" fill="#CCCCCC"/><path d="M 149 82 L 149 80 Q 148 78 150 77 Q 153 76 162 76 Q 167 75 171 77 Q 174 80 175 83 Q 176 87 173 88 Q 168 91 152 83" fill="#CCCCCC"/><path d="M 148 102 L 147 100 Q 147 98 149 97 Q 164 96 170 100 Q 173 103 174 106 Q 174 110 171 110 Q 167 111 150 103" fill="#CCCCCC"/><path d="M 72 162 L 72 165 Q 71 168 68 164 Q 65 161 64 157 Q 60 144 55 136 Q 54 132 55 131 Q 55 130 58 131 Q 61 131 64 132 L 68 137 Q 69 140 71 152 L 72 158" fill="#CCCCCC"/><path d="M 64 132 Q 82 127 87 123 Q 89 122 90 122 Q 91 122 103 128 Q 107 131 103 136 L 89 133 Q 88 132 84 133 Q 72 135 68 137" fill="#CCCCCC"/><path d="M 87 147 Q 88 143 89 139 Q 90 134 89 133 L 103 136 Q 99 138 96 149" fill="#CCCCCC"/><path d="M 71 152 Q 78 150 85 148 Q 86 147 87 147 L 96 149 Q 100 151 100 152 Q 100 154 98 154 Q 83 156 76 158 Q 74 159 72 158" fill="#CCCCCC"/><path d="M 119 152 L 119 153 Q 118 156 115 152 Q 113 150 112 146 Q 109 135 105 128 Q 104 125 105 124 Q 106 123 108 123 Q 111 124 114 125 L 117 130 Q 118 132 119 144 L 119 150" fill="#CCCCCC"/><path d="M 114 125 Q 130 121 136 117 Q 139 115 142 117 Q 147 120 150 122 Q 154 124 150 129 L 137 127 Q 136 125 132 126 Q 118 129 117 130" fill="#CCCCCC"/><path d="M 150 129 Q 147 132 144 140 L 135 140 Q 136 136 137 132 Q 138 128 137 127" fill="#CCCCCC"/><path d="M 119 144 Q 125 143 134 140 Q 134 140 135 140 L 144 140 Q 149 143 149 145 Q 148 146 147 146 Q 131 148 123 150 Q 121 151 119 150" fill="#CCCCCC"/><path d="M 167 146 L 167 148 Q 166 151 162 147 Q 160 144 160 141 Q 157 129 153 121 Q 152 118 153 117 Q 153 116 156 117 Q 158 117 160 118 L 165 123 Q 166 126 167 138 L 167 145" fill="#CCCCCC"/><path d="M 160 118 Q 166 117 178 113 Q 188 108 191 109 Q 196 113 200 115 L 186 120 Q 184 118 180 119 Q 174 121 165 123" fill="#CCCCCC"/><path d="M 183 135 Q 184 130 186 126 Q 187 121 186 120 L 200 115 Q 204 118 200 123 Q 197 125 194 134" fill="#CCCCCC"/><path d="M 167 138 Q 174 137 183 135 L 194 134 L 194 134 Q 200 138 200 139 Q 199 141 197 141 Q 179 143 171 144 Q 169 145 167 145" fill="#CCCCCC"/><path d="M 118 170 Q 109 172 101 173 Q 91 175 85 170 Q 80 167 86 166 Q 116 162 137 158 Q 158 152 166 156 Q 171 158 171 161 Q 169 163 167 163 Q 140 166 127 169" fill="#CCCCCC"/><path d="M 121 205 L 121 194 Q 120 175 118 170 L 127 169 Q 139 177 137 184 Q 135 191 135 207 L 134 211 Q 133 218 133 226 L 121 227" fill="#CCCCCC"/><path d="M 68 219 L 57 221 Q 54 221 56 218 Q 58 216 62 213 Q 79 198 79 182 Q 79 179 81 179 Q 85 179 93 186 Q 95 190 93 191 Q 89 195 86 199 L 82 204" fill="#CCCCCC"/><path d="M 86 199 L 86 199 Q 105 205 107 211 Q 108 216 108 219 Q 107 221 105 221 Q 102 221 100 219 Q 93 213 87 208 Q 83 205 82 204" fill="#CCCCCC"/><path d="M 135 207 Q 136 206 137 205 Q 160 190 161 172 Q 161 170 163 170 Q 168 170 176 179 Q 178 183 175 184 Q 170 189 164 194 L 160 198 Q 146 210 134 211" fill="#CCCCCC"/><path d="M 164 194 Q 171 196 179 197 Q 186 200 187 205 Q 189 210 189 212 Q 188 215 186 215 Q 183 215 181 213 Q 173 207 166 202 Q 161 200 160 198" fill="#CCCCCC"/><path d="M 133 226 Q 173 222 197 218 Q 207 216 221 227 Q 225 231 224 234 Q 222 237 217 237 Q 119 231 55 245 Q 50 246 45 244 Q 40 243 36 239 Q 32 234 38 234 Q 83 230 121 227" fill="#CCCCCC"/><path d="M 122 45 Q 121 45 121 45 Q 108 48 98 43 Q 91 39 100 37 Q 113 36 138 31 Q 166 23 171 24 Q 178 26 180 28 Q 180 30 179 32 Q 176 34 132 43" fill="#0000ff" clip-path="url(#clip-mask-1)" /><path d="M 62 80 Q 59 86 56 97 Q 53 105 49 111 Q 46 117 41 111 Q 35 98 39 92 Q 53 78 52 68 Q 52 61 57 65 Q 59 67 62 72" fill="#0000ff" clip-path="url(#clip-mask-2)" /><path d="M 107 72 L 77 81 Q 68 82 62 80 L 62 72 Q 78 71 93 68 Q 111 65 126 64 L 138 62 Q 157 59 190 55 Q 213 51 218 56 L 201 64 Q 193 62 138 69 L 126 71" fill="#0000ff" clip-path="url(#clip-mask-3)" /><path d="M 218 56 Q 236 70 237 72 Q 237 75 228 77 Q 217 80 203 89 Q 198 92 196 91 Q 194 90 203 72 Q 204 70 204 68 Q 205 66 201 64" fill="#0000ff" clip-path="url(#clip-mask-4)" /><path d="M 126 64 Q 125 52 122 46 Q 122 45 122 45 L 132 43 Q 134 44 136 45 Q 140 48 139 53 Q 138 57 138 62 L 138 69 Q 137 77 137 81 Q 137 106 134 113 Q 132 116 129 113 Q 123 105 124 98 Q 127 76 126 71" fill="#0000ff" clip-path="url(#clip-mask-5)" /><path d="M 81 90 L 81 89 Q 80 86 82 86 Q 85 84 95 84 Q 100 83 104 85 Q 108 88 109 90 Q 110 94 107 95 Q 103 97 84 91" fill="#0000ff" clip-path="url(#clip-mask-6)" /><path d="M 80 108 L 80 106 Q 79 104 81 104 Q 85 103 94 103 Q 100 103 103 105 Q 106 108 107 111 Q 107 115 105 116 Q 100 117 82 109" fill="#0000ff" clip-path="url(#clip-mask-7)" /><path d="M 149 82 L 149 80 Q 148 78 150 77 Q 153 76 162 76 Q 167 75 171 77 Q 174 80 175 83 Q 176 87 173 88 Q 168 91 152 83" fill="#0000ff" clip-path="url(#clip-mask-8)" /><path d="M 148 102 L 147 100 Q 147 98 149 97 Q 164 96 170 100 Q 173 103 174 106 Q 174 110 171 110 Q 167 111 150 103" fill="#0000ff" clip-path="url(#clip-mask-9)" /><path d="M 72 162 L 72 165 Q 71 168 68 164 Q 65 161 64 157 Q 60 144 55 136 Q 54 132 55 131 Q 55 130 58 131 Q 61 131 64 132 L 68 137 Q 69 140 71 152 L 72 158" fill="#000080" clip-path="url(#clip-mask-10)" /><path d="M 64 132 Q 82 127 87 123 Q 89 122 90 122 Q 91 122 103 128 Q 107 131 103 136 L 89 133 Q 88 132 84 133 Q 72 135 68 137" fill="#000080" clip-path="url(#clip-mask-11)" /><path d="M 87 147 Q 88 143 89 139 Q 90 134 89 133 L 103 136 Q 99 138 96 149" fill="#000080" clip-path="url(#clip-mask-12)" /><path d="M 71 152 Q 78 150 85 148 Q 86 147 87 147 L 96 149 Q 100 151 100 152 Q 100 154 98 154 Q 83 156 76 158 Q 74 159 72 158" fill="#000080" clip-path="url(#clip-mask-13)" /><path d="M 119 152 L 119 153 Q 118 156 115 152 Q 113 150 112 146 Q 109 135 105 128 Q 104 125 105 124 Q 106 123 108 123 Q 111 124 114 125 L 117 130 Q 118 132 119 144 L 119 150" fill="#000080" clip-path="url(#clip-mask-14)" /><path d="M 114 125 Q 130 121 136 117 Q 139 115 142 117 Q 147 120 150 122 Q 154 124 150 129 L 137 127 Q 136 125 132 126 Q 118 129 117 130" fill="#000080" clip-path="url(#clip-mask-15)" /><path d="M 150 129 Q 147 132 144 140 L 135 140 Q 136 136 137 132 Q 138 128 137 127" fill="#000080" clip-path="url(#clip-mask-16)" /><path d="M 119 144 Q 125 143 134 140 Q 134 140 135 140 L 144 140 Q 149 143 149 145 Q 148 146 147 146 Q 131 148 123 150 Q 121 151 119 150" fill="#000080" clip-path="url(#clip-mask-17)" /><path d="M 167 146 L 167 148 Q 166 151 162 147 Q 160 144 160 141 Q 157 129 153 121 Q 152 118 153 117 Q 153 116 156 117 Q 158 117 160 118 L 165 123 Q 166 126 167 138 L 167 145" fill="#000080" clip-path="url(#clip-mask-18)" /><path d="M 160 118 Q 166 117 178 113 Q 188 108 191 109 Q 196 113 200 115 L 186 120 Q 184 118 180 119 Q 174 121 165 123" fill="#000080" clip-path="url(#clip-mask-19)" /><path d="M 183 135 Q 184 130 186 126 Q 187 121 186 120 L 200 115 Q 204 118 200 123 Q 197 125 194 134" fill="#000080" clip-path="url(#clip-mask-20)" /><path d="M 167 138 Q 174 137 183 135 L 194 134 L 194 134 Q 200 138 200 139 Q 199 141 197 141 Q 179 143 171 144 Q 169 145 167 145" fill="#000080" clip-path="url(#clip-mask-21)" /><path d="M 118 170 Q 109 172 101 173 Q 91 175 85 170 Q 80 167 86 166 Q 116 162 137 158 Q 158 152 166 156 Q 171 158 171 161 Q 169 163 167 163 Q 140 166 127 169" fill="#000080" clip-path="url(#clip-mask-22)" /><path d="M 121 205 L 121 194 Q 120 175 118 170 L 127 169 Q 139 177 137 184 Q 135 191 135 207 L 134 211 Q 133 218 133 226 L 121 227" fill="#000080" clip-path="url(#clip-mask-23)" /><path d="M 68 219 L 57 221 Q 54 221 56 218 Q 58 216 62 213 Q 79 198 79 182 Q 79 179 81 179 Q 85 179 93 186 Q 95 190 93 191 Q 89 195 86 199 L 82 204" fill="#000080" clip-path="url(#clip-mask-24)" /><path d="M 86 199 L 86 199 Q 105 205 107 211 Q 108 216 108 219 Q 107 221 105 221 Q 102 221 100 219 Q 93 213 87 208 Q 83 205 82 204" fill="#000080" clip-path="url(#clip-mask-25)" /><path d="M 135 207 Q 136 206 137 205 Q 160 190 161 172 Q 161 170 163 170 Q 168 170 176 179 Q 178 183 175 184 Q 170 189 164 194 L 160 198 Q 146 210 134 211" fill="#000080" clip-path="url(#clip-mask-26)" /><path d="M 164 194 Q 171 196 179 197 Q 186 200 187 205 Q 189 210 189 212 Q 188 215 186 215 Q 183 215 181 213 Q 173 207 166 202 Q 161 200 160 198" fill="#000080" clip-path="url(#clip-mask-27)" /><path d="M 133 226 Q 173 222 197 218 Q 207 216 221 227 Q 225 231 224 234 Q 222 237 217 237 Q 119 231 55 245 Q 50 246 45 244 Q 40 243 36 239 Q 32 234 38 234 Q 83 230 121 227" fill="#000080" clip-path="url(#clip-mask-28)" /><rect x="91" y="23" width="89" height="25" id="rect-1" fill="transparent" stroke="#000000"><animate attributeName="x" from="2" to="91" dur="0.330" begin="0; animate28.end + 1s" id="animate1" fill="freeze"/></rect><rect x="35" y="61" width="27" height="56" id="rect-2" fill="transparent" stroke="#000000"><set attributeName="y" to="5" begin="0; animate28.end + 1s" /><animate attributeName="y" from="5" to="61" dur="0.207" begin="animate1.end + 0.5" id="animate2" fill="freeze"/></rect><rect x="62" y="51" width="156" height="31" id="rect-3" fill="transparent" stroke="#000000"><set attributeName="x" to="-94" begin="0; animate28.end + 1s" /><animate attributeName="x" from="-94" to="62" dur="0.578" begin="animate2.end + 0.5" id="animate3" fill="freeze"/></rect><rect x="194" y="56" width="43" height="36" id="rect-4" fill="transparent" stroke="#000000"><set attributeName="y" to="20" begin="0; animate28.end + 1s" /><animate attributeName="y" from="20" to="56" dur="0.133" begin="animate3.end" id="animate4" fill="freeze"/></rect><rect x="122" y="43" width="18" height="73" id="rect-5" fill="transparent" stroke="#000000"><set attributeName="y" to="-30" begin="0; animate28.end + 1s" /><animate attributeName="y" from="-30" to="43" dur="0.270" begin="animate4.end + 0.5" id="animate5" fill="freeze"/></rect><rect x="80" y="83" width="30" height="14" id="rect-6" fill="transparent" stroke="#000000"><set attributeName="x" to="50" begin="0; animate28.end + 1s" /><animate attributeName="x" from="50" to="80" dur="0.111" begin="animate5.end + 0.5" id="animate6" fill="freeze"/></rect><rect x="79" y="103" width="28" height="14" id="rect-7" fill="transparent" stroke="#000000"><set attributeName="x" to="51" begin="0; animate28.end + 1s" /><animate attributeName="x" from="51" to="79" dur="0.104" begin="animate6.end + 0.5" id="animate7" fill="freeze"/></rect><rect x="148" y="75" width="28" height="16" id="rect-8" fill="transparent" stroke="#000000"><set attributeName="x" to="120" begin="0; animate28.end + 1s" /><animate attributeName="x" from="120" to="148" dur="0.104" begin="animate7.end + 0.5" id="animate8" fill="freeze"/></rect><rect x="147" y="96" width="27" height="15" id="rect-9" fill="transparent" stroke="#000000"><set attributeName="x" to="120" begin="0; animate28.end + 1s" /><animate attributeName="x" from="120" to="147" dur="0.100" begin="animate8.end + 0.5" id="animate9" fill="freeze"/></rect><rect x="54" y="130" width="18" height="38" id="rect-10" fill="transparent" stroke="#000000"><set attributeName="y" to="92" begin="0; animate28.end + 1s" /><animate attributeName="y" from="92" to="130" dur="0.141" begin="animate9.end + 0.5" id="animate10" fill="freeze"/></rect><rect x="64" y="122" width="43" height="15" id="rect-11" fill="transparent" stroke="#000000"><set attributeName="x" to="21" begin="0; animate28.end + 1s" /><animate attributeName="x" from="21" to="64" dur="0.159" begin="animate10.end + 0.5" id="animate11" fill="freeze"/></rect><rect x="87" y="133" width="16" height="16" id="rect-12" fill="transparent" stroke="#000000"><set attributeName="y" to="117" begin="0; animate28.end + 1s" /><animate attributeName="y" from="117" to="133" dur="0.059" begin="animate11.end" id="animate12" fill="freeze"/></rect><rect x="71" y="147" width="29" height="12" id="rect-13" fill="transparent" stroke="#000000"><set attributeName="x" to="42" begin="0; animate28.end + 1s" /><animate attributeName="x" from="42" to="71" dur="0.107" begin="animate12.end + 0.5" id="animate13" fill="freeze"/></rect><rect x="104" y="123" width="15" height="33" id="rect-14" fill="transparent" stroke="#000000"><set attributeName="y" to="90" begin="0; animate28.end + 1s" /><animate attributeName="y" from="90" to="123" dur="0.122" begin="animate13.end + 0.5" id="animate14" fill="freeze"/></rect><rect x="114" y="115" width="40" height="15" id="rect-15" fill="transparent" stroke="#000000"><set attributeName="x" to="74" begin="0; animate28.end + 1s" /><animate attributeName="x" from="74" to="114" dur="0.148" begin="animate14.end + 0.5" id="animate15" fill="freeze"/></rect><rect x="135" y="127" width="15" height="13" id="rect-16" fill="transparent" stroke="#000000"><set attributeName="y" to="114" begin="0; animate28.end + 1s" /><animate attributeName="y" from="114" to="127" dur="0.048" begin="animate15.end" id="animate16" fill="freeze"/></rect><rect x="119" y="140" width="30" height="11" id="rect-17" fill="transparent" stroke="#000000"><set attributeName="x" to="89" begin="0; animate28.end + 1s" /><animate attributeName="x" from="89" to="119" dur="0.111" begin="animate16.end + 0.5" id="animate17" fill="freeze"/></rect><rect x="152" y="116" width="15" height="35" id="rect-18" fill="transparent" stroke="#000000"><set attributeName="y" to="81" begin="0; animate28.end + 1s" /><animate attributeName="y" from="81" to="116" dur="0.130" begin="animate17.end + 0.5" id="animate18" fill="freeze"/></rect><rect x="160" y="108" width="40" height="15" id="rect-19" fill="transparent" stroke="#000000"><set attributeName="x" to="120" begin="0; animate28.end + 1s" /><animate attributeName="x" from="120" to="160" dur="0.148" begin="animate18.end + 0.5" id="animate19" fill="freeze"/></rect><rect x="183" y="115" width="21" height="20" id="rect-20" fill="transparent" stroke="#000000"><set attributeName="y" to="95" begin="0; animate28.end + 1s" /><animate attributeName="y" from="95" to="115" dur="0.074" begin="animate19.end" id="animate20" fill="freeze"/></rect><rect x="167" y="134" width="33" height="11" id="rect-21" fill="transparent" stroke="#000000"><set attributeName="x" to="134" begin="0; animate28.end + 1s" /><animate attributeName="x" from="134" to="167" dur="0.122" begin="animate20.end + 0.5" id="animate21" fill="freeze"/></rect><rect x="80" y="152" width="91" height="23" id="rect-22" fill="transparent" stroke="#000000"><set attributeName="x" to="-11" begin="0; animate28.end + 1s" /><animate attributeName="x" from="-11" to="80" dur="0.337" begin="animate21.end + 0.5" id="animate22" fill="freeze"/></rect><rect x="118" y="169" width="21" height="58" id="rect-23" fill="transparent" stroke="#000000"><set attributeName="y" to="111" begin="0; animate28.end + 1s" /><animate attributeName="y" from="111" to="169" dur="0.215" begin="animate22.end + 0.5" id="animate23" fill="freeze"/></rect><rect x="54" y="179" width="41" height="42" id="rect-24" fill="transparent" stroke="#000000"><set attributeName="y" to="137" begin="0; animate28.end + 1s" /><animate attributeName="y" from="137" to="179" dur="0.156" begin="animate23.end + 0.5" id="animate24" fill="freeze"/></rect><rect x="82" y="199" width="26" height="22" id="rect-25" fill="transparent" stroke="#000000"><set attributeName="x" to="56" begin="0; animate28.end + 1s" /><animate attributeName="x" from="56" to="82" dur="0.096" begin="animate24.end + 0.5" id="animate25" fill="freeze"/></rect><rect x="134" y="170" width="44" height="41" id="rect-26" fill="transparent" stroke="#000000"><set attributeName="y" to="129" begin="0; animate28.end + 1s" /><animate attributeName="y" from="129" to="170" dur="0.152" begin="animate25.end + 0.5" id="animate26" fill="freeze"/></rect><rect x="160" y="194" width="29" height="21" id="rect-27" fill="transparent" stroke="#000000"><set attributeName="x" to="131" begin="0; animate28.end + 1s" /><animate attributeName="x" from="131" to="160" dur="0.107" begin="animate26.end + 0.5" id="animate27" fill="freeze"/></rect><rect x="32" y="216" width="193" height="30" id="rect-28" fill="transparent" stroke="#000000"><set attributeName="x" to="-161" begin="0; animate28.end + 1s" /><animate attributeName="x" from="-161" to="32" dur="0.715" begin="animate27.end + 0.5" id="animate28" fill="freeze"/></rect></svg>