<svg xmlns="http://www.w3.org/2000/svg" xmlns:xlink="http://www.w3.org/1999/xlink" width="270" height="270"><defs><clipPath id="clip-mask-1"><use xlink:href="#rect-1" /></clipPath><clipPath id="clip-mask-2"><use xlink:href="#rect-2" /></clipPath><clipPath id="clip-mask-3"><use xlink:href="#rect-3" /></clipPath><clipPath id="clip-mask-4"><use xlink:href="#rect-4" /></clipPath><clipPath id="clip-mask-5"><use xlink:href="#rect-5" /></clipPath><clipPath id="clip-mask-6"><use xlink:href="#rect-6" /></clipPath><clipPath id="clip-mask-7"><use xlink:href="#rect-7" /></clipPath><clipPath id="clip-mask-8"><use xlink:href="#rect-8" /></clipPath><clipPath id="clip-mask-9"><use xlink:href="#rect-9" /></clipPath><clipPath id="clip-mask-10"><use xlink:href="#rect-10" /></clipPath><clipPath id="clip-mask-11"><use xlink:href="#rect-11" /></clipPath><clipPath id="clip-mask-12"><use xlink:href="#rect-12" /></clipPath><clipPath id="clip-mask-13"><use xlink:href="#rect-13" /></clipPath><clipPath id="clip-mask-14"><use xlink:href="#rect-14" /></clipPath><clipPath id="clip-mask-15"><use xlink:href="#rect-15" /></clipPath><clipPath id="clip-mask-16"><use xlink:href="#rect-16" /></clipPath><clipPath id="clip-mask-17"><use xlink:href="#rect-17" /></clipPath><clipPath id="clip-mask-18"><use xlink:href="#rect-18" /></clipPath><clipPath id="clip-mask-19"><use xlink:href="#rect-19" /></clipPath><clipPath id="clip-mask-20"><use xlink:href="#rect-20" /></clipPath></defs><path d="M 0 0 L 270 270 M 270 0 L 0 270 M 135 0 L 135 270 M 0 135 L 270 135" stroke="#CCCCCC" /><path d="M 88 77 Q 76 79 66 82 L 57 84 Q 52 85 48 86 Q 36 89 31 84 Q 26 81 32 80 Q 44 78 55 76 L 66 74 Q 72 72 79 70 Q 83 69 88 68 L 102 64 Q 110 61 116 65 Q 120 67 120 69 Q 118 72 116 71 Q 108 73 99 75" fill="#CCCCCC"/><path d="M 66 82 Q 68 96 68 100 L 67 106 Q 66 108 66 109 Q 64 111 63 109 Q 62 107 57 85 Q 57 84 57 84 L 55 76 Q 51 60 49 58 Q 48 57 47 56 Q 44 54 46 52 Q 50 49 55 50 Q 60 52 64 54 Q 66 56 65 60 Q 65 63 66 70 Q 66 72 66 74" fill="#CCCCCC"/><path d="M 85 94 Q 86 85 88 77 L 88 68 Q 90 53 90 39 Q 91 35 87 29 Q 86 26 88 24 Q 90 23 93 24 Q 99 25 106 30 Q 110 34 109 37 Q 103 54 102 64 L 99 75 Q 97 84 95 95" fill="#CCCCCC"/><path d="M 67 106 L 68 100 Q 75 98 84 95 Q 84 94 85 94 L 95 95 Q 99 98 99 99 Q 99 101 97 101 Q 82 103 75 105" fill="#CCCCCC"/><path d="M 49 135 Q 50 140 54 153 L 55 160 Q 55 162 54 163 Q 54 167 49 163 Q 46 160 45 155 Q 41 140 35 132 Q 33 129 34 127 Q 35 126 37 127 Q 44 127 46 128" fill="#CCCCCC"/><path d="M 70 130 Q 55 132 49 135 L 46 128 Q 58 125 70 124 L 81 120 Q 88 118 96 115 Q 100 113 104 115 Q 114 119 118 122 L 98 125 Q 96 123 91 125 Q 86 126 80 128" fill="#CCCCCC"/><path d="M 97 144 Q 98 137 99 130 Q 100 126 98 125 L 118 122 Q 120 126 117 129 Q 112 132 107 144" fill="#CCCCCC"/><path d="M 70 157 Q 64 159 59 160 Q 56 160 55 160 L 54 153 Q 62 152 70 150 L 80 148 Q 87 145 96 144 Q 96 143 97 144 L 107 144 Q 112 148 112 149 Q 112 151 110 151 Q 93 153 80 156" fill="#CCCCCC"/><path d="M 69 184 Q 56 187 38 194 Q 29 197 19 191 Q 15 188 16 186 Q 17 184 20 184 Q 43 180 70 175 L 80 172 Q 90 170 102 167 Q 108 166 114 168 Q 118 170 118 173 Q 118 175 114 176 Q 95 178 80 182" fill="#CCCCCC"/><path d="M 80 204 L 82 229 Q 82 236 79 243 Q 78 246 76 246 Q 74 245 71 241 Q 63 228 65 220 Q 67 216 69 184 L 70 175 Q 70 169 70 157 L 70 150 Q 70 139 70 130 L 70 124 Q 70 111 67 106 L 75 105 Q 78 106 81 109 Q 82 110 81 120 L 80 128 Q 80 136 80 148 L 80 156 Q 80 163 80 172 L 80 182" fill="#CCCCCC"/><path d="M 113 109 L 111 109 Q 108 110 109 108 Q 109 106 111 104 Q 122 88 130 74 Q 145 43 141 34 Q 139 29 143 29 Q 147 28 153 32 Q 160 37 161 39 Q 163 43 161 45 Q 157 49 153 57 Q 146 70 129 92 L 122 100" fill="#CCCCCC"/><path d="M 129 92 Q 135 98 139 103 Q 142 105 140 112 Q 137 130 137 210 Q 137 221 133 231 Q 130 237 126 233 L 126 233 Q 117 222 120 210 Q 129 175 129 123 Q 129 122 129 122 Q 129 119 122 100" fill="#CCCCCC"/><path d="M 178 76 Q 167 76 160 73 Q 154 69 163 68 Q 176 65 186 63 Q 196 60 204 56 Q 211 53 218 54 Q 225 56 227 58 Q 228 61 226 62 Q 225 64 190 73" fill="#CCCCCC"/><path d="M 164 108 Q 165 116 169 138 Q 169 140 169 143 L 169 150 Q 169 152 169 153 Q 167 156 164 152 Q 160 147 160 140 Q 156 118 150 104 Q 149 101 150 100 Q 150 98 153 99 Q 157 100 159 101" fill="#CCCCCC"/><path d="M 186 103 Q 174 106 168 108 Q 166 108 164 108 L 159 101 Q 167 99 179 97 Q 182 96 185 96 L 198 93 Q 203 92 209 91 Q 226 88 229 89 Q 241 95 245 99 L 221 99 Q 216 96 197 101" fill="#CCCCCC"/><path d="M 216 138 Q 218 131 222 108 Q 223 100 221 99 L 245 99 Q 249 103 245 107 Q 236 113 232 126 Q 227 143 225 146 Q 223 150 220 150 Q 217 150 216 146 Q 215 145 215 143" fill="#CCCCCC"/><path d="M 186 126 Q 176 127 175 127 Q 170 124 174 123 Q 179 121 186 119 L 197 115 Q 201 114 204 114 Q 209 115 212 117 Q 214 120 209 121 Q 203 122 197 124" fill="#CCCCCC"/><path d="M 185 147 Q 170 150 169 150 L 169 143 Q 177 141 185 140 L 197 137 Q 208 133 213 135 Q 215 137 216 138 L 215 143 Q 204 144 196 146" fill="#CCCCCC"/><path d="M 180 203 L 179 204 Q 158 225 144 225 Q 140 225 142 224 Q 142 223 145 221 Q 167 206 175 191 L 179 181 Q 181 173 185 147 L 185 140 Q 185 133 186 126 L 186 119 Q 186 111 186 103 L 185 96 Q 185 95 185 94 Q 185 83 178 76 L 190 73 Q 196 75 199 78 Q 201 79 200 82 Q 198 87 198 93 L 197 101 Q 197 102 197 115 L 197 124 Q 197 131 197 137 L 196 146 Q 193 173 188 190 L 182 201" fill="#CCCCCC"/><path d="M 175 191 Q 159 170 151 166 Q 149 165 150 164 Q 151 162 157 162 Q 161 162 164 165 Q 172 174 179 181 L 188 190 Q 189 191 190 191 Q 213 214 251 227 Q 254 228 253 230 Q 251 233 219 236 Q 213 236 209 232 Q 197 218 182 201" fill="#CCCCCC"/><path d="M 88 77 Q 76 79 66 82 L 57 84 Q 52 85 48 86 Q 36 89 31 84 Q 26 81 32 80 Q 44 78 55 76 L 66 74 Q 72 72 79 70 Q 83 69 88 68 L 102 64 Q 110 61 116 65 Q 120 67 120 69 Q 118 72 116 71 Q 108 73 99 75" fill="#0000ff" clip-path="url(#clip-mask-1)" /><path d="M 66 82 Q 68 96 68 100 L 67 106 Q 66 108 66 109 Q 64 111 63 109 Q 62 107 57 85 Q 57 84 57 84 L 55 76 Q 51 60 49 58 Q 48 57 47 56 Q 44 54 46 52 Q 50 49 55 50 Q 60 52 64 54 Q 66 56 65 60 Q 65 63 66 70 Q 66 72 66 74" fill="#0000ff" clip-path="url(#clip-mask-2)" /><path d="M 85 94 Q 86 85 88 77 L 88 68 Q 90 53 90 39 Q 91 35 87 29 Q 86 26 88 24 Q 90 23 93 24 Q 99 25 106 30 Q 110 34 109 37 Q 103 54 102 64 L 99 75 Q 97 84 95 95" fill="#0000ff" clip-path="url(#clip-mask-3)" /><path d="M 67 106 L 68 100 Q 75 98 84 95 Q 84 94 85 94 L 95 95 Q 99 98 99 99 Q 99 101 97 101 Q 82 103 75 105" fill="#0000ff" clip-path="url(#clip-mask-4)" /><path d="M 49 135 Q 50 140 54 153 L 55 160 Q 55 162 54 163 Q 54 167 49 163 Q 46 160 45 155 Q 41 140 35 132 Q 33 129 34 127 Q 35 126 37 127 Q 44 127 46 128" fill="#0000ff" clip-path="url(#clip-mask-5)" /><path d="M 70 130 Q 55 132 49 135 L 46 128 Q 58 125 70 124 L 81 120 Q 88 118 96 115 Q 100 113 104 115 Q 114 119 118 122 L 98 125 Q 96 123 91 125 Q 86 126 80 128" fill="#0000ff" clip-path="url(#clip-mask-6)" /><path d="M 97 144 Q 98 137 99 130 Q 100 126 98 125 L 118 122 Q 120 126 117 129 Q 112 132 107 144" fill="#0000ff" clip-path="url(#clip-mask-7)" /><path d="M 70 157 Q 64 159 59 160 Q 56 160 55 160 L 54 153 Q 62 152 70 150 L 80 148 Q 87 145 96 144 Q 96 143 97 144 L 107 144 Q 112 148 112 149 Q 112 151 110 151 Q 93 153 80 156" fill="#0000ff" clip-path="url(#clip-mask-8)" /><path d="M 69 184 Q 56 187 38 194 Q 29 197 19 191 Q 15 188 16 186 Q 17 184 20 184 Q 43 180 70 175 L 80 172 Q 90 170 102 167 Q 108 166 114 168 Q 118 170 118 173 Q 118 175 114 176 Q 95 178 80 182" fill="#0000ff" clip-path="url(#clip-mask-9)" /><path d="M 80 204 L 82 229 Q 82 236 79 243 Q 78 246 76 246 Q 74 245 71 241 Q 63 228 65 220 Q 67 216 69 184 L 70 175 Q 70 169 70 157 L 70 150 Q 70 139 70 130 L 70 124 Q 70 111 67 106 L 75 105 Q 78 106 81 109 Q 82 110 81 120 L 80 128 Q 80 136 80 148 L 80 156 Q 80 163 80 172 L 80 182" fill="#0000ff" clip-path="url(#clip-mask-10)" /><path d="M 113 109 L 111 109 Q 108 110 109 108 Q 109 106 111 104 Q 122 88 130 74 Q 145 43 141 34 Q 139 29 143 29 Q 147 28 153 32 Q 160 37 161 39 Q 163 43 161 45 Q 157 49 153 57 Q 146 70 129 92 L 122 100" fill="#000080" clip-path="url(#clip-mask-11)" /><path d="M 129 92 Q 135 98 139 103 Q 142 105 140 112 Q 137 130 137 210 Q 137 221 133 231 Q 130 237 126 233 L 126 233 Q 117 222 120 210 Q 129 175 129 123 Q 129 122 129 122 Q 129 119 122 100" fill="#000080" clip-path="url(#clip-mask-12)" /><path d="M 178 76 Q 167 76 160 73 Q 154 69 163 68 Q 176 65 186 63 Q 196 60 204 56 Q 211 53 218 54 Q 225 56 227 58 Q 228 61 226 62 Q 225 64 190 73" fill="#000080" clip-path="url(#clip-mask-13)" /><path d="M 164 108 Q 165 116 169 138 Q 169 140 169 143 L 169 150 Q 169 152 169 153 Q 167 156 164 152 Q 160 147 160 140 Q 156 118 150 104 Q 149 101 150 100 Q 150 98 153 99 Q 157 100 159 101" fill="#000080" clip-path="url(#clip-mask-14)" /><path d="M 186 103 Q 174 106 168 108 Q 166 108 164 108 L 159 101 Q 167 99 179 97 Q 182 96 185 96 L 198 93 Q 203 92 209 91 Q 226 88 229 89 Q 241 95 245 99 L 221 99 Q 216 96 197 101" fill="#000080" clip-path="url(#clip-mask-15)" /><path d="M 216 138 Q 218 131 222 108 Q 223 100 221 99 L 245 99 Q 249 103 245 107 Q 236 113 232 126 Q 227 143 225 146 Q 223 150 220 150 Q 217 150 216 146 Q 215 145 215 143" fill="#000080" clip-path="url(#clip-mask-16)" /><path d="M 186 126 Q 176 127 175 127 Q 170 124 174 123 Q 179 121 186 119 L 197 115 Q 201 114 204 114 Q 209 115 212 117 Q 214 120 209 121 Q 203 122 197 124" fill="#000080" clip-path="url(#clip-mask-17)" /><path d="M 185 147 Q 170 150 169 150 L 169 143 Q 177 141 185 140 L 197 137 Q 208 133 213 135 Q 215 137 216 138 L 215 143 Q 204 144 196 146" fill="#000080" clip-path="url(#clip-mask-18)" /><path d="M 180 203 L 179 204 Q 158 225 144 225 Q 140 225 142 224 Q 142 223 145 221 Q 167 206 175 191 L 179 181 Q 181 173 185 147 L 185 140 Q 185 133 186 126 L 186 119 Q 186 111 186 103 L 185 96 Q 185 95 185 94 Q 185 83 178 76 L 190 73 Q 196 75 199 78 Q 201 79 200 82 Q 198 87 198 93 L 197 101 Q 197 102 197 115 L 197 124 Q 197 131 197 137 L 196 146 Q 193 173 188 190 L 182 201" fill="#000080" clip-path="url(#clip-mask-19)" /><path d="M 175 191 Q 159 170 151 166 Q 149 165 150 164 Q 151 162 157 162 Q 161 162 164 165 Q 172 174 179 181 L 188 190 Q 189 191 190 191 Q 213 214 251 227 Q 254 228 253 230 Q 251 233 219 236 Q 213 236 209 232 Q 197 218 182 201" fill="#000080" clip-path="url(#clip-mask-20)" /><rect x="26" y="61" width="94" height="28" id="rect-1" fill="transparent" stroke="#000000"><animate attributeName="x" from="-68" to="26" dur="0.348" begin="0; animate20.end + 1s" id="animate1" fill="freeze"/></rect><rect x="44" y="49" width="24" height="62" id="rect-2" fill="transparent" stroke="#000000"><set attributeName="y" to="-13" begin="0; animate20.end + 1s" /><animate attributeName="y" from="-13" to="49" dur="0.230" begin="animate1.end + 0.5" id="animate2" fill="freeze"/></rect><rect x="85" y="23" width="25" height="72" id="rect-3" fill="transparent" stroke="#000000"><set attributeName="y" to="-49" begin="0; animate20.end + 1s" /><animate attributeName="y" from="-49" to="23" dur="0.267" begin="animate2.end + 0.5" id="animate3" fill="freeze"/></rect><rect x="67" y="94" width="32" height="12" id="rect-4" fill="transparent" stroke="#000000"><set attributeName="x" to="35" begin="0; animate20.end + 1s" /><animate attributeName="x" from="35" to="67" dur="0.119" begin="animate3.end + 0.5" id="animate4" fill="freeze"/></rect><rect x="33" y="126" width="22" height="41" id="rect-5" fill="transparent" stroke="#000000"><set attributeName="y" to="85" begin="0; animate20.end + 1s" /><animate attributeName="y" from="85" to="126" dur="0.152" begin="animate4.end + 0.5" id="animate5" fill="freeze"/></rect><rect x="46" y="113" width="72" height="22" id="rect-6" fill="transparent" stroke="#000000"><set attributeName="x" to="-26" begin="0; animate20.end + 1s" /><animate attributeName="x" from="-26" to="46" dur="0.267" begin="animate5.end + 0.5" id="animate6" fill="freeze"/></rect><rect x="97" y="122" width="23" height="22" id="rect-7" fill="transparent" stroke="#000000"><set attributeName="y" to="100" begin="0; animate20.end + 1s" /><animate attributeName="y" from="100" to="122" dur="0.081" begin="animate6.end" id="animate7" fill="freeze"/></rect><rect x="54" y="143" width="58" height="17" id="rect-8" fill="transparent" stroke="#000000"><set attributeName="x" to="-4" begin="0; animate20.end + 1s" /><animate attributeName="x" from="-4" to="54" dur="0.215" begin="animate7.end + 0.5" id="animate8" fill="freeze"/></rect><rect x="15" y="166" width="103" height="31" id="rect-9" fill="transparent" stroke="#000000"><set attributeName="x" to="-88" begin="0; animate20.end + 1s" /><animate attributeName="x" from="-88" to="15" dur="0.381" begin="animate8.end + 0.5" id="animate9" fill="freeze"/></rect><rect x="63" y="105" width="19" height="141" id="rect-10" fill="transparent" stroke="#000000"><set attributeName="y" to="-36" begin="0; animate20.end + 1s" /><animate attributeName="y" from="-36" to="105" dur="0.522" begin="animate9.end + 0.5" id="animate10" fill="freeze"/></rect><rect x="108" y="28" width="55" height="82" id="rect-11" fill="transparent" stroke="#000000"><set attributeName="y" to="-54" begin="0; animate20.end + 1s" /><animate attributeName="y" from="-54" to="28" dur="0.304" begin="animate10.end + 0.5" id="animate11" fill="freeze"/></rect><rect x="117" y="92" width="25" height="145" id="rect-12" fill="transparent" stroke="#000000"><set attributeName="y" to="-53" begin="0; animate20.end + 1s" /><animate attributeName="y" from="-53" to="92" dur="0.537" begin="animate11.end + 0.5" id="animate12" fill="freeze"/></rect><rect x="154" y="53" width="74" height="23" id="rect-13" fill="transparent" stroke="#000000"><set attributeName="x" to="80" begin="0; animate20.end + 1s" /><animate attributeName="x" from="80" to="154" dur="0.274" begin="animate12.end + 0.5" id="animate13" fill="freeze"/></rect><rect x="149" y="98" width="20" height="58" id="rect-14" fill="transparent" stroke="#000000"><set attributeName="y" to="40" begin="0; animate20.end + 1s" /><animate attributeName="y" from="40" to="98" dur="0.215" begin="animate13.end + 0.5" id="animate14" fill="freeze"/></rect><rect x="159" y="88" width="86" height="20" id="rect-15" fill="transparent" stroke="#000000"><set attributeName="x" to="73" begin="0; animate20.end + 1s" /><animate attributeName="x" from="73" to="159" dur="0.319" begin="animate14.end + 0.5" id="animate15" fill="freeze"/></rect><rect x="215" y="99" width="34" height="51" id="rect-16" fill="transparent" stroke="#000000"><set attributeName="y" to="48" begin="0; animate20.end + 1s" /><animate attributeName="y" from="48" to="99" dur="0.189" begin="animate15.end" id="animate16" fill="freeze"/></rect><rect x="170" y="114" width="44" height="13" id="rect-17" fill="transparent" stroke="#000000"><set attributeName="x" to="126" begin="0; animate20.end + 1s" /><animate attributeName="x" from="126" to="170" dur="0.163" begin="animate16.end + 0.5" id="animate17" fill="freeze"/></rect><rect x="169" y="133" width="47" height="17" id="rect-18" fill="transparent" stroke="#000000"><set attributeName="x" to="122" begin="0; animate20.end + 1s" /><animate attributeName="x" from="122" to="169" dur="0.174" begin="animate17.end + 0.5" id="animate18" fill="freeze"/></rect><rect x="140" y="73" width="61" height="152" id="rect-19" fill="transparent" stroke="#000000"><set attributeName="y" to="-79" begin="0; animate20.end + 1s" /><animate attributeName="y" from="-79" to="73" dur="0.563" begin="animate18.end + 0.5" id="animate19" fill="freeze"/></rect><rect x="149" y="162" width="105" height="74" id="rect-20" fill="transparent" stroke="#000000"><set attributeName="x" to="44" begin="0; animate20.end + 1s" /><animate attributeName="x" from="44" to="149" dur="0.389" begin="animate19.end + 0.5" id="animate20" fill="freeze"/></rect></svg>