<svg xmlns="http://www.w3.org/2000/svg" xmlns:xlink="http://www.w3.org/1999/xlink" width="270" height="270"><defs><clipPath id="clip-mask-1"><use xlink:href="#rect-1" /></clipPath><clipPath id="clip-mask-2"><use xlink:href="#rect-2" /></clipPath><clipPath id="clip-mask-3"><use xlink:href="#rect-3" /></clipPath><clipPath id="clip-mask-4"><use xlink:href="#rect-4" /></clipPath><clipPath id="clip-mask-5"><use xlink:href="#rect-5" /></clipPath><clipPath id="clip-mask-6"><use xlink:href="#rect-6" /></clipPath><clipPath id="clip-mask-7"><use xlink:href="#rect-7" /></clipPath><clipPath id="clip-mask-8"><use xlink:href="#rect-8" /></clipPath><clipPath id="clip-mask-9"><use xlink:href="#rect-9" /></clipPath><clipPath id="clip-mask-10"><use xlink:href="#rect-10" /></clipPath><clipPath id="clip-mask-11"><use xlink:href="#rect-11" /></clipPath><clipPath id="clip-mask-12"><use xlink:href="#rect-12" /></clipPath><clipPath id="clip-mask-13"><use xlink:href="#rect-13" /></clipPath></defs><path d="M 0 0 L 270 270 M 270 0 L 0 270 M 135 0 L 135 270 M 0 135 L 270 135" stroke="#CCCCCC" /><path d="M 77 72 Q 74 72 72 73 Q 57 78 46 73 Q 39 69 48 67 Q 64 65 80 59 Q 102 50 108 51 Q 116 53 118 56 Q 119 58 117 60 Q 116 61 107 64 Q 96 66 87 69" fill="#CCCCCC"/><path d="M 80 77 L 77 72 L 87 69 Q 90 72 94 76 Q 94 76 90 126 L 78 130" fill="#CCCCCC"/><path d="M 90 126 Q 103 120 116 116 Q 119 116 120 117 Q 120 120 117 122 Q 112 125 105 129 Q 59 150 48 159 Q 45 162 42 161 Q 33 156 27 152 Q 25 150 25 146 Q 25 143 29 143 Q 38 143 42 141 Q 60 135 78 130" fill="#CCCCCC"/><path d="M 160 50 Q 152 51 145 54 Q 141 55 136 54 Q 132 53 129 50 Q 125 46 130 45 Q 188 34 213 29 Q 229 25 241 33 Q 244 36 243 39 Q 242 42 230 42 Q 186 43 170 48" fill="#CCCCCC"/><path d="M 150 87 Q 151 83 153 80 Q 162 57 160 50 L 170 48 Q 175 52 177 56 Q 179 58 175 61 Q 172 65 170 68 Q 164 77 158 85" fill="#CCCCCC"/><path d="M 143 180 L 142 182 Q 140 185 137 182 Q 135 179 132 172 Q 131 168 134 154 Q 140 113 131 90 Q 129 88 130 86 Q 132 85 133 85 Q 137 86 141 88 L 147 95 Q 147 96 147 96 Q 146 101 147 116 L 147 123 Q 147 132 147 141 L 147 147 Q 147 163 146 169 L 144 177" fill="#CCCCCC"/><path d="M 201 85 Q 199 82 193 84 Q 174 88 149 95 Q 148 95 147 95 L 141 88 Q 144 87 150 87 L 158 85 Q 187 78 197 74 Q 202 72 207 73 Q 219 78 226 84" fill="#CCCCCC"/><path d="M 203 163 Q 205 153 205 107 Q 205 90 201 85 L 226 84 Q 228 86 225 90 Q 215 107 222 162 Q 223 167 219 174 Q 215 183 211 183 Q 208 183 205 176 Q 203 173 203 171" fill="#CCCCCC"/><path d="M 147 116 Q 179 107 185 107 Q 191 108 194 112 Q 196 115 190 116 Q 173 118 150 123 Q 148 123 147 123" fill="#CCCCCC"/><path d="M 147 141 Q 180 132 185 133 Q 191 134 194 138 Q 196 141 190 142 Q 173 144 149 147 Q 148 147 147 147" fill="#CCCCCC"/><path d="M 146 169 Q 194 161 199 162 Q 201 162 203 163 L 203 171 Q 179 173 148 177 Q 145 177 144 177" fill="#CCCCCC"/><path d="M 148 187 L 150 186 Q 153 186 161 189 Q 167 192 168 196 Q 168 198 165 201 Q 151 212 151 214 Q 114 244 97 243 Q 90 243 95 240 Q 142 207 147 190" fill="#CCCCCC"/><path d="M 188 194 L 188 191 Q 189 187 191 189 Q 233 211 235 226 Q 237 238 233 241 Q 231 243 229 243 Q 225 241 221 236 Q 204 213 190 197" fill="#CCCCCC"/><path d="M 77 72 Q 74 72 72 73 Q 57 78 46 73 Q 39 69 48 67 Q 64 65 80 59 Q 102 50 108 51 Q 116 53 118 56 Q 119 58 117 60 Q 116 61 107 64 Q 96 66 87 69" fill="#000080" clip-path="url(#clip-mask-1)" /><path d="M 80 77 L 77 72 L 87 69 Q 90 72 94 76 Q 94 76 90 126 L 78 130" fill="#000080" clip-path="url(#clip-mask-2)" /><path d="M 90 126 Q 103 120 116 116 Q 119 116 120 117 Q 120 120 117 122 Q 112 125 105 129 Q 59 150 48 159 Q 45 162 42 161 Q 33 156 27 152 Q 25 150 25 146 Q 25 143 29 143 Q 38 143 42 141 Q 60 135 78 130" fill="#000080" clip-path="url(#clip-mask-3)" /><path d="M 160 50 Q 152 51 145 54 Q 141 55 136 54 Q 132 53 129 50 Q 125 46 130 45 Q 188 34 213 29 Q 229 25 241 33 Q 244 36 243 39 Q 242 42 230 42 Q 186 43 170 48" fill="#0000ff" clip-path="url(#clip-mask-4)" /><path d="M 150 87 Q 151 83 153 80 Q 162 57 160 50 L 170 48 Q 175 52 177 56 Q 179 58 175 61 Q 172 65 170 68 Q 164 77 158 85" fill="#0000ff" clip-path="url(#clip-mask-5)" /><path d="M 143 180 L 142 182 Q 140 185 137 182 Q 135 179 132 172 Q 131 168 134 154 Q 140 113 131 90 Q 129 88 130 86 Q 132 85 133 85 Q 137 86 141 88 L 147 95 Q 147 96 147 96 Q 146 101 147 116 L 147 123 Q 147 132 147 141 L 147 147 Q 147 163 146 169 L 144 177" fill="#0000ff" clip-path="url(#clip-mask-6)" /><path d="M 201 85 Q 199 82 193 84 Q 174 88 149 95 Q 148 95 147 95 L 141 88 Q 144 87 150 87 L 158 85 Q 187 78 197 74 Q 202 72 207 73 Q 219 78 226 84" fill="#0000ff" clip-path="url(#clip-mask-7)" /><path d="M 203 163 Q 205 153 205 107 Q 205 90 201 85 L 226 84 Q 228 86 225 90 Q 215 107 222 162 Q 223 167 219 174 Q 215 183 211 183 Q 208 183 205 176 Q 203 173 203 171" fill="#0000ff" clip-path="url(#clip-mask-8)" /><path d="M 147 116 Q 179 107 185 107 Q 191 108 194 112 Q 196 115 190 116 Q 173 118 150 123 Q 148 123 147 123" fill="#0000ff" clip-path="url(#clip-mask-9)" /><path d="M 147 141 Q 180 132 185 133 Q 191 134 194 138 Q 196 141 190 142 Q 173 144 149 147 Q 148 147 147 147" fill="#0000ff" clip-path="url(#clip-mask-10)" /><path d="M 146 169 Q 194 161 199 162 Q 201 162 203 163 L 203 171 Q 179 173 148 177 Q 145 177 144 177" fill="#0000ff" clip-path="url(#clip-mask-11)" /><path d="M 148 187 L 150 186 Q 153 186 161 189 Q 167 192 168 196 Q 168 198 165 201 Q 151 212 151 214 Q 114 244 97 243 Q 90 243 95 240 Q 142 207 147 190" fill="#0000ff" clip-path="url(#clip-mask-12)" /><path d="M 188 194 L 188 191 Q 189 187 191 189 Q 233 211 235 226 Q 237 238 233 241 Q 231 243 229 243 Q 225 241 221 236 Q 204 213 190 197" fill="#0000ff" clip-path="url(#clip-mask-13)" /><rect x="39" y="50" width="80" height="28" id="rect-1" fill="transparent" stroke="#000000"><animate attributeName="x" from="-41" to="39" dur="0.296" begin="0; animate13.end + 1s" id="animate1" fill="freeze"/></rect><rect x="77" y="69" width="17" height="61" id="rect-2" fill="transparent" stroke="#000000"><set attributeName="y" to="8" begin="0; animate13.end + 1s" /><animate attributeName="y" from="8" to="69" dur="0.226" begin="animate1.end + 0.5" id="animate2" fill="freeze"/></rect><rect x="25" y="116" width="95" height="46" id="rect-3" fill="transparent" stroke="#000000"><set attributeName="x" to="-70" begin="0; animate13.end + 1s" /><animate attributeName="x" from="-70" to="25" dur="0.352" begin="animate2.end + 0.5" id="animate3" fill="freeze"/></rect><rect x="125" y="25" width="119" height="30" id="rect-4" fill="transparent" stroke="#000000"><set attributeName="x" to="6" begin="0; animate13.end + 1s" /><animate attributeName="x" from="6" to="125" dur="0.441" begin="animate3.end + 0.5" id="animate4" fill="freeze"/></rect><rect x="150" y="48" width="29" height="39" id="rect-5" fill="transparent" stroke="#000000"><set attributeName="y" to="9" begin="0; animate13.end + 1s" /><animate attributeName="y" from="9" to="48" dur="0.144" begin="animate4.end + 0.5" id="animate5" fill="freeze"/></rect><rect x="129" y="85" width="18" height="100" id="rect-6" fill="transparent" stroke="#000000"><set attributeName="y" to="-15" begin="0; animate13.end + 1s" /><animate attributeName="y" from="-15" to="85" dur="0.370" begin="animate5.end + 0.5" id="animate6" fill="freeze"/></rect><rect x="141" y="72" width="85" height="23" id="rect-7" fill="transparent" stroke="#000000"><set attributeName="x" to="56" begin="0; animate13.end + 1s" /><animate attributeName="x" from="56" to="141" dur="0.315" begin="animate6.end + 0.5" id="animate7" fill="freeze"/></rect><rect x="201" y="84" width="27" height="99" id="rect-8" fill="transparent" stroke="#000000"><set attributeName="y" to="-15" begin="0; animate13.end + 1s" /><animate attributeName="y" from="-15" to="84" dur="0.367" begin="animate7.end" id="animate8" fill="freeze"/></rect><rect x="147" y="107" width="49" height="16" id="rect-9" fill="transparent" stroke="#000000"><set attributeName="x" to="98" begin="0; animate13.end + 1s" /><animate attributeName="x" from="98" to="147" dur="0.181" begin="animate8.end + 0.5" id="animate9" fill="freeze"/></rect><rect x="147" y="132" width="49" height="15" id="rect-10" fill="transparent" stroke="#000000"><set attributeName="x" to="98" begin="0; animate13.end + 1s" /><animate attributeName="x" from="98" to="147" dur="0.181" begin="animate9.end + 0.5" id="animate10" fill="freeze"/></rect><rect x="144" y="161" width="59" height="16" id="rect-11" fill="transparent" stroke="#000000"><set attributeName="x" to="85" begin="0; animate13.end + 1s" /><animate attributeName="x" from="85" to="144" dur="0.219" begin="animate10.end + 0.5" id="animate11" fill="freeze"/></rect><rect x="90" y="186" width="78" height="58" id="rect-12" fill="transparent" stroke="#000000"><set attributeName="y" to="128" begin="0; animate13.end + 1s" /><animate attributeName="y" from="128" to="186" dur="0.215" begin="animate11.end + 0.5" id="animate12" fill="freeze"/></rect><rect x="188" y="187" width="49" height="56" id="rect-13" fill="transparent" stroke="#000000"><set attributeName="x" to="139" begin="0; animate13.end + 1s" /><animate attributeName="x" from="139" to="188" dur="0.181" begin="animate12.end + 0.5" id="animate13" fill="freeze"/></rect></svg>