<svg xmlns="http://www.w3.org/2000/svg" xmlns:xlink="http://www.w3.org/1999/xlink" width="270" height="270"><defs><clipPath id="clip-mask-1"><use xlink:href="#rect-1" /></clipPath><clipPath id="clip-mask-2"><use xlink:href="#rect-2" /></clipPath><clipPath id="clip-mask-3"><use xlink:href="#rect-3" /></clipPath><clipPath id="clip-mask-4"><use xlink:href="#rect-4" /></clipPath><clipPath id="clip-mask-5"><use xlink:href="#rect-5" /></clipPath><clipPath id="clip-mask-6"><use xlink:href="#rect-6" /></clipPath><clipPath id="clip-mask-7"><use xlink:href="#rect-7" /></clipPath><clipPath id="clip-mask-8"><use xlink:href="#rect-8" /></clipPath><clipPath id="clip-mask-9"><use xlink:href="#rect-9" /></clipPath><clipPath id="clip-mask-10"><use xlink:href="#rect-10" /></clipPath><clipPath id="clip-mask-11"><use xlink:href="#rect-11" /></clipPath><clipPath id="clip-mask-12"><use xlink:href="#rect-12" /></clipPath><clipPath id="clip-mask-13"><use xlink:href="#rect-13" /></clipPath><clipPath id="clip-mask-14"><use xlink:href="#rect-14" /></clipPath><clipPath id="clip-mask-15"><use xlink:href="#rect-15" /></clipPath><clipPath id="clip-mask-16"><use xlink:href="#rect-16" /></clipPath><clipPath id="clip-mask-17"><use xlink:href="#rect-17" /></clipPath><clipPath id="clip-mask-18"><use xlink:href="#rect-18" /></clipPath><clipPath id="clip-mask-19"><use xlink:href="#rect-19" /></clipPath><clipPath id="clip-mask-20"><use xlink:href="#rect-20" /></clipPath><clipPath id="clip-mask-21"><use xlink:href="#rect-21" /></clipPath><clipPath id="clip-mask-22"><use xlink:href="#rect-22" /></clipPath><clipPath id="clip-mask-23"><use xlink:href="#rect-23" /></clipPath></defs><path d="M 0 0 L 270 270 M 270 0 L 0 270 M 135 0 L 135 270 M 0 135 L 270 135" stroke="#CCCCCC" /><path d="M 85 28 L 84 26 Q 83 22 85 21 Q 88 19 105 24 Q 112 26 113 31 Q 116 39 115 43 Q 114 46 111 47 Q 107 47 103 44 Q 98 38 93 34" fill="#CCCCCC"/><path d="M 93 61 L 113 53 Q 118 51 122 53 Q 133 58 137 61 L 116 65 Q 114 63 110 64 Q 75 73 72 74 L 67 67" fill="#CCCCCC"/><path d="M 137 61 Q 140 65 136 69 Q 129 74 124 87 L 112 87 Q 115 79 117 70 Q 118 67 116 65" fill="#CCCCCC"/><path d="M 124 87 Q 130 90 130 92 Q 130 95 127 95 Q 92 101 76 106 Q 73 107 70 107 Q 68 106 67 105 L 67 99 Q 87 95 111 87 Q 111 86 112 87" fill="#CCCCCC"/><path d="M 67 105 Q 62 141 50 169 Q 48 172 46 175 Q 29 206 19 208 Q 17 208 17 206 Q 18 204 19 203 Q 35 179 44 154 Q 46 148 48 142 Q 62 80 52 66 Q 50 63 53 61 Q 56 60 60 63 Q 64 64 67 67 L 72 74 Q 70 77 68 98 Q 67 99 67 99" fill="#CCCCCC"/><path d="M 66 153 Q 63 154 61 155 Q 56 157 59 153 Q 63 148 66 144 Q 79 123 78 116 Q 78 113 80 112 Q 82 111 88 112 Q 94 112 95 115 Q 96 117 94 119 Q 80 139 73 147" fill="#CCCCCC"/><path d="M 80 207 Q 79 230 77 237 Q 74 243 71 240 Q 70 239 70 239 Q 63 229 65 219 Q 70 199 70 180 Q 70 177 71 174 Q 69 163 66 153 L 73 147 Q 83 157 82 163 Q 80 171 80 202" fill="#CCCCCC"/><path d="M 106 108 L 106 106 Q 106 104 108 104 Q 119 106 123 112 Q 125 116 125 119 Q 123 122 120 122 Q 114 121 107 110" fill="#CCCCCC"/><path d="M 106 138 Q 93 139 93 139 Q 88 135 92 134 Q 130 123 134 123 Q 140 124 142 128 Q 144 130 139 132 Q 128 133 115 136" fill="#CCCCCC"/><path d="M 109 159 L 95 160 Q 90 157 94 156 Q 101 153 109 151 L 121 147 Q 125 146 129 146 Q 135 147 137 150 Q 139 153 134 154 Q 127 155 120 157" fill="#CCCCCC"/><path d="M 109 180 Q 95 182 94 181 Q 89 178 93 177 Q 100 174 109 171 L 120 168 Q 126 167 130 167 Q 136 168 138 171 Q 140 174 135 175 Q 127 176 119 178" fill="#CCCCCC"/><path d="M 109 186 L 109 180 L 109 171 Q 109 164 109 159 L 109 151 Q 109 145 106 138 L 115 136 Q 118 138 121 140 Q 123 142 121 146 Q 121 147 121 147 L 120 157 Q 120 162 120 168 L 119 178 Q 119 185 119 193 L 109 195" fill="#CCCCCC"/><path d="M 119 193 Q 119 192 120 192 Q 135 186 147 194 Q 150 196 150 199 Q 149 201 145 201 Q 143 201 140 201 Q 108 203 92 209 Q 85 211 80 207 L 80 202 Q 99 197 109 195" fill="#CCCCCC"/><path d="M 174 66 Q 157 69 155 69 Q 151 68 147 65 Q 143 61 148 60 Q 185 52 219 45 Q 233 39 248 48 Q 252 51 251 54 Q 250 57 238 57 Q 202 59 184 64" fill="#CCCCCC"/><path d="M 166 96 Q 166 93 168 91 Q 174 72 174 66 L 184 64 Q 188 66 190 69 Q 192 72 189 75 Q 182 85 175 94" fill="#CCCCCC"/><path d="M 161 186 L 160 188 Q 158 191 155 188 Q 153 186 152 184 Q 149 176 152 156 Q 154 113 150 102 Q 149 100 148 98 Q 147 95 149 94 Q 151 93 153 94 Q 157 96 159 98 L 165 105 Q 164 114 164 122 L 164 130 Q 164 137 164 147 L 164 154 Q 163 171 163 176 L 162 184" fill="#CCCCCC"/><path d="M 159 98 Q 163 97 166 96 L 175 94 Q 201 86 206 84 Q 212 82 216 83 Q 228 88 235 94 L 211 95 Q 208 91 167 105 Q 166 105 165 105" fill="#CCCCCC"/><path d="M 235 94 Q 238 96 235 100 Q 230 108 230 117 Q 229 148 232 168 Q 232 174 228 181 Q 224 189 220 190 Q 218 190 214 182 Q 213 180 212 178 L 213 168 Q 215 156 215 116 Q 214 100 211 95" fill="#CCCCCC"/><path d="M 164 122 Q 185 114 193 115 Q 200 116 203 120 Q 205 123 199 124 Q 184 126 165 130 Q 164 130 164 130" fill="#CCCCCC"/><path d="M 164 147 Q 187 139 195 140 Q 202 141 205 145 Q 207 148 201 149 Q 186 151 166 154 Q 164 154 164 154" fill="#CCCCCC"/><path d="M 212 178 Q 191 180 165 184 Q 163 184 162 184 L 163 176 Q 179 173 198 169 Q 208 167 213 168" fill="#CCCCCC"/><path d="M 165 194 L 167 194 Q 170 193 177 196 Q 183 198 184 201 Q 184 204 181 206 Q 171 215 171 217 Q 143 243 129 243 Q 123 244 128 240 Q 161 212 164 197" fill="#CCCCCC"/><path d="M 200 201 L 201 197 Q 202 194 204 196 Q 242 220 243 234 Q 244 245 241 248 Q 239 250 237 249 Q 233 248 230 242 Q 215 219 202 203" fill="#CCCCCC"/><path d="M 85 28 L 84 26 Q 83 22 85 21 Q 88 19 105 24 Q 112 26 113 31 Q 116 39 115 43 Q 114 46 111 47 Q 107 47 103 44 Q 98 38 93 34" fill="#000080" clip-path="url(#clip-mask-1)" /><path d="M 93 61 L 113 53 Q 118 51 122 53 Q 133 58 137 61 L 116 65 Q 114 63 110 64 Q 75 73 72 74 L 67 67" fill="#000080" clip-path="url(#clip-mask-2)" /><path d="M 137 61 Q 140 65 136 69 Q 129 74 124 87 L 112 87 Q 115 79 117 70 Q 118 67 116 65" fill="#000080" clip-path="url(#clip-mask-3)" /><path d="M 124 87 Q 130 90 130 92 Q 130 95 127 95 Q 92 101 76 106 Q 73 107 70 107 Q 68 106 67 105 L 67 99 Q 87 95 111 87 Q 111 86 112 87" fill="#000080" clip-path="url(#clip-mask-4)" /><path d="M 67 105 Q 62 141 50 169 Q 48 172 46 175 Q 29 206 19 208 Q 17 208 17 206 Q 18 204 19 203 Q 35 179 44 154 Q 46 148 48 142 Q 62 80 52 66 Q 50 63 53 61 Q 56 60 60 63 Q 64 64 67 67 L 72 74 Q 70 77 68 98 Q 67 99 67 99" fill="#000080" clip-path="url(#clip-mask-5)" /><path d="M 66 153 Q 63 154 61 155 Q 56 157 59 153 Q 63 148 66 144 Q 79 123 78 116 Q 78 113 80 112 Q 82 111 88 112 Q 94 112 95 115 Q 96 117 94 119 Q 80 139 73 147" fill="#000080" clip-path="url(#clip-mask-6)" /><path d="M 80 207 Q 79 230 77 237 Q 74 243 71 240 Q 70 239 70 239 Q 63 229 65 219 Q 70 199 70 180 Q 70 177 71 174 Q 69 163 66 153 L 73 147 Q 83 157 82 163 Q 80 171 80 202" fill="#000080" clip-path="url(#clip-mask-7)" /><path d="M 106 108 L 106 106 Q 106 104 108 104 Q 119 106 123 112 Q 125 116 125 119 Q 123 122 120 122 Q 114 121 107 110" fill="#000080" clip-path="url(#clip-mask-8)" /><path d="M 106 138 Q 93 139 93 139 Q 88 135 92 134 Q 130 123 134 123 Q 140 124 142 128 Q 144 130 139 132 Q 128 133 115 136" fill="#000080" clip-path="url(#clip-mask-9)" /><path d="M 109 159 L 95 160 Q 90 157 94 156 Q 101 153 109 151 L 121 147 Q 125 146 129 146 Q 135 147 137 150 Q 139 153 134 154 Q 127 155 120 157" fill="#000080" clip-path="url(#clip-mask-10)" /><path d="M 109 180 Q 95 182 94 181 Q 89 178 93 177 Q 100 174 109 171 L 120 168 Q 126 167 130 167 Q 136 168 138 171 Q 140 174 135 175 Q 127 176 119 178" fill="#000080" clip-path="url(#clip-mask-11)" /><path d="M 109 186 L 109 180 L 109 171 Q 109 164 109 159 L 109 151 Q 109 145 106 138 L 115 136 Q 118 138 121 140 Q 123 142 121 146 Q 121 147 121 147 L 120 157 Q 120 162 120 168 L 119 178 Q 119 185 119 193 L 109 195" fill="#000080" clip-path="url(#clip-mask-12)" /><path d="M 119 193 Q 119 192 120 192 Q 135 186 147 194 Q 150 196 150 199 Q 149 201 145 201 Q 143 201 140 201 Q 108 203 92 209 Q 85 211 80 207 L 80 202 Q 99 197 109 195" fill="#000080" clip-path="url(#clip-mask-13)" /><path d="M 174 66 Q 157 69 155 69 Q 151 68 147 65 Q 143 61 148 60 Q 185 52 219 45 Q 233 39 248 48 Q 252 51 251 54 Q 250 57 238 57 Q 202 59 184 64" fill="#0000ff" clip-path="url(#clip-mask-14)" /><path d="M 166 96 Q 166 93 168 91 Q 174 72 174 66 L 184 64 Q 188 66 190 69 Q 192 72 189 75 Q 182 85 175 94" fill="#0000ff" clip-path="url(#clip-mask-15)" /><path d="M 161 186 L 160 188 Q 158 191 155 188 Q 153 186 152 184 Q 149 176 152 156 Q 154 113 150 102 Q 149 100 148 98 Q 147 95 149 94 Q 151 93 153 94 Q 157 96 159 98 L 165 105 Q 164 114 164 122 L 164 130 Q 164 137 164 147 L 164 154 Q 163 171 163 176 L 162 184" fill="#0000ff" clip-path="url(#clip-mask-16)" /><path d="M 159 98 Q 163 97 166 96 L 175 94 Q 201 86 206 84 Q 212 82 216 83 Q 228 88 235 94 L 211 95 Q 208 91 167 105 Q 166 105 165 105" fill="#0000ff" clip-path="url(#clip-mask-17)" /><path d="M 235 94 Q 238 96 235 100 Q 230 108 230 117 Q 229 148 232 168 Q 232 174 228 181 Q 224 189 220 190 Q 218 190 214 182 Q 213 180 212 178 L 213 168 Q 215 156 215 116 Q 214 100 211 95" fill="#0000ff" clip-path="url(#clip-mask-18)" /><path d="M 164 122 Q 185 114 193 115 Q 200 116 203 120 Q 205 123 199 124 Q 184 126 165 130 Q 164 130 164 130" fill="#0000ff" clip-path="url(#clip-mask-19)" /><path d="M 164 147 Q 187 139 195 140 Q 202 141 205 145 Q 207 148 201 149 Q 186 151 166 154 Q 164 154 164 154" fill="#0000ff" clip-path="url(#clip-mask-20)" /><path d="M 212 178 Q 191 180 165 184 Q 163 184 162 184 L 163 176 Q 179 173 198 169 Q 208 167 213 168" fill="#0000ff" clip-path="url(#clip-mask-21)" /><path d="M 165 194 L 167 194 Q 170 193 177 196 Q 183 198 184 201 Q 184 204 181 206 Q 171 215 171 217 Q 143 243 129 243 Q 123 244 128 240 Q 161 212 164 197" fill="#0000ff" clip-path="url(#clip-mask-22)" /><path d="M 200 201 L 201 197 Q 202 194 204 196 Q 242 220 243 234 Q 244 245 241 248 Q 239 250 237 249 Q 233 248 230 242 Q 215 219 202 203" fill="#0000ff" clip-path="url(#clip-mask-23)" /><rect x="83" y="19" width="33" height="28" id="rect-1" fill="transparent" stroke="#000000"><animate attributeName="x" from="50" to="83" dur="0.122" begin="0; animate23.end + 1s" id="animate1" fill="freeze"/></rect><rect x="67" y="51" width="70" height="23" id="rect-2" fill="transparent" stroke="#000000"><set attributeName="x" to="-3" begin="0; animate23.end + 1s" /><animate attributeName="x" from="-3" to="67" dur="0.259" begin="animate1.end + 0.5" id="animate2" fill="freeze"/></rect><rect x="112" y="61" width="28" height="26" id="rect-3" fill="transparent" stroke="#000000"><set attributeName="y" to="35" begin="0; animate23.end + 1s" /><animate attributeName="y" from="35" to="61" dur="0.096" begin="animate2.end" id="animate3" fill="freeze"/></rect><rect x="67" y="86" width="63" height="21" id="rect-4" fill="transparent" stroke="#000000"><set attributeName="x" to="4" begin="0; animate23.end + 1s" /><animate attributeName="x" from="4" to="67" dur="0.233" begin="animate3.end + 0.5" id="animate4" fill="freeze"/></rect><rect x="17" y="60" width="55" height="148" id="rect-5" fill="transparent" stroke="#000000"><set attributeName="y" to="-88" begin="0; animate23.end + 1s" /><animate attributeName="y" from="-88" to="60" dur="0.548" begin="animate4.end + 0.5" id="animate5" fill="freeze"/></rect><rect x="56" y="111" width="40" height="46" id="rect-6" fill="transparent" stroke="#000000"><set attributeName="y" to="65" begin="0; animate23.end + 1s" /><animate attributeName="y" from="65" to="111" dur="0.170" begin="animate5.end + 0.5" id="animate6" fill="freeze"/></rect><rect x="63" y="147" width="20" height="96" id="rect-7" fill="transparent" stroke="#000000"><set attributeName="y" to="51" begin="0; animate23.end + 1s" /><animate attributeName="y" from="51" to="147" dur="0.356" begin="animate6.end + 0.5" id="animate7" fill="freeze"/></rect><rect x="106" y="104" width="19" height="18" id="rect-8" fill="transparent" stroke="#000000"><set attributeName="x" to="87" begin="0; animate23.end + 1s" /><animate attributeName="x" from="87" to="106" dur="0.070" begin="animate7.end + 0.5" id="animate8" fill="freeze"/></rect><rect x="88" y="123" width="56" height="16" id="rect-9" fill="transparent" stroke="#000000"><set attributeName="x" to="32" begin="0; animate23.end + 1s" /><animate attributeName="x" from="32" to="88" dur="0.207" begin="animate8.end + 0.5" id="animate9" fill="freeze"/></rect><rect x="90" y="146" width="49" height="14" id="rect-10" fill="transparent" stroke="#000000"><set attributeName="x" to="41" begin="0; animate23.end + 1s" /><animate attributeName="x" from="41" to="90" dur="0.181" begin="animate9.end + 0.5" id="animate10" fill="freeze"/></rect><rect x="89" y="167" width="51" height="15" id="rect-11" fill="transparent" stroke="#000000"><set attributeName="x" to="38" begin="0; animate23.end + 1s" /><animate attributeName="x" from="38" to="89" dur="0.189" begin="animate10.end + 0.5" id="animate11" fill="freeze"/></rect><rect x="106" y="136" width="17" height="59" id="rect-12" fill="transparent" stroke="#000000"><set attributeName="y" to="77" begin="0; animate23.end + 1s" /><animate attributeName="y" from="77" to="136" dur="0.219" begin="animate11.end + 0.5" id="animate12" fill="freeze"/></rect><rect x="80" y="186" width="70" height="25" id="rect-13" fill="transparent" stroke="#000000"><set attributeName="x" to="10" begin="0; animate23.end + 1s" /><animate attributeName="x" from="10" to="80" dur="0.259" begin="animate12.end + 0.5" id="animate13" fill="freeze"/></rect><rect x="143" y="39" width="109" height="30" id="rect-14" fill="transparent" stroke="#000000"><set attributeName="x" to="34" begin="0; animate23.end + 1s" /><animate attributeName="x" from="34" to="143" dur="0.404" begin="animate13.end + 0.5" id="animate14" fill="freeze"/></rect><rect x="166" y="64" width="26" height="32" id="rect-15" fill="transparent" stroke="#000000"><set attributeName="y" to="32" begin="0; animate23.end + 1s" /><animate attributeName="y" from="32" to="64" dur="0.119" begin="animate14.end + 0.5" id="animate15" fill="freeze"/></rect><rect x="147" y="93" width="18" height="98" id="rect-16" fill="transparent" stroke="#000000"><set attributeName="y" to="-5" begin="0; animate23.end + 1s" /><animate attributeName="y" from="-5" to="93" dur="0.363" begin="animate15.end + 0.5" id="animate16" fill="freeze"/></rect><rect x="159" y="82" width="76" height="23" id="rect-17" fill="transparent" stroke="#000000"><set attributeName="x" to="83" begin="0; animate23.end + 1s" /><animate attributeName="x" from="83" to="159" dur="0.281" begin="animate16.end + 0.5" id="animate17" fill="freeze"/></rect><rect x="211" y="94" width="27" height="96" id="rect-18" fill="transparent" stroke="#000000"><set attributeName="y" to="-2" begin="0; animate23.end + 1s" /><animate attributeName="y" from="-2" to="94" dur="0.356" begin="animate17.end" id="animate18" fill="freeze"/></rect><rect x="164" y="114" width="41" height="16" id="rect-19" fill="transparent" stroke="#000000"><set attributeName="x" to="123" begin="0; animate23.end + 1s" /><animate attributeName="x" from="123" to="164" dur="0.152" begin="animate18.end + 0.5" id="animate19" fill="freeze"/></rect><rect x="164" y="139" width="43" height="15" id="rect-20" fill="transparent" stroke="#000000"><set attributeName="x" to="121" begin="0; animate23.end + 1s" /><animate attributeName="x" from="121" to="164" dur="0.159" begin="animate19.end + 0.5" id="animate20" fill="freeze"/></rect><rect x="162" y="167" width="51" height="17" id="rect-21" fill="transparent" stroke="#000000"><set attributeName="x" to="111" begin="0; animate23.end + 1s" /><animate attributeName="x" from="111" to="162" dur="0.189" begin="animate20.end + 0.5" id="animate21" fill="freeze"/></rect><rect x="123" y="193" width="61" height="51" id="rect-22" fill="transparent" stroke="#000000"><set attributeName="y" to="142" begin="0; animate23.end + 1s" /><animate attributeName="y" from="142" to="193" dur="0.189" begin="animate21.end + 0.5" id="animate22" fill="freeze"/></rect><rect x="200" y="194" width="44" height="56" id="rect-23" fill="transparent" stroke="#000000"><set attributeName="y" to="138" begin="0; animate23.end + 1s" /><animate attributeName="y" from="138" to="194" dur="0.207" begin="animate22.end + 0.5" id="animate23" fill="freeze"/></rect></svg>