<svg xmlns="http://www.w3.org/2000/svg" xmlns:xlink="http://www.w3.org/1999/xlink" width="270" height="270"><defs><clipPath id="clip-mask-1"><use xlink:href="#rect-1" /></clipPath><clipPath id="clip-mask-2"><use xlink:href="#rect-2" /></clipPath><clipPath id="clip-mask-3"><use xlink:href="#rect-3" /></clipPath><clipPath id="clip-mask-4"><use xlink:href="#rect-4" /></clipPath><clipPath id="clip-mask-5"><use xlink:href="#rect-5" /></clipPath><clipPath id="clip-mask-6"><use xlink:href="#rect-6" /></clipPath><clipPath id="clip-mask-7"><use xlink:href="#rect-7" /></clipPath><clipPath id="clip-mask-8"><use xlink:href="#rect-8" /></clipPath><clipPath id="clip-mask-9"><use xlink:href="#rect-9" /></clipPath><clipPath id="clip-mask-10"><use xlink:href="#rect-10" /></clipPath><clipPath id="clip-mask-11"><use xlink:href="#rect-11" /></clipPath><clipPath id="clip-mask-12"><use xlink:href="#rect-12" /></clipPath><clipPath id="clip-mask-13"><use xlink:href="#rect-13" /></clipPath><clipPath id="clip-mask-14"><use xlink:href="#rect-14" /></clipPath><clipPath id="clip-mask-15"><use xlink:href="#rect-15" /></clipPath><clipPath id="clip-mask-16"><use xlink:href="#rect-16" /></clipPath><clipPath id="clip-mask-17"><use xlink:href="#rect-17" /></clipPath><clipPath id="clip-mask-18"><use xlink:href="#rect-18" /></clipPath><clipPath id="clip-mask-19"><use xlink:href="#rect-19" /></clipPath><clipPath id="clip-mask-20"><use xlink:href="#rect-20" /></clipPath><clipPath id="clip-mask-21"><use xlink:href="#rect-21" /></clipPath><clipPath id="clip-mask-22"><use xlink:href="#rect-22" /></clipPath><clipPath id="clip-mask-23"><use xlink:href="#rect-23" /></clipPath><clipPath id="clip-mask-24"><use xlink:href="#rect-24" /></clipPath><clipPath id="clip-mask-25"><use xlink:href="#rect-25" /></clipPath><clipPath id="clip-mask-26"><use xlink:href="#rect-26" /></clipPath></defs><path d="M 0 0 L 270 270 M 270 0 L 0 270 M 135 0 L 135 270 M 0 135 L 270 135" stroke="#CCCCCC" /><path d="M 70 46 L 51 52 L 43 53 Q 37 53 32 51 Q 27 47 34 46 Q 50 42 66 37 Q 90 27 96 28 Q 102 29 103 31 Q 105 33 103 35 Q 101 36 92 39 Q 85 41 79 43" fill="#CCCCCC"/><path d="M 39 120 L 38 121 Q 38 124 34 120 Q 30 116 30 111 Q 26 92 20 81 Q 18 77 19 76 Q 20 75 23 76 Q 30 77 32 78 L 35 86 Q 34 86 34 86 Q 35 93 38 109 Q 39 111 39 113 L 39 118" fill="#CCCCCC"/><path d="M 74 73 Q 64 75 57 78 L 50 80 Q 41 83 35 86 L 32 78 Q 39 75 49 73 L 57 71 Q 65 67 74 66 L 85 62 Q 91 60 97 58 Q 100 57 104 59 Q 113 64 116 67 L 98 69 Q 92 66 84 70" fill="#CCCCCC"/><path d="M 92 100 Q 94 98 99 74 Q 100 71 98 69 L 116 67 Q 118 70 116 73 Q 111 78 110 85 Q 103 108 100 112 Q 96 116 95 114 Q 92 112 88 107" fill="#CCCCCC"/><path d="M 57 78 Q 58 91 60 107 L 53 109 Q 51 91 50 80 L 49 73 Q 46 60 43 53 L 51 52 Q 51 52 51 52 Q 56 54 56 64 Q 57 67 57 71" fill="#CCCCCC"/><path d="M 72 103 Q 73 87 74 73 L 74 66 Q 73 51 71 47 Q 70 46 70 46 L 79 43 Q 82 44 85 47 Q 89 49 88 51 Q 88 53 86 56 Q 86 58 85 62 L 84 70 Q 82 85 80 100" fill="#CCCCCC"/><path d="M 66 105 L 72 103 L 80 100 Q 85 99 88 99 Q 90 100 92 100 L 88 107 Q 70 111 46 118 Q 42 118 39 118 L 39 113 Q 45 111 53 109 L 60 107" fill="#CCCCCC"/><path d="M 52 130 L 60 128 Q 79 121 84 121 Q 90 122 92 125 Q 93 126 91 128 Q 91 129 85 130 Q 73 134 62 137 Q 51 141 42 137 Q 36 134 43 132" fill="#CCCCCC"/><path d="M 58 160 Q 48 163 37 167 Q 22 173 13 167 Q 10 165 10 162 Q 11 161 14 160 Q 35 157 94 141 Q 99 139 105 141 Q 110 143 109 146 Q 109 148 106 148 Q 84 153 67 157" fill="#CCCCCC"/><path d="M 73 185 L 73 210 Q 74 224 70 232 Q 68 240 65 241 Q 63 242 59 238 L 59 215 Q 61 210 61 193 Q 61 168 58 160 L 67 157 Q 69 159 71 161 Q 74 165 73 173 L 73 176" fill="#CCCCCC"/><path d="M 59 238 Q 54 232 40 220 Q 38 218 38 216 Q 38 215 41 215 Q 47 216 53 217 Q 58 218 59 215" fill="#CCCCCC"/><path d="M 33 179 L 35 179 Q 36 180 37 181 Q 38 187 36 194 Q 35 201 31 208 Q 27 214 22 217 Q 18 220 16 216 Q 13 208 18 201 Q 26 192 32 181" fill="#CCCCCC"/><path d="M 73 173 Q 76 172 91 176 Q 97 178 99 182 Q 100 187 100 190 Q 99 192 98 192 Q 95 192 92 190 Q 85 185 78 180 Q 74 177 73 176" fill="#CCCCCC"/><path d="M 133 133 Q 128 163 122 182 Q 120 188 118 193 Q 100 228 92 231 Q 90 232 90 229 Q 90 228 91 226 Q 109 192 116 167 Q 124 135 123 92 Q 123 91 123 90 Q 122 69 117 62 Q 115 59 117 58 Q 122 55 135 63 L 137 71 Q 135 78 135 97 Q 135 114 133 132" fill="#CCCCCC"/><path d="M 135 63 Q 175 56 196 48 Q 206 42 210 44 Q 223 50 226 54 L 198 57 Q 160 66 137 71" fill="#CCCCCC"/><path d="M 226 54 Q 230 57 226 60 Q 217 70 215 80 Q 211 119 218 170 L 218 204 Q 196 164 205 65 Q 205 61 204 58 Q 201 56 198 57" fill="#CCCCCC"/><path d="M 218 170 Q 227 199 236 207 L 258 226 Q 259 231 256 233 Q 252 235 243 231 Q 224 216 218 204" fill="#CCCCCC"/><path d="M 236 207 Q 241 212 245 206 Q 248 199 253 183 Q 254 179 255 181 Q 257 183 256 186 Q 256 207 258 226" fill="#CCCCCC"/><path d="M 156 107 Q 145 111 143 111 Q 142 110 143 108 Q 170 93 169 86 Q 169 84 170 84 Q 177 82 188 89 Q 190 91 190 93 Q 189 95 186 95 Q 183 96 165 104" fill="#CCCCCC"/><path d="M 150 167 Q 150 169 149 170 Q 149 173 145 169 Q 142 166 142 161 Q 139 145 134 135 Q 133 134 133 133 L 133 132 Q 133 131 134 131 Q 135 130 136 131 Q 138 131 140 132 L 146 137 Q 149 158 150 161" fill="#CCCCCC"/><path d="M 160 134 Q 150 135 146 137 L 140 132 Q 150 129 160 127 L 168 125 Q 183 119 186 120 Q 196 124 199 127 L 181 130 Q 180 129 177 130 Q 172 130 168 132" fill="#CCCCCC"/><path d="M 199 127 Q 201 129 198 133 Q 193 137 188 155 L 179 154 Q 181 146 183 135 Q 183 132 181 130" fill="#CCCCCC"/><path d="M 168 157 Q 172 155 178 154 Q 178 154 179 154 L 188 155 Q 193 158 193 159 Q 193 161 191 161 Q 177 162 168 164 L 160 166 Q 157 166 154 167 Q 152 167 150 167 L 150 161 Q 155 160 160 159" fill="#CCCCCC"/><path d="M 168 143 L 168 157 L 168 164 Q 168 177 168 191 L 160 193 Q 160 178 160 166 L 160 159 Q 160 143 160 134 L 160 127 Q 158 109 156 107 L 165 104 Q 170 107 169 112 Q 168 116 168 125 L 168 132" fill="#CCCCCC"/><path d="M 185 190 L 185 190 Q 163 202 141 213 Q 138 215 136 214 Q 130 210 125 207 Q 123 205 124 202 Q 124 200 127 200 Q 132 200 136 200 Q 148 196 160 193 L 168 191 Q 177 189 185 186 L 186 190" fill="#CCCCCC"/><path d="M 185 186 Q 184 181 184 180 Q 185 178 186 178 Q 187 178 189 180 Q 203 197 200 205 Q 198 209 197 211 Q 195 213 193 211 Q 191 210 186 190" fill="#CCCCCC"/><path d="M 70 46 L 51 52 L 43 53 Q 37 53 32 51 Q 27 47 34 46 Q 50 42 66 37 Q 90 27 96 28 Q 102 29 103 31 Q 105 33 103 35 Q 101 36 92 39 Q 85 41 79 43" fill="#000080" clip-path="url(#clip-mask-1)" /><path d="M 39 120 L 38 121 Q 38 124 34 120 Q 30 116 30 111 Q 26 92 20 81 Q 18 77 19 76 Q 20 75 23 76 Q 30 77 32 78 L 35 86 Q 34 86 34 86 Q 35 93 38 109 Q 39 111 39 113 L 39 118" fill="#000080" clip-path="url(#clip-mask-2)" /><path d="M 74 73 Q 64 75 57 78 L 50 80 Q 41 83 35 86 L 32 78 Q 39 75 49 73 L 57 71 Q 65 67 74 66 L 85 62 Q 91 60 97 58 Q 100 57 104 59 Q 113 64 116 67 L 98 69 Q 92 66 84 70" fill="#000080" clip-path="url(#clip-mask-3)" /><path d="M 92 100 Q 94 98 99 74 Q 100 71 98 69 L 116 67 Q 118 70 116 73 Q 111 78 110 85 Q 103 108 100 112 Q 96 116 95 114 Q 92 112 88 107" fill="#000080" clip-path="url(#clip-mask-4)" /><path d="M 57 78 Q 58 91 60 107 L 53 109 Q 51 91 50 80 L 49 73 Q 46 60 43 53 L 51 52 Q 51 52 51 52 Q 56 54 56 64 Q 57 67 57 71" fill="#000080" clip-path="url(#clip-mask-5)" /><path d="M 72 103 Q 73 87 74 73 L 74 66 Q 73 51 71 47 Q 70 46 70 46 L 79 43 Q 82 44 85 47 Q 89 49 88 51 Q 88 53 86 56 Q 86 58 85 62 L 84 70 Q 82 85 80 100" fill="#000080" clip-path="url(#clip-mask-6)" /><path d="M 66 105 L 72 103 L 80 100 Q 85 99 88 99 Q 90 100 92 100 L 88 107 Q 70 111 46 118 Q 42 118 39 118 L 39 113 Q 45 111 53 109 L 60 107" fill="#000080" clip-path="url(#clip-mask-7)" /><path d="M 52 130 L 60 128 Q 79 121 84 121 Q 90 122 92 125 Q 93 126 91 128 Q 91 129 85 130 Q 73 134 62 137 Q 51 141 42 137 Q 36 134 43 132" fill="#000080" clip-path="url(#clip-mask-8)" /><path d="M 58 160 Q 48 163 37 167 Q 22 173 13 167 Q 10 165 10 162 Q 11 161 14 160 Q 35 157 94 141 Q 99 139 105 141 Q 110 143 109 146 Q 109 148 106 148 Q 84 153 67 157" fill="#000080" clip-path="url(#clip-mask-9)" /><path d="M 73 185 L 73 210 Q 74 224 70 232 Q 68 240 65 241 Q 63 242 59 238 L 59 215 Q 61 210 61 193 Q 61 168 58 160 L 67 157 Q 69 159 71 161 Q 74 165 73 173 L 73 176" fill="#000080" clip-path="url(#clip-mask-10)" /><path d="M 59 238 Q 54 232 40 220 Q 38 218 38 216 Q 38 215 41 215 Q 47 216 53 217 Q 58 218 59 215" fill="#000080" clip-path="url(#clip-mask-11)" /><path d="M 33 179 L 35 179 Q 36 180 37 181 Q 38 187 36 194 Q 35 201 31 208 Q 27 214 22 217 Q 18 220 16 216 Q 13 208 18 201 Q 26 192 32 181" fill="#000080" clip-path="url(#clip-mask-12)" /><path d="M 73 173 Q 76 172 91 176 Q 97 178 99 182 Q 100 187 100 190 Q 99 192 98 192 Q 95 192 92 190 Q 85 185 78 180 Q 74 177 73 176" fill="#000080" clip-path="url(#clip-mask-13)" /><path d="M 133 133 Q 128 163 122 182 Q 120 188 118 193 Q 100 228 92 231 Q 90 232 90 229 Q 90 228 91 226 Q 109 192 116 167 Q 124 135 123 92 Q 123 91 123 90 Q 122 69 117 62 Q 115 59 117 58 Q 122 55 135 63 L 137 71 Q 135 78 135 97 Q 135 114 133 132" fill="#0000ff" clip-path="url(#clip-mask-14)" /><path d="M 135 63 Q 175 56 196 48 Q 206 42 210 44 Q 223 50 226 54 L 198 57 Q 160 66 137 71" fill="#0000ff" clip-path="url(#clip-mask-15)" /><path d="M 226 54 Q 230 57 226 60 Q 217 70 215 80 Q 211 119 218 170 L 218 204 Q 196 164 205 65 Q 205 61 204 58 Q 201 56 198 57" fill="#0000ff" clip-path="url(#clip-mask-16)" /><path d="M 218 170 Q 227 199 236 207 L 258 226 Q 259 231 256 233 Q 252 235 243 231 Q 224 216 218 204" fill="#0000ff" clip-path="url(#clip-mask-17)" /><path d="M 236 207 Q 241 212 245 206 Q 248 199 253 183 Q 254 179 255 181 Q 257 183 256 186 Q 256 207 258 226" fill="#0000ff" clip-path="url(#clip-mask-18)" /><path d="M 156 107 Q 145 111 143 111 Q 142 110 143 108 Q 170 93 169 86 Q 169 84 170 84 Q 177 82 188 89 Q 190 91 190 93 Q 189 95 186 95 Q 183 96 165 104" fill="#0000ff" clip-path="url(#clip-mask-19)" /><path d="M 150 167 Q 150 169 149 170 Q 149 173 145 169 Q 142 166 142 161 Q 139 145 134 135 Q 133 134 133 133 L 133 132 Q 133 131 134 131 Q 135 130 136 131 Q 138 131 140 132 L 146 137 Q 149 158 150 161" fill="#0000ff" clip-path="url(#clip-mask-20)" /><path d="M 160 134 Q 150 135 146 137 L 140 132 Q 150 129 160 127 L 168 125 Q 183 119 186 120 Q 196 124 199 127 L 181 130 Q 180 129 177 130 Q 172 130 168 132" fill="#0000ff" clip-path="url(#clip-mask-21)" /><path d="M 199 127 Q 201 129 198 133 Q 193 137 188 155 L 179 154 Q 181 146 183 135 Q 183 132 181 130" fill="#0000ff" clip-path="url(#clip-mask-22)" /><path d="M 168 157 Q 172 155 178 154 Q 178 154 179 154 L 188 155 Q 193 158 193 159 Q 193 161 191 161 Q 177 162 168 164 L 160 166 Q 157 166 154 167 Q 152 167 150 167 L 150 161 Q 155 160 160 159" fill="#0000ff" clip-path="url(#clip-mask-23)" /><path d="M 168 143 L 168 157 L 168 164 Q 168 177 168 191 L 160 193 Q 160 178 160 166 L 160 159 Q 160 143 160 134 L 160 127 Q 158 109 156 107 L 165 104 Q 170 107 169 112 Q 168 116 168 125 L 168 132" fill="#0000ff" clip-path="url(#clip-mask-24)" /><path d="M 185 190 L 185 190 Q 163 202 141 213 Q 138 215 136 214 Q 130 210 125 207 Q 123 205 124 202 Q 124 200 127 200 Q 132 200 136 200 Q 148 196 160 193 L 168 191 Q 177 189 185 186 L 186 190" fill="#0000ff" clip-path="url(#clip-mask-25)" /><path d="M 185 186 Q 184 181 184 180 Q 185 178 186 178 Q 187 178 189 180 Q 203 197 200 205 Q 198 209 197 211 Q 195 213 193 211 Q 191 210 186 190" fill="#0000ff" clip-path="url(#clip-mask-26)" /><rect x="27" y="27" width="78" height="26" id="rect-1" fill="transparent" stroke="#000000"><animate attributeName="x" from="-51" to="27" dur="0.289" begin="0; animate26.end + 1s" id="animate1" fill="freeze"/></rect><rect x="18" y="75" width="21" height="49" id="rect-2" fill="transparent" stroke="#000000"><set attributeName="y" to="26" begin="0; animate26.end + 1s" /><animate attributeName="y" from="26" to="75" dur="0.181" begin="animate1.end + 0.5" id="animate2" fill="freeze"/></rect><rect x="32" y="57" width="84" height="29" id="rect-3" fill="transparent" stroke="#000000"><set attributeName="x" to="-52" begin="0; animate26.end + 1s" /><animate attributeName="x" from="-52" to="32" dur="0.311" begin="animate2.end + 0.5" id="animate3" fill="freeze"/></rect><rect x="88" y="67" width="30" height="49" id="rect-4" fill="transparent" stroke="#000000"><set attributeName="y" to="18" begin="0; animate26.end + 1s" /><animate attributeName="y" from="18" to="67" dur="0.181" begin="animate3.end" id="animate4" fill="freeze"/></rect><rect x="43" y="52" width="17" height="57" id="rect-5" fill="transparent" stroke="#000000"><set attributeName="y" to="-5" begin="0; animate26.end + 1s" /><animate attributeName="y" from="-5" to="52" dur="0.211" begin="animate4.end + 0.5" id="animate5" fill="freeze"/></rect><rect x="70" y="43" width="19" height="60" id="rect-6" fill="transparent" stroke="#000000"><set attributeName="y" to="-17" begin="0; animate26.end + 1s" /><animate attributeName="y" from="-17" to="43" dur="0.222" begin="animate5.end + 0.5" id="animate6" fill="freeze"/></rect><rect x="39" y="99" width="53" height="19" id="rect-7" fill="transparent" stroke="#000000"><set attributeName="x" to="-14" begin="0; animate26.end + 1s" /><animate attributeName="x" from="-14" to="39" dur="0.196" begin="animate6.end + 0.5" id="animate7" fill="freeze"/></rect><rect x="36" y="121" width="57" height="20" id="rect-8" fill="transparent" stroke="#000000"><set attributeName="x" to="-21" begin="0; animate26.end + 1s" /><animate attributeName="x" from="-21" to="36" dur="0.211" begin="animate7.end + 0.5" id="animate8" fill="freeze"/></rect><rect x="10" y="139" width="100" height="34" id="rect-9" fill="transparent" stroke="#000000"><set attributeName="x" to="-90" begin="0; animate26.end + 1s" /><animate attributeName="x" from="-90" to="10" dur="0.370" begin="animate8.end + 0.5" id="animate9" fill="freeze"/></rect><rect x="58" y="157" width="16" height="85" id="rect-10" fill="transparent" stroke="#000000"><set attributeName="y" to="72" begin="0; animate26.end + 1s" /><animate attributeName="y" from="72" to="157" dur="0.315" begin="animate9.end + 0.5" id="animate10" fill="freeze"/></rect><rect x="38" y="215" width="21" height="23" id="rect-11" fill="transparent" stroke="#000000"><set attributeName="x" to="59" begin="0; animate26.end + 1s" /><animate attributeName="x" from="59" to="38" dur="0.078" begin="animate10.end" id="animate11" fill="freeze"/></rect><rect x="13" y="179" width="25" height="41" id="rect-12" fill="transparent" stroke="#000000"><set attributeName="y" to="138" begin="0; animate26.end + 1s" /><animate attributeName="y" from="138" to="179" dur="0.152" begin="animate11.end + 0.5" id="animate12" fill="freeze"/></rect><rect x="73" y="172" width="27" height="20" id="rect-13" fill="transparent" stroke="#000000"><set attributeName="x" to="46" begin="0; animate26.end + 1s" /><animate attributeName="x" from="46" to="73" dur="0.100" begin="animate12.end + 0.5" id="animate13" fill="freeze"/></rect><rect x="90" y="55" width="47" height="177" id="rect-14" fill="transparent" stroke="#000000"><set attributeName="y" to="-122" begin="0; animate26.end + 1s" /><animate attributeName="y" from="-122" to="55" dur="0.656" begin="animate13.end + 0.5" id="animate14" fill="freeze"/></rect><rect x="135" y="42" width="91" height="29" id="rect-15" fill="transparent" stroke="#000000"><set attributeName="x" to="44" begin="0; animate26.end + 1s" /><animate attributeName="x" from="44" to="135" dur="0.337" begin="animate14.end + 0.5" id="animate15" fill="freeze"/></rect><rect x="196" y="54" width="34" height="150" id="rect-16" fill="transparent" stroke="#000000"><set attributeName="y" to="-96" begin="0; animate26.end + 1s" /><animate attributeName="y" from="-96" to="54" dur="0.556" begin="animate15.end" id="animate16" fill="freeze"/></rect><rect x="218" y="170" width="41" height="65" id="rect-17" fill="transparent" stroke="#000000"><set attributeName="x" to="177" begin="0; animate26.end + 1s" /><animate attributeName="x" from="177" to="218" dur="0.152" begin="animate16.end" id="animate17" fill="freeze"/></rect><rect x="236" y="179" width="22" height="47" id="rect-18" fill="transparent" stroke="#000000"><set attributeName="y" to="226" begin="0; animate26.end + 1s" /><animate attributeName="y" from="226" to="179" dur="0.174" begin="animate17.end" id="animate18" fill="freeze"/></rect><rect x="142" y="82" width="48" height="29" id="rect-19" fill="transparent" stroke="#000000"><set attributeName="x" to="190" begin="0; animate26.end + 1s" /><animate attributeName="x" from="190" to="142" dur="0.178" begin="animate18.end + 0.5" id="animate19" fill="freeze"/></rect><rect x="133" y="130" width="17" height="43" id="rect-20" fill="transparent" stroke="#000000"><set attributeName="y" to="87" begin="0; animate26.end + 1s" /><animate attributeName="y" from="87" to="130" dur="0.159" begin="animate19.end + 0.5" id="animate20" fill="freeze"/></rect><rect x="140" y="119" width="59" height="18" id="rect-21" fill="transparent" stroke="#000000"><set attributeName="x" to="81" begin="0; animate26.end + 1s" /><animate attributeName="x" from="81" to="140" dur="0.219" begin="animate20.end + 0.5" id="animate21" fill="freeze"/></rect><rect x="179" y="127" width="22" height="28" id="rect-22" fill="transparent" stroke="#000000"><set attributeName="y" to="99" begin="0; animate26.end + 1s" /><animate attributeName="y" from="99" to="127" dur="0.104" begin="animate21.end" id="animate22" fill="freeze"/></rect><rect x="150" y="154" width="43" height="13" id="rect-23" fill="transparent" stroke="#000000"><set attributeName="x" to="107" begin="0; animate26.end + 1s" /><animate attributeName="x" from="107" to="150" dur="0.159" begin="animate22.end + 0.5" id="animate23" fill="freeze"/></rect><rect x="156" y="104" width="14" height="89" id="rect-24" fill="transparent" stroke="#000000"><set attributeName="y" to="15" begin="0; animate26.end + 1s" /><animate attributeName="y" from="15" to="104" dur="0.330" begin="animate23.end + 0.5" id="animate24" fill="freeze"/></rect><rect x="123" y="186" width="63" height="29" id="rect-25" fill="transparent" stroke="#000000"><set attributeName="x" to="60" begin="0; animate26.end + 1s" /><animate attributeName="x" from="60" to="123" dur="0.233" begin="animate24.end + 0.5" id="animate25" fill="freeze"/></rect><rect x="184" y="178" width="19" height="35" id="rect-26" fill="transparent" stroke="#000000"><set attributeName="y" to="143" begin="0; animate26.end + 1s" /><animate attributeName="y" from="143" to="178" dur="0.130" begin="animate25.end + 0.5" id="animate26" fill="freeze"/></rect></svg>