<svg xmlns="http://www.w3.org/2000/svg" xmlns:xlink="http://www.w3.org/1999/xlink" width="270" height="270"><defs><clipPath id="clip-mask-1"><use xlink:href="#rect-1" /></clipPath><clipPath id="clip-mask-2"><use xlink:href="#rect-2" /></clipPath><clipPath id="clip-mask-3"><use xlink:href="#rect-3" /></clipPath><clipPath id="clip-mask-4"><use xlink:href="#rect-4" /></clipPath><clipPath id="clip-mask-5"><use xlink:href="#rect-5" /></clipPath><clipPath id="clip-mask-6"><use xlink:href="#rect-6" /></clipPath><clipPath id="clip-mask-7"><use xlink:href="#rect-7" /></clipPath><clipPath id="clip-mask-8"><use xlink:href="#rect-8" /></clipPath><clipPath id="clip-mask-9"><use xlink:href="#rect-9" /></clipPath><clipPath id="clip-mask-10"><use xlink:href="#rect-10" /></clipPath><clipPath id="clip-mask-11"><use xlink:href="#rect-11" /></clipPath><clipPath id="clip-mask-12"><use xlink:href="#rect-12" /></clipPath><clipPath id="clip-mask-13"><use xlink:href="#rect-13" /></clipPath><clipPath id="clip-mask-14"><use xlink:href="#rect-14" /></clipPath><clipPath id="clip-mask-15"><use xlink:href="#rect-15" /></clipPath><clipPath id="clip-mask-16"><use xlink:href="#rect-16" /></clipPath><clipPath id="clip-mask-17"><use xlink:href="#rect-17" /></clipPath></defs><path d="M 0 0 L 270 270 M 270 0 L 0 270 M 135 0 L 135 270 M 0 135 L 270 135" stroke="#CCCCCC" /><path d="M 92 28 L 91 26 Q 90 23 92 22 Q 93 22 96 22 Q 116 26 119 32 Q 121 39 120 42 Q 119 45 116 45 Q 113 45 110 43 Q 104 37 98 33" fill="#CCCCCC"/><path d="M 155 17 L 154 13 Q 153 10 156 9 Q 159 8 164 11 Q 170 14 174 17 Q 177 21 172 23 Q 167 26 163 30 Q 152 38 143 44 Q 140 45 142 41 Q 151 25 153 21" fill="#CCCCCC"/><path d="M 120 64 Q 113 65 106 66 Q 85 69 77 64 Q 72 61 79 60 Q 114 57 144 50 Q 175 42 180 44 Q 186 45 188 48 Q 188 50 187 51 Q 184 53 168 57 Q 149 59 131 63" fill="#CCCCCC"/><path d="M 122 88 Q 118 89 115 89 Q 96 91 89 87 Q 84 83 92 83 Q 107 81 122 79 L 136 76 Q 160 69 167 71 Q 173 72 174 75 Q 175 77 173 78 Q 172 79 135 86" fill="#CCCCCC"/><path d="M 122 102 Q 122 94 122 88 L 122 79 Q 121 67 120 64 L 131 63 Q 139 69 136 74 Q 136 75 136 76 L 135 86 Q 134 92 134 100" fill="#CCCCCC"/><path d="M 89 115 Q 79 117 70 119 Q 67 120 62 119 Q 58 118 55 115 Q 51 111 56 111 Q 92 106 122 102 L 134 100 Q 164 94 183 90 Q 191 88 203 96 Q 207 99 206 102 Q 204 104 200 104 Q 169 104 148 106 L 140 107 Q 116 109 101 112" fill="#CCCCCC"/><path d="M 86 150 Q 71 165 65 170 Q 31 197 13 197 Q 10 196 12 195 Q 39 178 50 169 Q 51 167 52 167 Q 87 137 89 115 L 101 112 Q 108 118 109 123 Q 109 125 107 126 Q 105 128 93 142" fill="#CCCCCC"/><path d="M 148 106 Q 148 107 149 108 Q 192 141 226 152 Q 242 156 255 161 Q 259 162 259 164 Q 258 165 254 166 Q 234 171 216 170 Q 206 170 199 165 Q 152 123 140 107" fill="#CCCCCC"/><path d="M 116 119 L 116 117 Q 116 115 118 115 Q 131 115 136 120 Q 139 124 139 127 Q 138 131 136 131 Q 130 131 118 120" fill="#CCCCCC"/><path d="M 147 132 L 153 134 Q 162 140 165 143 L 145 144 Q 142 143 139 143 Q 109 150 104 152 L 99 146" fill="#CCCCCC"/><path d="M 165 143 Q 167 146 165 149 Q 160 154 158 160 Q 153 184 150 188 Q 147 193 145 191 Q 142 190 139 186 L 138 179 Q 141 178 142 176 Q 143 172 147 149 Q 147 146 145 144" fill="#CCCCCC"/><path d="M 103 165 Q 123 157 129 158 Q 135 158 137 161 Q 140 164 135 165 Q 122 167 105 171 Q 104 171 103 171" fill="#CCCCCC"/><path d="M 139 186 Q 115 188 105 191 Q 103 191 103 191 L 103 185 Q 114 182 128 178 Q 133 177 137 178 Q 137 179 138 179" fill="#CCCCCC"/><path d="M 103 191 Q 103 208 102 227 L 90 257 Q 87 261 83 259 Q 81 256 78 250 Q 77 244 79 241 Q 89 229 90 217 Q 94 171 86 150 L 93 142 Q 96 143 99 146 L 104 152 Q 103 159 103 165 L 103 171 Q 103 177 103 185" fill="#CCCCCC"/><path d="M 102 227 Q 101 231 106 229 Q 137 217 139 217 Q 141 217 140 219 Q 139 221 134 224 Q 94 251 90 257" fill="#CCCCCC"/><path d="M 154 203 L 154 203 Q 172 177 171 172 Q 170 169 173 169 Q 176 168 181 171 Q 187 173 190 177 Q 193 180 188 183 Q 183 185 179 189 Q 169 198 159 205 L 154 203" fill="#CCCCCC"/><path d="M 159 205 Q 197 215 203 227 Q 209 236 207 240 Q 206 243 204 243 Q 200 243 195 239 Q 163 218 137 206 Q 133 204 133 201 Q 133 198 135 198 Q 142 200 154 203" fill="#CCCCCC"/><path d="M 92 28 L 91 26 Q 90 23 92 22 Q 93 22 96 22 Q 116 26 119 32 Q 121 39 120 42 Q 119 45 116 45 Q 113 45 110 43 Q 104 37 98 33" fill="#000080" clip-path="url(#clip-mask-1)" /><path d="M 155 17 L 154 13 Q 153 10 156 9 Q 159 8 164 11 Q 170 14 174 17 Q 177 21 172 23 Q 167 26 163 30 Q 152 38 143 44 Q 140 45 142 41 Q 151 25 153 21" fill="#000080" clip-path="url(#clip-mask-2)" /><path d="M 120 64 Q 113 65 106 66 Q 85 69 77 64 Q 72 61 79 60 Q 114 57 144 50 Q 175 42 180 44 Q 186 45 188 48 Q 188 50 187 51 Q 184 53 168 57 Q 149 59 131 63" fill="#000080" clip-path="url(#clip-mask-3)" /><path d="M 122 88 Q 118 89 115 89 Q 96 91 89 87 Q 84 83 92 83 Q 107 81 122 79 L 136 76 Q 160 69 167 71 Q 173 72 174 75 Q 175 77 173 78 Q 172 79 135 86" fill="#000080" clip-path="url(#clip-mask-4)" /><path d="M 122 102 Q 122 94 122 88 L 122 79 Q 121 67 120 64 L 131 63 Q 139 69 136 74 Q 136 75 136 76 L 135 86 Q 134 92 134 100" fill="#000080" clip-path="url(#clip-mask-5)" /><path d="M 89 115 Q 79 117 70 119 Q 67 120 62 119 Q 58 118 55 115 Q 51 111 56 111 Q 92 106 122 102 L 134 100 Q 164 94 183 90 Q 191 88 203 96 Q 207 99 206 102 Q 204 104 200 104 Q 169 104 148 106 L 140 107 Q 116 109 101 112" fill="#000080" clip-path="url(#clip-mask-6)" /><path d="M 86 150 Q 71 165 65 170 Q 31 197 13 197 Q 10 196 12 195 Q 39 178 50 169 Q 51 167 52 167 Q 87 137 89 115 L 101 112 Q 108 118 109 123 Q 109 125 107 126 Q 105 128 93 142" fill="#0000ff" clip-path="url(#clip-mask-7)" /><path d="M 148 106 Q 148 107 149 108 Q 192 141 226 152 Q 242 156 255 161 Q 259 162 259 164 Q 258 165 254 166 Q 234 171 216 170 Q 206 170 199 165 Q 152 123 140 107" fill="#0000ff" clip-path="url(#clip-mask-8)" /><path d="M 116 119 L 116 117 Q 116 115 118 115 Q 131 115 136 120 Q 139 124 139 127 Q 138 131 136 131 Q 130 131 118 120" fill="#0000ff" clip-path="url(#clip-mask-9)" /><path d="M 147 132 L 153 134 Q 162 140 165 143 L 145 144 Q 142 143 139 143 Q 109 150 104 152 L 99 146" fill="#0000ff" clip-path="url(#clip-mask-10)" /><path d="M 165 143 Q 167 146 165 149 Q 160 154 158 160 Q 153 184 150 188 Q 147 193 145 191 Q 142 190 139 186 L 138 179 Q 141 178 142 176 Q 143 172 147 149 Q 147 146 145 144" fill="#0000ff" clip-path="url(#clip-mask-11)" /><path d="M 103 165 Q 123 157 129 158 Q 135 158 137 161 Q 140 164 135 165 Q 122 167 105 171 Q 104 171 103 171" fill="#0000ff" clip-path="url(#clip-mask-12)" /><path d="M 139 186 Q 115 188 105 191 Q 103 191 103 191 L 103 185 Q 114 182 128 178 Q 133 177 137 178 Q 137 179 138 179" fill="#0000ff" clip-path="url(#clip-mask-13)" /><path d="M 103 191 Q 103 208 102 227 L 90 257 Q 87 261 83 259 Q 81 256 78 250 Q 77 244 79 241 Q 89 229 90 217 Q 94 171 86 150 L 93 142 Q 96 143 99 146 L 104 152 Q 103 159 103 165 L 103 171 Q 103 177 103 185" fill="#0000ff" clip-path="url(#clip-mask-14)" /><path d="M 102 227 Q 101 231 106 229 Q 137 217 139 217 Q 141 217 140 219 Q 139 221 134 224 Q 94 251 90 257" fill="#0000ff" clip-path="url(#clip-mask-15)" /><path d="M 154 203 L 154 203 Q 172 177 171 172 Q 170 169 173 169 Q 176 168 181 171 Q 187 173 190 177 Q 193 180 188 183 Q 183 185 179 189 Q 169 198 159 205 L 154 203" fill="#0000ff" clip-path="url(#clip-mask-16)" /><path d="M 159 205 Q 197 215 203 227 Q 209 236 207 240 Q 206 243 204 243 Q 200 243 195 239 Q 163 218 137 206 Q 133 204 133 201 Q 133 198 135 198 Q 142 200 154 203" fill="#0000ff" clip-path="url(#clip-mask-17)" /><rect x="90" y="22" width="31" height="23" id="rect-1" fill="transparent" stroke="#000000"><animate attributeName="x" from="59" to="90" dur="0.115" begin="0; animate17.end + 1s" id="animate1" fill="freeze"/></rect><rect x="140" y="8" width="37" height="37" id="rect-2" fill="transparent" stroke="#000000"><set attributeName="y" to="-29" begin="0; animate17.end + 1s" /><animate attributeName="y" from="-29" to="8" dur="0.137" begin="animate1.end + 0.5" id="animate2" fill="freeze"/></rect><rect x="72" y="42" width="116" height="27" id="rect-3" fill="transparent" stroke="#000000"><set attributeName="x" to="-44" begin="0; animate17.end + 1s" /><animate attributeName="x" from="-44" to="72" dur="0.430" begin="animate2.end + 0.5" id="animate3" fill="freeze"/></rect><rect x="84" y="69" width="91" height="22" id="rect-4" fill="transparent" stroke="#000000"><set attributeName="x" to="-7" begin="0; animate17.end + 1s" /><animate attributeName="x" from="-7" to="84" dur="0.337" begin="animate3.end + 0.5" id="animate4" fill="freeze"/></rect><rect x="120" y="63" width="19" height="39" id="rect-5" fill="transparent" stroke="#000000"><set attributeName="y" to="24" begin="0; animate17.end + 1s" /><animate attributeName="y" from="24" to="63" dur="0.144" begin="animate4.end + 0.5" id="animate5" fill="freeze"/></rect><rect x="51" y="88" width="156" height="32" id="rect-6" fill="transparent" stroke="#000000"><set attributeName="x" to="-105" begin="0; animate17.end + 1s" /><animate attributeName="x" from="-105" to="51" dur="0.578" begin="animate5.end + 0.5" id="animate6" fill="freeze"/></rect><rect x="10" y="112" width="99" height="85" id="rect-7" fill="transparent" stroke="#000000"><set attributeName="y" to="27" begin="0; animate17.end + 1s" /><animate attributeName="y" from="27" to="112" dur="0.315" begin="animate6.end + 0.5" id="animate7" fill="freeze"/></rect><rect x="140" y="106" width="119" height="65" id="rect-8" fill="transparent" stroke="#000000"><set attributeName="x" to="21" begin="0; animate17.end + 1s" /><animate attributeName="x" from="21" to="140" dur="0.441" begin="animate7.end + 0.5" id="animate8" fill="freeze"/></rect><rect x="116" y="115" width="23" height="16" id="rect-9" fill="transparent" stroke="#000000"><set attributeName="x" to="93" begin="0; animate17.end + 1s" /><animate attributeName="x" from="93" to="116" dur="0.085" begin="animate8.end + 0.5" id="animate9" fill="freeze"/></rect><rect x="99" y="132" width="66" height="20" id="rect-10" fill="transparent" stroke="#000000"><set attributeName="x" to="33" begin="0; animate17.end + 1s" /><animate attributeName="x" from="33" to="99" dur="0.244" begin="animate9.end + 0.5" id="animate10" fill="freeze"/></rect><rect x="138" y="143" width="29" height="50" id="rect-11" fill="transparent" stroke="#000000"><set attributeName="y" to="93" begin="0; animate17.end + 1s" /><animate attributeName="y" from="93" to="143" dur="0.185" begin="animate10.end" id="animate11" fill="freeze"/></rect><rect x="103" y="157" width="37" height="14" id="rect-12" fill="transparent" stroke="#000000"><set attributeName="x" to="66" begin="0; animate17.end + 1s" /><animate attributeName="x" from="66" to="103" dur="0.137" begin="animate11.end + 0.5" id="animate12" fill="freeze"/></rect><rect x="103" y="177" width="36" height="14" id="rect-13" fill="transparent" stroke="#000000"><set attributeName="x" to="67" begin="0; animate17.end + 1s" /><animate attributeName="x" from="67" to="103" dur="0.133" begin="animate12.end + 0.5" id="animate13" fill="freeze"/></rect><rect x="77" y="142" width="27" height="119" id="rect-14" fill="transparent" stroke="#000000"><set attributeName="y" to="23" begin="0; animate17.end + 1s" /><animate attributeName="y" from="23" to="142" dur="0.441" begin="animate13.end + 0.5" id="animate14" fill="freeze"/></rect><rect x="90" y="217" width="51" height="40" id="rect-15" fill="transparent" stroke="#000000"><set attributeName="x" to="39" begin="0; animate17.end + 1s" /><animate attributeName="x" from="39" to="90" dur="0.189" begin="animate14.end" id="animate15" fill="freeze"/></rect><rect x="154" y="168" width="39" height="37" id="rect-16" fill="transparent" stroke="#000000"><set attributeName="y" to="131" begin="0; animate17.end + 1s" /><animate attributeName="y" from="131" to="168" dur="0.137" begin="animate15.end + 0.5" id="animate16" fill="freeze"/></rect><rect x="133" y="198" width="76" height="45" id="rect-17" fill="transparent" stroke="#000000"><set attributeName="x" to="57" begin="0; animate17.end + 1s" /><animate attributeName="x" from="57" to="133" dur="0.281" begin="animate16.end + 0.5" id="animate17" fill="freeze"/></rect></svg>