<svg xmlns="http://www.w3.org/2000/svg" xmlns:xlink="http://www.w3.org/1999/xlink" width="270" height="270"><defs><clipPath id="clip-mask-1"><use xlink:href="#rect-1" /></clipPath><clipPath id="clip-mask-2"><use xlink:href="#rect-2" /></clipPath><clipPath id="clip-mask-3"><use xlink:href="#rect-3" /></clipPath><clipPath id="clip-mask-4"><use xlink:href="#rect-4" /></clipPath><clipPath id="clip-mask-5"><use xlink:href="#rect-5" /></clipPath><clipPath id="clip-mask-6"><use xlink:href="#rect-6" /></clipPath><clipPath id="clip-mask-7"><use xlink:href="#rect-7" /></clipPath><clipPath id="clip-mask-8"><use xlink:href="#rect-8" /></clipPath><clipPath id="clip-mask-9"><use xlink:href="#rect-9" /></clipPath><clipPath id="clip-mask-10"><use xlink:href="#rect-10" /></clipPath><clipPath id="clip-mask-11"><use xlink:href="#rect-11" /></clipPath></defs><path d="M 0 0 L 270 270 M 270 0 L 0 270 M 135 0 L 135 270 M 0 135 L 270 135" stroke="#CCCCCC" /><path d="M 116 49 Q 114 49 111 50 Q 85 57 82 56 Q 80 56 81 53 Q 139 31 141 20 Q 141 17 143 16 Q 151 15 167 27 Q 169 30 168 33 Q 167 35 163 35 Q 148 37 128 45" fill="#CCCCCC"/><path d="M 107 90 Q 85 93 66 99 Q 62 100 57 99 Q 52 97 49 94 Q 45 90 50 89 Q 88 83 122 78 L 135 76 Q 166 71 185 66 Q 195 64 208 74 Q 212 77 211 80 Q 209 82 192 82 Q 161 83 139 85" fill="#CCCCCC"/><path d="M 132 102 L 133 117 Q 133 139 130 142 Q 127 144 124 140 Q 120 130 120 127 Q 122 118 122 93 L 122 78 Q 122 57 116 49 L 128 45 Q 134 48 138 51 Q 141 55 140 57 Q 136 63 135 76 L 133 89" fill="#CCCCCC"/><path d="M 122 93 Q 119 96 114 102 Q 107 113 95 124 Q 77 141 64 149 Q 33 164 23 162 Q 19 161 24 158 Q 88 123 107 90 L 122 78" fill="#CCCCCC"/><path d="M 135 76 L 139 85 Q 139 86 140 86 Q 169 110 195 121 Q 196 122 247 137 Q 250 138 250 140 Q 250 141 245 142 Q 224 147 206 147 Q 191 145 133 89" fill="#CCCCCC"/><path d="M 94 238 L 92 241 Q 89 245 87 241 Q 84 238 81 230 Q 79 222 83 216 Q 89 178 80 157 Q 78 154 79 153 Q 80 151 83 151 Q 89 152 94 156 L 98 164 Q 97 170 97 190 L 97 197 Q 97 221 97 224 L 95 233" fill="#CCCCCC"/><path d="M 94 156 Q 130 151 152 141 Q 156 139 161 142 Q 174 148 179 153 L 156 155 Q 153 152 146 153 Q 105 163 98 164" fill="#CCCCCC"/><path d="M 156 220 Q 158 216 158 204 Q 160 159 156 155 L 179 153 Q 181 156 179 159 Q 174 165 174 173 Q 175 205 176 222 Q 177 234 171 245 Q 167 254 162 254 Q 159 254 157 249" fill="#CCCCCC"/><path d="M 153 224 Q 155 224 156 220 L 157 249 Q 151 239 144 229" fill="#CCCCCC"/><path d="M 97 190 Q 127 180 135 181 Q 142 182 145 186 Q 147 190 141 191 Q 124 193 101 197 Q 99 197 97 197" fill="#CCCCCC"/><path d="M 97 224 Q 113 221 134 217 Q 142 216 146 218 Q 151 221 153 224 L 144 229 Q 114 230 100 232 Q 97 233 95 233" fill="#CCCCCC"/><path d="M 116 49 Q 114 49 111 50 Q 85 57 82 56 Q 80 56 81 53 Q 139 31 141 20 Q 141 17 143 16 Q 151 15 167 27 Q 169 30 168 33 Q 167 35 163 35 Q 148 37 128 45" fill="#0000ff" clip-path="url(#clip-mask-1)" /><path d="M 107 90 Q 85 93 66 99 Q 62 100 57 99 Q 52 97 49 94 Q 45 90 50 89 Q 88 83 122 78 L 135 76 Q 166 71 185 66 Q 195 64 208 74 Q 212 77 211 80 Q 209 82 192 82 Q 161 83 139 85" fill="#0000ff" clip-path="url(#clip-mask-2)" /><path d="M 132 102 L 133 117 Q 133 139 130 142 Q 127 144 124 140 Q 120 130 120 127 Q 122 118 122 93 L 122 78 Q 122 57 116 49 L 128 45 Q 134 48 138 51 Q 141 55 140 57 Q 136 63 135 76 L 133 89" fill="#0000ff" clip-path="url(#clip-mask-3)" /><path d="M 122 93 Q 119 96 114 102 Q 107 113 95 124 Q 77 141 64 149 Q 33 164 23 162 Q 19 161 24 158 Q 88 123 107 90 L 122 78" fill="#0000ff" clip-path="url(#clip-mask-4)" /><path d="M 135 76 L 139 85 Q 139 86 140 86 Q 169 110 195 121 Q 196 122 247 137 Q 250 138 250 140 Q 250 141 245 142 Q 224 147 206 147 Q 191 145 133 89" fill="#0000ff" clip-path="url(#clip-mask-5)" /><path d="M 94 238 L 92 241 Q 89 245 87 241 Q 84 238 81 230 Q 79 222 83 216 Q 89 178 80 157 Q 78 154 79 153 Q 80 151 83 151 Q 89 152 94 156 L 98 164 Q 97 170 97 190 L 97 197 Q 97 221 97 224 L 95 233" fill="#0000ff" clip-path="url(#clip-mask-6)" /><path d="M 94 156 Q 130 151 152 141 Q 156 139 161 142 Q 174 148 179 153 L 156 155 Q 153 152 146 153 Q 105 163 98 164" fill="#0000ff" clip-path="url(#clip-mask-7)" /><path d="M 156 220 Q 158 216 158 204 Q 160 159 156 155 L 179 153 Q 181 156 179 159 Q 174 165 174 173 Q 175 205 176 222 Q 177 234 171 245 Q 167 254 162 254 Q 159 254 157 249" fill="#0000ff" clip-path="url(#clip-mask-8)" /><path d="M 153 224 Q 155 224 156 220 L 157 249 Q 151 239 144 229" fill="#0000ff" clip-path="url(#clip-mask-9)" /><path d="M 97 190 Q 127 180 135 181 Q 142 182 145 186 Q 147 190 141 191 Q 124 193 101 197 Q 99 197 97 197" fill="#0000ff" clip-path="url(#clip-mask-10)" /><path d="M 97 224 Q 113 221 134 217 Q 142 216 146 218 Q 151 221 153 224 L 144 229 Q 114 230 100 232 Q 97 233 95 233" fill="#0000ff" clip-path="url(#clip-mask-11)" /><rect x="80" y="15" width="89" height="42" id="rect-1" fill="transparent" stroke="#000000"><animate attributeName="x" from="169" to="80" dur="0.330" begin="0; animate11.end + 1s" id="animate1" fill="freeze"/></rect><rect x="45" y="64" width="167" height="36" id="rect-2" fill="transparent" stroke="#000000"><set attributeName="x" to="-122" begin="0; animate11.end + 1s" /><animate attributeName="x" from="-122" to="45" dur="0.619" begin="animate1.end + 0.5" id="animate2" fill="freeze"/></rect><rect x="116" y="45" width="25" height="99" id="rect-3" fill="transparent" stroke="#000000"><set attributeName="y" to="-54" begin="0; animate11.end + 1s" /><animate attributeName="y" from="-54" to="45" dur="0.367" begin="animate2.end + 0.5" id="animate3" fill="freeze"/></rect><rect x="19" y="78" width="103" height="86" id="rect-4" fill="transparent" stroke="#000000"><set attributeName="x" to="122" begin="0; animate11.end + 1s" /><animate attributeName="x" from="122" to="19" dur="0.381" begin="animate3.end + 0.5" id="animate4" fill="freeze"/></rect><rect x="133" y="76" width="117" height="71" id="rect-5" fill="transparent" stroke="#000000"><set attributeName="x" to="16" begin="0; animate11.end + 1s" /><animate attributeName="x" from="16" to="133" dur="0.433" begin="animate4.end + 0.5" id="animate5" fill="freeze"/></rect><rect x="78" y="151" width="20" height="94" id="rect-6" fill="transparent" stroke="#000000"><set attributeName="y" to="57" begin="0; animate11.end + 1s" /><animate attributeName="y" from="57" to="151" dur="0.348" begin="animate5.end + 0.5" id="animate6" fill="freeze"/></rect><rect x="94" y="139" width="85" height="25" id="rect-7" fill="transparent" stroke="#000000"><set attributeName="x" to="9" begin="0; animate11.end + 1s" /><animate attributeName="x" from="9" to="94" dur="0.315" begin="animate6.end + 0.5" id="animate7" fill="freeze"/></rect><rect x="156" y="153" width="25" height="101" id="rect-8" fill="transparent" stroke="#000000"><set attributeName="y" to="52" begin="0; animate11.end + 1s" /><animate attributeName="y" from="52" to="153" dur="0.374" begin="animate7.end" id="animate8" fill="freeze"/></rect><rect x="144" y="220" width="13" height="29" id="rect-9" fill="transparent" stroke="#000000"><set attributeName="x" to="157" begin="0; animate11.end + 1s" /><animate attributeName="x" from="157" to="144" dur="0.048" begin="animate8.end" id="animate9" fill="freeze"/></rect><rect x="97" y="180" width="50" height="17" id="rect-10" fill="transparent" stroke="#000000"><set attributeName="x" to="47" begin="0; animate11.end + 1s" /><animate attributeName="x" from="47" to="97" dur="0.185" begin="animate9.end + 0.5" id="animate10" fill="freeze"/></rect><rect x="95" y="216" width="58" height="17" id="rect-11" fill="transparent" stroke="#000000"><set attributeName="x" to="37" begin="0; animate11.end + 1s" /><animate attributeName="x" from="37" to="95" dur="0.215" begin="animate10.end + 0.5" id="animate11" fill="freeze"/></rect></svg>