<svg xmlns="http://www.w3.org/2000/svg" xmlns:xlink="http://www.w3.org/1999/xlink" width="270" height="270"><defs><clipPath id="clip-mask-1"><use xlink:href="#rect-1" /></clipPath><clipPath id="clip-mask-2"><use xlink:href="#rect-2" /></clipPath><clipPath id="clip-mask-3"><use xlink:href="#rect-3" /></clipPath><clipPath id="clip-mask-4"><use xlink:href="#rect-4" /></clipPath><clipPath id="clip-mask-5"><use xlink:href="#rect-5" /></clipPath><clipPath id="clip-mask-6"><use xlink:href="#rect-6" /></clipPath><clipPath id="clip-mask-7"><use xlink:href="#rect-7" /></clipPath><clipPath id="clip-mask-8"><use xlink:href="#rect-8" /></clipPath><clipPath id="clip-mask-9"><use xlink:href="#rect-9" /></clipPath><clipPath id="clip-mask-10"><use xlink:href="#rect-10" /></clipPath><clipPath id="clip-mask-11"><use xlink:href="#rect-11" /></clipPath><clipPath id="clip-mask-12"><use xlink:href="#rect-12" /></clipPath><clipPath id="clip-mask-13"><use xlink:href="#rect-13" /></clipPath><clipPath id="clip-mask-14"><use xlink:href="#rect-14" /></clipPath><clipPath id="clip-mask-15"><use xlink:href="#rect-15" /></clipPath><clipPath id="clip-mask-16"><use xlink:href="#rect-16" /></clipPath><clipPath id="clip-mask-17"><use xlink:href="#rect-17" /></clipPath><clipPath id="clip-mask-18"><use xlink:href="#rect-18" /></clipPath><clipPath id="clip-mask-19"><use xlink:href="#rect-19" /></clipPath><clipPath id="clip-mask-20"><use xlink:href="#rect-20" /></clipPath><clipPath id="clip-mask-21"><use xlink:href="#rect-21" /></clipPath><clipPath id="clip-mask-22"><use xlink:href="#rect-22" /></clipPath></defs><path d="M 0 0 L 270 270 M 270 0 L 0 270 M 135 0 L 135 270 M 0 135 L 270 135" stroke="#CCCCCC" /><path d="M 58 51 Q 70 49 81 46 Q 91 43 101 39 Q 108 36 114 37 Q 121 39 123 41 Q 124 43 122 45 Q 120 46 91 54 L 81 56 Q 78 57 76 58 Q 70 59 64 59" fill="#CCCCCC"/><path d="M 54 150 Q 52 150 49 147 Q 45 145 45 143 Q 45 143 47 132 Q 54 66 45 52 Q 43 51 44 48 Q 44 46 47 46 Q 51 46 58 51 L 64 59 Q 61 69 59 92 Q 58 126 59 132" fill="#CCCCCC"/><path d="M 85 89 Q 76 90 69 88 Q 64 85 71 83 Q 78 82 83 80 Q 84 80 85 80 L 98 74 Q 101 73 105 73 Q 111 74 112 76 Q 113 78 112 79 Q 111 80 98 85" fill="#CCCCCC"/><path d="M 102 99 L 107 100 Q 113 101 114 103 Q 115 105 114 106 Q 113 108 109 109 Q 102 110 97 112 L 85 116 Q 76 116 70 114 Q 65 111 72 109 Q 79 108 85 106 L 97 102" fill="#CCCCCC"/><path d="M 97 112 Q 96 121 96 131 L 85 132 Q 85 123 85 116 L 85 106 Q 85 96 85 89 L 85 80 Q 84 63 81 56 L 91 54 Q 94 56 98 60 Q 99 62 98 74 Q 98 74 98 74 L 98 85 Q 97 93 97 102" fill="#CCCCCC"/><path d="M 96 131 Q 96 130 97 131 Q 112 126 122 132 Q 130 137 130 139 Q 130 140 128 142 L 106 140 Q 95 136 54 150 L 59 132 Q 61 138 69 136 Q 74 135 83 133 Q 84 132 85 132" fill="#CCCCCC"/><path d="M 128 142 Q 123 147 116 211 Q 115 220 108 227 Q 101 234 98 234 L 100 207 Q 104 199 107 181 Q 110 150 109 147 Q 109 143 106 140" fill="#CCCCCC"/><path d="M 98 234 Q 96 233 95 232 Q 93 226 77 210 Q 73 207 74 206 Q 75 205 79 206 Q 86 208 94 211 Q 99 211 100 207" fill="#CCCCCC"/><path d="M 23 164 L 24 163 Q 26 163 27 164 Q 30 169 31 176 Q 35 195 26 206 Q 23 210 20 207 Q 14 201 17 193 Q 21 180 22 166" fill="#CCCCCC"/><path d="M 45 166 L 46 165 Q 47 163 48 164 Q 50 164 53 170 Q 59 179 56 185 Q 55 188 52 189 Q 50 189 49 187 Q 46 183 45 170" fill="#CCCCCC"/><path d="M 63 160 L 64 159 Q 64 157 65 157 Q 72 159 77 171 Q 78 174 77 178 Q 76 180 74 181 Q 72 183 70 181 Q 66 176 64 164" fill="#CCCCCC"/><path d="M 84 153 L 85 151 Q 85 150 86 150 Q 88 150 90 152 Q 97 159 98 161 Q 99 164 99 168 Q 98 171 96 172 Q 94 173 92 172 Q 88 166 85 157" fill="#CCCCCC"/><path d="M 168 67 Q 151 71 142 66 Q 137 62 144 61 Q 158 60 171 57 L 184 54 Q 208 47 213 48 Q 219 49 221 51 Q 222 53 220 55 Q 218 56 208 59 Q 194 61 181 64 L 168 67" fill="#CCCCCC"/><path d="M 171 57 Q 174 35 169 26 Q 167 23 170 22 Q 175 19 187 27 Q 190 28 189 32 Q 186 38 184 54 Q 184 54 184 54 L 181 64 Q 176 82 165 93 Q 158 100 150 104 Q 142 108 139 108 Q 137 107 139 105 Q 142 102 146 99 Q 162 87 168 67" fill="#CCCCCC"/><path d="M 182 79 L 181 77 Q 181 75 182 75 Q 186 74 200 79 Q 207 83 208 87 Q 210 92 210 95 Q 208 97 207 97 Q 204 97 201 95 Q 194 89 187 83" fill="#CCCCCC"/><path d="M 166 116 L 144 123 Q 133 126 126 120 Q 123 117 127 116 Q 189 106 224 97 Q 238 92 251 101 Q 255 104 254 106 Q 253 108 248 108 Q 244 109 239 109 Q 223 109 210 111 L 199 112" fill="#CCCCCC"/><path d="M 155 177 L 154 180 Q 153 183 150 179 Q 147 175 146 170 Q 142 153 137 143 Q 136 140 137 139 Q 137 138 140 139 Q 146 140 148 141 L 151 147 Q 151 152 154 166 L 155 173" fill="#CCCCCC"/><path d="M 148 141 Q 160 137 166 136 Q 176 130 179 132 Q 185 136 189 138 Q 194 142 189 147 L 173 144 Q 172 142 167 143 Q 156 145 151 147" fill="#CCCCCC"/><path d="M 189 147 Q 185 151 181 162 L 170 162 Q 174 145 173 144" fill="#CCCCCC"/><path d="M 154 166 Q 161 164 170 162 L 181 162 Q 189 166 188 168 Q 188 170 186 170 Q 167 171 159 173 Q 157 174 155 173" fill="#CCCCCC"/><path d="M 210 111 Q 217 115 219 118 Q 221 120 219 127 Q 216 159 218 211 Q 219 229 209 246 Q 205 250 202 247 L 199 223 Q 203 217 203 130 Q 203 128 199 112" fill="#CCCCCC"/><path d="M 202 247 Q 193 238 178 227 Q 175 224 175 223 Q 175 221 178 221 Q 183 222 187 222 Q 195 224 199 223" fill="#CCCCCC"/><path d="M 58 51 Q 70 49 81 46 Q 91 43 101 39 Q 108 36 114 37 Q 121 39 123 41 Q 124 43 122 45 Q 120 46 91 54 L 81 56 Q 78 57 76 58 Q 70 59 64 59" fill="#0000ff" clip-path="url(#clip-mask-1)" /><path d="M 54 150 Q 52 150 49 147 Q 45 145 45 143 Q 45 143 47 132 Q 54 66 45 52 Q 43 51 44 48 Q 44 46 47 46 Q 51 46 58 51 L 64 59 Q 61 69 59 92 Q 58 126 59 132" fill="#0000ff" clip-path="url(#clip-mask-2)" /><path d="M 85 89 Q 76 90 69 88 Q 64 85 71 83 Q 78 82 83 80 Q 84 80 85 80 L 98 74 Q 101 73 105 73 Q 111 74 112 76 Q 113 78 112 79 Q 111 80 98 85" fill="#0000ff" clip-path="url(#clip-mask-3)" /><path d="M 102 99 L 107 100 Q 113 101 114 103 Q 115 105 114 106 Q 113 108 109 109 Q 102 110 97 112 L 85 116 Q 76 116 70 114 Q 65 111 72 109 Q 79 108 85 106 L 97 102" fill="#0000ff" clip-path="url(#clip-mask-4)" /><path d="M 97 112 Q 96 121 96 131 L 85 132 Q 85 123 85 116 L 85 106 Q 85 96 85 89 L 85 80 Q 84 63 81 56 L 91 54 Q 94 56 98 60 Q 99 62 98 74 Q 98 74 98 74 L 98 85 Q 97 93 97 102" fill="#0000ff" clip-path="url(#clip-mask-5)" /><path d="M 96 131 Q 96 130 97 131 Q 112 126 122 132 Q 130 137 130 139 Q 130 140 128 142 L 106 140 Q 95 136 54 150 L 59 132 Q 61 138 69 136 Q 74 135 83 133 Q 84 132 85 132" fill="#0000ff" clip-path="url(#clip-mask-6)" /><path d="M 128 142 Q 123 147 116 211 Q 115 220 108 227 Q 101 234 98 234 L 100 207 Q 104 199 107 181 Q 110 150 109 147 Q 109 143 106 140" fill="#0000ff" clip-path="url(#clip-mask-7)" /><path d="M 98 234 Q 96 233 95 232 Q 93 226 77 210 Q 73 207 74 206 Q 75 205 79 206 Q 86 208 94 211 Q 99 211 100 207" fill="#0000ff" clip-path="url(#clip-mask-8)" /><path d="M 23 164 L 24 163 Q 26 163 27 164 Q 30 169 31 176 Q 35 195 26 206 Q 23 210 20 207 Q 14 201 17 193 Q 21 180 22 166" fill="#0000ff" clip-path="url(#clip-mask-9)" /><path d="M 45 166 L 46 165 Q 47 163 48 164 Q 50 164 53 170 Q 59 179 56 185 Q 55 188 52 189 Q 50 189 49 187 Q 46 183 45 170" fill="#0000ff" clip-path="url(#clip-mask-10)" /><path d="M 63 160 L 64 159 Q 64 157 65 157 Q 72 159 77 171 Q 78 174 77 178 Q 76 180 74 181 Q 72 183 70 181 Q 66 176 64 164" fill="#0000ff" clip-path="url(#clip-mask-11)" /><path d="M 84 153 L 85 151 Q 85 150 86 150 Q 88 150 90 152 Q 97 159 98 161 Q 99 164 99 168 Q 98 171 96 172 Q 94 173 92 172 Q 88 166 85 157" fill="#0000ff" clip-path="url(#clip-mask-12)" /><path d="M 168 67 Q 151 71 142 66 Q 137 62 144 61 Q 158 60 171 57 L 184 54 Q 208 47 213 48 Q 219 49 221 51 Q 222 53 220 55 Q 218 56 208 59 Q 194 61 181 64 L 168 67" fill="#000080" clip-path="url(#clip-mask-13)" /><path d="M 171 57 Q 174 35 169 26 Q 167 23 170 22 Q 175 19 187 27 Q 190 28 189 32 Q 186 38 184 54 Q 184 54 184 54 L 181 64 Q 176 82 165 93 Q 158 100 150 104 Q 142 108 139 108 Q 137 107 139 105 Q 142 102 146 99 Q 162 87 168 67" fill="#000080" clip-path="url(#clip-mask-14)" /><path d="M 182 79 L 181 77 Q 181 75 182 75 Q 186 74 200 79 Q 207 83 208 87 Q 210 92 210 95 Q 208 97 207 97 Q 204 97 201 95 Q 194 89 187 83" fill="#000080" clip-path="url(#clip-mask-15)" /><path d="M 166 116 L 144 123 Q 133 126 126 120 Q 123 117 127 116 Q 189 106 224 97 Q 238 92 251 101 Q 255 104 254 106 Q 253 108 248 108 Q 244 109 239 109 Q 223 109 210 111 L 199 112" fill="#000080" clip-path="url(#clip-mask-16)" /><path d="M 155 177 L 154 180 Q 153 183 150 179 Q 147 175 146 170 Q 142 153 137 143 Q 136 140 137 139 Q 137 138 140 139 Q 146 140 148 141 L 151 147 Q 151 152 154 166 L 155 173" fill="#000080" clip-path="url(#clip-mask-17)" /><path d="M 148 141 Q 160 137 166 136 Q 176 130 179 132 Q 185 136 189 138 Q 194 142 189 147 L 173 144 Q 172 142 167 143 Q 156 145 151 147" fill="#000080" clip-path="url(#clip-mask-18)" /><path d="M 189 147 Q 185 151 181 162 L 170 162 Q 174 145 173 144" fill="#000080" clip-path="url(#clip-mask-19)" /><path d="M 154 166 Q 161 164 170 162 L 181 162 Q 189 166 188 168 Q 188 170 186 170 Q 167 171 159 173 Q 157 174 155 173" fill="#000080" clip-path="url(#clip-mask-20)" /><path d="M 210 111 Q 217 115 219 118 Q 221 120 219 127 Q 216 159 218 211 Q 219 229 209 246 Q 205 250 202 247 L 199 223 Q 203 217 203 130 Q 203 128 199 112" fill="#000080" clip-path="url(#clip-mask-21)" /><path d="M 202 247 Q 193 238 178 227 Q 175 224 175 223 Q 175 221 178 221 Q 183 222 187 222 Q 195 224 199 223" fill="#000080" clip-path="url(#clip-mask-22)" /><rect x="58" y="36" width="66" height="23" id="rect-1" fill="transparent" stroke="#000000"><animate attributeName="x" from="-8" to="58" dur="0.244" begin="0; animate22.end + 1s" id="animate1" fill="freeze"/></rect><rect x="43" y="46" width="21" height="104" id="rect-2" fill="transparent" stroke="#000000"><set attributeName="y" to="-58" begin="0; animate22.end + 1s" /><animate attributeName="y" from="-58" to="46" dur="0.385" begin="animate1.end + 0.5" id="animate2" fill="freeze"/></rect><rect x="64" y="73" width="49" height="17" id="rect-3" fill="transparent" stroke="#000000"><set attributeName="x" to="15" begin="0; animate22.end + 1s" /><animate attributeName="x" from="15" to="64" dur="0.181" begin="animate2.end + 0.5" id="animate3" fill="freeze"/></rect><rect x="65" y="99" width="50" height="17" id="rect-4" fill="transparent" stroke="#000000"><set attributeName="x" to="15" begin="0; animate22.end + 1s" /><animate attributeName="x" from="15" to="65" dur="0.185" begin="animate3.end + 0.5" id="animate4" fill="freeze"/></rect><rect x="81" y="54" width="18" height="78" id="rect-5" fill="transparent" stroke="#000000"><set attributeName="y" to="-24" begin="0; animate22.end + 1s" /><animate attributeName="y" from="-24" to="54" dur="0.289" begin="animate4.end + 0.5" id="animate5" fill="freeze"/></rect><rect x="54" y="126" width="76" height="24" id="rect-6" fill="transparent" stroke="#000000"><set attributeName="x" to="-22" begin="0; animate22.end + 1s" /><animate attributeName="x" from="-22" to="54" dur="0.281" begin="animate5.end + 0.5" id="animate6" fill="freeze"/></rect><rect x="98" y="140" width="30" height="94" id="rect-7" fill="transparent" stroke="#000000"><set attributeName="y" to="46" begin="0; animate22.end + 1s" /><animate attributeName="y" from="46" to="140" dur="0.348" begin="animate6.end" id="animate7" fill="freeze"/></rect><rect x="73" y="205" width="27" height="29" id="rect-8" fill="transparent" stroke="#000000"><set attributeName="x" to="100" begin="0; animate22.end + 1s" /><animate attributeName="x" from="100" to="73" dur="0.100" begin="animate7.end" id="animate8" fill="freeze"/></rect><rect x="14" y="163" width="21" height="47" id="rect-9" fill="transparent" stroke="#000000"><set attributeName="y" to="116" begin="0; animate22.end + 1s" /><animate attributeName="y" from="116" to="163" dur="0.174" begin="animate8.end + 0.5" id="animate9" fill="freeze"/></rect><rect x="45" y="163" width="14" height="26" id="rect-10" fill="transparent" stroke="#000000"><set attributeName="y" to="137" begin="0; animate22.end + 1s" /><animate attributeName="y" from="137" to="163" dur="0.096" begin="animate9.end + 0.5" id="animate10" fill="freeze"/></rect><rect x="63" y="157" width="15" height="26" id="rect-11" fill="transparent" stroke="#000000"><set attributeName="y" to="131" begin="0; animate22.end + 1s" /><animate attributeName="y" from="131" to="157" dur="0.096" begin="animate10.end + 0.5" id="animate11" fill="freeze"/></rect><rect x="84" y="150" width="15" height="23" id="rect-12" fill="transparent" stroke="#000000"><set attributeName="y" to="127" begin="0; animate22.end + 1s" /><animate attributeName="y" from="127" to="150" dur="0.085" begin="animate11.end + 0.5" id="animate12" fill="freeze"/></rect><rect x="137" y="47" width="85" height="24" id="rect-13" fill="transparent" stroke="#000000"><set attributeName="x" to="52" begin="0; animate22.end + 1s" /><animate attributeName="x" from="52" to="137" dur="0.315" begin="animate12.end + 0.5" id="animate13" fill="freeze"/></rect><rect x="137" y="19" width="53" height="89" id="rect-14" fill="transparent" stroke="#000000"><set attributeName="y" to="-70" begin="0; animate22.end + 1s" /><animate attributeName="y" from="-70" to="19" dur="0.330" begin="animate13.end + 0.5" id="animate14" fill="freeze"/></rect><rect x="181" y="74" width="29" height="23" id="rect-15" fill="transparent" stroke="#000000"><set attributeName="x" to="152" begin="0; animate22.end + 1s" /><animate attributeName="x" from="152" to="181" dur="0.107" begin="animate14.end + 0.5" id="animate15" fill="freeze"/></rect><rect x="123" y="92" width="132" height="34" id="rect-16" fill="transparent" stroke="#000000"><set attributeName="x" to="-9" begin="0; animate22.end + 1s" /><animate attributeName="x" from="-9" to="123" dur="0.489" begin="animate15.end + 0.5" id="animate16" fill="freeze"/></rect><rect x="136" y="138" width="19" height="45" id="rect-17" fill="transparent" stroke="#000000"><set attributeName="y" to="93" begin="0; animate22.end + 1s" /><animate attributeName="y" from="93" to="138" dur="0.167" begin="animate16.end + 0.5" id="animate17" fill="freeze"/></rect><rect x="148" y="130" width="46" height="17" id="rect-18" fill="transparent" stroke="#000000"><set attributeName="x" to="102" begin="0; animate22.end + 1s" /><animate attributeName="x" from="102" to="148" dur="0.170" begin="animate17.end + 0.5" id="animate18" fill="freeze"/></rect><rect x="170" y="144" width="19" height="18" id="rect-19" fill="transparent" stroke="#000000"><set attributeName="y" to="126" begin="0; animate22.end + 1s" /><animate attributeName="y" from="126" to="144" dur="0.067" begin="animate18.end" id="animate19" fill="freeze"/></rect><rect x="154" y="162" width="35" height="12" id="rect-20" fill="transparent" stroke="#000000"><set attributeName="x" to="119" begin="0; animate22.end + 1s" /><animate attributeName="x" from="119" to="154" dur="0.130" begin="animate19.end + 0.5" id="animate20" fill="freeze"/></rect><rect x="199" y="111" width="22" height="139" id="rect-21" fill="transparent" stroke="#000000"><set attributeName="y" to="-28" begin="0; animate22.end + 1s" /><animate attributeName="y" from="-28" to="111" dur="0.515" begin="animate20.end + 0.5" id="animate21" fill="freeze"/></rect><rect x="175" y="221" width="27" height="26" id="rect-22" fill="transparent" stroke="#000000"><set attributeName="x" to="202" begin="0; animate22.end + 1s" /><animate attributeName="x" from="202" to="175" dur="0.100" begin="animate21.end" id="animate22" fill="freeze"/></rect></svg>