<svg xmlns="http://www.w3.org/2000/svg" xmlns:xlink="http://www.w3.org/1999/xlink" width="270" height="270"><defs><clipPath id="clip-mask-1"><use xlink:href="#rect-1" /></clipPath><clipPath id="clip-mask-2"><use xlink:href="#rect-2" /></clipPath><clipPath id="clip-mask-3"><use xlink:href="#rect-3" /></clipPath><clipPath id="clip-mask-4"><use xlink:href="#rect-4" /></clipPath><clipPath id="clip-mask-5"><use xlink:href="#rect-5" /></clipPath><clipPath id="clip-mask-6"><use xlink:href="#rect-6" /></clipPath><clipPath id="clip-mask-7"><use xlink:href="#rect-7" /></clipPath><clipPath id="clip-mask-8"><use xlink:href="#rect-8" /></clipPath><clipPath id="clip-mask-9"><use xlink:href="#rect-9" /></clipPath><clipPath id="clip-mask-10"><use xlink:href="#rect-10" /></clipPath><clipPath id="clip-mask-11"><use xlink:href="#rect-11" /></clipPath><clipPath id="clip-mask-12"><use xlink:href="#rect-12" /></clipPath><clipPath id="clip-mask-13"><use xlink:href="#rect-13" /></clipPath><clipPath id="clip-mask-14"><use xlink:href="#rect-14" /></clipPath><clipPath id="clip-mask-15"><use xlink:href="#rect-15" /></clipPath><clipPath id="clip-mask-16"><use xlink:href="#rect-16" /></clipPath><clipPath id="clip-mask-17"><use xlink:href="#rect-17" /></clipPath><clipPath id="clip-mask-18"><use xlink:href="#rect-18" /></clipPath><clipPath id="clip-mask-19"><use xlink:href="#rect-19" /></clipPath><clipPath id="clip-mask-20"><use xlink:href="#rect-20" /></clipPath><clipPath id="clip-mask-21"><use xlink:href="#rect-21" /></clipPath><clipPath id="clip-mask-22"><use xlink:href="#rect-22" /></clipPath><clipPath id="clip-mask-23"><use xlink:href="#rect-23" /></clipPath></defs><path d="M 0 0 L 270 270 M 270 0 L 0 270 M 135 0 L 135 270 M 0 135 L 270 135" stroke="#CCCCCC" /><path d="M 72 68 Q 45 98 34 99 Q 31 100 32 97 Q 32 96 35 94 Q 47 81 56 69 Q 75 43 72 34 Q 70 29 75 29 Q 79 29 85 34 Q 90 40 91 43 Q 92 46 90 48 Q 83 53 76 64" fill="#CCCCCC"/><path d="M 95 69 Q 94 69 93 69 Q 76 72 72 68 L 76 64 Q 80 63 84 62 Q 99 58 101 58 Q 105 55 109 57 Q 118 63 121 66 Q 124 70 119 72" fill="#CCCCCC"/><path d="M 71 114 Q 72 112 74 108 Q 82 97 94 73 Q 96 71 95 69 L 119 72 Q 108 79 96 93 Q 84 106 78 112" fill="#CCCCCC"/><path d="M 49 181 L 49 182 Q 48 186 44 181 Q 39 175 39 167 Q 34 140 27 124 Q 26 120 27 119 Q 27 117 31 118 Q 38 120 41 121 L 43 129 Q 44 138 49 165 Q 50 169 50 173 L 50 179" fill="#CCCCCC"/><path d="M 41 121 Q 67 114 71 114 L 78 112 Q 83 110 86 110 Q 104 105 107 106 Q 117 112 121 115 L 99 118 Q 95 115 74 120 L 66 122 Q 53 126 44 129 Q 43 129 43 129" fill="#CCCCCC"/><path d="M 94 164 Q 98 160 102 125 Q 102 120 99 118 L 121 115 Q 123 119 121 121 Q 116 127 114 135 Q 109 168 105 175 Q 102 180 100 178 Q 96 176 91 170" fill="#CCCCCC"/><path d="M 68 151 Q 55 152 55 152 Q 51 149 54 148 Q 60 146 68 143 L 78 140 Q 83 139 87 139 Q 92 140 94 143 Q 96 146 91 147 Q 85 147 78 149" fill="#CCCCCC"/><path d="M 68 167 Q 68 157 68 151 L 68 143 Q 67 130 66 122 L 74 120 Q 81 126 79 130 Q 79 131 79 134 Q 79 136 78 140 L 78 149 Q 77 156 77 164" fill="#CCCCCC"/><path d="M 50 173 Q 58 170 68 167 L 77 164 Q 84 162 89 162 Q 92 162 94 164 L 91 170 Q 75 173 55 178 Q 52 179 50 179" fill="#CCCCCC"/><path d="M 28 191 L 29 190 Q 31 190 32 191 Q 32 193 33 196 Q 33 226 30 235 Q 28 238 27 238 Q 24 239 22 237 Q 19 234 18 231 Q 15 225 26 195" fill="#CCCCCC"/><path d="M 44 198 L 44 196 Q 45 194 47 195 Q 59 202 60 209 Q 61 214 60 216 Q 58 219 55 218 Q 50 216 44 200" fill="#CCCCCC"/><path d="M 66 196 L 67 194 Q 68 192 70 193 Q 72 194 78 199 Q 82 202 83 205 Q 83 210 82 212 Q 80 215 78 214 Q 72 212 67 198" fill="#CCCCCC"/><path d="M 91 189 L 91 187 Q 91 184 92 184 Q 93 184 96 185 Q 113 193 113 201 Q 113 206 112 208 Q 111 210 109 210 Q 107 210 95 194" fill="#CCCCCC"/><path d="M 132 108 L 129 108 Q 125 109 126 106 Q 126 105 129 102 Q 140 86 148 71 Q 164 40 159 31 Q 157 25 162 24 Q 166 24 174 28 Q 181 34 182 37 Q 184 40 182 43 Q 178 47 174 55 Q 172 58 150 89 L 144 95" fill="#CCCCCC"/><path d="M 150 89 Q 182 84 203 75 Q 209 72 215 75 Q 223 78 226 82 Q 228 84 225 89 L 204 88 Q 203 87 200 87 Q 179 90 155 97 Q 150 98 144 95" fill="#CCCCCC"/><path d="M 225 89 Q 221 96 220 107 Q 216 157 203 172 Q 199 177 195 178 L 196 153 Q 199 150 201 141 Q 205 126 205 99 Q 205 91 204 88" fill="#CCCCCC"/><path d="M 195 178 Q 191 178 190 174 Q 187 165 181 154 Q 178 148 183 151 Q 195 154 196 153" fill="#CCCCCC"/><path d="M 155 124 L 159 121 Q 160 120 162 120 Q 163 119 177 127 Q 183 130 178 135 L 161 133 Q 160 131 156 132 Q 142 135 141 136 L 137 130" fill="#CCCCCC"/><path d="M 178 135 Q 172 141 168 157 L 157 156 Q 159 148 161 141 Q 163 134 161 133" fill="#CCCCCC"/><path d="M 168 157 Q 173 160 173 161 Q 173 163 170 164 Q 150 168 141 171 Q 139 171 137 171 L 138 163 Q 156 156 157 156" fill="#CCCCCC"/><path d="M 141 136 Q 141 136 141 137 Q 139 151 138 163 L 137 171 Q 136 195 142 205 L 140 225 Q 133 218 131 210 Q 126 197 128 149 Q 128 140 125 132 Q 124 127 125 126 Q 127 125 130 126 Q 135 127 137 130" fill="#CCCCCC"/><path d="M 142 205 Q 145 211 155 216 Q 179 227 208 219 Q 221 215 225 210 L 250 209 Q 254 217 248 221 Q 237 230 224 234 Q 220 235 216 236 Q 164 245 140 225" fill="#CCCCCC"/><path d="M 225 210 Q 229 203 236 181 Q 237 176 239 177 Q 241 178 241 182 Q 247 203 250 209" fill="#CCCCCC"/><path d="M 72 68 Q 45 98 34 99 Q 31 100 32 97 Q 32 96 35 94 Q 47 81 56 69 Q 75 43 72 34 Q 70 29 75 29 Q 79 29 85 34 Q 90 40 91 43 Q 92 46 90 48 Q 83 53 76 64" fill="#0000ff" clip-path="url(#clip-mask-1)" /><path d="M 95 69 Q 94 69 93 69 Q 76 72 72 68 L 76 64 Q 80 63 84 62 Q 99 58 101 58 Q 105 55 109 57 Q 118 63 121 66 Q 124 70 119 72" fill="#0000ff" clip-path="url(#clip-mask-2)" /><path d="M 71 114 Q 72 112 74 108 Q 82 97 94 73 Q 96 71 95 69 L 119 72 Q 108 79 96 93 Q 84 106 78 112" fill="#0000ff" clip-path="url(#clip-mask-3)" /><path d="M 49 181 L 49 182 Q 48 186 44 181 Q 39 175 39 167 Q 34 140 27 124 Q 26 120 27 119 Q 27 117 31 118 Q 38 120 41 121 L 43 129 Q 44 138 49 165 Q 50 169 50 173 L 50 179" fill="#0000ff" clip-path="url(#clip-mask-4)" /><path d="M 41 121 Q 67 114 71 114 L 78 112 Q 83 110 86 110 Q 104 105 107 106 Q 117 112 121 115 L 99 118 Q 95 115 74 120 L 66 122 Q 53 126 44 129 Q 43 129 43 129" fill="#0000ff" clip-path="url(#clip-mask-5)" /><path d="M 94 164 Q 98 160 102 125 Q 102 120 99 118 L 121 115 Q 123 119 121 121 Q 116 127 114 135 Q 109 168 105 175 Q 102 180 100 178 Q 96 176 91 170" fill="#0000ff" clip-path="url(#clip-mask-6)" /><path d="M 68 151 Q 55 152 55 152 Q 51 149 54 148 Q 60 146 68 143 L 78 140 Q 83 139 87 139 Q 92 140 94 143 Q 96 146 91 147 Q 85 147 78 149" fill="#0000ff" clip-path="url(#clip-mask-7)" /><path d="M 68 167 Q 68 157 68 151 L 68 143 Q 67 130 66 122 L 74 120 Q 81 126 79 130 Q 79 131 79 134 Q 79 136 78 140 L 78 149 Q 77 156 77 164" fill="#0000ff" clip-path="url(#clip-mask-8)" /><path d="M 50 173 Q 58 170 68 167 L 77 164 Q 84 162 89 162 Q 92 162 94 164 L 91 170 Q 75 173 55 178 Q 52 179 50 179" fill="#0000ff" clip-path="url(#clip-mask-9)" /><path d="M 28 191 L 29 190 Q 31 190 32 191 Q 32 193 33 196 Q 33 226 30 235 Q 28 238 27 238 Q 24 239 22 237 Q 19 234 18 231 Q 15 225 26 195" fill="#0000ff" clip-path="url(#clip-mask-10)" /><path d="M 44 198 L 44 196 Q 45 194 47 195 Q 59 202 60 209 Q 61 214 60 216 Q 58 219 55 218 Q 50 216 44 200" fill="#0000ff" clip-path="url(#clip-mask-11)" /><path d="M 66 196 L 67 194 Q 68 192 70 193 Q 72 194 78 199 Q 82 202 83 205 Q 83 210 82 212 Q 80 215 78 214 Q 72 212 67 198" fill="#0000ff" clip-path="url(#clip-mask-12)" /><path d="M 91 189 L 91 187 Q 91 184 92 184 Q 93 184 96 185 Q 113 193 113 201 Q 113 206 112 208 Q 111 210 109 210 Q 107 210 95 194" fill="#0000ff" clip-path="url(#clip-mask-13)" /><path d="M 132 108 L 129 108 Q 125 109 126 106 Q 126 105 129 102 Q 140 86 148 71 Q 164 40 159 31 Q 157 25 162 24 Q 166 24 174 28 Q 181 34 182 37 Q 184 40 182 43 Q 178 47 174 55 Q 172 58 150 89 L 144 95" fill="#000080" clip-path="url(#clip-mask-14)" /><path d="M 150 89 Q 182 84 203 75 Q 209 72 215 75 Q 223 78 226 82 Q 228 84 225 89 L 204 88 Q 203 87 200 87 Q 179 90 155 97 Q 150 98 144 95" fill="#000080" clip-path="url(#clip-mask-15)" /><path d="M 225 89 Q 221 96 220 107 Q 216 157 203 172 Q 199 177 195 178 L 196 153 Q 199 150 201 141 Q 205 126 205 99 Q 205 91 204 88" fill="#000080" clip-path="url(#clip-mask-16)" /><path d="M 195 178 Q 191 178 190 174 Q 187 165 181 154 Q 178 148 183 151 Q 195 154 196 153" fill="#000080" clip-path="url(#clip-mask-17)" /><path d="M 155 124 L 159 121 Q 160 120 162 120 Q 163 119 177 127 Q 183 130 178 135 L 161 133 Q 160 131 156 132 Q 142 135 141 136 L 137 130" fill="#000080" clip-path="url(#clip-mask-18)" /><path d="M 178 135 Q 172 141 168 157 L 157 156 Q 159 148 161 141 Q 163 134 161 133" fill="#000080" clip-path="url(#clip-mask-19)" /><path d="M 168 157 Q 173 160 173 161 Q 173 163 170 164 Q 150 168 141 171 Q 139 171 137 171 L 138 163 Q 156 156 157 156" fill="#000080" clip-path="url(#clip-mask-20)" /><path d="M 141 136 Q 141 136 141 137 Q 139 151 138 163 L 137 171 Q 136 195 142 205 L 140 225 Q 133 218 131 210 Q 126 197 128 149 Q 128 140 125 132 Q 124 127 125 126 Q 127 125 130 126 Q 135 127 137 130" fill="#000080" clip-path="url(#clip-mask-21)" /><path d="M 142 205 Q 145 211 155 216 Q 179 227 208 219 Q 221 215 225 210 L 250 209 Q 254 217 248 221 Q 237 230 224 234 Q 220 235 216 236 Q 164 245 140 225" fill="#000080" clip-path="url(#clip-mask-22)" /><path d="M 225 210 Q 229 203 236 181 Q 237 176 239 177 Q 241 178 241 182 Q 247 203 250 209" fill="#000080" clip-path="url(#clip-mask-23)" /><rect x="31" y="29" width="61" height="71" id="rect-1" fill="transparent" stroke="#000000"><animate attributeName="y" from="-42" to="29" dur="0.263" begin="0; animate23.end + 1s" id="animate1" fill="freeze"/></rect><rect x="72" y="55" width="52" height="17" id="rect-2" fill="transparent" stroke="#000000"><set attributeName="x" to="20" begin="0; animate23.end + 1s" /><animate attributeName="x" from="20" to="72" dur="0.193" begin="animate1.end + 0.5" id="animate2" fill="freeze"/></rect><rect x="71" y="69" width="48" height="45" id="rect-3" fill="transparent" stroke="#000000"><set attributeName="y" to="24" begin="0; animate23.end + 1s" /><animate attributeName="y" from="24" to="69" dur="0.167" begin="animate2.end" id="animate3" fill="freeze"/></rect><rect x="26" y="117" width="24" height="69" id="rect-4" fill="transparent" stroke="#000000"><set attributeName="y" to="48" begin="0; animate23.end + 1s" /><animate attributeName="y" from="48" to="117" dur="0.256" begin="animate3.end + 0.5" id="animate4" fill="freeze"/></rect><rect x="41" y="105" width="80" height="24" id="rect-5" fill="transparent" stroke="#000000"><set attributeName="x" to="-39" begin="0; animate23.end + 1s" /><animate attributeName="x" from="-39" to="41" dur="0.296" begin="animate4.end + 0.5" id="animate5" fill="freeze"/></rect><rect x="91" y="115" width="32" height="65" id="rect-6" fill="transparent" stroke="#000000"><set attributeName="y" to="50" begin="0; animate23.end + 1s" /><animate attributeName="y" from="50" to="115" dur="0.241" begin="animate5.end" id="animate6" fill="freeze"/></rect><rect x="51" y="139" width="45" height="13" id="rect-7" fill="transparent" stroke="#000000"><set attributeName="x" to="6" begin="0; animate23.end + 1s" /><animate attributeName="x" from="6" to="51" dur="0.167" begin="animate6.end + 0.5" id="animate7" fill="freeze"/></rect><rect x="66" y="120" width="15" height="47" id="rect-8" fill="transparent" stroke="#000000"><set attributeName="y" to="73" begin="0; animate23.end + 1s" /><animate attributeName="y" from="73" to="120" dur="0.174" begin="animate7.end + 0.5" id="animate8" fill="freeze"/></rect><rect x="50" y="162" width="44" height="17" id="rect-9" fill="transparent" stroke="#000000"><set attributeName="x" to="6" begin="0; animate23.end + 1s" /><animate attributeName="x" from="6" to="50" dur="0.163" begin="animate8.end + 0.5" id="animate9" fill="freeze"/></rect><rect x="15" y="190" width="18" height="49" id="rect-10" fill="transparent" stroke="#000000"><set attributeName="y" to="141" begin="0; animate23.end + 1s" /><animate attributeName="y" from="141" to="190" dur="0.181" begin="animate9.end + 0.5" id="animate10" fill="freeze"/></rect><rect x="44" y="194" width="17" height="25" id="rect-11" fill="transparent" stroke="#000000"><set attributeName="y" to="169" begin="0; animate23.end + 1s" /><animate attributeName="y" from="169" to="194" dur="0.093" begin="animate10.end + 0.5" id="animate11" fill="freeze"/></rect><rect x="66" y="192" width="17" height="23" id="rect-12" fill="transparent" stroke="#000000"><set attributeName="y" to="169" begin="0; animate23.end + 1s" /><animate attributeName="y" from="169" to="192" dur="0.085" begin="animate11.end + 0.5" id="animate12" fill="freeze"/></rect><rect x="91" y="184" width="22" height="26" id="rect-13" fill="transparent" stroke="#000000"><set attributeName="y" to="158" begin="0; animate23.end + 1s" /><animate attributeName="y" from="158" to="184" dur="0.096" begin="animate12.end + 0.5" id="animate13" fill="freeze"/></rect><rect x="125" y="24" width="59" height="85" id="rect-14" fill="transparent" stroke="#000000"><set attributeName="y" to="-61" begin="0; animate23.end + 1s" /><animate attributeName="y" from="-61" to="24" dur="0.315" begin="animate13.end + 0.5" id="animate14" fill="freeze"/></rect><rect x="144" y="72" width="84" height="26" id="rect-15" fill="transparent" stroke="#000000"><set attributeName="x" to="60" begin="0; animate23.end + 1s" /><animate attributeName="x" from="60" to="144" dur="0.311" begin="animate14.end + 0.5" id="animate15" fill="freeze"/></rect><rect x="195" y="88" width="30" height="90" id="rect-16" fill="transparent" stroke="#000000"><set attributeName="y" to="-2" begin="0; animate23.end + 1s" /><animate attributeName="y" from="-2" to="88" dur="0.333" begin="animate15.end" id="animate16" fill="freeze"/></rect><rect x="178" y="148" width="18" height="30" id="rect-17" fill="transparent" stroke="#000000"><set attributeName="x" to="196" begin="0; animate23.end + 1s" /><animate attributeName="x" from="196" to="178" dur="0.067" begin="animate16.end" id="animate17" fill="freeze"/></rect><rect x="137" y="119" width="46" height="17" id="rect-18" fill="transparent" stroke="#000000"><set attributeName="x" to="91" begin="0; animate23.end + 1s" /><animate attributeName="x" from="91" to="137" dur="0.170" begin="animate17.end + 0.5" id="animate18" fill="freeze"/></rect><rect x="157" y="133" width="21" height="24" id="rect-19" fill="transparent" stroke="#000000"><set attributeName="y" to="109" begin="0; animate23.end + 1s" /><animate attributeName="y" from="109" to="133" dur="0.089" begin="animate18.end" id="animate19" fill="freeze"/></rect><rect x="137" y="156" width="36" height="15" id="rect-20" fill="transparent" stroke="#000000"><set attributeName="x" to="101" begin="0; animate23.end + 1s" /><animate attributeName="x" from="101" to="137" dur="0.133" begin="animate19.end + 0.5" id="animate20" fill="freeze"/></rect><rect x="124" y="125" width="18" height="100" id="rect-21" fill="transparent" stroke="#000000"><set attributeName="y" to="25" begin="0; animate23.end + 1s" /><animate attributeName="y" from="25" to="125" dur="0.370" begin="animate20.end + 0.5" id="animate21" fill="freeze"/></rect><rect x="140" y="205" width="114" height="40" id="rect-22" fill="transparent" stroke="#000000"><set attributeName="x" to="26" begin="0; animate23.end + 1s" /><animate attributeName="x" from="26" to="140" dur="0.422" begin="animate21.end" id="animate22" fill="freeze"/></rect><rect x="225" y="176" width="25" height="34" id="rect-23" fill="transparent" stroke="#000000"><set attributeName="y" to="210" begin="0; animate23.end + 1s" /><animate attributeName="y" from="210" to="176" dur="0.126" begin="animate22.end" id="animate23" fill="freeze"/></rect></svg>