<svg xmlns="http://www.w3.org/2000/svg" xmlns:xlink="http://www.w3.org/1999/xlink" width="270" height="270"><defs><clipPath id="clip-mask-1"><use xlink:href="#rect-1" /></clipPath><clipPath id="clip-mask-2"><use xlink:href="#rect-2" /></clipPath><clipPath id="clip-mask-3"><use xlink:href="#rect-3" /></clipPath><clipPath id="clip-mask-4"><use xlink:href="#rect-4" /></clipPath><clipPath id="clip-mask-5"><use xlink:href="#rect-5" /></clipPath><clipPath id="clip-mask-6"><use xlink:href="#rect-6" /></clipPath><clipPath id="clip-mask-7"><use xlink:href="#rect-7" /></clipPath><clipPath id="clip-mask-8"><use xlink:href="#rect-8" /></clipPath><clipPath id="clip-mask-9"><use xlink:href="#rect-9" /></clipPath><clipPath id="clip-mask-10"><use xlink:href="#rect-10" /></clipPath><clipPath id="clip-mask-11"><use xlink:href="#rect-11" /></clipPath><clipPath id="clip-mask-12"><use xlink:href="#rect-12" /></clipPath><clipPath id="clip-mask-13"><use xlink:href="#rect-13" /></clipPath><clipPath id="clip-mask-14"><use xlink:href="#rect-14" /></clipPath><clipPath id="clip-mask-15"><use xlink:href="#rect-15" /></clipPath><clipPath id="clip-mask-16"><use xlink:href="#rect-16" /></clipPath></defs><path d="M 0 0 L 270 270 M 270 0 L 0 270 M 135 0 L 135 270 M 0 135 L 270 135" stroke="#CCCCCC" /><path d="M 115 120 L 111 118 Q 108 116 105 110 Q 101 102 102 93 Q 103 48 93 29 Q 91 25 93 24 Q 95 23 97 23 Q 103 26 110 31 L 114 38 Q 114 38 114 39 Q 114 47 114 56 L 114 63 Q 114 73 115 78 L 115 86 Q 117 101 117 103 L 116 112" fill="#CCCCCC"/><path d="M 162 31 L 162 31 Q 156 27 114 38 L 110 31 Q 120 29 143 25 Q 164 17 168 19 Q 180 24 187 31" fill="#CCCCCC"/><path d="M 160 99 Q 160 98 160 97 Q 163 90 164 50 Q 164 36 162 31 L 187 31 Q 189 33 186 38 Q 177 50 180 96 L 180 96 Q 180 102 176 109 Q 171 117 167 117 Q 165 117 162 109 Q 160 107 160 106" fill="#CCCCCC"/><path d="M 114 56 Q 133 48 142 49 Q 149 49 151 53 Q 154 57 148 58 Q 134 60 115 63 Q 114 63 114 63" fill="#CCCCCC"/><path d="M 115 78 Q 136 71 144 72 Q 151 74 153 78 Q 156 81 149 82 Q 135 83 116 86 Q 115 86 115 86" fill="#CCCCCC"/><path d="M 117 103 Q 130 101 146 97 Q 153 95 157 97 Q 159 98 160 99 L 160 106 Q 125 109 116 112" fill="#CCCCCC"/><path d="M 69 156 Q 64 160 62 159 Q 58 157 56 153 Q 53 150 55 146 Q 58 143 58 138 Q 62 116 57 110 Q 53 105 55 104 Q 58 102 63 103 Q 69 104 75 109 Q 78 112 76 117 Q 73 125 72 138" fill="#CCCCCC"/><path d="M 98 145 Q 80 149 69 156 L 72 138 Q 71 142 79 141 Q 95 138 104 133 Q 107 130 113 132 Q 123 136 126 140" fill="#CCCCCC"/><path d="M 107 170 Q 107 148 106 146 Q 103 144 98 145 L 126 140 Q 129 143 124 149 Q 116 158 120 221 Q 121 229 119 239 Q 116 245 113 244 Q 109 243 104 231 Q 101 225 103 220 Q 107 202 107 182" fill="#CCCCCC"/><path d="M 56 195 L 46 189 Q 42 186 43 183 Q 43 181 47 181 Q 59 179 100 170 Q 104 169 107 170 L 107 182 Q 88 184 76 189 L 67 192 Q 67 192 67 192" fill="#CCCCCC"/><path d="M 76 189 Q 80 192 83 197 Q 85 201 83 203 Q 78 210 78 212 Q 55 245 39 249 Q 38 249 38 248 Q 38 246 40 245 Q 70 209 67 192" fill="#CCCCCC"/><path d="M 195 128 Q 206 96 205 88 Q 205 84 207 83 Q 210 82 213 85 Q 218 88 224 96 Q 227 101 225 104 Q 224 105 223 106 Q 221 108 219 110 Q 213 119 207 129" fill="#CCCCCC"/><path d="M 165 136 Q 178 133 192 128 Q 194 128 195 128 L 207 129 Q 216 133 216 135 Q 216 138 212 139 Q 187 141 175 145 Q 172 145 170 145" fill="#CCCCCC"/><path d="M 169 187 L 169 192 Q 168 242 164 248 Q 162 252 158 248 Q 148 236 152 219 Q 154 210 154 203 Q 154 146 151 140 Q 150 138 149 136 Q 148 132 150 131 Q 153 130 156 131 Q 162 133 165 136 L 170 145 Q 170 147 170 149 Q 169 151 169 175 L 169 183" fill="#CCCCCC"/><path d="M 169 175 Q 189 172 204 166 Q 211 163 220 167 Q 228 169 230 172 L 200 178 Q 173 183 169 183" fill="#CCCCCC"/><path d="M 230 172 Q 231 173 227 181 Q 226 182 225 215 Q 226 231 225 235 Q 224 241 221 241 Q 218 242 210 231 Q 206 225 207 217 Q 210 194 208 182 Q 206 177 200 178" fill="#CCCCCC"/><path d="M 115 120 L 111 118 Q 108 116 105 110 Q 101 102 102 93 Q 103 48 93 29 Q 91 25 93 24 Q 95 23 97 23 Q 103 26 110 31 L 114 38 Q 114 38 114 39 Q 114 47 114 56 L 114 63 Q 114 73 115 78 L 115 86 Q 117 101 117 103 L 116 112" fill="#0000ff" clip-path="url(#clip-mask-1)" /><path d="M 162 31 L 162 31 Q 156 27 114 38 L 110 31 Q 120 29 143 25 Q 164 17 168 19 Q 180 24 187 31" fill="#0000ff" clip-path="url(#clip-mask-2)" /><path d="M 160 99 Q 160 98 160 97 Q 163 90 164 50 Q 164 36 162 31 L 187 31 Q 189 33 186 38 Q 177 50 180 96 L 180 96 Q 180 102 176 109 Q 171 117 167 117 Q 165 117 162 109 Q 160 107 160 106" fill="#0000ff" clip-path="url(#clip-mask-3)" /><path d="M 114 56 Q 133 48 142 49 Q 149 49 151 53 Q 154 57 148 58 Q 134 60 115 63 Q 114 63 114 63" fill="#0000ff" clip-path="url(#clip-mask-4)" /><path d="M 115 78 Q 136 71 144 72 Q 151 74 153 78 Q 156 81 149 82 Q 135 83 116 86 Q 115 86 115 86" fill="#0000ff" clip-path="url(#clip-mask-5)" /><path d="M 117 103 Q 130 101 146 97 Q 153 95 157 97 Q 159 98 160 99 L 160 106 Q 125 109 116 112" fill="#0000ff" clip-path="url(#clip-mask-6)" /><path d="M 69 156 Q 64 160 62 159 Q 58 157 56 153 Q 53 150 55 146 Q 58 143 58 138 Q 62 116 57 110 Q 53 105 55 104 Q 58 102 63 103 Q 69 104 75 109 Q 78 112 76 117 Q 73 125 72 138" fill="#0000ff" clip-path="url(#clip-mask-7)" /><path d="M 98 145 Q 80 149 69 156 L 72 138 Q 71 142 79 141 Q 95 138 104 133 Q 107 130 113 132 Q 123 136 126 140" fill="#0000ff" clip-path="url(#clip-mask-8)" /><path d="M 107 170 Q 107 148 106 146 Q 103 144 98 145 L 126 140 Q 129 143 124 149 Q 116 158 120 221 Q 121 229 119 239 Q 116 245 113 244 Q 109 243 104 231 Q 101 225 103 220 Q 107 202 107 182" fill="#0000ff" clip-path="url(#clip-mask-9)" /><path d="M 56 195 L 46 189 Q 42 186 43 183 Q 43 181 47 181 Q 59 179 100 170 Q 104 169 107 170 L 107 182 Q 88 184 76 189 L 67 192 Q 67 192 67 192" fill="#0000ff" clip-path="url(#clip-mask-10)" /><path d="M 76 189 Q 80 192 83 197 Q 85 201 83 203 Q 78 210 78 212 Q 55 245 39 249 Q 38 249 38 248 Q 38 246 40 245 Q 70 209 67 192" fill="#0000ff" clip-path="url(#clip-mask-11)" /><path d="M 195 128 Q 206 96 205 88 Q 205 84 207 83 Q 210 82 213 85 Q 218 88 224 96 Q 227 101 225 104 Q 224 105 223 106 Q 221 108 219 110 Q 213 119 207 129" fill="#0000ff" clip-path="url(#clip-mask-12)" /><path d="M 165 136 Q 178 133 192 128 Q 194 128 195 128 L 207 129 Q 216 133 216 135 Q 216 138 212 139 Q 187 141 175 145 Q 172 145 170 145" fill="#0000ff" clip-path="url(#clip-mask-13)" /><path d="M 169 187 L 169 192 Q 168 242 164 248 Q 162 252 158 248 Q 148 236 152 219 Q 154 210 154 203 Q 154 146 151 140 Q 150 138 149 136 Q 148 132 150 131 Q 153 130 156 131 Q 162 133 165 136 L 170 145 Q 170 147 170 149 Q 169 151 169 175 L 169 183" fill="#0000ff" clip-path="url(#clip-mask-14)" /><path d="M 169 175 Q 189 172 204 166 Q 211 163 220 167 Q 228 169 230 172 L 200 178 Q 173 183 169 183" fill="#0000ff" clip-path="url(#clip-mask-15)" /><path d="M 230 172 Q 231 173 227 181 Q 226 182 225 215 Q 226 231 225 235 Q 224 241 221 241 Q 218 242 210 231 Q 206 225 207 217 Q 210 194 208 182 Q 206 177 200 178" fill="#0000ff" clip-path="url(#clip-mask-16)" /><rect x="91" y="23" width="26" height="97" id="rect-1" fill="transparent" stroke="#000000"><animate attributeName="y" from="-74" to="23" dur="0.359" begin="0; animate16.end + 1s" id="animate1" fill="freeze"/></rect><rect x="110" y="17" width="77" height="21" id="rect-2" fill="transparent" stroke="#000000"><set attributeName="x" to="33" begin="0; animate16.end + 1s" /><animate attributeName="x" from="33" to="110" dur="0.285" begin="animate1.end + 0.5" id="animate2" fill="freeze"/></rect><rect x="160" y="31" width="29" height="86" id="rect-3" fill="transparent" stroke="#000000"><set attributeName="y" to="-55" begin="0; animate16.end + 1s" /><animate attributeName="y" from="-55" to="31" dur="0.319" begin="animate2.end" id="animate3" fill="freeze"/></rect><rect x="114" y="48" width="40" height="15" id="rect-4" fill="transparent" stroke="#000000"><set attributeName="x" to="74" begin="0; animate16.end + 1s" /><animate attributeName="x" from="74" to="114" dur="0.148" begin="animate3.end + 0.5" id="animate4" fill="freeze"/></rect><rect x="115" y="71" width="41" height="15" id="rect-5" fill="transparent" stroke="#000000"><set attributeName="x" to="74" begin="0; animate16.end + 1s" /><animate attributeName="x" from="74" to="115" dur="0.152" begin="animate4.end + 0.5" id="animate5" fill="freeze"/></rect><rect x="116" y="95" width="44" height="17" id="rect-6" fill="transparent" stroke="#000000"><set attributeName="x" to="72" begin="0; animate16.end + 1s" /><animate attributeName="x" from="72" to="116" dur="0.163" begin="animate5.end + 0.5" id="animate6" fill="freeze"/></rect><rect x="53" y="102" width="25" height="58" id="rect-7" fill="transparent" stroke="#000000"><set attributeName="y" to="44" begin="0; animate16.end + 1s" /><animate attributeName="y" from="44" to="102" dur="0.215" begin="animate6.end + 0.5" id="animate7" fill="freeze"/></rect><rect x="69" y="130" width="57" height="26" id="rect-8" fill="transparent" stroke="#000000"><set attributeName="x" to="12" begin="0; animate16.end + 1s" /><animate attributeName="x" from="12" to="69" dur="0.211" begin="animate7.end" id="animate8" fill="freeze"/></rect><rect x="98" y="140" width="31" height="105" id="rect-9" fill="transparent" stroke="#000000"><set attributeName="y" to="35" begin="0; animate16.end + 1s" /><animate attributeName="y" from="35" to="140" dur="0.389" begin="animate8.end" id="animate9" fill="freeze"/></rect><rect x="42" y="169" width="65" height="26" id="rect-10" fill="transparent" stroke="#000000"><set attributeName="x" to="-23" begin="0; animate16.end + 1s" /><animate attributeName="x" from="-23" to="42" dur="0.241" begin="animate9.end + 0.5" id="animate10" fill="freeze"/></rect><rect x="38" y="189" width="47" height="60" id="rect-11" fill="transparent" stroke="#000000"><set attributeName="y" to="129" begin="0; animate16.end + 1s" /><animate attributeName="y" from="129" to="189" dur="0.222" begin="animate10.end + 0.5" id="animate11" fill="freeze"/></rect><rect x="195" y="82" width="32" height="47" id="rect-12" fill="transparent" stroke="#000000"><set attributeName="y" to="35" begin="0; animate16.end + 1s" /><animate attributeName="y" from="35" to="82" dur="0.174" begin="animate11.end + 0.5" id="animate12" fill="freeze"/></rect><rect x="165" y="128" width="51" height="17" id="rect-13" fill="transparent" stroke="#000000"><set attributeName="x" to="114" begin="0; animate16.end + 1s" /><animate attributeName="x" from="114" to="165" dur="0.189" begin="animate12.end + 0.5" id="animate13" fill="freeze"/></rect><rect x="148" y="130" width="22" height="122" id="rect-14" fill="transparent" stroke="#000000"><set attributeName="y" to="8" begin="0; animate16.end + 1s" /><animate attributeName="y" from="8" to="130" dur="0.452" begin="animate13.end + 0.5" id="animate14" fill="freeze"/></rect><rect x="169" y="163" width="61" height="20" id="rect-15" fill="transparent" stroke="#000000"><set attributeName="x" to="108" begin="0; animate16.end + 1s" /><animate attributeName="x" from="108" to="169" dur="0.226" begin="animate14.end + 0.5" id="animate15" fill="freeze"/></rect><rect x="200" y="172" width="31" height="70" id="rect-16" fill="transparent" stroke="#000000"><set attributeName="y" to="102" begin="0; animate16.end + 1s" /><animate attributeName="y" from="102" to="172" dur="0.259" begin="animate15.end" id="animate16" fill="freeze"/></rect></svg>