<svg xmlns="http://www.w3.org/2000/svg" xmlns:xlink="http://www.w3.org/1999/xlink" width="270" height="270"><defs><clipPath id="clip-mask-1"><use xlink:href="#rect-1" /></clipPath><clipPath id="clip-mask-2"><use xlink:href="#rect-2" /></clipPath><clipPath id="clip-mask-3"><use xlink:href="#rect-3" /></clipPath><clipPath id="clip-mask-4"><use xlink:href="#rect-4" /></clipPath><clipPath id="clip-mask-5"><use xlink:href="#rect-5" /></clipPath><clipPath id="clip-mask-6"><use xlink:href="#rect-6" /></clipPath><clipPath id="clip-mask-7"><use xlink:href="#rect-7" /></clipPath><clipPath id="clip-mask-8"><use xlink:href="#rect-8" /></clipPath><clipPath id="clip-mask-9"><use xlink:href="#rect-9" /></clipPath><clipPath id="clip-mask-10"><use xlink:href="#rect-10" /></clipPath><clipPath id="clip-mask-11"><use xlink:href="#rect-11" /></clipPath><clipPath id="clip-mask-12"><use xlink:href="#rect-12" /></clipPath><clipPath id="clip-mask-13"><use xlink:href="#rect-13" /></clipPath><clipPath id="clip-mask-14"><use xlink:href="#rect-14" /></clipPath><clipPath id="clip-mask-15"><use xlink:href="#rect-15" /></clipPath><clipPath id="clip-mask-16"><use xlink:href="#rect-16" /></clipPath><clipPath id="clip-mask-17"><use xlink:href="#rect-17" /></clipPath><clipPath id="clip-mask-18"><use xlink:href="#rect-18" /></clipPath></defs><path d="M 0 0 L 270 270 M 270 0 L 0 270 M 135 0 L 135 270 M 0 135 L 270 135" stroke="#CCCCCC" /><path d="M 65 56 Q 68 53 72 50 Q 96 28 96 21 Q 95 18 98 18 Q 102 18 107 22 Q 114 26 116 31 Q 118 36 113 38 Q 105 40 86 51 Q 79 56 67 62" fill="#CCCCCC"/><path d="M 83 116 Q 83 118 82 119 Q 82 124 75 118 Q 69 114 68 105 Q 58 77 47 61 Q 44 57 45 55 Q 46 54 50 54 Q 61 54 64 55 Q 64 56 65 56 L 67 62 Q 68 67 73 81 L 75 88 Q 81 102 82 108" fill="#CCCCCC"/><path d="M 73 81 Q 86 73 96 74 Q 102 75 105 78 Q 107 81 102 82 Q 90 84 75 88" fill="#CCCCCC"/><path d="M 160 48 Q 155 47 139 51 Q 131 53 124 49 Q 119 46 120 45 Q 121 44 125 44 Q 125 44 126 44 Q 162 34 169 38 Q 182 45 186 49" fill="#CCCCCC"/><path d="M 149 100 L 149 100 Q 151 95 156 76 L 158 68 Q 159 64 160 59 Q 162 50 160 48 L 186 49 Q 190 54 185 58 Q 175 65 170 79 Q 163 104 159 109 Q 157 113 153 113 Q 150 114 149 109 Q 148 109 148 108" fill="#CCCCCC"/><path d="M 156 76 Q 144 77 129 79 Q 125 79 124 78 Q 119 74 123 73 Q 123 73 124 73 Q 151 64 158 68" fill="#CCCCCC"/><path d="M 149 100 L 148 108 Q 105 112 86 116 Q 84 116 83 116 L 82 108 Q 106 105 137 99 Q 145 97 149 101" fill="#CCCCCC"/><path d="M 52 150 L 48 143 Q 46 138 48 137 Q 49 136 53 137 Q 63 141 66 145 Q 69 147 67 151 Q 65 157 58 208 Q 57 210 58 211 L 39 241 Q 35 244 33 241 Q 29 237 28 230 Q 27 225 31 222 Q 41 213 44 205 Q 48 197 50 182 Q 52 164 52 159" fill="#CCCCCC"/><path d="M 58 211 Q 59 212 61 211 Q 85 203 87 203 Q 89 203 88 204 Q 87 207 83 209 Q 50 230 39 241" fill="#CCCCCC"/><path d="M 72 146 L 72 144 Q 71 141 74 141 Q 85 139 90 143 Q 94 147 94 150 Q 94 155 91 155 Q 87 156 82 153 Q 78 150 75 147" fill="#CCCCCC"/><path d="M 70 176 L 70 174 Q 69 171 72 171 Q 83 168 90 173 Q 93 177 94 180 Q 94 184 91 185 Q 86 187 72 177" fill="#CCCCCC"/><path d="M 115 149 L 115 160 Q 115 174 113 201 Q 112 207 115 208 L 108 232 Q 105 236 101 234 Q 95 231 92 228 Q 90 225 93 220 Q 99 211 101 203 Q 108 149 97 134 Q 94 130 97 128 Q 99 126 103 128 Q 109 130 115 135 Q 117 137 117 141" fill="#CCCCCC"/><path d="M 115 208 Q 116 209 119 208 Q 144 201 145 201 Q 147 201 145 204 Q 142 208 134 212 Q 113 224 108 232" fill="#CCCCCC"/><path d="M 119 137 L 119 135 Q 118 133 120 132 Q 123 131 131 131 Q 136 130 140 132 Q 144 135 145 139 Q 145 143 142 144 Q 137 146 122 139" fill="#CCCCCC"/><path d="M 121 171 L 121 169 Q 120 166 123 166 Q 137 164 143 170 Q 147 174 147 178 Q 147 183 144 183 Q 138 184 123 173" fill="#CCCCCC"/><path d="M 168 147 L 171 170 Q 174 204 200 220 L 200 241 Q 157 215 155 145 Q 153 132 149 123 Q 149 119 153 118 Q 157 118 165 124 Q 173 129 171 136" fill="#CCCCCC"/><path d="M 200 220 Q 212 228 218 225 L 238 236 Q 242 247 234 249 Q 227 251 210 246 Q 205 245 200 241" fill="#CCCCCC"/><path d="M 218 225 Q 222 224 224 212 Q 226 203 227 198 Q 228 195 231 197 Q 232 199 233 214 Q 235 227 238 236" fill="#CCCCCC"/><path d="M 65 56 Q 68 53 72 50 Q 96 28 96 21 Q 95 18 98 18 Q 102 18 107 22 Q 114 26 116 31 Q 118 36 113 38 Q 105 40 86 51 Q 79 56 67 62" fill="#0000ff" clip-path="url(#clip-mask-1)" /><path d="M 83 116 Q 83 118 82 119 Q 82 124 75 118 Q 69 114 68 105 Q 58 77 47 61 Q 44 57 45 55 Q 46 54 50 54 Q 61 54 64 55 Q 64 56 65 56 L 67 62 Q 68 67 73 81 L 75 88 Q 81 102 82 108" fill="#0000ff" clip-path="url(#clip-mask-2)" /><path d="M 73 81 Q 86 73 96 74 Q 102 75 105 78 Q 107 81 102 82 Q 90 84 75 88" fill="#0000ff" clip-path="url(#clip-mask-3)" /><path d="M 160 48 Q 155 47 139 51 Q 131 53 124 49 Q 119 46 120 45 Q 121 44 125 44 Q 125 44 126 44 Q 162 34 169 38 Q 182 45 186 49" fill="#0000ff" clip-path="url(#clip-mask-4)" /><path d="M 149 100 L 149 100 Q 151 95 156 76 L 158 68 Q 159 64 160 59 Q 162 50 160 48 L 186 49 Q 190 54 185 58 Q 175 65 170 79 Q 163 104 159 109 Q 157 113 153 113 Q 150 114 149 109 Q 148 109 148 108" fill="#0000ff" clip-path="url(#clip-mask-5)" /><path d="M 156 76 Q 144 77 129 79 Q 125 79 124 78 Q 119 74 123 73 Q 123 73 124 73 Q 151 64 158 68" fill="#0000ff" clip-path="url(#clip-mask-6)" /><path d="M 149 100 L 148 108 Q 105 112 86 116 Q 84 116 83 116 L 82 108 Q 106 105 137 99 Q 145 97 149 101" fill="#0000ff" clip-path="url(#clip-mask-7)" /><path d="M 52 150 L 48 143 Q 46 138 48 137 Q 49 136 53 137 Q 63 141 66 145 Q 69 147 67 151 Q 65 157 58 208 Q 57 210 58 211 L 39 241 Q 35 244 33 241 Q 29 237 28 230 Q 27 225 31 222 Q 41 213 44 205 Q 48 197 50 182 Q 52 164 52 159" fill="#0000ff" clip-path="url(#clip-mask-8)" /><path d="M 58 211 Q 59 212 61 211 Q 85 203 87 203 Q 89 203 88 204 Q 87 207 83 209 Q 50 230 39 241" fill="#0000ff" clip-path="url(#clip-mask-9)" /><path d="M 72 146 L 72 144 Q 71 141 74 141 Q 85 139 90 143 Q 94 147 94 150 Q 94 155 91 155 Q 87 156 82 153 Q 78 150 75 147" fill="#0000ff" clip-path="url(#clip-mask-10)" /><path d="M 70 176 L 70 174 Q 69 171 72 171 Q 83 168 90 173 Q 93 177 94 180 Q 94 184 91 185 Q 86 187 72 177" fill="#0000ff" clip-path="url(#clip-mask-11)" /><path d="M 115 149 L 115 160 Q 115 174 113 201 Q 112 207 115 208 L 108 232 Q 105 236 101 234 Q 95 231 92 228 Q 90 225 93 220 Q 99 211 101 203 Q 108 149 97 134 Q 94 130 97 128 Q 99 126 103 128 Q 109 130 115 135 Q 117 137 117 141" fill="#0000ff" clip-path="url(#clip-mask-12)" /><path d="M 115 208 Q 116 209 119 208 Q 144 201 145 201 Q 147 201 145 204 Q 142 208 134 212 Q 113 224 108 232" fill="#0000ff" clip-path="url(#clip-mask-13)" /><path d="M 119 137 L 119 135 Q 118 133 120 132 Q 123 131 131 131 Q 136 130 140 132 Q 144 135 145 139 Q 145 143 142 144 Q 137 146 122 139" fill="#0000ff" clip-path="url(#clip-mask-14)" /><path d="M 121 171 L 121 169 Q 120 166 123 166 Q 137 164 143 170 Q 147 174 147 178 Q 147 183 144 183 Q 138 184 123 173" fill="#0000ff" clip-path="url(#clip-mask-15)" /><path d="M 168 147 L 171 170 Q 174 204 200 220 L 200 241 Q 157 215 155 145 Q 153 132 149 123 Q 149 119 153 118 Q 157 118 165 124 Q 173 129 171 136" fill="#0000ff" clip-path="url(#clip-mask-16)" /><path d="M 200 220 Q 212 228 218 225 L 238 236 Q 242 247 234 249 Q 227 251 210 246 Q 205 245 200 241" fill="#0000ff" clip-path="url(#clip-mask-17)" /><path d="M 218 225 Q 222 224 224 212 Q 226 203 227 198 Q 228 195 231 197 Q 232 199 233 214 Q 235 227 238 236" fill="#0000ff" clip-path="url(#clip-mask-18)" /><rect x="65" y="18" width="53" height="44" id="rect-1" fill="transparent" stroke="#000000"><animate attributeName="x" from="118" to="65" dur="0.196" begin="0; animate18.end + 1s" id="animate1" fill="freeze"/></rect><rect x="44" y="54" width="39" height="70" id="rect-2" fill="transparent" stroke="#000000"><set attributeName="y" to="-16" begin="0; animate18.end + 1s" /><animate attributeName="y" from="-16" to="54" dur="0.259" begin="animate1.end + 0.5" id="animate2" fill="freeze"/></rect><rect x="73" y="73" width="34" height="15" id="rect-3" fill="transparent" stroke="#000000"><set attributeName="x" to="39" begin="0; animate18.end + 1s" /><animate attributeName="x" from="39" to="73" dur="0.126" begin="animate2.end + 0.5" id="animate3" fill="freeze"/></rect><rect x="119" y="34" width="67" height="19" id="rect-4" fill="transparent" stroke="#000000"><set attributeName="x" to="52" begin="0; animate18.end + 1s" /><animate attributeName="x" from="52" to="119" dur="0.248" begin="animate3.end + 0.5" id="animate4" fill="freeze"/></rect><rect x="148" y="48" width="42" height="66" id="rect-5" fill="transparent" stroke="#000000"><set attributeName="y" to="-18" begin="0; animate18.end + 1s" /><animate attributeName="y" from="-18" to="48" dur="0.244" begin="animate4.end" id="animate5" fill="freeze"/></rect><rect x="119" y="64" width="39" height="15" id="rect-6" fill="transparent" stroke="#000000"><set attributeName="x" to="80" begin="0; animate18.end + 1s" /><animate attributeName="x" from="80" to="119" dur="0.144" begin="animate5.end + 0.5" id="animate6" fill="freeze"/></rect><rect x="82" y="97" width="67" height="19" id="rect-7" fill="transparent" stroke="#000000"><set attributeName="x" to="15" begin="0; animate18.end + 1s" /><animate attributeName="x" from="15" to="82" dur="0.248" begin="animate6.end + 0.5" id="animate7" fill="freeze"/></rect><rect x="27" y="136" width="42" height="108" id="rect-8" fill="transparent" stroke="#000000"><set attributeName="y" to="28" begin="0; animate18.end + 1s" /><animate attributeName="y" from="28" to="136" dur="0.400" begin="animate7.end + 0.5" id="animate8" fill="freeze"/></rect><rect x="39" y="203" width="50" height="38" id="rect-9" fill="transparent" stroke="#000000"><set attributeName="x" to="-11" begin="0; animate18.end + 1s" /><animate attributeName="x" from="-11" to="39" dur="0.185" begin="animate8.end" id="animate9" fill="freeze"/></rect><rect x="71" y="139" width="23" height="17" id="rect-10" fill="transparent" stroke="#000000"><set attributeName="x" to="48" begin="0; animate18.end + 1s" /><animate attributeName="x" from="48" to="71" dur="0.085" begin="animate9.end + 0.5" id="animate10" fill="freeze"/></rect><rect x="69" y="168" width="25" height="19" id="rect-11" fill="transparent" stroke="#000000"><set attributeName="x" to="44" begin="0; animate18.end + 1s" /><animate attributeName="x" from="44" to="69" dur="0.093" begin="animate10.end + 0.5" id="animate11" fill="freeze"/></rect><rect x="90" y="126" width="27" height="110" id="rect-12" fill="transparent" stroke="#000000"><set attributeName="y" to="16" begin="0; animate18.end + 1s" /><animate attributeName="y" from="16" to="126" dur="0.407" begin="animate11.end + 0.5" id="animate12" fill="freeze"/></rect><rect x="108" y="201" width="39" height="31" id="rect-13" fill="transparent" stroke="#000000"><set attributeName="x" to="69" begin="0; animate18.end + 1s" /><animate attributeName="x" from="69" to="108" dur="0.144" begin="animate12.end" id="animate13" fill="freeze"/></rect><rect x="118" y="130" width="27" height="16" id="rect-14" fill="transparent" stroke="#000000"><set attributeName="x" to="91" begin="0; animate18.end + 1s" /><animate attributeName="x" from="91" to="118" dur="0.100" begin="animate13.end + 0.5" id="animate14" fill="freeze"/></rect><rect x="120" y="164" width="27" height="20" id="rect-15" fill="transparent" stroke="#000000"><set attributeName="x" to="93" begin="0; animate18.end + 1s" /><animate attributeName="x" from="93" to="120" dur="0.100" begin="animate14.end + 0.5" id="animate15" fill="freeze"/></rect><rect x="149" y="118" width="51" height="123" id="rect-16" fill="transparent" stroke="#000000"><set attributeName="y" to="-5" begin="0; animate18.end + 1s" /><animate attributeName="y" from="-5" to="118" dur="0.456" begin="animate15.end + 0.5" id="animate16" fill="freeze"/></rect><rect x="200" y="220" width="42" height="31" id="rect-17" fill="transparent" stroke="#000000"><set attributeName="x" to="158" begin="0; animate18.end + 1s" /><animate attributeName="x" from="158" to="200" dur="0.156" begin="animate16.end" id="animate17" fill="freeze"/></rect><rect x="218" y="195" width="20" height="41" id="rect-18" fill="transparent" stroke="#000000"><set attributeName="y" to="236" begin="0; animate18.end + 1s" /><animate attributeName="y" from="236" to="195" dur="0.152" begin="animate17.end" id="animate18" fill="freeze"/></rect></svg>