<svg xmlns="http://www.w3.org/2000/svg" xmlns:xlink="http://www.w3.org/1999/xlink" width="270" height="270"><defs><clipPath id="clip-mask-1"><use xlink:href="#rect-1" /></clipPath><clipPath id="clip-mask-2"><use xlink:href="#rect-2" /></clipPath><clipPath id="clip-mask-3"><use xlink:href="#rect-3" /></clipPath><clipPath id="clip-mask-4"><use xlink:href="#rect-4" /></clipPath><clipPath id="clip-mask-5"><use xlink:href="#rect-5" /></clipPath><clipPath id="clip-mask-6"><use xlink:href="#rect-6" /></clipPath><clipPath id="clip-mask-7"><use xlink:href="#rect-7" /></clipPath><clipPath id="clip-mask-8"><use xlink:href="#rect-8" /></clipPath><clipPath id="clip-mask-9"><use xlink:href="#rect-9" /></clipPath><clipPath id="clip-mask-10"><use xlink:href="#rect-10" /></clipPath><clipPath id="clip-mask-11"><use xlink:href="#rect-11" /></clipPath><clipPath id="clip-mask-12"><use xlink:href="#rect-12" /></clipPath><clipPath id="clip-mask-13"><use xlink:href="#rect-13" /></clipPath><clipPath id="clip-mask-14"><use xlink:href="#rect-14" /></clipPath><clipPath id="clip-mask-15"><use xlink:href="#rect-15" /></clipPath><clipPath id="clip-mask-16"><use xlink:href="#rect-16" /></clipPath><clipPath id="clip-mask-17"><use xlink:href="#rect-17" /></clipPath><clipPath id="clip-mask-18"><use xlink:href="#rect-18" /></clipPath><clipPath id="clip-mask-19"><use xlink:href="#rect-19" /></clipPath><clipPath id="clip-mask-20"><use xlink:href="#rect-20" /></clipPath><clipPath id="clip-mask-21"><use xlink:href="#rect-21" /></clipPath><clipPath id="clip-mask-22"><use xlink:href="#rect-22" /></clipPath></defs><path d="M 0 0 L 270 270 M 270 0 L 0 270 M 135 0 L 135 270 M 0 135 L 270 135" stroke="#CCCCCC" /><path d="M 83 29 L 82 27 Q 82 24 83 23 Q 84 22 88 23 Q 110 28 112 35 Q 114 43 113 46 Q 112 49 109 50 Q 105 50 102 46 Q 95 40 89 35" fill="#CCCCCC"/><path d="M 104 71 Q 91 73 79 75 Q 63 78 55 74 Q 50 70 58 69 Q 75 67 94 63 Q 117 56 123 57 Q 129 59 131 61 Q 132 63 130 65 Q 129 66 119 68 Q 115 68 113 69" fill="#CCCCCC"/><path d="M 62 88 L 62 85 Q 62 83 64 83 Q 66 83 68 85 Q 80 91 81 99 Q 80 102 79 104 Q 76 106 74 105 Q 69 101 64 91" fill="#CCCCCC"/><path d="M 94 104 L 95 104 Q 107 79 104 71 L 113 69 Q 119 74 120 77 Q 122 79 119 82 Q 115 86 113 90 Q 108 97 104 103 L 94 105" fill="#CCCCCC"/><path d="M 104 103 Q 123 97 131 101 Q 135 103 135 106 Q 135 108 131 108 Q 79 116 36 131 Q 26 135 17 128 Q 13 125 13 122 Q 14 120 17 120 Q 43 117 94 105" fill="#CCCCCC"/><path d="M 69 200 L 69 206 Q 69 237 59 243 Q 57 245 55 241 Q 50 235 50 228 Q 50 227 56 212 Q 66 163 56 139 Q 55 136 58 135 Q 66 135 72 140 L 73 146 Q 73 147 73 148 Q 72 152 72 163 L 71 171 Q 70 178 70 189 L 70 195" fill="#CCCCCC"/><path d="M 72 140 Q 88 134 88 134 Q 100 129 103 130 Q 111 133 115 136 Q 118 139 116 142 L 99 140 Q 95 139 73 146" fill="#CCCCCC"/><path d="M 116 142 Q 112 150 113 160 Q 115 186 116 213 Q 117 225 112 236 Q 107 247 103 248 Q 100 248 97 245 L 96 229 Q 100 227 101 221 Q 103 189 100 147 Q 101 142 99 140" fill="#CCCCCC"/><path d="M 97 245 Q 93 238 87 232 Q 83 230 83 228 Q 83 226 86 227 Q 95 229 96 229" fill="#CCCCCC"/><path d="M 72 163 Q 72 163 72 163 Q 80 160 85 160 Q 90 160 92 163 Q 94 166 90 167 Q 82 168 71 171" fill="#CCCCCC"/><path d="M 70 189 Q 79 183 87 184 Q 92 184 94 187 Q 96 190 92 191 Q 82 192 70 195" fill="#CCCCCC"/><path d="M 168 46 Q 176 45 183 44 Q 204 37 209 38 Q 216 39 217 42 Q 218 44 217 46 Q 216 47 211 48 Q 202 50 195 52 Q 176 56 167 53" fill="#CCCCCC"/><path d="M 160 94 Q 157 97 153 93 Q 147 88 149 84 Q 154 76 154 65 Q 156 31 152 25 Q 149 21 152 20 Q 156 18 168 23 Q 175 27 172 33 Q 170 37 168 46 L 167 53 Q 165 63 163 78 Q 163 83 168 82" fill="#CCCCCC"/><path d="M 189 82 Q 169 86 160 94 L 168 82 Q 184 75 195 70 Q 200 68 205 70 Q 217 77 218 80 Q 218 82 215 84" fill="#CCCCCC"/><path d="M 189 108 Q 193 96 195 91 Q 196 82 189 82 L 215 84 Q 213 86 211 88 Q 206 99 202 110" fill="#CCCCCC"/><path d="M 151 120 Q 167 116 186 109 Q 188 108 189 108 L 202 110 Q 207 112 207 114 Q 207 116 204 117 Q 164 124 157 128" fill="#CCCCCC"/><path d="M 156 216 L 169 223 L 154 232 Q 148 226 146 219 Q 140 202 143 143 Q 143 133 140 123 Q 138 119 140 118 Q 142 116 146 117 Q 149 118 151 120 L 157 128 Q 155 130 155 143 L 155 149 Q 153 158 153 167 L 153 172 Q 153 178 153 192 L 153 198" fill="#CCCCCC"/><path d="M 169 223 Q 190 232 215 226 Q 225 224 229 219 L 254 221 Q 256 228 251 231 Q 241 240 230 243 Q 224 244 219 245 Q 176 251 154 232" fill="#CCCCCC"/><path d="M 229 219 Q 234 212 244 189 Q 245 184 247 185 Q 249 187 249 191 Q 251 213 254 221" fill="#CCCCCC"/><path d="M 155 143 Q 164 142 172 141 Q 179 139 186 137 Q 192 135 198 136 Q 204 138 205 140 Q 206 142 204 143 Q 203 143 181 148 Q 166 150 155 149" fill="#CCCCCC"/><path d="M 153 167 Q 164 166 173 165 Q 181 163 188 161 Q 194 158 200 160 Q 206 162 207 164 Q 208 165 206 167 Q 205 168 198 169 Q 161 176 153 172" fill="#CCCCCC"/><path d="M 153 192 Q 153 192 154 192 Q 166 191 178 189 Q 199 184 204 185 Q 210 186 212 189 Q 213 191 211 193 Q 210 194 203 195 Q 188 197 174 200 Q 164 202 153 198" fill="#CCCCCC"/><path d="M 83 29 L 82 27 Q 82 24 83 23 Q 84 22 88 23 Q 110 28 112 35 Q 114 43 113 46 Q 112 49 109 50 Q 105 50 102 46 Q 95 40 89 35" fill="#0000ff" clip-path="url(#clip-mask-1)" /><path d="M 104 71 Q 91 73 79 75 Q 63 78 55 74 Q 50 70 58 69 Q 75 67 94 63 Q 117 56 123 57 Q 129 59 131 61 Q 132 63 130 65 Q 129 66 119 68 Q 115 68 113 69" fill="#0000ff" clip-path="url(#clip-mask-2)" /><path d="M 62 88 L 62 85 Q 62 83 64 83 Q 66 83 68 85 Q 80 91 81 99 Q 80 102 79 104 Q 76 106 74 105 Q 69 101 64 91" fill="#0000ff" clip-path="url(#clip-mask-3)" /><path d="M 94 104 L 95 104 Q 107 79 104 71 L 113 69 Q 119 74 120 77 Q 122 79 119 82 Q 115 86 113 90 Q 108 97 104 103 L 94 105" fill="#0000ff" clip-path="url(#clip-mask-4)" /><path d="M 104 103 Q 123 97 131 101 Q 135 103 135 106 Q 135 108 131 108 Q 79 116 36 131 Q 26 135 17 128 Q 13 125 13 122 Q 14 120 17 120 Q 43 117 94 105" fill="#0000ff" clip-path="url(#clip-mask-5)" /><path d="M 69 200 L 69 206 Q 69 237 59 243 Q 57 245 55 241 Q 50 235 50 228 Q 50 227 56 212 Q 66 163 56 139 Q 55 136 58 135 Q 66 135 72 140 L 73 146 Q 73 147 73 148 Q 72 152 72 163 L 71 171 Q 70 178 70 189 L 70 195" fill="#0000ff" clip-path="url(#clip-mask-6)" /><path d="M 72 140 Q 88 134 88 134 Q 100 129 103 130 Q 111 133 115 136 Q 118 139 116 142 L 99 140 Q 95 139 73 146" fill="#0000ff" clip-path="url(#clip-mask-7)" /><path d="M 116 142 Q 112 150 113 160 Q 115 186 116 213 Q 117 225 112 236 Q 107 247 103 248 Q 100 248 97 245 L 96 229 Q 100 227 101 221 Q 103 189 100 147 Q 101 142 99 140" fill="#0000ff" clip-path="url(#clip-mask-8)" /><path d="M 97 245 Q 93 238 87 232 Q 83 230 83 228 Q 83 226 86 227 Q 95 229 96 229" fill="#0000ff" clip-path="url(#clip-mask-9)" /><path d="M 72 163 Q 72 163 72 163 Q 80 160 85 160 Q 90 160 92 163 Q 94 166 90 167 Q 82 168 71 171" fill="#0000ff" clip-path="url(#clip-mask-10)" /><path d="M 70 189 Q 79 183 87 184 Q 92 184 94 187 Q 96 190 92 191 Q 82 192 70 195" fill="#0000ff" clip-path="url(#clip-mask-11)" /><path d="M 168 46 Q 176 45 183 44 Q 204 37 209 38 Q 216 39 217 42 Q 218 44 217 46 Q 216 47 211 48 Q 202 50 195 52 Q 176 56 167 53" fill="#0000ff" clip-path="url(#clip-mask-12)" /><path d="M 160 94 Q 157 97 153 93 Q 147 88 149 84 Q 154 76 154 65 Q 156 31 152 25 Q 149 21 152 20 Q 156 18 168 23 Q 175 27 172 33 Q 170 37 168 46 L 167 53 Q 165 63 163 78 Q 163 83 168 82" fill="#0000ff" clip-path="url(#clip-mask-13)" /><path d="M 189 82 Q 169 86 160 94 L 168 82 Q 184 75 195 70 Q 200 68 205 70 Q 217 77 218 80 Q 218 82 215 84" fill="#0000ff" clip-path="url(#clip-mask-14)" /><path d="M 189 108 Q 193 96 195 91 Q 196 82 189 82 L 215 84 Q 213 86 211 88 Q 206 99 202 110" fill="#0000ff" clip-path="url(#clip-mask-15)" /><path d="M 151 120 Q 167 116 186 109 Q 188 108 189 108 L 202 110 Q 207 112 207 114 Q 207 116 204 117 Q 164 124 157 128" fill="#0000ff" clip-path="url(#clip-mask-16)" /><path d="M 156 216 L 169 223 L 154 232 Q 148 226 146 219 Q 140 202 143 143 Q 143 133 140 123 Q 138 119 140 118 Q 142 116 146 117 Q 149 118 151 120 L 157 128 Q 155 130 155 143 L 155 149 Q 153 158 153 167 L 153 172 Q 153 178 153 192 L 153 198" fill="#0000ff" clip-path="url(#clip-mask-17)" /><path d="M 169 223 Q 190 232 215 226 Q 225 224 229 219 L 254 221 Q 256 228 251 231 Q 241 240 230 243 Q 224 244 219 245 Q 176 251 154 232" fill="#0000ff" clip-path="url(#clip-mask-18)" /><path d="M 229 219 Q 234 212 244 189 Q 245 184 247 185 Q 249 187 249 191 Q 251 213 254 221" fill="#0000ff" clip-path="url(#clip-mask-19)" /><path d="M 155 143 Q 164 142 172 141 Q 179 139 186 137 Q 192 135 198 136 Q 204 138 205 140 Q 206 142 204 143 Q 203 143 181 148 Q 166 150 155 149" fill="#0000ff" clip-path="url(#clip-mask-20)" /><path d="M 153 167 Q 164 166 173 165 Q 181 163 188 161 Q 194 158 200 160 Q 206 162 207 164 Q 208 165 206 167 Q 205 168 198 169 Q 161 176 153 172" fill="#0000ff" clip-path="url(#clip-mask-21)" /><path d="M 153 192 Q 153 192 154 192 Q 166 191 178 189 Q 199 184 204 185 Q 210 186 212 189 Q 213 191 211 193 Q 210 194 203 195 Q 188 197 174 200 Q 164 202 153 198" fill="#0000ff" clip-path="url(#clip-mask-22)" /><rect x="82" y="22" width="32" height="28" id="rect-1" fill="transparent" stroke="#000000"><animate attributeName="x" from="50" to="82" dur="0.119" begin="0; animate22.end + 1s" id="animate1" fill="freeze"/></rect><rect x="50" y="56" width="82" height="22" id="rect-2" fill="transparent" stroke="#000000"><set attributeName="x" to="-32" begin="0; animate22.end + 1s" /><animate attributeName="x" from="-32" to="50" dur="0.304" begin="animate1.end + 0.5" id="animate2" fill="freeze"/></rect><rect x="62" y="83" width="19" height="23" id="rect-3" fill="transparent" stroke="#000000"><set attributeName="y" to="60" begin="0; animate22.end + 1s" /><animate attributeName="y" from="60" to="83" dur="0.085" begin="animate2.end + 0.5" id="animate3" fill="freeze"/></rect><rect x="94" y="69" width="28" height="36" id="rect-4" fill="transparent" stroke="#000000"><set attributeName="y" to="33" begin="0; animate22.end + 1s" /><animate attributeName="y" from="33" to="69" dur="0.133" begin="animate3.end + 0.5" id="animate4" fill="freeze"/></rect><rect x="13" y="97" width="122" height="38" id="rect-5" fill="transparent" stroke="#000000"><set attributeName="x" to="-109" begin="0; animate22.end + 1s" /><animate attributeName="x" from="-109" to="13" dur="0.452" begin="animate4.end + 0.5" id="animate5" fill="freeze"/></rect><rect x="50" y="135" width="23" height="110" id="rect-6" fill="transparent" stroke="#000000"><set attributeName="y" to="25" begin="0; animate22.end + 1s" /><animate attributeName="y" from="25" to="135" dur="0.407" begin="animate5.end + 0.5" id="animate6" fill="freeze"/></rect><rect x="72" y="129" width="46" height="17" id="rect-7" fill="transparent" stroke="#000000"><set attributeName="x" to="26" begin="0; animate22.end + 1s" /><animate attributeName="x" from="26" to="72" dur="0.170" begin="animate6.end + 0.5" id="animate7" fill="freeze"/></rect><rect x="96" y="140" width="21" height="108" id="rect-8" fill="transparent" stroke="#000000"><set attributeName="y" to="32" begin="0; animate22.end + 1s" /><animate attributeName="y" from="32" to="140" dur="0.400" begin="animate7.end" id="animate8" fill="freeze"/></rect><rect x="83" y="226" width="14" height="19" id="rect-9" fill="transparent" stroke="#000000"><set attributeName="x" to="97" begin="0; animate22.end + 1s" /><animate attributeName="x" from="97" to="83" dur="0.052" begin="animate8.end" id="animate9" fill="freeze"/></rect><rect x="71" y="160" width="23" height="11" id="rect-10" fill="transparent" stroke="#000000"><set attributeName="x" to="48" begin="0; animate22.end + 1s" /><animate attributeName="x" from="48" to="71" dur="0.085" begin="animate9.end + 0.5" id="animate10" fill="freeze"/></rect><rect x="70" y="183" width="26" height="12" id="rect-11" fill="transparent" stroke="#000000"><set attributeName="x" to="44" begin="0; animate22.end + 1s" /><animate attributeName="x" from="44" to="70" dur="0.096" begin="animate10.end + 0.5" id="animate11" fill="freeze"/></rect><rect x="167" y="37" width="51" height="19" id="rect-12" fill="transparent" stroke="#000000"><set attributeName="x" to="116" begin="0; animate22.end + 1s" /><animate attributeName="x" from="116" to="167" dur="0.189" begin="animate11.end + 0.5" id="animate12" fill="freeze"/></rect><rect x="147" y="18" width="28" height="79" id="rect-13" fill="transparent" stroke="#000000"><set attributeName="y" to="-61" begin="0; animate22.end + 1s" /><animate attributeName="y" from="-61" to="18" dur="0.293" begin="animate12.end + 0.5" id="animate13" fill="freeze"/></rect><rect x="160" y="68" width="58" height="26" id="rect-14" fill="transparent" stroke="#000000"><set attributeName="x" to="102" begin="0; animate22.end + 1s" /><animate attributeName="x" from="102" to="160" dur="0.215" begin="animate13.end" id="animate14" fill="freeze"/></rect><rect x="189" y="82" width="26" height="28" id="rect-15" fill="transparent" stroke="#000000"><set attributeName="y" to="54" begin="0; animate22.end + 1s" /><animate attributeName="y" from="54" to="82" dur="0.104" begin="animate14.end" id="animate15" fill="freeze"/></rect><rect x="151" y="108" width="56" height="20" id="rect-16" fill="transparent" stroke="#000000"><set attributeName="x" to="95" begin="0; animate22.end + 1s" /><animate attributeName="x" from="95" to="151" dur="0.207" begin="animate15.end + 0.5" id="animate16" fill="freeze"/></rect><rect x="138" y="116" width="31" height="116" id="rect-17" fill="transparent" stroke="#000000"><set attributeName="y" to="0" begin="0; animate22.end + 1s" /><animate attributeName="y" from="0" to="116" dur="0.430" begin="animate16.end + 0.5" id="animate17" fill="freeze"/></rect><rect x="154" y="219" width="102" height="32" id="rect-18" fill="transparent" stroke="#000000"><set attributeName="x" to="52" begin="0; animate22.end + 1s" /><animate attributeName="x" from="52" to="154" dur="0.378" begin="animate17.end" id="animate18" fill="freeze"/></rect><rect x="229" y="184" width="25" height="37" id="rect-19" fill="transparent" stroke="#000000"><set attributeName="y" to="221" begin="0; animate22.end + 1s" /><animate attributeName="y" from="221" to="184" dur="0.137" begin="animate18.end" id="animate19" fill="freeze"/></rect><rect x="155" y="135" width="51" height="15" id="rect-20" fill="transparent" stroke="#000000"><set attributeName="x" to="104" begin="0; animate22.end + 1s" /><animate attributeName="x" from="104" to="155" dur="0.189" begin="animate19.end + 0.5" id="animate20" fill="freeze"/></rect><rect x="153" y="158" width="55" height="18" id="rect-21" fill="transparent" stroke="#000000"><set attributeName="x" to="98" begin="0; animate22.end + 1s" /><animate attributeName="x" from="98" to="153" dur="0.204" begin="animate20.end + 0.5" id="animate21" fill="freeze"/></rect><rect x="153" y="184" width="60" height="18" id="rect-22" fill="transparent" stroke="#000000"><set attributeName="x" to="93" begin="0; animate22.end + 1s" /><animate attributeName="x" from="93" to="153" dur="0.222" begin="animate21.end + 0.5" id="animate22" fill="freeze"/></rect></svg>